<?xml version="1.0" encoding="UTF-8" standalone="no"?>
<!DOCTYPE svg PUBLIC "-//W3C//DTD SVG 1.1//EN"
 "http://www.w3.org/Graphics/SVG/1.1/DTD/svg11.dtd">
<!-- Generated by graphviz version 12.2.1 (0)
 -->
<!-- Title: lix/libutil/abstract&#45;setting&#45;to&#45;json.hh Pages: 1 -->
<svg width="1740pt" height="395pt"
 viewBox="0.00 0.00 1739.94 394.75" xmlns="http://www.w3.org/2000/svg" xmlns:xlink="http://www.w3.org/1999/xlink">
<g id="graph0" class="graph" transform="scale(1 1) rotate(0) translate(4 390.75)">
<title>lix/libutil/abstract&#45;setting&#45;to&#45;json.hh</title>
<!-- Node1 -->
<g id="Node000001" class="node">
<title>Node1</title>
<g id="a_Node000001"><a xlink:title=" ">
<polygon fill="#999999" stroke="#666666" points="925.75,-386.75 819.75,-386.75 819.75,-353.25 925.75,-353.25 925.75,-386.75"/>
<text text-anchor="start" x="827.75" y="-373.25" font-family="Helvetica,sans-Serif" font-size="10.00">lix/libutil/abstract</text>
<text text-anchor="middle" x="872.75" y="-360.5" font-family="Helvetica,sans-Serif" font-size="10.00">&#45;setting&#45;to&#45;json.hh</text>
</a>
</g>
</g>
<!-- Node2 -->
<g id="Node000002" class="node">
<title>Node2</title>
<g id="a_Node000002"><a xlink:href="libutil_2config_8hh.html" target="_top" xlink:title=" ">
<polygon fill="white" stroke="#666666" points="1266.75,-317.25 1160.75,-317.25 1160.75,-296.5 1266.75,-296.5 1266.75,-317.25"/>
<text text-anchor="middle" x="1213.75" y="-303.75" font-family="Helvetica,sans-Serif" font-size="10.00">lix/libutil/config.hh</text>
</a>
</g>
</g>
<!-- Node1&#45;&gt;Node2 -->
<g id="edge1_Node000001_Node000002" class="edge">
<title>Node1&#45;&gt;Node2</title>
<g id="a_edge1_Node000001_Node000002"><a xlink:title=" ">
<path fill="none" stroke="#63b8ff" d="M926.03,-359.45C986.29,-348.65 1084.4,-331.06 1149.02,-319.48"/>
<polygon fill="#63b8ff" stroke="#63b8ff" points="1149.57,-322.94 1158.79,-317.73 1148.33,-316.05 1149.57,-322.94"/>
</a>
</g>
</g>
<!-- Node38 -->
<g id="Node000038" class="node">
<title>Node38</title>
<g id="a_Node000038"><a xlink:href="json_8hh_source.html" target="_top" xlink:title=" ">
<polygon fill="white" stroke="#666666" points="534.25,-254.12 437.25,-254.12 437.25,-233.38 534.25,-233.38 534.25,-254.12"/>
<text text-anchor="middle" x="485.75" y="-240.62" font-family="Helvetica,sans-Serif" font-size="10.00">lix/libutil/json.hh</text>
</a>
</g>
</g>
<!-- Node1&#45;&gt;Node38 -->
<g id="edge55_Node000001_Node000038" class="edge">
<title>Node1&#45;&gt;Node38</title>
<g id="a_edge55_Node000001_Node000038"><a xlink:title=" ">
<path fill="none" stroke="#63b8ff" d="M822.16,-352.76C744.85,-327.94 598.79,-281.04 527.29,-258.09"/>
<polygon fill="#63b8ff" stroke="#63b8ff" points="528.51,-254.8 517.92,-255.08 526.37,-261.47 528.51,-254.8"/>
</a>
</g>
</g>
<!-- Node3 -->
<g id="Node000003" class="node">
<title>Node3</title>
<g id="a_Node000003"><a xlink:title=" ">
<polygon fill="#e0e0e0" stroke="#999999" points="1396.38,-254.12 1345.12,-254.12 1345.12,-233.38 1396.38,-233.38 1396.38,-254.12"/>
<text text-anchor="middle" x="1370.75" y="-240.62" font-family="Helvetica,sans-Serif" font-size="10.00">cassert</text>
</a>
</g>
</g>
<!-- Node2&#45;&gt;Node3 -->
<g id="edge2_Node000002_Node000003" class="edge">
<title>Node2&#45;&gt;Node3</title>
<g id="a_edge2_Node000002_Node000003"><a xlink:title=" ">
<path fill="none" stroke="#63b8ff" d="M1241.57,-296.13C1266.43,-287.27 1303.76,-273.63 1335.75,-260.5 1336.89,-260.03 1338.05,-259.55 1339.22,-259.06"/>
<polygon fill="#63b8ff" stroke="#63b8ff" points="1340.59,-262.28 1348.36,-255.08 1337.8,-255.86 1340.59,-262.28"/>
</a>
</g>
</g>
<!-- Node4 -->
<g id="Node000004" class="node">
<title>Node4</title>
<g id="a_Node000004"><a xlink:title=" ">
<polygon fill="#e0e0e0" stroke="#999999" points="1719.62,-134.25 1681.88,-134.25 1681.88,-113.5 1719.62,-113.5 1719.62,-134.25"/>
<text text-anchor="middle" x="1700.75" y="-120.75" font-family="Helvetica,sans-Serif" font-size="10.00">map</text>
</a>
</g>
</g>
<!-- Node2&#45;&gt;Node4 -->
<g id="edge3_Node000002_Node000004" class="edge">
<title>Node2&#45;&gt;Node4</title>
<g id="a_edge3_Node000002_Node000004"><a xlink:title=" ">
<path fill="none" stroke="#63b8ff" d="M1267.19,-302.32C1348.06,-296.31 1497.24,-282.59 1545.75,-260.5 1606.53,-232.82 1661.13,-173.33 1686.21,-143.19"/>
<polygon fill="#63b8ff" stroke="#63b8ff" points="1688.73,-145.64 1692.34,-135.68 1683.3,-141.22 1688.73,-145.64"/>
</a>
</g>
</g>
<!-- Node5 -->
<g id="Node000005" class="node">
<title>Node5</title>
<g id="a_Node000005"><a xlink:title=" ">
<polygon fill="#e0e0e0" stroke="#999999" points="1669.25,-77.5 1638.25,-77.5 1638.25,-56.75 1669.25,-56.75 1669.25,-77.5"/>
<text text-anchor="middle" x="1653.75" y="-64" font-family="Helvetica,sans-Serif" font-size="10.00">set</text>
</a>
</g>
</g>
<!-- Node2&#45;&gt;Node5 -->
<g id="edge4_Node000002_Node000005" class="edge">
<title>Node2&#45;&gt;Node5</title>
<g id="a_edge4_Node000002_Node000005"><a xlink:title=" ">
<path fill="none" stroke="#63b8ff" d="M1267.22,-303.22C1356.28,-298.17 1530.79,-285.37 1586.75,-260.5 1663.92,-226.21 1694.72,-211.54 1728.75,-134.25 1732.47,-125.81 1733.28,-121.53 1728.75,-113.5 1718.39,-95.12 1697.26,-83.34 1680.05,-76.4"/>
<polygon fill="#63b8ff" stroke="#63b8ff" points="1681.49,-73.2 1670.89,-73.04 1679.08,-79.77 1681.49,-73.2"/>
</a>
</g>
</g>
<!-- Node6 -->
<g id="Node000006" class="node">
<title>Node6</title>
<g id="a_Node000006"><a xlink:href="json-fwd_8hh_source.html" target="_top" xlink:title=" ">
<polygon fill="white" stroke="#666666" points="301.75,-134.25 183.75,-134.25 183.75,-113.5 301.75,-113.5 301.75,-134.25"/>
<text text-anchor="middle" x="242.75" y="-120.75" font-family="Helvetica,sans-Serif" font-size="10.00">lix/libutil/json&#45;fwd.hh</text>
</a>
</g>
</g>
<!-- Node2&#45;&gt;Node6 -->
<g id="edge5_Node000002_Node000006" class="edge">
<title>Node2&#45;&gt;Node6</title>
<g id="a_edge5_Node000002_Node000006"><a xlink:title=" ">
<path fill="none" stroke="#63b8ff" d="M1160.42,-306.66C1032.88,-307.7 700.51,-305.47 427.75,-260.5 313.12,-241.6 246.14,-283.43 175.75,-191 161,-171.63 186.1,-152.42 209.67,-139.73"/>
<polygon fill="#63b8ff" stroke="#63b8ff" points="211.21,-142.88 218.55,-135.23 208.04,-136.63 211.21,-142.88"/>
</a>
</g>
</g>
<!-- Node9 -->
<g id="Node000009" class="node">
<title>Node9</title>
<g id="a_Node000009"><a xlink:href="types_8hh.html" target="_top" xlink:title=" ">
<polygon fill="white" stroke="#666666" points="1527.62,-191 1423.88,-191 1423.88,-170.25 1527.62,-170.25 1527.62,-191"/>
<text text-anchor="middle" x="1475.75" y="-177.5" font-family="Helvetica,sans-Serif" font-size="10.00">lix/libutil/types.hh</text>
</a>
</g>
</g>
<!-- Node2&#45;&gt;Node9 -->
<g id="edge8_Node000002_Node000009" class="edge">
<title>Node2&#45;&gt;Node9</title>
<g id="a_edge8_Node000002_Node000009"><a xlink:title=" ">
<path fill="none" stroke="#63b8ff" d="M1204.67,-296.01C1190.92,-279.87 1168.18,-247.54 1185.75,-227 1186.21,-226.46 1327.09,-204.6 1412.3,-191.42"/>
<polygon fill="#63b8ff" stroke="#63b8ff" points="1412.83,-194.88 1422.18,-189.9 1411.76,-187.97 1412.83,-194.88"/>
</a>
</g>
</g>
<!-- Node17 -->
<g id="Node000017" class="node">
<title>Node17</title>
<g id="a_Node000017"><a xlink:href="experimental-features_8hh.html" target="_top" xlink:title=" ">
<polygon fill="white" stroke="#666666" points="791.25,-260.5 664.25,-260.5 664.25,-227 791.25,-227 791.25,-260.5"/>
<text text-anchor="start" x="672.25" y="-247" font-family="Helvetica,sans-Serif" font-size="10.00">lix/libutil/experimental</text>
<text text-anchor="middle" x="727.75" y="-234.25" font-family="Helvetica,sans-Serif" font-size="10.00">&#45;features.hh</text>
</a>
</g>
</g>
<!-- Node2&#45;&gt;Node17 -->
<g id="edge18_Node000002_Node000017" class="edge">
<title>Node2&#45;&gt;Node17</title>
<g id="a_edge18_Node000002_Node000017"><a xlink:title=" ">
<path fill="none" stroke="#63b8ff" d="M1160.35,-299.16C1073.66,-288.26 902.04,-266.67 803.01,-254.22"/>
<polygon fill="#63b8ff" stroke="#63b8ff" points="803.46,-250.74 793.1,-252.97 802.59,-257.69 803.46,-250.74"/>
</a>
</g>
</g>
<!-- Node34 -->
<g id="Node000034" class="node">
<title>Node34</title>
<g id="a_Node000034"><a xlink:href="deprecated-features_8hh.html" target="_top" xlink:title=" ">
<polygon fill="white" stroke="#666666" points="1139,-260.5 1022.5,-260.5 1022.5,-227 1139,-227 1139,-260.5"/>
<text text-anchor="start" x="1030.5" y="-247" font-family="Helvetica,sans-Serif" font-size="10.00">lix/libutil/deprecated</text>
<text text-anchor="middle" x="1080.75" y="-234.25" font-family="Helvetica,sans-Serif" font-size="10.00">&#45;features.hh</text>
</a>
</g>
</g>
<!-- Node2&#45;&gt;Node34 -->
<g id="edge46_Node000002_Node000034" class="edge">
<title>Node2&#45;&gt;Node34</title>
<g id="a_edge46_Node000002_Node000034"><a xlink:title=" ">
<path fill="none" stroke="#63b8ff" d="M1192.38,-296.05C1174.63,-287.9 1148.76,-276.01 1126.39,-265.73"/>
<polygon fill="#63b8ff" stroke="#63b8ff" points="1128,-262.61 1117.45,-261.62 1125.08,-268.97 1128,-262.61"/>
</a>
</g>
</g>
<!-- Node36 -->
<g id="Node000036" class="node">
<title>Node36</title>
<g id="a_Node000036"><a xlink:href="apply-config-options_8hh.html" target="_top" xlink:title="Options for applying Config settings.">
<polygon fill="white" stroke="#666666" points="1536.62,-260.5 1414.88,-260.5 1414.88,-227 1536.62,-227 1536.62,-260.5"/>
<text text-anchor="start" x="1422.88" y="-247" font-family="Helvetica,sans-Serif" font-size="10.00">lix/libutil/apply&#45;config</text>
<text text-anchor="middle" x="1475.75" y="-234.25" font-family="Helvetica,sans-Serif" font-size="10.00">&#45;options.hh</text>
</a>
</g>
</g>
<!-- Node2&#45;&gt;Node36 -->
<g id="edge52_Node000002_Node000036" class="edge">
<title>Node2&#45;&gt;Node36</title>
<g id="a_edge52_Node000002_Node000036"><a xlink:title=" ">
<path fill="none" stroke="#63b8ff" d="M1255.84,-296.05C1295.62,-286.78 1356.09,-272.67 1403.56,-261.59"/>
<polygon fill="#63b8ff" stroke="#63b8ff" points="1404.3,-265.01 1413.24,-259.33 1402.7,-258.2 1404.3,-265.01"/>
</a>
</g>
</g>
<!-- Node37 -->
<g id="Node000037" class="node">
<title>Node37</title>
<g id="a_Node000037"><a xlink:title=" ">
<polygon fill="#e0e0e0" stroke="#999999" points="1326.88,-254.12 1194.62,-254.12 1194.62,-233.38 1326.88,-233.38 1326.88,-254.12"/>
<text text-anchor="middle" x="1260.75" y="-240.62" font-family="Helvetica,sans-Serif" font-size="10.00">feature&#45;settings.gen.inc</text>
</a>
</g>
</g>
<!-- Node2&#45;&gt;Node37 -->
<g id="edge54_Node000002_Node000037" class="edge">
<title>Node2&#45;&gt;Node37</title>
<g id="a_edge54_Node000002_Node000037"><a xlink:title=" ">
<path fill="none" stroke="#63b8ff" d="M1221.3,-296.05C1228.06,-287.27 1238.14,-274.16 1246.42,-263.39"/>
<polygon fill="#63b8ff" stroke="#63b8ff" points="1249.13,-265.61 1252.45,-255.54 1243.58,-261.34 1249.13,-265.61"/>
</a>
</g>
</g>
<!-- Node7 -->
<g id="Node000007" class="node">
<title>Node7</title>
<g id="a_Node000007"><a xlink:title=" ">
<polygon fill="#e0e0e0" stroke="#999999" points="131.5,-77.5 0,-77.5 0,-56.75 131.5,-56.75 131.5,-77.5"/>
<text text-anchor="middle" x="65.75" y="-64" font-family="Helvetica,sans-Serif" font-size="10.00">nlohmann/json_fwd.hpp</text>
</a>
</g>
</g>
<!-- Node6&#45;&gt;Node7 -->
<g id="edge6_Node000006_Node000007" class="edge">
<title>Node6&#45;&gt;Node7</title>
<g id="a_edge6_Node000006_Node000007"><a xlink:title=" ">
<path fill="none" stroke="#63b8ff" d="M211.11,-113.09C182.38,-104.2 139.78,-91.02 108.12,-81.23"/>
<polygon fill="#63b8ff" stroke="#63b8ff" points="109.45,-77.98 98.86,-78.37 107.38,-84.67 109.45,-77.98"/>
</a>
</g>
</g>
<!-- Node8 -->
<g id="Node000008" class="node">
<title>Node8</title>
<g id="a_Node000008"><a xlink:title=" ">
<polygon fill="#e0e0e0" stroke="#999999" points="552,-77.5 483.5,-77.5 483.5,-56.75 552,-56.75 552,-77.5"/>
<text text-anchor="middle" x="517.75" y="-64" font-family="Helvetica,sans-Serif" font-size="10.00">type_traits</text>
</a>
</g>
</g>
<!-- Node6&#45;&gt;Node8 -->
<g id="edge7_Node000006_Node000008" class="edge">
<title>Node6&#45;&gt;Node8</title>
<g id="a_edge7_Node000006_Node000008"><a xlink:title=" ">
<path fill="none" stroke="#63b8ff" d="M294.87,-113.01C339.45,-104.5 405.62,-91.7 471.95,-78.05"/>
<polygon fill="#63b8ff" stroke="#63b8ff" points="472.46,-81.52 481.55,-76.07 471.05,-74.66 472.46,-81.52"/>
</a>
</g>
</g>
<!-- Node9&#45;&gt;Node4 -->
<g id="edge14_Node000009_Node000004" class="edge">
<title>Node9&#45;&gt;Node4</title>
<g id="a_edge14_Node000009_Node000004"><a xlink:title=" ">
<path fill="none" stroke="#63b8ff" d="M1519.74,-169.82C1558.74,-160.98 1617.2,-147.4 1667.75,-134.25 1668.73,-133.99 1669.73,-133.73 1670.74,-133.46"/>
<polygon fill="#63b8ff" stroke="#63b8ff" points="1671.42,-136.9 1680.14,-130.88 1669.57,-130.16 1671.42,-136.9"/>
</a>
</g>
</g>
<!-- Node9&#45;&gt;Node5 -->
<g id="edge11_Node000009_Node000005" class="edge">
<title>Node9&#45;&gt;Node5</title>
<g id="a_edge11_Node000009_Node000005"><a xlink:title=" ">
<path fill="none" stroke="#63b8ff" d="M1528.11,-170C1554.27,-163.25 1585.27,-152.14 1608.75,-134.25 1624.77,-122.05 1637.08,-102.45 1644.74,-87.75"/>
<polygon fill="#63b8ff" stroke="#63b8ff" points="1647.76,-89.55 1649.02,-79.03 1641.47,-86.47 1647.76,-89.55"/>
</a>
</g>
</g>
<!-- Node10 -->
<g id="Node000010" class="node">
<title>Node10</title>
<g id="a_Node000010"><a xlink:title=" ">
<polygon fill="#e0e0e0" stroke="#999999" points="1052.25,-134.25 1021.25,-134.25 1021.25,-113.5 1052.25,-113.5 1052.25,-134.25"/>
<text text-anchor="middle" x="1036.75" y="-120.75" font-family="Helvetica,sans-Serif" font-size="10.00">list</text>
</a>
</g>
</g>
<!-- Node9&#45;&gt;Node10 -->
<g id="edge9_Node000009_Node000010" class="edge">
<title>Node9&#45;&gt;Node10</title>
<g id="a_edge9_Node000009_Node000010"><a xlink:title=" ">
<path fill="none" stroke="#63b8ff" d="M1423.53,-171.46C1420.56,-171.04 1417.62,-170.63 1414.75,-170.25 1275.09,-151.54 1239.46,-152.62 1099.75,-134.25 1087.91,-132.69 1074.86,-130.78 1063.71,-129.09"/>
<polygon fill="#63b8ff" stroke="#63b8ff" points="1064.43,-125.66 1054.02,-127.6 1063.37,-132.58 1064.43,-125.66"/>
</a>
</g>
</g>
<!-- Node11 -->
<g id="Node000011" class="node">
<title>Node11</title>
<g id="a_Node000011"><a xlink:title=" ">
<polygon fill="#e0e0e0" stroke="#999999" points="1318.62,-134.25 1262.88,-134.25 1262.88,-113.5 1318.62,-113.5 1318.62,-134.25"/>
<text text-anchor="middle" x="1290.75" y="-120.75" font-family="Helvetica,sans-Serif" font-size="10.00">optional</text>
</a>
</g>
</g>
<!-- Node9&#45;&gt;Node11 -->
<g id="edge10_Node000009_Node000011" class="edge">
<title>Node9&#45;&gt;Node11</title>
<g id="a_edge10_Node000009_Node000011"><a xlink:title=" ">
<path fill="none" stroke="#63b8ff" d="M1442.68,-169.84C1411.02,-160.47 1363.27,-146.34 1329.77,-136.42"/>
<polygon fill="#63b8ff" stroke="#63b8ff" points="1331.03,-133.15 1320.45,-133.66 1329.04,-139.86 1331.03,-133.15"/>
</a>
</g>
</g>
<!-- Node12 -->
<g id="Node000012" class="node">
<title>Node12</title>
<g id="a_Node000012"><a xlink:title=" ">
<polygon fill="#e0e0e0" stroke="#999999" points="1103.62,-77.5 1059.88,-77.5 1059.88,-56.75 1103.62,-56.75 1103.62,-77.5"/>
<text text-anchor="middle" x="1081.75" y="-64" font-family="Helvetica,sans-Serif" font-size="10.00">string</text>
</a>
</g>
</g>
<!-- Node9&#45;&gt;Node12 -->
<g id="edge12_Node000009_Node000012" class="edge">
<title>Node9&#45;&gt;Node12</title>
<g id="a_edge12_Node000009_Node000012"><a xlink:title=" ">
<path fill="none" stroke="#63b8ff" d="M1505.31,-169.83C1536.93,-157.87 1579.86,-136.39 1558.75,-113.5 1526.78,-78.85 1198.34,-85.86 1115.28,-77.05"/>
<polygon fill="#63b8ff" stroke="#63b8ff" points="1115.85,-73.6 1105.46,-75.67 1114.87,-80.53 1115.85,-73.6"/>
</a>
</g>
</g>
<!-- Node13 -->
<g id="Node000013" class="node">
<title>Node13</title>
<g id="a_Node000013"><a xlink:title=" ">
<polygon fill="#e0e0e0" stroke="#999999" points="1411.88,-77.5 1339.62,-77.5 1339.62,-56.75 1411.88,-56.75 1411.88,-77.5"/>
<text text-anchor="middle" x="1375.75" y="-64" font-family="Helvetica,sans-Serif" font-size="10.00">string_view</text>
</a>
</g>
</g>
<!-- Node9&#45;&gt;Node13 -->
<g id="edge13_Node000009_Node000013" class="edge">
<title>Node9&#45;&gt;Node13</title>
<g id="a_edge13_Node000009_Node000013"><a xlink:title=" ">
<path fill="none" stroke="#63b8ff" d="M1526.64,-169.8C1567.4,-159.63 1614.32,-141.31 1591.75,-113.5 1570.96,-87.89 1480.47,-76.21 1423.41,-71.3"/>
<polygon fill="#63b8ff" stroke="#63b8ff" points="1423.88,-67.83 1413.63,-70.5 1423.32,-74.8 1423.88,-67.83"/>
</a>
</g>
</g>
<!-- Node14 -->
<g id="Node000014" class="node">
<title>Node14</title>
<g id="a_Node000014"><a xlink:title=" ">
<polygon fill="#e0e0e0" stroke="#999999" points="1492.12,-134.25 1445.38,-134.25 1445.38,-113.5 1492.12,-113.5 1492.12,-134.25"/>
<text text-anchor="middle" x="1468.75" y="-120.75" font-family="Helvetica,sans-Serif" font-size="10.00">vector</text>
</a>
</g>
</g>
<!-- Node9&#45;&gt;Node14 -->
<g id="edge15_Node000009_Node000014" class="edge">
<title>Node9&#45;&gt;Node14</title>
<g id="a_edge15_Node000009_Node000014"><a xlink:title=" ">
<path fill="none" stroke="#63b8ff" d="M1474.5,-169.84C1473.64,-163.14 1472.48,-154.01 1471.42,-145.73"/>
<polygon fill="#63b8ff" stroke="#63b8ff" points="1474.92,-145.56 1470.18,-136.08 1467.98,-146.44 1474.92,-145.56"/>
</a>
</g>
</g>
<!-- Node15 -->
<g id="Node000015" class="node">
<title>Node15</title>
<g id="a_Node000015"><a xlink:title=" ">
<polygon fill="#e0e0e0" stroke="#999999" points="1549.38,-134.25 1510.12,-134.25 1510.12,-113.5 1549.38,-113.5 1549.38,-134.25"/>
<text text-anchor="middle" x="1529.75" y="-120.75" font-family="Helvetica,sans-Serif" font-size="10.00">span</text>
</a>
</g>
</g>
<!-- Node9&#45;&gt;Node15 -->
<g id="edge16_Node000009_Node000015" class="edge">
<title>Node9&#45;&gt;Node15</title>
<g id="a_edge16_Node000009_Node000015"><a xlink:title=" ">
<path fill="none" stroke="#63b8ff" d="M1485.4,-169.84C1492.85,-162.28 1503.36,-151.64 1512.27,-142.6"/>
<polygon fill="#63b8ff" stroke="#63b8ff" points="1514.59,-145.23 1519.12,-135.66 1509.6,-140.32 1514.59,-145.23"/>
</a>
</g>
</g>
<!-- Node16 -->
<g id="Node000016" class="node">
<title>Node16</title>
<g id="a_Node000016"><a xlink:title=" ">
<polygon fill="#e0e0e0" stroke="#999999" points="1427.12,-134.25 1374.38,-134.25 1374.38,-113.5 1427.12,-113.5 1427.12,-134.25"/>
<text text-anchor="middle" x="1400.75" y="-120.75" font-family="Helvetica,sans-Serif" font-size="10.00">stdint.h</text>
</a>
</g>
</g>
<!-- Node9&#45;&gt;Node16 -->
<g id="edge17_Node000009_Node000016" class="edge">
<title>Node9&#45;&gt;Node16</title>
<g id="a_edge17_Node000009_Node000016"><a xlink:title=" ">
<path fill="none" stroke="#63b8ff" d="M1462.34,-169.84C1451.46,-161.9 1435.89,-150.53 1423.13,-141.21"/>
<polygon fill="#63b8ff" stroke="#63b8ff" points="1425.41,-138.54 1415.26,-135.47 1421.28,-144.19 1425.41,-138.54"/>
</a>
</g>
</g>
<!-- Node17&#45;&gt;Node6 -->
<g id="edge42_Node000017_Node000006" class="edge">
<title>Node17&#45;&gt;Node6</title>
<g id="a_edge42_Node000017_Node000006"><a xlink:title=" ">
<path fill="none" stroke="#63b8ff" d="M663.77,-227.88C620.29,-217.69 561.49,-203.77 509.75,-191 473.67,-182.1 464.8,-179.27 428.75,-170.25 383.6,-158.96 332.2,-146.45 294.89,-137.43"/>
<polygon fill="#63b8ff" stroke="#63b8ff" points="295.8,-134.04 285.26,-135.1 294.16,-140.85 295.8,-134.04"/>
</a>
</g>
</g>
<!-- Node17&#45;&gt;Node8 -->
<g id="edge44_Node000017_Node000008" class="edge">
<title>Node17&#45;&gt;Node8</title>
<g id="a_edge44_Node000017_Node000008"><a xlink:title=" ">
<path fill="none" stroke="#63b8ff" d="M664.01,-238.92C624.83,-233.46 575.95,-220.67 542.75,-191 514.17,-165.47 513.08,-116.95 515.18,-89.13"/>
<polygon fill="#63b8ff" stroke="#63b8ff" points="518.63,-89.76 516.13,-79.46 511.67,-89.07 518.63,-89.76"/>
</a>
</g>
</g>
<!-- Node17&#45;&gt;Node9 -->
<g id="edge43_Node000017_Node000009" class="edge">
<title>Node17&#45;&gt;Node9</title>
<g id="a_edge43_Node000017_Node000009"><a xlink:title=" ">
<path fill="none" stroke="#63b8ff" d="M791.36,-239.61C910.91,-233.34 1177.49,-217.65 1412.38,-191.19"/>
<polygon fill="#63b8ff" stroke="#63b8ff" points="1412.5,-194.7 1422.04,-190.09 1411.71,-187.74 1412.5,-194.7"/>
</a>
</g>
</g>
<!-- Node18 -->
<g id="Node000018" class="node">
<title>Node18</title>
<g id="a_Node000018"><a xlink:href="error_8hh.html" target="_top" xlink:title="This file defines two main structs/classes used in nix error handling.">
<polygon fill="white" stroke="#666666" points="871.38,-191 772.12,-191 772.12,-170.25 871.38,-170.25 871.38,-191"/>
<text text-anchor="middle" x="821.75" y="-177.5" font-family="Helvetica,sans-Serif" font-size="10.00">lix/libutil/error.hh</text>
</a>
</g>
</g>
<!-- Node17&#45;&gt;Node18 -->
<g id="edge19_Node000017_Node000018" class="edge">
<title>Node17&#45;&gt;Node18</title>
<g id="a_edge19_Node000017_Node000018"><a xlink:title=" ">
<path fill="none" stroke="#63b8ff" d="M752.45,-226.69C766.28,-217.7 783.47,-206.52 797.26,-197.55"/>
<polygon fill="#63b8ff" stroke="#63b8ff" points="798.87,-200.68 805.35,-192.29 795.05,-194.81 798.87,-200.68"/>
</a>
</g>
</g>
<!-- Node33 -->
<g id="Node000033" class="node">
<title>Node33</title>
<g id="a_Node000033"><a xlink:title=" ">
<polygon fill="#e0e0e0" stroke="#999999" points="715.62,-191 551.88,-191 551.88,-170.25 715.62,-170.25 715.62,-191"/>
<text text-anchor="middle" x="633.75" y="-177.5" font-family="Helvetica,sans-Serif" font-size="10.00">experimental&#45;features.gen.inc</text>
</a>
</g>
</g>
<!-- Node17&#45;&gt;Node33 -->
<g id="edge45_Node000017_Node000033" class="edge">
<title>Node17&#45;&gt;Node33</title>
<g id="a_edge45_Node000017_Node000033"><a xlink:title=" ">
<path fill="none" stroke="#63b8ff" d="M703.05,-226.69C689.22,-217.7 672.03,-206.52 658.24,-197.55"/>
<polygon fill="#63b8ff" stroke="#63b8ff" points="660.45,-194.81 650.15,-192.29 656.63,-200.68 660.45,-194.81"/>
</a>
</g>
</g>
<!-- Node18&#45;&gt;Node6 -->
<g id="edge20_Node000018_Node000006" class="edge">
<title>Node18&#45;&gt;Node6</title>
<g id="a_edge20_Node000018_Node000006"><a xlink:title=" ">
<path fill="none" stroke="#63b8ff" d="M771.83,-171.99C767.08,-171.36 762.32,-170.77 757.75,-170.25 563.38,-148.21 510.82,-155.58 313.42,-134.48"/>
<polygon fill="#63b8ff" stroke="#63b8ff" points="313.89,-131.01 303.57,-133.42 313.13,-137.97 313.89,-131.01"/>
</a>
</g>
</g>
<!-- Node18&#45;&gt;Node8 -->
<g id="edge41_Node000018_Node000008" class="edge">
<title>Node18&#45;&gt;Node8</title>
<g id="a_edge41_Node000018_Node000008"><a xlink:title=" ">
<path fill="none" stroke="#63b8ff" d="M771.93,-172.04C690.81,-159.63 538.95,-136.2 536.75,-134.25 524.03,-122.99 519.58,-103.84 518.14,-89.04"/>
<polygon fill="#63b8ff" stroke="#63b8ff" points="521.65,-89.2 517.6,-79.41 514.66,-89.59 521.65,-89.2"/>
</a>
</g>
</g>
<!-- Node18&#45;&gt;Node10 -->
<g id="edge34_Node000018_Node000010" class="edge">
<title>Node18&#45;&gt;Node10</title>
<g id="a_edge34_Node000018_Node000010"><a xlink:title=" ">
<path fill="none" stroke="#63b8ff" d="M870.22,-169.79C906.39,-162.06 957.17,-150.4 1010.03,-134.48"/>
<polygon fill="#63b8ff" stroke="#63b8ff" points="1011,-137.84 1019.53,-131.57 1008.95,-131.15 1011,-137.84"/>
</a>
</g>
</g>
<!-- Node18&#45;&gt;Node11 -->
<g id="edge36_Node000018_Node000011" class="edge">
<title>Node18&#45;&gt;Node11</title>
<g id="a_edge36_Node000018_Node000011"><a xlink:title=" ">
<path fill="none" stroke="#63b8ff" d="M871.64,-176.72C950.35,-171.62 1108.3,-159.34 1251.41,-134.43"/>
<polygon fill="#63b8ff" stroke="#63b8ff" points="1251.83,-137.91 1261.07,-132.73 1250.61,-131.02 1251.83,-137.91"/>
</a>
</g>
</g>
<!-- Node19 -->
<g id="Node000019" class="node">
<title>Node19</title>
<g id="a_Node000019"><a xlink:href="suggestions_8hh.html" target="_top" xlink:title=" ">
<polygon fill="white" stroke="#666666" points="1244.38,-134.25 1109.12,-134.25 1109.12,-113.5 1244.38,-113.5 1244.38,-134.25"/>
<text text-anchor="middle" x="1176.75" y="-120.75" font-family="Helvetica,sans-Serif" font-size="10.00">lix/libutil/suggestions.hh</text>
</a>
</g>
</g>
<!-- Node18&#45;&gt;Node19 -->
<g id="edge21_Node000018_Node000019" class="edge">
<title>Node18&#45;&gt;Node19</title>
<g id="a_edge21_Node000018_Node000019"><a xlink:title=" ">
<path fill="none" stroke="#63b8ff" d="M871.86,-171.9C931.7,-162.67 1032.35,-147.14 1101.54,-136.47"/>
<polygon fill="#63b8ff" stroke="#63b8ff" points="1101.94,-139.95 1111.29,-134.97 1100.87,-133.04 1101.94,-139.95"/>
</a>
</g>
</g>
<!-- Node23 -->
<g id="Node000023" class="node">
<title>Node23</title>
<g id="a_Node000023"><a xlink:href="libutil_2fmt_8hh.html" target="_top" xlink:title=" ">
<polygon fill="white" stroke="#666666" points="413.75,-134.25 319.75,-134.25 319.75,-113.5 413.75,-113.5 413.75,-134.25"/>
<text text-anchor="middle" x="366.75" y="-120.75" font-family="Helvetica,sans-Serif" font-size="10.00">lix/libutil/fmt.hh</text>
</a>
</g>
</g>
<!-- Node18&#45;&gt;Node23 -->
<g id="edge28_Node000018_Node000023" class="edge">
<title>Node18&#45;&gt;Node23</title>
<g id="a_edge28_Node000018_Node000023"><a xlink:title=" ">
<path fill="none" stroke="#63b8ff" d="M771.81,-172.16C767.06,-171.5 762.32,-170.85 757.75,-170.25 639.97,-154.79 501.87,-139.41 425.34,-131.12"/>
<polygon fill="#63b8ff" stroke="#63b8ff" points="425.88,-127.66 415.56,-130.07 425.12,-134.62 425.88,-127.66"/>
</a>
</g>
</g>
<!-- Node27 -->
<g id="Node000027" class="node">
<title>Node27</title>
<g id="a_Node000027"><a xlink:title=" ">
<polygon fill="#e0e0e0" stroke="#999999" points="693.25,-134.25 644.25,-134.25 644.25,-113.5 693.25,-113.5 693.25,-134.25"/>
<text text-anchor="middle" x="668.75" y="-120.75" font-family="Helvetica,sans-Serif" font-size="10.00">cstring</text>
</a>
</g>
</g>
<!-- Node18&#45;&gt;Node27 -->
<g id="edge33_Node000018_Node000027" class="edge">
<title>Node18&#45;&gt;Node27</title>
<g id="a_edge33_Node000018_Node000027"><a xlink:title=" ">
<path fill="none" stroke="#63b8ff" d="M794.4,-169.84C769.16,-160.81 731.56,-147.35 704.07,-137.51"/>
<polygon fill="#63b8ff" stroke="#63b8ff" points="705.36,-134.26 694.77,-134.18 703,-140.85 705.36,-134.26"/>
</a>
</g>
</g>
<!-- Node28 -->
<g id="Node000028" class="node">
<title>Node28</title>
<g id="a_Node000028"><a xlink:title=" ">
<polygon fill="#e0e0e0" stroke="#999999" points="768.38,-134.25 711.12,-134.25 711.12,-113.5 768.38,-113.5 768.38,-134.25"/>
<text text-anchor="middle" x="739.75" y="-120.75" font-family="Helvetica,sans-Serif" font-size="10.00">memory</text>
</a>
</g>
</g>
<!-- Node18&#45;&gt;Node28 -->
<g id="edge35_Node000018_Node000028" class="edge">
<title>Node18&#45;&gt;Node28</title>
<g id="a_edge35_Node000018_Node000028"><a xlink:title=" ">
<path fill="none" stroke="#63b8ff" d="M807.09,-169.84C795.08,-161.82 777.84,-150.31 763.81,-140.94"/>
<polygon fill="#63b8ff" stroke="#63b8ff" points="765.8,-138.06 755.54,-135.42 761.91,-143.88 765.8,-138.06"/>
</a>
</g>
</g>
<!-- Node29 -->
<g id="Node000029" class="node">
<title>Node29</title>
<g id="a_Node000029"><a xlink:title=" ">
<polygon fill="#e0e0e0" stroke="#999999" points="857.5,-134.25 786,-134.25 786,-113.5 857.5,-113.5 857.5,-134.25"/>
<text text-anchor="middle" x="821.75" y="-120.75" font-family="Helvetica,sans-Serif" font-size="10.00">sys/types.h</text>
</a>
</g>
</g>
<!-- Node18&#45;&gt;Node29 -->
<g id="edge37_Node000018_Node000029" class="edge">
<title>Node18&#45;&gt;Node29</title>
<g id="a_edge37_Node000018_Node000029"><a xlink:title=" ">
<path fill="none" stroke="#63b8ff" d="M821.75,-169.84C821.75,-163.22 821.75,-154.22 821.75,-146.02"/>
<polygon fill="#63b8ff" stroke="#63b8ff" points="825.25,-146.09 821.75,-136.09 818.25,-146.09 825.25,-146.09"/>
</a>
</g>
</g>
<!-- Node30 -->
<g id="Node000030" class="node">
<title>Node30</title>
<g id="a_Node000030"><a xlink:title=" ">
<polygon fill="#e0e0e0" stroke="#999999" points="938.38,-134.25 875.12,-134.25 875.12,-113.5 938.38,-113.5 938.38,-134.25"/>
<text text-anchor="middle" x="906.75" y="-120.75" font-family="Helvetica,sans-Serif" font-size="10.00">sys/stat.h</text>
</a>
</g>
</g>
<!-- Node18&#45;&gt;Node30 -->
<g id="edge38_Node000018_Node000030" class="edge">
<title>Node18&#45;&gt;Node30</title>
<g id="a_edge38_Node000018_Node000030"><a xlink:title=" ">
<path fill="none" stroke="#63b8ff" d="M836.95,-169.84C849.52,-161.74 867.61,-150.08 882.23,-140.67"/>
<polygon fill="#63b8ff" stroke="#63b8ff" points="883.9,-143.76 890.41,-135.4 880.11,-137.87 883.9,-143.76"/>
</a>
</g>
</g>
<!-- Node31 -->
<g id="Node000031" class="node">
<title>Node31</title>
<g id="a_Node000031"><a xlink:title=" ">
<polygon fill="#e0e0e0" stroke="#999999" points="1003.12,-134.25 956.38,-134.25 956.38,-113.5 1003.12,-113.5 1003.12,-134.25"/>
<text text-anchor="middle" x="979.75" y="-120.75" font-family="Helvetica,sans-Serif" font-size="10.00">fcntl.h</text>
</a>
</g>
</g>
<!-- Node18&#45;&gt;Node31 -->
<g id="edge39_Node000018_Node000031" class="edge">
<title>Node18&#45;&gt;Node31</title>
<g id="a_edge39_Node000018_Node000031"><a xlink:title=" ">
<path fill="none" stroke="#63b8ff" d="M850,-169.84C876.64,-160.6 916.64,-146.74 945.18,-136.86"/>
<polygon fill="#63b8ff" stroke="#63b8ff" points="946.14,-140.22 954.45,-133.64 943.85,-133.61 946.14,-140.22"/>
</a>
</g>
</g>
<!-- Node32 -->
<g id="Node000032" class="node">
<title>Node32</title>
<g id="a_Node000032"><a xlink:title=" ">
<polygon fill="#e0e0e0" stroke="#999999" points="626,-134.25 545.5,-134.25 545.5,-113.5 626,-113.5 626,-134.25"/>
<text text-anchor="middle" x="585.75" y="-120.75" font-family="Helvetica,sans-Serif" font-size="10.00">system_error</text>
</a>
</g>
</g>
<!-- Node18&#45;&gt;Node32 -->
<g id="edge40_Node000018_Node000032" class="edge">
<title>Node18&#45;&gt;Node32</title>
<g id="a_edge40_Node000018_Node000032"><a xlink:title=" ">
<path fill="none" stroke="#63b8ff" d="M779.29,-169.77C739.45,-160.53 679.8,-146.69 637.26,-136.83"/>
<polygon fill="#63b8ff" stroke="#63b8ff" points="638.3,-133.47 627.77,-134.62 636.72,-140.29 638.3,-133.47"/>
</a>
</g>
</g>
<!-- Node19&#45;&gt;Node5 -->
<g id="edge24_Node000019_Node000005" class="edge">
<title>Node19&#45;&gt;Node5</title>
<g id="a_edge24_Node000019_Node000005"><a xlink:title=" ">
<path fill="none" stroke="#63b8ff" d="M1244.77,-114.56C1247.8,-114.2 1250.81,-113.85 1253.75,-113.5 1394.28,-96.98 1562.7,-78.21 1627.01,-71.08"/>
<polygon fill="#63b8ff" stroke="#63b8ff" points="1627.06,-74.6 1636.61,-70.02 1626.29,-67.64 1627.06,-74.6"/>
</a>
</g>
</g>
<!-- Node19&#45;&gt;Node12 -->
<g id="edge26_Node000019_Node000012" class="edge">
<title>Node19&#45;&gt;Node12</title>
<g id="a_edge26_Node000019_Node000012"><a xlink:title=" ">
<path fill="none" stroke="#63b8ff" d="M1159.77,-113.09C1145.45,-104.83 1124.71,-92.88 1108.21,-83.38"/>
<polygon fill="#63b8ff" stroke="#63b8ff" points="1110.31,-80.55 1099.9,-78.58 1106.81,-86.61 1110.31,-80.55"/>
</a>
</g>
</g>
<!-- Node19&#45;&gt;Node13 -->
<g id="edge25_Node000019_Node000013" class="edge">
<title>Node19&#45;&gt;Node13</title>
<g id="a_edge25_Node000019_Node000013"><a xlink:title=" ">
<path fill="none" stroke="#63b8ff" d="M1212.33,-113.09C1245.05,-104.08 1293.77,-90.68 1329.51,-80.85"/>
<polygon fill="#63b8ff" stroke="#63b8ff" points="1329.97,-84.35 1338.69,-78.32 1328.12,-77.6 1329.97,-84.35"/>
</a>
</g>
</g>
<!-- Node20 -->
<g id="Node000020" class="node">
<title>Node20</title>
<g id="a_Node000020"><a xlink:href="comparator_8hh.html" target="_top" xlink:title=" ">
<polygon fill="white" stroke="#666666" points="1321.88,-77.5 1189.62,-77.5 1189.62,-56.75 1321.88,-56.75 1321.88,-77.5"/>
<text text-anchor="middle" x="1255.75" y="-64" font-family="Helvetica,sans-Serif" font-size="10.00">lix/libutil/comparator.hh</text>
</a>
</g>
</g>
<!-- Node19&#45;&gt;Node20 -->
<g id="edge22_Node000019_Node000020" class="edge">
<title>Node19&#45;&gt;Node20</title>
<g id="a_edge22_Node000019_Node000020"><a xlink:title=" ">
<path fill="none" stroke="#63b8ff" d="M1190.87,-113.09C1202.44,-105.07 1219.05,-93.56 1232.57,-84.19"/>
<polygon fill="#63b8ff" stroke="#63b8ff" points="1234.28,-87.26 1240.5,-78.69 1230.29,-81.51 1234.28,-87.26"/>
</a>
</g>
</g>
<!-- Node22 -->
<g id="Node000022" class="node">
<title>Node22</title>
<g id="a_Node000022"><a xlink:title=" ">
<polygon fill="#e0e0e0" stroke="#999999" points="1172,-77.5 1121.5,-77.5 1121.5,-56.75 1172,-56.75 1172,-77.5"/>
<text text-anchor="middle" x="1146.75" y="-64" font-family="Helvetica,sans-Serif" font-size="10.00">variant</text>
</a>
</g>
</g>
<!-- Node19&#45;&gt;Node22 -->
<g id="edge27_Node000019_Node000022" class="edge">
<title>Node19&#45;&gt;Node22</title>
<g id="a_edge27_Node000019_Node000022"><a xlink:title=" ">
<path fill="none" stroke="#63b8ff" d="M1171.39,-113.09C1167.55,-106.08 1162.25,-96.41 1157.55,-87.83"/>
<polygon fill="#63b8ff" stroke="#63b8ff" points="1160.67,-86.24 1152.79,-79.16 1154.53,-89.61 1160.67,-86.24"/>
</a>
</g>
</g>
<!-- Node21 -->
<g id="Node000021" class="node">
<title>Node21</title>
<g id="a_Node000021"><a xlink:title=" ">
<polygon fill="#e0e0e0" stroke="#999999" points="1276.12,-20.75 1235.38,-20.75 1235.38,0 1276.12,0 1276.12,-20.75"/>
<text text-anchor="middle" x="1255.75" y="-7.25" font-family="Helvetica,sans-Serif" font-size="10.00">tuple</text>
</a>
</g>
</g>
<!-- Node20&#45;&gt;Node21 -->
<g id="edge23_Node000020_Node000021" class="edge">
<title>Node20&#45;&gt;Node21</title>
<g id="a_edge23_Node000020_Node000021"><a xlink:title=" ">
<path fill="none" stroke="#63b8ff" d="M1255.75,-56.34C1255.75,-49.72 1255.75,-40.72 1255.75,-32.52"/>
<polygon fill="#63b8ff" stroke="#63b8ff" points="1259.25,-32.59 1255.75,-22.59 1252.25,-32.59 1259.25,-32.59"/>
</a>
</g>
</g>
<!-- Node23&#45;&gt;Node12 -->
<g id="edge30_Node000023_Node000012" class="edge">
<title>Node23&#45;&gt;Node12</title>
<g id="a_edge30_Node000023_Node000012"><a xlink:title=" ">
<path fill="none" stroke="#63b8ff" d="M414.22,-119.24C549.17,-108.91 932.77,-79.53 1048.37,-70.68"/>
<polygon fill="#63b8ff" stroke="#63b8ff" points="1048.4,-74.19 1058.11,-69.94 1047.87,-67.21 1048.4,-74.19"/>
</a>
</g>
</g>
<!-- Node24 -->
<g id="Node000024" class="node">
<title>Node24</title>
<g id="a_Node000024"><a xlink:title=" ">
<polygon fill="#e0e0e0" stroke="#999999" points="347.5,-77.5 288,-77.5 288,-56.75 347.5,-56.75 347.5,-77.5"/>
<text text-anchor="middle" x="317.75" y="-64" font-family="Helvetica,sans-Serif" font-size="10.00">iostream</text>
</a>
</g>
</g>
<!-- Node23&#45;&gt;Node24 -->
<g id="edge29_Node000023_Node000024" class="edge">
<title>Node23&#45;&gt;Node24</title>
<g id="a_edge29_Node000023_Node000024"><a xlink:title=" ">
<path fill="none" stroke="#63b8ff" d="M357.99,-113.09C351.3,-105.61 341.9,-95.11 333.86,-86.13"/>
<polygon fill="#63b8ff" stroke="#63b8ff" points="336.72,-84.07 327.44,-78.96 331.5,-88.74 336.72,-84.07"/>
</a>
</g>
</g>
<!-- Node25 -->
<g id="Node000025" class="node">
<title>Node25</title>
<g id="a_Node000025"><a xlink:title=" ">
<polygon fill="#e0e0e0" stroke="#999999" points="465.75,-77.5 365.75,-77.5 365.75,-56.75 465.75,-56.75 465.75,-77.5"/>
<text text-anchor="middle" x="415.75" y="-64" font-family="Helvetica,sans-Serif" font-size="10.00">boost/format.hpp</text>
</a>
</g>
</g>
<!-- Node23&#45;&gt;Node25 -->
<g id="edge31_Node000023_Node000025" class="edge">
<title>Node23&#45;&gt;Node25</title>
<g id="a_edge31_Node000023_Node000025"><a xlink:title=" ">
<path fill="none" stroke="#63b8ff" d="M375.51,-113.09C382.2,-105.61 391.6,-95.11 399.64,-86.13"/>
<polygon fill="#63b8ff" stroke="#63b8ff" points="402,-88.74 406.06,-78.96 396.78,-84.07 402,-88.74"/>
</a>
</g>
</g>
<!-- Node26 -->
<g id="Node000026" class="node">
<title>Node26</title>
<g id="a_Node000026"><a xlink:href="ansicolor_8hh.html" target="_top" xlink:title="Some ANSI escape sequences.">
<polygon fill="white" stroke="#666666" points="269.88,-77.5 149.62,-77.5 149.62,-56.75 269.88,-56.75 269.88,-77.5"/>
<text text-anchor="middle" x="209.75" y="-64" font-family="Helvetica,sans-Serif" font-size="10.00">lix/libutil/ansicolor.hh</text>
</a>
</g>
</g>
<!-- Node23&#45;&gt;Node26 -->
<g id="edge32_Node000023_Node000026" class="edge">
<title>Node23&#45;&gt;Node26</title>
<g id="a_edge32_Node000023_Node000026"><a xlink:title=" ">
<path fill="none" stroke="#63b8ff" d="M338.68,-113.09C313.53,-104.32 276.4,-91.37 248.44,-81.62"/>
<polygon fill="#63b8ff" stroke="#63b8ff" points="249.86,-78.41 239.27,-78.42 247.56,-85.02 249.86,-78.41"/>
</a>
</g>
</g>
<!-- Node34&#45;&gt;Node6 -->
<g id="edge48_Node000034_Node000006" class="edge">
<title>Node34&#45;&gt;Node6</title>
<g id="a_edge48_Node000034_Node000006"><a xlink:title=" ">
<path fill="none" stroke="#63b8ff" d="M1022.16,-239.16C957.24,-233.83 850.18,-221 762.75,-191 744.55,-184.75 743.17,-175.81 724.75,-170.25 551.48,-117.93 496.49,-153.38 313.45,-134.46"/>
<polygon fill="#63b8ff" stroke="#63b8ff" points="313.89,-130.99 303.57,-133.39 313.14,-137.95 313.89,-130.99"/>
</a>
</g>
</g>
<!-- Node34&#45;&gt;Node8 -->
<g id="edge50_Node000034_Node000008" class="edge">
<title>Node34&#45;&gt;Node8</title>
<g id="a_edge50_Node000034_Node000008"><a xlink:title=" ">
<path fill="none" stroke="#63b8ff" d="M1083.95,-226.85C1088.46,-199.31 1093,-142.85 1061.75,-113.5 1025.78,-79.72 688.24,-70.87 563.66,-68.75"/>
<polygon fill="#63b8ff" stroke="#63b8ff" points="563.85,-65.25 553.8,-68.59 563.74,-72.25 563.85,-65.25"/>
</a>
</g>
</g>
<!-- Node34&#45;&gt;Node9 -->
<g id="edge49_Node000034_Node000009" class="edge">
<title>Node34&#45;&gt;Node9</title>
<g id="a_edge49_Node000034_Node000009"><a xlink:title=" ">
<path fill="none" stroke="#63b8ff" d="M1139.22,-229.56C1143.79,-228.65 1148.34,-227.78 1152.75,-227 1264.97,-207.05 1296.54,-207.86 1412.41,-191.31"/>
<polygon fill="#63b8ff" stroke="#63b8ff" points="1412.62,-194.82 1422.02,-189.93 1411.62,-187.89 1412.62,-194.82"/>
</a>
</g>
</g>
<!-- Node34&#45;&gt;Node18 -->
<g id="edge47_Node000034_Node000018" class="edge">
<title>Node34&#45;&gt;Node18</title>
<g id="a_edge47_Node000034_Node000018"><a xlink:title=" ">
<path fill="none" stroke="#63b8ff" d="M1022.3,-228.96C977.93,-218.48 917.43,-204.21 874.52,-194.08"/>
<polygon fill="#63b8ff" stroke="#63b8ff" points="875.47,-190.71 864.93,-191.82 873.86,-197.52 875.47,-190.71"/>
</a>
</g>
</g>
<!-- Node35 -->
<g id="Node000035" class="node">
<title>Node35</title>
<g id="a_Node000035"><a xlink:title=" ">
<polygon fill="#e0e0e0" stroke="#999999" points="1405.38,-191 1252.12,-191 1252.12,-170.25 1405.38,-170.25 1405.38,-191"/>
<text text-anchor="middle" x="1328.75" y="-177.5" font-family="Helvetica,sans-Serif" font-size="10.00">deprecated&#45;features.gen.inc</text>
</a>
</g>
</g>
<!-- Node34&#45;&gt;Node35 -->
<g id="edge51_Node000034_Node000035" class="edge">
<title>Node34&#45;&gt;Node35</title>
<g id="a_edge51_Node000034_Node000035"><a xlink:title=" ">
<path fill="none" stroke="#63b8ff" d="M1139.21,-228.34C1181.27,-217.98 1237.44,-204.13 1277.7,-194.21"/>
<polygon fill="#63b8ff" stroke="#63b8ff" points="1278.53,-197.61 1287.4,-191.82 1276.85,-190.81 1278.53,-197.61"/>
</a>
</g>
</g>
<!-- Node36&#45;&gt;Node9 -->
<g id="edge53_Node000036_Node000009" class="edge">
<title>Node36&#45;&gt;Node9</title>
<g id="a_edge53_Node000036_Node000009"><a xlink:title=" ">
<path fill="none" stroke="#63b8ff" d="M1475.75,-226.69C1475.75,-219.35 1475.75,-210.57 1475.75,-202.71"/>
<polygon fill="#63b8ff" stroke="#63b8ff" points="1479.25,-202.98 1475.75,-192.98 1472.25,-202.98 1479.25,-202.98"/>
</a>
</g>
</g>
<!-- Node38&#45;&gt;Node6 -->
<g id="edge58_Node000038_Node000006" class="edge">
<title>Node38&#45;&gt;Node6</title>
<g id="a_edge58_Node000038_Node000006"><a xlink:title=" ">
<path fill="none" stroke="#63b8ff" d="M437.05,-241.69C360.25,-238.88 216.44,-228.61 184.75,-191 169.97,-173.46 192.5,-153.74 213.65,-140.43"/>
<polygon fill="#63b8ff" stroke="#63b8ff" points="215.32,-143.51 222.14,-135.4 211.75,-137.49 215.32,-143.51"/>
</a>
</g>
</g>
<!-- Node38&#45;&gt;Node8 -->
<g id="edge63_Node000038_Node000008" class="edge">
<title>Node38&#45;&gt;Node8</title>
<g id="a_edge63_Node000038_Node000008"><a xlink:title=" ">
<path fill="none" stroke="#63b8ff" d="M480.76,-233.17C469.96,-211.03 446.86,-155.05 465.75,-113.5 471.09,-101.76 481.12,-91.88 490.97,-84.36"/>
<polygon fill="#63b8ff" stroke="#63b8ff" points="492.77,-87.37 498.95,-78.76 488.75,-81.64 492.77,-87.37"/>
</a>
</g>
</g>
<!-- Node38&#45;&gt;Node10 -->
<g id="edge61_Node000038_Node000010" class="edge">
<title>Node38&#45;&gt;Node10</title>
<g id="a_edge61_Node000038_Node000010"><a xlink:title=" ">
<path fill="none" stroke="#63b8ff" d="M534.75,-238C625.54,-228.93 816.52,-208.47 880.75,-191 928.28,-178.07 980.37,-153.77 1010.72,-138.5"/>
<polygon fill="#63b8ff" stroke="#63b8ff" points="1012.21,-141.67 1019.52,-134.01 1009.03,-135.44 1012.21,-141.67"/>
</a>
</g>
</g>
<!-- Node38&#45;&gt;Node13 -->
<g id="edge62_Node000038_Node000013" class="edge">
<title>Node38&#45;&gt;Node13</title>
<g id="a_edge62_Node000038_Node000013"><a xlink:title=" ">
<path fill="none" stroke="#63b8ff" d="M534.52,-237.56C708.96,-218.85 1293.39,-154.91 1327.75,-134.25 1345.75,-123.43 1358.99,-103.01 1366.95,-87.71"/>
<polygon fill="#63b8ff" stroke="#63b8ff" points="1369.93,-89.57 1371.14,-79.05 1363.63,-86.52 1369.93,-89.57"/>
</a>
</g>
</g>
<!-- Node38&#45;&gt;Node18 -->
<g id="edge56_Node000038_Node000018" class="edge">
<title>Node38&#45;&gt;Node18</title>
<g id="a_edge56_Node000038_Node000018"><a xlink:title=" ">
<path fill="none" stroke="#63b8ff" d="M534.61,-233.86C594.36,-222.99 695.54,-204.59 760.45,-192.78"/>
<polygon fill="#63b8ff" stroke="#63b8ff" points="761.04,-196.23 770.25,-190.99 759.78,-189.34 761.04,-196.23"/>
</a>
</g>
</g>
<!-- Node38&#45;&gt;Node23 -->
<g id="edge57_Node000038_Node000023" class="edge">
<title>Node38&#45;&gt;Node23</title>
<g id="a_edge57_Node000038_Node000023"><a xlink:title=" ">
<path fill="none" stroke="#63b8ff" d="M436.98,-237.77C406.71,-231.88 370.02,-219.03 350.75,-191 341.26,-177.2 347.2,-158.39 354.38,-144.36"/>
<polygon fill="#63b8ff" stroke="#63b8ff" points="357.21,-146.46 359.13,-136.04 351.13,-142.99 357.21,-146.46"/>
</a>
</g>
</g>
<!-- Node39 -->
<g id="Node000039" class="node">
<title>Node39</title>
<g id="a_Node000039"><a xlink:title=" ">
<polygon fill="#e0e0e0" stroke="#999999" points="419.5,-191 360,-191 360,-170.25 419.5,-170.25 419.5,-191"/>
<text text-anchor="middle" x="389.75" y="-177.5" font-family="Helvetica,sans-Serif" font-size="10.00">concepts</text>
</a>
</g>
</g>
<!-- Node38&#45;&gt;Node39 -->
<g id="edge59_Node000038_Node000039" class="edge">
<title>Node38&#45;&gt;Node39</title>
<g id="a_edge59_Node000038_Node000039"><a xlink:title=" ">
<path fill="none" stroke="#63b8ff" d="M470.33,-232.93C455.35,-223.39 432.36,-208.76 414.77,-197.56"/>
<polygon fill="#63b8ff" stroke="#63b8ff" points="416.73,-194.65 406.41,-192.23 412.97,-200.56 416.73,-194.65"/>
</a>
</g>
</g>
<!-- Node40 -->
<g id="Node000040" class="node">
<title>Node40</title>
<g id="a_Node000040"><a xlink:title=" ">
<polygon fill="#e0e0e0" stroke="#999999" points="303.25,-191 194.25,-191 194.25,-170.25 303.25,-170.25 303.25,-191"/>
<text text-anchor="middle" x="248.75" y="-177.5" font-family="Helvetica,sans-Serif" font-size="10.00">nlohmann/json.hpp</text>
</a>
</g>
</g>
<!-- Node38&#45;&gt;Node40 -->
<g id="edge60_Node000038_Node000040" class="edge">
<title>Node38&#45;&gt;Node40</title>
<g id="a_edge60_Node000038_Node000040"><a xlink:title=" ">
<path fill="none" stroke="#63b8ff" d="M447.67,-232.93C406.99,-222.44 342.35,-205.77 297.86,-194.29"/>
<polygon fill="#63b8ff" stroke="#63b8ff" points="298.76,-190.91 288.2,-191.8 297.01,-197.69 298.76,-190.91"/>
</a>
</g>
</g>
</g>
</svg>
