<?xml version="1.0" encoding="UTF-8" standalone="no"?>
<!DOCTYPE svg PUBLIC "-//W3C//DTD SVG 1.1//EN"
 "http://www.w3.org/Graphics/SVG/1.1/DTD/svg11.dtd">
<!-- Generated by graphviz version 12.2.1 (0)
 -->
<!-- Title: lix/libutil/async.hh Pages: 1 -->
<svg width="1686pt" height="325pt"
 viewBox="0.00 0.00 1685.62 325.25" xmlns="http://www.w3.org/2000/svg" xmlns:xlink="http://www.w3.org/1999/xlink">
<g id="graph0" class="graph" transform="scale(1 1) rotate(0) translate(4 321.25)">
<title>lix/libutil/async.hh</title>
<!-- Node1 -->
<g id="Node000001" class="node">
<title>Node1</title>
<g id="a_Node000001"><a xlink:title=" ">
<polygon fill="#999999" stroke="#666666" points="1012.5,-317.25 907.25,-317.25 907.25,-296.5 1012.5,-296.5 1012.5,-317.25"/>
<text text-anchor="middle" x="959.88" y="-303.75" font-family="Helvetica,sans-Serif" font-size="10.00">lix/libutil/async.hh</text>
</a>
</g>
</g>
<!-- Node2 -->
<g id="Node000002" class="node">
<title>Node2</title>
<g id="a_Node000002"><a xlink:href="result_8hh.html" target="_top" xlink:title=" ">
<polygon fill="white" stroke="#666666" points="547.12,-203.75 442.62,-203.75 442.62,-183 547.12,-183 547.12,-203.75"/>
<text text-anchor="middle" x="494.88" y="-190.25" font-family="Helvetica,sans-Serif" font-size="10.00">lix/libutil/result.hh</text>
</a>
</g>
</g>
<!-- Node1&#45;&gt;Node2 -->
<g id="edge1_Node000001_Node000002" class="edge">
<title>Node1&#45;&gt;Node2</title>
<g id="a_edge1_Node000001_Node000002"><a xlink:title=" ">
<path fill="none" stroke="#63b8ff" d="M919.02,-296.08C834.45,-275.8 640.35,-229.26 546.95,-206.86"/>
<polygon fill="#63b8ff" stroke="#63b8ff" points="547.82,-203.47 537.28,-204.54 546.19,-210.28 547.82,-203.47"/>
</a>
</g>
</g>
<!-- Node7 -->
<g id="Node000007" class="node">
<title>Node7</title>
<g id="a_Node000007"><a xlink:href="signals_8hh_source.html" target="_top" xlink:title=" ">
<polygon fill="white" stroke="#666666" points="931.5,-260.5 820.25,-260.5 820.25,-239.75 931.5,-239.75 931.5,-260.5"/>
<text text-anchor="middle" x="875.88" y="-247" font-family="Helvetica,sans-Serif" font-size="10.00">lix/libutil/signals.hh</text>
</a>
</g>
</g>
<!-- Node1&#45;&gt;Node7 -->
<g id="edge6_Node000001_Node000007" class="edge">
<title>Node1&#45;&gt;Node7</title>
<g id="a_edge6_Node000001_Node000007"><a xlink:title=" ">
<path fill="none" stroke="#63b8ff" d="M944.86,-296.09C932.43,-287.99 914.55,-276.33 900.1,-266.92"/>
<polygon fill="#63b8ff" stroke="#63b8ff" points="902.32,-264.18 892.03,-261.65 898.5,-270.05 902.32,-264.18"/>
</a>
</g>
</g>
<!-- Node31 -->
<g id="Node000031" class="node">
<title>Node31</title>
<g id="a_Node000031"><a xlink:title=" ">
<polygon fill="#e0e0e0" stroke="#999999" points="1292.62,-203.75 1227.12,-203.75 1227.12,-183 1292.62,-183 1292.62,-203.75"/>
<text text-anchor="middle" x="1259.88" y="-190.25" font-family="Helvetica,sans-Serif" font-size="10.00">kj/async.h</text>
</a>
</g>
</g>
<!-- Node1&#45;&gt;Node31 -->
<g id="edge44_Node000001_Node000031" class="edge">
<title>Node1&#45;&gt;Node31</title>
<g id="a_edge44_Node000001_Node000031"><a xlink:title=" ">
<path fill="none" stroke="#63b8ff" d="M959.63,-296.09C959.84,-281.48 962.56,-254.11 978.88,-239.75 1018.37,-204.99 1161.06,-212.9 1212.88,-203.75 1213.86,-203.58 1214.86,-203.4 1215.86,-203.22"/>
<polygon fill="#63b8ff" stroke="#63b8ff" points="1216.11,-206.73 1225.3,-201.45 1214.82,-199.85 1216.11,-206.73"/>
</a>
</g>
</g>
<!-- Node37 -->
<g id="Node000037" class="node">
<title>Node37</title>
<g id="a_Node000037"><a xlink:title=" ">
<polygon fill="#e0e0e0" stroke="#999999" points="1033.5,-260.5 988.25,-260.5 988.25,-239.75 1033.5,-239.75 1033.5,-260.5"/>
<text text-anchor="middle" x="1010.88" y="-247" font-family="Helvetica,sans-Serif" font-size="10.00">future</text>
</a>
</g>
</g>
<!-- Node1&#45;&gt;Node37 -->
<g id="edge42_Node000001_Node000037" class="edge">
<title>Node1&#45;&gt;Node37</title>
<g id="a_edge42_Node000001_Node000037"><a xlink:title=" ">
<path fill="none" stroke="#63b8ff" d="M968.99,-296.09C975.96,-288.61 985.74,-278.11 994.11,-269.13"/>
<polygon fill="#63b8ff" stroke="#63b8ff" points="996.55,-271.64 1000.8,-261.94 991.43,-266.87 996.55,-271.64"/>
</a>
</g>
</g>
<!-- Node38 -->
<g id="Node000038" class="node">
<title>Node38</title>
<g id="a_Node000038"><a xlink:title=" ">
<polygon fill="#e0e0e0" stroke="#999999" points="1130,-260.5 1051.75,-260.5 1051.75,-239.75 1130,-239.75 1130,-260.5"/>
<text text-anchor="middle" x="1090.88" y="-247" font-family="Helvetica,sans-Serif" font-size="10.00">kj/async&#45;io.h</text>
</a>
</g>
</g>
<!-- Node1&#45;&gt;Node38 -->
<g id="edge43_Node000001_Node000038" class="edge">
<title>Node1&#45;&gt;Node38</title>
<g id="a_edge43_Node000001_Node000038"><a xlink:title=" ">
<path fill="none" stroke="#63b8ff" d="M983.3,-296.09C1003.88,-287.48 1034.08,-274.86 1057.25,-265.18"/>
<polygon fill="#63b8ff" stroke="#63b8ff" points="1058.38,-268.5 1066.26,-261.41 1055.68,-262.04 1058.38,-268.5"/>
</a>
</g>
</g>
<!-- Node3 -->
<g id="Node000003" class="node">
<title>Node3</title>
<g id="a_Node000003"><a xlink:title=" ">
<polygon fill="#e0e0e0" stroke="#999999" points="175.75,-140.62 0,-140.62 0,-119.88 175.75,-119.88 175.75,-140.62"/>
<text text-anchor="middle" x="87.88" y="-127.12" font-family="Helvetica,sans-Serif" font-size="10.00">boost/outcome/std_outcome.hpp</text>
</a>
</g>
</g>
<!-- Node2&#45;&gt;Node3 -->
<g id="edge2_Node000002_Node000003" class="edge">
<title>Node2&#45;&gt;Node3</title>
<g id="a_edge2_Node000002_Node000003"><a xlink:title=" ">
<path fill="none" stroke="#63b8ff" d="M442.18,-184.92C380.47,-176.13 275.19,-160.94 184.88,-147 176.4,-145.69 167.51,-144.29 158.7,-142.88"/>
<polygon fill="#63b8ff" stroke="#63b8ff" points="159.54,-139.47 149.11,-141.34 158.43,-146.38 159.54,-139.47"/>
</a>
</g>
</g>
<!-- Node4 -->
<g id="Node000004" class="node">
<title>Node4</title>
<g id="a_Node000004"><a xlink:title=" ">
<polygon fill="#e0e0e0" stroke="#999999" points="354.25,-140.62 193.5,-140.62 193.5,-119.88 354.25,-119.88 354.25,-140.62"/>
<text text-anchor="middle" x="273.88" y="-127.12" font-family="Helvetica,sans-Serif" font-size="10.00">boost/outcome/std_result.hpp</text>
</a>
</g>
</g>
<!-- Node2&#45;&gt;Node4 -->
<g id="edge3_Node000002_Node000004" class="edge">
<title>Node2&#45;&gt;Node4</title>
<g id="a_edge3_Node000002_Node000004"><a xlink:title=" ">
<path fill="none" stroke="#63b8ff" d="M459.37,-182.55C421.59,-172.11 361.67,-155.53 320.2,-144.06"/>
<polygon fill="#63b8ff" stroke="#63b8ff" points="321.32,-140.74 310.75,-141.45 319.46,-147.49 321.32,-140.74"/>
</a>
</g>
</g>
<!-- Node5 -->
<g id="Node000005" class="node">
<title>Node5</title>
<g id="a_Node000005"><a xlink:title=" ">
<polygon fill="#e0e0e0" stroke="#999999" points="501.88,-147 371.88,-147 371.88,-113.5 501.88,-113.5 501.88,-147"/>
<text text-anchor="start" x="379.88" y="-133.5" font-family="Helvetica,sans-Serif" font-size="10.00">boost/outcome/success</text>
<text text-anchor="middle" x="436.88" y="-120.75" font-family="Helvetica,sans-Serif" font-size="10.00">_failure.hpp</text>
</a>
</g>
</g>
<!-- Node2&#45;&gt;Node5 -->
<g id="edge4_Node000002_Node000005" class="edge">
<title>Node2&#45;&gt;Node5</title>
<g id="a_edge4_Node000002_Node000005"><a xlink:title=" ">
<path fill="none" stroke="#63b8ff" d="M485.56,-182.55C478.69,-175.32 469.04,-165.15 460.14,-155.77"/>
<polygon fill="#63b8ff" stroke="#63b8ff" points="462.74,-153.43 453.32,-148.58 457.67,-158.25 462.74,-153.43"/>
</a>
</g>
</g>
<!-- Node6 -->
<g id="Node000006" class="node">
<title>Node6</title>
<g id="a_Node000006"><a xlink:title=" ">
<polygon fill="#e0e0e0" stroke="#999999" points="583.88,-140.62 519.88,-140.62 519.88,-119.88 583.88,-119.88 583.88,-140.62"/>
<text text-anchor="middle" x="551.88" y="-127.12" font-family="Helvetica,sans-Serif" font-size="10.00">exception</text>
</a>
</g>
</g>
<!-- Node2&#45;&gt;Node6 -->
<g id="edge5_Node000002_Node000006" class="edge">
<title>Node2&#45;&gt;Node6</title>
<g id="a_edge5_Node000002_Node000006"><a xlink:title=" ">
<path fill="none" stroke="#63b8ff" d="M504.03,-182.55C512.39,-173.59 524.95,-160.12 535.11,-149.23"/>
<polygon fill="#63b8ff" stroke="#63b8ff" points="537.64,-151.65 541.9,-141.95 532.52,-146.88 537.64,-151.65"/>
</a>
</g>
</g>
<!-- Node7&#45;&gt;Node2 -->
<g id="edge32_Node000007_Node000002" class="edge">
<title>Node7&#45;&gt;Node2</title>
<g id="a_edge32_Node000007_Node000002"><a xlink:title=" ">
<path fill="none" stroke="#63b8ff" d="M820.07,-241.11C750.51,-231.11 631.92,-214.07 558.79,-203.56"/>
<polygon fill="#63b8ff" stroke="#63b8ff" points="559.35,-200.1 548.96,-202.15 558.36,-207.03 559.35,-200.1"/>
</a>
</g>
</g>
<!-- Node8 -->
<g id="Node000008" class="node">
<title>Node8</title>
<g id="a_Node000008"><a xlink:href="error_8hh.html" target="_top" xlink:title="This file defines two main structs/classes used in nix error handling.">
<polygon fill="white" stroke="#666666" points="1170.5,-203.75 1071.25,-203.75 1071.25,-183 1170.5,-183 1170.5,-203.75"/>
<text text-anchor="middle" x="1120.88" y="-190.25" font-family="Helvetica,sans-Serif" font-size="10.00">lix/libutil/error.hh</text>
</a>
</g>
</g>
<!-- Node7&#45;&gt;Node8 -->
<g id="edge7_Node000007_Node000008" class="edge">
<title>Node7&#45;&gt;Node8</title>
<g id="a_edge7_Node000007_Node000008"><a xlink:title=" ">
<path fill="none" stroke="#63b8ff" d="M919.96,-239.27C960.77,-230.15 1021.61,-216.56 1065.64,-206.72"/>
<polygon fill="#63b8ff" stroke="#63b8ff" points="1066.26,-210.17 1075.26,-204.57 1064.73,-203.33 1066.26,-210.17"/>
</a>
</g>
</g>
<!-- Node25 -->
<g id="Node000025" class="node">
<title>Node25</title>
<g id="a_Node000025"><a xlink:title=" ">
<polygon fill="#e0e0e0" stroke="#999999" points="1623.5,-140.62 1566.25,-140.62 1566.25,-119.88 1623.5,-119.88 1623.5,-140.62"/>
<text text-anchor="middle" x="1594.88" y="-127.12" font-family="Helvetica,sans-Serif" font-size="10.00">memory</text>
</a>
</g>
</g>
<!-- Node7&#45;&gt;Node25 -->
<g id="edge34_Node000007_Node000025" class="edge">
<title>Node7&#45;&gt;Node25</title>
<g id="a_edge34_Node000007_Node000025"><a xlink:title=" ">
<path fill="none" stroke="#63b8ff" d="M931.75,-243.16C1006.56,-234.77 1135.04,-218.81 1179.88,-203.75 1198.12,-197.62 1199.51,-188.74 1217.88,-183 1362.5,-137.82 1410.05,-184.39 1556.88,-147 1559.15,-146.42 1561.46,-145.73 1563.77,-144.97"/>
<polygon fill="#63b8ff" stroke="#63b8ff" points="1564.78,-148.33 1572.92,-141.55 1562.33,-141.77 1564.78,-148.33"/>
</a>
</g>
</g>
<!-- Node27 -->
<g id="Node000027" class="node">
<title>Node27</title>
<g id="a_Node000027"><a xlink:title=" ">
<polygon fill="#e0e0e0" stroke="#999999" points="673.62,-140.62 602.12,-140.62 602.12,-119.88 673.62,-119.88 673.62,-140.62"/>
<text text-anchor="middle" x="637.88" y="-127.12" font-family="Helvetica,sans-Serif" font-size="10.00">sys/types.h</text>
</a>
</g>
</g>
<!-- Node7&#45;&gt;Node27 -->
<g id="edge35_Node000007_Node000027" class="edge">
<title>Node7&#45;&gt;Node27</title>
<g id="a_edge35_Node000007_Node000027"><a xlink:title=" ">
<path fill="none" stroke="#63b8ff" d="M819.88,-246.56C779.48,-242.29 725.34,-231.35 685.88,-203.75 667.18,-190.68 653.83,-167.77 646.03,-151.2"/>
<polygon fill="#63b8ff" stroke="#63b8ff" points="649.35,-150.07 642.13,-142.32 642.95,-152.89 649.35,-150.07"/>
</a>
</g>
</g>
<!-- Node28 -->
<g id="Node000028" class="node">
<title>Node28</title>
<g id="a_Node000028"><a xlink:title=" ">
<polygon fill="#e0e0e0" stroke="#999999" points="754.5,-140.62 691.25,-140.62 691.25,-119.88 754.5,-119.88 754.5,-140.62"/>
<text text-anchor="middle" x="722.88" y="-127.12" font-family="Helvetica,sans-Serif" font-size="10.00">sys/stat.h</text>
</a>
</g>
</g>
<!-- Node7&#45;&gt;Node28 -->
<g id="edge36_Node000007_Node000028" class="edge">
<title>Node7&#45;&gt;Node28</title>
<g id="a_edge36_Node000007_Node000028"><a xlink:title=" ">
<path fill="none" stroke="#63b8ff" d="M819.88,-242.62C772.6,-235.84 710.22,-223.42 694.88,-203.75 682.36,-187.72 694.29,-165.43 706.22,-149.82"/>
<polygon fill="#63b8ff" stroke="#63b8ff" points="708.8,-152.18 712.46,-142.24 703.4,-147.73 708.8,-152.18"/>
</a>
</g>
</g>
<!-- Node7&#45;&gt;Node31 -->
<g id="edge33_Node000007_Node000031" class="edge">
<title>Node7&#45;&gt;Node31</title>
<g id="a_edge33_Node000007_Node000031"><a xlink:title=" ">
<path fill="none" stroke="#63b8ff" d="M931.96,-241.6C1026.91,-228.85 1209.43,-204.32 1212.88,-203.75 1213.86,-203.59 1214.86,-203.42 1215.87,-203.24"/>
<polygon fill="#63b8ff" stroke="#63b8ff" points="1216.1,-206.76 1225.31,-201.52 1214.84,-199.87 1216.1,-206.76"/>
</a>
</g>
</g>
<!-- Node32 -->
<g id="Node000032" class="node">
<title>Node32</title>
<g id="a_Node000032"><a xlink:title=" ">
<polygon fill="#e0e0e0" stroke="#999999" points="757.62,-203.75 704.12,-203.75 704.12,-183 757.62,-183 757.62,-203.75"/>
<text text-anchor="middle" x="730.88" y="-190.25" font-family="Helvetica,sans-Serif" font-size="10.00">dirent.h</text>
</a>
</g>
</g>
<!-- Node7&#45;&gt;Node32 -->
<g id="edge37_Node000007_Node000032" class="edge">
<title>Node7&#45;&gt;Node32</title>
<g id="a_edge37_Node000007_Node000032"><a xlink:title=" ">
<path fill="none" stroke="#63b8ff" d="M849.95,-239.34C826.86,-230.62 792.83,-217.77 767.06,-208.04"/>
<polygon fill="#63b8ff" stroke="#63b8ff" points="768.58,-204.87 757.99,-204.61 766.11,-211.42 768.58,-204.87"/>
</a>
</g>
</g>
<!-- Node33 -->
<g id="Node000033" class="node">
<title>Node33</title>
<g id="a_Node000033"><a xlink:title=" ">
<polygon fill="#e0e0e0" stroke="#999999" points="830.38,-203.75 775.38,-203.75 775.38,-183 830.38,-183 830.38,-203.75"/>
<text text-anchor="middle" x="802.88" y="-190.25" font-family="Helvetica,sans-Serif" font-size="10.00">unistd.h</text>
</a>
</g>
</g>
<!-- Node7&#45;&gt;Node33 -->
<g id="edge38_Node000007_Node000033" class="edge">
<title>Node7&#45;&gt;Node33</title>
<g id="a_edge38_Node000007_Node000033"><a xlink:title=" ">
<path fill="none" stroke="#63b8ff" d="M862.82,-239.34C852.24,-231.4 837.08,-220.03 824.66,-210.71"/>
<polygon fill="#63b8ff" stroke="#63b8ff" points="827.12,-208.19 817.02,-204.99 822.92,-213.79 827.12,-208.19"/>
</a>
</g>
</g>
<!-- Node34 -->
<g id="Node000034" class="node">
<title>Node34</title>
<g id="a_Node000034"><a xlink:title=" ">
<polygon fill="#e0e0e0" stroke="#999999" points="903,-203.75 848.75,-203.75 848.75,-183 903,-183 903,-203.75"/>
<text text-anchor="middle" x="875.88" y="-190.25" font-family="Helvetica,sans-Serif" font-size="10.00">signal.h</text>
</a>
</g>
</g>
<!-- Node7&#45;&gt;Node34 -->
<g id="edge39_Node000007_Node000034" class="edge">
<title>Node7&#45;&gt;Node34</title>
<g id="a_edge39_Node000007_Node000034"><a xlink:title=" ">
<path fill="none" stroke="#63b8ff" d="M875.88,-239.34C875.88,-232.72 875.88,-223.72 875.88,-215.52"/>
<polygon fill="#63b8ff" stroke="#63b8ff" points="879.38,-215.59 875.88,-205.59 872.38,-215.59 879.38,-215.59"/>
</a>
</g>
</g>
<!-- Node35 -->
<g id="Node000035" class="node">
<title>Node35</title>
<g id="a_Node000035"><a xlink:title=" ">
<polygon fill="#e0e0e0" stroke="#999999" points="970.75,-203.75 921,-203.75 921,-183 970.75,-183 970.75,-203.75"/>
<text text-anchor="middle" x="945.88" y="-190.25" font-family="Helvetica,sans-Serif" font-size="10.00">atomic</text>
</a>
</g>
</g>
<!-- Node7&#45;&gt;Node35 -->
<g id="edge40_Node000007_Node000035" class="edge">
<title>Node7&#45;&gt;Node35</title>
<g id="a_edge40_Node000007_Node000035"><a xlink:title=" ">
<path fill="none" stroke="#63b8ff" d="M888.39,-239.34C898.44,-231.47 912.79,-220.25 924.63,-210.99"/>
<polygon fill="#63b8ff" stroke="#63b8ff" points="926.56,-213.93 932.28,-205.01 922.24,-208.41 926.56,-213.93"/>
</a>
</g>
</g>
<!-- Node36 -->
<g id="Node000036" class="node">
<title>Node36</title>
<g id="a_Node000036"><a xlink:title=" ">
<polygon fill="#e0e0e0" stroke="#999999" points="1053.25,-203.75 988.5,-203.75 988.5,-183 1053.25,-183 1053.25,-203.75"/>
<text text-anchor="middle" x="1020.88" y="-190.25" font-family="Helvetica,sans-Serif" font-size="10.00">functional</text>
</a>
</g>
</g>
<!-- Node7&#45;&gt;Node36 -->
<g id="edge41_Node000007_Node000036" class="edge">
<title>Node7&#45;&gt;Node36</title>
<g id="a_edge41_Node000007_Node000036"><a xlink:title=" ">
<path fill="none" stroke="#63b8ff" d="M901.8,-239.34C924.89,-230.62 958.92,-217.77 984.69,-208.04"/>
<polygon fill="#63b8ff" stroke="#63b8ff" points="985.64,-211.42 993.76,-204.61 983.17,-204.87 985.64,-211.42"/>
</a>
</g>
</g>
<!-- Node9 -->
<g id="Node000009" class="node">
<title>Node9</title>
<g id="a_Node000009"><a xlink:href="json-fwd_8hh_source.html" target="_top" xlink:title=" ">
<polygon fill="white" stroke="#666666" points="1053.88,-140.62 935.88,-140.62 935.88,-119.88 1053.88,-119.88 1053.88,-140.62"/>
<text text-anchor="middle" x="994.88" y="-127.12" font-family="Helvetica,sans-Serif" font-size="10.00">lix/libutil/json&#45;fwd.hh</text>
</a>
</g>
</g>
<!-- Node8&#45;&gt;Node9 -->
<g id="edge8_Node000008_Node000009" class="edge">
<title>Node8&#45;&gt;Node9</title>
<g id="a_edge8_Node000008_Node000009"><a xlink:title=" ">
<path fill="none" stroke="#63b8ff" d="M1100.63,-182.55C1080.24,-172.66 1048.54,-157.28 1025.16,-145.94"/>
<polygon fill="#63b8ff" stroke="#63b8ff" points="1026.96,-142.92 1016.43,-141.71 1023.9,-149.22 1026.96,-142.92"/>
</a>
</g>
</g>
<!-- Node11 -->
<g id="Node000011" class="node">
<title>Node11</title>
<g id="a_Node000011"><a xlink:title=" ">
<polygon fill="#e0e0e0" stroke="#999999" points="925.12,-77.5 856.62,-77.5 856.62,-56.75 925.12,-56.75 925.12,-77.5"/>
<text text-anchor="middle" x="890.88" y="-64" font-family="Helvetica,sans-Serif" font-size="10.00">type_traits</text>
</a>
</g>
</g>
<!-- Node8&#45;&gt;Node11 -->
<g id="edge31_Node000008_Node000011" class="edge">
<title>Node8&#45;&gt;Node11</title>
<g id="a_edge31_Node000008_Node000011"><a xlink:title=" ">
<path fill="none" stroke="#63b8ff" d="M1116.49,-182.71C1108.39,-165.95 1089.44,-131.57 1062.88,-113.5 1052.33,-106.32 983.73,-89.51 936.42,-78.48"/>
<polygon fill="#63b8ff" stroke="#63b8ff" points="937.49,-75.14 926.96,-76.29 935.91,-81.96 937.49,-75.14"/>
</a>
</g>
</g>
<!-- Node12 -->
<g id="Node000012" class="node">
<title>Node12</title>
<g id="a_Node000012"><a xlink:href="suggestions_8hh.html" target="_top" xlink:title=" ">
<polygon fill="white" stroke="#666666" points="1245.5,-140.62 1110.25,-140.62 1110.25,-119.88 1245.5,-119.88 1245.5,-140.62"/>
<text text-anchor="middle" x="1177.88" y="-127.12" font-family="Helvetica,sans-Serif" font-size="10.00">lix/libutil/suggestions.hh</text>
</a>
</g>
</g>
<!-- Node8&#45;&gt;Node12 -->
<g id="edge11_Node000008_Node000012" class="edge">
<title>Node8&#45;&gt;Node12</title>
<g id="a_edge11_Node000008_Node000012"><a xlink:title=" ">
<path fill="none" stroke="#63b8ff" d="M1130.03,-182.55C1138.39,-173.59 1150.95,-160.12 1161.11,-149.23"/>
<polygon fill="#63b8ff" stroke="#63b8ff" points="1163.64,-151.65 1167.9,-141.95 1158.52,-146.88 1163.64,-151.65"/>
</a>
</g>
</g>
<!-- Node19 -->
<g id="Node000019" class="node">
<title>Node19</title>
<g id="a_Node000019"><a xlink:href="libutil_2fmt_8hh.html" target="_top" xlink:title=" ">
<polygon fill="white" stroke="#666666" points="1357.88,-140.62 1263.88,-140.62 1263.88,-119.88 1357.88,-119.88 1357.88,-140.62"/>
<text text-anchor="middle" x="1310.88" y="-127.12" font-family="Helvetica,sans-Serif" font-size="10.00">lix/libutil/fmt.hh</text>
</a>
</g>
</g>
<!-- Node8&#45;&gt;Node19 -->
<g id="edge18_Node000008_Node000019" class="edge">
<title>Node8&#45;&gt;Node19</title>
<g id="a_edge18_Node000008_Node000019"><a xlink:title=" ">
<path fill="none" stroke="#63b8ff" d="M1151.4,-182.55C1183.53,-172.22 1234.3,-155.89 1269.9,-144.43"/>
<polygon fill="#63b8ff" stroke="#63b8ff" points="1270.54,-147.9 1278.98,-141.51 1268.39,-141.24 1270.54,-147.9"/>
</a>
</g>
</g>
<!-- Node23 -->
<g id="Node000023" class="node">
<title>Node23</title>
<g id="a_Node000023"><a xlink:title=" ">
<polygon fill="#e0e0e0" stroke="#999999" points="1425.38,-140.62 1376.38,-140.62 1376.38,-119.88 1425.38,-119.88 1425.38,-140.62"/>
<text text-anchor="middle" x="1400.88" y="-127.12" font-family="Helvetica,sans-Serif" font-size="10.00">cstring</text>
</a>
</g>
</g>
<!-- Node8&#45;&gt;Node23 -->
<g id="edge23_Node000008_Node000023" class="edge">
<title>Node8&#45;&gt;Node23</title>
<g id="a_edge23_Node000008_Node000023"><a xlink:title=" ">
<path fill="none" stroke="#63b8ff" d="M1170.92,-184.67C1231.9,-175.01 1331.18,-158.36 1366.88,-147 1368.42,-146.51 1370,-145.96 1371.57,-145.37"/>
<polygon fill="#63b8ff" stroke="#63b8ff" points="1372.51,-148.77 1380.4,-141.69 1369.82,-142.31 1372.51,-148.77"/>
</a>
</g>
</g>
<!-- Node24 -->
<g id="Node000024" class="node">
<title>Node24</title>
<g id="a_Node000024"><a xlink:title=" ">
<polygon fill="#e0e0e0" stroke="#999999" points="1474.38,-140.62 1443.38,-140.62 1443.38,-119.88 1474.38,-119.88 1474.38,-140.62"/>
<text text-anchor="middle" x="1458.88" y="-127.12" font-family="Helvetica,sans-Serif" font-size="10.00">list</text>
</a>
</g>
</g>
<!-- Node8&#45;&gt;Node24 -->
<g id="edge24_Node000008_Node000024" class="edge">
<title>Node8&#45;&gt;Node24</title>
<g id="a_edge24_Node000008_Node000024"><a xlink:title=" ">
<path fill="none" stroke="#63b8ff" d="M1170.83,-185.04C1175.58,-184.35 1180.32,-183.66 1184.88,-183 1295.97,-166.86 1329.89,-186.74 1434.88,-147 1435.36,-146.81 1435.85,-146.62 1436.34,-146.41"/>
<polygon fill="#63b8ff" stroke="#63b8ff" points="1437.8,-149.6 1444.9,-141.74 1434.45,-143.46 1437.8,-149.6"/>
</a>
</g>
</g>
<!-- Node8&#45;&gt;Node25 -->
<g id="edge25_Node000008_Node000025" class="edge">
<title>Node8&#45;&gt;Node25</title>
<g id="a_edge25_Node000008_Node000025"><a xlink:title=" ">
<path fill="none" stroke="#63b8ff" d="M1170.8,-184.82C1175.56,-184.17 1180.3,-183.56 1184.88,-183 1349.77,-162.96 1395.72,-187.24 1556.88,-147 1559.15,-146.43 1561.46,-145.75 1563.77,-145"/>
<polygon fill="#63b8ff" stroke="#63b8ff" points="1564.78,-148.36 1572.93,-141.59 1562.33,-141.8 1564.78,-148.36"/>
</a>
</g>
</g>
<!-- Node26 -->
<g id="Node000026" class="node">
<title>Node26</title>
<g id="a_Node000026"><a xlink:title=" ">
<polygon fill="#e0e0e0" stroke="#999999" points="1547.75,-140.62 1492,-140.62 1492,-119.88 1547.75,-119.88 1547.75,-140.62"/>
<text text-anchor="middle" x="1519.88" y="-127.12" font-family="Helvetica,sans-Serif" font-size="10.00">optional</text>
</a>
</g>
</g>
<!-- Node8&#45;&gt;Node26 -->
<g id="edge26_Node000008_Node000026" class="edge">
<title>Node8&#45;&gt;Node26</title>
<g id="a_edge26_Node000008_Node000026"><a xlink:title=" ">
<path fill="none" stroke="#63b8ff" d="M1170.82,-184.93C1175.57,-184.26 1180.31,-183.61 1184.88,-183 1317.55,-165.3 1354.74,-182.2 1483.88,-147 1485.86,-146.46 1487.88,-145.83 1489.9,-145.13"/>
<polygon fill="#63b8ff" stroke="#63b8ff" points="1491.01,-148.45 1499.04,-141.54 1488.45,-141.94 1491.01,-148.45"/>
</a>
</g>
</g>
<!-- Node8&#45;&gt;Node27 -->
<g id="edge27_Node000008_Node000027" class="edge">
<title>Node8&#45;&gt;Node27</title>
<g id="a_edge27_Node000008_Node000027"><a xlink:title=" ">
<path fill="none" stroke="#63b8ff" d="M1071.01,-184.23C1067.92,-183.79 1064.86,-183.38 1061.88,-183 893.58,-161.68 847.46,-183.87 681.88,-147 678.86,-146.33 675.77,-145.51 672.69,-144.6"/>
<polygon fill="#63b8ff" stroke="#63b8ff" points="673.79,-141.28 663.2,-141.49 671.61,-147.93 673.79,-141.28"/>
</a>
</g>
</g>
<!-- Node8&#45;&gt;Node28 -->
<g id="edge28_Node000008_Node000028" class="edge">
<title>Node8&#45;&gt;Node28</title>
<g id="a_edge28_Node000008_Node000028"><a xlink:title=" ">
<path fill="none" stroke="#63b8ff" d="M1071,-184.32C1067.91,-183.86 1064.85,-183.42 1061.88,-183 929.75,-164.53 893.35,-179.16 763.88,-147 761.41,-146.39 758.89,-145.67 756.38,-144.88"/>
<polygon fill="#63b8ff" stroke="#63b8ff" points="757.56,-141.59 746.97,-141.6 755.26,-148.2 757.56,-141.59"/>
</a>
</g>
</g>
<!-- Node29 -->
<g id="Node000029" class="node">
<title>Node29</title>
<g id="a_Node000029"><a xlink:title=" ">
<polygon fill="#e0e0e0" stroke="#999999" points="819.25,-140.62 772.5,-140.62 772.5,-119.88 819.25,-119.88 819.25,-140.62"/>
<text text-anchor="middle" x="795.88" y="-127.12" font-family="Helvetica,sans-Serif" font-size="10.00">fcntl.h</text>
</a>
</g>
</g>
<!-- Node8&#45;&gt;Node29 -->
<g id="edge29_Node000008_Node000029" class="edge">
<title>Node8&#45;&gt;Node29</title>
<g id="a_edge29_Node000008_Node000029"><a xlink:title=" ">
<path fill="none" stroke="#63b8ff" d="M1070.98,-184.43C1067.9,-183.95 1064.85,-183.47 1061.88,-183 958.35,-166.78 929,-177.9 828.88,-147 827.32,-146.52 825.75,-145.98 824.17,-145.39"/>
<polygon fill="#63b8ff" stroke="#63b8ff" points="825.96,-142.35 815.39,-141.65 823.22,-148.79 825.96,-142.35"/>
</a>
</g>
</g>
<!-- Node30 -->
<g id="Node000030" class="node">
<title>Node30</title>
<g id="a_Node000030"><a xlink:title=" ">
<polygon fill="#e0e0e0" stroke="#999999" points="918.12,-140.62 837.62,-140.62 837.62,-119.88 918.12,-119.88 918.12,-140.62"/>
<text text-anchor="middle" x="877.88" y="-127.12" font-family="Helvetica,sans-Serif" font-size="10.00">system_error</text>
</a>
</g>
</g>
<!-- Node8&#45;&gt;Node30 -->
<g id="edge30_Node000008_Node000030" class="edge">
<title>Node8&#45;&gt;Node30</title>
<g id="a_edge30_Node000008_Node000030"><a xlink:title=" ">
<path fill="none" stroke="#63b8ff" d="M1073.96,-182.52C1034.5,-173.97 976.71,-160.81 926.88,-147 923.95,-146.19 920.94,-145.32 917.91,-144.41"/>
<polygon fill="#63b8ff" stroke="#63b8ff" points="919.07,-141.11 908.48,-141.5 917,-147.79 919.07,-141.11"/>
</a>
</g>
</g>
<!-- Node10 -->
<g id="Node000010" class="node">
<title>Node10</title>
<g id="a_Node000010"><a xlink:title=" ">
<polygon fill="#e0e0e0" stroke="#999999" points="838.62,-77.5 707.12,-77.5 707.12,-56.75 838.62,-56.75 838.62,-77.5"/>
<text text-anchor="middle" x="772.88" y="-64" font-family="Helvetica,sans-Serif" font-size="10.00">nlohmann/json_fwd.hpp</text>
</a>
</g>
</g>
<!-- Node9&#45;&gt;Node10 -->
<g id="edge9_Node000009_Node000010" class="edge">
<title>Node9&#45;&gt;Node10</title>
<g id="a_edge9_Node000009_Node000010"><a xlink:title=" ">
<path fill="none" stroke="#63b8ff" d="M959.21,-119.43C921.26,-108.98 861.07,-92.41 819.41,-80.94"/>
<polygon fill="#63b8ff" stroke="#63b8ff" points="820.48,-77.6 809.91,-78.32 818.63,-84.35 820.48,-77.6"/>
</a>
</g>
</g>
<!-- Node9&#45;&gt;Node11 -->
<g id="edge10_Node000009_Node000011" class="edge">
<title>Node9&#45;&gt;Node11</title>
<g id="a_edge10_Node000009_Node000011"><a xlink:title=" ">
<path fill="none" stroke="#63b8ff" d="M978.17,-119.43C961.79,-109.8 936.57,-94.98 917.45,-83.74"/>
<polygon fill="#63b8ff" stroke="#63b8ff" points="919.24,-80.74 908.85,-78.69 915.7,-86.77 919.24,-80.74"/>
</a>
</g>
</g>
<!-- Node13 -->
<g id="Node000013" class="node">
<title>Node13</title>
<g id="a_Node000013"><a xlink:href="comparator_8hh.html" target="_top" xlink:title=" ">
<polygon fill="white" stroke="#666666" points="1233,-77.5 1100.75,-77.5 1100.75,-56.75 1233,-56.75 1233,-77.5"/>
<text text-anchor="middle" x="1166.88" y="-64" font-family="Helvetica,sans-Serif" font-size="10.00">lix/libutil/comparator.hh</text>
</a>
</g>
</g>
<!-- Node12&#45;&gt;Node13 -->
<g id="edge12_Node000012_Node000013" class="edge">
<title>Node12&#45;&gt;Node13</title>
<g id="a_edge12_Node000012_Node000013"><a xlink:title=" ">
<path fill="none" stroke="#63b8ff" d="M1176.11,-119.43C1174.62,-111.18 1172.45,-99.12 1170.59,-88.76"/>
<polygon fill="#63b8ff" stroke="#63b8ff" points="1174.09,-88.43 1168.87,-79.21 1167.2,-89.67 1174.09,-88.43"/>
</a>
</g>
</g>
<!-- Node15 -->
<g id="Node000015" class="node">
<title>Node15</title>
<g id="a_Node000015"><a xlink:title=" ">
<polygon fill="#e0e0e0" stroke="#999999" points="1282.38,-77.5 1251.38,-77.5 1251.38,-56.75 1282.38,-56.75 1282.38,-77.5"/>
<text text-anchor="middle" x="1266.88" y="-64" font-family="Helvetica,sans-Serif" font-size="10.00">set</text>
</a>
</g>
</g>
<!-- Node12&#45;&gt;Node15 -->
<g id="edge14_Node000012_Node000015" class="edge">
<title>Node12&#45;&gt;Node15</title>
<g id="a_edge14_Node000012_Node000015"><a xlink:title=" ">
<path fill="none" stroke="#63b8ff" d="M1192.17,-119.43C1205.93,-109.98 1226.97,-95.53 1243.22,-84.37"/>
<polygon fill="#63b8ff" stroke="#63b8ff" points="1245.1,-87.32 1251.36,-78.78 1241.14,-81.55 1245.1,-87.32"/>
</a>
</g>
</g>
<!-- Node16 -->
<g id="Node000016" class="node">
<title>Node16</title>
<g id="a_Node000016"><a xlink:title=" ">
<polygon fill="#e0e0e0" stroke="#999999" points="1015,-77.5 942.75,-77.5 942.75,-56.75 1015,-56.75 1015,-77.5"/>
<text text-anchor="middle" x="978.88" y="-64" font-family="Helvetica,sans-Serif" font-size="10.00">string_view</text>
</a>
</g>
</g>
<!-- Node12&#45;&gt;Node16 -->
<g id="edge15_Node000012_Node000016" class="edge">
<title>Node12&#45;&gt;Node16</title>
<g id="a_edge15_Node000012_Node000016"><a xlink:title=" ">
<path fill="none" stroke="#63b8ff" d="M1145.9,-119.43C1112.1,-109.05 1058.62,-92.62 1021.31,-81.16"/>
<polygon fill="#63b8ff" stroke="#63b8ff" points="1022.8,-77.96 1012.22,-78.37 1020.75,-84.65 1022.8,-77.96"/>
</a>
</g>
</g>
<!-- Node17 -->
<g id="Node000017" class="node">
<title>Node17</title>
<g id="a_Node000017"><a xlink:title=" ">
<polygon fill="#e0e0e0" stroke="#999999" points="1343.75,-77.5 1300,-77.5 1300,-56.75 1343.75,-56.75 1343.75,-77.5"/>
<text text-anchor="middle" x="1321.88" y="-64" font-family="Helvetica,sans-Serif" font-size="10.00">string</text>
</a>
</g>
</g>
<!-- Node12&#45;&gt;Node17 -->
<g id="edge16_Node000012_Node000017" class="edge">
<title>Node12&#45;&gt;Node17</title>
<g id="a_edge16_Node000012_Node000017"><a xlink:title=" ">
<path fill="none" stroke="#63b8ff" d="M1201.01,-119.43C1224.91,-109.29 1262.4,-93.37 1289.29,-81.95"/>
<polygon fill="#63b8ff" stroke="#63b8ff" points="1290.51,-85.24 1298.35,-78.11 1287.78,-78.8 1290.51,-85.24"/>
</a>
</g>
</g>
<!-- Node18 -->
<g id="Node000018" class="node">
<title>Node18</title>
<g id="a_Node000018"><a xlink:title=" ">
<polygon fill="#e0e0e0" stroke="#999999" points="1083.12,-77.5 1032.62,-77.5 1032.62,-56.75 1083.12,-56.75 1083.12,-77.5"/>
<text text-anchor="middle" x="1057.88" y="-64" font-family="Helvetica,sans-Serif" font-size="10.00">variant</text>
</a>
</g>
</g>
<!-- Node12&#45;&gt;Node18 -->
<g id="edge17_Node000012_Node000018" class="edge">
<title>Node12&#45;&gt;Node18</title>
<g id="a_edge17_Node000012_Node000018"><a xlink:title=" ">
<path fill="none" stroke="#63b8ff" d="M1158.59,-119.43C1139.35,-109.63 1109.52,-94.43 1087.32,-83.12"/>
<polygon fill="#63b8ff" stroke="#63b8ff" points="1088.96,-80.03 1078.46,-78.61 1085.78,-86.27 1088.96,-80.03"/>
</a>
</g>
</g>
<!-- Node14 -->
<g id="Node000014" class="node">
<title>Node14</title>
<g id="a_Node000014"><a xlink:title=" ">
<polygon fill="#e0e0e0" stroke="#999999" points="1187.25,-20.75 1146.5,-20.75 1146.5,0 1187.25,0 1187.25,-20.75"/>
<text text-anchor="middle" x="1166.88" y="-7.25" font-family="Helvetica,sans-Serif" font-size="10.00">tuple</text>
</a>
</g>
</g>
<!-- Node13&#45;&gt;Node14 -->
<g id="edge13_Node000013_Node000014" class="edge">
<title>Node13&#45;&gt;Node14</title>
<g id="a_edge13_Node000013_Node000014"><a xlink:title=" ">
<path fill="none" stroke="#63b8ff" d="M1166.88,-56.34C1166.88,-49.72 1166.88,-40.72 1166.88,-32.52"/>
<polygon fill="#63b8ff" stroke="#63b8ff" points="1170.38,-32.59 1166.88,-22.59 1163.38,-32.59 1170.38,-32.59"/>
</a>
</g>
</g>
<!-- Node19&#45;&gt;Node17 -->
<g id="edge20_Node000019_Node000017" class="edge">
<title>Node19&#45;&gt;Node17</title>
<g id="a_edge20_Node000019_Node000017"><a xlink:title=" ">
<path fill="none" stroke="#63b8ff" d="M1312.64,-119.43C1314.13,-111.18 1316.3,-99.12 1318.16,-88.76"/>
<polygon fill="#63b8ff" stroke="#63b8ff" points="1321.55,-89.67 1319.88,-79.21 1314.66,-88.43 1321.55,-89.67"/>
</a>
</g>
</g>
<!-- Node20 -->
<g id="Node000020" class="node">
<title>Node20</title>
<g id="a_Node000020"><a xlink:title=" ">
<polygon fill="#e0e0e0" stroke="#999999" points="1677.62,-77.5 1618.12,-77.5 1618.12,-56.75 1677.62,-56.75 1677.62,-77.5"/>
<text text-anchor="middle" x="1647.88" y="-64" font-family="Helvetica,sans-Serif" font-size="10.00">iostream</text>
</a>
</g>
</g>
<!-- Node19&#45;&gt;Node20 -->
<g id="edge19_Node000019_Node000020" class="edge">
<title>Node19&#45;&gt;Node20</title>
<g id="a_edge19_Node000019_Node000020"><a xlink:title=" ">
<path fill="none" stroke="#63b8ff" d="M1343.86,-119.4C1351.69,-117.27 1360.04,-115.16 1367.88,-113.5 1470.3,-91.78 1500.57,-97.73 1606.51,-77.8"/>
<polygon fill="#63b8ff" stroke="#63b8ff" points="1607.05,-81.26 1616.21,-75.94 1605.73,-74.39 1607.05,-81.26"/>
</a>
</g>
</g>
<!-- Node21 -->
<g id="Node000021" class="node">
<title>Node21</title>
<g id="a_Node000021"><a xlink:title=" ">
<polygon fill="#e0e0e0" stroke="#999999" points="1461.88,-77.5 1361.88,-77.5 1361.88,-56.75 1461.88,-56.75 1461.88,-77.5"/>
<text text-anchor="middle" x="1411.88" y="-64" font-family="Helvetica,sans-Serif" font-size="10.00">boost/format.hpp</text>
</a>
</g>
</g>
<!-- Node19&#45;&gt;Node21 -->
<g id="edge21_Node000019_Node000021" class="edge">
<title>Node19&#45;&gt;Node21</title>
<g id="a_edge21_Node000019_Node000021"><a xlink:title=" ">
<path fill="none" stroke="#63b8ff" d="M1327.1,-119.43C1343.01,-109.8 1367.49,-94.98 1386.07,-83.74"/>
<polygon fill="#63b8ff" stroke="#63b8ff" points="1387.65,-86.88 1394.39,-78.71 1384.03,-80.89 1387.65,-86.88"/>
</a>
</g>
</g>
<!-- Node22 -->
<g id="Node000022" class="node">
<title>Node22</title>
<g id="a_Node000022"><a xlink:href="ansicolor_8hh.html" target="_top" xlink:title="Some ANSI escape sequences.">
<polygon fill="white" stroke="#666666" points="1600,-77.5 1479.75,-77.5 1479.75,-56.75 1600,-56.75 1600,-77.5"/>
<text text-anchor="middle" x="1539.88" y="-64" font-family="Helvetica,sans-Serif" font-size="10.00">lix/libutil/ansicolor.hh</text>
</a>
</g>
</g>
<!-- Node19&#45;&gt;Node22 -->
<g id="edge22_Node000019_Node000022" class="edge">
<title>Node19&#45;&gt;Node22</title>
<g id="a_edge22_Node000019_Node000022"><a xlink:title=" ">
<path fill="none" stroke="#63b8ff" d="M1346.13,-119.44C1353.32,-117.46 1360.84,-115.4 1367.88,-113.5 1409.57,-102.24 1457.05,-89.74 1491.54,-80.71"/>
<polygon fill="#63b8ff" stroke="#63b8ff" points="1492.01,-84.21 1500.8,-78.3 1490.24,-77.44 1492.01,-84.21"/>
</a>
</g>
</g>
</g>
</svg>
