<?xml version="1.0" encoding="UTF-8" standalone="no"?>
<!DOCTYPE svg PUBLIC "-//W3C//DTD SVG 1.1//EN"
 "http://www.w3.org/Graphics/SVG/1.1/DTD/svg11.dtd">
<!-- Generated by graphviz version 12.2.1 (0)
 -->
<!-- Title: lix/libutil/box_ptr.hh Pages: 1 -->
<svg width="384pt" height="86pt"
 viewBox="0.00 0.00 384.25 85.50" xmlns="http://www.w3.org/2000/svg" xmlns:xlink="http://www.w3.org/1999/xlink">
<g id="graph0" class="graph" transform="scale(1 1) rotate(0) translate(4 81.5)">
<title>lix/libutil/box_ptr.hh</title>
<!-- Node1 -->
<g id="Node000001" class="node">
<title>Node1</title>
<g id="a_Node000001"><a xlink:title=" ">
<polygon fill="#999999" stroke="#666666" points="241.12,-77.5 128.38,-77.5 128.38,-56.75 241.12,-56.75 241.12,-77.5"/>
<text text-anchor="middle" x="184.75" y="-64" font-family="Helvetica,sans-Serif" font-size="10.00">lix/libutil/box_ptr.hh</text>
</a>
</g>
</g>
<!-- Node2 -->
<g id="Node000002" class="node">
<title>Node2</title>
<g id="a_Node000002"><a xlink:title=" ">
<polygon fill="#e0e0e0" stroke="#999999" points="59.5,-20.75 0,-20.75 0,0 59.5,0 59.5,-20.75"/>
<text text-anchor="middle" x="29.75" y="-7.25" font-family="Helvetica,sans-Serif" font-size="10.00">concepts</text>
</a>
</g>
</g>
<!-- Node1&#45;&gt;Node2 -->
<g id="edge1_Node000001_Node000002" class="edge">
<title>Node1&#45;&gt;Node2</title>
<g id="a_edge1_Node000001_Node000002"><a xlink:title=" ">
<path fill="none" stroke="#63b8ff" d="M157.04,-56.34C132.32,-47.61 95.88,-34.73 68.32,-25"/>
<polygon fill="#63b8ff" stroke="#63b8ff" points="69.5,-21.71 58.91,-21.67 67.17,-28.31 69.5,-21.71"/>
</a>
</g>
</g>
<!-- Node3 -->
<g id="Node000003" class="node">
<title>Node3</title>
<g id="a_Node000003"><a xlink:title=" ">
<polygon fill="#e0e0e0" stroke="#999999" points="134.38,-20.75 77.12,-20.75 77.12,0 134.38,0 134.38,-20.75"/>
<text text-anchor="middle" x="105.75" y="-7.25" font-family="Helvetica,sans-Serif" font-size="10.00">memory</text>
</a>
</g>
</g>
<!-- Node1&#45;&gt;Node3 -->
<g id="edge2_Node000001_Node000003" class="edge">
<title>Node1&#45;&gt;Node3</title>
<g id="a_edge2_Node000001_Node000003"><a xlink:title=" ">
<path fill="none" stroke="#63b8ff" d="M170.63,-56.34C159.06,-48.32 142.45,-36.81 128.93,-27.44"/>
<polygon fill="#63b8ff" stroke="#63b8ff" points="131.21,-24.76 121,-21.94 127.22,-30.51 131.21,-24.76"/>
</a>
</g>
</g>
<!-- Node4 -->
<g id="Node000004" class="node">
<title>Node4</title>
<g id="a_Node000004"><a xlink:title=" ">
<polygon fill="#e0e0e0" stroke="#999999" points="216.75,-20.75 152.75,-20.75 152.75,0 216.75,0 216.75,-20.75"/>
<text text-anchor="middle" x="184.75" y="-7.25" font-family="Helvetica,sans-Serif" font-size="10.00">stdexcept</text>
</a>
</g>
</g>
<!-- Node1&#45;&gt;Node4 -->
<g id="edge3_Node000001_Node000004" class="edge">
<title>Node1&#45;&gt;Node4</title>
<g id="a_edge3_Node000001_Node000004"><a xlink:title=" ">
<path fill="none" stroke="#63b8ff" d="M184.75,-56.34C184.75,-49.72 184.75,-40.72 184.75,-32.52"/>
<polygon fill="#63b8ff" stroke="#63b8ff" points="188.25,-32.59 184.75,-22.59 181.25,-32.59 188.25,-32.59"/>
</a>
</g>
</g>
<!-- Node5 -->
<g id="Node000005" class="node">
<title>Node5</title>
<g id="a_Node000005"><a xlink:title=" ">
<polygon fill="#e0e0e0" stroke="#999999" points="303,-20.75 234.5,-20.75 234.5,0 303,0 303,-20.75"/>
<text text-anchor="middle" x="268.75" y="-7.25" font-family="Helvetica,sans-Serif" font-size="10.00">type_traits</text>
</a>
</g>
</g>
<!-- Node1&#45;&gt;Node5 -->
<g id="edge4_Node000001_Node000005" class="edge">
<title>Node1&#45;&gt;Node5</title>
<g id="a_edge4_Node000001_Node000005"><a xlink:title=" ">
<path fill="none" stroke="#63b8ff" d="M199.77,-56.34C212.19,-48.24 230.07,-36.58 244.52,-27.17"/>
<polygon fill="#63b8ff" stroke="#63b8ff" points="246.13,-30.3 252.59,-21.9 242.31,-24.43 246.13,-30.3"/>
</a>
</g>
</g>
<!-- Node6 -->
<g id="Node000006" class="node">
<title>Node6</title>
<g id="a_Node000006"><a xlink:title=" ">
<polygon fill="#e0e0e0" stroke="#999999" points="376.25,-20.75 321.25,-20.75 321.25,0 376.25,0 376.25,-20.75"/>
<text text-anchor="middle" x="348.75" y="-7.25" font-family="Helvetica,sans-Serif" font-size="10.00">assert.h</text>
</a>
</g>
</g>
<!-- Node1&#45;&gt;Node6 -->
<g id="edge5_Node000001_Node000006" class="edge">
<title>Node1&#45;&gt;Node6</title>
<g id="a_edge5_Node000001_Node000006"><a xlink:title=" ">
<path fill="none" stroke="#63b8ff" d="M214.07,-56.34C240.87,-47.39 280.68,-34.1 310.07,-24.29"/>
<polygon fill="#63b8ff" stroke="#63b8ff" points="310.97,-27.68 319.34,-21.19 308.75,-21.04 310.97,-27.68"/>
</a>
</g>
</g>
</g>
</svg>
