<?xml version="1.0" encoding="UTF-8" standalone="no"?>
<!DOCTYPE svg PUBLIC "-//W3C//DTD SVG 1.1//EN"
 "http://www.w3.org/Graphics/SVG/1.1/DTD/svg11.dtd">
<!-- Generated by graphviz version 12.2.1 (0)
 -->
<!-- Title: lix/libutil/chunked&#45;vector.hh Pages: 1 -->
<svg width="1529pt" height="616pt"
 viewBox="0.00 0.00 1528.89 616.00" xmlns="http://www.w3.org/2000/svg" xmlns:xlink="http://www.w3.org/1999/xlink">
<g id="graph0" class="graph" transform="scale(1 1) rotate(0) translate(4 612)">
<title>lix/libutil/chunked&#45;vector.hh</title>
<!-- Node1 -->
<g id="Node000001" class="node">
<title>Node1</title>
<g id="a_Node000001"><a xlink:title=" ">
<polygon fill="#999999" stroke="#666666" points="860.18,-608 757.93,-608 757.93,-574.5 860.18,-574.5 860.18,-608"/>
<text text-anchor="start" x="765.93" y="-594.5" font-family="Helvetica,sans-Serif" font-size="10.00">lix/libutil/chunked</text>
<text text-anchor="middle" x="809.05" y="-581.75" font-family="Helvetica,sans-Serif" font-size="10.00">&#45;vector.hh</text>
</a>
</g>
</g>
<!-- Node2 -->
<g id="Node000002" class="node">
<title>Node2</title>
<g id="a_Node000002"><a xlink:href="pos-table_8hh.html" target="_top" xlink:title=" ">
<polygon fill="white" stroke="#666666" points="940.3,-532.12 811.8,-532.12 811.8,-511.38 940.3,-511.38 940.3,-532.12"/>
<text text-anchor="middle" x="876.05" y="-518.62" font-family="Helvetica,sans-Serif" font-size="10.00">lix/libexpr/pos&#45;table.hh</text>
</a>
</g>
</g>
<!-- Node1&#45;&gt;Node2 -->
<g id="edge1_Node000001_Node000002" class="edge">
<title>Node1&#45;&gt;Node2</title>
<g id="a_edge1_Node000001_Node000002"><a xlink:title=" ">
<path fill="none" stroke="#63b8ff" d="M832.92,-566.2C844.42,-554.61 857.58,-541.36 866.3,-532.57"/>
<polygon fill="#63b8ff" stroke="#63b8ff" points="830.56,-563.62 825.99,-573.18 835.52,-568.55 830.56,-563.62"/>
</a>
</g>
</g>
<!-- Node26 -->
<g id="Node000026" class="node">
<title>Node26</title>
<g id="a_Node000026"><a xlink:href="symbol-table_8hh.html" target="_top" xlink:title=" ">
<polygon fill="white" stroke="#666666" points="793.93,-538.5 690.18,-538.5 690.18,-505 793.93,-505 793.93,-538.5"/>
<text text-anchor="start" x="698.18" y="-525" font-family="Helvetica,sans-Serif" font-size="10.00">lix/libexpr/symbol</text>
<text text-anchor="middle" x="742.05" y="-512.25" font-family="Helvetica,sans-Serif" font-size="10.00">&#45;table.hh</text>
</a>
</g>
</g>
<!-- Node1&#45;&gt;Node26 -->
<g id="edge44_Node000001_Node000026" class="edge">
<title>Node1&#45;&gt;Node26</title>
<g id="a_edge44_Node000001_Node000026"><a xlink:title=" ">
<path fill="none" stroke="#63b8ff" d="M785.2,-566.22C776.1,-557.06 765.97,-546.85 757.81,-538.63"/>
<polygon fill="#63b8ff" stroke="#63b8ff" points="782.58,-568.55 792.11,-573.18 787.55,-563.62 782.58,-568.55"/>
</a>
</g>
</g>
<!-- Node3 -->
<g id="Node000003" class="node">
<title>Node3</title>
<g id="a_Node000003"><a xlink:href="eval-error_8hh.html" target="_top" xlink:title=" ">
<polygon fill="white" stroke="#666666" points="1011.05,-469 881.05,-469 881.05,-448.25 1011.05,-448.25 1011.05,-469"/>
<text text-anchor="middle" x="946.05" y="-455.5" font-family="Helvetica,sans-Serif" font-size="10.00">lix/libexpr/eval&#45;error.hh</text>
</a>
</g>
</g>
<!-- Node2&#45;&gt;Node3 -->
<g id="edge2_Node000002_Node000003" class="edge">
<title>Node2&#45;&gt;Node3</title>
<g id="a_edge2_Node000002_Node000003"><a xlink:title=" ">
<path fill="none" stroke="#63b8ff" d="M895.84,-503.47C908.55,-492.37 924.58,-478.37 935.06,-469.22"/>
<polygon fill="#63b8ff" stroke="#63b8ff" points="893.67,-500.72 888.44,-509.93 898.27,-505.99 893.67,-500.72"/>
</a>
</g>
</g>
<!-- Node24 -->
<g id="Node000024" class="node">
<title>Node24</title>
<g id="a_Node000024"><a xlink:href="nixexpr_8hh.html" target="_top" xlink:title=" ">
<polygon fill="white" stroke="#666666" points="912.05,-412.25 794.05,-412.25 794.05,-391.5 912.05,-391.5 912.05,-412.25"/>
<text text-anchor="middle" x="853.05" y="-398.75" font-family="Helvetica,sans-Serif" font-size="10.00">lix/libexpr/nixexpr.hh</text>
</a>
</g>
</g>
<!-- Node2&#45;&gt;Node24 -->
<g id="edge43_Node000002_Node000024" class="edge">
<title>Node2&#45;&gt;Node24</title>
<g id="a_edge43_Node000002_Node000024"><a xlink:title=" ">
<path fill="none" stroke="#63b8ff" d="M872.01,-500.06C867.01,-474.41 858.69,-431.76 854.96,-412.65"/>
<polygon fill="#63b8ff" stroke="#63b8ff" points="868.53,-500.47 873.88,-509.62 875.4,-499.13 868.53,-500.47"/>
</a>
</g>
</g>
<!-- Node4 -->
<g id="Node000004" class="node">
<title>Node4</title>
<g id="a_Node000004"><a xlink:href="common-eval-args_8hh.html" target="_top" xlink:title=" ">
<polygon fill="white" stroke="#666666" points="1260.3,-172.5 1125.8,-172.5 1125.8,-139 1260.3,-139 1260.3,-172.5"/>
<text text-anchor="start" x="1133.8" y="-159" font-family="Helvetica,sans-Serif" font-size="10.00">lix/libcmd/common&#45;eval</text>
<text text-anchor="middle" x="1193.05" y="-146.25" font-family="Helvetica,sans-Serif" font-size="10.00">&#45;args.hh</text>
</a>
</g>
</g>
<!-- Node3&#45;&gt;Node4 -->
<g id="edge3_Node000003_Node000004" class="edge">
<title>Node3&#45;&gt;Node4</title>
<g id="a_edge3_Node000003_Node000004"><a xlink:title=" ">
<path fill="none" stroke="#63b8ff" d="M1022.87,-458.5C1179.08,-458.19 1519.05,-446.05 1519.05,-346.12 1519.05,-346.12 1519.05,-346.12 1519.05,-287.38 1519.05,-251.32 1526.42,-233.1 1500.05,-208.5 1466.21,-176.93 1340.27,-164.44 1260.59,-159.63"/>
<polygon fill="#63b8ff" stroke="#63b8ff" points="1023.01,-455 1013.02,-458.5 1023.02,-462 1023.01,-455"/>
</a>
</g>
</g>
<!-- Node8 -->
<g id="Node000008" class="node">
<title>Node8</title>
<g id="a_Node000008"><a xlink:href="eval-inline_8hh.html" target="_top" xlink:title=" ">
<polygon fill="white" stroke="#666666" points="1102.3,-355.5 967.8,-355.5 967.8,-334.75 1102.3,-334.75 1102.3,-355.5"/>
<text text-anchor="middle" x="1035.05" y="-342" font-family="Helvetica,sans-Serif" font-size="10.00">lix/libexpr/eval&#45;inline.hh</text>
</a>
</g>
</g>
<!-- Node3&#45;&gt;Node8 -->
<g id="edge8_Node000003_Node000008" class="edge">
<title>Node3&#45;&gt;Node8</title>
<g id="a_edge8_Node000003_Node000008"><a xlink:title=" ">
<path fill="none" stroke="#63b8ff" d="M960.65,-439.33C979.7,-415.47 1012.33,-374.58 1027.23,-355.93"/>
<polygon fill="#63b8ff" stroke="#63b8ff" points="958.09,-436.94 954.58,-446.94 963.56,-441.3 958.09,-436.94"/>
</a>
</g>
</g>
<!-- Node9 -->
<g id="Node000009" class="node">
<title>Node9</title>
<g id="a_Node000009"><a xlink:href="libexpr_2eval_8hh.html" target="_top" xlink:title=" ">
<polygon fill="white" stroke="#666666" points="866.93,-298.75 763.18,-298.75 763.18,-278 866.93,-278 866.93,-298.75"/>
<text text-anchor="middle" x="815.05" y="-285.25" font-family="Helvetica,sans-Serif" font-size="10.00">lix/libexpr/eval.hh</text>
</a>
</g>
</g>
<!-- Node3&#45;&gt;Node9 -->
<g id="edge36_Node000003_Node000009" class="edge">
<title>Node3&#45;&gt;Node9</title>
<g id="a_edge36_Node000003_Node000009"><a xlink:title=" ">
<path fill="none" stroke="#63b8ff" d="M942.72,-436.84C937.53,-410.36 925.26,-364.48 899.05,-334.75 884.36,-318.09 862.03,-306.44 844.09,-299.12"/>
<polygon fill="#63b8ff" stroke="#63b8ff" points="939.21,-437.1 944.41,-446.33 946.1,-435.87 939.21,-437.1"/>
</a>
</g>
</g>
<!-- Node3&#45;&gt;Node24 -->
<g id="edge37_Node000003_Node000024" class="edge">
<title>Node3&#45;&gt;Node24</title>
<g id="a_edge37_Node000003_Node000024"><a xlink:title=" ">
<path fill="none" stroke="#63b8ff" d="M919.52,-442.01C903.42,-432.53 883.38,-420.73 869.53,-412.58"/>
<polygon fill="#63b8ff" stroke="#63b8ff" points="917.73,-445.01 928.12,-447.07 921.28,-438.98 917.73,-445.01"/>
</a>
</g>
</g>
<!-- Node5 -->
<g id="Node000005" class="node">
<title>Node5</title>
<g id="a_Node000005"><a xlink:href="command_8hh.html" target="_top" xlink:title=" ">
<polygon fill="white" stroke="#666666" points="1111.43,-96.62 980.68,-96.62 980.68,-75.88 1111.43,-75.88 1111.43,-96.62"/>
<text text-anchor="middle" x="1046.05" y="-83.12" font-family="Helvetica,sans-Serif" font-size="10.00">lix/libcmd/command.hh</text>
</a>
</g>
</g>
<!-- Node4&#45;&gt;Node5 -->
<g id="edge4_Node000004_Node000005" class="edge">
<title>Node4&#45;&gt;Node5</title>
<g id="a_edge4_Node000004_Node000005"><a xlink:title=" ">
<path fill="none" stroke="#63b8ff" d="M1147.54,-133.85C1120.79,-121.57 1088.23,-106.62 1067.33,-97.02"/>
<polygon fill="#63b8ff" stroke="#63b8ff" points="1145.92,-136.96 1156.46,-137.95 1148.84,-130.6 1145.92,-136.96"/>
</a>
</g>
</g>
<!-- Node6 -->
<g id="Node000006" class="node">
<title>Node6</title>
<g id="a_Node000006"><a xlink:href="installable-attr-path_8hh.html" target="_top" xlink:title=" ">
<polygon fill="white" stroke="#666666" points="994.05,-33.5 876.05,-33.5 876.05,0 994.05,0 994.05,-33.5"/>
<text text-anchor="start" x="884.05" y="-20" font-family="Helvetica,sans-Serif" font-size="10.00">lix/libcmd/installable</text>
<text text-anchor="middle" x="935.05" y="-7.25" font-family="Helvetica,sans-Serif" font-size="10.00">&#45;attr&#45;path.hh</text>
</a>
</g>
</g>
<!-- Node4&#45;&gt;Node6 -->
<g id="edge7_Node000004_Node000006" class="edge">
<title>Node4&#45;&gt;Node6</title>
<g id="a_edge7_Node000004_Node000006"><a xlink:title=" ">
<path fill="none" stroke="#63b8ff" d="M1177.2,-129.12C1164.11,-110.01 1143.86,-84.69 1120.05,-69.5 1109.19,-62.57 1044.06,-45.16 994.11,-32.44"/>
<polygon fill="#63b8ff" stroke="#63b8ff" points="1174.28,-131.04 1182.71,-137.46 1180.12,-127.18 1174.28,-131.04"/>
</a>
</g>
</g>
<!-- Node5&#45;&gt;Node6 -->
<g id="edge5_Node000005_Node000006" class="edge">
<title>Node5&#45;&gt;Node6</title>
<g id="a_edge5_Node000005_Node000006"><a xlink:title=" ">
<path fill="none" stroke="#63b8ff" d="M1020.52,-69.72C1002.89,-59 979.49,-44.78 961.64,-33.92"/>
<polygon fill="#63b8ff" stroke="#63b8ff" points="1018.49,-72.59 1028.85,-74.79 1022.13,-66.61 1018.49,-72.59"/>
</a>
</g>
</g>
<!-- Node7 -->
<g id="Node000007" class="node">
<title>Node7</title>
<g id="a_Node000007"><a xlink:href="nix_2daemon_8cc.html" target="_top" xlink:title=" ">
<polygon fill="white" stroke="#666666" points="1114.18,-27.12 1011.93,-27.12 1011.93,-6.38 1114.18,-6.38 1114.18,-27.12"/>
<text text-anchor="middle" x="1063.05" y="-13.62" font-family="Helvetica,sans-Serif" font-size="10.00">lix/nix/daemon.cc</text>
</a>
</g>
</g>
<!-- Node5&#45;&gt;Node7 -->
<g id="edge6_Node000005_Node000007" class="edge">
<title>Node5&#45;&gt;Node7</title>
<g id="a_edge6_Node000005_Node000007"><a xlink:title=" ">
<path fill="none" stroke="#63b8ff" d="M1051.29,-64.44C1054.4,-52.09 1058.2,-37.02 1060.62,-27.4"/>
<polygon fill="#63b8ff" stroke="#63b8ff" points="1047.9,-63.56 1048.86,-74.11 1054.69,-65.27 1047.9,-63.56"/>
</a>
</g>
</g>
<!-- Node8&#45;&gt;Node9 -->
<g id="edge9_Node000008_Node000009" class="edge">
<title>Node8&#45;&gt;Node9</title>
<g id="a_edge9_Node000008_Node000009"><a xlink:title=" ">
<path fill="none" stroke="#63b8ff" d="M978.98,-331.61C938.08,-321.79 884.06,-308.31 849.36,-299.24"/>
<polygon fill="#63b8ff" stroke="#63b8ff" points="978.13,-335 988.66,-333.92 979.75,-328.19 978.13,-335"/>
</a>
</g>
</g>
<!-- Node9&#45;&gt;Node4 -->
<g id="edge11_Node000009_Node000004" class="edge">
<title>Node9&#45;&gt;Node4</title>
<g id="a_edge11_Node000009_Node000004"><a xlink:title=" ">
<path fill="none" stroke="#63b8ff" d="M878.22,-284.65C984.2,-279.42 1188.39,-266.29 1210.05,-242 1227.02,-222.96 1214.18,-191.91 1203.49,-173"/>
<polygon fill="#63b8ff" stroke="#63b8ff" points="878.38,-281.14 868.56,-285.12 878.71,-288.13 878.38,-281.14"/>
</a>
</g>
</g>
<!-- Node9&#45;&gt;Node6 -->
<g id="edge12_Node000009_Node000006" class="edge">
<title>Node9&#45;&gt;Node6</title>
<g id="a_edge12_Node000009_Node000006"><a xlink:title=" ">
<path fill="none" stroke="#63b8ff" d="M751.67,-286.17C565.31,-282.34 30.6,-269.02 5.05,-242 -5.18,-231.18 3.88,-223.34 5.05,-208.5 7.5,-177.32 -5.62,-161.55 16.05,-139 75.92,-76.71 682.04,-33.6 875.82,-21.33"/>
<polygon fill="#63b8ff" stroke="#63b8ff" points="751.33,-289.67 761.39,-286.37 751.47,-282.67 751.33,-289.67"/>
</a>
</g>
</g>
<!-- Node9&#45;&gt;Node8 -->
<g id="edge27_Node000009_Node000008" class="edge">
<title>Node9&#45;&gt;Node8</title>
<g id="a_edge27_Node000009_Node000008"><a xlink:title=" ">
<path fill="none" stroke="#63b8ff" d="M870.92,-301.84C911.96,-311.7 966.29,-325.26 1001.03,-334.34"/>
<polygon fill="#63b8ff" stroke="#63b8ff" points="871.74,-298.44 861.2,-299.52 870.11,-305.25 871.74,-298.44"/>
</a>
</g>
</g>
<!-- Node10 -->
<g id="Node000010" class="node">
<title>Node10</title>
<g id="a_Node000010"><a xlink:href="cmd-profiles_8hh.html" target="_top" xlink:title=" ">
<polygon fill="white" stroke="#666666" points="244.43,-166.12 101.68,-166.12 101.68,-145.38 244.43,-145.38 244.43,-166.12"/>
<text text-anchor="middle" x="173.05" y="-152.62" font-family="Helvetica,sans-Serif" font-size="10.00">lix/libcmd/cmd&#45;profiles.hh</text>
</a>
</g>
</g>
<!-- Node9&#45;&gt;Node10 -->
<g id="edge10_Node000009_Node000010" class="edge">
<title>Node9&#45;&gt;Node10</title>
<g id="a_edge10_Node000009_Node000010"><a xlink:title=" ">
<path fill="none" stroke="#63b8ff" d="M751.44,-286C570.66,-281.77 65.29,-267.71 41.05,-242 8.3,-207.27 82.01,-180.18 131.93,-166.52"/>
<polygon fill="#63b8ff" stroke="#63b8ff" points="751.28,-289.49 761.36,-286.23 751.44,-282.5 751.28,-289.49"/>
</a>
</g>
</g>
<!-- Node11 -->
<g id="Node000011" class="node">
<title>Node11</title>
<g id="a_Node000011"><a xlink:href="installable-flake_8hh.html" target="_top" xlink:title=" ">
<polygon fill="white" stroke="#666666" points="492.05,-103 374.05,-103 374.05,-69.5 492.05,-69.5 492.05,-103"/>
<text text-anchor="start" x="382.05" y="-89.5" font-family="Helvetica,sans-Serif" font-size="10.00">lix/libcmd/installable</text>
<text text-anchor="middle" x="433.05" y="-76.75" font-family="Helvetica,sans-Serif" font-size="10.00">&#45;flake.hh</text>
</a>
</g>
</g>
<!-- Node9&#45;&gt;Node11 -->
<g id="edge13_Node000009_Node000011" class="edge">
<title>Node9&#45;&gt;Node11</title>
<g id="a_edge13_Node000009_Node000011"><a xlink:title=" ">
<path fill="none" stroke="#63b8ff" d="M751.69,-286.06C569.19,-281.97 53.74,-268.15 29.05,-242 -75.29,-131.47 237.81,-98.98 373.56,-90.23"/>
<polygon fill="#63b8ff" stroke="#63b8ff" points="751.38,-289.56 761.45,-286.28 751.53,-282.56 751.38,-289.56"/>
</a>
</g>
</g>
<!-- Node12 -->
<g id="Node000012" class="node">
<title>Node12</title>
<g id="a_Node000012"><a xlink:href="installable-value_8hh.html" target="_top" xlink:title=" ">
<polygon fill="white" stroke="#666666" points="925.05,-172.5 807.05,-172.5 807.05,-139 925.05,-139 925.05,-172.5"/>
<text text-anchor="start" x="815.05" y="-159" font-family="Helvetica,sans-Serif" font-size="10.00">lix/libcmd/installable</text>
<text text-anchor="middle" x="866.05" y="-146.25" font-family="Helvetica,sans-Serif" font-size="10.00">&#45;value.hh</text>
</a>
</g>
</g>
<!-- Node9&#45;&gt;Node12 -->
<g id="edge14_Node000009_Node000012" class="edge">
<title>Node9&#45;&gt;Node12</title>
<g id="a_edge14_Node000009_Node000012"><a xlink:title=" ">
<path fill="none" stroke="#63b8ff" d="M847.8,-272.05C859.56,-264.73 871.52,-254.75 878.05,-242 889.36,-219.92 880.96,-190.63 873.65,-172.76"/>
<polygon fill="#63b8ff" stroke="#63b8ff" points="846.37,-268.83 839.41,-276.82 849.83,-274.92 846.37,-268.83"/>
</a>
</g>
</g>
<!-- Node13 -->
<g id="Node000013" class="node">
<title>Node13</title>
<g id="a_Node000013"><a xlink:href="installables_8hh.html" target="_top" xlink:title=" ">
<polygon fill="white" stroke="#666666" points="599.18,-235.62 460.93,-235.62 460.93,-214.88 599.18,-214.88 599.18,-235.62"/>
<text text-anchor="middle" x="530.05" y="-222.12" font-family="Helvetica,sans-Serif" font-size="10.00">lix/libcmd/installables.hh</text>
</a>
</g>
</g>
<!-- Node9&#45;&gt;Node13 -->
<g id="edge18_Node000009_Node000013" class="edge">
<title>Node9&#45;&gt;Node13</title>
<g id="a_edge18_Node000009_Node000013"><a xlink:title=" ">
<path fill="none" stroke="#63b8ff" d="M758.23,-275.19C704.64,-263.7 625.33,-246.69 575.73,-236.05"/>
<polygon fill="#63b8ff" stroke="#63b8ff" points="757.27,-278.56 767.78,-277.24 758.74,-271.72 757.27,-278.56"/>
</a>
</g>
</g>
<!-- Node15 -->
<g id="Node000015" class="node">
<title>Node15</title>
<g id="a_Node000015"><a xlink:href="libcmd_2repl_8hh.html" target="_top" xlink:title=" ">
<polygon fill="white" stroke="#666666" points="442.43,-235.62 341.68,-235.62 341.68,-214.88 442.43,-214.88 442.43,-235.62"/>
<text text-anchor="middle" x="392.05" y="-222.12" font-family="Helvetica,sans-Serif" font-size="10.00">lix/libcmd/repl.hh</text>
</a>
</g>
</g>
<!-- Node9&#45;&gt;Node15 -->
<g id="edge21_Node000009_Node000015" class="edge">
<title>Node9&#45;&gt;Node15</title>
<g id="a_edge21_Node000009_Node000015"><a xlink:title=" ">
<path fill="none" stroke="#63b8ff" d="M751.47,-282C678.68,-275.25 556.09,-262.07 452.05,-242 443.7,-240.39 434.78,-238.27 426.45,-236.12"/>
<polygon fill="#63b8ff" stroke="#63b8ff" points="750.93,-285.46 761.2,-282.89 751.56,-278.49 750.93,-285.46"/>
</a>
</g>
</g>
<!-- Node16 -->
<g id="Node000016" class="node">
<title>Node16</title>
<g id="a_Node000016"><a xlink:href="attr-path_8hh.html" target="_top" xlink:title=" ">
<polygon fill="white" stroke="#666666" points="742.8,-235.62 617.3,-235.62 617.3,-214.88 742.8,-214.88 742.8,-235.62"/>
<text text-anchor="middle" x="680.05" y="-222.12" font-family="Helvetica,sans-Serif" font-size="10.00">lix/libexpr/attr&#45;path.hh</text>
</a>
</g>
</g>
<!-- Node9&#45;&gt;Node16 -->
<g id="edge22_Node000009_Node000016" class="edge">
<title>Node9&#45;&gt;Node16</title>
<g id="a_edge22_Node000009_Node000016"><a xlink:title=" ">
<path fill="none" stroke="#63b8ff" d="M782.88,-272.81C757.79,-261.45 723.61,-245.97 701.69,-236.05"/>
<polygon fill="#63b8ff" stroke="#63b8ff" points="781.43,-275.99 791.98,-276.93 784.32,-269.62 781.43,-275.99"/>
</a>
</g>
</g>
<!-- Node17 -->
<g id="Node000017" class="node">
<title>Node17</title>
<g id="a_Node000017"><a xlink:href="eval-cache_8hh.html" target="_top" xlink:title=" ">
<polygon fill="white" stroke="#666666" points="1061.05,-235.62 925.05,-235.62 925.05,-214.88 1061.05,-214.88 1061.05,-235.62"/>
<text text-anchor="middle" x="993.05" y="-222.12" font-family="Helvetica,sans-Serif" font-size="10.00">lix/libexpr/eval&#45;cache.hh</text>
</a>
</g>
</g>
<!-- Node9&#45;&gt;Node17 -->
<g id="edge23_Node000009_Node000017" class="edge">
<title>Node9&#45;&gt;Node17</title>
<g id="a_edge23_Node000009_Node000017"><a xlink:title=" ">
<path fill="none" stroke="#63b8ff" d="M854.38,-273.87C887.71,-262.42 934.71,-246.29 964.52,-236.05"/>
<polygon fill="#63b8ff" stroke="#63b8ff" points="853.4,-270.5 845.08,-277.06 855.68,-277.13 853.4,-270.5"/>
</a>
</g>
</g>
<!-- Node18 -->
<g id="Node000018" class="node">
<title>Node18</title>
<g id="a_Node000018"><a xlink:href="libexpr_2flake_2flake_8hh.html" target="_top" xlink:title=" ">
<polygon fill="white" stroke="#666666" points="182.18,-235.62 49.93,-235.62 49.93,-214.88 182.18,-214.88 182.18,-235.62"/>
<text text-anchor="middle" x="116.05" y="-222.12" font-family="Helvetica,sans-Serif" font-size="10.00">lix/libexpr/flake/flake.hh</text>
</a>
</g>
</g>
<!-- Node9&#45;&gt;Node18 -->
<g id="edge28_Node000009_Node000018" class="edge">
<title>Node9&#45;&gt;Node18</title>
<g id="a_edge28_Node000009_Node000018"><a xlink:title=" ">
<path fill="none" stroke="#63b8ff" d="M751.85,-285.59C638.84,-281.76 394.87,-270.68 191.05,-242 180.25,-240.48 168.67,-238.32 157.92,-236.08"/>
<polygon fill="#63b8ff" stroke="#63b8ff" points="751.4,-289.07 761.51,-285.9 751.64,-282.08 751.4,-289.07"/>
</a>
</g>
</g>
<!-- Node19 -->
<g id="Node000019" class="node">
<title>Node19</title>
<g id="a_Node000019"><a xlink:href="function-trace_8hh.html" target="_top" xlink:title=" ">
<polygon fill="white" stroke="#666666" points="868.8,-242 761.3,-242 761.3,-208.5 868.8,-208.5 868.8,-242"/>
<text text-anchor="start" x="769.3" y="-228.5" font-family="Helvetica,sans-Serif" font-size="10.00">lix/libexpr/function</text>
<text text-anchor="middle" x="815.05" y="-215.75" font-family="Helvetica,sans-Serif" font-size="10.00">&#45;trace.hh</text>
</a>
</g>
</g>
<!-- Node9&#45;&gt;Node19 -->
<g id="edge30_Node000009_Node000019" class="edge">
<title>Node9&#45;&gt;Node19</title>
<g id="a_edge30_Node000009_Node000019"><a xlink:title=" ">
<path fill="none" stroke="#63b8ff" d="M815.05,-266.09C815.05,-258.35 815.05,-249.72 815.05,-242.48"/>
<polygon fill="#63b8ff" stroke="#63b8ff" points="811.55,-266.04 815.05,-276.04 818.55,-266.04 811.55,-266.04"/>
</a>
</g>
</g>
<!-- Node20 -->
<g id="Node000020" class="node">
<title>Node20</title>
<g id="a_Node000020"><a xlink:href="get-drvs_8hh.html" target="_top" xlink:title=" ">
<polygon fill="white" stroke="#666666" points="323.68,-235.62 200.43,-235.62 200.43,-214.88 323.68,-214.88 323.68,-235.62"/>
<text text-anchor="middle" x="262.05" y="-222.12" font-family="Helvetica,sans-Serif" font-size="10.00">lix/libexpr/get&#45;drvs.hh</text>
</a>
</g>
</g>
<!-- Node9&#45;&gt;Node20 -->
<g id="edge31_Node000009_Node000020" class="edge">
<title>Node9&#45;&gt;Node20</title>
<g id="a_edge31_Node000009_Node000020"><a xlink:title=" ">
<path fill="none" stroke="#63b8ff" d="M751.31,-283.91C658.76,-278.3 481.95,-265.43 333.05,-242 323.07,-240.43 312.4,-238.3 302.43,-236.12"/>
<polygon fill="#63b8ff" stroke="#63b8ff" points="751.02,-287.4 761.21,-284.5 751.43,-280.41 751.02,-287.4"/>
</a>
</g>
</g>
<!-- Node21 -->
<g id="Node000021" class="node">
<title>Node21</title>
<g id="a_Node000021"><a xlink:href="primops_8hh.html" target="_top" xlink:title=" ">
<polygon fill="white" stroke="#666666" points="1201.3,-235.62 1078.8,-235.62 1078.8,-214.88 1201.3,-214.88 1201.3,-235.62"/>
<text text-anchor="middle" x="1140.05" y="-222.12" font-family="Helvetica,sans-Serif" font-size="10.00">lix/libexpr/primops.hh</text>
</a>
</g>
</g>
<!-- Node9&#45;&gt;Node21 -->
<g id="edge33_Node000009_Node000021" class="edge">
<title>Node9&#45;&gt;Node21</title>
<g id="a_edge33_Node000009_Node000021"><a xlink:title=" ">
<path fill="none" stroke="#63b8ff" d="M878.26,-276.94C929.96,-268.22 1004.89,-255.12 1070.05,-242 1079.09,-240.18 1088.75,-238.1 1097.92,-236.05"/>
<polygon fill="#63b8ff" stroke="#63b8ff" points="877.72,-273.49 868.44,-278.6 878.88,-280.39 877.72,-273.49"/>
</a>
</g>
</g>
<!-- Node22 -->
<g id="Node000022" class="node">
<title>Node22</title>
<g id="a_Node000022"><a xlink:href="value-to-json_8hh.html" target="_top" xlink:title=" ">
<polygon fill="white" stroke="#666666" points="1491.18,-242 1382.93,-242 1382.93,-208.5 1491.18,-208.5 1491.18,-242"/>
<text text-anchor="start" x="1390.93" y="-228.5" font-family="Helvetica,sans-Serif" font-size="10.00">lix/libexpr/value&#45;to</text>
<text text-anchor="middle" x="1437.05" y="-215.75" font-family="Helvetica,sans-Serif" font-size="10.00">&#45;json.hh</text>
</a>
</g>
</g>
<!-- Node9&#45;&gt;Node22 -->
<g id="edge34_Node000009_Node000022" class="edge">
<title>Node9&#45;&gt;Node22</title>
<g id="a_edge34_Node000009_Node000022"><a xlink:title=" ">
<path fill="none" stroke="#63b8ff" d="M878.67,-285.6C982.83,-281.94 1196.02,-271.28 1374.05,-242 1376.83,-241.54 1379.67,-241.02 1382.53,-240.46"/>
<polygon fill="#63b8ff" stroke="#63b8ff" points="878.81,-282.1 868.93,-285.93 879.04,-289.09 878.81,-282.1"/>
</a>
</g>
</g>
<!-- Node23 -->
<g id="Node000023" class="node">
<title>Node23</title>
<g id="a_Node000023"><a xlink:href="value-to-xml_8hh.html" target="_top" xlink:title=" ">
<polygon fill="white" stroke="#666666" points="1365.18,-242 1256.93,-242 1256.93,-208.5 1365.18,-208.5 1365.18,-242"/>
<text text-anchor="start" x="1264.93" y="-228.5" font-family="Helvetica,sans-Serif" font-size="10.00">lix/libexpr/value&#45;to</text>
<text text-anchor="middle" x="1311.05" y="-215.75" font-family="Helvetica,sans-Serif" font-size="10.00">&#45;xml.hh</text>
</a>
</g>
</g>
<!-- Node9&#45;&gt;Node23 -->
<g id="edge35_Node000009_Node000023" class="edge">
<title>Node9&#45;&gt;Node23</title>
<g id="a_edge35_Node000009_Node000023"><a xlink:title=" ">
<path fill="none" stroke="#63b8ff" d="M878.76,-283.06C962.66,-276.82 1114.61,-263.6 1243.05,-242 1247.47,-241.26 1252.04,-240.4 1256.61,-239.48"/>
<polygon fill="#63b8ff" stroke="#63b8ff" points="878.6,-279.56 868.89,-283.78 879.12,-286.54 878.6,-279.56"/>
</a>
</g>
</g>
<!-- Node12&#45;&gt;Node5 -->
<g id="edge15_Node000012_Node000005" class="edge">
<title>Node12&#45;&gt;Node5</title>
<g id="a_edge15_Node000012_Node000005"><a xlink:title=" ">
<path fill="none" stroke="#63b8ff" d="M919.59,-134.67C952.62,-122.29 993.55,-106.94 1019.73,-97.12"/>
<polygon fill="#63b8ff" stroke="#63b8ff" points="918.72,-131.26 910.58,-138.05 921.17,-137.82 918.72,-131.26"/>
</a>
</g>
</g>
<!-- Node12&#45;&gt;Node6 -->
<g id="edge16_Node000012_Node000006" class="edge">
<title>Node12&#45;&gt;Node6</title>
<g id="a_edge16_Node000012_Node000006"><a xlink:title=" ">
<path fill="none" stroke="#63b8ff" d="M879.27,-128.5C893.4,-100.44 915.34,-56.88 927.05,-33.63"/>
<polygon fill="#63b8ff" stroke="#63b8ff" points="876.15,-126.91 874.78,-137.41 882.41,-130.06 876.15,-126.91"/>
</a>
</g>
</g>
<!-- Node12&#45;&gt;Node11 -->
<g id="edge17_Node000012_Node000011" class="edge">
<title>Node12&#45;&gt;Node11</title>
<g id="a_edge17_Node000012_Node000011"><a xlink:title=" ">
<path fill="none" stroke="#63b8ff" d="M795.48,-143.75C711.09,-130.59 571.37,-108.81 492.33,-96.49"/>
<polygon fill="#63b8ff" stroke="#63b8ff" points="794.84,-147.19 805.26,-145.27 795.91,-140.27 794.84,-147.19"/>
</a>
</g>
</g>
<!-- Node13&#45;&gt;Node12 -->
<g id="edge20_Node000013_Node000012" class="edge">
<title>Node13&#45;&gt;Node12</title>
<g id="a_edge20_Node000013_Node000012"><a xlink:title=" ">
<path fill="none" stroke="#63b8ff" d="M589.78,-212.18C595.95,-210.94 602.13,-209.69 608.05,-208.5 676.12,-194.8 754.32,-179.12 806.61,-168.65"/>
<polygon fill="#63b8ff" stroke="#63b8ff" points="589.32,-208.7 580.21,-214.11 590.71,-215.56 589.32,-208.7"/>
</a>
</g>
</g>
<!-- Node14 -->
<g id="Node000014" class="node">
<title>Node14</title>
<g id="a_Node000014"><a xlink:href="installable-derived-path_8hh.html" target="_top" xlink:title=" ">
<polygon fill="white" stroke="#666666" points="589.05,-172.5 471.05,-172.5 471.05,-139 589.05,-139 589.05,-172.5"/>
<text text-anchor="start" x="479.05" y="-159" font-family="Helvetica,sans-Serif" font-size="10.00">lix/libcmd/installable</text>
<text text-anchor="middle" x="530.05" y="-146.25" font-family="Helvetica,sans-Serif" font-size="10.00">&#45;derived&#45;path.hh</text>
</a>
</g>
</g>
<!-- Node13&#45;&gt;Node14 -->
<g id="edge19_Node000013_Node000014" class="edge">
<title>Node13&#45;&gt;Node14</title>
<g id="a_edge19_Node000013_Node000014"><a xlink:title=" ">
<path fill="none" stroke="#63b8ff" d="M530.05,-203.38C530.05,-193.57 530.05,-182.05 530.05,-172.92"/>
<polygon fill="#63b8ff" stroke="#63b8ff" points="526.55,-203.07 530.05,-213.07 533.55,-203.07 526.55,-203.07"/>
</a>
</g>
</g>
<!-- Node17&#45;&gt;Node5 -->
<g id="edge24_Node000017_Node000005" class="edge">
<title>Node17&#45;&gt;Node5</title>
<g id="a_edge24_Node000017_Node000005"><a xlink:title=" ">
<path fill="none" stroke="#63b8ff" d="M1000.91,-203.93C1012.49,-174.01 1033.67,-119.24 1042.27,-97.01"/>
<polygon fill="#63b8ff" stroke="#63b8ff" points="997.75,-202.4 997.41,-212.99 1004.28,-204.92 997.75,-202.4"/>
</a>
</g>
</g>
<!-- Node17&#45;&gt;Node6 -->
<g id="edge25_Node000017_Node000006" class="edge">
<title>Node17&#45;&gt;Node6</title>
<g id="a_edge25_Node000017_Node000006"><a xlink:title=" ">
<path fill="none" stroke="#63b8ff" d="M987.22,-203.51C975.65,-162.32 950,-70.97 939.58,-33.88"/>
<polygon fill="#63b8ff" stroke="#63b8ff" points="983.85,-204.43 989.92,-213.11 990.59,-202.54 983.85,-204.43"/>
</a>
</g>
</g>
<!-- Node17&#45;&gt;Node12 -->
<g id="edge26_Node000017_Node000012" class="edge">
<title>Node17&#45;&gt;Node12</title>
<g id="a_edge26_Node000017_Node000012"><a xlink:title=" ">
<path fill="none" stroke="#63b8ff" d="M964.67,-209.17C944.37,-198.37 917.07,-183.86 896.34,-172.85"/>
<polygon fill="#63b8ff" stroke="#63b8ff" points="962.77,-212.12 973.25,-213.72 966.06,-205.94 962.77,-212.12"/>
</a>
</g>
</g>
<!-- Node18&#45;&gt;Node12 -->
<g id="edge29_Node000018_Node000012" class="edge">
<title>Node18&#45;&gt;Node12</title>
<g id="a_edge29_Node000018_Node000012"><a xlink:title=" ">
<path fill="none" stroke="#63b8ff" d="M168.98,-212.24C176.36,-210.82 183.88,-209.52 191.05,-208.5 309.22,-191.64 664.83,-168.95 806.68,-160.3"/>
<polygon fill="#63b8ff" stroke="#63b8ff" points="168.53,-208.76 159.41,-214.15 169.9,-215.62 168.53,-208.76"/>
</a>
</g>
</g>
<!-- Node20&#45;&gt;Node10 -->
<g id="edge32_Node000020_Node000010" class="edge">
<title>Node20&#45;&gt;Node10</title>
<g id="a_edge32_Node000020_Node000010"><a xlink:title=" ">
<path fill="none" stroke="#63b8ff" d="M240.58,-207.97C223.58,-195.07 200.37,-177.47 186.07,-166.62"/>
<polygon fill="#63b8ff" stroke="#63b8ff" points="238.01,-210.41 248.09,-213.66 242.24,-204.83 238.01,-210.41"/>
</a>
</g>
</g>
<!-- Node24&#45;&gt;Node9 -->
<g id="edge40_Node000024_Node000009" class="edge">
<title>Node24&#45;&gt;Node9</title>
<g id="a_edge40_Node000024_Node000009"><a xlink:title=" ">
<path fill="none" stroke="#63b8ff" d="M870.4,-382.89C881.2,-369.42 891.55,-350.65 883.05,-334.75 874.15,-318.11 856.14,-306.51 840.89,-299.21"/>
<polygon fill="#63b8ff" stroke="#63b8ff" points="868.01,-380.3 864.07,-390.13 873.28,-384.9 868.01,-380.3"/>
</a>
</g>
</g>
<!-- Node24&#45;&gt;Node22 -->
<g id="edge41_Node000024_Node000022" class="edge">
<title>Node24&#45;&gt;Node22</title>
<g id="a_edge41_Node000024_Node000022"><a xlink:title=" ">
<path fill="none" stroke="#63b8ff" d="M923.68,-395.21C983.74,-389.15 1071.82,-377.31 1146.05,-355.5 1246.03,-326.12 1356.55,-269.93 1407.88,-242.34"/>
<polygon fill="#63b8ff" stroke="#63b8ff" points="923.54,-391.71 913.93,-396.17 924.22,-398.68 923.54,-391.71"/>
</a>
</g>
</g>
<!-- Node24&#45;&gt;Node23 -->
<g id="edge42_Node000024_Node000023" class="edge">
<title>Node24&#45;&gt;Node23</title>
<g id="a_edge42_Node000024_Node000023"><a xlink:title=" ">
<path fill="none" stroke="#63b8ff" d="M923.82,-396.07C976.85,-390.67 1050.41,-379.29 1111.05,-355.5 1183.79,-326.96 1258.14,-270.11 1292.07,-242.31"/>
<polygon fill="#63b8ff" stroke="#63b8ff" points="923.62,-392.57 914,-397.02 924.29,-399.54 923.62,-392.57"/>
</a>
</g>
</g>
<!-- Node25 -->
<g id="Node000025" class="node">
<title>Node25</title>
<g id="a_Node000025"><a xlink:href="attr-set_8hh.html" target="_top" xlink:title=" ">
<polygon fill="white" stroke="#666666" points="874.43,-355.5 755.68,-355.5 755.68,-334.75 874.43,-334.75 874.43,-355.5"/>
<text text-anchor="middle" x="815.05" y="-342" font-family="Helvetica,sans-Serif" font-size="10.00">lix/libexpr/attr&#45;set.hh</text>
</a>
</g>
</g>
<!-- Node24&#45;&gt;Node25 -->
<g id="edge38_Node000024_Node000025" class="edge">
<title>Node24&#45;&gt;Node25</title>
<g id="a_edge38_Node000024_Node000025"><a xlink:title=" ">
<path fill="none" stroke="#63b8ff" d="M839.7,-381.64C833.64,-372.91 826.74,-362.97 821.79,-355.83"/>
<polygon fill="#63b8ff" stroke="#63b8ff" points="836.82,-383.62 845.39,-389.84 842.57,-379.63 836.82,-383.62"/>
</a>
</g>
</g>
<!-- Node25&#45;&gt;Node9 -->
<g id="edge39_Node000025_Node000009" class="edge">
<title>Node25&#45;&gt;Node9</title>
<g id="a_edge39_Node000025_Node000009"><a xlink:title=" ">
<path fill="none" stroke="#63b8ff" d="M815.05,-322.88C815.05,-314.66 815.05,-305.68 815.05,-299.08"/>
<polygon fill="#63b8ff" stroke="#63b8ff" points="811.55,-322.82 815.05,-332.82 818.55,-322.82 811.55,-322.82"/>
</a>
</g>
</g>
<!-- Node26&#45;&gt;Node9 -->
<g id="edge46_Node000026_Node000009" class="edge">
<title>Node26&#45;&gt;Node9</title>
<g id="a_edge46_Node000026_Node000009"><a xlink:title=" ">
<path fill="none" stroke="#63b8ff" d="M678.71,-509C600.51,-491.55 482.92,-453.97 527.05,-391.5 580.62,-315.67 695.53,-295.79 762.89,-290.8"/>
<polygon fill="#63b8ff" stroke="#63b8ff" points="677.95,-512.41 688.46,-511.11 679.43,-505.57 677.95,-512.41"/>
</a>
</g>
</g>
<!-- Node26&#45;&gt;Node24 -->
<g id="edge47_Node000026_Node000024" class="edge">
<title>Node26&#45;&gt;Node24</title>
<g id="a_edge47_Node000026_Node000024"><a xlink:title=" ">
<path fill="none" stroke="#63b8ff" d="M764.73,-496.67C789.07,-470.81 826.58,-430.98 843.81,-412.68"/>
<polygon fill="#63b8ff" stroke="#63b8ff" points="762.37,-494.07 758.06,-503.75 767.46,-498.87 762.37,-494.07"/>
</a>
</g>
</g>
<!-- Node26&#45;&gt;Node25 -->
<g id="edge45_Node000026_Node000025" class="edge">
<title>Node26&#45;&gt;Node25</title>
<g id="a_edge45_Node000026_Node000025"><a xlink:title=" ">
<path fill="none" stroke="#63b8ff" d="M748.75,-493.91C755.94,-467.2 768.56,-425.4 785.05,-391.5 791.41,-378.42 800.98,-364.66 807.59,-355.77"/>
<polygon fill="#63b8ff" stroke="#63b8ff" points="745.46,-492.68 746.31,-503.24 752.23,-494.46 745.46,-492.68"/>
</a>
</g>
</g>
<!-- Node27 -->
<g id="Node000027" class="node">
<title>Node27</title>
<g id="a_Node000027"><a xlink:href="value_8hh.html" target="_top" xlink:title=" ">
<polygon fill="white" stroke="#666666" points="737.93,-469 628.18,-469 628.18,-448.25 737.93,-448.25 737.93,-469"/>
<text text-anchor="middle" x="683.05" y="-455.5" font-family="Helvetica,sans-Serif" font-size="10.00">lix/libexpr/value.hh</text>
</a>
</g>
</g>
<!-- Node26&#45;&gt;Node27 -->
<g id="edge48_Node000026_Node000027" class="edge">
<title>Node26&#45;&gt;Node27</title>
<g id="a_edge48_Node000026_Node000027"><a xlink:title=" ">
<path fill="none" stroke="#63b8ff" d="M718.81,-496.67C709.65,-487.18 699.64,-476.81 692.55,-469.47"/>
<polygon fill="#63b8ff" stroke="#63b8ff" points="716.03,-498.84 725.5,-503.6 721.07,-493.98 716.03,-498.84"/>
</a>
</g>
</g>
<!-- Node27&#45;&gt;Node9 -->
<g id="edge49_Node000027_Node000009" class="edge">
<title>Node27&#45;&gt;Node9</title>
<g id="a_edge49_Node000027_Node000009"><a xlink:title=" ">
<path fill="none" stroke="#63b8ff" d="M694.56,-438.18C699.18,-430.21 704.48,-420.85 709.05,-412.25 727.04,-378.37 721.78,-363.61 747.05,-334.75 760.42,-319.48 780.07,-307.11 794.81,-299.17"/>
<polygon fill="#63b8ff" stroke="#63b8ff" points="691.61,-436.29 689.58,-446.68 697.65,-439.82 691.61,-436.29"/>
</a>
</g>
</g>
<!-- Node27&#45;&gt;Node18 -->
<g id="edge50_Node000027_Node000018" class="edge">
<title>Node27&#45;&gt;Node18</title>
<g id="a_edge50_Node000027_Node000018"><a xlink:title=" ">
<path fill="none" stroke="#63b8ff" d="M632.53,-444.88C601.7,-436.63 561.69,-425.05 527.05,-412.25 371.67,-354.82 192.5,-265.33 134.9,-235.95"/>
<polygon fill="#63b8ff" stroke="#63b8ff" points="631.42,-448.21 641.98,-447.38 633.21,-441.44 631.42,-448.21"/>
</a>
</g>
</g>
<!-- Node27&#45;&gt;Node24 -->
<g id="edge51_Node000027_Node000024" class="edge">
<title>Node27&#45;&gt;Node24</title>
<g id="a_edge51_Node000027_Node000024"><a xlink:title=" ">
<path fill="none" stroke="#63b8ff" d="M724.12,-444.4C754.48,-434.62 795.15,-421.52 822.63,-412.67"/>
<polygon fill="#63b8ff" stroke="#63b8ff" points="723.33,-440.98 714.88,-447.37 725.48,-447.64 723.33,-440.98"/>
</a>
</g>
</g>
<!-- Node28 -->
<g id="Node000028" class="node">
<title>Node28</title>
<g id="a_Node000028"><a xlink:href="print-ambiguous_8hh.html" target="_top" xlink:title=" ">
<polygon fill="white" stroke="#666666" points="699.55,-412.25 536.55,-412.25 536.55,-391.5 699.55,-391.5 699.55,-412.25"/>
<text text-anchor="middle" x="618.05" y="-398.75" font-family="Helvetica,sans-Serif" font-size="10.00">lix/libexpr/print&#45;ambiguous.hh</text>
</a>
</g>
</g>
<!-- Node27&#45;&gt;Node28 -->
<g id="edge52_Node000027_Node000028" class="edge">
<title>Node27&#45;&gt;Node28</title>
<g id="a_edge52_Node000027_Node000028"><a xlink:title=" ">
<path fill="none" stroke="#63b8ff" d="M662.88,-440.64C651.93,-431.41 638.79,-420.34 629.57,-412.58"/>
<polygon fill="#63b8ff" stroke="#63b8ff" points="660.37,-443.1 670.27,-446.86 664.88,-437.74 660.37,-443.1"/>
</a>
</g>
</g>
</g>
</svg>
