<?xml version="1.0" encoding="UTF-8" standalone="no"?>
<!DOCTYPE svg PUBLIC "-//W3C//DTD SVG 1.1//EN"
 "http://www.w3.org/Graphics/SVG/1.1/DTD/svg11.dtd">
<!-- Generated by graphviz version 12.2.1 (0)
 -->
<!-- Title: nix::SSHStore Pages: 1 -->
<svg width="768pt" height="191pt"
 viewBox="0.00 0.00 767.75 190.88" xmlns="http://www.w3.org/2000/svg" xmlns:xlink="http://www.w3.org/1999/xlink">
<g id="graph0" class="graph" transform="scale(1 1) rotate(0) translate(4 186.88)">
<title>nix::SSHStore</title>
<!-- Node1 -->
<g id="Node000001" class="node">
<title>Node1</title>
<g id="a_Node000001"><a xlink:title=" ">
<polygon fill="#999999" stroke="#666666" points="759.75,-64.5 677.75,-64.5 677.75,-43.75 759.75,-43.75 759.75,-64.5"/>
<text text-anchor="middle" x="718.75" y="-51" font-family="Helvetica,sans-Serif" font-size="10.00">nix::SSHStore</text>
</a>
</g>
</g>
<!-- Node2 -->
<g id="Node000002" class="node">
<title>Node2</title>
<g id="a_Node000002"><a xlink:href="classnix_1_1RemoteStore.html" target="_top" xlink:title=" ">
<polygon fill="white" stroke="#666666" points="604.25,-103.5 503.5,-103.5 503.5,-82.75 604.25,-82.75 604.25,-103.5"/>
<text text-anchor="middle" x="553.88" y="-90" font-family="Helvetica,sans-Serif" font-size="10.00">nix::RemoteStore</text>
</a>
</g>
</g>
<!-- Node2&#45;&gt;Node1 -->
<g id="edge1_Node000001_Node000002" class="edge">
<title>Node2&#45;&gt;Node1</title>
<g id="a_edge1_Node000001_Node000002"><a xlink:title=" ">
<path fill="none" stroke="#63b8ff" d="M615.57,-81.24C630.09,-78.16 645.52,-74.7 659.75,-71.12 667.08,-69.29 674.87,-67.14 682.29,-65"/>
<polygon fill="#63b8ff" stroke="#63b8ff" points="615.23,-77.73 606.15,-83.2 616.66,-84.58 615.23,-77.73"/>
</a>
</g>
</g>
<!-- Node3 -->
<g id="Node000003" class="node">
<title>Node3</title>
<g id="a_Node000003"><a xlink:href="classnix_1_1Store.html" target="_top" xlink:title=" ">
<polygon fill="white" stroke="#bfbfbf" points="251,-124.5 188.5,-124.5 188.5,-103.75 251,-103.75 251,-124.5"/>
<text text-anchor="middle" x="219.75" y="-111" font-family="Helvetica,sans-Serif" font-size="10.00">nix::Store</text>
</a>
</g>
</g>
<!-- Node3&#45;&gt;Node2 -->
<g id="edge2_Node000002_Node000003" class="edge">
<title>Node3&#45;&gt;Node2</title>
<g id="a_edge2_Node000002_Node000003"><a xlink:title=" ">
<path fill="none" stroke="#63b8ff" d="M262.53,-127.97C270.88,-130.15 279.65,-132.04 288,-133.12 375.34,-144.42 400.63,-140.65 485.5,-117.12 498.78,-113.44 513.21,-108.44 525.3,-103.96"/>
<polygon fill="#63b8ff" stroke="#63b8ff" points="263.52,-124.61 252.95,-125.27 261.62,-131.35 263.52,-124.61"/>
</a>
</g>
</g>
<!-- Node7 -->
<g id="Node000007" class="node">
<title>Node7</title>
<g id="a_Node000007"><a xlink:href="structnix_1_1GcStore.html" target="_top" xlink:title=" ">
<polygon fill="white" stroke="#666666" points="384.62,-124.5 309.38,-124.5 309.38,-103.75 384.62,-103.75 384.62,-124.5"/>
<text text-anchor="middle" x="347" y="-111" font-family="Helvetica,sans-Serif" font-size="10.00">nix::GcStore</text>
</a>
</g>
</g>
<!-- Node3&#45;&gt;Node7 -->
<g id="edge7_Node000007_Node000003" class="edge">
<title>Node3&#45;&gt;Node7</title>
<g id="a_edge7_Node000007_Node000003"><a xlink:title=" ">
<path fill="none" stroke="#63b8ff" d="M262.47,-114.12C277.51,-114.12 294.37,-114.12 308.98,-114.12"/>
<polygon fill="#63b8ff" stroke="#63b8ff" points="262.9,-110.63 252.9,-114.13 262.9,-117.63 262.9,-110.63"/>
</a>
</g>
</g>
<!-- Node8 -->
<g id="Node000008" class="node">
<title>Node8</title>
<g id="a_Node000008"><a xlink:href="structnix_1_1LogStore.html" target="_top" xlink:title=" ">
<polygon fill="white" stroke="#bfbfbf" points="386.88,-85.5 307.12,-85.5 307.12,-64.75 386.88,-64.75 386.88,-85.5"/>
<text text-anchor="middle" x="347" y="-72" font-family="Helvetica,sans-Serif" font-size="10.00">nix::LogStore</text>
</a>
</g>
</g>
<!-- Node3&#45;&gt;Node8 -->
<g id="edge9_Node000008_Node000003" class="edge">
<title>Node3&#45;&gt;Node8</title>
<g id="a_edge9_Node000008_Node000003"><a xlink:title=" ">
<path fill="none" stroke="#63b8ff" d="M262.03,-101.27C277.97,-96.31 296,-90.69 311.26,-85.94"/>
<polygon fill="#63b8ff" stroke="#63b8ff" points="261.34,-97.82 252.83,-104.13 263.42,-104.5 261.34,-97.82"/>
</a>
</g>
</g>
<!-- Node4 -->
<g id="Node000004" class="node">
<title>Node4</title>
<g id="a_Node000004"><a xlink:title=" ">
<polygon fill="white" stroke="#bfbfbf" points="120.25,-182.88 4.5,-182.88 4.5,-149.38 120.25,-149.38 120.25,-182.88"/>
<text text-anchor="start" x="12.5" y="-169.38" font-family="Helvetica,sans-Serif" font-size="10.00">std::enable_shared</text>
<text text-anchor="middle" x="62.38" y="-156.62" font-family="Helvetica,sans-Serif" font-size="10.00">_from_this&lt; Store &gt;</text>
</a>
</g>
</g>
<!-- Node4&#45;&gt;Node3 -->
<g id="edge3_Node000003_Node000004" class="edge">
<title>Node4&#45;&gt;Node3</title>
<g id="a_edge3_Node000003_Node000004"><a xlink:title=" ">
<path fill="none" stroke="#63b8ff" d="M127.52,-145.43C141.69,-140.79 156.62,-135.84 170.5,-131.12 176.3,-129.16 182.48,-127.01 188.42,-124.93"/>
<polygon fill="#63b8ff" stroke="#63b8ff" points="126.71,-142.02 118.29,-148.45 128.89,-148.67 126.71,-142.02"/>
</a>
</g>
</g>
<!-- Node5 -->
<g id="Node000005" class="node">
<title>Node5</title>
<g id="a_Node000005"><a xlink:href="classnix_1_1Sync.html" target="_top" xlink:title=" ">
<polygon fill="white" stroke="#666666" points="124.75,-130.88 0,-130.88 0,-97.38 124.75,-97.38 124.75,-130.88"/>
<text text-anchor="start" x="8" y="-117.38" font-family="Helvetica,sans-Serif" font-size="10.00">nix::Sync&lt; nix::Store</text>
<text text-anchor="middle" x="62.38" y="-104.62" font-family="Helvetica,sans-Serif" font-size="10.00">::State, AsyncMutex &gt;</text>
</a>
</g>
</g>
<!-- Node5&#45;&gt;Node3 -->
<g id="edge4_Node000003_Node000005" class="edge">
<title>Node5&#45;&gt;Node3</title>
<g id="a_edge4_Node000003_Node000005"><a xlink:title=" ">
<path fill="none" stroke="#9a32cd" stroke-dasharray="5,2" d="M136.52,-114.12C154.77,-114.12 173.36,-114.12 188.24,-114.12"/>
<polygon fill="#9a32cd" stroke="#9a32cd" points="136.74,-110.63 126.74,-114.13 136.74,-117.63 136.74,-110.63"/>
</a>
</g>
<text text-anchor="middle" x="156.62" y="-117.38" font-family="Helvetica,sans-Serif" font-size="10.00" fill="grey"> state</text>
</g>
<!-- Node6 -->
<g id="Node000006" class="node">
<title>Node6</title>
<g id="a_Node000006"><a xlink:href="structnix_1_1Store_1_1Stats.html" target="_top" xlink:title=" ">
<polygon fill="white" stroke="#bfbfbf" points="113.12,-78.88 11.62,-78.88 11.62,-45.38 113.12,-45.38 113.12,-78.88"/>
<text text-anchor="start" x="19.62" y="-65.38" font-family="Helvetica,sans-Serif" font-size="10.00">nix::Store::Stats&lt;</text>
<text text-anchor="middle" x="62.38" y="-52.62" font-family="Helvetica,sans-Serif" font-size="10.00"> std::atomic &gt;</text>
</a>
</g>
</g>
<!-- Node6&#45;&gt;Node3 -->
<g id="edge5_Node000003_Node000006" class="edge">
<title>Node6&#45;&gt;Node3</title>
<g id="a_edge5_Node000003_Node000006"><a xlink:title=" ">
<path fill="none" stroke="#9a32cd" stroke-dasharray="5,2" d="M124.35,-82C139.45,-86.97 155.57,-92.33 170.5,-97.38 176.21,-99.31 182.29,-101.39 188.15,-103.42"/>
<polygon fill="#9a32cd" stroke="#9a32cd" points="125.6,-78.73 115.01,-78.93 123.41,-85.38 125.6,-78.73"/>
</a>
</g>
<text text-anchor="middle" x="156.62" y="-100.62" font-family="Helvetica,sans-Serif" font-size="10.00" fill="grey"> stats</text>
</g>
<!-- Node7&#45;&gt;Node2 -->
<g id="edge6_Node000002_Node000007" class="edge">
<title>Node7&#45;&gt;Node2</title>
<g id="a_edge6_Node000002_Node000007"><a xlink:title=" ">
<path fill="none" stroke="#63b8ff" d="M396.48,-109.16C428.7,-105.85 470.89,-101.53 503.32,-98.2"/>
<polygon fill="#63b8ff" stroke="#63b8ff" points="396.2,-105.67 386.61,-110.17 396.91,-112.63 396.2,-105.67"/>
</a>
</g>
</g>
<!-- Node8&#45;&gt;Node2 -->
<g id="edge8_Node000002_Node000008" class="edge">
<title>Node8&#45;&gt;Node2</title>
<g id="a_edge8_Node000002_Node000008"><a xlink:title=" ">
<path fill="none" stroke="#63b8ff" d="M398.32,-79.55C430.22,-82.35 471.32,-85.96 503.11,-88.75"/>
<polygon fill="#63b8ff" stroke="#63b8ff" points="398.79,-76.07 388.53,-78.69 398.18,-83.05 398.79,-76.07"/>
</a>
</g>
</g>
<!-- Node9 -->
<g id="Node000009" class="node">
<title>Node9</title>
<g id="a_Node000009"><a xlink:href="classnix_1_1ref.html" target="_top" xlink:title=" ">
<polygon fill="white" stroke="#666666" points="406,-46.25 288,-46.25 288,0 406,0 406,-46.25"/>
<text text-anchor="start" x="296" y="-32.75" font-family="Helvetica,sans-Serif" font-size="10.00">nix::ref&lt; nix::Pool</text>
<text text-anchor="start" x="296" y="-20" font-family="Helvetica,sans-Serif" font-size="10.00">&lt; nix::RemoteStore::</text>
<text text-anchor="middle" x="347" y="-7.25" font-family="Helvetica,sans-Serif" font-size="10.00">Connection &gt; &gt;</text>
</a>
</g>
</g>
<!-- Node9&#45;&gt;Node2 -->
<g id="edge10_Node000002_Node000009" class="edge">
<title>Node9&#45;&gt;Node2</title>
<g id="a_edge10_Node000002_Node000009"><a xlink:title=" ">
<path fill="none" stroke="#9a32cd" stroke-dasharray="5,2" d="M417.26,-42.81C439.25,-49.48 463.54,-57.3 485.5,-65.38 493.67,-68.38 495.46,-69.77 503.5,-73.12 510.75,-76.16 518.63,-79.38 525.92,-82.33"/>
<polygon fill="#9a32cd" stroke="#9a32cd" points="418.37,-39.49 407.79,-39.96 416.36,-46.19 418.37,-39.49"/>
</a>
</g>
<text text-anchor="middle" x="454.75" y="-68.62" font-family="Helvetica,sans-Serif" font-size="10.00" fill="grey"> connections</text>
</g>
<!-- Node10 -->
<g id="Node000010" class="node">
<title>Node10</title>
<g id="a_Node000010"><a xlink:title=" ">
<polygon fill="white" stroke="#bfbfbf" points="575.75,-64.5 532,-64.5 532,-43.75 575.75,-43.75 575.75,-64.5"/>
<text text-anchor="middle" x="553.88" y="-51" font-family="Helvetica,sans-Serif" font-size="10.00">string</text>
</a>
</g>
</g>
<!-- Node10&#45;&gt;Node1 -->
<g id="edge11_Node000001_Node000010" class="edge">
<title>Node10&#45;&gt;Node1</title>
<g id="a_edge11_Node000001_Node000010"><a xlink:title=" ">
<path fill="none" stroke="#9a32cd" stroke-dasharray="5,2" d="M587.6,-54.12C613.47,-54.12 649.7,-54.12 677.37,-54.12"/>
<polygon fill="#9a32cd" stroke="#9a32cd" points="587.68,-50.63 577.68,-54.13 587.68,-57.63 587.68,-50.63"/>
</a>
</g>
<text text-anchor="middle" x="641" y="-57.38" font-family="Helvetica,sans-Serif" font-size="10.00" fill="grey"> host</text>
</g>
<!-- Node11 -->
<g id="Node000011" class="node">
<title>Node11</title>
<g id="a_Node000011"><a xlink:href="classnix_1_1SSHMaster.html" target="_top" xlink:title=" ">
<polygon fill="white" stroke="#bfbfbf" points="599,-25.5 508.75,-25.5 508.75,-4.75 599,-4.75 599,-25.5"/>
<text text-anchor="middle" x="553.88" y="-12" font-family="Helvetica,sans-Serif" font-size="10.00">nix::SSHMaster</text>
</a>
</g>
</g>
<!-- Node11&#45;&gt;Node1 -->
<g id="edge12_Node000001_Node000011" class="edge">
<title>Node11&#45;&gt;Node1</title>
<g id="a_edge12_Node000001_Node000011"><a xlink:title=" ">
<path fill="none" stroke="#9a32cd" stroke-dasharray="5,2" d="M610.26,-26.1C626.28,-29.48 643.76,-33.38 659.75,-37.38 666.87,-39.16 674.43,-41.21 681.66,-43.27"/>
<polygon fill="#9a32cd" stroke="#9a32cd" points="611.42,-22.76 600.92,-24.15 609.99,-29.62 611.42,-22.76"/>
</a>
</g>
<text text-anchor="middle" x="641" y="-40.62" font-family="Helvetica,sans-Serif" font-size="10.00" fill="grey"> master</text>
</g>
</g>
</svg>
