<?xml version="1.0" encoding="UTF-8" standalone="no"?>
<!DOCTYPE svg PUBLIC "-//W3C//DTD SVG 1.1//EN"
 "http://www.w3.org/Graphics/SVG/1.1/DTD/svg11.dtd">
<!-- Generated by graphviz version 12.2.1 (0)
 -->
<!-- Title: nix::TrivialExpressionTest Pages: 1 -->
<svg width="209pt" height="142pt"
 viewBox="0.00 0.00 208.50 142.25" xmlns="http://www.w3.org/2000/svg" xmlns:xlink="http://www.w3.org/1999/xlink">
<g id="graph0" class="graph" transform="scale(1 1) rotate(0) translate(4 138.25)">
<title>nix::TrivialExpressionTest</title>
<!-- Node1 -->
<g id="Node000001" class="node">
<title>Node1</title>
<g id="a_Node000001"><a xlink:title=" ">
<polygon fill="#999999" stroke="#666666" points="169.75,-77.5 30.75,-77.5 30.75,-56.75 169.75,-56.75 169.75,-77.5"/>
<text text-anchor="middle" x="100.25" y="-64" font-family="Helvetica,sans-Serif" font-size="10.00">nix::TrivialExpressionTest</text>
</a>
</g>
</g>
<!-- Node3 -->
<g id="Node000003" class="node">
<title>Node3</title>
<g id="a_Node000003"><a xlink:href="classnix_1_1AttrSetMergeTrvialExpressionTest.html" target="_top" xlink:title=" ">
<polygon fill="white" stroke="#bfbfbf" points="200.5,-20.75 0,-20.75 0,0 200.5,0 200.5,-20.75"/>
<text text-anchor="middle" x="100.25" y="-7.25" font-family="Helvetica,sans-Serif" font-size="10.00">nix::AttrSetMergeTrvialExpressionTest</text>
</a>
</g>
</g>
<!-- Node1&#45;&gt;Node3 -->
<g id="edge2_Node000001_Node000003" class="edge">
<title>Node1&#45;&gt;Node3</title>
<g id="a_edge2_Node000001_Node000003"><a xlink:title=" ">
<path fill="none" stroke="#63b8ff" d="M100.25,-44.88C100.25,-36.66 100.25,-27.68 100.25,-21.08"/>
<polygon fill="#63b8ff" stroke="#63b8ff" points="96.75,-44.82 100.25,-54.82 103.75,-44.82 96.75,-44.82"/>
</a>
</g>
</g>
<!-- Node2 -->
<g id="Node000002" class="node">
<title>Node2</title>
<g id="a_Node000002"><a xlink:title=" ">
<polygon fill="white" stroke="#bfbfbf" points="136,-134.25 64.5,-134.25 64.5,-113.5 136,-113.5 136,-134.25"/>
<text text-anchor="middle" x="100.25" y="-120.75" font-family="Helvetica,sans-Serif" font-size="10.00">LibExprTest</text>
</a>
</g>
</g>
<!-- Node2&#45;&gt;Node1 -->
<g id="edge1_Node000001_Node000002" class="edge">
<title>Node2&#45;&gt;Node1</title>
<g id="a_edge1_Node000001_Node000002"><a xlink:title=" ">
<path fill="none" stroke="#63b8ff" d="M100.25,-101.63C100.25,-93.41 100.25,-84.43 100.25,-77.83"/>
<polygon fill="#63b8ff" stroke="#63b8ff" points="96.75,-101.57 100.25,-111.57 103.75,-101.57 96.75,-101.57"/>
</a>
</g>
</g>
</g>
</svg>
