<?xml version="1.0" encoding="UTF-8" standalone="no"?>
<!DOCTYPE svg PUBLIC "-//W3C//DTD SVG 1.1//EN"
 "http://www.w3.org/Graphics/SVG/1.1/DTD/svg11.dtd">
<!-- Generated by graphviz version 12.2.1 (0)
 -->
<!-- Title: nix::BinaryCacheStore Pages: 1 -->
<svg width="475pt" height="269pt"
 viewBox="0.00 0.00 474.50 268.50" xmlns="http://www.w3.org/2000/svg" xmlns:xlink="http://www.w3.org/1999/xlink">
<g id="graph0" class="graph" transform="scale(1 1) rotate(0) translate(4 264.5)">
<title>nix::BinaryCacheStore</title>
<!-- Node1 -->
<g id="Node000001" class="node">
<title>Node1</title>
<g id="a_Node000001"><a xlink:title=" ">
<polygon fill="#999999" stroke="#666666" points="299.5,-77.5 175.5,-77.5 175.5,-56.75 299.5,-56.75 299.5,-77.5"/>
<text text-anchor="middle" x="237.5" y="-64" font-family="Helvetica,sans-Serif" font-size="10.00">nix::BinaryCacheStore</text>
</a>
</g>
</g>
<!-- Node5 -->
<g id="Node000005" class="node">
<title>Node5</title>
<g id="a_Node000005"><a xlink:href="classnix_1_1HttpBinaryCacheStore.html" target="_top" xlink:title=" ">
<polygon fill="white" stroke="#bfbfbf" points="145,-20.75 0,-20.75 0,0 145,0 145,-20.75"/>
<text text-anchor="middle" x="72.5" y="-7.25" font-family="Helvetica,sans-Serif" font-size="10.00">nix::HttpBinaryCacheStore</text>
</a>
</g>
</g>
<!-- Node1&#45;&gt;Node5 -->
<g id="edge5_Node000001_Node000005" class="edge">
<title>Node1&#45;&gt;Node5</title>
<g id="a_edge5_Node000001_Node000005"><a xlink:title=" ">
<path fill="none" stroke="#63b8ff" d="M197.25,-52.77C167.83,-43.01 128.58,-29.98 102.02,-21.17"/>
<polygon fill="#63b8ff" stroke="#63b8ff" points="195.97,-56.03 206.56,-55.86 198.18,-49.39 195.97,-56.03"/>
</a>
</g>
</g>
<!-- Node6 -->
<g id="Node000006" class="node">
<title>Node6</title>
<g id="a_Node000006"><a xlink:href="classnix_1_1LocalBinaryCacheStore.html" target="_top" xlink:title=" ">
<polygon fill="white" stroke="#bfbfbf" points="312.25,-20.75 162.75,-20.75 162.75,0 312.25,0 312.25,-20.75"/>
<text text-anchor="middle" x="237.5" y="-7.25" font-family="Helvetica,sans-Serif" font-size="10.00">nix::LocalBinaryCacheStore</text>
</a>
</g>
</g>
<!-- Node1&#45;&gt;Node6 -->
<g id="edge6_Node000001_Node000006" class="edge">
<title>Node1&#45;&gt;Node6</title>
<g id="a_edge6_Node000001_Node000006"><a xlink:title=" ">
<path fill="none" stroke="#63b8ff" d="M237.5,-44.88C237.5,-36.66 237.5,-27.68 237.5,-21.08"/>
<polygon fill="#63b8ff" stroke="#63b8ff" points="234,-44.82 237.5,-54.82 241,-44.82 234,-44.82"/>
</a>
</g>
</g>
<!-- Node7 -->
<g id="Node000007" class="node">
<title>Node7</title>
<g id="a_Node000007"><a xlink:href="classnix_1_1S3BinaryCacheStore.html" target="_top" xlink:title=" ">
<polygon fill="white" stroke="#bfbfbf" points="466.5,-20.75 330.5,-20.75 330.5,0 466.5,0 466.5,-20.75"/>
<text text-anchor="middle" x="398.5" y="-7.25" font-family="Helvetica,sans-Serif" font-size="10.00">nix::S3BinaryCacheStore</text>
</a>
</g>
</g>
<!-- Node1&#45;&gt;Node7 -->
<g id="edge7_Node000001_Node000007" class="edge">
<title>Node1&#45;&gt;Node7</title>
<g id="a_edge7_Node000001_Node000007"><a xlink:title=" ">
<path fill="none" stroke="#63b8ff" d="M277.15,-52.64C305.82,-42.89 343.9,-29.94 369.69,-21.17"/>
<polygon fill="#63b8ff" stroke="#63b8ff" points="276.06,-49.32 267.72,-55.85 278.31,-55.94 276.06,-49.32"/>
</a>
</g>
</g>
<!-- Node2 -->
<g id="Node000002" class="node">
<title>Node2</title>
<g id="a_Node000002"><a xlink:href="classnix_1_1Store.html" target="_top" xlink:title=" ">
<polygon fill="white" stroke="#bfbfbf" points="268.75,-191 206.25,-191 206.25,-170.25 268.75,-170.25 268.75,-191"/>
<text text-anchor="middle" x="237.5" y="-177.5" font-family="Helvetica,sans-Serif" font-size="10.00">nix::Store</text>
</a>
</g>
</g>
<!-- Node2&#45;&gt;Node1 -->
<g id="edge1_Node000001_Node000002" class="edge">
<title>Node2&#45;&gt;Node1</title>
<g id="a_edge1_Node000001_Node000002"><a xlink:title=" ">
<path fill="none" stroke="#63b8ff" d="M229.23,-159.25C226.51,-151.55 223.85,-142.63 222.5,-134.25 221.03,-125.15 221.03,-122.6 222.5,-113.5 224.53,-100.89 229.55,-87.03 233.22,-77.99"/>
<polygon fill="#63b8ff" stroke="#63b8ff" points="225.86,-160.24 232.68,-168.35 232.4,-157.76 225.86,-160.24"/>
</a>
</g>
</g>
<!-- Node4 -->
<g id="Node000004" class="node">
<title>Node4</title>
<g id="a_Node000004"><a xlink:href="structnix_1_1LogStore.html" target="_top" xlink:title=" ">
<polygon fill="white" stroke="#bfbfbf" points="311.38,-134.25 231.62,-134.25 231.62,-113.5 311.38,-113.5 311.38,-134.25"/>
<text text-anchor="middle" x="271.5" y="-120.75" font-family="Helvetica,sans-Serif" font-size="10.00">nix::LogStore</text>
</a>
</g>
</g>
<!-- Node2&#45;&gt;Node4 -->
<g id="edge4_Node000004_Node000002" class="edge">
<title>Node2&#45;&gt;Node4</title>
<g id="a_edge4_Node000004_Node000002"><a xlink:title=" ">
<path fill="none" stroke="#63b8ff" d="M249.62,-160.1C255,-151.45 261.09,-141.64 265.47,-134.58"/>
<polygon fill="#63b8ff" stroke="#63b8ff" points="246.68,-158.21 244.38,-168.55 252.63,-161.9 246.68,-158.21"/>
</a>
</g>
</g>
<!-- Node3 -->
<g id="Node000003" class="node">
<title>Node3</title>
<g id="a_Node000003"><a xlink:title=" ">
<polygon fill="white" stroke="#bfbfbf" points="295.38,-260.5 179.62,-260.5 179.62,-227 295.38,-227 295.38,-260.5"/>
<text text-anchor="start" x="187.62" y="-247" font-family="Helvetica,sans-Serif" font-size="10.00">std::enable_shared</text>
<text text-anchor="middle" x="237.5" y="-234.25" font-family="Helvetica,sans-Serif" font-size="10.00">_from_this&lt; Store &gt;</text>
</a>
</g>
</g>
<!-- Node3&#45;&gt;Node2 -->
<g id="edge2_Node000002_Node000003" class="edge">
<title>Node3&#45;&gt;Node2</title>
<g id="a_edge2_Node000002_Node000003"><a xlink:title=" ">
<path fill="none" stroke="#63b8ff" d="M237.5,-215.19C237.5,-206.71 237.5,-197.92 237.5,-191.47"/>
<polygon fill="#63b8ff" stroke="#63b8ff" points="234,-215.18 237.5,-225.18 241,-215.18 234,-215.18"/>
</a>
</g>
</g>
<!-- Node4&#45;&gt;Node1 -->
<g id="edge3_Node000001_Node000004" class="edge">
<title>Node4&#45;&gt;Node1</title>
<g id="a_edge3_Node000001_Node000004"><a xlink:title=" ">
<path fill="none" stroke="#63b8ff" d="M259.38,-103.35C254,-94.7 247.91,-84.89 243.53,-77.83"/>
<polygon fill="#63b8ff" stroke="#63b8ff" points="256.37,-105.15 264.62,-111.8 262.32,-101.46 256.37,-105.15"/>
</a>
</g>
</g>
</g>
</svg>
