<?xml version="1.0" encoding="UTF-8" standalone="no"?>
<!DOCTYPE svg PUBLIC "-//W3C//DTD SVG 1.1//EN"
 "http://www.w3.org/Graphics/SVG/1.1/DTD/svg11.dtd">
<!-- Generated by graphviz version 12.2.1 (0)
 -->
<!-- Title: nix::RemoteStore Pages: 1 -->
<svg width="612pt" height="191pt"
 viewBox="0.00 0.00 612.25 190.88" xmlns="http://www.w3.org/2000/svg" xmlns:xlink="http://www.w3.org/1999/xlink">
<g id="graph0" class="graph" transform="scale(1 1) rotate(0) translate(4 186.88)">
<title>nix::RemoteStore</title>
<!-- Node1 -->
<g id="Node000001" class="node">
<title>Node1</title>
<g id="a_Node000001"><a xlink:title=" ">
<polygon fill="#999999" stroke="#666666" points="604.25,-107.5 503.5,-107.5 503.5,-86.75 604.25,-86.75 604.25,-107.5"/>
<text text-anchor="middle" x="553.88" y="-94" font-family="Helvetica,sans-Serif" font-size="10.00">nix::RemoteStore</text>
</a>
</g>
</g>
<!-- Node2 -->
<g id="Node000002" class="node">
<title>Node2</title>
<g id="a_Node000002"><a xlink:href="classnix_1_1Store.html" target="_top" xlink:title=" ">
<polygon fill="white" stroke="#bfbfbf" points="251,-124.5 188.5,-124.5 188.5,-103.75 251,-103.75 251,-124.5"/>
<text text-anchor="middle" x="219.75" y="-111" font-family="Helvetica,sans-Serif" font-size="10.00">nix::Store</text>
</a>
</g>
</g>
<!-- Node2&#45;&gt;Node1 -->
<g id="edge1_Node000001_Node000002" class="edge">
<title>Node2&#45;&gt;Node1</title>
<g id="a_edge1_Node000001_Node000002"><a xlink:title=" ">
<path fill="none" stroke="#63b8ff" d="M262.53,-127.97C270.88,-130.15 279.65,-132.04 288,-133.12 375.27,-144.42 400.13,-140.47 485.5,-119.12 497.91,-116.02 511.36,-111.81 522.95,-107.9"/>
<polygon fill="#63b8ff" stroke="#63b8ff" points="263.52,-124.61 252.95,-125.27 261.62,-131.35 263.52,-124.61"/>
</a>
</g>
</g>
<!-- Node6 -->
<g id="Node000006" class="node">
<title>Node6</title>
<g id="a_Node000006"><a xlink:href="structnix_1_1GcStore.html" target="_top" xlink:title=" ">
<polygon fill="white" stroke="#666666" points="384.62,-124.5 309.38,-124.5 309.38,-103.75 384.62,-103.75 384.62,-124.5"/>
<text text-anchor="middle" x="347" y="-111" font-family="Helvetica,sans-Serif" font-size="10.00">nix::GcStore</text>
</a>
</g>
</g>
<!-- Node2&#45;&gt;Node6 -->
<g id="edge6_Node000006_Node000002" class="edge">
<title>Node2&#45;&gt;Node6</title>
<g id="a_edge6_Node000006_Node000002"><a xlink:title=" ">
<path fill="none" stroke="#63b8ff" d="M262.47,-114.12C277.51,-114.12 294.37,-114.12 308.98,-114.12"/>
<polygon fill="#63b8ff" stroke="#63b8ff" points="262.9,-110.63 252.9,-114.13 262.9,-117.63 262.9,-110.63"/>
</a>
</g>
</g>
<!-- Node7 -->
<g id="Node000007" class="node">
<title>Node7</title>
<g id="a_Node000007"><a xlink:href="structnix_1_1LogStore.html" target="_top" xlink:title=" ">
<polygon fill="white" stroke="#bfbfbf" points="386.88,-85.5 307.12,-85.5 307.12,-64.75 386.88,-64.75 386.88,-85.5"/>
<text text-anchor="middle" x="347" y="-72" font-family="Helvetica,sans-Serif" font-size="10.00">nix::LogStore</text>
</a>
</g>
</g>
<!-- Node2&#45;&gt;Node7 -->
<g id="edge8_Node000007_Node000002" class="edge">
<title>Node2&#45;&gt;Node7</title>
<g id="a_edge8_Node000007_Node000002"><a xlink:title=" ">
<path fill="none" stroke="#63b8ff" d="M262.03,-101.27C277.97,-96.31 296,-90.69 311.26,-85.94"/>
<polygon fill="#63b8ff" stroke="#63b8ff" points="261.34,-97.82 252.83,-104.13 263.42,-104.5 261.34,-97.82"/>
</a>
</g>
</g>
<!-- Node3 -->
<g id="Node000003" class="node">
<title>Node3</title>
<g id="a_Node000003"><a xlink:title=" ">
<polygon fill="white" stroke="#bfbfbf" points="120.25,-182.88 4.5,-182.88 4.5,-149.38 120.25,-149.38 120.25,-182.88"/>
<text text-anchor="start" x="12.5" y="-169.38" font-family="Helvetica,sans-Serif" font-size="10.00">std::enable_shared</text>
<text text-anchor="middle" x="62.38" y="-156.62" font-family="Helvetica,sans-Serif" font-size="10.00">_from_this&lt; Store &gt;</text>
</a>
</g>
</g>
<!-- Node3&#45;&gt;Node2 -->
<g id="edge2_Node000002_Node000003" class="edge">
<title>Node3&#45;&gt;Node2</title>
<g id="a_edge2_Node000002_Node000003"><a xlink:title=" ">
<path fill="none" stroke="#63b8ff" d="M127.52,-145.43C141.69,-140.79 156.62,-135.84 170.5,-131.12 176.3,-129.16 182.48,-127.01 188.42,-124.93"/>
<polygon fill="#63b8ff" stroke="#63b8ff" points="126.71,-142.02 118.29,-148.45 128.89,-148.67 126.71,-142.02"/>
</a>
</g>
</g>
<!-- Node4 -->
<g id="Node000004" class="node">
<title>Node4</title>
<g id="a_Node000004"><a xlink:href="classnix_1_1Sync.html" target="_top" xlink:title=" ">
<polygon fill="white" stroke="#666666" points="124.75,-130.88 0,-130.88 0,-97.38 124.75,-97.38 124.75,-130.88"/>
<text text-anchor="start" x="8" y="-117.38" font-family="Helvetica,sans-Serif" font-size="10.00">nix::Sync&lt; nix::Store</text>
<text text-anchor="middle" x="62.38" y="-104.62" font-family="Helvetica,sans-Serif" font-size="10.00">::State, AsyncMutex &gt;</text>
</a>
</g>
</g>
<!-- Node4&#45;&gt;Node2 -->
<g id="edge3_Node000002_Node000004" class="edge">
<title>Node4&#45;&gt;Node2</title>
<g id="a_edge3_Node000002_Node000004"><a xlink:title=" ">
<path fill="none" stroke="#9a32cd" stroke-dasharray="5,2" d="M136.52,-114.12C154.77,-114.12 173.36,-114.12 188.24,-114.12"/>
<polygon fill="#9a32cd" stroke="#9a32cd" points="136.74,-110.63 126.74,-114.13 136.74,-117.63 136.74,-110.63"/>
</a>
</g>
<text text-anchor="middle" x="156.62" y="-117.38" font-family="Helvetica,sans-Serif" font-size="10.00" fill="grey"> state</text>
</g>
<!-- Node5 -->
<g id="Node000005" class="node">
<title>Node5</title>
<g id="a_Node000005"><a xlink:href="structnix_1_1Store_1_1Stats.html" target="_top" xlink:title=" ">
<polygon fill="white" stroke="#bfbfbf" points="113.12,-78.88 11.62,-78.88 11.62,-45.38 113.12,-45.38 113.12,-78.88"/>
<text text-anchor="start" x="19.62" y="-65.38" font-family="Helvetica,sans-Serif" font-size="10.00">nix::Store::Stats&lt;</text>
<text text-anchor="middle" x="62.38" y="-52.62" font-family="Helvetica,sans-Serif" font-size="10.00"> std::atomic &gt;</text>
</a>
</g>
</g>
<!-- Node5&#45;&gt;Node2 -->
<g id="edge4_Node000002_Node000005" class="edge">
<title>Node5&#45;&gt;Node2</title>
<g id="a_edge4_Node000002_Node000005"><a xlink:title=" ">
<path fill="none" stroke="#9a32cd" stroke-dasharray="5,2" d="M124.35,-82C139.45,-86.97 155.57,-92.33 170.5,-97.38 176.21,-99.31 182.29,-101.39 188.15,-103.42"/>
<polygon fill="#9a32cd" stroke="#9a32cd" points="125.6,-78.73 115.01,-78.93 123.41,-85.38 125.6,-78.73"/>
</a>
</g>
<text text-anchor="middle" x="156.62" y="-100.62" font-family="Helvetica,sans-Serif" font-size="10.00" fill="grey"> stats</text>
</g>
<!-- Node6&#45;&gt;Node1 -->
<g id="edge5_Node000001_Node000006" class="edge">
<title>Node6&#45;&gt;Node1</title>
<g id="a_edge5_Node000001_Node000006"><a xlink:title=" ">
<path fill="none" stroke="#63b8ff" d="M396.48,-110.1C428.7,-107.43 470.89,-103.93 503.32,-101.24"/>
<polygon fill="#63b8ff" stroke="#63b8ff" points="396.29,-106.61 386.61,-110.92 396.86,-113.58 396.29,-106.61"/>
</a>
</g>
</g>
<!-- Node7&#45;&gt;Node1 -->
<g id="edge7_Node000001_Node000007" class="edge">
<title>Node7&#45;&gt;Node1</title>
<g id="a_edge7_Node000001_Node000007"><a xlink:title=" ">
<path fill="none" stroke="#63b8ff" d="M398.32,-80.53C430.22,-83.95 471.32,-88.37 503.11,-91.78"/>
<polygon fill="#63b8ff" stroke="#63b8ff" points="398.84,-77.06 388.52,-79.48 398.09,-84.02 398.84,-77.06"/>
</a>
</g>
</g>
<!-- Node8 -->
<g id="Node000008" class="node">
<title>Node8</title>
<g id="a_Node000008"><a xlink:href="classnix_1_1ref.html" target="_top" xlink:title=" ">
<polygon fill="white" stroke="#666666" points="406,-46.25 288,-46.25 288,0 406,0 406,-46.25"/>
<text text-anchor="start" x="296" y="-32.75" font-family="Helvetica,sans-Serif" font-size="10.00">nix::ref&lt; nix::Pool</text>
<text text-anchor="start" x="296" y="-20" font-family="Helvetica,sans-Serif" font-size="10.00">&lt; nix::RemoteStore::</text>
<text text-anchor="middle" x="347" y="-7.25" font-family="Helvetica,sans-Serif" font-size="10.00">Connection &gt; &gt;</text>
</a>
</g>
</g>
<!-- Node8&#45;&gt;Node1 -->
<g id="edge9_Node000001_Node000008" class="edge">
<title>Node8&#45;&gt;Node1</title>
<g id="a_edge9_Node000001_Node000008"><a xlink:title=" ">
<path fill="none" stroke="#9a32cd" stroke-dasharray="5,2" d="M417.34,-43.11C439.34,-49.93 463.61,-57.98 485.5,-66.38 500.99,-72.32 517.97,-80.08 531.02,-86.32"/>
<polygon fill="#9a32cd" stroke="#9a32cd" points="418.45,-39.79 407.86,-40.2 416.4,-46.48 418.45,-39.79"/>
</a>
</g>
<text text-anchor="middle" x="454.75" y="-69.62" font-family="Helvetica,sans-Serif" font-size="10.00" fill="grey"> connections</text>
</g>
</g>
</svg>
