<?xml version="1.0" encoding="UTF-8" standalone="no"?>
<!DOCTYPE svg PUBLIC "-//W3C//DTD SVG 1.1//EN"
 "http://www.w3.org/Graphics/SVG/1.1/DTD/svg11.dtd">
<!-- Generated by graphviz version 12.2.1 (0)
 -->
<!-- Title: nix::DynDerivationTest Pages: 1 -->
<svg width="312pt" height="272pt"
 viewBox="0.00 0.00 311.50 271.50" xmlns="http://www.w3.org/2000/svg" xmlns:xlink="http://www.w3.org/1999/xlink">
<g id="graph0" class="graph" transform="scale(1 1) rotate(0) translate(4 267.5)">
<title>nix::DynDerivationTest</title>
<!-- Node1 -->
<g id="Node000001" class="node">
<title>Node1</title>
<g id="a_Node000001"><a xlink:title=" ">
<polygon fill="#999999" stroke="#666666" points="208.12,-20.75 81.12,-20.75 81.12,0 208.12,0 208.12,-20.75"/>
<text text-anchor="middle" x="144.62" y="-7.25" font-family="Helvetica,sans-Serif" font-size="10.00">nix::DynDerivationTest</text>
</a>
</g>
</g>
<!-- Node2 -->
<g id="Node000002" class="node">
<title>Node2</title>
<g id="a_Node000002"><a xlink:href="classnix_1_1DerivationTest.html" target="_top" xlink:title=" ">
<polygon fill="white" stroke="#bfbfbf" points="198.38,-78.5 90.88,-78.5 90.88,-57.75 198.38,-57.75 198.38,-78.5"/>
<text text-anchor="middle" x="144.62" y="-65" font-family="Helvetica,sans-Serif" font-size="10.00">nix::DerivationTest</text>
</a>
</g>
</g>
<!-- Node2&#45;&gt;Node1 -->
<g id="edge1_Node000001_Node000002" class="edge">
<title>Node2&#45;&gt;Node1</title>
<g id="a_edge1_Node000001_Node000002"><a xlink:title=" ">
<path fill="none" stroke="#63b8ff" d="M144.62,-46.18C144.62,-37.52 144.62,-27.9 144.62,-20.97"/>
<polygon fill="#63b8ff" stroke="#63b8ff" points="141.13,-45.9 144.63,-55.9 148.13,-45.9 141.13,-45.9"/>
</a>
</g>
</g>
<!-- Node3 -->
<g id="Node000003" class="node">
<title>Node3</title>
<g id="a_Node000003"><a xlink:title=" ">
<polygon fill="white" stroke="#bfbfbf" points="75.25,-148 0,-148 0,-127.25 75.25,-127.25 75.25,-148"/>
<text text-anchor="middle" x="37.62" y="-134.5" font-family="Helvetica,sans-Serif" font-size="10.00">LibStoreTest</text>
</a>
</g>
</g>
<!-- Node3&#45;&gt;Node2 -->
<g id="edge2_Node000002_Node000003" class="edge">
<title>Node3&#45;&gt;Node2</title>
<g id="a_edge2_Node000002_Node000003"><a xlink:title=" ">
<path fill="none" stroke="#63b8ff" d="M62.59,-120.88C83.1,-107.94 111.54,-90 128.97,-79"/>
<polygon fill="#63b8ff" stroke="#63b8ff" points="60.83,-117.85 54.24,-126.15 64.56,-123.77 60.83,-117.85"/>
</a>
</g>
</g>
<!-- Node4 -->
<g id="Node000004" class="node">
<title>Node4</title>
<g id="a_Node000004"><a xlink:href="structnix_1_1FeatureSettings.html" target="_top" xlink:title=" ">
<polygon fill="white" stroke="#bfbfbf" points="206.38,-148 92.88,-148 92.88,-127.25 206.38,-127.25 206.38,-148"/>
<text text-anchor="middle" x="149.62" y="-134.5" font-family="Helvetica,sans-Serif" font-size="10.00">nix::FeatureSettings</text>
</a>
</g>
</g>
<!-- Node4&#45;&gt;Node2 -->
<g id="edge3_Node000002_Node000004" class="edge">
<title>Node4&#45;&gt;Node2</title>
<g id="a_edge3_Node000002_Node000004"><a xlink:title=" ">
<path fill="none" stroke="#9a32cd" stroke-dasharray="5,2" d="M146.72,-115.41C146.5,-113.33 146.29,-111.25 146.12,-109.25 145.27,-98.83 144.9,-86.84 144.74,-78.71"/>
<polygon fill="#9a32cd" stroke="#9a32cd" points="143.24,-115.78 147.96,-125.26 150.19,-114.9 143.24,-115.78"/>
</a>
</g>
<text text-anchor="middle" x="187.38" y="-99.75" font-family="Helvetica,sans-Serif" font-size="10.00" fill="grey"> mockXpSettings</text>
</g>
<!-- Node5 -->
<g id="Node000005" class="node">
<title>Node5</title>
<g id="a_Node000005"><a xlink:href="classnix_1_1Config.html" target="_top" xlink:title=" ">
<polygon fill="white" stroke="#666666" points="183.5,-205.75 115.75,-205.75 115.75,-185 183.5,-185 183.5,-205.75"/>
<text text-anchor="middle" x="149.62" y="-192.25" font-family="Helvetica,sans-Serif" font-size="10.00">nix::Config</text>
</a>
</g>
</g>
<!-- Node5&#45;&gt;Node4 -->
<g id="edge4_Node000004_Node000005" class="edge">
<title>Node5&#45;&gt;Node4</title>
<g id="a_edge4_Node000004_Node000005"><a xlink:title=" ">
<path fill="none" stroke="#63b8ff" d="M149.62,-173.43C149.62,-164.77 149.62,-155.15 149.62,-148.22"/>
<polygon fill="#63b8ff" stroke="#63b8ff" points="146.13,-173.15 149.63,-183.15 153.13,-173.15 146.13,-173.15"/>
</a>
</g>
</g>
<!-- Node6 -->
<g id="Node000006" class="node">
<title>Node6</title>
<g id="a_Node000006"><a xlink:href="classnix_1_1AbstractConfig.html" target="_top" xlink:title=" ">
<polygon fill="white" stroke="#bfbfbf" points="203.75,-263.5 95.5,-263.5 95.5,-242.75 203.75,-242.75 203.75,-263.5"/>
<text text-anchor="middle" x="149.62" y="-250" font-family="Helvetica,sans-Serif" font-size="10.00">nix::AbstractConfig</text>
</a>
</g>
</g>
<!-- Node6&#45;&gt;Node5 -->
<g id="edge5_Node000005_Node000006" class="edge">
<title>Node6&#45;&gt;Node5</title>
<g id="a_edge5_Node000005_Node000006"><a xlink:title=" ">
<path fill="none" stroke="#63b8ff" d="M149.62,-231.18C149.62,-222.52 149.62,-212.9 149.62,-205.97"/>
<polygon fill="#63b8ff" stroke="#63b8ff" points="146.13,-230.9 149.63,-240.9 153.13,-230.9 146.13,-230.9"/>
</a>
</g>
</g>
<!-- Node7 -->
<g id="Node000007" class="node">
<title>Node7</title>
<g id="a_Node000007"><a xlink:title=" ">
<polygon fill="white" stroke="#bfbfbf" points="272.5,-148 228.75,-148 228.75,-127.25 272.5,-127.25 272.5,-148"/>
<text text-anchor="middle" x="250.62" y="-134.5" font-family="Helvetica,sans-Serif" font-size="10.00">string</text>
</a>
</g>
</g>
<!-- Node7&#45;&gt;Node2 -->
<g id="edge6_Node000002_Node000007" class="edge">
<title>Node7&#45;&gt;Node2</title>
<g id="a_edge6_Node000002_Node000007"><a xlink:title=" ">
<path fill="none" stroke="#9a32cd" stroke-dasharray="5,2" d="M243.26,-116.5C239.78,-109.34 234.97,-101.76 228.62,-96.5 219.06,-88.57 207.14,-82.92 195.31,-78.9"/>
<polygon fill="#9a32cd" stroke="#9a32cd" points="239.99,-117.74 247.08,-125.61 246.45,-115.04 239.99,-117.74"/>
</a>
</g>
<text text-anchor="middle" x="271.25" y="-99.75" font-family="Helvetica,sans-Serif" font-size="10.00" fill="grey"> unitTestData</text>
</g>
</g>
</svg>
