<?xml version="1.0" encoding="UTF-8" standalone="no"?>
<!DOCTYPE svg PUBLIC "-//W3C//DTD SVG 1.1//EN"
 "http://www.w3.org/Graphics/SVG/1.1/DTD/svg11.dtd">
<!-- Generated by graphviz version 12.2.1 (0)
 -->
<!-- Title: nix::S3BinaryCacheStore Pages: 1 -->
<svg width="150pt" height="269pt"
 viewBox="0.00 0.00 149.88 268.50" xmlns="http://www.w3.org/2000/svg" xmlns:xlink="http://www.w3.org/1999/xlink">
<g id="graph0" class="graph" transform="scale(1 1) rotate(0) translate(4 264.5)">
<title>nix::S3BinaryCacheStore</title>
<!-- Node1 -->
<g id="Node000001" class="node">
<title>Node1</title>
<g id="a_Node000001"><a xlink:title=" ">
<polygon fill="#999999" stroke="#666666" points="136,-20.75 0,-20.75 0,0 136,0 136,-20.75"/>
<text text-anchor="middle" x="68" y="-7.25" font-family="Helvetica,sans-Serif" font-size="10.00">nix::S3BinaryCacheStore</text>
</a>
</g>
</g>
<!-- Node2 -->
<g id="Node000002" class="node">
<title>Node2</title>
<g id="a_Node000002"><a xlink:href="classnix_1_1BinaryCacheStore.html" target="_top" xlink:title=" ">
<polygon fill="white" stroke="#666666" points="130,-77.5 6,-77.5 6,-56.75 130,-56.75 130,-77.5"/>
<text text-anchor="middle" x="68" y="-64" font-family="Helvetica,sans-Serif" font-size="10.00">nix::BinaryCacheStore</text>
</a>
</g>
</g>
<!-- Node2&#45;&gt;Node1 -->
<g id="edge1_Node000001_Node000002" class="edge">
<title>Node2&#45;&gt;Node1</title>
<g id="a_edge1_Node000001_Node000002"><a xlink:title=" ">
<path fill="none" stroke="#63b8ff" d="M68,-44.88C68,-36.66 68,-27.68 68,-21.08"/>
<polygon fill="#63b8ff" stroke="#63b8ff" points="64.5,-44.82 68,-54.82 71.5,-44.82 64.5,-44.82"/>
</a>
</g>
</g>
<!-- Node3 -->
<g id="Node000003" class="node">
<title>Node3</title>
<g id="a_Node000003"><a xlink:href="classnix_1_1Store.html" target="_top" xlink:title=" ">
<polygon fill="white" stroke="#bfbfbf" points="99.25,-191 36.75,-191 36.75,-170.25 99.25,-170.25 99.25,-191"/>
<text text-anchor="middle" x="68" y="-177.5" font-family="Helvetica,sans-Serif" font-size="10.00">nix::Store</text>
</a>
</g>
</g>
<!-- Node3&#45;&gt;Node2 -->
<g id="edge2_Node000002_Node000003" class="edge">
<title>Node3&#45;&gt;Node2</title>
<g id="a_edge2_Node000002_Node000003"><a xlink:title=" ">
<path fill="none" stroke="#63b8ff" d="M59.73,-159.25C57.01,-151.55 54.35,-142.63 53,-134.25 51.53,-125.15 51.53,-122.6 53,-113.5 55.03,-100.89 60.05,-87.03 63.72,-77.99"/>
<polygon fill="#63b8ff" stroke="#63b8ff" points="56.36,-160.24 63.18,-168.35 62.9,-157.76 56.36,-160.24"/>
</a>
</g>
</g>
<!-- Node5 -->
<g id="Node000005" class="node">
<title>Node5</title>
<g id="a_Node000005"><a xlink:href="structnix_1_1LogStore.html" target="_top" xlink:title=" ">
<polygon fill="white" stroke="#bfbfbf" points="141.88,-134.25 62.12,-134.25 62.12,-113.5 141.88,-113.5 141.88,-134.25"/>
<text text-anchor="middle" x="102" y="-120.75" font-family="Helvetica,sans-Serif" font-size="10.00">nix::LogStore</text>
</a>
</g>
</g>
<!-- Node3&#45;&gt;Node5 -->
<g id="edge5_Node000005_Node000003" class="edge">
<title>Node3&#45;&gt;Node5</title>
<g id="a_edge5_Node000005_Node000003"><a xlink:title=" ">
<path fill="none" stroke="#63b8ff" d="M80.12,-160.1C85.5,-151.45 91.59,-141.64 95.97,-134.58"/>
<polygon fill="#63b8ff" stroke="#63b8ff" points="77.18,-158.21 74.88,-168.55 83.13,-161.9 77.18,-158.21"/>
</a>
</g>
</g>
<!-- Node4 -->
<g id="Node000004" class="node">
<title>Node4</title>
<g id="a_Node000004"><a xlink:title=" ">
<polygon fill="white" stroke="#bfbfbf" points="125.88,-260.5 10.12,-260.5 10.12,-227 125.88,-227 125.88,-260.5"/>
<text text-anchor="start" x="18.12" y="-247" font-family="Helvetica,sans-Serif" font-size="10.00">std::enable_shared</text>
<text text-anchor="middle" x="68" y="-234.25" font-family="Helvetica,sans-Serif" font-size="10.00">_from_this&lt; Store &gt;</text>
</a>
</g>
</g>
<!-- Node4&#45;&gt;Node3 -->
<g id="edge3_Node000003_Node000004" class="edge">
<title>Node4&#45;&gt;Node3</title>
<g id="a_edge3_Node000003_Node000004"><a xlink:title=" ">
<path fill="none" stroke="#63b8ff" d="M68,-215.19C68,-206.71 68,-197.92 68,-191.47"/>
<polygon fill="#63b8ff" stroke="#63b8ff" points="64.5,-215.18 68,-225.18 71.5,-215.18 64.5,-215.18"/>
</a>
</g>
</g>
<!-- Node5&#45;&gt;Node2 -->
<g id="edge4_Node000002_Node000005" class="edge">
<title>Node5&#45;&gt;Node2</title>
<g id="a_edge4_Node000002_Node000005"><a xlink:title=" ">
<path fill="none" stroke="#63b8ff" d="M89.88,-103.35C84.5,-94.7 78.41,-84.89 74.03,-77.83"/>
<polygon fill="#63b8ff" stroke="#63b8ff" points="86.87,-105.15 95.12,-111.8 92.82,-101.46 86.87,-105.15"/>
</a>
</g>
</g>
</g>
</svg>
