<?xml version="1.0" encoding="UTF-8" standalone="no"?>
<!DOCTYPE svg PUBLIC "-//W3C//DTD SVG 1.1//EN"
 "http://www.w3.org/Graphics/SVG/1.1/DTD/svg11.dtd">
<!-- Generated by graphviz version 12.2.1 (0)
 -->
<!-- Title: nix::MixProfileElementMatchers Pages: 1 -->
<svg width="337pt" height="144pt"
 viewBox="0.00 0.00 336.62 144.25" xmlns="http://www.w3.org/2000/svg" xmlns:xlink="http://www.w3.org/1999/xlink">
<g id="graph0" class="graph" transform="scale(1 1) rotate(0) translate(4 140.25)">
<title>nix::MixProfileElementMatchers</title>
<!-- Node1 -->
<g id="Node000001" class="node">
<title>Node1</title>
<g id="a_Node000001"><a xlink:title=" ">
<polygon fill="#999999" stroke="#666666" points="171.25,-78.5 0,-78.5 0,-57.75 171.25,-57.75 171.25,-78.5"/>
<text text-anchor="middle" x="85.62" y="-65" font-family="Helvetica,sans-Serif" font-size="10.00">nix::MixProfileElementMatchers</text>
</a>
</g>
</g>
<!-- Node2 -->
<g id="Node000002" class="node">
<title>Node2</title>
<g id="a_Node000002"><a xlink:href="classnix_1_1Args.html" target="_top" xlink:title=" ">
<polygon fill="white" stroke="#bfbfbf" points="262,-136.25 203.25,-136.25 203.25,-115.5 262,-115.5 262,-136.25"/>
<text text-anchor="middle" x="232.62" y="-122.75" font-family="Helvetica,sans-Serif" font-size="10.00">nix::Args</text>
</a>
</g>
</g>
<!-- Node2&#45;&gt;Node1 -->
<g id="edge1_Node000001_Node000002" class="edge">
<title>Node2&#45;&gt;Node1</title>
<g id="a_edge1_Node000001_Node000002"><a xlink:title=" ">
<path fill="none" stroke="#8b1a1a" d="M195.97,-110.97C169.61,-100.98 134.74,-87.75 111.31,-78.87"/>
<polygon fill="#8b1a1a" stroke="#8b1a1a" points="194.68,-114.23 205.27,-114.5 197.16,-107.68 194.68,-114.23"/>
</a>
</g>
</g>
<!-- Node4 -->
<g id="Node000004" class="node">
<title>Node4</title>
<g id="a_Node000004"><a xlink:href="structnix_1_1Command.html" target="_top" xlink:title=" ">
<polygon fill="white" stroke="#666666" points="276.25,-78.5 189,-78.5 189,-57.75 276.25,-57.75 276.25,-78.5"/>
<text text-anchor="middle" x="232.62" y="-65" font-family="Helvetica,sans-Serif" font-size="10.00">nix::Command</text>
</a>
</g>
</g>
<!-- Node2&#45;&gt;Node4 -->
<g id="edge4_Node000004_Node000002" class="edge">
<title>Node2&#45;&gt;Node4</title>
<g id="a_edge4_Node000004_Node000002"><a xlink:title=" ">
<path fill="none" stroke="#63b8ff" d="M232.62,-103.93C232.62,-95.27 232.62,-85.65 232.62,-78.72"/>
<polygon fill="#63b8ff" stroke="#63b8ff" points="229.13,-103.65 232.63,-113.65 236.13,-103.65 229.13,-103.65"/>
</a>
</g>
</g>
<!-- Node3 -->
<g id="Node000003" class="node">
<title>Node3</title>
<g id="a_Node000003"><a xlink:href="classnix_1_1MultiCommand.html" target="_top" xlink:title=" ">
<polygon fill="white" stroke="#666666" points="328.62,-20.75 216.62,-20.75 216.62,0 328.62,0 328.62,-20.75"/>
<text text-anchor="middle" x="272.62" y="-7.25" font-family="Helvetica,sans-Serif" font-size="10.00">nix::MultiCommand</text>
</a>
</g>
</g>
<!-- Node3&#45;&gt;Node2 -->
<g id="edge2_Node000002_Node000003" class="edge">
<title>Node3&#45;&gt;Node2</title>
<g id="a_edge2_Node000002_Node000003"><a xlink:title=" ">
<path fill="none" stroke="#9a32cd" stroke-dasharray="5,2" d="M282.55,-31.19C288.02,-44.96 292.45,-63.47 285.62,-78.5 278.4,-94.42 262.71,-107.03 250.27,-115.05"/>
<polygon fill="#9a32cd" stroke="#9a32cd" points="285.85,-29.98 278.56,-22.29 279.46,-32.85 285.85,-29.98"/>
</a>
</g>
<text text-anchor="middle" x="306.34" y="-65" font-family="Helvetica,sans-Serif" font-size="10.00" fill="grey"> parent</text>
</g>
<!-- Node4&#45;&gt;Node3 -->
<g id="edge3_Node000003_Node000004" class="edge">
<title>Node4&#45;&gt;Node3</title>
<g id="a_edge3_Node000003_Node000004"><a xlink:title=" ">
<path fill="none" stroke="#63b8ff" d="M246.17,-48.25C252.74,-39.08 260.37,-28.46 265.74,-20.97"/>
<polygon fill="#63b8ff" stroke="#63b8ff" points="243.46,-46.02 240.47,-56.18 249.15,-50.1 243.46,-46.02"/>
</a>
</g>
</g>
</g>
</svg>
