<?xml version="1.0" encoding="UTF-8" standalone="no"?>
<!DOCTYPE svg PUBLIC "-//W3C//DTD SVG 1.1//EN"
 "http://www.w3.org/Graphics/SVG/1.1/DTD/svg11.dtd">
<!-- Generated by graphviz version 12.2.1 (0)
 -->
<!-- Title: nix::VersionedProtoTest&lt; Proto, protocolDir &gt; Pages: 1 -->
<svg width="138pt" height="168pt"
 viewBox="0.00 0.00 138.00 167.75" xmlns="http://www.w3.org/2000/svg" xmlns:xlink="http://www.w3.org/1999/xlink">
<g id="graph0" class="graph" transform="scale(1 1) rotate(0) translate(4 163.75)">
<title>nix::VersionedProtoTest&lt; Proto, protocolDir &gt;</title>
<!-- Node1 -->
<g id="Node000001" class="node">
<title>Node1</title>
<g id="a_Node000001"><a xlink:title=" ">
<polygon fill="#999999" stroke="#666666" points="130,-33.5 0,-33.5 0,0 130,0 130,-33.5"/>
<text text-anchor="start" x="8" y="-20" font-family="Helvetica,sans-Serif" font-size="10.00">nix::VersionedProtoTest</text>
<text text-anchor="middle" x="65" y="-7.25" font-family="Helvetica,sans-Serif" font-size="10.00">&lt; Proto, protocolDir &gt;</text>
</a>
</g>
</g>
<!-- Node2 -->
<g id="Node000002" class="node">
<title>Node2</title>
<g id="a_Node000002"><a xlink:href="classnix_1_1ProtoTest.html" target="_top" xlink:title=" ">
<polygon fill="white" stroke="#bfbfbf" points="125.88,-103 4.12,-103 4.12,-69.5 125.88,-69.5 125.88,-103"/>
<text text-anchor="start" x="12.12" y="-89.5" font-family="Helvetica,sans-Serif" font-size="10.00">nix::ProtoTest&lt; Proto,</text>
<text text-anchor="middle" x="65" y="-76.75" font-family="Helvetica,sans-Serif" font-size="10.00"> protocolDir &gt;</text>
</a>
</g>
</g>
<!-- Node2&#45;&gt;Node1 -->
<g id="edge1_Node000001_Node000002" class="edge">
<title>Node2&#45;&gt;Node1</title>
<g id="a_edge1_Node000001_Node000002"><a xlink:title=" ">
<path fill="none" stroke="#63b8ff" d="M65,-57.81C65,-49.59 65,-40.84 65,-33.63"/>
<polygon fill="#63b8ff" stroke="#63b8ff" points="61.5,-57.74 65,-67.74 68.5,-57.74 61.5,-57.74"/>
</a>
</g>
</g>
<!-- Node3 -->
<g id="Node000003" class="node">
<title>Node3</title>
<g id="a_Node000003"><a xlink:title=" ">
<polygon fill="white" stroke="#bfbfbf" points="102.62,-159.75 27.38,-159.75 27.38,-139 102.62,-139 102.62,-159.75"/>
<text text-anchor="middle" x="65" y="-146.25" font-family="Helvetica,sans-Serif" font-size="10.00">LibStoreTest</text>
</a>
</g>
</g>
<!-- Node3&#45;&gt;Node2 -->
<g id="edge2_Node000002_Node000003" class="edge">
<title>Node3&#45;&gt;Node2</title>
<g id="a_edge2_Node000002_Node000003"><a xlink:title=" ">
<path fill="none" stroke="#63b8ff" d="M65,-127.09C65,-119.35 65,-110.72 65,-103.48"/>
<polygon fill="#63b8ff" stroke="#63b8ff" points="61.5,-127.04 65,-137.04 68.5,-127.04 61.5,-127.04"/>
</a>
</g>
</g>
</g>
</svg>
