<?xml version="1.0" encoding="UTF-8" standalone="no"?>
<!DOCTYPE svg PUBLIC "-//W3C//DTD SVG 1.1//EN"
 "http://www.w3.org/Graphics/SVG/1.1/DTD/svg11.dtd">
<!-- Generated by graphviz version 12.2.1 (0)
 -->
<!-- Title: nix::UDSRemoteStore Pages: 1 -->
<svg width="930pt" height="216pt"
 viewBox="0.00 0.00 929.75 215.88" xmlns="http://www.w3.org/2000/svg" xmlns:xlink="http://www.w3.org/1999/xlink">
<g id="graph0" class="graph" transform="scale(1 1) rotate(0) translate(4 211.88)">
<title>nix::UDSRemoteStore</title>
<!-- Node1 -->
<g id="Node000001" class="node">
<title>Node1</title>
<g id="a_Node000001"><a xlink:title=" ">
<polygon fill="#999999" stroke="#666666" points="921.75,-121.5 800,-121.5 800,-100.75 921.75,-100.75 921.75,-121.5"/>
<text text-anchor="middle" x="860.88" y="-108" font-family="Helvetica,sans-Serif" font-size="10.00">nix::UDSRemoteStore</text>
</a>
</g>
</g>
<!-- Node2 -->
<g id="Node000002" class="node">
<title>Node2</title>
<g id="a_Node000002"><a xlink:href="structnix_1_1IndirectRootStore.html" target="_top" xlink:title=" ">
<polygon fill="white" stroke="#666666" points="763,-147.5 641.25,-147.5 641.25,-126.75 763,-126.75 763,-147.5"/>
<text text-anchor="middle" x="702.12" y="-134" font-family="Helvetica,sans-Serif" font-size="10.00">nix::IndirectRootStore</text>
</a>
</g>
</g>
<!-- Node2&#45;&gt;Node1 -->
<g id="edge1_Node000001_Node000002" class="edge">
<title>Node2&#45;&gt;Node1</title>
<g id="a_edge1_Node000001_Node000002"><a xlink:title=" ">
<path fill="none" stroke="#63b8ff" d="M774.59,-125.27C782.96,-123.88 791.43,-122.48 799.62,-121.12"/>
<polygon fill="#63b8ff" stroke="#63b8ff" points="774.07,-121.81 764.77,-126.9 775.21,-128.72 774.07,-121.81"/>
</a>
</g>
</g>
<!-- Node3 -->
<g id="Node000003" class="node">
<title>Node3</title>
<g id="a_Node000003"><a xlink:href="classnix_1_1LocalFSStore.html" target="_top" xlink:title=" ">
<polygon fill="white" stroke="#bfbfbf" points="603.5,-166.5 504.25,-166.5 504.25,-145.75 603.5,-145.75 603.5,-166.5"/>
<text text-anchor="middle" x="553.88" y="-153" font-family="Helvetica,sans-Serif" font-size="10.00">nix::LocalFSStore</text>
</a>
</g>
</g>
<!-- Node3&#45;&gt;Node2 -->
<g id="edge2_Node000002_Node000003" class="edge">
<title>Node3&#45;&gt;Node2</title>
<g id="a_edge2_Node000002_Node000003"><a xlink:title=" ">
<path fill="none" stroke="#63b8ff" d="M615.34,-148.27C623.81,-147.17 632.51,-146.04 640.97,-144.94"/>
<polygon fill="#63b8ff" stroke="#63b8ff" points="614.95,-144.79 605.48,-149.55 615.85,-151.73 614.95,-144.79"/>
</a>
</g>
</g>
<!-- Node4 -->
<g id="Node000004" class="node">
<title>Node4</title>
<g id="a_Node000004"><a xlink:href="classnix_1_1Store.html" target="_top" xlink:title=" ">
<polygon fill="white" stroke="#bfbfbf" points="251,-149.5 188.5,-149.5 188.5,-128.75 251,-128.75 251,-149.5"/>
<text text-anchor="middle" x="219.75" y="-136" font-family="Helvetica,sans-Serif" font-size="10.00">nix::Store</text>
</a>
</g>
</g>
<!-- Node4&#45;&gt;Node3 -->
<g id="edge3_Node000003_Node000004" class="edge">
<title>Node4&#45;&gt;Node3</title>
<g id="a_edge3_Node000003_Node000004"><a xlink:title=" ">
<path fill="none" stroke="#63b8ff" d="M245.1,-155.92C257.38,-163.38 272.85,-171.32 288,-175.12 373.14,-196.48 398.54,-186.1 485.5,-174.12 496.53,-172.61 508.34,-169.85 518.94,-166.95"/>
<polygon fill="#63b8ff" stroke="#63b8ff" points="247.21,-153.11 236.9,-150.68 243.44,-159.01 247.21,-153.11"/>
</a>
</g>
</g>
<!-- Node8 -->
<g id="Node000008" class="node">
<title>Node8</title>
<g id="a_Node000008"><a xlink:href="structnix_1_1GcStore.html" target="_top" xlink:title=" ">
<polygon fill="white" stroke="#666666" points="384.62,-127.5 309.38,-127.5 309.38,-106.75 384.62,-106.75 384.62,-127.5"/>
<text text-anchor="middle" x="347" y="-114" font-family="Helvetica,sans-Serif" font-size="10.00">nix::GcStore</text>
</a>
</g>
</g>
<!-- Node4&#45;&gt;Node8 -->
<g id="edge8_Node000008_Node000004" class="edge">
<title>Node4&#45;&gt;Node8</title>
<g id="a_edge8_Node000008_Node000004"><a xlink:title=" ">
<path fill="none" stroke="#63b8ff" d="M262.47,-131.8C277.51,-129.15 294.37,-126.19 308.98,-123.63"/>
<polygon fill="#63b8ff" stroke="#63b8ff" points="262.12,-128.3 252.88,-133.48 263.34,-135.2 262.12,-128.3"/>
</a>
</g>
</g>
<!-- Node9 -->
<g id="Node000009" class="node">
<title>Node9</title>
<g id="a_Node000009"><a xlink:href="structnix_1_1LogStore.html" target="_top" xlink:title=" ">
<polygon fill="white" stroke="#bfbfbf" points="386.88,-166.5 307.12,-166.5 307.12,-145.75 386.88,-145.75 386.88,-166.5"/>
<text text-anchor="middle" x="347" y="-153" font-family="Helvetica,sans-Serif" font-size="10.00">nix::LogStore</text>
</a>
</g>
</g>
<!-- Node4&#45;&gt;Node9 -->
<g id="edge10_Node000009_Node000004" class="edge">
<title>Node4&#45;&gt;Node9</title>
<g id="a_edge10_Node000009_Node000004"><a xlink:title=" ">
<path fill="none" stroke="#63b8ff" d="M262.41,-144.78C276.68,-146.72 292.59,-148.88 306.67,-150.79"/>
<polygon fill="#63b8ff" stroke="#63b8ff" points="263.27,-141.36 252.89,-143.49 262.33,-148.3 263.27,-141.36"/>
</a>
</g>
</g>
<!-- Node10 -->
<g id="Node000010" class="node">
<title>Node10</title>
<g id="a_Node000010"><a xlink:href="classnix_1_1RemoteStore.html" target="_top" xlink:title=" ">
<polygon fill="white" stroke="#666666" points="604.25,-109.5 503.5,-109.5 503.5,-88.75 604.25,-88.75 604.25,-109.5"/>
<text text-anchor="middle" x="553.88" y="-96" font-family="Helvetica,sans-Serif" font-size="10.00">nix::RemoteStore</text>
</a>
</g>
</g>
<!-- Node4&#45;&gt;Node10 -->
<g id="edge12_Node000010_Node000004" class="edge">
<title>Node4&#45;&gt;Node10</title>
<g id="a_edge12_Node000010_Node000004"><a xlink:title=" ">
<path fill="none" stroke="#63b8ff" d="M242.73,-121.46C255.21,-112.58 271.59,-102.73 288,-98.12 360.83,-77.67 449.43,-83.92 503.46,-91"/>
<polygon fill="#63b8ff" stroke="#63b8ff" points="240.75,-118.57 234.84,-127.36 244.94,-124.18 240.75,-118.57"/>
</a>
</g>
</g>
<!-- Node5 -->
<g id="Node000005" class="node">
<title>Node5</title>
<g id="a_Node000005"><a xlink:title=" ">
<polygon fill="white" stroke="#bfbfbf" points="120.25,-207.88 4.5,-207.88 4.5,-174.38 120.25,-174.38 120.25,-207.88"/>
<text text-anchor="start" x="12.5" y="-194.38" font-family="Helvetica,sans-Serif" font-size="10.00">std::enable_shared</text>
<text text-anchor="middle" x="62.38" y="-181.62" font-family="Helvetica,sans-Serif" font-size="10.00">_from_this&lt; Store &gt;</text>
</a>
</g>
</g>
<!-- Node5&#45;&gt;Node4 -->
<g id="edge4_Node000004_Node000005" class="edge">
<title>Node5&#45;&gt;Node4</title>
<g id="a_edge4_Node000004_Node000005"><a xlink:title=" ">
<path fill="none" stroke="#63b8ff" d="M127.52,-170.43C141.69,-165.79 156.62,-160.84 170.5,-156.12 176.3,-154.16 182.48,-152.01 188.42,-149.93"/>
<polygon fill="#63b8ff" stroke="#63b8ff" points="126.71,-167.02 118.29,-173.45 128.89,-173.67 126.71,-167.02"/>
</a>
</g>
</g>
<!-- Node6 -->
<g id="Node000006" class="node">
<title>Node6</title>
<g id="a_Node000006"><a xlink:href="classnix_1_1Sync.html" target="_top" xlink:title=" ">
<polygon fill="white" stroke="#666666" points="124.75,-155.88 0,-155.88 0,-122.38 124.75,-122.38 124.75,-155.88"/>
<text text-anchor="start" x="8" y="-142.38" font-family="Helvetica,sans-Serif" font-size="10.00">nix::Sync&lt; nix::Store</text>
<text text-anchor="middle" x="62.38" y="-129.62" font-family="Helvetica,sans-Serif" font-size="10.00">::State, AsyncMutex &gt;</text>
</a>
</g>
</g>
<!-- Node6&#45;&gt;Node4 -->
<g id="edge5_Node000004_Node000006" class="edge">
<title>Node6&#45;&gt;Node4</title>
<g id="a_edge5_Node000004_Node000006"><a xlink:title=" ">
<path fill="none" stroke="#9a32cd" stroke-dasharray="5,2" d="M136.52,-139.12C154.77,-139.12 173.36,-139.12 188.24,-139.12"/>
<polygon fill="#9a32cd" stroke="#9a32cd" points="136.74,-135.63 126.74,-139.13 136.74,-142.63 136.74,-135.63"/>
</a>
</g>
<text text-anchor="middle" x="156.62" y="-142.38" font-family="Helvetica,sans-Serif" font-size="10.00" fill="grey"> state</text>
</g>
<!-- Node7 -->
<g id="Node000007" class="node">
<title>Node7</title>
<g id="a_Node000007"><a xlink:href="structnix_1_1Store_1_1Stats.html" target="_top" xlink:title=" ">
<polygon fill="white" stroke="#bfbfbf" points="113.12,-103.88 11.62,-103.88 11.62,-70.38 113.12,-70.38 113.12,-103.88"/>
<text text-anchor="start" x="19.62" y="-90.38" font-family="Helvetica,sans-Serif" font-size="10.00">nix::Store::Stats&lt;</text>
<text text-anchor="middle" x="62.38" y="-77.62" font-family="Helvetica,sans-Serif" font-size="10.00"> std::atomic &gt;</text>
</a>
</g>
</g>
<!-- Node7&#45;&gt;Node4 -->
<g id="edge6_Node000004_Node000007" class="edge">
<title>Node7&#45;&gt;Node4</title>
<g id="a_edge6_Node000004_Node000007"><a xlink:title=" ">
<path fill="none" stroke="#9a32cd" stroke-dasharray="5,2" d="M124.35,-107C139.45,-111.97 155.57,-117.33 170.5,-122.38 176.21,-124.31 182.29,-126.39 188.15,-128.42"/>
<polygon fill="#9a32cd" stroke="#9a32cd" points="125.6,-103.73 115.01,-103.93 123.41,-110.38 125.6,-103.73"/>
</a>
</g>
<text text-anchor="middle" x="156.62" y="-125.62" font-family="Helvetica,sans-Serif" font-size="10.00" fill="grey"> stats</text>
</g>
<!-- Node8&#45;&gt;Node3 -->
<g id="edge7_Node000003_Node000008" class="edge">
<title>Node8&#45;&gt;Node3</title>
<g id="a_edge7_Node000003_Node000008"><a xlink:title=" ">
<path fill="none" stroke="#63b8ff" d="M396.14,-126.29C428.65,-132.48 471.43,-140.62 504.08,-146.84"/>
<polygon fill="#63b8ff" stroke="#63b8ff" points="397.07,-122.9 386.59,-124.47 395.76,-129.78 397.07,-122.9"/>
</a>
</g>
</g>
<!-- Node8&#45;&gt;Node10 -->
<g id="edge13_Node000010_Node000008" class="edge">
<title>Node8&#45;&gt;Node10</title>
<g id="a_edge13_Node000010_Node000008"><a xlink:title=" ">
<path fill="none" stroke="#63b8ff" d="M396.48,-112.87C428.7,-110.03 470.89,-106.33 503.32,-103.48"/>
<polygon fill="#63b8ff" stroke="#63b8ff" points="396.26,-109.37 386.61,-113.73 396.88,-116.34 396.26,-109.37"/>
</a>
</g>
</g>
<!-- Node9&#45;&gt;Node3 -->
<g id="edge9_Node000003_Node000009" class="edge">
<title>Node9&#45;&gt;Node3</title>
<g id="a_edge9_Node000003_Node000009"><a xlink:title=" ">
<path fill="none" stroke="#63b8ff" d="M398.45,-159.15C406.97,-159.56 415.74,-159.91 424,-160.12 451.32,-160.84 458.18,-160.94 485.5,-160.12 491.47,-159.95 497.74,-159.68 503.95,-159.37"/>
<polygon fill="#63b8ff" stroke="#63b8ff" points="398.71,-155.66 388.55,-158.65 398.36,-162.65 398.71,-155.66"/>
</a>
</g>
</g>
<!-- Node9&#45;&gt;Node10 -->
<g id="edge14_Node000010_Node000009" class="edge">
<title>Node9&#45;&gt;Node10</title>
<g id="a_edge14_Node000010_Node000009"><a xlink:title=" ">
<path fill="none" stroke="#63b8ff" d="M398.51,-144.74C424.63,-138.58 456.93,-130.52 485.5,-122.12 497.83,-118.5 511.27,-114.03 522.87,-109.99"/>
<polygon fill="#63b8ff" stroke="#63b8ff" points="397.77,-141.32 388.83,-147 399.37,-148.13 397.77,-141.32"/>
</a>
</g>
</g>
<!-- Node10&#45;&gt;Node1 -->
<g id="edge11_Node000001_Node000010" class="edge">
<title>Node10&#45;&gt;Node1</title>
<g id="a_edge11_Node000001_Node000010"><a xlink:title=" ">
<path fill="none" stroke="#63b8ff" d="M615.92,-101.53C669.36,-103.63 746.55,-106.67 799.72,-108.76"/>
<polygon fill="#63b8ff" stroke="#63b8ff" points="616.2,-98.04 606.07,-101.14 615.92,-105.03 616.2,-98.04"/>
</a>
</g>
</g>
<!-- Node11 -->
<g id="Node000011" class="node">
<title>Node11</title>
<g id="a_Node000011"><a xlink:href="classnix_1_1ref.html" target="_top" xlink:title=" ">
<polygon fill="white" stroke="#666666" points="406,-46.25 288,-46.25 288,0 406,0 406,-46.25"/>
<text text-anchor="start" x="296" y="-32.75" font-family="Helvetica,sans-Serif" font-size="10.00">nix::ref&lt; nix::Pool</text>
<text text-anchor="start" x="296" y="-20" font-family="Helvetica,sans-Serif" font-size="10.00">&lt; nix::RemoteStore::</text>
<text text-anchor="middle" x="347" y="-7.25" font-family="Helvetica,sans-Serif" font-size="10.00">Connection &gt; &gt;</text>
</a>
</g>
</g>
<!-- Node11&#45;&gt;Node10 -->
<g id="edge15_Node000010_Node000011" class="edge">
<title>Node11&#45;&gt;Node10</title>
<g id="a_edge15_Node000010_Node000011"><a xlink:title=" ">
<path fill="none" stroke="#9a32cd" stroke-dasharray="5,2" d="M417.47,-28.78C439.86,-32.32 464.34,-38.06 485.5,-47.38 508.18,-57.36 530.11,-76.53 542.5,-88.52"/>
<polygon fill="#9a32cd" stroke="#9a32cd" points="418.22,-25.35 407.82,-27.39 417.22,-32.28 418.22,-25.35"/>
</a>
</g>
<text text-anchor="middle" x="454.75" y="-50.62" font-family="Helvetica,sans-Serif" font-size="10.00" fill="grey"> connections</text>
</g>
</g>
</svg>
