<?xml version="1.0" encoding="UTF-8" standalone="no"?>
<!DOCTYPE svg PUBLIC "-//W3C//DTD SVG 1.1//EN"
 "http://www.w3.org/Graphics/SVG/1.1/DTD/svg11.dtd">
<!-- Generated by graphviz version 12.2.1 (0)
 -->
<!-- Title: nix::BaseError Pages: 1 -->
<svg width="251pt" height="168pt"
 viewBox="0.00 0.00 250.62 167.75" xmlns="http://www.w3.org/2000/svg" xmlns:xlink="http://www.w3.org/1999/xlink">
<g id="graph0" class="graph" transform="scale(1 1) rotate(0) translate(4 163.75)">
<title>nix::BaseError</title>
<!-- Node1 -->
<g id="Node000001" class="node">
<title>Node1</title>
<g id="a_Node000001"><a xlink:title=" ">
<polygon fill="#999999" stroke="#666666" points="100.62,-20.75 16.38,-20.75 16.38,0 100.62,0 100.62,-20.75"/>
<text text-anchor="middle" x="58.5" y="-7.25" font-family="Helvetica,sans-Serif" font-size="10.00">nix::BaseError</text>
</a>
</g>
</g>
<!-- Node2 -->
<g id="Node000002" class="node">
<title>Node2</title>
<g id="a_Node000002"><a xlink:title=" ">
<polygon fill="white" stroke="#bfbfbf" points="85,-90.25 0,-90.25 0,-69.5 85,-69.5 85,-90.25"/>
<text text-anchor="middle" x="42.5" y="-76.75" font-family="Helvetica,sans-Serif" font-size="10.00">std::exception</text>
</a>
</g>
</g>
<!-- Node2&#45;&gt;Node1 -->
<g id="edge1_Node000001_Node000002" class="edge">
<title>Node2&#45;&gt;Node1</title>
<g id="a_edge1_Node000001_Node000002"><a xlink:title=" ">
<path fill="none" stroke="#63b8ff" d="M47.43,-58.07C50.36,-45.72 53.93,-30.65 56.21,-21.03"/>
<polygon fill="#63b8ff" stroke="#63b8ff" points="44.04,-57.19 45.14,-67.73 50.85,-58.81 44.04,-57.19"/>
</a>
</g>
</g>
<!-- Node3 -->
<g id="Node000003" class="node">
<title>Node3</title>
<g id="a_Node000003"><a xlink:href="structnix_1_1ErrorInfo.html" target="_top" xlink:title=" ">
<polygon fill="white" stroke="#bfbfbf" points="182,-90.25 103,-90.25 103,-69.5 182,-69.5 182,-90.25"/>
<text text-anchor="middle" x="142.5" y="-76.75" font-family="Helvetica,sans-Serif" font-size="10.00">nix::ErrorInfo</text>
</a>
</g>
</g>
<!-- Node3&#45;&gt;Node1 -->
<g id="edge2_Node000001_Node000003" class="edge">
<title>Node3&#45;&gt;Node1</title>
<g id="a_edge2_Node000001_Node000003"><a xlink:title=" ">
<path fill="none" stroke="#9a32cd" stroke-dasharray="5,2" d="M121.79,-62.23C105.78,-49.37 84.16,-32 70.79,-21.25"/>
<polygon fill="#9a32cd" stroke="#9a32cd" points="119.3,-64.72 129.29,-68.26 123.68,-59.26 119.3,-64.72"/>
</a>
</g>
<text text-anchor="middle" x="116.27" y="-42" font-family="Helvetica,sans-Serif" font-size="10.00" fill="grey"> err</text>
</g>
<!-- Node4 -->
<g id="Node000004" class="node">
<title>Node4</title>
<g id="a_Node000004"><a xlink:href="classnix_1_1HintFmt.html" target="_top" xlink:title=" ">
<polygon fill="white" stroke="#666666" points="127.88,-159.75 51.12,-159.75 51.12,-139 127.88,-139 127.88,-159.75"/>
<text text-anchor="middle" x="89.5" y="-146.25" font-family="Helvetica,sans-Serif" font-size="10.00">nix::HintFmt</text>
</a>
</g>
</g>
<!-- Node4&#45;&gt;Node3 -->
<g id="edge3_Node000003_Node000004" class="edge">
<title>Node4&#45;&gt;Node3</title>
<g id="a_edge3_Node000003_Node000004"><a xlink:title=" ">
<path fill="none" stroke="#9a32cd" stroke-dasharray="5,2" d="M104.05,-129.85C114.04,-117.12 126.9,-100.75 134.92,-90.53"/>
<polygon fill="#9a32cd" stroke="#9a32cd" points="101.45,-127.49 98.03,-137.51 106.96,-131.81 101.45,-127.49"/>
</a>
</g>
<text text-anchor="middle" x="132.75" y="-111.5" font-family="Helvetica,sans-Serif" font-size="10.00" fill="grey"> msg</text>
</g>
<!-- Node5 -->
<g id="Node000005" class="node">
<title>Node5</title>
<g id="a_Node000005"><a xlink:href="classnix_1_1Suggestions.html" target="_top" xlink:title=" ">
<polygon fill="white" stroke="#bfbfbf" points="242.62,-159.75 146.38,-159.75 146.38,-139 242.62,-139 242.62,-159.75"/>
<text text-anchor="middle" x="194.5" y="-146.25" font-family="Helvetica,sans-Serif" font-size="10.00">nix::Suggestions</text>
</a>
</g>
</g>
<!-- Node5&#45;&gt;Node3 -->
<g id="edge4_Node000003_Node000005" class="edge">
<title>Node5&#45;&gt;Node3</title>
<g id="a_edge4_Node000003_Node000005"><a xlink:title=" ">
<path fill="none" stroke="#9a32cd" stroke-dasharray="5,2" d="M180.23,-129.85C170.42,-117.12 157.81,-100.75 149.94,-90.53"/>
<polygon fill="#9a32cd" stroke="#9a32cd" points="177.25,-131.72 186.13,-137.5 182.8,-127.45 177.25,-131.72"/>
</a>
</g>
<text text-anchor="middle" x="203.91" y="-111.5" font-family="Helvetica,sans-Serif" font-size="10.00" fill="grey"> suggestions</text>
</g>
</g>
</svg>
