<?xml version="1.0" encoding="UTF-8" standalone="no"?>
<!DOCTYPE svg PUBLIC "-//W3C//DTD SVG 1.1//EN"
 "http://www.w3.org/Graphics/SVG/1.1/DTD/svg11.dtd">
<!-- Generated by graphviz version 12.2.1 (0)
 -->
<!-- Title: nix::RemoteStore Pages: 1 -->
<svg width="245pt" height="269pt"
 viewBox="0.00 0.00 244.88 268.50" xmlns="http://www.w3.org/2000/svg" xmlns:xlink="http://www.w3.org/1999/xlink">
<g id="graph0" class="graph" transform="scale(1 1) rotate(0) translate(4 264.5)">
<title>nix::RemoteStore</title>
<!-- Node1 -->
<g id="Node000001" class="node">
<title>Node1</title>
<g id="a_Node000001"><a xlink:title=" ">
<polygon fill="#999999" stroke="#666666" points="151.38,-77.5 50.62,-77.5 50.62,-56.75 151.38,-56.75 151.38,-77.5"/>
<text text-anchor="middle" x="101" y="-64" font-family="Helvetica,sans-Serif" font-size="10.00">nix::RemoteStore</text>
</a>
</g>
</g>
<!-- Node6 -->
<g id="Node000006" class="node">
<title>Node6</title>
<g id="a_Node000006"><a xlink:href="classnix_1_1SSHStore.html" target="_top" xlink:title=" ">
<polygon fill="white" stroke="#bfbfbf" points="82,-20.75 0,-20.75 0,0 82,0 82,-20.75"/>
<text text-anchor="middle" x="41" y="-7.25" font-family="Helvetica,sans-Serif" font-size="10.00">nix::SSHStore</text>
</a>
</g>
</g>
<!-- Node1&#45;&gt;Node6 -->
<g id="edge7_Node000001_Node000006" class="edge">
<title>Node1&#45;&gt;Node6</title>
<g id="a_edge7_Node000001_Node000006"><a xlink:title=" ">
<path fill="none" stroke="#63b8ff" d="M81.77,-48.58C71.79,-39.47 59.97,-28.68 51.63,-21.08"/>
<polygon fill="#63b8ff" stroke="#63b8ff" points="79.41,-51.16 89.16,-55.32 84.13,-45.99 79.41,-51.16"/>
</a>
</g>
</g>
<!-- Node7 -->
<g id="Node000007" class="node">
<title>Node7</title>
<g id="a_Node000007"><a xlink:href="classnix_1_1UDSRemoteStore.html" target="_top" xlink:title=" ">
<polygon fill="white" stroke="#bfbfbf" points="221.88,-20.75 100.12,-20.75 100.12,0 221.88,0 221.88,-20.75"/>
<text text-anchor="middle" x="161" y="-7.25" font-family="Helvetica,sans-Serif" font-size="10.00">nix::UDSRemoteStore</text>
</a>
</g>
</g>
<!-- Node1&#45;&gt;Node7 -->
<g id="edge8_Node000001_Node000007" class="edge">
<title>Node1&#45;&gt;Node7</title>
<g id="a_edge8_Node000001_Node000007"><a xlink:title=" ">
<path fill="none" stroke="#63b8ff" d="M120.23,-48.58C130.21,-39.47 142.03,-28.68 150.37,-21.08"/>
<polygon fill="#63b8ff" stroke="#63b8ff" points="117.87,-45.99 112.84,-55.32 122.59,-51.16 117.87,-45.99"/>
</a>
</g>
</g>
<!-- Node2 -->
<g id="Node000002" class="node">
<title>Node2</title>
<g id="a_Node000002"><a xlink:href="classnix_1_1Store.html" target="_top" xlink:title=" ">
<polygon fill="white" stroke="#bfbfbf" points="132.25,-191 69.75,-191 69.75,-170.25 132.25,-170.25 132.25,-191"/>
<text text-anchor="middle" x="101" y="-177.5" font-family="Helvetica,sans-Serif" font-size="10.00">nix::Store</text>
</a>
</g>
</g>
<!-- Node2&#45;&gt;Node1 -->
<g id="edge1_Node000001_Node000002" class="edge">
<title>Node2&#45;&gt;Node1</title>
<g id="a_edge1_Node000001_Node000002"><a xlink:title=" ">
<path fill="none" stroke="#63b8ff" d="M76.56,-162.73C67.71,-155.16 58.74,-145.41 54,-134.25 44.59,-112.08 68.72,-90.02 85.78,-77.82"/>
<polygon fill="#63b8ff" stroke="#63b8ff" points="74.33,-165.44 84.36,-168.87 78.66,-159.93 74.33,-165.44"/>
</a>
</g>
</g>
<!-- Node4 -->
<g id="Node000004" class="node">
<title>Node4</title>
<g id="a_Node000004"><a xlink:href="structnix_1_1GcStore.html" target="_top" xlink:title=" ">
<polygon fill="white" stroke="#666666" points="138.62,-134.25 63.38,-134.25 63.38,-113.5 138.62,-113.5 138.62,-134.25"/>
<text text-anchor="middle" x="101" y="-120.75" font-family="Helvetica,sans-Serif" font-size="10.00">nix::GcStore</text>
</a>
</g>
</g>
<!-- Node2&#45;&gt;Node4 -->
<g id="edge4_Node000004_Node000002" class="edge">
<title>Node2&#45;&gt;Node4</title>
<g id="a_edge4_Node000004_Node000002"><a xlink:title=" ">
<path fill="none" stroke="#63b8ff" d="M101,-158.38C101,-150.16 101,-141.18 101,-134.58"/>
<polygon fill="#63b8ff" stroke="#63b8ff" points="97.5,-158.32 101,-168.32 104.5,-158.32 97.5,-158.32"/>
</a>
</g>
</g>
<!-- Node5 -->
<g id="Node000005" class="node">
<title>Node5</title>
<g id="a_Node000005"><a xlink:href="structnix_1_1LogStore.html" target="_top" xlink:title=" ">
<polygon fill="white" stroke="#bfbfbf" points="236.88,-134.25 157.12,-134.25 157.12,-113.5 236.88,-113.5 236.88,-134.25"/>
<text text-anchor="middle" x="197" y="-120.75" font-family="Helvetica,sans-Serif" font-size="10.00">nix::LogStore</text>
</a>
</g>
</g>
<!-- Node2&#45;&gt;Node5 -->
<g id="edge6_Node000005_Node000002" class="edge">
<title>Node2&#45;&gt;Node5</title>
<g id="a_edge6_Node000005_Node000002"><a xlink:title=" ">
<path fill="none" stroke="#63b8ff" d="M127.91,-164.28C144.61,-154.75 165.56,-142.81 179.99,-134.58"/>
<polygon fill="#63b8ff" stroke="#63b8ff" points="126.43,-161.09 119.48,-169.09 129.9,-167.17 126.43,-161.09"/>
</a>
</g>
</g>
<!-- Node3 -->
<g id="Node000003" class="node">
<title>Node3</title>
<g id="a_Node000003"><a xlink:title=" ">
<polygon fill="white" stroke="#bfbfbf" points="158.88,-260.5 43.12,-260.5 43.12,-227 158.88,-227 158.88,-260.5"/>
<text text-anchor="start" x="51.12" y="-247" font-family="Helvetica,sans-Serif" font-size="10.00">std::enable_shared</text>
<text text-anchor="middle" x="101" y="-234.25" font-family="Helvetica,sans-Serif" font-size="10.00">_from_this&lt; Store &gt;</text>
</a>
</g>
</g>
<!-- Node3&#45;&gt;Node2 -->
<g id="edge2_Node000002_Node000003" class="edge">
<title>Node3&#45;&gt;Node2</title>
<g id="a_edge2_Node000002_Node000003"><a xlink:title=" ">
<path fill="none" stroke="#63b8ff" d="M101,-215.19C101,-206.71 101,-197.92 101,-191.47"/>
<polygon fill="#63b8ff" stroke="#63b8ff" points="97.5,-215.18 101,-225.18 104.5,-215.18 97.5,-215.18"/>
</a>
</g>
</g>
<!-- Node4&#45;&gt;Node1 -->
<g id="edge3_Node000001_Node000004" class="edge">
<title>Node4&#45;&gt;Node1</title>
<g id="a_edge3_Node000001_Node000004"><a xlink:title=" ">
<path fill="none" stroke="#63b8ff" d="M101,-101.63C101,-93.41 101,-84.43 101,-77.83"/>
<polygon fill="#63b8ff" stroke="#63b8ff" points="97.5,-101.57 101,-111.57 104.5,-101.57 97.5,-101.57"/>
</a>
</g>
</g>
<!-- Node5&#45;&gt;Node1 -->
<g id="edge5_Node000001_Node000005" class="edge">
<title>Node5&#45;&gt;Node1</title>
<g id="a_edge5_Node000001_Node000005"><a xlink:title=" ">
<path fill="none" stroke="#63b8ff" d="M170.09,-107.53C153.39,-98 132.44,-86.06 118.01,-77.83"/>
<polygon fill="#63b8ff" stroke="#63b8ff" points="168.1,-110.42 178.52,-112.34 171.57,-104.34 168.1,-110.42"/>
</a>
</g>
</g>
</g>
</svg>
