<?xml version="1.0" encoding="UTF-8" standalone="no"?>
<!DOCTYPE svg PUBLIC "-//W3C//DTD SVG 1.1//EN"
 "http://www.w3.org/Graphics/SVG/1.1/DTD/svg11.dtd">
<!-- Generated by graphviz version 12.2.1 (0)
 -->
<!-- Title: nix::Store Pages: 1 -->
<svg width="878pt" height="337pt"
 viewBox="0.00 0.00 878.00 336.75" xmlns="http://www.w3.org/2000/svg" xmlns:xlink="http://www.w3.org/1999/xlink">
<g id="graph0" class="graph" transform="scale(1 1) rotate(0) translate(4 332.75)">
<title>nix::Store</title>
<!-- Node1 -->
<g id="Node000001" class="node">
<title>Node1</title>
<g id="a_Node000001"><a xlink:title=" ">
<polygon fill="#999999" stroke="#666666" points="214.25,-136.75 151.75,-136.75 151.75,-116 214.25,-116 214.25,-136.75"/>
<text text-anchor="middle" x="183" y="-123.25" font-family="Helvetica,sans-Serif" font-size="10.00">nix::Store</text>
</a>
</g>
</g>
<!-- Node3 -->
<g id="Node000003" class="node">
<title>Node3</title>
<g id="a_Node000003"><a xlink:href="classnix_1_1BinaryCacheStore.html" target="_top" xlink:title=" ">
<polygon fill="white" stroke="#666666" points="526.75,-250.75 402.75,-250.75 402.75,-230 526.75,-230 526.75,-250.75"/>
<text text-anchor="middle" x="464.75" y="-237.25" font-family="Helvetica,sans-Serif" font-size="10.00">nix::BinaryCacheStore</text>
</a>
</g>
</g>
<!-- Node1&#45;&gt;Node3 -->
<g id="edge2_Node000001_Node000003" class="edge">
<title>Node1&#45;&gt;Node3</title>
<g id="a_edge2_Node000001_Node000003"><a xlink:title=" ">
<path fill="none" stroke="#63b8ff" d="M195.94,-146.95C207.47,-164.86 226.64,-189.98 250.25,-203.38 296.88,-229.82 357.75,-238.29 402.56,-240.6"/>
<polygon fill="#63b8ff" stroke="#63b8ff" points="198.92,-145.12 190.7,-138.43 192.96,-148.79 198.92,-145.12"/>
</a>
</g>
</g>
<!-- Node7 -->
<g id="Node000007" class="node">
<title>Node7</title>
<g id="a_Node000007"><a xlink:href="structnix_1_1DummyStore.html" target="_top" xlink:title=" ">
<polygon fill="white" stroke="#bfbfbf" points="359.25,-59.75 257.75,-59.75 257.75,-39 359.25,-39 359.25,-59.75"/>
<text text-anchor="middle" x="308.5" y="-46.25" font-family="Helvetica,sans-Serif" font-size="10.00">nix::DummyStore</text>
</a>
</g>
</g>
<!-- Node1&#45;&gt;Node7 -->
<g id="edge6_Node000001_Node000007" class="edge">
<title>Node1&#45;&gt;Node7</title>
<g id="a_edge6_Node000001_Node000007"><a xlink:title=" ">
<path fill="none" stroke="#63b8ff" d="M201.66,-107.91C214.25,-95.61 232.1,-79.85 250.25,-69.38 256.36,-65.85 263.19,-62.8 269.95,-60.22"/>
<polygon fill="#63b8ff" stroke="#63b8ff" points="199.48,-105.13 194.91,-114.69 204.44,-110.07 199.48,-105.13"/>
</a>
</g>
</g>
<!-- Node8 -->
<g id="Node000008" class="node">
<title>Node8</title>
<g id="a_Node000008"><a xlink:href="structnix_1_1GcStore.html" target="_top" xlink:title=" ">
<polygon fill="white" stroke="#666666" points="346.12,-98.75 270.88,-98.75 270.88,-78 346.12,-78 346.12,-98.75"/>
<text text-anchor="middle" x="308.5" y="-85.25" font-family="Helvetica,sans-Serif" font-size="10.00">nix::GcStore</text>
</a>
</g>
</g>
<!-- Node1&#45;&gt;Node8 -->
<g id="edge7_Node000001_Node000008" class="edge">
<title>Node1&#45;&gt;Node8</title>
<g id="a_edge7_Node000001_Node000008"><a xlink:title=" ">
<path fill="none" stroke="#63b8ff" d="M225.28,-113.67C240.6,-108.96 257.82,-103.66 272.52,-99.14"/>
<polygon fill="#63b8ff" stroke="#63b8ff" points="224.5,-110.25 215.97,-116.54 226.56,-116.94 224.5,-110.25"/>
</a>
</g>
</g>
<!-- Node9 -->
<g id="Node000009" class="node">
<title>Node9</title>
<g id="a_Node000009"><a xlink:href="classnix_1_1LocalFSStore.html" target="_top" xlink:title=" ">
<polygon fill="white" stroke="#bfbfbf" points="514.38,-135.75 415.12,-135.75 415.12,-115 514.38,-115 514.38,-135.75"/>
<text text-anchor="middle" x="464.75" y="-122.25" font-family="Helvetica,sans-Serif" font-size="10.00">nix::LocalFSStore</text>
</a>
</g>
</g>
<!-- Node1&#45;&gt;Node9 -->
<g id="edge19_Node000001_Node000009" class="edge">
<title>Node1&#45;&gt;Node9</title>
<g id="a_edge19_Node000001_Node000009"><a xlink:title=" ">
<path fill="none" stroke="#63b8ff" d="M226.21,-126.22C276.75,-126.04 361.25,-125.74 414.66,-125.55"/>
<polygon fill="#63b8ff" stroke="#63b8ff" points="226.24,-122.72 216.25,-126.26 226.26,-129.72 226.24,-122.72"/>
</a>
</g>
</g>
<!-- Node14 -->
<g id="Node000014" class="node">
<title>Node14</title>
<g id="a_Node000014"><a xlink:href="classnix_1_1RemoteStore.html" target="_top" xlink:title=" ">
<polygon fill="white" stroke="#666666" points="515.12,-174.75 414.38,-174.75 414.38,-154 515.12,-154 515.12,-174.75"/>
<text text-anchor="middle" x="464.75" y="-161.25" font-family="Helvetica,sans-Serif" font-size="10.00">nix::RemoteStore</text>
</a>
</g>
</g>
<!-- Node1&#45;&gt;Node14 -->
<g id="edge24_Node000001_Node000014" class="edge">
<title>Node1&#45;&gt;Node14</title>
<g id="a_edge24_Node000001_Node000014"><a xlink:title=" ">
<path fill="none" stroke="#63b8ff" d="M199.44,-145.48C211.62,-158.93 229.91,-175.83 250.25,-183.38 312,-206.28 390.43,-188.43 432.95,-175.23"/>
<polygon fill="#63b8ff" stroke="#63b8ff" points="202.2,-143.32 193.02,-138.02 196.89,-147.88 202.2,-143.32"/>
</a>
</g>
</g>
<!-- Node16 -->
<g id="Node000016" class="node">
<title>Node16</title>
<g id="a_Node000016"><a xlink:href="structnix_1_1LegacySSHStore.html" target="_top" xlink:title=" ">
<polygon fill="white" stroke="#bfbfbf" points="366.75,-20.75 250.25,-20.75 250.25,0 366.75,0 366.75,-20.75"/>
<text text-anchor="middle" x="308.5" y="-7.25" font-family="Helvetica,sans-Serif" font-size="10.00">nix::LegacySSHStore</text>
</a>
</g>
</g>
<!-- Node1&#45;&gt;Node16 -->
<g id="edge18_Node000001_Node000016" class="edge">
<title>Node1&#45;&gt;Node16</title>
<g id="a_edge18_Node000001_Node000016"><a xlink:title=" ">
<path fill="none" stroke="#63b8ff" d="M193.39,-105.69C204.2,-84.04 223.92,-50.45 250.25,-30.38 255.02,-26.74 260.51,-23.73 266.15,-21.25"/>
<polygon fill="#63b8ff" stroke="#63b8ff" points="190.36,-103.9 189.21,-114.43 196.68,-106.92 190.36,-103.9"/>
</a>
</g>
</g>
<!-- Node17 -->
<g id="Node000017" class="node">
<title>Node17</title>
<g id="a_Node000017"><a xlink:href="structnix_1_1LogStore.html" target="_top" xlink:title=" ">
<polygon fill="white" stroke="#bfbfbf" points="348.38,-174.75 268.62,-174.75 268.62,-154 348.38,-154 348.38,-174.75"/>
<text text-anchor="middle" x="308.5" y="-161.25" font-family="Helvetica,sans-Serif" font-size="10.00">nix::LogStore</text>
</a>
</g>
</g>
<!-- Node1&#45;&gt;Node17 -->
<g id="edge20_Node000001_Node000017" class="edge">
<title>Node1&#45;&gt;Node17</title>
<g id="a_edge20_Node000001_Node000017"><a xlink:title=" ">
<path fill="none" stroke="#63b8ff" d="M225.28,-139.08C240.6,-143.79 257.82,-149.09 272.52,-153.61"/>
<polygon fill="#63b8ff" stroke="#63b8ff" points="226.56,-135.81 215.97,-136.21 224.5,-142.5 226.56,-135.81"/>
</a>
</g>
</g>
<!-- Node2 -->
<g id="Node000002" class="node">
<title>Node2</title>
<g id="a_Node000002"><a xlink:title=" ">
<polygon fill="white" stroke="#bfbfbf" points="115.75,-143.12 0,-143.12 0,-109.62 115.75,-109.62 115.75,-143.12"/>
<text text-anchor="start" x="8" y="-129.62" font-family="Helvetica,sans-Serif" font-size="10.00">std::enable_shared</text>
<text text-anchor="middle" x="57.88" y="-116.88" font-family="Helvetica,sans-Serif" font-size="10.00">_from_this&lt; Store &gt;</text>
</a>
</g>
</g>
<!-- Node2&#45;&gt;Node1 -->
<g id="edge1_Node000001_Node000002" class="edge">
<title>Node2&#45;&gt;Node1</title>
<g id="a_edge1_Node000001_Node000002"><a xlink:title=" ">
<path fill="none" stroke="#63b8ff" d="M127.54,-126.38C135.89,-126.38 144.05,-126.38 151.42,-126.38"/>
<polygon fill="#63b8ff" stroke="#63b8ff" points="127.63,-122.88 117.63,-126.38 127.63,-129.88 127.63,-122.88"/>
</a>
</g>
</g>
<!-- Node4 -->
<g id="Node000004" class="node">
<title>Node4</title>
<g id="a_Node000004"><a xlink:href="classnix_1_1HttpBinaryCacheStore.html" target="_top" xlink:title=" ">
<polygon fill="white" stroke="#bfbfbf" points="710,-250.75 565,-250.75 565,-230 710,-230 710,-250.75"/>
<text text-anchor="middle" x="637.5" y="-237.25" font-family="Helvetica,sans-Serif" font-size="10.00">nix::HttpBinaryCacheStore</text>
</a>
</g>
</g>
<!-- Node3&#45;&gt;Node4 -->
<g id="edge3_Node000003_Node000004" class="edge">
<title>Node3&#45;&gt;Node4</title>
<g id="a_edge3_Node000003_Node000004"><a xlink:title=" ">
<path fill="none" stroke="#63b8ff" d="M538.28,-240.38C547.03,-240.38 555.96,-240.38 564.71,-240.38"/>
<polygon fill="#63b8ff" stroke="#63b8ff" points="538.43,-236.88 528.43,-240.38 538.43,-243.88 538.43,-236.88"/>
</a>
</g>
</g>
<!-- Node5 -->
<g id="Node000005" class="node">
<title>Node5</title>
<g id="a_Node000005"><a xlink:href="classnix_1_1LocalBinaryCacheStore.html" target="_top" xlink:title=" ">
<polygon fill="white" stroke="#bfbfbf" points="712.25,-328.75 562.75,-328.75 562.75,-308 712.25,-308 712.25,-328.75"/>
<text text-anchor="middle" x="637.5" y="-315.25" font-family="Helvetica,sans-Serif" font-size="10.00">nix::LocalBinaryCacheStore</text>
</a>
</g>
</g>
<!-- Node3&#45;&gt;Node5 -->
<g id="edge4_Node000003_Node000005" class="edge">
<title>Node3&#45;&gt;Node5</title>
<g id="a_edge4_Node000003_Node000005"><a xlink:title=" ">
<path fill="none" stroke="#63b8ff" d="M490.23,-257.59C509.27,-270.33 536.73,-287.32 562.75,-298.38 571.05,-301.9 580.15,-304.97 589.03,-307.57"/>
<polygon fill="#63b8ff" stroke="#63b8ff" points="492.33,-254.79 482.09,-252.05 488.39,-260.57 492.33,-254.79"/>
</a>
</g>
</g>
<!-- Node6 -->
<g id="Node000006" class="node">
<title>Node6</title>
<g id="a_Node000006"><a xlink:href="classnix_1_1S3BinaryCacheStore.html" target="_top" xlink:title=" ">
<polygon fill="white" stroke="#bfbfbf" points="705.5,-289.75 569.5,-289.75 569.5,-269 705.5,-269 705.5,-289.75"/>
<text text-anchor="middle" x="637.5" y="-276.25" font-family="Helvetica,sans-Serif" font-size="10.00">nix::S3BinaryCacheStore</text>
</a>
</g>
</g>
<!-- Node3&#45;&gt;Node6 -->
<g id="edge5_Node000003_Node000006" class="edge">
<title>Node3&#45;&gt;Node6</title>
<g id="a_edge5_Node000003_Node000006"><a xlink:title=" ">
<path fill="none" stroke="#63b8ff" d="M524.39,-253.77C545.44,-258.58 568.9,-263.93 588.9,-268.5"/>
<polygon fill="#63b8ff" stroke="#63b8ff" points="525.32,-250.39 514.79,-251.58 523.76,-257.21 525.32,-250.39"/>
</a>
</g>
</g>
<!-- Node8&#45;&gt;Node9 -->
<g id="edge8_Node000008_Node000009" class="edge">
<title>Node8&#45;&gt;Node9</title>
<g id="a_edge8_Node000008_Node000009"><a xlink:title=" ">
<path fill="none" stroke="#63b8ff" d="M357.53,-99.9C377.01,-104.57 399.39,-109.94 418.57,-114.54"/>
<polygon fill="#63b8ff" stroke="#63b8ff" points="358.46,-96.52 347.92,-97.59 356.83,-103.33 358.46,-96.52"/>
</a>
</g>
</g>
<!-- Node11 -->
<g id="Node000011" class="node">
<title>Node11</title>
<g id="a_Node000011"><a xlink:href="classnix_1_1LocalStore.html" target="_top" xlink:title=" ">
<polygon fill="white" stroke="#bfbfbf" points="853.12,-125.75 765.12,-125.75 765.12,-105 853.12,-105 853.12,-125.75"/>
<text text-anchor="middle" x="809.12" y="-112.25" font-family="Helvetica,sans-Serif" font-size="10.00">nix::LocalStore</text>
</a>
</g>
</g>
<!-- Node8&#45;&gt;Node11 -->
<g id="edge13_Node000008_Node000011" class="edge">
<title>Node8&#45;&gt;Node11</title>
<g id="a_edge13_Node000008_Node000011"><a xlink:title=" ">
<path fill="none" stroke="#63b8ff" d="M357.95,-89.77C433.63,-92.13 584.5,-97.53 712.25,-106.38 729.43,-107.56 748.3,-109.25 764.73,-110.85"/>
<polygon fill="#63b8ff" stroke="#63b8ff" points="358.08,-86.28 347.97,-89.47 357.86,-93.27 358.08,-86.28"/>
</a>
</g>
</g>
<!-- Node12 -->
<g id="Node000012" class="node">
<title>Node12</title>
<g id="a_Node000012"><a xlink:href="structnix_1_1RestrictedStore.html" target="_top" xlink:title=" ">
<polygon fill="white" stroke="#bfbfbf" points="865.12,-77.75 753.12,-77.75 753.12,-57 865.12,-57 865.12,-77.75"/>
<text text-anchor="middle" x="809.12" y="-64.25" font-family="Helvetica,sans-Serif" font-size="10.00">nix::RestrictedStore</text>
</a>
</g>
</g>
<!-- Node8&#45;&gt;Node12 -->
<g id="edge17_Node000008_Node000012" class="edge">
<title>Node8&#45;&gt;Node12</title>
<g id="a_edge17_Node000008_Node000012"><a xlink:title=" ">
<path fill="none" stroke="#63b8ff" d="M357.76,-79.25C372.18,-76.89 388.06,-74.66 402.75,-73.38 527.56,-62.47 674.79,-63.83 752.92,-65.67"/>
<polygon fill="#63b8ff" stroke="#63b8ff" points="357.32,-75.77 348.05,-80.9 358.49,-82.67 357.32,-75.77"/>
</a>
</g>
</g>
<!-- Node8&#45;&gt;Node14 -->
<g id="edge14_Node000008_Node000014" class="edge">
<title>Node8&#45;&gt;Node14</title>
<g id="a_edge14_Node000008_Node000014"><a xlink:title=" ">
<path fill="none" stroke="#63b8ff" d="M334.42,-105.45C352.74,-117.46 378.55,-133.31 402.75,-144.38 410.15,-147.76 418.29,-150.84 426.14,-153.51"/>
<polygon fill="#63b8ff" stroke="#63b8ff" points="336.6,-102.69 326.34,-100.06 332.72,-108.52 336.6,-102.69"/>
</a>
</g>
</g>
<!-- Node10 -->
<g id="Node000010" class="node">
<title>Node10</title>
<g id="a_Node000010"><a xlink:href="structnix_1_1IndirectRootStore.html" target="_top" xlink:title=" ">
<polygon fill="white" stroke="#666666" points="698.38,-135.75 576.62,-135.75 576.62,-115 698.38,-115 698.38,-135.75"/>
<text text-anchor="middle" x="637.5" y="-122.25" font-family="Helvetica,sans-Serif" font-size="10.00">nix::IndirectRootStore</text>
</a>
</g>
</g>
<!-- Node9&#45;&gt;Node10 -->
<g id="edge9_Node000009_Node000010" class="edge">
<title>Node9&#45;&gt;Node10</title>
<g id="a_edge9_Node000009_Node000010"><a xlink:title=" ">
<path fill="none" stroke="#63b8ff" d="M525.78,-125.38C542.17,-125.38 559.93,-125.38 576.33,-125.38"/>
<polygon fill="#63b8ff" stroke="#63b8ff" points="526.19,-121.88 516.19,-125.38 526.19,-128.88 526.19,-121.88"/>
</a>
</g>
</g>
<!-- Node10&#45;&gt;Node11 -->
<g id="edge10_Node000010_Node000011" class="edge">
<title>Node10&#45;&gt;Node11</title>
<g id="a_edge10_Node000010_Node000011"><a xlink:title=" ">
<path fill="none" stroke="#63b8ff" d="M710.2,-121.15C728.78,-120.05 748.21,-118.91 764.82,-117.93"/>
<polygon fill="#63b8ff" stroke="#63b8ff" points="710.07,-117.65 700.29,-121.73 710.48,-124.64 710.07,-117.65"/>
</a>
</g>
</g>
<!-- Node10&#45;&gt;Node12 -->
<g id="edge11_Node000010_Node000012" class="edge">
<title>Node10&#45;&gt;Node12</title>
<g id="a_edge11_Node000010_Node000012"><a xlink:title=" ">
<path fill="none" stroke="#63b8ff" d="M680.88,-110.89C710.54,-100.74 749.53,-87.41 776.5,-78.19"/>
<polygon fill="#63b8ff" stroke="#63b8ff" points="679.77,-107.56 671.44,-114.11 682.03,-114.19 679.77,-107.56"/>
</a>
</g>
</g>
<!-- Node13 -->
<g id="Node000013" class="node">
<title>Node13</title>
<g id="a_Node000013"><a xlink:href="classnix_1_1UDSRemoteStore.html" target="_top" xlink:title=" ">
<polygon fill="white" stroke="#bfbfbf" points="870,-188.75 748.25,-188.75 748.25,-168 870,-168 870,-188.75"/>
<text text-anchor="middle" x="809.12" y="-175.25" font-family="Helvetica,sans-Serif" font-size="10.00">nix::UDSRemoteStore</text>
</a>
</g>
</g>
<!-- Node10&#45;&gt;Node13 -->
<g id="edge12_Node000010_Node000013" class="edge">
<title>Node10&#45;&gt;Node13</title>
<g id="a_edge12_Node000010_Node000013"><a xlink:title=" ">
<path fill="none" stroke="#63b8ff" d="M691.34,-139.24C698.39,-141.23 705.51,-143.3 712.25,-145.38 734.63,-152.25 759.63,-160.89 778.49,-167.6"/>
<polygon fill="#63b8ff" stroke="#63b8ff" points="692.4,-135.91 681.83,-136.61 690.54,-142.65 692.4,-135.91"/>
</a>
</g>
</g>
<!-- Node14&#45;&gt;Node13 -->
<g id="edge16_Node000014_Node000013" class="edge">
<title>Node14&#45;&gt;Node13</title>
<g id="a_edge16_Node000014_Node000013"><a xlink:title=" ">
<path fill="none" stroke="#63b8ff" d="M522.63,-177.42C535.74,-179.9 549.67,-182.11 562.75,-183.38 625.73,-189.48 698.21,-186.82 747.97,-183.51"/>
<polygon fill="#63b8ff" stroke="#63b8ff" points="523.34,-174 512.86,-175.49 521.99,-180.86 523.34,-174"/>
</a>
</g>
</g>
<!-- Node15 -->
<g id="Node000015" class="node">
<title>Node15</title>
<g id="a_Node000015"><a xlink:href="classnix_1_1SSHStore.html" target="_top" xlink:title=" ">
<polygon fill="white" stroke="#bfbfbf" points="678.5,-174.75 596.5,-174.75 596.5,-154 678.5,-154 678.5,-174.75"/>
<text text-anchor="middle" x="637.5" y="-161.25" font-family="Helvetica,sans-Serif" font-size="10.00">nix::SSHStore</text>
</a>
</g>
</g>
<!-- Node14&#45;&gt;Node15 -->
<g id="edge15_Node000014_Node000015" class="edge">
<title>Node14&#45;&gt;Node15</title>
<g id="a_edge15_Node000014_Node000015"><a xlink:title=" ">
<path fill="none" stroke="#63b8ff" d="M526.98,-164.38C549.95,-164.38 575.45,-164.38 596.07,-164.38"/>
<polygon fill="#63b8ff" stroke="#63b8ff" points="527.11,-160.88 517.11,-164.38 527.11,-167.88 527.11,-160.88"/>
</a>
</g>
</g>
<!-- Node17&#45;&gt;Node3 -->
<g id="edge21_Node000017_Node000003" class="edge">
<title>Node17&#45;&gt;Node3</title>
<g id="a_edge21_Node000017_Node000003"><a xlink:title=" ">
<path fill="none" stroke="#63b8ff" d="M341.28,-180.03C371.4,-194.87 415.84,-216.77 442.09,-229.7"/>
<polygon fill="#63b8ff" stroke="#63b8ff" points="343.15,-177.05 332.63,-175.77 340.05,-183.33 343.15,-177.05"/>
</a>
</g>
</g>
<!-- Node17&#45;&gt;Node9 -->
<g id="edge22_Node000017_Node000009" class="edge">
<title>Node17&#45;&gt;Node9</title>
<g id="a_edge22_Node000017_Node000009"><a xlink:title=" ">
<path fill="none" stroke="#63b8ff" d="M359.79,-151.66C379.56,-146.66 402.01,-140.99 420.98,-136.19"/>
<polygon fill="#63b8ff" stroke="#63b8ff" points="359.13,-148.22 350.29,-154.06 360.84,-155 359.13,-148.22"/>
</a>
</g>
</g>
<!-- Node17&#45;&gt;Node14 -->
<g id="edge23_Node000017_Node000014" class="edge">
<title>Node17&#45;&gt;Node14</title>
<g id="a_edge23_Node000017_Node000014"><a xlink:title=" ">
<path fill="none" stroke="#63b8ff" d="M359.89,-164.38C377.25,-164.38 396.67,-164.38 413.98,-164.38"/>
<polygon fill="#63b8ff" stroke="#63b8ff" points="360.34,-160.88 350.34,-164.38 360.34,-167.88 360.34,-160.88"/>
</a>
</g>
</g>
</g>
</svg>
