<?xml version="1.0" encoding="UTF-8" standalone="no"?>
<!DOCTYPE svg PUBLIC "-//W3C//DTD SVG 1.1//EN"
 "http://www.w3.org/Graphics/SVG/1.1/DTD/svg11.dtd">
<!-- Generated by graphviz version 12.2.1 (0)
 -->
<!-- Title: lix/libstore/common&#45;protocol.hh Pages: 1 -->
<svg width="1517pt" height="395pt"
 viewBox="0.00 0.00 1517.12 394.75" xmlns="http://www.w3.org/2000/svg" xmlns:xlink="http://www.w3.org/1999/xlink">
<g id="graph0" class="graph" transform="scale(1 1) rotate(0) translate(4 390.75)">
<title>lix/libstore/common&#45;protocol.hh</title>
<!-- Node1 -->
<g id="Node000001" class="node">
<title>Node1</title>
<g id="a_Node000001"><a xlink:title=" ">
<polygon fill="#999999" stroke="#666666" points="501.62,-386.75 388.12,-386.75 388.12,-353.25 501.62,-353.25 501.62,-386.75"/>
<text text-anchor="start" x="396.12" y="-373.25" font-family="Helvetica,sans-Serif" font-size="10.00">lix/libstore/common</text>
<text text-anchor="middle" x="444.88" y="-360.5" font-family="Helvetica,sans-Serif" font-size="10.00">&#45;protocol.hh</text>
</a>
</g>
</g>
<!-- Node2 -->
<g id="Node000002" class="node">
<title>Node2</title>
<g id="a_Node000002"><a xlink:href="serialise_8hh.html" target="_top" xlink:title=" ">
<polygon fill="white" stroke="#666666" points="503.88,-317.25 385.88,-317.25 385.88,-296.5 503.88,-296.5 503.88,-317.25"/>
<text text-anchor="middle" x="444.88" y="-303.75" font-family="Helvetica,sans-Serif" font-size="10.00">lix/libutil/serialise.hh</text>
</a>
</g>
</g>
<!-- Node1&#45;&gt;Node2 -->
<g id="edge1_Node000001_Node000002" class="edge">
<title>Node1&#45;&gt;Node2</title>
<g id="a_edge1_Node000001_Node000002"><a xlink:title=" ">
<path fill="none" stroke="#63b8ff" d="M444.88,-352.94C444.88,-345.6 444.88,-336.82 444.88,-328.96"/>
<polygon fill="#63b8ff" stroke="#63b8ff" points="448.38,-329.23 444.88,-319.23 441.38,-329.23 448.38,-329.23"/>
</a>
</g>
</g>
<!-- Node3 -->
<g id="Node000003" class="node">
<title>Node3</title>
<g id="a_Node000003"><a xlink:title=" ">
<polygon fill="#e0e0e0" stroke="#999999" points="567.5,-134.25 510.25,-134.25 510.25,-113.5 567.5,-113.5 567.5,-134.25"/>
<text text-anchor="middle" x="538.88" y="-120.75" font-family="Helvetica,sans-Serif" font-size="10.00">memory</text>
</a>
</g>
</g>
<!-- Node2&#45;&gt;Node3 -->
<g id="edge2_Node000002_Node000003" class="edge">
<title>Node2&#45;&gt;Node3</title>
<g id="a_edge2_Node000002_Node000003"><a xlink:title=" ">
<path fill="none" stroke="#63b8ff" d="M476.92,-296.15C494.36,-289.13 514.61,-277.78 525.88,-260.5 548.62,-225.62 546.23,-174.58 542.52,-146.1"/>
<polygon fill="#63b8ff" stroke="#63b8ff" points="545.98,-145.6 541.03,-136.23 539.06,-146.64 545.98,-145.6"/>
</a>
</g>
</g>
<!-- Node4 -->
<g id="Node000004" class="node">
<title>Node4</title>
<g id="a_Node000004"><a xlink:href="charptr-cast_8hh_source.html" target="_top" xlink:title=" ">
<polygon fill="white" stroke="#666666" points="1262,-260.5 1165.75,-260.5 1165.75,-227 1262,-227 1262,-260.5"/>
<text text-anchor="start" x="1173.75" y="-247" font-family="Helvetica,sans-Serif" font-size="10.00">lix/libutil/charptr</text>
<text text-anchor="middle" x="1213.88" y="-234.25" font-family="Helvetica,sans-Serif" font-size="10.00">&#45;cast.hh</text>
</a>
</g>
</g>
<!-- Node2&#45;&gt;Node4 -->
<g id="edge3_Node000002_Node000004" class="edge">
<title>Node2&#45;&gt;Node4</title>
<g id="a_edge3_Node000002_Node000004"><a xlink:title=" ">
<path fill="none" stroke="#63b8ff" d="M504.26,-301.15C647.46,-289.77 1010.57,-260.91 1154.14,-249.5"/>
<polygon fill="#63b8ff" stroke="#63b8ff" points="1154.11,-253.01 1163.8,-248.73 1153.55,-246.03 1154.11,-253.01"/>
</a>
</g>
</g>
<!-- Node7 -->
<g id="Node000007" class="node">
<title>Node7</title>
<g id="a_Node000007"><a xlink:href="generator_8hh.html" target="_top" xlink:title=" ">
<polygon fill="white" stroke="#666666" points="413.5,-191 290.25,-191 290.25,-170.25 413.5,-170.25 413.5,-191"/>
<text text-anchor="middle" x="351.88" y="-177.5" font-family="Helvetica,sans-Serif" font-size="10.00">lix/libutil/generator.hh</text>
</a>
</g>
</g>
<!-- Node2&#45;&gt;Node7 -->
<g id="edge6_Node000002_Node000007" class="edge">
<title>Node2&#45;&gt;Node7</title>
<g id="a_edge6_Node000002_Node000007"><a xlink:title=" ">
<path fill="none" stroke="#63b8ff" d="M413.59,-296.08C396.19,-288.98 375.71,-277.6 363.88,-260.5 352.19,-243.62 350.01,-219.85 350.25,-202.82"/>
<polygon fill="#63b8ff" stroke="#63b8ff" points="353.75,-203 350.72,-192.85 346.75,-202.68 353.75,-203"/>
</a>
</g>
</g>
<!-- Node8 -->
<g id="Node000008" class="node">
<title>Node8</title>
<g id="a_Node000008"><a xlink:href="types_8hh.html" target="_top" xlink:title=" ">
<polygon fill="white" stroke="#666666" points="191.75,-134.25 88,-134.25 88,-113.5 191.75,-113.5 191.75,-134.25"/>
<text text-anchor="middle" x="139.88" y="-120.75" font-family="Helvetica,sans-Serif" font-size="10.00">lix/libutil/types.hh</text>
</a>
</g>
</g>
<!-- Node2&#45;&gt;Node8 -->
<g id="edge23_Node000002_Node000008" class="edge">
<title>Node2&#45;&gt;Node8</title>
<g id="a_edge23_Node000002_Node000008"><a xlink:title=" ">
<path fill="none" stroke="#63b8ff" d="M421.69,-296.12C401.75,-287.48 372.41,-274.15 347.88,-260.5 277.67,-221.45 199.46,-167.39 162.1,-140.86"/>
<polygon fill="#63b8ff" stroke="#63b8ff" points="164.5,-138.27 154.33,-135.32 160.44,-143.97 164.5,-138.27"/>
</a>
</g>
</g>
<!-- Node22 -->
<g id="Node000022" class="node">
<title>Node22</title>
<g id="a_Node000022"><a xlink:href="file-descriptor_8hh.html" target="_top" xlink:title=" ">
<polygon fill="white" stroke="#666666" points="516.62,-254.12 373.12,-254.12 373.12,-233.38 516.62,-233.38 516.62,-254.12"/>
<text text-anchor="middle" x="444.88" y="-240.62" font-family="Helvetica,sans-Serif" font-size="10.00">lix/libutil/file&#45;descriptor.hh</text>
</a>
</g>
</g>
<!-- Node2&#45;&gt;Node22 -->
<g id="edge24_Node000002_Node000022" class="edge">
<title>Node2&#45;&gt;Node22</title>
<g id="a_edge24_Node000002_Node000022"><a xlink:title=" ">
<path fill="none" stroke="#63b8ff" d="M444.88,-296.05C444.88,-287.9 444.88,-276.01 444.88,-265.73"/>
<polygon fill="#63b8ff" stroke="#63b8ff" points="448.38,-265.86 444.88,-255.86 441.38,-265.86 448.38,-265.86"/>
</a>
</g>
</g>
<!-- Node5 -->
<g id="Node000005" class="node">
<title>Node5</title>
<g id="a_Node000005"><a xlink:title=" ">
<polygon fill="#e0e0e0" stroke="#999999" points="1243.62,-191 1184.12,-191 1184.12,-170.25 1243.62,-170.25 1243.62,-191"/>
<text text-anchor="middle" x="1213.88" y="-177.5" font-family="Helvetica,sans-Serif" font-size="10.00">concepts</text>
</a>
</g>
</g>
<!-- Node4&#45;&gt;Node5 -->
<g id="edge4_Node000004_Node000005" class="edge">
<title>Node4&#45;&gt;Node5</title>
<g id="a_edge4_Node000004_Node000005"><a xlink:title=" ">
<path fill="none" stroke="#63b8ff" d="M1213.88,-226.69C1213.88,-219.35 1213.88,-210.57 1213.88,-202.71"/>
<polygon fill="#63b8ff" stroke="#63b8ff" points="1217.38,-202.98 1213.88,-192.98 1210.38,-202.98 1217.38,-202.98"/>
</a>
</g>
</g>
<!-- Node6 -->
<g id="Node000006" class="node">
<title>Node6</title>
<g id="a_Node000006"><a xlink:title=" ">
<polygon fill="#e0e0e0" stroke="#999999" points="1509.12,-77.5 1440.62,-77.5 1440.62,-56.75 1509.12,-56.75 1509.12,-77.5"/>
<text text-anchor="middle" x="1474.88" y="-64" font-family="Helvetica,sans-Serif" font-size="10.00">type_traits</text>
</a>
</g>
</g>
<!-- Node4&#45;&gt;Node6 -->
<g id="edge5_Node000004_Node000006" class="edge">
<title>Node4&#45;&gt;Node6</title>
<g id="a_edge5_Node000004_Node000006"><a xlink:title=" ">
<path fill="none" stroke="#63b8ff" d="M1262.29,-238.54C1324.15,-230.27 1428.94,-205.88 1476.88,-134.25 1485.77,-120.96 1484.4,-102.57 1481.3,-88.56"/>
<polygon fill="#63b8ff" stroke="#63b8ff" points="1484.72,-87.81 1478.73,-79.07 1477.96,-89.63 1484.72,-87.81"/>
</a>
</g>
</g>
<!-- Node7&#45;&gt;Node3 -->
<g id="edge19_Node000007_Node000003" class="edge">
<title>Node7&#45;&gt;Node3</title>
<g id="a_edge19_Node000007_Node000003"><a xlink:title=" ">
<path fill="none" stroke="#63b8ff" d="M385.31,-169.84C417.21,-160.5 465.29,-146.42 499.14,-136.51"/>
<polygon fill="#63b8ff" stroke="#63b8ff" points="499.96,-139.92 508.57,-133.75 497.99,-133.2 499.96,-139.92"/>
</a>
</g>
</g>
<!-- Node7&#45;&gt;Node8 -->
<g id="edge7_Node000007_Node000008" class="edge">
<title>Node7&#45;&gt;Node8</title>
<g id="a_edge7_Node000007_Node000008"><a xlink:title=" ">
<path fill="none" stroke="#63b8ff" d="M313.97,-169.84C278.96,-160.79 226.76,-147.31 188.65,-137.47"/>
<polygon fill="#63b8ff" stroke="#63b8ff" points="189.83,-134.16 179.27,-135.05 188.08,-140.94 189.83,-134.16"/>
</a>
</g>
</g>
<!-- Node10 -->
<g id="Node000010" class="node">
<title>Node10</title>
<g id="a_Node000010"><a xlink:title=" ">
<polygon fill="#e0e0e0" stroke="#999999" points="352.75,-77.5 297,-77.5 297,-56.75 352.75,-56.75 352.75,-77.5"/>
<text text-anchor="middle" x="324.88" y="-64" font-family="Helvetica,sans-Serif" font-size="10.00">optional</text>
</a>
</g>
</g>
<!-- Node7&#45;&gt;Node10 -->
<g id="edge20_Node000007_Node000010" class="edge">
<title>Node7&#45;&gt;Node10</title>
<g id="a_edge20_Node000007_Node000010"><a xlink:title=" ">
<path fill="none" stroke="#63b8ff" d="M342.5,-169.76C335.02,-161.15 325.1,-147.92 320.88,-134.25 316.35,-119.59 317.62,-102.26 319.88,-89.02"/>
<polygon fill="#63b8ff" stroke="#63b8ff" points="323.3,-89.78 321.89,-79.28 316.44,-88.37 323.3,-89.78"/>
</a>
</g>
</g>
<!-- Node18 -->
<g id="Node000018" class="node">
<title>Node18</title>
<g id="a_Node000018"><a xlink:title=" ">
<polygon fill="#e0e0e0" stroke="#999999" points="453.75,-134.25 392,-134.25 392,-113.5 453.75,-113.5 453.75,-134.25"/>
<text text-anchor="middle" x="422.88" y="-120.75" font-family="Helvetica,sans-Serif" font-size="10.00">coroutine</text>
</a>
</g>
</g>
<!-- Node7&#45;&gt;Node18 -->
<g id="edge17_Node000007_Node000018" class="edge">
<title>Node7&#45;&gt;Node18</title>
<g id="a_edge17_Node000007_Node000018"><a xlink:title=" ">
<path fill="none" stroke="#63b8ff" d="M364.57,-169.84C374.77,-161.97 389.32,-150.75 401.33,-141.49"/>
<polygon fill="#63b8ff" stroke="#63b8ff" points="403.31,-144.38 409.09,-135.5 399.04,-138.84 403.31,-144.38"/>
</a>
</g>
</g>
<!-- Node19 -->
<g id="Node000019" class="node">
<title>Node19</title>
<g id="a_Node000019"><a xlink:title=" ">
<polygon fill="#e0e0e0" stroke="#999999" points="273.88,-134.25 209.88,-134.25 209.88,-113.5 273.88,-113.5 273.88,-134.25"/>
<text text-anchor="middle" x="241.88" y="-120.75" font-family="Helvetica,sans-Serif" font-size="10.00">exception</text>
</a>
</g>
</g>
<!-- Node7&#45;&gt;Node19 -->
<g id="edge18_Node000007_Node000019" class="edge">
<title>Node7&#45;&gt;Node19</title>
<g id="a_edge18_Node000007_Node000019"><a xlink:title=" ">
<path fill="none" stroke="#63b8ff" d="M332.21,-169.84C315.32,-161.43 290.71,-149.18 271.44,-139.59"/>
<polygon fill="#63b8ff" stroke="#63b8ff" points="273.24,-136.58 262.73,-135.25 270.12,-142.84 273.24,-136.58"/>
</a>
</g>
</g>
<!-- Node20 -->
<g id="Node000020" class="node">
<title>Node20</title>
<g id="a_Node000020"><a xlink:title=" ">
<polygon fill="#e0e0e0" stroke="#999999" points="374.12,-134.25 329.62,-134.25 329.62,-113.5 374.12,-113.5 374.12,-134.25"/>
<text text-anchor="middle" x="351.88" y="-120.75" font-family="Helvetica,sans-Serif" font-size="10.00">utility</text>
</a>
</g>
</g>
<!-- Node7&#45;&gt;Node20 -->
<g id="edge21_Node000007_Node000020" class="edge">
<title>Node7&#45;&gt;Node20</title>
<g id="a_edge21_Node000007_Node000020"><a xlink:title=" ">
<path fill="none" stroke="#63b8ff" d="M351.88,-169.84C351.88,-163.22 351.88,-154.22 351.88,-146.02"/>
<polygon fill="#63b8ff" stroke="#63b8ff" points="355.38,-146.09 351.88,-136.09 348.38,-146.09 355.38,-146.09"/>
</a>
</g>
</g>
<!-- Node21 -->
<g id="Node000021" class="node">
<title>Node21</title>
<g id="a_Node000021"><a xlink:title=" ">
<polygon fill="#e0e0e0" stroke="#999999" points="680.12,-77.5 629.62,-77.5 629.62,-56.75 680.12,-56.75 680.12,-77.5"/>
<text text-anchor="middle" x="654.88" y="-64" font-family="Helvetica,sans-Serif" font-size="10.00">variant</text>
</a>
</g>
</g>
<!-- Node7&#45;&gt;Node21 -->
<g id="edge22_Node000007_Node000021" class="edge">
<title>Node7&#45;&gt;Node21</title>
<g id="a_edge22_Node000007_Node000021"><a xlink:title=" ">
<path fill="none" stroke="#63b8ff" d="M378.25,-169.8C400.97,-161.11 434.49,-147.75 462.88,-134.25 480.25,-125.99 483.1,-120.87 500.88,-113.5 539.86,-97.33 586.6,-84.42 618.28,-76.56"/>
<polygon fill="#63b8ff" stroke="#63b8ff" points="618.87,-80.02 627.76,-74.26 617.22,-73.22 618.87,-80.02"/>
</a>
</g>
</g>
<!-- Node9 -->
<g id="Node000009" class="node">
<title>Node9</title>
<g id="a_Node000009"><a xlink:title=" ">
<polygon fill="#e0e0e0" stroke="#999999" points="279.38,-77.5 248.38,-77.5 248.38,-56.75 279.38,-56.75 279.38,-77.5"/>
<text text-anchor="middle" x="263.88" y="-64" font-family="Helvetica,sans-Serif" font-size="10.00">list</text>
</a>
</g>
</g>
<!-- Node8&#45;&gt;Node9 -->
<g id="edge8_Node000008_Node000009" class="edge">
<title>Node8&#45;&gt;Node9</title>
<g id="a_edge8_Node000008_Node000009"><a xlink:title=" ">
<path fill="none" stroke="#63b8ff" d="M162.04,-113.09C183.26,-103.72 215.26,-89.59 237.72,-79.67"/>
<polygon fill="#63b8ff" stroke="#63b8ff" points="239.06,-82.91 246.8,-75.67 236.24,-76.5 239.06,-82.91"/>
</a>
</g>
</g>
<!-- Node8&#45;&gt;Node10 -->
<g id="edge9_Node000008_Node000010" class="edge">
<title>Node8&#45;&gt;Node10</title>
<g id="a_edge9_Node000008_Node000010"><a xlink:title=" ">
<path fill="none" stroke="#63b8ff" d="M172.95,-113.09C204.6,-103.72 252.36,-89.59 285.86,-79.67"/>
<polygon fill="#63b8ff" stroke="#63b8ff" points="286.58,-83.11 295.18,-76.91 284.59,-76.4 286.58,-83.11"/>
</a>
</g>
</g>
<!-- Node11 -->
<g id="Node000011" class="node">
<title>Node11</title>
<g id="a_Node000011"><a xlink:title=" ">
<polygon fill="#e0e0e0" stroke="#999999" points="427.38,-77.5 396.38,-77.5 396.38,-56.75 427.38,-56.75 427.38,-77.5"/>
<text text-anchor="middle" x="411.88" y="-64" font-family="Helvetica,sans-Serif" font-size="10.00">set</text>
</a>
</g>
</g>
<!-- Node8&#45;&gt;Node11 -->
<g id="edge10_Node000008_Node000011" class="edge">
<title>Node8&#45;&gt;Node11</title>
<g id="a_edge10_Node000008_Node000011"><a xlink:title=" ">
<path fill="none" stroke="#63b8ff" d="M188.82,-113.02C246.24,-101.46 339.39,-82.71 384.99,-73.54"/>
<polygon fill="#63b8ff" stroke="#63b8ff" points="385.42,-77.02 394.54,-71.61 384.04,-70.16 385.42,-77.02"/>
</a>
</g>
</g>
<!-- Node12 -->
<g id="Node000012" class="node">
<title>Node12</title>
<g id="a_Node000012"><a xlink:title=" ">
<polygon fill="#e0e0e0" stroke="#999999" points="907.75,-77.5 864,-77.5 864,-56.75 907.75,-56.75 907.75,-77.5"/>
<text text-anchor="middle" x="885.88" y="-64" font-family="Helvetica,sans-Serif" font-size="10.00">string</text>
</a>
</g>
</g>
<!-- Node8&#45;&gt;Node12 -->
<g id="edge11_Node000008_Node000012" class="edge">
<title>Node8&#45;&gt;Node12</title>
<g id="a_edge11_Node000008_Node000012"><a xlink:title=" ">
<path fill="none" stroke="#63b8ff" d="M192.08,-114.51C195.05,-114.14 198,-113.8 200.88,-113.5 486.74,-83.74 566.17,-126.87 852.53,-77.48"/>
<polygon fill="#63b8ff" stroke="#63b8ff" points="852.94,-80.96 862.19,-75.79 851.73,-74.07 852.94,-80.96"/>
</a>
</g>
</g>
<!-- Node13 -->
<g id="Node000013" class="node">
<title>Node13</title>
<g id="a_Node000013"><a xlink:title=" ">
<polygon fill="#e0e0e0" stroke="#999999" points="581,-77.5 508.75,-77.5 508.75,-56.75 581,-56.75 581,-77.5"/>
<text text-anchor="middle" x="544.88" y="-64" font-family="Helvetica,sans-Serif" font-size="10.00">string_view</text>
</a>
</g>
</g>
<!-- Node8&#45;&gt;Node13 -->
<g id="edge12_Node000008_Node000013" class="edge">
<title>Node8&#45;&gt;Node13</title>
<g id="a_edge12_Node000008_Node000013"><a xlink:title=" ">
<path fill="none" stroke="#63b8ff" d="M192.11,-114.77C195.07,-114.34 198.01,-113.91 200.88,-113.5 306.5,-98.42 430.63,-82.49 497.1,-74.1"/>
<polygon fill="#63b8ff" stroke="#63b8ff" points="497.45,-77.58 506.93,-72.86 496.57,-70.64 497.45,-77.58"/>
</a>
</g>
</g>
<!-- Node14 -->
<g id="Node000014" class="node">
<title>Node14</title>
<g id="a_Node000014"><a xlink:title=" ">
<polygon fill="#e0e0e0" stroke="#999999" points="37.75,-77.5 0,-77.5 0,-56.75 37.75,-56.75 37.75,-77.5"/>
<text text-anchor="middle" x="18.88" y="-64" font-family="Helvetica,sans-Serif" font-size="10.00">map</text>
</a>
</g>
</g>
<!-- Node8&#45;&gt;Node14 -->
<g id="edge13_Node000008_Node000014" class="edge">
<title>Node8&#45;&gt;Node14</title>
<g id="a_edge13_Node000008_Node000014"><a xlink:title=" ">
<path fill="none" stroke="#63b8ff" d="M118.24,-113.09C98.7,-104.25 69.79,-91.16 48.18,-81.38"/>
<polygon fill="#63b8ff" stroke="#63b8ff" points="49.86,-78.31 39.31,-77.37 46.98,-84.68 49.86,-78.31"/>
</a>
</g>
</g>
<!-- Node15 -->
<g id="Node000015" class="node">
<title>Node15</title>
<g id="a_Node000015"><a xlink:title=" ">
<polygon fill="#e0e0e0" stroke="#999999" points="102.25,-77.5 55.5,-77.5 55.5,-56.75 102.25,-56.75 102.25,-77.5"/>
<text text-anchor="middle" x="78.88" y="-64" font-family="Helvetica,sans-Serif" font-size="10.00">vector</text>
</a>
</g>
</g>
<!-- Node8&#45;&gt;Node15 -->
<g id="edge14_Node000008_Node000015" class="edge">
<title>Node8&#45;&gt;Node15</title>
<g id="a_edge14_Node000008_Node000015"><a xlink:title=" ">
<path fill="none" stroke="#63b8ff" d="M128.97,-113.09C120.38,-105.38 108.2,-94.45 98,-85.29"/>
<polygon fill="#63b8ff" stroke="#63b8ff" points="100.59,-82.91 90.81,-78.84 95.92,-88.12 100.59,-82.91"/>
</a>
</g>
</g>
<!-- Node16 -->
<g id="Node000016" class="node">
<title>Node16</title>
<g id="a_Node000016"><a xlink:title=" ">
<polygon fill="#e0e0e0" stroke="#999999" points="159.5,-77.5 120.25,-77.5 120.25,-56.75 159.5,-56.75 159.5,-77.5"/>
<text text-anchor="middle" x="139.88" y="-64" font-family="Helvetica,sans-Serif" font-size="10.00">span</text>
</a>
</g>
</g>
<!-- Node8&#45;&gt;Node16 -->
<g id="edge15_Node000008_Node000016" class="edge">
<title>Node8&#45;&gt;Node16</title>
<g id="a_edge15_Node000008_Node000016"><a xlink:title=" ">
<path fill="none" stroke="#63b8ff" d="M139.88,-113.09C139.88,-106.47 139.88,-97.47 139.88,-89.27"/>
<polygon fill="#63b8ff" stroke="#63b8ff" points="143.38,-89.34 139.88,-79.34 136.38,-89.34 143.38,-89.34"/>
</a>
</g>
</g>
<!-- Node17 -->
<g id="Node000017" class="node">
<title>Node17</title>
<g id="a_Node000017"><a xlink:title=" ">
<polygon fill="#e0e0e0" stroke="#999999" points="230.25,-77.5 177.5,-77.5 177.5,-56.75 230.25,-56.75 230.25,-77.5"/>
<text text-anchor="middle" x="203.88" y="-64" font-family="Helvetica,sans-Serif" font-size="10.00">stdint.h</text>
</a>
</g>
</g>
<!-- Node8&#45;&gt;Node17 -->
<g id="edge16_Node000008_Node000017" class="edge">
<title>Node8&#45;&gt;Node17</title>
<g id="a_edge16_Node000008_Node000017"><a xlink:title=" ">
<path fill="none" stroke="#63b8ff" d="M151.32,-113.09C160.33,-105.38 173.11,-94.45 183.81,-85.29"/>
<polygon fill="#63b8ff" stroke="#63b8ff" points="186.06,-87.97 191.38,-78.81 181.51,-82.65 186.06,-87.97"/>
</a>
</g>
</g>
<!-- Node22&#45;&gt;Node7 -->
<g id="edge50_Node000022_Node000007" class="edge">
<title>Node22&#45;&gt;Node7</title>
<g id="a_edge50_Node000022_Node000007"><a xlink:title=" ">
<path fill="none" stroke="#63b8ff" d="M429.93,-232.93C415.43,-223.39 393.16,-208.76 376.11,-197.56"/>
<polygon fill="#63b8ff" stroke="#63b8ff" points="378.32,-194.82 368.04,-192.25 374.48,-200.67 378.32,-194.82"/>
</a>
</g>
</g>
<!-- Node23 -->
<g id="Node000023" class="node">
<title>Node23</title>
<g id="a_Node000023"><a xlink:href="error_8hh.html" target="_top" xlink:title="This file defines two main structs/classes used in nix error handling.">
<polygon fill="white" stroke="#666666" points="925.5,-191 826.25,-191 826.25,-170.25 925.5,-170.25 925.5,-191"/>
<text text-anchor="middle" x="875.88" y="-177.5" font-family="Helvetica,sans-Serif" font-size="10.00">lix/libutil/error.hh</text>
</a>
</g>
</g>
<!-- Node22&#45;&gt;Node23 -->
<g id="edge25_Node000022_Node000023" class="edge">
<title>Node22&#45;&gt;Node23</title>
<g id="a_edge25_Node000022_Node000023"><a xlink:title=" ">
<path fill="none" stroke="#63b8ff" d="M514.12,-232.93C597.25,-221.14 735.34,-201.56 814.7,-190.3"/>
<polygon fill="#63b8ff" stroke="#63b8ff" points="815.06,-193.79 824.47,-188.92 814.07,-186.85 815.06,-193.79"/>
</a>
</g>
</g>
<!-- Node23&#45;&gt;Node3 -->
<g id="edge43_Node000023_Node000003" class="edge">
<title>Node23&#45;&gt;Node3</title>
<g id="a_edge43_Node000023_Node000003"><a xlink:title=" ">
<path fill="none" stroke="#63b8ff" d="M825.78,-172.85C767.14,-164.7 667.18,-150.12 581.88,-134.25 580.89,-134.07 579.89,-133.88 578.89,-133.68"/>
<polygon fill="#63b8ff" stroke="#63b8ff" points="579.95,-130.33 569.45,-131.77 578.56,-137.19 579.95,-130.33"/>
</a>
</g>
</g>
<!-- Node23&#45;&gt;Node6 -->
<g id="edge49_Node000023_Node000006" class="edge">
<title>Node23&#45;&gt;Node6</title>
<g id="a_edge49_Node000023_Node000006"><a xlink:title=" ">
<path fill="none" stroke="#63b8ff" d="M925.77,-177.26C1062.68,-170.57 1435.46,-150.91 1455.88,-134.25 1469.18,-123.39 1473.53,-103.88 1474.79,-88.85"/>
<polygon fill="#63b8ff" stroke="#63b8ff" points="1478.28,-89.22 1475.19,-79.09 1471.29,-88.94 1478.28,-89.22"/>
</a>
</g>
</g>
<!-- Node23&#45;&gt;Node9 -->
<g id="edge42_Node000023_Node000009" class="edge">
<title>Node23&#45;&gt;Node9</title>
<g id="a_edge42_Node000023_Node000009"><a xlink:title=" ">
<path fill="none" stroke="#63b8ff" d="M826.08,-175.84C772.64,-170.67 685.87,-159.04 614.88,-134.25 596.71,-127.91 595.19,-119.4 576.88,-113.5 457.17,-74.91 415.7,-107.34 290.84,-77.7"/>
<polygon fill="#63b8ff" stroke="#63b8ff" points="291.72,-74.31 281.17,-75.31 290.04,-81.1 291.72,-74.31"/>
</a>
</g>
</g>
<!-- Node23&#45;&gt;Node10 -->
<g id="edge44_Node000023_Node000010" class="edge">
<title>Node23&#45;&gt;Node10</title>
<g id="a_edge44_Node000023_Node000010"><a xlink:title=" ">
<path fill="none" stroke="#63b8ff" d="M859.37,-169.89C828.84,-151.92 766.17,-115.19 760.88,-113.5 602.22,-62.85 553.19,-97.76 387.88,-77.5 380.21,-76.56 372.03,-75.43 364.19,-74.3"/>
<polygon fill="#63b8ff" stroke="#63b8ff" points="364.96,-70.87 354.56,-72.86 363.93,-77.79 364.96,-70.87"/>
</a>
</g>
</g>
<!-- Node24 -->
<g id="Node000024" class="node">
<title>Node24</title>
<g id="a_Node000024"><a xlink:href="json-fwd_8hh_source.html" target="_top" xlink:title=" ">
<polygon fill="white" stroke="#666666" points="1289.88,-134.25 1171.88,-134.25 1171.88,-113.5 1289.88,-113.5 1289.88,-134.25"/>
<text text-anchor="middle" x="1230.88" y="-120.75" font-family="Helvetica,sans-Serif" font-size="10.00">lix/libutil/json&#45;fwd.hh</text>
</a>
</g>
</g>
<!-- Node23&#45;&gt;Node24 -->
<g id="edge26_Node000023_Node000024" class="edge">
<title>Node23&#45;&gt;Node24</title>
<g id="a_edge26_Node000023_Node000024"><a xlink:title=" ">
<path fill="none" stroke="#63b8ff" d="M925.98,-171.9C987.18,-162.46 1091.07,-146.44 1160.32,-135.76"/>
<polygon fill="#63b8ff" stroke="#63b8ff" points="1160.71,-139.24 1170.06,-134.25 1159.64,-132.32 1160.71,-139.24"/>
</a>
</g>
</g>
<!-- Node26 -->
<g id="Node000026" class="node">
<title>Node26</title>
<g id="a_Node000026"><a xlink:href="suggestions_8hh.html" target="_top" xlink:title=" ">
<polygon fill="white" stroke="#666666" points="943.5,-134.25 808.25,-134.25 808.25,-113.5 943.5,-113.5 943.5,-134.25"/>
<text text-anchor="middle" x="875.88" y="-120.75" font-family="Helvetica,sans-Serif" font-size="10.00">lix/libutil/suggestions.hh</text>
</a>
</g>
</g>
<!-- Node23&#45;&gt;Node26 -->
<g id="edge29_Node000023_Node000026" class="edge">
<title>Node23&#45;&gt;Node26</title>
<g id="a_edge29_Node000023_Node000026"><a xlink:title=" ">
<path fill="none" stroke="#63b8ff" d="M875.88,-169.84C875.88,-163.22 875.88,-154.22 875.88,-146.02"/>
<polygon fill="#63b8ff" stroke="#63b8ff" points="879.38,-146.09 875.88,-136.09 872.38,-146.09 879.38,-146.09"/>
</a>
</g>
</g>
<!-- Node29 -->
<g id="Node000029" class="node">
<title>Node29</title>
<g id="a_Node000029"><a xlink:href="libutil_2fmt_8hh.html" target="_top" xlink:title=" ">
<polygon fill="white" stroke="#666666" points="1153.88,-134.25 1059.88,-134.25 1059.88,-113.5 1153.88,-113.5 1153.88,-134.25"/>
<text text-anchor="middle" x="1106.88" y="-120.75" font-family="Helvetica,sans-Serif" font-size="10.00">lix/libutil/fmt.hh</text>
</a>
</g>
</g>
<!-- Node23&#45;&gt;Node29 -->
<g id="edge36_Node000023_Node000029" class="edge">
<title>Node23&#45;&gt;Node29</title>
<g id="a_edge36_Node000023_Node000029"><a xlink:title=" ">
<path fill="none" stroke="#63b8ff" d="M917.44,-169.77C955.75,-160.69 1012.79,-147.17 1054.27,-137.34"/>
<polygon fill="#63b8ff" stroke="#63b8ff" points="1054.86,-140.8 1063.78,-135.09 1053.24,-133.99 1054.86,-140.8"/>
</a>
</g>
</g>
<!-- Node33 -->
<g id="Node000033" class="node">
<title>Node33</title>
<g id="a_Node000033"><a xlink:title=" ">
<polygon fill="#e0e0e0" stroke="#999999" points="1357.38,-134.25 1308.38,-134.25 1308.38,-113.5 1357.38,-113.5 1357.38,-134.25"/>
<text text-anchor="middle" x="1332.88" y="-120.75" font-family="Helvetica,sans-Serif" font-size="10.00">cstring</text>
</a>
</g>
</g>
<!-- Node23&#45;&gt;Node33 -->
<g id="edge41_Node000023_Node000033" class="edge">
<title>Node23&#45;&gt;Node33</title>
<g id="a_edge41_Node000023_Node000033"><a xlink:title=" ">
<path fill="none" stroke="#63b8ff" d="M925.75,-176.9C1003.24,-172.1 1157.29,-160.26 1297.2,-134.27"/>
<polygon fill="#63b8ff" stroke="#63b8ff" points="1297.44,-137.78 1306.61,-132.49 1296.14,-130.9 1297.44,-137.78"/>
</a>
</g>
</g>
<!-- Node34 -->
<g id="Node000034" class="node">
<title>Node34</title>
<g id="a_Node000034"><a xlink:title=" ">
<polygon fill="#e0e0e0" stroke="#999999" points="1446.62,-134.25 1375.12,-134.25 1375.12,-113.5 1446.62,-113.5 1446.62,-134.25"/>
<text text-anchor="middle" x="1410.88" y="-120.75" font-family="Helvetica,sans-Serif" font-size="10.00">sys/types.h</text>
</a>
</g>
</g>
<!-- Node23&#45;&gt;Node34 -->
<g id="edge45_Node000023_Node000034" class="edge">
<title>Node23&#45;&gt;Node34</title>
<g id="a_edge45_Node000023_Node000034"><a xlink:title=" ">
<path fill="none" stroke="#63b8ff" d="M925.94,-176.95C1013.02,-171.88 1198.15,-159.21 1363.55,-134.61"/>
<polygon fill="#63b8ff" stroke="#63b8ff" points="1364.06,-138.07 1373.42,-133.12 1363.01,-131.15 1364.06,-138.07"/>
</a>
</g>
</g>
<!-- Node35 -->
<g id="Node000035" class="node">
<title>Node35</title>
<g id="a_Node000035"><a xlink:title=" ">
<polygon fill="#e0e0e0" stroke="#999999" points="687.5,-134.25 624.25,-134.25 624.25,-113.5 687.5,-113.5 687.5,-134.25"/>
<text text-anchor="middle" x="655.88" y="-120.75" font-family="Helvetica,sans-Serif" font-size="10.00">sys/stat.h</text>
</a>
</g>
</g>
<!-- Node23&#45;&gt;Node35 -->
<g id="edge46_Node000023_Node000035" class="edge">
<title>Node23&#45;&gt;Node35</title>
<g id="a_edge46_Node000023_Node000035"><a xlink:title=" ">
<path fill="none" stroke="#63b8ff" d="M836.29,-169.77C797.59,-160.14 738.82,-145.52 698.96,-135.6"/>
<polygon fill="#63b8ff" stroke="#63b8ff" points="700.02,-132.25 689.47,-133.23 698.33,-139.05 700.02,-132.25"/>
</a>
</g>
</g>
<!-- Node36 -->
<g id="Node000036" class="node">
<title>Node36</title>
<g id="a_Node000036"><a xlink:title=" ">
<polygon fill="#e0e0e0" stroke="#999999" points="752.25,-134.25 705.5,-134.25 705.5,-113.5 752.25,-113.5 752.25,-134.25"/>
<text text-anchor="middle" x="728.88" y="-120.75" font-family="Helvetica,sans-Serif" font-size="10.00">fcntl.h</text>
</a>
</g>
</g>
<!-- Node23&#45;&gt;Node36 -->
<g id="edge47_Node000023_Node000036" class="edge">
<title>Node23&#45;&gt;Node36</title>
<g id="a_edge47_Node000023_Node000036"><a xlink:title=" ">
<path fill="none" stroke="#63b8ff" d="M849.59,-169.84C825.46,-160.85 789.55,-147.47 763.16,-137.65"/>
<polygon fill="#63b8ff" stroke="#63b8ff" points="764.51,-134.41 753.92,-134.2 762.07,-140.97 764.51,-134.41"/>
</a>
</g>
</g>
<!-- Node37 -->
<g id="Node000037" class="node">
<title>Node37</title>
<g id="a_Node000037"><a xlink:title=" ">
<polygon fill="#e0e0e0" stroke="#999999" points="1042.12,-134.25 961.62,-134.25 961.62,-113.5 1042.12,-113.5 1042.12,-134.25"/>
<text text-anchor="middle" x="1001.88" y="-120.75" font-family="Helvetica,sans-Serif" font-size="10.00">system_error</text>
</a>
</g>
</g>
<!-- Node23&#45;&gt;Node37 -->
<g id="edge48_Node000023_Node000037" class="edge">
<title>Node23&#45;&gt;Node37</title>
<g id="a_edge48_Node000023_Node000037"><a xlink:title=" ">
<path fill="none" stroke="#63b8ff" d="M898.4,-169.84C918.11,-161.27 946.98,-148.73 969.23,-139.06"/>
<polygon fill="#63b8ff" stroke="#63b8ff" points="970.38,-142.38 978.16,-135.18 967.59,-135.96 970.38,-142.38"/>
</a>
</g>
</g>
<!-- Node24&#45;&gt;Node6 -->
<g id="edge28_Node000024_Node000006" class="edge">
<title>Node24&#45;&gt;Node6</title>
<g id="a_edge28_Node000024_Node000006"><a xlink:title=" ">
<path fill="none" stroke="#63b8ff" d="M1274.78,-113.02C1318.45,-103.22 1385.15,-88.26 1429.38,-78.33"/>
<polygon fill="#63b8ff" stroke="#63b8ff" points="1429.92,-81.8 1438.91,-76.2 1428.38,-74.97 1429.92,-81.8"/>
</a>
</g>
</g>
<!-- Node25 -->
<g id="Node000025" class="node">
<title>Node25</title>
<g id="a_Node000025"><a xlink:title=" ">
<polygon fill="#e0e0e0" stroke="#999999" points="1402.62,-77.5 1271.12,-77.5 1271.12,-56.75 1402.62,-56.75 1402.62,-77.5"/>
<text text-anchor="middle" x="1336.88" y="-64" font-family="Helvetica,sans-Serif" font-size="10.00">nlohmann/json_fwd.hpp</text>
</a>
</g>
</g>
<!-- Node24&#45;&gt;Node25 -->
<g id="edge27_Node000024_Node000025" class="edge">
<title>Node24&#45;&gt;Node25</title>
<g id="a_edge27_Node000024_Node000025"><a xlink:title=" ">
<path fill="none" stroke="#63b8ff" d="M1249.83,-113.09C1265.95,-104.76 1289.38,-92.66 1307.87,-83.11"/>
<polygon fill="#63b8ff" stroke="#63b8ff" points="1309.46,-86.22 1316.74,-78.52 1306.25,-80 1309.46,-86.22"/>
</a>
</g>
</g>
<!-- Node26&#45;&gt;Node11 -->
<g id="edge32_Node000026_Node000011" class="edge">
<title>Node26&#45;&gt;Node11</title>
<g id="a_edge32_Node000026_Node000011"><a xlink:title=" ">
<path fill="none" stroke="#63b8ff" d="M807.91,-114.86C703.92,-102.59 509.92,-79.69 438.86,-71.31"/>
<polygon fill="#63b8ff" stroke="#63b8ff" points="439.64,-67.88 429.3,-70.18 438.82,-74.83 439.64,-67.88"/>
</a>
</g>
</g>
<!-- Node26&#45;&gt;Node12 -->
<g id="edge34_Node000026_Node000012" class="edge">
<title>Node26&#45;&gt;Node12</title>
<g id="a_edge34_Node000026_Node000012"><a xlink:title=" ">
<path fill="none" stroke="#63b8ff" d="M877.66,-113.09C878.89,-106.39 880.55,-97.26 882.07,-88.98"/>
<polygon fill="#63b8ff" stroke="#63b8ff" points="885.48,-89.78 883.83,-79.32 878.59,-88.53 885.48,-89.78"/>
</a>
</g>
</g>
<!-- Node26&#45;&gt;Node13 -->
<g id="edge33_Node000026_Node000013" class="edge">
<title>Node26&#45;&gt;Node13</title>
<g id="a_edge33_Node000026_Node000013"><a xlink:title=" ">
<path fill="none" stroke="#63b8ff" d="M816.32,-113.02C752.28,-102.43 651.73,-85.8 592.66,-76.03"/>
<polygon fill="#63b8ff" stroke="#63b8ff" points="593.35,-72.6 582.91,-74.42 592.21,-79.5 593.35,-72.6"/>
</a>
</g>
</g>
<!-- Node26&#45;&gt;Node21 -->
<g id="edge35_Node000026_Node000021" class="edge">
<title>Node26&#45;&gt;Node21</title>
<g id="a_edge35_Node000026_Node000021"><a xlink:title=" ">
<path fill="none" stroke="#63b8ff" d="M836.11,-113.02C795.05,-102.85 731.52,-87.11 691.61,-77.23"/>
<polygon fill="#63b8ff" stroke="#63b8ff" points="692.54,-73.85 682,-74.84 690.86,-80.65 692.54,-73.85"/>
</a>
</g>
</g>
<!-- Node27 -->
<g id="Node000027" class="node">
<title>Node27</title>
<g id="a_Node000027"><a xlink:href="comparator_8hh.html" target="_top" xlink:title=" ">
<polygon fill="white" stroke="#666666" points="846,-77.5 713.75,-77.5 713.75,-56.75 846,-56.75 846,-77.5"/>
<text text-anchor="middle" x="779.88" y="-64" font-family="Helvetica,sans-Serif" font-size="10.00">lix/libutil/comparator.hh</text>
</a>
</g>
</g>
<!-- Node26&#45;&gt;Node27 -->
<g id="edge30_Node000026_Node000027" class="edge">
<title>Node26&#45;&gt;Node27</title>
<g id="a_edge30_Node000026_Node000027"><a xlink:title=" ">
<path fill="none" stroke="#63b8ff" d="M858.71,-113.09C844.24,-104.83 823.29,-92.88 806.62,-83.38"/>
<polygon fill="#63b8ff" stroke="#63b8ff" points="808.62,-80.49 798.2,-78.58 805.16,-86.57 808.62,-80.49"/>
</a>
</g>
</g>
<!-- Node28 -->
<g id="Node000028" class="node">
<title>Node28</title>
<g id="a_Node000028"><a xlink:title=" ">
<polygon fill="#e0e0e0" stroke="#999999" points="800.25,-20.75 759.5,-20.75 759.5,0 800.25,0 800.25,-20.75"/>
<text text-anchor="middle" x="779.88" y="-7.25" font-family="Helvetica,sans-Serif" font-size="10.00">tuple</text>
</a>
</g>
</g>
<!-- Node27&#45;&gt;Node28 -->
<g id="edge31_Node000027_Node000028" class="edge">
<title>Node27&#45;&gt;Node28</title>
<g id="a_edge31_Node000027_Node000028"><a xlink:title=" ">
<path fill="none" stroke="#63b8ff" d="M779.88,-56.34C779.88,-49.72 779.88,-40.72 779.88,-32.52"/>
<polygon fill="#63b8ff" stroke="#63b8ff" points="783.38,-32.59 779.88,-22.59 776.38,-32.59 783.38,-32.59"/>
</a>
</g>
</g>
<!-- Node29&#45;&gt;Node12 -->
<g id="edge38_Node000029_Node000012" class="edge">
<title>Node29&#45;&gt;Node12</title>
<g id="a_edge38_Node000029_Node000012"><a xlink:title=" ">
<path fill="none" stroke="#63b8ff" d="M1067.11,-113.02C1024.9,-102.57 958.93,-86.22 919.3,-76.41"/>
<polygon fill="#63b8ff" stroke="#63b8ff" points="920.16,-73.01 909.62,-74.01 918.48,-79.81 920.16,-73.01"/>
</a>
</g>
</g>
<!-- Node30 -->
<g id="Node000030" class="node">
<title>Node30</title>
<g id="a_Node000030"><a xlink:title=" ">
<polygon fill="#e0e0e0" stroke="#999999" points="996.62,-77.5 937.12,-77.5 937.12,-56.75 996.62,-56.75 996.62,-77.5"/>
<text text-anchor="middle" x="966.88" y="-64" font-family="Helvetica,sans-Serif" font-size="10.00">iostream</text>
</a>
</g>
</g>
<!-- Node29&#45;&gt;Node30 -->
<g id="edge37_Node000029_Node000030" class="edge">
<title>Node29&#45;&gt;Node30</title>
<g id="a_edge37_Node000029_Node000030"><a xlink:title=" ">
<path fill="none" stroke="#63b8ff" d="M1081.85,-113.09C1059.65,-104.41 1026.99,-91.63 1002.14,-81.92"/>
<polygon fill="#63b8ff" stroke="#63b8ff" points="1003.69,-78.76 993.1,-78.38 1001.14,-85.28 1003.69,-78.76"/>
</a>
</g>
</g>
<!-- Node31 -->
<g id="Node000031" class="node">
<title>Node31</title>
<g id="a_Node000031"><a xlink:title=" ">
<polygon fill="#e0e0e0" stroke="#999999" points="1114.88,-77.5 1014.88,-77.5 1014.88,-56.75 1114.88,-56.75 1114.88,-77.5"/>
<text text-anchor="middle" x="1064.88" y="-64" font-family="Helvetica,sans-Serif" font-size="10.00">boost/format.hpp</text>
</a>
</g>
</g>
<!-- Node29&#45;&gt;Node31 -->
<g id="edge39_Node000029_Node000031" class="edge">
<title>Node29&#45;&gt;Node31</title>
<g id="a_edge39_Node000029_Node000031"><a xlink:title=" ">
<path fill="none" stroke="#63b8ff" d="M1099.37,-113.09C1093.75,-105.77 1085.91,-95.54 1079.12,-86.69"/>
<polygon fill="#63b8ff" stroke="#63b8ff" points="1082.1,-84.83 1073.24,-79.03 1076.55,-89.09 1082.1,-84.83"/>
</a>
</g>
</g>
<!-- Node32 -->
<g id="Node000032" class="node">
<title>Node32</title>
<g id="a_Node000032"><a xlink:href="ansicolor_8hh.html" target="_top" xlink:title="Some ANSI escape sequences.">
<polygon fill="white" stroke="#666666" points="1253,-77.5 1132.75,-77.5 1132.75,-56.75 1253,-56.75 1253,-77.5"/>
<text text-anchor="middle" x="1192.88" y="-64" font-family="Helvetica,sans-Serif" font-size="10.00">lix/libutil/ansicolor.hh</text>
</a>
</g>
</g>
<!-- Node29&#45;&gt;Node32 -->
<g id="edge40_Node000029_Node000032" class="edge">
<title>Node29&#45;&gt;Node32</title>
<g id="a_edge40_Node000029_Node000032"><a xlink:title=" ">
<path fill="none" stroke="#63b8ff" d="M1122.25,-113.09C1134.97,-104.99 1153.28,-93.33 1168.07,-83.92"/>
<polygon fill="#63b8ff" stroke="#63b8ff" points="1169.8,-86.96 1176.36,-78.64 1166.04,-81.06 1169.8,-86.96"/>
</a>
</g>
</g>
</g>
</svg>
