<?xml version="1.0" encoding="UTF-8" standalone="no"?>
<!DOCTYPE svg PUBLIC "-//W3C//DTD SVG 1.1//EN"
 "http://www.w3.org/Graphics/SVG/1.1/DTD/svg11.dtd">
<!-- Generated by graphviz version 12.2.1 (0)
 -->
<!-- Title: lix/libutil/finally.hh Pages: 1 -->
<svg width="280pt" height="86pt"
 viewBox="0.00 0.00 279.62 85.50" xmlns="http://www.w3.org/2000/svg" xmlns:xlink="http://www.w3.org/1999/xlink">
<g id="graph0" class="graph" transform="scale(1 1) rotate(0) translate(4 81.5)">
<title>lix/libutil/finally.hh</title>
<!-- Node1 -->
<g id="Node000001" class="node">
<title>Node1</title>
<g id="a_Node000001"><a xlink:title=" ">
<polygon fill="#999999" stroke="#666666" points="200.12,-77.5 94.88,-77.5 94.88,-56.75 200.12,-56.75 200.12,-77.5"/>
<text text-anchor="middle" x="147.5" y="-64" font-family="Helvetica,sans-Serif" font-size="10.00">lix/libutil/finally.hh</text>
</a>
</g>
</g>
<!-- Node2 -->
<g id="Node000002" class="node">
<title>Node2</title>
<g id="a_Node000002"><a xlink:href="repl-interacter_8hh.html" target="_top" xlink:title=" ">
<polygon fill="white" stroke="#666666" points="151,-20.75 0,-20.75 0,0 151,0 151,-20.75"/>
<text text-anchor="middle" x="75.5" y="-7.25" font-family="Helvetica,sans-Serif" font-size="10.00">lix/libcmd/repl&#45;interacter.hh</text>
</a>
</g>
</g>
<!-- Node1&#45;&gt;Node2 -->
<g id="edge1_Node000001_Node000002" class="edge">
<title>Node1&#45;&gt;Node2</title>
<g id="a_edge1_Node000001_Node000002"><a xlink:title=" ">
<path fill="none" stroke="#63b8ff" d="M125.52,-49.41C113.32,-40.13 98.57,-28.92 88.26,-21.08"/>
<polygon fill="#63b8ff" stroke="#63b8ff" points="123.34,-52.15 133.42,-55.42 127.58,-46.58 123.34,-52.15"/>
</a>
</g>
</g>
<!-- Node3 -->
<g id="Node000003" class="node">
<title>Node3</title>
<g id="a_Node000003"><a xlink:href="nix_2daemon_8cc.html" target="_top" xlink:title=" ">
<polygon fill="white" stroke="#666666" points="271.62,-20.75 169.38,-20.75 169.38,0 271.62,0 271.62,-20.75"/>
<text text-anchor="middle" x="220.5" y="-7.25" font-family="Helvetica,sans-Serif" font-size="10.00">lix/nix/daemon.cc</text>
</a>
</g>
</g>
<!-- Node1&#45;&gt;Node3 -->
<g id="edge2_Node000001_Node000003" class="edge">
<title>Node1&#45;&gt;Node3</title>
<g id="a_edge2_Node000001_Node000003"><a xlink:title=" ">
<path fill="none" stroke="#63b8ff" d="M169.42,-49.69C181.86,-40.36 197.01,-29 207.56,-21.08"/>
<polygon fill="#63b8ff" stroke="#63b8ff" points="167.66,-46.63 161.76,-55.43 171.86,-52.23 167.66,-46.63"/>
</a>
</g>
</g>
</g>
</svg>
