<?xml version="1.0" encoding="UTF-8" standalone="no"?>
<!DOCTYPE svg PUBLIC "-//W3C//DTD SVG 1.1//EN"
 "http://www.w3.org/Graphics/SVG/1.1/DTD/svg11.dtd">
<!-- Generated by graphviz version 12.2.1 (0)
 -->
<!-- Title: lix/libstore/globals.hh Pages: 1 -->
<svg width="2071pt" height="459pt"
 viewBox="0.00 0.00 2071.14 458.50" xmlns="http://www.w3.org/2000/svg" xmlns:xlink="http://www.w3.org/1999/xlink">
<g id="graph0" class="graph" transform="scale(1 1) rotate(0) translate(4 454.5)">
<title>lix/libstore/globals.hh</title>
<!-- Node1 -->
<g id="Node000001" class="node">
<title>Node1</title>
<g id="a_Node000001"><a xlink:title=" ">
<polygon fill="#999999" stroke="#666666" points="484.76,-450.5 363.76,-450.5 363.76,-429.75 484.76,-429.75 484.76,-450.5"/>
<text text-anchor="middle" x="424.26" y="-437" font-family="Helvetica,sans-Serif" font-size="10.00">lix/libstore/globals.hh</text>
</a>
</g>
</g>
<!-- Node2 -->
<g id="Node000002" class="node">
<title>Node2</title>
<g id="a_Node000002"><a xlink:href="store-api_8hh.html" target="_top" xlink:title=" ">
<polygon fill="white" stroke="#666666" points="934.01,-393.75 838.51,-393.75 838.51,-360.25 934.01,-360.25 934.01,-393.75"/>
<text text-anchor="start" x="846.51" y="-380.25" font-family="Helvetica,sans-Serif" font-size="10.00">lix/libstore/store</text>
<text text-anchor="middle" x="886.26" y="-367.5" font-family="Helvetica,sans-Serif" font-size="10.00">&#45;api.hh</text>
</a>
</g>
</g>
<!-- Node1&#45;&gt;Node2 -->
<g id="edge1_Node000001_Node000002" class="edge">
<title>Node1&#45;&gt;Node2</title>
<g id="a_edge1_Node000001_Node000002"><a xlink:title=" ">
<path fill="none" stroke="#63b8ff" d="M496.4,-429.58C591.7,-416.97 756.95,-395.11 838.26,-384.35"/>
<polygon fill="#63b8ff" stroke="#63b8ff" points="496.09,-426.09 486.64,-430.87 497.01,-433.03 496.09,-426.09"/>
</a>
</g>
</g>
<!-- Node8 -->
<g id="Node000008" class="node">
<title>Node8</title>
<g id="a_Node000008"><a xlink:href="nix_2daemon_8cc.html" target="_top" xlink:title=" ">
<polygon fill="white" stroke="#666666" points="365.39,-27.12 263.14,-27.12 263.14,-6.38 365.39,-6.38 365.39,-27.12"/>
<text text-anchor="middle" x="314.26" y="-13.62" font-family="Helvetica,sans-Serif" font-size="10.00">lix/nix/daemon.cc</text>
</a>
</g>
</g>
<!-- Node1&#45;&gt;Node8 -->
<g id="edge53_Node000001_Node000008" class="edge">
<title>Node1&#45;&gt;Node8</title>
<g id="a_edge53_Node000001_Node000008"><a xlink:title=" ">
<path fill="none" stroke="#63b8ff" d="M352.03,-431.78C231.46,-417.5 2.26,-380.85 2.26,-308.5 2.26,-308.5 2.26,-308.5 2.26,-154.75 2.26,-115.93 -6.79,-96.33 21.26,-69.5 55.14,-37.1 188.26,-24.63 262.87,-20.11"/>
<polygon fill="#63b8ff" stroke="#63b8ff" points="351.51,-435.25 361.85,-432.92 352.32,-428.29 351.51,-435.25"/>
</a>
</g>
</g>
<!-- Node3 -->
<g id="Node000003" class="node">
<title>Node3</title>
<g id="a_Node000003"><a xlink:href="installables_8hh.html" target="_top" xlink:title=" ">
<polygon fill="white" stroke="#666666" points="783.39,-317.88 645.14,-317.88 645.14,-297.12 783.39,-297.12 783.39,-317.88"/>
<text text-anchor="middle" x="714.26" y="-304.38" font-family="Helvetica,sans-Serif" font-size="10.00">lix/libcmd/installables.hh</text>
</a>
</g>
</g>
<!-- Node2&#45;&gt;Node3 -->
<g id="edge2_Node000002_Node000003" class="edge">
<title>Node2&#45;&gt;Node3</title>
<g id="a_edge2_Node000002_Node000003"><a xlink:title=" ">
<path fill="none" stroke="#63b8ff" d="M834.7,-355.76C803.2,-343.4 764.32,-328.15 739.41,-318.37"/>
<polygon fill="#63b8ff" stroke="#63b8ff" points="833.07,-358.88 843.66,-359.28 835.63,-352.37 833.07,-358.88"/>
</a>
</g>
</g>
<!-- Node10 -->
<g id="Node000010" class="node">
<title>Node10</title>
<g id="a_Node000010"><a xlink:href="fetch-to-store_8hh.html" target="_top" xlink:title=" ">
<polygon fill="white" stroke="#666666" points="1175.51,-324.25 1065.01,-324.25 1065.01,-290.75 1175.51,-290.75 1175.51,-324.25"/>
<text text-anchor="start" x="1073.01" y="-310.75" font-family="Helvetica,sans-Serif" font-size="10.00">lix/libfetchers/fetch</text>
<text text-anchor="middle" x="1120.26" y="-298" font-family="Helvetica,sans-Serif" font-size="10.00">&#45;to&#45;store.hh</text>
</a>
</g>
</g>
<!-- Node2&#45;&gt;Node10 -->
<g id="edge10_Node000002_Node000010" class="edge">
<title>Node2&#45;&gt;Node10</title>
<g id="a_edge10_Node000002_Node000010"><a xlink:title=" ">
<path fill="none" stroke="#63b8ff" d="M945.48,-358.92C982.11,-348.35 1028.81,-334.88 1064.73,-324.52"/>
<polygon fill="#63b8ff" stroke="#63b8ff" points="944.56,-355.54 935.92,-361.68 946.5,-362.27 944.56,-355.54"/>
</a>
</g>
</g>
<!-- Node11 -->
<g id="Node000011" class="node">
<title>Node11</title>
<g id="a_Node000011"><a xlink:href="binary-cache-store_8hh.html" target="_top" xlink:title=" ">
<polygon fill="white" stroke="#666666" points="574.01,-248.38 472.51,-248.38 472.51,-214.88 574.01,-214.88 574.01,-248.38"/>
<text text-anchor="start" x="480.51" y="-234.88" font-family="Helvetica,sans-Serif" font-size="10.00">lix/libstore/binary</text>
<text text-anchor="middle" x="523.26" y="-222.12" font-family="Helvetica,sans-Serif" font-size="10.00">&#45;cache&#45;store.hh</text>
</a>
</g>
</g>
<!-- Node2&#45;&gt;Node11 -->
<g id="edge11_Node000002_Node000011" class="edge">
<title>Node2&#45;&gt;Node11</title>
<g id="a_edge11_Node000002_Node000011"><a xlink:title=" ">
<path fill="none" stroke="#63b8ff" d="M827.02,-376.32C766.94,-374.2 673.12,-363.96 603.26,-324.25 571.14,-305.99 545.55,-269.88 532.57,-248.85"/>
<polygon fill="#63b8ff" stroke="#63b8ff" points="826.59,-379.81 836.69,-376.6 826.79,-372.82 826.59,-379.81"/>
</a>
</g>
</g>
<!-- Node13 -->
<g id="Node000013" class="node">
<title>Node13</title>
<g id="a_Node000013"><a xlink:href="derivation-goal_8hh.html" target="_top" xlink:title=" ">
<polygon fill="white" stroke="#666666" points="1415.39,-248.38 1307.14,-248.38 1307.14,-214.88 1415.39,-214.88 1415.39,-248.38"/>
<text text-anchor="start" x="1315.14" y="-234.88" font-family="Helvetica,sans-Serif" font-size="10.00">lix/libstore/build</text>
<text text-anchor="middle" x="1361.26" y="-222.12" font-family="Helvetica,sans-Serif" font-size="10.00">/derivation&#45;goal.hh</text>
</a>
</g>
</g>
<!-- Node2&#45;&gt;Node13 -->
<g id="edge13_Node000002_Node000013" class="edge">
<title>Node2&#45;&gt;Node13</title>
<g id="a_edge13_Node000002_Node000013"><a xlink:title=" ">
<path fill="none" stroke="#63b8ff" d="M944.96,-357.15C967.97,-348.62 994.11,-337.47 1016.26,-324.25 1036.18,-312.37 1035.12,-300.26 1056.26,-290.75 1155.03,-246.32 1192.08,-280.55 1297.26,-254.75 1304,-253.1 1311.03,-251.03 1317.86,-248.83"/>
<polygon fill="#63b8ff" stroke="#63b8ff" points="943.93,-353.8 935.72,-360.49 946.31,-360.39 943.93,-353.8"/>
</a>
</g>
</g>
<!-- Node15 -->
<g id="Node000015" class="node">
<title>Node15</title>
<g id="a_Node000015"><a xlink:href="drv-output-substitution-goal_8hh.html" target="_top" xlink:title=" ">
<polygon fill="white" stroke="#666666" points="1041.01,-254.75 909.51,-254.75 909.51,-208.5 1041.01,-208.5 1041.01,-254.75"/>
<text text-anchor="start" x="917.51" y="-241.25" font-family="Helvetica,sans-Serif" font-size="10.00">lix/libstore/build</text>
<text text-anchor="start" x="917.51" y="-228.5" font-family="Helvetica,sans-Serif" font-size="10.00">/drv&#45;output&#45;substitution</text>
<text text-anchor="middle" x="975.26" y="-215.75" font-family="Helvetica,sans-Serif" font-size="10.00">&#45;goal.hh</text>
</a>
</g>
</g>
<!-- Node2&#45;&gt;Node15 -->
<g id="edge15_Node000002_Node000015" class="edge">
<title>Node2&#45;&gt;Node15</title>
<g id="a_edge15_Node000002_Node000015"><a xlink:title=" ">
<path fill="none" stroke="#63b8ff" d="M856.92,-352.54C838.9,-335.19 821.64,-311.15 835.26,-290.75 844.32,-277.18 877.45,-263.12 909.21,-252.23"/>
<polygon fill="#63b8ff" stroke="#63b8ff" points="854.27,-354.86 864.03,-358.98 858.97,-349.67 854.27,-354.86"/>
</a>
</g>
</g>
<!-- Node16 -->
<g id="Node000016" class="node">
<title>Node16</title>
<g id="a_Node000016"><a xlink:href="goal_8hh.html" target="_top" xlink:title=" ">
<polygon fill="white" stroke="#666666" points="971.64,-324.25 876.89,-324.25 876.89,-290.75 971.64,-290.75 971.64,-324.25"/>
<text text-anchor="start" x="884.89" y="-310.75" font-family="Helvetica,sans-Serif" font-size="10.00">lix/libstore/build</text>
<text text-anchor="middle" x="924.26" y="-298" font-family="Helvetica,sans-Serif" font-size="10.00">/goal.hh</text>
</a>
</g>
</g>
<!-- Node2&#45;&gt;Node16 -->
<g id="edge16_Node000002_Node000016" class="edge">
<title>Node2&#45;&gt;Node16</title>
<g id="a_edge16_Node000002_Node000016"><a xlink:title=" ">
<path fill="none" stroke="#63b8ff" d="M900.9,-349.99C905.76,-341.36 911.03,-332.01 915.32,-324.38"/>
<polygon fill="#63b8ff" stroke="#63b8ff" points="897.87,-348.25 896.01,-358.68 903.97,-351.69 897.87,-348.25"/>
</a>
</g>
</g>
<!-- Node17 -->
<g id="Node000017" class="node">
<title>Node17</title>
<g id="a_Node000017"><a xlink:href="substitution-goal_8hh.html" target="_top" xlink:title=" ">
<polygon fill="white" stroke="#666666" points="1175.51,-248.38 1059.01,-248.38 1059.01,-214.88 1175.51,-214.88 1175.51,-248.38"/>
<text text-anchor="start" x="1067.01" y="-234.88" font-family="Helvetica,sans-Serif" font-size="10.00">lix/libstore/build</text>
<text text-anchor="middle" x="1117.26" y="-222.12" font-family="Helvetica,sans-Serif" font-size="10.00">/substitution&#45;goal.hh</text>
</a>
</g>
</g>
<!-- Node2&#45;&gt;Node17 -->
<g id="edge21_Node000002_Node000017" class="edge">
<title>Node2&#45;&gt;Node17</title>
<g id="a_edge21_Node000002_Node000017"><a xlink:title=" ">
<path fill="none" stroke="#63b8ff" d="M870.48,-349.93C861.59,-331.51 854.7,-307.26 868.26,-290.75 920.61,-227.04 970.52,-275.72 1050.26,-254.75 1056.9,-253.01 1063.84,-250.97 1070.63,-248.84"/>
<polygon fill="#63b8ff" stroke="#63b8ff" points="867.33,-351.46 875.11,-358.66 873.52,-348.19 867.33,-351.46"/>
</a>
</g>
</g>
<!-- Node18 -->
<g id="Node000018" class="node">
<title>Node18</title>
<g id="a_Node000018"><a xlink:href="worker_8hh.html" target="_top" xlink:title=" ">
<polygon fill="white" stroke="#666666" points="1288.64,-248.38 1193.89,-248.38 1193.89,-214.88 1288.64,-214.88 1288.64,-248.38"/>
<text text-anchor="start" x="1201.89" y="-234.88" font-family="Helvetica,sans-Serif" font-size="10.00">lix/libstore/build</text>
<text text-anchor="middle" x="1241.26" y="-222.12" font-family="Helvetica,sans-Serif" font-size="10.00">/worker.hh</text>
</a>
</g>
</g>
<!-- Node2&#45;&gt;Node18 -->
<g id="edge22_Node000002_Node000018" class="edge">
<title>Node2&#45;&gt;Node18</title>
<g id="a_edge22_Node000002_Node000018"><a xlink:title=" ">
<path fill="none" stroke="#63b8ff" d="M928.28,-354.71C944.82,-345.85 963.77,-335.11 980.26,-324.25 1000.49,-310.92 1001.35,-301.09 1023.26,-290.75 1089.57,-259.46 1114.11,-276.08 1184.26,-254.75 1189.95,-253.02 1195.88,-250.99 1201.67,-248.87"/>
<polygon fill="#63b8ff" stroke="#63b8ff" points="926.87,-351.49 919.67,-359.26 930.14,-357.68 926.87,-351.49"/>
</a>
</g>
</g>
<!-- Node19 -->
<g id="Node000019" class="node">
<title>Node19</title>
<g id="a_Node000019"><a xlink:href="buildenv_8hh.html" target="_top" xlink:title=" ">
<polygon fill="white" stroke="#666666" points="1300.64,-324.25 1193.89,-324.25 1193.89,-290.75 1300.64,-290.75 1300.64,-324.25"/>
<text text-anchor="start" x="1201.89" y="-310.75" font-family="Helvetica,sans-Serif" font-size="10.00">lix/libstore/builtins</text>
<text text-anchor="middle" x="1247.26" y="-298" font-family="Helvetica,sans-Serif" font-size="10.00">/buildenv.hh</text>
</a>
</g>
</g>
<!-- Node2&#45;&gt;Node19 -->
<g id="edge23_Node000002_Node000019" class="edge">
<title>Node2&#45;&gt;Node19</title>
<g id="a_edge23_Node000002_Node000019"><a xlink:title=" ">
<path fill="none" stroke="#63b8ff" d="M945.68,-366.99C1006,-357.54 1101.97,-341.66 1184.26,-324.25 1187.35,-323.6 1190.52,-322.9 1193.71,-322.17"/>
<polygon fill="#63b8ff" stroke="#63b8ff" points="945.31,-363.51 935.97,-368.51 946.38,-370.42 945.31,-363.51"/>
</a>
</g>
</g>
<!-- Node20 -->
<g id="Node000020" class="node">
<title>Node20</title>
<g id="a_Node000020"><a xlink:href="libstore_2daemon_8hh.html" target="_top" xlink:title=" ">
<polygon fill="white" stroke="#666666" points="156.01,-96.62 30.51,-96.62 30.51,-75.88 156.01,-75.88 156.01,-96.62"/>
<text text-anchor="middle" x="93.26" y="-83.12" font-family="Helvetica,sans-Serif" font-size="10.00">lix/libstore/daemon.hh</text>
</a>
</g>
</g>
<!-- Node2&#45;&gt;Node20 -->
<g id="edge24_Node000002_Node000020" class="edge">
<title>Node2&#45;&gt;Node20</title>
<g id="a_edge24_Node000002_Node000020"><a xlink:title=" ">
<path fill="none" stroke="#63b8ff" d="M827.06,-374.38C673.52,-369.76 270.86,-354.84 219.26,-324.25 131.07,-271.97 101.41,-134.52 94.81,-96.89"/>
<polygon fill="#63b8ff" stroke="#63b8ff" points="826.5,-377.86 836.6,-374.66 826.7,-370.87 826.5,-377.86"/>
</a>
</g>
</g>
<!-- Node21 -->
<g id="Node000021" class="node">
<title>Node21</title>
<g id="a_Node000021"><a xlink:href="gc-store_8hh.html" target="_top" xlink:title=" ">
<polygon fill="white" stroke="#666666" points="365.01,-317.88 239.51,-317.88 239.51,-297.12 365.01,-297.12 365.01,-317.88"/>
<text text-anchor="middle" x="302.26" y="-304.38" font-family="Helvetica,sans-Serif" font-size="10.00">lix/libstore/gc&#45;store.hh</text>
</a>
</g>
</g>
<!-- Node2&#45;&gt;Node21 -->
<g id="edge26_Node000002_Node000021" class="edge">
<title>Node2&#45;&gt;Node21</title>
<g id="a_edge26_Node000002_Node000021"><a xlink:title=" ">
<path fill="none" stroke="#63b8ff" d="M826.81,-371.87C731.85,-364.84 540.26,-348.87 379.26,-324.25 368.61,-322.62 357.2,-320.5 346.51,-318.34"/>
<polygon fill="#63b8ff" stroke="#63b8ff" points="826.44,-375.35 836.67,-372.59 826.95,-368.37 826.44,-375.35"/>
</a>
</g>
</g>
<!-- Node22 -->
<g id="Node000022" class="node">
<title>Node22</title>
<g id="a_Node000022"><a xlink:href="local-fs-store_8hh.html" target="_top" xlink:title=" ">
<polygon fill="white" stroke="#666666" points="440.26,-248.38 346.26,-248.38 346.26,-214.88 440.26,-214.88 440.26,-248.38"/>
<text text-anchor="start" x="354.26" y="-234.88" font-family="Helvetica,sans-Serif" font-size="10.00">lix/libstore/local</text>
<text text-anchor="middle" x="393.26" y="-222.12" font-family="Helvetica,sans-Serif" font-size="10.00">&#45;fs&#45;store.hh</text>
</a>
</g>
</g>
<!-- Node2&#45;&gt;Node22 -->
<g id="edge39_Node000002_Node000022" class="edge">
<title>Node2&#45;&gt;Node22</title>
<g id="a_edge39_Node000002_Node000022"><a xlink:title=" ">
<path fill="none" stroke="#63b8ff" d="M826.96,-373.38C706.59,-367.52 442.42,-351.65 412.26,-324.25 391.22,-305.13 390.07,-269.34 391.45,-248.6"/>
<polygon fill="#63b8ff" stroke="#63b8ff" points="826.48,-376.86 836.63,-373.84 826.81,-369.87 826.48,-376.86"/>
</a>
</g>
</g>
<!-- Node24 -->
<g id="Node000024" class="node">
<title>Node24</title>
<g id="a_Node000024"><a xlink:href="local-store_8hh.html" target="_top" xlink:title=" ">
<polygon fill="white" stroke="#666666" points="521.26,-103 427.26,-103 427.26,-69.5 521.26,-69.5 521.26,-103"/>
<text text-anchor="start" x="435.26" y="-89.5" font-family="Helvetica,sans-Serif" font-size="10.00">lix/libstore/local</text>
<text text-anchor="middle" x="474.26" y="-76.75" font-family="Helvetica,sans-Serif" font-size="10.00">&#45;store.hh</text>
</a>
</g>
</g>
<!-- Node2&#45;&gt;Node24 -->
<g id="edge40_Node000002_Node000024" class="edge">
<title>Node2&#45;&gt;Node24</title>
<g id="a_edge40_Node000002_Node000024"><a xlink:title=" ">
<path fill="none" stroke="#63b8ff" d="M826.82,-370.94C761.73,-364.18 663.01,-349.97 636.26,-324.25 575.11,-265.45 644.74,-204.03 590.26,-139 580.74,-127.63 549.2,-113.92 521.41,-103.47"/>
<polygon fill="#63b8ff" stroke="#63b8ff" points="826.35,-374.41 836.65,-371.93 827.05,-367.45 826.35,-374.41"/>
</a>
</g>
</g>
<!-- Node26 -->
<g id="Node000026" class="node">
<title>Node26</title>
<g id="a_Node000026"><a xlink:href="remote-store_8hh.html" target="_top" xlink:title=" ">
<polygon fill="white" stroke="#666666" points="327.26,-248.38 221.26,-248.38 221.26,-214.88 327.26,-214.88 327.26,-248.38"/>
<text text-anchor="start" x="229.26" y="-234.88" font-family="Helvetica,sans-Serif" font-size="10.00">lix/libstore/remote</text>
<text text-anchor="middle" x="274.26" y="-222.12" font-family="Helvetica,sans-Serif" font-size="10.00">&#45;store.hh</text>
</a>
</g>
</g>
<!-- Node2&#45;&gt;Node26 -->
<g id="edge49_Node000002_Node000026" class="edge">
<title>Node2&#45;&gt;Node26</title>
<g id="a_edge49_Node000002_Node000026"><a xlink:title=" ">
<path fill="none" stroke="#63b8ff" d="M827.11,-375.81C673.37,-374.69 270.33,-367.6 230.26,-324.25 209.66,-301.96 236.61,-268.26 256.51,-248.55"/>
<polygon fill="#63b8ff" stroke="#63b8ff" points="826.64,-379.3 836.66,-375.87 826.68,-372.3 826.64,-379.3"/>
</a>
</g>
</g>
<!-- Node28 -->
<g id="Node000028" class="node">
<title>Node28</title>
<g id="a_Node000028"><a xlink:href="log-store_8hh.html" target="_top" xlink:title=" ">
<polygon fill="white" stroke="#666666" points="550.89,-317.88 421.64,-317.88 421.64,-297.12 550.89,-297.12 550.89,-317.88"/>
<text text-anchor="middle" x="486.26" y="-304.38" font-family="Helvetica,sans-Serif" font-size="10.00">lix/libstore/log&#45;store.hh</text>
</a>
</g>
</g>
<!-- Node2&#45;&gt;Node28 -->
<g id="edge41_Node000002_Node000028" class="edge">
<title>Node2&#45;&gt;Node28</title>
<g id="a_edge41_Node000002_Node000028"><a xlink:title=" ">
<path fill="none" stroke="#63b8ff" d="M826.88,-367.1C762.37,-357.27 656.32,-340.66 565.26,-324.25 555.22,-322.44 544.47,-320.38 534.25,-318.36"/>
<polygon fill="#63b8ff" stroke="#63b8ff" points="826.13,-370.52 836.54,-368.57 827.18,-363.6 826.13,-370.52"/>
</a>
</g>
</g>
<!-- Node29 -->
<g id="Node000029" class="node">
<title>Node29</title>
<g id="a_Node000029"><a xlink:href="libstore_2make-content-addressed_8hh.html" target="_top" xlink:title=" ">
<polygon fill="white" stroke="#666666" points="1457.39,-324.25 1319.14,-324.25 1319.14,-290.75 1457.39,-290.75 1457.39,-324.25"/>
<text text-anchor="start" x="1327.14" y="-310.75" font-family="Helvetica,sans-Serif" font-size="10.00">lix/libstore/make&#45;content</text>
<text text-anchor="middle" x="1388.26" y="-298" font-family="Helvetica,sans-Serif" font-size="10.00">&#45;addressed.hh</text>
</a>
</g>
</g>
<!-- Node2&#45;&gt;Node29 -->
<g id="edge45_Node000002_Node000029" class="edge">
<title>Node2&#45;&gt;Node29</title>
<g id="a_edge45_Node000002_Node000029"><a xlink:title=" ">
<path fill="none" stroke="#63b8ff" d="M945.66,-370.15C1027.69,-361.76 1180.15,-344.99 1309.26,-324.25 1312.44,-323.74 1315.68,-323.19 1318.95,-322.62"/>
<polygon fill="#63b8ff" stroke="#63b8ff" points="945.42,-366.66 935.83,-371.15 946.13,-373.62 945.42,-366.66"/>
</a>
</g>
</g>
<!-- Node30 -->
<g id="Node000030" class="node">
<title>Node30</title>
<g id="a_Node000030"><a xlink:href="parsed-derivations_8hh.html" target="_top" xlink:title=" ">
<polygon fill="white" stroke="#666666" points="2063.14,-324.25 1959.39,-324.25 1959.39,-290.75 2063.14,-290.75 2063.14,-324.25"/>
<text text-anchor="start" x="1967.39" y="-310.75" font-family="Helvetica,sans-Serif" font-size="10.00">lix/libstore/parsed</text>
<text text-anchor="middle" x="2011.26" y="-298" font-family="Helvetica,sans-Serif" font-size="10.00">&#45;derivations.hh</text>
</a>
</g>
</g>
<!-- Node2&#45;&gt;Node30 -->
<g id="edge46_Node000002_Node000030" class="edge">
<title>Node2&#45;&gt;Node30</title>
<g id="a_edge46_Node000002_Node000030"><a xlink:title=" ">
<path fill="none" stroke="#63b8ff" d="M945.64,-374.71C1139.73,-370.23 1754.17,-354.02 1950.26,-324.25 1953.18,-323.81 1956.17,-323.28 1959.16,-322.7"/>
<polygon fill="#63b8ff" stroke="#63b8ff" points="945.71,-371.2 935.79,-374.93 945.87,-378.2 945.71,-371.2"/>
</a>
</g>
</g>
<!-- Node31 -->
<g id="Node000031" class="node">
<title>Node31</title>
<g id="a_Node000031"><a xlink:href="remote-fs-accessor_8hh.html" target="_top" xlink:title=" ">
<polygon fill="white" stroke="#666666" points="1581.26,-324.25 1475.26,-324.25 1475.26,-290.75 1581.26,-290.75 1581.26,-324.25"/>
<text text-anchor="start" x="1483.26" y="-310.75" font-family="Helvetica,sans-Serif" font-size="10.00">lix/libstore/remote</text>
<text text-anchor="middle" x="1528.26" y="-298" font-family="Helvetica,sans-Serif" font-size="10.00">&#45;fs&#45;accessor.hh</text>
</a>
</g>
</g>
<!-- Node2&#45;&gt;Node31 -->
<g id="edge48_Node000002_Node000031" class="edge">
<title>Node2&#45;&gt;Node31</title>
<g id="a_edge48_Node000002_Node000031"><a xlink:title=" ">
<path fill="none" stroke="#63b8ff" d="M945.68,-373.83C1051.16,-369.29 1277.75,-356.39 1466.26,-324.25 1469.11,-323.76 1472.02,-323.22 1474.94,-322.62"/>
<polygon fill="#63b8ff" stroke="#63b8ff" points="945.7,-370.33 935.85,-374.24 945.99,-377.32 945.7,-370.33"/>
</a>
</g>
</g>
<!-- Node32 -->
<g id="Node000032" class="node">
<title>Node32</title>
<g id="a_Node000032"><a xlink:href="ssh-store_8hh.html" target="_top" xlink:title=" ">
<polygon fill="white" stroke="#666666" points="1729.64,-317.88 1598.89,-317.88 1598.89,-297.12 1729.64,-297.12 1729.64,-317.88"/>
<text text-anchor="middle" x="1664.26" y="-304.38" font-family="Helvetica,sans-Serif" font-size="10.00">lix/libstore/ssh&#45;store.hh</text>
</a>
</g>
</g>
<!-- Node2&#45;&gt;Node32 -->
<g id="edge50_Node000002_Node000032" class="edge">
<title>Node2&#45;&gt;Node32</title>
<g id="a_edge50_Node000002_Node000032"><a xlink:title=" ">
<path fill="none" stroke="#63b8ff" d="M945.54,-374.37C1067.04,-370.43 1352.84,-358.08 1590.26,-324.25 1600.93,-322.73 1612.35,-320.57 1622.95,-318.33"/>
<polygon fill="#63b8ff" stroke="#63b8ff" points="945.7,-370.86 935.82,-374.68 945.93,-377.86 945.7,-370.86"/>
</a>
</g>
</g>
<!-- Node33 -->
<g id="Node000033" class="node">
<title>Node33</title>
<g id="a_Node000033"><a xlink:href="store-cast_8hh.html" target="_top" xlink:title=" ">
<polygon fill="white" stroke="#666666" points="1843.01,-324.25 1747.51,-324.25 1747.51,-290.75 1843.01,-290.75 1843.01,-324.25"/>
<text text-anchor="start" x="1755.51" y="-310.75" font-family="Helvetica,sans-Serif" font-size="10.00">lix/libstore/store</text>
<text text-anchor="middle" x="1795.26" y="-298" font-family="Helvetica,sans-Serif" font-size="10.00">&#45;cast.hh</text>
</a>
</g>
</g>
<!-- Node2&#45;&gt;Node33 -->
<g id="edge51_Node000002_Node000033" class="edge">
<title>Node2&#45;&gt;Node33</title>
<g id="a_edge51_Node000002_Node000033"><a xlink:title=" ">
<path fill="none" stroke="#63b8ff" d="M945.45,-376.64C1084.71,-377.21 1443.6,-373.35 1738.26,-324.25 1741.2,-323.76 1744.2,-323.18 1747.22,-322.54"/>
<polygon fill="#63b8ff" stroke="#63b8ff" points="945.76,-373.14 935.74,-376.58 945.72,-380.14 945.76,-373.14"/>
</a>
</g>
</g>
<!-- Node34 -->
<g id="Node000034" class="node">
<title>Node34</title>
<g id="a_Node000034"><a xlink:href="run_8hh.html" target="_top" xlink:title=" ">
<polygon fill="white" stroke="#666666" points="1941.14,-317.88 1861.39,-317.88 1861.39,-297.12 1941.14,-297.12 1941.14,-317.88"/>
<text text-anchor="middle" x="1901.26" y="-304.38" font-family="Helvetica,sans-Serif" font-size="10.00">lix/nix/run.hh</text>
</a>
</g>
</g>
<!-- Node2&#45;&gt;Node34 -->
<g id="edge52_Node000002_Node000034" class="edge">
<title>Node2&#45;&gt;Node34</title>
<g id="a_edge52_Node000002_Node000034"><a xlink:title=" ">
<path fill="none" stroke="#63b8ff" d="M945.99,-374.81C1128.49,-370.86 1677.01,-356.55 1852.26,-324.25 1859.73,-322.87 1867.64,-320.67 1874.88,-318.35"/>
<polygon fill="#63b8ff" stroke="#63b8ff" points="945.94,-371.31 936.02,-375.02 946.09,-378.31 945.94,-371.31"/>
</a>
</g>
</g>
<!-- Node4 -->
<g id="Node000004" class="node">
<title>Node4</title>
<g id="a_Node000004"><a xlink:href="installable-derived-path_8hh.html" target="_top" xlink:title=" ">
<polygon fill="white" stroke="#666666" points="891.26,-248.38 773.26,-248.38 773.26,-214.88 891.26,-214.88 891.26,-248.38"/>
<text text-anchor="start" x="781.26" y="-234.88" font-family="Helvetica,sans-Serif" font-size="10.00">lix/libcmd/installable</text>
<text text-anchor="middle" x="832.26" y="-222.12" font-family="Helvetica,sans-Serif" font-size="10.00">&#45;derived&#45;path.hh</text>
</a>
</g>
</g>
<!-- Node3&#45;&gt;Node4 -->
<g id="edge3_Node000003_Node000004" class="edge">
<title>Node3&#45;&gt;Node4</title>
<g id="a_edge3_Node000003_Node000004"><a xlink:title=" ">
<path fill="none" stroke="#63b8ff" d="M739.24,-290.87C758.99,-278.5 786.49,-261.28 806.46,-248.78"/>
<polygon fill="#63b8ff" stroke="#63b8ff" points="737.59,-287.77 730.97,-296.04 741.31,-293.7 737.59,-287.77"/>
</a>
</g>
</g>
<!-- Node5 -->
<g id="Node000005" class="node">
<title>Node5</title>
<g id="a_Node000005"><a xlink:href="installable-value_8hh.html" target="_top" xlink:title=" ">
<polygon fill="white" stroke="#666666" points="755.26,-248.38 637.26,-248.38 637.26,-214.88 755.26,-214.88 755.26,-248.38"/>
<text text-anchor="start" x="645.26" y="-234.88" font-family="Helvetica,sans-Serif" font-size="10.00">lix/libcmd/installable</text>
<text text-anchor="middle" x="696.26" y="-222.12" font-family="Helvetica,sans-Serif" font-size="10.00">&#45;value.hh</text>
</a>
</g>
</g>
<!-- Node3&#45;&gt;Node5 -->
<g id="edge4_Node000003_Node000005" class="edge">
<title>Node3&#45;&gt;Node5</title>
<g id="a_edge4_Node000003_Node000005"><a xlink:title=" ">
<path fill="none" stroke="#63b8ff" d="M709.24,-285.88C706.38,-274.15 702.85,-259.68 700.2,-248.78"/>
<polygon fill="#63b8ff" stroke="#63b8ff" points="705.78,-286.48 711.55,-295.37 712.58,-284.83 705.78,-286.48"/>
</a>
</g>
</g>
<!-- Node6 -->
<g id="Node000006" class="node">
<title>Node6</title>
<g id="a_Node000006"><a xlink:href="command_8hh.html" target="_top" xlink:title=" ">
<polygon fill="white" stroke="#666666" points="767.64,-166.12 636.89,-166.12 636.89,-145.38 767.64,-145.38 767.64,-166.12"/>
<text text-anchor="middle" x="702.26" y="-152.62" font-family="Helvetica,sans-Serif" font-size="10.00">lix/libcmd/command.hh</text>
</a>
</g>
</g>
<!-- Node5&#45;&gt;Node6 -->
<g id="edge5_Node000005_Node000006" class="edge">
<title>Node5&#45;&gt;Node6</title>
<g id="a_edge5_Node000005_Node000006"><a xlink:title=" ">
<path fill="none" stroke="#63b8ff" d="M698.48,-203.32C699.54,-190.29 700.74,-175.55 701.49,-166.21"/>
<polygon fill="#63b8ff" stroke="#63b8ff" points="695.01,-202.84 697.69,-213.09 701.99,-203.4 695.01,-202.84"/>
</a>
</g>
</g>
<!-- Node7 -->
<g id="Node000007" class="node">
<title>Node7</title>
<g id="a_Node000007"><a xlink:href="installable-attr-path_8hh.html" target="_top" xlink:title=" ">
<polygon fill="white" stroke="#666666" points="807.26,-103 689.26,-103 689.26,-69.5 807.26,-69.5 807.26,-103"/>
<text text-anchor="start" x="697.26" y="-89.5" font-family="Helvetica,sans-Serif" font-size="10.00">lix/libcmd/installable</text>
<text text-anchor="middle" x="748.26" y="-76.75" font-family="Helvetica,sans-Serif" font-size="10.00">&#45;attr&#45;path.hh</text>
</a>
</g>
</g>
<!-- Node5&#45;&gt;Node7 -->
<g id="edge8_Node000005_Node000007" class="edge">
<title>Node5&#45;&gt;Node7</title>
<g id="a_edge8_Node000005_Node000007"><a xlink:title=" ">
<path fill="none" stroke="#63b8ff" d="M741.55,-208.52C755.25,-199.4 768.66,-187.41 776.26,-172.5 787.93,-149.6 772.93,-120.8 760.79,-103.23"/>
<polygon fill="#63b8ff" stroke="#63b8ff" points="740.03,-205.34 733.38,-213.59 743.72,-211.3 740.03,-205.34"/>
</a>
</g>
</g>
<!-- Node9 -->
<g id="Node000009" class="node">
<title>Node9</title>
<g id="a_Node000009"><a xlink:href="installable-flake_8hh.html" target="_top" xlink:title=" ">
<polygon fill="white" stroke="#666666" points="941.26,-172.5 823.26,-172.5 823.26,-139 941.26,-139 941.26,-172.5"/>
<text text-anchor="start" x="831.26" y="-159" font-family="Helvetica,sans-Serif" font-size="10.00">lix/libcmd/installable</text>
<text text-anchor="middle" x="882.26" y="-146.25" font-family="Helvetica,sans-Serif" font-size="10.00">&#45;flake.hh</text>
</a>
</g>
</g>
<!-- Node5&#45;&gt;Node9 -->
<g id="edge9_Node000005_Node000009" class="edge">
<title>Node5&#45;&gt;Node9</title>
<g id="a_edge9_Node000005_Node000009"><a xlink:title=" ">
<path fill="none" stroke="#63b8ff" d="M747.64,-210.22C777.24,-198.46 813.94,-183.89 841.54,-172.92"/>
<polygon fill="#63b8ff" stroke="#63b8ff" points="746.49,-206.91 738.49,-213.85 749.07,-213.42 746.49,-206.91"/>
</a>
</g>
</g>
<!-- Node6&#45;&gt;Node7 -->
<g id="edge6_Node000006_Node000007" class="edge">
<title>Node6&#45;&gt;Node7</title>
<g id="a_edge6_Node000006_Node000007"><a xlink:title=" ">
<path fill="none" stroke="#63b8ff" d="M715.17,-135.81C722.12,-125.61 730.61,-113.16 737.24,-103.42"/>
<polygon fill="#63b8ff" stroke="#63b8ff" points="712.45,-133.59 709.71,-143.83 718.23,-137.54 712.45,-133.59"/>
</a>
</g>
</g>
<!-- Node6&#45;&gt;Node8 -->
<g id="edge7_Node000006_Node000008" class="edge">
<title>Node6&#45;&gt;Node8</title>
<g id="a_edge7_Node000006_Node000008"><a xlink:title=" ">
<path fill="none" stroke="#63b8ff" d="M675.95,-139.36C642.89,-120.59 583.98,-88.97 530.26,-69.5 475.52,-49.66 410.21,-35.22 365.84,-26.71"/>
<polygon fill="#63b8ff" stroke="#63b8ff" points="674,-142.28 684.42,-144.22 677.49,-136.21 674,-142.28"/>
</a>
</g>
</g>
<!-- Node12 -->
<g id="Node000012" class="node">
<title>Node12</title>
<g id="a_Node000012"><a xlink:href="s3-binary-cache-store_8hh.html" target="_top" xlink:title=" ">
<polygon fill="white" stroke="#666666" points="581.51,-172.5 465.01,-172.5 465.01,-139 581.51,-139 581.51,-172.5"/>
<text text-anchor="start" x="473.01" y="-159" font-family="Helvetica,sans-Serif" font-size="10.00">lix/libstore/s3&#45;binary</text>
<text text-anchor="middle" x="523.26" y="-146.25" font-family="Helvetica,sans-Serif" font-size="10.00">&#45;cache&#45;store.hh</text>
</a>
</g>
</g>
<!-- Node11&#45;&gt;Node12 -->
<g id="edge12_Node000011_Node000012" class="edge">
<title>Node11&#45;&gt;Node12</title>
<g id="a_edge12_Node000011_Node000012"><a xlink:title=" ">
<path fill="none" stroke="#63b8ff" d="M523.26,-203.24C523.26,-192.97 523.26,-181.65 523.26,-172.75"/>
<polygon fill="#63b8ff" stroke="#63b8ff" points="519.76,-203.08 523.26,-213.08 526.76,-203.08 519.76,-203.08"/>
</a>
</g>
</g>
<!-- Node14 -->
<g id="Node000014" class="node">
<title>Node14</title>
<g id="a_Node000014"><a xlink:href="local-derivation-goal_8hh.html" target="_top" xlink:title=" ">
<polygon fill="white" stroke="#666666" points="594.89,-33.5 459.64,-33.5 459.64,0 594.89,0 594.89,-33.5"/>
<text text-anchor="start" x="467.64" y="-20" font-family="Helvetica,sans-Serif" font-size="10.00">lix/libstore/build</text>
<text text-anchor="middle" x="527.26" y="-7.25" font-family="Helvetica,sans-Serif" font-size="10.00">/local&#45;derivation&#45;goal.hh</text>
</a>
</g>
</g>
<!-- Node13&#45;&gt;Node14 -->
<g id="edge14_Node000013_Node000014" class="edge">
<title>Node13&#45;&gt;Node14</title>
<g id="a_edge14_Node000013_Node000014"><a xlink:title=" ">
<path fill="none" stroke="#63b8ff" d="M1304.48,-210.82C1302.04,-210.03 1299.63,-209.25 1297.26,-208.5 1085.15,-141.24 1032.97,-120.07 816.26,-69.5 741.19,-51.98 653.94,-37.1 595.12,-27.85"/>
<polygon fill="#63b8ff" stroke="#63b8ff" points="1303.18,-214.08 1313.78,-213.91 1305.39,-207.44 1303.18,-214.08"/>
</a>
</g>
</g>
<!-- Node16&#45;&gt;Node13 -->
<g id="edge17_Node000016_Node000013" class="edge">
<title>Node16&#45;&gt;Node13</title>
<g id="a_edge17_Node000016_Node000013"><a xlink:title=" ">
<path fill="none" stroke="#63b8ff" d="M983.37,-296.83C996.49,-294.76 1010.34,-292.63 1023.26,-290.75 1144.81,-273.1 1177.72,-282.96 1297.26,-254.75 1304.13,-253.13 1311.29,-251.05 1318.23,-248.82"/>
<polygon fill="#63b8ff" stroke="#63b8ff" points="982.88,-293.36 973.55,-298.39 983.98,-300.27 982.88,-293.36"/>
</a>
</g>
</g>
<!-- Node16&#45;&gt;Node15 -->
<g id="edge18_Node000016_Node000015" class="edge">
<title>Node16&#45;&gt;Node15</title>
<g id="a_edge18_Node000016_Node000015"><a xlink:title=" ">
<path fill="none" stroke="#63b8ff" d="M941.81,-281.08C947.65,-272.63 954.1,-263.28 959.77,-255.07"/>
<polygon fill="#63b8ff" stroke="#63b8ff" points="938.99,-279.01 936.19,-289.22 944.75,-282.98 938.99,-279.01"/>
</a>
</g>
</g>
<!-- Node16&#45;&gt;Node17 -->
<g id="edge19_Node000016_Node000017" class="edge">
<title>Node16&#45;&gt;Node17</title>
<g id="a_edge19_Node000016_Node000017"><a xlink:title=" ">
<path fill="none" stroke="#63b8ff" d="M977.17,-286.25C1007.96,-274.46 1046.24,-259.81 1075.01,-248.8"/>
<polygon fill="#63b8ff" stroke="#63b8ff" points="976.12,-282.9 968.03,-289.75 978.62,-289.44 976.12,-282.9"/>
</a>
</g>
</g>
<!-- Node16&#45;&gt;Node18 -->
<g id="edge20_Node000016_Node000018" class="edge">
<title>Node16&#45;&gt;Node18</title>
<g id="a_edge20_Node000016_Node000018"><a xlink:title=" ">
<path fill="none" stroke="#63b8ff" d="M983.25,-291.2C983.92,-291.05 984.6,-290.9 985.26,-290.75 1073.06,-271.5 1097.75,-279.12 1184.26,-254.75 1190.19,-253.08 1196.36,-251.03 1202.35,-248.86"/>
<polygon fill="#63b8ff" stroke="#63b8ff" points="982.55,-287.76 973.61,-293.44 984.14,-294.58 982.55,-287.76"/>
</a>
</g>
</g>
<!-- Node20&#45;&gt;Node8 -->
<g id="edge25_Node000020_Node000008" class="edge">
<title>Node20&#45;&gt;Node8</title>
<g id="a_edge25_Node000020_Node000008"><a xlink:title=" ">
<path fill="none" stroke="#63b8ff" d="M136.3,-72.11C179.05,-59.05 243.61,-39.33 282.09,-27.58"/>
<polygon fill="#63b8ff" stroke="#63b8ff" points="135.39,-68.72 126.85,-74.99 137.43,-75.42 135.39,-68.72"/>
</a>
</g>
</g>
<!-- Node21&#45;&gt;Node22 -->
<g id="edge27_Node000021_Node000022" class="edge">
<title>Node21&#45;&gt;Node22</title>
<g id="a_edge27_Node000021_Node000022"><a xlink:title=" ">
<path fill="none" stroke="#63b8ff" d="M322.79,-289.83C337.92,-277.55 358.39,-260.94 373.36,-248.78"/>
<polygon fill="#63b8ff" stroke="#63b8ff" points="320.89,-286.87 315.33,-295.89 325.3,-292.3 320.89,-286.87"/>
</a>
</g>
</g>
<!-- Node21&#45;&gt;Node26 -->
<g id="edge33_Node000021_Node000026" class="edge">
<title>Node21&#45;&gt;Node26</title>
<g id="a_edge33_Node000021_Node000026"><a xlink:title=" ">
<path fill="none" stroke="#63b8ff" d="M294.59,-286.25C290.12,-274.46 284.56,-259.79 280.39,-248.78"/>
<polygon fill="#63b8ff" stroke="#63b8ff" points="291.25,-287.32 298.07,-295.43 297.79,-284.84 291.25,-287.32"/>
</a>
</g>
</g>
<!-- Node23 -->
<g id="Node000023" class="node">
<title>Node23</title>
<g id="a_Node000023"><a xlink:href="indirect-root-store_8hh.html" target="_top" xlink:title=" ">
<polygon fill="white" stroke="#666666" points="447.01,-172.5 339.51,-172.5 339.51,-139 447.01,-139 447.01,-172.5"/>
<text text-anchor="start" x="347.51" y="-159" font-family="Helvetica,sans-Serif" font-size="10.00">lix/libstore/indirect</text>
<text text-anchor="middle" x="393.26" y="-146.25" font-family="Helvetica,sans-Serif" font-size="10.00">&#45;root&#45;store.hh</text>
</a>
</g>
</g>
<!-- Node22&#45;&gt;Node23 -->
<g id="edge28_Node000022_Node000023" class="edge">
<title>Node22&#45;&gt;Node23</title>
<g id="a_edge28_Node000022_Node000023"><a xlink:title=" ">
<path fill="none" stroke="#63b8ff" d="M393.26,-203.24C393.26,-192.97 393.26,-181.65 393.26,-172.75"/>
<polygon fill="#63b8ff" stroke="#63b8ff" points="389.76,-203.08 393.26,-213.08 396.76,-203.08 389.76,-203.08"/>
</a>
</g>
</g>
<!-- Node23&#45;&gt;Node24 -->
<g id="edge29_Node000023_Node000024" class="edge">
<title>Node23&#45;&gt;Node24</title>
<g id="a_edge29_Node000023_Node000024"><a xlink:title=" ">
<path fill="none" stroke="#63b8ff" d="M421.03,-131.61C432.19,-122.31 444.79,-111.81 454.92,-103.37"/>
<polygon fill="#63b8ff" stroke="#63b8ff" points="419.06,-128.69 413.62,-137.78 423.54,-134.07 419.06,-128.69"/>
</a>
</g>
</g>
<!-- Node25 -->
<g id="Node000025" class="node">
<title>Node25</title>
<g id="a_Node000025"><a xlink:href="uds-remote-store_8hh.html" target="_top" xlink:title=" ">
<polygon fill="white" stroke="#666666" points="339.76,-103 212.76,-103 212.76,-69.5 339.76,-69.5 339.76,-103"/>
<text text-anchor="start" x="220.76" y="-89.5" font-family="Helvetica,sans-Serif" font-size="10.00">lix/libstore/uds&#45;remote</text>
<text text-anchor="middle" x="276.26" y="-76.75" font-family="Helvetica,sans-Serif" font-size="10.00">&#45;store.hh</text>
</a>
</g>
</g>
<!-- Node23&#45;&gt;Node25 -->
<g id="edge32_Node000023_Node000025" class="edge">
<title>Node23&#45;&gt;Node25</title>
<g id="a_edge32_Node000023_Node000025"><a xlink:title=" ">
<path fill="none" stroke="#63b8ff" d="M355.72,-133.09C338.93,-123.41 319.5,-112.2 304.06,-103.29"/>
<polygon fill="#63b8ff" stroke="#63b8ff" points="353.52,-135.86 363.93,-137.83 357.01,-129.8 353.52,-135.86"/>
</a>
</g>
</g>
<!-- Node24&#45;&gt;Node8 -->
<g id="edge31_Node000024_Node000008" class="edge">
<title>Node24&#45;&gt;Node8</title>
<g id="a_edge31_Node000024_Node000008"><a xlink:title=" ">
<path fill="none" stroke="#63b8ff" d="M425.5,-64.68C396.24,-52.33 360.38,-37.2 337.42,-27.52"/>
<polygon fill="#63b8ff" stroke="#63b8ff" points="423.97,-67.83 434.54,-68.49 426.69,-61.38 423.97,-67.83"/>
</a>
</g>
</g>
<!-- Node24&#45;&gt;Node14 -->
<g id="edge30_Node000024_Node000014" class="edge">
<title>Node24&#45;&gt;Node14</title>
<g id="a_edge30_Node000024_Node000014"><a xlink:title=" ">
<path fill="none" stroke="#63b8ff" d="M493.79,-60.38C500.81,-51.44 508.54,-41.6 514.79,-33.63"/>
<polygon fill="#63b8ff" stroke="#63b8ff" points="491.18,-58.04 487.76,-68.06 496.69,-62.36 491.18,-58.04"/>
</a>
</g>
</g>
<!-- Node26&#45;&gt;Node8 -->
<g id="edge38_Node000026_Node000008" class="edge">
<title>Node26&#45;&gt;Node8</title>
<g id="a_edge38_Node000026_Node000008"><a xlink:title=" ">
<path fill="none" stroke="#63b8ff" d="M290.02,-204.62C311.57,-168.94 347.75,-108.56 349.26,-103 353.17,-88.63 353.63,-83.74 349.26,-69.5 344.24,-53.11 332.09,-37.24 323.52,-27.49"/>
<polygon fill="#63b8ff" stroke="#63b8ff" points="287.07,-202.72 284.9,-213.09 293.07,-206.34 287.07,-202.72"/>
</a>
</g>
</g>
<!-- Node26&#45;&gt;Node25 -->
<g id="edge37_Node000026_Node000025" class="edge">
<title>Node26&#45;&gt;Node25</title>
<g id="a_edge37_Node000026_Node000025"><a xlink:title=" ">
<path fill="none" stroke="#63b8ff" d="M274.64,-203.25C275.06,-173.6 275.7,-127.3 276.04,-103.14"/>
<polygon fill="#63b8ff" stroke="#63b8ff" points="271.15,-202.9 274.51,-212.94 278.15,-202.99 271.15,-202.9"/>
</a>
</g>
</g>
<!-- Node27 -->
<g id="Node000027" class="node">
<title>Node27</title>
<g id="a_Node000027"><a xlink:href="remote-store-connection_8hh.html" target="_top" xlink:title=" ">
<polygon fill="white" stroke="#666666" points="245.51,-172.5 129.01,-172.5 129.01,-139 245.51,-139 245.51,-172.5"/>
<text text-anchor="start" x="137.01" y="-159" font-family="Helvetica,sans-Serif" font-size="10.00">lix/libstore/remote</text>
<text text-anchor="middle" x="187.26" y="-146.25" font-family="Helvetica,sans-Serif" font-size="10.00">&#45;store&#45;connection.hh</text>
</a>
</g>
</g>
<!-- Node26&#45;&gt;Node27 -->
<g id="edge34_Node000026_Node000027" class="edge">
<title>Node26&#45;&gt;Node27</title>
<g id="a_edge34_Node000026_Node000027"><a xlink:title=" ">
<path fill="none" stroke="#63b8ff" d="M246.67,-207.19C233.45,-195.97 217.95,-182.81 206.1,-172.75"/>
<polygon fill="#63b8ff" stroke="#63b8ff" points="244.34,-209.81 254.23,-213.62 248.87,-204.47 244.34,-209.81"/>
</a>
</g>
</g>
<!-- Node27&#45;&gt;Node8 -->
<g id="edge36_Node000027_Node000008" class="edge">
<title>Node27&#45;&gt;Node8</title>
<g id="a_edge36_Node000027_Node000008"><a xlink:title=" ">
<path fill="none" stroke="#63b8ff" d="M186.22,-127.24C186.91,-109.12 190.6,-85.82 203.26,-69.5 219.88,-48.08 247.48,-35.16 271,-27.59"/>
<polygon fill="#63b8ff" stroke="#63b8ff" points="182.72,-127 186.15,-137.03 189.72,-127.05 182.72,-127"/>
</a>
</g>
</g>
<!-- Node27&#45;&gt;Node25 -->
<g id="edge35_Node000027_Node000025" class="edge">
<title>Node27&#45;&gt;Node25</title>
<g id="a_edge35_Node000027_Node000025"><a xlink:title=" ">
<path fill="none" stroke="#63b8ff" d="M217.41,-131.89C229.76,-122.52 243.76,-111.9 255.01,-103.37"/>
<polygon fill="#63b8ff" stroke="#63b8ff" points="215.41,-129.01 209.56,-137.84 219.64,-134.58 215.41,-129.01"/>
</a>
</g>
</g>
<!-- Node28&#45;&gt;Node11 -->
<g id="edge42_Node000028_Node000011" class="edge">
<title>Node28&#45;&gt;Node11</title>
<g id="a_edge42_Node000028_Node000011"><a xlink:title=" ">
<path fill="none" stroke="#63b8ff" d="M496.22,-286.62C502.16,-274.76 509.6,-259.91 515.17,-248.78"/>
<polygon fill="#63b8ff" stroke="#63b8ff" points="493.13,-284.98 491.78,-295.49 499.39,-288.11 493.13,-284.98"/>
</a>
</g>
</g>
<!-- Node28&#45;&gt;Node22 -->
<g id="edge43_Node000028_Node000022" class="edge">
<title>Node28&#45;&gt;Node22</title>
<g id="a_edge43_Node000028_Node000022"><a xlink:title=" ">
<path fill="none" stroke="#63b8ff" d="M465.28,-289.83C449.82,-277.55 428.91,-260.94 413.6,-248.78"/>
<polygon fill="#63b8ff" stroke="#63b8ff" points="462.91,-292.42 472.92,-295.9 467.27,-286.94 462.91,-292.42"/>
</a>
</g>
</g>
<!-- Node28&#45;&gt;Node26 -->
<g id="edge44_Node000028_Node000026" class="edge">
<title>Node28&#45;&gt;Node26</title>
<g id="a_edge44_Node000028_Node000026"><a xlink:title=" ">
<path fill="none" stroke="#63b8ff" d="M447.09,-292.94C417.04,-282.52 374.51,-267.76 337.26,-254.75 331.79,-252.84 326.05,-250.83 320.36,-248.84"/>
<polygon fill="#63b8ff" stroke="#63b8ff" points="445.94,-296.24 456.54,-296.21 448.23,-289.63 445.94,-296.24"/>
</a>
</g>
</g>
<!-- Node30&#45;&gt;Node13 -->
<g id="edge47_Node000030_Node000013" class="edge">
<title>Node30&#45;&gt;Node13</title>
<g id="a_edge47_Node000030_Node000013"><a xlink:title=" ">
<path fill="none" stroke="#63b8ff" d="M1948.06,-290.53C1746.79,-255.61 1518.11,-240.61 1415.65,-235.18"/>
<polygon fill="#63b8ff" stroke="#63b8ff" points="1947.19,-293.93 1957.65,-292.21 1948.4,-287.04 1947.19,-293.93"/>
</a>
</g>
</g>
</g>
</svg>
