<?xml version="1.0" encoding="UTF-8" standalone="no"?>
<!DOCTYPE svg PUBLIC "-//W3C//DTD SVG 1.1//EN"
 "http://www.w3.org/Graphics/SVG/1.1/DTD/svg11.dtd">
<!-- Generated by graphviz version 12.2.1 (0)
 -->
<!-- Title: lix/libstore/globals.hh Pages: 1 -->
<svg width="1696pt" height="395pt"
 viewBox="0.00 0.00 1695.75 394.75" xmlns="http://www.w3.org/2000/svg" xmlns:xlink="http://www.w3.org/1999/xlink">
<g id="graph0" class="graph" transform="scale(1 1) rotate(0) translate(4 390.75)">
<title>lix/libstore/globals.hh</title>
<!-- Node1 -->
<g id="Node000001" class="node">
<title>Node1</title>
<g id="a_Node000001"><a xlink:title=" ">
<polygon fill="#999999" stroke="#666666" points="693.38,-386.75 572.38,-386.75 572.38,-366 693.38,-366 693.38,-386.75"/>
<text text-anchor="middle" x="632.88" y="-373.25" font-family="Helvetica,sans-Serif" font-size="10.00">lix/libstore/globals.hh</text>
</a>
</g>
</g>
<!-- Node2 -->
<g id="Node000002" class="node">
<title>Node2</title>
<g id="a_Node000002"><a xlink:href="environment-variables_8hh.html" target="_top" xlink:title=" ">
<polygon fill="white" stroke="#666666" points="253.88,-203.75 129.88,-203.75 129.88,-170.25 253.88,-170.25 253.88,-203.75"/>
<text text-anchor="start" x="137.88" y="-190.25" font-family="Helvetica,sans-Serif" font-size="10.00">lix/libutil/environment</text>
<text text-anchor="middle" x="191.88" y="-177.5" font-family="Helvetica,sans-Serif" font-size="10.00">&#45;variables.hh</text>
</a>
</g>
</g>
<!-- Node1&#45;&gt;Node2 -->
<g id="edge1_Node000001_Node000002" class="edge">
<title>Node1&#45;&gt;Node2</title>
<g id="a_edge1_Node000001_Node000002"><a xlink:title=" ">
<path fill="none" stroke="#63b8ff" d="M572.01,-370.67C494.63,-363.97 365.89,-350.21 322.88,-330 269.5,-304.92 227.65,-247.31 206.67,-213.69"/>
<polygon fill="#63b8ff" stroke="#63b8ff" points="209.81,-212.11 201.63,-205.38 203.83,-215.74 209.81,-212.11"/>
</a>
</g>
</g>
<!-- Node3 -->
<g id="Node000003" class="node">
<title>Node3</title>
<g id="a_Node000003"><a xlink:title=" ">
<polygon fill="#e0e0e0" stroke="#999999" points="37.75,-134.25 0,-134.25 0,-113.5 37.75,-113.5 37.75,-134.25"/>
<text text-anchor="middle" x="18.88" y="-120.75" font-family="Helvetica,sans-Serif" font-size="10.00">map</text>
</a>
</g>
</g>
<!-- Node1&#45;&gt;Node3 -->
<g id="edge60_Node000001_Node000003" class="edge">
<title>Node1&#45;&gt;Node3</title>
<g id="a_edge60_Node000001_Node000003"><a xlink:title=" ">
<path fill="none" stroke="#63b8ff" d="M572.11,-373.79C501.92,-370.51 383.66,-360.49 286.88,-330 180.09,-296.36 147.94,-283.02 68.88,-203.75 51.41,-186.23 37,-161.58 28.21,-144.52"/>
<polygon fill="#63b8ff" stroke="#63b8ff" points="31.52,-143.31 23.94,-135.91 25.25,-146.42 31.52,-143.31"/>
</a>
</g>
</g>
<!-- Node6 -->
<g id="Node000006" class="node">
<title>Node6</title>
<g id="a_Node000006"><a xlink:href="types_8hh.html" target="_top" xlink:title=" ">
<polygon fill="white" stroke="#666666" points="406.75,-197.38 303,-197.38 303,-176.62 406.75,-176.62 406.75,-197.38"/>
<text text-anchor="middle" x="354.88" y="-183.88" font-family="Helvetica,sans-Serif" font-size="10.00">lix/libutil/types.hh</text>
</a>
</g>
</g>
<!-- Node1&#45;&gt;Node6 -->
<g id="edge5_Node000001_Node000006" class="edge">
<title>Node1&#45;&gt;Node6</title>
<g id="a_edge5_Node000001_Node000006"><a xlink:title=" ">
<path fill="none" stroke="#63b8ff" d="M571.9,-367.13C478.32,-353.1 306.29,-321.33 269.88,-273.25 260.88,-261.38 262.58,-252.73 269.88,-239.75 279.48,-222.66 297.26,-210.56 314.09,-202.37"/>
<polygon fill="#63b8ff" stroke="#63b8ff" points="315.29,-205.67 322.98,-198.39 312.43,-199.28 315.29,-205.67"/>
</a>
</g>
</g>
<!-- Node13 -->
<g id="Node000013" class="node">
<title>Node13</title>
<g id="a_Node000013"><a xlink:href="libutil_2config_8hh.html" target="_top" xlink:title=" ">
<polygon fill="white" stroke="#666666" points="685.88,-330 579.88,-330 579.88,-309.25 685.88,-309.25 685.88,-330"/>
<text text-anchor="middle" x="632.88" y="-316.5" font-family="Helvetica,sans-Serif" font-size="10.00">lix/libutil/config.hh</text>
</a>
</g>
</g>
<!-- Node1&#45;&gt;Node13 -->
<g id="edge15_Node000001_Node000013" class="edge">
<title>Node1&#45;&gt;Node13</title>
<g id="a_edge15_Node000001_Node000013"><a xlink:title=" ">
<path fill="none" stroke="#63b8ff" d="M632.88,-365.59C632.88,-358.97 632.88,-349.97 632.88,-341.77"/>
<polygon fill="#63b8ff" stroke="#63b8ff" points="636.38,-341.84 632.88,-331.84 629.38,-341.84 636.38,-341.84"/>
</a>
</g>
</g>
<!-- Node30 -->
<g id="Node000030" class="node">
<title>Node30</title>
<g id="a_Node000030"><a xlink:title=" ">
<polygon fill="#e0e0e0" stroke="#999999" points="1536.62,-134.25 1465.12,-134.25 1465.12,-113.5 1536.62,-113.5 1536.62,-134.25"/>
<text text-anchor="middle" x="1500.88" y="-120.75" font-family="Helvetica,sans-Serif" font-size="10.00">sys/types.h</text>
</a>
</g>
</g>
<!-- Node1&#45;&gt;Node30 -->
<g id="edge62_Node000001_Node000030" class="edge">
<title>Node1&#45;&gt;Node30</title>
<g id="a_edge62_Node000001_Node000030"><a xlink:title=" ">
<path fill="none" stroke="#63b8ff" d="M693.47,-372.36C809.47,-365.16 1069.82,-342.08 1276.88,-273.25 1339.79,-252.33 1354.03,-241.01 1408.88,-203.75 1436.54,-184.96 1465.33,-159.08 1483.17,-142.17"/>
<polygon fill="#63b8ff" stroke="#63b8ff" points="1485.12,-145.16 1489.91,-135.71 1480.27,-140.11 1485.12,-145.16"/>
</a>
</g>
</g>
<!-- Node39 -->
<g id="Node000039" class="node">
<title>Node39</title>
<g id="a_Node000039"><a xlink:title=" ">
<polygon fill="#e0e0e0" stroke="#999999" points="1535.75,-330 1492,-330 1492,-309.25 1535.75,-309.25 1535.75,-330"/>
<text text-anchor="middle" x="1513.88" y="-316.5" font-family="Helvetica,sans-Serif" font-size="10.00">limits</text>
</a>
</g>
</g>
<!-- Node1&#45;&gt;Node39 -->
<g id="edge61_Node000001_Node000039" class="edge">
<title>Node1&#45;&gt;Node39</title>
<g id="a_edge61_Node000001_Node000039"><a xlink:title=" ">
<path fill="none" stroke="#63b8ff" d="M693.72,-373.7C861.2,-368.83 1326.54,-353.52 1477.88,-330 1478.71,-329.87 1479.56,-329.73 1480.41,-329.58"/>
<polygon fill="#63b8ff" stroke="#63b8ff" points="1481.03,-333.02 1490.07,-327.5 1479.56,-326.18 1481.03,-333.02"/>
</a>
</g>
</g>
<!-- Node40 -->
<g id="Node000040" class="node">
<title>Node40</title>
<g id="a_Node000040"><a xlink:title=" ">
<polygon fill="#e0e0e0" stroke="#999999" points="1687.75,-330 1554,-330 1554,-309.25 1687.75,-309.25 1687.75,-330"/>
<text text-anchor="middle" x="1620.88" y="-316.5" font-family="Helvetica,sans-Serif" font-size="10.00">libstore&#45;settings.gen.inc</text>
</a>
</g>
</g>
<!-- Node1&#45;&gt;Node40 -->
<g id="edge63_Node000001_Node000040" class="edge">
<title>Node1&#45;&gt;Node40</title>
<g id="a_edge63_Node000001_Node000040"><a xlink:title=" ">
<path fill="none" stroke="#63b8ff" d="M693.82,-373.88C838.9,-369.99 1216.44,-357.92 1542.67,-330.13"/>
<polygon fill="#63b8ff" stroke="#63b8ff" points="1542.59,-333.65 1552.26,-329.3 1542,-326.67 1542.59,-333.65"/>
</a>
</g>
</g>
<!-- Node2&#45;&gt;Node3 -->
<g id="edge2_Node000002_Node000003" class="edge">
<title>Node2&#45;&gt;Node3</title>
<g id="a_edge2_Node000002_Node000003"><a xlink:title=" ">
<path fill="none" stroke="#63b8ff" d="M145.97,-169.78C115.14,-158.89 75.41,-144.85 48.64,-135.39"/>
<polygon fill="#63b8ff" stroke="#63b8ff" points="50.05,-132.18 39.46,-132.15 47.72,-138.78 50.05,-132.18"/>
</a>
</g>
</g>
<!-- Node4 -->
<g id="Node000004" class="node">
<title>Node4</title>
<g id="a_Node000004"><a xlink:title=" ">
<polygon fill="#e0e0e0" stroke="#999999" points="225.75,-134.25 170,-134.25 170,-113.5 225.75,-113.5 225.75,-134.25"/>
<text text-anchor="middle" x="197.88" y="-120.75" font-family="Helvetica,sans-Serif" font-size="10.00">optional</text>
</a>
</g>
</g>
<!-- Node2&#45;&gt;Node4 -->
<g id="edge3_Node000002_Node000004" class="edge">
<title>Node2&#45;&gt;Node4</title>
<g id="a_edge3_Node000002_Node000004"><a xlink:title=" ">
<path fill="none" stroke="#63b8ff" d="M193.45,-169.94C194.17,-162.6 195.03,-153.82 195.81,-145.96"/>
<polygon fill="#63b8ff" stroke="#63b8ff" points="199.27,-146.52 196.76,-136.22 192.3,-145.83 199.27,-146.52"/>
</a>
</g>
</g>
<!-- Node5 -->
<g id="Node000005" class="node">
<title>Node5</title>
<g id="a_Node000005"><a xlink:title=" ">
<polygon fill="#e0e0e0" stroke="#999999" points="350.75,-77.5 307,-77.5 307,-56.75 350.75,-56.75 350.75,-77.5"/>
<text text-anchor="middle" x="328.88" y="-64" font-family="Helvetica,sans-Serif" font-size="10.00">string</text>
</a>
</g>
</g>
<!-- Node2&#45;&gt;Node5 -->
<g id="edge4_Node000002_Node000005" class="edge">
<title>Node2&#45;&gt;Node5</title>
<g id="a_edge4_Node000002_Node000005"><a xlink:title=" ">
<path fill="none" stroke="#63b8ff" d="M171.6,-169.95C154.82,-154.71 135.85,-131.52 149.88,-113.5 167.58,-90.75 248.75,-77.57 295.48,-71.74"/>
<polygon fill="#63b8ff" stroke="#63b8ff" points="295.82,-75.23 305.33,-70.57 294.99,-68.28 295.82,-75.23"/>
</a>
</g>
</g>
<!-- Node6&#45;&gt;Node3 -->
<g id="edge11_Node000006_Node000003" class="edge">
<title>Node6&#45;&gt;Node3</title>
<g id="a_edge11_Node000006_Node000003"><a xlink:title=" ">
<path fill="none" stroke="#63b8ff" d="M302.74,-176.52C231.67,-163.59 106.66,-140.84 49.25,-130.4"/>
<polygon fill="#63b8ff" stroke="#63b8ff" points="50.03,-126.98 39.56,-128.64 48.77,-133.87 50.03,-126.98"/>
</a>
</g>
</g>
<!-- Node6&#45;&gt;Node4 -->
<g id="edge7_Node000006_Node000004" class="edge">
<title>Node6&#45;&gt;Node4</title>
<g id="a_edge7_Node000006_Node000004"><a xlink:title=" ">
<path fill="none" stroke="#63b8ff" d="M329.65,-176.18C303.67,-166.06 262.95,-150.21 233.65,-138.8"/>
<polygon fill="#63b8ff" stroke="#63b8ff" points="235.04,-135.59 224.45,-135.22 232.5,-142.11 235.04,-135.59"/>
</a>
</g>
</g>
<!-- Node6&#45;&gt;Node5 -->
<g id="edge9_Node000006_Node000005" class="edge">
<title>Node6&#45;&gt;Node5</title>
<g id="a_edge9_Node000006_Node000005"><a xlink:title=" ">
<path fill="none" stroke="#63b8ff" d="M306,-176.18C251.52,-164.74 169.85,-145.93 160.88,-134.25 124.25,-86.58 236.79,-73.22 295.56,-69.52"/>
<polygon fill="#63b8ff" stroke="#63b8ff" points="295.57,-73.03 305.36,-68.97 295.18,-66.04 295.57,-73.03"/>
</a>
</g>
</g>
<!-- Node7 -->
<g id="Node000007" class="node">
<title>Node7</title>
<g id="a_Node000007"><a xlink:title=" ">
<polygon fill="#e0e0e0" stroke="#999999" points="467.38,-134.25 436.38,-134.25 436.38,-113.5 467.38,-113.5 467.38,-134.25"/>
<text text-anchor="middle" x="451.88" y="-120.75" font-family="Helvetica,sans-Serif" font-size="10.00">list</text>
</a>
</g>
</g>
<!-- Node6&#45;&gt;Node7 -->
<g id="edge6_Node000006_Node000007" class="edge">
<title>Node6&#45;&gt;Node7</title>
<g id="a_edge6_Node000006_Node000007"><a xlink:title=" ">
<path fill="none" stroke="#63b8ff" d="M370.46,-176.18C385.59,-166.64 408.82,-152.01 426.59,-140.81"/>
<polygon fill="#63b8ff" stroke="#63b8ff" points="428.45,-143.77 435.05,-135.48 424.72,-137.85 428.45,-143.77"/>
</a>
</g>
</g>
<!-- Node8 -->
<g id="Node000008" class="node">
<title>Node8</title>
<g id="a_Node000008"><a xlink:title=" ">
<polygon fill="#e0e0e0" stroke="#999999" points="668.38,-77.5 637.38,-77.5 637.38,-56.75 668.38,-56.75 668.38,-77.5"/>
<text text-anchor="middle" x="652.88" y="-64" font-family="Helvetica,sans-Serif" font-size="10.00">set</text>
</a>
</g>
</g>
<!-- Node6&#45;&gt;Node8 -->
<g id="edge8_Node000006_Node000008" class="edge">
<title>Node6&#45;&gt;Node8</title>
<g id="a_edge8_Node000006_Node000008"><a xlink:title=" ">
<path fill="none" stroke="#63b8ff" d="M407.08,-182.35C477.3,-176.42 597.16,-162.43 629.88,-134.25 642.97,-122.97 648.61,-103.82 651.04,-89.03"/>
<polygon fill="#63b8ff" stroke="#63b8ff" points="654.48,-89.74 652.24,-79.39 647.53,-88.88 654.48,-89.74"/>
</a>
</g>
</g>
<!-- Node9 -->
<g id="Node000009" class="node">
<title>Node9</title>
<g id="a_Node000009"><a xlink:title=" ">
<polygon fill="#e0e0e0" stroke="#999999" points="190,-77.5 117.75,-77.5 117.75,-56.75 190,-56.75 190,-77.5"/>
<text text-anchor="middle" x="153.88" y="-64" font-family="Helvetica,sans-Serif" font-size="10.00">string_view</text>
</a>
</g>
</g>
<!-- Node6&#45;&gt;Node9 -->
<g id="edge10_Node000006_Node000009" class="edge">
<title>Node6&#45;&gt;Node9</title>
<g id="a_edge10_Node000006_Node000009"><a xlink:title=" ">
<path fill="none" stroke="#63b8ff" d="M302.73,-176.27C245.18,-165.01 159.38,-146.45 149.88,-134.25 139.94,-121.49 142.12,-102.8 146.11,-88.54"/>
<polygon fill="#63b8ff" stroke="#63b8ff" points="149.36,-89.86 149.19,-79.27 142.72,-87.66 149.36,-89.86"/>
</a>
</g>
</g>
<!-- Node10 -->
<g id="Node000010" class="node">
<title>Node10</title>
<g id="a_Node000010"><a xlink:title=" ">
<polygon fill="#e0e0e0" stroke="#999999" points="290.25,-134.25 243.5,-134.25 243.5,-113.5 290.25,-113.5 290.25,-134.25"/>
<text text-anchor="middle" x="266.88" y="-120.75" font-family="Helvetica,sans-Serif" font-size="10.00">vector</text>
</a>
</g>
</g>
<!-- Node6&#45;&gt;Node10 -->
<g id="edge12_Node000006_Node000010" class="edge">
<title>Node6&#45;&gt;Node10</title>
<g id="a_edge12_Node000006_Node000010"><a xlink:title=" ">
<path fill="none" stroke="#63b8ff" d="M340.74,-176.18C327.14,-166.73 306.33,-152.28 290.26,-141.12"/>
<polygon fill="#63b8ff" stroke="#63b8ff" points="292.43,-138.37 282.22,-135.53 288.44,-144.11 292.43,-138.37"/>
</a>
</g>
</g>
<!-- Node11 -->
<g id="Node000011" class="node">
<title>Node11</title>
<g id="a_Node000011"><a xlink:title=" ">
<polygon fill="#e0e0e0" stroke="#999999" points="347.5,-134.25 308.25,-134.25 308.25,-113.5 347.5,-113.5 347.5,-134.25"/>
<text text-anchor="middle" x="327.88" y="-120.75" font-family="Helvetica,sans-Serif" font-size="10.00">span</text>
</a>
</g>
</g>
<!-- Node6&#45;&gt;Node11 -->
<g id="edge13_Node000006_Node000011" class="edge">
<title>Node6&#45;&gt;Node11</title>
<g id="a_edge13_Node000006_Node000011"><a xlink:title=" ">
<path fill="none" stroke="#63b8ff" d="M350.54,-176.18C346.81,-167.75 341.33,-155.34 336.69,-144.84"/>
<polygon fill="#63b8ff" stroke="#63b8ff" points="339.97,-143.59 332.72,-135.85 333.56,-146.42 339.97,-143.59"/>
</a>
</g>
</g>
<!-- Node12 -->
<g id="Node000012" class="node">
<title>Node12</title>
<g id="a_Node000012"><a xlink:title=" ">
<polygon fill="#e0e0e0" stroke="#999999" points="418.25,-134.25 365.5,-134.25 365.5,-113.5 418.25,-113.5 418.25,-134.25"/>
<text text-anchor="middle" x="391.88" y="-120.75" font-family="Helvetica,sans-Serif" font-size="10.00">stdint.h</text>
</a>
</g>
</g>
<!-- Node6&#45;&gt;Node12 -->
<g id="edge14_Node000006_Node000012" class="edge">
<title>Node6&#45;&gt;Node12</title>
<g id="a_edge14_Node000006_Node000012"><a xlink:title=" ">
<path fill="none" stroke="#63b8ff" d="M360.82,-176.18C366.03,-167.57 373.75,-154.81 380.19,-144.17"/>
<polygon fill="#63b8ff" stroke="#63b8ff" points="383.1,-146.13 385.28,-135.76 377.11,-142.51 383.1,-146.13"/>
</a>
</g>
</g>
<!-- Node13&#45;&gt;Node3 -->
<g id="edge17_Node000013_Node000003" class="edge">
<title>Node13&#45;&gt;Node3</title>
<g id="a_edge17_Node000013_Node000003"><a xlink:title=" ">
<path fill="none" stroke="#63b8ff" d="M579.54,-317.14C507.84,-313.97 376.98,-304.1 269.88,-273.25 199.66,-253.03 183.27,-241.78 120.88,-203.75 90.35,-185.14 58.21,-159.06 38.35,-142.06"/>
<polygon fill="#63b8ff" stroke="#63b8ff" points="40.89,-139.63 31.04,-135.73 36.31,-144.92 40.89,-139.63"/>
</a>
</g>
</g>
<!-- Node13&#45;&gt;Node6 -->
<g id="edge22_Node000013_Node000006" class="edge">
<title>Node13&#45;&gt;Node6</title>
<g id="a_edge22_Node000013_Node000006"><a xlink:title=" ">
<path fill="none" stroke="#63b8ff" d="M625.08,-308.91C609.69,-289.94 575.52,-249.04 559.88,-239.75 516.5,-214.01 460.63,-200.99 418.18,-194.45"/>
<polygon fill="#63b8ff" stroke="#63b8ff" points="418.75,-191 408.35,-193.03 417.75,-197.93 418.75,-191"/>
</a>
</g>
</g>
<!-- Node13&#45;&gt;Node8 -->
<g id="edge18_Node000013_Node000008" class="edge">
<title>Node13&#45;&gt;Node8</title>
<g id="a_edge18_Node000013_Node000008"><a xlink:title=" ">
<path fill="none" stroke="#63b8ff" d="M643.43,-308.99C651.87,-300.53 663.06,-287.38 667.88,-273.25 689.91,-208.6 670.64,-126.03 659.49,-88.42"/>
<polygon fill="#63b8ff" stroke="#63b8ff" points="662.97,-87.83 656.66,-79.32 656.28,-89.9 662.97,-87.83"/>
</a>
</g>
</g>
<!-- Node14 -->
<g id="Node000014" class="node">
<title>Node14</title>
<g id="a_Node000014"><a xlink:title=" ">
<polygon fill="#e0e0e0" stroke="#999999" points="658.5,-266.88 607.25,-266.88 607.25,-246.12 658.5,-246.12 658.5,-266.88"/>
<text text-anchor="middle" x="632.88" y="-253.38" font-family="Helvetica,sans-Serif" font-size="10.00">cassert</text>
</a>
</g>
</g>
<!-- Node13&#45;&gt;Node14 -->
<g id="edge16_Node000013_Node000014" class="edge">
<title>Node13&#45;&gt;Node14</title>
<g id="a_edge16_Node000013_Node000014"><a xlink:title=" ">
<path fill="none" stroke="#63b8ff" d="M632.88,-308.8C632.88,-300.65 632.88,-288.76 632.88,-278.48"/>
<polygon fill="#63b8ff" stroke="#63b8ff" points="636.38,-278.61 632.88,-268.61 629.38,-278.61 636.38,-278.61"/>
</a>
</g>
</g>
<!-- Node15 -->
<g id="Node000015" class="node">
<title>Node15</title>
<g id="a_Node000015"><a xlink:href="json-fwd_8hh_source.html" target="_top" xlink:title=" ">
<polygon fill="white" stroke="#666666" points="1446.88,-134.25 1328.88,-134.25 1328.88,-113.5 1446.88,-113.5 1446.88,-134.25"/>
<text text-anchor="middle" x="1387.88" y="-120.75" font-family="Helvetica,sans-Serif" font-size="10.00">lix/libutil/json&#45;fwd.hh</text>
</a>
</g>
</g>
<!-- Node13&#45;&gt;Node15 -->
<g id="edge19_Node000013_Node000015" class="edge">
<title>Node13&#45;&gt;Node15</title>
<g id="a_edge19_Node000013_Node000015"><a xlink:title=" ">
<path fill="none" stroke="#63b8ff" d="M686.11,-318.03C783.32,-316.09 995.7,-307.86 1170.88,-273.25 1271.47,-253.37 1330.26,-286.46 1390.88,-203.75 1403.06,-187.13 1399.89,-162.81 1395.2,-145.58"/>
<polygon fill="#63b8ff" stroke="#63b8ff" points="1398.59,-144.67 1392.26,-136.17 1391.91,-146.76 1398.59,-144.67"/>
</a>
</g>
</g>
<!-- Node18 -->
<g id="Node000018" class="node">
<title>Node18</title>
<g id="a_Node000018"><a xlink:href="experimental-features_8hh.html" target="_top" xlink:title=" ">
<polygon fill="white" stroke="#666666" points="956.38,-273.25 829.38,-273.25 829.38,-239.75 956.38,-239.75 956.38,-273.25"/>
<text text-anchor="start" x="837.38" y="-259.75" font-family="Helvetica,sans-Serif" font-size="10.00">lix/libutil/experimental</text>
<text text-anchor="middle" x="892.88" y="-247" font-family="Helvetica,sans-Serif" font-size="10.00">&#45;features.hh</text>
</a>
</g>
</g>
<!-- Node13&#45;&gt;Node18 -->
<g id="edge23_Node000013_Node000018" class="edge">
<title>Node13&#45;&gt;Node18</title>
<g id="a_edge23_Node000013_Node000018"><a xlink:title=" ">
<path fill="none" stroke="#63b8ff" d="M674.65,-308.8C713.32,-299.71 771.71,-285.98 818.37,-275.02"/>
<polygon fill="#63b8ff" stroke="#63b8ff" points="818.94,-278.48 827.87,-272.78 817.34,-271.66 818.94,-278.48"/>
</a>
</g>
</g>
<!-- Node35 -->
<g id="Node000035" class="node">
<title>Node35</title>
<g id="a_Node000035"><a xlink:href="deprecated-features_8hh.html" target="_top" xlink:title=" ">
<polygon fill="white" stroke="#666666" points="1162.12,-273.25 1045.62,-273.25 1045.62,-239.75 1162.12,-239.75 1162.12,-273.25"/>
<text text-anchor="start" x="1053.62" y="-259.75" font-family="Helvetica,sans-Serif" font-size="10.00">lix/libutil/deprecated</text>
<text text-anchor="middle" x="1103.88" y="-247" font-family="Helvetica,sans-Serif" font-size="10.00">&#45;features.hh</text>
</a>
</g>
</g>
<!-- Node13&#45;&gt;Node35 -->
<g id="edge51_Node000013_Node000035" class="edge">
<title>Node13&#45;&gt;Node35</title>
<g id="a_edge51_Node000013_Node000035"><a xlink:title=" ">
<path fill="none" stroke="#63b8ff" d="M685.99,-311.73C771.41,-300.65 939.33,-278.85 1034.24,-266.54"/>
<polygon fill="#63b8ff" stroke="#63b8ff" points="1034.47,-270.04 1043.94,-265.28 1033.57,-263.09 1034.47,-270.04"/>
</a>
</g>
</g>
<!-- Node37 -->
<g id="Node000037" class="node">
<title>Node37</title>
<g id="a_Node000037"><a xlink:href="apply-config-options_8hh.html" target="_top" xlink:title="Options for applying Config settings.">
<polygon fill="white" stroke="#666666" points="550.75,-273.25 429,-273.25 429,-239.75 550.75,-239.75 550.75,-273.25"/>
<text text-anchor="start" x="437" y="-259.75" font-family="Helvetica,sans-Serif" font-size="10.00">lix/libutil/apply&#45;config</text>
<text text-anchor="middle" x="489.88" y="-247" font-family="Helvetica,sans-Serif" font-size="10.00">&#45;options.hh</text>
</a>
</g>
</g>
<!-- Node13&#45;&gt;Node37 -->
<g id="edge57_Node000013_Node000037" class="edge">
<title>Node13&#45;&gt;Node37</title>
<g id="a_edge57_Node000013_Node000037"><a xlink:title=" ">
<path fill="none" stroke="#63b8ff" d="M609.9,-308.8C590.64,-300.57 562.5,-288.54 538.3,-278.2"/>
<polygon fill="#63b8ff" stroke="#63b8ff" points="539.82,-275.04 529.25,-274.33 537.07,-281.48 539.82,-275.04"/>
</a>
</g>
</g>
<!-- Node38 -->
<g id="Node000038" class="node">
<title>Node38</title>
<g id="a_Node000038"><a xlink:title=" ">
<polygon fill="#e0e0e0" stroke="#999999" points="411,-266.88 278.75,-266.88 278.75,-246.12 411,-246.12 411,-266.88"/>
<text text-anchor="middle" x="344.88" y="-253.38" font-family="Helvetica,sans-Serif" font-size="10.00">feature&#45;settings.gen.inc</text>
</a>
</g>
</g>
<!-- Node13&#45;&gt;Node38 -->
<g id="edge59_Node000013_Node000038" class="edge">
<title>Node13&#45;&gt;Node38</title>
<g id="a_edge59_Node000013_Node000038"><a xlink:title=" ">
<path fill="none" stroke="#63b8ff" d="M586.6,-308.8C536.43,-298.16 456.28,-281.14 402.16,-269.66"/>
<polygon fill="#63b8ff" stroke="#63b8ff" points="403.02,-266.26 392.51,-267.61 401.57,-273.11 403.02,-266.26"/>
</a>
</g>
</g>
<!-- Node16 -->
<g id="Node000016" class="node">
<title>Node16</title>
<g id="a_Node000016"><a xlink:title=" ">
<polygon fill="#e0e0e0" stroke="#999999" points="1453.62,-77.5 1322.12,-77.5 1322.12,-56.75 1453.62,-56.75 1453.62,-77.5"/>
<text text-anchor="middle" x="1387.88" y="-64" font-family="Helvetica,sans-Serif" font-size="10.00">nlohmann/json_fwd.hpp</text>
</a>
</g>
</g>
<!-- Node15&#45;&gt;Node16 -->
<g id="edge20_Node000015_Node000016" class="edge">
<title>Node15&#45;&gt;Node16</title>
<g id="a_edge20_Node000015_Node000016"><a xlink:title=" ">
<path fill="none" stroke="#63b8ff" d="M1387.88,-113.09C1387.88,-106.47 1387.88,-97.47 1387.88,-89.27"/>
<polygon fill="#63b8ff" stroke="#63b8ff" points="1391.38,-89.34 1387.88,-79.34 1384.38,-89.34 1391.38,-89.34"/>
</a>
</g>
</g>
<!-- Node17 -->
<g id="Node000017" class="node">
<title>Node17</title>
<g id="a_Node000017"><a xlink:title=" ">
<polygon fill="#e0e0e0" stroke="#999999" points="1300.12,-77.5 1231.62,-77.5 1231.62,-56.75 1300.12,-56.75 1300.12,-77.5"/>
<text text-anchor="middle" x="1265.88" y="-64" font-family="Helvetica,sans-Serif" font-size="10.00">type_traits</text>
</a>
</g>
</g>
<!-- Node15&#45;&gt;Node17 -->
<g id="edge21_Node000015_Node000017" class="edge">
<title>Node15&#45;&gt;Node17</title>
<g id="a_edge21_Node000015_Node000017"><a xlink:title=" ">
<path fill="none" stroke="#63b8ff" d="M1366.06,-113.09C1347.07,-104.56 1319.28,-92.09 1297.78,-82.44"/>
<polygon fill="#63b8ff" stroke="#63b8ff" points="1299.43,-79.35 1288.88,-78.45 1296.57,-85.74 1299.43,-79.35"/>
</a>
</g>
</g>
<!-- Node18&#45;&gt;Node6 -->
<g id="edge48_Node000018_Node000006" class="edge">
<title>Node18&#45;&gt;Node6</title>
<g id="a_edge48_Node000018_Node000006"><a xlink:title=" ">
<path fill="none" stroke="#63b8ff" d="M829.05,-247.49C725.35,-234.48 521.52,-208.91 418.17,-195.94"/>
<polygon fill="#63b8ff" stroke="#63b8ff" points="418.85,-192.5 408.49,-194.73 417.97,-199.44 418.85,-192.5"/>
</a>
</g>
</g>
<!-- Node18&#45;&gt;Node15 -->
<g id="edge47_Node000018_Node000015" class="edge">
<title>Node18&#45;&gt;Node15</title>
<g id="a_edge47_Node000018_Node000015"><a xlink:title=" ">
<path fill="none" stroke="#63b8ff" d="M956.59,-243.61C1001.6,-234.51 1063.08,-220.67 1115.88,-203.75 1152.97,-191.86 1159.81,-182.23 1196.88,-170.25 1239.23,-156.56 1288.08,-145.02 1325.78,-137.01"/>
<polygon fill="#63b8ff" stroke="#63b8ff" points="1326.05,-140.53 1335.12,-135.06 1324.61,-133.68 1326.05,-140.53"/>
</a>
</g>
</g>
<!-- Node18&#45;&gt;Node17 -->
<g id="edge49_Node000018_Node000017" class="edge">
<title>Node18&#45;&gt;Node17</title>
<g id="a_edge49_Node000018_Node000017"><a xlink:title=" ">
<path fill="none" stroke="#63b8ff" d="M952.63,-239.31C986.19,-229.8 1028.68,-217.06 1065.88,-203.75 1075.29,-200.38 1224.53,-141.04 1231.88,-134.25 1245.2,-121.93 1254.15,-103.19 1259.5,-88.8"/>
<polygon fill="#63b8ff" stroke="#63b8ff" points="1262.79,-90.01 1262.69,-79.41 1256.16,-87.76 1262.79,-90.01"/>
</a>
</g>
</g>
<!-- Node19 -->
<g id="Node000019" class="node">
<title>Node19</title>
<g id="a_Node000019"><a xlink:href="error_8hh.html" target="_top" xlink:title="This file defines two main structs/classes used in nix error handling.">
<polygon fill="white" stroke="#666666" points="1056.5,-197.38 957.25,-197.38 957.25,-176.62 1056.5,-176.62 1056.5,-197.38"/>
<text text-anchor="middle" x="1006.88" y="-183.88" font-family="Helvetica,sans-Serif" font-size="10.00">lix/libutil/error.hh</text>
</a>
</g>
</g>
<!-- Node18&#45;&gt;Node19 -->
<g id="edge24_Node000018_Node000019" class="edge">
<title>Node18&#45;&gt;Node19</title>
<g id="a_edge24_Node000018_Node000019"><a xlink:title=" ">
<path fill="none" stroke="#63b8ff" d="M920.18,-239.33C938.46,-228.51 962.4,-214.34 980.49,-203.63"/>
<polygon fill="#63b8ff" stroke="#63b8ff" points="982.25,-206.65 989.07,-198.54 978.68,-200.63 982.25,-206.65"/>
</a>
</g>
</g>
<!-- Node34 -->
<g id="Node000034" class="node">
<title>Node34</title>
<g id="a_Node000034"><a xlink:title=" ">
<polygon fill="#e0e0e0" stroke="#999999" points="938.75,-197.38 775,-197.38 775,-176.62 938.75,-176.62 938.75,-197.38"/>
<text text-anchor="middle" x="856.88" y="-183.88" font-family="Helvetica,sans-Serif" font-size="10.00">experimental&#45;features.gen.inc</text>
</a>
</g>
</g>
<!-- Node18&#45;&gt;Node34 -->
<g id="edge50_Node000018_Node000034" class="edge">
<title>Node18&#45;&gt;Node34</title>
<g id="a_edge50_Node000018_Node000034"><a xlink:title=" ">
<path fill="none" stroke="#63b8ff" d="M884.34,-239.5C879.27,-230 872.8,-217.87 867.42,-207.77"/>
<polygon fill="#63b8ff" stroke="#63b8ff" points="870.62,-206.33 862.83,-199.16 864.44,-209.63 870.62,-206.33"/>
</a>
</g>
</g>
<!-- Node19&#45;&gt;Node4 -->
<g id="edge41_Node000019_Node000004" class="edge">
<title>Node19&#45;&gt;Node4</title>
<g id="a_edge41_Node000019_Node000004"><a xlink:title=" ">
<path fill="none" stroke="#63b8ff" d="M974.99,-176.18C966.27,-173.85 956.78,-171.65 947.88,-170.25 638.09,-121.64 550.68,-180.05 237.28,-134.29"/>
<polygon fill="#63b8ff" stroke="#63b8ff" points="237.94,-130.85 227.54,-132.84 236.91,-137.78 237.94,-130.85"/>
</a>
</g>
</g>
<!-- Node19&#45;&gt;Node7 -->
<g id="edge39_Node000019_Node000007" class="edge">
<title>Node19&#45;&gt;Node7</title>
<g id="a_edge39_Node000019_Node000007"><a xlink:title=" ">
<path fill="none" stroke="#63b8ff" d="M974.34,-176.16C965.8,-173.9 956.55,-171.73 947.88,-170.25 744.11,-135.59 683.13,-179.44 478.78,-134.31"/>
<polygon fill="#63b8ff" stroke="#63b8ff" points="479.68,-130.93 469.15,-132.14 478.13,-137.75 479.68,-130.93"/>
</a>
</g>
</g>
<!-- Node19&#45;&gt;Node15 -->
<g id="edge25_Node000019_Node000015" class="edge">
<title>Node19&#45;&gt;Node15</title>
<g id="a_edge25_Node000019_Node000015"><a xlink:title=" ">
<path fill="none" stroke="#63b8ff" d="M1056.68,-178.01C1123.26,-167.33 1241.63,-148.34 1317.35,-136.19"/>
<polygon fill="#63b8ff" stroke="#63b8ff" points="1317.85,-139.65 1327.17,-134.61 1316.74,-132.74 1317.85,-139.65"/>
</a>
</g>
</g>
<!-- Node19&#45;&gt;Node17 -->
<g id="edge46_Node000019_Node000017" class="edge">
<title>Node19&#45;&gt;Node17</title>
<g id="a_edge46_Node000019_Node000017"><a xlink:title=" ">
<path fill="none" stroke="#63b8ff" d="M1056.73,-176.44C1107.11,-166.17 1180.98,-149.31 1205.88,-134.25 1225.49,-122.38 1242.46,-102.16 1253.3,-87.2"/>
<polygon fill="#63b8ff" stroke="#63b8ff" points="1256.1,-89.3 1258.92,-79.09 1250.35,-85.31 1256.1,-89.3"/>
</a>
</g>
</g>
<!-- Node20 -->
<g id="Node000020" class="node">
<title>Node20</title>
<g id="a_Node000020"><a xlink:href="suggestions_8hh.html" target="_top" xlink:title=" ">
<polygon fill="white" stroke="#666666" points="620.5,-134.25 485.25,-134.25 485.25,-113.5 620.5,-113.5 620.5,-134.25"/>
<text text-anchor="middle" x="552.88" y="-120.75" font-family="Helvetica,sans-Serif" font-size="10.00">lix/libutil/suggestions.hh</text>
</a>
</g>
</g>
<!-- Node19&#45;&gt;Node20 -->
<g id="edge26_Node000019_Node000020" class="edge">
<title>Node19&#45;&gt;Node20</title>
<g id="a_edge26_Node000019_Node000020"><a xlink:title=" ">
<path fill="none" stroke="#63b8ff" d="M973.37,-176.15C965.09,-173.96 956.21,-171.83 947.88,-170.25 839.45,-149.66 712.38,-137.09 632.25,-130.56"/>
<polygon fill="#63b8ff" stroke="#63b8ff" points="632.53,-127.07 622.28,-129.76 631.97,-134.04 632.53,-127.07"/>
</a>
</g>
</g>
<!-- Node24 -->
<g id="Node000024" class="node">
<title>Node24</title>
<g id="a_Node000024"><a xlink:href="libutil_2fmt_8hh.html" target="_top" xlink:title=" ">
<polygon fill="white" stroke="#666666" points="965.88,-134.25 871.88,-134.25 871.88,-113.5 965.88,-113.5 965.88,-134.25"/>
<text text-anchor="middle" x="918.88" y="-120.75" font-family="Helvetica,sans-Serif" font-size="10.00">lix/libutil/fmt.hh</text>
</a>
</g>
</g>
<!-- Node19&#45;&gt;Node24 -->
<g id="edge33_Node000019_Node000024" class="edge">
<title>Node19&#45;&gt;Node24</title>
<g id="a_edge33_Node000019_Node000024"><a xlink:title=" ">
<path fill="none" stroke="#63b8ff" d="M992.74,-176.18C979.14,-166.73 958.33,-152.28 942.26,-141.12"/>
<polygon fill="#63b8ff" stroke="#63b8ff" points="944.43,-138.37 934.22,-135.53 940.44,-144.11 944.43,-138.37"/>
</a>
</g>
</g>
<!-- Node28 -->
<g id="Node000028" class="node">
<title>Node28</title>
<g id="a_Node000028"><a xlink:title=" ">
<polygon fill="#e0e0e0" stroke="#999999" points="1196.38,-134.25 1147.38,-134.25 1147.38,-113.5 1196.38,-113.5 1196.38,-134.25"/>
<text text-anchor="middle" x="1171.88" y="-120.75" font-family="Helvetica,sans-Serif" font-size="10.00">cstring</text>
</a>
</g>
</g>
<!-- Node19&#45;&gt;Node28 -->
<g id="edge38_Node000019_Node000028" class="edge">
<title>Node19&#45;&gt;Node28</title>
<g id="a_edge38_Node000019_Node000028"><a xlink:title=" ">
<path fill="none" stroke="#63b8ff" d="M1033.39,-176.18C1061.29,-165.84 1105.39,-149.5 1136.31,-138.05"/>
<polygon fill="#63b8ff" stroke="#63b8ff" points="1137.47,-141.35 1145.63,-134.6 1135.04,-134.79 1137.47,-141.35"/>
</a>
</g>
</g>
<!-- Node29 -->
<g id="Node000029" class="node">
<title>Node29</title>
<g id="a_Node000029"><a xlink:title=" ">
<polygon fill="#e0e0e0" stroke="#999999" points="772.5,-134.25 715.25,-134.25 715.25,-113.5 772.5,-113.5 772.5,-134.25"/>
<text text-anchor="middle" x="743.88" y="-120.75" font-family="Helvetica,sans-Serif" font-size="10.00">memory</text>
</a>
</g>
</g>
<!-- Node19&#45;&gt;Node29 -->
<g id="edge40_Node000019_Node000029" class="edge">
<title>Node19&#45;&gt;Node29</title>
<g id="a_edge40_Node000019_Node000029"><a xlink:title=" ">
<path fill="none" stroke="#63b8ff" d="M971.07,-176.14C963.43,-174.12 955.4,-172.06 947.88,-170.25 877.52,-153.29 856.72,-151.7 784.05,-134.93"/>
<polygon fill="#63b8ff" stroke="#63b8ff" points="784.94,-131.55 774.41,-132.69 783.36,-138.36 784.94,-131.55"/>
</a>
</g>
</g>
<!-- Node19&#45;&gt;Node30 -->
<g id="edge42_Node000019_Node000030" class="edge">
<title>Node19&#45;&gt;Node30</title>
<g id="a_edge42_Node000019_Node000030"><a xlink:title=" ">
<path fill="none" stroke="#63b8ff" d="M1056.91,-181.73C1138.03,-174.47 1303.46,-158.33 1453.81,-134.45"/>
<polygon fill="#63b8ff" stroke="#63b8ff" points="1454.25,-137.92 1463.57,-132.88 1453.15,-131.01 1454.25,-137.92"/>
</a>
</g>
</g>
<!-- Node31 -->
<g id="Node000031" class="node">
<title>Node31</title>
<g id="a_Node000031"><a xlink:title=" ">
<polygon fill="#e0e0e0" stroke="#999999" points="853.5,-134.25 790.25,-134.25 790.25,-113.5 853.5,-113.5 853.5,-134.25"/>
<text text-anchor="middle" x="821.88" y="-120.75" font-family="Helvetica,sans-Serif" font-size="10.00">sys/stat.h</text>
</a>
</g>
</g>
<!-- Node19&#45;&gt;Node31 -->
<g id="edge43_Node000019_Node000031" class="edge">
<title>Node19&#45;&gt;Node31</title>
<g id="a_edge43_Node000019_Node000031"><a xlink:title=" ">
<path fill="none" stroke="#63b8ff" d="M977.15,-176.18C946,-165.89 896.86,-149.65 862.22,-138.21"/>
<polygon fill="#63b8ff" stroke="#63b8ff" points="863.56,-134.96 852.96,-135.15 861.36,-141.61 863.56,-134.96"/>
</a>
</g>
</g>
<!-- Node32 -->
<g id="Node000032" class="node">
<title>Node32</title>
<g id="a_Node000032"><a xlink:title=" ">
<polygon fill="#e0e0e0" stroke="#999999" points="1030.25,-134.25 983.5,-134.25 983.5,-113.5 1030.25,-113.5 1030.25,-134.25"/>
<text text-anchor="middle" x="1006.88" y="-120.75" font-family="Helvetica,sans-Serif" font-size="10.00">fcntl.h</text>
</a>
</g>
</g>
<!-- Node19&#45;&gt;Node32 -->
<g id="edge44_Node000019_Node000032" class="edge">
<title>Node19&#45;&gt;Node32</title>
<g id="a_edge44_Node000019_Node000032"><a xlink:title=" ">
<path fill="none" stroke="#63b8ff" d="M1006.88,-176.18C1006.88,-168.02 1006.88,-156.13 1006.88,-145.85"/>
<polygon fill="#63b8ff" stroke="#63b8ff" points="1010.38,-145.98 1006.88,-135.98 1003.38,-145.98 1010.38,-145.98"/>
</a>
</g>
</g>
<!-- Node33 -->
<g id="Node000033" class="node">
<title>Node33</title>
<g id="a_Node000033"><a xlink:title=" ">
<polygon fill="#e0e0e0" stroke="#999999" points="1129.12,-134.25 1048.62,-134.25 1048.62,-113.5 1129.12,-113.5 1129.12,-134.25"/>
<text text-anchor="middle" x="1088.88" y="-120.75" font-family="Helvetica,sans-Serif" font-size="10.00">system_error</text>
</a>
</g>
</g>
<!-- Node19&#45;&gt;Node33 -->
<g id="edge45_Node000019_Node000033" class="edge">
<title>Node19&#45;&gt;Node33</title>
<g id="a_edge45_Node000019_Node000033"><a xlink:title=" ">
<path fill="none" stroke="#63b8ff" d="M1020.05,-176.18C1032.6,-166.82 1051.74,-152.55 1066.66,-141.44"/>
<polygon fill="#63b8ff" stroke="#63b8ff" points="1068.59,-144.36 1074.52,-135.58 1064.41,-138.75 1068.59,-144.36"/>
</a>
</g>
</g>
<!-- Node20&#45;&gt;Node5 -->
<g id="edge31_Node000020_Node000005" class="edge">
<title>Node20&#45;&gt;Node5</title>
<g id="a_edge31_Node000020_Node000005"><a xlink:title=" ">
<path fill="none" stroke="#63b8ff" d="M512.57,-113.02C469.58,-102.52 402.27,-86.07 362.18,-76.26"/>
<polygon fill="#63b8ff" stroke="#63b8ff" points="363.16,-72.9 352.62,-73.93 361.5,-79.7 363.16,-72.9"/>
</a>
</g>
</g>
<!-- Node20&#45;&gt;Node8 -->
<g id="edge29_Node000020_Node000008" class="edge">
<title>Node20&#45;&gt;Node8</title>
<g id="a_edge29_Node000020_Node000008"><a xlink:title=" ">
<path fill="none" stroke="#63b8ff" d="M570.75,-113.09C586.53,-104.45 609.71,-91.76 627.43,-82.06"/>
<polygon fill="#63b8ff" stroke="#63b8ff" points="628.71,-85.35 635.8,-77.47 625.35,-79.21 628.71,-85.35"/>
</a>
</g>
</g>
<!-- Node20&#45;&gt;Node9 -->
<g id="edge30_Node000020_Node000009" class="edge">
<title>Node20&#45;&gt;Node9</title>
<g id="a_edge30_Node000020_Node000009"><a xlink:title=" ">
<path fill="none" stroke="#63b8ff" d="M485.19,-113.59C404.63,-102.53 272.17,-84.36 201.61,-74.67"/>
<polygon fill="#63b8ff" stroke="#63b8ff" points="202.3,-71.24 191.92,-73.35 201.35,-78.17 202.3,-71.24"/>
</a>
</g>
</g>
<!-- Node21 -->
<g id="Node000021" class="node">
<title>Node21</title>
<g id="a_Node000021"><a xlink:href="comparator_8hh.html" target="_top" xlink:title=" ">
<polygon fill="white" stroke="#666666" points="619,-77.5 486.75,-77.5 486.75,-56.75 619,-56.75 619,-77.5"/>
<text text-anchor="middle" x="552.88" y="-64" font-family="Helvetica,sans-Serif" font-size="10.00">lix/libutil/comparator.hh</text>
</a>
</g>
</g>
<!-- Node20&#45;&gt;Node21 -->
<g id="edge27_Node000020_Node000021" class="edge">
<title>Node20&#45;&gt;Node21</title>
<g id="a_edge27_Node000020_Node000021"><a xlink:title=" ">
<path fill="none" stroke="#63b8ff" d="M552.88,-113.09C552.88,-106.47 552.88,-97.47 552.88,-89.27"/>
<polygon fill="#63b8ff" stroke="#63b8ff" points="556.38,-89.34 552.88,-79.34 549.38,-89.34 556.38,-89.34"/>
</a>
</g>
</g>
<!-- Node23 -->
<g id="Node000023" class="node">
<title>Node23</title>
<g id="a_Node000023"><a xlink:title=" ">
<polygon fill="#e0e0e0" stroke="#999999" points="469.12,-77.5 418.62,-77.5 418.62,-56.75 469.12,-56.75 469.12,-77.5"/>
<text text-anchor="middle" x="443.88" y="-64" font-family="Helvetica,sans-Serif" font-size="10.00">variant</text>
</a>
</g>
</g>
<!-- Node20&#45;&gt;Node23 -->
<g id="edge32_Node000020_Node000023" class="edge">
<title>Node20&#45;&gt;Node23</title>
<g id="a_edge32_Node000020_Node000023"><a xlink:title=" ">
<path fill="none" stroke="#63b8ff" d="M533.39,-113.09C516.73,-104.72 492.49,-92.54 473.44,-82.97"/>
<polygon fill="#63b8ff" stroke="#63b8ff" points="475.05,-79.87 464.55,-78.51 471.91,-86.12 475.05,-79.87"/>
</a>
</g>
</g>
<!-- Node22 -->
<g id="Node000022" class="node">
<title>Node22</title>
<g id="a_Node000022"><a xlink:title=" ">
<polygon fill="#e0e0e0" stroke="#999999" points="573.25,-20.75 532.5,-20.75 532.5,0 573.25,0 573.25,-20.75"/>
<text text-anchor="middle" x="552.88" y="-7.25" font-family="Helvetica,sans-Serif" font-size="10.00">tuple</text>
</a>
</g>
</g>
<!-- Node21&#45;&gt;Node22 -->
<g id="edge28_Node000021_Node000022" class="edge">
<title>Node21&#45;&gt;Node22</title>
<g id="a_edge28_Node000021_Node000022"><a xlink:title=" ">
<path fill="none" stroke="#63b8ff" d="M552.88,-56.34C552.88,-49.72 552.88,-40.72 552.88,-32.52"/>
<polygon fill="#63b8ff" stroke="#63b8ff" points="556.38,-32.59 552.88,-22.59 549.38,-32.59 556.38,-32.59"/>
</a>
</g>
</g>
<!-- Node24&#45;&gt;Node5 -->
<g id="edge35_Node000024_Node000005" class="edge">
<title>Node24&#45;&gt;Node5</title>
<g id="a_edge35_Node000024_Node000005"><a xlink:title=" ">
<path fill="none" stroke="#63b8ff" d="M871.56,-114.66C868.63,-114.24 865.71,-113.85 862.88,-113.5 662.42,-88.8 610.89,-97.11 409.88,-77.5 394.2,-75.97 376.85,-74 362.24,-72.26"/>
<polygon fill="#63b8ff" stroke="#63b8ff" points="363.05,-68.83 352.7,-71.11 362.21,-75.78 363.05,-68.83"/>
</a>
</g>
</g>
<!-- Node25 -->
<g id="Node000025" class="node">
<title>Node25</title>
<g id="a_Node000025"><a xlink:title=" ">
<polygon fill="#e0e0e0" stroke="#999999" points="850.62,-77.5 791.12,-77.5 791.12,-56.75 850.62,-56.75 850.62,-77.5"/>
<text text-anchor="middle" x="820.88" y="-64" font-family="Helvetica,sans-Serif" font-size="10.00">iostream</text>
</a>
</g>
</g>
<!-- Node24&#45;&gt;Node25 -->
<g id="edge34_Node000024_Node000025" class="edge">
<title>Node24&#45;&gt;Node25</title>
<g id="a_edge34_Node000024_Node000025"><a xlink:title=" ">
<path fill="none" stroke="#63b8ff" d="M901.35,-113.09C886.58,-104.83 865.19,-92.88 848.18,-83.38"/>
<polygon fill="#63b8ff" stroke="#63b8ff" points="850,-80.39 839.57,-78.57 846.59,-86.5 850,-80.39"/>
</a>
</g>
</g>
<!-- Node26 -->
<g id="Node000026" class="node">
<title>Node26</title>
<g id="a_Node000026"><a xlink:title=" ">
<polygon fill="#e0e0e0" stroke="#999999" points="968.88,-77.5 868.88,-77.5 868.88,-56.75 968.88,-56.75 968.88,-77.5"/>
<text text-anchor="middle" x="918.88" y="-64" font-family="Helvetica,sans-Serif" font-size="10.00">boost/format.hpp</text>
</a>
</g>
</g>
<!-- Node24&#45;&gt;Node26 -->
<g id="edge36_Node000024_Node000026" class="edge">
<title>Node24&#45;&gt;Node26</title>
<g id="a_edge36_Node000024_Node000026"><a xlink:title=" ">
<path fill="none" stroke="#63b8ff" d="M918.88,-113.09C918.88,-106.47 918.88,-97.47 918.88,-89.27"/>
<polygon fill="#63b8ff" stroke="#63b8ff" points="922.38,-89.34 918.88,-79.34 915.38,-89.34 922.38,-89.34"/>
</a>
</g>
</g>
<!-- Node27 -->
<g id="Node000027" class="node">
<title>Node27</title>
<g id="a_Node000027"><a xlink:href="ansicolor_8hh.html" target="_top" xlink:title="Some ANSI escape sequences.">
<polygon fill="white" stroke="#666666" points="1107,-77.5 986.75,-77.5 986.75,-56.75 1107,-56.75 1107,-77.5"/>
<text text-anchor="middle" x="1046.88" y="-64" font-family="Helvetica,sans-Serif" font-size="10.00">lix/libutil/ansicolor.hh</text>
</a>
</g>
</g>
<!-- Node24&#45;&gt;Node27 -->
<g id="edge37_Node000024_Node000027" class="edge">
<title>Node24&#45;&gt;Node27</title>
<g id="a_edge37_Node000024_Node000027"><a xlink:title=" ">
<path fill="none" stroke="#63b8ff" d="M941.76,-113.09C961.78,-104.52 991.11,-91.98 1013.71,-82.31"/>
<polygon fill="#63b8ff" stroke="#63b8ff" points="1014.98,-85.57 1022.8,-78.42 1012.23,-79.14 1014.98,-85.57"/>
</a>
</g>
</g>
<!-- Node35&#45;&gt;Node6 -->
<g id="edge54_Node000035_Node000006" class="edge">
<title>Node35&#45;&gt;Node6</title>
<g id="a_edge54_Node000035_Node000006"><a xlink:title=" ">
<path fill="none" stroke="#63b8ff" d="M1045.16,-248.42C1020.67,-245.56 991.91,-242.34 965.88,-239.75 766.36,-219.92 529.72,-201.26 418.55,-192.78"/>
<polygon fill="#63b8ff" stroke="#63b8ff" points="418.98,-189.3 408.74,-192.03 418.45,-196.28 418.98,-189.3"/>
</a>
</g>
</g>
<!-- Node35&#45;&gt;Node15 -->
<g id="edge53_Node000035_Node000015" class="edge">
<title>Node35&#45;&gt;Node15</title>
<g id="a_edge53_Node000035_Node000015"><a xlink:title=" ">
<path fill="none" stroke="#63b8ff" d="M1162.54,-251.34C1231.41,-245.25 1339.92,-231.47 1368.88,-203.75 1384.34,-188.94 1388.14,-163.91 1388.67,-146.01"/>
<polygon fill="#63b8ff" stroke="#63b8ff" points="1392.17,-146.23 1388.62,-136.25 1385.17,-146.27 1392.17,-146.23"/>
</a>
</g>
</g>
<!-- Node35&#45;&gt;Node17 -->
<g id="edge55_Node000035_Node000017" class="edge">
<title>Node35&#45;&gt;Node17</title>
<g id="a_edge55_Node000035_Node000017"><a xlink:title=" ">
<path fill="none" stroke="#63b8ff" d="M1118.39,-239.38C1135.7,-220.88 1166.14,-190.49 1196.88,-170.25 1229.44,-148.8 1255.7,-166.99 1276.88,-134.25 1285.66,-120.66 1281.66,-102.32 1276.16,-88.4"/>
<polygon fill="#63b8ff" stroke="#63b8ff" points="1279.37,-87.01 1272.07,-79.34 1272.99,-89.89 1279.37,-87.01"/>
</a>
</g>
</g>
<!-- Node35&#45;&gt;Node19 -->
<g id="edge52_Node000035_Node000019" class="edge">
<title>Node35&#45;&gt;Node19</title>
<g id="a_edge52_Node000035_Node000019"><a xlink:title=" ">
<path fill="none" stroke="#63b8ff" d="M1080.89,-239.5C1065.63,-228.89 1045.66,-214.99 1030.31,-204.31"/>
<polygon fill="#63b8ff" stroke="#63b8ff" points="1032.44,-201.53 1022.23,-198.69 1028.44,-207.27 1032.44,-201.53"/>
</a>
</g>
</g>
<!-- Node36 -->
<g id="Node000036" class="node">
<title>Node36</title>
<g id="a_Node000036"><a xlink:title=" ">
<polygon fill="#e0e0e0" stroke="#999999" points="1359.5,-197.38 1206.25,-197.38 1206.25,-176.62 1359.5,-176.62 1359.5,-197.38"/>
<text text-anchor="middle" x="1282.88" y="-183.88" font-family="Helvetica,sans-Serif" font-size="10.00">deprecated&#45;features.gen.inc</text>
</a>
</g>
</g>
<!-- Node35&#45;&gt;Node36 -->
<g id="edge56_Node000035_Node000036" class="edge">
<title>Node35&#45;&gt;Node36</title>
<g id="a_edge56_Node000035_Node000036"><a xlink:title=" ">
<path fill="none" stroke="#63b8ff" d="M1146.75,-239.33C1177.11,-227.88 1217.39,-212.69 1246.25,-201.81"/>
<polygon fill="#63b8ff" stroke="#63b8ff" points="1247.16,-205.21 1255.29,-198.4 1244.69,-198.66 1247.16,-205.21"/>
</a>
</g>
</g>
<!-- Node37&#45;&gt;Node6 -->
<g id="edge58_Node000037_Node000006" class="edge">
<title>Node37&#45;&gt;Node6</title>
<g id="a_edge58_Node000037_Node000006"><a xlink:title=" ">
<path fill="none" stroke="#63b8ff" d="M457.54,-239.33C435.38,-228.25 406.22,-213.67 384.64,-202.88"/>
<polygon fill="#63b8ff" stroke="#63b8ff" points="386.28,-199.79 375.77,-198.45 383.15,-206.05 386.28,-199.79"/>
</a>
</g>
</g>
</g>
</svg>
