<?xml version="1.0" encoding="UTF-8" standalone="no"?>
<!DOCTYPE svg PUBLIC "-//W3C//DTD SVG 1.1//EN"
 "http://www.w3.org/Graphics/SVG/1.1/DTD/svg11.dtd">
<!-- Generated by graphviz version 12.2.1 (0)
 -->
<!-- Title: Graphical Class Hierarchy Pages: 1 -->
<svg width="300pt" height="80pt"
 viewBox="0.00 0.00 300.25 80.12" xmlns="http://www.w3.org/2000/svg" xmlns:xlink="http://www.w3.org/1999/xlink">
<g id="graph0" class="graph" transform="scale(1 1) rotate(0) translate(4 76.12)">
<title>Graphical Class Hierarchy</title>
<!-- Node0 -->
<g id="Node000000" class="node">
<title>Node0</title>
<g id="a_Node000000"><a xlink:href="structnix_1_1HookReplyBase.html" target="_top" xlink:title=" ">
<polygon fill="white" stroke="#666666" points="114.25,-72.12 0,-72.12 0,-51.38 114.25,-51.38 114.25,-72.12"/>
<text text-anchor="middle" x="57.12" y="-58.62" font-family="Helvetica,sans-Serif" font-size="10.00">nix::HookReplyBase</text>
</a>
</g>
</g>
<!-- Node1 -->
<g id="Node000001" class="node">
<title>Node1</title>
<g id="a_Node000001"><a xlink:href="structnix_1_1HookReply.html" target="_top" xlink:title=" ">
<polygon fill="white" stroke="#666666" points="266.38,-72.12 176.12,-72.12 176.12,-51.38 266.38,-51.38 266.38,-72.12"/>
<text text-anchor="middle" x="221.25" y="-58.62" font-family="Helvetica,sans-Serif" font-size="10.00">nix::HookReply</text>
</a>
</g>
</g>
<!-- Node0&#45;&gt;Node1 -->
<g id="edge342_Node000000_Node000001" class="edge">
<title>Node0&#45;&gt;Node1</title>
<g id="a_edge342_Node000000_Node000001"><a xlink:title=" ">
<path fill="none" stroke="#63b8ff" d="M125.41,-61.75C142.43,-61.75 160.28,-61.75 175.85,-61.75"/>
<polygon fill="#63b8ff" stroke="#63b8ff" points="125.89,-58.25 115.89,-61.75 125.89,-65.25 125.89,-58.25"/>
</a>
</g>
</g>
<!-- Node2 -->
<g id="Node000002" class="node">
<title>Node2</title>
<g id="a_Node000002"><a xlink:title=" ">
<polygon fill="#e0e0e0" stroke="#999999" points="92.88,-30.12 21.38,-30.12 21.38,-9.38 92.88,-9.38 92.88,-30.12"/>
<text text-anchor="middle" x="57.12" y="-16.62" font-family="Helvetica,sans-Serif" font-size="10.00">std::variant</text>
</a>
</g>
</g>
<!-- Node2&#45;&gt;Node1 -->
<g id="edge344_Node000002_Node000001" class="edge">
<title>Node2&#45;&gt;Node1</title>
<g id="a_edge344_Node000002_Node000001"><a xlink:title=" ">
<path fill="none" stroke="#63b8ff" d="M104.34,-31.72C127.71,-37.78 155.84,-45.06 178.54,-50.94"/>
<polygon fill="#63b8ff" stroke="#63b8ff" points="105.33,-28.36 94.77,-29.24 103.57,-35.14 105.33,-28.36"/>
</a>
</g>
</g>
<!-- Node3 -->
<g id="Node000003" class="node">
<title>Node3</title>
<g id="a_Node000003"><a xlink:href="structnix_1_1EvalPaths_1_1PathResult.html" target="_top" xlink:title=" ">
<polygon fill="white" stroke="#666666" points="292.25,-33.5 150.25,-33.5 150.25,0 292.25,0 292.25,-33.5"/>
<text text-anchor="start" x="158.25" y="-20" font-family="Helvetica,sans-Serif" font-size="10.00">nix::EvalPaths::PathResult</text>
<text text-anchor="middle" x="221.25" y="-7.25" font-family="Helvetica,sans-Serif" font-size="10.00">&lt; T, E &gt;</text>
</a>
</g>
</g>
<!-- Node2&#45;&gt;Node3 -->
<g id="edge343_Node000002_Node000003" class="edge">
<title>Node2&#45;&gt;Node3</title>
<g id="a_edge343_Node000002_Node000003"><a xlink:title=" ">
<path fill="none" stroke="#8b1a1a" d="M104.68,-18.89C118.76,-18.63 134.55,-18.34 149.83,-18.05"/>
<polygon fill="#8b1a1a" stroke="#8b1a1a" points="104.75,-15.39 94.82,-19.07 104.88,-22.39 104.75,-15.39"/>
</a>
</g>
</g>
</g>
</svg>
