<?xml version="1.0" encoding="UTF-8" standalone="no"?>
<!DOCTYPE svg PUBLIC "-//W3C//DTD SVG 1.1//EN"
 "http://www.w3.org/Graphics/SVG/1.1/DTD/svg11.dtd">
<!-- Generated by graphviz version 12.2.1 (0)
 -->
<!-- Title: Graphical Class Hierarchy Pages: 1 -->
<svg width="444pt" height="107pt"
 viewBox="0.00 0.00 443.75 106.75" xmlns="http://www.w3.org/2000/svg" xmlns:xlink="http://www.w3.org/1999/xlink">
<g id="graph0" class="graph" transform="scale(1 1) rotate(0) translate(4 102.75)">
<title>Graphical Class Hierarchy</title>
<!-- Node0 -->
<g id="Node000000" class="node">
<title>Node0</title>
<g id="a_Node000000"><a xlink:href="structnix_1_1Goal.html" target="_top" xlink:title=" ">
<polygon fill="white" stroke="#666666" points="59.5,-59.75 0,-59.75 0,-39 59.5,-39 59.5,-59.75"/>
<text text-anchor="middle" x="29.75" y="-46.25" font-family="Helvetica,sans-Serif" font-size="10.00">nix::Goal</text>
</a>
</g>
</g>
<!-- Node1 -->
<g id="Node000001" class="node">
<title>Node1</title>
<g id="a_Node000001"><a xlink:href="structnix_1_1DerivationGoal.html" target="_top" xlink:title=" ">
<polygon fill="white" stroke="#666666" points="234.88,-98.75 124.38,-98.75 124.38,-78 234.88,-78 234.88,-98.75"/>
<text text-anchor="middle" x="179.62" y="-85.25" font-family="Helvetica,sans-Serif" font-size="10.00">nix::DerivationGoal</text>
</a>
</g>
</g>
<!-- Node0&#45;&gt;Node1 -->
<g id="edge336_Node000000_Node000001" class="edge">
<title>Node0&#45;&gt;Node1</title>
<g id="a_edge336_Node000000_Node000001"><a xlink:title=" ">
<path fill="none" stroke="#63b8ff" d="M70.79,-61.46C78.95,-63.83 87.48,-66.24 95.5,-68.38 107.26,-71.51 120.01,-74.69 131.92,-77.57"/>
<polygon fill="#63b8ff" stroke="#63b8ff" points="72.03,-58.17 61.45,-58.72 70.06,-64.89 72.03,-58.17"/>
</a>
</g>
</g>
<!-- Node3 -->
<g id="Node000003" class="node">
<title>Node3</title>
<g id="a_Node000003"><a xlink:href="classnix_1_1DrvOutputSubstitutionGoal.html" target="_top" xlink:title=" ">
<polygon fill="white" stroke="#666666" points="263.75,-59.75 95.5,-59.75 95.5,-39 263.75,-39 263.75,-59.75"/>
<text text-anchor="middle" x="179.62" y="-46.25" font-family="Helvetica,sans-Serif" font-size="10.00">nix::DrvOutputSubstitutionGoal</text>
</a>
</g>
</g>
<!-- Node0&#45;&gt;Node3 -->
<g id="edge338_Node000000_Node000003" class="edge">
<title>Node0&#45;&gt;Node3</title>
<g id="a_edge338_Node000000_Node000003"><a xlink:title=" ">
<path fill="none" stroke="#63b8ff" d="M71.25,-49.38C78.77,-49.38 86.88,-49.38 95.15,-49.38"/>
<polygon fill="#63b8ff" stroke="#63b8ff" points="71.48,-45.88 61.48,-49.38 71.48,-52.88 71.48,-45.88"/>
</a>
</g>
</g>
<!-- Node4 -->
<g id="Node000004" class="node">
<title>Node4</title>
<g id="a_Node000004"><a xlink:href="structnix_1_1PathSubstitutionGoal.html" target="_top" xlink:title=" ">
<polygon fill="white" stroke="#666666" points="249.12,-20.75 110.12,-20.75 110.12,0 249.12,0 249.12,-20.75"/>
<text text-anchor="middle" x="179.62" y="-7.25" font-family="Helvetica,sans-Serif" font-size="10.00">nix::PathSubstitutionGoal</text>
</a>
</g>
</g>
<!-- Node0&#45;&gt;Node4 -->
<g id="edge339_Node000000_Node000004" class="edge">
<title>Node0&#45;&gt;Node4</title>
<g id="a_edge339_Node000000_Node000004"><a xlink:title=" ">
<path fill="none" stroke="#63b8ff" d="M70.79,-37.29C78.95,-34.92 87.48,-32.51 95.5,-30.38 107.26,-27.24 120.01,-24.06 131.92,-21.18"/>
<polygon fill="#63b8ff" stroke="#63b8ff" points="70.06,-33.86 61.45,-40.03 72.03,-40.58 70.06,-33.86"/>
</a>
</g>
</g>
<!-- Node2 -->
<g id="Node000002" class="node">
<title>Node2</title>
<g id="a_Node000002"><a xlink:href="structnix_1_1LocalDerivationGoal.html" target="_top" xlink:title=" ">
<polygon fill="white" stroke="#666666" points="435.75,-98.75 299.75,-98.75 299.75,-78 435.75,-78 435.75,-98.75"/>
<text text-anchor="middle" x="367.75" y="-85.25" font-family="Helvetica,sans-Serif" font-size="10.00">nix::LocalDerivationGoal</text>
</a>
</g>
</g>
<!-- Node1&#45;&gt;Node2 -->
<g id="edge337_Node000001_Node000002" class="edge">
<title>Node1&#45;&gt;Node2</title>
<g id="a_edge337_Node000001_Node000002"><a xlink:title=" ">
<path fill="none" stroke="#63b8ff" d="M246.28,-88.38C263.46,-88.38 282.01,-88.38 299.28,-88.38"/>
<polygon fill="#63b8ff" stroke="#63b8ff" points="246.72,-84.88 236.72,-88.38 246.72,-91.88 246.72,-84.88"/>
</a>
</g>
</g>
</g>
</svg>
