<?xml version="1.0" encoding="UTF-8" standalone="no"?>
<!DOCTYPE svg PUBLIC "-//W3C//DTD SVG 1.1//EN"
 "http://www.w3.org/Graphics/SVG/1.1/DTD/svg11.dtd">
<!-- Generated by graphviz version 12.2.1 (0)
 -->
<!-- Title: Graphical Class Hierarchy Pages: 1 -->
<svg width="370pt" height="224pt"
 viewBox="0.00 0.00 370.00 223.75" xmlns="http://www.w3.org/2000/svg" xmlns:xlink="http://www.w3.org/1999/xlink">
<g id="graph0" class="graph" transform="scale(1 1) rotate(0) translate(4 219.75)">
<title>Graphical Class Hierarchy</title>
<!-- Node0 -->
<g id="Node000000" class="node">
<title>Node0</title>
<g id="a_Node000000"><a xlink:title=" ">
<polygon fill="#e0e0e0" stroke="#999999" points="128.5,-117.75 0,-117.75 0,-97 128.5,-97 128.5,-117.75"/>
<text text-anchor="middle" x="64.25" y="-104.25" font-family="Helvetica,sans-Serif" font-size="10.00">testing::TestWithParam</text>
</a>
</g>
</g>
<!-- Node1 -->
<g id="Node000001" class="node">
<title>Node1</title>
<g id="a_Node000001"><a xlink:href="classnix_1_1FileTransferEncoding.html" target="_top" xlink:title=" ">
<polygon fill="white" stroke="#666666" points="332,-215.75 194.5,-215.75 194.5,-195 332,-195 332,-215.75"/>
<text text-anchor="middle" x="263.25" y="-202.25" font-family="Helvetica,sans-Serif" font-size="10.00">nix::FileTransferEncoding</text>
</a>
</g>
</g>
<!-- Node0&#45;&gt;Node1 -->
<g id="edge476_Node000000_Node000001" class="edge">
<title>Node0&#45;&gt;Node1</title>
<g id="a_edge476_Node000000_Node000001"><a xlink:title=" ">
<path fill="none" stroke="#63b8ff" d="M83.59,-126.18C102.26,-144.19 132.89,-170.73 164.5,-185.38 173.77,-189.67 183.96,-193.05 194.16,-195.71"/>
<polygon fill="#63b8ff" stroke="#63b8ff" points="86.08,-123.72 76.51,-119.18 81.16,-128.7 86.08,-123.72"/>
</a>
</g>
</g>
<!-- Node2 -->
<g id="Node000002" class="node">
<title>Node2</title>
<g id="a_Node000002"><a xlink:href="classnix_1_1LevenshteinDistanceTest.html" target="_top" xlink:title=" ">
<polygon fill="white" stroke="#666666" points="342.5,-176.75 184,-176.75 184,-156 342.5,-156 342.5,-176.75"/>
<text text-anchor="middle" x="263.25" y="-163.25" font-family="Helvetica,sans-Serif" font-size="10.00">nix::LevenshteinDistanceTest</text>
</a>
</g>
</g>
<!-- Node0&#45;&gt;Node2 -->
<g id="edge477_Node000000_Node000002" class="edge">
<title>Node0&#45;&gt;Node2</title>
<g id="a_edge477_Node000000_Node000002"><a xlink:title=" ">
<path fill="none" stroke="#63b8ff" d="M99.77,-122.64C118.62,-130.54 142.54,-139.87 164.5,-146.38 176.21,-149.84 188.88,-152.92 201.1,-155.56"/>
<polygon fill="#63b8ff" stroke="#63b8ff" points="101.28,-119.48 90.7,-118.78 98.53,-125.92 101.28,-119.48"/>
</a>
</g>
</g>
<!-- Node3 -->
<g id="Node000003" class="node">
<title>Node3</title>
<g id="a_Node000003"><a xlink:href="classnix_1_1NarTest.html" target="_top" xlink:title=" ">
<polygon fill="white" stroke="#666666" points="300.12,-137.75 226.38,-137.75 226.38,-117 300.12,-117 300.12,-137.75"/>
<text text-anchor="middle" x="263.25" y="-124.25" font-family="Helvetica,sans-Serif" font-size="10.00">nix::NarTest</text>
</a>
</g>
</g>
<!-- Node0&#45;&gt;Node3 -->
<g id="edge478_Node000000_Node000003" class="edge">
<title>Node0&#45;&gt;Node3</title>
<g id="a_edge478_Node000000_Node000003"><a xlink:title=" ">
<path fill="none" stroke="#63b8ff" d="M140.06,-114.97C169.52,-117.96 201.99,-121.26 226.05,-123.7"/>
<polygon fill="#63b8ff" stroke="#63b8ff" points="140.75,-111.52 130.44,-113.99 140.04,-118.49 140.75,-111.52"/>
</a>
</g>
</g>
<!-- Node4 -->
<g id="Node000004" class="node">
<title>Node4</title>
<g id="a_Node000004"><a xlink:href="classnix_1_1PerTypeCompressionTest.html" target="_top" xlink:title=" ">
<polygon fill="white" stroke="#666666" points="342.5,-98.75 184,-98.75 184,-78 342.5,-78 342.5,-98.75"/>
<text text-anchor="middle" x="263.25" y="-85.25" font-family="Helvetica,sans-Serif" font-size="10.00">nix::PerTypeCompressionTest</text>
</a>
</g>
</g>
<!-- Node0&#45;&gt;Node4 -->
<g id="edge479_Node000000_Node000004" class="edge">
<title>Node0&#45;&gt;Node4</title>
<g id="a_edge479_Node000000_Node000004"><a xlink:title=" ">
<path fill="none" stroke="#63b8ff" d="M140.16,-100.15C154.38,-98.78 169.28,-97.34 183.61,-95.96"/>
<polygon fill="#63b8ff" stroke="#63b8ff" points="140.06,-96.64 130.44,-101.09 140.73,-103.61 140.06,-96.64"/>
</a>
</g>
</g>
<!-- Node5 -->
<g id="Node000005" class="node">
<title>Node5</title>
<g id="a_Node000005"><a xlink:href="classnix_1_1PerTypeNonNullCompressionTest.html" target="_top" xlink:title=" ">
<polygon fill="white" stroke="#666666" points="362,-59.75 164.5,-59.75 164.5,-39 362,-39 362,-59.75"/>
<text text-anchor="middle" x="263.25" y="-46.25" font-family="Helvetica,sans-Serif" font-size="10.00">nix::PerTypeNonNullCompressionTest</text>
</a>
</g>
</g>
<!-- Node0&#45;&gt;Node5 -->
<g id="edge480_Node000000_Node000005" class="edge">
<title>Node0&#45;&gt;Node5</title>
<g id="a_edge480_Node000000_Node000005"><a xlink:title=" ">
<path fill="none" stroke="#63b8ff" d="M100.58,-92.23C119.32,-84.61 142.88,-75.68 164.5,-69.38 176.31,-65.93 189.08,-62.86 201.38,-60.22"/>
<polygon fill="#63b8ff" stroke="#63b8ff" points="99.46,-88.9 91.55,-95.96 102.13,-95.37 99.46,-88.9"/>
</a>
</g>
</g>
<!-- Node6 -->
<g id="Node000006" class="node">
<title>Node6</title>
<g id="a_Node000006"><a xlink:href="classnix_1_1RewriteTest.html" target="_top" xlink:title=" ">
<polygon fill="white" stroke="#666666" points="310.25,-20.75 216.25,-20.75 216.25,0 310.25,0 310.25,-20.75"/>
<text text-anchor="middle" x="263.25" y="-7.25" font-family="Helvetica,sans-Serif" font-size="10.00">nix::RewriteTest</text>
</a>
</g>
</g>
<!-- Node0&#45;&gt;Node6 -->
<g id="edge481_Node000000_Node000006" class="edge">
<title>Node0&#45;&gt;Node6</title>
<g id="a_edge481_Node000000_Node000006"><a xlink:title=" ">
<path fill="none" stroke="#63b8ff" d="M83.94,-88.53C102.67,-70.76 133.17,-44.78 164.5,-30.38 180.55,-23 199.33,-18.32 216.12,-15.37"/>
<polygon fill="#63b8ff" stroke="#63b8ff" points="81.55,-85.97 76.82,-95.45 86.43,-90.99 81.55,-85.97"/>
</a>
</g>
</g>
</g>
</svg>
