<?xml version="1.0" encoding="UTF-8" standalone="no"?>
<!DOCTYPE svg PUBLIC "-//W3C//DTD SVG 1.1//EN"
 "http://www.w3.org/Graphics/SVG/1.1/DTD/svg11.dtd">
<!-- Generated by graphviz version 12.2.1 (0)
 -->
<!-- Title: Graphical Class Hierarchy Pages: 1 -->
<svg width="297pt" height="68pt"
 viewBox="0.00 0.00 296.50 67.75" xmlns="http://www.w3.org/2000/svg" xmlns:xlink="http://www.w3.org/1999/xlink">
<g id="graph0" class="graph" transform="scale(1 1) rotate(0) translate(4 63.75)">
<title>Graphical Class Hierarchy</title>
<!-- Node0 -->
<g id="Node000000" class="node">
<title>Node0</title>
<g id="a_Node000000"><a xlink:href="classnix_1_1ReplInteracter.html" target="_top" xlink:title=" ">
<polygon fill="white" stroke="#666666" points="106,-39.75 0,-39.75 0,-19 106,-19 106,-39.75"/>
<text text-anchor="middle" x="53" y="-26.25" font-family="Helvetica,sans-Serif" font-size="10.00">nix::ReplInteracter</text>
</a>
</g>
</g>
<!-- Node1 -->
<g id="Node000001" class="node">
<title>Node1</title>
<g id="a_Node000001"><a xlink:href="classnix_1_1AutomationInteracter.html" target="_top" xlink:title=" ">
<polygon fill="white" stroke="#666666" points="285.88,-59.75 144.62,-59.75 144.62,-39 285.88,-39 285.88,-59.75"/>
<text text-anchor="middle" x="215.25" y="-46.25" font-family="Helvetica,sans-Serif" font-size="10.00">nix::AutomationInteracter</text>
</a>
</g>
</g>
<!-- Node0&#45;&gt;Node1 -->
<g id="edge370_Node000000_Node000001" class="edge">
<title>Node0&#45;&gt;Node1</title>
<g id="a_edge370_Node000000_Node000001"><a xlink:title=" ">
<path fill="none" stroke="#63b8ff" d="M117.71,-37.33C126.41,-38.41 135.38,-39.53 144.18,-40.63"/>
<polygon fill="#63b8ff" stroke="#63b8ff" points="118.33,-33.88 107.97,-36.11 117.46,-40.82 118.33,-33.88"/>
</a>
</g>
</g>
<!-- Node2 -->
<g id="Node000002" class="node">
<title>Node2</title>
<g id="a_Node000002"><a xlink:href="classnix_1_1ReadlineLikeInteracter.html" target="_top" xlink:title=" ">
<polygon fill="white" stroke="#666666" points="288.5,-20.75 142,-20.75 142,0 288.5,0 288.5,-20.75"/>
<text text-anchor="middle" x="215.25" y="-7.25" font-family="Helvetica,sans-Serif" font-size="10.00">nix::ReadlineLikeInteracter</text>
</a>
</g>
</g>
<!-- Node0&#45;&gt;Node2 -->
<g id="edge371_Node000000_Node000002" class="edge">
<title>Node0&#45;&gt;Node2</title>
<g id="a_edge371_Node000000_Node000002"><a xlink:title=" ">
<path fill="none" stroke="#63b8ff" d="M117.75,-21.82C125.59,-20.89 133.64,-19.93 141.59,-18.99"/>
<polygon fill="#63b8ff" stroke="#63b8ff" points="117.49,-18.32 107.97,-22.98 118.32,-25.27 117.49,-18.32"/>
</a>
</g>
</g>
</g>
</svg>
