<?xml version="1.0" encoding="UTF-8" standalone="no"?>
<!DOCTYPE svg PUBLIC "-//W3C//DTD SVG 1.1//EN"
 "http://www.w3.org/Graphics/SVG/1.1/DTD/svg11.dtd">
<!-- Generated by graphviz version 12.2.1 (0)
 -->
<!-- Title: Graphical Class Hierarchy Pages: 1 -->
<svg width="966pt" height="298pt"
 viewBox="0.00 0.00 965.75 297.75" xmlns="http://www.w3.org/2000/svg" xmlns:xlink="http://www.w3.org/1999/xlink">
<g id="graph0" class="graph" transform="scale(1 1) rotate(0) translate(4 293.75)">
<title>Graphical Class Hierarchy</title>
<!-- Node0 -->
<g id="Node000000" class="node">
<title>Node0</title>
<g id="a_Node000000"><a xlink:title=" ">
<polygon fill="#e0e0e0" stroke="#999999" points="108.25,-112.12 0,-112.12 0,-78.62 108.25,-78.62 108.25,-112.12"/>
<text text-anchor="start" x="8" y="-98.62" font-family="Helvetica,sans-Serif" font-size="10.00">std::enable_shared</text>
<text text-anchor="middle" x="54.12" y="-85.88" font-family="Helvetica,sans-Serif" font-size="10.00">_from_this</text>
</a>
</g>
</g>
<!-- Node1 -->
<g id="Node000001" class="node">
<title>Node1</title>
<g id="a_Node000001"><a xlink:href="classnix_1_1Store.html" target="_top" xlink:title=" ">
<polygon fill="white" stroke="#666666" points="249.88,-168.75 187.38,-168.75 187.38,-148 249.88,-148 249.88,-168.75"/>
<text text-anchor="middle" x="218.62" y="-155.25" font-family="Helvetica,sans-Serif" font-size="10.00">nix::Store</text>
</a>
</g>
</g>
<!-- Node0&#45;&gt;Node1 -->
<g id="edge418_Node000000_Node000001" class="edge">
<title>Node0&#45;&gt;Node1</title>
<g id="a_edge418_Node000000_Node000001"><a xlink:title=" ">
<path fill="none" stroke="#63b8ff" d="M102.51,-117.12C115.9,-122.99 130.55,-129.15 144.25,-134.38 158.15,-139.68 173.79,-144.89 187.05,-149.1"/>
<polygon fill="#63b8ff" stroke="#63b8ff" points="104.03,-113.97 93.47,-113.12 101.2,-120.37 104.03,-113.97"/>
</a>
</g>
</g>
<!-- Node17 -->
<g id="Node000017" class="node">
<title>Node17</title>
<g id="a_Node000017"><a xlink:href="classnix_1_1eval__cache_1_1AttrCursor.html" target="_top" xlink:title=" ">
<polygon fill="white" stroke="#666666" points="292.25,-125.75 145,-125.75 145,-105 292.25,-105 292.25,-125.75"/>
<text text-anchor="middle" x="218.62" y="-112.25" font-family="Helvetica,sans-Serif" font-size="10.00">nix::eval_cache::AttrCursor</text>
</a>
</g>
</g>
<!-- Node0&#45;&gt;Node17 -->
<g id="edge442_Node000000_Node000017" class="edge">
<title>Node0&#45;&gt;Node17</title>
<g id="a_edge442_Node000000_Node000017"><a xlink:title=" ">
<path fill="none" stroke="#63b8ff" d="M119.68,-103.32C127.84,-104.33 136.24,-105.36 144.53,-106.38"/>
<polygon fill="#63b8ff" stroke="#63b8ff" points="120.19,-99.86 109.84,-102.11 119.33,-106.8 120.19,-99.86"/>
</a>
</g>
</g>
<!-- Node18 -->
<g id="Node000018" class="node">
<title>Node18</title>
<g id="a_Node000018"><a xlink:href="classnix_1_1eval__cache_1_1EvalCache.html" target="_top" xlink:title=" ">
<polygon fill="white" stroke="#666666" points="293,-86.75 144.25,-86.75 144.25,-66 293,-66 293,-86.75"/>
<text text-anchor="middle" x="218.62" y="-73.25" font-family="Helvetica,sans-Serif" font-size="10.00">nix::eval_cache::EvalCache</text>
</a>
</g>
</g>
<!-- Node0&#45;&gt;Node18 -->
<g id="edge443_Node000000_Node000018" class="edge">
<title>Node0&#45;&gt;Node18</title>
<g id="a_edge443_Node000000_Node000018"><a xlink:title=" ">
<path fill="none" stroke="#63b8ff" d="M119.5,-87.85C127.53,-86.91 135.79,-85.94 143.94,-84.99"/>
<polygon fill="#63b8ff" stroke="#63b8ff" points="119.36,-84.34 109.84,-88.98 120.18,-91.29 119.36,-84.34"/>
</a>
</g>
</g>
<!-- Node19 -->
<g id="Node000019" class="node">
<title>Node19</title>
<g id="a_Node000019"><a xlink:href="structnix_1_1flake_1_1Node.html" target="_top" xlink:title=" ">
<polygon fill="white" stroke="#666666" points="264.5,-38.75 172.75,-38.75 172.75,-18 264.5,-18 264.5,-38.75"/>
<text text-anchor="middle" x="218.62" y="-25.25" font-family="Helvetica,sans-Serif" font-size="10.00">nix::flake::Node</text>
</a>
</g>
</g>
<!-- Node0&#45;&gt;Node19 -->
<g id="edge444_Node000000_Node000019" class="edge">
<title>Node0&#45;&gt;Node19</title>
<g id="a_edge444_Node000000_Node000019"><a xlink:title=" ">
<path fill="none" stroke="#63b8ff" d="M104.98,-73.84C117.75,-68.4 131.49,-62.62 144.25,-57.38 159.2,-51.23 175.96,-44.59 189.68,-39.22"/>
<polygon fill="#63b8ff" stroke="#63b8ff" points="103.73,-70.57 95.91,-77.72 106.48,-77.01 103.73,-70.57"/>
</a>
</g>
</g>
<!-- Node2 -->
<g id="Node000002" class="node">
<title>Node2</title>
<g id="a_Node000002"><a xlink:href="classnix_1_1BinaryCacheStore.html" target="_top" xlink:title=" ">
<polygon fill="white" stroke="#666666" points="614.5,-211.75 490.5,-211.75 490.5,-191 614.5,-191 614.5,-211.75"/>
<text text-anchor="middle" x="552.5" y="-198.25" font-family="Helvetica,sans-Serif" font-size="10.00">nix::BinaryCacheStore</text>
</a>
</g>
</g>
<!-- Node1&#45;&gt;Node2 -->
<g id="edge419_Node000001_Node000002" class="edge">
<title>Node1&#45;&gt;Node2</title>
<g id="a_edge419_Node000001_Node000002"><a xlink:title=" ">
<path fill="none" stroke="#63b8ff" d="M261.16,-168.83C281.49,-173.6 306.4,-178.95 329,-182.38 383.24,-190.61 445.49,-195.54 490.33,-198.31"/>
<polygon fill="#63b8ff" stroke="#63b8ff" points="262.08,-165.45 251.54,-166.53 260.45,-172.26 262.08,-165.45"/>
</a>
</g>
</g>
<!-- Node15 -->
<g id="Node000015" class="node">
<title>Node15</title>
<g id="a_Node000015"><a xlink:href="structnix_1_1DummyStore.html" target="_top" xlink:title=" ">
<polygon fill="white" stroke="#666666" points="442.5,-288.75 341,-288.75 341,-268 442.5,-268 442.5,-288.75"/>
<text text-anchor="middle" x="391.75" y="-275.25" font-family="Helvetica,sans-Serif" font-size="10.00">nix::DummyStore</text>
</a>
</g>
</g>
<!-- Node1&#45;&gt;Node15 -->
<g id="edge423_Node000001_Node000015" class="edge">
<title>Node1&#45;&gt;Node15</title>
<g id="a_edge423_Node000001_Node000015"><a xlink:title=" ">
<path fill="none" stroke="#63b8ff" d="M235.96,-177.65C255.84,-199.99 291.44,-236.52 329,-258.38 335.14,-261.95 341.99,-264.97 348.84,-267.5"/>
<polygon fill="#63b8ff" stroke="#63b8ff" points="238.64,-175.4 229.43,-170.17 233.37,-180 238.64,-175.4"/>
</a>
</g>
</g>
<!-- Node10 -->
<g id="Node000010" class="node">
<title>Node10</title>
<g id="a_Node000010"><a xlink:href="structnix_1_1GcStore.html" target="_top" xlink:title=" ">
<polygon fill="white" stroke="#666666" points="429.38,-59.75 354.12,-59.75 354.12,-39 429.38,-39 429.38,-59.75"/>
<text text-anchor="middle" x="391.75" y="-46.25" font-family="Helvetica,sans-Serif" font-size="10.00">nix::GcStore</text>
</a>
</g>
</g>
<!-- Node1&#45;&gt;Node10 -->
<g id="edge424_Node000001_Node000010" class="edge">
<title>Node1&#45;&gt;Node10</title>
<g id="a_edge424_Node000001_Node000010"><a xlink:title=" ">
<path fill="none" stroke="#63b8ff" d="M261.17,-150.45C272.33,-146.88 283.83,-141.74 293,-134.38 317.54,-114.66 305.01,-93.76 329,-73.38 336.19,-67.27 345.11,-62.61 353.91,-59.1"/>
<polygon fill="#63b8ff" stroke="#63b8ff" points="260.36,-147.04 251.68,-153.11 262.25,-153.78 260.36,-147.04"/>
</a>
</g>
</g>
<!-- Node7 -->
<g id="Node000007" class="node">
<title>Node7</title>
<g id="a_Node000007"><a xlink:href="classnix_1_1LocalFSStore.html" target="_top" xlink:title=" ">
<polygon fill="white" stroke="#666666" points="602.12,-96.75 502.88,-96.75 502.88,-76 602.12,-76 602.12,-96.75"/>
<text text-anchor="middle" x="552.5" y="-83.25" font-family="Helvetica,sans-Serif" font-size="10.00">nix::LocalFSStore</text>
</a>
</g>
</g>
<!-- Node1&#45;&gt;Node7 -->
<g id="edge436_Node000001_Node000007" class="edge">
<title>Node1&#45;&gt;Node7</title>
<g id="a_edge436_Node000001_Node000007"><a xlink:title=" ">
<path fill="none" stroke="#63b8ff" d="M261.23,-146.63C281.58,-141.07 306.48,-134.53 329,-129.38 388.44,-115.77 457.47,-102.87 502.69,-94.82"/>
<polygon fill="#63b8ff" stroke="#63b8ff" points="260.3,-143.25 251.59,-149.29 262.16,-150 260.3,-143.25"/>
</a>
</g>
</g>
<!-- Node11 -->
<g id="Node000011" class="node">
<title>Node11</title>
<g id="a_Node000011"><a xlink:href="classnix_1_1RemoteStore.html" target="_top" xlink:title=" ">
<polygon fill="white" stroke="#666666" points="602.88,-135.75 502.12,-135.75 502.12,-115 602.88,-115 602.88,-135.75"/>
<text text-anchor="middle" x="552.5" y="-122.25" font-family="Helvetica,sans-Serif" font-size="10.00">nix::RemoteStore</text>
</a>
</g>
</g>
<!-- Node1&#45;&gt;Node11 -->
<g id="edge441_Node000001_Node000011" class="edge">
<title>Node1&#45;&gt;Node11</title>
<g id="a_edge441_Node000001_Node000011"><a xlink:title=" ">
<path fill="none" stroke="#63b8ff" d="M261.63,-152.58C281.96,-149.88 306.72,-146.75 329,-144.38 388.37,-138.04 456.83,-132.45 501.95,-129"/>
<polygon fill="#63b8ff" stroke="#63b8ff" points="261.18,-149.11 251.73,-153.91 262.11,-156.05 261.18,-149.11"/>
</a>
</g>
</g>
<!-- Node16 -->
<g id="Node000016" class="node">
<title>Node16</title>
<g id="a_Node000016"><a xlink:href="structnix_1_1LegacySSHStore.html" target="_top" xlink:title=" ">
<polygon fill="white" stroke="#666666" points="450,-249.75 333.5,-249.75 333.5,-229 450,-229 450,-249.75"/>
<text text-anchor="middle" x="391.75" y="-236.25" font-family="Helvetica,sans-Serif" font-size="10.00">nix::LegacySSHStore</text>
</a>
</g>
</g>
<!-- Node1&#45;&gt;Node16 -->
<g id="edge435_Node000001_Node000016" class="edge">
<title>Node1&#45;&gt;Node16</title>
<g id="a_edge435_Node000001_Node000016"><a xlink:title=" ">
<path fill="none" stroke="#63b8ff" d="M248.6,-174.59C270.4,-186.51 301.18,-202.76 329,-215.38 339.27,-220.03 350.72,-224.64 360.95,-228.55"/>
<polygon fill="#63b8ff" stroke="#63b8ff" points="250.44,-171.61 240,-169.85 247.07,-177.74 250.44,-171.61"/>
</a>
</g>
</g>
<!-- Node6 -->
<g id="Node000006" class="node">
<title>Node6</title>
<g id="a_Node000006"><a xlink:href="structnix_1_1LogStore.html" target="_top" xlink:title=" ">
<polygon fill="white" stroke="#666666" points="431.62,-173.75 351.88,-173.75 351.88,-153 431.62,-153 431.62,-173.75"/>
<text text-anchor="middle" x="391.75" y="-160.25" font-family="Helvetica,sans-Serif" font-size="10.00">nix::LogStore</text>
</a>
</g>
</g>
<!-- Node1&#45;&gt;Node6 -->
<g id="edge437_Node000001_Node000006" class="edge">
<title>Node1&#45;&gt;Node6</title>
<g id="a_edge437_Node000001_Node000006"><a xlink:title=" ">
<path fill="none" stroke="#63b8ff" d="M261.42,-159.6C288.84,-160.4 324.47,-161.44 351.39,-162.22"/>
<polygon fill="#63b8ff" stroke="#63b8ff" points="261.83,-156.11 251.73,-159.31 261.63,-163.1 261.83,-156.11"/>
</a>
</g>
</g>
<!-- Node3 -->
<g id="Node000003" class="node">
<title>Node3</title>
<g id="a_Node000003"><a xlink:href="classnix_1_1HttpBinaryCacheStore.html" target="_top" xlink:title=" ">
<polygon fill="white" stroke="#666666" points="797.75,-250.75 652.75,-250.75 652.75,-230 797.75,-230 797.75,-250.75"/>
<text text-anchor="middle" x="725.25" y="-237.25" font-family="Helvetica,sans-Serif" font-size="10.00">nix::HttpBinaryCacheStore</text>
</a>
</g>
</g>
<!-- Node2&#45;&gt;Node3 -->
<g id="edge420_Node000002_Node000003" class="edge">
<title>Node2&#45;&gt;Node3</title>
<g id="a_edge420_Node000002_Node000003"><a xlink:title=" ">
<path fill="none" stroke="#63b8ff" d="M612.14,-214.77C633.19,-219.58 656.65,-224.93 676.65,-229.5"/>
<polygon fill="#63b8ff" stroke="#63b8ff" points="613.07,-211.39 602.54,-212.58 611.51,-218.21 613.07,-211.39"/>
</a>
</g>
</g>
<!-- Node4 -->
<g id="Node000004" class="node">
<title>Node4</title>
<g id="a_Node000004"><a xlink:href="classnix_1_1LocalBinaryCacheStore.html" target="_top" xlink:title=" ">
<polygon fill="white" stroke="#666666" points="800,-211.75 650.5,-211.75 650.5,-191 800,-191 800,-211.75"/>
<text text-anchor="middle" x="725.25" y="-198.25" font-family="Helvetica,sans-Serif" font-size="10.00">nix::LocalBinaryCacheStore</text>
</a>
</g>
</g>
<!-- Node2&#45;&gt;Node4 -->
<g id="edge421_Node000002_Node000004" class="edge">
<title>Node2&#45;&gt;Node4</title>
<g id="a_edge421_Node000002_Node000004"><a xlink:title=" ">
<path fill="none" stroke="#63b8ff" d="M626.14,-201.38C634.07,-201.38 642.15,-201.38 650.09,-201.38"/>
<polygon fill="#63b8ff" stroke="#63b8ff" points="626.18,-197.88 616.18,-201.38 626.18,-204.88 626.18,-197.88"/>
</a>
</g>
</g>
<!-- Node5 -->
<g id="Node000005" class="node">
<title>Node5</title>
<g id="a_Node000005"><a xlink:href="classnix_1_1S3BinaryCacheStore.html" target="_top" xlink:title=" ">
<polygon fill="white" stroke="#666666" points="793.25,-289.75 657.25,-289.75 657.25,-269 793.25,-269 793.25,-289.75"/>
<text text-anchor="middle" x="725.25" y="-276.25" font-family="Helvetica,sans-Serif" font-size="10.00">nix::S3BinaryCacheStore</text>
</a>
</g>
</g>
<!-- Node2&#45;&gt;Node5 -->
<g id="edge422_Node000002_Node000005" class="edge">
<title>Node2&#45;&gt;Node5</title>
<g id="a_edge422_Node000002_Node000005"><a xlink:title=" ">
<path fill="none" stroke="#63b8ff" d="M577.98,-218.59C597.02,-231.33 624.48,-248.32 650.5,-259.38 658.8,-262.9 667.9,-265.97 676.78,-268.57"/>
<polygon fill="#63b8ff" stroke="#63b8ff" points="580.08,-215.79 569.84,-213.05 576.14,-221.57 580.08,-215.79"/>
</a>
</g>
</g>
<!-- Node10&#45;&gt;Node7 -->
<g id="edge425_Node000010_Node000007" class="edge">
<title>Node10&#45;&gt;Node7</title>
<g id="a_edge425_Node000010_Node000007"><a xlink:title=" ">
<path fill="none" stroke="#63b8ff" d="M440.52,-60.51C460.92,-65.26 484.65,-70.79 504.92,-75.52"/>
<polygon fill="#63b8ff" stroke="#63b8ff" points="441.58,-57.16 431.04,-58.3 439.99,-63.98 441.58,-57.16"/>
</a>
</g>
</g>
<!-- Node9 -->
<g id="Node000009" class="node">
<title>Node9</title>
<g id="a_Node000009"><a xlink:href="classnix_1_1LocalStore.html" target="_top" xlink:title=" ">
<polygon fill="white" stroke="#666666" points="940.88,-86.75 852.88,-86.75 852.88,-66 940.88,-66 940.88,-86.75"/>
<text text-anchor="middle" x="896.88" y="-73.25" font-family="Helvetica,sans-Serif" font-size="10.00">nix::LocalStore</text>
</a>
</g>
</g>
<!-- Node10&#45;&gt;Node9 -->
<g id="edge430_Node000010_Node000009" class="edge">
<title>Node10&#45;&gt;Node9</title>
<g id="a_edge430_Node000010_Node000009"><a xlink:title=" ">
<path fill="none" stroke="#63b8ff" d="M440.97,-50.73C517.25,-53.06 670.39,-58.43 800,-67.38 817.18,-68.56 836.05,-70.25 852.48,-71.84"/>
<polygon fill="#63b8ff" stroke="#63b8ff" points="441.46,-47.25 431.36,-50.45 441.25,-54.24 441.46,-47.25"/>
</a>
</g>
</g>
<!-- Node14 -->
<g id="Node000014" class="node">
<title>Node14</title>
<g id="a_Node000014"><a xlink:href="structnix_1_1RestrictedStore.html" target="_top" xlink:title=" ">
<polygon fill="white" stroke="#666666" points="952.88,-38.75 840.88,-38.75 840.88,-18 952.88,-18 952.88,-38.75"/>
<text text-anchor="middle" x="896.88" y="-25.25" font-family="Helvetica,sans-Serif" font-size="10.00">nix::RestrictedStore</text>
</a>
</g>
</g>
<!-- Node10&#45;&gt;Node14 -->
<g id="edge434_Node000010_Node000014" class="edge">
<title>Node10&#45;&gt;Node14</title>
<g id="a_edge434_Node000010_Node000014"><a xlink:title=" ">
<path fill="none" stroke="#63b8ff" d="M440.84,-40.65C456.61,-38.15 474.25,-35.74 490.5,-34.38 615.35,-23.92 762.56,-25.1 840.68,-26.8"/>
<polygon fill="#63b8ff" stroke="#63b8ff" points="440.54,-37.15 431.23,-42.23 441.67,-44.06 440.54,-37.15"/>
</a>
</g>
</g>
<!-- Node10&#45;&gt;Node11 -->
<g id="edge431_Node000010_Node000011" class="edge">
<title>Node10&#45;&gt;Node11</title>
<g id="a_edge431_Node000010_Node000011"><a xlink:title=" ">
<path fill="none" stroke="#63b8ff" d="M418.72,-66.2C437.99,-78.19 465.2,-94.12 490.5,-105.38 498.04,-108.73 506.31,-111.81 514.27,-114.5"/>
<polygon fill="#63b8ff" stroke="#63b8ff" points="420.76,-63.35 410.44,-60.97 417.03,-69.27 420.76,-63.35"/>
</a>
</g>
</g>
<!-- Node8 -->
<g id="Node000008" class="node">
<title>Node8</title>
<g id="a_Node000008"><a xlink:href="structnix_1_1IndirectRootStore.html" target="_top" xlink:title=" ">
<polygon fill="white" stroke="#666666" points="786.12,-96.75 664.38,-96.75 664.38,-76 786.12,-76 786.12,-96.75"/>
<text text-anchor="middle" x="725.25" y="-83.25" font-family="Helvetica,sans-Serif" font-size="10.00">nix::IndirectRootStore</text>
</a>
</g>
</g>
<!-- Node7&#45;&gt;Node8 -->
<g id="edge426_Node000007_Node000008" class="edge">
<title>Node7&#45;&gt;Node8</title>
<g id="a_edge426_Node000007_Node000008"><a xlink:title=" ">
<path fill="none" stroke="#63b8ff" d="M613.53,-86.38C629.92,-86.38 647.68,-86.38 664.08,-86.38"/>
<polygon fill="#63b8ff" stroke="#63b8ff" points="613.94,-82.88 603.94,-86.38 613.94,-89.88 613.94,-82.88"/>
</a>
</g>
</g>
<!-- Node8&#45;&gt;Node9 -->
<g id="edge427_Node000008_Node000009" class="edge">
<title>Node8&#45;&gt;Node9</title>
<g id="a_edge427_Node000008_Node000009"><a xlink:title=" ">
<path fill="none" stroke="#63b8ff" d="M797.95,-82.15C816.53,-81.05 835.96,-79.91 852.57,-78.93"/>
<polygon fill="#63b8ff" stroke="#63b8ff" points="797.82,-78.65 788.04,-82.73 798.23,-85.64 797.82,-78.65"/>
</a>
</g>
</g>
<!-- Node8&#45;&gt;Node14 -->
<g id="edge428_Node000008_Node000014" class="edge">
<title>Node8&#45;&gt;Node14</title>
<g id="a_edge428_Node000008_Node000014"><a xlink:title=" ">
<path fill="none" stroke="#63b8ff" d="M768.63,-71.89C798.29,-61.74 837.28,-48.41 864.25,-39.19"/>
<polygon fill="#63b8ff" stroke="#63b8ff" points="767.52,-68.56 759.19,-75.11 769.78,-75.19 767.52,-68.56"/>
</a>
</g>
</g>
<!-- Node13 -->
<g id="Node000013" class="node">
<title>Node13</title>
<g id="a_Node000013"><a xlink:href="classnix_1_1UDSRemoteStore.html" target="_top" xlink:title=" ">
<polygon fill="white" stroke="#666666" points="957.75,-149.75 836,-149.75 836,-129 957.75,-129 957.75,-149.75"/>
<text text-anchor="middle" x="896.88" y="-136.25" font-family="Helvetica,sans-Serif" font-size="10.00">nix::UDSRemoteStore</text>
</a>
</g>
</g>
<!-- Node8&#45;&gt;Node13 -->
<g id="edge429_Node000008_Node000013" class="edge">
<title>Node8&#45;&gt;Node13</title>
<g id="a_edge429_Node000008_Node000013"><a xlink:title=" ">
<path fill="none" stroke="#63b8ff" d="M779.09,-100.24C786.14,-102.23 793.26,-104.3 800,-106.38 822.38,-113.25 847.38,-121.89 866.24,-128.6"/>
<polygon fill="#63b8ff" stroke="#63b8ff" points="780.15,-96.91 769.58,-97.61 778.29,-103.65 780.15,-96.91"/>
</a>
</g>
</g>
<!-- Node11&#45;&gt;Node13 -->
<g id="edge433_Node000011_Node000013" class="edge">
<title>Node11&#45;&gt;Node13</title>
<g id="a_edge433_Node000011_Node000013"><a xlink:title=" ">
<path fill="none" stroke="#63b8ff" d="M610.38,-138.42C623.49,-140.9 637.42,-143.11 650.5,-144.38 713.48,-150.48 785.96,-147.82 835.72,-144.51"/>
<polygon fill="#63b8ff" stroke="#63b8ff" points="611.09,-135 600.61,-136.49 609.74,-141.86 611.09,-135"/>
</a>
</g>
</g>
<!-- Node12 -->
<g id="Node000012" class="node">
<title>Node12</title>
<g id="a_Node000012"><a xlink:href="classnix_1_1SSHStore.html" target="_top" xlink:title=" ">
<polygon fill="white" stroke="#666666" points="766.25,-135.75 684.25,-135.75 684.25,-115 766.25,-115 766.25,-135.75"/>
<text text-anchor="middle" x="725.25" y="-122.25" font-family="Helvetica,sans-Serif" font-size="10.00">nix::SSHStore</text>
</a>
</g>
</g>
<!-- Node11&#45;&gt;Node12 -->
<g id="edge432_Node000011_Node000012" class="edge">
<title>Node11&#45;&gt;Node12</title>
<g id="a_edge432_Node000011_Node000012"><a xlink:title=" ">
<path fill="none" stroke="#63b8ff" d="M614.73,-125.38C637.7,-125.38 663.2,-125.38 683.82,-125.38"/>
<polygon fill="#63b8ff" stroke="#63b8ff" points="614.86,-121.88 604.86,-125.38 614.86,-128.88 614.86,-121.88"/>
</a>
</g>
</g>
<!-- Node6&#45;&gt;Node2 -->
<g id="edge438_Node000006_Node000002" class="edge">
<title>Node6&#45;&gt;Node2</title>
<g id="a_edge438_Node000006_Node000002"><a xlink:title=" ">
<path fill="none" stroke="#63b8ff" d="M442.92,-175.38C463.22,-180.24 486.48,-185.81 506.25,-190.54"/>
<polygon fill="#63b8ff" stroke="#63b8ff" points="444,-172.04 433.46,-173.12 442.37,-178.85 444,-172.04"/>
</a>
</g>
</g>
<!-- Node6&#45;&gt;Node7 -->
<g id="edge439_Node000006_Node000007" class="edge">
<title>Node6&#45;&gt;Node7</title>
<g id="a_edge439_Node000006_Node000007"><a xlink:title=" ">
<path fill="none" stroke="#63b8ff" d="M418.34,-146.44C437.61,-134.19 464.98,-117.84 490.5,-106.38 498.02,-102.99 506.29,-99.9 514.25,-97.2"/>
<polygon fill="#63b8ff" stroke="#63b8ff" points="416.57,-143.41 410.06,-151.78 420.36,-149.3 416.57,-143.41"/>
</a>
</g>
</g>
<!-- Node6&#45;&gt;Node11 -->
<g id="edge440_Node000006_Node000011" class="edge">
<title>Node6&#45;&gt;Node11</title>
<g id="a_edge440_Node000006_Node000011"><a xlink:title=" ">
<path fill="none" stroke="#63b8ff" d="M442.92,-151.37C463.22,-146.51 486.48,-140.94 506.25,-136.21"/>
<polygon fill="#63b8ff" stroke="#63b8ff" points="442.37,-147.9 433.46,-153.63 444,-154.71 442.37,-147.9"/>
</a>
</g>
</g>
<!-- Node20 -->
<g id="Node000020" class="node">
<title>Node20</title>
<g id="a_Node000020"><a xlink:href="structnix_1_1flake_1_1LockedNode.html" target="_top" xlink:title=" ">
<polygon fill="white" stroke="#666666" points="454.5,-20.75 329,-20.75 329,0 454.5,0 454.5,-20.75"/>
<text text-anchor="middle" x="391.75" y="-7.25" font-family="Helvetica,sans-Serif" font-size="10.00">nix::flake::LockedNode</text>
</a>
</g>
</g>
<!-- Node19&#45;&gt;Node20 -->
<g id="edge445_Node000019_Node000020" class="edge">
<title>Node19&#45;&gt;Node20</title>
<g id="a_edge445_Node000019_Node000020"><a xlink:title=" ">
<path fill="none" stroke="#63b8ff" d="M275.97,-22.45C292.86,-20.67 311.48,-18.71 328.72,-16.9"/>
<polygon fill="#63b8ff" stroke="#63b8ff" points="275.67,-18.96 266.09,-23.49 276.4,-25.92 275.67,-18.96"/>
</a>
</g>
</g>
</g>
</svg>
