<?xml version="1.0" encoding="UTF-8" standalone="no"?>
<!DOCTYPE svg PUBLIC "-//W3C//DTD SVG 1.1//EN"
 "http://www.w3.org/Graphics/SVG/1.1/DTD/svg11.dtd">
<!-- Generated by graphviz version 12.2.1 (0)
 -->
<!-- Title: Graphical Class Hierarchy Pages: 1 -->
<svg width="261pt" height="185pt"
 viewBox="0.00 0.00 261.25 184.75" xmlns="http://www.w3.org/2000/svg" xmlns:xlink="http://www.w3.org/1999/xlink">
<g id="graph0" class="graph" transform="scale(1 1) rotate(0) translate(4 180.75)">
<title>Graphical Class Hierarchy</title>
<!-- Node0 -->
<g id="Node000000" class="node">
<title>Node0</title>
<g id="a_Node000000"><a xlink:href="classnix_1_1Logger.html" target="_top" xlink:title=" ">
<polygon fill="white" stroke="#666666" points="70,-98.75 0,-98.75 0,-78 70,-78 70,-98.75"/>
<text text-anchor="middle" x="35" y="-85.25" font-family="Helvetica,sans-Serif" font-size="10.00">nix::Logger</text>
</a>
</g>
</g>
<!-- Node1 -->
<g id="Node000001" class="node">
<title>Node1</title>
<g id="a_Node000001"><a xlink:href="classnix_1_1CaptureLogger.html" target="_top" xlink:title=" ">
<polygon fill="white" stroke="#666666" points="233.75,-176.75 125.5,-176.75 125.5,-156 233.75,-156 233.75,-176.75"/>
<text text-anchor="middle" x="179.62" y="-163.25" font-family="Helvetica,sans-Serif" font-size="10.00">nix::CaptureLogger</text>
</a>
</g>
</g>
<!-- Node0&#45;&gt;Node1 -->
<g id="edge352_Node000000_Node000001" class="edge">
<title>Node0&#45;&gt;Node1</title>
<g id="a_edge352_Node000000_Node000001"><a xlink:title=" ">
<path fill="none" stroke="#63b8ff" d="M53.71,-106.72C67.01,-119.52 86.25,-136.09 106,-146.38 112.96,-150 120.65,-153.03 128.34,-155.53"/>
<polygon fill="#63b8ff" stroke="#63b8ff" points="56.53,-104.58 46.96,-100.03 51.6,-109.55 56.53,-104.58"/>
</a>
</g>
</g>
<!-- Node2 -->
<g id="Node000002" class="node">
<title>Node2</title>
<g id="a_Node000002"><a xlink:href="structnix_1_1JSONLogger.html" target="_top" xlink:title=" ">
<polygon fill="white" stroke="#666666" points="226.62,-137.75 132.62,-137.75 132.62,-117 226.62,-117 226.62,-137.75"/>
<text text-anchor="middle" x="179.62" y="-124.25" font-family="Helvetica,sans-Serif" font-size="10.00">nix::JSONLogger</text>
</a>
</g>
</g>
<!-- Node0&#45;&gt;Node2 -->
<g id="edge353_Node000000_Node000002" class="edge">
<title>Node0&#45;&gt;Node2</title>
<g id="a_edge353_Node000000_Node000002"><a xlink:title=" ">
<path fill="none" stroke="#63b8ff" d="M81.02,-100.69C99.6,-105.77 120.95,-111.6 138.93,-116.52"/>
<polygon fill="#63b8ff" stroke="#63b8ff" points="82.19,-97.38 71.62,-98.12 80.34,-104.13 82.19,-97.38"/>
</a>
</g>
</g>
<!-- Node3 -->
<g id="Node000003" class="node">
<title>Node3</title>
<g id="a_Node000003"><a xlink:href="structnix_1_1ProgressBar.html" target="_top" xlink:title=" ">
<polygon fill="white" stroke="#666666" points="227.38,-98.75 131.88,-98.75 131.88,-78 227.38,-78 227.38,-98.75"/>
<text text-anchor="middle" x="179.62" y="-85.25" font-family="Helvetica,sans-Serif" font-size="10.00">nix::ProgressBar</text>
</a>
</g>
</g>
<!-- Node0&#45;&gt;Node3 -->
<g id="edge354_Node000000_Node000003" class="edge">
<title>Node0&#45;&gt;Node3</title>
<g id="a_edge354_Node000000_Node000003"><a xlink:title=" ">
<path fill="none" stroke="#63b8ff" d="M81.4,-88.38C97.39,-88.38 115.4,-88.38 131.53,-88.38"/>
<polygon fill="#63b8ff" stroke="#63b8ff" points="81.68,-84.88 71.68,-88.38 81.68,-91.88 81.68,-84.88"/>
</a>
</g>
</g>
<!-- Node4 -->
<g id="Node000004" class="node">
<title>Node4</title>
<g id="a_Node000004"><a xlink:href="classnix_1_1SimpleLogger.html" target="_top" xlink:title=" ">
<polygon fill="white" stroke="#666666" points="231.5,-59.75 127.75,-59.75 127.75,-39 231.5,-39 231.5,-59.75"/>
<text text-anchor="middle" x="179.62" y="-46.25" font-family="Helvetica,sans-Serif" font-size="10.00">nix::SimpleLogger</text>
</a>
</g>
</g>
<!-- Node0&#45;&gt;Node4 -->
<g id="edge355_Node000000_Node000004" class="edge">
<title>Node0&#45;&gt;Node4</title>
<g id="a_edge355_Node000000_Node000004"><a xlink:title=" ">
<path fill="none" stroke="#63b8ff" d="M81.02,-76.06C99.6,-70.98 120.95,-65.15 138.93,-60.23"/>
<polygon fill="#63b8ff" stroke="#63b8ff" points="80.34,-72.62 71.62,-78.63 82.19,-79.37 80.34,-72.62"/>
</a>
</g>
</g>
<!-- Node5 -->
<g id="Node000005" class="node">
<title>Node5</title>
<g id="a_Node000005"><a xlink:href="structnix_1_1daemon_1_1TunnelLogger.html" target="_top" xlink:title=" ">
<polygon fill="white" stroke="#666666" points="253.25,-20.75 106,-20.75 106,0 253.25,0 253.25,-20.75"/>
<text text-anchor="middle" x="179.62" y="-7.25" font-family="Helvetica,sans-Serif" font-size="10.00">nix::daemon::TunnelLogger</text>
</a>
</g>
</g>
<!-- Node0&#45;&gt;Node5 -->
<g id="edge356_Node000000_Node000005" class="edge">
<title>Node0&#45;&gt;Node5</title>
<g id="a_edge356_Node000000_Node000005"><a xlink:title=" ">
<path fill="none" stroke="#63b8ff" d="M53.71,-70.03C67.01,-57.23 86.25,-40.66 106,-30.38 112.96,-26.75 120.65,-23.72 128.34,-21.22"/>
<polygon fill="#63b8ff" stroke="#63b8ff" points="51.6,-67.2 46.96,-76.72 56.53,-72.17 51.6,-67.2"/>
</a>
</g>
</g>
</g>
</svg>
