<?xml version="1.0" encoding="UTF-8" standalone="no"?>
<!DOCTYPE svg PUBLIC "-//W3C//DTD SVG 1.1//EN"
 "http://www.w3.org/Graphics/SVG/1.1/DTD/svg11.dtd">
<!-- Generated by graphviz version 12.2.1 (0)
 -->
<!-- Title: lix/libstore/names.hh Pages: 1 -->
<svg width="561pt" height="142pt"
 viewBox="0.00 0.00 560.88 142.25" xmlns="http://www.w3.org/2000/svg" xmlns:xlink="http://www.w3.org/1999/xlink">
<g id="graph0" class="graph" transform="scale(1 1) rotate(0) translate(4 138.25)">
<title>lix/libstore/names.hh</title>
<!-- Node1 -->
<g id="Node000001" class="node">
<title>Node1</title>
<g id="a_Node000001"><a xlink:title=" ">
<polygon fill="#999999" stroke="#666666" points="277.88,-134.25 159.12,-134.25 159.12,-113.5 277.88,-113.5 277.88,-134.25"/>
<text text-anchor="middle" x="218.5" y="-120.75" font-family="Helvetica,sans-Serif" font-size="10.00">lix/libstore/names.hh</text>
</a>
</g>
</g>
<!-- Node2 -->
<g id="Node000002" class="node">
<title>Node2</title>
<g id="a_Node000002"><a xlink:title=" ">
<polygon fill="#e0e0e0" stroke="#999999" points="198.12,-77.5 140.88,-77.5 140.88,-56.75 198.12,-56.75 198.12,-77.5"/>
<text text-anchor="middle" x="169.5" y="-64" font-family="Helvetica,sans-Serif" font-size="10.00">memory</text>
</a>
</g>
</g>
<!-- Node1&#45;&gt;Node2 -->
<g id="edge1_Node000001_Node000002" class="edge">
<title>Node1&#45;&gt;Node2</title>
<g id="a_edge1_Node000001_Node000002"><a xlink:title=" ">
<path fill="none" stroke="#63b8ff" d="M209.74,-113.09C203.05,-105.61 193.65,-95.11 185.61,-86.13"/>
<polygon fill="#63b8ff" stroke="#63b8ff" points="188.47,-84.07 179.19,-78.96 183.25,-88.74 188.47,-84.07"/>
</a>
</g>
</g>
<!-- Node3 -->
<g id="Node000003" class="node">
<title>Node3</title>
<g id="a_Node000003"><a xlink:href="types_8hh.html" target="_top" xlink:title=" ">
<polygon fill="white" stroke="#666666" points="320.38,-77.5 216.62,-77.5 216.62,-56.75 320.38,-56.75 320.38,-77.5"/>
<text text-anchor="middle" x="268.5" y="-64" font-family="Helvetica,sans-Serif" font-size="10.00">lix/libutil/types.hh</text>
</a>
</g>
</g>
<!-- Node1&#45;&gt;Node3 -->
<g id="edge2_Node000001_Node000003" class="edge">
<title>Node1&#45;&gt;Node3</title>
<g id="a_edge2_Node000001_Node000003"><a xlink:title=" ">
<path fill="none" stroke="#63b8ff" d="M227.44,-113.09C234.26,-105.61 243.86,-95.11 252.06,-86.13"/>
<polygon fill="#63b8ff" stroke="#63b8ff" points="254.46,-88.69 258.62,-78.95 249.29,-83.97 254.46,-88.69"/>
</a>
</g>
</g>
<!-- Node4 -->
<g id="Node000004" class="node">
<title>Node4</title>
<g id="a_Node000004"><a xlink:title=" ">
<polygon fill="#e0e0e0" stroke="#999999" points="31,-20.75 0,-20.75 0,0 31,0 31,-20.75"/>
<text text-anchor="middle" x="15.5" y="-7.25" font-family="Helvetica,sans-Serif" font-size="10.00">list</text>
</a>
</g>
</g>
<!-- Node3&#45;&gt;Node4 -->
<g id="edge3_Node000003_Node000004" class="edge">
<title>Node3&#45;&gt;Node4</title>
<g id="a_edge3_Node000003_Node000004"><a xlink:title=" ">
<path fill="none" stroke="#63b8ff" d="M216.23,-56.88C163.95,-47.45 86.06,-32.87 42.26,-21.11"/>
<polygon fill="#63b8ff" stroke="#63b8ff" points="43.4,-17.79 32.83,-18.44 41.5,-24.53 43.4,-17.79"/>
</a>
</g>
</g>
<!-- Node5 -->
<g id="Node000005" class="node">
<title>Node5</title>
<g id="a_Node000005"><a xlink:title=" ">
<polygon fill="#e0e0e0" stroke="#999999" points="104.38,-20.75 48.62,-20.75 48.62,0 104.38,0 104.38,-20.75"/>
<text text-anchor="middle" x="76.5" y="-7.25" font-family="Helvetica,sans-Serif" font-size="10.00">optional</text>
</a>
</g>
</g>
<!-- Node3&#45;&gt;Node5 -->
<g id="edge4_Node000003_Node000005" class="edge">
<title>Node3&#45;&gt;Node5</title>
<g id="a_edge4_Node000003_Node000005"><a xlink:title=" ">
<path fill="none" stroke="#63b8ff" d="M234.17,-56.34C200.79,-46.82 150.15,-32.38 115.32,-22.44"/>
<polygon fill="#63b8ff" stroke="#63b8ff" points="116.64,-19.18 106.06,-19.8 114.72,-25.91 116.64,-19.18"/>
</a>
</g>
</g>
<!-- Node6 -->
<g id="Node000006" class="node">
<title>Node6</title>
<g id="a_Node000006"><a xlink:title=" ">
<polygon fill="#e0e0e0" stroke="#999999" points="153,-20.75 122,-20.75 122,0 153,0 153,-20.75"/>
<text text-anchor="middle" x="137.5" y="-7.25" font-family="Helvetica,sans-Serif" font-size="10.00">set</text>
</a>
</g>
</g>
<!-- Node3&#45;&gt;Node6 -->
<g id="edge5_Node000003_Node000006" class="edge">
<title>Node3&#45;&gt;Node6</title>
<g id="a_edge5_Node000003_Node000006"><a xlink:title=" ">
<path fill="none" stroke="#63b8ff" d="M245.08,-56.34C222.21,-46.78 187.47,-32.26 163.69,-22.32"/>
<polygon fill="#63b8ff" stroke="#63b8ff" points="165.28,-19.19 154.71,-18.57 162.58,-25.65 165.28,-19.19"/>
</a>
</g>
</g>
<!-- Node7 -->
<g id="Node000007" class="node">
<title>Node7</title>
<g id="a_Node000007"><a xlink:title=" ">
<polygon fill="#e0e0e0" stroke="#999999" points="214.38,-20.75 170.62,-20.75 170.62,0 214.38,0 214.38,-20.75"/>
<text text-anchor="middle" x="192.5" y="-7.25" font-family="Helvetica,sans-Serif" font-size="10.00">string</text>
</a>
</g>
</g>
<!-- Node3&#45;&gt;Node7 -->
<g id="edge6_Node000003_Node000007" class="edge">
<title>Node3&#45;&gt;Node7</title>
<g id="a_edge6_Node000003_Node000007"><a xlink:title=" ">
<path fill="none" stroke="#63b8ff" d="M254.91,-56.34C243.89,-48.4 228.11,-37.03 215.18,-27.71"/>
<polygon fill="#63b8ff" stroke="#63b8ff" points="217.36,-24.97 207.2,-21.96 213.27,-30.65 217.36,-24.97"/>
</a>
</g>
</g>
<!-- Node8 -->
<g id="Node000008" class="node">
<title>Node8</title>
<g id="a_Node000008"><a xlink:title=" ">
<polygon fill="#e0e0e0" stroke="#999999" points="304.62,-20.75 232.38,-20.75 232.38,0 304.62,0 304.62,-20.75"/>
<text text-anchor="middle" x="268.5" y="-7.25" font-family="Helvetica,sans-Serif" font-size="10.00">string_view</text>
</a>
</g>
</g>
<!-- Node3&#45;&gt;Node8 -->
<g id="edge7_Node000003_Node000008" class="edge">
<title>Node3&#45;&gt;Node8</title>
<g id="a_edge7_Node000003_Node000008"><a xlink:title=" ">
<path fill="none" stroke="#63b8ff" d="M268.5,-56.34C268.5,-49.72 268.5,-40.72 268.5,-32.52"/>
<polygon fill="#63b8ff" stroke="#63b8ff" points="272,-32.59 268.5,-22.59 265,-32.59 272,-32.59"/>
</a>
</g>
</g>
<!-- Node9 -->
<g id="Node000009" class="node">
<title>Node9</title>
<g id="a_Node000009"><a xlink:title=" ">
<polygon fill="#e0e0e0" stroke="#999999" points="360.38,-20.75 322.62,-20.75 322.62,0 360.38,0 360.38,-20.75"/>
<text text-anchor="middle" x="341.5" y="-7.25" font-family="Helvetica,sans-Serif" font-size="10.00">map</text>
</a>
</g>
</g>
<!-- Node3&#45;&gt;Node9 -->
<g id="edge8_Node000003_Node000009" class="edge">
<title>Node3&#45;&gt;Node9</title>
<g id="a_edge8_Node000003_Node000009"><a xlink:title=" ">
<path fill="none" stroke="#63b8ff" d="M281.55,-56.34C292.14,-48.4 307.29,-37.03 319.72,-27.71"/>
<polygon fill="#63b8ff" stroke="#63b8ff" points="321.45,-30.79 327.35,-21.99 317.25,-25.19 321.45,-30.79"/>
</a>
</g>
</g>
<!-- Node10 -->
<g id="Node000010" class="node">
<title>Node10</title>
<g id="a_Node000010"><a xlink:title=" ">
<polygon fill="#e0e0e0" stroke="#999999" points="424.88,-20.75 378.12,-20.75 378.12,0 424.88,0 424.88,-20.75"/>
<text text-anchor="middle" x="401.5" y="-7.25" font-family="Helvetica,sans-Serif" font-size="10.00">vector</text>
</a>
</g>
</g>
<!-- Node3&#45;&gt;Node10 -->
<g id="edge9_Node000003_Node000010" class="edge">
<title>Node3&#45;&gt;Node10</title>
<g id="a_edge9_Node000003_Node000010"><a xlink:title=" ">
<path fill="none" stroke="#63b8ff" d="M292.28,-56.34C313.18,-47.73 343.84,-35.11 367.36,-25.43"/>
<polygon fill="#63b8ff" stroke="#63b8ff" points="368.61,-28.7 376.53,-21.65 365.95,-22.22 368.61,-28.7"/>
</a>
</g>
</g>
<!-- Node11 -->
<g id="Node000011" class="node">
<title>Node11</title>
<g id="a_Node000011"><a xlink:title=" ">
<polygon fill="#e0e0e0" stroke="#999999" points="482.12,-20.75 442.88,-20.75 442.88,0 482.12,0 482.12,-20.75"/>
<text text-anchor="middle" x="462.5" y="-7.25" font-family="Helvetica,sans-Serif" font-size="10.00">span</text>
</a>
</g>
</g>
<!-- Node3&#45;&gt;Node11 -->
<g id="edge10_Node000003_Node000011" class="edge">
<title>Node3&#45;&gt;Node11</title>
<g id="a_edge10_Node000003_Node000011"><a xlink:title=" ">
<path fill="none" stroke="#63b8ff" d="M305.99,-56.32C337.23,-48.04 383.13,-35.62 431.81,-21.16"/>
<polygon fill="#63b8ff" stroke="#63b8ff" points="432.54,-24.6 441.12,-18.38 430.53,-17.89 432.54,-24.6"/>
</a>
</g>
</g>
<!-- Node12 -->
<g id="Node000012" class="node">
<title>Node12</title>
<g id="a_Node000012"><a xlink:title=" ">
<polygon fill="#e0e0e0" stroke="#999999" points="552.88,-20.75 500.12,-20.75 500.12,0 552.88,0 552.88,-20.75"/>
<text text-anchor="middle" x="526.5" y="-7.25" font-family="Helvetica,sans-Serif" font-size="10.00">stdint.h</text>
</a>
</g>
</g>
<!-- Node3&#45;&gt;Node12 -->
<g id="edge11_Node000003_Node000012" class="edge">
<title>Node3&#45;&gt;Node12</title>
<g id="a_edge11_Node000003_Node000012"><a xlink:title=" ">
<path fill="none" stroke="#63b8ff" d="M320.51,-56.47C363.36,-48.31 425.93,-35.92 488.87,-21.27"/>
<polygon fill="#63b8ff" stroke="#63b8ff" points="489.38,-24.75 498.32,-19.06 487.78,-17.93 489.38,-24.75"/>
</a>
</g>
</g>
</g>
</svg>
