<?xml version="1.0" encoding="UTF-8" standalone="no"?>
<!DOCTYPE svg PUBLIC "-//W3C//DTD SVG 1.1//EN"
 "http://www.w3.org/Graphics/SVG/1.1/DTD/svg11.dtd">
<!-- Generated by graphviz version 12.2.1 (0)
 -->
<!-- Title: lix/libutil/processes.hh Pages: 1 -->
<svg width="1491pt" height="313pt"
 viewBox="0.00 0.00 1490.50 312.50" xmlns="http://www.w3.org/2000/svg" xmlns:xlink="http://www.w3.org/1999/xlink">
<g id="graph0" class="graph" transform="scale(1 1) rotate(0) translate(4 308.5)">
<title>lix/libutil/processes.hh</title>
<!-- Node1 -->
<g id="Node000001" class="node">
<title>Node1</title>
<g id="a_Node000001"><a xlink:title=" ">
<polygon fill="#999999" stroke="#666666" points="975.62,-304.5 850.12,-304.5 850.12,-283.75 975.62,-283.75 975.62,-304.5"/>
<text text-anchor="middle" x="912.88" y="-291" font-family="Helvetica,sans-Serif" font-size="10.00">lix/libutil/processes.hh</text>
</a>
</g>
</g>
<!-- Node2 -->
<g id="Node000002" class="node">
<title>Node2</title>
<g id="a_Node000002"><a xlink:href="types_8hh.html" target="_top" xlink:title=" ">
<polygon fill="white" stroke="#666666" points="188.75,-134.25 85,-134.25 85,-113.5 188.75,-113.5 188.75,-134.25"/>
<text text-anchor="middle" x="136.88" y="-120.75" font-family="Helvetica,sans-Serif" font-size="10.00">lix/libutil/types.hh</text>
</a>
</g>
</g>
<!-- Node1&#45;&gt;Node2 -->
<g id="edge1_Node000001_Node000002" class="edge">
<title>Node1&#45;&gt;Node2</title>
<g id="a_edge1_Node000001_Node000002"><a xlink:title=" ">
<path fill="none" stroke="#63b8ff" d="M849.65,-284.72C743.55,-269.99 523.39,-236.65 340.88,-191 281.61,-176.18 214.52,-153.19 173.97,-138.6"/>
<polygon fill="#63b8ff" stroke="#63b8ff" points="175.29,-135.35 164.69,-135.23 172.9,-141.93 175.29,-135.35"/>
</a>
</g>
</g>
<!-- Node4 -->
<g id="Node000004" class="node">
<title>Node4</title>
<g id="a_Node000004"><a xlink:title=" ">
<polygon fill="#e0e0e0" stroke="#999999" points="354.75,-77.5 299,-77.5 299,-56.75 354.75,-56.75 354.75,-77.5"/>
<text text-anchor="middle" x="326.88" y="-64" font-family="Helvetica,sans-Serif" font-size="10.00">optional</text>
</a>
</g>
</g>
<!-- Node1&#45;&gt;Node4 -->
<g id="edge53_Node000001_Node000004" class="edge">
<title>Node1&#45;&gt;Node4</title>
<g id="a_edge53_Node000001_Node000004"><a xlink:title=" ">
<path fill="none" stroke="#63b8ff" d="M849.84,-291.64C671.18,-285.9 168.36,-258.78 75.88,-134.25 70.38,-126.85 69.96,-120.58 75.88,-113.5 89.3,-97.43 219.9,-80.34 287.21,-72.5"/>
<polygon fill="#63b8ff" stroke="#63b8ff" points="287.57,-75.99 297.1,-71.37 286.77,-69.03 287.57,-75.99"/>
</a>
</g>
</g>
<!-- Node8 -->
<g id="Node000008" class="node">
<title>Node8</title>
<g id="a_Node000008"><a xlink:title=" ">
<polygon fill="#e0e0e0" stroke="#999999" points="37.75,-77.5 0,-77.5 0,-56.75 37.75,-56.75 37.75,-77.5"/>
<text text-anchor="middle" x="18.88" y="-64" font-family="Helvetica,sans-Serif" font-size="10.00">map</text>
</a>
</g>
</g>
<!-- Node1&#45;&gt;Node8 -->
<g id="edge52_Node000001_Node000008" class="edge">
<title>Node1&#45;&gt;Node8</title>
<g id="a_edge52_Node000001_Node000008"><a xlink:title=" ">
<path fill="none" stroke="#63b8ff" d="M849.69,-291.01C709.64,-285.95 376.79,-271.73 266.88,-247.75 196.83,-232.47 174.47,-232.31 115.88,-191 76.44,-163.2 45.05,-114.86 29.51,-87.84"/>
<polygon fill="#63b8ff" stroke="#63b8ff" points="32.68,-86.34 24.75,-79.32 26.57,-89.76 32.68,-86.34"/>
</a>
</g>
</g>
<!-- Node12 -->
<g id="Node000012" class="node">
<title>Node12</title>
<g id="a_Node000012"><a xlink:href="error_8hh.html" target="_top" xlink:title="This file defines two main structs/classes used in nix error handling.">
<polygon fill="white" stroke="#666666" points="884.5,-191 785.25,-191 785.25,-170.25 884.5,-170.25 884.5,-191"/>
<text text-anchor="middle" x="834.88" y="-177.5" font-family="Helvetica,sans-Serif" font-size="10.00">lix/libutil/error.hh</text>
</a>
</g>
</g>
<!-- Node1&#45;&gt;Node12 -->
<g id="edge11_Node000001_Node000012" class="edge">
<title>Node1&#45;&gt;Node12</title>
<g id="a_edge11_Node000001_Node000012"><a xlink:title=" ">
<path fill="none" stroke="#63b8ff" d="M906.22,-283.62C893.39,-265.28 865.01,-224.7 848.16,-200.62"/>
<polygon fill="#63b8ff" stroke="#63b8ff" points="851.2,-198.85 842.6,-192.67 845.46,-202.87 851.2,-198.85"/>
</a>
</g>
</g>
<!-- Node26 -->
<g id="Node000026" class="node">
<title>Node26</title>
<g id="a_Node000026"><a xlink:title=" ">
<polygon fill="#e0e0e0" stroke="#999999" points="1401.62,-134.25 1330.12,-134.25 1330.12,-113.5 1401.62,-113.5 1401.62,-134.25"/>
<text text-anchor="middle" x="1365.88" y="-120.75" font-family="Helvetica,sans-Serif" font-size="10.00">sys/types.h</text>
</a>
</g>
</g>
<!-- Node1&#45;&gt;Node26 -->
<g id="edge46_Node000001_Node000026" class="edge">
<title>Node1&#45;&gt;Node26</title>
<g id="a_edge46_Node000001_Node000026"><a xlink:title=" ">
<path fill="none" stroke="#63b8ff" d="M911.33,-283.32C908.25,-259.78 904.19,-199.89 936.88,-170.25 999.39,-113.58 1231.3,-145.89 1314.88,-134.25 1316.08,-134.08 1317.3,-133.91 1318.53,-133.72"/>
<polygon fill="#63b8ff" stroke="#63b8ff" points="1318.91,-137.21 1328.22,-132.16 1317.8,-130.3 1318.91,-137.21"/>
</a>
</g>
</g>
<!-- Node27 -->
<g id="Node000027" class="node">
<title>Node27</title>
<g id="a_Node000027"><a xlink:title=" ">
<polygon fill="#e0e0e0" stroke="#999999" points="1482.5,-134.25 1419.25,-134.25 1419.25,-113.5 1482.5,-113.5 1482.5,-134.25"/>
<text text-anchor="middle" x="1450.88" y="-120.75" font-family="Helvetica,sans-Serif" font-size="10.00">sys/stat.h</text>
</a>
</g>
</g>
<!-- Node1&#45;&gt;Node27 -->
<g id="edge47_Node000001_Node000027" class="edge">
<title>Node1&#45;&gt;Node27</title>
<g id="a_edge47_Node000001_Node000027"><a xlink:title=" ">
<path fill="none" stroke="#63b8ff" d="M918.46,-283.26C927.33,-268.53 946.12,-241.02 969.88,-227 1139.15,-127.06 1212.62,-175.82 1407.81,-134.83"/>
<polygon fill="#63b8ff" stroke="#63b8ff" points="1408.5,-138.27 1417.53,-132.73 1407.02,-131.42 1408.5,-138.27"/>
</a>
</g>
</g>
<!-- Node30 -->
<g id="Node000030" class="node">
<title>Node30</title>
<g id="a_Node000030"><a xlink:href="file-descriptor_8hh.html" target="_top" xlink:title=" ">
<polygon fill="white" stroke="#666666" points="846.62,-247.75 703.12,-247.75 703.12,-227 846.62,-227 846.62,-247.75"/>
<text text-anchor="middle" x="774.88" y="-234.25" font-family="Helvetica,sans-Serif" font-size="10.00">lix/libutil/file&#45;descriptor.hh</text>
</a>
</g>
</g>
<!-- Node1&#45;&gt;Node30 -->
<g id="edge36_Node000001_Node000030" class="edge">
<title>Node1&#45;&gt;Node30</title>
<g id="a_edge36_Node000001_Node000030"><a xlink:title=" ">
<path fill="none" stroke="#63b8ff" d="M888.2,-283.34C866.42,-274.69 834.42,-262 809.97,-252.3"/>
<polygon fill="#63b8ff" stroke="#63b8ff" points="811.33,-249.07 800.74,-248.64 808.74,-255.58 811.33,-249.07"/>
</a>
</g>
</g>
<!-- Node35 -->
<g id="Node000035" class="node">
<title>Node35</title>
<g id="a_Node000035"><a xlink:title=" ">
<polygon fill="#e0e0e0" stroke="#999999" points="1032.62,-247.75 979.12,-247.75 979.12,-227 1032.62,-227 1032.62,-247.75"/>
<text text-anchor="middle" x="1005.88" y="-234.25" font-family="Helvetica,sans-Serif" font-size="10.00">dirent.h</text>
</a>
</g>
</g>
<!-- Node1&#45;&gt;Node35 -->
<g id="edge48_Node000001_Node000035" class="edge">
<title>Node1&#45;&gt;Node35</title>
<g id="a_edge48_Node000001_Node000035"><a xlink:title=" ">
<path fill="none" stroke="#63b8ff" d="M929.5,-283.34C943.39,-275.16 963.44,-263.36 979.51,-253.9"/>
<polygon fill="#63b8ff" stroke="#63b8ff" points="981.25,-256.94 988.09,-248.85 977.69,-250.9 981.25,-256.94"/>
</a>
</g>
</g>
<!-- Node36 -->
<g id="Node000036" class="node">
<title>Node36</title>
<g id="a_Node000036"><a xlink:title=" ">
<polygon fill="#e0e0e0" stroke="#999999" points="1105.38,-247.75 1050.38,-247.75 1050.38,-227 1105.38,-227 1105.38,-247.75"/>
<text text-anchor="middle" x="1077.88" y="-234.25" font-family="Helvetica,sans-Serif" font-size="10.00">unistd.h</text>
</a>
</g>
</g>
<!-- Node1&#45;&gt;Node36 -->
<g id="edge49_Node000001_Node000036" class="edge">
<title>Node1&#45;&gt;Node36</title>
<g id="a_edge49_Node000001_Node000036"><a xlink:title=" ">
<path fill="none" stroke="#63b8ff" d="M942.37,-283.34C969.42,-274.36 1009.63,-261.02 1039.23,-251.2"/>
<polygon fill="#63b8ff" stroke="#63b8ff" points="1040.18,-254.57 1048.57,-248.1 1037.98,-247.93 1040.18,-254.57"/>
</a>
</g>
</g>
<!-- Node37 -->
<g id="Node000037" class="node">
<title>Node37</title>
<g id="a_Node000037"><a xlink:title=" ">
<polygon fill="#e0e0e0" stroke="#999999" points="1178,-247.75 1123.75,-247.75 1123.75,-227 1178,-227 1178,-247.75"/>
<text text-anchor="middle" x="1150.88" y="-234.25" font-family="Helvetica,sans-Serif" font-size="10.00">signal.h</text>
</a>
</g>
</g>
<!-- Node1&#45;&gt;Node37 -->
<g id="edge50_Node000001_Node000037" class="edge">
<title>Node1&#45;&gt;Node37</title>
<g id="a_edge50_Node000001_Node000037"><a xlink:title=" ">
<path fill="none" stroke="#63b8ff" d="M958.71,-283.29C997.31,-274.91 1054.27,-262.29 1112.5,-248.27"/>
<polygon fill="#63b8ff" stroke="#63b8ff" points="1113.01,-251.75 1121.91,-245.99 1111.37,-244.94 1113.01,-251.75"/>
</a>
</g>
</g>
<!-- Node38 -->
<g id="Node000038" class="node">
<title>Node38</title>
<g id="a_Node000038"><a xlink:title=" ">
<polygon fill="#e0e0e0" stroke="#999999" points="1261.25,-247.75 1196.5,-247.75 1196.5,-227 1261.25,-227 1261.25,-247.75"/>
<text text-anchor="middle" x="1228.88" y="-234.25" font-family="Helvetica,sans-Serif" font-size="10.00">functional</text>
</a>
</g>
</g>
<!-- Node1&#45;&gt;Node38 -->
<g id="edge51_Node000001_Node000038" class="edge">
<title>Node1&#45;&gt;Node38</title>
<g id="a_edge51_Node000001_Node000038"><a xlink:title=" ">
<path fill="none" stroke="#63b8ff" d="M975.9,-283.71C1029.05,-275.53 1107.39,-262.94 1185.36,-247.95"/>
<polygon fill="#63b8ff" stroke="#63b8ff" points="1185.72,-251.45 1194.87,-246.11 1184.38,-244.58 1185.72,-251.45"/>
</a>
</g>
</g>
<!-- Node3 -->
<g id="Node000003" class="node">
<title>Node3</title>
<g id="a_Node000003"><a xlink:title=" ">
<polygon fill="#e0e0e0" stroke="#999999" points="420.38,-77.5 389.38,-77.5 389.38,-56.75 420.38,-56.75 420.38,-77.5"/>
<text text-anchor="middle" x="404.88" y="-64" font-family="Helvetica,sans-Serif" font-size="10.00">list</text>
</a>
</g>
</g>
<!-- Node2&#45;&gt;Node3 -->
<g id="edge2_Node000002_Node000003" class="edge">
<title>Node2&#45;&gt;Node3</title>
<g id="a_edge2_Node000002_Node000003"><a xlink:title=" ">
<path fill="none" stroke="#63b8ff" d="M188.35,-113.01C234.41,-104.07 303.75,-90.38 363.88,-77.5 368.4,-76.53 373.21,-75.46 377.87,-74.41"/>
<polygon fill="#63b8ff" stroke="#63b8ff" points="378.49,-77.86 387.46,-72.22 376.93,-71.04 378.49,-77.86"/>
</a>
</g>
</g>
<!-- Node2&#45;&gt;Node4 -->
<g id="edge3_Node000002_Node000004" class="edge">
<title>Node2&#45;&gt;Node4</title>
<g id="a_edge3_Node000002_Node000004"><a xlink:title=" ">
<path fill="none" stroke="#63b8ff" d="M170.84,-113.09C203.64,-103.64 253.27,-89.34 287.71,-79.41"/>
<polygon fill="#63b8ff" stroke="#63b8ff" points="288.67,-82.78 297.31,-76.64 286.73,-76.05 288.67,-82.78"/>
</a>
</g>
</g>
<!-- Node5 -->
<g id="Node000005" class="node">
<title>Node5</title>
<g id="a_Node000005"><a xlink:title=" ">
<polygon fill="#e0e0e0" stroke="#999999" points="478.38,-77.5 447.38,-77.5 447.38,-56.75 478.38,-56.75 478.38,-77.5"/>
<text text-anchor="middle" x="462.88" y="-64" font-family="Helvetica,sans-Serif" font-size="10.00">set</text>
</a>
</g>
</g>
<!-- Node2&#45;&gt;Node5 -->
<g id="edge4_Node000002_Node000005" class="edge">
<title>Node2&#45;&gt;Node5</title>
<g id="a_edge4_Node000002_Node000005"><a xlink:title=" ">
<path fill="none" stroke="#63b8ff" d="M188.95,-114.85C272.36,-101.99 426.94,-78.14 429.88,-77.5 431.92,-77.05 434.03,-76.55 436.15,-76.02"/>
<polygon fill="#63b8ff" stroke="#63b8ff" points="437.01,-79.41 445.74,-73.4 435.17,-72.66 437.01,-79.41"/>
</a>
</g>
</g>
<!-- Node6 -->
<g id="Node000006" class="node">
<title>Node6</title>
<g id="a_Node000006"><a xlink:title=" ">
<polygon fill="#e0e0e0" stroke="#999999" points="705.75,-77.5 662,-77.5 662,-56.75 705.75,-56.75 705.75,-77.5"/>
<text text-anchor="middle" x="683.88" y="-64" font-family="Helvetica,sans-Serif" font-size="10.00">string</text>
</a>
</g>
</g>
<!-- Node2&#45;&gt;Node6 -->
<g id="edge5_Node000002_Node000006" class="edge">
<title>Node2&#45;&gt;Node6</title>
<g id="a_edge5_Node000002_Node000006"><a xlink:title=" ">
<path fill="none" stroke="#63b8ff" d="M189.08,-114.59C192.06,-114.2 195,-113.83 197.88,-113.5 395.3,-90.53 450.81,-113.29 650.47,-77.32"/>
<polygon fill="#63b8ff" stroke="#63b8ff" points="650.94,-80.79 660.15,-75.55 649.68,-73.91 650.94,-80.79"/>
</a>
</g>
</g>
<!-- Node7 -->
<g id="Node000007" class="node">
<title>Node7</title>
<g id="a_Node000007"><a xlink:title=" ">
<polygon fill="#e0e0e0" stroke="#999999" points="573,-77.5 500.75,-77.5 500.75,-56.75 573,-56.75 573,-77.5"/>
<text text-anchor="middle" x="536.88" y="-64" font-family="Helvetica,sans-Serif" font-size="10.00">string_view</text>
</a>
</g>
</g>
<!-- Node2&#45;&gt;Node7 -->
<g id="edge6_Node000002_Node000007" class="edge">
<title>Node2&#45;&gt;Node7</title>
<g id="a_edge6_Node000002_Node000007"><a xlink:title=" ">
<path fill="none" stroke="#63b8ff" d="M189.1,-114.75C192.07,-114.32 195.01,-113.9 197.88,-113.5 326.52,-95.63 359.58,-97.71 487.88,-77.5 488.25,-77.44 488.63,-77.38 489.01,-77.32"/>
<polygon fill="#63b8ff" stroke="#63b8ff" points="489.5,-80.79 498.77,-75.66 488.33,-73.89 489.5,-80.79"/>
</a>
</g>
</g>
<!-- Node2&#45;&gt;Node8 -->
<g id="edge7_Node000002_Node000008" class="edge">
<title>Node2&#45;&gt;Node8</title>
<g id="a_edge7_Node000002_Node000008"><a xlink:title=" ">
<path fill="none" stroke="#63b8ff" d="M115.78,-113.09C97.04,-104.39 69.45,-91.59 48.49,-81.87"/>
<polygon fill="#63b8ff" stroke="#63b8ff" points="50.14,-78.77 39.6,-77.74 47.2,-85.12 50.14,-78.77"/>
</a>
</g>
</g>
<!-- Node9 -->
<g id="Node000009" class="node">
<title>Node9</title>
<g id="a_Node000009"><a xlink:title=" ">
<polygon fill="#e0e0e0" stroke="#999999" points="230.25,-77.5 183.5,-77.5 183.5,-56.75 230.25,-56.75 230.25,-77.5"/>
<text text-anchor="middle" x="206.88" y="-64" font-family="Helvetica,sans-Serif" font-size="10.00">vector</text>
</a>
</g>
</g>
<!-- Node2&#45;&gt;Node9 -->
<g id="edge8_Node000002_Node000009" class="edge">
<title>Node2&#45;&gt;Node9</title>
<g id="a_edge8_Node000002_Node000009"><a xlink:title=" ">
<path fill="none" stroke="#63b8ff" d="M149.39,-113.09C159.44,-105.22 173.79,-94 185.63,-84.74"/>
<polygon fill="#63b8ff" stroke="#63b8ff" points="187.56,-87.68 193.28,-78.76 183.24,-82.16 187.56,-87.68"/>
</a>
</g>
</g>
<!-- Node10 -->
<g id="Node000010" class="node">
<title>Node10</title>
<g id="a_Node000010"><a xlink:title=" ">
<polygon fill="#e0e0e0" stroke="#999999" points="165.5,-77.5 126.25,-77.5 126.25,-56.75 165.5,-56.75 165.5,-77.5"/>
<text text-anchor="middle" x="145.88" y="-64" font-family="Helvetica,sans-Serif" font-size="10.00">span</text>
</a>
</g>
</g>
<!-- Node2&#45;&gt;Node10 -->
<g id="edge9_Node000002_Node000010" class="edge">
<title>Node2&#45;&gt;Node10</title>
<g id="a_edge9_Node000002_Node000010"><a xlink:title=" ">
<path fill="none" stroke="#63b8ff" d="M138.48,-113.09C139.58,-106.39 141.09,-97.26 142.45,-88.98"/>
<polygon fill="#63b8ff" stroke="#63b8ff" points="145.87,-89.76 144.03,-79.32 138.96,-88.62 145.87,-89.76"/>
</a>
</g>
</g>
<!-- Node11 -->
<g id="Node000011" class="node">
<title>Node11</title>
<g id="a_Node000011"><a xlink:title=" ">
<polygon fill="#e0e0e0" stroke="#999999" points="108.25,-77.5 55.5,-77.5 55.5,-56.75 108.25,-56.75 108.25,-77.5"/>
<text text-anchor="middle" x="81.88" y="-64" font-family="Helvetica,sans-Serif" font-size="10.00">stdint.h</text>
</a>
</g>
</g>
<!-- Node2&#45;&gt;Node11 -->
<g id="edge10_Node000002_Node000011" class="edge">
<title>Node2&#45;&gt;Node11</title>
<g id="a_edge10_Node000002_Node000011"><a xlink:title=" ">
<path fill="none" stroke="#63b8ff" d="M127.04,-113.09C119.46,-105.53 108.76,-94.89 99.68,-85.85"/>
<polygon fill="#63b8ff" stroke="#63b8ff" points="102.25,-83.47 92.7,-78.9 97.31,-88.43 102.25,-83.47"/>
</a>
</g>
</g>
<!-- Node12&#45;&gt;Node3 -->
<g id="edge28_Node000012_Node000003" class="edge">
<title>Node12&#45;&gt;Node3</title>
<g id="a_edge28_Node000012_Node000003"><a xlink:title=" ">
<path fill="none" stroke="#63b8ff" d="M840.05,-170.14C847.04,-155.9 857.08,-129.03 842.88,-113.5 812.46,-80.25 483.22,-85.52 438.88,-77.5 436.52,-77.07 434.09,-76.56 431.67,-75.99"/>
<polygon fill="#63b8ff" stroke="#63b8ff" points="432.68,-72.64 422.12,-73.49 430.9,-79.41 432.68,-72.64"/>
</a>
</g>
</g>
<!-- Node12&#45;&gt;Node4 -->
<g id="edge30_Node000012_Node000004" class="edge">
<title>Node12&#45;&gt;Node4</title>
<g id="a_edge30_Node000012_Node000004"><a xlink:title=" ">
<path fill="none" stroke="#63b8ff" d="M784.99,-173.82C739.01,-167.47 669.39,-155.26 611.88,-134.25 593.8,-127.65 592.01,-119.93 573.88,-113.5 564.14,-110.05 433.43,-86.84 366.21,-75.01"/>
<polygon fill="#63b8ff" stroke="#63b8ff" points="367.16,-71.63 356.71,-73.35 365.95,-78.52 367.16,-71.63"/>
</a>
</g>
</g>
<!-- Node13 -->
<g id="Node000013" class="node">
<title>Node13</title>
<g id="a_Node000013"><a xlink:href="json-fwd_8hh_source.html" target="_top" xlink:title=" ">
<polygon fill="white" stroke="#666666" points="1273.88,-134.25 1155.88,-134.25 1155.88,-113.5 1273.88,-113.5 1273.88,-134.25"/>
<text text-anchor="middle" x="1214.88" y="-120.75" font-family="Helvetica,sans-Serif" font-size="10.00">lix/libutil/json&#45;fwd.hh</text>
</a>
</g>
</g>
<!-- Node12&#45;&gt;Node13 -->
<g id="edge12_Node000012_Node000013" class="edge">
<title>Node12&#45;&gt;Node13</title>
<g id="a_edge12_Node000012_Node000013"><a xlink:title=" ">
<path fill="none" stroke="#63b8ff" d="M884.83,-172.29C889.58,-171.6 894.32,-170.91 898.88,-170.25 983.22,-158.02 1080.25,-144.11 1144.29,-134.95"/>
<polygon fill="#63b8ff" stroke="#63b8ff" points="1144.56,-138.45 1153.96,-133.57 1143.57,-131.52 1144.56,-138.45"/>
</a>
</g>
</g>
<!-- Node15 -->
<g id="Node000015" class="node">
<title>Node15</title>
<g id="a_Node000015"><a xlink:title=" ">
<polygon fill="#e0e0e0" stroke="#999999" points="1426.12,-77.5 1357.62,-77.5 1357.62,-56.75 1426.12,-56.75 1426.12,-77.5"/>
<text text-anchor="middle" x="1391.88" y="-64" font-family="Helvetica,sans-Serif" font-size="10.00">type_traits</text>
</a>
</g>
</g>
<!-- Node12&#45;&gt;Node15 -->
<g id="edge35_Node000012_Node000015" class="edge">
<title>Node12&#45;&gt;Node15</title>
<g id="a_edge35_Node000012_Node000015"><a xlink:title=" ">
<path fill="none" stroke="#63b8ff" d="M884.8,-172.06C889.55,-171.41 894.3,-170.8 898.88,-170.25 1069.07,-149.82 1120.13,-188.07 1282.88,-134.25 1291.9,-131.27 1337.88,-102.52 1367.16,-83.93"/>
<polygon fill="#63b8ff" stroke="#63b8ff" points="1368.9,-86.97 1375.46,-78.64 1365.14,-81.06 1368.9,-86.97"/>
</a>
</g>
</g>
<!-- Node16 -->
<g id="Node000016" class="node">
<title>Node16</title>
<g id="a_Node000016"><a xlink:href="suggestions_8hh.html" target="_top" xlink:title=" ">
<polygon fill="white" stroke="#666666" points="1025.5,-134.25 890.25,-134.25 890.25,-113.5 1025.5,-113.5 1025.5,-134.25"/>
<text text-anchor="middle" x="957.88" y="-120.75" font-family="Helvetica,sans-Serif" font-size="10.00">lix/libutil/suggestions.hh</text>
</a>
</g>
</g>
<!-- Node12&#45;&gt;Node16 -->
<g id="edge15_Node000012_Node000016" class="edge">
<title>Node12&#45;&gt;Node16</title>
<g id="a_edge15_Node000012_Node000016"><a xlink:title=" ">
<path fill="none" stroke="#63b8ff" d="M856.86,-169.84C876.02,-161.31 904.04,-148.84 925.71,-139.19"/>
<polygon fill="#63b8ff" stroke="#63b8ff" points="926.98,-142.46 934.69,-135.19 924.13,-136.06 926.98,-142.46"/>
</a>
</g>
</g>
<!-- Node20 -->
<g id="Node000020" class="node">
<title>Node20</title>
<g id="a_Node000020"><a xlink:href="libutil_2fmt_8hh.html" target="_top" xlink:title=" ">
<polygon fill="white" stroke="#666666" points="1137.88,-134.25 1043.88,-134.25 1043.88,-113.5 1137.88,-113.5 1137.88,-134.25"/>
<text text-anchor="middle" x="1090.88" y="-120.75" font-family="Helvetica,sans-Serif" font-size="10.00">lix/libutil/fmt.hh</text>
</a>
</g>
</g>
<!-- Node12&#45;&gt;Node20 -->
<g id="edge22_Node000012_Node000020" class="edge">
<title>Node12&#45;&gt;Node20</title>
<g id="a_edge22_Node000012_Node000020"><a xlink:title=" ">
<path fill="none" stroke="#63b8ff" d="M880.94,-169.77C923.76,-160.62 987.69,-146.94 1033.74,-137.09"/>
<polygon fill="#63b8ff" stroke="#63b8ff" points="1034.22,-140.57 1043.27,-135.06 1032.76,-133.72 1034.22,-140.57"/>
</a>
</g>
</g>
<!-- Node24 -->
<g id="Node000024" class="node">
<title>Node24</title>
<g id="a_Node000024"><a xlink:title=" ">
<polygon fill="#e0e0e0" stroke="#999999" points="833.38,-134.25 784.38,-134.25 784.38,-113.5 833.38,-113.5 833.38,-134.25"/>
<text text-anchor="middle" x="808.88" y="-120.75" font-family="Helvetica,sans-Serif" font-size="10.00">cstring</text>
</a>
</g>
</g>
<!-- Node12&#45;&gt;Node24 -->
<g id="edge27_Node000012_Node000024" class="edge">
<title>Node12&#45;&gt;Node24</title>
<g id="a_edge27_Node000012_Node000024"><a xlink:title=" ">
<path fill="none" stroke="#63b8ff" d="M830.23,-169.84C826.94,-162.91 822.41,-153.37 818.37,-144.86"/>
<polygon fill="#63b8ff" stroke="#63b8ff" points="821.58,-143.48 814.13,-135.95 815.26,-146.48 821.58,-143.48"/>
</a>
</g>
</g>
<!-- Node25 -->
<g id="Node000025" class="node">
<title>Node25</title>
<g id="a_Node000025"><a xlink:title=" ">
<polygon fill="#e0e0e0" stroke="#999999" points="564.5,-134.25 507.25,-134.25 507.25,-113.5 564.5,-113.5 564.5,-134.25"/>
<text text-anchor="middle" x="535.88" y="-120.75" font-family="Helvetica,sans-Serif" font-size="10.00">memory</text>
</a>
</g>
</g>
<!-- Node12&#45;&gt;Node25 -->
<g id="edge29_Node000012_Node000025" class="edge">
<title>Node12&#45;&gt;Node25</title>
<g id="a_edge29_Node000012_Node000025"><a xlink:title=" ">
<path fill="none" stroke="#63b8ff" d="M785.21,-171.42C733.56,-162.74 650.39,-148.38 578.88,-134.25 577.89,-134.06 576.9,-133.86 575.89,-133.65"/>
<polygon fill="#63b8ff" stroke="#63b8ff" points="576.97,-130.3 566.47,-131.69 575.55,-137.16 576.97,-130.3"/>
</a>
</g>
</g>
<!-- Node12&#45;&gt;Node26 -->
<g id="edge31_Node000012_Node000026" class="edge">
<title>Node12&#45;&gt;Node26</title>
<g id="a_edge31_Node000012_Node000026"><a xlink:title=" ">
<path fill="none" stroke="#63b8ff" d="M884.8,-172.02C889.55,-171.38 894.3,-170.78 898.88,-170.25 1083.65,-148.76 1131.56,-159.42 1315.88,-134.25 1316.87,-134.11 1317.88,-133.97 1318.89,-133.82"/>
<polygon fill="#63b8ff" stroke="#63b8ff" points="1319.08,-137.34 1328.4,-132.3 1317.97,-130.43 1319.08,-137.34"/>
</a>
</g>
</g>
<!-- Node12&#45;&gt;Node27 -->
<g id="edge32_Node000012_Node000027" class="edge">
<title>Node12&#45;&gt;Node27</title>
<g id="a_edge32_Node000012_Node000027"><a xlink:title=" ">
<path fill="none" stroke="#63b8ff" d="M884.93,-174.87C901.46,-173.34 919.95,-171.67 936.88,-170.25 1143.71,-152.89 1200.1,-165.97 1407.79,-134.52"/>
<polygon fill="#63b8ff" stroke="#63b8ff" points="1408.23,-138 1417.59,-133.02 1407.17,-131.08 1408.23,-138"/>
</a>
</g>
</g>
<!-- Node28 -->
<g id="Node000028" class="node">
<title>Node28</title>
<g id="a_Node000028"><a xlink:title=" ">
<polygon fill="#e0e0e0" stroke="#999999" points="667.25,-134.25 620.5,-134.25 620.5,-113.5 667.25,-113.5 667.25,-134.25"/>
<text text-anchor="middle" x="643.88" y="-120.75" font-family="Helvetica,sans-Serif" font-size="10.00">fcntl.h</text>
</a>
</g>
</g>
<!-- Node12&#45;&gt;Node28 -->
<g id="edge33_Node000012_Node000028" class="edge">
<title>Node12&#45;&gt;Node28</title>
<g id="a_edge33_Node000012_Node000028"><a xlink:title=" ">
<path fill="none" stroke="#63b8ff" d="M800.73,-169.84C766.22,-159.94 713.16,-144.74 678.49,-134.8"/>
<polygon fill="#63b8ff" stroke="#63b8ff" points="679.52,-131.45 668.94,-132.06 677.59,-138.18 679.52,-131.45"/>
</a>
</g>
</g>
<!-- Node29 -->
<g id="Node000029" class="node">
<title>Node29</title>
<g id="a_Node000029"><a xlink:title=" ">
<polygon fill="#e0e0e0" stroke="#999999" points="766.12,-134.25 685.62,-134.25 685.62,-113.5 766.12,-113.5 766.12,-134.25"/>
<text text-anchor="middle" x="725.88" y="-120.75" font-family="Helvetica,sans-Serif" font-size="10.00">system_error</text>
</a>
</g>
</g>
<!-- Node12&#45;&gt;Node29 -->
<g id="edge34_Node000012_Node000029" class="edge">
<title>Node12&#45;&gt;Node29</title>
<g id="a_edge34_Node000012_Node000029"><a xlink:title=" ">
<path fill="none" stroke="#63b8ff" d="M815.39,-169.84C798.73,-161.47 774.49,-149.29 755.44,-139.72"/>
<polygon fill="#63b8ff" stroke="#63b8ff" points="757.05,-136.62 746.55,-135.26 753.91,-142.87 757.05,-136.62"/>
</a>
</g>
</g>
<!-- Node14 -->
<g id="Node000014" class="node">
<title>Node14</title>
<g id="a_Node000014"><a xlink:title=" ">
<polygon fill="#e0e0e0" stroke="#999999" points="1339.62,-77.5 1208.12,-77.5 1208.12,-56.75 1339.62,-56.75 1339.62,-77.5"/>
<text text-anchor="middle" x="1273.88" y="-64" font-family="Helvetica,sans-Serif" font-size="10.00">nlohmann/json_fwd.hpp</text>
</a>
</g>
</g>
<!-- Node13&#45;&gt;Node14 -->
<g id="edge13_Node000013_Node000014" class="edge">
<title>Node13&#45;&gt;Node14</title>
<g id="a_edge13_Node000013_Node000014"><a xlink:title=" ">
<path fill="none" stroke="#63b8ff" d="M1225.42,-113.09C1233.65,-105.46 1245.27,-94.67 1255.08,-85.57"/>
<polygon fill="#63b8ff" stroke="#63b8ff" points="1257.36,-88.23 1262.31,-78.86 1252.6,-83.09 1257.36,-88.23"/>
</a>
</g>
</g>
<!-- Node13&#45;&gt;Node15 -->
<g id="edge14_Node000013_Node000015" class="edge">
<title>Node13&#45;&gt;Node15</title>
<g id="a_edge14_Node000013_Node000015"><a xlink:title=" ">
<path fill="none" stroke="#63b8ff" d="M1246.52,-113.09C1275.25,-104.2 1317.84,-91.02 1349.5,-81.23"/>
<polygon fill="#63b8ff" stroke="#63b8ff" points="1350.24,-84.67 1358.76,-78.37 1348.17,-77.98 1350.24,-84.67"/>
</a>
</g>
</g>
<!-- Node16&#45;&gt;Node5 -->
<g id="edge18_Node000016_Node000005" class="edge">
<title>Node16&#45;&gt;Node5</title>
<g id="a_edge18_Node000016_Node000005"><a xlink:title=" ">
<path fill="none" stroke="#63b8ff" d="M889.87,-114.99C885.14,-114.48 880.44,-113.97 875.88,-113.5 705.38,-95.76 659.77,-112.07 491.88,-77.5 491.06,-77.33 490.23,-77.15 489.4,-76.95"/>
<polygon fill="#63b8ff" stroke="#63b8ff" points="490.69,-73.68 480.12,-74.33 488.79,-80.42 490.69,-73.68"/>
</a>
</g>
</g>
<!-- Node16&#45;&gt;Node6 -->
<g id="edge20_Node000016_Node000006" class="edge">
<title>Node16&#45;&gt;Node6</title>
<g id="a_edge20_Node000016_Node000006"><a xlink:title=" ">
<path fill="none" stroke="#63b8ff" d="M894.79,-113.04C848.1,-105.31 782.77,-93.58 717.11,-77.84"/>
<polygon fill="#63b8ff" stroke="#63b8ff" points="718.16,-74.5 707.62,-75.53 716.51,-81.3 718.16,-74.5"/>
</a>
</g>
</g>
<!-- Node16&#45;&gt;Node7 -->
<g id="edge19_Node000016_Node000007" class="edge">
<title>Node16&#45;&gt;Node7</title>
<g id="a_edge19_Node000016_Node000007"><a xlink:title=" ">
<path fill="none" stroke="#63b8ff" d="M889.97,-114.92C797.77,-104.08 639.16,-85.28 584.35,-77.35"/>
<polygon fill="#63b8ff" stroke="#63b8ff" points="585.17,-73.94 574.76,-75.89 584.12,-80.86 585.17,-73.94"/>
</a>
</g>
</g>
<!-- Node17 -->
<g id="Node000017" class="node">
<title>Node17</title>
<g id="a_Node000017"><a xlink:href="comparator_8hh.html" target="_top" xlink:title=" ">
<polygon fill="white" stroke="#666666" points="856,-77.5 723.75,-77.5 723.75,-56.75 856,-56.75 856,-77.5"/>
<text text-anchor="middle" x="789.88" y="-64" font-family="Helvetica,sans-Serif" font-size="10.00">lix/libutil/comparator.hh</text>
</a>
</g>
</g>
<!-- Node16&#45;&gt;Node17 -->
<g id="edge16_Node000016_Node000017" class="edge">
<title>Node16&#45;&gt;Node17</title>
<g id="a_edge16_Node000016_Node000017"><a xlink:title=" ">
<path fill="none" stroke="#63b8ff" d="M927.84,-113.09C900.69,-104.24 860.49,-91.14 830.49,-81.36"/>
<polygon fill="#63b8ff" stroke="#63b8ff" points="831.96,-78.16 821.37,-78.39 829.8,-84.82 831.96,-78.16"/>
</a>
</g>
</g>
<!-- Node19 -->
<g id="Node000019" class="node">
<title>Node19</title>
<g id="a_Node000019"><a xlink:title=" ">
<polygon fill="#e0e0e0" stroke="#999999" points="643.12,-77.5 592.62,-77.5 592.62,-56.75 643.12,-56.75 643.12,-77.5"/>
<text text-anchor="middle" x="617.88" y="-64" font-family="Helvetica,sans-Serif" font-size="10.00">variant</text>
</a>
</g>
</g>
<!-- Node16&#45;&gt;Node19 -->
<g id="edge21_Node000016_Node000019" class="edge">
<title>Node16&#45;&gt;Node19</title>
<g id="a_edge21_Node000016_Node000019"><a xlink:title=" ">
<path fill="none" stroke="#63b8ff" d="M889.95,-115.02C830.42,-107.63 741.4,-95.35 654.54,-77.63"/>
<polygon fill="#63b8ff" stroke="#63b8ff" points="655.39,-74.23 644.89,-75.63 653.97,-81.09 655.39,-74.23"/>
</a>
</g>
</g>
<!-- Node18 -->
<g id="Node000018" class="node">
<title>Node18</title>
<g id="a_Node000018"><a xlink:title=" ">
<polygon fill="#e0e0e0" stroke="#999999" points="810.25,-20.75 769.5,-20.75 769.5,0 810.25,0 810.25,-20.75"/>
<text text-anchor="middle" x="789.88" y="-7.25" font-family="Helvetica,sans-Serif" font-size="10.00">tuple</text>
</a>
</g>
</g>
<!-- Node17&#45;&gt;Node18 -->
<g id="edge17_Node000017_Node000018" class="edge">
<title>Node17&#45;&gt;Node18</title>
<g id="a_edge17_Node000017_Node000018"><a xlink:title=" ">
<path fill="none" stroke="#63b8ff" d="M789.88,-56.34C789.88,-49.72 789.88,-40.72 789.88,-32.52"/>
<polygon fill="#63b8ff" stroke="#63b8ff" points="793.38,-32.59 789.88,-22.59 786.38,-32.59 793.38,-32.59"/>
</a>
</g>
</g>
<!-- Node20&#45;&gt;Node6 -->
<g id="edge24_Node000020_Node000006" class="edge">
<title>Node20&#45;&gt;Node6</title>
<g id="a_edge24_Node000020_Node000006"><a xlink:title=" ">
<path fill="none" stroke="#63b8ff" d="M1043.55,-114.77C1040.61,-114.32 1037.71,-113.9 1034.88,-113.5 896.73,-94.18 857.06,-105.71 717.24,-77.65"/>
<polygon fill="#63b8ff" stroke="#63b8ff" points="718.08,-74.25 707.58,-75.68 716.68,-81.11 718.08,-74.25"/>
</a>
</g>
</g>
<!-- Node21 -->
<g id="Node000021" class="node">
<title>Node21</title>
<g id="a_Node000021"><a xlink:title=" ">
<polygon fill="#e0e0e0" stroke="#999999" points="1071.62,-77.5 1012.12,-77.5 1012.12,-56.75 1071.62,-56.75 1071.62,-77.5"/>
<text text-anchor="middle" x="1041.88" y="-64" font-family="Helvetica,sans-Serif" font-size="10.00">iostream</text>
</a>
</g>
</g>
<!-- Node20&#45;&gt;Node21 -->
<g id="edge23_Node000020_Node000021" class="edge">
<title>Node20&#45;&gt;Node21</title>
<g id="a_edge23_Node000020_Node000021"><a xlink:title=" ">
<path fill="none" stroke="#63b8ff" d="M1082.11,-113.09C1075.43,-105.61 1066.02,-95.11 1057.99,-86.13"/>
<polygon fill="#63b8ff" stroke="#63b8ff" points="1060.85,-84.07 1051.57,-78.96 1055.63,-88.74 1060.85,-84.07"/>
</a>
</g>
</g>
<!-- Node22 -->
<g id="Node000022" class="node">
<title>Node22</title>
<g id="a_Node000022"><a xlink:title=" ">
<polygon fill="#e0e0e0" stroke="#999999" points="1189.88,-77.5 1089.88,-77.5 1089.88,-56.75 1189.88,-56.75 1189.88,-77.5"/>
<text text-anchor="middle" x="1139.88" y="-64" font-family="Helvetica,sans-Serif" font-size="10.00">boost/format.hpp</text>
</a>
</g>
</g>
<!-- Node20&#45;&gt;Node22 -->
<g id="edge25_Node000020_Node000022" class="edge">
<title>Node20&#45;&gt;Node22</title>
<g id="a_edge25_Node000020_Node000022"><a xlink:title=" ">
<path fill="none" stroke="#63b8ff" d="M1099.64,-113.09C1106.32,-105.61 1115.73,-95.11 1123.76,-86.13"/>
<polygon fill="#63b8ff" stroke="#63b8ff" points="1126.12,-88.74 1130.18,-78.96 1120.9,-84.07 1126.12,-88.74"/>
</a>
</g>
</g>
<!-- Node23 -->
<g id="Node000023" class="node">
<title>Node23</title>
<g id="a_Node000023"><a xlink:href="ansicolor_8hh.html" target="_top" xlink:title="Some ANSI escape sequences.">
<polygon fill="white" stroke="#666666" points="994,-77.5 873.75,-77.5 873.75,-56.75 994,-56.75 994,-77.5"/>
<text text-anchor="middle" x="933.88" y="-64" font-family="Helvetica,sans-Serif" font-size="10.00">lix/libutil/ansicolor.hh</text>
</a>
</g>
</g>
<!-- Node20&#45;&gt;Node23 -->
<g id="edge26_Node000020_Node000023" class="edge">
<title>Node20&#45;&gt;Node23</title>
<g id="a_edge26_Node000020_Node000023"><a xlink:title=" ">
<path fill="none" stroke="#63b8ff" d="M1062.81,-113.09C1037.66,-104.32 1000.53,-91.37 972.57,-81.62"/>
<polygon fill="#63b8ff" stroke="#63b8ff" points="973.99,-78.41 963.39,-78.42 971.68,-85.02 973.99,-78.41"/>
</a>
</g>
</g>
<!-- Node30&#45;&gt;Node12 -->
<g id="edge37_Node000030_Node000012" class="edge">
<title>Node30&#45;&gt;Node12</title>
<g id="a_edge37_Node000030_Node000012"><a xlink:title=" ">
<path fill="none" stroke="#63b8ff" d="M785.6,-226.59C793.96,-218.96 805.79,-208.17 815.76,-199.07"/>
<polygon fill="#63b8ff" stroke="#63b8ff" points="818.1,-201.67 823.12,-192.35 813.38,-196.5 818.1,-201.67"/>
</a>
</g>
</g>
<!-- Node31 -->
<g id="Node000031" class="node">
<title>Node31</title>
<g id="a_Node000031"><a xlink:href="generator_8hh.html" target="_top" xlink:title=" ">
<polygon fill="white" stroke="#666666" points="473.5,-191 350.25,-191 350.25,-170.25 473.5,-170.25 473.5,-191"/>
<text text-anchor="middle" x="411.88" y="-177.5" font-family="Helvetica,sans-Serif" font-size="10.00">lix/libutil/generator.hh</text>
</a>
</g>
</g>
<!-- Node30&#45;&gt;Node31 -->
<g id="edge38_Node000030_Node000031" class="edge">
<title>Node30&#45;&gt;Node31</title>
<g id="a_edge38_Node000030_Node000031"><a xlink:title=" ">
<path fill="none" stroke="#63b8ff" d="M709.56,-226.52C646.36,-216.99 550.75,-202.57 485.03,-192.66"/>
<polygon fill="#63b8ff" stroke="#63b8ff" points="485.85,-189.24 475.44,-191.21 484.8,-196.16 485.85,-189.24"/>
</a>
</g>
</g>
<!-- Node31&#45;&gt;Node2 -->
<g id="edge39_Node000031_Node000002" class="edge">
<title>Node31&#45;&gt;Node2</title>
<g id="a_edge39_Node000031_Node000002"><a xlink:title=" ">
<path fill="none" stroke="#63b8ff" d="M362.39,-169.77C316.2,-160.58 247.14,-146.83 197.62,-136.97"/>
<polygon fill="#63b8ff" stroke="#63b8ff" points="198.4,-133.56 187.91,-135.04 197.03,-140.42 198.4,-133.56"/>
</a>
</g>
</g>
<!-- Node31&#45;&gt;Node4 -->
<g id="edge43_Node000031_Node000004" class="edge">
<title>Node31&#45;&gt;Node4</title>
<g id="a_edge43_Node000031_Node000004"><a xlink:title=" ">
<path fill="none" stroke="#63b8ff" d="M417.16,-169.82C423.76,-156.12 432.9,-130.98 421.88,-113.5 409.62,-94.06 386.49,-82.77 366.12,-76.32"/>
<polygon fill="#63b8ff" stroke="#63b8ff" points="367.21,-72.99 356.63,-73.62 365.3,-79.72 367.21,-72.99"/>
</a>
</g>
</g>
<!-- Node31&#45;&gt;Node19 -->
<g id="edge45_Node000031_Node000019" class="edge">
<title>Node31&#45;&gt;Node19</title>
<g id="a_edge45_Node000031_Node000019"><a xlink:title=" ">
<path fill="none" stroke="#63b8ff" d="M422.28,-169.97C437.78,-155.99 468.26,-130.01 497.88,-113.5 524.58,-98.62 557.15,-86.65 581.61,-78.75"/>
<polygon fill="#63b8ff" stroke="#63b8ff" points="582.63,-82.1 591.13,-75.76 580.54,-75.42 582.63,-82.1"/>
</a>
</g>
</g>
<!-- Node31&#45;&gt;Node25 -->
<g id="edge42_Node000031_Node000025" class="edge">
<title>Node31&#45;&gt;Node25</title>
<g id="a_edge42_Node000031_Node000025"><a xlink:title=" ">
<path fill="none" stroke="#63b8ff" d="M434.04,-169.84C453.35,-161.31 481.6,-148.84 503.45,-139.19"/>
<polygon fill="#63b8ff" stroke="#63b8ff" points="504.78,-142.43 512.51,-135.19 501.95,-136.03 504.78,-142.43"/>
</a>
</g>
</g>
<!-- Node32 -->
<g id="Node000032" class="node">
<title>Node32</title>
<g id="a_Node000032"><a xlink:title=" ">
<polygon fill="#e0e0e0" stroke="#999999" points="412.75,-134.25 351,-134.25 351,-113.5 412.75,-113.5 412.75,-134.25"/>
<text text-anchor="middle" x="381.88" y="-120.75" font-family="Helvetica,sans-Serif" font-size="10.00">coroutine</text>
</a>
</g>
</g>
<!-- Node31&#45;&gt;Node32 -->
<g id="edge40_Node000031_Node000032" class="edge">
<title>Node31&#45;&gt;Node32</title>
<g id="a_edge40_Node000031_Node000032"><a xlink:title=" ">
<path fill="none" stroke="#63b8ff" d="M406.51,-169.84C402.67,-162.83 397.37,-153.16 392.67,-144.58"/>
<polygon fill="#63b8ff" stroke="#63b8ff" points="395.79,-142.99 387.92,-135.91 389.66,-146.36 395.79,-142.99"/>
</a>
</g>
</g>
<!-- Node33 -->
<g id="Node000033" class="node">
<title>Node33</title>
<g id="a_Node000033"><a xlink:title=" ">
<polygon fill="#e0e0e0" stroke="#999999" points="270.88,-134.25 206.88,-134.25 206.88,-113.5 270.88,-113.5 270.88,-134.25"/>
<text text-anchor="middle" x="238.88" y="-120.75" font-family="Helvetica,sans-Serif" font-size="10.00">exception</text>
</a>
</g>
</g>
<!-- Node31&#45;&gt;Node33 -->
<g id="edge41_Node000031_Node000033" class="edge">
<title>Node31&#45;&gt;Node33</title>
<g id="a_edge41_Node000031_Node000033"><a xlink:title=" ">
<path fill="none" stroke="#63b8ff" d="M380.95,-169.84C352.99,-160.99 311.6,-147.89 280.69,-138.11"/>
<polygon fill="#63b8ff" stroke="#63b8ff" points="281.86,-134.81 271.27,-135.13 279.75,-141.48 281.86,-134.81"/>
</a>
</g>
</g>
<!-- Node34 -->
<g id="Node000034" class="node">
<title>Node34</title>
<g id="a_Node000034"><a xlink:title=" ">
<polygon fill="#e0e0e0" stroke="#999999" points="333.12,-134.25 288.62,-134.25 288.62,-113.5 333.12,-113.5 333.12,-134.25"/>
<text text-anchor="middle" x="310.88" y="-120.75" font-family="Helvetica,sans-Serif" font-size="10.00">utility</text>
</a>
</g>
</g>
<!-- Node31&#45;&gt;Node34 -->
<g id="edge44_Node000031_Node000034" class="edge">
<title>Node31&#45;&gt;Node34</title>
<g id="a_edge44_Node000031_Node000034"><a xlink:title=" ">
<path fill="none" stroke="#63b8ff" d="M393.82,-169.84C378.45,-161.51 356.13,-149.41 338.52,-139.86"/>
<polygon fill="#63b8ff" stroke="#63b8ff" points="340.57,-136.99 330.11,-135.3 337.23,-143.14 340.57,-136.99"/>
</a>
</g>
</g>
</g>
</svg>
