<?xml version="1.0" encoding="UTF-8" standalone="no"?>
<!DOCTYPE svg PUBLIC "-//W3C//DTD SVG 1.1//EN"
 "http://www.w3.org/Graphics/SVG/1.1/DTD/svg11.dtd">
<!-- Generated by graphviz version 12.2.1 (0)
 -->
<!-- Title: lix/libutil/result.hh Pages: 1 -->
<svg width="592pt" height="98pt"
 viewBox="0.00 0.00 591.88 98.25" xmlns="http://www.w3.org/2000/svg" xmlns:xlink="http://www.w3.org/1999/xlink">
<g id="graph0" class="graph" transform="scale(1 1) rotate(0) translate(4 94.25)">
<title>lix/libutil/result.hh</title>
<!-- Node1 -->
<g id="Node000001" class="node">
<title>Node1</title>
<g id="a_Node000001"><a xlink:title=" ">
<polygon fill="#999999" stroke="#666666" points="407.12,-90.25 302.62,-90.25 302.62,-69.5 407.12,-69.5 407.12,-90.25"/>
<text text-anchor="middle" x="354.88" y="-76.75" font-family="Helvetica,sans-Serif" font-size="10.00">lix/libutil/result.hh</text>
</a>
</g>
</g>
<!-- Node2 -->
<g id="Node000002" class="node">
<title>Node2</title>
<g id="a_Node000002"><a xlink:title=" ">
<polygon fill="#e0e0e0" stroke="#999999" points="175.75,-27.12 0,-27.12 0,-6.38 175.75,-6.38 175.75,-27.12"/>
<text text-anchor="middle" x="87.88" y="-13.62" font-family="Helvetica,sans-Serif" font-size="10.00">boost/outcome/std_outcome.hpp</text>
</a>
</g>
</g>
<!-- Node1&#45;&gt;Node2 -->
<g id="edge1_Node000001_Node000002" class="edge">
<title>Node1&#45;&gt;Node2</title>
<g id="a_edge1_Node000001_Node000002"><a xlink:title=" ">
<path fill="none" stroke="#63b8ff" d="M311.98,-69.05C265.66,-58.45 191.78,-41.54 141.62,-30.05"/>
<polygon fill="#63b8ff" stroke="#63b8ff" points="142.67,-26.7 132.14,-27.88 141.11,-33.53 142.67,-26.7"/>
</a>
</g>
</g>
<!-- Node3 -->
<g id="Node000003" class="node">
<title>Node3</title>
<g id="a_Node000003"><a xlink:title=" ">
<polygon fill="#e0e0e0" stroke="#999999" points="354.25,-27.12 193.5,-27.12 193.5,-6.38 354.25,-6.38 354.25,-27.12"/>
<text text-anchor="middle" x="273.88" y="-13.62" font-family="Helvetica,sans-Serif" font-size="10.00">boost/outcome/std_result.hpp</text>
</a>
</g>
</g>
<!-- Node1&#45;&gt;Node3 -->
<g id="edge2_Node000001_Node000003" class="edge">
<title>Node1&#45;&gt;Node3</title>
<g id="a_edge2_Node000001_Node000003"><a xlink:title=" ">
<path fill="none" stroke="#63b8ff" d="M341.86,-69.05C329.46,-59.7 310.55,-45.43 295.82,-34.31"/>
<polygon fill="#63b8ff" stroke="#63b8ff" points="298.16,-31.69 288.06,-28.46 293.94,-37.28 298.16,-31.69"/>
</a>
</g>
</g>
<!-- Node4 -->
<g id="Node000004" class="node">
<title>Node4</title>
<g id="a_Node000004"><a xlink:title=" ">
<polygon fill="#e0e0e0" stroke="#999999" points="501.88,-33.5 371.88,-33.5 371.88,0 501.88,0 501.88,-33.5"/>
<text text-anchor="start" x="379.88" y="-20" font-family="Helvetica,sans-Serif" font-size="10.00">boost/outcome/success</text>
<text text-anchor="middle" x="436.88" y="-7.25" font-family="Helvetica,sans-Serif" font-size="10.00">_failure.hpp</text>
</a>
</g>
</g>
<!-- Node1&#45;&gt;Node4 -->
<g id="edge3_Node000001_Node000004" class="edge">
<title>Node1&#45;&gt;Node4</title>
<g id="a_edge3_Node000001_Node000004"><a xlink:title=" ">
<path fill="none" stroke="#63b8ff" d="M368.05,-69.05C378.25,-61.45 392.8,-50.6 405.9,-40.84"/>
<polygon fill="#63b8ff" stroke="#63b8ff" points="407.96,-43.67 413.88,-34.89 403.77,-38.06 407.96,-43.67"/>
</a>
</g>
</g>
<!-- Node5 -->
<g id="Node000005" class="node">
<title>Node5</title>
<g id="a_Node000005"><a xlink:title=" ">
<polygon fill="#e0e0e0" stroke="#999999" points="583.88,-27.12 519.88,-27.12 519.88,-6.38 583.88,-6.38 583.88,-27.12"/>
<text text-anchor="middle" x="551.88" y="-13.62" font-family="Helvetica,sans-Serif" font-size="10.00">exception</text>
</a>
</g>
</g>
<!-- Node1&#45;&gt;Node5 -->
<g id="edge4_Node000001_Node000005" class="edge">
<title>Node1&#45;&gt;Node5</title>
<g id="a_edge4_Node000001_Node000005"><a xlink:title=" ">
<path fill="none" stroke="#63b8ff" d="M392.02,-69.01C423.8,-60.35 470.65,-47.05 510.88,-33.5 512.71,-32.88 514.59,-32.23 516.48,-31.56"/>
<polygon fill="#63b8ff" stroke="#63b8ff" points="517.69,-34.84 525.86,-28.1 515.27,-28.28 517.69,-34.84"/>
</a>
</g>
</g>
</g>
</svg>
