<?xml version="1.0" encoding="UTF-8" standalone="no"?>
<!DOCTYPE svg PUBLIC "-//W3C//DTD SVG 1.1//EN"
 "http://www.w3.org/Graphics/SVG/1.1/DTD/svg11.dtd">
<!-- Generated by graphviz version 12.2.1 (0)
 -->
<!-- Title: lix/libstore/serve&#45;protocol&#45;impl.hh Pages: 1 -->
<svg width="1701pt" height="534pt"
 viewBox="0.00 0.00 1700.50 533.75" xmlns="http://www.w3.org/2000/svg" xmlns:xlink="http://www.w3.org/1999/xlink">
<g id="graph0" class="graph" transform="scale(1 1) rotate(0) translate(4 529.75)">
<title>lix/libstore/serve&#45;protocol&#45;impl.hh</title>
<!-- Node1 -->
<g id="Node000001" class="node">
<title>Node1</title>
<g id="a_Node000001"><a xlink:title=" ">
<polygon fill="#999999" stroke="#666666" points="1423.12,-525.75 1323.12,-525.75 1323.12,-492.25 1423.12,-492.25 1423.12,-525.75"/>
<text text-anchor="start" x="1331.12" y="-512.25" font-family="Helvetica,sans-Serif" font-size="10.00">lix/libstore/serve</text>
<text text-anchor="middle" x="1373.12" y="-499.5" font-family="Helvetica,sans-Serif" font-size="10.00">&#45;protocol&#45;impl.hh</text>
</a>
</g>
</g>
<!-- Node2 -->
<g id="Node000002" class="node">
<title>Node2</title>
<g id="a_Node000002"><a xlink:href="serve-protocol_8hh.html" target="_top" xlink:title=" ">
<polygon fill="white" stroke="#666666" points="1384,-456.25 1286.25,-456.25 1286.25,-422.75 1384,-422.75 1384,-456.25"/>
<text text-anchor="start" x="1294.25" y="-442.75" font-family="Helvetica,sans-Serif" font-size="10.00">lix/libstore/serve</text>
<text text-anchor="middle" x="1335.12" y="-430" font-family="Helvetica,sans-Serif" font-size="10.00">&#45;protocol.hh</text>
</a>
</g>
</g>
<!-- Node1&#45;&gt;Node2 -->
<g id="edge1_Node000001_Node000002" class="edge">
<title>Node1&#45;&gt;Node2</title>
<g id="a_edge1_Node000001_Node000002"><a xlink:title=" ">
<path fill="none" stroke="#63b8ff" d="M1364.12,-492C1359.81,-484.35 1354.55,-475 1349.69,-466.38"/>
<polygon fill="#63b8ff" stroke="#63b8ff" points="1352.76,-464.7 1344.81,-457.7 1346.66,-468.13 1352.76,-464.7"/>
</a>
</g>
</g>
<!-- Node40 -->
<g id="Node000040" class="node">
<title>Node40</title>
<g id="a_Node000040"><a xlink:href="length-prefixed-protocol-helper_8hh_source.html" target="_top" xlink:title=" ">
<polygon fill="white" stroke="#666666" points="1524.62,-386.75 1373.62,-386.75 1373.62,-353.25 1524.62,-353.25 1524.62,-386.75"/>
<text text-anchor="start" x="1381.62" y="-373.25" font-family="Helvetica,sans-Serif" font-size="10.00">lix/libstore/length</text>
<text text-anchor="middle" x="1449.12" y="-360.5" font-family="Helvetica,sans-Serif" font-size="10.00">&#45;prefixed&#45;protocol&#45;helper.hh</text>
</a>
</g>
</g>
<!-- Node1&#45;&gt;Node40 -->
<g id="edge53_Node000001_Node000040" class="edge">
<title>Node1&#45;&gt;Node40</title>
<g id="a_edge53_Node000001_Node000040"><a xlink:title=" ">
<path fill="none" stroke="#63b8ff" d="M1381.99,-492.02C1394.98,-468.61 1419.31,-424.75 1434.84,-396.76"/>
<polygon fill="#63b8ff" stroke="#63b8ff" points="1437.79,-398.65 1439.58,-388.21 1431.67,-395.25 1437.79,-398.65"/>
</a>
</g>
</g>
<!-- Node3 -->
<g id="Node000003" class="node">
<title>Node3</title>
<g id="a_Node000003"><a xlink:href="common-protocol_8hh.html" target="_top" xlink:title=" ">
<polygon fill="white" stroke="#666666" points="1355.88,-386.75 1242.38,-386.75 1242.38,-353.25 1355.88,-353.25 1355.88,-386.75"/>
<text text-anchor="start" x="1250.38" y="-373.25" font-family="Helvetica,sans-Serif" font-size="10.00">lix/libstore/common</text>
<text text-anchor="middle" x="1299.12" y="-360.5" font-family="Helvetica,sans-Serif" font-size="10.00">&#45;protocol.hh</text>
</a>
</g>
</g>
<!-- Node2&#45;&gt;Node3 -->
<g id="edge2_Node000002_Node000003" class="edge">
<title>Node2&#45;&gt;Node3</title>
<g id="a_edge2_Node000002_Node000003"><a xlink:title=" ">
<path fill="none" stroke="#63b8ff" d="M1326.59,-422.5C1322.51,-414.85 1317.53,-405.5 1312.93,-396.88"/>
<polygon fill="#63b8ff" stroke="#63b8ff" points="1316.1,-395.39 1308.31,-388.22 1309.93,-398.69 1316.1,-395.39"/>
</a>
</g>
</g>
<!-- Node4 -->
<g id="Node000004" class="node">
<title>Node4</title>
<g id="a_Node000004"><a xlink:href="serialise_8hh.html" target="_top" xlink:title=" ">
<polygon fill="white" stroke="#666666" points="1358.12,-317.25 1240.12,-317.25 1240.12,-296.5 1358.12,-296.5 1358.12,-317.25"/>
<text text-anchor="middle" x="1299.12" y="-303.75" font-family="Helvetica,sans-Serif" font-size="10.00">lix/libutil/serialise.hh</text>
</a>
</g>
</g>
<!-- Node3&#45;&gt;Node4 -->
<g id="edge3_Node000003_Node000004" class="edge">
<title>Node3&#45;&gt;Node4</title>
<g id="a_edge3_Node000003_Node000004"><a xlink:title=" ">
<path fill="none" stroke="#63b8ff" d="M1299.12,-352.94C1299.12,-345.6 1299.12,-336.82 1299.12,-328.96"/>
<polygon fill="#63b8ff" stroke="#63b8ff" points="1302.63,-329.23 1299.13,-319.23 1295.63,-329.23 1302.63,-329.23"/>
</a>
</g>
</g>
<!-- Node5 -->
<g id="Node000005" class="node">
<title>Node5</title>
<g id="a_Node000005"><a xlink:title=" ">
<polygon fill="#e0e0e0" stroke="#999999" points="1183.75,-134.25 1126.5,-134.25 1126.5,-113.5 1183.75,-113.5 1183.75,-134.25"/>
<text text-anchor="middle" x="1155.12" y="-120.75" font-family="Helvetica,sans-Serif" font-size="10.00">memory</text>
</a>
</g>
</g>
<!-- Node4&#45;&gt;Node5 -->
<g id="edge4_Node000004_Node000005" class="edge">
<title>Node4&#45;&gt;Node5</title>
<g id="a_edge4_Node000004_Node000005"><a xlink:title=" ">
<path fill="none" stroke="#63b8ff" d="M1239.77,-297.86C1215.9,-291.59 1190.26,-280.41 1174.12,-260.5 1147.53,-227.67 1148.7,-175.07 1151.91,-145.96"/>
<polygon fill="#63b8ff" stroke="#63b8ff" points="1155.35,-146.6 1153.18,-136.23 1148.41,-145.69 1155.35,-146.6"/>
</a>
</g>
</g>
<!-- Node6 -->
<g id="Node000006" class="node">
<title>Node6</title>
<g id="a_Node000006"><a xlink:href="charptr-cast_8hh_source.html" target="_top" xlink:title=" ">
<polygon fill="white" stroke="#666666" points="341.25,-260.5 245,-260.5 245,-227 341.25,-227 341.25,-260.5"/>
<text text-anchor="start" x="253" y="-247" font-family="Helvetica,sans-Serif" font-size="10.00">lix/libutil/charptr</text>
<text text-anchor="middle" x="293.12" y="-234.25" font-family="Helvetica,sans-Serif" font-size="10.00">&#45;cast.hh</text>
</a>
</g>
</g>
<!-- Node4&#45;&gt;Node6 -->
<g id="edge5_Node000004_Node000006" class="edge">
<title>Node4&#45;&gt;Node6</title>
<g id="a_edge5_Node000004_Node000006"><a xlink:title=" ">
<path fill="none" stroke="#63b8ff" d="M1239.95,-302.28C1061.81,-291.46 531.84,-259.25 352.9,-248.38"/>
<polygon fill="#63b8ff" stroke="#63b8ff" points="353.34,-244.9 343.14,-247.79 352.91,-251.89 353.34,-244.9"/>
</a>
</g>
</g>
<!-- Node9 -->
<g id="Node000009" class="node">
<title>Node9</title>
<g id="a_Node000009"><a xlink:href="generator_8hh.html" target="_top" xlink:title=" ">
<polygon fill="white" stroke="#666666" points="1393.75,-191 1270.5,-191 1270.5,-170.25 1393.75,-170.25 1393.75,-191"/>
<text text-anchor="middle" x="1332.12" y="-177.5" font-family="Helvetica,sans-Serif" font-size="10.00">lix/libutil/generator.hh</text>
</a>
</g>
</g>
<!-- Node4&#45;&gt;Node9 -->
<g id="edge8_Node000004_Node000009" class="edge">
<title>Node4&#45;&gt;Node9</title>
<g id="a_edge8_Node000004_Node000009"><a xlink:title=" ">
<path fill="none" stroke="#63b8ff" d="M1310.63,-296.03C1319.5,-287.62 1331.08,-274.67 1336.12,-260.5 1342.83,-241.66 1340.6,-218.69 1337.44,-202.41"/>
<polygon fill="#63b8ff" stroke="#63b8ff" points="1340.91,-201.91 1335.3,-192.92 1334.08,-203.44 1340.91,-201.91"/>
</a>
</g>
</g>
<!-- Node10 -->
<g id="Node000010" class="node">
<title>Node10</title>
<g id="a_Node000010"><a xlink:href="types_8hh.html" target="_top" xlink:title=" ">
<polygon fill="white" stroke="#666666" points="1606,-134.25 1502.25,-134.25 1502.25,-113.5 1606,-113.5 1606,-134.25"/>
<text text-anchor="middle" x="1554.12" y="-120.75" font-family="Helvetica,sans-Serif" font-size="10.00">lix/libutil/types.hh</text>
</a>
</g>
</g>
<!-- Node4&#45;&gt;Node10 -->
<g id="edge25_Node000004_Node000010" class="edge">
<title>Node4&#45;&gt;Node10</title>
<g id="a_edge25_Node000004_Node000010"><a xlink:title=" ">
<path fill="none" stroke="#63b8ff" d="M1311.04,-296.23C1339.44,-273.38 1413.67,-214.55 1479.12,-170.25 1494.64,-159.75 1512.58,-148.85 1527.02,-140.37"/>
<polygon fill="#63b8ff" stroke="#63b8ff" points="1528.64,-143.48 1535.53,-135.42 1525.12,-137.43 1528.64,-143.48"/>
</a>
</g>
</g>
<!-- Node24 -->
<g id="Node000024" class="node">
<title>Node24</title>
<g id="a_Node000024"><a xlink:href="file-descriptor_8hh.html" target="_top" xlink:title=" ">
<polygon fill="white" stroke="#666666" points="1326.88,-254.12 1183.38,-254.12 1183.38,-233.38 1326.88,-233.38 1326.88,-254.12"/>
<text text-anchor="middle" x="1255.12" y="-240.62" font-family="Helvetica,sans-Serif" font-size="10.00">lix/libutil/file&#45;descriptor.hh</text>
</a>
</g>
</g>
<!-- Node4&#45;&gt;Node24 -->
<g id="edge26_Node000004_Node000024" class="edge">
<title>Node4&#45;&gt;Node24</title>
<g id="a_edge26_Node000004_Node000024"><a xlink:title=" ">
<path fill="none" stroke="#63b8ff" d="M1292.06,-296.05C1285.73,-287.27 1276.29,-274.16 1268.54,-263.39"/>
<polygon fill="#63b8ff" stroke="#63b8ff" points="1271.6,-261.64 1262.92,-255.57 1265.92,-265.73 1271.6,-261.64"/>
</a>
</g>
</g>
<!-- Node7 -->
<g id="Node000007" class="node">
<title>Node7</title>
<g id="a_Node000007"><a xlink:title=" ">
<polygon fill="#e0e0e0" stroke="#999999" points="264.88,-191 205.38,-191 205.38,-170.25 264.88,-170.25 264.88,-191"/>
<text text-anchor="middle" x="235.12" y="-177.5" font-family="Helvetica,sans-Serif" font-size="10.00">concepts</text>
</a>
</g>
</g>
<!-- Node6&#45;&gt;Node7 -->
<g id="edge6_Node000006_Node000007" class="edge">
<title>Node6&#45;&gt;Node7</title>
<g id="a_edge6_Node000006_Node000007"><a xlink:title=" ">
<path fill="none" stroke="#63b8ff" d="M277.89,-226.69C270.01,-218.39 260.38,-208.24 252.25,-199.68"/>
<polygon fill="#63b8ff" stroke="#63b8ff" points="254.93,-197.41 245.51,-192.56 249.85,-202.23 254.93,-197.41"/>
</a>
</g>
</g>
<!-- Node8 -->
<g id="Node000008" class="node">
<title>Node8</title>
<g id="a_Node000008"><a xlink:title=" ">
<polygon fill="#e0e0e0" stroke="#999999" points="402.38,-77.5 333.88,-77.5 333.88,-56.75 402.38,-56.75 402.38,-77.5"/>
<text text-anchor="middle" x="368.12" y="-64" font-family="Helvetica,sans-Serif" font-size="10.00">type_traits</text>
</a>
</g>
</g>
<!-- Node6&#45;&gt;Node8 -->
<g id="edge7_Node000006_Node000008" class="edge">
<title>Node6&#45;&gt;Node8</title>
<g id="a_edge7_Node000006_Node000008"><a xlink:title=" ">
<path fill="none" stroke="#63b8ff" d="M291.91,-226.85C290.68,-201.22 291.35,-149.96 312.12,-113.5 318.86,-101.68 329.97,-91.72 340.53,-84.16"/>
<polygon fill="#63b8ff" stroke="#63b8ff" points="342.28,-87.21 348.67,-78.76 338.41,-81.37 342.28,-87.21"/>
</a>
</g>
</g>
<!-- Node9&#45;&gt;Node5 -->
<g id="edge21_Node000009_Node000005" class="edge">
<title>Node9&#45;&gt;Node5</title>
<g id="a_edge21_Node000009_Node000005"><a xlink:title=" ">
<path fill="none" stroke="#63b8ff" d="M1300.48,-169.84C1270.95,-160.7 1226.77,-147.04 1194.87,-137.17"/>
<polygon fill="#63b8ff" stroke="#63b8ff" points="1196.18,-133.91 1185.59,-134.3 1194.11,-140.6 1196.18,-133.91"/>
</a>
</g>
</g>
<!-- Node9&#45;&gt;Node10 -->
<g id="edge9_Node000009_Node000010" class="edge">
<title>Node9&#45;&gt;Node10</title>
<g id="a_edge9_Node000009_Node000010"><a xlink:title=" ">
<path fill="none" stroke="#63b8ff" d="M1372.07,-169.77C1408.73,-160.73 1463.24,-147.29 1503.06,-137.47"/>
<polygon fill="#63b8ff" stroke="#63b8ff" points="1503.79,-140.89 1512.66,-135.1 1502.11,-134.1 1503.79,-140.89"/>
</a>
</g>
</g>
<!-- Node12 -->
<g id="Node000012" class="node">
<title>Node12</title>
<g id="a_Node000012"><a xlink:title=" ">
<polygon fill="#e0e0e0" stroke="#999999" points="1360,-77.5 1304.25,-77.5 1304.25,-56.75 1360,-56.75 1360,-77.5"/>
<text text-anchor="middle" x="1332.12" y="-64" font-family="Helvetica,sans-Serif" font-size="10.00">optional</text>
</a>
</g>
</g>
<!-- Node9&#45;&gt;Node12 -->
<g id="edge22_Node000009_Node000012" class="edge">
<title>Node9&#45;&gt;Node12</title>
<g id="a_edge22_Node000009_Node000012"><a xlink:title=" ">
<path fill="none" stroke="#63b8ff" d="M1332.12,-170.12C1332.12,-152.35 1332.12,-113.72 1332.12,-89.43"/>
<polygon fill="#63b8ff" stroke="#63b8ff" points="1335.63,-89.44 1332.13,-79.44 1328.63,-89.44 1335.63,-89.44"/>
</a>
</g>
</g>
<!-- Node20 -->
<g id="Node000020" class="node">
<title>Node20</title>
<g id="a_Node000020"><a xlink:title=" ">
<polygon fill="#e0e0e0" stroke="#999999" points="1484,-134.25 1422.25,-134.25 1422.25,-113.5 1484,-113.5 1484,-134.25"/>
<text text-anchor="middle" x="1453.12" y="-120.75" font-family="Helvetica,sans-Serif" font-size="10.00">coroutine</text>
</a>
</g>
</g>
<!-- Node9&#45;&gt;Node20 -->
<g id="edge19_Node000009_Node000020" class="edge">
<title>Node9&#45;&gt;Node20</title>
<g id="a_edge19_Node000009_Node000020"><a xlink:title=" ">
<path fill="none" stroke="#63b8ff" d="M1353.76,-169.84C1372.6,-161.31 1400.16,-148.84 1421.48,-139.19"/>
<polygon fill="#63b8ff" stroke="#63b8ff" points="1422.63,-142.51 1430.3,-135.2 1419.75,-136.14 1422.63,-142.51"/>
</a>
</g>
</g>
<!-- Node21 -->
<g id="Node000021" class="node">
<title>Node21</title>
<g id="a_Node000021"><a xlink:title=" ">
<polygon fill="#e0e0e0" stroke="#999999" points="1304.12,-134.25 1240.12,-134.25 1240.12,-113.5 1304.12,-113.5 1304.12,-134.25"/>
<text text-anchor="middle" x="1272.12" y="-120.75" font-family="Helvetica,sans-Serif" font-size="10.00">exception</text>
</a>
</g>
</g>
<!-- Node9&#45;&gt;Node21 -->
<g id="edge20_Node000009_Node000021" class="edge">
<title>Node9&#45;&gt;Node21</title>
<g id="a_edge20_Node000009_Node000021"><a xlink:title=" ">
<path fill="none" stroke="#63b8ff" d="M1321.4,-169.84C1313.04,-162.21 1301.21,-151.42 1291.24,-142.32"/>
<polygon fill="#63b8ff" stroke="#63b8ff" points="1293.62,-139.75 1283.88,-135.6 1288.9,-144.92 1293.62,-139.75"/>
</a>
</g>
</g>
<!-- Node22 -->
<g id="Node000022" class="node">
<title>Node22</title>
<g id="a_Node000022"><a xlink:title=" ">
<polygon fill="#e0e0e0" stroke="#999999" points="1404.38,-134.25 1359.88,-134.25 1359.88,-113.5 1404.38,-113.5 1404.38,-134.25"/>
<text text-anchor="middle" x="1382.12" y="-120.75" font-family="Helvetica,sans-Serif" font-size="10.00">utility</text>
</a>
</g>
</g>
<!-- Node9&#45;&gt;Node22 -->
<g id="edge23_Node000009_Node000022" class="edge">
<title>Node9&#45;&gt;Node22</title>
<g id="a_edge23_Node000009_Node000022"><a xlink:title=" ">
<path fill="none" stroke="#63b8ff" d="M1341.06,-169.84C1347.89,-162.36 1357.49,-151.86 1365.68,-142.88"/>
<polygon fill="#63b8ff" stroke="#63b8ff" points="1368.08,-145.44 1372.24,-135.7 1362.91,-140.72 1368.08,-145.44"/>
</a>
</g>
</g>
<!-- Node23 -->
<g id="Node000023" class="node">
<title>Node23</title>
<g id="a_Node000023"><a xlink:title=" ">
<polygon fill="#e0e0e0" stroke="#999999" points="872.38,-77.5 821.88,-77.5 821.88,-56.75 872.38,-56.75 872.38,-77.5"/>
<text text-anchor="middle" x="847.12" y="-64" font-family="Helvetica,sans-Serif" font-size="10.00">variant</text>
</a>
</g>
</g>
<!-- Node9&#45;&gt;Node23 -->
<g id="edge24_Node000009_Node000023" class="edge">
<title>Node9&#45;&gt;Node23</title>
<g id="a_edge24_Node000009_Node000023"><a xlink:title=" ">
<path fill="none" stroke="#63b8ff" d="M1309.02,-169.85C1288.4,-160.99 1257.47,-147.33 1231.12,-134.25 1213.89,-125.69 1211.42,-119.46 1193.12,-113.5 1084.4,-78.06 947.91,-70.21 883.7,-68.54"/>
<polygon fill="#63b8ff" stroke="#63b8ff" points="884.16,-65.05 874.09,-68.32 884.01,-72.04 884.16,-65.05"/>
</a>
</g>
</g>
<!-- Node11 -->
<g id="Node000011" class="node">
<title>Node11</title>
<g id="a_Node000011"><a xlink:title=" ">
<polygon fill="#e0e0e0" stroke="#999999" points="1432.62,-77.5 1401.62,-77.5 1401.62,-56.75 1432.62,-56.75 1432.62,-77.5"/>
<text text-anchor="middle" x="1417.12" y="-64" font-family="Helvetica,sans-Serif" font-size="10.00">list</text>
</a>
</g>
</g>
<!-- Node10&#45;&gt;Node11 -->
<g id="edge10_Node000010_Node000011" class="edge">
<title>Node10&#45;&gt;Node11</title>
<g id="a_edge10_Node000010_Node000011"><a xlink:title=" ">
<path fill="none" stroke="#63b8ff" d="M1529.63,-113.09C1505.34,-103.38 1468.24,-88.55 1443.35,-78.61"/>
<polygon fill="#63b8ff" stroke="#63b8ff" points="1444.86,-75.44 1434.28,-74.98 1442.26,-81.94 1444.86,-75.44"/>
</a>
</g>
</g>
<!-- Node10&#45;&gt;Node12 -->
<g id="edge11_Node000010_Node000012" class="edge">
<title>Node10&#45;&gt;Node12</title>
<g id="a_edge11_Node000010_Node000012"><a xlink:title=" ">
<path fill="none" stroke="#63b8ff" d="M1514.18,-113.02C1473.76,-103.05 1411.65,-87.74 1371.45,-77.82"/>
<polygon fill="#63b8ff" stroke="#63b8ff" points="1372.5,-74.48 1361.95,-75.48 1370.82,-81.27 1372.5,-74.48"/>
</a>
</g>
</g>
<!-- Node13 -->
<g id="Node000013" class="node">
<title>Node13</title>
<g id="a_Node000013"><a xlink:title=" ">
<polygon fill="#e0e0e0" stroke="#999999" points="1078.62,-77.5 1047.62,-77.5 1047.62,-56.75 1078.62,-56.75 1078.62,-77.5"/>
<text text-anchor="middle" x="1063.12" y="-64" font-family="Helvetica,sans-Serif" font-size="10.00">set</text>
</a>
</g>
</g>
<!-- Node10&#45;&gt;Node13 -->
<g id="edge12_Node000010_Node000013" class="edge">
<title>Node10&#45;&gt;Node13</title>
<g id="a_edge12_Node000010_Node000013"><a xlink:title=" ">
<path fill="none" stroke="#63b8ff" d="M1501.9,-114.68C1498.94,-114.27 1495.99,-113.87 1493.12,-113.5 1341.04,-93.8 1157.86,-76.65 1090.06,-70.52"/>
<polygon fill="#63b8ff" stroke="#63b8ff" points="1090.56,-67.05 1080.28,-69.64 1089.93,-74.02 1090.56,-67.05"/>
</a>
</g>
</g>
<!-- Node14 -->
<g id="Node000014" class="node">
<title>Node14</title>
<g id="a_Node000014"><a xlink:title=" ">
<polygon fill="#e0e0e0" stroke="#999999" points="764,-77.5 720.25,-77.5 720.25,-56.75 764,-56.75 764,-77.5"/>
<text text-anchor="middle" x="742.12" y="-64" font-family="Helvetica,sans-Serif" font-size="10.00">string</text>
</a>
</g>
</g>
<!-- Node10&#45;&gt;Node14 -->
<g id="edge13_Node000010_Node000014" class="edge">
<title>Node10&#45;&gt;Node14</title>
<g id="a_edge13_Node000010_Node000014"><a xlink:title=" ">
<path fill="none" stroke="#63b8ff" d="M1501.93,-114.5C1498.95,-114.13 1496,-113.8 1493.12,-113.5 1192.07,-82.47 1114.49,-105.33 813.12,-77.5 800.87,-76.37 787.47,-74.71 775.65,-73.1"/>
<polygon fill="#63b8ff" stroke="#63b8ff" points="776.35,-69.66 765.96,-71.74 775.37,-76.6 776.35,-69.66"/>
</a>
</g>
</g>
<!-- Node15 -->
<g id="Node000015" class="node">
<title>Node15</title>
<g id="a_Node000015"><a xlink:title=" ">
<polygon fill="#e0e0e0" stroke="#999999" points="1247.25,-77.5 1175,-77.5 1175,-56.75 1247.25,-56.75 1247.25,-77.5"/>
<text text-anchor="middle" x="1211.12" y="-64" font-family="Helvetica,sans-Serif" font-size="10.00">string_view</text>
</a>
</g>
</g>
<!-- Node10&#45;&gt;Node15 -->
<g id="edge14_Node000010_Node000015" class="edge">
<title>Node10&#45;&gt;Node15</title>
<g id="a_edge14_Node000010_Node000015"><a xlink:title=" ">
<path fill="none" stroke="#63b8ff" d="M1502.03,-114.56C1435.87,-104 1322.64,-85.93 1258.71,-75.72"/>
<polygon fill="#63b8ff" stroke="#63b8ff" points="1259.29,-72.27 1248.86,-74.15 1258.19,-79.18 1259.29,-72.27"/>
</a>
</g>
</g>
<!-- Node16 -->
<g id="Node000016" class="node">
<title>Node16</title>
<g id="a_Node000016"><a xlink:title=" ">
<polygon fill="#e0e0e0" stroke="#999999" points="1500,-77.5 1462.25,-77.5 1462.25,-56.75 1500,-56.75 1500,-77.5"/>
<text text-anchor="middle" x="1481.12" y="-64" font-family="Helvetica,sans-Serif" font-size="10.00">map</text>
</a>
</g>
</g>
<!-- Node10&#45;&gt;Node16 -->
<g id="edge15_Node000010_Node000016" class="edge">
<title>Node10&#45;&gt;Node16</title>
<g id="a_edge15_Node000010_Node000016"><a xlink:title=" ">
<path fill="none" stroke="#63b8ff" d="M1541.07,-113.09C1530.49,-105.15 1515.33,-93.78 1502.91,-84.46"/>
<polygon fill="#63b8ff" stroke="#63b8ff" points="1505.37,-81.94 1495.27,-78.74 1501.17,-87.54 1505.37,-81.94"/>
</a>
</g>
</g>
<!-- Node17 -->
<g id="Node000017" class="node">
<title>Node17</title>
<g id="a_Node000017"><a xlink:title=" ">
<polygon fill="#e0e0e0" stroke="#999999" points="1564.5,-77.5 1517.75,-77.5 1517.75,-56.75 1564.5,-56.75 1564.5,-77.5"/>
<text text-anchor="middle" x="1541.12" y="-64" font-family="Helvetica,sans-Serif" font-size="10.00">vector</text>
</a>
</g>
</g>
<!-- Node10&#45;&gt;Node17 -->
<g id="edge16_Node000010_Node000017" class="edge">
<title>Node10&#45;&gt;Node17</title>
<g id="a_edge16_Node000010_Node000017"><a xlink:title=" ">
<path fill="none" stroke="#63b8ff" d="M1551.8,-113.09C1550.21,-106.39 1548.04,-97.26 1546.08,-88.98"/>
<polygon fill="#63b8ff" stroke="#63b8ff" points="1549.49,-88.22 1543.78,-79.3 1542.68,-89.84 1549.49,-88.22"/>
</a>
</g>
</g>
<!-- Node18 -->
<g id="Node000018" class="node">
<title>Node18</title>
<g id="a_Node000018"><a xlink:title=" ">
<polygon fill="#e0e0e0" stroke="#999999" points="1621.75,-77.5 1582.5,-77.5 1582.5,-56.75 1621.75,-56.75 1621.75,-77.5"/>
<text text-anchor="middle" x="1602.12" y="-64" font-family="Helvetica,sans-Serif" font-size="10.00">span</text>
</a>
</g>
</g>
<!-- Node10&#45;&gt;Node18 -->
<g id="edge17_Node000010_Node000018" class="edge">
<title>Node10&#45;&gt;Node18</title>
<g id="a_edge17_Node000010_Node000018"><a xlink:title=" ">
<path fill="none" stroke="#63b8ff" d="M1562.71,-113.09C1569.19,-105.69 1578.28,-95.32 1586.1,-86.41"/>
<polygon fill="#63b8ff" stroke="#63b8ff" points="1588.66,-88.79 1592.62,-78.97 1583.4,-84.18 1588.66,-88.79"/>
</a>
</g>
</g>
<!-- Node19 -->
<g id="Node000019" class="node">
<title>Node19</title>
<g id="a_Node000019"><a xlink:title=" ">
<polygon fill="#e0e0e0" stroke="#999999" points="1692.5,-77.5 1639.75,-77.5 1639.75,-56.75 1692.5,-56.75 1692.5,-77.5"/>
<text text-anchor="middle" x="1666.12" y="-64" font-family="Helvetica,sans-Serif" font-size="10.00">stdint.h</text>
</a>
</g>
</g>
<!-- Node10&#45;&gt;Node19 -->
<g id="edge18_Node000010_Node000019" class="edge">
<title>Node10&#45;&gt;Node19</title>
<g id="a_edge18_Node000010_Node000019"><a xlink:title=" ">
<path fill="none" stroke="#63b8ff" d="M1574.15,-113.09C1591.35,-104.68 1616.4,-92.43 1636.02,-82.84"/>
<polygon fill="#63b8ff" stroke="#63b8ff" points="1637.47,-86.03 1644.92,-78.49 1634.39,-79.74 1637.47,-86.03"/>
</a>
</g>
</g>
<!-- Node24&#45;&gt;Node9 -->
<g id="edge52_Node000024_Node000009" class="edge">
<title>Node24&#45;&gt;Node9</title>
<g id="a_edge52_Node000024_Node000009"><a xlink:title=" ">
<path fill="none" stroke="#63b8ff" d="M1267.5,-232.93C1279.17,-223.66 1296.92,-209.58 1310.86,-198.51"/>
<polygon fill="#63b8ff" stroke="#63b8ff" points="1312.94,-201.32 1318.6,-192.36 1308.59,-195.84 1312.94,-201.32"/>
</a>
</g>
</g>
<!-- Node25 -->
<g id="Node000025" class="node">
<title>Node25</title>
<g id="a_Node000025"><a xlink:href="error_8hh.html" target="_top" xlink:title="This file defines two main structs/classes used in nix error handling.">
<polygon fill="white" stroke="#666666" points="886.75,-191 787.5,-191 787.5,-170.25 886.75,-170.25 886.75,-191"/>
<text text-anchor="middle" x="837.12" y="-177.5" font-family="Helvetica,sans-Serif" font-size="10.00">lix/libutil/error.hh</text>
</a>
</g>
</g>
<!-- Node24&#45;&gt;Node25 -->
<g id="edge27_Node000024_Node000025" class="edge">
<title>Node24&#45;&gt;Node25</title>
<g id="a_edge27_Node000024_Node000025"><a xlink:title=" ">
<path fill="none" stroke="#63b8ff" d="M1187.97,-232.93C1107.9,-221.22 975.25,-201.82 898.04,-190.53"/>
<polygon fill="#63b8ff" stroke="#63b8ff" points="898.96,-187.13 888.56,-189.15 897.95,-194.06 898.96,-187.13"/>
</a>
</g>
</g>
<!-- Node25&#45;&gt;Node5 -->
<g id="edge45_Node000025_Node000005" class="edge">
<title>Node25&#45;&gt;Node5</title>
<g id="a_edge45_Node000025_Node000005"><a xlink:title=" ">
<path fill="none" stroke="#63b8ff" d="M887.19,-172.15C942.41,-163.73 1033.83,-149.24 1112.12,-134.25 1113.11,-134.06 1114.11,-133.87 1115.11,-133.67"/>
<polygon fill="#63b8ff" stroke="#63b8ff" points="1115.45,-137.17 1124.54,-131.74 1114.04,-130.32 1115.45,-137.17"/>
</a>
</g>
</g>
<!-- Node25&#45;&gt;Node8 -->
<g id="edge51_Node000025_Node000008" class="edge">
<title>Node25&#45;&gt;Node8</title>
<g id="a_edge51_Node000025_Node000008"><a xlink:title=" ">
<path fill="none" stroke="#63b8ff" d="M787.29,-179.11C690.27,-177.32 480.11,-169.38 418.12,-134.25 399.59,-123.74 385.77,-103.27 377.41,-87.87"/>
<polygon fill="#63b8ff" stroke="#63b8ff" points="380.62,-86.47 372.98,-79.13 374.37,-89.63 380.62,-86.47"/>
</a>
</g>
</g>
<!-- Node25&#45;&gt;Node11 -->
<g id="edge44_Node000025_Node000011" class="edge">
<title>Node25&#45;&gt;Node11</title>
<g id="a_edge44_Node000025_Node000011"><a xlink:title=" ">
<path fill="none" stroke="#63b8ff" d="M886.94,-174.5C936.25,-168.44 1013.4,-156.27 1077.12,-134.25 1096.05,-127.71 1098.05,-119.61 1117.12,-113.5 1224.86,-78.96 1257.57,-96.35 1369.12,-77.5 1375.91,-76.35 1383.2,-74.99 1390.01,-73.67"/>
<polygon fill="#63b8ff" stroke="#63b8ff" points="1390.55,-77.13 1399.68,-71.75 1389.19,-70.27 1390.55,-77.13"/>
</a>
</g>
</g>
<!-- Node25&#45;&gt;Node12 -->
<g id="edge46_Node000025_Node000012" class="edge">
<title>Node25&#45;&gt;Node12</title>
<g id="a_edge46_Node000025_Node000012"><a xlink:title=" ">
<path fill="none" stroke="#63b8ff" d="M887.06,-171.84C928.92,-164.53 989.88,-152.04 1041.12,-134.25 1061.17,-127.29 1063.95,-120.08 1084.12,-113.5 1122.26,-101.06 1232.91,-83.18 1292.69,-74.02"/>
<polygon fill="#63b8ff" stroke="#63b8ff" points="1293.08,-77.5 1302.44,-72.53 1292.03,-70.58 1293.08,-77.5"/>
</a>
</g>
</g>
<!-- Node26 -->
<g id="Node000026" class="node">
<title>Node26</title>
<g id="a_Node000026"><a xlink:href="json-fwd_8hh_source.html" target="_top" xlink:title=" ">
<polygon fill="white" stroke="#666666" points="545.12,-134.25 427.12,-134.25 427.12,-113.5 545.12,-113.5 545.12,-134.25"/>
<text text-anchor="middle" x="486.12" y="-120.75" font-family="Helvetica,sans-Serif" font-size="10.00">lix/libutil/json&#45;fwd.hh</text>
</a>
</g>
</g>
<!-- Node25&#45;&gt;Node26 -->
<g id="edge28_Node000025_Node000026" class="edge">
<title>Node25&#45;&gt;Node26</title>
<g id="a_edge28_Node000025_Node000026"><a xlink:title=" ">
<path fill="none" stroke="#63b8ff" d="M787.21,-171.84C726.88,-162.43 624.97,-146.53 556.64,-135.87"/>
<polygon fill="#63b8ff" stroke="#63b8ff" points="557.47,-132.46 547.05,-134.38 556.39,-139.38 557.47,-132.46"/>
</a>
</g>
</g>
<!-- Node28 -->
<g id="Node000028" class="node">
<title>Node28</title>
<g id="a_Node000028"><a xlink:href="suggestions_8hh.html" target="_top" xlink:title=" ">
<polygon fill="white" stroke="#666666" points="698.75,-134.25 563.5,-134.25 563.5,-113.5 698.75,-113.5 698.75,-134.25"/>
<text text-anchor="middle" x="631.12" y="-120.75" font-family="Helvetica,sans-Serif" font-size="10.00">lix/libutil/suggestions.hh</text>
</a>
</g>
</g>
<!-- Node25&#45;&gt;Node28 -->
<g id="edge31_Node000025_Node000028" class="edge">
<title>Node25&#45;&gt;Node28</title>
<g id="a_edge31_Node000025_Node000028"><a xlink:title=" ">
<path fill="none" stroke="#63b8ff" d="M800.3,-169.84C766.42,-160.83 715.98,-147.43 679,-137.6"/>
<polygon fill="#63b8ff" stroke="#63b8ff" points="680.01,-134.25 669.44,-135.06 678.21,-141.01 680.01,-134.25"/>
</a>
</g>
</g>
<!-- Node31 -->
<g id="Node000031" class="node">
<title>Node31</title>
<g id="a_Node000031"><a xlink:href="libutil_2fmt_8hh.html" target="_top" xlink:title=" ">
<polygon fill="white" stroke="#666666" points="265.12,-134.25 171.12,-134.25 171.12,-113.5 265.12,-113.5 265.12,-134.25"/>
<text text-anchor="middle" x="218.12" y="-120.75" font-family="Helvetica,sans-Serif" font-size="10.00">lix/libutil/fmt.hh</text>
</a>
</g>
</g>
<!-- Node25&#45;&gt;Node31 -->
<g id="edge38_Node000025_Node000031" class="edge">
<title>Node25&#45;&gt;Node31</title>
<g id="a_edge38_Node000025_Node000031"><a xlink:title=" ">
<path fill="none" stroke="#63b8ff" d="M787.16,-175.53C693.8,-167.82 486.57,-150.49 312.12,-134.25 300.73,-133.19 288.57,-132.01 276.91,-130.86"/>
<polygon fill="#63b8ff" stroke="#63b8ff" points="277.25,-127.38 266.96,-129.87 276.56,-134.34 277.25,-127.38"/>
</a>
</g>
</g>
<!-- Node35 -->
<g id="Node000035" class="node">
<title>Node35</title>
<g id="a_Node000035"><a xlink:title=" ">
<polygon fill="#e0e0e0" stroke="#999999" points="370.62,-134.25 321.62,-134.25 321.62,-113.5 370.62,-113.5 370.62,-134.25"/>
<text text-anchor="middle" x="346.12" y="-120.75" font-family="Helvetica,sans-Serif" font-size="10.00">cstring</text>
</a>
</g>
</g>
<!-- Node25&#45;&gt;Node35 -->
<g id="edge43_Node000025_Node000035" class="edge">
<title>Node25&#45;&gt;Node35</title>
<g id="a_edge43_Node000025_Node000035"><a xlink:title=" ">
<path fill="none" stroke="#63b8ff" d="M787.34,-176.85C703.76,-171.68 530.14,-158.84 385.12,-134.25 384.1,-134.08 383.07,-133.89 382.03,-133.7"/>
<polygon fill="#63b8ff" stroke="#63b8ff" points="382.77,-130.28 372.26,-131.65 381.33,-137.13 382.77,-130.28"/>
</a>
</g>
</g>
<!-- Node36 -->
<g id="Node000036" class="node">
<title>Node36</title>
<g id="a_Node000036"><a xlink:title=" ">
<polygon fill="#e0e0e0" stroke="#999999" points="787.88,-134.25 716.38,-134.25 716.38,-113.5 787.88,-113.5 787.88,-134.25"/>
<text text-anchor="middle" x="752.12" y="-120.75" font-family="Helvetica,sans-Serif" font-size="10.00">sys/types.h</text>
</a>
</g>
</g>
<!-- Node25&#45;&gt;Node36 -->
<g id="edge47_Node000025_Node000036" class="edge">
<title>Node25&#45;&gt;Node36</title>
<g id="a_edge47_Node000025_Node000036"><a xlink:title=" ">
<path fill="none" stroke="#63b8ff" d="M821.93,-169.84C809.36,-161.74 791.26,-150.08 776.64,-140.67"/>
<polygon fill="#63b8ff" stroke="#63b8ff" points="778.76,-137.87 768.46,-135.4 774.97,-143.76 778.76,-137.87"/>
</a>
</g>
</g>
<!-- Node37 -->
<g id="Node000037" class="node">
<title>Node37</title>
<g id="a_Node000037"><a xlink:title=" ">
<polygon fill="#e0e0e0" stroke="#999999" points="868.75,-134.25 805.5,-134.25 805.5,-113.5 868.75,-113.5 868.75,-134.25"/>
<text text-anchor="middle" x="837.12" y="-120.75" font-family="Helvetica,sans-Serif" font-size="10.00">sys/stat.h</text>
</a>
</g>
</g>
<!-- Node25&#45;&gt;Node37 -->
<g id="edge48_Node000025_Node000037" class="edge">
<title>Node25&#45;&gt;Node37</title>
<g id="a_edge48_Node000025_Node000037"><a xlink:title=" ">
<path fill="none" stroke="#63b8ff" d="M837.12,-169.84C837.12,-163.22 837.12,-154.22 837.12,-146.02"/>
<polygon fill="#63b8ff" stroke="#63b8ff" points="840.63,-146.09 837.13,-136.09 833.63,-146.09 840.63,-146.09"/>
</a>
</g>
</g>
<!-- Node38 -->
<g id="Node000038" class="node">
<title>Node38</title>
<g id="a_Node000038"><a xlink:title=" ">
<polygon fill="#e0e0e0" stroke="#999999" points="933.5,-134.25 886.75,-134.25 886.75,-113.5 933.5,-113.5 933.5,-134.25"/>
<text text-anchor="middle" x="910.12" y="-120.75" font-family="Helvetica,sans-Serif" font-size="10.00">fcntl.h</text>
</a>
</g>
</g>
<!-- Node25&#45;&gt;Node38 -->
<g id="edge49_Node000025_Node000038" class="edge">
<title>Node25&#45;&gt;Node38</title>
<g id="a_edge49_Node000025_Node000038"><a xlink:title=" ">
<path fill="none" stroke="#63b8ff" d="M850.18,-169.84C860.76,-161.9 875.92,-150.53 888.34,-141.21"/>
<polygon fill="#63b8ff" stroke="#63b8ff" points="890.08,-144.29 895.98,-135.49 885.88,-138.69 890.08,-144.29"/>
</a>
</g>
</g>
<!-- Node39 -->
<g id="Node000039" class="node">
<title>Node39</title>
<g id="a_Node000039"><a xlink:title=" ">
<polygon fill="#e0e0e0" stroke="#999999" points="1032.38,-134.25 951.88,-134.25 951.88,-113.5 1032.38,-113.5 1032.38,-134.25"/>
<text text-anchor="middle" x="992.12" y="-120.75" font-family="Helvetica,sans-Serif" font-size="10.00">system_error</text>
</a>
</g>
</g>
<!-- Node25&#45;&gt;Node39 -->
<g id="edge50_Node000025_Node000039" class="edge">
<title>Node25&#45;&gt;Node39</title>
<g id="a_edge50_Node000025_Node000039"><a xlink:title=" ">
<path fill="none" stroke="#63b8ff" d="M864.84,-169.84C889.56,-161.11 926,-148.23 953.56,-138.5"/>
<polygon fill="#63b8ff" stroke="#63b8ff" points="954.7,-141.81 962.97,-135.17 952.37,-135.21 954.7,-141.81"/>
</a>
</g>
</g>
<!-- Node26&#45;&gt;Node8 -->
<g id="edge30_Node000026_Node000008" class="edge">
<title>Node26&#45;&gt;Node8</title>
<g id="a_edge30_Node000026_Node000008"><a xlink:title=" ">
<path fill="none" stroke="#63b8ff" d="M465.03,-113.09C446.74,-104.6 420.02,-92.2 399.27,-82.58"/>
<polygon fill="#63b8ff" stroke="#63b8ff" points="400.96,-79.5 390.41,-78.47 398.01,-85.85 400.96,-79.5"/>
</a>
</g>
</g>
<!-- Node27 -->
<g id="Node000027" class="node">
<title>Node27</title>
<g id="a_Node000027"><a xlink:title=" ">
<polygon fill="#e0e0e0" stroke="#999999" points="551.88,-77.5 420.38,-77.5 420.38,-56.75 551.88,-56.75 551.88,-77.5"/>
<text text-anchor="middle" x="486.12" y="-64" font-family="Helvetica,sans-Serif" font-size="10.00">nlohmann/json_fwd.hpp</text>
</a>
</g>
</g>
<!-- Node26&#45;&gt;Node27 -->
<g id="edge29_Node000026_Node000027" class="edge">
<title>Node26&#45;&gt;Node27</title>
<g id="a_edge29_Node000026_Node000027"><a xlink:title=" ">
<path fill="none" stroke="#63b8ff" d="M486.12,-113.09C486.12,-106.47 486.12,-97.47 486.12,-89.27"/>
<polygon fill="#63b8ff" stroke="#63b8ff" points="489.63,-89.34 486.13,-79.34 482.63,-89.34 489.63,-89.34"/>
</a>
</g>
</g>
<!-- Node28&#45;&gt;Node13 -->
<g id="edge34_Node000028_Node000013" class="edge">
<title>Node28&#45;&gt;Node13</title>
<g id="a_edge34_Node000028_Node000013"><a xlink:title=" ">
<path fill="none" stroke="#63b8ff" d="M699.1,-114.26C795.96,-101.98 969.33,-80.01 1035.99,-71.56"/>
<polygon fill="#63b8ff" stroke="#63b8ff" points="1036.17,-75.07 1045.65,-70.34 1035.29,-68.13 1036.17,-75.07"/>
</a>
</g>
</g>
<!-- Node28&#45;&gt;Node14 -->
<g id="edge36_Node000028_Node000014" class="edge">
<title>Node28&#45;&gt;Node14</title>
<g id="a_edge36_Node000028_Node000014"><a xlink:title=" ">
<path fill="none" stroke="#63b8ff" d="M650.97,-113.09C668.02,-104.68 692.85,-92.43 712.29,-82.84"/>
<polygon fill="#63b8ff" stroke="#63b8ff" points="713.67,-86.06 721.09,-78.5 710.58,-79.78 713.67,-86.06"/>
</a>
</g>
</g>
<!-- Node28&#45;&gt;Node15 -->
<g id="edge35_Node000028_Node000015" class="edge">
<title>Node28&#45;&gt;Node15</title>
<g id="a_edge35_Node000028_Node000015"><a xlink:title=" ">
<path fill="none" stroke="#63b8ff" d="M699.07,-114.38C701.79,-114.08 704.48,-113.78 707.12,-113.5 874.54,-95.64 1073.75,-79.09 1163.33,-71.9"/>
<polygon fill="#63b8ff" stroke="#63b8ff" points="1163.52,-75.4 1173.21,-71.11 1162.96,-68.42 1163.52,-75.4"/>
</a>
</g>
</g>
<!-- Node28&#45;&gt;Node23 -->
<g id="edge37_Node000028_Node000023" class="edge">
<title>Node28&#45;&gt;Node23</title>
<g id="a_edge37_Node000028_Node000023"><a xlink:title=" ">
<path fill="none" stroke="#63b8ff" d="M669.74,-113.09C709.64,-102.97 771.44,-87.31 810.56,-77.39"/>
<polygon fill="#63b8ff" stroke="#63b8ff" points="811.38,-80.8 820.21,-74.95 809.66,-74.01 811.38,-80.8"/>
</a>
</g>
</g>
<!-- Node29 -->
<g id="Node000029" class="node">
<title>Node29</title>
<g id="a_Node000029"><a xlink:href="comparator_8hh.html" target="_top" xlink:title=" ">
<polygon fill="white" stroke="#666666" points="702.25,-77.5 570,-77.5 570,-56.75 702.25,-56.75 702.25,-77.5"/>
<text text-anchor="middle" x="636.12" y="-64" font-family="Helvetica,sans-Serif" font-size="10.00">lix/libutil/comparator.hh</text>
</a>
</g>
</g>
<!-- Node28&#45;&gt;Node29 -->
<g id="edge32_Node000028_Node000029" class="edge">
<title>Node28&#45;&gt;Node29</title>
<g id="a_edge32_Node000028_Node000029"><a xlink:title=" ">
<path fill="none" stroke="#63b8ff" d="M632.02,-113.09C632.62,-106.47 633.44,-97.47 634.19,-89.27"/>
<polygon fill="#63b8ff" stroke="#63b8ff" points="637.68,-89.61 635.1,-79.34 630.71,-88.98 637.68,-89.61"/>
</a>
</g>
</g>
<!-- Node30 -->
<g id="Node000030" class="node">
<title>Node30</title>
<g id="a_Node000030"><a xlink:title=" ">
<polygon fill="#e0e0e0" stroke="#999999" points="656.5,-20.75 615.75,-20.75 615.75,0 656.5,0 656.5,-20.75"/>
<text text-anchor="middle" x="636.12" y="-7.25" font-family="Helvetica,sans-Serif" font-size="10.00">tuple</text>
</a>
</g>
</g>
<!-- Node29&#45;&gt;Node30 -->
<g id="edge33_Node000029_Node000030" class="edge">
<title>Node29&#45;&gt;Node30</title>
<g id="a_edge33_Node000029_Node000030"><a xlink:title=" ">
<path fill="none" stroke="#63b8ff" d="M636.12,-56.34C636.12,-49.72 636.12,-40.72 636.12,-32.52"/>
<polygon fill="#63b8ff" stroke="#63b8ff" points="639.63,-32.59 636.13,-22.59 632.63,-32.59 639.63,-32.59"/>
</a>
</g>
</g>
<!-- Node31&#45;&gt;Node14 -->
<g id="edge40_Node000031_Node000014" class="edge">
<title>Node31&#45;&gt;Node14</title>
<g id="a_edge40_Node000031_Node000014"><a xlink:title=" ">
<path fill="none" stroke="#63b8ff" d="M265.45,-118.07C280.38,-116.57 296.94,-114.94 312.12,-113.5 485.75,-97.01 534.36,-110.85 708.79,-77.59"/>
<polygon fill="#63b8ff" stroke="#63b8ff" points="709.27,-81.06 718.42,-75.72 707.94,-74.19 709.27,-81.06"/>
</a>
</g>
</g>
<!-- Node32 -->
<g id="Node000032" class="node">
<title>Node32</title>
<g id="a_Node000032"><a xlink:title=" ">
<polygon fill="#e0e0e0" stroke="#999999" points="197.88,-77.5 138.38,-77.5 138.38,-56.75 197.88,-56.75 197.88,-77.5"/>
<text text-anchor="middle" x="168.12" y="-64" font-family="Helvetica,sans-Serif" font-size="10.00">iostream</text>
</a>
</g>
</g>
<!-- Node31&#45;&gt;Node32 -->
<g id="edge39_Node000031_Node000032" class="edge">
<title>Node31&#45;&gt;Node32</title>
<g id="a_edge39_Node000031_Node000032"><a xlink:title=" ">
<path fill="none" stroke="#63b8ff" d="M209.19,-113.09C202.36,-105.61 192.76,-95.11 184.57,-86.13"/>
<polygon fill="#63b8ff" stroke="#63b8ff" points="187.34,-83.97 178.01,-78.95 182.17,-88.69 187.34,-83.97"/>
</a>
</g>
</g>
<!-- Node33 -->
<g id="Node000033" class="node">
<title>Node33</title>
<g id="a_Node000033"><a xlink:title=" ">
<polygon fill="#e0e0e0" stroke="#999999" points="316.12,-77.5 216.12,-77.5 216.12,-56.75 316.12,-56.75 316.12,-77.5"/>
<text text-anchor="middle" x="266.12" y="-64" font-family="Helvetica,sans-Serif" font-size="10.00">boost/format.hpp</text>
</a>
</g>
</g>
<!-- Node31&#45;&gt;Node33 -->
<g id="edge41_Node000031_Node000033" class="edge">
<title>Node31&#45;&gt;Node33</title>
<g id="a_edge41_Node000031_Node000033"><a xlink:title=" ">
<path fill="none" stroke="#63b8ff" d="M226.71,-113.09C233.19,-105.69 242.28,-95.32 250.1,-86.41"/>
<polygon fill="#63b8ff" stroke="#63b8ff" points="252.66,-88.79 256.62,-78.97 247.4,-84.18 252.66,-88.79"/>
</a>
</g>
</g>
<!-- Node34 -->
<g id="Node000034" class="node">
<title>Node34</title>
<g id="a_Node000034"><a xlink:href="ansicolor_8hh.html" target="_top" xlink:title="Some ANSI escape sequences.">
<polygon fill="white" stroke="#666666" points="120.25,-77.5 0,-77.5 0,-56.75 120.25,-56.75 120.25,-77.5"/>
<text text-anchor="middle" x="60.12" y="-64" font-family="Helvetica,sans-Serif" font-size="10.00">lix/libutil/ansicolor.hh</text>
</a>
</g>
</g>
<!-- Node31&#45;&gt;Node34 -->
<g id="edge42_Node000031_Node000034" class="edge">
<title>Node31&#45;&gt;Node34</title>
<g id="a_edge42_Node000031_Node000034"><a xlink:title=" ">
<path fill="none" stroke="#63b8ff" d="M189.88,-113.09C164.57,-104.32 127.2,-91.37 99.06,-81.62"/>
<polygon fill="#63b8ff" stroke="#63b8ff" points="100.42,-78.38 89.82,-78.42 98.13,-85 100.42,-78.38"/>
</a>
</g>
</g>
<!-- Node40&#45;&gt;Node4 -->
<g id="edge55_Node000040_Node000004" class="edge">
<title>Node40&#45;&gt;Node4</title>
<g id="a_edge55_Node000040_Node000004"><a xlink:title=" ">
<path fill="none" stroke="#63b8ff" d="M1409.32,-352.78C1385.75,-343.18 1356.18,-331.13 1333.61,-321.93"/>
<polygon fill="#63b8ff" stroke="#63b8ff" points="1335.13,-318.77 1324.55,-318.24 1332.49,-325.25 1335.13,-318.77"/>
</a>
</g>
</g>
<!-- Node40&#45;&gt;Node10 -->
<g id="edge54_Node000040_Node000010" class="edge">
<title>Node40&#45;&gt;Node10</title>
<g id="a_edge54_Node000040_Node000010"><a xlink:title=" ">
<path fill="none" stroke="#63b8ff" d="M1456.01,-352.98C1474.48,-310.05 1525.05,-192.47 1545.44,-145.07"/>
<polygon fill="#63b8ff" stroke="#63b8ff" points="1548.6,-146.58 1549.33,-136.01 1542.17,-143.82 1548.6,-146.58"/>
</a>
</g>
</g>
</g>
</svg>
