<?xml version="1.0" encoding="UTF-8" standalone="no"?>
<!DOCTYPE svg PUBLIC "-//W3C//DTD SVG 1.1//EN"
 "http://www.w3.org/Graphics/SVG/1.1/DTD/svg11.dtd">
<!-- Generated by graphviz version 12.2.1 (0)
 -->
<!-- Title: lix/libutil/shlex.hh Pages: 1 -->
<svg width="1288pt" height="256pt"
 viewBox="0.00 0.00 1288.07 255.75" xmlns="http://www.w3.org/2000/svg" xmlns:xlink="http://www.w3.org/1999/xlink">
<g id="graph0" class="graph" transform="scale(1 1) rotate(0) translate(4 251.75)">
<title>lix/libutil/shlex.hh</title>
<!-- Node1 -->
<g id="Node000001" class="node">
<title>Node1</title>
<g id="a_Node000001"><a xlink:title=" ">
<polygon fill="#999999" stroke="#666666" points="727.07,-247.75 624.07,-247.75 624.07,-227 727.07,-227 727.07,-247.75"/>
<text text-anchor="middle" x="675.57" y="-234.25" font-family="Helvetica,sans-Serif" font-size="10.00">lix/libutil/shlex.hh</text>
</a>
</g>
</g>
<!-- Node2 -->
<g id="Node000002" class="node">
<title>Node2</title>
<g id="a_Node000002"><a xlink:title=" ">
<polygon fill="#e0e0e0" stroke="#999999" points="372.45,-191 328.7,-191 328.7,-170.25 372.45,-170.25 372.45,-191"/>
<text text-anchor="middle" x="350.57" y="-177.5" font-family="Helvetica,sans-Serif" font-size="10.00">regex</text>
</a>
</g>
</g>
<!-- Node1&#45;&gt;Node2 -->
<g id="edge1_Node000001_Node000002" class="edge">
<title>Node1&#45;&gt;Node2</title>
<g id="a_edge1_Node000001_Node000002"><a xlink:title=" ">
<path fill="none" stroke="#63b8ff" d="M623.64,-230.6C566.94,-223.8 473.3,-211.12 383.98,-191.28"/>
<polygon fill="#63b8ff" stroke="#63b8ff" points="384.83,-187.89 374.3,-189.1 383.28,-194.71 384.83,-187.89"/>
</a>
</g>
</g>
<!-- Node3 -->
<g id="Node000003" class="node">
<title>Node3</title>
<g id="a_Node000003"><a xlink:title=" ">
<polygon fill="#e0e0e0" stroke="#999999" points="922.45,-77.5 878.7,-77.5 878.7,-56.75 922.45,-56.75 922.45,-77.5"/>
<text text-anchor="middle" x="900.57" y="-64" font-family="Helvetica,sans-Serif" font-size="10.00">string</text>
</a>
</g>
</g>
<!-- Node1&#45;&gt;Node3 -->
<g id="edge2_Node000001_Node000003" class="edge">
<title>Node1&#45;&gt;Node3</title>
<g id="a_edge2_Node000001_Node000003"><a xlink:title=" ">
<path fill="none" stroke="#63b8ff" d="M701.07,-226.53C738.45,-211.17 808.87,-178.58 856.57,-134.25 870.92,-120.92 882.89,-102.03 890.71,-87.85"/>
<polygon fill="#63b8ff" stroke="#63b8ff" points="893.79,-89.5 895.35,-79.02 887.6,-86.24 893.79,-89.5"/>
</a>
</g>
</g>
<!-- Node4 -->
<g id="Node000004" class="node">
<title>Node4</title>
<g id="a_Node000004"><a xlink:title=" ">
<polygon fill="#e0e0e0" stroke="#999999" points="949.95,-191 903.2,-191 903.2,-170.25 949.95,-170.25 949.95,-191"/>
<text text-anchor="middle" x="926.57" y="-177.5" font-family="Helvetica,sans-Serif" font-size="10.00">vector</text>
</a>
</g>
</g>
<!-- Node1&#45;&gt;Node4 -->
<g id="edge3_Node000001_Node000004" class="edge">
<title>Node1&#45;&gt;Node4</title>
<g id="a_edge3_Node000001_Node000004"><a xlink:title=" ">
<path fill="none" stroke="#63b8ff" d="M724.57,-226.56C768.02,-217.71 833.16,-204.12 889.57,-191 890.24,-190.85 890.91,-190.69 891.59,-190.53"/>
<polygon fill="#63b8ff" stroke="#63b8ff" points="892.37,-193.94 901.25,-188.17 890.71,-187.14 892.37,-193.94"/>
</a>
</g>
</g>
<!-- Node5 -->
<g id="Node000005" class="node">
<title>Node5</title>
<g id="a_Node000005"><a xlink:href="error_8hh.html" target="_top" xlink:title="This file defines two main structs/classes used in nix error handling.">
<polygon fill="white" stroke="#666666" points="490.2,-191 390.95,-191 390.95,-170.25 490.2,-170.25 490.2,-191"/>
<text text-anchor="middle" x="440.57" y="-177.5" font-family="Helvetica,sans-Serif" font-size="10.00">lix/libutil/error.hh</text>
</a>
</g>
</g>
<!-- Node1&#45;&gt;Node5 -->
<g id="edge4_Node000001_Node000005" class="edge">
<title>Node1&#45;&gt;Node5</title>
<g id="a_edge4_Node000001_Node000005"><a xlink:title=" ">
<path fill="none" stroke="#63b8ff" d="M633.29,-226.52C594.31,-217.44 536.29,-203.92 494.09,-194.09"/>
<polygon fill="#63b8ff" stroke="#63b8ff" points="494.92,-190.69 484.39,-191.83 493.33,-197.51 494.92,-190.69"/>
</a>
</g>
</g>
<!-- Node6 -->
<g id="Node000006" class="node">
<title>Node6</title>
<g id="a_Node000006"><a xlink:href="json-fwd_8hh_source.html" target="_top" xlink:title=" ">
<polygon fill="white" stroke="#666666" points="735.57,-134.25 617.57,-134.25 617.57,-113.5 735.57,-113.5 735.57,-134.25"/>
<text text-anchor="middle" x="676.57" y="-120.75" font-family="Helvetica,sans-Serif" font-size="10.00">lix/libutil/json&#45;fwd.hh</text>
</a>
</g>
</g>
<!-- Node5&#45;&gt;Node6 -->
<g id="edge5_Node000005_Node000006" class="edge">
<title>Node5&#45;&gt;Node6</title>
<g id="a_edge5_Node000005_Node000006"><a xlink:title=" ">
<path fill="none" stroke="#63b8ff" d="M483.04,-169.77C522.27,-160.67 580.7,-147.12 623.1,-137.28"/>
<polygon fill="#63b8ff" stroke="#63b8ff" points="623.63,-140.75 632.58,-135.08 622.05,-133.93 623.63,-140.75"/>
</a>
</g>
</g>
<!-- Node8 -->
<g id="Node000008" class="node">
<title>Node8</title>
<g id="a_Node000008"><a xlink:title=" ">
<polygon fill="#e0e0e0" stroke="#999999" points="200.82,-77.5 132.32,-77.5 132.32,-56.75 200.82,-56.75 200.82,-77.5"/>
<text text-anchor="middle" x="166.57" y="-64" font-family="Helvetica,sans-Serif" font-size="10.00">type_traits</text>
</a>
</g>
</g>
<!-- Node5&#45;&gt;Node8 -->
<g id="edge28_Node000005_Node000008" class="edge">
<title>Node5&#45;&gt;Node8</title>
<g id="a_edge28_Node000005_Node000008"><a xlink:title=" ">
<path fill="none" stroke="#63b8ff" d="M390.71,-171.48C387.62,-171.05 384.56,-170.63 381.57,-170.25 340.27,-164.98 36.57,-165.07 8.57,-134.25 -26.85,-95.25 62.46,-78.56 120.8,-71.98"/>
<polygon fill="#63b8ff" stroke="#63b8ff" points="120.93,-75.48 130.5,-70.95 120.19,-68.52 120.93,-75.48"/>
</a>
</g>
</g>
<!-- Node9 -->
<g id="Node000009" class="node">
<title>Node9</title>
<g id="a_Node000009"><a xlink:href="suggestions_8hh.html" target="_top" xlink:title=" ">
<polygon fill="white" stroke="#666666" points="1084.2,-134.25 948.95,-134.25 948.95,-113.5 1084.2,-113.5 1084.2,-134.25"/>
<text text-anchor="middle" x="1016.57" y="-120.75" font-family="Helvetica,sans-Serif" font-size="10.00">lix/libutil/suggestions.hh</text>
</a>
</g>
</g>
<!-- Node5&#45;&gt;Node9 -->
<g id="edge8_Node000005_Node000009" class="edge">
<title>Node5&#45;&gt;Node9</title>
<g id="a_edge8_Node000005_Node000009"><a xlink:title=" ">
<path fill="none" stroke="#63b8ff" d="M490.68,-174.86C590.91,-165.34 816.78,-143.87 937.3,-132.41"/>
<polygon fill="#63b8ff" stroke="#63b8ff" points="937.49,-135.91 947.12,-131.48 936.83,-128.94 937.49,-135.91"/>
</a>
</g>
</g>
<!-- Node15 -->
<g id="Node000015" class="node">
<title>Node15</title>
<g id="a_Node000015"><a xlink:href="libutil_2fmt_8hh.html" target="_top" xlink:title=" ">
<polygon fill="white" stroke="#666666" points="847.57,-134.25 753.57,-134.25 753.57,-113.5 847.57,-113.5 847.57,-134.25"/>
<text text-anchor="middle" x="800.57" y="-120.75" font-family="Helvetica,sans-Serif" font-size="10.00">lix/libutil/fmt.hh</text>
</a>
</g>
</g>
<!-- Node5&#45;&gt;Node15 -->
<g id="edge15_Node000005_Node000015" class="edge">
<title>Node5&#45;&gt;Node15</title>
<g id="a_edge15_Node000005_Node000015"><a xlink:title=" ">
<path fill="none" stroke="#63b8ff" d="M490.64,-172.43C548.64,-164.03 647.36,-149.55 742.01,-134.64"/>
<polygon fill="#63b8ff" stroke="#63b8ff" points="742.4,-138.12 751.73,-133.1 741.31,-131.2 742.4,-138.12"/>
</a>
</g>
</g>
<!-- Node19 -->
<g id="Node000019" class="node">
<title>Node19</title>
<g id="a_Node000019"><a xlink:title=" ">
<polygon fill="#e0e0e0" stroke="#999999" points="67.07,-134.25 18.07,-134.25 18.07,-113.5 67.07,-113.5 67.07,-134.25"/>
<text text-anchor="middle" x="42.57" y="-120.75" font-family="Helvetica,sans-Serif" font-size="10.00">cstring</text>
</a>
</g>
</g>
<!-- Node5&#45;&gt;Node19 -->
<g id="edge20_Node000005_Node000019" class="edge">
<title>Node5&#45;&gt;Node19</title>
<g id="a_edge20_Node000005_Node000019"><a xlink:title=" ">
<path fill="none" stroke="#63b8ff" d="M390.7,-171.56C387.62,-171.1 384.55,-170.66 381.57,-170.25 249.5,-152 211.84,-160.56 78.39,-134.56"/>
<polygon fill="#63b8ff" stroke="#63b8ff" points="79.31,-131.17 68.82,-132.66 77.95,-138.04 79.31,-131.17"/>
</a>
</g>
</g>
<!-- Node20 -->
<g id="Node000020" class="node">
<title>Node20</title>
<g id="a_Node000020"><a xlink:title=" ">
<polygon fill="#e0e0e0" stroke="#999999" points="116.07,-134.25 85.07,-134.25 85.07,-113.5 116.07,-113.5 116.07,-134.25"/>
<text text-anchor="middle" x="100.57" y="-120.75" font-family="Helvetica,sans-Serif" font-size="10.00">list</text>
</a>
</g>
</g>
<!-- Node5&#45;&gt;Node20 -->
<g id="edge21_Node000005_Node000020" class="edge">
<title>Node5&#45;&gt;Node20</title>
<g id="a_edge21_Node000005_Node000020"><a xlink:title=" ">
<path fill="none" stroke="#63b8ff" d="M390.69,-171.63C387.61,-171.16 384.55,-170.69 381.57,-170.25 271.07,-153.73 238.2,-162.82 127.38,-134.52"/>
<polygon fill="#63b8ff" stroke="#63b8ff" points="128.43,-131.17 117.88,-132.04 126.67,-137.95 128.43,-131.17"/>
</a>
</g>
</g>
<!-- Node21 -->
<g id="Node000021" class="node">
<title>Node21</title>
<g id="a_Node000021"><a xlink:title=" ">
<polygon fill="#e0e0e0" stroke="#999999" points="191.2,-134.25 133.95,-134.25 133.95,-113.5 191.2,-113.5 191.2,-134.25"/>
<text text-anchor="middle" x="162.57" y="-120.75" font-family="Helvetica,sans-Serif" font-size="10.00">memory</text>
</a>
</g>
</g>
<!-- Node5&#45;&gt;Node21 -->
<g id="edge22_Node000005_Node000021" class="edge">
<title>Node5&#45;&gt;Node21</title>
<g id="a_edge22_Node000005_Node000021"><a xlink:title=" ">
<path fill="none" stroke="#63b8ff" d="M390.77,-171.03C344.49,-162.87 273.4,-149.85 202.5,-134.58"/>
<polygon fill="#63b8ff" stroke="#63b8ff" points="203.58,-131.23 193.06,-132.53 202.09,-138.07 203.58,-131.23"/>
</a>
</g>
</g>
<!-- Node22 -->
<g id="Node000022" class="node">
<title>Node22</title>
<g id="a_Node000022"><a xlink:title=" ">
<polygon fill="#e0e0e0" stroke="#999999" points="265.45,-134.25 209.7,-134.25 209.7,-113.5 265.45,-113.5 265.45,-134.25"/>
<text text-anchor="middle" x="237.57" y="-120.75" font-family="Helvetica,sans-Serif" font-size="10.00">optional</text>
</a>
</g>
</g>
<!-- Node5&#45;&gt;Node22 -->
<g id="edge23_Node000005_Node000022" class="edge">
<title>Node5&#45;&gt;Node22</title>
<g id="a_edge23_Node000005_Node000022"><a xlink:title=" ">
<path fill="none" stroke="#63b8ff" d="M404.28,-169.84C368.32,-160.14 313.41,-145.33 276.54,-135.38"/>
<polygon fill="#63b8ff" stroke="#63b8ff" points="277.74,-132.08 267.18,-132.86 275.92,-138.84 277.74,-132.08"/>
</a>
</g>
</g>
<!-- Node23 -->
<g id="Node000023" class="node">
<title>Node23</title>
<g id="a_Node000023"><a xlink:title=" ">
<polygon fill="#e0e0e0" stroke="#999999" points="355.32,-134.25 283.82,-134.25 283.82,-113.5 355.32,-113.5 355.32,-134.25"/>
<text text-anchor="middle" x="319.57" y="-120.75" font-family="Helvetica,sans-Serif" font-size="10.00">sys/types.h</text>
</a>
</g>
</g>
<!-- Node5&#45;&gt;Node23 -->
<g id="edge24_Node000005_Node000023" class="edge">
<title>Node5&#45;&gt;Node23</title>
<g id="a_edge24_Node000005_Node000023"><a xlink:title=" ">
<path fill="none" stroke="#63b8ff" d="M418.94,-169.84C400.1,-161.31 372.54,-148.84 351.22,-139.19"/>
<polygon fill="#63b8ff" stroke="#63b8ff" points="352.95,-136.14 342.4,-135.2 350.07,-142.51 352.95,-136.14"/>
</a>
</g>
</g>
<!-- Node24 -->
<g id="Node000024" class="node">
<title>Node24</title>
<g id="a_Node000024"><a xlink:title=" ">
<polygon fill="#e0e0e0" stroke="#999999" points="436.2,-134.25 372.95,-134.25 372.95,-113.5 436.2,-113.5 436.2,-134.25"/>
<text text-anchor="middle" x="404.57" y="-120.75" font-family="Helvetica,sans-Serif" font-size="10.00">sys/stat.h</text>
</a>
</g>
</g>
<!-- Node5&#45;&gt;Node24 -->
<g id="edge25_Node000005_Node000024" class="edge">
<title>Node5&#45;&gt;Node24</title>
<g id="a_edge25_Node000005_Node000024"><a xlink:title=" ">
<path fill="none" stroke="#63b8ff" d="M434.14,-169.84C429.43,-162.67 422.89,-152.73 417.15,-144.01"/>
<polygon fill="#63b8ff" stroke="#63b8ff" points="420.21,-142.28 411.79,-135.84 414.36,-146.12 420.21,-142.28"/>
</a>
</g>
</g>
<!-- Node25 -->
<g id="Node000025" class="node">
<title>Node25</title>
<g id="a_Node000025"><a xlink:title=" ">
<polygon fill="#e0e0e0" stroke="#999999" points="500.95,-134.25 454.2,-134.25 454.2,-113.5 500.95,-113.5 500.95,-134.25"/>
<text text-anchor="middle" x="477.57" y="-120.75" font-family="Helvetica,sans-Serif" font-size="10.00">fcntl.h</text>
</a>
</g>
</g>
<!-- Node5&#45;&gt;Node25 -->
<g id="edge26_Node000005_Node000025" class="edge">
<title>Node5&#45;&gt;Node25</title>
<g id="a_edge26_Node000005_Node000025"><a xlink:title=" ">
<path fill="none" stroke="#63b8ff" d="M447.19,-169.84C452.03,-162.67 458.75,-152.73 464.65,-144.01"/>
<polygon fill="#63b8ff" stroke="#63b8ff" points="467.47,-146.08 470.17,-135.83 461.67,-142.16 467.47,-146.08"/>
</a>
</g>
</g>
<!-- Node26 -->
<g id="Node000026" class="node">
<title>Node26</title>
<g id="a_Node000026"><a xlink:title=" ">
<polygon fill="#e0e0e0" stroke="#999999" points="599.82,-134.25 519.32,-134.25 519.32,-113.5 599.82,-113.5 599.82,-134.25"/>
<text text-anchor="middle" x="559.57" y="-120.75" font-family="Helvetica,sans-Serif" font-size="10.00">system_error</text>
</a>
</g>
</g>
<!-- Node5&#45;&gt;Node26 -->
<g id="edge27_Node000005_Node000026" class="edge">
<title>Node5&#45;&gt;Node26</title>
<g id="a_edge27_Node000005_Node000026"><a xlink:title=" ">
<path fill="none" stroke="#63b8ff" d="M461.85,-169.84C480.29,-161.35 507.24,-148.95 528.17,-139.33"/>
<polygon fill="#63b8ff" stroke="#63b8ff" points="529.49,-142.57 537.11,-135.21 526.56,-136.21 529.49,-142.57"/>
</a>
</g>
</g>
<!-- Node7 -->
<g id="Node000007" class="node">
<title>Node7</title>
<g id="a_Node000007"><a xlink:title=" ">
<polygon fill="#e0e0e0" stroke="#999999" points="526.32,-77.5 394.82,-77.5 394.82,-56.75 526.32,-56.75 526.32,-77.5"/>
<text text-anchor="middle" x="460.57" y="-64" font-family="Helvetica,sans-Serif" font-size="10.00">nlohmann/json_fwd.hpp</text>
</a>
</g>
</g>
<!-- Node6&#45;&gt;Node7 -->
<g id="edge6_Node000006_Node000007" class="edge">
<title>Node6&#45;&gt;Node7</title>
<g id="a_edge6_Node000006_Node000007"><a xlink:title=" ">
<path fill="none" stroke="#63b8ff" d="M637.96,-113.09C602.28,-104.04 549.1,-90.56 510.27,-80.72"/>
<polygon fill="#63b8ff" stroke="#63b8ff" points="511.24,-77.36 500.69,-78.29 509.52,-84.14 511.24,-77.36"/>
</a>
</g>
</g>
<!-- Node6&#45;&gt;Node8 -->
<g id="edge7_Node000006_Node000008" class="edge">
<title>Node6&#45;&gt;Node8</title>
<g id="a_edge7_Node000006_Node000008"><a xlink:title=" ">
<path fill="none" stroke="#63b8ff" d="M617.25,-114.57C614.32,-114.2 611.41,-113.84 608.57,-113.5 464.22,-96.14 292.84,-79.75 212.47,-72.31"/>
<polygon fill="#63b8ff" stroke="#63b8ff" points="213.08,-68.85 202.8,-71.41 212.43,-75.82 213.08,-68.85"/>
</a>
</g>
</g>
<!-- Node9&#45;&gt;Node3 -->
<g id="edge13_Node000009_Node000003" class="edge">
<title>Node9&#45;&gt;Node3</title>
<g id="a_edge13_Node000009_Node000003"><a xlink:title=" ">
<path fill="none" stroke="#63b8ff" d="M995.84,-113.09C977.94,-104.64 951.83,-92.32 931.47,-82.71"/>
<polygon fill="#63b8ff" stroke="#63b8ff" points="933.04,-79.58 922.5,-78.47 930.05,-85.91 933.04,-79.58"/>
</a>
</g>
</g>
<!-- Node10 -->
<g id="Node000010" class="node">
<title>Node10</title>
<g id="a_Node000010"><a xlink:href="comparator_8hh.html" target="_top" xlink:title=" ">
<polygon fill="white" stroke="#666666" points="1230.7,-77.5 1098.45,-77.5 1098.45,-56.75 1230.7,-56.75 1230.7,-77.5"/>
<text text-anchor="middle" x="1164.57" y="-64" font-family="Helvetica,sans-Serif" font-size="10.00">lix/libutil/comparator.hh</text>
</a>
</g>
</g>
<!-- Node9&#45;&gt;Node10 -->
<g id="edge9_Node000009_Node000010" class="edge">
<title>Node9&#45;&gt;Node10</title>
<g id="a_edge9_Node000009_Node000010"><a xlink:title=" ">
<path fill="none" stroke="#63b8ff" d="M1043.03,-113.09C1066.61,-104.37 1101.34,-91.52 1127.64,-81.79"/>
<polygon fill="#63b8ff" stroke="#63b8ff" points="1128.76,-85.11 1136.92,-78.35 1126.33,-78.54 1128.76,-85.11"/>
</a>
</g>
</g>
<!-- Node12 -->
<g id="Node000012" class="node">
<title>Node12</title>
<g id="a_Node000012"><a xlink:title=" ">
<polygon fill="#e0e0e0" stroke="#999999" points="1280.07,-77.5 1249.07,-77.5 1249.07,-56.75 1280.07,-56.75 1280.07,-77.5"/>
<text text-anchor="middle" x="1264.57" y="-64" font-family="Helvetica,sans-Serif" font-size="10.00">set</text>
</a>
</g>
</g>
<!-- Node9&#45;&gt;Node12 -->
<g id="edge11_Node000009_Node000012" class="edge">
<title>Node9&#45;&gt;Node12</title>
<g id="a_edge11_Node000009_Node000012"><a xlink:title=" ">
<path fill="none" stroke="#63b8ff" d="M1078.25,-113.03C1120.74,-105.63 1178.58,-94.36 1237.77,-77.64"/>
<polygon fill="#63b8ff" stroke="#63b8ff" points="1238.73,-81.01 1247.38,-74.88 1236.8,-74.28 1238.73,-81.01"/>
</a>
</g>
</g>
<!-- Node13 -->
<g id="Node000013" class="node">
<title>Node13</title>
<g id="a_Node000013"><a xlink:title=" ">
<polygon fill="#e0e0e0" stroke="#999999" points="1012.7,-77.5 940.45,-77.5 940.45,-56.75 1012.7,-56.75 1012.7,-77.5"/>
<text text-anchor="middle" x="976.57" y="-64" font-family="Helvetica,sans-Serif" font-size="10.00">string_view</text>
</a>
</g>
</g>
<!-- Node9&#45;&gt;Node13 -->
<g id="edge12_Node000009_Node000013" class="edge">
<title>Node9&#45;&gt;Node13</title>
<g id="a_edge12_Node000009_Node000013"><a xlink:title=" ">
<path fill="none" stroke="#63b8ff" d="M1009.42,-113.09C1004.13,-105.85 996.76,-95.76 990.35,-86.97"/>
<polygon fill="#63b8ff" stroke="#63b8ff" points="993.28,-85.06 984.56,-79.05 987.63,-89.19 993.28,-85.06"/>
</a>
</g>
</g>
<!-- Node14 -->
<g id="Node000014" class="node">
<title>Node14</title>
<g id="a_Node000014"><a xlink:title=" ">
<polygon fill="#e0e0e0" stroke="#999999" points="1080.82,-77.5 1030.32,-77.5 1030.32,-56.75 1080.82,-56.75 1080.82,-77.5"/>
<text text-anchor="middle" x="1055.57" y="-64" font-family="Helvetica,sans-Serif" font-size="10.00">variant</text>
</a>
</g>
</g>
<!-- Node9&#45;&gt;Node14 -->
<g id="edge14_Node000009_Node000014" class="edge">
<title>Node9&#45;&gt;Node14</title>
<g id="a_edge14_Node000009_Node000014"><a xlink:title=" ">
<path fill="none" stroke="#63b8ff" d="M1023.55,-113.09C1028.7,-105.85 1035.89,-95.76 1042.15,-86.97"/>
<polygon fill="#63b8ff" stroke="#63b8ff" points="1044.83,-89.24 1047.78,-79.06 1039.13,-85.18 1044.83,-89.24"/>
</a>
</g>
</g>
<!-- Node11 -->
<g id="Node000011" class="node">
<title>Node11</title>
<g id="a_Node000011"><a xlink:title=" ">
<polygon fill="#e0e0e0" stroke="#999999" points="1184.95,-20.75 1144.2,-20.75 1144.2,0 1184.95,0 1184.95,-20.75"/>
<text text-anchor="middle" x="1164.57" y="-7.25" font-family="Helvetica,sans-Serif" font-size="10.00">tuple</text>
</a>
</g>
</g>
<!-- Node10&#45;&gt;Node11 -->
<g id="edge10_Node000010_Node000011" class="edge">
<title>Node10&#45;&gt;Node11</title>
<g id="a_edge10_Node000010_Node000011"><a xlink:title=" ">
<path fill="none" stroke="#63b8ff" d="M1164.57,-56.34C1164.57,-49.72 1164.57,-40.72 1164.57,-32.52"/>
<polygon fill="#63b8ff" stroke="#63b8ff" points="1168.07,-32.59 1164.57,-22.59 1161.07,-32.59 1168.07,-32.59"/>
</a>
</g>
</g>
<!-- Node15&#45;&gt;Node3 -->
<g id="edge17_Node000015_Node000003" class="edge">
<title>Node15&#45;&gt;Node3</title>
<g id="a_edge17_Node000015_Node000003"><a xlink:title=" ">
<path fill="none" stroke="#63b8ff" d="M818.45,-113.09C833.67,-104.76 855.77,-92.66 873.21,-83.11"/>
<polygon fill="#63b8ff" stroke="#63b8ff" points="874.43,-86.43 881.52,-78.56 871.07,-80.29 874.43,-86.43"/>
</a>
</g>
</g>
<!-- Node16 -->
<g id="Node000016" class="node">
<title>Node16</title>
<g id="a_Node000016"><a xlink:title=" ">
<polygon fill="#e0e0e0" stroke="#999999" points="604.32,-77.5 544.82,-77.5 544.82,-56.75 604.32,-56.75 604.32,-77.5"/>
<text text-anchor="middle" x="574.57" y="-64" font-family="Helvetica,sans-Serif" font-size="10.00">iostream</text>
</a>
</g>
</g>
<!-- Node15&#45;&gt;Node16 -->
<g id="edge16_Node000015_Node000016" class="edge">
<title>Node15&#45;&gt;Node16</title>
<g id="a_edge16_Node000015_Node000016"><a xlink:title=" ">
<path fill="none" stroke="#63b8ff" d="M759.91,-113.02C719.14,-103.15 656.69,-88.02 615.74,-78.1"/>
<polygon fill="#63b8ff" stroke="#63b8ff" points="616.81,-74.76 606.27,-75.8 615.16,-81.56 616.81,-74.76"/>
</a>
</g>
</g>
<!-- Node17 -->
<g id="Node000017" class="node">
<title>Node17</title>
<g id="a_Node000017"><a xlink:title=" ">
<polygon fill="#e0e0e0" stroke="#999999" points="722.57,-77.5 622.57,-77.5 622.57,-56.75 722.57,-56.75 722.57,-77.5"/>
<text text-anchor="middle" x="672.57" y="-64" font-family="Helvetica,sans-Serif" font-size="10.00">boost/format.hpp</text>
</a>
</g>
</g>
<!-- Node15&#45;&gt;Node17 -->
<g id="edge18_Node000015_Node000017" class="edge">
<title>Node15&#45;&gt;Node17</title>
<g id="a_edge18_Node000015_Node000017"><a xlink:title=" ">
<path fill="none" stroke="#63b8ff" d="M777.69,-113.09C757.67,-104.52 728.34,-91.98 705.74,-82.31"/>
<polygon fill="#63b8ff" stroke="#63b8ff" points="707.22,-79.14 696.65,-78.42 704.47,-85.57 707.22,-79.14"/>
</a>
</g>
</g>
<!-- Node18 -->
<g id="Node000018" class="node">
<title>Node18</title>
<g id="a_Node000018"><a xlink:href="ansicolor_8hh.html" target="_top" xlink:title="Some ANSI escape sequences.">
<polygon fill="white" stroke="#666666" points="860.7,-77.5 740.45,-77.5 740.45,-56.75 860.7,-56.75 860.7,-77.5"/>
<text text-anchor="middle" x="800.57" y="-64" font-family="Helvetica,sans-Serif" font-size="10.00">lix/libutil/ansicolor.hh</text>
</a>
</g>
</g>
<!-- Node15&#45;&gt;Node18 -->
<g id="edge19_Node000015_Node000018" class="edge">
<title>Node15&#45;&gt;Node18</title>
<g id="a_edge19_Node000015_Node000018"><a xlink:title=" ">
<path fill="none" stroke="#63b8ff" d="M800.57,-113.09C800.57,-106.47 800.57,-97.47 800.57,-89.27"/>
<polygon fill="#63b8ff" stroke="#63b8ff" points="804.07,-89.34 800.57,-79.34 797.07,-89.34 804.07,-89.34"/>
</a>
</g>
</g>
</g>
</svg>
