<?xml version="1.0" encoding="UTF-8" standalone="no"?>
<!DOCTYPE svg PUBLIC "-//W3C//DTD SVG 1.1//EN"
 "http://www.w3.org/Graphics/SVG/1.1/DTD/svg11.dtd">
<!-- Generated by graphviz version 12.2.1 (0)
 -->
<!-- Title: lix/libutil/split.hh Pages: 1 -->
<svg width="154pt" height="86pt"
 viewBox="0.00 0.00 154.00 85.50" xmlns="http://www.w3.org/2000/svg" xmlns:xlink="http://www.w3.org/1999/xlink">
<g id="graph0" class="graph" transform="scale(1 1) rotate(0) translate(4 81.5)">
<title>lix/libutil/split.hh</title>
<!-- Node1 -->
<g id="Node000001" class="node">
<title>Node1</title>
<g id="a_Node000001"><a xlink:title=" ">
<polygon fill="#999999" stroke="#666666" points="117.75,-77.5 20,-77.5 20,-56.75 117.75,-56.75 117.75,-77.5"/>
<text text-anchor="middle" x="68.88" y="-64" font-family="Helvetica,sans-Serif" font-size="10.00">lix/libutil/split.hh</text>
</a>
</g>
</g>
<!-- Node2 -->
<g id="Node000002" class="node">
<title>Node2</title>
<g id="a_Node000002"><a xlink:title=" ">
<polygon fill="#e0e0e0" stroke="#999999" points="55.75,-20.75 0,-20.75 0,0 55.75,0 55.75,-20.75"/>
<text text-anchor="middle" x="27.88" y="-7.25" font-family="Helvetica,sans-Serif" font-size="10.00">optional</text>
</a>
</g>
</g>
<!-- Node1&#45;&gt;Node2 -->
<g id="edge1_Node000001_Node000002" class="edge">
<title>Node1&#45;&gt;Node2</title>
<g id="a_edge1_Node000001_Node000002"><a xlink:title=" ">
<path fill="none" stroke="#63b8ff" d="M61.55,-56.34C56.12,-49.1 48.57,-39.01 41.99,-30.22"/>
<polygon fill="#63b8ff" stroke="#63b8ff" points="44.84,-28.2 36.05,-22.29 39.24,-32.39 44.84,-28.2"/>
</a>
</g>
</g>
<!-- Node3 -->
<g id="Node000003" class="node">
<title>Node3</title>
<g id="a_Node000003"><a xlink:title=" ">
<polygon fill="#e0e0e0" stroke="#999999" points="146,-20.75 73.75,-20.75 73.75,0 146,0 146,-20.75"/>
<text text-anchor="middle" x="109.88" y="-7.25" font-family="Helvetica,sans-Serif" font-size="10.00">string_view</text>
</a>
</g>
</g>
<!-- Node1&#45;&gt;Node3 -->
<g id="edge2_Node000001_Node000003" class="edge">
<title>Node1&#45;&gt;Node3</title>
<g id="a_edge2_Node000001_Node000003"><a xlink:title=" ">
<path fill="none" stroke="#63b8ff" d="M76.2,-56.34C81.63,-49.1 89.18,-39.01 95.76,-30.22"/>
<polygon fill="#63b8ff" stroke="#63b8ff" points="98.51,-32.39 101.7,-22.29 92.91,-28.2 98.51,-32.39"/>
</a>
</g>
</g>
</g>
</svg>
