<?xml version="1.0" encoding="UTF-8" standalone="no"?>
<!DOCTYPE svg PUBLIC "-//W3C//DTD SVG 1.1//EN"
 "http://www.w3.org/Graphics/SVG/1.1/DTD/svg11.dtd">
<!-- Generated by graphviz version 12.2.1 (0)
 -->
<!-- Title: lix/libutil/strings.hh Pages: 1 -->
<svg width="1455pt" height="269pt"
 viewBox="0.00 0.00 1455.12 268.50" xmlns="http://www.w3.org/2000/svg" xmlns:xlink="http://www.w3.org/1999/xlink">
<g id="graph0" class="graph" transform="scale(1 1) rotate(0) translate(4 264.5)">
<title>lix/libutil/strings.hh</title>
<!-- Node1 -->
<g id="Node000001" class="node">
<title>Node1</title>
<g id="a_Node000001"><a xlink:title=" ">
<polygon fill="#999999" stroke="#666666" points="1311.62,-260.5 1201.88,-260.5 1201.88,-239.75 1311.62,-239.75 1311.62,-260.5"/>
<text text-anchor="middle" x="1256.75" y="-247" font-family="Helvetica,sans-Serif" font-size="10.00">lix/libutil/strings.hh</text>
</a>
</g>
</g>
<!-- Node2 -->
<g id="Node000002" class="node">
<title>Node2</title>
<g id="a_Node000002"><a xlink:href="error_8hh.html" target="_top" xlink:title="This file defines two main structs/classes used in nix error handling.">
<polygon fill="white" stroke="#666666" points="677.38,-197.38 578.12,-197.38 578.12,-176.62 677.38,-176.62 677.38,-197.38"/>
<text text-anchor="middle" x="627.75" y="-183.88" font-family="Helvetica,sans-Serif" font-size="10.00">lix/libutil/error.hh</text>
</a>
</g>
</g>
<!-- Node1&#45;&gt;Node2 -->
<g id="edge1_Node000001_Node000002" class="edge">
<title>Node1&#45;&gt;Node2</title>
<g id="a_edge1_Node000001_Node000002"><a xlink:title=" ">
<path fill="none" stroke="#63b8ff" d="M1201.48,-243.75C1084.3,-232.37 811.63,-205.87 689.2,-193.97"/>
<polygon fill="#63b8ff" stroke="#63b8ff" points="689.63,-190.5 679.34,-193.01 688.95,-197.46 689.63,-190.5"/>
</a>
</g>
</g>
<!-- Node25 -->
<g id="Node000025" class="node">
<title>Node25</title>
<g id="a_Node000025"><a xlink:href="types_8hh.html" target="_top" xlink:title=" ">
<polygon fill="white" stroke="#666666" points="1268.62,-197.38 1164.88,-197.38 1164.88,-176.62 1268.62,-176.62 1268.62,-197.38"/>
<text text-anchor="middle" x="1216.75" y="-183.88" font-family="Helvetica,sans-Serif" font-size="10.00">lix/libutil/types.hh</text>
</a>
</g>
</g>
<!-- Node1&#45;&gt;Node25 -->
<g id="edge26_Node000001_Node000025" class="edge">
<title>Node1&#45;&gt;Node25</title>
<g id="a_edge26_Node000001_Node000025"><a xlink:title=" ">
<path fill="none" stroke="#63b8ff" d="M1250.32,-239.3C1244.63,-230.61 1236.17,-217.67 1229.16,-206.97"/>
<polygon fill="#63b8ff" stroke="#63b8ff" points="1232.26,-205.31 1223.86,-198.86 1226.4,-209.15 1232.26,-205.31"/>
</a>
</g>
</g>
<!-- Node27 -->
<g id="Node000027" class="node">
<title>Node27</title>
<g id="a_Node000027"><a xlink:title=" ">
<polygon fill="#e0e0e0" stroke="#999999" points="1447.12,-134.25 1400.38,-134.25 1400.38,-113.5 1447.12,-113.5 1447.12,-134.25"/>
<text text-anchor="middle" x="1423.75" y="-120.75" font-family="Helvetica,sans-Serif" font-size="10.00">vector</text>
</a>
</g>
</g>
<!-- Node1&#45;&gt;Node27 -->
<g id="edge36_Node000001_Node000027" class="edge">
<title>Node1&#45;&gt;Node27</title>
<g id="a_edge36_Node000001_Node000027"><a xlink:title=" ">
<path fill="none" stroke="#63b8ff" d="M1261.81,-239.31C1270.68,-222.95 1290.55,-189.94 1315.75,-170.25 1337.55,-153.22 1366.67,-141.48 1389.18,-134.21"/>
<polygon fill="#63b8ff" stroke="#63b8ff" points="1389.98,-137.63 1398.51,-131.35 1387.93,-130.94 1389.98,-137.63"/>
</a>
</g>
</g>
<!-- Node30 -->
<g id="Node000030" class="node">
<title>Node30</title>
<g id="a_Node000030"><a xlink:title=" ">
<polygon fill="#e0e0e0" stroke="#999999" points="1446.62,-203.75 1324.88,-203.75 1324.88,-170.25 1446.62,-170.25 1446.62,-203.75"/>
<text text-anchor="start" x="1332.88" y="-190.25" font-family="Helvetica,sans-Serif" font-size="10.00">boost/container/small</text>
<text text-anchor="middle" x="1385.75" y="-177.5" font-family="Helvetica,sans-Serif" font-size="10.00">_vector.hpp</text>
</a>
</g>
</g>
<!-- Node1&#45;&gt;Node30 -->
<g id="edge37_Node000001_Node000030" class="edge">
<title>Node1&#45;&gt;Node30</title>
<g id="a_edge37_Node000001_Node000030"><a xlink:title=" ">
<path fill="none" stroke="#63b8ff" d="M1277.48,-239.3C1294.61,-231.18 1319.56,-219.36 1341.19,-209.12"/>
<polygon fill="#63b8ff" stroke="#63b8ff" points="1342.58,-212.33 1350.12,-204.88 1339.58,-206 1342.58,-212.33"/>
</a>
</g>
</g>
<!-- Node3 -->
<g id="Node000003" class="node">
<title>Node3</title>
<g id="a_Node000003"><a xlink:href="json-fwd_8hh_source.html" target="_top" xlink:title=" ">
<polygon fill="white" stroke="#666666" points="183.75,-134.25 65.75,-134.25 65.75,-113.5 183.75,-113.5 183.75,-134.25"/>
<text text-anchor="middle" x="124.75" y="-120.75" font-family="Helvetica,sans-Serif" font-size="10.00">lix/libutil/json&#45;fwd.hh</text>
</a>
</g>
</g>
<!-- Node2&#45;&gt;Node3 -->
<g id="edge2_Node000002_Node000003" class="edge">
<title>Node2&#45;&gt;Node3</title>
<g id="a_edge2_Node000002_Node000003"><a xlink:title=" ">
<path fill="none" stroke="#63b8ff" d="M577.75,-180.11C497.56,-170.64 335.23,-151.35 197.75,-134.25 196.92,-134.15 196.08,-134.04 195.24,-133.94"/>
<polygon fill="#63b8ff" stroke="#63b8ff" points="195.97,-130.5 185.61,-132.73 195.09,-137.45 195.97,-130.5"/>
</a>
</g>
</g>
<!-- Node5 -->
<g id="Node000005" class="node">
<title>Node5</title>
<g id="a_Node000005"><a xlink:title=" ">
<polygon fill="#e0e0e0" stroke="#999999" points="218,-77.5 149.5,-77.5 149.5,-56.75 218,-56.75 218,-77.5"/>
<text text-anchor="middle" x="183.75" y="-64" font-family="Helvetica,sans-Serif" font-size="10.00">type_traits</text>
</a>
</g>
</g>
<!-- Node2&#45;&gt;Node5 -->
<g id="edge25_Node000002_Node000005" class="edge">
<title>Node2&#45;&gt;Node5</title>
<g id="a_edge25_Node000002_Node000005"><a xlink:title=" ">
<path fill="none" stroke="#63b8ff" d="M577.9,-184.42C484.69,-180.67 288.24,-168.81 230.75,-134.25 212.88,-123.51 199.96,-103.07 192.24,-87.75"/>
<polygon fill="#63b8ff" stroke="#63b8ff" points="195.59,-86.65 188.18,-79.08 189.25,-89.62 195.59,-86.65"/>
</a>
</g>
</g>
<!-- Node6 -->
<g id="Node000006" class="node">
<title>Node6</title>
<g id="a_Node000006"><a xlink:href="suggestions_8hh.html" target="_top" xlink:title=" ">
<polygon fill="white" stroke="#666666" points="962.38,-134.25 827.12,-134.25 827.12,-113.5 962.38,-113.5 962.38,-134.25"/>
<text text-anchor="middle" x="894.75" y="-120.75" font-family="Helvetica,sans-Serif" font-size="10.00">lix/libutil/suggestions.hh</text>
</a>
</g>
</g>
<!-- Node2&#45;&gt;Node6 -->
<g id="edge5_Node000002_Node000006" class="edge">
<title>Node2&#45;&gt;Node6</title>
<g id="a_edge5_Node000002_Node000006"><a xlink:title=" ">
<path fill="none" stroke="#63b8ff" d="M670.65,-176.18C716.97,-165.57 790.85,-148.66 841.01,-137.18"/>
<polygon fill="#63b8ff" stroke="#63b8ff" points="841.52,-140.65 850.48,-135.01 839.95,-133.83 841.52,-140.65"/>
</a>
</g>
</g>
<!-- Node13 -->
<g id="Node000013" class="node">
<title>Node13</title>
<g id="a_Node000013"><a xlink:href="libutil_2fmt_8hh.html" target="_top" xlink:title=" ">
<polygon fill="white" stroke="#666666" points="431.75,-134.25 337.75,-134.25 337.75,-113.5 431.75,-113.5 431.75,-134.25"/>
<text text-anchor="middle" x="384.75" y="-120.75" font-family="Helvetica,sans-Serif" font-size="10.00">lix/libutil/fmt.hh</text>
</a>
</g>
</g>
<!-- Node2&#45;&gt;Node13 -->
<g id="edge12_Node000002_Node000013" class="edge">
<title>Node2&#45;&gt;Node13</title>
<g id="a_edge12_Node000002_Node000013"><a xlink:title=" ">
<path fill="none" stroke="#63b8ff" d="M588.71,-176.18C546.9,-165.66 480.44,-148.95 434.82,-137.47"/>
<polygon fill="#63b8ff" stroke="#63b8ff" points="435.71,-134.09 425.16,-135.04 434.01,-140.87 435.71,-134.09"/>
</a>
</g>
</g>
<!-- Node17 -->
<g id="Node000017" class="node">
<title>Node17</title>
<g id="a_Node000017"><a xlink:title=" ">
<polygon fill="#e0e0e0" stroke="#999999" points="499.25,-134.25 450.25,-134.25 450.25,-113.5 499.25,-113.5 499.25,-134.25"/>
<text text-anchor="middle" x="474.75" y="-120.75" font-family="Helvetica,sans-Serif" font-size="10.00">cstring</text>
</a>
</g>
</g>
<!-- Node2&#45;&gt;Node17 -->
<g id="edge17_Node000002_Node000017" class="edge">
<title>Node2&#45;&gt;Node17</title>
<g id="a_edge17_Node000002_Node000017"><a xlink:title=" ">
<path fill="none" stroke="#63b8ff" d="M603.17,-176.18C577.85,-166.06 538.17,-150.21 509.62,-138.8"/>
<polygon fill="#63b8ff" stroke="#63b8ff" points="511.26,-135.69 500.68,-135.23 508.66,-142.19 511.26,-135.69"/>
</a>
</g>
</g>
<!-- Node18 -->
<g id="Node000018" class="node">
<title>Node18</title>
<g id="a_Node000018"><a xlink:title=" ">
<polygon fill="#e0e0e0" stroke="#999999" points="1011.25,-134.25 980.25,-134.25 980.25,-113.5 1011.25,-113.5 1011.25,-134.25"/>
<text text-anchor="middle" x="995.75" y="-120.75" font-family="Helvetica,sans-Serif" font-size="10.00">list</text>
</a>
</g>
</g>
<!-- Node2&#45;&gt;Node18 -->
<g id="edge18_Node000002_Node000018" class="edge">
<title>Node2&#45;&gt;Node18</title>
<g id="a_edge18_Node000002_Node000018"><a xlink:title=" ">
<path fill="none" stroke="#63b8ff" d="M677.74,-182C743.08,-176.01 861.03,-162.56 968.84,-134.57"/>
<polygon fill="#63b8ff" stroke="#63b8ff" points="969.68,-137.97 978.44,-132.02 967.88,-131.2 969.68,-137.97"/>
</a>
</g>
</g>
<!-- Node19 -->
<g id="Node000019" class="node">
<title>Node19</title>
<g id="a_Node000019"><a xlink:title=" ">
<polygon fill="#e0e0e0" stroke="#999999" points="574.38,-134.25 517.12,-134.25 517.12,-113.5 574.38,-113.5 574.38,-134.25"/>
<text text-anchor="middle" x="545.75" y="-120.75" font-family="Helvetica,sans-Serif" font-size="10.00">memory</text>
</a>
</g>
</g>
<!-- Node2&#45;&gt;Node19 -->
<g id="edge19_Node000002_Node000019" class="edge">
<title>Node2&#45;&gt;Node19</title>
<g id="a_edge19_Node000002_Node000019"><a xlink:title=" ">
<path fill="none" stroke="#63b8ff" d="M614.58,-176.18C602.02,-166.82 582.88,-152.55 567.97,-141.44"/>
<polygon fill="#63b8ff" stroke="#63b8ff" points="570.21,-138.75 560.11,-135.58 566.03,-144.36 570.21,-138.75"/>
</a>
</g>
</g>
<!-- Node20 -->
<g id="Node000020" class="node">
<title>Node20</title>
<g id="a_Node000020"><a xlink:title=" ">
<polygon fill="#e0e0e0" stroke="#999999" points="1084.62,-134.25 1028.88,-134.25 1028.88,-113.5 1084.62,-113.5 1084.62,-134.25"/>
<text text-anchor="middle" x="1056.75" y="-120.75" font-family="Helvetica,sans-Serif" font-size="10.00">optional</text>
</a>
</g>
</g>
<!-- Node2&#45;&gt;Node20 -->
<g id="edge20_Node000002_Node000020" class="edge">
<title>Node2&#45;&gt;Node20</title>
<g id="a_edge20_Node000002_Node000020"><a xlink:title=" ">
<path fill="none" stroke="#63b8ff" d="M677.86,-181.28C750.58,-174.01 889.73,-158.56 1017.41,-134.51"/>
<polygon fill="#63b8ff" stroke="#63b8ff" points="1017.89,-137.98 1027.06,-132.67 1016.58,-131.1 1017.89,-137.98"/>
</a>
</g>
</g>
<!-- Node21 -->
<g id="Node000021" class="node">
<title>Node21</title>
<g id="a_Node000021"><a xlink:title=" ">
<polygon fill="#e0e0e0" stroke="#999999" points="663.5,-134.25 592,-134.25 592,-113.5 663.5,-113.5 663.5,-134.25"/>
<text text-anchor="middle" x="627.75" y="-120.75" font-family="Helvetica,sans-Serif" font-size="10.00">sys/types.h</text>
</a>
</g>
</g>
<!-- Node2&#45;&gt;Node21 -->
<g id="edge21_Node000002_Node000021" class="edge">
<title>Node2&#45;&gt;Node21</title>
<g id="a_edge21_Node000002_Node000021"><a xlink:title=" ">
<path fill="none" stroke="#63b8ff" d="M627.75,-176.18C627.75,-168.02 627.75,-156.13 627.75,-145.85"/>
<polygon fill="#63b8ff" stroke="#63b8ff" points="631.25,-145.98 627.75,-135.98 624.25,-145.98 631.25,-145.98"/>
</a>
</g>
</g>
<!-- Node22 -->
<g id="Node000022" class="node">
<title>Node22</title>
<g id="a_Node000022"><a xlink:title=" ">
<polygon fill="#e0e0e0" stroke="#999999" points="744.38,-134.25 681.12,-134.25 681.12,-113.5 744.38,-113.5 744.38,-134.25"/>
<text text-anchor="middle" x="712.75" y="-120.75" font-family="Helvetica,sans-Serif" font-size="10.00">sys/stat.h</text>
</a>
</g>
</g>
<!-- Node2&#45;&gt;Node22 -->
<g id="edge22_Node000002_Node000022" class="edge">
<title>Node2&#45;&gt;Node22</title>
<g id="a_edge22_Node000002_Node000022"><a xlink:title=" ">
<path fill="none" stroke="#63b8ff" d="M641.41,-176.18C654.54,-166.73 674.64,-152.28 690.16,-141.12"/>
<polygon fill="#63b8ff" stroke="#63b8ff" points="691.82,-144.24 697.9,-135.56 687.74,-138.55 691.82,-144.24"/>
</a>
</g>
</g>
<!-- Node23 -->
<g id="Node000023" class="node">
<title>Node23</title>
<g id="a_Node000023"><a xlink:title=" ">
<polygon fill="#e0e0e0" stroke="#999999" points="809.12,-134.25 762.38,-134.25 762.38,-113.5 809.12,-113.5 809.12,-134.25"/>
<text text-anchor="middle" x="785.75" y="-120.75" font-family="Helvetica,sans-Serif" font-size="10.00">fcntl.h</text>
</a>
</g>
</g>
<!-- Node2&#45;&gt;Node23 -->
<g id="edge23_Node000002_Node000023" class="edge">
<title>Node2&#45;&gt;Node23</title>
<g id="a_edge23_Node000002_Node000023"><a xlink:title=" ">
<path fill="none" stroke="#63b8ff" d="M653.14,-176.18C679.74,-165.89 721.72,-149.65 751.3,-138.2"/>
<polygon fill="#63b8ff" stroke="#63b8ff" points="752.5,-141.49 760.57,-134.62 749.98,-134.96 752.5,-141.49"/>
</a>
</g>
</g>
<!-- Node24 -->
<g id="Node000024" class="node">
<title>Node24</title>
<g id="a_Node000024"><a xlink:title=" ">
<polygon fill="#e0e0e0" stroke="#999999" points="320,-134.25 239.5,-134.25 239.5,-113.5 320,-113.5 320,-134.25"/>
<text text-anchor="middle" x="279.75" y="-120.75" font-family="Helvetica,sans-Serif" font-size="10.00">system_error</text>
</a>
</g>
</g>
<!-- Node2&#45;&gt;Node24 -->
<g id="edge24_Node000002_Node000024" class="edge">
<title>Node2&#45;&gt;Node24</title>
<g id="a_edge24_Node000002_Node000024"><a xlink:title=" ">
<path fill="none" stroke="#63b8ff" d="M577.71,-177.62C520.61,-167.99 424.12,-151.53 331.64,-134.75"/>
<polygon fill="#63b8ff" stroke="#63b8ff" points="332.34,-131.32 321.87,-132.98 331.08,-138.21 332.34,-131.32"/>
</a>
</g>
</g>
<!-- Node4 -->
<g id="Node000004" class="node">
<title>Node4</title>
<g id="a_Node000004"><a xlink:title=" ">
<polygon fill="#e0e0e0" stroke="#999999" points="131.5,-77.5 0,-77.5 0,-56.75 131.5,-56.75 131.5,-77.5"/>
<text text-anchor="middle" x="65.75" y="-64" font-family="Helvetica,sans-Serif" font-size="10.00">nlohmann/json_fwd.hpp</text>
</a>
</g>
</g>
<!-- Node3&#45;&gt;Node4 -->
<g id="edge3_Node000003_Node000004" class="edge">
<title>Node3&#45;&gt;Node4</title>
<g id="a_edge3_Node000003_Node000004"><a xlink:title=" ">
<path fill="none" stroke="#63b8ff" d="M114.2,-113.09C105.98,-105.46 94.35,-94.67 84.55,-85.57"/>
<polygon fill="#63b8ff" stroke="#63b8ff" points="87.03,-83.09 77.32,-78.86 82.27,-88.23 87.03,-83.09"/>
</a>
</g>
</g>
<!-- Node3&#45;&gt;Node5 -->
<g id="edge4_Node000003_Node000005" class="edge">
<title>Node3&#45;&gt;Node5</title>
<g id="a_edge4_Node000003_Node000005"><a xlink:title=" ">
<path fill="none" stroke="#63b8ff" d="M135.3,-113.09C143.52,-105.46 155.15,-94.67 164.95,-85.57"/>
<polygon fill="#63b8ff" stroke="#63b8ff" points="167.23,-88.23 172.18,-78.86 162.47,-83.09 167.23,-88.23"/>
</a>
</g>
</g>
<!-- Node7 -->
<g id="Node000007" class="node">
<title>Node7</title>
<g id="a_Node000007"><a xlink:href="comparator_8hh.html" target="_top" xlink:title=" ">
<polygon fill="white" stroke="#666666" points="960.88,-77.5 828.62,-77.5 828.62,-56.75 960.88,-56.75 960.88,-77.5"/>
<text text-anchor="middle" x="894.75" y="-64" font-family="Helvetica,sans-Serif" font-size="10.00">lix/libutil/comparator.hh</text>
</a>
</g>
</g>
<!-- Node6&#45;&gt;Node7 -->
<g id="edge6_Node000006_Node000007" class="edge">
<title>Node6&#45;&gt;Node7</title>
<g id="a_edge6_Node000006_Node000007"><a xlink:title=" ">
<path fill="none" stroke="#63b8ff" d="M894.75,-113.09C894.75,-106.47 894.75,-97.47 894.75,-89.27"/>
<polygon fill="#63b8ff" stroke="#63b8ff" points="898.25,-89.34 894.75,-79.34 891.25,-89.34 898.25,-89.34"/>
</a>
</g>
</g>
<!-- Node9 -->
<g id="Node000009" class="node">
<title>Node9</title>
<g id="a_Node000009"><a xlink:title=" ">
<polygon fill="#e0e0e0" stroke="#999999" points="1331.25,-77.5 1300.25,-77.5 1300.25,-56.75 1331.25,-56.75 1331.25,-77.5"/>
<text text-anchor="middle" x="1315.75" y="-64" font-family="Helvetica,sans-Serif" font-size="10.00">set</text>
</a>
</g>
</g>
<!-- Node6&#45;&gt;Node9 -->
<g id="edge8_Node000006_Node000009" class="edge">
<title>Node6&#45;&gt;Node9</title>
<g id="a_edge8_Node000006_Node000009"><a xlink:title=" ">
<path fill="none" stroke="#63b8ff" d="M962.86,-114.02C1057.31,-101.73 1223.75,-80.09 1288.71,-71.64"/>
<polygon fill="#63b8ff" stroke="#63b8ff" points="1288.99,-75.13 1298.46,-70.37 1288.09,-68.19 1288.99,-75.13"/>
</a>
</g>
</g>
<!-- Node10 -->
<g id="Node000010" class="node">
<title>Node10</title>
<g id="a_Node000010"><a xlink:title=" ">
<polygon fill="#e0e0e0" stroke="#999999" points="1225.88,-77.5 1153.62,-77.5 1153.62,-56.75 1225.88,-56.75 1225.88,-77.5"/>
<text text-anchor="middle" x="1189.75" y="-64" font-family="Helvetica,sans-Serif" font-size="10.00">string_view</text>
</a>
</g>
</g>
<!-- Node6&#45;&gt;Node10 -->
<g id="edge9_Node000006_Node000010" class="edge">
<title>Node6&#45;&gt;Node10</title>
<g id="a_edge9_Node000006_Node000010"><a xlink:title=" ">
<path fill="none" stroke="#63b8ff" d="M947.83,-113.02C1003.16,-102.76 1089.06,-86.81 1142.23,-76.95"/>
<polygon fill="#63b8ff" stroke="#63b8ff" points="1142.69,-80.42 1151.89,-75.15 1141.42,-73.54 1142.69,-80.42"/>
</a>
</g>
</g>
<!-- Node11 -->
<g id="Node000011" class="node">
<title>Node11</title>
<g id="a_Node000011"><a xlink:title=" ">
<polygon fill="#e0e0e0" stroke="#999999" points="1022.62,-77.5 978.88,-77.5 978.88,-56.75 1022.62,-56.75 1022.62,-77.5"/>
<text text-anchor="middle" x="1000.75" y="-64" font-family="Helvetica,sans-Serif" font-size="10.00">string</text>
</a>
</g>
</g>
<!-- Node6&#45;&gt;Node11 -->
<g id="edge10_Node000006_Node000011" class="edge">
<title>Node6&#45;&gt;Node11</title>
<g id="a_edge10_Node000006_Node000011"><a xlink:title=" ">
<path fill="none" stroke="#63b8ff" d="M913.7,-113.09C929.83,-104.76 953.25,-92.66 971.74,-83.11"/>
<polygon fill="#63b8ff" stroke="#63b8ff" points="973.34,-86.22 980.62,-78.52 970.13,-80 973.34,-86.22"/>
</a>
</g>
</g>
<!-- Node12 -->
<g id="Node000012" class="node">
<title>Node12</title>
<g id="a_Node000012"><a xlink:title=" ">
<polygon fill="#e0e0e0" stroke="#999999" points="811,-77.5 760.5,-77.5 760.5,-56.75 811,-56.75 811,-77.5"/>
<text text-anchor="middle" x="785.75" y="-64" font-family="Helvetica,sans-Serif" font-size="10.00">variant</text>
</a>
</g>
</g>
<!-- Node6&#45;&gt;Node12 -->
<g id="edge11_Node000006_Node000012" class="edge">
<title>Node6&#45;&gt;Node12</title>
<g id="a_edge11_Node000006_Node000012"><a xlink:title=" ">
<path fill="none" stroke="#63b8ff" d="M875.26,-113.09C858.6,-104.72 834.37,-92.54 815.31,-82.97"/>
<polygon fill="#63b8ff" stroke="#63b8ff" points="816.93,-79.87 806.42,-78.51 813.79,-86.12 816.93,-79.87"/>
</a>
</g>
</g>
<!-- Node8 -->
<g id="Node000008" class="node">
<title>Node8</title>
<g id="a_Node000008"><a xlink:title=" ">
<polygon fill="#e0e0e0" stroke="#999999" points="915.12,-20.75 874.38,-20.75 874.38,0 915.12,0 915.12,-20.75"/>
<text text-anchor="middle" x="894.75" y="-7.25" font-family="Helvetica,sans-Serif" font-size="10.00">tuple</text>
</a>
</g>
</g>
<!-- Node7&#45;&gt;Node8 -->
<g id="edge7_Node000007_Node000008" class="edge">
<title>Node7&#45;&gt;Node8</title>
<g id="a_edge7_Node000007_Node000008"><a xlink:title=" ">
<path fill="none" stroke="#63b8ff" d="M894.75,-56.34C894.75,-49.72 894.75,-40.72 894.75,-32.52"/>
<polygon fill="#63b8ff" stroke="#63b8ff" points="898.25,-32.59 894.75,-22.59 891.25,-32.59 898.25,-32.59"/>
</a>
</g>
</g>
<!-- Node13&#45;&gt;Node11 -->
<g id="edge14_Node000013_Node000011" class="edge">
<title>Node13&#45;&gt;Node11</title>
<g id="a_edge14_Node000013_Node000011"><a xlink:title=" ">
<path fill="none" stroke="#63b8ff" d="M432.06,-114.62C435,-114.21 437.91,-113.83 440.75,-113.5 671.14,-86.44 735.92,-118.83 967.4,-77.52"/>
<polygon fill="#63b8ff" stroke="#63b8ff" points="967.84,-80.99 977.06,-75.77 966.59,-74.11 967.84,-80.99"/>
</a>
</g>
</g>
<!-- Node14 -->
<g id="Node000014" class="node">
<title>Node14</title>
<g id="a_Node000014"><a xlink:title=" ">
<polygon fill="#e0e0e0" stroke="#999999" points="551.5,-77.5 492,-77.5 492,-56.75 551.5,-56.75 551.5,-77.5"/>
<text text-anchor="middle" x="521.75" y="-64" font-family="Helvetica,sans-Serif" font-size="10.00">iostream</text>
</a>
</g>
</g>
<!-- Node13&#45;&gt;Node14 -->
<g id="edge13_Node000013_Node000014" class="edge">
<title>Node13&#45;&gt;Node14</title>
<g id="a_edge13_Node000013_Node000014"><a xlink:title=" ">
<path fill="none" stroke="#63b8ff" d="M409.24,-113.09C430.87,-104.44 462.64,-91.75 486.91,-82.05"/>
<polygon fill="#63b8ff" stroke="#63b8ff" points="488.08,-85.35 496.06,-78.39 485.48,-78.85 488.08,-85.35"/>
</a>
</g>
</g>
<!-- Node15 -->
<g id="Node000015" class="node">
<title>Node15</title>
<g id="a_Node000015"><a xlink:title=" ">
<polygon fill="#e0e0e0" stroke="#999999" points="335.75,-77.5 235.75,-77.5 235.75,-56.75 335.75,-56.75 335.75,-77.5"/>
<text text-anchor="middle" x="285.75" y="-64" font-family="Helvetica,sans-Serif" font-size="10.00">boost/format.hpp</text>
</a>
</g>
</g>
<!-- Node13&#45;&gt;Node15 -->
<g id="edge15_Node000013_Node000015" class="edge">
<title>Node13&#45;&gt;Node15</title>
<g id="a_edge15_Node000013_Node000015"><a xlink:title=" ">
<path fill="none" stroke="#63b8ff" d="M367.05,-113.09C352.13,-104.83 330.52,-92.88 313.33,-83.38"/>
<polygon fill="#63b8ff" stroke="#63b8ff" points="315.07,-80.34 304.62,-78.56 311.68,-86.46 315.07,-80.34"/>
</a>
</g>
</g>
<!-- Node16 -->
<g id="Node000016" class="node">
<title>Node16</title>
<g id="a_Node000016"><a xlink:href="ansicolor_8hh.html" target="_top" xlink:title="Some ANSI escape sequences.">
<polygon fill="white" stroke="#666666" points="473.88,-77.5 353.62,-77.5 353.62,-56.75 473.88,-56.75 473.88,-77.5"/>
<text text-anchor="middle" x="413.75" y="-64" font-family="Helvetica,sans-Serif" font-size="10.00">lix/libutil/ansicolor.hh</text>
</a>
</g>
</g>
<!-- Node13&#45;&gt;Node16 -->
<g id="edge16_Node000013_Node000016" class="edge">
<title>Node13&#45;&gt;Node16</title>
<g id="a_edge16_Node000013_Node000016"><a xlink:title=" ">
<path fill="none" stroke="#63b8ff" d="M389.93,-113.09C393.65,-106.08 398.77,-96.41 403.31,-87.83"/>
<polygon fill="#63b8ff" stroke="#63b8ff" points="406.31,-89.64 407.9,-79.17 400.13,-86.36 406.31,-89.64"/>
</a>
</g>
</g>
<!-- Node25&#45;&gt;Node9 -->
<g id="edge29_Node000025_Node000009" class="edge">
<title>Node25&#45;&gt;Node9</title>
<g id="a_edge29_Node000025_Node000009"><a xlink:title=" ">
<path fill="none" stroke="#63b8ff" d="M1247.98,-176.22C1278.63,-165.91 1322.12,-149.14 1331.75,-134.25 1340.76,-120.32 1335.07,-101.77 1328.09,-87.86"/>
<polygon fill="#63b8ff" stroke="#63b8ff" points="1331.17,-86.2 1323.22,-79.2 1325.07,-89.63 1331.17,-86.2"/>
</a>
</g>
</g>
<!-- Node25&#45;&gt;Node10 -->
<g id="edge31_Node000025_Node000010" class="edge">
<title>Node25&#45;&gt;Node10</title>
<g id="a_edge31_Node000025_Node000010"><a xlink:title=" ">
<path fill="none" stroke="#63b8ff" d="M1252.39,-176.15C1288.42,-164.33 1336.08,-142.43 1315.75,-113.5 1298.13,-88.42 1265.24,-77.14 1237.48,-72.09"/>
<polygon fill="#63b8ff" stroke="#63b8ff" points="1238.27,-68.68 1227.85,-70.58 1237.18,-75.59 1238.27,-68.68"/>
</a>
</g>
</g>
<!-- Node25&#45;&gt;Node11 -->
<g id="edge30_Node000025_Node000011" class="edge">
<title>Node25&#45;&gt;Node11</title>
<g id="a_edge30_Node000025_Node000011"><a xlink:title=" ">
<path fill="none" stroke="#63b8ff" d="M1201.06,-176.21C1177.89,-161.89 1133.05,-134.63 1093.75,-113.5 1073.61,-102.67 1050.5,-91.39 1032.36,-82.79"/>
<polygon fill="#63b8ff" stroke="#63b8ff" points="1033.95,-79.67 1023.41,-78.57 1030.97,-86 1033.95,-79.67"/>
</a>
</g>
</g>
<!-- Node25&#45;&gt;Node18 -->
<g id="edge27_Node000025_Node000018" class="edge">
<title>Node25&#45;&gt;Node18</title>
<g id="a_edge27_Node000025_Node000018"><a xlink:title=" ">
<path fill="none" stroke="#63b8ff" d="M1173.68,-176.2C1135.84,-167.26 1079.17,-153.06 1022.28,-134.84"/>
<polygon fill="#63b8ff" stroke="#63b8ff" points="1023.7,-131.62 1013.1,-131.86 1021.53,-138.27 1023.7,-131.62"/>
</a>
</g>
</g>
<!-- Node25&#45;&gt;Node20 -->
<g id="edge28_Node000025_Node000020" class="edge">
<title>Node25&#45;&gt;Node20</title>
<g id="a_edge28_Node000025_Node000020"><a xlink:title=" ">
<path fill="none" stroke="#63b8ff" d="M1191.04,-176.18C1164.45,-166.02 1122.71,-150.07 1092.82,-138.65"/>
<polygon fill="#63b8ff" stroke="#63b8ff" points="1094.4,-135.51 1083.81,-135.21 1091.9,-142.05 1094.4,-135.51"/>
</a>
</g>
</g>
<!-- Node26 -->
<g id="Node000026" class="node">
<title>Node26</title>
<g id="a_Node000026"><a xlink:title=" ">
<polygon fill="#e0e0e0" stroke="#999999" points="1178.62,-134.25 1140.88,-134.25 1140.88,-113.5 1178.62,-113.5 1178.62,-134.25"/>
<text text-anchor="middle" x="1159.75" y="-120.75" font-family="Helvetica,sans-Serif" font-size="10.00">map</text>
</a>
</g>
</g>
<!-- Node25&#45;&gt;Node26 -->
<g id="edge32_Node000025_Node000026" class="edge">
<title>Node25&#45;&gt;Node26</title>
<g id="a_edge32_Node000025_Node000026"><a xlink:title=" ">
<path fill="none" stroke="#63b8ff" d="M1207.59,-176.18C1199.23,-167.22 1186.67,-153.74 1176.52,-142.85"/>
<polygon fill="#63b8ff" stroke="#63b8ff" points="1179.11,-140.5 1169.73,-135.58 1173.99,-145.28 1179.11,-140.5"/>
</a>
</g>
</g>
<!-- Node25&#45;&gt;Node27 -->
<g id="edge33_Node000025_Node000027" class="edge">
<title>Node25&#45;&gt;Node27</title>
<g id="a_edge33_Node000025_Node000027"><a xlink:title=" ">
<path fill="none" stroke="#63b8ff" d="M1250.01,-176.18C1288.18,-164.91 1350.5,-146.51 1389.2,-135.08"/>
<polygon fill="#63b8ff" stroke="#63b8ff" points="1389.88,-138.53 1398.48,-132.34 1387.9,-131.81 1389.88,-138.53"/>
</a>
</g>
</g>
<!-- Node28 -->
<g id="Node000028" class="node">
<title>Node28</title>
<g id="a_Node000028"><a xlink:title=" ">
<polygon fill="#e0e0e0" stroke="#999999" points="1236.38,-134.25 1197.12,-134.25 1197.12,-113.5 1236.38,-113.5 1236.38,-134.25"/>
<text text-anchor="middle" x="1216.75" y="-120.75" font-family="Helvetica,sans-Serif" font-size="10.00">span</text>
</a>
</g>
</g>
<!-- Node25&#45;&gt;Node28 -->
<g id="edge34_Node000025_Node000028" class="edge">
<title>Node25&#45;&gt;Node28</title>
<g id="a_edge34_Node000025_Node000028"><a xlink:title=" ">
<path fill="none" stroke="#63b8ff" d="M1216.75,-176.18C1216.75,-168.02 1216.75,-156.13 1216.75,-145.85"/>
<polygon fill="#63b8ff" stroke="#63b8ff" points="1220.25,-145.98 1216.75,-135.98 1213.25,-145.98 1220.25,-145.98"/>
</a>
</g>
</g>
<!-- Node29 -->
<g id="Node000029" class="node">
<title>Node29</title>
<g id="a_Node000029"><a xlink:title=" ">
<polygon fill="#e0e0e0" stroke="#999999" points="1307.12,-134.25 1254.38,-134.25 1254.38,-113.5 1307.12,-113.5 1307.12,-134.25"/>
<text text-anchor="middle" x="1280.75" y="-120.75" font-family="Helvetica,sans-Serif" font-size="10.00">stdint.h</text>
</a>
</g>
</g>
<!-- Node25&#45;&gt;Node29 -->
<g id="edge35_Node000025_Node000029" class="edge">
<title>Node25&#45;&gt;Node29</title>
<g id="a_edge35_Node000025_Node000029"><a xlink:title=" ">
<path fill="none" stroke="#63b8ff" d="M1227.03,-176.18C1236.61,-167.04 1251.09,-153.2 1262.61,-142.2"/>
<polygon fill="#63b8ff" stroke="#63b8ff" points="1264.8,-144.95 1269.61,-135.52 1259.96,-139.89 1264.8,-144.95"/>
</a>
</g>
</g>
</g>
</svg>
