<?xml version="1.0" encoding="UTF-8" standalone="no"?>
<!DOCTYPE svg PUBLIC "-//W3C//DTD SVG 1.1//EN"
 "http://www.w3.org/Graphics/SVG/1.1/DTD/svg11.dtd">
<!-- Generated by graphviz version 12.2.1 (0)
 -->
<!-- Title: nix::MixOperateOnOptions Pages: 1 -->
<svg width="952pt" height="302pt"
 viewBox="0.00 0.00 951.50 301.75" xmlns="http://www.w3.org/2000/svg" xmlns:xlink="http://www.w3.org/1999/xlink">
<g id="graph0" class="graph" transform="scale(1 1) rotate(0) translate(4 297.75)">
<title>nix::MixOperateOnOptions</title>
<!-- Node1 -->
<g id="Node000001" class="node">
<title>Node1</title>
<g id="a_Node000001"><a xlink:title=" ">
<polygon fill="#999999" stroke="#666666" points="239.75,-156.75 94.75,-156.75 94.75,-136 239.75,-136 239.75,-156.75"/>
<text text-anchor="middle" x="167.25" y="-143.25" font-family="Helvetica,sans-Serif" font-size="10.00">nix::MixOperateOnOptions</text>
</a>
</g>
</g>
<!-- Node3 -->
<g id="Node000003" class="node">
<title>Node3</title>
<g id="a_Node000003"><a xlink:href="structnix_1_1BuiltPathsCommand.html" target="_top" xlink:title=" ">
<polygon fill="white" stroke="#666666" points="411.75,-195.75 275.75,-195.75 275.75,-175 411.75,-175 411.75,-195.75"/>
<text text-anchor="middle" x="343.75" y="-182.25" font-family="Helvetica,sans-Serif" font-size="10.00">nix::BuiltPathsCommand</text>
</a>
</g>
</g>
<!-- Node1&#45;&gt;Node3 -->
<g id="edge2_Node000001_Node000003" class="edge">
<title>Node1&#45;&gt;Node3</title>
<g id="a_edge2_Node000001_Node000003"><a xlink:title=" ">
<path fill="none" stroke="#63b8ff" d="M227.88,-159.7C249.47,-164.53 273.57,-169.91 294.1,-174.5"/>
<polygon fill="#63b8ff" stroke="#63b8ff" points="228.86,-156.33 218.34,-157.57 227.33,-163.17 228.86,-156.33"/>
</a>
</g>
</g>
<!-- Node16 -->
<g id="Node000016" class="node">
<title>Node16</title>
<g id="a_Node000016"><a xlink:href="structnix_1_1CmdDiffClosures.html" target="_top" xlink:title=" ">
<polygon fill="white" stroke="#bfbfbf" points="403.12,-156.75 284.38,-156.75 284.38,-136 403.12,-136 403.12,-156.75"/>
<text text-anchor="middle" x="343.75" y="-143.25" font-family="Helvetica,sans-Serif" font-size="10.00">nix::CmdDiffClosures</text>
</a>
</g>
</g>
<!-- Node1&#45;&gt;Node16 -->
<g id="edge15_Node000001_Node000016" class="edge">
<title>Node1&#45;&gt;Node16</title>
<g id="a_edge15_Node000001_Node000016"><a xlink:title=" ">
<path fill="none" stroke="#63b8ff" d="M251.58,-146.38C262.52,-146.38 273.54,-146.38 283.96,-146.38"/>
<polygon fill="#63b8ff" stroke="#63b8ff" points="251.75,-142.88 241.75,-146.38 251.75,-149.88 251.75,-142.88"/>
</a>
</g>
</g>
<!-- Node17 -->
<g id="Node000017" class="node">
<title>Node17</title>
<g id="a_Node000017"><a xlink:href="structnix_1_1CmdWhyDepends.html" target="_top" xlink:title=" ">
<polygon fill="white" stroke="#bfbfbf" points="405.75,-117.75 281.75,-117.75 281.75,-97 405.75,-97 405.75,-117.75"/>
<text text-anchor="middle" x="343.75" y="-104.25" font-family="Helvetica,sans-Serif" font-size="10.00">nix::CmdWhyDepends</text>
</a>
</g>
</g>
<!-- Node1&#45;&gt;Node17 -->
<g id="edge16_Node000001_Node000017" class="edge">
<title>Node1&#45;&gt;Node17</title>
<g id="a_edge16_Node000001_Node000017"><a xlink:title=" ">
<path fill="none" stroke="#63b8ff" d="M227.88,-133.05C249.47,-128.22 273.57,-122.84 294.1,-118.25"/>
<polygon fill="#63b8ff" stroke="#63b8ff" points="227.33,-129.58 218.34,-135.18 228.86,-136.42 227.33,-129.58"/>
</a>
</g>
</g>
<!-- Node2 -->
<g id="Node000002" class="node">
<title>Node2</title>
<g id="a_Node000002"><a xlink:href="classnix_1_1Args.html" target="_top" xlink:title=" ">
<polygon fill="white" stroke="#bfbfbf" points="58.75,-156.75 0,-156.75 0,-136 58.75,-136 58.75,-156.75"/>
<text text-anchor="middle" x="29.38" y="-143.25" font-family="Helvetica,sans-Serif" font-size="10.00">nix::Args</text>
</a>
</g>
</g>
<!-- Node2&#45;&gt;Node1 -->
<g id="edge1_Node000001_Node000002" class="edge">
<title>Node2&#45;&gt;Node1</title>
<g id="a_edge1_Node000001_Node000002"><a xlink:title=" ">
<path fill="none" stroke="#63b8ff" d="M70.55,-146.38C78.11,-146.38 86.23,-146.38 94.42,-146.38"/>
<polygon fill="#63b8ff" stroke="#63b8ff" points="70.7,-142.88 60.7,-146.38 70.7,-149.88 70.7,-142.88"/>
</a>
</g>
</g>
<!-- Node4 -->
<g id="Node000004" class="node">
<title>Node4</title>
<g id="a_Node000004"><a xlink:href="structnix_1_1CmdCopy.html" target="_top" xlink:title=" ">
<polygon fill="white" stroke="#bfbfbf" points="559.38,-234.75 475.12,-234.75 475.12,-214 559.38,-214 559.38,-234.75"/>
<text text-anchor="middle" x="517.25" y="-221.25" font-family="Helvetica,sans-Serif" font-size="10.00">nix::CmdCopy</text>
</a>
</g>
</g>
<!-- Node3&#45;&gt;Node4 -->
<g id="edge3_Node000003_Node000004" class="edge">
<title>Node3&#45;&gt;Node4</title>
<g id="a_edge3_Node000003_Node000004"><a xlink:title=" ">
<path fill="none" stroke="#63b8ff" d="M403.74,-198.79C427.16,-204.11 453.53,-210.11 474.85,-214.96"/>
<polygon fill="#63b8ff" stroke="#63b8ff" points="404.53,-195.38 394,-196.57 402.97,-202.2 404.53,-195.38"/>
</a>
</g>
</g>
<!-- Node5 -->
<g id="Node000005" class="node">
<title>Node5</title>
<g id="a_Node000005"><a xlink:href="structnix_1_1CmdRealisationInfo.html" target="_top" xlink:title=" ">
<polygon fill="white" stroke="#bfbfbf" points="583.75,-195.75 450.75,-195.75 450.75,-175 583.75,-175 583.75,-195.75"/>
<text text-anchor="middle" x="517.25" y="-182.25" font-family="Helvetica,sans-Serif" font-size="10.00">nix::CmdRealisationInfo</text>
</a>
</g>
</g>
<!-- Node3&#45;&gt;Node5 -->
<g id="edge4_Node000003_Node000005" class="edge">
<title>Node3&#45;&gt;Node5</title>
<g id="a_edge4_Node000003_Node000005"><a xlink:title=" ">
<path fill="none" stroke="#63b8ff" d="M423.36,-185.38C432.36,-185.38 441.47,-185.38 450.28,-185.38"/>
<polygon fill="#63b8ff" stroke="#63b8ff" points="423.55,-181.88 413.55,-185.38 423.55,-188.88 423.55,-181.88"/>
</a>
</g>
</g>
<!-- Node6 -->
<g id="Node000006" class="node">
<title>Node6</title>
<g id="a_Node000006"><a xlink:href="structnix_1_1StorePathsCommand.html" target="_top" xlink:title=" ">
<polygon fill="white" stroke="#bfbfbf" points="586.75,-156.75 447.75,-156.75 447.75,-136 586.75,-136 586.75,-156.75"/>
<text text-anchor="middle" x="517.25" y="-143.25" font-family="Helvetica,sans-Serif" font-size="10.00">nix::StorePathsCommand</text>
</a>
</g>
</g>
<!-- Node3&#45;&gt;Node6 -->
<g id="edge5_Node000003_Node000006" class="edge">
<title>Node3&#45;&gt;Node6</title>
<g id="a_edge5_Node000003_Node000006"><a xlink:title=" ">
<path fill="none" stroke="#63b8ff" d="M403.65,-171.98C424.79,-167.17 448.35,-161.82 468.44,-157.25"/>
<polygon fill="#63b8ff" stroke="#63b8ff" points="402.97,-168.55 394,-174.18 404.53,-175.37 402.97,-168.55"/>
</a>
</g>
</g>
<!-- Node7 -->
<g id="Node000007" class="node">
<title>Node7</title>
<g id="a_Node000007"><a xlink:href="structnix_1_1CmdCopySigs.html" target="_top" xlink:title=" ">
<polygon fill="white" stroke="#bfbfbf" points="762.5,-293.75 658,-293.75 658,-273 762.5,-273 762.5,-293.75"/>
<text text-anchor="middle" x="710.25" y="-280.25" font-family="Helvetica,sans-Serif" font-size="10.00">nix::CmdCopySigs</text>
</a>
</g>
</g>
<!-- Node6&#45;&gt;Node7 -->
<g id="edge6_Node000006_Node000007" class="edge">
<title>Node6&#45;&gt;Node7</title>
<g id="a_edge6_Node000006_Node000007"><a xlink:title=" ">
<path fill="none" stroke="#63b8ff" d="M582.83,-163.09C584.19,-164.12 585.5,-165.21 586.75,-166.38 620.4,-197.71 588.22,-233.01 622.75,-263.38 632.47,-271.93 645.13,-277.02 657.74,-280"/>
<polygon fill="#63b8ff" stroke="#63b8ff" points="584.81,-160.2 574.46,-157.95 581.15,-166.17 584.81,-160.2"/>
</a>
</g>
</g>
<!-- Node8 -->
<g id="Node000008" class="node">
<title>Node8</title>
<g id="a_Node000008"><a xlink:href="structnix_1_1CmdMakeContentAddressed.html" target="_top" xlink:title=" ">
<polygon fill="white" stroke="#bfbfbf" points="797.75,-254.75 622.75,-254.75 622.75,-234 797.75,-234 797.75,-254.75"/>
<text text-anchor="middle" x="710.25" y="-241.25" font-family="Helvetica,sans-Serif" font-size="10.00">nix::CmdMakeContentAddressed</text>
</a>
</g>
</g>
<!-- Node6&#45;&gt;Node8 -->
<g id="edge7_Node000006_Node000008" class="edge">
<title>Node6&#45;&gt;Node8</title>
<g id="a_edge7_Node000006_Node000008"><a xlink:title=" ">
<path fill="none" stroke="#63b8ff" d="M580.43,-162.15C582.63,-163.45 584.75,-164.85 586.75,-166.38 610.91,-184.73 598.08,-206.72 622.75,-224.38 627.89,-228.05 633.6,-231.07 639.57,-233.53"/>
<polygon fill="#63b8ff" stroke="#63b8ff" points="582.21,-159.13 571.7,-157.78 579.08,-165.39 582.21,-159.13"/>
</a>
</g>
</g>
<!-- Node9 -->
<g id="Node000009" class="node">
<title>Node9</title>
<g id="a_Node000009"><a xlink:href="structnix_1_1CmdPathInfo.html" target="_top" xlink:title=" ">
<polygon fill="white" stroke="#bfbfbf" points="759.88,-215.75 660.62,-215.75 660.62,-195 759.88,-195 759.88,-215.75"/>
<text text-anchor="middle" x="710.25" y="-202.25" font-family="Helvetica,sans-Serif" font-size="10.00">nix::CmdPathInfo</text>
</a>
</g>
</g>
<!-- Node6&#45;&gt;Node9 -->
<g id="edge8_Node000006_Node000009" class="edge">
<title>Node6&#45;&gt;Node9</title>
<g id="a_edge8_Node000006_Node000009"><a xlink:title=" ">
<path fill="none" stroke="#63b8ff" d="M571.22,-160.68C576.52,-162.45 581.77,-164.36 586.75,-166.38 603.52,-173.17 605.8,-179.06 622.75,-185.38 634.74,-189.84 648.05,-193.51 660.56,-196.43"/>
<polygon fill="#63b8ff" stroke="#63b8ff" points="572.4,-157.38 561.81,-157.68 570.27,-164.05 572.4,-157.38"/>
</a>
</g>
</g>
<!-- Node10 -->
<g id="Node000010" class="node">
<title>Node10</title>
<g id="a_Node000010"><a xlink:href="structnix_1_1CmdSign.html" target="_top" xlink:title=" ">
<polygon fill="white" stroke="#bfbfbf" points="750.5,-176.75 670,-176.75 670,-156 750.5,-156 750.5,-176.75"/>
<text text-anchor="middle" x="710.25" y="-163.25" font-family="Helvetica,sans-Serif" font-size="10.00">nix::CmdSign</text>
</a>
</g>
</g>
<!-- Node6&#45;&gt;Node10 -->
<g id="edge9_Node000006_Node000010" class="edge">
<title>Node6&#45;&gt;Node10</title>
<g id="a_edge9_Node000006_Node000010"><a xlink:title=" ">
<path fill="none" stroke="#63b8ff" d="M598.38,-154.77C622.96,-157.34 648.95,-160.06 669.57,-162.22"/>
<polygon fill="#63b8ff" stroke="#63b8ff" points="599.02,-151.31 588.71,-153.75 598.29,-158.28 599.02,-151.31"/>
</a>
</g>
</g>
<!-- Node11 -->
<g id="Node000011" class="node">
<title>Node11</title>
<g id="a_Node000011"><a xlink:href="structnix_1_1CmdStoreDelete.html" target="_top" xlink:title=" ">
<polygon fill="white" stroke="#bfbfbf" points="768.88,-137.75 651.62,-137.75 651.62,-117 768.88,-117 768.88,-137.75"/>
<text text-anchor="middle" x="710.25" y="-124.25" font-family="Helvetica,sans-Serif" font-size="10.00">nix::CmdStoreDelete</text>
</a>
</g>
</g>
<!-- Node6&#45;&gt;Node11 -->
<g id="edge10_Node000006_Node000011" class="edge">
<title>Node6&#45;&gt;Node11</title>
<g id="a_edge10_Node000006_Node000011"><a xlink:title=" ">
<path fill="none" stroke="#63b8ff" d="M598.45,-138.4C616.23,-136.63 634.73,-134.79 651.41,-133.13"/>
<polygon fill="#63b8ff" stroke="#63b8ff" points="598.32,-134.89 588.71,-139.37 599.01,-141.86 598.32,-134.89"/>
</a>
</g>
</g>
<!-- Node12 -->
<g id="Node000012" class="node">
<title>Node12</title>
<g id="a_Node000012"><a xlink:href="structnix_1_1CmdStoreRepair.html" target="_top" xlink:title=" ">
<polygon fill="white" stroke="#bfbfbf" points="768.5,-98.75 652,-98.75 652,-78 768.5,-78 768.5,-98.75"/>
<text text-anchor="middle" x="710.25" y="-85.25" font-family="Helvetica,sans-Serif" font-size="10.00">nix::CmdStoreRepair</text>
</a>
</g>
</g>
<!-- Node6&#45;&gt;Node12 -->
<g id="edge11_Node000006_Node000012" class="edge">
<title>Node6&#45;&gt;Node12</title>
<g id="a_edge11_Node000006_Node000012"><a xlink:title=" ">
<path fill="none" stroke="#63b8ff" d="M555.72,-131.5C575.47,-123.98 600.21,-115.05 622.75,-108.38 633.98,-105.05 646.17,-101.93 657.75,-99.2"/>
<polygon fill="#63b8ff" stroke="#63b8ff" points="554.5,-128.22 546.43,-135.08 557.02,-134.75 554.5,-128.22"/>
</a>
</g>
</g>
<!-- Node13 -->
<g id="Node000013" class="node">
<title>Node13</title>
<g id="a_Node000013"><a xlink:href="structnix_1_1CmdVerify.html" target="_top" xlink:title=" ">
<polygon fill="white" stroke="#bfbfbf" points="753.88,-59.75 666.62,-59.75 666.62,-39 753.88,-39 753.88,-59.75"/>
<text text-anchor="middle" x="710.25" y="-46.25" font-family="Helvetica,sans-Serif" font-size="10.00">nix::CmdVerify</text>
</a>
</g>
</g>
<!-- Node6&#45;&gt;Node13 -->
<g id="edge12_Node000006_Node000013" class="edge">
<title>Node6&#45;&gt;Node13</title>
<g id="a_edge12_Node000006_Node000013"><a xlink:title=" ">
<path fill="none" stroke="#63b8ff" d="M537.93,-127.99C557.83,-110.37 590.23,-84.33 622.75,-69.38 636.33,-63.13 652.04,-58.74 666.31,-55.71"/>
<polygon fill="#63b8ff" stroke="#63b8ff" points="535.65,-125.32 530.58,-134.63 540.35,-130.52 535.65,-125.32"/>
</a>
</g>
</g>
<!-- Node14 -->
<g id="Node000014" class="node">
<title>Node14</title>
<g id="a_Node000014"><a xlink:href="structnix_1_1StorePathCommand.html" target="_top" xlink:title=" ">
<polygon fill="white" stroke="#666666" points="777.12,-20.75 643.38,-20.75 643.38,0 777.12,0 777.12,-20.75"/>
<text text-anchor="middle" x="710.25" y="-7.25" font-family="Helvetica,sans-Serif" font-size="10.00">nix::StorePathCommand</text>
</a>
</g>
</g>
<!-- Node6&#45;&gt;Node14 -->
<g id="edge13_Node000006_Node000014" class="edge">
<title>Node6&#45;&gt;Node14</title>
<g id="a_edge13_Node000006_Node000014"><a xlink:title=" ">
<path fill="none" stroke="#63b8ff" d="M530.77,-126.07C548.09,-99.77 581.9,-54.44 622.75,-30.38 628.99,-26.7 635.86,-23.7 642.91,-21.25"/>
<polygon fill="#63b8ff" stroke="#63b8ff" points="527.83,-124.17 525.39,-134.48 533.73,-127.94 527.83,-124.17"/>
</a>
</g>
</g>
<!-- Node15 -->
<g id="Node000015" class="node">
<title>Node15</title>
<g id="a_Node000015"><a xlink:href="structnix_1_1CmdDumpPath.html" target="_top" xlink:title=" ">
<polygon fill="white" stroke="#bfbfbf" points="943.5,-20.75 833.75,-20.75 833.75,0 943.5,0 943.5,-20.75"/>
<text text-anchor="middle" x="888.62" y="-7.25" font-family="Helvetica,sans-Serif" font-size="10.00">nix::CmdDumpPath</text>
</a>
</g>
</g>
<!-- Node14&#45;&gt;Node15 -->
<g id="edge14_Node000014_Node000015" class="edge">
<title>Node14&#45;&gt;Node15</title>
<g id="a_edge14_Node000014_Node000015"><a xlink:title=" ">
<path fill="none" stroke="#63b8ff" d="M788.83,-10.38C803.88,-10.38 819.35,-10.38 833.45,-10.38"/>
<polygon fill="#63b8ff" stroke="#63b8ff" points="788.94,-6.88 778.94,-10.38 788.94,-13.88 788.94,-6.88"/>
</a>
</g>
</g>
</g>
</svg>
