<?xml version="1.0" encoding="UTF-8" standalone="no"?>
<!DOCTYPE svg PUBLIC "-//W3C//DTD SVG 1.1//EN"
 "http://www.w3.org/Graphics/SVG/1.1/DTD/svg11.dtd">
<!-- Generated by graphviz version 12.2.1 (0)
 -->
<!-- Title: nix::Command Pages: 1 -->
<svg width="727pt" height="1499pt"
 viewBox="0.00 0.00 727.00 1498.75" xmlns="http://www.w3.org/2000/svg" xmlns:xlink="http://www.w3.org/1999/xlink">
<g id="graph0" class="graph" transform="scale(1 1) rotate(0) translate(4 1494.75)">
<title>nix::Command</title>
<!-- Node1 -->
<g id="Node000001" class="node">
<title>Node1</title>
<g id="a_Node000001"><a xlink:title=" ">
<polygon fill="#999999" stroke="#666666" points="182,-1224.75 94.75,-1224.75 94.75,-1204 182,-1204 182,-1224.75"/>
<text text-anchor="middle" x="138.38" y="-1211.25" font-family="Helvetica,sans-Serif" font-size="10.00">nix::Command</text>
</a>
</g>
</g>
<!-- Node3 -->
<g id="Node000003" class="node">
<title>Node3</title>
<g id="a_Node000003"><a xlink:href="structnix_1_1CmdConfigShow.html" target="_top" xlink:title=" ">
<polygon fill="white" stroke="#bfbfbf" points="352.88,-1490.75 236.38,-1490.75 236.38,-1470 352.88,-1470 352.88,-1490.75"/>
<text text-anchor="middle" x="294.62" y="-1477.25" font-family="Helvetica,sans-Serif" font-size="10.00">nix::CmdConfigShow</text>
</a>
</g>
</g>
<!-- Node1&#45;&gt;Node3 -->
<g id="edge2_Node000001_Node000003" class="edge">
<title>Node1&#45;&gt;Node3</title>
<g id="a_edge2_Node000001_Node000003"><a xlink:title=" ">
<path fill="none" stroke="#63b8ff" d="M139.72,-1236.55C141.72,-1284.61 153.4,-1398.98 218,-1460.38 223.22,-1465.33 229.52,-1469.1 236.22,-1471.95"/>
<polygon fill="#63b8ff" stroke="#63b8ff" points="143.22,-1236.5 139.43,-1226.61 136.22,-1236.71 143.22,-1236.5"/>
</a>
</g>
</g>
<!-- Node4 -->
<g id="Node000004" class="node">
<title>Node4</title>
<g id="a_Node000004"><a xlink:href="structnix_1_1CmdDumpPath2.html" target="_top" xlink:title=" ">
<polygon fill="white" stroke="#bfbfbf" points="352.5,-1451.75 236.75,-1451.75 236.75,-1431 352.5,-1431 352.5,-1451.75"/>
<text text-anchor="middle" x="294.62" y="-1438.25" font-family="Helvetica,sans-Serif" font-size="10.00">nix::CmdDumpPath2</text>
</a>
</g>
</g>
<!-- Node1&#45;&gt;Node4 -->
<g id="edge3_Node000001_Node000004" class="edge">
<title>Node1&#45;&gt;Node4</title>
<g id="a_edge3_Node000001_Node000004"><a xlink:title=" ">
<path fill="none" stroke="#63b8ff" d="M141.23,-1236.18C146.02,-1278.38 162.6,-1371.48 218,-1421.38 223.35,-1426.19 229.72,-1429.87 236.47,-1432.68"/>
<polygon fill="#63b8ff" stroke="#63b8ff" points="144.72,-1235.92 140.24,-1226.32 137.76,-1236.62 144.72,-1235.92"/>
</a>
</g>
</g>
<!-- Node5 -->
<g id="Node000005" class="node">
<title>Node5</title>
<g id="a_Node000005"><a xlink:href="structnix_1_1CmdHashBase.html" target="_top" xlink:title=" ">
<polygon fill="white" stroke="#bfbfbf" points="348.75,-1412.75 240.5,-1412.75 240.5,-1392 348.75,-1392 348.75,-1412.75"/>
<text text-anchor="middle" x="294.62" y="-1399.25" font-family="Helvetica,sans-Serif" font-size="10.00">nix::CmdHashBase</text>
</a>
</g>
</g>
<!-- Node1&#45;&gt;Node5 -->
<g id="edge4_Node000001_Node000005" class="edge">
<title>Node1&#45;&gt;Node5</title>
<g id="a_edge4_Node000001_Node000005"><a xlink:title=" ">
<path fill="none" stroke="#63b8ff" d="M143.36,-1236.02C151.14,-1271.96 171.79,-1343.78 218,-1382.38 224.46,-1387.77 232.23,-1391.73 240.29,-1394.62"/>
<polygon fill="#63b8ff" stroke="#63b8ff" points="146.83,-1235.52 141.43,-1226.41 139.97,-1236.9 146.83,-1235.52"/>
</a>
</g>
</g>
<!-- Node6 -->
<g id="Node000006" class="node">
<title>Node6</title>
<g id="a_Node000006"><a xlink:href="structnix_1_1CmdHelp.html" target="_top" xlink:title=" ">
<polygon fill="white" stroke="#bfbfbf" points="335.62,-1373.75 253.62,-1373.75 253.62,-1353 335.62,-1353 335.62,-1373.75"/>
<text text-anchor="middle" x="294.62" y="-1360.25" font-family="Helvetica,sans-Serif" font-size="10.00">nix::CmdHelp</text>
</a>
</g>
</g>
<!-- Node1&#45;&gt;Node6 -->
<g id="edge5_Node000001_Node000006" class="edge">
<title>Node1&#45;&gt;Node6</title>
<g id="a_edge5_Node000001_Node000006"><a xlink:title=" ">
<path fill="none" stroke="#63b8ff" d="M146.49,-1235.45C157.31,-1264.26 180.68,-1315.53 218,-1343.38 228.23,-1351.01 241.15,-1355.73 253.39,-1358.66"/>
<polygon fill="#63b8ff" stroke="#63b8ff" points="149.9,-1234.6 143.24,-1226.37 143.31,-1236.96 149.9,-1234.6"/>
</a>
</g>
</g>
<!-- Node7 -->
<g id="Node000007" class="node">
<title>Node7</title>
<g id="a_Node000007"><a xlink:href="structnix_1_1CmdHelpStores.html" target="_top" xlink:title=" ">
<polygon fill="white" stroke="#bfbfbf" points="351,-1334.75 238.25,-1334.75 238.25,-1314 351,-1314 351,-1334.75"/>
<text text-anchor="middle" x="294.62" y="-1321.25" font-family="Helvetica,sans-Serif" font-size="10.00">nix::CmdHelpStores</text>
</a>
</g>
</g>
<!-- Node1&#45;&gt;Node7 -->
<g id="edge6_Node000001_Node000007" class="edge">
<title>Node1&#45;&gt;Node7</title>
<g id="a_edge6_Node000001_Node000007"><a xlink:title=" ">
<path fill="none" stroke="#63b8ff" d="M151.4,-1234.46C164.96,-1255.36 188.96,-1287.48 218,-1305.38 224.11,-1309.14 230.93,-1312.16 237.91,-1314.58"/>
<polygon fill="#63b8ff" stroke="#63b8ff" points="154.52,-1232.85 146.24,-1226.23 148.59,-1236.57 154.52,-1232.85"/>
</a>
</g>
</g>
<!-- Node8 -->
<g id="Node000008" class="node">
<title>Node8</title>
<g id="a_Node000008"><a xlink:href="structnix_1_1CmdKeyConvertSecretToPublic.html" target="_top" xlink:title=" ">
<polygon fill="white" stroke="#bfbfbf" points="367.88,-1296.12 221.38,-1296.12 221.38,-1262.62 367.88,-1262.62 367.88,-1296.12"/>
<text text-anchor="start" x="229.38" y="-1282.62" font-family="Helvetica,sans-Serif" font-size="10.00">nix::CmdKeyConvertSecret</text>
<text text-anchor="middle" x="294.62" y="-1269.88" font-family="Helvetica,sans-Serif" font-size="10.00">ToPublic</text>
</a>
</g>
</g>
<!-- Node1&#45;&gt;Node8 -->
<g id="edge7_Node000001_Node000008" class="edge">
<title>Node1&#45;&gt;Node8</title>
<g id="a_edge7_Node000001_Node000008"><a xlink:title=" ">
<path fill="none" stroke="#63b8ff" d="M169.31,-1230.36C183.81,-1237.81 201.6,-1246.52 218,-1253.38 225.3,-1256.43 233.1,-1259.41 240.81,-1262.2"/>
<polygon fill="#63b8ff" stroke="#63b8ff" points="171.23,-1227.42 160.75,-1225.91 168,-1233.63 171.23,-1227.42"/>
</a>
</g>
</g>
<!-- Node9 -->
<g id="Node000009" class="node">
<title>Node9</title>
<g id="a_Node000009"><a xlink:href="structnix_1_1CmdKeyGenerateSecret.html" target="_top" xlink:title=" ">
<polygon fill="white" stroke="#bfbfbf" points="371.25,-1244.75 218,-1244.75 218,-1224 371.25,-1224 371.25,-1244.75"/>
<text text-anchor="middle" x="294.62" y="-1231.25" font-family="Helvetica,sans-Serif" font-size="10.00">nix::CmdKeyGenerateSecret</text>
</a>
</g>
</g>
<!-- Node1&#45;&gt;Node9 -->
<g id="edge8_Node000001_Node000009" class="edge">
<title>Node1&#45;&gt;Node9</title>
<g id="a_edge8_Node000001_Node000009"><a xlink:title=" ">
<path fill="none" stroke="#63b8ff" d="M193.74,-1221.42C201.45,-1222.42 209.49,-1223.47 217.51,-1224.51"/>
<polygon fill="#63b8ff" stroke="#63b8ff" points="194.21,-1217.96 183.84,-1220.14 193.31,-1224.9 194.21,-1217.96"/>
</a>
</g>
</g>
<!-- Node10 -->
<g id="Node000010" class="node">
<title>Node10</title>
<g id="a_Node000010"><a xlink:href="structnix_1_1CmdLsNar.html" target="_top" xlink:title=" ">
<polygon fill="white" stroke="#bfbfbf" points="338.25,-1205.75 251,-1205.75 251,-1185 338.25,-1185 338.25,-1205.75"/>
<text text-anchor="middle" x="294.62" y="-1192.25" font-family="Helvetica,sans-Serif" font-size="10.00">nix::CmdLsNar</text>
</a>
</g>
</g>
<!-- Node1&#45;&gt;Node10 -->
<g id="edge9_Node000001_Node000010" class="edge">
<title>Node1&#45;&gt;Node10</title>
<g id="a_edge9_Node000001_Node000010"><a xlink:title=" ">
<path fill="none" stroke="#63b8ff" d="M193.67,-1207.69C212.34,-1205.39 232.97,-1202.85 250.62,-1200.67"/>
<polygon fill="#63b8ff" stroke="#63b8ff" points="193.34,-1204.2 183.84,-1208.9 194.2,-1211.15 193.34,-1204.2"/>
</a>
</g>
</g>
<!-- Node11 -->
<g id="Node000011" class="node">
<title>Node11</title>
<g id="a_Node000011"><a xlink:href="structnix_1_1CmdRegistryAdd.html" target="_top" xlink:title=" ">
<polygon fill="white" stroke="#bfbfbf" points="354,-1166.75 235.25,-1166.75 235.25,-1146 354,-1146 354,-1166.75"/>
<text text-anchor="middle" x="294.62" y="-1153.25" font-family="Helvetica,sans-Serif" font-size="10.00">nix::CmdRegistryAdd</text>
</a>
</g>
</g>
<!-- Node1&#45;&gt;Node11 -->
<g id="edge10_Node000001_Node000011" class="edge">
<title>Node1&#45;&gt;Node11</title>
<g id="a_edge10_Node000001_Node000011"><a xlink:title=" ">
<path fill="none" stroke="#63b8ff" d="M168.85,-1198.47C183.36,-1191.07 201.3,-1182.56 218,-1176.38 227.3,-1172.93 237.44,-1169.83 247.19,-1167.15"/>
<polygon fill="#63b8ff" stroke="#63b8ff" points="167.55,-1195.2 160.29,-1202.91 170.78,-1201.41 167.55,-1195.2"/>
</a>
</g>
</g>
<!-- Node12 -->
<g id="Node000012" class="node">
<title>Node12</title>
<g id="a_Node000012"><a xlink:href="structnix_1_1CmdRegistryRemove.html" target="_top" xlink:title=" ">
<polygon fill="white" stroke="#bfbfbf" points="364.88,-1127.75 224.38,-1127.75 224.38,-1107 364.88,-1107 364.88,-1127.75"/>
<text text-anchor="middle" x="294.62" y="-1114.25" font-family="Helvetica,sans-Serif" font-size="10.00">nix::CmdRegistryRemove</text>
</a>
</g>
</g>
<!-- Node1&#45;&gt;Node12 -->
<g id="edge11_Node000001_Node000012" class="edge">
<title>Node1&#45;&gt;Node12</title>
<g id="a_edge11_Node000001_Node000012"><a xlink:title=" ">
<path fill="none" stroke="#63b8ff" d="M154.34,-1194.79C168.78,-1177.23 192.21,-1152.03 218,-1137.38 224.49,-1133.68 231.69,-1130.66 238.98,-1128.18"/>
<polygon fill="#63b8ff" stroke="#63b8ff" points="151.72,-1192.46 148.22,-1202.47 157.19,-1196.83 151.72,-1192.46"/>
</a>
</g>
</g>
<!-- Node13 -->
<g id="Node000013" class="node">
<title>Node13</title>
<g id="a_Node000013"><a xlink:href="structnix_1_1CmdToBase.html" target="_top" xlink:title=" ">
<polygon fill="white" stroke="#bfbfbf" points="341.62,-1088.75 247.62,-1088.75 247.62,-1068 341.62,-1068 341.62,-1088.75"/>
<text text-anchor="middle" x="294.62" y="-1075.25" font-family="Helvetica,sans-Serif" font-size="10.00">nix::CmdToBase</text>
</a>
</g>
</g>
<!-- Node1&#45;&gt;Node13 -->
<g id="edge12_Node000001_Node000013" class="edge">
<title>Node1&#45;&gt;Node13</title>
<g id="a_edge12_Node000001_Node000013"><a xlink:title=" ">
<path fill="none" stroke="#63b8ff" d="M148.09,-1193.14C159.98,-1166.87 183.77,-1122.65 218,-1098.38 226.64,-1092.25 237.04,-1088 247.32,-1085.05"/>
<polygon fill="#63b8ff" stroke="#63b8ff" points="144.97,-1191.54 144.2,-1202.11 151.39,-1194.33 144.97,-1191.54"/>
</a>
</g>
</g>
<!-- Node14 -->
<g id="Node000014" class="node">
<title>Node14</title>
<g id="a_Node000014"><a xlink:href="classnix_1_1ExternalCommand.html" target="_top" xlink:title=" ">
<polygon fill="white" stroke="#666666" points="358.5,-1049.75 230.75,-1049.75 230.75,-1029 358.5,-1029 358.5,-1049.75"/>
<text text-anchor="middle" x="294.62" y="-1036.25" font-family="Helvetica,sans-Serif" font-size="10.00">nix::ExternalCommand</text>
</a>
</g>
</g>
<!-- Node1&#45;&gt;Node14 -->
<g id="edge13_Node000001_Node000014" class="edge">
<title>Node1&#45;&gt;Node14</title>
<g id="a_edge13_Node000001_Node000014"><a xlink:title=" ">
<path fill="none" stroke="#63b8ff" d="M144.24,-1192.97C153.01,-1159.34 174.74,-1094.35 218,-1059.38 222.54,-1055.7 227.69,-1052.7 233.11,-1050.25"/>
<polygon fill="#63b8ff" stroke="#63b8ff" points="140.92,-1191.81 141.94,-1202.36 147.72,-1193.48 140.92,-1191.81"/>
</a>
</g>
</g>
<!-- Node15 -->
<g id="Node000015" class="node">
<title>Node15</title>
<g id="a_Node000015"><a xlink:href="classnix_1_1MultiCommand.html" target="_top" xlink:title=" ">
<polygon fill="white" stroke="#666666" points="350.62,-1010.75 238.62,-1010.75 238.62,-990 350.62,-990 350.62,-1010.75"/>
<text text-anchor="middle" x="294.62" y="-997.25" font-family="Helvetica,sans-Serif" font-size="10.00">nix::MultiCommand</text>
</a>
</g>
</g>
<!-- Node1&#45;&gt;Node15 -->
<g id="edge14_Node000001_Node000015" class="edge">
<title>Node1&#45;&gt;Node15</title>
<g id="a_edge14_Node000001_Node000015"><a xlink:title=" ">
<path fill="none" stroke="#63b8ff" d="M141.91,-1192.27C147.73,-1151.93 165.83,-1066.33 218,-1020.38 223.91,-1015.17 231.02,-1011.29 238.49,-1008.42"/>
<polygon fill="#63b8ff" stroke="#63b8ff" points="138.44,-1191.8 140.62,-1202.16 145.38,-1192.7 138.44,-1191.8"/>
</a>
</g>
</g>
<!-- Node27 -->
<g id="Node000027" class="node">
<title>Node27</title>
<g id="a_Node000027"><a xlink:href="structnix_1_1StoreCommand.html" target="_top" xlink:title=" ">
<polygon fill="white" stroke="#666666" points="351,-429.75 238.25,-429.75 238.25,-409 351,-409 351,-429.75"/>
<text text-anchor="middle" x="294.62" y="-416.25" font-family="Helvetica,sans-Serif" font-size="10.00">nix::StoreCommand</text>
</a>
</g>
</g>
<!-- Node1&#45;&gt;Node27 -->
<g id="edge26_Node000001_Node000027" class="edge">
<title>Node1&#45;&gt;Node27</title>
<g id="a_edge26_Node000001_Node000027"><a xlink:title=" ">
<path fill="none" stroke="#63b8ff" d="M143.59,-1192.66C166.45,-1074.82 275.23,-514.19 291.57,-429.97"/>
<polygon fill="#63b8ff" stroke="#63b8ff" points="140.2,-1191.77 141.73,-1202.25 147.07,-1193.1 140.2,-1191.77"/>
</a>
</g>
</g>
<!-- Node2 -->
<g id="Node000002" class="node">
<title>Node2</title>
<g id="a_Node000002"><a xlink:href="classnix_1_1Args.html" target="_top" xlink:title=" ">
<polygon fill="white" stroke="#bfbfbf" points="58.75,-1224.75 0,-1224.75 0,-1204 58.75,-1204 58.75,-1224.75"/>
<text text-anchor="middle" x="29.38" y="-1211.25" font-family="Helvetica,sans-Serif" font-size="10.00">nix::Args</text>
</a>
</g>
</g>
<!-- Node2&#45;&gt;Node1 -->
<g id="edge1_Node000001_Node000002" class="edge">
<title>Node2&#45;&gt;Node1</title>
<g id="a_edge1_Node000001_Node000002"><a xlink:title=" ">
<path fill="none" stroke="#63b8ff" d="M70.53,-1214.38C78.37,-1214.38 86.61,-1214.38 94.53,-1214.38"/>
<polygon fill="#63b8ff" stroke="#63b8ff" points="70.56,-1210.88 60.56,-1214.38 70.56,-1217.88 70.56,-1210.88"/>
</a>
</g>
</g>
<!-- Node16 -->
<g id="Node000016" class="node">
<title>Node16</title>
<g id="a_Node000016"><a xlink:href="structnix_1_1CmdConfig.html" target="_top" xlink:title=" ">
<polygon fill="white" stroke="#bfbfbf" points="527.5,-835.75 437.25,-835.75 437.25,-815 527.5,-815 527.5,-835.75"/>
<text text-anchor="middle" x="482.38" y="-822.25" font-family="Helvetica,sans-Serif" font-size="10.00">nix::CmdConfig</text>
</a>
</g>
</g>
<!-- Node15&#45;&gt;Node16 -->
<g id="edge15_Node000015_Node000016" class="edge">
<title>Node15&#45;&gt;Node16</title>
<g id="a_edge15_Node000015_Node000016"><a xlink:title=" ">
<path fill="none" stroke="#63b8ff" d="M304.93,-979.37C320.9,-945.8 356.75,-880.3 407.25,-845.38 416.02,-839.31 426.55,-835.08 436.88,-832.14"/>
<polygon fill="#63b8ff" stroke="#63b8ff" points="301.76,-977.88 300.76,-988.43 308.12,-980.81 301.76,-977.88"/>
</a>
</g>
</g>
<!-- Node17 -->
<g id="Node000017" class="node">
<title>Node17</title>
<g id="a_Node000017"><a xlink:href="structnix_1_1CmdDerivation.html" target="_top" xlink:title=" ">
<polygon fill="white" stroke="#bfbfbf" points="537.62,-1225.75 427.12,-1225.75 427.12,-1205 537.62,-1205 537.62,-1225.75"/>
<text text-anchor="middle" x="482.38" y="-1212.25" font-family="Helvetica,sans-Serif" font-size="10.00">nix::CmdDerivation</text>
</a>
</g>
</g>
<!-- Node15&#45;&gt;Node17 -->
<g id="edge16_Node000015_Node000017" class="edge">
<title>Node15&#45;&gt;Node17</title>
<g id="a_edge16_Node000015_Node000017"><a xlink:title=" ">
<path fill="none" stroke="#63b8ff" d="M361.18,-1012.29C364.87,-1014.56 368.28,-1017.23 371.25,-1020.38 425.81,-1078.06 352.83,-1137.55 407.25,-1195.38 412.64,-1201.1 419.48,-1205.25 426.82,-1208.25"/>
<polygon fill="#63b8ff" stroke="#63b8ff" points="362.76,-1009.16 352.24,-1007.86 359.65,-1015.43 362.76,-1009.16"/>
</a>
</g>
</g>
<!-- Node18 -->
<g id="Node000018" class="node">
<title>Node18</title>
<g id="a_Node000018"><a xlink:href="structnix_1_1CmdFlake.html" target="_top" xlink:title=" ">
<polygon fill="white" stroke="#bfbfbf" points="525.25,-1186.75 439.5,-1186.75 439.5,-1166 525.25,-1166 525.25,-1186.75"/>
<text text-anchor="middle" x="482.38" y="-1173.25" font-family="Helvetica,sans-Serif" font-size="10.00">nix::CmdFlake</text>
</a>
</g>
</g>
<!-- Node15&#45;&gt;Node18 -->
<g id="edge17_Node000015_Node000018" class="edge">
<title>Node15&#45;&gt;Node18</title>
<g id="a_edge17_Node000015_Node000018"><a xlink:title=" ">
<path fill="none" stroke="#63b8ff" d="M361.17,-1012.6C364.83,-1014.79 368.24,-1017.37 371.25,-1020.38 415.47,-1064.58 363.14,-1112.06 407.25,-1156.38 415.81,-1164.97 427.65,-1169.98 439.35,-1172.87"/>
<polygon fill="#63b8ff" stroke="#63b8ff" points="362.86,-1009.53 352.34,-1008.28 359.79,-1015.82 362.86,-1009.53"/>
</a>
</g>
</g>
<!-- Node19 -->
<g id="Node000019" class="node">
<title>Node19</title>
<g id="a_Node000019"><a xlink:href="structnix_1_1CmdHash.html" target="_top" xlink:title=" ">
<polygon fill="white" stroke="#bfbfbf" points="524.5,-1147.75 440.25,-1147.75 440.25,-1127 524.5,-1127 524.5,-1147.75"/>
<text text-anchor="middle" x="482.38" y="-1134.25" font-family="Helvetica,sans-Serif" font-size="10.00">nix::CmdHash</text>
</a>
</g>
</g>
<!-- Node15&#45;&gt;Node19 -->
<g id="edge18_Node000015_Node000019" class="edge">
<title>Node15&#45;&gt;Node19</title>
<g id="a_edge18_Node000015_Node000019"><a xlink:title=" ">
<path fill="none" stroke="#63b8ff" d="M361.03,-1013.05C364.7,-1015.14 368.15,-1017.56 371.25,-1020.38 405.3,-1051.28 373.28,-1086.39 407.25,-1117.38 416.21,-1125.55 428.17,-1130.44 439.86,-1133.35"/>
<polygon fill="#63b8ff" stroke="#63b8ff" points="362.8,-1010.01 352.26,-1008.91 359.81,-1016.34 362.8,-1010.01"/>
</a>
</g>
</g>
<!-- Node20 -->
<g id="Node000020" class="node">
<title>Node20</title>
<g id="a_Node000020"><a xlink:href="structnix_1_1CmdKey.html" target="_top" xlink:title=" ">
<polygon fill="white" stroke="#bfbfbf" points="521.12,-1108.75 443.62,-1108.75 443.62,-1088 521.12,-1088 521.12,-1108.75"/>
<text text-anchor="middle" x="482.38" y="-1095.25" font-family="Helvetica,sans-Serif" font-size="10.00">nix::CmdKey</text>
</a>
</g>
</g>
<!-- Node15&#45;&gt;Node20 -->
<g id="edge19_Node000015_Node000020" class="edge">
<title>Node15&#45;&gt;Node20</title>
<g id="a_edge19_Node000015_Node000020"><a xlink:title=" ">
<path fill="none" stroke="#63b8ff" d="M361.14,-1014.16C364.69,-1015.98 368.1,-1018.04 371.25,-1020.38 395.64,-1038.42 382.9,-1060.27 407.25,-1078.38 417.73,-1086.17 431.05,-1090.93 443.5,-1093.83"/>
<polygon fill="#63b8ff" stroke="#63b8ff" points="362.73,-1011.04 352.17,-1010.25 359.93,-1017.46 362.73,-1011.04"/>
</a>
</g>
</g>
<!-- Node21 -->
<g id="Node000021" class="node">
<title>Node21</title>
<g id="a_Node000021"><a xlink:href="structnix_1_1CmdNar.html" target="_top" xlink:title=" ">
<polygon fill="white" stroke="#bfbfbf" points="520.75,-1069.75 444,-1069.75 444,-1049 520.75,-1049 520.75,-1069.75"/>
<text text-anchor="middle" x="482.38" y="-1056.25" font-family="Helvetica,sans-Serif" font-size="10.00">nix::CmdNar</text>
</a>
</g>
</g>
<!-- Node15&#45;&gt;Node21 -->
<g id="edge20_Node000015_Node000021" class="edge">
<title>Node15&#45;&gt;Node21</title>
<g id="a_edge20_Node000015_Node000021"><a xlink:title=" ">
<path fill="none" stroke="#63b8ff" d="M353.96,-1014.37C359.86,-1016.21 365.72,-1018.21 371.25,-1020.38 388.1,-1026.95 390.41,-1032.76 407.25,-1039.38 418.79,-1043.91 431.72,-1047.79 443.52,-1050.89"/>
<polygon fill="#63b8ff" stroke="#63b8ff" points="355.39,-1011.14 344.81,-1011.66 353.4,-1017.85 355.39,-1011.14"/>
</a>
</g>
</g>
<!-- Node22 -->
<g id="Node000022" class="node">
<title>Node22</title>
<g id="a_Node000022"><a xlink:href="structnix_1_1CmdProfile.html" target="_top" xlink:title=" ">
<polygon fill="white" stroke="#bfbfbf" points="527.5,-1030.75 437.25,-1030.75 437.25,-1010 527.5,-1010 527.5,-1030.75"/>
<text text-anchor="middle" x="482.38" y="-1017.25" font-family="Helvetica,sans-Serif" font-size="10.00">nix::CmdProfile</text>
</a>
</g>
</g>
<!-- Node15&#45;&gt;Node22 -->
<g id="edge21_Node000015_Node000022" class="edge">
<title>Node15&#45;&gt;Node22</title>
<g id="a_edge21_Node000015_Node000022"><a xlink:title=" ">
<path fill="none" stroke="#63b8ff" d="M362.26,-1007.55C387,-1010.21 414.46,-1013.17 436.77,-1015.57"/>
<polygon fill="#63b8ff" stroke="#63b8ff" points="362.93,-1004.1 352.61,-1006.51 362.18,-1011.06 362.93,-1004.1"/>
</a>
</g>
</g>
<!-- Node23 -->
<g id="Node000023" class="node">
<title>Node23</title>
<g id="a_Node000023"><a xlink:href="structnix_1_1CmdRealisation.html" target="_top" xlink:title=" ">
<polygon fill="white" stroke="#bfbfbf" points="539.5,-991.75 425.25,-991.75 425.25,-971 539.5,-971 539.5,-991.75"/>
<text text-anchor="middle" x="482.38" y="-978.25" font-family="Helvetica,sans-Serif" font-size="10.00">nix::CmdRealisation</text>
</a>
</g>
</g>
<!-- Node15&#45;&gt;Node23 -->
<g id="edge22_Node000015_Node000023" class="edge">
<title>Node15&#45;&gt;Node23</title>
<g id="a_edge22_Node000015_Node000023"><a xlink:title=" ">
<path fill="none" stroke="#63b8ff" d="M362.28,-993.56C382.78,-991.46 405.14,-989.17 424.9,-987.15"/>
<polygon fill="#63b8ff" stroke="#63b8ff" points="362.2,-990.05 352.61,-994.55 362.91,-997.01 362.2,-990.05"/>
</a>
</g>
</g>
<!-- Node24 -->
<g id="Node000024" class="node">
<title>Node24</title>
<g id="a_Node000024"><a xlink:href="structnix_1_1CmdRegistry.html" target="_top" xlink:title=" ">
<polygon fill="white" stroke="#bfbfbf" points="532.38,-952.75 432.38,-952.75 432.38,-932 532.38,-932 532.38,-952.75"/>
<text text-anchor="middle" x="482.38" y="-939.25" font-family="Helvetica,sans-Serif" font-size="10.00">nix::CmdRegistry</text>
</a>
</g>
</g>
<!-- Node15&#45;&gt;Node24 -->
<g id="edge23_Node000015_Node000024" class="edge">
<title>Node15&#45;&gt;Node24</title>
<g id="a_edge23_Node000015_Node000024"><a xlink:title=" ">
<path fill="none" stroke="#63b8ff" d="M336.57,-985.73C357.6,-978.39 383.68,-969.56 407.25,-962.38 417.58,-959.23 428.79,-956.07 439.29,-953.22"/>
<polygon fill="#63b8ff" stroke="#63b8ff" points="335.48,-982.4 327.2,-989.02 337.8,-989.01 335.48,-982.4"/>
</a>
</g>
</g>
<!-- Node25 -->
<g id="Node000025" class="node">
<title>Node25</title>
<g id="a_Node000025"><a xlink:href="structnix_1_1CmdStore.html" target="_top" xlink:title=" ">
<polygon fill="white" stroke="#bfbfbf" points="524.88,-913.75 439.88,-913.75 439.88,-893 524.88,-893 524.88,-913.75"/>
<text text-anchor="middle" x="482.38" y="-900.25" font-family="Helvetica,sans-Serif" font-size="10.00">nix::CmdStore</text>
</a>
</g>
</g>
<!-- Node15&#45;&gt;Node25 -->
<g id="edge24_Node000015_Node000025" class="edge">
<title>Node15&#45;&gt;Node25</title>
<g id="a_edge24_Node000015_Node000025"><a xlink:title=" ">
<path fill="none" stroke="#63b8ff" d="M316.76,-982.5C338.27,-965.13 373.19,-939.15 407.25,-923.38 417.41,-918.67 428.88,-914.9 439.71,-911.96"/>
<polygon fill="#63b8ff" stroke="#63b8ff" points="314.82,-979.57 309.31,-988.62 319.26,-984.97 314.82,-979.57"/>
</a>
</g>
</g>
<!-- Node26 -->
<g id="Node000026" class="node">
<title>Node26</title>
<g id="a_Node000026"><a xlink:href="structnix_1_1NixArgs.html" target="_top" xlink:title=" ">
<polygon fill="white" stroke="#bfbfbf" points="520,-874.75 444.75,-874.75 444.75,-854 520,-854 520,-874.75"/>
<text text-anchor="middle" x="482.38" y="-861.25" font-family="Helvetica,sans-Serif" font-size="10.00">nix::NixArgs</text>
</a>
</g>
</g>
<!-- Node15&#45;&gt;Node26 -->
<g id="edge25_Node000015_Node000026" class="edge">
<title>Node15&#45;&gt;Node26</title>
<g id="a_edge25_Node000015_Node000026"><a xlink:title=" ">
<path fill="none" stroke="#63b8ff" d="M309.5,-980.27C328.53,-954.23 365.2,-909.24 407.25,-884.38 418.49,-877.73 431.99,-873.24 444.37,-870.23"/>
<polygon fill="#63b8ff" stroke="#63b8ff" points="306.72,-978.14 303.76,-988.32 312.42,-982.21 306.72,-978.14"/>
</a>
</g>
</g>
<!-- Node28 -->
<g id="Node000028" class="node">
<title>Node28</title>
<g id="a_Node000028"><a xlink:href="structnix_1_1CmdAddDerivation.html" target="_top" xlink:title=" ">
<polygon fill="white" stroke="#bfbfbf" points="547,-371.75 417.75,-371.75 417.75,-351 547,-351 547,-371.75"/>
<text text-anchor="middle" x="482.38" y="-358.25" font-family="Helvetica,sans-Serif" font-size="10.00">nix::CmdAddDerivation</text>
</a>
</g>
</g>
<!-- Node27&#45;&gt;Node28 -->
<g id="edge27_Node000027_Node000028" class="edge">
<title>Node27&#45;&gt;Node28</title>
<g id="a_edge27_Node000027_Node000028"><a xlink:title=" ">
<path fill="none" stroke="#63b8ff" d="M336.57,-404.73C357.6,-397.39 383.68,-388.56 407.25,-381.38 417.58,-378.23 428.79,-375.07 439.29,-372.22"/>
<polygon fill="#63b8ff" stroke="#63b8ff" points="335.48,-401.4 327.2,-408.02 337.8,-408.01 335.48,-401.4"/>
</a>
</g>
</g>
<!-- Node29 -->
<g id="Node000029" class="node">
<title>Node29</title>
<g id="a_Node000029"><a xlink:href="structnix_1_1CmdAddToStore.html" target="_top" xlink:title=" ">
<polygon fill="white" stroke="orangered" points="539.5,-332.75 425.25,-332.75 425.25,-312 539.5,-312 539.5,-332.75"/>
<text text-anchor="middle" x="482.38" y="-319.25" font-family="Helvetica,sans-Serif" font-size="10.00">nix::CmdAddToStore</text>
</a>
</g>
</g>
<!-- Node27&#45;&gt;Node29 -->
<g id="edge28_Node000027_Node000029" class="edge">
<title>Node27&#45;&gt;Node29</title>
<g id="a_edge28_Node000027_Node000029"><a xlink:title=" ">
<path fill="none" stroke="#63b8ff" d="M316.76,-401.5C338.27,-384.13 373.19,-358.15 407.25,-342.38 414.99,-338.79 423.49,-335.75 431.89,-333.2"/>
<polygon fill="#63b8ff" stroke="#63b8ff" points="314.82,-398.57 309.31,-407.62 319.26,-403.97 314.82,-398.57"/>
</a>
</g>
</g>
<!-- Node32 -->
<g id="Node000032" class="node">
<title>Node32</title>
<g id="a_Node000032"><a xlink:href="structnix_1_1CmdCatNar.html" target="_top" xlink:title=" ">
<polygon fill="white" stroke="#bfbfbf" points="529,-293.75 435.75,-293.75 435.75,-273 529,-273 529,-293.75"/>
<text text-anchor="middle" x="482.38" y="-280.25" font-family="Helvetica,sans-Serif" font-size="10.00">nix::CmdCatNar</text>
</a>
</g>
</g>
<!-- Node27&#45;&gt;Node32 -->
<g id="edge30_Node000027_Node000032" class="edge">
<title>Node27&#45;&gt;Node32</title>
<g id="a_edge30_Node000027_Node000032"><a xlink:title=" ">
<path fill="none" stroke="#63b8ff" d="M309.5,-399.27C328.53,-373.23 365.2,-328.24 407.25,-303.38 415.85,-298.29 425.78,-294.46 435.51,-291.6"/>
<polygon fill="#63b8ff" stroke="#63b8ff" points="306.72,-397.14 303.76,-407.32 312.42,-401.21 306.72,-397.14"/>
</a>
</g>
</g>
<!-- Node33 -->
<g id="Node000033" class="node">
<title>Node33</title>
<g id="a_Node000033"><a xlink:href="structnix_1_1CmdCatStore.html" target="_top" xlink:title=" ">
<polygon fill="white" stroke="#bfbfbf" points="533.12,-254.75 431.62,-254.75 431.62,-234 533.12,-234 533.12,-254.75"/>
<text text-anchor="middle" x="482.38" y="-241.25" font-family="Helvetica,sans-Serif" font-size="10.00">nix::CmdCatStore</text>
</a>
</g>
</g>
<!-- Node27&#45;&gt;Node33 -->
<g id="edge31_Node000027_Node000033" class="edge">
<title>Node27&#45;&gt;Node33</title>
<g id="a_edge31_Node000027_Node000033"><a xlink:title=" ">
<path fill="none" stroke="#63b8ff" d="M304.93,-398.37C320.9,-364.8 356.75,-299.3 407.25,-264.38 414.49,-259.37 422.92,-255.62 431.45,-252.8"/>
<polygon fill="#63b8ff" stroke="#63b8ff" points="301.76,-396.88 300.76,-407.43 308.12,-399.81 301.76,-396.88"/>
</a>
</g>
</g>
<!-- Node34 -->
<g id="Node000034" class="node">
<title>Node34</title>
<g id="a_Node000034"><a xlink:href="structnix_1_1CmdDaemon.html" target="_top" xlink:title=" ">
<polygon fill="white" stroke="#bfbfbf" points="532.75,-215.75 432,-215.75 432,-195 532.75,-195 532.75,-215.75"/>
<text text-anchor="middle" x="482.38" y="-202.25" font-family="Helvetica,sans-Serif" font-size="10.00">nix::CmdDaemon</text>
</a>
</g>
</g>
<!-- Node27&#45;&gt;Node34 -->
<g id="edge32_Node000027_Node000034" class="edge">
<title>Node27&#45;&gt;Node34</title>
<g id="a_edge32_Node000027_Node000034"><a xlink:title=" ">
<path fill="none" stroke="#63b8ff" d="M301.96,-397.67C314.86,-357.37 348.09,-270.92 407.25,-225.38 414.43,-219.85 423.03,-215.84 431.78,-212.95"/>
<polygon fill="#63b8ff" stroke="#63b8ff" points="298.63,-396.57 299.04,-407.16 305.33,-398.63 298.63,-396.57"/>
</a>
</g>
</g>
<!-- Node35 -->
<g id="Node000035" class="node">
<title>Node35</title>
<g id="a_Node000035"><a xlink:href="structnix_1_1CmdDoctor.html" target="_top" xlink:title=" ">
<polygon fill="white" stroke="#bfbfbf" points="528.25,-176.75 436.5,-176.75 436.5,-156 528.25,-156 528.25,-176.75"/>
<text text-anchor="middle" x="482.38" y="-163.25" font-family="Helvetica,sans-Serif" font-size="10.00">nix::CmdDoctor</text>
</a>
</g>
</g>
<!-- Node27&#45;&gt;Node35 -->
<g id="edge33_Node000027_Node000035" class="edge">
<title>Node27&#45;&gt;Node35</title>
<g id="a_edge33_Node000027_Node000035"><a xlink:title=" ">
<path fill="none" stroke="#63b8ff" d="M299.72,-397.56C309.58,-351.34 339.02,-243.12 407.25,-186.38 415.45,-179.56 425.76,-175.05 436.07,-172.07"/>
<polygon fill="#63b8ff" stroke="#63b8ff" points="296.34,-396.65 297.79,-407.14 303.2,-398.03 296.34,-396.65"/>
</a>
</g>
</g>
<!-- Node36 -->
<g id="Node000036" class="node">
<title>Node36</title>
<g id="a_Node000036"><a xlink:href="structnix_1_1CmdLsStore.html" target="_top" xlink:title=" ">
<polygon fill="white" stroke="#bfbfbf" points="530.12,-137.75 434.62,-137.75 434.62,-117 530.12,-117 530.12,-137.75"/>
<text text-anchor="middle" x="482.38" y="-124.25" font-family="Helvetica,sans-Serif" font-size="10.00">nix::CmdLsStore</text>
</a>
</g>
</g>
<!-- Node27&#45;&gt;Node36 -->
<g id="edge34_Node000027_Node000036" class="edge">
<title>Node27&#45;&gt;Node36</title>
<g id="a_edge34_Node000027_Node000036"><a xlink:title=" ">
<path fill="none" stroke="#63b8ff" d="M298.12,-397.19C305.14,-345.35 329.94,-215.52 407.25,-147.38 414.85,-140.68 424.47,-136.19 434.24,-133.2"/>
<polygon fill="#63b8ff" stroke="#63b8ff" points="294.64,-396.75 296.88,-407.1 301.59,-397.61 294.64,-396.75"/>
</a>
</g>
</g>
<!-- Node37 -->
<g id="Node000037" class="node">
<title>Node37</title>
<g id="a_Node000037"><a xlink:href="structnix_1_1CmdOptimiseStore.html" target="_top" xlink:title=" ">
<polygon fill="white" stroke="#bfbfbf" points="547,-98.75 417.75,-98.75 417.75,-78 547,-78 547,-98.75"/>
<text text-anchor="middle" x="482.38" y="-85.25" font-family="Helvetica,sans-Serif" font-size="10.00">nix::CmdOptimiseStore</text>
</a>
</g>
</g>
<!-- Node27&#45;&gt;Node37 -->
<g id="edge35_Node000027_Node000037" class="edge">
<title>Node27&#45;&gt;Node37</title>
<g id="a_edge35_Node000027_Node000037"><a xlink:title=" ">
<path fill="none" stroke="#63b8ff" d="M296.83,-397.17C301.13,-340.3 320.59,-188.28 407.25,-108.38 411.27,-104.67 415.9,-101.64 420.85,-99.16"/>
<polygon fill="#63b8ff" stroke="#63b8ff" points="293.33,-396.93 296.17,-407.14 300.32,-397.39 293.33,-396.93"/>
</a>
</g>
</g>
<!-- Node38 -->
<g id="Node000038" class="node">
<title>Node38</title>
<g id="a_Node000038"><a xlink:href="structnix_1_1CmdPathFromHashPart.html" target="_top" xlink:title=" ">
<polygon fill="white" stroke="#bfbfbf" points="556.75,-59.75 408,-59.75 408,-39 556.75,-39 556.75,-59.75"/>
<text text-anchor="middle" x="482.38" y="-46.25" font-family="Helvetica,sans-Serif" font-size="10.00">nix::CmdPathFromHashPart</text>
</a>
</g>
</g>
<!-- Node27&#45;&gt;Node38 -->
<g id="edge36_Node000027_Node000038" class="edge">
<title>Node27&#45;&gt;Node38</title>
<g id="a_edge36_Node000027_Node000038"><a xlink:title=" ">
<path fill="none" stroke="#63b8ff" d="M295.8,-397.33C297.51,-335.9 311.05,-161.33 407.25,-69.38 411.1,-65.69 415.56,-62.67 420.35,-60.19"/>
<polygon fill="#63b8ff" stroke="#63b8ff" points="292.3,-397.07 295.61,-407.13 299.3,-397.2 292.3,-397.07"/>
</a>
</g>
</g>
<!-- Node39 -->
<g id="Node000039" class="node">
<title>Node39</title>
<g id="a_Node000039"><a xlink:href="structnix_1_1CmdPingStore.html" target="_top" xlink:title=" ">
<polygon fill="white" stroke="#bfbfbf" points="535.38,-20.75 429.38,-20.75 429.38,0 535.38,0 535.38,-20.75"/>
<text text-anchor="middle" x="482.38" y="-7.25" font-family="Helvetica,sans-Serif" font-size="10.00">nix::CmdPingStore</text>
</a>
</g>
</g>
<!-- Node27&#45;&gt;Node39 -->
<g id="edge37_Node000027_Node000039" class="edge">
<title>Node27&#45;&gt;Node39</title>
<g id="a_edge37_Node000027_Node000039"><a xlink:title=" ">
<path fill="none" stroke="#63b8ff" d="M294.96,-397.12C294.28,-331.08 301.62,-134.34 407.25,-30.38 413.33,-24.39 421,-20.15 429.09,-17.15"/>
<polygon fill="#63b8ff" stroke="#63b8ff" points="291.46,-397.08 295.15,-407.01 298.46,-396.94 291.46,-397.08"/>
</a>
</g>
</g>
<!-- Node40 -->
<g id="Node000040" class="node">
<title>Node40</title>
<g id="a_Node000040"><a xlink:href="structnix_1_1CmdProfileDiffClosures.html" target="_top" xlink:title=" ">
<polygon fill="white" stroke="orangered" points="557.12,-796.75 407.62,-796.75 407.62,-776 557.12,-776 557.12,-796.75"/>
<text text-anchor="middle" x="482.38" y="-783.25" font-family="Helvetica,sans-Serif" font-size="10.00">nix::CmdProfileDiffClosures</text>
</a>
</g>
</g>
<!-- Node27&#45;&gt;Node40 -->
<g id="edge38_Node000027_Node000040" class="edge">
<title>Node27&#45;&gt;Node40</title>
<g id="a_edge38_Node000027_Node000040"><a xlink:title=" ">
<path fill="none" stroke="#63b8ff" d="M296.21,-441.53C299.03,-501.82 315.18,-670.45 407.25,-762.38 412.9,-768.01 419.88,-772.33 427.28,-775.63"/>
<polygon fill="#63b8ff" stroke="#63b8ff" points="299.71,-441.46 295.84,-431.6 292.72,-441.72 299.71,-441.46"/>
</a>
</g>
</g>
<!-- Node41 -->
<g id="Node000041" class="node">
<title>Node41</title>
<g id="a_Node000041"><a xlink:href="structnix_1_1CmdProfileHistory.html" target="_top" xlink:title=" ">
<polygon fill="white" stroke="orangered" points="719,-739.75 593.5,-739.75 593.5,-719 719,-719 719,-739.75"/>
<text text-anchor="middle" x="656.25" y="-726.25" font-family="Helvetica,sans-Serif" font-size="10.00">nix::CmdProfileHistory</text>
</a>
</g>
</g>
<!-- Node27&#45;&gt;Node41 -->
<g id="edge39_Node000027_Node000041" class="edge">
<title>Node27&#45;&gt;Node41</title>
<g id="a_edge39_Node000027_Node000041"><a xlink:title=" ">
<path fill="none" stroke="#63b8ff" d="M295.67,-441.37C297.14,-500.18 310.24,-661.2 407.25,-729.38 472.07,-774.93 571.83,-755 622.81,-740.18"/>
<polygon fill="#63b8ff" stroke="#63b8ff" points="299.18,-441.61 295.53,-431.67 292.18,-441.72 299.18,-441.61"/>
</a>
</g>
</g>
<!-- Node42 -->
<g id="Node000042" class="node">
<title>Node42</title>
<g id="a_Node000042"><a xlink:href="structnix_1_1CmdProfileList.html" target="_top" xlink:title=" ">
<polygon fill="white" stroke="orangered" points="710,-564.75 602.5,-564.75 602.5,-544 710,-544 710,-564.75"/>
<text text-anchor="middle" x="656.25" y="-551.25" font-family="Helvetica,sans-Serif" font-size="10.00">nix::CmdProfileList</text>
</a>
</g>
</g>
<!-- Node27&#45;&gt;Node42 -->
<g id="edge40_Node000027_Node000042" class="edge">
<title>Node27&#45;&gt;Node42</title>
<g id="a_edge40_Node000027_Node000042"><a xlink:title=" ">
<path fill="none" stroke="#63b8ff" d="M362.63,-417.73C417.68,-418.96 496.29,-426.83 557.5,-457.38 599,-478.08 633.74,-523.11 648.13,-543.71"/>
<polygon fill="#63b8ff" stroke="#63b8ff" points="362.82,-414.23 352.77,-417.58 362.71,-421.23 362.82,-414.23"/>
</a>
</g>
</g>
<!-- Node43 -->
<g id="Node000043" class="node">
<title>Node43</title>
<g id="a_Node000043"><a xlink:href="structnix_1_1CmdProfileRollback.html" target="_top" xlink:title=" ">
<polygon fill="white" stroke="orangered" points="548.5,-681.75 416.25,-681.75 416.25,-661 548.5,-661 548.5,-681.75"/>
<text text-anchor="middle" x="482.38" y="-668.25" font-family="Helvetica,sans-Serif" font-size="10.00">nix::CmdProfileRollback</text>
</a>
</g>
</g>
<!-- Node27&#45;&gt;Node43 -->
<g id="edge41_Node000027_Node000043" class="edge">
<title>Node27&#45;&gt;Node43</title>
<g id="a_edge41_Node000027_Node000043"><a xlink:title=" ">
<path fill="none" stroke="#63b8ff" d="M299.75,-441.1C309.66,-487.13 339.21,-594.88 407.25,-651.38 411.76,-655.12 416.91,-658.17 422.35,-660.65"/>
<polygon fill="#63b8ff" stroke="#63b8ff" points="303.24,-440.66 297.81,-431.56 296.38,-442.06 303.24,-440.66"/>
</a>
</g>
</g>
<!-- Node44 -->
<g id="Node000044" class="node">
<title>Node44</title>
<g id="a_Node000044"><a xlink:href="structnix_1_1CmdProfileWipeHistory.html" target="_top" xlink:title=" ">
<polygon fill="white" stroke="orangered" points="557.5,-642.75 407.25,-642.75 407.25,-622 557.5,-622 557.5,-642.75"/>
<text text-anchor="middle" x="482.38" y="-629.25" font-family="Helvetica,sans-Serif" font-size="10.00">nix::CmdProfileWipeHistory</text>
</a>
</g>
</g>
<!-- Node27&#45;&gt;Node44 -->
<g id="edge42_Node000027_Node000044" class="edge">
<title>Node27&#45;&gt;Node44</title>
<g id="a_edge42_Node000027_Node000044"><a xlink:title=" ">
<path fill="none" stroke="#63b8ff" d="M301.99,-440.96C314.95,-481.07 348.27,-567.07 407.25,-612.38 412.11,-616.11 417.62,-619.15 423.39,-621.62"/>
<polygon fill="#63b8ff" stroke="#63b8ff" points="305.37,-440.05 299.07,-431.53 298.68,-442.12 305.37,-440.05"/>
</a>
</g>
</g>
<!-- Node45 -->
<g id="Node000045" class="node">
<title>Node45</title>
<g id="a_Node000045"><a xlink:href="structnix_1_1CmdRegistryList.html" target="_top" xlink:title=" ">
<polygon fill="white" stroke="#bfbfbf" points="541,-603.75 423.75,-603.75 423.75,-583 541,-583 541,-603.75"/>
<text text-anchor="middle" x="482.38" y="-590.25" font-family="Helvetica,sans-Serif" font-size="10.00">nix::CmdRegistryList</text>
</a>
</g>
</g>
<!-- Node27&#45;&gt;Node45 -->
<g id="edge43_Node000027_Node000045" class="edge">
<title>Node27&#45;&gt;Node45</title>
<g id="a_edge43_Node000027_Node000045"><a xlink:title=" ">
<path fill="none" stroke="#63b8ff" d="M304.97,-440.25C320.99,-473.6 356.91,-538.67 407.25,-573.38 412.63,-577.08 418.66,-580.1 424.9,-582.56"/>
<polygon fill="#63b8ff" stroke="#63b8ff" points="308.17,-438.84 300.78,-431.25 301.83,-441.79 308.17,-438.84"/>
</a>
</g>
</g>
<!-- Node46 -->
<g id="Node000046" class="node">
<title>Node46</title>
<g id="a_Node000046"><a xlink:href="structnix_1_1CmdStoreGC.html" target="_top" xlink:title=" ">
<polygon fill="white" stroke="#bfbfbf" points="532,-564.75 432.75,-564.75 432.75,-544 532,-544 532,-564.75"/>
<text text-anchor="middle" x="482.38" y="-551.25" font-family="Helvetica,sans-Serif" font-size="10.00">nix::CmdStoreGC</text>
</a>
</g>
</g>
<!-- Node27&#45;&gt;Node46 -->
<g id="edge44_Node000027_Node000046" class="edge">
<title>Node27&#45;&gt;Node46</title>
<g id="a_edge44_Node000027_Node000046"><a xlink:title=" ">
<path fill="none" stroke="#63b8ff" d="M309.54,-439.3C328.62,-465.11 365.33,-509.71 407.25,-534.38 414.95,-538.9 423.69,-542.43 432.41,-545.17"/>
<polygon fill="#63b8ff" stroke="#63b8ff" points="312.48,-437.39 303.79,-431.33 306.81,-441.49 312.48,-437.39"/>
</a>
</g>
</g>
<!-- Node47 -->
<g id="Node000047" class="node">
<title>Node47</title>
<g id="a_Node000047"><a xlink:href="structnix_1_1CmdStorePrefetchFile.html" target="_top" xlink:title=" ">
<polygon fill="white" stroke="#bfbfbf" points="553.75,-525.75 411,-525.75 411,-505 553.75,-505 553.75,-525.75"/>
<text text-anchor="middle" x="482.38" y="-512.25" font-family="Helvetica,sans-Serif" font-size="10.00">nix::CmdStorePrefetchFile</text>
</a>
</g>
</g>
<!-- Node27&#45;&gt;Node47 -->
<g id="edge45_Node000027_Node000047" class="edge">
<title>Node27&#45;&gt;Node47</title>
<g id="a_edge45_Node000027_Node000047"><a xlink:title=" ">
<path fill="none" stroke="#63b8ff" d="M317.09,-437.24C338.65,-454.36 373.44,-479.84 407.25,-495.38 415,-498.94 423.51,-501.97 431.91,-504.51"/>
<polygon fill="#63b8ff" stroke="#63b8ff" points="319.32,-434.54 309.35,-430.97 314.92,-439.98 319.32,-434.54"/>
</a>
</g>
</g>
<!-- Node48 -->
<g id="Node000048" class="node">
<title>Node48</title>
<g id="a_Node000048"><a xlink:href="structnix_1_1CopyCommand.html" target="_top" xlink:title=" ">
<polygon fill="#fff0f0" stroke="red" points="538.38,-486.75 426.38,-486.75 426.38,-466 538.38,-466 538.38,-486.75"/>
<text text-anchor="middle" x="482.38" y="-473.25" font-family="Helvetica,sans-Serif" font-size="10.00">nix::CopyCommand</text>
</a>
</g>
</g>
<!-- Node27&#45;&gt;Node48 -->
<g id="edge46_Node000027_Node000048" class="edge">
<title>Node27&#45;&gt;Node48</title>
<g id="a_edge46_Node000027_Node000048"><a xlink:title=" ">
<path fill="none" stroke="#63b8ff" d="M341.96,-433.59C374.22,-443.49 416.6,-456.5 446.13,-465.56"/>
<polygon fill="#63b8ff" stroke="#63b8ff" points="343.03,-430.26 332.45,-430.67 340.98,-436.95 343.03,-430.26"/>
</a>
</g>
</g>
<!-- Node52 -->
<g id="Node000052" class="node">
<title>Node52</title>
<g id="a_Node000052"><a xlink:href="structnix_1_1EvalCommand.html" target="_top" xlink:title=" ">
<polygon fill="#fff0f0" stroke="red" points="536.5,-720.75 428.25,-720.75 428.25,-700 536.5,-700 536.5,-720.75"/>
<text text-anchor="middle" x="482.38" y="-707.25" font-family="Helvetica,sans-Serif" font-size="10.00">nix::EvalCommand</text>
</a>
</g>
</g>
<!-- Node27&#45;&gt;Node52 -->
<g id="edge47_Node000027_Node000052" class="edge">
<title>Node27&#45;&gt;Node52</title>
<g id="a_edge47_Node000027_Node000052"><a xlink:title=" ">
<path fill="none" stroke="#63b8ff" d="M298.14,-441.48C305.23,-493.13 330.14,-622.5 407.25,-690.38 413.25,-695.66 420.51,-699.57 428.11,-702.45"/>
<polygon fill="#63b8ff" stroke="#63b8ff" points="301.62,-441.09 296.89,-431.61 294.68,-441.97 301.62,-441.09"/>
</a>
</g>
</g>
<!-- Node103 -->
<g id="Node000103" class="node">
<title>Node103</title>
<g id="a_Node000103"><a xlink:href="structnix_1_1MixProfile.html" target="_top" xlink:title=" ">
<polygon fill="white" stroke="orangered" points="525.25,-410.75 439.5,-410.75 439.5,-390 525.25,-390 525.25,-410.75"/>
<text text-anchor="middle" x="482.38" y="-397.25" font-family="Helvetica,sans-Serif" font-size="10.00">nix::MixProfile</text>
</a>
</g>
</g>
<!-- Node27&#45;&gt;Node103 -->
<g id="edge50_Node000027_Node000103" class="edge">
<title>Node27&#45;&gt;Node103</title>
<g id="a_edge50_Node000027_Node000103"><a xlink:title=" ">
<path fill="none" stroke="#63b8ff" d="M362.51,-412.53C388.13,-409.91 416.61,-407 439.27,-404.68"/>
<polygon fill="#63b8ff" stroke="#63b8ff" points="362.45,-409.02 352.86,-413.52 363.17,-415.98 362.45,-409.02"/>
</a>
</g>
</g>
<!-- Node30 -->
<g id="Node000030" class="node">
<title>Node30</title>
<g id="a_Node000030"><a xlink:href="structnix_1_1CmdAddFile.html" target="_top" xlink:title=" ">
<polygon fill="white" stroke="#bfbfbf" points="704,-332.75 608.5,-332.75 608.5,-312 704,-312 704,-332.75"/>
<text text-anchor="middle" x="656.25" y="-319.25" font-family="Helvetica,sans-Serif" font-size="10.00">nix::CmdAddFile</text>
</a>
</g>
</g>
<!-- Node29&#45;&gt;Node30 -->
<g id="edge29_Node000029_Node000030" class="edge">
<title>Node29&#45;&gt;Node30</title>
<g id="a_edge29_Node000029_Node000030"><a xlink:title=" ">
<path fill="none" stroke="#63b8ff" d="M551.02,-322.38C570.1,-322.38 590.45,-322.38 608.05,-322.38"/>
<polygon fill="#63b8ff" stroke="#63b8ff" points="551.17,-318.88 541.17,-322.38 551.17,-325.88 551.17,-318.88"/>
</a>
</g>
</g>
<!-- Node52&#45;&gt;Node41 -->
<g id="edge48_Node000052_Node000041" class="edge">
<title>Node52&#45;&gt;Node41</title>
<g id="a_edge48_Node000052_Node000041"><a xlink:title=" ">
<path fill="none" stroke="#63b8ff" d="M547.92,-717.51C562.72,-719.15 578.42,-720.88 593.12,-722.51"/>
<polygon fill="#63b8ff" stroke="#63b8ff" points="548.64,-714.07 538.32,-716.45 547.87,-721.03 548.64,-714.07"/>
</a>
</g>
</g>
<!-- Node52&#45;&gt;Node42 -->
<g id="edge49_Node000052_Node000042" class="edge">
<title>Node52&#45;&gt;Node42</title>
<g id="a_edge49_Node000052_Node000042"><a xlink:title=" ">
<path fill="none" stroke="#63b8ff" d="M547.22,-696.35C550.82,-694.59 554.28,-692.6 557.5,-690.38 606.03,-656.78 639.06,-590.95 650.66,-565.13"/>
<polygon fill="#63b8ff" stroke="#63b8ff" points="546.04,-693.05 538.18,-700.16 548.76,-699.5 546.04,-693.05"/>
</a>
</g>
</g>
</g>
</svg>
