<?xml version="1.0" encoding="UTF-8" standalone="no"?>
<!DOCTYPE svg PUBLIC "-//W3C//DTD SVG 1.1//EN"
 "http://www.w3.org/Graphics/SVG/1.1/DTD/svg11.dtd">
<!-- Generated by graphviz version 12.2.1 (0)
 -->
<!-- Title: nix::DebugTrace Pages: 1 -->
<svg width="894pt" height="295pt"
 viewBox="0.00 0.00 894.00 295.12" xmlns="http://www.w3.org/2000/svg" xmlns:xlink="http://www.w3.org/1999/xlink">
<g id="graph0" class="graph" transform="scale(1 1) rotate(0) translate(4 291.12)">
<title>nix::DebugTrace</title>
<!-- Node1 -->
<g id="Node000001" class="node">
<title>Node1</title>
<g id="a_Node000001"><a xlink:title=" ">
<polygon fill="#999999" stroke="#666666" points="886,-192.75 792,-192.75 792,-172 886,-172 886,-192.75"/>
<text text-anchor="middle" x="839" y="-179.25" font-family="Helvetica,sans-Serif" font-size="10.00">nix::DebugTrace</text>
</a>
</g>
</g>
<!-- Node2 -->
<g id="Node000002" class="node">
<title>Node2</title>
<g id="a_Node000002"><a xlink:href="structnix_1_1Expr.html" target="_top" xlink:title=" ">
<polygon fill="white" stroke="#bfbfbf" points="191.75,-198.75 133,-198.75 133,-178 191.75,-178 191.75,-198.75"/>
<text text-anchor="middle" x="162.38" y="-185.25" font-family="Helvetica,sans-Serif" font-size="10.00">nix::Expr</text>
</a>
</g>
</g>
<!-- Node2&#45;&gt;Node1 -->
<g id="edge1_Node000001_Node000002" class="edge">
<title>Node2&#45;&gt;Node1</title>
<g id="a_edge1_Node000001_Node000002"><a xlink:title=" ">
<path fill="none" stroke="#9a32cd" stroke-dasharray="5,2" d="M187.71,-205.31C226.16,-230.36 304.13,-274.38 377.5,-274.38 377.5,-274.38 377.5,-274.38 696.88,-274.38 755.95,-274.38 809.67,-217.09 829.7,-192.93"/>
<polygon fill="#9a32cd" stroke="#9a32cd" points="189.9,-202.57 179.64,-199.93 186.02,-208.39 189.9,-202.57"/>
</a>
</g>
<text text-anchor="middle" x="554.25" y="-277.62" font-family="Helvetica,sans-Serif" font-size="10.00" fill="grey"> expr</text>
</g>
<!-- Node5 -->
<g id="Node000005" class="node">
<title>Node5</title>
<g id="a_Node000005"><a xlink:href="structnix_1_1Value.html" target="_top" xlink:title=" ">
<polygon fill="white" stroke="#bfbfbf" points="586.25,-156.75 522.25,-156.75 522.25,-136 586.25,-136 586.25,-156.75"/>
<text text-anchor="middle" x="554.25" y="-143.25" font-family="Helvetica,sans-Serif" font-size="10.00">nix::Value</text>
</a>
</g>
</g>
<!-- Node2&#45;&gt;Node5 -->
<g id="edge13_Node000005_Node000002" class="edge">
<title>Node2&#45;&gt;Node5</title>
<g id="a_edge13_Node000005_Node000002"><a xlink:title=" ">
<path fill="none" stroke="#9a32cd" stroke-dasharray="5,2" d="M203.26,-189.31C267.46,-189.99 397.35,-187.92 504.25,-164.38 512.04,-162.66 520.26,-160 527.7,-157.24"/>
<polygon fill="#9a32cd" stroke="#9a32cd" points="203.62,-185.82 193.57,-189.18 203.52,-192.82 203.62,-185.82"/>
</a>
</g>
<text text-anchor="middle" x="378.5" y="-190.43" font-family="Helvetica,sans-Serif" font-size="10.00" fill="grey"> expr</text>
</g>
<!-- Node9 -->
<g id="Node000009" class="node">
<title>Node9</title>
<g id="a_Node000009"><a xlink:href="structnix_1_1ExprLambda.html" target="_top" xlink:title=" ">
<polygon fill="white" stroke="#bfbfbf" points="427.38,-159.75 329.62,-159.75 329.62,-139 427.38,-139 427.38,-159.75"/>
<text text-anchor="middle" x="378.5" y="-146.25" font-family="Helvetica,sans-Serif" font-size="10.00">nix::ExprLambda</text>
</a>
</g>
</g>
<!-- Node2&#45;&gt;Node9 -->
<g id="edge15_Node000009_Node000002" class="edge">
<title>Node2&#45;&gt;Node9</title>
<g id="a_edge15_Node000009_Node000002"><a xlink:title=" ">
<path fill="none" stroke="#63b8ff" d="M202.75,-181.2C238.41,-174.71 291.06,-165.12 329.24,-158.16"/>
<polygon fill="#63b8ff" stroke="#63b8ff" points="202.51,-177.69 193.3,-182.92 203.76,-184.58 202.51,-177.69"/>
</a>
</g>
</g>
<!-- Node3 -->
<g id="Node000003" class="node">
<title>Node3</title>
<g id="a_Node000003"><a xlink:href="classnix_1_1PosIdx.html" target="_top" xlink:title=" ">
<polygon fill="white" stroke="#bfbfbf" points="69.25,-85.75 0,-85.75 0,-65 69.25,-65 69.25,-85.75"/>
<text text-anchor="middle" x="34.62" y="-72.25" font-family="Helvetica,sans-Serif" font-size="10.00">nix::PosIdx</text>
</a>
</g>
</g>
<!-- Node3&#45;&gt;Node2 -->
<g id="edge2_Node000002_Node000003" class="edge">
<title>Node3&#45;&gt;Node2</title>
<g id="a_edge2_Node000002_Node000003"><a xlink:title=" ">
<path fill="none" stroke="#9a32cd" stroke-dasharray="5,2" d="M53.87,-94.07C71.62,-111.96 99.62,-139.38 125.5,-161.38 132.15,-167.03 139.85,-172.9 146.41,-177.72"/>
<polygon fill="#9a32cd" stroke="#9a32cd" points="56.61,-91.87 47.1,-87.2 51.62,-96.78 56.61,-91.87"/>
</a>
</g>
<text text-anchor="middle" x="97.38" y="-146.6" font-family="Helvetica,sans-Serif" font-size="10.00" fill="grey"> pos</text>
</g>
<!-- Node8 -->
<g id="Node000008" class="node">
<title>Node8</title>
<g id="a_Node000008"><a xlink:href="classnix_1_1Bindings.html" target="_top" xlink:title=" ">
<polygon fill="white" stroke="#666666" points="296.25,-50.75 217.25,-50.75 217.25,-30 296.25,-30 296.25,-50.75"/>
<text text-anchor="middle" x="256.75" y="-37.25" font-family="Helvetica,sans-Serif" font-size="10.00">nix::Bindings</text>
</a>
</g>
</g>
<!-- Node3&#45;&gt;Node8 -->
<g id="edge10_Node000008_Node000003" class="edge">
<title>Node3&#45;&gt;Node8</title>
<g id="a_edge10_Node000008_Node000003"><a xlink:title=" ">
<path fill="none" stroke="#9a32cd" stroke-dasharray="5,2" d="M80.86,-68.18C120.97,-61.8 178.94,-52.59 216.98,-46.54"/>
<polygon fill="#9a32cd" stroke="#9a32cd" points="80.36,-64.72 71.03,-69.75 81.46,-71.63 80.36,-64.72"/>
</a>
</g>
<text text-anchor="middle" x="97.38" y="-69.77" font-family="Helvetica,sans-Serif" font-size="10.00" fill="grey"> pos</text>
</g>
<!-- Node4 -->
<g id="Node000004" class="node">
<title>Node4</title>
<g id="a_Node000004"><a xlink:href="structnix_1_1Env.html" target="_top" xlink:title=" ">
<polygon fill="white" stroke="#bfbfbf" points="723.38,-192.75 668.38,-192.75 668.38,-172 723.38,-172 723.38,-192.75"/>
<text text-anchor="middle" x="695.88" y="-179.25" font-family="Helvetica,sans-Serif" font-size="10.00">nix::Env</text>
</a>
</g>
</g>
<!-- Node4&#45;&gt;Node1 -->
<g id="edge3_Node000001_Node000004" class="edge">
<title>Node4&#45;&gt;Node1</title>
<g id="a_edge3_Node000001_Node000004"><a xlink:title=" ">
<path fill="none" stroke="#9a32cd" stroke-dasharray="5,2" d="M735.23,-182.38C752.68,-182.38 773.47,-182.38 791.78,-182.38"/>
<polygon fill="#9a32cd" stroke="#9a32cd" points="735.27,-178.88 725.27,-182.38 735.27,-185.88 735.27,-178.88"/>
</a>
</g>
<text text-anchor="middle" x="763.12" y="-185.62" font-family="Helvetica,sans-Serif" font-size="10.00" fill="grey"> env</text>
</g>
<!-- Node4&#45;&gt;Node4 -->
<g id="edge4_Node000004_Node000004" class="edge">
<title>Node4&#45;&gt;Node4</title>
<g id="a_edge4_Node000004_Node000004"><a xlink:title=" ">
<path fill="none" stroke="#9a32cd" stroke-dasharray="5,2" d="M684.18,-204.56C685.84,-208.23 689.73,-210.75 695.88,-210.75 707.43,-210.75 711.05,-201.81 706.71,-193.15"/>
<polygon fill="#9a32cd" stroke="#9a32cd" points="687.67,-204.89 684.93,-194.66 680.69,-204.37 687.67,-204.89"/>
</a>
</g>
<text text-anchor="middle" x="695.88" y="-214" font-family="Helvetica,sans-Serif" font-size="10.00" fill="grey"> up</text>
</g>
<!-- Node4&#45;&gt;Node5 -->
<g id="edge12_Node000005_Node000004" class="edge">
<title>Node4&#45;&gt;Node5</title>
<g id="a_edge12_Node000005_Node000004"><a xlink:title=" ">
<path fill="none" stroke="#9a32cd" stroke-dasharray="5,2" d="M662.29,-165.77C660.64,-164.67 659.03,-163.54 657.5,-162.38 648.29,-155.4 650.13,-148.15 639.5,-143.62 622.94,-136.57 602.84,-136.93 586.43,-139.2"/>
<polygon fill="#9a32cd" stroke="#9a32cd" points="660.37,-168.69 670.74,-170.85 663.98,-162.69 660.37,-168.69"/>
</a>
</g>
<text text-anchor="middle" x="621.88" y="-146.88" font-family="Helvetica,sans-Serif" font-size="10.00" fill="grey"> env</text>
</g>
<!-- Node5&#45;&gt;Node4 -->
<g id="edge5_Node000004_Node000005" class="edge">
<title>Node5&#45;&gt;Node4</title>
<g id="a_edge5_Node000004_Node000005"><a xlink:title=" ">
<path fill="none" stroke="#9a32cd" stroke-dasharray="5,2" d="M597.41,-158.54C599.72,-159.17 602.01,-159.78 604.25,-160.38 625.7,-166.04 650.14,-171.94 668.24,-176.21"/>
<polygon fill="#9a32cd" stroke="#9a32cd" points="598.6,-155.23 588.02,-155.93 596.72,-161.98 598.6,-155.23"/>
</a>
</g>
<text text-anchor="middle" x="621.88" y="-172.44" font-family="Helvetica,sans-Serif" font-size="10.00" fill="grey"> values</text>
</g>
<!-- Node5&#45;&gt;Node5 -->
<g id="edge6_Node000005_Node000005" class="edge">
<title>Node5&#45;&gt;Node5</title>
<g id="a_edge6_Node000005_Node000005"><a xlink:title=" ">
<path fill="none" stroke="#9a32cd" stroke-dasharray="5,2" d="M542.49,-168.56C544.16,-172.23 548.08,-174.75 554.25,-174.75 565.87,-174.75 569.51,-165.81 565.15,-157.15"/>
<polygon fill="#9a32cd" stroke="#9a32cd" points="545.98,-168.89 543.24,-158.66 539,-168.36 545.98,-168.89"/>
</a>
</g>
<text text-anchor="middle" x="554.25" y="-229" font-family="Helvetica,sans-Serif" font-size="10.00" fill="grey"> EMPTY_LIST</text>
<text text-anchor="middle" x="554.25" y="-216.25" font-family="Helvetica,sans-Serif" font-size="10.00" fill="grey">elems</text>
<text text-anchor="middle" x="554.25" y="-203.5" font-family="Helvetica,sans-Serif" font-size="10.00" fill="grey">left</text>
<text text-anchor="middle" x="554.25" y="-190.75" font-family="Helvetica,sans-Serif" font-size="10.00" fill="grey">right</text>
<text text-anchor="middle" x="554.25" y="-178" font-family="Helvetica,sans-Serif" font-size="10.00" fill="grey">smallList</text>
</g>
<!-- Node6 -->
<g id="Node000006" class="node">
<title>Node6</title>
<g id="a_Node000006"><a xlink:href="structnix_1_1checked_1_1Checked.html" target="_top" xlink:title=" ">
<polygon fill="white" stroke="#666666" points="440.5,-121.12 316.5,-121.12 316.5,-87.62 440.5,-87.62 440.5,-121.12"/>
<text text-anchor="start" x="324.5" y="-107.62" font-family="Helvetica,sans-Serif" font-size="10.00">nix::checked::Checked</text>
<text text-anchor="middle" x="378.5" y="-94.88" font-family="Helvetica,sans-Serif" font-size="10.00">&lt; int64_t &gt;</text>
</a>
</g>
</g>
<!-- Node6&#45;&gt;Node5 -->
<g id="edge7_Node000005_Node000006" class="edge">
<title>Node6&#45;&gt;Node5</title>
<g id="a_edge7_Node000005_Node000006"><a xlink:title=" ">
<path fill="none" stroke="#9a32cd" stroke-dasharray="5,2" d="M451.87,-118.28C469.12,-121.96 487.4,-126.16 504.25,-130.62 509.95,-132.14 515.97,-133.92 521.76,-135.72"/>
<polygon fill="#9a32cd" stroke="#9a32cd" points="452.7,-114.87 442.19,-116.25 451.26,-121.73 452.7,-114.87"/>
</a>
</g>
<text text-anchor="middle" x="482.5" y="-133.88" font-family="Helvetica,sans-Serif" font-size="10.00" fill="grey"> integer</text>
</g>
<!-- Node7 -->
<g id="Node000007" class="node">
<title>Node7</title>
<g id="a_Node000007"><a xlink:title=" ">
<polygon fill="white" stroke="#bfbfbf" points="176.78,-113.75 147.97,-113.75 147.97,-93 176.78,-93 176.78,-113.75"/>
<text text-anchor="middle" x="162.38" y="-100.25" font-family="Helvetica,sans-Serif" font-size="10.00">T</text>
</a>
</g>
</g>
<!-- Node7&#45;&gt;Node6 -->
<g id="edge8_Node000006_Node000007" class="edge">
<title>Node7&#45;&gt;Node6</title>
<g id="a_edge8_Node000006_Node000007"><a xlink:title=" ">
<path fill="none" stroke="#9a32cd" stroke-dasharray="5,2" d="M188.58,-103.49C219.73,-103.64 273.81,-103.89 316.15,-104.09"/>
<polygon fill="#9a32cd" stroke="#9a32cd" points="188.63,-99.99 178.61,-103.45 188.59,-106.99 188.63,-99.99"/>
</a>
</g>
<text text-anchor="middle" x="256.75" y="-107.24" font-family="Helvetica,sans-Serif" font-size="10.00" fill="grey"> value</text>
</g>
<!-- Node8&#45;&gt;Node5 -->
<g id="edge9_Node000005_Node000008" class="edge">
<title>Node8&#45;&gt;Node5</title>
<g id="a_edge9_Node000005_Node000008"><a xlink:title=" ">
<path fill="none" stroke="#9a32cd" stroke-dasharray="5,2" d="M308.06,-40.62C346.27,-42.35 399.43,-48.15 442.75,-65.62 483.96,-82.24 523.92,-117.67 542.48,-135.56"/>
<polygon fill="#9a32cd" stroke="#9a32cd" points="308.35,-37.12 298.23,-40.26 308.09,-44.12 308.35,-37.12"/>
</a>
</g>
<text text-anchor="middle" x="378.5" y="-68.88" font-family="Helvetica,sans-Serif" font-size="10.00" fill="grey"> attrs</text>
</g>
<!-- Node8&#45;&gt;Node8 -->
<g id="edge11_Node000008_Node000008" class="edge">
<title>Node8&#45;&gt;Node8</title>
<g id="a_edge11_Node000008_Node000008"><a xlink:title=" ">
<path fill="none" stroke="#9a32cd" stroke-dasharray="5,2" d="M240.34,-62.56C242.66,-66.23 248.13,-68.75 256.75,-68.75 272.97,-68.75 278.04,-59.81 271.96,-51.15"/>
<polygon fill="#9a32cd" stroke="#9a32cd" points="243.82,-62.96 241.38,-52.65 236.86,-62.23 243.82,-62.96"/>
</a>
</g>
<text text-anchor="middle" x="256.75" y="-72" font-family="Helvetica,sans-Serif" font-size="10.00" fill="grey"> EMPTY</text>
</g>
<!-- Node9&#45;&gt;Node5 -->
<g id="edge14_Node000005_Node000009" class="edge">
<title>Node9&#45;&gt;Node5</title>
<g id="a_edge14_Node000005_Node000009"><a xlink:title=" ">
<path fill="none" stroke="#9a32cd" stroke-dasharray="5,2" d="M438.7,-148.35C466.61,-147.87 498.77,-147.32 521.9,-146.92"/>
<polygon fill="#9a32cd" stroke="#9a32cd" points="438.89,-144.85 428.95,-148.52 439.01,-151.85 438.89,-144.85"/>
</a>
</g>
<text text-anchor="middle" x="482.5" y="-151.21" font-family="Helvetica,sans-Serif" font-size="10.00" fill="grey"> fun</text>
</g>
<!-- Node10 -->
<g id="Node000010" class="node">
<title>Node10</title>
<g id="a_Node000010"><a xlink:href="classnix_1_1Symbol.html" target="_top" xlink:title=" ">
<polygon fill="white" stroke="#666666" points="199.25,-152.75 125.5,-152.75 125.5,-132 199.25,-132 199.25,-152.75"/>
<text text-anchor="middle" x="162.38" y="-139.25" font-family="Helvetica,sans-Serif" font-size="10.00">nix::Symbol</text>
</a>
</g>
</g>
<!-- Node10&#45;&gt;Node9 -->
<g id="edge16_Node000009_Node000010" class="edge">
<title>Node10&#45;&gt;Node9</title>
<g id="a_edge16_Node000009_Node000010"><a xlink:title=" ">
<path fill="none" stroke="#9a32cd" stroke-dasharray="5,2" d="M210.66,-142.12C236.04,-142.16 267.86,-142.49 296.25,-143.62 306.99,-144.06 318.51,-144.74 329.41,-145.48"/>
<polygon fill="#9a32cd" stroke="#9a32cd" points="211,-138.62 201,-142.12 211,-145.62 211,-138.62"/>
</a>
</g>
<text text-anchor="middle" x="256.75" y="-146.88" font-family="Helvetica,sans-Serif" font-size="10.00" fill="grey"> name</text>
</g>
<!-- Node11 -->
<g id="Node000011" class="node">
<title>Node11</title>
<g id="a_Node000011"><a xlink:href="structnix_1_1PrimOp.html" target="_top" xlink:title=" ">
<polygon fill="white" stroke="#666666" points="415,-20.75 342,-20.75 342,0 415,0 415,-20.75"/>
<text text-anchor="middle" x="378.5" y="-7.25" font-family="Helvetica,sans-Serif" font-size="10.00">nix::PrimOp</text>
</a>
</g>
</g>
<!-- Node11&#45;&gt;Node5 -->
<g id="edge17_Node000005_Node000011" class="edge">
<title>Node11&#45;&gt;Node5</title>
<g id="a_edge17_Node000005_Node000011"><a xlink:title=" ">
<path fill="none" stroke="#9a32cd" stroke-dasharray="5,2" d="M426.66,-7.08C452.06,-7.72 482.54,-12.66 504.25,-29.62 538.72,-56.56 549.21,-112.17 552.17,-135.59"/>
<polygon fill="#9a32cd" stroke="#9a32cd" points="426.92,-3.58 416.91,-7.06 426.91,-10.58 426.92,-3.58"/>
</a>
</g>
<text text-anchor="middle" x="482.5" y="-32.88" font-family="Helvetica,sans-Serif" font-size="10.00" fill="grey"> primOp</text>
</g>
<!-- Node12 -->
<g id="Node000012" class="node">
<title>Node12</title>
<g id="a_Node000012"><a xlink:title=" ">
<polygon fill="white" stroke="#bfbfbf" points="184.25,-20.75 140.5,-20.75 140.5,0 184.25,0 184.25,-20.75"/>
<text text-anchor="middle" x="162.38" y="-7.25" font-family="Helvetica,sans-Serif" font-size="10.00">string</text>
</a>
</g>
</g>
<!-- Node12&#45;&gt;Node11 -->
<g id="edge18_Node000011_Node000012" class="edge">
<title>Node12&#45;&gt;Node11</title>
<g id="a_edge18_Node000011_Node000012"><a xlink:title=" ">
<path fill="none" stroke="#9a32cd" stroke-dasharray="5,2" d="M195.94,-9.15C202.97,-8.93 210.36,-8.74 217.25,-8.62 252.36,-8.05 261.14,-8.25 296.25,-8.62 311.06,-8.78 327.39,-9.11 341.5,-9.43"/>
<polygon fill="#9a32cd" stroke="#9a32cd" points="196,-5.64 186.12,-9.48 196.23,-12.64 196,-5.64"/>
</a>
</g>
<text text-anchor="middle" x="256.75" y="-11.88" font-family="Helvetica,sans-Serif" font-size="10.00" fill="grey"> name</text>
</g>
<!-- Node13 -->
<g id="Node000013" class="node">
<title>Node13</title>
<g id="a_Node000013"><a xlink:href="classnix_1_1ExternalValueBase.html" target="_top" xlink:title=" ">
<polygon fill="white" stroke="#666666" points="442.75,-246.75 314.25,-246.75 314.25,-226 442.75,-226 442.75,-246.75"/>
<text text-anchor="middle" x="378.5" y="-233.25" font-family="Helvetica,sans-Serif" font-size="10.00">nix::ExternalValueBase</text>
</a>
</g>
</g>
<!-- Node13&#45;&gt;Node5 -->
<g id="edge19_Node000005_Node000013" class="edge">
<title>Node13&#45;&gt;Node5</title>
<g id="a_edge19_Node000005_Node000013"><a xlink:title=" ">
<path fill="none" stroke="#9a32cd" stroke-dasharray="5,2" d="M453.82,-229.07C471.29,-225.04 489.18,-218.85 504.25,-209.38 524.89,-196.39 540.31,-171.48 547.93,-157.18"/>
<polygon fill="#9a32cd" stroke="#9a32cd" points="453.6,-225.54 444.52,-231 455.02,-232.4 453.6,-225.54"/>
</a>
</g>
<text text-anchor="middle" x="482.5" y="-230.05" font-family="Helvetica,sans-Serif" font-size="10.00" fill="grey"> external</text>
</g>
<!-- Node14 -->
<g id="Node000014" class="node">
<title>Node14</title>
<g id="a_Node000014"><a xlink:href="classnix_1_1HintFmt.html" target="_top" xlink:title=" ">
<polygon fill="white" stroke="#666666" points="734.25,-153.75 657.5,-153.75 657.5,-133 734.25,-133 734.25,-153.75"/>
<text text-anchor="middle" x="695.88" y="-140.25" font-family="Helvetica,sans-Serif" font-size="10.00">nix::HintFmt</text>
</a>
</g>
</g>
<!-- Node14&#45;&gt;Node1 -->
<g id="edge20_Node000001_Node000014" class="edge">
<title>Node14&#45;&gt;Node1</title>
<g id="a_edge20_Node000001_Node000014"><a xlink:title=" ">
<path fill="none" stroke="#9a32cd" stroke-dasharray="5,2" d="M745.32,-156.76C762.87,-161.61 782.46,-167.03 799.09,-171.62"/>
<polygon fill="#9a32cd" stroke="#9a32cd" points="746.72,-153.52 736.15,-154.23 744.86,-160.27 746.72,-153.52"/>
</a>
</g>
<text text-anchor="middle" x="763.12" y="-167.29" font-family="Helvetica,sans-Serif" font-size="10.00" fill="grey"> hint</text>
</g>
</g>
</svg>
