<?xml version="1.0" encoding="UTF-8" standalone="no"?>
<!DOCTYPE svg PUBLIC "-//W3C//DTD SVG 1.1//EN"
 "http://www.w3.org/Graphics/SVG/1.1/DTD/svg11.dtd">
<!-- Generated by graphviz version 12.2.1 (0)
 -->
<!-- Title: nix::CompressionSink Pages: 1 -->
<svg width="450pt" height="256pt"
 viewBox="0.00 0.00 450.00 255.75" xmlns="http://www.w3.org/2000/svg" xmlns:xlink="http://www.w3.org/1999/xlink">
<g id="graph0" class="graph" transform="scale(1 1) rotate(0) translate(4 251.75)">
<title>nix::CompressionSink</title>
<!-- Node1 -->
<g id="Node000001" class="node">
<title>Node1</title>
<g id="a_Node000001"><a xlink:title=" ">
<polygon fill="#999999" stroke="#666666" points="319.12,-134.25 197.38,-134.25 197.38,-113.5 319.12,-113.5 319.12,-134.25"/>
<text text-anchor="middle" x="258.25" y="-120.75" font-family="Helvetica,sans-Serif" font-size="10.00">nix::CompressionSink</text>
</a>
</g>
</g>
<!-- Node5 -->
<g id="Node000005" class="node">
<title>Node5</title>
<g id="a_Node000005"><a xlink:href="structnix_1_1ArchiveCompressionSink.html" target="_top" xlink:title=" ">
<polygon fill="white" stroke="#bfbfbf" points="158.5,-77.5 0,-77.5 0,-56.75 158.5,-56.75 158.5,-77.5"/>
<text text-anchor="middle" x="79.25" y="-64" font-family="Helvetica,sans-Serif" font-size="10.00">nix::ArchiveCompressionSink</text>
</a>
</g>
</g>
<!-- Node1&#45;&gt;Node5 -->
<g id="edge5_Node000001_Node000005" class="edge">
<title>Node1&#45;&gt;Node5</title>
<g id="a_edge5_Node000001_Node000005"><a xlink:title=" ">
<path fill="none" stroke="#63b8ff" d="M215.43,-109.78C183.41,-99.99 140.34,-86.81 111.28,-77.92"/>
<polygon fill="#63b8ff" stroke="#63b8ff" points="214.21,-113.07 224.8,-112.64 216.26,-106.37 214.21,-113.07"/>
</a>
</g>
</g>
<!-- Node6 -->
<g id="Node000006" class="node">
<title>Node6</title>
<g id="a_Node000006"><a xlink:href="structnix_1_1ChunkedCompressionSink.html" target="_top" xlink:title=" ">
<polygon fill="white" stroke="#bfbfbf" points="340.12,-77.5 176.38,-77.5 176.38,-56.75 340.12,-56.75 340.12,-77.5"/>
<text text-anchor="middle" x="258.25" y="-64" font-family="Helvetica,sans-Serif" font-size="10.00">nix::ChunkedCompressionSink</text>
</a>
</g>
</g>
<!-- Node1&#45;&gt;Node6 -->
<g id="edge6_Node000001_Node000006" class="edge">
<title>Node1&#45;&gt;Node6</title>
<g id="a_edge6_Node000001_Node000006"><a xlink:title=" ">
<path fill="none" stroke="#63b8ff" d="M258.25,-101.63C258.25,-93.41 258.25,-84.43 258.25,-77.83"/>
<polygon fill="#63b8ff" stroke="#63b8ff" points="254.75,-101.57 258.25,-111.57 261.75,-101.57 254.75,-101.57"/>
</a>
</g>
</g>
<!-- Node8 -->
<g id="Node000008" class="node">
<title>Node8</title>
<g id="a_Node000008"><a xlink:href="structnix_1_1NoneSink.html" target="_top" xlink:title=" ">
<polygon fill="white" stroke="#bfbfbf" points="442,-77.5 358.5,-77.5 358.5,-56.75 442,-56.75 442,-77.5"/>
<text text-anchor="middle" x="400.25" y="-64" font-family="Helvetica,sans-Serif" font-size="10.00">nix::NoneSink</text>
</a>
</g>
</g>
<!-- Node1&#45;&gt;Node8 -->
<g id="edge8_Node000001_Node000008" class="edge">
<title>Node1&#45;&gt;Node8</title>
<g id="a_edge8_Node000001_Node000008"><a xlink:title=" ">
<path fill="none" stroke="#63b8ff" d="M294.27,-108.99C319.52,-99.25 352.64,-86.48 375.08,-77.83"/>
<polygon fill="#63b8ff" stroke="#63b8ff" points="293.12,-105.68 285.05,-112.54 295.64,-112.21 293.12,-105.68"/>
</a>
</g>
</g>
<!-- Node2 -->
<g id="Node000002" class="node">
<title>Node2</title>
<g id="a_Node000002"><a xlink:href="structnix_1_1BufferedSink.html" target="_top" xlink:title=" ">
<polygon fill="white" stroke="#666666" points="252.88,-191 153.62,-191 153.62,-170.25 252.88,-170.25 252.88,-191"/>
<text text-anchor="middle" x="203.25" y="-177.5" font-family="Helvetica,sans-Serif" font-size="10.00">nix::BufferedSink</text>
</a>
</g>
</g>
<!-- Node2&#45;&gt;Node1 -->
<g id="edge1_Node000001_Node000002" class="edge">
<title>Node2&#45;&gt;Node1</title>
<g id="a_edge1_Node000001_Node000002"><a xlink:title=" ">
<path fill="none" stroke="#63b8ff" d="M221.16,-161.8C230.25,-152.75 240.94,-142.11 248.5,-134.58"/>
<polygon fill="#63b8ff" stroke="#63b8ff" points="218.77,-159.23 214.16,-168.77 223.71,-164.19 218.77,-159.23"/>
</a>
</g>
</g>
<!-- Node3 -->
<g id="Node000003" class="node">
<title>Node3</title>
<g id="a_Node000003"><a xlink:href="structnix_1_1Sink.html" target="_top" xlink:title=" ">
<polygon fill="white" stroke="#666666" points="287.25,-247.75 229.25,-247.75 229.25,-227 287.25,-227 287.25,-247.75"/>
<text text-anchor="middle" x="258.25" y="-234.25" font-family="Helvetica,sans-Serif" font-size="10.00">nix::Sink</text>
</a>
</g>
</g>
<!-- Node3&#45;&gt;Node2 -->
<g id="edge2_Node000002_Node000003" class="edge">
<title>Node3&#45;&gt;Node2</title>
<g id="a_edge2_Node000002_Node000003"><a xlink:title=" ">
<path fill="none" stroke="#63b8ff" d="M240.34,-218.55C231.25,-209.5 220.56,-198.86 213,-191.33"/>
<polygon fill="#63b8ff" stroke="#63b8ff" points="237.79,-220.94 247.34,-225.52 242.73,-215.98 237.79,-220.94"/>
</a>
</g>
</g>
<!-- Node4 -->
<g id="Node000004" class="node">
<title>Node4</title>
<g id="a_Node000004"><a xlink:href="structnix_1_1FinishSink.html" target="_top" xlink:title=" ">
<polygon fill="white" stroke="#bfbfbf" points="357.5,-191 271,-191 271,-170.25 357.5,-170.25 357.5,-191"/>
<text text-anchor="middle" x="314.25" y="-177.5" font-family="Helvetica,sans-Serif" font-size="10.00">nix::FinishSink</text>
</a>
</g>
</g>
<!-- Node3&#45;&gt;Node4 -->
<g id="edge4_Node000004_Node000003" class="edge">
<title>Node3&#45;&gt;Node4</title>
<g id="a_edge4_Node000004_Node000003"><a xlink:title=" ">
<path fill="none" stroke="#63b8ff" d="M276.48,-218.55C285.74,-209.5 296.62,-198.86 304.32,-191.33"/>
<polygon fill="#63b8ff" stroke="#63b8ff" points="274.05,-216.04 269.34,-225.53 278.94,-221.04 274.05,-216.04"/>
</a>
</g>
</g>
<!-- Node4&#45;&gt;Node1 -->
<g id="edge3_Node000001_Node000004" class="edge">
<title>Node4&#45;&gt;Node1</title>
<g id="a_edge3_Node000001_Node000004"><a xlink:title=" ">
<path fill="none" stroke="#63b8ff" d="M296.02,-161.8C286.76,-152.75 275.88,-142.11 268.18,-134.58"/>
<polygon fill="#63b8ff" stroke="#63b8ff" points="293.56,-164.29 303.16,-168.78 298.45,-159.29 293.56,-164.29"/>
</a>
</g>
</g>
<!-- Node7 -->
<g id="Node000007" class="node">
<title>Node7</title>
<g id="a_Node000007"><a xlink:href="structnix_1_1BrotliCompressionSink.html" target="_top" xlink:title=" ">
<polygon fill="white" stroke="#bfbfbf" points="332.25,-20.75 184.25,-20.75 184.25,0 332.25,0 332.25,-20.75"/>
<text text-anchor="middle" x="258.25" y="-7.25" font-family="Helvetica,sans-Serif" font-size="10.00">nix::BrotliCompressionSink</text>
</a>
</g>
</g>
<!-- Node6&#45;&gt;Node7 -->
<g id="edge7_Node000006_Node000007" class="edge">
<title>Node6&#45;&gt;Node7</title>
<g id="a_edge7_Node000006_Node000007"><a xlink:title=" ">
<path fill="none" stroke="#63b8ff" d="M258.25,-44.88C258.25,-36.66 258.25,-27.68 258.25,-21.08"/>
<polygon fill="#63b8ff" stroke="#63b8ff" points="254.75,-44.82 258.25,-54.82 261.75,-44.82 254.75,-44.82"/>
</a>
</g>
</g>
</g>
</svg>
