<?xml version="1.0" encoding="UTF-8" standalone="no"?>
<!DOCTYPE svg PUBLIC "-//W3C//DTD SVG 1.1//EN"
 "http://www.w3.org/Graphics/SVG/1.1/DTD/svg11.dtd">
<!-- Generated by graphviz version 12.2.1 (0)
 -->
<!-- Title: nix::MixEnvironment Pages: 1 -->
<svg width="283pt" height="144pt"
 viewBox="0.00 0.00 282.62 144.25" xmlns="http://www.w3.org/2000/svg" xmlns:xlink="http://www.w3.org/1999/xlink">
<g id="graph0" class="graph" transform="scale(1 1) rotate(0) translate(4 140.25)">
<title>nix::MixEnvironment</title>
<!-- Node1 -->
<g id="Node000001" class="node">
<title>Node1</title>
<g id="a_Node000001"><a xlink:title=" ">
<polygon fill="#999999" stroke="#666666" points="117.25,-78.5 0,-78.5 0,-57.75 117.25,-57.75 117.25,-78.5"/>
<text text-anchor="middle" x="58.62" y="-65" font-family="Helvetica,sans-Serif" font-size="10.00">nix::MixEnvironment</text>
</a>
</g>
</g>
<!-- Node2 -->
<g id="Node000002" class="node">
<title>Node2</title>
<g id="a_Node000002"><a xlink:href="classnix_1_1Args.html" target="_top" xlink:title=" ">
<polygon fill="white" stroke="#bfbfbf" points="208,-136.25 149.25,-136.25 149.25,-115.5 208,-115.5 208,-136.25"/>
<text text-anchor="middle" x="178.62" y="-122.75" font-family="Helvetica,sans-Serif" font-size="10.00">nix::Args</text>
</a>
</g>
</g>
<!-- Node2&#45;&gt;Node1 -->
<g id="edge1_Node000001_Node000002" class="edge">
<title>Node2&#45;&gt;Node1</title>
<g id="a_edge1_Node000001_Node000002"><a xlink:title=" ">
<path fill="none" stroke="#63b8ff" d="M147.25,-110.3C125.92,-100.39 98.29,-87.55 79.59,-78.87"/>
<polygon fill="#63b8ff" stroke="#63b8ff" points="145.53,-113.36 156.07,-114.4 148.48,-107.01 145.53,-113.36"/>
</a>
</g>
</g>
<!-- Node4 -->
<g id="Node000004" class="node">
<title>Node4</title>
<g id="a_Node000004"><a xlink:href="structnix_1_1Command.html" target="_top" xlink:title=" ">
<polygon fill="white" stroke="#666666" points="222.25,-78.5 135,-78.5 135,-57.75 222.25,-57.75 222.25,-78.5"/>
<text text-anchor="middle" x="178.62" y="-65" font-family="Helvetica,sans-Serif" font-size="10.00">nix::Command</text>
</a>
</g>
</g>
<!-- Node2&#45;&gt;Node4 -->
<g id="edge4_Node000004_Node000002" class="edge">
<title>Node2&#45;&gt;Node4</title>
<g id="a_edge4_Node000004_Node000002"><a xlink:title=" ">
<path fill="none" stroke="#63b8ff" d="M178.62,-103.93C178.62,-95.27 178.62,-85.65 178.62,-78.72"/>
<polygon fill="#63b8ff" stroke="#63b8ff" points="175.13,-103.65 178.63,-113.65 182.13,-103.65 175.13,-103.65"/>
</a>
</g>
</g>
<!-- Node3 -->
<g id="Node000003" class="node">
<title>Node3</title>
<g id="a_Node000003"><a xlink:href="classnix_1_1MultiCommand.html" target="_top" xlink:title=" ">
<polygon fill="white" stroke="#666666" points="274.62,-20.75 162.62,-20.75 162.62,0 274.62,0 274.62,-20.75"/>
<text text-anchor="middle" x="218.62" y="-7.25" font-family="Helvetica,sans-Serif" font-size="10.00">nix::MultiCommand</text>
</a>
</g>
</g>
<!-- Node3&#45;&gt;Node2 -->
<g id="edge2_Node000002_Node000003" class="edge">
<title>Node3&#45;&gt;Node2</title>
<g id="a_edge2_Node000002_Node000003"><a xlink:title=" ">
<path fill="none" stroke="#9a32cd" stroke-dasharray="5,2" d="M228.55,-31.19C234.02,-44.96 238.45,-63.47 231.62,-78.5 224.4,-94.42 208.71,-107.03 196.27,-115.05"/>
<polygon fill="#9a32cd" stroke="#9a32cd" points="231.85,-29.98 224.56,-22.29 225.46,-32.85 231.85,-29.98"/>
</a>
</g>
<text text-anchor="middle" x="252.34" y="-65" font-family="Helvetica,sans-Serif" font-size="10.00" fill="grey"> parent</text>
</g>
<!-- Node4&#45;&gt;Node3 -->
<g id="edge3_Node000003_Node000004" class="edge">
<title>Node4&#45;&gt;Node3</title>
<g id="a_edge3_Node000003_Node000004"><a xlink:title=" ">
<path fill="none" stroke="#63b8ff" d="M192.17,-48.25C198.74,-39.08 206.37,-28.46 211.74,-20.97"/>
<polygon fill="#63b8ff" stroke="#63b8ff" points="189.46,-46.02 186.47,-56.18 195.15,-50.1 189.46,-46.02"/>
</a>
</g>
</g>
</g>
</svg>
