<?xml version="1.0" encoding="UTF-8" standalone="no"?>
<!DOCTYPE svg PUBLIC "-//W3C//DTD SVG 1.1//EN"
 "http://www.w3.org/Graphics/SVG/1.1/DTD/svg11.dtd">
<!-- Generated by graphviz version 12.2.1 (0)
 -->
<!-- Title: nix::BinaryCacheStoreConfig Pages: 1 -->
<svg width="903pt" height="328pt"
 viewBox="0.00 0.00 902.50 327.51" xmlns="http://www.w3.org/2000/svg" xmlns:xlink="http://www.w3.org/1999/xlink">
<g id="graph0" class="graph" transform="scale(1 1) rotate(0) translate(4 323.51)">
<title>nix::BinaryCacheStoreConfig</title>
<!-- Node1 -->
<g id="Node000001" class="node">
<title>Node1</title>
<g id="a_Node000001"><a xlink:title=" ">
<polygon fill="#999999" stroke="#666666" points="894.5,-177.12 739.75,-177.12 739.75,-156.38 894.5,-156.38 894.5,-177.12"/>
<text text-anchor="middle" x="817.12" y="-163.62" font-family="Helvetica,sans-Serif" font-size="10.00">nix::BinaryCacheStoreConfig</text>
</a>
</g>
</g>
<!-- Node2 -->
<g id="Node000002" class="node">
<title>Node2</title>
<g id="a_Node000002"><a xlink:href="structnix_1_1StoreConfig.html" target="_top" xlink:title=" ">
<polygon fill="white" stroke="#bfbfbf" points="697.62,-177.12 604.38,-177.12 604.38,-156.38 697.62,-156.38 697.62,-177.12"/>
<text text-anchor="middle" x="651" y="-163.62" font-family="Helvetica,sans-Serif" font-size="10.00">nix::StoreConfig</text>
</a>
</g>
</g>
<!-- Node2&#45;&gt;Node1 -->
<g id="edge1_Node000001_Node000002" class="edge">
<title>Node2&#45;&gt;Node1</title>
<g id="a_edge1_Node000001_Node000002"><a xlink:title=" ">
<path fill="none" stroke="#63b8ff" d="M709,-166.75C718.86,-166.75 729.25,-166.75 739.53,-166.75"/>
<polygon fill="#63b8ff" stroke="#63b8ff" points="709.23,-163.25 699.23,-166.75 709.23,-170.25 709.23,-163.25"/>
</a>
</g>
</g>
<!-- Node3 -->
<g id="Node000003" class="node">
<title>Node3</title>
<g id="a_Node000003"><a xlink:href="classnix_1_1Config.html" target="_top" xlink:title=" ">
<polygon fill="white" stroke="#666666" points="413,-177.12 345.25,-177.12 345.25,-156.38 413,-156.38 413,-177.12"/>
<text text-anchor="middle" x="379.12" y="-163.62" font-family="Helvetica,sans-Serif" font-size="10.00">nix::Config</text>
</a>
</g>
</g>
<!-- Node3&#45;&gt;Node2 -->
<g id="edge2_Node000002_Node000003" class="edge">
<title>Node3&#45;&gt;Node2</title>
<g id="a_edge2_Node000002_Node000003"><a xlink:title=" ">
<path fill="none" stroke="#63b8ff" d="M424.8,-166.75C474.39,-166.75 554.01,-166.75 604.09,-166.75"/>
<polygon fill="#63b8ff" stroke="#63b8ff" points="425,-163.25 415,-166.75 425,-170.25 425,-163.25"/>
</a>
</g>
</g>
<!-- Node4 -->
<g id="Node000004" class="node">
<title>Node4</title>
<g id="a_Node000004"><a xlink:href="classnix_1_1AbstractConfig.html" target="_top" xlink:title=" ">
<polygon fill="white" stroke="#bfbfbf" points="265.12,-177.12 156.88,-177.12 156.88,-156.38 265.12,-156.38 265.12,-177.12"/>
<text text-anchor="middle" x="211" y="-163.62" font-family="Helvetica,sans-Serif" font-size="10.00">nix::AbstractConfig</text>
</a>
</g>
</g>
<!-- Node4&#45;&gt;Node3 -->
<g id="edge3_Node000003_Node000004" class="edge">
<title>Node4&#45;&gt;Node3</title>
<g id="a_edge3_Node000003_Node000004"><a xlink:title=" ">
<path fill="none" stroke="#63b8ff" d="M276.75,-166.75C300.13,-166.75 325.54,-166.75 345.07,-166.75"/>
<polygon fill="#63b8ff" stroke="#63b8ff" points="276.99,-163.25 266.99,-166.75 276.99,-170.25 276.99,-163.25"/>
</a>
</g>
</g>
<!-- Node5 -->
<g id="Node000005" class="node">
<title>Node5</title>
<g id="a_Node000005"><a xlink:href="classnix_1_1PathsSetting.html" target="_top" xlink:title=" ">
<polygon fill="white" stroke="#666666" points="432.12,-228.5 326.12,-228.5 326.12,-195 432.12,-195 432.12,-228.5"/>
<text text-anchor="start" x="334.12" y="-215" font-family="Helvetica,sans-Serif" font-size="10.00">nix::PathsSetting&lt;</text>
<text text-anchor="middle" x="379.12" y="-202.25" font-family="Helvetica,sans-Serif" font-size="10.00"> Path &gt;</text>
</a>
</g>
</g>
<!-- Node5&#45;&gt;Node2 -->
<g id="edge4_Node000002_Node000005" class="edge">
<title>Node5&#45;&gt;Node2</title>
<g id="a_edge4_Node000002_Node000005"><a xlink:title=" ">
<path fill="none" stroke="#9a32cd" stroke-dasharray="5,2" d="M443.64,-201.16C492.88,-192.95 559.95,-181.76 604.08,-174.41"/>
<polygon fill="#9a32cd" stroke="#9a32cd" points="443.26,-197.67 433.97,-202.77 444.41,-204.58 443.26,-197.67"/>
</a>
</g>
<text text-anchor="middle" x="523.75" y="-200.44" font-family="Helvetica,sans-Serif" font-size="10.00" fill="grey"> storeDir_</text>
</g>
<!-- Node6 -->
<g id="Node000006" class="node">
<title>Node6</title>
<g id="a_Node000006"><a xlink:href="classnix_1_1BaseSetting.html" target="_top" xlink:title=" ">
<polygon fill="white" stroke="#666666" points="273,-222.12 149,-222.12 149,-201.38 273,-201.38 273,-222.12"/>
<text text-anchor="middle" x="211" y="-208.62" font-family="Helvetica,sans-Serif" font-size="10.00">nix::BaseSetting&lt; T &gt;</text>
</a>
</g>
</g>
<!-- Node6&#45;&gt;Node5 -->
<g id="edge5_Node000005_Node000006" class="edge">
<title>Node6&#45;&gt;Node5</title>
<g id="a_edge5_Node000005_Node000006"><a xlink:title=" ">
<path fill="none" stroke="#63b8ff" d="M284.83,-211.75C298.59,-211.75 312.74,-211.75 325.72,-211.75"/>
<polygon fill="#63b8ff" stroke="#63b8ff" points="284.9,-208.25 274.9,-211.75 284.9,-215.25 284.9,-208.25"/>
</a>
</g>
</g>
<!-- Node16 -->
<g id="Node000016" class="node">
<title>Node16</title>
<g id="a_Node000016"><a xlink:href="classnix_1_1Setting.html" target="_top" xlink:title=" ">
<polygon fill="white" stroke="#bfbfbf" points="581.25,-287.12 466.25,-287.12 466.25,-266.38 581.25,-266.38 581.25,-287.12"/>
<text text-anchor="middle" x="523.75" y="-273.62" font-family="Helvetica,sans-Serif" font-size="10.00">nix::Setting&lt; Path &gt;</text>
</a>
</g>
</g>
<!-- Node6&#45;&gt;Node16 -->
<g id="edge21_Node000016_Node000006" class="edge">
<title>Node6&#45;&gt;Node16</title>
<g id="a_edge21_Node000016_Node000006"><a xlink:title=" ">
<path fill="none" stroke="#63b8ff" d="M261,-225.55C276.6,-229.73 293.97,-234.16 310,-237.75 362.58,-249.53 423.06,-260.35 466.07,-267.6"/>
<polygon fill="#63b8ff" stroke="#63b8ff" points="262.02,-222.2 251.45,-222.97 260.19,-228.96 262.02,-222.2"/>
</a>
</g>
</g>
<!-- Node7 -->
<g id="Node000007" class="node">
<title>Node7</title>
<g id="a_Node000007"><a xlink:href="classnix_1_1AbstractSetting.html" target="_top" xlink:title=" ">
<polygon fill="white" stroke="#bfbfbf" points="112,-138.12 0,-138.12 0,-117.38 112,-117.38 112,-138.12"/>
<text text-anchor="middle" x="56" y="-124.62" font-family="Helvetica,sans-Serif" font-size="10.00">nix::AbstractSetting</text>
</a>
</g>
</g>
<!-- Node7&#45;&gt;Node6 -->
<g id="edge6_Node000006_Node000007" class="edge">
<title>Node7&#45;&gt;Node6</title>
<g id="a_edge6_Node000006_Node000007"><a xlink:title=" ">
<path fill="none" stroke="#63b8ff" d="M82.03,-145.06C100.17,-157.23 125.54,-173.46 149,-185.75 159.5,-191.25 171.43,-196.54 181.93,-200.89"/>
<polygon fill="#63b8ff" stroke="#63b8ff" points="83.99,-142.16 73.75,-139.45 80.07,-147.96 83.99,-142.16"/>
</a>
</g>
</g>
<!-- Node9 -->
<g id="Node000009" class="node">
<title>Node9</title>
<g id="a_Node000009"><a xlink:href="classnix_1_1BaseSetting.html" target="_top" xlink:title=" ">
<polygon fill="white" stroke="#666666" points="273,-280.12 149,-280.12 149,-259.38 273,-259.38 273,-280.12"/>
<text text-anchor="middle" x="211" y="-266.62" font-family="Helvetica,sans-Serif" font-size="10.00">nix::BaseSetting&lt; T &gt;</text>
</a>
</g>
</g>
<!-- Node7&#45;&gt;Node9 -->
<g id="edge9_Node000009_Node000007" class="edge">
<title>Node7&#45;&gt;Node9</title>
<g id="a_edge9_Node000009_Node000007"><a xlink:title=" ">
<path fill="none" stroke="#63b8ff" d="M71.99,-147.57C89.14,-169.46 118.76,-205.01 149,-230.75 161.73,-241.59 177.7,-251.69 190.1,-258.9"/>
<polygon fill="#63b8ff" stroke="#63b8ff" points="74.84,-145.53 65.96,-139.76 69.3,-149.81 74.84,-145.53"/>
</a>
</g>
</g>
<!-- Node11 -->
<g id="Node000011" class="node">
<title>Node11</title>
<g id="a_Node000011"><a xlink:href="classnix_1_1BaseSetting.html" target="_top" xlink:title=" ">
<polygon fill="white" stroke="#666666" points="273,-99.12 149,-99.12 149,-78.38 273,-78.38 273,-99.12"/>
<text text-anchor="middle" x="211" y="-85.62" font-family="Helvetica,sans-Serif" font-size="10.00">nix::BaseSetting&lt; T &gt;</text>
</a>
</g>
</g>
<!-- Node7&#45;&gt;Node11 -->
<g id="edge12_Node000011_Node000007" class="edge">
<title>Node7&#45;&gt;Node11</title>
<g id="a_edge12_Node000011_Node000007"><a xlink:title=" ">
<path fill="none" stroke="#63b8ff" d="M110.59,-114.09C129.18,-109.35 149.76,-104.11 167.34,-99.62"/>
<polygon fill="#63b8ff" stroke="#63b8ff" points="109.91,-110.65 101.09,-116.51 111.64,-117.43 109.91,-110.65"/>
</a>
</g>
</g>
<!-- Node13 -->
<g id="Node000013" class="node">
<title>Node13</title>
<g id="a_Node000013"><a xlink:href="classnix_1_1BaseSetting.html" target="_top" xlink:title=" ">
<polygon fill="white" stroke="#666666" points="273,-138.12 149,-138.12 149,-117.38 273,-117.38 273,-138.12"/>
<text text-anchor="middle" x="211" y="-124.62" font-family="Helvetica,sans-Serif" font-size="10.00">nix::BaseSetting&lt; T &gt;</text>
</a>
</g>
</g>
<!-- Node7&#45;&gt;Node13 -->
<g id="edge15_Node000013_Node000007" class="edge">
<title>Node7&#45;&gt;Node13</title>
<g id="a_edge15_Node000013_Node000007"><a xlink:title=" ">
<path fill="none" stroke="#63b8ff" d="M123.49,-127.75C131.84,-127.75 140.35,-127.75 148.62,-127.75"/>
<polygon fill="#63b8ff" stroke="#63b8ff" points="123.75,-124.25 113.75,-127.75 123.75,-131.25 123.75,-124.25"/>
</a>
</g>
</g>
<!-- Node15 -->
<g id="Node000015" class="node">
<title>Node15</title>
<g id="a_Node000015"><a xlink:href="classnix_1_1BaseSetting.html" target="_top" xlink:title=" ">
<polygon fill="white" stroke="#666666" points="273,-54.12 149,-54.12 149,-33.38 273,-33.38 273,-54.12"/>
<text text-anchor="middle" x="211" y="-40.62" font-family="Helvetica,sans-Serif" font-size="10.00">nix::BaseSetting&lt; T &gt;</text>
</a>
</g>
</g>
<!-- Node7&#45;&gt;Node15 -->
<g id="edge18_Node000015_Node000007" class="edge">
<title>Node7&#45;&gt;Node15</title>
<g id="a_edge18_Node000015_Node000007"><a xlink:title=" ">
<path fill="none" stroke="#63b8ff" d="M82.03,-110.44C100.17,-98.27 125.54,-82.04 149,-69.75 159.5,-64.25 171.43,-58.96 181.93,-54.61"/>
<polygon fill="#63b8ff" stroke="#63b8ff" points="80.07,-107.54 73.75,-116.05 83.99,-113.34 80.07,-107.54"/>
</a>
</g>
</g>
<!-- Node8 -->
<g id="Node000008" class="node">
<title>Node8</title>
<g id="a_Node000008"><a xlink:href="classnix_1_1Setting.html" target="_top" xlink:title=" ">
<polygon fill="white" stroke="#bfbfbf" points="432.5,-305.12 325.75,-305.12 325.75,-284.38 432.5,-284.38 432.5,-305.12"/>
<text text-anchor="middle" x="379.12" y="-291.62" font-family="Helvetica,sans-Serif" font-size="10.00">nix::Setting&lt; int &gt;</text>
</a>
</g>
</g>
<!-- Node8&#45;&gt;Node1 -->
<g id="edge22_Node000001_Node000008" class="edge">
<title>Node8&#45;&gt;Node1</title>
<g id="a_edge22_Node000001_Node000008"><a xlink:title=" ">
<path fill="none" stroke="#9a32cd" stroke-dasharray="5,2" d="M444.16,-305.19C511.67,-313.2 619.56,-317.37 702.75,-279.75 753.39,-256.85 794.1,-200.76 809.49,-177.32"/>
<polygon fill="#9a32cd" stroke="#9a32cd" points="444.73,-301.73 434.37,-303.95 443.85,-308.67 444.73,-301.73"/>
</a>
</g>
<text text-anchor="middle" x="651" y="-310.01" font-family="Helvetica,sans-Serif" font-size="10.00" fill="grey"> compressionLevel</text>
</g>
<!-- Node8&#45;&gt;Node2 -->
<g id="edge7_Node000002_Node000008" class="edge">
<title>Node8&#45;&gt;Node2</title>
<g id="a_edge7_Node000002_Node000008"><a xlink:title=" ">
<path fill="none" stroke="#9a32cd" stroke-dasharray="5,2" d="M399.53,-276.51C415.99,-262.12 440.91,-242.77 466.25,-232.25 514.06,-212.39 533.17,-232.93 581.25,-213.75 592.66,-209.2 619.24,-189.96 635.8,-177.56"/>
<polygon fill="#9a32cd" stroke="#9a32cd" points="397.52,-273.61 392.43,-282.9 402.2,-278.81 397.52,-273.61"/>
</a>
</g>
<text text-anchor="middle" x="523.75" y="-248.25" font-family="Helvetica,sans-Serif" font-size="10.00" fill="grey"> pathInfoCacheSize</text>
<text text-anchor="middle" x="523.75" y="-235.5" font-family="Helvetica,sans-Serif" font-size="10.00" fill="grey">priority</text>
</g>
<!-- Node9&#45;&gt;Node8 -->
<g id="edge8_Node000008_Node000009" class="edge">
<title>Node9&#45;&gt;Node8</title>
<g id="a_edge8_Node000008_Node000009"><a xlink:title=" ">
<path fill="none" stroke="#63b8ff" d="M284.76,-280.7C298.45,-282.76 312.52,-284.88 325.45,-286.82"/>
<polygon fill="#63b8ff" stroke="#63b8ff" points="285.29,-277.24 274.88,-279.21 284.25,-284.16 285.29,-277.24"/>
</a>
</g>
</g>
<!-- Node10 -->
<g id="Node000010" class="node">
<title>Node10</title>
<g id="a_Node000010"><a xlink:href="classnix_1_1Setting.html" target="_top" xlink:title=" ">
<polygon fill="white" stroke="#bfbfbf" points="436.62,-99.12 321.62,-99.12 321.62,-78.38 436.62,-78.38 436.62,-99.12"/>
<text text-anchor="middle" x="379.12" y="-85.62" font-family="Helvetica,sans-Serif" font-size="10.00">nix::Setting&lt; bool &gt;</text>
</a>
</g>
</g>
<!-- Node10&#45;&gt;Node1 -->
<g id="edge19_Node000001_Node000010" class="edge">
<title>Node10&#45;&gt;Node1</title>
<g id="a_edge19_Node000001_Node000010"><a xlink:title=" ">
<path fill="none" stroke="#9a32cd" stroke-dasharray="5,2" d="M448.07,-80.98C454.21,-80.48 460.34,-80.06 466.25,-79.75 572.05,-74.24 603.37,-72.79 702.75,-109.5 737.71,-122.41 775.92,-143.23 797.85,-155.88"/>
<polygon fill="#9a32cd" stroke="#9a32cd" points="448.2,-77.46 438.55,-81.82 448.82,-84.43 448.2,-77.46"/>
</a>
</g>
<text text-anchor="middle" x="651" y="-138.25" font-family="Helvetica,sans-Serif" font-size="10.00" fill="grey"> parallelCompression</text>
<text text-anchor="middle" x="651" y="-125.5" font-family="Helvetica,sans-Serif" font-size="10.00" fill="grey">writeDebugInfo</text>
<text text-anchor="middle" x="651" y="-112.75" font-family="Helvetica,sans-Serif" font-size="10.00" fill="grey">writeNARListing</text>
</g>
<!-- Node10&#45;&gt;Node2 -->
<g id="edge10_Node000002_Node000010" class="edge">
<title>Node10&#45;&gt;Node2</title>
<g id="a_edge10_Node000002_Node000010"><a xlink:title=" ">
<path fill="none" stroke="#9a32cd" stroke-dasharray="5,2" d="M448.37,-83.73C488.57,-83.33 539.56,-87.34 581.25,-105.25 607.44,-116.5 630.45,-141.84 642.04,-156.24"/>
<polygon fill="#9a32cd" stroke="#9a32cd" points="448.5,-80.23 438.58,-83.94 448.65,-87.23 448.5,-80.23"/>
</a>
</g>
<text text-anchor="middle" x="523.75" y="-121.25" font-family="Helvetica,sans-Serif" font-size="10.00" fill="grey"> isTrusted</text>
<text text-anchor="middle" x="523.75" y="-108.5" font-family="Helvetica,sans-Serif" font-size="10.00" fill="grey">wantMassQuery</text>
</g>
<!-- Node11&#45;&gt;Node10 -->
<g id="edge11_Node000010_Node000011" class="edge">
<title>Node11&#45;&gt;Node10</title>
<g id="a_edge11_Node000010_Node000011"><a xlink:title=" ">
<path fill="none" stroke="#63b8ff" d="M284.59,-88.75C296.91,-88.75 309.55,-88.75 321.39,-88.75"/>
<polygon fill="#63b8ff" stroke="#63b8ff" points="284.9,-85.25 274.9,-88.75 284.9,-92.25 284.9,-85.25"/>
</a>
</g>
</g>
<!-- Node12 -->
<g id="Node000012" class="node">
<title>Node12</title>
<g id="a_Node000012"><a xlink:href="classnix_1_1Setting.html" target="_top" xlink:title=" ">
<polygon fill="white" stroke="#bfbfbf" points="448.25,-138.12 310,-138.12 310,-117.38 448.25,-117.38 448.25,-138.12"/>
<text text-anchor="middle" x="379.12" y="-124.62" font-family="Helvetica,sans-Serif" font-size="10.00">nix::Setting&lt; StringSet &gt;</text>
</a>
</g>
</g>
<!-- Node12&#45;&gt;Node2 -->
<g id="edge13_Node000002_Node000012" class="edge">
<title>Node12&#45;&gt;Node2</title>
<g id="a_edge13_Node000002_Node000012"><a xlink:title=" ">
<path fill="none" stroke="#9a32cd" stroke-dasharray="5,2" d="M459.66,-134.17C496.76,-137.77 541.43,-142.98 581.25,-150 590.44,-151.62 600.24,-153.76 609.47,-155.96"/>
<polygon fill="#9a32cd" stroke="#9a32cd" points="460.19,-130.7 449.9,-133.24 459.53,-137.67 460.19,-130.7"/>
</a>
</g>
<text text-anchor="middle" x="523.75" y="-153.25" font-family="Helvetica,sans-Serif" font-size="10.00" fill="grey"> systemFeatures</text>
</g>
<!-- Node13&#45;&gt;Node12 -->
<g id="edge14_Node000012_Node000013" class="edge">
<title>Node13&#45;&gt;Node12</title>
<g id="a_edge14_Node000012_Node000013"><a xlink:title=" ">
<path fill="none" stroke="#63b8ff" d="M284.63,-127.75C292.96,-127.75 301.44,-127.75 309.72,-127.75"/>
<polygon fill="#63b8ff" stroke="#63b8ff" points="284.9,-124.25 274.9,-127.75 284.9,-131.25 284.9,-124.25"/>
</a>
</g>
</g>
<!-- Node14 -->
<g id="Node000014" class="node">
<title>Node14</title>
<g id="a_Node000014"><a xlink:href="classnix_1_1Setting.html" target="_top" xlink:title=" ">
<polygon fill="white" stroke="#bfbfbf" points="575.62,-33.5 471.88,-33.5 471.88,0 575.62,0 575.62,-33.5"/>
<text text-anchor="start" x="479.88" y="-20" font-family="Helvetica,sans-Serif" font-size="10.00">nix::Setting&lt; std::</text>
<text text-anchor="middle" x="523.75" y="-7.25" font-family="Helvetica,sans-Serif" font-size="10.00">string &gt;</text>
</a>
</g>
</g>
<!-- Node14&#45;&gt;Node1 -->
<g id="edge16_Node000001_Node000014" class="edge">
<title>Node14&#45;&gt;Node1</title>
<g id="a_edge16_Node000001_Node000014"><a xlink:title=" ">
<path fill="none" stroke="#9a32cd" stroke-dasharray="5,2" d="M587.03,-7C622.49,-4.22 666.86,-5.56 702.75,-22 762.83,-49.51 799.88,-127.17 811.86,-155.89"/>
<polygon fill="#9a32cd" stroke="#9a32cd" points="586.99,-3.48 577.36,-7.89 587.64,-10.46 586.99,-3.48"/>
</a>
</g>
<text text-anchor="middle" x="651" y="-25.25" font-family="Helvetica,sans-Serif" font-size="10.00" fill="grey"> compression</text>
</g>
<!-- Node15&#45;&gt;Node14 -->
<g id="edge17_Node000014_Node000015" class="edge">
<title>Node15&#45;&gt;Node14</title>
<g id="a_edge17_Node000014_Node000015"><a xlink:title=" ">
<path fill="none" stroke="#63b8ff" d="M284.59,-37.44C342.04,-32.45 420.82,-25.61 471.76,-21.18"/>
<polygon fill="#63b8ff" stroke="#63b8ff" points="284.56,-33.93 274.9,-38.28 285.17,-40.91 284.56,-33.93"/>
</a>
</g>
</g>
<!-- Node16&#45;&gt;Node1 -->
<g id="edge20_Node000001_Node000016" class="edge">
<title>Node16&#45;&gt;Node1</title>
<g id="a_edge20_Node000001_Node000016"><a xlink:title=" ">
<path fill="none" stroke="#9a32cd" stroke-dasharray="5,2" d="M578.85,-262.55C579.66,-262.29 580.46,-262.02 581.25,-261.75 589.46,-258.97 591.23,-257.54 599.25,-254.25 667.43,-226.29 747.95,-194 789.04,-177.56"/>
<polygon fill="#9a32cd" stroke="#9a32cd" points="578.08,-259.13 569.56,-265.43 580.15,-265.81 578.08,-259.13"/>
</a>
</g>
<text text-anchor="middle" x="651" y="-270.25" font-family="Helvetica,sans-Serif" font-size="10.00" fill="grey"> localNarCache</text>
<text text-anchor="middle" x="651" y="-257.5" font-family="Helvetica,sans-Serif" font-size="10.00" fill="grey">secretKeyFile</text>
</g>
</g>
</svg>
