<?xml version="1.0" encoding="UTF-8" standalone="no"?>
<!DOCTYPE svg PUBLIC "-//W3C//DTD SVG 1.1//EN"
 "http://www.w3.org/Graphics/SVG/1.1/DTD/svg11.dtd">
<!-- Generated by graphviz version 12.2.1 (0)
 -->
<!-- Title: nix::DevelopSettings Pages: 1 -->
<svg width="125pt" height="142pt"
 viewBox="0.00 0.00 125.25 142.25" xmlns="http://www.w3.org/2000/svg" xmlns:xlink="http://www.w3.org/1999/xlink">
<g id="graph0" class="graph" transform="scale(1 1) rotate(0) translate(4 138.25)">
<title>nix::DevelopSettings</title>
<!-- Node1 -->
<g id="Node000001" class="node">
<title>Node1</title>
<g id="a_Node000001"><a xlink:title=" ">
<polygon fill="#999999" stroke="#666666" points="117.25,-20.75 0,-20.75 0,0 117.25,0 117.25,-20.75"/>
<text text-anchor="middle" x="58.62" y="-7.25" font-family="Helvetica,sans-Serif" font-size="10.00">nix::DevelopSettings</text>
</a>
</g>
</g>
<!-- Node2 -->
<g id="Node000002" class="node">
<title>Node2</title>
<g id="a_Node000002"><a xlink:href="classnix_1_1Config.html" target="_top" xlink:title=" ">
<polygon fill="white" stroke="#666666" points="92.5,-77.5 24.75,-77.5 24.75,-56.75 92.5,-56.75 92.5,-77.5"/>
<text text-anchor="middle" x="58.62" y="-64" font-family="Helvetica,sans-Serif" font-size="10.00">nix::Config</text>
</a>
</g>
</g>
<!-- Node2&#45;&gt;Node1 -->
<g id="edge1_Node000001_Node000002" class="edge">
<title>Node2&#45;&gt;Node1</title>
<g id="a_edge1_Node000001_Node000002"><a xlink:title=" ">
<path fill="none" stroke="#63b8ff" d="M58.62,-44.88C58.62,-36.66 58.62,-27.68 58.62,-21.08"/>
<polygon fill="#63b8ff" stroke="#63b8ff" points="55.13,-44.82 58.63,-54.82 62.13,-44.82 55.13,-44.82"/>
</a>
</g>
</g>
<!-- Node3 -->
<g id="Node000003" class="node">
<title>Node3</title>
<g id="a_Node000003"><a xlink:href="classnix_1_1AbstractConfig.html" target="_top" xlink:title=" ">
<polygon fill="white" stroke="#bfbfbf" points="112.75,-134.25 4.5,-134.25 4.5,-113.5 112.75,-113.5 112.75,-134.25"/>
<text text-anchor="middle" x="58.62" y="-120.75" font-family="Helvetica,sans-Serif" font-size="10.00">nix::AbstractConfig</text>
</a>
</g>
</g>
<!-- Node3&#45;&gt;Node2 -->
<g id="edge2_Node000002_Node000003" class="edge">
<title>Node3&#45;&gt;Node2</title>
<g id="a_edge2_Node000002_Node000003"><a xlink:title=" ">
<path fill="none" stroke="#63b8ff" d="M58.62,-101.63C58.62,-93.41 58.62,-84.43 58.62,-77.83"/>
<polygon fill="#63b8ff" stroke="#63b8ff" points="55.13,-101.57 58.63,-111.57 62.13,-101.57 55.13,-101.57"/>
</a>
</g>
</g>
</g>
</svg>
