<?xml version="1.0" encoding="UTF-8" standalone="no"?>
<!DOCTYPE svg PUBLIC "-//W3C//DTD SVG 1.1//EN"
 "http://www.w3.org/Graphics/SVG/1.1/DTD/svg11.dtd">
<!-- Generated by graphviz version 12.2.1 (0)
 -->
<!-- Title: nix::CmdShowDerivation Pages: 1 -->
<svg width="588pt" height="514pt"
 viewBox="0.00 0.00 588.25 514.25" xmlns="http://www.w3.org/2000/svg" xmlns:xlink="http://www.w3.org/1999/xlink">
<g id="graph0" class="graph" transform="scale(1 1) rotate(0) translate(4 510.25)">
<title>nix::CmdShowDerivation</title>
<!-- Node1 -->
<g id="Node000001" class="node">
<title>Node1</title>
<g id="a_Node000001"><a xlink:title=" ">
<polygon fill="#999999" stroke="#666666" points="150.62,-20.75 13.88,-20.75 13.88,0 150.62,0 150.62,-20.75"/>
<text text-anchor="middle" x="82.25" y="-7.25" font-family="Helvetica,sans-Serif" font-size="10.00">nix::CmdShowDerivation</text>
</a>
</g>
</g>
<!-- Node2 -->
<g id="Node000002" class="node">
<title>Node2</title>
<g id="a_Node000002"><a xlink:href="structnix_1_1InstallablesCommand.html" target="_top" xlink:title=" ">
<polygon fill="white" stroke="#666666" points="154,-78.5 10.5,-78.5 10.5,-57.75 154,-57.75 154,-78.5"/>
<text text-anchor="middle" x="82.25" y="-65" font-family="Helvetica,sans-Serif" font-size="10.00">nix::InstallablesCommand</text>
</a>
</g>
</g>
<!-- Node2&#45;&gt;Node1 -->
<g id="edge1_Node000001_Node000002" class="edge">
<title>Node2&#45;&gt;Node1</title>
<g id="a_edge1_Node000001_Node000002"><a xlink:title=" ">
<path fill="none" stroke="#63b8ff" d="M82.25,-46.18C82.25,-37.52 82.25,-27.9 82.25,-20.97"/>
<polygon fill="#63b8ff" stroke="#63b8ff" points="78.75,-45.9 82.25,-55.9 85.75,-45.9 78.75,-45.9"/>
</a>
</g>
</g>
<!-- Node3 -->
<g id="Node000003" class="node">
<title>Node3</title>
<g id="a_Node000003"><a xlink:href="structnix_1_1RawInstallablesCommand.html" target="_top" xlink:title=" ">
<polygon fill="white" stroke="#666666" points="164.5,-136.25 0,-136.25 0,-115.5 164.5,-115.5 164.5,-136.25"/>
<text text-anchor="middle" x="82.25" y="-122.75" font-family="Helvetica,sans-Serif" font-size="10.00">nix::RawInstallablesCommand</text>
</a>
</g>
</g>
<!-- Node3&#45;&gt;Node2 -->
<g id="edge2_Node000002_Node000003" class="edge">
<title>Node3&#45;&gt;Node2</title>
<g id="a_edge2_Node000002_Node000003"><a xlink:title=" ">
<path fill="none" stroke="#63b8ff" d="M82.25,-103.93C82.25,-95.27 82.25,-85.65 82.25,-78.72"/>
<polygon fill="#63b8ff" stroke="#63b8ff" points="78.75,-103.65 82.25,-113.65 85.75,-103.65 78.75,-103.65"/>
</a>
</g>
</g>
<!-- Node4 -->
<g id="Node000004" class="node">
<title>Node4</title>
<g id="a_Node000004"><a xlink:href="classnix_1_1Args.html" target="_top" xlink:title=" ">
<polygon fill="white" stroke="#bfbfbf" points="279.62,-506.25 220.88,-506.25 220.88,-485.5 279.62,-485.5 279.62,-506.25"/>
<text text-anchor="middle" x="250.25" y="-492.75" font-family="Helvetica,sans-Serif" font-size="10.00">nix::Args</text>
</a>
</g>
</g>
<!-- Node4&#45;&gt;Node3 -->
<g id="edge3_Node000003_Node000004" class="edge">
<title>Node4&#45;&gt;Node3</title>
<g id="a_edge3_Node000003_Node000004"><a xlink:title=" ">
<path fill="none" stroke="#63b8ff" d="M209.42,-490.5C156.31,-483.65 70.25,-468.08 70.25,-439.12 70.25,-439.12 70.25,-439.12 70.25,-182.62 70.25,-166.19 75.3,-147.63 78.84,-136.61"/>
<polygon fill="#63b8ff" stroke="#63b8ff" points="208.67,-493.93 219.02,-491.68 209.53,-486.98 208.67,-493.93"/>
</a>
</g>
</g>
<!-- Node6 -->
<g id="Node000006" class="node">
<title>Node6</title>
<g id="a_Node000006"><a xlink:href="structnix_1_1Command.html" target="_top" xlink:title=" ">
<polygon fill="white" stroke="#666666" points="474.88,-448.5 387.62,-448.5 387.62,-427.75 474.88,-427.75 474.88,-448.5"/>
<text text-anchor="middle" x="431.25" y="-435" font-family="Helvetica,sans-Serif" font-size="10.00">nix::Command</text>
</a>
</g>
</g>
<!-- Node4&#45;&gt;Node6 -->
<g id="edge6_Node000006_Node000004" class="edge">
<title>Node4&#45;&gt;Node6</title>
<g id="a_edge6_Node000006_Node000004"><a xlink:title=" ">
<path fill="none" stroke="#63b8ff" d="M290.33,-482.53C323.15,-472.42 368.97,-458.31 399.34,-448.95"/>
<polygon fill="#63b8ff" stroke="#63b8ff" points="289.71,-479.06 281.18,-485.35 291.77,-485.75 289.71,-479.06"/>
</a>
</g>
</g>
<!-- Node7 -->
<g id="Node000007" class="node">
<title>Node7</title>
<g id="a_Node000007"><a xlink:href="structnix_1_1SourceExprCommand.html" target="_top" xlink:title=" ">
<polygon fill="white" stroke="#bfbfbf" points="265.25,-194 123.25,-194 123.25,-173.25 265.25,-173.25 265.25,-194"/>
<text text-anchor="middle" x="194.25" y="-180.5" font-family="Helvetica,sans-Serif" font-size="10.00">nix::SourceExprCommand</text>
</a>
</g>
</g>
<!-- Node4&#45;&gt;Node7 -->
<g id="edge8_Node000007_Node000004" class="edge">
<title>Node4&#45;&gt;Node7</title>
<g id="a_edge8_Node000007_Node000004"><a xlink:title=" ">
<path fill="none" stroke="#63b8ff" d="M291.59,-492.15C380.17,-485.74 580.25,-468.08 580.25,-439.12 580.25,-439.12 580.25,-439.12 580.25,-240.38 580.25,-208.93 377.03,-193.77 265.5,-187.81"/>
<polygon fill="#63b8ff" stroke="#63b8ff" points="291.36,-488.65 281.63,-492.85 291.85,-495.64 291.36,-488.65"/>
</a>
</g>
</g>
<!-- Node8 -->
<g id="Node000008" class="node">
<title>Node8</title>
<g id="a_Node000008"><a xlink:href="structnix_1_1MixFlakeOptions.html" target="_top" xlink:title=" ">
<polygon fill="white" stroke="#666666" points="253.62,-251.75 134.88,-251.75 134.88,-231 253.62,-231 253.62,-251.75"/>
<text text-anchor="middle" x="194.25" y="-238.25" font-family="Helvetica,sans-Serif" font-size="10.00">nix::MixFlakeOptions</text>
</a>
</g>
</g>
<!-- Node4&#45;&gt;Node8 -->
<g id="edge10_Node000008_Node000004" class="edge">
<title>Node4&#45;&gt;Node8</title>
<g id="a_edge10_Node000008_Node000004"><a xlink:title=" ">
<path fill="none" stroke="#63b8ff" d="M209.17,-495.31C167.23,-493.35 108.25,-482.82 108.25,-439.12 108.25,-439.12 108.25,-439.12 108.25,-309.88 108.25,-280.65 139.37,-262.16 164.17,-252.06"/>
<polygon fill="#63b8ff" stroke="#63b8ff" points="208.87,-498.81 218.97,-495.62 209.08,-491.81 208.87,-498.81"/>
</a>
</g>
</g>
<!-- Node11 -->
<g id="Node000011" class="node">
<title>Node11</title>
<g id="a_Node000011"><a xlink:href="structnix_1_1MixEvalArgs.html" target="_top" xlink:title=" ">
<polygon fill="white" stroke="#bfbfbf" points="292.12,-379 194.38,-379 194.38,-358.25 292.12,-358.25 292.12,-379"/>
<text text-anchor="middle" x="243.25" y="-365.5" font-family="Helvetica,sans-Serif" font-size="10.00">nix::MixEvalArgs</text>
</a>
</g>
</g>
<!-- Node4&#45;&gt;Node11 -->
<g id="edge15_Node000011_Node000004" class="edge">
<title>Node4&#45;&gt;Node11</title>
<g id="a_edge15_Node000011_Node000004"><a xlink:title=" ">
<path fill="none" stroke="#63b8ff" d="M249.06,-473.64C247.53,-446.2 244.92,-399.58 243.8,-379.41"/>
<polygon fill="#63b8ff" stroke="#63b8ff" points="245.56,-473.75 249.62,-483.54 252.55,-473.36 245.56,-473.75"/>
</a>
</g>
</g>
<!-- Node12 -->
<g id="Node000012" class="node">
<title>Node12</title>
<g id="a_Node000012"><a xlink:href="structnix_1_1MixRepair.html" target="_top" xlink:title=" ">
<polygon fill="white" stroke="#bfbfbf" points="222.5,-448.5 136,-448.5 136,-427.75 222.5,-427.75 222.5,-448.5"/>
<text text-anchor="middle" x="179.25" y="-435" font-family="Helvetica,sans-Serif" font-size="10.00">nix::MixRepair</text>
</a>
</g>
</g>
<!-- Node4&#45;&gt;Node12 -->
<g id="edge17_Node000012_Node000004" class="edge">
<title>Node4&#45;&gt;Node12</title>
<g id="a_edge17_Node000012_Node000004"><a xlink:title=" ">
<path fill="none" stroke="#63b8ff" d="M229.15,-478.31C216.87,-468.67 201.82,-456.85 191.48,-448.72"/>
<polygon fill="#63b8ff" stroke="#63b8ff" points="226.67,-480.81 236.69,-484.23 230.99,-475.3 226.67,-480.81"/>
</a>
</g>
</g>
<!-- Node5 -->
<g id="Node000005" class="node">
<title>Node5</title>
<g id="a_Node000005"><a xlink:href="classnix_1_1MultiCommand.html" target="_top" xlink:title=" ">
<polygon fill="white" stroke="#666666" points="552.25,-379 440.25,-379 440.25,-358.25 552.25,-358.25 552.25,-379"/>
<text text-anchor="middle" x="496.25" y="-365.5" font-family="Helvetica,sans-Serif" font-size="10.00">nix::MultiCommand</text>
</a>
</g>
</g>
<!-- Node5&#45;&gt;Node4 -->
<g id="edge4_Node000004_Node000005" class="edge">
<title>Node5&#45;&gt;Node4</title>
<g id="a_edge4_Node000004_Node000005"><a xlink:title=" ">
<path fill="none" stroke="#9a32cd" stroke-dasharray="5,2" d="M499.14,-390.82C500.29,-408.57 498.73,-433.36 484.25,-448.5 456.49,-477.53 336.42,-489.2 279.89,-493.14"/>
<polygon fill="#9a32cd" stroke="#9a32cd" points="502.62,-390.48 498.12,-380.89 495.66,-391.19 502.62,-390.48"/>
</a>
</g>
<text text-anchor="middle" x="512.9" y="-435" font-family="Helvetica,sans-Serif" font-size="10.00" fill="grey"> parent</text>
</g>
<!-- Node6&#45;&gt;Node5 -->
<g id="edge5_Node000005_Node000006" class="edge">
<title>Node6&#45;&gt;Node5</title>
<g id="a_edge5_Node000005_Node000006"><a xlink:title=" ">
<path fill="none" stroke="#63b8ff" d="M448.37,-419.34C460.72,-406.52 476.92,-389.7 486.95,-379.28"/>
<polygon fill="#63b8ff" stroke="#63b8ff" points="446.03,-416.73 441.61,-426.36 451.07,-421.59 446.03,-416.73"/>
</a>
</g>
</g>
<!-- Node10 -->
<g id="Node000010" class="node">
<title>Node10</title>
<g id="a_Node000010"><a xlink:href="structnix_1_1StoreCommand.html" target="_top" xlink:title=" ">
<polygon fill="white" stroke="#666666" points="422.62,-379 309.88,-379 309.88,-358.25 422.62,-358.25 422.62,-379"/>
<text text-anchor="middle" x="366.25" y="-365.5" font-family="Helvetica,sans-Serif" font-size="10.00">nix::StoreCommand</text>
</a>
</g>
</g>
<!-- Node6&#45;&gt;Node10 -->
<g id="edge13_Node000010_Node000006" class="edge">
<title>Node6&#45;&gt;Node10</title>
<g id="a_edge13_Node000010_Node000006"><a xlink:title=" ">
<path fill="none" stroke="#63b8ff" d="M414.13,-419.34C401.78,-406.52 385.58,-389.7 375.55,-379.28"/>
<polygon fill="#63b8ff" stroke="#63b8ff" points="411.43,-421.59 420.89,-426.36 416.47,-416.73 411.43,-421.59"/>
</a>
</g>
</g>
<!-- Node7&#45;&gt;Node3 -->
<g id="edge7_Node000003_Node000007" class="edge">
<title>Node7&#45;&gt;Node3</title>
<g id="a_edge7_Node000003_Node000007"><a xlink:title=" ">
<path fill="none" stroke="#63b8ff" d="M164.42,-167.78C144.59,-157.91 119.11,-145.22 101.82,-136.62"/>
<polygon fill="#63b8ff" stroke="#63b8ff" points="162.62,-170.79 173.13,-172.11 165.74,-164.52 162.62,-170.79"/>
</a>
</g>
</g>
<!-- Node8&#45;&gt;Node7 -->
<g id="edge9_Node000007_Node000008" class="edge">
<title>Node8&#45;&gt;Node7</title>
<g id="a_edge9_Node000007_Node000008"><a xlink:title=" ">
<path fill="none" stroke="#63b8ff" d="M194.25,-219.43C194.25,-210.77 194.25,-201.15 194.25,-194.22"/>
<polygon fill="#63b8ff" stroke="#63b8ff" points="190.75,-219.15 194.25,-229.15 197.75,-219.15 190.75,-219.15"/>
</a>
</g>
</g>
<!-- Node9 -->
<g id="Node000009" class="node">
<title>Node9</title>
<g id="a_Node000009"><a xlink:href="structnix_1_1EvalCommand.html" target="_top" xlink:title=" ">
<polygon fill="white" stroke="#666666" points="378.38,-321.25 270.12,-321.25 270.12,-300.5 378.38,-300.5 378.38,-321.25"/>
<text text-anchor="middle" x="324.25" y="-307.75" font-family="Helvetica,sans-Serif" font-size="10.00">nix::EvalCommand</text>
</a>
</g>
</g>
<!-- Node9&#45;&gt;Node8 -->
<g id="edge11_Node000008_Node000009" class="edge">
<title>Node9&#45;&gt;Node8</title>
<g id="a_edge11_Node000008_Node000009"><a xlink:title=" ">
<path fill="none" stroke="#63b8ff" d="M295.7,-294.66C281.47,-287.11 263.98,-277.89 248.25,-269.75 236.86,-263.86 224.06,-257.36 213.79,-252.18"/>
<polygon fill="#63b8ff" stroke="#63b8ff" points="294.06,-297.75 304.53,-299.35 297.34,-291.57 294.06,-297.75"/>
</a>
</g>
</g>
<!-- Node10&#45;&gt;Node9 -->
<g id="edge12_Node000009_Node000010" class="edge">
<title>Node10&#45;&gt;Node9</title>
<g id="a_edge12_Node000009_Node000010"><a xlink:title=" ">
<path fill="none" stroke="#63b8ff" d="M352.03,-348.75C345.12,-339.58 337.12,-328.96 331.48,-321.47"/>
<polygon fill="#63b8ff" stroke="#63b8ff" points="349.21,-350.82 358.02,-356.71 354.8,-346.61 349.21,-350.82"/>
</a>
</g>
</g>
<!-- Node11&#45;&gt;Node9 -->
<g id="edge14_Node000009_Node000011" class="edge">
<title>Node11&#45;&gt;Node9</title>
<g id="a_edge14_Node000009_Node000011"><a xlink:title=" ">
<path fill="none" stroke="#63b8ff" d="M266.44,-351.67C280.5,-341.99 297.99,-329.95 310.03,-321.66"/>
<polygon fill="#63b8ff" stroke="#63b8ff" points="264.86,-348.5 258.61,-357.06 268.83,-354.27 264.86,-348.5"/>
</a>
</g>
</g>
<!-- Node12&#45;&gt;Node11 -->
<g id="edge16_Node000011_Node000012" class="edge">
<title>Node12&#45;&gt;Node11</title>
<g id="a_edge16_Node000011_Node000012"><a xlink:title=" ">
<path fill="none" stroke="#63b8ff" d="M196.11,-419.34C208.27,-406.52 224.22,-389.7 234.1,-379.28"/>
<polygon fill="#63b8ff" stroke="#63b8ff" points="193.8,-416.69 189.46,-426.36 198.88,-421.51 193.8,-416.69"/>
</a>
</g>
</g>
<!-- Node13 -->
<g id="Node000013" class="node">
<title>Node13</title>
<g id="a_Node000013"><a xlink:href="structnix_1_1SearchPath.html" target="_top" xlink:title=" ">
<polygon fill="white" stroke="#666666" points="369.75,-448.5 278.75,-448.5 278.75,-427.75 369.75,-427.75 369.75,-448.5"/>
<text text-anchor="middle" x="324.25" y="-435" font-family="Helvetica,sans-Serif" font-size="10.00">nix::SearchPath</text>
</a>
</g>
</g>
<!-- Node13&#45;&gt;Node11 -->
<g id="edge18_Node000011_Node000013" class="edge">
<title>Node13&#45;&gt;Node11</title>
<g id="a_edge18_Node000011_Node000013"><a xlink:title=" ">
<path fill="none" stroke="#9a32cd" stroke-dasharray="5,2" d="M303.85,-420.12C288.46,-407.3 267.88,-390.15 255.1,-379.5"/>
<polygon fill="#9a32cd" stroke="#9a32cd" points="301.56,-422.77 311.48,-426.48 306.04,-417.39 301.56,-422.77"/>
</a>
</g>
<text text-anchor="middle" x="319.13" y="-400.25" font-family="Helvetica,sans-Serif" font-size="10.00" fill="grey"> searchPath</text>
</g>
<!-- Node14 -->
<g id="Node000014" class="node">
<title>Node14</title>
<g id="a_Node000014"><a xlink:href="structnix_1_1flake_1_1LockFlags.html" target="_top" xlink:title=" ">
<polygon fill="white" stroke="#bfbfbf" points="251.75,-321.25 136.75,-321.25 136.75,-300.5 251.75,-300.5 251.75,-321.25"/>
<text text-anchor="middle" x="194.25" y="-307.75" font-family="Helvetica,sans-Serif" font-size="10.00">nix::flake::LockFlags</text>
</a>
</g>
</g>
<!-- Node14&#45;&gt;Node8 -->
<g id="edge19_Node000008_Node000014" class="edge">
<title>Node14&#45;&gt;Node8</title>
<g id="a_edge19_Node000008_Node000014"><a xlink:title=" ">
<path fill="none" stroke="#9a32cd" stroke-dasharray="5,2" d="M194.25,-289.07C194.25,-276.72 194.25,-261.65 194.25,-252.03"/>
<polygon fill="#9a32cd" stroke="#9a32cd" points="190.75,-288.69 194.25,-298.69 197.75,-288.69 190.75,-288.69"/>
</a>
</g>
<text text-anchor="middle" x="219" y="-273" font-family="Helvetica,sans-Serif" font-size="10.00" fill="grey"> lockFlags</text>
</g>
</g>
</svg>
