<?xml version="1.0" encoding="UTF-8" standalone="no"?>
<!DOCTYPE svg PUBLIC "-//W3C//DTD SVG 1.1//EN"
 "http://www.w3.org/Graphics/SVG/1.1/DTD/svg11.dtd">
<!-- Generated by graphviz version 12.2.1 (0)
 -->
<!-- Title: nix::CmdSign Pages: 1 -->
<svg width="414pt" height="596pt"
 viewBox="0.00 0.00 413.50 596.25" xmlns="http://www.w3.org/2000/svg" xmlns:xlink="http://www.w3.org/1999/xlink">
<g id="graph0" class="graph" transform="scale(1 1) rotate(0) translate(4 592.25)">
<title>nix::CmdSign</title>
<!-- Node1 -->
<g id="Node000001" class="node">
<title>Node1</title>
<g id="a_Node000001"><a xlink:title=" ">
<polygon fill="#999999" stroke="#666666" points="205.25,-20.75 124.75,-20.75 124.75,0 205.25,0 205.25,-20.75"/>
<text text-anchor="middle" x="165" y="-7.25" font-family="Helvetica,sans-Serif" font-size="10.00">nix::CmdSign</text>
</a>
</g>
</g>
<!-- Node2 -->
<g id="Node000002" class="node">
<title>Node2</title>
<g id="a_Node000002"><a xlink:href="structnix_1_1StorePathsCommand.html" target="_top" xlink:title=" ">
<polygon fill="white" stroke="#bfbfbf" points="234.5,-77.5 95.5,-77.5 95.5,-56.75 234.5,-56.75 234.5,-77.5"/>
<text text-anchor="middle" x="165" y="-64" font-family="Helvetica,sans-Serif" font-size="10.00">nix::StorePathsCommand</text>
</a>
</g>
</g>
<!-- Node2&#45;&gt;Node1 -->
<g id="edge1_Node000001_Node000002" class="edge">
<title>Node2&#45;&gt;Node1</title>
<g id="a_edge1_Node000001_Node000002"><a xlink:title=" ">
<path fill="none" stroke="#63b8ff" d="M165,-44.88C165,-36.66 165,-27.68 165,-21.08"/>
<polygon fill="#63b8ff" stroke="#63b8ff" points="161.5,-44.82 165,-54.82 168.5,-44.82 161.5,-44.82"/>
</a>
</g>
</g>
<!-- Node3 -->
<g id="Node000003" class="node">
<title>Node3</title>
<g id="a_Node000003"><a xlink:href="structnix_1_1BuiltPathsCommand.html" target="_top" xlink:title=" ">
<polygon fill="white" stroke="#666666" points="233,-134.25 97,-134.25 97,-113.5 233,-113.5 233,-134.25"/>
<text text-anchor="middle" x="165" y="-120.75" font-family="Helvetica,sans-Serif" font-size="10.00">nix::BuiltPathsCommand</text>
</a>
</g>
</g>
<!-- Node3&#45;&gt;Node2 -->
<g id="edge2_Node000002_Node000003" class="edge">
<title>Node3&#45;&gt;Node2</title>
<g id="a_edge2_Node000002_Node000003"><a xlink:title=" ">
<path fill="none" stroke="#63b8ff" d="M165,-101.63C165,-93.41 165,-84.43 165,-77.83"/>
<polygon fill="#63b8ff" stroke="#63b8ff" points="161.5,-101.57 165,-111.57 168.5,-101.57 161.5,-101.57"/>
</a>
</g>
</g>
<!-- Node4 -->
<g id="Node000004" class="node">
<title>Node4</title>
<g id="a_Node000004"><a xlink:href="structnix_1_1InstallablesCommand.html" target="_top" xlink:title=" ">
<polygon fill="white" stroke="#666666" points="186.75,-191 43.25,-191 43.25,-170.25 186.75,-170.25 186.75,-191"/>
<text text-anchor="middle" x="115" y="-177.5" font-family="Helvetica,sans-Serif" font-size="10.00">nix::InstallablesCommand</text>
</a>
</g>
</g>
<!-- Node4&#45;&gt;Node3 -->
<g id="edge3_Node000003_Node000004" class="edge">
<title>Node4&#45;&gt;Node3</title>
<g id="a_edge3_Node000003_Node000004"><a xlink:title=" ">
<path fill="none" stroke="#63b8ff" d="M131.53,-161.52C139.74,-152.53 149.33,-142.03 156.14,-134.58"/>
<polygon fill="#63b8ff" stroke="#63b8ff" points="129.12,-158.97 124.96,-168.72 134.29,-163.7 129.12,-158.97"/>
</a>
</g>
</g>
<!-- Node5 -->
<g id="Node000005" class="node">
<title>Node5</title>
<g id="a_Node000005"><a xlink:href="structnix_1_1RawInstallablesCommand.html" target="_top" xlink:title=" ">
<polygon fill="white" stroke="#666666" points="188.25,-247.75 23.75,-247.75 23.75,-227 188.25,-227 188.25,-247.75"/>
<text text-anchor="middle" x="106" y="-234.25" font-family="Helvetica,sans-Serif" font-size="10.00">nix::RawInstallablesCommand</text>
</a>
</g>
</g>
<!-- Node5&#45;&gt;Node4 -->
<g id="edge4_Node000004_Node000005" class="edge">
<title>Node5&#45;&gt;Node4</title>
<g id="a_edge4_Node000004_Node000005"><a xlink:title=" ">
<path fill="none" stroke="#63b8ff" d="M109.45,-215.42C110.81,-207.13 112.31,-198 113.4,-191.33"/>
<polygon fill="#63b8ff" stroke="#63b8ff" points="106.02,-214.66 107.85,-225.09 112.93,-215.79 106.02,-214.66"/>
</a>
</g>
</g>
<!-- Node6 -->
<g id="Node000006" class="node">
<title>Node6</title>
<g id="a_Node000006"><a xlink:href="classnix_1_1Args.html" target="_top" xlink:title=" ">
<polygon fill="white" stroke="#bfbfbf" points="177.38,-588.25 118.62,-588.25 118.62,-567.5 177.38,-567.5 177.38,-588.25"/>
<text text-anchor="middle" x="148" y="-574.75" font-family="Helvetica,sans-Serif" font-size="10.00">nix::Args</text>
</a>
</g>
</g>
<!-- Node6&#45;&gt;Node5 -->
<g id="edge5_Node000005_Node000006" class="edge">
<title>Node6&#45;&gt;Node5</title>
<g id="a_edge5_Node000005_Node000006"><a xlink:title=" ">
<path fill="none" stroke="#63b8ff" d="M107.47,-565.54C63.65,-550.51 0,-519.38 0,-465.38 0,-465.38 0,-465.38 0,-349.88 0,-318.3 5.3,-307.6 26,-283.75 40.23,-267.35 61.92,-255.57 79.13,-248.13"/>
<polygon fill="#63b8ff" stroke="#63b8ff" points="106.37,-568.86 116.97,-568.63 108.54,-562.2 106.37,-568.86"/>
</a>
</g>
</g>
<!-- Node7 -->
<g id="Node000007" class="node">
<title>Node7</title>
<g id="a_Node000007"><a xlink:href="structnix_1_1SourceExprCommand.html" target="_top" xlink:title=" ">
<polygon fill="white" stroke="#bfbfbf" points="177,-304.5 35,-304.5 35,-283.75 177,-283.75 177,-304.5"/>
<text text-anchor="middle" x="106" y="-291" font-family="Helvetica,sans-Serif" font-size="10.00">nix::SourceExprCommand</text>
</a>
</g>
</g>
<!-- Node6&#45;&gt;Node7 -->
<g id="edge7_Node000007_Node000006" class="edge">
<title>Node6&#45;&gt;Node7</title>
<g id="a_edge7_Node000007_Node000006"><a xlink:title=" ">
<path fill="none" stroke="#63b8ff" d="M116.53,-561.82C84.02,-543.83 38,-510.4 38,-465.38 38,-465.38 38,-465.38 38,-406.62 38,-376.05 40.97,-366.54 57,-340.5 66,-325.89 80.97,-313 92,-304.74"/>
<polygon fill="#63b8ff" stroke="#63b8ff" points="114.72,-564.82 125.19,-566.41 117.99,-558.64 114.72,-564.82"/>
</a>
</g>
</g>
<!-- Node8 -->
<g id="Node000008" class="node">
<title>Node8</title>
<g id="a_Node000008"><a xlink:href="structnix_1_1MixFlakeOptions.html" target="_top" xlink:title=" ">
<polygon fill="white" stroke="#666666" points="184.38,-361.25 65.62,-361.25 65.62,-340.5 184.38,-340.5 184.38,-361.25"/>
<text text-anchor="middle" x="125" y="-347.75" font-family="Helvetica,sans-Serif" font-size="10.00">nix::MixFlakeOptions</text>
</a>
</g>
</g>
<!-- Node6&#45;&gt;Node8 -->
<g id="edge9_Node000008_Node000006" class="edge">
<title>Node6&#45;&gt;Node8</title>
<g id="a_edge9_Node000008_Node000006"><a xlink:title=" ">
<path fill="none" stroke="#63b8ff" d="M120.5,-560.59C110.54,-553.1 100.41,-543.26 95,-531.5 70.05,-477.29 79.7,-454.36 97,-397.25 101.08,-383.78 110.18,-370.31 116.91,-361.59"/>
<polygon fill="#63b8ff" stroke="#63b8ff" points="118.38,-563.38 128.6,-566.17 122.35,-557.61 118.38,-563.38"/>
</a>
</g>
</g>
<!-- Node11 -->
<g id="Node000011" class="node">
<title>Node11</title>
<g id="a_Node000011"><a xlink:href="structnix_1_1Command.html" target="_top" xlink:title=" ">
<polygon fill="white" stroke="#666666" points="191.62,-531.5 104.38,-531.5 104.38,-510.75 191.62,-510.75 191.62,-531.5"/>
<text text-anchor="middle" x="148" y="-518" font-family="Helvetica,sans-Serif" font-size="10.00">nix::Command</text>
</a>
</g>
</g>
<!-- Node6&#45;&gt;Node11 -->
<g id="edge13_Node000011_Node000006" class="edge">
<title>Node6&#45;&gt;Node11</title>
<g id="a_edge13_Node000011_Node000006"><a xlink:title=" ">
<path fill="none" stroke="#63b8ff" d="M148,-555.63C148,-547.41 148,-538.43 148,-531.83"/>
<polygon fill="#63b8ff" stroke="#63b8ff" points="144.5,-555.57 148,-565.57 151.5,-555.57 144.5,-555.57"/>
</a>
</g>
</g>
<!-- Node12 -->
<g id="Node000012" class="node">
<title>Node12</title>
<g id="a_Node000012"><a xlink:href="structnix_1_1MixEvalArgs.html" target="_top" xlink:title=" ">
<polygon fill="white" stroke="#bfbfbf" points="331.88,-474.75 234.12,-474.75 234.12,-454 331.88,-454 331.88,-474.75"/>
<text text-anchor="middle" x="283" y="-461.25" font-family="Helvetica,sans-Serif" font-size="10.00">nix::MixEvalArgs</text>
</a>
</g>
</g>
<!-- Node6&#45;&gt;Node12 -->
<g id="edge15_Node000012_Node000006" class="edge">
<title>Node6&#45;&gt;Node12</title>
<g id="a_edge15_Node000012_Node000006"><a xlink:title=" ">
<path fill="none" stroke="#63b8ff" d="M168.26,-560.14C196.83,-536.55 248.04,-494.25 271.13,-475.18"/>
<polygon fill="#63b8ff" stroke="#63b8ff" points="166.16,-557.34 160.68,-566.4 170.62,-562.74 166.16,-557.34"/>
</a>
</g>
</g>
<!-- Node13 -->
<g id="Node000013" class="node">
<title>Node13</title>
<g id="a_Node000013"><a xlink:href="structnix_1_1MixRepair.html" target="_top" xlink:title=" ">
<polygon fill="white" stroke="#bfbfbf" points="334.25,-531.5 247.75,-531.5 247.75,-510.75 334.25,-510.75 334.25,-531.5"/>
<text text-anchor="middle" x="291" y="-518" font-family="Helvetica,sans-Serif" font-size="10.00">nix::MixRepair</text>
</a>
</g>
</g>
<!-- Node6&#45;&gt;Node13 -->
<g id="edge17_Node000013_Node000006" class="edge">
<title>Node6&#45;&gt;Node13</title>
<g id="a_edge17_Node000013_Node000006"><a xlink:title=" ">
<path fill="none" stroke="#63b8ff" d="M184.27,-562.99C209.7,-553.25 243.05,-540.48 265.66,-531.83"/>
<polygon fill="#63b8ff" stroke="#63b8ff" points="183.07,-559.7 174.98,-566.55 185.57,-566.24 183.07,-559.7"/>
</a>
</g>
</g>
<!-- Node14 -->
<g id="Node000014" class="node">
<title>Node14</title>
<g id="a_Node000014"><a xlink:href="structnix_1_1MixOperateOnOptions.html" target="_top" xlink:title=" ">
<polygon fill="white" stroke="#bfbfbf" points="405.5,-418 260.5,-418 260.5,-397.25 405.5,-397.25 405.5,-418"/>
<text text-anchor="middle" x="333" y="-404.5" font-family="Helvetica,sans-Serif" font-size="10.00">nix::MixOperateOnOptions</text>
</a>
</g>
</g>
<!-- Node6&#45;&gt;Node14 -->
<g id="edge19_Node000014_Node000006" class="edge">
<title>Node6&#45;&gt;Node14</title>
<g id="a_edge19_Node000014_Node000006"><a xlink:title=" ">
<path fill="none" stroke="#63b8ff" d="M189.05,-573.22C240.47,-567.69 324.15,-555.24 343,-531.5 369.88,-497.64 348.12,-440.71 337.74,-418.2"/>
<polygon fill="#63b8ff" stroke="#63b8ff" points="188.76,-569.73 179.17,-574.23 189.48,-576.69 188.76,-569.73"/>
</a>
</g>
</g>
<!-- Node7&#45;&gt;Node5 -->
<g id="edge6_Node000005_Node000007" class="edge">
<title>Node7&#45;&gt;Node5</title>
<g id="a_edge6_Node000005_Node000007"><a xlink:title=" ">
<path fill="none" stroke="#63b8ff" d="M106,-271.88C106,-263.66 106,-254.68 106,-248.08"/>
<polygon fill="#63b8ff" stroke="#63b8ff" points="102.5,-271.82 106,-281.82 109.5,-271.82 102.5,-271.82"/>
</a>
</g>
</g>
<!-- Node8&#45;&gt;Node7 -->
<g id="edge8_Node000007_Node000008" class="edge">
<title>Node8&#45;&gt;Node7</title>
<g id="a_edge8_Node000007_Node000008"><a xlink:title=" ">
<path fill="none" stroke="#63b8ff" d="M117.93,-329.49C115,-321.05 111.74,-311.66 109.37,-304.83"/>
<polygon fill="#63b8ff" stroke="#63b8ff" points="114.52,-330.36 121.11,-338.66 121.13,-328.06 114.52,-330.36"/>
</a>
</g>
</g>
<!-- Node9 -->
<g id="Node000009" class="node">
<title>Node9</title>
<g id="a_Node000009"><a xlink:href="structnix_1_1EvalCommand.html" target="_top" xlink:title=" ">
<polygon fill="white" stroke="#666666" points="214.12,-418 105.88,-418 105.88,-397.25 214.12,-397.25 214.12,-418"/>
<text text-anchor="middle" x="160" y="-404.5" font-family="Helvetica,sans-Serif" font-size="10.00">nix::EvalCommand</text>
</a>
</g>
</g>
<!-- Node9&#45;&gt;Node8 -->
<g id="edge10_Node000008_Node000009" class="edge">
<title>Node9&#45;&gt;Node8</title>
<g id="a_edge10_Node000008_Node000009"><a xlink:title=" ">
<path fill="none" stroke="#63b8ff" d="M147.7,-387.39C142.12,-378.66 135.77,-368.72 131.2,-361.58"/>
<polygon fill="#63b8ff" stroke="#63b8ff" points="144.59,-389.02 152.93,-395.56 150.49,-385.25 144.59,-389.02"/>
</a>
</g>
</g>
<!-- Node10 -->
<g id="Node000010" class="node">
<title>Node10</title>
<g id="a_Node000010"><a xlink:href="structnix_1_1StoreCommand.html" target="_top" xlink:title=" ">
<polygon fill="white" stroke="#666666" points="216.38,-474.75 103.62,-474.75 103.62,-454 216.38,-454 216.38,-474.75"/>
<text text-anchor="middle" x="160" y="-461.25" font-family="Helvetica,sans-Serif" font-size="10.00">nix::StoreCommand</text>
</a>
</g>
</g>
<!-- Node10&#45;&gt;Node9 -->
<g id="edge11_Node000009_Node000010" class="edge">
<title>Node10&#45;&gt;Node9</title>
<g id="a_edge11_Node000009_Node000010"><a xlink:title=" ">
<path fill="none" stroke="#63b8ff" d="M160,-442.13C160,-433.91 160,-424.93 160,-418.33"/>
<polygon fill="#63b8ff" stroke="#63b8ff" points="156.5,-442.07 160,-452.07 163.5,-442.07 156.5,-442.07"/>
</a>
</g>
</g>
<!-- Node11&#45;&gt;Node10 -->
<g id="edge12_Node000010_Node000011" class="edge">
<title>Node11&#45;&gt;Node10</title>
<g id="a_edge12_Node000010_Node000011"><a xlink:title=" ">
<path fill="none" stroke="#63b8ff" d="M152.59,-499.17C154.41,-490.88 156.41,-481.75 157.87,-475.08"/>
<polygon fill="#63b8ff" stroke="#63b8ff" points="149.19,-498.34 150.47,-508.86 156.03,-499.84 149.19,-498.34"/>
</a>
</g>
</g>
<!-- Node12&#45;&gt;Node9 -->
<g id="edge14_Node000009_Node000012" class="edge">
<title>Node12&#45;&gt;Node9</title>
<g id="a_edge14_Node000009_Node000012"><a xlink:title=" ">
<path fill="none" stroke="#63b8ff" d="M250.62,-448.96C228.9,-439.3 200.89,-426.83 181.8,-418.33"/>
<polygon fill="#63b8ff" stroke="#63b8ff" points="249.07,-452.1 259.63,-452.97 251.91,-445.71 249.07,-452.1"/>
</a>
</g>
</g>
<!-- Node13&#45;&gt;Node12 -->
<g id="edge16_Node000012_Node000013" class="edge">
<title>Node13&#45;&gt;Node12</title>
<g id="a_edge16_Node000012_Node000013"><a xlink:title=" ">
<path fill="none" stroke="#63b8ff" d="M287.94,-499.17C286.73,-490.88 285.39,-481.75 284.42,-475.08"/>
<polygon fill="#63b8ff" stroke="#63b8ff" points="284.44,-499.45 289.35,-508.84 291.37,-498.44 284.44,-499.45"/>
</a>
</g>
</g>
<!-- Node14&#45;&gt;Node3 -->
<g id="edge18_Node000003_Node000014" class="edge">
<title>Node14&#45;&gt;Node3</title>
<g id="a_edge18_Node000003_Node000014"><a xlink:title=" ">
<path fill="none" stroke="#63b8ff" d="M301.53,-391.57C269.02,-373.58 223,-340.15 223,-295.12 223,-295.12 223,-295.12 223,-236.38 223,-194.7 190.71,-153.14 174.32,-134.73"/>
<polygon fill="#63b8ff" stroke="#63b8ff" points="299.72,-394.57 310.19,-396.16 302.99,-388.39 299.72,-394.57"/>
</a>
</g>
</g>
</g>
</svg>
