<?xml version="1.0" encoding="UTF-8" standalone="no"?>
<!DOCTYPE svg PUBLIC "-//W3C//DTD SVG 1.1//EN"
 "http://www.w3.org/Graphics/SVG/1.1/DTD/svg11.dtd">
<!-- Generated by graphviz version 12.2.1 (0)
 -->
<!-- Title: nix::Attr Pages: 1 -->
<svg width="721pt" height="350pt"
 viewBox="0.00 0.00 720.50 350.12" xmlns="http://www.w3.org/2000/svg" xmlns:xlink="http://www.w3.org/1999/xlink">
<g id="graph0" class="graph" transform="scale(1 1) rotate(0) translate(4 346.12)">
<title>nix::Attr</title>
<!-- Node1 -->
<g id="Node000001" class="node">
<title>Node1</title>
<g id="a_Node000001"><a xlink:title=" ">
<polygon fill="#999999" stroke="#666666" points="712.5,-51.38 657.5,-51.38 657.5,-30.62 712.5,-30.62 712.5,-51.38"/>
<text text-anchor="middle" x="685" y="-37.88" font-family="Helvetica,sans-Serif" font-size="10.00">nix::Attr</text>
</a>
</g>
</g>
<!-- Node2 -->
<g id="Node000002" class="node">
<title>Node2</title>
<g id="a_Node000002"><a xlink:href="classnix_1_1Symbol.html" target="_top" xlink:title=" ">
<polygon fill="white" stroke="#666666" points="199.25,-80.38 125.5,-80.38 125.5,-59.62 199.25,-59.62 199.25,-80.38"/>
<text text-anchor="middle" x="162.38" y="-66.88" font-family="Helvetica,sans-Serif" font-size="10.00">nix::Symbol</text>
</a>
</g>
</g>
<!-- Node2&#45;&gt;Node1 -->
<g id="edge1_Node000001_Node000002" class="edge">
<title>Node2&#45;&gt;Node1</title>
<g id="a_edge1_Node000001_Node000002"><a xlink:title=" ">
<path fill="none" stroke="#9a32cd" stroke-dasharray="5,2" d="M210.94,-66.67C240.64,-64.63 279.66,-62.03 314.25,-60 442.58,-52.45 596.07,-45.1 657.08,-42.25"/>
<polygon fill="#9a32cd" stroke="#9a32cd" points="210.89,-63.16 201.15,-67.34 211.37,-70.14 210.89,-63.16"/>
</a>
</g>
<text text-anchor="middle" x="482.5" y="-55.08" font-family="Helvetica,sans-Serif" font-size="10.00" fill="grey"> name</text>
</g>
<!-- Node10 -->
<g id="Node000010" class="node">
<title>Node10</title>
<g id="a_Node000010"><a xlink:href="structnix_1_1ExprLambda.html" target="_top" xlink:title=" ">
<polygon fill="white" stroke="#bfbfbf" points="427.38,-89.38 329.62,-89.38 329.62,-68.62 427.38,-68.62 427.38,-89.38"/>
<text text-anchor="middle" x="378.5" y="-75.88" font-family="Helvetica,sans-Serif" font-size="10.00">nix::ExprLambda</text>
</a>
</g>
</g>
<!-- Node2&#45;&gt;Node10 -->
<g id="edge17_Node000010_Node000002" class="edge">
<title>Node2&#45;&gt;Node10</title>
<g id="a_edge17_Node000010_Node000002"><a xlink:title=" ">
<path fill="none" stroke="#9a32cd" stroke-dasharray="5,2" d="M211.12,-72.01C246.32,-73.49 294.01,-75.49 329.31,-76.97"/>
<polygon fill="#9a32cd" stroke="#9a32cd" points="211.35,-68.51 201.21,-71.59 211.05,-75.51 211.35,-68.51"/>
</a>
</g>
<text text-anchor="middle" x="256.75" y="-78.82" font-family="Helvetica,sans-Serif" font-size="10.00" fill="grey"> name</text>
</g>
<!-- Node3 -->
<g id="Node000003" class="node">
<title>Node3</title>
<g id="a_Node000003"><a xlink:href="classnix_1_1PosIdx.html" target="_top" xlink:title=" ">
<polygon fill="white" stroke="#bfbfbf" points="69.25,-130.38 0,-130.38 0,-109.62 69.25,-109.62 69.25,-130.38"/>
<text text-anchor="middle" x="34.62" y="-116.88" font-family="Helvetica,sans-Serif" font-size="10.00">nix::PosIdx</text>
</a>
</g>
</g>
<!-- Node3&#45;&gt;Node1 -->
<g id="edge2_Node000001_Node000003" class="edge">
<title>Node3&#45;&gt;Node1</title>
<g id="a_edge2_Node000001_Node000003"><a xlink:title=" ">
<path fill="none" stroke="#9a32cd" stroke-dasharray="5,2" d="M45.35,-99.42C63.16,-65.12 104.46,0 161.38,0 161.38,0 161.38,0 555.25,0 595.13,0 638.82,-18.08 663.67,-30.23"/>
<polygon fill="#9a32cd" stroke="#9a32cd" points="42.41,-97.48 41.08,-108 48.67,-100.61 42.41,-97.48"/>
</a>
</g>
<text text-anchor="middle" x="378.5" y="-3.25" font-family="Helvetica,sans-Serif" font-size="10.00" fill="grey"> pos</text>
</g>
<!-- Node7 -->
<g id="Node000007" class="node">
<title>Node7</title>
<g id="a_Node000007"><a xlink:href="classnix_1_1Bindings.html" target="_top" xlink:title=" ">
<polygon fill="white" stroke="#666666" points="296.25,-311.38 217.25,-311.38 217.25,-290.62 296.25,-290.62 296.25,-311.38"/>
<text text-anchor="middle" x="256.75" y="-297.88" font-family="Helvetica,sans-Serif" font-size="10.00">nix::Bindings</text>
</a>
</g>
</g>
<!-- Node3&#45;&gt;Node7 -->
<g id="edge8_Node000007_Node000003" class="edge">
<title>Node3&#45;&gt;Node7</title>
<g id="a_edge8_Node000007_Node000003"><a xlink:title=" ">
<path fill="none" stroke="#9a32cd" stroke-dasharray="5,2" d="M41.63,-141.51C52.39,-175.8 78.36,-242.42 125.5,-276 152.04,-294.9 189.03,-300.55 216.82,-301.81"/>
<polygon fill="#9a32cd" stroke="#9a32cd" points="45.09,-140.87 38.88,-132.28 38.38,-142.87 45.09,-140.87"/>
</a>
</g>
<text text-anchor="middle" x="97.38" y="-263.6" font-family="Helvetica,sans-Serif" font-size="10.00" fill="grey"> pos</text>
</g>
<!-- Node9 -->
<g id="Node000009" class="node">
<title>Node9</title>
<g id="a_Node000009"><a xlink:href="structnix_1_1Expr.html" target="_top" xlink:title=" ">
<polygon fill="white" stroke="#bfbfbf" points="191.75,-130.38 133,-130.38 133,-109.62 191.75,-109.62 191.75,-130.38"/>
<text text-anchor="middle" x="162.38" y="-116.88" font-family="Helvetica,sans-Serif" font-size="10.00">nix::Expr</text>
</a>
</g>
</g>
<!-- Node3&#45;&gt;Node9 -->
<g id="edge14_Node000009_Node000003" class="edge">
<title>Node3&#45;&gt;Node9</title>
<g id="a_edge14_Node000009_Node000003"><a xlink:title=" ">
<path fill="none" stroke="#9a32cd" stroke-dasharray="5,2" d="M80.73,-120C98.11,-120 117.46,-120 132.85,-120"/>
<polygon fill="#9a32cd" stroke="#9a32cd" points="81.17,-116.5 71.17,-120 81.17,-123.5 81.17,-116.5"/>
</a>
</g>
<text text-anchor="middle" x="97.38" y="-123.25" font-family="Helvetica,sans-Serif" font-size="10.00" fill="grey"> pos</text>
</g>
<!-- Node4 -->
<g id="Node000004" class="node">
<title>Node4</title>
<g id="a_Node000004"><a xlink:href="structnix_1_1Value.html" target="_top" xlink:title=" ">
<polygon fill="white" stroke="#bfbfbf" points="586.25,-174.38 522.25,-174.38 522.25,-153.62 586.25,-153.62 586.25,-174.38"/>
<text text-anchor="middle" x="554.25" y="-160.88" font-family="Helvetica,sans-Serif" font-size="10.00">nix::Value</text>
</a>
</g>
</g>
<!-- Node4&#45;&gt;Node1 -->
<g id="edge3_Node000001_Node000004" class="edge">
<title>Node4&#45;&gt;Node1</title>
<g id="a_edge3_Node000001_Node000004"><a xlink:title=" ">
<path fill="none" stroke="#9a32cd" stroke-dasharray="5,2" d="M574.22,-145.88C601.39,-119.92 650.56,-72.94 672.68,-51.81"/>
<polygon fill="#9a32cd" stroke="#9a32cd" points="572.13,-143.03 567.32,-152.47 576.97,-148.09 572.13,-143.03"/>
</a>
</g>
<text text-anchor="middle" x="621.88" y="-120.38" font-family="Helvetica,sans-Serif" font-size="10.00" fill="grey"> value</text>
</g>
<!-- Node4&#45;&gt;Node4 -->
<g id="edge4_Node000004_Node000004" class="edge">
<title>Node4&#45;&gt;Node4</title>
<g id="a_edge4_Node000004_Node000004"><a xlink:title=" ">
<path fill="none" stroke="#9a32cd" stroke-dasharray="5,2" d="M542.49,-186.19C544.16,-189.85 548.08,-192.38 554.25,-192.38 565.87,-192.38 569.51,-183.43 565.15,-174.77"/>
<polygon fill="#9a32cd" stroke="#9a32cd" points="545.98,-186.52 543.24,-176.28 539,-185.99 545.98,-186.52"/>
</a>
</g>
<text text-anchor="middle" x="554.25" y="-246.62" font-family="Helvetica,sans-Serif" font-size="10.00" fill="grey"> EMPTY_LIST</text>
<text text-anchor="middle" x="554.25" y="-233.88" font-family="Helvetica,sans-Serif" font-size="10.00" fill="grey">elems</text>
<text text-anchor="middle" x="554.25" y="-221.12" font-family="Helvetica,sans-Serif" font-size="10.00" fill="grey">left</text>
<text text-anchor="middle" x="554.25" y="-208.38" font-family="Helvetica,sans-Serif" font-size="10.00" fill="grey">right</text>
<text text-anchor="middle" x="554.25" y="-195.62" font-family="Helvetica,sans-Serif" font-size="10.00" fill="grey">smallList</text>
</g>
<!-- Node8 -->
<g id="Node000008" class="node">
<title>Node8</title>
<g id="a_Node000008"><a xlink:href="structnix_1_1Env.html" target="_top" xlink:title=" ">
<polygon fill="white" stroke="#bfbfbf" points="712.5,-174.38 657.5,-174.38 657.5,-153.62 712.5,-153.62 712.5,-174.38"/>
<text text-anchor="middle" x="685" y="-160.88" font-family="Helvetica,sans-Serif" font-size="10.00">nix::Env</text>
</a>
</g>
</g>
<!-- Node4&#45;&gt;Node8 -->
<g id="edge12_Node000008_Node000004" class="edge">
<title>Node4&#45;&gt;Node8</title>
<g id="a_edge12_Node000008_Node000004"><a xlink:title=" ">
<path fill="none" stroke="#9a32cd" stroke-dasharray="5,2" d="M598.13,-164C617.63,-164 640.11,-164 657.18,-164"/>
<polygon fill="#9a32cd" stroke="#9a32cd" points="598.26,-160.5 588.26,-164 598.26,-167.5 598.26,-160.5"/>
</a>
</g>
<text text-anchor="middle" x="621.88" y="-167.25" font-family="Helvetica,sans-Serif" font-size="10.00" fill="grey"> values</text>
</g>
<!-- Node5 -->
<g id="Node000005" class="node">
<title>Node5</title>
<g id="a_Node000005"><a xlink:href="structnix_1_1checked_1_1Checked.html" target="_top" xlink:title=" ">
<polygon fill="white" stroke="#666666" points="440.5,-228.75 316.5,-228.75 316.5,-195.25 440.5,-195.25 440.5,-228.75"/>
<text text-anchor="start" x="324.5" y="-215.25" font-family="Helvetica,sans-Serif" font-size="10.00">nix::checked::Checked</text>
<text text-anchor="middle" x="378.5" y="-202.5" font-family="Helvetica,sans-Serif" font-size="10.00">&lt; int64_t &gt;</text>
</a>
</g>
</g>
<!-- Node5&#45;&gt;Node4 -->
<g id="edge5_Node000004_Node000005" class="edge">
<title>Node5&#45;&gt;Node4</title>
<g id="a_edge5_Node000004_Node000005"><a xlink:title=" ">
<path fill="none" stroke="#9a32cd" stroke-dasharray="5,2" d="M451.88,-192.43C469.06,-187.75 487.31,-182.73 504.25,-178 509.96,-176.41 516.04,-174.69 521.9,-173.02"/>
<polygon fill="#9a32cd" stroke="#9a32cd" points="450.96,-189.06 442.23,-195.06 452.8,-195.81 450.96,-189.06"/>
</a>
</g>
<text text-anchor="middle" x="482.5" y="-192.61" font-family="Helvetica,sans-Serif" font-size="10.00" fill="grey"> integer</text>
</g>
<!-- Node6 -->
<g id="Node000006" class="node">
<title>Node6</title>
<g id="a_Node000006"><a xlink:title=" ">
<polygon fill="white" stroke="#bfbfbf" points="176.78,-222.38 147.97,-222.38 147.97,-201.62 176.78,-201.62 176.78,-222.38"/>
<text text-anchor="middle" x="162.38" y="-208.88" font-family="Helvetica,sans-Serif" font-size="10.00">T</text>
</a>
</g>
</g>
<!-- Node6&#45;&gt;Node5 -->
<g id="edge6_Node000005_Node000006" class="edge">
<title>Node6&#45;&gt;Node5</title>
<g id="a_edge6_Node000005_Node000006"><a xlink:title=" ">
<path fill="none" stroke="#9a32cd" stroke-dasharray="5,2" d="M188.58,-212C219.73,-212 273.81,-212 316.15,-212"/>
<polygon fill="#9a32cd" stroke="#9a32cd" points="188.61,-208.5 178.61,-212 188.61,-215.5 188.61,-208.5"/>
</a>
</g>
<text text-anchor="middle" x="256.75" y="-215.25" font-family="Helvetica,sans-Serif" font-size="10.00" fill="grey"> value</text>
</g>
<!-- Node7&#45;&gt;Node4 -->
<g id="edge7_Node000004_Node000007" class="edge">
<title>Node7&#45;&gt;Node4</title>
<g id="a_edge7_Node000004_Node000007"><a xlink:title=" ">
<path fill="none" stroke="#9a32cd" stroke-dasharray="5,2" d="M307.62,-303.83C362.62,-304.17 450.44,-296.04 504.25,-247 527.13,-226.15 542.53,-192.09 549.31,-174.8"/>
<polygon fill="#9a32cd" stroke="#9a32cd" points="307.98,-300.34 297.92,-303.67 307.86,-307.34 307.98,-300.34"/>
</a>
</g>
<text text-anchor="middle" x="378.5" y="-307.06" font-family="Helvetica,sans-Serif" font-size="10.00" fill="grey"> attrs</text>
</g>
<!-- Node7&#45;&gt;Node7 -->
<g id="edge9_Node000007_Node000007" class="edge">
<title>Node7&#45;&gt;Node7</title>
<g id="a_edge9_Node000007_Node000007"><a xlink:title=" ">
<path fill="none" stroke="#9a32cd" stroke-dasharray="5,2" d="M240.34,-323.19C242.66,-326.85 248.13,-329.38 256.75,-329.38 272.97,-329.38 278.04,-320.43 271.96,-311.77"/>
<polygon fill="#9a32cd" stroke="#9a32cd" points="243.82,-323.59 241.38,-313.28 236.86,-322.86 243.82,-323.59"/>
</a>
</g>
<text text-anchor="middle" x="256.75" y="-332.62" font-family="Helvetica,sans-Serif" font-size="10.00" fill="grey"> EMPTY</text>
</g>
<!-- Node8&#45;&gt;Node4 -->
<g id="edge10_Node000004_Node000008" class="edge">
<title>Node8&#45;&gt;Node4</title>
<g id="a_edge10_Node000004_Node000008"><a xlink:title=" ">
<path fill="none" stroke="#9a32cd" stroke-dasharray="5,2" d="M649.2,-149.57C645.96,-148.63 642.7,-147.83 639.5,-147.25 624.09,-144.45 619.7,-144.68 604.25,-147.25 596.8,-148.49 588.96,-150.72 581.8,-153.15"/>
<polygon fill="#9a32cd" stroke="#9a32cd" points="647.94,-152.83 658.53,-152.68 650.15,-146.19 647.94,-152.83"/>
</a>
</g>
<text text-anchor="middle" x="621.88" y="-150.5" font-family="Helvetica,sans-Serif" font-size="10.00" fill="grey"> env</text>
</g>
<!-- Node8&#45;&gt;Node8 -->
<g id="edge11_Node000008_Node000008" class="edge">
<title>Node8&#45;&gt;Node8</title>
<g id="a_edge11_Node000008_Node000008"><a xlink:title=" ">
<path fill="none" stroke="#9a32cd" stroke-dasharray="5,2" d="M674.02,-186.19C675.58,-189.85 679.24,-192.38 685,-192.38 695.85,-192.38 699.24,-183.43 695.17,-174.77"/>
<polygon fill="#9a32cd" stroke="#9a32cd" points="677.51,-186.5 674.72,-176.28 670.53,-186.01 677.51,-186.5"/>
</a>
</g>
<text text-anchor="middle" x="685" y="-195.62" font-family="Helvetica,sans-Serif" font-size="10.00" fill="grey"> up</text>
</g>
<!-- Node9&#45;&gt;Node4 -->
<g id="edge13_Node000004_Node000009" class="edge">
<title>Node9&#45;&gt;Node4</title>
<g id="a_edge13_Node000004_Node000009"><a xlink:title=" ">
<path fill="none" stroke="#9a32cd" stroke-dasharray="5,2" d="M203.26,-124.5C281.02,-133.28 451.44,-152.51 521.85,-160.46"/>
<polygon fill="#9a32cd" stroke="#9a32cd" points="203.88,-121.05 193.55,-123.41 203.09,-128 203.88,-121.05"/>
</a>
</g>
<text text-anchor="middle" x="378.5" y="-154.52" font-family="Helvetica,sans-Serif" font-size="10.00" fill="grey"> expr</text>
</g>
<!-- Node9&#45;&gt;Node10 -->
<g id="edge16_Node000010_Node000009" class="edge">
<title>Node9&#45;&gt;Node10</title>
<g id="a_edge16_Node000010_Node000009"><a xlink:title=" ">
<path fill="none" stroke="#63b8ff" d="M202.75,-112.46C238.41,-105.63 291.06,-95.55 329.24,-88.24"/>
<polygon fill="#63b8ff" stroke="#63b8ff" points="202.46,-108.95 193.3,-114.27 203.78,-115.83 202.46,-108.95"/>
</a>
</g>
</g>
<!-- Node10&#45;&gt;Node4 -->
<g id="edge15_Node000004_Node000010" class="edge">
<title>Node10&#45;&gt;Node4</title>
<g id="a_edge15_Node000004_Node000010"><a xlink:title=" ">
<path fill="none" stroke="#9a32cd" stroke-dasharray="5,2" d="M438.74,-86.5C460.44,-91.09 484.5,-98.45 504.25,-110.25 522.46,-121.13 537.87,-140.88 546.32,-153.17"/>
<polygon fill="#9a32cd" stroke="#9a32cd" points="439.61,-83.1 429.12,-84.63 438.27,-89.98 439.61,-83.1"/>
</a>
</g>
<text text-anchor="middle" x="482.5" y="-113.5" font-family="Helvetica,sans-Serif" font-size="10.00" fill="grey"> fun</text>
</g>
<!-- Node11 -->
<g id="Node000011" class="node">
<title>Node11</title>
<g id="a_Node000011"><a xlink:href="structnix_1_1PrimOp.html" target="_top" xlink:title=" ">
<polygon fill="white" stroke="#666666" points="415,-267.38 342,-267.38 342,-246.62 415,-246.62 415,-267.38"/>
<text text-anchor="middle" x="378.5" y="-253.88" font-family="Helvetica,sans-Serif" font-size="10.00">nix::PrimOp</text>
</a>
</g>
</g>
<!-- Node11&#45;&gt;Node4 -->
<g id="edge18_Node000004_Node000011" class="edge">
<title>Node11&#45;&gt;Node4</title>
<g id="a_edge18_Node000004_Node000011"><a xlink:title=" ">
<path fill="none" stroke="#9a32cd" stroke-dasharray="5,2" d="M426.15,-244.08C431.8,-242.19 437.44,-240.16 442.75,-238 471.3,-226.41 478.72,-223.25 504.25,-206 518.18,-196.59 532.61,-183.79 542.17,-174.8"/>
<polygon fill="#9a32cd" stroke="#9a32cd" points="425.28,-240.68 416.81,-247.04 427.4,-247.35 425.28,-240.68"/>
</a>
</g>
<text text-anchor="middle" x="482.5" y="-233.52" font-family="Helvetica,sans-Serif" font-size="10.00" fill="grey"> primOp</text>
</g>
<!-- Node12 -->
<g id="Node000012" class="node">
<title>Node12</title>
<g id="a_Node000012"><a xlink:title=" ">
<polygon fill="white" stroke="#bfbfbf" points="184.25,-267.38 140.5,-267.38 140.5,-246.62 184.25,-246.62 184.25,-267.38"/>
<text text-anchor="middle" x="162.38" y="-253.88" font-family="Helvetica,sans-Serif" font-size="10.00">string</text>
</a>
</g>
</g>
<!-- Node12&#45;&gt;Node11 -->
<g id="edge19_Node000011_Node000012" class="edge">
<title>Node12&#45;&gt;Node11</title>
<g id="a_edge19_Node000011_Node000012"><a xlink:title=" ">
<path fill="none" stroke="#9a32cd" stroke-dasharray="5,2" d="M195.98,-257C235.28,-257 301.12,-257 341.77,-257"/>
<polygon fill="#9a32cd" stroke="#9a32cd" points="196.2,-253.5 186.2,-257 196.2,-260.5 196.2,-253.5"/>
</a>
</g>
<text text-anchor="middle" x="256.75" y="-260.25" font-family="Helvetica,sans-Serif" font-size="10.00" fill="grey"> name</text>
</g>
<!-- Node13 -->
<g id="Node000013" class="node">
<title>Node13</title>
<g id="a_Node000013"><a xlink:href="classnix_1_1ExternalValueBase.html" target="_top" xlink:title=" ">
<polygon fill="white" stroke="#666666" points="442.75,-128.38 314.25,-128.38 314.25,-107.62 442.75,-107.62 442.75,-128.38"/>
<text text-anchor="middle" x="378.5" y="-114.88" font-family="Helvetica,sans-Serif" font-size="10.00">nix::ExternalValueBase</text>
</a>
</g>
</g>
<!-- Node13&#45;&gt;Node4 -->
<g id="edge20_Node000004_Node000013" class="edge">
<title>Node13&#45;&gt;Node4</title>
<g id="a_edge20_Node000004_Node000013"><a xlink:title=" ">
<path fill="none" stroke="#9a32cd" stroke-dasharray="5,2" d="M453.94,-125.17C470.75,-127.97 488.33,-131.86 504.25,-137.25 515.82,-141.17 527.87,-147.71 537.12,-153.34"/>
<polygon fill="#9a32cd" stroke="#9a32cd" points="454.94,-121.78 444.52,-123.71 453.86,-128.7 454.94,-121.78"/>
</a>
</g>
<text text-anchor="middle" x="482.5" y="-140.5" font-family="Helvetica,sans-Serif" font-size="10.00" fill="grey"> external</text>
</g>
</g>
</svg>
