<?xml version="1.0" encoding="UTF-8" standalone="no"?>
<!DOCTYPE svg PUBLIC "-//W3C//DTD SVG 1.1//EN"
 "http://www.w3.org/Graphics/SVG/1.1/DTD/svg11.dtd">
<!-- Generated by graphviz version 12.2.1 (0)
 -->
<!-- Title: nix::CmdPathInfo Pages: 1 -->
<svg width="821pt" height="658pt"
 viewBox="0.00 0.00 821.00 657.50" xmlns="http://www.w3.org/2000/svg" xmlns:xlink="http://www.w3.org/1999/xlink">
<g id="graph0" class="graph" transform="scale(1 1) rotate(0) translate(4 653.5)">
<title>nix::CmdPathInfo</title>
<!-- Node1 -->
<g id="Node000001" class="node">
<title>Node1</title>
<g id="a_Node000001"><a xlink:title=" ">
<polygon fill="#999999" stroke="#666666" points="775.12,-20.75 675.88,-20.75 675.88,0 775.12,0 775.12,-20.75"/>
<text text-anchor="middle" x="725.5" y="-7.25" font-family="Helvetica,sans-Serif" font-size="10.00">nix::CmdPathInfo</text>
</a>
</g>
</g>
<!-- Node2 -->
<g id="Node000002" class="node">
<title>Node2</title>
<g id="a_Node000002"><a xlink:href="structnix_1_1StorePathsCommand.html" target="_top" xlink:title=" ">
<polygon fill="white" stroke="#bfbfbf" points="405,-78.5 266,-78.5 266,-57.75 405,-57.75 405,-78.5"/>
<text text-anchor="middle" x="335.5" y="-65" font-family="Helvetica,sans-Serif" font-size="10.00">nix::StorePathsCommand</text>
</a>
</g>
</g>
<!-- Node2&#45;&gt;Node1 -->
<g id="edge1_Node000001_Node000002" class="edge">
<title>Node2&#45;&gt;Node1</title>
<g id="a_edge1_Node000001_Node000002"><a xlink:title=" ">
<path fill="none" stroke="#63b8ff" d="M415.56,-55.68C493.63,-44.52 609.92,-27.9 675.61,-18.51"/>
<polygon fill="#63b8ff" stroke="#63b8ff" points="415.23,-52.19 405.82,-57.07 416.22,-59.12 415.23,-52.19"/>
</a>
</g>
</g>
<!-- Node3 -->
<g id="Node000003" class="node">
<title>Node3</title>
<g id="a_Node000003"><a xlink:href="structnix_1_1BuiltPathsCommand.html" target="_top" xlink:title=" ">
<polygon fill="white" stroke="#666666" points="305.5,-136.25 169.5,-136.25 169.5,-115.5 305.5,-115.5 305.5,-136.25"/>
<text text-anchor="middle" x="237.5" y="-122.75" font-family="Helvetica,sans-Serif" font-size="10.00">nix::BuiltPathsCommand</text>
</a>
</g>
</g>
<!-- Node3&#45;&gt;Node2 -->
<g id="edge2_Node000002_Node000003" class="edge">
<title>Node3&#45;&gt;Node2</title>
<g id="a_edge2_Node000002_Node000003"><a xlink:title=" ">
<path fill="none" stroke="#63b8ff" d="M264.58,-109.47C281.75,-99.7 303.45,-87.36 318.3,-78.91"/>
<polygon fill="#63b8ff" stroke="#63b8ff" points="262.85,-106.43 255.89,-114.42 266.31,-112.51 262.85,-106.43"/>
</a>
</g>
</g>
<!-- Node4 -->
<g id="Node000004" class="node">
<title>Node4</title>
<g id="a_Node000004"><a xlink:href="structnix_1_1InstallablesCommand.html" target="_top" xlink:title=" ">
<polygon fill="white" stroke="#666666" points="309.25,-194 165.75,-194 165.75,-173.25 309.25,-173.25 309.25,-194"/>
<text text-anchor="middle" x="237.5" y="-180.5" font-family="Helvetica,sans-Serif" font-size="10.00">nix::InstallablesCommand</text>
</a>
</g>
</g>
<!-- Node4&#45;&gt;Node3 -->
<g id="edge3_Node000003_Node000004" class="edge">
<title>Node4&#45;&gt;Node3</title>
<g id="a_edge3_Node000003_Node000004"><a xlink:title=" ">
<path fill="none" stroke="#63b8ff" d="M237.5,-161.68C237.5,-153.02 237.5,-143.4 237.5,-136.47"/>
<polygon fill="#63b8ff" stroke="#63b8ff" points="234,-161.4 237.5,-171.4 241,-161.4 234,-161.4"/>
</a>
</g>
</g>
<!-- Node5 -->
<g id="Node000005" class="node">
<title>Node5</title>
<g id="a_Node000005"><a xlink:href="structnix_1_1RawInstallablesCommand.html" target="_top" xlink:title=" ">
<polygon fill="white" stroke="#666666" points="319.75,-251.75 155.25,-251.75 155.25,-231 319.75,-231 319.75,-251.75"/>
<text text-anchor="middle" x="237.5" y="-238.25" font-family="Helvetica,sans-Serif" font-size="10.00">nix::RawInstallablesCommand</text>
</a>
</g>
</g>
<!-- Node5&#45;&gt;Node4 -->
<g id="edge4_Node000004_Node000005" class="edge">
<title>Node5&#45;&gt;Node4</title>
<g id="a_edge4_Node000004_Node000005"><a xlink:title=" ">
<path fill="none" stroke="#63b8ff" d="M237.5,-219.43C237.5,-210.77 237.5,-201.15 237.5,-194.22"/>
<polygon fill="#63b8ff" stroke="#63b8ff" points="234,-219.15 237.5,-229.15 241,-219.15 234,-219.15"/>
</a>
</g>
</g>
<!-- Node6 -->
<g id="Node000006" class="node">
<title>Node6</title>
<g id="a_Node000006"><a xlink:href="classnix_1_1Args.html" target="_top" xlink:title=" ">
<polygon fill="white" stroke="#bfbfbf" points="432.88,-649.5 374.12,-649.5 374.12,-628.75 432.88,-628.75 432.88,-649.5"/>
<text text-anchor="middle" x="403.5" y="-636" font-family="Helvetica,sans-Serif" font-size="10.00">nix::Args</text>
</a>
</g>
</g>
<!-- Node6&#45;&gt;Node5 -->
<g id="edge5_Node000005_Node000006" class="edge">
<title>Node6&#45;&gt;Node5</title>
<g id="a_edge5_Node000005_Node000006"><a xlink:title=" ">
<path fill="none" stroke="#63b8ff" d="M362.35,-637.08C293.04,-634.18 160.5,-623.29 160.5,-582.38 160.5,-582.38 160.5,-582.38 160.5,-298.12 160.5,-275.02 183.53,-260.51 204.4,-252.11"/>
<polygon fill="#63b8ff" stroke="#63b8ff" points="362.07,-640.57 372.19,-637.45 362.33,-633.57 362.07,-640.57"/>
</a>
</g>
</g>
<!-- Node8 -->
<g id="Node000008" class="node">
<title>Node8</title>
<g id="a_Node000008"><a xlink:href="structnix_1_1Command.html" target="_top" xlink:title=" ">
<polygon fill="white" stroke="#666666" points="367.12,-591.75 279.88,-591.75 279.88,-571 367.12,-571 367.12,-591.75"/>
<text text-anchor="middle" x="323.5" y="-578.25" font-family="Helvetica,sans-Serif" font-size="10.00">nix::Command</text>
</a>
</g>
</g>
<!-- Node6&#45;&gt;Node8 -->
<g id="edge8_Node000008_Node000006" class="edge">
<title>Node6&#45;&gt;Node8</title>
<g id="a_edge8_Node000008_Node000006"><a xlink:title=" ">
<path fill="none" stroke="#63b8ff" d="M380.2,-621.89C366.38,-612.26 349.32,-600.37 337.54,-592.16"/>
<polygon fill="#63b8ff" stroke="#63b8ff" points="378.12,-624.7 388.32,-627.55 382.12,-618.96 378.12,-624.7"/>
</a>
</g>
</g>
<!-- Node9 -->
<g id="Node000009" class="node">
<title>Node9</title>
<g id="a_Node000009"><a xlink:href="structnix_1_1SourceExprCommand.html" target="_top" xlink:title=" ">
<polygon fill="white" stroke="#bfbfbf" points="403.5,-309.5 261.5,-309.5 261.5,-288.75 403.5,-288.75 403.5,-309.5"/>
<text text-anchor="middle" x="332.5" y="-296" font-family="Helvetica,sans-Serif" font-size="10.00">nix::SourceExprCommand</text>
</a>
</g>
</g>
<!-- Node6&#45;&gt;Node9 -->
<g id="edge10_Node000009_Node000006" class="edge">
<title>Node6&#45;&gt;Node9</title>
<g id="a_edge10_Node000009_Node000006"><a xlink:title=" ">
<path fill="none" stroke="#63b8ff" d="M444.45,-635.09C529.72,-628.21 718.5,-609.89 718.5,-582.38 718.5,-582.38 718.5,-582.38 718.5,-355.88 718.5,-324.43 515.28,-309.27 403.75,-303.31"/>
<polygon fill="#63b8ff" stroke="#63b8ff" points="444.34,-631.59 434.64,-635.86 444.89,-638.56 444.34,-631.59"/>
</a>
</g>
</g>
<!-- Node10 -->
<g id="Node000010" class="node">
<title>Node10</title>
<g id="a_Node000010"><a xlink:href="structnix_1_1MixFlakeOptions.html" target="_top" xlink:title=" ">
<polygon fill="white" stroke="#666666" points="391.88,-367.25 273.12,-367.25 273.12,-346.5 391.88,-346.5 391.88,-367.25"/>
<text text-anchor="middle" x="332.5" y="-353.75" font-family="Helvetica,sans-Serif" font-size="10.00">nix::MixFlakeOptions</text>
</a>
</g>
</g>
<!-- Node6&#45;&gt;Node10 -->
<g id="edge12_Node000010_Node000006" class="edge">
<title>Node6&#45;&gt;Node10</title>
<g id="a_edge12_Node000010_Node000006"><a xlink:title=" ">
<path fill="none" stroke="#63b8ff" d="M362.58,-635.94C331.7,-631.89 291.22,-620.92 270.5,-591.75 245.21,-556.15 256.82,-534.97 270.5,-493.5 280.33,-463.7 299.06,-465.1 312.5,-436.75 323.64,-413.26 329.1,-382.79 331.29,-367.51"/>
<polygon fill="#63b8ff" stroke="#63b8ff" points="362.06,-639.41 372.38,-637.02 362.82,-632.45 362.06,-639.41"/>
</a>
</g>
</g>
<!-- Node13 -->
<g id="Node000013" class="node">
<title>Node13</title>
<g id="a_Node000013"><a xlink:href="structnix_1_1MixEvalArgs.html" target="_top" xlink:title=" ">
<polygon fill="white" stroke="#bfbfbf" points="637.38,-514.25 539.62,-514.25 539.62,-493.5 637.38,-493.5 637.38,-514.25"/>
<text text-anchor="middle" x="588.5" y="-500.75" font-family="Helvetica,sans-Serif" font-size="10.00">nix::MixEvalArgs</text>
</a>
</g>
</g>
<!-- Node6&#45;&gt;Node13 -->
<g id="edge17_Node000013_Node000006" class="edge">
<title>Node6&#45;&gt;Node13</title>
<g id="a_edge17_Node000013_Node000006"><a xlink:title=" ">
<path fill="none" stroke="#63b8ff" d="M444.63,-634.6C477.21,-629.8 521.99,-618.47 551.5,-591.75 574.83,-570.62 583.98,-532.32 587.09,-514.49"/>
<polygon fill="#63b8ff" stroke="#63b8ff" points="444.19,-631.12 434.73,-635.89 445.1,-638.06 444.19,-631.12"/>
</a>
</g>
</g>
<!-- Node14 -->
<g id="Node000014" class="node">
<title>Node14</title>
<g id="a_Node000014"><a xlink:href="structnix_1_1MixRepair.html" target="_top" xlink:title=" ">
<polygon fill="white" stroke="#bfbfbf" points="542.75,-591.75 456.25,-591.75 456.25,-571 542.75,-571 542.75,-591.75"/>
<text text-anchor="middle" x="499.5" y="-578.25" font-family="Helvetica,sans-Serif" font-size="10.00">nix::MixRepair</text>
</a>
</g>
</g>
<!-- Node6&#45;&gt;Node14 -->
<g id="edge19_Node000014_Node000006" class="edge">
<title>Node6&#45;&gt;Node14</title>
<g id="a_edge19_Node000014_Node000006"><a xlink:title=" ">
<path fill="none" stroke="#63b8ff" d="M430.02,-622.72C446.85,-612.95 468.1,-600.61 482.65,-592.16"/>
<polygon fill="#63b8ff" stroke="#63b8ff" points="428.42,-619.61 421.53,-627.65 431.94,-625.66 428.42,-619.61"/>
</a>
</g>
</g>
<!-- Node17 -->
<g id="Node000017" class="node">
<title>Node17</title>
<g id="a_Node000017"><a xlink:href="structnix_1_1MixOperateOnOptions.html" target="_top" xlink:title=" ">
<polygon fill="white" stroke="#bfbfbf" points="145,-553 0,-553 0,-532.25 145,-532.25 145,-553"/>
<text text-anchor="middle" x="72.5" y="-539.5" font-family="Helvetica,sans-Serif" font-size="10.00">nix::MixOperateOnOptions</text>
</a>
</g>
</g>
<!-- Node6&#45;&gt;Node17 -->
<g id="edge23_Node000017_Node000006" class="edge">
<title>Node6&#45;&gt;Node17</title>
<g id="a_edge23_Node000017_Node000006"><a xlink:title=" ">
<path fill="none" stroke="#63b8ff" d="M362.54,-636.84C300.03,-634.37 184.1,-627.61 146.5,-610.75 117.38,-597.69 91.89,-568.73 79.86,-553.47"/>
<polygon fill="#63b8ff" stroke="#63b8ff" points="362.29,-640.33 372.42,-637.21 362.55,-633.34 362.29,-640.33"/>
</a>
</g>
</g>
<!-- Node18 -->
<g id="Node000018" class="node">
<title>Node18</title>
<g id="a_Node000018"><a xlink:href="structnix_1_1MixJSON.html" target="_top" xlink:title=" ">
<polygon fill="white" stroke="#bfbfbf" points="813,-475.5 734,-475.5 734,-454.75 813,-454.75 813,-475.5"/>
<text text-anchor="middle" x="773.5" y="-462" font-family="Helvetica,sans-Serif" font-size="10.00">nix::MixJSON</text>
</a>
</g>
</g>
<!-- Node6&#45;&gt;Node18 -->
<g id="edge25_Node000018_Node000006" class="edge">
<title>Node6&#45;&gt;Node18</title>
<g id="a_edge25_Node000018_Node000006"><a xlink:title=" ">
<path fill="none" stroke="#63b8ff" d="M444.67,-637.29C528.03,-635.22 710.73,-628.67 732.5,-610.75 774.41,-576.25 775.28,-502.34 774.14,-475.83"/>
<polygon fill="#63b8ff" stroke="#63b8ff" points="444.79,-633.78 434.87,-637.52 444.95,-640.78 444.79,-633.78"/>
</a>
</g>
</g>
<!-- Node7 -->
<g id="Node000007" class="node">
<title>Node7</title>
<g id="a_Node000007"><a xlink:href="classnix_1_1MultiCommand.html" target="_top" xlink:title=" ">
<polygon fill="white" stroke="#666666" points="521.5,-514.25 409.5,-514.25 409.5,-493.5 521.5,-493.5 521.5,-514.25"/>
<text text-anchor="middle" x="465.5" y="-500.75" font-family="Helvetica,sans-Serif" font-size="10.00">nix::MultiCommand</text>
</a>
</g>
</g>
<!-- Node7&#45;&gt;Node6 -->
<g id="edge6_Node000006_Node000007" class="edge">
<title>Node7&#45;&gt;Node6</title>
<g id="a_edge6_Node000006_Node000007"><a xlink:title=" ">
<path fill="none" stroke="#9a32cd" stroke-dasharray="5,2" d="M447.1,-522.55C435.36,-534.96 420.92,-552.58 413,-571 404.73,-590.25 403.37,-615.18 403.3,-628.59"/>
<polygon fill="#9a32cd" stroke="#9a32cd" points="449.45,-525.15 453.97,-515.58 444.46,-520.24 449.45,-525.15"/>
</a>
</g>
<text text-anchor="middle" x="430.25" y="-578.25" font-family="Helvetica,sans-Serif" font-size="10.00" fill="grey"> parent</text>
</g>
<!-- Node8&#45;&gt;Node7 -->
<g id="edge7_Node000007_Node000008" class="edge">
<title>Node8&#45;&gt;Node7</title>
<g id="a_edge7_Node000007_Node000008"><a xlink:title=" ">
<path fill="none" stroke="#63b8ff" d="M343.23,-563.68C355.86,-553.6 372.93,-541.04 389.5,-532.25 402.88,-525.15 418.5,-519.17 432.08,-514.63"/>
<polygon fill="#63b8ff" stroke="#63b8ff" points="341.22,-560.81 335.7,-569.85 345.65,-566.22 341.22,-560.81"/>
</a>
</g>
</g>
<!-- Node12 -->
<g id="Node000012" class="node">
<title>Node12</title>
<g id="a_Node000012"><a xlink:href="structnix_1_1StoreCommand.html" target="_top" xlink:title=" ">
<polygon fill="white" stroke="#666666" points="391.88,-514.25 279.12,-514.25 279.12,-493.5 391.88,-493.5 391.88,-514.25"/>
<text text-anchor="middle" x="335.5" y="-500.75" font-family="Helvetica,sans-Serif" font-size="10.00">nix::StoreCommand</text>
</a>
</g>
</g>
<!-- Node8&#45;&gt;Node12 -->
<g id="edge15_Node000012_Node000008" class="edge">
<title>Node8&#45;&gt;Node12</title>
<g id="a_edge15_Node000012_Node000008"><a xlink:title=" ">
<path fill="none" stroke="#63b8ff" d="M326.83,-559.43C329.17,-544.73 332.18,-525.77 333.97,-514.51"/>
<polygon fill="#63b8ff" stroke="#63b8ff" points="323.42,-558.58 325.31,-569.01 330.33,-559.68 323.42,-558.58"/>
</a>
</g>
</g>
<!-- Node9&#45;&gt;Node5 -->
<g id="edge9_Node000005_Node000009" class="edge">
<title>Node9&#45;&gt;Node5</title>
<g id="a_edge9_Node000005_Node000009"><a xlink:title=" ">
<path fill="none" stroke="#63b8ff" d="M306.25,-282.72C289.6,-272.95 268.57,-260.61 254.18,-252.16"/>
<polygon fill="#63b8ff" stroke="#63b8ff" points="304.25,-285.61 314.65,-287.65 307.79,-279.57 304.25,-285.61"/>
</a>
</g>
</g>
<!-- Node10&#45;&gt;Node9 -->
<g id="edge11_Node000009_Node000010" class="edge">
<title>Node10&#45;&gt;Node9</title>
<g id="a_edge11_Node000009_Node000010"><a xlink:title=" ">
<path fill="none" stroke="#63b8ff" d="M332.5,-334.93C332.5,-326.27 332.5,-316.65 332.5,-309.72"/>
<polygon fill="#63b8ff" stroke="#63b8ff" points="329,-334.65 332.5,-344.65 336,-334.65 329,-334.65"/>
</a>
</g>
</g>
<!-- Node11 -->
<g id="Node000011" class="node">
<title>Node11</title>
<g id="a_Node000011"><a xlink:href="structnix_1_1EvalCommand.html" target="_top" xlink:title=" ">
<polygon fill="white" stroke="#666666" points="468.62,-436.75 360.38,-436.75 360.38,-416 468.62,-416 468.62,-436.75"/>
<text text-anchor="middle" x="414.5" y="-423.25" font-family="Helvetica,sans-Serif" font-size="10.00">nix::EvalCommand</text>
</a>
</g>
</g>
<!-- Node11&#45;&gt;Node10 -->
<g id="edge13_Node000010_Node000011" class="edge">
<title>Node11&#45;&gt;Node10</title>
<g id="a_edge13_Node000010_Node000011"><a xlink:title=" ">
<path fill="none" stroke="#63b8ff" d="M394.29,-408.73C378.66,-395.87 357.55,-378.5 344.49,-367.75"/>
<polygon fill="#63b8ff" stroke="#63b8ff" points="391.64,-411.09 401.58,-414.74 396.09,-405.68 391.64,-411.09"/>
</a>
</g>
</g>
<!-- Node12&#45;&gt;Node11 -->
<g id="edge14_Node000011_Node000012" class="edge">
<title>Node12&#45;&gt;Node11</title>
<g id="a_edge14_Node000011_Node000012"><a xlink:title=" ">
<path fill="none" stroke="#63b8ff" d="M353.77,-485.41C369.42,-470.46 391.39,-449.46 404.17,-437.25"/>
<polygon fill="#63b8ff" stroke="#63b8ff" points="351.73,-482.52 346.92,-491.96 356.57,-487.58 351.73,-482.52"/>
</a>
</g>
</g>
<!-- Node13&#45;&gt;Node11 -->
<g id="edge16_Node000011_Node000013" class="edge">
<title>Node13&#45;&gt;Node11</title>
<g id="a_edge16_Node000011_Node000013"><a xlink:title=" ">
<path fill="none" stroke="#63b8ff" d="M555.22,-488.44C520.61,-473.42 467.35,-450.31 437.25,-437.25"/>
<polygon fill="#63b8ff" stroke="#63b8ff" points="553.8,-491.63 564.36,-492.4 556.58,-485.21 553.8,-491.63"/>
</a>
</g>
</g>
<!-- Node14&#45;&gt;Node13 -->
<g id="edge18_Node000013_Node000014" class="edge">
<title>Node14&#45;&gt;Node13</title>
<g id="a_edge18_Node000013_Node000014"><a xlink:title=" ">
<path fill="none" stroke="#63b8ff" d="M519.6,-563.33C537.26,-548.35 562.34,-527.07 576.86,-514.75"/>
<polygon fill="#63b8ff" stroke="#63b8ff" points="517.65,-560.39 512.29,-569.53 522.18,-565.73 517.65,-560.39"/>
</a>
</g>
</g>
<!-- Node15 -->
<g id="Node000015" class="node">
<title>Node15</title>
<g id="a_Node000015"><a xlink:href="structnix_1_1SearchPath.html" target="_top" xlink:title=" ">
<polygon fill="white" stroke="#666666" points="690,-591.75 599,-591.75 599,-571 690,-571 690,-591.75"/>
<text text-anchor="middle" x="644.5" y="-578.25" font-family="Helvetica,sans-Serif" font-size="10.00">nix::SearchPath</text>
</a>
</g>
</g>
<!-- Node15&#45;&gt;Node13 -->
<g id="edge20_Node000013_Node000015" class="edge">
<title>Node15&#45;&gt;Node13</title>
<g id="a_edge20_Node000013_Node000015"><a xlink:title=" ">
<path fill="none" stroke="#9a32cd" stroke-dasharray="5,2" d="M630.57,-561.6C619.48,-546.65 604.42,-526.33 595.65,-514.51"/>
<polygon fill="#9a32cd" stroke="#9a32cd" points="627.51,-563.34 636.28,-569.29 633.13,-559.17 627.51,-563.34"/>
</a>
</g>
<text text-anchor="middle" x="651.29" y="-539.5" font-family="Helvetica,sans-Serif" font-size="10.00" fill="grey"> searchPath</text>
</g>
<!-- Node16 -->
<g id="Node000016" class="node">
<title>Node16</title>
<g id="a_Node000016"><a xlink:href="structnix_1_1flake_1_1LockFlags.html" target="_top" xlink:title=" ">
<polygon fill="white" stroke="#bfbfbf" points="304,-436.75 189,-436.75 189,-416 304,-416 304,-436.75"/>
<text text-anchor="middle" x="246.5" y="-423.25" font-family="Helvetica,sans-Serif" font-size="10.00">nix::flake::LockFlags</text>
</a>
</g>
</g>
<!-- Node16&#45;&gt;Node10 -->
<g id="edge21_Node000010_Node000016" class="edge">
<title>Node16&#45;&gt;Node10</title>
<g id="a_edge21_Node000010_Node000016"><a xlink:title=" ">
<path fill="none" stroke="#9a32cd" stroke-dasharray="5,2" d="M254.52,-405.28C258.11,-398.24 262.93,-390.72 269,-385.25 277.47,-377.62 288.4,-371.88 298.8,-367.68"/>
<polygon fill="#9a32cd" stroke="#9a32cd" points="251.41,-403.67 250.5,-414.23 257.79,-406.54 251.41,-403.67"/>
</a>
</g>
<text text-anchor="middle" x="293.75" y="-388.5" font-family="Helvetica,sans-Serif" font-size="10.00" fill="grey"> lockFlags</text>
</g>
<!-- Node17&#45;&gt;Node3 -->
<g id="edge22_Node000003_Node000017" class="edge">
<title>Node17&#45;&gt;Node3</title>
<g id="a_edge22_Node000003_Node000017"><a xlink:title=" ">
<path fill="none" stroke="#63b8ff" d="M79.19,-521.37C83.57,-506.31 88.5,-485.16 88.5,-466.12 88.5,-466.12 88.5,-466.12 88.5,-182.62 88.5,-161.7 140.68,-146.02 183.29,-136.7"/>
<polygon fill="#63b8ff" stroke="#63b8ff" points="75.96,-519.96 76.34,-530.54 82.65,-522.03 75.96,-519.96"/>
</a>
</g>
</g>
<!-- Node18&#45;&gt;Node1 -->
<g id="edge24_Node000001_Node000018" class="edge">
<title>Node18&#45;&gt;Node1</title>
<g id="a_edge24_Node000001_Node000018"><a xlink:title=" ">
<path fill="none" stroke="#63b8ff" d="M769.51,-443.46C767.1,-429.23 764.5,-409.85 764.5,-392.62 764.5,-392.62 764.5,-392.62 764.5,-67.12 764.5,-48.23 749.27,-31.17 737.84,-21.04"/>
<polygon fill="#63b8ff" stroke="#63b8ff" points="766.01,-443.75 771.23,-452.97 772.89,-442.51 766.01,-443.75"/>
</a>
</g>
</g>
</g>
</svg>
