<?xml version="1.0" encoding="UTF-8" standalone="no"?>
<!DOCTYPE svg PUBLIC "-//W3C//DTD SVG 1.1//EN"
 "http://www.w3.org/Graphics/SVG/1.1/DTD/svg11.dtd">
<!-- Generated by graphviz version 12.2.1 (0)
 -->
<!-- Title: nix::LocalStoreConfig Pages: 1 -->
<svg width="1097pt" height="294pt"
 viewBox="0.00 0.00 1096.50 293.74" xmlns="http://www.w3.org/2000/svg" xmlns:xlink="http://www.w3.org/1999/xlink">
<g id="graph0" class="graph" transform="scale(1 1) rotate(0) translate(4 289.74)">
<title>nix::LocalStoreConfig</title>
<!-- Node1 -->
<g id="Node000001" class="node">
<title>Node1</title>
<g id="a_Node000001"><a xlink:title=" ">
<polygon fill="#999999" stroke="#666666" points="1088.5,-79.36 969.75,-79.36 969.75,-58.61 1088.5,-58.61 1088.5,-79.36"/>
<text text-anchor="middle" x="1029.12" y="-65.86" font-family="Helvetica,sans-Serif" font-size="10.00">nix::LocalStoreConfig</text>
</a>
</g>
</g>
<!-- Node2 -->
<g id="Node000002" class="node">
<title>Node2</title>
<g id="a_Node000002"><a xlink:href="structnix_1_1LocalFSStoreConfig.html" target="_top" xlink:title=" ">
<polygon fill="white" stroke="#bfbfbf" points="932.75,-201.36 802.75,-201.36 802.75,-180.61 932.75,-180.61 932.75,-201.36"/>
<text text-anchor="middle" x="867.75" y="-187.86" font-family="Helvetica,sans-Serif" font-size="10.00">nix::LocalFSStoreConfig</text>
</a>
</g>
</g>
<!-- Node2&#45;&gt;Node1 -->
<g id="edge1_Node000001_Node000002" class="edge">
<title>Node2&#45;&gt;Node1</title>
<g id="a_edge1_Node000001_Node000002"><a xlink:title=" ">
<path fill="none" stroke="#63b8ff" d="M891.99,-173.2C925.63,-147.45 986.86,-100.58 1014.24,-79.62"/>
<polygon fill="#63b8ff" stroke="#63b8ff" points="889.91,-170.38 884.1,-179.24 894.16,-175.94 889.91,-170.38"/>
</a>
</g>
</g>
<!-- Node3 -->
<g id="Node000003" class="node">
<title>Node3</title>
<g id="a_Node000003"><a xlink:href="structnix_1_1StoreConfig.html" target="_top" xlink:title=" ">
<polygon fill="white" stroke="#bfbfbf" points="712,-141.36 618.75,-141.36 618.75,-120.61 712,-120.61 712,-141.36"/>
<text text-anchor="middle" x="665.38" y="-127.86" font-family="Helvetica,sans-Serif" font-size="10.00">nix::StoreConfig</text>
</a>
</g>
</g>
<!-- Node3&#45;&gt;Node2 -->
<g id="edge2_Node000002_Node000003" class="edge">
<title>Node3&#45;&gt;Node2</title>
<g id="a_edge2_Node000002_Node000003"><a xlink:title=" ">
<path fill="none" stroke="#63b8ff" d="M713.35,-145.05C749.22,-155.79 797.91,-170.37 830.73,-180.2"/>
<polygon fill="#63b8ff" stroke="#63b8ff" points="714.7,-141.8 704.11,-142.29 712.69,-148.51 714.7,-141.8"/>
</a>
</g>
</g>
<!-- Node4 -->
<g id="Node000004" class="node">
<title>Node4</title>
<g id="a_Node000004"><a xlink:href="classnix_1_1Config.html" target="_top" xlink:title=" ">
<polygon fill="white" stroke="#666666" points="413,-155.36 345.25,-155.36 345.25,-134.61 413,-134.61 413,-155.36"/>
<text text-anchor="middle" x="379.12" y="-141.86" font-family="Helvetica,sans-Serif" font-size="10.00">nix::Config</text>
</a>
</g>
</g>
<!-- Node4&#45;&gt;Node3 -->
<g id="edge3_Node000003_Node000004" class="edge">
<title>Node4&#45;&gt;Node3</title>
<g id="a_edge3_Node000003_Node000004"><a xlink:title=" ">
<path fill="none" stroke="#63b8ff" d="M424.63,-142.79C477.39,-140.2 564.85,-135.89 618.29,-133.26"/>
<polygon fill="#63b8ff" stroke="#63b8ff" points="424.62,-139.29 414.8,-143.28 424.96,-146.28 424.62,-139.29"/>
</a>
</g>
</g>
<!-- Node5 -->
<g id="Node000005" class="node">
<title>Node5</title>
<g id="a_Node000005"><a xlink:href="classnix_1_1AbstractConfig.html" target="_top" xlink:title=" ">
<polygon fill="white" stroke="#bfbfbf" points="265.12,-155.36 156.88,-155.36 156.88,-134.61 265.12,-134.61 265.12,-155.36"/>
<text text-anchor="middle" x="211" y="-141.86" font-family="Helvetica,sans-Serif" font-size="10.00">nix::AbstractConfig</text>
</a>
</g>
</g>
<!-- Node5&#45;&gt;Node4 -->
<g id="edge4_Node000004_Node000005" class="edge">
<title>Node5&#45;&gt;Node4</title>
<g id="a_edge4_Node000004_Node000005"><a xlink:title=" ">
<path fill="none" stroke="#63b8ff" d="M276.75,-144.99C300.13,-144.99 325.54,-144.99 345.07,-144.99"/>
<polygon fill="#63b8ff" stroke="#63b8ff" points="276.99,-141.49 266.99,-144.99 276.99,-148.49 276.99,-141.49"/>
</a>
</g>
</g>
<!-- Node6 -->
<g id="Node000006" class="node">
<title>Node6</title>
<g id="a_Node000006"><a xlink:href="classnix_1_1PathsSetting.html" target="_top" xlink:title=" ">
<polygon fill="white" stroke="#666666" points="432.12,-206.74 326.12,-206.74 326.12,-173.24 432.12,-173.24 432.12,-206.74"/>
<text text-anchor="start" x="334.12" y="-193.24" font-family="Helvetica,sans-Serif" font-size="10.00">nix::PathsSetting&lt;</text>
<text text-anchor="middle" x="379.12" y="-180.49" font-family="Helvetica,sans-Serif" font-size="10.00"> Path &gt;</text>
</a>
</g>
</g>
<!-- Node6&#45;&gt;Node2 -->
<g id="edge20_Node000002_Node000006" class="edge">
<title>Node6&#45;&gt;Node2</title>
<g id="a_edge20_Node000002_Node000006"><a xlink:title=" ">
<path fill="none" stroke="#9a32cd" stroke-dasharray="5,2" d="M443.86,-191.63C451.41,-191.78 459,-191.9 466.25,-191.99 584.97,-193.37 723.49,-192.46 802.59,-191.7"/>
<polygon fill="#9a32cd" stroke="#9a32cd" points="444.08,-188.14 434.01,-191.43 443.94,-195.14 444.08,-188.14"/>
</a>
</g>
<text text-anchor="middle" x="665.38" y="-221.45" font-family="Helvetica,sans-Serif" font-size="10.00" fill="grey"> logDir</text>
<text text-anchor="middle" x="665.38" y="-208.7" font-family="Helvetica,sans-Serif" font-size="10.00" fill="grey">realStoreDir</text>
<text text-anchor="middle" x="665.38" y="-195.95" font-family="Helvetica,sans-Serif" font-size="10.00" fill="grey">stateDir</text>
</g>
<!-- Node6&#45;&gt;Node3 -->
<g id="edge5_Node000003_Node000006" class="edge">
<title>Node6&#45;&gt;Node3</title>
<g id="a_edge5_Node000003_Node000006"><a xlink:title=" ">
<path fill="none" stroke="#9a32cd" stroke-dasharray="5,2" d="M443.43,-181.03C487.78,-174.21 548.26,-163.82 600.75,-150.99 611.32,-148.4 622.71,-145.02 632.89,-141.77"/>
<polygon fill="#9a32cd" stroke="#9a32cd" points="443.09,-177.54 433.73,-182.5 444.14,-184.46 443.09,-177.54"/>
</a>
</g>
<text text-anchor="middle" x="533.5" y="-180.03" font-family="Helvetica,sans-Serif" font-size="10.00" fill="grey"> storeDir_</text>
</g>
<!-- Node7 -->
<g id="Node000007" class="node">
<title>Node7</title>
<g id="a_Node000007"><a xlink:href="classnix_1_1BaseSetting.html" target="_top" xlink:title=" ">
<polygon fill="white" stroke="#666666" points="273,-196.36 149,-196.36 149,-175.61 273,-175.61 273,-196.36"/>
<text text-anchor="middle" x="211" y="-182.86" font-family="Helvetica,sans-Serif" font-size="10.00">nix::BaseSetting&lt; T &gt;</text>
</a>
</g>
</g>
<!-- Node7&#45;&gt;Node6 -->
<g id="edge6_Node000006_Node000007" class="edge">
<title>Node7&#45;&gt;Node6</title>
<g id="a_edge6_Node000006_Node000007"><a xlink:title=" ">
<path fill="none" stroke="#63b8ff" d="M284.83,-187.74C298.59,-188.07 312.74,-188.41 325.72,-188.73"/>
<polygon fill="#63b8ff" stroke="#63b8ff" points="284.98,-184.24 274.9,-187.5 284.81,-191.24 284.98,-184.24"/>
</a>
</g>
</g>
<!-- Node8 -->
<g id="Node000008" class="node">
<title>Node8</title>
<g id="a_Node000008"><a xlink:href="classnix_1_1AbstractSetting.html" target="_top" xlink:title=" ">
<polygon fill="white" stroke="#bfbfbf" points="112,-116.36 0,-116.36 0,-95.61 112,-95.61 112,-116.36"/>
<text text-anchor="middle" x="56" y="-102.86" font-family="Helvetica,sans-Serif" font-size="10.00">nix::AbstractSetting</text>
</a>
</g>
</g>
<!-- Node8&#45;&gt;Node7 -->
<g id="edge7_Node000007_Node000008" class="edge">
<title>Node8&#45;&gt;Node7</title>
<g id="a_edge7_Node000007_Node000008"><a xlink:title=" ">
<path fill="none" stroke="#63b8ff" d="M80.92,-123.09C99.02,-135.52 124.81,-152.17 149,-163.99 157.5,-168.14 166.99,-171.93 175.9,-175.16"/>
<polygon fill="#63b8ff" stroke="#63b8ff" points="83.17,-120.39 72.96,-117.54 79.16,-126.13 83.17,-120.39"/>
</a>
</g>
</g>
<!-- Node10 -->
<g id="Node000010" class="node">
<title>Node10</title>
<g id="a_Node000010"><a xlink:href="classnix_1_1BaseSetting.html" target="_top" xlink:title=" ">
<polygon fill="white" stroke="#666666" points="273,-38.36 149,-38.36 149,-17.61 273,-17.61 273,-38.36"/>
<text text-anchor="middle" x="211" y="-24.86" font-family="Helvetica,sans-Serif" font-size="10.00">nix::BaseSetting&lt; T &gt;</text>
</a>
</g>
</g>
<!-- Node8&#45;&gt;Node10 -->
<g id="edge10_Node000010_Node000008" class="edge">
<title>Node8&#45;&gt;Node10</title>
<g id="a_edge10_Node000010_Node000008"><a xlink:title=" ">
<path fill="none" stroke="#63b8ff" d="M80.82,-88.67C98.87,-76.13 124.64,-59.45 149,-47.99 156.26,-44.57 164.26,-41.5 172.01,-38.84"/>
<polygon fill="#63b8ff" stroke="#63b8ff" points="79.04,-85.65 72.89,-94.28 83.07,-91.37 79.04,-85.65"/>
</a>
</g>
</g>
<!-- Node12 -->
<g id="Node000012" class="node">
<title>Node12</title>
<g id="a_Node000012"><a xlink:href="classnix_1_1BaseSetting.html" target="_top" xlink:title=" ">
<polygon fill="white" stroke="#666666" points="273,-77.36 149,-77.36 149,-56.61 273,-56.61 273,-77.36"/>
<text text-anchor="middle" x="211" y="-63.86" font-family="Helvetica,sans-Serif" font-size="10.00">nix::BaseSetting&lt; T &gt;</text>
</a>
</g>
</g>
<!-- Node8&#45;&gt;Node12 -->
<g id="edge13_Node000012_Node000008" class="edge">
<title>Node8&#45;&gt;Node12</title>
<g id="a_edge13_Node000012_Node000008"><a xlink:title=" ">
<path fill="none" stroke="#63b8ff" d="M110.59,-92.33C129.18,-87.59 149.76,-82.34 167.34,-77.86"/>
<polygon fill="#63b8ff" stroke="#63b8ff" points="109.91,-88.89 101.09,-94.75 111.64,-95.67 109.91,-88.89"/>
</a>
</g>
</g>
<!-- Node14 -->
<g id="Node000014" class="node">
<title>Node14</title>
<g id="a_Node000014"><a xlink:href="classnix_1_1BaseSetting.html" target="_top" xlink:title=" ">
<polygon fill="white" stroke="#666666" points="273,-116.36 149,-116.36 149,-95.61 273,-95.61 273,-116.36"/>
<text text-anchor="middle" x="211" y="-102.86" font-family="Helvetica,sans-Serif" font-size="10.00">nix::BaseSetting&lt; T &gt;</text>
</a>
</g>
</g>
<!-- Node8&#45;&gt;Node14 -->
<g id="edge16_Node000014_Node000008" class="edge">
<title>Node8&#45;&gt;Node14</title>
<g id="a_edge16_Node000014_Node000008"><a xlink:title=" ">
<path fill="none" stroke="#63b8ff" d="M123.49,-105.99C131.84,-105.99 140.35,-105.99 148.62,-105.99"/>
<polygon fill="#63b8ff" stroke="#63b8ff" points="123.75,-102.49 113.75,-105.99 123.75,-109.49 123.75,-102.49"/>
</a>
</g>
</g>
<!-- Node16 -->
<g id="Node000016" class="node">
<title>Node16</title>
<g id="a_Node000016"><a xlink:href="classnix_1_1BaseSetting.html" target="_top" xlink:title=" ">
<polygon fill="white" stroke="#666666" points="273,-251.36 149,-251.36 149,-230.61 273,-230.61 273,-251.36"/>
<text text-anchor="middle" x="211" y="-237.86" font-family="Helvetica,sans-Serif" font-size="10.00">nix::BaseSetting&lt; T &gt;</text>
</a>
</g>
</g>
<!-- Node8&#45;&gt;Node16 -->
<g id="edge19_Node000016_Node000008" class="edge">
<title>Node8&#45;&gt;Node16</title>
<g id="a_edge19_Node000016_Node000008"><a xlink:title=" ">
<path fill="none" stroke="#63b8ff" d="M72.25,-125.51C89.42,-146.7 118.88,-180.75 149,-204.99 161.17,-214.78 176.27,-223.71 188.41,-230.23"/>
<polygon fill="#63b8ff" stroke="#63b8ff" points="75.18,-123.58 66.21,-117.94 69.71,-127.94 75.18,-123.58"/>
</a>
</g>
</g>
<!-- Node9 -->
<g id="Node000009" class="node">
<title>Node9</title>
<g id="a_Node000009"><a xlink:href="classnix_1_1Setting.html" target="_top" xlink:title=" ">
<polygon fill="white" stroke="#bfbfbf" points="432.5,-21.36 325.75,-21.36 325.75,-0.61 432.5,-0.61 432.5,-21.36"/>
<text text-anchor="middle" x="379.12" y="-7.86" font-family="Helvetica,sans-Serif" font-size="10.00">nix::Setting&lt; int &gt;</text>
</a>
</g>
</g>
<!-- Node9&#45;&gt;Node3 -->
<g id="edge8_Node000003_Node000009" class="edge">
<title>Node9&#45;&gt;Node3</title>
<g id="a_edge8_Node000003_Node000009"><a xlink:title=" ">
<path fill="none" stroke="#9a32cd" stroke-dasharray="5,2" d="M443.97,-1.47C490.72,2.2 553.92,0.05 600.75,-28.49 635.81,-49.85 654.48,-98.58 661.31,-120.25"/>
<polygon fill="#9a32cd" stroke="#9a32cd" points="443.91,2.03 434.27,-2.36 444.54,-4.94 443.91,2.03"/>
</a>
</g>
<text text-anchor="middle" x="533.5" y="-44.49" font-family="Helvetica,sans-Serif" font-size="10.00" fill="grey"> pathInfoCacheSize</text>
<text text-anchor="middle" x="533.5" y="-31.74" font-family="Helvetica,sans-Serif" font-size="10.00" fill="grey">priority</text>
</g>
<!-- Node10&#45;&gt;Node9 -->
<g id="edge9_Node000009_Node000010" class="edge">
<title>Node10&#45;&gt;Node9</title>
<g id="a_edge9_Node000009_Node000010"><a xlink:title=" ">
<path fill="none" stroke="#63b8ff" d="M284.76,-20.54C298.45,-19.14 312.52,-17.7 325.45,-16.38"/>
<polygon fill="#63b8ff" stroke="#63b8ff" points="284.48,-17.05 274.89,-21.55 285.2,-24.01 284.48,-17.05"/>
</a>
</g>
</g>
<!-- Node11 -->
<g id="Node000011" class="node">
<title>Node11</title>
<g id="a_Node000011"><a xlink:href="classnix_1_1Setting.html" target="_top" xlink:title=" ">
<polygon fill="white" stroke="#bfbfbf" points="436.62,-77.36 321.62,-77.36 321.62,-56.61 436.62,-56.61 436.62,-77.36"/>
<text text-anchor="middle" x="379.12" y="-63.86" font-family="Helvetica,sans-Serif" font-size="10.00">nix::Setting&lt; bool &gt;</text>
</a>
</g>
</g>
<!-- Node11&#45;&gt;Node1 -->
<g id="edge21_Node000001_Node000011" class="edge">
<title>Node11&#45;&gt;Node1</title>
<g id="a_edge21_Node000001_Node000011"><a xlink:title=" ">
<path fill="none" stroke="#9a32cd" stroke-dasharray="5,2" d="M448.01,-55.77C454.16,-55.05 460.31,-54.43 466.25,-53.99 649.43,-40.24 867.04,-54.82 969.39,-63.5"/>
<polygon fill="#9a32cd" stroke="#9a32cd" points="447.95,-52.25 438.47,-56.99 448.83,-59.2 447.95,-52.25"/>
</a>
</g>
<text text-anchor="middle" x="757.38" y="-67.7" font-family="Helvetica,sans-Serif" font-size="10.00" fill="grey"> readOnly</text>
<text text-anchor="middle" x="757.38" y="-54.95" font-family="Helvetica,sans-Serif" font-size="10.00" fill="grey">requireSigs</text>
</g>
<!-- Node11&#45;&gt;Node3 -->
<g id="edge11_Node000003_Node000011" class="edge">
<title>Node11&#45;&gt;Node3</title>
<g id="a_edge11_Node000003_Node000011"><a xlink:title=" ">
<path fill="none" stroke="#9a32cd" stroke-dasharray="5,2" d="M448.41,-59.19C493.23,-56.7 552.3,-58.51 600.75,-77.49 623.86,-86.54 644.64,-107.58 655.79,-120.41"/>
<polygon fill="#9a32cd" stroke="#9a32cd" points="448.31,-55.69 438.55,-59.83 448.76,-62.67 448.31,-55.69"/>
</a>
</g>
<text text-anchor="middle" x="533.5" y="-93.49" font-family="Helvetica,sans-Serif" font-size="10.00" fill="grey"> isTrusted</text>
<text text-anchor="middle" x="533.5" y="-80.74" font-family="Helvetica,sans-Serif" font-size="10.00" fill="grey">wantMassQuery</text>
</g>
<!-- Node12&#45;&gt;Node11 -->
<g id="edge12_Node000011_Node000012" class="edge">
<title>Node12&#45;&gt;Node11</title>
<g id="a_edge12_Node000011_Node000012"><a xlink:title=" ">
<path fill="none" stroke="#63b8ff" d="M284.59,-66.99C296.91,-66.99 309.55,-66.99 321.39,-66.99"/>
<polygon fill="#63b8ff" stroke="#63b8ff" points="284.9,-63.49 274.9,-66.99 284.9,-70.49 284.9,-63.49"/>
</a>
</g>
</g>
<!-- Node13 -->
<g id="Node000013" class="node">
<title>Node13</title>
<g id="a_Node000013"><a xlink:href="classnix_1_1Setting.html" target="_top" xlink:title=" ">
<polygon fill="white" stroke="#bfbfbf" points="448.25,-116.36 310,-116.36 310,-95.61 448.25,-95.61 448.25,-116.36"/>
<text text-anchor="middle" x="379.12" y="-102.86" font-family="Helvetica,sans-Serif" font-size="10.00">nix::Setting&lt; StringSet &gt;</text>
</a>
</g>
</g>
<!-- Node13&#45;&gt;Node3 -->
<g id="edge14_Node000003_Node000013" class="edge">
<title>Node13&#45;&gt;Node3</title>
<g id="a_edge14_Node000003_Node000013"><a xlink:title=" ">
<path fill="none" stroke="#9a32cd" stroke-dasharray="5,2" d="M459.76,-106.94C501.84,-108.23 554.26,-111.07 600.75,-117.24 606.46,-117.99 612.43,-119 618.31,-120.11"/>
<polygon fill="#9a32cd" stroke="#9a32cd" points="460.07,-103.45 449.98,-106.67 459.88,-110.44 460.07,-103.45"/>
</a>
</g>
<text text-anchor="middle" x="533.5" y="-120.49" font-family="Helvetica,sans-Serif" font-size="10.00" fill="grey"> systemFeatures</text>
</g>
<!-- Node14&#45;&gt;Node13 -->
<g id="edge15_Node000013_Node000014" class="edge">
<title>Node14&#45;&gt;Node13</title>
<g id="a_edge15_Node000013_Node000014"><a xlink:title=" ">
<path fill="none" stroke="#63b8ff" d="M284.63,-105.99C292.96,-105.99 301.44,-105.99 309.72,-105.99"/>
<polygon fill="#63b8ff" stroke="#63b8ff" points="284.9,-102.49 274.9,-105.99 284.9,-109.49 284.9,-102.49"/>
</a>
</g>
</g>
<!-- Node15 -->
<g id="Node000015" class="node">
<title>Node15</title>
<g id="a_Node000015"><a xlink:href="classnix_1_1PathsSetting.html" target="_top" xlink:title=" ">
<polygon fill="white" stroke="#666666" points="600.75,-285.74 466.25,-285.74 466.25,-252.24 600.75,-252.24 600.75,-285.74"/>
<text text-anchor="start" x="474.25" y="-272.24" font-family="Helvetica,sans-Serif" font-size="10.00">nix::PathsSetting&lt;</text>
<text text-anchor="middle" x="533.5" y="-259.49" font-family="Helvetica,sans-Serif" font-size="10.00"> std::optional&lt; Path &gt; &gt;</text>
</a>
</g>
</g>
<!-- Node15&#45;&gt;Node2 -->
<g id="edge17_Node000002_Node000015" class="edge">
<title>Node15&#45;&gt;Node2</title>
<g id="a_edge17_Node000002_Node000015"><a xlink:title=" ">
<path fill="none" stroke="#9a32cd" stroke-dasharray="5,2" d="M612.19,-263.78C643.49,-260.66 679.75,-255.72 712,-247.99 759.75,-236.54 812.97,-214.85 842.91,-201.78"/>
<polygon fill="#9a32cd" stroke="#9a32cd" points="612.03,-260.28 602.41,-264.71 612.69,-267.25 612.03,-260.28"/>
</a>
</g>
<text text-anchor="middle" x="665.38" y="-266.29" font-family="Helvetica,sans-Serif" font-size="10.00" fill="grey"> rootDir</text>
</g>
<!-- Node16&#45;&gt;Node15 -->
<g id="edge18_Node000015_Node000016" class="edge">
<title>Node16&#45;&gt;Node15</title>
<g id="a_edge18_Node000015_Node000016"><a xlink:title=" ">
<path fill="none" stroke="#63b8ff" d="M284.71,-247.34C339.09,-252.09 412.88,-258.54 465.76,-263.16"/>
<polygon fill="#63b8ff" stroke="#63b8ff" points="285.19,-243.87 274.92,-246.48 284.58,-250.84 285.19,-243.87"/>
</a>
</g>
</g>
</g>
</svg>
