<?xml version="1.0" encoding="UTF-8" standalone="no"?>
<!DOCTYPE svg PUBLIC "-//W3C//DTD SVG 1.1//EN"
 "http://www.w3.org/Graphics/SVG/1.1/DTD/svg11.dtd">
<!-- Generated by graphviz version 12.2.1 (0)
 -->
<!-- Title: nix::InvalidPathError Pages: 1 -->
<svg width="152pt" height="156pt"
 viewBox="0.00 0.00 151.50 156.00" xmlns="http://www.w3.org/2000/svg" xmlns:xlink="http://www.w3.org/1999/xlink">
<g id="graph0" class="graph" transform="scale(1 1) rotate(0) translate(4 152)">
<title>nix::InvalidPathError</title>
<!-- Node1 -->
<g id="Node000001" class="node">
<title>Node1</title>
<g id="a_Node000001"><a xlink:title=" ">
<polygon fill="#999999" stroke="#666666" points="137.75,-20.75 23.5,-20.75 23.5,0 137.75,0 137.75,-20.75"/>
<text text-anchor="middle" x="80.62" y="-7.25" font-family="Helvetica,sans-Serif" font-size="10.00">nix::InvalidPathError</text>
</a>
</g>
</g>
<!-- Node2 -->
<g id="Node000002" class="node">
<title>Node2</title>
<g id="a_Node000002"><a xlink:href="classnix_1_1EvalError.html" target="_top" xlink:title=" ">
<polygon fill="white" stroke="#bfbfbf" points="81.25,-90.25 0,-90.25 0,-69.5 81.25,-69.5 81.25,-90.25"/>
<text text-anchor="middle" x="40.62" y="-76.75" font-family="Helvetica,sans-Serif" font-size="10.00">nix::EvalError</text>
</a>
</g>
</g>
<!-- Node2&#45;&gt;Node1 -->
<g id="edge1_Node000001_Node000002" class="edge">
<title>Node2&#45;&gt;Node1</title>
<g id="a_edge1_Node000001_Node000002"><a xlink:title=" ">
<path fill="none" stroke="#63b8ff" d="M52.05,-59.6C59.52,-46.98 68.97,-31.05 74.9,-21.03"/>
<polygon fill="#63b8ff" stroke="#63b8ff" points="49.21,-57.51 47.13,-67.9 55.24,-61.08 49.21,-57.51"/>
</a>
</g>
</g>
<!-- Node3 -->
<g id="Node000003" class="node">
<title>Node3</title>
<g id="a_Node000003"><a xlink:title=" ">
<polygon fill="white" stroke="#bfbfbf" points="60.25,-148 21,-148 21,-127.25 60.25,-127.25 60.25,-148"/>
<text text-anchor="middle" x="40.62" y="-134.5" font-family="Helvetica,sans-Serif" font-size="10.00">Error</text>
</a>
</g>
</g>
<!-- Node3&#45;&gt;Node2 -->
<g id="edge2_Node000002_Node000003" class="edge">
<title>Node3&#45;&gt;Node2</title>
<g id="a_edge2_Node000002_Node000003"><a xlink:title=" ">
<path fill="none" stroke="#63b8ff" d="M40.62,-115.68C40.62,-107.02 40.62,-97.4 40.62,-90.47"/>
<polygon fill="#63b8ff" stroke="#63b8ff" points="37.13,-115.4 40.63,-125.4 44.13,-115.4 37.13,-115.4"/>
</a>
</g>
</g>
<!-- Node4 -->
<g id="Node000004" class="node">
<title>Node4</title>
<g id="a_Node000004"><a xlink:title=" ">
<polygon fill="white" stroke="#bfbfbf" points="143.5,-90.25 99.75,-90.25 99.75,-69.5 143.5,-69.5 143.5,-90.25"/>
<text text-anchor="middle" x="121.62" y="-76.75" font-family="Helvetica,sans-Serif" font-size="10.00">string</text>
</a>
</g>
</g>
<!-- Node4&#45;&gt;Node1 -->
<g id="edge3_Node000001_Node000004" class="edge">
<title>Node4&#45;&gt;Node1</title>
<g id="a_edge3_Node000001_Node000004"><a xlink:title=" ">
<path fill="none" stroke="#9a32cd" stroke-dasharray="5,2" d="M109.91,-59.6C102.25,-46.98 92.57,-31.05 86.49,-21.03"/>
<polygon fill="#9a32cd" stroke="#9a32cd" points="106.78,-61.18 114.96,-67.91 112.76,-57.55 106.78,-61.18"/>
</a>
</g>
<text text-anchor="middle" x="117.17" y="-42" font-family="Helvetica,sans-Serif" font-size="10.00" fill="grey"> path</text>
</g>
</g>
</svg>
