<?xml version="1.0" encoding="UTF-8" standalone="no"?>
<!DOCTYPE svg PUBLIC "-//W3C//DTD SVG 1.1//EN"
 "http://www.w3.org/Graphics/SVG/1.1/DTD/svg11.dtd">
<!-- Generated by graphviz version 12.2.1 (0)
 -->
<!-- Title: nix::fetchers::DownloadTarballResult Pages: 1 -->
<svg width="234pt" height="181pt"
 viewBox="0.00 0.00 234.12 180.50" xmlns="http://www.w3.org/2000/svg" xmlns:xlink="http://www.w3.org/1999/xlink">
<g id="graph0" class="graph" transform="scale(1 1) rotate(0) translate(4 176.5)">
<title>nix::fetchers::DownloadTarballResult</title>
<!-- Node1 -->
<g id="Node000001" class="node">
<title>Node1</title>
<g id="a_Node000001"><a xlink:title=" ">
<polygon fill="#999999" stroke="#666666" points="163.75,-33.5 0,-33.5 0,0 163.75,0 163.75,-33.5"/>
<text text-anchor="start" x="8" y="-20" font-family="Helvetica,sans-Serif" font-size="10.00">nix::fetchers::DownloadTarball</text>
<text text-anchor="middle" x="81.88" y="-7.25" font-family="Helvetica,sans-Serif" font-size="10.00">Result</text>
</a>
</g>
</g>
<!-- Node2 -->
<g id="Node000002" class="node">
<title>Node2</title>
<g id="a_Node000002"><a xlink:href="structnix_1_1fetchers_1_1Tree.html" target="_top" xlink:title=" ">
<polygon fill="white" stroke="#bfbfbf" points="133.38,-103 30.38,-103 30.38,-82.25 133.38,-82.25 133.38,-103"/>
<text text-anchor="middle" x="81.88" y="-89.5" font-family="Helvetica,sans-Serif" font-size="10.00">nix::fetchers::Tree</text>
</a>
</g>
</g>
<!-- Node2&#45;&gt;Node1 -->
<g id="edge1_Node000001_Node000002" class="edge">
<title>Node2&#45;&gt;Node1</title>
<g id="a_edge1_Node000001_Node000002"><a xlink:title=" ">
<path fill="none" stroke="#9a32cd" stroke-dasharray="5,2" d="M81.88,-70.63C81.88,-58.97 81.88,-44.69 81.88,-33.91"/>
<polygon fill="#9a32cd" stroke="#9a32cd" points="78.38,-70.45 81.88,-80.45 85.38,-70.45 78.38,-70.45"/>
</a>
</g>
<text text-anchor="middle" x="93.12" y="-54.75" font-family="Helvetica,sans-Serif" font-size="10.00" fill="grey"> tree</text>
</g>
<!-- Node3 -->
<g id="Node000003" class="node">
<title>Node3</title>
<g id="a_Node000003"><a xlink:title=" ">
<polygon fill="white" stroke="#bfbfbf" points="65.75,-172.5 22,-172.5 22,-151.75 65.75,-151.75 65.75,-172.5"/>
<text text-anchor="middle" x="43.88" y="-159" font-family="Helvetica,sans-Serif" font-size="10.00">string</text>
</a>
</g>
</g>
<!-- Node3&#45;&gt;Node2 -->
<g id="edge2_Node000002_Node000003" class="edge">
<title>Node3&#45;&gt;Node2</title>
<g id="a_edge2_Node000002_Node000003"><a xlink:title=" ">
<path fill="none" stroke="#9a32cd" stroke-dasharray="5,2" d="M42.25,-139.93C42.59,-133.54 43.83,-126.71 46.88,-121 50.73,-113.79 57.39,-107.86 63.88,-103.38"/>
<polygon fill="#9a32cd" stroke="#9a32cd" points="38.75,-139.83 42.45,-149.76 45.75,-139.69 38.75,-139.83"/>
</a>
</g>
<text text-anchor="middle" x="73.88" y="-124.25" font-family="Helvetica,sans-Serif" font-size="10.00" fill="grey"> actualPath</text>
</g>
<!-- Node4 -->
<g id="Node000004" class="node">
<title>Node4</title>
<g id="a_Node000004"><a xlink:href="classnix_1_1StorePath.html" target="_top" xlink:title=" ">
<polygon fill="white" stroke="#666666" points="167.62,-172.5 84.12,-172.5 84.12,-151.75 167.62,-151.75 167.62,-172.5"/>
<text text-anchor="middle" x="125.88" y="-159" font-family="Helvetica,sans-Serif" font-size="10.00">nix::StorePath</text>
</a>
</g>
</g>
<!-- Node4&#45;&gt;Node2 -->
<g id="edge3_Node000002_Node000004" class="edge">
<title>Node4&#45;&gt;Node2</title>
<g id="a_edge3_Node000002_Node000004"><a xlink:title=" ">
<path fill="none" stroke="#9a32cd" stroke-dasharray="5,2" d="M114.17,-141.91C110.04,-135.24 105.32,-127.75 100.88,-121 97,-115.1 92.5,-108.61 88.85,-103.43"/>
<polygon fill="#9a32cd" stroke="#9a32cd" points="111.04,-143.5 119.25,-150.18 117,-139.83 111.04,-143.5"/>
</a>
</g>
<text text-anchor="middle" x="132.99" y="-124.25" font-family="Helvetica,sans-Serif" font-size="10.00" fill="grey"> storePath</text>
</g>
<!-- Node4&#45;&gt;Node4 -->
<g id="edge4_Node000004_Node000004" class="edge">
<title>Node4&#45;&gt;Node4</title>
<g id="a_edge4_Node000004_Node000004"><a xlink:title=" ">
<path fill="none" stroke="#9a32cd" stroke-dasharray="5,2" d="M179.38,-166.93C183.26,-165.85 185.62,-164.24 185.62,-162.12 185.62,-158.36 178.14,-156.22 168.03,-155.72"/>
<polygon fill="#9a32cd" stroke="#9a32cd" points="178.94,-163.46 169.53,-168.32 179.92,-170.39 178.94,-163.46"/>
</a>
</g>
<text text-anchor="middle" x="205.88" y="-159" font-family="Helvetica,sans-Serif" font-size="10.00" fill="grey"> dummy</text>
</g>
</g>
</svg>
