<?xml version="1.0" encoding="UTF-8" standalone="no"?>
<!DOCTYPE svg PUBLIC "-//W3C//DTD SVG 1.1//EN"
 "http://www.w3.org/Graphics/SVG/1.1/DTD/svg11.dtd">
<!-- Generated by graphviz version 12.2.1 (0)
 -->
<!-- Title: nix::CmdHelpStores Pages: 1 -->
<svg width="121pt" height="142pt"
 viewBox="0.00 0.00 120.75 142.25" xmlns="http://www.w3.org/2000/svg" xmlns:xlink="http://www.w3.org/1999/xlink">
<g id="graph0" class="graph" transform="scale(1 1) rotate(0) translate(4 138.25)">
<title>nix::CmdHelpStores</title>
<!-- Node1 -->
<g id="Node000001" class="node">
<title>Node1</title>
<g id="a_Node000001"><a xlink:title=" ">
<polygon fill="#999999" stroke="#666666" points="112.75,-20.75 0,-20.75 0,0 112.75,0 112.75,-20.75"/>
<text text-anchor="middle" x="56.38" y="-7.25" font-family="Helvetica,sans-Serif" font-size="10.00">nix::CmdHelpStores</text>
</a>
</g>
</g>
<!-- Node2 -->
<g id="Node000002" class="node">
<title>Node2</title>
<g id="a_Node000002"><a xlink:href="structnix_1_1Command.html" target="_top" xlink:title=" ">
<polygon fill="white" stroke="#666666" points="100,-77.5 12.75,-77.5 12.75,-56.75 100,-56.75 100,-77.5"/>
<text text-anchor="middle" x="56.38" y="-64" font-family="Helvetica,sans-Serif" font-size="10.00">nix::Command</text>
</a>
</g>
</g>
<!-- Node2&#45;&gt;Node1 -->
<g id="edge1_Node000001_Node000002" class="edge">
<title>Node2&#45;&gt;Node1</title>
<g id="a_edge1_Node000001_Node000002"><a xlink:title=" ">
<path fill="none" stroke="#63b8ff" d="M56.38,-44.88C56.38,-36.66 56.38,-27.68 56.38,-21.08"/>
<polygon fill="#63b8ff" stroke="#63b8ff" points="52.88,-44.82 56.38,-54.82 59.88,-44.82 52.88,-44.82"/>
</a>
</g>
</g>
<!-- Node3 -->
<g id="Node000003" class="node">
<title>Node3</title>
<g id="a_Node000003"><a xlink:href="classnix_1_1Args.html" target="_top" xlink:title=" ">
<polygon fill="white" stroke="#bfbfbf" points="85.75,-134.25 27,-134.25 27,-113.5 85.75,-113.5 85.75,-134.25"/>
<text text-anchor="middle" x="56.38" y="-120.75" font-family="Helvetica,sans-Serif" font-size="10.00">nix::Args</text>
</a>
</g>
</g>
<!-- Node3&#45;&gt;Node2 -->
<g id="edge2_Node000002_Node000003" class="edge">
<title>Node3&#45;&gt;Node2</title>
<g id="a_edge2_Node000002_Node000003"><a xlink:title=" ">
<path fill="none" stroke="#63b8ff" d="M56.38,-101.63C56.38,-93.41 56.38,-84.43 56.38,-77.83"/>
<polygon fill="#63b8ff" stroke="#63b8ff" points="52.88,-101.57 56.38,-111.57 59.88,-101.57 52.88,-101.57"/>
</a>
</g>
</g>
</g>
</svg>
