<?xml version="1.0" encoding="UTF-8" standalone="no"?>
<!DOCTYPE svg PUBLIC "-//W3C//DTD SVG 1.1//EN"
 "http://www.w3.org/Graphics/SVG/1.1/DTD/svg11.dtd">
<!-- Generated by graphviz version 12.2.1 (0)
 -->
<!-- Title: nix::MixReadOnlyOption Pages: 1 -->
<svg width="143pt" height="142pt"
 viewBox="0.00 0.00 142.50 142.25" xmlns="http://www.w3.org/2000/svg" xmlns:xlink="http://www.w3.org/1999/xlink">
<g id="graph0" class="graph" transform="scale(1 1) rotate(0) translate(4 138.25)">
<title>nix::MixReadOnlyOption</title>
<!-- Node1 -->
<g id="Node000001" class="node">
<title>Node1</title>
<g id="a_Node000001"><a xlink:title=" ">
<polygon fill="#999999" stroke="#666666" points="134.5,-77.5 0,-77.5 0,-56.75 134.5,-56.75 134.5,-77.5"/>
<text text-anchor="middle" x="67.25" y="-64" font-family="Helvetica,sans-Serif" font-size="10.00">nix::MixReadOnlyOption</text>
</a>
</g>
</g>
<!-- Node3 -->
<g id="Node000003" class="node">
<title>Node3</title>
<g id="a_Node000003"><a xlink:href="structnix_1_1CmdEval.html" target="_top" xlink:title=" ">
<polygon fill="white" stroke="#bfbfbf" points="107.5,-20.75 27,-20.75 27,0 107.5,0 107.5,-20.75"/>
<text text-anchor="middle" x="67.25" y="-7.25" font-family="Helvetica,sans-Serif" font-size="10.00">nix::CmdEval</text>
</a>
</g>
</g>
<!-- Node1&#45;&gt;Node3 -->
<g id="edge2_Node000001_Node000003" class="edge">
<title>Node1&#45;&gt;Node3</title>
<g id="a_edge2_Node000001_Node000003"><a xlink:title=" ">
<path fill="none" stroke="#63b8ff" d="M67.25,-44.88C67.25,-36.66 67.25,-27.68 67.25,-21.08"/>
<polygon fill="#63b8ff" stroke="#63b8ff" points="63.75,-44.82 67.25,-54.82 70.75,-44.82 63.75,-44.82"/>
</a>
</g>
</g>
<!-- Node2 -->
<g id="Node000002" class="node">
<title>Node2</title>
<g id="a_Node000002"><a xlink:href="classnix_1_1Args.html" target="_top" xlink:title=" ">
<polygon fill="white" stroke="#bfbfbf" points="96.62,-134.25 37.88,-134.25 37.88,-113.5 96.62,-113.5 96.62,-134.25"/>
<text text-anchor="middle" x="67.25" y="-120.75" font-family="Helvetica,sans-Serif" font-size="10.00">nix::Args</text>
</a>
</g>
</g>
<!-- Node2&#45;&gt;Node1 -->
<g id="edge1_Node000001_Node000002" class="edge">
<title>Node2&#45;&gt;Node1</title>
<g id="a_edge1_Node000001_Node000002"><a xlink:title=" ">
<path fill="none" stroke="#63b8ff" d="M67.25,-101.63C67.25,-93.41 67.25,-84.43 67.25,-77.83"/>
<polygon fill="#63b8ff" stroke="#63b8ff" points="63.75,-101.57 67.25,-111.57 70.75,-101.57 63.75,-101.57"/>
</a>
</g>
</g>
</g>
</svg>
