<?xml version="1.0" encoding="UTF-8" standalone="no"?>
<!DOCTYPE svg PUBLIC "-//W3C//DTD SVG 1.1//EN"
 "http://www.w3.org/Graphics/SVG/1.1/DTD/svg11.dtd">
<!-- Generated by graphviz version 12.2.1 (0)
 -->
<!-- Title: nix::CmdDumpPath2 Pages: 1 -->
<svg width="292pt" height="168pt"
 viewBox="0.00 0.00 291.88 167.75" xmlns="http://www.w3.org/2000/svg" xmlns:xlink="http://www.w3.org/1999/xlink">
<g id="graph0" class="graph" transform="scale(1 1) rotate(0) translate(4 163.75)">
<title>nix::CmdDumpPath2</title>
<!-- Node1 -->
<g id="Node000001" class="node">
<title>Node1</title>
<g id="a_Node000001"><a xlink:title=" ">
<polygon fill="#999999" stroke="#666666" points="283.88,-90.25 168.12,-90.25 168.12,-69.5 283.88,-69.5 283.88,-90.25"/>
<text text-anchor="middle" x="226" y="-76.75" font-family="Helvetica,sans-Serif" font-size="10.00">nix::CmdDumpPath2</text>
</a>
</g>
</g>
<!-- Node2 -->
<g id="Node000002" class="node">
<title>Node2</title>
<g id="a_Node000002"><a xlink:href="structnix_1_1Command.html" target="_top" xlink:title=" ">
<polygon fill="white" stroke="#666666" points="183.62,-159.75 96.38,-159.75 96.38,-139 183.62,-139 183.62,-159.75"/>
<text text-anchor="middle" x="140" y="-146.25" font-family="Helvetica,sans-Serif" font-size="10.00">nix::Command</text>
</a>
</g>
</g>
<!-- Node2&#45;&gt;Node1 -->
<g id="edge1_Node000001_Node000002" class="edge">
<title>Node2&#45;&gt;Node1</title>
<g id="a_edge1_Node000001_Node000002"><a xlink:title=" ">
<path fill="none" stroke="#63b8ff" d="M161.2,-131.73C177.59,-118.87 199.73,-101.5 213.42,-90.75"/>
<polygon fill="#63b8ff" stroke="#63b8ff" points="159.22,-128.84 153.51,-137.77 163.54,-134.35 159.22,-128.84"/>
</a>
</g>
</g>
<!-- Node4 -->
<g id="Node000004" class="node">
<title>Node4</title>
<g id="a_Node000004"><a xlink:href="classnix_1_1MultiCommand.html" target="_top" xlink:title=" ">
<polygon fill="white" stroke="#666666" points="112,-90.25 0,-90.25 0,-69.5 112,-69.5 112,-90.25"/>
<text text-anchor="middle" x="56" y="-76.75" font-family="Helvetica,sans-Serif" font-size="10.00">nix::MultiCommand</text>
</a>
</g>
</g>
<!-- Node2&#45;&gt;Node4 -->
<g id="edge4_Node000004_Node000002" class="edge">
<title>Node2&#45;&gt;Node4</title>
<g id="a_edge4_Node000004_Node000002"><a xlink:title=" ">
<path fill="none" stroke="#63b8ff" d="M119.29,-131.73C103.28,-118.87 81.66,-101.5 68.29,-90.75"/>
<polygon fill="#63b8ff" stroke="#63b8ff" points="116.8,-134.22 126.79,-137.76 121.18,-128.76 116.8,-134.22"/>
</a>
</g>
</g>
<!-- Node3 -->
<g id="Node000003" class="node">
<title>Node3</title>
<g id="a_Node000003"><a xlink:href="classnix_1_1Args.html" target="_top" xlink:title=" ">
<polygon fill="white" stroke="#bfbfbf" points="127.38,-20.75 68.62,-20.75 68.62,0 127.38,0 127.38,-20.75"/>
<text text-anchor="middle" x="98" y="-7.25" font-family="Helvetica,sans-Serif" font-size="10.00">nix::Args</text>
</a>
</g>
</g>
<!-- Node3&#45;&gt;Node2 -->
<g id="edge2_Node000002_Node000003" class="edge">
<title>Node3&#45;&gt;Node2</title>
<g id="a_edge2_Node000002_Node000003"><a xlink:title=" ">
<path fill="none" stroke="#63b8ff" d="M114.17,-30.18C116.01,-32.93 117.69,-35.83 119,-38.75 134.47,-73.23 138.56,-118.79 139.63,-138.54"/>
<polygon fill="#63b8ff" stroke="#63b8ff" points="116.97,-28.08 108.12,-22.25 111.4,-32.32 116.97,-28.08"/>
</a>
</g>
</g>
<!-- Node4&#45;&gt;Node3 -->
<g id="edge3_Node000003_Node000004" class="edge">
<title>Node4&#45;&gt;Node3</title>
<g id="a_edge3_Node000003_Node000004"><a xlink:title=" ">
<path fill="none" stroke="#9a32cd" stroke-dasharray="5,2" d="M68,-59.6C75.84,-46.98 85.76,-31.05 91.99,-21.03"/>
<polygon fill="#9a32cd" stroke="#9a32cd" points="65.13,-57.58 62.82,-67.92 71.07,-61.28 65.13,-57.58"/>
</a>
</g>
<text text-anchor="middle" x="98.01" y="-42" font-family="Helvetica,sans-Serif" font-size="10.00" fill="grey"> parent</text>
</g>
<!-- Node5 -->
<g id="Node000005" class="node">
<title>Node5</title>
<g id="a_Node000005"><a xlink:title=" ">
<polygon fill="white" stroke="#bfbfbf" points="247.88,-159.75 204.12,-159.75 204.12,-139 247.88,-139 247.88,-159.75"/>
<text text-anchor="middle" x="226" y="-146.25" font-family="Helvetica,sans-Serif" font-size="10.00">string</text>
</a>
</g>
</g>
<!-- Node5&#45;&gt;Node1 -->
<g id="edge5_Node000001_Node000005" class="edge">
<title>Node5&#45;&gt;Node1</title>
<g id="a_edge5_Node000001_Node000005"><a xlink:title=" ">
<path fill="none" stroke="#9a32cd" stroke-dasharray="5,2" d="M226,-127.57C226,-115.22 226,-100.15 226,-90.53"/>
<polygon fill="#9a32cd" stroke="#9a32cd" points="222.5,-127.19 226,-137.19 229.5,-127.19 222.5,-127.19"/>
</a>
</g>
<text text-anchor="middle" x="238.38" y="-111.5" font-family="Helvetica,sans-Serif" font-size="10.00" fill="grey"> path</text>
</g>
</g>
</svg>
