<?xml version="1.0" encoding="UTF-8" standalone="no"?>
<!DOCTYPE svg PUBLIC "-//W3C//DTD SVG 1.1//EN"
 "http://www.w3.org/Graphics/SVG/1.1/DTD/svg11.dtd">
<!-- Generated by graphviz version 12.2.1 (0)
 -->
<!-- Title: nix::RawInstallablesCommand Pages: 1 -->
<svg width="1900pt" height="377pt"
 viewBox="0.00 0.00 1900.25 376.75" xmlns="http://www.w3.org/2000/svg" xmlns:xlink="http://www.w3.org/1999/xlink">
<g id="graph0" class="graph" transform="scale(1 1) rotate(0) translate(4 372.75)">
<title>nix::RawInstallablesCommand</title>
<!-- Node1 -->
<g id="Node000001" class="node">
<title>Node1</title>
<g id="a_Node000001"><a xlink:title=" ">
<polygon fill="#999999" stroke="#666666" points="1008.25,-191.75 843.75,-191.75 843.75,-171 1008.25,-171 1008.25,-191.75"/>
<text text-anchor="middle" x="926" y="-178.25" font-family="Helvetica,sans-Serif" font-size="10.00">nix::RawInstallablesCommand</text>
</a>
</g>
</g>
<!-- Node10 -->
<g id="Node000010" class="node">
<title>Node10</title>
<g id="a_Node000010"><a xlink:href="structnix_1_1CmdRepl.html" target="_top" xlink:title=" ">
<polygon fill="white" stroke="#bfbfbf" points="1156.62,-211.75 1075.38,-211.75 1075.38,-191 1156.62,-191 1156.62,-211.75"/>
<text text-anchor="middle" x="1116" y="-198.25" font-family="Helvetica,sans-Serif" font-size="10.00">nix::CmdRepl</text>
</a>
</g>
</g>
<!-- Node1&#45;&gt;Node10 -->
<g id="edge14_Node000001_Node000010" class="edge">
<title>Node1&#45;&gt;Node10</title>
<g id="a_edge14_Node000001_Node000010"><a xlink:title=" ">
<path fill="none" stroke="#63b8ff" d="M1020.01,-191.27C1039.38,-193.33 1058.8,-195.4 1074.99,-197.12"/>
<polygon fill="#63b8ff" stroke="#63b8ff" points="1020.46,-187.8 1010.14,-190.22 1019.72,-194.76 1020.46,-187.8"/>
</a>
</g>
</g>
<!-- Node11 -->
<g id="Node000011" class="node">
<title>Node11</title>
<g id="a_Node000011"><a xlink:href="structnix_1_1InstallablesCommand.html" target="_top" xlink:title=" ">
<polygon fill="white" stroke="#666666" points="1187.75,-172.75 1044.25,-172.75 1044.25,-152 1187.75,-152 1187.75,-172.75"/>
<text text-anchor="middle" x="1116" y="-159.25" font-family="Helvetica,sans-Serif" font-size="10.00">nix::InstallablesCommand</text>
</a>
</g>
</g>
<!-- Node1&#45;&gt;Node11 -->
<g id="edge15_Node000001_Node000011" class="edge">
<title>Node1&#45;&gt;Node11</title>
<g id="a_edge15_Node000001_Node000011"><a xlink:title=" ">
<path fill="none" stroke="#63b8ff" d="M1019.93,-171.98C1027.94,-171.17 1035.96,-170.36 1043.76,-169.58"/>
<polygon fill="#63b8ff" stroke="#63b8ff" points="1019.74,-168.48 1010.15,-172.97 1020.45,-175.45 1019.74,-168.48"/>
</a>
</g>
</g>
<!-- Node2 -->
<g id="Node000002" class="node">
<title>Node2</title>
<g id="a_Node000002"><a xlink:href="classnix_1_1Args.html" target="_top" xlink:title=" ">
<polygon fill="white" stroke="#bfbfbf" points="58.75,-115.75 0,-115.75 0,-95 58.75,-95 58.75,-115.75"/>
<text text-anchor="middle" x="29.38" y="-102.25" font-family="Helvetica,sans-Serif" font-size="10.00">nix::Args</text>
</a>
</g>
</g>
<!-- Node2&#45;&gt;Node1 -->
<g id="edge1_Node000001_Node000002" class="edge">
<title>Node2&#45;&gt;Node1</title>
<g id="a_edge1_Node000001_Node000002"><a xlink:title=" ">
<path fill="none" stroke="#63b8ff" d="M49.6,-123.76C61.7,-134.41 78.13,-147.27 94.75,-155.38 168.34,-191.25 191.51,-200.38 273.38,-200.38 273.38,-200.38 273.38,-200.38 571.38,-200.38 664.83,-200.38 771.97,-193.68 843.6,-188.23"/>
<polygon fill="#63b8ff" stroke="#63b8ff" points="52.13,-121.33 42.38,-117.19 47.41,-126.51 52.13,-121.33"/>
</a>
</g>
</g>
<!-- Node3 -->
<g id="Node000003" class="node">
<title>Node3</title>
<g id="a_Node000003"><a xlink:href="structnix_1_1SourceExprCommand.html" target="_top" xlink:title=" ">
<polygon fill="white" stroke="#bfbfbf" points="807.75,-172.75 665.75,-172.75 665.75,-152 807.75,-152 807.75,-172.75"/>
<text text-anchor="middle" x="736.75" y="-159.25" font-family="Helvetica,sans-Serif" font-size="10.00">nix::SourceExprCommand</text>
</a>
</g>
</g>
<!-- Node2&#45;&gt;Node3 -->
<g id="edge3_Node000003_Node000002" class="edge">
<title>Node2&#45;&gt;Node3</title>
<g id="a_edge3_Node000003_Node000002"><a xlink:title=" ">
<path fill="none" stroke="#63b8ff" d="M68.61,-120.11C115.94,-137 199.36,-162.38 273.38,-162.38 273.38,-162.38 273.38,-162.38 421.88,-162.38 505.52,-162.38 601.7,-162.38 665.32,-162.38"/>
<polygon fill="#63b8ff" stroke="#63b8ff" points="69.96,-116.88 59.37,-116.75 67.57,-123.46 69.96,-116.88"/>
</a>
</g>
</g>
<!-- Node4 -->
<g id="Node000004" class="node">
<title>Node4</title>
<g id="a_Node000004"><a xlink:href="structnix_1_1MixFlakeOptions.html" target="_top" xlink:title=" ">
<polygon fill="white" stroke="#666666" points="629.75,-134.75 511,-134.75 511,-114 629.75,-114 629.75,-134.75"/>
<text text-anchor="middle" x="570.38" y="-121.25" font-family="Helvetica,sans-Serif" font-size="10.00">nix::MixFlakeOptions</text>
</a>
</g>
</g>
<!-- Node2&#45;&gt;Node4 -->
<g id="edge5_Node000004_Node000002" class="edge">
<title>Node2&#45;&gt;Node4</title>
<g id="a_edge5_Node000004_Node000002"><a xlink:title=" ">
<path fill="none" stroke="#63b8ff" d="M70.24,-106.78C164.27,-110.09 400.29,-118.41 510.7,-122.31"/>
<polygon fill="#63b8ff" stroke="#63b8ff" points="70.6,-103.29 60.49,-106.44 70.36,-110.29 70.6,-103.29"/>
</a>
</g>
</g>
<!-- Node7 -->
<g id="Node000007" class="node">
<title>Node7</title>
<g id="a_Node000007"><a xlink:href="structnix_1_1Command.html" target="_top" xlink:title=" ">
<polygon fill="white" stroke="#666666" points="182,-96.75 94.75,-96.75 94.75,-76 182,-76 182,-96.75"/>
<text text-anchor="middle" x="138.38" y="-83.25" font-family="Helvetica,sans-Serif" font-size="10.00">nix::Command</text>
</a>
</g>
</g>
<!-- Node2&#45;&gt;Node7 -->
<g id="edge9_Node000007_Node000002" class="edge">
<title>Node2&#45;&gt;Node7</title>
<g id="a_edge9_Node000007_Node000002"><a xlink:title=" ">
<path fill="none" stroke="#63b8ff" d="M70.26,-98.29C78.17,-96.89 86.52,-95.41 94.53,-93.98"/>
<polygon fill="#63b8ff" stroke="#63b8ff" points="69.77,-94.82 60.54,-100.02 71,-101.72 69.77,-94.82"/>
</a>
</g>
</g>
<!-- Node8 -->
<g id="Node000008" class="node">
<title>Node8</title>
<g id="a_Node000008"><a xlink:href="structnix_1_1MixEvalArgs.html" target="_top" xlink:title=" ">
<polygon fill="white" stroke="#bfbfbf" points="323.25,-57.75 225.5,-57.75 225.5,-37 323.25,-37 323.25,-57.75"/>
<text text-anchor="middle" x="274.38" y="-44.25" font-family="Helvetica,sans-Serif" font-size="10.00">nix::MixEvalArgs</text>
</a>
</g>
</g>
<!-- Node2&#45;&gt;Node8 -->
<g id="edge11_Node000008_Node000002" class="edge">
<title>Node2&#45;&gt;Node8</title>
<g id="a_edge11_Node000008_Node000002"><a xlink:title=" ">
<path fill="none" stroke="#63b8ff" d="M54.03,-88.15C65.72,-80.51 80.37,-72.18 94.75,-67.38 137.37,-53.14 188.56,-48.59 225.19,-47.33"/>
<polygon fill="#63b8ff" stroke="#63b8ff" points="52.14,-85.2 45.85,-93.72 56.08,-90.98 52.14,-85.2"/>
</a>
</g>
</g>
<!-- Node9 -->
<g id="Node000009" class="node">
<title>Node9</title>
<g id="a_Node000009"><a xlink:href="structnix_1_1MixRepair.html" target="_top" xlink:title=" ">
<polygon fill="white" stroke="#bfbfbf" points="181.62,-20.75 95.12,-20.75 95.12,0 181.62,0 181.62,-20.75"/>
<text text-anchor="middle" x="138.38" y="-7.25" font-family="Helvetica,sans-Serif" font-size="10.00">nix::MixRepair</text>
</a>
</g>
</g>
<!-- Node2&#45;&gt;Node9 -->
<g id="edge13_Node000009_Node000002" class="edge">
<title>Node2&#45;&gt;Node9</title>
<g id="a_edge13_Node000009_Node000002"><a xlink:title=" ">
<path fill="none" stroke="#63b8ff" d="M45.3,-85.71C57.49,-70.49 75.76,-49.53 94.75,-34.38 100.99,-29.4 108.39,-24.84 115.27,-21.06"/>
<polygon fill="#63b8ff" stroke="#63b8ff" points="42.55,-83.54 39.15,-93.57 48.07,-87.85 42.55,-83.54"/>
</a>
</g>
</g>
<!-- Node3&#45;&gt;Node1 -->
<g id="edge2_Node000001_Node000003" class="edge">
<title>Node3&#45;&gt;Node1</title>
<g id="a_edge2_Node000001_Node000003"><a xlink:title=" ">
<path fill="none" stroke="#63b8ff" d="M819.21,-170.64C827.2,-171.45 835.32,-172.28 843.32,-173.09"/>
<polygon fill="#63b8ff" stroke="#63b8ff" points="819.82,-167.18 809.51,-169.66 819.11,-174.15 819.82,-167.18"/>
</a>
</g>
</g>
<!-- Node4&#45;&gt;Node3 -->
<g id="edge4_Node000003_Node000004" class="edge">
<title>Node4&#45;&gt;Node3</title>
<g id="a_edge4_Node000003_Node000004"><a xlink:title=" ">
<path fill="none" stroke="#63b8ff" d="M629,-137.7C648.63,-142.23 670.3,-147.25 688.97,-151.56"/>
<polygon fill="#63b8ff" stroke="#63b8ff" points="630.04,-134.35 619.51,-135.5 628.47,-141.17 630.04,-134.35"/>
</a>
</g>
</g>
<!-- Node5 -->
<g id="Node000005" class="node">
<title>Node5</title>
<g id="a_Node000005"><a xlink:href="structnix_1_1EvalCommand.html" target="_top" xlink:title=" ">
<polygon fill="white" stroke="#666666" points="475,-96.75 366.75,-96.75 366.75,-76 475,-76 475,-96.75"/>
<text text-anchor="middle" x="420.88" y="-83.25" font-family="Helvetica,sans-Serif" font-size="10.00">nix::EvalCommand</text>
</a>
</g>
</g>
<!-- Node5&#45;&gt;Node4 -->
<g id="edge6_Node000004_Node000005" class="edge">
<title>Node5&#45;&gt;Node4</title>
<g id="a_edge6_Node000004_Node000005"><a xlink:title=" ">
<path fill="none" stroke="#63b8ff" d="M474.82,-100.01C492.1,-104.47 511.04,-109.35 527.4,-113.56"/>
<polygon fill="#63b8ff" stroke="#63b8ff" points="475.77,-96.65 465.21,-97.54 474.02,-103.42 475.77,-96.65"/>
</a>
</g>
</g>
<!-- Node6 -->
<g id="Node000006" class="node">
<title>Node6</title>
<g id="a_Node000006"><a xlink:href="structnix_1_1StoreCommand.html" target="_top" xlink:title=" ">
<polygon fill="white" stroke="#666666" points="330.75,-96.75 218,-96.75 218,-76 330.75,-76 330.75,-96.75"/>
<text text-anchor="middle" x="274.38" y="-83.25" font-family="Helvetica,sans-Serif" font-size="10.00">nix::StoreCommand</text>
</a>
</g>
</g>
<!-- Node6&#45;&gt;Node5 -->
<g id="edge7_Node000005_Node000006" class="edge">
<title>Node6&#45;&gt;Node5</title>
<g id="a_edge7_Node000005_Node000006"><a xlink:title=" ">
<path fill="none" stroke="#63b8ff" d="M342.53,-86.38C350.58,-86.38 358.71,-86.38 366.53,-86.38"/>
<polygon fill="#63b8ff" stroke="#63b8ff" points="342.76,-82.88 332.76,-86.38 342.76,-89.88 342.76,-82.88"/>
</a>
</g>
</g>
<!-- Node7&#45;&gt;Node6 -->
<g id="edge8_Node000006_Node000007" class="edge">
<title>Node7&#45;&gt;Node6</title>
<g id="a_edge8_Node000006_Node000007"><a xlink:title=" ">
<path fill="none" stroke="#63b8ff" d="M193.59,-86.38C201.57,-86.38 209.79,-86.38 217.79,-86.38"/>
<polygon fill="#63b8ff" stroke="#63b8ff" points="193.66,-82.88 183.66,-86.38 193.66,-89.88 193.66,-82.88"/>
</a>
</g>
</g>
<!-- Node8&#45;&gt;Node5 -->
<g id="edge10_Node000005_Node000008" class="edge">
<title>Node8&#45;&gt;Node5</title>
<g id="a_edge10_Node000005_Node000008"><a xlink:title=" ">
<path fill="none" stroke="#63b8ff" d="M326.73,-61.24C344.09,-65.92 363.21,-71.08 379.59,-75.5"/>
<polygon fill="#63b8ff" stroke="#63b8ff" points="327.65,-57.86 317.09,-58.63 325.83,-64.62 327.65,-57.86"/>
</a>
</g>
</g>
<!-- Node9&#45;&gt;Node8 -->
<g id="edge12_Node000008_Node000009" class="edge">
<title>Node9&#45;&gt;Node8</title>
<g id="a_edge12_Node000008_Node000009"><a xlink:title=" ">
<path fill="none" stroke="#63b8ff" d="M189.56,-24.23C204.4,-28.33 220.42,-32.75 234.44,-36.62"/>
<polygon fill="#63b8ff" stroke="#63b8ff" points="190.52,-20.87 179.95,-21.58 188.66,-27.61 190.52,-20.87"/>
</a>
</g>
</g>
<!-- Node12 -->
<g id="Node000012" class="node">
<title>Node12</title>
<g id="a_Node000012"><a xlink:href="structnix_1_1BuiltPathsCommand.html" target="_top" xlink:title=" ">
<polygon fill="white" stroke="#666666" points="1360.12,-270.75 1224.12,-270.75 1224.12,-250 1360.12,-250 1360.12,-270.75"/>
<text text-anchor="middle" x="1292.12" y="-257.25" font-family="Helvetica,sans-Serif" font-size="10.00">nix::BuiltPathsCommand</text>
</a>
</g>
</g>
<!-- Node11&#45;&gt;Node12 -->
<g id="edge16_Node000011_Node000012" class="edge">
<title>Node11&#45;&gt;Node12</title>
<g id="a_edge16_Node000011_Node000012"><a xlink:title=" ">
<path fill="none" stroke="#63b8ff" d="M1181.74,-178.36C1183.83,-179.6 1185.84,-180.94 1187.75,-182.38 1211.99,-200.62 1199.63,-221.97 1223.75,-240.38 1228.6,-244.08 1234.12,-247.09 1239.88,-249.56"/>
<polygon fill="#63b8ff" stroke="#63b8ff" points="1183.39,-175.27 1172.88,-173.91 1180.25,-181.53 1183.39,-175.27"/>
</a>
</g>
</g>
<!-- Node25 -->
<g id="Node000025" class="node">
<title>Node25</title>
<g id="a_Node000025"><a xlink:href="structnix_1_1CmdBuild.html" target="_top" xlink:title=" ">
<polygon fill="white" stroke="#bfbfbf" points="1334.25,-231.75 1250,-231.75 1250,-211 1334.25,-211 1334.25,-231.75"/>
<text text-anchor="middle" x="1292.12" y="-218.25" font-family="Helvetica,sans-Serif" font-size="10.00">nix::CmdBuild</text>
</a>
</g>
</g>
<!-- Node11&#45;&gt;Node25 -->
<g id="edge29_Node000011_Node000025" class="edge">
<title>Node11&#45;&gt;Node25</title>
<g id="a_edge29_Node000011_Node000025"><a xlink:title=" ">
<path fill="none" stroke="#63b8ff" d="M1171.52,-176.53C1177.05,-178.34 1182.55,-180.29 1187.75,-182.38 1204.55,-189.09 1207,-194.55 1223.75,-201.38 1232.11,-204.78 1241.27,-207.89 1250.06,-210.59"/>
<polygon fill="#63b8ff" stroke="#63b8ff" points="1172.92,-173.3 1162.33,-173.68 1170.84,-179.98 1172.92,-173.3"/>
</a>
</g>
</g>
<!-- Node26 -->
<g id="Node000026" class="node">
<title>Node26</title>
<g id="a_Node000026"><a xlink:href="structnix_1_1CmdCopyLog.html" target="_top" xlink:title=" ">
<polygon fill="white" stroke="#bfbfbf" points="1342.88,-192.75 1241.38,-192.75 1241.38,-172 1342.88,-172 1342.88,-192.75"/>
<text text-anchor="middle" x="1292.12" y="-179.25" font-family="Helvetica,sans-Serif" font-size="10.00">nix::CmdCopyLog</text>
</a>
</g>
</g>
<!-- Node11&#45;&gt;Node26 -->
<g id="edge30_Node000011_Node000026" class="edge">
<title>Node11&#45;&gt;Node26</title>
<g id="a_edge30_Node000011_Node000026"><a xlink:title=" ">
<path fill="none" stroke="#63b8ff" d="M1199.42,-171.84C1213.64,-173.47 1228.02,-175.13 1241.05,-176.62"/>
<polygon fill="#63b8ff" stroke="#63b8ff" points="1199.91,-168.38 1189.58,-170.71 1199.11,-175.33 1199.91,-168.38"/>
</a>
</g>
</g>
<!-- Node27 -->
<g id="Node000027" class="node">
<title>Node27</title>
<g id="a_Node000027"><a xlink:href="structnix_1_1CmdProfileInstall.html" target="_top" xlink:title=" ">
<polygon fill="white" stroke="#bfbfbf" points="1352.25,-153.75 1232,-153.75 1232,-133 1352.25,-133 1352.25,-153.75"/>
<text text-anchor="middle" x="1292.12" y="-140.25" font-family="Helvetica,sans-Serif" font-size="10.00">nix::CmdProfileInstall</text>
</a>
</g>
</g>
<!-- Node11&#45;&gt;Node27 -->
<g id="edge31_Node000011_Node000027" class="edge">
<title>Node11&#45;&gt;Node27</title>
<g id="a_edge31_Node000011_Node000027"><a xlink:title=" ">
<path fill="none" stroke="#63b8ff" d="M1199.37,-153.39C1210.27,-152.2 1221.27,-151 1231.68,-149.86"/>
<polygon fill="#63b8ff" stroke="#63b8ff" points="1199.14,-149.89 1189.58,-154.46 1199.9,-156.85 1199.14,-149.89"/>
</a>
</g>
</g>
<!-- Node28 -->
<g id="Node000028" class="node">
<title>Node28</title>
<g id="a_Node000028"><a xlink:href="structnix_1_1CmdShell.html" target="_top" xlink:title=" ">
<polygon fill="white" stroke="#bfbfbf" points="1333.88,-114.75 1250.38,-114.75 1250.38,-94 1333.88,-94 1333.88,-114.75"/>
<text text-anchor="middle" x="1292.12" y="-101.25" font-family="Helvetica,sans-Serif" font-size="10.00">nix::CmdShell</text>
</a>
</g>
</g>
<!-- Node11&#45;&gt;Node28 -->
<g id="edge32_Node000011_Node000028" class="edge">
<title>Node11&#45;&gt;Node28</title>
<g id="a_edge32_Node000011_Node000028"><a xlink:title=" ">
<path fill="none" stroke="#63b8ff" d="M1156.46,-147.76C1176.53,-140.47 1201.34,-131.68 1223.75,-124.38 1233.26,-121.27 1243.59,-118.11 1253.24,-115.23"/>
<polygon fill="#63b8ff" stroke="#63b8ff" points="1155.47,-144.4 1147.28,-151.11 1157.87,-150.97 1155.47,-144.4"/>
</a>
</g>
</g>
<!-- Node29 -->
<g id="Node000029" class="node">
<title>Node29</title>
<g id="a_Node000029"><a xlink:href="structnix_1_1CmdShowDerivation.html" target="_top" xlink:title=" ">
<polygon fill="white" stroke="#bfbfbf" points="1360.5,-75.75 1223.75,-75.75 1223.75,-55 1360.5,-55 1360.5,-75.75"/>
<text text-anchor="middle" x="1292.12" y="-62.25" font-family="Helvetica,sans-Serif" font-size="10.00">nix::CmdShowDerivation</text>
</a>
</g>
</g>
<!-- Node11&#45;&gt;Node29 -->
<g id="edge33_Node000011_Node000029" class="edge">
<title>Node11&#45;&gt;Node29</title>
<g id="a_edge33_Node000011_Node000029"><a xlink:title=" ">
<path fill="none" stroke="#63b8ff" d="M1137.44,-144.39C1157.99,-127.12 1191.2,-101.37 1223.75,-85.38 1230.98,-81.82 1238.96,-78.77 1246.82,-76.2"/>
<polygon fill="#63b8ff" stroke="#63b8ff" points="1135.41,-141.52 1130.09,-150.68 1139.96,-146.84 1135.41,-141.52"/>
</a>
</g>
</g>
<!-- Node13 -->
<g id="Node000013" class="node">
<title>Node13</title>
<g id="a_Node000013"><a xlink:href="structnix_1_1CmdCopy.html" target="_top" xlink:title=" ">
<polygon fill="white" stroke="#bfbfbf" points="1508.12,-309.75 1423.88,-309.75 1423.88,-289 1508.12,-289 1508.12,-309.75"/>
<text text-anchor="middle" x="1466" y="-296.25" font-family="Helvetica,sans-Serif" font-size="10.00">nix::CmdCopy</text>
</a>
</g>
</g>
<!-- Node12&#45;&gt;Node13 -->
<g id="edge17_Node000012_Node000013" class="edge">
<title>Node12&#45;&gt;Node13</title>
<g id="a_edge17_Node000012_Node000013"><a xlink:title=" ">
<path fill="none" stroke="#63b8ff" d="M1351.93,-273.72C1375.47,-279.06 1402.04,-285.09 1423.51,-289.96"/>
<polygon fill="#63b8ff" stroke="#63b8ff" points="1353,-270.37 1342.48,-271.57 1351.46,-277.2 1353,-270.37"/>
</a>
</g>
</g>
<!-- Node14 -->
<g id="Node000014" class="node">
<title>Node14</title>
<g id="a_Node000014"><a xlink:href="structnix_1_1CmdRealisationInfo.html" target="_top" xlink:title=" ">
<polygon fill="white" stroke="#bfbfbf" points="1532.5,-270.75 1399.5,-270.75 1399.5,-250 1532.5,-250 1532.5,-270.75"/>
<text text-anchor="middle" x="1466" y="-257.25" font-family="Helvetica,sans-Serif" font-size="10.00">nix::CmdRealisationInfo</text>
</a>
</g>
</g>
<!-- Node12&#45;&gt;Node14 -->
<g id="edge18_Node000012_Node000014" class="edge">
<title>Node12&#45;&gt;Node14</title>
<g id="a_edge18_Node000012_Node000014"><a xlink:title=" ">
<path fill="none" stroke="#63b8ff" d="M1371.99,-260.38C1381.08,-260.38 1390.27,-260.38 1399.17,-260.38"/>
<polygon fill="#63b8ff" stroke="#63b8ff" points="1372.07,-256.88 1362.07,-260.38 1372.07,-263.88 1372.07,-256.88"/>
</a>
</g>
</g>
<!-- Node15 -->
<g id="Node000015" class="node">
<title>Node15</title>
<g id="a_Node000015"><a xlink:href="structnix_1_1StorePathsCommand.html" target="_top" xlink:title=" ">
<polygon fill="white" stroke="#bfbfbf" points="1535.5,-231.75 1396.5,-231.75 1396.5,-211 1535.5,-211 1535.5,-231.75"/>
<text text-anchor="middle" x="1466" y="-218.25" font-family="Helvetica,sans-Serif" font-size="10.00">nix::StorePathsCommand</text>
</a>
</g>
</g>
<!-- Node12&#45;&gt;Node15 -->
<g id="edge19_Node000012_Node000015" class="edge">
<title>Node12&#45;&gt;Node15</title>
<g id="a_edge19_Node000012_Node000015"><a xlink:title=" ">
<path fill="none" stroke="#63b8ff" d="M1352.16,-246.98C1373.34,-242.17 1396.95,-236.82 1417.08,-232.25"/>
<polygon fill="#63b8ff" stroke="#63b8ff" points="1351.46,-243.55 1342.48,-249.18 1353,-250.38 1351.46,-243.55"/>
</a>
</g>
</g>
<!-- Node16 -->
<g id="Node000016" class="node">
<title>Node16</title>
<g id="a_Node000016"><a xlink:href="structnix_1_1CmdCopySigs.html" target="_top" xlink:title=" ">
<polygon fill="white" stroke="#bfbfbf" points="1711.25,-368.75 1606.75,-368.75 1606.75,-348 1711.25,-348 1711.25,-368.75"/>
<text text-anchor="middle" x="1659" y="-355.25" font-family="Helvetica,sans-Serif" font-size="10.00">nix::CmdCopySigs</text>
</a>
</g>
</g>
<!-- Node15&#45;&gt;Node16 -->
<g id="edge20_Node000015_Node000016" class="edge">
<title>Node15&#45;&gt;Node16</title>
<g id="a_edge20_Node000015_Node000016"><a xlink:title=" ">
<path fill="none" stroke="#63b8ff" d="M1531.58,-238.09C1532.94,-239.12 1534.25,-240.21 1535.5,-241.38 1569.15,-272.71 1536.97,-308.01 1571.5,-338.38 1581.22,-346.93 1593.88,-352.02 1606.49,-355"/>
<polygon fill="#63b8ff" stroke="#63b8ff" points="1533.56,-235.2 1523.21,-232.95 1529.9,-241.17 1533.56,-235.2"/>
</a>
</g>
</g>
<!-- Node17 -->
<g id="Node000017" class="node">
<title>Node17</title>
<g id="a_Node000017"><a xlink:href="structnix_1_1CmdMakeContentAddressed.html" target="_top" xlink:title=" ">
<polygon fill="white" stroke="#bfbfbf" points="1746.5,-329.75 1571.5,-329.75 1571.5,-309 1746.5,-309 1746.5,-329.75"/>
<text text-anchor="middle" x="1659" y="-316.25" font-family="Helvetica,sans-Serif" font-size="10.00">nix::CmdMakeContentAddressed</text>
</a>
</g>
</g>
<!-- Node15&#45;&gt;Node17 -->
<g id="edge21_Node000015_Node000017" class="edge">
<title>Node15&#45;&gt;Node17</title>
<g id="a_edge21_Node000015_Node000017"><a xlink:title=" ">
<path fill="none" stroke="#63b8ff" d="M1529.18,-237.15C1531.38,-238.45 1533.5,-239.85 1535.5,-241.38 1559.66,-259.73 1546.83,-281.72 1571.5,-299.38 1576.64,-303.05 1582.35,-306.07 1588.32,-308.53"/>
<polygon fill="#63b8ff" stroke="#63b8ff" points="1530.96,-234.13 1520.45,-232.78 1527.83,-240.39 1530.96,-234.13"/>
</a>
</g>
</g>
<!-- Node18 -->
<g id="Node000018" class="node">
<title>Node18</title>
<g id="a_Node000018"><a xlink:href="structnix_1_1CmdPathInfo.html" target="_top" xlink:title=" ">
<polygon fill="white" stroke="#bfbfbf" points="1708.62,-290.75 1609.38,-290.75 1609.38,-270 1708.62,-270 1708.62,-290.75"/>
<text text-anchor="middle" x="1659" y="-277.25" font-family="Helvetica,sans-Serif" font-size="10.00">nix::CmdPathInfo</text>
</a>
</g>
</g>
<!-- Node15&#45;&gt;Node18 -->
<g id="edge22_Node000015_Node000018" class="edge">
<title>Node15&#45;&gt;Node18</title>
<g id="a_edge22_Node000015_Node000018"><a xlink:title=" ">
<path fill="none" stroke="#63b8ff" d="M1519.97,-235.68C1525.27,-237.45 1530.52,-239.36 1535.5,-241.38 1552.27,-248.17 1554.55,-254.06 1571.5,-260.38 1583.49,-264.84 1596.8,-268.51 1609.31,-271.43"/>
<polygon fill="#63b8ff" stroke="#63b8ff" points="1521.15,-232.38 1510.56,-232.68 1519.02,-239.05 1521.15,-232.38"/>
</a>
</g>
</g>
<!-- Node19 -->
<g id="Node000019" class="node">
<title>Node19</title>
<g id="a_Node000019"><a xlink:href="structnix_1_1CmdSign.html" target="_top" xlink:title=" ">
<polygon fill="white" stroke="#bfbfbf" points="1699.25,-251.75 1618.75,-251.75 1618.75,-231 1699.25,-231 1699.25,-251.75"/>
<text text-anchor="middle" x="1659" y="-238.25" font-family="Helvetica,sans-Serif" font-size="10.00">nix::CmdSign</text>
</a>
</g>
</g>
<!-- Node15&#45;&gt;Node19 -->
<g id="edge23_Node000015_Node000019" class="edge">
<title>Node15&#45;&gt;Node19</title>
<g id="a_edge23_Node000015_Node000019"><a xlink:title=" ">
<path fill="none" stroke="#63b8ff" d="M1547.13,-229.77C1571.71,-232.34 1597.7,-235.06 1618.32,-237.22"/>
<polygon fill="#63b8ff" stroke="#63b8ff" points="1547.77,-226.31 1537.46,-228.75 1547.04,-233.28 1547.77,-226.31"/>
</a>
</g>
</g>
<!-- Node20 -->
<g id="Node000020" class="node">
<title>Node20</title>
<g id="a_Node000020"><a xlink:href="structnix_1_1CmdStoreDelete.html" target="_top" xlink:title=" ">
<polygon fill="white" stroke="#bfbfbf" points="1717.62,-212.75 1600.38,-212.75 1600.38,-192 1717.62,-192 1717.62,-212.75"/>
<text text-anchor="middle" x="1659" y="-199.25" font-family="Helvetica,sans-Serif" font-size="10.00">nix::CmdStoreDelete</text>
</a>
</g>
</g>
<!-- Node15&#45;&gt;Node20 -->
<g id="edge24_Node000015_Node000020" class="edge">
<title>Node15&#45;&gt;Node20</title>
<g id="a_edge24_Node000015_Node000020"><a xlink:title=" ">
<path fill="none" stroke="#63b8ff" d="M1547.2,-213.4C1564.98,-211.63 1583.48,-209.79 1600.16,-208.13"/>
<polygon fill="#63b8ff" stroke="#63b8ff" points="1547.07,-209.89 1537.46,-214.37 1547.76,-216.86 1547.07,-209.89"/>
</a>
</g>
</g>
<!-- Node21 -->
<g id="Node000021" class="node">
<title>Node21</title>
<g id="a_Node000021"><a xlink:href="structnix_1_1CmdStoreRepair.html" target="_top" xlink:title=" ">
<polygon fill="white" stroke="#bfbfbf" points="1717.25,-173.75 1600.75,-173.75 1600.75,-153 1717.25,-153 1717.25,-173.75"/>
<text text-anchor="middle" x="1659" y="-160.25" font-family="Helvetica,sans-Serif" font-size="10.00">nix::CmdStoreRepair</text>
</a>
</g>
</g>
<!-- Node15&#45;&gt;Node21 -->
<g id="edge25_Node000015_Node000021" class="edge">
<title>Node15&#45;&gt;Node21</title>
<g id="a_edge25_Node000015_Node000021"><a xlink:title=" ">
<path fill="none" stroke="#63b8ff" d="M1504.47,-206.5C1524.22,-198.98 1548.96,-190.05 1571.5,-183.38 1582.73,-180.05 1594.92,-176.93 1606.5,-174.2"/>
<polygon fill="#63b8ff" stroke="#63b8ff" points="1503.25,-203.22 1495.18,-210.08 1505.77,-209.75 1503.25,-203.22"/>
</a>
</g>
</g>
<!-- Node22 -->
<g id="Node000022" class="node">
<title>Node22</title>
<g id="a_Node000022"><a xlink:href="structnix_1_1CmdVerify.html" target="_top" xlink:title=" ">
<polygon fill="white" stroke="#bfbfbf" points="1702.62,-134.75 1615.38,-134.75 1615.38,-114 1702.62,-114 1702.62,-134.75"/>
<text text-anchor="middle" x="1659" y="-121.25" font-family="Helvetica,sans-Serif" font-size="10.00">nix::CmdVerify</text>
</a>
</g>
</g>
<!-- Node15&#45;&gt;Node22 -->
<g id="edge26_Node000015_Node000022" class="edge">
<title>Node15&#45;&gt;Node22</title>
<g id="a_edge26_Node000015_Node000022"><a xlink:title=" ">
<path fill="none" stroke="#63b8ff" d="M1486.68,-202.99C1506.58,-185.37 1538.98,-159.33 1571.5,-144.38 1585.08,-138.13 1600.79,-133.74 1615.06,-130.71"/>
<polygon fill="#63b8ff" stroke="#63b8ff" points="1484.4,-200.32 1479.33,-209.63 1489.1,-205.52 1484.4,-200.32"/>
</a>
</g>
</g>
<!-- Node23 -->
<g id="Node000023" class="node">
<title>Node23</title>
<g id="a_Node000023"><a xlink:href="structnix_1_1StorePathCommand.html" target="_top" xlink:title=" ">
<polygon fill="white" stroke="#666666" points="1725.88,-95.75 1592.12,-95.75 1592.12,-75 1725.88,-75 1725.88,-95.75"/>
<text text-anchor="middle" x="1659" y="-82.25" font-family="Helvetica,sans-Serif" font-size="10.00">nix::StorePathCommand</text>
</a>
</g>
</g>
<!-- Node15&#45;&gt;Node23 -->
<g id="edge27_Node000015_Node000023" class="edge">
<title>Node15&#45;&gt;Node23</title>
<g id="a_edge27_Node000015_Node000023"><a xlink:title=" ">
<path fill="none" stroke="#63b8ff" d="M1479.52,-201.07C1496.84,-174.77 1530.65,-129.44 1571.5,-105.38 1577.74,-101.7 1584.61,-98.7 1591.66,-96.25"/>
<polygon fill="#63b8ff" stroke="#63b8ff" points="1476.58,-199.17 1474.14,-209.48 1482.48,-202.94 1476.58,-199.17"/>
</a>
</g>
</g>
<!-- Node24 -->
<g id="Node000024" class="node">
<title>Node24</title>
<g id="a_Node000024"><a xlink:href="structnix_1_1CmdDumpPath.html" target="_top" xlink:title=" ">
<polygon fill="white" stroke="#bfbfbf" points="1892.25,-95.75 1782.5,-95.75 1782.5,-75 1892.25,-75 1892.25,-95.75"/>
<text text-anchor="middle" x="1837.38" y="-82.25" font-family="Helvetica,sans-Serif" font-size="10.00">nix::CmdDumpPath</text>
</a>
</g>
</g>
<!-- Node23&#45;&gt;Node24 -->
<g id="edge28_Node000023_Node000024" class="edge">
<title>Node23&#45;&gt;Node24</title>
<g id="a_edge28_Node000023_Node000024"><a xlink:title=" ">
<path fill="none" stroke="#63b8ff" d="M1737.58,-85.38C1752.63,-85.38 1768.1,-85.38 1782.2,-85.38"/>
<polygon fill="#63b8ff" stroke="#63b8ff" points="1737.69,-81.88 1727.69,-85.38 1737.69,-88.88 1737.69,-81.88"/>
</a>
</g>
</g>
</g>
</svg>
