<?xml version="1.0" encoding="UTF-8" standalone="no"?>
<!DOCTYPE svg PUBLIC "-//W3C//DTD SVG 1.1//EN"
 "http://www.w3.org/Graphics/SVG/1.1/DTD/svg11.dtd">
<!-- Generated by graphviz version 12.2.1 (0)
 -->
<!-- Title: nix::DummyStoreConfig Pages: 1 -->
<svg width="140pt" height="199pt"
 viewBox="0.00 0.00 140.25 199.00" xmlns="http://www.w3.org/2000/svg" xmlns:xlink="http://www.w3.org/1999/xlink">
<g id="graph0" class="graph" transform="scale(1 1) rotate(0) translate(4 195)">
<title>nix::DummyStoreConfig</title>
<!-- Node1 -->
<g id="Node000001" class="node">
<title>Node1</title>
<g id="a_Node000001"><a xlink:title=" ">
<polygon fill="#999999" stroke="#666666" points="132.25,-20.75 0,-20.75 0,0 132.25,0 132.25,-20.75"/>
<text text-anchor="middle" x="66.12" y="-7.25" font-family="Helvetica,sans-Serif" font-size="10.00">nix::DummyStoreConfig</text>
</a>
</g>
</g>
<!-- Node2 -->
<g id="Node000002" class="node">
<title>Node2</title>
<g id="a_Node000002"><a xlink:href="structnix_1_1StoreConfig.html" target="_top" xlink:title=" ">
<polygon fill="white" stroke="#bfbfbf" points="112.75,-77.5 19.5,-77.5 19.5,-56.75 112.75,-56.75 112.75,-77.5"/>
<text text-anchor="middle" x="66.12" y="-64" font-family="Helvetica,sans-Serif" font-size="10.00">nix::StoreConfig</text>
</a>
</g>
</g>
<!-- Node2&#45;&gt;Node1 -->
<g id="edge1_Node000001_Node000002" class="edge">
<title>Node2&#45;&gt;Node1</title>
<g id="a_edge1_Node000001_Node000002"><a xlink:title=" ">
<path fill="none" stroke="#63b8ff" d="M66.12,-44.88C66.12,-36.66 66.12,-27.68 66.12,-21.08"/>
<polygon fill="#63b8ff" stroke="#63b8ff" points="62.63,-44.82 66.13,-54.82 69.63,-44.82 62.63,-44.82"/>
</a>
</g>
</g>
<!-- Node3 -->
<g id="Node000003" class="node">
<title>Node3</title>
<g id="a_Node000003"><a xlink:href="classnix_1_1Config.html" target="_top" xlink:title=" ">
<polygon fill="white" stroke="#666666" points="100,-134.25 32.25,-134.25 32.25,-113.5 100,-113.5 100,-134.25"/>
<text text-anchor="middle" x="66.12" y="-120.75" font-family="Helvetica,sans-Serif" font-size="10.00">nix::Config</text>
</a>
</g>
</g>
<!-- Node3&#45;&gt;Node2 -->
<g id="edge2_Node000002_Node000003" class="edge">
<title>Node3&#45;&gt;Node2</title>
<g id="a_edge2_Node000002_Node000003"><a xlink:title=" ">
<path fill="none" stroke="#63b8ff" d="M66.12,-101.63C66.12,-93.41 66.12,-84.43 66.12,-77.83"/>
<polygon fill="#63b8ff" stroke="#63b8ff" points="62.63,-101.57 66.13,-111.57 69.63,-101.57 62.63,-101.57"/>
</a>
</g>
</g>
<!-- Node4 -->
<g id="Node000004" class="node">
<title>Node4</title>
<g id="a_Node000004"><a xlink:href="classnix_1_1AbstractConfig.html" target="_top" xlink:title=" ">
<polygon fill="white" stroke="#bfbfbf" points="120.25,-191 12,-191 12,-170.25 120.25,-170.25 120.25,-191"/>
<text text-anchor="middle" x="66.12" y="-177.5" font-family="Helvetica,sans-Serif" font-size="10.00">nix::AbstractConfig</text>
</a>
</g>
</g>
<!-- Node4&#45;&gt;Node3 -->
<g id="edge3_Node000003_Node000004" class="edge">
<title>Node4&#45;&gt;Node3</title>
<g id="a_edge3_Node000003_Node000004"><a xlink:title=" ">
<path fill="none" stroke="#63b8ff" d="M66.12,-158.38C66.12,-150.16 66.12,-141.18 66.12,-134.58"/>
<polygon fill="#63b8ff" stroke="#63b8ff" points="62.63,-158.32 66.13,-168.32 69.63,-158.32 62.63,-158.32"/>
</a>
</g>
</g>
</g>
</svg>
