<?xml version="1.0" encoding="UTF-8" standalone="no"?>
<!DOCTYPE svg PUBLIC "-//W3C//DTD SVG 1.1//EN"
 "http://www.w3.org/Graphics/SVG/1.1/DTD/svg11.dtd">
<!-- Generated by graphviz version 12.2.1 (0)
 -->
<!-- Title: nix::CmdRealisation Pages: 1 -->
<svg width="242pt" height="156pt"
 viewBox="0.00 0.00 241.75 156.00" xmlns="http://www.w3.org/2000/svg" xmlns:xlink="http://www.w3.org/1999/xlink">
<g id="graph0" class="graph" transform="scale(1 1) rotate(0) translate(4 152)">
<title>nix::CmdRealisation</title>
<!-- Node1 -->
<g id="Node000001" class="node">
<title>Node1</title>
<g id="a_Node000001"><a xlink:title=" ">
<polygon fill="#999999" stroke="#666666" points="114.25,-78.5 0,-78.5 0,-57.75 114.25,-57.75 114.25,-78.5"/>
<text text-anchor="middle" x="57.12" y="-65" font-family="Helvetica,sans-Serif" font-size="10.00">nix::CmdRealisation</text>
</a>
</g>
</g>
<!-- Node2 -->
<g id="Node000002" class="node">
<title>Node2</title>
<g id="a_Node000002"><a xlink:href="classnix_1_1MultiCommand.html" target="_top" xlink:title=" ">
<polygon fill="white" stroke="#666666" points="218.12,-148 106.12,-148 106.12,-127.25 218.12,-127.25 218.12,-148"/>
<text text-anchor="middle" x="162.12" y="-134.5" font-family="Helvetica,sans-Serif" font-size="10.00">nix::MultiCommand</text>
</a>
</g>
</g>
<!-- Node2&#45;&gt;Node1 -->
<g id="edge1_Node000001_Node000002" class="edge">
<title>Node2&#45;&gt;Node1</title>
<g id="a_edge1_Node000001_Node000002"><a xlink:title=" ">
<path fill="none" stroke="#63b8ff" d="M137.63,-120.88C117.5,-107.94 89.59,-90 72.48,-79"/>
<polygon fill="#63b8ff" stroke="#63b8ff" points="135.5,-123.67 145.81,-126.14 139.29,-117.78 135.5,-123.67"/>
</a>
</g>
</g>
<!-- Node4 -->
<g id="Node000004" class="node">
<title>Node4</title>
<g id="a_Node000004"><a xlink:href="classnix_1_1Args.html" target="_top" xlink:title=" ">
<polygon fill="white" stroke="#bfbfbf" points="191.5,-78.5 132.75,-78.5 132.75,-57.75 191.5,-57.75 191.5,-78.5"/>
<text text-anchor="middle" x="162.12" y="-65" font-family="Helvetica,sans-Serif" font-size="10.00">nix::Args</text>
</a>
</g>
</g>
<!-- Node2&#45;&gt;Node4 -->
<g id="edge4_Node000004_Node000002" class="edge">
<title>Node2&#45;&gt;Node4</title>
<g id="a_edge4_Node000004_Node000002"><a xlink:title=" ">
<path fill="none" stroke="#9a32cd" stroke-dasharray="5,2" d="M162.12,-115.82C162.12,-103.47 162.12,-88.4 162.12,-78.78"/>
<polygon fill="#9a32cd" stroke="#9a32cd" points="158.63,-115.44 162.13,-125.44 165.63,-115.44 158.63,-115.44"/>
</a>
</g>
<text text-anchor="middle" x="179.38" y="-99.75" font-family="Helvetica,sans-Serif" font-size="10.00" fill="grey"> parent</text>
</g>
<!-- Node3 -->
<g id="Node000003" class="node">
<title>Node3</title>
<g id="a_Node000003"><a xlink:href="structnix_1_1Command.html" target="_top" xlink:title=" ">
<polygon fill="white" stroke="#666666" points="233.75,-20.75 146.5,-20.75 146.5,0 233.75,0 233.75,-20.75"/>
<text text-anchor="middle" x="190.12" y="-7.25" font-family="Helvetica,sans-Serif" font-size="10.00">nix::Command</text>
</a>
</g>
</g>
<!-- Node3&#45;&gt;Node2 -->
<g id="edge2_Node000002_Node000003" class="edge">
<title>Node3&#45;&gt;Node2</title>
<g id="a_edge2_Node000002_Node000003"><a xlink:title=" ">
<path fill="none" stroke="#63b8ff" d="M198.86,-31.91C206.25,-52.61 213.78,-84.9 201.12,-109.25 197.23,-116.74 190.25,-122.6 183.26,-126.95"/>
<polygon fill="#63b8ff" stroke="#63b8ff" points="202.13,-30.66 195.23,-22.62 195.61,-33.2 202.13,-30.66"/>
</a>
</g>
</g>
<!-- Node4&#45;&gt;Node3 -->
<g id="edge3_Node000003_Node000004" class="edge">
<title>Node4&#45;&gt;Node3</title>
<g id="a_edge3_Node000003_Node000004"><a xlink:title=" ">
<path fill="none" stroke="#63b8ff" d="M172.05,-47.37C176.55,-38.41 181.67,-28.22 185.3,-20.97"/>
<polygon fill="#63b8ff" stroke="#63b8ff" points="169.04,-45.55 167.68,-56.06 175.3,-48.7 169.04,-45.55"/>
</a>
</g>
</g>
</g>
</svg>
