<?xml version="1.0" encoding="UTF-8" standalone="no"?>
<!DOCTYPE svg PUBLIC "-//W3C//DTD SVG 1.1//EN"
 "http://www.w3.org/Graphics/SVG/1.1/DTD/svg11.dtd">
<!-- Generated by graphviz version 12.2.1 (0)
 -->
<!-- Title: nix::SourceExprCommand Pages: 1 -->
<svg width="1900pt" height="516pt"
 viewBox="0.00 0.00 1900.25 515.75" xmlns="http://www.w3.org/2000/svg" xmlns:xlink="http://www.w3.org/1999/xlink">
<g id="graph0" class="graph" transform="scale(1 1) rotate(0) translate(4 511.75)">
<title>nix::SourceExprCommand</title>
<!-- Node1 -->
<g id="Node000001" class="node">
<title>Node1</title>
<g id="a_Node000001"><a xlink:title=" ">
<polygon fill="#999999" stroke="#666666" points="807.75,-409.75 665.75,-409.75 665.75,-389 807.75,-389 807.75,-409.75"/>
<text text-anchor="middle" x="736.75" y="-396.25" font-family="Helvetica,sans-Serif" font-size="10.00">nix::SourceExprCommand</text>
</a>
</g>
</g>
<!-- Node9 -->
<g id="Node000009" class="node">
<title>Node9</title>
<g id="a_Node000009"><a xlink:href="structnix_1_1CmdDiffClosures.html" target="_top" xlink:title=" ">
<polygon fill="white" stroke="#bfbfbf" points="985.38,-507.75 866.62,-507.75 866.62,-487 985.38,-487 985.38,-507.75"/>
<text text-anchor="middle" x="926" y="-494.25" font-family="Helvetica,sans-Serif" font-size="10.00">nix::CmdDiffClosures</text>
</a>
</g>
</g>
<!-- Node1&#45;&gt;Node9 -->
<g id="edge12_Node000001_Node000009" class="edge">
<title>Node1&#45;&gt;Node9</title>
<g id="a_edge12_Node000001_Node000009"><a xlink:title=" ">
<path fill="none" stroke="#63b8ff" d="M757.49,-417.66C777.69,-435.43 810.73,-461.92 843.75,-477.38 851.51,-481.01 860.01,-484.03 868.5,-486.53"/>
<polygon fill="#63b8ff" stroke="#63b8ff" points="760.06,-415.27 750.28,-411.19 755.39,-420.48 760.06,-415.27"/>
</a>
</g>
</g>
<!-- Node10 -->
<g id="Node000010" class="node">
<title>Node10</title>
<g id="a_Node000010"><a xlink:href="structnix_1_1CmdFmt.html" target="_top" xlink:title=" ">
<polygon fill="white" stroke="#bfbfbf" points="965.5,-468.75 886.5,-468.75 886.5,-448 965.5,-448 965.5,-468.75"/>
<text text-anchor="middle" x="926" y="-455.25" font-family="Helvetica,sans-Serif" font-size="10.00">nix::CmdFmt</text>
</a>
</g>
</g>
<!-- Node1&#45;&gt;Node10 -->
<g id="edge13_Node000001_Node000010" class="edge">
<title>Node1&#45;&gt;Node10</title>
<g id="a_edge13_Node000001_Node000010"><a xlink:title=" ">
<path fill="none" stroke="#63b8ff" d="M775.09,-414.27C795.24,-422.01 820.65,-431.31 843.75,-438.38 857.5,-442.58 872.77,-446.53 886.32,-449.78"/>
<polygon fill="#63b8ff" stroke="#63b8ff" points="776.48,-411.05 765.89,-410.7 773.95,-417.58 776.48,-411.05"/>
</a>
</g>
</g>
<!-- Node11 -->
<g id="Node000011" class="node">
<title>Node11</title>
<g id="a_Node000011"><a xlink:href="structnix_1_1CmdProfileUpgrade.html" target="_top" xlink:title=" ">
<polygon fill="white" stroke="#bfbfbf" points="991.75,-429.75 860.25,-429.75 860.25,-409 991.75,-409 991.75,-429.75"/>
<text text-anchor="middle" x="926" y="-416.25" font-family="Helvetica,sans-Serif" font-size="10.00">nix::CmdProfileUpgrade</text>
</a>
</g>
</g>
<!-- Node1&#45;&gt;Node11 -->
<g id="edge14_Node000001_Node000011" class="edge">
<title>Node1&#45;&gt;Node11</title>
<g id="a_edge14_Node000001_Node000011"><a xlink:title=" ">
<path fill="none" stroke="#63b8ff" d="M819.31,-408.09C832.89,-409.54 846.81,-411.02 859.92,-412.42"/>
<polygon fill="#63b8ff" stroke="#63b8ff" points="819.83,-404.62 809.51,-407.04 819.08,-411.58 819.83,-404.62"/>
</a>
</g>
</g>
<!-- Node12 -->
<g id="Node000012" class="node">
<title>Node12</title>
<g id="a_Node000012"><a xlink:href="structnix_1_1CmdWhyDepends.html" target="_top" xlink:title=" ">
<polygon fill="white" stroke="#bfbfbf" points="988,-390.75 864,-390.75 864,-370 988,-370 988,-390.75"/>
<text text-anchor="middle" x="926" y="-377.25" font-family="Helvetica,sans-Serif" font-size="10.00">nix::CmdWhyDepends</text>
</a>
</g>
</g>
<!-- Node1&#45;&gt;Node12 -->
<g id="edge15_Node000001_Node000012" class="edge">
<title>Node1&#45;&gt;Node12</title>
<g id="a_edge15_Node000001_Node000012"><a xlink:title=" ">
<path fill="none" stroke="#63b8ff" d="M819.27,-391.1C834.13,-389.6 849.41,-388.04 863.57,-386.61"/>
<polygon fill="#63b8ff" stroke="#63b8ff" points="819.11,-387.6 809.51,-392.09 819.82,-394.57 819.11,-387.6"/>
</a>
</g>
</g>
<!-- Node13 -->
<g id="Node000013" class="node">
<title>Node13</title>
<g id="a_Node000013"><a xlink:href="structnix_1_1InstallableCommand.html" target="_top" xlink:title=" ">
<polygon fill="white" stroke="#666666" points="995.12,-351.75 856.88,-351.75 856.88,-331 995.12,-331 995.12,-351.75"/>
<text text-anchor="middle" x="926" y="-338.25" font-family="Helvetica,sans-Serif" font-size="10.00">nix::InstallableCommand</text>
</a>
</g>
</g>
<!-- Node1&#45;&gt;Node13 -->
<g id="edge16_Node000001_Node000013" class="edge">
<title>Node1&#45;&gt;Node13</title>
<g id="a_edge16_Node000001_Node000013"><a xlink:title=" ">
<path fill="none" stroke="#63b8ff" d="M775.95,-384.61C795.98,-377.14 821.01,-368.23 843.75,-361.38 854.6,-358.1 866.38,-354.97 877.52,-352.19"/>
<polygon fill="#63b8ff" stroke="#63b8ff" points="774.93,-381.25 766.8,-388.05 777.4,-387.8 774.93,-381.25"/>
</a>
</g>
</g>
<!-- Node23 -->
<g id="Node000023" class="node">
<title>Node23</title>
<g id="a_Node000023"><a xlink:href="structnix_1_1RawInstallablesCommand.html" target="_top" xlink:title=" ">
<polygon fill="white" stroke="#666666" points="1008.25,-196.75 843.75,-196.75 843.75,-176 1008.25,-176 1008.25,-196.75"/>
<text text-anchor="middle" x="926" y="-183.25" font-family="Helvetica,sans-Serif" font-size="10.00">nix::RawInstallablesCommand</text>
</a>
</g>
</g>
<!-- Node1&#45;&gt;Node23 -->
<g id="edge26_Node000001_Node000023" class="edge">
<title>Node1&#45;&gt;Node23</title>
<g id="a_edge26_Node000001_Node000023"><a xlink:title=" ">
<path fill="none" stroke="#63b8ff" d="M754.84,-379.93C793.29,-336.19 885.58,-231.22 915.48,-197.21"/>
<polygon fill="#63b8ff" stroke="#63b8ff" points="752.27,-377.56 748.29,-387.38 757.52,-382.18 752.27,-377.56"/>
</a>
</g>
</g>
<!-- Node2 -->
<g id="Node000002" class="node">
<title>Node2</title>
<g id="a_Node000002"><a xlink:href="classnix_1_1Args.html" target="_top" xlink:title=" ">
<polygon fill="white" stroke="#bfbfbf" points="58.75,-352.75 0,-352.75 0,-332 58.75,-332 58.75,-352.75"/>
<text text-anchor="middle" x="29.38" y="-339.25" font-family="Helvetica,sans-Serif" font-size="10.00">nix::Args</text>
</a>
</g>
</g>
<!-- Node2&#45;&gt;Node1 -->
<g id="edge1_Node000001_Node000002" class="edge">
<title>Node2&#45;&gt;Node1</title>
<g id="a_edge1_Node000001_Node000002"><a xlink:title=" ">
<path fill="none" stroke="#63b8ff" d="M54.41,-359.63C66.1,-367.3 80.64,-375.83 94.75,-381.38 170.21,-411.03 192.3,-418.38 273.38,-418.38 273.38,-418.38 273.38,-418.38 421.88,-418.38 505.67,-418.38 601.83,-411.54 665.39,-406.07"/>
<polygon fill="#63b8ff" stroke="#63b8ff" points="56.45,-356.79 46.21,-354.06 52.52,-362.58 56.45,-356.79"/>
</a>
</g>
</g>
<!-- Node3 -->
<g id="Node000003" class="node">
<title>Node3</title>
<g id="a_Node000003"><a xlink:href="structnix_1_1MixFlakeOptions.html" target="_top" xlink:title=" ">
<polygon fill="white" stroke="#666666" points="629.75,-390.75 511,-390.75 511,-370 629.75,-370 629.75,-390.75"/>
<text text-anchor="middle" x="570.38" y="-377.25" font-family="Helvetica,sans-Serif" font-size="10.00">nix::MixFlakeOptions</text>
</a>
</g>
</g>
<!-- Node2&#45;&gt;Node3 -->
<g id="edge3_Node000003_Node000002" class="edge">
<title>Node2&#45;&gt;Node3</title>
<g id="a_edge3_Node000003_Node000002"><a xlink:title=" ">
<path fill="none" stroke="#63b8ff" d="M70.19,-355.79C78.24,-358.02 86.7,-360.05 94.75,-361.38 243.04,-385.84 420.74,-385.1 510.82,-382.64"/>
<polygon fill="#63b8ff" stroke="#63b8ff" points="71.22,-352.44 60.63,-352.96 69.23,-359.15 71.22,-352.44"/>
</a>
</g>
</g>
<!-- Node6 -->
<g id="Node000006" class="node">
<title>Node6</title>
<g id="a_Node000006"><a xlink:href="structnix_1_1Command.html" target="_top" xlink:title=" ">
<polygon fill="white" stroke="#666666" points="182,-352.75 94.75,-352.75 94.75,-332 182,-332 182,-352.75"/>
<text text-anchor="middle" x="138.38" y="-339.25" font-family="Helvetica,sans-Serif" font-size="10.00">nix::Command</text>
</a>
</g>
</g>
<!-- Node2&#45;&gt;Node6 -->
<g id="edge7_Node000006_Node000002" class="edge">
<title>Node2&#45;&gt;Node6</title>
<g id="a_edge7_Node000006_Node000002"><a xlink:title=" ">
<path fill="none" stroke="#63b8ff" d="M70.53,-342.38C78.37,-342.38 86.61,-342.38 94.53,-342.38"/>
<polygon fill="#63b8ff" stroke="#63b8ff" points="70.56,-338.88 60.56,-342.38 70.56,-345.88 70.56,-338.88"/>
</a>
</g>
</g>
<!-- Node7 -->
<g id="Node000007" class="node">
<title>Node7</title>
<g id="a_Node000007"><a xlink:href="structnix_1_1MixEvalArgs.html" target="_top" xlink:title=" ">
<polygon fill="white" stroke="#bfbfbf" points="323.25,-313.75 225.5,-313.75 225.5,-293 323.25,-293 323.25,-313.75"/>
<text text-anchor="middle" x="274.38" y="-300.25" font-family="Helvetica,sans-Serif" font-size="10.00">nix::MixEvalArgs</text>
</a>
</g>
</g>
<!-- Node2&#45;&gt;Node7 -->
<g id="edge9_Node000007_Node000002" class="edge">
<title>Node2&#45;&gt;Node7</title>
<g id="a_edge9_Node000007_Node000002"><a xlink:title=" ">
<path fill="none" stroke="#63b8ff" d="M69.76,-329.56C77.96,-327.23 86.58,-325.02 94.75,-323.38 138.49,-314.54 189.1,-309.34 225.26,-306.46"/>
<polygon fill="#63b8ff" stroke="#63b8ff" points="68.99,-326.14 60.4,-332.34 70.98,-332.85 68.99,-326.14"/>
</a>
</g>
</g>
<!-- Node8 -->
<g id="Node000008" class="node">
<title>Node8</title>
<g id="a_Node000008"><a xlink:href="structnix_1_1MixRepair.html" target="_top" xlink:title=" ">
<polygon fill="white" stroke="#bfbfbf" points="181.62,-276.75 95.12,-276.75 95.12,-256 181.62,-256 181.62,-276.75"/>
<text text-anchor="middle" x="138.38" y="-263.25" font-family="Helvetica,sans-Serif" font-size="10.00">nix::MixRepair</text>
</a>
</g>
</g>
<!-- Node2&#45;&gt;Node8 -->
<g id="edge11_Node000008_Node000002" class="edge">
<title>Node2&#45;&gt;Node8</title>
<g id="a_edge11_Node000008_Node000002"><a xlink:title=" ">
<path fill="none" stroke="#63b8ff" d="M50.84,-324.39C63.16,-313.92 79.4,-300.79 94.75,-290.38 101.64,-285.7 109.5,-281.09 116.58,-277.18"/>
<polygon fill="#63b8ff" stroke="#63b8ff" points="48.69,-321.61 43.4,-330.79 53.26,-326.92 48.69,-321.61"/>
</a>
</g>
</g>
<!-- Node3&#45;&gt;Node1 -->
<g id="edge2_Node000001_Node000003" class="edge">
<title>Node3&#45;&gt;Node1</title>
<g id="a_edge2_Node000001_Node000003"><a xlink:title=" ">
<path fill="none" stroke="#63b8ff" d="M641.05,-388.43C649.12,-389.36 657.35,-390.31 665.42,-391.25"/>
<polygon fill="#63b8ff" stroke="#63b8ff" points="641.63,-384.97 631.29,-387.3 640.83,-391.93 641.63,-384.97"/>
</a>
</g>
</g>
<!-- Node4 -->
<g id="Node000004" class="node">
<title>Node4</title>
<g id="a_Node000004"><a xlink:href="structnix_1_1EvalCommand.html" target="_top" xlink:title=" ">
<polygon fill="white" stroke="#666666" points="475,-352.75 366.75,-352.75 366.75,-332 475,-332 475,-352.75"/>
<text text-anchor="middle" x="420.88" y="-339.25" font-family="Helvetica,sans-Serif" font-size="10.00">nix::EvalCommand</text>
</a>
</g>
</g>
<!-- Node4&#45;&gt;Node3 -->
<g id="edge4_Node000003_Node000004" class="edge">
<title>Node4&#45;&gt;Node3</title>
<g id="a_edge4_Node000003_Node000004"><a xlink:title=" ">
<path fill="none" stroke="#63b8ff" d="M474.82,-356.01C492.1,-360.47 511.04,-365.35 527.4,-369.56"/>
<polygon fill="#63b8ff" stroke="#63b8ff" points="475.77,-352.65 465.21,-353.54 474.02,-359.42 475.77,-352.65"/>
</a>
</g>
</g>
<!-- Node5 -->
<g id="Node000005" class="node">
<title>Node5</title>
<g id="a_Node000005"><a xlink:href="structnix_1_1StoreCommand.html" target="_top" xlink:title=" ">
<polygon fill="white" stroke="#666666" points="330.75,-352.75 218,-352.75 218,-332 330.75,-332 330.75,-352.75"/>
<text text-anchor="middle" x="274.38" y="-339.25" font-family="Helvetica,sans-Serif" font-size="10.00">nix::StoreCommand</text>
</a>
</g>
</g>
<!-- Node5&#45;&gt;Node4 -->
<g id="edge5_Node000004_Node000005" class="edge">
<title>Node5&#45;&gt;Node4</title>
<g id="a_edge5_Node000004_Node000005"><a xlink:title=" ">
<path fill="none" stroke="#63b8ff" d="M342.53,-342.38C350.58,-342.38 358.71,-342.38 366.53,-342.38"/>
<polygon fill="#63b8ff" stroke="#63b8ff" points="342.76,-338.88 332.76,-342.38 342.76,-345.88 342.76,-338.88"/>
</a>
</g>
</g>
<!-- Node6&#45;&gt;Node5 -->
<g id="edge6_Node000005_Node000006" class="edge">
<title>Node6&#45;&gt;Node5</title>
<g id="a_edge6_Node000005_Node000006"><a xlink:title=" ">
<path fill="none" stroke="#63b8ff" d="M193.59,-342.38C201.57,-342.38 209.79,-342.38 217.79,-342.38"/>
<polygon fill="#63b8ff" stroke="#63b8ff" points="193.66,-338.88 183.66,-342.38 193.66,-345.88 193.66,-338.88"/>
</a>
</g>
</g>
<!-- Node7&#45;&gt;Node4 -->
<g id="edge8_Node000004_Node000007" class="edge">
<title>Node7&#45;&gt;Node4</title>
<g id="a_edge8_Node000004_Node000007"><a xlink:title=" ">
<path fill="none" stroke="#63b8ff" d="M326.73,-317.24C344.09,-321.92 363.21,-327.08 379.59,-331.5"/>
<polygon fill="#63b8ff" stroke="#63b8ff" points="327.65,-313.86 317.09,-314.63 325.83,-320.62 327.65,-313.86"/>
</a>
</g>
</g>
<!-- Node8&#45;&gt;Node7 -->
<g id="edge10_Node000007_Node000008" class="edge">
<title>Node8&#45;&gt;Node7</title>
<g id="a_edge10_Node000007_Node000008"><a xlink:title=" ">
<path fill="none" stroke="#63b8ff" d="M189.56,-280.23C204.4,-284.33 220.42,-288.75 234.44,-292.62"/>
<polygon fill="#63b8ff" stroke="#63b8ff" points="190.52,-276.87 179.95,-277.58 188.66,-283.61 190.52,-276.87"/>
</a>
</g>
</g>
<!-- Node14 -->
<g id="Node000014" class="node">
<title>Node14</title>
<g id="a_Node000014"><a xlink:href="structnix_1_1CmdBundle.html" target="_top" xlink:title=" ">
<polygon fill="white" stroke="#bfbfbf" points="1162.62,-488.75 1069.38,-488.75 1069.38,-468 1162.62,-468 1162.62,-488.75"/>
<text text-anchor="middle" x="1116" y="-475.25" font-family="Helvetica,sans-Serif" font-size="10.00">nix::CmdBundle</text>
</a>
</g>
</g>
<!-- Node13&#45;&gt;Node14 -->
<g id="edge17_Node000013_Node000014" class="edge">
<title>Node13&#45;&gt;Node14</title>
<g id="a_edge17_Node000013_Node000014"><a xlink:title=" ">
<path fill="none" stroke="#63b8ff" d="M1004.23,-358.12C1005.62,-359.14 1006.96,-360.23 1008.25,-361.38 1042.57,-391.99 1010.46,-427.18 1044.25,-458.38 1051.19,-464.78 1060.03,-469.16 1069.09,-472.14"/>
<polygon fill="#63b8ff" stroke="#63b8ff" points="1006.11,-355.16 995.74,-352.97 1002.48,-361.15 1006.11,-355.16"/>
</a>
</g>
</g>
<!-- Node15 -->
<g id="Node000015" class="node">
<title>Node15</title>
<g id="a_Node000015"><a xlink:href="structnix_1_1CmdEdit.html" target="_top" xlink:title=" ">
<polygon fill="white" stroke="#bfbfbf" points="1155.12,-449.75 1076.88,-449.75 1076.88,-429 1155.12,-429 1155.12,-449.75"/>
<text text-anchor="middle" x="1116" y="-436.25" font-family="Helvetica,sans-Serif" font-size="10.00">nix::CmdEdit</text>
</a>
</g>
</g>
<!-- Node13&#45;&gt;Node15 -->
<g id="edge18_Node000013_Node000015" class="edge">
<title>Node13&#45;&gt;Node15</title>
<g id="a_edge18_Node000013_Node000015"><a xlink:title=" ">
<path fill="none" stroke="#63b8ff" d="M1001.82,-357.22C1004.05,-358.5 1006.2,-359.88 1008.25,-361.38 1032.8,-379.21 1020.01,-401.13 1044.25,-419.38 1053.63,-426.44 1065.41,-431.01 1076.64,-433.96"/>
<polygon fill="#63b8ff" stroke="#63b8ff" points="1003.53,-354.16 993.01,-352.91 1000.45,-360.45 1003.53,-354.16"/>
</a>
</g>
</g>
<!-- Node16 -->
<g id="Node000016" class="node">
<title>Node16</title>
<g id="a_Node000016"><a xlink:href="structnix_1_1CmdEval.html" target="_top" xlink:title=" ">
<polygon fill="white" stroke="#bfbfbf" points="1156.25,-410.75 1075.75,-410.75 1075.75,-390 1156.25,-390 1156.25,-410.75"/>
<text text-anchor="middle" x="1116" y="-397.25" font-family="Helvetica,sans-Serif" font-size="10.00">nix::CmdEval</text>
</a>
</g>
</g>
<!-- Node13&#45;&gt;Node16 -->
<g id="edge19_Node000013_Node000016" class="edge">
<title>Node13&#45;&gt;Node16</title>
<g id="a_edge19_Node000013_Node000016"><a xlink:title=" ">
<path fill="none" stroke="#63b8ff" d="M990.23,-355.32C996.39,-357.16 1002.48,-359.18 1008.25,-361.38 1025.16,-367.81 1027.45,-373.66 1044.25,-380.38 1054.2,-384.36 1065.24,-387.88 1075.58,-390.82"/>
<polygon fill="#63b8ff" stroke="#63b8ff" points="991.19,-351.96 980.62,-352.62 989.29,-358.7 991.19,-351.96"/>
</a>
</g>
</g>
<!-- Node17 -->
<g id="Node000017" class="node">
<title>Node17</title>
<g id="a_Node000017"><a xlink:href="structnix_1_1CmdLog.html" target="_top" xlink:title=" ">
<polygon fill="white" stroke="#bfbfbf" points="1154.38,-371.75 1077.62,-371.75 1077.62,-351 1154.38,-351 1154.38,-371.75"/>
<text text-anchor="middle" x="1116" y="-358.25" font-family="Helvetica,sans-Serif" font-size="10.00">nix::CmdLog</text>
</a>
</g>
</g>
<!-- Node13&#45;&gt;Node17 -->
<g id="edge20_Node000013_Node000017" class="edge">
<title>Node13&#45;&gt;Node17</title>
<g id="a_edge20_Node000013_Node000017"><a xlink:title=" ">
<path fill="none" stroke="#63b8ff" d="M1006.55,-349.84C1031.07,-352.45 1056.93,-355.2 1077.25,-357.36"/>
<polygon fill="#63b8ff" stroke="#63b8ff" points="1007.22,-346.39 996.91,-348.81 1006.48,-353.35 1007.22,-346.39"/>
</a>
</g>
</g>
<!-- Node18 -->
<g id="Node000018" class="node">
<title>Node18</title>
<g id="a_Node000018"><a xlink:href="structnix_1_1CmdRun.html" target="_top" xlink:title=" ">
<polygon fill="white" stroke="#bfbfbf" points="1155.12,-332.75 1076.88,-332.75 1076.88,-312 1155.12,-312 1155.12,-332.75"/>
<text text-anchor="middle" x="1116" y="-319.25" font-family="Helvetica,sans-Serif" font-size="10.00">nix::CmdRun</text>
</a>
</g>
</g>
<!-- Node13&#45;&gt;Node18 -->
<g id="edge21_Node000013_Node000018" class="edge">
<title>Node13&#45;&gt;Node18</title>
<g id="a_edge21_Node000013_Node000018"><a xlink:title=" ">
<path fill="none" stroke="#63b8ff" d="M1006.75,-333.32C1030.88,-330.88 1056.3,-328.31 1076.44,-326.27"/>
<polygon fill="#63b8ff" stroke="#63b8ff" points="1006.51,-329.82 996.91,-334.31 1007.21,-336.79 1006.51,-329.82"/>
</a>
</g>
</g>
<!-- Node19 -->
<g id="Node000019" class="node">
<title>Node19</title>
<g id="a_Node000019"><a xlink:href="structnix_1_1CmdSearch.html" target="_top" xlink:title=" ">
<polygon fill="white" stroke="#bfbfbf" points="1162.25,-293.75 1069.75,-293.75 1069.75,-273 1162.25,-273 1162.25,-293.75"/>
<text text-anchor="middle" x="1116" y="-280.25" font-family="Helvetica,sans-Serif" font-size="10.00">nix::CmdSearch</text>
</a>
</g>
</g>
<!-- Node13&#45;&gt;Node19 -->
<g id="edge22_Node000013_Node000019" class="edge">
<title>Node13&#45;&gt;Node19</title>
<g id="a_edge22_Node000013_Node000019"><a xlink:title=" ">
<path fill="none" stroke="#63b8ff" d="M969.97,-327.02C992.1,-319.73 1019.55,-310.87 1044.25,-303.38 1054.39,-300.3 1065.39,-297.12 1075.63,-294.22"/>
<polygon fill="#63b8ff" stroke="#63b8ff" points="969.08,-323.63 960.68,-330.09 971.28,-330.27 969.08,-323.63"/>
</a>
</g>
</g>
<!-- Node20 -->
<g id="Node000020" class="node">
<title>Node20</title>
<g id="a_Node000020"><a xlink:href="structnix_1_1Common.html" target="_top" xlink:title=" ">
<polygon fill="white" stroke="#bfbfbf" points="1156.62,-254.75 1075.38,-254.75 1075.38,-234 1156.62,-234 1156.62,-254.75"/>
<text text-anchor="middle" x="1116" y="-241.25" font-family="Helvetica,sans-Serif" font-size="10.00">nix::Common</text>
</a>
</g>
</g>
<!-- Node13&#45;&gt;Node20 -->
<g id="edge23_Node000013_Node000020" class="edge">
<title>Node13&#45;&gt;Node20</title>
<g id="a_edge23_Node000013_Node000020"><a xlink:title=" ">
<path fill="none" stroke="#63b8ff" d="M949.09,-323.88C971.81,-306.63 1008.78,-280.57 1044.25,-264.38 1053.89,-259.97 1064.71,-256.33 1074.94,-253.4"/>
<polygon fill="#63b8ff" stroke="#63b8ff" points="947.26,-320.88 941.47,-329.75 951.53,-326.42 947.26,-320.88"/>
</a>
</g>
</g>
<!-- Node21 -->
<g id="Node000021" class="node">
<title>Node21</title>
<g id="a_Node000021"><a xlink:href="structnix_1_1CmdDevelop.html" target="_top" xlink:title=" ">
<polygon fill="white" stroke="#bfbfbf" points="1342.12,-293.75 1242.12,-293.75 1242.12,-273 1342.12,-273 1342.12,-293.75"/>
<text text-anchor="middle" x="1292.12" y="-280.25" font-family="Helvetica,sans-Serif" font-size="10.00">nix::CmdDevelop</text>
</a>
</g>
</g>
<!-- Node20&#45;&gt;Node21 -->
<g id="edge24_Node000020_Node000021" class="edge">
<title>Node20&#45;&gt;Node21</title>
<g id="a_edge24_Node000020_Node000021"><a xlink:title=" ">
<path fill="none" stroke="#63b8ff" d="M1168.13,-255.83C1191.67,-261.1 1219.47,-267.33 1242.68,-272.52"/>
<polygon fill="#63b8ff" stroke="#63b8ff" points="1168.95,-252.42 1158.42,-253.65 1167.42,-259.25 1168.95,-252.42"/>
</a>
</g>
</g>
<!-- Node22 -->
<g id="Node000022" class="node">
<title>Node22</title>
<g id="a_Node000022"><a xlink:href="structnix_1_1CmdPrintDevEnv.html" target="_top" xlink:title=" ">
<polygon fill="white" stroke="#bfbfbf" points="1351.88,-254.75 1232.38,-254.75 1232.38,-234 1351.88,-234 1351.88,-254.75"/>
<text text-anchor="middle" x="1292.12" y="-241.25" font-family="Helvetica,sans-Serif" font-size="10.00">nix::CmdPrintDevEnv</text>
</a>
</g>
</g>
<!-- Node20&#45;&gt;Node22 -->
<g id="edge25_Node000020_Node000022" class="edge">
<title>Node20&#45;&gt;Node22</title>
<g id="a_edge25_Node000020_Node000022"><a xlink:title=" ">
<path fill="none" stroke="#63b8ff" d="M1168.35,-244.38C1188.39,-244.38 1211.49,-244.38 1232.2,-244.38"/>
<polygon fill="#63b8ff" stroke="#63b8ff" points="1168.46,-240.88 1158.46,-244.38 1168.46,-247.88 1168.46,-240.88"/>
</a>
</g>
</g>
<!-- Node24 -->
<g id="Node000024" class="node">
<title>Node24</title>
<g id="a_Node000024"><a xlink:href="structnix_1_1CmdRepl.html" target="_top" xlink:title=" ">
<polygon fill="white" stroke="#bfbfbf" points="1156.62,-196.75 1075.38,-196.75 1075.38,-176 1156.62,-176 1156.62,-196.75"/>
<text text-anchor="middle" x="1116" y="-183.25" font-family="Helvetica,sans-Serif" font-size="10.00">nix::CmdRepl</text>
</a>
</g>
</g>
<!-- Node23&#45;&gt;Node24 -->
<g id="edge27_Node000023_Node000024" class="edge">
<title>Node23&#45;&gt;Node24</title>
<g id="a_edge27_Node000023_Node000024"><a xlink:title=" ">
<path fill="none" stroke="#63b8ff" d="M1020.01,-186.38C1039.38,-186.38 1058.8,-186.38 1074.99,-186.38"/>
<polygon fill="#63b8ff" stroke="#63b8ff" points="1020.15,-182.88 1010.15,-186.38 1020.15,-189.88 1020.15,-182.88"/>
</a>
</g>
</g>
<!-- Node25 -->
<g id="Node000025" class="node">
<title>Node25</title>
<g id="a_Node000025"><a xlink:href="structnix_1_1InstallablesCommand.html" target="_top" xlink:title=" ">
<polygon fill="white" stroke="#666666" points="1187.75,-137.75 1044.25,-137.75 1044.25,-117 1187.75,-117 1187.75,-137.75"/>
<text text-anchor="middle" x="1116" y="-124.25" font-family="Helvetica,sans-Serif" font-size="10.00">nix::InstallablesCommand</text>
</a>
</g>
</g>
<!-- Node23&#45;&gt;Node25 -->
<g id="edge28_Node000023_Node000025" class="edge">
<title>Node23&#45;&gt;Node25</title>
<g id="a_edge28_Node000023_Node000025"><a xlink:title=" ">
<path fill="none" stroke="#63b8ff" d="M972.29,-172.16C1005.53,-161.73 1050.01,-147.77 1080.42,-138.23"/>
<polygon fill="#63b8ff" stroke="#63b8ff" points="971.42,-168.77 962.93,-175.1 973.52,-175.45 971.42,-168.77"/>
</a>
</g>
</g>
<!-- Node26 -->
<g id="Node000026" class="node">
<title>Node26</title>
<g id="a_Node000026"><a xlink:href="structnix_1_1BuiltPathsCommand.html" target="_top" xlink:title=" ">
<polygon fill="white" stroke="#666666" points="1360.12,-215.75 1224.12,-215.75 1224.12,-195 1360.12,-195 1360.12,-215.75"/>
<text text-anchor="middle" x="1292.12" y="-202.25" font-family="Helvetica,sans-Serif" font-size="10.00">nix::BuiltPathsCommand</text>
</a>
</g>
</g>
<!-- Node25&#45;&gt;Node26 -->
<g id="edge29_Node000025_Node000026" class="edge">
<title>Node25&#45;&gt;Node26</title>
<g id="a_edge29_Node000025_Node000026"><a xlink:title=" ">
<path fill="none" stroke="#63b8ff" d="M1145.61,-143.8C1171.71,-158.62 1208.44,-179.03 1223.75,-185.38 1231.98,-188.79 1240.99,-191.88 1249.67,-194.56"/>
<polygon fill="#63b8ff" stroke="#63b8ff" points="1147.6,-140.9 1137.18,-138.99 1144.13,-146.99 1147.6,-140.9"/>
</a>
</g>
</g>
<!-- Node39 -->
<g id="Node000039" class="node">
<title>Node39</title>
<g id="a_Node000039"><a xlink:href="structnix_1_1CmdBuild.html" target="_top" xlink:title=" ">
<polygon fill="white" stroke="#bfbfbf" points="1334.25,-176.75 1250,-176.75 1250,-156 1334.25,-156 1334.25,-176.75"/>
<text text-anchor="middle" x="1292.12" y="-163.25" font-family="Helvetica,sans-Serif" font-size="10.00">nix::CmdBuild</text>
</a>
</g>
</g>
<!-- Node25&#45;&gt;Node39 -->
<g id="edge42_Node000025_Node000039" class="edge">
<title>Node25&#45;&gt;Node39</title>
<g id="a_edge42_Node000025_Node000039"><a xlink:title=" ">
<path fill="none" stroke="#63b8ff" d="M1176.66,-140.74C1200.7,-146.12 1227.85,-152.2 1249.67,-157.09"/>
<polygon fill="#63b8ff" stroke="#63b8ff" points="1177.5,-137.34 1166.98,-138.57 1175.97,-144.17 1177.5,-137.34"/>
</a>
</g>
</g>
<!-- Node40 -->
<g id="Node000040" class="node">
<title>Node40</title>
<g id="a_Node000040"><a xlink:href="structnix_1_1CmdCopyLog.html" target="_top" xlink:title=" ">
<polygon fill="white" stroke="#bfbfbf" points="1342.88,-137.75 1241.38,-137.75 1241.38,-117 1342.88,-117 1342.88,-137.75"/>
<text text-anchor="middle" x="1292.12" y="-124.25" font-family="Helvetica,sans-Serif" font-size="10.00">nix::CmdCopyLog</text>
</a>
</g>
</g>
<!-- Node25&#45;&gt;Node40 -->
<g id="edge43_Node000025_Node000040" class="edge">
<title>Node25&#45;&gt;Node40</title>
<g id="a_edge43_Node000025_Node000040"><a xlink:title=" ">
<path fill="none" stroke="#63b8ff" d="M1199.42,-127.38C1213.64,-127.38 1228.02,-127.38 1241.05,-127.38"/>
<polygon fill="#63b8ff" stroke="#63b8ff" points="1199.59,-123.88 1189.59,-127.38 1199.59,-130.88 1199.59,-123.88"/>
</a>
</g>
</g>
<!-- Node41 -->
<g id="Node000041" class="node">
<title>Node41</title>
<g id="a_Node000041"><a xlink:href="structnix_1_1CmdProfileInstall.html" target="_top" xlink:title=" ">
<polygon fill="white" stroke="#bfbfbf" points="1352.25,-98.75 1232,-98.75 1232,-78 1352.25,-78 1352.25,-98.75"/>
<text text-anchor="middle" x="1292.12" y="-85.25" font-family="Helvetica,sans-Serif" font-size="10.00">nix::CmdProfileInstall</text>
</a>
</g>
</g>
<!-- Node25&#45;&gt;Node41 -->
<g id="edge44_Node000025_Node000041" class="edge">
<title>Node25&#45;&gt;Node41</title>
<g id="a_edge44_Node000025_Node000041"><a xlink:title=" ">
<path fill="none" stroke="#63b8ff" d="M1176.51,-114.05C1198.05,-109.22 1222.09,-103.84 1242.58,-99.25"/>
<polygon fill="#63b8ff" stroke="#63b8ff" points="1175.97,-110.58 1166.98,-116.18 1177.5,-117.41 1175.97,-110.58"/>
</a>
</g>
</g>
<!-- Node42 -->
<g id="Node000042" class="node">
<title>Node42</title>
<g id="a_Node000042"><a xlink:href="structnix_1_1CmdShell.html" target="_top" xlink:title=" ">
<polygon fill="white" stroke="#bfbfbf" points="1333.88,-59.75 1250.38,-59.75 1250.38,-39 1333.88,-39 1333.88,-59.75"/>
<text text-anchor="middle" x="1292.12" y="-46.25" font-family="Helvetica,sans-Serif" font-size="10.00">nix::CmdShell</text>
</a>
</g>
</g>
<!-- Node25&#45;&gt;Node42 -->
<g id="edge45_Node000025_Node000042" class="edge">
<title>Node25&#45;&gt;Node42</title>
<g id="a_edge45_Node000025_Node000042"><a xlink:title=" ">
<path fill="none" stroke="#63b8ff" d="M1143.77,-110.79C1164.91,-98.2 1195.45,-81.11 1223.75,-69.38 1232.09,-65.92 1241.24,-62.79 1250.03,-60.08"/>
<polygon fill="#63b8ff" stroke="#63b8ff" points="1142.25,-107.62 1135.49,-115.78 1145.86,-113.61 1142.25,-107.62"/>
</a>
</g>
</g>
<!-- Node43 -->
<g id="Node000043" class="node">
<title>Node43</title>
<g id="a_Node000043"><a xlink:href="structnix_1_1CmdShowDerivation.html" target="_top" xlink:title=" ">
<polygon fill="white" stroke="#bfbfbf" points="1360.5,-20.75 1223.75,-20.75 1223.75,0 1360.5,0 1360.5,-20.75"/>
<text text-anchor="middle" x="1292.12" y="-7.25" font-family="Helvetica,sans-Serif" font-size="10.00">nix::CmdShowDerivation</text>
</a>
</g>
</g>
<!-- Node25&#45;&gt;Node43 -->
<g id="edge46_Node000025_Node000043" class="edge">
<title>Node25&#45;&gt;Node43</title>
<g id="a_edge46_Node000025_Node000043"><a xlink:title=" ">
<path fill="none" stroke="#63b8ff" d="M1133.18,-108.19C1152.58,-86.35 1187.1,-51.02 1223.75,-30.38 1230.23,-26.72 1237.45,-23.67 1244.69,-21.15"/>
<polygon fill="#63b8ff" stroke="#63b8ff" points="1130.74,-105.66 1126.82,-115.5 1136.02,-110.25 1130.74,-105.66"/>
</a>
</g>
</g>
<!-- Node27 -->
<g id="Node000027" class="node">
<title>Node27</title>
<g id="a_Node000027"><a xlink:href="structnix_1_1CmdCopy.html" target="_top" xlink:title=" ">
<polygon fill="white" stroke="#bfbfbf" points="1508.12,-254.75 1423.88,-254.75 1423.88,-234 1508.12,-234 1508.12,-254.75"/>
<text text-anchor="middle" x="1466" y="-241.25" font-family="Helvetica,sans-Serif" font-size="10.00">nix::CmdCopy</text>
</a>
</g>
</g>
<!-- Node26&#45;&gt;Node27 -->
<g id="edge30_Node000026_Node000027" class="edge">
<title>Node26&#45;&gt;Node27</title>
<g id="a_edge30_Node000026_Node000027"><a xlink:title=" ">
<path fill="none" stroke="#63b8ff" d="M1351.93,-218.72C1375.47,-224.06 1402.04,-230.09 1423.51,-234.96"/>
<polygon fill="#63b8ff" stroke="#63b8ff" points="1353,-215.37 1342.48,-216.57 1351.46,-222.2 1353,-215.37"/>
</a>
</g>
</g>
<!-- Node28 -->
<g id="Node000028" class="node">
<title>Node28</title>
<g id="a_Node000028"><a xlink:href="structnix_1_1CmdRealisationInfo.html" target="_top" xlink:title=" ">
<polygon fill="white" stroke="#bfbfbf" points="1532.5,-215.75 1399.5,-215.75 1399.5,-195 1532.5,-195 1532.5,-215.75"/>
<text text-anchor="middle" x="1466" y="-202.25" font-family="Helvetica,sans-Serif" font-size="10.00">nix::CmdRealisationInfo</text>
</a>
</g>
</g>
<!-- Node26&#45;&gt;Node28 -->
<g id="edge31_Node000026_Node000028" class="edge">
<title>Node26&#45;&gt;Node28</title>
<g id="a_edge31_Node000026_Node000028"><a xlink:title=" ">
<path fill="none" stroke="#63b8ff" d="M1371.99,-205.38C1381.08,-205.38 1390.27,-205.38 1399.17,-205.38"/>
<polygon fill="#63b8ff" stroke="#63b8ff" points="1372.07,-201.88 1362.07,-205.38 1372.07,-208.88 1372.07,-201.88"/>
</a>
</g>
</g>
<!-- Node29 -->
<g id="Node000029" class="node">
<title>Node29</title>
<g id="a_Node000029"><a xlink:href="structnix_1_1StorePathsCommand.html" target="_top" xlink:title=" ">
<polygon fill="white" stroke="#bfbfbf" points="1535.5,-176.75 1396.5,-176.75 1396.5,-156 1535.5,-156 1535.5,-176.75"/>
<text text-anchor="middle" x="1466" y="-163.25" font-family="Helvetica,sans-Serif" font-size="10.00">nix::StorePathsCommand</text>
</a>
</g>
</g>
<!-- Node26&#45;&gt;Node29 -->
<g id="edge32_Node000026_Node000029" class="edge">
<title>Node26&#45;&gt;Node29</title>
<g id="a_edge32_Node000026_Node000029"><a xlink:title=" ">
<path fill="none" stroke="#63b8ff" d="M1352.16,-191.98C1373.34,-187.17 1396.95,-181.82 1417.08,-177.25"/>
<polygon fill="#63b8ff" stroke="#63b8ff" points="1351.46,-188.55 1342.48,-194.18 1353,-195.38 1351.46,-188.55"/>
</a>
</g>
</g>
<!-- Node30 -->
<g id="Node000030" class="node">
<title>Node30</title>
<g id="a_Node000030"><a xlink:href="structnix_1_1CmdCopySigs.html" target="_top" xlink:title=" ">
<polygon fill="white" stroke="#bfbfbf" points="1711.25,-313.75 1606.75,-313.75 1606.75,-293 1711.25,-293 1711.25,-313.75"/>
<text text-anchor="middle" x="1659" y="-300.25" font-family="Helvetica,sans-Serif" font-size="10.00">nix::CmdCopySigs</text>
</a>
</g>
</g>
<!-- Node29&#45;&gt;Node30 -->
<g id="edge33_Node000029_Node000030" class="edge">
<title>Node29&#45;&gt;Node30</title>
<g id="a_edge33_Node000029_Node000030"><a xlink:title=" ">
<path fill="none" stroke="#63b8ff" d="M1531.58,-183.09C1532.94,-184.12 1534.25,-185.21 1535.5,-186.38 1569.15,-217.71 1536.97,-253.01 1571.5,-283.38 1581.22,-291.93 1593.88,-297.02 1606.49,-300"/>
<polygon fill="#63b8ff" stroke="#63b8ff" points="1533.56,-180.2 1523.21,-177.95 1529.9,-186.17 1533.56,-180.2"/>
</a>
</g>
</g>
<!-- Node31 -->
<g id="Node000031" class="node">
<title>Node31</title>
<g id="a_Node000031"><a xlink:href="structnix_1_1CmdMakeContentAddressed.html" target="_top" xlink:title=" ">
<polygon fill="white" stroke="#bfbfbf" points="1746.5,-274.75 1571.5,-274.75 1571.5,-254 1746.5,-254 1746.5,-274.75"/>
<text text-anchor="middle" x="1659" y="-261.25" font-family="Helvetica,sans-Serif" font-size="10.00">nix::CmdMakeContentAddressed</text>
</a>
</g>
</g>
<!-- Node29&#45;&gt;Node31 -->
<g id="edge34_Node000029_Node000031" class="edge">
<title>Node29&#45;&gt;Node31</title>
<g id="a_edge34_Node000029_Node000031"><a xlink:title=" ">
<path fill="none" stroke="#63b8ff" d="M1529.18,-182.15C1531.38,-183.45 1533.5,-184.85 1535.5,-186.38 1559.66,-204.73 1546.83,-226.72 1571.5,-244.38 1576.64,-248.05 1582.35,-251.07 1588.32,-253.53"/>
<polygon fill="#63b8ff" stroke="#63b8ff" points="1530.96,-179.13 1520.45,-177.78 1527.83,-185.39 1530.96,-179.13"/>
</a>
</g>
</g>
<!-- Node32 -->
<g id="Node000032" class="node">
<title>Node32</title>
<g id="a_Node000032"><a xlink:href="structnix_1_1CmdPathInfo.html" target="_top" xlink:title=" ">
<polygon fill="white" stroke="#bfbfbf" points="1708.62,-235.75 1609.38,-235.75 1609.38,-215 1708.62,-215 1708.62,-235.75"/>
<text text-anchor="middle" x="1659" y="-222.25" font-family="Helvetica,sans-Serif" font-size="10.00">nix::CmdPathInfo</text>
</a>
</g>
</g>
<!-- Node29&#45;&gt;Node32 -->
<g id="edge35_Node000029_Node000032" class="edge">
<title>Node29&#45;&gt;Node32</title>
<g id="a_edge35_Node000029_Node000032"><a xlink:title=" ">
<path fill="none" stroke="#63b8ff" d="M1519.97,-180.68C1525.27,-182.45 1530.52,-184.36 1535.5,-186.38 1552.27,-193.17 1554.55,-199.06 1571.5,-205.38 1583.49,-209.84 1596.8,-213.51 1609.31,-216.43"/>
<polygon fill="#63b8ff" stroke="#63b8ff" points="1521.15,-177.38 1510.56,-177.68 1519.02,-184.05 1521.15,-177.38"/>
</a>
</g>
</g>
<!-- Node33 -->
<g id="Node000033" class="node">
<title>Node33</title>
<g id="a_Node000033"><a xlink:href="structnix_1_1CmdSign.html" target="_top" xlink:title=" ">
<polygon fill="white" stroke="#bfbfbf" points="1699.25,-196.75 1618.75,-196.75 1618.75,-176 1699.25,-176 1699.25,-196.75"/>
<text text-anchor="middle" x="1659" y="-183.25" font-family="Helvetica,sans-Serif" font-size="10.00">nix::CmdSign</text>
</a>
</g>
</g>
<!-- Node29&#45;&gt;Node33 -->
<g id="edge36_Node000029_Node000033" class="edge">
<title>Node29&#45;&gt;Node33</title>
<g id="a_edge36_Node000029_Node000033"><a xlink:title=" ">
<path fill="none" stroke="#63b8ff" d="M1547.13,-174.77C1571.71,-177.34 1597.7,-180.06 1618.32,-182.22"/>
<polygon fill="#63b8ff" stroke="#63b8ff" points="1547.77,-171.31 1537.46,-173.75 1547.04,-178.28 1547.77,-171.31"/>
</a>
</g>
</g>
<!-- Node34 -->
<g id="Node000034" class="node">
<title>Node34</title>
<g id="a_Node000034"><a xlink:href="structnix_1_1CmdStoreDelete.html" target="_top" xlink:title=" ">
<polygon fill="white" stroke="#bfbfbf" points="1717.62,-157.75 1600.38,-157.75 1600.38,-137 1717.62,-137 1717.62,-157.75"/>
<text text-anchor="middle" x="1659" y="-144.25" font-family="Helvetica,sans-Serif" font-size="10.00">nix::CmdStoreDelete</text>
</a>
</g>
</g>
<!-- Node29&#45;&gt;Node34 -->
<g id="edge37_Node000029_Node000034" class="edge">
<title>Node29&#45;&gt;Node34</title>
<g id="a_edge37_Node000029_Node000034"><a xlink:title=" ">
<path fill="none" stroke="#63b8ff" d="M1547.2,-158.4C1564.98,-156.63 1583.48,-154.79 1600.16,-153.13"/>
<polygon fill="#63b8ff" stroke="#63b8ff" points="1547.07,-154.89 1537.46,-159.37 1547.76,-161.86 1547.07,-154.89"/>
</a>
</g>
</g>
<!-- Node35 -->
<g id="Node000035" class="node">
<title>Node35</title>
<g id="a_Node000035"><a xlink:href="structnix_1_1CmdStoreRepair.html" target="_top" xlink:title=" ">
<polygon fill="white" stroke="#bfbfbf" points="1717.25,-118.75 1600.75,-118.75 1600.75,-98 1717.25,-98 1717.25,-118.75"/>
<text text-anchor="middle" x="1659" y="-105.25" font-family="Helvetica,sans-Serif" font-size="10.00">nix::CmdStoreRepair</text>
</a>
</g>
</g>
<!-- Node29&#45;&gt;Node35 -->
<g id="edge38_Node000029_Node000035" class="edge">
<title>Node29&#45;&gt;Node35</title>
<g id="a_edge38_Node000029_Node000035"><a xlink:title=" ">
<path fill="none" stroke="#63b8ff" d="M1504.47,-151.5C1524.22,-143.98 1548.96,-135.05 1571.5,-128.38 1582.73,-125.05 1594.92,-121.93 1606.5,-119.2"/>
<polygon fill="#63b8ff" stroke="#63b8ff" points="1503.25,-148.22 1495.18,-155.08 1505.77,-154.75 1503.25,-148.22"/>
</a>
</g>
</g>
<!-- Node36 -->
<g id="Node000036" class="node">
<title>Node36</title>
<g id="a_Node000036"><a xlink:href="structnix_1_1CmdVerify.html" target="_top" xlink:title=" ">
<polygon fill="white" stroke="#bfbfbf" points="1702.62,-79.75 1615.38,-79.75 1615.38,-59 1702.62,-59 1702.62,-79.75"/>
<text text-anchor="middle" x="1659" y="-66.25" font-family="Helvetica,sans-Serif" font-size="10.00">nix::CmdVerify</text>
</a>
</g>
</g>
<!-- Node29&#45;&gt;Node36 -->
<g id="edge39_Node000029_Node000036" class="edge">
<title>Node29&#45;&gt;Node36</title>
<g id="a_edge39_Node000029_Node000036"><a xlink:title=" ">
<path fill="none" stroke="#63b8ff" d="M1486.68,-147.99C1506.58,-130.37 1538.98,-104.33 1571.5,-89.38 1585.08,-83.13 1600.79,-78.74 1615.06,-75.71"/>
<polygon fill="#63b8ff" stroke="#63b8ff" points="1484.4,-145.32 1479.33,-154.63 1489.1,-150.52 1484.4,-145.32"/>
</a>
</g>
</g>
<!-- Node37 -->
<g id="Node000037" class="node">
<title>Node37</title>
<g id="a_Node000037"><a xlink:href="structnix_1_1StorePathCommand.html" target="_top" xlink:title=" ">
<polygon fill="white" stroke="#666666" points="1725.88,-40.75 1592.12,-40.75 1592.12,-20 1725.88,-20 1725.88,-40.75"/>
<text text-anchor="middle" x="1659" y="-27.25" font-family="Helvetica,sans-Serif" font-size="10.00">nix::StorePathCommand</text>
</a>
</g>
</g>
<!-- Node29&#45;&gt;Node37 -->
<g id="edge40_Node000029_Node000037" class="edge">
<title>Node29&#45;&gt;Node37</title>
<g id="a_edge40_Node000029_Node000037"><a xlink:title=" ">
<path fill="none" stroke="#63b8ff" d="M1479.52,-146.07C1496.84,-119.77 1530.65,-74.44 1571.5,-50.38 1577.74,-46.7 1584.61,-43.7 1591.66,-41.25"/>
<polygon fill="#63b8ff" stroke="#63b8ff" points="1476.58,-144.17 1474.14,-154.48 1482.48,-147.94 1476.58,-144.17"/>
</a>
</g>
</g>
<!-- Node38 -->
<g id="Node000038" class="node">
<title>Node38</title>
<g id="a_Node000038"><a xlink:href="structnix_1_1CmdDumpPath.html" target="_top" xlink:title=" ">
<polygon fill="white" stroke="#bfbfbf" points="1892.25,-40.75 1782.5,-40.75 1782.5,-20 1892.25,-20 1892.25,-40.75"/>
<text text-anchor="middle" x="1837.38" y="-27.25" font-family="Helvetica,sans-Serif" font-size="10.00">nix::CmdDumpPath</text>
</a>
</g>
</g>
<!-- Node37&#45;&gt;Node38 -->
<g id="edge41_Node000037_Node000038" class="edge">
<title>Node37&#45;&gt;Node38</title>
<g id="a_edge41_Node000037_Node000038"><a xlink:title=" ">
<path fill="none" stroke="#63b8ff" d="M1737.58,-30.38C1752.63,-30.38 1768.1,-30.38 1782.2,-30.38"/>
<polygon fill="#63b8ff" stroke="#63b8ff" points="1737.69,-26.88 1727.69,-30.38 1737.69,-33.88 1737.69,-26.88"/>
</a>
</g>
</g>
</g>
</svg>
