<?xml version="1.0" encoding="UTF-8" standalone="no"?>
<!DOCTYPE svg PUBLIC "-//W3C//DTD SVG 1.1//EN"
 "http://www.w3.org/Graphics/SVG/1.1/DTD/svg11.dtd">
<!-- Generated by graphviz version 12.2.1 (0)
 -->
<!-- Title: nix::DerivationGoal Pages: 1 -->
<svg width="1055pt" height="686pt"
 viewBox="0.00 0.00 1054.75 685.64" xmlns="http://www.w3.org/2000/svg" xmlns:xlink="http://www.w3.org/1999/xlink">
<g id="graph0" class="graph" transform="scale(1 1) rotate(0) translate(4 681.64)">
<title>nix::DerivationGoal</title>
<!-- Node1 -->
<g id="Node000001" class="node">
<title>Node1</title>
<g id="a_Node000001"><a xlink:title=" ">
<polygon fill="#999999" stroke="#666666" points="1046.75,-142.75 936.25,-142.75 936.25,-122 1046.75,-122 1046.75,-142.75"/>
<text text-anchor="middle" x="991.5" y="-129.25" font-family="Helvetica,sans-Serif" font-size="10.00">nix::DerivationGoal</text>
</a>
</g>
</g>
<!-- Node2 -->
<g id="Node000002" class="node">
<title>Node2</title>
<g id="a_Node000002"><a xlink:href="structnix_1_1Goal.html" target="_top" xlink:title=" ">
<polygon fill="white" stroke="#bfbfbf" points="802.75,-332.75 743.25,-332.75 743.25,-312 802.75,-312 802.75,-332.75"/>
<text text-anchor="middle" x="773" y="-319.25" font-family="Helvetica,sans-Serif" font-size="10.00">nix::Goal</text>
</a>
</g>
</g>
<!-- Node2&#45;&gt;Node1 -->
<g id="edge1_Node000001_Node000002" class="edge">
<title>Node2&#45;&gt;Node1</title>
<g id="a_edge1_Node000001_Node000002"><a xlink:title=" ">
<path fill="none" stroke="#63b8ff" d="M814.67,-323.47C846.11,-322.24 889.05,-315.79 918.25,-292.38 967.71,-252.72 984.49,-171.88 989.05,-142.96"/>
<polygon fill="#63b8ff" stroke="#63b8ff" points="814.68,-319.97 804.75,-323.67 814.83,-326.96 814.68,-319.97"/>
</a>
</g>
</g>
<!-- Node3 -->
<g id="Node000003" class="node">
<title>Node3</title>
<g id="a_Node000003"><a xlink:href="classnix_1_1Worker.html" target="_top" xlink:title=" ">
<polygon fill="white" stroke="#666666" points="568.5,-533.75 497.75,-533.75 497.75,-513 568.5,-513 568.5,-533.75"/>
<text text-anchor="middle" x="533.12" y="-520.25" font-family="Helvetica,sans-Serif" font-size="10.00">nix::Worker</text>
</a>
</g>
</g>
<!-- Node3&#45;&gt;Node2 -->
<g id="edge2_Node000002_Node000003" class="edge">
<title>Node3&#45;&gt;Node2</title>
<g id="a_edge2_Node000002_Node000003"><a xlink:title=" ">
<path fill="none" stroke="#9a32cd" stroke-dasharray="5,2" d="M555.65,-505.19C604.06,-464.28 720.34,-366.03 759.15,-333.24"/>
<polygon fill="#9a32cd" stroke="#9a32cd" points="553.45,-502.46 548.07,-511.59 557.97,-507.81 553.45,-502.46"/>
</a>
</g>
<text text-anchor="middle" x="658.5" y="-455.87" font-family="Helvetica,sans-Serif" font-size="10.00" fill="grey"> worker</text>
</g>
<!-- Node4 -->
<g id="Node000004" class="node">
<title>Node4</title>
<g id="a_Node000004"><a xlink:href="classnix_1_1WorkerBase.html" target="_top" xlink:title=" ">
<polygon fill="white" stroke="#bfbfbf" points="305.75,-632.75 211,-632.75 211,-612 305.75,-612 305.75,-632.75"/>
<text text-anchor="middle" x="258.38" y="-619.25" font-family="Helvetica,sans-Serif" font-size="10.00">nix::WorkerBase</text>
</a>
</g>
</g>
<!-- Node4&#45;&gt;Node3 -->
<g id="edge3_Node000003_Node000004" class="edge">
<title>Node4&#45;&gt;Node3</title>
<g id="a_edge3_Node000003_Node000004"><a xlink:title=" ">
<path fill="none" stroke="#63b8ff" d="M317.24,-630.42C357.63,-633.41 411.7,-632 454.25,-611.38 489.31,-594.38 515.41,-553.76 526.39,-534.23"/>
<polygon fill="#63b8ff" stroke="#63b8ff" points="317.74,-626.95 307.48,-629.58 317.14,-633.93 317.74,-626.95"/>
</a>
</g>
</g>
<!-- Node5 -->
<g id="Node000005" class="node">
<title>Node5</title>
<g id="a_Node000005"><a xlink:href="classnix_1_1GoalFactory.html" target="_top" xlink:title=" ">
<polygon fill="white" stroke="#bfbfbf" points="109.75,-632.75 15,-632.75 15,-612 109.75,-612 109.75,-632.75"/>
<text text-anchor="middle" x="62.38" y="-619.25" font-family="Helvetica,sans-Serif" font-size="10.00">nix::GoalFactory</text>
</a>
</g>
</g>
<!-- Node5&#45;&gt;Node4 -->
<g id="edge4_Node000004_Node000005" class="edge">
<title>Node5&#45;&gt;Node4</title>
<g id="a_edge4_Node000004_Node000005"><a xlink:title=" ">
<path fill="none" stroke="darkgreen" d="M121.29,-622.38C149.82,-622.38 183.76,-622.38 210.61,-622.38"/>
<polygon fill="darkgreen" stroke="darkgreen" points="121.36,-618.88 111.36,-622.38 121.36,-625.88 121.36,-618.88"/>
</a>
</g>
</g>
<!-- Node6 -->
<g id="Node000006" class="node">
<title>Node6</title>
<g id="a_Node000006"><a xlink:href="structnix_1_1Activity.html" target="_top" xlink:title=" ">
<polygon fill="white" stroke="#bfbfbf" points="295.62,-586.75 221.12,-586.75 221.12,-566 295.62,-566 295.62,-586.75"/>
<text text-anchor="middle" x="258.38" y="-573.25" font-family="Helvetica,sans-Serif" font-size="10.00">nix::Activity</text>
</a>
</g>
</g>
<!-- Node6&#45;&gt;Node3 -->
<g id="edge5_Node000003_Node000006" class="edge">
<title>Node6&#45;&gt;Node3</title>
<g id="a_edge5_Node000003_Node000006"><a xlink:title=" ">
<path fill="none" stroke="#9a32cd" stroke-dasharray="5,2" d="M307.27,-572.69C347.02,-568.99 404.83,-562.11 454.25,-550.38 471.51,-546.27 490.32,-539.81 505.13,-534.24"/>
<polygon fill="#9a32cd" stroke="#9a32cd" points="307.21,-569.18 297.56,-573.56 307.83,-576.15 307.21,-569.18"/>
</a>
</g>
<text text-anchor="middle" x="397.25" y="-597.59" font-family="Helvetica,sans-Serif" font-size="10.00" fill="grey"> act</text>
<text text-anchor="middle" x="397.25" y="-584.84" font-family="Helvetica,sans-Serif" font-size="10.00" fill="grey">actDerivations</text>
<text text-anchor="middle" x="397.25" y="-572.09" font-family="Helvetica,sans-Serif" font-size="10.00" fill="grey">actSubstitutions</text>
</g>
<!-- Node7 -->
<g id="Node000007" class="node">
<title>Node7</title>
<g id="a_Node000007"><a xlink:href="classnix_1_1Logger.html" target="_top" xlink:title=" ">
<polygon fill="white" stroke="#bfbfbf" points="97.38,-589.75 27.38,-589.75 27.38,-569 97.38,-569 97.38,-589.75"/>
<text text-anchor="middle" x="62.38" y="-576.25" font-family="Helvetica,sans-Serif" font-size="10.00">nix::Logger</text>
</a>
</g>
</g>
<!-- Node7&#45;&gt;Node6 -->
<g id="edge6_Node000006_Node000007" class="edge">
<title>Node7&#45;&gt;Node6</title>
<g id="a_edge6_Node000006_Node000007"><a xlink:title=" ">
<path fill="none" stroke="#9a32cd" stroke-dasharray="5,2" d="M108.69,-578.67C142.84,-578.15 189.05,-577.43 220.84,-576.94"/>
<polygon fill="#9a32cd" stroke="#9a32cd" points="109.07,-575.17 99.13,-578.82 109.18,-582.17 109.07,-575.17"/>
</a>
</g>
<text text-anchor="middle" x="159.62" y="-581.39" font-family="Helvetica,sans-Serif" font-size="10.00" fill="grey"> logger</text>
</g>
<!-- Node8 -->
<g id="Node000008" class="node">
<title>Node8</title>
<g id="a_Node000008"><a xlink:href="classnix_1_1Store.html" target="_top" xlink:title=" ">
<polygon fill="white" stroke="#bfbfbf" points="289.62,-528.75 227.12,-528.75 227.12,-508 289.62,-508 289.62,-528.75"/>
<text text-anchor="middle" x="258.38" y="-515.25" font-family="Helvetica,sans-Serif" font-size="10.00">nix::Store</text>
</a>
</g>
</g>
<!-- Node8&#45;&gt;Node3 -->
<g id="edge7_Node000003_Node000008" class="edge">
<title>Node8&#45;&gt;Node3</title>
<g id="a_edge7_Node000003_Node000008"><a xlink:title=" ">
<path fill="none" stroke="#9a32cd" stroke-dasharray="5,2" d="M301.05,-519.14C354.85,-520.13 447.47,-521.82 497.56,-522.74"/>
<polygon fill="#9a32cd" stroke="#9a32cd" points="301.44,-515.65 291.38,-518.96 301.32,-522.64 301.44,-515.65"/>
</a>
</g>
<text text-anchor="middle" x="397.25" y="-537.9" font-family="Helvetica,sans-Serif" font-size="10.00" fill="grey"> evalStore</text>
<text text-anchor="middle" x="397.25" y="-525.15" font-family="Helvetica,sans-Serif" font-size="10.00" fill="grey">store</text>
</g>
<!-- Node9 -->
<g id="Node000009" class="node">
<title>Node9</title>
<g id="a_Node000009"><a xlink:title=" ">
<polygon fill="white" stroke="#bfbfbf" points="120.25,-499.12 4.5,-499.12 4.5,-465.62 120.25,-465.62 120.25,-499.12"/>
<text text-anchor="start" x="12.5" y="-485.62" font-family="Helvetica,sans-Serif" font-size="10.00">std::enable_shared</text>
<text text-anchor="middle" x="62.38" y="-472.88" font-family="Helvetica,sans-Serif" font-size="10.00">_from_this&lt; Store &gt;</text>
</a>
</g>
</g>
<!-- Node9&#45;&gt;Node8 -->
<g id="edge8_Node000008_Node000009" class="edge">
<title>Node9&#45;&gt;Node8</title>
<g id="a_edge8_Node000008_Node000009"><a xlink:title=" ">
<path fill="none" stroke="#63b8ff" d="M131.78,-495.07C164.2,-501.09 201.31,-507.97 226.74,-512.69"/>
<polygon fill="#63b8ff" stroke="#63b8ff" points="132.49,-491.64 122.02,-493.26 131.21,-498.52 132.49,-491.64"/>
</a>
</g>
</g>
<!-- Node10 -->
<g id="Node000010" class="node">
<title>Node10</title>
<g id="a_Node000010"><a xlink:href="classnix_1_1Sync.html" target="_top" xlink:title=" ">
<polygon fill="white" stroke="#666666" points="124.75,-447.12 0,-447.12 0,-413.62 124.75,-413.62 124.75,-447.12"/>
<text text-anchor="start" x="8" y="-433.62" font-family="Helvetica,sans-Serif" font-size="10.00">nix::Sync&lt; nix::Store</text>
<text text-anchor="middle" x="62.38" y="-420.88" font-family="Helvetica,sans-Serif" font-size="10.00">::State, AsyncMutex &gt;</text>
</a>
</g>
</g>
<!-- Node10&#45;&gt;Node8 -->
<g id="edge9_Node000008_Node000010" class="edge">
<title>Node10&#45;&gt;Node8</title>
<g id="a_edge9_Node000008_Node000010"><a xlink:title=" ">
<path fill="none" stroke="#9a32cd" stroke-dasharray="5,2" d="M114.68,-451.94C118.09,-453.43 121.47,-454.91 124.75,-456.38 147.95,-466.72 154.55,-467.84 176.5,-480.62 184.97,-485.56 185.88,-488.7 194.5,-493.38 204.62,-498.87 216.2,-503.82 226.65,-507.84"/>
<polygon fill="#9a32cd" stroke="#9a32cd" points="116.36,-448.85 105.79,-448.1 113.59,-455.28 116.36,-448.85"/>
</a>
</g>
<text text-anchor="middle" x="159.62" y="-483.88" font-family="Helvetica,sans-Serif" font-size="10.00" fill="grey"> state</text>
</g>
<!-- Node11 -->
<g id="Node000011" class="node">
<title>Node11</title>
<g id="a_Node000011"><a xlink:href="structnix_1_1Store_1_1Stats.html" target="_top" xlink:title=" ">
<polygon fill="white" stroke="#bfbfbf" points="113.12,-551.12 11.62,-551.12 11.62,-517.62 113.12,-517.62 113.12,-551.12"/>
<text text-anchor="start" x="19.62" y="-537.62" font-family="Helvetica,sans-Serif" font-size="10.00">nix::Store::Stats&lt;</text>
<text text-anchor="middle" x="62.38" y="-524.88" font-family="Helvetica,sans-Serif" font-size="10.00"> std::atomic &gt;</text>
</a>
</g>
</g>
<!-- Node11&#45;&gt;Node8 -->
<g id="edge10_Node000008_Node000011" class="edge">
<title>Node11&#45;&gt;Node8</title>
<g id="a_edge10_Node000008_Node000011"><a xlink:title=" ">
<path fill="none" stroke="#9a32cd" stroke-dasharray="5,2" d="M124.82,-529.31C158.78,-526.51 199.49,-523.15 226.75,-520.9"/>
<polygon fill="#9a32cd" stroke="#9a32cd" points="124.77,-525.8 115.1,-530.11 125.35,-532.78 124.77,-525.8"/>
</a>
</g>
<text text-anchor="middle" x="159.62" y="-531.06" font-family="Helvetica,sans-Serif" font-size="10.00" fill="grey"> stats</text>
</g>
<!-- Node12 -->
<g id="Node000012" class="node">
<title>Node12</title>
<g id="a_Node000012"><a xlink:href="classnix_1_1AsyncSemaphore.html" target="_top" xlink:title=" ">
<polygon fill="white" stroke="#bfbfbf" points="319.25,-484.75 197.5,-484.75 197.5,-464 319.25,-464 319.25,-484.75"/>
<text text-anchor="middle" x="258.38" y="-471.25" font-family="Helvetica,sans-Serif" font-size="10.00">nix::AsyncSemaphore</text>
</a>
</g>
</g>
<!-- Node12&#45;&gt;Node3 -->
<g id="edge11_Node000003_Node000012" class="edge">
<title>Node12&#45;&gt;Node3</title>
<g id="a_edge11_Node000003_Node000012"><a xlink:title=" ">
<path fill="none" stroke="#9a32cd" stroke-dasharray="5,2" d="M330.69,-475.12C367.95,-476.83 414.05,-481.04 454.25,-490.88 474.32,-495.78 495.9,-505.14 511.25,-512.56"/>
<polygon fill="#9a32cd" stroke="#9a32cd" points="331.07,-471.63 320.93,-474.73 330.78,-478.63 331.07,-471.63"/>
</a>
</g>
<text text-anchor="middle" x="397.25" y="-506.88" font-family="Helvetica,sans-Serif" font-size="10.00" fill="grey"> localBuilds</text>
<text text-anchor="middle" x="397.25" y="-494.12" font-family="Helvetica,sans-Serif" font-size="10.00" fill="grey">substitutions</text>
</g>
<!-- Node13 -->
<g id="Node000013" class="node">
<title>Node13</title>
<g id="a_Node000013"><a xlink:href="structnix_1_1Worker_1_1HookState.html" target="_top" xlink:title=" ">
<polygon fill="white" stroke="#bfbfbf" points="322.25,-671.75 194.5,-671.75 194.5,-651 322.25,-651 322.25,-671.75"/>
<text text-anchor="middle" x="258.38" y="-658.25" font-family="Helvetica,sans-Serif" font-size="10.00">nix::Worker::HookState</text>
</a>
</g>
</g>
<!-- Node13&#45;&gt;Node3 -->
<g id="edge12_Node000003_Node000013" class="edge">
<title>Node13&#45;&gt;Node3</title>
<g id="a_edge12_Node000003_Node000013"><a xlink:title=" ">
<path fill="none" stroke="#9a32cd" stroke-dasharray="5,2" d="M333.62,-665.32C372.12,-664.09 418.45,-657.22 454.25,-635.38 494.48,-610.82 519.22,-556.76 528.25,-533.91"/>
<polygon fill="#9a32cd" stroke="#9a32cd" points="333.91,-661.81 323.98,-665.5 334.04,-668.81 333.91,-661.81"/>
</a>
</g>
<text text-anchor="middle" x="397.25" y="-668.14" font-family="Helvetica,sans-Serif" font-size="10.00" fill="grey"> hook</text>
</g>
<!-- Node14 -->
<g id="Node000014" class="node">
<title>Node14</title>
<g id="a_Node000014"><a xlink:href="classnix_1_1NotifyingCounter.html" target="_top" xlink:title=" ">
<polygon fill="white" stroke="#bfbfbf" points="318.12,-312.12 198.62,-312.12 198.62,-278.62 318.12,-278.62 318.12,-312.12"/>
<text text-anchor="start" x="206.62" y="-298.62" font-family="Helvetica,sans-Serif" font-size="10.00">nix::NotifyingCounter</text>
<text text-anchor="middle" x="258.38" y="-285.88" font-family="Helvetica,sans-Serif" font-size="10.00">&lt; uint64_t &gt;</text>
</a>
</g>
</g>
<!-- Node14&#45;&gt;Node1 -->
<g id="edge23_Node000001_Node000014" class="edge">
<title>Node14&#45;&gt;Node1</title>
<g id="a_edge23_Node000001_Node000014"><a xlink:title=" ">
<path fill="none" stroke="#9a32cd" stroke-dasharray="5,2" d="M329.86,-292.59C460.23,-286.74 733.84,-271.03 823,-239.38 887.06,-216.63 951.72,-165.53 978.12,-143.18"/>
<polygon fill="#9a32cd" stroke="#9a32cd" points="329.81,-289.09 319.97,-293.02 330.11,-296.08 329.81,-289.09"/>
</a>
</g>
<text text-anchor="middle" x="658.5" y="-289.56" font-family="Helvetica,sans-Serif" font-size="10.00" fill="grey"> mcExpectedBuilds</text>
<text text-anchor="middle" x="658.5" y="-276.81" font-family="Helvetica,sans-Serif" font-size="10.00" fill="grey">mcRunningBuilds</text>
</g>
<!-- Node14&#45;&gt;Node3 -->
<g id="edge13_Node000003_Node000014" class="edge">
<title>Node14&#45;&gt;Node3</title>
<g id="a_edge13_Node000003_Node000014"><a xlink:title=" ">
<path fill="none" stroke="#9a32cd" stroke-dasharray="5,2" d="M329.79,-292.32C370.24,-294.17 419.71,-302.98 454.25,-331.12 484.4,-355.69 519.11,-475.67 529.22,-512.56"/>
<polygon fill="#9a32cd" stroke="#9a32cd" points="329.98,-288.83 319.88,-292.02 329.76,-295.83 329.98,-288.83"/>
</a>
</g>
<text text-anchor="middle" x="397.25" y="-461.88" font-family="Helvetica,sans-Serif" font-size="10.00" fill="grey"> doneBuilds</text>
<text text-anchor="middle" x="397.25" y="-449.12" font-family="Helvetica,sans-Serif" font-size="10.00" fill="grey">doneDownloadSize</text>
<text text-anchor="middle" x="397.25" y="-436.38" font-family="Helvetica,sans-Serif" font-size="10.00" fill="grey">doneNarSize</text>
<text text-anchor="middle" x="397.25" y="-423.62" font-family="Helvetica,sans-Serif" font-size="10.00" fill="grey">doneSubstitutions</text>
<text text-anchor="middle" x="397.25" y="-410.88" font-family="Helvetica,sans-Serif" font-size="10.00" fill="grey">expectedBuilds</text>
<text text-anchor="middle" x="397.25" y="-398.12" font-family="Helvetica,sans-Serif" font-size="10.00" fill="grey">expectedDownloadSize</text>
<text text-anchor="middle" x="397.25" y="-385.38" font-family="Helvetica,sans-Serif" font-size="10.00" fill="grey">expectedNarSize</text>
<text text-anchor="middle" x="397.25" y="-372.62" font-family="Helvetica,sans-Serif" font-size="10.00" fill="grey">expectedSubstitutions</text>
<text text-anchor="middle" x="397.25" y="-359.88" font-family="Helvetica,sans-Serif" font-size="10.00" fill="grey">failedBuilds</text>
<text text-anchor="middle" x="397.25" y="-347.12" font-family="Helvetica,sans-Serif" font-size="10.00" fill="grey">failedSubstitutions</text>
<text text-anchor="middle" x="397.25" y="-334.38" font-family="Helvetica,sans-Serif" font-size="10.00" fill="grey">...</text>
</g>
<!-- Node15 -->
<g id="Node000015" class="node">
<title>Node15</title>
<g id="a_Node000015"><a xlink:title=" ">
<polygon fill="white" stroke="#bfbfbf" points="555,-219.75 511.25,-219.75 511.25,-199 555,-199 555,-219.75"/>
<text text-anchor="middle" x="533.12" y="-206.25" font-family="Helvetica,sans-Serif" font-size="10.00">string</text>
</a>
</g>
</g>
<!-- Node15&#45;&gt;Node1 -->
<g id="edge22_Node000001_Node000015" class="edge">
<title>Node15&#45;&gt;Node1</title>
<g id="a_edge22_Node000001_Node000015"><a xlink:title=" ">
<path fill="none" stroke="#9a32cd" stroke-dasharray="5,2" d="M566.53,-208.42C620.28,-206.38 731.06,-200.21 823,-182.38 872.16,-172.84 927.53,-154.82 960.69,-143.22"/>
<polygon fill="#9a32cd" stroke="#9a32cd" points="566.73,-204.91 556.86,-208.77 566.98,-211.91 566.73,-204.91"/>
</a>
</g>
<text text-anchor="middle" x="773" y="-225.46" font-family="Helvetica,sans-Serif" font-size="10.00" fill="grey"> currentHookLine</text>
<text text-anchor="middle" x="773" y="-212.71" font-family="Helvetica,sans-Serif" font-size="10.00" fill="grey">currentLogLine</text>
<text text-anchor="middle" x="773" y="-199.96" font-family="Helvetica,sans-Serif" font-size="10.00" fill="grey">machineName</text>
</g>
<!-- Node15&#45;&gt;Node2 -->
<g id="edge14_Node000002_Node000015" class="edge">
<title>Node15&#45;&gt;Node2</title>
<g id="a_edge14_Node000002_Node000015"><a xlink:title=" ">
<path fill="none" stroke="#9a32cd" stroke-dasharray="5,2" d="M566.67,-214.71C612.88,-222.47 693.22,-236.69 705,-243.62 733.78,-260.56 756.11,-294.46 766.17,-311.73"/>
<polygon fill="#9a32cd" stroke="#9a32cd" points="567.38,-211.28 556.94,-213.09 566.23,-218.19 567.38,-211.28"/>
</a>
</g>
<text text-anchor="middle" x="658.5" y="-246.88" font-family="Helvetica,sans-Serif" font-size="10.00" fill="grey"> name</text>
</g>
<!-- Node19 -->
<g id="Node000019" class="node">
<title>Node19</title>
<g id="a_Node000019"><a xlink:href="structnix_1_1BuildResult.html" target="_top" xlink:title=" ">
<polygon fill="white" stroke="#bfbfbf" points="819.25,-64.75 726.75,-64.75 726.75,-44 819.25,-44 819.25,-64.75"/>
<text text-anchor="middle" x="773" y="-51.25" font-family="Helvetica,sans-Serif" font-size="10.00">nix::BuildResult</text>
</a>
</g>
</g>
<!-- Node15&#45;&gt;Node19 -->
<g id="edge20_Node000019_Node000015" class="edge">
<title>Node15&#45;&gt;Node19</title>
<g id="a_edge20_Node000019_Node000015"><a xlink:title=" ">
<path fill="none" stroke="#9a32cd" stroke-dasharray="5,2" d="M555.28,-191.72C589.1,-164.1 658.16,-110.14 723,-74.38 729.03,-71.05 735.74,-67.95 742.2,-65.24"/>
<polygon fill="#9a32cd" stroke="#9a32cd" points="553.38,-188.76 547.88,-197.81 557.82,-194.16 553.38,-188.76"/>
</a>
</g>
<text text-anchor="middle" x="658.5" y="-150.19" font-family="Helvetica,sans-Serif" font-size="10.00" fill="grey"> errorMsg</text>
</g>
<!-- Node16 -->
<g id="Node000016" class="node">
<title>Node16</title>
<g id="a_Node000016"><a xlink:href="classnix_1_1AsyncSemaphore_1_1Token.html" target="_top" xlink:title=" ">
<polygon fill="white" stroke="#bfbfbf" points="594,-344.12 472.25,-344.12 472.25,-310.62 594,-310.62 594,-344.12"/>
<text text-anchor="start" x="480.25" y="-330.62" font-family="Helvetica,sans-Serif" font-size="10.00">nix::AsyncSemaphore</text>
<text text-anchor="middle" x="533.12" y="-317.88" font-family="Helvetica,sans-Serif" font-size="10.00">::Token</text>
</a>
</g>
</g>
<!-- Node16&#45;&gt;Node2 -->
<g id="edge15_Node000002_Node000016" class="edge">
<title>Node16&#45;&gt;Node2</title>
<g id="a_edge15_Node000002_Node000016"><a xlink:title=" ">
<path fill="none" stroke="#9a32cd" stroke-dasharray="5,2" d="M605.87,-325.87C651.79,-324.9 708.92,-323.7 742.81,-322.99"/>
<polygon fill="#9a32cd" stroke="#9a32cd" points="605.9,-322.37 595.97,-326.08 606.04,-329.36 605.9,-322.37"/>
</a>
</g>
<text text-anchor="middle" x="658.5" y="-328.87" font-family="Helvetica,sans-Serif" font-size="10.00" fill="grey"> slotToken</text>
</g>
<!-- Node17 -->
<g id="Node000017" class="node">
<title>Node17</title>
<g id="a_Node000017"><a xlink:href="classnix_1_1StorePath.html" target="_top" xlink:title=" ">
<polygon fill="white" stroke="#666666" points="814.75,-142.75 731.25,-142.75 731.25,-122 814.75,-122 814.75,-142.75"/>
<text text-anchor="middle" x="773" y="-129.25" font-family="Helvetica,sans-Serif" font-size="10.00">nix::StorePath</text>
</a>
</g>
</g>
<!-- Node17&#45;&gt;Node1 -->
<g id="edge16_Node000001_Node000017" class="edge">
<title>Node17&#45;&gt;Node1</title>
<g id="a_edge16_Node000001_Node000017"><a xlink:title=" ">
<path fill="none" stroke="#9a32cd" stroke-dasharray="5,2" d="M826.52,-132.38C859.66,-132.38 902.38,-132.38 935.91,-132.38"/>
<polygon fill="#9a32cd" stroke="#9a32cd" points="826.75,-128.88 816.75,-132.38 826.75,-135.88 826.75,-128.88"/>
</a>
</g>
<text text-anchor="middle" x="879.62" y="-135.62" font-family="Helvetica,sans-Serif" font-size="10.00" fill="grey"> drvPath</text>
</g>
<!-- Node17&#45;&gt;Node17 -->
<g id="edge17_Node000017_Node000017" class="edge">
<title>Node17&#45;&gt;Node17</title>
<g id="a_edge17_Node000017_Node000017"><a xlink:title=" ">
<path fill="none" stroke="#9a32cd" stroke-dasharray="5,2" d="M754.46,-154.56C757.08,-158.23 763.26,-160.75 773,-160.75 791.33,-160.75 797.05,-151.81 790.18,-143.15"/>
<polygon fill="#9a32cd" stroke="#9a32cd" points="757.93,-154.99 755.64,-144.65 750.98,-154.17 757.93,-154.99"/>
</a>
</g>
<text text-anchor="middle" x="773" y="-164" font-family="Helvetica,sans-Serif" font-size="10.00" fill="grey"> dummy</text>
</g>
<!-- Node18 -->
<g id="Node000018" class="node">
<title>Node18</title>
<g id="a_Node000018"><a xlink:href="structnix_1_1OutputsSpec.html" target="_top" xlink:title=" ">
<polygon fill="white" stroke="#bfbfbf" points="822.25,-103.75 723.75,-103.75 723.75,-83 822.25,-83 822.25,-103.75"/>
<text text-anchor="middle" x="773" y="-90.25" font-family="Helvetica,sans-Serif" font-size="10.00">nix::OutputsSpec</text>
</a>
</g>
</g>
<!-- Node18&#45;&gt;Node1 -->
<g id="edge18_Node000001_Node000018" class="edge">
<title>Node18&#45;&gt;Node1</title>
<g id="a_edge18_Node000001_Node000018"><a xlink:title=" ">
<path fill="none" stroke="#9a32cd" stroke-dasharray="5,2" d="M833.78,-101.57C859.81,-105.41 890.62,-110.3 918.25,-115.62 927.35,-117.38 937.05,-119.47 946.29,-121.57"/>
<polygon fill="#9a32cd" stroke="#9a32cd" points="834.47,-98.14 824.07,-100.16 833.46,-105.06 834.47,-98.14"/>
</a>
</g>
<text text-anchor="middle" x="879.62" y="-118.88" font-family="Helvetica,sans-Serif" font-size="10.00" fill="grey"> wantedOutputs</text>
</g>
<!-- Node19&#45;&gt;Node1 -->
<g id="edge19_Node000001_Node000019" class="edge">
<title>Node19&#45;&gt;Node1</title>
<g id="a_edge19_Node000001_Node000019"><a xlink:title=" ">
<path fill="none" stroke="#9a32cd" stroke-dasharray="5,2" d="M830.99,-62.45C858.1,-67.45 890.55,-75.17 918.25,-86.62 940.06,-95.65 962.65,-111.11 976.64,-121.53"/>
<polygon fill="#9a32cd" stroke="#9a32cd" points="831.68,-59.01 821.22,-60.73 830.47,-65.91 831.68,-59.01"/>
</a>
</g>
<text text-anchor="middle" x="879.62" y="-89.88" font-family="Helvetica,sans-Serif" font-size="10.00" fill="grey"> buildResult</text>
</g>
<!-- Node20 -->
<g id="Node000020" class="node">
<title>Node20</title>
<g id="a_Node000020"><a xlink:href="classnix_1_1AutoCloseFD.html" target="_top" xlink:title=" ">
<polygon fill="white" stroke="#bfbfbf" points="823,-20.75 723,-20.75 723,0 823,0 823,-20.75"/>
<text text-anchor="middle" x="773" y="-7.25" font-family="Helvetica,sans-Serif" font-size="10.00">nix::AutoCloseFD</text>
</a>
</g>
</g>
<!-- Node20&#45;&gt;Node1 -->
<g id="edge21_Node000001_Node000020" class="edge">
<title>Node20&#45;&gt;Node1</title>
<g id="a_edge21_Node000001_Node000020"><a xlink:title=" ">
<path fill="none" stroke="#9a32cd" stroke-dasharray="5,2" d="M834.69,-10.6C861.92,-13.14 893.44,-19.64 918.25,-34.88 953.08,-56.26 976.61,-101.23 985.97,-121.75"/>
<polygon fill="#9a32cd" stroke="#9a32cd" points="835.05,-7.12 824.82,-9.85 834.52,-14.1 835.05,-7.12"/>
</a>
</g>
<text text-anchor="middle" x="879.62" y="-50.88" font-family="Helvetica,sans-Serif" font-size="10.00" fill="grey"> builderOutFD</text>
<text text-anchor="middle" x="879.62" y="-38.12" font-family="Helvetica,sans-Serif" font-size="10.00" fill="grey">fdLogFile</text>
</g>
</g>
</svg>
