<?xml version="1.0" encoding="UTF-8" standalone="no"?>
<!DOCTYPE svg PUBLIC "-//W3C//DTD SVG 1.1//EN"
 "http://www.w3.org/Graphics/SVG/1.1/DTD/svg11.dtd">
<!-- Generated by graphviz version 12.2.1 (0)
 -->
<!-- Title: nix::SearchPath::Elem Pages: 1 -->
<svg width="202pt" height="168pt"
 viewBox="0.00 0.00 202.25 167.75" xmlns="http://www.w3.org/2000/svg" xmlns:xlink="http://www.w3.org/1999/xlink">
<g id="graph0" class="graph" transform="scale(1 1) rotate(0) translate(4 163.75)">
<title>nix::SearchPath::Elem</title>
<!-- Node1 -->
<g id="Node000001" class="node">
<title>Node1</title>
<g id="a_Node000001"><a xlink:title=" ">
<polygon fill="#999999" stroke="#666666" points="121.75,-20.75 0,-20.75 0,0 121.75,0 121.75,-20.75"/>
<text text-anchor="middle" x="60.88" y="-7.25" font-family="Helvetica,sans-Serif" font-size="10.00">nix::SearchPath::Elem</text>
</a>
</g>
</g>
<!-- Node2 -->
<g id="Node000002" class="node">
<title>Node2</title>
<g id="a_Node000002"><a xlink:href="structnix_1_1SearchPath_1_1Prefix.html" target="_top" xlink:title=" ">
<polygon fill="white" stroke="#bfbfbf" points="194.25,-90.25 69.5,-90.25 69.5,-69.5 194.25,-69.5 194.25,-90.25"/>
<text text-anchor="middle" x="131.88" y="-76.75" font-family="Helvetica,sans-Serif" font-size="10.00">nix::SearchPath::Prefix</text>
</a>
</g>
</g>
<!-- Node2&#45;&gt;Node1 -->
<g id="edge1_Node000001_Node000002" class="edge">
<title>Node2&#45;&gt;Node1</title>
<g id="a_edge1_Node000001_Node000002"><a xlink:title=" ">
<path fill="none" stroke="#9a32cd" stroke-dasharray="5,2" d="M113.56,-61.46C100.02,-48.59 82.09,-31.55 71.03,-21.03"/>
<polygon fill="#9a32cd" stroke="#9a32cd" points="110.95,-63.81 120.61,-68.16 115.77,-58.73 110.95,-63.81"/>
</a>
</g>
<text text-anchor="middle" x="118.11" y="-42" font-family="Helvetica,sans-Serif" font-size="10.00" fill="grey"> prefix</text>
</g>
<!-- Node3 -->
<g id="Node000003" class="node">
<title>Node3</title>
<g id="a_Node000003"><a xlink:title=" ">
<polygon fill="white" stroke="#bfbfbf" points="64.75,-159.75 21,-159.75 21,-139 64.75,-139 64.75,-159.75"/>
<text text-anchor="middle" x="42.88" y="-146.25" font-family="Helvetica,sans-Serif" font-size="10.00">string</text>
</a>
</g>
</g>
<!-- Node3&#45;&gt;Node1 -->
<g id="edge3_Node000001_Node000003" class="edge">
<title>Node3&#45;&gt;Node1</title>
<g id="a_edge3_Node000001_Node000003"><a xlink:title=" ">
<path fill="none" stroke="#9a32cd" stroke-dasharray="5,2" d="M37.92,-127.77C34.84,-111.75 32.14,-89.03 36.12,-69.5 39.81,-51.45 49.32,-32.06 55.42,-20.86"/>
<polygon fill="#9a32cd" stroke="#9a32cd" points="34.4,-128.04 39.94,-137.08 41.24,-126.56 34.4,-128.04"/>
</a>
</g>
<text text-anchor="middle" x="48.5" y="-76.75" font-family="Helvetica,sans-Serif" font-size="10.00" fill="grey"> path</text>
</g>
<!-- Node3&#45;&gt;Node2 -->
<g id="edge2_Node000002_Node000003" class="edge">
<title>Node3&#45;&gt;Node2</title>
<g id="a_edge2_Node000002_Node000003"><a xlink:title=" ">
<path fill="none" stroke="#9a32cd" stroke-dasharray="5,2" d="M64.34,-132.09C81.35,-119.2 104.55,-101.6 118.86,-90.75"/>
<polygon fill="#9a32cd" stroke="#9a32cd" points="62.69,-128.96 56.83,-137.79 66.92,-134.54 62.69,-128.96"/>
</a>
</g>
<text text-anchor="middle" x="99.47" y="-111.5" font-family="Helvetica,sans-Serif" font-size="10.00" fill="grey"> s</text>
</g>
</g>
</svg>
