<?xml version="1.0" encoding="UTF-8" standalone="no"?>
<!DOCTYPE svg PUBLIC "-//W3C//DTD SVG 1.1//EN"
 "http://www.w3.org/Graphics/SVG/1.1/DTD/svg11.dtd">
<!-- Generated by graphviz version 12.2.1 (0)
 -->
<!-- Title: nix::CommonSSHStoreConfig Pages: 1 -->
<svg width="286pt" height="325pt"
 viewBox="0.00 0.00 286.00 325.25" xmlns="http://www.w3.org/2000/svg" xmlns:xlink="http://www.w3.org/1999/xlink">
<g id="graph0" class="graph" transform="scale(1 1) rotate(0) translate(4 321.25)">
<title>nix::CommonSSHStoreConfig</title>
<!-- Node1 -->
<g id="Node000001" class="node">
<title>Node1</title>
<g id="a_Node000001"><a xlink:title=" ">
<polygon fill="#999999" stroke="#666666" points="226.12,-147 69.12,-147 69.12,-126.25 226.12,-126.25 226.12,-147"/>
<text text-anchor="middle" x="147.62" y="-133.5" font-family="Helvetica,sans-Serif" font-size="10.00">nix::CommonSSHStoreConfig</text>
</a>
</g>
</g>
<!-- Node5 -->
<g id="Node000005" class="node">
<title>Node5</title>
<g id="a_Node000005"><a xlink:href="structnix_1_1LegacySSHStoreConfig.html" target="_top" xlink:title=" ">
<polygon fill="white" stroke="#bfbfbf" points="147.25,-90.25 0,-90.25 0,-69.5 147.25,-69.5 147.25,-90.25"/>
<text text-anchor="middle" x="73.62" y="-76.75" font-family="Helvetica,sans-Serif" font-size="10.00">nix::LegacySSHStoreConfig</text>
</a>
</g>
</g>
<!-- Node1&#45;&gt;Node5 -->
<g id="edge4_Node000001_Node000005" class="edge">
<title>Node1&#45;&gt;Node5</title>
<g id="a_edge4_Node000001_Node000005"><a xlink:title=" ">
<path fill="none" stroke="#63b8ff" d="M125.41,-119.19C112.8,-109.86 97.44,-98.5 86.74,-90.58"/>
<polygon fill="#63b8ff" stroke="#63b8ff" points="123.06,-121.8 133.18,-124.94 127.22,-116.18 123.06,-121.8"/>
</a>
</g>
</g>
<!-- Node7 -->
<g id="Node000007" class="node">
<title>Node7</title>
<g id="a_Node000007"><a xlink:href="structnix_1_1SSHStoreConfig.html" target="_top" xlink:title=" ">
<polygon fill="white" stroke="#bfbfbf" points="278,-90.25 165.25,-90.25 165.25,-69.5 278,-69.5 278,-90.25"/>
<text text-anchor="middle" x="221.62" y="-76.75" font-family="Helvetica,sans-Serif" font-size="10.00">nix::SSHStoreConfig</text>
</a>
</g>
</g>
<!-- Node1&#45;&gt;Node7 -->
<g id="edge6_Node000001_Node000007" class="edge">
<title>Node1&#45;&gt;Node7</title>
<g id="a_edge6_Node000001_Node000007"><a xlink:title=" ">
<path fill="none" stroke="#63b8ff" d="M169.84,-119.19C182.45,-109.86 197.81,-98.5 208.51,-90.58"/>
<polygon fill="#63b8ff" stroke="#63b8ff" points="168.03,-116.18 162.07,-124.94 172.19,-121.8 168.03,-116.18"/>
</a>
</g>
</g>
<!-- Node2 -->
<g id="Node000002" class="node">
<title>Node2</title>
<g id="a_Node000002"><a xlink:href="structnix_1_1StoreConfig.html" target="_top" xlink:title=" ">
<polygon fill="white" stroke="#bfbfbf" points="194.25,-203.75 101,-203.75 101,-183 194.25,-183 194.25,-203.75"/>
<text text-anchor="middle" x="147.62" y="-190.25" font-family="Helvetica,sans-Serif" font-size="10.00">nix::StoreConfig</text>
</a>
</g>
</g>
<!-- Node2&#45;&gt;Node1 -->
<g id="edge1_Node000001_Node000002" class="edge">
<title>Node2&#45;&gt;Node1</title>
<g id="a_edge1_Node000001_Node000002"><a xlink:title=" ">
<path fill="none" stroke="#63b8ff" d="M147.62,-171.13C147.62,-162.91 147.62,-153.93 147.62,-147.33"/>
<polygon fill="#63b8ff" stroke="#63b8ff" points="144.13,-171.07 147.63,-181.07 151.13,-171.07 144.13,-171.07"/>
</a>
</g>
</g>
<!-- Node3 -->
<g id="Node000003" class="node">
<title>Node3</title>
<g id="a_Node000003"><a xlink:href="classnix_1_1Config.html" target="_top" xlink:title=" ">
<polygon fill="white" stroke="#666666" points="181.5,-260.5 113.75,-260.5 113.75,-239.75 181.5,-239.75 181.5,-260.5"/>
<text text-anchor="middle" x="147.62" y="-247" font-family="Helvetica,sans-Serif" font-size="10.00">nix::Config</text>
</a>
</g>
</g>
<!-- Node3&#45;&gt;Node2 -->
<g id="edge2_Node000002_Node000003" class="edge">
<title>Node3&#45;&gt;Node2</title>
<g id="a_edge2_Node000002_Node000003"><a xlink:title=" ">
<path fill="none" stroke="#63b8ff" d="M147.62,-227.88C147.62,-219.66 147.62,-210.68 147.62,-204.08"/>
<polygon fill="#63b8ff" stroke="#63b8ff" points="144.13,-227.82 147.63,-237.82 151.13,-227.82 144.13,-227.82"/>
</a>
</g>
</g>
<!-- Node4 -->
<g id="Node000004" class="node">
<title>Node4</title>
<g id="a_Node000004"><a xlink:href="classnix_1_1AbstractConfig.html" target="_top" xlink:title=" ">
<polygon fill="white" stroke="#bfbfbf" points="201.75,-317.25 93.5,-317.25 93.5,-296.5 201.75,-296.5 201.75,-317.25"/>
<text text-anchor="middle" x="147.62" y="-303.75" font-family="Helvetica,sans-Serif" font-size="10.00">nix::AbstractConfig</text>
</a>
</g>
</g>
<!-- Node4&#45;&gt;Node3 -->
<g id="edge3_Node000003_Node000004" class="edge">
<title>Node4&#45;&gt;Node3</title>
<g id="a_edge3_Node000003_Node000004"><a xlink:title=" ">
<path fill="none" stroke="#63b8ff" d="M147.62,-284.63C147.62,-276.41 147.62,-267.43 147.62,-260.83"/>
<polygon fill="#63b8ff" stroke="#63b8ff" points="144.13,-284.57 147.63,-294.57 151.13,-284.57 144.13,-284.57"/>
</a>
</g>
</g>
<!-- Node6 -->
<g id="Node000006" class="node">
<title>Node6</title>
<g id="a_Node000006"><a xlink:href="structnix_1_1LegacySSHStoreConfigWithLog.html" target="_top" xlink:title=" ">
<polygon fill="white" stroke="#bfbfbf" points="147.25,-33.5 0,-33.5 0,0 147.25,0 147.25,-33.5"/>
<text text-anchor="start" x="8" y="-20" font-family="Helvetica,sans-Serif" font-size="10.00">nix::LegacySSHStoreConfig</text>
<text text-anchor="middle" x="73.62" y="-7.25" font-family="Helvetica,sans-Serif" font-size="10.00">WithLog</text>
</a>
</g>
</g>
<!-- Node5&#45;&gt;Node6 -->
<g id="edge5_Node000005_Node000006" class="edge">
<title>Node5&#45;&gt;Node6</title>
<g id="a_edge5_Node000005_Node000006"><a xlink:title=" ">
<path fill="none" stroke="#63b8ff" d="M73.62,-57.59C73.62,-49.85 73.62,-41.22 73.62,-33.98"/>
<polygon fill="#63b8ff" stroke="#63b8ff" points="70.13,-57.54 73.63,-67.54 77.13,-57.54 70.13,-57.54"/>
</a>
</g>
</g>
</g>
</svg>
