<?xml version="1.0" encoding="UTF-8" standalone="no"?>
<!DOCTYPE svg PUBLIC "-//W3C//DTD SVG 1.1//EN"
 "http://www.w3.org/Graphics/SVG/1.1/DTD/svg11.dtd">
<!-- Generated by graphviz version 12.2.1 (0)
 -->
<!-- Title: nix::fetchers::CacheImpl Pages: 1 -->
<svg width="272pt" height="111pt"
 viewBox="0.00 0.00 271.50 111.00" xmlns="http://www.w3.org/2000/svg" xmlns:xlink="http://www.w3.org/1999/xlink">
<g id="graph0" class="graph" transform="scale(1 1) rotate(0) translate(4 107)">
<title>nix::fetchers::CacheImpl</title>
<!-- Node1 -->
<g id="Node000001" class="node">
<title>Node1</title>
<g id="a_Node000001"><a xlink:title=" ">
<polygon fill="#999999" stroke="#666666" points="193.62,-20.75 59.12,-20.75 59.12,0 193.62,0 193.62,-20.75"/>
<text text-anchor="middle" x="126.38" y="-7.25" font-family="Helvetica,sans-Serif" font-size="10.00">nix::fetchers::CacheImpl</text>
</a>
</g>
</g>
<!-- Node2 -->
<g id="Node000002" class="node">
<title>Node2</title>
<g id="a_Node000002"><a xlink:href="structnix_1_1fetchers_1_1Cache.html" target="_top" xlink:title=" ">
<polygon fill="white" stroke="#bfbfbf" points="112.75,-96.62 0,-96.62 0,-75.88 112.75,-75.88 112.75,-96.62"/>
<text text-anchor="middle" x="56.38" y="-83.12" font-family="Helvetica,sans-Serif" font-size="10.00">nix::fetchers::Cache</text>
</a>
</g>
</g>
<!-- Node2&#45;&gt;Node1 -->
<g id="edge1_Node000001_Node000002" class="edge">
<title>Node2&#45;&gt;Node1</title>
<g id="a_edge1_Node000001_Node000002"><a xlink:title=" ">
<path fill="none" stroke="#63b8ff" d="M73.39,-67.29C87.29,-52.63 106.38,-32.48 117.44,-20.8"/>
<polygon fill="#63b8ff" stroke="#63b8ff" points="70.9,-64.83 66.57,-74.49 75.99,-69.64 70.9,-64.83"/>
</a>
</g>
</g>
<!-- Node3 -->
<g id="Node000003" class="node">
<title>Node3</title>
<g id="a_Node000003"><a xlink:href="classnix_1_1Sync.html" target="_top" xlink:title=" ">
<polygon fill="white" stroke="#666666" points="263.5,-103 131.25,-103 131.25,-69.5 263.5,-69.5 263.5,-103"/>
<text text-anchor="start" x="139.25" y="-89.5" font-family="Helvetica,sans-Serif" font-size="10.00">nix::Sync&lt; nix::fetchers</text>
<text text-anchor="middle" x="197.38" y="-76.75" font-family="Helvetica,sans-Serif" font-size="10.00">::CacheImpl::State &gt;</text>
</a>
</g>
</g>
<!-- Node3&#45;&gt;Node1 -->
<g id="edge2_Node000001_Node000003" class="edge">
<title>Node3&#45;&gt;Node1</title>
<g id="a_edge2_Node000001_Node000003"><a xlink:title=" ">
<path fill="none" stroke="#9a32cd" stroke-dasharray="5,2" d="M174.16,-61.1C160.96,-47.36 145.18,-30.94 135.46,-20.83"/>
<polygon fill="#9a32cd" stroke="#9a32cd" points="171.47,-63.34 180.92,-68.13 176.51,-58.49 171.47,-63.34"/>
</a>
</g>
<text text-anchor="middle" x="180.5" y="-42" font-family="Helvetica,sans-Serif" font-size="10.00" fill="grey"> _state</text>
</g>
</g>
</svg>
