<?xml version="1.0" encoding="UTF-8" standalone="no"?>
<!DOCTYPE svg PUBLIC "-//W3C//DTD SVG 1.1//EN"
 "http://www.w3.org/Graphics/SVG/1.1/DTD/svg11.dtd">
<!-- Generated by graphviz version 12.2.1 (0)
 -->
<!-- Title: nix::CmdProfile Pages: 1 -->
<svg width="218pt" height="156pt"
 viewBox="0.00 0.00 217.75 156.00" xmlns="http://www.w3.org/2000/svg" xmlns:xlink="http://www.w3.org/1999/xlink">
<g id="graph0" class="graph" transform="scale(1 1) rotate(0) translate(4 152)">
<title>nix::CmdProfile</title>
<!-- Node1 -->
<g id="Node000001" class="node">
<title>Node1</title>
<g id="a_Node000001"><a xlink:title=" ">
<polygon fill="#999999" stroke="#666666" points="90.25,-78.5 0,-78.5 0,-57.75 90.25,-57.75 90.25,-78.5"/>
<text text-anchor="middle" x="45.12" y="-65" font-family="Helvetica,sans-Serif" font-size="10.00">nix::CmdProfile</text>
</a>
</g>
</g>
<!-- Node2 -->
<g id="Node000002" class="node">
<title>Node2</title>
<g id="a_Node000002"><a xlink:href="classnix_1_1MultiCommand.html" target="_top" xlink:title=" ">
<polygon fill="white" stroke="#666666" points="194.12,-148 82.12,-148 82.12,-127.25 194.12,-127.25 194.12,-148"/>
<text text-anchor="middle" x="138.12" y="-134.5" font-family="Helvetica,sans-Serif" font-size="10.00">nix::MultiCommand</text>
</a>
</g>
</g>
<!-- Node2&#45;&gt;Node1 -->
<g id="edge1_Node000001_Node000002" class="edge">
<title>Node2&#45;&gt;Node1</title>
<g id="a_edge1_Node000001_Node000002"><a xlink:title=" ">
<path fill="none" stroke="#63b8ff" d="M115.69,-120.34C97.92,-107.45 73.68,-89.85 58.73,-79"/>
<polygon fill="#63b8ff" stroke="#63b8ff" points="113.43,-123.02 123.58,-126.06 117.54,-117.36 113.43,-123.02"/>
</a>
</g>
</g>
<!-- Node4 -->
<g id="Node000004" class="node">
<title>Node4</title>
<g id="a_Node000004"><a xlink:href="classnix_1_1Args.html" target="_top" xlink:title=" ">
<polygon fill="white" stroke="#bfbfbf" points="167.5,-78.5 108.75,-78.5 108.75,-57.75 167.5,-57.75 167.5,-78.5"/>
<text text-anchor="middle" x="138.12" y="-65" font-family="Helvetica,sans-Serif" font-size="10.00">nix::Args</text>
</a>
</g>
</g>
<!-- Node2&#45;&gt;Node4 -->
<g id="edge4_Node000004_Node000002" class="edge">
<title>Node2&#45;&gt;Node4</title>
<g id="a_edge4_Node000004_Node000002"><a xlink:title=" ">
<path fill="none" stroke="#9a32cd" stroke-dasharray="5,2" d="M138.12,-115.82C138.12,-103.47 138.12,-88.4 138.12,-78.78"/>
<polygon fill="#9a32cd" stroke="#9a32cd" points="134.63,-115.44 138.13,-125.44 141.63,-115.44 134.63,-115.44"/>
</a>
</g>
<text text-anchor="middle" x="155.38" y="-99.75" font-family="Helvetica,sans-Serif" font-size="10.00" fill="grey"> parent</text>
</g>
<!-- Node3 -->
<g id="Node000003" class="node">
<title>Node3</title>
<g id="a_Node000003"><a xlink:href="structnix_1_1Command.html" target="_top" xlink:title=" ">
<polygon fill="white" stroke="#666666" points="209.75,-20.75 122.5,-20.75 122.5,0 209.75,0 209.75,-20.75"/>
<text text-anchor="middle" x="166.12" y="-7.25" font-family="Helvetica,sans-Serif" font-size="10.00">nix::Command</text>
</a>
</g>
</g>
<!-- Node3&#45;&gt;Node2 -->
<g id="edge2_Node000002_Node000003" class="edge">
<title>Node3&#45;&gt;Node2</title>
<g id="a_edge2_Node000002_Node000003"><a xlink:title=" ">
<path fill="none" stroke="#63b8ff" d="M174.86,-31.91C182.25,-52.61 189.78,-84.9 177.12,-109.25 173.23,-116.74 166.25,-122.6 159.26,-126.95"/>
<polygon fill="#63b8ff" stroke="#63b8ff" points="178.13,-30.66 171.23,-22.62 171.61,-33.2 178.13,-30.66"/>
</a>
</g>
</g>
<!-- Node4&#45;&gt;Node3 -->
<g id="edge3_Node000003_Node000004" class="edge">
<title>Node4&#45;&gt;Node3</title>
<g id="a_edge3_Node000003_Node000004"><a xlink:title=" ">
<path fill="none" stroke="#63b8ff" d="M148.05,-47.37C152.55,-38.41 157.67,-28.22 161.3,-20.97"/>
<polygon fill="#63b8ff" stroke="#63b8ff" points="145.04,-45.55 143.68,-56.06 151.3,-48.7 145.04,-45.55"/>
</a>
</g>
</g>
</g>
</svg>
