<?xml version="1.0" encoding="UTF-8" standalone="no"?>
<!DOCTYPE svg PUBLIC "-//W3C//DTD SVG 1.1//EN"
 "http://www.w3.org/Graphics/SVG/1.1/DTD/svg11.dtd">
<!-- Generated by graphviz version 12.2.1 (0)
 -->
<!-- Title: nix::AutoUserLock Pages: 1 -->
<svg width="208pt" height="98pt"
 viewBox="0.00 0.00 208.00 98.25" xmlns="http://www.w3.org/2000/svg" xmlns:xlink="http://www.w3.org/1999/xlink">
<g id="graph0" class="graph" transform="scale(1 1) rotate(0) translate(4 94.25)">
<title>nix::AutoUserLock</title>
<!-- Node1 -->
<g id="Node000001" class="node">
<title>Node1</title>
<g id="a_Node000001"><a xlink:title=" ">
<polygon fill="#999999" stroke="#666666" points="147.25,-20.75 42.75,-20.75 42.75,0 147.25,0 147.25,-20.75"/>
<text text-anchor="middle" x="95" y="-7.25" font-family="Helvetica,sans-Serif" font-size="10.00">nix::AutoUserLock</text>
</a>
</g>
</g>
<!-- Node2 -->
<g id="Node000002" class="node">
<title>Node2</title>
<g id="a_Node000002"><a xlink:href="structnix_1_1UserLock.html" target="_top" xlink:title=" ">
<polygon fill="white" stroke="#bfbfbf" points="82,-90.25 0,-90.25 0,-69.5 82,-69.5 82,-90.25"/>
<text text-anchor="middle" x="41" y="-76.75" font-family="Helvetica,sans-Serif" font-size="10.00">nix::UserLock</text>
</a>
</g>
</g>
<!-- Node2&#45;&gt;Node1 -->
<g id="edge1_Node000001_Node000002" class="edge">
<title>Node2&#45;&gt;Node1</title>
<g id="a_edge1_Node000001_Node000002"><a xlink:title=" ">
<path fill="none" stroke="#63b8ff" d="M55.82,-60.35C66,-47.62 79.1,-31.25 87.28,-21.03"/>
<polygon fill="#63b8ff" stroke="#63b8ff" points="53.2,-58.03 49.68,-68.02 58.66,-62.4 53.2,-58.03"/>
</a>
</g>
</g>
<!-- Node3 -->
<g id="Node000003" class="node">
<title>Node3</title>
<g id="a_Node000003"><a xlink:href="classnix_1_1AutoCloseFD.html" target="_top" xlink:title=" ">
<polygon fill="white" stroke="#bfbfbf" points="200,-90.25 100,-90.25 100,-69.5 200,-69.5 200,-90.25"/>
<text text-anchor="middle" x="150" y="-76.75" font-family="Helvetica,sans-Serif" font-size="10.00">nix::AutoCloseFD</text>
</a>
</g>
</g>
<!-- Node3&#45;&gt;Node1 -->
<g id="edge2_Node000001_Node000003" class="edge">
<title>Node3&#45;&gt;Node1</title>
<g id="a_edge2_Node000001_Node000003"><a xlink:title=" ">
<path fill="none" stroke="#9a32cd" stroke-dasharray="5,2" d="M134.9,-60.35C124.54,-47.62 111.19,-31.25 102.87,-21.03"/>
<polygon fill="#9a32cd" stroke="#9a32cd" points="132.13,-62.49 141.16,-68.03 137.56,-58.07 132.13,-62.49"/>
</a>
</g>
<text text-anchor="middle" x="156.3" y="-42" font-family="Helvetica,sans-Serif" font-size="10.00" fill="grey"> fdUserLock</text>
</g>
</g>
</svg>
