<?xml version="1.0" encoding="UTF-8" standalone="no"?>
<!DOCTYPE svg PUBLIC "-//W3C//DTD SVG 1.1//EN"
 "http://www.w3.org/Graphics/SVG/1.1/DTD/svg11.dtd">
<!-- Generated by graphviz version 12.2.1 (0)
 -->
<!-- Title: nix::LegacyArgs Pages: 1 -->
<svg width="208pt" height="142pt"
 viewBox="0.00 0.00 207.62 142.25" xmlns="http://www.w3.org/2000/svg" xmlns:xlink="http://www.w3.org/1999/xlink">
<g id="graph0" class="graph" transform="scale(1 1) rotate(0) translate(4 138.25)">
<title>nix::LegacyArgs</title>
<!-- Node1 -->
<g id="Node000001" class="node">
<title>Node1</title>
<g id="a_Node000001"><a xlink:title=" ">
<polygon fill="#999999" stroke="#666666" points="161.12,-20.75 67.88,-20.75 67.88,0 161.12,0 161.12,-20.75"/>
<text text-anchor="middle" x="114.5" y="-7.25" font-family="Helvetica,sans-Serif" font-size="10.00">nix::LegacyArgs</text>
</a>
</g>
</g>
<!-- Node2 -->
<g id="Node000002" class="node">
<title>Node2</title>
<g id="a_Node000002"><a xlink:href="classnix_1_1MixCommonArgs.html" target="_top" xlink:title=" ">
<polygon fill="white" stroke="#bfbfbf" points="121,-77.5 0,-77.5 0,-56.75 121,-56.75 121,-77.5"/>
<text text-anchor="middle" x="60.5" y="-64" font-family="Helvetica,sans-Serif" font-size="10.00">nix::MixCommonArgs</text>
</a>
</g>
</g>
<!-- Node2&#45;&gt;Node1 -->
<g id="edge1_Node000001_Node000002" class="edge">
<title>Node2&#45;&gt;Node1</title>
<g id="a_edge1_Node000001_Node000002"><a xlink:title=" ">
<path fill="none" stroke="#63b8ff" d="M78.08,-48.3C87.01,-39.25 97.5,-28.61 104.93,-21.08"/>
<polygon fill="#63b8ff" stroke="#63b8ff" points="75.75,-45.68 71.22,-55.26 80.73,-50.6 75.75,-45.68"/>
</a>
</g>
</g>
<!-- Node3 -->
<g id="Node000003" class="node">
<title>Node3</title>
<g id="a_Node000003"><a xlink:href="classnix_1_1Args.html" target="_top" xlink:title=" ">
<polygon fill="white" stroke="#bfbfbf" points="89.88,-134.25 31.12,-134.25 31.12,-113.5 89.88,-113.5 89.88,-134.25"/>
<text text-anchor="middle" x="60.5" y="-120.75" font-family="Helvetica,sans-Serif" font-size="10.00">nix::Args</text>
</a>
</g>
</g>
<!-- Node3&#45;&gt;Node2 -->
<g id="edge2_Node000002_Node000003" class="edge">
<title>Node3&#45;&gt;Node2</title>
<g id="a_edge2_Node000002_Node000003"><a xlink:title=" ">
<path fill="none" stroke="#63b8ff" d="M60.5,-101.63C60.5,-93.41 60.5,-84.43 60.5,-77.83"/>
<polygon fill="#63b8ff" stroke="#63b8ff" points="57,-101.57 60.5,-111.57 64,-101.57 57,-101.57"/>
</a>
</g>
</g>
<!-- Node4 -->
<g id="Node000004" class="node">
<title>Node4</title>
<g id="a_Node000004"><a xlink:title=" ">
<polygon fill="white" stroke="#bfbfbf" points="199.62,-77.5 139.38,-77.5 139.38,-56.75 199.62,-56.75 199.62,-77.5"/>
<text text-anchor="middle" x="169.5" y="-64" font-family="Helvetica,sans-Serif" font-size="10.00">RootArgs</text>
</a>
</g>
</g>
<!-- Node4&#45;&gt;Node1 -->
<g id="edge3_Node000001_Node000004" class="edge">
<title>Node4&#45;&gt;Node1</title>
<g id="a_edge3_Node000001_Node000004"><a xlink:title=" ">
<path fill="none" stroke="#63b8ff" d="M151.59,-48.3C142.5,-39.25 131.81,-28.61 124.25,-21.08"/>
<polygon fill="#63b8ff" stroke="#63b8ff" points="149.04,-50.69 158.59,-55.27 153.98,-45.73 149.04,-50.69"/>
</a>
</g>
</g>
</g>
</svg>
