<?xml version="1.0" encoding="UTF-8" standalone="no"?>
<!DOCTYPE svg PUBLIC "-//W3C//DTD SVG 1.1//EN"
 "http://www.w3.org/Graphics/SVG/1.1/DTD/svg11.dtd">
<!-- Generated by graphviz version 12.2.1 (0)
 -->
<!-- Title: nix::FixedOutputInfo Pages: 1 -->
<svg width="264pt" height="98pt"
 viewBox="0.00 0.00 263.50 98.25" xmlns="http://www.w3.org/2000/svg" xmlns:xlink="http://www.w3.org/1999/xlink">
<g id="graph0" class="graph" transform="scale(1 1) rotate(0) translate(4 94.25)">
<title>nix::FixedOutputInfo</title>
<!-- Node1 -->
<g id="Node000001" class="node">
<title>Node1</title>
<g id="a_Node000001"><a xlink:title=" ">
<polygon fill="#999999" stroke="#666666" points="212,-20.75 97.75,-20.75 97.75,0 212,0 212,-20.75"/>
<text text-anchor="middle" x="154.88" y="-7.25" font-family="Helvetica,sans-Serif" font-size="10.00">nix::FixedOutputInfo</text>
</a>
</g>
</g>
<!-- Node2 -->
<g id="Node000002" class="node">
<title>Node2</title>
<g id="a_Node000002"><a xlink:href="structnix_1_1Hash.html" target="_top" xlink:title=" ">
<polygon fill="white" stroke="#bfbfbf" points="61.75,-90.25 0,-90.25 0,-69.5 61.75,-69.5 61.75,-90.25"/>
<text text-anchor="middle" x="30.88" y="-76.75" font-family="Helvetica,sans-Serif" font-size="10.00">nix::Hash</text>
</a>
</g>
</g>
<!-- Node2&#45;&gt;Node1 -->
<g id="edge1_Node000001_Node000002" class="edge">
<title>Node2&#45;&gt;Node1</title>
<g id="a_edge1_Node000001_Node000002"><a xlink:title=" ">
<path fill="none" stroke="#9a32cd" stroke-dasharray="5,2" d="M58.79,-63.68C82.67,-50.68 116.33,-32.35 136.82,-21.2"/>
<polygon fill="#9a32cd" stroke="#9a32cd" points="57.34,-60.48 50.24,-68.34 60.69,-66.63 57.34,-60.48"/>
</a>
</g>
<text text-anchor="middle" x="117.11" y="-42" font-family="Helvetica,sans-Serif" font-size="10.00" fill="grey"> hash</text>
</g>
<!-- Node2&#45;&gt;Node2 -->
<g id="edge2_Node000002_Node000002" class="edge">
<title>Node2&#45;&gt;Node2</title>
<g id="a_edge2_Node000002_Node000002"><a xlink:title=" ">
<path fill="none" stroke="#9a32cd" stroke-dasharray="5,2" d="M73.29,-85.09C77.25,-84.02 79.75,-82.28 79.75,-79.88 79.75,-75.6 71.86,-73.43 61.9,-73.36"/>
<polygon fill="#9a32cd" stroke="#9a32cd" points="72.94,-81.61 63.4,-86.22 73.73,-88.57 72.94,-81.61"/>
</a>
</g>
<text text-anchor="middle" x="100" y="-76.75" font-family="Helvetica,sans-Serif" font-size="10.00" fill="grey"> dummy</text>
</g>
<!-- Node3 -->
<g id="Node000003" class="node">
<title>Node3</title>
<g id="a_Node000003"><a xlink:href="structnix_1_1StoreReferences.html" target="_top" xlink:title=" ">
<polygon fill="white" stroke="#666666" points="255.5,-90.25 138.25,-90.25 138.25,-69.5 255.5,-69.5 255.5,-90.25"/>
<text text-anchor="middle" x="196.88" y="-76.75" font-family="Helvetica,sans-Serif" font-size="10.00">nix::StoreReferences</text>
</a>
</g>
</g>
<!-- Node3&#45;&gt;Node1 -->
<g id="edge3_Node000001_Node000003" class="edge">
<title>Node3&#45;&gt;Node1</title>
<g id="a_edge3_Node000001_Node000003"><a xlink:title=" ">
<path fill="none" stroke="#9a32cd" stroke-dasharray="5,2" d="M184.88,-59.6C177.03,-46.98 167.11,-31.05 160.88,-21.03"/>
<polygon fill="#9a32cd" stroke="#9a32cd" points="181.8,-61.28 190.06,-67.92 187.75,-57.58 181.8,-61.28"/>
</a>
</g>
<text text-anchor="middle" x="207.01" y="-42" font-family="Helvetica,sans-Serif" font-size="10.00" fill="grey"> references</text>
</g>
</g>
</svg>
