<?xml version="1.0" encoding="UTF-8" standalone="no"?>
<!DOCTYPE svg PUBLIC "-//W3C//DTD SVG 1.1//EN"
 "http://www.w3.org/Graphics/SVG/1.1/DTD/svg11.dtd">
<!-- Generated by graphviz version 12.2.1 (0)
 -->
<!-- Title: nix::RewritingSource Pages: 1 -->
<svg width="280pt" height="124pt"
 viewBox="0.00 0.00 280.34 123.75" xmlns="http://www.w3.org/2000/svg" xmlns:xlink="http://www.w3.org/1999/xlink">
<g id="graph0" class="graph" transform="scale(1 1) rotate(0) translate(4 119.75)">
<title>nix::RewritingSource</title>
<!-- Node1 -->
<g id="Node000001" class="node">
<title>Node1</title>
<g id="a_Node000001"><a xlink:title=" ">
<polygon fill="#999999" stroke="#666666" points="146.25,-20.75 29.75,-20.75 29.75,0 146.25,0 146.25,-20.75"/>
<text text-anchor="middle" x="88" y="-7.25" font-family="Helvetica,sans-Serif" font-size="10.00">nix::RewritingSource</text>
</a>
</g>
</g>
<!-- Node2 -->
<g id="Node000002" class="node">
<title>Node2</title>
<g id="a_Node000002"><a xlink:href="structnix_1_1Source.html" target="_top" xlink:title=" ">
<polygon fill="white" stroke="#666666" points="70,-109.38 0,-109.38 0,-88.62 70,-88.62 70,-109.38"/>
<text text-anchor="middle" x="35" y="-95.88" font-family="Helvetica,sans-Serif" font-size="10.00">nix::Source</text>
</a>
</g>
</g>
<!-- Node2&#45;&gt;Node1 -->
<g id="edge1_Node000001_Node000002" class="edge">
<title>Node2&#45;&gt;Node1</title>
<g id="a_edge1_Node000001_Node000002"><a xlink:title=" ">
<path fill="none" stroke="#63b8ff" d="M33.99,-77.04C34.38,-64.95 36.61,-49.97 44,-38.75 48.95,-31.24 56.75,-25.42 64.41,-21.11"/>
<polygon fill="#63b8ff" stroke="#63b8ff" points="30.49,-76.83 34.1,-86.8 37.49,-76.76 30.49,-76.83"/>
</a>
</g>
</g>
<!-- Node2&#45;&gt;Node1 -->
<g id="edge3_Node000001_Node000002" class="edge">
<title>Node2&#45;&gt;Node1</title>
<g id="a_edge3_Node000001_Node000002"><a xlink:title=" ">
<path fill="none" stroke="#9a32cd" stroke-dasharray="5,2" d="M43.41,-77.82C48.7,-66.02 56.06,-51.07 64.25,-38.75 68.43,-32.46 73.91,-26.05 78.55,-21.02"/>
<polygon fill="#9a32cd" stroke="#9a32cd" points="40.21,-76.4 39.45,-86.97 46.63,-79.18 40.21,-76.4"/>
</a>
</g>
<text text-anchor="middle" x="78.12" y="-48.38" font-family="Helvetica,sans-Serif" font-size="10.00" fill="grey"> inner</text>
</g>
<!-- Node3 -->
<g id="Node000003" class="node">
<title>Node3</title>
<g id="a_Node000003"><a xlink:title=" ">
<polygon fill="white" stroke="#bfbfbf" points="135.88,-109.38 92.12,-109.38 92.12,-88.62 135.88,-88.62 135.88,-109.38"/>
<text text-anchor="middle" x="114" y="-95.88" font-family="Helvetica,sans-Serif" font-size="10.00">string</text>
</a>
</g>
</g>
<!-- Node3&#45;&gt;Node1 -->
<g id="edge2_Node000001_Node000003" class="edge">
<title>Node3&#45;&gt;Node1</title>
<g id="a_edge2_Node000001_Node000003"><a xlink:title=" ">
<path fill="none" stroke="#9a32cd" stroke-dasharray="5,2" d="M107.83,-77.43C102.47,-59.59 94.96,-34.57 90.89,-21.02"/>
<polygon fill="#9a32cd" stroke="#9a32cd" points="104.46,-78.38 110.68,-86.95 111.16,-76.36 104.46,-78.38"/>
</a>
</g>
<text text-anchor="middle" x="125.45" y="-54.75" font-family="Helvetica,sans-Serif" font-size="10.00" fill="grey"> buffered</text>
<text text-anchor="middle" x="125.45" y="-42" font-family="Helvetica,sans-Serif" font-size="10.00" fill="grey">rewritten</text>
</g>
<!-- Node4 -->
<g id="Node000004" class="node">
<title>Node4</title>
<g id="a_Node000004"><a xlink:title=" ">
<polygon fill="white" stroke="#bfbfbf" points="272,-115.75 154,-115.75 154,-82.25 272,-82.25 272,-115.75"/>
<text text-anchor="start" x="162" y="-102.25" font-family="Helvetica,sans-Serif" font-size="10.00">nix::RewritingSource</text>
<text text-anchor="middle" x="213" y="-89.5" font-family="Helvetica,sans-Serif" font-size="10.00">::may_change_size_t</text>
</a>
</g>
</g>
<!-- Node4&#45;&gt;Node1 -->
<g id="edge4_Node000001_Node000004" class="edge">
<title>Node4&#45;&gt;Node1</title>
<g id="a_edge4_Node000001_Node000004"><a xlink:title=" ">
<path fill="none" stroke="#9a32cd" stroke-dasharray="5,2" d="M191.78,-73.54C180.77,-61.92 166.59,-48.47 152,-38.75 141.34,-31.65 128.53,-25.74 117.19,-21.24"/>
<polygon fill="#9a32cd" stroke="#9a32cd" points="189.17,-75.88 198.51,-80.88 194.32,-71.14 189.17,-75.88"/>
</a>
</g>
<text text-anchor="middle" x="227.34" y="-48.38" font-family="Helvetica,sans-Serif" font-size="10.00" fill="grey"> may_change_size</text>
</g>
</g>
</svg>
