<?xml version="1.0" encoding="UTF-8" standalone="no"?>
<!DOCTYPE svg PUBLIC "-//W3C//DTD SVG 1.1//EN"
 "http://www.w3.org/Graphics/SVG/1.1/DTD/svg11.dtd">
<!-- Generated by graphviz version 12.2.1 (0)
 -->
<!-- Title: nix::CompareValues Pages: 1 -->
<svg width="1556pt" height="634pt"
 viewBox="0.00 0.00 1556.25 633.75" xmlns="http://www.w3.org/2000/svg" xmlns:xlink="http://www.w3.org/1999/xlink">
<g id="graph0" class="graph" transform="scale(1 1) rotate(0) translate(4 629.75)">
<title>nix::CompareValues</title>
<!-- Node1 -->
<g id="Node000001" class="node">
<title>Node1</title>
<g id="a_Node000001"><a xlink:title=" ">
<polygon fill="#999999" stroke="#666666" points="1548.25,-587.75 1434.75,-587.75 1434.75,-567 1548.25,-567 1548.25,-587.75"/>
<text text-anchor="middle" x="1491.5" y="-574.25" font-family="Helvetica,sans-Serif" font-size="10.00">nix::CompareValues</text>
</a>
</g>
</g>
<!-- Node2 -->
<g id="Node000002" class="node">
<title>Node2</title>
<g id="a_Node000002"><a xlink:href="structnix_1_1NeverAsync.html" target="_top" xlink:title=" ">
<polygon fill="white" stroke="#666666" points="1371,-625.75 1275.5,-625.75 1275.5,-605 1371,-605 1371,-625.75"/>
<text text-anchor="middle" x="1323.25" y="-612.25" font-family="Helvetica,sans-Serif" font-size="10.00">nix::NeverAsync</text>
</a>
</g>
</g>
<!-- Node2&#45;&gt;Node1 -->
<g id="edge1_Node000001_Node000002" class="edge">
<title>Node2&#45;&gt;Node1</title>
<g id="a_edge1_Node000001_Node000002"><a xlink:title=" ">
<path fill="none" stroke="#63b8ff" d="M1382.54,-602.05C1402.38,-597.52 1424.31,-592.5 1443.19,-588.19"/>
<polygon fill="#63b8ff" stroke="#63b8ff" points="1381.89,-598.61 1372.92,-604.25 1383.45,-605.43 1381.89,-598.61"/>
</a>
</g>
</g>
<!-- Node3 -->
<g id="Node000003" class="node">
<title>Node3</title>
<g id="a_Node000003"><a xlink:href="classnix_1_1EvalState.html" target="_top" xlink:title=" ">
<polygon fill="white" stroke="#bfbfbf" points="1365,-506.75 1281.5,-506.75 1281.5,-486 1365,-486 1365,-506.75"/>
<text text-anchor="middle" x="1323.25" y="-493.25" font-family="Helvetica,sans-Serif" font-size="10.00">nix::EvalState</text>
</a>
</g>
</g>
<!-- Node3&#45;&gt;Node1 -->
<g id="edge2_Node000001_Node000003" class="edge">
<title>Node3&#45;&gt;Node1</title>
<g id="a_edge2_Node000001_Node000003"><a xlink:title=" ">
<path fill="none" stroke="#9a32cd" stroke-dasharray="5,2" d="M1356.35,-512.02C1389.27,-528.05 1439.59,-552.57 1468.33,-566.57"/>
<polygon fill="#9a32cd" stroke="#9a32cd" points="1358.21,-509.03 1347.69,-507.79 1355.14,-515.32 1358.21,-509.03"/>
</a>
</g>
<text text-anchor="middle" x="1402.88" y="-542.55" font-family="Helvetica,sans-Serif" font-size="10.00" fill="grey"> state</text>
</g>
<!-- Node4 -->
<g id="Node000004" class="node">
<title>Node4</title>
<g id="a_Node000004"><a xlink:href="classnix_1_1Evaluator.html" target="_top" xlink:title=" ">
<polygon fill="white" stroke="#bfbfbf" points="1214.38,-260.75 1130.88,-260.75 1130.88,-240 1214.38,-240 1214.38,-260.75"/>
<text text-anchor="middle" x="1172.62" y="-247.25" font-family="Helvetica,sans-Serif" font-size="10.00">nix::Evaluator</text>
</a>
</g>
</g>
<!-- Node4&#45;&gt;Node3 -->
<g id="edge3_Node000003_Node000004" class="edge">
<title>Node4&#45;&gt;Node3</title>
<g id="a_edge3_Node000003_Node000004"><a xlink:title=" ">
<path fill="none" stroke="#9a32cd" stroke-dasharray="5,2" d="M1185.84,-270.59C1215.92,-320.39 1292.82,-447.66 1315.72,-485.57"/>
<polygon fill="#9a32cd" stroke="#9a32cd" points="1188.96,-268.99 1180.79,-262.24 1182.97,-272.61 1188.96,-268.99"/>
</a>
</g>
<text text-anchor="middle" x="1248.5" y="-391.35" font-family="Helvetica,sans-Serif" font-size="10.00" fill="grey"> ctx</text>
</g>
<!-- Node5 -->
<g id="Node000005" class="node">
<title>Node5</title>
<g id="a_Node000005"><a xlink:href="classnix_1_1SymbolTable.html" target="_top" xlink:title=" ">
<polygon fill="white" stroke="#666666" points="1017.62,-443.75 918.38,-443.75 918.38,-423 1017.62,-423 1017.62,-443.75"/>
<text text-anchor="middle" x="968" y="-430.25" font-family="Helvetica,sans-Serif" font-size="10.00">nix::SymbolTable</text>
</a>
</g>
</g>
<!-- Node5&#45;&gt;Node4 -->
<g id="edge4_Node000004_Node000005" class="edge">
<title>Node5&#45;&gt;Node4</title>
<g id="a_edge4_Node000004_Node000005"><a xlink:title=" ">
<path fill="none" stroke="#9a32cd" stroke-dasharray="5,2" d="M1029.32,-433.69C1055.29,-430.95 1084.49,-423.67 1105.75,-406.38 1152.95,-367.96 1166.89,-289.67 1170.5,-261.11"/>
<polygon fill="#9a32cd" stroke="#9a32cd" points="1029.22,-430.18 1019.55,-434.5 1029.8,-437.16 1029.22,-430.18"/>
</a>
</g>
<text text-anchor="middle" x="1079.5" y="-432.7" font-family="Helvetica,sans-Serif" font-size="10.00" fill="grey"> symbols</text>
</g>
<!-- Node6 -->
<g id="Node000006" class="node">
<title>Node6</title>
<g id="a_Node000006"><a xlink:href="classnix_1_1PosTable.html" target="_top" xlink:title=" ">
<polygon fill="white" stroke="#bfbfbf" points="810.38,-390.75 730.62,-390.75 730.62,-370 810.38,-370 810.38,-390.75"/>
<text text-anchor="middle" x="770.5" y="-377.25" font-family="Helvetica,sans-Serif" font-size="10.00">nix::PosTable</text>
</a>
</g>
</g>
<!-- Node6&#45;&gt;Node4 -->
<g id="edge5_Node000004_Node000006" class="edge">
<title>Node6&#45;&gt;Node4</title>
<g id="a_edge5_Node000004_Node000006"><a xlink:title=" ">
<path fill="none" stroke="#9a32cd" stroke-dasharray="5,2" d="M822.17,-386.37C891.58,-392 1017.65,-392.74 1105.75,-338.38 1136.61,-319.33 1157.95,-280.08 1166.9,-261.11"/>
<polygon fill="#9a32cd" stroke="#9a32cd" points="822.48,-382.89 812.21,-385.49 821.87,-389.86 822.48,-382.89"/>
</a>
</g>
<text text-anchor="middle" x="968" y="-391.84" font-family="Helvetica,sans-Serif" font-size="10.00" fill="grey"> positions</text>
</g>
<!-- Node27 -->
<g id="Node000027" class="node">
<title>Node27</title>
<g id="a_Node000027"><a xlink:href="structnix_1_1EvalErrorContext.html" target="_top" xlink:title=" ">
<polygon fill="white" stroke="#bfbfbf" points="1027.75,-339.75 908.25,-339.75 908.25,-319 1027.75,-319 1027.75,-339.75"/>
<text text-anchor="middle" x="968" y="-326.25" font-family="Helvetica,sans-Serif" font-size="10.00">nix::EvalErrorContext</text>
</a>
</g>
</g>
<!-- Node6&#45;&gt;Node27 -->
<g id="edge35_Node000027_Node000006" class="edge">
<title>Node6&#45;&gt;Node27</title>
<g id="a_edge35_Node000027_Node000006"><a xlink:title=" ">
<path fill="none" stroke="#9a32cd" stroke-dasharray="5,2" d="M821.58,-367.31C853.83,-358.9 895.24,-348.1 925.61,-340.17"/>
<polygon fill="#9a32cd" stroke="#9a32cd" points="820.85,-363.88 812.06,-369.79 822.62,-370.66 820.85,-363.88"/>
</a>
</g>
<text text-anchor="middle" x="859.12" y="-365.67" font-family="Helvetica,sans-Serif" font-size="10.00" fill="grey"> positions</text>
</g>
<!-- Node7 -->
<g id="Node000007" class="node">
<title>Node7</title>
<g id="a_Node000007"><a xlink:href="structnix_1_1StaticSymbols.html" target="_top" xlink:title=" ">
<polygon fill="white" stroke="#bfbfbf" points="652.25,-301.75 545.5,-301.75 545.5,-281 652.25,-281 652.25,-301.75"/>
<text text-anchor="middle" x="598.88" y="-288.25" font-family="Helvetica,sans-Serif" font-size="10.00">nix::StaticSymbols</text>
</a>
</g>
</g>
<!-- Node7&#45;&gt;Node4 -->
<g id="edge6_Node000004_Node000007" class="edge">
<title>Node7&#45;&gt;Node4</title>
<g id="a_edge6_Node000004_Node000007"><a xlink:title=" ">
<path fill="none" stroke="#9a32cd" stroke-dasharray="5,2" d="M664.02,-296.9C760.92,-303.62 949.84,-310.33 1105.75,-277.38 1121.47,-274.05 1138.21,-267.14 1150.88,-261.14"/>
<polygon fill="#9a32cd" stroke="#9a32cd" points="664.41,-293.42 654.18,-296.19 663.91,-300.4 664.41,-293.42"/>
</a>
</g>
<text text-anchor="middle" x="859.12" y="-305.62" font-family="Helvetica,sans-Serif" font-size="10.00" fill="grey"> s</text>
</g>
<!-- Node8 -->
<g id="Node000008" class="node">
<title>Node8</title>
<g id="a_Node000008"><a xlink:href="classnix_1_1Symbol.html" target="_top" xlink:title=" ">
<polygon fill="white" stroke="#666666" points="199.25,-289.75 125.5,-289.75 125.5,-269 199.25,-269 199.25,-289.75"/>
<text text-anchor="middle" x="162.38" y="-276.25" font-family="Helvetica,sans-Serif" font-size="10.00">nix::Symbol</text>
</a>
</g>
</g>
<!-- Node8&#45;&gt;Node7 -->
<g id="edge7_Node000007_Node000008" class="edge">
<title>Node8&#45;&gt;Node7</title>
<g id="a_edge7_Node000007_Node000008"><a xlink:title=" ">
<path fill="none" stroke="#9a32cd" stroke-dasharray="5,2" d="M166.44,-301.32C171.58,-328.77 184.79,-374.66 217.25,-395.38 344,-476.26 533.22,-341.98 584.6,-302.05"/>
<polygon fill="#9a32cd" stroke="#9a32cd" points="169.93,-300.96 164.85,-291.66 163.02,-302.1 169.93,-300.96"/>
</a>
</g>
<text text-anchor="middle" x="378.5" y="-551.36" font-family="Helvetica,sans-Serif" font-size="10.00" fill="grey"> allowedReferences</text>
<text text-anchor="middle" x="378.5" y="-538.61" font-family="Helvetica,sans-Serif" font-size="10.00" fill="grey">allowedRequisites</text>
<text text-anchor="middle" x="378.5" y="-525.86" font-family="Helvetica,sans-Serif" font-size="10.00" fill="grey">args</text>
<text text-anchor="middle" x="378.5" y="-513.11" font-family="Helvetica,sans-Serif" font-size="10.00" fill="grey">builder</text>
<text text-anchor="middle" x="378.5" y="-500.36" font-family="Helvetica,sans-Serif" font-size="10.00" fill="grey">column</text>
<text text-anchor="middle" x="378.5" y="-487.61" font-family="Helvetica,sans-Serif" font-size="10.00" fill="grey">contentAddressed</text>
<text text-anchor="middle" x="378.5" y="-474.86" font-family="Helvetica,sans-Serif" font-size="10.00" fill="grey">description</text>
<text text-anchor="middle" x="378.5" y="-462.11" font-family="Helvetica,sans-Serif" font-size="10.00" fill="grey">disallowedReferences</text>
<text text-anchor="middle" x="378.5" y="-449.36" font-family="Helvetica,sans-Serif" font-size="10.00" fill="grey">disallowedRequisites</text>
<text text-anchor="middle" x="378.5" y="-436.61" font-family="Helvetica,sans-Serif" font-size="10.00" fill="grey">drvPath</text>
<text text-anchor="middle" x="378.5" y="-423.86" font-family="Helvetica,sans-Serif" font-size="10.00" fill="grey">...</text>
</g>
<!-- Node9 -->
<g id="Node000009" class="node">
<title>Node9</title>
<g id="a_Node000009"><a xlink:href="structnix_1_1Expr_1_1AstSymbols.html" target="_top" xlink:title=" ">
<polygon fill="white" stroke="#bfbfbf" points="439.75,-292.75 317.25,-292.75 317.25,-272 439.75,-272 439.75,-292.75"/>
<text text-anchor="middle" x="378.5" y="-279.25" font-family="Helvetica,sans-Serif" font-size="10.00">nix::Expr::AstSymbols</text>
</a>
</g>
</g>
<!-- Node8&#45;&gt;Node9 -->
<g id="edge9_Node000009_Node000008" class="edge">
<title>Node8&#45;&gt;Node9</title>
<g id="a_edge9_Node000009_Node000008"><a xlink:title=" ">
<path fill="none" stroke="#9a32cd" stroke-dasharray="5,2" d="M210.64,-279.68C236.02,-279.88 267.85,-280.19 296.25,-280.62 303.02,-280.73 310.11,-280.86 317.16,-280.99"/>
<polygon fill="#9a32cd" stroke="#9a32cd" points="211.01,-276.18 200.98,-279.61 210.96,-283.18 211.01,-276.18"/>
</a>
</g>
<text text-anchor="middle" x="256.75" y="-385.88" font-family="Helvetica,sans-Serif" font-size="10.00" fill="grey"> body</text>
<text text-anchor="middle" x="256.75" y="-373.12" font-family="Helvetica,sans-Serif" font-size="10.00" fill="grey">div</text>
<text text-anchor="middle" x="256.75" y="-360.38" font-family="Helvetica,sans-Serif" font-size="10.00" fill="grey">findFile</text>
<text text-anchor="middle" x="256.75" y="-347.62" font-family="Helvetica,sans-Serif" font-size="10.00" fill="grey">lessThan</text>
<text text-anchor="middle" x="256.75" y="-334.88" font-family="Helvetica,sans-Serif" font-size="10.00" fill="grey">mul</text>
<text text-anchor="middle" x="256.75" y="-322.12" font-family="Helvetica,sans-Serif" font-size="10.00" fill="grey">nixPath</text>
<text text-anchor="middle" x="256.75" y="-309.38" font-family="Helvetica,sans-Serif" font-size="10.00" fill="grey">or_</text>
<text text-anchor="middle" x="256.75" y="-296.62" font-family="Helvetica,sans-Serif" font-size="10.00" fill="grey">overrides</text>
<text text-anchor="middle" x="256.75" y="-283.88" font-family="Helvetica,sans-Serif" font-size="10.00" fill="grey">sub</text>
</g>
<!-- Node21 -->
<g id="Node000021" class="node">
<title>Node21</title>
<g id="a_Node000021"><a xlink:href="structnix_1_1ExprLambda.html" target="_top" xlink:title=" ">
<polygon fill="white" stroke="#bfbfbf" points="427.38,-200.75 329.62,-200.75 329.62,-180 427.38,-180 427.38,-200.75"/>
<text text-anchor="middle" x="378.5" y="-187.25" font-family="Helvetica,sans-Serif" font-size="10.00">nix::ExprLambda</text>
</a>
</g>
</g>
<!-- Node8&#45;&gt;Node21 -->
<g id="edge28_Node000021_Node000008" class="edge">
<title>Node8&#45;&gt;Node21</title>
<g id="a_edge28_Node000021_Node000008"><a xlink:title=" ">
<path fill="none" stroke="#9a32cd" stroke-dasharray="5,2" d="M201.65,-264.3C228.55,-253.31 265.15,-237.57 296.25,-221.38 304.57,-217.05 305.72,-214.26 314.25,-210.38 321.8,-206.94 330.1,-203.85 338.14,-201.19"/>
<polygon fill="#9a32cd" stroke="#9a32cd" points="200.48,-261 192.52,-267.99 203.1,-267.49 200.48,-261"/>
</a>
</g>
<text text-anchor="middle" x="256.75" y="-260.75" font-family="Helvetica,sans-Serif" font-size="10.00" fill="grey"> name</text>
</g>
<!-- Node9&#45;&gt;Node7 -->
<g id="edge8_Node000007_Node000009" class="edge">
<title>Node9&#45;&gt;Node7</title>
<g id="a_edge8_Node000007_Node000009"><a xlink:title=" ">
<path fill="none" stroke="#9a32cd" stroke-dasharray="5,2" d="M451.5,-285.34C482.02,-286.6 516.94,-288.04 545.02,-289.2"/>
<polygon fill="#9a32cd" stroke="#9a32cd" points="451.69,-281.85 441.55,-284.93 451.4,-288.84 451.69,-281.85"/>
</a>
</g>
<text text-anchor="middle" x="494.12" y="-291.71" font-family="Helvetica,sans-Serif" font-size="10.00" fill="grey"> exprSymbols</text>
</g>
<!-- Node10 -->
<g id="Node000010" class="node">
<title>Node10</title>
<g id="a_Node000010"><a xlink:href="classnix_1_1EvalMemory.html" target="_top" xlink:title=" ">
<polygon fill="white" stroke="#bfbfbf" points="1017.25,-185.75 918.75,-185.75 918.75,-165 1017.25,-165 1017.25,-185.75"/>
<text text-anchor="middle" x="968" y="-172.25" font-family="Helvetica,sans-Serif" font-size="10.00">nix::EvalMemory</text>
</a>
</g>
</g>
<!-- Node10&#45;&gt;Node4 -->
<g id="edge10_Node000004_Node000010" class="edge">
<title>Node10&#45;&gt;Node4</title>
<g id="a_edge10_Node000004_Node000010"><a xlink:title=" ">
<path fill="none" stroke="#9a32cd" stroke-dasharray="5,2" d="M1028.65,-185.46C1053.12,-190.72 1081.37,-198.27 1105.75,-208.62 1124.94,-216.78 1144.88,-230.23 1157.73,-239.66"/>
<polygon fill="#9a32cd" stroke="#9a32cd" points="1029.68,-182.1 1019.18,-183.51 1028.27,-188.96 1029.68,-182.1"/>
</a>
</g>
<text text-anchor="middle" x="1079.5" y="-211.88" font-family="Helvetica,sans-Serif" font-size="10.00" fill="grey"> mem</text>
</g>
<!-- Node11 -->
<g id="Node000011" class="node">
<title>Node11</title>
<g id="a_Node000011"><a xlink:href="structnix_1_1EvalRuntimeCaches.html" target="_top" xlink:title=" ">
<polygon fill="white" stroke="#bfbfbf" points="1035.25,-146.75 900.75,-146.75 900.75,-126 1035.25,-126 1035.25,-146.75"/>
<text text-anchor="middle" x="968" y="-133.25" font-family="Helvetica,sans-Serif" font-size="10.00">nix::EvalRuntimeCaches</text>
</a>
</g>
</g>
<!-- Node11&#45;&gt;Node4 -->
<g id="edge11_Node000004_Node000011" class="edge">
<title>Node11&#45;&gt;Node4</title>
<g id="a_edge11_Node000004_Node000011"><a xlink:title=" ">
<path fill="none" stroke="#9a32cd" stroke-dasharray="5,2" d="M1046.67,-149.74C1066.91,-155.41 1087.99,-163.4 1105.75,-174.62 1132.71,-191.67 1154.79,-223.05 1165.19,-239.57"/>
<polygon fill="#9a32cd" stroke="#9a32cd" points="1047.57,-146.36 1037.01,-147.21 1045.8,-153.13 1047.57,-146.36"/>
</a>
</g>
<text text-anchor="middle" x="1079.5" y="-177.88" font-family="Helvetica,sans-Serif" font-size="10.00" fill="grey"> caches</text>
</g>
<!-- Node12 -->
<g id="Node000012" class="node">
<title>Node12</title>
<g id="a_Node000012"><a xlink:href="classnix_1_1EvalPaths.html" target="_top" xlink:title=" ">
<polygon fill="white" stroke="#bfbfbf" points="1010.12,-107.75 925.88,-107.75 925.88,-87 1010.12,-87 1010.12,-107.75"/>
<text text-anchor="middle" x="968" y="-94.25" font-family="Helvetica,sans-Serif" font-size="10.00">nix::EvalPaths</text>
</a>
</g>
</g>
<!-- Node12&#45;&gt;Node4 -->
<g id="edge12_Node000004_Node000012" class="edge">
<title>Node12&#45;&gt;Node4</title>
<g id="a_edge12_Node000004_Node000012"><a xlink:title=" ">
<path fill="none" stroke="#9a32cd" stroke-dasharray="5,2" d="M1021.75,-102.5C1049.12,-107.39 1081.74,-116.95 1105.75,-135.62 1141.65,-163.55 1161.42,-216.92 1168.54,-239.67"/>
<polygon fill="#9a32cd" stroke="#9a32cd" points="1022.31,-99.04 1011.88,-100.91 1021.2,-105.95 1022.31,-99.04"/>
</a>
</g>
<text text-anchor="middle" x="1079.5" y="-138.88" font-family="Helvetica,sans-Serif" font-size="10.00" fill="grey"> paths</text>
</g>
<!-- Node13 -->
<g id="Node000013" class="node">
<title>Node13</title>
<g id="a_Node000013"><a xlink:href="classnix_1_1EvalBuiltins.html" target="_top" xlink:title=" ">
<polygon fill="white" stroke="#bfbfbf" points="1015.38,-224.75 920.62,-224.75 920.62,-204 1015.38,-204 1015.38,-224.75"/>
<text text-anchor="middle" x="968" y="-211.25" font-family="Helvetica,sans-Serif" font-size="10.00">nix::EvalBuiltins</text>
</a>
</g>
</g>
<!-- Node13&#45;&gt;Node4 -->
<g id="edge13_Node000004_Node000013" class="edge">
<title>Node13&#45;&gt;Node4</title>
<g id="a_edge13_Node000004_Node000013"><a xlink:title=" ">
<path fill="none" stroke="#9a32cd" stroke-dasharray="5,2" d="M1026.94,-221.81C1051.35,-225.24 1080.02,-229.65 1105.75,-234.62 1113.83,-236.19 1122.42,-238.07 1130.63,-239.99"/>
<polygon fill="#9a32cd" stroke="#9a32cd" points="1027.58,-218.36 1017.19,-220.46 1026.62,-225.3 1027.58,-218.36"/>
</a>
</g>
<text text-anchor="middle" x="1079.5" y="-237.88" font-family="Helvetica,sans-Serif" font-size="10.00" fill="grey"> builtins</text>
</g>
<!-- Node14 -->
<g id="Node000014" class="node">
<title>Node14</title>
<g id="a_Node000014"><a xlink:href="structnix_1_1Env.html" target="_top" xlink:title=" ">
<polygon fill="white" stroke="#bfbfbf" points="798,-195.75 743,-195.75 743,-175 798,-175 798,-195.75"/>
<text text-anchor="middle" x="770.5" y="-182.25" font-family="Helvetica,sans-Serif" font-size="10.00">nix::Env</text>
</a>
</g>
</g>
<!-- Node14&#45;&gt;Node13 -->
<g id="edge14_Node000013_Node000014" class="edge">
<title>Node14&#45;&gt;Node13</title>
<g id="a_edge14_Node000013_Node000014"><a xlink:title=" ">
<path fill="none" stroke="#9a32cd" stroke-dasharray="5,2" d="M809.28,-190.98C840.97,-195.68 886.35,-202.41 920.31,-207.45"/>
<polygon fill="#9a32cd" stroke="#9a32cd" points="810.18,-187.57 799.77,-189.57 809.15,-194.5 810.18,-187.57"/>
</a>
</g>
<text text-anchor="middle" x="859.12" y="-204.86" font-family="Helvetica,sans-Serif" font-size="10.00" fill="grey"> env</text>
</g>
<!-- Node14&#45;&gt;Node14 -->
<g id="edge15_Node000014_Node000014" class="edge">
<title>Node14&#45;&gt;Node14</title>
<g id="a_edge15_Node000014_Node000014"><a xlink:title=" ">
<path fill="none" stroke="#9a32cd" stroke-dasharray="5,2" d="M756.13,-207.56C758.17,-211.23 762.96,-213.75 770.5,-213.75 784.7,-213.75 789.14,-204.81 783.81,-196.15"/>
<polygon fill="#9a32cd" stroke="#9a32cd" points="759.61,-207.93 757.05,-197.65 752.64,-207.29 759.61,-207.93"/>
</a>
</g>
<text text-anchor="middle" x="770.5" y="-217" font-family="Helvetica,sans-Serif" font-size="10.00" fill="grey"> up</text>
</g>
<!-- Node15 -->
<g id="Node000015" class="node">
<title>Node15</title>
<g id="a_Node000015"><a xlink:href="structnix_1_1Value.html" target="_top" xlink:title=" ">
<polygon fill="white" stroke="#bfbfbf" points="630.88,-159.75 566.88,-159.75 566.88,-139 630.88,-139 630.88,-159.75"/>
<text text-anchor="middle" x="598.88" y="-146.25" font-family="Helvetica,sans-Serif" font-size="10.00">nix::Value</text>
</a>
</g>
</g>
<!-- Node14&#45;&gt;Node15 -->
<g id="edge23_Node000015_Node000014" class="edge">
<title>Node14&#45;&gt;Node15</title>
<g id="a_edge23_Node000015_Node000014"><a xlink:title=" ">
<path fill="none" stroke="#9a32cd" stroke-dasharray="5,2" d="M731.78,-177.37C701.47,-170.94 659.4,-162.01 630.99,-155.98"/>
<polygon fill="#9a32cd" stroke="#9a32cd" points="730.78,-180.74 741.29,-179.39 732.24,-173.89 730.78,-180.74"/>
</a>
</g>
<text text-anchor="middle" x="687.88" y="-174.91" font-family="Helvetica,sans-Serif" font-size="10.00" fill="grey"> env</text>
</g>
<!-- Node15&#45;&gt;Node14 -->
<g id="edge16_Node000014_Node000015" class="edge">
<title>Node15&#45;&gt;Node14</title>
<g id="a_edge16_Node000014_Node000015"><a xlink:title=" ">
<path fill="none" stroke="#9a32cd" stroke-dasharray="5,2" d="M642.65,-145.24C662.11,-144.54 685.27,-145.36 705.5,-150.62 723.61,-155.34 742.17,-166.22 754.61,-174.56"/>
<polygon fill="#9a32cd" stroke="#9a32cd" points="642.68,-141.73 632.88,-145.75 643.05,-148.73 642.68,-141.73"/>
</a>
</g>
<text text-anchor="middle" x="687.88" y="-153.88" font-family="Helvetica,sans-Serif" font-size="10.00" fill="grey"> values</text>
</g>
<!-- Node15&#45;&gt;Node15 -->
<g id="edge17_Node000015_Node000015" class="edge">
<title>Node15&#45;&gt;Node15</title>
<g id="a_edge17_Node000015_Node000015"><a xlink:title=" ">
<path fill="none" stroke="#9a32cd" stroke-dasharray="5,2" d="M583.4,-171.56C585.59,-175.23 590.75,-177.75 598.88,-177.75 614.17,-177.75 618.95,-168.81 613.22,-160.15"/>
<polygon fill="#9a32cd" stroke="#9a32cd" points="586.88,-171.95 584.38,-161.65 579.91,-171.26 586.88,-171.95"/>
</a>
</g>
<text text-anchor="middle" x="598.88" y="-232" font-family="Helvetica,sans-Serif" font-size="10.00" fill="grey"> EMPTY_LIST</text>
<text text-anchor="middle" x="598.88" y="-219.25" font-family="Helvetica,sans-Serif" font-size="10.00" fill="grey">elems</text>
<text text-anchor="middle" x="598.88" y="-206.5" font-family="Helvetica,sans-Serif" font-size="10.00" fill="grey">left</text>
<text text-anchor="middle" x="598.88" y="-193.75" font-family="Helvetica,sans-Serif" font-size="10.00" fill="grey">right</text>
<text text-anchor="middle" x="598.88" y="-181" font-family="Helvetica,sans-Serif" font-size="10.00" fill="grey">smallList</text>
</g>
<!-- Node16 -->
<g id="Node000016" class="node">
<title>Node16</title>
<g id="a_Node000016"><a xlink:href="structnix_1_1checked_1_1Checked.html" target="_top" xlink:title=" ">
<polygon fill="white" stroke="#666666" points="440.5,-75.12 316.5,-75.12 316.5,-41.62 440.5,-41.62 440.5,-75.12"/>
<text text-anchor="start" x="324.5" y="-61.62" font-family="Helvetica,sans-Serif" font-size="10.00">nix::checked::Checked</text>
<text text-anchor="middle" x="378.5" y="-48.88" font-family="Helvetica,sans-Serif" font-size="10.00">&lt; int64_t &gt;</text>
</a>
</g>
</g>
<!-- Node16&#45;&gt;Node15 -->
<g id="edge18_Node000015_Node000016" class="edge">
<title>Node16&#45;&gt;Node15</title>
<g id="a_edge18_Node000015_Node000016"><a xlink:title=" ">
<path fill="none" stroke="#9a32cd" stroke-dasharray="5,2" d="M452.11,-69.1C476.83,-74.44 504.11,-82.27 527.5,-93.62 551.34,-105.2 574.55,-125.98 587.46,-138.64"/>
<polygon fill="#9a32cd" stroke="#9a32cd" points="452.93,-65.69 442.43,-67.12 451.53,-72.55 452.93,-65.69"/>
</a>
</g>
<text text-anchor="middle" x="494.12" y="-96.88" font-family="Helvetica,sans-Serif" font-size="10.00" fill="grey"> integer</text>
</g>
<!-- Node17 -->
<g id="Node000017" class="node">
<title>Node17</title>
<g id="a_Node000017"><a xlink:title=" ">
<polygon fill="white" stroke="#bfbfbf" points="176.78,-84.75 147.97,-84.75 147.97,-64 176.78,-64 176.78,-84.75"/>
<text text-anchor="middle" x="162.38" y="-71.25" font-family="Helvetica,sans-Serif" font-size="10.00">T</text>
</a>
</g>
</g>
<!-- Node17&#45;&gt;Node16 -->
<g id="edge19_Node000016_Node000017" class="edge">
<title>Node17&#45;&gt;Node16</title>
<g id="a_edge19_Node000016_Node000017"><a xlink:title=" ">
<path fill="none" stroke="#9a32cd" stroke-dasharray="5,2" d="M188.58,-72.49C219.73,-70.16 273.81,-66.12 316.15,-62.96"/>
<polygon fill="#9a32cd" stroke="#9a32cd" points="188.32,-69 178.6,-73.24 188.84,-75.98 188.32,-69"/>
</a>
</g>
<text text-anchor="middle" x="256.75" y="-73.33" font-family="Helvetica,sans-Serif" font-size="10.00" fill="grey"> value</text>
</g>
<!-- Node18 -->
<g id="Node000018" class="node">
<title>Node18</title>
<g id="a_Node000018"><a xlink:href="classnix_1_1Bindings.html" target="_top" xlink:title=" ">
<polygon fill="white" stroke="#666666" points="296.25,-20.75 217.25,-20.75 217.25,0 296.25,0 296.25,-20.75"/>
<text text-anchor="middle" x="256.75" y="-7.25" font-family="Helvetica,sans-Serif" font-size="10.00">nix::Bindings</text>
</a>
</g>
</g>
<!-- Node18&#45;&gt;Node15 -->
<g id="edge20_Node000015_Node000018" class="edge">
<title>Node18&#45;&gt;Node15</title>
<g id="a_edge20_Node000015_Node000018"><a xlink:title=" ">
<path fill="none" stroke="#9a32cd" stroke-dasharray="5,2" d="M307.74,-6.74C345.56,-5.45 398.38,-6.79 442.75,-19.62 484.28,-31.64 494.08,-39.94 527.5,-67.38 554.18,-89.28 578.86,-122.06 590.64,-138.76"/>
<polygon fill="#9a32cd" stroke="#9a32cd" points="307.86,-3.23 298.02,-7.15 308.16,-10.23 307.86,-3.23"/>
</a>
</g>
<text text-anchor="middle" x="378.5" y="-22.88" font-family="Helvetica,sans-Serif" font-size="10.00" fill="grey"> attrs</text>
</g>
<!-- Node18&#45;&gt;Node18 -->
<g id="edge22_Node000018_Node000018" class="edge">
<title>Node18&#45;&gt;Node18</title>
<g id="a_edge22_Node000018_Node000018"><a xlink:title=" ">
<path fill="none" stroke="#9a32cd" stroke-dasharray="5,2" d="M240.34,-32.56C242.66,-36.23 248.13,-38.75 256.75,-38.75 272.97,-38.75 278.04,-29.81 271.96,-21.15"/>
<polygon fill="#9a32cd" stroke="#9a32cd" points="243.82,-32.96 241.38,-22.65 236.86,-32.23 243.82,-32.96"/>
</a>
</g>
<text text-anchor="middle" x="256.75" y="-42" font-family="Helvetica,sans-Serif" font-size="10.00" fill="grey"> EMPTY</text>
</g>
<!-- Node19 -->
<g id="Node000019" class="node">
<title>Node19</title>
<g id="a_Node000019"><a xlink:href="classnix_1_1PosIdx.html" target="_top" xlink:title=" ">
<polygon fill="white" stroke="#bfbfbf" points="69.25,-168.75 0,-168.75 0,-148 69.25,-148 69.25,-168.75"/>
<text text-anchor="middle" x="34.62" y="-155.25" font-family="Helvetica,sans-Serif" font-size="10.00">nix::PosIdx</text>
</a>
</g>
</g>
<!-- Node19&#45;&gt;Node1 -->
<g id="edge40_Node000001_Node000019" class="edge">
<title>Node19&#45;&gt;Node1</title>
<g id="a_edge40_Node000001_Node000019"><a xlink:title=" ">
<path fill="none" stroke="#9a32cd" stroke-dasharray="5,2" d="M37.39,-180.4C44.88,-266.74 77.67,-577.38 161.38,-577.38 161.38,-577.38 161.38,-577.38 1324.25,-577.38 1360.91,-577.38 1402.11,-577.38 1434.32,-577.38"/>
<polygon fill="#9a32cd" stroke="#9a32cd" points="40.89,-180.33 36.57,-170.66 33.92,-180.92 40.89,-180.33"/>
</a>
</g>
<text text-anchor="middle" x="770.5" y="-580.62" font-family="Helvetica,sans-Serif" font-size="10.00" fill="grey"> pos</text>
</g>
<!-- Node19&#45;&gt;Node18 -->
<g id="edge21_Node000018_Node000019" class="edge">
<title>Node19&#45;&gt;Node18</title>
<g id="a_edge21_Node000018_Node000019"><a xlink:title=" ">
<path fill="none" stroke="#9a32cd" stroke-dasharray="5,2" d="M48.4,-138.22C63.98,-115.16 92.39,-77.69 125.5,-55.38 153.28,-36.66 189.63,-24.95 216.87,-18.19"/>
<polygon fill="#9a32cd" stroke="#9a32cd" points="45.57,-136.16 43,-146.44 51.42,-140 45.57,-136.16"/>
</a>
</g>
<text text-anchor="middle" x="97.38" y="-91.95" font-family="Helvetica,sans-Serif" font-size="10.00" fill="grey"> pos</text>
</g>
<!-- Node20 -->
<g id="Node000020" class="node">
<title>Node20</title>
<g id="a_Node000020"><a xlink:href="structnix_1_1Expr.html" target="_top" xlink:title=" ">
<polygon fill="white" stroke="#bfbfbf" points="191.75,-168.75 133,-168.75 133,-148 191.75,-148 191.75,-168.75"/>
<text text-anchor="middle" x="162.38" y="-155.25" font-family="Helvetica,sans-Serif" font-size="10.00">nix::Expr</text>
</a>
</g>
</g>
<!-- Node19&#45;&gt;Node20 -->
<g id="edge25_Node000020_Node000019" class="edge">
<title>Node19&#45;&gt;Node20</title>
<g id="a_edge25_Node000020_Node000019"><a xlink:title=" ">
<path fill="none" stroke="#9a32cd" stroke-dasharray="5,2" d="M80.73,-158.38C98.11,-158.38 117.46,-158.38 132.85,-158.38"/>
<polygon fill="#9a32cd" stroke="#9a32cd" points="81.17,-154.88 71.17,-158.38 81.17,-161.88 81.17,-154.88"/>
</a>
</g>
<text text-anchor="middle" x="97.38" y="-161.62" font-family="Helvetica,sans-Serif" font-size="10.00" fill="grey"> pos</text>
</g>
<!-- Node20&#45;&gt;Node15 -->
<g id="edge24_Node000015_Node000020" class="edge">
<title>Node20&#45;&gt;Node15</title>
<g id="a_edge24_Node000015_Node000020"><a xlink:title=" ">
<path fill="none" stroke="#9a32cd" stroke-dasharray="5,2" d="M203.55,-157.54C289.36,-155.77 489.03,-151.63 566.43,-150.03"/>
<polygon fill="#9a32cd" stroke="#9a32cd" points="203.66,-154.04 193.73,-157.75 203.8,-161.04 203.66,-154.04"/>
</a>
</g>
<text text-anchor="middle" x="378.5" y="-158.46" font-family="Helvetica,sans-Serif" font-size="10.00" fill="grey"> expr</text>
</g>
<!-- Node20&#45;&gt;Node21 -->
<g id="edge27_Node000021_Node000020" class="edge">
<title>Node20&#45;&gt;Node21</title>
<g id="a_edge27_Node000021_Node000020"><a xlink:title=" ">
<path fill="none" stroke="#63b8ff" d="M202.75,-164.26C238.41,-169.59 291.06,-177.46 329.24,-183.16"/>
<polygon fill="#63b8ff" stroke="#63b8ff" points="203.71,-160.86 193.31,-162.85 202.68,-167.79 203.71,-160.86"/>
</a>
</g>
</g>
<!-- Node21&#45;&gt;Node15 -->
<g id="edge26_Node000015_Node000021" class="edge">
<title>Node21&#45;&gt;Node15</title>
<g id="a_edge26_Node000015_Node000021"><a xlink:title=" ">
<path fill="none" stroke="#9a32cd" stroke-dasharray="5,2" d="M439.09,-179.73C466.1,-174.84 498.43,-168.92 527.5,-163.38 540.35,-160.93 554.5,-158.13 566.72,-155.68"/>
<polygon fill="#9a32cd" stroke="#9a32cd" points="438.57,-176.26 429.35,-181.48 439.81,-183.15 438.57,-176.26"/>
</a>
</g>
<text text-anchor="middle" x="494.12" y="-178.71" font-family="Helvetica,sans-Serif" font-size="10.00" fill="grey"> fun</text>
</g>
<!-- Node22 -->
<g id="Node000022" class="node">
<title>Node22</title>
<g id="a_Node000022"><a xlink:href="structnix_1_1PrimOp.html" target="_top" xlink:title=" ">
<polygon fill="white" stroke="#666666" points="415,-239.75 342,-239.75 342,-219 415,-219 415,-239.75"/>
<text text-anchor="middle" x="378.5" y="-226.25" font-family="Helvetica,sans-Serif" font-size="10.00">nix::PrimOp</text>
</a>
</g>
</g>
<!-- Node22&#45;&gt;Node15 -->
<g id="edge29_Node000015_Node000022" class="edge">
<title>Node22&#45;&gt;Node15</title>
<g id="a_edge29_Node000015_Node000022"><a xlink:title=" ">
<path fill="none" stroke="#9a32cd" stroke-dasharray="5,2" d="M426.76,-221.37C456.41,-215.42 495.04,-205.97 527.5,-192.38 547.97,-183.8 569.45,-169.84 583.21,-160.17"/>
<polygon fill="#9a32cd" stroke="#9a32cd" points="426.1,-217.93 416.94,-223.26 427.43,-224.8 426.1,-217.93"/>
</a>
</g>
<text text-anchor="middle" x="494.12" y="-216.2" font-family="Helvetica,sans-Serif" font-size="10.00" fill="grey"> primOp</text>
</g>
<!-- Node23 -->
<g id="Node000023" class="node">
<title>Node23</title>
<g id="a_Node000023"><a xlink:title=" ">
<polygon fill="white" stroke="#bfbfbf" points="184.25,-217.75 140.5,-217.75 140.5,-197 184.25,-197 184.25,-217.75"/>
<text text-anchor="middle" x="162.38" y="-204.25" font-family="Helvetica,sans-Serif" font-size="10.00">string</text>
</a>
</g>
</g>
<!-- Node23&#45;&gt;Node22 -->
<g id="edge30_Node000022_Node000023" class="edge">
<title>Node23&#45;&gt;Node22</title>
<g id="a_edge30_Node000022_Node000023"><a xlink:title=" ">
<path fill="none" stroke="#9a32cd" stroke-dasharray="5,2" d="M196.13,-205.5C223.12,-204.48 262.33,-204.2 296.25,-208.62 311.7,-210.64 328.43,-214.6 342.67,-218.52"/>
<polygon fill="#9a32cd" stroke="#9a32cd" points="196,-202 186.17,-205.94 196.31,-209 196,-202"/>
</a>
</g>
<text text-anchor="middle" x="256.75" y="-211.88" font-family="Helvetica,sans-Serif" font-size="10.00" fill="grey"> name</text>
</g>
<!-- Node24 -->
<g id="Node000024" class="node">
<title>Node24</title>
<g id="a_Node000024"><a xlink:href="classnix_1_1ExternalValueBase.html" target="_top" xlink:title=" ">
<polygon fill="white" stroke="#666666" points="442.75,-113.75 314.25,-113.75 314.25,-93 442.75,-93 442.75,-113.75"/>
<text text-anchor="middle" x="378.5" y="-100.25" font-family="Helvetica,sans-Serif" font-size="10.00">nix::ExternalValueBase</text>
</a>
</g>
</g>
<!-- Node24&#45;&gt;Node15 -->
<g id="edge31_Node000015_Node000024" class="edge">
<title>Node24&#45;&gt;Node15</title>
<g id="a_edge31_Node000015_Node000024"><a xlink:title=" ">
<path fill="none" stroke="#9a32cd" stroke-dasharray="5,2" d="M454.49,-109.68C478.07,-112.58 504.07,-116.73 527.5,-122.62 543.22,-126.58 560.22,-132.98 573.58,-138.53"/>
<polygon fill="#9a32cd" stroke="#9a32cd" points="454.97,-106.21 444.63,-108.53 454.16,-113.17 454.97,-106.21"/>
</a>
</g>
<text text-anchor="middle" x="494.12" y="-125.88" font-family="Helvetica,sans-Serif" font-size="10.00" fill="grey"> external</text>
</g>
<!-- Node25 -->
<g id="Node000025" class="node">
<title>Node25</title>
<g id="a_Node000025"><a xlink:href="structnix_1_1EvalStatistics.html" target="_top" xlink:title=" ">
<polygon fill="white" stroke="#bfbfbf" points="1019.5,-68.75 916.5,-68.75 916.5,-48 1019.5,-48 1019.5,-68.75"/>
<text text-anchor="middle" x="968" y="-55.25" font-family="Helvetica,sans-Serif" font-size="10.00">nix::EvalStatistics</text>
</a>
</g>
</g>
<!-- Node25&#45;&gt;Node4 -->
<g id="edge32_Node000004_Node000025" class="edge">
<title>Node25&#45;&gt;Node4</title>
<g id="a_edge32_Node000004_Node000025"><a xlink:title=" ">
<path fill="none" stroke="#9a32cd" stroke-dasharray="5,2" d="M1031.05,-62.36C1056.68,-66.83 1085.15,-75.82 1105.75,-93.62 1151.98,-133.58 1166.52,-211.41 1170.39,-239.74"/>
<polygon fill="#9a32cd" stroke="#9a32cd" points="1031.81,-58.93 1021.39,-60.88 1030.75,-65.85 1031.81,-58.93"/>
</a>
</g>
<text text-anchor="middle" x="1079.5" y="-96.88" font-family="Helvetica,sans-Serif" font-size="10.00" fill="grey"> stats</text>
</g>
<!-- Node26 -->
<g id="Node000026" class="node">
<title>Node26</title>
<g id="a_Node000026"><a xlink:href="classnix_1_1ref.html" target="_top" xlink:title=" ">
<polygon fill="white" stroke="#666666" points="1027.75,-263.75 908.25,-263.75 908.25,-243 1027.75,-243 1027.75,-263.75"/>
<text text-anchor="middle" x="968" y="-250.25" font-family="Helvetica,sans-Serif" font-size="10.00">nix::ref&lt; nix::Store &gt;</text>
</a>
</g>
</g>
<!-- Node26&#45;&gt;Node4 -->
<g id="edge33_Node000004_Node000026" class="edge">
<title>Node26&#45;&gt;Node4</title>
<g id="a_edge33_Node000004_Node000026"><a xlink:title=" ">
<path fill="none" stroke="#9a32cd" stroke-dasharray="5,2" d="M1039.11,-252.1C1043.89,-252.02 1048.64,-251.95 1053.25,-251.88 1078.94,-251.48 1107.76,-251.12 1130.54,-250.84"/>
<polygon fill="#9a32cd" stroke="#9a32cd" points="1039.37,-248.59 1029.43,-252.26 1039.49,-255.59 1039.37,-248.59"/>
</a>
</g>
<text text-anchor="middle" x="1079.5" y="-267.88" font-family="Helvetica,sans-Serif" font-size="10.00" fill="grey"> buildStore</text>
<text text-anchor="middle" x="1079.5" y="-255.12" font-family="Helvetica,sans-Serif" font-size="10.00" fill="grey">store</text>
</g>
<!-- Node27&#45;&gt;Node4 -->
<g id="edge34_Node000004_Node000027" class="edge">
<title>Node27&#45;&gt;Node4</title>
<g id="a_edge34_Node000004_Node000027"><a xlink:title=" ">
<path fill="none" stroke="#9a32cd" stroke-dasharray="5,2" d="M1039.52,-324.13C1061.47,-320.65 1085.27,-314.88 1105.75,-305.38 1128.72,-294.71 1150.23,-273.95 1162.09,-261.21"/>
<polygon fill="#9a32cd" stroke="#9a32cd" points="1039.13,-320.65 1029.74,-325.54 1040.13,-327.58 1039.13,-320.65"/>
</a>
</g>
<text text-anchor="middle" x="1079.5" y="-324.53" font-family="Helvetica,sans-Serif" font-size="10.00" fill="grey"> errors</text>
</g>
<!-- Node28 -->
<g id="Node000028" class="node">
<title>Node28</title>
<g id="a_Node000028"><a xlink:href="structnix_1_1DebugState.html" target="_top" xlink:title=" ">
<polygon fill="white" stroke="#bfbfbf" points="817.5,-339.75 723.5,-339.75 723.5,-319 817.5,-319 817.5,-339.75"/>
<text text-anchor="middle" x="770.5" y="-326.25" font-family="Helvetica,sans-Serif" font-size="10.00">nix::DebugState</text>
</a>
</g>
</g>
<!-- Node28&#45;&gt;Node27 -->
<g id="edge36_Node000027_Node000028" class="edge">
<title>Node28&#45;&gt;Node27</title>
<g id="a_edge36_Node000027_Node000028"><a xlink:title=" ">
<path fill="none" stroke="#9a32cd" stroke-dasharray="5,2" d="M829.28,-329.38C854.09,-329.38 883.06,-329.38 908.01,-329.38"/>
<polygon fill="#9a32cd" stroke="#9a32cd" points="829.34,-325.88 819.34,-329.38 829.34,-332.88 829.34,-325.88"/>
</a>
</g>
<text text-anchor="middle" x="859.12" y="-332.62" font-family="Helvetica,sans-Serif" font-size="10.00" fill="grey"> debug</text>
</g>
<!-- Node29 -->
<g id="Node000029" class="node">
<title>Node29</title>
<g id="a_Node000029"><a xlink:href="structnix_1_1AsyncIoRoot.html" target="_top" xlink:title=" ">
<polygon fill="white" stroke="#bfbfbf" points="1221.5,-506.75 1123.75,-506.75 1123.75,-486 1221.5,-486 1221.5,-506.75"/>
<text text-anchor="middle" x="1172.62" y="-493.25" font-family="Helvetica,sans-Serif" font-size="10.00">nix::AsyncIoRoot</text>
</a>
</g>
</g>
<!-- Node29&#45;&gt;Node3 -->
<g id="edge37_Node000003_Node000029" class="edge">
<title>Node29&#45;&gt;Node3</title>
<g id="a_edge37_Node000003_Node000029"><a xlink:title=" ">
<path fill="none" stroke="#9a32cd" stroke-dasharray="5,2" d="M1233.36,-496.38C1249.42,-496.38 1266.43,-496.38 1281.21,-496.38"/>
<polygon fill="#9a32cd" stroke="#9a32cd" points="1233.39,-492.88 1223.39,-496.38 1233.39,-499.88 1233.39,-492.88"/>
</a>
</g>
<text text-anchor="middle" x="1248.5" y="-499.62" font-family="Helvetica,sans-Serif" font-size="10.00" fill="grey"> aio</text>
</g>
<!-- Node30 -->
<g id="Node000030" class="node">
<title>Node30</title>
<g id="a_Node000030"><a xlink:href="structnix_1_1AsyncContext.html" target="_top" xlink:title=" ">
<polygon fill="white" stroke="#bfbfbf" points="1020.25,-506.75 915.75,-506.75 915.75,-486 1020.25,-486 1020.25,-506.75"/>
<text text-anchor="middle" x="968" y="-493.25" font-family="Helvetica,sans-Serif" font-size="10.00">nix::AsyncContext</text>
</a>
</g>
</g>
<!-- Node30&#45;&gt;Node29 -->
<g id="edge38_Node000029_Node000030" class="edge">
<title>Node30&#45;&gt;Node29</title>
<g id="a_edge38_Node000029_Node000030"><a xlink:title=" ">
<path fill="none" stroke="#9a32cd" stroke-dasharray="5,2" d="M1032.11,-496.38C1061.62,-496.38 1096.2,-496.38 1123.54,-496.38"/>
<polygon fill="#9a32cd" stroke="#9a32cd" points="1032.17,-492.88 1022.17,-496.38 1032.17,-499.88 1032.17,-492.88"/>
</a>
</g>
<text text-anchor="middle" x="1079.5" y="-499.62" font-family="Helvetica,sans-Serif" font-size="10.00" fill="grey"> context</text>
</g>
<!-- Node30&#45;&gt;Node30 -->
<g id="edge39_Node000030_Node000030" class="edge">
<title>Node30&#45;&gt;Node30</title>
<g id="a_edge39_Node000030_Node000030"><a xlink:title=" ">
<path fill="none" stroke="#9a32cd" stroke-dasharray="5,2" d="M949.07,-518.56C951.75,-522.23 958.06,-524.75 968,-524.75 986.71,-524.75 992.56,-515.81 985.54,-507.15"/>
<polygon fill="#9a32cd" stroke="#9a32cd" points="952.54,-519 950.27,-508.65 945.59,-518.15 952.54,-519"/>
</a>
</g>
<text text-anchor="middle" x="968" y="-528" font-family="Helvetica,sans-Serif" font-size="10.00" fill="grey"> current</text>
</g>
</g>
</svg>
