<?xml version="1.0" encoding="UTF-8" standalone="no"?>
<!DOCTYPE svg PUBLIC "-//W3C//DTD SVG 1.1//EN"
 "http://www.w3.org/Graphics/SVG/1.1/DTD/svg11.dtd">
<!-- Generated by graphviz version 12.2.1 (0)
 -->
<!-- Title: nix::EvalCommand Pages: 1 -->
<svg width="326pt" height="349pt"
 viewBox="0.00 0.00 325.88 349.00" xmlns="http://www.w3.org/2000/svg" xmlns:xlink="http://www.w3.org/1999/xlink">
<g id="graph0" class="graph" transform="scale(1 1) rotate(0) translate(4 345)">
<title>nix::EvalCommand</title>
<!-- Node1 -->
<g id="Node000001" class="node">
<title>Node1</title>
<g id="a_Node000001"><a xlink:title=" ">
<polygon fill="#999999" stroke="#666666" points="122.5,-20.75 14.25,-20.75 14.25,0 122.5,0 122.5,-20.75"/>
<text text-anchor="middle" x="68.38" y="-7.25" font-family="Helvetica,sans-Serif" font-size="10.00">nix::EvalCommand</text>
</a>
</g>
</g>
<!-- Node2 -->
<g id="Node000002" class="node">
<title>Node2</title>
<g id="a_Node000002"><a xlink:href="structnix_1_1StoreCommand.html" target="_top" xlink:title=" ">
<polygon fill="white" stroke="#666666" points="112.75,-244.5 0,-244.5 0,-223.75 112.75,-223.75 112.75,-244.5"/>
<text text-anchor="middle" x="56.38" y="-231" font-family="Helvetica,sans-Serif" font-size="10.00">nix::StoreCommand</text>
</a>
</g>
</g>
<!-- Node2&#45;&gt;Node1 -->
<g id="edge1_Node000001_Node000002" class="edge">
<title>Node2&#45;&gt;Node1</title>
<g id="a_edge1_Node000001_Node000002"><a xlink:title=" ">
<path fill="none" stroke="#63b8ff" d="M56.38,-211.83C56.38,-198.87 56.38,-181.98 56.38,-167 56.38,-167 56.38,-167 56.38,-67.12 56.38,-50.69 61.42,-32.13 64.97,-21.11"/>
<polygon fill="#63b8ff" stroke="#63b8ff" points="52.88,-211.75 56.38,-221.75 59.88,-211.75 52.88,-211.75"/>
</a>
</g>
</g>
<!-- Node3 -->
<g id="Node000003" class="node">
<title>Node3</title>
<g id="a_Node000003"><a xlink:href="structnix_1_1Command.html" target="_top" xlink:title=" ">
<polygon fill="white" stroke="#666666" points="184,-341 96.75,-341 96.75,-320.25 184,-320.25 184,-341"/>
<text text-anchor="middle" x="140.38" y="-327.5" font-family="Helvetica,sans-Serif" font-size="10.00">nix::Command</text>
</a>
</g>
</g>
<!-- Node3&#45;&gt;Node2 -->
<g id="edge2_Node000002_Node000003" class="edge">
<title>Node3&#45;&gt;Node2</title>
<g id="a_edge2_Node000002_Node000003"><a xlink:title=" ">
<path fill="none" stroke="#63b8ff" d="M111.43,-314.06C98.97,-306.19 85.08,-295.66 75.38,-283.25 66.3,-271.64 61.06,-255.16 58.46,-244.81"/>
<polygon fill="#63b8ff" stroke="#63b8ff" points="109.32,-316.88 119.7,-319.02 112.92,-310.88 109.32,-316.88"/>
</a>
</g>
</g>
<!-- Node5 -->
<g id="Node000005" class="node">
<title>Node5</title>
<g id="a_Node000005"><a xlink:href="classnix_1_1MultiCommand.html" target="_top" xlink:title=" ">
<polygon fill="white" stroke="#666666" points="196.38,-283.25 84.38,-283.25 84.38,-262.5 196.38,-262.5 196.38,-283.25"/>
<text text-anchor="middle" x="140.38" y="-269.75" font-family="Helvetica,sans-Serif" font-size="10.00">nix::MultiCommand</text>
</a>
</g>
</g>
<!-- Node3&#45;&gt;Node5 -->
<g id="edge5_Node000005_Node000003" class="edge">
<title>Node3&#45;&gt;Node5</title>
<g id="a_edge5_Node000005_Node000003"><a xlink:title=" ">
<path fill="none" stroke="#63b8ff" d="M140.38,-308.68C140.38,-300.02 140.38,-290.4 140.38,-283.47"/>
<polygon fill="#63b8ff" stroke="#63b8ff" points="136.88,-308.4 140.38,-318.4 143.88,-308.4 136.88,-308.4"/>
</a>
</g>
</g>
<!-- Node4 -->
<g id="Node000004" class="node">
<title>Node4</title>
<g id="a_Node000004"><a xlink:href="classnix_1_1Args.html" target="_top" xlink:title=" ">
<polygon fill="white" stroke="#bfbfbf" points="184.75,-205.75 126,-205.75 126,-185 184.75,-185 184.75,-205.75"/>
<text text-anchor="middle" x="155.38" y="-192.25" font-family="Helvetica,sans-Serif" font-size="10.00">nix::Args</text>
</a>
</g>
</g>
<!-- Node4&#45;&gt;Node3 -->
<g id="edge3_Node000003_Node000004" class="edge">
<title>Node4&#45;&gt;Node3</title>
<g id="a_edge3_Node000003_Node000004"><a xlink:title=" ">
<path fill="none" stroke="#63b8ff" d="M178.66,-213.31C182.19,-216.52 185.58,-220.04 188.38,-223.75 204.93,-245.71 217.97,-258.8 205.38,-283.25 196.68,-300.13 178.68,-312.23 163.82,-319.82"/>
<polygon fill="#63b8ff" stroke="#63b8ff" points="180.97,-210.67 171.02,-207.01 176.51,-216.07 180.97,-210.67"/>
</a>
</g>
</g>
<!-- Node6 -->
<g id="Node000006" class="node">
<title>Node6</title>
<g id="a_Node000006"><a xlink:href="structnix_1_1MixEvalArgs.html" target="_top" xlink:title=" ">
<polygon fill="white" stroke="#bfbfbf" points="198.25,-78.5 100.5,-78.5 100.5,-57.75 198.25,-57.75 198.25,-78.5"/>
<text text-anchor="middle" x="149.38" y="-65" font-family="Helvetica,sans-Serif" font-size="10.00">nix::MixEvalArgs</text>
</a>
</g>
</g>
<!-- Node4&#45;&gt;Node6 -->
<g id="edge7_Node000006_Node000004" class="edge">
<title>Node4&#45;&gt;Node6</title>
<g id="a_edge7_Node000006_Node000004"><a xlink:title=" ">
<path fill="none" stroke="#63b8ff" d="M133.88,-176.92C125.83,-169.04 117.62,-159.02 113.38,-148 103.52,-122.44 125.87,-93.36 139.62,-78.68"/>
<polygon fill="#63b8ff" stroke="#63b8ff" points="131.46,-179.46 141.22,-183.57 136.16,-174.27 131.46,-179.46"/>
</a>
</g>
</g>
<!-- Node7 -->
<g id="Node000007" class="node">
<title>Node7</title>
<g id="a_Node000007"><a xlink:href="structnix_1_1MixRepair.html" target="_top" xlink:title=" ">
<polygon fill="white" stroke="#bfbfbf" points="208.62,-148 122.12,-148 122.12,-127.25 208.62,-127.25 208.62,-148"/>
<text text-anchor="middle" x="165.38" y="-134.5" font-family="Helvetica,sans-Serif" font-size="10.00">nix::MixRepair</text>
</a>
</g>
</g>
<!-- Node4&#45;&gt;Node7 -->
<g id="edge9_Node000007_Node000004" class="edge">
<title>Node4&#45;&gt;Node7</title>
<g id="a_edge9_Node000007_Node000004"><a xlink:title=" ">
<path fill="none" stroke="#63b8ff" d="M159.13,-173.43C160.69,-164.77 162.41,-155.15 163.65,-148.22"/>
<polygon fill="#63b8ff" stroke="#63b8ff" points="155.7,-172.71 157.38,-183.17 162.59,-173.95 155.7,-172.71"/>
</a>
</g>
</g>
<!-- Node5&#45;&gt;Node4 -->
<g id="edge4_Node000004_Node000005" class="edge">
<title>Node5&#45;&gt;Node4</title>
<g id="a_edge4_Node000004_Node000005"><a xlink:title=" ">
<path fill="none" stroke="#9a32cd" stroke-dasharray="5,2" d="M144.54,-250.93C147.46,-236.23 151.22,-217.27 153.46,-206.01"/>
<polygon fill="#9a32cd" stroke="#9a32cd" points="141.15,-250.03 142.63,-260.52 148.01,-251.39 141.15,-250.03"/>
</a>
</g>
<text text-anchor="middle" x="166.91" y="-231" font-family="Helvetica,sans-Serif" font-size="10.00" fill="grey"> parent</text>
</g>
<!-- Node6&#45;&gt;Node1 -->
<g id="edge6_Node000001_Node000006" class="edge">
<title>Node6&#45;&gt;Node1</title>
<g id="a_edge6_Node000001_Node000006"><a xlink:title=" ">
<path fill="none" stroke="#63b8ff" d="M126.19,-51.17C112.13,-41.49 94.63,-29.45 82.59,-21.16"/>
<polygon fill="#63b8ff" stroke="#63b8ff" points="123.8,-53.77 134.02,-56.56 127.77,-48 123.8,-53.77"/>
</a>
</g>
</g>
<!-- Node7&#45;&gt;Node6 -->
<g id="edge8_Node000006_Node000007" class="edge">
<title>Node7&#45;&gt;Node6</title>
<g id="a_edge8_Node000006_Node000007"><a xlink:title=" ">
<path fill="none" stroke="#63b8ff" d="M160.44,-115.82C157.52,-103.47 153.94,-88.4 151.66,-78.78"/>
<polygon fill="#63b8ff" stroke="#63b8ff" points="157.02,-116.56 162.73,-125.48 163.83,-114.94 157.02,-116.56"/>
</a>
</g>
</g>
<!-- Node8 -->
<g id="Node000008" class="node">
<title>Node8</title>
<g id="a_Node000008"><a xlink:href="structnix_1_1SearchPath.html" target="_top" xlink:title=" ">
<polygon fill="white" stroke="#666666" points="317.88,-148 226.88,-148 226.88,-127.25 317.88,-127.25 317.88,-148"/>
<text text-anchor="middle" x="272.38" y="-134.5" font-family="Helvetica,sans-Serif" font-size="10.00">nix::SearchPath</text>
</a>
</g>
</g>
<!-- Node8&#45;&gt;Node6 -->
<g id="edge10_Node000006_Node000008" class="edge">
<title>Node8&#45;&gt;Node6</title>
<g id="a_edge10_Node000006_Node000008"><a xlink:title=" ">
<path fill="none" stroke="#9a32cd" stroke-dasharray="5,2" d="M244.69,-121.43C221,-108.43 187.6,-90.1 167.28,-78.95"/>
<polygon fill="#9a32cd" stroke="#9a32cd" points="242.71,-124.34 253.16,-126.08 246.08,-118.2 242.71,-124.34"/>
</a>
</g>
<text text-anchor="middle" x="250.02" y="-99.75" font-family="Helvetica,sans-Serif" font-size="10.00" fill="grey"> searchPath</text>
</g>
</g>
</svg>
