<?xml version="1.0" encoding="UTF-8" standalone="no"?>
<!DOCTYPE svg PUBLIC "-//W3C//DTD SVG 1.1//EN"
 "http://www.w3.org/Graphics/SVG/1.1/DTD/svg11.dtd">
<!-- Generated by graphviz version 12.2.1 (0)
 -->
<!-- Title: nix::AttrName Pages: 1 -->
<svg width="170pt" height="98pt"
 viewBox="0.00 0.00 169.50 98.25" xmlns="http://www.w3.org/2000/svg" xmlns:xlink="http://www.w3.org/1999/xlink">
<g id="graph0" class="graph" transform="scale(1 1) rotate(0) translate(4 94.25)">
<title>nix::AttrName</title>
<!-- Node1 -->
<g id="Node000001" class="node">
<title>Node1</title>
<g id="a_Node000001"><a xlink:title=" ">
<polygon fill="#999999" stroke="#666666" points="121.75,-20.75 37.5,-20.75 37.5,0 121.75,0 121.75,-20.75"/>
<text text-anchor="middle" x="79.62" y="-7.25" font-family="Helvetica,sans-Serif" font-size="10.00">nix::AttrName</text>
</a>
</g>
</g>
<!-- Node2 -->
<g id="Node000002" class="node">
<title>Node2</title>
<g id="a_Node000002"><a xlink:href="classnix_1_1PosIdx.html" target="_top" xlink:title=" ">
<polygon fill="white" stroke="#bfbfbf" points="69.25,-90.25 0,-90.25 0,-69.5 69.25,-69.5 69.25,-90.25"/>
<text text-anchor="middle" x="34.62" y="-76.75" font-family="Helvetica,sans-Serif" font-size="10.00">nix::PosIdx</text>
</a>
</g>
</g>
<!-- Node2&#45;&gt;Node1 -->
<g id="edge1_Node000001_Node000002" class="edge">
<title>Node2&#45;&gt;Node1</title>
<g id="a_edge1_Node000001_Node000002"><a xlink:title=" ">
<path fill="none" stroke="#9a32cd" stroke-dasharray="5,2" d="M47.23,-59.97C55.67,-47.3 66.44,-31.15 73.19,-21.03"/>
<polygon fill="#9a32cd" stroke="#9a32cd" points="44.55,-57.68 41.91,-67.94 50.37,-61.57 44.55,-57.68"/>
</a>
</g>
<text text-anchor="middle" x="71.28" y="-42" font-family="Helvetica,sans-Serif" font-size="10.00" fill="grey"> pos</text>
</g>
<!-- Node3 -->
<g id="Node000003" class="node">
<title>Node3</title>
<g id="a_Node000003"><a xlink:href="classnix_1_1Symbol.html" target="_top" xlink:title=" ">
<polygon fill="white" stroke="#666666" points="161.5,-90.25 87.75,-90.25 87.75,-69.5 161.5,-69.5 161.5,-90.25"/>
<text text-anchor="middle" x="124.62" y="-76.75" font-family="Helvetica,sans-Serif" font-size="10.00">nix::Symbol</text>
</a>
</g>
</g>
<!-- Node3&#45;&gt;Node1 -->
<g id="edge2_Node000001_Node000003" class="edge">
<title>Node3&#45;&gt;Node1</title>
<g id="a_edge2_Node000001_Node000003"><a xlink:title=" ">
<path fill="none" stroke="#9a32cd" stroke-dasharray="5,2" d="M112.02,-59.97C103.58,-47.3 92.81,-31.15 86.06,-21.03"/>
<polygon fill="#9a32cd" stroke="#9a32cd" points="108.88,-61.57 117.34,-67.94 114.7,-57.68 108.88,-61.57"/>
</a>
</g>
<text text-anchor="middle" x="125.66" y="-42" font-family="Helvetica,sans-Serif" font-size="10.00" fill="grey"> symbol</text>
</g>
</g>
</svg>
