<?xml version="1.0" encoding="UTF-8" standalone="no"?>
<!DOCTYPE svg PUBLIC "-//W3C//DTD SVG 1.1//EN"
 "http://www.w3.org/Graphics/SVG/1.1/DTD/svg11.dtd">
<!-- Generated by graphviz version 12.2.1 (0)
 -->
<!-- Title: nix::Goal Pages: 1 -->
<svg width="475pt" height="142pt"
 viewBox="0.00 0.00 474.50 142.25" xmlns="http://www.w3.org/2000/svg" xmlns:xlink="http://www.w3.org/1999/xlink">
<g id="graph0" class="graph" transform="scale(1 1) rotate(0) translate(4 138.25)">
<title>nix::Goal</title>
<!-- Node1 -->
<g id="Node000001" class="node">
<title>Node1</title>
<g id="a_Node000001"><a xlink:title=" ">
<polygon fill="#999999" stroke="#666666" points="254.75,-134.25 195.25,-134.25 195.25,-113.5 254.75,-113.5 254.75,-134.25"/>
<text text-anchor="middle" x="225" y="-120.75" font-family="Helvetica,sans-Serif" font-size="10.00">nix::Goal</text>
</a>
</g>
</g>
<!-- Node2 -->
<g id="Node000002" class="node">
<title>Node2</title>
<g id="a_Node000002"><a xlink:href="structnix_1_1DerivationGoal.html" target="_top" xlink:title=" ">
<polygon fill="white" stroke="#666666" points="123.25,-77.5 12.75,-77.5 12.75,-56.75 123.25,-56.75 123.25,-77.5"/>
<text text-anchor="middle" x="68" y="-64" font-family="Helvetica,sans-Serif" font-size="10.00">nix::DerivationGoal</text>
</a>
</g>
</g>
<!-- Node1&#45;&gt;Node2 -->
<g id="edge1_Node000001_Node000002" class="edge">
<title>Node1&#45;&gt;Node2</title>
<g id="a_edge1_Node000001_Node000002"><a xlink:title=" ">
<path fill="none" stroke="#63b8ff" d="M186.33,-109.39C158.37,-99.64 121.25,-86.69 96.09,-77.92"/>
<polygon fill="#63b8ff" stroke="#63b8ff" points="184.91,-112.6 195.5,-112.59 187.21,-105.99 184.91,-112.6"/>
</a>
</g>
</g>
<!-- Node4 -->
<g id="Node000004" class="node">
<title>Node4</title>
<g id="a_Node000004"><a xlink:href="classnix_1_1DrvOutputSubstitutionGoal.html" target="_top" xlink:title=" ">
<polygon fill="white" stroke="#666666" points="309.12,-77.5 140.88,-77.5 140.88,-56.75 309.12,-56.75 309.12,-77.5"/>
<text text-anchor="middle" x="225" y="-64" font-family="Helvetica,sans-Serif" font-size="10.00">nix::DrvOutputSubstitutionGoal</text>
</a>
</g>
</g>
<!-- Node1&#45;&gt;Node4 -->
<g id="edge3_Node000001_Node000004" class="edge">
<title>Node1&#45;&gt;Node4</title>
<g id="a_edge3_Node000001_Node000004"><a xlink:title=" ">
<path fill="none" stroke="#63b8ff" d="M225,-101.63C225,-93.41 225,-84.43 225,-77.83"/>
<polygon fill="#63b8ff" stroke="#63b8ff" points="221.5,-101.57 225,-111.57 228.5,-101.57 221.5,-101.57"/>
</a>
</g>
</g>
<!-- Node5 -->
<g id="Node000005" class="node">
<title>Node5</title>
<g id="a_Node000005"><a xlink:href="structnix_1_1PathSubstitutionGoal.html" target="_top" xlink:title=" ">
<polygon fill="white" stroke="#bfbfbf" points="466.5,-77.5 327.5,-77.5 327.5,-56.75 466.5,-56.75 466.5,-77.5"/>
<text text-anchor="middle" x="397" y="-64" font-family="Helvetica,sans-Serif" font-size="10.00">nix::PathSubstitutionGoal</text>
</a>
</g>
</g>
<!-- Node1&#45;&gt;Node5 -->
<g id="edge4_Node000001_Node000005" class="edge">
<title>Node1&#45;&gt;Node5</title>
<g id="a_edge4_Node000001_Node000005"><a xlink:title=" ">
<path fill="none" stroke="#63b8ff" d="M265.77,-109.9C296.57,-100.09 338.18,-86.85 366.23,-77.92"/>
<polygon fill="#63b8ff" stroke="#63b8ff" points="264.87,-106.51 256.4,-112.88 266.99,-113.18 264.87,-106.51"/>
</a>
</g>
</g>
<!-- Node3 -->
<g id="Node000003" class="node">
<title>Node3</title>
<g id="a_Node000003"><a xlink:href="structnix_1_1LocalDerivationGoal.html" target="_top" xlink:title=" ">
<polygon fill="white" stroke="#bfbfbf" points="136,-20.75 0,-20.75 0,0 136,0 136,-20.75"/>
<text text-anchor="middle" x="68" y="-7.25" font-family="Helvetica,sans-Serif" font-size="10.00">nix::LocalDerivationGoal</text>
</a>
</g>
</g>
<!-- Node2&#45;&gt;Node3 -->
<g id="edge2_Node000002_Node000003" class="edge">
<title>Node2&#45;&gt;Node3</title>
<g id="a_edge2_Node000002_Node000003"><a xlink:title=" ">
<path fill="none" stroke="#63b8ff" d="M68,-44.88C68,-36.66 68,-27.68 68,-21.08"/>
<polygon fill="#63b8ff" stroke="#63b8ff" points="64.5,-44.82 68,-54.82 71.5,-44.82 64.5,-44.82"/>
</a>
</g>
</g>
</g>
</svg>
