<?xml version="1.0" encoding="UTF-8" standalone="no"?>
<!DOCTYPE svg PUBLIC "-//W3C//DTD SVG 1.1//EN"
 "http://www.w3.org/Graphics/SVG/1.1/DTD/svg11.dtd">
<!-- Generated by graphviz version 12.2.1 (0)
 -->
<!-- Title: nix::SecretKey Pages: 1 -->
<svg width="94pt" height="169pt"
 viewBox="0.00 0.00 93.75 168.75" xmlns="http://www.w3.org/2000/svg" xmlns:xlink="http://www.w3.org/1999/xlink">
<g id="graph0" class="graph" transform="scale(1 1) rotate(0) translate(4 164.75)">
<title>nix::SecretKey</title>
<!-- Node1 -->
<g id="Node000001" class="node">
<title>Node1</title>
<g id="a_Node000001"><a xlink:title=" ">
<polygon fill="#999999" stroke="#666666" points="85.75,-20.75 0,-20.75 0,0 85.75,0 85.75,-20.75"/>
<text text-anchor="middle" x="42.88" y="-7.25" font-family="Helvetica,sans-Serif" font-size="10.00">nix::SecretKey</text>
</a>
</g>
</g>
<!-- Node2 -->
<g id="Node000002" class="node">
<title>Node2</title>
<g id="a_Node000002"><a xlink:href="structnix_1_1Key.html" target="_top" xlink:title=" ">
<polygon fill="white" stroke="#bfbfbf" points="70.38,-78.5 15.38,-78.5 15.38,-57.75 70.38,-57.75 70.38,-78.5"/>
<text text-anchor="middle" x="42.88" y="-65" font-family="Helvetica,sans-Serif" font-size="10.00">nix::Key</text>
</a>
</g>
</g>
<!-- Node2&#45;&gt;Node1 -->
<g id="edge1_Node000001_Node000002" class="edge">
<title>Node2&#45;&gt;Node1</title>
<g id="a_edge1_Node000001_Node000002"><a xlink:title=" ">
<path fill="none" stroke="#63b8ff" d="M42.88,-46.18C42.88,-37.52 42.88,-27.9 42.88,-20.97"/>
<polygon fill="#63b8ff" stroke="#63b8ff" points="39.38,-45.9 42.88,-55.9 46.38,-45.9 39.38,-45.9"/>
</a>
</g>
</g>
<!-- Node3 -->
<g id="Node000003" class="node">
<title>Node3</title>
<g id="a_Node000003"><a xlink:title=" ">
<polygon fill="white" stroke="#bfbfbf" points="64.75,-160.75 21,-160.75 21,-140 64.75,-140 64.75,-160.75"/>
<text text-anchor="middle" x="42.88" y="-147.25" font-family="Helvetica,sans-Serif" font-size="10.00">string</text>
</a>
</g>
</g>
<!-- Node3&#45;&gt;Node2 -->
<g id="edge2_Node000002_Node000003" class="edge">
<title>Node3&#45;&gt;Node2</title>
<g id="a_edge2_Node000002_Node000003"><a xlink:title=" ">
<path fill="none" stroke="#9a32cd" stroke-dasharray="5,2" d="M42.88,-128.49C42.88,-112.34 42.88,-90.74 42.88,-78.55"/>
<polygon fill="#9a32cd" stroke="#9a32cd" points="39.38,-128.02 42.88,-138.02 46.38,-128.02 39.38,-128.02"/>
</a>
</g>
<text text-anchor="middle" x="56.75" y="-112.5" font-family="Helvetica,sans-Serif" font-size="10.00" fill="grey"> key</text>
<text text-anchor="middle" x="56.75" y="-99.75" font-family="Helvetica,sans-Serif" font-size="10.00" fill="grey">name</text>
</g>
</g>
</svg>
