<?xml version="1.0" encoding="UTF-8" standalone="no"?>
<!DOCTYPE svg PUBLIC "-//W3C//DTD SVG 1.1//EN"
 "http://www.w3.org/Graphics/SVG/1.1/DTD/svg11.dtd">
<!-- Generated by graphviz version 12.2.1 (0)
 -->
<!-- Title: nix::CmdCatStore Pages: 1 -->
<svg width="210pt" height="199pt"
 viewBox="0.00 0.00 210.12 199.00" xmlns="http://www.w3.org/2000/svg" xmlns:xlink="http://www.w3.org/1999/xlink">
<g id="graph0" class="graph" transform="scale(1 1) rotate(0) translate(4 195)">
<title>nix::CmdCatStore</title>
<!-- Node1 -->
<g id="Node000001" class="node">
<title>Node1</title>
<g id="a_Node000001"><a xlink:title=" ">
<polygon fill="#999999" stroke="#666666" points="162.12,-20.75 60.62,-20.75 60.62,0 162.12,0 162.12,-20.75"/>
<text text-anchor="middle" x="111.38" y="-7.25" font-family="Helvetica,sans-Serif" font-size="10.00">nix::CmdCatStore</text>
</a>
</g>
</g>
<!-- Node2 -->
<g id="Node000002" class="node">
<title>Node2</title>
<g id="a_Node000002"><a xlink:href="structnix_1_1StoreCommand.html" target="_top" xlink:title=" ">
<polygon fill="white" stroke="#666666" points="112.75,-77.5 0,-77.5 0,-56.75 112.75,-56.75 112.75,-77.5"/>
<text text-anchor="middle" x="56.38" y="-64" font-family="Helvetica,sans-Serif" font-size="10.00">nix::StoreCommand</text>
</a>
</g>
</g>
<!-- Node2&#45;&gt;Node1 -->
<g id="edge1_Node000001_Node000002" class="edge">
<title>Node2&#45;&gt;Node1</title>
<g id="a_edge1_Node000001_Node000002"><a xlink:title=" ">
<path fill="none" stroke="#63b8ff" d="M74.28,-48.3C83.37,-39.25 94.06,-28.61 101.63,-21.08"/>
<polygon fill="#63b8ff" stroke="#63b8ff" points="71.9,-45.73 67.28,-55.27 76.84,-50.69 71.9,-45.73"/>
</a>
</g>
</g>
<!-- Node3 -->
<g id="Node000003" class="node">
<title>Node3</title>
<g id="a_Node000003"><a xlink:href="structnix_1_1Command.html" target="_top" xlink:title=" ">
<polygon fill="white" stroke="#666666" points="119,-134.25 31.75,-134.25 31.75,-113.5 119,-113.5 119,-134.25"/>
<text text-anchor="middle" x="75.38" y="-120.75" font-family="Helvetica,sans-Serif" font-size="10.00">nix::Command</text>
</a>
</g>
</g>
<!-- Node3&#45;&gt;Node2 -->
<g id="edge2_Node000002_Node000003" class="edge">
<title>Node3&#45;&gt;Node2</title>
<g id="a_edge2_Node000002_Node000003"><a xlink:title=" ">
<path fill="none" stroke="#63b8ff" d="M68.3,-102.49C65.37,-94.05 62.11,-84.66 59.74,-77.83"/>
<polygon fill="#63b8ff" stroke="#63b8ff" points="64.9,-103.36 71.48,-111.66 71.51,-101.06 64.9,-103.36"/>
</a>
</g>
</g>
<!-- Node4 -->
<g id="Node000004" class="node">
<title>Node4</title>
<g id="a_Node000004"><a xlink:href="classnix_1_1Args.html" target="_top" xlink:title=" ">
<polygon fill="white" stroke="#bfbfbf" points="140.75,-191 82,-191 82,-170.25 140.75,-170.25 140.75,-191"/>
<text text-anchor="middle" x="111.38" y="-177.5" font-family="Helvetica,sans-Serif" font-size="10.00">nix::Args</text>
</a>
</g>
</g>
<!-- Node4&#45;&gt;Node3 -->
<g id="edge3_Node000003_Node000004" class="edge">
<title>Node4&#45;&gt;Node3</title>
<g id="a_edge3_Node000003_Node000004"><a xlink:title=" ">
<path fill="none" stroke="#63b8ff" d="M98.73,-160.39C92.99,-151.66 86.45,-141.72 81.76,-134.58"/>
<polygon fill="#63b8ff" stroke="#63b8ff" points="95.69,-162.14 104.11,-168.57 101.54,-158.29 95.69,-162.14"/>
</a>
</g>
</g>
<!-- Node5 -->
<g id="Node000005" class="node">
<title>Node5</title>
<g id="a_Node000005"><a xlink:href="structnix_1_1MixCat.html" target="_top" xlink:title=" ">
<polygon fill="white" stroke="#bfbfbf" points="202.12,-77.5 130.62,-77.5 130.62,-56.75 202.12,-56.75 202.12,-77.5"/>
<text text-anchor="middle" x="166.38" y="-64" font-family="Helvetica,sans-Serif" font-size="10.00">nix::MixCat</text>
</a>
</g>
</g>
<!-- Node4&#45;&gt;Node5 -->
<g id="edge5_Node000005_Node000004" class="edge">
<title>Node4&#45;&gt;Node5</title>
<g id="a_edge5_Node000005_Node000004"><a xlink:title=" ">
<path fill="none" stroke="#63b8ff" d="M121.04,-160.04C132.88,-136.02 152.5,-96.25 161.54,-77.93"/>
<polygon fill="#63b8ff" stroke="#63b8ff" points="118.02,-158.24 116.73,-168.76 124.3,-161.34 118.02,-158.24"/>
</a>
</g>
</g>
<!-- Node5&#45;&gt;Node1 -->
<g id="edge4_Node000001_Node000005" class="edge">
<title>Node5&#45;&gt;Node1</title>
<g id="a_edge4_Node000001_Node000005"><a xlink:title=" ">
<path fill="none" stroke="#63b8ff" d="M148.47,-48.3C139.38,-39.25 128.69,-28.61 121.12,-21.08"/>
<polygon fill="#63b8ff" stroke="#63b8ff" points="145.91,-50.69 155.47,-55.27 150.85,-45.73 145.91,-50.69"/>
</a>
</g>
</g>
</g>
</svg>
