<?xml version="1.0" encoding="UTF-8" standalone="no"?>
<!DOCTYPE svg PUBLIC "-//W3C//DTD SVG 1.1//EN"
 "http://www.w3.org/Graphics/SVG/1.1/DTD/svg11.dtd">
<!-- Generated by graphviz version 12.2.1 (0)
 -->
<!-- Title: nix::HookReply Pages: 1 -->
<svg width="294pt" height="106pt"
 viewBox="0.00 0.00 294.25 105.88" xmlns="http://www.w3.org/2000/svg" xmlns:xlink="http://www.w3.org/1999/xlink">
<g id="graph0" class="graph" transform="scale(1 1) rotate(0) translate(4 101.88)">
<title>nix::HookReply</title>
<!-- Node1 -->
<g id="Node000001" class="node">
<title>Node1</title>
<g id="a_Node000001"><a xlink:title=" ">
<polygon fill="#999999" stroke="#666666" points="286.25,-68.88 196,-68.88 196,-48.12 286.25,-48.12 286.25,-68.88"/>
<text text-anchor="middle" x="241.12" y="-55.38" font-family="Helvetica,sans-Serif" font-size="10.00">nix::HookReply</text>
</a>
</g>
</g>
<!-- Node2 -->
<g id="Node000002" class="node">
<title>Node2</title>
<g id="a_Node000002"><a xlink:href="structnix_1_1HookReplyBase.html" target="_top" xlink:title=" ">
<polygon fill="white" stroke="#bfbfbf" points="137.12,-97.88 22.88,-97.88 22.88,-77.12 137.12,-77.12 137.12,-97.88"/>
<text text-anchor="middle" x="80" y="-84.38" font-family="Helvetica,sans-Serif" font-size="10.00">nix::HookReplyBase</text>
</a>
</g>
</g>
<!-- Node2&#45;&gt;Node1 -->
<g id="edge1_Node000001_Node000002" class="edge">
<title>Node2&#45;&gt;Node1</title>
<g id="a_edge1_Node000001_Node000002"><a xlink:title=" ">
<path fill="none" stroke="#63b8ff" d="M148.42,-75.21C164.33,-72.31 180.9,-69.29 195.5,-66.63"/>
<polygon fill="#63b8ff" stroke="#63b8ff" points="148.25,-71.69 139.04,-76.92 149.5,-78.57 148.25,-71.69"/>
</a>
</g>
</g>
<!-- Node3 -->
<g id="Node000003" class="node">
<title>Node3</title>
<g id="a_Node000003"><a xlink:title=" ">
<polygon fill="white" stroke="#bfbfbf" points="160,-59 0,-59 0,0 160,0 160,-59"/>
<text text-anchor="start" x="8" y="-45.5" font-family="Helvetica,sans-Serif" font-size="10.00">std::variant&lt; HookReplyBase</text>
<text text-anchor="start" x="8" y="-32.75" font-family="Helvetica,sans-Serif" font-size="10.00">::Accept, HookReplyBase</text>
<text text-anchor="start" x="8" y="-20" font-family="Helvetica,sans-Serif" font-size="10.00">::Decline, HookReplyBase</text>
<text text-anchor="middle" x="80" y="-7.25" font-family="Helvetica,sans-Serif" font-size="10.00">::Postpone &gt;</text>
</a>
</g>
</g>
<!-- Node3&#45;&gt;Node1 -->
<g id="edge2_Node000001_Node000003" class="edge">
<title>Node3&#45;&gt;Node1</title>
<g id="a_edge2_Node000001_Node000003"><a xlink:title=" ">
<path fill="none" stroke="#63b8ff" d="M171.19,-45.94C179.58,-47.47 187.82,-48.97 195.51,-50.37"/>
<polygon fill="#63b8ff" stroke="#63b8ff" points="172.05,-42.54 161.59,-44.19 170.8,-49.42 172.05,-42.54"/>
</a>
</g>
</g>
</g>
</svg>
