<?xml version="1.0" encoding="UTF-8" standalone="no"?>
<!DOCTYPE svg PUBLIC "-//W3C//DTD SVG 1.1//EN"
 "http://www.w3.org/Graphics/SVG/1.1/DTD/svg11.dtd">
<!-- Generated by graphviz version 12.2.1 (0)
 -->
<!-- Title: nix::MixDryRun Pages: 1 -->
<svg width="515pt" height="302pt"
 viewBox="0.00 0.00 515.25 301.75" xmlns="http://www.w3.org/2000/svg" xmlns:xlink="http://www.w3.org/1999/xlink">
<g id="graph0" class="graph" transform="scale(1 1) rotate(0) translate(4 297.75)">
<title>nix::MixDryRun</title>
<!-- Node1 -->
<g id="Node000001" class="node">
<title>Node1</title>
<g id="a_Node000001"><a xlink:title=" ">
<polygon fill="#999999" stroke="#666666" points="185.75,-156.75 94.75,-156.75 94.75,-136 185.75,-136 185.75,-156.75"/>
<text text-anchor="middle" x="140.25" y="-143.25" font-family="Helvetica,sans-Serif" font-size="10.00">nix::MixDryRun</text>
</a>
</g>
</g>
<!-- Node3 -->
<g id="Node000003" class="node">
<title>Node3</title>
<g id="a_Node000003"><a xlink:href="structnix_1_1CmdAddDerivation.html" target="_top" xlink:title=" ">
<polygon fill="white" stroke="#bfbfbf" points="361.5,-293.75 232.25,-293.75 232.25,-273 361.5,-273 361.5,-293.75"/>
<text text-anchor="middle" x="296.88" y="-280.25" font-family="Helvetica,sans-Serif" font-size="10.00">nix::CmdAddDerivation</text>
</a>
</g>
</g>
<!-- Node1&#45;&gt;Node3 -->
<g id="edge2_Node000001_Node000003" class="edge">
<title>Node1&#45;&gt;Node3</title>
<g id="a_edge2_Node000001_Node000003"><a xlink:title=" ">
<path fill="none" stroke="#63b8ff" d="M150.1,-167.37C162.31,-193.79 186.86,-238.69 221.75,-263.38 226.97,-267.07 232.84,-270.08 238.93,-272.54"/>
<polygon fill="#63b8ff" stroke="#63b8ff" points="153.36,-166.08 146.1,-158.36 146.96,-168.92 153.36,-166.08"/>
</a>
</g>
</g>
<!-- Node4 -->
<g id="Node000004" class="node">
<title>Node4</title>
<g id="a_Node000004"><a xlink:href="structnix_1_1CmdAddToStore.html" target="_top" xlink:title=" ">
<polygon fill="white" stroke="#bfbfbf" points="354,-254.75 239.75,-254.75 239.75,-234 354,-234 354,-254.75"/>
<text text-anchor="middle" x="296.88" y="-241.25" font-family="Helvetica,sans-Serif" font-size="10.00">nix::CmdAddToStore</text>
</a>
</g>
</g>
<!-- Node1&#45;&gt;Node4 -->
<g id="edge3_Node000001_Node000004" class="edge">
<title>Node1&#45;&gt;Node4</title>
<g id="a_edge3_Node000001_Node000004"><a xlink:title=" ">
<path fill="none" stroke="#63b8ff" d="M156.22,-165.68C171.02,-183.47 195.24,-209.31 221.75,-224.38 228.24,-228.06 235.44,-231.09 242.72,-233.58"/>
<polygon fill="#63b8ff" stroke="#63b8ff" points="159.34,-163.97 150.33,-158.39 153.9,-168.37 159.34,-163.97"/>
</a>
</g>
</g>
<!-- Node7 -->
<g id="Node000007" class="node">
<title>Node7</title>
<g id="a_Node000007"><a xlink:href="structnix_1_1CmdBuild.html" target="_top" xlink:title=" ">
<polygon fill="white" stroke="#bfbfbf" points="339,-215.75 254.75,-215.75 254.75,-195 339,-195 339,-215.75"/>
<text text-anchor="middle" x="296.88" y="-202.25" font-family="Helvetica,sans-Serif" font-size="10.00">nix::CmdBuild</text>
</a>
</g>
</g>
<!-- Node1&#45;&gt;Node7 -->
<g id="edge6_Node000001_Node000007" class="edge">
<title>Node1&#45;&gt;Node7</title>
<g id="a_edge6_Node000001_Node000007"><a xlink:title=" ">
<path fill="none" stroke="#63b8ff" d="M171.13,-162.51C186.05,-170.14 204.54,-178.95 221.75,-185.38 232.11,-189.24 243.55,-192.71 254.27,-195.62"/>
<polygon fill="#63b8ff" stroke="#63b8ff" points="172.8,-159.43 162.32,-157.92 169.57,-165.64 172.8,-159.43"/>
</a>
</g>
</g>
<!-- Node8 -->
<g id="Node000008" class="node">
<title>Node8</title>
<g id="a_Node000008"><a xlink:href="structnix_1_1CmdFlakeArchive.html" target="_top" xlink:title=" ">
<polygon fill="white" stroke="#bfbfbf" points="358.12,-176.75 235.62,-176.75 235.62,-156 358.12,-156 358.12,-176.75"/>
<text text-anchor="middle" x="296.88" y="-163.25" font-family="Helvetica,sans-Serif" font-size="10.00">nix::CmdFlakeArchive</text>
</a>
</g>
</g>
<!-- Node1&#45;&gt;Node8 -->
<g id="edge7_Node000001_Node000008" class="edge">
<title>Node1&#45;&gt;Node8</title>
<g id="a_edge7_Node000001_Node000008"><a xlink:title=" ">
<path fill="none" stroke="#63b8ff" d="M197.07,-153.59C209.43,-155.19 222.59,-156.9 235.14,-158.52"/>
<polygon fill="#63b8ff" stroke="#63b8ff" points="197.84,-150.17 187.47,-152.35 196.94,-157.11 197.84,-150.17"/>
</a>
</g>
</g>
<!-- Node9 -->
<g id="Node000009" class="node">
<title>Node9</title>
<g id="a_Node000009"><a xlink:href="structnix_1_1CmdProfileRollback.html" target="_top" xlink:title=" ">
<polygon fill="white" stroke="#bfbfbf" points="363,-137.75 230.75,-137.75 230.75,-117 363,-117 363,-137.75"/>
<text text-anchor="middle" x="296.88" y="-124.25" font-family="Helvetica,sans-Serif" font-size="10.00">nix::CmdProfileRollback</text>
</a>
</g>
</g>
<!-- Node1&#45;&gt;Node9 -->
<g id="edge8_Node000001_Node000009" class="edge">
<title>Node1&#45;&gt;Node9</title>
<g id="a_edge8_Node000001_Node000009"><a xlink:title=" ">
<path fill="none" stroke="#63b8ff" d="M197.31,-139.49C208.01,-138.17 219.29,-136.79 230.26,-135.44"/>
<polygon fill="#63b8ff" stroke="#63b8ff" points="196.97,-136 187.48,-140.69 197.83,-142.95 196.97,-136"/>
</a>
</g>
</g>
<!-- Node10 -->
<g id="Node000010" class="node">
<title>Node10</title>
<g id="a_Node000010"><a xlink:href="structnix_1_1CmdProfileWipeHistory.html" target="_top" xlink:title=" ">
<polygon fill="white" stroke="#bfbfbf" points="372,-98.75 221.75,-98.75 221.75,-78 372,-78 372,-98.75"/>
<text text-anchor="middle" x="296.88" y="-85.25" font-family="Helvetica,sans-Serif" font-size="10.00">nix::CmdProfileWipeHistory</text>
</a>
</g>
</g>
<!-- Node1&#45;&gt;Node10 -->
<g id="edge9_Node000001_Node000010" class="edge">
<title>Node1&#45;&gt;Node10</title>
<g id="a_edge9_Node000001_Node000010"><a xlink:title=" ">
<path fill="none" stroke="#63b8ff" d="M171.48,-130.54C186.35,-123.16 204.71,-114.64 221.75,-108.38 231.01,-104.97 241.11,-101.86 250.79,-99.17"/>
<polygon fill="#63b8ff" stroke="#63b8ff" points="170.03,-127.35 162.69,-134.99 173.19,-133.6 170.03,-127.35"/>
</a>
</g>
</g>
<!-- Node11 -->
<g id="Node000011" class="node">
<title>Node11</title>
<g id="a_Node000011"><a xlink:href="structnix_1_1CmdStoreGC.html" target="_top" xlink:title=" ">
<polygon fill="white" stroke="#bfbfbf" points="346.5,-59.75 247.25,-59.75 247.25,-39 346.5,-39 346.5,-59.75"/>
<text text-anchor="middle" x="296.88" y="-46.25" font-family="Helvetica,sans-Serif" font-size="10.00">nix::CmdStoreGC</text>
</a>
</g>
</g>
<!-- Node1&#45;&gt;Node11 -->
<g id="edge10_Node000001_Node000011" class="edge">
<title>Node1&#45;&gt;Node11</title>
<g id="a_edge10_Node000001_Node000011"><a xlink:title=" ">
<path fill="none" stroke="#63b8ff" d="M156.69,-126.84C171.56,-109.3 195.6,-84.12 221.75,-69.38 229.53,-64.99 238.31,-61.53 247.04,-58.81"/>
<polygon fill="#63b8ff" stroke="#63b8ff" points="154.03,-124.56 150.38,-134.51 159.43,-129.01 154.03,-124.56"/>
</a>
</g>
</g>
<!-- Node12 -->
<g id="Node000012" class="node">
<title>Node12</title>
<g id="a_Node000012"><a xlink:href="structnix_1_1CmdUpgradeNix.html" target="_top" xlink:title=" ">
<polygon fill="white" stroke="#bfbfbf" points="355.5,-20.75 238.25,-20.75 238.25,0 355.5,0 355.5,-20.75"/>
<text text-anchor="middle" x="296.88" y="-7.25" font-family="Helvetica,sans-Serif" font-size="10.00">nix::CmdUpgradeNix</text>
</a>
</g>
</g>
<!-- Node1&#45;&gt;Node12 -->
<g id="edge11_Node000001_Node000012" class="edge">
<title>Node1&#45;&gt;Node12</title>
<g id="a_edge11_Node000001_Node000012"><a xlink:title=" ">
<path fill="none" stroke="#63b8ff" d="M150.33,-125.17C162.66,-98.92 187.19,-54.73 221.75,-30.38 226.98,-26.69 232.85,-23.68 238.95,-21.23"/>
<polygon fill="#63b8ff" stroke="#63b8ff" points="147.2,-123.58 146.29,-134.14 153.59,-126.46 147.2,-123.58"/>
</a>
</g>
</g>
<!-- Node2 -->
<g id="Node000002" class="node">
<title>Node2</title>
<g id="a_Node000002"><a xlink:href="classnix_1_1Args.html" target="_top" xlink:title=" ">
<polygon fill="white" stroke="#bfbfbf" points="58.75,-156.75 0,-156.75 0,-136 58.75,-136 58.75,-156.75"/>
<text text-anchor="middle" x="29.38" y="-143.25" font-family="Helvetica,sans-Serif" font-size="10.00">nix::Args</text>
</a>
</g>
</g>
<!-- Node2&#45;&gt;Node1 -->
<g id="edge1_Node000001_Node000002" class="edge">
<title>Node2&#45;&gt;Node1</title>
<g id="a_edge1_Node000001_Node000002"><a xlink:title=" ">
<path fill="none" stroke="#63b8ff" d="M70.41,-146.38C78.22,-146.38 86.45,-146.38 94.41,-146.38"/>
<polygon fill="#63b8ff" stroke="#63b8ff" points="70.49,-142.88 60.49,-146.38 70.49,-149.88 70.49,-142.88"/>
</a>
</g>
</g>
<!-- Node5 -->
<g id="Node000005" class="node">
<title>Node5</title>
<g id="a_Node000005"><a xlink:href="structnix_1_1CmdAddFile.html" target="_top" xlink:title=" ">
<polygon fill="white" stroke="#bfbfbf" points="505.38,-273.75 409.88,-273.75 409.88,-253 505.38,-253 505.38,-273.75"/>
<text text-anchor="middle" x="457.62" y="-260.25" font-family="Helvetica,sans-Serif" font-size="10.00">nix::CmdAddFile</text>
</a>
</g>
</g>
<!-- Node4&#45;&gt;Node5 -->
<g id="edge4_Node000004_Node000005" class="edge">
<title>Node4&#45;&gt;Node5</title>
<g id="a_edge4_Node000004_Node000005"><a xlink:title=" ">
<path fill="none" stroke="#63b8ff" d="M365.5,-252.47C380.34,-254.24 395.74,-256.09 409.56,-257.74"/>
<polygon fill="#63b8ff" stroke="#63b8ff" points="366.14,-249.02 355.79,-251.31 365.31,-255.97 366.14,-249.02"/>
</a>
</g>
</g>
<!-- Node6 -->
<g id="Node000006" class="node">
<title>Node6</title>
<g id="a_Node000006"><a xlink:href="structnix_1_1CmdAddPath.html" target="_top" xlink:title=" ">
<polygon fill="white" stroke="#bfbfbf" points="507.25,-234.75 408,-234.75 408,-214 507.25,-214 507.25,-234.75"/>
<text text-anchor="middle" x="457.62" y="-221.25" font-family="Helvetica,sans-Serif" font-size="10.00">nix::CmdAddPath</text>
</a>
</g>
</g>
<!-- Node4&#45;&gt;Node6 -->
<g id="edge5_Node000004_Node000006" class="edge">
<title>Node4&#45;&gt;Node6</title>
<g id="a_edge5_Node000004_Node000006"><a xlink:title=" ">
<path fill="none" stroke="#63b8ff" d="M365.47,-235.86C379.58,-234.08 394.21,-232.24 407.5,-230.56"/>
<polygon fill="#63b8ff" stroke="#63b8ff" points="365.28,-232.36 355.79,-237.08 366.15,-239.3 365.28,-232.36"/>
</a>
</g>
</g>
</g>
</svg>
