<?xml version="1.0" encoding="UTF-8" standalone="no"?>
<!DOCTYPE svg PUBLIC "-//W3C//DTD SVG 1.1//EN"
 "http://www.w3.org/Graphics/SVG/1.1/DTD/svg11.dtd">
<!-- Generated by graphviz version 12.2.1 (0)
 -->
<!-- Title: nix::CmdProfileRemove Pages: 1 -->
<svg width="482pt" height="407pt"
 viewBox="0.00 0.00 482.00 406.75" xmlns="http://www.w3.org/2000/svg" xmlns:xlink="http://www.w3.org/1999/xlink">
<g id="graph0" class="graph" transform="scale(1 1) rotate(0) translate(4 402.75)">
<title>nix::CmdProfileRemove</title>
<!-- Node1 -->
<g id="Node000001" class="node">
<title>Node1</title>
<g id="a_Node000001"><a xlink:title=" ">
<polygon fill="#999999" stroke="#666666" points="291.75,-20.75 161,-20.75 161,0 291.75,0 291.75,-20.75"/>
<text text-anchor="middle" x="226.38" y="-7.25" font-family="Helvetica,sans-Serif" font-size="10.00">nix::CmdProfileRemove</text>
</a>
</g>
</g>
<!-- Node2 -->
<g id="Node000002" class="node">
<title>Node2</title>
<g id="a_Node000002"><a xlink:href="structnix_1_1EvalCommand.html" target="_top" xlink:title=" ">
<polygon fill="white" stroke="#666666" points="280.5,-78.5 172.25,-78.5 172.25,-57.75 280.5,-57.75 280.5,-78.5"/>
<text text-anchor="middle" x="226.38" y="-65" font-family="Helvetica,sans-Serif" font-size="10.00">nix::EvalCommand</text>
</a>
</g>
</g>
<!-- Node2&#45;&gt;Node1 -->
<g id="edge1_Node000001_Node000002" class="edge">
<title>Node2&#45;&gt;Node1</title>
<g id="a_edge1_Node000001_Node000002"><a xlink:title=" ">
<path fill="none" stroke="#63b8ff" d="M226.38,-46.18C226.38,-37.52 226.38,-27.9 226.38,-20.97"/>
<polygon fill="#63b8ff" stroke="#63b8ff" points="222.88,-45.9 226.38,-55.9 229.88,-45.9 222.88,-45.9"/>
</a>
</g>
</g>
<!-- Node3 -->
<g id="Node000003" class="node">
<title>Node3</title>
<g id="a_Node000003"><a xlink:href="structnix_1_1StoreCommand.html" target="_top" xlink:title=" ">
<polygon fill="white" stroke="#666666" points="112.75,-213.75 0,-213.75 0,-193 112.75,-193 112.75,-213.75"/>
<text text-anchor="middle" x="56.38" y="-200.25" font-family="Helvetica,sans-Serif" font-size="10.00">nix::StoreCommand</text>
</a>
</g>
</g>
<!-- Node3&#45;&gt;Node2 -->
<g id="edge2_Node000002_Node000003" class="edge">
<title>Node3&#45;&gt;Node2</title>
<g id="a_edge2_Node000002_Node000003"><a xlink:title=" ">
<path fill="none" stroke="#63b8ff" d="M77.58,-185.75C113.44,-157.65 184.98,-101.57 213.86,-78.94"/>
<polygon fill="#63b8ff" stroke="#63b8ff" points="75.78,-182.72 70.07,-191.64 80.1,-188.23 75.78,-182.72"/>
</a>
</g>
</g>
<!-- Node11 -->
<g id="Node000011" class="node">
<title>Node11</title>
<g id="a_Node000011"><a xlink:href="structnix_1_1MixProfile.html" target="_top" xlink:title=" ">
<polygon fill="white" stroke="#bfbfbf" points="108.25,-136.25 22.5,-136.25 22.5,-115.5 108.25,-115.5 108.25,-136.25"/>
<text text-anchor="middle" x="65.38" y="-122.75" font-family="Helvetica,sans-Serif" font-size="10.00">nix::MixProfile</text>
</a>
</g>
</g>
<!-- Node3&#45;&gt;Node11 -->
<g id="edge14_Node000011_Node000003" class="edge">
<title>Node3&#45;&gt;Node11</title>
<g id="a_edge14_Node000011_Node000003"><a xlink:title=" ">
<path fill="none" stroke="#63b8ff" d="M58.87,-181.43C60.62,-166.73 62.88,-147.77 64.23,-136.51"/>
<polygon fill="#63b8ff" stroke="#63b8ff" points="55.44,-180.66 57.73,-191 62.39,-181.49 55.44,-180.66"/>
</a>
</g>
</g>
<!-- Node4 -->
<g id="Node000004" class="node">
<title>Node4</title>
<g id="a_Node000004"><a xlink:href="structnix_1_1Command.html" target="_top" xlink:title=" ">
<polygon fill="white" stroke="#666666" points="234,-398.75 146.75,-398.75 146.75,-378 234,-378 234,-398.75"/>
<text text-anchor="middle" x="190.38" y="-385.25" font-family="Helvetica,sans-Serif" font-size="10.00">nix::Command</text>
</a>
</g>
</g>
<!-- Node4&#45;&gt;Node3 -->
<g id="edge3_Node000003_Node000004" class="edge">
<title>Node4&#45;&gt;Node3</title>
<g id="a_edge3_Node000003_Node000004"><a xlink:title=" ">
<path fill="none" stroke="#63b8ff" d="M176.46,-368.37C148.07,-329.6 84.37,-242.6 63.29,-213.82"/>
<polygon fill="#63b8ff" stroke="#63b8ff" points="173.54,-370.31 182.28,-376.31 179.19,-366.18 173.54,-370.31"/>
</a>
</g>
</g>
<!-- Node6 -->
<g id="Node000006" class="node">
<title>Node6</title>
<g id="a_Node000006"><a xlink:href="classnix_1_1MultiCommand.html" target="_top" xlink:title=" ">
<polygon fill="white" stroke="#666666" points="330.38,-341 218.38,-341 218.38,-320.25 330.38,-320.25 330.38,-341"/>
<text text-anchor="middle" x="274.38" y="-327.5" font-family="Helvetica,sans-Serif" font-size="10.00">nix::MultiCommand</text>
</a>
</g>
</g>
<!-- Node4&#45;&gt;Node6 -->
<g id="edge6_Node000006_Node000004" class="edge">
<title>Node4&#45;&gt;Node6</title>
<g id="a_edge6_Node000006_Node000004"><a xlink:title=" ">
<path fill="none" stroke="#63b8ff" d="M214.42,-371.42C229,-361.74 247.14,-349.7 259.63,-341.41"/>
<polygon fill="#63b8ff" stroke="#63b8ff" points="212.66,-368.38 206.27,-376.83 216.54,-374.21 212.66,-368.38"/>
</a>
</g>
</g>
<!-- Node5 -->
<g id="Node000005" class="node">
<title>Node5</title>
<g id="a_Node000005"><a xlink:href="classnix_1_1Args.html" target="_top" xlink:title=" ">
<polygon fill="white" stroke="#bfbfbf" points="303.75,-271.5 245,-271.5 245,-250.75 303.75,-250.75 303.75,-271.5"/>
<text text-anchor="middle" x="274.38" y="-258" font-family="Helvetica,sans-Serif" font-size="10.00">nix::Args</text>
</a>
</g>
</g>
<!-- Node5&#45;&gt;Node4 -->
<g id="edge4_Node000004_Node000005" class="edge">
<title>Node5&#45;&gt;Node4</title>
<g id="a_edge4_Node000004_Node000005"><a xlink:title=" ">
<path fill="none" stroke="#63b8ff" d="M250.22,-278.38C236.4,-288.83 219.8,-303.56 209.38,-320.25 197.95,-338.53 193.23,-363.84 191.41,-377.57"/>
<polygon fill="#63b8ff" stroke="#63b8ff" points="251.95,-281.44 258,-272.74 247.85,-275.77 251.95,-281.44"/>
</a>
</g>
</g>
<!-- Node7 -->
<g id="Node000007" class="node">
<title>Node7</title>
<g id="a_Node000007"><a xlink:href="structnix_1_1MixEvalArgs.html" target="_top" xlink:title=" ">
<polygon fill="white" stroke="#bfbfbf" points="283.25,-136.25 185.5,-136.25 185.5,-115.5 283.25,-115.5 283.25,-136.25"/>
<text text-anchor="middle" x="234.38" y="-122.75" font-family="Helvetica,sans-Serif" font-size="10.00">nix::MixEvalArgs</text>
</a>
</g>
</g>
<!-- Node5&#45;&gt;Node7 -->
<g id="edge8_Node000007_Node000005" class="edge">
<title>Node5&#45;&gt;Node7</title>
<g id="a_edge8_Node000007_Node000005"><a xlink:title=" ">
<path fill="none" stroke="#63b8ff" d="M268.23,-239.64C259.49,-210.55 243.84,-158.4 237.33,-136.73"/>
<polygon fill="#63b8ff" stroke="#63b8ff" points="264.84,-240.52 271.06,-249.09 271.54,-238.51 264.84,-240.52"/>
</a>
</g>
</g>
<!-- Node8 -->
<g id="Node000008" class="node">
<title>Node8</title>
<g id="a_Node000008"><a xlink:href="structnix_1_1MixRepair.html" target="_top" xlink:title=" ">
<polygon fill="white" stroke="#bfbfbf" points="364.62,-213.75 278.12,-213.75 278.12,-193 364.62,-193 364.62,-213.75"/>
<text text-anchor="middle" x="321.38" y="-200.25" font-family="Helvetica,sans-Serif" font-size="10.00">nix::MixRepair</text>
</a>
</g>
</g>
<!-- Node5&#45;&gt;Node8 -->
<g id="edge10_Node000008_Node000005" class="edge">
<title>Node5&#45;&gt;Node8</title>
<g id="a_edge10_Node000008_Node000005"><a xlink:title=" ">
<path fill="none" stroke="#63b8ff" d="M289.79,-241.84C297.63,-232.54 306.84,-221.62 313.28,-213.97"/>
<polygon fill="#63b8ff" stroke="#63b8ff" points="287.31,-239.36 283.54,-249.26 292.66,-243.87 287.31,-239.36"/>
</a>
</g>
</g>
<!-- Node12 -->
<g id="Node000012" class="node">
<title>Node12</title>
<g id="a_Node000012"><a xlink:href="classnix_1_1MixProfileElementMatchers.html" target="_top" xlink:title=" ">
<polygon fill="white" stroke="#bfbfbf" points="474,-175 302.75,-175 302.75,-154.25 474,-154.25 474,-175"/>
<text text-anchor="middle" x="388.38" y="-161.5" font-family="Helvetica,sans-Serif" font-size="10.00">nix::MixProfileElementMatchers</text>
</a>
</g>
</g>
<!-- Node5&#45;&gt;Node12 -->
<g id="edge16_Node000012_Node000005" class="edge">
<title>Node5&#45;&gt;Node12</title>
<g id="a_edge16_Node000012_Node000005"><a xlink:title=" ">
<path fill="none" stroke="#8b1a1a" d="M314.67,-249.71C334.82,-242.61 358.11,-231.25 373.38,-213.75 382.93,-202.8 386.4,-185.82 387.66,-175.23"/>
<polygon fill="#8b1a1a" stroke="#8b1a1a" points="313.73,-246.33 305.31,-252.76 315.9,-252.99 313.73,-246.33"/>
</a>
</g>
</g>
<!-- Node6&#45;&gt;Node5 -->
<g id="edge5_Node000005_Node000006" class="edge">
<title>Node6&#45;&gt;Node5</title>
<g id="a_edge5_Node000005_Node000006"><a xlink:title=" ">
<path fill="none" stroke="#9a32cd" stroke-dasharray="5,2" d="M274.38,-308.82C274.38,-296.47 274.38,-281.4 274.38,-271.78"/>
<polygon fill="#9a32cd" stroke="#9a32cd" points="270.88,-308.44 274.38,-318.44 277.88,-308.44 270.88,-308.44"/>
</a>
</g>
<text text-anchor="middle" x="291.62" y="-292.75" font-family="Helvetica,sans-Serif" font-size="10.00" fill="grey"> parent</text>
</g>
<!-- Node7&#45;&gt;Node2 -->
<g id="edge7_Node000002_Node000007" class="edge">
<title>Node7&#45;&gt;Node2</title>
<g id="a_edge7_Node000002_Node000007"><a xlink:title=" ">
<path fill="none" stroke="#63b8ff" d="M231.37,-103.93C230.13,-95.27 228.75,-85.65 227.75,-78.72"/>
<polygon fill="#63b8ff" stroke="#63b8ff" points="227.88,-104.26 232.77,-113.67 234.81,-103.27 227.88,-104.26"/>
</a>
</g>
</g>
<!-- Node8&#45;&gt;Node7 -->
<g id="edge9_Node000007_Node000008" class="edge">
<title>Node8&#45;&gt;Node7</title>
<g id="a_edge9_Node000007_Node000008"><a xlink:title=" ">
<path fill="none" stroke="#63b8ff" d="M301.73,-185.33C284.47,-170.35 259.95,-149.07 245.75,-136.75"/>
<polygon fill="#63b8ff" stroke="#63b8ff" points="299.01,-187.6 308.86,-191.51 303.6,-182.31 299.01,-187.6"/>
</a>
</g>
</g>
<!-- Node9 -->
<g id="Node000009" class="node">
<title>Node9</title>
<g id="a_Node000009"><a xlink:href="structnix_1_1SearchPath.html" target="_top" xlink:title=" ">
<polygon fill="white" stroke="#666666" points="221.88,-213.75 130.88,-213.75 130.88,-193 221.88,-193 221.88,-213.75"/>
<text text-anchor="middle" x="176.38" y="-200.25" font-family="Helvetica,sans-Serif" font-size="10.00">nix::SearchPath</text>
</a>
</g>
</g>
<!-- Node9&#45;&gt;Node7 -->
<g id="edge11_Node000007_Node000009" class="edge">
<title>Node9&#45;&gt;Node7</title>
<g id="a_edge11_Node000007_Node000009"><a xlink:title=" ">
<path fill="none" stroke="#9a32cd" stroke-dasharray="5,2" d="M173.64,-181.4C173.51,-172.37 174.86,-162.1 180.12,-154.25 185.35,-146.45 193.5,-140.77 201.91,-136.67"/>
<polygon fill="#9a32cd" stroke="#9a32cd" points="170.13,-181.41 174.4,-191.11 177.11,-180.87 170.13,-181.41"/>
</a>
</g>
<text text-anchor="middle" x="208.25" y="-161.5" font-family="Helvetica,sans-Serif" font-size="10.00" fill="grey"> searchPath</text>
</g>
<!-- Node10 -->
<g id="Node000010" class="node">
<title>Node10</title>
<g id="a_Node000010"><a xlink:href="structnix_1_1MixDefaultProfile.html" target="_top" xlink:title=" ">
<polygon fill="white" stroke="#bfbfbf" points="144.25,-78.5 22.5,-78.5 22.5,-57.75 144.25,-57.75 144.25,-78.5"/>
<text text-anchor="middle" x="83.38" y="-65" font-family="Helvetica,sans-Serif" font-size="10.00">nix::MixDefaultProfile</text>
</a>
</g>
</g>
<!-- Node10&#45;&gt;Node1 -->
<g id="edge12_Node000001_Node000010" class="edge">
<title>Node10&#45;&gt;Node1</title>
<g id="a_edge12_Node000001_Node000010"><a xlink:title=" ">
<path fill="none" stroke="#63b8ff" d="M119.03,-53.22C144.67,-43.23 178.6,-30 201.39,-21.12"/>
<polygon fill="#63b8ff" stroke="#63b8ff" points="118.07,-49.84 110.02,-56.74 120.61,-56.37 118.07,-49.84"/>
</a>
</g>
</g>
<!-- Node11&#45;&gt;Node10 -->
<g id="edge13_Node000010_Node000011" class="edge">
<title>Node11&#45;&gt;Node10</title>
<g id="a_edge13_Node000010_Node000011"><a xlink:title=" ">
<path fill="none" stroke="#63b8ff" d="M72.04,-104.23C74.86,-95.49 78.01,-85.73 80.28,-78.72"/>
<polygon fill="#63b8ff" stroke="#63b8ff" points="68.72,-103.13 68.98,-113.72 75.38,-105.28 68.72,-103.13"/>
</a>
</g>
</g>
<!-- Node12&#45;&gt;Node1 -->
<g id="edge15_Node000001_Node000012" class="edge">
<title>Node12&#45;&gt;Node1</title>
<g id="a_edge15_Node000001_Node000012"><a xlink:title=" ">
<path fill="none" stroke="#63b8ff" d="M373.14,-145.38C354.46,-123.48 321.32,-86.15 289.38,-57.75 273.85,-43.94 254.38,-30.08 241.22,-21.15"/>
<polygon fill="#63b8ff" stroke="#63b8ff" points="370.33,-147.47 379.46,-152.85 375.68,-142.96 370.33,-147.47"/>
</a>
</g>
</g>
</g>
</svg>
