<?xml version="1.0" encoding="UTF-8" standalone="no"?>
<!DOCTYPE svg PUBLIC "-//W3C//DTD SVG 1.1//EN"
 "http://www.w3.org/Graphics/SVG/1.1/DTD/svg11.dtd">
<!-- Generated by graphviz version 12.2.1 (0)
 -->
<!-- Title: nix::CmdRealisationInfo Pages: 1 -->
<svg width="801pt" height="600pt"
 viewBox="0.00 0.00 801.00 599.75" xmlns="http://www.w3.org/2000/svg" xmlns:xlink="http://www.w3.org/1999/xlink">
<g id="graph0" class="graph" transform="scale(1 1) rotate(0) translate(4 595.75)">
<title>nix::CmdRealisationInfo</title>
<!-- Node1 -->
<g id="Node000001" class="node">
<title>Node1</title>
<g id="a_Node000001"><a xlink:title=" ">
<polygon fill="#999999" stroke="#666666" points="590,-20.75 457,-20.75 457,0 590,0 590,-20.75"/>
<text text-anchor="middle" x="523.5" y="-7.25" font-family="Helvetica,sans-Serif" font-size="10.00">nix::CmdRealisationInfo</text>
</a>
</g>
</g>
<!-- Node2 -->
<g id="Node000002" class="node">
<title>Node2</title>
<g id="a_Node000002"><a xlink:href="structnix_1_1BuiltPathsCommand.html" target="_top" xlink:title=" ">
<polygon fill="white" stroke="#666666" points="337.5,-78.5 201.5,-78.5 201.5,-57.75 337.5,-57.75 337.5,-78.5"/>
<text text-anchor="middle" x="269.5" y="-65" font-family="Helvetica,sans-Serif" font-size="10.00">nix::BuiltPathsCommand</text>
</a>
</g>
</g>
<!-- Node2&#45;&gt;Node1 -->
<g id="edge1_Node000001_Node000002" class="edge">
<title>Node2&#45;&gt;Node1</title>
<g id="a_edge1_Node000001_Node000002"><a xlink:title=" ">
<path fill="none" stroke="#63b8ff" d="M325.32,-54.87C371.4,-44.76 435.94,-30.59 478.7,-21.21"/>
<polygon fill="#63b8ff" stroke="#63b8ff" points="324.82,-51.4 315.8,-56.96 326.32,-58.24 324.82,-51.4"/>
</a>
</g>
</g>
<!-- Node3 -->
<g id="Node000003" class="node">
<title>Node3</title>
<g id="a_Node000003"><a xlink:href="structnix_1_1InstallablesCommand.html" target="_top" xlink:title=" ">
<polygon fill="white" stroke="#666666" points="341.25,-136.25 197.75,-136.25 197.75,-115.5 341.25,-115.5 341.25,-136.25"/>
<text text-anchor="middle" x="269.5" y="-122.75" font-family="Helvetica,sans-Serif" font-size="10.00">nix::InstallablesCommand</text>
</a>
</g>
</g>
<!-- Node3&#45;&gt;Node2 -->
<g id="edge2_Node000002_Node000003" class="edge">
<title>Node3&#45;&gt;Node2</title>
<g id="a_edge2_Node000002_Node000003"><a xlink:title=" ">
<path fill="none" stroke="#63b8ff" d="M269.5,-103.93C269.5,-95.27 269.5,-85.65 269.5,-78.72"/>
<polygon fill="#63b8ff" stroke="#63b8ff" points="266,-103.65 269.5,-113.65 273,-103.65 266,-103.65"/>
</a>
</g>
</g>
<!-- Node4 -->
<g id="Node000004" class="node">
<title>Node4</title>
<g id="a_Node000004"><a xlink:href="structnix_1_1RawInstallablesCommand.html" target="_top" xlink:title=" ">
<polygon fill="white" stroke="#666666" points="351.75,-194 187.25,-194 187.25,-173.25 351.75,-173.25 351.75,-194"/>
<text text-anchor="middle" x="269.5" y="-180.5" font-family="Helvetica,sans-Serif" font-size="10.00">nix::RawInstallablesCommand</text>
</a>
</g>
</g>
<!-- Node4&#45;&gt;Node3 -->
<g id="edge3_Node000003_Node000004" class="edge">
<title>Node4&#45;&gt;Node3</title>
<g id="a_edge3_Node000003_Node000004"><a xlink:title=" ">
<path fill="none" stroke="#63b8ff" d="M269.5,-161.68C269.5,-153.02 269.5,-143.4 269.5,-136.47"/>
<polygon fill="#63b8ff" stroke="#63b8ff" points="266,-161.4 269.5,-171.4 273,-161.4 266,-161.4"/>
</a>
</g>
</g>
<!-- Node5 -->
<g id="Node000005" class="node">
<title>Node5</title>
<g id="a_Node000005"><a xlink:href="classnix_1_1Args.html" target="_top" xlink:title=" ">
<polygon fill="white" stroke="#bfbfbf" points="412.88,-591.75 354.12,-591.75 354.12,-571 412.88,-571 412.88,-591.75"/>
<text text-anchor="middle" x="383.5" y="-578.25" font-family="Helvetica,sans-Serif" font-size="10.00">nix::Args</text>
</a>
</g>
</g>
<!-- Node5&#45;&gt;Node4 -->
<g id="edge4_Node000004_Node000005" class="edge">
<title>Node5&#45;&gt;Node4</title>
<g id="a_edge4_Node000004_Node000005"><a xlink:title=" ">
<path fill="none" stroke="#63b8ff" d="M342.52,-578.47C278.13,-574.34 160.5,-561.72 160.5,-524.62 160.5,-524.62 160.5,-524.62 160.5,-240.38 160.5,-215.93 182.5,-202.2 206.73,-194.49"/>
<polygon fill="#63b8ff" stroke="#63b8ff" points="342.19,-581.96 352.38,-579.06 342.6,-574.97 342.19,-581.96"/>
</a>
</g>
</g>
<!-- Node7 -->
<g id="Node000007" class="node">
<title>Node7</title>
<g id="a_Node000007"><a xlink:href="structnix_1_1Command.html" target="_top" xlink:title=" ">
<polygon fill="white" stroke="#666666" points="347.12,-534 259.88,-534 259.88,-513.25 347.12,-513.25 347.12,-534"/>
<text text-anchor="middle" x="303.5" y="-520.5" font-family="Helvetica,sans-Serif" font-size="10.00">nix::Command</text>
</a>
</g>
</g>
<!-- Node5&#45;&gt;Node7 -->
<g id="edge7_Node000007_Node000005" class="edge">
<title>Node5&#45;&gt;Node7</title>
<g id="a_edge7_Node000007_Node000005"><a xlink:title=" ">
<path fill="none" stroke="#63b8ff" d="M360.2,-564.14C346.38,-554.51 329.32,-542.62 317.54,-534.41"/>
<polygon fill="#63b8ff" stroke="#63b8ff" points="358.12,-566.95 368.32,-569.8 362.12,-561.21 358.12,-566.95"/>
</a>
</g>
</g>
<!-- Node8 -->
<g id="Node000008" class="node">
<title>Node8</title>
<g id="a_Node000008"><a xlink:href="structnix_1_1SourceExprCommand.html" target="_top" xlink:title=" ">
<polygon fill="white" stroke="#bfbfbf" points="403.5,-251.75 261.5,-251.75 261.5,-231 403.5,-231 403.5,-251.75"/>
<text text-anchor="middle" x="332.5" y="-238.25" font-family="Helvetica,sans-Serif" font-size="10.00">nix::SourceExprCommand</text>
</a>
</g>
</g>
<!-- Node5&#45;&gt;Node8 -->
<g id="edge9_Node000008_Node000005" class="edge">
<title>Node5&#45;&gt;Node8</title>
<g id="a_edge9_Node000008_Node000005"><a xlink:title=" ">
<path fill="none" stroke="#63b8ff" d="M424.45,-577.34C509.72,-570.46 698.5,-552.14 698.5,-524.62 698.5,-524.62 698.5,-524.62 698.5,-298.12 698.5,-268.64 510.45,-252.78 403.94,-246.16"/>
<polygon fill="#63b8ff" stroke="#63b8ff" points="424.34,-573.84 414.64,-578.11 424.89,-580.81 424.34,-573.84"/>
</a>
</g>
</g>
<!-- Node9 -->
<g id="Node000009" class="node">
<title>Node9</title>
<g id="a_Node000009"><a xlink:href="structnix_1_1MixFlakeOptions.html" target="_top" xlink:title=" ">
<polygon fill="white" stroke="#666666" points="391.88,-309.5 273.12,-309.5 273.12,-288.75 391.88,-288.75 391.88,-309.5"/>
<text text-anchor="middle" x="332.5" y="-296" font-family="Helvetica,sans-Serif" font-size="10.00">nix::MixFlakeOptions</text>
</a>
</g>
</g>
<!-- Node5&#45;&gt;Node9 -->
<g id="edge11_Node000009_Node000005" class="edge">
<title>Node5&#45;&gt;Node9</title>
<g id="a_edge11_Node000009_Node000005"><a xlink:title=" ">
<path fill="none" stroke="#63b8ff" d="M342.58,-578.19C311.7,-574.14 271.22,-563.17 250.5,-534 225.21,-498.4 232.9,-475.71 250.5,-435.75 265.55,-401.56 293.33,-411.06 312.5,-379 325.99,-356.45 330.43,-325.03 331.86,-309.53"/>
<polygon fill="#63b8ff" stroke="#63b8ff" points="342.06,-581.66 352.38,-579.27 342.82,-574.7 342.06,-581.66"/>
</a>
</g>
</g>
<!-- Node12 -->
<g id="Node000012" class="node">
<title>Node12</title>
<g id="a_Node000012"><a xlink:href="structnix_1_1MixEvalArgs.html" target="_top" xlink:title=" ">
<polygon fill="white" stroke="#bfbfbf" points="617.38,-456.5 519.62,-456.5 519.62,-435.75 617.38,-435.75 617.38,-456.5"/>
<text text-anchor="middle" x="568.5" y="-443" font-family="Helvetica,sans-Serif" font-size="10.00">nix::MixEvalArgs</text>
</a>
</g>
</g>
<!-- Node5&#45;&gt;Node12 -->
<g id="edge16_Node000012_Node000005" class="edge">
<title>Node5&#45;&gt;Node12</title>
<g id="a_edge16_Node000012_Node000005"><a xlink:title=" ">
<path fill="none" stroke="#63b8ff" d="M424.63,-576.85C457.21,-572.05 501.99,-560.72 531.5,-534 554.83,-512.87 563.98,-474.57 567.09,-456.74"/>
<polygon fill="#63b8ff" stroke="#63b8ff" points="424.19,-573.37 414.73,-578.14 425.1,-580.31 424.19,-573.37"/>
</a>
</g>
</g>
<!-- Node13 -->
<g id="Node000013" class="node">
<title>Node13</title>
<g id="a_Node000013"><a xlink:href="structnix_1_1MixRepair.html" target="_top" xlink:title=" ">
<polygon fill="white" stroke="#bfbfbf" points="522.75,-534 436.25,-534 436.25,-513.25 522.75,-513.25 522.75,-534"/>
<text text-anchor="middle" x="479.5" y="-520.5" font-family="Helvetica,sans-Serif" font-size="10.00">nix::MixRepair</text>
</a>
</g>
</g>
<!-- Node5&#45;&gt;Node13 -->
<g id="edge18_Node000013_Node000005" class="edge">
<title>Node5&#45;&gt;Node13</title>
<g id="a_edge18_Node000013_Node000005"><a xlink:title=" ">
<path fill="none" stroke="#63b8ff" d="M410.02,-564.97C426.85,-555.2 448.1,-542.86 462.65,-534.41"/>
<polygon fill="#63b8ff" stroke="#63b8ff" points="408.42,-561.86 401.53,-569.9 411.94,-567.91 408.42,-561.86"/>
</a>
</g>
</g>
<!-- Node16 -->
<g id="Node000016" class="node">
<title>Node16</title>
<g id="a_Node000016"><a xlink:href="structnix_1_1MixOperateOnOptions.html" target="_top" xlink:title=" ">
<polygon fill="white" stroke="#bfbfbf" points="145,-495.25 0,-495.25 0,-474.5 145,-474.5 145,-495.25"/>
<text text-anchor="middle" x="72.5" y="-481.75" font-family="Helvetica,sans-Serif" font-size="10.00">nix::MixOperateOnOptions</text>
</a>
</g>
</g>
<!-- Node5&#45;&gt;Node16 -->
<g id="edge22_Node000016_Node000005" class="edge">
<title>Node5&#45;&gt;Node16</title>
<g id="a_edge22_Node000016_Node000005"><a xlink:title=" ">
<path fill="none" stroke="#63b8ff" d="M342.3,-578.65C283.93,-575.68 180.47,-568.41 146.5,-553 117.44,-539.82 91.92,-510.91 79.87,-495.69"/>
<polygon fill="#63b8ff" stroke="#63b8ff" points="342.02,-582.14 352.18,-579.12 342.36,-575.14 342.02,-582.14"/>
</a>
</g>
</g>
<!-- Node17 -->
<g id="Node000017" class="node">
<title>Node17</title>
<g id="a_Node000017"><a xlink:href="structnix_1_1MixJSON.html" target="_top" xlink:title=" ">
<polygon fill="white" stroke="#bfbfbf" points="793,-417.75 714,-417.75 714,-397 793,-397 793,-417.75"/>
<text text-anchor="middle" x="753.5" y="-404.25" font-family="Helvetica,sans-Serif" font-size="10.00">nix::MixJSON</text>
</a>
</g>
</g>
<!-- Node5&#45;&gt;Node17 -->
<g id="edge24_Node000017_Node000005" class="edge">
<title>Node5&#45;&gt;Node17</title>
<g id="a_edge24_Node000017_Node000005"><a xlink:title=" ">
<path fill="none" stroke="#63b8ff" d="M424.67,-579.54C508.03,-577.47 690.73,-570.92 712.5,-553 754.41,-518.5 755.28,-444.59 754.14,-418.08"/>
<polygon fill="#63b8ff" stroke="#63b8ff" points="424.79,-576.03 414.87,-579.77 424.95,-583.03 424.79,-576.03"/>
</a>
</g>
</g>
<!-- Node6 -->
<g id="Node000006" class="node">
<title>Node6</title>
<g id="a_Node000006"><a xlink:href="classnix_1_1MultiCommand.html" target="_top" xlink:title=" ">
<polygon fill="white" stroke="#666666" points="501.5,-456.5 389.5,-456.5 389.5,-435.75 501.5,-435.75 501.5,-456.5"/>
<text text-anchor="middle" x="445.5" y="-443" font-family="Helvetica,sans-Serif" font-size="10.00">nix::MultiCommand</text>
</a>
</g>
</g>
<!-- Node6&#45;&gt;Node5 -->
<g id="edge5_Node000005_Node000006" class="edge">
<title>Node6&#45;&gt;Node5</title>
<g id="a_edge5_Node000005_Node000006"><a xlink:title=" ">
<path fill="none" stroke="#9a32cd" stroke-dasharray="5,2" d="M427.1,-464.8C415.36,-477.21 400.92,-494.83 393,-513.25 384.73,-532.5 383.37,-557.43 383.3,-570.84"/>
<polygon fill="#9a32cd" stroke="#9a32cd" points="429.45,-467.4 433.97,-457.83 424.46,-462.49 429.45,-467.4"/>
</a>
</g>
<text text-anchor="middle" x="410.25" y="-520.5" font-family="Helvetica,sans-Serif" font-size="10.00" fill="grey"> parent</text>
</g>
<!-- Node7&#45;&gt;Node6 -->
<g id="edge6_Node000006_Node000007" class="edge">
<title>Node7&#45;&gt;Node6</title>
<g id="a_edge6_Node000006_Node000007"><a xlink:title=" ">
<path fill="none" stroke="#63b8ff" d="M323.23,-505.93C335.86,-495.85 352.93,-483.29 369.5,-474.5 382.88,-467.4 398.5,-461.42 412.08,-456.88"/>
<polygon fill="#63b8ff" stroke="#63b8ff" points="321.22,-503.06 315.7,-512.1 325.65,-508.47 321.22,-503.06"/>
</a>
</g>
</g>
<!-- Node11 -->
<g id="Node000011" class="node">
<title>Node11</title>
<g id="a_Node000011"><a xlink:href="structnix_1_1StoreCommand.html" target="_top" xlink:title=" ">
<polygon fill="white" stroke="#666666" points="371.88,-456.5 259.12,-456.5 259.12,-435.75 371.88,-435.75 371.88,-456.5"/>
<text text-anchor="middle" x="315.5" y="-443" font-family="Helvetica,sans-Serif" font-size="10.00">nix::StoreCommand</text>
</a>
</g>
</g>
<!-- Node7&#45;&gt;Node11 -->
<g id="edge14_Node000011_Node000007" class="edge">
<title>Node7&#45;&gt;Node11</title>
<g id="a_edge14_Node000011_Node000007"><a xlink:title=" ">
<path fill="none" stroke="#63b8ff" d="M306.83,-501.68C309.17,-486.98 312.18,-468.02 313.97,-456.76"/>
<polygon fill="#63b8ff" stroke="#63b8ff" points="303.42,-500.83 305.31,-511.26 310.33,-501.93 303.42,-500.83"/>
</a>
</g>
</g>
<!-- Node8&#45;&gt;Node4 -->
<g id="edge8_Node000004_Node000008" class="edge">
<title>Node8&#45;&gt;Node4</title>
<g id="a_edge8_Node000004_Node000008"><a xlink:title=" ">
<path fill="none" stroke="#63b8ff" d="M313.14,-223.24C302.36,-213.7 289.34,-202.19 280.35,-194.22"/>
<polygon fill="#63b8ff" stroke="#63b8ff" points="310.58,-225.66 320.39,-229.66 315.22,-220.41 310.58,-225.66"/>
</a>
</g>
</g>
<!-- Node9&#45;&gt;Node8 -->
<g id="edge10_Node000008_Node000009" class="edge">
<title>Node9&#45;&gt;Node8</title>
<g id="a_edge10_Node000008_Node000009"><a xlink:title=" ">
<path fill="none" stroke="#63b8ff" d="M332.5,-277.18C332.5,-268.52 332.5,-258.9 332.5,-251.97"/>
<polygon fill="#63b8ff" stroke="#63b8ff" points="329,-276.9 332.5,-286.9 336,-276.9 329,-276.9"/>
</a>
</g>
</g>
<!-- Node10 -->
<g id="Node000010" class="node">
<title>Node10</title>
<g id="a_Node000010"><a xlink:href="structnix_1_1EvalCommand.html" target="_top" xlink:title=" ">
<polygon fill="white" stroke="#666666" points="468.62,-379 360.38,-379 360.38,-358.25 468.62,-358.25 468.62,-379"/>
<text text-anchor="middle" x="414.5" y="-365.5" font-family="Helvetica,sans-Serif" font-size="10.00">nix::EvalCommand</text>
</a>
</g>
</g>
<!-- Node10&#45;&gt;Node9 -->
<g id="edge12_Node000009_Node000010" class="edge">
<title>Node10&#45;&gt;Node9</title>
<g id="a_edge12_Node000009_Node000010"><a xlink:title=" ">
<path fill="none" stroke="#63b8ff" d="M394.29,-350.98C378.66,-338.12 357.55,-320.75 344.49,-310"/>
<polygon fill="#63b8ff" stroke="#63b8ff" points="391.64,-353.34 401.58,-356.99 396.09,-347.93 391.64,-353.34"/>
</a>
</g>
</g>
<!-- Node11&#45;&gt;Node10 -->
<g id="edge13_Node000010_Node000011" class="edge">
<title>Node11&#45;&gt;Node10</title>
<g id="a_edge13_Node000010_Node000011"><a xlink:title=" ">
<path fill="none" stroke="#63b8ff" d="M337.59,-428.28C357.24,-413.29 385.32,-391.88 401.55,-379.5"/>
<polygon fill="#63b8ff" stroke="#63b8ff" points="335.48,-425.49 329.65,-434.34 339.72,-431.06 335.48,-425.49"/>
</a>
</g>
</g>
<!-- Node12&#45;&gt;Node10 -->
<g id="edge15_Node000010_Node000012" class="edge">
<title>Node12&#45;&gt;Node10</title>
<g id="a_edge15_Node000010_Node000012"><a xlink:title=" ">
<path fill="none" stroke="#63b8ff" d="M538.25,-430.29C507.6,-415.27 461.04,-392.44 434.64,-379.5"/>
<polygon fill="#63b8ff" stroke="#63b8ff" points="536.49,-433.33 547.01,-434.59 539.57,-427.04 536.49,-433.33"/>
</a>
</g>
</g>
<!-- Node13&#45;&gt;Node12 -->
<g id="edge17_Node000012_Node000013" class="edge">
<title>Node13&#45;&gt;Node12</title>
<g id="a_edge17_Node000012_Node000013"><a xlink:title=" ">
<path fill="none" stroke="#63b8ff" d="M499.6,-505.58C517.26,-490.6 542.34,-469.32 556.86,-457"/>
<polygon fill="#63b8ff" stroke="#63b8ff" points="497.65,-502.64 492.29,-511.78 502.18,-507.98 497.65,-502.64"/>
</a>
</g>
</g>
<!-- Node14 -->
<g id="Node000014" class="node">
<title>Node14</title>
<g id="a_Node000014"><a xlink:href="structnix_1_1SearchPath.html" target="_top" xlink:title=" ">
<polygon fill="white" stroke="#666666" points="670,-534 579,-534 579,-513.25 670,-513.25 670,-534"/>
<text text-anchor="middle" x="624.5" y="-520.5" font-family="Helvetica,sans-Serif" font-size="10.00">nix::SearchPath</text>
</a>
</g>
</g>
<!-- Node14&#45;&gt;Node12 -->
<g id="edge19_Node000012_Node000014" class="edge">
<title>Node14&#45;&gt;Node12</title>
<g id="a_edge19_Node000012_Node000014"><a xlink:title=" ">
<path fill="none" stroke="#9a32cd" stroke-dasharray="5,2" d="M610.57,-503.85C599.48,-488.9 584.42,-468.58 575.65,-456.76"/>
<polygon fill="#9a32cd" stroke="#9a32cd" points="607.51,-505.59 616.28,-511.54 613.13,-501.42 607.51,-505.59"/>
</a>
</g>
<text text-anchor="middle" x="631.29" y="-481.75" font-family="Helvetica,sans-Serif" font-size="10.00" fill="grey"> searchPath</text>
</g>
<!-- Node15 -->
<g id="Node000015" class="node">
<title>Node15</title>
<g id="a_Node000015"><a xlink:href="structnix_1_1flake_1_1LockFlags.html" target="_top" xlink:title=" ">
<polygon fill="white" stroke="#bfbfbf" points="304,-379 189,-379 189,-358.25 304,-358.25 304,-379"/>
<text text-anchor="middle" x="246.5" y="-365.5" font-family="Helvetica,sans-Serif" font-size="10.00">nix::flake::LockFlags</text>
</a>
</g>
</g>
<!-- Node15&#45;&gt;Node9 -->
<g id="edge20_Node000009_Node000015" class="edge">
<title>Node15&#45;&gt;Node9</title>
<g id="a_edge20_Node000009_Node000015"><a xlink:title=" ">
<path fill="none" stroke="#9a32cd" stroke-dasharray="5,2" d="M254.52,-347.53C258.11,-340.49 262.93,-332.97 269,-327.5 277.47,-319.87 288.4,-314.13 298.8,-309.93"/>
<polygon fill="#9a32cd" stroke="#9a32cd" points="251.41,-345.92 250.5,-356.48 257.79,-348.79 251.41,-345.92"/>
</a>
</g>
<text text-anchor="middle" x="293.75" y="-330.75" font-family="Helvetica,sans-Serif" font-size="10.00" fill="grey"> lockFlags</text>
</g>
<!-- Node16&#45;&gt;Node2 -->
<g id="edge21_Node000002_Node000016" class="edge">
<title>Node16&#45;&gt;Node2</title>
<g id="a_edge21_Node000002_Node000016"><a xlink:title=" ">
<path fill="none" stroke="#63b8ff" d="M82.75,-464.41C89.65,-449.49 97.5,-428.18 97.5,-408.38 97.5,-408.38 97.5,-408.38 97.5,-124.88 97.5,-102.04 153.06,-87.15 201.03,-78.55"/>
<polygon fill="#63b8ff" stroke="#63b8ff" points="79.76,-462.56 78.47,-473.08 86.04,-465.66 79.76,-462.56"/>
</a>
</g>
</g>
<!-- Node17&#45;&gt;Node1 -->
<g id="edge23_Node000001_Node000017" class="edge">
<title>Node17&#45;&gt;Node1</title>
<g id="a_edge23_Node000001_Node000017"><a xlink:title=" ">
<path fill="none" stroke="#63b8ff" d="M749.51,-385.71C747.1,-371.48 744.5,-352.1 744.5,-334.88 744.5,-334.88 744.5,-334.88 744.5,-67.12 744.5,-34.97 655.45,-21.18 590.41,-15.39"/>
<polygon fill="#63b8ff" stroke="#63b8ff" points="746.01,-386 751.23,-395.22 752.89,-384.76 746.01,-386"/>
</a>
</g>
</g>
</g>
</svg>
