<?xml version="1.0" encoding="UTF-8" standalone="no"?>
<!DOCTYPE svg PUBLIC "-//W3C//DTD SVG 1.1//EN"
 "http://www.w3.org/Graphics/SVG/1.1/DTD/svg11.dtd">
<!-- Generated by graphviz version 12.2.1 (0)
 -->
<!-- Title: nix::flake::LockedNode Pages: 1 -->
<svg width="312pt" height="193pt"
 viewBox="0.00 0.00 311.75 193.25" xmlns="http://www.w3.org/2000/svg" xmlns:xlink="http://www.w3.org/1999/xlink">
<g id="graph0" class="graph" transform="scale(1 1) rotate(0) translate(4 189.25)">
<title>nix::flake::LockedNode</title>
<!-- Node1 -->
<g id="Node000001" class="node">
<title>Node1</title>
<g id="a_Node000001"><a xlink:title=" ">
<polygon fill="#999999" stroke="#666666" points="184.62,-20.75 59.12,-20.75 59.12,0 184.62,0 184.62,-20.75"/>
<text text-anchor="middle" x="121.88" y="-7.25" font-family="Helvetica,sans-Serif" font-size="10.00">nix::flake::LockedNode</text>
</a>
</g>
</g>
<!-- Node2 -->
<g id="Node000002" class="node">
<title>Node2</title>
<g id="a_Node000002"><a xlink:href="structnix_1_1flake_1_1Node.html" target="_top" xlink:title=" ">
<polygon fill="white" stroke="#666666" points="116.75,-103 25,-103 25,-82.25 116.75,-82.25 116.75,-103"/>
<text text-anchor="middle" x="70.88" y="-89.5" font-family="Helvetica,sans-Serif" font-size="10.00">nix::flake::Node</text>
</a>
</g>
</g>
<!-- Node2&#45;&gt;Node1 -->
<g id="edge1_Node000001_Node000002" class="edge">
<title>Node2&#45;&gt;Node1</title>
<g id="a_edge1_Node000001_Node000002"><a xlink:title=" ">
<path fill="none" stroke="#63b8ff" d="M83.25,-72.15C93.6,-55.87 107.91,-33.35 115.89,-20.8"/>
<polygon fill="#63b8ff" stroke="#63b8ff" points="80.35,-70.19 77.94,-80.51 86.26,-73.94 80.35,-70.19"/>
</a>
</g>
</g>
<!-- Node3 -->
<g id="Node000003" class="node">
<title>Node3</title>
<g id="a_Node000003"><a xlink:title=" ">
<polygon fill="white" stroke="#bfbfbf" points="115.75,-185.25 0,-185.25 0,-151.75 115.75,-151.75 115.75,-185.25"/>
<text text-anchor="start" x="8" y="-171.75" font-family="Helvetica,sans-Serif" font-size="10.00">std::enable_shared</text>
<text text-anchor="middle" x="57.88" y="-159" font-family="Helvetica,sans-Serif" font-size="10.00">_from_this&lt; Node &gt;</text>
</a>
</g>
</g>
<!-- Node3&#45;&gt;Node2 -->
<g id="edge2_Node000002_Node000003" class="edge">
<title>Node3&#45;&gt;Node2</title>
<g id="a_edge2_Node000002_Node000003"><a xlink:title=" ">
<path fill="none" stroke="#63b8ff" d="M62.68,-140.2C64.97,-127.17 67.57,-112.43 69.21,-103.08"/>
<polygon fill="#63b8ff" stroke="#63b8ff" points="59.24,-139.52 60.96,-149.98 66.14,-140.74 59.24,-139.52"/>
</a>
</g>
</g>
<!-- Node4 -->
<g id="Node000004" class="node">
<title>Node4</title>
<g id="a_Node000004"><a xlink:href="structnix_1_1FlakeRef.html" target="_top" xlink:title=" ">
<polygon fill="white" stroke="#666666" points="227.75,-103 148,-103 148,-82.25 227.75,-82.25 227.75,-103"/>
<text text-anchor="middle" x="187.88" y="-89.5" font-family="Helvetica,sans-Serif" font-size="10.00">nix::FlakeRef</text>
</a>
</g>
</g>
<!-- Node4&#45;&gt;Node1 -->
<g id="edge3_Node000001_Node000004" class="edge">
<title>Node4&#45;&gt;Node1</title>
<g id="a_edge3_Node000001_Node000004"><a xlink:title=" ">
<path fill="none" stroke="#9a32cd" stroke-dasharray="5,2" d="M172.62,-73.08C159.18,-56.73 140.15,-33.59 129.62,-20.8"/>
<polygon fill="#9a32cd" stroke="#9a32cd" points="169.77,-75.12 178.82,-80.62 175.17,-70.67 169.77,-75.12"/>
</a>
</g>
<text text-anchor="middle" x="191.27" y="-54.75" font-family="Helvetica,sans-Serif" font-size="10.00" fill="grey"> lockedRef</text>
<text text-anchor="middle" x="191.27" y="-42" font-family="Helvetica,sans-Serif" font-size="10.00" fill="grey">originalRef</text>
</g>
<!-- Node5 -->
<g id="Node000005" class="node">
<title>Node5</title>
<g id="a_Node000005"><a xlink:href="structnix_1_1fetchers_1_1Input.html" target="_top" xlink:title=" ">
<polygon fill="white" stroke="#666666" points="241.62,-178.88 134.12,-178.88 134.12,-158.12 241.62,-158.12 241.62,-178.88"/>
<text text-anchor="middle" x="187.88" y="-165.38" font-family="Helvetica,sans-Serif" font-size="10.00">nix::fetchers::Input</text>
</a>
</g>
</g>
<!-- Node5&#45;&gt;Node4 -->
<g id="edge4_Node000004_Node000005" class="edge">
<title>Node5&#45;&gt;Node4</title>
<g id="a_edge4_Node000004_Node000005"><a xlink:title=" ">
<path fill="none" stroke="#9a32cd" stroke-dasharray="5,2" d="M187.88,-146.57C187.88,-132.25 187.88,-113.96 187.88,-103.05"/>
<polygon fill="#9a32cd" stroke="#9a32cd" points="184.38,-146.33 187.88,-156.33 191.38,-146.33 184.38,-146.33"/>
</a>
</g>
<text text-anchor="middle" x="201.75" y="-124.25" font-family="Helvetica,sans-Serif" font-size="10.00" fill="grey"> input</text>
</g>
<!-- Node6 -->
<g id="Node000006" class="node">
<title>Node6</title>
<g id="a_Node000006"><a xlink:title=" ">
<polygon fill="white" stroke="#bfbfbf" points="303.75,-178.88 260,-178.88 260,-158.12 303.75,-158.12 303.75,-178.88"/>
<text text-anchor="middle" x="281.88" y="-165.38" font-family="Helvetica,sans-Serif" font-size="10.00">string</text>
</a>
</g>
</g>
<!-- Node6&#45;&gt;Node4 -->
<g id="edge5_Node000004_Node000006" class="edge">
<title>Node6&#45;&gt;Node4</title>
<g id="a_edge5_Node000004_Node000006"><a xlink:title=" ">
<path fill="none" stroke="#9a32cd" stroke-dasharray="5,2" d="M260.65,-150.82C242,-136.16 215.51,-115.34 200.17,-103.29"/>
<polygon fill="#9a32cd" stroke="#9a32cd" points="258.37,-153.48 268.4,-156.91 262.7,-147.98 258.37,-153.48"/>
</a>
</g>
<text text-anchor="middle" x="254.19" y="-124.25" font-family="Helvetica,sans-Serif" font-size="10.00" fill="grey"> subdir</text>
</g>
</g>
</svg>
