<?xml version="1.0" encoding="UTF-8" standalone="no"?>
<!DOCTYPE svg PUBLIC "-//W3C//DTD SVG 1.1//EN"
 "http://www.w3.org/Graphics/SVG/1.1/DTD/svg11.dtd">
<!-- Generated by graphviz version 12.2.1 (0)
 -->
<!-- Title: nix::ContentAddress Pages: 1 -->
<svg width="297pt" height="98pt"
 viewBox="0.00 0.00 296.88 98.25" xmlns="http://www.w3.org/2000/svg" xmlns:xlink="http://www.w3.org/1999/xlink">
<g id="graph0" class="graph" transform="scale(1 1) rotate(0) translate(4 94.25)">
<title>nix::ContentAddress</title>
<!-- Node1 -->
<g id="Node000001" class="node">
<title>Node1</title>
<g id="a_Node000001"><a xlink:title=" ">
<polygon fill="#999999" stroke="#666666" points="164.62,-20.75 50.38,-20.75 50.38,0 164.62,0 164.62,-20.75"/>
<text text-anchor="middle" x="107.5" y="-7.25" font-family="Helvetica,sans-Serif" font-size="10.00">nix::ContentAddress</text>
</a>
</g>
</g>
<!-- Node2 -->
<g id="Node000002" class="node">
<title>Node2</title>
<g id="a_Node000002"><a xlink:href="structnix_1_1ContentAddressMethod.html" target="_top" xlink:title=" ">
<polygon fill="white" stroke="#666666" points="151,-90.25 0,-90.25 0,-69.5 151,-69.5 151,-90.25"/>
<text text-anchor="middle" x="75.5" y="-76.75" font-family="Helvetica,sans-Serif" font-size="10.00">nix::ContentAddressMethod</text>
</a>
</g>
</g>
<!-- Node2&#45;&gt;Node1 -->
<g id="edge1_Node000001_Node000002" class="edge">
<title>Node2&#45;&gt;Node1</title>
<g id="a_edge1_Node000001_Node000002"><a xlink:title=" ">
<path fill="none" stroke="#9a32cd" stroke-dasharray="5,2" d="M85,-58.83C90.92,-46.35 98.27,-30.85 102.92,-21.03"/>
<polygon fill="#9a32cd" stroke="#9a32cd" points="81.85,-57.3 80.73,-67.84 88.18,-60.3 81.85,-57.3"/>
</a>
</g>
<text text-anchor="middle" x="114.62" y="-42" font-family="Helvetica,sans-Serif" font-size="10.00" fill="grey"> method</text>
</g>
<!-- Node3 -->
<g id="Node000003" class="node">
<title>Node3</title>
<g id="a_Node000003"><a xlink:href="structnix_1_1Hash.html" target="_top" xlink:title=" ">
<polygon fill="white" stroke="#bfbfbf" points="230.38,-90.25 168.62,-90.25 168.62,-69.5 230.38,-69.5 230.38,-90.25"/>
<text text-anchor="middle" x="199.5" y="-76.75" font-family="Helvetica,sans-Serif" font-size="10.00">nix::Hash</text>
</a>
</g>
</g>
<!-- Node3&#45;&gt;Node1 -->
<g id="edge2_Node000001_Node000003" class="edge">
<title>Node3&#45;&gt;Node1</title>
<g id="a_edge2_Node000001_Node000003"><a xlink:title=" ">
<path fill="none" stroke="#9a32cd" stroke-dasharray="5,2" d="M177.31,-62.59C159.73,-49.7 135.74,-32.1 120.96,-21.25"/>
<polygon fill="#9a32cd" stroke="#9a32cd" points="174.97,-65.21 185.1,-68.31 179.11,-59.57 174.97,-65.21"/>
</a>
</g>
<text text-anchor="middle" x="174.87" y="-42" font-family="Helvetica,sans-Serif" font-size="10.00" fill="grey"> hash</text>
</g>
<!-- Node3&#45;&gt;Node3 -->
<g id="edge3_Node000003_Node000003" class="edge">
<title>Node3&#45;&gt;Node3</title>
<g id="a_edge3_Node000003_Node000003"><a xlink:title=" ">
<path fill="none" stroke="#9a32cd" stroke-dasharray="5,2" d="M241.92,-85.09C245.88,-84.02 248.38,-82.28 248.38,-79.88 248.38,-75.6 240.48,-73.43 230.52,-73.36"/>
<polygon fill="#9a32cd" stroke="#9a32cd" points="241.57,-81.61 232.03,-86.22 242.36,-88.57 241.57,-81.61"/>
</a>
</g>
<text text-anchor="middle" x="268.62" y="-76.75" font-family="Helvetica,sans-Serif" font-size="10.00" fill="grey"> dummy</text>
</g>
</g>
</svg>
