<?xml version="1.0" encoding="UTF-8" standalone="no"?>
<!DOCTYPE svg PUBLIC "-//W3C//DTD SVG 1.1//EN"
 "http://www.w3.org/Graphics/SVG/1.1/DTD/svg11.dtd">
<!-- Generated by graphviz version 12.2.1 (0)
 -->
<!-- Title: nix::SingleDerivedPathBuilt Pages: 1 -->
<svg width="220pt" height="111pt"
 viewBox="0.00 0.00 220.38 111.00" xmlns="http://www.w3.org/2000/svg" xmlns:xlink="http://www.w3.org/1999/xlink">
<g id="graph0" class="graph" transform="scale(1 1) rotate(0) translate(4 107)">
<title>nix::SingleDerivedPathBuilt</title>
<!-- Node1 -->
<g id="Node000001" class="node">
<title>Node1</title>
<g id="a_Node000001"><a xlink:title=" ">
<polygon fill="#999999" stroke="#666666" points="206.88,-20.75 58.12,-20.75 58.12,0 206.88,0 206.88,-20.75"/>
<text text-anchor="middle" x="132.5" y="-7.25" font-family="Helvetica,sans-Serif" font-size="10.00">nix::SingleDerivedPathBuilt</text>
</a>
</g>
</g>
<!-- Node2 -->
<g id="Node000002" class="node">
<title>Node2</title>
<g id="a_Node000002"><a xlink:href="classnix_1_1ref.html" target="_top" xlink:title=" ">
<polygon fill="white" stroke="#666666" points="151,-103 0,-103 0,-69.5 151,-69.5 151,-103"/>
<text text-anchor="start" x="8" y="-89.5" font-family="Helvetica,sans-Serif" font-size="10.00">nix::ref&lt; nix::SingleDerived</text>
<text text-anchor="middle" x="75.5" y="-76.75" font-family="Helvetica,sans-Serif" font-size="10.00">Path &gt;</text>
</a>
</g>
</g>
<!-- Node2&#45;&gt;Node1 -->
<g id="edge1_Node000001_Node000002" class="edge">
<title>Node2&#45;&gt;Node1</title>
<g id="a_edge1_Node000001_Node000002"><a xlink:title=" ">
<path fill="none" stroke="#9a32cd" stroke-dasharray="5,2" d="M94.74,-60.32C105.21,-46.75 117.55,-30.75 125.2,-20.83"/>
<polygon fill="#9a32cd" stroke="#9a32cd" points="92.13,-57.97 88.79,-68.02 97.67,-62.24 92.13,-57.97"/>
</a>
</g>
<text text-anchor="middle" x="130.66" y="-42" font-family="Helvetica,sans-Serif" font-size="10.00" fill="grey"> drvPath</text>
</g>
<!-- Node3 -->
<g id="Node000003" class="node">
<title>Node3</title>
<g id="a_Node000003"><a xlink:title=" ">
<polygon fill="white" stroke="#bfbfbf" points="212.38,-96.62 168.62,-96.62 168.62,-75.88 212.38,-75.88 212.38,-96.62"/>
<text text-anchor="middle" x="190.5" y="-83.12" font-family="Helvetica,sans-Serif" font-size="10.00">string</text>
</a>
</g>
</g>
<!-- Node3&#45;&gt;Node1 -->
<g id="edge2_Node000001_Node000003" class="edge">
<title>Node3&#45;&gt;Node1</title>
<g id="a_edge2_Node000001_Node000003"><a xlink:title=" ">
<path fill="none" stroke="#9a32cd" stroke-dasharray="5,2" d="M176.14,-66.54C169.57,-58.03 161.68,-47.85 154.5,-38.75 149.89,-32.91 144.68,-26.42 140.49,-21.22"/>
<polygon fill="#9a32cd" stroke="#9a32cd" points="173.31,-68.6 182.18,-74.39 178.86,-64.33 173.31,-68.6"/>
</a>
</g>
<text text-anchor="middle" x="181.71" y="-42" font-family="Helvetica,sans-Serif" font-size="10.00" fill="grey"> output</text>
</g>
</g>
</svg>
