<?xml version="1.0" encoding="UTF-8" standalone="no"?>
<!DOCTYPE svg PUBLIC "-//W3C//DTD SVG 1.1//EN"
 "http://www.w3.org/Graphics/SVG/1.1/DTD/svg11.dtd">
<!-- Generated by graphviz version 12.2.1 (0)
 -->
<!-- Title: nix::Derivation Pages: 1 -->
<svg width="300pt" height="206pt"
 viewBox="0.00 0.00 299.75 206.00" xmlns="http://www.w3.org/2000/svg" xmlns:xlink="http://www.w3.org/1999/xlink">
<g id="graph0" class="graph" transform="scale(1 1) rotate(0) translate(4 202)">
<title>nix::Derivation</title>
<!-- Node1 -->
<g id="Node000001" class="node">
<title>Node1</title>
<g id="a_Node000001"><a xlink:title=" ">
<polygon fill="#999999" stroke="#666666" points="178.12,-20.75 90.12,-20.75 90.12,0 178.12,0 178.12,-20.75"/>
<text text-anchor="middle" x="134.12" y="-7.25" font-family="Helvetica,sans-Serif" font-size="10.00">nix::Derivation</text>
</a>
</g>
</g>
<!-- Node2 -->
<g id="Node000002" class="node">
<title>Node2</title>
<g id="a_Node000002"><a xlink:href="structnix_1_1BasicDerivation.html" target="_top" xlink:title=" ">
<polygon fill="white" stroke="#bfbfbf" points="114.25,-96.62 0,-96.62 0,-75.88 114.25,-75.88 114.25,-96.62"/>
<text text-anchor="middle" x="57.12" y="-83.12" font-family="Helvetica,sans-Serif" font-size="10.00">nix::BasicDerivation</text>
</a>
</g>
</g>
<!-- Node2&#45;&gt;Node1 -->
<g id="edge1_Node000001_Node000002" class="edge">
<title>Node2&#45;&gt;Node1</title>
<g id="a_edge1_Node000001_Node000002"><a xlink:title=" ">
<path fill="none" stroke="#63b8ff" d="M75.41,-67.71C90.73,-53.01 112.01,-32.59 124.3,-20.8"/>
<polygon fill="#63b8ff" stroke="#63b8ff" points="73.08,-65.1 68.28,-74.54 77.92,-70.15 73.08,-65.1"/>
</a>
</g>
</g>
<!-- Node3 -->
<g id="Node000003" class="node">
<title>Node3</title>
<g id="a_Node000003"><a xlink:title=" ">
<polygon fill="white" stroke="#bfbfbf" points="79,-198 35.25,-198 35.25,-177.25 79,-177.25 79,-198"/>
<text text-anchor="middle" x="57.12" y="-184.5" font-family="Helvetica,sans-Serif" font-size="10.00">string</text>
</a>
</g>
</g>
<!-- Node3&#45;&gt;Node2 -->
<g id="edge2_Node000002_Node000003" class="edge">
<title>Node3&#45;&gt;Node2</title>
<g id="a_edge2_Node000002_Node000003"><a xlink:title=" ">
<path fill="none" stroke="#9a32cd" stroke-dasharray="5,2" d="M57.12,-165.8C57.12,-144.62 57.12,-112.74 57.12,-96.9"/>
<polygon fill="#9a32cd" stroke="#9a32cd" points="53.63,-165.58 57.13,-175.58 60.63,-165.58 53.63,-165.58"/>
</a>
</g>
<text text-anchor="middle" x="78.12" y="-149.75" font-family="Helvetica,sans-Serif" font-size="10.00" fill="grey"> builder</text>
<text text-anchor="middle" x="78.12" y="-137" font-family="Helvetica,sans-Serif" font-size="10.00" fill="grey">name</text>
<text text-anchor="middle" x="78.12" y="-124.25" font-family="Helvetica,sans-Serif" font-size="10.00" fill="grey">platform</text>
</g>
<!-- Node4 -->
<g id="Node000004" class="node">
<title>Node4</title>
<g id="a_Node000004"><a xlink:href="structnix_1_1DerivedPathMap.html" target="_top" xlink:title=" ">
<polygon fill="white" stroke="#666666" points="291.75,-103 132.5,-103 132.5,-69.5 291.75,-69.5 291.75,-103"/>
<text text-anchor="start" x="140.5" y="-89.5" font-family="Helvetica,sans-Serif" font-size="10.00">nix::DerivedPathMap</text>
<text text-anchor="middle" x="212.12" y="-76.75" font-family="Helvetica,sans-Serif" font-size="10.00">&lt; std::set&lt; OutputName &gt; &gt;</text>
</a>
</g>
</g>
<!-- Node4&#45;&gt;Node1 -->
<g id="edge3_Node000001_Node000004" class="edge">
<title>Node4&#45;&gt;Node1</title>
<g id="a_edge3_Node000001_Node000004"><a xlink:title=" ">
<path fill="none" stroke="#9a32cd" stroke-dasharray="5,2" d="M187.03,-61.48C172.45,-47.67 154.88,-31.03 144.11,-20.83"/>
<polygon fill="#9a32cd" stroke="#9a32cd" points="184.43,-63.84 194.1,-68.18 189.25,-58.76 184.43,-63.84"/>
</a>
</g>
<text text-anchor="middle" x="200.59" y="-42" font-family="Helvetica,sans-Serif" font-size="10.00" fill="grey"> inputDrvs</text>
</g>
</g>
</svg>
