<?xml version="1.0" encoding="UTF-8" standalone="no"?>
<!DOCTYPE svg PUBLIC "-//W3C//DTD SVG 1.1//EN"
 "http://www.w3.org/Graphics/SVG/1.1/DTD/svg11.dtd">
<!-- Generated by graphviz version 12.2.1 (0)
 -->
<!-- Title: nix::CmdFlakeUpdate Pages: 1 -->
<svg width="496pt" height="411pt"
 viewBox="0.00 0.00 496.25 410.50" xmlns="http://www.w3.org/2000/svg" xmlns:xlink="http://www.w3.org/1999/xlink">
<g id="graph0" class="graph" transform="scale(1 1) rotate(0) translate(4 406.5)">
<title>nix::CmdFlakeUpdate</title>
<!-- Node1 -->
<g id="Node000001" class="node">
<title>Node1</title>
<g id="a_Node000001"><a xlink:title=" ">
<polygon fill="#999999" stroke="#666666" points="166.5,-20.75 45.5,-20.75 45.5,0 166.5,0 166.5,-20.75"/>
<text text-anchor="middle" x="106" y="-7.25" font-family="Helvetica,sans-Serif" font-size="10.00">nix::CmdFlakeUpdate</text>
</a>
</g>
</g>
<!-- Node2 -->
<g id="Node000002" class="node">
<title>Node2</title>
<g id="a_Node000002"><a xlink:href="classnix_1_1FlakeCommand.html" target="_top" xlink:title=" ">
<polygon fill="white" stroke="#bfbfbf" points="162.75,-78.5 49.25,-78.5 49.25,-57.75 162.75,-57.75 162.75,-78.5"/>
<text text-anchor="middle" x="106" y="-65" font-family="Helvetica,sans-Serif" font-size="10.00">nix::FlakeCommand</text>
</a>
</g>
</g>
<!-- Node2&#45;&gt;Node1 -->
<g id="edge1_Node000001_Node000002" class="edge">
<title>Node2&#45;&gt;Node1</title>
<g id="a_edge1_Node000001_Node000002"><a xlink:title=" ">
<path fill="none" stroke="#63b8ff" d="M106,-46.18C106,-37.52 106,-27.9 106,-20.97"/>
<polygon fill="#63b8ff" stroke="#63b8ff" points="102.5,-45.9 106,-55.9 109.5,-45.9 102.5,-45.9"/>
</a>
</g>
</g>
<!-- Node3 -->
<g id="Node000003" class="node">
<title>Node3</title>
<g id="a_Node000003"><a xlink:href="classnix_1_1Args.html" target="_top" xlink:title=" ">
<polygon fill="white" stroke="#bfbfbf" points="211.38,-402.5 152.62,-402.5 152.62,-381.75 211.38,-381.75 211.38,-402.5"/>
<text text-anchor="middle" x="182" y="-389" font-family="Helvetica,sans-Serif" font-size="10.00">nix::Args</text>
</a>
</g>
</g>
<!-- Node3&#45;&gt;Node2 -->
<g id="edge2_Node000002_Node000003" class="edge">
<title>Node3&#45;&gt;Node2</title>
<g id="a_edge2_Node000002_Node000003"><a xlink:title=" ">
<path fill="none" stroke="#63b8ff" d="M141.14,-386.88C87.47,-380.16 0,-364.7 0,-335.38 0,-335.38 0,-335.38 0,-136.62 0,-105.64 32.61,-88.26 61.66,-78.93"/>
<polygon fill="#63b8ff" stroke="#63b8ff" points="140.51,-390.33 150.85,-388.05 141.34,-383.38 140.51,-390.33"/>
</a>
</g>
</g>
<!-- Node5 -->
<g id="Node000005" class="node">
<title>Node5</title>
<g id="a_Node000005"><a xlink:href="structnix_1_1Command.html" target="_top" xlink:title=" ">
<polygon fill="white" stroke="#666666" points="165.62,-344.75 78.38,-344.75 78.38,-324 165.62,-324 165.62,-344.75"/>
<text text-anchor="middle" x="122" y="-331.25" font-family="Helvetica,sans-Serif" font-size="10.00">nix::Command</text>
</a>
</g>
</g>
<!-- Node3&#45;&gt;Node5 -->
<g id="edge5_Node000005_Node000003" class="edge">
<title>Node3&#45;&gt;Node5</title>
<g id="a_edge5_Node000005_Node000003"><a xlink:title=" ">
<path fill="none" stroke="#63b8ff" d="M163.25,-373.7C153.05,-364.22 140.81,-352.86 132.33,-344.97"/>
<polygon fill="#63b8ff" stroke="#63b8ff" points="160.73,-376.14 170.44,-380.38 165.5,-371.01 160.73,-376.14"/>
</a>
</g>
</g>
<!-- Node6 -->
<g id="Node000006" class="node">
<title>Node6</title>
<g id="a_Node000006"><a xlink:href="structnix_1_1MixFlakeOptions.html" target="_top" xlink:title=" ">
<polygon fill="white" stroke="#666666" points="165.38,-148 46.62,-148 46.62,-127.25 165.38,-127.25 165.38,-148"/>
<text text-anchor="middle" x="106" y="-134.5" font-family="Helvetica,sans-Serif" font-size="10.00">nix::MixFlakeOptions</text>
</a>
</g>
</g>
<!-- Node3&#45;&gt;Node6 -->
<g id="edge7_Node000006_Node000003" class="edge">
<title>Node3&#45;&gt;Node6</title>
<g id="a_edge7_Node000006_Node000003"><a xlink:title=" ">
<path fill="none" stroke="#63b8ff" d="M140.69,-391.78C98.14,-390.04 38,-379.73 38,-335.38 38,-335.38 38,-335.38 38,-206.12 38,-179.18 65.23,-159.3 85.23,-148.34"/>
<polygon fill="#63b8ff" stroke="#63b8ff" points="140.57,-395.28 150.65,-392.03 140.74,-388.28 140.57,-395.28"/>
</a>
</g>
</g>
<!-- Node9 -->
<g id="Node000009" class="node">
<title>Node9</title>
<g id="a_Node000009"><a xlink:href="structnix_1_1MixEvalArgs.html" target="_top" xlink:title=" ">
<polygon fill="white" stroke="#bfbfbf" points="423.88,-275.25 326.12,-275.25 326.12,-254.5 423.88,-254.5 423.88,-275.25"/>
<text text-anchor="middle" x="375" y="-261.75" font-family="Helvetica,sans-Serif" font-size="10.00">nix::MixEvalArgs</text>
</a>
</g>
</g>
<!-- Node3&#45;&gt;Node9 -->
<g id="edge12_Node000009_Node000003" class="edge">
<title>Node3&#45;&gt;Node9</title>
<g id="a_edge12_Node000009_Node000003"><a xlink:title=" ">
<path fill="none" stroke="#63b8ff" d="M223.12,-391.34C262.33,-389.25 320.39,-379.83 355,-344.75 373.65,-325.84 375.69,-292.17 375.46,-275.61"/>
<polygon fill="#63b8ff" stroke="#63b8ff" points="223.22,-387.83 213.36,-391.7 223.49,-394.82 223.22,-387.83"/>
</a>
</g>
</g>
<!-- Node10 -->
<g id="Node000010" class="node">
<title>Node10</title>
<g id="a_Node000010"><a xlink:href="structnix_1_1MixRepair.html" target="_top" xlink:title=" ">
<polygon fill="white" stroke="#bfbfbf" points="488.25,-344.75 401.75,-344.75 401.75,-324 488.25,-324 488.25,-344.75"/>
<text text-anchor="middle" x="445" y="-331.25" font-family="Helvetica,sans-Serif" font-size="10.00">nix::MixRepair</text>
</a>
</g>
</g>
<!-- Node3&#45;&gt;Node10 -->
<g id="edge14_Node000010_Node000003" class="edge">
<title>Node3&#45;&gt;Node10</title>
<g id="a_edge14_Node000010_Node000003"><a xlink:title=" ">
<path fill="none" stroke="#63b8ff" d="M223.11,-389.64C265.31,-387.19 332.46,-380.75 388,-363.75 402.59,-359.29 418.01,-351.39 429.13,-345.06"/>
<polygon fill="#63b8ff" stroke="#63b8ff" points="222.96,-386.14 213.16,-390.16 223.32,-393.13 222.96,-386.14"/>
</a>
</g>
</g>
<!-- Node4 -->
<g id="Node000004" class="node">
<title>Node4</title>
<g id="a_Node000004"><a xlink:href="classnix_1_1MultiCommand.html" target="_top" xlink:title=" ">
<polygon fill="white" stroke="#666666" points="308,-275.25 196,-275.25 196,-254.5 308,-254.5 308,-275.25"/>
<text text-anchor="middle" x="252" y="-261.75" font-family="Helvetica,sans-Serif" font-size="10.00">nix::MultiCommand</text>
</a>
</g>
</g>
<!-- Node4&#45;&gt;Node3 -->
<g id="edge3_Node000003_Node000004" class="edge">
<title>Node4&#45;&gt;Node3</title>
<g id="a_edge3_Node000003_Node000004"><a xlink:title=" ">
<path fill="none" stroke="#9a32cd" stroke-dasharray="5,2" d="M237.65,-284.48C229.43,-295.6 219.24,-310.2 211.5,-324 200.54,-343.54 190.7,-367.94 185.63,-381.28"/>
<polygon fill="#9a32cd" stroke="#9a32cd" points="240.38,-286.67 243.61,-276.58 234.79,-282.45 240.38,-286.67"/>
</a>
</g>
<text text-anchor="middle" x="228.75" y="-331.25" font-family="Helvetica,sans-Serif" font-size="10.00" fill="grey"> parent</text>
</g>
<!-- Node5&#45;&gt;Node4 -->
<g id="edge4_Node000004_Node000005" class="edge">
<title>Node5&#45;&gt;Node4</title>
<g id="a_edge4_Node000004_Node000005"><a xlink:title=" ">
<path fill="none" stroke="#63b8ff" d="M146.36,-317.42C158.62,-309.7 173.84,-300.54 188,-293.25 200.47,-286.84 214.77,-280.61 226.7,-275.73"/>
<polygon fill="#63b8ff" stroke="#63b8ff" points="144.67,-314.35 138.13,-322.69 148.44,-320.25 144.67,-314.35"/>
</a>
</g>
</g>
<!-- Node8 -->
<g id="Node000008" class="node">
<title>Node8</title>
<g id="a_Node000008"><a xlink:href="structnix_1_1StoreCommand.html" target="_top" xlink:title=" ">
<polygon fill="white" stroke="#666666" points="178.38,-275.25 65.62,-275.25 65.62,-254.5 178.38,-254.5 178.38,-275.25"/>
<text text-anchor="middle" x="122" y="-261.75" font-family="Helvetica,sans-Serif" font-size="10.00">nix::StoreCommand</text>
</a>
</g>
</g>
<!-- Node5&#45;&gt;Node8 -->
<g id="edge10_Node000008_Node000005" class="edge">
<title>Node5&#45;&gt;Node8</title>
<g id="a_edge10_Node000008_Node000005"><a xlink:title=" ">
<path fill="none" stroke="#63b8ff" d="M122,-312.57C122,-300.22 122,-285.15 122,-275.53"/>
<polygon fill="#63b8ff" stroke="#63b8ff" points="118.5,-312.19 122,-322.19 125.5,-312.19 118.5,-312.19"/>
</a>
</g>
</g>
<!-- Node6&#45;&gt;Node2 -->
<g id="edge6_Node000002_Node000006" class="edge">
<title>Node6&#45;&gt;Node2</title>
<g id="a_edge6_Node000002_Node000006"><a xlink:title=" ">
<path fill="none" stroke="#63b8ff" d="M106,-115.82C106,-103.47 106,-88.4 106,-78.78"/>
<polygon fill="#63b8ff" stroke="#63b8ff" points="102.5,-115.44 106,-125.44 109.5,-115.44 102.5,-115.44"/>
</a>
</g>
</g>
<!-- Node7 -->
<g id="Node000007" class="node">
<title>Node7</title>
<g id="a_Node000007"><a xlink:href="structnix_1_1EvalCommand.html" target="_top" xlink:title=" ">
<polygon fill="white" stroke="#666666" points="308.12,-217.5 199.88,-217.5 199.88,-196.75 308.12,-196.75 308.12,-217.5"/>
<text text-anchor="middle" x="254" y="-204" font-family="Helvetica,sans-Serif" font-size="10.00">nix::EvalCommand</text>
</a>
</g>
</g>
<!-- Node7&#45;&gt;Node6 -->
<g id="edge8_Node000006_Node000007" class="edge">
<title>Node7&#45;&gt;Node6</title>
<g id="a_edge8_Node000006_Node000007"><a xlink:title=" ">
<path fill="none" stroke="#63b8ff" d="M223.77,-191.31C207.84,-183.6 187.95,-174.12 170,-166 156.68,-159.97 141.65,-153.53 129.51,-148.41"/>
<polygon fill="#63b8ff" stroke="#63b8ff" points="222.2,-194.44 232.72,-195.66 225.26,-188.14 222.2,-194.44"/>
</a>
</g>
</g>
<!-- Node8&#45;&gt;Node7 -->
<g id="edge9_Node000007_Node000008" class="edge">
<title>Node8&#45;&gt;Node7</title>
<g id="a_edge9_Node000007_Node000008"><a xlink:title=" ">
<path fill="none" stroke="#63b8ff" d="M155.87,-249.57C179.42,-239.62 210.18,-226.63 230.94,-217.87"/>
<polygon fill="#63b8ff" stroke="#63b8ff" points="154.54,-246.33 146.69,-253.45 157.26,-252.78 154.54,-246.33"/>
</a>
</g>
</g>
<!-- Node9&#45;&gt;Node7 -->
<g id="edge11_Node000007_Node000009" class="edge">
<title>Node9&#45;&gt;Node7</title>
<g id="a_edge11_Node000007_Node000009"><a xlink:title=" ">
<path fill="none" stroke="#63b8ff" d="M343.36,-249.3C321.86,-239.39 293.99,-226.55 275.14,-217.87"/>
<polygon fill="#63b8ff" stroke="#63b8ff" points="341.72,-252.4 352.27,-253.4 344.65,-246.04 341.72,-252.4"/>
</a>
</g>
</g>
<!-- Node10&#45;&gt;Node9 -->
<g id="edge13_Node000009_Node000010" class="edge">
<title>Node10&#45;&gt;Node9</title>
<g id="a_edge13_Node000009_Node000010"><a xlink:title=" ">
<path fill="none" stroke="#63b8ff" d="M426.94,-315.96C413.6,-303.09 395.92,-286.05 385.01,-275.53"/>
<polygon fill="#63b8ff" stroke="#63b8ff" points="424.25,-318.23 433.88,-322.65 429.11,-313.19 424.25,-318.23"/>
</a>
</g>
</g>
<!-- Node11 -->
<g id="Node000011" class="node">
<title>Node11</title>
<g id="a_Node000011"><a xlink:href="structnix_1_1SearchPath.html" target="_top" xlink:title=" ">
<polygon fill="white" stroke="#666666" points="345.5,-344.75 254.5,-344.75 254.5,-324 345.5,-324 345.5,-344.75"/>
<text text-anchor="middle" x="300" y="-331.25" font-family="Helvetica,sans-Serif" font-size="10.00">nix::SearchPath</text>
</a>
</g>
</g>
<!-- Node11&#45;&gt;Node9 -->
<g id="edge15_Node000009_Node000011" class="edge">
<title>Node11&#45;&gt;Node9</title>
<g id="a_edge15_Node000009_Node000011"><a xlink:title=" ">
<path fill="none" stroke="#9a32cd" stroke-dasharray="5,2" d="M297.81,-312.28C298.14,-305.62 299.68,-298.62 303.75,-293.25 309.75,-285.33 318.35,-279.7 327.52,-275.7"/>
<polygon fill="#9a32cd" stroke="#9a32cd" points="294.31,-312.4 298.19,-322.26 301.3,-312.13 294.31,-312.4"/>
</a>
</g>
<text text-anchor="middle" x="331.88" y="-296.5" font-family="Helvetica,sans-Serif" font-size="10.00" fill="grey"> searchPath</text>
</g>
<!-- Node12 -->
<g id="Node000012" class="node">
<title>Node12</title>
<g id="a_Node000012"><a xlink:href="structnix_1_1flake_1_1LockFlags.html" target="_top" xlink:title=" ">
<polygon fill="white" stroke="#bfbfbf" points="181.5,-217.5 66.5,-217.5 66.5,-196.75 181.5,-196.75 181.5,-217.5"/>
<text text-anchor="middle" x="124" y="-204" font-family="Helvetica,sans-Serif" font-size="10.00">nix::flake::LockFlags</text>
</a>
</g>
</g>
<!-- Node12&#45;&gt;Node6 -->
<g id="edge16_Node000006_Node000012" class="edge">
<title>Node12&#45;&gt;Node6</title>
<g id="a_edge16_Node000006_Node000012"><a xlink:title=" ">
<path fill="none" stroke="#9a32cd" stroke-dasharray="5,2" d="M118.55,-185.7C115.24,-173.28 111.17,-158 108.57,-148.28"/>
<polygon fill="#9a32cd" stroke="#9a32cd" points="115.07,-186.23 121.03,-194.99 121.84,-184.43 115.07,-186.23"/>
</a>
</g>
<text text-anchor="middle" x="141.36" y="-169.25" font-family="Helvetica,sans-Serif" font-size="10.00" fill="grey"> lockFlags</text>
</g>
<!-- Node13 -->
<g id="Node000013" class="node">
<title>Node13</title>
<g id="a_Node000013"><a xlink:title=" ">
<polygon fill="white" stroke="#bfbfbf" points="226.88,-148 183.12,-148 183.12,-127.25 226.88,-127.25 226.88,-148"/>
<text text-anchor="middle" x="205" y="-134.5" font-family="Helvetica,sans-Serif" font-size="10.00">string</text>
</a>
</g>
</g>
<!-- Node13&#45;&gt;Node2 -->
<g id="edge17_Node000002_Node000013" class="edge">
<title>Node13&#45;&gt;Node2</title>
<g id="a_edge17_Node000002_Node000013"><a xlink:title=" ">
<path fill="none" stroke="#9a32cd" stroke-dasharray="5,2" d="M181.38,-120.52C162.44,-107.61 136.47,-89.9 120.48,-79"/>
<polygon fill="#9a32cd" stroke="#9a32cd" points="179.33,-123.36 189.57,-126.1 183.27,-117.58 179.33,-123.36"/>
</a>
</g>
<text text-anchor="middle" x="184.62" y="-99.75" font-family="Helvetica,sans-Serif" font-size="10.00" fill="grey"> flakeUrl</text>
</g>
</g>
</svg>
