<?xml version="1.0" encoding="UTF-8" standalone="no"?>
<!DOCTYPE svg PUBLIC "-//W3C//DTD SVG 1.1//EN"
 "http://www.w3.org/Graphics/SVG/1.1/DTD/svg11.dtd">
<!-- Generated by graphviz version 12.2.1 (0)
 -->
<!-- Title: nix::CmdShell Pages: 1 -->
<svg width="393pt" height="483pt"
 viewBox="0.00 0.00 392.62 482.75" xmlns="http://www.w3.org/2000/svg" xmlns:xlink="http://www.w3.org/1999/xlink">
<g id="graph0" class="graph" transform="scale(1 1) rotate(0) translate(4 478.75)">
<title>nix::CmdShell</title>
<!-- Node1 -->
<g id="Node000001" class="node">
<title>Node1</title>
<g id="a_Node000001"><a xlink:title=" ">
<polygon fill="#999999" stroke="#666666" points="206.75,-20.75 123.25,-20.75 123.25,0 206.75,0 206.75,-20.75"/>
<text text-anchor="middle" x="165" y="-7.25" font-family="Helvetica,sans-Serif" font-size="10.00">nix::CmdShell</text>
</a>
</g>
</g>
<!-- Node2 -->
<g id="Node000002" class="node">
<title>Node2</title>
<g id="a_Node000002"><a xlink:href="structnix_1_1InstallablesCommand.html" target="_top" xlink:title=" ">
<polygon fill="white" stroke="#666666" points="186.75,-77.5 43.25,-77.5 43.25,-56.75 186.75,-56.75 186.75,-77.5"/>
<text text-anchor="middle" x="115" y="-64" font-family="Helvetica,sans-Serif" font-size="10.00">nix::InstallablesCommand</text>
</a>
</g>
</g>
<!-- Node2&#45;&gt;Node1 -->
<g id="edge1_Node000001_Node000002" class="edge">
<title>Node2&#45;&gt;Node1</title>
<g id="a_edge1_Node000001_Node000002"><a xlink:title=" ">
<path fill="none" stroke="#63b8ff" d="M131.53,-48.02C139.74,-39.03 149.33,-28.53 156.14,-21.08"/>
<polygon fill="#63b8ff" stroke="#63b8ff" points="129.12,-45.47 124.96,-55.22 134.29,-50.2 129.12,-45.47"/>
</a>
</g>
</g>
<!-- Node3 -->
<g id="Node000003" class="node">
<title>Node3</title>
<g id="a_Node000003"><a xlink:href="structnix_1_1RawInstallablesCommand.html" target="_top" xlink:title=" ">
<polygon fill="white" stroke="#666666" points="188.25,-134.25 23.75,-134.25 23.75,-113.5 188.25,-113.5 188.25,-134.25"/>
<text text-anchor="middle" x="106" y="-120.75" font-family="Helvetica,sans-Serif" font-size="10.00">nix::RawInstallablesCommand</text>
</a>
</g>
</g>
<!-- Node3&#45;&gt;Node2 -->
<g id="edge2_Node000002_Node000003" class="edge">
<title>Node3&#45;&gt;Node2</title>
<g id="a_edge2_Node000002_Node000003"><a xlink:title=" ">
<path fill="none" stroke="#63b8ff" d="M109.45,-101.92C110.81,-93.63 112.31,-84.5 113.4,-77.83"/>
<polygon fill="#63b8ff" stroke="#63b8ff" points="106.02,-101.16 107.85,-111.59 112.93,-102.29 106.02,-101.16"/>
</a>
</g>
</g>
<!-- Node4 -->
<g id="Node000004" class="node">
<title>Node4</title>
<g id="a_Node000004"><a xlink:href="classnix_1_1Args.html" target="_top" xlink:title=" ">
<polygon fill="white" stroke="#bfbfbf" points="177.38,-474.75 118.62,-474.75 118.62,-454 177.38,-454 177.38,-474.75"/>
<text text-anchor="middle" x="148" y="-461.25" font-family="Helvetica,sans-Serif" font-size="10.00">nix::Args</text>
</a>
</g>
</g>
<!-- Node4&#45;&gt;Node3 -->
<g id="edge3_Node000003_Node000004" class="edge">
<title>Node4&#45;&gt;Node3</title>
<g id="a_edge3_Node000003_Node000004"><a xlink:title=" ">
<path fill="none" stroke="#63b8ff" d="M107.47,-452.04C63.65,-437.01 0,-405.88 0,-351.88 0,-351.88 0,-351.88 0,-236.38 0,-204.8 5.3,-194.1 26,-170.25 40.23,-153.85 61.92,-142.07 79.13,-134.63"/>
<polygon fill="#63b8ff" stroke="#63b8ff" points="106.37,-455.36 116.97,-455.13 108.54,-448.7 106.37,-455.36"/>
</a>
</g>
</g>
<!-- Node5 -->
<g id="Node000005" class="node">
<title>Node5</title>
<g id="a_Node000005"><a xlink:href="structnix_1_1SourceExprCommand.html" target="_top" xlink:title=" ">
<polygon fill="white" stroke="#bfbfbf" points="177,-191 35,-191 35,-170.25 177,-170.25 177,-191"/>
<text text-anchor="middle" x="106" y="-177.5" font-family="Helvetica,sans-Serif" font-size="10.00">nix::SourceExprCommand</text>
</a>
</g>
</g>
<!-- Node4&#45;&gt;Node5 -->
<g id="edge5_Node000005_Node000004" class="edge">
<title>Node4&#45;&gt;Node5</title>
<g id="a_edge5_Node000005_Node000004"><a xlink:title=" ">
<path fill="none" stroke="#63b8ff" d="M116.53,-448.32C84.02,-430.33 38,-396.9 38,-351.88 38,-351.88 38,-351.88 38,-293.12 38,-262.55 40.97,-253.04 57,-227 66,-212.39 80.97,-199.5 92,-191.24"/>
<polygon fill="#63b8ff" stroke="#63b8ff" points="114.72,-451.32 125.19,-452.91 117.99,-445.14 114.72,-451.32"/>
</a>
</g>
</g>
<!-- Node6 -->
<g id="Node000006" class="node">
<title>Node6</title>
<g id="a_Node000006"><a xlink:href="structnix_1_1MixFlakeOptions.html" target="_top" xlink:title=" ">
<polygon fill="white" stroke="#666666" points="184.38,-247.75 65.62,-247.75 65.62,-227 184.38,-227 184.38,-247.75"/>
<text text-anchor="middle" x="125" y="-234.25" font-family="Helvetica,sans-Serif" font-size="10.00">nix::MixFlakeOptions</text>
</a>
</g>
</g>
<!-- Node4&#45;&gt;Node6 -->
<g id="edge7_Node000006_Node000004" class="edge">
<title>Node4&#45;&gt;Node6</title>
<g id="a_edge7_Node000006_Node000004"><a xlink:title=" ">
<path fill="none" stroke="#63b8ff" d="M120.5,-447.09C110.54,-439.6 100.41,-429.76 95,-418 70.05,-363.79 79.7,-340.86 97,-283.75 101.08,-270.28 110.18,-256.81 116.91,-248.09"/>
<polygon fill="#63b8ff" stroke="#63b8ff" points="118.38,-449.88 128.6,-452.67 122.35,-444.11 118.38,-449.88"/>
</a>
</g>
</g>
<!-- Node9 -->
<g id="Node000009" class="node">
<title>Node9</title>
<g id="a_Node000009"><a xlink:href="structnix_1_1Command.html" target="_top" xlink:title=" ">
<polygon fill="white" stroke="#666666" points="191.62,-418 104.38,-418 104.38,-397.25 191.62,-397.25 191.62,-418"/>
<text text-anchor="middle" x="148" y="-404.5" font-family="Helvetica,sans-Serif" font-size="10.00">nix::Command</text>
</a>
</g>
</g>
<!-- Node4&#45;&gt;Node9 -->
<g id="edge11_Node000009_Node000004" class="edge">
<title>Node4&#45;&gt;Node9</title>
<g id="a_edge11_Node000009_Node000004"><a xlink:title=" ">
<path fill="none" stroke="#63b8ff" d="M148,-442.13C148,-433.91 148,-424.93 148,-418.33"/>
<polygon fill="#63b8ff" stroke="#63b8ff" points="144.5,-442.07 148,-452.07 151.5,-442.07 144.5,-442.07"/>
</a>
</g>
</g>
<!-- Node10 -->
<g id="Node000010" class="node">
<title>Node10</title>
<g id="a_Node000010"><a xlink:href="structnix_1_1MixEvalArgs.html" target="_top" xlink:title=" ">
<polygon fill="white" stroke="#bfbfbf" points="331.88,-361.25 234.12,-361.25 234.12,-340.5 331.88,-340.5 331.88,-361.25"/>
<text text-anchor="middle" x="283" y="-347.75" font-family="Helvetica,sans-Serif" font-size="10.00">nix::MixEvalArgs</text>
</a>
</g>
</g>
<!-- Node4&#45;&gt;Node10 -->
<g id="edge13_Node000010_Node000004" class="edge">
<title>Node4&#45;&gt;Node10</title>
<g id="a_edge13_Node000010_Node000004"><a xlink:title=" ">
<path fill="none" stroke="#63b8ff" d="M168.26,-446.64C196.83,-423.05 248.04,-380.75 271.13,-361.68"/>
<polygon fill="#63b8ff" stroke="#63b8ff" points="166.16,-443.84 160.68,-452.9 170.62,-449.24 166.16,-443.84"/>
</a>
</g>
</g>
<!-- Node11 -->
<g id="Node000011" class="node">
<title>Node11</title>
<g id="a_Node000011"><a xlink:href="structnix_1_1MixRepair.html" target="_top" xlink:title=" ">
<polygon fill="white" stroke="#bfbfbf" points="334.25,-418 247.75,-418 247.75,-397.25 334.25,-397.25 334.25,-418"/>
<text text-anchor="middle" x="291" y="-404.5" font-family="Helvetica,sans-Serif" font-size="10.00">nix::MixRepair</text>
</a>
</g>
</g>
<!-- Node4&#45;&gt;Node11 -->
<g id="edge15_Node000011_Node000004" class="edge">
<title>Node4&#45;&gt;Node11</title>
<g id="a_edge15_Node000011_Node000004"><a xlink:title=" ">
<path fill="none" stroke="#63b8ff" d="M184.27,-449.49C209.7,-439.75 243.05,-426.98 265.66,-418.33"/>
<polygon fill="#63b8ff" stroke="#63b8ff" points="183.07,-446.2 174.98,-453.05 185.57,-452.74 183.07,-446.2"/>
</a>
</g>
</g>
<!-- Node12 -->
<g id="Node000012" class="node">
<title>Node12</title>
<g id="a_Node000012"><a xlink:href="structnix_1_1MixEnvironment.html" target="_top" xlink:title=" ">
<polygon fill="white" stroke="#bfbfbf" points="384.62,-304.5 267.38,-304.5 267.38,-283.75 384.62,-283.75 384.62,-304.5"/>
<text text-anchor="middle" x="326" y="-291" font-family="Helvetica,sans-Serif" font-size="10.00">nix::MixEnvironment</text>
</a>
</g>
</g>
<!-- Node4&#45;&gt;Node12 -->
<g id="edge17_Node000012_Node000004" class="edge">
<title>Node4&#45;&gt;Node12</title>
<g id="a_edge17_Node000012_Node000004"><a xlink:title=" ">
<path fill="none" stroke="#63b8ff" d="M189.05,-459.72C240.47,-454.19 324.15,-441.74 343,-418 370.05,-383.93 343.83,-327.12 331.56,-304.67"/>
<polygon fill="#63b8ff" stroke="#63b8ff" points="188.76,-456.23 179.17,-460.73 189.48,-463.19 188.76,-456.23"/>
</a>
</g>
</g>
<!-- Node5&#45;&gt;Node3 -->
<g id="edge4_Node000003_Node000005" class="edge">
<title>Node5&#45;&gt;Node3</title>
<g id="a_edge4_Node000003_Node000005"><a xlink:title=" ">
<path fill="none" stroke="#63b8ff" d="M106,-158.38C106,-150.16 106,-141.18 106,-134.58"/>
<polygon fill="#63b8ff" stroke="#63b8ff" points="102.5,-158.32 106,-168.32 109.5,-158.32 102.5,-158.32"/>
</a>
</g>
</g>
<!-- Node6&#45;&gt;Node5 -->
<g id="edge6_Node000005_Node000006" class="edge">
<title>Node6&#45;&gt;Node5</title>
<g id="a_edge6_Node000005_Node000006"><a xlink:title=" ">
<path fill="none" stroke="#63b8ff" d="M117.93,-215.99C115,-207.55 111.74,-198.16 109.37,-191.33"/>
<polygon fill="#63b8ff" stroke="#63b8ff" points="114.52,-216.86 121.11,-225.16 121.13,-214.56 114.52,-216.86"/>
</a>
</g>
</g>
<!-- Node7 -->
<g id="Node000007" class="node">
<title>Node7</title>
<g id="a_Node000007"><a xlink:href="structnix_1_1EvalCommand.html" target="_top" xlink:title=" ">
<polygon fill="white" stroke="#666666" points="214.12,-304.5 105.88,-304.5 105.88,-283.75 214.12,-283.75 214.12,-304.5"/>
<text text-anchor="middle" x="160" y="-291" font-family="Helvetica,sans-Serif" font-size="10.00">nix::EvalCommand</text>
</a>
</g>
</g>
<!-- Node7&#45;&gt;Node6 -->
<g id="edge8_Node000006_Node000007" class="edge">
<title>Node7&#45;&gt;Node6</title>
<g id="a_edge8_Node000006_Node000007"><a xlink:title=" ">
<path fill="none" stroke="#63b8ff" d="M147.7,-273.89C142.12,-265.16 135.77,-255.22 131.2,-248.08"/>
<polygon fill="#63b8ff" stroke="#63b8ff" points="144.59,-275.52 152.93,-282.06 150.49,-271.75 144.59,-275.52"/>
</a>
</g>
</g>
<!-- Node8 -->
<g id="Node000008" class="node">
<title>Node8</title>
<g id="a_Node000008"><a xlink:href="structnix_1_1StoreCommand.html" target="_top" xlink:title=" ">
<polygon fill="white" stroke="#666666" points="216.38,-361.25 103.62,-361.25 103.62,-340.5 216.38,-340.5 216.38,-361.25"/>
<text text-anchor="middle" x="160" y="-347.75" font-family="Helvetica,sans-Serif" font-size="10.00">nix::StoreCommand</text>
</a>
</g>
</g>
<!-- Node8&#45;&gt;Node7 -->
<g id="edge9_Node000007_Node000008" class="edge">
<title>Node8&#45;&gt;Node7</title>
<g id="a_edge9_Node000007_Node000008"><a xlink:title=" ">
<path fill="none" stroke="#63b8ff" d="M160,-328.63C160,-320.41 160,-311.43 160,-304.83"/>
<polygon fill="#63b8ff" stroke="#63b8ff" points="156.5,-328.57 160,-338.57 163.5,-328.57 156.5,-328.57"/>
</a>
</g>
</g>
<!-- Node9&#45;&gt;Node8 -->
<g id="edge10_Node000008_Node000009" class="edge">
<title>Node9&#45;&gt;Node8</title>
<g id="a_edge10_Node000008_Node000009"><a xlink:title=" ">
<path fill="none" stroke="#63b8ff" d="M152.59,-385.67C154.41,-377.38 156.41,-368.25 157.87,-361.58"/>
<polygon fill="#63b8ff" stroke="#63b8ff" points="149.19,-384.84 150.47,-395.36 156.03,-386.34 149.19,-384.84"/>
</a>
</g>
</g>
<!-- Node10&#45;&gt;Node7 -->
<g id="edge12_Node000007_Node000010" class="edge">
<title>Node10&#45;&gt;Node7</title>
<g id="a_edge12_Node000007_Node000010"><a xlink:title=" ">
<path fill="none" stroke="#63b8ff" d="M250.62,-335.46C228.9,-325.8 200.89,-313.33 181.8,-304.83"/>
<polygon fill="#63b8ff" stroke="#63b8ff" points="249.07,-338.6 259.63,-339.47 251.91,-332.21 249.07,-338.6"/>
</a>
</g>
</g>
<!-- Node11&#45;&gt;Node10 -->
<g id="edge14_Node000010_Node000011" class="edge">
<title>Node11&#45;&gt;Node10</title>
<g id="a_edge14_Node000010_Node000011"><a xlink:title=" ">
<path fill="none" stroke="#63b8ff" d="M287.94,-385.67C286.73,-377.38 285.39,-368.25 284.42,-361.58"/>
<polygon fill="#63b8ff" stroke="#63b8ff" points="284.44,-385.95 289.35,-395.34 291.37,-384.94 284.44,-385.95"/>
</a>
</g>
</g>
<!-- Node12&#45;&gt;Node1 -->
<g id="edge16_Node000001_Node000012" class="edge">
<title>Node12&#45;&gt;Node1</title>
<g id="a_edge16_Node000001_Node000012"><a xlink:title=" ">
<path fill="none" stroke="#63b8ff" d="M296.88,-277.76C266.42,-259.35 223,-225.43 223,-181.62 223,-181.62 223,-181.62 223,-122.88 223,-81.2 190.71,-39.64 174.32,-21.23"/>
<polygon fill="#63b8ff" stroke="#63b8ff" points="294.91,-280.67 305.32,-282.65 298.41,-274.61 294.91,-280.67"/>
</a>
</g>
</g>
</g>
</svg>
