<?xml version="1.0" encoding="UTF-8" standalone="no"?>
<!DOCTYPE svg PUBLIC "-//W3C//DTD SVG 1.1//EN"
 "http://www.w3.org/Graphics/SVG/1.1/DTD/svg11.dtd">
<!-- Generated by graphviz version 12.2.1 (0)
 -->
<!-- Title: nix::CmdSearch Pages: 1 -->
<svg width="608pt" height="465pt"
 viewBox="0.00 0.00 607.50 464.50" xmlns="http://www.w3.org/2000/svg" xmlns:xlink="http://www.w3.org/1999/xlink">
<g id="graph0" class="graph" transform="scale(1 1) rotate(0) translate(4 460.5)">
<title>nix::CmdSearch</title>
<!-- Node1 -->
<g id="Node000001" class="node">
<title>Node1</title>
<g id="a_Node000001"><a xlink:title=" ">
<polygon fill="#999999" stroke="#666666" points="581.25,-20.75 488.75,-20.75 488.75,0 581.25,0 581.25,-20.75"/>
<text text-anchor="middle" x="535" y="-7.25" font-family="Helvetica,sans-Serif" font-size="10.00">nix::CmdSearch</text>
</a>
</g>
</g>
<!-- Node2 -->
<g id="Node000002" class="node">
<title>Node2</title>
<g id="a_Node000002"><a xlink:href="structnix_1_1InstallableCommand.html" target="_top" xlink:title=" ">
<polygon fill="white" stroke="#666666" points="532.12,-78.5 393.88,-78.5 393.88,-57.75 532.12,-57.75 532.12,-78.5"/>
<text text-anchor="middle" x="463" y="-65" font-family="Helvetica,sans-Serif" font-size="10.00">nix::InstallableCommand</text>
</a>
</g>
</g>
<!-- Node2&#45;&gt;Node1 -->
<g id="edge1_Node000001_Node000002" class="edge">
<title>Node2&#45;&gt;Node1</title>
<g id="a_edge1_Node000001_Node000002"><a xlink:title=" ">
<path fill="none" stroke="#63b8ff" d="M484.39,-50.56C496.85,-40.92 512.11,-29.1 522.6,-20.97"/>
<polygon fill="#63b8ff" stroke="#63b8ff" points="482.5,-47.6 476.74,-56.49 486.79,-53.13 482.5,-47.6"/>
</a>
</g>
</g>
<!-- Node3 -->
<g id="Node000003" class="node">
<title>Node3</title>
<g id="a_Node000003"><a xlink:href="classnix_1_1Args.html" target="_top" xlink:title=" ">
<polygon fill="white" stroke="#bfbfbf" points="413.38,-456.5 354.62,-456.5 354.62,-435.75 413.38,-435.75 413.38,-456.5"/>
<text text-anchor="middle" x="384" y="-443" font-family="Helvetica,sans-Serif" font-size="10.00">nix::Args</text>
</a>
</g>
</g>
<!-- Node3&#45;&gt;Node2 -->
<g id="edge2_Node000002_Node000003" class="edge">
<title>Node3&#45;&gt;Node2</title>
<g id="a_edge2_Node000002_Node000003"><a xlink:title=" ">
<path fill="none" stroke="#63b8ff" d="M425.05,-442.76C460.14,-438.25 505,-425.43 505,-389.38 505,-389.38 505,-389.38 505,-124.88 505,-105.73 489,-88.98 476.75,-78.96"/>
<polygon fill="#63b8ff" stroke="#63b8ff" points="424.67,-439.28 415.1,-443.83 425.42,-446.24 424.67,-439.28"/>
</a>
</g>
</g>
<!-- Node5 -->
<g id="Node000005" class="node">
<title>Node5</title>
<g id="a_Node000005"><a xlink:href="structnix_1_1Command.html" target="_top" xlink:title=" ">
<polygon fill="white" stroke="#666666" points="367.62,-398.75 280.38,-398.75 280.38,-378 367.62,-378 367.62,-398.75"/>
<text text-anchor="middle" x="324" y="-385.25" font-family="Helvetica,sans-Serif" font-size="10.00">nix::Command</text>
</a>
</g>
</g>
<!-- Node3&#45;&gt;Node5 -->
<g id="edge5_Node000005_Node000003" class="edge">
<title>Node3&#45;&gt;Node5</title>
<g id="a_edge5_Node000005_Node000003"><a xlink:title=" ">
<path fill="none" stroke="#63b8ff" d="M365.25,-427.7C355.05,-418.22 342.81,-406.86 334.33,-398.97"/>
<polygon fill="#63b8ff" stroke="#63b8ff" points="362.73,-430.14 372.44,-434.38 367.5,-425.01 362.73,-430.14"/>
</a>
</g>
</g>
<!-- Node6 -->
<g id="Node000006" class="node">
<title>Node6</title>
<g id="a_Node000006"><a xlink:href="structnix_1_1SourceExprCommand.html" target="_top" xlink:title=" ">
<polygon fill="white" stroke="#bfbfbf" points="477,-136.25 335,-136.25 335,-115.5 477,-115.5 477,-136.25"/>
<text text-anchor="middle" x="406" y="-122.75" font-family="Helvetica,sans-Serif" font-size="10.00">nix::SourceExprCommand</text>
</a>
</g>
</g>
<!-- Node3&#45;&gt;Node6 -->
<g id="edge7_Node000006_Node000003" class="edge">
<title>Node3&#45;&gt;Node6</title>
<g id="a_edge7_Node000006_Node000003"><a xlink:title=" ">
<path fill="none" stroke="#63b8ff" d="M424.1,-434.47C445.3,-426.16 467,-412.1 467,-389.38 467,-389.38 467,-389.38 467,-182.62 467,-161.25 446.34,-145.87 429.06,-136.75"/>
<polygon fill="#63b8ff" stroke="#63b8ff" points="423.19,-431.08 414.92,-437.71 425.52,-437.68 423.19,-431.08"/>
</a>
</g>
</g>
<!-- Node7 -->
<g id="Node000007" class="node">
<title>Node7</title>
<g id="a_Node000007"><a xlink:href="structnix_1_1MixFlakeOptions.html" target="_top" xlink:title=" ">
<polygon fill="white" stroke="#666666" points="375.38,-194 256.62,-194 256.62,-173.25 375.38,-173.25 375.38,-194"/>
<text text-anchor="middle" x="316" y="-180.5" font-family="Helvetica,sans-Serif" font-size="10.00">nix::MixFlakeOptions</text>
</a>
</g>
</g>
<!-- Node3&#45;&gt;Node7 -->
<g id="edge9_Node000007_Node000003" class="edge">
<title>Node3&#45;&gt;Node7</title>
<g id="a_edge9_Node000007_Node000003"><a xlink:title=" ">
<path fill="none" stroke="#63b8ff" d="M342.85,-443.41C243.75,-438.73 0,-423.72 0,-389.38 0,-389.38 0,-389.38 0,-252.12 0,-200.3 164.58,-188.12 256.19,-185.36"/>
<polygon fill="#63b8ff" stroke="#63b8ff" points="342.53,-446.9 352.68,-443.86 342.85,-439.9 342.53,-446.9"/>
</a>
</g>
</g>
<!-- Node10 -->
<g id="Node000010" class="node">
<title>Node10</title>
<g id="a_Node000010"><a xlink:href="structnix_1_1MixEvalArgs.html" target="_top" xlink:title=" ">
<polygon fill="white" stroke="#bfbfbf" points="178.88,-321.25 81.12,-321.25 81.12,-300.5 178.88,-300.5 178.88,-321.25"/>
<text text-anchor="middle" x="130" y="-307.75" font-family="Helvetica,sans-Serif" font-size="10.00">nix::MixEvalArgs</text>
</a>
</g>
</g>
<!-- Node3&#45;&gt;Node10 -->
<g id="edge14_Node000010_Node000003" class="edge">
<title>Node3&#45;&gt;Node10</title>
<g id="a_edge14_Node000010_Node000003"><a xlink:title=" ">
<path fill="none" stroke="#63b8ff" d="M343.07,-440.89C287.87,-434.44 193.44,-420.54 167,-398.75 142.71,-378.73 134.04,-339.87 131.23,-321.7"/>
<polygon fill="#63b8ff" stroke="#63b8ff" points="342.38,-444.33 352.71,-441.98 343.17,-437.38 342.38,-444.33"/>
</a>
</g>
</g>
<!-- Node11 -->
<g id="Node000011" class="node">
<title>Node11</title>
<g id="a_Node000011"><a xlink:href="structnix_1_1MixRepair.html" target="_top" xlink:title=" ">
<polygon fill="white" stroke="#bfbfbf" points="262.25,-398.75 175.75,-398.75 175.75,-378 262.25,-378 262.25,-398.75"/>
<text text-anchor="middle" x="219" y="-385.25" font-family="Helvetica,sans-Serif" font-size="10.00">nix::MixRepair</text>
</a>
</g>
</g>
<!-- Node3&#45;&gt;Node11 -->
<g id="edge16_Node000011_Node000003" class="edge">
<title>Node3&#45;&gt;Node11</title>
<g id="a_edge16_Node000011_Node000003"><a xlink:title=" ">
<path fill="none" stroke="#63b8ff" d="M344.07,-431.63C314.46,-421.63 274.76,-408.22 248.1,-399.21"/>
<polygon fill="#63b8ff" stroke="#63b8ff" points="342.85,-434.92 353.45,-434.8 345.09,-428.28 342.85,-434.92"/>
</a>
</g>
</g>
<!-- Node14 -->
<g id="Node000014" class="node">
<title>Node14</title>
<g id="a_Node000014"><a xlink:href="structnix_1_1MixJSON.html" target="_top" xlink:title=" ">
<polygon fill="white" stroke="#bfbfbf" points="599.5,-360 520.5,-360 520.5,-339.25 599.5,-339.25 599.5,-360"/>
<text text-anchor="middle" x="560" y="-346.5" font-family="Helvetica,sans-Serif" font-size="10.00">nix::MixJSON</text>
</a>
</g>
</g>
<!-- Node3&#45;&gt;Node14 -->
<g id="edge20_Node000014_Node000003" class="edge">
<title>Node3&#45;&gt;Node14</title>
<g id="a_edge20_Node000014_Node000003"><a xlink:title=" ">
<path fill="none" stroke="#63b8ff" d="M425.03,-445.2C453.68,-443.37 491.55,-436.99 519,-417.75 539.58,-403.33 551.75,-374.96 556.98,-360.15"/>
<polygon fill="#63b8ff" stroke="#63b8ff" points="425.11,-441.69 415.28,-445.65 425.43,-448.68 425.11,-441.69"/>
</a>
</g>
</g>
<!-- Node4 -->
<g id="Node000004" class="node">
<title>Node4</title>
<g id="a_Node000004"><a xlink:href="classnix_1_1MultiCommand.html" target="_top" xlink:title=" ">
<polygon fill="white" stroke="#666666" points="439,-321.25 327,-321.25 327,-300.5 439,-300.5 439,-321.25"/>
<text text-anchor="middle" x="383" y="-307.75" font-family="Helvetica,sans-Serif" font-size="10.00">nix::MultiCommand</text>
</a>
</g>
</g>
<!-- Node4&#45;&gt;Node3 -->
<g id="edge3_Node000003_Node000004" class="edge">
<title>Node4&#45;&gt;Node3</title>
<g id="a_edge3_Node000003_Node000004"><a xlink:title=" ">
<path fill="none" stroke="#9a32cd" stroke-dasharray="5,2" d="M383.16,-333.12C383.38,-362.48 383.77,-414.23 383.93,-435.54"/>
<polygon fill="#9a32cd" stroke="#9a32cd" points="386.66,-333.22 383.09,-323.24 379.66,-333.27 386.66,-333.22"/>
</a>
</g>
<text text-anchor="middle" x="400.9" y="-385.25" font-family="Helvetica,sans-Serif" font-size="10.00" fill="grey"> parent</text>
</g>
<!-- Node5&#45;&gt;Node4 -->
<g id="edge4_Node000004_Node000005" class="edge">
<title>Node5&#45;&gt;Node4</title>
<g id="a_edge4_Node000004_Node000005"><a xlink:title=" ">
<path fill="none" stroke="#63b8ff" d="M338.67,-368.6C350.36,-353.65 366.23,-333.33 375.47,-321.51"/>
<polygon fill="#63b8ff" stroke="#63b8ff" points="336.04,-366.28 332.65,-376.31 341.56,-370.59 336.04,-366.28"/>
</a>
</g>
</g>
<!-- Node9 -->
<g id="Node000009" class="node">
<title>Node9</title>
<g id="a_Node000009"><a xlink:href="structnix_1_1StoreCommand.html" target="_top" xlink:title=" ">
<polygon fill="white" stroke="#666666" points="309.38,-321.25 196.62,-321.25 196.62,-300.5 309.38,-300.5 309.38,-321.25"/>
<text text-anchor="middle" x="253" y="-307.75" font-family="Helvetica,sans-Serif" font-size="10.00">nix::StoreCommand</text>
</a>
</g>
</g>
<!-- Node5&#45;&gt;Node9 -->
<g id="edge12_Node000009_Node000005" class="edge">
<title>Node5&#45;&gt;Node9</title>
<g id="a_edge12_Node000009_Node000005"><a xlink:title=" ">
<path fill="none" stroke="#63b8ff" d="M307.14,-369.45C293.01,-354.42 273.39,-333.56 262.06,-321.51"/>
<polygon fill="#63b8ff" stroke="#63b8ff" points="304.28,-371.51 313.68,-376.4 309.38,-366.72 304.28,-371.51"/>
</a>
</g>
</g>
<!-- Node6&#45;&gt;Node2 -->
<g id="edge6_Node000002_Node000006" class="edge">
<title>Node6&#45;&gt;Node2</title>
<g id="a_edge6_Node000002_Node000006"><a xlink:title=" ">
<path fill="none" stroke="#63b8ff" d="M424.11,-107.17C433.74,-97.74 445.21,-86.53 453.19,-78.72"/>
<polygon fill="#63b8ff" stroke="#63b8ff" points="421.71,-104.61 417.01,-114.11 426.61,-109.62 421.71,-104.61"/>
</a>
</g>
</g>
<!-- Node7&#45;&gt;Node6 -->
<g id="edge8_Node000006_Node000007" class="edge">
<title>Node7&#45;&gt;Node6</title>
<g id="a_edge8_Node000006_Node000007"><a xlink:title=" ">
<path fill="none" stroke="#63b8ff" d="M341.31,-166.94C357.01,-157.22 376.7,-145.03 390.2,-136.66"/>
<polygon fill="#63b8ff" stroke="#63b8ff" points="339.62,-163.88 332.96,-172.12 343.31,-169.83 339.62,-163.88"/>
</a>
</g>
</g>
<!-- Node8 -->
<g id="Node000008" class="node">
<title>Node8</title>
<g id="a_Node000008"><a xlink:href="structnix_1_1EvalCommand.html" target="_top" xlink:title=" ">
<polygon fill="white" stroke="#666666" points="305.12,-263.5 196.88,-263.5 196.88,-242.75 305.12,-242.75 305.12,-263.5"/>
<text text-anchor="middle" x="251" y="-250" font-family="Helvetica,sans-Serif" font-size="10.00">nix::EvalCommand</text>
</a>
</g>
</g>
<!-- Node8&#45;&gt;Node7 -->
<g id="edge10_Node000007_Node000008" class="edge">
<title>Node8&#45;&gt;Node7</title>
<g id="a_edge10_Node000007_Node000008"><a xlink:title=" ">
<path fill="none" stroke="#63b8ff" d="M268.12,-234.34C280.47,-221.52 296.67,-204.7 306.7,-194.28"/>
<polygon fill="#63b8ff" stroke="#63b8ff" points="265.78,-231.73 261.36,-241.36 270.82,-236.59 265.78,-231.73"/>
</a>
</g>
</g>
<!-- Node9&#45;&gt;Node8 -->
<g id="edge11_Node000008_Node000009" class="edge">
<title>Node9&#45;&gt;Node8</title>
<g id="a_edge11_Node000008_Node000009"><a xlink:title=" ">
<path fill="none" stroke="#63b8ff" d="M252.25,-288.93C251.94,-280.27 251.59,-270.65 251.34,-263.72"/>
<polygon fill="#63b8ff" stroke="#63b8ff" points="248.74,-288.78 252.6,-298.65 255.74,-288.53 248.74,-288.78"/>
</a>
</g>
</g>
<!-- Node10&#45;&gt;Node8 -->
<g id="edge13_Node000008_Node000010" class="edge">
<title>Node10&#45;&gt;Node8</title>
<g id="a_edge13_Node000008_Node000010"><a xlink:title=" ">
<path fill="none" stroke="#63b8ff" d="M161.64,-295.3C183.14,-285.39 211.01,-272.55 229.86,-263.87"/>
<polygon fill="#63b8ff" stroke="#63b8ff" points="160.35,-292.04 152.73,-299.4 163.28,-298.4 160.35,-292.04"/>
</a>
</g>
</g>
<!-- Node11&#45;&gt;Node10 -->
<g id="edge15_Node000010_Node000011" class="edge">
<title>Node11&#45;&gt;Node10</title>
<g id="a_edge15_Node000010_Node000011"><a xlink:title=" ">
<path fill="none" stroke="#63b8ff" d="M198.9,-370.33C181.24,-355.35 156.16,-334.07 141.64,-321.75"/>
<polygon fill="#63b8ff" stroke="#63b8ff" points="196.32,-372.73 206.21,-376.53 200.85,-367.39 196.32,-372.73"/>
</a>
</g>
</g>
<!-- Node12 -->
<g id="Node000012" class="node">
<title>Node12</title>
<g id="a_Node000012"><a xlink:href="structnix_1_1SearchPath.html" target="_top" xlink:title=" ">
<polygon fill="white" stroke="#666666" points="119.5,-398.75 28.5,-398.75 28.5,-378 119.5,-378 119.5,-398.75"/>
<text text-anchor="middle" x="74" y="-385.25" font-family="Helvetica,sans-Serif" font-size="10.00">nix::SearchPath</text>
</a>
</g>
</g>
<!-- Node12&#45;&gt;Node10 -->
<g id="edge17_Node000010_Node000012" class="edge">
<title>Node12&#45;&gt;Node10</title>
<g id="a_edge17_Node000010_Node000012"><a xlink:title=" ">
<path fill="none" stroke="#9a32cd" stroke-dasharray="5,2" d="M71.32,-366.44C71.2,-357.41 72.55,-347.14 77.75,-339.25 82.88,-331.47 90.97,-325.76 99.26,-321.64"/>
<polygon fill="#9a32cd" stroke="#9a32cd" points="67.81,-366.43 72.06,-376.13 74.79,-365.9 67.81,-366.43"/>
</a>
</g>
<text text-anchor="middle" x="105.88" y="-346.5" font-family="Helvetica,sans-Serif" font-size="10.00" fill="grey"> searchPath</text>
</g>
<!-- Node13 -->
<g id="Node000013" class="node">
<title>Node13</title>
<g id="a_Node000013"><a xlink:href="structnix_1_1flake_1_1LockFlags.html" target="_top" xlink:title=" ">
<polygon fill="white" stroke="#bfbfbf" points="438.5,-263.5 323.5,-263.5 323.5,-242.75 438.5,-242.75 438.5,-263.5"/>
<text text-anchor="middle" x="381" y="-250" font-family="Helvetica,sans-Serif" font-size="10.00">nix::flake::LockFlags</text>
</a>
</g>
</g>
<!-- Node13&#45;&gt;Node7 -->
<g id="edge18_Node000007_Node000013" class="edge">
<title>Node13&#45;&gt;Node7</title>
<g id="a_edge18_Node000007_Node000013"><a xlink:title=" ">
<path fill="none" stroke="#9a32cd" stroke-dasharray="5,2" d="M363.88,-234.34C351.53,-221.52 335.33,-204.7 325.3,-194.28"/>
<polygon fill="#9a32cd" stroke="#9a32cd" points="361.18,-236.59 370.64,-241.36 366.22,-231.73 361.18,-236.59"/>
</a>
</g>
<text text-anchor="middle" x="379.07" y="-215.25" font-family="Helvetica,sans-Serif" font-size="10.00" fill="grey"> lockFlags</text>
</g>
<!-- Node14&#45;&gt;Node1 -->
<g id="edge19_Node000001_Node000014" class="edge">
<title>Node14&#45;&gt;Node1</title>
<g id="a_edge19_Node000001_Node000014"><a xlink:title=" ">
<path fill="none" stroke="#63b8ff" d="M560,-327.33C560,-314.37 560,-297.48 560,-282.5 560,-282.5 560,-282.5 560,-67.12 560,-49.73 549.74,-31.74 542.37,-21.06"/>
<polygon fill="#63b8ff" stroke="#63b8ff" points="556.5,-327.25 560,-337.25 563.5,-327.25 556.5,-327.25"/>
</a>
</g>
</g>
</g>
</svg>
