<?xml version="1.0" encoding="UTF-8" standalone="no"?>
<!DOCTYPE svg PUBLIC "-//W3C//DTD SVG 1.1//EN"
 "http://www.w3.org/Graphics/SVG/1.1/DTD/svg11.dtd">
<!-- Generated by graphviz version 12.2.1 (0)
 -->
<!-- Title: nix::MixRepair Pages: 1 -->
<svg width="252pt" height="144pt"
 viewBox="0.00 0.00 252.25 144.25" xmlns="http://www.w3.org/2000/svg" xmlns:xlink="http://www.w3.org/1999/xlink">
<g id="graph0" class="graph" transform="scale(1 1) rotate(0) translate(4 140.25)">
<title>nix::MixRepair</title>
<!-- Node1 -->
<g id="Node000001" class="node">
<title>Node1</title>
<g id="a_Node000001"><a xlink:title=" ">
<polygon fill="#999999" stroke="#666666" points="86.5,-78.5 0,-78.5 0,-57.75 86.5,-57.75 86.5,-78.5"/>
<text text-anchor="middle" x="43.25" y="-65" font-family="Helvetica,sans-Serif" font-size="10.00">nix::MixRepair</text>
</a>
</g>
</g>
<!-- Node2 -->
<g id="Node000002" class="node">
<title>Node2</title>
<g id="a_Node000002"><a xlink:href="classnix_1_1Args.html" target="_top" xlink:title=" ">
<polygon fill="white" stroke="#bfbfbf" points="177.62,-136.25 118.88,-136.25 118.88,-115.5 177.62,-115.5 177.62,-136.25"/>
<text text-anchor="middle" x="148.25" y="-122.75" font-family="Helvetica,sans-Serif" font-size="10.00">nix::Args</text>
</a>
</g>
</g>
<!-- Node2&#45;&gt;Node1 -->
<g id="edge1_Node000001_Node000002" class="edge">
<title>Node2&#45;&gt;Node1</title>
<g id="a_edge1_Node000001_Node000002"><a xlink:title=" ">
<path fill="none" stroke="#63b8ff" d="M120.02,-109.88C101.5,-100.05 77.81,-87.48 61.68,-78.91"/>
<polygon fill="#63b8ff" stroke="#63b8ff" points="118.15,-112.86 128.62,-114.45 121.43,-106.67 118.15,-112.86"/>
</a>
</g>
</g>
<!-- Node4 -->
<g id="Node000004" class="node">
<title>Node4</title>
<g id="a_Node000004"><a xlink:href="structnix_1_1Command.html" target="_top" xlink:title=" ">
<polygon fill="white" stroke="#666666" points="191.88,-78.5 104.62,-78.5 104.62,-57.75 191.88,-57.75 191.88,-78.5"/>
<text text-anchor="middle" x="148.25" y="-65" font-family="Helvetica,sans-Serif" font-size="10.00">nix::Command</text>
</a>
</g>
</g>
<!-- Node2&#45;&gt;Node4 -->
<g id="edge4_Node000004_Node000002" class="edge">
<title>Node2&#45;&gt;Node4</title>
<g id="a_edge4_Node000004_Node000002"><a xlink:title=" ">
<path fill="none" stroke="#63b8ff" d="M148.25,-103.93C148.25,-95.27 148.25,-85.65 148.25,-78.72"/>
<polygon fill="#63b8ff" stroke="#63b8ff" points="144.75,-103.65 148.25,-113.65 151.75,-103.65 144.75,-103.65"/>
</a>
</g>
</g>
<!-- Node3 -->
<g id="Node000003" class="node">
<title>Node3</title>
<g id="a_Node000003"><a xlink:href="classnix_1_1MultiCommand.html" target="_top" xlink:title=" ">
<polygon fill="white" stroke="#666666" points="244.25,-20.75 132.25,-20.75 132.25,0 244.25,0 244.25,-20.75"/>
<text text-anchor="middle" x="188.25" y="-7.25" font-family="Helvetica,sans-Serif" font-size="10.00">nix::MultiCommand</text>
</a>
</g>
</g>
<!-- Node3&#45;&gt;Node2 -->
<g id="edge2_Node000002_Node000003" class="edge">
<title>Node3&#45;&gt;Node2</title>
<g id="a_edge2_Node000002_Node000003"><a xlink:title=" ">
<path fill="none" stroke="#9a32cd" stroke-dasharray="5,2" d="M198.18,-31.19C203.65,-44.96 208.07,-63.47 201.25,-78.5 194.03,-94.42 178.33,-107.03 165.89,-115.05"/>
<polygon fill="#9a32cd" stroke="#9a32cd" points="201.48,-29.98 194.19,-22.29 195.09,-32.85 201.48,-29.98"/>
</a>
</g>
<text text-anchor="middle" x="221.97" y="-65" font-family="Helvetica,sans-Serif" font-size="10.00" fill="grey"> parent</text>
</g>
<!-- Node4&#45;&gt;Node3 -->
<g id="edge3_Node000003_Node000004" class="edge">
<title>Node4&#45;&gt;Node3</title>
<g id="a_edge3_Node000003_Node000004"><a xlink:title=" ">
<path fill="none" stroke="#63b8ff" d="M161.79,-48.25C168.37,-39.08 175.99,-28.46 181.36,-20.97"/>
<polygon fill="#63b8ff" stroke="#63b8ff" points="159.09,-46.02 156.1,-56.18 164.77,-50.1 159.09,-46.02"/>
</a>
</g>
</g>
</g>
</svg>
