<?xml version="1.0" encoding="UTF-8" standalone="no"?>
<!DOCTYPE svg PUBLIC "-//W3C//DTD SVG 1.1//EN"
 "http://www.w3.org/Graphics/SVG/1.1/DTD/svg11.dtd">
<!-- Generated by graphviz version 12.2.1 (0)
 -->
<!-- Title: nix::CmdAddFile Pages: 1 -->
<svg width="230pt" height="256pt"
 viewBox="0.00 0.00 229.88 255.75" xmlns="http://www.w3.org/2000/svg" xmlns:xlink="http://www.w3.org/1999/xlink">
<g id="graph0" class="graph" transform="scale(1 1) rotate(0) translate(4 251.75)">
<title>nix::CmdAddFile</title>
<!-- Node1 -->
<g id="Node000001" class="node">
<title>Node1</title>
<g id="a_Node000001"><a xlink:title=" ">
<polygon fill="#999999" stroke="#666666" points="153.25,-20.75 57.75,-20.75 57.75,0 153.25,0 153.25,-20.75"/>
<text text-anchor="middle" x="105.5" y="-7.25" font-family="Helvetica,sans-Serif" font-size="10.00">nix::CmdAddFile</text>
</a>
</g>
</g>
<!-- Node2 -->
<g id="Node000002" class="node">
<title>Node2</title>
<g id="a_Node000002"><a xlink:href="structnix_1_1CmdAddToStore.html" target="_top" xlink:title=" ">
<polygon fill="white" stroke="#bfbfbf" points="162.62,-77.5 48.38,-77.5 48.38,-56.75 162.62,-56.75 162.62,-77.5"/>
<text text-anchor="middle" x="105.5" y="-64" font-family="Helvetica,sans-Serif" font-size="10.00">nix::CmdAddToStore</text>
</a>
</g>
</g>
<!-- Node2&#45;&gt;Node1 -->
<g id="edge1_Node000001_Node000002" class="edge">
<title>Node2&#45;&gt;Node1</title>
<g id="a_edge1_Node000001_Node000002"><a xlink:title=" ">
<path fill="none" stroke="#63b8ff" d="M105.5,-44.88C105.5,-36.66 105.5,-27.68 105.5,-21.08"/>
<polygon fill="#63b8ff" stroke="#63b8ff" points="102,-44.82 105.5,-54.82 109,-44.82 102,-44.82"/>
</a>
</g>
</g>
<!-- Node3 -->
<g id="Node000003" class="node">
<title>Node3</title>
<g id="a_Node000003"><a xlink:href="structnix_1_1MixDryRun.html" target="_top" xlink:title=" ">
<polygon fill="white" stroke="#bfbfbf" points="91,-134.25 0,-134.25 0,-113.5 91,-113.5 91,-134.25"/>
<text text-anchor="middle" x="45.5" y="-120.75" font-family="Helvetica,sans-Serif" font-size="10.00">nix::MixDryRun</text>
</a>
</g>
</g>
<!-- Node3&#45;&gt;Node2 -->
<g id="edge2_Node000002_Node000003" class="edge">
<title>Node3&#45;&gt;Node2</title>
<g id="a_edge2_Node000002_Node000003"><a xlink:title=" ">
<path fill="none" stroke="#63b8ff" d="M64.73,-105.33C74.71,-96.22 86.53,-85.43 94.87,-77.83"/>
<polygon fill="#63b8ff" stroke="#63b8ff" points="62.37,-102.74 57.34,-112.07 67.09,-107.91 62.37,-102.74"/>
</a>
</g>
</g>
<!-- Node4 -->
<g id="Node000004" class="node">
<title>Node4</title>
<g id="a_Node000004"><a xlink:href="classnix_1_1Args.html" target="_top" xlink:title=" ">
<polygon fill="white" stroke="#bfbfbf" points="134.88,-247.75 76.12,-247.75 76.12,-227 134.88,-227 134.88,-247.75"/>
<text text-anchor="middle" x="105.5" y="-234.25" font-family="Helvetica,sans-Serif" font-size="10.00">nix::Args</text>
</a>
</g>
</g>
<!-- Node4&#45;&gt;Node3 -->
<g id="edge3_Node000003_Node000004" class="edge">
<title>Node4&#45;&gt;Node3</title>
<g id="a_edge3_Node000003_Node000004"><a xlink:title=" ">
<path fill="none" stroke="#63b8ff" d="M94.96,-216.79C82.04,-192.77 60.64,-153 50.77,-134.68"/>
<polygon fill="#63b8ff" stroke="#63b8ff" points="91.85,-218.39 99.67,-225.54 98.01,-215.07 91.85,-218.39"/>
</a>
</g>
</g>
<!-- Node6 -->
<g id="Node000006" class="node">
<title>Node6</title>
<g id="a_Node000006"><a xlink:href="structnix_1_1Command.html" target="_top" xlink:title=" ">
<polygon fill="white" stroke="#666666" points="197.12,-191 109.88,-191 109.88,-170.25 197.12,-170.25 197.12,-191"/>
<text text-anchor="middle" x="153.5" y="-177.5" font-family="Helvetica,sans-Serif" font-size="10.00">nix::Command</text>
</a>
</g>
</g>
<!-- Node4&#45;&gt;Node6 -->
<g id="edge6_Node000006_Node000004" class="edge">
<title>Node4&#45;&gt;Node6</title>
<g id="a_edge6_Node000006_Node000004"><a xlink:title=" ">
<path fill="none" stroke="#63b8ff" d="M121.62,-217.99C129.44,-209.06 138.53,-198.7 144.99,-191.33"/>
<polygon fill="#63b8ff" stroke="#63b8ff" points="119.04,-215.62 115.08,-225.45 124.3,-220.24 119.04,-215.62"/>
</a>
</g>
</g>
<!-- Node5 -->
<g id="Node000005" class="node">
<title>Node5</title>
<g id="a_Node000005"><a xlink:href="structnix_1_1StoreCommand.html" target="_top" xlink:title=" ">
<polygon fill="white" stroke="#666666" points="221.88,-134.25 109.12,-134.25 109.12,-113.5 221.88,-113.5 221.88,-134.25"/>
<text text-anchor="middle" x="165.5" y="-120.75" font-family="Helvetica,sans-Serif" font-size="10.00">nix::StoreCommand</text>
</a>
</g>
</g>
<!-- Node5&#45;&gt;Node2 -->
<g id="edge4_Node000002_Node000005" class="edge">
<title>Node5&#45;&gt;Node2</title>
<g id="a_edge4_Node000002_Node000005"><a xlink:title=" ">
<path fill="none" stroke="#63b8ff" d="M146.27,-105.33C136.29,-96.22 124.47,-85.43 116.13,-77.83"/>
<polygon fill="#63b8ff" stroke="#63b8ff" points="143.91,-107.91 153.66,-112.07 148.63,-102.74 143.91,-107.91"/>
</a>
</g>
</g>
<!-- Node6&#45;&gt;Node5 -->
<g id="edge5_Node000005_Node000006" class="edge">
<title>Node6&#45;&gt;Node5</title>
<g id="a_edge5_Node000005_Node000006"><a xlink:title=" ">
<path fill="none" stroke="#63b8ff" d="M158.09,-158.67C159.91,-150.38 161.91,-141.25 163.37,-134.58"/>
<polygon fill="#63b8ff" stroke="#63b8ff" points="154.69,-157.84 155.97,-168.36 161.53,-159.34 154.69,-157.84"/>
</a>
</g>
</g>
</g>
</svg>
