<?xml version="1.0" encoding="UTF-8" standalone="no"?>
<!DOCTYPE svg PUBLIC "-//W3C//DTD SVG 1.1//EN"
 "http://www.w3.org/Graphics/SVG/1.1/DTD/svg11.dtd">
<!-- Generated by graphviz version 12.2.1 (0)
 -->
<!-- Title: nix::ExtraPathInfoFlake Pages: 1 -->
<svg width="404pt" height="276pt"
 viewBox="0.00 0.00 403.88 275.50" xmlns="http://www.w3.org/2000/svg" xmlns:xlink="http://www.w3.org/1999/xlink">
<g id="graph0" class="graph" transform="scale(1 1) rotate(0) translate(4 271.5)">
<title>nix::ExtraPathInfoFlake</title>
<!-- Node1 -->
<g id="Node000001" class="node">
<title>Node1</title>
<g id="a_Node000001"><a xlink:title=" ">
<polygon fill="#999999" stroke="#666666" points="304.38,-20.75 175.88,-20.75 175.88,0 304.38,0 304.38,-20.75"/>
<text text-anchor="middle" x="240.12" y="-7.25" font-family="Helvetica,sans-Serif" font-size="10.00">nix::ExtraPathInfoFlake</text>
</a>
</g>
</g>
<!-- Node2 -->
<g id="Node000002" class="node">
<title>Node2</title>
<g id="a_Node000002"><a xlink:href="structnix_1_1ExtraPathInfoValue.html" target="_top" xlink:title=" ">
<polygon fill="white" stroke="#666666" points="231.75,-96.62 102.5,-96.62 102.5,-75.88 231.75,-75.88 231.75,-96.62"/>
<text text-anchor="middle" x="167.12" y="-83.12" font-family="Helvetica,sans-Serif" font-size="10.00">nix::ExtraPathInfoValue</text>
</a>
</g>
</g>
<!-- Node2&#45;&gt;Node1 -->
<g id="edge1_Node000001_Node000002" class="edge">
<title>Node2&#45;&gt;Node1</title>
<g id="a_edge1_Node000001_Node000002"><a xlink:title=" ">
<path fill="none" stroke="#63b8ff" d="M184.46,-67.71C198.98,-53.01 219.16,-32.59 230.81,-20.8"/>
<polygon fill="#63b8ff" stroke="#63b8ff" points="182.27,-64.94 177.73,-74.52 187.25,-69.86 182.27,-64.94"/>
</a>
</g>
</g>
<!-- Node3 -->
<g id="Node000003" class="node">
<title>Node3</title>
<g id="a_Node000003"><a xlink:href="structnix_1_1ExtraPathInfo.html" target="_top" xlink:title=" ">
<polygon fill="white" stroke="#666666" points="102.25,-191.62 0,-191.62 0,-170.88 102.25,-170.88 102.25,-191.62"/>
<text text-anchor="middle" x="51.12" y="-178.12" font-family="Helvetica,sans-Serif" font-size="10.00">nix::ExtraPathInfo</text>
</a>
</g>
</g>
<!-- Node3&#45;&gt;Node2 -->
<g id="edge2_Node000002_Node000003" class="edge">
<title>Node3&#45;&gt;Node2</title>
<g id="a_edge2_Node000002_Node000003"><a xlink:title=" ">
<path fill="none" stroke="#63b8ff" d="M71.87,-163.62C96.1,-144.2 135.34,-112.73 155.04,-96.94"/>
<polygon fill="#63b8ff" stroke="#63b8ff" points="69.9,-160.71 64.28,-169.7 74.27,-166.18 69.9,-160.71"/>
</a>
</g>
</g>
<!-- Node4 -->
<g id="Node000004" class="node">
<title>Node4</title>
<g id="a_Node000004"><a xlink:href="structnix_1_1ExtraPathInfoValue_1_1Value.html" target="_top" xlink:title=" ">
<polygon fill="white" stroke="#666666" points="249.75,-198 120.5,-198 120.5,-164.5 249.75,-164.5 249.75,-198"/>
<text text-anchor="start" x="128.5" y="-184.5" font-family="Helvetica,sans-Serif" font-size="10.00">nix::ExtraPathInfoValue</text>
<text text-anchor="middle" x="185.12" y="-171.75" font-family="Helvetica,sans-Serif" font-size="10.00">::Value</text>
</a>
</g>
</g>
<!-- Node4&#45;&gt;Node2 -->
<g id="edge3_Node000002_Node000004" class="edge">
<title>Node4&#45;&gt;Node2</title>
<g id="a_edge3_Node000002_Node000004"><a xlink:title=" ">
<path fill="none" stroke="#9a32cd" stroke-dasharray="5,2" d="M179.82,-152.84C176.18,-134.01 171.55,-110.12 169.01,-96.99"/>
<polygon fill="#9a32cd" stroke="#9a32cd" points="176.37,-153.41 181.7,-162.56 183.24,-152.08 176.37,-153.41"/>
</a>
</g>
<text text-anchor="middle" x="193.27" y="-130.62" font-family="Helvetica,sans-Serif" font-size="10.00" fill="grey"> value</text>
</g>
<!-- Node5 -->
<g id="Node000005" class="node">
<title>Node5</title>
<g id="a_Node000005"><a xlink:title=" ">
<polygon fill="white" stroke="#bfbfbf" points="257,-267.5 213.25,-267.5 213.25,-246.75 257,-246.75 257,-267.5"/>
<text text-anchor="middle" x="235.12" y="-254" font-family="Helvetica,sans-Serif" font-size="10.00">string</text>
</a>
</g>
</g>
<!-- Node5&#45;&gt;Node4 -->
<g id="edge4_Node000004_Node000005" class="edge">
<title>Node5&#45;&gt;Node4</title>
<g id="a_edge4_Node000004_Node000005"><a xlink:title=" ">
<path fill="none" stroke="#9a32cd" stroke-dasharray="5,2" d="M222.16,-236.97C214.06,-225 203.75,-209.76 196.06,-198.41"/>
<polygon fill="#9a32cd" stroke="#9a32cd" points="219.24,-238.89 227.74,-245.21 225.03,-234.97 219.24,-238.89"/>
</a>
</g>
<text text-anchor="middle" x="236.7" y="-219.25" font-family="Helvetica,sans-Serif" font-size="10.00" fill="grey"> attrPath</text>
</g>
<!-- Node8 -->
<g id="Node000008" class="node">
<title>Node8</title>
<g id="a_Node000008"><a xlink:href="structnix_1_1FlakeRef.html" target="_top" xlink:title=" ">
<polygon fill="white" stroke="#666666" points="354,-191.62 274.25,-191.62 274.25,-170.88 354,-170.88 354,-191.62"/>
<text text-anchor="middle" x="314.12" y="-178.12" font-family="Helvetica,sans-Serif" font-size="10.00">nix::FlakeRef</text>
</a>
</g>
</g>
<!-- Node5&#45;&gt;Node8 -->
<g id="edge9_Node000008_Node000005" class="edge">
<title>Node5&#45;&gt;Node8</title>
<g id="a_edge9_Node000008_Node000005"><a xlink:title=" ">
<path fill="none" stroke="#9a32cd" stroke-dasharray="5,2" d="M253.83,-238.63C269.45,-224.02 291.14,-203.75 303.79,-191.91"/>
<polygon fill="#9a32cd" stroke="#9a32cd" points="251.47,-236.05 246.56,-245.43 256.25,-241.16 251.47,-236.05"/>
</a>
</g>
<text text-anchor="middle" x="293.49" y="-219.25" font-family="Helvetica,sans-Serif" font-size="10.00" fill="grey"> subdir</text>
</g>
<!-- Node6 -->
<g id="Node000006" class="node">
<title>Node6</title>
<g id="a_Node000006"><a xlink:href="structnix_1_1ExtendedOutputsSpec.html" target="_top" xlink:title=" ">
<polygon fill="white" stroke="#bfbfbf" points="161.25,-267.5 17,-267.5 17,-246.75 161.25,-246.75 161.25,-267.5"/>
<text text-anchor="middle" x="89.12" y="-254" font-family="Helvetica,sans-Serif" font-size="10.00">nix::ExtendedOutputsSpec</text>
</a>
</g>
</g>
<!-- Node6&#45;&gt;Node4 -->
<g id="edge5_Node000004_Node000006" class="edge">
<title>Node6&#45;&gt;Node4</title>
<g id="a_edge5_Node000004_Node000006"><a xlink:title=" ">
<path fill="none" stroke="#9a32cd" stroke-dasharray="5,2" d="M88.06,-235.17C88.71,-228.44 90.57,-221.35 94.88,-216 101.59,-207.66 110.58,-201.38 120.3,-196.65"/>
<polygon fill="#9a32cd" stroke="#9a32cd" points="84.56,-234.9 87.94,-244.94 91.56,-234.99 84.56,-234.9"/>
</a>
</g>
<text text-anchor="middle" x="150" y="-219.25" font-family="Helvetica,sans-Serif" font-size="10.00" fill="grey"> extendedOutputsSpec</text>
</g>
<!-- Node7 -->
<g id="Node000007" class="node">
<title>Node7</title>
<g id="a_Node000007"><a xlink:href="structnix_1_1ExtraPathInfoFlake_1_1Flake.html" target="_top" xlink:title=" ">
<polygon fill="white" stroke="#666666" points="378.38,-103 249.88,-103 249.88,-69.5 378.38,-69.5 378.38,-103"/>
<text text-anchor="start" x="257.88" y="-89.5" font-family="Helvetica,sans-Serif" font-size="10.00">nix::ExtraPathInfoFlake</text>
<text text-anchor="middle" x="314.12" y="-76.75" font-family="Helvetica,sans-Serif" font-size="10.00">::Flake</text>
</a>
</g>
</g>
<!-- Node7&#45;&gt;Node1 -->
<g id="edge6_Node000001_Node000007" class="edge">
<title>Node7&#45;&gt;Node1</title>
<g id="a_edge6_Node000001_Node000007"><a xlink:title=" ">
<path fill="none" stroke="#9a32cd" stroke-dasharray="5,2" d="M289.93,-61.1C276.17,-47.36 259.72,-30.94 249.6,-20.83"/>
<polygon fill="#9a32cd" stroke="#9a32cd" points="287.45,-63.56 297,-68.15 292.39,-58.61 287.45,-63.56"/>
</a>
</g>
<text text-anchor="middle" x="292.47" y="-42" font-family="Helvetica,sans-Serif" font-size="10.00" fill="grey"> flake</text>
</g>
<!-- Node8&#45;&gt;Node7 -->
<g id="edge7_Node000007_Node000008" class="edge">
<title>Node8&#45;&gt;Node7</title>
<g id="a_edge7_Node000007_Node000008"><a xlink:title=" ">
<path fill="none" stroke="#9a32cd" stroke-dasharray="5,2" d="M314.12,-159.23C314.12,-142.34 314.12,-118.95 314.12,-103.48"/>
<polygon fill="#9a32cd" stroke="#9a32cd" points="310.63,-159.13 314.13,-169.13 317.63,-159.13 310.63,-159.13"/>
</a>
</g>
<text text-anchor="middle" x="340.75" y="-137" font-family="Helvetica,sans-Serif" font-size="10.00" fill="grey"> lockedRef</text>
<text text-anchor="middle" x="340.75" y="-124.25" font-family="Helvetica,sans-Serif" font-size="10.00" fill="grey">originalRef</text>
</g>
<!-- Node9 -->
<g id="Node000009" class="node">
<title>Node9</title>
<g id="a_Node000009"><a xlink:href="structnix_1_1fetchers_1_1Input.html" target="_top" xlink:title=" ">
<polygon fill="white" stroke="#666666" points="395.88,-267.5 288.38,-267.5 288.38,-246.75 395.88,-246.75 395.88,-267.5"/>
<text text-anchor="middle" x="342.12" y="-254" font-family="Helvetica,sans-Serif" font-size="10.00">nix::fetchers::Input</text>
</a>
</g>
</g>
<!-- Node9&#45;&gt;Node8 -->
<g id="edge8_Node000008_Node000009" class="edge">
<title>Node9&#45;&gt;Node8</title>
<g id="a_edge8_Node000008_Node000009"><a xlink:title=" ">
<path fill="none" stroke="#9a32cd" stroke-dasharray="5,2" d="M334.52,-236.06C329.05,-221.62 321.92,-202.8 317.7,-191.68"/>
<polygon fill="#9a32cd" stroke="#9a32cd" points="331.11,-236.94 337.93,-245.05 337.66,-234.46 331.11,-236.94"/>
</a>
</g>
<text text-anchor="middle" x="345.33" y="-219.25" font-family="Helvetica,sans-Serif" font-size="10.00" fill="grey"> input</text>
</g>
</g>
</svg>
