<?xml version="1.0" encoding="UTF-8" standalone="no"?>
<!DOCTYPE svg PUBLIC "-//W3C//DTD SVG 1.1//EN"
 "http://www.w3.org/Graphics/SVG/1.1/DTD/svg11.dtd">
<!-- Generated by graphviz version 12.2.1 (0)
 -->
<!-- Title: nix::DerivationOutput::InputAddressed Pages: 1 -->
<svg width="169pt" height="111pt"
 viewBox="0.00 0.00 168.75 111.00" xmlns="http://www.w3.org/2000/svg" xmlns:xlink="http://www.w3.org/1999/xlink">
<g id="graph0" class="graph" transform="scale(1 1) rotate(0) translate(4 107)">
<title>nix::DerivationOutput::InputAddressed</title>
<!-- Node1 -->
<g id="Node000001" class="node">
<title>Node1</title>
<g id="a_Node000001"><a xlink:title=" ">
<polygon fill="#999999" stroke="#666666" points="121,-33.5 0,-33.5 0,0 121,0 121,-33.5"/>
<text text-anchor="start" x="8" y="-20" font-family="Helvetica,sans-Serif" font-size="10.00">nix::DerivationOutput</text>
<text text-anchor="middle" x="60.5" y="-7.25" font-family="Helvetica,sans-Serif" font-size="10.00">::InputAddressed</text>
</a>
</g>
</g>
<!-- Node2 -->
<g id="Node000002" class="node">
<title>Node2</title>
<g id="a_Node000002"><a xlink:href="classnix_1_1StorePath.html" target="_top" xlink:title=" ">
<polygon fill="white" stroke="#666666" points="102.25,-103 18.75,-103 18.75,-82.25 102.25,-82.25 102.25,-103"/>
<text text-anchor="middle" x="60.5" y="-89.5" font-family="Helvetica,sans-Serif" font-size="10.00">nix::StorePath</text>
</a>
</g>
</g>
<!-- Node2&#45;&gt;Node1 -->
<g id="edge1_Node000001_Node000002" class="edge">
<title>Node2&#45;&gt;Node1</title>
<g id="a_edge1_Node000001_Node000002"><a xlink:title=" ">
<path fill="none" stroke="#9a32cd" stroke-dasharray="5,2" d="M60.5,-70.63C60.5,-58.97 60.5,-44.69 60.5,-33.91"/>
<polygon fill="#9a32cd" stroke="#9a32cd" points="57,-70.45 60.5,-80.45 64,-70.45 57,-70.45"/>
</a>
</g>
<text text-anchor="middle" x="72.88" y="-54.75" font-family="Helvetica,sans-Serif" font-size="10.00" fill="grey"> path</text>
</g>
<!-- Node2&#45;&gt;Node2 -->
<g id="edge2_Node000002_Node000002" class="edge">
<title>Node2&#45;&gt;Node2</title>
<g id="a_edge2_Node000002_Node000002"><a xlink:title=" ">
<path fill="none" stroke="#9a32cd" stroke-dasharray="5,2" d="M114.01,-97.43C117.88,-96.35 120.25,-94.74 120.25,-92.62 120.25,-88.86 112.76,-86.72 102.65,-86.22"/>
<polygon fill="#9a32cd" stroke="#9a32cd" points="113.57,-93.96 104.15,-98.82 114.54,-100.89 113.57,-93.96"/>
</a>
</g>
<text text-anchor="middle" x="140.5" y="-89.5" font-family="Helvetica,sans-Serif" font-size="10.00" fill="grey"> dummy</text>
</g>
</g>
</svg>
