<?xml version="1.0" encoding="UTF-8" standalone="no"?>
<!DOCTYPE svg PUBLIC "-//W3C//DTD SVG 1.1//EN"
 "http://www.w3.org/Graphics/SVG/1.1/DTD/svg11.dtd">
<!-- Generated by graphviz version 12.2.1 (0)
 -->
<!-- Title: nix::CmdShowDerivation Pages: 1 -->
<svg width="376pt" height="483pt"
 viewBox="0.00 0.00 375.50 482.75" xmlns="http://www.w3.org/2000/svg" xmlns:xlink="http://www.w3.org/1999/xlink">
<g id="graph0" class="graph" transform="scale(1 1) rotate(0) translate(4 478.75)">
<title>nix::CmdShowDerivation</title>
<!-- Node1 -->
<g id="Node000001" class="node">
<title>Node1</title>
<g id="a_Node000001"><a xlink:title=" ">
<polygon fill="#999999" stroke="#666666" points="150.62,-20.75 13.88,-20.75 13.88,0 150.62,0 150.62,-20.75"/>
<text text-anchor="middle" x="82.25" y="-7.25" font-family="Helvetica,sans-Serif" font-size="10.00">nix::CmdShowDerivation</text>
</a>
</g>
</g>
<!-- Node2 -->
<g id="Node000002" class="node">
<title>Node2</title>
<g id="a_Node000002"><a xlink:href="structnix_1_1InstallablesCommand.html" target="_top" xlink:title=" ">
<polygon fill="white" stroke="#666666" points="154,-77.5 10.5,-77.5 10.5,-56.75 154,-56.75 154,-77.5"/>
<text text-anchor="middle" x="82.25" y="-64" font-family="Helvetica,sans-Serif" font-size="10.00">nix::InstallablesCommand</text>
</a>
</g>
</g>
<!-- Node2&#45;&gt;Node1 -->
<g id="edge1_Node000001_Node000002" class="edge">
<title>Node2&#45;&gt;Node1</title>
<g id="a_edge1_Node000001_Node000002"><a xlink:title=" ">
<path fill="none" stroke="#63b8ff" d="M82.25,-44.88C82.25,-36.66 82.25,-27.68 82.25,-21.08"/>
<polygon fill="#63b8ff" stroke="#63b8ff" points="78.75,-44.82 82.25,-54.82 85.75,-44.82 78.75,-44.82"/>
</a>
</g>
</g>
<!-- Node3 -->
<g id="Node000003" class="node">
<title>Node3</title>
<g id="a_Node000003"><a xlink:href="structnix_1_1RawInstallablesCommand.html" target="_top" xlink:title=" ">
<polygon fill="white" stroke="#666666" points="164.5,-134.25 0,-134.25 0,-113.5 164.5,-113.5 164.5,-134.25"/>
<text text-anchor="middle" x="82.25" y="-120.75" font-family="Helvetica,sans-Serif" font-size="10.00">nix::RawInstallablesCommand</text>
</a>
</g>
</g>
<!-- Node3&#45;&gt;Node2 -->
<g id="edge2_Node000002_Node000003" class="edge">
<title>Node3&#45;&gt;Node2</title>
<g id="a_edge2_Node000002_Node000003"><a xlink:title=" ">
<path fill="none" stroke="#63b8ff" d="M82.25,-101.63C82.25,-93.41 82.25,-84.43 82.25,-77.83"/>
<polygon fill="#63b8ff" stroke="#63b8ff" points="78.75,-101.57 82.25,-111.57 85.75,-101.57 78.75,-101.57"/>
</a>
</g>
</g>
<!-- Node4 -->
<g id="Node000004" class="node">
<title>Node4</title>
<g id="a_Node000004"><a xlink:href="classnix_1_1Args.html" target="_top" xlink:title=" ">
<polygon fill="white" stroke="#bfbfbf" points="174.62,-474.75 115.88,-474.75 115.88,-454 174.62,-454 174.62,-474.75"/>
<text text-anchor="middle" x="145.25" y="-461.25" font-family="Helvetica,sans-Serif" font-size="10.00">nix::Args</text>
</a>
</g>
</g>
<!-- Node4&#45;&gt;Node3 -->
<g id="edge3_Node000003_Node000004" class="edge">
<title>Node4&#45;&gt;Node3</title>
<g id="a_edge3_Node000003_Node000004"><a xlink:title=" ">
<path fill="none" stroke="#63b8ff" d="M112.93,-448.33C79.85,-430.43 33.25,-397.18 33.25,-351.88 33.25,-351.88 33.25,-351.88 33.25,-236.38 33.25,-205.8 39.45,-198.02 52.25,-170.25 58.34,-157.04 67.96,-143.31 74.66,-134.45"/>
<polygon fill="#63b8ff" stroke="#63b8ff" points="111.29,-451.42 121.78,-452.9 114.5,-445.2 111.29,-451.42"/>
</a>
</g>
</g>
<!-- Node5 -->
<g id="Node000005" class="node">
<title>Node5</title>
<g id="a_Node000005"><a xlink:href="structnix_1_1SourceExprCommand.html" target="_top" xlink:title=" ">
<polygon fill="white" stroke="#bfbfbf" points="203.25,-191 61.25,-191 61.25,-170.25 203.25,-170.25 203.25,-191"/>
<text text-anchor="middle" x="132.25" y="-177.5" font-family="Helvetica,sans-Serif" font-size="10.00">nix::SourceExprCommand</text>
</a>
</g>
</g>
<!-- Node4&#45;&gt;Node5 -->
<g id="edge5_Node000005_Node000004" class="edge">
<title>Node4&#45;&gt;Node5</title>
<g id="a_edge5_Node000005_Node000004"><a xlink:title=" ">
<path fill="none" stroke="#63b8ff" d="M124.63,-446.38C102.74,-426.3 71.25,-390.67 71.25,-351.88 71.25,-351.88 71.25,-351.88 71.25,-293.12 71.25,-262.55 75.23,-253.64 90.25,-227 98.16,-212.97 111.22,-199.81 120.68,-191.31"/>
<polygon fill="#63b8ff" stroke="#63b8ff" points="122.07,-448.79 131.89,-452.77 126.7,-443.53 122.07,-448.79"/>
</a>
</g>
</g>
<!-- Node6 -->
<g id="Node000006" class="node">
<title>Node6</title>
<g id="a_Node000006"><a xlink:href="structnix_1_1MixFlakeOptions.html" target="_top" xlink:title=" ">
<polygon fill="white" stroke="#666666" points="217.62,-247.75 98.88,-247.75 98.88,-227 217.62,-227 217.62,-247.75"/>
<text text-anchor="middle" x="158.25" y="-234.25" font-family="Helvetica,sans-Serif" font-size="10.00">nix::MixFlakeOptions</text>
</a>
</g>
</g>
<!-- Node4&#45;&gt;Node6 -->
<g id="edge7_Node000006_Node000004" class="edge">
<title>Node4&#45;&gt;Node6</title>
<g id="a_edge7_Node000006_Node000004"><a xlink:title=" ">
<path fill="none" stroke="#63b8ff" d="M135.88,-443.1C132.8,-435.41 129.78,-426.47 128.25,-418 117.61,-359.28 112.95,-340.86 130.25,-283.75 134.33,-270.28 143.43,-256.81 150.16,-248.09"/>
<polygon fill="#63b8ff" stroke="#63b8ff" points="132.63,-444.39 139.8,-452.19 139.05,-441.62 132.63,-444.39"/>
</a>
</g>
</g>
<!-- Node9 -->
<g id="Node000009" class="node">
<title>Node9</title>
<g id="a_Node000009"><a xlink:href="structnix_1_1Command.html" target="_top" xlink:title=" ">
<polygon fill="white" stroke="#666666" points="224.88,-418 137.62,-418 137.62,-397.25 224.88,-397.25 224.88,-418"/>
<text text-anchor="middle" x="181.25" y="-404.5" font-family="Helvetica,sans-Serif" font-size="10.00">nix::Command</text>
</a>
</g>
</g>
<!-- Node4&#45;&gt;Node9 -->
<g id="edge11_Node000009_Node000004" class="edge">
<title>Node4&#45;&gt;Node9</title>
<g id="a_edge11_Node000009_Node000004"><a xlink:title=" ">
<path fill="none" stroke="#63b8ff" d="M157.9,-444.14C163.64,-435.41 170.17,-425.47 174.87,-418.33"/>
<polygon fill="#63b8ff" stroke="#63b8ff" points="155.09,-442.04 152.52,-452.32 160.94,-445.89 155.09,-442.04"/>
</a>
</g>
</g>
<!-- Node10 -->
<g id="Node000010" class="node">
<title>Node10</title>
<g id="a_Node000010"><a xlink:href="structnix_1_1MixEvalArgs.html" target="_top" xlink:title=" ">
<polygon fill="white" stroke="#bfbfbf" points="365.12,-361.25 267.38,-361.25 267.38,-340.5 365.12,-340.5 365.12,-361.25"/>
<text text-anchor="middle" x="316.25" y="-347.75" font-family="Helvetica,sans-Serif" font-size="10.00">nix::MixEvalArgs</text>
</a>
</g>
</g>
<!-- Node4&#45;&gt;Node10 -->
<g id="edge13_Node000010_Node000004" class="edge">
<title>Node4&#45;&gt;Node10</title>
<g id="a_edge13_Node000010_Node000004"><a xlink:title=" ">
<path fill="none" stroke="#63b8ff" d="M177.7,-448.83C194.97,-440.6 216.29,-429.64 234.25,-418 261.57,-400.29 290.54,-375.24 305.66,-361.62"/>
<polygon fill="#63b8ff" stroke="#63b8ff" points="176.48,-445.54 168.9,-452.95 179.44,-451.88 176.48,-445.54"/>
</a>
</g>
</g>
<!-- Node11 -->
<g id="Node000011" class="node">
<title>Node11</title>
<g id="a_Node000011"><a xlink:href="structnix_1_1MixRepair.html" target="_top" xlink:title=" ">
<polygon fill="white" stroke="#bfbfbf" points="367.5,-418 281,-418 281,-397.25 367.5,-397.25 367.5,-418"/>
<text text-anchor="middle" x="324.25" y="-404.5" font-family="Helvetica,sans-Serif" font-size="10.00">nix::MixRepair</text>
</a>
</g>
</g>
<!-- Node4&#45;&gt;Node11 -->
<g id="edge15_Node000011_Node000004" class="edge">
<title>Node4&#45;&gt;Node11</title>
<g id="a_edge15_Node000011_Node000004"><a xlink:title=" ">
<path fill="none" stroke="#63b8ff" d="M185.65,-451.02C217.89,-441.16 262.43,-427.53 292.23,-418.42"/>
<polygon fill="#63b8ff" stroke="#63b8ff" points="184.79,-447.62 176.26,-453.89 186.84,-454.31 184.79,-447.62"/>
</a>
</g>
</g>
<!-- Node5&#45;&gt;Node3 -->
<g id="edge4_Node000003_Node000005" class="edge">
<title>Node5&#45;&gt;Node3</title>
<g id="a_edge4_Node000003_Node000005"><a xlink:title=" ">
<path fill="none" stroke="#63b8ff" d="M115.72,-161.52C107.51,-152.53 97.92,-142.03 91.11,-134.58"/>
<polygon fill="#63b8ff" stroke="#63b8ff" points="112.96,-163.7 122.29,-168.72 118.13,-158.97 112.96,-163.7"/>
</a>
</g>
</g>
<!-- Node6&#45;&gt;Node5 -->
<g id="edge6_Node000005_Node000006" class="edge">
<title>Node6&#45;&gt;Node5</title>
<g id="a_edge6_Node000005_Node000006"><a xlink:title=" ">
<path fill="none" stroke="#63b8ff" d="M148.71,-216.28C144.66,-207.77 140.14,-198.24 136.86,-191.33"/>
<polygon fill="#63b8ff" stroke="#63b8ff" points="145.5,-217.69 152.95,-225.22 151.82,-214.68 145.5,-217.69"/>
</a>
</g>
</g>
<!-- Node7 -->
<g id="Node000007" class="node">
<title>Node7</title>
<g id="a_Node000007"><a xlink:href="structnix_1_1EvalCommand.html" target="_top" xlink:title=" ">
<polygon fill="white" stroke="#666666" points="247.38,-304.5 139.12,-304.5 139.12,-283.75 247.38,-283.75 247.38,-304.5"/>
<text text-anchor="middle" x="193.25" y="-291" font-family="Helvetica,sans-Serif" font-size="10.00">nix::EvalCommand</text>
</a>
</g>
</g>
<!-- Node7&#45;&gt;Node6 -->
<g id="edge8_Node000006_Node000007" class="edge">
<title>Node7&#45;&gt;Node6</title>
<g id="a_edge8_Node000006_Node000007"><a xlink:title=" ">
<path fill="none" stroke="#63b8ff" d="M180.95,-273.89C175.37,-265.16 169.02,-255.22 164.45,-248.08"/>
<polygon fill="#63b8ff" stroke="#63b8ff" points="177.84,-275.52 186.18,-282.06 183.74,-271.75 177.84,-275.52"/>
</a>
</g>
</g>
<!-- Node8 -->
<g id="Node000008" class="node">
<title>Node8</title>
<g id="a_Node000008"><a xlink:href="structnix_1_1StoreCommand.html" target="_top" xlink:title=" ">
<polygon fill="white" stroke="#666666" points="249.62,-361.25 136.88,-361.25 136.88,-340.5 249.62,-340.5 249.62,-361.25"/>
<text text-anchor="middle" x="193.25" y="-347.75" font-family="Helvetica,sans-Serif" font-size="10.00">nix::StoreCommand</text>
</a>
</g>
</g>
<!-- Node8&#45;&gt;Node7 -->
<g id="edge9_Node000007_Node000008" class="edge">
<title>Node8&#45;&gt;Node7</title>
<g id="a_edge9_Node000007_Node000008"><a xlink:title=" ">
<path fill="none" stroke="#63b8ff" d="M193.25,-328.63C193.25,-320.41 193.25,-311.43 193.25,-304.83"/>
<polygon fill="#63b8ff" stroke="#63b8ff" points="189.75,-328.57 193.25,-338.57 196.75,-328.57 189.75,-328.57"/>
</a>
</g>
</g>
<!-- Node9&#45;&gt;Node8 -->
<g id="edge10_Node000008_Node000009" class="edge">
<title>Node9&#45;&gt;Node8</title>
<g id="a_edge10_Node000008_Node000009"><a xlink:title=" ">
<path fill="none" stroke="#63b8ff" d="M185.84,-385.67C187.66,-377.38 189.66,-368.25 191.12,-361.58"/>
<polygon fill="#63b8ff" stroke="#63b8ff" points="182.44,-384.84 183.72,-395.36 189.28,-386.34 182.44,-384.84"/>
</a>
</g>
</g>
<!-- Node10&#45;&gt;Node7 -->
<g id="edge12_Node000007_Node000010" class="edge">
<title>Node10&#45;&gt;Node7</title>
<g id="a_edge12_Node000007_Node000010"><a xlink:title=" ">
<path fill="none" stroke="#63b8ff" d="M283.87,-335.46C262.15,-325.8 234.14,-313.33 215.05,-304.83"/>
<polygon fill="#63b8ff" stroke="#63b8ff" points="282.32,-338.6 292.88,-339.47 285.16,-332.21 282.32,-338.6"/>
</a>
</g>
</g>
<!-- Node11&#45;&gt;Node10 -->
<g id="edge14_Node000010_Node000011" class="edge">
<title>Node11&#45;&gt;Node10</title>
<g id="a_edge14_Node000010_Node000011"><a xlink:title=" ">
<path fill="none" stroke="#63b8ff" d="M321.19,-385.67C319.98,-377.38 318.64,-368.25 317.67,-361.58"/>
<polygon fill="#63b8ff" stroke="#63b8ff" points="317.69,-385.95 322.6,-395.34 324.62,-384.94 317.69,-385.95"/>
</a>
</g>
</g>
</g>
</svg>
