<?xml version="1.0" encoding="UTF-8" standalone="no"?>
<!DOCTYPE svg PUBLIC "-//W3C//DTD SVG 1.1//EN"
 "http://www.w3.org/Graphics/SVG/1.1/DTD/svg11.dtd">
<!-- Generated by graphviz version 12.2.1 (0)
 -->
<!-- Title: nix::LocalStoreAccessor Pages: 1 -->
<svg width="274pt" height="98pt"
 viewBox="0.00 0.00 274.38 98.25" xmlns="http://www.w3.org/2000/svg" xmlns:xlink="http://www.w3.org/1999/xlink">
<g id="graph0" class="graph" transform="scale(1 1) rotate(0) translate(4 94.25)">
<title>nix::LocalStoreAccessor</title>
<!-- Node1 -->
<g id="Node000001" class="node">
<title>Node1</title>
<g id="a_Node000001"><a xlink:title=" ">
<polygon fill="#999999" stroke="#666666" points="183,-20.75 51.5,-20.75 51.5,0 183,0 183,-20.75"/>
<text text-anchor="middle" x="117.25" y="-7.25" font-family="Helvetica,sans-Serif" font-size="10.00">nix::LocalStoreAccessor</text>
</a>
</g>
</g>
<!-- Node2 -->
<g id="Node000002" class="node">
<title>Node2</title>
<g id="a_Node000002"><a xlink:href="classnix_1_1FSAccessor.html" target="_top" xlink:title=" ">
<polygon fill="white" stroke="#666666" points="92.5,-90.25 0,-90.25 0,-69.5 92.5,-69.5 92.5,-90.25"/>
<text text-anchor="middle" x="46.25" y="-76.75" font-family="Helvetica,sans-Serif" font-size="10.00">nix::FSAccessor</text>
</a>
</g>
</g>
<!-- Node2&#45;&gt;Node1 -->
<g id="edge1_Node000001_Node000002" class="edge">
<title>Node2&#45;&gt;Node1</title>
<g id="a_edge1_Node000001_Node000002"><a xlink:title=" ">
<path fill="none" stroke="#63b8ff" d="M64.57,-61.46C78.1,-48.59 96.03,-31.55 107.1,-21.03"/>
<polygon fill="#63b8ff" stroke="#63b8ff" points="62.36,-58.73 57.52,-68.16 67.18,-63.81 62.36,-58.73"/>
</a>
</g>
</g>
<!-- Node3 -->
<g id="Node000003" class="node">
<title>Node3</title>
<g id="a_Node000003"><a xlink:href="classnix_1_1ref.html" target="_top" xlink:title=" ">
<polygon fill="white" stroke="#666666" points="266.38,-90.25 110.12,-90.25 110.12,-69.5 266.38,-69.5 266.38,-90.25"/>
<text text-anchor="middle" x="188.25" y="-76.75" font-family="Helvetica,sans-Serif" font-size="10.00">nix::ref&lt; nix::LocalFSStore &gt;</text>
</a>
</g>
</g>
<!-- Node3&#45;&gt;Node1 -->
<g id="edge2_Node000001_Node000003" class="edge">
<title>Node3&#45;&gt;Node1</title>
<g id="a_edge2_Node000001_Node000003"><a xlink:title=" ">
<path fill="none" stroke="#9a32cd" stroke-dasharray="5,2" d="M169.93,-61.46C156.4,-48.59 138.47,-31.55 127.4,-21.03"/>
<polygon fill="#9a32cd" stroke="#9a32cd" points="167.32,-63.81 176.98,-68.16 172.14,-58.73 167.32,-63.81"/>
</a>
</g>
<text text-anchor="middle" x="172.98" y="-42" font-family="Helvetica,sans-Serif" font-size="10.00" fill="grey"> store</text>
</g>
</g>
</svg>
