<?xml version="1.0" encoding="UTF-8" standalone="no"?>
<!DOCTYPE svg PUBLIC "-//W3C//DTD SVG 1.1//EN"
 "http://www.w3.org/Graphics/SVG/1.1/DTD/svg11.dtd">
<!-- Generated by graphviz version 12.2.1 (0)
 -->
<!-- Title: nix::MixProfile Pages: 1 -->
<svg width="805pt" height="380pt"
 viewBox="0.00 0.00 804.50 379.75" xmlns="http://www.w3.org/2000/svg" xmlns:xlink="http://www.w3.org/1999/xlink">
<g id="graph0" class="graph" transform="scale(1 1) rotate(0) translate(4 375.75)">
<title>nix::MixProfile</title>
<!-- Node1 -->
<g id="Node000001" class="node">
<title>Node1</title>
<g id="a_Node000001"><a xlink:title=" ">
<polygon fill="#999999" stroke="#666666" points="452.5,-332.75 366.75,-332.75 366.75,-312 452.5,-312 452.5,-332.75"/>
<text text-anchor="middle" x="409.62" y="-319.25" font-family="Helvetica,sans-Serif" font-size="10.00">nix::MixProfile</text>
</a>
</g>
</g>
<!-- Node5 -->
<g id="Node000005" class="node">
<title>Node5</title>
<g id="a_Node000005"><a xlink:href="structnix_1_1CmdBuild.html" target="_top" xlink:title=" ">
<polygon fill="white" stroke="#bfbfbf" points="591.5,-371.75 507.25,-371.75 507.25,-351 591.5,-351 591.5,-371.75"/>
<text text-anchor="middle" x="549.38" y="-358.25" font-family="Helvetica,sans-Serif" font-size="10.00">nix::CmdBuild</text>
</a>
</g>
</g>
<!-- Node1&#45;&gt;Node5 -->
<g id="edge4_Node000001_Node000005" class="edge">
<title>Node1&#45;&gt;Node5</title>
<g id="a_edge4_Node000001_Node000005"><a xlink:title=" ">
<path fill="none" stroke="#63b8ff" d="M459.63,-336.25C476.25,-340.96 494.56,-346.14 510.21,-350.57"/>
<polygon fill="#63b8ff" stroke="#63b8ff" points="461.03,-333.01 450.45,-333.65 459.12,-339.74 461.03,-333.01"/>
</a>
</g>
</g>
<!-- Node6 -->
<g id="Node000006" class="node">
<title>Node6</title>
<g id="a_Node000006"><a xlink:href="structnix_1_1Common.html" target="_top" xlink:title=" ">
<polygon fill="white" stroke="#bfbfbf" points="590,-332.75 508.75,-332.75 508.75,-312 590,-312 590,-332.75"/>
<text text-anchor="middle" x="549.38" y="-319.25" font-family="Helvetica,sans-Serif" font-size="10.00">nix::Common</text>
</a>
</g>
</g>
<!-- Node1&#45;&gt;Node6 -->
<g id="edge5_Node000001_Node000006" class="edge">
<title>Node1&#45;&gt;Node6</title>
<g id="a_edge5_Node000001_Node000006"><a xlink:title=" ">
<path fill="none" stroke="#63b8ff" d="M463.8,-322.38C478.64,-322.38 494.51,-322.38 508.44,-322.38"/>
<polygon fill="#63b8ff" stroke="#63b8ff" points="464.22,-318.88 454.22,-322.38 464.22,-325.88 464.22,-318.88"/>
</a>
</g>
</g>
<!-- Node9 -->
<g id="Node000009" class="node">
<title>Node9</title>
<g id="a_Node000009"><a xlink:href="structnix_1_1MixDefaultProfile.html" target="_top" xlink:title=" ">
<polygon fill="white" stroke="#bfbfbf" points="610.25,-176.75 488.5,-176.75 488.5,-156 610.25,-156 610.25,-176.75"/>
<text text-anchor="middle" x="549.38" y="-163.25" font-family="Helvetica,sans-Serif" font-size="10.00">nix::MixDefaultProfile</text>
</a>
</g>
</g>
<!-- Node1&#45;&gt;Node9 -->
<g id="edge8_Node000001_Node000009" class="edge">
<title>Node1&#45;&gt;Node9</title>
<g id="a_edge8_Node000001_Node000009"><a xlink:title=" ">
<path fill="none" stroke="#63b8ff" d="M427.48,-303.28C456.69,-270.21 515.77,-203.3 538.84,-177.17"/>
<polygon fill="#63b8ff" stroke="#63b8ff" points="425.09,-300.71 421.09,-310.52 430.34,-305.34 425.09,-300.71"/>
</a>
</g>
</g>
<!-- Node2 -->
<g id="Node000002" class="node">
<title>Node2</title>
<g id="a_Node000002"><a xlink:href="structnix_1_1StoreCommand.html" target="_top" xlink:title=" ">
<polygon fill="white" stroke="#666666" points="330.75,-332.75 218,-332.75 218,-312 330.75,-312 330.75,-332.75"/>
<text text-anchor="middle" x="274.38" y="-319.25" font-family="Helvetica,sans-Serif" font-size="10.00">nix::StoreCommand</text>
</a>
</g>
</g>
<!-- Node2&#45;&gt;Node1 -->
<g id="edge1_Node000001_Node000002" class="edge">
<title>Node2&#45;&gt;Node1</title>
<g id="a_edge1_Node000001_Node000002"><a xlink:title=" ">
<path fill="none" stroke="#63b8ff" d="M342.58,-322.38C350.73,-322.38 358.86,-322.38 366.49,-322.38"/>
<polygon fill="#63b8ff" stroke="#63b8ff" points="342.63,-318.88 332.63,-322.38 342.63,-325.88 342.63,-318.88"/>
</a>
</g>
</g>
<!-- Node3 -->
<g id="Node000003" class="node">
<title>Node3</title>
<g id="a_Node000003"><a xlink:href="structnix_1_1Command.html" target="_top" xlink:title=" ">
<polygon fill="white" stroke="#666666" points="182,-332.75 94.75,-332.75 94.75,-312 182,-312 182,-332.75"/>
<text text-anchor="middle" x="138.38" y="-319.25" font-family="Helvetica,sans-Serif" font-size="10.00">nix::Command</text>
</a>
</g>
</g>
<!-- Node3&#45;&gt;Node2 -->
<g id="edge2_Node000002_Node000003" class="edge">
<title>Node3&#45;&gt;Node2</title>
<g id="a_edge2_Node000002_Node000003"><a xlink:title=" ">
<path fill="none" stroke="#63b8ff" d="M193.59,-322.38C201.57,-322.38 209.79,-322.38 217.79,-322.38"/>
<polygon fill="#63b8ff" stroke="#63b8ff" points="193.66,-318.88 183.66,-322.38 193.66,-325.88 193.66,-318.88"/>
</a>
</g>
</g>
<!-- Node4 -->
<g id="Node000004" class="node">
<title>Node4</title>
<g id="a_Node000004"><a xlink:href="classnix_1_1Args.html" target="_top" xlink:title=" ">
<polygon fill="white" stroke="#bfbfbf" points="58.75,-332.75 0,-332.75 0,-312 58.75,-312 58.75,-332.75"/>
<text text-anchor="middle" x="29.38" y="-319.25" font-family="Helvetica,sans-Serif" font-size="10.00">nix::Args</text>
</a>
</g>
</g>
<!-- Node4&#45;&gt;Node3 -->
<g id="edge3_Node000003_Node000004" class="edge">
<title>Node4&#45;&gt;Node3</title>
<g id="a_edge3_Node000003_Node000004"><a xlink:title=" ">
<path fill="none" stroke="#63b8ff" d="M70.53,-322.38C78.37,-322.38 86.61,-322.38 94.53,-322.38"/>
<polygon fill="#63b8ff" stroke="#63b8ff" points="70.56,-318.88 60.56,-322.38 70.56,-325.88 70.56,-318.88"/>
</a>
</g>
</g>
<!-- Node7 -->
<g id="Node000007" class="node">
<title>Node7</title>
<g id="a_Node000007"><a xlink:href="structnix_1_1CmdDevelop.html" target="_top" xlink:title=" ">
<polygon fill="white" stroke="#bfbfbf" points="771.38,-371.75 671.38,-371.75 671.38,-351 771.38,-351 771.38,-371.75"/>
<text text-anchor="middle" x="721.38" y="-358.25" font-family="Helvetica,sans-Serif" font-size="10.00">nix::CmdDevelop</text>
</a>
</g>
</g>
<!-- Node6&#45;&gt;Node7 -->
<g id="edge6_Node000006_Node000007" class="edge">
<title>Node6&#45;&gt;Node7</title>
<g id="a_edge6_Node000006_Node000007"><a xlink:title=" ">
<path fill="none" stroke="#63b8ff" d="M601.41,-334.08C624.21,-339.31 650.9,-345.44 673.22,-350.56"/>
<polygon fill="#63b8ff" stroke="#63b8ff" points="602.24,-330.68 591.71,-331.86 600.67,-337.5 602.24,-330.68"/>
</a>
</g>
</g>
<!-- Node8 -->
<g id="Node000008" class="node">
<title>Node8</title>
<g id="a_Node000008"><a xlink:href="structnix_1_1CmdPrintDevEnv.html" target="_top" xlink:title=" ">
<polygon fill="white" stroke="#bfbfbf" points="781.12,-332.75 661.62,-332.75 661.62,-312 781.12,-312 781.12,-332.75"/>
<text text-anchor="middle" x="721.38" y="-319.25" font-family="Helvetica,sans-Serif" font-size="10.00">nix::CmdPrintDevEnv</text>
</a>
</g>
</g>
<!-- Node6&#45;&gt;Node8 -->
<g id="edge7_Node000006_Node000008" class="edge">
<title>Node6&#45;&gt;Node8</title>
<g id="a_edge7_Node000006_Node000008"><a xlink:title=" ">
<path fill="none" stroke="#63b8ff" d="M601.59,-322.38C620.44,-322.38 641.95,-322.38 661.43,-322.38"/>
<polygon fill="#63b8ff" stroke="#63b8ff" points="601.75,-318.88 591.75,-322.38 601.75,-325.88 601.75,-318.88"/>
</a>
</g>
</g>
<!-- Node10 -->
<g id="Node000010" class="node">
<title>Node10</title>
<g id="a_Node000010"><a xlink:href="structnix_1_1CmdProfileDiffClosures.html" target="_top" xlink:title=" ">
<polygon fill="white" stroke="#bfbfbf" points="796.12,-293.75 646.62,-293.75 646.62,-273 796.12,-273 796.12,-293.75"/>
<text text-anchor="middle" x="721.38" y="-280.25" font-family="Helvetica,sans-Serif" font-size="10.00">nix::CmdProfileDiffClosures</text>
</a>
</g>
</g>
<!-- Node9&#45;&gt;Node10 -->
<g id="edge9_Node000009_Node000010" class="edge">
<title>Node9&#45;&gt;Node10</title>
<g id="a_edge9_Node000009_Node000010"><a xlink:title=" ">
<path fill="none" stroke="#63b8ff" d="M564.84,-186.38C581.87,-208.47 612.18,-243.53 646.25,-263.38 652.58,-267.06 659.62,-270.09 666.76,-272.57"/>
<polygon fill="#63b8ff" stroke="#63b8ff" points="567.7,-184.35 558.9,-178.45 562.1,-188.55 567.7,-184.35"/>
</a>
</g>
</g>
<!-- Node11 -->
<g id="Node000011" class="node">
<title>Node11</title>
<g id="a_Node000011"><a xlink:href="structnix_1_1CmdProfileHistory.html" target="_top" xlink:title=" ">
<polygon fill="white" stroke="#bfbfbf" points="784.12,-254.75 658.62,-254.75 658.62,-234 784.12,-234 784.12,-254.75"/>
<text text-anchor="middle" x="721.38" y="-241.25" font-family="Helvetica,sans-Serif" font-size="10.00">nix::CmdProfileHistory</text>
</a>
</g>
</g>
<!-- Node9&#45;&gt;Node11 -->
<g id="edge10_Node000009_Node000011" class="edge">
<title>Node9&#45;&gt;Node11</title>
<g id="a_edge10_Node000009_Node000011"><a xlink:title=" ">
<path fill="none" stroke="#63b8ff" d="M574.54,-183.62C593.34,-196.37 620.47,-213.36 646.25,-224.38 654.46,-227.88 663.45,-230.93 672.25,-233.51"/>
<polygon fill="#63b8ff" stroke="#63b8ff" points="576.73,-180.88 566.51,-178.07 572.75,-186.64 576.73,-180.88"/>
</a>
</g>
</g>
<!-- Node12 -->
<g id="Node000012" class="node">
<title>Node12</title>
<g id="a_Node000012"><a xlink:href="structnix_1_1CmdProfileInstall.html" target="_top" xlink:title=" ">
<polygon fill="white" stroke="#bfbfbf" points="781.5,-215.75 661.25,-215.75 661.25,-195 781.5,-195 781.5,-215.75"/>
<text text-anchor="middle" x="721.38" y="-202.25" font-family="Helvetica,sans-Serif" font-size="10.00">nix::CmdProfileInstall</text>
</a>
</g>
</g>
<!-- Node9&#45;&gt;Node12 -->
<g id="edge11_Node000009_Node000012" class="edge">
<title>Node9&#45;&gt;Node12</title>
<g id="a_edge11_Node000009_Node000012"><a xlink:title=" ">
<path fill="none" stroke="#63b8ff" d="M608.76,-179.77C629.72,-184.58 653.07,-189.93 672.98,-194.5"/>
<polygon fill="#63b8ff" stroke="#63b8ff" points="609.73,-176.4 599.2,-177.58 608.17,-183.22 609.73,-176.4"/>
</a>
</g>
</g>
<!-- Node13 -->
<g id="Node000013" class="node">
<title>Node13</title>
<g id="a_Node000013"><a xlink:href="structnix_1_1CmdProfileList.html" target="_top" xlink:title=" ">
<polygon fill="white" stroke="#bfbfbf" points="775.12,-176.75 667.62,-176.75 667.62,-156 775.12,-156 775.12,-176.75"/>
<text text-anchor="middle" x="721.38" y="-163.25" font-family="Helvetica,sans-Serif" font-size="10.00">nix::CmdProfileList</text>
</a>
</g>
</g>
<!-- Node9&#45;&gt;Node13 -->
<g id="edge12_Node000009_Node000013" class="edge">
<title>Node9&#45;&gt;Node13</title>
<g id="a_edge12_Node000009_Node000013"><a xlink:title=" ">
<path fill="none" stroke="#63b8ff" d="M621.79,-166.38C637.01,-166.38 652.82,-166.38 667.2,-166.38"/>
<polygon fill="#63b8ff" stroke="#63b8ff" points="621.82,-162.88 611.82,-166.38 621.82,-169.88 621.82,-162.88"/>
</a>
</g>
</g>
<!-- Node14 -->
<g id="Node000014" class="node">
<title>Node14</title>
<g id="a_Node000014"><a xlink:href="structnix_1_1CmdProfileRemove.html" target="_top" xlink:title=" ">
<polygon fill="white" stroke="#bfbfbf" points="786.75,-137.75 656,-137.75 656,-117 786.75,-117 786.75,-137.75"/>
<text text-anchor="middle" x="721.38" y="-124.25" font-family="Helvetica,sans-Serif" font-size="10.00">nix::CmdProfileRemove</text>
</a>
</g>
</g>
<!-- Node9&#45;&gt;Node14 -->
<g id="edge13_Node000009_Node000014" class="edge">
<title>Node9&#45;&gt;Node14</title>
<g id="a_edge13_Node000009_Node000014"><a xlink:title=" ">
<path fill="none" stroke="#63b8ff" d="M608.76,-152.98C629.72,-148.17 653.07,-142.82 672.98,-138.25"/>
<polygon fill="#63b8ff" stroke="#63b8ff" points="608.17,-149.53 599.2,-155.17 609.73,-156.35 608.17,-149.53"/>
</a>
</g>
</g>
<!-- Node15 -->
<g id="Node000015" class="node">
<title>Node15</title>
<g id="a_Node000015"><a xlink:href="structnix_1_1CmdProfileRollback.html" target="_top" xlink:title=" ">
<polygon fill="white" stroke="#bfbfbf" points="787.5,-98.75 655.25,-98.75 655.25,-78 787.5,-78 787.5,-98.75"/>
<text text-anchor="middle" x="721.38" y="-85.25" font-family="Helvetica,sans-Serif" font-size="10.00">nix::CmdProfileRollback</text>
</a>
</g>
</g>
<!-- Node9&#45;&gt;Node15 -->
<g id="edge14_Node000009_Node000015" class="edge">
<title>Node9&#45;&gt;Node15</title>
<g id="a_edge14_Node000009_Node000015"><a xlink:title=" ">
<path fill="none" stroke="#63b8ff" d="M574.54,-149.13C593.34,-136.38 620.47,-119.39 646.25,-108.38 654.46,-104.87 663.45,-101.82 672.25,-99.24"/>
<polygon fill="#63b8ff" stroke="#63b8ff" points="572.75,-146.11 566.51,-154.68 576.73,-151.87 572.75,-146.11"/>
</a>
</g>
</g>
<!-- Node16 -->
<g id="Node000016" class="node">
<title>Node16</title>
<g id="a_Node000016"><a xlink:href="structnix_1_1CmdProfileUpgrade.html" target="_top" xlink:title=" ">
<polygon fill="white" stroke="#bfbfbf" points="787.12,-59.75 655.62,-59.75 655.62,-39 787.12,-39 787.12,-59.75"/>
<text text-anchor="middle" x="721.38" y="-46.25" font-family="Helvetica,sans-Serif" font-size="10.00">nix::CmdProfileUpgrade</text>
</a>
</g>
</g>
<!-- Node9&#45;&gt;Node16 -->
<g id="edge15_Node000009_Node000016" class="edge">
<title>Node9&#45;&gt;Node16</title>
<g id="a_edge15_Node000009_Node000016"><a xlink:title=" ">
<path fill="none" stroke="#63b8ff" d="M564.84,-146.37C581.87,-124.28 612.18,-89.22 646.25,-69.38 652.58,-65.69 659.62,-62.66 666.76,-60.18"/>
<polygon fill="#63b8ff" stroke="#63b8ff" points="562.1,-144.2 558.9,-154.3 567.7,-148.4 562.1,-144.2"/>
</a>
</g>
</g>
<!-- Node17 -->
<g id="Node000017" class="node">
<title>Node17</title>
<g id="a_Node000017"><a xlink:href="structnix_1_1CmdProfileWipeHistory.html" target="_top" xlink:title=" ">
<polygon fill="white" stroke="#bfbfbf" points="796.5,-20.75 646.25,-20.75 646.25,0 796.5,0 796.5,-20.75"/>
<text text-anchor="middle" x="721.38" y="-7.25" font-family="Helvetica,sans-Serif" font-size="10.00">nix::CmdProfileWipeHistory</text>
</a>
</g>
</g>
<!-- Node9&#45;&gt;Node17 -->
<g id="edge16_Node000009_Node000017" class="edge">
<title>Node9&#45;&gt;Node17</title>
<g id="a_edge16_Node000009_Node000017"><a xlink:title=" ">
<path fill="none" stroke="#63b8ff" d="M559.44,-145.41C573.55,-115.3 603.63,-60.17 646.25,-30.38 651.6,-26.63 657.62,-23.59 663.86,-21.12"/>
<polygon fill="#63b8ff" stroke="#63b8ff" points="556.38,-143.69 555.45,-154.24 562.76,-146.57 556.38,-143.69"/>
</a>
</g>
</g>
</g>
</svg>
