<?xml version="1.0" encoding="UTF-8" standalone="no"?>
<!DOCTYPE svg PUBLIC "-//W3C//DTD SVG 1.1//EN"
 "http://www.w3.org/Graphics/SVG/1.1/DTD/svg11.dtd">
<!-- Generated by graphviz version 12.2.1 (0)
 -->
<!-- Title: nix::parseAsync::ReconstructVisitor::FileReader Pages: 1 -->
<svg width="258pt" height="193pt"
 viewBox="0.00 0.00 258.12 193.25" xmlns="http://www.w3.org/2000/svg" xmlns:xlink="http://www.w3.org/1999/xlink">
<g id="graph0" class="graph" transform="scale(1 1) rotate(0) translate(4 189.25)">
<title>nix::parseAsync::ReconstructVisitor::FileReader</title>
<!-- Node1 -->
<g id="Node000001" class="node">
<title>Node1</title>
<g id="a_Node000001"><a xlink:title=" ">
<polygon fill="#999999" stroke="#666666" points="177.38,-33.5 20.38,-33.5 20.38,0 177.38,0 177.38,-33.5"/>
<text text-anchor="start" x="28.38" y="-20" font-family="Helvetica,sans-Serif" font-size="10.00">nix::parseAsync::Reconstruct</text>
<text text-anchor="middle" x="98.88" y="-7.25" font-family="Helvetica,sans-Serif" font-size="10.00">Visitor::FileReader</text>
</a>
</g>
</g>
<!-- Node2 -->
<g id="Node000002" class="node">
<title>Node2</title>
<g id="a_Node000002"><a xlink:href="structnix_1_1NARParseVisitor_1_1FileHandle.html" target="_top" xlink:title=" ">
<polygon fill="white" stroke="#666666" points="115.75,-115.75 0,-115.75 0,-82.25 115.75,-82.25 115.75,-115.75"/>
<text text-anchor="start" x="8" y="-102.25" font-family="Helvetica,sans-Serif" font-size="10.00">nix::NARParseVisitor</text>
<text text-anchor="middle" x="57.88" y="-89.5" font-family="Helvetica,sans-Serif" font-size="10.00">::FileHandle</text>
</a>
</g>
</g>
<!-- Node2&#45;&gt;Node1 -->
<g id="edge1_Node000001_Node000002" class="edge">
<title>Node2&#45;&gt;Node1</title>
<g id="a_edge1_Node000001_Node000002"><a xlink:title=" ">
<path fill="none" stroke="#63b8ff" d="M71.41,-71.51C77.75,-59.1 85.09,-44.73 90.59,-33.97"/>
<polygon fill="#63b8ff" stroke="#63b8ff" points="68.29,-69.91 66.86,-80.41 74.53,-73.1 68.29,-69.91"/>
</a>
</g>
</g>
<!-- Node3 -->
<g id="Node000003" class="node">
<title>Node3</title>
<g id="a_Node000003"><a xlink:href="structnix_1_1parseAsync_1_1File.html" target="_top" xlink:title=" ">
<polygon fill="white" stroke="#bfbfbf" points="250.12,-109.38 133.62,-109.38 133.62,-88.62 250.12,-88.62 250.12,-109.38"/>
<text text-anchor="middle" x="191.88" y="-95.88" font-family="Helvetica,sans-Serif" font-size="10.00">nix::parseAsync::File</text>
</a>
</g>
</g>
<!-- Node3&#45;&gt;Node1 -->
<g id="edge2_Node000001_Node000003" class="edge">
<title>Node3&#45;&gt;Node1</title>
<g id="a_edge2_Node000001_Node000003"><a xlink:title=" ">
<path fill="none" stroke="#9a32cd" stroke-dasharray="5,2" d="M171.8,-80.68C155.67,-66.75 133.17,-47.34 117.44,-33.77"/>
<polygon fill="#9a32cd" stroke="#9a32cd" points="169.47,-83.29 179.33,-87.17 174.04,-77.99 169.47,-83.29"/>
</a>
</g>
<text text-anchor="middle" x="159.94" y="-54.75" font-family="Helvetica,sans-Serif" font-size="10.00" fill="grey"> file</text>
</g>
<!-- Node4 -->
<g id="Node000004" class="node">
<title>Node4</title>
<g id="a_Node000004"><a xlink:title=" ">
<polygon fill="white" stroke="#bfbfbf" points="213.75,-185.25 170,-185.25 170,-164.5 213.75,-164.5 213.75,-185.25"/>
<text text-anchor="middle" x="191.88" y="-171.75" font-family="Helvetica,sans-Serif" font-size="10.00">string</text>
</a>
</g>
</g>
<!-- Node4&#45;&gt;Node3 -->
<g id="edge3_Node000003_Node000004" class="edge">
<title>Node4&#45;&gt;Node3</title>
<g id="a_edge3_Node000003_Node000004"><a xlink:title=" ">
<path fill="none" stroke="#9a32cd" stroke-dasharray="5,2" d="M191.88,-152.95C191.88,-138.63 191.88,-120.33 191.88,-109.43"/>
<polygon fill="#9a32cd" stroke="#9a32cd" points="188.38,-152.7 191.88,-162.7 195.38,-152.7 188.38,-152.7"/>
</a>
</g>
<text text-anchor="middle" x="214.38" y="-137" font-family="Helvetica,sans-Serif" font-size="10.00" fill="grey"> contents</text>
</g>
</g>
</svg>
