<?xml version="1.0" encoding="UTF-8" standalone="no"?>
<!DOCTYPE svg PUBLIC "-//W3C//DTD SVG 1.1//EN"
 "http://www.w3.org/Graphics/SVG/1.1/DTD/svg11.dtd">
<!-- Generated by graphviz version 12.2.1 (0)
 -->
<!-- Title: nix::InitialOutputStatus Pages: 1 -->
<svg width="173pt" height="98pt"
 viewBox="0.00 0.00 172.50 98.25" xmlns="http://www.w3.org/2000/svg" xmlns:xlink="http://www.w3.org/1999/xlink">
<g id="graph0" class="graph" transform="scale(1 1) rotate(0) translate(4 94.25)">
<title>nix::InitialOutputStatus</title>
<!-- Node1 -->
<g id="Node000001" class="node">
<title>Node1</title>
<g id="a_Node000001"><a xlink:title=" ">
<polygon fill="#999999" stroke="#666666" points="128.5,-20.75 0,-20.75 0,0 128.5,0 128.5,-20.75"/>
<text text-anchor="middle" x="64.25" y="-7.25" font-family="Helvetica,sans-Serif" font-size="10.00">nix::InitialOutputStatus</text>
</a>
</g>
</g>
<!-- Node2 -->
<g id="Node000002" class="node">
<title>Node2</title>
<g id="a_Node000002"><a xlink:href="classnix_1_1StorePath.html" target="_top" xlink:title=" ">
<polygon fill="white" stroke="#666666" points="106,-90.25 22.5,-90.25 22.5,-69.5 106,-69.5 106,-90.25"/>
<text text-anchor="middle" x="64.25" y="-76.75" font-family="Helvetica,sans-Serif" font-size="10.00">nix::StorePath</text>
</a>
</g>
</g>
<!-- Node2&#45;&gt;Node1 -->
<g id="edge1_Node000001_Node000002" class="edge">
<title>Node2&#45;&gt;Node1</title>
<g id="a_edge1_Node000001_Node000002"><a xlink:title=" ">
<path fill="none" stroke="#9a32cd" stroke-dasharray="5,2" d="M64.25,-58.07C64.25,-45.72 64.25,-30.65 64.25,-21.03"/>
<polygon fill="#9a32cd" stroke="#9a32cd" points="60.75,-57.69 64.25,-67.69 67.75,-57.69 60.75,-57.69"/>
</a>
</g>
<text text-anchor="middle" x="76.62" y="-42" font-family="Helvetica,sans-Serif" font-size="10.00" fill="grey"> path</text>
</g>
<!-- Node2&#45;&gt;Node2 -->
<g id="edge2_Node000002_Node000002" class="edge">
<title>Node2&#45;&gt;Node2</title>
<g id="a_edge2_Node000002_Node000002"><a xlink:title=" ">
<path fill="none" stroke="#9a32cd" stroke-dasharray="5,2" d="M117.76,-84.68C121.63,-83.6 124,-81.99 124,-79.88 124,-76.11 116.51,-73.97 106.4,-73.47"/>
<polygon fill="#9a32cd" stroke="#9a32cd" points="117.32,-81.21 107.9,-86.07 118.29,-88.14 117.32,-81.21"/>
</a>
</g>
<text text-anchor="middle" x="144.25" y="-76.75" font-family="Helvetica,sans-Serif" font-size="10.00" fill="grey"> dummy</text>
</g>
</g>
</svg>
