<?xml version="1.0" encoding="UTF-8" standalone="no"?>
<!DOCTYPE svg PUBLIC "-//W3C//DTD SVG 1.1//EN"
 "http://www.w3.org/Graphics/SVG/1.1/DTD/svg11.dtd">
<!-- Generated by graphviz version 12.2.1 (0)
 -->
<!-- Title: nix::fetchers::Cache::LookupResult Pages: 1 -->
<svg width="165pt" height="111pt"
 viewBox="0.00 0.00 164.62 111.00" xmlns="http://www.w3.org/2000/svg" xmlns:xlink="http://www.w3.org/1999/xlink">
<g id="graph0" class="graph" transform="scale(1 1) rotate(0) translate(4 107)">
<title>nix::fetchers::Cache::LookupResult</title>
<!-- Node1 -->
<g id="Node000001" class="node">
<title>Node1</title>
<g id="a_Node000001"><a xlink:title=" ">
<polygon fill="#999999" stroke="#666666" points="112.75,-33.5 0,-33.5 0,0 112.75,0 112.75,-33.5"/>
<text text-anchor="start" x="8" y="-20" font-family="Helvetica,sans-Serif" font-size="10.00">nix::fetchers::Cache</text>
<text text-anchor="middle" x="56.38" y="-7.25" font-family="Helvetica,sans-Serif" font-size="10.00">::LookupResult</text>
</a>
</g>
</g>
<!-- Node2 -->
<g id="Node000002" class="node">
<title>Node2</title>
<g id="a_Node000002"><a xlink:href="classnix_1_1StorePath.html" target="_top" xlink:title=" ">
<polygon fill="white" stroke="#666666" points="98.12,-103 14.62,-103 14.62,-82.25 98.12,-82.25 98.12,-103"/>
<text text-anchor="middle" x="56.38" y="-89.5" font-family="Helvetica,sans-Serif" font-size="10.00">nix::StorePath</text>
</a>
</g>
</g>
<!-- Node2&#45;&gt;Node1 -->
<g id="edge1_Node000001_Node000002" class="edge">
<title>Node2&#45;&gt;Node1</title>
<g id="a_edge1_Node000001_Node000002"><a xlink:title=" ">
<path fill="none" stroke="#9a32cd" stroke-dasharray="5,2" d="M56.38,-70.63C56.38,-58.97 56.38,-44.69 56.38,-33.91"/>
<polygon fill="#9a32cd" stroke="#9a32cd" points="52.88,-70.45 56.38,-80.45 59.88,-70.45 52.88,-70.45"/>
</a>
</g>
<text text-anchor="middle" x="80.75" y="-54.75" font-family="Helvetica,sans-Serif" font-size="10.00" fill="grey"> storePath</text>
</g>
<!-- Node2&#45;&gt;Node2 -->
<g id="edge2_Node000002_Node000002" class="edge">
<title>Node2&#45;&gt;Node2</title>
<g id="a_edge2_Node000002_Node000002"><a xlink:title=" ">
<path fill="none" stroke="#9a32cd" stroke-dasharray="5,2" d="M109.88,-97.43C113.76,-96.35 116.12,-94.74 116.12,-92.62 116.12,-88.86 108.64,-86.72 98.53,-86.22"/>
<polygon fill="#9a32cd" stroke="#9a32cd" points="109.44,-93.96 100.03,-98.82 110.42,-100.89 109.44,-93.96"/>
</a>
</g>
<text text-anchor="middle" x="136.38" y="-89.5" font-family="Helvetica,sans-Serif" font-size="10.00" fill="grey"> dummy</text>
</g>
</g>
</svg>
