<?xml version="1.0" encoding="UTF-8" standalone="no"?>
<!DOCTYPE svg PUBLIC "-//W3C//DTD SVG 1.1//EN"
 "http://www.w3.org/Graphics/SVG/1.1/DTD/svg11.dtd">
<!-- Generated by graphviz version 12.2.1 (0)
 -->
<!-- Title: nix::StoreCommand Pages: 1 -->
<svg width="1266pt" height="878pt"
 viewBox="0.00 0.00 1266.25 877.75" xmlns="http://www.w3.org/2000/svg" xmlns:xlink="http://www.w3.org/1999/xlink">
<g id="graph0" class="graph" transform="scale(1 1) rotate(0) translate(4 873.75)">
<title>nix::StoreCommand</title>
<!-- Node1 -->
<g id="Node000001" class="node">
<title>Node1</title>
<g id="a_Node000001"><a xlink:title=" ">
<polygon fill="#999999" stroke="#666666" points="330.75,-480.75 218,-480.75 218,-460 330.75,-460 330.75,-480.75"/>
<text text-anchor="middle" x="274.38" y="-467.25" font-family="Helvetica,sans-Serif" font-size="10.00">nix::StoreCommand</text>
</a>
</g>
</g>
<!-- Node4 -->
<g id="Node000004" class="node">
<title>Node4</title>
<g id="a_Node000004"><a xlink:href="structnix_1_1CmdAddDerivation.html" target="_top" xlink:title=" ">
<polygon fill="white" stroke="#bfbfbf" points="505.75,-869.75 376.5,-869.75 376.5,-849 505.75,-849 505.75,-869.75"/>
<text text-anchor="middle" x="441.12" y="-856.25" font-family="Helvetica,sans-Serif" font-size="10.00">nix::CmdAddDerivation</text>
</a>
</g>
</g>
<!-- Node1&#45;&gt;Node4 -->
<g id="edge3_Node000001_Node000004" class="edge">
<title>Node1&#45;&gt;Node4</title>
<g id="a_edge3_Node000001_Node000004"><a xlink:title=" ">
<path fill="none" stroke="#63b8ff" d="M277.89,-492.22C286.53,-563.66 317.26,-788.72 366.75,-839.38 370.35,-843.06 374.55,-846.08 379.1,-848.57"/>
<polygon fill="#63b8ff" stroke="#63b8ff" points="281.4,-492.1 276.75,-482.58 274.45,-492.93 281.4,-492.1"/>
</a>
</g>
</g>
<!-- Node5 -->
<g id="Node000005" class="node">
<title>Node5</title>
<g id="a_Node000005"><a xlink:href="structnix_1_1CmdAddToStore.html" target="_top" xlink:title=" ">
<polygon fill="white" stroke="#bfbfbf" points="498.25,-830.75 384,-830.75 384,-810 498.25,-810 498.25,-830.75"/>
<text text-anchor="middle" x="441.12" y="-817.25" font-family="Helvetica,sans-Serif" font-size="10.00">nix::CmdAddToStore</text>
</a>
</g>
</g>
<!-- Node1&#45;&gt;Node5 -->
<g id="edge4_Node000001_Node000005" class="edge">
<title>Node1&#45;&gt;Node5</title>
<g id="a_edge4_Node000001_Node000005"><a xlink:title=" ">
<path fill="none" stroke="#63b8ff" d="M274.56,-492.23C273.61,-550.92 279.44,-713.41 366.75,-800.38 371.52,-805.13 377.3,-808.78 383.5,-811.58"/>
<polygon fill="#63b8ff" stroke="#63b8ff" points="278.05,-492.65 274.81,-482.57 271.05,-492.47 278.05,-492.65"/>
</a>
</g>
</g>
<!-- Node8 -->
<g id="Node000008" class="node">
<title>Node8</title>
<g id="a_Node000008"><a xlink:href="structnix_1_1CmdCatNar.html" target="_top" xlink:title=" ">
<polygon fill="white" stroke="#bfbfbf" points="487.75,-791.75 394.5,-791.75 394.5,-771 487.75,-771 487.75,-791.75"/>
<text text-anchor="middle" x="441.12" y="-778.25" font-family="Helvetica,sans-Serif" font-size="10.00">nix::CmdCatNar</text>
</a>
</g>
</g>
<!-- Node1&#45;&gt;Node8 -->
<g id="edge7_Node000001_Node000008" class="edge">
<title>Node1&#45;&gt;Node8</title>
<g id="a_edge7_Node000001_Node000008"><a xlink:title=" ">
<path fill="none" stroke="#63b8ff" d="M275.53,-492.51C277.15,-546.6 289.05,-686.58 366.75,-761.38 374.26,-768.61 384.13,-773.28 394.18,-776.29"/>
<polygon fill="#63b8ff" stroke="#63b8ff" points="279.03,-492.67 275.34,-482.74 272.03,-492.81 279.03,-492.67"/>
</a>
</g>
</g>
<!-- Node9 -->
<g id="Node000009" class="node">
<title>Node9</title>
<g id="a_Node000009"><a xlink:href="structnix_1_1CmdCatStore.html" target="_top" xlink:title=" ">
<polygon fill="white" stroke="#bfbfbf" points="491.88,-752.75 390.38,-752.75 390.38,-732 491.88,-732 491.88,-752.75"/>
<text text-anchor="middle" x="441.12" y="-739.25" font-family="Helvetica,sans-Serif" font-size="10.00">nix::CmdCatStore</text>
</a>
</g>
</g>
<!-- Node1&#45;&gt;Node9 -->
<g id="edge8_Node000001_Node000009" class="edge">
<title>Node1&#45;&gt;Node9</title>
<g id="a_edge8_Node000001_Node000009"><a xlink:title=" ">
<path fill="none" stroke="#63b8ff" d="M276.78,-492.47C281.09,-541.38 298.42,-659.41 366.75,-722.38 373.35,-728.46 381.62,-732.72 390.21,-735.7"/>
<polygon fill="#63b8ff" stroke="#63b8ff" points="280.27,-492.32 276.02,-482.61 273.29,-492.85 280.27,-492.32"/>
</a>
</g>
</g>
<!-- Node10 -->
<g id="Node000010" class="node">
<title>Node10</title>
<g id="a_Node000010"><a xlink:href="structnix_1_1CmdDaemon.html" target="_top" xlink:title=" ">
<polygon fill="white" stroke="#bfbfbf" points="491.5,-713.75 390.75,-713.75 390.75,-693 491.5,-693 491.5,-713.75"/>
<text text-anchor="middle" x="441.12" y="-700.25" font-family="Helvetica,sans-Serif" font-size="10.00">nix::CmdDaemon</text>
</a>
</g>
</g>
<!-- Node1&#45;&gt;Node10 -->
<g id="edge9_Node000001_Node000010" class="edge">
<title>Node1&#45;&gt;Node10</title>
<g id="a_edge9_Node000001_Node000010"><a xlink:title=" ">
<path fill="none" stroke="#63b8ff" d="M278.41,-492.27C285.57,-535.47 307.61,-631.94 366.75,-683.38 373.52,-689.27 381.88,-693.44 390.49,-696.39"/>
<polygon fill="#63b8ff" stroke="#63b8ff" points="281.9,-491.98 276.93,-482.63 274.98,-493.04 281.9,-491.98"/>
</a>
</g>
</g>
<!-- Node11 -->
<g id="Node000011" class="node">
<title>Node11</title>
<g id="a_Node000011"><a xlink:href="structnix_1_1CmdDoctor.html" target="_top" xlink:title=" ">
<polygon fill="white" stroke="#bfbfbf" points="487,-674.75 395.25,-674.75 395.25,-654 487,-654 487,-674.75"/>
<text text-anchor="middle" x="441.12" y="-661.25" font-family="Helvetica,sans-Serif" font-size="10.00">nix::CmdDoctor</text>
</a>
</g>
</g>
<!-- Node1&#45;&gt;Node11 -->
<g id="edge10_Node000001_Node000011" class="edge">
<title>Node1&#45;&gt;Node11</title>
<g id="a_edge10_Node000001_Node000011"><a xlink:title=" ">
<path fill="none" stroke="#63b8ff" d="M280.6,-491.79C290.72,-528.66 316.56,-604.06 366.75,-644.38 374.88,-650.91 384.98,-655.31 395.06,-658.28"/>
<polygon fill="#63b8ff" stroke="#63b8ff" points="284.04,-491.12 278.14,-482.33 277.27,-492.89 284.04,-491.12"/>
</a>
</g>
</g>
<!-- Node12 -->
<g id="Node000012" class="node">
<title>Node12</title>
<g id="a_Node000012"><a xlink:href="structnix_1_1CmdLsStore.html" target="_top" xlink:title=" ">
<polygon fill="white" stroke="#bfbfbf" points="488.88,-635.75 393.38,-635.75 393.38,-615 488.88,-615 488.88,-635.75"/>
<text text-anchor="middle" x="441.12" y="-622.25" font-family="Helvetica,sans-Serif" font-size="10.00">nix::CmdLsStore</text>
</a>
</g>
</g>
<!-- Node1&#45;&gt;Node12 -->
<g id="edge11_Node000001_Node000012" class="edge">
<title>Node1&#45;&gt;Node12</title>
<g id="a_edge11_Node000001_Node000012"><a xlink:title=" ">
<path fill="none" stroke="#63b8ff" d="M283.97,-491.56C297.22,-521.51 325.5,-575.87 366.75,-605.38 374.48,-610.91 383.67,-614.91 392.88,-617.8"/>
<polygon fill="#63b8ff" stroke="#63b8ff" points="287.22,-490.26 280.09,-482.43 280.78,-493 287.22,-490.26"/>
</a>
</g>
</g>
<!-- Node13 -->
<g id="Node000013" class="node">
<title>Node13</title>
<g id="a_Node000013"><a xlink:href="structnix_1_1CmdOptimiseStore.html" target="_top" xlink:title=" ">
<polygon fill="white" stroke="#bfbfbf" points="505.75,-596.75 376.5,-596.75 376.5,-576 505.75,-576 505.75,-596.75"/>
<text text-anchor="middle" x="441.12" y="-583.25" font-family="Helvetica,sans-Serif" font-size="10.00">nix::CmdOptimiseStore</text>
</a>
</g>
</g>
<!-- Node1&#45;&gt;Node13 -->
<g id="edge12_Node000001_Node000013" class="edge">
<title>Node1&#45;&gt;Node13</title>
<g id="a_edge12_Node000001_Node000013"><a xlink:title=" ">
<path fill="none" stroke="#63b8ff" d="M289.23,-490.47C305.35,-512.35 334,-546.83 366.75,-566.38 372.99,-570.1 379.93,-573.14 386.99,-575.63"/>
<polygon fill="#63b8ff" stroke="#63b8ff" points="292.09,-488.45 283.42,-482.36 286.4,-492.53 292.09,-488.45"/>
</a>
</g>
</g>
<!-- Node14 -->
<g id="Node000014" class="node">
<title>Node14</title>
<g id="a_Node000014"><a xlink:href="structnix_1_1CmdPathFromHashPart.html" target="_top" xlink:title=" ">
<polygon fill="white" stroke="#bfbfbf" points="515.5,-557.75 366.75,-557.75 366.75,-537 515.5,-537 515.5,-557.75"/>
<text text-anchor="middle" x="441.12" y="-544.25" font-family="Helvetica,sans-Serif" font-size="10.00">nix::CmdPathFromHashPart</text>
</a>
</g>
</g>
<!-- Node1&#45;&gt;Node14 -->
<g id="edge13_Node000001_Node000014" class="edge">
<title>Node1&#45;&gt;Node14</title>
<g id="a_edge13_Node000001_Node000014"><a xlink:title=" ">
<path fill="none" stroke="#63b8ff" d="M298.83,-487.69C316.69,-500.19 342.29,-516.69 366.75,-527.38 374.86,-530.92 383.75,-533.97 392.45,-536.56"/>
<polygon fill="#63b8ff" stroke="#63b8ff" points="300.93,-484.88 290.75,-481.92 296.86,-490.58 300.93,-484.88"/>
</a>
</g>
</g>
<!-- Node15 -->
<g id="Node000015" class="node">
<title>Node15</title>
<g id="a_Node000015"><a xlink:href="structnix_1_1CmdPingStore.html" target="_top" xlink:title=" ">
<polygon fill="white" stroke="#bfbfbf" points="494.12,-518.75 388.12,-518.75 388.12,-498 494.12,-498 494.12,-518.75"/>
<text text-anchor="middle" x="441.12" y="-505.25" font-family="Helvetica,sans-Serif" font-size="10.00">nix::CmdPingStore</text>
</a>
</g>
</g>
<!-- Node1&#45;&gt;Node15 -->
<g id="edge14_Node000001_Node000015" class="edge">
<title>Node1&#45;&gt;Node15</title>
<g id="a_edge14_Node000001_Node000015"><a xlink:title=" ">
<path fill="none" stroke="#63b8ff" d="M333.14,-483.7C352.8,-488.23 374.53,-493.25 393.24,-497.56"/>
<polygon fill="#63b8ff" stroke="#63b8ff" points="334.15,-480.34 323.62,-481.5 332.58,-487.16 334.15,-480.34"/>
</a>
</g>
</g>
<!-- Node16 -->
<g id="Node000016" class="node">
<title>Node16</title>
<g id="a_Node000016"><a xlink:href="structnix_1_1CmdProfileDiffClosures.html" target="_top" xlink:title=" ">
<polygon fill="white" stroke="#bfbfbf" points="912.38,-482.75 762.88,-482.75 762.88,-462 912.38,-462 912.38,-482.75"/>
<text text-anchor="middle" x="837.62" y="-469.25" font-family="Helvetica,sans-Serif" font-size="10.00">nix::CmdProfileDiffClosures</text>
</a>
</g>
</g>
<!-- Node1&#45;&gt;Node16 -->
<g id="edge15_Node000001_Node000016" class="edge">
<title>Node1&#45;&gt;Node16</title>
<g id="a_edge15_Node000001_Node000016"><a xlink:title=" ">
<path fill="none" stroke="#63b8ff" d="M342.71,-470.61C448.44,-470.99 652.66,-471.72 762.47,-472.11"/>
<polygon fill="#63b8ff" stroke="#63b8ff" points="342.77,-467.12 332.76,-470.58 342.74,-474.12 342.77,-467.12"/>
</a>
</g>
</g>
<!-- Node17 -->
<g id="Node000017" class="node">
<title>Node17</title>
<g id="a_Node000017"><a xlink:href="structnix_1_1CmdProfileHistory.html" target="_top" xlink:title=" ">
<polygon fill="white" stroke="#bfbfbf" points="900.38,-250.75 774.88,-250.75 774.88,-230 900.38,-230 900.38,-250.75"/>
<text text-anchor="middle" x="837.62" y="-237.25" font-family="Helvetica,sans-Serif" font-size="10.00">nix::CmdProfileHistory</text>
</a>
</g>
</g>
<!-- Node1&#45;&gt;Node17 -->
<g id="edge16_Node000001_Node000017" class="edge">
<title>Node1&#45;&gt;Node17</title>
<g id="a_edge16_Node000001_Node000017"><a xlink:title=" ">
<path fill="none" stroke="#63b8ff" d="M283.15,-449.01C295.66,-417.84 323.35,-360.45 366.75,-331.38 400.36,-308.86 654.76,-267.94 774.57,-249.64"/>
<polygon fill="#63b8ff" stroke="#63b8ff" points="279.96,-447.56 279.64,-458.15 286.49,-450.07 279.96,-447.56"/>
</a>
</g>
</g>
<!-- Node18 -->
<g id="Node000018" class="node">
<title>Node18</title>
<g id="a_Node000018"><a xlink:href="structnix_1_1CmdProfileList.html" target="_top" xlink:title=" ">
<polygon fill="white" stroke="#bfbfbf" points="891.38,-211.75 783.88,-211.75 783.88,-191 891.38,-191 891.38,-211.75"/>
<text text-anchor="middle" x="837.62" y="-198.25" font-family="Helvetica,sans-Serif" font-size="10.00">nix::CmdProfileList</text>
</a>
</g>
</g>
<!-- Node1&#45;&gt;Node18 -->
<g id="edge17_Node000001_Node000018" class="edge">
<title>Node1&#45;&gt;Node18</title>
<g id="a_edge17_Node000001_Node000018"><a xlink:title=" ">
<path fill="none" stroke="#63b8ff" d="M279.8,-448.49C288.85,-409.77 313.28,-329.54 366.75,-289.38 432.11,-240.28 675.13,-214.63 783.67,-205.42"/>
<polygon fill="#63b8ff" stroke="#63b8ff" points="276.39,-447.7 277.67,-458.22 283.23,-449.2 276.39,-447.7"/>
</a>
</g>
</g>
<!-- Node19 -->
<g id="Node000019" class="node">
<title>Node19</title>
<g id="a_Node000019"><a xlink:href="structnix_1_1CmdProfileRollback.html" target="_top" xlink:title=" ">
<polygon fill="white" stroke="#bfbfbf" points="903.75,-443.75 771.5,-443.75 771.5,-423 903.75,-423 903.75,-443.75"/>
<text text-anchor="middle" x="837.62" y="-430.25" font-family="Helvetica,sans-Serif" font-size="10.00">nix::CmdProfileRollback</text>
</a>
</g>
</g>
<!-- Node1&#45;&gt;Node19 -->
<g id="edge18_Node000001_Node000019" class="edge">
<title>Node1&#45;&gt;Node19</title>
<g id="a_edge18_Node000001_Node000019"><a xlink:title=" ">
<path fill="none" stroke="#63b8ff" d="M296.36,-452.47C313.89,-438.77 340.21,-420.97 366.75,-413.38 518.44,-369.94 708.87,-403.48 793.11,-422.53"/>
<polygon fill="#63b8ff" stroke="#63b8ff" points="294.33,-449.61 288.76,-458.62 298.73,-455.05 294.33,-449.61"/>
</a>
</g>
</g>
<!-- Node20 -->
<g id="Node000020" class="node">
<title>Node20</title>
<g id="a_Node000020"><a xlink:href="structnix_1_1CmdProfileWipeHistory.html" target="_top" xlink:title=" ">
<polygon fill="white" stroke="#bfbfbf" points="912.75,-328.75 762.5,-328.75 762.5,-308 912.75,-308 912.75,-328.75"/>
<text text-anchor="middle" x="837.62" y="-315.25" font-family="Helvetica,sans-Serif" font-size="10.00">nix::CmdProfileWipeHistory</text>
</a>
</g>
</g>
<!-- Node1&#45;&gt;Node20 -->
<g id="edge19_Node000001_Node000020" class="edge">
<title>Node1&#45;&gt;Node20</title>
<g id="a_edge19_Node000001_Node000020"><a xlink:title=" ">
<path fill="none" stroke="#63b8ff" d="M291.94,-451.02C308.93,-432.37 336.99,-404.65 366.75,-388.38 492.85,-319.43 664.98,-311.91 762.06,-314.14"/>
<polygon fill="#63b8ff" stroke="#63b8ff" points="289.36,-448.67 285.34,-458.47 294.59,-453.31 289.36,-448.67"/>
</a>
</g>
</g>
<!-- Node21 -->
<g id="Node000021" class="node">
<title>Node21</title>
<g id="a_Node000021"><a xlink:href="structnix_1_1CmdRegistryList.html" target="_top" xlink:title=" ">
<polygon fill="white" stroke="#bfbfbf" points="499.75,-176.75 382.5,-176.75 382.5,-156 499.75,-156 499.75,-176.75"/>
<text text-anchor="middle" x="441.12" y="-163.25" font-family="Helvetica,sans-Serif" font-size="10.00">nix::CmdRegistryList</text>
</a>
</g>
</g>
<!-- Node1&#45;&gt;Node21 -->
<g id="edge20_Node000001_Node000021" class="edge">
<title>Node1&#45;&gt;Node21</title>
<g id="a_edge20_Node000001_Node000021"><a xlink:title=" ">
<path fill="none" stroke="#63b8ff" d="M276.1,-448.28C279,-395.99 293.61,-263.56 366.75,-190.38 372.34,-184.78 379.25,-180.49 386.58,-177.2"/>
<polygon fill="#63b8ff" stroke="#63b8ff" points="272.6,-448.1 275.65,-458.25 279.59,-448.42 272.6,-448.1"/>
</a>
</g>
</g>
<!-- Node22 -->
<g id="Node000022" class="node">
<title>Node22</title>
<g id="a_Node000022"><a xlink:href="structnix_1_1CmdStoreGC.html" target="_top" xlink:title=" ">
<polygon fill="white" stroke="#bfbfbf" points="490.75,-137.75 391.5,-137.75 391.5,-117 490.75,-117 490.75,-137.75"/>
<text text-anchor="middle" x="441.12" y="-124.25" font-family="Helvetica,sans-Serif" font-size="10.00">nix::CmdStoreGC</text>
</a>
</g>
</g>
<!-- Node1&#45;&gt;Node22 -->
<g id="edge21_Node000001_Node000022" class="edge">
<title>Node1&#45;&gt;Node22</title>
<g id="a_edge21_Node000001_Node000022"><a xlink:title=" ">
<path fill="none" stroke="#63b8ff" d="M274.71,-448.22C274.24,-390.12 281.29,-232.02 366.75,-147.38 373.5,-140.69 382.26,-136.18 391.37,-133.15"/>
<polygon fill="#63b8ff" stroke="#63b8ff" points="271.21,-448.17 274.89,-458.1 278.21,-448.04 271.21,-448.17"/>
</a>
</g>
</g>
<!-- Node23 -->
<g id="Node000023" class="node">
<title>Node23</title>
<g id="a_Node000023"><a xlink:href="structnix_1_1CmdStorePrefetchFile.html" target="_top" xlink:title=" ">
<polygon fill="white" stroke="#bfbfbf" points="512.5,-98.75 369.75,-98.75 369.75,-78 512.5,-78 512.5,-98.75"/>
<text text-anchor="middle" x="441.12" y="-85.25" font-family="Helvetica,sans-Serif" font-size="10.00">nix::CmdStorePrefetchFile</text>
</a>
</g>
</g>
<!-- Node1&#45;&gt;Node23 -->
<g id="edge22_Node000001_Node000023" class="edge">
<title>Node1&#45;&gt;Node23</title>
<g id="a_edge22_Node000001_Node000023"><a xlink:title=" ">
<path fill="none" stroke="#63b8ff" d="M278.01,-448.48C286.92,-377.87 318.14,-157.91 366.75,-108.38 370.36,-104.7 374.57,-101.68 379.11,-99.2"/>
<polygon fill="#63b8ff" stroke="#63b8ff" points="274.58,-447.66 276.83,-458.01 281.53,-448.52 274.58,-447.66"/>
</a>
</g>
</g>
<!-- Node24 -->
<g id="Node000024" class="node">
<title>Node24</title>
<g id="a_Node000024"><a xlink:href="structnix_1_1CopyCommand.html" target="_top" xlink:title=" ">
<polygon fill="white" stroke="#666666" points="497.12,-59.75 385.12,-59.75 385.12,-39 497.12,-39 497.12,-59.75"/>
<text text-anchor="middle" x="441.12" y="-46.25" font-family="Helvetica,sans-Serif" font-size="10.00">nix::CopyCommand</text>
</a>
</g>
</g>
<!-- Node1&#45;&gt;Node24 -->
<g id="edge23_Node000001_Node000024" class="edge">
<title>Node1&#45;&gt;Node24</title>
<g id="a_edge23_Node000001_Node000024"><a xlink:title=" ">
<path fill="none" stroke="#63b8ff" d="M277.46,-448.15C285.02,-372.26 313.38,-125.04 366.75,-69.38 371.78,-64.13 378.03,-60.22 384.75,-57.31"/>
<polygon fill="#63b8ff" stroke="#63b8ff" points="273.99,-447.73 276.5,-458.02 280.95,-448.4 273.99,-447.73"/>
</a>
</g>
</g>
<!-- Node28 -->
<g id="Node000028" class="node">
<title>Node28</title>
<g id="a_Node000028"><a xlink:href="structnix_1_1EvalCommand.html" target="_top" xlink:title=" ">
<polygon fill="white" stroke="#666666" points="693.12,-191.75 584.88,-191.75 584.88,-171 693.12,-171 693.12,-191.75"/>
<text text-anchor="middle" x="639" y="-178.25" font-family="Helvetica,sans-Serif" font-size="10.00">nix::EvalCommand</text>
</a>
</g>
</g>
<!-- Node1&#45;&gt;Node28 -->
<g id="edge27_Node000001_Node000028" class="edge">
<title>Node1&#45;&gt;Node28</title>
<g id="a_edge27_Node000001_Node000028"><a xlink:title=" ">
<path fill="none" stroke="#63b8ff" d="M276.69,-448.34C280.82,-400.19 297.79,-285.36 366.75,-228.38 399.17,-201.58 515.22,-189.41 584.59,-184.43"/>
<polygon fill="#63b8ff" stroke="#63b8ff" points="273.22,-447.82 275.97,-458.05 280.2,-448.34 273.22,-447.82"/>
</a>
</g>
</g>
<!-- Node79 -->
<g id="Node000079" class="node">
<title>Node79</title>
<g id="a_Node000079"><a xlink:href="structnix_1_1MixProfile.html" target="_top" xlink:title=" ">
<polygon fill="white" stroke="#bfbfbf" points="484,-442.75 398.25,-442.75 398.25,-422 484,-422 484,-442.75"/>
<text text-anchor="middle" x="441.12" y="-429.25" font-family="Helvetica,sans-Serif" font-size="10.00">nix::MixProfile</text>
</a>
</g>
</g>
<!-- Node1&#45;&gt;Node79 -->
<g id="edge44_Node000001_Node000079" class="edge">
<title>Node1&#45;&gt;Node79</title>
<g id="a_edge44_Node000001_Node000079"><a xlink:title=" ">
<path fill="none" stroke="#63b8ff" d="M333.07,-457.07C354.45,-452.14 378.28,-446.64 398.02,-442.09"/>
<polygon fill="#63b8ff" stroke="#63b8ff" points="332.58,-453.59 323.62,-459.25 334.15,-460.41 332.58,-453.59"/>
</a>
</g>
</g>
<!-- Node2 -->
<g id="Node000002" class="node">
<title>Node2</title>
<g id="a_Node000002"><a xlink:href="structnix_1_1Command.html" target="_top" xlink:title=" ">
<polygon fill="white" stroke="#666666" points="182,-480.75 94.75,-480.75 94.75,-460 182,-460 182,-480.75"/>
<text text-anchor="middle" x="138.38" y="-467.25" font-family="Helvetica,sans-Serif" font-size="10.00">nix::Command</text>
</a>
</g>
</g>
<!-- Node2&#45;&gt;Node1 -->
<g id="edge1_Node000001_Node000002" class="edge">
<title>Node2&#45;&gt;Node1</title>
<g id="a_edge1_Node000001_Node000002"><a xlink:title=" ">
<path fill="none" stroke="#63b8ff" d="M193.59,-470.38C201.57,-470.38 209.79,-470.38 217.79,-470.38"/>
<polygon fill="#63b8ff" stroke="#63b8ff" points="193.66,-466.88 183.66,-470.38 193.66,-473.88 193.66,-466.88"/>
</a>
</g>
</g>
<!-- Node3 -->
<g id="Node000003" class="node">
<title>Node3</title>
<g id="a_Node000003"><a xlink:href="classnix_1_1Args.html" target="_top" xlink:title=" ">
<polygon fill="white" stroke="#bfbfbf" points="58.75,-480.75 0,-480.75 0,-460 58.75,-460 58.75,-480.75"/>
<text text-anchor="middle" x="29.38" y="-467.25" font-family="Helvetica,sans-Serif" font-size="10.00">nix::Args</text>
</a>
</g>
</g>
<!-- Node3&#45;&gt;Node2 -->
<g id="edge2_Node000002_Node000003" class="edge">
<title>Node3&#45;&gt;Node2</title>
<g id="a_edge2_Node000002_Node000003"><a xlink:title=" ">
<path fill="none" stroke="#63b8ff" d="M70.53,-470.38C78.37,-470.38 86.61,-470.38 94.53,-470.38"/>
<polygon fill="#63b8ff" stroke="#63b8ff" points="70.56,-466.88 60.56,-470.38 70.56,-473.88 70.56,-466.88"/>
</a>
</g>
</g>
<!-- Node6 -->
<g id="Node000006" class="node">
<title>Node6</title>
<g id="a_Node000006"><a xlink:href="structnix_1_1CmdAddFile.html" target="_top" xlink:title=" ">
<polygon fill="white" stroke="#bfbfbf" points="686.75,-849.75 591.25,-849.75 591.25,-829 686.75,-829 686.75,-849.75"/>
<text text-anchor="middle" x="639" y="-836.25" font-family="Helvetica,sans-Serif" font-size="10.00">nix::CmdAddFile</text>
</a>
</g>
</g>
<!-- Node5&#45;&gt;Node6 -->
<g id="edge5_Node000005_Node000006" class="edge">
<title>Node5&#45;&gt;Node6</title>
<g id="a_edge5_Node000005_Node000006"><a xlink:title=" ">
<path fill="none" stroke="#63b8ff" d="M509.75,-826.93C536.51,-829.53 566.61,-832.45 590.93,-834.81"/>
<polygon fill="#63b8ff" stroke="#63b8ff" points="510.32,-823.47 500.02,-825.99 509.64,-830.44 510.32,-823.47"/>
</a>
</g>
</g>
<!-- Node7 -->
<g id="Node000007" class="node">
<title>Node7</title>
<g id="a_Node000007"><a xlink:href="structnix_1_1CmdAddPath.html" target="_top" xlink:title=" ">
<polygon fill="white" stroke="#bfbfbf" points="688.62,-810.75 589.38,-810.75 589.38,-790 688.62,-790 688.62,-810.75"/>
<text text-anchor="middle" x="639" y="-797.25" font-family="Helvetica,sans-Serif" font-size="10.00">nix::CmdAddPath</text>
</a>
</g>
</g>
<!-- Node5&#45;&gt;Node7 -->
<g id="edge6_Node000005_Node000007" class="edge">
<title>Node5&#45;&gt;Node7</title>
<g id="a_edge6_Node000005_Node000007"><a xlink:title=" ">
<path fill="none" stroke="#63b8ff" d="M509.84,-813.46C535.86,-810.8 565.05,-807.82 588.98,-805.38"/>
<polygon fill="#63b8ff" stroke="#63b8ff" points="509.62,-809.97 500.02,-814.46 510.33,-816.93 509.62,-809.97"/>
</a>
</g>
</g>
<!-- Node25 -->
<g id="Node000025" class="node">
<title>Node25</title>
<g id="a_Node000025"><a xlink:href="structnix_1_1CmdCopy.html" target="_top" xlink:title=" ">
<polygon fill="white" stroke="orangered" points="681.12,-20.75 596.88,-20.75 596.88,0 681.12,0 681.12,-20.75"/>
<text text-anchor="middle" x="639" y="-7.25" font-family="Helvetica,sans-Serif" font-size="10.00">nix::CmdCopy</text>
</a>
</g>
</g>
<!-- Node24&#45;&gt;Node25 -->
<g id="edge24_Node000024_Node000025" class="edge">
<title>Node24&#45;&gt;Node25</title>
<g id="a_edge24_Node000024_Node000025"><a xlink:title=" ">
<path fill="none" stroke="#63b8ff" d="M507.68,-36.32C537,-30.48 570.69,-23.78 596.46,-18.65"/>
<polygon fill="#63b8ff" stroke="#63b8ff" points="507.3,-32.83 498.17,-38.22 508.66,-39.7 507.3,-32.83"/>
</a>
</g>
</g>
<!-- Node26 -->
<g id="Node000026" class="node">
<title>Node26</title>
<g id="a_Node000026"><a xlink:href="structnix_1_1CmdCopyLog.html" target="_top" xlink:title=" ">
<polygon fill="white" stroke="orangered" points="689.75,-98.75 588.25,-98.75 588.25,-78 689.75,-78 689.75,-98.75"/>
<text text-anchor="middle" x="639" y="-85.25" font-family="Helvetica,sans-Serif" font-size="10.00">nix::CmdCopyLog</text>
</a>
</g>
</g>
<!-- Node24&#45;&gt;Node26 -->
<g id="edge25_Node000024_Node000026" class="edge">
<title>Node24&#45;&gt;Node26</title>
<g id="a_edge25_Node000024_Node000026"><a xlink:title=" ">
<path fill="none" stroke="#63b8ff" d="M507.65,-62.42C533.78,-67.62 563.37,-73.52 587.76,-78.37"/>
<polygon fill="#63b8ff" stroke="#63b8ff" points="508.66,-59.05 498.17,-60.53 507.3,-65.92 508.66,-59.05"/>
</a>
</g>
</g>
<!-- Node27 -->
<g id="Node000027" class="node">
<title>Node27</title>
<g id="a_Node000027"><a xlink:href="structnix_1_1CmdMakeContentAddressed.html" target="_top" xlink:title=" ">
<polygon fill="white" stroke="orangered" points="726.5,-59.75 551.5,-59.75 551.5,-39 726.5,-39 726.5,-59.75"/>
<text text-anchor="middle" x="639" y="-46.25" font-family="Helvetica,sans-Serif" font-size="10.00">nix::CmdMakeContentAddressed</text>
</a>
</g>
</g>
<!-- Node24&#45;&gt;Node27 -->
<g id="edge26_Node000024_Node000027" class="edge">
<title>Node24&#45;&gt;Node27</title>
<g id="a_edge26_Node000024_Node000027"><a xlink:title=" ">
<path fill="none" stroke="#63b8ff" d="M508.73,-49.38C522.41,-49.38 537.02,-49.38 551.3,-49.38"/>
<polygon fill="#63b8ff" stroke="#63b8ff" points="508.98,-45.88 498.98,-49.38 508.98,-52.88 508.98,-45.88"/>
</a>
</g>
</g>
<!-- Node28&#45;&gt;Node17 -->
<g id="edge31_Node000028_Node000017" class="edge">
<title>Node28&#45;&gt;Node17</title>
<g id="a_edge31_Node000028_Node000017"><a xlink:title=" ">
<path fill="none" stroke="#63b8ff" d="M683.57,-195.77C706.91,-203.34 736.19,-212.64 762.5,-220.38 773.11,-223.49 784.64,-226.69 795.36,-229.59"/>
<polygon fill="#63b8ff" stroke="#63b8ff" points="684.67,-192.44 674.07,-192.67 682.5,-199.1 684.67,-192.44"/>
</a>
</g>
</g>
<!-- Node28&#45;&gt;Node18 -->
<g id="edge32_Node000028_Node000018" class="edge">
<title>Node28&#45;&gt;Node18</title>
<g id="a_edge32_Node000028_Node000018"><a xlink:title=" ">
<path fill="none" stroke="#63b8ff" d="M704.91,-187.98C730.4,-190.57 759.29,-193.51 783.51,-195.97"/>
<polygon fill="#63b8ff" stroke="#63b8ff" points="705.28,-184.5 694.97,-186.97 704.57,-191.46 705.28,-184.5"/>
</a>
</g>
</g>
<!-- Node29 -->
<g id="Node000029" class="node">
<title>Node29</title>
<g id="a_Node000029"><a xlink:href="structnix_1_1CmdFlakeInitCommon.html" target="_top" xlink:title=" ">
<polygon fill="white" stroke="#bfbfbf" points="910.5,-172.75 764.75,-172.75 764.75,-152 910.5,-152 910.5,-172.75"/>
<text text-anchor="middle" x="837.62" y="-159.25" font-family="Helvetica,sans-Serif" font-size="10.00">nix::CmdFlakeInitCommon</text>
</a>
</g>
</g>
<!-- Node28&#45;&gt;Node29 -->
<g id="edge28_Node000028_Node000029" class="edge">
<title>Node28&#45;&gt;Node29</title>
<g id="a_edge28_Node000028_Node000029"><a xlink:title=" ">
<path fill="none" stroke="#63b8ff" d="M704.76,-175.12C723.84,-173.27 744.83,-171.24 764.35,-169.36"/>
<polygon fill="#63b8ff" stroke="#63b8ff" points="704.59,-171.62 694.98,-176.06 705.27,-178.58 704.59,-171.62"/>
</a>
</g>
</g>
<!-- Node32 -->
<g id="Node000032" class="node">
<title>Node32</title>
<g id="a_Node000032"><a xlink:href="structnix_1_1CmdProfileRemove.html" target="_top" xlink:title=" ">
<polygon fill="white" stroke="#bfbfbf" points="903,-289.75 772.25,-289.75 772.25,-269 903,-269 903,-289.75"/>
<text text-anchor="middle" x="837.62" y="-276.25" font-family="Helvetica,sans-Serif" font-size="10.00">nix::CmdProfileRemove</text>
</a>
</g>
</g>
<!-- Node28&#45;&gt;Node32 -->
<g id="edge33_Node000028_Node000032" class="edge">
<title>Node28&#45;&gt;Node32</title>
<g id="a_edge33_Node000028_Node000032"><a xlink:title=" ">
<path fill="none" stroke="#63b8ff" d="M662.81,-198.91C686.56,-216.42 725.39,-243.01 762.5,-259.38 770.55,-262.92 779.38,-265.97 788.04,-268.54"/>
<polygon fill="#63b8ff" stroke="#63b8ff" points="665.22,-196.34 655.12,-193.15 661.02,-201.95 665.22,-196.34"/>
</a>
</g>
</g>
<!-- Node33 -->
<g id="Node000033" class="node">
<title>Node33</title>
<g id="a_Node000033"><a xlink:href="structnix_1_1CmdRegistryPin.html" target="_top" xlink:title=" ">
<polygon fill="white" stroke="#bfbfbf" points="895.12,-55.75 780.12,-55.75 780.12,-35 895.12,-35 895.12,-55.75"/>
<text text-anchor="middle" x="837.62" y="-42.25" font-family="Helvetica,sans-Serif" font-size="10.00">nix::CmdRegistryPin</text>
</a>
</g>
</g>
<!-- Node28&#45;&gt;Node33 -->
<g id="edge34_Node000028_Node000033" class="edge">
<title>Node28&#45;&gt;Node33</title>
<g id="a_edge34_Node000028_Node000033"><a xlink:title=" ">
<path fill="none" stroke="#63b8ff" d="M662.4,-163.81C680.37,-149.35 705.9,-127.95 726.5,-107.38 743.89,-90 741.71,-78.49 762.5,-65.38 768.36,-61.68 774.9,-58.66 781.6,-56.19"/>
<polygon fill="#63b8ff" stroke="#63b8ff" points="660.58,-160.79 654.94,-169.76 664.94,-166.26 660.58,-160.79"/>
</a>
</g>
</g>
<!-- Node34 -->
<g id="Node000034" class="node">
<title>Node34</title>
<g id="a_Node000034"><a xlink:href="structnix_1_1CmdUpgradeNix.html" target="_top" xlink:title=" ">
<polygon fill="white" stroke="#bfbfbf" points="896.25,-94.75 779,-94.75 779,-74 896.25,-74 896.25,-94.75"/>
<text text-anchor="middle" x="837.62" y="-81.25" font-family="Helvetica,sans-Serif" font-size="10.00">nix::CmdUpgradeNix</text>
</a>
</g>
</g>
<!-- Node28&#45;&gt;Node34 -->
<g id="edge35_Node000028_Node000034" class="edge">
<title>Node28&#45;&gt;Node34</title>
<g id="a_edge35_Node000028_Node000034"><a xlink:title=" ">
<path fill="none" stroke="#63b8ff" d="M663.17,-163.85C686.97,-146.57 725.65,-120.49 762.5,-104.38 770.56,-100.85 779.39,-97.81 788.06,-95.25"/>
<polygon fill="#63b8ff" stroke="#63b8ff" points="661.12,-161.01 655.15,-169.76 665.27,-166.64 661.12,-161.01"/>
</a>
</g>
</g>
<!-- Node35 -->
<g id="Node000035" class="node">
<title>Node35</title>
<g id="a_Node000035"><a xlink:href="structnix_1_1MixFlakeOptions.html" target="_top" xlink:title=" ">
<polygon fill="white" stroke="#666666" points="897,-133.75 778.25,-133.75 778.25,-113 897,-113 897,-133.75"/>
<text text-anchor="middle" x="837.62" y="-120.25" font-family="Helvetica,sans-Serif" font-size="10.00">nix::MixFlakeOptions</text>
</a>
</g>
</g>
<!-- Node28&#45;&gt;Node35 -->
<g id="edge36_Node000028_Node000035" class="edge">
<title>Node28&#45;&gt;Node35</title>
<g id="a_edge36_Node000028_Node000035"><a xlink:title=" ">
<path fill="none" stroke="#63b8ff" d="M684.58,-167.11C707.76,-159.8 736.59,-150.89 762.5,-143.38 773.13,-140.29 784.65,-137.11 795.38,-134.21"/>
<polygon fill="#63b8ff" stroke="#63b8ff" points="683.62,-163.74 675.14,-170.1 685.73,-170.42 683.62,-163.74"/>
</a>
</g>
</g>
<!-- Node30 -->
<g id="Node000030" class="node">
<title>Node30</title>
<g id="a_Node000030"><a xlink:href="structnix_1_1CmdFlakeInit.html" target="_top" xlink:title=" ">
<polygon fill="white" stroke="#bfbfbf" points="1070.5,-172.75 969,-172.75 969,-152 1070.5,-152 1070.5,-172.75"/>
<text text-anchor="middle" x="1019.75" y="-159.25" font-family="Helvetica,sans-Serif" font-size="10.00">nix::CmdFlakeInit</text>
</a>
</g>
</g>
<!-- Node29&#45;&gt;Node30 -->
<g id="edge29_Node000029_Node000030" class="edge">
<title>Node29&#45;&gt;Node30</title>
<g id="a_edge29_Node000029_Node000030"><a xlink:title=" ">
<path fill="none" stroke="#63b8ff" d="M922.31,-162.38C938.15,-162.38 954.25,-162.38 968.65,-162.38"/>
<polygon fill="#63b8ff" stroke="#63b8ff" points="922.36,-158.88 912.36,-162.38 922.36,-165.88 922.36,-158.88"/>
</a>
</g>
</g>
<!-- Node31 -->
<g id="Node000031" class="node">
<title>Node31</title>
<g id="a_Node000031"><a xlink:href="structnix_1_1CmdFlakeNew.html" target="_top" xlink:title=" ">
<polygon fill="white" stroke="#bfbfbf" points="1073.5,-211.75 966,-211.75 966,-191 1073.5,-191 1073.5,-211.75"/>
<text text-anchor="middle" x="1019.75" y="-198.25" font-family="Helvetica,sans-Serif" font-size="10.00">nix::CmdFlakeNew</text>
</a>
</g>
</g>
<!-- Node29&#45;&gt;Node31 -->
<g id="edge30_Node000029_Node000031" class="edge">
<title>Node29&#45;&gt;Node31</title>
<g id="a_edge30_Node000029_Node000031"><a xlink:title=" ">
<path fill="none" stroke="#63b8ff" d="M899.88,-175.64C922.24,-180.48 947.24,-185.89 968.53,-190.5"/>
<polygon fill="#63b8ff" stroke="#63b8ff" points="900.79,-172.25 890.28,-173.56 899.31,-179.1 900.79,-172.25"/>
</a>
</g>
</g>
<!-- Node36 -->
<g id="Node000036" class="node">
<title>Node36</title>
<g id="a_Node000036"><a xlink:href="classnix_1_1FlakeCommand.html" target="_top" xlink:title=" ">
<polygon fill="white" stroke="orangered" points="1076.5,-94.75 963,-94.75 963,-74 1076.5,-74 1076.5,-94.75"/>
<text text-anchor="middle" x="1019.75" y="-81.25" font-family="Helvetica,sans-Serif" font-size="10.00">nix::FlakeCommand</text>
</a>
</g>
</g>
<!-- Node35&#45;&gt;Node36 -->
<g id="edge37_Node000035_Node000036" class="edge">
<title>Node35&#45;&gt;Node36</title>
<g id="a_edge37_Node000035_Node000036"><a xlink:title=" ">
<path fill="none" stroke="#63b8ff" d="M899.88,-110.11C922.24,-105.27 947.24,-99.86 968.53,-95.25"/>
<polygon fill="#63b8ff" stroke="#63b8ff" points="899.31,-106.65 890.28,-112.19 900.79,-113.5 899.31,-106.65"/>
</a>
</g>
</g>
<!-- Node46 -->
<g id="Node000046" class="node">
<title>Node46</title>
<g id="a_Node000046"><a xlink:href="structnix_1_1SourceExprCommand.html" target="_top" xlink:title=" ">
<polygon fill="white" stroke="orangered" points="1090.75,-133.75 948.75,-133.75 948.75,-113 1090.75,-113 1090.75,-133.75"/>
<text text-anchor="middle" x="1019.75" y="-120.25" font-family="Helvetica,sans-Serif" font-size="10.00">nix::SourceExprCommand</text>
</a>
</g>
</g>
<!-- Node35&#45;&gt;Node46 -->
<g id="edge42_Node000035_Node000046" class="edge">
<title>Node35&#45;&gt;Node46</title>
<g id="a_edge42_Node000035_Node000046"><a xlink:title=" ">
<path fill="none" stroke="#63b8ff" d="M908.42,-123.38C921.51,-123.38 935.2,-123.38 948.31,-123.38"/>
<polygon fill="#63b8ff" stroke="#63b8ff" points="908.62,-119.88 898.62,-123.38 908.62,-126.88 908.62,-119.88"/>
</a>
</g>
</g>
<!-- Node37 -->
<g id="Node000037" class="node">
<title>Node37</title>
<g id="a_Node000037"><a xlink:href="structnix_1_1CmdFlakeArchive.html" target="_top" xlink:title=" ">
<polygon fill="white" stroke="#bfbfbf" points="1253.75,-114.75 1131.25,-114.75 1131.25,-94 1253.75,-94 1253.75,-114.75"/>
<text text-anchor="middle" x="1192.5" y="-101.25" font-family="Helvetica,sans-Serif" font-size="10.00">nix::CmdFlakeArchive</text>
</a>
</g>
</g>
<!-- Node36&#45;&gt;Node37 -->
<g id="edge38_Node000036_Node000037" class="edge">
<title>Node36&#45;&gt;Node37</title>
<g id="a_edge38_Node000036_Node000037"><a xlink:title=" ">
<path fill="none" stroke="#63b8ff" d="M1087.83,-92.23C1101.99,-93.89 1116.85,-95.63 1130.75,-97.26"/>
<polygon fill="#63b8ff" stroke="#63b8ff" points="1088.5,-88.79 1078.16,-91.1 1087.69,-95.74 1088.5,-88.79"/>
</a>
</g>
</g>
<!-- Node38 -->
<g id="Node000038" class="node">
<title>Node38</title>
<g id="a_Node000038"><a xlink:href="structnix_1_1CmdFlakeCheck.html" target="_top" xlink:title=" ">
<polygon fill="white" stroke="#bfbfbf" points="1250.38,-75.75 1134.62,-75.75 1134.62,-55 1250.38,-55 1250.38,-75.75"/>
<text text-anchor="middle" x="1192.5" y="-62.25" font-family="Helvetica,sans-Serif" font-size="10.00">nix::CmdFlakeCheck</text>
</a>
</g>
</g>
<!-- Node36&#45;&gt;Node38 -->
<g id="edge39_Node000036_Node000038" class="edge">
<title>Node36&#45;&gt;Node38</title>
<g id="a_edge39_Node000036_Node000038"><a xlink:title=" ">
<path fill="none" stroke="#63b8ff" d="M1087.7,-76.93C1103.1,-75.21 1119.35,-73.4 1134.29,-71.74"/>
<polygon fill="#63b8ff" stroke="#63b8ff" points="1087.72,-73.4 1078.16,-77.99 1088.49,-80.36 1087.72,-73.4"/>
</a>
</g>
</g>
<!-- Node39 -->
<g id="Node000039" class="node">
<title>Node39</title>
<g id="a_Node000039"><a xlink:href="structnix_1_1CmdFlakeClone.html" target="_top" xlink:title=" ">
<polygon fill="white" stroke="#bfbfbf" points="1249.25,-36.75 1135.75,-36.75 1135.75,-16 1249.25,-16 1249.25,-36.75"/>
<text text-anchor="middle" x="1192.5" y="-23.25" font-family="Helvetica,sans-Serif" font-size="10.00">nix::CmdFlakeClone</text>
</a>
</g>
</g>
<!-- Node36&#45;&gt;Node39 -->
<g id="edge40_Node000036_Node000039" class="edge">
<title>Node36&#45;&gt;Node39</title>
<g id="a_edge40_Node000036_Node000039"><a xlink:title=" ">
<path fill="none" stroke="#63b8ff" d="M1060.66,-69.59C1080.46,-62.38 1104.79,-53.7 1126.75,-46.38 1136.01,-43.29 1146.08,-40.1 1155.45,-37.2"/>
<polygon fill="#63b8ff" stroke="#63b8ff" points="1059.48,-66.3 1051.29,-73.02 1061.89,-72.87 1059.48,-66.3"/>
</a>
</g>
</g>
<!-- Node40 -->
<g id="Node000040" class="node">
<title>Node40</title>
<g id="a_Node000040"><a xlink:href="structnix_1_1CmdFlakeLock.html" target="_top" xlink:title=" ">
<polygon fill="white" stroke="#bfbfbf" points="1246.62,-153.75 1138.38,-153.75 1138.38,-133 1246.62,-133 1246.62,-153.75"/>
<text text-anchor="middle" x="1192.5" y="-140.25" font-family="Helvetica,sans-Serif" font-size="10.00">nix::CmdFlakeLock</text>
</a>
</g>
</g>
<!-- Node36&#45;&gt;Node40 -->
<g id="edge41_Node000036_Node000040" class="edge">
<title>Node36&#45;&gt;Node40</title>
<g id="a_edge41_Node000036_Node000040"><a xlink:title=" ">
<path fill="none" stroke="#63b8ff" d="M1074.46,-98.48C1080.02,-100.31 1085.53,-102.28 1090.75,-104.38 1107.54,-111.12 1110.03,-116.45 1126.75,-123.38 1134.9,-126.75 1143.84,-129.87 1152.39,-132.58"/>
<polygon fill="#63b8ff" stroke="#63b8ff" points="1075.83,-95.24 1065.24,-95.6 1073.74,-101.92 1075.83,-95.24"/>
</a>
</g>
</g>
<!-- Node49 -->
<g id="Node000049" class="node">
<title>Node49</title>
<g id="a_Node000049"><a xlink:href="structnix_1_1CmdProfileUpgrade.html" target="_top" xlink:title=" ">
<polygon fill="white" stroke="#bfbfbf" points="1258.25,-279.75 1126.75,-279.75 1126.75,-259 1258.25,-259 1258.25,-279.75"/>
<text text-anchor="middle" x="1192.5" y="-266.25" font-family="Helvetica,sans-Serif" font-size="10.00">nix::CmdProfileUpgrade</text>
</a>
</g>
</g>
<!-- Node46&#45;&gt;Node49 -->
<g id="edge43_Node000046_Node000049" class="edge">
<title>Node46&#45;&gt;Node49</title>
<g id="a_edge43_Node000046_Node000049"><a xlink:title=" ">
<path fill="none" stroke="#63b8ff" d="M1082.79,-138.74C1085.55,-140.15 1088.22,-141.69 1090.75,-143.38 1137.61,-174.57 1173,-234.45 1186.04,-258.75"/>
<polygon fill="#63b8ff" stroke="#63b8ff" points="1084.42,-135.63 1073.86,-134.77 1081.58,-142.03 1084.42,-135.63"/>
</a>
</g>
</g>
<!-- Node75 -->
<g id="Node000075" class="node">
<title>Node75</title>
<g id="a_Node000075"><a xlink:href="structnix_1_1CmdBuild.html" target="_top" xlink:title=" ">
<polygon fill="white" stroke="orangered" points="681.12,-442.75 596.88,-442.75 596.88,-422 681.12,-422 681.12,-442.75"/>
<text text-anchor="middle" x="639" y="-429.25" font-family="Helvetica,sans-Serif" font-size="10.00">nix::CmdBuild</text>
</a>
</g>
</g>
<!-- Node79&#45;&gt;Node75 -->
<g id="edge45_Node000079_Node000075" class="edge">
<title>Node79&#45;&gt;Node75</title>
<g id="a_edge45_Node000079_Node000075"><a xlink:title=" ">
<path fill="none" stroke="#63b8ff" d="M495.45,-432.38C527.22,-432.38 566.95,-432.38 596.39,-432.38"/>
<polygon fill="#63b8ff" stroke="#63b8ff" points="495.66,-428.88 485.66,-432.38 495.66,-435.88 495.66,-428.88"/>
</a>
</g>
</g>
<!-- Node58 -->
<g id="Node000058" class="node">
<title>Node58</title>
<g id="a_Node000058"><a xlink:href="structnix_1_1Common.html" target="_top" xlink:title=" ">
<polygon fill="white" stroke="orangered" points="679.62,-521.75 598.38,-521.75 598.38,-501 679.62,-501 679.62,-521.75"/>
<text text-anchor="middle" x="639" y="-508.25" font-family="Helvetica,sans-Serif" font-size="10.00">nix::Common</text>
</a>
</g>
</g>
<!-- Node79&#45;&gt;Node58 -->
<g id="edge46_Node000079_Node000058" class="edge">
<title>Node79&#45;&gt;Node58</title>
<g id="a_edge46_Node000079_Node000058"><a xlink:title=" ">
<path fill="none" stroke="#63b8ff" d="M479.22,-447.34C517.72,-462.86 577,-486.77 611.19,-500.56"/>
<polygon fill="#63b8ff" stroke="#63b8ff" points="480.94,-444.25 470.35,-443.76 478.32,-450.75 480.94,-444.25"/>
</a>
</g>
</g>
<!-- Node80 -->
<g id="Node000080" class="node">
<title>Node80</title>
<g id="a_Node000080"><a xlink:href="structnix_1_1MixDefaultProfile.html" target="_top" xlink:title=" ">
<polygon fill="white" stroke="#bfbfbf" points="699.88,-366.75 578.12,-366.75 578.12,-346 699.88,-346 699.88,-366.75"/>
<text text-anchor="middle" x="639" y="-353.25" font-family="Helvetica,sans-Serif" font-size="10.00">nix::MixDefaultProfile</text>
</a>
</g>
</g>
<!-- Node79&#45;&gt;Node80 -->
<g id="edge49_Node000079_Node000080" class="edge">
<title>Node79&#45;&gt;Node80</title>
<g id="a_edge49_Node000079_Node000080"><a xlink:title=" ">
<path fill="none" stroke="#63b8ff" d="M480.46,-417.5C518.6,-402.7 576.21,-380.35 610.18,-367.17"/>
<polygon fill="#63b8ff" stroke="#63b8ff" points="479.24,-414.22 471.18,-421.1 481.77,-420.75 479.24,-414.22"/>
</a>
</g>
</g>
<!-- Node59 -->
<g id="Node000059" class="node">
<title>Node59</title>
<g id="a_Node000059"><a xlink:href="structnix_1_1CmdDevelop.html" target="_top" xlink:title=" ">
<polygon fill="white" stroke="#bfbfbf" points="887.62,-521.75 787.62,-521.75 787.62,-501 887.62,-501 887.62,-521.75"/>
<text text-anchor="middle" x="837.62" y="-508.25" font-family="Helvetica,sans-Serif" font-size="10.00">nix::CmdDevelop</text>
</a>
</g>
</g>
<!-- Node58&#45;&gt;Node59 -->
<g id="edge47_Node000058_Node000059" class="edge">
<title>Node58&#45;&gt;Node59</title>
<g id="a_edge47_Node000058_Node000059"><a xlink:title=" ">
<path fill="none" stroke="#63b8ff" d="M691.19,-511.38C720.9,-511.38 758.13,-511.38 787.48,-511.38"/>
<polygon fill="#63b8ff" stroke="#63b8ff" points="691.3,-507.88 681.3,-511.38 691.3,-514.88 691.3,-507.88"/>
</a>
</g>
</g>
<!-- Node60 -->
<g id="Node000060" class="node">
<title>Node60</title>
<g id="a_Node000060"><a xlink:href="structnix_1_1CmdPrintDevEnv.html" target="_top" xlink:title=" ">
<polygon fill="white" stroke="#bfbfbf" points="897.38,-560.75 777.88,-560.75 777.88,-540 897.38,-540 897.38,-560.75"/>
<text text-anchor="middle" x="837.62" y="-547.25" font-family="Helvetica,sans-Serif" font-size="10.00">nix::CmdPrintDevEnv</text>
</a>
</g>
</g>
<!-- Node58&#45;&gt;Node60 -->
<g id="edge48_Node000058_Node000060" class="edge">
<title>Node58&#45;&gt;Node60</title>
<g id="a_edge48_Node000058_Node000060"><a xlink:title=" ">
<path fill="none" stroke="#63b8ff" d="M690.92,-521.47C718.85,-527.02 753.5,-533.89 781.99,-539.54"/>
<polygon fill="#63b8ff" stroke="#63b8ff" points="691.76,-518.07 681.27,-519.56 690.4,-524.94 691.76,-518.07"/>
</a>
</g>
</g>
<!-- Node80&#45;&gt;Node16 -->
<g id="edge50_Node000080_Node000016" class="edge">
<title>Node80&#45;&gt;Node16</title>
<g id="a_edge50_Node000080_Node000016"><a xlink:title=" ">
<path fill="none" stroke="#63b8ff" d="M668.79,-372.91C686.23,-383.5 708.51,-398.1 726.5,-413.38 744.48,-428.64 742.32,-440.16 762.5,-452.38 768.66,-456.1 775.51,-459.15 782.5,-461.63"/>
<polygon fill="#63b8ff" stroke="#63b8ff" points="670.83,-370.05 660.45,-367.93 667.24,-376.06 670.83,-370.05"/>
</a>
</g>
</g>
<!-- Node80&#45;&gt;Node17 -->
<g id="edge51_Node000080_Node000017" class="edge">
<title>Node80&#45;&gt;Node17</title>
<g id="a_edge51_Node000080_Node000017"><a xlink:title=" ">
<path fill="none" stroke="#63b8ff" d="M665.51,-339.44C683.1,-327.43 706.77,-310.64 726.5,-294.38 743.48,-280.38 743.29,-271.12 762.5,-260.38 769.01,-256.73 776.22,-253.72 783.52,-251.25"/>
<polygon fill="#63b8ff" stroke="#63b8ff" points="664,-336.23 657.68,-344.73 667.92,-342.03 664,-336.23"/>
</a>
</g>
</g>
<!-- Node80&#45;&gt;Node18 -->
<g id="edge53_Node000080_Node000018" class="edge">
<title>Node80&#45;&gt;Node18</title>
<g id="a_edge53_Node000080_Node000018"><a xlink:title=" ">
<path fill="none" stroke="#63b8ff" d="M656.34,-337.19C686.61,-301.86 749.49,-229.33 762.5,-221.38 768.98,-217.41 776.25,-214.22 783.64,-211.66"/>
<polygon fill="#63b8ff" stroke="#63b8ff" points="653.89,-334.68 650.05,-344.55 659.21,-339.23 653.89,-334.68"/>
</a>
</g>
</g>
<!-- Node80&#45;&gt;Node19 -->
<g id="edge55_Node000080_Node000019" class="edge">
<title>Node80&#45;&gt;Node19</title>
<g id="a_edge55_Node000080_Node000019"><a xlink:title=" ">
<path fill="none" stroke="#63b8ff" d="M705.09,-370.8C712.52,-373.5 719.82,-376.67 726.5,-380.38 745.48,-390.9 743.48,-402.92 762.5,-413.38 769.16,-417.04 776.53,-420.06 783.96,-422.54"/>
<polygon fill="#63b8ff" stroke="#63b8ff" points="706.19,-367.48 695.59,-367.65 703.98,-374.12 706.19,-367.48"/>
</a>
</g>
</g>
<!-- Node80&#45;&gt;Node20 -->
<g id="edge57_Node000080_Node000020" class="edge">
<title>Node80&#45;&gt;Node20</title>
<g id="a_edge57_Node000080_Node000020"><a xlink:title=" ">
<path fill="none" stroke="#63b8ff" d="M707.19,-343.39C731.04,-338.78 757.63,-333.64 780.47,-329.23"/>
<polygon fill="#63b8ff" stroke="#63b8ff" points="706.72,-339.92 697.57,-345.25 708.05,-346.79 706.72,-339.92"/>
</a>
</g>
</g>
<!-- Node80&#45;&gt;Node32 -->
<g id="edge54_Node000080_Node000032" class="edge">
<title>Node80&#45;&gt;Node32</title>
<g id="a_edge54_Node000080_Node000032"><a xlink:title=" ">
<path fill="none" stroke="#63b8ff" d="M670.42,-340.43C694.84,-328.07 730.25,-311.13 762.5,-299.38 771.77,-296 781.87,-292.9 791.55,-290.21"/>
<polygon fill="#63b8ff" stroke="#63b8ff" points="669,-337.22 661.7,-344.89 672.19,-343.46 669,-337.22"/>
</a>
</g>
</g>
<!-- Node80&#45;&gt;Node49 -->
<g id="edge56_Node000080_Node000049" class="edge">
<title>Node80&#45;&gt;Node49</title>
<g id="a_edge56_Node000080_Node000049"><a xlink:title=" ">
<path fill="none" stroke="#63b8ff" d="M711.61,-354.7C766.84,-352.62 844.99,-347.92 912.75,-337.38 1001.35,-323.58 1103.16,-295.57 1155.81,-280.15"/>
<polygon fill="#63b8ff" stroke="#63b8ff" points="711.57,-351.2 701.7,-355.06 711.82,-358.2 711.57,-351.2"/>
</a>
</g>
</g>
<!-- Node76 -->
<g id="Node000076" class="node">
<title>Node76</title>
<g id="a_Node000076"><a xlink:href="structnix_1_1CmdProfileInstall.html" target="_top" xlink:title=" ">
<polygon fill="white" stroke="orangered" points="897.75,-404.75 777.5,-404.75 777.5,-384 897.75,-384 897.75,-404.75"/>
<text text-anchor="middle" x="837.62" y="-391.25" font-family="Helvetica,sans-Serif" font-size="10.00">nix::CmdProfileInstall</text>
</a>
</g>
</g>
<!-- Node80&#45;&gt;Node76 -->
<g id="edge52_Node000080_Node000076" class="edge">
<title>Node80&#45;&gt;Node76</title>
<g id="a_edge52_Node000080_Node000076"><a xlink:title=" ">
<path fill="none" stroke="#63b8ff" d="M707.19,-369.36C731.04,-373.97 757.63,-379.11 780.47,-383.52"/>
<polygon fill="#63b8ff" stroke="#63b8ff" points="708.05,-365.96 697.57,-367.5 706.72,-372.83 708.05,-365.96"/>
</a>
</g>
</g>
</g>
</svg>
