<?xml version="1.0" encoding="UTF-8" standalone="no"?>
<!DOCTYPE svg PUBLIC "-//W3C//DTD SVG 1.1//EN"
 "http://www.w3.org/Graphics/SVG/1.1/DTD/svg11.dtd">
<!-- Generated by graphviz version 12.2.1 (0)
 -->
<!-- Title: nix::curlFileTransfer Pages: 1 -->
<svg width="248pt" height="111pt"
 viewBox="0.00 0.00 247.50 111.00" xmlns="http://www.w3.org/2000/svg" xmlns:xlink="http://www.w3.org/1999/xlink">
<g id="graph0" class="graph" transform="scale(1 1) rotate(0) translate(4 107)">
<title>nix::curlFileTransfer</title>
<!-- Node1 -->
<g id="Node000001" class="node">
<title>Node1</title>
<g id="a_Node000001"><a xlink:title=" ">
<polygon fill="#999999" stroke="#666666" points="166.25,-20.75 55,-20.75 55,0 166.25,0 166.25,-20.75"/>
<text text-anchor="middle" x="110.62" y="-7.25" font-family="Helvetica,sans-Serif" font-size="10.00">nix::curlFileTransfer</text>
</a>
</g>
</g>
<!-- Node2 -->
<g id="Node000002" class="node">
<title>Node2</title>
<g id="a_Node000002"><a xlink:href="structnix_1_1FileTransfer.html" target="_top" xlink:title=" ">
<polygon fill="white" stroke="#bfbfbf" points="93.25,-96.62 0,-96.62 0,-75.88 93.25,-75.88 93.25,-96.62"/>
<text text-anchor="middle" x="46.62" y="-83.12" font-family="Helvetica,sans-Serif" font-size="10.00">nix::FileTransfer</text>
</a>
</g>
</g>
<!-- Node2&#45;&gt;Node1 -->
<g id="edge1_Node000001_Node000002" class="edge">
<title>Node2&#45;&gt;Node1</title>
<g id="a_edge1_Node000001_Node000002"><a xlink:title=" ">
<path fill="none" stroke="#63b8ff" d="M62.18,-67.29C74.89,-52.63 92.34,-32.48 102.46,-20.8"/>
<polygon fill="#63b8ff" stroke="#63b8ff" points="59.89,-64.6 55.98,-74.45 65.18,-69.18 59.89,-64.6"/>
</a>
</g>
</g>
<!-- Node3 -->
<g id="Node000003" class="node">
<title>Node3</title>
<g id="a_Node000003"><a xlink:href="classnix_1_1Sync.html" target="_top" xlink:title=" ">
<polygon fill="white" stroke="#666666" points="239.5,-103 111.75,-103 111.75,-69.5 239.5,-69.5 239.5,-103"/>
<text text-anchor="start" x="119.75" y="-89.5" font-family="Helvetica,sans-Serif" font-size="10.00">nix::Sync&lt; nix::curlFile</text>
<text text-anchor="middle" x="175.62" y="-76.75" font-family="Helvetica,sans-Serif" font-size="10.00">Transfer::State &gt;</text>
</a>
</g>
</g>
<!-- Node3&#45;&gt;Node1 -->
<g id="edge2_Node000001_Node000003" class="edge">
<title>Node3&#45;&gt;Node1</title>
<g id="a_edge2_Node000001_Node000003"><a xlink:title=" ">
<path fill="none" stroke="#9a32cd" stroke-dasharray="5,2" d="M154.03,-60.71C142.02,-47.05 127.75,-30.84 118.95,-20.83"/>
<polygon fill="#9a32cd" stroke="#9a32cd" points="151.29,-62.89 160.52,-68.08 156.54,-58.26 151.29,-62.89"/>
</a>
</g>
<text text-anchor="middle" x="161.57" y="-42" font-family="Helvetica,sans-Serif" font-size="10.00" fill="grey"> state_</text>
</g>
</g>
</svg>
