<?xml version="1.0" encoding="UTF-8" standalone="no"?>
<!DOCTYPE svg PUBLIC "-//W3C//DTD SVG 1.1//EN"
 "http://www.w3.org/Graphics/SVG/1.1/DTD/svg11.dtd">
<!-- Generated by graphviz version 12.2.1 (0)
 -->
<!-- Title: nix::BuiltPathsCommand Pages: 1 -->
<svg width="1936pt" height="302pt"
 viewBox="0.00 0.00 1936.25 301.75" xmlns="http://www.w3.org/2000/svg" xmlns:xlink="http://www.w3.org/1999/xlink">
<g id="graph0" class="graph" transform="scale(1 1) rotate(0) translate(4 297.75)">
<title>nix::BuiltPathsCommand</title>
<!-- Node1 -->
<g id="Node000001" class="node">
<title>Node1</title>
<g id="a_Node000001"><a xlink:title=" ">
<polygon fill="#999999" stroke="#666666" points="1396.5,-195.75 1260.5,-195.75 1260.5,-175 1396.5,-175 1396.5,-195.75"/>
<text text-anchor="middle" x="1328.5" y="-182.25" font-family="Helvetica,sans-Serif" font-size="10.00">nix::BuiltPathsCommand</text>
</a>
</g>
</g>
<!-- Node13 -->
<g id="Node000013" class="node">
<title>Node13</title>
<g id="a_Node000013"><a xlink:href="structnix_1_1CmdCopy.html" target="_top" xlink:title=" ">
<polygon fill="white" stroke="#bfbfbf" points="1544.12,-234.75 1459.88,-234.75 1459.88,-214 1544.12,-214 1544.12,-234.75"/>
<text text-anchor="middle" x="1502" y="-221.25" font-family="Helvetica,sans-Serif" font-size="10.00">nix::CmdCopy</text>
</a>
</g>
</g>
<!-- Node1&#45;&gt;Node13 -->
<g id="edge18_Node000001_Node000013" class="edge">
<title>Node1&#45;&gt;Node13</title>
<g id="a_edge18_Node000001_Node000013"><a xlink:title=" ">
<path fill="none" stroke="#63b8ff" d="M1388.49,-198.79C1411.91,-204.11 1438.28,-210.11 1459.6,-214.96"/>
<polygon fill="#63b8ff" stroke="#63b8ff" points="1389.28,-195.38 1378.75,-196.57 1387.72,-202.2 1389.28,-195.38"/>
</a>
</g>
</g>
<!-- Node14 -->
<g id="Node000014" class="node">
<title>Node14</title>
<g id="a_Node000014"><a xlink:href="structnix_1_1CmdRealisationInfo.html" target="_top" xlink:title=" ">
<polygon fill="white" stroke="#bfbfbf" points="1568.5,-195.75 1435.5,-195.75 1435.5,-175 1568.5,-175 1568.5,-195.75"/>
<text text-anchor="middle" x="1502" y="-182.25" font-family="Helvetica,sans-Serif" font-size="10.00">nix::CmdRealisationInfo</text>
</a>
</g>
</g>
<!-- Node1&#45;&gt;Node14 -->
<g id="edge19_Node000001_Node000014" class="edge">
<title>Node1&#45;&gt;Node14</title>
<g id="a_edge19_Node000001_Node000014"><a xlink:title=" ">
<path fill="none" stroke="#63b8ff" d="M1408.11,-185.38C1417.11,-185.38 1426.22,-185.38 1435.03,-185.38"/>
<polygon fill="#63b8ff" stroke="#63b8ff" points="1408.3,-181.88 1398.3,-185.38 1408.3,-188.88 1408.3,-181.88"/>
</a>
</g>
</g>
<!-- Node15 -->
<g id="Node000015" class="node">
<title>Node15</title>
<g id="a_Node000015"><a xlink:href="structnix_1_1StorePathsCommand.html" target="_top" xlink:title=" ">
<polygon fill="white" stroke="#bfbfbf" points="1571.5,-156.75 1432.5,-156.75 1432.5,-136 1571.5,-136 1571.5,-156.75"/>
<text text-anchor="middle" x="1502" y="-143.25" font-family="Helvetica,sans-Serif" font-size="10.00">nix::StorePathsCommand</text>
</a>
</g>
</g>
<!-- Node1&#45;&gt;Node15 -->
<g id="edge20_Node000001_Node000015" class="edge">
<title>Node1&#45;&gt;Node15</title>
<g id="a_edge20_Node000001_Node000015"><a xlink:title=" ">
<path fill="none" stroke="#63b8ff" d="M1388.4,-171.98C1409.54,-167.17 1433.1,-161.82 1453.19,-157.25"/>
<polygon fill="#63b8ff" stroke="#63b8ff" points="1387.72,-168.55 1378.75,-174.18 1389.28,-175.37 1387.72,-168.55"/>
</a>
</g>
</g>
<!-- Node2 -->
<g id="Node000002" class="node">
<title>Node2</title>
<g id="a_Node000002"><a xlink:href="structnix_1_1InstallablesCommand.html" target="_top" xlink:title=" ">
<polygon fill="white" stroke="#666666" points="1224.5,-224.75 1081,-224.75 1081,-204 1224.5,-204 1224.5,-224.75"/>
<text text-anchor="middle" x="1152.75" y="-211.25" font-family="Helvetica,sans-Serif" font-size="10.00">nix::InstallablesCommand</text>
</a>
</g>
</g>
<!-- Node2&#45;&gt;Node1 -->
<g id="edge1_Node000001_Node000002" class="edge">
<title>Node2&#45;&gt;Node1</title>
<g id="a_edge1_Node000001_Node000002"><a xlink:title=" ">
<path fill="none" stroke="#63b8ff" d="M1229.71,-201.7C1240.63,-199.87 1251.78,-198.01 1262.46,-196.23"/>
<polygon fill="#63b8ff" stroke="#63b8ff" points="1229.23,-198.23 1219.94,-203.33 1230.38,-205.13 1229.23,-198.23"/>
</a>
</g>
</g>
<!-- Node3 -->
<g id="Node000003" class="node">
<title>Node3</title>
<g id="a_Node000003"><a xlink:href="structnix_1_1RawInstallablesCommand.html" target="_top" xlink:title=" ">
<polygon fill="white" stroke="#666666" points="1045,-233.75 880.5,-233.75 880.5,-213 1045,-213 1045,-233.75"/>
<text text-anchor="middle" x="962.75" y="-220.25" font-family="Helvetica,sans-Serif" font-size="10.00">nix::RawInstallablesCommand</text>
</a>
</g>
</g>
<!-- Node3&#45;&gt;Node2 -->
<g id="edge2_Node000002_Node000003" class="edge">
<title>Node3&#45;&gt;Node2</title>
<g id="a_edge2_Node000002_Node000003"><a xlink:title=" ">
<path fill="none" stroke="#63b8ff" d="M1056.68,-218.93C1064.69,-218.54 1072.71,-218.16 1080.51,-217.79"/>
<polygon fill="#63b8ff" stroke="#63b8ff" points="1056.72,-215.42 1046.9,-219.39 1057.06,-222.41 1056.72,-215.42"/>
</a>
</g>
</g>
<!-- Node4 -->
<g id="Node000004" class="node">
<title>Node4</title>
<g id="a_Node000004"><a xlink:href="classnix_1_1Args.html" target="_top" xlink:title=" ">
<polygon fill="white" stroke="#bfbfbf" points="58.75,-167.75 0,-167.75 0,-147 58.75,-147 58.75,-167.75"/>
<text text-anchor="middle" x="29.38" y="-154.25" font-family="Helvetica,sans-Serif" font-size="10.00">nix::Args</text>
</a>
</g>
</g>
<!-- Node4&#45;&gt;Node3 -->
<g id="edge3_Node000003_Node000004" class="edge">
<title>Node4&#45;&gt;Node3</title>
<g id="a_edge3_Node000003_Node000004"><a xlink:title=" ">
<path fill="none" stroke="#63b8ff" d="M44.29,-177.31C56.03,-192.67 74.18,-213.26 94.75,-225.38 165.38,-266.99 191.4,-271.38 273.38,-271.38 273.38,-271.38 273.38,-271.38 608.12,-271.38 717.94,-271.38 845.21,-248.36 913.12,-234.21"/>
<polygon fill="#63b8ff" stroke="#63b8ff" points="47.17,-175.33 38.43,-169.34 41.53,-179.47 47.17,-175.33"/>
</a>
</g>
</g>
<!-- Node5 -->
<g id="Node000005" class="node">
<title>Node5</title>
<g id="a_Node000005"><a xlink:href="structnix_1_1SourceExprCommand.html" target="_top" xlink:title=" ">
<polygon fill="white" stroke="#bfbfbf" points="844.5,-233.75 702.5,-233.75 702.5,-213 844.5,-213 844.5,-233.75"/>
<text text-anchor="middle" x="773.5" y="-220.25" font-family="Helvetica,sans-Serif" font-size="10.00">nix::SourceExprCommand</text>
</a>
</g>
</g>
<!-- Node4&#45;&gt;Node5 -->
<g id="edge5_Node000005_Node000004" class="edge">
<title>Node4&#45;&gt;Node5</title>
<g id="a_edge5_Node000005_Node000004"><a xlink:title=" ">
<path fill="none" stroke="#63b8ff" d="M54.41,-174.63C66.1,-182.3 80.64,-190.83 94.75,-196.38 170.21,-226.03 192.3,-233.38 273.38,-233.38 273.38,-233.38 273.38,-233.38 440.25,-233.38 530.71,-233.38 634.96,-229.63 702.19,-226.72"/>
<polygon fill="#63b8ff" stroke="#63b8ff" points="56.45,-171.79 46.21,-169.06 52.52,-177.58 56.45,-171.79"/>
</a>
</g>
</g>
<!-- Node6 -->
<g id="Node000006" class="node">
<title>Node6</title>
<g id="a_Node000006"><a xlink:href="structnix_1_1MixFlakeOptions.html" target="_top" xlink:title=" ">
<polygon fill="white" stroke="#666666" points="666.5,-205.75 547.75,-205.75 547.75,-185 666.5,-185 666.5,-205.75"/>
<text text-anchor="middle" x="607.12" y="-192.25" font-family="Helvetica,sans-Serif" font-size="10.00">nix::MixFlakeOptions</text>
</a>
</g>
</g>
<!-- Node4&#45;&gt;Node6 -->
<g id="edge7_Node000006_Node000004" class="edge">
<title>Node4&#45;&gt;Node6</title>
<g id="a_edge7_Node000006_Node000004"><a xlink:title=" ">
<path fill="none" stroke="#63b8ff" d="M70.19,-170.8C78.24,-173.04 86.7,-175.06 94.75,-176.38 256.95,-202.9 451.78,-201.01 547.37,-197.92"/>
<polygon fill="#63b8ff" stroke="#63b8ff" points="71.21,-167.46 60.63,-167.98 69.23,-174.17 71.21,-167.46"/>
</a>
</g>
</g>
<!-- Node9 -->
<g id="Node000009" class="node">
<title>Node9</title>
<g id="a_Node000009"><a xlink:href="structnix_1_1Command.html" target="_top" xlink:title=" ">
<polygon fill="white" stroke="#666666" points="182,-167.75 94.75,-167.75 94.75,-147 182,-147 182,-167.75"/>
<text text-anchor="middle" x="138.38" y="-154.25" font-family="Helvetica,sans-Serif" font-size="10.00">nix::Command</text>
</a>
</g>
</g>
<!-- Node4&#45;&gt;Node9 -->
<g id="edge11_Node000009_Node000004" class="edge">
<title>Node4&#45;&gt;Node9</title>
<g id="a_edge11_Node000009_Node000004"><a xlink:title=" ">
<path fill="none" stroke="#63b8ff" d="M70.53,-157.38C78.37,-157.38 86.61,-157.38 94.53,-157.38"/>
<polygon fill="#63b8ff" stroke="#63b8ff" points="70.56,-153.88 60.56,-157.38 70.56,-160.88 70.56,-153.88"/>
</a>
</g>
</g>
<!-- Node10 -->
<g id="Node000010" class="node">
<title>Node10</title>
<g id="a_Node000010"><a xlink:href="structnix_1_1MixEvalArgs.html" target="_top" xlink:title=" ">
<polygon fill="white" stroke="#bfbfbf" points="323.25,-128.75 225.5,-128.75 225.5,-108 323.25,-108 323.25,-128.75"/>
<text text-anchor="middle" x="274.38" y="-115.25" font-family="Helvetica,sans-Serif" font-size="10.00">nix::MixEvalArgs</text>
</a>
</g>
</g>
<!-- Node4&#45;&gt;Node10 -->
<g id="edge13_Node000010_Node000004" class="edge">
<title>Node4&#45;&gt;Node10</title>
<g id="a_edge13_Node000010_Node000004"><a xlink:title=" ">
<path fill="none" stroke="#63b8ff" d="M69.76,-144.56C77.96,-142.23 86.58,-140.02 94.75,-138.38 138.49,-129.54 189.1,-124.34 225.26,-121.46"/>
<polygon fill="#63b8ff" stroke="#63b8ff" points="68.99,-141.14 60.4,-147.34 70.98,-147.85 68.99,-141.14"/>
</a>
</g>
</g>
<!-- Node11 -->
<g id="Node000011" class="node">
<title>Node11</title>
<g id="a_Node000011"><a xlink:href="structnix_1_1MixRepair.html" target="_top" xlink:title=" ">
<polygon fill="white" stroke="#bfbfbf" points="181.62,-91.75 95.12,-91.75 95.12,-71 181.62,-71 181.62,-91.75"/>
<text text-anchor="middle" x="138.38" y="-78.25" font-family="Helvetica,sans-Serif" font-size="10.00">nix::MixRepair</text>
</a>
</g>
</g>
<!-- Node4&#45;&gt;Node11 -->
<g id="edge15_Node000011_Node000004" class="edge">
<title>Node4&#45;&gt;Node11</title>
<g id="a_edge15_Node000011_Node000004"><a xlink:title=" ">
<path fill="none" stroke="#63b8ff" d="M50.84,-139.39C63.16,-128.92 79.4,-115.79 94.75,-105.38 101.64,-100.7 109.5,-96.09 116.58,-92.18"/>
<polygon fill="#63b8ff" stroke="#63b8ff" points="48.69,-136.61 43.4,-145.79 53.26,-141.92 48.69,-136.61"/>
</a>
</g>
</g>
<!-- Node12 -->
<g id="Node000012" class="node">
<title>Node12</title>
<g id="a_Node000012"><a xlink:href="structnix_1_1MixOperateOnOptions.html" target="_top" xlink:title=" ">
<polygon fill="white" stroke="#bfbfbf" points="511.75,-91.75 366.75,-91.75 366.75,-71 511.75,-71 511.75,-91.75"/>
<text text-anchor="middle" x="439.25" y="-78.25" font-family="Helvetica,sans-Serif" font-size="10.00">nix::MixOperateOnOptions</text>
</a>
</g>
</g>
<!-- Node4&#45;&gt;Node12 -->
<g id="edge17_Node000012_Node000004" class="edge">
<title>Node4&#45;&gt;Node12</title>
<g id="a_edge17_Node000012_Node000004"><a xlink:title=" ">
<path fill="none" stroke="#63b8ff" d="M37.95,-135.82C47.32,-112.88 65.67,-77.8 94.75,-62.38 199.49,-6.83 348.32,-48.85 409.9,-70.52"/>
<polygon fill="#63b8ff" stroke="#63b8ff" points="34.69,-134.54 34.4,-145.13 41.24,-137.03 34.69,-134.54"/>
</a>
</g>
</g>
<!-- Node5&#45;&gt;Node3 -->
<g id="edge4_Node000003_Node000005" class="edge">
<title>Node5&#45;&gt;Node3</title>
<g id="a_edge4_Node000003_Node000005"><a xlink:title=" ">
<path fill="none" stroke="#63b8ff" d="M856.23,-223.38C864.14,-223.38 872.16,-223.38 880.07,-223.38"/>
<polygon fill="#63b8ff" stroke="#63b8ff" points="856.27,-219.88 846.27,-223.38 856.27,-226.88 856.27,-219.88"/>
</a>
</g>
</g>
<!-- Node6&#45;&gt;Node5 -->
<g id="edge6_Node000005_Node000006" class="edge">
<title>Node6&#45;&gt;Node5</title>
<g id="a_edge6_Node000005_Node000006"><a xlink:title=" ">
<path fill="none" stroke="#63b8ff" d="M677.59,-207.21C687.91,-208.97 698.5,-210.77 708.69,-212.51"/>
<polygon fill="#63b8ff" stroke="#63b8ff" points="678.48,-203.81 668.03,-205.58 677.3,-210.71 678.48,-203.81"/>
</a>
</g>
</g>
<!-- Node7 -->
<g id="Node000007" class="node">
<title>Node7</title>
<g id="a_Node000007"><a xlink:href="structnix_1_1EvalCommand.html" target="_top" xlink:title=" ">
<polygon fill="white" stroke="#666666" points="493.38,-167.75 385.12,-167.75 385.12,-147 493.38,-147 493.38,-167.75"/>
<text text-anchor="middle" x="439.25" y="-154.25" font-family="Helvetica,sans-Serif" font-size="10.00">nix::EvalCommand</text>
</a>
</g>
</g>
<!-- Node7&#45;&gt;Node6 -->
<g id="edge8_Node000006_Node000007" class="edge">
<title>Node7&#45;&gt;Node6</title>
<g id="a_edge8_Node000006_Node000007"><a xlink:title=" ">
<path fill="none" stroke="#63b8ff" d="M498.41,-170.7C518.21,-175.23 540.08,-180.25 558.92,-184.56"/>
<polygon fill="#63b8ff" stroke="#63b8ff" points="499.34,-167.32 488.81,-168.5 497.78,-174.15 499.34,-167.32"/>
</a>
</g>
</g>
<!-- Node8 -->
<g id="Node000008" class="node">
<title>Node8</title>
<g id="a_Node000008"><a xlink:href="structnix_1_1StoreCommand.html" target="_top" xlink:title=" ">
<polygon fill="white" stroke="#666666" points="330.75,-167.75 218,-167.75 218,-147 330.75,-147 330.75,-167.75"/>
<text text-anchor="middle" x="274.38" y="-154.25" font-family="Helvetica,sans-Serif" font-size="10.00">nix::StoreCommand</text>
</a>
</g>
</g>
<!-- Node8&#45;&gt;Node7 -->
<g id="edge9_Node000007_Node000008" class="edge">
<title>Node8&#45;&gt;Node7</title>
<g id="a_edge9_Node000007_Node000008"><a xlink:title=" ">
<path fill="none" stroke="#63b8ff" d="M342.19,-157.38C356.39,-157.38 371.21,-157.38 384.83,-157.38"/>
<polygon fill="#63b8ff" stroke="#63b8ff" points="342.49,-153.88 332.49,-157.38 342.49,-160.88 342.49,-153.88"/>
</a>
</g>
</g>
<!-- Node9&#45;&gt;Node8 -->
<g id="edge10_Node000008_Node000009" class="edge">
<title>Node9&#45;&gt;Node8</title>
<g id="a_edge10_Node000008_Node000009"><a xlink:title=" ">
<path fill="none" stroke="#63b8ff" d="M193.59,-157.38C201.57,-157.38 209.79,-157.38 217.79,-157.38"/>
<polygon fill="#63b8ff" stroke="#63b8ff" points="193.66,-153.88 183.66,-157.38 193.66,-160.88 193.66,-153.88"/>
</a>
</g>
</g>
<!-- Node10&#45;&gt;Node7 -->
<g id="edge12_Node000007_Node000010" class="edge">
<title>Node10&#45;&gt;Node7</title>
<g id="a_edge12_Node000007_Node000010"><a xlink:title=" ">
<path fill="none" stroke="#63b8ff" d="M331.87,-131.9C351.8,-136.68 373.94,-141.98 392.84,-146.5"/>
<polygon fill="#63b8ff" stroke="#63b8ff" points="332.76,-128.52 322.22,-129.59 331.13,-135.32 332.76,-128.52"/>
</a>
</g>
</g>
<!-- Node11&#45;&gt;Node10 -->
<g id="edge14_Node000010_Node000011" class="edge">
<title>Node11&#45;&gt;Node10</title>
<g id="a_edge14_Node000010_Node000011"><a xlink:title=" ">
<path fill="none" stroke="#63b8ff" d="M189.56,-95.23C204.4,-99.33 220.42,-103.75 234.44,-107.62"/>
<polygon fill="#63b8ff" stroke="#63b8ff" points="190.52,-91.87 179.95,-92.58 188.66,-98.61 190.52,-91.87"/>
</a>
</g>
</g>
<!-- Node12&#45;&gt;Node1 -->
<g id="edge16_Node000001_Node000012" class="edge">
<title>Node12&#45;&gt;Node1</title>
<g id="a_edge16_Node000001_Node000012"><a xlink:title=" ">
<path fill="none" stroke="#63b8ff" d="M478.43,-96.01C539.56,-118.09 663.6,-157.38 772.5,-157.38 772.5,-157.38 772.5,-157.38 963.75,-157.38 1067.47,-157.38 1187.33,-168.83 1260.24,-177.09"/>
<polygon fill="#63b8ff" stroke="#63b8ff" points="479.78,-92.78 469.19,-92.62 477.37,-99.35 479.78,-92.78"/>
</a>
</g>
</g>
<!-- Node16 -->
<g id="Node000016" class="node">
<title>Node16</title>
<g id="a_Node000016"><a xlink:href="structnix_1_1CmdCopySigs.html" target="_top" xlink:title=" ">
<polygon fill="white" stroke="#bfbfbf" points="1747.25,-293.75 1642.75,-293.75 1642.75,-273 1747.25,-273 1747.25,-293.75"/>
<text text-anchor="middle" x="1695" y="-280.25" font-family="Helvetica,sans-Serif" font-size="10.00">nix::CmdCopySigs</text>
</a>
</g>
</g>
<!-- Node15&#45;&gt;Node16 -->
<g id="edge21_Node000015_Node000016" class="edge">
<title>Node15&#45;&gt;Node16</title>
<g id="a_edge21_Node000015_Node000016"><a xlink:title=" ">
<path fill="none" stroke="#63b8ff" d="M1567.58,-163.09C1568.94,-164.12 1570.25,-165.21 1571.5,-166.38 1605.15,-197.71 1572.97,-233.01 1607.5,-263.38 1617.22,-271.93 1629.88,-277.02 1642.49,-280"/>
<polygon fill="#63b8ff" stroke="#63b8ff" points="1569.56,-160.2 1559.21,-157.95 1565.9,-166.17 1569.56,-160.2"/>
</a>
</g>
</g>
<!-- Node17 -->
<g id="Node000017" class="node">
<title>Node17</title>
<g id="a_Node000017"><a xlink:href="structnix_1_1CmdMakeContentAddressed.html" target="_top" xlink:title=" ">
<polygon fill="white" stroke="#bfbfbf" points="1782.5,-254.75 1607.5,-254.75 1607.5,-234 1782.5,-234 1782.5,-254.75"/>
<text text-anchor="middle" x="1695" y="-241.25" font-family="Helvetica,sans-Serif" font-size="10.00">nix::CmdMakeContentAddressed</text>
</a>
</g>
</g>
<!-- Node15&#45;&gt;Node17 -->
<g id="edge22_Node000015_Node000017" class="edge">
<title>Node15&#45;&gt;Node17</title>
<g id="a_edge22_Node000015_Node000017"><a xlink:title=" ">
<path fill="none" stroke="#63b8ff" d="M1565.18,-162.15C1567.38,-163.45 1569.5,-164.85 1571.5,-166.38 1595.66,-184.73 1582.83,-206.72 1607.5,-224.38 1612.64,-228.05 1618.35,-231.07 1624.32,-233.53"/>
<polygon fill="#63b8ff" stroke="#63b8ff" points="1566.96,-159.13 1556.45,-157.78 1563.83,-165.39 1566.96,-159.13"/>
</a>
</g>
</g>
<!-- Node18 -->
<g id="Node000018" class="node">
<title>Node18</title>
<g id="a_Node000018"><a xlink:href="structnix_1_1CmdPathInfo.html" target="_top" xlink:title=" ">
<polygon fill="white" stroke="#bfbfbf" points="1744.62,-215.75 1645.38,-215.75 1645.38,-195 1744.62,-195 1744.62,-215.75"/>
<text text-anchor="middle" x="1695" y="-202.25" font-family="Helvetica,sans-Serif" font-size="10.00">nix::CmdPathInfo</text>
</a>
</g>
</g>
<!-- Node15&#45;&gt;Node18 -->
<g id="edge23_Node000015_Node000018" class="edge">
<title>Node15&#45;&gt;Node18</title>
<g id="a_edge23_Node000015_Node000018"><a xlink:title=" ">
<path fill="none" stroke="#63b8ff" d="M1555.97,-160.68C1561.27,-162.45 1566.52,-164.36 1571.5,-166.38 1588.27,-173.17 1590.55,-179.06 1607.5,-185.38 1619.49,-189.84 1632.8,-193.51 1645.31,-196.43"/>
<polygon fill="#63b8ff" stroke="#63b8ff" points="1557.15,-157.38 1546.56,-157.68 1555.02,-164.05 1557.15,-157.38"/>
</a>
</g>
</g>
<!-- Node19 -->
<g id="Node000019" class="node">
<title>Node19</title>
<g id="a_Node000019"><a xlink:href="structnix_1_1CmdSign.html" target="_top" xlink:title=" ">
<polygon fill="white" stroke="#bfbfbf" points="1735.25,-176.75 1654.75,-176.75 1654.75,-156 1735.25,-156 1735.25,-176.75"/>
<text text-anchor="middle" x="1695" y="-163.25" font-family="Helvetica,sans-Serif" font-size="10.00">nix::CmdSign</text>
</a>
</g>
</g>
<!-- Node15&#45;&gt;Node19 -->
<g id="edge24_Node000015_Node000019" class="edge">
<title>Node15&#45;&gt;Node19</title>
<g id="a_edge24_Node000015_Node000019"><a xlink:title=" ">
<path fill="none" stroke="#63b8ff" d="M1583.13,-154.77C1607.71,-157.34 1633.7,-160.06 1654.32,-162.22"/>
<polygon fill="#63b8ff" stroke="#63b8ff" points="1583.77,-151.31 1573.46,-153.75 1583.04,-158.28 1583.77,-151.31"/>
</a>
</g>
</g>
<!-- Node20 -->
<g id="Node000020" class="node">
<title>Node20</title>
<g id="a_Node000020"><a xlink:href="structnix_1_1CmdStoreDelete.html" target="_top" xlink:title=" ">
<polygon fill="white" stroke="#bfbfbf" points="1753.62,-137.75 1636.38,-137.75 1636.38,-117 1753.62,-117 1753.62,-137.75"/>
<text text-anchor="middle" x="1695" y="-124.25" font-family="Helvetica,sans-Serif" font-size="10.00">nix::CmdStoreDelete</text>
</a>
</g>
</g>
<!-- Node15&#45;&gt;Node20 -->
<g id="edge25_Node000015_Node000020" class="edge">
<title>Node15&#45;&gt;Node20</title>
<g id="a_edge25_Node000015_Node000020"><a xlink:title=" ">
<path fill="none" stroke="#63b8ff" d="M1583.2,-138.4C1600.98,-136.63 1619.48,-134.79 1636.16,-133.13"/>
<polygon fill="#63b8ff" stroke="#63b8ff" points="1583.07,-134.89 1573.46,-139.37 1583.76,-141.86 1583.07,-134.89"/>
</a>
</g>
</g>
<!-- Node21 -->
<g id="Node000021" class="node">
<title>Node21</title>
<g id="a_Node000021"><a xlink:href="structnix_1_1CmdStoreRepair.html" target="_top" xlink:title=" ">
<polygon fill="white" stroke="#bfbfbf" points="1753.25,-98.75 1636.75,-98.75 1636.75,-78 1753.25,-78 1753.25,-98.75"/>
<text text-anchor="middle" x="1695" y="-85.25" font-family="Helvetica,sans-Serif" font-size="10.00">nix::CmdStoreRepair</text>
</a>
</g>
</g>
<!-- Node15&#45;&gt;Node21 -->
<g id="edge26_Node000015_Node000021" class="edge">
<title>Node15&#45;&gt;Node21</title>
<g id="a_edge26_Node000015_Node000021"><a xlink:title=" ">
<path fill="none" stroke="#63b8ff" d="M1540.47,-131.5C1560.22,-123.98 1584.96,-115.05 1607.5,-108.38 1618.73,-105.05 1630.92,-101.93 1642.5,-99.2"/>
<polygon fill="#63b8ff" stroke="#63b8ff" points="1539.25,-128.22 1531.18,-135.08 1541.77,-134.75 1539.25,-128.22"/>
</a>
</g>
</g>
<!-- Node22 -->
<g id="Node000022" class="node">
<title>Node22</title>
<g id="a_Node000022"><a xlink:href="structnix_1_1CmdVerify.html" target="_top" xlink:title=" ">
<polygon fill="white" stroke="#bfbfbf" points="1738.62,-59.75 1651.38,-59.75 1651.38,-39 1738.62,-39 1738.62,-59.75"/>
<text text-anchor="middle" x="1695" y="-46.25" font-family="Helvetica,sans-Serif" font-size="10.00">nix::CmdVerify</text>
</a>
</g>
</g>
<!-- Node15&#45;&gt;Node22 -->
<g id="edge27_Node000015_Node000022" class="edge">
<title>Node15&#45;&gt;Node22</title>
<g id="a_edge27_Node000015_Node000022"><a xlink:title=" ">
<path fill="none" stroke="#63b8ff" d="M1522.68,-127.99C1542.58,-110.37 1574.98,-84.33 1607.5,-69.38 1621.08,-63.13 1636.79,-58.74 1651.06,-55.71"/>
<polygon fill="#63b8ff" stroke="#63b8ff" points="1520.4,-125.32 1515.33,-134.63 1525.1,-130.52 1520.4,-125.32"/>
</a>
</g>
</g>
<!-- Node23 -->
<g id="Node000023" class="node">
<title>Node23</title>
<g id="a_Node000023"><a xlink:href="structnix_1_1StorePathCommand.html" target="_top" xlink:title=" ">
<polygon fill="white" stroke="#666666" points="1761.88,-20.75 1628.12,-20.75 1628.12,0 1761.88,0 1761.88,-20.75"/>
<text text-anchor="middle" x="1695" y="-7.25" font-family="Helvetica,sans-Serif" font-size="10.00">nix::StorePathCommand</text>
</a>
</g>
</g>
<!-- Node15&#45;&gt;Node23 -->
<g id="edge28_Node000015_Node000023" class="edge">
<title>Node15&#45;&gt;Node23</title>
<g id="a_edge28_Node000015_Node000023"><a xlink:title=" ">
<path fill="none" stroke="#63b8ff" d="M1515.52,-126.07C1532.84,-99.77 1566.65,-54.44 1607.5,-30.38 1613.74,-26.7 1620.61,-23.7 1627.66,-21.25"/>
<polygon fill="#63b8ff" stroke="#63b8ff" points="1512.58,-124.17 1510.14,-134.48 1518.48,-127.94 1512.58,-124.17"/>
</a>
</g>
</g>
<!-- Node24 -->
<g id="Node000024" class="node">
<title>Node24</title>
<g id="a_Node000024"><a xlink:href="structnix_1_1CmdDumpPath.html" target="_top" xlink:title=" ">
<polygon fill="white" stroke="#bfbfbf" points="1928.25,-20.75 1818.5,-20.75 1818.5,0 1928.25,0 1928.25,-20.75"/>
<text text-anchor="middle" x="1873.38" y="-7.25" font-family="Helvetica,sans-Serif" font-size="10.00">nix::CmdDumpPath</text>
</a>
</g>
</g>
<!-- Node23&#45;&gt;Node24 -->
<g id="edge29_Node000023_Node000024" class="edge">
<title>Node23&#45;&gt;Node24</title>
<g id="a_edge29_Node000023_Node000024"><a xlink:title=" ">
<path fill="none" stroke="#63b8ff" d="M1773.58,-10.38C1788.63,-10.38 1804.1,-10.38 1818.2,-10.38"/>
<polygon fill="#63b8ff" stroke="#63b8ff" points="1773.69,-6.88 1763.69,-10.38 1773.69,-13.88 1773.69,-6.88"/>
</a>
</g>
</g>
</g>
</svg>
