<?xml version="1.0" encoding="UTF-8" standalone="no"?>
<!DOCTYPE svg PUBLIC "-//W3C//DTD SVG 1.1//EN"
 "http://www.w3.org/Graphics/SVG/1.1/DTD/svg11.dtd">
<!-- Generated by graphviz version 12.2.1 (0)
 -->
<!-- Title: nix::RemoteStore::ConnectionHandle Pages: 1 -->
<svg width="338pt" height="124pt"
 viewBox="0.00 0.00 338.25 123.75" xmlns="http://www.w3.org/2000/svg" xmlns:xlink="http://www.w3.org/1999/xlink">
<g id="graph0" class="graph" transform="scale(1 1) rotate(0) translate(4 119.75)">
<title>nix::RemoteStore::ConnectionHandle</title>
<!-- Node1 -->
<g id="Node000001" class="node">
<title>Node1</title>
<g id="a_Node000001"><a xlink:title=" ">
<polygon fill="#999999" stroke="#666666" points="244.75,-33.5 83.25,-33.5 83.25,0 244.75,0 244.75,-33.5"/>
<text text-anchor="start" x="91.25" y="-20" font-family="Helvetica,sans-Serif" font-size="10.00">nix::RemoteStore::Connection</text>
<text text-anchor="middle" x="164" y="-7.25" font-family="Helvetica,sans-Serif" font-size="10.00">Handle</text>
</a>
</g>
</g>
<!-- Node2 -->
<g id="Node000002" class="node">
<title>Node2</title>
<g id="a_Node000002"><a xlink:href="classnix_1_1Pool.html" target="_top" xlink:title=" ">
<polygon fill="white" stroke="#666666" points="154,-115.75 0,-115.75 0,-82.25 154,-82.25 154,-115.75"/>
<text text-anchor="start" x="8" y="-102.25" font-family="Helvetica,sans-Serif" font-size="10.00">nix::Pool&lt; nix::RemoteStore</text>
<text text-anchor="middle" x="77" y="-89.5" font-family="Helvetica,sans-Serif" font-size="10.00">::Connection &gt;</text>
</a>
</g>
</g>
<!-- Node2&#45;&gt;Node1 -->
<g id="edge1_Node000001_Node000002" class="edge">
<title>Node2&#45;&gt;Node1</title>
<g id="a_edge1_Node000001_Node000002"><a xlink:title=" ">
<path fill="none" stroke="#9a32cd" stroke-dasharray="5,2" d="M102.9,-74.11C116.94,-61.16 133.93,-45.49 146.42,-33.97"/>
<polygon fill="#9a32cd" stroke="#9a32cd" points="100.7,-71.38 95.72,-80.73 105.44,-76.53 100.7,-71.38"/>
</a>
</g>
<text text-anchor="middle" x="143.71" y="-54.75" font-family="Helvetica,sans-Serif" font-size="10.00" fill="grey"> handle</text>
</g>
<!-- Node3 -->
<g id="Node000003" class="node">
<title>Node3</title>
<g id="a_Node000003"><a xlink:href="classnix_1_1Sync.html" target="_top" xlink:title=" ">
<polygon fill="white" stroke="#666666" points="330.25,-109.38 171.75,-109.38 171.75,-88.62 330.25,-88.62 330.25,-109.38"/>
<text text-anchor="middle" x="251" y="-95.88" font-family="Helvetica,sans-Serif" font-size="10.00">nix::Sync&lt; nix::ThreadPool &gt;</text>
</a>
</g>
</g>
<!-- Node3&#45;&gt;Node1 -->
<g id="edge2_Node000001_Node000003" class="edge">
<title>Node3&#45;&gt;Node1</title>
<g id="a_edge2_Node000001_Node000003"><a xlink:title=" ">
<path fill="none" stroke="#9a32cd" stroke-dasharray="5,2" d="M232.22,-80.68C217.13,-66.75 196.08,-47.34 181.37,-33.77"/>
<polygon fill="#9a32cd" stroke="#9a32cd" points="229.5,-82.93 239.22,-87.13 234.24,-77.78 229.5,-82.93"/>
</a>
</g>
<text text-anchor="middle" x="252.08" y="-54.75" font-family="Helvetica,sans-Serif" font-size="10.00" fill="grey"> handlerThreads</text>
</g>
</g>
</svg>
