<?xml version="1.0" encoding="UTF-8" standalone="no"?>
<!DOCTYPE svg PUBLIC "-//W3C//DTD SVG 1.1//EN"
 "http://www.w3.org/Graphics/SVG/1.1/DTD/svg11.dtd">
<!-- Generated by graphviz version 12.2.1 (0)
 -->
<!-- Title: lix/libutil/topo&#45;sort.hh Pages: 1 -->
<svg width="1873pt" height="269pt"
 viewBox="0.00 0.00 1872.75 268.50" xmlns="http://www.w3.org/2000/svg" xmlns:xlink="http://www.w3.org/1999/xlink">
<g id="graph0" class="graph" transform="scale(1 1) rotate(0) translate(4 264.5)">
<title>lix/libutil/topo&#45;sort.hh</title>
<!-- Node1 -->
<g id="Node000001" class="node">
<title>Node1</title>
<g id="a_Node000001"><a xlink:title=" ">
<polygon fill="#999999" stroke="#666666" points="1615.25,-260.5 1494.25,-260.5 1494.25,-239.75 1615.25,-239.75 1615.25,-260.5"/>
<text text-anchor="middle" x="1554.75" y="-247" font-family="Helvetica,sans-Serif" font-size="10.00">lix/libutil/topo&#45;sort.hh</text>
</a>
</g>
</g>
<!-- Node2 -->
<g id="Node000002" class="node">
<title>Node2</title>
<g id="a_Node000002"><a xlink:href="error_8hh.html" target="_top" xlink:title="This file defines two main structs/classes used in nix error handling.">
<polygon fill="white" stroke="#666666" points="875.38,-203.75 776.12,-203.75 776.12,-183 875.38,-183 875.38,-203.75"/>
<text text-anchor="middle" x="825.75" y="-190.25" font-family="Helvetica,sans-Serif" font-size="10.00">lix/libutil/error.hh</text>
</a>
</g>
</g>
<!-- Node1&#45;&gt;Node2 -->
<g id="edge1_Node000001_Node000002" class="edge">
<title>Node1&#45;&gt;Node2</title>
<g id="a_edge1_Node000001_Node000002"><a xlink:title=" ">
<path fill="none" stroke="#63b8ff" d="M1493.85,-244.55C1356.55,-234.24 1024.17,-209.28 886.76,-198.96"/>
<polygon fill="#63b8ff" stroke="#63b8ff" points="887.39,-195.49 877.15,-198.24 886.86,-202.47 887.39,-195.49"/>
</a>
</g>
</g>
<!-- Node25 -->
<g id="Node000025" class="node">
<title>Node25</title>
<g id="a_Node000025"><a xlink:href="result_8hh.html" target="_top" xlink:title=" ">
<polygon fill="white" stroke="#666666" points="1607,-203.75 1502.5,-203.75 1502.5,-183 1607,-183 1607,-203.75"/>
<text text-anchor="middle" x="1554.75" y="-190.25" font-family="Helvetica,sans-Serif" font-size="10.00">lix/libutil/result.hh</text>
</a>
</g>
</g>
<!-- Node1&#45;&gt;Node25 -->
<g id="edge26_Node000001_Node000025" class="edge">
<title>Node1&#45;&gt;Node25</title>
<g id="a_edge26_Node000001_Node000025"><a xlink:title=" ">
<path fill="none" stroke="#63b8ff" d="M1554.75,-239.34C1554.75,-232.72 1554.75,-223.72 1554.75,-215.52"/>
<polygon fill="#63b8ff" stroke="#63b8ff" points="1558.25,-215.59 1554.75,-205.59 1551.25,-215.59 1558.25,-215.59"/>
</a>
</g>
</g>
<!-- Node30 -->
<g id="Node000030" class="node">
<title>Node30</title>
<g id="a_Node000030"><a xlink:title=" ">
<polygon fill="#e0e0e0" stroke="#999999" points="1690.5,-203.75 1625,-203.75 1625,-183 1690.5,-183 1690.5,-203.75"/>
<text text-anchor="middle" x="1657.75" y="-190.25" font-family="Helvetica,sans-Serif" font-size="10.00">kj/async.h</text>
</a>
</g>
</g>
<!-- Node1&#45;&gt;Node30 -->
<g id="edge31_Node000001_Node000030" class="edge">
<title>Node1&#45;&gt;Node30</title>
<g id="a_edge31_Node000001_Node000030"><a xlink:title=" ">
<path fill="none" stroke="#63b8ff" d="M1573.16,-239.34C1588.84,-231.01 1611.6,-218.91 1629.56,-209.36"/>
<polygon fill="#63b8ff" stroke="#63b8ff" points="1630.97,-212.57 1638.16,-204.79 1627.69,-206.39 1630.97,-212.57"/>
</a>
</g>
</g>
<!-- Node3 -->
<g id="Node000003" class="node">
<title>Node3</title>
<g id="a_Node000003"><a xlink:href="json-fwd_8hh_source.html" target="_top" xlink:title=" ">
<polygon fill="white" stroke="#666666" points="242.75,-140.62 124.75,-140.62 124.75,-119.88 242.75,-119.88 242.75,-140.62"/>
<text text-anchor="middle" x="183.75" y="-127.12" font-family="Helvetica,sans-Serif" font-size="10.00">lix/libutil/json&#45;fwd.hh</text>
</a>
</g>
</g>
<!-- Node2&#45;&gt;Node3 -->
<g id="edge2_Node000002_Node000003" class="edge">
<title>Node2&#45;&gt;Node3</title>
<g id="a_edge2_Node000002_Node000003"><a xlink:title=" ">
<path fill="none" stroke="#63b8ff" d="M775.65,-188.45C684.07,-181.15 483.5,-164.63 314.75,-147 295.13,-144.95 273.89,-142.5 254.34,-140.15"/>
<polygon fill="#63b8ff" stroke="#63b8ff" points="254.9,-136.69 244.55,-138.96 254.06,-143.64 254.9,-136.69"/>
</a>
</g>
</g>
<!-- Node5 -->
<g id="Node000005" class="node">
<title>Node5</title>
<g id="a_Node000005"><a xlink:title=" ">
<polygon fill="#e0e0e0" stroke="#999999" points="218,-77.5 149.5,-77.5 149.5,-56.75 218,-56.75 218,-77.5"/>
<text text-anchor="middle" x="183.75" y="-64" font-family="Helvetica,sans-Serif" font-size="10.00">type_traits</text>
</a>
</g>
</g>
<!-- Node2&#45;&gt;Node5 -->
<g id="edge25_Node000002_Node000005" class="edge">
<title>Node2&#45;&gt;Node5</title>
<g id="a_edge25_Node000002_Node000005"><a xlink:title=" ">
<path fill="none" stroke="#63b8ff" d="M775.9,-191C695.69,-187.9 533.42,-178.03 399.75,-147 332.28,-131.34 257.05,-100.68 215.57,-82.54"/>
<polygon fill="#63b8ff" stroke="#63b8ff" points="217.23,-79.45 206.67,-78.61 214.41,-85.85 217.23,-79.45"/>
</a>
</g>
</g>
<!-- Node6 -->
<g id="Node000006" class="node">
<title>Node6</title>
<g id="a_Node000006"><a xlink:href="suggestions_8hh.html" target="_top" xlink:title=" ">
<polygon fill="white" stroke="#666666" points="544.38,-140.62 409.12,-140.62 409.12,-119.88 544.38,-119.88 544.38,-140.62"/>
<text text-anchor="middle" x="476.75" y="-127.12" font-family="Helvetica,sans-Serif" font-size="10.00">lix/libutil/suggestions.hh</text>
</a>
</g>
</g>
<!-- Node2&#45;&gt;Node6 -->
<g id="edge5_Node000002_Node000006" class="edge">
<title>Node2&#45;&gt;Node6</title>
<g id="a_edge5_Node000002_Node000006"><a xlink:title=" ">
<path fill="none" stroke="#63b8ff" d="M775.7,-184.12C722.19,-175.23 634.9,-160.54 559.75,-147 552.93,-145.77 545.8,-144.46 538.71,-143.14"/>
<polygon fill="#63b8ff" stroke="#63b8ff" points="539.6,-139.74 529.13,-141.34 538.31,-146.62 539.6,-139.74"/>
</a>
</g>
</g>
<!-- Node13 -->
<g id="Node000013" class="node">
<title>Node13</title>
<g id="a_Node000013"><a xlink:href="libutil_2fmt_8hh.html" target="_top" xlink:title=" ">
<polygon fill="white" stroke="#666666" points="662.75,-140.62 568.75,-140.62 568.75,-119.88 662.75,-119.88 662.75,-140.62"/>
<text text-anchor="middle" x="615.75" y="-127.12" font-family="Helvetica,sans-Serif" font-size="10.00">lix/libutil/fmt.hh</text>
</a>
</g>
</g>
<!-- Node2&#45;&gt;Node13 -->
<g id="edge12_Node000002_Node000013" class="edge">
<title>Node2&#45;&gt;Node13</title>
<g id="a_edge12_Node000002_Node000013"><a xlink:title=" ">
<path fill="none" stroke="#63b8ff" d="M792.01,-182.55C756.27,-172.15 699.66,-155.67 660.28,-144.21"/>
<polygon fill="#63b8ff" stroke="#63b8ff" points="661.44,-140.9 650.86,-141.47 659.48,-147.62 661.44,-140.9"/>
</a>
</g>
</g>
<!-- Node17 -->
<g id="Node000017" class="node">
<title>Node17</title>
<g id="a_Node000017"><a xlink:title=" ">
<polygon fill="#e0e0e0" stroke="#999999" points="730.25,-140.62 681.25,-140.62 681.25,-119.88 730.25,-119.88 730.25,-140.62"/>
<text text-anchor="middle" x="705.75" y="-127.12" font-family="Helvetica,sans-Serif" font-size="10.00">cstring</text>
</a>
</g>
</g>
<!-- Node2&#45;&gt;Node17 -->
<g id="edge17_Node000002_Node000017" class="edge">
<title>Node2&#45;&gt;Node17</title>
<g id="a_edge17_Node000002_Node000017"><a xlink:title=" ">
<path fill="none" stroke="#63b8ff" d="M806.47,-182.55C787.23,-172.75 757.4,-157.56 735.19,-146.25"/>
<polygon fill="#63b8ff" stroke="#63b8ff" points="736.83,-143.15 726.33,-141.73 733.65,-149.39 736.83,-143.15"/>
</a>
</g>
</g>
<!-- Node18 -->
<g id="Node000018" class="node">
<title>Node18</title>
<g id="a_Node000018"><a xlink:title=" ">
<polygon fill="#e0e0e0" stroke="#999999" points="779.25,-140.62 748.25,-140.62 748.25,-119.88 779.25,-119.88 779.25,-140.62"/>
<text text-anchor="middle" x="763.75" y="-127.12" font-family="Helvetica,sans-Serif" font-size="10.00">list</text>
</a>
</g>
</g>
<!-- Node2&#45;&gt;Node18 -->
<g id="edge18_Node000002_Node000018" class="edge">
<title>Node2&#45;&gt;Node18</title>
<g id="a_edge18_Node000002_Node000018"><a xlink:title=" ">
<path fill="none" stroke="#63b8ff" d="M815.79,-182.55C806.61,-173.5 792.76,-159.85 781.66,-148.9"/>
<polygon fill="#63b8ff" stroke="#63b8ff" points="784.14,-146.44 774.56,-141.91 779.22,-151.42 784.14,-146.44"/>
</a>
</g>
</g>
<!-- Node19 -->
<g id="Node000019" class="node">
<title>Node19</title>
<g id="a_Node000019"><a xlink:title=" ">
<polygon fill="#e0e0e0" stroke="#999999" points="854.38,-140.62 797.12,-140.62 797.12,-119.88 854.38,-119.88 854.38,-140.62"/>
<text text-anchor="middle" x="825.75" y="-127.12" font-family="Helvetica,sans-Serif" font-size="10.00">memory</text>
</a>
</g>
</g>
<!-- Node2&#45;&gt;Node19 -->
<g id="edge19_Node000002_Node000019" class="edge">
<title>Node2&#45;&gt;Node19</title>
<g id="a_edge19_Node000002_Node000019"><a xlink:title=" ">
<path fill="none" stroke="#63b8ff" d="M825.75,-182.55C825.75,-174.4 825.75,-162.51 825.75,-152.23"/>
<polygon fill="#63b8ff" stroke="#63b8ff" points="829.25,-152.36 825.75,-142.36 822.25,-152.36 829.25,-152.36"/>
</a>
</g>
</g>
<!-- Node20 -->
<g id="Node000020" class="node">
<title>Node20</title>
<g id="a_Node000020"><a xlink:title=" ">
<polygon fill="#e0e0e0" stroke="#999999" points="928.62,-140.62 872.88,-140.62 872.88,-119.88 928.62,-119.88 928.62,-140.62"/>
<text text-anchor="middle" x="900.75" y="-127.12" font-family="Helvetica,sans-Serif" font-size="10.00">optional</text>
</a>
</g>
</g>
<!-- Node2&#45;&gt;Node20 -->
<g id="edge20_Node000002_Node000020" class="edge">
<title>Node2&#45;&gt;Node20</title>
<g id="a_edge20_Node000002_Node000020"><a xlink:title=" ">
<path fill="none" stroke="#63b8ff" d="M837.8,-182.55C849.24,-173.23 866.66,-159.03 880.28,-147.94"/>
<polygon fill="#63b8ff" stroke="#63b8ff" points="882.26,-150.83 887.8,-141.8 877.84,-145.41 882.26,-150.83"/>
</a>
</g>
</g>
<!-- Node21 -->
<g id="Node000021" class="node">
<title>Node21</title>
<g id="a_Node000021"><a xlink:title=" ">
<polygon fill="#e0e0e0" stroke="#999999" points="1018.5,-140.62 947,-140.62 947,-119.88 1018.5,-119.88 1018.5,-140.62"/>
<text text-anchor="middle" x="982.75" y="-127.12" font-family="Helvetica,sans-Serif" font-size="10.00">sys/types.h</text>
</a>
</g>
</g>
<!-- Node2&#45;&gt;Node21 -->
<g id="edge21_Node000002_Node000021" class="edge">
<title>Node2&#45;&gt;Node21</title>
<g id="a_edge21_Node000002_Node000021"><a xlink:title=" ">
<path fill="none" stroke="#63b8ff" d="M850.97,-182.55C876.95,-172.44 917.67,-156.59 946.97,-145.18"/>
<polygon fill="#63b8ff" stroke="#63b8ff" points="948.13,-148.49 956.18,-141.6 945.59,-141.96 948.13,-148.49"/>
</a>
</g>
</g>
<!-- Node22 -->
<g id="Node000022" class="node">
<title>Node22</title>
<g id="a_Node000022"><a xlink:title=" ">
<polygon fill="#e0e0e0" stroke="#999999" points="1099.38,-140.62 1036.12,-140.62 1036.12,-119.88 1099.38,-119.88 1099.38,-140.62"/>
<text text-anchor="middle" x="1067.75" y="-127.12" font-family="Helvetica,sans-Serif" font-size="10.00">sys/stat.h</text>
</a>
</g>
</g>
<!-- Node2&#45;&gt;Node22 -->
<g id="edge22_Node000002_Node000022" class="edge">
<title>Node2&#45;&gt;Node22</title>
<g id="a_edge22_Node000002_Node000022"><a xlink:title=" ">
<path fill="none" stroke="#63b8ff" d="M875.7,-183.38C916.93,-175.43 976.73,-162.67 1027.75,-147 1029.84,-146.36 1031.97,-145.66 1034.11,-144.92"/>
<polygon fill="#63b8ff" stroke="#63b8ff" points="1035.1,-148.29 1043.28,-141.55 1032.68,-141.72 1035.1,-148.29"/>
</a>
</g>
</g>
<!-- Node23 -->
<g id="Node000023" class="node">
<title>Node23</title>
<g id="a_Node000023"><a xlink:title=" ">
<polygon fill="#e0e0e0" stroke="#999999" points="1164.12,-140.62 1117.38,-140.62 1117.38,-119.88 1164.12,-119.88 1164.12,-140.62"/>
<text text-anchor="middle" x="1140.75" y="-127.12" font-family="Helvetica,sans-Serif" font-size="10.00">fcntl.h</text>
</a>
</g>
</g>
<!-- Node2&#45;&gt;Node23 -->
<g id="edge23_Node000002_Node000023" class="edge">
<title>Node2&#45;&gt;Node23</title>
<g id="a_edge23_Node000002_Node000023"><a xlink:title=" ">
<path fill="none" stroke="#63b8ff" d="M875.87,-188.88C933.26,-183.84 1029.57,-172.21 1108.75,-147 1110.11,-146.57 1111.49,-146.08 1112.86,-145.56"/>
<polygon fill="#63b8ff" stroke="#63b8ff" points="1114.05,-148.86 1121.81,-141.66 1111.25,-142.45 1114.05,-148.86"/>
</a>
</g>
</g>
<!-- Node24 -->
<g id="Node000024" class="node">
<title>Node24</title>
<g id="a_Node000024"><a xlink:title=" ">
<polygon fill="#e0e0e0" stroke="#999999" points="1263,-140.62 1182.5,-140.62 1182.5,-119.88 1263,-119.88 1263,-140.62"/>
<text text-anchor="middle" x="1222.75" y="-127.12" font-family="Helvetica,sans-Serif" font-size="10.00">system_error</text>
</a>
</g>
</g>
<!-- Node2&#45;&gt;Node24 -->
<g id="edge24_Node000002_Node000024" class="edge">
<title>Node2&#45;&gt;Node24</title>
<g id="a_edge24_Node000002_Node000024"><a xlink:title=" ">
<path fill="none" stroke="#63b8ff" d="M875.64,-188.61C943.48,-182.87 1068.34,-170.08 1172.75,-147 1176.3,-146.21 1179.97,-145.29 1183.62,-144.29"/>
<polygon fill="#63b8ff" stroke="#63b8ff" points="1184.36,-147.72 1192.97,-141.54 1182.39,-141 1184.36,-147.72"/>
</a>
</g>
</g>
<!-- Node4 -->
<g id="Node000004" class="node">
<title>Node4</title>
<g id="a_Node000004"><a xlink:title=" ">
<polygon fill="#e0e0e0" stroke="#999999" points="131.5,-77.5 0,-77.5 0,-56.75 131.5,-56.75 131.5,-77.5"/>
<text text-anchor="middle" x="65.75" y="-64" font-family="Helvetica,sans-Serif" font-size="10.00">nlohmann/json_fwd.hpp</text>
</a>
</g>
</g>
<!-- Node3&#45;&gt;Node4 -->
<g id="edge3_Node000003_Node000004" class="edge">
<title>Node3&#45;&gt;Node4</title>
<g id="a_edge3_Node000003_Node000004"><a xlink:title=" ">
<path fill="none" stroke="#63b8ff" d="M164.79,-119.43C145.87,-109.63 116.54,-94.43 94.7,-83.12"/>
<polygon fill="#63b8ff" stroke="#63b8ff" points="96.49,-80.11 86.01,-78.62 93.28,-86.33 96.49,-80.11"/>
</a>
</g>
</g>
<!-- Node3&#45;&gt;Node5 -->
<g id="edge4_Node000003_Node000005" class="edge">
<title>Node3&#45;&gt;Node5</title>
<g id="a_edge4_Node000003_Node000005"><a xlink:title=" ">
<path fill="none" stroke="#63b8ff" d="M183.75,-119.43C183.75,-111.27 183.75,-99.38 183.75,-89.1"/>
<polygon fill="#63b8ff" stroke="#63b8ff" points="187.25,-89.23 183.75,-79.23 180.25,-89.23 187.25,-89.23"/>
</a>
</g>
</g>
<!-- Node7 -->
<g id="Node000007" class="node">
<title>Node7</title>
<g id="a_Node000007"><a xlink:href="comparator_8hh.html" target="_top" xlink:title=" ">
<polygon fill="white" stroke="#666666" points="367.88,-77.5 235.62,-77.5 235.62,-56.75 367.88,-56.75 367.88,-77.5"/>
<text text-anchor="middle" x="301.75" y="-64" font-family="Helvetica,sans-Serif" font-size="10.00">lix/libutil/comparator.hh</text>
</a>
</g>
</g>
<!-- Node6&#45;&gt;Node7 -->
<g id="edge6_Node000006_Node000007" class="edge">
<title>Node6&#45;&gt;Node7</title>
<g id="a_edge6_Node000006_Node000007"><a xlink:title=" ">
<path fill="none" stroke="#63b8ff" d="M448.63,-119.43C419.29,-109.18 373.09,-93.04 340.34,-81.6"/>
<polygon fill="#63b8ff" stroke="#63b8ff" points="341.82,-78.41 331.23,-78.42 339.51,-85.02 341.82,-78.41"/>
</a>
</g>
</g>
<!-- Node9 -->
<g id="Node000009" class="node">
<title>Node9</title>
<g id="a_Node000009"><a xlink:title=" ">
<polygon fill="#e0e0e0" stroke="#999999" points="417.25,-77.5 386.25,-77.5 386.25,-56.75 417.25,-56.75 417.25,-77.5"/>
<text text-anchor="middle" x="401.75" y="-64" font-family="Helvetica,sans-Serif" font-size="10.00">set</text>
</a>
</g>
</g>
<!-- Node6&#45;&gt;Node9 -->
<g id="edge8_Node000006_Node000009" class="edge">
<title>Node6&#45;&gt;Node9</title>
<g id="a_edge8_Node000006_Node000009"><a xlink:title=" ">
<path fill="none" stroke="#63b8ff" d="M464.7,-119.43C453.26,-110.11 435.84,-95.91 422.22,-84.81"/>
<polygon fill="#63b8ff" stroke="#63b8ff" points="424.66,-82.28 414.7,-78.68 420.24,-87.71 424.66,-82.28"/>
</a>
</g>
</g>
<!-- Node10 -->
<g id="Node000010" class="node">
<title>Node10</title>
<g id="a_Node000010"><a xlink:title=" ">
<polygon fill="#e0e0e0" stroke="#999999" points="507.88,-77.5 435.62,-77.5 435.62,-56.75 507.88,-56.75 507.88,-77.5"/>
<text text-anchor="middle" x="471.75" y="-64" font-family="Helvetica,sans-Serif" font-size="10.00">string_view</text>
</a>
</g>
</g>
<!-- Node6&#45;&gt;Node10 -->
<g id="edge9_Node000006_Node000010" class="edge">
<title>Node6&#45;&gt;Node10</title>
<g id="a_edge9_Node000006_Node000010"><a xlink:title=" ">
<path fill="none" stroke="#63b8ff" d="M475.95,-119.43C475.28,-111.27 474.31,-99.38 473.47,-89.1"/>
<polygon fill="#63b8ff" stroke="#63b8ff" points="476.96,-88.91 472.66,-79.23 469.99,-89.48 476.96,-88.91"/>
</a>
</g>
</g>
<!-- Node11 -->
<g id="Node000011" class="node">
<title>Node11</title>
<g id="a_Node000011"><a xlink:title=" ">
<polygon fill="#e0e0e0" stroke="#999999" points="637.62,-77.5 593.88,-77.5 593.88,-56.75 637.62,-56.75 637.62,-77.5"/>
<text text-anchor="middle" x="615.75" y="-64" font-family="Helvetica,sans-Serif" font-size="10.00">string</text>
</a>
</g>
</g>
<!-- Node6&#45;&gt;Node11 -->
<g id="edge10_Node000006_Node000011" class="edge">
<title>Node6&#45;&gt;Node11</title>
<g id="a_edge10_Node000006_Node000011"><a xlink:title=" ">
<path fill="none" stroke="#63b8ff" d="M499.08,-119.43C521.78,-109.45 557.18,-93.88 583.04,-82.51"/>
<polygon fill="#63b8ff" stroke="#63b8ff" points="584.34,-85.76 592.09,-78.53 581.52,-79.35 584.34,-85.76"/>
</a>
</g>
</g>
<!-- Node12 -->
<g id="Node000012" class="node">
<title>Node12</title>
<g id="a_Node000012"><a xlink:title=" ">
<polygon fill="#e0e0e0" stroke="#999999" points="576,-77.5 525.5,-77.5 525.5,-56.75 576,-56.75 576,-77.5"/>
<text text-anchor="middle" x="550.75" y="-64" font-family="Helvetica,sans-Serif" font-size="10.00">variant</text>
</a>
</g>
</g>
<!-- Node6&#45;&gt;Node12 -->
<g id="edge11_Node000006_Node000012" class="edge">
<title>Node6&#45;&gt;Node12</title>
<g id="a_edge11_Node000006_Node000012"><a xlink:title=" ">
<path fill="none" stroke="#63b8ff" d="M488.64,-119.43C499.93,-110.11 517.11,-95.91 530.55,-84.81"/>
<polygon fill="#63b8ff" stroke="#63b8ff" points="532.49,-87.75 537.97,-78.68 528.03,-82.35 532.49,-87.75"/>
</a>
</g>
</g>
<!-- Node8 -->
<g id="Node000008" class="node">
<title>Node8</title>
<g id="a_Node000008"><a xlink:title=" ">
<polygon fill="#e0e0e0" stroke="#999999" points="322.12,-20.75 281.38,-20.75 281.38,0 322.12,0 322.12,-20.75"/>
<text text-anchor="middle" x="301.75" y="-7.25" font-family="Helvetica,sans-Serif" font-size="10.00">tuple</text>
</a>
</g>
</g>
<!-- Node7&#45;&gt;Node8 -->
<g id="edge7_Node000007_Node000008" class="edge">
<title>Node7&#45;&gt;Node8</title>
<g id="a_edge7_Node000007_Node000008"><a xlink:title=" ">
<path fill="none" stroke="#63b8ff" d="M301.75,-56.34C301.75,-49.72 301.75,-40.72 301.75,-32.52"/>
<polygon fill="#63b8ff" stroke="#63b8ff" points="305.25,-32.59 301.75,-22.59 298.25,-32.59 305.25,-32.59"/>
</a>
</g>
</g>
<!-- Node13&#45;&gt;Node11 -->
<g id="edge14_Node000013_Node000011" class="edge">
<title>Node13&#45;&gt;Node11</title>
<g id="a_edge14_Node000013_Node000011"><a xlink:title=" ">
<path fill="none" stroke="#63b8ff" d="M615.75,-119.43C615.75,-111.27 615.75,-99.38 615.75,-89.1"/>
<polygon fill="#63b8ff" stroke="#63b8ff" points="619.25,-89.23 615.75,-79.23 612.25,-89.23 619.25,-89.23"/>
</a>
</g>
</g>
<!-- Node14 -->
<g id="Node000014" class="node">
<title>Node14</title>
<g id="a_Node000014"><a xlink:title=" ">
<polygon fill="#e0e0e0" stroke="#999999" points="715.5,-77.5 656,-77.5 656,-56.75 715.5,-56.75 715.5,-77.5"/>
<text text-anchor="middle" x="685.75" y="-64" font-family="Helvetica,sans-Serif" font-size="10.00">iostream</text>
</a>
</g>
</g>
<!-- Node13&#45;&gt;Node14 -->
<g id="edge13_Node000013_Node000014" class="edge">
<title>Node13&#45;&gt;Node14</title>
<g id="a_edge13_Node000013_Node000014"><a xlink:title=" ">
<path fill="none" stroke="#63b8ff" d="M627,-119.43C637.57,-110.2 653.62,-96.18 666.27,-85.13"/>
<polygon fill="#63b8ff" stroke="#63b8ff" points="668.39,-87.93 673.62,-78.72 663.79,-82.66 668.39,-87.93"/>
</a>
</g>
</g>
<!-- Node15 -->
<g id="Node000015" class="node">
<title>Node15</title>
<g id="a_Node000015"><a xlink:title=" ">
<polygon fill="#e0e0e0" stroke="#999999" points="833.75,-77.5 733.75,-77.5 733.75,-56.75 833.75,-56.75 833.75,-77.5"/>
<text text-anchor="middle" x="783.75" y="-64" font-family="Helvetica,sans-Serif" font-size="10.00">boost/format.hpp</text>
</a>
</g>
</g>
<!-- Node13&#45;&gt;Node15 -->
<g id="edge15_Node000013_Node000015" class="edge">
<title>Node13&#45;&gt;Node15</title>
<g id="a_edge15_Node000013_Node000015"><a xlink:title=" ">
<path fill="none" stroke="#63b8ff" d="M642.74,-119.43C670.79,-109.23 714.88,-93.18 746.29,-81.75"/>
<polygon fill="#63b8ff" stroke="#63b8ff" points="747.2,-85.15 755.4,-78.44 744.81,-78.57 747.2,-85.15"/>
</a>
</g>
</g>
<!-- Node16 -->
<g id="Node000016" class="node">
<title>Node16</title>
<g id="a_Node000016"><a xlink:href="ansicolor_8hh.html" target="_top" xlink:title="Some ANSI escape sequences.">
<polygon fill="white" stroke="#666666" points="971.88,-77.5 851.62,-77.5 851.62,-56.75 971.88,-56.75 971.88,-77.5"/>
<text text-anchor="middle" x="911.75" y="-64" font-family="Helvetica,sans-Serif" font-size="10.00">lix/libutil/ansicolor.hh</text>
</a>
</g>
</g>
<!-- Node13&#45;&gt;Node16 -->
<g id="edge16_Node000013_Node000016" class="edge">
<title>Node13&#45;&gt;Node16</title>
<g id="a_edge16_Node000013_Node000016"><a xlink:title=" ">
<path fill="none" stroke="#63b8ff" d="M648.79,-119.44C656.31,-117.35 664.28,-115.25 671.75,-113.5 728.12,-100.27 792.64,-88.24 840.58,-79.9"/>
<polygon fill="#63b8ff" stroke="#63b8ff" points="841.02,-83.38 850.28,-78.22 839.83,-76.48 841.02,-83.38"/>
</a>
</g>
</g>
<!-- Node26 -->
<g id="Node000026" class="node">
<title>Node26</title>
<g id="a_Node000026"><a xlink:title=" ">
<polygon fill="#e0e0e0" stroke="#999999" points="1456.62,-140.62 1280.88,-140.62 1280.88,-119.88 1456.62,-119.88 1456.62,-140.62"/>
<text text-anchor="middle" x="1368.75" y="-127.12" font-family="Helvetica,sans-Serif" font-size="10.00">boost/outcome/std_outcome.hpp</text>
</a>
</g>
</g>
<!-- Node25&#45;&gt;Node26 -->
<g id="edge27_Node000025_Node000026" class="edge">
<title>Node25&#45;&gt;Node26</title>
<g id="a_edge27_Node000025_Node000026"><a xlink:title=" ">
<path fill="none" stroke="#63b8ff" d="M1524.87,-182.55C1493.55,-172.26 1444.14,-156.03 1409.31,-144.58"/>
<polygon fill="#63b8ff" stroke="#63b8ff" points="1410.59,-141.32 1400,-141.52 1408.41,-147.97 1410.59,-141.32"/>
</a>
</g>
</g>
<!-- Node27 -->
<g id="Node000027" class="node">
<title>Node27</title>
<g id="a_Node000027"><a xlink:title=" ">
<polygon fill="#e0e0e0" stroke="#999999" points="1635.12,-140.62 1474.38,-140.62 1474.38,-119.88 1635.12,-119.88 1635.12,-140.62"/>
<text text-anchor="middle" x="1554.75" y="-127.12" font-family="Helvetica,sans-Serif" font-size="10.00">boost/outcome/std_result.hpp</text>
</a>
</g>
</g>
<!-- Node25&#45;&gt;Node27 -->
<g id="edge28_Node000025_Node000027" class="edge">
<title>Node25&#45;&gt;Node27</title>
<g id="a_edge28_Node000025_Node000027"><a xlink:title=" ">
<path fill="none" stroke="#63b8ff" d="M1554.75,-182.55C1554.75,-174.4 1554.75,-162.51 1554.75,-152.23"/>
<polygon fill="#63b8ff" stroke="#63b8ff" points="1558.25,-152.36 1554.75,-142.36 1551.25,-152.36 1558.25,-152.36"/>
</a>
</g>
</g>
<!-- Node28 -->
<g id="Node000028" class="node">
<title>Node28</title>
<g id="a_Node000028"><a xlink:title=" ">
<polygon fill="#e0e0e0" stroke="#999999" points="1782.75,-147 1652.75,-147 1652.75,-113.5 1782.75,-113.5 1782.75,-147"/>
<text text-anchor="start" x="1660.75" y="-133.5" font-family="Helvetica,sans-Serif" font-size="10.00">boost/outcome/success</text>
<text text-anchor="middle" x="1717.75" y="-120.75" font-family="Helvetica,sans-Serif" font-size="10.00">_failure.hpp</text>
</a>
</g>
</g>
<!-- Node25&#45;&gt;Node28 -->
<g id="edge29_Node000025_Node000028" class="edge">
<title>Node25&#45;&gt;Node28</title>
<g id="a_edge29_Node000025_Node000028"><a xlink:title=" ">
<path fill="none" stroke="#63b8ff" d="M1580.94,-182.55C1603.28,-174.18 1636.13,-161.86 1664.03,-151.39"/>
<polygon fill="#63b8ff" stroke="#63b8ff" points="1664.91,-154.8 1673.04,-148.02 1662.45,-148.25 1664.91,-154.8"/>
</a>
</g>
</g>
<!-- Node29 -->
<g id="Node000029" class="node">
<title>Node29</title>
<g id="a_Node000029"><a xlink:title=" ">
<polygon fill="#e0e0e0" stroke="#999999" points="1864.75,-140.62 1800.75,-140.62 1800.75,-119.88 1864.75,-119.88 1864.75,-140.62"/>
<text text-anchor="middle" x="1832.75" y="-127.12" font-family="Helvetica,sans-Serif" font-size="10.00">exception</text>
</a>
</g>
</g>
<!-- Node25&#45;&gt;Node29 -->
<g id="edge30_Node000025_Node000029" class="edge">
<title>Node25&#45;&gt;Node29</title>
<g id="a_edge30_Node000025_Node000029"><a xlink:title=" ">
<path fill="none" stroke="#63b8ff" d="M1607.25,-183.44C1666.15,-173.23 1757.86,-156.67 1791.75,-147 1794.13,-146.32 1796.57,-145.56 1799.01,-144.75"/>
<polygon fill="#63b8ff" stroke="#63b8ff" points="1799.91,-148.14 1808.15,-141.48 1797.56,-141.55 1799.91,-148.14"/>
</a>
</g>
</g>
</g>
</svg>
