<?xml version="1.0" encoding="UTF-8" standalone="no"?>
<!DOCTYPE svg PUBLIC "-//W3C//DTD SVG 1.1//EN"
 "http://www.w3.org/Graphics/SVG/1.1/DTD/svg11.dtd">
<!-- Generated by graphviz version 12.2.1 (0)
 -->
<!-- Title: lix/libutil/async&#45;semaphore.hh Pages: 1 -->
<svg width="694pt" height="86pt"
 viewBox="0.00 0.00 693.50 85.50" xmlns="http://www.w3.org/2000/svg" xmlns:xlink="http://www.w3.org/1999/xlink">
<g id="graph0" class="graph" transform="scale(1 1) rotate(0) translate(4 81.5)">
<title>lix/libutil/async&#45;semaphore.hh</title>
<!-- Node1 -->
<g id="Node000001" class="node">
<title>Node1</title>
<g id="a_Node000001"><a xlink:title="A semaphore implementation usable from within a KJ event loop.">
<polygon fill="#999999" stroke="#666666" points="417.5,-77.5 253.75,-77.5 253.75,-56.75 417.5,-56.75 417.5,-77.5"/>
<text text-anchor="middle" x="335.62" y="-64" font-family="Helvetica,sans-Serif" font-size="10.00">lix/libutil/async&#45;semaphore.hh</text>
</a>
</g>
</g>
<!-- Node2 -->
<g id="Node000002" class="node">
<title>Node2</title>
<g id="a_Node000002"><a xlink:title=" ">
<polygon fill="#e0e0e0" stroke="#999999" points="51.25,-20.75 0,-20.75 0,0 51.25,0 51.25,-20.75"/>
<text text-anchor="middle" x="25.62" y="-7.25" font-family="Helvetica,sans-Serif" font-size="10.00">cassert</text>
</a>
</g>
</g>
<!-- Node1&#45;&gt;Node2 -->
<g id="edge1_Node000001_Node000002" class="edge">
<title>Node1&#45;&gt;Node2</title>
<g id="a_edge1_Node000001_Node000002"><a xlink:title=" ">
<path fill="none" stroke="#63b8ff" d="M262.59,-56.27C209.44,-48.61 135.57,-36.95 62.75,-21.27"/>
<polygon fill="#63b8ff" stroke="#63b8ff" points="63.54,-17.86 53.02,-19.15 62.05,-24.7 63.54,-17.86"/>
</a>
</g>
</g>
<!-- Node3 -->
<g id="Node000003" class="node">
<title>Node3</title>
<g id="a_Node000003"><a xlink:title=" ">
<polygon fill="#e0e0e0" stroke="#999999" points="134.38,-20.75 68.88,-20.75 68.88,0 134.38,0 134.38,-20.75"/>
<text text-anchor="middle" x="101.62" y="-7.25" font-family="Helvetica,sans-Serif" font-size="10.00">kj/async.h</text>
</a>
</g>
</g>
<!-- Node1&#45;&gt;Node3 -->
<g id="edge2_Node000001_Node000003" class="edge">
<title>Node1&#45;&gt;Node3</title>
<g id="a_edge2_Node000001_Node000003"><a xlink:title=" ">
<path fill="none" stroke="#63b8ff" d="M293.52,-56.27C251.82,-46.52 188.21,-31.63 145.8,-21.71"/>
<polygon fill="#63b8ff" stroke="#63b8ff" points="146.71,-18.33 136.18,-19.46 145.12,-25.15 146.71,-18.33"/>
</a>
</g>
</g>
<!-- Node4 -->
<g id="Node000004" class="node">
<title>Node4</title>
<g id="a_Node000004"><a xlink:title=" ">
<polygon fill="#e0e0e0" stroke="#999999" points="232.5,-20.75 152.75,-20.75 152.75,0 232.5,0 232.5,-20.75"/>
<text text-anchor="middle" x="192.62" y="-7.25" font-family="Helvetica,sans-Serif" font-size="10.00">kj/common.h</text>
</a>
</g>
</g>
<!-- Node1&#45;&gt;Node4 -->
<g id="edge3_Node000001_Node000004" class="edge">
<title>Node1&#45;&gt;Node4</title>
<g id="a_edge3_Node000001_Node000004"><a xlink:title=" ">
<path fill="none" stroke="#63b8ff" d="M310.06,-56.34C287.39,-47.66 254.03,-34.88 228.65,-25.17"/>
<polygon fill="#63b8ff" stroke="#63b8ff" points="229.97,-21.93 219.38,-21.62 227.47,-28.46 229.97,-21.93"/>
</a>
</g>
</g>
<!-- Node5 -->
<g id="Node000005" class="node">
<title>Node5</title>
<g id="a_Node000005"><a xlink:title=" ">
<polygon fill="#e0e0e0" stroke="#999999" points="335.12,-20.75 250.12,-20.75 250.12,0 335.12,0 335.12,-20.75"/>
<text text-anchor="middle" x="292.62" y="-7.25" font-family="Helvetica,sans-Serif" font-size="10.00">kj/exception.h</text>
</a>
</g>
</g>
<!-- Node1&#45;&gt;Node5 -->
<g id="edge4_Node000001_Node000005" class="edge">
<title>Node1&#45;&gt;Node5</title>
<g id="a_edge4_Node000001_Node000005"><a xlink:title=" ">
<path fill="none" stroke="#63b8ff" d="M327.94,-56.34C322.19,-49.02 314.16,-38.79 307.21,-29.94"/>
<polygon fill="#63b8ff" stroke="#63b8ff" points="310.11,-27.97 301.18,-22.27 304.6,-32.3 310.11,-27.97"/>
</a>
</g>
</g>
<!-- Node6 -->
<g id="Node000006" class="node">
<title>Node6</title>
<g id="a_Node000006"><a xlink:title=" ">
<polygon fill="#e0e0e0" stroke="#999999" points="405.62,-20.75 353.62,-20.75 353.62,0 405.62,0 405.62,-20.75"/>
<text text-anchor="middle" x="379.62" y="-7.25" font-family="Helvetica,sans-Serif" font-size="10.00">kj/list.h</text>
</a>
</g>
</g>
<!-- Node1&#45;&gt;Node6 -->
<g id="edge5_Node000001_Node000006" class="edge">
<title>Node1&#45;&gt;Node6</title>
<g id="a_edge5_Node000001_Node000006"><a xlink:title=" ">
<path fill="none" stroke="#63b8ff" d="M343.49,-56.34C349.37,-49.02 357.59,-38.79 364.7,-29.94"/>
<polygon fill="#63b8ff" stroke="#63b8ff" points="367.34,-32.25 370.88,-22.26 361.89,-27.86 367.34,-32.25"/>
</a>
</g>
</g>
<!-- Node7 -->
<g id="Node000007" class="node">
<title>Node7</title>
<g id="a_Node000007"><a xlink:title=" ">
<polygon fill="#e0e0e0" stroke="#999999" points="535.62,-20.75 423.62,-20.75 423.62,0 535.62,0 535.62,-20.75"/>
<text text-anchor="middle" x="479.62" y="-7.25" font-family="Helvetica,sans-Serif" font-size="10.00">kj/source&#45;location.h</text>
</a>
</g>
</g>
<!-- Node1&#45;&gt;Node7 -->
<g id="edge6_Node000001_Node000007" class="edge">
<title>Node1&#45;&gt;Node7</title>
<g id="a_edge6_Node000001_Node000007"><a xlink:title=" ">
<path fill="none" stroke="#63b8ff" d="M361.37,-56.34C384.2,-47.66 417.8,-34.88 443.35,-25.17"/>
<polygon fill="#63b8ff" stroke="#63b8ff" points="444.59,-28.44 452.69,-21.62 442.1,-21.9 444.59,-28.44"/>
</a>
</g>
</g>
<!-- Node8 -->
<g id="Node000008" class="node">
<title>Node8</title>
<g id="a_Node000008"><a xlink:title=" ">
<polygon fill="#e0e0e0" stroke="#999999" points="611.25,-20.75 554,-20.75 554,0 611.25,0 611.25,-20.75"/>
<text text-anchor="middle" x="582.62" y="-7.25" font-family="Helvetica,sans-Serif" font-size="10.00">memory</text>
</a>
</g>
</g>
<!-- Node1&#45;&gt;Node8 -->
<g id="edge7_Node000001_Node000008" class="edge">
<title>Node1&#45;&gt;Node8</title>
<g id="a_edge7_Node000001_Node000008"><a xlink:title=" ">
<path fill="none" stroke="#63b8ff" d="M382.61,-56.32C422.62,-47.88 481.91,-35.17 542.65,-21.16"/>
<polygon fill="#63b8ff" stroke="#63b8ff" points="543.17,-24.63 552.12,-18.97 541.59,-17.81 543.17,-24.63"/>
</a>
</g>
</g>
<!-- Node9 -->
<g id="Node000009" class="node">
<title>Node9</title>
<g id="a_Node000009"><a xlink:title=" ">
<polygon fill="#e0e0e0" stroke="#999999" points="685.5,-20.75 629.75,-20.75 629.75,0 685.5,0 685.5,-20.75"/>
<text text-anchor="middle" x="657.62" y="-7.25" font-family="Helvetica,sans-Serif" font-size="10.00">optional</text>
</a>
</g>
</g>
<!-- Node1&#45;&gt;Node9 -->
<g id="edge8_Node000001_Node000009" class="edge">
<title>Node1&#45;&gt;Node9</title>
<g id="a_edge8_Node000001_Node000009"><a xlink:title=" ">
<path fill="none" stroke="#63b8ff" d="M409.17,-56.28C464.33,-48.46 541.88,-36.58 618.59,-21.02"/>
<polygon fill="#63b8ff" stroke="#63b8ff" points="618.83,-24.55 627.92,-19.11 617.42,-17.69 618.83,-24.55"/>
</a>
</g>
</g>
</g>
</svg>
