<?xml version="1.0" encoding="UTF-8" standalone="no"?>
<!DOCTYPE svg PUBLIC "-//W3C//DTD SVG 1.1//EN"
 "http://www.w3.org/Graphics/SVG/1.1/DTD/svg11.dtd">
<!-- Generated by graphviz version 12.2.1 (0)
 -->
<!-- Title: lix/libfetchers/attrs.hh Pages: 1 -->
<svg width="688pt" height="477pt"
 viewBox="0.00 0.00 687.75 477.00" xmlns="http://www.w3.org/2000/svg" xmlns:xlink="http://www.w3.org/1999/xlink">
<g id="graph0" class="graph" transform="scale(1 1) rotate(0) translate(4 473)">
<title>lix/libfetchers/attrs.hh</title>
<!-- Node1 -->
<g id="Node000001" class="node">
<title>Node1</title>
<g id="a_Node000001"><a xlink:title=" ">
<polygon fill="#999999" stroke="#666666" points="451,-469 327.75,-469 327.75,-448.25 451,-448.25 451,-469"/>
<text text-anchor="middle" x="389.38" y="-455.5" font-family="Helvetica,sans-Serif" font-size="10.00">lix/libfetchers/attrs.hh</text>
</a>
</g>
</g>
<!-- Node2 -->
<g id="Node000002" class="node">
<title>Node2</title>
<g id="a_Node000002"><a xlink:href="fetchers_8hh.html" target="_top" xlink:title=" ">
<polygon fill="white" stroke="#666666" points="459.62,-412.25 319.12,-412.25 319.12,-391.5 459.62,-391.5 459.62,-412.25"/>
<text text-anchor="middle" x="389.38" y="-398.75" font-family="Helvetica,sans-Serif" font-size="10.00">lix/libfetchers/fetchers.hh</text>
</a>
</g>
</g>
<!-- Node1&#45;&gt;Node2 -->
<g id="edge1_Node000001_Node000002" class="edge">
<title>Node1&#45;&gt;Node2</title>
<g id="a_edge1_Node000001_Node000002"><a xlink:title=" ">
<path fill="none" stroke="#63b8ff" d="M389.38,-436.38C389.38,-428.16 389.38,-419.18 389.38,-412.58"/>
<polygon fill="#63b8ff" stroke="#63b8ff" points="385.88,-436.32 389.38,-446.32 392.88,-436.32 385.88,-436.32"/>
</a>
</g>
</g>
<!-- Node3 -->
<g id="Node000003" class="node">
<title>Node3</title>
<g id="a_Node000003"><a xlink:href="flakeref_8hh.html" target="_top" xlink:title=" ">
<polygon fill="white" stroke="#666666" points="242.88,-349.12 97.88,-349.12 97.88,-328.38 242.88,-328.38 242.88,-349.12"/>
<text text-anchor="middle" x="170.38" y="-335.62" font-family="Helvetica,sans-Serif" font-size="10.00">lix/libexpr/flake/flakeref.hh</text>
</a>
</g>
</g>
<!-- Node2&#45;&gt;Node3 -->
<g id="edge2_Node000002_Node000003" class="edge">
<title>Node2&#45;&gt;Node3</title>
<g id="a_edge2_Node000002_Node000003"><a xlink:title=" ">
<path fill="none" stroke="#63b8ff" d="M343.11,-387.96C302,-376.49 242.8,-359.96 205.47,-349.55"/>
<polygon fill="#63b8ff" stroke="#63b8ff" points="342.16,-391.33 352.73,-390.65 344.04,-384.59 342.16,-391.33"/>
</a>
</g>
</g>
<!-- Node12 -->
<g id="Node000012" class="node">
<title>Node12</title>
<g id="a_Node000012"><a xlink:href="builtin-fetchers_8hh_source.html" target="_top" xlink:title=" ">
<polygon fill="white" stroke="#666666" points="377.62,-355.5 261.12,-355.5 261.12,-322 377.62,-322 377.62,-355.5"/>
<text text-anchor="start" x="269.12" y="-342" font-family="Helvetica,sans-Serif" font-size="10.00">lix/libfetchers/builtin</text>
<text text-anchor="middle" x="319.38" y="-329.25" font-family="Helvetica,sans-Serif" font-size="10.00">&#45;fetchers.hh</text>
</a>
</g>
</g>
<!-- Node2&#45;&gt;Node12 -->
<g id="edge14_Node000002_Node000012" class="edge">
<title>Node2&#45;&gt;Node12</title>
<g id="a_edge14_Node000002_Node000012"><a xlink:title=" ">
<path fill="none" stroke="#63b8ff" d="M369.7,-383.69C359.75,-375.01 347.75,-364.53 337.97,-355.98"/>
<polygon fill="#63b8ff" stroke="#63b8ff" points="367.15,-386.12 376.99,-390.06 371.76,-380.84 367.15,-386.12"/>
</a>
</g>
</g>
<!-- Node13 -->
<g id="Node000013" class="node">
<title>Node13</title>
<g id="a_Node000013"><a xlink:href="cache_8hh.html" target="_top" xlink:title=" ">
<polygon fill="white" stroke="#666666" points="525,-349.12 395.75,-349.12 395.75,-328.38 525,-328.38 525,-349.12"/>
<text text-anchor="middle" x="460.38" y="-335.62" font-family="Helvetica,sans-Serif" font-size="10.00">lix/libfetchers/cache.hh</text>
</a>
</g>
</g>
<!-- Node2&#45;&gt;Node13 -->
<g id="edge15_Node000002_Node000013" class="edge">
<title>Node2&#45;&gt;Node13</title>
<g id="a_edge15_Node000002_Node000013"><a xlink:title=" ">
<path fill="none" stroke="#63b8ff" d="M409.44,-383.6C422.34,-372.5 438.6,-358.5 449.23,-349.34"/>
<polygon fill="#63b8ff" stroke="#63b8ff" points="407.22,-380.89 401.93,-390.07 411.79,-386.19 407.22,-380.89"/>
</a>
</g>
</g>
<!-- Node14 -->
<g id="Node000014" class="node">
<title>Node14</title>
<g id="a_Node000014"><a xlink:href="libfetchers_2registry_8hh.html" target="_top" xlink:title=" ">
<polygon fill="white" stroke="#666666" points="679.75,-349.12 543,-349.12 543,-328.38 679.75,-328.38 679.75,-349.12"/>
<text text-anchor="middle" x="611.38" y="-335.62" font-family="Helvetica,sans-Serif" font-size="10.00">lix/libfetchers/registry.hh</text>
</a>
</g>
</g>
<!-- Node2&#45;&gt;Node14 -->
<g id="edge16_Node000002_Node000014" class="edge">
<title>Node2&#45;&gt;Node14</title>
<g id="a_edge16_Node000002_Node000014"><a xlink:title=" ">
<path fill="none" stroke="#63b8ff" d="M436.01,-388.03C477.69,-376.56 537.88,-359.99 575.8,-349.55"/>
<polygon fill="#63b8ff" stroke="#63b8ff" points="435.21,-384.62 426.5,-390.65 437.07,-391.37 435.21,-384.62"/>
</a>
</g>
</g>
<!-- Node4 -->
<g id="Node000004" class="node">
<title>Node4</title>
<g id="a_Node000004"><a xlink:href="cmd-profiles_8hh.html" target="_top" xlink:title=" ">
<polygon fill="white" stroke="#666666" points="142.75,-286 0,-286 0,-265.25 142.75,-265.25 142.75,-286"/>
<text text-anchor="middle" x="71.38" y="-272.5" font-family="Helvetica,sans-Serif" font-size="10.00">lix/libcmd/cmd&#45;profiles.hh</text>
</a>
</g>
</g>
<!-- Node3&#45;&gt;Node4 -->
<g id="edge3_Node000003_Node000004" class="edge">
<title>Node3&#45;&gt;Node4</title>
<g id="a_edge3_Node000003_Node000004"><a xlink:title=" ">
<path fill="none" stroke="#63b8ff" d="M144.78,-321.95C126.59,-310.72 102.74,-295.99 87.24,-286.42"/>
<polygon fill="#63b8ff" stroke="#63b8ff" points="142.83,-324.86 153.18,-327.13 146.51,-318.9 142.83,-324.86"/>
</a>
</g>
</g>
<!-- Node5 -->
<g id="Node000005" class="node">
<title>Node5</title>
<g id="a_Node000005"><a xlink:href="libexpr_2flake_2flake_8hh.html" target="_top" xlink:title=" ">
<polygon fill="white" stroke="#666666" points="236.5,-229.25 104.25,-229.25 104.25,-208.5 236.5,-208.5 236.5,-229.25"/>
<text text-anchor="middle" x="170.38" y="-215.75" font-family="Helvetica,sans-Serif" font-size="10.00">lix/libexpr/flake/flake.hh</text>
</a>
</g>
</g>
<!-- Node3&#45;&gt;Node5 -->
<g id="edge4_Node000003_Node000005" class="edge">
<title>Node3&#45;&gt;Node5</title>
<g id="a_edge4_Node000003_Node000005"><a xlink:title=" ">
<path fill="none" stroke="#63b8ff" d="M170.38,-316.71C170.38,-291.02 170.38,-248.67 170.38,-229.65"/>
<polygon fill="#63b8ff" stroke="#63b8ff" points="166.88,-316.59 170.38,-326.59 173.88,-316.59 166.88,-316.59"/>
</a>
</g>
</g>
<!-- Node11 -->
<g id="Node000011" class="node">
<title>Node11</title>
<g id="a_Node000011"><a xlink:href="lockfile_8hh.html" target="_top" xlink:title=" ">
<polygon fill="white" stroke="#666666" points="342.5,-286 198.25,-286 198.25,-265.25 342.5,-265.25 342.5,-286"/>
<text text-anchor="middle" x="270.38" y="-272.5" font-family="Helvetica,sans-Serif" font-size="10.00">lix/libexpr/flake/lockfile.hh</text>
</a>
</g>
</g>
<!-- Node3&#45;&gt;Node11 -->
<g id="edge11_Node000003_Node000011" class="edge">
<title>Node3&#45;&gt;Node11</title>
<g id="a_edge11_Node000003_Node000011"><a xlink:title=" ">
<path fill="none" stroke="#63b8ff" d="M196.23,-321.95C214.6,-310.72 238.69,-295.99 254.35,-286.42"/>
<polygon fill="#63b8ff" stroke="#63b8ff" points="194.44,-318.94 187.73,-327.14 198.09,-324.91 194.44,-318.94"/>
</a>
</g>
</g>
<!-- Node6 -->
<g id="Node000006" class="node">
<title>Node6</title>
<g id="a_Node000006"><a xlink:href="installable-value_8hh.html" target="_top" xlink:title=" ">
<polygon fill="white" stroke="#666666" points="208.38,-172.5 90.38,-172.5 90.38,-139 208.38,-139 208.38,-172.5"/>
<text text-anchor="start" x="98.38" y="-159" font-family="Helvetica,sans-Serif" font-size="10.00">lix/libcmd/installable</text>
<text text-anchor="middle" x="149.38" y="-146.25" font-family="Helvetica,sans-Serif" font-size="10.00">&#45;value.hh</text>
</a>
</g>
</g>
<!-- Node5&#45;&gt;Node6 -->
<g id="edge5_Node000005_Node000006" class="edge">
<title>Node5&#45;&gt;Node6</title>
<g id="a_edge5_Node000005_Node000006"><a xlink:title=" ">
<path fill="none" stroke="#63b8ff" d="M163.35,-197.43C160.62,-189.47 157.53,-180.48 154.95,-172.98"/>
<polygon fill="#63b8ff" stroke="#63b8ff" points="159.95,-198.3 166.51,-206.62 166.57,-196.03 159.95,-198.3"/>
</a>
</g>
</g>
<!-- Node7 -->
<g id="Node000007" class="node">
<title>Node7</title>
<g id="a_Node000007"><a xlink:href="command_8hh.html" target="_top" xlink:title=" ">
<polygon fill="white" stroke="#666666" points="346.75,-96.62 216,-96.62 216,-75.88 346.75,-75.88 346.75,-96.62"/>
<text text-anchor="middle" x="281.38" y="-83.12" font-family="Helvetica,sans-Serif" font-size="10.00">lix/libcmd/command.hh</text>
</a>
</g>
</g>
<!-- Node6&#45;&gt;Node7 -->
<g id="edge6_Node000006_Node000007" class="edge">
<title>Node6&#45;&gt;Node7</title>
<g id="a_edge6_Node000006_Node000007"><a xlink:title=" ">
<path fill="none" stroke="#63b8ff" d="M191.2,-133.36C215.03,-121.17 243.75,-106.49 262.27,-97.02"/>
<polygon fill="#63b8ff" stroke="#63b8ff" points="189.65,-130.22 182.34,-137.89 192.84,-136.46 189.65,-130.22"/>
</a>
</g>
</g>
<!-- Node8 -->
<g id="Node000008" class="node">
<title>Node8</title>
<g id="a_Node000008"><a xlink:href="installable-attr-path_8hh.html" target="_top" xlink:title=" ">
<polygon fill="white" stroke="#666666" points="162.38,-33.5 44.38,-33.5 44.38,0 162.38,0 162.38,-33.5"/>
<text text-anchor="start" x="52.38" y="-20" font-family="Helvetica,sans-Serif" font-size="10.00">lix/libcmd/installable</text>
<text text-anchor="middle" x="103.38" y="-7.25" font-family="Helvetica,sans-Serif" font-size="10.00">&#45;attr&#45;path.hh</text>
</a>
</g>
</g>
<!-- Node6&#45;&gt;Node8 -->
<g id="edge9_Node000006_Node000008" class="edge">
<title>Node6&#45;&gt;Node8</title>
<g id="a_edge9_Node000006_Node000008"><a xlink:title=" ">
<path fill="none" stroke="#63b8ff" d="M100.27,-132.66C88.74,-125 77.92,-115.19 71.38,-103 59.04,-80.02 75.9,-51.25 89.44,-33.7"/>
<polygon fill="#63b8ff" stroke="#63b8ff" points="98.38,-135.61 108.75,-137.81 102.02,-129.63 98.38,-135.61"/>
</a>
</g>
</g>
<!-- Node10 -->
<g id="Node000010" class="node">
<title>Node10</title>
<g id="a_Node000010"><a xlink:href="installable-flake_8hh.html" target="_top" xlink:title=" ">
<polygon fill="white" stroke="#666666" points="198.38,-103 80.38,-103 80.38,-69.5 198.38,-69.5 198.38,-103"/>
<text text-anchor="start" x="88.38" y="-89.5" font-family="Helvetica,sans-Serif" font-size="10.00">lix/libcmd/installable</text>
<text text-anchor="middle" x="139.38" y="-76.75" font-family="Helvetica,sans-Serif" font-size="10.00">&#45;flake.hh</text>
</a>
</g>
</g>
<!-- Node6&#45;&gt;Node10 -->
<g id="edge10_Node000006_Node000010" class="edge">
<title>Node6&#45;&gt;Node10</title>
<g id="a_edge10_Node000006_Node000010"><a xlink:title=" ">
<path fill="none" stroke="#63b8ff" d="M145.35,-127.6C144.12,-119.29 142.81,-110.43 141.73,-103.13"/>
<polygon fill="#63b8ff" stroke="#63b8ff" points="141.86,-127.88 146.78,-137.26 148.78,-126.85 141.86,-127.88"/>
</a>
</g>
</g>
<!-- Node7&#45;&gt;Node8 -->
<g id="edge7_Node000007_Node000008" class="edge">
<title>Node7&#45;&gt;Node8</title>
<g id="a_edge7_Node000007_Node000008"><a xlink:title=" ">
<path fill="none" stroke="#63b8ff" d="M244.73,-71.36C216.11,-60.5 176.26,-45.39 146.17,-33.98"/>
<polygon fill="#63b8ff" stroke="#63b8ff" points="243.49,-74.63 254.08,-74.9 245.97,-68.08 243.49,-74.63"/>
</a>
</g>
</g>
<!-- Node9 -->
<g id="Node000009" class="node">
<title>Node9</title>
<g id="a_Node000009"><a xlink:href="nix_2daemon_8cc.html" target="_top" xlink:title=" ">
<polygon fill="white" stroke="#666666" points="332.5,-27.12 230.25,-27.12 230.25,-6.38 332.5,-6.38 332.5,-27.12"/>
<text text-anchor="middle" x="281.38" y="-13.62" font-family="Helvetica,sans-Serif" font-size="10.00">lix/nix/daemon.cc</text>
</a>
</g>
</g>
<!-- Node7&#45;&gt;Node9 -->
<g id="edge8_Node000007_Node000009" class="edge">
<title>Node7&#45;&gt;Node9</title>
<g id="a_edge8_Node000007_Node000009"><a xlink:title=" ">
<path fill="none" stroke="#63b8ff" d="M281.38,-64.44C281.38,-52.09 281.38,-37.02 281.38,-27.4"/>
<polygon fill="#63b8ff" stroke="#63b8ff" points="277.88,-64.07 281.38,-74.07 284.88,-64.07 277.88,-64.07"/>
</a>
</g>
</g>
<!-- Node11&#45;&gt;Node5 -->
<g id="edge13_Node000011_Node000005" class="edge">
<title>Node11&#45;&gt;Node5</title>
<g id="a_edge13_Node000011_Node000005"><a xlink:title=" ">
<path fill="none" stroke="#63b8ff" d="M242.83,-259.54C225.36,-249.98 203.27,-237.88 188.1,-229.58"/>
<polygon fill="#63b8ff" stroke="#63b8ff" points="240.72,-262.38 251.17,-264.11 244.08,-256.24 240.72,-262.38"/>
</a>
</g>
</g>
<!-- Node11&#45;&gt;Node7 -->
<g id="edge12_Node000011_Node000007" class="edge">
<title>Node11&#45;&gt;Node7</title>
<g id="a_edge12_Node000011_Node000007"><a xlink:title=" ">
<path fill="none" stroke="#63b8ff" d="M271.62,-253.43C274,-212.95 279.1,-126.05 280.8,-96.96"/>
<polygon fill="#63b8ff" stroke="#63b8ff" points="268.13,-253.12 271.04,-263.3 275.12,-253.53 268.13,-253.12"/>
</a>
</g>
</g>
</g>
</svg>
