<?xml version="1.0" encoding="UTF-8" standalone="no"?>
<!DOCTYPE svg PUBLIC "-//W3C//DTD SVG 1.1//EN"
 "http://www.w3.org/Graphics/SVG/1.1/DTD/svg11.dtd">
<!-- Generated by graphviz version 12.2.1 (0)
 -->
<!-- Title: lix/libstore/build&#45;result.hh Pages: 1 -->
<svg width="863pt" height="332pt"
 viewBox="0.00 0.00 863.38 332.25" xmlns="http://www.w3.org/2000/svg" xmlns:xlink="http://www.w3.org/1999/xlink">
<g id="graph0" class="graph" transform="scale(1 1) rotate(0) translate(4 328.25)">
<title>lix/libstore/build&#45;result.hh</title>
<!-- Node1 -->
<g id="Node000001" class="node">
<title>Node1</title>
<g id="a_Node000001"><a xlink:title=" ">
<polygon fill="#999999" stroke="#666666" points="376.38,-324.25 281.62,-324.25 281.62,-290.75 376.38,-290.75 376.38,-324.25"/>
<text text-anchor="start" x="289.62" y="-310.75" font-family="Helvetica,sans-Serif" font-size="10.00">lix/libstore/build</text>
<text text-anchor="middle" x="329" y="-298" font-family="Helvetica,sans-Serif" font-size="10.00">&#45;result.hh</text>
</a>
</g>
</g>
<!-- Node2 -->
<g id="Node000002" class="node">
<title>Node2</title>
<g id="a_Node000002"><a xlink:href="installables_8hh.html" target="_top" xlink:title=" ">
<polygon fill="white" stroke="#666666" points="264.12,-248.38 125.88,-248.38 125.88,-227.62 264.12,-227.62 264.12,-248.38"/>
<text text-anchor="middle" x="195" y="-234.88" font-family="Helvetica,sans-Serif" font-size="10.00">lix/libcmd/installables.hh</text>
</a>
</g>
</g>
<!-- Node1&#45;&gt;Node2 -->
<g id="edge1_Node000001_Node000002" class="edge">
<title>Node1&#45;&gt;Node2</title>
<g id="a_edge1_Node000001_Node000002"><a xlink:title=" ">
<path fill="none" stroke="#63b8ff" d="M286.86,-285.27C262.61,-273.06 233.28,-258.28 214.4,-248.77"/>
<polygon fill="#63b8ff" stroke="#63b8ff" points="285.05,-288.28 295.55,-289.65 288.2,-282.03 285.05,-288.28"/>
</a>
</g>
</g>
<!-- Node9 -->
<g id="Node000009" class="node">
<title>Node9</title>
<g id="a_Node000009"><a xlink:href="goal_8hh.html" target="_top" xlink:title=" ">
<polygon fill="white" stroke="#666666" points="589.38,-254.75 494.62,-254.75 494.62,-221.25 589.38,-221.25 589.38,-254.75"/>
<text text-anchor="start" x="502.62" y="-241.25" font-family="Helvetica,sans-Serif" font-size="10.00">lix/libstore/build</text>
<text text-anchor="middle" x="542" y="-228.5" font-family="Helvetica,sans-Serif" font-size="10.00">/goal.hh</text>
</a>
</g>
</g>
<!-- Node1&#45;&gt;Node9 -->
<g id="edge9_Node000001_Node000009" class="edge">
<title>Node1&#45;&gt;Node9</title>
<g id="a_edge9_Node000001_Node000009"><a xlink:title=" ">
<path fill="none" stroke="#63b8ff" d="M387.41,-287.99C421.03,-277.34 462.74,-264.12 494.36,-254.1"/>
<polygon fill="#63b8ff" stroke="#63b8ff" points="386.72,-284.54 378.24,-290.89 388.83,-291.21 386.72,-284.54"/>
</a>
</g>
</g>
<!-- Node3 -->
<g id="Node000003" class="node">
<title>Node3</title>
<g id="a_Node000003"><a xlink:href="installable-derived-path_8hh.html" target="_top" xlink:title=" ">
<polygon fill="white" stroke="#666666" points="118,-178.88 0,-178.88 0,-145.38 118,-145.38 118,-178.88"/>
<text text-anchor="start" x="8" y="-165.38" font-family="Helvetica,sans-Serif" font-size="10.00">lix/libcmd/installable</text>
<text text-anchor="middle" x="59" y="-152.62" font-family="Helvetica,sans-Serif" font-size="10.00">&#45;derived&#45;path.hh</text>
</a>
</g>
</g>
<!-- Node2&#45;&gt;Node3 -->
<g id="edge2_Node000002_Node000003" class="edge">
<title>Node2&#45;&gt;Node3</title>
<g id="a_edge2_Node000002_Node000003"><a xlink:title=" ">
<path fill="none" stroke="#63b8ff" d="M166.89,-221.73C144.11,-209.36 112.1,-191.97 88.87,-179.35"/>
<polygon fill="#63b8ff" stroke="#63b8ff" points="165.15,-224.77 175.61,-226.47 168.49,-218.62 165.15,-224.77"/>
</a>
</g>
</g>
<!-- Node4 -->
<g id="Node000004" class="node">
<title>Node4</title>
<g id="a_Node000004"><a xlink:href="installable-value_8hh.html" target="_top" xlink:title=" ">
<polygon fill="white" stroke="#666666" points="254,-178.88 136,-178.88 136,-145.38 254,-145.38 254,-178.88"/>
<text text-anchor="start" x="144" y="-165.38" font-family="Helvetica,sans-Serif" font-size="10.00">lix/libcmd/installable</text>
<text text-anchor="middle" x="195" y="-152.62" font-family="Helvetica,sans-Serif" font-size="10.00">&#45;value.hh</text>
</a>
</g>
</g>
<!-- Node2&#45;&gt;Node4 -->
<g id="edge3_Node000002_Node000004" class="edge">
<title>Node2&#45;&gt;Node4</title>
<g id="a_edge3_Node000002_Node000004"><a xlink:title=" ">
<path fill="none" stroke="#63b8ff" d="M195,-216.01C195,-204.35 195,-190.06 195,-179.28"/>
<polygon fill="#63b8ff" stroke="#63b8ff" points="191.5,-215.83 195,-225.83 198.5,-215.83 191.5,-215.83"/>
</a>
</g>
</g>
<!-- Node5 -->
<g id="Node000005" class="node">
<title>Node5</title>
<g id="a_Node000005"><a xlink:href="command_8hh.html" target="_top" xlink:title=" ">
<polygon fill="white" stroke="#666666" points="221.38,-96.62 90.62,-96.62 90.62,-75.88 221.38,-75.88 221.38,-96.62"/>
<text text-anchor="middle" x="156" y="-83.12" font-family="Helvetica,sans-Serif" font-size="10.00">lix/libcmd/command.hh</text>
</a>
</g>
</g>
<!-- Node4&#45;&gt;Node5 -->
<g id="edge4_Node000004_Node000005" class="edge">
<title>Node4&#45;&gt;Node5</title>
<g id="a_edge4_Node000004_Node000005"><a xlink:title=" ">
<path fill="none" stroke="#63b8ff" d="M181.21,-135.01C174.19,-121.7 166.08,-106.34 160.99,-96.71"/>
<polygon fill="#63b8ff" stroke="#63b8ff" points="178.07,-136.55 185.83,-143.76 184.26,-133.28 178.07,-136.55"/>
</a>
</g>
</g>
<!-- Node6 -->
<g id="Node000006" class="node">
<title>Node6</title>
<g id="a_Node000006"><a xlink:href="installable-attr-path_8hh.html" target="_top" xlink:title=" ">
<polygon fill="white" stroke="#666666" points="122,-33.5 4,-33.5 4,0 122,0 122,-33.5"/>
<text text-anchor="start" x="12" y="-20" font-family="Helvetica,sans-Serif" font-size="10.00">lix/libcmd/installable</text>
<text text-anchor="middle" x="63" y="-7.25" font-family="Helvetica,sans-Serif" font-size="10.00">&#45;attr&#45;path.hh</text>
</a>
</g>
</g>
<!-- Node4&#45;&gt;Node6 -->
<g id="edge7_Node000004_Node000006" class="edge">
<title>Node4&#45;&gt;Node6</title>
<g id="a_edge7_Node000004_Node000006"><a xlink:title=" ">
<path fill="none" stroke="#63b8ff" d="M131.29,-140.25C112.97,-131.41 94.57,-119.28 82,-103 66.43,-82.84 63.11,-52.42 62.67,-33.9"/>
<polygon fill="#63b8ff" stroke="#63b8ff" points="129.78,-143.41 140.33,-144.34 132.66,-137.03 129.78,-143.41"/>
</a>
</g>
</g>
<!-- Node8 -->
<g id="Node000008" class="node">
<title>Node8</title>
<g id="a_Node000008"><a xlink:href="installable-flake_8hh.html" target="_top" xlink:title=" ">
<polygon fill="white" stroke="#666666" points="357,-103 239,-103 239,-69.5 357,-69.5 357,-103"/>
<text text-anchor="start" x="247" y="-89.5" font-family="Helvetica,sans-Serif" font-size="10.00">lix/libcmd/installable</text>
<text text-anchor="middle" x="298" y="-76.75" font-family="Helvetica,sans-Serif" font-size="10.00">&#45;flake.hh</text>
</a>
</g>
</g>
<!-- Node4&#45;&gt;Node8 -->
<g id="edge8_Node000004_Node000008" class="edge">
<title>Node4&#45;&gt;Node8</title>
<g id="a_edge8_Node000004_Node000008"><a xlink:title=" ">
<path fill="none" stroke="#63b8ff" d="M226.96,-138.21C242.67,-126.93 261.24,-113.62 275.45,-103.42"/>
<polygon fill="#63b8ff" stroke="#63b8ff" points="224.92,-135.36 218.83,-144.03 229,-141.05 224.92,-135.36"/>
</a>
</g>
</g>
<!-- Node5&#45;&gt;Node6 -->
<g id="edge5_Node000005_Node000006" class="edge">
<title>Node5&#45;&gt;Node6</title>
<g id="a_edge5_Node000005_Node000006"><a xlink:title=" ">
<path fill="none" stroke="#63b8ff" d="M133.77,-69.12C119.11,-58.47 99.96,-44.57 85.28,-33.92"/>
<polygon fill="#63b8ff" stroke="#63b8ff" points="131.3,-71.65 141.45,-74.69 135.41,-65.98 131.3,-71.65"/>
</a>
</g>
</g>
<!-- Node7 -->
<g id="Node000007" class="node">
<title>Node7</title>
<g id="a_Node000007"><a xlink:href="nix_2daemon_8cc.html" target="_top" xlink:title=" ">
<polygon fill="white" stroke="#666666" points="242.12,-27.12 139.88,-27.12 139.88,-6.38 242.12,-6.38 242.12,-27.12"/>
<text text-anchor="middle" x="191" y="-13.62" font-family="Helvetica,sans-Serif" font-size="10.00">lix/nix/daemon.cc</text>
</a>
</g>
</g>
<!-- Node5&#45;&gt;Node7 -->
<g id="edge6_Node000005_Node000007" class="edge">
<title>Node5&#45;&gt;Node7</title>
<g id="a_edge6_Node000005_Node000007"><a xlink:title=" ">
<path fill="none" stroke="#63b8ff" d="M166.19,-65.59C172.7,-53.04 180.85,-37.32 185.99,-27.4"/>
<polygon fill="#63b8ff" stroke="#63b8ff" points="163.21,-63.75 161.71,-74.24 169.42,-66.97 163.21,-63.75"/>
</a>
</g>
</g>
<!-- Node10 -->
<g id="Node000010" class="node">
<title>Node10</title>
<g id="a_Node000010"><a xlink:href="derivation-goal_8hh.html" target="_top" xlink:title=" ">
<polygon fill="white" stroke="#666666" points="458.12,-178.88 349.88,-178.88 349.88,-145.38 458.12,-145.38 458.12,-178.88"/>
<text text-anchor="start" x="357.88" y="-165.38" font-family="Helvetica,sans-Serif" font-size="10.00">lix/libstore/build</text>
<text text-anchor="middle" x="404" y="-152.62" font-family="Helvetica,sans-Serif" font-size="10.00">/derivation&#45;goal.hh</text>
</a>
</g>
</g>
<!-- Node9&#45;&gt;Node10 -->
<g id="edge10_Node000009_Node000010" class="edge">
<title>Node9&#45;&gt;Node10</title>
<g id="a_edge10_Node000009_Node000010"><a xlink:title=" ">
<path fill="none" stroke="#63b8ff" d="M501.85,-215.5C480.25,-203.94 454.06,-189.92 434.21,-179.3"/>
<polygon fill="#63b8ff" stroke="#63b8ff" points="499.91,-218.44 510.38,-220.07 503.22,-212.27 499.91,-218.44"/>
</a>
</g>
</g>
<!-- Node12 -->
<g id="Node000012" class="node">
<title>Node12</title>
<g id="a_Node000012"><a xlink:href="drv-output-substitution-goal_8hh.html" target="_top" xlink:title=" ">
<polygon fill="white" stroke="#666666" points="607.75,-185.25 476.25,-185.25 476.25,-139 607.75,-139 607.75,-185.25"/>
<text text-anchor="start" x="484.25" y="-171.75" font-family="Helvetica,sans-Serif" font-size="10.00">lix/libstore/build</text>
<text text-anchor="start" x="484.25" y="-159" font-family="Helvetica,sans-Serif" font-size="10.00">/drv&#45;output&#45;substitution</text>
<text text-anchor="middle" x="542" y="-146.25" font-family="Helvetica,sans-Serif" font-size="10.00">&#45;goal.hh</text>
</a>
</g>
</g>
<!-- Node9&#45;&gt;Node12 -->
<g id="edge12_Node000009_Node000012" class="edge">
<title>Node9&#45;&gt;Node12</title>
<g id="a_edge12_Node000009_Node000012"><a xlink:title=" ">
<path fill="none" stroke="#63b8ff" d="M542,-209.64C542,-201.71 542,-193.16 542,-185.57"/>
<polygon fill="#63b8ff" stroke="#63b8ff" points="538.5,-209.46 542,-219.46 545.5,-209.46 538.5,-209.46"/>
</a>
</g>
</g>
<!-- Node13 -->
<g id="Node000013" class="node">
<title>Node13</title>
<g id="a_Node000013"><a xlink:href="substitution-goal_8hh.html" target="_top" xlink:title=" ">
<polygon fill="white" stroke="#666666" points="742.25,-178.88 625.75,-178.88 625.75,-145.38 742.25,-145.38 742.25,-178.88"/>
<text text-anchor="start" x="633.75" y="-165.38" font-family="Helvetica,sans-Serif" font-size="10.00">lix/libstore/build</text>
<text text-anchor="middle" x="684" y="-152.62" font-family="Helvetica,sans-Serif" font-size="10.00">/substitution&#45;goal.hh</text>
</a>
</g>
</g>
<!-- Node9&#45;&gt;Node13 -->
<g id="edge13_Node000009_Node000013" class="edge">
<title>Node9&#45;&gt;Node13</title>
<g id="a_edge13_Node000009_Node000013"><a xlink:title=" ">
<path fill="none" stroke="#63b8ff" d="M583.32,-215.5C605.54,-203.94 632.49,-189.92 652.91,-179.3"/>
<polygon fill="#63b8ff" stroke="#63b8ff" points="581.76,-212.37 574.51,-220.09 584.99,-218.58 581.76,-212.37"/>
</a>
</g>
</g>
<!-- Node14 -->
<g id="Node000014" class="node">
<title>Node14</title>
<g id="a_Node000014"><a xlink:href="worker_8hh.html" target="_top" xlink:title=" ">
<polygon fill="white" stroke="#666666" points="855.38,-178.88 760.62,-178.88 760.62,-145.38 855.38,-145.38 855.38,-178.88"/>
<text text-anchor="start" x="768.62" y="-165.38" font-family="Helvetica,sans-Serif" font-size="10.00">lix/libstore/build</text>
<text text-anchor="middle" x="808" y="-152.62" font-family="Helvetica,sans-Serif" font-size="10.00">/worker.hh</text>
</a>
</g>
</g>
<!-- Node9&#45;&gt;Node14 -->
<g id="edge14_Node000009_Node000014" class="edge">
<title>Node9&#45;&gt;Node14</title>
<g id="a_edge14_Node000009_Node000014"><a xlink:title=" ">
<path fill="none" stroke="#63b8ff" d="M600.98,-224.51C643.15,-215.07 701.05,-201.06 751,-185.25 756.57,-183.49 762.37,-181.46 768.06,-179.37"/>
<polygon fill="#63b8ff" stroke="#63b8ff" points="600.28,-221.08 591.27,-226.66 601.79,-227.91 600.28,-221.08"/>
</a>
</g>
</g>
<!-- Node11 -->
<g id="Node000011" class="node">
<title>Node11</title>
<g id="a_Node000011"><a xlink:href="local-derivation-goal_8hh.html" target="_top" xlink:title=" ">
<polygon fill="white" stroke="#666666" points="510.62,-103 375.38,-103 375.38,-69.5 510.62,-69.5 510.62,-103"/>
<text text-anchor="start" x="383.38" y="-89.5" font-family="Helvetica,sans-Serif" font-size="10.00">lix/libstore/build</text>
<text text-anchor="middle" x="443" y="-76.75" font-family="Helvetica,sans-Serif" font-size="10.00">/local&#45;derivation&#45;goal.hh</text>
</a>
</g>
</g>
<!-- Node10&#45;&gt;Node11 -->
<g id="edge11_Node000010_Node000011" class="edge">
<title>Node10&#45;&gt;Node11</title>
<g id="a_edge11_Node000010_Node000011"><a xlink:title=" ">
<path fill="none" stroke="#63b8ff" d="M417.75,-135.07C423.36,-124.46 429.65,-112.54 434.55,-103.25"/>
<polygon fill="#63b8ff" stroke="#63b8ff" points="414.74,-133.28 413.17,-143.76 420.93,-136.55 414.74,-133.28"/>
</a>
</g>
</g>
</g>
</svg>
