<?xml version="1.0" encoding="UTF-8" standalone="no"?>
<!DOCTYPE svg PUBLIC "-//W3C//DTD SVG 1.1//EN"
 "http://www.w3.org/Graphics/SVG/1.1/DTD/svg11.dtd">
<!-- Generated by graphviz version 12.2.1 (0)
 -->
<!-- Title: nix::NarInfoDiskCacheImpl Pages: 1 -->
<svg width="302pt" height="111pt"
 viewBox="0.00 0.00 301.50 111.00" xmlns="http://www.w3.org/2000/svg" xmlns:xlink="http://www.w3.org/1999/xlink">
<g id="graph0" class="graph" transform="scale(1 1) rotate(0) translate(4 107)">
<title>nix::NarInfoDiskCacheImpl</title>
<!-- Node1 -->
<g id="Node000001" class="node">
<title>Node1</title>
<g id="a_Node000001"><a xlink:title=" ">
<polygon fill="#999999" stroke="#666666" points="213.62,-20.75 67.12,-20.75 67.12,0 213.62,0 213.62,-20.75"/>
<text text-anchor="middle" x="140.38" y="-7.25" font-family="Helvetica,sans-Serif" font-size="10.00">nix::NarInfoDiskCacheImpl</text>
</a>
</g>
</g>
<!-- Node2 -->
<g id="Node000002" class="node">
<title>Node2</title>
<g id="a_Node000002"><a xlink:href="classnix_1_1NarInfoDiskCache.html" target="_top" xlink:title=" ">
<polygon fill="white" stroke="#bfbfbf" points="124.75,-96.62 0,-96.62 0,-75.88 124.75,-75.88 124.75,-96.62"/>
<text text-anchor="middle" x="62.38" y="-83.12" font-family="Helvetica,sans-Serif" font-size="10.00">nix::NarInfoDiskCache</text>
</a>
</g>
</g>
<!-- Node2&#45;&gt;Node1 -->
<g id="edge1_Node000001_Node000002" class="edge">
<title>Node2&#45;&gt;Node1</title>
<g id="a_edge1_Node000001_Node000002"><a xlink:title=" ">
<path fill="none" stroke="#63b8ff" d="M80.9,-67.71C96.42,-53.01 117.97,-32.59 130.42,-20.8"/>
<polygon fill="#63b8ff" stroke="#63b8ff" points="78.52,-65.13 73.67,-74.55 83.34,-70.22 78.52,-65.13"/>
</a>
</g>
</g>
<!-- Node3 -->
<g id="Node000003" class="node">
<title>Node3</title>
<g id="a_Node000003"><a xlink:href="classnix_1_1Sync.html" target="_top" xlink:title=" ">
<polygon fill="white" stroke="#666666" points="293.5,-103 143.25,-103 143.25,-69.5 293.5,-69.5 293.5,-103"/>
<text text-anchor="start" x="151.25" y="-89.5" font-family="Helvetica,sans-Serif" font-size="10.00">nix::Sync&lt; nix::NarInfoDisk</text>
<text text-anchor="middle" x="218.38" y="-76.75" font-family="Helvetica,sans-Serif" font-size="10.00">CacheImpl::State &gt;</text>
</a>
</g>
</g>
<!-- Node3&#45;&gt;Node1 -->
<g id="edge2_Node000001_Node000003" class="edge">
<title>Node3&#45;&gt;Node1</title>
<g id="a_edge2_Node000001_Node000003"><a xlink:title=" ">
<path fill="none" stroke="#9a32cd" stroke-dasharray="5,2" d="M193.28,-61.48C178.7,-47.67 161.13,-31.03 150.36,-20.83"/>
<polygon fill="#9a32cd" stroke="#9a32cd" points="190.68,-63.84 200.35,-68.18 195.5,-58.76 190.68,-63.84"/>
</a>
</g>
<text text-anchor="middle" x="198.21" y="-42" font-family="Helvetica,sans-Serif" font-size="10.00" fill="grey"> _state</text>
</g>
</g>
</svg>
