<?xml version="1.0" encoding="UTF-8" standalone="no"?>
<!DOCTYPE svg PUBLIC "-//W3C//DTD SVG 1.1//EN"
 "http://www.w3.org/Graphics/SVG/1.1/DTD/svg11.dtd">
<!-- Generated by graphviz version 12.2.1 (0)
 -->
<!-- Title: nix::EvalError Pages: 1 -->
<svg width="122pt" height="142pt"
 viewBox="0.00 0.00 122.25 142.25" xmlns="http://www.w3.org/2000/svg" xmlns:xlink="http://www.w3.org/1999/xlink">
<g id="graph0" class="graph" transform="scale(1 1) rotate(0) translate(4 138.25)">
<title>nix::EvalError</title>
<!-- Node1 -->
<g id="Node000001" class="node">
<title>Node1</title>
<g id="a_Node000001"><a xlink:title=" ">
<polygon fill="#999999" stroke="#666666" points="97.75,-77.5 16.5,-77.5 16.5,-56.75 97.75,-56.75 97.75,-77.5"/>
<text text-anchor="middle" x="57.12" y="-64" font-family="Helvetica,sans-Serif" font-size="10.00">nix::EvalError</text>
</a>
</g>
</g>
<!-- Node3 -->
<g id="Node000003" class="node">
<title>Node3</title>
<g id="a_Node000003"><a xlink:href="structnix_1_1InvalidPathError.html" target="_top" xlink:title=" ">
<polygon fill="white" stroke="#666666" points="114.25,-20.75 0,-20.75 0,0 114.25,0 114.25,-20.75"/>
<text text-anchor="middle" x="57.12" y="-7.25" font-family="Helvetica,sans-Serif" font-size="10.00">nix::InvalidPathError</text>
</a>
</g>
</g>
<!-- Node1&#45;&gt;Node3 -->
<g id="edge2_Node000001_Node000003" class="edge">
<title>Node1&#45;&gt;Node3</title>
<g id="a_edge2_Node000001_Node000003"><a xlink:title=" ">
<path fill="none" stroke="#63b8ff" d="M57.12,-44.88C57.12,-36.66 57.12,-27.68 57.12,-21.08"/>
<polygon fill="#63b8ff" stroke="#63b8ff" points="53.63,-44.82 57.13,-54.82 60.63,-44.82 53.63,-44.82"/>
</a>
</g>
</g>
<!-- Node2 -->
<g id="Node000002" class="node">
<title>Node2</title>
<g id="a_Node000002"><a xlink:title=" ">
<polygon fill="white" stroke="#bfbfbf" points="76.75,-134.25 37.5,-134.25 37.5,-113.5 76.75,-113.5 76.75,-134.25"/>
<text text-anchor="middle" x="57.12" y="-120.75" font-family="Helvetica,sans-Serif" font-size="10.00">Error</text>
</a>
</g>
</g>
<!-- Node2&#45;&gt;Node1 -->
<g id="edge1_Node000001_Node000002" class="edge">
<title>Node2&#45;&gt;Node1</title>
<g id="a_edge1_Node000001_Node000002"><a xlink:title=" ">
<path fill="none" stroke="#63b8ff" d="M57.12,-101.63C57.12,-93.41 57.12,-84.43 57.12,-77.83"/>
<polygon fill="#63b8ff" stroke="#63b8ff" points="53.63,-101.57 57.13,-111.57 60.63,-101.57 53.63,-101.57"/>
</a>
</g>
</g>
</g>
</svg>
