<?xml version="1.0" encoding="UTF-8" standalone="no"?>
<!DOCTYPE svg PUBLIC "-//W3C//DTD SVG 1.1//EN"
 "http://www.w3.org/Graphics/SVG/1.1/DTD/svg11.dtd">
<!-- Generated by graphviz version 12.2.1 (0)
 -->
<!-- Title: nix::LocalFSStore Pages: 1 -->
<svg width="366pt" height="325pt"
 viewBox="0.00 0.00 365.88 325.25" xmlns="http://www.w3.org/2000/svg" xmlns:xlink="http://www.w3.org/1999/xlink">
<g id="graph0" class="graph" transform="scale(1 1) rotate(0) translate(4 321.25)">
<title>nix::LocalFSStore</title>
<!-- Node1 -->
<g id="Node000001" class="node">
<title>Node1</title>
<g id="a_Node000001"><a xlink:title=" ">
<polygon fill="#999999" stroke="#666666" points="211.62,-134.25 112.38,-134.25 112.38,-113.5 211.62,-113.5 211.62,-134.25"/>
<text text-anchor="middle" x="162" y="-120.75" font-family="Helvetica,sans-Serif" font-size="10.00">nix::LocalFSStore</text>
</a>
</g>
</g>
<!-- Node6 -->
<g id="Node000006" class="node">
<title>Node6</title>
<g id="a_Node000006"><a xlink:href="structnix_1_1IndirectRootStore.html" target="_top" xlink:title=" ">
<polygon fill="white" stroke="#666666" points="222.88,-77.5 101.12,-77.5 101.12,-56.75 222.88,-56.75 222.88,-77.5"/>
<text text-anchor="middle" x="162" y="-64" font-family="Helvetica,sans-Serif" font-size="10.00">nix::IndirectRootStore</text>
</a>
</g>
</g>
<!-- Node1&#45;&gt;Node6 -->
<g id="edge7_Node000001_Node000006" class="edge">
<title>Node1&#45;&gt;Node6</title>
<g id="a_edge7_Node000001_Node000006"><a xlink:title=" ">
<path fill="none" stroke="#63b8ff" d="M162,-101.63C162,-93.41 162,-84.43 162,-77.83"/>
<polygon fill="#63b8ff" stroke="#63b8ff" points="158.5,-101.57 162,-111.57 165.5,-101.57 158.5,-101.57"/>
</a>
</g>
</g>
<!-- Node2 -->
<g id="Node000002" class="node">
<title>Node2</title>
<g id="a_Node000002"><a xlink:href="classnix_1_1Store.html" target="_top" xlink:title=" ">
<polygon fill="white" stroke="#bfbfbf" points="193.25,-247.75 130.75,-247.75 130.75,-227 193.25,-227 193.25,-247.75"/>
<text text-anchor="middle" x="162" y="-234.25" font-family="Helvetica,sans-Serif" font-size="10.00">nix::Store</text>
</a>
</g>
</g>
<!-- Node2&#45;&gt;Node1 -->
<g id="edge1_Node000001_Node000002" class="edge">
<title>Node2&#45;&gt;Node1</title>
<g id="a_edge1_Node000001_Node000002"><a xlink:title=" ">
<path fill="none" stroke="#63b8ff" d="M137.56,-219.48C128.71,-211.91 119.74,-202.16 115,-191 105.59,-168.83 129.72,-146.77 146.78,-134.57"/>
<polygon fill="#63b8ff" stroke="#63b8ff" points="135.33,-222.19 145.36,-225.62 139.66,-216.68 135.33,-222.19"/>
</a>
</g>
</g>
<!-- Node4 -->
<g id="Node000004" class="node">
<title>Node4</title>
<g id="a_Node000004"><a xlink:href="structnix_1_1GcStore.html" target="_top" xlink:title=" ">
<polygon fill="white" stroke="#666666" points="199.62,-191 124.38,-191 124.38,-170.25 199.62,-170.25 199.62,-191"/>
<text text-anchor="middle" x="162" y="-177.5" font-family="Helvetica,sans-Serif" font-size="10.00">nix::GcStore</text>
</a>
</g>
</g>
<!-- Node2&#45;&gt;Node4 -->
<g id="edge4_Node000004_Node000002" class="edge">
<title>Node2&#45;&gt;Node4</title>
<g id="a_edge4_Node000004_Node000002"><a xlink:title=" ">
<path fill="none" stroke="#63b8ff" d="M162,-215.13C162,-206.91 162,-197.93 162,-191.33"/>
<polygon fill="#63b8ff" stroke="#63b8ff" points="158.5,-215.07 162,-225.07 165.5,-215.07 158.5,-215.07"/>
</a>
</g>
</g>
<!-- Node5 -->
<g id="Node000005" class="node">
<title>Node5</title>
<g id="a_Node000005"><a xlink:href="structnix_1_1LogStore.html" target="_top" xlink:title=" ">
<polygon fill="white" stroke="#bfbfbf" points="297.88,-191 218.12,-191 218.12,-170.25 297.88,-170.25 297.88,-191"/>
<text text-anchor="middle" x="258" y="-177.5" font-family="Helvetica,sans-Serif" font-size="10.00">nix::LogStore</text>
</a>
</g>
</g>
<!-- Node2&#45;&gt;Node5 -->
<g id="edge6_Node000005_Node000002" class="edge">
<title>Node2&#45;&gt;Node5</title>
<g id="a_edge6_Node000005_Node000002"><a xlink:title=" ">
<path fill="none" stroke="#63b8ff" d="M188.91,-221.03C205.61,-211.5 226.56,-199.56 240.99,-191.33"/>
<polygon fill="#63b8ff" stroke="#63b8ff" points="187.43,-217.84 180.48,-225.84 190.9,-223.92 187.43,-217.84"/>
</a>
</g>
</g>
<!-- Node3 -->
<g id="Node000003" class="node">
<title>Node3</title>
<g id="a_Node000003"><a xlink:title=" ">
<polygon fill="white" stroke="#bfbfbf" points="219.88,-317.25 104.12,-317.25 104.12,-283.75 219.88,-283.75 219.88,-317.25"/>
<text text-anchor="start" x="112.12" y="-303.75" font-family="Helvetica,sans-Serif" font-size="10.00">std::enable_shared</text>
<text text-anchor="middle" x="162" y="-291" font-family="Helvetica,sans-Serif" font-size="10.00">_from_this&lt; Store &gt;</text>
</a>
</g>
</g>
<!-- Node3&#45;&gt;Node2 -->
<g id="edge2_Node000002_Node000003" class="edge">
<title>Node3&#45;&gt;Node2</title>
<g id="a_edge2_Node000002_Node000003"><a xlink:title=" ">
<path fill="none" stroke="#63b8ff" d="M162,-271.94C162,-263.46 162,-254.67 162,-248.22"/>
<polygon fill="#63b8ff" stroke="#63b8ff" points="158.5,-271.93 162,-281.93 165.5,-271.93 158.5,-271.93"/>
</a>
</g>
</g>
<!-- Node4&#45;&gt;Node1 -->
<g id="edge3_Node000001_Node000004" class="edge">
<title>Node4&#45;&gt;Node1</title>
<g id="a_edge3_Node000001_Node000004"><a xlink:title=" ">
<path fill="none" stroke="#63b8ff" d="M162,-158.38C162,-150.16 162,-141.18 162,-134.58"/>
<polygon fill="#63b8ff" stroke="#63b8ff" points="158.5,-158.32 162,-168.32 165.5,-158.32 158.5,-158.32"/>
</a>
</g>
</g>
<!-- Node5&#45;&gt;Node1 -->
<g id="edge5_Node000001_Node000005" class="edge">
<title>Node5&#45;&gt;Node1</title>
<g id="a_edge5_Node000001_Node000005"><a xlink:title=" ">
<path fill="none" stroke="#63b8ff" d="M231.09,-164.28C214.39,-154.75 193.44,-142.81 179.01,-134.58"/>
<polygon fill="#63b8ff" stroke="#63b8ff" points="229.1,-167.17 239.52,-169.09 232.57,-161.09 229.1,-167.17"/>
</a>
</g>
</g>
<!-- Node7 -->
<g id="Node000007" class="node">
<title>Node7</title>
<g id="a_Node000007"><a xlink:href="classnix_1_1LocalStore.html" target="_top" xlink:title=" ">
<polygon fill="white" stroke="#bfbfbf" points="88,-20.75 0,-20.75 0,0 88,0 88,-20.75"/>
<text text-anchor="middle" x="44" y="-7.25" font-family="Helvetica,sans-Serif" font-size="10.00">nix::LocalStore</text>
</a>
</g>
</g>
<!-- Node6&#45;&gt;Node7 -->
<g id="edge8_Node000006_Node000007" class="edge">
<title>Node6&#45;&gt;Node7</title>
<g id="a_edge8_Node000006_Node000007"><a xlink:title=" ">
<path fill="none" stroke="#63b8ff" d="M130.65,-51.58C109.86,-41.93 83.15,-29.54 64.91,-21.08"/>
<polygon fill="#63b8ff" stroke="#63b8ff" points="128.99,-54.67 139.53,-55.7 131.93,-48.32 128.99,-54.67"/>
</a>
</g>
</g>
<!-- Node8 -->
<g id="Node000008" class="node">
<title>Node8</title>
<g id="a_Node000008"><a xlink:href="structnix_1_1RestrictedStore.html" target="_top" xlink:title=" ">
<polygon fill="white" stroke="#bfbfbf" points="218,-20.75 106,-20.75 106,0 218,0 218,-20.75"/>
<text text-anchor="middle" x="162" y="-7.25" font-family="Helvetica,sans-Serif" font-size="10.00">nix::RestrictedStore</text>
</a>
</g>
</g>
<!-- Node6&#45;&gt;Node8 -->
<g id="edge9_Node000006_Node000008" class="edge">
<title>Node6&#45;&gt;Node8</title>
<g id="a_edge9_Node000006_Node000008"><a xlink:title=" ">
<path fill="none" stroke="#63b8ff" d="M162,-44.88C162,-36.66 162,-27.68 162,-21.08"/>
<polygon fill="#63b8ff" stroke="#63b8ff" points="158.5,-44.82 162,-54.82 165.5,-44.82 158.5,-44.82"/>
</a>
</g>
</g>
<!-- Node9 -->
<g id="Node000009" class="node">
<title>Node9</title>
<g id="a_Node000009"><a xlink:href="classnix_1_1UDSRemoteStore.html" target="_top" xlink:title=" ">
<polygon fill="white" stroke="#bfbfbf" points="357.88,-20.75 236.12,-20.75 236.12,0 357.88,0 357.88,-20.75"/>
<text text-anchor="middle" x="297" y="-7.25" font-family="Helvetica,sans-Serif" font-size="10.00">nix::UDSRemoteStore</text>
</a>
</g>
</g>
<!-- Node6&#45;&gt;Node9 -->
<g id="edge10_Node000006_Node000009" class="edge">
<title>Node6&#45;&gt;Node9</title>
<g id="a_edge10_Node000006_Node000009"><a xlink:title=" ">
<path fill="none" stroke="#63b8ff" d="M196.57,-52.11C220.53,-42.39 251.83,-29.69 273.07,-21.08"/>
<polygon fill="#63b8ff" stroke="#63b8ff" points="195.49,-48.77 187.54,-55.77 198.12,-55.25 195.49,-48.77"/>
</a>
</g>
</g>
</g>
</svg>
