<?xml version="1.0" encoding="UTF-8" standalone="no"?>
<!DOCTYPE svg PUBLIC "-//W3C//DTD SVG 1.1//EN"
 "http://www.w3.org/Graphics/SVG/1.1/DTD/svg11.dtd">
<!-- Generated by graphviz version 12.2.1 (0)
 -->
<!-- Title: nix::Config Pages: 1 -->
<svg width="969pt" height="536pt"
 viewBox="0.00 0.00 968.75 535.75" xmlns="http://www.w3.org/2000/svg" xmlns:xlink="http://www.w3.org/1999/xlink">
<g id="graph0" class="graph" transform="scale(1 1) rotate(0) translate(4 531.75)">
<title>nix::Config</title>
<!-- Node1 -->
<g id="Node000001" class="node">
<title>Node1</title>
<g id="a_Node000001"><a xlink:title=" ">
<polygon fill="#999999" stroke="#666666" points="212,-332.75 144.25,-332.75 144.25,-312 212,-312 212,-332.75"/>
<text text-anchor="middle" x="178.12" y="-319.25" font-family="Helvetica,sans-Serif" font-size="10.00">nix::Config</text>
</a>
</g>
</g>
<!-- Node3 -->
<g id="Node000003" class="node">
<title>Node3</title>
<g id="a_Node000003"><a xlink:href="structnix_1_1ArchiveSettings.html" target="_top" xlink:title=" ">
<polygon fill="white" stroke="#bfbfbf" points="378.75,-527.75 265.25,-527.75 265.25,-507 378.75,-507 378.75,-527.75"/>
<text text-anchor="middle" x="322" y="-514.25" font-family="Helvetica,sans-Serif" font-size="10.00">nix::ArchiveSettings</text>
</a>
</g>
</g>
<!-- Node1&#45;&gt;Node3 -->
<g id="edge2_Node000001_Node000003" class="edge">
<title>Node1&#45;&gt;Node3</title>
<g id="a_edge2_Node000001_Node000003"><a xlink:title=" ">
<path fill="none" stroke="#63b8ff" d="M181.47,-344.27C186.62,-381.33 202.36,-456.4 248,-497.38 252.89,-501.76 258.65,-505.2 264.76,-507.89"/>
<polygon fill="#63b8ff" stroke="#63b8ff" points="184.94,-343.86 180.24,-334.36 178,-344.71 184.94,-343.86"/>
</a>
</g>
</g>
<!-- Node4 -->
<g id="Node000004" class="node">
<title>Node4</title>
<g id="a_Node000004"><a xlink:href="structnix_1_1AuthorizationSettings.html" target="_top" xlink:title=" ">
<polygon fill="white" stroke="#666666" points="393,-488.75 251,-488.75 251,-468 393,-468 393,-488.75"/>
<text text-anchor="middle" x="322" y="-475.25" font-family="Helvetica,sans-Serif" font-size="10.00">nix::AuthorizationSettings</text>
</a>
</g>
</g>
<!-- Node1&#45;&gt;Node4 -->
<g id="edge3_Node000001_Node000004" class="edge">
<title>Node1&#45;&gt;Node4</title>
<g id="a_edge3_Node000001_Node000004"><a xlink:title=" ">
<path fill="none" stroke="#63b8ff" d="M184.19,-344.05C192.38,-374.21 211.42,-428.51 248,-458.38 252.58,-462.11 257.81,-465.16 263.31,-467.63"/>
<polygon fill="#63b8ff" stroke="#63b8ff" points="187.63,-343.38 181.78,-334.55 180.85,-345.1 187.63,-343.38"/>
</a>
</g>
</g>
<!-- Node5 -->
<g id="Node000005" class="node">
<title>Node5</title>
<g id="a_Node000005"><a xlink:href="structnix_1_1DevelopSettings.html" target="_top" xlink:title=" ">
<polygon fill="white" stroke="#bfbfbf" points="380.62,-449.75 263.38,-449.75 263.38,-429 380.62,-429 380.62,-449.75"/>
<text text-anchor="middle" x="322" y="-436.25" font-family="Helvetica,sans-Serif" font-size="10.00">nix::DevelopSettings</text>
</a>
</g>
</g>
<!-- Node1&#45;&gt;Node5 -->
<g id="edge4_Node000001_Node000005" class="edge">
<title>Node1&#45;&gt;Node5</title>
<g id="a_edge4_Node000001_Node000005"><a xlink:title=" ">
<path fill="none" stroke="#63b8ff" d="M188.59,-343.29C199.7,-365.46 220.18,-399.92 248,-419.38 253.28,-423.07 259.21,-426.08 265.35,-428.53"/>
<polygon fill="#63b8ff" stroke="#63b8ff" points="191.78,-341.83 184.3,-334.32 185.46,-344.85 191.78,-341.83"/>
</a>
</g>
</g>
<!-- Node6 -->
<g id="Node000006" class="node">
<title>Node6</title>
<g id="a_Node000006"><a xlink:href="structnix_1_1EvalSettings.html" target="_top" xlink:title=" ">
<polygon fill="white" stroke="#bfbfbf" points="370.88,-410.75 273.12,-410.75 273.12,-390 370.88,-390 370.88,-410.75"/>
<text text-anchor="middle" x="322" y="-397.25" font-family="Helvetica,sans-Serif" font-size="10.00">nix::EvalSettings</text>
</a>
</g>
</g>
<!-- Node1&#45;&gt;Node6 -->
<g id="edge5_Node000001_Node000006" class="edge">
<title>Node1&#45;&gt;Node6</title>
<g id="a_edge5_Node000001_Node000006"><a xlink:title=" ">
<path fill="none" stroke="#63b8ff" d="M196.87,-341.11C209.91,-353.86 228.66,-370.22 248,-380.38 255.68,-384.41 264.25,-387.69 272.74,-390.34"/>
<polygon fill="#63b8ff" stroke="#63b8ff" points="199.4,-338.69 189.88,-334.05 194.43,-343.62 199.4,-338.69"/>
</a>
</g>
</g>
<!-- Node7 -->
<g id="Node000007" class="node">
<title>Node7</title>
<g id="a_Node000007"><a xlink:href="structnix_1_1FeatureSettings.html" target="_top" xlink:title=" ">
<polygon fill="white" stroke="#bfbfbf" points="378.75,-371.75 265.25,-371.75 265.25,-351 378.75,-351 378.75,-371.75"/>
<text text-anchor="middle" x="322" y="-358.25" font-family="Helvetica,sans-Serif" font-size="10.00">nix::FeatureSettings</text>
</a>
</g>
</g>
<!-- Node1&#45;&gt;Node7 -->
<g id="edge6_Node000001_Node000007" class="edge">
<title>Node1&#45;&gt;Node7</title>
<g id="a_edge6_Node000001_Node000007"><a xlink:title=" ">
<path fill="none" stroke="#63b8ff" d="M223.33,-334.58C231.53,-336.84 240.02,-339.18 248,-341.38 258.9,-344.37 270.71,-347.61 281.6,-350.59"/>
<polygon fill="#63b8ff" stroke="#63b8ff" points="224.43,-331.26 213.86,-331.97 222.57,-338 224.43,-331.26"/>
</a>
</g>
</g>
<!-- Node8 -->
<g id="Node000008" class="node">
<title>Node8</title>
<g id="a_Node000008"><a xlink:href="structnix_1_1FetchSettings.html" target="_top" xlink:title=" ">
<polygon fill="white" stroke="#bfbfbf" points="373.5,-332.75 270.5,-332.75 270.5,-312 373.5,-312 373.5,-332.75"/>
<text text-anchor="middle" x="322" y="-319.25" font-family="Helvetica,sans-Serif" font-size="10.00">nix::FetchSettings</text>
</a>
</g>
</g>
<!-- Node1&#45;&gt;Node8 -->
<g id="edge7_Node000001_Node000008" class="edge">
<title>Node1&#45;&gt;Node8</title>
<g id="a_edge7_Node000001_Node000008"><a xlink:title=" ">
<path fill="none" stroke="#63b8ff" d="M223.77,-322.38C238.5,-322.38 255,-322.38 270.17,-322.38"/>
<polygon fill="#63b8ff" stroke="#63b8ff" points="223.9,-318.88 213.9,-322.38 223.9,-325.88 223.9,-318.88"/>
</a>
</g>
</g>
<!-- Node9 -->
<g id="Node000009" class="node">
<title>Node9</title>
<g id="a_Node000009"><a xlink:href="structnix_1_1FileTransferSettings.html" target="_top" xlink:title=" ">
<polygon fill="white" stroke="#bfbfbf" points="388.5,-293.75 255.5,-293.75 255.5,-273 388.5,-273 388.5,-293.75"/>
<text text-anchor="middle" x="322" y="-280.25" font-family="Helvetica,sans-Serif" font-size="10.00">nix::FileTransferSettings</text>
</a>
</g>
</g>
<!-- Node1&#45;&gt;Node9 -->
<g id="edge8_Node000001_Node000009" class="edge">
<title>Node1&#45;&gt;Node9</title>
<g id="a_edge8_Node000001_Node000009"><a xlink:title=" ">
<path fill="none" stroke="#63b8ff" d="M223.33,-310.17C231.53,-307.91 240.02,-305.57 248,-303.38 258.9,-300.38 270.71,-297.14 281.6,-294.16"/>
<polygon fill="#63b8ff" stroke="#63b8ff" points="222.57,-306.75 213.86,-312.78 224.43,-313.49 222.57,-306.75"/>
</a>
</g>
</g>
<!-- Node10 -->
<g id="Node000010" class="node">
<title>Node10</title>
<g id="a_Node000010"><a xlink:href="structnix_1_1LoggerSettings.html" target="_top" xlink:title=" ">
<polygon fill="white" stroke="#bfbfbf" points="376.88,-254.75 267.12,-254.75 267.12,-234 376.88,-234 376.88,-254.75"/>
<text text-anchor="middle" x="322" y="-241.25" font-family="Helvetica,sans-Serif" font-size="10.00">nix::LoggerSettings</text>
</a>
</g>
</g>
<!-- Node1&#45;&gt;Node10 -->
<g id="edge9_Node000001_Node000010" class="edge">
<title>Node1&#45;&gt;Node10</title>
<g id="a_edge9_Node000001_Node000010"><a xlink:title=" ">
<path fill="none" stroke="#63b8ff" d="M196.87,-303.64C209.91,-290.89 228.66,-274.53 248,-264.38 254.98,-260.71 262.7,-257.66 270.43,-255.15"/>
<polygon fill="#63b8ff" stroke="#63b8ff" points="194.43,-301.13 189.88,-310.7 199.4,-306.06 194.43,-301.13"/>
</a>
</g>
</g>
<!-- Node11 -->
<g id="Node000011" class="node">
<title>Node11</title>
<g id="a_Node000011"><a xlink:href="classnix_1_1PathsSettingTestConfig.html" target="_top" xlink:title=" ">
<polygon fill="white" stroke="#bfbfbf" points="396,-215.75 248,-215.75 248,-195 396,-195 396,-215.75"/>
<text text-anchor="middle" x="322" y="-202.25" font-family="Helvetica,sans-Serif" font-size="10.00">nix::PathsSettingTestConfig</text>
</a>
</g>
</g>
<!-- Node1&#45;&gt;Node11 -->
<g id="edge10_Node000001_Node000011" class="edge">
<title>Node1&#45;&gt;Node11</title>
<g id="a_edge10_Node000001_Node000011"><a xlink:title=" ">
<path fill="none" stroke="#63b8ff" d="M188.59,-301.46C199.7,-279.29 220.18,-244.83 248,-225.38 253.28,-221.68 259.21,-218.67 265.35,-216.22"/>
<polygon fill="#63b8ff" stroke="#63b8ff" points="185.46,-299.9 184.3,-310.43 191.78,-302.92 185.46,-299.9"/>
</a>
</g>
</g>
<!-- Node12 -->
<g id="Node000012" class="node">
<title>Node12</title>
<g id="a_Node000012"><a xlink:href="classnix_1_1Settings.html" target="_top" xlink:title=" ">
<polygon fill="white" stroke="#bfbfbf" points="360.38,-176.75 283.62,-176.75 283.62,-156 360.38,-156 360.38,-176.75"/>
<text text-anchor="middle" x="322" y="-163.25" font-family="Helvetica,sans-Serif" font-size="10.00">nix::Settings</text>
</a>
</g>
</g>
<!-- Node1&#45;&gt;Node12 -->
<g id="edge11_Node000001_Node000012" class="edge">
<title>Node1&#45;&gt;Node12</title>
<g id="a_edge11_Node000001_Node000012"><a xlink:title=" ">
<path fill="none" stroke="#63b8ff" d="M184.19,-300.7C192.38,-270.54 211.42,-216.24 248,-186.38 257.98,-178.23 271.01,-173.39 283.3,-170.52"/>
<polygon fill="#63b8ff" stroke="#63b8ff" points="180.85,-299.65 181.78,-310.2 187.63,-301.37 180.85,-299.65"/>
</a>
</g>
</g>
<!-- Node13 -->
<g id="Node000013" class="node">
<title>Node13</title>
<g id="a_Node000013"><a xlink:href="structnix_1_1StoreConfig.html" target="_top" xlink:title=" ">
<polygon fill="white" stroke="#bfbfbf" points="368.62,-137.75 275.38,-137.75 275.38,-117 368.62,-117 368.62,-137.75"/>
<text text-anchor="middle" x="322" y="-124.25" font-family="Helvetica,sans-Serif" font-size="10.00">nix::StoreConfig</text>
</a>
</g>
</g>
<!-- Node1&#45;&gt;Node13 -->
<g id="edge12_Node000001_Node000013" class="edge">
<title>Node1&#45;&gt;Node13</title>
<g id="a_edge12_Node000001_Node000013"><a xlink:title=" ">
<path fill="none" stroke="#63b8ff" d="M181.47,-300.48C186.62,-263.42 202.36,-188.35 248,-147.38 255.53,-140.62 265.13,-136.11 274.88,-133.12"/>
<polygon fill="#63b8ff" stroke="#63b8ff" points="178,-300.04 180.24,-310.39 184.94,-300.89 178,-300.04"/>
</a>
</g>
</g>
<!-- Node2 -->
<g id="Node000002" class="node">
<title>Node2</title>
<g id="a_Node000002"><a xlink:href="classnix_1_1AbstractConfig.html" target="_top" xlink:title=" ">
<polygon fill="white" stroke="#bfbfbf" points="108.25,-332.75 0,-332.75 0,-312 108.25,-312 108.25,-332.75"/>
<text text-anchor="middle" x="54.12" y="-319.25" font-family="Helvetica,sans-Serif" font-size="10.00">nix::AbstractConfig</text>
</a>
</g>
</g>
<!-- Node2&#45;&gt;Node1 -->
<g id="edge1_Node000001_Node000002" class="edge">
<title>Node2&#45;&gt;Node1</title>
<g id="a_edge1_Node000001_Node000002"><a xlink:title=" ">
<path fill="none" stroke="#63b8ff" d="M119.98,-322.38C128.29,-322.38 136.51,-322.38 144.02,-322.38"/>
<polygon fill="#63b8ff" stroke="#63b8ff" points="120.15,-318.88 110.15,-322.38 120.15,-325.88 120.15,-318.88"/>
</a>
</g>
</g>
<!-- Node14 -->
<g id="Node000014" class="node">
<title>Node14</title>
<g id="a_Node000014"><a xlink:href="structnix_1_1BinaryCacheStoreConfig.html" target="_top" xlink:title=" ">
<polygon fill="white" stroke="#bfbfbf" points="587.88,-221.75 433.12,-221.75 433.12,-201 587.88,-201 587.88,-221.75"/>
<text text-anchor="middle" x="510.5" y="-208.25" font-family="Helvetica,sans-Serif" font-size="10.00">nix::BinaryCacheStoreConfig</text>
</a>
</g>
</g>
<!-- Node13&#45;&gt;Node14 -->
<g id="edge13_Node000013_Node000014" class="edge">
<title>Node13&#45;&gt;Node14</title>
<g id="a_edge13_Node000013_Node000014"><a xlink:title=" ">
<path fill="none" stroke="#63b8ff" d="M379.45,-139.45C385.23,-141.67 390.86,-144.29 396,-147.38 415.96,-159.33 412.39,-172.86 432,-185.38 442.05,-191.79 453.85,-196.79 465.17,-200.62"/>
<polygon fill="#63b8ff" stroke="#63b8ff" points="380.99,-136.28 370.4,-136.35 378.72,-142.9 380.99,-136.28"/>
</a>
</g>
</g>
<!-- Node17 -->
<g id="Node000017" class="node">
<title>Node17</title>
<g id="a_Node000017"><a xlink:href="structnix_1_1CommonSSHStoreConfig.html" target="_top" xlink:title=" ">
<polygon fill="white" stroke="#bfbfbf" points="589,-176.75 432,-176.75 432,-156 589,-156 589,-176.75"/>
<text text-anchor="middle" x="510.5" y="-163.25" font-family="Helvetica,sans-Serif" font-size="10.00">nix::CommonSSHStoreConfig</text>
</a>
</g>
</g>
<!-- Node13&#45;&gt;Node17 -->
<g id="edge16_Node000013_Node000017" class="edge">
<title>Node13&#45;&gt;Node17</title>
<g id="a_edge16_Node000013_Node000017"><a xlink:title=" ">
<path fill="none" stroke="#63b8ff" d="M380.15,-139.33C404.87,-144.49 433.59,-150.5 457.68,-155.54"/>
<polygon fill="#63b8ff" stroke="#63b8ff" points="381.09,-135.95 370.58,-137.33 379.65,-142.8 381.09,-135.95"/>
</a>
</g>
</g>
<!-- Node21 -->
<g id="Node000021" class="node">
<title>Node21</title>
<g id="a_Node000021"><a xlink:href="structnix_1_1DummyStoreConfig.html" target="_top" xlink:title=" ">
<polygon fill="white" stroke="#bfbfbf" points="576.62,-137.75 444.38,-137.75 444.38,-117 576.62,-117 576.62,-137.75"/>
<text text-anchor="middle" x="510.5" y="-124.25" font-family="Helvetica,sans-Serif" font-size="10.00">nix::DummyStoreConfig</text>
</a>
</g>
</g>
<!-- Node13&#45;&gt;Node21 -->
<g id="edge20_Node000013_Node000021" class="edge">
<title>Node13&#45;&gt;Node21</title>
<g id="a_edge20_Node000013_Node000021"><a xlink:title=" ">
<path fill="none" stroke="#63b8ff" d="M380.34,-127.38C400.55,-127.38 423.41,-127.38 444.23,-127.38"/>
<polygon fill="#63b8ff" stroke="#63b8ff" points="380.61,-123.88 370.61,-127.38 380.61,-130.88 380.61,-123.88"/>
</a>
</g>
</g>
<!-- Node22 -->
<g id="Node000022" class="node">
<title>Node22</title>
<g id="a_Node000022"><a xlink:href="structnix_1_1LocalFSStoreConfig.html" target="_top" xlink:title=" ">
<polygon fill="white" stroke="#bfbfbf" points="575.5,-59.75 445.5,-59.75 445.5,-39 575.5,-39 575.5,-59.75"/>
<text text-anchor="middle" x="510.5" y="-46.25" font-family="Helvetica,sans-Serif" font-size="10.00">nix::LocalFSStoreConfig</text>
</a>
</g>
</g>
<!-- Node13&#45;&gt;Node22 -->
<g id="edge21_Node000013_Node000022" class="edge">
<title>Node13&#45;&gt;Node22</title>
<g id="a_edge21_Node000013_Node000022"><a xlink:title=" ">
<path fill="none" stroke="#63b8ff" d="M349.88,-110.76C371.44,-98.01 402.81,-80.72 432,-69.38 440.94,-65.9 450.69,-62.85 460.16,-60.24"/>
<polygon fill="#63b8ff" stroke="#63b8ff" points="348.21,-107.68 341.44,-115.83 351.81,-113.68 348.21,-107.68"/>
</a>
</g>
</g>
<!-- Node26 -->
<g id="Node000026" class="node">
<title>Node26</title>
<g id="a_Node000026"><a xlink:href="structnix_1_1RemoteStoreConfig.html" target="_top" xlink:title=" ">
<polygon fill="white" stroke="#bfbfbf" points="576.25,-98.75 444.75,-98.75 444.75,-78 576.25,-78 576.25,-98.75"/>
<text text-anchor="middle" x="510.5" y="-85.25" font-family="Helvetica,sans-Serif" font-size="10.00">nix::RemoteStoreConfig</text>
</a>
</g>
</g>
<!-- Node13&#45;&gt;Node26 -->
<g id="edge25_Node000013_Node000026" class="edge">
<title>Node13&#45;&gt;Node26</title>
<g id="a_edge25_Node000013_Node000026"><a xlink:title=" ">
<path fill="none" stroke="#63b8ff" d="M380.15,-115.42C404.87,-110.26 433.59,-104.25 457.68,-99.21"/>
<polygon fill="#63b8ff" stroke="#63b8ff" points="379.65,-111.95 370.58,-117.42 381.09,-118.8 379.65,-111.95"/>
</a>
</g>
</g>
<!-- Node15 -->
<g id="Node000015" class="node">
<title>Node15</title>
<g id="a_Node000015"><a xlink:href="structnix_1_1HttpBinaryCacheStoreConfig.html" target="_top" xlink:title=" ">
<polygon fill="white" stroke="#bfbfbf" points="773.75,-280.12 628.75,-280.12 628.75,-246.62 773.75,-246.62 773.75,-280.12"/>
<text text-anchor="start" x="636.75" y="-266.62" font-family="Helvetica,sans-Serif" font-size="10.00">nix::HttpBinaryCacheStore</text>
<text text-anchor="middle" x="701.25" y="-253.88" font-family="Helvetica,sans-Serif" font-size="10.00">Config</text>
</a>
</g>
</g>
<!-- Node14&#45;&gt;Node15 -->
<g id="edge14_Node000014_Node000015" class="edge">
<title>Node14&#45;&gt;Node15</title>
<g id="a_edge14_Node000014_Node000015"><a xlink:title=" ">
<path fill="none" stroke="#63b8ff" d="M561.67,-225.2C585.03,-231.63 613.06,-239.36 637.79,-246.17"/>
<polygon fill="#63b8ff" stroke="#63b8ff" points="562.64,-221.83 552.07,-222.55 560.78,-228.58 562.64,-221.83"/>
</a>
</g>
</g>
<!-- Node16 -->
<g id="Node000016" class="node">
<title>Node16</title>
<g id="a_Node000016"><a xlink:href="structnix_1_1LocalBinaryCacheStoreConfig.html" target="_top" xlink:title=" ">
<polygon fill="white" stroke="#bfbfbf" points="776,-228.12 626.5,-228.12 626.5,-194.62 776,-194.62 776,-228.12"/>
<text text-anchor="start" x="634.5" y="-214.62" font-family="Helvetica,sans-Serif" font-size="10.00">nix::LocalBinaryCacheStore</text>
<text text-anchor="middle" x="701.25" y="-201.88" font-family="Helvetica,sans-Serif" font-size="10.00">Config</text>
</a>
</g>
</g>
<!-- Node14&#45;&gt;Node16 -->
<g id="edge15_Node000014_Node000016" class="edge">
<title>Node14&#45;&gt;Node16</title>
<g id="a_edge15_Node000014_Node000016"><a xlink:title=" ">
<path fill="none" stroke="#63b8ff" d="M599.54,-211.38C608.49,-211.38 617.52,-211.38 626.29,-211.38"/>
<polygon fill="#63b8ff" stroke="#63b8ff" points="599.79,-207.88 589.79,-211.38 599.79,-214.88 599.79,-207.88"/>
</a>
</g>
</g>
<!-- Node18 -->
<g id="Node000018" class="node">
<title>Node18</title>
<g id="a_Node000018"><a xlink:href="structnix_1_1LegacySSHStoreConfig.html" target="_top" xlink:title=" ">
<polygon fill="white" stroke="#bfbfbf" points="774.88,-176.75 627.62,-176.75 627.62,-156 774.88,-156 774.88,-176.75"/>
<text text-anchor="middle" x="701.25" y="-163.25" font-family="Helvetica,sans-Serif" font-size="10.00">nix::LegacySSHStoreConfig</text>
</a>
</g>
</g>
<!-- Node17&#45;&gt;Node18 -->
<g id="edge17_Node000017_Node000018" class="edge">
<title>Node17&#45;&gt;Node18</title>
<g id="a_edge17_Node000017_Node000018"><a xlink:title=" ">
<path fill="none" stroke="#63b8ff" d="M600.66,-166.38C609.62,-166.38 618.65,-166.38 627.42,-166.38"/>
<polygon fill="#63b8ff" stroke="#63b8ff" points="600.88,-162.88 590.88,-166.38 600.88,-169.88 600.88,-162.88"/>
</a>
</g>
</g>
<!-- Node20 -->
<g id="Node000020" class="node">
<title>Node20</title>
<g id="a_Node000020"><a xlink:href="structnix_1_1SSHStoreConfig.html" target="_top" xlink:title=" ">
<polygon fill="white" stroke="#bfbfbf" points="757.62,-137.75 644.88,-137.75 644.88,-117 757.62,-117 757.62,-137.75"/>
<text text-anchor="middle" x="701.25" y="-124.25" font-family="Helvetica,sans-Serif" font-size="10.00">nix::SSHStoreConfig</text>
</a>
</g>
</g>
<!-- Node17&#45;&gt;Node20 -->
<g id="edge19_Node000017_Node000020" class="edge">
<title>Node17&#45;&gt;Node20</title>
<g id="a_edge19_Node000017_Node000020"><a xlink:title=" ">
<path fill="none" stroke="#63b8ff" d="M575.04,-153.25C598.64,-148.37 625.12,-142.9 647.63,-138.25"/>
<polygon fill="#63b8ff" stroke="#63b8ff" points="574.64,-149.75 565.56,-155.21 576.06,-156.61 574.64,-149.75"/>
</a>
</g>
</g>
<!-- Node19 -->
<g id="Node000019" class="node">
<title>Node19</title>
<g id="a_Node000019"><a xlink:href="structnix_1_1LegacySSHStoreConfigWithLog.html" target="_top" xlink:title=" ">
<polygon fill="white" stroke="#bfbfbf" points="960.75,-183.12 813.5,-183.12 813.5,-149.62 960.75,-149.62 960.75,-183.12"/>
<text text-anchor="start" x="821.5" y="-169.62" font-family="Helvetica,sans-Serif" font-size="10.00">nix::LegacySSHStoreConfig</text>
<text text-anchor="middle" x="887.12" y="-156.88" font-family="Helvetica,sans-Serif" font-size="10.00">WithLog</text>
</a>
</g>
</g>
<!-- Node18&#45;&gt;Node19 -->
<g id="edge18_Node000018_Node000019" class="edge">
<title>Node18&#45;&gt;Node19</title>
<g id="a_edge18_Node000018_Node000019"><a xlink:title=" ">
<path fill="none" stroke="#63b8ff" d="M786.45,-166.38C795.41,-166.38 804.47,-166.38 813.28,-166.38"/>
<polygon fill="#63b8ff" stroke="#63b8ff" points="786.7,-162.88 776.7,-166.38 786.7,-169.88 786.7,-162.88"/>
</a>
</g>
</g>
<!-- Node23 -->
<g id="Node000023" class="node">
<title>Node23</title>
<g id="a_Node000023"><a xlink:href="structnix_1_1LocalStoreConfig.html" target="_top" xlink:title=" ">
<polygon fill="white" stroke="#bfbfbf" points="760.62,-59.75 641.88,-59.75 641.88,-39 760.62,-39 760.62,-59.75"/>
<text text-anchor="middle" x="701.25" y="-46.25" font-family="Helvetica,sans-Serif" font-size="10.00">nix::LocalStoreConfig</text>
</a>
</g>
</g>
<!-- Node22&#45;&gt;Node23 -->
<g id="edge22_Node000022_Node000023" class="edge">
<title>Node22&#45;&gt;Node23</title>
<g id="a_edge22_Node000022_Node000023"><a xlink:title=" ">
<path fill="none" stroke="#63b8ff" d="M587.32,-49.38C605.36,-49.38 624.35,-49.38 641.5,-49.38"/>
<polygon fill="#63b8ff" stroke="#63b8ff" points="587.44,-45.88 577.44,-49.38 587.44,-52.88 587.44,-45.88"/>
</a>
</g>
</g>
<!-- Node24 -->
<g id="Node000024" class="node">
<title>Node24</title>
<g id="a_Node000024"><a xlink:href="structnix_1_1RestrictedStoreConfig.html" target="_top" xlink:title=" ">
<polygon fill="white" stroke="#bfbfbf" points="772.62,-20.75 629.88,-20.75 629.88,0 772.62,0 772.62,-20.75"/>
<text text-anchor="middle" x="701.25" y="-7.25" font-family="Helvetica,sans-Serif" font-size="10.00">nix::RestrictedStoreConfig</text>
</a>
</g>
</g>
<!-- Node22&#45;&gt;Node24 -->
<g id="edge23_Node000022_Node000024" class="edge">
<title>Node22&#45;&gt;Node24</title>
<g id="a_edge23_Node000022_Node000024"><a xlink:title=" ">
<path fill="none" stroke="#63b8ff" d="M575.04,-36.25C598.64,-31.37 625.12,-25.9 647.63,-21.25"/>
<polygon fill="#63b8ff" stroke="#63b8ff" points="574.64,-32.75 565.56,-38.21 576.06,-39.61 574.64,-32.75"/>
</a>
</g>
</g>
<!-- Node25 -->
<g id="Node000025" class="node">
<title>Node25</title>
<g id="a_Node000025"><a xlink:href="structnix_1_1UDSRemoteStoreConfig.html" target="_top" xlink:title=" ">
<polygon fill="white" stroke="#bfbfbf" points="777.5,-98.75 625,-98.75 625,-78 777.5,-78 777.5,-98.75"/>
<text text-anchor="middle" x="701.25" y="-85.25" font-family="Helvetica,sans-Serif" font-size="10.00">nix::UDSRemoteStoreConfig</text>
</a>
</g>
</g>
<!-- Node22&#45;&gt;Node25 -->
<g id="edge24_Node000022_Node000025" class="edge">
<title>Node22&#45;&gt;Node25</title>
<g id="a_edge24_Node000022_Node000025"><a xlink:title=" ">
<path fill="none" stroke="#63b8ff" d="M575.04,-62.5C598.64,-67.38 625.12,-72.85 647.63,-77.5"/>
<polygon fill="#63b8ff" stroke="#63b8ff" points="576.06,-59.14 565.56,-60.54 574.64,-66 576.06,-59.14"/>
</a>
</g>
</g>
<!-- Node26&#45;&gt;Node20 -->
<g id="edge26_Node000026_Node000020" class="edge">
<title>Node26&#45;&gt;Node20</title>
<g id="a_edge26_Node000026_Node000020"><a xlink:title=" ">
<path fill="none" stroke="#63b8ff" d="M575.04,-101.5C598.64,-106.38 625.12,-111.85 647.63,-116.5"/>
<polygon fill="#63b8ff" stroke="#63b8ff" points="576.06,-98.14 565.56,-99.54 574.64,-105 576.06,-98.14"/>
</a>
</g>
</g>
<!-- Node26&#45;&gt;Node25 -->
<g id="edge27_Node000026_Node000025" class="edge">
<title>Node26&#45;&gt;Node25</title>
<g id="a_edge27_Node000026_Node000025"><a xlink:title=" ">
<path fill="none" stroke="#63b8ff" d="M588.12,-88.38C600.17,-88.38 612.62,-88.38 624.65,-88.38"/>
<polygon fill="#63b8ff" stroke="#63b8ff" points="588.23,-84.88 578.23,-88.38 588.23,-91.88 588.23,-84.88"/>
</a>
</g>
</g>
</g>
</svg>
