<?xml version="1.0" encoding="UTF-8" standalone="no"?>
<!DOCTYPE svg PUBLIC "-//W3C//DTD SVG 1.1//EN"
 "http://www.w3.org/Graphics/SVG/1.1/DTD/svg11.dtd">
<!-- Generated by graphviz version 12.2.1 (0)
 -->
<!-- Title: nix::UDSRemoteStore Pages: 1 -->
<svg width="226pt" height="325pt"
 viewBox="0.00 0.00 226.00 325.25" xmlns="http://www.w3.org/2000/svg" xmlns:xlink="http://www.w3.org/1999/xlink">
<g id="graph0" class="graph" transform="scale(1 1) rotate(0) translate(4 321.25)">
<title>nix::UDSRemoteStore</title>
<!-- Node1 -->
<g id="Node000001" class="node">
<title>Node1</title>
<g id="a_Node000001"><a xlink:title=" ">
<polygon fill="#999999" stroke="#666666" points="168.5,-20.75 46.75,-20.75 46.75,0 168.5,0 168.5,-20.75"/>
<text text-anchor="middle" x="107.62" y="-7.25" font-family="Helvetica,sans-Serif" font-size="10.00">nix::UDSRemoteStore</text>
</a>
</g>
</g>
<!-- Node2 -->
<g id="Node000002" class="node">
<title>Node2</title>
<g id="a_Node000002"><a xlink:href="structnix_1_1IndirectRootStore.html" target="_top" xlink:title=" ">
<polygon fill="white" stroke="#666666" points="124.5,-77.5 2.75,-77.5 2.75,-56.75 124.5,-56.75 124.5,-77.5"/>
<text text-anchor="middle" x="63.62" y="-64" font-family="Helvetica,sans-Serif" font-size="10.00">nix::IndirectRootStore</text>
</a>
</g>
</g>
<!-- Node2&#45;&gt;Node1 -->
<g id="edge1_Node000001_Node000002" class="edge">
<title>Node2&#45;&gt;Node1</title>
<g id="a_edge1_Node000001_Node000002"><a xlink:title=" ">
<path fill="none" stroke="#63b8ff" d="M78.63,-47.46C85.75,-38.59 93.96,-28.37 99.83,-21.08"/>
<polygon fill="#63b8ff" stroke="#63b8ff" points="75.98,-45.17 72.44,-55.16 81.43,-49.55 75.98,-45.17"/>
</a>
</g>
</g>
<!-- Node3 -->
<g id="Node000003" class="node">
<title>Node3</title>
<g id="a_Node000003"><a xlink:href="classnix_1_1LocalFSStore.html" target="_top" xlink:title=" ">
<polygon fill="white" stroke="#bfbfbf" points="99.25,-134.25 0,-134.25 0,-113.5 99.25,-113.5 99.25,-134.25"/>
<text text-anchor="middle" x="49.62" y="-120.75" font-family="Helvetica,sans-Serif" font-size="10.00">nix::LocalFSStore</text>
</a>
</g>
</g>
<!-- Node3&#45;&gt;Node2 -->
<g id="edge2_Node000002_Node000003" class="edge">
<title>Node3&#45;&gt;Node2</title>
<g id="a_edge2_Node000002_Node000003"><a xlink:title=" ">
<path fill="none" stroke="#63b8ff" d="M54.91,-102.21C57.05,-93.84 59.42,-84.58 61.14,-77.83"/>
<polygon fill="#63b8ff" stroke="#63b8ff" points="51.59,-101.07 52.5,-111.62 58.37,-102.8 51.59,-101.07"/>
</a>
</g>
</g>
<!-- Node4 -->
<g id="Node000004" class="node">
<title>Node4</title>
<g id="a_Node000004"><a xlink:href="classnix_1_1Store.html" target="_top" xlink:title=" ">
<polygon fill="white" stroke="#bfbfbf" points="139.88,-247.75 77.38,-247.75 77.38,-227 139.88,-227 139.88,-247.75"/>
<text text-anchor="middle" x="108.62" y="-234.25" font-family="Helvetica,sans-Serif" font-size="10.00">nix::Store</text>
</a>
</g>
</g>
<!-- Node4&#45;&gt;Node3 -->
<g id="edge3_Node000003_Node000004" class="edge">
<title>Node4&#45;&gt;Node3</title>
<g id="a_edge3_Node000003_Node000004"><a xlink:title=" ">
<path fill="none" stroke="#63b8ff" d="M66.22,-227.15C46.66,-220.54 25.25,-209.44 13.62,-191 1.42,-171.65 22.73,-147.86 37.43,-134.73"/>
<polygon fill="#63b8ff" stroke="#63b8ff" points="65.09,-230.46 75.67,-230.02 67.12,-223.76 65.09,-230.46"/>
</a>
</g>
</g>
<!-- Node6 -->
<g id="Node000006" class="node">
<title>Node6</title>
<g id="a_Node000006"><a xlink:href="structnix_1_1GcStore.html" target="_top" xlink:title=" ">
<polygon fill="white" stroke="#666666" points="98.25,-191 23,-191 23,-170.25 98.25,-170.25 98.25,-191"/>
<text text-anchor="middle" x="60.62" y="-177.5" font-family="Helvetica,sans-Serif" font-size="10.00">nix::GcStore</text>
</a>
</g>
</g>
<!-- Node4&#45;&gt;Node6 -->
<g id="edge6_Node000006_Node000004" class="edge">
<title>Node4&#45;&gt;Node6</title>
<g id="a_edge6_Node000006_Node000004"><a xlink:title=" ">
<path fill="none" stroke="#63b8ff" d="M92.51,-217.99C84.68,-209.06 75.6,-198.7 69.13,-191.33"/>
<polygon fill="#63b8ff" stroke="#63b8ff" points="89.82,-220.24 99.05,-225.45 95.09,-215.62 89.82,-220.24"/>
</a>
</g>
</g>
<!-- Node7 -->
<g id="Node000007" class="node">
<title>Node7</title>
<g id="a_Node000007"><a xlink:href="structnix_1_1LogStore.html" target="_top" xlink:title=" ">
<polygon fill="white" stroke="#bfbfbf" points="196.5,-191 116.75,-191 116.75,-170.25 196.5,-170.25 196.5,-191"/>
<text text-anchor="middle" x="156.62" y="-177.5" font-family="Helvetica,sans-Serif" font-size="10.00">nix::LogStore</text>
</a>
</g>
</g>
<!-- Node4&#45;&gt;Node7 -->
<g id="edge8_Node000007_Node000004" class="edge">
<title>Node4&#45;&gt;Node7</title>
<g id="a_edge8_Node000007_Node000004"><a xlink:title=" ">
<path fill="none" stroke="#63b8ff" d="M124.74,-217.99C132.57,-209.06 141.65,-198.7 148.12,-191.33"/>
<polygon fill="#63b8ff" stroke="#63b8ff" points="122.16,-215.62 118.2,-225.45 127.43,-220.24 122.16,-215.62"/>
</a>
</g>
</g>
<!-- Node8 -->
<g id="Node000008" class="node">
<title>Node8</title>
<g id="a_Node000008"><a xlink:href="classnix_1_1RemoteStore.html" target="_top" xlink:title=" ">
<polygon fill="white" stroke="#666666" points="218,-134.25 117.25,-134.25 117.25,-113.5 218,-113.5 218,-134.25"/>
<text text-anchor="middle" x="167.62" y="-120.75" font-family="Helvetica,sans-Serif" font-size="10.00">nix::RemoteStore</text>
</a>
</g>
</g>
<!-- Node4&#45;&gt;Node8 -->
<g id="edge10_Node000008_Node000004" class="edge">
<title>Node4&#45;&gt;Node8</title>
<g id="a_edge10_Node000008_Node000004"><a xlink:title=" ">
<path fill="none" stroke="#63b8ff" d="M151.2,-227.61C171.35,-221.09 193.58,-209.93 205.62,-191 218.06,-171.45 195.74,-147.73 180.37,-134.67"/>
<polygon fill="#63b8ff" stroke="#63b8ff" points="150.38,-224.2 141.75,-230.35 152.33,-230.92 150.38,-224.2"/>
</a>
</g>
</g>
<!-- Node5 -->
<g id="Node000005" class="node">
<title>Node5</title>
<g id="a_Node000005"><a xlink:title=" ">
<polygon fill="white" stroke="#bfbfbf" points="166.5,-317.25 50.75,-317.25 50.75,-283.75 166.5,-283.75 166.5,-317.25"/>
<text text-anchor="start" x="58.75" y="-303.75" font-family="Helvetica,sans-Serif" font-size="10.00">std::enable_shared</text>
<text text-anchor="middle" x="108.62" y="-291" font-family="Helvetica,sans-Serif" font-size="10.00">_from_this&lt; Store &gt;</text>
</a>
</g>
</g>
<!-- Node5&#45;&gt;Node4 -->
<g id="edge4_Node000004_Node000005" class="edge">
<title>Node5&#45;&gt;Node4</title>
<g id="a_edge4_Node000004_Node000005"><a xlink:title=" ">
<path fill="none" stroke="#63b8ff" d="M108.62,-271.94C108.62,-263.46 108.62,-254.67 108.62,-248.22"/>
<polygon fill="#63b8ff" stroke="#63b8ff" points="105.13,-271.93 108.63,-281.93 112.13,-271.93 105.13,-271.93"/>
</a>
</g>
</g>
<!-- Node6&#45;&gt;Node3 -->
<g id="edge5_Node000003_Node000006" class="edge">
<title>Node6&#45;&gt;Node3</title>
<g id="a_edge5_Node000003_Node000006"><a xlink:title=" ">
<path fill="none" stroke="#63b8ff" d="M56.41,-158.67C54.75,-150.38 52.92,-141.25 51.57,-134.58"/>
<polygon fill="#63b8ff" stroke="#63b8ff" points="52.96,-159.24 58.36,-168.35 59.82,-157.86 52.96,-159.24"/>
</a>
</g>
</g>
<!-- Node6&#45;&gt;Node8 -->
<g id="edge11_Node000008_Node000006" class="edge">
<title>Node6&#45;&gt;Node8</title>
<g id="a_edge11_Node000008_Node000006"><a xlink:title=" ">
<path fill="none" stroke="#63b8ff" d="M89.84,-164.68C108.57,-155.09 132.35,-142.92 148.66,-134.58"/>
<polygon fill="#63b8ff" stroke="#63b8ff" points="88.41,-161.48 81.1,-169.15 91.6,-167.71 88.41,-161.48"/>
</a>
</g>
</g>
<!-- Node7&#45;&gt;Node3 -->
<g id="edge7_Node000003_Node000007" class="edge">
<title>Node7&#45;&gt;Node3</title>
<g id="a_edge7_Node000003_Node000007"><a xlink:title=" ">
<path fill="none" stroke="#63b8ff" d="M127.41,-164.68C108.68,-155.09 84.9,-142.92 68.59,-134.58"/>
<polygon fill="#63b8ff" stroke="#63b8ff" points="125.65,-167.71 136.15,-169.15 128.84,-161.48 125.65,-167.71"/>
</a>
</g>
</g>
<!-- Node7&#45;&gt;Node8 -->
<g id="edge12_Node000008_Node000007" class="edge">
<title>Node7&#45;&gt;Node8</title>
<g id="a_edge12_Node000008_Node000007"><a xlink:title=" ">
<path fill="none" stroke="#63b8ff" d="M160.84,-158.67C162.5,-150.38 164.33,-141.25 165.68,-134.58"/>
<polygon fill="#63b8ff" stroke="#63b8ff" points="157.43,-157.86 158.89,-168.35 164.29,-159.24 157.43,-157.86"/>
</a>
</g>
</g>
<!-- Node8&#45;&gt;Node1 -->
<g id="edge9_Node000001_Node000008" class="edge">
<title>Node8&#45;&gt;Node1</title>
<g id="a_edge9_Node000001_Node000008"><a xlink:title=" ">
<path fill="none" stroke="#63b8ff" d="M157.76,-103.11C151.09,-89.91 142.01,-72.19 133.62,-56.75 126.86,-44.3 118.69,-30.18 113.33,-21.04"/>
<polygon fill="#63b8ff" stroke="#63b8ff" points="154.62,-104.67 162.24,-112.03 160.88,-101.53 154.62,-104.67"/>
</a>
</g>
</g>
</g>
</svg>
