<?xml version="1.0" encoding="UTF-8" standalone="no"?>
<!DOCTYPE svg PUBLIC "-//W3C//DTD SVG 1.1//EN"
 "http://www.w3.org/Graphics/SVG/1.1/DTD/svg11.dtd">
<!-- Generated by graphviz version 12.2.1 (0)
 -->
<!-- Title: nix::DerivationTest Pages: 1 -->
<svg width="434pt" height="142pt"
 viewBox="0.00 0.00 434.12 142.25" xmlns="http://www.w3.org/2000/svg" xmlns:xlink="http://www.w3.org/1999/xlink">
<g id="graph0" class="graph" transform="scale(1 1) rotate(0) translate(4 138.25)">
<title>nix::DerivationTest</title>
<!-- Node1 -->
<g id="Node000001" class="node">
<title>Node1</title>
<g id="a_Node000001"><a xlink:title=" ">
<polygon fill="#999999" stroke="#666666" points="255.88,-77.5 148.38,-77.5 148.38,-56.75 255.88,-56.75 255.88,-77.5"/>
<text text-anchor="middle" x="202.12" y="-64" font-family="Helvetica,sans-Serif" font-size="10.00">nix::DerivationTest</text>
</a>
</g>
</g>
<!-- Node3 -->
<g id="Node000003" class="node">
<title>Node3</title>
<g id="a_Node000003"><a xlink:href="classnix_1_1CaDerivationTest.html" target="_top" xlink:title=" ">
<polygon fill="white" stroke="#bfbfbf" points="120.25,-20.75 0,-20.75 0,0 120.25,0 120.25,-20.75"/>
<text text-anchor="middle" x="60.12" y="-7.25" font-family="Helvetica,sans-Serif" font-size="10.00">nix::CaDerivationTest</text>
</a>
</g>
</g>
<!-- Node1&#45;&gt;Node3 -->
<g id="edge2_Node000001_Node000003" class="edge">
<title>Node1&#45;&gt;Node3</title>
<g id="a_edge2_Node000001_Node000003"><a xlink:title=" ">
<path fill="none" stroke="#63b8ff" d="M166.11,-52.24C140.86,-42.5 107.74,-29.73 85.29,-21.08"/>
<polygon fill="#63b8ff" stroke="#63b8ff" points="164.74,-55.46 175.33,-55.79 167.25,-48.93 164.74,-55.46"/>
</a>
</g>
</g>
<!-- Node4 -->
<g id="Node000004" class="node">
<title>Node4</title>
<g id="a_Node000004"><a xlink:href="classnix_1_1DynDerivationTest.html" target="_top" xlink:title=" ">
<polygon fill="white" stroke="#bfbfbf" points="265.62,-20.75 138.62,-20.75 138.62,0 265.62,0 265.62,-20.75"/>
<text text-anchor="middle" x="202.12" y="-7.25" font-family="Helvetica,sans-Serif" font-size="10.00">nix::DynDerivationTest</text>
</a>
</g>
</g>
<!-- Node1&#45;&gt;Node4 -->
<g id="edge3_Node000001_Node000004" class="edge">
<title>Node1&#45;&gt;Node4</title>
<g id="a_edge3_Node000001_Node000004"><a xlink:title=" ">
<path fill="none" stroke="#63b8ff" d="M202.12,-44.88C202.12,-36.66 202.12,-27.68 202.12,-21.08"/>
<polygon fill="#63b8ff" stroke="#63b8ff" points="198.63,-44.82 202.13,-54.82 205.63,-44.82 198.63,-44.82"/>
</a>
</g>
</g>
<!-- Node5 -->
<g id="Node000005" class="node">
<title>Node5</title>
<g id="a_Node000005"><a xlink:href="classnix_1_1ImpureDerivationTest.html" target="_top" xlink:title=" ">
<polygon fill="white" stroke="#bfbfbf" points="426.12,-20.75 284.12,-20.75 284.12,0 426.12,0 426.12,-20.75"/>
<text text-anchor="middle" x="355.12" y="-7.25" font-family="Helvetica,sans-Serif" font-size="10.00">nix::ImpureDerivationTest</text>
</a>
</g>
</g>
<!-- Node1&#45;&gt;Node5 -->
<g id="edge4_Node000001_Node000005" class="edge">
<title>Node1&#45;&gt;Node5</title>
<g id="a_edge4_Node000001_Node000005"><a xlink:title=" ">
<path fill="none" stroke="#63b8ff" d="M240.17,-52.51C267.37,-42.78 303.34,-29.9 327.75,-21.17"/>
<polygon fill="#63b8ff" stroke="#63b8ff" points="239.14,-49.16 230.9,-55.83 241.5,-55.75 239.14,-49.16"/>
</a>
</g>
</g>
<!-- Node2 -->
<g id="Node000002" class="node">
<title>Node2</title>
<g id="a_Node000002"><a xlink:title=" ">
<polygon fill="white" stroke="#bfbfbf" points="239.75,-134.25 164.5,-134.25 164.5,-113.5 239.75,-113.5 239.75,-134.25"/>
<text text-anchor="middle" x="202.12" y="-120.75" font-family="Helvetica,sans-Serif" font-size="10.00">LibStoreTest</text>
</a>
</g>
</g>
<!-- Node2&#45;&gt;Node1 -->
<g id="edge1_Node000001_Node000002" class="edge">
<title>Node2&#45;&gt;Node1</title>
<g id="a_edge1_Node000001_Node000002"><a xlink:title=" ">
<path fill="none" stroke="#63b8ff" d="M202.12,-101.63C202.12,-93.41 202.12,-84.43 202.12,-77.83"/>
<polygon fill="#63b8ff" stroke="#63b8ff" points="198.63,-101.57 202.13,-111.57 205.63,-101.57 198.63,-101.57"/>
</a>
</g>
</g>
</g>
</svg>
