<?xml version="1.0" encoding="UTF-8" standalone="no"?>
<!DOCTYPE svg PUBLIC "-//W3C//DTD SVG 1.1//EN"
 "http://www.w3.org/Graphics/SVG/1.1/DTD/svg11.dtd">
<!-- Generated by graphviz version 12.2.1 (0)
 -->
<!-- Title: nix::MixCommonArgs Pages: 1 -->
<svg width="194pt" height="142pt"
 viewBox="0.00 0.00 194.25 142.25" xmlns="http://www.w3.org/2000/svg" xmlns:xlink="http://www.w3.org/1999/xlink">
<g id="graph0" class="graph" transform="scale(1 1) rotate(0) translate(4 138.25)">
<title>nix::MixCommonArgs</title>
<!-- Node1 -->
<g id="Node000001" class="node">
<title>Node1</title>
<g id="a_Node000001"><a xlink:title=" ">
<polygon fill="#999999" stroke="#666666" points="158.12,-77.5 37.12,-77.5 37.12,-56.75 158.12,-56.75 158.12,-77.5"/>
<text text-anchor="middle" x="97.62" y="-64" font-family="Helvetica,sans-Serif" font-size="10.00">nix::MixCommonArgs</text>
</a>
</g>
</g>
<!-- Node3 -->
<g id="Node000003" class="node">
<title>Node3</title>
<g id="a_Node000003"><a xlink:href="structnix_1_1LegacyArgs.html" target="_top" xlink:title=" ">
<polygon fill="white" stroke="#bfbfbf" points="93.25,-20.75 0,-20.75 0,0 93.25,0 93.25,-20.75"/>
<text text-anchor="middle" x="46.62" y="-7.25" font-family="Helvetica,sans-Serif" font-size="10.00">nix::LegacyArgs</text>
</a>
</g>
</g>
<!-- Node1&#45;&gt;Node3 -->
<g id="edge2_Node000001_Node000003" class="edge">
<title>Node1&#45;&gt;Node3</title>
<g id="a_edge2_Node000001_Node000003"><a xlink:title=" ">
<path fill="none" stroke="#63b8ff" d="M80.76,-48.02C72.39,-39.03 62.6,-28.53 55.66,-21.08"/>
<polygon fill="#63b8ff" stroke="#63b8ff" points="78.1,-50.3 87.48,-55.23 83.22,-45.53 78.1,-50.3"/>
</a>
</g>
</g>
<!-- Node4 -->
<g id="Node000004" class="node">
<title>Node4</title>
<g id="a_Node000004"><a xlink:href="structnix_1_1NixArgs.html" target="_top" xlink:title=" ">
<polygon fill="white" stroke="#bfbfbf" points="186.25,-20.75 111,-20.75 111,0 186.25,0 186.25,-20.75"/>
<text text-anchor="middle" x="148.62" y="-7.25" font-family="Helvetica,sans-Serif" font-size="10.00">nix::NixArgs</text>
</a>
</g>
</g>
<!-- Node1&#45;&gt;Node4 -->
<g id="edge3_Node000001_Node000004" class="edge">
<title>Node1&#45;&gt;Node4</title>
<g id="a_edge3_Node000001_Node000004"><a xlink:title=" ">
<path fill="none" stroke="#63b8ff" d="M114.49,-48.02C122.86,-39.03 132.65,-28.53 139.59,-21.08"/>
<polygon fill="#63b8ff" stroke="#63b8ff" points="112.03,-45.53 107.77,-55.23 117.15,-50.3 112.03,-45.53"/>
</a>
</g>
</g>
<!-- Node2 -->
<g id="Node000002" class="node">
<title>Node2</title>
<g id="a_Node000002"><a xlink:href="classnix_1_1Args.html" target="_top" xlink:title=" ">
<polygon fill="white" stroke="#bfbfbf" points="127,-134.25 68.25,-134.25 68.25,-113.5 127,-113.5 127,-134.25"/>
<text text-anchor="middle" x="97.62" y="-120.75" font-family="Helvetica,sans-Serif" font-size="10.00">nix::Args</text>
</a>
</g>
</g>
<!-- Node2&#45;&gt;Node1 -->
<g id="edge1_Node000001_Node000002" class="edge">
<title>Node2&#45;&gt;Node1</title>
<g id="a_edge1_Node000001_Node000002"><a xlink:title=" ">
<path fill="none" stroke="#63b8ff" d="M97.62,-101.63C97.62,-93.41 97.62,-84.43 97.62,-77.83"/>
<polygon fill="#63b8ff" stroke="#63b8ff" points="94.13,-101.57 97.63,-111.57 101.13,-101.57 94.13,-101.57"/>
</a>
</g>
</g>
</g>
</svg>
