<?xml version="1.0" encoding="UTF-8" standalone="no"?>
<!DOCTYPE svg PUBLIC "-//W3C//DTD SVG 1.1//EN"
 "http://www.w3.org/Graphics/SVG/1.1/DTD/svg11.dtd">
<!-- Generated by graphviz version 12.2.1 (0)
 -->
<!-- Title: nix::PrimOpTest Pages: 1 -->
<svg width="485pt" height="155pt"
 viewBox="0.00 0.00 485.25 155.00" xmlns="http://www.w3.org/2000/svg" xmlns:xlink="http://www.w3.org/1999/xlink">
<g id="graph0" class="graph" transform="scale(1 1) rotate(0) translate(4 151)">
<title>nix::PrimOpTest</title>
<!-- Node1 -->
<g id="Node000001" class="node">
<title>Node1</title>
<g id="a_Node000001"><a xlink:title=" ">
<polygon fill="#999999" stroke="#666666" points="291.75,-90.25 199.25,-90.25 199.25,-69.5 291.75,-69.5 291.75,-90.25"/>
<text text-anchor="middle" x="245.5" y="-76.75" font-family="Helvetica,sans-Serif" font-size="10.00">nix::PrimOpTest</text>
</a>
</g>
</g>
<!-- Node3 -->
<g id="Node000003" class="node">
<title>Node3</title>
<g id="a_Node000003"><a xlink:href="classnix_1_1CompareVersionsPrimOpTest.html" target="_top" xlink:title=" ">
<polygon fill="white" stroke="#bfbfbf" points="145,-33.5 0,-33.5 0,0 145,0 145,-33.5"/>
<text text-anchor="start" x="8" y="-20" font-family="Helvetica,sans-Serif" font-size="10.00">nix::CompareVersionsPrim</text>
<text text-anchor="middle" x="72.5" y="-7.25" font-family="Helvetica,sans-Serif" font-size="10.00">OpTest</text>
</a>
</g>
</g>
<!-- Node1&#45;&gt;Node3 -->
<g id="edge2_Node000001_Node000003" class="edge">
<title>Node1&#45;&gt;Node3</title>
<g id="a_edge2_Node000001_Node000003"><a xlink:title=" ">
<path fill="none" stroke="#63b8ff" d="M207.06,-65.29C180.88,-56.04 146.09,-43.75 118.45,-33.98"/>
<polygon fill="#63b8ff" stroke="#63b8ff" points="205.68,-68.52 216.28,-68.55 208.01,-61.92 205.68,-68.52"/>
</a>
</g>
</g>
<!-- Node4 -->
<g id="Node000004" class="node">
<title>Node4</title>
<g id="a_Node000004"><a xlink:href="classnix_1_1ParseDrvNamePrimOpTest.html" target="_top" xlink:title=" ">
<polygon fill="white" stroke="#bfbfbf" points="328.12,-27.12 162.88,-27.12 162.88,-6.38 328.12,-6.38 328.12,-27.12"/>
<text text-anchor="middle" x="245.5" y="-13.62" font-family="Helvetica,sans-Serif" font-size="10.00">nix::ParseDrvNamePrimOpTest</text>
</a>
</g>
</g>
<!-- Node1&#45;&gt;Node4 -->
<g id="edge3_Node000001_Node000004" class="edge">
<title>Node1&#45;&gt;Node4</title>
<g id="a_edge3_Node000001_Node000004"><a xlink:title=" ">
<path fill="none" stroke="#63b8ff" d="M245.5,-57.61C245.5,-47.3 245.5,-35.43 245.5,-27.34"/>
<polygon fill="#63b8ff" stroke="#63b8ff" points="242,-57.54 245.5,-67.54 249,-57.54 242,-57.54"/>
</a>
</g>
</g>
<!-- Node5 -->
<g id="Node000005" class="node">
<title>Node5</title>
<g id="a_Node000005"><a xlink:href="classnix_1_1ToStringPrimOpTest.html" target="_top" xlink:title=" ">
<polygon fill="white" stroke="#bfbfbf" points="477.25,-27.12 345.75,-27.12 345.75,-6.38 477.25,-6.38 477.25,-27.12"/>
<text text-anchor="middle" x="411.5" y="-13.62" font-family="Helvetica,sans-Serif" font-size="10.00">nix::ToStringPrimOpTest</text>
</a>
</g>
</g>
<!-- Node1&#45;&gt;Node5 -->
<g id="edge4_Node000001_Node000005" class="edge">
<title>Node1&#45;&gt;Node5</title>
<g id="a_edge4_Node000001_Node000005"><a xlink:title=" ">
<path fill="none" stroke="#63b8ff" d="M282.59,-65.22C313.64,-53.78 357.21,-37.74 384.9,-27.55"/>
<polygon fill="#63b8ff" stroke="#63b8ff" points="281.77,-61.79 273.59,-68.53 284.18,-68.36 281.77,-61.79"/>
</a>
</g>
</g>
<!-- Node2 -->
<g id="Node000002" class="node">
<title>Node2</title>
<g id="a_Node000002"><a xlink:title=" ">
<polygon fill="white" stroke="#bfbfbf" points="281.25,-147 209.75,-147 209.75,-126.25 281.25,-126.25 281.25,-147"/>
<text text-anchor="middle" x="245.5" y="-133.5" font-family="Helvetica,sans-Serif" font-size="10.00">LibExprTest</text>
</a>
</g>
</g>
<!-- Node2&#45;&gt;Node1 -->
<g id="edge1_Node000001_Node000002" class="edge">
<title>Node2&#45;&gt;Node1</title>
<g id="a_edge1_Node000001_Node000002"><a xlink:title=" ">
<path fill="none" stroke="#63b8ff" d="M245.5,-114.38C245.5,-106.16 245.5,-97.18 245.5,-90.58"/>
<polygon fill="#63b8ff" stroke="#63b8ff" points="242,-114.32 245.5,-124.32 249,-114.32 242,-114.32"/>
</a>
</g>
</g>
</g>
</svg>
