<?xml version="1.0" encoding="UTF-8" standalone="no"?>
<!DOCTYPE svg PUBLIC "-//W3C//DTD SVG 1.1//EN"
 "http://www.w3.org/Graphics/SVG/1.1/DTD/svg11.dtd">
<!-- Generated by graphviz version 12.2.1 (0)
 -->
<!-- Title: nix::Worker Pages: 1 -->
<svg width="551pt" height="389pt"
 viewBox="0.00 0.00 551.00 388.94" xmlns="http://www.w3.org/2000/svg" xmlns:xlink="http://www.w3.org/1999/xlink">
<g id="graph0" class="graph" transform="scale(1 1) rotate(0) translate(4 384.94)">
<title>nix::Worker</title>
<!-- Node1 -->
<g id="Node000001" class="node">
<title>Node1</title>
<g id="a_Node000001"><a xlink:title=" ">
<polygon fill="#999999" stroke="#666666" points="543,-252.03 472.25,-252.03 472.25,-231.28 543,-231.28 543,-252.03"/>
<text text-anchor="middle" x="507.62" y="-238.53" font-family="Helvetica,sans-Serif" font-size="10.00">nix::Worker</text>
</a>
</g>
</g>
<!-- Node2 -->
<g id="Node000002" class="node">
<title>Node2</title>
<g id="a_Node000002"><a xlink:href="classnix_1_1WorkerBase.html" target="_top" xlink:title=" ">
<polygon fill="white" stroke="#bfbfbf" points="305.75,-379.03 211,-379.03 211,-358.28 305.75,-358.28 305.75,-379.03"/>
<text text-anchor="middle" x="258.38" y="-365.53" font-family="Helvetica,sans-Serif" font-size="10.00">nix::WorkerBase</text>
</a>
</g>
</g>
<!-- Node2&#45;&gt;Node1 -->
<g id="edge1_Node000001_Node000002" class="edge">
<title>Node2&#45;&gt;Node1</title>
<g id="a_edge1_Node000001_Node000002"><a xlink:title=" ">
<path fill="none" stroke="#63b8ff" d="M317.59,-379.1C359.24,-383.32 414.7,-381.95 454.25,-354.65 489.66,-330.2 501.67,-275.48 505.26,-252.33"/>
<polygon fill="#63b8ff" stroke="#63b8ff" points="318.08,-375.64 307.74,-377.96 317.27,-382.59 318.08,-375.64"/>
</a>
</g>
</g>
<!-- Node3 -->
<g id="Node000003" class="node">
<title>Node3</title>
<g id="a_Node000003"><a xlink:href="classnix_1_1GoalFactory.html" target="_top" xlink:title=" ">
<polygon fill="white" stroke="#bfbfbf" points="109.75,-379.03 15,-379.03 15,-358.28 109.75,-358.28 109.75,-379.03"/>
<text text-anchor="middle" x="62.38" y="-365.53" font-family="Helvetica,sans-Serif" font-size="10.00">nix::GoalFactory</text>
</a>
</g>
</g>
<!-- Node3&#45;&gt;Node2 -->
<g id="edge2_Node000002_Node000003" class="edge">
<title>Node3&#45;&gt;Node2</title>
<g id="a_edge2_Node000002_Node000003"><a xlink:title=" ">
<path fill="none" stroke="darkgreen" d="M121.29,-368.65C149.82,-368.65 183.76,-368.65 210.61,-368.65"/>
<polygon fill="darkgreen" stroke="darkgreen" points="121.36,-365.15 111.36,-368.65 121.36,-372.15 121.36,-365.15"/>
</a>
</g>
</g>
<!-- Node4 -->
<g id="Node000004" class="node">
<title>Node4</title>
<g id="a_Node000004"><a xlink:href="structnix_1_1Activity.html" target="_top" xlink:title=" ">
<polygon fill="white" stroke="#bfbfbf" points="295.62,-333.03 221.12,-333.03 221.12,-312.28 295.62,-312.28 295.62,-333.03"/>
<text text-anchor="middle" x="258.38" y="-319.53" font-family="Helvetica,sans-Serif" font-size="10.00">nix::Activity</text>
</a>
</g>
</g>
<!-- Node4&#45;&gt;Node1 -->
<g id="edge3_Node000001_Node000004" class="edge">
<title>Node4&#45;&gt;Node1</title>
<g id="a_edge3_Node000001_Node000004"><a xlink:title=" ">
<path fill="none" stroke="#9a32cd" stroke-dasharray="5,2" d="M307.04,-319.47C347.76,-315.29 407.05,-305.68 454.25,-283.65 470.73,-275.96 486.57,-262.05 496.44,-252.35"/>
<polygon fill="#9a32cd" stroke="#9a32cd" points="306.95,-315.96 297.33,-320.39 307.61,-322.93 306.95,-315.96"/>
</a>
</g>
<text text-anchor="middle" x="397.25" y="-343.87" font-family="Helvetica,sans-Serif" font-size="10.00" fill="grey"> act</text>
<text text-anchor="middle" x="397.25" y="-331.12" font-family="Helvetica,sans-Serif" font-size="10.00" fill="grey">actDerivations</text>
<text text-anchor="middle" x="397.25" y="-318.37" font-family="Helvetica,sans-Serif" font-size="10.00" fill="grey">actSubstitutions</text>
</g>
<!-- Node5 -->
<g id="Node000005" class="node">
<title>Node5</title>
<g id="a_Node000005"><a xlink:href="classnix_1_1Logger.html" target="_top" xlink:title=" ">
<polygon fill="white" stroke="#bfbfbf" points="97.38,-336.03 27.38,-336.03 27.38,-315.28 97.38,-315.28 97.38,-336.03"/>
<text text-anchor="middle" x="62.38" y="-322.53" font-family="Helvetica,sans-Serif" font-size="10.00">nix::Logger</text>
</a>
</g>
</g>
<!-- Node5&#45;&gt;Node4 -->
<g id="edge4_Node000004_Node000005" class="edge">
<title>Node5&#45;&gt;Node4</title>
<g id="a_edge4_Node000004_Node000005"><a xlink:title=" ">
<path fill="none" stroke="#9a32cd" stroke-dasharray="5,2" d="M108.69,-324.95C142.84,-324.42 189.05,-323.71 220.84,-323.22"/>
<polygon fill="#9a32cd" stroke="#9a32cd" points="109.07,-321.44 99.13,-325.1 109.18,-328.44 109.07,-321.44"/>
</a>
</g>
<text text-anchor="middle" x="159.62" y="-327.67" font-family="Helvetica,sans-Serif" font-size="10.00" fill="grey"> logger</text>
</g>
<!-- Node6 -->
<g id="Node000006" class="node">
<title>Node6</title>
<g id="a_Node000006"><a xlink:href="classnix_1_1Store.html" target="_top" xlink:title=" ">
<polygon fill="white" stroke="#bfbfbf" points="289.62,-272.03 227.12,-272.03 227.12,-251.28 289.62,-251.28 289.62,-272.03"/>
<text text-anchor="middle" x="258.38" y="-258.53" font-family="Helvetica,sans-Serif" font-size="10.00">nix::Store</text>
</a>
</g>
</g>
<!-- Node6&#45;&gt;Node1 -->
<g id="edge5_Node000001_Node000006" class="edge">
<title>Node6&#45;&gt;Node1</title>
<g id="a_edge5_Node000001_Node000006"><a xlink:title=" ">
<path fill="none" stroke="#9a32cd" stroke-dasharray="5,2" d="M300.93,-258.29C348.99,-254.4 427.22,-248.07 472.08,-244.44"/>
<polygon fill="#9a32cd" stroke="#9a32cd" points="300.89,-254.78 291.2,-259.08 301.45,-261.76 300.89,-254.78"/>
</a>
</g>
<text text-anchor="middle" x="397.25" y="-270.61" font-family="Helvetica,sans-Serif" font-size="10.00" fill="grey"> evalStore</text>
<text text-anchor="middle" x="397.25" y="-257.86" font-family="Helvetica,sans-Serif" font-size="10.00" fill="grey">store</text>
</g>
<!-- Node7 -->
<g id="Node000007" class="node">
<title>Node7</title>
<g id="a_Node000007"><a xlink:title=" ">
<polygon fill="white" stroke="#bfbfbf" points="120.25,-297.4 4.5,-297.4 4.5,-263.9 120.25,-263.9 120.25,-297.4"/>
<text text-anchor="start" x="12.5" y="-283.9" font-family="Helvetica,sans-Serif" font-size="10.00">std::enable_shared</text>
<text text-anchor="middle" x="62.38" y="-271.15" font-family="Helvetica,sans-Serif" font-size="10.00">_from_this&lt; Store &gt;</text>
</a>
</g>
</g>
<!-- Node7&#45;&gt;Node6 -->
<g id="edge6_Node000006_Node000007" class="edge">
<title>Node7&#45;&gt;Node6</title>
<g id="a_edge6_Node000006_Node000007"><a xlink:title=" ">
<path fill="none" stroke="#63b8ff" d="M131.78,-273.95C164.2,-270.78 201.31,-267.14 226.74,-264.65"/>
<polygon fill="#63b8ff" stroke="#63b8ff" points="131.65,-270.45 122.04,-274.91 132.33,-277.41 131.65,-270.45"/>
</a>
</g>
</g>
<!-- Node8 -->
<g id="Node000008" class="node">
<title>Node8</title>
<g id="a_Node000008"><a xlink:href="classnix_1_1Sync.html" target="_top" xlink:title=" ">
<polygon fill="white" stroke="#666666" points="124.75,-245.4 0,-245.4 0,-211.9 124.75,-211.9 124.75,-245.4"/>
<text text-anchor="start" x="8" y="-231.9" font-family="Helvetica,sans-Serif" font-size="10.00">nix::Sync&lt; nix::Store</text>
<text text-anchor="middle" x="62.38" y="-219.15" font-family="Helvetica,sans-Serif" font-size="10.00">::State, AsyncMutex &gt;</text>
</a>
</g>
</g>
<!-- Node8&#45;&gt;Node6 -->
<g id="edge7_Node000006_Node000008" class="edge">
<title>Node8&#45;&gt;Node6</title>
<g id="a_edge7_Node000006_Node000008"><a xlink:title=" ">
<path fill="none" stroke="#9a32cd" stroke-dasharray="5,2" d="M135.97,-241C167.4,-246.35 202.49,-252.31 226.83,-256.45"/>
<polygon fill="#9a32cd" stroke="#9a32cd" points="136.96,-237.62 126.52,-239.39 135.79,-244.52 136.96,-237.62"/>
</a>
</g>
<text text-anchor="middle" x="159.62" y="-250.38" font-family="Helvetica,sans-Serif" font-size="10.00" fill="grey"> state</text>
</g>
<!-- Node9 -->
<g id="Node000009" class="node">
<title>Node9</title>
<g id="a_Node000009"><a xlink:href="structnix_1_1Store_1_1Stats.html" target="_top" xlink:title=" ">
<polygon fill="white" stroke="#bfbfbf" points="113.12,-193.4 11.62,-193.4 11.62,-159.9 113.12,-159.9 113.12,-193.4"/>
<text text-anchor="start" x="19.62" y="-179.9" font-family="Helvetica,sans-Serif" font-size="10.00">nix::Store::Stats&lt;</text>
<text text-anchor="middle" x="62.38" y="-167.15" font-family="Helvetica,sans-Serif" font-size="10.00"> std::atomic &gt;</text>
</a>
</g>
</g>
<!-- Node9&#45;&gt;Node6 -->
<g id="edge8_Node000006_Node000009" class="edge">
<title>Node9&#45;&gt;Node6</title>
<g id="a_edge8_Node000006_Node000009"><a xlink:title=" ">
<path fill="none" stroke="#9a32cd" stroke-dasharray="5,2" d="M114.65,-198.27C118.07,-199.75 121.46,-201.22 124.75,-202.65 147.86,-212.74 154.38,-213.81 176.5,-225.9 184.88,-230.48 185.99,-233.31 194.5,-237.65 204.7,-242.85 216.31,-247.59 226.74,-251.45"/>
<polygon fill="#9a32cd" stroke="#9a32cd" points="116.33,-195.19 105.76,-194.47 113.57,-201.62 116.33,-195.19"/>
</a>
</g>
<text text-anchor="middle" x="159.62" y="-229.15" font-family="Helvetica,sans-Serif" font-size="10.00" fill="grey"> stats</text>
</g>
<!-- Node10 -->
<g id="Node000010" class="node">
<title>Node10</title>
<g id="a_Node000010"><a xlink:href="classnix_1_1AsyncSemaphore.html" target="_top" xlink:title=" ">
<polygon fill="white" stroke="#bfbfbf" points="319.25,-229.03 197.5,-229.03 197.5,-208.28 319.25,-208.28 319.25,-229.03"/>
<text text-anchor="middle" x="258.38" y="-215.53" font-family="Helvetica,sans-Serif" font-size="10.00">nix::AsyncSemaphore</text>
</a>
</g>
</g>
<!-- Node10&#45;&gt;Node1 -->
<g id="edge9_Node000001_Node000010" class="edge">
<title>Node10&#45;&gt;Node1</title>
<g id="a_edge9_Node000001_Node000010"><a xlink:title=" ">
<path fill="none" stroke="#9a32cd" stroke-dasharray="5,2" d="M330.7,-209.68C367.96,-207.01 414.06,-206.89 454.25,-216.15 466.67,-219.01 479.55,-225.24 489.43,-230.82"/>
<polygon fill="#9a32cd" stroke="#9a32cd" points="330.63,-206.18 320.94,-210.47 331.19,-213.16 330.63,-206.18"/>
</a>
</g>
<text text-anchor="middle" x="397.25" y="-232.15" font-family="Helvetica,sans-Serif" font-size="10.00" fill="grey"> localBuilds</text>
<text text-anchor="middle" x="397.25" y="-219.4" font-family="Helvetica,sans-Serif" font-size="10.00" fill="grey">substitutions</text>
</g>
<!-- Node11 -->
<g id="Node000011" class="node">
<title>Node11</title>
<g id="a_Node000011"><a xlink:href="structnix_1_1Worker_1_1HookState.html" target="_top" xlink:title=" ">
<polygon fill="white" stroke="#bfbfbf" points="322.25,-190.03 194.5,-190.03 194.5,-169.28 322.25,-169.28 322.25,-190.03"/>
<text text-anchor="middle" x="258.38" y="-176.53" font-family="Helvetica,sans-Serif" font-size="10.00">nix::Worker::HookState</text>
</a>
</g>
</g>
<!-- Node11&#45;&gt;Node1 -->
<g id="edge10_Node000001_Node000011" class="edge">
<title>Node11&#45;&gt;Node1</title>
<g id="a_edge10_Node000001_Node000011"><a xlink:title=" ">
<path fill="none" stroke="#9a32cd" stroke-dasharray="5,2" d="M333.91,-171.97C371.47,-171.03 416.85,-174.48 454.25,-190.9 473.73,-199.45 490.2,-218.64 499.22,-230.81"/>
<polygon fill="#9a32cd" stroke="#9a32cd" points="333.9,-168.47 324.04,-172.34 334.16,-175.47 333.9,-168.47"/>
</a>
</g>
<text text-anchor="middle" x="397.25" y="-194.15" font-family="Helvetica,sans-Serif" font-size="10.00" fill="grey"> hook</text>
</g>
<!-- Node12 -->
<g id="Node000012" class="node">
<title>Node12</title>
<g id="a_Node000012"><a xlink:href="classnix_1_1NotifyingCounter.html" target="_top" xlink:title=" ">
<polygon fill="white" stroke="#bfbfbf" points="318.12,-34.4 198.62,-34.4 198.62,-0.9 318.12,-0.9 318.12,-34.4"/>
<text text-anchor="start" x="206.62" y="-20.9" font-family="Helvetica,sans-Serif" font-size="10.00">nix::NotifyingCounter</text>
<text text-anchor="middle" x="258.38" y="-8.15" font-family="Helvetica,sans-Serif" font-size="10.00">&lt; uint64_t &gt;</text>
</a>
</g>
</g>
<!-- Node12&#45;&gt;Node1 -->
<g id="edge11_Node000001_Node000012" class="edge">
<title>Node12&#45;&gt;Node1</title>
<g id="a_edge11_Node000001_Node000012"><a xlink:title=" ">
<path fill="none" stroke="#9a32cd" stroke-dasharray="5,2" d="M329.62,-2.06C370.38,2.73 420.23,0.7 454.25,-27.4 486.5,-54.05 501.85,-191.29 505.66,-230.92"/>
<polygon fill="#9a32cd" stroke="#9a32cd" points="329.32,1.44 319.88,-3.37 330.26,-5.5 329.32,1.44"/>
</a>
</g>
<text text-anchor="middle" x="397.25" y="-158.15" font-family="Helvetica,sans-Serif" font-size="10.00" fill="grey"> doneBuilds</text>
<text text-anchor="middle" x="397.25" y="-145.4" font-family="Helvetica,sans-Serif" font-size="10.00" fill="grey">doneDownloadSize</text>
<text text-anchor="middle" x="397.25" y="-132.65" font-family="Helvetica,sans-Serif" font-size="10.00" fill="grey">doneNarSize</text>
<text text-anchor="middle" x="397.25" y="-119.9" font-family="Helvetica,sans-Serif" font-size="10.00" fill="grey">doneSubstitutions</text>
<text text-anchor="middle" x="397.25" y="-107.15" font-family="Helvetica,sans-Serif" font-size="10.00" fill="grey">expectedBuilds</text>
<text text-anchor="middle" x="397.25" y="-94.4" font-family="Helvetica,sans-Serif" font-size="10.00" fill="grey">expectedDownloadSize</text>
<text text-anchor="middle" x="397.25" y="-81.65" font-family="Helvetica,sans-Serif" font-size="10.00" fill="grey">expectedNarSize</text>
<text text-anchor="middle" x="397.25" y="-68.9" font-family="Helvetica,sans-Serif" font-size="10.00" fill="grey">expectedSubstitutions</text>
<text text-anchor="middle" x="397.25" y="-56.15" font-family="Helvetica,sans-Serif" font-size="10.00" fill="grey">failedBuilds</text>
<text text-anchor="middle" x="397.25" y="-43.4" font-family="Helvetica,sans-Serif" font-size="10.00" fill="grey">failedSubstitutions</text>
<text text-anchor="middle" x="397.25" y="-30.65" font-family="Helvetica,sans-Serif" font-size="10.00" fill="grey">...</text>
</g>
</g>
</svg>
