<?xml version="1.0" encoding="UTF-8" standalone="no"?>
<!DOCTYPE svg PUBLIC "-//W3C//DTD SVG 1.1//EN"
 "http://www.w3.org/Graphics/SVG/1.1/DTD/svg11.dtd">
<!-- Generated by graphviz version 12.2.1 (0)
 -->
<!-- Title: nix::MultiCommand Pages: 1 -->
<svg width="122pt" height="156pt"
 viewBox="0.00 0.00 122.38 156.00" xmlns="http://www.w3.org/2000/svg" xmlns:xlink="http://www.w3.org/1999/xlink">
<g id="graph0" class="graph" transform="scale(1 1) rotate(0) translate(4 152)">
<title>nix::MultiCommand</title>
<!-- Node1 -->
<g id="Node000001" class="node">
<title>Node1</title>
<g id="a_Node000001"><a xlink:title=" ">
<polygon fill="#999999" stroke="#666666" points="114.38,-148 2.37,-148 2.37,-127.25 114.38,-127.25 114.38,-148"/>
<text text-anchor="middle" x="58.38" y="-134.5" font-family="Helvetica,sans-Serif" font-size="10.00">nix::MultiCommand</text>
</a>
</g>
</g>
<!-- Node3 -->
<g id="Node000003" class="node">
<title>Node3</title>
<g id="a_Node000003"><a xlink:href="classnix_1_1Args.html" target="_top" xlink:title=" ">
<polygon fill="white" stroke="#bfbfbf" points="58.75,-78.5 0,-78.5 0,-57.75 58.75,-57.75 58.75,-78.5"/>
<text text-anchor="middle" x="29.38" y="-65" font-family="Helvetica,sans-Serif" font-size="10.00">nix::Args</text>
</a>
</g>
</g>
<!-- Node1&#45;&gt;Node3 -->
<g id="edge3_Node000003_Node000001" class="edge">
<title>Node1&#45;&gt;Node3</title>
<g id="a_edge3_Node000003_Node000001"><a xlink:title=" ">
<path fill="none" stroke="#9a32cd" stroke-dasharray="5,2" d="M42.65,-117.76C40.84,-115.02 39.19,-112.14 37.88,-109.25 33.4,-99.39 31.25,-87.1 30.23,-78.73"/>
<polygon fill="#9a32cd" stroke="#9a32cd" points="39.77,-119.75 48.54,-125.69 45.38,-115.57 39.77,-119.75"/>
</a>
</g>
<text text-anchor="middle" x="55.12" y="-99.75" font-family="Helvetica,sans-Serif" font-size="10.00" fill="grey"> parent</text>
</g>
<!-- Node2 -->
<g id="Node000002" class="node">
<title>Node2</title>
<g id="a_Node000002"><a xlink:href="structnix_1_1Command.html" target="_top" xlink:title=" ">
<polygon fill="white" stroke="#666666" points="101,-20.75 13.75,-20.75 13.75,0 101,0 101,-20.75"/>
<text text-anchor="middle" x="57.38" y="-7.25" font-family="Helvetica,sans-Serif" font-size="10.00">nix::Command</text>
</a>
</g>
</g>
<!-- Node2&#45;&gt;Node1 -->
<g id="edge1_Node000001_Node000002" class="edge">
<title>Node2&#45;&gt;Node1</title>
<g id="a_edge1_Node000001_Node000002"><a xlink:title=" ">
<path fill="none" stroke="#63b8ff" d="M65.16,-32.06C71.59,-52.01 78.71,-82.95 72.38,-109.25 70.87,-115.48 67.71,-121.88 64.76,-126.93"/>
<polygon fill="#63b8ff" stroke="#63b8ff" points="68.47,-30.92 61.88,-22.63 61.86,-33.23 68.47,-30.92"/>
</a>
</g>
</g>
<!-- Node3&#45;&gt;Node2 -->
<g id="edge2_Node000002_Node000003" class="edge">
<title>Node3&#45;&gt;Node2</title>
<g id="a_edge2_Node000002_Node000003"><a xlink:title=" ">
<path fill="none" stroke="#63b8ff" d="M39.3,-47.37C43.8,-38.41 48.92,-28.22 52.55,-20.97"/>
<polygon fill="#63b8ff" stroke="#63b8ff" points="36.29,-45.55 34.93,-56.06 42.55,-48.7 36.29,-45.55"/>
</a>
</g>
</g>
</g>
</svg>
