<?xml version="1.0" encoding="UTF-8" standalone="no"?>
<!DOCTYPE svg PUBLIC "-//W3C//DTD SVG 1.1//EN"
 "http://www.w3.org/Graphics/SVG/1.1/DTD/svg11.dtd">
<!-- Generated by graphviz version 12.2.1 (0)
 -->
<!-- Title: nix::MixProfileElementMatchers Pages: 1 -->
<svg width="288pt" height="142pt"
 viewBox="0.00 0.00 288.12 142.25" xmlns="http://www.w3.org/2000/svg" xmlns:xlink="http://www.w3.org/1999/xlink">
<g id="graph0" class="graph" transform="scale(1 1) rotate(0) translate(4 138.25)">
<title>nix::MixProfileElementMatchers</title>
<!-- Node1 -->
<g id="Node000001" class="node">
<title>Node1</title>
<g id="a_Node000001"><a xlink:title=" ">
<polygon fill="#999999" stroke="#666666" points="225,-77.5 53.75,-77.5 53.75,-56.75 225,-56.75 225,-77.5"/>
<text text-anchor="middle" x="139.38" y="-64" font-family="Helvetica,sans-Serif" font-size="10.00">nix::MixProfileElementMatchers</text>
</a>
</g>
</g>
<!-- Node3 -->
<g id="Node000003" class="node">
<title>Node3</title>
<g id="a_Node000003"><a xlink:href="structnix_1_1CmdProfileRemove.html" target="_top" xlink:title=" ">
<polygon fill="white" stroke="#bfbfbf" points="130.75,-20.75 0,-20.75 0,0 130.75,0 130.75,-20.75"/>
<text text-anchor="middle" x="65.38" y="-7.25" font-family="Helvetica,sans-Serif" font-size="10.00">nix::CmdProfileRemove</text>
</a>
</g>
</g>
<!-- Node1&#45;&gt;Node3 -->
<g id="edge2_Node000001_Node000003" class="edge">
<title>Node1&#45;&gt;Node3</title>
<g id="a_edge2_Node000001_Node000003"><a xlink:title=" ">
<path fill="none" stroke="#63b8ff" d="M117.16,-49.69C104.55,-40.36 89.19,-29 78.49,-21.08"/>
<polygon fill="#63b8ff" stroke="#63b8ff" points="114.81,-52.3 124.93,-55.44 118.97,-46.68 114.81,-52.3"/>
</a>
</g>
</g>
<!-- Node4 -->
<g id="Node000004" class="node">
<title>Node4</title>
<g id="a_Node000004"><a xlink:href="structnix_1_1CmdProfileUpgrade.html" target="_top" xlink:title=" ">
<polygon fill="white" stroke="#bfbfbf" points="280.12,-20.75 148.62,-20.75 148.62,0 280.12,0 280.12,-20.75"/>
<text text-anchor="middle" x="214.38" y="-7.25" font-family="Helvetica,sans-Serif" font-size="10.00">nix::CmdProfileUpgrade</text>
</a>
</g>
</g>
<!-- Node1&#45;&gt;Node4 -->
<g id="edge3_Node000001_Node000004" class="edge">
<title>Node1&#45;&gt;Node4</title>
<g id="a_edge3_Node000001_Node000004"><a xlink:title=" ">
<path fill="none" stroke="#63b8ff" d="M161.89,-49.69C174.68,-40.36 190.24,-29 201.08,-21.08"/>
<polygon fill="#63b8ff" stroke="#63b8ff" points="160.02,-46.72 154.01,-55.44 164.15,-52.38 160.02,-46.72"/>
</a>
</g>
</g>
<!-- Node2 -->
<g id="Node000002" class="node">
<title>Node2</title>
<g id="a_Node000002"><a xlink:href="classnix_1_1Args.html" target="_top" xlink:title=" ">
<polygon fill="white" stroke="#bfbfbf" points="168.75,-134.25 110,-134.25 110,-113.5 168.75,-113.5 168.75,-134.25"/>
<text text-anchor="middle" x="139.38" y="-120.75" font-family="Helvetica,sans-Serif" font-size="10.00">nix::Args</text>
</a>
</g>
</g>
<!-- Node2&#45;&gt;Node1 -->
<g id="edge1_Node000001_Node000002" class="edge">
<title>Node2&#45;&gt;Node1</title>
<g id="a_edge1_Node000001_Node000002"><a xlink:title=" ">
<path fill="none" stroke="#8b1a1a" d="M139.38,-101.63C139.38,-93.41 139.38,-84.43 139.38,-77.83"/>
<polygon fill="#8b1a1a" stroke="#8b1a1a" points="135.88,-101.57 139.38,-111.57 142.88,-101.57 135.88,-101.57"/>
</a>
</g>
</g>
</g>
</svg>
