<?xml version="1.0" encoding="UTF-8" standalone="no"?>
<!DOCTYPE svg PUBLIC "-//W3C//DTD SVG 1.1//EN"
 "http://www.w3.org/Graphics/SVG/1.1/DTD/svg11.dtd">
<!-- Generated by graphviz version 12.2.1 (0)
 -->
<!-- Title: nix::EvalState Pages: 1 -->
<svg width="1367pt" height="579pt"
 viewBox="0.00 0.00 1367.00 579.39" xmlns="http://www.w3.org/2000/svg" xmlns:xlink="http://www.w3.org/1999/xlink">
<g id="graph0" class="graph" transform="scale(1 1) rotate(0) translate(4 575.39)">
<title>nix::EvalState</title>
<!-- Node1 -->
<g id="Node000001" class="node">
<title>Node1</title>
<g id="a_Node000001"><a xlink:title=" ">
<polygon fill="#999999" stroke="#666666" points="1359,-202.64 1275.5,-202.64 1275.5,-181.89 1359,-181.89 1359,-202.64"/>
<text text-anchor="middle" x="1317.25" y="-189.14" font-family="Helvetica,sans-Serif" font-size="10.00">nix::EvalState</text>
</a>
</g>
</g>
<!-- Node2 -->
<g id="Node000002" class="node">
<title>Node2</title>
<g id="a_Node000002"><a xlink:href="classnix_1_1Evaluator.html" target="_top" xlink:title=" ">
<polygon fill="white" stroke="#bfbfbf" points="1214.38,-294.64 1130.88,-294.64 1130.88,-273.89 1214.38,-273.89 1214.38,-294.64"/>
<text text-anchor="middle" x="1172.62" y="-281.14" font-family="Helvetica,sans-Serif" font-size="10.00">nix::Evaluator</text>
</a>
</g>
</g>
<!-- Node2&#45;&gt;Node1 -->
<g id="edge1_Node000001_Node000002" class="edge">
<title>Node2&#45;&gt;Node1</title>
<g id="a_edge1_Node000001_Node000002"><a xlink:title=" ">
<path fill="none" stroke="#9a32cd" stroke-dasharray="5,2" d="M1199.8,-267.38C1228.95,-248.57 1275.19,-218.75 1299.72,-202.93"/>
<polygon fill="#9a32cd" stroke="#9a32cd" points="1198.04,-264.35 1191.54,-272.71 1201.84,-270.23 1198.04,-264.35"/>
</a>
</g>
<text text-anchor="middle" x="1248.5" y="-244.27" font-family="Helvetica,sans-Serif" font-size="10.00" fill="grey"> ctx</text>
</g>
<!-- Node3 -->
<g id="Node000003" class="node">
<title>Node3</title>
<g id="a_Node000003"><a xlink:href="classnix_1_1SymbolTable.html" target="_top" xlink:title=" ">
<polygon fill="white" stroke="#666666" points="1017.62,-381.64 918.38,-381.64 918.38,-360.89 1017.62,-360.89 1017.62,-381.64"/>
<text text-anchor="middle" x="968" y="-368.14" font-family="Helvetica,sans-Serif" font-size="10.00">nix::SymbolTable</text>
</a>
</g>
</g>
<!-- Node3&#45;&gt;Node2 -->
<g id="edge2_Node000002_Node000003" class="edge">
<title>Node3&#45;&gt;Node2</title>
<g id="a_edge2_Node000002_Node000003"><a xlink:title=" ">
<path fill="none" stroke="#9a32cd" stroke-dasharray="5,2" d="M1029.01,-366.55C1053.77,-362.83 1082.14,-356.16 1105.75,-344.26 1129.79,-332.15 1151.58,-308.78 1163.08,-295.06"/>
<polygon fill="#9a32cd" stroke="#9a32cd" points="1028.85,-363.04 1019.41,-367.86 1029.79,-369.98 1028.85,-363.04"/>
</a>
</g>
<text text-anchor="middle" x="1079.5" y="-364.82" font-family="Helvetica,sans-Serif" font-size="10.00" fill="grey"> symbols</text>
</g>
<!-- Node4 -->
<g id="Node000004" class="node">
<title>Node4</title>
<g id="a_Node000004"><a xlink:href="classnix_1_1PosTable.html" target="_top" xlink:title=" ">
<polygon fill="white" stroke="#bfbfbf" points="810.38,-328.64 730.62,-328.64 730.62,-307.89 810.38,-307.89 810.38,-328.64"/>
<text text-anchor="middle" x="770.5" y="-315.14" font-family="Helvetica,sans-Serif" font-size="10.00">nix::PosTable</text>
</a>
</g>
</g>
<!-- Node4&#45;&gt;Node2 -->
<g id="edge3_Node000002_Node000004" class="edge">
<title>Node4&#45;&gt;Node2</title>
<g id="a_edge3_Node000002_Node000004"><a xlink:title=" ">
<path fill="none" stroke="#9a32cd" stroke-dasharray="5,2" d="M821.9,-319.1C887.65,-319.42 1006.04,-317.34 1105.75,-301.26 1115.2,-299.74 1125.26,-297.48 1134.6,-295.1"/>
<polygon fill="#9a32cd" stroke="#9a32cd" points="822.18,-315.61 812.16,-319.03 822.13,-322.61 822.18,-315.61"/>
</a>
</g>
<text text-anchor="middle" x="968" y="-321.48" font-family="Helvetica,sans-Serif" font-size="10.00" fill="grey"> positions</text>
</g>
<!-- Node25 -->
<g id="Node000025" class="node">
<title>Node25</title>
<g id="a_Node000025"><a xlink:href="structnix_1_1EvalErrorContext.html" target="_top" xlink:title=" ">
<polygon fill="white" stroke="#bfbfbf" points="1027.75,-294.64 908.25,-294.64 908.25,-273.89 1027.75,-273.89 1027.75,-294.64"/>
<text text-anchor="middle" x="968" y="-281.14" font-family="Helvetica,sans-Serif" font-size="10.00">nix::EvalErrorContext</text>
</a>
</g>
</g>
<!-- Node4&#45;&gt;Node25 -->
<g id="edge33_Node000025_Node000004" class="edge">
<title>Node4&#45;&gt;Node25</title>
<g id="a_edge33_Node000025_Node000004"><a xlink:title=" ">
<path fill="none" stroke="#9a32cd" stroke-dasharray="5,2" d="M821.55,-306.32C826.26,-305.32 830.96,-304.37 835.5,-303.51 859.08,-299.08 885.21,-295.07 907.92,-291.87"/>
<polygon fill="#9a32cd" stroke="#9a32cd" points="821.15,-302.82 812.13,-308.39 822.65,-309.66 821.15,-302.82"/>
</a>
</g>
<text text-anchor="middle" x="859.12" y="-306.76" font-family="Helvetica,sans-Serif" font-size="10.00" fill="grey"> positions</text>
</g>
<!-- Node5 -->
<g id="Node000005" class="node">
<title>Node5</title>
<g id="a_Node000005"><a xlink:href="structnix_1_1StaticSymbols.html" target="_top" xlink:title=" ">
<polygon fill="white" stroke="#bfbfbf" points="652.25,-139.64 545.5,-139.64 545.5,-118.89 652.25,-118.89 652.25,-139.64"/>
<text text-anchor="middle" x="598.88" y="-126.14" font-family="Helvetica,sans-Serif" font-size="10.00">nix::StaticSymbols</text>
</a>
</g>
</g>
<!-- Node5&#45;&gt;Node2 -->
<g id="edge4_Node000002_Node000005" class="edge">
<title>Node5&#45;&gt;Node2</title>
<g id="a_edge4_Node000002_Node000005"><a xlink:title=" ">
<path fill="none" stroke="#9a32cd" stroke-dasharray="5,2" d="M663.79,-124.32C749.65,-119.43 906.35,-116.62 1035.25,-148.26 1068.85,-156.51 1079.74,-158.46 1105.75,-181.26 1136.55,-208.27 1158.35,-253.1 1167.22,-273.53"/>
<polygon fill="#9a32cd" stroke="#9a32cd" points="663.69,-120.82 653.92,-124.92 664.11,-127.81 663.69,-120.82"/>
</a>
</g>
<text text-anchor="middle" x="859.12" y="-128.54" font-family="Helvetica,sans-Serif" font-size="10.00" fill="grey"> s</text>
</g>
<!-- Node6 -->
<g id="Node000006" class="node">
<title>Node6</title>
<g id="a_Node000006"><a xlink:href="classnix_1_1Symbol.html" target="_top" xlink:title=" ">
<polygon fill="white" stroke="#666666" points="199.25,-150.64 125.5,-150.64 125.5,-129.89 199.25,-129.89 199.25,-150.64"/>
<text text-anchor="middle" x="162.38" y="-137.14" font-family="Helvetica,sans-Serif" font-size="10.00">nix::Symbol</text>
</a>
</g>
</g>
<!-- Node6&#45;&gt;Node5 -->
<g id="edge5_Node000005_Node000006" class="edge">
<title>Node6&#45;&gt;Node5</title>
<g id="a_edge5_Node000005_Node000006"><a xlink:title=" ">
<path fill="none" stroke="#9a32cd" stroke-dasharray="5,2" d="M211.13,-139.06C293.06,-136.98 459.84,-132.76 545.1,-130.6"/>
<polygon fill="#9a32cd" stroke="#9a32cd" points="211.09,-135.55 201.19,-139.31 211.27,-142.55 211.09,-135.55"/>
</a>
</g>
<text text-anchor="middle" x="378.5" y="-267.14" font-family="Helvetica,sans-Serif" font-size="10.00" fill="grey"> allowedReferences</text>
<text text-anchor="middle" x="378.5" y="-254.39" font-family="Helvetica,sans-Serif" font-size="10.00" fill="grey">allowedRequisites</text>
<text text-anchor="middle" x="378.5" y="-241.64" font-family="Helvetica,sans-Serif" font-size="10.00" fill="grey">args</text>
<text text-anchor="middle" x="378.5" y="-228.89" font-family="Helvetica,sans-Serif" font-size="10.00" fill="grey">builder</text>
<text text-anchor="middle" x="378.5" y="-216.14" font-family="Helvetica,sans-Serif" font-size="10.00" fill="grey">column</text>
<text text-anchor="middle" x="378.5" y="-203.39" font-family="Helvetica,sans-Serif" font-size="10.00" fill="grey">contentAddressed</text>
<text text-anchor="middle" x="378.5" y="-190.64" font-family="Helvetica,sans-Serif" font-size="10.00" fill="grey">description</text>
<text text-anchor="middle" x="378.5" y="-177.89" font-family="Helvetica,sans-Serif" font-size="10.00" fill="grey">disallowedReferences</text>
<text text-anchor="middle" x="378.5" y="-165.14" font-family="Helvetica,sans-Serif" font-size="10.00" fill="grey">disallowedRequisites</text>
<text text-anchor="middle" x="378.5" y="-152.39" font-family="Helvetica,sans-Serif" font-size="10.00" fill="grey">drvPath</text>
<text text-anchor="middle" x="378.5" y="-139.64" font-family="Helvetica,sans-Serif" font-size="10.00" fill="grey">...</text>
</g>
<!-- Node7 -->
<g id="Node000007" class="node">
<title>Node7</title>
<g id="a_Node000007"><a xlink:href="structnix_1_1Expr_1_1AstSymbols.html" target="_top" xlink:title=" ">
<polygon fill="white" stroke="#bfbfbf" points="439.75,-62.64 317.25,-62.64 317.25,-41.89 439.75,-41.89 439.75,-62.64"/>
<text text-anchor="middle" x="378.5" y="-49.14" font-family="Helvetica,sans-Serif" font-size="10.00">nix::Expr::AstSymbols</text>
</a>
</g>
</g>
<!-- Node6&#45;&gt;Node7 -->
<g id="edge7_Node000007_Node000006" class="edge">
<title>Node6&#45;&gt;Node7</title>
<g id="a_edge7_Node000007_Node000006"><a xlink:title=" ">
<path fill="none" stroke="#9a32cd" stroke-dasharray="5,2" d="M165.36,-118.16C169.37,-88.1 181.42,-35.36 217.25,-11.51 264.09,19.66 333.14,-20.79 362.94,-41.46"/>
<polygon fill="#9a32cd" stroke="#9a32cd" points="161.89,-117.67 164.25,-127.99 168.85,-118.45 161.89,-117.67"/>
</a>
</g>
<text text-anchor="middle" x="256.75" y="-116.76" font-family="Helvetica,sans-Serif" font-size="10.00" fill="grey"> body</text>
<text text-anchor="middle" x="256.75" y="-104.01" font-family="Helvetica,sans-Serif" font-size="10.00" fill="grey">div</text>
<text text-anchor="middle" x="256.75" y="-91.26" font-family="Helvetica,sans-Serif" font-size="10.00" fill="grey">findFile</text>
<text text-anchor="middle" x="256.75" y="-78.51" font-family="Helvetica,sans-Serif" font-size="10.00" fill="grey">lessThan</text>
<text text-anchor="middle" x="256.75" y="-65.76" font-family="Helvetica,sans-Serif" font-size="10.00" fill="grey">mul</text>
<text text-anchor="middle" x="256.75" y="-53.01" font-family="Helvetica,sans-Serif" font-size="10.00" fill="grey">nixPath</text>
<text text-anchor="middle" x="256.75" y="-40.26" font-family="Helvetica,sans-Serif" font-size="10.00" fill="grey">or_</text>
<text text-anchor="middle" x="256.75" y="-27.51" font-family="Helvetica,sans-Serif" font-size="10.00" fill="grey">overrides</text>
<text text-anchor="middle" x="256.75" y="-14.76" font-family="Helvetica,sans-Serif" font-size="10.00" fill="grey">sub</text>
</g>
<!-- Node19 -->
<g id="Node000019" class="node">
<title>Node19</title>
<g id="a_Node000019"><a xlink:href="structnix_1_1ExprLambda.html" target="_top" xlink:title=" ">
<polygon fill="white" stroke="#bfbfbf" points="427.38,-409.64 329.62,-409.64 329.62,-388.89 427.38,-388.89 427.38,-409.64"/>
<text text-anchor="middle" x="378.5" y="-396.14" font-family="Helvetica,sans-Serif" font-size="10.00">nix::ExprLambda</text>
</a>
</g>
</g>
<!-- Node6&#45;&gt;Node19 -->
<g id="edge26_Node000019_Node000006" class="edge">
<title>Node6&#45;&gt;Node19</title>
<g id="a_edge26_Node000019_Node000006"><a xlink:title=" ">
<path fill="none" stroke="#9a32cd" stroke-dasharray="5,2" d="M178.54,-159.95C204.74,-194.54 259.25,-269.08 296.25,-337.51 306.06,-355.65 298.92,-366.48 314.25,-380.26 318.6,-384.17 323.73,-387.28 329.15,-389.74"/>
<polygon fill="#9a32cd" stroke="#9a32cd" points="181.41,-157.95 172.57,-152.12 175.85,-162.19 181.41,-157.95"/>
</a>
</g>
<text text-anchor="middle" x="256.75" y="-340.76" font-family="Helvetica,sans-Serif" font-size="10.00" fill="grey"> name</text>
</g>
<!-- Node7&#45;&gt;Node5 -->
<g id="edge6_Node000005_Node000007" class="edge">
<title>Node7&#45;&gt;Node5</title>
<g id="a_edge6_Node000005_Node000007"><a xlink:title=" ">
<path fill="none" stroke="#9a32cd" stroke-dasharray="5,2" d="M421.18,-66.96C463.82,-82 529.08,-105.01 567.21,-118.45"/>
<polygon fill="#9a32cd" stroke="#9a32cd" points="422.35,-63.66 411.75,-63.64 420.02,-70.26 422.35,-63.66"/>
</a>
</g>
<text text-anchor="middle" x="494.12" y="-107.61" font-family="Helvetica,sans-Serif" font-size="10.00" fill="grey"> exprSymbols</text>
</g>
<!-- Node8 -->
<g id="Node000008" class="node">
<title>Node8</title>
<g id="a_Node000008"><a xlink:href="classnix_1_1EvalMemory.html" target="_top" xlink:title=" ">
<polygon fill="white" stroke="#bfbfbf" points="1017.25,-255.64 918.75,-255.64 918.75,-234.89 1017.25,-234.89 1017.25,-255.64"/>
<text text-anchor="middle" x="968" y="-242.14" font-family="Helvetica,sans-Serif" font-size="10.00">nix::EvalMemory</text>
</a>
</g>
</g>
<!-- Node8&#45;&gt;Node2 -->
<g id="edge8_Node000002_Node000008" class="edge">
<title>Node8&#45;&gt;Node2</title>
<g id="a_edge8_Node000002_Node000008"><a xlink:title=" ">
<path fill="none" stroke="#9a32cd" stroke-dasharray="5,2" d="M1028.7,-253.81C1052.73,-257.56 1080.64,-262.29 1105.75,-267.51 1114.07,-269.24 1122.92,-271.33 1131.34,-273.43"/>
<polygon fill="#9a32cd" stroke="#9a32cd" points="1029.52,-250.4 1019.1,-252.34 1028.46,-257.32 1029.52,-250.4"/>
</a>
</g>
<text text-anchor="middle" x="1079.5" y="-270.76" font-family="Helvetica,sans-Serif" font-size="10.00" fill="grey"> mem</text>
</g>
<!-- Node9 -->
<g id="Node000009" class="node">
<title>Node9</title>
<g id="a_Node000009"><a xlink:href="structnix_1_1EvalRuntimeCaches.html" target="_top" xlink:title=" ">
<polygon fill="white" stroke="#bfbfbf" points="1035.25,-216.64 900.75,-216.64 900.75,-195.89 1035.25,-195.89 1035.25,-216.64"/>
<text text-anchor="middle" x="968" y="-203.14" font-family="Helvetica,sans-Serif" font-size="10.00">nix::EvalRuntimeCaches</text>
</a>
</g>
</g>
<!-- Node9&#45;&gt;Node2 -->
<g id="edge9_Node000002_Node000009" class="edge">
<title>Node9&#45;&gt;Node2</title>
<g id="a_edge9_Node000002_Node000009"><a xlink:title=" ">
<path fill="none" stroke="#9a32cd" stroke-dasharray="5,2" d="M1038.86,-219.67C1060.77,-225.08 1084.72,-232.28 1105.75,-241.51 1125.22,-250.07 1145.42,-264.07 1158.24,-273.71"/>
<polygon fill="#9a32cd" stroke="#9a32cd" points="1039.96,-216.33 1029.42,-217.42 1038.34,-223.14 1039.96,-216.33"/>
</a>
</g>
<text text-anchor="middle" x="1079.5" y="-244.76" font-family="Helvetica,sans-Serif" font-size="10.00" fill="grey"> caches</text>
</g>
<!-- Node10 -->
<g id="Node000010" class="node">
<title>Node10</title>
<g id="a_Node000010"><a xlink:href="classnix_1_1EvalPaths.html" target="_top" xlink:title=" ">
<polygon fill="white" stroke="#bfbfbf" points="1010.12,-177.64 925.88,-177.64 925.88,-156.89 1010.12,-156.89 1010.12,-177.64"/>
<text text-anchor="middle" x="968" y="-164.14" font-family="Helvetica,sans-Serif" font-size="10.00">nix::EvalPaths</text>
</a>
</g>
</g>
<!-- Node10&#45;&gt;Node2 -->
<g id="edge10_Node000002_Node000010" class="edge">
<title>Node10&#45;&gt;Node2</title>
<g id="a_edge10_Node000002_Node000010"><a xlink:title=" ">
<path fill="none" stroke="#9a32cd" stroke-dasharray="5,2" d="M1021.58,-175.38C1048.35,-181.27 1080.47,-191.17 1105.75,-207.51 1132.88,-225.05 1155.04,-257.03 1165.36,-273.63"/>
<polygon fill="#9a32cd" stroke="#9a32cd" points="1022.46,-171.99 1011.96,-173.4 1021.05,-178.85 1022.46,-171.99"/>
</a>
</g>
<text text-anchor="middle" x="1079.5" y="-210.76" font-family="Helvetica,sans-Serif" font-size="10.00" fill="grey"> paths</text>
</g>
<!-- Node11 -->
<g id="Node000011" class="node">
<title>Node11</title>
<g id="a_Node000011"><a xlink:href="classnix_1_1EvalBuiltins.html" target="_top" xlink:title=" ">
<polygon fill="white" stroke="#bfbfbf" points="1015.38,-420.64 920.62,-420.64 920.62,-399.89 1015.38,-399.89 1015.38,-420.64"/>
<text text-anchor="middle" x="968" y="-407.14" font-family="Helvetica,sans-Serif" font-size="10.00">nix::EvalBuiltins</text>
</a>
</g>
</g>
<!-- Node11&#45;&gt;Node2 -->
<g id="edge11_Node000002_Node000011" class="edge">
<title>Node11&#45;&gt;Node2</title>
<g id="a_edge11_Node000002_Node000011"><a xlink:title=" ">
<path fill="none" stroke="#9a32cd" stroke-dasharray="5,2" d="M1026.92,-406.08C1052.8,-401.96 1082.62,-393.91 1105.75,-378.26 1137.44,-356.83 1158.65,-314.67 1167.27,-294.93"/>
<polygon fill="#9a32cd" stroke="#9a32cd" points="1026.64,-402.59 1017.23,-407.45 1027.62,-409.52 1026.64,-402.59"/>
</a>
</g>
<text text-anchor="middle" x="1079.5" y="-403.85" font-family="Helvetica,sans-Serif" font-size="10.00" fill="grey"> builtins</text>
</g>
<!-- Node12 -->
<g id="Node000012" class="node">
<title>Node12</title>
<g id="a_Node000012"><a xlink:href="structnix_1_1Env.html" target="_top" xlink:title=" ">
<polygon fill="white" stroke="#bfbfbf" points="798,-420.64 743,-420.64 743,-399.89 798,-399.89 798,-420.64"/>
<text text-anchor="middle" x="770.5" y="-407.14" font-family="Helvetica,sans-Serif" font-size="10.00">nix::Env</text>
</a>
</g>
</g>
<!-- Node12&#45;&gt;Node11 -->
<g id="edge12_Node000011_Node000012" class="edge">
<title>Node12&#45;&gt;Node11</title>
<g id="a_edge12_Node000011_Node000012"><a xlink:title=" ">
<path fill="none" stroke="#9a32cd" stroke-dasharray="5,2" d="M809.7,-410.26C841.36,-410.26 886.5,-410.26 920.31,-410.26"/>
<polygon fill="#9a32cd" stroke="#9a32cd" points="809.79,-406.76 799.79,-410.26 809.79,-413.76 809.79,-406.76"/>
</a>
</g>
<text text-anchor="middle" x="859.12" y="-413.51" font-family="Helvetica,sans-Serif" font-size="10.00" fill="grey"> env</text>
</g>
<!-- Node12&#45;&gt;Node12 -->
<g id="edge13_Node000012_Node000012" class="edge">
<title>Node12&#45;&gt;Node12</title>
<g id="a_edge13_Node000012_Node000012"><a xlink:title=" ">
<path fill="none" stroke="#9a32cd" stroke-dasharray="5,2" d="M756.13,-432.45C758.17,-436.12 762.96,-438.64 770.5,-438.64 784.7,-438.64 789.14,-429.7 783.81,-421.04"/>
<polygon fill="#9a32cd" stroke="#9a32cd" points="759.61,-432.82 757.05,-422.54 752.64,-432.18 759.61,-432.82"/>
</a>
</g>
<text text-anchor="middle" x="770.5" y="-441.89" font-family="Helvetica,sans-Serif" font-size="10.00" fill="grey"> up</text>
</g>
<!-- Node13 -->
<g id="Node000013" class="node">
<title>Node13</title>
<g id="a_Node000013"><a xlink:href="structnix_1_1Value.html" target="_top" xlink:title=" ">
<polygon fill="white" stroke="#bfbfbf" points="630.88,-417.64 566.88,-417.64 566.88,-396.89 630.88,-396.89 630.88,-417.64"/>
<text text-anchor="middle" x="598.88" y="-404.14" font-family="Helvetica,sans-Serif" font-size="10.00">nix::Value</text>
</a>
</g>
</g>
<!-- Node12&#45;&gt;Node13 -->
<g id="edge21_Node000013_Node000012" class="edge">
<title>Node12&#45;&gt;Node13</title>
<g id="a_edge21_Node000013_Node000012"><a xlink:title=" ">
<path fill="none" stroke="#9a32cd" stroke-dasharray="5,2" d="M731.92,-397.32C723.34,-394.91 714.19,-392.76 705.5,-391.51 680.54,-387.93 652.29,-392.6 631.29,-397.77"/>
<polygon fill="#9a32cd" stroke="#9a32cd" points="730.75,-400.63 741.33,-400.15 732.77,-393.92 730.75,-400.63"/>
</a>
</g>
<text text-anchor="middle" x="687.88" y="-394.76" font-family="Helvetica,sans-Serif" font-size="10.00" fill="grey"> env</text>
</g>
<!-- Node13&#45;&gt;Node12 -->
<g id="edge14_Node000012_Node000013" class="edge">
<title>Node13&#45;&gt;Node12</title>
<g id="a_edge14_Node000012_Node000013"><a xlink:title=" ">
<path fill="none" stroke="#9a32cd" stroke-dasharray="5,2" d="M642.49,-408.02C673.98,-408.57 715.87,-409.32 742.77,-409.79"/>
<polygon fill="#9a32cd" stroke="#9a32cd" points="642.56,-404.52 632.5,-407.84 642.44,-411.52 642.56,-404.52"/>
</a>
</g>
<text text-anchor="middle" x="687.88" y="-412.37" font-family="Helvetica,sans-Serif" font-size="10.00" fill="grey"> values</text>
</g>
<!-- Node13&#45;&gt;Node13 -->
<g id="edge15_Node000013_Node000013" class="edge">
<title>Node13&#45;&gt;Node13</title>
<g id="a_edge15_Node000013_Node000013"><a xlink:title=" ">
<path fill="none" stroke="#9a32cd" stroke-dasharray="5,2" d="M583.4,-429.45C585.59,-433.12 590.75,-435.64 598.88,-435.64 614.17,-435.64 618.95,-426.7 613.22,-418.04"/>
<polygon fill="#9a32cd" stroke="#9a32cd" points="586.88,-429.84 584.38,-419.54 579.91,-429.15 586.88,-429.84"/>
</a>
</g>
<text text-anchor="middle" x="598.88" y="-489.89" font-family="Helvetica,sans-Serif" font-size="10.00" fill="grey"> EMPTY_LIST</text>
<text text-anchor="middle" x="598.88" y="-477.14" font-family="Helvetica,sans-Serif" font-size="10.00" fill="grey">elems</text>
<text text-anchor="middle" x="598.88" y="-464.39" font-family="Helvetica,sans-Serif" font-size="10.00" fill="grey">left</text>
<text text-anchor="middle" x="598.88" y="-451.64" font-family="Helvetica,sans-Serif" font-size="10.00" fill="grey">right</text>
<text text-anchor="middle" x="598.88" y="-438.89" font-family="Helvetica,sans-Serif" font-size="10.00" fill="grey">smallList</text>
</g>
<!-- Node14 -->
<g id="Node000014" class="node">
<title>Node14</title>
<g id="a_Node000014"><a xlink:href="structnix_1_1checked_1_1Checked.html" target="_top" xlink:title=" ">
<polygon fill="white" stroke="#666666" points="440.5,-371.01 316.5,-371.01 316.5,-337.51 440.5,-337.51 440.5,-371.01"/>
<text text-anchor="start" x="324.5" y="-357.51" font-family="Helvetica,sans-Serif" font-size="10.00">nix::checked::Checked</text>
<text text-anchor="middle" x="378.5" y="-344.76" font-family="Helvetica,sans-Serif" font-size="10.00">&lt; int64_t &gt;</text>
</a>
</g>
</g>
<!-- Node14&#45;&gt;Node13 -->
<g id="edge16_Node000013_Node000014" class="edge">
<title>Node14&#45;&gt;Node13</title>
<g id="a_edge16_Node000013_Node000014"><a xlink:title=" ">
<path fill="none" stroke="#9a32cd" stroke-dasharray="5,2" d="M451.88,-368.17C476.04,-373.17 503.03,-379.16 527.5,-385.51 540.37,-388.86 554.4,-393.07 566.52,-396.9"/>
<polygon fill="#9a32cd" stroke="#9a32cd" points="452.62,-364.74 442.12,-366.17 451.22,-371.6 452.62,-364.74"/>
</a>
</g>
<text text-anchor="middle" x="494.12" y="-388.76" font-family="Helvetica,sans-Serif" font-size="10.00" fill="grey"> integer</text>
</g>
<!-- Node15 -->
<g id="Node000015" class="node">
<title>Node15</title>
<g id="a_Node000015"><a xlink:title=" ">
<polygon fill="white" stroke="#bfbfbf" points="176.78,-364.64 147.97,-364.64 147.97,-343.89 176.78,-343.89 176.78,-364.64"/>
<text text-anchor="middle" x="162.38" y="-351.14" font-family="Helvetica,sans-Serif" font-size="10.00">T</text>
</a>
</g>
</g>
<!-- Node15&#45;&gt;Node14 -->
<g id="edge17_Node000014_Node000015" class="edge">
<title>Node15&#45;&gt;Node14</title>
<g id="a_edge17_Node000014_Node000015"><a xlink:title=" ">
<path fill="none" stroke="#9a32cd" stroke-dasharray="5,2" d="M188.58,-354.26C219.73,-354.26 273.81,-354.26 316.15,-354.26"/>
<polygon fill="#9a32cd" stroke="#9a32cd" points="188.61,-350.76 178.61,-354.26 188.61,-357.76 188.61,-350.76"/>
</a>
</g>
<text text-anchor="middle" x="256.75" y="-357.51" font-family="Helvetica,sans-Serif" font-size="10.00" fill="grey"> value</text>
</g>
<!-- Node16 -->
<g id="Node000016" class="node">
<title>Node16</title>
<g id="a_Node000016"><a xlink:href="classnix_1_1Bindings.html" target="_top" xlink:title=" ">
<polygon fill="white" stroke="#666666" points="296.25,-540.64 217.25,-540.64 217.25,-519.89 296.25,-519.89 296.25,-540.64"/>
<text text-anchor="middle" x="256.75" y="-527.14" font-family="Helvetica,sans-Serif" font-size="10.00">nix::Bindings</text>
</a>
</g>
</g>
<!-- Node16&#45;&gt;Node13 -->
<g id="edge18_Node000013_Node000016" class="edge">
<title>Node16&#45;&gt;Node13</title>
<g id="a_edge18_Node000013_Node000016"><a xlink:title=" ">
<path fill="none" stroke="#9a32cd" stroke-dasharray="5,2" d="M307.95,-534.24C364.88,-536.45 458.7,-532.9 527.5,-494.26 559.68,-476.19 582.86,-437.02 592.67,-418.03"/>
<polygon fill="#9a32cd" stroke="#9a32cd" points="308.39,-530.76 298.24,-533.79 308.07,-537.75 308.39,-530.76"/>
</a>
</g>
<text text-anchor="middle" x="378.5" y="-538" font-family="Helvetica,sans-Serif" font-size="10.00" fill="grey"> attrs</text>
</g>
<!-- Node16&#45;&gt;Node16 -->
<g id="edge20_Node000016_Node000016" class="edge">
<title>Node16&#45;&gt;Node16</title>
<g id="a_edge20_Node000016_Node000016"><a xlink:title=" ">
<path fill="none" stroke="#9a32cd" stroke-dasharray="5,2" d="M240.34,-552.45C242.66,-556.12 248.13,-558.64 256.75,-558.64 272.97,-558.64 278.04,-549.7 271.96,-541.04"/>
<polygon fill="#9a32cd" stroke="#9a32cd" points="243.82,-552.85 241.38,-542.54 236.86,-552.12 243.82,-552.85"/>
</a>
</g>
<text text-anchor="middle" x="256.75" y="-561.89" font-family="Helvetica,sans-Serif" font-size="10.00" fill="grey"> EMPTY</text>
</g>
<!-- Node17 -->
<g id="Node000017" class="node">
<title>Node17</title>
<g id="a_Node000017"><a xlink:href="classnix_1_1PosIdx.html" target="_top" xlink:title=" ">
<polygon fill="white" stroke="#bfbfbf" points="69.25,-499.64 0,-499.64 0,-478.89 69.25,-478.89 69.25,-499.64"/>
<text text-anchor="middle" x="34.62" y="-486.14" font-family="Helvetica,sans-Serif" font-size="10.00">nix::PosIdx</text>
</a>
</g>
</g>
<!-- Node17&#45;&gt;Node16 -->
<g id="edge19_Node000016_Node000017" class="edge">
<title>Node17&#45;&gt;Node16</title>
<g id="a_edge19_Node000016_Node000017"><a xlink:title=" ">
<path fill="none" stroke="#9a32cd" stroke-dasharray="5,2" d="M80.6,-497.64C120.72,-505.11 178.86,-515.94 216.98,-523.04"/>
<polygon fill="#9a32cd" stroke="#9a32cd" points="81.5,-494.25 71.03,-495.86 80.22,-501.13 81.5,-494.25"/>
</a>
</g>
<text text-anchor="middle" x="97.38" y="-505.28" font-family="Helvetica,sans-Serif" font-size="10.00" fill="grey"> pos</text>
</g>
<!-- Node18 -->
<g id="Node000018" class="node">
<title>Node18</title>
<g id="a_Node000018"><a xlink:href="structnix_1_1Expr.html" target="_top" xlink:title=" ">
<polygon fill="white" stroke="#bfbfbf" points="191.75,-455.64 133,-455.64 133,-434.89 191.75,-434.89 191.75,-455.64"/>
<text text-anchor="middle" x="162.38" y="-442.14" font-family="Helvetica,sans-Serif" font-size="10.00">nix::Expr</text>
</a>
</g>
</g>
<!-- Node17&#45;&gt;Node18 -->
<g id="edge23_Node000018_Node000017" class="edge">
<title>Node17&#45;&gt;Node18</title>
<g id="a_edge23_Node000018_Node000017"><a xlink:title=" ">
<path fill="none" stroke="#9a32cd" stroke-dasharray="5,2" d="M77.03,-474.78C95.24,-468.4 116.19,-461.07 132.65,-455.31"/>
<polygon fill="#9a32cd" stroke="#9a32cd" points="76.1,-471.39 67.82,-478 78.41,-478 76.1,-471.39"/>
</a>
</g>
<text text-anchor="middle" x="97.38" y="-473.15" font-family="Helvetica,sans-Serif" font-size="10.00" fill="grey"> pos</text>
</g>
<!-- Node18&#45;&gt;Node13 -->
<g id="edge22_Node000013_Node000018" class="edge">
<title>Node18&#45;&gt;Node13</title>
<g id="a_edge22_Node000013_Node000018"><a xlink:title=" ">
<path fill="none" stroke="#9a32cd" stroke-dasharray="5,2" d="M203.11,-444.34C270.22,-442.41 410.18,-436.73 527.5,-421.26 540.34,-419.57 554.37,-416.94 566.49,-414.42"/>
<polygon fill="#9a32cd" stroke="#9a32cd" points="203.24,-440.84 193.34,-444.61 203.43,-447.83 203.24,-440.84"/>
</a>
</g>
<text text-anchor="middle" x="378.5" y="-442.98" font-family="Helvetica,sans-Serif" font-size="10.00" fill="grey"> expr</text>
</g>
<!-- Node18&#45;&gt;Node19 -->
<g id="edge25_Node000019_Node000018" class="edge">
<title>Node18&#45;&gt;Node19</title>
<g id="a_edge25_Node000019_Node000018"><a xlink:title=" ">
<path fill="none" stroke="#63b8ff" d="M203.05,-434.68C207.82,-433.49 212.64,-432.32 217.25,-431.26 254.72,-422.66 297.42,-414.2 329.31,-408.14"/>
<polygon fill="#63b8ff" stroke="#63b8ff" points="202.39,-431.24 193.57,-437.1 204.12,-438.02 202.39,-431.24"/>
</a>
</g>
</g>
<!-- Node19&#45;&gt;Node13 -->
<g id="edge24_Node000013_Node000019" class="edge">
<title>Node19&#45;&gt;Node13</title>
<g id="a_edge24_Node000013_Node000019"><a xlink:title=" ">
<path fill="none" stroke="#9a32cd" stroke-dasharray="5,2" d="M438.98,-401.44C480.21,-402.95 533.48,-404.91 566.66,-406.12"/>
<polygon fill="#9a32cd" stroke="#9a32cd" points="439.33,-397.95 429.21,-401.09 439.07,-404.95 439.33,-397.95"/>
</a>
</g>
<text text-anchor="middle" x="494.12" y="-407.93" font-family="Helvetica,sans-Serif" font-size="10.00" fill="grey"> fun</text>
</g>
<!-- Node20 -->
<g id="Node000020" class="node">
<title>Node20</title>
<g id="a_Node000020"><a xlink:href="structnix_1_1PrimOp.html" target="_top" xlink:title=" ">
<polygon fill="white" stroke="#666666" points="415,-496.64 342,-496.64 342,-475.89 415,-475.89 415,-496.64"/>
<text text-anchor="middle" x="378.5" y="-483.14" font-family="Helvetica,sans-Serif" font-size="10.00">nix::PrimOp</text>
</a>
</g>
</g>
<!-- Node20&#45;&gt;Node13 -->
<g id="edge27_Node000013_Node000020" class="edge">
<title>Node20&#45;&gt;Node13</title>
<g id="a_edge27_Node000013_Node000020"><a xlink:title=" ">
<path fill="none" stroke="#9a32cd" stroke-dasharray="5,2" d="M426.59,-483.16C456.48,-479.88 495.44,-473.14 527.5,-459.26 550.92,-449.13 573.91,-429.9 586.95,-417.88"/>
<polygon fill="#9a32cd" stroke="#9a32cd" points="426.31,-479.67 416.7,-484.15 427,-486.64 426.31,-479.67"/>
</a>
</g>
<text text-anchor="middle" x="494.12" y="-480.83" font-family="Helvetica,sans-Serif" font-size="10.00" fill="grey"> primOp</text>
</g>
<!-- Node21 -->
<g id="Node000021" class="node">
<title>Node21</title>
<g id="a_Node000021"><a xlink:title=" ">
<polygon fill="white" stroke="#bfbfbf" points="184.25,-496.64 140.5,-496.64 140.5,-475.89 184.25,-475.89 184.25,-496.64"/>
<text text-anchor="middle" x="162.38" y="-483.14" font-family="Helvetica,sans-Serif" font-size="10.00">string</text>
</a>
</g>
</g>
<!-- Node21&#45;&gt;Node20 -->
<g id="edge28_Node000020_Node000021" class="edge">
<title>Node21&#45;&gt;Node20</title>
<g id="a_edge28_Node000020_Node000021"><a xlink:title=" ">
<path fill="none" stroke="#9a32cd" stroke-dasharray="5,2" d="M195.98,-486.26C235.28,-486.26 301.12,-486.26 341.77,-486.26"/>
<polygon fill="#9a32cd" stroke="#9a32cd" points="196.2,-482.76 186.2,-486.26 196.2,-489.76 196.2,-482.76"/>
</a>
</g>
<text text-anchor="middle" x="256.75" y="-489.51" font-family="Helvetica,sans-Serif" font-size="10.00" fill="grey"> name</text>
</g>
<!-- Node22 -->
<g id="Node000022" class="node">
<title>Node22</title>
<g id="a_Node000022"><a xlink:href="classnix_1_1ExternalValueBase.html" target="_top" xlink:title=" ">
<polygon fill="white" stroke="#666666" points="442.75,-319.64 314.25,-319.64 314.25,-298.89 442.75,-298.89 442.75,-319.64"/>
<text text-anchor="middle" x="378.5" y="-306.14" font-family="Helvetica,sans-Serif" font-size="10.00">nix::ExternalValueBase</text>
</a>
</g>
</g>
<!-- Node22&#45;&gt;Node13 -->
<g id="edge29_Node000013_Node000022" class="edge">
<title>Node22&#45;&gt;Node13</title>
<g id="a_edge29_Node000013_Node000022"><a xlink:title=" ">
<path fill="none" stroke="#9a32cd" stroke-dasharray="5,2" d="M443.14,-322.89C470.02,-330.01 501.14,-340.08 527.5,-353.51 550.51,-365.24 573.63,-384.73 586.8,-396.73"/>
<polygon fill="#9a32cd" stroke="#9a32cd" points="444.31,-319.58 433.76,-320.5 442.58,-326.36 444.31,-319.58"/>
</a>
</g>
<text text-anchor="middle" x="494.12" y="-356.76" font-family="Helvetica,sans-Serif" font-size="10.00" fill="grey"> external</text>
</g>
<!-- Node23 -->
<g id="Node000023" class="node">
<title>Node23</title>
<g id="a_Node000023"><a xlink:href="structnix_1_1EvalStatistics.html" target="_top" xlink:title=" ">
<polygon fill="white" stroke="#bfbfbf" points="1019.5,-505.64 916.5,-505.64 916.5,-484.89 1019.5,-484.89 1019.5,-505.64"/>
<text text-anchor="middle" x="968" y="-492.14" font-family="Helvetica,sans-Serif" font-size="10.00">nix::EvalStatistics</text>
</a>
</g>
</g>
<!-- Node23&#45;&gt;Node2 -->
<g id="edge30_Node000002_Node000023" class="edge">
<title>Node23&#45;&gt;Node2</title>
<g id="a_edge30_Node000002_Node000023"><a xlink:title=" ">
<path fill="none" stroke="#9a32cd" stroke-dasharray="5,2" d="M1030.92,-497.56C1056.66,-495.43 1085.24,-488.64 1105.75,-471.26 1161.42,-424.09 1170.06,-326.81 1171.39,-294.76"/>
<polygon fill="#9a32cd" stroke="#9a32cd" points="1031.01,-494.05 1021.23,-498.13 1031.42,-501.04 1031.01,-494.05"/>
</a>
</g>
<text text-anchor="middle" x="1079.5" y="-497.29" font-family="Helvetica,sans-Serif" font-size="10.00" fill="grey"> stats</text>
</g>
<!-- Node24 -->
<g id="Node000024" class="node">
<title>Node24</title>
<g id="a_Node000024"><a xlink:href="classnix_1_1ref.html" target="_top" xlink:title=" ">
<polygon fill="white" stroke="#666666" points="1027.75,-459.64 908.25,-459.64 908.25,-438.89 1027.75,-438.89 1027.75,-459.64"/>
<text text-anchor="middle" x="968" y="-446.14" font-family="Helvetica,sans-Serif" font-size="10.00">nix::ref&lt; nix::Store &gt;</text>
</a>
</g>
</g>
<!-- Node24&#45;&gt;Node2 -->
<g id="edge31_Node000002_Node000024" class="edge">
<title>Node24&#45;&gt;Node2</title>
<g id="a_edge31_Node000002_Node000024"><a xlink:title=" ">
<path fill="none" stroke="#9a32cd" stroke-dasharray="5,2" d="M1039.3,-444.76C1062.4,-440.35 1086.95,-432.17 1105.75,-417.26 1146.74,-384.77 1164.14,-320.18 1169.59,-294.83"/>
<polygon fill="#9a32cd" stroke="#9a32cd" points="1038.88,-441.28 1029.59,-446.39 1040.04,-448.19 1038.88,-441.28"/>
</a>
</g>
<text text-anchor="middle" x="1079.5" y="-457.28" font-family="Helvetica,sans-Serif" font-size="10.00" fill="grey"> buildStore</text>
<text text-anchor="middle" x="1079.5" y="-444.53" font-family="Helvetica,sans-Serif" font-size="10.00" fill="grey">store</text>
</g>
<!-- Node25&#45;&gt;Node2 -->
<g id="edge32_Node000002_Node000025" class="edge">
<title>Node25&#45;&gt;Node2</title>
<g id="a_edge32_Node000002_Node000025"><a xlink:title=" ">
<path fill="none" stroke="#9a32cd" stroke-dasharray="5,2" d="M1039.56,-284.26C1069.91,-284.26 1104.32,-284.26 1130.41,-284.26"/>
<polygon fill="#9a32cd" stroke="#9a32cd" points="1039.67,-280.76 1029.67,-284.26 1039.67,-287.76 1039.67,-280.76"/>
</a>
</g>
<text text-anchor="middle" x="1079.5" y="-287.51" font-family="Helvetica,sans-Serif" font-size="10.00" fill="grey"> errors</text>
</g>
<!-- Node26 -->
<g id="Node000026" class="node">
<title>Node26</title>
<g id="a_Node000026"><a xlink:href="structnix_1_1DebugState.html" target="_top" xlink:title=" ">
<polygon fill="white" stroke="#bfbfbf" points="817.5,-276.64 723.5,-276.64 723.5,-255.89 817.5,-255.89 817.5,-276.64"/>
<text text-anchor="middle" x="770.5" y="-263.14" font-family="Helvetica,sans-Serif" font-size="10.00">nix::DebugState</text>
</a>
</g>
</g>
<!-- Node26&#45;&gt;Node25 -->
<g id="edge34_Node000025_Node000026" class="edge">
<title>Node26&#45;&gt;Node25</title>
<g id="a_edge34_Node000025_Node000026"><a xlink:title=" ">
<path fill="none" stroke="#9a32cd" stroke-dasharray="5,2" d="M828.99,-264.89C846.31,-265.02 865.34,-265.7 882.75,-267.51 895.06,-268.8 908.25,-271.01 920.44,-273.41"/>
<polygon fill="#9a32cd" stroke="#9a32cd" points="829.41,-261.39 819.4,-264.88 829.4,-268.39 829.41,-261.39"/>
</a>
</g>
<text text-anchor="middle" x="859.12" y="-270.76" font-family="Helvetica,sans-Serif" font-size="10.00" fill="grey"> debug</text>
</g>
<!-- Node27 -->
<g id="Node000027" class="node">
<title>Node27</title>
<g id="a_Node000027"><a xlink:href="structnix_1_1AsyncIoRoot.html" target="_top" xlink:title=" ">
<polygon fill="white" stroke="#bfbfbf" points="1221.5,-183.64 1123.75,-183.64 1123.75,-162.89 1221.5,-162.89 1221.5,-183.64"/>
<text text-anchor="middle" x="1172.62" y="-170.14" font-family="Helvetica,sans-Serif" font-size="10.00">nix::AsyncIoRoot</text>
</a>
</g>
</g>
<!-- Node27&#45;&gt;Node1 -->
<g id="edge35_Node000001_Node000027" class="edge">
<title>Node27&#45;&gt;Node1</title>
<g id="a_edge35_Node000001_Node000027"><a xlink:title=" ">
<path fill="none" stroke="#9a32cd" stroke-dasharray="5,2" d="M1233.18,-173.93C1241.38,-174.5 1249.67,-175.33 1257.5,-176.51 1265.12,-177.67 1273.17,-179.45 1280.79,-181.4"/>
<polygon fill="#9a32cd" stroke="#9a32cd" points="1233.39,-170.44 1223.21,-173.37 1233,-177.42 1233.39,-170.44"/>
</a>
</g>
<text text-anchor="middle" x="1248.5" y="-179.76" font-family="Helvetica,sans-Serif" font-size="10.00" fill="grey"> aio</text>
</g>
<!-- Node28 -->
<g id="Node000028" class="node">
<title>Node28</title>
<g id="a_Node000028"><a xlink:href="structnix_1_1AsyncContext.html" target="_top" xlink:title=" ">
<polygon fill="white" stroke="#bfbfbf" points="1020.25,-70.64 915.75,-70.64 915.75,-49.89 1020.25,-49.89 1020.25,-70.64"/>
<text text-anchor="middle" x="968" y="-57.14" font-family="Helvetica,sans-Serif" font-size="10.00">nix::AsyncContext</text>
</a>
</g>
</g>
<!-- Node28&#45;&gt;Node27 -->
<g id="edge36_Node000027_Node000028" class="edge">
<title>Node28&#45;&gt;Node27</title>
<g id="a_edge36_Node000027_Node000028"><a xlink:title=" ">
<path fill="none" stroke="#9a32cd" stroke-dasharray="5,2" d="M1031.69,-72.32C1056.04,-78.82 1083.39,-88.48 1105.75,-102.51 1131.34,-118.57 1153.51,-147.03 1164.42,-162.51"/>
<polygon fill="#9a32cd" stroke="#9a32cd" points="1032.76,-68.98 1022.21,-69.92 1031.05,-75.77 1032.76,-68.98"/>
</a>
</g>
<text text-anchor="middle" x="1079.5" y="-105.76" font-family="Helvetica,sans-Serif" font-size="10.00" fill="grey"> context</text>
</g>
<!-- Node28&#45;&gt;Node28 -->
<g id="edge37_Node000028_Node000028" class="edge">
<title>Node28&#45;&gt;Node28</title>
<g id="a_edge37_Node000028_Node000028"><a xlink:title=" ">
<path fill="none" stroke="#9a32cd" stroke-dasharray="5,2" d="M949.07,-82.45C951.75,-86.12 958.06,-88.64 968,-88.64 986.71,-88.64 992.56,-79.7 985.54,-71.04"/>
<polygon fill="#9a32cd" stroke="#9a32cd" points="952.54,-82.89 950.27,-72.54 945.59,-82.04 952.54,-82.89"/>
</a>
</g>
<text text-anchor="middle" x="968" y="-91.89" font-family="Helvetica,sans-Serif" font-size="10.00" fill="grey"> current</text>
</g>
</g>
</svg>
