<?xml version="1.0" encoding="UTF-8" standalone="no"?>
<!DOCTYPE svg PUBLIC "-//W3C//DTD SVG 1.1//EN"
 "http://www.w3.org/Graphics/SVG/1.1/DTD/svg11.dtd">
<!-- Generated by graphviz version 12.2.1 (0)
 -->
<!-- Title: nix::ReplInteracter Pages: 1 -->
<svg width="314pt" height="86pt"
 viewBox="0.00 0.00 313.88 85.50" xmlns="http://www.w3.org/2000/svg" xmlns:xlink="http://www.w3.org/1999/xlink">
<g id="graph0" class="graph" transform="scale(1 1) rotate(0) translate(4 81.5)">
<title>nix::ReplInteracter</title>
<!-- Node1 -->
<g id="Node000001" class="node">
<title>Node1</title>
<g id="a_Node000001"><a xlink:title=" ">
<polygon fill="#999999" stroke="#666666" points="204.62,-77.5 98.62,-77.5 98.62,-56.75 204.62,-56.75 204.62,-77.5"/>
<text text-anchor="middle" x="151.62" y="-64" font-family="Helvetica,sans-Serif" font-size="10.00">nix::ReplInteracter</text>
</a>
</g>
</g>
<!-- Node2 -->
<g id="Node000002" class="node">
<title>Node2</title>
<g id="a_Node000002"><a xlink:href="classnix_1_1AutomationInteracter.html" target="_top" xlink:title=" ">
<polygon fill="white" stroke="#bfbfbf" points="141.25,-20.75 0,-20.75 0,0 141.25,0 141.25,-20.75"/>
<text text-anchor="middle" x="70.62" y="-7.25" font-family="Helvetica,sans-Serif" font-size="10.00">nix::AutomationInteracter</text>
</a>
</g>
</g>
<!-- Node1&#45;&gt;Node2 -->
<g id="edge1_Node000001_Node000002" class="edge">
<title>Node1&#45;&gt;Node2</title>
<g id="a_edge1_Node000001_Node000002"><a xlink:title=" ">
<path fill="none" stroke="#63b8ff" d="M127.71,-49.96C113.83,-40.58 96.81,-29.07 84.98,-21.08"/>
<polygon fill="#63b8ff" stroke="#63b8ff" points="125.64,-52.79 135.89,-55.49 129.56,-46.99 125.64,-52.79"/>
</a>
</g>
</g>
<!-- Node3 -->
<g id="Node000003" class="node">
<title>Node3</title>
<g id="a_Node000003"><a xlink:href="classnix_1_1ReadlineLikeInteracter.html" target="_top" xlink:title=" ">
<polygon fill="white" stroke="#bfbfbf" points="305.88,-20.75 159.38,-20.75 159.38,0 305.88,0 305.88,-20.75"/>
<text text-anchor="middle" x="232.62" y="-7.25" font-family="Helvetica,sans-Serif" font-size="10.00">nix::ReadlineLikeInteracter</text>
</a>
</g>
</g>
<!-- Node1&#45;&gt;Node3 -->
<g id="edge2_Node000001_Node000003" class="edge">
<title>Node1&#45;&gt;Node3</title>
<g id="a_edge2_Node000001_Node000003"><a xlink:title=" ">
<path fill="none" stroke="#63b8ff" d="M175.54,-49.96C189.42,-40.58 206.44,-29.07 218.27,-21.08"/>
<polygon fill="#63b8ff" stroke="#63b8ff" points="173.69,-46.99 167.36,-55.49 177.61,-52.79 173.69,-46.99"/>
</a>
</g>
</g>
</g>
</svg>
