<?xml version="1.0" encoding="UTF-8" standalone="no"?>
<!DOCTYPE svg PUBLIC "-//W3C//DTD SVG 1.1//EN"
 "http://www.w3.org/Graphics/SVG/1.1/DTD/svg11.dtd">
<!-- Generated by graphviz version 12.2.1 (0)
 -->
<!-- Title: nix::HttpBinaryCacheStore Pages: 1 -->
<svg width="154pt" height="269pt"
 viewBox="0.00 0.00 154.38 268.50" xmlns="http://www.w3.org/2000/svg" xmlns:xlink="http://www.w3.org/1999/xlink">
<g id="graph0" class="graph" transform="scale(1 1) rotate(0) translate(4 264.5)">
<title>nix::HttpBinaryCacheStore</title>
<!-- Node1 -->
<g id="Node000001" class="node">
<title>Node1</title>
<g id="a_Node000001"><a xlink:title=" ">
<polygon fill="#999999" stroke="#666666" points="145,-20.75 0,-20.75 0,0 145,0 145,-20.75"/>
<text text-anchor="middle" x="72.5" y="-7.25" font-family="Helvetica,sans-Serif" font-size="10.00">nix::HttpBinaryCacheStore</text>
</a>
</g>
</g>
<!-- Node2 -->
<g id="Node000002" class="node">
<title>Node2</title>
<g id="a_Node000002"><a xlink:href="classnix_1_1BinaryCacheStore.html" target="_top" xlink:title=" ">
<polygon fill="white" stroke="#666666" points="134.5,-77.5 10.5,-77.5 10.5,-56.75 134.5,-56.75 134.5,-77.5"/>
<text text-anchor="middle" x="72.5" y="-64" font-family="Helvetica,sans-Serif" font-size="10.00">nix::BinaryCacheStore</text>
</a>
</g>
</g>
<!-- Node2&#45;&gt;Node1 -->
<g id="edge1_Node000001_Node000002" class="edge">
<title>Node2&#45;&gt;Node1</title>
<g id="a_edge1_Node000001_Node000002"><a xlink:title=" ">
<path fill="none" stroke="#63b8ff" d="M72.5,-44.88C72.5,-36.66 72.5,-27.68 72.5,-21.08"/>
<polygon fill="#63b8ff" stroke="#63b8ff" points="69,-44.82 72.5,-54.82 76,-44.82 69,-44.82"/>
</a>
</g>
</g>
<!-- Node3 -->
<g id="Node000003" class="node">
<title>Node3</title>
<g id="a_Node000003"><a xlink:href="classnix_1_1Store.html" target="_top" xlink:title=" ">
<polygon fill="white" stroke="#bfbfbf" points="103.75,-191 41.25,-191 41.25,-170.25 103.75,-170.25 103.75,-191"/>
<text text-anchor="middle" x="72.5" y="-177.5" font-family="Helvetica,sans-Serif" font-size="10.00">nix::Store</text>
</a>
</g>
</g>
<!-- Node3&#45;&gt;Node2 -->
<g id="edge2_Node000002_Node000003" class="edge">
<title>Node3&#45;&gt;Node2</title>
<g id="a_edge2_Node000002_Node000003"><a xlink:title=" ">
<path fill="none" stroke="#63b8ff" d="M64.23,-159.25C61.51,-151.55 58.85,-142.63 57.5,-134.25 56.03,-125.15 56.03,-122.6 57.5,-113.5 59.53,-100.89 64.55,-87.03 68.22,-77.99"/>
<polygon fill="#63b8ff" stroke="#63b8ff" points="60.86,-160.24 67.68,-168.35 67.4,-157.76 60.86,-160.24"/>
</a>
</g>
</g>
<!-- Node5 -->
<g id="Node000005" class="node">
<title>Node5</title>
<g id="a_Node000005"><a xlink:href="structnix_1_1LogStore.html" target="_top" xlink:title=" ">
<polygon fill="white" stroke="#bfbfbf" points="146.38,-134.25 66.62,-134.25 66.62,-113.5 146.38,-113.5 146.38,-134.25"/>
<text text-anchor="middle" x="106.5" y="-120.75" font-family="Helvetica,sans-Serif" font-size="10.00">nix::LogStore</text>
</a>
</g>
</g>
<!-- Node3&#45;&gt;Node5 -->
<g id="edge5_Node000005_Node000003" class="edge">
<title>Node3&#45;&gt;Node5</title>
<g id="a_edge5_Node000005_Node000003"><a xlink:title=" ">
<path fill="none" stroke="#63b8ff" d="M84.62,-160.1C90,-151.45 96.09,-141.64 100.47,-134.58"/>
<polygon fill="#63b8ff" stroke="#63b8ff" points="81.68,-158.21 79.38,-168.55 87.63,-161.9 81.68,-158.21"/>
</a>
</g>
</g>
<!-- Node4 -->
<g id="Node000004" class="node">
<title>Node4</title>
<g id="a_Node000004"><a xlink:title=" ">
<polygon fill="white" stroke="#bfbfbf" points="130.38,-260.5 14.62,-260.5 14.62,-227 130.38,-227 130.38,-260.5"/>
<text text-anchor="start" x="22.62" y="-247" font-family="Helvetica,sans-Serif" font-size="10.00">std::enable_shared</text>
<text text-anchor="middle" x="72.5" y="-234.25" font-family="Helvetica,sans-Serif" font-size="10.00">_from_this&lt; Store &gt;</text>
</a>
</g>
</g>
<!-- Node4&#45;&gt;Node3 -->
<g id="edge3_Node000003_Node000004" class="edge">
<title>Node4&#45;&gt;Node3</title>
<g id="a_edge3_Node000003_Node000004"><a xlink:title=" ">
<path fill="none" stroke="#63b8ff" d="M72.5,-215.19C72.5,-206.71 72.5,-197.92 72.5,-191.47"/>
<polygon fill="#63b8ff" stroke="#63b8ff" points="69,-215.18 72.5,-225.18 76,-215.18 69,-215.18"/>
</a>
</g>
</g>
<!-- Node5&#45;&gt;Node2 -->
<g id="edge4_Node000002_Node000005" class="edge">
<title>Node5&#45;&gt;Node2</title>
<g id="a_edge4_Node000002_Node000005"><a xlink:title=" ">
<path fill="none" stroke="#63b8ff" d="M94.38,-103.35C89,-94.7 82.91,-84.89 78.53,-77.83"/>
<polygon fill="#63b8ff" stroke="#63b8ff" points="91.37,-105.15 99.62,-111.8 97.32,-101.46 91.37,-105.15"/>
</a>
</g>
</g>
</g>
</svg>
