<?xml version="1.0" encoding="UTF-8" standalone="no"?>
<!DOCTYPE svg PUBLIC "-//W3C//DTD SVG 1.1//EN"
 "http://www.w3.org/Graphics/SVG/1.1/DTD/svg11.dtd">
<!-- Generated by graphviz version 12.2.1 (0)
 -->
<!-- Title: nix::AsyncStringInputStream Pages: 1 -->
<svg width="163pt" height="142pt"
 viewBox="0.00 0.00 162.75 142.25" xmlns="http://www.w3.org/2000/svg" xmlns:xlink="http://www.w3.org/1999/xlink">
<g id="graph0" class="graph" transform="scale(1 1) rotate(0) translate(4 138.25)">
<title>nix::AsyncStringInputStream</title>
<!-- Node1 -->
<g id="Node000001" class="node">
<title>Node1</title>
<g id="a_Node000001"><a xlink:title=" ">
<polygon fill="#999999" stroke="#666666" points="154.75,-20.75 0,-20.75 0,0 154.75,0 154.75,-20.75"/>
<text text-anchor="middle" x="77.38" y="-7.25" font-family="Helvetica,sans-Serif" font-size="10.00">nix::AsyncStringInputStream</text>
</a>
</g>
</g>
<!-- Node2 -->
<g id="Node000002" class="node">
<title>Node2</title>
<g id="a_Node000002"><a xlink:href="classnix_1_1AsyncInputStream.html" target="_top" xlink:title=" ">
<polygon fill="white" stroke="#bfbfbf" points="140.5,-77.5 14.25,-77.5 14.25,-56.75 140.5,-56.75 140.5,-77.5"/>
<text text-anchor="middle" x="77.38" y="-64" font-family="Helvetica,sans-Serif" font-size="10.00">nix::AsyncInputStream</text>
</a>
</g>
</g>
<!-- Node2&#45;&gt;Node1 -->
<g id="edge1_Node000001_Node000002" class="edge">
<title>Node2&#45;&gt;Node1</title>
<g id="a_edge1_Node000001_Node000002"><a xlink:title=" ">
<path fill="none" stroke="#63b8ff" d="M77.38,-44.88C77.38,-36.66 77.38,-27.68 77.38,-21.08"/>
<polygon fill="#63b8ff" stroke="#63b8ff" points="73.88,-44.82 77.38,-54.82 80.88,-44.82 73.88,-44.82"/>
</a>
</g>
</g>
<!-- Node3 -->
<g id="Node000003" class="node">
<title>Node3</title>
<g id="a_Node000003"><a xlink:title=" ">
<polygon fill="white" stroke="#bfbfbf" points="123.25,-134.25 31.5,-134.25 31.5,-113.5 123.25,-113.5 123.25,-134.25"/>
<text text-anchor="middle" x="77.38" y="-120.75" font-family="Helvetica,sans-Serif" font-size="10.00">kj::AsyncObject</text>
</a>
</g>
</g>
<!-- Node3&#45;&gt;Node2 -->
<g id="edge2_Node000002_Node000003" class="edge">
<title>Node3&#45;&gt;Node2</title>
<g id="a_edge2_Node000002_Node000003"><a xlink:title=" ">
<path fill="none" stroke="#8b1a1a" d="M77.38,-101.63C77.38,-93.41 77.38,-84.43 77.38,-77.83"/>
<polygon fill="#8b1a1a" stroke="#8b1a1a" points="73.88,-101.57 77.38,-111.57 80.88,-101.57 73.88,-101.57"/>
</a>
</g>
</g>
</g>
</svg>
