<?xml version="1.0" encoding="UTF-8" standalone="no"?>
<!DOCTYPE svg PUBLIC "-//W3C//DTD SVG 1.1//EN"
 "http://www.w3.org/Graphics/SVG/1.1/DTD/svg11.dtd">
<!-- Generated by graphviz version 12.2.1 (0)
 -->
<!-- Title: nix::RegistryCommand Pages: 1 -->
<svg width="294pt" height="144pt"
 viewBox="0.00 0.00 293.88 144.25" xmlns="http://www.w3.org/2000/svg" xmlns:xlink="http://www.w3.org/1999/xlink">
<g id="graph0" class="graph" transform="scale(1 1) rotate(0) translate(4 140.25)">
<title>nix::RegistryCommand</title>
<!-- Node1 -->
<g id="Node000001" class="node">
<title>Node1</title>
<g id="a_Node000001"><a xlink:title=" ">
<polygon fill="#999999" stroke="#666666" points="127.75,-78.5 0,-78.5 0,-57.75 127.75,-57.75 127.75,-78.5"/>
<text text-anchor="middle" x="63.88" y="-65" font-family="Helvetica,sans-Serif" font-size="10.00">nix::RegistryCommand</text>
</a>
</g>
</g>
<!-- Node2 -->
<g id="Node000002" class="node">
<title>Node2</title>
<g id="a_Node000002"><a xlink:href="classnix_1_1Args.html" target="_top" xlink:title=" ">
<polygon fill="white" stroke="#bfbfbf" points="219.25,-136.25 160.5,-136.25 160.5,-115.5 219.25,-115.5 219.25,-136.25"/>
<text text-anchor="middle" x="189.88" y="-122.75" font-family="Helvetica,sans-Serif" font-size="10.00">nix::Args</text>
</a>
</g>
</g>
<!-- Node2&#45;&gt;Node1 -->
<g id="edge1_Node000001_Node000002" class="edge">
<title>Node2&#45;&gt;Node1</title>
<g id="a_edge1_Node000001_Node000002"><a xlink:title=" ">
<path fill="none" stroke="#63b8ff" d="M157.24,-110.43C134.8,-100.51 105.61,-87.59 85.89,-78.87"/>
<polygon fill="#63b8ff" stroke="#63b8ff" points="155.69,-113.58 166.25,-114.42 158.53,-107.18 155.69,-113.58"/>
</a>
</g>
</g>
<!-- Node4 -->
<g id="Node000004" class="node">
<title>Node4</title>
<g id="a_Node000004"><a xlink:href="structnix_1_1Command.html" target="_top" xlink:title=" ">
<polygon fill="white" stroke="#666666" points="233.5,-78.5 146.25,-78.5 146.25,-57.75 233.5,-57.75 233.5,-78.5"/>
<text text-anchor="middle" x="189.88" y="-65" font-family="Helvetica,sans-Serif" font-size="10.00">nix::Command</text>
</a>
</g>
</g>
<!-- Node2&#45;&gt;Node4 -->
<g id="edge4_Node000004_Node000002" class="edge">
<title>Node2&#45;&gt;Node4</title>
<g id="a_edge4_Node000004_Node000002"><a xlink:title=" ">
<path fill="none" stroke="#63b8ff" d="M189.88,-103.93C189.88,-95.27 189.88,-85.65 189.88,-78.72"/>
<polygon fill="#63b8ff" stroke="#63b8ff" points="186.38,-103.65 189.88,-113.65 193.38,-103.65 186.38,-103.65"/>
</a>
</g>
</g>
<!-- Node3 -->
<g id="Node000003" class="node">
<title>Node3</title>
<g id="a_Node000003"><a xlink:href="classnix_1_1MultiCommand.html" target="_top" xlink:title=" ">
<polygon fill="white" stroke="#666666" points="285.88,-20.75 173.88,-20.75 173.88,0 285.88,0 285.88,-20.75"/>
<text text-anchor="middle" x="229.88" y="-7.25" font-family="Helvetica,sans-Serif" font-size="10.00">nix::MultiCommand</text>
</a>
</g>
</g>
<!-- Node3&#45;&gt;Node2 -->
<g id="edge2_Node000002_Node000003" class="edge">
<title>Node3&#45;&gt;Node2</title>
<g id="a_edge2_Node000002_Node000003"><a xlink:title=" ">
<path fill="none" stroke="#9a32cd" stroke-dasharray="5,2" d="M239.8,-31.19C245.27,-44.96 249.7,-63.47 242.88,-78.5 235.65,-94.42 219.96,-107.03 207.52,-115.05"/>
<polygon fill="#9a32cd" stroke="#9a32cd" points="243.1,-29.98 235.81,-22.29 236.71,-32.85 243.1,-29.98"/>
</a>
</g>
<text text-anchor="middle" x="263.59" y="-65" font-family="Helvetica,sans-Serif" font-size="10.00" fill="grey"> parent</text>
</g>
<!-- Node4&#45;&gt;Node3 -->
<g id="edge3_Node000003_Node000004" class="edge">
<title>Node4&#45;&gt;Node3</title>
<g id="a_edge3_Node000003_Node000004"><a xlink:title=" ">
<path fill="none" stroke="#63b8ff" d="M203.42,-48.25C209.99,-39.08 217.62,-28.46 222.99,-20.97"/>
<polygon fill="#63b8ff" stroke="#63b8ff" points="200.71,-46.02 197.72,-56.18 206.4,-50.1 200.71,-46.02"/>
</a>
</g>
</g>
</g>
</svg>
