<?xml version="1.0" encoding="UTF-8" standalone="no"?>
<!DOCTYPE svg PUBLIC "-//W3C//DTD SVG 1.1//EN"
 "http://www.w3.org/Graphics/SVG/1.1/DTD/svg11.dtd">
<!-- Generated by graphviz version 12.2.1 (0)
 -->
<!-- Title: nix::LocalStore Pages: 1 -->
<svg width="796pt" height="146pt"
 viewBox="0.00 0.00 795.75 145.50" xmlns="http://www.w3.org/2000/svg" xmlns:xlink="http://www.w3.org/1999/xlink">
<g id="graph0" class="graph" transform="scale(1 1) rotate(0) translate(4 141.5)">
<title>nix::LocalStore</title>
<!-- Node1 -->
<g id="Node000001" class="node">
<title>Node1</title>
<g id="a_Node000001"><a xlink:title=" ">
<polygon fill="#999999" stroke="#666666" points="787.75,-41.12 699.75,-41.12 699.75,-20.38 787.75,-20.38 787.75,-41.12"/>
<text text-anchor="middle" x="743.75" y="-27.62" font-family="Helvetica,sans-Serif" font-size="10.00">nix::LocalStore</text>
</a>
</g>
</g>
<!-- Node2 -->
<g id="Node000002" class="node">
<title>Node2</title>
<g id="a_Node000002"><a xlink:href="structnix_1_1IndirectRootStore.html" target="_top" xlink:title=" ">
<polygon fill="white" stroke="#666666" points="662.75,-67.12 541,-67.12 541,-46.38 662.75,-46.38 662.75,-67.12"/>
<text text-anchor="middle" x="601.88" y="-53.62" font-family="Helvetica,sans-Serif" font-size="10.00">nix::IndirectRootStore</text>
</a>
</g>
</g>
<!-- Node2&#45;&gt;Node1 -->
<g id="edge1_Node000001_Node000002" class="edge">
<title>Node2&#45;&gt;Node1</title>
<g id="a_edge1_Node000001_Node000002"><a xlink:title=" ">
<path fill="none" stroke="#63b8ff" d="M672.27,-43.85C681.57,-42.12 690.88,-40.39 699.54,-38.78"/>
<polygon fill="#63b8ff" stroke="#63b8ff" points="671.66,-40.4 662.47,-45.67 672.94,-47.29 671.66,-40.4"/>
</a>
</g>
</g>
<!-- Node3 -->
<g id="Node000003" class="node">
<title>Node3</title>
<g id="a_Node000003"><a xlink:href="classnix_1_1LocalFSStore.html" target="_top" xlink:title=" ">
<polygon fill="white" stroke="#bfbfbf" points="504,-73.12 404.75,-73.12 404.75,-52.38 504,-52.38 504,-73.12"/>
<text text-anchor="middle" x="454.38" y="-59.62" font-family="Helvetica,sans-Serif" font-size="10.00">nix::LocalFSStore</text>
</a>
</g>
</g>
<!-- Node3&#45;&gt;Node2 -->
<g id="edge2_Node000002_Node000003" class="edge">
<title>Node3&#45;&gt;Node2</title>
<g id="a_edge2_Node000002_Node000003"><a xlink:title=" ">
<path fill="none" stroke="#63b8ff" d="M515.65,-60.26C523.87,-59.93 532.3,-59.58 540.52,-59.24"/>
<polygon fill="#63b8ff" stroke="#63b8ff" points="515.59,-56.76 505.74,-60.67 515.88,-63.76 515.59,-56.76"/>
</a>
</g>
</g>
<!-- Node4 -->
<g id="Node000004" class="node">
<title>Node4</title>
<g id="a_Node000004"><a xlink:href="classnix_1_1Store.html" target="_top" xlink:title=" ">
<polygon fill="white" stroke="#bfbfbf" points="251,-79.12 188.5,-79.12 188.5,-58.38 251,-58.38 251,-79.12"/>
<text text-anchor="middle" x="219.75" y="-65.62" font-family="Helvetica,sans-Serif" font-size="10.00">nix::Store</text>
</a>
</g>
</g>
<!-- Node4&#45;&gt;Node3 -->
<g id="edge3_Node000003_Node000004" class="edge">
<title>Node4&#45;&gt;Node3</title>
<g id="a_edge3_Node000003_Node000004"><a xlink:title=" ">
<path fill="none" stroke="#63b8ff" d="M262.57,-67.67C302.36,-66.64 362.23,-65.1 404.27,-64.02"/>
<polygon fill="#63b8ff" stroke="#63b8ff" points="262.58,-64.17 252.67,-67.93 262.76,-71.17 262.58,-64.17"/>
</a>
</g>
</g>
<!-- Node8 -->
<g id="Node000008" class="node">
<title>Node8</title>
<g id="a_Node000008"><a xlink:href="structnix_1_1GcStore.html" target="_top" xlink:title=" ">
<polygon fill="white" stroke="#666666" points="365.5,-41.12 290.25,-41.12 290.25,-20.38 365.5,-20.38 365.5,-41.12"/>
<text text-anchor="middle" x="327.88" y="-27.62" font-family="Helvetica,sans-Serif" font-size="10.00">nix::GcStore</text>
</a>
</g>
</g>
<!-- Node4&#45;&gt;Node8 -->
<g id="edge8_Node000008_Node000004" class="edge">
<title>Node4&#45;&gt;Node8</title>
<g id="a_edge8_Node000008_Node000004"><a xlink:title=" ">
<path fill="none" stroke="#63b8ff" d="M261.7,-54.09C273.34,-49.92 285.8,-45.46 296.67,-41.56"/>
<polygon fill="#63b8ff" stroke="#63b8ff" points="260.54,-50.79 252.3,-57.45 262.9,-57.38 260.54,-50.79"/>
</a>
</g>
</g>
<!-- Node9 -->
<g id="Node000009" class="node">
<title>Node9</title>
<g id="a_Node000009"><a xlink:href="structnix_1_1LogStore.html" target="_top" xlink:title=" ">
<polygon fill="white" stroke="#bfbfbf" points="367.75,-117.12 288,-117.12 288,-96.38 367.75,-96.38 367.75,-117.12"/>
<text text-anchor="middle" x="327.88" y="-103.62" font-family="Helvetica,sans-Serif" font-size="10.00">nix::LogStore</text>
</a>
</g>
</g>
<!-- Node4&#45;&gt;Node9 -->
<g id="edge10_Node000009_Node000004" class="edge">
<title>Node4&#45;&gt;Node9</title>
<g id="a_edge10_Node000009_Node000004"><a xlink:title=" ">
<path fill="none" stroke="#63b8ff" d="M261.7,-83.41C273.34,-87.58 285.8,-92.04 296.67,-95.94"/>
<polygon fill="#63b8ff" stroke="#63b8ff" points="262.9,-80.12 252.3,-80.05 260.54,-86.71 262.9,-80.12"/>
</a>
</g>
</g>
<!-- Node5 -->
<g id="Node000005" class="node">
<title>Node5</title>
<g id="a_Node000005"><a xlink:title=" ">
<polygon fill="white" stroke="#bfbfbf" points="120.25,-137.5 4.5,-137.5 4.5,-104 120.25,-104 120.25,-137.5"/>
<text text-anchor="start" x="12.5" y="-124" font-family="Helvetica,sans-Serif" font-size="10.00">std::enable_shared</text>
<text text-anchor="middle" x="62.38" y="-111.25" font-family="Helvetica,sans-Serif" font-size="10.00">_from_this&lt; Store &gt;</text>
</a>
</g>
</g>
<!-- Node5&#45;&gt;Node4 -->
<g id="edge4_Node000004_Node000005" class="edge">
<title>Node5&#45;&gt;Node4</title>
<g id="a_edge4_Node000004_Node000005"><a xlink:title=" ">
<path fill="none" stroke="#63b8ff" d="M127.52,-100.06C141.69,-95.41 156.62,-90.46 170.5,-85.75 176.3,-83.78 182.48,-81.64 188.42,-79.56"/>
<polygon fill="#63b8ff" stroke="#63b8ff" points="126.71,-96.64 118.29,-103.07 128.89,-103.29 126.71,-96.64"/>
</a>
</g>
</g>
<!-- Node6 -->
<g id="Node000006" class="node">
<title>Node6</title>
<g id="a_Node000006"><a xlink:href="classnix_1_1Sync.html" target="_top" xlink:title=" ">
<polygon fill="white" stroke="#666666" points="124.75,-85.5 0,-85.5 0,-52 124.75,-52 124.75,-85.5"/>
<text text-anchor="start" x="8" y="-72" font-family="Helvetica,sans-Serif" font-size="10.00">nix::Sync&lt; nix::Store</text>
<text text-anchor="middle" x="62.38" y="-59.25" font-family="Helvetica,sans-Serif" font-size="10.00">::State, AsyncMutex &gt;</text>
</a>
</g>
</g>
<!-- Node6&#45;&gt;Node4 -->
<g id="edge5_Node000004_Node000006" class="edge">
<title>Node6&#45;&gt;Node4</title>
<g id="a_edge5_Node000004_Node000006"><a xlink:title=" ">
<path fill="none" stroke="#9a32cd" stroke-dasharray="5,2" d="M136.52,-68.75C154.77,-68.75 173.36,-68.75 188.24,-68.75"/>
<polygon fill="#9a32cd" stroke="#9a32cd" points="136.74,-65.25 126.74,-68.75 136.74,-72.25 136.74,-65.25"/>
</a>
</g>
<text text-anchor="middle" x="156.62" y="-72" font-family="Helvetica,sans-Serif" font-size="10.00" fill="grey"> state</text>
</g>
<!-- Node7 -->
<g id="Node000007" class="node">
<title>Node7</title>
<g id="a_Node000007"><a xlink:href="structnix_1_1Store_1_1Stats.html" target="_top" xlink:title=" ">
<polygon fill="white" stroke="#bfbfbf" points="113.12,-33.5 11.62,-33.5 11.62,0 113.12,0 113.12,-33.5"/>
<text text-anchor="start" x="19.62" y="-20" font-family="Helvetica,sans-Serif" font-size="10.00">nix::Store::Stats&lt;</text>
<text text-anchor="middle" x="62.38" y="-7.25" font-family="Helvetica,sans-Serif" font-size="10.00"> std::atomic &gt;</text>
</a>
</g>
</g>
<!-- Node7&#45;&gt;Node4 -->
<g id="edge6_Node000004_Node000007" class="edge">
<title>Node7&#45;&gt;Node4</title>
<g id="a_edge6_Node000004_Node000007"><a xlink:title=" ">
<path fill="none" stroke="#9a32cd" stroke-dasharray="5,2" d="M124.35,-36.62C139.45,-41.6 155.57,-46.95 170.5,-52 176.21,-53.93 182.29,-56.02 188.15,-58.04"/>
<polygon fill="#9a32cd" stroke="#9a32cd" points="125.6,-33.35 115.01,-33.55 123.41,-40 125.6,-33.35"/>
</a>
</g>
<text text-anchor="middle" x="156.62" y="-55.25" font-family="Helvetica,sans-Serif" font-size="10.00" fill="grey"> stats</text>
</g>
<!-- Node8&#45;&gt;Node1 -->
<g id="edge11_Node000001_Node000008" class="edge">
<title>Node8&#45;&gt;Node1</title>
<g id="a_edge11_Node000001_Node000008"><a xlink:title=" ">
<path fill="none" stroke="#63b8ff" d="M377.37,-30.75C458.78,-30.75 621.64,-30.75 699.44,-30.75"/>
<polygon fill="#63b8ff" stroke="#63b8ff" points="377.48,-27.25 367.48,-30.75 377.48,-34.25 377.48,-27.25"/>
</a>
</g>
</g>
<!-- Node8&#45;&gt;Node3 -->
<g id="edge7_Node000003_Node000008" class="edge">
<title>Node8&#45;&gt;Node3</title>
<g id="a_edge7_Node000003_Node000008"><a xlink:title=" ">
<path fill="none" stroke="#63b8ff" d="M376.99,-43.12C388.36,-46.04 400.4,-49.14 411.48,-51.98"/>
<polygon fill="#63b8ff" stroke="#63b8ff" points="377.91,-39.74 367.36,-40.64 376.17,-46.52 377.91,-39.74"/>
</a>
</g>
</g>
<!-- Node9&#45;&gt;Node3 -->
<g id="edge9_Node000003_Node000009" class="edge">
<title>Node9&#45;&gt;Node3</title>
<g id="a_edge9_Node000003_Node000009"><a xlink:title=" ">
<path fill="none" stroke="#63b8ff" d="M369.72,-92.32C387.01,-86.21 406.81,-79.21 422.8,-73.55"/>
<polygon fill="#63b8ff" stroke="#63b8ff" points="369.02,-88.85 360.76,-95.48 371.35,-95.45 369.02,-88.85"/>
</a>
</g>
</g>
</g>
</svg>
