<?xml version="1.0" encoding="UTF-8" standalone="no"?>
<!DOCTYPE svg PUBLIC "-//W3C//DTD SVG 1.1//EN"
 "http://www.w3.org/Graphics/SVG/1.1/DTD/svg11.dtd">
<!-- Generated by graphviz version 12.2.1 (0)
 -->
<!-- Title: nix::CompareVersionsPrimOpTest Pages: 1 -->
<svg width="449pt" height="94pt"
 viewBox="0.00 0.00 449.00 93.50" xmlns="http://www.w3.org/2000/svg" xmlns:xlink="http://www.w3.org/1999/xlink">
<g id="graph0" class="graph" transform="scale(1 1) rotate(0) translate(4 89.5)">
<title>nix::CompareVersionsPrimOpTest</title>
<!-- Node1 -->
<g id="Node000001" class="node">
<title>Node1</title>
<g id="a_Node000001"><a xlink:title=" ">
<polygon fill="#999999" stroke="#666666" points="441,-65.88 296,-65.88 296,-32.38 441,-32.38 441,-65.88"/>
<text text-anchor="start" x="304" y="-52.38" font-family="Helvetica,sans-Serif" font-size="10.00">nix::CompareVersionsPrim</text>
<text text-anchor="middle" x="368.5" y="-39.62" font-family="Helvetica,sans-Serif" font-size="10.00">OpTest</text>
</a>
</g>
</g>
<!-- Node2 -->
<g id="Node000002" class="node">
<title>Node2</title>
<g id="a_Node000002"><a xlink:href="classnix_1_1PrimOpTest.html" target="_top" xlink:title=" ">
<polygon fill="white" stroke="#bfbfbf" points="230,-85.5 137.5,-85.5 137.5,-64.75 230,-64.75 230,-85.5"/>
<text text-anchor="middle" x="183.75" y="-72" font-family="Helvetica,sans-Serif" font-size="10.00">nix::PrimOpTest</text>
</a>
</g>
</g>
<!-- Node2&#45;&gt;Node1 -->
<g id="edge1_Node000001_Node000002" class="edge">
<title>Node2&#45;&gt;Node1</title>
<g id="a_edge1_Node000001_Node000002"><a xlink:title=" ">
<path fill="none" stroke="#63b8ff" d="M241.39,-67.07C258.6,-64.62 277.74,-61.9 295.8,-59.33"/>
<polygon fill="#63b8ff" stroke="#63b8ff" points="241.3,-63.54 231.89,-68.42 242.29,-70.47 241.3,-63.54"/>
</a>
</g>
</g>
<!-- Node3 -->
<g id="Node000003" class="node">
<title>Node3</title>
<g id="a_Node000003"><a xlink:title=" ">
<polygon fill="white" stroke="#bfbfbf" points="71.5,-85.5 0,-85.5 0,-64.75 71.5,-64.75 71.5,-85.5"/>
<text text-anchor="middle" x="35.75" y="-72" font-family="Helvetica,sans-Serif" font-size="10.00">LibExprTest</text>
</a>
</g>
</g>
<!-- Node3&#45;&gt;Node2 -->
<g id="edge2_Node000002_Node000003" class="edge">
<title>Node3&#45;&gt;Node2</title>
<g id="a_edge2_Node000002_Node000003"><a xlink:title=" ">
<path fill="none" stroke="#63b8ff" d="M83.21,-75.12C100.4,-75.12 119.88,-75.12 137.01,-75.12"/>
<polygon fill="#63b8ff" stroke="#63b8ff" points="83.23,-71.63 73.23,-75.13 83.23,-78.63 83.23,-71.63"/>
</a>
</g>
</g>
<!-- Node4 -->
<g id="Node000004" class="node">
<title>Node4</title>
<g id="a_Node000004"><a xlink:title=" ">
<polygon fill="white" stroke="#bfbfbf" points="260,-46.25 107.5,-46.25 107.5,0 260,0 260,-46.25"/>
<text text-anchor="start" x="115.5" y="-32.75" font-family="Helvetica,sans-Serif" font-size="10.00">testing::WithParamInterface</text>
<text text-anchor="start" x="115.5" y="-20" font-family="Helvetica,sans-Serif" font-size="10.00">&lt; std::tuple&lt; std::string,</text>
<text text-anchor="middle" x="183.75" y="-7.25" font-family="Helvetica,sans-Serif" font-size="10.00"> const int &gt; &gt;</text>
</a>
</g>
</g>
<!-- Node4&#45;&gt;Node1 -->
<g id="edge3_Node000001_Node000004" class="edge">
<title>Node4&#45;&gt;Node1</title>
<g id="a_edge3_Node000001_Node000004"><a xlink:title=" ">
<path fill="none" stroke="#63b8ff" d="M271.71,-35.5C279.75,-36.64 287.84,-37.79 295.72,-38.91"/>
<polygon fill="#63b8ff" stroke="#63b8ff" points="272.29,-32.04 261.9,-34.1 271.31,-38.97 272.29,-32.04"/>
</a>
</g>
</g>
</g>
</svg>
