<?xml version="1.0" encoding="UTF-8" standalone="no"?>
<!DOCTYPE svg PUBLIC "-//W3C//DTD SVG 1.1//EN"
 "http://www.w3.org/Graphics/SVG/1.1/DTD/svg11.dtd">
<!-- Generated by graphviz version 12.2.1 (0)
 -->
<!-- Title: nix::ParseDrvNamePrimOpTest Pages: 1 -->
<svg width="469pt" height="106pt"
 viewBox="0.00 0.00 469.25 105.88" xmlns="http://www.w3.org/2000/svg" xmlns:xlink="http://www.w3.org/1999/xlink">
<g id="graph0" class="graph" transform="scale(1 1) rotate(0) translate(4 101.88)">
<title>nix::ParseDrvNamePrimOpTest</title>
<!-- Node1 -->
<g id="Node000001" class="node">
<title>Node1</title>
<g id="a_Node000001"><a xlink:title=" ">
<polygon fill="#999999" stroke="#666666" points="461.25,-68.88 296,-68.88 296,-48.12 461.25,-48.12 461.25,-68.88"/>
<text text-anchor="middle" x="378.62" y="-55.38" font-family="Helvetica,sans-Serif" font-size="10.00">nix::ParseDrvNamePrimOpTest</text>
</a>
</g>
</g>
<!-- Node2 -->
<g id="Node000002" class="node">
<title>Node2</title>
<g id="a_Node000002"><a xlink:href="classnix_1_1PrimOpTest.html" target="_top" xlink:title=" ">
<polygon fill="white" stroke="#bfbfbf" points="230,-97.88 137.5,-97.88 137.5,-77.12 230,-77.12 230,-97.88"/>
<text text-anchor="middle" x="183.75" y="-84.38" font-family="Helvetica,sans-Serif" font-size="10.00">nix::PrimOpTest</text>
</a>
</g>
</g>
<!-- Node2&#45;&gt;Node1 -->
<g id="edge1_Node000001_Node000002" class="edge">
<title>Node2&#45;&gt;Node1</title>
<g id="a_edge1_Node000001_Node000002"><a xlink:title=" ">
<path fill="none" stroke="#63b8ff" d="M241.58,-78.96C261.6,-75.95 284.37,-72.52 305.48,-69.35"/>
<polygon fill="#63b8ff" stroke="#63b8ff" points="241.32,-75.45 231.96,-80.4 242.36,-82.38 241.32,-75.45"/>
</a>
</g>
</g>
<!-- Node3 -->
<g id="Node000003" class="node">
<title>Node3</title>
<g id="a_Node000003"><a xlink:title=" ">
<polygon fill="white" stroke="#bfbfbf" points="71.5,-97.88 0,-97.88 0,-77.12 71.5,-77.12 71.5,-97.88"/>
<text text-anchor="middle" x="35.75" y="-84.38" font-family="Helvetica,sans-Serif" font-size="10.00">LibExprTest</text>
</a>
</g>
</g>
<!-- Node3&#45;&gt;Node2 -->
<g id="edge2_Node000002_Node000003" class="edge">
<title>Node3&#45;&gt;Node2</title>
<g id="a_edge2_Node000002_Node000003"><a xlink:title=" ">
<path fill="none" stroke="#63b8ff" d="M83.21,-87.5C100.4,-87.5 119.88,-87.5 137.01,-87.5"/>
<polygon fill="#63b8ff" stroke="#63b8ff" points="83.23,-84 73.23,-87.5 83.23,-91 83.23,-84"/>
</a>
</g>
</g>
<!-- Node4 -->
<g id="Node000004" class="node">
<title>Node4</title>
<g id="a_Node000004"><a xlink:title=" ">
<polygon fill="white" stroke="#bfbfbf" points="260,-59 107.5,-59 107.5,0 260,0 260,-59"/>
<text text-anchor="start" x="115.5" y="-45.5" font-family="Helvetica,sans-Serif" font-size="10.00">testing::WithParamInterface</text>
<text text-anchor="start" x="115.5" y="-32.75" font-family="Helvetica,sans-Serif" font-size="10.00">&lt; std::tuple&lt; std::string,</text>
<text text-anchor="start" x="115.5" y="-20" font-family="Helvetica,sans-Serif" font-size="10.00"> std::string_view, std::string</text>
<text text-anchor="middle" x="183.75" y="-7.25" font-family="Helvetica,sans-Serif" font-size="10.00">_view &gt; &gt;</text>
</a>
</g>
</g>
<!-- Node4&#45;&gt;Node1 -->
<g id="edge3_Node000001_Node000004" class="edge">
<title>Node4&#45;&gt;Node1</title>
<g id="a_edge3_Node000001_Node000004"><a xlink:title=" ">
<path fill="none" stroke="#63b8ff" d="M271.61,-42.56C282.88,-44.25 294.32,-45.98 305.32,-47.63"/>
<polygon fill="#63b8ff" stroke="#63b8ff" points="272.33,-39.13 261.92,-41.1 271.29,-46.05 272.33,-39.13"/>
</a>
</g>
</g>
</g>
</svg>
