<?xml version="1.0" encoding="UTF-8" standalone="no"?>
<!DOCTYPE svg PUBLIC "-//W3C//DTD SVG 1.1//EN"
 "http://www.w3.org/Graphics/SVG/1.1/DTD/svg11.dtd">
<!-- Generated by graphviz version 12.2.1 (0)
 -->
<!-- Title: nix::BinaryCacheStore Pages: 1 -->
<svg width="537pt" height="146pt"
 viewBox="0.00 0.00 536.75 145.50" xmlns="http://www.w3.org/2000/svg" xmlns:xlink="http://www.w3.org/1999/xlink">
<g id="graph0" class="graph" transform="scale(1 1) rotate(0) translate(4 141.5)">
<title>nix::BinaryCacheStore</title>
<!-- Node1 -->
<g id="Node000001" class="node">
<title>Node1</title>
<g id="a_Node000001"><a xlink:title=" ">
<polygon fill="#999999" stroke="#666666" points="528.75,-79.12 404.75,-79.12 404.75,-58.38 528.75,-58.38 528.75,-79.12"/>
<text text-anchor="middle" x="466.75" y="-65.62" font-family="Helvetica,sans-Serif" font-size="10.00">nix::BinaryCacheStore</text>
</a>
</g>
</g>
<!-- Node2 -->
<g id="Node000002" class="node">
<title>Node2</title>
<g id="a_Node000002"><a xlink:href="classnix_1_1Store.html" target="_top" xlink:title=" ">
<polygon fill="white" stroke="#bfbfbf" points="251,-79.12 188.5,-79.12 188.5,-58.38 251,-58.38 251,-79.12"/>
<text text-anchor="middle" x="219.75" y="-65.62" font-family="Helvetica,sans-Serif" font-size="10.00">nix::Store</text>
</a>
</g>
</g>
<!-- Node2&#45;&gt;Node1 -->
<g id="edge1_Node000001_Node000002" class="edge">
<title>Node2&#45;&gt;Node1</title>
<g id="a_edge1_Node000001_Node000002"><a xlink:title=" ">
<path fill="none" stroke="#63b8ff" d="M262.81,-73.64C265.24,-73.73 267.65,-73.77 270,-73.75 321.89,-73.31 334.87,-73.18 386.75,-71.75 392.51,-71.59 398.51,-71.4 404.51,-71.2"/>
<polygon fill="#63b8ff" stroke="#63b8ff" points="263.15,-70.15 252.95,-73.01 262.71,-77.14 263.15,-70.15"/>
</a>
</g>
</g>
<!-- Node6 -->
<g id="Node000006" class="node">
<title>Node6</title>
<g id="a_Node000006"><a xlink:href="structnix_1_1LogStore.html" target="_top" xlink:title=" ">
<polygon fill="white" stroke="#bfbfbf" points="367.75,-60.12 288,-60.12 288,-39.38 367.75,-39.38 367.75,-60.12"/>
<text text-anchor="middle" x="327.88" y="-46.62" font-family="Helvetica,sans-Serif" font-size="10.00">nix::LogStore</text>
</a>
</g>
</g>
<!-- Node2&#45;&gt;Node6 -->
<g id="edge6_Node000006_Node000002" class="edge">
<title>Node2&#45;&gt;Node6</title>
<g id="a_edge6_Node000006_Node000002"><a xlink:title=" ">
<path fill="none" stroke="#63b8ff" d="M262.69,-61.24C270.88,-59.78 279.44,-58.24 287.54,-56.79"/>
<polygon fill="#63b8ff" stroke="#63b8ff" points="262.16,-57.78 252.94,-62.99 263.4,-64.67 262.16,-57.78"/>
</a>
</g>
</g>
<!-- Node3 -->
<g id="Node000003" class="node">
<title>Node3</title>
<g id="a_Node000003"><a xlink:title=" ">
<polygon fill="white" stroke="#bfbfbf" points="120.25,-137.5 4.5,-137.5 4.5,-104 120.25,-104 120.25,-137.5"/>
<text text-anchor="start" x="12.5" y="-124" font-family="Helvetica,sans-Serif" font-size="10.00">std::enable_shared</text>
<text text-anchor="middle" x="62.38" y="-111.25" font-family="Helvetica,sans-Serif" font-size="10.00">_from_this&lt; Store &gt;</text>
</a>
</g>
</g>
<!-- Node3&#45;&gt;Node2 -->
<g id="edge2_Node000002_Node000003" class="edge">
<title>Node3&#45;&gt;Node2</title>
<g id="a_edge2_Node000002_Node000003"><a xlink:title=" ">
<path fill="none" stroke="#63b8ff" d="M127.52,-100.06C141.69,-95.41 156.62,-90.46 170.5,-85.75 176.3,-83.78 182.48,-81.64 188.42,-79.56"/>
<polygon fill="#63b8ff" stroke="#63b8ff" points="126.71,-96.64 118.29,-103.07 128.89,-103.29 126.71,-96.64"/>
</a>
</g>
</g>
<!-- Node4 -->
<g id="Node000004" class="node">
<title>Node4</title>
<g id="a_Node000004"><a xlink:href="classnix_1_1Sync.html" target="_top" xlink:title=" ">
<polygon fill="white" stroke="#666666" points="124.75,-85.5 0,-85.5 0,-52 124.75,-52 124.75,-85.5"/>
<text text-anchor="start" x="8" y="-72" font-family="Helvetica,sans-Serif" font-size="10.00">nix::Sync&lt; nix::Store</text>
<text text-anchor="middle" x="62.38" y="-59.25" font-family="Helvetica,sans-Serif" font-size="10.00">::State, AsyncMutex &gt;</text>
</a>
</g>
</g>
<!-- Node4&#45;&gt;Node2 -->
<g id="edge3_Node000002_Node000004" class="edge">
<title>Node4&#45;&gt;Node2</title>
<g id="a_edge3_Node000002_Node000004"><a xlink:title=" ">
<path fill="none" stroke="#9a32cd" stroke-dasharray="5,2" d="M136.52,-68.75C154.77,-68.75 173.36,-68.75 188.24,-68.75"/>
<polygon fill="#9a32cd" stroke="#9a32cd" points="136.74,-65.25 126.74,-68.75 136.74,-72.25 136.74,-65.25"/>
</a>
</g>
<text text-anchor="middle" x="156.62" y="-72" font-family="Helvetica,sans-Serif" font-size="10.00" fill="grey"> state</text>
</g>
<!-- Node5 -->
<g id="Node000005" class="node">
<title>Node5</title>
<g id="a_Node000005"><a xlink:href="structnix_1_1Store_1_1Stats.html" target="_top" xlink:title=" ">
<polygon fill="white" stroke="#bfbfbf" points="113.12,-33.5 11.62,-33.5 11.62,0 113.12,0 113.12,-33.5"/>
<text text-anchor="start" x="19.62" y="-20" font-family="Helvetica,sans-Serif" font-size="10.00">nix::Store::Stats&lt;</text>
<text text-anchor="middle" x="62.38" y="-7.25" font-family="Helvetica,sans-Serif" font-size="10.00"> std::atomic &gt;</text>
</a>
</g>
</g>
<!-- Node5&#45;&gt;Node2 -->
<g id="edge4_Node000002_Node000005" class="edge">
<title>Node5&#45;&gt;Node2</title>
<g id="a_edge4_Node000002_Node000005"><a xlink:title=" ">
<path fill="none" stroke="#9a32cd" stroke-dasharray="5,2" d="M124.35,-36.62C139.45,-41.6 155.57,-46.95 170.5,-52 176.21,-53.93 182.29,-56.02 188.15,-58.04"/>
<polygon fill="#9a32cd" stroke="#9a32cd" points="125.6,-33.35 115.01,-33.55 123.41,-40 125.6,-33.35"/>
</a>
</g>
<text text-anchor="middle" x="156.62" y="-55.25" font-family="Helvetica,sans-Serif" font-size="10.00" fill="grey"> stats</text>
</g>
<!-- Node6&#45;&gt;Node1 -->
<g id="edge5_Node000001_Node000006" class="edge">
<title>Node6&#45;&gt;Node1</title>
<g id="a_edge5_Node000001_Node000006"><a xlink:title=" ">
<path fill="none" stroke="#63b8ff" d="M379.3,-56.75C387.44,-57.88 395.94,-59.06 404.3,-60.22"/>
<polygon fill="#63b8ff" stroke="#63b8ff" points="379.98,-53.31 369.6,-55.4 379.02,-60.24 379.98,-53.31"/>
</a>
</g>
</g>
</g>
</svg>
