<?xml version="1.0" encoding="UTF-8" standalone="no"?>
<!DOCTYPE svg PUBLIC "-//W3C//DTD SVG 1.1//EN"
 "http://www.w3.org/Graphics/SVG/1.1/DTD/svg11.dtd">
<!-- Generated by graphviz version 12.2.1 (0)
 -->
<!-- Title: nix::ProtoTest&lt; Proto, protocolDir &gt; Pages: 1 -->
<svg width="173pt" height="111pt"
 viewBox="0.00 0.00 173.27 111.00" xmlns="http://www.w3.org/2000/svg" xmlns:xlink="http://www.w3.org/1999/xlink">
<g id="graph0" class="graph" transform="scale(1 1) rotate(0) translate(4 107)">
<title>nix::ProtoTest&lt; Proto, protocolDir &gt;</title>
<!-- Node1 -->
<g id="Node000001" class="node">
<title>Node1</title>
<g id="a_Node000001"><a xlink:title=" ">
<polygon fill="#999999" stroke="#666666" points="137.5,-33.5 15.75,-33.5 15.75,0 137.5,0 137.5,-33.5"/>
<text text-anchor="start" x="23.75" y="-20" font-family="Helvetica,sans-Serif" font-size="10.00">nix::ProtoTest&lt; Proto,</text>
<text text-anchor="middle" x="76.62" y="-7.25" font-family="Helvetica,sans-Serif" font-size="10.00"> protocolDir &gt;</text>
</a>
</g>
</g>
<!-- Node2 -->
<g id="Node000002" class="node">
<title>Node2</title>
<g id="a_Node000002"><a xlink:title=" ">
<polygon fill="white" stroke="#bfbfbf" points="75.25,-103 0,-103 0,-82.25 75.25,-82.25 75.25,-103"/>
<text text-anchor="middle" x="37.62" y="-89.5" font-family="Helvetica,sans-Serif" font-size="10.00">LibStoreTest</text>
</a>
</g>
</g>
<!-- Node2&#45;&gt;Node1 -->
<g id="edge1_Node000001_Node000002" class="edge">
<title>Node2&#45;&gt;Node1</title>
<g id="a_edge1_Node000001_Node000002"><a xlink:title=" ">
<path fill="none" stroke="#63b8ff" d="M47.93,-72.11C54.22,-60.19 62.16,-45.15 68.1,-33.91"/>
<polygon fill="#63b8ff" stroke="#63b8ff" points="45,-70.15 43.43,-80.63 51.19,-73.42 45,-70.15"/>
</a>
</g>
</g>
<!-- Node3 -->
<g id="Node000003" class="node">
<title>Node3</title>
<g id="a_Node000003"><a xlink:title=" ">
<polygon fill="white" stroke="#bfbfbf" points="137.5,-103 93.75,-103 93.75,-82.25 137.5,-82.25 137.5,-103"/>
<text text-anchor="middle" x="115.62" y="-89.5" font-family="Helvetica,sans-Serif" font-size="10.00">string</text>
</a>
</g>
</g>
<!-- Node3&#45;&gt;Node1 -->
<g id="edge2_Node000001_Node000003" class="edge">
<title>Node3&#45;&gt;Node1</title>
<g id="a_edge2_Node000001_Node000003"><a xlink:title=" ">
<path fill="none" stroke="#9a32cd" stroke-dasharray="5,2" d="M105.32,-72.11C99.03,-60.19 91.09,-45.15 85.15,-33.91"/>
<polygon fill="#9a32cd" stroke="#9a32cd" points="102.06,-73.42 109.82,-80.63 108.25,-70.15 102.06,-73.42"/>
</a>
</g>
<text text-anchor="middle" x="133.02" y="-54.75" font-family="Helvetica,sans-Serif" font-size="10.00" fill="grey"> unitTestData</text>
</g>
</g>
</svg>
