<?xml version="1.0" encoding="UTF-8" standalone="no"?>
<!DOCTYPE svg PUBLIC "-//W3C//DTD SVG 1.1//EN"
 "http://www.w3.org/Graphics/SVG/1.1/DTD/svg11.dtd">
<!-- Generated by graphviz version 12.2.1 (0)
 -->
<!-- Title: nix::EvalBuiltins Pages: 1 -->
<svg width="625pt" height="343pt"
 viewBox="0.00 0.00 625.00 342.75" xmlns="http://www.w3.org/2000/svg" xmlns:xlink="http://www.w3.org/1999/xlink">
<g id="graph0" class="graph" transform="scale(1 1) rotate(0) translate(4 338.75)">
<title>nix::EvalBuiltins</title>
<!-- Node1 -->
<g id="Node000001" class="node">
<title>Node1</title>
<g id="a_Node000001"><a xlink:title=" ">
<polygon fill="#999999" stroke="#666666" points="617,-334.75 522.25,-334.75 522.25,-314 617,-314 617,-334.75"/>
<text text-anchor="middle" x="569.62" y="-321.25" font-family="Helvetica,sans-Serif" font-size="10.00">nix::EvalBuiltins</text>
</a>
</g>
</g>
<!-- Node2 -->
<g id="Node000002" class="node">
<title>Node2</title>
<g id="a_Node000002"><a xlink:href="structnix_1_1Env.html" target="_top" xlink:title=" ">
<polygon fill="white" stroke="#bfbfbf" points="406,-298.75 351,-298.75 351,-278 406,-278 406,-298.75"/>
<text text-anchor="middle" x="378.5" y="-285.25" font-family="Helvetica,sans-Serif" font-size="10.00">nix::Env</text>
</a>
</g>
</g>
<!-- Node2&#45;&gt;Node1 -->
<g id="edge1_Node000001_Node000002" class="edge">
<title>Node2&#45;&gt;Node1</title>
<g id="a_edge1_Node000001_Node000002"><a xlink:title=" ">
<path fill="none" stroke="#9a32cd" stroke-dasharray="5,2" d="M417.5,-295.61C447.62,-301.34 489.85,-309.38 522.01,-315.5"/>
<polygon fill="#9a32cd" stroke="#9a32cd" points="418.16,-292.17 407.68,-293.74 416.85,-299.05 418.16,-292.17"/>
</a>
</g>
<text text-anchor="middle" x="482.5" y="-314.95" font-family="Helvetica,sans-Serif" font-size="10.00" fill="grey"> env</text>
</g>
<!-- Node2&#45;&gt;Node2 -->
<g id="edge2_Node000002_Node000002" class="edge">
<title>Node2&#45;&gt;Node2</title>
<g id="a_edge2_Node000002_Node000002"><a xlink:title=" ">
<path fill="none" stroke="#9a32cd" stroke-dasharray="5,2" d="M360.42,-310.56C362.98,-314.23 369,-316.75 378.5,-316.75 396.38,-316.75 401.96,-307.81 395.26,-299.15"/>
<polygon fill="#9a32cd" stroke="#9a32cd" points="363.89,-310.99 361.57,-300.65 356.94,-310.18 363.89,-310.99"/>
</a>
</g>
<text text-anchor="middle" x="378.5" y="-320" font-family="Helvetica,sans-Serif" font-size="10.00" fill="grey"> up</text>
</g>
<!-- Node3 -->
<g id="Node000003" class="node">
<title>Node3</title>
<g id="a_Node000003"><a xlink:href="structnix_1_1Value.html" target="_top" xlink:title=" ">
<polygon fill="white" stroke="#bfbfbf" points="601.62,-169.75 537.62,-169.75 537.62,-149 601.62,-149 601.62,-169.75"/>
<text text-anchor="middle" x="569.62" y="-156.25" font-family="Helvetica,sans-Serif" font-size="10.00">nix::Value</text>
</a>
</g>
</g>
<!-- Node2&#45;&gt;Node3 -->
<g id="edge10_Node000003_Node000002" class="edge">
<title>Node2&#45;&gt;Node3</title>
<g id="a_edge10_Node000003_Node000002"><a xlink:title=" ">
<path fill="none" stroke="#9a32cd" stroke-dasharray="5,2" d="M417.96,-289.64C444.35,-288.69 479.02,-283.71 504.25,-266.38 539.45,-242.19 558.6,-191.87 565.55,-169.95"/>
<polygon fill="#9a32cd" stroke="#9a32cd" points="417.94,-286.14 408,-289.79 418.05,-293.14 417.94,-286.14"/>
</a>
</g>
<text text-anchor="middle" x="482.5" y="-286.93" font-family="Helvetica,sans-Serif" font-size="10.00" fill="grey"> env</text>
</g>
<!-- Node3&#45;&gt;Node2 -->
<g id="edge3_Node000002_Node000003" class="edge">
<title>Node3&#45;&gt;Node2</title>
<g id="a_edge3_Node000002_Node000003"><a xlink:title=" ">
<path fill="none" stroke="#9a32cd" stroke-dasharray="5,2" d="M553.16,-178.45C540.91,-192.79 522.81,-212.3 504.25,-226.38 479.54,-245.12 470.53,-245.57 442.75,-259.38 430.09,-265.66 415.79,-272.26 404,-277.57"/>
<polygon fill="#9a32cd" stroke="#9a32cd" points="555.62,-180.97 559.35,-171.05 550.25,-176.48 555.62,-180.97"/>
</a>
</g>
<text text-anchor="middle" x="482.5" y="-254.01" font-family="Helvetica,sans-Serif" font-size="10.00" fill="grey"> values</text>
</g>
<!-- Node3&#45;&gt;Node3 -->
<g id="edge4_Node000003_Node000003" class="edge">
<title>Node3&#45;&gt;Node3</title>
<g id="a_edge4_Node000003_Node000003"><a xlink:title=" ">
<path fill="none" stroke="#9a32cd" stroke-dasharray="5,2" d="M554.48,-181.56C556.62,-185.23 561.67,-187.75 569.62,-187.75 584.6,-187.75 589.28,-178.81 583.66,-170.15"/>
<polygon fill="#9a32cd" stroke="#9a32cd" points="557.95,-181.95 555.44,-171.65 550.99,-181.27 557.95,-181.95"/>
</a>
</g>
<text text-anchor="middle" x="569.62" y="-242" font-family="Helvetica,sans-Serif" font-size="10.00" fill="grey"> EMPTY_LIST</text>
<text text-anchor="middle" x="569.62" y="-229.25" font-family="Helvetica,sans-Serif" font-size="10.00" fill="grey">elems</text>
<text text-anchor="middle" x="569.62" y="-216.5" font-family="Helvetica,sans-Serif" font-size="10.00" fill="grey">left</text>
<text text-anchor="middle" x="569.62" y="-203.75" font-family="Helvetica,sans-Serif" font-size="10.00" fill="grey">right</text>
<text text-anchor="middle" x="569.62" y="-191" font-family="Helvetica,sans-Serif" font-size="10.00" fill="grey">smallList</text>
</g>
<!-- Node4 -->
<g id="Node000004" class="node">
<title>Node4</title>
<g id="a_Node000004"><a xlink:href="structnix_1_1checked_1_1Checked.html" target="_top" xlink:title=" ">
<polygon fill="white" stroke="#666666" points="440.5,-250.12 316.5,-250.12 316.5,-216.62 440.5,-216.62 440.5,-250.12"/>
<text text-anchor="start" x="324.5" y="-236.62" font-family="Helvetica,sans-Serif" font-size="10.00">nix::checked::Checked</text>
<text text-anchor="middle" x="378.5" y="-223.88" font-family="Helvetica,sans-Serif" font-size="10.00">&lt; int64_t &gt;</text>
</a>
</g>
</g>
<!-- Node4&#45;&gt;Node3 -->
<g id="edge5_Node000003_Node000004" class="edge">
<title>Node4&#45;&gt;Node3</title>
<g id="a_edge5_Node000003_Node000004"><a xlink:title=" ">
<path fill="none" stroke="#9a32cd" stroke-dasharray="5,2" d="M451.67,-213.44C469.12,-207.9 487.55,-201.44 504.25,-194.38 520.65,-187.43 538.37,-177.61 551.05,-170.14"/>
<polygon fill="#9a32cd" stroke="#9a32cd" points="450.91,-210.01 442.4,-216.32 452.99,-216.69 450.91,-210.01"/>
</a>
</g>
<text text-anchor="middle" x="482.5" y="-212.7" font-family="Helvetica,sans-Serif" font-size="10.00" fill="grey"> integer</text>
</g>
<!-- Node5 -->
<g id="Node000005" class="node">
<title>Node5</title>
<g id="a_Node000005"><a xlink:title=" ">
<polygon fill="white" stroke="#bfbfbf" points="176.78,-244.75 147.97,-244.75 147.97,-224 176.78,-224 176.78,-244.75"/>
<text text-anchor="middle" x="162.38" y="-231.25" font-family="Helvetica,sans-Serif" font-size="10.00">T</text>
</a>
</g>
</g>
<!-- Node5&#45;&gt;Node4 -->
<g id="edge6_Node000004_Node000005" class="edge">
<title>Node5&#45;&gt;Node4</title>
<g id="a_edge6_Node000004_Node000005"><a xlink:title=" ">
<path fill="none" stroke="#9a32cd" stroke-dasharray="5,2" d="M188.58,-234.26C219.73,-234.11 273.81,-233.86 316.15,-233.66"/>
<polygon fill="#9a32cd" stroke="#9a32cd" points="188.59,-230.76 178.61,-234.3 188.63,-237.76 188.59,-230.76"/>
</a>
</g>
<text text-anchor="middle" x="256.75" y="-237.36" font-family="Helvetica,sans-Serif" font-size="10.00" fill="grey"> value</text>
</g>
<!-- Node6 -->
<g id="Node000006" class="node">
<title>Node6</title>
<g id="a_Node000006"><a xlink:href="classnix_1_1Bindings.html" target="_top" xlink:title=" ">
<polygon fill="white" stroke="#666666" points="296.25,-180.75 217.25,-180.75 217.25,-160 296.25,-160 296.25,-180.75"/>
<text text-anchor="middle" x="256.75" y="-167.25" font-family="Helvetica,sans-Serif" font-size="10.00">nix::Bindings</text>
</a>
</g>
</g>
<!-- Node6&#45;&gt;Node3 -->
<g id="edge7_Node000003_Node000006" class="edge">
<title>Node6&#45;&gt;Node3</title>
<g id="a_edge7_Node000003_Node000006"><a xlink:title=" ">
<path fill="none" stroke="#9a32cd" stroke-dasharray="5,2" d="M307.63,-168.61C372.37,-166.32 483.42,-162.39 537.38,-160.48"/>
<polygon fill="#9a32cd" stroke="#9a32cd" points="307.88,-165.1 298.01,-168.95 308.12,-172.09 307.88,-165.1"/>
</a>
</g>
<text text-anchor="middle" x="378.5" y="-171.44" font-family="Helvetica,sans-Serif" font-size="10.00" fill="grey"> attrs</text>
</g>
<!-- Node6&#45;&gt;Node6 -->
<g id="edge9_Node000006_Node000006" class="edge">
<title>Node6&#45;&gt;Node6</title>
<g id="a_edge9_Node000006_Node000006"><a xlink:title=" ">
<path fill="none" stroke="#9a32cd" stroke-dasharray="5,2" d="M240.34,-192.56C242.66,-196.23 248.13,-198.75 256.75,-198.75 272.97,-198.75 278.04,-189.81 271.96,-181.15"/>
<polygon fill="#9a32cd" stroke="#9a32cd" points="243.82,-192.96 241.38,-182.65 236.86,-192.23 243.82,-192.96"/>
</a>
</g>
<text text-anchor="middle" x="256.75" y="-202" font-family="Helvetica,sans-Serif" font-size="10.00" fill="grey"> EMPTY</text>
</g>
<!-- Node7 -->
<g id="Node000007" class="node">
<title>Node7</title>
<g id="a_Node000007"><a xlink:href="classnix_1_1PosIdx.html" target="_top" xlink:title=" ">
<polygon fill="white" stroke="#bfbfbf" points="69.25,-161.75 0,-161.75 0,-141 69.25,-141 69.25,-161.75"/>
<text text-anchor="middle" x="34.62" y="-148.25" font-family="Helvetica,sans-Serif" font-size="10.00">nix::PosIdx</text>
</a>
</g>
</g>
<!-- Node7&#45;&gt;Node6 -->
<g id="edge8_Node000006_Node000007" class="edge">
<title>Node7&#45;&gt;Node6</title>
<g id="a_edge8_Node000006_Node000007"><a xlink:title=" ">
<path fill="none" stroke="#9a32cd" stroke-dasharray="5,2" d="M80.86,-155.28C120.97,-158.74 178.94,-163.75 216.98,-167.03"/>
<polygon fill="#9a32cd" stroke="#9a32cd" points="81.31,-151.81 71.05,-154.43 80.71,-158.78 81.31,-151.81"/>
</a>
</g>
<text text-anchor="middle" x="97.38" y="-160.54" font-family="Helvetica,sans-Serif" font-size="10.00" fill="grey"> pos</text>
</g>
<!-- Node8 -->
<g id="Node000008" class="node">
<title>Node8</title>
<g id="a_Node000008"><a xlink:href="structnix_1_1Expr.html" target="_top" xlink:title=" ">
<polygon fill="white" stroke="#bfbfbf" points="191.75,-142.75 133,-142.75 133,-122 191.75,-122 191.75,-142.75"/>
<text text-anchor="middle" x="162.38" y="-129.25" font-family="Helvetica,sans-Serif" font-size="10.00">nix::Expr</text>
</a>
</g>
</g>
<!-- Node7&#45;&gt;Node8 -->
<g id="edge12_Node000008_Node000007" class="edge">
<title>Node7&#45;&gt;Node8</title>
<g id="a_edge12_Node000008_Node000007"><a xlink:title=" ">
<path fill="none" stroke="#9a32cd" stroke-dasharray="5,2" d="M77.61,-137.62C80.85,-136.85 84.09,-136.17 87.25,-135.62 102.1,-133.08 118.86,-132.18 132.68,-131.95"/>
<polygon fill="#9a32cd" stroke="#9a32cd" points="76.94,-134.17 68.18,-140.12 78.74,-140.94 76.94,-134.17"/>
</a>
</g>
<text text-anchor="middle" x="97.38" y="-138.88" font-family="Helvetica,sans-Serif" font-size="10.00" fill="grey"> pos</text>
</g>
<!-- Node8&#45;&gt;Node3 -->
<g id="edge11_Node000003_Node000008" class="edge">
<title>Node8&#45;&gt;Node3</title>
<g id="a_edge11_Node000003_Node000008"><a xlink:title=" ">
<path fill="none" stroke="#9a32cd" stroke-dasharray="5,2" d="M203.12,-134.06C257.32,-136.47 357.45,-141.32 442.75,-147.62 475.04,-150.01 511.9,-153.55 537.36,-156.12"/>
<polygon fill="#9a32cd" stroke="#9a32cd" points="203.61,-130.58 193.47,-133.64 203.3,-137.57 203.61,-130.58"/>
</a>
</g>
<text text-anchor="middle" x="378.5" y="-150.88" font-family="Helvetica,sans-Serif" font-size="10.00" fill="grey"> expr</text>
</g>
<!-- Node9 -->
<g id="Node000009" class="node">
<title>Node9</title>
<g id="a_Node000009"><a xlink:href="structnix_1_1ExprLambda.html" target="_top" xlink:title=" ">
<polygon fill="white" stroke="#bfbfbf" points="427.38,-98.75 329.62,-98.75 329.62,-78 427.38,-78 427.38,-98.75"/>
<text text-anchor="middle" x="378.5" y="-85.25" font-family="Helvetica,sans-Serif" font-size="10.00">nix::ExprLambda</text>
</a>
</g>
</g>
<!-- Node8&#45;&gt;Node9 -->
<g id="edge14_Node000009_Node000008" class="edge">
<title>Node8&#45;&gt;Node9</title>
<g id="a_edge14_Node000009_Node000008"><a xlink:title=" ">
<path fill="none" stroke="#63b8ff" d="M202.75,-124.28C238.41,-116.96 291.06,-106.14 329.24,-98.29"/>
<polygon fill="#63b8ff" stroke="#63b8ff" points="202.38,-120.79 193.29,-126.23 203.79,-127.64 202.38,-120.79"/>
</a>
</g>
</g>
<!-- Node9&#45;&gt;Node3 -->
<g id="edge13_Node000003_Node000009" class="edge">
<title>Node9&#45;&gt;Node3</title>
<g id="a_edge13_Node000003_Node000009"><a xlink:title=" ">
<path fill="none" stroke="#9a32cd" stroke-dasharray="5,2" d="M438.86,-91.16C460.17,-93.79 483.94,-98.67 504.25,-107.62 526.29,-117.34 547.13,-136.59 558.85,-148.68"/>
<polygon fill="#9a32cd" stroke="#9a32cd" points="439.46,-87.71 429.14,-90.11 438.71,-94.67 439.46,-87.71"/>
</a>
</g>
<text text-anchor="middle" x="482.5" y="-110.88" font-family="Helvetica,sans-Serif" font-size="10.00" fill="grey"> fun</text>
</g>
<!-- Node10 -->
<g id="Node000010" class="node">
<title>Node10</title>
<g id="a_Node000010"><a xlink:href="classnix_1_1Symbol.html" target="_top" xlink:title=" ">
<polygon fill="white" stroke="#666666" points="199.25,-91.75 125.5,-91.75 125.5,-71 199.25,-71 199.25,-91.75"/>
<text text-anchor="middle" x="162.38" y="-78.25" font-family="Helvetica,sans-Serif" font-size="10.00">nix::Symbol</text>
</a>
</g>
</g>
<!-- Node10&#45;&gt;Node9 -->
<g id="edge15_Node000009_Node000010" class="edge">
<title>Node10&#45;&gt;Node9</title>
<g id="a_edge15_Node000009_Node000010"><a xlink:title=" ">
<path fill="none" stroke="#9a32cd" stroke-dasharray="5,2" d="M210.66,-81.12C236.04,-81.16 267.86,-81.49 296.25,-82.62 306.99,-83.06 318.51,-83.74 329.41,-84.48"/>
<polygon fill="#9a32cd" stroke="#9a32cd" points="211,-77.62 201,-81.12 211,-84.62 211,-77.62"/>
</a>
</g>
<text text-anchor="middle" x="256.75" y="-85.88" font-family="Helvetica,sans-Serif" font-size="10.00" fill="grey"> name</text>
</g>
<!-- Node11 -->
<g id="Node000011" class="node">
<title>Node11</title>
<g id="a_Node000011"><a xlink:href="structnix_1_1PrimOp.html" target="_top" xlink:title=" ">
<polygon fill="white" stroke="#666666" points="415,-59.75 342,-59.75 342,-39 415,-39 415,-59.75"/>
<text text-anchor="middle" x="378.5" y="-46.25" font-family="Helvetica,sans-Serif" font-size="10.00">nix::PrimOp</text>
</a>
</g>
</g>
<!-- Node11&#45;&gt;Node3 -->
<g id="edge16_Node000003_Node000011" class="edge">
<title>Node11&#45;&gt;Node3</title>
<g id="a_edge16_Node000003_Node000011"><a xlink:title=" ">
<path fill="none" stroke="#9a32cd" stroke-dasharray="5,2" d="M426.56,-52.48C451.24,-55.9 481.07,-62.99 504.25,-77.62 532.81,-95.66 554,-130.97 563.34,-148.69"/>
<polygon fill="#9a32cd" stroke="#9a32cd" points="427.12,-49.02 416.77,-51.3 426.28,-55.97 427.12,-49.02"/>
</a>
</g>
<text text-anchor="middle" x="482.5" y="-80.88" font-family="Helvetica,sans-Serif" font-size="10.00" fill="grey"> primOp</text>
</g>
<!-- Node12 -->
<g id="Node000012" class="node">
<title>Node12</title>
<g id="a_Node000012"><a xlink:title=" ">
<polygon fill="white" stroke="#bfbfbf" points="184.25,-52.75 140.5,-52.75 140.5,-32 184.25,-32 184.25,-52.75"/>
<text text-anchor="middle" x="162.38" y="-39.25" font-family="Helvetica,sans-Serif" font-size="10.00">string</text>
</a>
</g>
</g>
<!-- Node12&#45;&gt;Node11 -->
<g id="edge17_Node000011_Node000012" class="edge">
<title>Node12&#45;&gt;Node11</title>
<g id="a_edge17_Node000011_Node000012"><a xlink:title=" ">
<path fill="none" stroke="#9a32cd" stroke-dasharray="5,2" d="M195.98,-43.44C235.28,-44.73 301.12,-46.88 341.77,-48.21"/>
<polygon fill="#9a32cd" stroke="#9a32cd" points="196.31,-39.95 186.2,-43.12 196.08,-46.95 196.31,-39.95"/>
</a>
</g>
<text text-anchor="middle" x="256.75" y="-49.96" font-family="Helvetica,sans-Serif" font-size="10.00" fill="grey"> name</text>
</g>
<!-- Node13 -->
<g id="Node000013" class="node">
<title>Node13</title>
<g id="a_Node000013"><a xlink:href="classnix_1_1ExternalValueBase.html" target="_top" xlink:title=" ">
<polygon fill="white" stroke="#666666" points="442.75,-20.75 314.25,-20.75 314.25,0 442.75,0 442.75,-20.75"/>
<text text-anchor="middle" x="378.5" y="-7.25" font-family="Helvetica,sans-Serif" font-size="10.00">nix::ExternalValueBase</text>
</a>
</g>
</g>
<!-- Node13&#45;&gt;Node3 -->
<g id="edge18_Node000003_Node000013" class="edge">
<title>Node13&#45;&gt;Node3</title>
<g id="a_edge18_Node000003_Node000013"><a xlink:title=" ">
<path fill="none" stroke="#9a32cd" stroke-dasharray="5,2" d="M453.97,-19.92C471.75,-24.86 489.75,-32.33 504.25,-43.62 540.17,-71.61 559.03,-125.55 565.74,-148.55"/>
<polygon fill="#9a32cd" stroke="#9a32cd" points="454.98,-16.57 444.43,-17.53 453.28,-23.36 454.98,-16.57"/>
</a>
</g>
<text text-anchor="middle" x="482.5" y="-46.88" font-family="Helvetica,sans-Serif" font-size="10.00" fill="grey"> external</text>
</g>
</g>
</svg>
