<?xml version="1.0" encoding="UTF-8" standalone="no"?>
<!DOCTYPE svg PUBLIC "-//W3C//DTD SVG 1.1//EN"
 "http://www.w3.org/Graphics/SVG/1.1/DTD/svg11.dtd">
<!-- Generated by graphviz version 12.2.1 (0)
 -->
<!-- Title: lix/libutil/closure.hh Pages: 1 -->
<svg width="1661pt" height="382pt"
 viewBox="0.00 0.00 1660.60 382.00" xmlns="http://www.w3.org/2000/svg" xmlns:xlink="http://www.w3.org/1999/xlink">
<g id="graph0" class="graph" transform="scale(1 1) rotate(0) translate(4 378)">
<title>lix/libutil/closure.hh</title>
<!-- Node1 -->
<g id="Node000001" class="node">
<title>Node1</title>
<g id="a_Node000001"><a xlink:title=" ">
<polygon fill="#999999" stroke="#666666" points="676.85,-374 564.85,-374 564.85,-353.25 676.85,-353.25 676.85,-374"/>
<text text-anchor="middle" x="620.85" y="-360.5" font-family="Helvetica,sans-Serif" font-size="10.00">lix/libutil/closure.hh</text>
</a>
</g>
</g>
<!-- Node2 -->
<g id="Node000002" class="node">
<title>Node2</title>
<g id="a_Node000002"><a xlink:href="async_8hh.html" target="_top" xlink:title=" ">
<polygon fill="white" stroke="#666666" points="673.48,-317.25 568.23,-317.25 568.23,-296.5 673.48,-296.5 673.48,-317.25"/>
<text text-anchor="middle" x="620.85" y="-303.75" font-family="Helvetica,sans-Serif" font-size="10.00">lix/libutil/async.hh</text>
</a>
</g>
</g>
<!-- Node1&#45;&gt;Node2 -->
<g id="edge1_Node000001_Node000002" class="edge">
<title>Node1&#45;&gt;Node2</title>
<g id="a_edge1_Node000001_Node000002"><a xlink:title=" ">
<path fill="none" stroke="#63b8ff" d="M620.85,-352.84C620.85,-346.22 620.85,-337.22 620.85,-329.02"/>
<polygon fill="#63b8ff" stroke="#63b8ff" points="624.35,-329.09 620.85,-319.09 617.35,-329.09 624.35,-329.09"/>
</a>
</g>
</g>
<!-- Node3 -->
<g id="Node000003" class="node">
<title>Node3</title>
<g id="a_Node000003"><a xlink:href="result_8hh.html" target="_top" xlink:title=" ">
<polygon fill="white" stroke="#666666" points="544.1,-203.75 439.6,-203.75 439.6,-183 544.1,-183 544.1,-203.75"/>
<text text-anchor="middle" x="491.85" y="-190.25" font-family="Helvetica,sans-Serif" font-size="10.00">lix/libutil/result.hh</text>
</a>
</g>
</g>
<!-- Node1&#45;&gt;Node3 -->
<g id="edge46_Node000001_Node000003" class="edge">
<title>Node1&#45;&gt;Node3</title>
<g id="a_edge46_Node000001_Node000003"><a xlink:title=" ">
<path fill="none" stroke="#63b8ff" d="M603.94,-352.78C590.62,-344.48 572.16,-331.65 558.85,-317.25 530.11,-286.14 509.45,-240.43 499.18,-214.42"/>
<polygon fill="#63b8ff" stroke="#63b8ff" points="502.58,-213.5 495.75,-205.4 496.04,-215.99 502.58,-213.5"/>
</a>
</g>
</g>
<!-- Node16 -->
<g id="Node000016" class="node">
<title>Node16</title>
<g id="a_Node000016"><a xlink:title=" ">
<polygon fill="#e0e0e0" stroke="#999999" points="310.35,-77.5 279.35,-77.5 279.35,-56.75 310.35,-56.75 310.35,-77.5"/>
<text text-anchor="middle" x="294.85" y="-64" font-family="Helvetica,sans-Serif" font-size="10.00">set</text>
</a>
</g>
</g>
<!-- Node1&#45;&gt;Node16 -->
<g id="edge49_Node000001_Node000016" class="edge">
<title>Node1&#45;&gt;Node16</title>
<g id="a_edge49_Node000001_Node000016"><a xlink:title=" ">
<path fill="none" stroke="#63b8ff" d="M564.55,-358.39C411.96,-346.16 1.85,-308.01 1.85,-251.12 1.85,-251.12 1.85,-251.12 1.85,-192.38 1.85,-156.32 -5.55,-138.06 20.85,-113.5 56.43,-80.4 205.84,-71.29 267.78,-68.92"/>
<polygon fill="#63b8ff" stroke="#63b8ff" points="267.55,-72.43 277.43,-68.58 267.31,-65.43 267.55,-72.43"/>
</a>
</g>
</g>
<!-- Node32 -->
<g id="Node000032" class="node">
<title>Node32</title>
<g id="a_Node000032"><a xlink:title=" ">
<polygon fill="#e0e0e0" stroke="#999999" points="696.6,-203.75 631.1,-203.75 631.1,-183 696.6,-183 696.6,-203.75"/>
<text text-anchor="middle" x="663.85" y="-190.25" font-family="Helvetica,sans-Serif" font-size="10.00">kj/async.h</text>
</a>
</g>
</g>
<!-- Node1&#45;&gt;Node32 -->
<g id="edge48_Node000001_Node000032" class="edge">
<title>Node1&#45;&gt;Node32</title>
<g id="a_edge48_Node000001_Node000032"><a xlink:title=" ">
<path fill="none" stroke="#63b8ff" d="M643.23,-352.89C657.41,-345.4 674.58,-333.55 682.85,-317.25 699.7,-284.03 685.2,-239.76 673.96,-214.44"/>
<polygon fill="#63b8ff" stroke="#63b8ff" points="677.23,-213.16 669.79,-205.61 670.9,-216.15 677.23,-213.16"/>
</a>
</g>
</g>
<!-- Node37 -->
<g id="Node000037" class="node">
<title>Node37</title>
<g id="a_Node000037"><a xlink:title=" ">
<polygon fill="#e0e0e0" stroke="#999999" points="1296.23,-203.75 1231.48,-203.75 1231.48,-183 1296.23,-183 1296.23,-203.75"/>
<text text-anchor="middle" x="1263.85" y="-190.25" font-family="Helvetica,sans-Serif" font-size="10.00">functional</text>
</a>
</g>
</g>
<!-- Node1&#45;&gt;Node37 -->
<g id="edge47_Node000001_Node000037" class="edge">
<title>Node1&#45;&gt;Node37</title>
<g id="a_edge47_Node000001_Node000037"><a xlink:title=" ">
<path fill="none" stroke="#63b8ff" d="M658.2,-352.85C769.85,-323.64 1100.73,-237.06 1220.2,-205.8"/>
<polygon fill="#63b8ff" stroke="#63b8ff" points="1220.84,-209.25 1229.63,-203.33 1219.07,-202.48 1220.84,-209.25"/>
</a>
</g>
</g>
<!-- Node2&#45;&gt;Node3 -->
<g id="edge2_Node000002_Node000003" class="edge">
<title>Node2&#45;&gt;Node3</title>
<g id="a_edge2_Node000002_Node000003"><a xlink:title=" ">
<path fill="none" stroke="#63b8ff" d="M602.07,-296.08C586.9,-287.7 565.42,-274.77 548.85,-260.5 532.4,-246.34 516.51,-227.32 505.71,-213.32"/>
<polygon fill="#63b8ff" stroke="#63b8ff" points="508.53,-211.24 499.72,-205.36 502.94,-215.45 508.53,-211.24"/>
</a>
</g>
</g>
<!-- Node8 -->
<g id="Node000008" class="node">
<title>Node8</title>
<g id="a_Node000008"><a xlink:href="signals_8hh_source.html" target="_top" xlink:title=" ">
<polygon fill="white" stroke="#666666" points="907.48,-260.5 796.23,-260.5 796.23,-239.75 907.48,-239.75 907.48,-260.5"/>
<text text-anchor="middle" x="851.85" y="-247" font-family="Helvetica,sans-Serif" font-size="10.00">lix/libutil/signals.hh</text>
</a>
</g>
</g>
<!-- Node2&#45;&gt;Node8 -->
<g id="edge7_Node000002_Node000008" class="edge">
<title>Node2&#45;&gt;Node8</title>
<g id="a_edge7_Node000002_Node000008"><a xlink:title=" ">
<path fill="none" stroke="#63b8ff" d="M662.42,-296.02C700.73,-286.94 757.77,-273.42 799.24,-263.59"/>
<polygon fill="#63b8ff" stroke="#63b8ff" points="799.83,-267.05 808.76,-261.34 798.22,-260.24 799.83,-267.05"/>
</a>
</g>
</g>
<!-- Node2&#45;&gt;Node32 -->
<g id="edge45_Node000002_Node000032" class="edge">
<title>Node2&#45;&gt;Node32</title>
<g id="a_edge45_Node000002_Node000032"><a xlink:title=" ">
<path fill="none" stroke="#63b8ff" d="M626.8,-296.07C632.08,-287.06 639.72,-273.23 644.85,-260.5 650.81,-245.72 655.71,-228.4 659.05,-215.19"/>
<polygon fill="#63b8ff" stroke="#63b8ff" points="662.45,-216.01 661.39,-205.47 655.64,-214.37 662.45,-216.01"/>
</a>
</g>
</g>
<!-- Node38 -->
<g id="Node000038" class="node">
<title>Node38</title>
<g id="a_Node000038"><a xlink:title=" ">
<polygon fill="#e0e0e0" stroke="#999999" points="970.48,-260.5 925.23,-260.5 925.23,-239.75 970.48,-239.75 970.48,-260.5"/>
<text text-anchor="middle" x="947.85" y="-247" font-family="Helvetica,sans-Serif" font-size="10.00">future</text>
</a>
</g>
</g>
<!-- Node2&#45;&gt;Node38 -->
<g id="edge43_Node000002_Node000038" class="edge">
<title>Node2&#45;&gt;Node38</title>
<g id="a_edge43_Node000002_Node000038"><a xlink:title=" ">
<path fill="none" stroke="#63b8ff" d="M673.94,-300.04C731.13,-293.24 824.92,-280.61 913.83,-260.95"/>
<polygon fill="#63b8ff" stroke="#63b8ff" points="914.46,-264.4 923.45,-258.79 912.92,-257.57 914.46,-264.4"/>
</a>
</g>
</g>
<!-- Node39 -->
<g id="Node000039" class="node">
<title>Node39</title>
<g id="a_Node000039"><a xlink:title=" ">
<polygon fill="#e0e0e0" stroke="#999999" points="635.98,-260.5 557.73,-260.5 557.73,-239.75 635.98,-239.75 635.98,-260.5"/>
<text text-anchor="middle" x="596.85" y="-247" font-family="Helvetica,sans-Serif" font-size="10.00">kj/async&#45;io.h</text>
</a>
</g>
</g>
<!-- Node2&#45;&gt;Node39 -->
<g id="edge44_Node000002_Node000039" class="edge">
<title>Node2&#45;&gt;Node39</title>
<g id="a_edge44_Node000002_Node000039"><a xlink:title=" ">
<path fill="none" stroke="#63b8ff" d="M616.56,-296.09C613.52,-289.16 609.34,-279.62 605.61,-271.11"/>
<polygon fill="#63b8ff" stroke="#63b8ff" points="608.93,-269.97 601.71,-262.21 602.52,-272.78 608.93,-269.97"/>
</a>
</g>
</g>
<!-- Node4 -->
<g id="Node000004" class="node">
<title>Node4</title>
<g id="a_Node000004"><a xlink:title=" ">
<polygon fill="#e0e0e0" stroke="#999999" points="613.73,-140.62 437.98,-140.62 437.98,-119.88 613.73,-119.88 613.73,-140.62"/>
<text text-anchor="middle" x="525.85" y="-127.12" font-family="Helvetica,sans-Serif" font-size="10.00">boost/outcome/std_outcome.hpp</text>
</a>
</g>
</g>
<!-- Node3&#45;&gt;Node4 -->
<g id="edge3_Node000003_Node000004" class="edge">
<title>Node3&#45;&gt;Node4</title>
<g id="a_edge3_Node000003_Node000004"><a xlink:title=" ">
<path fill="none" stroke="#63b8ff" d="M497.31,-182.55C502.05,-174.04 509.05,-161.45 514.93,-150.88"/>
<polygon fill="#63b8ff" stroke="#63b8ff" points="517.98,-152.61 519.78,-142.17 511.86,-149.21 517.98,-152.61"/>
</a>
</g>
</g>
<!-- Node5 -->
<g id="Node000005" class="node">
<title>Node5</title>
<g id="a_Node000005"><a xlink:title=" ">
<polygon fill="#e0e0e0" stroke="#999999" points="190.23,-140.62 29.48,-140.62 29.48,-119.88 190.23,-119.88 190.23,-140.62"/>
<text text-anchor="middle" x="109.85" y="-127.12" font-family="Helvetica,sans-Serif" font-size="10.00">boost/outcome/std_result.hpp</text>
</a>
</g>
</g>
<!-- Node3&#45;&gt;Node5 -->
<g id="edge4_Node000003_Node000005" class="edge">
<title>Node3&#45;&gt;Node5</title>
<g id="a_edge4_Node000003_Node000005"><a xlink:title=" ">
<path fill="none" stroke="#63b8ff" d="M439.13,-184.56C380.43,-175.78 282.76,-160.92 198.85,-147 191.36,-145.76 183.53,-144.42 175.74,-143.07"/>
<polygon fill="#63b8ff" stroke="#63b8ff" points="176.36,-139.63 165.91,-141.36 175.16,-146.53 176.36,-139.63"/>
</a>
</g>
</g>
<!-- Node6 -->
<g id="Node000006" class="node">
<title>Node6</title>
<g id="a_Node000006"><a xlink:title=" ">
<polygon fill="#e0e0e0" stroke="#999999" points="337.85,-147 207.85,-147 207.85,-113.5 337.85,-113.5 337.85,-147"/>
<text text-anchor="start" x="215.85" y="-133.5" font-family="Helvetica,sans-Serif" font-size="10.00">boost/outcome/success</text>
<text text-anchor="middle" x="272.85" y="-120.75" font-family="Helvetica,sans-Serif" font-size="10.00">_failure.hpp</text>
</a>
</g>
</g>
<!-- Node3&#45;&gt;Node6 -->
<g id="edge5_Node000003_Node000006" class="edge">
<title>Node3&#45;&gt;Node6</title>
<g id="a_edge5_Node000003_Node000006"><a xlink:title=" ">
<path fill="none" stroke="#63b8ff" d="M456.66,-182.55C425.85,-173.95 380.17,-161.2 342.06,-150.57"/>
<polygon fill="#63b8ff" stroke="#63b8ff" points="343.05,-147.21 332.48,-147.89 341.17,-153.95 343.05,-147.21"/>
</a>
</g>
</g>
<!-- Node7 -->
<g id="Node000007" class="node">
<title>Node7</title>
<g id="a_Node000007"><a xlink:title=" ">
<polygon fill="#e0e0e0" stroke="#999999" points="419.85,-140.62 355.85,-140.62 355.85,-119.88 419.85,-119.88 419.85,-140.62"/>
<text text-anchor="middle" x="387.85" y="-127.12" font-family="Helvetica,sans-Serif" font-size="10.00">exception</text>
</a>
</g>
</g>
<!-- Node3&#45;&gt;Node7 -->
<g id="edge6_Node000003_Node000007" class="edge">
<title>Node3&#45;&gt;Node7</title>
<g id="a_edge6_Node000003_Node000007"><a xlink:title=" ">
<path fill="none" stroke="#63b8ff" d="M475.14,-182.55C458.77,-172.93 433.55,-158.11 414.42,-146.87"/>
<polygon fill="#63b8ff" stroke="#63b8ff" points="416.22,-143.86 405.82,-141.81 412.67,-149.9 416.22,-143.86"/>
</a>
</g>
</g>
<!-- Node8&#45;&gt;Node3 -->
<g id="edge33_Node000008_Node000003" class="edge">
<title>Node8&#45;&gt;Node3</title>
<g id="a_edge33_Node000008_Node000003"><a xlink:title=" ">
<path fill="none" stroke="#63b8ff" d="M796,-240.63C730.89,-230.73 623.54,-214.4 555.33,-204.03"/>
<polygon fill="#63b8ff" stroke="#63b8ff" points="556.23,-200.63 545.82,-202.58 555.18,-207.55 556.23,-200.63"/>
</a>
</g>
</g>
<!-- Node9 -->
<g id="Node000009" class="node">
<title>Node9</title>
<g id="a_Node000009"><a xlink:href="error_8hh.html" target="_top" xlink:title="This file defines two main structs/classes used in nix error handling.">
<polygon fill="white" stroke="#666666" points="1137.48,-203.75 1038.23,-203.75 1038.23,-183 1137.48,-183 1137.48,-203.75"/>
<text text-anchor="middle" x="1087.85" y="-190.25" font-family="Helvetica,sans-Serif" font-size="10.00">lix/libutil/error.hh</text>
</a>
</g>
</g>
<!-- Node8&#45;&gt;Node9 -->
<g id="edge8_Node000008_Node000009" class="edge">
<title>Node8&#45;&gt;Node9</title>
<g id="a_edge8_Node000008_Node000009"><a xlink:title=" ">
<path fill="none" stroke="#63b8ff" d="M894.32,-239.27C933.54,-230.17 991.98,-216.62 1034.37,-206.78"/>
<polygon fill="#63b8ff" stroke="#63b8ff" points="1034.9,-210.25 1043.85,-204.58 1033.32,-203.43 1034.9,-210.25"/>
</a>
</g>
</g>
<!-- Node26 -->
<g id="Node000026" class="node">
<title>Node26</title>
<g id="a_Node000026"><a xlink:title=" ">
<polygon fill="#e0e0e0" stroke="#999999" points="1563.48,-140.62 1506.23,-140.62 1506.23,-119.88 1563.48,-119.88 1563.48,-140.62"/>
<text text-anchor="middle" x="1534.85" y="-127.12" font-family="Helvetica,sans-Serif" font-size="10.00">memory</text>
</a>
</g>
</g>
<!-- Node8&#45;&gt;Node26 -->
<g id="edge35_Node000008_Node000026" class="edge">
<title>Node8&#45;&gt;Node26</title>
<g id="a_edge35_Node000008_Node000026"><a xlink:title=" ">
<path fill="none" stroke="#63b8ff" d="M907.72,-240.74C991.66,-228.12 1141.17,-205.51 1146.85,-203.75 1167.12,-197.46 1169.48,-188.93 1189.85,-183 1321.76,-144.62 1363.91,-181.63 1496.85,-147 1499.12,-146.41 1501.43,-145.71 1503.73,-144.94"/>
<polygon fill="#63b8ff" stroke="#63b8ff" points="1504.75,-148.3 1512.88,-141.51 1502.29,-141.75 1504.75,-148.3"/>
</a>
</g>
</g>
<!-- Node28 -->
<g id="Node000028" class="node">
<title>Node28</title>
<g id="a_Node000028"><a xlink:title=" ">
<polygon fill="#e0e0e0" stroke="#999999" points="1652.6,-140.62 1581.1,-140.62 1581.1,-119.88 1652.6,-119.88 1652.6,-140.62"/>
<text text-anchor="middle" x="1616.85" y="-127.12" font-family="Helvetica,sans-Serif" font-size="10.00">sys/types.h</text>
</a>
</g>
</g>
<!-- Node8&#45;&gt;Node28 -->
<g id="edge36_Node000008_Node000028" class="edge">
<title>Node8&#45;&gt;Node28</title>
<g id="a_edge36_Node000008_Node000028"><a xlink:title=" ">
<path fill="none" stroke="#63b8ff" d="M907.69,-240.91C910.45,-240.51 913.18,-240.13 915.85,-239.75 1034.42,-223.07 1068.68,-239.85 1182.85,-203.75 1201.95,-197.71 1203.66,-188.74 1222.85,-183 1372.67,-138.21 1420.35,-181.6 1572.85,-147 1575.86,-146.32 1578.95,-145.49 1582.03,-144.57"/>
<polygon fill="#63b8ff" stroke="#63b8ff" points="1583.11,-147.9 1591.52,-141.46 1580.92,-141.25 1583.11,-147.9"/>
</a>
</g>
</g>
<!-- Node29 -->
<g id="Node000029" class="node">
<title>Node29</title>
<g id="a_Node000029"><a xlink:title=" ">
<polygon fill="#e0e0e0" stroke="#999999" points="695.48,-140.62 632.23,-140.62 632.23,-119.88 695.48,-119.88 695.48,-140.62"/>
<text text-anchor="middle" x="663.85" y="-127.12" font-family="Helvetica,sans-Serif" font-size="10.00">sys/stat.h</text>
</a>
</g>
</g>
<!-- Node8&#45;&gt;Node29 -->
<g id="edge37_Node000008_Node000029" class="edge">
<title>Node8&#45;&gt;Node29</title>
<g id="a_edge37_Node000008_Node000029"><a xlink:title=" ">
<path fill="none" stroke="#63b8ff" d="M821.17,-239.37C798.78,-231.53 768.21,-219.26 743.85,-203.75 719.44,-188.21 695.37,-165.04 680.11,-149.1"/>
<polygon fill="#63b8ff" stroke="#63b8ff" points="683.03,-147.09 673.63,-142.18 677.92,-151.87 683.03,-147.09"/>
</a>
</g>
</g>
<!-- Node8&#45;&gt;Node32 -->
<g id="edge34_Node000008_Node000032" class="edge">
<title>Node8&#45;&gt;Node32</title>
<g id="a_edge34_Node000008_Node000032"><a xlink:title=" ">
<path fill="none" stroke="#63b8ff" d="M818.24,-239.34C787.4,-230.36 741.52,-217 707.79,-207.17"/>
<polygon fill="#63b8ff" stroke="#63b8ff" points="708.89,-203.85 698.31,-204.41 706.93,-210.57 708.89,-203.85"/>
</a>
</g>
</g>
<!-- Node33 -->
<g id="Node000033" class="node">
<title>Node33</title>
<g id="a_Node000033"><a xlink:title=" ">
<polygon fill="#e0e0e0" stroke="#999999" points="806.6,-203.75 753.1,-203.75 753.1,-183 806.6,-183 806.6,-203.75"/>
<text text-anchor="middle" x="779.85" y="-190.25" font-family="Helvetica,sans-Serif" font-size="10.00">dirent.h</text>
</a>
</g>
</g>
<!-- Node8&#45;&gt;Node33 -->
<g id="edge38_Node000008_Node000033" class="edge">
<title>Node8&#45;&gt;Node33</title>
<g id="a_edge38_Node000008_Node000033"><a xlink:title=" ">
<path fill="none" stroke="#63b8ff" d="M838.98,-239.34C828.64,-231.47 813.88,-220.25 801.7,-210.99"/>
<polygon fill="#63b8ff" stroke="#63b8ff" points="803.89,-208.26 793.82,-204.99 799.66,-213.83 803.89,-208.26"/>
</a>
</g>
</g>
<!-- Node34 -->
<g id="Node000034" class="node">
<title>Node34</title>
<g id="a_Node000034"><a xlink:title=" ">
<polygon fill="#e0e0e0" stroke="#999999" points="879.35,-203.75 824.35,-203.75 824.35,-183 879.35,-183 879.35,-203.75"/>
<text text-anchor="middle" x="851.85" y="-190.25" font-family="Helvetica,sans-Serif" font-size="10.00">unistd.h</text>
</a>
</g>
</g>
<!-- Node8&#45;&gt;Node34 -->
<g id="edge39_Node000008_Node000034" class="edge">
<title>Node8&#45;&gt;Node34</title>
<g id="a_edge39_Node000008_Node000034"><a xlink:title=" ">
<path fill="none" stroke="#63b8ff" d="M851.85,-239.34C851.85,-232.72 851.85,-223.72 851.85,-215.52"/>
<polygon fill="#63b8ff" stroke="#63b8ff" points="855.35,-215.59 851.85,-205.59 848.35,-215.59 855.35,-215.59"/>
</a>
</g>
</g>
<!-- Node35 -->
<g id="Node000035" class="node">
<title>Node35</title>
<g id="a_Node000035"><a xlink:title=" ">
<polygon fill="#e0e0e0" stroke="#999999" points="951.98,-203.75 897.73,-203.75 897.73,-183 951.98,-183 951.98,-203.75"/>
<text text-anchor="middle" x="924.85" y="-190.25" font-family="Helvetica,sans-Serif" font-size="10.00">signal.h</text>
</a>
</g>
</g>
<!-- Node8&#45;&gt;Node35 -->
<g id="edge40_Node000008_Node000035" class="edge">
<title>Node8&#45;&gt;Node35</title>
<g id="a_edge40_Node000008_Node000035"><a xlink:title=" ">
<path fill="none" stroke="#63b8ff" d="M864.9,-239.34C875.49,-231.4 890.64,-220.03 903.07,-210.71"/>
<polygon fill="#63b8ff" stroke="#63b8ff" points="904.8,-213.79 910.7,-204.99 900.6,-208.19 904.8,-213.79"/>
</a>
</g>
</g>
<!-- Node36 -->
<g id="Node000036" class="node">
<title>Node36</title>
<g id="a_Node000036"><a xlink:title=" ">
<polygon fill="#e0e0e0" stroke="#999999" points="1019.73,-203.75 969.98,-203.75 969.98,-183 1019.73,-183 1019.73,-203.75"/>
<text text-anchor="middle" x="994.85" y="-190.25" font-family="Helvetica,sans-Serif" font-size="10.00">atomic</text>
</a>
</g>
</g>
<!-- Node8&#45;&gt;Node36 -->
<g id="edge41_Node000008_Node000036" class="edge">
<title>Node8&#45;&gt;Node36</title>
<g id="a_edge41_Node000008_Node000036"><a xlink:title=" ">
<path fill="none" stroke="#63b8ff" d="M877.42,-239.34C900.09,-230.66 933.45,-217.88 958.83,-208.17"/>
<polygon fill="#63b8ff" stroke="#63b8ff" points="960.01,-211.46 968.09,-204.62 957.5,-204.93 960.01,-211.46"/>
</a>
</g>
</g>
<!-- Node8&#45;&gt;Node37 -->
<g id="edge42_Node000008_Node000037" class="edge">
<title>Node8&#45;&gt;Node37</title>
<g id="a_edge42_Node000008_Node000037"><a xlink:title=" ">
<path fill="none" stroke="#63b8ff" d="M907.69,-240.86C910.45,-240.48 913.18,-240.1 915.85,-239.75 1049.85,-221.95 1084.4,-225.27 1217.85,-203.75 1218.67,-203.62 1219.49,-203.48 1220.32,-203.34"/>
<polygon fill="#63b8ff" stroke="#63b8ff" points="1220.54,-206.86 1229.75,-201.64 1219.29,-199.97 1220.54,-206.86"/>
</a>
</g>
</g>
<!-- Node10 -->
<g id="Node000010" class="node">
<title>Node10</title>
<g id="a_Node000010"><a xlink:href="json-fwd_8hh_source.html" target="_top" xlink:title=" ">
<polygon fill="white" stroke="#666666" points="929.85,-140.62 811.85,-140.62 811.85,-119.88 929.85,-119.88 929.85,-140.62"/>
<text text-anchor="middle" x="870.85" y="-127.12" font-family="Helvetica,sans-Serif" font-size="10.00">lix/libutil/json&#45;fwd.hh</text>
</a>
</g>
</g>
<!-- Node9&#45;&gt;Node10 -->
<g id="edge9_Node000009_Node000010" class="edge">
<title>Node9&#45;&gt;Node10</title>
<g id="a_edge9_Node000009_Node000010"><a xlink:title=" ">
<path fill="none" stroke="#63b8ff" d="M1052.99,-182.55C1015.97,-172.13 957.31,-155.6 916.6,-144.14"/>
<polygon fill="#63b8ff" stroke="#63b8ff" points="917.66,-140.8 907.09,-141.46 915.76,-147.54 917.66,-140.8"/>
</a>
</g>
</g>
<!-- Node12 -->
<g id="Node000012" class="node">
<title>Node12</title>
<g id="a_Node000012"><a xlink:title=" ">
<polygon fill="#e0e0e0" stroke="#999999" points="839.1,-77.5 770.6,-77.5 770.6,-56.75 839.1,-56.75 839.1,-77.5"/>
<text text-anchor="middle" x="804.85" y="-64" font-family="Helvetica,sans-Serif" font-size="10.00">type_traits</text>
</a>
</g>
</g>
<!-- Node9&#45;&gt;Node12 -->
<g id="edge32_Node000009_Node000012" class="edge">
<title>Node9&#45;&gt;Node12</title>
<g id="a_edge32_Node000009_Node000012"><a xlink:title=" ">
<path fill="none" stroke="#63b8ff" d="M1055.88,-182.5C1032.93,-174.67 1001.79,-162.48 976.85,-147 957.72,-135.13 958.34,-124.78 938.85,-113.5 911.32,-97.57 877.35,-86.15 850.51,-78.75"/>
<polygon fill="#63b8ff" stroke="#63b8ff" points="851.5,-75.39 840.94,-76.21 849.71,-82.15 851.5,-75.39"/>
</a>
</g>
</g>
<!-- Node13 -->
<g id="Node000013" class="node">
<title>Node13</title>
<g id="a_Node000013"><a xlink:href="suggestions_8hh.html" target="_top" xlink:title=" ">
<polygon fill="white" stroke="#666666" points="1121.48,-140.62 986.23,-140.62 986.23,-119.88 1121.48,-119.88 1121.48,-140.62"/>
<text text-anchor="middle" x="1053.85" y="-127.12" font-family="Helvetica,sans-Serif" font-size="10.00">lix/libutil/suggestions.hh</text>
</a>
</g>
</g>
<!-- Node9&#45;&gt;Node13 -->
<g id="edge12_Node000009_Node000013" class="edge">
<title>Node9&#45;&gt;Node13</title>
<g id="a_edge12_Node000009_Node000013"><a xlink:title=" ">
<path fill="none" stroke="#63b8ff" d="M1082.39,-182.55C1077.65,-174.04 1070.65,-161.45 1064.77,-150.88"/>
<polygon fill="#63b8ff" stroke="#63b8ff" points="1067.84,-149.21 1059.92,-142.17 1061.73,-152.61 1067.84,-149.21"/>
</a>
</g>
</g>
<!-- Node20 -->
<g id="Node000020" class="node">
<title>Node20</title>
<g id="a_Node000020"><a xlink:href="libutil_2fmt_8hh.html" target="_top" xlink:title=" ">
<polygon fill="white" stroke="#666666" points="1233.85,-140.62 1139.85,-140.62 1139.85,-119.88 1233.85,-119.88 1233.85,-140.62"/>
<text text-anchor="middle" x="1186.85" y="-127.12" font-family="Helvetica,sans-Serif" font-size="10.00">lix/libutil/fmt.hh</text>
</a>
</g>
</g>
<!-- Node9&#45;&gt;Node20 -->
<g id="edge19_Node000009_Node000020" class="edge">
<title>Node9&#45;&gt;Node20</title>
<g id="a_edge19_Node000009_Node000020"><a xlink:title=" ">
<path fill="none" stroke="#63b8ff" d="M1103.76,-182.55C1119.27,-172.97 1143.13,-158.25 1161.3,-147.02"/>
<polygon fill="#63b8ff" stroke="#63b8ff" points="1163.03,-150.07 1169.7,-141.84 1159.35,-144.12 1163.03,-150.07"/>
</a>
</g>
</g>
<!-- Node24 -->
<g id="Node000024" class="node">
<title>Node24</title>
<g id="a_Node000024"><a xlink:title=" ">
<polygon fill="#e0e0e0" stroke="#999999" points="1301.35,-140.62 1252.35,-140.62 1252.35,-119.88 1301.35,-119.88 1301.35,-140.62"/>
<text text-anchor="middle" x="1276.85" y="-127.12" font-family="Helvetica,sans-Serif" font-size="10.00">cstring</text>
</a>
</g>
</g>
<!-- Node9&#45;&gt;Node24 -->
<g id="edge24_Node000009_Node000024" class="edge">
<title>Node9&#45;&gt;Node24</title>
<g id="a_edge24_Node000009_Node000024"><a xlink:title=" ">
<path fill="none" stroke="#63b8ff" d="M1127.24,-182.58C1158.88,-174.3 1204.26,-161.49 1242.85,-147 1244.01,-146.57 1245.18,-146.11 1246.36,-145.64"/>
<polygon fill="#63b8ff" stroke="#63b8ff" points="1247.74,-148.85 1255.54,-141.68 1244.97,-142.42 1247.74,-148.85"/>
</a>
</g>
</g>
<!-- Node25 -->
<g id="Node000025" class="node">
<title>Node25</title>
<g id="a_Node000025"><a xlink:title=" ">
<polygon fill="#e0e0e0" stroke="#999999" points="1350.35,-140.62 1319.35,-140.62 1319.35,-119.88 1350.35,-119.88 1350.35,-140.62"/>
<text text-anchor="middle" x="1334.85" y="-127.12" font-family="Helvetica,sans-Serif" font-size="10.00">list</text>
</a>
</g>
</g>
<!-- Node9&#45;&gt;Node25 -->
<g id="edge25_Node000009_Node000025" class="edge">
<title>Node9&#45;&gt;Node25</title>
<g id="a_edge25_Node000009_Node000025"><a xlink:title=" ">
<path fill="none" stroke="#63b8ff" d="M1137.91,-184.46C1193.72,-175.23 1280.16,-159.64 1310.85,-147 1311.33,-146.8 1311.82,-146.59 1312.3,-146.37"/>
<polygon fill="#63b8ff" stroke="#63b8ff" points="1313.81,-149.54 1320.83,-141.61 1310.39,-143.43 1313.81,-149.54"/>
</a>
</g>
</g>
<!-- Node9&#45;&gt;Node26 -->
<g id="edge26_Node000009_Node000026" class="edge">
<title>Node9&#45;&gt;Node26</title>
<g id="a_edge26_Node000009_Node000026"><a xlink:title=" ">
<path fill="none" stroke="#63b8ff" d="M1137.78,-184.86C1142.54,-184.2 1147.28,-183.57 1151.85,-183 1304.82,-163.82 1347.42,-184.91 1496.85,-147 1499.12,-146.42 1501.44,-145.74 1503.74,-144.98"/>
<polygon fill="#63b8ff" stroke="#63b8ff" points="1504.75,-148.34 1512.9,-141.56 1502.3,-141.78 1504.75,-148.34"/>
</a>
</g>
</g>
<!-- Node27 -->
<g id="Node000027" class="node">
<title>Node27</title>
<g id="a_Node000027"><a xlink:title=" ">
<polygon fill="#e0e0e0" stroke="#999999" points="1423.73,-140.62 1367.98,-140.62 1367.98,-119.88 1423.73,-119.88 1423.73,-140.62"/>
<text text-anchor="middle" x="1395.85" y="-127.12" font-family="Helvetica,sans-Serif" font-size="10.00">optional</text>
</a>
</g>
</g>
<!-- Node9&#45;&gt;Node27 -->
<g id="edge27_Node000009_Node000027" class="edge">
<title>Node9&#45;&gt;Node27</title>
<g id="a_edge27_Node000009_Node000027"><a xlink:title=" ">
<path fill="none" stroke="#63b8ff" d="M1137.96,-184.7C1210.65,-173.47 1339,-153.2 1359.85,-147 1361.69,-146.45 1363.57,-145.83 1365.44,-145.17"/>
<polygon fill="#63b8ff" stroke="#63b8ff" points="1366.59,-148.48 1374.59,-141.54 1364,-141.97 1366.59,-148.48"/>
</a>
</g>
</g>
<!-- Node9&#45;&gt;Node28 -->
<g id="edge28_Node000009_Node000028" class="edge">
<title>Node9&#45;&gt;Node28</title>
<g id="a_edge28_Node000009_Node000028"><a xlink:title=" ">
<path fill="none" stroke="#63b8ff" d="M1137.75,-187.79C1260.49,-176.5 1567.57,-148.17 1572.85,-147 1575.87,-146.33 1578.96,-145.51 1582.03,-144.6"/>
<polygon fill="#63b8ff" stroke="#63b8ff" points="1583.11,-147.93 1591.53,-141.5 1580.93,-141.28 1583.11,-147.93"/>
</a>
</g>
</g>
<!-- Node9&#45;&gt;Node29 -->
<g id="edge29_Node000009_Node000029" class="edge">
<title>Node9&#45;&gt;Node29</title>
<g id="a_edge29_Node000009_Node000029"><a xlink:title=" ">
<path fill="none" stroke="#63b8ff" d="M1037.98,-184.28C1034.89,-183.83 1031.83,-183.4 1028.85,-183 885.27,-163.63 845.63,-181.26 704.85,-147 702.22,-146.36 699.54,-145.6 696.86,-144.76"/>
<polygon fill="#63b8ff" stroke="#63b8ff" points="698.1,-141.48 687.5,-141.48 695.78,-148.09 698.1,-141.48"/>
</a>
</g>
</g>
<!-- Node30 -->
<g id="Node000030" class="node">
<title>Node30</title>
<g id="a_Node000030"><a xlink:title=" ">
<polygon fill="#e0e0e0" stroke="#999999" points="1488.23,-140.62 1441.48,-140.62 1441.48,-119.88 1488.23,-119.88 1488.23,-140.62"/>
<text text-anchor="middle" x="1464.85" y="-127.12" font-family="Helvetica,sans-Serif" font-size="10.00">fcntl.h</text>
</a>
</g>
</g>
<!-- Node9&#45;&gt;Node30 -->
<g id="edge30_Node000009_Node000030" class="edge">
<title>Node9&#45;&gt;Node30</title>
<g id="a_edge30_Node000009_Node000030"><a xlink:title=" ">
<path fill="none" stroke="#63b8ff" d="M1137.8,-184.97C1142.55,-184.29 1147.29,-183.63 1151.85,-183 1276.59,-165.87 1312.28,-183.29 1432.85,-147 1434.41,-146.53 1435.98,-145.99 1437.55,-145.41"/>
<polygon fill="#63b8ff" stroke="#63b8ff" points="1438.51,-148.8 1446.28,-141.6 1435.72,-142.39 1438.51,-148.8"/>
</a>
</g>
</g>
<!-- Node31 -->
<g id="Node000031" class="node">
<title>Node31</title>
<g id="a_Node000031"><a xlink:title=" ">
<polygon fill="#e0e0e0" stroke="#999999" points="794.1,-140.62 713.6,-140.62 713.6,-119.88 794.1,-119.88 794.1,-140.62"/>
<text text-anchor="middle" x="753.85" y="-127.12" font-family="Helvetica,sans-Serif" font-size="10.00">system_error</text>
</a>
</g>
</g>
<!-- Node9&#45;&gt;Node31 -->
<g id="edge31_Node000009_Node000031" class="edge">
<title>Node9&#45;&gt;Node31</title>
<g id="a_edge31_Node000009_Node000031"><a xlink:title=" ">
<path fill="none" stroke="#63b8ff" d="M1038.03,-184.46C956.53,-171.5 803.57,-147.17 802.85,-147 799.52,-146.21 796.1,-145.3 792.68,-144.33"/>
<polygon fill="#63b8ff" stroke="#63b8ff" points="793.92,-141.04 783.33,-141.51 791.9,-147.75 793.92,-141.04"/>
</a>
</g>
</g>
<!-- Node11 -->
<g id="Node000011" class="node">
<title>Node11</title>
<g id="a_Node000011"><a xlink:title=" ">
<polygon fill="#e0e0e0" stroke="#999999" points="752.6,-77.5 621.1,-77.5 621.1,-56.75 752.6,-56.75 752.6,-77.5"/>
<text text-anchor="middle" x="686.85" y="-64" font-family="Helvetica,sans-Serif" font-size="10.00">nlohmann/json_fwd.hpp</text>
</a>
</g>
</g>
<!-- Node10&#45;&gt;Node11 -->
<g id="edge10_Node000010_Node000011" class="edge">
<title>Node10&#45;&gt;Node11</title>
<g id="a_edge10_Node000010_Node000011"><a xlink:title=" ">
<path fill="none" stroke="#63b8ff" d="M841.29,-119.43C810.3,-109.14 761.43,-92.9 726.98,-81.46"/>
<polygon fill="#63b8ff" stroke="#63b8ff" points="728.37,-78.23 717.78,-78.4 726.16,-84.87 728.37,-78.23"/>
</a>
</g>
</g>
<!-- Node10&#45;&gt;Node12 -->
<g id="edge11_Node000010_Node000012" class="edge">
<title>Node10&#45;&gt;Node12</title>
<g id="a_edge11_Node000010_Node000012"><a xlink:title=" ">
<path fill="none" stroke="#63b8ff" d="M860.25,-119.43C850.37,-110.29 835.44,-96.45 823.56,-85.45"/>
<polygon fill="#63b8ff" stroke="#63b8ff" points="826.04,-82.98 816.32,-78.75 821.28,-88.11 826.04,-82.98"/>
</a>
</g>
</g>
<!-- Node14 -->
<g id="Node000014" class="node">
<title>Node14</title>
<g id="a_Node000014"><a xlink:href="comparator_8hh.html" target="_top" xlink:title=" ">
<polygon fill="white" stroke="#666666" points="1146.98,-77.5 1014.73,-77.5 1014.73,-56.75 1146.98,-56.75 1146.98,-77.5"/>
<text text-anchor="middle" x="1080.85" y="-64" font-family="Helvetica,sans-Serif" font-size="10.00">lix/libutil/comparator.hh</text>
</a>
</g>
</g>
<!-- Node13&#45;&gt;Node14 -->
<g id="edge13_Node000013_Node000014" class="edge">
<title>Node13&#45;&gt;Node14</title>
<g id="a_edge13_Node000013_Node000014"><a xlink:title=" ">
<path fill="none" stroke="#63b8ff" d="M1058.19,-119.43C1061.91,-111 1067.39,-98.59 1072.03,-88.09"/>
<polygon fill="#63b8ff" stroke="#63b8ff" points="1075.16,-89.67 1076,-79.1 1068.76,-86.84 1075.16,-89.67"/>
</a>
</g>
</g>
<!-- Node13&#45;&gt;Node16 -->
<g id="edge15_Node000013_Node000016" class="edge">
<title>Node13&#45;&gt;Node16</title>
<g id="a_edge15_Node000013_Node000016"><a xlink:title=" ">
<path fill="none" stroke="#63b8ff" d="M987.35,-119.39C971.48,-117.24 954.59,-115.13 938.85,-113.5 700.58,-88.82 411.31,-73.72 322.25,-69.41"/>
<polygon fill="#63b8ff" stroke="#63b8ff" points="322.48,-65.92 312.33,-68.93 322.15,-72.91 322.48,-65.92"/>
</a>
</g>
</g>
<!-- Node17 -->
<g id="Node000017" class="node">
<title>Node17</title>
<g id="a_Node000017"><a xlink:title=" ">
<polygon fill="#e0e0e0" stroke="#999999" points="928.98,-77.5 856.73,-77.5 856.73,-56.75 928.98,-56.75 928.98,-77.5"/>
<text text-anchor="middle" x="892.85" y="-64" font-family="Helvetica,sans-Serif" font-size="10.00">string_view</text>
</a>
</g>
</g>
<!-- Node13&#45;&gt;Node17 -->
<g id="edge16_Node000013_Node000017" class="edge">
<title>Node13&#45;&gt;Node17</title>
<g id="a_edge16_Node000013_Node000017"><a xlink:title=" ">
<path fill="none" stroke="#63b8ff" d="M1027.98,-119.43C1001.22,-109.27 959.22,-93.32 929.14,-81.9"/>
<polygon fill="#63b8ff" stroke="#63b8ff" points="930.66,-78.74 920.07,-78.46 928.18,-85.28 930.66,-78.74"/>
</a>
</g>
</g>
<!-- Node18 -->
<g id="Node000018" class="node">
<title>Node18</title>
<g id="a_Node000018"><a xlink:title=" ">
<polygon fill="#e0e0e0" stroke="#999999" points="1208.73,-77.5 1164.98,-77.5 1164.98,-56.75 1208.73,-56.75 1208.73,-77.5"/>
<text text-anchor="middle" x="1186.85" y="-64" font-family="Helvetica,sans-Serif" font-size="10.00">string</text>
</a>
</g>
</g>
<!-- Node13&#45;&gt;Node18 -->
<g id="edge17_Node000013_Node000018" class="edge">
<title>Node13&#45;&gt;Node18</title>
<g id="a_edge17_Node000013_Node000018"><a xlink:title=" ">
<path fill="none" stroke="#63b8ff" d="M1075.22,-119.43C1096.84,-109.49 1130.51,-94.02 1155.22,-82.66"/>
<polygon fill="#63b8ff" stroke="#63b8ff" points="1156.53,-85.91 1164.16,-78.55 1153.61,-79.55 1156.53,-85.91"/>
</a>
</g>
</g>
<!-- Node19 -->
<g id="Node000019" class="node">
<title>Node19</title>
<g id="a_Node000019"><a xlink:title=" ">
<polygon fill="#e0e0e0" stroke="#999999" points="997.1,-77.5 946.6,-77.5 946.6,-56.75 997.1,-56.75 997.1,-77.5"/>
<text text-anchor="middle" x="971.85" y="-64" font-family="Helvetica,sans-Serif" font-size="10.00">variant</text>
</a>
</g>
</g>
<!-- Node13&#45;&gt;Node19 -->
<g id="edge18_Node000013_Node000019" class="edge">
<title>Node13&#45;&gt;Node19</title>
<g id="a_edge18_Node000013_Node000019"><a xlink:title=" ">
<path fill="none" stroke="#63b8ff" d="M1040.68,-119.43C1028.12,-110.07 1008.98,-95.8 994.07,-84.69"/>
<polygon fill="#63b8ff" stroke="#63b8ff" points="996.32,-82 986.21,-78.83 992.13,-87.61 996.32,-82"/>
</a>
</g>
</g>
<!-- Node15 -->
<g id="Node000015" class="node">
<title>Node15</title>
<g id="a_Node000015"><a xlink:title=" ">
<polygon fill="#e0e0e0" stroke="#999999" points="1101.23,-20.75 1060.48,-20.75 1060.48,0 1101.23,0 1101.23,-20.75"/>
<text text-anchor="middle" x="1080.85" y="-7.25" font-family="Helvetica,sans-Serif" font-size="10.00">tuple</text>
</a>
</g>
</g>
<!-- Node14&#45;&gt;Node15 -->
<g id="edge14_Node000014_Node000015" class="edge">
<title>Node14&#45;&gt;Node15</title>
<g id="a_edge14_Node000014_Node000015"><a xlink:title=" ">
<path fill="none" stroke="#63b8ff" d="M1080.85,-56.34C1080.85,-49.72 1080.85,-40.72 1080.85,-32.52"/>
<polygon fill="#63b8ff" stroke="#63b8ff" points="1084.35,-32.59 1080.85,-22.59 1077.35,-32.59 1084.35,-32.59"/>
</a>
</g>
</g>
<!-- Node20&#45;&gt;Node18 -->
<g id="edge21_Node000020_Node000018" class="edge">
<title>Node20&#45;&gt;Node18</title>
<g id="a_edge21_Node000020_Node000018"><a xlink:title=" ">
<path fill="none" stroke="#63b8ff" d="M1186.85,-119.43C1186.85,-111.27 1186.85,-99.38 1186.85,-89.1"/>
<polygon fill="#63b8ff" stroke="#63b8ff" points="1190.35,-89.23 1186.85,-79.23 1183.35,-89.23 1190.35,-89.23"/>
</a>
</g>
</g>
<!-- Node21 -->
<g id="Node000021" class="node">
<title>Node21</title>
<g id="a_Node000021"><a xlink:title=" ">
<polygon fill="#e0e0e0" stroke="#999999" points="1542.6,-77.5 1483.1,-77.5 1483.1,-56.75 1542.6,-56.75 1542.6,-77.5"/>
<text text-anchor="middle" x="1512.85" y="-64" font-family="Helvetica,sans-Serif" font-size="10.00">iostream</text>
</a>
</g>
</g>
<!-- Node20&#45;&gt;Node21 -->
<g id="edge20_Node000020_Node000021" class="edge">
<title>Node20&#45;&gt;Node21</title>
<g id="a_edge20_Node000020_Node000021"><a xlink:title=" ">
<path fill="none" stroke="#63b8ff" d="M1219.85,-119.44C1227.67,-117.31 1236.02,-115.19 1243.85,-113.5 1341.53,-92.43 1370.4,-97.24 1471.64,-77.79"/>
<polygon fill="#63b8ff" stroke="#63b8ff" points="1472.04,-81.28 1481.18,-75.92 1470.7,-74.41 1472.04,-81.28"/>
</a>
</g>
</g>
<!-- Node22 -->
<g id="Node000022" class="node">
<title>Node22</title>
<g id="a_Node000022"><a xlink:title=" ">
<polygon fill="#e0e0e0" stroke="#999999" points="1326.85,-77.5 1226.85,-77.5 1226.85,-56.75 1326.85,-56.75 1326.85,-77.5"/>
<text text-anchor="middle" x="1276.85" y="-64" font-family="Helvetica,sans-Serif" font-size="10.00">boost/format.hpp</text>
</a>
</g>
</g>
<!-- Node20&#45;&gt;Node22 -->
<g id="edge22_Node000020_Node000022" class="edge">
<title>Node20&#45;&gt;Node22</title>
<g id="a_edge22_Node000020_Node000022"><a xlink:title=" ">
<path fill="none" stroke="#63b8ff" d="M1201.31,-119.43C1215.22,-109.98 1236.5,-95.53 1252.93,-84.37"/>
<polygon fill="#63b8ff" stroke="#63b8ff" points="1254.87,-87.29 1261.17,-78.77 1250.94,-81.49 1254.87,-87.29"/>
</a>
</g>
</g>
<!-- Node23 -->
<g id="Node000023" class="node">
<title>Node23</title>
<g id="a_Node000023"><a xlink:href="ansicolor_8hh.html" target="_top" xlink:title="Some ANSI escape sequences.">
<polygon fill="white" stroke="#666666" points="1464.98,-77.5 1344.73,-77.5 1344.73,-56.75 1464.98,-56.75 1464.98,-77.5"/>
<text text-anchor="middle" x="1404.85" y="-64" font-family="Helvetica,sans-Serif" font-size="10.00">lix/libutil/ansicolor.hh</text>
</a>
</g>
</g>
<!-- Node20&#45;&gt;Node23 -->
<g id="edge23_Node000020_Node000023" class="edge">
<title>Node20&#45;&gt;Node23</title>
<g id="a_edge23_Node000020_Node000023"><a xlink:title=" ">
<path fill="none" stroke="#63b8ff" d="M1221.88,-119.43C1259.06,-109 1317.99,-92.48 1358.89,-81.01"/>
<polygon fill="#63b8ff" stroke="#63b8ff" points="1359.77,-84.4 1368.45,-78.33 1357.88,-77.66 1359.77,-84.4"/>
</a>
</g>
</g>
</g>
</svg>
