<?xml version="1.0" encoding="UTF-8" standalone="no"?>
<!DOCTYPE svg PUBLIC "-//W3C//DTD SVG 1.1//EN"
 "http://www.w3.org/Graphics/SVG/1.1/DTD/svg11.dtd">
<!-- Generated by graphviz version 12.2.1 (0)
 -->
<!-- Title: lix/libstore/common&#45;protocol.hh Pages: 1 -->
<svg width="491pt" height="250pt"
 viewBox="0.00 0.00 490.62 250.00" xmlns="http://www.w3.org/2000/svg" xmlns:xlink="http://www.w3.org/1999/xlink">
<g id="graph0" class="graph" transform="scale(1 1) rotate(0) translate(4 246)">
<title>lix/libstore/common&#45;protocol.hh</title>
<!-- Node1 -->
<g id="Node000001" class="node">
<title>Node1</title>
<g id="a_Node000001"><a xlink:title=" ">
<polygon fill="#999999" stroke="#666666" points="237.5,-242 124,-242 124,-208.5 237.5,-208.5 237.5,-242"/>
<text text-anchor="start" x="132" y="-228.5" font-family="Helvetica,sans-Serif" font-size="10.00">lix/libstore/common</text>
<text text-anchor="middle" x="180.75" y="-215.75" font-family="Helvetica,sans-Serif" font-size="10.00">&#45;protocol.hh</text>
</a>
</g>
</g>
<!-- Node2 -->
<g id="Node000002" class="node">
<title>Node2</title>
<g id="a_Node000002"><a xlink:href="common-protocol-impl_8hh.html" target="_top" xlink:title=" ">
<polygon fill="white" stroke="#666666" points="113.5,-172.5 0,-172.5 0,-139 113.5,-139 113.5,-172.5"/>
<text text-anchor="start" x="8" y="-159" font-family="Helvetica,sans-Serif" font-size="10.00">lix/libstore/common</text>
<text text-anchor="middle" x="56.75" y="-146.25" font-family="Helvetica,sans-Serif" font-size="10.00">&#45;protocol&#45;impl.hh</text>
</a>
</g>
</g>
<!-- Node1&#45;&gt;Node2 -->
<g id="edge1_Node000001_Node000002" class="edge">
<title>Node1&#45;&gt;Node2</title>
<g id="a_edge1_Node000001_Node000002"><a xlink:title=" ">
<path fill="none" stroke="#63b8ff" d="M140.96,-202.59C123.17,-192.91 102.58,-181.7 86.21,-172.79"/>
<polygon fill="#63b8ff" stroke="#63b8ff" points="139.26,-205.65 149.72,-207.36 142.61,-199.5 139.26,-205.65"/>
</a>
</g>
</g>
<!-- Node3 -->
<g id="Node000003" class="node">
<title>Node3</title>
<g id="a_Node000003"><a xlink:href="serve-protocol_8hh.html" target="_top" xlink:title=" ">
<polygon fill="white" stroke="#666666" points="229.62,-172.5 131.88,-172.5 131.88,-139 229.62,-139 229.62,-172.5"/>
<text text-anchor="start" x="139.88" y="-159" font-family="Helvetica,sans-Serif" font-size="10.00">lix/libstore/serve</text>
<text text-anchor="middle" x="180.75" y="-146.25" font-family="Helvetica,sans-Serif" font-size="10.00">&#45;protocol.hh</text>
</a>
</g>
</g>
<!-- Node1&#45;&gt;Node3 -->
<g id="edge2_Node000001_Node000003" class="edge">
<title>Node1&#45;&gt;Node3</title>
<g id="a_edge2_Node000001_Node000003"><a xlink:title=" ">
<path fill="none" stroke="#63b8ff" d="M180.75,-196.81C180.75,-188.59 180.75,-179.84 180.75,-172.63"/>
<polygon fill="#63b8ff" stroke="#63b8ff" points="177.25,-196.74 180.75,-206.74 184.25,-196.74 177.25,-196.74"/>
</a>
</g>
</g>
<!-- Node5 -->
<g id="Node000005" class="node">
<title>Node5</title>
<g id="a_Node000005"><a xlink:href="worker-protocol_8hh.html" target="_top" xlink:title=" ">
<polygon fill="white" stroke="#666666" points="354.62,-172.5 250.88,-172.5 250.88,-139 354.62,-139 354.62,-172.5"/>
<text text-anchor="start" x="258.88" y="-159" font-family="Helvetica,sans-Serif" font-size="10.00">lix/libstore/worker</text>
<text text-anchor="middle" x="302.75" y="-146.25" font-family="Helvetica,sans-Serif" font-size="10.00">&#45;protocol.hh</text>
</a>
</g>
</g>
<!-- Node1&#45;&gt;Node5 -->
<g id="edge4_Node000001_Node000005" class="edge">
<title>Node1&#45;&gt;Node5</title>
<g id="a_edge4_Node000001_Node000005"><a xlink:title=" ">
<path fill="none" stroke="#63b8ff" d="M219.9,-202.59C237.4,-192.91 257.66,-181.7 273.77,-172.79"/>
<polygon fill="#63b8ff" stroke="#63b8ff" points="218.35,-199.45 211.3,-207.35 221.74,-205.57 218.35,-199.45"/>
</a>
</g>
</g>
<!-- Node4 -->
<g id="Node000004" class="node">
<title>Node4</title>
<g id="a_Node000004"><a xlink:href="serve-protocol-impl_8hh.html" target="_top" xlink:title=" ">
<polygon fill="white" stroke="#666666" points="226.75,-103 126.75,-103 126.75,-69.5 226.75,-69.5 226.75,-103"/>
<text text-anchor="start" x="134.75" y="-89.5" font-family="Helvetica,sans-Serif" font-size="10.00">lix/libstore/serve</text>
<text text-anchor="middle" x="176.75" y="-76.75" font-family="Helvetica,sans-Serif" font-size="10.00">&#45;protocol&#45;impl.hh</text>
</a>
</g>
</g>
<!-- Node3&#45;&gt;Node4 -->
<g id="edge3_Node000003_Node000004" class="edge">
<title>Node3&#45;&gt;Node4</title>
<g id="a_edge3_Node000003_Node000004"><a xlink:title=" ">
<path fill="none" stroke="#63b8ff" d="M179.12,-127.31C178.64,-119.09 178.12,-110.34 177.69,-103.13"/>
<polygon fill="#63b8ff" stroke="#63b8ff" points="175.63,-127.47 179.71,-137.24 182.61,-127.05 175.63,-127.47"/>
</a>
</g>
</g>
<!-- Node6 -->
<g id="Node000006" class="node">
<title>Node6</title>
<g id="a_Node000006"><a xlink:href="remote-store-connection_8hh.html" target="_top" xlink:title=" ">
<polygon fill="white" stroke="#666666" points="361,-103 244.5,-103 244.5,-69.5 361,-69.5 361,-103"/>
<text text-anchor="start" x="252.5" y="-89.5" font-family="Helvetica,sans-Serif" font-size="10.00">lix/libstore/remote</text>
<text text-anchor="middle" x="302.75" y="-76.75" font-family="Helvetica,sans-Serif" font-size="10.00">&#45;store&#45;connection.hh</text>
</a>
</g>
</g>
<!-- Node5&#45;&gt;Node6 -->
<g id="edge5_Node000005_Node000006" class="edge">
<title>Node5&#45;&gt;Node6</title>
<g id="a_edge5_Node000005_Node000006"><a xlink:title=" ">
<path fill="none" stroke="#63b8ff" d="M302.75,-127.31C302.75,-119.09 302.75,-110.34 302.75,-103.13"/>
<polygon fill="#63b8ff" stroke="#63b8ff" points="299.25,-127.24 302.75,-137.24 306.25,-127.24 299.25,-127.24"/>
</a>
</g>
</g>
<!-- Node9 -->
<g id="Node000009" class="node">
<title>Node9</title>
<g id="a_Node000009"><a xlink:href="worker-protocol-impl_8hh.html" target="_top" xlink:title=" ">
<polygon fill="white" stroke="#666666" points="482.62,-103 378.88,-103 378.88,-69.5 482.62,-69.5 482.62,-103"/>
<text text-anchor="start" x="386.88" y="-89.5" font-family="Helvetica,sans-Serif" font-size="10.00">lix/libstore/worker</text>
<text text-anchor="middle" x="430.75" y="-76.75" font-family="Helvetica,sans-Serif" font-size="10.00">&#45;protocol&#45;impl.hh</text>
</a>
</g>
</g>
<!-- Node5&#45;&gt;Node9 -->
<g id="edge8_Node000005_Node000009" class="edge">
<title>Node5&#45;&gt;Node9</title>
<g id="a_edge8_Node000005_Node000009"><a xlink:title=" ">
<path fill="none" stroke="#63b8ff" d="M343.57,-133.22C361.99,-123.51 383.36,-112.24 400.34,-103.29"/>
<polygon fill="#63b8ff" stroke="#63b8ff" points="341.96,-130.12 334.75,-137.88 345.23,-136.31 341.96,-130.12"/>
</a>
</g>
</g>
<!-- Node7 -->
<g id="Node000007" class="node">
<title>Node7</title>
<g id="a_Node000007"><a xlink:href="uds-remote-store_8hh.html" target="_top" xlink:title=" ">
<polygon fill="white" stroke="#666666" points="299.25,-33.5 172.25,-33.5 172.25,0 299.25,0 299.25,-33.5"/>
<text text-anchor="start" x="180.25" y="-20" font-family="Helvetica,sans-Serif" font-size="10.00">lix/libstore/uds&#45;remote</text>
<text text-anchor="middle" x="235.75" y="-7.25" font-family="Helvetica,sans-Serif" font-size="10.00">&#45;store.hh</text>
</a>
</g>
</g>
<!-- Node6&#45;&gt;Node7 -->
<g id="edge6_Node000006_Node000007" class="edge">
<title>Node6&#45;&gt;Node7</title>
<g id="a_edge6_Node000006_Node000007"><a xlink:title=" ">
<path fill="none" stroke="#63b8ff" d="M278.9,-61.22C269.8,-52.06 259.67,-41.85 251.51,-33.63"/>
<polygon fill="#63b8ff" stroke="#63b8ff" points="276.28,-63.55 285.81,-68.18 281.24,-58.62 276.28,-63.55"/>
</a>
</g>
</g>
<!-- Node8 -->
<g id="Node000008" class="node">
<title>Node8</title>
<g id="a_Node000008"><a xlink:href="nix_2daemon_8cc.html" target="_top" xlink:title=" ">
<polygon fill="white" stroke="#666666" points="419.88,-27.12 317.62,-27.12 317.62,-6.38 419.88,-6.38 419.88,-27.12"/>
<text text-anchor="middle" x="368.75" y="-13.62" font-family="Helvetica,sans-Serif" font-size="10.00">lix/nix/daemon.cc</text>
</a>
</g>
</g>
<!-- Node6&#45;&gt;Node8 -->
<g id="edge7_Node000006_Node000008" class="edge">
<title>Node6&#45;&gt;Node8</title>
<g id="a_edge7_Node000006_Node000008"><a xlink:title=" ">
<path fill="none" stroke="#63b8ff" d="M326.27,-61.2C337.59,-49.61 350.55,-36.36 359.15,-27.57"/>
<polygon fill="#63b8ff" stroke="#63b8ff" points="323.94,-58.57 319.45,-68.17 328.94,-63.47 323.94,-58.57"/>
</a>
</g>
</g>
</g>
</svg>
