<?xml version="1.0" encoding="UTF-8" standalone="no"?>
<!DOCTYPE svg PUBLIC "-//W3C//DTD SVG 1.1//EN"
 "http://www.w3.org/Graphics/SVG/1.1/DTD/svg11.dtd">
<!-- Generated by graphviz version 12.2.1 (0)
 -->
<!-- Title: lix/libexpr Pages: 1 -->
<svg width="271pt" height="203pt"
 viewBox="0.00 0.00 271.00 203.00" xmlns="http://www.w3.org/2000/svg" xmlns:xlink="http://www.w3.org/1999/xlink">
<g id="graph0" class="graph" transform="scale(1 1) rotate(0) translate(4 199)">
<title>lix/libexpr</title>
<g id="clust1" class="cluster">
<title>clusterdir_aa82b8e09e8257f3398fbc82d9d0d95b</title>
<g id="a_clust1"><a xlink:href="dir_aa82b8e09e8257f3398fbc82d9d0d95b.html" target="_top" xlink:title="lix">
<polygon fill="#faeff6" stroke="#404040" stroke-dasharray="5,2" points="8,-8 8,-187 255,-187 255,-8 8,-8"/>
<text text-anchor="middle" x="131.5" y="-173.5" font-family="Helvetica,sans-Serif" font-size="10.00">lix</text>
</a>
</g>
</g>
<g id="clust2" class="cluster">
<title>clusterdir_553ef4c1bea3f132236f64cbb9a1869d</title>
<g id="a_clust2"><a xlink:href="dir_553ef4c1bea3f132236f64cbb9a1869d.html" target="_top">
<polygon fill="#faeff6" stroke="#404040" stroke-width="2" points="98,-64.75 98,-158.25 215,-158.25 215,-64.75 98,-64.75"/>
</a>
</g>
</g>
<!-- dir_4bad8347ac63b4c6078b8cbd4af67620 -->
<g id="node1" class="node">
<title>dir_4bad8347ac63b4c6078b8cbd4af67620</title>
<g id="a_node1"><a xlink:href="dir_4bad8347ac63b4c6078b8cbd4af67620.html" target="_top" xlink:title="libmain">
<polygon fill="#e7afd1" stroke="#404040" points="88.38,-93.5 35.62,-93.5 35.62,-72.75 88.38,-72.75 88.38,-93.5"/>
<text text-anchor="middle" x="62" y="-80" font-family="Helvetica,sans-Serif" font-size="10.00">libmain</text>
</a>
</g>
</g>
<!-- dir_b082754907569dd54f8877805f0295e9 -->
<g id="node2" class="node">
<title>dir_b082754907569dd54f8877805f0295e9</title>
<g id="a_node2"><a xlink:href="dir_b082754907569dd54f8877805f0295e9.html" target="_top" xlink:title="libutil">
<polygon fill="#e7afd1" stroke="#404040" points="90.88,-36.75 47.12,-36.75 47.12,-16 90.88,-16 90.88,-36.75"/>
<text text-anchor="middle" x="69" y="-23.25" font-family="Helvetica,sans-Serif" font-size="10.00">libutil</text>
</a>
</g>
</g>
<!-- dir_c61249f5a961b29df4e720bc72eba688 -->
<g id="node3" class="node">
<title>dir_c61249f5a961b29df4e720bc72eba688</title>
<g id="a_node3"><a xlink:href="dir_c61249f5a961b29df4e720bc72eba688.html" target="_top" xlink:title="libstore">
<polygon fill="#e7afd1" stroke="red" points="161.38,-36.75 108.62,-36.75 108.62,-16 161.38,-16 161.38,-36.75"/>
<text text-anchor="middle" x="135" y="-23.25" font-family="Helvetica,sans-Serif" font-size="10.00">libstore</text>
</a>
</g>
</g>
<!-- dir_fa2baa4da05d348e191c544f8ad53720 -->
<g id="node4" class="node">
<title>dir_fa2baa4da05d348e191c544f8ad53720</title>
<g id="a_node4"><a xlink:href="dir_fa2baa4da05d348e191c544f8ad53720.html" target="_top" xlink:title="libfetchers">
<polygon fill="#e7afd1" stroke="#404040" points="246.88,-36.75 179.12,-36.75 179.12,-16 246.88,-16 246.88,-36.75"/>
<text text-anchor="middle" x="213" y="-23.25" font-family="Helvetica,sans-Serif" font-size="10.00">libfetchers</text>
</a>
</g>
</g>
<!-- dir_553ef4c1bea3f132236f64cbb9a1869d -->
<g id="node5" class="node">
<title>dir_553ef4c1bea3f132236f64cbb9a1869d</title>
<text text-anchor="middle" x="156" y="-136.75" font-family="Helvetica,sans-Serif" font-size="10.00">libexpr</text>
</g>
<!-- dir_553ef4c1bea3f132236f64cbb9a1869d&#45;&gt;dir_4bad8347ac63b4c6078b8cbd4af67620 -->
<g id="edge1" class="edge">
<title>dir_553ef4c1bea3f132236f64cbb9a1869d&#45;&gt;dir_4bad8347ac63b4c6078b8cbd4af67620</title>
<g id="a_edge1"><a xlink:href="dir_000004_000007.html" target="_top">
<path fill="none" stroke="#63b8ff" d="M140.05,-129.59C125.91,-121.35 104.98,-109.16 88.36,-99.48"/>
<polygon fill="#63b8ff" stroke="#63b8ff" points="90.37,-96.6 79.97,-94.59 86.85,-102.65 90.37,-96.6"/>
</a>
</g>
<g id="a_edge1&#45;headlabel"><a xlink:href="dir_000004_000007.html" target="_top" xlink:title="1">
<text text-anchor="middle" x="93.6" y="-92.07" font-family="Helvetica,sans-Serif" font-size="10.00" fill="#63b8ff">1</text>
</a>
</g>
</g>
<!-- dir_553ef4c1bea3f132236f64cbb9a1869d&#45;&gt;dir_b082754907569dd54f8877805f0295e9 -->
<g id="edge4" class="edge">
<title>dir_553ef4c1bea3f132236f64cbb9a1869d&#45;&gt;dir_b082754907569dd54f8877805f0295e9</title>
<g id="a_edge4"><a xlink:href="dir_000004_000010.html" target="_top">
<path fill="none" stroke="#63b8ff" d="M131.34,-138.21C101.01,-135.9 50.67,-126.92 27,-93.5 19.61,-83.07 21.77,-76.41 27,-64.75 30.57,-56.79 36.77,-49.83 43.32,-44.15"/>
<polygon fill="#63b8ff" stroke="#63b8ff" points="45.31,-47.03 51.07,-38.14 41.02,-41.5 45.31,-47.03"/>
</a>
</g>
<g id="a_edge4&#45;headlabel"><a xlink:href="dir_000004_000010.html" target="_top" xlink:title="73">
<text text-anchor="middle" x="45.41" y="-47.43" font-family="Helvetica,sans-Serif" font-size="10.00" fill="#63b8ff">73</text>
</a>
</g>
</g>
<!-- dir_553ef4c1bea3f132236f64cbb9a1869d&#45;&gt;dir_c61249f5a961b29df4e720bc72eba688 -->
<g id="edge5" class="edge">
<title>dir_553ef4c1bea3f132236f64cbb9a1869d&#45;&gt;dir_c61249f5a961b29df4e720bc72eba688</title>
<g id="a_edge5"><a xlink:href="dir_000004_000008.html" target="_top">
<path fill="none" stroke="#63b8ff" d="M176.48,-129.61C190.43,-122.08 207.8,-109.99 216,-93.5 221.69,-82.06 222.89,-75.51 216,-64.75 210.73,-56.52 190.97,-47.32 172.28,-40.1"/>
<polygon fill="#63b8ff" stroke="#63b8ff" points="173.53,-36.84 162.94,-36.64 171.1,-43.4 173.53,-36.84"/>
</a>
</g>
<g id="a_edge5&#45;headlabel"><a xlink:href="dir_000004_000008.html" target="_top" xlink:title="29">
<text text-anchor="middle" x="176.47" y="-31.77" font-family="Helvetica,sans-Serif" font-size="10.00" fill="#63b8ff">29</text>
</a>
</g>
</g>
<!-- dir_553ef4c1bea3f132236f64cbb9a1869d&#45;&gt;dir_fa2baa4da05d348e191c544f8ad53720 -->
<g id="edge6" class="edge">
<title>dir_553ef4c1bea3f132236f64cbb9a1869d&#45;&gt;dir_fa2baa4da05d348e191c544f8ad53720</title>
<g id="a_edge6"><a xlink:href="dir_000004_000006.html" target="_top">
<path fill="none" stroke="#63b8ff" d="M180.13,-129.6C195.43,-122.3 213.98,-110.5 223,-93.5 230.57,-79.24 226.96,-60.96 222.09,-47.23"/>
<polygon fill="#63b8ff" stroke="#63b8ff" points="225.49,-46.31 218.49,-38.37 219.01,-48.95 225.49,-46.31"/>
</a>
</g>
<g id="a_edge6&#45;headlabel"><a xlink:href="dir_000004_000006.html" target="_top" xlink:title="8">
<text text-anchor="middle" x="228.91" y="-44.05" font-family="Helvetica,sans-Serif" font-size="10.00" fill="#63b8ff">8</text>
</a>
</g>
</g>
<!-- dir_695350ba44c510a09598c336d10cc0c0 -->
<g id="node6" class="node">
<title>dir_695350ba44c510a09598c336d10cc0c0</title>
<g id="a_node6"><a xlink:href="dir_695350ba44c510a09598c336d10cc0c0.html" target="_top" xlink:title="flake">
<polygon fill="#e7afd1" stroke="#404040" points="206.62,-93.5 167.38,-93.5 167.38,-72.75 206.62,-72.75 206.62,-93.5"/>
<text text-anchor="middle" x="187" y="-80" font-family="Helvetica,sans-Serif" font-size="10.00">flake</text>
</a>
</g>
</g>
<!-- dir_553ef4c1bea3f132236f64cbb9a1869d&#45;&gt;dir_695350ba44c510a09598c336d10cc0c0 -->
<g id="edge2" class="edge">
<title>dir_553ef4c1bea3f132236f64cbb9a1869d&#45;&gt;dir_695350ba44c510a09598c336d10cc0c0</title>
<g id="a_edge2"><a xlink:href="dir_000004_000002.html" target="_top">
<path fill="none" stroke="#63b8ff" d="M161.12,-129.83C165.13,-122.75 170.85,-112.64 175.9,-103.73"/>
<polygon fill="#63b8ff" stroke="#63b8ff" points="178.93,-105.48 180.81,-95.05 172.84,-102.03 178.93,-105.48"/>
</a>
</g>
<g id="a_edge2&#45;headlabel"><a xlink:href="dir_000004_000002.html" target="_top" xlink:title="1">
<text text-anchor="middle" x="180.38" y="-105.56" font-family="Helvetica,sans-Serif" font-size="10.00" fill="#63b8ff">1</text>
</a>
</g>
</g>
<!-- dir_926d0ca00f7765769f70a44fbf50973a -->
<g id="node7" class="node">
<title>dir_926d0ca00f7765769f70a44fbf50973a</title>
<g id="a_node7"><a xlink:href="dir_926d0ca00f7765769f70a44fbf50973a.html" target="_top" xlink:title="value">
<polygon fill="#e7afd1" stroke="#404040" points="149.5,-93.5 106.5,-93.5 106.5,-72.75 149.5,-72.75 149.5,-93.5"/>
<text text-anchor="middle" x="128" y="-80" font-family="Helvetica,sans-Serif" font-size="10.00">value</text>
</a>
</g>
</g>
<!-- dir_553ef4c1bea3f132236f64cbb9a1869d&#45;&gt;dir_926d0ca00f7765769f70a44fbf50973a -->
<g id="edge3" class="edge">
<title>dir_553ef4c1bea3f132236f64cbb9a1869d&#45;&gt;dir_926d0ca00f7765769f70a44fbf50973a</title>
<g id="a_edge3"><a xlink:href="dir_000004_000016.html" target="_top">
<path fill="none" stroke="#63b8ff" d="M151.38,-129.83C147.75,-122.75 142.58,-112.64 138.02,-103.73"/>
<polygon fill="#63b8ff" stroke="#63b8ff" points="141.27,-102.39 133.6,-95.08 135.04,-105.58 141.27,-102.39"/>
</a>
</g>
<g id="a_edge3&#45;headlabel"><a xlink:href="dir_000004_000016.html" target="_top" xlink:title="1">
<text text-anchor="middle" x="144.75" y="-99.82" font-family="Helvetica,sans-Serif" font-size="10.00" fill="#63b8ff">1</text>
</a>
</g>
</g>
<!-- dir_695350ba44c510a09598c336d10cc0c0&#45;&gt;dir_b082754907569dd54f8877805f0295e9 -->
<g id="edge7" class="edge">
<title>dir_695350ba44c510a09598c336d10cc0c0&#45;&gt;dir_b082754907569dd54f8877805f0295e9</title>
<g id="a_edge7"><a xlink:href="dir_000002_000010.html" target="_top">
<path fill="none" stroke="#63b8ff" d="M172.15,-72.29C167.97,-69.7 163.38,-67 159,-64.75 140.61,-55.3 119.26,-46.36 101.97,-39.59"/>
<polygon fill="#63b8ff" stroke="#63b8ff" points="103.28,-36.34 92.69,-36.01 100.76,-42.87 103.28,-36.34"/>
</a>
</g>
<g id="a_edge7&#45;headlabel"><a xlink:href="dir_000002_000010.html" target="_top" xlink:title="13">
<text text-anchor="middle" x="106.24" y="-31.31" font-family="Helvetica,sans-Serif" font-size="10.00" fill="#63b8ff">13</text>
</a>
</g>
</g>
<!-- dir_695350ba44c510a09598c336d10cc0c0&#45;&gt;dir_c61249f5a961b29df4e720bc72eba688 -->
<g id="edge8" class="edge">
<title>dir_695350ba44c510a09598c336d10cc0c0&#45;&gt;dir_c61249f5a961b29df4e720bc72eba688</title>
<g id="a_edge8"><a xlink:href="dir_000002_000008.html" target="_top">
<path fill="none" stroke="#63b8ff" d="M177.7,-72.34C170.6,-64.86 160.63,-54.36 152.1,-45.38"/>
<polygon fill="#63b8ff" stroke="#63b8ff" points="154.68,-43.02 145.26,-38.18 149.61,-47.84 154.68,-43.02"/>
</a>
</g>
<g id="a_edge8&#45;headlabel"><a xlink:href="dir_000002_000008.html" target="_top" xlink:title="4">
<text text-anchor="middle" x="158.17" y="-39.45" font-family="Helvetica,sans-Serif" font-size="10.00" fill="#63b8ff">4</text>
</a>
</g>
</g>
<!-- dir_695350ba44c510a09598c336d10cc0c0&#45;&gt;dir_fa2baa4da05d348e191c544f8ad53720 -->
<g id="edge9" class="edge">
<title>dir_695350ba44c510a09598c336d10cc0c0&#45;&gt;dir_fa2baa4da05d348e191c544f8ad53720</title>
<g id="a_edge9"><a xlink:href="dir_000002_000006.html" target="_top">
<path fill="none" stroke="#63b8ff" d="M191.65,-72.34C194.94,-65.41 199.47,-55.87 203.51,-47.36"/>
<polygon fill="#63b8ff" stroke="#63b8ff" points="206.61,-48.98 207.74,-38.45 200.29,-45.98 206.61,-48.98"/>
</a>
</g>
<g id="a_edge9&#45;headlabel"><a xlink:href="dir_000002_000006.html" target="_top" xlink:title="6">
<text text-anchor="middle" x="208.29" y="-48.95" font-family="Helvetica,sans-Serif" font-size="10.00" fill="#63b8ff">6</text>
</a>
</g>
</g>
<!-- dir_926d0ca00f7765769f70a44fbf50973a&#45;&gt;dir_b082754907569dd54f8877805f0295e9 -->
<g id="edge10" class="edge">
<title>dir_926d0ca00f7765769f70a44fbf50973a&#45;&gt;dir_b082754907569dd54f8877805f0295e9</title>
<g id="a_edge10"><a xlink:href="dir_000016_000010.html" target="_top">
<path fill="none" stroke="#63b8ff" d="M117.45,-72.34C109.23,-64.71 97.6,-53.92 87.8,-44.82"/>
<polygon fill="#63b8ff" stroke="#63b8ff" points="90.28,-42.34 80.57,-38.11 85.52,-47.48 90.28,-42.34"/>
</a>
</g>
<g id="a_edge10&#45;headlabel"><a xlink:href="dir_000016_000010.html" target="_top" xlink:title="2">
<text text-anchor="middle" x="93.73" y="-38.55" font-family="Helvetica,sans-Serif" font-size="10.00" fill="#63b8ff">2</text>
</a>
</g>
</g>
<!-- dir_926d0ca00f7765769f70a44fbf50973a&#45;&gt;dir_c61249f5a961b29df4e720bc72eba688 -->
<g id="edge11" class="edge">
<title>dir_926d0ca00f7765769f70a44fbf50973a&#45;&gt;dir_c61249f5a961b29df4e720bc72eba688</title>
<g id="a_edge11"><a xlink:href="dir_000016_000008.html" target="_top">
<path fill="none" stroke="#63b8ff" d="M129.25,-72.34C130.11,-65.64 131.27,-56.51 132.33,-48.23"/>
<polygon fill="#63b8ff" stroke="#63b8ff" points="135.77,-48.94 133.57,-38.58 128.83,-48.06 135.77,-48.94"/>
</a>
</g>
<g id="a_edge11&#45;headlabel"><a xlink:href="dir_000016_000008.html" target="_top" xlink:title="1">
<text text-anchor="middle" x="138.32" y="-48.24" font-family="Helvetica,sans-Serif" font-size="10.00" fill="#63b8ff">1</text>
</a>
</g>
</g>
</g>
</svg>
