<?xml version="1.0" encoding="UTF-8" standalone="no"?>
<!DOCTYPE svg PUBLIC "-//W3C//DTD SVG 1.1//EN"
 "http://www.w3.org/Graphics/SVG/1.1/DTD/svg11.dtd">
<!-- Generated by graphviz version 12.2.1 (0)
 -->
<!-- Title: lix/libstore Pages: 1 -->
<svg width="140pt" height="260pt"
 viewBox="0.00 0.00 140.00 259.75" xmlns="http://www.w3.org/2000/svg" xmlns:xlink="http://www.w3.org/1999/xlink">
<g id="graph0" class="graph" transform="scale(1 1) rotate(0) translate(4 255.75)">
<title>lix/libstore</title>
<g id="clust1" class="cluster">
<title>clusterdir_aa82b8e09e8257f3398fbc82d9d0d95b</title>
<g id="a_clust1"><a xlink:href="dir_aa82b8e09e8257f3398fbc82d9d0d95b.html" target="_top" xlink:title="lix">
<polygon fill="#faeff6" stroke="#404040" stroke-dasharray="5,2" points="8,-8 8,-243.75 124,-243.75 124,-8 8,-8"/>
<text text-anchor="middle" x="66" y="-230.25" font-family="Helvetica,sans-Serif" font-size="10.00">lix</text>
</a>
</g>
</g>
<g id="clust2" class="cluster">
<title>clusterdir_c61249f5a961b29df4e720bc72eba688</title>
<g id="a_clust2"><a xlink:href="dir_c61249f5a961b29df4e720bc72eba688.html" target="_top">
<polygon fill="#faeff6" stroke="#404040" stroke-width="2" points="16,-64.75 16,-215 84,-215 84,-64.75 16,-64.75"/>
</a>
</g>
</g>
<!-- dir_b082754907569dd54f8877805f0295e9 -->
<g id="node1" class="node">
<title>dir_b082754907569dd54f8877805f0295e9</title>
<g id="a_node1"><a xlink:href="dir_b082754907569dd54f8877805f0295e9.html" target="_top" xlink:title="libutil">
<polygon fill="#e7afd1" stroke="#404040" points="115.88,-36.75 72.12,-36.75 72.12,-16 115.88,-16 115.88,-36.75"/>
<text text-anchor="middle" x="94" y="-23.25" font-family="Helvetica,sans-Serif" font-size="10.00">libutil</text>
</a>
</g>
</g>
<!-- dir_c61249f5a961b29df4e720bc72eba688 -->
<g id="node2" class="node">
<title>dir_c61249f5a961b29df4e720bc72eba688</title>
<text text-anchor="middle" x="50" y="-193.5" font-family="Helvetica,sans-Serif" font-size="10.00">libstore</text>
</g>
<!-- dir_c61249f5a961b29df4e720bc72eba688&#45;&gt;dir_b082754907569dd54f8877805f0295e9 -->
<g id="edge1" class="edge">
<title>dir_c61249f5a961b29df4e720bc72eba688&#45;&gt;dir_b082754907569dd54f8877805f0295e9</title>
<g id="a_edge1"><a xlink:href="dir_000008_000010.html" target="_top">
<path fill="none" stroke="#63b8ff" d="M57.14,-186.38C63.65,-177.53 73.14,-163.61 79,-150.25 89.48,-126.36 90.64,-119.37 94,-93.5 95.95,-78.47 95.89,-61.36 95.37,-48.31"/>
<polygon fill="#63b8ff" stroke="#63b8ff" points="98.87,-48.15 94.84,-38.35 91.88,-48.53 98.87,-48.15"/>
</a>
</g>
<g id="a_edge1&#45;headlabel"><a xlink:href="dir_000008_000010.html" target="_top" xlink:title="297">
<text text-anchor="middle" x="101.82" y="-46.95" font-family="Helvetica,sans-Serif" font-size="10.00" fill="#63b8ff">297</text>
</a>
</g>
</g>
<!-- dir_bf449868203d26ad858c71c1bf6ade3c -->
<g id="node3" class="node">
<title>dir_bf449868203d26ad858c71c1bf6ade3c</title>
<g id="a_node3"><a xlink:href="dir_bf449868203d26ad858c71c1bf6ade3c.html" target="_top" xlink:title="build">
<polygon fill="#e7afd1" stroke="#404040" points="70,-150.25 30,-150.25 30,-129.5 70,-129.5 70,-150.25"/>
<text text-anchor="middle" x="50" y="-136.75" font-family="Helvetica,sans-Serif" font-size="10.00">build</text>
</a>
</g>
</g>
<!-- dir_c61249f5a961b29df4e720bc72eba688&#45;&gt;dir_bf449868203d26ad858c71c1bf6ade3c -->
<g id="edge2" class="edge">
<title>dir_c61249f5a961b29df4e720bc72eba688&#45;&gt;dir_bf449868203d26ad858c71c1bf6ade3c</title>
<g id="a_edge2"><a xlink:href="dir_000008_000000.html" target="_top">
<path fill="none" stroke="#63b8ff" d="M50,-186.58C50,-179.89 50,-170.49 50,-161.96"/>
<polygon fill="#63b8ff" stroke="#63b8ff" points="53.5,-162 50,-152 46.5,-162 53.5,-162"/>
</a>
</g>
<g id="a_edge2&#45;headlabel"><a xlink:href="dir_000008_000000.html" target="_top" xlink:title="1">
<text text-anchor="middle" x="56.34" y="-160.95" font-family="Helvetica,sans-Serif" font-size="10.00" fill="#63b8ff">1</text>
</a>
</g>
</g>
<!-- dir_bf449868203d26ad858c71c1bf6ade3c&#45;&gt;dir_b082754907569dd54f8877805f0295e9 -->
<g id="edge4" class="edge">
<title>dir_bf449868203d26ad858c71c1bf6ade3c&#45;&gt;dir_b082754907569dd54f8877805f0295e9</title>
<g id="a_edge4"><a xlink:href="dir_000000_000010.html" target="_top">
<path fill="none" stroke="#63b8ff" d="M60.07,-129.06C68.22,-120.48 79.24,-107.27 85,-93.5 90.96,-79.24 93.16,-61.89 93.89,-48.54"/>
<polygon fill="#63b8ff" stroke="#63b8ff" points="97.38,-48.81 94.17,-38.71 90.38,-48.61 97.38,-48.81"/>
</a>
</g>
<g id="a_edge4&#45;headlabel"><a xlink:href="dir_000000_000010.html" target="_top" xlink:title="50">
<text text-anchor="middle" x="100.16" y="-47.85" font-family="Helvetica,sans-Serif" font-size="10.00" fill="#63b8ff">50</text>
</a>
</g>
</g>
<!-- dir_492e62793be54464e12b58d47a050e10 -->
<g id="node4" class="node">
<title>dir_492e62793be54464e12b58d47a050e10</title>
<g id="a_node4"><a xlink:href="dir_492e62793be54464e12b58d47a050e10.html" target="_top" xlink:title="builtins">
<polygon fill="#e7afd1" stroke="#404040" points="76,-93.5 24,-93.5 24,-72.75 76,-72.75 76,-93.5"/>
<text text-anchor="middle" x="50" y="-80" font-family="Helvetica,sans-Serif" font-size="10.00">builtins</text>
</a>
</g>
</g>
<!-- dir_bf449868203d26ad858c71c1bf6ade3c&#45;&gt;dir_492e62793be54464e12b58d47a050e10 -->
<g id="edge3" class="edge">
<title>dir_bf449868203d26ad858c71c1bf6ade3c&#45;&gt;dir_492e62793be54464e12b58d47a050e10</title>
<g id="a_edge3"><a xlink:href="dir_000000_000001.html" target="_top">
<path fill="none" stroke="#63b8ff" d="M50,-129.09C50,-122.47 50,-113.47 50,-105.27"/>
<polygon fill="#63b8ff" stroke="#63b8ff" points="53.5,-105.34 50,-95.34 46.5,-105.34 53.5,-105.34"/>
</a>
</g>
<g id="a_edge3&#45;headlabel"><a xlink:href="dir_000000_000001.html" target="_top" xlink:title="1">
<text text-anchor="middle" x="56.34" y="-104.3" font-family="Helvetica,sans-Serif" font-size="10.00" fill="#63b8ff">1</text>
</a>
</g>
</g>
<!-- dir_492e62793be54464e12b58d47a050e10&#45;&gt;dir_b082754907569dd54f8877805f0295e9 -->
<g id="edge5" class="edge">
<title>dir_492e62793be54464e12b58d47a050e10&#45;&gt;dir_b082754907569dd54f8877805f0295e9</title>
<g id="a_edge5"><a xlink:href="dir_000001_000010.html" target="_top">
<path fill="none" stroke="#63b8ff" d="M57.87,-72.34C63.75,-65.02 71.97,-54.79 79.08,-45.94"/>
<polygon fill="#63b8ff" stroke="#63b8ff" points="81.72,-48.25 85.25,-38.26 76.26,-43.86 81.72,-48.25"/>
</a>
</g>
<g id="a_edge5&#45;headlabel"><a xlink:href="dir_000001_000010.html" target="_top" xlink:title="5">
<text text-anchor="middle" x="82.63" y="-48.52" font-family="Helvetica,sans-Serif" font-size="10.00" fill="#63b8ff">5</text>
</a>
</g>
</g>
</g>
</svg>
