<?xml version="1.0" encoding="UTF-8" standalone="no"?>
<!DOCTYPE svg PUBLIC "-//W3C//DTD SVG 1.1//EN"
 "http://www.w3.org/Graphics/SVG/1.1/DTD/svg11.dtd">
<!-- Generated by graphviz version 12.2.1 (0)
 -->
<!-- Title: lix Pages: 1 -->
<svg width="298pt" height="345pt"
 viewBox="0.00 0.00 298.00 344.50" xmlns="http://www.w3.org/2000/svg" xmlns:xlink="http://www.w3.org/1999/xlink">
<g id="graph0" class="graph" transform="scale(1 1) rotate(0) translate(4 340.5)">
<title>lix</title>
<g id="clust1" class="cluster">
<title>clusterdir_aa82b8e09e8257f3398fbc82d9d0d95b</title>
<g id="a_clust1"><a xlink:href="dir_aa82b8e09e8257f3398fbc82d9d0d95b.html" target="_top">
<polygon fill="#faeff6" stroke="#404040" stroke-width="2" points="8,-8 8,-328.5 282,-328.5 282,-8 8,-8"/>
</a>
</g>
</g>
<!-- dir_aa82b8e09e8257f3398fbc82d9d0d95b -->
<g id="node1" class="node">
<title>dir_aa82b8e09e8257f3398fbc82d9d0d95b</title>
<text text-anchor="middle" x="121" y="-307" font-family="Helvetica,sans-Serif" font-size="10.00">lix</text>
</g>
<!-- dir_92993bc713af497bd0a1c55dc369f485 -->
<g id="node2" class="node">
<title>dir_92993bc713af497bd0a1c55dc369f485</title>
<g id="a_node2"><a xlink:href="dir_92993bc713af497bd0a1c55dc369f485.html" target="_top" xlink:title="libcmd">
<polygon fill="#e7afd1" stroke="#404040" points="155.5,-263.75 106.5,-263.75 106.5,-243 155.5,-243 155.5,-263.75"/>
<text text-anchor="middle" x="131" y="-250.25" font-family="Helvetica,sans-Serif" font-size="10.00">libcmd</text>
</a>
</g>
</g>
<!-- dir_553ef4c1bea3f132236f64cbb9a1869d -->
<g id="node3" class="node">
<title>dir_553ef4c1bea3f132236f64cbb9a1869d</title>
<g id="a_node3"><a xlink:href="dir_553ef4c1bea3f132236f64cbb9a1869d.html" target="_top" xlink:title="libexpr">
<polygon fill="#e7afd1" stroke="#404040" points="188.88,-207 139.12,-207 139.12,-186.25 188.88,-186.25 188.88,-207"/>
<text text-anchor="middle" x="164" y="-193.5" font-family="Helvetica,sans-Serif" font-size="10.00">libexpr</text>
</a>
</g>
</g>
<!-- dir_92993bc713af497bd0a1c55dc369f485&#45;&gt;dir_553ef4c1bea3f132236f64cbb9a1869d -->
<g id="edge2" class="edge">
<title>dir_92993bc713af497bd0a1c55dc369f485&#45;&gt;dir_553ef4c1bea3f132236f64cbb9a1869d</title>
<g id="a_edge2"><a xlink:href="dir_000003_000004.html" target="_top">
<path fill="none" stroke="#63b8ff" d="M136.9,-242.59C141.17,-235.5 147.08,-225.69 152.3,-217.04"/>
<polygon fill="#63b8ff" stroke="#63b8ff" points="155.21,-219 157.37,-208.62 149.21,-215.38 155.21,-219"/>
</a>
</g>
<g id="a_edge2&#45;headlabel"><a xlink:href="dir_000003_000004.html" target="_top" xlink:title="46">
<text text-anchor="middle" x="156.56" y="-219.12" font-family="Helvetica,sans-Serif" font-size="10.00" fill="#63b8ff">46</text>
</a>
</g>
</g>
<!-- dir_fa2baa4da05d348e191c544f8ad53720 -->
<g id="node4" class="node">
<title>dir_fa2baa4da05d348e191c544f8ad53720</title>
<g id="a_node4"><a xlink:href="dir_fa2baa4da05d348e191c544f8ad53720.html" target="_top" xlink:title="libfetchers">
<polygon fill="#e7afd1" stroke="#404040" points="103.88,-150.25 36.12,-150.25 36.12,-129.5 103.88,-129.5 103.88,-150.25"/>
<text text-anchor="middle" x="70" y="-136.75" font-family="Helvetica,sans-Serif" font-size="10.00">libfetchers</text>
</a>
</g>
</g>
<!-- dir_92993bc713af497bd0a1c55dc369f485&#45;&gt;dir_fa2baa4da05d348e191c544f8ad53720 -->
<g id="edge5" class="edge">
<title>dir_92993bc713af497bd0a1c55dc369f485&#45;&gt;dir_fa2baa4da05d348e191c544f8ad53720</title>
<g id="a_edge5"><a xlink:href="dir_000003_000006.html" target="_top">
<path fill="none" stroke="#63b8ff" d="M125.8,-242.87C115.86,-224.69 93.96,-184.67 80.75,-160.52"/>
<polygon fill="#63b8ff" stroke="#63b8ff" points="83.96,-159.1 76.09,-152 77.82,-162.46 83.96,-159.1"/>
</a>
</g>
<g id="a_edge5&#45;headlabel"><a xlink:href="dir_000003_000006.html" target="_top" xlink:title="5">
<text text-anchor="middle" x="87.45" y="-156.43" font-family="Helvetica,sans-Serif" font-size="10.00" fill="#63b8ff">5</text>
</a>
</g>
</g>
<!-- dir_4bad8347ac63b4c6078b8cbd4af67620 -->
<g id="node5" class="node">
<title>dir_4bad8347ac63b4c6078b8cbd4af67620</title>
<g id="a_node5"><a xlink:href="dir_4bad8347ac63b4c6078b8cbd4af67620.html" target="_top" xlink:title="libmain">
<polygon fill="#e7afd1" stroke="#404040" points="234.38,-150.25 181.62,-150.25 181.62,-129.5 234.38,-129.5 234.38,-150.25"/>
<text text-anchor="middle" x="208" y="-136.75" font-family="Helvetica,sans-Serif" font-size="10.00">libmain</text>
</a>
</g>
</g>
<!-- dir_92993bc713af497bd0a1c55dc369f485&#45;&gt;dir_4bad8347ac63b4c6078b8cbd4af67620 -->
<g id="edge1" class="edge">
<title>dir_92993bc713af497bd0a1c55dc369f485&#45;&gt;dir_4bad8347ac63b4c6078b8cbd4af67620</title>
<g id="a_edge1"><a xlink:href="dir_000003_000007.html" target="_top">
<path fill="none" stroke="#63b8ff" d="M154.32,-242.63C169.26,-235.13 187.73,-223.28 198,-207 206.44,-193.62 208.73,-175.74 209.02,-161.95"/>
<polygon fill="#63b8ff" stroke="#63b8ff" points="212.53,-162.14 208.87,-152.2 205.53,-162.25 212.53,-162.14"/>
</a>
</g>
<g id="a_edge1&#45;headlabel"><a xlink:href="dir_000003_000007.html" target="_top" xlink:title="5">
<text text-anchor="middle" x="215.4" y="-161.05" font-family="Helvetica,sans-Serif" font-size="10.00" fill="#63b8ff">5</text>
</a>
</g>
</g>
<!-- dir_c61249f5a961b29df4e720bc72eba688 -->
<g id="node6" class="node">
<title>dir_c61249f5a961b29df4e720bc72eba688</title>
<g id="a_node6"><a xlink:href="dir_c61249f5a961b29df4e720bc72eba688.html" target="_top" xlink:title="libstore">
<polygon fill="#e7afd1" stroke="#404040" points="194.38,-93.5 141.62,-93.5 141.62,-72.75 194.38,-72.75 194.38,-93.5"/>
<text text-anchor="middle" x="168" y="-80" font-family="Helvetica,sans-Serif" font-size="10.00">libstore</text>
</a>
</g>
</g>
<!-- dir_92993bc713af497bd0a1c55dc369f485&#45;&gt;dir_c61249f5a961b29df4e720bc72eba688 -->
<g id="edge4" class="edge">
<title>dir_92993bc713af497bd0a1c55dc369f485&#45;&gt;dir_c61249f5a961b29df4e720bc72eba688</title>
<g id="a_edge4"><a xlink:href="dir_000003_000008.html" target="_top">
<path fill="none" stroke="#63b8ff" d="M130.72,-242.64C130.48,-233.45 130.14,-219.29 130,-207 129.9,-197.78 128.37,-195.33 130,-186.25 135.32,-156.68 148.67,-124.49 158.03,-104.32"/>
<polygon fill="#63b8ff" stroke="#63b8ff" points="161.19,-105.83 162.34,-95.3 154.87,-102.81 161.19,-105.83"/>
</a>
</g>
<g id="a_edge4&#45;headlabel"><a xlink:href="dir_000003_000008.html" target="_top" xlink:title="37">
<text text-anchor="middle" x="162.85" y="-105.81" font-family="Helvetica,sans-Serif" font-size="10.00" fill="#63b8ff">37</text>
</a>
</g>
</g>
<!-- dir_b082754907569dd54f8877805f0295e9 -->
<g id="node7" class="node">
<title>dir_b082754907569dd54f8877805f0295e9</title>
<g id="a_node7"><a xlink:href="dir_b082754907569dd54f8877805f0295e9.html" target="_top" xlink:title="libutil">
<polygon fill="#e7afd1" stroke="#404040" points="166.88,-36.75 123.12,-36.75 123.12,-16 166.88,-16 166.88,-36.75"/>
<text text-anchor="middle" x="145" y="-23.25" font-family="Helvetica,sans-Serif" font-size="10.00">libutil</text>
</a>
</g>
</g>
<!-- dir_92993bc713af497bd0a1c55dc369f485&#45;&gt;dir_b082754907569dd54f8877805f0295e9 -->
<g id="edge3" class="edge">
<title>dir_92993bc713af497bd0a1c55dc369f485&#45;&gt;dir_b082754907569dd54f8877805f0295e9</title>
<g id="a_edge3"><a xlink:href="dir_000003_000010.html" target="_top">
<path fill="none" stroke="#63b8ff" d="M111.13,-242.63C75.08,-223.48 4.58,-178.56 27,-129.5 45.15,-89.78 87.24,-59.59 115.91,-42.67"/>
<polygon fill="#63b8ff" stroke="#63b8ff" points="117.52,-45.78 124.48,-37.8 114.06,-39.7 117.52,-45.78"/>
</a>
</g>
<g id="a_edge3&#45;headlabel"><a xlink:href="dir_000003_000010.html" target="_top" xlink:title="41">
<text text-anchor="middle" x="117.12" y="-46.16" font-family="Helvetica,sans-Serif" font-size="10.00" fill="#63b8ff">41</text>
</a>
</g>
</g>
<!-- dir_553ef4c1bea3f132236f64cbb9a1869d&#45;&gt;dir_fa2baa4da05d348e191c544f8ad53720 -->
<g id="edge9" class="edge">
<title>dir_553ef4c1bea3f132236f64cbb9a1869d&#45;&gt;dir_fa2baa4da05d348e191c544f8ad53720</title>
<g id="a_edge9"><a xlink:href="dir_000004_000006.html" target="_top">
<path fill="none" stroke="#63b8ff" d="M147.19,-185.84C133.03,-177.58 112.51,-165.63 96.19,-156.13"/>
<polygon fill="#63b8ff" stroke="#63b8ff" points="98.37,-153.35 87.97,-151.34 94.85,-159.4 98.37,-153.35"/>
</a>
</g>
<g id="a_edge9&#45;headlabel"><a xlink:href="dir_000004_000006.html" target="_top" xlink:title="8">
<text text-anchor="middle" x="101.6" y="-148.82" font-family="Helvetica,sans-Serif" font-size="10.00" fill="#63b8ff">8</text>
</a>
</g>
</g>
<!-- dir_553ef4c1bea3f132236f64cbb9a1869d&#45;&gt;dir_4bad8347ac63b4c6078b8cbd4af67620 -->
<g id="edge6" class="edge">
<title>dir_553ef4c1bea3f132236f64cbb9a1869d&#45;&gt;dir_4bad8347ac63b4c6078b8cbd4af67620</title>
<g id="a_edge6"><a xlink:href="dir_000004_000007.html" target="_top">
<path fill="none" stroke="#63b8ff" d="M171.87,-185.84C177.75,-178.52 185.97,-168.29 193.08,-159.44"/>
<polygon fill="#63b8ff" stroke="#63b8ff" points="195.72,-161.75 199.25,-151.76 190.26,-157.36 195.72,-161.75"/>
</a>
</g>
<g id="a_edge6&#45;headlabel"><a xlink:href="dir_000004_000007.html" target="_top" xlink:title="1">
<text text-anchor="middle" x="196.63" y="-162.02" font-family="Helvetica,sans-Serif" font-size="10.00" fill="#63b8ff">1</text>
</a>
</g>
</g>
<!-- dir_553ef4c1bea3f132236f64cbb9a1869d&#45;&gt;dir_c61249f5a961b29df4e720bc72eba688 -->
<g id="edge8" class="edge">
<title>dir_553ef4c1bea3f132236f64cbb9a1869d&#45;&gt;dir_c61249f5a961b29df4e720bc72eba688</title>
<g id="a_edge8"><a xlink:href="dir_000004_000008.html" target="_top">
<path fill="none" stroke="#63b8ff" d="M164.34,-186.12C164.98,-168.35 166.36,-129.72 167.24,-105.43"/>
<polygon fill="#63b8ff" stroke="#63b8ff" points="170.73,-105.56 167.59,-95.44 163.74,-105.31 170.73,-105.56"/>
</a>
</g>
<g id="a_edge8&#45;headlabel"><a xlink:href="dir_000004_000008.html" target="_top" xlink:title="29">
<text text-anchor="middle" x="173.5" y="-104.61" font-family="Helvetica,sans-Serif" font-size="10.00" fill="#63b8ff">29</text>
</a>
</g>
</g>
<!-- dir_553ef4c1bea3f132236f64cbb9a1869d&#45;&gt;dir_b082754907569dd54f8877805f0295e9 -->
<g id="edge7" class="edge">
<title>dir_553ef4c1bea3f132236f64cbb9a1869d&#45;&gt;dir_b082754907569dd54f8877805f0295e9</title>
<g id="a_edge7"><a xlink:href="dir_000004_000010.html" target="_top">
<path fill="none" stroke="#63b8ff" d="M158.93,-185.9C148.78,-165.33 127.41,-115.73 133,-72.75 134.08,-64.48 136.21,-55.57 138.38,-47.85"/>
<polygon fill="#63b8ff" stroke="#63b8ff" points="141.69,-49 141.25,-38.41 134.99,-46.97 141.69,-49"/>
</a>
</g>
<g id="a_edge7&#45;headlabel"><a xlink:href="dir_000004_000010.html" target="_top" xlink:title="73">
<text text-anchor="middle" x="143.8" y="-48.69" font-family="Helvetica,sans-Serif" font-size="10.00" fill="#63b8ff">73</text>
</a>
</g>
</g>
<!-- dir_fa2baa4da05d348e191c544f8ad53720&#45;&gt;dir_c61249f5a961b29df4e720bc72eba688 -->
<g id="edge11" class="edge">
<title>dir_fa2baa4da05d348e191c544f8ad53720&#45;&gt;dir_c61249f5a961b29df4e720bc72eba688</title>
<g id="a_edge11"><a xlink:href="dir_000006_000008.html" target="_top">
<path fill="none" stroke="#63b8ff" d="M87.52,-129.09C102.29,-120.83 123.68,-108.88 140.7,-99.38"/>
<polygon fill="#63b8ff" stroke="#63b8ff" points="142.29,-102.5 149.31,-94.57 138.87,-96.39 142.29,-102.5"/>
</a>
</g>
<g id="a_edge11&#45;headlabel"><a xlink:href="dir_000006_000008.html" target="_top" xlink:title="27">
<text text-anchor="middle" x="141.85" y="-102.87" font-family="Helvetica,sans-Serif" font-size="10.00" fill="#63b8ff">27</text>
</a>
</g>
</g>
<!-- dir_fa2baa4da05d348e191c544f8ad53720&#45;&gt;dir_b082754907569dd54f8877805f0295e9 -->
<g id="edge10" class="edge">
<title>dir_fa2baa4da05d348e191c544f8ad53720&#45;&gt;dir_b082754907569dd54f8877805f0295e9</title>
<g id="a_edge10"><a xlink:href="dir_000006_000010.html" target="_top">
<path fill="none" stroke="#63b8ff" d="M76.39,-129.37C88.68,-111.11 115.78,-70.81 132,-46.7"/>
<polygon fill="#63b8ff" stroke="#63b8ff" points="134.89,-48.68 137.56,-38.43 129.08,-44.78 134.89,-48.68"/>
</a>
</g>
<g id="a_edge10&#45;headlabel"><a xlink:href="dir_000006_000010.html" target="_top" xlink:title="56">
<text text-anchor="middle" x="136.08" y="-48.87" font-family="Helvetica,sans-Serif" font-size="10.00" fill="#63b8ff">56</text>
</a>
</g>
</g>
<!-- dir_4bad8347ac63b4c6078b8cbd4af67620&#45;&gt;dir_c61249f5a961b29df4e720bc72eba688 -->
<g id="edge13" class="edge">
<title>dir_4bad8347ac63b4c6078b8cbd4af67620&#45;&gt;dir_c61249f5a961b29df4e720bc72eba688</title>
<g id="a_edge13"><a xlink:href="dir_000007_000008.html" target="_top">
<path fill="none" stroke="#63b8ff" d="M200.85,-129.09C195.56,-121.85 188.19,-111.76 181.77,-102.97"/>
<polygon fill="#63b8ff" stroke="#63b8ff" points="184.71,-101.06 175.98,-95.05 179.06,-105.19 184.71,-101.06"/>
</a>
</g>
<g id="a_edge13&#45;headlabel"><a xlink:href="dir_000007_000008.html" target="_top" xlink:title="7">
<text text-anchor="middle" x="188.23" y="-97.94" font-family="Helvetica,sans-Serif" font-size="10.00" fill="#63b8ff">7</text>
</a>
</g>
</g>
<!-- dir_4bad8347ac63b4c6078b8cbd4af67620&#45;&gt;dir_b082754907569dd54f8877805f0295e9 -->
<g id="edge12" class="edge">
<title>dir_4bad8347ac63b4c6078b8cbd4af67620&#45;&gt;dir_b082754907569dd54f8877805f0295e9</title>
<g id="a_edge12"><a xlink:href="dir_000007_000010.html" target="_top">
<path fill="none" stroke="#63b8ff" d="M209.58,-129.23C211.31,-115.73 212.67,-90.82 203,-72.75 196.54,-60.67 185.32,-50.75 174.46,-43.3"/>
<polygon fill="#63b8ff" stroke="#63b8ff" points="176.34,-40.35 166.01,-37.97 172.6,-46.27 176.34,-40.35"/>
</a>
</g>
<g id="a_edge12&#45;headlabel"><a xlink:href="dir_000007_000010.html" target="_top" xlink:title="24">
<text text-anchor="middle" x="179.61" y="-35.93" font-family="Helvetica,sans-Serif" font-size="10.00" fill="#63b8ff">24</text>
</a>
</g>
</g>
<!-- dir_c61249f5a961b29df4e720bc72eba688&#45;&gt;dir_b082754907569dd54f8877805f0295e9 -->
<g id="edge14" class="edge">
<title>dir_c61249f5a961b29df4e720bc72eba688&#45;&gt;dir_b082754907569dd54f8877805f0295e9</title>
<g id="a_edge14"><a xlink:href="dir_000008_000010.html" target="_top">
<path fill="none" stroke="#63b8ff" d="M163.89,-72.34C161.01,-65.49 157.06,-56.09 153.52,-47.65"/>
<polygon fill="#63b8ff" stroke="#63b8ff" points="156.76,-46.34 149.66,-38.47 150.31,-49.05 156.76,-46.34"/>
</a>
</g>
<g id="a_edge14&#45;headlabel"><a xlink:href="dir_000008_000010.html" target="_top" xlink:title="297">
<text text-anchor="middle" x="160.19" y="-44.03" font-family="Helvetica,sans-Serif" font-size="10.00" fill="#63b8ff">297</text>
</a>
</g>
</g>
<!-- dir_b8ac7f72a28f9b46342fbb646c3cc589 -->
<g id="node8" class="node">
<title>dir_b8ac7f72a28f9b46342fbb646c3cc589</title>
<g id="a_node8"><a xlink:href="dir_b8ac7f72a28f9b46342fbb646c3cc589.html" target="_top" xlink:title="nix">
<polygon fill="#e7afd1" stroke="#404040" points="227.5,-320.5 196.5,-320.5 196.5,-299.75 227.5,-299.75 227.5,-320.5"/>
<text text-anchor="middle" x="212" y="-307" font-family="Helvetica,sans-Serif" font-size="10.00">nix</text>
</a>
</g>
</g>
<!-- dir_b8ac7f72a28f9b46342fbb646c3cc589&#45;&gt;dir_92993bc713af497bd0a1c55dc369f485 -->
<g id="edge17" class="edge">
<title>dir_b8ac7f72a28f9b46342fbb646c3cc589&#45;&gt;dir_92993bc713af497bd0a1c55dc369f485</title>
<g id="a_edge17"><a xlink:href="dir_000013_000003.html" target="_top">
<path fill="none" stroke="#63b8ff" d="M197.52,-299.34C185.65,-291.32 168.63,-279.81 154.77,-270.44"/>
<polygon fill="#63b8ff" stroke="#63b8ff" points="156.85,-267.63 146.61,-264.93 152.93,-273.43 156.85,-267.63"/>
</a>
</g>
<g id="a_edge17&#45;headlabel"><a xlink:href="dir_000013_000003.html" target="_top" xlink:title="66">
<text text-anchor="middle" x="160.17" y="-263.31" font-family="Helvetica,sans-Serif" font-size="10.00" fill="#63b8ff">66</text>
</a>
</g>
</g>
<!-- dir_b8ac7f72a28f9b46342fbb646c3cc589&#45;&gt;dir_553ef4c1bea3f132236f64cbb9a1869d -->
<g id="edge16" class="edge">
<title>dir_b8ac7f72a28f9b46342fbb646c3cc589&#45;&gt;dir_553ef4c1bea3f132236f64cbb9a1869d</title>
<g id="a_edge16"><a xlink:href="dir_000013_000004.html" target="_top">
<path fill="none" stroke="#63b8ff" d="M207.91,-299.62C200.15,-281.61 183.16,-242.14 172.74,-217.93"/>
<polygon fill="#63b8ff" stroke="#63b8ff" points="175.99,-216.62 168.82,-208.82 169.56,-219.38 175.99,-216.62"/>
</a>
</g>
<g id="a_edge16&#45;headlabel"><a xlink:href="dir_000013_000004.html" target="_top" xlink:title="38">
<text text-anchor="middle" x="179.42" y="-214.28" font-family="Helvetica,sans-Serif" font-size="10.00" fill="#63b8ff">38</text>
</a>
</g>
</g>
<!-- dir_b8ac7f72a28f9b46342fbb646c3cc589&#45;&gt;dir_fa2baa4da05d348e191c544f8ad53720 -->
<g id="edge20" class="edge">
<title>dir_b8ac7f72a28f9b46342fbb646c3cc589&#45;&gt;dir_fa2baa4da05d348e191c544f8ad53720</title>
<g id="a_edge20"><a xlink:href="dir_000013_000006.html" target="_top">
<path fill="none" stroke="#63b8ff" d="M196.07,-307.44C171.23,-303.94 123.49,-293.52 98,-263.75 73.3,-234.9 69.22,-188.67 69.16,-161.91"/>
<polygon fill="#63b8ff" stroke="#63b8ff" points="72.66,-162.07 69.35,-152 65.66,-161.93 72.66,-162.07"/>
</a>
</g>
<g id="a_edge20&#45;headlabel"><a xlink:href="dir_000013_000006.html" target="_top" xlink:title="4">
<text text-anchor="middle" x="75.45" y="-161.08" font-family="Helvetica,sans-Serif" font-size="10.00" fill="#63b8ff">4</text>
</a>
</g>
</g>
<!-- dir_b8ac7f72a28f9b46342fbb646c3cc589&#45;&gt;dir_4bad8347ac63b4c6078b8cbd4af67620 -->
<g id="edge15" class="edge">
<title>dir_b8ac7f72a28f9b46342fbb646c3cc589&#45;&gt;dir_4bad8347ac63b4c6078b8cbd4af67620</title>
<g id="a_edge15"><a xlink:href="dir_000013_000007.html" target="_top">
<path fill="none" stroke="#63b8ff" d="M211.77,-299.6C211.15,-273.23 209.38,-198.83 208.5,-162.03"/>
<polygon fill="#63b8ff" stroke="#63b8ff" points="212.01,-162.14 208.27,-152.23 205.01,-162.31 212.01,-162.14"/>
</a>
</g>
<g id="a_edge15&#45;headlabel"><a xlink:href="dir_000013_000007.html" target="_top" xlink:title="54">
<text text-anchor="middle" x="214.89" y="-161.03" font-family="Helvetica,sans-Serif" font-size="10.00" fill="#63b8ff">54</text>
</a>
</g>
</g>
<!-- dir_b8ac7f72a28f9b46342fbb646c3cc589&#45;&gt;dir_c61249f5a961b29df4e720bc72eba688 -->
<g id="edge19" class="edge">
<title>dir_b8ac7f72a28f9b46342fbb646c3cc589&#45;&gt;dir_c61249f5a961b29df4e720bc72eba688</title>
<g id="a_edge19"><a xlink:href="dir_000013_000008.html" target="_top">
<path fill="none" stroke="#63b8ff" d="M217.8,-299.42C233.87,-271.18 275.64,-187.39 243,-129.5 234.7,-114.78 219.49,-104.29 204.92,-97.13"/>
<polygon fill="#63b8ff" stroke="#63b8ff" points="206.48,-94 195.92,-93.12 203.63,-100.39 206.48,-94"/>
</a>
</g>
<g id="a_edge19&#45;headlabel"><a xlink:href="dir_000013_000008.html" target="_top" xlink:title="90">
<text text-anchor="middle" x="209.54" y="-89.13" font-family="Helvetica,sans-Serif" font-size="10.00" fill="#63b8ff">90</text>
</a>
</g>
</g>
<!-- dir_b8ac7f72a28f9b46342fbb646c3cc589&#45;&gt;dir_b082754907569dd54f8877805f0295e9 -->
<g id="edge18" class="edge">
<title>dir_b8ac7f72a28f9b46342fbb646c3cc589&#45;&gt;dir_b082754907569dd54f8877805f0295e9</title>
<g id="a_edge18"><a xlink:href="dir_000013_000010.html" target="_top">
<path fill="none" stroke="#63b8ff" d="M221.8,-299.36C239.04,-281.09 273,-239.77 273,-197.62 273,-197.62 273,-197.62 273,-138.88 273,-88.45 215.82,-55.62 177.89,-39.39"/>
<polygon fill="#63b8ff" stroke="#63b8ff" points="179.28,-36.18 168.7,-35.64 176.63,-42.66 179.28,-36.18"/>
</a>
</g>
<g id="a_edge18&#45;headlabel"><a xlink:href="dir_000013_000010.html" target="_top" xlink:title="42">
<text text-anchor="middle" x="182.28" y="-31.21" font-family="Helvetica,sans-Serif" font-size="10.00" fill="#63b8ff">42</text>
</a>
</g>
</g>
</g>
</svg>
