<?xml version="1.0" encoding="UTF-8" standalone="no"?>
<!DOCTYPE svg PUBLIC "-//W3C//DTD SVG 1.1//EN"
 "http://www.w3.org/Graphics/SVG/1.1/DTD/svg11.dtd">
<!-- Generated by graphviz version 12.2.1 (0)
 -->
<!-- Title: lix/libutil/environment&#45;variables.hh Pages: 1 -->
<svg width="182pt" height="98pt"
 viewBox="0.00 0.00 181.75 98.25" xmlns="http://www.w3.org/2000/svg" xmlns:xlink="http://www.w3.org/1999/xlink">
<g id="graph0" class="graph" transform="scale(1 1) rotate(0) translate(4 94.25)">
<title>lix/libutil/environment&#45;variables.hh</title>
<!-- Node1 -->
<g id="Node000001" class="node">
<title>Node1</title>
<g id="a_Node000001"><a xlink:title=" ">
<polygon fill="#999999" stroke="#666666" points="145.88,-90.25 21.88,-90.25 21.88,-56.75 145.88,-56.75 145.88,-90.25"/>
<text text-anchor="start" x="29.88" y="-76.75" font-family="Helvetica,sans-Serif" font-size="10.00">lix/libutil/environment</text>
<text text-anchor="middle" x="83.88" y="-64" font-family="Helvetica,sans-Serif" font-size="10.00">&#45;variables.hh</text>
</a>
</g>
</g>
<!-- Node2 -->
<g id="Node000002" class="node">
<title>Node2</title>
<g id="a_Node000002"><a xlink:title=" ">
<polygon fill="#e0e0e0" stroke="#999999" points="37.75,-20.75 0,-20.75 0,0 37.75,0 37.75,-20.75"/>
<text text-anchor="middle" x="18.88" y="-7.25" font-family="Helvetica,sans-Serif" font-size="10.00">map</text>
</a>
</g>
</g>
<!-- Node1&#45;&gt;Node2 -->
<g id="edge1_Node000001_Node000002" class="edge">
<title>Node1&#45;&gt;Node2</title>
<g id="a_edge1_Node000001_Node000002"><a xlink:title=" ">
<path fill="none" stroke="#63b8ff" d="M66.8,-56.44C57.79,-47.97 46.72,-37.56 37.5,-28.89"/>
<polygon fill="#63b8ff" stroke="#63b8ff" points="40.13,-26.55 30.44,-22.25 35.33,-31.65 40.13,-26.55"/>
</a>
</g>
</g>
<!-- Node3 -->
<g id="Node000003" class="node">
<title>Node3</title>
<g id="a_Node000003"><a xlink:title=" ">
<polygon fill="#e0e0e0" stroke="#999999" points="111.75,-20.75 56,-20.75 56,0 111.75,0 111.75,-20.75"/>
<text text-anchor="middle" x="83.88" y="-7.25" font-family="Helvetica,sans-Serif" font-size="10.00">optional</text>
</a>
</g>
</g>
<!-- Node1&#45;&gt;Node3 -->
<g id="edge2_Node000001_Node000003" class="edge">
<title>Node1&#45;&gt;Node3</title>
<g id="a_edge2_Node000001_Node000003"><a xlink:title=" ">
<path fill="none" stroke="#63b8ff" d="M83.88,-56.44C83.88,-49.1 83.88,-40.32 83.88,-32.46"/>
<polygon fill="#63b8ff" stroke="#63b8ff" points="87.38,-32.73 83.88,-22.73 80.38,-32.73 87.38,-32.73"/>
</a>
</g>
</g>
<!-- Node4 -->
<g id="Node000004" class="node">
<title>Node4</title>
<g id="a_Node000004"><a xlink:title=" ">
<polygon fill="#e0e0e0" stroke="#999999" points="173.75,-20.75 130,-20.75 130,0 173.75,0 173.75,-20.75"/>
<text text-anchor="middle" x="151.88" y="-7.25" font-family="Helvetica,sans-Serif" font-size="10.00">string</text>
</a>
</g>
</g>
<!-- Node1&#45;&gt;Node4 -->
<g id="edge3_Node000001_Node000004" class="edge">
<title>Node1&#45;&gt;Node4</title>
<g id="a_edge3_Node000001_Node000004"><a xlink:title=" ">
<path fill="none" stroke="#63b8ff" d="M101.74,-56.44C111.16,-47.97 122.74,-37.56 132.39,-28.89"/>
<polygon fill="#63b8ff" stroke="#63b8ff" points="134.7,-31.52 139.8,-22.23 130.02,-26.31 134.7,-31.52"/>
</a>
</g>
</g>
</g>
</svg>
