<?xml version="1.0" encoding="UTF-8" standalone="no"?>
<!DOCTYPE svg PUBLIC "-//W3C//DTD SVG 1.1//EN"
 "http://www.w3.org/Graphics/SVG/1.1/DTD/svg11.dtd">
<!-- Generated by graphviz version 12.2.1 (0)
 -->
<!-- Title: lix/libutil/escape&#45;string.hh Pages: 1 -->
<svg width="126pt" height="98pt"
 viewBox="0.00 0.00 126.12 98.25" xmlns="http://www.w3.org/2000/svg" xmlns:xlink="http://www.w3.org/1999/xlink">
<g id="graph0" class="graph" transform="scale(1 1) rotate(0) translate(4 94.25)">
<title>lix/libutil/escape&#45;string.hh</title>
<!-- Node1 -->
<g id="Node000001" class="node">
<title>Node1</title>
<g id="a_Node000001"><a xlink:title=" ">
<polygon fill="#999999" stroke="#666666" points="104,-90.25 7.75,-90.25 7.75,-56.75 104,-56.75 104,-90.25"/>
<text text-anchor="start" x="15.75" y="-76.75" font-family="Helvetica,sans-Serif" font-size="10.00">lix/libutil/escape</text>
<text text-anchor="middle" x="55.88" y="-64" font-family="Helvetica,sans-Serif" font-size="10.00">&#45;string.hh</text>
</a>
</g>
</g>
<!-- Node2 -->
<g id="Node000002" class="node">
<title>Node2</title>
<g id="a_Node000002"><a xlink:title=" ">
<polygon fill="#e0e0e0" stroke="#999999" points="43.75,-20.75 0,-20.75 0,0 43.75,0 43.75,-20.75"/>
<text text-anchor="middle" x="21.88" y="-7.25" font-family="Helvetica,sans-Serif" font-size="10.00">limits</text>
</a>
</g>
</g>
<!-- Node1&#45;&gt;Node2 -->
<g id="edge1_Node000001_Node000002" class="edge">
<title>Node1&#45;&gt;Node2</title>
<g id="a_edge1_Node000001_Node000002"><a xlink:title=" ">
<path fill="none" stroke="#63b8ff" d="M46.94,-56.44C42.62,-48.67 37.39,-39.27 32.83,-31.07"/>
<polygon fill="#63b8ff" stroke="#63b8ff" points="36,-29.58 28.09,-22.54 29.89,-32.98 36,-29.58"/>
</a>
</g>
</g>
<!-- Node3 -->
<g id="Node000003" class="node">
<title>Node3</title>
<g id="a_Node000003"><a xlink:title=" ">
<polygon fill="#e0e0e0" stroke="#999999" points="118.12,-20.75 61.62,-20.75 61.62,0 118.12,0 118.12,-20.75"/>
<text text-anchor="middle" x="89.88" y="-7.25" font-family="Helvetica,sans-Serif" font-size="10.00">ostream</text>
</a>
</g>
</g>
<!-- Node1&#45;&gt;Node3 -->
<g id="edge2_Node000001_Node000003" class="edge">
<title>Node1&#45;&gt;Node3</title>
<g id="a_edge2_Node000001_Node000003"><a xlink:title=" ">
<path fill="none" stroke="#63b8ff" d="M64.81,-56.44C69.13,-48.67 74.36,-39.27 78.92,-31.07"/>
<polygon fill="#63b8ff" stroke="#63b8ff" points="81.86,-32.98 83.66,-22.54 75.75,-29.58 81.86,-32.98"/>
</a>
</g>
</g>
</g>
</svg>
