<?xml version="1.0" encoding="UTF-8" standalone="no"?>
<!DOCTYPE svg PUBLIC "-//W3C//DTD SVG 1.1//EN"
 "http://www.w3.org/Graphics/SVG/1.1/DTD/svg11.dtd">
<!-- Generated by graphviz version 12.2.1 (0)
 -->
<!-- Title: lix/libexpr/extra&#45;primops.hh Pages: 1 -->
<svg width="160pt" height="142pt"
 viewBox="0.00 0.00 159.75 142.25" xmlns="http://www.w3.org/2000/svg" xmlns:xlink="http://www.w3.org/1999/xlink">
<g id="graph0" class="graph" transform="scale(1 1) rotate(0) translate(4 138.25)">
<title>lix/libexpr/extra&#45;primops.hh</title>
<!-- Node1 -->
<g id="Node000001" class="node">
<title>Node1</title>
<g id="a_Node000001"><a xlink:title=" ">
<polygon fill="#999999" stroke="#666666" points="151.75,-134.25 0,-134.25 0,-113.5 151.75,-113.5 151.75,-134.25"/>
<text text-anchor="middle" x="75.88" y="-120.75" font-family="Helvetica,sans-Serif" font-size="10.00">lix/libexpr/extra&#45;primops.hh</text>
</a>
</g>
</g>
<!-- Node2 -->
<g id="Node000002" class="node">
<title>Node2</title>
<g id="a_Node000002"><a xlink:href="pos-idx_8hh.html" target="_top" xlink:title=" ">
<polygon fill="white" stroke="#666666" points="109.38,-77.5 42.38,-77.5 42.38,-56.75 109.38,-56.75 109.38,-77.5"/>
<text text-anchor="middle" x="75.88" y="-64" font-family="Helvetica,sans-Serif" font-size="10.00">pos&#45;idx.hh</text>
</a>
</g>
</g>
<!-- Node1&#45;&gt;Node2 -->
<g id="edge1_Node000001_Node000002" class="edge">
<title>Node1&#45;&gt;Node2</title>
<g id="a_edge1_Node000001_Node000002"><a xlink:title=" ">
<path fill="none" stroke="#63b8ff" d="M75.88,-113.09C75.88,-106.47 75.88,-97.47 75.88,-89.27"/>
<polygon fill="#63b8ff" stroke="#63b8ff" points="79.38,-89.34 75.88,-79.34 72.38,-89.34 79.38,-89.34"/>
</a>
</g>
</g>
<!-- Node3 -->
<g id="Node000003" class="node">
<title>Node3</title>
<g id="a_Node000003"><a xlink:title=" ">
<polygon fill="#e0e0e0" stroke="#999999" points="106.38,-20.75 45.38,-20.75 45.38,0 106.38,0 106.38,-20.75"/>
<text text-anchor="middle" x="75.88" y="-7.25" font-family="Helvetica,sans-Serif" font-size="10.00">cinttypes</text>
</a>
</g>
</g>
<!-- Node2&#45;&gt;Node3 -->
<g id="edge2_Node000002_Node000003" class="edge">
<title>Node2&#45;&gt;Node3</title>
<g id="a_edge2_Node000002_Node000003"><a xlink:title=" ">
<path fill="none" stroke="#63b8ff" d="M75.88,-56.34C75.88,-49.72 75.88,-40.72 75.88,-32.52"/>
<polygon fill="#63b8ff" stroke="#63b8ff" points="79.38,-32.59 75.88,-22.59 72.38,-32.59 79.38,-32.59"/>
</a>
</g>
</g>
</g>
</svg>
