<?xml version="1.0" encoding="UTF-8" standalone="no"?>
<!DOCTYPE svg PUBLIC "-//W3C//DTD SVG 1.1//EN"
 "http://www.w3.org/Graphics/SVG/1.1/DTD/svg11.dtd">
<!-- Generated by graphviz version 12.2.1 (0)
 -->
<!-- Title: lix/libutil/finally.hh Pages: 1 -->
<svg width="142pt" height="86pt"
 viewBox="0.00 0.00 141.62 85.50" xmlns="http://www.w3.org/2000/svg" xmlns:xlink="http://www.w3.org/1999/xlink">
<g id="graph0" class="graph" transform="scale(1 1) rotate(0) translate(4 81.5)">
<title>lix/libutil/finally.hh</title>
<!-- Node1 -->
<g id="Node000001" class="node">
<title>Node1</title>
<g id="a_Node000001"><a xlink:title=" ">
<polygon fill="#999999" stroke="#666666" points="116.25,-77.5 11,-77.5 11,-56.75 116.25,-56.75 116.25,-77.5"/>
<text text-anchor="middle" x="63.62" y="-64" font-family="Helvetica,sans-Serif" font-size="10.00">lix/libutil/finally.hh</text>
</a>
</g>
</g>
<!-- Node2 -->
<g id="Node000002" class="node">
<title>Node2</title>
<g id="a_Node000002"><a xlink:title=" ">
<polygon fill="#e0e0e0" stroke="#999999" points="51.25,-20.75 0,-20.75 0,0 51.25,0 51.25,-20.75"/>
<text text-anchor="middle" x="25.62" y="-7.25" font-family="Helvetica,sans-Serif" font-size="10.00">cassert</text>
</a>
</g>
</g>
<!-- Node1&#45;&gt;Node2 -->
<g id="edge1_Node000001_Node000002" class="edge">
<title>Node1&#45;&gt;Node2</title>
<g id="a_edge1_Node000001_Node000002"><a xlink:title=" ">
<path fill="none" stroke="#63b8ff" d="M56.83,-56.34C51.86,-49.17 44.96,-39.23 38.9,-30.51"/>
<polygon fill="#63b8ff" stroke="#63b8ff" points="41.8,-28.54 33.22,-22.32 36.05,-32.53 41.8,-28.54"/>
</a>
</g>
</g>
<!-- Node3 -->
<g id="Node000003" class="node">
<title>Node3</title>
<g id="a_Node000003"><a xlink:title=" ">
<polygon fill="#e0e0e0" stroke="#999999" points="133.62,-20.75 69.62,-20.75 69.62,0 133.62,0 133.62,-20.75"/>
<text text-anchor="middle" x="101.62" y="-7.25" font-family="Helvetica,sans-Serif" font-size="10.00">exception</text>
</a>
</g>
</g>
<!-- Node1&#45;&gt;Node3 -->
<g id="edge2_Node000001_Node000003" class="edge">
<title>Node1&#45;&gt;Node3</title>
<g id="a_edge2_Node000001_Node000003"><a xlink:title=" ">
<path fill="none" stroke="#63b8ff" d="M70.42,-56.34C75.39,-49.17 82.29,-39.23 88.35,-30.51"/>
<polygon fill="#63b8ff" stroke="#63b8ff" points="91.2,-32.53 94.03,-22.32 85.45,-28.54 91.2,-32.53"/>
</a>
</g>
</g>
</g>
</svg>
