<?xml version="1.0" encoding="UTF-8" standalone="no"?>
<!DOCTYPE svg PUBLIC "-//W3C//DTD SVG 1.1//EN"
 "http://www.w3.org/Graphics/SVG/1.1/DTD/svg11.dtd">
<!-- Generated by graphviz version 12.2.1 (0)
 -->
<!-- Title: lix/libstore/fs&#45;accessor.hh Pages: 1 -->
<svg width="1163pt" height="155pt"
 viewBox="0.00 0.00 1163.25 155.00" xmlns="http://www.w3.org/2000/svg" xmlns:xlink="http://www.w3.org/1999/xlink">
<g id="graph0" class="graph" transform="scale(1 1) rotate(0) translate(4 151)">
<title>lix/libstore/fs&#45;accessor.hh</title>
<!-- Node1 -->
<g id="Node000001" class="node">
<title>Node1</title>
<g id="a_Node000001"><a xlink:title=" ">
<polygon fill="#999999" stroke="#666666" points="903.12,-147 762.62,-147 762.62,-126.25 903.12,-126.25 903.12,-147"/>
<text text-anchor="middle" x="832.88" y="-133.5" font-family="Helvetica,sans-Serif" font-size="10.00">lix/libstore/fs&#45;accessor.hh</text>
</a>
</g>
</g>
<!-- Node2 -->
<g id="Node000002" class="node">
<title>Node2</title>
<g id="a_Node000002"><a xlink:href="result_8hh.html" target="_top" xlink:title=" ">
<polygon fill="white" stroke="#666666" points="489.12,-90.25 384.62,-90.25 384.62,-69.5 489.12,-69.5 489.12,-90.25"/>
<text text-anchor="middle" x="436.88" y="-76.75" font-family="Helvetica,sans-Serif" font-size="10.00">lix/libutil/result.hh</text>
</a>
</g>
</g>
<!-- Node1&#45;&gt;Node2 -->
<g id="edge1_Node000001_Node000002" class="edge">
<title>Node1&#45;&gt;Node2</title>
<g id="a_edge1_Node000001_Node000002"><a xlink:title=" ">
<path fill="none" stroke="#63b8ff" d="M762.53,-125.9C688.27,-115.63 572.25,-99.59 500.59,-89.68"/>
<polygon fill="#63b8ff" stroke="#63b8ff" points="501.37,-86.26 490.99,-88.36 500.41,-93.19 501.37,-86.26"/>
</a>
</g>
</g>
<!-- Node7 -->
<g id="Node000007" class="node">
<title>Node7</title>
<g id="a_Node000007"><a xlink:href="types_8hh.html" target="_top" xlink:title=" ">
<polygon fill="white" stroke="#666666" points="884.75,-90.25 781,-90.25 781,-69.5 884.75,-69.5 884.75,-90.25"/>
<text text-anchor="middle" x="832.88" y="-76.75" font-family="Helvetica,sans-Serif" font-size="10.00">lix/libutil/types.hh</text>
</a>
</g>
</g>
<!-- Node1&#45;&gt;Node7 -->
<g id="edge6_Node000001_Node000007" class="edge">
<title>Node1&#45;&gt;Node7</title>
<g id="a_edge6_Node000001_Node000007"><a xlink:title=" ">
<path fill="none" stroke="#63b8ff" d="M832.88,-125.84C832.88,-119.22 832.88,-110.22 832.88,-102.02"/>
<polygon fill="#63b8ff" stroke="#63b8ff" points="836.38,-102.09 832.88,-92.09 829.38,-102.09 836.38,-102.09"/>
</a>
</g>
</g>
<!-- Node17 -->
<g id="Node000017" class="node">
<title>Node17</title>
<g id="a_Node000017"><a xlink:title=" ">
<polygon fill="#e0e0e0" stroke="#999999" points="968.62,-90.25 903.12,-90.25 903.12,-69.5 968.62,-69.5 968.62,-90.25"/>
<text text-anchor="middle" x="935.88" y="-76.75" font-family="Helvetica,sans-Serif" font-size="10.00">kj/async.h</text>
</a>
</g>
</g>
<!-- Node1&#45;&gt;Node17 -->
<g id="edge16_Node000001_Node000017" class="edge">
<title>Node1&#45;&gt;Node17</title>
<g id="a_edge16_Node000001_Node000017"><a xlink:title=" ">
<path fill="none" stroke="#63b8ff" d="M851.29,-125.84C866.96,-117.51 889.72,-105.41 907.69,-95.86"/>
<polygon fill="#63b8ff" stroke="#63b8ff" points="909.1,-99.07 916.28,-91.29 905.81,-92.89 909.1,-99.07"/>
</a>
</g>
</g>
<!-- Node3 -->
<g id="Node000003" class="node">
<title>Node3</title>
<g id="a_Node000003"><a xlink:title=" ">
<polygon fill="#e0e0e0" stroke="#999999" points="175.75,-27.12 0,-27.12 0,-6.38 175.75,-6.38 175.75,-27.12"/>
<text text-anchor="middle" x="87.88" y="-13.62" font-family="Helvetica,sans-Serif" font-size="10.00">boost/outcome/std_outcome.hpp</text>
</a>
</g>
</g>
<!-- Node2&#45;&gt;Node3 -->
<g id="edge2_Node000002_Node000003" class="edge">
<title>Node2&#45;&gt;Node3</title>
<g id="a_edge2_Node000002_Node000003"><a xlink:title=" ">
<path fill="none" stroke="#63b8ff" d="M384.25,-69.66C323.14,-58.95 222.19,-41.27 155.36,-29.57"/>
<polygon fill="#63b8ff" stroke="#63b8ff" points="156.06,-26.14 145.61,-27.86 154.85,-33.03 156.06,-26.14"/>
</a>
</g>
</g>
<!-- Node4 -->
<g id="Node000004" class="node">
<title>Node4</title>
<g id="a_Node000004"><a xlink:title=" ">
<polygon fill="#e0e0e0" stroke="#999999" points="354.25,-27.12 193.5,-27.12 193.5,-6.38 354.25,-6.38 354.25,-27.12"/>
<text text-anchor="middle" x="273.88" y="-13.62" font-family="Helvetica,sans-Serif" font-size="10.00">boost/outcome/std_result.hpp</text>
</a>
</g>
</g>
<!-- Node2&#45;&gt;Node4 -->
<g id="edge3_Node000002_Node000004" class="edge">
<title>Node2&#45;&gt;Node4</title>
<g id="a_edge3_Node000002_Node000004"><a xlink:title=" ">
<path fill="none" stroke="#63b8ff" d="M410.69,-69.05C383.6,-58.9 341.07,-42.95 310.62,-31.53"/>
<polygon fill="#63b8ff" stroke="#63b8ff" points="312.01,-28.31 301.42,-28.08 309.55,-34.87 312.01,-28.31"/>
</a>
</g>
</g>
<!-- Node5 -->
<g id="Node000005" class="node">
<title>Node5</title>
<g id="a_Node000005"><a xlink:title=" ">
<polygon fill="#e0e0e0" stroke="#999999" points="501.88,-33.5 371.88,-33.5 371.88,0 501.88,0 501.88,-33.5"/>
<text text-anchor="start" x="379.88" y="-20" font-family="Helvetica,sans-Serif" font-size="10.00">boost/outcome/success</text>
<text text-anchor="middle" x="436.88" y="-7.25" font-family="Helvetica,sans-Serif" font-size="10.00">_failure.hpp</text>
</a>
</g>
</g>
<!-- Node2&#45;&gt;Node5 -->
<g id="edge4_Node000002_Node000005" class="edge">
<title>Node2&#45;&gt;Node5</title>
<g id="a_edge4_Node000002_Node000005"><a xlink:title=" ">
<path fill="none" stroke="#63b8ff" d="M436.88,-69.05C436.88,-62.63 436.88,-53.9 436.88,-45.45"/>
<polygon fill="#63b8ff" stroke="#63b8ff" points="440.38,-45.5 436.88,-35.5 433.38,-45.5 440.38,-45.5"/>
</a>
</g>
</g>
<!-- Node6 -->
<g id="Node000006" class="node">
<title>Node6</title>
<g id="a_Node000006"><a xlink:title=" ">
<polygon fill="#e0e0e0" stroke="#999999" points="583.88,-27.12 519.88,-27.12 519.88,-6.38 583.88,-6.38 583.88,-27.12"/>
<text text-anchor="middle" x="551.88" y="-13.62" font-family="Helvetica,sans-Serif" font-size="10.00">exception</text>
</a>
</g>
</g>
<!-- Node2&#45;&gt;Node6 -->
<g id="edge5_Node000002_Node000006" class="edge">
<title>Node2&#45;&gt;Node6</title>
<g id="a_edge5_Node000002_Node000006"><a xlink:title=" ">
<path fill="none" stroke="#63b8ff" d="M455.35,-69.05C473.71,-59.3 502.12,-44.2 523.37,-32.9"/>
<polygon fill="#63b8ff" stroke="#63b8ff" points="524.92,-36.04 532.11,-28.26 521.63,-29.86 524.92,-36.04"/>
</a>
</g>
</g>
<!-- Node8 -->
<g id="Node000008" class="node">
<title>Node8</title>
<g id="a_Node000008"><a xlink:title=" ">
<polygon fill="#e0e0e0" stroke="#999999" points="633.38,-27.12 602.38,-27.12 602.38,-6.38 633.38,-6.38 633.38,-27.12"/>
<text text-anchor="middle" x="617.88" y="-13.62" font-family="Helvetica,sans-Serif" font-size="10.00">list</text>
</a>
</g>
</g>
<!-- Node7&#45;&gt;Node8 -->
<g id="edge7_Node000007_Node000008" class="edge">
<title>Node7&#45;&gt;Node8</title>
<g id="a_edge7_Node000007_Node000008"><a xlink:title=" ">
<path fill="none" stroke="#63b8ff" d="M780.66,-71.51C741.36,-64.77 686.79,-52.86 641.88,-33.5 641.53,-33.35 641.19,-33.2 640.84,-33.04"/>
<polygon fill="#63b8ff" stroke="#63b8ff" points="642.88,-30.17 632.44,-28.35 639.46,-36.28 642.88,-30.17"/>
</a>
</g>
</g>
<!-- Node9 -->
<g id="Node000009" class="node">
<title>Node9</title>
<g id="a_Node000009"><a xlink:title=" ">
<polygon fill="#e0e0e0" stroke="#999999" points="706.75,-27.12 651,-27.12 651,-6.38 706.75,-6.38 706.75,-27.12"/>
<text text-anchor="middle" x="678.88" y="-13.62" font-family="Helvetica,sans-Serif" font-size="10.00">optional</text>
</a>
</g>
</g>
<!-- Node7&#45;&gt;Node9 -->
<g id="edge8_Node000007_Node000009" class="edge">
<title>Node7&#45;&gt;Node9</title>
<g id="a_edge8_Node000007_Node000009"><a xlink:title=" ">
<path fill="none" stroke="#63b8ff" d="M806.76,-69.02C782.98,-59.99 746.96,-46.14 715.88,-33.5 714.57,-32.97 713.23,-32.42 711.89,-31.87"/>
<polygon fill="#63b8ff" stroke="#63b8ff" points="713.5,-28.75 702.92,-28.11 710.79,-35.2 713.5,-28.75"/>
</a>
</g>
</g>
<!-- Node10 -->
<g id="Node000010" class="node">
<title>Node10</title>
<g id="a_Node000010"><a xlink:title=" ">
<polygon fill="#e0e0e0" stroke="#999999" points="755.38,-27.12 724.38,-27.12 724.38,-6.38 755.38,-6.38 755.38,-27.12"/>
<text text-anchor="middle" x="739.88" y="-13.62" font-family="Helvetica,sans-Serif" font-size="10.00">set</text>
</a>
</g>
</g>
<!-- Node7&#45;&gt;Node10 -->
<g id="edge9_Node000007_Node000010" class="edge">
<title>Node7&#45;&gt;Node10</title>
<g id="a_edge9_Node000007_Node000010"><a xlink:title=" ">
<path fill="none" stroke="#63b8ff" d="M817.93,-69.05C803.43,-59.52 781.16,-44.88 764.11,-33.68"/>
<polygon fill="#63b8ff" stroke="#63b8ff" points="766.32,-30.95 756.04,-28.38 762.48,-36.8 766.32,-30.95"/>
</a>
</g>
</g>
<!-- Node11 -->
<g id="Node000011" class="node">
<title>Node11</title>
<g id="a_Node000011"><a xlink:title=" ">
<polygon fill="#e0e0e0" stroke="#999999" points="816.75,-27.12 773,-27.12 773,-6.38 816.75,-6.38 816.75,-27.12"/>
<text text-anchor="middle" x="794.88" y="-13.62" font-family="Helvetica,sans-Serif" font-size="10.00">string</text>
</a>
</g>
</g>
<!-- Node7&#45;&gt;Node11 -->
<g id="edge10_Node000007_Node000011" class="edge">
<title>Node7&#45;&gt;Node11</title>
<g id="a_edge10_Node000007_Node000011"><a xlink:title=" ">
<path fill="none" stroke="#63b8ff" d="M826.77,-69.05C821.42,-60.45 813.49,-47.69 806.87,-37.05"/>
<polygon fill="#63b8ff" stroke="#63b8ff" points="809.89,-35.28 801.64,-28.63 803.95,-38.97 809.89,-35.28"/>
</a>
</g>
</g>
<!-- Node12 -->
<g id="Node000012" class="node">
<title>Node12</title>
<g id="a_Node000012"><a xlink:title=" ">
<polygon fill="#e0e0e0" stroke="#999999" points="907,-27.12 834.75,-27.12 834.75,-6.38 907,-6.38 907,-27.12"/>
<text text-anchor="middle" x="870.88" y="-13.62" font-family="Helvetica,sans-Serif" font-size="10.00">string_view</text>
</a>
</g>
</g>
<!-- Node7&#45;&gt;Node12 -->
<g id="edge11_Node000007_Node000012" class="edge">
<title>Node7&#45;&gt;Node12</title>
<g id="a_edge11_Node000007_Node000012"><a xlink:title=" ">
<path fill="none" stroke="#63b8ff" d="M838.98,-69.05C844.33,-60.45 852.26,-47.69 858.88,-37.05"/>
<polygon fill="#63b8ff" stroke="#63b8ff" points="861.8,-38.97 864.11,-28.63 855.86,-35.28 861.8,-38.97"/>
</a>
</g>
</g>
<!-- Node13 -->
<g id="Node000013" class="node">
<title>Node13</title>
<g id="a_Node000013"><a xlink:title=" ">
<polygon fill="#e0e0e0" stroke="#999999" points="962.75,-27.12 925,-27.12 925,-6.38 962.75,-6.38 962.75,-27.12"/>
<text text-anchor="middle" x="943.88" y="-13.62" font-family="Helvetica,sans-Serif" font-size="10.00">map</text>
</a>
</g>
</g>
<!-- Node7&#45;&gt;Node13 -->
<g id="edge12_Node000007_Node000013" class="edge">
<title>Node7&#45;&gt;Node13</title>
<g id="a_edge12_Node000007_Node000013"><a xlink:title=" ">
<path fill="none" stroke="#63b8ff" d="M851.04,-69.02C867.88,-59.88 893.61,-45.85 915.88,-33.5 916.09,-33.38 916.3,-33.26 916.52,-33.14"/>
<polygon fill="#63b8ff" stroke="#63b8ff" points="918.07,-36.28 925.1,-28.35 914.66,-30.17 918.07,-36.28"/>
</a>
</g>
</g>
<!-- Node14 -->
<g id="Node000014" class="node">
<title>Node14</title>
<g id="a_Node000014"><a xlink:title=" ">
<polygon fill="#e0e0e0" stroke="#999999" points="1027.25,-27.12 980.5,-27.12 980.5,-6.38 1027.25,-6.38 1027.25,-27.12"/>
<text text-anchor="middle" x="1003.88" y="-13.62" font-family="Helvetica,sans-Serif" font-size="10.00">vector</text>
</a>
</g>
</g>
<!-- Node7&#45;&gt;Node14 -->
<g id="edge13_Node000007_Node000014" class="edge">
<title>Node7&#45;&gt;Node14</title>
<g id="a_edge13_Node000007_Node000014"><a xlink:title=" ">
<path fill="none" stroke="#63b8ff" d="M867.64,-69.02C896.06,-60.61 937.08,-47.66 971.88,-33.5 972.83,-33.11 973.79,-32.71 974.76,-32.29"/>
<polygon fill="#63b8ff" stroke="#63b8ff" points="976.13,-35.52 983.75,-28.16 973.2,-29.16 976.13,-35.52"/>
</a>
</g>
</g>
<!-- Node15 -->
<g id="Node000015" class="node">
<title>Node15</title>
<g id="a_Node000015"><a xlink:title=" ">
<polygon fill="#e0e0e0" stroke="#999999" points="1084.5,-27.12 1045.25,-27.12 1045.25,-6.38 1084.5,-6.38 1084.5,-27.12"/>
<text text-anchor="middle" x="1064.88" y="-13.62" font-family="Helvetica,sans-Serif" font-size="10.00">span</text>
</a>
</g>
</g>
<!-- Node7&#45;&gt;Node15 -->
<g id="edge14_Node000007_Node000015" class="edge">
<title>Node7&#45;&gt;Node15</title>
<g id="a_edge14_Node000007_Node000015"><a xlink:title=" ">
<path fill="none" stroke="#63b8ff" d="M884.28,-69.08C934.93,-59.12 1008.57,-43.74 1035.88,-33.5 1036.81,-33.15 1037.76,-32.77 1038.71,-32.37"/>
<polygon fill="#63b8ff" stroke="#63b8ff" points="1039.83,-35.72 1047.32,-28.22 1036.79,-29.41 1039.83,-35.72"/>
</a>
</g>
</g>
<!-- Node16 -->
<g id="Node000016" class="node">
<title>Node16</title>
<g id="a_Node000016"><a xlink:title=" ">
<polygon fill="#e0e0e0" stroke="#999999" points="1155.25,-27.12 1102.5,-27.12 1102.5,-6.38 1155.25,-6.38 1155.25,-27.12"/>
<text text-anchor="middle" x="1128.88" y="-13.62" font-family="Helvetica,sans-Serif" font-size="10.00">stdint.h</text>
</a>
</g>
</g>
<!-- Node7&#45;&gt;Node16 -->
<g id="edge15_Node000007_Node000016" class="edge">
<title>Node7&#45;&gt;Node16</title>
<g id="a_edge15_Node000007_Node000016"><a xlink:title=" ">
<path fill="none" stroke="#63b8ff" d="M885.05,-70.52C955.43,-59.15 1074.28,-39.51 1093.88,-33.5 1095.67,-32.95 1097.5,-32.33 1099.32,-31.66"/>
<polygon fill="#63b8ff" stroke="#63b8ff" points="1100.25,-35.06 1108.19,-28.04 1097.61,-28.58 1100.25,-35.06"/>
</a>
</g>
</g>
</g>
</svg>
