<?xml version="1.0" encoding="UTF-8" standalone="no"?>
<!DOCTYPE svg PUBLIC "-//W3C//DTD SVG 1.1//EN"
 "http://www.w3.org/Graphics/SVG/1.1/DTD/svg11.dtd">
<!-- Generated by graphviz version 12.2.1 (0)
 -->
<!-- Title: lix/libexpr/gc&#45;small&#45;vector.hh Pages: 1 -->
<svg width="760pt" height="237pt"
 viewBox="0.00 0.00 760.25 237.25" xmlns="http://www.w3.org/2000/svg" xmlns:xlink="http://www.w3.org/1999/xlink">
<g id="graph0" class="graph" transform="scale(1 1) rotate(0) translate(4 233.25)">
<title>lix/libexpr/gc&#45;small&#45;vector.hh</title>
<!-- Node1 -->
<g id="Node000001" class="node">
<title>Node1</title>
<g id="a_Node000001"><a xlink:title=" ">
<polygon fill="#999999" stroke="#666666" points="371.88,-229.25 262.12,-229.25 262.12,-195.75 371.88,-195.75 371.88,-229.25"/>
<text text-anchor="start" x="270.12" y="-215.75" font-family="Helvetica,sans-Serif" font-size="10.00">lix/libexpr/gc&#45;small</text>
<text text-anchor="middle" x="317" y="-203" font-family="Helvetica,sans-Serif" font-size="10.00">&#45;vector.hh</text>
</a>
</g>
</g>
<!-- Node2 -->
<g id="Node000002" class="node">
<title>Node2</title>
<g id="a_Node000002"><a xlink:href="gc-alloc_8hh_source.html" target="_top" xlink:title=" ">
<polygon fill="white" stroke="#666666" points="294.62,-153.38 225.38,-153.38 225.38,-132.62 294.62,-132.62 294.62,-153.38"/>
<text text-anchor="middle" x="260" y="-139.88" font-family="Helvetica,sans-Serif" font-size="10.00">gc&#45;alloc.hh</text>
</a>
</g>
</g>
<!-- Node1&#45;&gt;Node2 -->
<g id="edge1_Node000001_Node000002" class="edge">
<title>Node1&#45;&gt;Node2</title>
<g id="a_edge1_Node000001_Node000002"><a xlink:title=" ">
<path fill="none" stroke="#63b8ff" d="M303.49,-195.5C295.12,-185.59 284.34,-172.83 275.61,-162.49"/>
<polygon fill="#63b8ff" stroke="#63b8ff" points="278.4,-160.36 269.27,-154.98 273.05,-164.88 278.4,-160.36"/>
</a>
</g>
</g>
<!-- Node19 -->
<g id="Node000019" class="node">
<title>Node19</title>
<g id="a_Node000019"><a xlink:title=" ">
<polygon fill="#e0e0e0" stroke="#999999" points="434.88,-159.75 313.12,-159.75 313.12,-126.25 434.88,-126.25 434.88,-159.75"/>
<text text-anchor="start" x="321.12" y="-146.25" font-family="Helvetica,sans-Serif" font-size="10.00">boost/container/small</text>
<text text-anchor="middle" x="374" y="-133.5" font-family="Helvetica,sans-Serif" font-size="10.00">_vector.hpp</text>
</a>
</g>
</g>
<!-- Node1&#45;&gt;Node19 -->
<g id="edge18_Node000001_Node000019" class="edge">
<title>Node1&#45;&gt;Node19</title>
<g id="a_edge18_Node000001_Node000019"><a xlink:title=" ">
<path fill="none" stroke="#63b8ff" d="M330.51,-195.5C337.32,-187.43 345.74,-177.47 353.34,-168.46"/>
<polygon fill="#63b8ff" stroke="#63b8ff" points="355.83,-170.94 359.61,-161.04 350.49,-166.42 355.83,-170.94"/>
</a>
</g>
</g>
<!-- Node3 -->
<g id="Node000003" class="node">
<title>Node3</title>
<g id="a_Node000003"><a xlink:title=" ">
<polygon fill="#e0e0e0" stroke="#999999" points="52,-83.88 0,-83.88 0,-63.12 52,-63.12 52,-83.88"/>
<text text-anchor="middle" x="26" y="-70.38" font-family="Helvetica,sans-Serif" font-size="10.00">cstddef</text>
</a>
</g>
</g>
<!-- Node2&#45;&gt;Node3 -->
<g id="edge2_Node000002_Node000003" class="edge">
<title>Node2&#45;&gt;Node3</title>
<g id="a_edge2_Node000002_Node000003"><a xlink:title=" ">
<path fill="none" stroke="#63b8ff" d="M225.17,-134.64C185.24,-125.8 118.06,-109.7 62,-90.25 60.43,-89.7 58.83,-89.12 57.22,-88.51"/>
<polygon fill="#63b8ff" stroke="#63b8ff" points="58.7,-85.33 48.12,-84.8 56.06,-91.81 58.7,-85.33"/>
</a>
</g>
</g>
<!-- Node4 -->
<g id="Node000004" class="node">
<title>Node4</title>
<g id="a_Node000004"><a xlink:title=" ">
<polygon fill="#e0e0e0" stroke="#999999" points="119.5,-83.88 70.5,-83.88 70.5,-63.12 119.5,-63.12 119.5,-83.88"/>
<text text-anchor="middle" x="95" y="-70.38" font-family="Helvetica,sans-Serif" font-size="10.00">cstring</text>
</a>
</g>
</g>
<!-- Node2&#45;&gt;Node4 -->
<g id="edge3_Node000002_Node000004" class="edge">
<title>Node2&#45;&gt;Node4</title>
<g id="a_edge3_Node000002_Node000004"><a xlink:title=" ">
<path fill="none" stroke="#63b8ff" d="M233.72,-132.13C207.14,-122.03 164.96,-105.67 129,-90.25 128.06,-89.85 127.1,-89.43 126.14,-89.01"/>
<polygon fill="#63b8ff" stroke="#63b8ff" points="127.71,-85.88 117.15,-84.97 124.84,-92.26 127.71,-85.88"/>
</a>
</g>
</g>
<!-- Node5 -->
<g id="Node000005" class="node">
<title>Node5</title>
<g id="a_Node000005"><a xlink:title=" ">
<polygon fill="#e0e0e0" stroke="#999999" points="168.5,-83.88 137.5,-83.88 137.5,-63.12 168.5,-63.12 168.5,-83.88"/>
<text text-anchor="middle" x="153" y="-70.38" font-family="Helvetica,sans-Serif" font-size="10.00">list</text>
</a>
</g>
</g>
<!-- Node2&#45;&gt;Node5 -->
<g id="edge4_Node000002_Node000005" class="edge">
<title>Node2&#45;&gt;Node5</title>
<g id="a_edge4_Node000002_Node000005"><a xlink:title=" ">
<path fill="none" stroke="#63b8ff" d="M244.02,-132.19C228.89,-122.87 205.36,-108.29 177.05,-90.21"/>
<polygon fill="#63b8ff" stroke="#63b8ff" points="179.27,-87.48 168.96,-85.03 175.5,-93.37 179.27,-87.48"/>
</a>
</g>
</g>
<!-- Node6 -->
<g id="Node000006" class="node">
<title>Node6</title>
<g id="a_Node000006"><a xlink:title=" ">
<polygon fill="#e0e0e0" stroke="#999999" points="223.88,-83.88 186.12,-83.88 186.12,-63.12 223.88,-63.12 223.88,-83.88"/>
<text text-anchor="middle" x="205" y="-70.38" font-family="Helvetica,sans-Serif" font-size="10.00">map</text>
</a>
</g>
</g>
<!-- Node2&#45;&gt;Node6 -->
<g id="edge5_Node000002_Node000006" class="edge">
<title>Node2&#45;&gt;Node6</title>
<g id="a_edge5_Node000002_Node000006"><a xlink:title=" ">
<path fill="none" stroke="#63b8ff" d="M252.12,-132.33C243.79,-122.1 230.44,-105.73 220.08,-93"/>
<polygon fill="#63b8ff" stroke="#63b8ff" points="222.85,-90.87 213.82,-85.33 217.43,-95.29 222.85,-90.87"/>
</a>
</g>
</g>
<!-- Node7 -->
<g id="Node000007" class="node">
<title>Node7</title>
<g id="a_Node000007"><a xlink:title=" ">
<polygon fill="#e0e0e0" stroke="#999999" points="278.12,-83.88 241.88,-83.88 241.88,-63.12 278.12,-63.12 278.12,-83.88"/>
<text text-anchor="middle" x="260" y="-70.38" font-family="Helvetica,sans-Serif" font-size="10.00">new</text>
</a>
</g>
</g>
<!-- Node2&#45;&gt;Node7 -->
<g id="edge6_Node000002_Node000007" class="edge">
<title>Node2&#45;&gt;Node7</title>
<g id="a_edge6_Node000002_Node000007"><a xlink:title=" ">
<path fill="none" stroke="#63b8ff" d="M260,-132.33C260,-122.71 260,-107.63 260,-95.29"/>
<polygon fill="#63b8ff" stroke="#63b8ff" points="263.5,-95.67 260,-85.67 256.5,-95.67 263.5,-95.67"/>
</a>
</g>
</g>
<!-- Node8 -->
<g id="Node000008" class="node">
<title>Node8</title>
<g id="a_Node000008"><a xlink:title=" ">
<polygon fill="#e0e0e0" stroke="#999999" points="368.12,-83.88 295.88,-83.88 295.88,-63.12 368.12,-63.12 368.12,-83.88"/>
<text text-anchor="middle" x="332" y="-70.38" font-family="Helvetica,sans-Serif" font-size="10.00">string_view</text>
</a>
</g>
</g>
<!-- Node2&#45;&gt;Node8 -->
<g id="edge7_Node000002_Node000008" class="edge">
<title>Node2&#45;&gt;Node8</title>
<g id="a_edge7_Node000002_Node000008"><a xlink:title=" ">
<path fill="none" stroke="#63b8ff" d="M270.32,-132.33C281.54,-121.8 299.73,-104.76 313.45,-91.89"/>
<polygon fill="#63b8ff" stroke="#63b8ff" points="315.7,-94.58 320.6,-85.19 310.91,-89.47 315.7,-94.58"/>
</a>
</g>
</g>
<!-- Node9 -->
<g id="Node000009" class="node">
<title>Node9</title>
<g id="a_Node000009"><a xlink:title=" ">
<polygon fill="#e0e0e0" stroke="#999999" points="433.38,-83.88 386.62,-83.88 386.62,-63.12 433.38,-63.12 433.38,-83.88"/>
<text text-anchor="middle" x="410" y="-70.38" font-family="Helvetica,sans-Serif" font-size="10.00">vector</text>
</a>
</g>
</g>
<!-- Node2&#45;&gt;Node9 -->
<g id="edge8_Node000002_Node000009" class="edge">
<title>Node2&#45;&gt;Node9</title>
<g id="a_edge8_Node000002_Node000009"><a xlink:title=" ">
<path fill="none" stroke="#63b8ff" d="M282.52,-132.27C306.14,-122.01 344.31,-105.28 377,-90.25 377.91,-89.83 378.83,-89.41 379.76,-88.98"/>
<polygon fill="#63b8ff" stroke="#63b8ff" points="380.87,-92.32 388.43,-84.9 377.89,-85.99 380.87,-92.32"/>
</a>
</g>
</g>
<!-- Node10 -->
<g id="Node000010" class="node">
<title>Node10</title>
<g id="a_Node000010"><a xlink:href="checked-arithmetic_8hh_source.html" target="_top" xlink:title=" ">
<polygon fill="white" stroke="#666666" points="552.75,-90.25 451.25,-90.25 451.25,-56.75 552.75,-56.75 552.75,-90.25"/>
<text text-anchor="start" x="459.25" y="-76.75" font-family="Helvetica,sans-Serif" font-size="10.00">lix/libutil/checked</text>
<text text-anchor="middle" x="502" y="-64" font-family="Helvetica,sans-Serif" font-size="10.00">&#45;arithmetic.hh</text>
</a>
</g>
</g>
<!-- Node2&#45;&gt;Node10 -->
<g id="edge9_Node000002_Node000010" class="edge">
<title>Node2&#45;&gt;Node10</title>
<g id="a_edge9_Node000002_Node000010"><a xlink:title=" ">
<path fill="none" stroke="#63b8ff" d="M285.93,-132.29C291.84,-130.2 298.11,-128.07 304,-126.25 361.25,-108.57 378.78,-106.49 439.88,-90.78"/>
<polygon fill="#63b8ff" stroke="#63b8ff" points="440.67,-94.19 449.47,-88.29 438.91,-87.41 440.67,-94.19"/>
</a>
</g>
</g>
<!-- Node18 -->
<g id="Node000018" class="node">
<title>Node18</title>
<g id="a_Node000018"><a xlink:title=" ">
<polygon fill="#e0e0e0" stroke="#999999" points="619.12,-83.88 570.88,-83.88 570.88,-63.12 619.12,-63.12 619.12,-83.88"/>
<text text-anchor="middle" x="595" y="-70.38" font-family="Helvetica,sans-Serif" font-size="10.00">cstdlib</text>
</a>
</g>
</g>
<!-- Node2&#45;&gt;Node18 -->
<g id="edge17_Node000002_Node000018" class="edge">
<title>Node2&#45;&gt;Node18</title>
<g id="a_edge17_Node000002_Node000018"><a xlink:title=" ">
<path fill="none" stroke="#63b8ff" d="M284.4,-132.27C290.7,-130.03 297.54,-127.84 304,-126.25 416.43,-98.6 451.12,-123.58 562,-90.25 563.56,-89.78 565.13,-89.25 566.71,-88.67"/>
<polygon fill="#63b8ff" stroke="#63b8ff" points="567.66,-92.07 575.5,-84.95 564.93,-85.62 567.66,-92.07"/>
</a>
</g>
</g>
<!-- Node11 -->
<g id="Node000011" class="node">
<title>Node11</title>
<g id="a_Node000011"><a xlink:title=" ">
<polygon fill="#e0e0e0" stroke="#999999" points="296.38,-20.75 237.62,-20.75 237.62,0 296.38,0 296.38,-20.75"/>
<text text-anchor="middle" x="267" y="-7.25" font-family="Helvetica,sans-Serif" font-size="10.00">compare</text>
</a>
</g>
</g>
<!-- Node10&#45;&gt;Node11 -->
<g id="edge10_Node000010_Node000011" class="edge">
<title>Node10&#45;&gt;Node11</title>
<g id="a_edge10_Node000010_Node000011"><a xlink:title=" ">
<path fill="none" stroke="#63b8ff" d="M450.94,-59.09C447.92,-58.29 444.92,-57.51 442,-56.75 395.96,-44.74 343.08,-31.04 307.61,-21.87"/>
<polygon fill="#63b8ff" stroke="#63b8ff" points="308.76,-18.55 298.2,-19.43 307,-25.33 308.76,-18.55"/>
</a>
</g>
</g>
<!-- Node12 -->
<g id="Node000012" class="node">
<title>Node12</title>
<g id="a_Node000012"><a xlink:title=" ">
<polygon fill="#e0e0e0" stroke="#999999" points="373.75,-20.75 314.25,-20.75 314.25,0 373.75,0 373.75,-20.75"/>
<text text-anchor="middle" x="344" y="-7.25" font-family="Helvetica,sans-Serif" font-size="10.00">concepts</text>
</a>
</g>
</g>
<!-- Node10&#45;&gt;Node12 -->
<g id="edge11_Node000010_Node000012" class="edge">
<title>Node10&#45;&gt;Node12</title>
<g id="a_edge11_Node000010_Node000012"><a xlink:title=" ">
<path fill="none" stroke="#63b8ff" d="M460.07,-56.28C435.13,-46.63 403.82,-34.52 380,-25.3"/>
<polygon fill="#63b8ff" stroke="#63b8ff" points="381.31,-22.06 370.72,-21.71 378.78,-28.58 381.31,-22.06"/>
</a>
</g>
</g>
<!-- Node13 -->
<g id="Node000013" class="node">
<title>Node13</title>
<g id="a_Node000013"><a xlink:title=" ">
<polygon fill="#e0e0e0" stroke="#999999" points="456,-20.75 392,-20.75 392,0 456,0 456,-20.75"/>
<text text-anchor="middle" x="424" y="-7.25" font-family="Helvetica,sans-Serif" font-size="10.00">exception</text>
</a>
</g>
</g>
<!-- Node10&#45;&gt;Node13 -->
<g id="edge12_Node000010_Node000013" class="edge">
<title>Node10&#45;&gt;Node13</title>
<g id="a_edge12_Node000010_Node000013"><a xlink:title=" ">
<path fill="none" stroke="#63b8ff" d="M481.51,-56.44C470.36,-47.71 456.6,-36.92 445.33,-28.09"/>
<polygon fill="#63b8ff" stroke="#63b8ff" points="447.78,-25.56 437.75,-22.15 443.46,-31.07 447.78,-25.56"/>
</a>
</g>
</g>
<!-- Node14 -->
<g id="Node000014" class="node">
<title>Node14</title>
<g id="a_Node000014"><a xlink:title=" ">
<polygon fill="#e0e0e0" stroke="#999999" points="530.25,-20.75 473.75,-20.75 473.75,0 530.25,0 530.25,-20.75"/>
<text text-anchor="middle" x="502" y="-7.25" font-family="Helvetica,sans-Serif" font-size="10.00">ostream</text>
</a>
</g>
</g>
<!-- Node10&#45;&gt;Node14 -->
<g id="edge13_Node000010_Node000014" class="edge">
<title>Node10&#45;&gt;Node14</title>
<g id="a_edge13_Node000010_Node000014"><a xlink:title=" ">
<path fill="none" stroke="#63b8ff" d="M502,-56.44C502,-49.1 502,-40.32 502,-32.46"/>
<polygon fill="#63b8ff" stroke="#63b8ff" points="505.5,-32.73 502,-22.73 498.5,-32.73 505.5,-32.73"/>
</a>
</g>
</g>
<!-- Node15 -->
<g id="Node000015" class="node">
<title>Node15</title>
<g id="a_Node000015"><a xlink:title=" ">
<polygon fill="#e0e0e0" stroke="#999999" points="591.88,-20.75 548.12,-20.75 548.12,0 591.88,0 591.88,-20.75"/>
<text text-anchor="middle" x="570" y="-7.25" font-family="Helvetica,sans-Serif" font-size="10.00">limits</text>
</a>
</g>
</g>
<!-- Node10&#45;&gt;Node15 -->
<g id="edge14_Node000010_Node000015" class="edge">
<title>Node10&#45;&gt;Node15</title>
<g id="a_edge14_Node000010_Node000015"><a xlink:title=" ">
<path fill="none" stroke="#63b8ff" d="M519.87,-56.44C529.29,-47.97 540.86,-37.56 550.52,-28.89"/>
<polygon fill="#63b8ff" stroke="#63b8ff" points="552.83,-31.52 557.93,-22.23 548.15,-26.31 552.83,-31.52"/>
</a>
</g>
</g>
<!-- Node16 -->
<g id="Node000016" class="node">
<title>Node16</title>
<g id="a_Node000016"><a xlink:title=" ">
<polygon fill="#e0e0e0" stroke="#999999" points="665.88,-20.75 610.12,-20.75 610.12,0 665.88,0 665.88,-20.75"/>
<text text-anchor="middle" x="638" y="-7.25" font-family="Helvetica,sans-Serif" font-size="10.00">optional</text>
</a>
</g>
</g>
<!-- Node10&#45;&gt;Node16 -->
<g id="edge15_Node000010_Node000016" class="edge">
<title>Node10&#45;&gt;Node16</title>
<g id="a_edge15_Node000010_Node000016"><a xlink:title=" ">
<path fill="none" stroke="#63b8ff" d="M538.09,-56.28C559.17,-46.81 585.54,-34.95 605.89,-25.81"/>
<polygon fill="#63b8ff" stroke="#63b8ff" points="607.15,-29.08 614.84,-21.79 604.28,-22.69 607.15,-29.08"/>
</a>
</g>
</g>
<!-- Node17 -->
<g id="Node000017" class="node">
<title>Node17</title>
<g id="a_Node000017"><a xlink:title=" ">
<polygon fill="#e0e0e0" stroke="#999999" points="752.25,-20.75 683.75,-20.75 683.75,0 752.25,0 752.25,-20.75"/>
<text text-anchor="middle" x="718" y="-7.25" font-family="Helvetica,sans-Serif" font-size="10.00">type_traits</text>
</a>
</g>
</g>
<!-- Node10&#45;&gt;Node17 -->
<g id="edge16_Node000010_Node000017" class="edge">
<title>Node10&#45;&gt;Node17</title>
<g id="a_edge16_Node000010_Node000017"><a xlink:title=" ">
<path fill="none" stroke="#63b8ff" d="M553.19,-58.01C589.44,-47.76 637.62,-34.12 672.52,-24.25"/>
<polygon fill="#63b8ff" stroke="#63b8ff" points="673.23,-27.68 681.9,-21.59 671.32,-20.95 673.23,-27.68"/>
</a>
</g>
</g>
</g>
</svg>
