<?xml version="1.0" encoding="UTF-8" standalone="no"?>
<!DOCTYPE svg PUBLIC "-//W3C//DTD SVG 1.1//EN"
 "http://www.w3.org/Graphics/SVG/1.1/DTD/svg11.dtd">
<!-- Generated by graphviz version 12.2.1 (0)
 -->
<!-- Title: Graphical Class Hierarchy Pages: 1 -->
<svg width="317pt" height="80pt"
 viewBox="0.00 0.00 316.75 80.12" xmlns="http://www.w3.org/2000/svg" xmlns:xlink="http://www.w3.org/1999/xlink">
<g id="graph0" class="graph" transform="scale(1 1) rotate(0) translate(4 76.12)">
<title>Graphical Class Hierarchy</title>
<!-- Node0 -->
<g id="Node000000" class="node">
<title>Node0</title>
<g id="a_Node000000"><a xlink:href="structnix_1_1NARParseVisitor.html" target="_top" xlink:title=" ">
<polygon fill="white" stroke="#666666" points="115.75,-49.12 0,-49.12 0,-28.38 115.75,-28.38 115.75,-49.12"/>
<text text-anchor="middle" x="57.88" y="-35.62" font-family="Helvetica,sans-Serif" font-size="10.00">nix::NARParseVisitor</text>
</a>
</g>
</g>
<!-- Node1 -->
<g id="Node000001" class="node">
<title>Node1</title>
<g id="a_Node000001"><a xlink:href="structnix_1_1NARRestoreVisitor.html" target="_top" xlink:title=" ">
<polygon fill="white" stroke="#666666" points="293.75,-72.12 166.75,-72.12 166.75,-51.38 293.75,-51.38 293.75,-72.12"/>
<text text-anchor="middle" x="230.25" y="-58.62" font-family="Helvetica,sans-Serif" font-size="10.00">nix::NARRestoreVisitor</text>
</a>
</g>
</g>
<!-- Node0&#45;&gt;Node1 -->
<g id="edge358_Node000000_Node000001" class="edge">
<title>Node0&#45;&gt;Node1</title>
<g id="a_edge358_Node000000_Node000001"><a xlink:title=" ">
<path fill="none" stroke="#63b8ff" d="M127.26,-47.98C140.16,-49.72 153.61,-51.54 166.34,-53.26"/>
<polygon fill="#63b8ff" stroke="#63b8ff" points="127.96,-44.54 117.58,-46.68 127.02,-51.48 127.96,-44.54"/>
</a>
</g>
</g>
<!-- Node2 -->
<g id="Node000002" class="node">
<title>Node2</title>
<g id="a_Node000002"><a xlink:href="structnix_1_1parseAsync_1_1ReconstructVisitor.html" target="_top" xlink:title=" ">
<polygon fill="white" stroke="#666666" points="308.75,-33.5 151.75,-33.5 151.75,0 308.75,0 308.75,-33.5"/>
<text text-anchor="start" x="159.75" y="-20" font-family="Helvetica,sans-Serif" font-size="10.00">nix::parseAsync::Reconstruct</text>
<text text-anchor="middle" x="230.25" y="-7.25" font-family="Helvetica,sans-Serif" font-size="10.00">Visitor</text>
</a>
</g>
</g>
<!-- Node0&#45;&gt;Node2 -->
<g id="edge359_Node000000_Node000002" class="edge">
<title>Node0&#45;&gt;Node2</title>
<g id="a_edge359_Node000000_Node000002"><a xlink:title=" ">
<path fill="none" stroke="#63b8ff" d="M127.42,-29.9C135.28,-28.88 143.34,-27.84 151.31,-26.81"/>
<polygon fill="#63b8ff" stroke="#63b8ff" points="127.05,-26.42 117.58,-31.17 127.95,-33.36 127.05,-26.42"/>
</a>
</g>
</g>
</g>
</svg>
