<?xml version="1.0" encoding="UTF-8" standalone="no"?>
<!DOCTYPE svg PUBLIC "-//W3C//DTD SVG 1.1//EN"
 "http://www.w3.org/Graphics/SVG/1.1/DTD/svg11.dtd">
<!-- Generated by graphviz version 12.2.1 (0)
 -->
<!-- Title: Graphical Class Hierarchy Pages: 1 -->
<svg width="394pt" height="119pt"
 viewBox="0.00 0.00 394.25 119.12" xmlns="http://www.w3.org/2000/svg" xmlns:xlink="http://www.w3.org/1999/xlink">
<g id="graph0" class="graph" transform="scale(1 1) rotate(0) translate(4 115.12)">
<title>Graphical Class Hierarchy</title>
<!-- Node0 -->
<g id="Node000000" class="node">
<title>Node0</title>
<g id="a_Node000000"><a xlink:href="structnix_1_1NeverAsync.html" target="_top" xlink:title=" ">
<polygon fill="white" stroke="#666666" points="95.5,-91.12 0,-91.12 0,-70.38 95.5,-70.38 95.5,-91.12"/>
<text text-anchor="middle" x="47.75" y="-77.62" font-family="Helvetica,sans-Serif" font-size="10.00">nix::NeverAsync</text>
</a>
</g>
</g>
<!-- Node1 -->
<g id="Node000001" class="node">
<title>Node1</title>
<g id="a_Node000001"><a xlink:href="structnix_1_1AbstractNixRepl.html" target="_top" xlink:title=" ">
<polygon fill="white" stroke="#666666" points="261.12,-111.12 145.38,-111.12 145.38,-90.38 261.12,-90.38 261.12,-111.12"/>
<text text-anchor="middle" x="203.25" y="-97.62" font-family="Helvetica,sans-Serif" font-size="10.00">nix::AbstractNixRepl</text>
</a>
</g>
</g>
<!-- Node0&#45;&gt;Node1 -->
<g id="edge361_Node000000_Node000001" class="edge">
<title>Node0&#45;&gt;Node1</title>
<g id="a_edge361_Node000000_Node000001"><a xlink:title=" ">
<path fill="none" stroke="#63b8ff" d="M106.89,-88.33C119.41,-89.96 132.62,-91.68 145.1,-93.3"/>
<polygon fill="#63b8ff" stroke="#63b8ff" points="107.51,-84.88 97.14,-87.05 106.6,-91.82 107.51,-84.88"/>
</a>
</g>
</g>
<!-- Node4 -->
<g id="Node000004" class="node">
<title>Node4</title>
<g id="a_Node000004"><a xlink:href="structnix_1_1CompareValues.html" target="_top" xlink:title=" ">
<polygon fill="white" stroke="#666666" points="260,-72.12 146.5,-72.12 146.5,-51.38 260,-51.38 260,-72.12"/>
<text text-anchor="middle" x="203.25" y="-58.62" font-family="Helvetica,sans-Serif" font-size="10.00">nix::CompareValues</text>
</a>
</g>
</g>
<!-- Node0&#45;&gt;Node4 -->
<g id="edge363_Node000000_Node000004" class="edge">
<title>Node0&#45;&gt;Node4</title>
<g id="a_edge363_Node000000_Node000004"><a xlink:title=" ">
<path fill="none" stroke="#63b8ff" d="M106.76,-73.57C119.68,-71.97 133.36,-70.28 146.2,-68.69"/>
<polygon fill="#63b8ff" stroke="#63b8ff" points="106.64,-70.06 97.14,-74.76 107.5,-77.01 106.64,-70.06"/>
</a>
</g>
</g>
<!-- Node2 -->
<g id="Node000002" class="node">
<title>Node2</title>
<g id="a_Node000002"><a xlink:href="structnix_1_1NixRepl.html" target="_top" xlink:title=" ">
<polygon fill="white" stroke="#666666" points="386.25,-69.12 311,-69.12 311,-48.38 386.25,-48.38 386.25,-69.12"/>
<text text-anchor="middle" x="348.62" y="-55.62" font-family="Helvetica,sans-Serif" font-size="10.00">nix::NixRepl</text>
</a>
</g>
</g>
<!-- Node1&#45;&gt;Node2 -->
<g id="edge362_Node000001_Node000002" class="edge">
<title>Node1&#45;&gt;Node2</title>
<g id="a_edge362_Node000001_Node000002"><a xlink:title=" ">
<path fill="none" stroke="#63b8ff" d="M254.1,-86.78C261.12,-84.78 268.25,-82.73 275,-80.75 287.14,-77.2 300.39,-73.21 312.2,-69.62"/>
<polygon fill="#63b8ff" stroke="#63b8ff" points="253.33,-83.36 244.67,-89.46 255.24,-90.1 253.33,-83.36"/>
</a>
</g>
</g>
<!-- Node3 -->
<g id="Node000003" class="node">
<title>Node3</title>
<g id="a_Node000003"><a xlink:href="structnix_1_1detail_1_1ReplCompleterMixin.html" target="_top" xlink:title=" ">
<polygon fill="white" stroke="#666666" points="275,-33.5 131.5,-33.5 131.5,0 275,0 275,-33.5"/>
<text text-anchor="start" x="139.5" y="-20" font-family="Helvetica,sans-Serif" font-size="10.00">nix::detail::ReplCompleter</text>
<text text-anchor="middle" x="203.25" y="-7.25" font-family="Helvetica,sans-Serif" font-size="10.00">Mixin</text>
</a>
</g>
</g>
<!-- Node3&#45;&gt;Node2 -->
<g id="edge364_Node000003_Node000002" class="edge">
<title>Node3&#45;&gt;Node2</title>
<g id="a_edge364_Node000003_Node000002"><a xlink:title=" ">
<path fill="none" stroke="#63b8ff" d="M274.01,-37.19C286.63,-40.88 299.34,-44.6 310.55,-47.89"/>
<polygon fill="#63b8ff" stroke="#63b8ff" points="275.01,-33.83 264.43,-34.38 273.05,-40.55 275.01,-33.83"/>
</a>
</g>
</g>
</g>
</svg>
