<?xml version="1.0" encoding="UTF-8" standalone="no"?>
<!DOCTYPE svg PUBLIC "-//W3C//DTD SVG 1.1//EN"
 "http://www.w3.org/Graphics/SVG/1.1/DTD/svg11.dtd">
<!-- Generated by graphviz version 12.2.1 (0)
 -->
<!-- Title: Graphical Class Hierarchy Pages: 1 -->
<svg width="278pt" height="119pt"
 viewBox="0.00 0.00 277.75 119.12" xmlns="http://www.w3.org/2000/svg" xmlns:xlink="http://www.w3.org/1999/xlink">
<g id="graph0" class="graph" transform="scale(1 1) rotate(0) translate(4 115.12)">
<title>Graphical Class Hierarchy</title>
<!-- Node0 -->
<g id="Node000000" class="node">
<title>Node0</title>
<g id="a_Node000000"><a xlink:title=" ">
<polygon fill="#e0e0e0" stroke="#999999" points="89.5,-59.75 0,-59.75 0,-39 89.5,-39 89.5,-59.75"/>
<text text-anchor="middle" x="44.75" y="-46.25" font-family="Helvetica,sans-Serif" font-size="10.00">std::monostate</text>
</a>
</g>
</g>
<!-- Node1 -->
<g id="Node000001" class="node">
<title>Node1</title>
<g id="a_Node000001"><a xlink:href="structnix_1_1ExtendedOutputsSpec_1_1Default.html" target="_top" xlink:title=" ">
<polygon fill="white" stroke="#666666" points="269.75,-111.12 125.5,-111.12 125.5,-77.62 269.75,-77.62 269.75,-111.12"/>
<text text-anchor="start" x="133.5" y="-97.62" font-family="Helvetica,sans-Serif" font-size="10.00">nix::ExtendedOutputsSpec</text>
<text text-anchor="middle" x="197.62" y="-84.88" font-family="Helvetica,sans-Serif" font-size="10.00">::Default</text>
</a>
</g>
</g>
<!-- Node0&#45;&gt;Node1 -->
<g id="edge457_Node000000_Node000001" class="edge">
<title>Node0&#45;&gt;Node1</title>
<g id="a_edge457_Node000000_Node000001"><a xlink:title=" ">
<path fill="none" stroke="#63b8ff" d="M92.72,-63.38C107.37,-67.75 123.69,-72.62 138.98,-77.18"/>
<polygon fill="#63b8ff" stroke="#63b8ff" points="93.92,-60.09 83.34,-60.59 91.92,-66.8 93.92,-60.09"/>
</a>
</g>
</g>
<!-- Node2 -->
<g id="Node000002" class="node">
<title>Node2</title>
<g id="a_Node000002"><a xlink:href="structnix_1_1OutputsSpec_1_1All.html" target="_top" xlink:title=" ">
<polygon fill="white" stroke="#666666" points="256.25,-59.75 139,-59.75 139,-39 256.25,-39 256.25,-59.75"/>
<text text-anchor="middle" x="197.62" y="-46.25" font-family="Helvetica,sans-Serif" font-size="10.00">nix::OutputsSpec::All</text>
</a>
</g>
</g>
<!-- Node0&#45;&gt;Node2 -->
<g id="edge458_Node000000_Node000002" class="edge">
<title>Node0&#45;&gt;Node2</title>
<g id="a_edge458_Node000000_Node000002"><a xlink:title=" ">
<path fill="none" stroke="#63b8ff" d="M101.24,-49.38C113.47,-49.38 126.45,-49.38 138.76,-49.38"/>
<polygon fill="#63b8ff" stroke="#63b8ff" points="101.31,-45.88 91.31,-49.38 101.31,-52.88 101.31,-45.88"/>
</a>
</g>
</g>
<!-- Node3 -->
<g id="Node000003" class="node">
<title>Node3</title>
<g id="a_Node000003"><a xlink:href="structnix_1_1TextIngestionMethod.html" target="_top" xlink:title=" ">
<polygon fill="white" stroke="#666666" points="267.12,-20.75 128.12,-20.75 128.12,0 267.12,0 267.12,-20.75"/>
<text text-anchor="middle" x="197.62" y="-7.25" font-family="Helvetica,sans-Serif" font-size="10.00">nix::TextIngestionMethod</text>
</a>
</g>
</g>
<!-- Node0&#45;&gt;Node3 -->
<g id="edge459_Node000000_Node000003" class="edge">
<title>Node0&#45;&gt;Node3</title>
<g id="a_edge459_Node000000_Node000003"><a xlink:title=" ">
<path fill="none" stroke="#63b8ff" d="M98.86,-35.65C117.12,-30.93 137.3,-25.71 154.56,-21.25"/>
<polygon fill="#63b8ff" stroke="#63b8ff" points="98.05,-32.24 89.24,-38.13 99.8,-39.02 98.05,-32.24"/>
</a>
</g>
</g>
</g>
</svg>
