<?xml version="1.0" encoding="UTF-8" standalone="no"?>
<!DOCTYPE svg PUBLIC "-//W3C//DTD SVG 1.1//EN"
 "http://www.w3.org/Graphics/SVG/1.1/DTD/svg11.dtd">
<!-- Generated by graphviz version 12.2.1 (0)
 -->
<!-- Title: Graphical Class Hierarchy Pages: 1 -->
<svg width="279pt" height="146pt"
 viewBox="0.00 0.00 278.50 145.75" xmlns="http://www.w3.org/2000/svg" xmlns:xlink="http://www.w3.org/1999/xlink">
<g id="graph0" class="graph" transform="scale(1 1) rotate(0) translate(4 141.75)">
<title>Graphical Class Hierarchy</title>
<!-- Node0 -->
<g id="Node000000" class="node">
<title>Node0</title>
<g id="a_Node000000"><a xlink:title=" ">
<polygon fill="#e0e0e0" stroke="#999999" points="85,-78.75 0,-78.75 0,-58 85,-58 85,-78.75"/>
<text text-anchor="middle" x="42.5" y="-65.25" font-family="Helvetica,sans-Serif" font-size="10.00">std::exception</text>
</a>
</g>
</g>
<!-- Node1 -->
<g id="Node000001" class="node">
<title>Node1</title>
<g id="a_Node000001"><a xlink:href="classnix_1_1BaseError.html" target="_top" xlink:title=" ">
<polygon fill="white" stroke="#666666" points="237.88,-137.75 153.62,-137.75 153.62,-117 237.88,-117 237.88,-137.75"/>
<text text-anchor="middle" x="195.75" y="-124.25" font-family="Helvetica,sans-Serif" font-size="10.00">nix::BaseError</text>
</a>
</g>
</g>
<!-- Node0&#45;&gt;Node1 -->
<g id="edge446_Node000000_Node000001" class="edge">
<title>Node0&#45;&gt;Node1</title>
<g id="a_edge446_Node000000_Node000001"><a xlink:title=" ">
<path fill="none" stroke="#63b8ff" d="M71.91,-84.41C86.31,-92.08 104.25,-100.96 121,-107.38 131.28,-111.31 142.65,-114.8 153.32,-117.71"/>
<polygon fill="#63b8ff" stroke="#63b8ff" points="73.91,-81.51 63.46,-79.81 70.57,-87.66 73.91,-81.51"/>
</a>
</g>
</g>
<!-- Node2 -->
<g id="Node000002" class="node">
<title>Node2</title>
<g id="a_Node000002"><a xlink:href="classnix_1_1Exit.html" target="_top" xlink:title=" ">
<polygon fill="white" stroke="#666666" points="223.62,-98.75 167.88,-98.75 167.88,-78 223.62,-78 223.62,-98.75"/>
<text text-anchor="middle" x="195.75" y="-85.25" font-family="Helvetica,sans-Serif" font-size="10.00">nix::Exit</text>
</a>
</g>
</g>
<!-- Node0&#45;&gt;Node2 -->
<g id="edge447_Node000000_Node000002" class="edge">
<title>Node0&#45;&gt;Node2</title>
<g id="a_edge447_Node000000_Node000002"><a xlink:title=" ">
<path fill="none" stroke="#63b8ff" d="M96.33,-75.36C120.32,-78.53 147.69,-82.15 167.46,-84.77"/>
<polygon fill="#63b8ff" stroke="#63b8ff" points="97.1,-71.93 86.73,-74.09 96.19,-78.87 97.1,-71.93"/>
</a>
</g>
</g>
<!-- Node3 -->
<g id="Node000003" class="node">
<title>Node3</title>
<g id="a_Node000003"><a xlink:href="structnix_1_1GCLimitReached.html" target="_top" xlink:title=" ">
<polygon fill="white" stroke="#666666" points="254.75,-59.75 136.75,-59.75 136.75,-39 254.75,-39 254.75,-59.75"/>
<text text-anchor="middle" x="195.75" y="-46.25" font-family="Helvetica,sans-Serif" font-size="10.00">nix::GCLimitReached</text>
</a>
</g>
</g>
<!-- Node0&#45;&gt;Node3 -->
<g id="edge448_Node000000_Node000003" class="edge">
<title>Node0&#45;&gt;Node3</title>
<g id="a_edge448_Node000000_Node000003"><a xlink:title=" ">
<path fill="none" stroke="#63b8ff" d="M96.33,-61.74C109.3,-60.11 123.25,-58.36 136.46,-56.7"/>
<polygon fill="#63b8ff" stroke="#63b8ff" points="96.22,-58.23 86.73,-62.94 97.09,-65.17 96.22,-58.23"/>
</a>
</g>
</g>
<!-- Node4 -->
<g id="Node000004" class="node">
<title>Node4</title>
<g id="a_Node000004"><a xlink:href="classnix_1_1checked_1_1DivideByZero.html" target="_top" xlink:title=" ">
<polygon fill="white" stroke="#666666" points="270.5,-20.75 121,-20.75 121,0 270.5,0 270.5,-20.75"/>
<text text-anchor="middle" x="195.75" y="-7.25" font-family="Helvetica,sans-Serif" font-size="10.00">nix::checked::DivideByZero</text>
</a>
</g>
</g>
<!-- Node0&#45;&gt;Node4 -->
<g id="edge449_Node000000_Node000004" class="edge">
<title>Node0&#45;&gt;Node4</title>
<g id="a_edge449_Node000000_Node000004"><a xlink:title=" ">
<path fill="none" stroke="#8b1a1a" d="M72.96,-52.28C87.19,-44.93 104.69,-36.52 121,-30.38 130.06,-26.96 139.95,-23.87 149.46,-21.19"/>
<polygon fill="#8b1a1a" stroke="#8b1a1a" points="71.35,-49.17 64.13,-56.92 74.61,-55.36 71.35,-49.17"/>
</a>
</g>
</g>
</g>
</svg>
