<?xml version="1.0" encoding="UTF-8" standalone="no"?>
<!DOCTYPE svg PUBLIC "-//W3C//DTD SVG 1.1//EN"
 "http://www.w3.org/Graphics/SVG/1.1/DTD/svg11.dtd">
<!-- Generated by graphviz version 12.2.1 (0)
 -->
<!-- Title: Graphical Class Hierarchy Pages: 1 -->
<svg width="237pt" height="68pt"
 viewBox="0.00 0.00 236.50 67.75" xmlns="http://www.w3.org/2000/svg" xmlns:xlink="http://www.w3.org/1999/xlink">
<g id="graph0" class="graph" transform="scale(1 1) rotate(0) translate(4 63.75)">
<title>Graphical Class Hierarchy</title>
<!-- Node0 -->
<g id="Node000000" class="node">
<title>Node0</title>
<g id="a_Node000000"><a xlink:title=" ">
<polygon fill="#e0e0e0" stroke="#999999" points="75.25,-39.75 0,-39.75 0,-19 75.25,-19 75.25,-39.75"/>
<text text-anchor="middle" x="37.62" y="-26.25" font-family="Helvetica,sans-Serif" font-size="10.00">testing::Test</text>
</a>
</g>
</g>
<!-- Node1 -->
<g id="Node000001" class="node">
<title>Node1</title>
<g id="a_Node000001"><a xlink:href="structnix_1_1PathsSettingTest.html" target="_top" xlink:title=" ">
<polygon fill="white" stroke="#666666" points="228.5,-59.75 111.25,-59.75 111.25,-39 228.5,-39 228.5,-59.75"/>
<text text-anchor="middle" x="169.88" y="-46.25" font-family="Helvetica,sans-Serif" font-size="10.00">nix::PathsSettingTest</text>
</a>
</g>
</g>
<!-- Node0&#45;&gt;Node1 -->
<g id="edge474_Node000000_Node000001" class="edge">
<title>Node0&#45;&gt;Node1</title>
<g id="a_edge474_Node000000_Node000001"><a xlink:title=" ">
<path fill="none" stroke="#63b8ff" d="M86.78,-36.77C94.62,-37.97 102.81,-39.23 110.86,-40.47"/>
<polygon fill="#63b8ff" stroke="#63b8ff" points="87.51,-33.34 77.1,-35.28 86.45,-40.26 87.51,-33.34"/>
</a>
</g>
</g>
<!-- Node2 -->
<g id="Node000002" class="node">
<title>Node2</title>
<g id="a_Node000002"><a xlink:href="classnix_1_1PoolTest.html" target="_top" xlink:title=" ">
<polygon fill="white" stroke="#666666" points="208.62,-20.75 131.12,-20.75 131.12,0 208.62,0 208.62,-20.75"/>
<text text-anchor="middle" x="169.88" y="-7.25" font-family="Helvetica,sans-Serif" font-size="10.00">nix::PoolTest</text>
</a>
</g>
</g>
<!-- Node0&#45;&gt;Node2 -->
<g id="edge475_Node000000_Node000002" class="edge">
<title>Node0&#45;&gt;Node2</title>
<g id="a_edge475_Node000000_Node000002"><a xlink:title=" ">
<path fill="none" stroke="#63b8ff" d="M86.93,-22.33C101.44,-20.21 117.15,-17.92 130.9,-15.91"/>
<polygon fill="#63b8ff" stroke="#63b8ff" points="86.49,-18.86 77.1,-23.76 87.5,-25.78 86.49,-18.86"/>
</a>
</g>
</g>
</g>
</svg>
