<?xml version="1.0" encoding="UTF-8" standalone="no"?>
<!DOCTYPE svg PUBLIC "-//W3C//DTD SVG 1.1//EN"
 "http://www.w3.org/Graphics/SVG/1.1/DTD/svg11.dtd">
<!-- Generated by graphviz version 12.2.1 (0)
 -->
<!-- Title: Graphical Class Hierarchy Pages: 1 -->
<svg width="185pt" height="68pt"
 viewBox="0.00 0.00 184.75 67.75" xmlns="http://www.w3.org/2000/svg" xmlns:xlink="http://www.w3.org/1999/xlink">
<g id="graph0" class="graph" transform="scale(1 1) rotate(0) translate(4 63.75)">
<title>Graphical Class Hierarchy</title>
<!-- Node0 -->
<g id="Node000000" class="node">
<title>Node0</title>
<g id="a_Node000000"><a xlink:href="structnix_1_1Key.html" target="_top" xlink:title=" ">
<polygon fill="white" stroke="#666666" points="55,-39.75 0,-39.75 0,-19 55,-19 55,-39.75"/>
<text text-anchor="middle" x="27.5" y="-26.25" font-family="Helvetica,sans-Serif" font-size="10.00">nix::Key</text>
</a>
</g>
</g>
<!-- Node1 -->
<g id="Node000001" class="node">
<title>Node1</title>
<g id="a_Node000001"><a xlink:href="structnix_1_1PublicKey.html" target="_top" xlink:title=" ">
<polygon fill="white" stroke="#666666" points="176,-59.75 91.75,-59.75 91.75,-39 176,-39 176,-59.75"/>
<text text-anchor="middle" x="133.88" y="-46.25" font-family="Helvetica,sans-Serif" font-size="10.00">nix::PublicKey</text>
</a>
</g>
</g>
<!-- Node0&#45;&gt;Node1 -->
<g id="edge350_Node000000_Node000001" class="edge">
<title>Node0&#45;&gt;Node1</title>
<g id="a_edge350_Node000000_Node000001"><a xlink:title=" ">
<path fill="none" stroke="#63b8ff" d="M66.46,-36.65C74.6,-38.21 83.23,-39.86 91.49,-41.45"/>
<polygon fill="#63b8ff" stroke="#63b8ff" points="67.35,-33.25 56.87,-34.81 66.03,-40.13 67.35,-33.25"/>
</a>
</g>
</g>
<!-- Node2 -->
<g id="Node000002" class="node">
<title>Node2</title>
<g id="a_Node000002"><a xlink:href="structnix_1_1SecretKey.html" target="_top" xlink:title=" ">
<polygon fill="white" stroke="#666666" points="176.75,-20.75 91,-20.75 91,0 176.75,0 176.75,-20.75"/>
<text text-anchor="middle" x="133.88" y="-7.25" font-family="Helvetica,sans-Serif" font-size="10.00">nix::SecretKey</text>
</a>
</g>
</g>
<!-- Node0&#45;&gt;Node2 -->
<g id="edge351_Node000000_Node000002" class="edge">
<title>Node0&#45;&gt;Node2</title>
<g id="a_edge351_Node000000_Node000002"><a xlink:title=" ">
<path fill="none" stroke="#63b8ff" d="M66.48,-22.46C74.35,-21.03 82.68,-19.51 90.69,-18.05"/>
<polygon fill="#63b8ff" stroke="#63b8ff" points="66.08,-18.98 56.87,-24.21 67.33,-25.86 66.08,-18.98"/>
</a>
</g>
</g>
</g>
</svg>
