<?xml version="1.0" encoding="UTF-8" standalone="no"?>
<!DOCTYPE svg PUBLIC "-//W3C//DTD SVG 1.1//EN"
 "http://www.w3.org/Graphics/SVG/1.1/DTD/svg11.dtd">
<!-- Generated by graphviz version 12.2.1 (0)
 -->
<!-- Title: Graphical Class Hierarchy Pages: 1 -->
<svg width="297pt" height="638pt"
 viewBox="0.00 0.00 297.25 638.25" xmlns="http://www.w3.org/2000/svg" xmlns:xlink="http://www.w3.org/1999/xlink">
<g id="graph0" class="graph" transform="scale(1 1) rotate(0) translate(4 634.25)">
<title>Graphical Class Hierarchy</title>
<!-- Node0 -->
<g id="Node000000" class="node">
<title>Node0</title>
<g id="a_Node000000"><a xlink:title=" ">
<polygon fill="#e0e0e0" stroke="#999999" points="83.5,-313.12 0,-313.12 0,-292.38 83.5,-292.38 83.5,-313.12"/>
<text text-anchor="middle" x="41.75" y="-299.62" font-family="Helvetica,sans-Serif" font-size="10.00">std::true_type</text>
</a>
</g>
</g>
<!-- Node1 -->
<g id="Node000001" class="node">
<title>Node1</title>
<g id="a_Node000001"><a xlink:href="structnix_1_1charptr__cast__detail_1_1RecursionHelper_3_01From_00_01To_00_01std_1_1enable__if__tceffa6d1841b8b6692043232e4814a0f.html" target="_top" xlink:title=" ">
<polygon fill="white" stroke="#666666" points="289.25,-630.25 119.5,-630.25 119.5,-571.25 289.25,-571.25 289.25,-630.25"/>
<text text-anchor="start" x="127.5" y="-616.75" font-family="Helvetica,sans-Serif" font-size="10.00">nix::charptr_cast_detail</text>
<text text-anchor="start" x="127.5" y="-604" font-family="Helvetica,sans-Serif" font-size="10.00">::RecursionHelper&lt; From,</text>
<text text-anchor="start" x="127.5" y="-591.25" font-family="Helvetica,sans-Serif" font-size="10.00"> To, std::enable_if_t&lt; BaseCase</text>
<text text-anchor="middle" x="204.38" y="-578.5" font-family="Helvetica,sans-Serif" font-size="10.00">&lt; From, To &gt; &gt; &gt;</text>
</a>
</g>
</g>
<!-- Node0&#45;&gt;Node1 -->
<g id="edge461_Node000000_Node000001" class="edge">
<title>Node0&#45;&gt;Node1</title>
<g id="a_edge461_Node000000_Node000001"><a xlink:title=" ">
<path fill="none" stroke="#63b8ff" d="M43.3,-324.69C45.66,-373.4 57.81,-491.87 119.5,-562.75 122.02,-565.64 124.8,-568.33 127.78,-570.82"/>
<polygon fill="#63b8ff" stroke="#63b8ff" points="46.81,-324.76 42.93,-314.9 39.81,-325.02 46.81,-324.76"/>
</a>
</g>
</g>
<!-- Node2 -->
<g id="Node000002" class="node">
<title>Node2</title>
<g id="a_Node000002"><a xlink:href="structnix_1_1json_1_1avoids__null_3_01DeprecatedFeature_01_4.html" target="_top" xlink:title=" ">
<polygon fill="white" stroke="#666666" points="270.12,-553.5 138.62,-553.5 138.62,-520 270.12,-520 270.12,-553.5"/>
<text text-anchor="start" x="146.62" y="-540" font-family="Helvetica,sans-Serif" font-size="10.00">nix::json::avoids_null</text>
<text text-anchor="middle" x="204.38" y="-527.25" font-family="Helvetica,sans-Serif" font-size="10.00">&lt; DeprecatedFeature &gt;</text>
</a>
</g>
</g>
<!-- Node0&#45;&gt;Node2 -->
<g id="edge462_Node000000_Node000002" class="edge">
<title>Node0&#45;&gt;Node2</title>
<g id="a_edge462_Node000000_Node000002"><a xlink:title=" ">
<path fill="none" stroke="#63b8ff" d="M44.61,-325.03C49.34,-367.34 65.59,-459.62 119.5,-510.75 124.92,-515.89 131.34,-520.02 138.17,-523.33"/>
<polygon fill="#63b8ff" stroke="#63b8ff" points="48.1,-324.72 43.63,-315.11 41.13,-325.41 48.1,-324.72"/>
</a>
</g>
</g>
<!-- Node3 -->
<g id="Node000003" class="node">
<title>Node3</title>
<g id="a_Node000003"><a xlink:href="structnix_1_1json_1_1avoids__null_3_01ExperimentalFeature_01_4.html" target="_top" xlink:title=" ">
<polygon fill="white" stroke="#666666" points="274.62,-501.5 134.12,-501.5 134.12,-468 274.62,-468 274.62,-501.5"/>
<text text-anchor="start" x="142.12" y="-488" font-family="Helvetica,sans-Serif" font-size="10.00">nix::json::avoids_null</text>
<text text-anchor="middle" x="204.38" y="-475.25" font-family="Helvetica,sans-Serif" font-size="10.00">&lt; ExperimentalFeature &gt;</text>
</a>
</g>
</g>
<!-- Node0&#45;&gt;Node3 -->
<g id="edge463_Node000000_Node000003" class="edge">
<title>Node0&#45;&gt;Node3</title>
<g id="a_edge463_Node000000_Node000003"><a xlink:title=" ">
<path fill="none" stroke="#63b8ff" d="M47.48,-324.07C56.02,-357.61 77.19,-422.6 119.5,-458.75 123.79,-462.41 128.59,-465.56 133.66,-468.27"/>
<polygon fill="#63b8ff" stroke="#63b8ff" points="50.97,-323.63 45.24,-314.72 44.16,-325.26 50.97,-323.63"/>
</a>
</g>
</g>
<!-- Node4 -->
<g id="Node000004" class="node">
<title>Node4</title>
<g id="a_Node000004"><a xlink:href="structnix_1_1json_1_1avoids__null_3_01bool_01_4.html" target="_top" xlink:title=" ">
<polygon fill="white" stroke="#666666" points="263.75,-449.5 145,-449.5 145,-416 263.75,-416 263.75,-449.5"/>
<text text-anchor="start" x="153" y="-436" font-family="Helvetica,sans-Serif" font-size="10.00">nix::json::avoids_null</text>
<text text-anchor="middle" x="204.38" y="-423.25" font-family="Helvetica,sans-Serif" font-size="10.00">&lt; bool &gt;</text>
</a>
</g>
</g>
<!-- Node0&#45;&gt;Node4 -->
<g id="edge464_Node000000_Node000004" class="edge">
<title>Node0&#45;&gt;Node4</title>
<g id="a_edge464_Node000000_Node000004"><a xlink:title=" ">
<path fill="none" stroke="#63b8ff" d="M52.75,-323.28C65.22,-346.79 88.71,-384.87 119.5,-406.75 127.08,-412.14 135.81,-416.43 144.71,-419.85"/>
<polygon fill="#63b8ff" stroke="#63b8ff" points="56.02,-322 48.36,-314.68 49.79,-325.18 56.02,-322"/>
</a>
</g>
</g>
<!-- Node5 -->
<g id="Node000005" class="node">
<title>Node5</title>
<g id="a_Node000005"><a xlink:href="structnix_1_1json_1_1avoids__null_3_01std_1_1list_3_01T_01_4_01_4.html" target="_top" xlink:title=" ">
<polygon fill="white" stroke="#666666" points="263.75,-397.5 145,-397.5 145,-364 263.75,-364 263.75,-397.5"/>
<text text-anchor="start" x="153" y="-384" font-family="Helvetica,sans-Serif" font-size="10.00">nix::json::avoids_null</text>
<text text-anchor="middle" x="204.38" y="-371.25" font-family="Helvetica,sans-Serif" font-size="10.00">&lt; std::list&lt; T &gt; &gt;</text>
</a>
</g>
</g>
<!-- Node0&#45;&gt;Node5 -->
<g id="edge465_Node000000_Node000005" class="edge">
<title>Node0&#45;&gt;Node5</title>
<g id="a_edge465_Node000000_Node000005"><a xlink:title=" ">
<path fill="none" stroke="#63b8ff" d="M64.74,-320.22C79.54,-331.32 99.87,-345.31 119.5,-354.75 127.47,-358.58 136.13,-362.01 144.77,-365.02"/>
<polygon fill="#63b8ff" stroke="#63b8ff" points="67.14,-317.66 57.08,-314.35 62.88,-323.21 67.14,-317.66"/>
</a>
</g>
</g>
<!-- Node6 -->
<g id="Node000006" class="node">
<title>Node6</title>
<g id="a_Node000006"><a xlink:href="structnix_1_1json_1_1avoids__null_3_01std_1_1map_3_01K_00_01V_01_4_01_4.html" target="_top" xlink:title=" ">
<polygon fill="white" stroke="#666666" points="266,-345.5 142.75,-345.5 142.75,-312 266,-312 266,-345.5"/>
<text text-anchor="start" x="150.75" y="-332" font-family="Helvetica,sans-Serif" font-size="10.00">nix::json::avoids_null</text>
<text text-anchor="middle" x="204.38" y="-319.25" font-family="Helvetica,sans-Serif" font-size="10.00">&lt; std::map&lt; K, V &gt; &gt;</text>
</a>
</g>
</g>
<!-- Node0&#45;&gt;Node6 -->
<g id="edge466_Node000000_Node000006" class="edge">
<title>Node0&#45;&gt;Node6</title>
<g id="a_edge466_Node000000_Node000006"><a xlink:title=" ">
<path fill="none" stroke="#63b8ff" d="M94.96,-311.2C110.13,-313.66 126.83,-316.36 142.48,-318.89"/>
<polygon fill="#63b8ff" stroke="#63b8ff" points="95.62,-307.76 85.19,-309.62 94.5,-314.67 95.62,-307.76"/>
</a>
</g>
</g>
<!-- Node7 -->
<g id="Node000007" class="node">
<title>Node7</title>
<g id="a_Node000007"><a xlink:href="structnix_1_1json_1_1avoids__null_3_01std_1_1string_01_4.html" target="_top" xlink:title=" ">
<polygon fill="white" stroke="#666666" points="263.75,-293.5 145,-293.5 145,-260 263.75,-260 263.75,-293.5"/>
<text text-anchor="start" x="153" y="-280" font-family="Helvetica,sans-Serif" font-size="10.00">nix::json::avoids_null</text>
<text text-anchor="middle" x="204.38" y="-267.25" font-family="Helvetica,sans-Serif" font-size="10.00">&lt; std::string &gt;</text>
</a>
</g>
</g>
<!-- Node0&#45;&gt;Node7 -->
<g id="edge467_Node000000_Node000007" class="edge">
<title>Node0&#45;&gt;Node7</title>
<g id="a_edge467_Node000000_Node000007"><a xlink:title=" ">
<path fill="none" stroke="#63b8ff" d="M94.92,-294.31C110.79,-291.74 128.34,-288.9 144.62,-286.26"/>
<polygon fill="#63b8ff" stroke="#63b8ff" points="94.5,-290.83 85.19,-295.88 95.62,-297.74 94.5,-290.83"/>
</a>
</g>
</g>
<!-- Node8 -->
<g id="Node000008" class="node">
<title>Node8</title>
<g id="a_Node000008"><a xlink:href="structnix_1_1json_1_1avoids__null_3_01std_1_1vector_3_01T_01_4_01_4.html" target="_top" xlink:title=" ">
<polygon fill="white" stroke="#666666" points="263.75,-241.5 145,-241.5 145,-208 263.75,-208 263.75,-241.5"/>
<text text-anchor="start" x="153" y="-228" font-family="Helvetica,sans-Serif" font-size="10.00">nix::json::avoids_null</text>
<text text-anchor="middle" x="204.38" y="-215.25" font-family="Helvetica,sans-Serif" font-size="10.00">&lt; std::vector&lt; T &gt; &gt;</text>
</a>
</g>
</g>
<!-- Node0&#45;&gt;Node8 -->
<g id="edge468_Node000000_Node000008" class="edge">
<title>Node0&#45;&gt;Node8</title>
<g id="a_edge468_Node000000_Node000008"><a xlink:title=" ">
<path fill="none" stroke="#63b8ff" d="M64.74,-285.28C79.54,-274.18 99.87,-260.19 119.5,-250.75 127.47,-246.92 136.13,-243.49 144.77,-240.48"/>
<polygon fill="#63b8ff" stroke="#63b8ff" points="62.88,-282.29 57.08,-291.15 67.14,-287.84 62.88,-282.29"/>
</a>
</g>
</g>
<!-- Node9 -->
<g id="Node000009" class="node">
<title>Node9</title>
<g id="a_Node000009"><a xlink:href="structnix_1_1json_1_1is__integral__enum_3_01ActivityType_01_4.html" target="_top" xlink:title=" ">
<polygon fill="white" stroke="#666666" points="270.12,-189.5 138.62,-189.5 138.62,-156 270.12,-156 270.12,-189.5"/>
<text text-anchor="start" x="146.62" y="-176" font-family="Helvetica,sans-Serif" font-size="10.00">nix::json::is_integral</text>
<text text-anchor="middle" x="204.38" y="-163.25" font-family="Helvetica,sans-Serif" font-size="10.00">_enum&lt; ActivityType &gt;</text>
</a>
</g>
</g>
<!-- Node0&#45;&gt;Node9 -->
<g id="edge469_Node000000_Node000009" class="edge">
<title>Node0&#45;&gt;Node9</title>
<g id="a_edge469_Node000000_Node000009"><a xlink:title=" ">
<path fill="none" stroke="#63b8ff" d="M52.75,-282.22C65.22,-258.71 88.71,-220.63 119.5,-198.75 125.22,-194.69 131.59,-191.25 138.19,-188.33"/>
<polygon fill="#63b8ff" stroke="#63b8ff" points="49.79,-280.32 48.36,-290.82 56.02,-283.5 49.79,-280.32"/>
</a>
</g>
</g>
<!-- Node10 -->
<g id="Node000010" class="node">
<title>Node10</title>
<g id="a_Node000010"><a xlink:href="structnix_1_1json_1_1is__integral__enum_3_01ResultType_01_4.html" target="_top" xlink:title=" ">
<polygon fill="white" stroke="#666666" points="266.75,-137.5 142,-137.5 142,-104 266.75,-104 266.75,-137.5"/>
<text text-anchor="start" x="150" y="-124" font-family="Helvetica,sans-Serif" font-size="10.00">nix::json::is_integral</text>
<text text-anchor="middle" x="204.38" y="-111.25" font-family="Helvetica,sans-Serif" font-size="10.00">_enum&lt; ResultType &gt;</text>
</a>
</g>
</g>
<!-- Node0&#45;&gt;Node10 -->
<g id="edge470_Node000000_Node000010" class="edge">
<title>Node0&#45;&gt;Node10</title>
<g id="a_edge470_Node000000_Node000010"><a xlink:title=" ">
<path fill="none" stroke="#63b8ff" d="M47.48,-281.43C56.02,-247.89 77.19,-182.9 119.5,-146.75 125.99,-141.2 133.66,-136.84 141.67,-133.41"/>
<polygon fill="#63b8ff" stroke="#63b8ff" points="44.16,-280.24 45.24,-290.78 50.97,-281.87 44.16,-280.24"/>
</a>
</g>
</g>
<!-- Node11 -->
<g id="Node000011" class="node">
<title>Node11</title>
<g id="a_Node000011"><a xlink:href="structnix_1_1json_1_1is__integral__enum_3_01TrustedFlag_01_4.html" target="_top" xlink:title=" ">
<polygon fill="white" stroke="#666666" points="268.25,-85.5 140.5,-85.5 140.5,-52 268.25,-52 268.25,-85.5"/>
<text text-anchor="start" x="148.5" y="-72" font-family="Helvetica,sans-Serif" font-size="10.00">nix::json::is_integral</text>
<text text-anchor="middle" x="204.38" y="-59.25" font-family="Helvetica,sans-Serif" font-size="10.00">_enum&lt; TrustedFlag &gt;</text>
</a>
</g>
</g>
<!-- Node0&#45;&gt;Node11 -->
<g id="edge471_Node000000_Node000011" class="edge">
<title>Node0&#45;&gt;Node11</title>
<g id="a_edge471_Node000000_Node000011"><a xlink:title=" ">
<path fill="none" stroke="#63b8ff" d="M44.61,-280.47C49.34,-238.16 65.59,-145.88 119.5,-94.75 125.47,-89.08 132.66,-84.65 140.28,-81.19"/>
<polygon fill="#63b8ff" stroke="#63b8ff" points="41.13,-280.09 43.63,-290.39 48.1,-280.78 41.13,-280.09"/>
</a>
</g>
</g>
<!-- Node12 -->
<g id="Node000012" class="node">
<title>Node12</title>
<g id="a_Node000012"><a xlink:href="structnix_1_1json_1_1is__integral__enum_3_01Verbosity_01_4.html" target="_top" xlink:title=" ">
<polygon fill="white" stroke="#666666" points="263,-33.5 145.75,-33.5 145.75,0 263,0 263,-33.5"/>
<text text-anchor="start" x="153.75" y="-20" font-family="Helvetica,sans-Serif" font-size="10.00">nix::json::is_integral</text>
<text text-anchor="middle" x="204.38" y="-7.25" font-family="Helvetica,sans-Serif" font-size="10.00">_enum&lt; Verbosity &gt;</text>
</a>
</g>
</g>
<!-- Node0&#45;&gt;Node12 -->
<g id="edge472_Node000000_Node000012" class="edge">
<title>Node0&#45;&gt;Node12</title>
<g id="a_edge472_Node000000_Node000012"><a xlink:title=" ">
<path fill="none" stroke="#63b8ff" d="M42.66,-280.89C43.68,-231.42 53.21,-109.94 119.5,-42.75 126.67,-35.48 135.84,-30.23 145.46,-26.45"/>
<polygon fill="#63b8ff" stroke="#63b8ff" points="39.17,-280.55 42.57,-290.58 46.17,-280.61 39.17,-280.55"/>
</a>
</g>
</g>
</g>
</svg>
