<?xml version="1.0" encoding="UTF-8" standalone="no"?>
<!DOCTYPE svg PUBLIC "-//W3C//DTD SVG 1.1//EN"
 "http://www.w3.org/Graphics/SVG/1.1/DTD/svg11.dtd">
<!-- Generated by graphviz version 12.2.1 (0)
 -->
<!-- Title: Graphical Class Hierarchy Pages: 1 -->
<svg width="1000pt" height="536pt"
 viewBox="0.00 0.00 1000.25 535.75" xmlns="http://www.w3.org/2000/svg" xmlns:xlink="http://www.w3.org/1999/xlink">
<g id="graph0" class="graph" transform="scale(1 1) rotate(0) translate(4 531.75)">
<title>Graphical Class Hierarchy</title>
<!-- Node0 -->
<g id="Node000000" class="node">
<title>Node0</title>
<g id="a_Node000000"><a xlink:href="classnix_1_1AbstractConfig.html" target="_top" xlink:title=" ">
<polygon fill="white" stroke="#666666" points="108.25,-312.75 0,-312.75 0,-292 108.25,-292 108.25,-312.75"/>
<text text-anchor="middle" x="54.12" y="-299.25" font-family="Helvetica,sans-Serif" font-size="10.00">nix::AbstractConfig</text>
</a>
</g>
</g>
<!-- Node1 -->
<g id="Node000001" class="node">
<title>Node1</title>
<g id="a_Node000001"><a xlink:href="classnix_1_1Config.html" target="_top" xlink:title=" ">
<polygon fill="white" stroke="#666666" points="227.75,-332.75 160,-332.75 160,-312 227.75,-312 227.75,-332.75"/>
<text text-anchor="middle" x="193.88" y="-319.25" font-family="Helvetica,sans-Serif" font-size="10.00">nix::Config</text>
</a>
</g>
</g>
<!-- Node0&#45;&gt;Node1 -->
<g id="edge60_Node000000_Node000001" class="edge">
<title>Node0&#45;&gt;Node1</title>
<g id="a_edge60_Node000000_Node000001"><a xlink:title=" ">
<path fill="none" stroke="#63b8ff" d="M119.45,-311.71C133.36,-313.73 147.53,-315.79 159.66,-317.55"/>
<polygon fill="#63b8ff" stroke="#63b8ff" points="120.28,-308.3 109.88,-310.33 119.27,-315.23 120.28,-308.3"/>
</a>
</g>
</g>
<!-- Node26 -->
<g id="Node000026" class="node">
<title>Node26</title>
<g id="a_Node000026"><a xlink:href="structnix_1_1GlobalConfig.html" target="_top" xlink:title=" ">
<polygon fill="white" stroke="#666666" points="243.5,-293.75 144.25,-293.75 144.25,-273 243.5,-273 243.5,-293.75"/>
<text text-anchor="middle" x="193.88" y="-280.25" font-family="Helvetica,sans-Serif" font-size="10.00">nix::GlobalConfig</text>
</a>
</g>
</g>
<!-- Node0&#45;&gt;Node26 -->
<g id="edge87_Node000000_Node000026" class="edge">
<title>Node0&#45;&gt;Node26</title>
<g id="a_edge87_Node000000_Node000026"><a xlink:title=" ">
<path fill="none" stroke="#63b8ff" d="M119.73,-293.46C127.83,-292.35 136.01,-291.22 143.82,-290.14"/>
<polygon fill="#63b8ff" stroke="#63b8ff" points="119.31,-289.99 109.88,-294.82 120.27,-296.92 119.31,-289.99"/>
</a>
</g>
</g>
<!-- Node2 -->
<g id="Node000002" class="node">
<title>Node2</title>
<g id="a_Node000002"><a xlink:href="structnix_1_1ArchiveSettings.html" target="_top" xlink:title=" ">
<polygon fill="white" stroke="#666666" points="410.25,-527.75 296.75,-527.75 296.75,-507 410.25,-507 410.25,-527.75"/>
<text text-anchor="middle" x="353.5" y="-514.25" font-family="Helvetica,sans-Serif" font-size="10.00">nix::ArchiveSettings</text>
</a>
</g>
</g>
<!-- Node1&#45;&gt;Node2 -->
<g id="edge61_Node000001_Node000002" class="edge">
<title>Node1&#45;&gt;Node2</title>
<g id="a_edge61_Node000001_Node000002"><a xlink:title=" ">
<path fill="none" stroke="#63b8ff" d="M199.2,-343.87C207.79,-380.9 230.55,-456.65 279.5,-497.38 284.55,-501.58 290.41,-504.9 296.58,-507.53"/>
<polygon fill="#63b8ff" stroke="#63b8ff" points="202.68,-343.41 197.13,-334.38 195.84,-344.9 202.68,-343.41"/>
</a>
</g>
</g>
<!-- Node3 -->
<g id="Node000003" class="node">
<title>Node3</title>
<g id="a_Node000003"><a xlink:href="structnix_1_1AuthorizationSettings.html" target="_top" xlink:title=" ">
<polygon fill="white" stroke="#666666" points="424.5,-488.75 282.5,-488.75 282.5,-468 424.5,-468 424.5,-488.75"/>
<text text-anchor="middle" x="353.5" y="-475.25" font-family="Helvetica,sans-Serif" font-size="10.00">nix::AuthorizationSettings</text>
</a>
</g>
</g>
<!-- Node1&#45;&gt;Node3 -->
<g id="edge62_Node000001_Node000003" class="edge">
<title>Node1&#45;&gt;Node3</title>
<g id="a_edge62_Node000001_Node000003"><a xlink:title=" ">
<path fill="none" stroke="#63b8ff" d="M202.37,-343.7C214.06,-373.85 239.55,-428.58 279.5,-458.38 284.45,-462.07 290.04,-465.08 295.88,-467.53"/>
<polygon fill="#63b8ff" stroke="#63b8ff" points="205.72,-342.69 198.96,-334.53 199.16,-345.12 205.72,-342.69"/>
</a>
</g>
</g>
<!-- Node4 -->
<g id="Node000004" class="node">
<title>Node4</title>
<g id="a_Node000004"><a xlink:href="structnix_1_1DevelopSettings.html" target="_top" xlink:title=" ">
<polygon fill="white" stroke="#666666" points="412.12,-449.75 294.88,-449.75 294.88,-429 412.12,-429 412.12,-449.75"/>
<text text-anchor="middle" x="353.5" y="-436.25" font-family="Helvetica,sans-Serif" font-size="10.00">nix::DevelopSettings</text>
</a>
</g>
</g>
<!-- Node1&#45;&gt;Node4 -->
<g id="edge63_Node000001_Node000004" class="edge">
<title>Node1&#45;&gt;Node4</title>
<g id="a_edge63_Node000001_Node000004"><a xlink:title=" ">
<path fill="none" stroke="#63b8ff" d="M207.09,-342.36C221.63,-364.47 247.96,-399.58 279.5,-419.38 285.4,-423.08 291.98,-426.1 298.72,-428.58"/>
<polygon fill="#63b8ff" stroke="#63b8ff" points="210.23,-340.77 201.9,-334.22 204.32,-344.53 210.23,-340.77"/>
</a>
</g>
</g>
<!-- Node5 -->
<g id="Node000005" class="node">
<title>Node5</title>
<g id="a_Node000005"><a xlink:href="structnix_1_1EvalSettings.html" target="_top" xlink:title=" ">
<polygon fill="white" stroke="#666666" points="402.38,-410.75 304.62,-410.75 304.62,-390 402.38,-390 402.38,-410.75"/>
<text text-anchor="middle" x="353.5" y="-397.25" font-family="Helvetica,sans-Serif" font-size="10.00">nix::EvalSettings</text>
</a>
</g>
</g>
<!-- Node1&#45;&gt;Node5 -->
<g id="edge64_Node000001_Node000005" class="edge">
<title>Node1&#45;&gt;Node5</title>
<g id="a_edge64_Node000001_Node000005"><a xlink:title=" ">
<path fill="none" stroke="#63b8ff" d="M216.3,-340.05C232.71,-352.83 256.4,-369.67 279.5,-380.38 287.25,-383.97 295.77,-387.03 304.17,-389.59"/>
<polygon fill="#63b8ff" stroke="#63b8ff" points="218.72,-337.51 208.71,-334.02 214.36,-342.98 218.72,-337.51"/>
</a>
</g>
</g>
<!-- Node6 -->
<g id="Node000006" class="node">
<title>Node6</title>
<g id="a_Node000006"><a xlink:href="structnix_1_1FeatureSettings.html" target="_top" xlink:title=" ">
<polygon fill="white" stroke="#666666" points="410.25,-371.75 296.75,-371.75 296.75,-351 410.25,-351 410.25,-371.75"/>
<text text-anchor="middle" x="353.5" y="-358.25" font-family="Helvetica,sans-Serif" font-size="10.00">nix::FeatureSettings</text>
</a>
</g>
</g>
<!-- Node1&#45;&gt;Node6 -->
<g id="edge65_Node000001_Node000006" class="edge">
<title>Node1&#45;&gt;Node6</title>
<g id="a_edge65_Node000001_Node000006"><a xlink:title=" ">
<path fill="none" stroke="#63b8ff" d="M238.87,-333.26C260.68,-338.66 286.95,-345.16 308.73,-350.54"/>
<polygon fill="#63b8ff" stroke="#63b8ff" points="239.94,-329.92 229.39,-330.91 238.25,-336.71 239.94,-329.92"/>
</a>
</g>
</g>
<!-- Node7 -->
<g id="Node000007" class="node">
<title>Node7</title>
<g id="a_Node000007"><a xlink:href="structnix_1_1FetchSettings.html" target="_top" xlink:title=" ">
<polygon fill="white" stroke="#666666" points="405,-332.75 302,-332.75 302,-312 405,-312 405,-332.75"/>
<text text-anchor="middle" x="353.5" y="-319.25" font-family="Helvetica,sans-Serif" font-size="10.00">nix::FetchSettings</text>
</a>
</g>
</g>
<!-- Node1&#45;&gt;Node7 -->
<g id="edge66_Node000001_Node000007" class="edge">
<title>Node1&#45;&gt;Node7</title>
<g id="a_edge66_Node000001_Node000007"><a xlink:title=" ">
<path fill="none" stroke="#63b8ff" d="M239.23,-322.38C258.7,-322.38 281.66,-322.38 301.8,-322.38"/>
<polygon fill="#63b8ff" stroke="#63b8ff" points="239.43,-318.88 229.43,-322.38 239.43,-325.88 239.43,-318.88"/>
</a>
</g>
</g>
<!-- Node8 -->
<g id="Node000008" class="node">
<title>Node8</title>
<g id="a_Node000008"><a xlink:href="structnix_1_1FileTransferSettings.html" target="_top" xlink:title=" ">
<polygon fill="white" stroke="#666666" points="420,-293.75 287,-293.75 287,-273 420,-273 420,-293.75"/>
<text text-anchor="middle" x="353.5" y="-280.25" font-family="Helvetica,sans-Serif" font-size="10.00">nix::FileTransferSettings</text>
</a>
</g>
</g>
<!-- Node1&#45;&gt;Node8 -->
<g id="edge67_Node000001_Node000008" class="edge">
<title>Node1&#45;&gt;Node8</title>
<g id="a_edge67_Node000001_Node000008"><a xlink:title=" ">
<path fill="none" stroke="#63b8ff" d="M238.87,-311.49C260.68,-306.09 286.95,-299.59 308.73,-294.21"/>
<polygon fill="#63b8ff" stroke="#63b8ff" points="238.25,-308.04 229.39,-313.84 239.94,-314.83 238.25,-308.04"/>
</a>
</g>
</g>
<!-- Node9 -->
<g id="Node000009" class="node">
<title>Node9</title>
<g id="a_Node000009"><a xlink:href="structnix_1_1LoggerSettings.html" target="_top" xlink:title=" ">
<polygon fill="white" stroke="#666666" points="408.38,-254.75 298.62,-254.75 298.62,-234 408.38,-234 408.38,-254.75"/>
<text text-anchor="middle" x="353.5" y="-241.25" font-family="Helvetica,sans-Serif" font-size="10.00">nix::LoggerSettings</text>
</a>
</g>
</g>
<!-- Node1&#45;&gt;Node9 -->
<g id="edge68_Node000001_Node000009" class="edge">
<title>Node1&#45;&gt;Node9</title>
<g id="a_edge68_Node000001_Node000009"><a xlink:title=" ">
<path fill="none" stroke="#63b8ff" d="M236.96,-306.43C239.22,-305.15 241.42,-303.8 243.5,-302.38 262.68,-289.21 259.54,-276.33 279.5,-264.38 285.7,-260.66 292.6,-257.62 299.63,-255.13"/>
<polygon fill="#63b8ff" stroke="#63b8ff" points="235.48,-303.26 228.1,-310.86 238.61,-309.52 235.48,-303.26"/>
</a>
</g>
</g>
<!-- Node10 -->
<g id="Node000010" class="node">
<title>Node10</title>
<g id="a_Node000010"><a xlink:href="classnix_1_1PathsSettingTestConfig.html" target="_top" xlink:title=" ">
<polygon fill="white" stroke="#666666" points="427.5,-215.75 279.5,-215.75 279.5,-195 427.5,-195 427.5,-215.75"/>
<text text-anchor="middle" x="353.5" y="-202.25" font-family="Helvetica,sans-Serif" font-size="10.00">nix::PathsSettingTestConfig</text>
</a>
</g>
</g>
<!-- Node1&#45;&gt;Node10 -->
<g id="edge69_Node000001_Node000010" class="edge">
<title>Node1&#45;&gt;Node10</title>
<g id="a_edge69_Node000001_Node000010"><a xlink:title=" ">
<path fill="none" stroke="#63b8ff" d="M237.66,-307.11C239.74,-305.67 241.7,-304.09 243.5,-302.38 270.83,-276.3 250.62,-249.72 279.5,-225.38 283.92,-221.65 288.98,-218.61 294.32,-216.14"/>
<polygon fill="#63b8ff" stroke="#63b8ff" points="236.24,-303.89 229.33,-311.91 239.74,-309.96 236.24,-303.89"/>
</a>
</g>
</g>
<!-- Node11 -->
<g id="Node000011" class="node">
<title>Node11</title>
<g id="a_Node000011"><a xlink:href="classnix_1_1Settings.html" target="_top" xlink:title=" ">
<polygon fill="white" stroke="#666666" points="391.88,-176.75 315.12,-176.75 315.12,-156 391.88,-156 391.88,-176.75"/>
<text text-anchor="middle" x="353.5" y="-163.25" font-family="Helvetica,sans-Serif" font-size="10.00">nix::Settings</text>
</a>
</g>
</g>
<!-- Node1&#45;&gt;Node11 -->
<g id="edge70_Node000001_Node000011" class="edge">
<title>Node1&#45;&gt;Node11</title>
<g id="a_edge70_Node000001_Node000011"><a xlink:title=" ">
<path fill="none" stroke="#63b8ff" d="M237.77,-307.53C239.84,-305.98 241.77,-304.26 243.5,-302.38 279.93,-262.54 240.7,-223.9 279.5,-186.38 288.95,-177.24 302.15,-172.19 314.74,-169.43"/>
<polygon fill="#63b8ff" stroke="#63b8ff" points="236.08,-304.47 229.3,-312.61 239.68,-310.47 236.08,-304.47"/>
</a>
</g>
</g>
<!-- Node12 -->
<g id="Node000012" class="node">
<title>Node12</title>
<g id="a_Node000012"><a xlink:href="structnix_1_1StoreConfig.html" target="_top" xlink:title=" ">
<polygon fill="white" stroke="#666666" points="400.12,-137.75 306.88,-137.75 306.88,-117 400.12,-117 400.12,-137.75"/>
<text text-anchor="middle" x="353.5" y="-124.25" font-family="Helvetica,sans-Serif" font-size="10.00">nix::StoreConfig</text>
</a>
</g>
</g>
<!-- Node1&#45;&gt;Node12 -->
<g id="edge71_Node000001_Node000012" class="edge">
<title>Node1&#45;&gt;Node12</title>
<g id="a_edge71_Node000001_Node000012"><a xlink:title=" ">
<path fill="none" stroke="#63b8ff" d="M237.85,-307.75C239.91,-306.14 241.82,-304.35 243.5,-302.38 289.3,-248.48 230.48,-198.35 279.5,-147.38 286.7,-139.89 296.4,-135.12 306.38,-132.11"/>
<polygon fill="#63b8ff" stroke="#63b8ff" points="236.03,-304.76 229.32,-312.96 239.68,-310.73 236.03,-304.76"/>
</a>
</g>
</g>
<!-- Node13 -->
<g id="Node000013" class="node">
<title>Node13</title>
<g id="a_Node000013"><a xlink:href="structnix_1_1BinaryCacheStoreConfig.html" target="_top" xlink:title=" ">
<polygon fill="white" stroke="#666666" points="619.38,-221.75 464.62,-221.75 464.62,-201 619.38,-201 619.38,-221.75"/>
<text text-anchor="middle" x="542" y="-208.25" font-family="Helvetica,sans-Serif" font-size="10.00">nix::BinaryCacheStoreConfig</text>
</a>
</g>
</g>
<!-- Node12&#45;&gt;Node13 -->
<g id="edge72_Node000012_Node000013" class="edge">
<title>Node12&#45;&gt;Node13</title>
<g id="a_edge72_Node000012_Node000013"><a xlink:title=" ">
<path fill="none" stroke="#63b8ff" d="M410.95,-139.45C416.73,-141.67 422.36,-144.29 427.5,-147.38 447.46,-159.33 443.89,-172.86 463.5,-185.38 473.55,-191.79 485.35,-196.79 496.67,-200.62"/>
<polygon fill="#63b8ff" stroke="#63b8ff" points="412.49,-136.28 401.9,-136.35 410.22,-142.9 412.49,-136.28"/>
</a>
</g>
</g>
<!-- Node16 -->
<g id="Node000016" class="node">
<title>Node16</title>
<g id="a_Node000016"><a xlink:href="structnix_1_1CommonSSHStoreConfig.html" target="_top" xlink:title=" ">
<polygon fill="white" stroke="#666666" points="620.5,-176.75 463.5,-176.75 463.5,-156 620.5,-156 620.5,-176.75"/>
<text text-anchor="middle" x="542" y="-163.25" font-family="Helvetica,sans-Serif" font-size="10.00">nix::CommonSSHStoreConfig</text>
</a>
</g>
</g>
<!-- Node12&#45;&gt;Node16 -->
<g id="edge75_Node000012_Node000016" class="edge">
<title>Node12&#45;&gt;Node16</title>
<g id="a_edge75_Node000012_Node000016"><a xlink:title=" ">
<path fill="none" stroke="#63b8ff" d="M411.65,-139.33C436.37,-144.49 465.09,-150.5 489.18,-155.54"/>
<polygon fill="#63b8ff" stroke="#63b8ff" points="412.59,-135.95 402.08,-137.33 411.15,-142.8 412.59,-135.95"/>
</a>
</g>
</g>
<!-- Node25 -->
<g id="Node000025" class="node">
<title>Node25</title>
<g id="a_Node000025"><a xlink:href="structnix_1_1DummyStoreConfig.html" target="_top" xlink:title=" ">
<polygon fill="white" stroke="#666666" points="608.12,-137.75 475.88,-137.75 475.88,-117 608.12,-117 608.12,-137.75"/>
<text text-anchor="middle" x="542" y="-124.25" font-family="Helvetica,sans-Serif" font-size="10.00">nix::DummyStoreConfig</text>
</a>
</g>
</g>
<!-- Node12&#45;&gt;Node25 -->
<g id="edge79_Node000012_Node000025" class="edge">
<title>Node12&#45;&gt;Node25</title>
<g id="a_edge79_Node000012_Node000025"><a xlink:title=" ">
<path fill="none" stroke="#63b8ff" d="M411.84,-127.38C432.05,-127.38 454.91,-127.38 475.73,-127.38"/>
<polygon fill="#63b8ff" stroke="#63b8ff" points="412.11,-123.88 402.11,-127.38 412.11,-130.88 412.11,-123.88"/>
</a>
</g>
</g>
<!-- Node22 -->
<g id="Node000022" class="node">
<title>Node22</title>
<g id="a_Node000022"><a xlink:href="structnix_1_1LocalFSStoreConfig.html" target="_top" xlink:title=" ">
<polygon fill="white" stroke="#666666" points="607,-59.75 477,-59.75 477,-39 607,-39 607,-59.75"/>
<text text-anchor="middle" x="542" y="-46.25" font-family="Helvetica,sans-Serif" font-size="10.00">nix::LocalFSStoreConfig</text>
</a>
</g>
</g>
<!-- Node12&#45;&gt;Node22 -->
<g id="edge80_Node000012_Node000022" class="edge">
<title>Node12&#45;&gt;Node22</title>
<g id="a_edge80_Node000012_Node000022"><a xlink:title=" ">
<path fill="none" stroke="#63b8ff" d="M381.38,-110.76C402.94,-98.01 434.31,-80.72 463.5,-69.38 472.44,-65.9 482.19,-62.85 491.66,-60.24"/>
<polygon fill="#63b8ff" stroke="#63b8ff" points="379.71,-107.68 372.94,-115.83 383.31,-113.68 379.71,-107.68"/>
</a>
</g>
</g>
<!-- Node20 -->
<g id="Node000020" class="node">
<title>Node20</title>
<g id="a_Node000020"><a xlink:href="structnix_1_1RemoteStoreConfig.html" target="_top" xlink:title=" ">
<polygon fill="white" stroke="#666666" points="607.75,-98.75 476.25,-98.75 476.25,-78 607.75,-78 607.75,-98.75"/>
<text text-anchor="middle" x="542" y="-85.25" font-family="Helvetica,sans-Serif" font-size="10.00">nix::RemoteStoreConfig</text>
</a>
</g>
</g>
<!-- Node12&#45;&gt;Node20 -->
<g id="edge84_Node000012_Node000020" class="edge">
<title>Node12&#45;&gt;Node20</title>
<g id="a_edge84_Node000012_Node000020"><a xlink:title=" ">
<path fill="none" stroke="#63b8ff" d="M411.65,-115.42C436.37,-110.26 465.09,-104.25 489.18,-99.21"/>
<polygon fill="#63b8ff" stroke="#63b8ff" points="411.15,-111.95 402.08,-117.42 412.59,-118.8 411.15,-111.95"/>
</a>
</g>
</g>
<!-- Node14 -->
<g id="Node000014" class="node">
<title>Node14</title>
<g id="a_Node000014"><a xlink:href="structnix_1_1HttpBinaryCacheStoreConfig.html" target="_top" xlink:title=" ">
<polygon fill="white" stroke="#666666" points="805.25,-280.12 660.25,-280.12 660.25,-246.62 805.25,-246.62 805.25,-280.12"/>
<text text-anchor="start" x="668.25" y="-266.62" font-family="Helvetica,sans-Serif" font-size="10.00">nix::HttpBinaryCacheStore</text>
<text text-anchor="middle" x="732.75" y="-253.88" font-family="Helvetica,sans-Serif" font-size="10.00">Config</text>
</a>
</g>
</g>
<!-- Node13&#45;&gt;Node14 -->
<g id="edge73_Node000013_Node000014" class="edge">
<title>Node13&#45;&gt;Node14</title>
<g id="a_edge73_Node000013_Node000014"><a xlink:title=" ">
<path fill="none" stroke="#63b8ff" d="M593.17,-225.2C616.53,-231.63 644.56,-239.36 669.29,-246.17"/>
<polygon fill="#63b8ff" stroke="#63b8ff" points="594.14,-221.83 583.57,-222.55 592.28,-228.58 594.14,-221.83"/>
</a>
</g>
</g>
<!-- Node15 -->
<g id="Node000015" class="node">
<title>Node15</title>
<g id="a_Node000015"><a xlink:href="structnix_1_1LocalBinaryCacheStoreConfig.html" target="_top" xlink:title=" ">
<polygon fill="white" stroke="#666666" points="807.5,-228.12 658,-228.12 658,-194.62 807.5,-194.62 807.5,-228.12"/>
<text text-anchor="start" x="666" y="-214.62" font-family="Helvetica,sans-Serif" font-size="10.00">nix::LocalBinaryCacheStore</text>
<text text-anchor="middle" x="732.75" y="-201.88" font-family="Helvetica,sans-Serif" font-size="10.00">Config</text>
</a>
</g>
</g>
<!-- Node13&#45;&gt;Node15 -->
<g id="edge74_Node000013_Node000015" class="edge">
<title>Node13&#45;&gt;Node15</title>
<g id="a_edge74_Node000013_Node000015"><a xlink:title=" ">
<path fill="none" stroke="#63b8ff" d="M631.04,-211.38C639.99,-211.38 649.02,-211.38 657.79,-211.38"/>
<polygon fill="#63b8ff" stroke="#63b8ff" points="631.29,-207.88 621.29,-211.38 631.29,-214.88 631.29,-207.88"/>
</a>
</g>
</g>
<!-- Node17 -->
<g id="Node000017" class="node">
<title>Node17</title>
<g id="a_Node000017"><a xlink:href="structnix_1_1LegacySSHStoreConfig.html" target="_top" xlink:title=" ">
<polygon fill="white" stroke="#666666" points="806.38,-176.75 659.12,-176.75 659.12,-156 806.38,-156 806.38,-176.75"/>
<text text-anchor="middle" x="732.75" y="-163.25" font-family="Helvetica,sans-Serif" font-size="10.00">nix::LegacySSHStoreConfig</text>
</a>
</g>
</g>
<!-- Node16&#45;&gt;Node17 -->
<g id="edge76_Node000016_Node000017" class="edge">
<title>Node16&#45;&gt;Node17</title>
<g id="a_edge76_Node000016_Node000017"><a xlink:title=" ">
<path fill="none" stroke="#63b8ff" d="M632.16,-166.38C641.12,-166.38 650.15,-166.38 658.92,-166.38"/>
<polygon fill="#63b8ff" stroke="#63b8ff" points="632.38,-162.88 622.38,-166.38 632.38,-169.88 632.38,-162.88"/>
</a>
</g>
</g>
<!-- Node19 -->
<g id="Node000019" class="node">
<title>Node19</title>
<g id="a_Node000019"><a xlink:href="structnix_1_1SSHStoreConfig.html" target="_top" xlink:title=" ">
<polygon fill="white" stroke="#666666" points="789.12,-137.75 676.38,-137.75 676.38,-117 789.12,-117 789.12,-137.75"/>
<text text-anchor="middle" x="732.75" y="-124.25" font-family="Helvetica,sans-Serif" font-size="10.00">nix::SSHStoreConfig</text>
</a>
</g>
</g>
<!-- Node16&#45;&gt;Node19 -->
<g id="edge78_Node000016_Node000019" class="edge">
<title>Node16&#45;&gt;Node19</title>
<g id="a_edge78_Node000016_Node000019"><a xlink:title=" ">
<path fill="none" stroke="#63b8ff" d="M606.54,-153.25C630.14,-148.37 656.62,-142.9 679.13,-138.25"/>
<polygon fill="#63b8ff" stroke="#63b8ff" points="606.14,-149.75 597.06,-155.21 607.56,-156.61 606.14,-149.75"/>
</a>
</g>
</g>
<!-- Node18 -->
<g id="Node000018" class="node">
<title>Node18</title>
<g id="a_Node000018"><a xlink:href="structnix_1_1LegacySSHStoreConfigWithLog.html" target="_top" xlink:title=" ">
<polygon fill="white" stroke="#666666" points="992.25,-183.12 845,-183.12 845,-149.62 992.25,-149.62 992.25,-183.12"/>
<text text-anchor="start" x="853" y="-169.62" font-family="Helvetica,sans-Serif" font-size="10.00">nix::LegacySSHStoreConfig</text>
<text text-anchor="middle" x="918.62" y="-156.88" font-family="Helvetica,sans-Serif" font-size="10.00">WithLog</text>
</a>
</g>
</g>
<!-- Node17&#45;&gt;Node18 -->
<g id="edge77_Node000017_Node000018" class="edge">
<title>Node17&#45;&gt;Node18</title>
<g id="a_edge77_Node000017_Node000018"><a xlink:title=" ">
<path fill="none" stroke="#63b8ff" d="M817.95,-166.38C826.91,-166.38 835.97,-166.38 844.78,-166.38"/>
<polygon fill="#63b8ff" stroke="#63b8ff" points="818.2,-162.88 808.2,-166.38 818.2,-169.88 818.2,-162.88"/>
</a>
</g>
</g>
<!-- Node23 -->
<g id="Node000023" class="node">
<title>Node23</title>
<g id="a_Node000023"><a xlink:href="structnix_1_1LocalStoreConfig.html" target="_top" xlink:title=" ">
<polygon fill="white" stroke="#666666" points="792.12,-59.75 673.38,-59.75 673.38,-39 792.12,-39 792.12,-59.75"/>
<text text-anchor="middle" x="732.75" y="-46.25" font-family="Helvetica,sans-Serif" font-size="10.00">nix::LocalStoreConfig</text>
</a>
</g>
</g>
<!-- Node22&#45;&gt;Node23 -->
<g id="edge81_Node000022_Node000023" class="edge">
<title>Node22&#45;&gt;Node23</title>
<g id="a_edge81_Node000022_Node000023"><a xlink:title=" ">
<path fill="none" stroke="#63b8ff" d="M618.82,-49.38C636.86,-49.38 655.85,-49.38 673,-49.38"/>
<polygon fill="#63b8ff" stroke="#63b8ff" points="618.94,-45.88 608.94,-49.38 618.94,-52.88 618.94,-45.88"/>
</a>
</g>
</g>
<!-- Node24 -->
<g id="Node000024" class="node">
<title>Node24</title>
<g id="a_Node000024"><a xlink:href="structnix_1_1RestrictedStoreConfig.html" target="_top" xlink:title=" ">
<polygon fill="white" stroke="#666666" points="804.12,-20.75 661.38,-20.75 661.38,0 804.12,0 804.12,-20.75"/>
<text text-anchor="middle" x="732.75" y="-7.25" font-family="Helvetica,sans-Serif" font-size="10.00">nix::RestrictedStoreConfig</text>
</a>
</g>
</g>
<!-- Node22&#45;&gt;Node24 -->
<g id="edge82_Node000022_Node000024" class="edge">
<title>Node22&#45;&gt;Node24</title>
<g id="a_edge82_Node000022_Node000024"><a xlink:title=" ">
<path fill="none" stroke="#63b8ff" d="M606.54,-36.25C630.14,-31.37 656.62,-25.9 679.13,-21.25"/>
<polygon fill="#63b8ff" stroke="#63b8ff" points="606.14,-32.75 597.06,-38.21 607.56,-39.61 606.14,-32.75"/>
</a>
</g>
</g>
<!-- Node21 -->
<g id="Node000021" class="node">
<title>Node21</title>
<g id="a_Node000021"><a xlink:href="structnix_1_1UDSRemoteStoreConfig.html" target="_top" xlink:title=" ">
<polygon fill="white" stroke="#666666" points="809,-98.75 656.5,-98.75 656.5,-78 809,-78 809,-98.75"/>
<text text-anchor="middle" x="732.75" y="-85.25" font-family="Helvetica,sans-Serif" font-size="10.00">nix::UDSRemoteStoreConfig</text>
</a>
</g>
</g>
<!-- Node22&#45;&gt;Node21 -->
<g id="edge83_Node000022_Node000021" class="edge">
<title>Node22&#45;&gt;Node21</title>
<g id="a_edge83_Node000022_Node000021"><a xlink:title=" ">
<path fill="none" stroke="#63b8ff" d="M606.54,-62.5C630.14,-67.38 656.62,-72.85 679.13,-77.5"/>
<polygon fill="#63b8ff" stroke="#63b8ff" points="607.56,-59.14 597.06,-60.54 606.14,-66 607.56,-59.14"/>
</a>
</g>
</g>
<!-- Node20&#45;&gt;Node19 -->
<g id="edge85_Node000020_Node000019" class="edge">
<title>Node20&#45;&gt;Node19</title>
<g id="a_edge85_Node000020_Node000019"><a xlink:title=" ">
<path fill="none" stroke="#63b8ff" d="M606.54,-101.5C630.14,-106.38 656.62,-111.85 679.13,-116.5"/>
<polygon fill="#63b8ff" stroke="#63b8ff" points="607.56,-98.14 597.06,-99.54 606.14,-105 607.56,-98.14"/>
</a>
</g>
</g>
<!-- Node20&#45;&gt;Node21 -->
<g id="edge86_Node000020_Node000021" class="edge">
<title>Node20&#45;&gt;Node21</title>
<g id="a_edge86_Node000020_Node000021"><a xlink:title=" ">
<path fill="none" stroke="#63b8ff" d="M619.62,-88.38C631.67,-88.38 644.12,-88.38 656.15,-88.38"/>
<polygon fill="#63b8ff" stroke="#63b8ff" points="619.73,-84.88 609.73,-88.38 619.73,-91.88 619.73,-84.88"/>
</a>
</g>
</g>
</g>
</svg>
