<?xml version="1.0" encoding="UTF-8" standalone="no"?>
<!DOCTYPE svg PUBLIC "-//W3C//DTD SVG 1.1//EN"
 "http://www.w3.org/Graphics/SVG/1.1/DTD/svg11.dtd">
<!-- Generated by graphviz version 12.2.1 (0)
 -->
<!-- Title: Graphical Class Hierarchy Pages: 1 -->
<svg width="515pt" height="254pt"
 viewBox="0.00 0.00 515.00 254.00" xmlns="http://www.w3.org/2000/svg" xmlns:xlink="http://www.w3.org/1999/xlink">
<g id="graph0" class="graph" transform="scale(1 1) rotate(0) translate(4 250)">
<title>Graphical Class Hierarchy</title>
<!-- Node0 -->
<g id="Node000000" class="node">
<title>Node0</title>
<g id="a_Node000000"><a xlink:title=" ">
<polygon fill="#e0e0e0" stroke="#999999" points="88,-108.12 0,-108.12 0,-87.38 88,-87.38 88,-108.12"/>
<text text-anchor="middle" x="44" y="-94.62" font-family="Helvetica,sans-Serif" font-size="10.00">std::false_type</text>
</a>
</g>
</g>
<!-- Node1 -->
<g id="Node000001" class="node">
<title>Node1</title>
<g id="a_Node000001"><a xlink:href="structnix_1_1charptr__cast__detail_1_1RecursionHelper.html" target="_top" xlink:title=" ">
<polygon fill="white" stroke="#666666" points="268.25,-239.62 124,-239.62 124,-167.88 268.25,-167.88 268.25,-239.62"/>
<text text-anchor="start" x="132" y="-226.12" font-family="Helvetica,sans-Serif" font-size="10.00">nix::charptr_cast_detail</text>
<text text-anchor="start" x="132" y="-213.38" font-family="Helvetica,sans-Serif" font-size="10.00">::RecursionHelper&lt; std</text>
<text text-anchor="start" x="132" y="-200.62" font-family="Helvetica,sans-Serif" font-size="10.00">::remove_pointer_t&lt; From</text>
<text text-anchor="start" x="132" y="-187.88" font-family="Helvetica,sans-Serif" font-size="10.00"> &gt;, std::remove_pointer_t</text>
<text text-anchor="middle" x="196.12" y="-175.12" font-family="Helvetica,sans-Serif" font-size="10.00">&lt; To &gt; &gt;</text>
</a>
</g>
</g>
<!-- Node0&#45;&gt;Node1 -->
<g id="edge450_Node000000_Node000001" class="edge">
<title>Node0&#45;&gt;Node1</title>
<g id="a_edge450_Node000000_Node000001"><a xlink:title=" ">
<path fill="none" stroke="#63b8ff" d="M67.01,-115.64C82.64,-128.11 104.25,-144.92 124,-158.75 128.19,-161.68 132.56,-164.66 136.99,-167.6"/>
<polygon fill="#63b8ff" stroke="#63b8ff" points="69.3,-112.98 59.31,-109.45 64.91,-118.44 69.3,-112.98"/>
</a>
</g>
</g>
<!-- Node3 -->
<g id="Node000003" class="node">
<title>Node3</title>
<g id="a_Node000003"><a xlink:href="structnix_1_1charptr__cast__detail_1_1RecursionHelper.html" target="_top" xlink:title=" ">
<polygon fill="white" stroke="#666666" points="266.75,-149.88 125.5,-149.88 125.5,-103.62 266.75,-103.62 266.75,-149.88"/>
<text text-anchor="start" x="133.5" y="-136.38" font-family="Helvetica,sans-Serif" font-size="10.00">nix::charptr_cast_detail</text>
<text text-anchor="start" x="133.5" y="-123.62" font-family="Helvetica,sans-Serif" font-size="10.00">::RecursionHelper&lt; From,</text>
<text text-anchor="middle" x="196.12" y="-110.88" font-family="Helvetica,sans-Serif" font-size="10.00"> To, typename &gt;</text>
</a>
</g>
</g>
<!-- Node0&#45;&gt;Node3 -->
<g id="edge452_Node000000_Node000003" class="edge">
<title>Node0&#45;&gt;Node3</title>
<g id="a_edge452_Node000000_Node000003"><a xlink:title=" ">
<path fill="none" stroke="#63b8ff" d="M99.53,-108.28C107.88,-109.9 116.59,-111.58 125.21,-113.25"/>
<polygon fill="#63b8ff" stroke="#63b8ff" points="100.39,-104.89 89.91,-106.43 99.06,-111.76 100.39,-104.89"/>
</a>
</g>
</g>
<!-- Node4 -->
<g id="Node000004" class="node">
<title>Node4</title>
<g id="a_Node000004"><a xlink:href="structnix_1_1json_1_1avoids__null_3_01std_1_1nullptr__t_01_4.html" target="_top" xlink:title=" ">
<polygon fill="white" stroke="#666666" points="255.5,-85.5 136.75,-85.5 136.75,-52 255.5,-52 255.5,-85.5"/>
<text text-anchor="start" x="144.75" y="-72" font-family="Helvetica,sans-Serif" font-size="10.00">nix::json::avoids_null</text>
<text text-anchor="middle" x="196.12" y="-59.25" font-family="Helvetica,sans-Serif" font-size="10.00">&lt; std::nullptr_t &gt;</text>
</a>
</g>
</g>
<!-- Node0&#45;&gt;Node4 -->
<g id="edge453_Node000000_Node000004" class="edge">
<title>Node0&#45;&gt;Node4</title>
<g id="a_edge453_Node000000_Node000004"><a xlink:title=" ">
<path fill="none" stroke="#63b8ff" d="M99.63,-87.2C111.6,-84.89 124.32,-82.43 136.44,-80.09"/>
<polygon fill="#63b8ff" stroke="#63b8ff" points="99.06,-83.74 89.91,-89.07 100.39,-90.61 99.06,-83.74"/>
</a>
</g>
</g>
<!-- Node5 -->
<g id="Node000005" class="node">
<title>Node5</title>
<g id="a_Node000005"><a xlink:href="structnix_1_1json_1_1is__integral__enum.html" target="_top" xlink:title=" ">
<polygon fill="white" stroke="#666666" points="253.25,-33.5 139,-33.5 139,0 253.25,0 253.25,-33.5"/>
<text text-anchor="start" x="147" y="-20" font-family="Helvetica,sans-Serif" font-size="10.00">nix::json::is_integral</text>
<text text-anchor="middle" x="196.12" y="-7.25" font-family="Helvetica,sans-Serif" font-size="10.00">_enum&lt; T &gt;</text>
</a>
</g>
</g>
<!-- Node0&#45;&gt;Node5 -->
<g id="edge454_Node000000_Node000005" class="edge">
<title>Node0&#45;&gt;Node5</title>
<g id="a_edge454_Node000000_Node000005"><a xlink:title=" ">
<path fill="none" stroke="#63b8ff" d="M67.01,-80.11C82.34,-68.42 103.62,-53.34 124,-42.75 130.07,-39.6 136.6,-36.65 143.17,-33.96"/>
<polygon fill="#63b8ff" stroke="#63b8ff" points="65.24,-77.05 59.5,-85.95 69.54,-82.58 65.24,-77.05"/>
</a>
</g>
</g>
<!-- Node2 -->
<g id="Node000002" class="node">
<title>Node2</title>
<g id="a_Node000002"><a xlink:href="structnix_1_1charptr__cast__detail_1_1RecursionHelper_3_01From_00_01To_00_01std_1_1enable__if__t40624b81bb334dff6fe3df9e43dcb989.html" target="_top" xlink:title=" ">
<polygon fill="white" stroke="#666666" points="507,-246 304.25,-246 304.25,-161.5 507,-161.5 507,-246"/>
<text text-anchor="start" x="312.25" y="-232.5" font-family="Helvetica,sans-Serif" font-size="10.00">nix::charptr_cast_detail</text>
<text text-anchor="start" x="312.25" y="-219.75" font-family="Helvetica,sans-Serif" font-size="10.00">::RecursionHelper&lt; From,</text>
<text text-anchor="start" x="312.25" y="-207" font-family="Helvetica,sans-Serif" font-size="10.00"> To, std::enable_if_t&lt; std</text>
<text text-anchor="start" x="312.25" y="-194.25" font-family="Helvetica,sans-Serif" font-size="10.00">::is_pointer_v&lt; From &gt; &amp;&amp;std</text>
<text text-anchor="start" x="312.25" y="-181.5" font-family="Helvetica,sans-Serif" font-size="10.00">::is_pointer_v&lt; To &gt; &amp;&amp;ValidQualifiers</text>
<text text-anchor="middle" x="405.62" y="-168.75" font-family="Helvetica,sans-Serif" font-size="10.00">&lt; From, To &gt; &gt; &gt;</text>
</a>
</g>
</g>
<!-- Node1&#45;&gt;Node2 -->
<g id="edge451_Node000001_Node000002" class="edge">
<title>Node1&#45;&gt;Node2</title>
<g id="a_edge451_Node000001_Node000002"><a xlink:title=" ">
<path fill="none" stroke="#63b8ff" d="M279.89,-203.75C287.74,-203.75 295.76,-203.75 303.75,-203.75"/>
<polygon fill="#63b8ff" stroke="#63b8ff" points="280.05,-200.25 270.05,-203.75 280.05,-207.25 280.05,-200.25"/>
</a>
</g>
</g>
</g>
</svg>
