<?xml version="1.0" encoding="UTF-8" standalone="no"?>
<!DOCTYPE svg PUBLIC "-//W3C//DTD SVG 1.1//EN"
 "http://www.w3.org/Graphics/SVG/1.1/DTD/svg11.dtd">
<!-- Generated by graphviz version 12.2.1 (0)
 -->
<!-- Title: Graphical Class Hierarchy Pages: 1 -->
<svg width="221pt" height="68pt"
 viewBox="0.00 0.00 220.75 67.75" xmlns="http://www.w3.org/2000/svg" xmlns:xlink="http://www.w3.org/1999/xlink">
<g id="graph0" class="graph" transform="scale(1 1) rotate(0) translate(4 63.75)">
<title>Graphical Class Hierarchy</title>
<!-- Node0 -->
<g id="Node000000" class="node">
<title>Node0</title>
<g id="a_Node000000"><a xlink:href="structnix_1_1Pattern.html" target="_top" xlink:title=" ">
<polygon fill="white" stroke="#666666" points="71.5,-39.75 0,-39.75 0,-19 71.5,-19 71.5,-39.75"/>
<text text-anchor="middle" x="35.75" y="-26.25" font-family="Helvetica,sans-Serif" font-size="10.00">nix::Pattern</text>
</a>
</g>
</g>
<!-- Node1 -->
<g id="Node000001" class="node">
<title>Node1</title>
<g id="a_Node000001"><a xlink:href="structnix_1_1AttrsPattern.html" target="_top" xlink:title=" ">
<polygon fill="white" stroke="#666666" points="207.5,-59.75 112.75,-59.75 112.75,-39 207.5,-39 207.5,-59.75"/>
<text text-anchor="middle" x="160.12" y="-46.25" font-family="Helvetica,sans-Serif" font-size="10.00">nix::AttrsPattern</text>
</a>
</g>
</g>
<!-- Node0&#45;&gt;Node1 -->
<g id="edge365_Node000000_Node000001" class="edge">
<title>Node0&#45;&gt;Node1</title>
<g id="a_edge365_Node000000_Node000001"><a xlink:title=" ">
<path fill="none" stroke="#63b8ff" d="M82.92,-36.92C92.64,-38.51 102.9,-40.19 112.64,-41.78"/>
<polygon fill="#63b8ff" stroke="#63b8ff" points="83.75,-33.51 73.31,-35.35 82.62,-40.42 83.75,-33.51"/>
</a>
</g>
</g>
<!-- Node2 -->
<g id="Node000002" class="node">
<title>Node2</title>
<g id="a_Node000002"><a xlink:href="structnix_1_1SimplePattern.html" target="_top" xlink:title=" ">
<polygon fill="white" stroke="#666666" points="212.75,-20.75 107.5,-20.75 107.5,0 212.75,0 212.75,-20.75"/>
<text text-anchor="middle" x="160.12" y="-7.25" font-family="Helvetica,sans-Serif" font-size="10.00">nix::SimplePattern</text>
</a>
</g>
</g>
<!-- Node0&#45;&gt;Node2 -->
<g id="edge366_Node000000_Node000002" class="edge">
<title>Node0&#45;&gt;Node2</title>
<g id="a_edge366_Node000000_Node000002"><a xlink:title=" ">
<path fill="none" stroke="#63b8ff" d="M83.05,-22.19C90.93,-20.96 99.16,-19.69 107.17,-18.44"/>
<polygon fill="#63b8ff" stroke="#63b8ff" points="82.66,-18.71 73.31,-23.7 83.73,-25.62 82.66,-18.71"/>
</a>
</g>
</g>
</g>
</svg>
