<?xml version="1.0" encoding="UTF-8" standalone="no"?>
<!DOCTYPE svg PUBLIC "-//W3C//DTD SVG 1.1//EN"
 "http://www.w3.org/Graphics/SVG/1.1/DTD/svg11.dtd">
<!-- Generated by graphviz version 12.2.1 (0)
 -->
<!-- Title: Graphical Class Hierarchy Pages: 1 -->
<svg width="340pt" height="29pt"
 viewBox="0.00 0.00 340.25 28.75" xmlns="http://www.w3.org/2000/svg" xmlns:xlink="http://www.w3.org/1999/xlink">
<g id="graph0" class="graph" transform="scale(1 1) rotate(0) translate(4 24.75)">
<title>Graphical Class Hierarchy</title>
<!-- Node0 -->
<g id="Node000000" class="node">
<title>Node0</title>
<g id="a_Node000000"><a xlink:href="classnix_1_1GoalFactory.html" target="_top" xlink:title=" ">
<polygon fill="white" stroke="#666666" points="94.75,-20.75 0,-20.75 0,0 94.75,0 94.75,-20.75"/>
<text text-anchor="middle" x="47.38" y="-7.25" font-family="Helvetica,sans-Serif" font-size="10.00">nix::GoalFactory</text>
</a>
</g>
</g>
<!-- Node1 -->
<g id="Node000001" class="node">
<title>Node1</title>
<g id="a_Node000001"><a xlink:href="classnix_1_1WorkerBase.html" target="_top" xlink:title=" ">
<polygon fill="white" stroke="#666666" points="225.5,-20.75 130.75,-20.75 130.75,0 225.5,0 225.5,-20.75"/>
<text text-anchor="middle" x="178.12" y="-7.25" font-family="Helvetica,sans-Serif" font-size="10.00">nix::WorkerBase</text>
</a>
</g>
</g>
<!-- Node0&#45;&gt;Node1 -->
<g id="edge340_Node000000_Node000001" class="edge">
<title>Node0&#45;&gt;Node1</title>
<g id="a_edge340_Node000000_Node000001"><a xlink:title=" ">
<path fill="none" stroke="darkgreen" d="M106.47,-10.38C114.53,-10.38 122.72,-10.38 130.53,-10.38"/>
<polygon fill="darkgreen" stroke="darkgreen" points="106.73,-6.88 96.73,-10.38 106.73,-13.88 106.73,-6.88"/>
</a>
</g>
</g>
<!-- Node2 -->
<g id="Node000002" class="node">
<title>Node2</title>
<g id="a_Node000002"><a xlink:href="classnix_1_1Worker.html" target="_top" xlink:title=" ">
<polygon fill="white" stroke="#666666" points="332.25,-20.75 261.5,-20.75 261.5,0 332.25,0 332.25,-20.75"/>
<text text-anchor="middle" x="296.88" y="-7.25" font-family="Helvetica,sans-Serif" font-size="10.00">nix::Worker</text>
</a>
</g>
</g>
<!-- Node1&#45;&gt;Node2 -->
<g id="edge341_Node000001_Node000002" class="edge">
<title>Node1&#45;&gt;Node2</title>
<g id="a_edge341_Node000001_Node000002"><a xlink:title=" ">
<path fill="none" stroke="#63b8ff" d="M237.41,-10.38C245.58,-10.38 253.74,-10.38 261.27,-10.38"/>
<polygon fill="#63b8ff" stroke="#63b8ff" points="237.45,-6.88 227.45,-10.38 237.45,-13.88 237.45,-6.88"/>
</a>
</g>
</g>
</g>
</svg>
