<?xml version="1.0" encoding="UTF-8" standalone="no"?>
<!DOCTYPE svg PUBLIC "-//W3C//DTD SVG 1.1//EN"
 "http://www.w3.org/Graphics/SVG/1.1/DTD/svg11.dtd">
<!-- Generated by graphviz version 12.2.1 (0)
 -->
<!-- Title: Graphical Class Hierarchy Pages: 1 -->
<svg width="386pt" height="594pt"
 viewBox="0.00 0.00 386.00 593.75" xmlns="http://www.w3.org/2000/svg" xmlns:xlink="http://www.w3.org/1999/xlink">
<g id="graph0" class="graph" transform="scale(1 1) rotate(0) translate(4 589.75)">
<title>Graphical Class Hierarchy</title>
<!-- Node0 -->
<g id="Node000000" class="node">
<title>Node0</title>
<g id="a_Node000000"><a xlink:href="structnix_1_1Expr.html" target="_top" xlink:title=" ">
<polygon fill="white" stroke="#666666" points="70.38,-312.75 11.62,-312.75 11.62,-292 70.38,-292 70.38,-312.75"/>
<text text-anchor="middle" x="41" y="-299.25" font-family="Helvetica,sans-Serif" font-size="10.00">nix::Expr</text>
</a>
</g>
</g>
<!-- Node1 -->
<g id="Node000001" class="node">
<title>Node1</title>
<g id="a_Node000001"><a xlink:href="structnix_1_1ExprAssert.html" target="_top" xlink:title=" ">
<polygon fill="white" stroke="#666666" points="217.25,-273.75 127.75,-273.75 127.75,-253 217.25,-253 217.25,-273.75"/>
<text text-anchor="middle" x="172.5" y="-260.25" font-family="Helvetica,sans-Serif" font-size="10.00">nix::ExprAssert</text>
</a>
</g>
</g>
<!-- Node0&#45;&gt;Node1 -->
<g id="edge298_Node000000_Node000001" class="edge">
<title>Node0&#45;&gt;Node1</title>
<g id="a_edge298_Node000000_Node000001"><a xlink:title=" ">
<path fill="none" stroke="#63b8ff" d="M81.55,-290.46C98.71,-285.29 118.68,-279.28 135.43,-274.24"/>
<polygon fill="#63b8ff" stroke="#63b8ff" points="80.76,-287.05 72.19,-293.28 82.77,-293.75 80.76,-287.05"/>
</a>
</g>
</g>
<!-- Node2 -->
<g id="Node000002" class="node">
<title>Node2</title>
<g id="a_Node000002"><a xlink:href="structnix_1_1ExprBlackHole.html" target="_top" xlink:title=" ">
<polygon fill="white" stroke="#666666" points="226.62,-234.75 118.38,-234.75 118.38,-214 226.62,-214 226.62,-234.75"/>
<text text-anchor="middle" x="172.5" y="-221.25" font-family="Helvetica,sans-Serif" font-size="10.00">nix::ExprBlackHole</text>
</a>
</g>
</g>
<!-- Node0&#45;&gt;Node2 -->
<g id="edge299_Node000000_Node000002" class="edge">
<title>Node0&#45;&gt;Node2</title>
<g id="a_edge299_Node000000_Node000002"><a xlink:title=" ">
<path fill="none" stroke="#63b8ff" d="M61.9,-284.57C76.61,-272.09 97.55,-255.68 118,-244.38 124.25,-240.92 131.21,-237.83 138,-235.17"/>
<polygon fill="#63b8ff" stroke="#63b8ff" points="60.02,-281.57 54.75,-290.77 64.6,-286.86 60.02,-281.57"/>
</a>
</g>
</g>
<!-- Node3 -->
<g id="Node000003" class="node">
<title>Node3</title>
<g id="a_Node000003"><a xlink:href="structnix_1_1ExprCall.html" target="_top" xlink:title=" ">
<polygon fill="white" stroke="#666666" points="211.25,-195.75 133.75,-195.75 133.75,-175 211.25,-175 211.25,-195.75"/>
<text text-anchor="middle" x="172.5" y="-182.25" font-family="Helvetica,sans-Serif" font-size="10.00">nix::ExprCall</text>
</a>
</g>
</g>
<!-- Node0&#45;&gt;Node3 -->
<g id="edge300_Node000000_Node000003" class="edge">
<title>Node0&#45;&gt;Node3</title>
<g id="a_edge300_Node000000_Node000003"><a xlink:title=" ">
<path fill="none" stroke="#63b8ff" d="M53.36,-281.93C66.39,-260.18 89.65,-226.13 118,-205.38 122.96,-201.74 128.66,-198.7 134.44,-196.17"/>
<polygon fill="#63b8ff" stroke="#63b8ff" points="50.4,-280.05 48.42,-290.46 56.46,-283.56 50.4,-280.05"/>
</a>
</g>
</g>
<!-- Node4 -->
<g id="Node000004" class="node">
<title>Node4</title>
<g id="a_Node000004"><a xlink:href="structnix_1_1ExprIf.html" target="_top" xlink:title=" ">
<polygon fill="white" stroke="#666666" points="205.25,-156.75 139.75,-156.75 139.75,-136 205.25,-136 205.25,-156.75"/>
<text text-anchor="middle" x="172.5" y="-143.25" font-family="Helvetica,sans-Serif" font-size="10.00">nix::ExprIf</text>
</a>
</g>
</g>
<!-- Node0&#45;&gt;Node4 -->
<g id="edge301_Node000000_Node000004" class="edge">
<title>Node0&#45;&gt;Node4</title>
<g id="a_edge301_Node000000_Node000004"><a xlink:title=" ">
<path fill="none" stroke="#63b8ff" d="M48.77,-280.7C59.11,-250.96 81.57,-197.66 118,-166.38 124.17,-161.08 131.88,-157.12 139.5,-154.19"/>
<polygon fill="#63b8ff" stroke="#63b8ff" points="45.48,-279.49 45.66,-290.09 52.13,-281.7 45.48,-279.49"/>
</a>
</g>
</g>
<!-- Node5 -->
<g id="Node000005" class="node">
<title>Node5</title>
<g id="a_Node000005"><a xlink:href="structnix_1_1ExprLambda.html" target="_top" xlink:title=" ">
<polygon fill="white" stroke="#666666" points="221.38,-117.75 123.62,-117.75 123.62,-97 221.38,-97 221.38,-117.75"/>
<text text-anchor="middle" x="172.5" y="-104.25" font-family="Helvetica,sans-Serif" font-size="10.00">nix::ExprLambda</text>
</a>
</g>
</g>
<!-- Node0&#45;&gt;Node5 -->
<g id="edge302_Node000000_Node000005" class="edge">
<title>Node0&#45;&gt;Node5</title>
<g id="a_edge302_Node000000_Node000005"><a xlink:title=" ">
<path fill="none" stroke="#63b8ff" d="M45.8,-280.36C53.24,-243.71 73.09,-170.01 118,-127.38 121.88,-123.69 126.51,-120.67 131.39,-118.19"/>
<polygon fill="#63b8ff" stroke="#63b8ff" points="42.36,-279.7 43.95,-290.18 49.24,-281 42.36,-279.7"/>
</a>
</g>
</g>
<!-- Node6 -->
<g id="Node000006" class="node">
<title>Node6</title>
<g id="a_Node000006"><a xlink:href="structnix_1_1ExprLet.html" target="_top" xlink:title=" ">
<polygon fill="white" stroke="#666666" points="209.38,-546.75 135.62,-546.75 135.62,-526 209.38,-526 209.38,-546.75"/>
<text text-anchor="middle" x="172.5" y="-533.25" font-family="Helvetica,sans-Serif" font-size="10.00">nix::ExprLet</text>
</a>
</g>
</g>
<!-- Node0&#45;&gt;Node6 -->
<g id="edge303_Node000000_Node000006" class="edge">
<title>Node0&#45;&gt;Node6</title>
<g id="a_edge303_Node000000_Node000006"><a xlink:title=" ">
<path fill="none" stroke="#63b8ff" d="M43.75,-324.12C48.32,-366.72 64.27,-461.75 118,-516.38 122.8,-521.25 128.9,-524.95 135.25,-527.76"/>
<polygon fill="#63b8ff" stroke="#63b8ff" points="47.26,-324.04 42.83,-314.42 40.29,-324.7 47.26,-324.04"/>
</a>
</g>
</g>
<!-- Node9 -->
<g id="Node000009" class="node">
<title>Node9</title>
<g id="a_Node000009"><a xlink:href="structnix_1_1ExprList.html" target="_top" xlink:title=" ">
<polygon fill="white" stroke="#666666" points="210.5,-78.75 134.5,-78.75 134.5,-58 210.5,-58 210.5,-78.75"/>
<text text-anchor="middle" x="172.5" y="-65.25" font-family="Helvetica,sans-Serif" font-size="10.00">nix::ExprList</text>
</a>
</g>
</g>
<!-- Node0&#45;&gt;Node9 -->
<g id="edge304_Node000000_Node000009" class="edge">
<title>Node0&#45;&gt;Node9</title>
<g id="a_edge304_Node000000_Node000009"><a xlink:title=" ">
<path fill="none" stroke="#63b8ff" d="M43.75,-280.63C48.32,-238.03 64.27,-143 118,-88.38 122.52,-83.78 128.19,-80.23 134.14,-77.49"/>
<polygon fill="#63b8ff" stroke="#63b8ff" points="40.29,-280.05 42.83,-290.33 47.26,-280.71 40.29,-280.05"/>
</a>
</g>
</g>
<!-- Node10 -->
<g id="Node000010" class="node">
<title>Node10</title>
<g id="a_Node000010"><a xlink:href="structnix_1_1ExprLiteral.html" target="_top" xlink:title=" ">
<polygon fill="white" stroke="#666666" points="217.25,-39.75 127.75,-39.75 127.75,-19 217.25,-19 217.25,-39.75"/>
<text text-anchor="middle" x="172.5" y="-26.25" font-family="Helvetica,sans-Serif" font-size="10.00">nix::ExprLiteral</text>
</a>
</g>
</g>
<!-- Node0&#45;&gt;Node10 -->
<g id="edge305_Node000000_Node000010" class="edge">
<title>Node0&#45;&gt;Node10</title>
<g id="a_edge305_Node000000_Node000010"><a xlink:title=" ">
<path fill="none" stroke="#63b8ff" d="M42.34,-280.39C44.28,-232.16 55.56,-116.07 118,-49.38 121.46,-45.68 125.66,-42.67 130.17,-40.21"/>
<polygon fill="#63b8ff" stroke="#63b8ff" points="38.85,-280 42.06,-290.09 45.85,-280.2 38.85,-280"/>
</a>
</g>
</g>
<!-- Node13 -->
<g id="Node000013" class="node">
<title>Node13</title>
<g id="a_Node000013"><a xlink:href="structnix_1_1ExprOpHasAttr.html" target="_top" xlink:title=" ">
<polygon fill="white" stroke="#666666" points="227,-507.75 118,-507.75 118,-487 227,-487 227,-507.75"/>
<text text-anchor="middle" x="172.5" y="-494.25" font-family="Helvetica,sans-Serif" font-size="10.00">nix::ExprOpHasAttr</text>
</a>
</g>
</g>
<!-- Node0&#45;&gt;Node13 -->
<g id="edge308_Node000000_Node000013" class="edge">
<title>Node0&#45;&gt;Node13</title>
<g id="a_edge308_Node000000_Node000013"><a xlink:title=" ">
<path fill="none" stroke="#63b8ff" d="M45.8,-324.39C53.24,-361.04 73.09,-434.74 118,-477.38 121.88,-481.06 126.51,-484.08 131.39,-486.56"/>
<polygon fill="#63b8ff" stroke="#63b8ff" points="49.24,-323.75 43.95,-314.57 42.36,-325.05 49.24,-323.75"/>
</a>
</g>
</g>
<!-- Node14 -->
<g id="Node000014" class="node">
<title>Node14</title>
<g id="a_Node000014"><a xlink:href="structnix_1_1ExprOpNot.html" target="_top" xlink:title=" ">
<polygon fill="white" stroke="#666666" points="217.25,-468.75 127.75,-468.75 127.75,-448 217.25,-448 217.25,-468.75"/>
<text text-anchor="middle" x="172.5" y="-455.25" font-family="Helvetica,sans-Serif" font-size="10.00">nix::ExprOpNot</text>
</a>
</g>
</g>
<!-- Node0&#45;&gt;Node14 -->
<g id="edge309_Node000000_Node000014" class="edge">
<title>Node0&#45;&gt;Node14</title>
<g id="a_edge309_Node000000_Node000014"><a xlink:title=" ">
<path fill="none" stroke="#63b8ff" d="M48.77,-324.05C59.11,-353.79 81.57,-407.09 118,-438.38 122.29,-442.06 127.32,-445.09 132.55,-447.58"/>
<polygon fill="#63b8ff" stroke="#63b8ff" points="52.13,-323.05 45.66,-314.66 45.48,-325.26 52.13,-323.05"/>
</a>
</g>
</g>
<!-- Node15 -->
<g id="Node000015" class="node">
<title>Node15</title>
<g id="a_Node000015"><a xlink:href="structnix_1_1ExprPos.html" target="_top" xlink:title=" ">
<polygon fill="white" stroke="#666666" points="210.5,-429.75 134.5,-429.75 134.5,-409 210.5,-409 210.5,-429.75"/>
<text text-anchor="middle" x="172.5" y="-416.25" font-family="Helvetica,sans-Serif" font-size="10.00">nix::ExprPos</text>
</a>
</g>
</g>
<!-- Node0&#45;&gt;Node15 -->
<g id="edge310_Node000000_Node000015" class="edge">
<title>Node0&#45;&gt;Node15</title>
<g id="a_edge310_Node000000_Node000015"><a xlink:title=" ">
<path fill="none" stroke="#63b8ff" d="M53.36,-322.82C66.39,-344.57 89.65,-378.62 118,-399.38 122.96,-403.01 128.66,-406.05 134.44,-408.58"/>
<polygon fill="#63b8ff" stroke="#63b8ff" points="56.46,-321.19 48.42,-314.29 50.4,-324.7 56.46,-321.19"/>
</a>
</g>
</g>
<!-- Node16 -->
<g id="Node000016" class="node">
<title>Node16</title>
<g id="a_Node000016"><a xlink:href="structnix_1_1ExprSelect.html" target="_top" xlink:title=" ">
<polygon fill="white" stroke="#666666" points="216.88,-390.75 128.12,-390.75 128.12,-370 216.88,-370 216.88,-390.75"/>
<text text-anchor="middle" x="172.5" y="-377.25" font-family="Helvetica,sans-Serif" font-size="10.00">nix::ExprSelect</text>
</a>
</g>
</g>
<!-- Node0&#45;&gt;Node16 -->
<g id="edge311_Node000000_Node000016" class="edge">
<title>Node0&#45;&gt;Node16</title>
<g id="a_edge311_Node000000_Node000016"><a xlink:title=" ">
<path fill="none" stroke="#63b8ff" d="M61.9,-320.18C76.61,-332.66 97.55,-349.07 118,-360.38 124.25,-363.83 131.21,-366.92 138,-369.58"/>
<polygon fill="#63b8ff" stroke="#63b8ff" points="64.6,-317.89 54.75,-313.98 60.02,-323.18 64.6,-317.89"/>
</a>
</g>
</g>
<!-- Node8 -->
<g id="Node000008" class="node">
<title>Node8</title>
<g id="a_Node000008"><a xlink:href="structnix_1_1ExprSet.html" target="_top" xlink:title=" ">
<polygon fill="white" stroke="#666666" points="209.75,-585.75 135.25,-585.75 135.25,-565 209.75,-565 209.75,-585.75"/>
<text text-anchor="middle" x="172.5" y="-572.25" font-family="Helvetica,sans-Serif" font-size="10.00">nix::ExprSet</text>
</a>
</g>
</g>
<!-- Node0&#45;&gt;Node8 -->
<g id="edge312_Node000000_Node000008" class="edge">
<title>Node0&#45;&gt;Node8</title>
<g id="a_edge312_Node000000_Node000008"><a xlink:title=" ">
<path fill="none" stroke="#63b8ff" d="M42.34,-324.36C44.28,-372.59 55.56,-488.68 118,-555.38 122.61,-560.3 128.54,-564.02 134.77,-566.82"/>
<polygon fill="#63b8ff" stroke="#63b8ff" points="45.85,-324.55 42.06,-314.66 38.85,-324.75 45.85,-324.55"/>
</a>
</g>
</g>
<!-- Node17 -->
<g id="Node000017" class="node">
<title>Node17</title>
<g id="a_Node000017"><a xlink:href="structnix_1_1ExprVar.html" target="_top" xlink:title=" ">
<polygon fill="white" stroke="#666666" points="209.75,-351.75 135.25,-351.75 135.25,-331 209.75,-331 209.75,-351.75"/>
<text text-anchor="middle" x="172.5" y="-338.25" font-family="Helvetica,sans-Serif" font-size="10.00">nix::ExprVar</text>
</a>
</g>
</g>
<!-- Node0&#45;&gt;Node17 -->
<g id="edge313_Node000000_Node000017" class="edge">
<title>Node0&#45;&gt;Node17</title>
<g id="a_edge313_Node000000_Node000017"><a xlink:title=" ">
<path fill="none" stroke="#63b8ff" d="M81.55,-314.29C98.71,-319.46 118.68,-325.47 135.43,-330.51"/>
<polygon fill="#63b8ff" stroke="#63b8ff" points="82.77,-311 72.19,-311.47 80.76,-317.7 82.77,-311"/>
</a>
</g>
</g>
<!-- Node19 -->
<g id="Node000019" class="node">
<title>Node19</title>
<g id="a_Node000019"><a xlink:href="structnix_1_1ExprWith.html" target="_top" xlink:title=" ">
<polygon fill="white" stroke="#666666" points="213.12,-312.75 131.88,-312.75 131.88,-292 213.12,-292 213.12,-312.75"/>
<text text-anchor="middle" x="172.5" y="-299.25" font-family="Helvetica,sans-Serif" font-size="10.00">nix::ExprWith</text>
</a>
</g>
</g>
<!-- Node0&#45;&gt;Node19 -->
<g id="edge315_Node000000_Node000019" class="edge">
<title>Node0&#45;&gt;Node19</title>
<g id="a_edge315_Node000000_Node000019"><a xlink:title=" ">
<path fill="none" stroke="#63b8ff" d="M82.23,-302.38C97.92,-302.38 115.88,-302.38 131.54,-302.38"/>
<polygon fill="#63b8ff" stroke="#63b8ff" points="82.25,-298.88 72.25,-302.38 82.25,-305.88 82.25,-298.88"/>
</a>
</g>
</g>
<!-- Node11 -->
<g id="Node000011" class="node">
<title>Node11</title>
<g id="a_Node000011"><a xlink:href="structnix_1_1ExprPath.html" target="_top" xlink:title=" ">
<polygon fill="white" stroke="#666666" points="360.38,-59.75 280.62,-59.75 280.62,-39 360.38,-39 360.38,-59.75"/>
<text text-anchor="middle" x="320.5" y="-46.25" font-family="Helvetica,sans-Serif" font-size="10.00">nix::ExprPath</text>
</a>
</g>
</g>
<!-- Node10&#45;&gt;Node11 -->
<g id="edge306_Node000010_Node000011" class="edge">
<title>Node10&#45;&gt;Node11</title>
<g id="a_edge306_Node000010_Node000011"><a xlink:title=" ">
<path fill="none" stroke="#63b8ff" d="M228.76,-36.94C245.95,-39.3 264.55,-41.85 280.4,-44.02"/>
<polygon fill="#63b8ff" stroke="#63b8ff" points="229.58,-33.53 219.2,-35.64 228.63,-40.46 229.58,-33.53"/>
</a>
</g>
</g>
<!-- Node12 -->
<g id="Node000012" class="node">
<title>Node12</title>
<g id="a_Node000012"><a xlink:href="structnix_1_1ExprString.html" target="_top" xlink:title=" ">
<polygon fill="white" stroke="#666666" points="364.12,-20.75 276.88,-20.75 276.88,0 364.12,0 364.12,-20.75"/>
<text text-anchor="middle" x="320.5" y="-7.25" font-family="Helvetica,sans-Serif" font-size="10.00">nix::ExprString</text>
</a>
</g>
</g>
<!-- Node10&#45;&gt;Node12 -->
<g id="edge307_Node000010_Node000012" class="edge">
<title>Node10&#45;&gt;Node12</title>
<g id="a_edge307_Node000010_Node000012"><a xlink:title=" ">
<path fill="none" stroke="#63b8ff" d="M228.91,-22.16C244.66,-20.11 261.56,-17.92 276.45,-15.98"/>
<polygon fill="#63b8ff" stroke="#63b8ff" points="228.67,-18.67 219.2,-23.43 229.57,-25.61 228.67,-18.67"/>
</a>
</g>
</g>
<!-- Node18 -->
<g id="Node000018" class="node">
<title>Node18</title>
<g id="a_Node000018"><a xlink:href="structnix_1_1ExprInheritFrom.html" target="_top" xlink:title=" ">
<polygon fill="white" stroke="#666666" points="378,-351.75 263,-351.75 263,-331 378,-331 378,-351.75"/>
<text text-anchor="middle" x="320.5" y="-338.25" font-family="Helvetica,sans-Serif" font-size="10.00">nix::ExprInheritFrom</text>
</a>
</g>
</g>
<!-- Node17&#45;&gt;Node18 -->
<g id="edge314_Node000017_Node000018" class="edge">
<title>Node17&#45;&gt;Node18</title>
<g id="a_edge314_Node000017_Node000018"><a xlink:title=" ">
<path fill="none" stroke="#63b8ff" d="M221.18,-341.38C234.38,-341.38 248.83,-341.38 262.5,-341.38"/>
<polygon fill="#63b8ff" stroke="#63b8ff" points="221.48,-337.88 211.48,-341.38 221.48,-344.88 221.48,-337.88"/>
</a>
</g>
</g>
<!-- Node7 -->
<g id="Node000007" class="node">
<title>Node7</title>
<g id="a_Node000007"><a xlink:href="structnix_1_1ExprAttrs.html" target="_top" xlink:title=" ">
<polygon fill="white" stroke="#666666" points="82,-565.75 0,-565.75 0,-545 82,-545 82,-565.75"/>
<text text-anchor="middle" x="41" y="-552.25" font-family="Helvetica,sans-Serif" font-size="10.00">nix::ExprAttrs</text>
</a>
</g>
</g>
<!-- Node7&#45;&gt;Node6 -->
<g id="edge316_Node000007_Node000006" class="edge">
<title>Node7&#45;&gt;Node6</title>
<g id="a_edge316_Node000007_Node000006"><a xlink:title=" ">
<path fill="none" stroke="#63b8ff" d="M93.27,-547.85C107.3,-545.79 122.22,-543.61 135.22,-541.7"/>
<polygon fill="#63b8ff" stroke="#63b8ff" points="93.15,-544.33 83.76,-549.25 94.16,-551.26 93.15,-544.33"/>
</a>
</g>
</g>
<!-- Node7&#45;&gt;Node8 -->
<g id="edge317_Node000007_Node000008" class="edge">
<title>Node7&#45;&gt;Node8</title>
<g id="a_edge317_Node000007_Node000008"><a xlink:title=" ">
<path fill="none" stroke="#63b8ff" d="M93.59,-563.34C107.37,-565.47 121.98,-567.73 134.78,-569.7"/>
<polygon fill="#63b8ff" stroke="#63b8ff" points="94.18,-559.89 83.76,-561.82 93.11,-566.81 94.18,-559.89"/>
</a>
</g>
</g>
</g>
</svg>
