<?xml version="1.0" encoding="UTF-8" standalone="no"?>
<!DOCTYPE svg PUBLIC "-//W3C//DTD SVG 1.1//EN"
 "http://www.w3.org/Graphics/SVG/1.1/DTD/svg11.dtd">
<!-- Generated by graphviz version 12.2.1 (0)
 -->
<!-- Title: lix/libcmd/installables.hh Pages: 1 -->
<svg width="404pt" height="237pt"
 viewBox="0.00 0.00 404.00 237.25" xmlns="http://www.w3.org/2000/svg" xmlns:xlink="http://www.w3.org/1999/xlink">
<g id="graph0" class="graph" transform="scale(1 1) rotate(0) translate(4 233.25)">
<title>lix/libcmd/installables.hh</title>
<!-- Node1 -->
<g id="Node000001" class="node">
<title>Node1</title>
<g id="a_Node000001"><a xlink:title=" ">
<polygon fill="#999999" stroke="#666666" points="196.12,-229.25 57.88,-229.25 57.88,-208.5 196.12,-208.5 196.12,-229.25"/>
<text text-anchor="middle" x="127" y="-215.75" font-family="Helvetica,sans-Serif" font-size="10.00">lix/libcmd/installables.hh</text>
</a>
</g>
</g>
<!-- Node2 -->
<g id="Node000002" class="node">
<title>Node2</title>
<g id="a_Node000002"><a xlink:href="installable-derived-path_8hh.html" target="_top" xlink:title=" ">
<polygon fill="white" stroke="#666666" points="118,-172.5 0,-172.5 0,-139 118,-139 118,-172.5"/>
<text text-anchor="start" x="8" y="-159" font-family="Helvetica,sans-Serif" font-size="10.00">lix/libcmd/installable</text>
<text text-anchor="middle" x="59" y="-146.25" font-family="Helvetica,sans-Serif" font-size="10.00">&#45;derived&#45;path.hh</text>
</a>
</g>
</g>
<!-- Node1&#45;&gt;Node2 -->
<g id="edge1_Node000001_Node000002" class="edge">
<title>Node1&#45;&gt;Node2</title>
<g id="a_edge1_Node000001_Node000002"><a xlink:title=" ">
<path fill="none" stroke="#63b8ff" d="M107.59,-200.43C97.99,-191.8 86.47,-181.44 77.06,-172.98"/>
<polygon fill="#63b8ff" stroke="#63b8ff" points="105.17,-202.96 114.95,-207.04 109.85,-197.75 105.17,-202.96"/>
</a>
</g>
</g>
<!-- Node3 -->
<g id="Node000003" class="node">
<title>Node3</title>
<g id="a_Node000003"><a xlink:href="installable-value_8hh.html" target="_top" xlink:title=" ">
<polygon fill="white" stroke="#666666" points="254,-172.5 136,-172.5 136,-139 254,-139 254,-172.5"/>
<text text-anchor="start" x="144" y="-159" font-family="Helvetica,sans-Serif" font-size="10.00">lix/libcmd/installable</text>
<text text-anchor="middle" x="195" y="-146.25" font-family="Helvetica,sans-Serif" font-size="10.00">&#45;value.hh</text>
</a>
</g>
</g>
<!-- Node1&#45;&gt;Node3 -->
<g id="edge2_Node000001_Node000003" class="edge">
<title>Node1&#45;&gt;Node3</title>
<g id="a_edge2_Node000001_Node000003"><a xlink:title=" ">
<path fill="none" stroke="#63b8ff" d="M146.41,-200.43C156.01,-191.8 167.53,-181.44 176.94,-172.98"/>
<polygon fill="#63b8ff" stroke="#63b8ff" points="144.15,-197.75 139.05,-207.04 148.83,-202.96 144.15,-197.75"/>
</a>
</g>
</g>
<!-- Node4 -->
<g id="Node000004" class="node">
<title>Node4</title>
<g id="a_Node000004"><a xlink:href="command_8hh.html" target="_top" xlink:title=" ">
<polygon fill="white" stroke="#666666" points="260.38,-96.62 129.62,-96.62 129.62,-75.88 260.38,-75.88 260.38,-96.62"/>
<text text-anchor="middle" x="195" y="-83.12" font-family="Helvetica,sans-Serif" font-size="10.00">lix/libcmd/command.hh</text>
</a>
</g>
</g>
<!-- Node3&#45;&gt;Node4 -->
<g id="edge3_Node000003_Node000004" class="edge">
<title>Node3&#45;&gt;Node4</title>
<g id="a_edge3_Node000003_Node000004"><a xlink:title=" ">
<path fill="none" stroke="#63b8ff" d="M195,-127.28C195,-116.58 195,-105.01 195,-97.07"/>
<polygon fill="#63b8ff" stroke="#63b8ff" points="191.5,-127.24 195,-137.24 198.5,-127.24 191.5,-127.24"/>
</a>
</g>
</g>
<!-- Node5 -->
<g id="Node000005" class="node">
<title>Node5</title>
<g id="a_Node000005"><a xlink:href="installable-attr-path_8hh.html" target="_top" xlink:title=" ">
<polygon fill="white" stroke="#666666" points="161,-33.5 43,-33.5 43,0 161,0 161,-33.5"/>
<text text-anchor="start" x="51" y="-20" font-family="Helvetica,sans-Serif" font-size="10.00">lix/libcmd/installable</text>
<text text-anchor="middle" x="102" y="-7.25" font-family="Helvetica,sans-Serif" font-size="10.00">&#45;attr&#45;path.hh</text>
</a>
</g>
</g>
<!-- Node3&#45;&gt;Node5 -->
<g id="edge6_Node000003_Node000005" class="edge">
<title>Node3&#45;&gt;Node5</title>
<g id="a_edge6_Node000003_Node000005"><a xlink:title=" ">
<path fill="none" stroke="#63b8ff" d="M151.85,-132.44C140.29,-124.57 128.84,-114.7 121,-103 106.91,-81.96 103.12,-52.09 102.18,-33.87"/>
<polygon fill="#63b8ff" stroke="#63b8ff" points="149.92,-135.36 160.23,-137.77 153.67,-129.45 149.92,-135.36"/>
</a>
</g>
</g>
<!-- Node7 -->
<g id="Node000007" class="node">
<title>Node7</title>
<g id="a_Node000007"><a xlink:href="installable-flake_8hh.html" target="_top" xlink:title=" ">
<polygon fill="white" stroke="#666666" points="396,-103 278,-103 278,-69.5 396,-69.5 396,-103"/>
<text text-anchor="start" x="286" y="-89.5" font-family="Helvetica,sans-Serif" font-size="10.00">lix/libcmd/installable</text>
<text text-anchor="middle" x="337" y="-76.75" font-family="Helvetica,sans-Serif" font-size="10.00">&#45;flake.hh</text>
</a>
</g>
</g>
<!-- Node3&#45;&gt;Node7 -->
<g id="edge7_Node000003_Node000007" class="edge">
<title>Node3&#45;&gt;Node7</title>
<g id="a_edge7_Node000003_Node000007"><a xlink:title=" ">
<path fill="none" stroke="#63b8ff" d="M239.15,-133.76C259.83,-123.93 284.08,-112.41 303.26,-103.29"/>
<polygon fill="#63b8ff" stroke="#63b8ff" points="237.91,-130.48 230.38,-137.93 240.91,-136.8 237.91,-130.48"/>
</a>
</g>
</g>
<!-- Node4&#45;&gt;Node5 -->
<g id="edge4_Node000004_Node000005" class="edge">
<title>Node4&#45;&gt;Node5</title>
<g id="a_edge4_Node000004_Node000005"><a xlink:title=" ">
<path fill="none" stroke="#63b8ff" d="M172.77,-69.12C158.11,-58.47 138.96,-44.57 124.28,-33.92"/>
<polygon fill="#63b8ff" stroke="#63b8ff" points="170.3,-71.65 180.45,-74.69 174.41,-65.98 170.3,-71.65"/>
</a>
</g>
</g>
<!-- Node6 -->
<g id="Node000006" class="node">
<title>Node6</title>
<g id="a_Node000006"><a xlink:href="nix_2daemon_8cc.html" target="_top" xlink:title=" ">
<polygon fill="white" stroke="#666666" points="281.12,-27.12 178.88,-27.12 178.88,-6.38 281.12,-6.38 281.12,-27.12"/>
<text text-anchor="middle" x="230" y="-13.62" font-family="Helvetica,sans-Serif" font-size="10.00">lix/nix/daemon.cc</text>
</a>
</g>
</g>
<!-- Node4&#45;&gt;Node6 -->
<g id="edge5_Node000004_Node000006" class="edge">
<title>Node4&#45;&gt;Node6</title>
<g id="a_edge5_Node000004_Node000006"><a xlink:title=" ">
<path fill="none" stroke="#63b8ff" d="M205.19,-65.59C211.7,-53.04 219.85,-37.32 224.99,-27.4"/>
<polygon fill="#63b8ff" stroke="#63b8ff" points="202.21,-63.75 200.71,-74.24 208.42,-66.97 202.21,-63.75"/>
</a>
</g>
</g>
</g>
</svg>
