<?xml version="1.0" encoding="UTF-8" standalone="no"?>
<!DOCTYPE svg PUBLIC "-//W3C//DTD SVG 1.1//EN"
 "http://www.w3.org/Graphics/SVG/1.1/DTD/svg11.dtd">
<!-- Generated by graphviz version 12.2.1 (0)
 -->
<!-- Title: lix/libcmd/legacy.hh Pages: 1 -->
<svg width="1660pt" height="382pt"
 viewBox="0.00 0.00 1659.73 382.00" xmlns="http://www.w3.org/2000/svg" xmlns:xlink="http://www.w3.org/1999/xlink">
<g id="graph0" class="graph" transform="scale(1 1) rotate(0) translate(4 378)">
<title>lix/libcmd/legacy.hh</title>
<!-- Node1 -->
<g id="Node000001" class="node">
<title>Node1</title>
<g id="a_Node000001"><a xlink:title=" ">
<polygon fill="#999999" stroke="#666666" points="1090.48,-374 977.73,-374 977.73,-353.25 1090.48,-353.25 1090.48,-374"/>
<text text-anchor="middle" x="1034.1" y="-360.5" font-family="Helvetica,sans-Serif" font-size="10.00">lix/libcmd/legacy.hh</text>
</a>
</g>
</g>
<!-- Node2 -->
<g id="Node000002" class="node">
<title>Node2</title>
<g id="a_Node000002"><a xlink:href="async_8hh.html" target="_top" xlink:title=" ">
<polygon fill="white" stroke="#666666" points="1086.73,-317.25 981.48,-317.25 981.48,-296.5 1086.73,-296.5 1086.73,-317.25"/>
<text text-anchor="middle" x="1034.1" y="-303.75" font-family="Helvetica,sans-Serif" font-size="10.00">lix/libutil/async.hh</text>
</a>
</g>
</g>
<!-- Node1&#45;&gt;Node2 -->
<g id="edge1_Node000001_Node000002" class="edge">
<title>Node1&#45;&gt;Node2</title>
<g id="a_edge1_Node000001_Node000002"><a xlink:title=" ">
<path fill="none" stroke="#63b8ff" d="M1034.1,-352.84C1034.1,-346.22 1034.1,-337.22 1034.1,-329.02"/>
<polygon fill="#63b8ff" stroke="#63b8ff" points="1037.6,-329.09 1034.1,-319.09 1030.6,-329.09 1037.6,-329.09"/>
</a>
</g>
</g>
<!-- Node18 -->
<g id="Node000018" class="node">
<title>Node18</title>
<g id="a_Node000018"><a xlink:title=" ">
<polygon fill="#e0e0e0" stroke="#999999" points="522.98,-77.5 479.23,-77.5 479.23,-56.75 522.98,-56.75 522.98,-77.5"/>
<text text-anchor="middle" x="501.1" y="-64" font-family="Helvetica,sans-Serif" font-size="10.00">string</text>
</a>
</g>
</g>
<!-- Node1&#45;&gt;Node18 -->
<g id="edge49_Node000001_Node000018" class="edge">
<title>Node1&#45;&gt;Node18</title>
<g id="a_edge49_Node000001_Node000018"><a xlink:title=" ">
<path fill="none" stroke="#63b8ff" d="M977.52,-362.5C761.66,-361.31 2.1,-350.07 2.1,-251.12 2.1,-251.12 2.1,-251.12 2.1,-192.38 2.1,-156.32 -6.31,-136.93 21.1,-113.5 94.67,-50.62 353.73,-93.06 467.68,-77.3"/>
<polygon fill="#63b8ff" stroke="#63b8ff" points="468.1,-80.78 477.4,-75.71 466.97,-73.87 468.1,-80.78"/>
</a>
</g>
</g>
<!-- Node25 -->
<g id="Node000025" class="node">
<title>Node25</title>
<g id="a_Node000025"><a xlink:title=" ">
<polygon fill="#e0e0e0" stroke="#999999" points="662.6,-140.62 631.6,-140.62 631.6,-119.88 662.6,-119.88 662.6,-140.62"/>
<text text-anchor="middle" x="647.1" y="-127.12" font-family="Helvetica,sans-Serif" font-size="10.00">list</text>
</a>
</g>
</g>
<!-- Node1&#45;&gt;Node25 -->
<g id="edge47_Node000001_Node000025" class="edge">
<title>Node1&#45;&gt;Node25</title>
<g id="a_edge47_Node000001_Node000025"><a xlink:title=" ">
<path fill="none" stroke="#63b8ff" d="M1016.46,-352.82C984.22,-334.85 913.72,-295.28 855.1,-260.5 775.46,-213.24 753.71,-199.56 671.31,-147.05"/>
<polygon fill="#63b8ff" stroke="#63b8ff" points="673.37,-144.21 663.06,-141.79 669.61,-150.12 673.37,-144.21"/>
</a>
</g>
</g>
<!-- Node37 -->
<g id="Node000037" class="node">
<title>Node37</title>
<g id="a_Node000037"><a xlink:title=" ">
<polygon fill="#e0e0e0" stroke="#999999" points="1481.48,-203.75 1416.73,-203.75 1416.73,-183 1481.48,-183 1481.48,-203.75"/>
<text text-anchor="middle" x="1449.1" y="-190.25" font-family="Helvetica,sans-Serif" font-size="10.00">functional</text>
</a>
</g>
</g>
<!-- Node1&#45;&gt;Node37 -->
<g id="edge46_Node000001_Node000037" class="edge">
<title>Node1&#45;&gt;Node37</title>
<g id="a_edge46_Node000001_Node000037"><a xlink:title=" ">
<path fill="none" stroke="#63b8ff" d="M1058.21,-352.85C1128.33,-324.42 1332.45,-241.67 1414.42,-208.43"/>
<polygon fill="#63b8ff" stroke="#63b8ff" points="1415.58,-211.74 1423.53,-204.74 1412.95,-205.26 1415.58,-211.74"/>
</a>
</g>
</g>
<!-- Node40 -->
<g id="Node000040" class="node">
<title>Node40</title>
<g id="a_Node000040"><a xlink:title=" ">
<polygon fill="#e0e0e0" stroke="#999999" points="1305.98,-317.25 1268.23,-317.25 1268.23,-296.5 1305.98,-296.5 1305.98,-317.25"/>
<text text-anchor="middle" x="1287.1" y="-303.75" font-family="Helvetica,sans-Serif" font-size="10.00">map</text>
</a>
</g>
</g>
<!-- Node1&#45;&gt;Node40 -->
<g id="edge48_Node000001_Node000040" class="edge">
<title>Node1&#45;&gt;Node40</title>
<g id="a_edge48_Node000001_Node000040"><a xlink:title=" ">
<path fill="none" stroke="#63b8ff" d="M1087.25,-352.8C1131.96,-344.26 1197.47,-331.11 1254.1,-317.25 1255.09,-317.01 1256.09,-316.76 1257.1,-316.5"/>
<polygon fill="#63b8ff" stroke="#63b8ff" points="1257.77,-319.95 1266.51,-313.96 1255.94,-313.19 1257.77,-319.95"/>
</a>
</g>
</g>
<!-- Node3 -->
<g id="Node000003" class="node">
<title>Node3</title>
<g id="a_Node000003"><a xlink:href="result_8hh.html" target="_top" xlink:title=" ">
<polygon fill="white" stroke="#666666" points="509.35,-203.75 404.85,-203.75 404.85,-183 509.35,-183 509.35,-203.75"/>
<text text-anchor="middle" x="457.1" y="-190.25" font-family="Helvetica,sans-Serif" font-size="10.00">lix/libutil/result.hh</text>
</a>
</g>
</g>
<!-- Node2&#45;&gt;Node3 -->
<g id="edge2_Node000002_Node000003" class="edge">
<title>Node2&#45;&gt;Node3</title>
<g id="a_edge2_Node000002_Node000003"><a xlink:title=" ">
<path fill="none" stroke="#63b8ff" d="M1034.47,-296.43C1034.48,-281.74 1032.11,-253.67 1015.1,-239.75 977.57,-209.02 659.23,-198.62 520.88,-195.54"/>
<polygon fill="#63b8ff" stroke="#63b8ff" points="521.23,-192.04 511.16,-195.33 521.08,-199.04 521.23,-192.04"/>
</a>
</g>
</g>
<!-- Node8 -->
<g id="Node000008" class="node">
<title>Node8</title>
<g id="a_Node000008"><a xlink:href="signals_8hh_source.html" target="_top" xlink:title=" ">
<polygon fill="white" stroke="#666666" points="1173.73,-260.5 1062.48,-260.5 1062.48,-239.75 1173.73,-239.75 1173.73,-260.5"/>
<text text-anchor="middle" x="1118.1" y="-247" font-family="Helvetica,sans-Serif" font-size="10.00">lix/libutil/signals.hh</text>
</a>
</g>
</g>
<!-- Node2&#45;&gt;Node8 -->
<g id="edge7_Node000002_Node000008" class="edge">
<title>Node2&#45;&gt;Node8</title>
<g id="a_edge7_Node000002_Node000008"><a xlink:title=" ">
<path fill="none" stroke="#63b8ff" d="M1049.12,-296.09C1061.54,-287.99 1079.43,-276.33 1093.87,-266.92"/>
<polygon fill="#63b8ff" stroke="#63b8ff" points="1095.48,-270.05 1101.95,-261.65 1091.66,-264.18 1095.48,-270.05"/>
</a>
</g>
</g>
<!-- Node32 -->
<g id="Node000032" class="node">
<title>Node32</title>
<g id="a_Node000032"><a xlink:title=" ">
<polygon fill="#e0e0e0" stroke="#999999" points="1398.85,-203.75 1333.35,-203.75 1333.35,-183 1398.85,-183 1398.85,-203.75"/>
<text text-anchor="middle" x="1366.1" y="-190.25" font-family="Helvetica,sans-Serif" font-size="10.00">kj/async.h</text>
</a>
</g>
</g>
<!-- Node2&#45;&gt;Node32 -->
<g id="edge45_Node000002_Node000032" class="edge">
<title>Node2&#45;&gt;Node32</title>
<g id="a_edge45_Node000002_Node000032"><a xlink:title=" ">
<path fill="none" stroke="#63b8ff" d="M1072,-296.07C1102.45,-287.78 1146.08,-274.97 1183.1,-260.5 1202.87,-252.78 1206.41,-247.65 1226.1,-239.75 1257.68,-227.08 1294.28,-215.32 1322.14,-206.94"/>
<polygon fill="#63b8ff" stroke="#63b8ff" points="1323.08,-210.31 1331.67,-204.11 1321.09,-203.6 1323.08,-210.31"/>
</a>
</g>
</g>
<!-- Node38 -->
<g id="Node000038" class="node">
<title>Node38</title>
<g id="a_Node000038"><a xlink:title=" ">
<polygon fill="#e0e0e0" stroke="#999999" points="909.73,-260.5 864.48,-260.5 864.48,-239.75 909.73,-239.75 909.73,-260.5"/>
<text text-anchor="middle" x="887.1" y="-247" font-family="Helvetica,sans-Serif" font-size="10.00">future</text>
</a>
</g>
</g>
<!-- Node2&#45;&gt;Node38 -->
<g id="edge43_Node000002_Node000038" class="edge">
<title>Node2&#45;&gt;Node38</title>
<g id="a_edge43_Node000002_Node000038"><a xlink:title=" ">
<path fill="none" stroke="#63b8ff" d="M1007.82,-296.09C983.4,-286.99 946.91,-273.4 920.45,-263.54"/>
<polygon fill="#63b8ff" stroke="#63b8ff" points="921.79,-260.31 911.2,-260.1 919.35,-266.87 921.79,-260.31"/>
</a>
</g>
</g>
<!-- Node39 -->
<g id="Node000039" class="node">
<title>Node39</title>
<g id="a_Node000039"><a xlink:title=" ">
<polygon fill="#e0e0e0" stroke="#999999" points="1006.23,-260.5 927.98,-260.5 927.98,-239.75 1006.23,-239.75 1006.23,-260.5"/>
<text text-anchor="middle" x="967.1" y="-247" font-family="Helvetica,sans-Serif" font-size="10.00">kj/async&#45;io.h</text>
</a>
</g>
</g>
<!-- Node2&#45;&gt;Node39 -->
<g id="edge44_Node000002_Node000039" class="edge">
<title>Node2&#45;&gt;Node39</title>
<g id="a_edge44_Node000002_Node000039"><a xlink:title=" ">
<path fill="none" stroke="#63b8ff" d="M1022.12,-296.09C1012.6,-288.3 999.04,-277.22 987.77,-268.01"/>
<polygon fill="#63b8ff" stroke="#63b8ff" points="990.11,-265.4 980.15,-261.79 985.68,-270.82 990.11,-265.4"/>
</a>
</g>
</g>
<!-- Node4 -->
<g id="Node000004" class="node">
<title>Node4</title>
<g id="a_Node000004"><a xlink:title=" ">
<polygon fill="#e0e0e0" stroke="#999999" points="613.98,-140.62 438.23,-140.62 438.23,-119.88 613.98,-119.88 613.98,-140.62"/>
<text text-anchor="middle" x="526.1" y="-127.12" font-family="Helvetica,sans-Serif" font-size="10.00">boost/outcome/std_outcome.hpp</text>
</a>
</g>
</g>
<!-- Node3&#45;&gt;Node4 -->
<g id="edge3_Node000003_Node000004" class="edge">
<title>Node3&#45;&gt;Node4</title>
<g id="a_edge3_Node000003_Node000004"><a xlink:title=" ">
<path fill="none" stroke="#63b8ff" d="M468.19,-182.55C478.61,-173.32 494.43,-159.31 506.91,-148.26"/>
<polygon fill="#63b8ff" stroke="#63b8ff" points="508.97,-151.1 514.14,-141.85 504.33,-145.86 508.97,-151.1"/>
</a>
</g>
</g>
<!-- Node5 -->
<g id="Node000005" class="node">
<title>Node5</title>
<g id="a_Node000005"><a xlink:title=" ">
<polygon fill="#e0e0e0" stroke="#999999" points="190.48,-140.62 29.73,-140.62 29.73,-119.88 190.48,-119.88 190.48,-140.62"/>
<text text-anchor="middle" x="110.1" y="-127.12" font-family="Helvetica,sans-Serif" font-size="10.00">boost/outcome/std_result.hpp</text>
</a>
</g>
</g>
<!-- Node3&#45;&gt;Node5 -->
<g id="edge4_Node000003_Node000005" class="edge">
<title>Node3&#45;&gt;Node5</title>
<g id="a_edge4_Node000003_Node000005"><a xlink:title=" ">
<path fill="none" stroke="#63b8ff" d="M404.72,-183.18C352.59,-174.02 270.31,-159.56 199.1,-147 191.92,-145.73 184.41,-144.41 176.93,-143.08"/>
<polygon fill="#63b8ff" stroke="#63b8ff" points="177.6,-139.65 167.14,-141.35 176.38,-146.54 177.6,-139.65"/>
</a>
</g>
</g>
<!-- Node6 -->
<g id="Node000006" class="node">
<title>Node6</title>
<g id="a_Node000006"><a xlink:title=" ">
<polygon fill="#e0e0e0" stroke="#999999" points="338.1,-147 208.1,-147 208.1,-113.5 338.1,-113.5 338.1,-147"/>
<text text-anchor="start" x="216.1" y="-133.5" font-family="Helvetica,sans-Serif" font-size="10.00">boost/outcome/success</text>
<text text-anchor="middle" x="273.1" y="-120.75" font-family="Helvetica,sans-Serif" font-size="10.00">_failure.hpp</text>
</a>
</g>
</g>
<!-- Node3&#45;&gt;Node6 -->
<g id="edge5_Node000003_Node000006" class="edge">
<title>Node3&#45;&gt;Node6</title>
<g id="a_edge5_Node000003_Node000006"><a xlink:title=" ">
<path fill="none" stroke="#63b8ff" d="M427.54,-182.55C401.98,-174.06 364.26,-161.53 332.49,-150.98"/>
<polygon fill="#63b8ff" stroke="#63b8ff" points="334,-147.79 323.41,-147.96 331.8,-154.44 334,-147.79"/>
</a>
</g>
</g>
<!-- Node7 -->
<g id="Node000007" class="node">
<title>Node7</title>
<g id="a_Node000007"><a xlink:title=" ">
<polygon fill="#e0e0e0" stroke="#999999" points="420.1,-140.62 356.1,-140.62 356.1,-119.88 420.1,-119.88 420.1,-140.62"/>
<text text-anchor="middle" x="388.1" y="-127.12" font-family="Helvetica,sans-Serif" font-size="10.00">exception</text>
</a>
</g>
</g>
<!-- Node3&#45;&gt;Node7 -->
<g id="edge6_Node000003_Node000007" class="edge">
<title>Node3&#45;&gt;Node7</title>
<g id="a_edge6_Node000003_Node000007"><a xlink:title=" ">
<path fill="none" stroke="#63b8ff" d="M446.02,-182.55C435.59,-173.32 419.77,-159.31 407.3,-148.26"/>
<polygon fill="#63b8ff" stroke="#63b8ff" points="409.87,-145.86 400.07,-141.85 405.23,-151.1 409.87,-145.86"/>
</a>
</g>
</g>
<!-- Node8&#45;&gt;Node3 -->
<g id="edge33_Node000008_Node000003" class="edge">
<title>Node8&#45;&gt;Node3</title>
<g id="a_edge33_Node000008_Node000003"><a xlink:title=" ">
<path fill="none" stroke="#63b8ff" d="M1062.35,-241.37C1057.54,-240.79 1052.74,-240.24 1048.1,-239.75 856.79,-219.61 629.74,-204.69 521.16,-198.1"/>
<polygon fill="#63b8ff" stroke="#63b8ff" points="521.47,-194.62 511.28,-197.51 521.05,-201.6 521.47,-194.62"/>
</a>
</g>
</g>
<!-- Node9 -->
<g id="Node000009" class="node">
<title>Node9</title>
<g id="a_Node000009"><a xlink:href="error_8hh.html" target="_top" xlink:title="This file defines two main structs/classes used in nix error handling.">
<polygon fill="white" stroke="#666666" points="1128.73,-203.75 1029.48,-203.75 1029.48,-183 1128.73,-183 1128.73,-203.75"/>
<text text-anchor="middle" x="1079.1" y="-190.25" font-family="Helvetica,sans-Serif" font-size="10.00">lix/libutil/error.hh</text>
</a>
</g>
</g>
<!-- Node8&#45;&gt;Node9 -->
<g id="edge8_Node000008_Node000009" class="edge">
<title>Node8&#45;&gt;Node9</title>
<g id="a_edge8_Node000008_Node000009"><a xlink:title=" ">
<path fill="none" stroke="#63b8ff" d="M1111.13,-239.34C1105.97,-232.1 1098.79,-222.01 1092.53,-213.22"/>
<polygon fill="#63b8ff" stroke="#63b8ff" points="1095.55,-211.43 1086.89,-205.31 1089.84,-215.49 1095.55,-211.43"/>
</a>
</g>
</g>
<!-- Node26 -->
<g id="Node000026" class="node">
<title>Node26</title>
<g id="a_Node000026"><a xlink:title=" ">
<polygon fill="#e0e0e0" stroke="#999999" points="1481.73,-140.62 1424.48,-140.62 1424.48,-119.88 1481.73,-119.88 1481.73,-140.62"/>
<text text-anchor="middle" x="1453.1" y="-127.12" font-family="Helvetica,sans-Serif" font-size="10.00">memory</text>
</a>
</g>
</g>
<!-- Node8&#45;&gt;Node26 -->
<g id="edge35_Node000008_Node000026" class="edge">
<title>Node8&#45;&gt;Node26</title>
<g id="a_edge35_Node000008_Node000026"><a xlink:title=" ">
<path fill="none" stroke="#63b8ff" d="M1124.11,-239.58C1134.01,-224.75 1155.24,-196.5 1181.1,-183 1274.38,-134.31 1313.77,-175.35 1415.1,-147 1417.22,-146.41 1419.37,-145.73 1421.53,-145"/>
<polygon fill="#63b8ff" stroke="#63b8ff" points="1422.58,-148.34 1430.7,-141.54 1420.11,-141.79 1422.58,-148.34"/>
</a>
</g>
</g>
<!-- Node28 -->
<g id="Node000028" class="node">
<title>Node28</title>
<g id="a_Node000028"><a xlink:title=" ">
<polygon fill="#e0e0e0" stroke="#999999" points="1570.85,-140.62 1499.35,-140.62 1499.35,-119.88 1570.85,-119.88 1570.85,-140.62"/>
<text text-anchor="middle" x="1535.1" y="-127.12" font-family="Helvetica,sans-Serif" font-size="10.00">sys/types.h</text>
</a>
</g>
</g>
<!-- Node8&#45;&gt;Node28 -->
<g id="edge36_Node000008_Node000028" class="edge">
<title>Node8&#45;&gt;Node28</title>
<g id="a_edge36_Node000008_Node000028"><a xlink:title=" ">
<path fill="none" stroke="#63b8ff" d="M1131.42,-239.32C1154.33,-222.65 1200.54,-189.9 1219.1,-183 1333.42,-140.54 1372.59,-175.71 1491.1,-147 1494.03,-146.29 1497.04,-145.45 1500.04,-144.54"/>
<polygon fill="#63b8ff" stroke="#63b8ff" points="1500.88,-147.95 1509.28,-141.49 1498.69,-141.31 1500.88,-147.95"/>
</a>
</g>
</g>
<!-- Node29 -->
<g id="Node000029" class="node">
<title>Node29</title>
<g id="a_Node000029"><a xlink:title=" ">
<polygon fill="#e0e0e0" stroke="#999999" points="1651.73,-140.62 1588.48,-140.62 1588.48,-119.88 1651.73,-119.88 1651.73,-140.62"/>
<text text-anchor="middle" x="1620.1" y="-127.12" font-family="Helvetica,sans-Serif" font-size="10.00">sys/stat.h</text>
</a>
</g>
</g>
<!-- Node8&#45;&gt;Node29 -->
<g id="edge37_Node000008_Node000029" class="edge">
<title>Node8&#45;&gt;Node29</title>
<g id="a_edge37_Node000008_Node000029"><a xlink:title=" ">
<path fill="none" stroke="#63b8ff" d="M1140.29,-239.31C1160.09,-230.41 1189.8,-216.74 1215.1,-203.75 1231.88,-195.14 1234.15,-188.76 1252.1,-183 1391.76,-138.23 1437.73,-182.17 1580.1,-147 1582.58,-146.39 1585.1,-145.66 1587.62,-144.86"/>
<polygon fill="#63b8ff" stroke="#63b8ff" points="1588.78,-148.16 1597.01,-141.5 1586.42,-141.57 1588.78,-148.16"/>
</a>
</g>
</g>
<!-- Node8&#45;&gt;Node32 -->
<g id="edge34_Node000008_Node000032" class="edge">
<title>Node8&#45;&gt;Node32</title>
<g id="a_edge34_Node000008_Node000032"><a xlink:title=" ">
<path fill="none" stroke="#63b8ff" d="M1162.72,-239.34C1202.08,-230.69 1261.32,-217.66 1322.12,-204.18"/>
<polygon fill="#63b8ff" stroke="#63b8ff" points="1322.61,-207.66 1331.61,-202.08 1321.09,-200.83 1322.61,-207.66"/>
</a>
</g>
</g>
<!-- Node33 -->
<g id="Node000033" class="node">
<title>Node33</title>
<g id="a_Node000033"><a xlink:title=" ">
<polygon fill="#e0e0e0" stroke="#999999" points="1314.85,-203.75 1261.35,-203.75 1261.35,-183 1314.85,-183 1314.85,-203.75"/>
<text text-anchor="middle" x="1288.1" y="-190.25" font-family="Helvetica,sans-Serif" font-size="10.00">dirent.h</text>
</a>
</g>
</g>
<!-- Node8&#45;&gt;Node33 -->
<g id="edge38_Node000008_Node000033" class="edge">
<title>Node8&#45;&gt;Node33</title>
<g id="a_edge38_Node000008_Node000033"><a xlink:title=" ">
<path fill="none" stroke="#63b8ff" d="M1148.5,-239.34C1176.99,-230.16 1219.68,-216.41 1250.35,-206.53"/>
<polygon fill="#63b8ff" stroke="#63b8ff" points="1251.17,-209.95 1259.61,-203.55 1249.02,-203.28 1251.17,-209.95"/>
</a>
</g>
</g>
<!-- Node34 -->
<g id="Node000034" class="node">
<title>Node34</title>
<g id="a_Node000034"><a xlink:title=" ">
<polygon fill="#e0e0e0" stroke="#999999" points="870.6,-203.75 815.6,-203.75 815.6,-183 870.6,-183 870.6,-203.75"/>
<text text-anchor="middle" x="843.1" y="-190.25" font-family="Helvetica,sans-Serif" font-size="10.00">unistd.h</text>
</a>
</g>
</g>
<!-- Node8&#45;&gt;Node34 -->
<g id="edge39_Node000008_Node000034" class="edge">
<title>Node8&#45;&gt;Node34</title>
<g id="a_edge39_Node000008_Node000034"><a xlink:title=" ">
<path fill="none" stroke="#63b8ff" d="M1062.13,-239.43C1016.23,-231.26 949.33,-218.84 881.78,-204.02"/>
<polygon fill="#63b8ff" stroke="#63b8ff" points="882.94,-200.69 872.42,-201.95 881.43,-207.52 882.94,-200.69"/>
</a>
</g>
</g>
<!-- Node35 -->
<g id="Node000035" class="node">
<title>Node35</title>
<g id="a_Node000035"><a xlink:title=" ">
<polygon fill="#e0e0e0" stroke="#999999" points="943.23,-203.75 888.98,-203.75 888.98,-183 943.23,-183 943.23,-203.75"/>
<text text-anchor="middle" x="916.1" y="-190.25" font-family="Helvetica,sans-Serif" font-size="10.00">signal.h</text>
</a>
</g>
</g>
<!-- Node8&#45;&gt;Node35 -->
<g id="edge40_Node000008_Node000035" class="edge">
<title>Node8&#45;&gt;Node35</title>
<g id="a_edge40_Node000008_Node000035"><a xlink:title=" ">
<path fill="none" stroke="#63b8ff" d="M1081.99,-239.34C1045.99,-229.58 990.93,-214.66 954.24,-204.71"/>
<polygon fill="#63b8ff" stroke="#63b8ff" points="955.51,-201.43 944.95,-202.19 953.68,-208.19 955.51,-201.43"/>
</a>
</g>
</g>
<!-- Node36 -->
<g id="Node000036" class="node">
<title>Node36</title>
<g id="a_Node000036"><a xlink:title=" ">
<polygon fill="#e0e0e0" stroke="#999999" points="1010.98,-203.75 961.23,-203.75 961.23,-183 1010.98,-183 1010.98,-203.75"/>
<text text-anchor="middle" x="986.1" y="-190.25" font-family="Helvetica,sans-Serif" font-size="10.00">atomic</text>
</a>
</g>
</g>
<!-- Node8&#45;&gt;Node36 -->
<g id="edge41_Node000008_Node000036" class="edge">
<title>Node8&#45;&gt;Node36</title>
<g id="a_edge41_Node000008_Node000036"><a xlink:title=" ">
<path fill="none" stroke="#63b8ff" d="M1094.5,-239.34C1073.76,-230.73 1043.33,-218.11 1019.99,-208.43"/>
<polygon fill="#63b8ff" stroke="#63b8ff" points="1021.47,-205.26 1010.9,-204.66 1018.79,-211.72 1021.47,-205.26"/>
</a>
</g>
</g>
<!-- Node8&#45;&gt;Node37 -->
<g id="edge42_Node000008_Node000037" class="edge">
<title>Node8&#45;&gt;Node37</title>
<g id="a_edge42_Node000008_Node000037"><a xlink:title=" ">
<path fill="none" stroke="#63b8ff" d="M1174.17,-241.53C1230.27,-233.67 1319.29,-220.48 1405.2,-204.21"/>
<polygon fill="#63b8ff" stroke="#63b8ff" points="1405.82,-207.65 1414.99,-202.34 1404.51,-200.78 1405.82,-207.65"/>
</a>
</g>
</g>
<!-- Node10 -->
<g id="Node000010" class="node">
<title>Node10</title>
<g id="a_Node000010"><a xlink:href="json-fwd_8hh_source.html" target="_top" xlink:title=" ">
<polygon fill="white" stroke="#666666" points="1406.1,-140.62 1288.1,-140.62 1288.1,-119.88 1406.1,-119.88 1406.1,-140.62"/>
<text text-anchor="middle" x="1347.1" y="-127.12" font-family="Helvetica,sans-Serif" font-size="10.00">lix/libutil/json&#45;fwd.hh</text>
</a>
</g>
</g>
<!-- Node9&#45;&gt;Node10 -->
<g id="edge9_Node000009_Node000010" class="edge">
<title>Node9&#45;&gt;Node10</title>
<g id="a_edge9_Node000009_Node000010"><a xlink:title=" ">
<path fill="none" stroke="#63b8ff" d="M1122.81,-182.52C1163.34,-173.36 1225.31,-159.33 1279.1,-147 1283.88,-145.9 1288.85,-144.76 1293.83,-143.61"/>
<polygon fill="#63b8ff" stroke="#63b8ff" points="1294.24,-147.11 1303.19,-141.45 1292.66,-140.29 1294.24,-147.11"/>
</a>
</g>
</g>
<!-- Node12 -->
<g id="Node000012" class="node">
<title>Node12</title>
<g id="a_Node000012"><a xlink:title=" ">
<polygon fill="#e0e0e0" stroke="#999999" points="1243.35,-77.5 1174.85,-77.5 1174.85,-56.75 1243.35,-56.75 1243.35,-77.5"/>
<text text-anchor="middle" x="1209.1" y="-64" font-family="Helvetica,sans-Serif" font-size="10.00">type_traits</text>
</a>
</g>
</g>
<!-- Node9&#45;&gt;Node12 -->
<g id="edge32_Node000009_Node000012" class="edge">
<title>Node9&#45;&gt;Node12</title>
<g id="a_edge32_Node000009_Node000012"><a xlink:title=" ">
<path fill="none" stroke="#63b8ff" d="M1029.15,-183.06C1008.8,-176.55 987.24,-165.54 975.1,-147 966.95,-134.54 965.63,-124.99 975.1,-113.5 978.11,-109.85 1096.29,-88.25 1163.52,-76.22"/>
<polygon fill="#63b8ff" stroke="#63b8ff" points="1163.92,-79.7 1173.15,-74.49 1162.69,-72.81 1163.92,-79.7"/>
</a>
</g>
</g>
<!-- Node13 -->
<g id="Node000013" class="node">
<title>Node13</title>
<g id="a_Node000013"><a xlink:href="suggestions_8hh.html" target="_top" xlink:title=" ">
<polygon fill="white" stroke="#666666" points="815.73,-140.62 680.48,-140.62 680.48,-119.88 815.73,-119.88 815.73,-140.62"/>
<text text-anchor="middle" x="748.1" y="-127.12" font-family="Helvetica,sans-Serif" font-size="10.00">lix/libutil/suggestions.hh</text>
</a>
</g>
</g>
<!-- Node9&#45;&gt;Node13 -->
<g id="edge12_Node000009_Node000013" class="edge">
<title>Node9&#45;&gt;Node13</title>
<g id="a_edge12_Node000009_Node000013"><a xlink:title=" ">
<path fill="none" stroke="#63b8ff" d="M1029.39,-183.87C978.14,-175.02 895.94,-160.57 825.1,-147 819.07,-145.84 812.78,-144.61 806.51,-143.36"/>
<polygon fill="#63b8ff" stroke="#63b8ff" points="807.28,-139.94 796.79,-141.4 805.9,-146.8 807.28,-139.94"/>
</a>
</g>
</g>
<!-- Node20 -->
<g id="Node000020" class="node">
<title>Node20</title>
<g id="a_Node000020"><a xlink:href="libutil_2fmt_8hh.html" target="_top" xlink:title=" ">
<polygon fill="white" stroke="#666666" points="928.1,-140.62 834.1,-140.62 834.1,-119.88 928.1,-119.88 928.1,-140.62"/>
<text text-anchor="middle" x="881.1" y="-127.12" font-family="Helvetica,sans-Serif" font-size="10.00">lix/libutil/fmt.hh</text>
</a>
</g>
</g>
<!-- Node9&#45;&gt;Node20 -->
<g id="edge19_Node000009_Node000020" class="edge">
<title>Node9&#45;&gt;Node20</title>
<g id="a_edge19_Node000009_Node000020"><a xlink:title=" ">
<path fill="none" stroke="#63b8ff" d="M1047.29,-182.55C1013.81,-172.22 960.9,-155.89 923.8,-144.43"/>
<polygon fill="#63b8ff" stroke="#63b8ff" points="924.87,-141.1 914.28,-141.49 922.8,-147.79 924.87,-141.1"/>
</a>
</g>
</g>
<!-- Node24 -->
<g id="Node000024" class="node">
<title>Node24</title>
<g id="a_Node000024"><a xlink:title=" ">
<polygon fill="#e0e0e0" stroke="#999999" points="1033.6,-140.62 984.6,-140.62 984.6,-119.88 1033.6,-119.88 1033.6,-140.62"/>
<text text-anchor="middle" x="1009.1" y="-127.12" font-family="Helvetica,sans-Serif" font-size="10.00">cstring</text>
</a>
</g>
</g>
<!-- Node9&#45;&gt;Node24 -->
<g id="edge24_Node000009_Node000024" class="edge">
<title>Node9&#45;&gt;Node24</title>
<g id="a_edge24_Node000009_Node000024"><a xlink:title=" ">
<path fill="none" stroke="#63b8ff" d="M1067.86,-182.55C1057.28,-173.32 1041.23,-159.31 1028.58,-148.26"/>
<polygon fill="#63b8ff" stroke="#63b8ff" points="1031.07,-145.78 1021.23,-141.84 1026.46,-151.05 1031.07,-145.78"/>
</a>
</g>
</g>
<!-- Node9&#45;&gt;Node25 -->
<g id="edge25_Node000009_Node000025" class="edge">
<title>Node9&#45;&gt;Node25</title>
<g id="a_edge25_Node000009_Node000025"><a xlink:title=" ">
<path fill="none" stroke="#63b8ff" d="M1029.24,-184.25C1026.15,-183.81 1023.08,-183.39 1020.1,-183 865.49,-162.76 818.02,-199.26 671.1,-147 670.46,-146.77 669.81,-146.52 669.17,-146.25"/>
<polygon fill="#63b8ff" stroke="#63b8ff" points="670.99,-143.26 660.53,-141.52 667.62,-149.4 670.99,-143.26"/>
</a>
</g>
</g>
<!-- Node9&#45;&gt;Node26 -->
<g id="edge26_Node000009_Node000026" class="edge">
<title>Node9&#45;&gt;Node26</title>
<g id="a_edge26_Node000009_Node000026"><a xlink:title=" ">
<path fill="none" stroke="#63b8ff" d="M1129.05,-184.99C1133.8,-184.31 1138.54,-183.64 1143.1,-183 1263.88,-166.16 1297.33,-178.61 1415.1,-147 1417.22,-146.43 1419.38,-145.77 1421.54,-145.05"/>
<polygon fill="#63b8ff" stroke="#63b8ff" points="1422.58,-148.4 1430.72,-141.61 1420.13,-141.84 1422.58,-148.4"/>
</a>
</g>
</g>
<!-- Node27 -->
<g id="Node000027" class="node">
<title>Node27</title>
<g id="a_Node000027"><a xlink:title=" ">
<polygon fill="#e0e0e0" stroke="#999999" points="1106.98,-140.62 1051.23,-140.62 1051.23,-119.88 1106.98,-119.88 1106.98,-140.62"/>
<text text-anchor="middle" x="1079.1" y="-127.12" font-family="Helvetica,sans-Serif" font-size="10.00">optional</text>
</a>
</g>
</g>
<!-- Node9&#45;&gt;Node27 -->
<g id="edge27_Node000009_Node000027" class="edge">
<title>Node9&#45;&gt;Node27</title>
<g id="a_edge27_Node000009_Node000027"><a xlink:title=" ">
<path fill="none" stroke="#63b8ff" d="M1079.1,-182.55C1079.1,-174.4 1079.1,-162.51 1079.1,-152.23"/>
<polygon fill="#63b8ff" stroke="#63b8ff" points="1082.6,-152.36 1079.1,-142.36 1075.6,-152.36 1082.6,-152.36"/>
</a>
</g>
</g>
<!-- Node9&#45;&gt;Node28 -->
<g id="edge28_Node000009_Node000028" class="edge">
<title>Node9&#45;&gt;Node28</title>
<g id="a_edge28_Node000009_Node000028"><a xlink:title=" ">
<path fill="none" stroke="#63b8ff" d="M1129.16,-187.52C1231.21,-177.54 1456.57,-154.97 1491.1,-147 1494.04,-146.32 1497.05,-145.51 1500.05,-144.62"/>
<polygon fill="#63b8ff" stroke="#63b8ff" points="1500.89,-148.03 1509.3,-141.59 1498.71,-141.37 1500.89,-148.03"/>
</a>
</g>
</g>
<!-- Node9&#45;&gt;Node29 -->
<g id="edge29_Node000009_Node000029" class="edge">
<title>Node9&#45;&gt;Node29</title>
<g id="a_edge29_Node000009_Node000029"><a xlink:title=" ">
<path fill="none" stroke="#63b8ff" d="M1129.09,-188.66C1247.22,-179.76 1536.97,-157.22 1580.1,-147 1582.58,-146.41 1585.11,-145.7 1587.63,-144.91"/>
<polygon fill="#63b8ff" stroke="#63b8ff" points="1588.78,-148.22 1597.03,-141.57 1586.44,-141.62 1588.78,-148.22"/>
</a>
</g>
</g>
<!-- Node30 -->
<g id="Node000030" class="node">
<title>Node30</title>
<g id="a_Node000030"><a xlink:title=" ">
<polygon fill="#e0e0e0" stroke="#999999" points="1171.48,-140.62 1124.73,-140.62 1124.73,-119.88 1171.48,-119.88 1171.48,-140.62"/>
<text text-anchor="middle" x="1148.1" y="-127.12" font-family="Helvetica,sans-Serif" font-size="10.00">fcntl.h</text>
</a>
</g>
</g>
<!-- Node9&#45;&gt;Node30 -->
<g id="edge30_Node000009_Node000030" class="edge">
<title>Node9&#45;&gt;Node30</title>
<g id="a_edge30_Node000009_Node000030"><a xlink:title=" ">
<path fill="none" stroke="#63b8ff" d="M1090.19,-182.55C1100.61,-173.32 1116.43,-159.31 1128.91,-148.26"/>
<polygon fill="#63b8ff" stroke="#63b8ff" points="1130.97,-151.1 1136.14,-141.85 1126.33,-145.86 1130.97,-151.1"/>
</a>
</g>
</g>
<!-- Node31 -->
<g id="Node000031" class="node">
<title>Node31</title>
<g id="a_Node000031"><a xlink:title=" ">
<polygon fill="#e0e0e0" stroke="#999999" points="1270.35,-140.62 1189.85,-140.62 1189.85,-119.88 1270.35,-119.88 1270.35,-140.62"/>
<text text-anchor="middle" x="1230.1" y="-127.12" font-family="Helvetica,sans-Serif" font-size="10.00">system_error</text>
</a>
</g>
</g>
<!-- Node9&#45;&gt;Node31 -->
<g id="edge31_Node000009_Node000031" class="edge">
<title>Node9&#45;&gt;Node31</title>
<g id="a_edge31_Node000009_Node000031"><a xlink:title=" ">
<path fill="none" stroke="#63b8ff" d="M1103.36,-182.55C1128.24,-172.48 1167.17,-156.73 1195.32,-145.33"/>
<polygon fill="#63b8ff" stroke="#63b8ff" points="1196.54,-148.61 1204.5,-141.61 1193.92,-142.12 1196.54,-148.61"/>
</a>
</g>
</g>
<!-- Node11 -->
<g id="Node000011" class="node">
<title>Node11</title>
<g id="a_Node000011"><a xlink:title=" ">
<polygon fill="#e0e0e0" stroke="#999999" points="1412.85,-77.5 1281.35,-77.5 1281.35,-56.75 1412.85,-56.75 1412.85,-77.5"/>
<text text-anchor="middle" x="1347.1" y="-64" font-family="Helvetica,sans-Serif" font-size="10.00">nlohmann/json_fwd.hpp</text>
</a>
</g>
</g>
<!-- Node10&#45;&gt;Node11 -->
<g id="edge10_Node000010_Node000011" class="edge">
<title>Node10&#45;&gt;Node11</title>
<g id="a_edge10_Node000010_Node000011"><a xlink:title=" ">
<path fill="none" stroke="#63b8ff" d="M1347.1,-119.43C1347.1,-111.27 1347.1,-99.38 1347.1,-89.1"/>
<polygon fill="#63b8ff" stroke="#63b8ff" points="1350.6,-89.23 1347.1,-79.23 1343.6,-89.23 1350.6,-89.23"/>
</a>
</g>
</g>
<!-- Node10&#45;&gt;Node12 -->
<g id="edge11_Node000010_Node000012" class="edge">
<title>Node10&#45;&gt;Node12</title>
<g id="a_edge11_Node000010_Node000012"><a xlink:title=" ">
<path fill="none" stroke="#63b8ff" d="M1324.93,-119.43C1302.4,-109.45 1267.25,-93.88 1241.58,-82.51"/>
<polygon fill="#63b8ff" stroke="#63b8ff" points="1243.16,-79.38 1232.6,-78.53 1240.33,-85.78 1243.16,-79.38"/>
</a>
</g>
</g>
<!-- Node14 -->
<g id="Node000014" class="node">
<title>Node14</title>
<g id="a_Node000014"><a xlink:href="comparator_8hh.html" target="_top" xlink:title=" ">
<polygon fill="white" stroke="#666666" points="673.23,-77.5 540.98,-77.5 540.98,-56.75 673.23,-56.75 673.23,-77.5"/>
<text text-anchor="middle" x="607.1" y="-64" font-family="Helvetica,sans-Serif" font-size="10.00">lix/libutil/comparator.hh</text>
</a>
</g>
</g>
<!-- Node13&#45;&gt;Node14 -->
<g id="edge13_Node000013_Node000014" class="edge">
<title>Node13&#45;&gt;Node14</title>
<g id="a_edge13_Node000013_Node000014"><a xlink:title=" ">
<path fill="none" stroke="#63b8ff" d="M725.45,-119.43C702.32,-109.4 666.19,-93.74 639.93,-82.36"/>
<polygon fill="#63b8ff" stroke="#63b8ff" points="641.66,-79.29 631.09,-78.52 638.87,-85.71 641.66,-79.29"/>
</a>
</g>
</g>
<!-- Node16 -->
<g id="Node000016" class="node">
<title>Node16</title>
<g id="a_Node000016"><a xlink:title=" ">
<polygon fill="#e0e0e0" stroke="#999999" points="722.6,-77.5 691.6,-77.5 691.6,-56.75 722.6,-56.75 722.6,-77.5"/>
<text text-anchor="middle" x="707.1" y="-64" font-family="Helvetica,sans-Serif" font-size="10.00">set</text>
</a>
</g>
</g>
<!-- Node13&#45;&gt;Node16 -->
<g id="edge15_Node000013_Node000016" class="edge">
<title>Node13&#45;&gt;Node16</title>
<g id="a_edge15_Node000013_Node000016"><a xlink:title=" ">
<path fill="none" stroke="#63b8ff" d="M741.52,-119.43C735.68,-110.73 727.01,-97.8 719.82,-87.09"/>
<polygon fill="#63b8ff" stroke="#63b8ff" points="722.86,-85.33 714.38,-78.98 717.05,-89.23 722.86,-85.33"/>
</a>
</g>
</g>
<!-- Node17 -->
<g id="Node000017" class="node">
<title>Node17</title>
<g id="a_Node000017"><a xlink:title=" ">
<polygon fill="#e0e0e0" stroke="#999999" points="813.23,-77.5 740.98,-77.5 740.98,-56.75 813.23,-56.75 813.23,-77.5"/>
<text text-anchor="middle" x="777.1" y="-64" font-family="Helvetica,sans-Serif" font-size="10.00">string_view</text>
</a>
</g>
</g>
<!-- Node13&#45;&gt;Node17 -->
<g id="edge16_Node000013_Node000017" class="edge">
<title>Node13&#45;&gt;Node17</title>
<g id="a_edge16_Node000013_Node000017"><a xlink:title=" ">
<path fill="none" stroke="#63b8ff" d="M752.76,-119.43C756.76,-111 762.65,-98.59 767.63,-88.09"/>
<polygon fill="#63b8ff" stroke="#63b8ff" points="770.78,-89.62 771.9,-79.09 764.45,-86.62 770.78,-89.62"/>
</a>
</g>
</g>
<!-- Node13&#45;&gt;Node18 -->
<g id="edge17_Node000013_Node000018" class="edge">
<title>Node13&#45;&gt;Node18</title>
<g id="a_edge17_Node000013_Node000018"><a xlink:title=" ">
<path fill="none" stroke="#63b8ff" d="M703.65,-119.4C662.24,-110.05 598.54,-95.21 534.52,-78.04"/>
<polygon fill="#63b8ff" stroke="#63b8ff" points="535.44,-74.67 524.87,-75.44 533.61,-81.42 535.44,-74.67"/>
</a>
</g>
</g>
<!-- Node19 -->
<g id="Node000019" class="node">
<title>Node19</title>
<g id="a_Node000019"><a xlink:title=" ">
<polygon fill="#e0e0e0" stroke="#999999" points="461.35,-77.5 410.85,-77.5 410.85,-56.75 461.35,-56.75 461.35,-77.5"/>
<text text-anchor="middle" x="436.1" y="-64" font-family="Helvetica,sans-Serif" font-size="10.00">variant</text>
</a>
</g>
</g>
<!-- Node13&#45;&gt;Node19 -->
<g id="edge18_Node000013_Node000019" class="edge">
<title>Node13&#45;&gt;Node19</title>
<g id="a_edge18_Node000013_Node000019"><a xlink:title=" ">
<path fill="none" stroke="#63b8ff" d="M700.9,-119.4C691.06,-117.41 680.75,-115.35 671.1,-113.5 585.45,-97.07 560.53,-97.52 472.69,-77.93"/>
<polygon fill="#63b8ff" stroke="#63b8ff" points="473.66,-74.56 463.14,-75.78 472.12,-81.39 473.66,-74.56"/>
</a>
</g>
</g>
<!-- Node15 -->
<g id="Node000015" class="node">
<title>Node15</title>
<g id="a_Node000015"><a xlink:title=" ">
<polygon fill="#e0e0e0" stroke="#999999" points="627.48,-20.75 586.73,-20.75 586.73,0 627.48,0 627.48,-20.75"/>
<text text-anchor="middle" x="607.1" y="-7.25" font-family="Helvetica,sans-Serif" font-size="10.00">tuple</text>
</a>
</g>
</g>
<!-- Node14&#45;&gt;Node15 -->
<g id="edge14_Node000014_Node000015" class="edge">
<title>Node14&#45;&gt;Node15</title>
<g id="a_edge14_Node000014_Node000015"><a xlink:title=" ">
<path fill="none" stroke="#63b8ff" d="M607.1,-56.34C607.1,-49.72 607.1,-40.72 607.1,-32.52"/>
<polygon fill="#63b8ff" stroke="#63b8ff" points="610.6,-32.59 607.1,-22.59 603.6,-32.59 610.6,-32.59"/>
</a>
</g>
</g>
<!-- Node20&#45;&gt;Node18 -->
<g id="edge21_Node000020_Node000018" class="edge">
<title>Node20&#45;&gt;Node18</title>
<g id="a_edge21_Node000020_Node000018"><a xlink:title=" ">
<path fill="none" stroke="#63b8ff" d="M849.32,-119.41C841.46,-117.23 833.02,-115.09 825.1,-113.5 699.99,-88.37 662.51,-103.7 534.36,-77.64"/>
<polygon fill="#63b8ff" stroke="#63b8ff" points="535.32,-74.27 524.82,-75.66 533.89,-81.12 535.32,-74.27"/>
</a>
</g>
</g>
<!-- Node21 -->
<g id="Node000021" class="node">
<title>Node21</title>
<g id="a_Node000021"><a xlink:title=" ">
<polygon fill="#e0e0e0" stroke="#999999" points="1028.85,-77.5 969.35,-77.5 969.35,-56.75 1028.85,-56.75 1028.85,-77.5"/>
<text text-anchor="middle" x="999.1" y="-64" font-family="Helvetica,sans-Serif" font-size="10.00">iostream</text>
</a>
</g>
</g>
<!-- Node20&#45;&gt;Node21 -->
<g id="edge20_Node000020_Node000021" class="edge">
<title>Node20&#45;&gt;Node21</title>
<g id="a_edge20_Node000020_Node000021"><a xlink:title=" ">
<path fill="none" stroke="#63b8ff" d="M900.06,-119.43C918.98,-109.63 948.31,-94.43 970.15,-83.12"/>
<polygon fill="#63b8ff" stroke="#63b8ff" points="971.58,-86.33 978.85,-78.62 968.36,-80.11 971.58,-86.33"/>
</a>
</g>
</g>
<!-- Node22 -->
<g id="Node000022" class="node">
<title>Node22</title>
<g id="a_Node000022"><a xlink:title=" ">
<polygon fill="#e0e0e0" stroke="#999999" points="1147.1,-77.5 1047.1,-77.5 1047.1,-56.75 1147.1,-56.75 1147.1,-77.5"/>
<text text-anchor="middle" x="1097.1" y="-64" font-family="Helvetica,sans-Serif" font-size="10.00">boost/format.hpp</text>
</a>
</g>
</g>
<!-- Node20&#45;&gt;Node22 -->
<g id="edge22_Node000020_Node000022" class="edge">
<title>Node20&#45;&gt;Node22</title>
<g id="a_edge22_Node000020_Node000022"><a xlink:title=" ">
<path fill="none" stroke="#63b8ff" d="M915.81,-119.43C952.65,-109 1011.04,-92.48 1051.56,-81.01"/>
<polygon fill="#63b8ff" stroke="#63b8ff" points="1052.36,-84.42 1061.03,-78.33 1050.45,-77.69 1052.36,-84.42"/>
</a>
</g>
</g>
<!-- Node23 -->
<g id="Node000023" class="node">
<title>Node23</title>
<g id="a_Node000023"><a xlink:href="ansicolor_8hh.html" target="_top" xlink:title="Some ANSI escape sequences.">
<polygon fill="white" stroke="#666666" points="951.23,-77.5 830.98,-77.5 830.98,-56.75 951.23,-56.75 951.23,-77.5"/>
<text text-anchor="middle" x="891.1" y="-64" font-family="Helvetica,sans-Serif" font-size="10.00">lix/libutil/ansicolor.hh</text>
</a>
</g>
</g>
<!-- Node20&#45;&gt;Node23 -->
<g id="edge23_Node000020_Node000023" class="edge">
<title>Node20&#45;&gt;Node23</title>
<g id="a_edge23_Node000020_Node000023"><a xlink:title=" ">
<path fill="none" stroke="#63b8ff" d="M882.71,-119.43C884.06,-111.18 886.03,-99.12 887.73,-88.76"/>
<polygon fill="#63b8ff" stroke="#63b8ff" points="891.13,-89.65 889.29,-79.21 884.22,-88.52 891.13,-89.65"/>
</a>
</g>
</g>
</g>
</svg>
