<?xml version="1.0" encoding="UTF-8" standalone="no"?>
<!DOCTYPE svg PUBLIC "-//W3C//DTD SVG 1.1//EN"
 "http://www.w3.org/Graphics/SVG/1.1/DTD/svg11.dtd">
<!-- Generated by graphviz version 12.2.1 (0)
 -->
<!-- Title: lix/libstore/realisation.hh Pages: 1 -->
<svg width="2226pt" height="459pt"
 viewBox="0.00 0.00 2225.75 458.50" xmlns="http://www.w3.org/2000/svg" xmlns:xlink="http://www.w3.org/1999/xlink">
<g id="graph0" class="graph" transform="scale(1 1) rotate(0) translate(4 454.5)">
<title>lix/libstore/realisation.hh</title>
<!-- Node1 -->
<g id="Node000001" class="node">
<title>Node1</title>
<g id="a_Node000001"><a xlink:title=" ">
<polygon fill="#999999" stroke="#666666" points="536.75,-450.5 399.25,-450.5 399.25,-429.75 536.75,-429.75 536.75,-450.5"/>
<text text-anchor="middle" x="468" y="-437" font-family="Helvetica,sans-Serif" font-size="10.00">lix/libstore/realisation.hh</text>
</a>
</g>
</g>
<!-- Node2 -->
<g id="Node000002" class="node">
<title>Node2</title>
<g id="a_Node000002"><a xlink:href="built-path_8hh.html" target="_top" xlink:title=" ">
<polygon fill="white" stroke="#666666" points="322.62,-387.38 193.38,-387.38 193.38,-366.62 322.62,-366.62 322.62,-387.38"/>
<text text-anchor="middle" x="258" y="-373.88" font-family="Helvetica,sans-Serif" font-size="10.00">lix/libcmd/built&#45;path.hh</text>
</a>
</g>
</g>
<!-- Node1&#45;&gt;Node2 -->
<g id="edge1_Node000001_Node000002" class="edge">
<title>Node1&#45;&gt;Node2</title>
<g id="a_edge1_Node000001_Node000002"><a xlink:title=" ">
<path fill="none" stroke="#63b8ff" d="M423.38,-426.14C383.97,-414.67 327.37,-398.19 291.66,-387.8"/>
<polygon fill="#63b8ff" stroke="#63b8ff" points="422.23,-429.45 432.81,-428.88 424.18,-422.73 422.23,-429.45"/>
</a>
</g>
</g>
<!-- Node11 -->
<g id="Node000011" class="node">
<title>Node11</title>
<g id="a_Node000011"><a xlink:href="build-result_8hh.html" target="_top" xlink:title=" ">
<polygon fill="white" stroke="#666666" points="553.38,-393.75 458.62,-393.75 458.62,-360.25 553.38,-360.25 553.38,-393.75"/>
<text text-anchor="start" x="466.62" y="-380.25" font-family="Helvetica,sans-Serif" font-size="10.00">lix/libstore/build</text>
<text text-anchor="middle" x="506" y="-367.5" font-family="Helvetica,sans-Serif" font-size="10.00">&#45;result.hh</text>
</a>
</g>
</g>
<!-- Node1&#45;&gt;Node11 -->
<g id="edge11_Node000001_Node000011" class="edge">
<title>Node1&#45;&gt;Node11</title>
<g id="a_edge11_Node000001_Node000011"><a xlink:title=" ">
<path fill="none" stroke="#63b8ff" d="M480.03,-419.78C485.14,-411.56 491.03,-402.08 495.91,-394.23"/>
<polygon fill="#63b8ff" stroke="#63b8ff" points="477.21,-417.68 474.9,-428.02 483.16,-421.37 477.21,-417.68"/>
</a>
</g>
</g>
<!-- Node15 -->
<g id="Node000015" class="node">
<title>Node15</title>
<g id="a_Node000015"><a xlink:href="drv-output-substitution-goal_8hh.html" target="_top" xlink:title=" ">
<polygon fill="white" stroke="#666666" points="446.75,-254.75 315.25,-254.75 315.25,-208.5 446.75,-208.5 446.75,-254.75"/>
<text text-anchor="start" x="323.25" y="-241.25" font-family="Helvetica,sans-Serif" font-size="10.00">lix/libstore/build</text>
<text text-anchor="start" x="323.25" y="-228.5" font-family="Helvetica,sans-Serif" font-size="10.00">/drv&#45;output&#45;substitution</text>
<text text-anchor="middle" x="381" y="-215.75" font-family="Helvetica,sans-Serif" font-size="10.00">&#45;goal.hh</text>
</a>
</g>
</g>
<!-- Node1&#45;&gt;Node15 -->
<g id="edge19_Node000001_Node000015" class="edge">
<title>Node1&#45;&gt;Node15</title>
<g id="a_edge19_Node000001_Node000015"><a xlink:title=" ">
<path fill="none" stroke="#63b8ff" d="M456.99,-419.5C452.73,-411.6 447.94,-402.34 444,-393.75 421.79,-345.28 400.09,-286.57 388.87,-255.11"/>
<polygon fill="#63b8ff" stroke="#63b8ff" points="453.91,-421.15 461.8,-428.22 460.04,-417.77 453.91,-421.15"/>
</a>
</g>
</g>
<!-- Node17 -->
<g id="Node000017" class="node">
<title>Node17</title>
<g id="a_Node000017"><a xlink:href="worker_8hh.html" target="_top" xlink:title=" ">
<polygon fill="white" stroke="#666666" points="559.38,-248.38 464.62,-248.38 464.62,-214.88 559.38,-214.88 559.38,-248.38"/>
<text text-anchor="start" x="472.62" y="-234.88" font-family="Helvetica,sans-Serif" font-size="10.00">lix/libstore/build</text>
<text text-anchor="middle" x="512" y="-222.12" font-family="Helvetica,sans-Serif" font-size="10.00">/worker.hh</text>
</a>
</g>
</g>
<!-- Node1&#45;&gt;Node17 -->
<g id="edge20_Node000001_Node000017" class="edge">
<title>Node1&#45;&gt;Node17</title>
<g id="a_edge20_Node000001_Node000017"><a xlink:title=" ">
<path fill="none" stroke="#63b8ff" d="M458.08,-418.9C454.83,-411.22 451.63,-402.26 450,-393.75 447.21,-379.13 447.35,-374.9 450,-360.25 457.85,-316.86 485.03,-271.75 500.68,-248.54"/>
<polygon fill="#63b8ff" stroke="#63b8ff" points="454.9,-420.35 462.24,-427.98 461.26,-417.43 454.9,-420.35"/>
</a>
</g>
</g>
<!-- Node18 -->
<g id="Node000018" class="node">
<title>Node18</title>
<g id="a_Node000018"><a xlink:href="nar-info-disk-cache_8hh.html" target="_top" xlink:title=" ">
<polygon fill="white" stroke="#666666" points="1201.5,-393.75 1092.5,-393.75 1092.5,-360.25 1201.5,-360.25 1201.5,-393.75"/>
<text text-anchor="start" x="1100.5" y="-380.25" font-family="Helvetica,sans-Serif" font-size="10.00">lix/libstore/nar&#45;info</text>
<text text-anchor="middle" x="1147" y="-367.5" font-family="Helvetica,sans-Serif" font-size="10.00">&#45;disk&#45;cache.hh</text>
</a>
</g>
</g>
<!-- Node1&#45;&gt;Node18 -->
<g id="edge21_Node000001_Node000018" class="edge">
<title>Node1&#45;&gt;Node18</title>
<g id="a_edge21_Node000001_Node000018"><a xlink:title=" ">
<path fill="none" stroke="#63b8ff" d="M548.24,-437.6C666.29,-434.36 893.41,-424.36 1084,-393.75 1086.67,-393.32 1089.4,-392.83 1092.14,-392.3"/>
<polygon fill="#63b8ff" stroke="#63b8ff" points="548.23,-434.09 538.32,-437.86 548.41,-441.09 548.23,-434.09"/>
</a>
</g>
</g>
<!-- Node19 -->
<g id="Node000019" class="node">
<title>Node19</title>
<g id="a_Node000019"><a xlink:href="store-api_8hh.html" target="_top" xlink:title=" ">
<polygon fill="white" stroke="#666666" points="1074.75,-393.75 979.25,-393.75 979.25,-360.25 1074.75,-360.25 1074.75,-393.75"/>
<text text-anchor="start" x="987.25" y="-380.25" font-family="Helvetica,sans-Serif" font-size="10.00">lix/libstore/store</text>
<text text-anchor="middle" x="1027" y="-367.5" font-family="Helvetica,sans-Serif" font-size="10.00">&#45;api.hh</text>
</a>
</g>
</g>
<!-- Node1&#45;&gt;Node19 -->
<g id="edge22_Node000001_Node000019" class="edge">
<title>Node1&#45;&gt;Node19</title>
<g id="a_edge22_Node000001_Node000019"><a xlink:title=" ">
<path fill="none" stroke="#63b8ff" d="M548.2,-430.35C666.15,-417.46 882.78,-393.77 978.89,-383.26"/>
<polygon fill="#63b8ff" stroke="#63b8ff" points="548.17,-426.84 538.61,-431.4 548.93,-433.8 548.17,-426.84"/>
</a>
</g>
</g>
<!-- Node3 -->
<g id="Node000003" class="node">
<title>Node3</title>
<g id="a_Node000003"><a xlink:href="cmd-profiles_8hh.html" target="_top" xlink:title=" ">
<polygon fill="white" stroke="#666666" points="170.38,-317.88 27.62,-317.88 27.62,-297.12 170.38,-297.12 170.38,-317.88"/>
<text text-anchor="middle" x="99" y="-304.38" font-family="Helvetica,sans-Serif" font-size="10.00">lix/libcmd/cmd&#45;profiles.hh</text>
</a>
</g>
</g>
<!-- Node2&#45;&gt;Node3 -->
<g id="edge2_Node000002_Node000003" class="edge">
<title>Node2&#45;&gt;Node3</title>
<g id="a_edge2_Node000002_Node000003"><a xlink:title=" ">
<path fill="none" stroke="#63b8ff" d="M224.65,-361.84C193.92,-348.8 149.13,-329.78 122.15,-318.33"/>
<polygon fill="#63b8ff" stroke="#63b8ff" points="222.91,-364.91 233.49,-365.59 225.65,-358.46 222.91,-364.91"/>
</a>
</g>
</g>
<!-- Node4 -->
<g id="Node000004" class="node">
<title>Node4</title>
<g id="a_Node000004"><a xlink:href="installables_8hh.html" target="_top" xlink:title=" ">
<polygon fill="white" stroke="#666666" points="327.12,-317.88 188.88,-317.88 188.88,-297.12 327.12,-297.12 327.12,-317.88"/>
<text text-anchor="middle" x="258" y="-304.38" font-family="Helvetica,sans-Serif" font-size="10.00">lix/libcmd/installables.hh</text>
</a>
</g>
</g>
<!-- Node2&#45;&gt;Node4 -->
<g id="edge3_Node000002_Node000004" class="edge">
<title>Node2&#45;&gt;Node4</title>
<g id="a_edge3_Node000002_Node000004"><a xlink:title=" ">
<path fill="none" stroke="#63b8ff" d="M258,-355.19C258,-342.84 258,-327.77 258,-318.15"/>
<polygon fill="#63b8ff" stroke="#63b8ff" points="254.5,-354.82 258,-364.82 261.5,-354.82 254.5,-354.82"/>
</a>
</g>
</g>
<!-- Node5 -->
<g id="Node000005" class="node">
<title>Node5</title>
<g id="a_Node000005"><a xlink:href="installable-derived-path_8hh.html" target="_top" xlink:title=" ">
<polygon fill="white" stroke="#666666" points="297,-248.38 179,-248.38 179,-214.88 297,-214.88 297,-248.38"/>
<text text-anchor="start" x="187" y="-234.88" font-family="Helvetica,sans-Serif" font-size="10.00">lix/libcmd/installable</text>
<text text-anchor="middle" x="238" y="-222.12" font-family="Helvetica,sans-Serif" font-size="10.00">&#45;derived&#45;path.hh</text>
</a>
</g>
</g>
<!-- Node4&#45;&gt;Node5 -->
<g id="edge4_Node000004_Node000005" class="edge">
<title>Node4&#45;&gt;Node5</title>
<g id="a_edge4_Node000004_Node000005"><a xlink:title=" ">
<path fill="none" stroke="#63b8ff" d="M252.42,-285.88C249.24,-274.15 245.32,-259.68 242.37,-248.78"/>
<polygon fill="#63b8ff" stroke="#63b8ff" points="249,-286.64 254.99,-295.38 255.75,-284.81 249,-286.64"/>
</a>
</g>
</g>
<!-- Node6 -->
<g id="Node000006" class="node">
<title>Node6</title>
<g id="a_Node000006"><a xlink:href="installable-value_8hh.html" target="_top" xlink:title=" ">
<polygon fill="white" stroke="#666666" points="161,-248.38 43,-248.38 43,-214.88 161,-214.88 161,-248.38"/>
<text text-anchor="start" x="51" y="-234.88" font-family="Helvetica,sans-Serif" font-size="10.00">lix/libcmd/installable</text>
<text text-anchor="middle" x="102" y="-222.12" font-family="Helvetica,sans-Serif" font-size="10.00">&#45;value.hh</text>
</a>
</g>
</g>
<!-- Node4&#45;&gt;Node6 -->
<g id="edge5_Node000004_Node000006" class="edge">
<title>Node4&#45;&gt;Node6</title>
<g id="a_edge5_Node000004_Node000006"><a xlink:title=" ">
<path fill="none" stroke="#63b8ff" d="M227.16,-291.9C200.96,-279.49 163.39,-261.7 136.26,-248.85"/>
<polygon fill="#63b8ff" stroke="#63b8ff" points="225.38,-294.93 235.92,-296.04 228.38,-288.6 225.38,-294.93"/>
</a>
</g>
</g>
<!-- Node7 -->
<g id="Node000007" class="node">
<title>Node7</title>
<g id="a_Node000007"><a xlink:href="command_8hh.html" target="_top" xlink:title=" ">
<polygon fill="white" stroke="#666666" points="304.38,-166.12 173.62,-166.12 173.62,-145.38 304.38,-145.38 304.38,-166.12"/>
<text text-anchor="middle" x="239" y="-152.62" font-family="Helvetica,sans-Serif" font-size="10.00">lix/libcmd/command.hh</text>
</a>
</g>
</g>
<!-- Node6&#45;&gt;Node7 -->
<g id="edge6_Node000006_Node000007" class="edge">
<title>Node6&#45;&gt;Node7</title>
<g id="a_edge6_Node000006_Node000007"><a xlink:title=" ">
<path fill="none" stroke="#63b8ff" d="M142.03,-209.04C168.07,-195 200.77,-177.36 220.77,-166.58"/>
<polygon fill="#63b8ff" stroke="#63b8ff" points="140.54,-205.87 133.4,-213.69 143.86,-212.03 140.54,-205.87"/>
</a>
</g>
</g>
<!-- Node8 -->
<g id="Node000008" class="node">
<title>Node8</title>
<g id="a_Node000008"><a xlink:href="installable-attr-path_8hh.html" target="_top" xlink:title=" ">
<polygon fill="white" stroke="#666666" points="252,-103 134,-103 134,-69.5 252,-69.5 252,-103"/>
<text text-anchor="start" x="142" y="-89.5" font-family="Helvetica,sans-Serif" font-size="10.00">lix/libcmd/installable</text>
<text text-anchor="middle" x="193" y="-76.75" font-family="Helvetica,sans-Serif" font-size="10.00">&#45;attr&#45;path.hh</text>
</a>
</g>
</g>
<!-- Node6&#45;&gt;Node8 -->
<g id="edge9_Node000006_Node000008" class="edge">
<title>Node6&#45;&gt;Node8</title>
<g id="a_edge9_Node000006_Node000008"><a xlink:title=" ">
<path fill="none" stroke="#63b8ff" d="M118.38,-204.82C137.15,-175.25 167.31,-127.73 182.91,-103.14"/>
<polygon fill="#63b8ff" stroke="#63b8ff" points="115.48,-202.86 113.07,-213.18 121.39,-206.61 115.48,-202.86"/>
</a>
</g>
</g>
<!-- Node10 -->
<g id="Node000010" class="node">
<title>Node10</title>
<g id="a_Node000010"><a xlink:href="installable-flake_8hh.html" target="_top" xlink:title=" ">
<polygon fill="white" stroke="#666666" points="118,-172.5 0,-172.5 0,-139 118,-139 118,-172.5"/>
<text text-anchor="start" x="8" y="-159" font-family="Helvetica,sans-Serif" font-size="10.00">lix/libcmd/installable</text>
<text text-anchor="middle" x="59" y="-146.25" font-family="Helvetica,sans-Serif" font-size="10.00">&#45;flake.hh</text>
</a>
</g>
</g>
<!-- Node6&#45;&gt;Node10 -->
<g id="edge10_Node000006_Node000010" class="edge">
<title>Node6&#45;&gt;Node10</title>
<g id="a_edge10_Node000006_Node000010"><a xlink:title=" ">
<path fill="none" stroke="#63b8ff" d="M87.03,-204.9C80.8,-194.21 73.77,-182.13 68.31,-172.75"/>
<polygon fill="#63b8ff" stroke="#63b8ff" points="83.85,-206.41 91.91,-213.29 89.9,-202.88 83.85,-206.41"/>
</a>
</g>
</g>
<!-- Node7&#45;&gt;Node8 -->
<g id="edge7_Node000007_Node000008" class="edge">
<title>Node7&#45;&gt;Node8</title>
<g id="a_edge7_Node000007_Node000008"><a xlink:title=" ">
<path fill="none" stroke="#63b8ff" d="M226.09,-135.81C219.14,-125.61 210.66,-113.16 204.02,-103.42"/>
<polygon fill="#63b8ff" stroke="#63b8ff" points="223.03,-137.54 231.56,-143.83 228.82,-133.59 223.03,-137.54"/>
</a>
</g>
</g>
<!-- Node9 -->
<g id="Node000009" class="node">
<title>Node9</title>
<g id="a_Node000009"><a xlink:href="nix_2daemon_8cc.html" target="_top" xlink:title=" ">
<polygon fill="white" stroke="#666666" points="2032.12,-27.12 1929.88,-27.12 1929.88,-6.38 2032.12,-6.38 2032.12,-27.12"/>
<text text-anchor="middle" x="1981" y="-13.62" font-family="Helvetica,sans-Serif" font-size="10.00">lix/nix/daemon.cc</text>
</a>
</g>
</g>
<!-- Node7&#45;&gt;Node9 -->
<g id="edge8_Node000007_Node000009" class="edge">
<title>Node7&#45;&gt;Node9</title>
<g id="a_edge8_Node000007_Node000009"><a xlink:title=" ">
<path fill="none" stroke="#63b8ff" d="M316.12,-148.16C488.03,-133.51 915.76,-97.36 1274,-69.5 1519.4,-50.41 1812.88,-29.56 1929.54,-21.36"/>
<polygon fill="#63b8ff" stroke="#63b8ff" points="315.85,-144.67 306.18,-149 316.44,-151.64 315.85,-144.67"/>
</a>
</g>
</g>
<!-- Node11&#45;&gt;Node4 -->
<g id="edge12_Node000011_Node000004" class="edge">
<title>Node11&#45;&gt;Node4</title>
<g id="a_edge12_Node000011_Node000004"><a xlink:title=" ">
<path fill="none" stroke="#63b8ff" d="M447.11,-359.97C399.53,-347.02 334.11,-329.22 294.01,-318.3"/>
<polygon fill="#63b8ff" stroke="#63b8ff" points="446.15,-363.34 456.72,-362.59 447.99,-356.58 446.15,-363.34"/>
</a>
</g>
</g>
<!-- Node12 -->
<g id="Node000012" class="node">
<title>Node12</title>
<g id="a_Node000012"><a xlink:href="goal_8hh.html" target="_top" xlink:title=" ">
<polygon fill="white" stroke="#666666" points="591.38,-324.25 496.62,-324.25 496.62,-290.75 591.38,-290.75 591.38,-324.25"/>
<text text-anchor="start" x="504.62" y="-310.75" font-family="Helvetica,sans-Serif" font-size="10.00">lix/libstore/build</text>
<text text-anchor="middle" x="544" y="-298" font-family="Helvetica,sans-Serif" font-size="10.00">/goal.hh</text>
</a>
</g>
</g>
<!-- Node11&#45;&gt;Node12 -->
<g id="edge13_Node000011_Node000012" class="edge">
<title>Node11&#45;&gt;Node12</title>
<g id="a_edge13_Node000011_Node000012"><a xlink:title=" ">
<path fill="none" stroke="#63b8ff" d="M520.64,-349.99C525.5,-341.36 530.76,-332.01 535.06,-324.38"/>
<polygon fill="#63b8ff" stroke="#63b8ff" points="517.6,-348.25 515.75,-358.68 523.7,-351.69 517.6,-348.25"/>
</a>
</g>
</g>
<!-- Node13 -->
<g id="Node000013" class="node">
<title>Node13</title>
<g id="a_Node000013"><a xlink:href="derivation-goal_8hh.html" target="_top" xlink:title=" ">
<polygon fill="white" stroke="#666666" points="686.12,-248.38 577.88,-248.38 577.88,-214.88 686.12,-214.88 686.12,-248.38"/>
<text text-anchor="start" x="585.88" y="-234.88" font-family="Helvetica,sans-Serif" font-size="10.00">lix/libstore/build</text>
<text text-anchor="middle" x="632" y="-222.12" font-family="Helvetica,sans-Serif" font-size="10.00">/derivation&#45;goal.hh</text>
</a>
</g>
</g>
<!-- Node12&#45;&gt;Node13 -->
<g id="edge14_Node000012_Node000013" class="edge">
<title>Node12&#45;&gt;Node13</title>
<g id="a_edge14_Node000012_Node000013"><a xlink:title=" ">
<path fill="none" stroke="#63b8ff" d="M571.91,-283.07C585.28,-271.84 600.96,-258.69 612.94,-248.62"/>
<polygon fill="#63b8ff" stroke="#63b8ff" points="569.66,-280.39 564.25,-289.5 574.16,-285.75 569.66,-280.39"/>
</a>
</g>
</g>
<!-- Node12&#45;&gt;Node15 -->
<g id="edge16_Node000012_Node000015" class="edge">
<title>Node12&#45;&gt;Node15</title>
<g id="a_edge16_Node000012_Node000015"><a xlink:title=" ">
<path fill="none" stroke="#63b8ff" d="M497.99,-285.65C477.07,-276.17 452.28,-264.93 430.91,-255.24"/>
<polygon fill="#63b8ff" stroke="#63b8ff" points="496.3,-288.72 506.85,-289.66 499.19,-282.35 496.3,-288.72"/>
</a>
</g>
</g>
<!-- Node16 -->
<g id="Node000016" class="node">
<title>Node16</title>
<g id="a_Node000016"><a xlink:href="substitution-goal_8hh.html" target="_top" xlink:title=" ">
<polygon fill="white" stroke="#666666" points="820.25,-248.38 703.75,-248.38 703.75,-214.88 820.25,-214.88 820.25,-248.38"/>
<text text-anchor="start" x="711.75" y="-234.88" font-family="Helvetica,sans-Serif" font-size="10.00">lix/libstore/build</text>
<text text-anchor="middle" x="762" y="-222.12" font-family="Helvetica,sans-Serif" font-size="10.00">/substitution&#45;goal.hh</text>
</a>
</g>
</g>
<!-- Node12&#45;&gt;Node16 -->
<g id="edge17_Node000012_Node000016" class="edge">
<title>Node12&#45;&gt;Node16</title>
<g id="a_edge17_Node000012_Node000016"><a xlink:title=" ">
<path fill="none" stroke="#63b8ff" d="M602.4,-286.71C637.4,-274.85 681.36,-259.95 714.27,-248.8"/>
<polygon fill="#63b8ff" stroke="#63b8ff" points="601.62,-283.28 593.27,-289.8 603.87,-289.91 601.62,-283.28"/>
</a>
</g>
</g>
<!-- Node12&#45;&gt;Node17 -->
<g id="edge18_Node000012_Node000017" class="edge">
<title>Node12&#45;&gt;Node17</title>
<g id="a_edge18_Node000012_Node000017"><a xlink:title=" ">
<path fill="none" stroke="#63b8ff" d="M532.57,-280.11C528.01,-269.59 522.91,-257.81 518.93,-248.62"/>
<polygon fill="#63b8ff" stroke="#63b8ff" points="529.27,-281.3 536.45,-289.08 535.69,-278.51 529.27,-281.3"/>
</a>
</g>
</g>
<!-- Node14 -->
<g id="Node000014" class="node">
<title>Node14</title>
<g id="a_Node000014"><a xlink:href="local-derivation-goal_8hh.html" target="_top" xlink:title=" ">
<polygon fill="white" stroke="#666666" points="1145.62,-33.5 1010.38,-33.5 1010.38,0 1145.62,0 1145.62,-33.5"/>
<text text-anchor="start" x="1018.38" y="-20" font-family="Helvetica,sans-Serif" font-size="10.00">lix/libstore/build</text>
<text text-anchor="middle" x="1078" y="-7.25" font-family="Helvetica,sans-Serif" font-size="10.00">/local&#45;derivation&#45;goal.hh</text>
</a>
</g>
</g>
<!-- Node13&#45;&gt;Node14 -->
<g id="edge15_Node000013_Node000014" class="edge">
<title>Node13&#45;&gt;Node14</title>
<g id="a_edge15_Node000013_Node000014"><a xlink:title=" ">
<path fill="none" stroke="#63b8ff" d="M676.19,-209.54C765.23,-167.04 964.52,-71.92 1044.16,-33.9"/>
<polygon fill="#63b8ff" stroke="#63b8ff" points="674.77,-206.33 667.25,-213.8 677.79,-212.65 674.77,-206.33"/>
</a>
</g>
</g>
<!-- Node19&#45;&gt;Node4 -->
<g id="edge23_Node000019_Node000004" class="edge">
<title>Node19&#45;&gt;Node4</title>
<g id="a_edge23_Node000019_Node000004"><a xlink:title=" ">
<path fill="none" stroke="#63b8ff" d="M967.72,-372.26C853.6,-364.83 595.49,-346.97 379,-324.25 362.25,-322.49 344.23,-320.31 327.35,-318.13"/>
<polygon fill="#63b8ff" stroke="#63b8ff" points="967.25,-375.73 977.45,-372.89 967.7,-368.75 967.25,-375.73"/>
</a>
</g>
</g>
<!-- Node19&#45;&gt;Node12 -->
<g id="edge29_Node000019_Node000012" class="edge">
<title>Node19&#45;&gt;Node12</title>
<g id="a_edge29_Node000019_Node000012"><a xlink:title=" ">
<path fill="none" stroke="#63b8ff" d="M967.56,-371.18C885.52,-363.96 733.18,-348.55 605,-324.25 600.7,-323.44 596.26,-322.49 591.82,-321.48"/>
<polygon fill="#63b8ff" stroke="#63b8ff" points="967.13,-374.65 977.4,-372.03 967.74,-367.68 967.13,-374.65"/>
</a>
</g>
</g>
<!-- Node19&#45;&gt;Node13 -->
<g id="edge27_Node000019_Node000013" class="edge">
<title>Node19&#45;&gt;Node13</title>
<g id="a_edge27_Node000019_Node000013"><a xlink:title=" ">
<path fill="none" stroke="#63b8ff" d="M967.54,-376.89C869.79,-376.97 681.6,-370.87 638,-324.25 619.05,-303.99 623.09,-268.94 627.62,-248.57"/>
<polygon fill="#63b8ff" stroke="#63b8ff" points="967.49,-380.39 977.48,-376.85 967.47,-373.39 967.49,-380.39"/>
</a>
</g>
</g>
<!-- Node19&#45;&gt;Node15 -->
<g id="edge28_Node000019_Node000015" class="edge">
<title>Node19&#45;&gt;Node15</title>
<g id="a_edge28_Node000019_Node000015"><a xlink:title=" ">
<path fill="none" stroke="#63b8ff" d="M967.57,-375.33C843.71,-373.16 562.28,-363.87 476,-324.25 442.68,-308.95 413.9,-276.98 397,-255.16"/>
<polygon fill="#63b8ff" stroke="#63b8ff" points="967.49,-378.83 977.54,-375.5 967.6,-371.83 967.49,-378.83"/>
</a>
</g>
</g>
<!-- Node19&#45;&gt;Node16 -->
<g id="edge30_Node000019_Node000016" class="edge">
<title>Node19&#45;&gt;Node16</title>
<g id="a_edge30_Node000019_Node000016"><a xlink:title=" ">
<path fill="none" stroke="#63b8ff" d="M967.62,-368.35C910.03,-359.87 827.81,-344.67 803,-324.25 779.59,-304.98 769.06,-269.58 764.72,-248.87"/>
<polygon fill="#63b8ff" stroke="#63b8ff" points="966.89,-371.78 977.29,-369.74 967.89,-364.85 966.89,-371.78"/>
</a>
</g>
</g>
<!-- Node19&#45;&gt;Node17 -->
<g id="edge31_Node000019_Node000017" class="edge">
<title>Node19&#45;&gt;Node17</title>
<g id="a_edge31_Node000019_Node000017"><a xlink:title=" ">
<path fill="none" stroke="#63b8ff" d="M967.73,-374.71C834.36,-371.19 519.79,-359.24 488,-324.25 468.87,-303.2 486.56,-268.75 500.03,-248.63"/>
<polygon fill="#63b8ff" stroke="#63b8ff" points="967.31,-378.2 977.4,-374.96 967.49,-371.2 967.31,-378.2"/>
</a>
</g>
</g>
<!-- Node20 -->
<g id="Node000020" class="node">
<title>Node20</title>
<g id="a_Node000020"><a xlink:href="fetch-to-store_8hh.html" target="_top" xlink:title=" ">
<polygon fill="white" stroke="#666666" points="955.25,-324.25 844.75,-324.25 844.75,-290.75 955.25,-290.75 955.25,-324.25"/>
<text text-anchor="start" x="852.75" y="-310.75" font-family="Helvetica,sans-Serif" font-size="10.00">lix/libfetchers/fetch</text>
<text text-anchor="middle" x="900" y="-298" font-family="Helvetica,sans-Serif" font-size="10.00">&#45;to&#45;store.hh</text>
</a>
</g>
</g>
<!-- Node19&#45;&gt;Node20 -->
<g id="edge24_Node000019_Node000020" class="edge">
<title>Node19&#45;&gt;Node20</title>
<g id="a_edge24_Node000019_Node000020"><a xlink:title=" ">
<path fill="none" stroke="#63b8ff" d="M986.5,-354.47C968.23,-344.76 947.02,-333.49 930.17,-324.54"/>
<polygon fill="#63b8ff" stroke="#63b8ff" points="984.77,-357.52 995.24,-359.12 988.06,-351.34 984.77,-357.52"/>
</a>
</g>
</g>
<!-- Node21 -->
<g id="Node000021" class="node">
<title>Node21</title>
<g id="a_Node000021"><a xlink:href="binary-cache-store_8hh.html" target="_top" xlink:title=" ">
<polygon fill="white" stroke="#666666" points="1799.75,-248.38 1698.25,-248.38 1698.25,-214.88 1799.75,-214.88 1799.75,-248.38"/>
<text text-anchor="start" x="1706.25" y="-234.88" font-family="Helvetica,sans-Serif" font-size="10.00">lix/libstore/binary</text>
<text text-anchor="middle" x="1749" y="-222.12" font-family="Helvetica,sans-Serif" font-size="10.00">&#45;cache&#45;store.hh</text>
</a>
</g>
</g>
<!-- Node19&#45;&gt;Node21 -->
<g id="edge25_Node000019_Node000021" class="edge">
<title>Node19&#45;&gt;Node21</title>
<g id="a_edge25_Node000019_Node000021"><a xlink:title=" ">
<path fill="none" stroke="#63b8ff" d="M1086.37,-360.54C1194.9,-350.27 1677.66,-369.33 1730,-324.25 1751.54,-305.7 1752.51,-269.69 1750.97,-248.77"/>
<polygon fill="#63b8ff" stroke="#63b8ff" points="1086.04,-357.06 1076.54,-361.76 1086.9,-364 1086.04,-357.06"/>
</a>
</g>
</g>
<!-- Node23 -->
<g id="Node000023" class="node">
<title>Node23</title>
<g id="a_Node000023"><a xlink:href="buildenv_8hh.html" target="_top" xlink:title=" ">
<polygon fill="white" stroke="#666666" points="1080.38,-324.25 973.62,-324.25 973.62,-290.75 1080.38,-290.75 1080.38,-324.25"/>
<text text-anchor="start" x="981.62" y="-310.75" font-family="Helvetica,sans-Serif" font-size="10.00">lix/libstore/builtins</text>
<text text-anchor="middle" x="1027" y="-298" font-family="Helvetica,sans-Serif" font-size="10.00">/buildenv.hh</text>
</a>
</g>
</g>
<!-- Node19&#45;&gt;Node23 -->
<g id="edge32_Node000019_Node000023" class="edge">
<title>Node19&#45;&gt;Node23</title>
<g id="a_edge32_Node000019_Node000023"><a xlink:title=" ">
<path fill="none" stroke="#63b8ff" d="M1027,-348.56C1027,-340.34 1027,-331.59 1027,-324.38"/>
<polygon fill="#63b8ff" stroke="#63b8ff" points="1023.5,-348.49 1027,-358.49 1030.5,-348.49 1023.5,-348.49"/>
</a>
</g>
</g>
<!-- Node24 -->
<g id="Node000024" class="node">
<title>Node24</title>
<g id="a_Node000024"><a xlink:href="libstore_2daemon_8hh.html" target="_top" xlink:title=" ">
<polygon fill="white" stroke="#666666" points="2217.75,-96.62 2092.25,-96.62 2092.25,-75.88 2217.75,-75.88 2217.75,-96.62"/>
<text text-anchor="middle" x="2155" y="-83.12" font-family="Helvetica,sans-Serif" font-size="10.00">lix/libstore/daemon.hh</text>
</a>
</g>
</g>
<!-- Node19&#45;&gt;Node24 -->
<g id="edge33_Node000019_Node000024" class="edge">
<title>Node19&#45;&gt;Node24</title>
<g id="a_edge33_Node000019_Node000024"><a xlink:title=" ">
<path fill="none" stroke="#63b8ff" d="M1086.21,-360.78C1210.42,-352.29 2074.56,-360.69 2116,-324.25 2184.58,-263.95 2164.36,-133.38 2157.09,-96.89"/>
<polygon fill="#63b8ff" stroke="#63b8ff" points="1086.15,-357.27 1076.54,-361.73 1086.83,-364.24 1086.15,-357.27"/>
</a>
</g>
</g>
<!-- Node25 -->
<g id="Node000025" class="node">
<title>Node25</title>
<g id="a_Node000025"><a xlink:href="gc-store_8hh.html" target="_top" xlink:title=" ">
<polygon fill="white" stroke="#666666" points="2088.75,-317.88 1963.25,-317.88 1963.25,-297.12 2088.75,-297.12 2088.75,-317.88"/>
<text text-anchor="middle" x="2026" y="-304.38" font-family="Helvetica,sans-Serif" font-size="10.00">lix/libstore/gc&#45;store.hh</text>
</a>
</g>
</g>
<!-- Node19&#45;&gt;Node25 -->
<g id="edge35_Node000019_Node000025" class="edge">
<title>Node19&#45;&gt;Node25</title>
<g id="a_edge35_Node000019_Node000025"><a xlink:title=" ">
<path fill="none" stroke="#63b8ff" d="M1086.35,-360.14C1466.17,-301.99 1570.8,-370.5 1949,-324.25 1960.51,-322.84 1972.87,-320.63 1984.24,-318.31"/>
<polygon fill="#63b8ff" stroke="#63b8ff" points="1085.87,-356.67 1076.53,-361.67 1086.95,-363.59 1085.87,-356.67"/>
</a>
</g>
</g>
<!-- Node26 -->
<g id="Node000026" class="node">
<title>Node26</title>
<g id="a_Node000026"><a xlink:href="local-fs-store_8hh.html" target="_top" xlink:title=" ">
<polygon fill="white" stroke="#666666" points="1923,-248.38 1829,-248.38 1829,-214.88 1923,-214.88 1923,-248.38"/>
<text text-anchor="start" x="1837" y="-234.88" font-family="Helvetica,sans-Serif" font-size="10.00">lix/libstore/local</text>
<text text-anchor="middle" x="1876" y="-222.12" font-family="Helvetica,sans-Serif" font-size="10.00">&#45;fs&#45;store.hh</text>
</a>
</g>
</g>
<!-- Node19&#45;&gt;Node26 -->
<g id="edge48_Node000019_Node000026" class="edge">
<title>Node19&#45;&gt;Node26</title>
<g id="a_edge48_Node000019_Node000026"><a xlink:title=" ">
<path fill="none" stroke="#63b8ff" d="M1086.17,-360.81C1194.6,-353.38 1885.41,-356.2 1916,-324.25 1936.65,-302.69 1911.49,-268.74 1892.76,-248.78"/>
<polygon fill="#63b8ff" stroke="#63b8ff" points="1086.15,-357.3 1076.54,-361.76 1086.83,-364.26 1086.15,-357.3"/>
</a>
</g>
</g>
<!-- Node28 -->
<g id="Node000028" class="node">
<title>Node28</title>
<g id="a_Node000028"><a xlink:href="local-store_8hh.html" target="_top" xlink:title=" ">
<polygon fill="white" stroke="#666666" points="1377,-103 1283,-103 1283,-69.5 1377,-69.5 1377,-103"/>
<text text-anchor="start" x="1291" y="-89.5" font-family="Helvetica,sans-Serif" font-size="10.00">lix/libstore/local</text>
<text text-anchor="middle" x="1330" y="-76.75" font-family="Helvetica,sans-Serif" font-size="10.00">&#45;store.hh</text>
</a>
</g>
</g>
<!-- Node19&#45;&gt;Node28 -->
<g id="edge49_Node000019_Node000028" class="edge">
<title>Node19&#45;&gt;Node28</title>
<g id="a_edge49_Node000019_Node000028"><a xlink:title=" ">
<path fill="none" stroke="#63b8ff" d="M967.78,-371.27C899.6,-363.33 801.22,-342.7 836,-290.75 938.7,-137.37 1180.24,-99.48 1282.71,-90.21"/>
<polygon fill="#63b8ff" stroke="#63b8ff" points="967.03,-374.71 977.35,-372.32 967.79,-367.75 967.03,-374.71"/>
</a>
</g>
</g>
<!-- Node30 -->
<g id="Node000030" class="node">
<title>Node30</title>
<g id="a_Node000030"><a xlink:href="remote-store_8hh.html" target="_top" xlink:title=" ">
<polygon fill="white" stroke="#666666" points="2058,-248.38 1952,-248.38 1952,-214.88 2058,-214.88 2058,-248.38"/>
<text text-anchor="start" x="1960" y="-234.88" font-family="Helvetica,sans-Serif" font-size="10.00">lix/libstore/remote</text>
<text text-anchor="middle" x="2005" y="-222.12" font-family="Helvetica,sans-Serif" font-size="10.00">&#45;store.hh</text>
</a>
</g>
</g>
<!-- Node19&#45;&gt;Node30 -->
<g id="edge58_Node000019_Node000030" class="edge">
<title>Node19&#45;&gt;Node30</title>
<g id="a_edge58_Node000019_Node000030"><a xlink:title=" ">
<path fill="none" stroke="#63b8ff" d="M1086.42,-360.79C1210.18,-352.63 2060.38,-363.23 2098,-324.25 2124.05,-297.26 2077.55,-266.87 2041.42,-248.76"/>
<polygon fill="#63b8ff" stroke="#63b8ff" points="1086.16,-357.29 1076.54,-361.73 1086.83,-364.26 1086.16,-357.29"/>
</a>
</g>
</g>
<!-- Node32 -->
<g id="Node000032" class="node">
<title>Node32</title>
<g id="a_Node000032"><a xlink:href="log-store_8hh.html" target="_top" xlink:title=" ">
<polygon fill="white" stroke="#666666" points="1906.62,-317.88 1777.38,-317.88 1777.38,-297.12 1906.62,-297.12 1906.62,-317.88"/>
<text text-anchor="middle" x="1842" y="-304.38" font-family="Helvetica,sans-Serif" font-size="10.00">lix/libstore/log&#45;store.hh</text>
</a>
</g>
</g>
<!-- Node19&#45;&gt;Node32 -->
<g id="edge50_Node000019_Node000032" class="edge">
<title>Node19&#45;&gt;Node32</title>
<g id="a_edge50_Node000019_Node000032"><a xlink:title=" ">
<path fill="none" stroke="#63b8ff" d="M1086.19,-360.14C1384.29,-312.93 1466.81,-361.43 1763,-324.25 1774.66,-322.79 1787.17,-320.59 1798.72,-318.29"/>
<polygon fill="#63b8ff" stroke="#63b8ff" points="1085.85,-356.65 1076.53,-361.7 1086.96,-363.56 1085.85,-356.65"/>
</a>
</g>
</g>
<!-- Node33 -->
<g id="Node000033" class="node">
<title>Node33</title>
<g id="a_Node000033"><a xlink:href="libstore_2make-content-addressed_8hh.html" target="_top" xlink:title=" ">
<polygon fill="white" stroke="#666666" points="1237.12,-324.25 1098.88,-324.25 1098.88,-290.75 1237.12,-290.75 1237.12,-324.25"/>
<text text-anchor="start" x="1106.88" y="-310.75" font-family="Helvetica,sans-Serif" font-size="10.00">lix/libstore/make&#45;content</text>
<text text-anchor="middle" x="1168" y="-298" font-family="Helvetica,sans-Serif" font-size="10.00">&#45;addressed.hh</text>
</a>
</g>
</g>
<!-- Node19&#45;&gt;Node33 -->
<g id="edge54_Node000019_Node000033" class="edge">
<title>Node19&#45;&gt;Node33</title>
<g id="a_edge54_Node000019_Node000033"><a xlink:title=" ">
<path fill="none" stroke="#63b8ff" d="M1071.12,-354.88C1091.6,-345.08 1115.54,-333.61 1134.5,-324.54"/>
<polygon fill="#63b8ff" stroke="#63b8ff" points="1069.65,-351.7 1062.14,-359.18 1072.67,-358.02 1069.65,-351.7"/>
</a>
</g>
</g>
<!-- Node34 -->
<g id="Node000034" class="node">
<title>Node34</title>
<g id="a_Node000034"><a xlink:href="parsed-derivations_8hh.html" target="_top" xlink:title=" ">
<polygon fill="white" stroke="#666666" points="750.88,-324.25 647.12,-324.25 647.12,-290.75 750.88,-290.75 750.88,-324.25"/>
<text text-anchor="start" x="655.12" y="-310.75" font-family="Helvetica,sans-Serif" font-size="10.00">lix/libstore/parsed</text>
<text text-anchor="middle" x="699" y="-298" font-family="Helvetica,sans-Serif" font-size="10.00">&#45;derivations.hh</text>
</a>
</g>
</g>
<!-- Node19&#45;&gt;Node34 -->
<g id="edge55_Node000019_Node000034" class="edge">
<title>Node19&#45;&gt;Node34</title>
<g id="a_edge55_Node000019_Node000034"><a xlink:title=" ">
<path fill="none" stroke="#63b8ff" d="M967.82,-365C914.62,-354.94 834.43,-339.38 765,-324.25 760.51,-323.27 755.86,-322.23 751.2,-321.16"/>
<polygon fill="#63b8ff" stroke="#63b8ff" points="967.11,-368.43 977.59,-366.84 968.41,-361.55 967.11,-368.43"/>
</a>
</g>
</g>
<!-- Node35 -->
<g id="Node000035" class="node">
<title>Node35</title>
<g id="a_Node000035"><a xlink:href="remote-fs-accessor_8hh.html" target="_top" xlink:title=" ">
<polygon fill="white" stroke="#666666" points="1361,-324.25 1255,-324.25 1255,-290.75 1361,-290.75 1361,-324.25"/>
<text text-anchor="start" x="1263" y="-310.75" font-family="Helvetica,sans-Serif" font-size="10.00">lix/libstore/remote</text>
<text text-anchor="middle" x="1308" y="-298" font-family="Helvetica,sans-Serif" font-size="10.00">&#45;fs&#45;accessor.hh</text>
</a>
</g>
</g>
<!-- Node19&#45;&gt;Node35 -->
<g id="edge57_Node000019_Node000035" class="edge">
<title>Node19&#45;&gt;Node35</title>
<g id="a_edge57_Node000019_Node000035"><a xlink:title=" ">
<path fill="none" stroke="#63b8ff" d="M1086.07,-359.81C1157.44,-342.28 1177.61,-340.53 1246,-324.25 1248.81,-323.58 1251.69,-322.89 1254.59,-322.18"/>
<polygon fill="#63b8ff" stroke="#63b8ff" points="1085.49,-356.34 1076.63,-362.14 1087.17,-363.14 1085.49,-356.34"/>
</a>
</g>
</g>
<!-- Node36 -->
<g id="Node000036" class="node">
<title>Node36</title>
<g id="a_Node000036"><a xlink:href="ssh-store_8hh.html" target="_top" xlink:title=" ">
<polygon fill="white" stroke="#666666" points="1509.38,-317.88 1378.62,-317.88 1378.62,-297.12 1509.38,-297.12 1509.38,-317.88"/>
<text text-anchor="middle" x="1444" y="-304.38" font-family="Helvetica,sans-Serif" font-size="10.00">lix/libstore/ssh&#45;store.hh</text>
</a>
</g>
</g>
<!-- Node19&#45;&gt;Node36 -->
<g id="edge59_Node000019_Node000036" class="edge">
<title>Node19&#45;&gt;Node36</title>
<g id="a_edge59_Node000019_Node000036"><a xlink:title=" ">
<path fill="none" stroke="#63b8ff" d="M1086.28,-359.98C1211.63,-335.69 1247.26,-345 1370,-324.25 1379.97,-322.56 1390.64,-320.47 1400.68,-318.36"/>
<polygon fill="#63b8ff" stroke="#63b8ff" points="1085.7,-356.52 1076.57,-361.89 1087.06,-363.39 1085.7,-356.52"/>
</a>
</g>
</g>
<!-- Node37 -->
<g id="Node000037" class="node">
<title>Node37</title>
<g id="a_Node000037"><a xlink:href="store-cast_8hh.html" target="_top" xlink:title=" ">
<polygon fill="white" stroke="#666666" points="1622.75,-324.25 1527.25,-324.25 1527.25,-290.75 1622.75,-290.75 1622.75,-324.25"/>
<text text-anchor="start" x="1535.25" y="-310.75" font-family="Helvetica,sans-Serif" font-size="10.00">lix/libstore/store</text>
<text text-anchor="middle" x="1575" y="-298" font-family="Helvetica,sans-Serif" font-size="10.00">&#45;cast.hh</text>
</a>
</g>
</g>
<!-- Node19&#45;&gt;Node37 -->
<g id="edge60_Node000019_Node000037" class="edge">
<title>Node19&#45;&gt;Node37</title>
<g id="a_edge60_Node000019_Node000037"><a xlink:title=" ">
<path fill="none" stroke="#63b8ff" d="M1086.3,-360.07C1276.62,-327.52 1331.07,-357.53 1518,-324.25 1520.93,-323.73 1523.93,-323.12 1526.94,-322.46"/>
<polygon fill="#63b8ff" stroke="#63b8ff" points="1085.79,-356.61 1076.55,-361.78 1087,-363.5 1085.79,-356.61"/>
</a>
</g>
</g>
<!-- Node38 -->
<g id="Node000038" class="node">
<title>Node38</title>
<g id="a_Node000038"><a xlink:href="run_8hh.html" target="_top" xlink:title=" ">
<polygon fill="white" stroke="#666666" points="1720.88,-317.88 1641.12,-317.88 1641.12,-297.12 1720.88,-297.12 1720.88,-317.88"/>
<text text-anchor="middle" x="1681" y="-304.38" font-family="Helvetica,sans-Serif" font-size="10.00">lix/nix/run.hh</text>
</a>
</g>
</g>
<!-- Node19&#45;&gt;Node38 -->
<g id="edge61_Node000019_Node000038" class="edge">
<title>Node19&#45;&gt;Node38</title>
<g id="a_edge61_Node000019_Node000038"><a xlink:title=" ">
<path fill="none" stroke="#63b8ff" d="M1086.26,-360.12C1326.75,-321.04 1395.86,-369.25 1632,-324.25 1639.37,-322.84 1647.18,-320.67 1654.35,-318.37"/>
<polygon fill="#63b8ff" stroke="#63b8ff" points="1085.83,-356.64 1076.54,-361.73 1086.98,-363.55 1085.83,-356.64"/>
</a>
</g>
</g>
<!-- Node22 -->
<g id="Node000022" class="node">
<title>Node22</title>
<g id="a_Node000022"><a xlink:href="s3-binary-cache-store_8hh.html" target="_top" xlink:title=" ">
<polygon fill="white" stroke="#666666" points="1738.25,-172.5 1621.75,-172.5 1621.75,-139 1738.25,-139 1738.25,-172.5"/>
<text text-anchor="start" x="1629.75" y="-159" font-family="Helvetica,sans-Serif" font-size="10.00">lix/libstore/s3&#45;binary</text>
<text text-anchor="middle" x="1680" y="-146.25" font-family="Helvetica,sans-Serif" font-size="10.00">&#45;cache&#45;store.hh</text>
</a>
</g>
</g>
<!-- Node21&#45;&gt;Node22 -->
<g id="edge26_Node000021_Node000022" class="edge">
<title>Node21&#45;&gt;Node22</title>
<g id="a_edge26_Node000021_Node000022"><a xlink:title=" ">
<path fill="none" stroke="#63b8ff" d="M1726.2,-206.22C1715.92,-195.21 1704.07,-182.52 1694.94,-172.75"/>
<polygon fill="#63b8ff" stroke="#63b8ff" points="1723.61,-208.57 1732.99,-213.49 1728.73,-203.79 1723.61,-208.57"/>
</a>
</g>
</g>
<!-- Node24&#45;&gt;Node9 -->
<g id="edge34_Node000024_Node000009" class="edge">
<title>Node24&#45;&gt;Node9</title>
<g id="a_edge34_Node000024_Node000009"><a xlink:title=" ">
<path fill="none" stroke="#63b8ff" d="M2119.38,-71.43C2085.74,-58.38 2036.11,-39.13 2006.33,-27.58"/>
<polygon fill="#63b8ff" stroke="#63b8ff" points="2117.7,-74.53 2128.29,-74.89 2120.23,-68.01 2117.7,-74.53"/>
</a>
</g>
</g>
<!-- Node25&#45;&gt;Node26 -->
<g id="edge36_Node000025_Node000026" class="edge">
<title>Node25&#45;&gt;Node26</title>
<g id="a_edge36_Node000025_Node000026"><a xlink:title=" ">
<path fill="none" stroke="#63b8ff" d="M1996.01,-291.73C1970.83,-279.33 1934.92,-261.64 1908.94,-248.85"/>
<polygon fill="#63b8ff" stroke="#63b8ff" points="1994.21,-294.74 2004.72,-296.02 1997.3,-288.46 1994.21,-294.74"/>
</a>
</g>
</g>
<!-- Node25&#45;&gt;Node30 -->
<g id="edge42_Node000025_Node000030" class="edge">
<title>Node25&#45;&gt;Node30</title>
<g id="a_edge42_Node000025_Node000030"><a xlink:title=" ">
<path fill="none" stroke="#63b8ff" d="M2020.14,-285.88C2016.8,-274.15 2012.69,-259.68 2009.59,-248.78"/>
<polygon fill="#63b8ff" stroke="#63b8ff" points="2016.74,-286.72 2022.84,-295.39 2023.47,-284.81 2016.74,-286.72"/>
</a>
</g>
</g>
<!-- Node27 -->
<g id="Node000027" class="node">
<title>Node27</title>
<g id="a_Node000027"><a xlink:href="indirect-root-store_8hh.html" target="_top" xlink:title=" ">
<polygon fill="white" stroke="#666666" points="1863.75,-172.5 1756.25,-172.5 1756.25,-139 1863.75,-139 1863.75,-172.5"/>
<text text-anchor="start" x="1764.25" y="-159" font-family="Helvetica,sans-Serif" font-size="10.00">lix/libstore/indirect</text>
<text text-anchor="middle" x="1810" y="-146.25" font-family="Helvetica,sans-Serif" font-size="10.00">&#45;root&#45;store.hh</text>
</a>
</g>
</g>
<!-- Node26&#45;&gt;Node27 -->
<g id="edge37_Node000026_Node000027" class="edge">
<title>Node26&#45;&gt;Node27</title>
<g id="a_edge37_Node000026_Node000027"><a xlink:title=" ">
<path fill="none" stroke="#63b8ff" d="M1854.19,-206.22C1844.36,-195.21 1833.02,-182.52 1824.29,-172.75"/>
<polygon fill="#63b8ff" stroke="#63b8ff" points="1851.4,-208.34 1860.67,-213.47 1856.62,-203.68 1851.4,-208.34"/>
</a>
</g>
</g>
<!-- Node27&#45;&gt;Node28 -->
<g id="edge38_Node000027_Node000028" class="edge">
<title>Node27&#45;&gt;Node28</title>
<g id="a_edge38_Node000027_Node000028"><a xlink:title=" ">
<path fill="none" stroke="#63b8ff" d="M1744.54,-138.68C1605.63,-113.37 1452.73,-97.99 1377.19,-91.22"/>
<polygon fill="#63b8ff" stroke="#63b8ff" points="1743.84,-142.11 1754.31,-140.48 1745.11,-135.22 1743.84,-142.11"/>
</a>
</g>
</g>
<!-- Node29 -->
<g id="Node000029" class="node">
<title>Node29</title>
<g id="a_Node000029"><a xlink:href="uds-remote-store_8hh.html" target="_top" xlink:title=" ">
<polygon fill="white" stroke="#666666" points="1952.5,-103 1825.5,-103 1825.5,-69.5 1952.5,-69.5 1952.5,-103"/>
<text text-anchor="start" x="1833.5" y="-89.5" font-family="Helvetica,sans-Serif" font-size="10.00">lix/libstore/uds&#45;remote</text>
<text text-anchor="middle" x="1889" y="-76.75" font-family="Helvetica,sans-Serif" font-size="10.00">&#45;store.hh</text>
</a>
</g>
</g>
<!-- Node27&#45;&gt;Node29 -->
<g id="edge41_Node000027_Node000029" class="edge">
<title>Node27&#45;&gt;Node29</title>
<g id="a_edge41_Node000027_Node000029"><a xlink:title=" ">
<path fill="none" stroke="#63b8ff" d="M1837.4,-131.34C1848.21,-122.1 1860.35,-111.73 1870.14,-103.37"/>
<polygon fill="#63b8ff" stroke="#63b8ff" points="1835.2,-128.61 1829.87,-137.77 1839.75,-133.94 1835.2,-128.61"/>
</a>
</g>
</g>
<!-- Node28&#45;&gt;Node9 -->
<g id="edge40_Node000028_Node000009" class="edge">
<title>Node28&#45;&gt;Node9</title>
<g id="a_edge40_Node000028_Node000009"><a xlink:title=" ">
<path fill="none" stroke="#63b8ff" d="M1388.66,-79.17C1514.91,-66.08 1810.6,-35.42 1929.82,-23.06"/>
<polygon fill="#63b8ff" stroke="#63b8ff" points="1388.43,-75.67 1378.85,-80.19 1389.16,-82.64 1388.43,-75.67"/>
</a>
</g>
</g>
<!-- Node28&#45;&gt;Node14 -->
<g id="edge39_Node000028_Node000014" class="edge">
<title>Node28&#45;&gt;Node14</title>
<g id="a_edge39_Node000028_Node000014"><a xlink:title=" ">
<path fill="none" stroke="#63b8ff" d="M1271.7,-69.63C1231.78,-58.94 1178.96,-44.79 1138.57,-33.97"/>
<polygon fill="#63b8ff" stroke="#63b8ff" points="1270.57,-72.96 1281.14,-72.16 1272.38,-66.19 1270.57,-72.96"/>
</a>
</g>
</g>
<!-- Node30&#45;&gt;Node9 -->
<g id="edge47_Node000030_Node000009" class="edge">
<title>Node30&#45;&gt;Node9</title>
<g id="a_edge47_Node000030_Node000009"><a xlink:title=" ">
<path fill="none" stroke="#63b8ff" d="M2026.98,-205.78C2034.19,-196.08 2041.29,-184.43 2045,-172.5 2049.42,-158.28 2048.58,-153.45 2045,-139 2033.84,-93.95 2002.55,-47.18 1988.27,-27.45"/>
<polygon fill="#63b8ff" stroke="#63b8ff" points="2024.27,-203.57 2020.81,-213.58 2029.76,-207.92 2024.27,-203.57"/>
</a>
</g>
</g>
<!-- Node30&#45;&gt;Node29 -->
<g id="edge46_Node000030_Node000029" class="edge">
<title>Node30&#45;&gt;Node29</title>
<g id="a_edge46_Node000030_Node000029"><a xlink:title=" ">
<path fill="none" stroke="#63b8ff" d="M1955.19,-209.22C1939,-200.05 1922.31,-187.85 1911,-172.5 1895.77,-151.82 1891.06,-121.57 1889.61,-103.22"/>
<polygon fill="#63b8ff" stroke="#63b8ff" points="1953.35,-212.2 1963.82,-213.83 1956.65,-206.03 1953.35,-212.2"/>
</a>
</g>
</g>
<!-- Node31 -->
<g id="Node000031" class="node">
<title>Node31</title>
<g id="a_Node000031"><a xlink:href="remote-store-connection_8hh.html" target="_top" xlink:title=" ">
<polygon fill="white" stroke="#666666" points="2036.25,-172.5 1919.75,-172.5 1919.75,-139 2036.25,-139 2036.25,-172.5"/>
<text text-anchor="start" x="1927.75" y="-159" font-family="Helvetica,sans-Serif" font-size="10.00">lix/libstore/remote</text>
<text text-anchor="middle" x="1978" y="-146.25" font-family="Helvetica,sans-Serif" font-size="10.00">&#45;store&#45;connection.hh</text>
</a>
</g>
</g>
<!-- Node30&#45;&gt;Node31 -->
<g id="edge43_Node000030_Node000031" class="edge">
<title>Node30&#45;&gt;Node31</title>
<g id="a_edge43_Node000030_Node000031"><a xlink:title=" ">
<path fill="none" stroke="#63b8ff" d="M1995.23,-203.91C1991.42,-193.47 1987.17,-181.84 1983.85,-172.75"/>
<polygon fill="#63b8ff" stroke="#63b8ff" points="1991.9,-204.98 1998.62,-213.17 1998.48,-202.58 1991.9,-204.98"/>
</a>
</g>
</g>
<!-- Node31&#45;&gt;Node9 -->
<g id="edge45_Node000031_Node000009" class="edge">
<title>Node31&#45;&gt;Node9</title>
<g id="a_edge45_Node000031_Node000009"><a xlink:title=" ">
<path fill="none" stroke="#63b8ff" d="M1978.6,-127.54C1979.27,-96.7 1980.34,-48.07 1980.79,-27.48"/>
<polygon fill="#63b8ff" stroke="#63b8ff" points="1975.1,-127.18 1978.38,-137.25 1982.1,-127.33 1975.1,-127.18"/>
</a>
</g>
</g>
<!-- Node31&#45;&gt;Node29 -->
<g id="edge44_Node000031_Node000029" class="edge">
<title>Node31&#45;&gt;Node29</title>
<g id="a_edge44_Node000031_Node000029"><a xlink:title=" ">
<path fill="none" stroke="#63b8ff" d="M1947.86,-131.89C1935.5,-122.52 1921.5,-111.9 1910.25,-103.37"/>
<polygon fill="#63b8ff" stroke="#63b8ff" points="1945.62,-134.58 1955.7,-137.84 1949.85,-129.01 1945.62,-134.58"/>
</a>
</g>
</g>
<!-- Node32&#45;&gt;Node21 -->
<g id="edge51_Node000032_Node000021" class="edge">
<title>Node32&#45;&gt;Node21</title>
<g id="a_edge51_Node000032_Node000021"><a xlink:title=" ">
<path fill="none" stroke="#63b8ff" d="M1821.02,-289.83C1805.56,-277.55 1784.64,-260.94 1769.34,-248.78"/>
<polygon fill="#63b8ff" stroke="#63b8ff" points="1818.65,-292.42 1828.66,-295.9 1823,-286.94 1818.65,-292.42"/>
</a>
</g>
</g>
<!-- Node32&#45;&gt;Node26 -->
<g id="edge52_Node000032_Node000026" class="edge">
<title>Node32&#45;&gt;Node26</title>
<g id="a_edge52_Node000032_Node000026"><a xlink:title=" ">
<path fill="none" stroke="#63b8ff" d="M1851.15,-286.62C1856.61,-274.76 1863.44,-259.91 1868.56,-248.78"/>
<polygon fill="#63b8ff" stroke="#63b8ff" points="1848.08,-284.92 1847.08,-295.47 1854.44,-287.85 1848.08,-284.92"/>
</a>
</g>
</g>
<!-- Node32&#45;&gt;Node30 -->
<g id="edge53_Node000032_Node000030" class="edge">
<title>Node32&#45;&gt;Node30</title>
<g id="a_edge53_Node000032_Node000030"><a xlink:title=" ">
<path fill="none" stroke="#63b8ff" d="M1873.86,-292.06C1901.25,-279.65 1940.73,-261.76 1969.2,-248.85"/>
<polygon fill="#63b8ff" stroke="#63b8ff" points="1872.69,-288.75 1865.02,-296.07 1875.58,-295.12 1872.69,-288.75"/>
</a>
</g>
</g>
<!-- Node34&#45;&gt;Node13 -->
<g id="edge56_Node000034_Node000013" class="edge">
<title>Node34&#45;&gt;Node13</title>
<g id="a_edge56_Node000034_Node000013"><a xlink:title=" ">
<path fill="none" stroke="#63b8ff" d="M676.86,-282.09C666.88,-271.09 655.37,-258.39 646.51,-248.62"/>
<polygon fill="#63b8ff" stroke="#63b8ff" points="674.13,-284.29 683.45,-289.35 679.32,-279.59 674.13,-284.29"/>
</a>
</g>
</g>
</g>
</svg>
