<?xml version="1.0" encoding="UTF-8" standalone="no"?>
<!DOCTYPE svg PUBLIC "-//W3C//DTD SVG 1.1//EN"
 "http://www.w3.org/Graphics/SVG/1.1/DTD/svg11.dtd">
<!-- Generated by graphviz version 12.2.1 (0)
 -->
<!-- Title: lix/libutil/logging.hh Pages: 1 -->
<svg width="1482pt" height="382pt"
 viewBox="0.00 0.00 1482.12 382.00" xmlns="http://www.w3.org/2000/svg" xmlns:xlink="http://www.w3.org/1999/xlink">
<g id="graph0" class="graph" transform="scale(1 1) rotate(0) translate(4 378)">
<title>lix/libutil/logging.hh</title>
<!-- Node1 -->
<g id="Node000001" class="node">
<title>Node1</title>
<g id="a_Node000001"><a xlink:title=" ">
<polygon fill="#999999" stroke="#666666" points="609.25,-374 496.5,-374 496.5,-353.25 609.25,-353.25 609.25,-374"/>
<text text-anchor="middle" x="552.88" y="-360.5" font-family="Helvetica,sans-Serif" font-size="10.00">lix/libutil/logging.hh</text>
</a>
</g>
</g>
<!-- Node2 -->
<g id="Node000002" class="node">
<title>Node2</title>
<g id="a_Node000002"><a xlink:href="types_8hh.html" target="_top" xlink:title=" ">
<polygon fill="white" stroke="#666666" points="449.75,-191 346,-191 346,-170.25 449.75,-170.25 449.75,-191"/>
<text text-anchor="middle" x="397.88" y="-177.5" font-family="Helvetica,sans-Serif" font-size="10.00">lix/libutil/types.hh</text>
</a>
</g>
</g>
<!-- Node1&#45;&gt;Node2 -->
<g id="edge1_Node000001_Node000002" class="edge">
<title>Node1&#45;&gt;Node2</title>
<g id="a_edge1_Node000001_Node000002"><a xlink:title=" ">
<path fill="none" stroke="#63b8ff" d="M496.12,-356.2C469.83,-350.28 440.38,-338.95 421.88,-317.25 394.16,-284.76 393.43,-231.61 395.53,-202.42"/>
<polygon fill="#63b8ff" stroke="#63b8ff" points="398.99,-202.97 396.43,-192.7 392.02,-202.33 398.99,-202.97"/>
</a>
</g>
</g>
<!-- Node12 -->
<g id="Node000012" class="node">
<title>Node12</title>
<g id="a_Node000012"><a xlink:href="error_8hh.html" target="_top" xlink:title="This file defines two main structs/classes used in nix error handling.">
<polygon fill="white" stroke="#666666" points="795.5,-191 696.25,-191 696.25,-170.25 795.5,-170.25 795.5,-191"/>
<text text-anchor="middle" x="745.88" y="-177.5" font-family="Helvetica,sans-Serif" font-size="10.00">lix/libutil/error.hh</text>
</a>
</g>
</g>
<!-- Node1&#45;&gt;Node12 -->
<g id="edge11_Node000001_Node000012" class="edge">
<title>Node1&#45;&gt;Node12</title>
<g id="a_edge11_Node000001_Node000012"><a xlink:title=" ">
<path fill="none" stroke="#63b8ff" d="M551.67,-352.91C549.19,-328.31 546.32,-263 579.88,-227 606.53,-198.4 649.3,-187.19 684.75,-183.05"/>
<polygon fill="#63b8ff" stroke="#63b8ff" points="684.86,-186.56 694.47,-182.09 684.17,-179.59 684.86,-186.56"/>
</a>
</g>
</g>
<!-- Node30 -->
<g id="Node000030" class="node">
<title>Node30</title>
<g id="a_Node000030"><a xlink:href="libutil_2config_8hh.html" target="_top" xlink:title=" ">
<polygon fill="white" stroke="#666666" points="772.88,-317.25 666.88,-317.25 666.88,-296.5 772.88,-296.5 772.88,-317.25"/>
<text text-anchor="middle" x="719.88" y="-303.75" font-family="Helvetica,sans-Serif" font-size="10.00">lix/libutil/config.hh</text>
</a>
</g>
</g>
<!-- Node1&#45;&gt;Node30 -->
<g id="edge36_Node000001_Node000030" class="edge">
<title>Node1&#45;&gt;Node30</title>
<g id="a_edge36_Node000001_Node000030"><a xlink:title=" ">
<path fill="none" stroke="#63b8ff" d="M582.73,-352.84C609.6,-344.03 649.33,-331 679.11,-321.24"/>
<polygon fill="#63b8ff" stroke="#63b8ff" points="680.15,-324.58 688.56,-318.14 677.97,-317.93 680.15,-324.58"/>
</a>
</g>
</g>
<!-- Node38 -->
<g id="Node000038" class="node">
<title>Node38</title>
<g id="a_Node000038"><a xlink:title=" ">
<polygon fill="#e0e0e0" stroke="#999999" points="924.38,-317.25 791.38,-317.25 791.38,-296.5 924.38,-296.5 924.38,-317.25"/>
<text text-anchor="middle" x="857.88" y="-303.75" font-family="Helvetica,sans-Serif" font-size="10.00">logging&#45;settings.gen.inc</text>
</a>
</g>
</g>
<!-- Node1&#45;&gt;Node38 -->
<g id="edge57_Node000001_Node000038" class="edge">
<title>Node1&#45;&gt;Node38</title>
<g id="a_edge57_Node000001_Node000038"><a xlink:title=" ">
<path fill="none" stroke="#63b8ff" d="M607.76,-352.77C659.42,-343.5 736.88,-329.6 791.89,-319.72"/>
<polygon fill="#63b8ff" stroke="#63b8ff" points="792.21,-323.22 801.43,-318.01 790.97,-316.33 792.21,-323.22"/>
</a>
</g>
</g>
<!-- Node3 -->
<g id="Node000003" class="node">
<title>Node3</title>
<g id="a_Node000003"><a xlink:title=" ">
<polygon fill="#e0e0e0" stroke="#999999" points="466.38,-134.25 435.38,-134.25 435.38,-113.5 466.38,-113.5 466.38,-134.25"/>
<text text-anchor="middle" x="450.88" y="-120.75" font-family="Helvetica,sans-Serif" font-size="10.00">list</text>
</a>
</g>
</g>
<!-- Node2&#45;&gt;Node3 -->
<g id="edge2_Node000002_Node000003" class="edge">
<title>Node2&#45;&gt;Node3</title>
<g id="a_edge2_Node000002_Node000003"><a xlink:title=" ">
<path fill="none" stroke="#63b8ff" d="M407.35,-169.84C414.66,-162.28 424.97,-151.64 433.72,-142.6"/>
<polygon fill="#63b8ff" stroke="#63b8ff" points="435.99,-145.29 440.43,-135.67 430.96,-140.42 435.99,-145.29"/>
</a>
</g>
</g>
<!-- Node4 -->
<g id="Node000004" class="node">
<title>Node4</title>
<g id="a_Node000004"><a xlink:title=" ">
<polygon fill="#e0e0e0" stroke="#999999" points="417.75,-134.25 362,-134.25 362,-113.5 417.75,-113.5 417.75,-134.25"/>
<text text-anchor="middle" x="389.88" y="-120.75" font-family="Helvetica,sans-Serif" font-size="10.00">optional</text>
</a>
</g>
</g>
<!-- Node2&#45;&gt;Node4 -->
<g id="edge3_Node000002_Node000004" class="edge">
<title>Node2&#45;&gt;Node4</title>
<g id="a_edge3_Node000002_Node000004"><a xlink:title=" ">
<path fill="none" stroke="#63b8ff" d="M396.44,-169.84C395.47,-163.14 394.13,-154.01 392.92,-145.73"/>
<polygon fill="#63b8ff" stroke="#63b8ff" points="396.42,-145.46 391.51,-136.08 389.49,-146.48 396.42,-145.46"/>
</a>
</g>
</g>
<!-- Node5 -->
<g id="Node000005" class="node">
<title>Node5</title>
<g id="a_Node000005"><a xlink:title=" ">
<polygon fill="#e0e0e0" stroke="#999999" points="1238.38,-77.5 1207.38,-77.5 1207.38,-56.75 1238.38,-56.75 1238.38,-77.5"/>
<text text-anchor="middle" x="1222.88" y="-64" font-family="Helvetica,sans-Serif" font-size="10.00">set</text>
</a>
</g>
</g>
<!-- Node2&#45;&gt;Node5 -->
<g id="edge4_Node000002_Node000005" class="edge">
<title>Node2&#45;&gt;Node5</title>
<g id="a_edge4_Node000002_Node000005"><a xlink:title=" ">
<path fill="none" stroke="#63b8ff" d="M354.16,-169.78C313.97,-158.84 264.1,-139.27 288.88,-113.5 322.43,-78.59 1080.49,-86.71 1195.64,-76.42"/>
<polygon fill="#63b8ff" stroke="#63b8ff" points="1195.99,-79.9 1205.46,-75.15 1195.09,-72.96 1195.99,-79.9"/>
</a>
</g>
</g>
<!-- Node6 -->
<g id="Node000006" class="node">
<title>Node6</title>
<g id="a_Node000006"><a xlink:title=" ">
<polygon fill="#e0e0e0" stroke="#999999" points="754.75,-77.5 711,-77.5 711,-56.75 754.75,-56.75 754.75,-77.5"/>
<text text-anchor="middle" x="732.88" y="-64" font-family="Helvetica,sans-Serif" font-size="10.00">string</text>
</a>
</g>
</g>
<!-- Node2&#45;&gt;Node6 -->
<g id="edge5_Node000002_Node000006" class="edge">
<title>Node2&#45;&gt;Node6</title>
<g id="a_edge5_Node000002_Node000006"><a xlink:title=" ">
<path fill="none" stroke="#63b8ff" d="M345.71,-171.88C266.97,-160.08 126.48,-138.49 122.88,-134.25 116.91,-127.22 116.56,-120.22 122.88,-113.5 165.16,-68.5 599.6,-87.15 699.52,-77.02"/>
<polygon fill="#63b8ff" stroke="#63b8ff" points="699.73,-80.52 709.17,-75.71 698.8,-73.58 699.73,-80.52"/>
</a>
</g>
</g>
<!-- Node7 -->
<g id="Node000007" class="node">
<title>Node7</title>
<g id="a_Node000007"><a xlink:title=" ">
<polygon fill="#e0e0e0" stroke="#999999" points="693,-77.5 620.75,-77.5 620.75,-56.75 693,-56.75 693,-77.5"/>
<text text-anchor="middle" x="656.88" y="-64" font-family="Helvetica,sans-Serif" font-size="10.00">string_view</text>
</a>
</g>
</g>
<!-- Node2&#45;&gt;Node7 -->
<g id="edge6_Node000002_Node000007" class="edge">
<title>Node2&#45;&gt;Node7</title>
<g id="a_edge6_Node000002_Node000007"><a xlink:title=" ">
<path fill="none" stroke="#63b8ff" d="M345.84,-172.18C258.3,-159.61 90.92,-135.46 89.88,-134.25 83.85,-127.27 83.58,-120.24 89.88,-113.5 127.72,-72.95 516.1,-84.24 609.27,-77.27"/>
<polygon fill="#63b8ff" stroke="#63b8ff" points="609.5,-80.76 619.09,-76.28 608.79,-73.8 609.5,-80.76"/>
</a>
</g>
</g>
<!-- Node8 -->
<g id="Node000008" class="node">
<title>Node8</title>
<g id="a_Node000008"><a xlink:title=" ">
<polygon fill="#e0e0e0" stroke="#999999" points="37.75,-134.25 0,-134.25 0,-113.5 37.75,-113.5 37.75,-134.25"/>
<text text-anchor="middle" x="18.88" y="-120.75" font-family="Helvetica,sans-Serif" font-size="10.00">map</text>
</a>
</g>
</g>
<!-- Node2&#45;&gt;Node8 -->
<g id="edge7_Node000002_Node000008" class="edge">
<title>Node2&#45;&gt;Node8</title>
<g id="a_edge7_Node000002_Node000008"><a xlink:title=" ">
<path fill="none" stroke="#63b8ff" d="M345.65,-172.14C340.99,-171.49 336.35,-170.86 331.88,-170.25 207.54,-153.43 174.78,-159.46 51.88,-134.25 50.88,-134.05 49.87,-133.83 48.85,-133.6"/>
<polygon fill="#63b8ff" stroke="#63b8ff" points="49.97,-130.27 39.42,-131.19 48.24,-137.05 49.97,-130.27"/>
</a>
</g>
</g>
<!-- Node9 -->
<g id="Node000009" class="node">
<title>Node9</title>
<g id="a_Node000009"><a xlink:title=" ">
<polygon fill="#e0e0e0" stroke="#999999" points="344.25,-134.25 297.5,-134.25 297.5,-113.5 344.25,-113.5 344.25,-134.25"/>
<text text-anchor="middle" x="320.88" y="-120.75" font-family="Helvetica,sans-Serif" font-size="10.00">vector</text>
</a>
</g>
</g>
<!-- Node2&#45;&gt;Node9 -->
<g id="edge8_Node000002_Node000009" class="edge">
<title>Node2&#45;&gt;Node9</title>
<g id="a_edge8_Node000002_Node000009"><a xlink:title=" ">
<path fill="none" stroke="#63b8ff" d="M384.11,-169.84C372.94,-161.9 356.96,-150.53 343.85,-141.21"/>
<polygon fill="#63b8ff" stroke="#63b8ff" points="345.93,-138.4 335.76,-135.46 341.88,-144.1 345.93,-138.4"/>
</a>
</g>
</g>
<!-- Node10 -->
<g id="Node000010" class="node">
<title>Node10</title>
<g id="a_Node000010"><a xlink:title=" ">
<polygon fill="#e0e0e0" stroke="#999999" points="171.5,-134.25 132.25,-134.25 132.25,-113.5 171.5,-113.5 171.5,-134.25"/>
<text text-anchor="middle" x="151.88" y="-120.75" font-family="Helvetica,sans-Serif" font-size="10.00">span</text>
</a>
</g>
</g>
<!-- Node2&#45;&gt;Node10 -->
<g id="edge9_Node000002_Node000010" class="edge">
<title>Node2&#45;&gt;Node10</title>
<g id="a_edge9_Node000002_Node000010"><a xlink:title=" ">
<path fill="none" stroke="#63b8ff" d="M345.77,-170.35C304.09,-162.56 243.96,-150.52 182.79,-134.53"/>
<polygon fill="#63b8ff" stroke="#63b8ff" points="183.79,-131.18 173.22,-132 181.99,-137.94 183.79,-131.18"/>
</a>
</g>
</g>
<!-- Node11 -->
<g id="Node000011" class="node">
<title>Node11</title>
<g id="a_Node000011"><a xlink:title=" ">
<polygon fill="#e0e0e0" stroke="#999999" points="242.25,-134.25 189.5,-134.25 189.5,-113.5 242.25,-113.5 242.25,-134.25"/>
<text text-anchor="middle" x="215.88" y="-120.75" font-family="Helvetica,sans-Serif" font-size="10.00">stdint.h</text>
</a>
</g>
</g>
<!-- Node2&#45;&gt;Node11 -->
<g id="edge10_Node000002_Node000011" class="edge">
<title>Node2&#45;&gt;Node11</title>
<g id="a_edge10_Node000002_Node000011"><a xlink:title=" ">
<path fill="none" stroke="#63b8ff" d="M365.34,-169.84C333.97,-160.4 286.52,-146.13 253.53,-136.2"/>
<polygon fill="#63b8ff" stroke="#63b8ff" points="254.55,-132.85 243.96,-133.32 252.53,-139.56 254.55,-132.85"/>
</a>
</g>
</g>
<!-- Node12&#45;&gt;Node3 -->
<g id="edge28_Node000012_Node000003" class="edge">
<title>Node12&#45;&gt;Node3</title>
<g id="a_edge28_Node000012_Node000003"><a xlink:title=" ">
<path fill="none" stroke="#63b8ff" d="M695.75,-174.38C643.21,-168.18 558.22,-156.2 477.56,-134.57"/>
<polygon fill="#63b8ff" stroke="#63b8ff" points="478.76,-131.27 468.19,-132 476.9,-138.02 478.76,-131.27"/>
</a>
</g>
</g>
<!-- Node12&#45;&gt;Node4 -->
<g id="edge30_Node000012_Node000004" class="edge">
<title>Node12&#45;&gt;Node4</title>
<g id="a_edge30_Node000012_Node000004"><a xlink:title=" ">
<path fill="none" stroke="#63b8ff" d="M695.87,-174.19C635.1,-167.21 529.27,-153.88 429.3,-134.55"/>
<polygon fill="#63b8ff" stroke="#63b8ff" points="430.06,-131.13 419.57,-132.64 428.71,-138 430.06,-131.13"/>
</a>
</g>
</g>
<!-- Node13 -->
<g id="Node000013" class="node">
<title>Node13</title>
<g id="a_Node000013"><a xlink:href="json-fwd_8hh_source.html" target="_top" xlink:title=" ">
<polygon fill="white" stroke="#666666" points="1381.88,-134.25 1263.88,-134.25 1263.88,-113.5 1381.88,-113.5 1381.88,-134.25"/>
<text text-anchor="middle" x="1322.88" y="-120.75" font-family="Helvetica,sans-Serif" font-size="10.00">lix/libutil/json&#45;fwd.hh</text>
</a>
</g>
</g>
<!-- Node12&#45;&gt;Node13 -->
<g id="edge12_Node000012_Node000013" class="edge">
<title>Node12&#45;&gt;Node13</title>
<g id="a_edge12_Node000012_Node000013"><a xlink:title=" ">
<path fill="none" stroke="#63b8ff" d="M795.8,-172C800.55,-171.37 805.3,-170.77 809.88,-170.25 1004.82,-148.02 1054.74,-154.75 1249.88,-134.25 1250.71,-134.16 1251.55,-134.07 1252.39,-133.98"/>
<polygon fill="#63b8ff" stroke="#63b8ff" points="1252.49,-137.49 1262.04,-132.9 1251.71,-130.54 1252.49,-137.49"/>
</a>
</g>
</g>
<!-- Node15 -->
<g id="Node000015" class="node">
<title>Node15</title>
<g id="a_Node000015"><a xlink:title=" ">
<polygon fill="#e0e0e0" stroke="#999999" points="1474.12,-77.5 1405.62,-77.5 1405.62,-56.75 1474.12,-56.75 1474.12,-77.5"/>
<text text-anchor="middle" x="1439.88" y="-64" font-family="Helvetica,sans-Serif" font-size="10.00">type_traits</text>
</a>
</g>
</g>
<!-- Node12&#45;&gt;Node15 -->
<g id="edge35_Node000012_Node000015" class="edge">
<title>Node12&#45;&gt;Node15</title>
<g id="a_edge35_Node000012_Node000015"><a xlink:title=" ">
<path fill="none" stroke="#63b8ff" d="M795.8,-172.03C800.55,-171.39 805.3,-170.79 809.88,-170.25 990.23,-149.08 1043.07,-186.88 1216.88,-134.25 1235.29,-128.67 1236.94,-120.46 1254.88,-113.5 1267.84,-108.47 1343.7,-90.45 1394.16,-78.69"/>
<polygon fill="#63b8ff" stroke="#63b8ff" points="1394.71,-82.15 1403.66,-76.48 1393.13,-75.33 1394.71,-82.15"/>
</a>
</g>
</g>
<!-- Node16 -->
<g id="Node000016" class="node">
<title>Node16</title>
<g id="a_Node000016"><a xlink:href="suggestions_8hh.html" target="_top" xlink:title=" ">
<polygon fill="white" stroke="#666666" points="1140.5,-134.25 1005.25,-134.25 1005.25,-113.5 1140.5,-113.5 1140.5,-134.25"/>
<text text-anchor="middle" x="1072.88" y="-120.75" font-family="Helvetica,sans-Serif" font-size="10.00">lix/libutil/suggestions.hh</text>
</a>
</g>
</g>
<!-- Node12&#45;&gt;Node16 -->
<g id="edge15_Node000012_Node000016" class="edge">
<title>Node12&#45;&gt;Node16</title>
<g id="a_edge15_Node000012_Node000016"><a xlink:title=" ">
<path fill="none" stroke="#63b8ff" d="M795.9,-171.25C851.14,-162 940.49,-147.04 1002.72,-136.62"/>
<polygon fill="#63b8ff" stroke="#63b8ff" points="1003.23,-140.08 1012.51,-134.98 1002.07,-133.18 1003.23,-140.08"/>
</a>
</g>
</g>
<!-- Node20 -->
<g id="Node000020" class="node">
<title>Node20</title>
<g id="a_Node000020"><a xlink:href="libutil_2fmt_8hh.html" target="_top" xlink:title=" ">
<polygon fill="white" stroke="#666666" points="986.88,-134.25 892.88,-134.25 892.88,-113.5 986.88,-113.5 986.88,-134.25"/>
<text text-anchor="middle" x="939.88" y="-120.75" font-family="Helvetica,sans-Serif" font-size="10.00">lix/libutil/fmt.hh</text>
</a>
</g>
</g>
<!-- Node12&#45;&gt;Node20 -->
<g id="edge22_Node000012_Node000020" class="edge">
<title>Node12&#45;&gt;Node20</title>
<g id="a_edge22_Node000012_Node000020"><a xlink:title=" ">
<path fill="none" stroke="#63b8ff" d="M780.56,-169.84C812.32,-160.87 859.55,-147.54 894.34,-137.73"/>
<polygon fill="#63b8ff" stroke="#63b8ff" points="895.04,-141.17 903.71,-135.08 893.13,-134.43 895.04,-141.17"/>
</a>
</g>
</g>
<!-- Node24 -->
<g id="Node000024" class="node">
<title>Node24</title>
<g id="a_Node000024"><a xlink:title=" ">
<polygon fill="#e0e0e0" stroke="#999999" points="1207.38,-134.25 1158.38,-134.25 1158.38,-113.5 1207.38,-113.5 1207.38,-134.25"/>
<text text-anchor="middle" x="1182.88" y="-120.75" font-family="Helvetica,sans-Serif" font-size="10.00">cstring</text>
</a>
</g>
</g>
<!-- Node12&#45;&gt;Node24 -->
<g id="edge27_Node000012_Node000024" class="edge">
<title>Node12&#45;&gt;Node24</title>
<g id="a_edge27_Node000012_Node000024"><a xlink:title=" ">
<path fill="none" stroke="#63b8ff" d="M795.81,-172.11C800.56,-171.46 805.31,-170.83 809.88,-170.25 957.1,-151.68 998.75,-162.58 1147.24,-134.49"/>
<polygon fill="#63b8ff" stroke="#63b8ff" points="1147.47,-138.01 1156.63,-132.69 1146.15,-131.14 1147.47,-138.01"/>
</a>
</g>
</g>
<!-- Node25 -->
<g id="Node000025" class="node">
<title>Node25</title>
<g id="a_Node000025"><a xlink:title=" ">
<polygon fill="#e0e0e0" stroke="#999999" points="541.5,-134.25 484.25,-134.25 484.25,-113.5 541.5,-113.5 541.5,-134.25"/>
<text text-anchor="middle" x="512.88" y="-120.75" font-family="Helvetica,sans-Serif" font-size="10.00">memory</text>
</a>
</g>
</g>
<!-- Node12&#45;&gt;Node25 -->
<g id="edge29_Node000012_Node000025" class="edge">
<title>Node12&#45;&gt;Node25</title>
<g id="a_edge29_Node000012_Node000025"><a xlink:title=" ">
<path fill="none" stroke="#63b8ff" d="M702.22,-169.79C664.87,-161.31 609.38,-148.58 552.88,-134.95"/>
<polygon fill="#63b8ff" stroke="#63b8ff" points="553.96,-131.61 543.42,-132.66 552.31,-138.41 553.96,-131.61"/>
</a>
</g>
</g>
<!-- Node26 -->
<g id="Node000026" class="node">
<title>Node26</title>
<g id="a_Node000026"><a xlink:title=" ">
<polygon fill="#e0e0e0" stroke="#999999" points="630.62,-134.25 559.12,-134.25 559.12,-113.5 630.62,-113.5 630.62,-134.25"/>
<text text-anchor="middle" x="594.88" y="-120.75" font-family="Helvetica,sans-Serif" font-size="10.00">sys/types.h</text>
</a>
</g>
</g>
<!-- Node12&#45;&gt;Node26 -->
<g id="edge31_Node000012_Node000026" class="edge">
<title>Node12&#45;&gt;Node26</title>
<g id="a_edge31_Node000012_Node000026"><a xlink:title=" ">
<path fill="none" stroke="#63b8ff" d="M718.88,-169.84C694.8,-161.11 659.3,-148.23 632.45,-138.5"/>
<polygon fill="#63b8ff" stroke="#63b8ff" points="633.91,-135.3 623.31,-135.19 631.52,-141.89 633.91,-135.3"/>
</a>
</g>
</g>
<!-- Node27 -->
<g id="Node000027" class="node">
<title>Node27</title>
<g id="a_Node000027"><a xlink:title=" ">
<polygon fill="#e0e0e0" stroke="#999999" points="711.5,-134.25 648.25,-134.25 648.25,-113.5 711.5,-113.5 711.5,-134.25"/>
<text text-anchor="middle" x="679.88" y="-120.75" font-family="Helvetica,sans-Serif" font-size="10.00">sys/stat.h</text>
</a>
</g>
</g>
<!-- Node12&#45;&gt;Node27 -->
<g id="edge32_Node000012_Node000027" class="edge">
<title>Node12&#45;&gt;Node27</title>
<g id="a_edge32_Node000012_Node000027"><a xlink:title=" ">
<path fill="none" stroke="#63b8ff" d="M734.08,-169.84C724.69,-162.05 711.34,-150.97 700.23,-141.76"/>
<polygon fill="#63b8ff" stroke="#63b8ff" points="702.67,-139.24 692.74,-135.54 698.2,-144.62 702.67,-139.24"/>
</a>
</g>
</g>
<!-- Node28 -->
<g id="Node000028" class="node">
<title>Node28</title>
<g id="a_Node000028"><a xlink:title=" ">
<polygon fill="#e0e0e0" stroke="#999999" points="776.25,-134.25 729.5,-134.25 729.5,-113.5 776.25,-113.5 776.25,-134.25"/>
<text text-anchor="middle" x="752.88" y="-120.75" font-family="Helvetica,sans-Serif" font-size="10.00">fcntl.h</text>
</a>
</g>
</g>
<!-- Node12&#45;&gt;Node28 -->
<g id="edge33_Node000012_Node000028" class="edge">
<title>Node12&#45;&gt;Node28</title>
<g id="a_edge33_Node000012_Node000028"><a xlink:title=" ">
<path fill="none" stroke="#63b8ff" d="M747.13,-169.84C747.98,-163.14 749.15,-154.01 750.21,-145.73"/>
<polygon fill="#63b8ff" stroke="#63b8ff" points="753.65,-146.44 751.44,-136.08 746.7,-145.56 753.65,-146.44"/>
</a>
</g>
</g>
<!-- Node29 -->
<g id="Node000029" class="node">
<title>Node29</title>
<g id="a_Node000029"><a xlink:title=" ">
<polygon fill="#e0e0e0" stroke="#999999" points="875.12,-134.25 794.62,-134.25 794.62,-113.5 875.12,-113.5 875.12,-134.25"/>
<text text-anchor="middle" x="834.88" y="-120.75" font-family="Helvetica,sans-Serif" font-size="10.00">system_error</text>
</a>
</g>
</g>
<!-- Node12&#45;&gt;Node29 -->
<g id="edge34_Node000012_Node000029" class="edge">
<title>Node12&#45;&gt;Node29</title>
<g id="a_edge34_Node000012_Node000029"><a xlink:title=" ">
<path fill="none" stroke="#63b8ff" d="M761.79,-169.84C775.08,-161.66 794.26,-149.86 809.64,-140.4"/>
<polygon fill="#63b8ff" stroke="#63b8ff" points="811.13,-143.59 817.81,-135.37 807.46,-137.63 811.13,-143.59"/>
</a>
</g>
</g>
<!-- Node14 -->
<g id="Node000014" class="node">
<title>Node14</title>
<g id="a_Node000014"><a xlink:title=" ">
<polygon fill="#e0e0e0" stroke="#999999" points="1387.62,-77.5 1256.12,-77.5 1256.12,-56.75 1387.62,-56.75 1387.62,-77.5"/>
<text text-anchor="middle" x="1321.88" y="-64" font-family="Helvetica,sans-Serif" font-size="10.00">nlohmann/json_fwd.hpp</text>
</a>
</g>
</g>
<!-- Node13&#45;&gt;Node14 -->
<g id="edge13_Node000013_Node000014" class="edge">
<title>Node13&#45;&gt;Node14</title>
<g id="a_edge13_Node000013_Node000014"><a xlink:title=" ">
<path fill="none" stroke="#63b8ff" d="M1322.7,-113.09C1322.58,-106.47 1322.41,-97.47 1322.26,-89.27"/>
<polygon fill="#63b8ff" stroke="#63b8ff" points="1325.76,-89.28 1322.08,-79.34 1318.76,-89.4 1325.76,-89.28"/>
</a>
</g>
</g>
<!-- Node13&#45;&gt;Node15 -->
<g id="edge14_Node000013_Node000015" class="edge">
<title>Node13&#45;&gt;Node15</title>
<g id="a_edge14_Node000013_Node000015"><a xlink:title=" ">
<path fill="none" stroke="#63b8ff" d="M1343.79,-113.09C1361.84,-104.64 1388.18,-92.32 1408.71,-82.71"/>
<polygon fill="#63b8ff" stroke="#63b8ff" points="1410.19,-85.88 1417.77,-78.47 1407.23,-79.54 1410.19,-85.88"/>
</a>
</g>
</g>
<!-- Node16&#45;&gt;Node5 -->
<g id="edge18_Node000016_Node000005" class="edge">
<title>Node16&#45;&gt;Node5</title>
<g id="a_edge18_Node000016_Node000005"><a xlink:title=" ">
<path fill="none" stroke="#63b8ff" d="M1100.22,-113.04C1123.48,-104.66 1158.04,-92.16 1196.59,-77.95"/>
<polygon fill="#63b8ff" stroke="#63b8ff" points="1197.42,-81.37 1205.59,-74.63 1195,-74.8 1197.42,-81.37"/>
</a>
</g>
</g>
<!-- Node16&#45;&gt;Node6 -->
<g id="edge20_Node000016_Node000006" class="edge">
<title>Node16&#45;&gt;Node6</title>
<g id="a_edge20_Node000016_Node000006"><a xlink:title=" ">
<path fill="none" stroke="#63b8ff" d="M1004.88,-114.09C933.16,-104.62 823.72,-89.56 766.23,-77.69"/>
<polygon fill="#63b8ff" stroke="#63b8ff" points="767.11,-74.3 756.6,-75.6 765.63,-81.14 767.11,-74.3"/>
</a>
</g>
</g>
<!-- Node16&#45;&gt;Node7 -->
<g id="edge19_Node000016_Node000007" class="edge">
<title>Node16&#45;&gt;Node7</title>
<g id="a_edge19_Node000016_Node000007"><a xlink:title=" ">
<path fill="none" stroke="#63b8ff" d="M1004.81,-114.59C911.15,-103.18 749.66,-83.49 704.55,-77.55"/>
<polygon fill="#63b8ff" stroke="#63b8ff" points="705.06,-74.08 694.67,-76.17 704.1,-81.02 705.06,-74.08"/>
</a>
</g>
</g>
<!-- Node17 -->
<g id="Node000017" class="node">
<title>Node17</title>
<g id="a_Node000017"><a xlink:href="comparator_8hh.html" target="_top" xlink:title=" ">
<polygon fill="white" stroke="#666666" points="1189,-77.5 1056.75,-77.5 1056.75,-56.75 1189,-56.75 1189,-77.5"/>
<text text-anchor="middle" x="1122.88" y="-64" font-family="Helvetica,sans-Serif" font-size="10.00">lix/libutil/comparator.hh</text>
</a>
</g>
</g>
<!-- Node16&#45;&gt;Node17 -->
<g id="edge16_Node000016_Node000017" class="edge">
<title>Node16&#45;&gt;Node17</title>
<g id="a_edge16_Node000016_Node000017"><a xlink:title=" ">
<path fill="none" stroke="#63b8ff" d="M1081.81,-113.09C1088.64,-105.61 1098.24,-95.11 1106.43,-86.13"/>
<polygon fill="#63b8ff" stroke="#63b8ff" points="1108.83,-88.69 1112.99,-78.95 1103.66,-83.97 1108.83,-88.69"/>
</a>
</g>
</g>
<!-- Node19 -->
<g id="Node000019" class="node">
<title>Node19</title>
<g id="a_Node000019"><a xlink:title=" ">
<polygon fill="#e0e0e0" stroke="#999999" points="1039.12,-77.5 988.62,-77.5 988.62,-56.75 1039.12,-56.75 1039.12,-77.5"/>
<text text-anchor="middle" x="1013.88" y="-64" font-family="Helvetica,sans-Serif" font-size="10.00">variant</text>
</a>
</g>
</g>
<!-- Node16&#45;&gt;Node19 -->
<g id="edge21_Node000016_Node000019" class="edge">
<title>Node16&#45;&gt;Node19</title>
<g id="a_edge21_Node000016_Node000019"><a xlink:title=" ">
<path fill="none" stroke="#63b8ff" d="M1062.33,-113.09C1054.1,-105.46 1042.48,-94.67 1032.67,-85.57"/>
<polygon fill="#63b8ff" stroke="#63b8ff" points="1035.15,-83.09 1025.44,-78.86 1030.39,-88.23 1035.15,-83.09"/>
</a>
</g>
</g>
<!-- Node18 -->
<g id="Node000018" class="node">
<title>Node18</title>
<g id="a_Node000018"><a xlink:title=" ">
<polygon fill="#e0e0e0" stroke="#999999" points="1143.25,-20.75 1102.5,-20.75 1102.5,0 1143.25,0 1143.25,-20.75"/>
<text text-anchor="middle" x="1122.88" y="-7.25" font-family="Helvetica,sans-Serif" font-size="10.00">tuple</text>
</a>
</g>
</g>
<!-- Node17&#45;&gt;Node18 -->
<g id="edge17_Node000017_Node000018" class="edge">
<title>Node17&#45;&gt;Node18</title>
<g id="a_edge17_Node000017_Node000018"><a xlink:title=" ">
<path fill="none" stroke="#63b8ff" d="M1122.88,-56.34C1122.88,-49.72 1122.88,-40.72 1122.88,-32.52"/>
<polygon fill="#63b8ff" stroke="#63b8ff" points="1126.38,-32.59 1122.88,-22.59 1119.38,-32.59 1126.38,-32.59"/>
</a>
</g>
</g>
<!-- Node20&#45;&gt;Node6 -->
<g id="edge24_Node000020_Node000006" class="edge">
<title>Node20&#45;&gt;Node6</title>
<g id="a_edge24_Node000020_Node000006"><a xlink:title=" ">
<path fill="none" stroke="#63b8ff" d="M899.91,-113.07C866.53,-104.77 817.43,-92.31 766.16,-78.06"/>
<polygon fill="#63b8ff" stroke="#63b8ff" points="767.22,-74.72 756.65,-75.4 765.34,-81.47 767.22,-74.72"/>
</a>
</g>
</g>
<!-- Node21 -->
<g id="Node000021" class="node">
<title>Node21</title>
<g id="a_Node000021"><a xlink:title=" ">
<polygon fill="#e0e0e0" stroke="#999999" points="970.62,-77.5 911.12,-77.5 911.12,-56.75 970.62,-56.75 970.62,-77.5"/>
<text text-anchor="middle" x="940.88" y="-64" font-family="Helvetica,sans-Serif" font-size="10.00">iostream</text>
</a>
</g>
</g>
<!-- Node20&#45;&gt;Node21 -->
<g id="edge23_Node000020_Node000021" class="edge">
<title>Node20&#45;&gt;Node21</title>
<g id="a_edge23_Node000020_Node000021"><a xlink:title=" ">
<path fill="none" stroke="#63b8ff" d="M940.05,-113.09C940.17,-106.47 940.34,-97.47 940.49,-89.27"/>
<polygon fill="#63b8ff" stroke="#63b8ff" points="943.99,-89.4 940.67,-79.34 936.99,-89.28 943.99,-89.4"/>
</a>
</g>
</g>
<!-- Node22 -->
<g id="Node000022" class="node">
<title>Node22</title>
<g id="a_Node000022"><a xlink:title=" ">
<polygon fill="#e0e0e0" stroke="#999999" points="602.88,-77.5 502.88,-77.5 502.88,-56.75 602.88,-56.75 602.88,-77.5"/>
<text text-anchor="middle" x="552.88" y="-64" font-family="Helvetica,sans-Serif" font-size="10.00">boost/format.hpp</text>
</a>
</g>
</g>
<!-- Node20&#45;&gt;Node22 -->
<g id="edge25_Node000020_Node000022" class="edge">
<title>Node20&#45;&gt;Node22</title>
<g id="a_edge25_Node000020_Node000022"><a xlink:title=" ">
<path fill="none" stroke="#63b8ff" d="M892.54,-114.83C889.61,-114.37 886.7,-113.92 883.88,-113.5 766.81,-95.96 734.42,-95.11 614.2,-77.8"/>
<polygon fill="#63b8ff" stroke="#63b8ff" points="614.97,-74.38 604.57,-76.41 613.97,-81.31 614.97,-74.38"/>
</a>
</g>
</g>
<!-- Node23 -->
<g id="Node000023" class="node">
<title>Node23</title>
<g id="a_Node000023"><a xlink:href="ansicolor_8hh.html" target="_top" xlink:title="Some ANSI escape sequences.">
<polygon fill="white" stroke="#666666" points="893,-77.5 772.75,-77.5 772.75,-56.75 893,-56.75 893,-77.5"/>
<text text-anchor="middle" x="832.88" y="-64" font-family="Helvetica,sans-Serif" font-size="10.00">lix/libutil/ansicolor.hh</text>
</a>
</g>
</g>
<!-- Node20&#45;&gt;Node23 -->
<g id="edge26_Node000020_Node000023" class="edge">
<title>Node20&#45;&gt;Node23</title>
<g id="a_edge26_Node000020_Node000023"><a xlink:title=" ">
<path fill="none" stroke="#63b8ff" d="M920.75,-113.09C904.39,-104.72 880.6,-92.54 861.9,-82.97"/>
<polygon fill="#63b8ff" stroke="#63b8ff" points="863.68,-79.96 853.19,-78.52 860.49,-86.19 863.68,-79.96"/>
</a>
</g>
</g>
<!-- Node30&#45;&gt;Node2 -->
<g id="edge41_Node000030_Node000002" class="edge">
<title>Node30&#45;&gt;Node2</title>
<g id="a_edge41_Node000030_Node000002"><a xlink:title=" ">
<path fill="none" stroke="#63b8ff" d="M686.47,-296.03C657.91,-287.38 615.85,-274.09 579.88,-260.5 526.01,-240.15 464.87,-212.74 428.93,-196.17"/>
<polygon fill="#63b8ff" stroke="#63b8ff" points="430.55,-193.06 420,-192.03 427.6,-199.41 430.55,-193.06"/>
</a>
</g>
</g>
<!-- Node30&#45;&gt;Node5 -->
<g id="edge39_Node000030_Node000005" class="edge">
<title>Node30&#45;&gt;Node5</title>
<g id="a_edge39_Node000030_Node000005"><a xlink:title=" ">
<path fill="none" stroke="#63b8ff" d="M773.12,-297.67C776.41,-297.25 779.69,-296.86 782.88,-296.5 927.44,-280.39 1348.82,-312.45 1428.88,-191 1448.97,-160.51 1401.23,-120.78 1390.88,-113.5 1339.76,-77.55 1312.67,-95.39 1249.65,-77.93"/>
<polygon fill="#63b8ff" stroke="#63b8ff" points="1250.82,-74.62 1240.23,-75.1 1248.8,-81.33 1250.82,-74.62"/>
</a>
</g>
</g>
<!-- Node30&#45;&gt;Node8 -->
<g id="edge38_Node000030_Node000008" class="edge">
<title>Node30&#45;&gt;Node8</title>
<g id="a_edge38_Node000030_Node000008"><a xlink:title=" ">
<path fill="none" stroke="#63b8ff" d="M666.43,-296.32C620.67,-287.85 553.15,-274.66 494.88,-260.5 324.86,-219.2 124.18,-157.8 49.16,-134.4"/>
<polygon fill="#63b8ff" stroke="#63b8ff" points="50.26,-131.08 39.67,-131.43 48.17,-137.76 50.26,-131.08"/>
</a>
</g>
</g>
<!-- Node30&#45;&gt;Node13 -->
<g id="edge40_Node000030_Node000013" class="edge">
<title>Node30&#45;&gt;Node13</title>
<g id="a_edge40_Node000030_Node000013"><a xlink:title=" ">
<path fill="none" stroke="#63b8ff" d="M735.63,-296.06C749.94,-287.04 771.54,-273.2 789.88,-260.5 845.31,-222.08 849.03,-194.73 911.88,-170.25 1052.64,-115.41 1099.83,-151.87 1249.88,-134.25 1250.71,-134.15 1251.55,-134.05 1252.39,-133.95"/>
<polygon fill="#63b8ff" stroke="#63b8ff" points="1252.52,-137.46 1262.02,-132.79 1251.68,-130.51 1252.52,-137.46"/>
</a>
</g>
</g>
<!-- Node31 -->
<g id="Node000031" class="node">
<title>Node31</title>
<g id="a_Node000031"><a xlink:title=" ">
<polygon fill="#e0e0e0" stroke="#999999" points="640.5,-254.12 589.25,-254.12 589.25,-233.38 640.5,-233.38 640.5,-254.12"/>
<text text-anchor="middle" x="614.88" y="-240.62" font-family="Helvetica,sans-Serif" font-size="10.00">cassert</text>
</a>
</g>
</g>
<!-- Node30&#45;&gt;Node31 -->
<g id="edge37_Node000030_Node000031" class="edge">
<title>Node30&#45;&gt;Node31</title>
<g id="a_edge37_Node000030_Node000031"><a xlink:title=" ">
<path fill="none" stroke="#63b8ff" d="M703,-296.05C686.4,-286.39 660.78,-271.47 641.44,-260.21"/>
<polygon fill="#63b8ff" stroke="#63b8ff" points="643.41,-257.31 633.01,-255.31 639.89,-263.36 643.41,-257.31"/>
</a>
</g>
</g>
<!-- Node32 -->
<g id="Node000032" class="node">
<title>Node32</title>
<g id="a_Node000032"><a xlink:href="experimental-features_8hh.html" target="_top" xlink:title=" ">
<polygon fill="white" stroke="#666666" points="973.38,-260.5 846.38,-260.5 846.38,-227 973.38,-227 973.38,-260.5"/>
<text text-anchor="start" x="854.38" y="-247" font-family="Helvetica,sans-Serif" font-size="10.00">lix/libutil/experimental</text>
<text text-anchor="middle" x="909.88" y="-234.25" font-family="Helvetica,sans-Serif" font-size="10.00">&#45;features.hh</text>
</a>
</g>
</g>
<!-- Node30&#45;&gt;Node32 -->
<g id="edge42_Node000030_Node000032" class="edge">
<title>Node30&#45;&gt;Node32</title>
<g id="a_edge42_Node000030_Node000032"><a xlink:title=" ">
<path fill="none" stroke="#63b8ff" d="M750.4,-296.05C776.79,-287.56 815.75,-275.03 848.55,-264.48"/>
<polygon fill="#63b8ff" stroke="#63b8ff" points="849.52,-267.84 857.97,-261.45 847.38,-261.18 849.52,-267.84"/>
</a>
</g>
</g>
<!-- Node34 -->
<g id="Node000034" class="node">
<title>Node34</title>
<g id="a_Node000034"><a xlink:href="deprecated-features_8hh.html" target="_top" xlink:title=" ">
<polygon fill="white" stroke="#666666" points="1258.12,-260.5 1141.62,-260.5 1141.62,-227 1258.12,-227 1258.12,-260.5"/>
<text text-anchor="start" x="1149.62" y="-247" font-family="Helvetica,sans-Serif" font-size="10.00">lix/libutil/deprecated</text>
<text text-anchor="middle" x="1199.88" y="-234.25" font-family="Helvetica,sans-Serif" font-size="10.00">&#45;features.hh</text>
</a>
</g>
</g>
<!-- Node30&#45;&gt;Node34 -->
<g id="edge48_Node000030_Node000034" class="edge">
<title>Node30&#45;&gt;Node34</title>
<g id="a_edge48_Node000030_Node000034"><a xlink:title=" ">
<path fill="none" stroke="#63b8ff" d="M773.13,-297.78C776.42,-297.33 779.69,-296.9 782.88,-296.5 934.39,-277.44 976.7,-286.02 1129.91,-260.88"/>
<polygon fill="#63b8ff" stroke="#63b8ff" points="1130.35,-264.35 1139.64,-259.26 1129.2,-257.45 1130.35,-264.35"/>
</a>
</g>
</g>
<!-- Node36 -->
<g id="Node000036" class="node">
<title>Node36</title>
<g id="a_Node000036"><a xlink:href="apply-config-options_8hh.html" target="_top" xlink:title="Options for applying Config settings.">
<polygon fill="white" stroke="#666666" points="780.75,-260.5 659,-260.5 659,-227 780.75,-227 780.75,-260.5"/>
<text text-anchor="start" x="667" y="-247" font-family="Helvetica,sans-Serif" font-size="10.00">lix/libutil/apply&#45;config</text>
<text text-anchor="middle" x="719.88" y="-234.25" font-family="Helvetica,sans-Serif" font-size="10.00">&#45;options.hh</text>
</a>
</g>
</g>
<!-- Node30&#45;&gt;Node36 -->
<g id="edge54_Node000030_Node000036" class="edge">
<title>Node30&#45;&gt;Node36</title>
<g id="a_edge54_Node000030_Node000036"><a xlink:title=" ">
<path fill="none" stroke="#63b8ff" d="M719.88,-296.05C719.88,-289.63 719.88,-280.9 719.88,-272.45"/>
<polygon fill="#63b8ff" stroke="#63b8ff" points="723.38,-272.5 719.88,-262.5 716.38,-272.5 723.38,-272.5"/>
</a>
</g>
</g>
<!-- Node37 -->
<g id="Node000037" class="node">
<title>Node37</title>
<g id="a_Node000037"><a xlink:title=" ">
<polygon fill="#e0e0e0" stroke="#999999" points="1124,-254.12 991.75,-254.12 991.75,-233.38 1124,-233.38 1124,-254.12"/>
<text text-anchor="middle" x="1057.88" y="-240.62" font-family="Helvetica,sans-Serif" font-size="10.00">feature&#45;settings.gen.inc</text>
</a>
</g>
</g>
<!-- Node30&#45;&gt;Node37 -->
<g id="edge56_Node000030_Node000037" class="edge">
<title>Node30&#45;&gt;Node37</title>
<g id="a_edge56_Node000030_Node000037"><a xlink:title=" ">
<path fill="none" stroke="#63b8ff" d="M773.37,-297.23C826.58,-288.49 910.51,-274.34 982.88,-260.5 988.84,-259.36 995.06,-258.13 1001.25,-256.87"/>
<polygon fill="#63b8ff" stroke="#63b8ff" points="1001.74,-260.34 1010.83,-254.9 1000.33,-253.48 1001.74,-260.34"/>
</a>
</g>
</g>
<!-- Node32&#45;&gt;Node2 -->
<g id="edge45_Node000032_Node000002" class="edge">
<title>Node32&#45;&gt;Node2</title>
<g id="a_edge45_Node000032_Node000002"><a xlink:title=" ">
<path fill="none" stroke="#63b8ff" d="M846.06,-234.19C827.91,-231.81 808.12,-229.25 789.88,-227 674.03,-212.69 538.76,-197.33 461.23,-188.66"/>
<polygon fill="#63b8ff" stroke="#63b8ff" points="462.05,-185.23 451.72,-187.59 461.27,-192.18 462.05,-185.23"/>
</a>
</g>
</g>
<!-- Node32&#45;&gt;Node12 -->
<g id="edge43_Node000032_Node000012" class="edge">
<title>Node32&#45;&gt;Node12</title>
<g id="a_edge43_Node000032_Node000012"><a xlink:title=" ">
<path fill="none" stroke="#63b8ff" d="M866.36,-226.53C840.35,-216.84 807.67,-204.66 782.91,-195.43"/>
<polygon fill="#63b8ff" stroke="#63b8ff" points="784.15,-192.16 773.56,-191.94 781.71,-198.72 784.15,-192.16"/>
</a>
</g>
</g>
<!-- Node32&#45;&gt;Node13 -->
<g id="edge44_Node000032_Node000013" class="edge">
<title>Node32&#45;&gt;Node13</title>
<g id="a_edge44_Node000032_Node000013"><a xlink:title=" ">
<path fill="none" stroke="#63b8ff" d="M909.22,-226.8C909.48,-210.04 912.73,-184.21 928.88,-170.25 983.17,-123.29 1178.61,-142.82 1249.88,-134.25 1250.71,-134.15 1251.55,-134.05 1252.39,-133.95"/>
<polygon fill="#63b8ff" stroke="#63b8ff" points="1252.52,-137.46 1262.02,-132.76 1251.67,-130.51 1252.52,-137.46"/>
</a>
</g>
</g>
<!-- Node32&#45;&gt;Node15 -->
<g id="edge46_Node000032_Node000015" class="edge">
<title>Node32&#45;&gt;Node15</title>
<g id="a_edge46_Node000032_Node000015"><a xlink:title=" ">
<path fill="none" stroke="#63b8ff" d="M973.83,-228.93C1102.68,-201 1382.06,-140 1390.88,-134.25 1408.41,-122.83 1421.92,-102.83 1430.27,-87.81"/>
<polygon fill="#63b8ff" stroke="#63b8ff" points="1433.19,-89.77 1434.72,-79.29 1426.99,-86.53 1433.19,-89.77"/>
</a>
</g>
</g>
<!-- Node33 -->
<g id="Node000033" class="node">
<title>Node33</title>
<g id="a_Node000033"><a xlink:title=" ">
<polygon fill="#e0e0e0" stroke="#999999" points="1101.75,-191 938,-191 938,-170.25 1101.75,-170.25 1101.75,-191"/>
<text text-anchor="middle" x="1019.88" y="-177.5" font-family="Helvetica,sans-Serif" font-size="10.00">experimental&#45;features.gen.inc</text>
</a>
</g>
</g>
<!-- Node32&#45;&gt;Node33 -->
<g id="edge47_Node000032_Node000033" class="edge">
<title>Node32&#45;&gt;Node33</title>
<g id="a_edge47_Node000032_Node000033"><a xlink:title=" ">
<path fill="none" stroke="#63b8ff" d="M939.06,-226.53C955.56,-217.36 976.07,-205.97 992.3,-196.95"/>
<polygon fill="#63b8ff" stroke="#63b8ff" points="993.89,-200.07 1000.93,-192.15 990.49,-193.95 993.89,-200.07"/>
</a>
</g>
</g>
<!-- Node34&#45;&gt;Node2 -->
<g id="edge51_Node000034_Node000002" class="edge">
<title>Node34&#45;&gt;Node2</title>
<g id="a_edge51_Node000034_Node000002"><a xlink:title=" ">
<path fill="none" stroke="#63b8ff" d="M1141.16,-228.35C1138.37,-227.86 1135.59,-227.4 1132.88,-227 1004.01,-208.01 614.59,-190.5 461.07,-184.15"/>
<polygon fill="#63b8ff" stroke="#63b8ff" points="461.64,-180.67 451.51,-183.76 461.36,-187.66 461.64,-180.67"/>
</a>
</g>
</g>
<!-- Node34&#45;&gt;Node12 -->
<g id="edge49_Node000034_Node000012" class="edge">
<title>Node34&#45;&gt;Node12</title>
<g id="a_edge49_Node000034_Node000012"><a xlink:title=" ">
<path fill="none" stroke="#63b8ff" d="M1141.13,-228.54C1138.34,-227.99 1135.58,-227.48 1132.88,-227 1018.64,-206.94 883.84,-193.4 807.25,-186.64"/>
<polygon fill="#63b8ff" stroke="#63b8ff" points="807.7,-183.17 797.44,-185.79 807.09,-190.14 807.7,-183.17"/>
</a>
</g>
</g>
<!-- Node34&#45;&gt;Node13 -->
<g id="edge50_Node000034_Node000013" class="edge">
<title>Node34&#45;&gt;Node13</title>
<g id="a_edge50_Node000034_Node000013"><a xlink:title=" ">
<path fill="none" stroke="#63b8ff" d="M1210.43,-226.62C1221.04,-211.12 1238.42,-187.56 1256.88,-170.25 1268.8,-159.07 1283.69,-148.58 1296.31,-140.52"/>
<polygon fill="#63b8ff" stroke="#63b8ff" points="1297.91,-143.65 1304.56,-135.4 1294.21,-137.7 1297.91,-143.65"/>
</a>
</g>
</g>
<!-- Node34&#45;&gt;Node15 -->
<g id="edge52_Node000034_Node000015" class="edge">
<title>Node34&#45;&gt;Node15</title>
<g id="a_edge52_Node000034_Node000015"><a xlink:title=" ">
<path fill="none" stroke="#63b8ff" d="M1258.54,-237.28C1318.8,-230.36 1406.83,-216.19 1428.88,-191 1453.47,-162.89 1449.66,-116.06 1444.73,-89.06"/>
<polygon fill="#63b8ff" stroke="#63b8ff" points="1448.18,-88.44 1442.72,-79.36 1441.33,-89.86 1448.18,-88.44"/>
</a>
</g>
</g>
<!-- Node35 -->
<g id="Node000035" class="node">
<title>Node35</title>
<g id="a_Node000035"><a xlink:title=" ">
<polygon fill="#e0e0e0" stroke="#999999" points="1419.5,-191 1266.25,-191 1266.25,-170.25 1419.5,-170.25 1419.5,-191"/>
<text text-anchor="middle" x="1342.88" y="-177.5" font-family="Helvetica,sans-Serif" font-size="10.00">deprecated&#45;features.gen.inc</text>
</a>
</g>
</g>
<!-- Node34&#45;&gt;Node35 -->
<g id="edge53_Node000034_Node000035" class="edge">
<title>Node34&#45;&gt;Node35</title>
<g id="a_edge53_Node000034_Node000035"><a xlink:title=" ">
<path fill="none" stroke="#63b8ff" d="M1237.82,-226.53C1260.09,-217.01 1287.97,-205.1 1309.41,-195.93"/>
<polygon fill="#63b8ff" stroke="#63b8ff" points="1310.76,-199.16 1318.58,-192.01 1308.01,-192.72 1310.76,-199.16"/>
</a>
</g>
</g>
<!-- Node36&#45;&gt;Node2 -->
<g id="edge55_Node000036_Node000002" class="edge">
<title>Node36&#45;&gt;Node2</title>
<g id="a_edge55_Node000036_Node000002"><a xlink:title=" ">
<path fill="none" stroke="#63b8ff" d="M658.82,-228.85C655.8,-228.21 652.81,-227.59 649.88,-227 585.88,-214.04 512.35,-201.02 461.31,-192.27"/>
<polygon fill="#63b8ff" stroke="#63b8ff" points="462.06,-188.84 451.62,-190.61 460.88,-195.74 462.06,-188.84"/>
</a>
</g>
</g>
</g>
</svg>
