<?xml version="1.0" encoding="UTF-8" standalone="no"?>
<!DOCTYPE svg PUBLIC "-//W3C//DTD SVG 1.1//EN"
 "http://www.w3.org/Graphics/SVG/1.1/DTD/svg11.dtd">
<!-- Generated by graphviz version 12.2.1 (0)
 -->
<!-- Title: lix/libstore/machines.hh Pages: 1 -->
<svg width="826pt" height="155pt"
 viewBox="0.00 0.00 826.38 155.00" xmlns="http://www.w3.org/2000/svg" xmlns:xlink="http://www.w3.org/1999/xlink">
<g id="graph0" class="graph" transform="scale(1 1) rotate(0) translate(4 151)">
<title>lix/libstore/machines.hh</title>
<!-- Node1 -->
<g id="Node000001" class="node">
<title>Node1</title>
<g id="a_Node000001"><a xlink:title=" ">
<polygon fill="#999999" stroke="#666666" points="573.88,-147 440.88,-147 440.88,-126.25 573.88,-126.25 573.88,-147"/>
<text text-anchor="middle" x="507.38" y="-133.5" font-family="Helvetica,sans-Serif" font-size="10.00">lix/libstore/machines.hh</text>
</a>
</g>
</g>
<!-- Node2 -->
<g id="Node000002" class="node">
<title>Node2</title>
<g id="a_Node000002"><a xlink:href="ref_8hh.html" target="_top" xlink:title=" ">
<polygon fill="white" stroke="#666666" points="229.12,-90.25 139.62,-90.25 139.62,-69.5 229.12,-69.5 229.12,-90.25"/>
<text text-anchor="middle" x="184.38" y="-76.75" font-family="Helvetica,sans-Serif" font-size="10.00">lix/libutil/ref.hh</text>
</a>
</g>
</g>
<!-- Node1&#45;&gt;Node2 -->
<g id="edge1_Node000001_Node000002" class="edge">
<title>Node1&#45;&gt;Node2</title>
<g id="a_edge1_Node000001_Node000002"><a xlink:title=" ">
<path fill="none" stroke="#63b8ff" d="M449.26,-125.77C390.17,-115.76 299.23,-100.34 240.78,-90.44"/>
<polygon fill="#63b8ff" stroke="#63b8ff" points="241.47,-87 231.03,-88.78 240.3,-93.9 241.47,-87"/>
</a>
</g>
</g>
<!-- Node7 -->
<g id="Node000007" class="node">
<title>Node7</title>
<g id="a_Node000007"><a xlink:href="result_8hh.html" target="_top" xlink:title=" ">
<polygon fill="white" stroke="#666666" points="456.62,-90.25 352.12,-90.25 352.12,-69.5 456.62,-69.5 456.62,-90.25"/>
<text text-anchor="middle" x="404.38" y="-76.75" font-family="Helvetica,sans-Serif" font-size="10.00">lix/libutil/result.hh</text>
</a>
</g>
</g>
<!-- Node1&#45;&gt;Node7 -->
<g id="edge6_Node000001_Node000007" class="edge">
<title>Node1&#45;&gt;Node7</title>
<g id="a_edge6_Node000001_Node000007"><a xlink:title=" ">
<path fill="none" stroke="#63b8ff" d="M488.96,-125.84C473.29,-117.51 450.53,-105.41 432.56,-95.86"/>
<polygon fill="#63b8ff" stroke="#63b8ff" points="434.44,-92.89 423.97,-91.29 431.15,-99.07 434.44,-92.89"/>
</a>
</g>
</g>
<!-- Node11 -->
<g id="Node000011" class="node">
<title>Node11</title>
<g id="a_Node000011"><a xlink:title=" ">
<polygon fill="#e0e0e0" stroke="#999999" points="540.12,-90.25 474.62,-90.25 474.62,-69.5 540.12,-69.5 540.12,-90.25"/>
<text text-anchor="middle" x="507.38" y="-76.75" font-family="Helvetica,sans-Serif" font-size="10.00">kj/async.h</text>
</a>
</g>
</g>
<!-- Node1&#45;&gt;Node11 -->
<g id="edge11_Node000001_Node000011" class="edge">
<title>Node1&#45;&gt;Node11</title>
<g id="a_edge11_Node000001_Node000011"><a xlink:title=" ">
<path fill="none" stroke="#63b8ff" d="M507.38,-125.84C507.38,-119.22 507.38,-110.22 507.38,-102.02"/>
<polygon fill="#63b8ff" stroke="#63b8ff" points="510.88,-102.09 507.38,-92.09 503.88,-102.09 510.88,-102.09"/>
</a>
</g>
</g>
<!-- Node12 -->
<g id="Node000012" class="node">
<title>Node12</title>
<g id="a_Node000012"><a xlink:title=" ">
<polygon fill="#e0e0e0" stroke="#999999" points="588.88,-90.25 557.88,-90.25 557.88,-69.5 588.88,-69.5 588.88,-90.25"/>
<text text-anchor="middle" x="573.38" y="-76.75" font-family="Helvetica,sans-Serif" font-size="10.00">set</text>
</a>
</g>
</g>
<!-- Node1&#45;&gt;Node12 -->
<g id="edge12_Node000001_Node000012" class="edge">
<title>Node1&#45;&gt;Node12</title>
<g id="a_edge12_Node000001_Node000012"><a xlink:title=" ">
<path fill="none" stroke="#63b8ff" d="M519.17,-125.84C528.56,-118.05 541.91,-106.97 553.02,-97.76"/>
<polygon fill="#63b8ff" stroke="#63b8ff" points="555.05,-100.62 560.51,-91.54 550.58,-95.24 555.05,-100.62"/>
</a>
</g>
</g>
<!-- Node13 -->
<g id="Node000013" class="node">
<title>Node13</title>
<g id="a_Node000013"><a xlink:title=" ">
<polygon fill="#e0e0e0" stroke="#999999" points="653.75,-90.25 607,-90.25 607,-69.5 653.75,-69.5 653.75,-90.25"/>
<text text-anchor="middle" x="630.38" y="-76.75" font-family="Helvetica,sans-Serif" font-size="10.00">vector</text>
</a>
</g>
</g>
<!-- Node1&#45;&gt;Node13 -->
<g id="edge13_Node000001_Node000013" class="edge">
<title>Node1&#45;&gt;Node13</title>
<g id="a_edge13_Node000001_Node000013"><a xlink:title=" ">
<path fill="none" stroke="#63b8ff" d="M529.36,-125.84C548.52,-117.31 576.54,-104.84 598.21,-95.19"/>
<polygon fill="#63b8ff" stroke="#63b8ff" points="599.48,-98.46 607.19,-91.19 596.63,-92.06 599.48,-98.46"/>
</a>
</g>
</g>
<!-- Node3 -->
<g id="Node000003" class="node">
<title>Node3</title>
<g id="a_Node000003"><a xlink:title=" ">
<polygon fill="#e0e0e0" stroke="#999999" points="58.75,-27.12 0,-27.12 0,-6.38 58.75,-6.38 58.75,-27.12"/>
<text text-anchor="middle" x="29.38" y="-13.62" font-family="Helvetica,sans-Serif" font-size="10.00">compare</text>
</a>
</g>
</g>
<!-- Node2&#45;&gt;Node3 -->
<g id="edge2_Node000002_Node000003" class="edge">
<title>Node2&#45;&gt;Node3</title>
<g id="a_edge2_Node000002_Node000003"><a xlink:title=" ">
<path fill="none" stroke="#63b8ff" d="M158.75,-69.13C135,-60.05 98.72,-46.07 67.38,-33.5 66.03,-32.96 64.67,-32.41 63.28,-31.85"/>
<polygon fill="#63b8ff" stroke="#63b8ff" points="64.63,-28.62 54.05,-28.07 61.98,-35.1 64.63,-28.62"/>
</a>
</g>
</g>
<!-- Node4 -->
<g id="Node000004" class="node">
<title>Node4</title>
<g id="a_Node000004"><a xlink:title=" ">
<polygon fill="#e0e0e0" stroke="#999999" points="134,-27.12 76.75,-27.12 76.75,-6.38 134,-6.38 134,-27.12"/>
<text text-anchor="middle" x="105.38" y="-13.62" font-family="Helvetica,sans-Serif" font-size="10.00">memory</text>
</a>
</g>
</g>
<!-- Node2&#45;&gt;Node4 -->
<g id="edge3_Node000002_Node000004" class="edge">
<title>Node2&#45;&gt;Node4</title>
<g id="a_edge3_Node000002_Node000004"><a xlink:title=" ">
<path fill="none" stroke="#63b8ff" d="M171.68,-69.05C159.59,-59.7 141.15,-45.43 126.78,-34.31"/>
<polygon fill="#63b8ff" stroke="#63b8ff" points="129.28,-31.82 119.23,-28.47 125,-37.36 129.28,-31.82"/>
</a>
</g>
</g>
<!-- Node5 -->
<g id="Node000005" class="node">
<title>Node5</title>
<g id="a_Node000005"><a xlink:title=" ">
<polygon fill="#e0e0e0" stroke="#999999" points="298.38,-27.12 234.38,-27.12 234.38,-6.38 298.38,-6.38 298.38,-27.12"/>
<text text-anchor="middle" x="266.38" y="-13.62" font-family="Helvetica,sans-Serif" font-size="10.00">exception</text>
</a>
</g>
</g>
<!-- Node2&#45;&gt;Node5 -->
<g id="edge4_Node000002_Node000005" class="edge">
<title>Node2&#45;&gt;Node5</title>
<g id="a_edge4_Node000002_Node000005"><a xlink:title=" ">
<path fill="none" stroke="#63b8ff" d="M197.55,-69.05C210.1,-59.7 229.24,-45.43 244.16,-34.31"/>
<polygon fill="#63b8ff" stroke="#63b8ff" points="246.09,-37.23 252.02,-28.45 241.91,-31.62 246.09,-37.23"/>
</a>
</g>
</g>
<!-- Node6 -->
<g id="Node000006" class="node">
<title>Node6</title>
<g id="a_Node000006"><a xlink:title=" ">
<polygon fill="#e0e0e0" stroke="#999999" points="216.38,-27.12 152.38,-27.12 152.38,-6.38 216.38,-6.38 216.38,-27.12"/>
<text text-anchor="middle" x="184.38" y="-13.62" font-family="Helvetica,sans-Serif" font-size="10.00">stdexcept</text>
</a>
</g>
</g>
<!-- Node2&#45;&gt;Node6 -->
<g id="edge5_Node000002_Node000006" class="edge">
<title>Node2&#45;&gt;Node6</title>
<g id="a_edge5_Node000002_Node000006"><a xlink:title=" ">
<path fill="none" stroke="#63b8ff" d="M184.38,-69.05C184.38,-60.9 184.38,-49.01 184.38,-38.73"/>
<polygon fill="#63b8ff" stroke="#63b8ff" points="187.88,-38.86 184.38,-28.86 180.88,-38.86 187.88,-38.86"/>
</a>
</g>
</g>
<!-- Node7&#45;&gt;Node5 -->
<g id="edge10_Node000007_Node000005" class="edge">
<title>Node7&#45;&gt;Node5</title>
<g id="a_edge10_Node000007_Node000005"><a xlink:title=" ">
<path fill="none" stroke="#63b8ff" d="M382.2,-69.05C359.67,-59.07 324.52,-43.5 298.85,-32.13"/>
<polygon fill="#63b8ff" stroke="#63b8ff" points="300.44,-29.01 289.88,-28.16 297.6,-35.41 300.44,-29.01"/>
</a>
</g>
</g>
<!-- Node8 -->
<g id="Node000008" class="node">
<title>Node8</title>
<g id="a_Node000008"><a xlink:title=" ">
<polygon fill="#e0e0e0" stroke="#999999" points="492.25,-27.12 316.5,-27.12 316.5,-6.38 492.25,-6.38 492.25,-27.12"/>
<text text-anchor="middle" x="404.38" y="-13.62" font-family="Helvetica,sans-Serif" font-size="10.00">boost/outcome/std_outcome.hpp</text>
</a>
</g>
</g>
<!-- Node7&#45;&gt;Node8 -->
<g id="edge7_Node000007_Node000008" class="edge">
<title>Node7&#45;&gt;Node8</title>
<g id="a_edge7_Node000007_Node000008"><a xlink:title=" ">
<path fill="none" stroke="#63b8ff" d="M404.38,-69.05C404.38,-60.9 404.38,-49.01 404.38,-38.73"/>
<polygon fill="#63b8ff" stroke="#63b8ff" points="407.88,-38.86 404.38,-28.86 400.88,-38.86 407.88,-38.86"/>
</a>
</g>
</g>
<!-- Node9 -->
<g id="Node000009" class="node">
<title>Node9</title>
<g id="a_Node000009"><a xlink:title=" ">
<polygon fill="#e0e0e0" stroke="#999999" points="670.75,-27.12 510,-27.12 510,-6.38 670.75,-6.38 670.75,-27.12"/>
<text text-anchor="middle" x="590.38" y="-13.62" font-family="Helvetica,sans-Serif" font-size="10.00">boost/outcome/std_result.hpp</text>
</a>
</g>
</g>
<!-- Node7&#45;&gt;Node9 -->
<g id="edge8_Node000007_Node000009" class="edge">
<title>Node7&#45;&gt;Node9</title>
<g id="a_edge8_Node000007_Node000009"><a xlink:title=" ">
<path fill="none" stroke="#63b8ff" d="M434.26,-69.05C465.58,-58.76 514.98,-42.53 549.81,-31.08"/>
<polygon fill="#63b8ff" stroke="#63b8ff" points="550.72,-34.47 559.13,-28.02 548.53,-27.82 550.72,-34.47"/>
</a>
</g>
</g>
<!-- Node10 -->
<g id="Node000010" class="node">
<title>Node10</title>
<g id="a_Node000010"><a xlink:title=" ">
<polygon fill="#e0e0e0" stroke="#999999" points="818.38,-33.5 688.38,-33.5 688.38,0 818.38,0 818.38,-33.5"/>
<text text-anchor="start" x="696.38" y="-20" font-family="Helvetica,sans-Serif" font-size="10.00">boost/outcome/success</text>
<text text-anchor="middle" x="753.38" y="-7.25" font-family="Helvetica,sans-Serif" font-size="10.00">_failure.hpp</text>
</a>
</g>
</g>
<!-- Node7&#45;&gt;Node10 -->
<g id="edge9_Node000007_Node000010" class="edge">
<title>Node7&#45;&gt;Node10</title>
<g id="a_edge9_Node000007_Node000010"><a xlink:title=" ">
<path fill="none" stroke="#63b8ff" d="M457.05,-70.48C519.93,-60.41 622.5,-43.83 676.88,-33.9"/>
<polygon fill="#63b8ff" stroke="#63b8ff" points="677.36,-37.37 686.55,-32.1 676.08,-30.49 677.36,-37.37"/>
</a>
</g>
</g>
</g>
</svg>
