<?xml version="1.0" encoding="UTF-8" standalone="no"?>
<!DOCTYPE svg PUBLIC "-//W3C//DTD SVG 1.1//EN"
 "http://www.w3.org/Graphics/SVG/1.1/DTD/svg11.dtd">
<!-- Generated by graphviz version 12.2.1 (0)
 -->
<!-- Title: lix/libutil/monitor&#45;fd.hh Pages: 1 -->
<svg width="2067pt" height="351pt"
 viewBox="0.00 0.00 2066.75 350.75" xmlns="http://www.w3.org/2000/svg" xmlns:xlink="http://www.w3.org/1999/xlink">
<g id="graph0" class="graph" transform="scale(1 1) rotate(0) translate(4 346.75)">
<title>lix/libutil/monitor&#45;fd.hh</title>
<!-- Node1 -->
<g id="Node000001" class="node">
<title>Node1</title>
<g id="a_Node000001"><a xlink:title=" ">
<polygon fill="#999999" stroke="#666666" points="838.75,-342.75 738.75,-342.75 738.75,-309.25 838.75,-309.25 838.75,-342.75"/>
<text text-anchor="start" x="746.75" y="-329.25" font-family="Helvetica,sans-Serif" font-size="10.00">lix/libutil/monitor</text>
<text text-anchor="middle" x="788.75" y="-316.5" font-family="Helvetica,sans-Serif" font-size="10.00">&#45;fd.hh</text>
</a>
</g>
</g>
<!-- Node2 -->
<g id="Node000002" class="node">
<title>Node2</title>
<g id="a_Node000002"><a xlink:title=" ">
<polygon fill="#e0e0e0" stroke="#999999" points="622.5,-266.88 575,-266.88 575,-246.12 622.5,-246.12 622.5,-266.88"/>
<text text-anchor="middle" x="598.75" y="-253.38" font-family="Helvetica,sans-Serif" font-size="10.00">thread</text>
</a>
</g>
</g>
<!-- Node1&#45;&gt;Node2 -->
<g id="edge1_Node000001_Node000002" class="edge">
<title>Node1&#45;&gt;Node2</title>
<g id="a_edge1_Node000001_Node000002"><a xlink:title=" ">
<path fill="none" stroke="#63b8ff" d="M738.48,-308.79C708.73,-298.98 670.4,-285.94 636.75,-273.25 635.2,-272.67 633.63,-272.06 632.04,-271.44"/>
<polygon fill="#63b8ff" stroke="#63b8ff" points="633.55,-268.28 622.97,-267.8 630.94,-274.77 633.55,-268.28"/>
</a>
</g>
</g>
<!-- Node3 -->
<g id="Node000003" class="node">
<title>Node3</title>
<g id="a_Node000003"><a xlink:title=" ">
<polygon fill="#e0e0e0" stroke="#999999" points="828.62,-203.75 778.88,-203.75 778.88,-183 828.62,-183 828.62,-203.75"/>
<text text-anchor="middle" x="803.75" y="-190.25" font-family="Helvetica,sans-Serif" font-size="10.00">atomic</text>
</a>
</g>
</g>
<!-- Node1&#45;&gt;Node3 -->
<g id="edge2_Node000001_Node000003" class="edge">
<title>Node1&#45;&gt;Node3</title>
<g id="a_edge2_Node000001_Node000003"><a xlink:title=" ">
<path fill="none" stroke="#63b8ff" d="M790.59,-308.98C793.29,-285.45 798.34,-241.49 801.34,-215.39"/>
<polygon fill="#63b8ff" stroke="#63b8ff" points="804.79,-216.02 802.45,-205.68 797.83,-215.22 804.79,-216.02"/>
</a>
</g>
</g>
<!-- Node4 -->
<g id="Node000004" class="node">
<title>Node4</title>
<g id="a_Node000004"><a xlink:title=" ">
<polygon fill="#e0e0e0" stroke="#999999" points="722.25,-266.88 679.25,-266.88 679.25,-246.12 722.25,-246.12 722.25,-266.88"/>
<text text-anchor="middle" x="700.75" y="-253.38" font-family="Helvetica,sans-Serif" font-size="10.00">poll.h</text>
</a>
</g>
</g>
<!-- Node1&#45;&gt;Node4 -->
<g id="edge3_Node000001_Node000004" class="edge">
<title>Node1&#45;&gt;Node4</title>
<g id="a_edge3_Node000001_Node000004"><a xlink:title=" ">
<path fill="none" stroke="#63b8ff" d="M767.9,-309C754.18,-298.49 736.28,-284.76 722.41,-274.12"/>
<polygon fill="#63b8ff" stroke="#63b8ff" points="724.82,-271.55 714.76,-268.24 720.56,-277.11 724.82,-271.55"/>
</a>
</g>
</g>
<!-- Node5 -->
<g id="Node000005" class="node">
<title>Node5</title>
<g id="a_Node000005"><a xlink:title=" ">
<polygon fill="#e0e0e0" stroke="#999999" points="960.5,-140.62 889,-140.62 889,-119.88 960.5,-119.88 960.5,-140.62"/>
<text text-anchor="middle" x="924.75" y="-127.12" font-family="Helvetica,sans-Serif" font-size="10.00">sys/types.h</text>
</a>
</g>
</g>
<!-- Node1&#45;&gt;Node5 -->
<g id="edge4_Node000001_Node000005" class="edge">
<title>Node1&#45;&gt;Node5</title>
<g id="a_edge4_Node000001_Node000005"><a xlink:title=" ">
<path fill="none" stroke="#63b8ff" d="M780.1,-309.2C765.97,-280.99 742.13,-221.34 769.75,-183 771.49,-180.58 837.81,-159.02 883.12,-144.5"/>
<polygon fill="#63b8ff" stroke="#63b8ff" points="883.96,-147.91 892.41,-141.53 881.82,-141.24 883.96,-147.91"/>
</a>
</g>
</g>
<!-- Node6 -->
<g id="Node000006" class="node">
<title>Node6</title>
<g id="a_Node000006"><a xlink:title=" ">
<polygon fill="#e0e0e0" stroke="#999999" points="901.25,-203.75 846.25,-203.75 846.25,-183 901.25,-183 901.25,-203.75"/>
<text text-anchor="middle" x="873.75" y="-190.25" font-family="Helvetica,sans-Serif" font-size="10.00">unistd.h</text>
</a>
</g>
</g>
<!-- Node1&#45;&gt;Node6 -->
<g id="edge5_Node000001_Node000006" class="edge">
<title>Node1&#45;&gt;Node6</title>
<g id="a_edge5_Node000001_Node000006"><a xlink:title=" ">
<path fill="none" stroke="#63b8ff" d="M799.17,-308.98C814.84,-284.91 844.4,-239.49 861.21,-213.64"/>
<polygon fill="#63b8ff" stroke="#63b8ff" points="864.02,-215.74 866.54,-205.45 858.16,-211.92 864.02,-215.74"/>
</a>
</g>
</g>
<!-- Node7 -->
<g id="Node000007" class="node">
<title>Node7</title>
<g id="a_Node000007"><a xlink:href="error_8hh.html" target="_top" xlink:title="This file defines two main structs/classes used in nix error handling.">
<polygon fill="white" stroke="#666666" points="722.38,-203.75 623.12,-203.75 623.12,-183 722.38,-183 722.38,-203.75"/>
<text text-anchor="middle" x="672.75" y="-190.25" font-family="Helvetica,sans-Serif" font-size="10.00">lix/libutil/error.hh</text>
</a>
</g>
</g>
<!-- Node1&#45;&gt;Node7 -->
<g id="edge6_Node000001_Node000007" class="edge">
<title>Node1&#45;&gt;Node7</title>
<g id="a_edge6_Node000001_Node000007"><a xlink:title=" ">
<path fill="none" stroke="#63b8ff" d="M738.48,-316.26C713.63,-309.13 685.8,-296.28 670.75,-273.25 659.54,-256.09 662.12,-232.03 666.2,-215.01"/>
<polygon fill="#63b8ff" stroke="#63b8ff" points="669.53,-216.09 668.85,-205.52 662.79,-214.21 669.53,-216.09"/>
</a>
</g>
</g>
<!-- Node29 -->
<g id="Node000029" class="node">
<title>Node29</title>
<g id="a_Node000029"><a xlink:href="file-descriptor_8hh.html" target="_top" xlink:title=" ">
<polygon fill="white" stroke="#666666" points="998.5,-266.88 855,-266.88 855,-246.12 998.5,-246.12 998.5,-266.88"/>
<text text-anchor="middle" x="926.75" y="-253.38" font-family="Helvetica,sans-Serif" font-size="10.00">lix/libutil/file&#45;descriptor.hh</text>
</a>
</g>
</g>
<!-- Node1&#45;&gt;Node29 -->
<g id="edge31_Node000001_Node000029" class="edge">
<title>Node1&#45;&gt;Node29</title>
<g id="a_edge31_Node000001_Node000029"><a xlink:title=" ">
<path fill="none" stroke="#63b8ff" d="M821.8,-308.83C844.55,-297.7 874.54,-283.04 896.63,-272.23"/>
<polygon fill="#63b8ff" stroke="#63b8ff" points="897.97,-275.47 905.41,-267.94 894.89,-269.19 897.97,-275.47"/>
</a>
</g>
</g>
<!-- Node39 -->
<g id="Node000039" class="node">
<title>Node39</title>
<g id="a_Node000039"><a xlink:href="signals_8hh_source.html" target="_top" xlink:title=" ">
<polygon fill="white" stroke="#666666" points="1127.38,-266.88 1016.12,-266.88 1016.12,-246.12 1127.38,-246.12 1127.38,-266.88"/>
<text text-anchor="middle" x="1071.75" y="-253.38" font-family="Helvetica,sans-Serif" font-size="10.00">lix/libutil/signals.hh</text>
</a>
</g>
</g>
<!-- Node1&#45;&gt;Node39 -->
<g id="edge50_Node000001_Node000039" class="edge">
<title>Node1&#45;&gt;Node39</title>
<g id="a_edge50_Node000001_Node000039"><a xlink:title=" ">
<path fill="none" stroke="#63b8ff" d="M839.23,-313.21C883.64,-302.81 950.02,-287.17 1007.75,-273.25 1012.07,-272.21 1016.55,-271.12 1021.05,-270.02"/>
<polygon fill="#63b8ff" stroke="#63b8ff" points="1021.81,-273.44 1030.69,-267.66 1020.15,-266.64 1021.81,-273.44"/>
</a>
</g>
</g>
<!-- Node48 -->
<g id="Node000048" class="node">
<title>Node48</title>
<g id="a_Node000048"><a xlink:href="thread-name_8hh.html" target="_top" xlink:title=" ">
<polygon fill="white" stroke="#666666" points="1238.38,-273.25 1145.12,-273.25 1145.12,-239.75 1238.38,-239.75 1238.38,-273.25"/>
<text text-anchor="start" x="1153.12" y="-259.75" font-family="Helvetica,sans-Serif" font-size="10.00">lix/libutil/thread</text>
<text text-anchor="middle" x="1191.75" y="-247" font-family="Helvetica,sans-Serif" font-size="10.00">&#45;name.hh</text>
</a>
</g>
</g>
<!-- Node1&#45;&gt;Node48 -->
<g id="edge66_Node000001_Node000048" class="edge">
<title>Node1&#45;&gt;Node48</title>
<g id="a_edge66_Node000001_Node000048"><a xlink:title=" ">
<path fill="none" stroke="#63b8ff" d="M838.97,-319.63C904.76,-312.13 1023.84,-296.99 1133.8,-273.75"/>
<polygon fill="#63b8ff" stroke="#63b8ff" points="1134.22,-277.24 1143.27,-271.72 1132.76,-270.39 1134.22,-277.24"/>
</a>
</g>
</g>
<!-- Node7&#45;&gt;Node5 -->
<g id="edge26_Node000007_Node000005" class="edge">
<title>Node7&#45;&gt;Node5</title>
<g id="a_edge26_Node000007_Node000005"><a xlink:title=" ">
<path fill="none" stroke="#63b8ff" d="M722.01,-182.52C763.09,-174.01 823.04,-160.93 874.75,-147 877.84,-146.17 881.02,-145.27 884.22,-144.33"/>
<polygon fill="#63b8ff" stroke="#63b8ff" points="884.99,-147.76 893.55,-141.51 882.96,-141.06 884.99,-147.76"/>
</a>
</g>
</g>
<!-- Node8 -->
<g id="Node000008" class="node">
<title>Node8</title>
<g id="a_Node000008"><a xlink:href="json-fwd_8hh_source.html" target="_top" xlink:title=" ">
<polygon fill="white" stroke="#666666" points="242.75,-140.62 124.75,-140.62 124.75,-119.88 242.75,-119.88 242.75,-140.62"/>
<text text-anchor="middle" x="183.75" y="-127.12" font-family="Helvetica,sans-Serif" font-size="10.00">lix/libutil/json&#45;fwd.hh</text>
</a>
</g>
</g>
<!-- Node7&#45;&gt;Node8 -->
<g id="edge7_Node000007_Node000008" class="edge">
<title>Node7&#45;&gt;Node8</title>
<g id="a_edge7_Node000007_Node000008"><a xlink:title=" ">
<path fill="none" stroke="#63b8ff" d="M622.77,-188.08C545.84,-181.18 393.86,-166.41 265.75,-147 258.24,-145.86 250.37,-144.53 242.6,-143.13"/>
<polygon fill="#63b8ff" stroke="#63b8ff" points="243.3,-139.7 232.83,-141.32 242.02,-146.58 243.3,-139.7"/>
</a>
</g>
</g>
<!-- Node10 -->
<g id="Node000010" class="node">
<title>Node10</title>
<g id="a_Node000010"><a xlink:title=" ">
<polygon fill="#e0e0e0" stroke="#999999" points="218,-77.5 149.5,-77.5 149.5,-56.75 218,-56.75 218,-77.5"/>
<text text-anchor="middle" x="183.75" y="-64" font-family="Helvetica,sans-Serif" font-size="10.00">type_traits</text>
</a>
</g>
</g>
<!-- Node7&#45;&gt;Node10 -->
<g id="edge30_Node000007_Node000010" class="edge">
<title>Node7&#45;&gt;Node10</title>
<g id="a_edge30_Node000007_Node000010"><a xlink:title=" ">
<path fill="none" stroke="#63b8ff" d="M622.74,-193.02C550.91,-192.45 415.31,-185.67 307.75,-147 296.98,-143.13 240.39,-105.93 207.5,-84.03"/>
<polygon fill="#63b8ff" stroke="#63b8ff" points="209.65,-81.26 199.39,-78.62 205.76,-87.08 209.65,-81.26"/>
</a>
</g>
</g>
<!-- Node11 -->
<g id="Node000011" class="node">
<title>Node11</title>
<g id="a_Node000011"><a xlink:href="suggestions_8hh.html" target="_top" xlink:title=" ">
<polygon fill="white" stroke="#666666" points="564.38,-140.62 429.12,-140.62 429.12,-119.88 564.38,-119.88 564.38,-140.62"/>
<text text-anchor="middle" x="496.75" y="-127.12" font-family="Helvetica,sans-Serif" font-size="10.00">lix/libutil/suggestions.hh</text>
</a>
</g>
</g>
<!-- Node7&#45;&gt;Node11 -->
<g id="edge10_Node000007_Node000011" class="edge">
<title>Node7&#45;&gt;Node11</title>
<g id="a_edge10_Node000007_Node000011"><a xlink:title=" ">
<path fill="none" stroke="#63b8ff" d="M644.47,-182.55C614.96,-172.31 568.49,-156.17 535.56,-144.73"/>
<polygon fill="#63b8ff" stroke="#63b8ff" points="536.98,-141.52 526.39,-141.54 534.69,-148.13 536.98,-141.52"/>
</a>
</g>
</g>
<!-- Node18 -->
<g id="Node000018" class="node">
<title>Node18</title>
<g id="a_Node000018"><a xlink:href="libutil_2fmt_8hh.html" target="_top" xlink:title=" ">
<polygon fill="white" stroke="#666666" points="410.75,-140.62 316.75,-140.62 316.75,-119.88 410.75,-119.88 410.75,-140.62"/>
<text text-anchor="middle" x="363.75" y="-127.12" font-family="Helvetica,sans-Serif" font-size="10.00">lix/libutil/fmt.hh</text>
</a>
</g>
</g>
<!-- Node7&#45;&gt;Node18 -->
<g id="edge17_Node000007_Node000018" class="edge">
<title>Node7&#45;&gt;Node18</title>
<g id="a_edge17_Node000007_Node000018"><a xlink:title=" ">
<path fill="none" stroke="#63b8ff" d="M623.01,-184.91C571.79,-176.89 489.77,-163.09 419.75,-147 415.78,-146.09 411.66,-145.07 407.55,-144.01"/>
<polygon fill="#63b8ff" stroke="#63b8ff" points="408.81,-140.72 398.24,-141.5 406.99,-147.48 408.81,-140.72"/>
</a>
</g>
</g>
<!-- Node22 -->
<g id="Node000022" class="node">
<title>Node22</title>
<g id="a_Node000022"><a xlink:title=" ">
<polygon fill="#e0e0e0" stroke="#999999" points="631.25,-140.62 582.25,-140.62 582.25,-119.88 631.25,-119.88 631.25,-140.62"/>
<text text-anchor="middle" x="606.75" y="-127.12" font-family="Helvetica,sans-Serif" font-size="10.00">cstring</text>
</a>
</g>
</g>
<!-- Node7&#45;&gt;Node22 -->
<g id="edge22_Node000007_Node000022" class="edge">
<title>Node7&#45;&gt;Node22</title>
<g id="a_edge22_Node000007_Node000022"><a xlink:title=" ">
<path fill="none" stroke="#63b8ff" d="M662.15,-182.55C652.27,-173.41 637.34,-159.58 625.46,-148.58"/>
<polygon fill="#63b8ff" stroke="#63b8ff" points="627.94,-146.1 618.22,-141.87 623.18,-151.24 627.94,-146.1"/>
</a>
</g>
</g>
<!-- Node23 -->
<g id="Node000023" class="node">
<title>Node23</title>
<g id="a_Node000023"><a xlink:title=" ">
<polygon fill="#e0e0e0" stroke="#999999" points="1130.25,-77.5 1099.25,-77.5 1099.25,-56.75 1130.25,-56.75 1130.25,-77.5"/>
<text text-anchor="middle" x="1114.75" y="-64" font-family="Helvetica,sans-Serif" font-size="10.00">list</text>
</a>
</g>
</g>
<!-- Node7&#45;&gt;Node23 -->
<g id="edge23_Node000007_Node000023" class="edge">
<title>Node7&#45;&gt;Node23</title>
<g id="a_edge23_Node000007_Node000023"><a xlink:title=" ">
<path fill="none" stroke="#63b8ff" d="M711.7,-182.53C738.52,-174.89 774.46,-162.91 803.75,-147 825.04,-135.44 824.52,-123.13 846.75,-113.5 941.28,-72.54 974.69,-97.56 1075.75,-77.5 1079.69,-76.72 1083.84,-75.81 1087.91,-74.88"/>
<polygon fill="#63b8ff" stroke="#63b8ff" points="1088.49,-78.33 1097.4,-72.6 1086.86,-71.53 1088.49,-78.33"/>
</a>
</g>
</g>
<!-- Node24 -->
<g id="Node000024" class="node">
<title>Node24</title>
<g id="a_Node000024"><a xlink:title=" ">
<polygon fill="#e0e0e0" stroke="#999999" points="1116.38,-140.62 1059.12,-140.62 1059.12,-119.88 1116.38,-119.88 1116.38,-140.62"/>
<text text-anchor="middle" x="1087.75" y="-127.12" font-family="Helvetica,sans-Serif" font-size="10.00">memory</text>
</a>
</g>
</g>
<!-- Node7&#45;&gt;Node24 -->
<g id="edge24_Node000007_Node000024" class="edge">
<title>Node7&#45;&gt;Node24</title>
<g id="a_edge24_Node000007_Node000024"><a xlink:title=" ">
<path fill="none" stroke="#63b8ff" d="M722.71,-187.17C818.15,-177.12 1019.74,-155.28 1050.75,-147 1052.87,-146.43 1055.04,-145.77 1057.19,-145.03"/>
<polygon fill="#63b8ff" stroke="#63b8ff" points="1058.27,-148.37 1066.35,-141.52 1055.76,-141.84 1058.27,-148.37"/>
</a>
</g>
</g>
<!-- Node25 -->
<g id="Node000025" class="node">
<title>Node25</title>
<g id="a_Node000025"><a xlink:title=" ">
<polygon fill="#e0e0e0" stroke="#999999" points="1210.62,-77.5 1154.88,-77.5 1154.88,-56.75 1210.62,-56.75 1210.62,-77.5"/>
<text text-anchor="middle" x="1182.75" y="-64" font-family="Helvetica,sans-Serif" font-size="10.00">optional</text>
</a>
</g>
</g>
<!-- Node7&#45;&gt;Node25 -->
<g id="edge25_Node000007_Node000025" class="edge">
<title>Node7&#45;&gt;Node25</title>
<g id="a_edge25_Node000007_Node000025"><a xlink:title=" ">
<path fill="none" stroke="#63b8ff" d="M722.69,-184.65C757.01,-177.96 802.87,-166.26 839.75,-147 860.31,-136.27 858.55,-122.9 879.75,-113.5 986.39,-66.21 1024.9,-97.94 1139.75,-77.5 1140.95,-77.29 1142.17,-77.06 1143.41,-76.83"/>
<polygon fill="#63b8ff" stroke="#63b8ff" points="1143.99,-80.28 1153.11,-74.89 1142.62,-73.42 1143.99,-80.28"/>
</a>
</g>
</g>
<!-- Node26 -->
<g id="Node000026" class="node">
<title>Node26</title>
<g id="a_Node000026"><a xlink:title=" ">
<polygon fill="#e0e0e0" stroke="#999999" points="1041.38,-140.62 978.12,-140.62 978.12,-119.88 1041.38,-119.88 1041.38,-140.62"/>
<text text-anchor="middle" x="1009.75" y="-127.12" font-family="Helvetica,sans-Serif" font-size="10.00">sys/stat.h</text>
</a>
</g>
</g>
<!-- Node7&#45;&gt;Node26 -->
<g id="edge27_Node000007_Node000026" class="edge">
<title>Node7&#45;&gt;Node26</title>
<g id="a_edge27_Node000007_Node000026"><a xlink:title=" ">
<path fill="none" stroke="#63b8ff" d="M722.85,-186.1C794.93,-176.83 924.24,-159.27 969.75,-147 972.15,-146.35 974.6,-145.61 977.05,-144.8"/>
<polygon fill="#63b8ff" stroke="#63b8ff" points="977.98,-148.19 986.2,-141.49 975.6,-141.6 977.98,-148.19"/>
</a>
</g>
</g>
<!-- Node27 -->
<g id="Node000027" class="node">
<title>Node27</title>
<g id="a_Node000027"><a xlink:title=" ">
<polygon fill="#e0e0e0" stroke="#999999" points="696.12,-140.62 649.38,-140.62 649.38,-119.88 696.12,-119.88 696.12,-140.62"/>
<text text-anchor="middle" x="672.75" y="-127.12" font-family="Helvetica,sans-Serif" font-size="10.00">fcntl.h</text>
</a>
</g>
</g>
<!-- Node7&#45;&gt;Node27 -->
<g id="edge28_Node000007_Node000027" class="edge">
<title>Node7&#45;&gt;Node27</title>
<g id="a_edge28_Node000007_Node000027"><a xlink:title=" ">
<path fill="none" stroke="#63b8ff" d="M672.75,-182.55C672.75,-174.4 672.75,-162.51 672.75,-152.23"/>
<polygon fill="#63b8ff" stroke="#63b8ff" points="676.25,-152.36 672.75,-142.36 669.25,-152.36 676.25,-152.36"/>
</a>
</g>
</g>
<!-- Node28 -->
<g id="Node000028" class="node">
<title>Node28</title>
<g id="a_Node000028"><a xlink:title=" ">
<polygon fill="#e0e0e0" stroke="#999999" points="795,-140.62 714.5,-140.62 714.5,-119.88 795,-119.88 795,-140.62"/>
<text text-anchor="middle" x="754.75" y="-127.12" font-family="Helvetica,sans-Serif" font-size="10.00">system_error</text>
</a>
</g>
</g>
<!-- Node7&#45;&gt;Node28 -->
<g id="edge29_Node000007_Node000028" class="edge">
<title>Node7&#45;&gt;Node28</title>
<g id="a_edge29_Node000007_Node000028"><a xlink:title=" ">
<path fill="none" stroke="#63b8ff" d="M685.92,-182.55C698.48,-173.2 717.62,-158.93 732.53,-147.81"/>
<polygon fill="#63b8ff" stroke="#63b8ff" points="734.47,-150.73 740.39,-141.95 730.29,-145.12 734.47,-150.73"/>
</a>
</g>
</g>
<!-- Node9 -->
<g id="Node000009" class="node">
<title>Node9</title>
<g id="a_Node000009"><a xlink:title=" ">
<polygon fill="#e0e0e0" stroke="#999999" points="131.5,-77.5 0,-77.5 0,-56.75 131.5,-56.75 131.5,-77.5"/>
<text text-anchor="middle" x="65.75" y="-64" font-family="Helvetica,sans-Serif" font-size="10.00">nlohmann/json_fwd.hpp</text>
</a>
</g>
</g>
<!-- Node8&#45;&gt;Node9 -->
<g id="edge8_Node000008_Node000009" class="edge">
<title>Node8&#45;&gt;Node9</title>
<g id="a_edge8_Node000008_Node000009"><a xlink:title=" ">
<path fill="none" stroke="#63b8ff" d="M164.79,-119.43C145.87,-109.63 116.54,-94.43 94.7,-83.12"/>
<polygon fill="#63b8ff" stroke="#63b8ff" points="96.49,-80.11 86.01,-78.62 93.28,-86.33 96.49,-80.11"/>
</a>
</g>
</g>
<!-- Node8&#45;&gt;Node10 -->
<g id="edge9_Node000008_Node000010" class="edge">
<title>Node8&#45;&gt;Node10</title>
<g id="a_edge9_Node000008_Node000010"><a xlink:title=" ">
<path fill="none" stroke="#63b8ff" d="M183.75,-119.43C183.75,-111.27 183.75,-99.38 183.75,-89.1"/>
<polygon fill="#63b8ff" stroke="#63b8ff" points="187.25,-89.23 183.75,-79.23 180.25,-89.23 187.25,-89.23"/>
</a>
</g>
</g>
<!-- Node12 -->
<g id="Node000012" class="node">
<title>Node12</title>
<g id="a_Node000012"><a xlink:href="comparator_8hh.html" target="_top" xlink:title=" ">
<polygon fill="white" stroke="#666666" points="701.88,-77.5 569.62,-77.5 569.62,-56.75 701.88,-56.75 701.88,-77.5"/>
<text text-anchor="middle" x="635.75" y="-64" font-family="Helvetica,sans-Serif" font-size="10.00">lix/libutil/comparator.hh</text>
</a>
</g>
</g>
<!-- Node11&#45;&gt;Node12 -->
<g id="edge11_Node000011_Node000012" class="edge">
<title>Node11&#45;&gt;Node12</title>
<g id="a_edge11_Node000011_Node000012"><a xlink:title=" ">
<path fill="none" stroke="#63b8ff" d="M519.08,-119.43C541.78,-109.45 577.18,-93.88 603.04,-82.51"/>
<polygon fill="#63b8ff" stroke="#63b8ff" points="604.34,-85.76 612.09,-78.53 601.52,-79.35 604.34,-85.76"/>
</a>
</g>
</g>
<!-- Node14 -->
<g id="Node000014" class="node">
<title>Node14</title>
<g id="a_Node000014"><a xlink:title=" ">
<polygon fill="#e0e0e0" stroke="#999999" points="1066.25,-77.5 1035.25,-77.5 1035.25,-56.75 1066.25,-56.75 1066.25,-77.5"/>
<text text-anchor="middle" x="1050.75" y="-64" font-family="Helvetica,sans-Serif" font-size="10.00">set</text>
</a>
</g>
</g>
<!-- Node11&#45;&gt;Node14 -->
<g id="edge13_Node000011_Node000014" class="edge">
<title>Node11&#45;&gt;Node14</title>
<g id="a_edge13_Node000011_Node000014"><a xlink:title=" ">
<path fill="none" stroke="#63b8ff" d="M539.6,-119.44C550.37,-117.23 561.95,-115.07 572.75,-113.5 759.9,-86.26 809.18,-101.7 996.75,-77.5 1005.7,-76.34 1015.44,-74.76 1024.14,-73.22"/>
<polygon fill="#63b8ff" stroke="#63b8ff" points="1024.51,-76.71 1033.72,-71.47 1023.25,-69.82 1024.51,-76.71"/>
</a>
</g>
</g>
<!-- Node15 -->
<g id="Node000015" class="node">
<title>Node15</title>
<g id="a_Node000015"><a xlink:title=" ">
<polygon fill="#e0e0e0" stroke="#999999" points="987.88,-77.5 915.62,-77.5 915.62,-56.75 987.88,-56.75 987.88,-77.5"/>
<text text-anchor="middle" x="951.75" y="-64" font-family="Helvetica,sans-Serif" font-size="10.00">string_view</text>
</a>
</g>
</g>
<!-- Node11&#45;&gt;Node15 -->
<g id="edge14_Node000011_Node000015" class="edge">
<title>Node11&#45;&gt;Node15</title>
<g id="a_edge14_Node000011_Node000015"><a xlink:title=" ">
<path fill="none" stroke="#63b8ff" d="M540.84,-119.45C551.27,-117.32 562.38,-115.19 572.75,-113.5 691.24,-94.17 831.83,-79.47 903.9,-72.53"/>
<polygon fill="#63b8ff" stroke="#63b8ff" points="904.15,-76.03 913.78,-71.59 903.49,-69.06 904.15,-76.03"/>
</a>
</g>
</g>
<!-- Node16 -->
<g id="Node000016" class="node">
<title>Node16</title>
<g id="a_Node000016"><a xlink:title=" ">
<polygon fill="#e0e0e0" stroke="#999999" points="763.62,-77.5 719.88,-77.5 719.88,-56.75 763.62,-56.75 763.62,-77.5"/>
<text text-anchor="middle" x="741.75" y="-64" font-family="Helvetica,sans-Serif" font-size="10.00">string</text>
</a>
</g>
</g>
<!-- Node11&#45;&gt;Node16 -->
<g id="edge15_Node000011_Node000016" class="edge">
<title>Node11&#45;&gt;Node16</title>
<g id="a_edge15_Node000011_Node000016"><a xlink:title=" ">
<path fill="none" stroke="#63b8ff" d="M540.38,-119.46C581.38,-110.09 644.7,-95.19 708.39,-78.03"/>
<polygon fill="#63b8ff" stroke="#63b8ff" points="709.25,-81.43 717.98,-75.43 707.41,-74.67 709.25,-81.43"/>
</a>
</g>
</g>
<!-- Node17 -->
<g id="Node000017" class="node">
<title>Node17</title>
<g id="a_Node000017"><a xlink:title=" ">
<polygon fill="#e0e0e0" stroke="#999999" points="840,-77.5 789.5,-77.5 789.5,-56.75 840,-56.75 840,-77.5"/>
<text text-anchor="middle" x="814.75" y="-64" font-family="Helvetica,sans-Serif" font-size="10.00">variant</text>
</a>
</g>
</g>
<!-- Node11&#45;&gt;Node17 -->
<g id="edge16_Node000011_Node000017" class="edge">
<title>Node11&#45;&gt;Node17</title>
<g id="a_edge16_Node000011_Node000017"><a xlink:title=" ">
<path fill="none" stroke="#63b8ff" d="M543.33,-119.39C553.05,-117.4 563.22,-115.34 572.75,-113.5 661.42,-96.33 684.21,-95.34 772.75,-77.5 774.4,-77.17 776.08,-76.82 777.78,-76.47"/>
<polygon fill="#63b8ff" stroke="#63b8ff" points="778.5,-79.89 787.54,-74.36 777.03,-73.05 778.5,-79.89"/>
</a>
</g>
</g>
<!-- Node13 -->
<g id="Node000013" class="node">
<title>Node13</title>
<g id="a_Node000013"><a xlink:title=" ">
<polygon fill="#e0e0e0" stroke="#999999" points="656.12,-20.75 615.38,-20.75 615.38,0 656.12,0 656.12,-20.75"/>
<text text-anchor="middle" x="635.75" y="-7.25" font-family="Helvetica,sans-Serif" font-size="10.00">tuple</text>
</a>
</g>
</g>
<!-- Node12&#45;&gt;Node13 -->
<g id="edge12_Node000012_Node000013" class="edge">
<title>Node12&#45;&gt;Node13</title>
<g id="a_edge12_Node000012_Node000013"><a xlink:title=" ">
<path fill="none" stroke="#63b8ff" d="M635.75,-56.34C635.75,-49.72 635.75,-40.72 635.75,-32.52"/>
<polygon fill="#63b8ff" stroke="#63b8ff" points="639.25,-32.59 635.75,-22.59 632.25,-32.59 639.25,-32.59"/>
</a>
</g>
</g>
<!-- Node18&#45;&gt;Node16 -->
<g id="edge19_Node000018_Node000016" class="edge">
<title>Node18&#45;&gt;Node16</title>
<g id="a_edge19_Node000018_Node000016"><a xlink:title=" ">
<path fill="none" stroke="#63b8ff" d="M395.53,-119.41C403.39,-117.23 411.83,-115.09 419.75,-113.5 544.01,-88.49 581.23,-103.58 708.56,-77.63"/>
<polygon fill="#63b8ff" stroke="#63b8ff" points="708.96,-81.12 718.04,-75.65 707.53,-74.27 708.96,-81.12"/>
</a>
</g>
</g>
<!-- Node19 -->
<g id="Node000019" class="node">
<title>Node19</title>
<g id="a_Node000019"><a xlink:title=" ">
<polygon fill="#e0e0e0" stroke="#999999" points="295.5,-77.5 236,-77.5 236,-56.75 295.5,-56.75 295.5,-77.5"/>
<text text-anchor="middle" x="265.75" y="-64" font-family="Helvetica,sans-Serif" font-size="10.00">iostream</text>
</a>
</g>
</g>
<!-- Node18&#45;&gt;Node19 -->
<g id="edge18_Node000018_Node000019" class="edge">
<title>Node18&#45;&gt;Node19</title>
<g id="a_edge18_Node000018_Node000019"><a xlink:title=" ">
<path fill="none" stroke="#63b8ff" d="M348,-119.43C332.65,-109.85 309.03,-95.12 291.04,-83.9"/>
<polygon fill="#63b8ff" stroke="#63b8ff" points="293.08,-81.04 282.74,-78.72 289.37,-86.98 293.08,-81.04"/>
</a>
</g>
</g>
<!-- Node20 -->
<g id="Node000020" class="node">
<title>Node20</title>
<g id="a_Node000020"><a xlink:title=" ">
<polygon fill="#e0e0e0" stroke="#999999" points="413.75,-77.5 313.75,-77.5 313.75,-56.75 413.75,-56.75 413.75,-77.5"/>
<text text-anchor="middle" x="363.75" y="-64" font-family="Helvetica,sans-Serif" font-size="10.00">boost/format.hpp</text>
</a>
</g>
</g>
<!-- Node18&#45;&gt;Node20 -->
<g id="edge20_Node000018_Node000020" class="edge">
<title>Node18&#45;&gt;Node20</title>
<g id="a_edge20_Node000018_Node000020"><a xlink:title=" ">
<path fill="none" stroke="#63b8ff" d="M363.75,-119.43C363.75,-111.27 363.75,-99.38 363.75,-89.1"/>
<polygon fill="#63b8ff" stroke="#63b8ff" points="367.25,-89.23 363.75,-79.23 360.25,-89.23 367.25,-89.23"/>
</a>
</g>
</g>
<!-- Node21 -->
<g id="Node000021" class="node">
<title>Node21</title>
<g id="a_Node000021"><a xlink:href="ansicolor_8hh.html" target="_top" xlink:title="Some ANSI escape sequences.">
<polygon fill="white" stroke="#666666" points="551.88,-77.5 431.62,-77.5 431.62,-56.75 551.88,-56.75 551.88,-77.5"/>
<text text-anchor="middle" x="491.75" y="-64" font-family="Helvetica,sans-Serif" font-size="10.00">lix/libutil/ansicolor.hh</text>
</a>
</g>
</g>
<!-- Node18&#45;&gt;Node21 -->
<g id="edge21_Node000018_Node000021" class="edge">
<title>Node18&#45;&gt;Node21</title>
<g id="a_edge21_Node000018_Node000021"><a xlink:title=" ">
<path fill="none" stroke="#63b8ff" d="M384.32,-119.43C405.03,-109.54 437.24,-94.16 460.99,-82.81"/>
<polygon fill="#63b8ff" stroke="#63b8ff" points="462.35,-86.04 469.87,-78.57 459.34,-79.72 462.35,-86.04"/>
</a>
</g>
</g>
<!-- Node29&#45;&gt;Node7 -->
<g id="edge32_Node000029_Node000007" class="edge">
<title>Node29&#45;&gt;Node7</title>
<g id="a_edge32_Node000029_Node000007"><a xlink:title=" ">
<path fill="none" stroke="#63b8ff" d="M885.94,-245.68C842.06,-235.12 772.18,-218.3 724.48,-206.82"/>
<polygon fill="#63b8ff" stroke="#63b8ff" points="725.47,-203.46 714.93,-204.53 723.83,-210.27 725.47,-203.46"/>
</a>
</g>
</g>
<!-- Node30 -->
<g id="Node000030" class="node">
<title>Node30</title>
<g id="a_Node000030"><a xlink:href="generator_8hh.html" target="_top" xlink:title=" ">
<polygon fill="white" stroke="#666666" points="1384.38,-203.75 1261.12,-203.75 1261.12,-183 1384.38,-183 1384.38,-203.75"/>
<text text-anchor="middle" x="1322.75" y="-190.25" font-family="Helvetica,sans-Serif" font-size="10.00">lix/libutil/generator.hh</text>
</a>
</g>
</g>
<!-- Node29&#45;&gt;Node30 -->
<g id="edge33_Node000029_Node000030" class="edge">
<title>Node29&#45;&gt;Node30</title>
<g id="a_edge33_Node000029_Node000030"><a xlink:title=" ">
<path fill="none" stroke="#63b8ff" d="M974.48,-245.68C985.08,-243.62 996.28,-241.53 1006.75,-239.75 1089.74,-225.63 1185.48,-212.3 1249.64,-203.78"/>
<polygon fill="#63b8ff" stroke="#63b8ff" points="1249.88,-207.28 1259.34,-202.5 1248.97,-200.34 1249.88,-207.28"/>
</a>
</g>
</g>
<!-- Node30&#45;&gt;Node17 -->
<g id="edge49_Node000030_Node000017" class="edge">
<title>Node30&#45;&gt;Node17</title>
<g id="a_edge49_Node000030_Node000017"><a xlink:title=" ">
<path fill="none" stroke="#63b8ff" d="M1284.17,-182.52C1255.32,-174.55 1215.25,-162.17 1181.75,-147 1155.33,-135.04 1153.07,-123.23 1125.75,-113.5 1075.72,-95.69 921.95,-78.73 851.14,-71.62"/>
<polygon fill="#63b8ff" stroke="#63b8ff" points="851.92,-68.18 841.62,-70.68 851.23,-75.15 851.92,-68.18"/>
</a>
</g>
</g>
<!-- Node30&#45;&gt;Node24 -->
<g id="edge46_Node000030_Node000024" class="edge">
<title>Node30&#45;&gt;Node24</title>
<g id="a_edge46_Node000030_Node000024"><a xlink:title=" ">
<path fill="none" stroke="#63b8ff" d="M1274.2,-182.57C1235.12,-174.29 1178.97,-161.47 1130.75,-147 1128.49,-146.32 1126.17,-145.59 1123.85,-144.82"/>
<polygon fill="#63b8ff" stroke="#63b8ff" points="1125.07,-141.54 1114.48,-141.58 1122.78,-148.16 1125.07,-141.54"/>
</a>
</g>
</g>
<!-- Node30&#45;&gt;Node25 -->
<g id="edge47_Node000030_Node000025" class="edge">
<title>Node30&#45;&gt;Node25</title>
<g id="a_edge47_Node000030_Node000025"><a xlink:title=" ">
<path fill="none" stroke="#63b8ff" d="M1263.97,-182.52C1241.62,-175.96 1217.73,-165.07 1201.75,-147 1187.71,-131.12 1183.61,-106.66 1182.62,-89.19"/>
<polygon fill="#63b8ff" stroke="#63b8ff" points="1186.12,-89.35 1182.38,-79.44 1179.12,-89.52 1186.12,-89.35"/>
</a>
</g>
</g>
<!-- Node31 -->
<g id="Node000031" class="node">
<title>Node31</title>
<g id="a_Node000031"><a xlink:href="types_8hh.html" target="_top" xlink:title=" ">
<polygon fill="white" stroke="#666666" points="1456.62,-140.62 1352.88,-140.62 1352.88,-119.88 1456.62,-119.88 1456.62,-140.62"/>
<text text-anchor="middle" x="1404.75" y="-127.12" font-family="Helvetica,sans-Serif" font-size="10.00">lix/libutil/types.hh</text>
</a>
</g>
</g>
<!-- Node30&#45;&gt;Node31 -->
<g id="edge34_Node000030_Node000031" class="edge">
<title>Node30&#45;&gt;Node31</title>
<g id="a_edge34_Node000030_Node000031"><a xlink:title=" ">
<path fill="none" stroke="#63b8ff" d="M1335.92,-182.55C1348.48,-173.2 1367.62,-158.93 1382.53,-147.81"/>
<polygon fill="#63b8ff" stroke="#63b8ff" points="1384.47,-150.73 1390.39,-141.95 1380.29,-145.12 1384.47,-150.73"/>
</a>
</g>
</g>
<!-- Node36 -->
<g id="Node000036" class="node">
<title>Node36</title>
<g id="a_Node000036"><a xlink:title=" ">
<polygon fill="#e0e0e0" stroke="#999999" points="1272.62,-140.62 1210.88,-140.62 1210.88,-119.88 1272.62,-119.88 1272.62,-140.62"/>
<text text-anchor="middle" x="1241.75" y="-127.12" font-family="Helvetica,sans-Serif" font-size="10.00">coroutine</text>
</a>
</g>
</g>
<!-- Node30&#45;&gt;Node36 -->
<g id="edge44_Node000030_Node000036" class="edge">
<title>Node30&#45;&gt;Node36</title>
<g id="a_edge44_Node000030_Node000036"><a xlink:title=" ">
<path fill="none" stroke="#63b8ff" d="M1309.74,-182.55C1297.34,-173.2 1278.43,-158.93 1263.7,-147.81"/>
<polygon fill="#63b8ff" stroke="#63b8ff" points="1266.03,-145.19 1255.94,-141.96 1261.81,-150.78 1266.03,-145.19"/>
</a>
</g>
</g>
<!-- Node37 -->
<g id="Node000037" class="node">
<title>Node37</title>
<g id="a_Node000037"><a xlink:title=" ">
<polygon fill="#e0e0e0" stroke="#999999" points="1538.75,-140.62 1474.75,-140.62 1474.75,-119.88 1538.75,-119.88 1538.75,-140.62"/>
<text text-anchor="middle" x="1506.75" y="-127.12" font-family="Helvetica,sans-Serif" font-size="10.00">exception</text>
</a>
</g>
</g>
<!-- Node30&#45;&gt;Node37 -->
<g id="edge45_Node000030_Node000037" class="edge">
<title>Node30&#45;&gt;Node37</title>
<g id="a_edge45_Node000030_Node000037"><a xlink:title=" ">
<path fill="none" stroke="#63b8ff" d="M1355.59,-182.56C1384.69,-173.72 1428.26,-160.13 1465.75,-147 1467.58,-146.36 1469.45,-145.69 1471.34,-145"/>
<polygon fill="#63b8ff" stroke="#63b8ff" points="1472.56,-148.29 1480.7,-141.51 1470.11,-141.73 1472.56,-148.29"/>
</a>
</g>
</g>
<!-- Node38 -->
<g id="Node000038" class="node">
<title>Node38</title>
<g id="a_Node000038"><a xlink:title=" ">
<polygon fill="#e0e0e0" stroke="#999999" points="1335,-140.62 1290.5,-140.62 1290.5,-119.88 1335,-119.88 1335,-140.62"/>
<text text-anchor="middle" x="1312.75" y="-127.12" font-family="Helvetica,sans-Serif" font-size="10.00">utility</text>
</a>
</g>
</g>
<!-- Node30&#45;&gt;Node38 -->
<g id="edge48_Node000030_Node000038" class="edge">
<title>Node30&#45;&gt;Node38</title>
<g id="a_edge48_Node000030_Node000038"><a xlink:title=" ">
<path fill="none" stroke="#63b8ff" d="M1321.14,-182.55C1319.79,-174.31 1317.82,-162.25 1316.13,-151.89"/>
<polygon fill="#63b8ff" stroke="#63b8ff" points="1319.63,-151.64 1314.56,-142.34 1312.72,-152.77 1319.63,-151.64"/>
</a>
</g>
</g>
<!-- Node31&#45;&gt;Node14 -->
<g id="edge37_Node000031_Node000014" class="edge">
<title>Node31&#45;&gt;Node14</title>
<g id="a_edge37_Node000031_Node000014"><a xlink:title=" ">
<path fill="none" stroke="#63b8ff" d="M1369.42,-119.42C1361.05,-117.28 1352.12,-115.17 1343.75,-113.5 1232.37,-91.27 1202.37,-98.48 1090.75,-77.5 1086.5,-76.7 1082.03,-75.76 1077.67,-74.78"/>
<polygon fill="#63b8ff" stroke="#63b8ff" points="1078.65,-71.41 1068.12,-72.54 1077.05,-78.23 1078.65,-71.41"/>
</a>
</g>
</g>
<!-- Node31&#45;&gt;Node15 -->
<g id="edge39_Node000031_Node000015" class="edge">
<title>Node31&#45;&gt;Node15</title>
<g id="a_edge39_Node000031_Node000015"><a xlink:title=" ">
<path fill="none" stroke="#63b8ff" d="M1370.1,-119.41C1361.54,-117.23 1352.35,-115.09 1343.75,-113.5 1204.32,-87.71 1167.55,-94.29 1026.75,-77.5 1017.95,-76.45 1008.58,-75.3 999.55,-74.18"/>
<polygon fill="#63b8ff" stroke="#63b8ff" points="1000.22,-70.74 989.86,-72.97 999.35,-77.68 1000.22,-70.74"/>
</a>
</g>
</g>
<!-- Node31&#45;&gt;Node16 -->
<g id="edge38_Node000031_Node000016" class="edge">
<title>Node31&#45;&gt;Node16</title>
<g id="a_edge38_Node000031_Node000016"><a xlink:title=" ">
<path fill="none" stroke="#63b8ff" d="M1371.43,-119.44C1362.51,-117.14 1352.82,-114.95 1343.75,-113.5 1096.15,-73.98 1028.67,-114.94 780.75,-77.5 778.86,-77.21 776.92,-76.88 774.97,-76.52"/>
<polygon fill="#63b8ff" stroke="#63b8ff" points="775.88,-73.13 765.37,-74.46 774.42,-79.98 775.88,-73.13"/>
</a>
</g>
</g>
<!-- Node31&#45;&gt;Node23 -->
<g id="edge35_Node000031_Node000023" class="edge">
<title>Node31&#45;&gt;Node23</title>
<g id="a_edge35_Node000031_Node000023"><a xlink:title=" ">
<path fill="none" stroke="#63b8ff" d="M1368.4,-119.4C1360.32,-117.34 1351.76,-115.26 1343.75,-113.5 1256.39,-94.31 1232.7,-98.48 1145.75,-77.5 1144.37,-77.17 1142.95,-76.81 1141.53,-76.43"/>
<polygon fill="#63b8ff" stroke="#63b8ff" points="1142.78,-73.15 1132.2,-73.76 1140.85,-79.88 1142.78,-73.15"/>
</a>
</g>
</g>
<!-- Node31&#45;&gt;Node25 -->
<g id="edge36_Node000031_Node000025" class="edge">
<title>Node31&#45;&gt;Node25</title>
<g id="a_edge36_Node000031_Node000025"><a xlink:title=" ">
<path fill="none" stroke="#63b8ff" d="M1369.08,-119.43C1328.86,-108.36 1263.66,-90.4 1222.02,-78.94"/>
<polygon fill="#63b8ff" stroke="#63b8ff" points="1222.96,-75.57 1212.39,-76.29 1221.11,-82.32 1222.96,-75.57"/>
</a>
</g>
</g>
<!-- Node32 -->
<g id="Node000032" class="node">
<title>Node32</title>
<g id="a_Node000032"><a xlink:title=" ">
<polygon fill="#e0e0e0" stroke="#999999" points="1332.62,-77.5 1294.88,-77.5 1294.88,-56.75 1332.62,-56.75 1332.62,-77.5"/>
<text text-anchor="middle" x="1313.75" y="-64" font-family="Helvetica,sans-Serif" font-size="10.00">map</text>
</a>
</g>
</g>
<!-- Node31&#45;&gt;Node32 -->
<g id="edge40_Node000031_Node000032" class="edge">
<title>Node31&#45;&gt;Node32</title>
<g id="a_edge40_Node000031_Node000032"><a xlink:title=" ">
<path fill="none" stroke="#63b8ff" d="M1390.13,-119.43C1375.93,-109.89 1354.15,-95.26 1337.47,-84.06"/>
<polygon fill="#63b8ff" stroke="#63b8ff" points="1339.84,-81.44 1329.59,-78.77 1335.94,-87.25 1339.84,-81.44"/>
</a>
</g>
</g>
<!-- Node33 -->
<g id="Node000033" class="node">
<title>Node33</title>
<g id="a_Node000033"><a xlink:title=" ">
<polygon fill="#e0e0e0" stroke="#999999" points="1397.12,-77.5 1350.38,-77.5 1350.38,-56.75 1397.12,-56.75 1397.12,-77.5"/>
<text text-anchor="middle" x="1373.75" y="-64" font-family="Helvetica,sans-Serif" font-size="10.00">vector</text>
</a>
</g>
</g>
<!-- Node31&#45;&gt;Node33 -->
<g id="edge41_Node000031_Node000033" class="edge">
<title>Node31&#45;&gt;Node33</title>
<g id="a_edge41_Node000031_Node000033"><a xlink:title=" ">
<path fill="none" stroke="#63b8ff" d="M1399.77,-119.43C1395.45,-110.91 1389.07,-98.33 1383.71,-87.76"/>
<polygon fill="#63b8ff" stroke="#63b8ff" points="1386.95,-86.41 1379.3,-79.07 1380.7,-89.57 1386.95,-86.41"/>
</a>
</g>
</g>
<!-- Node34 -->
<g id="Node000034" class="node">
<title>Node34</title>
<g id="a_Node000034"><a xlink:title=" ">
<polygon fill="#e0e0e0" stroke="#999999" points="1454.38,-77.5 1415.12,-77.5 1415.12,-56.75 1454.38,-56.75 1454.38,-77.5"/>
<text text-anchor="middle" x="1434.75" y="-64" font-family="Helvetica,sans-Serif" font-size="10.00">span</text>
</a>
</g>
</g>
<!-- Node31&#45;&gt;Node34 -->
<g id="edge42_Node000031_Node000034" class="edge">
<title>Node31&#45;&gt;Node34</title>
<g id="a_edge42_Node000031_Node000034"><a xlink:title=" ">
<path fill="none" stroke="#63b8ff" d="M1409.57,-119.43C1413.75,-110.91 1419.93,-98.33 1425.12,-87.76"/>
<polygon fill="#63b8ff" stroke="#63b8ff" points="1428.11,-89.6 1429.37,-79.08 1421.83,-86.51 1428.11,-89.6"/>
</a>
</g>
</g>
<!-- Node35 -->
<g id="Node000035" class="node">
<title>Node35</title>
<g id="a_Node000035"><a xlink:title=" ">
<polygon fill="#e0e0e0" stroke="#999999" points="1525.12,-77.5 1472.38,-77.5 1472.38,-56.75 1525.12,-56.75 1525.12,-77.5"/>
<text text-anchor="middle" x="1498.75" y="-64" font-family="Helvetica,sans-Serif" font-size="10.00">stdint.h</text>
</a>
</g>
</g>
<!-- Node31&#45;&gt;Node35 -->
<g id="edge43_Node000031_Node000035" class="edge">
<title>Node31&#45;&gt;Node35</title>
<g id="a_edge43_Node000031_Node000035"><a xlink:title=" ">
<path fill="none" stroke="#63b8ff" d="M1419.85,-119.43C1434.52,-109.89 1457.02,-95.26 1474.25,-84.06"/>
<polygon fill="#63b8ff" stroke="#63b8ff" points="1475.94,-87.13 1482.42,-78.75 1472.12,-81.26 1475.94,-87.13"/>
</a>
</g>
</g>
<!-- Node39&#45;&gt;Node3 -->
<g id="edge64_Node000039_Node000003" class="edge">
<title>Node39&#45;&gt;Node3</title>
<g id="a_edge64_Node000039_Node000003"><a xlink:title=" ">
<path fill="none" stroke="#63b8ff" d="M1032.54,-245.64C1024.36,-243.64 1015.78,-241.59 1007.75,-239.75 935.85,-223.29 914.67,-222.1 839.88,-204.15"/>
<polygon fill="#63b8ff" stroke="#63b8ff" points="840.97,-200.82 830.43,-201.86 839.32,-207.62 840.97,-200.82"/>
</a>
</g>
</g>
<!-- Node39&#45;&gt;Node5 -->
<g id="edge59_Node000039_Node000005" class="edge">
<title>Node39&#45;&gt;Node5</title>
<g id="a_edge59_Node000039_Node000005"><a xlink:title=" ">
<path fill="none" stroke="#63b8ff" d="M1048.24,-245.8C1028.32,-236.83 999.74,-222.13 978.75,-203.75 961.19,-188.38 945.81,-166.4 936.01,-150.68"/>
<polygon fill="#63b8ff" stroke="#63b8ff" points="939.09,-149.01 930.93,-142.25 933.09,-152.63 939.09,-149.01"/>
</a>
</g>
</g>
<!-- Node39&#45;&gt;Node6 -->
<g id="edge62_Node000039_Node000006" class="edge">
<title>Node39&#45;&gt;Node6</title>
<g id="a_edge62_Node000039_Node000006"><a xlink:title=" ">
<path fill="none" stroke="#63b8ff" d="M1039.94,-245.68C1005.26,-234.97 949.77,-217.84 912.56,-206.36"/>
<polygon fill="#63b8ff" stroke="#63b8ff" points="913.68,-203.04 903.09,-203.43 911.61,-209.73 913.68,-203.04"/>
</a>
</g>
</g>
<!-- Node39&#45;&gt;Node7 -->
<g id="edge51_Node000039_Node000007" class="edge">
<title>Node39&#45;&gt;Node7</title>
<g id="a_edge51_Node000039_Node000007"><a xlink:title=" ">
<path fill="none" stroke="#63b8ff" d="M1034.67,-245.66C1025.88,-243.53 1016.52,-241.42 1007.75,-239.75 912.78,-221.69 801.33,-208.08 733.93,-200.68"/>
<polygon fill="#63b8ff" stroke="#63b8ff" points="734.51,-197.22 724.19,-199.62 733.75,-204.18 734.51,-197.22"/>
</a>
</g>
</g>
<!-- Node39&#45;&gt;Node24 -->
<g id="edge58_Node000039_Node000024" class="edge">
<title>Node39&#45;&gt;Node24</title>
<g id="a_edge58_Node000039_Node000024"><a xlink:title=" ">
<path fill="none" stroke="#63b8ff" d="M1042.77,-245.65C1011.92,-233.47 969.71,-210.89 986.75,-183 990.76,-176.44 1027.42,-158.65 1055.42,-145.75"/>
<polygon fill="#63b8ff" stroke="#63b8ff" points="1056.63,-149.05 1064.27,-141.71 1053.72,-142.68 1056.63,-149.05"/>
</a>
</g>
</g>
<!-- Node39&#45;&gt;Node26 -->
<g id="edge60_Node000039_Node000026" class="edge">
<title>Node39&#45;&gt;Node26</title>
<g id="a_edge60_Node000039_Node000026"><a xlink:title=" ">
<path fill="none" stroke="#63b8ff" d="M1104.8,-245.64C1144.68,-233.41 1207.24,-213.05 1213.75,-203.75 1219.04,-196.19 1219.53,-190.19 1213.75,-183 1166.98,-124.85 1121.14,-168.74 1049.75,-147 1047.66,-146.36 1045.53,-145.67 1043.39,-144.93"/>
<polygon fill="#63b8ff" stroke="#63b8ff" points="1044.81,-141.73 1034.22,-141.57 1042.4,-148.3 1044.81,-141.73"/>
</a>
</g>
</g>
<!-- Node40 -->
<g id="Node000040" class="node">
<title>Node40</title>
<g id="a_Node000040"><a xlink:href="result_8hh.html" target="_top" xlink:title=" ">
<polygon fill="white" stroke="#666666" points="1628,-203.75 1523.5,-203.75 1523.5,-183 1628,-183 1628,-203.75"/>
<text text-anchor="middle" x="1575.75" y="-190.25" font-family="Helvetica,sans-Serif" font-size="10.00">lix/libutil/result.hh</text>
</a>
</g>
</g>
<!-- Node39&#45;&gt;Node40 -->
<g id="edge52_Node000039_Node000040" class="edge">
<title>Node39&#45;&gt;Node40</title>
<g id="a_edge52_Node000039_Node000040"><a xlink:title=" ">
<path fill="none" stroke="#63b8ff" d="M1107.78,-245.71C1116.86,-243.5 1126.62,-241.34 1135.75,-239.75 1268.49,-216.69 1425.93,-203.92 1511.88,-198.18"/>
<polygon fill="#63b8ff" stroke="#63b8ff" points="1512.02,-201.67 1521.76,-197.53 1511.56,-194.69 1512.02,-201.67"/>
</a>
</g>
</g>
<!-- Node44 -->
<g id="Node000044" class="node">
<title>Node44</title>
<g id="a_Node000044"><a xlink:title=" ">
<polygon fill="#e0e0e0" stroke="#999999" points="1711.5,-203.75 1646,-203.75 1646,-183 1711.5,-183 1711.5,-203.75"/>
<text text-anchor="middle" x="1678.75" y="-190.25" font-family="Helvetica,sans-Serif" font-size="10.00">kj/async.h</text>
</a>
</g>
</g>
<!-- Node39&#45;&gt;Node44 -->
<g id="edge57_Node000039_Node000044" class="edge">
<title>Node39&#45;&gt;Node44</title>
<g id="a_edge57_Node000039_Node000044"><a xlink:title=" ">
<path fill="none" stroke="#63b8ff" d="M1107.08,-245.67C1116.34,-243.41 1126.37,-241.23 1135.75,-239.75 1352.6,-205.53 1413.85,-235.14 1634.51,-203.85"/>
<polygon fill="#63b8ff" stroke="#63b8ff" points="1634.93,-207.32 1644.32,-202.43 1633.92,-200.39 1634.93,-207.32"/>
</a>
</g>
</g>
<!-- Node45 -->
<g id="Node000045" class="node">
<title>Node45</title>
<g id="a_Node000045"><a xlink:title=" ">
<polygon fill="#e0e0e0" stroke="#999999" points="1049.5,-203.75 996,-203.75 996,-183 1049.5,-183 1049.5,-203.75"/>
<text text-anchor="middle" x="1022.75" y="-190.25" font-family="Helvetica,sans-Serif" font-size="10.00">dirent.h</text>
</a>
</g>
</g>
<!-- Node39&#45;&gt;Node45 -->
<g id="edge61_Node000039_Node000045" class="edge">
<title>Node39&#45;&gt;Node45</title>
<g id="a_edge61_Node000039_Node000045"><a xlink:title=" ">
<path fill="none" stroke="#63b8ff" d="M1063.88,-245.68C1056.76,-236.8 1046.11,-223.51 1037.43,-212.68"/>
<polygon fill="#63b8ff" stroke="#63b8ff" points="1040.37,-210.76 1031.39,-205.15 1034.91,-215.14 1040.37,-210.76"/>
</a>
</g>
</g>
<!-- Node46 -->
<g id="Node000046" class="node">
<title>Node46</title>
<g id="a_Node000046"><a xlink:title=" ">
<polygon fill="#e0e0e0" stroke="#999999" points="1121.88,-203.75 1067.62,-203.75 1067.62,-183 1121.88,-183 1121.88,-203.75"/>
<text text-anchor="middle" x="1094.75" y="-190.25" font-family="Helvetica,sans-Serif" font-size="10.00">signal.h</text>
</a>
</g>
</g>
<!-- Node39&#45;&gt;Node46 -->
<g id="edge63_Node000039_Node000046" class="edge">
<title>Node39&#45;&gt;Node46</title>
<g id="a_edge63_Node000039_Node000046"><a xlink:title=" ">
<path fill="none" stroke="#63b8ff" d="M1075.45,-245.68C1078.58,-237.34 1083.19,-225.11 1087.11,-214.68"/>
<polygon fill="#63b8ff" stroke="#63b8ff" points="1090.36,-215.98 1090.61,-205.39 1083.81,-213.51 1090.36,-215.98"/>
</a>
</g>
</g>
<!-- Node47 -->
<g id="Node000047" class="node">
<title>Node47</title>
<g id="a_Node000047"><a xlink:title=" ">
<polygon fill="#e0e0e0" stroke="#999999" points="1205.12,-203.75 1140.38,-203.75 1140.38,-183 1205.12,-183 1205.12,-203.75"/>
<text text-anchor="middle" x="1172.75" y="-190.25" font-family="Helvetica,sans-Serif" font-size="10.00">functional</text>
</a>
</g>
</g>
<!-- Node39&#45;&gt;Node47 -->
<g id="edge65_Node000039_Node000047" class="edge">
<title>Node39&#45;&gt;Node47</title>
<g id="a_edge65_Node000039_Node000047"><a xlink:title=" ">
<path fill="none" stroke="#63b8ff" d="M1087.98,-245.68C1103.88,-236.05 1128.37,-221.23 1146.94,-209.99"/>
<polygon fill="#63b8ff" stroke="#63b8ff" points="1148.52,-213.13 1155.27,-204.96 1144.9,-207.14 1148.52,-213.13"/>
</a>
</g>
</g>
<!-- Node40&#45;&gt;Node37 -->
<g id="edge56_Node000040_Node000037" class="edge">
<title>Node40&#45;&gt;Node37</title>
<g id="a_edge56_Node000040_Node000037"><a xlink:title=" ">
<path fill="none" stroke="#63b8ff" d="M1564.66,-182.55C1554.24,-173.32 1538.42,-159.31 1525.95,-148.26"/>
<polygon fill="#63b8ff" stroke="#63b8ff" points="1528.52,-145.86 1518.71,-141.85 1523.88,-151.1 1528.52,-145.86"/>
</a>
</g>
</g>
<!-- Node41 -->
<g id="Node000041" class="node">
<title>Node41</title>
<g id="a_Node000041"><a xlink:title=" ">
<polygon fill="#e0e0e0" stroke="#999999" points="1732.62,-140.62 1556.88,-140.62 1556.88,-119.88 1732.62,-119.88 1732.62,-140.62"/>
<text text-anchor="middle" x="1644.75" y="-127.12" font-family="Helvetica,sans-Serif" font-size="10.00">boost/outcome/std_outcome.hpp</text>
</a>
</g>
</g>
<!-- Node40&#45;&gt;Node41 -->
<g id="edge53_Node000040_Node000041" class="edge">
<title>Node40&#45;&gt;Node41</title>
<g id="a_edge53_Node000040_Node000041"><a xlink:title=" ">
<path fill="none" stroke="#63b8ff" d="M1586.84,-182.55C1597.26,-173.32 1613.08,-159.31 1625.55,-148.26"/>
<polygon fill="#63b8ff" stroke="#63b8ff" points="1627.62,-151.1 1632.79,-141.85 1622.98,-145.86 1627.62,-151.1"/>
</a>
</g>
</g>
<!-- Node42 -->
<g id="Node000042" class="node">
<title>Node42</title>
<g id="a_Node000042"><a xlink:title=" ">
<polygon fill="#e0e0e0" stroke="#999999" points="1911.12,-140.62 1750.38,-140.62 1750.38,-119.88 1911.12,-119.88 1911.12,-140.62"/>
<text text-anchor="middle" x="1830.75" y="-127.12" font-family="Helvetica,sans-Serif" font-size="10.00">boost/outcome/std_result.hpp</text>
</a>
</g>
</g>
<!-- Node40&#45;&gt;Node42 -->
<g id="edge54_Node000040_Node000042" class="edge">
<title>Node40&#45;&gt;Node42</title>
<g id="a_edge54_Node000040_Node000042"><a xlink:title=" ">
<path fill="none" stroke="#63b8ff" d="M1616.72,-182.55C1660.77,-171.99 1730.92,-155.18 1778.82,-143.7"/>
<polygon fill="#63b8ff" stroke="#63b8ff" points="1779.5,-147.13 1788.41,-141.4 1777.87,-140.33 1779.5,-147.13"/>
</a>
</g>
</g>
<!-- Node43 -->
<g id="Node000043" class="node">
<title>Node43</title>
<g id="a_Node000043"><a xlink:title=" ">
<polygon fill="#e0e0e0" stroke="#999999" points="2058.75,-147 1928.75,-147 1928.75,-113.5 2058.75,-113.5 2058.75,-147"/>
<text text-anchor="start" x="1936.75" y="-133.5" font-family="Helvetica,sans-Serif" font-size="10.00">boost/outcome/success</text>
<text text-anchor="middle" x="1993.75" y="-120.75" font-family="Helvetica,sans-Serif" font-size="10.00">_failure.hpp</text>
</a>
</g>
</g>
<!-- Node40&#45;&gt;Node43 -->
<g id="edge55_Node000040_Node000043" class="edge">
<title>Node40&#45;&gt;Node43</title>
<g id="a_edge55_Node000040_Node000043"><a xlink:title=" ">
<path fill="none" stroke="#63b8ff" d="M1628.31,-184.21C1631.16,-183.79 1633.99,-183.39 1636.75,-183 1758.75,-165.87 1792.83,-168.07 1917.32,-147.33"/>
<polygon fill="#63b8ff" stroke="#63b8ff" points="1917.66,-150.82 1926.94,-145.71 1916.5,-143.92 1917.66,-150.82"/>
</a>
</g>
</g>
</g>
</svg>
