<?xml version="1.0" encoding="UTF-8" standalone="no"?>
<!DOCTYPE svg PUBLIC "-//W3C//DTD SVG 1.1//EN"
 "http://www.w3.org/Graphics/SVG/1.1/DTD/svg11.dtd">
<!-- Generated by graphviz version 12.2.1 (0)
 -->
<!-- Title: lix/libutil/notifying&#45;counter.hh Pages: 1 -->
<svg width="217pt" height="98pt"
 viewBox="0.00 0.00 217.25 98.25" xmlns="http://www.w3.org/2000/svg" xmlns:xlink="http://www.w3.org/1999/xlink">
<g id="graph0" class="graph" transform="scale(1 1) rotate(0) translate(4 94.25)">
<title>lix/libutil/notifying&#45;counter.hh</title>
<!-- Node1 -->
<g id="Node000001" class="node">
<title>Node1</title>
<g id="a_Node000001"><a xlink:title=" ">
<polygon fill="#999999" stroke="#666666" points="153.88,-90.25 49.38,-90.25 49.38,-56.75 153.88,-56.75 153.88,-90.25"/>
<text text-anchor="start" x="57.38" y="-76.75" font-family="Helvetica,sans-Serif" font-size="10.00">lix/libutil/notifying</text>
<text text-anchor="middle" x="101.62" y="-64" font-family="Helvetica,sans-Serif" font-size="10.00">&#45;counter.hh</text>
</a>
</g>
</g>
<!-- Node2 -->
<g id="Node000002" class="node">
<title>Node2</title>
<g id="a_Node000002"><a xlink:title=" ">
<polygon fill="#e0e0e0" stroke="#999999" points="51.25,-20.75 0,-20.75 0,0 51.25,0 51.25,-20.75"/>
<text text-anchor="middle" x="25.62" y="-7.25" font-family="Helvetica,sans-Serif" font-size="10.00">cassert</text>
</a>
</g>
</g>
<!-- Node1&#45;&gt;Node2 -->
<g id="edge1_Node000001_Node000002" class="edge">
<title>Node1&#45;&gt;Node2</title>
<g id="a_edge1_Node000001_Node000002"><a xlink:title=" ">
<path fill="none" stroke="#63b8ff" d="M81.66,-56.44C70.91,-47.8 57.65,-37.13 46.73,-28.35"/>
<polygon fill="#63b8ff" stroke="#63b8ff" points="49.03,-25.71 39.04,-22.17 44.64,-31.16 49.03,-25.71"/>
</a>
</g>
</g>
<!-- Node3 -->
<g id="Node000003" class="node">
<title>Node3</title>
<g id="a_Node000003"><a xlink:title=" ">
<polygon fill="#e0e0e0" stroke="#999999" points="134,-20.75 69.25,-20.75 69.25,0 134,0 134,-20.75"/>
<text text-anchor="middle" x="101.62" y="-7.25" font-family="Helvetica,sans-Serif" font-size="10.00">functional</text>
</a>
</g>
</g>
<!-- Node1&#45;&gt;Node3 -->
<g id="edge2_Node000001_Node000003" class="edge">
<title>Node1&#45;&gt;Node3</title>
<g id="a_edge2_Node000001_Node000003"><a xlink:title=" ">
<path fill="none" stroke="#63b8ff" d="M101.62,-56.44C101.62,-49.1 101.62,-40.32 101.62,-32.46"/>
<polygon fill="#63b8ff" stroke="#63b8ff" points="105.13,-32.73 101.63,-22.73 98.13,-32.73 105.13,-32.73"/>
</a>
</g>
</g>
<!-- Node4 -->
<g id="Node000004" class="node">
<title>Node4</title>
<g id="a_Node000004"><a xlink:title=" ">
<polygon fill="#e0e0e0" stroke="#999999" points="209.25,-20.75 152,-20.75 152,0 209.25,0 209.25,-20.75"/>
<text text-anchor="middle" x="180.62" y="-7.25" font-family="Helvetica,sans-Serif" font-size="10.00">memory</text>
</a>
</g>
</g>
<!-- Node1&#45;&gt;Node4 -->
<g id="edge3_Node000001_Node000004" class="edge">
<title>Node1&#45;&gt;Node4</title>
<g id="a_edge3_Node000001_Node000004"><a xlink:title=" ">
<path fill="none" stroke="#63b8ff" d="M122.38,-56.44C133.67,-47.71 147.61,-36.92 159.03,-28.09"/>
<polygon fill="#63b8ff" stroke="#63b8ff" points="160.94,-31.03 166.71,-22.14 156.66,-25.49 160.94,-31.03"/>
</a>
</g>
</g>
</g>
</svg>
