<?xml version="1.0" encoding="UTF-8" standalone="no"?>
<!DOCTYPE svg PUBLIC "-//W3C//DTD SVG 1.1//EN"
 "http://www.w3.org/Graphics/SVG/1.1/DTD/svg11.dtd">
<!-- Generated by graphviz version 12.2.1 (0)
 -->
<!-- Title: lix/libutil/notifying&#45;counter.hh Pages: 1 -->
<svg width="527pt" height="193pt"
 viewBox="0.00 0.00 527.00 193.25" xmlns="http://www.w3.org/2000/svg" xmlns:xlink="http://www.w3.org/1999/xlink">
<g id="graph0" class="graph" transform="scale(1 1) rotate(0) translate(4 189.25)">
<title>lix/libutil/notifying&#45;counter.hh</title>
<!-- Node1 -->
<g id="Node000001" class="node">
<title>Node1</title>
<g id="a_Node000001"><a xlink:title=" ">
<polygon fill="#999999" stroke="#666666" points="328.88,-185.25 224.38,-185.25 224.38,-151.75 328.88,-151.75 328.88,-185.25"/>
<text text-anchor="start" x="232.38" y="-171.75" font-family="Helvetica,sans-Serif" font-size="10.00">lix/libutil/notifying</text>
<text text-anchor="middle" x="276.62" y="-159" font-family="Helvetica,sans-Serif" font-size="10.00">&#45;counter.hh</text>
</a>
</g>
</g>
<!-- Node2 -->
<g id="Node000002" class="node">
<title>Node2</title>
<g id="a_Node000002"><a xlink:href="derivation-goal_8hh.html" target="_top" xlink:title=" ">
<polygon fill="white" stroke="#666666" points="121.75,-109.38 13.5,-109.38 13.5,-75.88 121.75,-75.88 121.75,-109.38"/>
<text text-anchor="start" x="21.5" y="-95.88" font-family="Helvetica,sans-Serif" font-size="10.00">lix/libstore/build</text>
<text text-anchor="middle" x="67.62" y="-83.12" font-family="Helvetica,sans-Serif" font-size="10.00">/derivation&#45;goal.hh</text>
</a>
</g>
</g>
<!-- Node1&#45;&gt;Node2 -->
<g id="edge1_Node000001_Node000002" class="edge">
<title>Node1&#45;&gt;Node2</title>
<g id="a_edge1_Node000001_Node000002"><a xlink:title=" ">
<path fill="none" stroke="#63b8ff" d="M220.21,-147.56C186.72,-135.72 144.8,-120.91 113.38,-109.8"/>
<polygon fill="#63b8ff" stroke="#63b8ff" points="218.74,-150.75 229.33,-150.78 221.07,-144.15 218.74,-150.75"/>
</a>
</g>
</g>
<!-- Node4 -->
<g id="Node000004" class="node">
<title>Node4</title>
<g id="a_Node000004"><a xlink:href="drv-output-substitution-goal_8hh.html" target="_top" xlink:title=" ">
<polygon fill="white" stroke="#666666" points="271.38,-115.75 139.88,-115.75 139.88,-69.5 271.38,-69.5 271.38,-115.75"/>
<text text-anchor="start" x="147.88" y="-102.25" font-family="Helvetica,sans-Serif" font-size="10.00">lix/libstore/build</text>
<text text-anchor="start" x="147.88" y="-89.5" font-family="Helvetica,sans-Serif" font-size="10.00">/drv&#45;output&#45;substitution</text>
<text text-anchor="middle" x="205.62" y="-76.75" font-family="Helvetica,sans-Serif" font-size="10.00">&#45;goal.hh</text>
</a>
</g>
</g>
<!-- Node1&#45;&gt;Node4 -->
<g id="edge3_Node000001_Node000004" class="edge">
<title>Node1&#45;&gt;Node4</title>
<g id="a_edge3_Node000001_Node000004"><a xlink:title=" ">
<path fill="none" stroke="#63b8ff" d="M253.25,-143.18C244.85,-134.44 235.43,-124.64 227.2,-116.07"/>
<polygon fill="#63b8ff" stroke="#63b8ff" points="250.72,-145.59 260.17,-150.38 255.76,-140.74 250.72,-145.59"/>
</a>
</g>
</g>
<!-- Node5 -->
<g id="Node000005" class="node">
<title>Node5</title>
<g id="a_Node000005"><a xlink:href="substitution-goal_8hh.html" target="_top" xlink:title=" ">
<polygon fill="white" stroke="#666666" points="405.88,-109.38 289.38,-109.38 289.38,-75.88 405.88,-75.88 405.88,-109.38"/>
<text text-anchor="start" x="297.38" y="-95.88" font-family="Helvetica,sans-Serif" font-size="10.00">lix/libstore/build</text>
<text text-anchor="middle" x="347.62" y="-83.12" font-family="Helvetica,sans-Serif" font-size="10.00">/substitution&#45;goal.hh</text>
</a>
</g>
</g>
<!-- Node1&#45;&gt;Node5 -->
<g id="edge4_Node000001_Node000005" class="edge">
<title>Node1&#45;&gt;Node5</title>
<g id="a_edge4_Node000001_Node000005"><a xlink:title=" ">
<path fill="none" stroke="#63b8ff" d="M299.77,-143.42C310.42,-132.34 322.77,-119.49 332.25,-109.62"/>
<polygon fill="#63b8ff" stroke="#63b8ff" points="297.49,-140.74 293.08,-150.38 302.53,-145.59 297.49,-140.74"/>
</a>
</g>
</g>
<!-- Node6 -->
<g id="Node000006" class="node">
<title>Node6</title>
<g id="a_Node000006"><a xlink:href="worker_8hh.html" target="_top" xlink:title=" ">
<polygon fill="white" stroke="#666666" points="519,-109.38 424.25,-109.38 424.25,-75.88 519,-75.88 519,-109.38"/>
<text text-anchor="start" x="432.25" y="-95.88" font-family="Helvetica,sans-Serif" font-size="10.00">lix/libstore/build</text>
<text text-anchor="middle" x="471.62" y="-83.12" font-family="Helvetica,sans-Serif" font-size="10.00">/worker.hh</text>
</a>
</g>
</g>
<!-- Node1&#45;&gt;Node6 -->
<g id="edge5_Node000001_Node000006" class="edge">
<title>Node1&#45;&gt;Node6</title>
<g id="a_edge5_Node000001_Node000006"><a xlink:title=" ">
<path fill="none" stroke="#63b8ff" d="M330.75,-147.37C356.23,-137.85 387.01,-126.29 414.62,-115.75 419.58,-113.86 424.78,-111.86 429.93,-109.87"/>
<polygon fill="#63b8ff" stroke="#63b8ff" points="329.74,-144.01 321.6,-150.78 332.19,-150.56 329.74,-144.01"/>
</a>
</g>
</g>
<!-- Node3 -->
<g id="Node000003" class="node">
<title>Node3</title>
<g id="a_Node000003"><a xlink:href="local-derivation-goal_8hh.html" target="_top" xlink:title=" ">
<polygon fill="white" stroke="#666666" points="135.25,-33.5 0,-33.5 0,0 135.25,0 135.25,-33.5"/>
<text text-anchor="start" x="8" y="-20" font-family="Helvetica,sans-Serif" font-size="10.00">lix/libstore/build</text>
<text text-anchor="middle" x="67.62" y="-7.25" font-family="Helvetica,sans-Serif" font-size="10.00">/local&#45;derivation&#45;goal.hh</text>
</a>
</g>
</g>
<!-- Node2&#45;&gt;Node3 -->
<g id="edge2_Node000002_Node000003" class="edge">
<title>Node2&#45;&gt;Node3</title>
<g id="a_edge2_Node000002_Node000003"><a xlink:title=" ">
<path fill="none" stroke="#63b8ff" d="M67.62,-64.24C67.62,-53.97 67.62,-42.65 67.62,-33.75"/>
<polygon fill="#63b8ff" stroke="#63b8ff" points="64.13,-64.08 67.63,-74.08 71.13,-64.08 64.13,-64.08"/>
</a>
</g>
</g>
</g>
</svg>
