<?xml version="1.0" encoding="UTF-8" standalone="no"?>
<!DOCTYPE svg PUBLIC "-//W3C//DTD SVG 1.1//EN"
 "http://www.w3.org/Graphics/SVG/1.1/DTD/svg11.dtd">
<!-- Generated by graphviz version 12.2.1 (0)
 -->
<!-- Title: lix/libstore/outputs&#45;spec.hh Pages: 1 -->
<svg width="694pt" height="168pt"
 viewBox="0.00 0.00 693.88 167.75" xmlns="http://www.w3.org/2000/svg" xmlns:xlink="http://www.w3.org/1999/xlink">
<g id="graph0" class="graph" transform="scale(1 1) rotate(0) translate(4 163.75)">
<title>lix/libstore/outputs&#45;spec.hh</title>
<!-- Node1 -->
<g id="Node000001" class="node">
<title>Node1</title>
<g id="a_Node000001"><a xlink:title=" ">
<polygon fill="#999999" stroke="#666666" points="256.38,-159.75 148.88,-159.75 148.88,-126.25 256.38,-126.25 256.38,-159.75"/>
<text text-anchor="start" x="156.88" y="-146.25" font-family="Helvetica,sans-Serif" font-size="10.00">lix/libstore/outputs</text>
<text text-anchor="middle" x="202.62" y="-133.5" font-family="Helvetica,sans-Serif" font-size="10.00">&#45;spec.hh</text>
</a>
</g>
</g>
<!-- Node2 -->
<g id="Node000002" class="node">
<title>Node2</title>
<g id="a_Node000002"><a xlink:title=" ">
<polygon fill="#e0e0e0" stroke="#999999" points="51.25,-83.88 0,-83.88 0,-63.12 51.25,-63.12 51.25,-83.88"/>
<text text-anchor="middle" x="25.62" y="-70.38" font-family="Helvetica,sans-Serif" font-size="10.00">cassert</text>
</a>
</g>
</g>
<!-- Node1&#45;&gt;Node2 -->
<g id="edge1_Node000001_Node000002" class="edge">
<title>Node1&#45;&gt;Node2</title>
<g id="a_edge1_Node000001_Node000002"><a xlink:title=" ">
<path fill="none" stroke="#63b8ff" d="M155.61,-125.84C127.79,-116.04 91.98,-103 60.62,-90.25 59.48,-89.79 58.32,-89.31 57.15,-88.82"/>
<polygon fill="#63b8ff" stroke="#63b8ff" points="58.57,-85.62 48,-84.85 55.79,-92.04 58.57,-85.62"/>
</a>
</g>
</g>
<!-- Node3 -->
<g id="Node000003" class="node">
<title>Node3</title>
<g id="a_Node000003"><a xlink:title=" ">
<polygon fill="#e0e0e0" stroke="#999999" points="125.5,-83.88 69.75,-83.88 69.75,-63.12 125.5,-63.12 125.5,-83.88"/>
<text text-anchor="middle" x="97.62" y="-70.38" font-family="Helvetica,sans-Serif" font-size="10.00">optional</text>
</a>
</g>
</g>
<!-- Node1&#45;&gt;Node3 -->
<g id="edge2_Node000001_Node000003" class="edge">
<title>Node1&#45;&gt;Node3</title>
<g id="a_edge2_Node000001_Node000003"><a xlink:title=" ">
<path fill="none" stroke="#63b8ff" d="M177.47,-125.83C160.79,-115.11 139,-101.1 122.4,-90.43"/>
<polygon fill="#63b8ff" stroke="#63b8ff" points="124.4,-87.55 114.1,-85.09 120.62,-93.44 124.4,-87.55"/>
</a>
</g>
</g>
<!-- Node4 -->
<g id="Node000004" class="node">
<title>Node4</title>
<g id="a_Node000004"><a xlink:title=" ">
<polygon fill="#e0e0e0" stroke="#999999" points="174.12,-83.88 143.12,-83.88 143.12,-63.12 174.12,-63.12 174.12,-83.88"/>
<text text-anchor="middle" x="158.62" y="-70.38" font-family="Helvetica,sans-Serif" font-size="10.00">set</text>
</a>
</g>
</g>
<!-- Node1&#45;&gt;Node4 -->
<g id="edge3_Node000001_Node000004" class="edge">
<title>Node1&#45;&gt;Node4</title>
<g id="a_edge3_Node000001_Node000004"><a xlink:title=" ">
<path fill="none" stroke="#63b8ff" d="M192.2,-126C185.94,-116.4 177.93,-104.11 171.3,-93.94"/>
<polygon fill="#63b8ff" stroke="#63b8ff" points="174.25,-92.06 165.85,-85.59 168.38,-95.88 174.25,-92.06"/>
</a>
</g>
</g>
<!-- Node5 -->
<g id="Node000005" class="node">
<title>Node5</title>
<g id="a_Node000005"><a xlink:title=" ">
<polygon fill="#e0e0e0" stroke="#999999" points="265.88,-20.75 215.38,-20.75 215.38,0 265.88,0 265.88,-20.75"/>
<text text-anchor="middle" x="240.62" y="-7.25" font-family="Helvetica,sans-Serif" font-size="10.00">variant</text>
</a>
</g>
</g>
<!-- Node1&#45;&gt;Node5 -->
<g id="edge4_Node000001_Node000005" class="edge">
<title>Node1&#45;&gt;Node5</title>
<g id="a_edge4_Node000001_Node000005"><a xlink:title=" ">
<path fill="none" stroke="#63b8ff" d="M205.3,-126.07C208.41,-108.77 214.09,-80.45 221.62,-56.75 224.34,-48.22 228.01,-39.07 231.41,-31.23"/>
<polygon fill="#63b8ff" stroke="#63b8ff" points="234.52,-32.86 235.42,-22.31 228.13,-29.99 234.52,-32.86"/>
</a>
</g>
</g>
<!-- Node6 -->
<g id="Node000006" class="node">
<title>Node6</title>
<g id="a_Node000006"><a xlink:href="comparator_8hh.html" target="_top" xlink:title=" ">
<polygon fill="white" stroke="#666666" points="476.75,-83.88 344.5,-83.88 344.5,-63.12 476.75,-63.12 476.75,-83.88"/>
<text text-anchor="middle" x="410.62" y="-70.38" font-family="Helvetica,sans-Serif" font-size="10.00">lix/libutil/comparator.hh</text>
</a>
</g>
</g>
<!-- Node1&#45;&gt;Node6 -->
<g id="edge5_Node000001_Node000006" class="edge">
<title>Node1&#45;&gt;Node6</title>
<g id="a_edge5_Node000001_Node000006"><a xlink:title=" ">
<path fill="none" stroke="#63b8ff" d="M252.45,-125.83C288.19,-114.23 335.77,-98.79 369.39,-87.88"/>
<polygon fill="#63b8ff" stroke="#63b8ff" points="370.34,-91.25 378.77,-84.84 368.18,-84.59 370.34,-91.25"/>
</a>
</g>
</g>
<!-- Node8 -->
<g id="Node000008" class="node">
<title>Node8</title>
<g id="a_Node000008"><a xlink:href="json-fwd_8hh_source.html" target="_top" xlink:title=" ">
<polygon fill="white" stroke="#666666" points="612.62,-83.88 494.62,-83.88 494.62,-63.12 612.62,-63.12 612.62,-83.88"/>
<text text-anchor="middle" x="553.62" y="-70.38" font-family="Helvetica,sans-Serif" font-size="10.00">lix/libutil/json&#45;fwd.hh</text>
</a>
</g>
</g>
<!-- Node1&#45;&gt;Node8 -->
<g id="edge7_Node000001_Node000008" class="edge">
<title>Node1&#45;&gt;Node8</title>
<g id="a_edge7_Node000001_Node000008"><a xlink:title=" ">
<path fill="none" stroke="#63b8ff" d="M256.76,-132.88C313.83,-123.08 406.27,-106.69 485.62,-90.25 490.84,-89.17 496.27,-88 501.68,-86.79"/>
<polygon fill="#63b8ff" stroke="#63b8ff" points="502.24,-90.26 511.22,-84.64 500.7,-83.43 502.24,-90.26"/>
</a>
</g>
</g>
<!-- Node11 -->
<g id="Node000011" class="node">
<title>Node11</title>
<g id="a_Node000011"><a xlink:href="variant-wrapper_8hh.html" target="_top" xlink:title=" ">
<polygon fill="white" stroke="#666666" points="326.75,-90.25 230.5,-90.25 230.5,-56.75 326.75,-56.75 326.75,-90.25"/>
<text text-anchor="start" x="238.5" y="-76.75" font-family="Helvetica,sans-Serif" font-size="10.00">lix/libutil/variant</text>
<text text-anchor="middle" x="278.62" y="-64" font-family="Helvetica,sans-Serif" font-size="10.00">&#45;wrapper.hh</text>
</a>
</g>
</g>
<!-- Node1&#45;&gt;Node11 -->
<g id="edge10_Node000001_Node000011" class="edge">
<title>Node1&#45;&gt;Node11</title>
<g id="a_edge10_Node000001_Node000011"><a xlink:title=" ">
<path fill="none" stroke="#63b8ff" d="M220.64,-126C230.03,-117.66 241.71,-107.29 252.11,-98.05"/>
<polygon fill="#63b8ff" stroke="#63b8ff" points="254.2,-100.88 259.35,-91.62 249.55,-95.64 254.2,-100.88"/>
</a>
</g>
</g>
<!-- Node7 -->
<g id="Node000007" class="node">
<title>Node7</title>
<g id="a_Node000007"><a xlink:title=" ">
<polygon fill="#e0e0e0" stroke="#999999" points="431,-20.75 390.25,-20.75 390.25,0 431,0 431,-20.75"/>
<text text-anchor="middle" x="410.62" y="-7.25" font-family="Helvetica,sans-Serif" font-size="10.00">tuple</text>
</a>
</g>
</g>
<!-- Node6&#45;&gt;Node7 -->
<g id="edge6_Node000006_Node000007" class="edge">
<title>Node6&#45;&gt;Node7</title>
<g id="a_edge6_Node000006_Node000007"><a xlink:title=" ">
<path fill="none" stroke="#63b8ff" d="M410.62,-62.68C410.62,-54.52 410.62,-42.63 410.62,-32.35"/>
<polygon fill="#63b8ff" stroke="#63b8ff" points="414.13,-32.48 410.63,-22.48 407.13,-32.48 414.13,-32.48"/>
</a>
</g>
</g>
<!-- Node9 -->
<g id="Node000009" class="node">
<title>Node9</title>
<g id="a_Node000009"><a xlink:title=" ">
<polygon fill="#e0e0e0" stroke="#999999" points="599.38,-20.75 467.88,-20.75 467.88,0 599.38,0 599.38,-20.75"/>
<text text-anchor="middle" x="533.62" y="-7.25" font-family="Helvetica,sans-Serif" font-size="10.00">nlohmann/json_fwd.hpp</text>
</a>
</g>
</g>
<!-- Node8&#45;&gt;Node9 -->
<g id="edge8_Node000008_Node000009" class="edge">
<title>Node8&#45;&gt;Node9</title>
<g id="a_edge8_Node000008_Node000009"><a xlink:title=" ">
<path fill="none" stroke="#63b8ff" d="M550.41,-62.68C547.68,-54.34 543.68,-42.11 540.27,-31.68"/>
<polygon fill="#63b8ff" stroke="#63b8ff" points="543.67,-30.82 537.24,-22.41 537.02,-33 543.67,-30.82"/>
</a>
</g>
</g>
<!-- Node10 -->
<g id="Node000010" class="node">
<title>Node10</title>
<g id="a_Node000010"><a xlink:title=" ">
<polygon fill="#e0e0e0" stroke="#999999" points="685.88,-20.75 617.38,-20.75 617.38,0 685.88,0 685.88,-20.75"/>
<text text-anchor="middle" x="651.62" y="-7.25" font-family="Helvetica,sans-Serif" font-size="10.00">type_traits</text>
</a>
</g>
</g>
<!-- Node8&#45;&gt;Node10 -->
<g id="edge9_Node000008_Node000010" class="edge">
<title>Node8&#45;&gt;Node10</title>
<g id="a_edge9_Node000008_Node000010"><a xlink:title=" ">
<path fill="none" stroke="#63b8ff" d="M569.37,-62.68C584.73,-53.1 608.34,-38.37 626.33,-27.15"/>
<polygon fill="#63b8ff" stroke="#63b8ff" points="628,-30.23 634.63,-21.97 624.3,-24.29 628,-30.23"/>
</a>
</g>
</g>
<!-- Node11&#45;&gt;Node5 -->
<g id="edge11_Node000011_Node000005" class="edge">
<title>Node11&#45;&gt;Node5</title>
<g id="a_edge11_Node000011_Node000005"><a xlink:title=" ">
<path fill="none" stroke="#63b8ff" d="M268.64,-56.44C263.76,-48.58 257.83,-39.06 252.7,-30.79"/>
<polygon fill="#63b8ff" stroke="#63b8ff" points="255.79,-29.15 247.54,-22.5 249.85,-32.84 255.79,-29.15"/>
</a>
</g>
</g>
</g>
</svg>
