<?xml version="1.0" encoding="UTF-8" standalone="no"?>
<!DOCTYPE svg PUBLIC "-//W3C//DTD SVG 1.1//EN"
 "http://www.w3.org/Graphics/SVG/1.1/DTD/svg11.dtd">
<!-- Generated by graphviz version 12.2.1 (0)
 -->
<!-- Title: lix/libstore/pathlocks.hh Pages: 1 -->
<svg width="270pt" height="168pt"
 viewBox="0.00 0.00 269.50 167.75" xmlns="http://www.w3.org/2000/svg" xmlns:xlink="http://www.w3.org/1999/xlink">
<g id="graph0" class="graph" transform="scale(1 1) rotate(0) translate(4 163.75)">
<title>lix/libstore/pathlocks.hh</title>
<!-- Node1 -->
<g id="Node000001" class="node">
<title>Node1</title>
<g id="a_Node000001"><a xlink:title=" ">
<polygon fill="#999999" stroke="#666666" points="200.12,-159.75 67.12,-159.75 67.12,-139 200.12,-139 200.12,-159.75"/>
<text text-anchor="middle" x="133.62" y="-146.25" font-family="Helvetica,sans-Serif" font-size="10.00">lix/libstore/pathlocks.hh</text>
</a>
</g>
</g>
<!-- Node2 -->
<g id="Node000002" class="node">
<title>Node2</title>
<g id="a_Node000002"><a xlink:href="derivation-goal_8hh.html" target="_top" xlink:title=" ">
<polygon fill="white" stroke="#666666" points="121.75,-103 13.5,-103 13.5,-69.5 121.75,-69.5 121.75,-103"/>
<text text-anchor="start" x="21.5" y="-89.5" font-family="Helvetica,sans-Serif" font-size="10.00">lix/libstore/build</text>
<text text-anchor="middle" x="67.62" y="-76.75" font-family="Helvetica,sans-Serif" font-size="10.00">/derivation&#45;goal.hh</text>
</a>
</g>
</g>
<!-- Node1&#45;&gt;Node2 -->
<g id="edge1_Node000001_Node000002" class="edge">
<title>Node1&#45;&gt;Node2</title>
<g id="a_edge1_Node000001_Node000002"><a xlink:title=" ">
<path fill="none" stroke="#63b8ff" d="M114.78,-130.93C105.47,-122.3 94.29,-111.94 85.15,-103.48"/>
<polygon fill="#63b8ff" stroke="#63b8ff" points="112.2,-133.3 121.91,-137.53 116.95,-128.16 112.2,-133.3"/>
</a>
</g>
</g>
<!-- Node4 -->
<g id="Node000004" class="node">
<title>Node4</title>
<g id="a_Node000004"><a xlink:href="profiles_8hh_source.html" target="_top" xlink:title=" ">
<polygon fill="white" stroke="#666666" points="261.5,-96.62 139.75,-96.62 139.75,-75.88 261.5,-75.88 261.5,-96.62"/>
<text text-anchor="middle" x="200.62" y="-83.12" font-family="Helvetica,sans-Serif" font-size="10.00">lix/libstore/profiles.hh</text>
</a>
</g>
</g>
<!-- Node1&#45;&gt;Node4 -->
<g id="edge3_Node000001_Node000004" class="edge">
<title>Node1&#45;&gt;Node4</title>
<g id="a_edge3_Node000001_Node000004"><a xlink:title=" ">
<path fill="none" stroke="#63b8ff" d="M152.56,-131.1C164.73,-120 180.07,-106 190.11,-96.84"/>
<polygon fill="#63b8ff" stroke="#63b8ff" points="150.54,-128.21 145.51,-137.53 155.25,-133.38 150.54,-128.21"/>
</a>
</g>
</g>
<!-- Node3 -->
<g id="Node000003" class="node">
<title>Node3</title>
<g id="a_Node000003"><a xlink:href="local-derivation-goal_8hh.html" target="_top" xlink:title=" ">
<polygon fill="white" stroke="#666666" points="135.25,-33.5 0,-33.5 0,0 135.25,0 135.25,-33.5"/>
<text text-anchor="start" x="8" y="-20" font-family="Helvetica,sans-Serif" font-size="10.00">lix/libstore/build</text>
<text text-anchor="middle" x="67.62" y="-7.25" font-family="Helvetica,sans-Serif" font-size="10.00">/local&#45;derivation&#45;goal.hh</text>
</a>
</g>
</g>
<!-- Node2&#45;&gt;Node3 -->
<g id="edge2_Node000002_Node000003" class="edge">
<title>Node2&#45;&gt;Node3</title>
<g id="a_edge2_Node000002_Node000003"><a xlink:title=" ">
<path fill="none" stroke="#63b8ff" d="M67.62,-57.81C67.62,-49.59 67.62,-40.84 67.62,-33.63"/>
<polygon fill="#63b8ff" stroke="#63b8ff" points="64.13,-57.74 67.63,-67.74 71.13,-57.74 64.13,-57.74"/>
</a>
</g>
</g>
</g>
</svg>
