<?xml version="1.0" encoding="UTF-8" standalone="no"?>
<!DOCTYPE svg PUBLIC "-//W3C//DTD SVG 1.1//EN"
 "http://www.w3.org/Graphics/SVG/1.1/DTD/svg11.dtd">
<!-- Generated by graphviz version 12.2.1 (0)
 -->
<!-- Title: lix/libstore/path.hh Pages: 1 -->
<svg width="561pt" height="142pt"
 viewBox="0.00 0.00 560.75 142.25" xmlns="http://www.w3.org/2000/svg" xmlns:xlink="http://www.w3.org/1999/xlink">
<g id="graph0" class="graph" transform="scale(1 1) rotate(0) translate(4 138.25)">
<title>lix/libstore/path.hh</title>
<!-- Node1 -->
<g id="Node000001" class="node">
<title>Node1</title>
<g id="a_Node000001"><a xlink:title=" ">
<polygon fill="#999999" stroke="#666666" points="165.88,-134.25 58.38,-134.25 58.38,-113.5 165.88,-113.5 165.88,-134.25"/>
<text text-anchor="middle" x="112.12" y="-120.75" font-family="Helvetica,sans-Serif" font-size="10.00">lix/libstore/path.hh</text>
</a>
</g>
</g>
<!-- Node2 -->
<g id="Node000002" class="node">
<title>Node2</title>
<g id="a_Node000002"><a xlink:title=" ">
<polygon fill="#e0e0e0" stroke="#999999" points="72.25,-20.75 0,-20.75 0,0 72.25,0 72.25,-20.75"/>
<text text-anchor="middle" x="36.12" y="-7.25" font-family="Helvetica,sans-Serif" font-size="10.00">string_view</text>
</a>
</g>
</g>
<!-- Node1&#45;&gt;Node2 -->
<g id="edge1_Node000001_Node000002" class="edge">
<title>Node1&#45;&gt;Node2</title>
<g id="a_edge1_Node000001_Node000002"><a xlink:title=" ">
<path fill="none" stroke="#63b8ff" d="M105.65,-113.37C93.14,-95.03 65.49,-54.45 49.07,-30.37"/>
<polygon fill="#63b8ff" stroke="#63b8ff" points="52.18,-28.72 43.66,-22.43 46.4,-32.66 52.18,-28.72"/>
</a>
</g>
</g>
<!-- Node3 -->
<g id="Node000003" class="node">
<title>Node3</title>
<g id="a_Node000003"><a xlink:title=" ">
<polygon fill="#e0e0e0" stroke="#999999" points="134,-20.75 90.25,-20.75 90.25,0 134,0 134,-20.75"/>
<text text-anchor="middle" x="112.12" y="-7.25" font-family="Helvetica,sans-Serif" font-size="10.00">string</text>
</a>
</g>
</g>
<!-- Node1&#45;&gt;Node3 -->
<g id="edge2_Node000001_Node000003" class="edge">
<title>Node1&#45;&gt;Node3</title>
<g id="a_edge2_Node000001_Node000003"><a xlink:title=" ">
<path fill="none" stroke="#63b8ff" d="M112.12,-113.37C112.12,-95.6 112.12,-56.97 112.12,-32.68"/>
<polygon fill="#63b8ff" stroke="#63b8ff" points="115.63,-32.69 112.13,-22.69 108.63,-32.69 115.63,-32.69"/>
</a>
</g>
</g>
<!-- Node4 -->
<g id="Node000004" class="node">
<title>Node4</title>
<g id="a_Node000004"><a xlink:href="types_8hh.html" target="_top" xlink:title=" ">
<polygon fill="white" stroke="#666666" points="320,-77.5 216.25,-77.5 216.25,-56.75 320,-56.75 320,-77.5"/>
<text text-anchor="middle" x="268.12" y="-64" font-family="Helvetica,sans-Serif" font-size="10.00">lix/libutil/types.hh</text>
</a>
</g>
</g>
<!-- Node1&#45;&gt;Node4 -->
<g id="edge3_Node000001_Node000004" class="edge">
<title>Node1&#45;&gt;Node4</title>
<g id="a_edge3_Node000001_Node000004"><a xlink:title=" ">
<path fill="none" stroke="#63b8ff" d="M140.01,-113.09C165,-104.32 201.9,-91.37 229.68,-81.62"/>
<polygon fill="#63b8ff" stroke="#63b8ff" points="230.51,-85.04 238.79,-78.42 228.19,-78.43 230.51,-85.04"/>
</a>
</g>
</g>
<!-- Node4&#45;&gt;Node2 -->
<g id="edge8_Node000004_Node000002" class="edge">
<title>Node4&#45;&gt;Node2</title>
<g id="a_edge8_Node000004_Node000002"><a xlink:title=" ">
<path fill="none" stroke="#63b8ff" d="M226.38,-56.27C186.23,-46.8 125.6,-32.49 83.62,-22.58"/>
<polygon fill="#63b8ff" stroke="#63b8ff" points="84.58,-19.21 74.05,-20.32 82.98,-26.03 84.58,-19.21"/>
</a>
</g>
</g>
<!-- Node4&#45;&gt;Node3 -->
<g id="edge7_Node000004_Node000003" class="edge">
<title>Node4&#45;&gt;Node3</title>
<g id="a_edge7_Node000004_Node000003"><a xlink:title=" ">
<path fill="none" stroke="#63b8ff" d="M240.24,-56.34C213.47,-46.94 173.04,-32.75 144.78,-22.84"/>
<polygon fill="#63b8ff" stroke="#63b8ff" points="146.25,-19.64 135.66,-19.63 143.94,-26.25 146.25,-19.64"/>
</a>
</g>
</g>
<!-- Node5 -->
<g id="Node000005" class="node">
<title>Node5</title>
<g id="a_Node000005"><a xlink:title=" ">
<polygon fill="#e0e0e0" stroke="#999999" points="253.62,-20.75 222.62,-20.75 222.62,0 253.62,0 253.62,-20.75"/>
<text text-anchor="middle" x="238.12" y="-7.25" font-family="Helvetica,sans-Serif" font-size="10.00">list</text>
</a>
</g>
</g>
<!-- Node4&#45;&gt;Node5 -->
<g id="edge4_Node000004_Node000005" class="edge">
<title>Node4&#45;&gt;Node5</title>
<g id="a_edge4_Node000004_Node000005"><a xlink:title=" ">
<path fill="none" stroke="#63b8ff" d="M262.76,-56.34C258.92,-49.33 253.62,-39.66 248.92,-31.08"/>
<polygon fill="#63b8ff" stroke="#63b8ff" points="252.04,-29.49 244.17,-22.41 245.91,-32.86 252.04,-29.49"/>
</a>
</g>
</g>
<!-- Node6 -->
<g id="Node000006" class="node">
<title>Node6</title>
<g id="a_Node000006"><a xlink:title=" ">
<polygon fill="#e0e0e0" stroke="#999999" points="327,-20.75 271.25,-20.75 271.25,0 327,0 327,-20.75"/>
<text text-anchor="middle" x="299.12" y="-7.25" font-family="Helvetica,sans-Serif" font-size="10.00">optional</text>
</a>
</g>
</g>
<!-- Node4&#45;&gt;Node6 -->
<g id="edge5_Node000004_Node000006" class="edge">
<title>Node4&#45;&gt;Node6</title>
<g id="a_edge5_Node000004_Node000006"><a xlink:title=" ">
<path fill="none" stroke="#63b8ff" d="M273.67,-56.34C277.63,-49.33 283.11,-39.66 287.97,-31.08"/>
<polygon fill="#63b8ff" stroke="#63b8ff" points="291,-32.82 292.89,-22.4 284.91,-29.37 291,-32.82"/>
</a>
</g>
</g>
<!-- Node7 -->
<g id="Node000007" class="node">
<title>Node7</title>
<g id="a_Node000007"><a xlink:title=" ">
<polygon fill="#e0e0e0" stroke="#999999" points="375.62,-20.75 344.62,-20.75 344.62,0 375.62,0 375.62,-20.75"/>
<text text-anchor="middle" x="360.12" y="-7.25" font-family="Helvetica,sans-Serif" font-size="10.00">set</text>
</a>
</g>
</g>
<!-- Node4&#45;&gt;Node7 -->
<g id="edge6_Node000004_Node000007" class="edge">
<title>Node4&#45;&gt;Node7</title>
<g id="a_edge6_Node000004_Node000007"><a xlink:title=" ">
<path fill="none" stroke="#63b8ff" d="M284.57,-56.34C298.39,-48.11 318.39,-36.21 334.34,-26.72"/>
<polygon fill="#63b8ff" stroke="#63b8ff" points="336.02,-29.79 342.83,-21.67 332.44,-23.78 336.02,-29.79"/>
</a>
</g>
</g>
<!-- Node8 -->
<g id="Node000008" class="node">
<title>Node8</title>
<g id="a_Node000008"><a xlink:title=" ">
<polygon fill="#e0e0e0" stroke="#999999" points="431,-20.75 393.25,-20.75 393.25,0 431,0 431,-20.75"/>
<text text-anchor="middle" x="412.12" y="-7.25" font-family="Helvetica,sans-Serif" font-size="10.00">map</text>
</a>
</g>
</g>
<!-- Node4&#45;&gt;Node8 -->
<g id="edge9_Node000004_Node000008" class="edge">
<title>Node4&#45;&gt;Node8</title>
<g id="a_edge9_Node000004_Node000008"><a xlink:title=" ">
<path fill="none" stroke="#63b8ff" d="M293.87,-56.34C318.67,-46.91 356.18,-32.64 382.28,-22.72"/>
<polygon fill="#63b8ff" stroke="#63b8ff" points="383.52,-25.99 391.63,-19.17 381.03,-19.45 383.52,-25.99"/>
</a>
</g>
</g>
<!-- Node9 -->
<g id="Node000009" class="node">
<title>Node9</title>
<g id="a_Node000009"><a xlink:title=" ">
<polygon fill="#e0e0e0" stroke="#999999" points="495.5,-20.75 448.75,-20.75 448.75,0 495.5,0 495.5,-20.75"/>
<text text-anchor="middle" x="472.12" y="-7.25" font-family="Helvetica,sans-Serif" font-size="10.00">vector</text>
</a>
</g>
</g>
<!-- Node4&#45;&gt;Node9 -->
<g id="edge10_Node000004_Node000009" class="edge">
<title>Node4&#45;&gt;Node9</title>
<g id="a_edge10_Node000004_Node000009"><a xlink:title=" ">
<path fill="none" stroke="#63b8ff" d="M306.46,-56.33C338.98,-47.95 387.15,-35.37 437.31,-21.49"/>
<polygon fill="#63b8ff" stroke="#63b8ff" points="438.22,-24.86 446.92,-18.81 436.35,-18.12 438.22,-24.86"/>
</a>
</g>
</g>
<!-- Node10 -->
<g id="Node000010" class="node">
<title>Node10</title>
<g id="a_Node000010"><a xlink:title=" ">
<polygon fill="#e0e0e0" stroke="#999999" points="552.75,-20.75 513.5,-20.75 513.5,0 552.75,0 552.75,-20.75"/>
<text text-anchor="middle" x="533.12" y="-7.25" font-family="Helvetica,sans-Serif" font-size="10.00">span</text>
</a>
</g>
</g>
<!-- Node4&#45;&gt;Node10 -->
<g id="edge11_Node000004_Node000010" class="edge">
<title>Node4&#45;&gt;Node10</title>
<g id="a_edge11_Node000004_Node000010"><a xlink:title=" ">
<path fill="none" stroke="#63b8ff" d="M320.09,-58.02C365.74,-50.48 434.11,-38.16 502.31,-20.96"/>
<polygon fill="#63b8ff" stroke="#63b8ff" points="502.97,-24.4 511.78,-18.53 501.23,-17.62 502.97,-24.4"/>
</a>
</g>
</g>
<!-- Node11 -->
<g id="Node000011" class="node">
<title>Node11</title>
<g id="a_Node000011"><a xlink:title=" ">
<polygon fill="#e0e0e0" stroke="#999999" points="204.5,-20.75 151.75,-20.75 151.75,0 204.5,0 204.5,-20.75"/>
<text text-anchor="middle" x="178.12" y="-7.25" font-family="Helvetica,sans-Serif" font-size="10.00">stdint.h</text>
</a>
</g>
</g>
<!-- Node4&#45;&gt;Node11 -->
<g id="edge12_Node000004_Node000011" class="edge">
<title>Node4&#45;&gt;Node11</title>
<g id="a_edge12_Node000004_Node000011"><a xlink:title=" ">
<path fill="none" stroke="#63b8ff" d="M252.03,-56.34C238.6,-48.16 219.19,-36.36 203.64,-26.9"/>
<polygon fill="#63b8ff" stroke="#63b8ff" points="205.73,-24.07 195.37,-21.87 202.09,-30.05 205.73,-24.07"/>
</a>
</g>
</g>
</g>
</svg>
