<?xml version="1.0" encoding="UTF-8" standalone="no"?>
<!DOCTYPE svg PUBLIC "-//W3C//DTD SVG 1.1//EN"
 "http://www.w3.org/Graphics/SVG/1.1/DTD/svg11.dtd">
<!-- Generated by graphviz version 12.2.1 (0)
 -->
<!-- Title: lix/libexpr/pos&#45;idx.hh Pages: 1 -->
<svg width="1590pt" height="591pt"
 viewBox="0.00 0.00 1590.12 590.50" xmlns="http://www.w3.org/2000/svg" xmlns:xlink="http://www.w3.org/1999/xlink">
<g id="graph0" class="graph" transform="scale(1 1) rotate(0) translate(4 586.5)">
<title>lix/libexpr/pos&#45;idx.hh</title>
<!-- Node1 -->
<g id="Node000001" class="node">
<title>Node1</title>
<g id="a_Node000001"><a xlink:title=" ">
<polygon fill="#999999" stroke="#666666" points="697.5,-582.5 578.75,-582.5 578.75,-561.75 697.5,-561.75 697.5,-582.5"/>
<text text-anchor="middle" x="638.12" y="-569" font-family="Helvetica,sans-Serif" font-size="10.00">lix/libexpr/pos&#45;idx.hh</text>
</a>
</g>
</g>
<!-- Node2 -->
<g id="Node000002" class="node">
<title>Node2</title>
<g id="a_Node000002"><a xlink:href="eval-error_8hh.html" target="_top" xlink:title=" ">
<polygon fill="white" stroke="#666666" points="747.12,-469 617.12,-469 617.12,-448.25 747.12,-448.25 747.12,-469"/>
<text text-anchor="middle" x="682.12" y="-455.5" font-family="Helvetica,sans-Serif" font-size="10.00">lix/libexpr/eval&#45;error.hh</text>
</a>
</g>
</g>
<!-- Node1&#45;&gt;Node2 -->
<g id="edge1_Node000001_Node000002" class="edge">
<title>Node1&#45;&gt;Node2</title>
<g id="a_edge1_Node000001_Node000002"><a xlink:title=" ">
<path fill="none" stroke="#63b8ff" d="M651.24,-551.86C656.13,-544.02 661.4,-534.71 665.12,-525.75 673.14,-506.49 678.17,-482.46 680.53,-469.32"/>
<polygon fill="#63b8ff" stroke="#63b8ff" points="648.34,-549.91 645.81,-560.19 654.2,-553.73 648.34,-549.91"/>
</a>
</g>
</g>
<!-- Node23 -->
<g id="Node000023" class="node">
<title>Node23</title>
<g id="a_Node000023"><a xlink:href="nixexpr_8hh.html" target="_top" xlink:title=" ">
<polygon fill="white" stroke="#666666" points="564.12,-412.25 446.12,-412.25 446.12,-391.5 564.12,-391.5 564.12,-412.25"/>
<text text-anchor="middle" x="505.12" y="-398.75" font-family="Helvetica,sans-Serif" font-size="10.00">lix/libexpr/nixexpr.hh</text>
</a>
</g>
</g>
<!-- Node1&#45;&gt;Node23 -->
<g id="edge43_Node000001_Node000023" class="edge">
<title>Node1&#45;&gt;Node23</title>
<g id="a_edge43_Node000001_Node000023"><a xlink:title=" ">
<path fill="none" stroke="#63b8ff" d="M567.69,-558.24C549.26,-551.52 531.19,-541.3 519.12,-525.75 492.67,-491.66 499.13,-435.35 503.12,-412.73"/>
<polygon fill="#63b8ff" stroke="#63b8ff" points="566.51,-561.54 577.11,-561.34 568.7,-554.89 566.51,-561.54"/>
</a>
</g>
</g>
<!-- Node25 -->
<g id="Node000025" class="node">
<title>Node25</title>
<g id="a_Node000025"><a xlink:href="extra-primops_8hh.html" target="_top" xlink:title=" ">
<polygon fill="white" stroke="#666666" points="864,-525.75 712.25,-525.75 712.25,-505 864,-505 864,-525.75"/>
<text text-anchor="middle" x="788.12" y="-512.25" font-family="Helvetica,sans-Serif" font-size="10.00">lix/libexpr/extra&#45;primops.hh</text>
</a>
</g>
</g>
<!-- Node1&#45;&gt;Node25 -->
<g id="edge42_Node000001_Node000025" class="edge">
<title>Node1&#45;&gt;Node25</title>
<g id="a_edge42_Node000001_Node000025"><a xlink:title=" ">
<path fill="none" stroke="#63b8ff" d="M675.42,-557.51C702.09,-547.78 737.36,-534.9 761.29,-526.17"/>
<polygon fill="#63b8ff" stroke="#63b8ff" points="674.56,-554.1 666.36,-560.82 676.96,-560.68 674.56,-554.1"/>
</a>
</g>
</g>
<!-- Node26 -->
<g id="Node000026" class="node">
<title>Node26</title>
<g id="a_Node000026"><a xlink:href="pos-table_8hh.html" target="_top" xlink:title=" ">
<polygon fill="white" stroke="#666666" points="656.38,-525.75 527.88,-525.75 527.88,-505 656.38,-505 656.38,-525.75"/>
<text text-anchor="middle" x="592.12" y="-512.25" font-family="Helvetica,sans-Serif" font-size="10.00">lix/libexpr/pos&#45;table.hh</text>
</a>
</g>
</g>
<!-- Node1&#45;&gt;Node26 -->
<g id="edge44_Node000001_Node000026" class="edge">
<title>Node1&#45;&gt;Node26</title>
<g id="a_edge44_Node000001_Node000026"><a xlink:title=" ">
<path fill="none" stroke="#63b8ff" d="M622.68,-552.74C615.18,-543.81 606.47,-533.45 600.28,-526.08"/>
<polygon fill="#63b8ff" stroke="#63b8ff" points="619.81,-554.77 628.93,-560.18 625.17,-550.27 619.81,-554.77"/>
</a>
</g>
</g>
<!-- Node3 -->
<g id="Node000003" class="node">
<title>Node3</title>
<g id="a_Node000003"><a xlink:href="common-eval-args_8hh.html" target="_top" xlink:title=" ">
<polygon fill="white" stroke="#666666" points="1521.38,-172.5 1386.88,-172.5 1386.88,-139 1521.38,-139 1521.38,-172.5"/>
<text text-anchor="start" x="1394.88" y="-159" font-family="Helvetica,sans-Serif" font-size="10.00">lix/libcmd/common&#45;eval</text>
<text text-anchor="middle" x="1454.12" y="-146.25" font-family="Helvetica,sans-Serif" font-size="10.00">&#45;args.hh</text>
</a>
</g>
</g>
<!-- Node2&#45;&gt;Node3 -->
<g id="edge2_Node000002_Node000003" class="edge">
<title>Node2&#45;&gt;Node3</title>
<g id="a_edge2_Node000002_Node000003"><a xlink:title=" ">
<path fill="none" stroke="#63b8ff" d="M758.88,-456.12C976.55,-450.86 1582.12,-428.78 1582.12,-346.12 1582.12,-346.12 1582.12,-346.12 1582.12,-287.38 1582.12,-248.07 1569.04,-237.15 1542.12,-208.5 1528.05,-193.52 1508.66,-181.49 1491.66,-172.81"/>
<polygon fill="#63b8ff" stroke="#63b8ff" points="759,-452.62 749.09,-456.36 759.17,-459.62 759,-452.62"/>
</a>
</g>
</g>
<!-- Node7 -->
<g id="Node000007" class="node">
<title>Node7</title>
<g id="a_Node000007"><a xlink:href="eval-inline_8hh.html" target="_top" xlink:title=" ">
<polygon fill="white" stroke="#666666" points="841.38,-355.5 706.88,-355.5 706.88,-334.75 841.38,-334.75 841.38,-355.5"/>
<text text-anchor="middle" x="774.12" y="-342" font-family="Helvetica,sans-Serif" font-size="10.00">lix/libexpr/eval&#45;inline.hh</text>
</a>
</g>
</g>
<!-- Node2&#45;&gt;Node7 -->
<g id="edge7_Node000002_Node000007" class="edge">
<title>Node2&#45;&gt;Node7</title>
<g id="a_edge7_Node000002_Node000007"><a xlink:title=" ">
<path fill="none" stroke="#63b8ff" d="M697.22,-439.33C716.91,-415.47 750.64,-374.58 766.04,-355.93"/>
<polygon fill="#63b8ff" stroke="#63b8ff" points="694.6,-437.01 690.93,-446.95 700,-441.47 694.6,-437.01"/>
</a>
</g>
</g>
<!-- Node8 -->
<g id="Node000008" class="node">
<title>Node8</title>
<g id="a_Node000008"><a xlink:href="libexpr_2eval_8hh.html" target="_top" xlink:title=" ">
<polygon fill="white" stroke="#666666" points="779,-298.75 675.25,-298.75 675.25,-278 779,-278 779,-298.75"/>
<text text-anchor="middle" x="727.12" y="-285.25" font-family="Helvetica,sans-Serif" font-size="10.00">lix/libexpr/eval.hh</text>
</a>
</g>
</g>
<!-- Node2&#45;&gt;Node8 -->
<g id="edge35_Node000002_Node000008" class="edge">
<title>Node2&#45;&gt;Node8</title>
<g id="a_edge35_Node000002_Node000008"><a xlink:title=" ">
<path fill="none" stroke="#63b8ff" d="M682.1,-436.74C682.68,-411.75 685.66,-369.01 698.12,-334.75 702.99,-321.4 712.3,-307.9 719.06,-299.14"/>
<polygon fill="#63b8ff" stroke="#63b8ff" points="678.6,-436.49 681.99,-446.53 685.6,-436.57 678.6,-436.49"/>
</a>
</g>
</g>
<!-- Node2&#45;&gt;Node23 -->
<g id="edge36_Node000002_Node000023" class="edge">
<title>Node2&#45;&gt;Node23</title>
<g id="a_edge36_Node000002_Node000023"><a xlink:title=" ">
<path fill="none" stroke="#63b8ff" d="M639.78,-444.53C608.13,-434.74 565.53,-421.56 536.79,-412.67"/>
<polygon fill="#63b8ff" stroke="#63b8ff" points="638.45,-447.78 649.03,-447.39 640.52,-441.09 638.45,-447.78"/>
</a>
</g>
</g>
<!-- Node4 -->
<g id="Node000004" class="node">
<title>Node4</title>
<g id="a_Node000004"><a xlink:href="command_8hh.html" target="_top" xlink:title=" ">
<polygon fill="white" stroke="#666666" points="1314.5,-96.62 1183.75,-96.62 1183.75,-75.88 1314.5,-75.88 1314.5,-96.62"/>
<text text-anchor="middle" x="1249.12" y="-83.12" font-family="Helvetica,sans-Serif" font-size="10.00">lix/libcmd/command.hh</text>
</a>
</g>
</g>
<!-- Node3&#45;&gt;Node4 -->
<g id="edge3_Node000003_Node000004" class="edge">
<title>Node3&#45;&gt;Node4</title>
<g id="a_edge3_Node000003_Node000004"><a xlink:title=" ">
<path fill="none" stroke="#63b8ff" d="M1394.13,-135C1356.34,-122.55 1309.18,-107.02 1279.1,-97.12"/>
<polygon fill="#63b8ff" stroke="#63b8ff" points="1392.99,-138.31 1403.58,-138.11 1395.18,-131.66 1392.99,-138.31"/>
</a>
</g>
</g>
<!-- Node5 -->
<g id="Node000005" class="node">
<title>Node5</title>
<g id="a_Node000005"><a xlink:href="installable-attr-path_8hh.html" target="_top" xlink:title=" ">
<polygon fill="white" stroke="#666666" points="1197.12,-33.5 1079.12,-33.5 1079.12,0 1197.12,0 1197.12,-33.5"/>
<text text-anchor="start" x="1087.12" y="-20" font-family="Helvetica,sans-Serif" font-size="10.00">lix/libcmd/installable</text>
<text text-anchor="middle" x="1138.12" y="-7.25" font-family="Helvetica,sans-Serif" font-size="10.00">&#45;attr&#45;path.hh</text>
</a>
</g>
</g>
<!-- Node3&#45;&gt;Node5 -->
<g id="edge6_Node000003_Node000005" class="edge">
<title>Node3&#45;&gt;Node5</title>
<g id="a_edge6_Node000003_Node000005"><a xlink:title=" ">
<path fill="none" stroke="#63b8ff" d="M1424.8,-131.92C1399.19,-112.92 1360.39,-86.36 1323.12,-69.5 1300.72,-59.36 1242.71,-43.73 1197.57,-32.29"/>
<polygon fill="#63b8ff" stroke="#63b8ff" points="1422.63,-134.66 1432.73,-137.88 1426.84,-129.07 1422.63,-134.66"/>
</a>
</g>
</g>
<!-- Node4&#45;&gt;Node5 -->
<g id="edge4_Node000004_Node000005" class="edge">
<title>Node4&#45;&gt;Node5</title>
<g id="a_edge4_Node000004_Node000005"><a xlink:title=" ">
<path fill="none" stroke="#63b8ff" d="M1223.59,-69.72C1205.96,-59 1182.57,-44.78 1164.71,-33.92"/>
<polygon fill="#63b8ff" stroke="#63b8ff" points="1221.57,-72.59 1231.93,-74.79 1225.2,-66.61 1221.57,-72.59"/>
</a>
</g>
</g>
<!-- Node6 -->
<g id="Node000006" class="node">
<title>Node6</title>
<g id="a_Node000006"><a xlink:href="nix_2daemon_8cc.html" target="_top" xlink:title=" ">
<polygon fill="white" stroke="#666666" points="1317.25,-27.12 1215,-27.12 1215,-6.38 1317.25,-6.38 1317.25,-27.12"/>
<text text-anchor="middle" x="1266.12" y="-13.62" font-family="Helvetica,sans-Serif" font-size="10.00">lix/nix/daemon.cc</text>
</a>
</g>
</g>
<!-- Node4&#45;&gt;Node6 -->
<g id="edge5_Node000004_Node000006" class="edge">
<title>Node4&#45;&gt;Node6</title>
<g id="a_edge5_Node000004_Node000006"><a xlink:title=" ">
<path fill="none" stroke="#63b8ff" d="M1254.37,-64.44C1257.48,-52.09 1261.27,-37.02 1263.69,-27.4"/>
<polygon fill="#63b8ff" stroke="#63b8ff" points="1250.98,-63.56 1251.93,-74.11 1257.77,-65.27 1250.98,-63.56"/>
</a>
</g>
</g>
<!-- Node7&#45;&gt;Node8 -->
<g id="edge8_Node000007_Node000008" class="edge">
<title>Node7&#45;&gt;Node8</title>
<g id="a_edge8_Node000007_Node000008"><a xlink:title=" ">
<path fill="none" stroke="#63b8ff" d="M752.45,-326.3C743.94,-317.25 735.16,-306.61 730.16,-299.08"/>
<polygon fill="#63b8ff" stroke="#63b8ff" points="749.82,-328.62 759.34,-333.26 754.79,-323.69 749.82,-328.62"/>
</a>
</g>
</g>
<!-- Node8&#45;&gt;Node3 -->
<g id="edge10_Node000008_Node000003" class="edge">
<title>Node8&#45;&gt;Node3</title>
<g id="a_edge10_Node000008_Node000003"><a xlink:title=" ">
<path fill="none" stroke="#63b8ff" d="M790.81,-286.11C975.52,-282.14 1500.02,-268.57 1525.12,-242 1546.82,-219.04 1511.58,-190.51 1483.45,-172.97"/>
<polygon fill="#63b8ff" stroke="#63b8ff" points="790.83,-282.61 780.91,-286.32 790.98,-289.61 790.83,-282.61"/>
</a>
</g>
</g>
<!-- Node8&#45;&gt;Node5 -->
<g id="edge11_Node000008_Node000005" class="edge">
<title>Node8&#45;&gt;Node5</title>
<g id="a_edge11_Node000008_Node000005"><a xlink:title=" ">
<path fill="none" stroke="#63b8ff" d="M724.4,-266.36C721.54,-235.29 720.81,-176.7 749.12,-139 782.51,-94.55 801.59,-90.35 853.12,-69.5 927.48,-39.42 1019.82,-26.74 1078.86,-21.45"/>
<polygon fill="#63b8ff" stroke="#63b8ff" points="720.89,-266.45 725.46,-276.01 727.84,-265.69 720.89,-266.45"/>
</a>
</g>
</g>
<!-- Node8&#45;&gt;Node7 -->
<g id="edge26_Node000008_Node000007" class="edge">
<title>Node8&#45;&gt;Node7</title>
<g id="a_edge26_Node000008_Node000007"><a xlink:title=" ">
<path fill="none" stroke="#63b8ff" d="M748.7,-307.1C757.22,-316.14 766.01,-326.78 771.04,-334.34"/>
<polygon fill="#63b8ff" stroke="#63b8ff" points="751.34,-304.79 741.82,-300.15 746.37,-309.72 751.34,-304.79"/>
</a>
</g>
</g>
<!-- Node9 -->
<g id="Node000009" class="node">
<title>Node9</title>
<g id="a_Node000009"><a xlink:href="cmd-profiles_8hh.html" target="_top" xlink:title=" ">
<polygon fill="white" stroke="#666666" points="640.5,-166.12 497.75,-166.12 497.75,-145.38 640.5,-145.38 640.5,-166.12"/>
<text text-anchor="middle" x="569.12" y="-152.62" font-family="Helvetica,sans-Serif" font-size="10.00">lix/libcmd/cmd&#45;profiles.hh</text>
</a>
</g>
</g>
<!-- Node8&#45;&gt;Node9 -->
<g id="edge9_Node000008_Node000009" class="edge">
<title>Node8&#45;&gt;Node9</title>
<g id="a_edge9_Node000008_Node000009"><a xlink:title=" ">
<path fill="none" stroke="#63b8ff" d="M663.96,-279.72C618.07,-272.7 561.58,-260.55 547.12,-242 529.37,-219.21 549.82,-183.61 561.74,-166.53"/>
<polygon fill="#63b8ff" stroke="#63b8ff" points="663.17,-283.14 673.57,-281.13 664.18,-276.21 663.17,-283.14"/>
</a>
</g>
</g>
<!-- Node10 -->
<g id="Node000010" class="node">
<title>Node10</title>
<g id="a_Node000010"><a xlink:href="installable-flake_8hh.html" target="_top" xlink:title=" ">
<polygon fill="white" stroke="#666666" points="980.12,-103 862.12,-103 862.12,-69.5 980.12,-69.5 980.12,-103"/>
<text text-anchor="start" x="870.12" y="-89.5" font-family="Helvetica,sans-Serif" font-size="10.00">lix/libcmd/installable</text>
<text text-anchor="middle" x="921.12" y="-76.75" font-family="Helvetica,sans-Serif" font-size="10.00">&#45;flake.hh</text>
</a>
</g>
</g>
<!-- Node8&#45;&gt;Node10 -->
<g id="edge12_Node000008_Node000010" class="edge">
<title>Node8&#45;&gt;Node10</title>
<g id="a_edge12_Node000008_Node000010"><a xlink:title=" ">
<path fill="none" stroke="#63b8ff" d="M728.23,-266.17C731.01,-234.37 740.78,-174.31 775.12,-139 798,-115.48 832.23,-102.63 861.8,-95.61"/>
<polygon fill="#63b8ff" stroke="#63b8ff" points="724.74,-265.83 727.54,-276.05 731.73,-266.32 724.74,-265.83"/>
</a>
</g>
</g>
<!-- Node11 -->
<g id="Node000011" class="node">
<title>Node11</title>
<g id="a_Node000011"><a xlink:href="installable-value_8hh.html" target="_top" xlink:title=" ">
<polygon fill="white" stroke="#666666" points="1128.12,-172.5 1010.12,-172.5 1010.12,-139 1128.12,-139 1128.12,-172.5"/>
<text text-anchor="start" x="1018.12" y="-159" font-family="Helvetica,sans-Serif" font-size="10.00">lix/libcmd/installable</text>
<text text-anchor="middle" x="1069.12" y="-146.25" font-family="Helvetica,sans-Serif" font-size="10.00">&#45;value.hh</text>
</a>
</g>
</g>
<!-- Node8&#45;&gt;Node11 -->
<g id="edge13_Node000008_Node000011" class="edge">
<title>Node8&#45;&gt;Node11</title>
<g id="a_edge13_Node000008_Node000011"><a xlink:title=" ">
<path fill="none" stroke="#63b8ff" d="M790.85,-283.45C885.21,-276.99 1052.97,-262.71 1071.12,-242 1087.72,-223.08 1081.39,-191.69 1075.27,-172.74"/>
<polygon fill="#63b8ff" stroke="#63b8ff" points="790.7,-279.95 780.96,-284.12 791.17,-286.94 790.7,-279.95"/>
</a>
</g>
</g>
<!-- Node12 -->
<g id="Node000012" class="node">
<title>Node12</title>
<g id="a_Node000012"><a xlink:href="installables_8hh.html" target="_top" xlink:title=" ">
<polygon fill="white" stroke="#666666" points="912.25,-235.62 774,-235.62 774,-214.88 912.25,-214.88 912.25,-235.62"/>
<text text-anchor="middle" x="843.12" y="-222.12" font-family="Helvetica,sans-Serif" font-size="10.00">lix/libcmd/installables.hh</text>
</a>
</g>
</g>
<!-- Node8&#45;&gt;Node12 -->
<g id="edge17_Node000008_Node000012" class="edge">
<title>Node8&#45;&gt;Node12</title>
<g id="a_edge17_Node000008_Node000012"><a xlink:title=" ">
<path fill="none" stroke="#63b8ff" d="M755.93,-272.2C777.38,-260.89 806.03,-245.8 824.53,-236.05"/>
<polygon fill="#63b8ff" stroke="#63b8ff" points="754.32,-269.09 747.1,-276.85 757.58,-275.28 754.32,-269.09"/>
</a>
</g>
</g>
<!-- Node14 -->
<g id="Node000014" class="node">
<title>Node14</title>
<g id="a_Node000014"><a xlink:href="libcmd_2repl_8hh.html" target="_top" xlink:title=" ">
<polygon fill="white" stroke="#666666" points="1372.5,-235.62 1271.75,-235.62 1271.75,-214.88 1372.5,-214.88 1372.5,-235.62"/>
<text text-anchor="middle" x="1322.12" y="-222.12" font-family="Helvetica,sans-Serif" font-size="10.00">lix/libcmd/repl.hh</text>
</a>
</g>
</g>
<!-- Node8&#45;&gt;Node14 -->
<g id="edge20_Node000008_Node000014" class="edge">
<title>Node8&#45;&gt;Node14</title>
<g id="a_edge20_Node000008_Node000014"><a xlink:title=" ">
<path fill="none" stroke="#63b8ff" d="M790.75,-285.62C891.61,-282.02 1094.1,-271.48 1263.12,-242 1271.69,-240.51 1280.82,-238.35 1289.28,-236.12"/>
<polygon fill="#63b8ff" stroke="#63b8ff" points="790.64,-282.12 780.77,-285.96 790.88,-289.11 790.64,-282.12"/>
</a>
</g>
</g>
<!-- Node15 -->
<g id="Node000015" class="node">
<title>Node15</title>
<g id="a_Node000015"><a xlink:href="attr-path_8hh.html" target="_top" xlink:title=" ">
<polygon fill="white" stroke="#666666" points="1515.88,-235.62 1390.38,-235.62 1390.38,-214.88 1515.88,-214.88 1515.88,-235.62"/>
<text text-anchor="middle" x="1453.12" y="-222.12" font-family="Helvetica,sans-Serif" font-size="10.00">lix/libexpr/attr&#45;path.hh</text>
</a>
</g>
</g>
<!-- Node8&#45;&gt;Node15 -->
<g id="edge21_Node000008_Node000015" class="edge">
<title>Node8&#45;&gt;Node15</title>
<g id="a_edge21_Node000008_Node000015"><a xlink:title=" ">
<path fill="none" stroke="#63b8ff" d="M790.33,-286.05C907.43,-282.93 1165.78,-272.85 1381.12,-242 1391.51,-240.51 1402.63,-238.36 1412.95,-236.12"/>
<polygon fill="#63b8ff" stroke="#63b8ff" points="790.53,-282.55 780.63,-286.31 790.71,-289.55 790.53,-282.55"/>
</a>
</g>
</g>
<!-- Node16 -->
<g id="Node000016" class="node">
<title>Node16</title>
<g id="a_Node000016"><a xlink:href="eval-cache_8hh.html" target="_top" xlink:title=" ">
<polygon fill="white" stroke="#666666" points="1254.12,-235.62 1118.12,-235.62 1118.12,-214.88 1254.12,-214.88 1254.12,-235.62"/>
<text text-anchor="middle" x="1186.12" y="-222.12" font-family="Helvetica,sans-Serif" font-size="10.00">lix/libexpr/eval&#45;cache.hh</text>
</a>
</g>
</g>
<!-- Node8&#45;&gt;Node16 -->
<g id="edge22_Node000008_Node000016" class="edge">
<title>Node8&#45;&gt;Node16</title>
<g id="a_edge22_Node000008_Node000016"><a xlink:title=" ">
<path fill="none" stroke="#63b8ff" d="M790.55,-281.11C865.62,-273.38 994.31,-259.13 1104.12,-242 1115.15,-240.28 1126.97,-238.17 1138.09,-236.06"/>
<polygon fill="#63b8ff" stroke="#63b8ff" points="790.52,-277.6 780.93,-282.09 791.24,-284.56 790.52,-277.6"/>
</a>
</g>
</g>
<!-- Node17 -->
<g id="Node000017" class="node">
<title>Node17</title>
<g id="a_Node000017"><a xlink:href="libexpr_2flake_2flake_8hh.html" target="_top" xlink:title=" ">
<polygon fill="white" stroke="#666666" points="1062.25,-235.62 930,-235.62 930,-214.88 1062.25,-214.88 1062.25,-235.62"/>
<text text-anchor="middle" x="996.12" y="-222.12" font-family="Helvetica,sans-Serif" font-size="10.00">lix/libexpr/flake/flake.hh</text>
</a>
</g>
</g>
<!-- Node8&#45;&gt;Node17 -->
<g id="edge27_Node000008_Node000017" class="edge">
<title>Node8&#45;&gt;Node17</title>
<g id="a_edge27_Node000008_Node000017"><a xlink:title=" ">
<path fill="none" stroke="#63b8ff" d="M781.39,-275.04C831.96,-263.55 906.39,-246.64 953.01,-236.05"/>
<polygon fill="#63b8ff" stroke="#63b8ff" points="780.8,-271.59 771.82,-277.22 782.35,-278.42 780.8,-271.59"/>
</a>
</g>
</g>
<!-- Node18 -->
<g id="Node000018" class="node">
<title>Node18</title>
<g id="a_Node000018"><a xlink:href="function-trace_8hh.html" target="_top" xlink:title=" ">
<polygon fill="white" stroke="#666666" points="359.88,-242 252.38,-242 252.38,-208.5 359.88,-208.5 359.88,-242"/>
<text text-anchor="start" x="260.38" y="-228.5" font-family="Helvetica,sans-Serif" font-size="10.00">lix/libexpr/function</text>
<text text-anchor="middle" x="306.12" y="-215.75" font-family="Helvetica,sans-Serif" font-size="10.00">&#45;trace.hh</text>
</a>
</g>
</g>
<!-- Node8&#45;&gt;Node18 -->
<g id="edge29_Node000008_Node000018" class="edge">
<title>Node8&#45;&gt;Node18</title>
<g id="a_edge29_Node000008_Node000018"><a xlink:title=" ">
<path fill="none" stroke="#63b8ff" d="M663.85,-281.65C592.03,-274.62 471.56,-261.22 369.12,-242 366.24,-241.46 363.3,-240.87 360.33,-240.24"/>
<polygon fill="#63b8ff" stroke="#63b8ff" points="663.15,-285.1 673.44,-282.58 663.82,-278.13 663.15,-285.1"/>
</a>
</g>
</g>
<!-- Node19 -->
<g id="Node000019" class="node">
<title>Node19</title>
<g id="a_Node000019"><a xlink:href="get-drvs_8hh.html" target="_top" xlink:title=" ">
<polygon fill="white" stroke="#666666" points="679.75,-235.62 556.5,-235.62 556.5,-214.88 679.75,-214.88 679.75,-235.62"/>
<text text-anchor="middle" x="618.12" y="-222.12" font-family="Helvetica,sans-Serif" font-size="10.00">lix/libexpr/get&#45;drvs.hh</text>
</a>
</g>
</g>
<!-- Node8&#45;&gt;Node19 -->
<g id="edge30_Node000008_Node000019" class="edge">
<title>Node8&#45;&gt;Node19</title>
<g id="a_edge30_Node000008_Node000019"><a xlink:title=" ">
<path fill="none" stroke="#63b8ff" d="M699.78,-272.04C679.66,-260.76 652.9,-245.75 635.59,-236.05"/>
<polygon fill="#63b8ff" stroke="#63b8ff" points="697.86,-274.98 708.29,-276.81 701.28,-268.87 697.86,-274.98"/>
</a>
</g>
</g>
<!-- Node20 -->
<g id="Node000020" class="node">
<title>Node20</title>
<g id="a_Node000020"><a xlink:href="primops_8hh.html" target="_top" xlink:title=" ">
<polygon fill="white" stroke="#666666" points="500.38,-235.62 377.88,-235.62 377.88,-214.88 500.38,-214.88 500.38,-235.62"/>
<text text-anchor="middle" x="439.12" y="-222.12" font-family="Helvetica,sans-Serif" font-size="10.00">lix/libexpr/primops.hh</text>
</a>
</g>
</g>
<!-- Node8&#45;&gt;Node20 -->
<g id="edge32_Node000008_Node000020" class="edge">
<title>Node8&#45;&gt;Node20</title>
<g id="a_edge32_Node000008_Node000020"><a xlink:title=" ">
<path fill="none" stroke="#63b8ff" d="M669.71,-275.19C615.56,-263.7 535.41,-246.69 485.28,-236.05"/>
<polygon fill="#63b8ff" stroke="#63b8ff" points="668.86,-278.59 679.37,-277.24 670.32,-271.74 668.86,-278.59"/>
</a>
</g>
</g>
<!-- Node21 -->
<g id="Node000021" class="node">
<title>Node21</title>
<g id="a_Node000021"><a xlink:href="value-to-json_8hh.html" target="_top" xlink:title=" ">
<polygon fill="white" stroke="#666666" points="234.25,-242 126,-242 126,-208.5 234.25,-208.5 234.25,-242"/>
<text text-anchor="start" x="134" y="-228.5" font-family="Helvetica,sans-Serif" font-size="10.00">lix/libexpr/value&#45;to</text>
<text text-anchor="middle" x="180.12" y="-215.75" font-family="Helvetica,sans-Serif" font-size="10.00">&#45;json.hh</text>
</a>
</g>
</g>
<!-- Node8&#45;&gt;Node21 -->
<g id="edge33_Node000008_Node000021" class="edge">
<title>Node8&#45;&gt;Node21</title>
<g id="a_edge33_Node000008_Node000021"><a xlink:title=" ">
<path fill="none" stroke="#63b8ff" d="M663.41,-284.48C570.46,-279.57 392.51,-267.52 243.12,-242 240.35,-241.53 237.51,-240.99 234.65,-240.42"/>
<polygon fill="#63b8ff" stroke="#63b8ff" points="663.18,-287.97 673.35,-285 663.54,-280.98 663.18,-287.97"/>
</a>
</g>
</g>
<!-- Node22 -->
<g id="Node000022" class="node">
<title>Node22</title>
<g id="a_Node000022"><a xlink:href="value-to-xml_8hh.html" target="_top" xlink:title=" ">
<polygon fill="white" stroke="#666666" points="108.25,-242 0,-242 0,-208.5 108.25,-208.5 108.25,-242"/>
<text text-anchor="start" x="8" y="-228.5" font-family="Helvetica,sans-Serif" font-size="10.00">lix/libexpr/value&#45;to</text>
<text text-anchor="middle" x="54.12" y="-215.75" font-family="Helvetica,sans-Serif" font-size="10.00">&#45;xml.hh</text>
</a>
</g>
</g>
<!-- Node8&#45;&gt;Node22 -->
<g id="edge34_Node000008_Node000022" class="edge">
<title>Node8&#45;&gt;Node22</title>
<g id="a_edge34_Node000008_Node000022"><a xlink:title=" ">
<path fill="none" stroke="#63b8ff" d="M663.62,-286.21C552.27,-283.39 314.84,-273.83 117.12,-242 114.34,-241.55 111.5,-241.04 108.64,-240.48"/>
<polygon fill="#63b8ff" stroke="#63b8ff" points="663.36,-289.71 673.45,-286.45 663.53,-282.71 663.36,-289.71"/>
</a>
</g>
</g>
<!-- Node11&#45;&gt;Node4 -->
<g id="edge14_Node000011_Node000004" class="edge">
<title>Node11&#45;&gt;Node4</title>
<g id="a_edge14_Node000011_Node000004"><a xlink:title=" ">
<path fill="none" stroke="#63b8ff" d="M1122.66,-134.67C1155.7,-122.29 1196.62,-106.94 1222.81,-97.12"/>
<polygon fill="#63b8ff" stroke="#63b8ff" points="1121.79,-131.26 1113.66,-138.05 1124.25,-137.82 1121.79,-131.26"/>
</a>
</g>
</g>
<!-- Node11&#45;&gt;Node5 -->
<g id="edge15_Node000011_Node000005" class="edge">
<title>Node11&#45;&gt;Node5</title>
<g id="a_edge15_Node000011_Node000005"><a xlink:title=" ">
<path fill="none" stroke="#63b8ff" d="M1082.35,-128.5C1096.48,-100.44 1118.42,-56.88 1130.13,-33.63"/>
<polygon fill="#63b8ff" stroke="#63b8ff" points="1079.23,-126.91 1077.86,-137.41 1085.48,-130.06 1079.23,-126.91"/>
</a>
</g>
</g>
<!-- Node11&#45;&gt;Node10 -->
<g id="edge16_Node000011_Node000010" class="edge">
<title>Node11&#45;&gt;Node10</title>
<g id="a_edge16_Node000011_Node000010"><a xlink:title=" ">
<path fill="none" stroke="#63b8ff" d="M1023.44,-133.92C1001.91,-124.09 976.6,-112.55 956.54,-103.4"/>
<polygon fill="#63b8ff" stroke="#63b8ff" points="1021.75,-136.99 1032.3,-137.95 1024.65,-130.62 1021.75,-136.99"/>
</a>
</g>
</g>
<!-- Node12&#45;&gt;Node11 -->
<g id="edge19_Node000012_Node000011" class="edge">
<title>Node12&#45;&gt;Node11</title>
<g id="a_edge19_Node000012_Node000011"><a xlink:title=" ">
<path fill="none" stroke="#63b8ff" d="M886.78,-211.21C923.3,-200.3 975.57,-184.69 1014.79,-172.98"/>
<polygon fill="#63b8ff" stroke="#63b8ff" points="886.02,-207.79 877.44,-214 888.02,-214.49 886.02,-207.79"/>
</a>
</g>
</g>
<!-- Node13 -->
<g id="Node000013" class="node">
<title>Node13</title>
<g id="a_Node000013"><a xlink:href="installable-derived-path_8hh.html" target="_top" xlink:title=" ">
<polygon fill="white" stroke="#666666" points="902.12,-172.5 784.12,-172.5 784.12,-139 902.12,-139 902.12,-172.5"/>
<text text-anchor="start" x="792.12" y="-159" font-family="Helvetica,sans-Serif" font-size="10.00">lix/libcmd/installable</text>
<text text-anchor="middle" x="843.12" y="-146.25" font-family="Helvetica,sans-Serif" font-size="10.00">&#45;derived&#45;path.hh</text>
</a>
</g>
</g>
<!-- Node12&#45;&gt;Node13 -->
<g id="edge18_Node000012_Node000013" class="edge">
<title>Node12&#45;&gt;Node13</title>
<g id="a_edge18_Node000012_Node000013"><a xlink:title=" ">
<path fill="none" stroke="#63b8ff" d="M843.12,-203.38C843.12,-193.57 843.12,-182.05 843.12,-172.92"/>
<polygon fill="#63b8ff" stroke="#63b8ff" points="839.63,-203.07 843.13,-213.07 846.63,-203.07 839.63,-203.07"/>
</a>
</g>
</g>
<!-- Node16&#45;&gt;Node4 -->
<g id="edge23_Node000016_Node000004" class="edge">
<title>Node16&#45;&gt;Node4</title>
<g id="a_edge23_Node000016_Node000004"><a xlink:title=" ">
<path fill="none" stroke="#63b8ff" d="M1195.29,-204.32C1209.01,-174.49 1234.37,-119.34 1244.64,-97.01"/>
<polygon fill="#63b8ff" stroke="#63b8ff" points="1192.29,-202.47 1191.29,-213.02 1198.65,-205.4 1192.29,-202.47"/>
</a>
</g>
</g>
<!-- Node16&#45;&gt;Node5 -->
<g id="edge24_Node000016_Node000005" class="edge">
<title>Node16&#45;&gt;Node5</title>
<g id="a_edge24_Node000016_Node000005"><a xlink:title=" ">
<path fill="none" stroke="#63b8ff" d="M1181.3,-203.51C1171.73,-162.32 1150.5,-70.97 1141.87,-33.88"/>
<polygon fill="#63b8ff" stroke="#63b8ff" points="1177.86,-204.14 1183.53,-213.09 1184.68,-202.56 1177.86,-204.14"/>
</a>
</g>
</g>
<!-- Node16&#45;&gt;Node11 -->
<g id="edge25_Node000016_Node000011" class="edge">
<title>Node16&#45;&gt;Node11</title>
<g id="a_edge25_Node000016_Node000011"><a xlink:title=" ">
<path fill="none" stroke="#63b8ff" d="M1159.21,-208.72C1140.58,-197.98 1115.86,-183.71 1097.03,-172.85"/>
<polygon fill="#63b8ff" stroke="#63b8ff" points="1157.39,-211.71 1167.8,-213.68 1160.89,-205.65 1157.39,-211.71"/>
</a>
</g>
</g>
<!-- Node17&#45;&gt;Node11 -->
<g id="edge28_Node000017_Node000011" class="edge">
<title>Node17&#45;&gt;Node11</title>
<g id="a_edge28_Node000017_Node000011"><a xlink:title=" ">
<path fill="none" stroke="#63b8ff" d="M1014.9,-206.89C1026.23,-196.42 1040.55,-183.17 1051.64,-172.92"/>
<polygon fill="#63b8ff" stroke="#63b8ff" points="1012.66,-204.19 1007.7,-213.55 1017.41,-209.33 1012.66,-204.19"/>
</a>
</g>
</g>
<!-- Node19&#45;&gt;Node9 -->
<g id="edge31_Node000019_Node000009" class="edge">
<title>Node19&#45;&gt;Node9</title>
<g id="a_edge31_Node000019_Node000009"><a xlink:title=" ">
<path fill="none" stroke="#63b8ff" d="M604.4,-205.35C595.21,-192.68 583.48,-176.52 576.13,-166.4"/>
<polygon fill="#63b8ff" stroke="#63b8ff" points="601.51,-207.32 610.22,-213.35 607.17,-203.21 601.51,-207.32"/>
</a>
</g>
</g>
<!-- Node23&#45;&gt;Node8 -->
<g id="edge39_Node000023_Node000008" class="edge">
<title>Node23&#45;&gt;Node8</title>
<g id="a_edge39_Node000023_Node000008"><a xlink:title=" ">
<path fill="none" stroke="#63b8ff" d="M505.77,-379.75C507.36,-365.12 511.89,-346.28 524.12,-334.75 545.62,-314.51 622.46,-301.61 675.19,-294.94"/>
<polygon fill="#63b8ff" stroke="#63b8ff" points="502.28,-379.51 505.1,-389.72 509.26,-379.97 502.28,-379.51"/>
</a>
</g>
</g>
<!-- Node23&#45;&gt;Node21 -->
<g id="edge40_Node000023_Node000021" class="edge">
<title>Node23&#45;&gt;Node21</title>
<g id="a_edge40_Node000023_Node000021"><a xlink:title=" ">
<path fill="none" stroke="#63b8ff" d="M477.18,-385.86C416.41,-353.21 272.73,-276.01 210.14,-242.38"/>
<polygon fill="#63b8ff" stroke="#63b8ff" points="475.39,-388.87 485.86,-390.52 478.7,-382.7 475.39,-388.87"/>
</a>
</g>
</g>
<!-- Node23&#45;&gt;Node22 -->
<g id="edge41_Node000023_Node000022" class="edge">
<title>Node23&#45;&gt;Node22</title>
<g id="a_edge41_Node000023_Node000022"><a xlink:title=" ">
<path fill="none" stroke="#63b8ff" d="M466.47,-387.17C441.72,-378.32 408.95,-366.44 380.12,-355.5 276.39,-316.12 155.13,-267.3 93.88,-242.44"/>
<polygon fill="#63b8ff" stroke="#63b8ff" points="465.22,-390.44 475.81,-390.51 467.57,-383.85 465.22,-390.44"/>
</a>
</g>
</g>
<!-- Node24 -->
<g id="Node000024" class="node">
<title>Node24</title>
<g id="a_Node000024"><a xlink:href="attr-set_8hh.html" target="_top" xlink:title=" ">
<polygon fill="white" stroke="#666666" points="651.5,-355.5 532.75,-355.5 532.75,-334.75 651.5,-334.75 651.5,-355.5"/>
<text text-anchor="middle" x="592.12" y="-342" font-family="Helvetica,sans-Serif" font-size="10.00">lix/libexpr/attr&#45;set.hh</text>
</a>
</g>
</g>
<!-- Node23&#45;&gt;Node24 -->
<g id="edge37_Node000023_Node000024" class="edge">
<title>Node23&#45;&gt;Node24</title>
<g id="a_edge37_Node000023_Node000024"><a xlink:title=" ">
<path fill="none" stroke="#63b8ff" d="M530.38,-384.98C545.36,-375.55 563.88,-363.9 576.71,-355.83"/>
<polygon fill="#63b8ff" stroke="#63b8ff" points="528.56,-381.99 521.96,-390.28 532.29,-387.92 528.56,-381.99"/>
</a>
</g>
</g>
<!-- Node24&#45;&gt;Node8 -->
<g id="edge38_Node000024_Node000008" class="edge">
<title>Node24&#45;&gt;Node8</title>
<g id="a_edge38_Node000024_Node000008"><a xlink:title=" ">
<path fill="none" stroke="#63b8ff" d="M626.69,-330.11C650.66,-320.39 681.96,-307.69 703.2,-299.08"/>
<polygon fill="#63b8ff" stroke="#63b8ff" points="625.61,-326.77 617.66,-333.77 628.25,-333.25 625.61,-326.77"/>
</a>
</g>
</g>
<!-- Node26&#45;&gt;Node2 -->
<g id="edge45_Node000026_Node000002" class="edge">
<title>Node26&#45;&gt;Node2</title>
<g id="a_edge45_Node000026_Node000002"><a xlink:title=" ">
<path fill="none" stroke="#63b8ff" d="M617.8,-498.76C633.38,-489.28 652.78,-477.48 666.17,-469.33"/>
<polygon fill="#63b8ff" stroke="#63b8ff" points="616.23,-495.61 609.51,-503.8 619.87,-501.59 616.23,-495.61"/>
</a>
</g>
</g>
<!-- Node26&#45;&gt;Node23 -->
<g id="edge46_Node000026_Node000023" class="edge">
<title>Node26&#45;&gt;Node23</title>
<g id="a_edge46_Node000026_Node000023"><a xlink:title=" ">
<path fill="none" stroke="#63b8ff" d="M577.85,-496.08C559.23,-472.22 527.33,-431.33 512.77,-412.68"/>
<polygon fill="#63b8ff" stroke="#63b8ff" points="574.87,-497.94 583.78,-503.68 580.38,-493.64 574.87,-497.94"/>
</a>
</g>
</g>
</g>
</svg>
