<?xml version="1.0" encoding="UTF-8" standalone="no"?>
<!DOCTYPE svg PUBLIC "-//W3C//DTD SVG 1.1//EN"
 "http://www.w3.org/Graphics/SVG/1.1/DTD/svg11.dtd">
<!-- Generated by graphviz version 12.2.1 (0)
 -->
<!-- Title: lix/libexpr/print&#45;options.hh Pages: 1 -->
<svg width="1562pt" height="534pt"
 viewBox="0.00 0.00 1562.25 533.75" xmlns="http://www.w3.org/2000/svg" xmlns:xlink="http://www.w3.org/1999/xlink">
<g id="graph0" class="graph" transform="scale(1 1) rotate(0) translate(4 529.75)">
<title>lix/libexpr/print&#45;options.hh</title>
<!-- Node1 -->
<g id="Node000001" class="node">
<title>Node1</title>
<g id="a_Node000001"><a xlink:title="Options for printing Nix values.">
<polygon fill="#999999" stroke="#666666" points="934.62,-525.75 789.62,-525.75 789.62,-505 934.62,-505 934.62,-525.75"/>
<text text-anchor="middle" x="862.12" y="-512.25" font-family="Helvetica,sans-Serif" font-size="10.00">lix/libexpr/print&#45;options.hh</text>
</a>
</g>
</g>
<!-- Node2 -->
<g id="Node000002" class="node">
<title>Node2</title>
<g id="a_Node000002"><a xlink:href="print_8hh.html" target="_top" xlink:title="Common printing functions for the Nix language.">
<polygon fill="white" stroke="#666666" points="851.75,-469 746.5,-469 746.5,-448.25 851.75,-448.25 851.75,-469"/>
<text text-anchor="middle" x="799.12" y="-455.5" font-family="Helvetica,sans-Serif" font-size="10.00">lix/libexpr/print.hh</text>
</a>
</g>
</g>
<!-- Node1&#45;&gt;Node2 -->
<g id="edge1_Node000001_Node000002" class="edge">
<title>Node1&#45;&gt;Node2</title>
<g id="a_edge1_Node000001_Node000002"><a xlink:title=" ">
<path fill="none" stroke="#63b8ff" d="M842.26,-497.11C831.71,-487.94 819.13,-477.01 810.29,-469.33"/>
<polygon fill="#63b8ff" stroke="#63b8ff" points="839.88,-499.68 849.72,-503.59 844.47,-494.39 839.88,-499.68"/>
</a>
</g>
</g>
<!-- Node23 -->
<g id="Node000023" class="node">
<title>Node23</title>
<g id="a_Node000023"><a xlink:href="value_8hh.html" target="_top" xlink:title=" ">
<polygon fill="white" stroke="#666666" points="1051,-469 941.25,-469 941.25,-448.25 1051,-448.25 1051,-469"/>
<text text-anchor="middle" x="996.12" y="-455.5" font-family="Helvetica,sans-Serif" font-size="10.00">lix/libexpr/value.hh</text>
</a>
</g>
</g>
<!-- Node1&#45;&gt;Node23 -->
<g id="edge34_Node000001_Node000023" class="edge">
<title>Node1&#45;&gt;Node23</title>
<g id="a_edge34_Node000001_Node000023"><a xlink:title=" ">
<path fill="none" stroke="#63b8ff" d="M896.44,-500.36C920.22,-490.64 951.29,-477.94 972.38,-469.33"/>
<polygon fill="#63b8ff" stroke="#63b8ff" points="895.42,-496.99 887.48,-504.01 898.06,-503.47 895.42,-496.99"/>
</a>
</g>
</g>
<!-- Node3 -->
<g id="Node000003" class="node">
<title>Node3</title>
<g id="a_Node000003"><a xlink:href="eval-inline_8hh.html" target="_top" xlink:title=" ">
<polygon fill="white" stroke="#666666" points="831.38,-355.5 696.88,-355.5 696.88,-334.75 831.38,-334.75 831.38,-355.5"/>
<text text-anchor="middle" x="764.12" y="-342" font-family="Helvetica,sans-Serif" font-size="10.00">lix/libexpr/eval&#45;inline.hh</text>
</a>
</g>
</g>
<!-- Node2&#45;&gt;Node3 -->
<g id="edge2_Node000002_Node000003" class="edge">
<title>Node2&#45;&gt;Node3</title>
<g id="a_edge2_Node000002_Node000003"><a xlink:title=" ">
<path fill="none" stroke="#63b8ff" d="M771.63,-441.34C761.66,-433.85 751.54,-424.01 746.12,-412.25 737.37,-393.23 749.16,-369.11 757.39,-355.89"/>
<polygon fill="#63b8ff" stroke="#63b8ff" points="769.5,-444.13 779.72,-446.92 773.48,-438.36 769.5,-444.13"/>
</a>
</g>
</g>
<!-- Node4 -->
<g id="Node000004" class="node">
<title>Node4</title>
<g id="a_Node000004"><a xlink:href="libexpr_2eval_8hh.html" target="_top" xlink:title=" ">
<polygon fill="white" stroke="#666666" points="889,-298.75 785.25,-298.75 785.25,-278 889,-278 889,-298.75"/>
<text text-anchor="middle" x="837.12" y="-285.25" font-family="Helvetica,sans-Serif" font-size="10.00">lix/libexpr/eval.hh</text>
</a>
</g>
</g>
<!-- Node3&#45;&gt;Node4 -->
<g id="edge3_Node000003_Node000004" class="edge">
<title>Node3&#45;&gt;Node4</title>
<g id="a_edge3_Node000003_Node000004"><a xlink:title=" ">
<path fill="none" stroke="#63b8ff" d="M780.48,-327.14C791.94,-317.91 807.03,-306.84 818.89,-299.08"/>
<polygon fill="#63b8ff" stroke="#63b8ff" points="778.45,-324.27 773.02,-333.37 782.94,-329.64 778.45,-324.27"/>
</a>
</g>
</g>
<!-- Node4&#45;&gt;Node3 -->
<g id="edge25_Node000004_Node000003" class="edge">
<title>Node4&#45;&gt;Node3</title>
<g id="a_edge25_Node000004_Node000003"><a xlink:title=" ">
<path fill="none" stroke="#63b8ff" d="M820.9,-306.26C809.46,-315.47 794.37,-326.55 782.49,-334.34"/>
<polygon fill="#63b8ff" stroke="#63b8ff" points="822.9,-309.15 828.33,-300.05 818.41,-303.78 822.9,-309.15"/>
</a>
</g>
</g>
<!-- Node5 -->
<g id="Node000005" class="node">
<title>Node5</title>
<g id="a_Node000005"><a xlink:href="cmd-profiles_8hh.html" target="_top" xlink:title=" ">
<polygon fill="white" stroke="#666666" points="744.5,-166.12 601.75,-166.12 601.75,-145.38 744.5,-145.38 744.5,-166.12"/>
<text text-anchor="middle" x="673.12" y="-152.62" font-family="Helvetica,sans-Serif" font-size="10.00">lix/libcmd/cmd&#45;profiles.hh</text>
</a>
</g>
</g>
<!-- Node4&#45;&gt;Node5 -->
<g id="edge4_Node000004_Node000005" class="edge">
<title>Node4&#45;&gt;Node5</title>
<g id="a_edge4_Node000004_Node000005"><a xlink:title=" ">
<path fill="none" stroke="#63b8ff" d="M773.54,-285.15C705.86,-281.28 605.21,-270.73 581.12,-242 571.56,-230.59 573.61,-221.35 581.12,-208.5 593.43,-187.46 617.78,-174.31 638.34,-166.54"/>
<polygon fill="#63b8ff" stroke="#63b8ff" points="773.26,-288.64 783.43,-285.67 773.63,-281.65 773.26,-288.64"/>
</a>
</g>
</g>
<!-- Node6 -->
<g id="Node000006" class="node">
<title>Node6</title>
<g id="a_Node000006"><a xlink:href="common-eval-args_8hh.html" target="_top" xlink:title=" ">
<polygon fill="white" stroke="#666666" points="1416.38,-172.5 1281.88,-172.5 1281.88,-139 1416.38,-139 1416.38,-172.5"/>
<text text-anchor="start" x="1289.88" y="-159" font-family="Helvetica,sans-Serif" font-size="10.00">lix/libcmd/common&#45;eval</text>
<text text-anchor="middle" x="1349.12" y="-146.25" font-family="Helvetica,sans-Serif" font-size="10.00">&#45;args.hh</text>
</a>
</g>
</g>
<!-- Node4&#45;&gt;Node6 -->
<g id="edge5_Node000004_Node000006" class="edge">
<title>Node4&#45;&gt;Node6</title>
<g id="a_edge5_Node000004_Node000006"><a xlink:title=" ">
<path fill="none" stroke="#63b8ff" d="M900.69,-285.04C1000.34,-280.61 1188.27,-268.9 1249.12,-242 1269.72,-232.9 1270.04,-223.16 1287.12,-208.5 1301.17,-196.45 1317.22,-183.07 1329.46,-172.93"/>
<polygon fill="#63b8ff" stroke="#63b8ff" points="900.63,-281.54 890.79,-285.47 900.93,-288.54 900.63,-281.54"/>
</a>
</g>
</g>
<!-- Node8 -->
<g id="Node000008" class="node">
<title>Node8</title>
<g id="a_Node000008"><a xlink:href="installable-attr-path_8hh.html" target="_top" xlink:title=" ">
<polygon fill="white" stroke="#666666" points="1023.12,-33.5 905.12,-33.5 905.12,0 1023.12,0 1023.12,-33.5"/>
<text text-anchor="start" x="913.12" y="-20" font-family="Helvetica,sans-Serif" font-size="10.00">lix/libcmd/installable</text>
<text text-anchor="middle" x="964.12" y="-7.25" font-family="Helvetica,sans-Serif" font-size="10.00">&#45;attr&#45;path.hh</text>
</a>
</g>
</g>
<!-- Node4&#45;&gt;Node8 -->
<g id="edge10_Node000004_Node000008" class="edge">
<title>Node4&#45;&gt;Node8</title>
<g id="a_edge10_Node000004_Node000008"><a xlink:title=" ">
<path fill="none" stroke="#63b8ff" d="M773.53,-285.47C608.17,-280.22 176.08,-264.4 155.12,-242 144.95,-231.13 145.88,-220.17 155.12,-208.5 249.28,-89.56 734.46,-37.32 904.87,-22.45"/>
<polygon fill="#63b8ff" stroke="#63b8ff" points="773.35,-288.97 783.45,-285.78 773.57,-281.97 773.35,-288.97"/>
</a>
</g>
</g>
<!-- Node10 -->
<g id="Node000010" class="node">
<title>Node10</title>
<g id="a_Node000010"><a xlink:href="installable-flake_8hh.html" target="_top" xlink:title=" ">
<polygon fill="white" stroke="#666666" points="916.12,-103 798.12,-103 798.12,-69.5 916.12,-69.5 916.12,-103"/>
<text text-anchor="start" x="806.12" y="-89.5" font-family="Helvetica,sans-Serif" font-size="10.00">lix/libcmd/installable</text>
<text text-anchor="middle" x="857.12" y="-76.75" font-family="Helvetica,sans-Serif" font-size="10.00">&#45;flake.hh</text>
</a>
</g>
</g>
<!-- Node4&#45;&gt;Node10 -->
<g id="edge11_Node000004_Node000010" class="edge">
<title>Node4&#45;&gt;Node10</title>
<g id="a_edge11_Node000004_Node000010"><a xlink:title=" ">
<path fill="none" stroke="#63b8ff" d="M851.1,-268.14C855.9,-260.41 860.68,-251.17 863.12,-242 876.2,-192.89 866.7,-131.95 860.83,-103.41"/>
<polygon fill="#63b8ff" stroke="#63b8ff" points="848.27,-266.09 845.6,-276.34 854.08,-269.99 848.27,-266.09"/>
</a>
</g>
</g>
<!-- Node11 -->
<g id="Node000011" class="node">
<title>Node11</title>
<g id="a_Node000011"><a xlink:href="installable-value_8hh.html" target="_top" xlink:title=" ">
<polygon fill="white" stroke="#666666" points="1128.12,-172.5 1010.12,-172.5 1010.12,-139 1128.12,-139 1128.12,-172.5"/>
<text text-anchor="start" x="1018.12" y="-159" font-family="Helvetica,sans-Serif" font-size="10.00">lix/libcmd/installable</text>
<text text-anchor="middle" x="1069.12" y="-146.25" font-family="Helvetica,sans-Serif" font-size="10.00">&#45;value.hh</text>
</a>
</g>
</g>
<!-- Node4&#45;&gt;Node11 -->
<g id="edge12_Node000004_Node000011" class="edge">
<title>Node4&#45;&gt;Node11</title>
<g id="a_edge12_Node000004_Node000011"><a xlink:title=" ">
<path fill="none" stroke="#63b8ff" d="M900.87,-282.03C957.41,-275.93 1034.2,-263.84 1055.12,-242 1072.77,-223.59 1073.15,-192.04 1071.42,-172.92"/>
<polygon fill="#63b8ff" stroke="#63b8ff" points="900.59,-278.54 891,-283.06 901.31,-285.51 900.59,-278.54"/>
</a>
</g>
</g>
<!-- Node12 -->
<g id="Node000012" class="node">
<title>Node12</title>
<g id="a_Node000012"><a xlink:href="installables_8hh.html" target="_top" xlink:title=" ">
<polygon fill="white" stroke="#666666" points="1240.25,-235.62 1102,-235.62 1102,-214.88 1240.25,-214.88 1240.25,-235.62"/>
<text text-anchor="middle" x="1171.12" y="-222.12" font-family="Helvetica,sans-Serif" font-size="10.00">lix/libcmd/installables.hh</text>
</a>
</g>
</g>
<!-- Node4&#45;&gt;Node12 -->
<g id="edge16_Node000004_Node000012" class="edge">
<title>Node4&#45;&gt;Node12</title>
<g id="a_edge16_Node000004_Node000012"><a xlink:title=" ">
<path fill="none" stroke="#63b8ff" d="M900.19,-276.13C950.97,-267.04 1024.17,-253.85 1088.12,-242 1098.36,-240.1 1109.31,-238.05 1119.78,-236.07"/>
<polygon fill="#63b8ff" stroke="#63b8ff" points="899.78,-272.65 890.56,-277.85 901.02,-279.54 899.78,-272.65"/>
</a>
</g>
</g>
<!-- Node14 -->
<g id="Node000014" class="node">
<title>Node14</title>
<g id="a_Node000014"><a xlink:href="libcmd_2repl_8hh.html" target="_top" xlink:title=" ">
<polygon fill="white" stroke="#666666" points="264.5,-235.62 163.75,-235.62 163.75,-214.88 264.5,-214.88 264.5,-235.62"/>
<text text-anchor="middle" x="214.12" y="-222.12" font-family="Helvetica,sans-Serif" font-size="10.00">lix/libcmd/repl.hh</text>
</a>
</g>
</g>
<!-- Node4&#45;&gt;Node14 -->
<g id="edge19_Node000004_Node000014" class="edge">
<title>Node4&#45;&gt;Node14</title>
<g id="a_edge19_Node000004_Node000014"><a xlink:title=" ">
<path fill="none" stroke="#63b8ff" d="M773.7,-286C668.83,-282.89 452.98,-272.98 273.12,-242 264.45,-240.51 255.2,-238.33 246.66,-236.06"/>
<polygon fill="#63b8ff" stroke="#63b8ff" points="773.41,-289.49 783.51,-286.28 773.61,-282.49 773.41,-289.49"/>
</a>
</g>
</g>
<!-- Node15 -->
<g id="Node000015" class="node">
<title>Node15</title>
<g id="a_Node000015"><a xlink:href="attr-path_8hh.html" target="_top" xlink:title=" ">
<polygon fill="white" stroke="#666666" points="407.88,-235.62 282.38,-235.62 282.38,-214.88 407.88,-214.88 407.88,-235.62"/>
<text text-anchor="middle" x="345.12" y="-222.12" font-family="Helvetica,sans-Serif" font-size="10.00">lix/libexpr/attr&#45;path.hh</text>
</a>
</g>
</g>
<!-- Node4&#45;&gt;Node15 -->
<g id="edge20_Node000004_Node000015" class="edge">
<title>Node4&#45;&gt;Node15</title>
<g id="a_edge20_Node000004_Node000015"><a xlink:title=" ">
<path fill="none" stroke="#63b8ff" d="M773.38,-282.64C690.83,-276.01 542.65,-262.45 417.12,-242 407.15,-240.37 396.47,-238.25 386.48,-236.1"/>
<polygon fill="#63b8ff" stroke="#63b8ff" points="773.07,-286.13 783.32,-283.43 773.63,-279.15 773.07,-286.13"/>
</a>
</g>
</g>
<!-- Node16 -->
<g id="Node000016" class="node">
<title>Node16</title>
<g id="a_Node000016"><a xlink:href="eval-cache_8hh.html" target="_top" xlink:title=" ">
<polygon fill="white" stroke="#666666" points="1046.12,-235.62 910.12,-235.62 910.12,-214.88 1046.12,-214.88 1046.12,-235.62"/>
<text text-anchor="middle" x="978.12" y="-222.12" font-family="Helvetica,sans-Serif" font-size="10.00">lix/libexpr/eval&#45;cache.hh</text>
</a>
</g>
</g>
<!-- Node4&#45;&gt;Node16 -->
<g id="edge21_Node000004_Node000016" class="edge">
<title>Node4&#45;&gt;Node16</title>
<g id="a_edge21_Node000004_Node000016"><a xlink:title=" ">
<path fill="none" stroke="#63b8ff" d="M870.02,-273.12C896.29,-261.72 932.42,-246.06 955.53,-236.05"/>
<polygon fill="#63b8ff" stroke="#63b8ff" points="868.95,-269.76 861.17,-276.95 871.73,-276.19 868.95,-269.76"/>
</a>
</g>
</g>
<!-- Node17 -->
<g id="Node000017" class="node">
<title>Node17</title>
<g id="a_Node000017"><a xlink:href="libexpr_2flake_2flake_8hh.html" target="_top" xlink:title=" ">
<polygon fill="white" stroke="#666666" points="1554.25,-235.62 1422,-235.62 1422,-214.88 1554.25,-214.88 1554.25,-235.62"/>
<text text-anchor="middle" x="1488.12" y="-222.12" font-family="Helvetica,sans-Serif" font-size="10.00">lix/libexpr/flake/flake.hh</text>
</a>
</g>
</g>
<!-- Node4&#45;&gt;Node17 -->
<g id="edge26_Node000004_Node000017" class="edge">
<title>Node4&#45;&gt;Node17</title>
<g id="a_edge26_Node000004_Node000017"><a xlink:title=" ">
<path fill="none" stroke="#63b8ff" d="M900.89,-285.03C1007.43,-280.51 1228.18,-268.59 1413.12,-242 1423.79,-240.47 1435.22,-238.33 1445.85,-236.12"/>
<polygon fill="#63b8ff" stroke="#63b8ff" points="900.75,-281.53 890.91,-285.44 901.05,-288.52 900.75,-281.53"/>
</a>
</g>
</g>
<!-- Node18 -->
<g id="Node000018" class="node">
<title>Node18</title>
<g id="a_Node000018"><a xlink:href="function-trace_8hh.html" target="_top" xlink:title=" ">
<polygon fill="white" stroke="#666666" points="533.88,-242 426.38,-242 426.38,-208.5 533.88,-208.5 533.88,-242"/>
<text text-anchor="start" x="434.38" y="-228.5" font-family="Helvetica,sans-Serif" font-size="10.00">lix/libexpr/function</text>
<text text-anchor="middle" x="480.12" y="-215.75" font-family="Helvetica,sans-Serif" font-size="10.00">&#45;trace.hh</text>
</a>
</g>
</g>
<!-- Node4&#45;&gt;Node18 -->
<g id="edge28_Node000004_Node000018" class="edge">
<title>Node4&#45;&gt;Node18</title>
<g id="a_edge28_Node000004_Node000018"><a xlink:title=" ">
<path fill="none" stroke="#63b8ff" d="M773.67,-278.75C714.96,-270.45 625.37,-256.99 548.12,-242 543.6,-241.12 538.93,-240.16 534.24,-239.15"/>
<polygon fill="#63b8ff" stroke="#63b8ff" points="773.09,-282.2 783.48,-280.13 774.07,-275.27 773.09,-282.2"/>
</a>
</g>
</g>
<!-- Node19 -->
<g id="Node000019" class="node">
<title>Node19</title>
<g id="a_Node000019"><a xlink:href="get-drvs_8hh.html" target="_top" xlink:title=" ">
<polygon fill="white" stroke="#666666" points="853.75,-235.62 730.5,-235.62 730.5,-214.88 853.75,-214.88 853.75,-235.62"/>
<text text-anchor="middle" x="792.12" y="-222.12" font-family="Helvetica,sans-Serif" font-size="10.00">lix/libexpr/get&#45;drvs.hh</text>
</a>
</g>
</g>
<!-- Node4&#45;&gt;Node19 -->
<g id="edge29_Node000004_Node000019" class="edge">
<title>Node4&#45;&gt;Node19</title>
<g id="a_edge29_Node000004_Node000019"><a xlink:title=" ">
<path fill="none" stroke="#63b8ff" d="M823.2,-268.46C815.24,-257.65 805.6,-244.55 799.19,-235.84"/>
<polygon fill="#63b8ff" stroke="#63b8ff" points="820.25,-270.36 829,-276.34 825.89,-266.21 820.25,-270.36"/>
</a>
</g>
</g>
<!-- Node20 -->
<g id="Node000020" class="node">
<title>Node20</title>
<g id="a_Node000020"><a xlink:href="primops_8hh.html" target="_top" xlink:title=" ">
<polygon fill="white" stroke="#666666" points="712.38,-235.62 589.88,-235.62 589.88,-214.88 712.38,-214.88 712.38,-235.62"/>
<text text-anchor="middle" x="651.12" y="-222.12" font-family="Helvetica,sans-Serif" font-size="10.00">lix/libexpr/primops.hh</text>
</a>
</g>
</g>
<!-- Node4&#45;&gt;Node20 -->
<g id="edge31_Node000004_Node000020" class="edge">
<title>Node4&#45;&gt;Node20</title>
<g id="a_edge31_Node000004_Node000020"><a xlink:title=" ">
<path fill="none" stroke="#63b8ff" d="M796.48,-274.02C761.63,-262.56 712.23,-246.33 680.93,-236.05"/>
<polygon fill="#63b8ff" stroke="#63b8ff" points="795.21,-277.28 805.8,-277.08 797.4,-270.63 795.21,-277.28"/>
</a>
</g>
</g>
<!-- Node21 -->
<g id="Node000021" class="node">
<title>Node21</title>
<g id="a_Node000021"><a xlink:href="value-to-json_8hh.html" target="_top" xlink:title=" ">
<polygon fill="white" stroke="#666666" points="108.25,-242 0,-242 0,-208.5 108.25,-208.5 108.25,-242"/>
<text text-anchor="start" x="8" y="-228.5" font-family="Helvetica,sans-Serif" font-size="10.00">lix/libexpr/value&#45;to</text>
<text text-anchor="middle" x="54.12" y="-215.75" font-family="Helvetica,sans-Serif" font-size="10.00">&#45;json.hh</text>
</a>
</g>
</g>
<!-- Node4&#45;&gt;Node21 -->
<g id="edge32_Node000004_Node000021" class="edge">
<title>Node4&#45;&gt;Node21</title>
<g id="a_edge32_Node000004_Node000021"><a xlink:title=" ">
<path fill="none" stroke="#63b8ff" d="M773.53,-286.83C648.22,-285 360.81,-276.97 122.12,-242 117.69,-241.35 113.11,-240.56 108.53,-239.68"/>
<polygon fill="#63b8ff" stroke="#63b8ff" points="773.23,-290.33 783.27,-286.97 773.32,-283.33 773.23,-290.33"/>
</a>
</g>
</g>
<!-- Node22 -->
<g id="Node000022" class="node">
<title>Node22</title>
<g id="a_Node000022"><a xlink:href="value-to-xml_8hh.html" target="_top" xlink:title=" ">
<polygon fill="white" stroke="#666666" points="1404.25,-242 1296,-242 1296,-208.5 1404.25,-208.5 1404.25,-242"/>
<text text-anchor="start" x="1304" y="-228.5" font-family="Helvetica,sans-Serif" font-size="10.00">lix/libexpr/value&#45;to</text>
<text text-anchor="middle" x="1350.12" y="-215.75" font-family="Helvetica,sans-Serif" font-size="10.00">&#45;xml.hh</text>
</a>
</g>
</g>
<!-- Node4&#45;&gt;Node22 -->
<g id="edge33_Node000004_Node000022" class="edge">
<title>Node4&#45;&gt;Node22</title>
<g id="a_edge33_Node000004_Node000022"><a xlink:title=" ">
<path fill="none" stroke="#63b8ff" d="M900.96,-283.4C987.68,-277.43 1147.36,-264.39 1282.12,-242 1286.55,-241.27 1291.11,-240.41 1295.69,-239.49"/>
<polygon fill="#63b8ff" stroke="#63b8ff" points="900.73,-279.91 890.99,-284.08 901.2,-286.9 900.73,-279.91"/>
</a>
</g>
</g>
<!-- Node7 -->
<g id="Node000007" class="node">
<title>Node7</title>
<g id="a_Node000007"><a xlink:href="command_8hh.html" target="_top" xlink:title=" ">
<polygon fill="white" stroke="#666666" points="1140.5,-96.62 1009.75,-96.62 1009.75,-75.88 1140.5,-75.88 1140.5,-96.62"/>
<text text-anchor="middle" x="1075.12" y="-83.12" font-family="Helvetica,sans-Serif" font-size="10.00">lix/libcmd/command.hh</text>
</a>
</g>
</g>
<!-- Node6&#45;&gt;Node7 -->
<g id="edge6_Node000006_Node000007" class="edge">
<title>Node6&#45;&gt;Node7</title>
<g id="a_edge6_Node000006_Node000007"><a xlink:title=" ">
<path fill="none" stroke="#63b8ff" d="M1272.49,-135.87C1221.41,-123.29 1156.34,-107.26 1115.19,-97.12"/>
<polygon fill="#63b8ff" stroke="#63b8ff" points="1271.48,-139.23 1282.03,-138.22 1273.15,-132.43 1271.48,-139.23"/>
</a>
</g>
</g>
<!-- Node6&#45;&gt;Node8 -->
<g id="edge9_Node000006_Node000008" class="edge">
<title>Node6&#45;&gt;Node8</title>
<g id="a_edge9_Node000006_Node000008"><a xlink:title=" ">
<path fill="none" stroke="#63b8ff" d="M1304.75,-133.86C1264.65,-115.46 1203.72,-88.68 1149.12,-69.5 1107.75,-54.96 1060.07,-41.71 1023.47,-32.25"/>
<polygon fill="#63b8ff" stroke="#63b8ff" points="1303.06,-136.93 1313.6,-137.94 1305.99,-130.58 1303.06,-136.93"/>
</a>
</g>
</g>
<!-- Node7&#45;&gt;Node8 -->
<g id="edge7_Node000007_Node000008" class="edge">
<title>Node7&#45;&gt;Node8</title>
<g id="a_edge7_Node000007_Node000008"><a xlink:title=" ">
<path fill="none" stroke="#63b8ff" d="M1049.59,-69.72C1031.96,-59 1008.57,-44.78 990.71,-33.92"/>
<polygon fill="#63b8ff" stroke="#63b8ff" points="1047.57,-72.59 1057.93,-74.79 1051.2,-66.61 1047.57,-72.59"/>
</a>
</g>
</g>
<!-- Node9 -->
<g id="Node000009" class="node">
<title>Node9</title>
<g id="a_Node000009"><a xlink:href="nix_2daemon_8cc.html" target="_top" xlink:title=" ">
<polygon fill="white" stroke="#666666" points="1143.25,-27.12 1041,-27.12 1041,-6.38 1143.25,-6.38 1143.25,-27.12"/>
<text text-anchor="middle" x="1092.12" y="-13.62" font-family="Helvetica,sans-Serif" font-size="10.00">lix/nix/daemon.cc</text>
</a>
</g>
</g>
<!-- Node7&#45;&gt;Node9 -->
<g id="edge8_Node000007_Node000009" class="edge">
<title>Node7&#45;&gt;Node9</title>
<g id="a_edge8_Node000007_Node000009"><a xlink:title=" ">
<path fill="none" stroke="#63b8ff" d="M1080.37,-64.44C1083.48,-52.09 1087.27,-37.02 1089.69,-27.4"/>
<polygon fill="#63b8ff" stroke="#63b8ff" points="1076.98,-63.56 1077.93,-74.11 1083.77,-65.27 1076.98,-63.56"/>
</a>
</g>
</g>
<!-- Node11&#45;&gt;Node7 -->
<g id="edge13_Node000011_Node000007" class="edge">
<title>Node11&#45;&gt;Node7</title>
<g id="a_edge13_Node000011_Node000007"><a xlink:title=" ">
<path fill="none" stroke="#63b8ff" d="M1071.54,-127.63C1072.5,-116.83 1073.54,-105.1 1074.25,-97.07"/>
<polygon fill="#63b8ff" stroke="#63b8ff" points="1068.08,-126.98 1070.68,-137.25 1075.05,-127.6 1068.08,-126.98"/>
</a>
</g>
</g>
<!-- Node11&#45;&gt;Node8 -->
<g id="edge14_Node000011_Node000008" class="edge">
<title>Node11&#45;&gt;Node8</title>
<g id="a_edge14_Node000011_Node000008"><a xlink:title=" ">
<path fill="none" stroke="#63b8ff" d="M1032.42,-132.13C1021.31,-123.98 1009.78,-114.04 1001.12,-103 984.5,-81.8 973.82,-51.98 968.4,-33.81"/>
<polygon fill="#63b8ff" stroke="#63b8ff" points="1030.14,-134.81 1040.34,-137.67 1034.15,-129.07 1030.14,-134.81"/>
</a>
</g>
</g>
<!-- Node11&#45;&gt;Node10 -->
<g id="edge15_Node000011_Node000010" class="edge">
<title>Node11&#45;&gt;Node10</title>
<g id="a_edge15_Node000011_Node000010"><a xlink:title=" ">
<path fill="none" stroke="#63b8ff" d="M1007.45,-135.11C975.82,-125.04 937.76,-112.92 907.86,-103.4"/>
<polygon fill="#63b8ff" stroke="#63b8ff" points="1006.31,-138.42 1016.9,-138.12 1008.44,-131.75 1006.31,-138.42"/>
</a>
</g>
</g>
<!-- Node12&#45;&gt;Node11 -->
<g id="edge18_Node000012_Node000011" class="edge">
<title>Node12&#45;&gt;Node11</title>
<g id="a_edge18_Node000012_Node000011"><a xlink:title=" ">
<path fill="none" stroke="#63b8ff" d="M1147.21,-208.42C1131.06,-197.74 1109.81,-183.68 1093.56,-172.92"/>
<polygon fill="#63b8ff" stroke="#63b8ff" points="1144.98,-211.14 1155.25,-213.74 1148.84,-205.31 1144.98,-211.14"/>
</a>
</g>
</g>
<!-- Node13 -->
<g id="Node000013" class="node">
<title>Node13</title>
<g id="a_Node000013"><a xlink:href="installable-derived-path_8hh.html" target="_top" xlink:title=" ">
<polygon fill="white" stroke="#666666" points="1264.12,-172.5 1146.12,-172.5 1146.12,-139 1264.12,-139 1264.12,-172.5"/>
<text text-anchor="start" x="1154.12" y="-159" font-family="Helvetica,sans-Serif" font-size="10.00">lix/libcmd/installable</text>
<text text-anchor="middle" x="1205.12" y="-146.25" font-family="Helvetica,sans-Serif" font-size="10.00">&#45;derived&#45;path.hh</text>
</a>
</g>
</g>
<!-- Node12&#45;&gt;Node13 -->
<g id="edge17_Node000012_Node000013" class="edge">
<title>Node12&#45;&gt;Node13</title>
<g id="a_edge17_Node000012_Node000013"><a xlink:title=" ">
<path fill="none" stroke="#63b8ff" d="M1181.15,-204.35C1186.19,-194.34 1192.23,-182.36 1196.98,-172.92"/>
<polygon fill="#63b8ff" stroke="#63b8ff" points="1178.05,-202.72 1176.68,-213.23 1184.3,-205.87 1178.05,-202.72"/>
</a>
</g>
</g>
<!-- Node16&#45;&gt;Node7 -->
<g id="edge22_Node000016_Node000007" class="edge">
<title>Node16&#45;&gt;Node7</title>
<g id="a_edge22_Node000016_Node000007"><a xlink:title=" ">
<path fill="none" stroke="#63b8ff" d="M979.77,-203.19C982.08,-184.81 987.67,-158.17 1001.12,-139 1014.46,-120.01 1037.11,-105.68 1053.84,-96.97"/>
<polygon fill="#63b8ff" stroke="#63b8ff" points="976.31,-202.58 978.78,-212.89 983.27,-203.29 976.31,-202.58"/>
</a>
</g>
</g>
<!-- Node16&#45;&gt;Node8 -->
<g id="edge23_Node000016_Node000008" class="edge">
<title>Node16&#45;&gt;Node8</title>
<g id="a_edge23_Node000016_Node000008"><a xlink:title=" ">
<path fill="none" stroke="#63b8ff" d="M976.7,-203.24C973.9,-161.92 967.73,-70.89 965.22,-33.88"/>
<polygon fill="#63b8ff" stroke="#63b8ff" points="973.2,-203.32 977.37,-213.06 980.18,-202.84 973.2,-203.32"/>
</a>
</g>
</g>
<!-- Node16&#45;&gt;Node11 -->
<g id="edge24_Node000016_Node000011" class="edge">
<title>Node16&#45;&gt;Node11</title>
<g id="a_edge24_Node000016_Node000011"><a xlink:title=" ">
<path fill="none" stroke="#63b8ff" d="M1000.28,-207.81C1014.58,-197.21 1033.1,-183.47 1047.33,-172.92"/>
<polygon fill="#63b8ff" stroke="#63b8ff" points="998.33,-204.91 992.38,-213.68 1002.5,-210.53 998.33,-204.91"/>
</a>
</g>
</g>
<!-- Node17&#45;&gt;Node11 -->
<g id="edge27_Node000017_Node000011" class="edge">
<title>Node17&#45;&gt;Node11</title>
<g id="a_edge27_Node000017_Node000011"><a xlink:title=" ">
<path fill="none" stroke="#63b8ff" d="M1433.06,-212.18C1426.36,-210.86 1419.6,-209.6 1413.12,-208.5 1291.17,-187.77 1258.86,-194.48 1137.12,-172.5 1134.26,-171.98 1131.34,-171.42 1128.39,-170.84"/>
<polygon fill="#63b8ff" stroke="#63b8ff" points="1432.23,-215.58 1442.73,-214.14 1433.62,-208.72 1432.23,-215.58"/>
</a>
</g>
</g>
<!-- Node19&#45;&gt;Node5 -->
<g id="edge30_Node000019_Node000005" class="edge">
<title>Node19&#45;&gt;Node5</title>
<g id="a_edge30_Node000019_Node000005"><a xlink:title=" ">
<path fill="none" stroke="#63b8ff" d="M765.03,-208.88C742.13,-195.89 710.02,-177.68 690.45,-166.58"/>
<polygon fill="#63b8ff" stroke="#63b8ff" points="763.08,-211.8 773.5,-213.69 766.53,-205.71 763.08,-211.8"/>
</a>
</g>
</g>
<!-- Node23&#45;&gt;Node4 -->
<g id="edge35_Node000023_Node000004" class="edge">
<title>Node23&#45;&gt;Node4</title>
<g id="a_edge35_Node000023_Node000004"><a xlink:title=" ">
<path fill="none" stroke="#63b8ff" d="M1030.22,-442.7C1051.82,-430.85 1073.99,-412.78 1064.12,-391.5 1033.78,-326.02 946.42,-302.51 889.35,-294.08"/>
<polygon fill="#63b8ff" stroke="#63b8ff" points="1028.79,-439.5 1021.47,-447.16 1031.97,-445.73 1028.79,-439.5"/>
</a>
</g>
</g>
<!-- Node23&#45;&gt;Node17 -->
<g id="edge36_Node000023_Node000017" class="edge">
<title>Node23&#45;&gt;Node17</title>
<g id="a_edge36_Node000023_Node000017"><a xlink:title=" ">
<path fill="none" stroke="#63b8ff" d="M1027.3,-442.96C1119.64,-399.54 1390.04,-272.38 1467.29,-236.05"/>
<polygon fill="#63b8ff" stroke="#63b8ff" points="1025.88,-439.76 1018.32,-447.19 1028.86,-446.1 1025.88,-439.76"/>
</a>
</g>
</g>
<!-- Node24 -->
<g id="Node000024" class="node">
<title>Node24</title>
<g id="a_Node000024"><a xlink:href="nixexpr_8hh.html" target="_top" xlink:title=" ">
<polygon fill="white" stroke="#666666" points="1055.12,-412.25 937.12,-412.25 937.12,-391.5 1055.12,-391.5 1055.12,-412.25"/>
<text text-anchor="middle" x="996.12" y="-398.75" font-family="Helvetica,sans-Serif" font-size="10.00">lix/libexpr/nixexpr.hh</text>
</a>
</g>
</g>
<!-- Node23&#45;&gt;Node24 -->
<g id="edge37_Node000023_Node000024" class="edge">
<title>Node23&#45;&gt;Node24</title>
<g id="a_edge37_Node000023_Node000024"><a xlink:title=" ">
<path fill="none" stroke="#63b8ff" d="M996.12,-436.38C996.12,-428.16 996.12,-419.18 996.12,-412.58"/>
<polygon fill="#63b8ff" stroke="#63b8ff" points="992.63,-436.32 996.13,-446.32 999.63,-436.32 992.63,-436.32"/>
</a>
</g>
</g>
<!-- Node26 -->
<g id="Node000026" class="node">
<title>Node26</title>
<g id="a_Node000026"><a xlink:href="print-ambiguous_8hh.html" target="_top" xlink:title=" ">
<polygon fill="white" stroke="#666666" points="918.62,-412.25 755.62,-412.25 755.62,-391.5 918.62,-391.5 918.62,-412.25"/>
<text text-anchor="middle" x="837.12" y="-398.75" font-family="Helvetica,sans-Serif" font-size="10.00">lix/libexpr/print&#45;ambiguous.hh</text>
</a>
</g>
</g>
<!-- Node23&#45;&gt;Node26 -->
<g id="edge43_Node000023_Node000026" class="edge">
<title>Node23&#45;&gt;Node26</title>
<g id="a_edge43_Node000023_Node000026"><a xlink:title=" ">
<path fill="none" stroke="#63b8ff" d="M956.96,-444.14C928.65,-434.39 891.05,-421.44 865.57,-412.67"/>
<polygon fill="#63b8ff" stroke="#63b8ff" points="955.67,-447.4 966.27,-447.34 957.95,-440.78 955.67,-447.4"/>
</a>
</g>
</g>
<!-- Node24&#45;&gt;Node4 -->
<g id="edge40_Node000024_Node000004" class="edge">
<title>Node24&#45;&gt;Node4</title>
<g id="a_edge40_Node000024_Node000004"><a xlink:title=" ">
<path fill="none" stroke="#63b8ff" d="M995.15,-380.09C993.39,-365.62 988.81,-346.84 977.12,-334.75 954.21,-311.06 918.84,-299.72 889.39,-294.3"/>
<polygon fill="#63b8ff" stroke="#63b8ff" points="991.64,-380.22 995.95,-389.9 998.62,-379.65 991.64,-380.22"/>
</a>
</g>
</g>
<!-- Node24&#45;&gt;Node21 -->
<g id="edge41_Node000024_Node000021" class="edge">
<title>Node24&#45;&gt;Node21</title>
<g id="a_edge41_Node000024_Node000021"><a xlink:title=" ">
<path fill="none" stroke="#63b8ff" d="M925.85,-390.95C849.49,-380.09 732.47,-363.21 688.12,-355.5 435.35,-311.57 372.9,-296.17 122.12,-242 117.74,-241.05 113.21,-240.05 108.65,-239.03"/>
<polygon fill="#63b8ff" stroke="#63b8ff" points="924.91,-394.35 935.3,-392.3 925.9,-387.42 924.91,-394.35"/>
</a>
</g>
</g>
<!-- Node24&#45;&gt;Node22 -->
<g id="edge42_Node000024_Node000022" class="edge">
<title>Node24&#45;&gt;Node22</title>
<g id="a_edge42_Node000024_Node000022"><a xlink:title=" ">
<path fill="none" stroke="#63b8ff" d="M1026.03,-386.12C1091.83,-353.66 1248.77,-276.25 1317.23,-242.47"/>
<polygon fill="#63b8ff" stroke="#63b8ff" points="1024.69,-382.88 1017.27,-390.44 1027.79,-389.16 1024.69,-382.88"/>
</a>
</g>
</g>
<!-- Node25 -->
<g id="Node000025" class="node">
<title>Node25</title>
<g id="a_Node000025"><a xlink:href="attr-set_8hh.html" target="_top" xlink:title=" ">
<polygon fill="white" stroke="#666666" points="968.5,-355.5 849.75,-355.5 849.75,-334.75 968.5,-334.75 968.5,-355.5"/>
<text text-anchor="middle" x="909.12" y="-342" font-family="Helvetica,sans-Serif" font-size="10.00">lix/libexpr/attr&#45;set.hh</text>
</a>
</g>
</g>
<!-- Node24&#45;&gt;Node25 -->
<g id="edge38_Node000024_Node000025" class="edge">
<title>Node24&#45;&gt;Node25</title>
<g id="a_edge38_Node000024_Node000025"><a xlink:title=" ">
<path fill="none" stroke="#63b8ff" d="M970.87,-384.98C955.89,-375.55 937.37,-363.9 924.54,-355.83"/>
<polygon fill="#63b8ff" stroke="#63b8ff" points="968.96,-387.92 979.29,-390.28 972.69,-381.99 968.96,-387.92"/>
</a>
</g>
</g>
<!-- Node25&#45;&gt;Node4 -->
<g id="edge39_Node000025_Node000004" class="edge">
<title>Node25&#45;&gt;Node4</title>
<g id="a_edge39_Node000025_Node000004"><a xlink:title=" ">
<path fill="none" stroke="#63b8ff" d="M887.15,-327.41C874.94,-318.13 860.19,-306.92 849.89,-299.08"/>
<polygon fill="#63b8ff" stroke="#63b8ff" points="884.97,-330.15 895.05,-333.42 889.21,-324.58 884.97,-330.15"/>
</a>
</g>
</g>
</g>
</svg>
