<?xml version="1.0" encoding="UTF-8" standalone="no"?>
<!DOCTYPE svg PUBLIC "-//W3C//DTD SVG 1.1//EN"
 "http://www.w3.org/Graphics/SVG/1.1/DTD/svg11.dtd">
<!-- Generated by graphviz version 12.2.1 (0)
 -->
<!-- Title: lix/libexpr/print.hh Pages: 1 -->
<svg width="559pt" height="142pt"
 viewBox="0.00 0.00 559.25 142.25" xmlns="http://www.w3.org/2000/svg" xmlns:xlink="http://www.w3.org/1999/xlink">
<g id="graph0" class="graph" transform="scale(1 1) rotate(0) translate(4 138.25)">
<title>lix/libexpr/print.hh</title>
<!-- Node1 -->
<g id="Node000001" class="node">
<title>Node1</title>
<g id="a_Node000001"><a xlink:title="Common printing functions for the Nix language.">
<polygon fill="#999999" stroke="#666666" points="311.38,-134.25 206.12,-134.25 206.12,-113.5 311.38,-113.5 311.38,-134.25"/>
<text text-anchor="middle" x="258.75" y="-120.75" font-family="Helvetica,sans-Serif" font-size="10.00">lix/libexpr/print.hh</text>
</a>
</g>
</g>
<!-- Node2 -->
<g id="Node000002" class="node">
<title>Node2</title>
<g id="a_Node000002"><a xlink:title=" ">
<polygon fill="#e0e0e0" stroke="#999999" points="59.5,-20.75 0,-20.75 0,0 59.5,0 59.5,-20.75"/>
<text text-anchor="middle" x="29.75" y="-7.25" font-family="Helvetica,sans-Serif" font-size="10.00">iostream</text>
</a>
</g>
</g>
<!-- Node1&#45;&gt;Node2 -->
<g id="edge1_Node000001_Node000002" class="edge">
<title>Node1&#45;&gt;Node2</title>
<g id="a_edge1_Node000001_Node000002"><a xlink:title=" ">
<path fill="none" stroke="#63b8ff" d="M225.57,-113.02C199.9,-104.87 163.79,-92.28 133.75,-77.5 104.22,-62.97 72.63,-42.03 52.11,-27.62"/>
<polygon fill="#63b8ff" stroke="#63b8ff" points="54.4,-24.95 44.22,-22.01 50.34,-30.66 54.4,-24.95"/>
</a>
</g>
</g>
<!-- Node3 -->
<g id="Node000003" class="node">
<title>Node3</title>
<g id="a_Node000003"><a xlink:href="libutil_2fmt_8hh.html" target="_top" xlink:title=" ">
<polygon fill="white" stroke="#666666" points="236.75,-77.5 142.75,-77.5 142.75,-56.75 236.75,-56.75 236.75,-77.5"/>
<text text-anchor="middle" x="189.75" y="-64" font-family="Helvetica,sans-Serif" font-size="10.00">lix/libutil/fmt.hh</text>
</a>
</g>
</g>
<!-- Node1&#45;&gt;Node3 -->
<g id="edge2_Node000001_Node000003" class="edge">
<title>Node1&#45;&gt;Node3</title>
<g id="a_edge2_Node000001_Node000003"><a xlink:title=" ">
<path fill="none" stroke="#63b8ff" d="M246.41,-113.09C236.5,-105.22 222.36,-94 210.69,-84.74"/>
<polygon fill="#63b8ff" stroke="#63b8ff" points="213.17,-82.24 203.16,-78.77 208.82,-87.73 213.17,-82.24"/>
</a>
</g>
</g>
<!-- Node7 -->
<g id="Node000007" class="node">
<title>Node7</title>
<g id="a_Node000007"><a xlink:href="print-options_8hh.html" target="_top" xlink:title="Options for printing Nix values.">
<polygon fill="white" stroke="#666666" points="400.25,-77.5 255.25,-77.5 255.25,-56.75 400.25,-56.75 400.25,-77.5"/>
<text text-anchor="middle" x="327.75" y="-64" font-family="Helvetica,sans-Serif" font-size="10.00">lix/libexpr/print&#45;options.hh</text>
</a>
</g>
</g>
<!-- Node1&#45;&gt;Node7 -->
<g id="edge7_Node000001_Node000007" class="edge">
<title>Node1&#45;&gt;Node7</title>
<g id="a_edge7_Node000001_Node000007"><a xlink:title=" ">
<path fill="none" stroke="#63b8ff" d="M271.09,-113.09C281,-105.22 295.14,-94 306.81,-84.74"/>
<polygon fill="#63b8ff" stroke="#63b8ff" points="308.68,-87.73 314.34,-78.77 304.33,-82.24 308.68,-87.73"/>
</a>
</g>
</g>
<!-- Node9 -->
<g id="Node000009" class="node">
<title>Node9</title>
<g id="a_Node000009"><a xlink:href="print-elided_8hh.html" target="_top" xlink:title=" ">
<polygon fill="white" stroke="#666666" points="551.25,-77.5 418.25,-77.5 418.25,-56.75 551.25,-56.75 551.25,-77.5"/>
<text text-anchor="middle" x="484.75" y="-64" font-family="Helvetica,sans-Serif" font-size="10.00">lix/libutil/print&#45;elided.hh</text>
</a>
</g>
</g>
<!-- Node1&#45;&gt;Node9 -->
<g id="edge9_Node000001_Node000009" class="edge">
<title>Node1&#45;&gt;Node9</title>
<g id="a_edge9_Node000001_Node000009"><a xlink:title=" ">
<path fill="none" stroke="#63b8ff" d="M299.42,-113.02C336.82,-103.96 392.47,-90.48 433.02,-80.66"/>
<polygon fill="#63b8ff" stroke="#63b8ff" points="433.66,-84.1 442.56,-78.35 432.02,-77.3 433.66,-84.1"/>
</a>
</g>
</g>
<!-- Node3&#45;&gt;Node2 -->
<g id="edge3_Node000003_Node000002" class="edge">
<title>Node3&#45;&gt;Node2</title>
<g id="a_edge3_Node000003_Node000002"><a xlink:title=" ">
<path fill="none" stroke="#63b8ff" d="M161.15,-56.34C135.51,-47.57 97.68,-34.62 69.18,-24.87"/>
<polygon fill="#63b8ff" stroke="#63b8ff" points="70.4,-21.59 59.81,-21.66 68.14,-28.21 70.4,-21.59"/>
</a>
</g>
</g>
<!-- Node4 -->
<g id="Node000004" class="node">
<title>Node4</title>
<g id="a_Node000004"><a xlink:title=" ">
<polygon fill="#e0e0e0" stroke="#999999" points="121.62,-20.75 77.88,-20.75 77.88,0 121.62,0 121.62,-20.75"/>
<text text-anchor="middle" x="99.75" y="-7.25" font-family="Helvetica,sans-Serif" font-size="10.00">string</text>
</a>
</g>
</g>
<!-- Node3&#45;&gt;Node4 -->
<g id="edge4_Node000003_Node000004" class="edge">
<title>Node3&#45;&gt;Node4</title>
<g id="a_edge4_Node000003_Node000004"><a xlink:title=" ">
<path fill="none" stroke="#63b8ff" d="M173.66,-56.34C160.22,-48.16 140.82,-36.36 125.26,-26.9"/>
<polygon fill="#63b8ff" stroke="#63b8ff" points="127.36,-24.07 116.99,-21.87 123.72,-30.05 127.36,-24.07"/>
</a>
</g>
</g>
<!-- Node5 -->
<g id="Node000005" class="node">
<title>Node5</title>
<g id="a_Node000005"><a xlink:title=" ">
<polygon fill="#e0e0e0" stroke="#999999" points="239.75,-20.75 139.75,-20.75 139.75,0 239.75,0 239.75,-20.75"/>
<text text-anchor="middle" x="189.75" y="-7.25" font-family="Helvetica,sans-Serif" font-size="10.00">boost/format.hpp</text>
</a>
</g>
</g>
<!-- Node3&#45;&gt;Node5 -->
<g id="edge5_Node000003_Node000005" class="edge">
<title>Node3&#45;&gt;Node5</title>
<g id="a_edge5_Node000003_Node000005"><a xlink:title=" ">
<path fill="none" stroke="#63b8ff" d="M189.75,-56.34C189.75,-49.72 189.75,-40.72 189.75,-32.52"/>
<polygon fill="#63b8ff" stroke="#63b8ff" points="193.25,-32.59 189.75,-22.59 186.25,-32.59 193.25,-32.59"/>
</a>
</g>
</g>
<!-- Node6 -->
<g id="Node000006" class="node">
<title>Node6</title>
<g id="a_Node000006"><a xlink:href="ansicolor_8hh.html" target="_top" xlink:title="Some ANSI escape sequences.">
<polygon fill="white" stroke="#666666" points="377.88,-20.75 257.62,-20.75 257.62,0 377.88,0 377.88,-20.75"/>
<text text-anchor="middle" x="317.75" y="-7.25" font-family="Helvetica,sans-Serif" font-size="10.00">lix/libutil/ansicolor.hh</text>
</a>
</g>
</g>
<!-- Node3&#45;&gt;Node6 -->
<g id="edge6_Node000003_Node000006" class="edge">
<title>Node3&#45;&gt;Node6</title>
<g id="a_edge6_Node000003_Node000006"><a xlink:title=" ">
<path fill="none" stroke="#63b8ff" d="M212.63,-56.34C232.66,-47.77 261.99,-35.23 284.58,-25.56"/>
<polygon fill="#63b8ff" stroke="#63b8ff" points="285.85,-28.82 293.67,-21.67 283.1,-22.39 285.85,-28.82"/>
</a>
</g>
</g>
<!-- Node8 -->
<g id="Node000008" class="node">
<title>Node8</title>
<g id="a_Node000008"><a xlink:title=" ">
<polygon fill="#e0e0e0" stroke="#999999" points="439.62,-20.75 395.88,-20.75 395.88,0 439.62,0 439.62,-20.75"/>
<text text-anchor="middle" x="417.75" y="-7.25" font-family="Helvetica,sans-Serif" font-size="10.00">limits</text>
</a>
</g>
</g>
<!-- Node7&#45;&gt;Node8 -->
<g id="edge8_Node000007_Node000008" class="edge">
<title>Node7&#45;&gt;Node8</title>
<g id="a_edge8_Node000007_Node000008"><a xlink:title=" ">
<path fill="none" stroke="#63b8ff" d="M343.84,-56.34C357.28,-48.16 376.68,-36.36 392.24,-26.9"/>
<polygon fill="#63b8ff" stroke="#63b8ff" points="393.78,-30.05 400.51,-21.87 390.14,-24.07 393.78,-30.05"/>
</a>
</g>
</g>
<!-- Node10 -->
<g id="Node000010" class="node">
<title>Node10</title>
<g id="a_Node000010"><a xlink:title=" ">
<polygon fill="#e0e0e0" stroke="#999999" points="514,-20.75 457.5,-20.75 457.5,0 514,0 514,-20.75"/>
<text text-anchor="middle" x="485.75" y="-7.25" font-family="Helvetica,sans-Serif" font-size="10.00">ostream</text>
</a>
</g>
</g>
<!-- Node9&#45;&gt;Node10 -->
<g id="edge10_Node000009_Node000010" class="edge">
<title>Node9&#45;&gt;Node10</title>
<g id="a_edge10_Node000009_Node000010"><a xlink:title=" ">
<path fill="none" stroke="#63b8ff" d="M484.93,-56.34C485.05,-49.72 485.21,-40.72 485.36,-32.52"/>
<polygon fill="#63b8ff" stroke="#63b8ff" points="488.86,-32.65 485.55,-22.59 481.86,-32.53 488.86,-32.65"/>
</a>
</g>
</g>
</g>
</svg>
