<?xml version="1.0" encoding="UTF-8" standalone="no"?>
<!DOCTYPE svg PUBLIC "-//W3C//DTD SVG 1.1//EN"
 "http://www.w3.org/Graphics/SVG/1.1/DTD/svg11.dtd">
<!-- Generated by graphviz version 12.2.1 (0)
 -->
<!-- Title: lix/libmain/progress&#45;bar.hh Pages: 1 -->
<svg width="1936pt" height="452pt"
 viewBox="0.00 0.00 1936.38 451.50" xmlns="http://www.w3.org/2000/svg" xmlns:xlink="http://www.w3.org/1999/xlink">
<g id="graph0" class="graph" transform="scale(1 1) rotate(0) translate(4 447.5)">
<title>lix/libmain/progress&#45;bar.hh</title>
<!-- Node1 -->
<g id="Node000001" class="node">
<title>Node1</title>
<g id="a_Node000001"><a xlink:title=" ">
<polygon fill="#999999" stroke="#666666" points="1053.5,-443.5 940.75,-443.5 940.75,-410 1053.5,-410 1053.5,-443.5"/>
<text text-anchor="start" x="948.75" y="-430" font-family="Helvetica,sans-Serif" font-size="10.00">lix/libmain/progress</text>
<text text-anchor="middle" x="997.12" y="-417.25" font-family="Helvetica,sans-Serif" font-size="10.00">&#45;bar.hh</text>
</a>
</g>
</g>
<!-- Node2 -->
<g id="Node000002" class="node">
<title>Node2</title>
<g id="a_Node000002"><a xlink:title=" ">
<polygon fill="#e0e0e0" stroke="#999999" points="922.62,-374 873.62,-374 873.62,-353.25 922.62,-353.25 922.62,-374"/>
<text text-anchor="middle" x="898.12" y="-360.5" font-family="Helvetica,sans-Serif" font-size="10.00">chrono</text>
</a>
</g>
</g>
<!-- Node1&#45;&gt;Node2 -->
<g id="edge1_Node000001_Node000002" class="edge">
<title>Node1&#45;&gt;Node2</title>
<g id="a_edge1_Node000001_Node000002"><a xlink:title=" ">
<path fill="none" stroke="#63b8ff" d="M970.85,-409.53C956.15,-400.45 937.9,-389.18 923.36,-380.21"/>
<polygon fill="#63b8ff" stroke="#63b8ff" points="925.62,-377.49 915.27,-375.21 921.94,-383.44 925.62,-377.49"/>
</a>
</g>
</g>
<!-- Node3 -->
<g id="Node000003" class="node">
<title>Node3</title>
<g id="a_Node000003"><a xlink:href="logging_8hh.html" target="_top" xlink:title=" ">
<polygon fill="white" stroke="#666666" points="1053.5,-374 940.75,-374 940.75,-353.25 1053.5,-353.25 1053.5,-374"/>
<text text-anchor="middle" x="997.12" y="-360.5" font-family="Helvetica,sans-Serif" font-size="10.00">lix/libutil/logging.hh</text>
</a>
</g>
</g>
<!-- Node1&#45;&gt;Node3 -->
<g id="edge2_Node000001_Node000003" class="edge">
<title>Node1&#45;&gt;Node3</title>
<g id="a_edge2_Node000001_Node000003"><a xlink:title=" ">
<path fill="none" stroke="#63b8ff" d="M997.12,-409.69C997.12,-402.35 997.12,-393.57 997.12,-385.71"/>
<polygon fill="#63b8ff" stroke="#63b8ff" points="1000.63,-385.98 997.13,-375.98 993.63,-385.98 1000.63,-385.98"/>
</a>
</g>
</g>
<!-- Node41 -->
<g id="Node000041" class="node">
<title>Node41</title>
<g id="a_Node000041"><a xlink:href="sync_8hh.html" target="_top" xlink:title=" ">
<polygon fill="white" stroke="#666666" points="1519.75,-254.12 1420.5,-254.12 1420.5,-233.38 1519.75,-233.38 1519.75,-254.12"/>
<text text-anchor="middle" x="1470.12" y="-240.62" font-family="Helvetica,sans-Serif" font-size="10.00">lix/libutil/sync.hh</text>
</a>
</g>
</g>
<!-- Node1&#45;&gt;Node41 -->
<g id="edge60_Node000001_Node000041" class="edge">
<title>Node1&#45;&gt;Node41</title>
<g id="a_edge60_Node000001_Node000041"><a xlink:title=" ">
<path fill="none" stroke="#63b8ff" d="M1039.52,-409.53C1131.51,-374.32 1348.1,-291.44 1434.05,-258.55"/>
<polygon fill="#63b8ff" stroke="#63b8ff" points="1435.08,-261.91 1443.17,-255.06 1432.58,-255.37 1435.08,-261.91"/>
</a>
</g>
</g>
<!-- Node4 -->
<g id="Node000004" class="node">
<title>Node4</title>
<g id="a_Node000004"><a xlink:href="types_8hh.html" target="_top" xlink:title=" ">
<polygon fill="white" stroke="#666666" points="1244,-191 1140.25,-191 1140.25,-170.25 1244,-170.25 1244,-191"/>
<text text-anchor="middle" x="1192.12" y="-177.5" font-family="Helvetica,sans-Serif" font-size="10.00">lix/libutil/types.hh</text>
</a>
</g>
</g>
<!-- Node3&#45;&gt;Node4 -->
<g id="edge3_Node000003_Node000004" class="edge">
<title>Node3&#45;&gt;Node4</title>
<g id="a_edge3_Node000003_Node000004"><a xlink:title=" ">
<path fill="none" stroke="#63b8ff" d="M1034.71,-352.78C1077.6,-339.44 1146.3,-311.26 1181.12,-260.5 1192.72,-243.6 1194.57,-219.83 1194.08,-202.81"/>
<polygon fill="#63b8ff" stroke="#63b8ff" points="1197.58,-202.61 1193.46,-192.85 1190.59,-203.04 1197.58,-202.61"/>
</a>
</g>
</g>
<!-- Node14 -->
<g id="Node000014" class="node">
<title>Node14</title>
<g id="a_Node000014"><a xlink:href="error_8hh.html" target="_top" xlink:title="This file defines two main structs/classes used in nix error handling.">
<polygon fill="white" stroke="#666666" points="797.75,-191 698.5,-191 698.5,-170.25 797.75,-170.25 797.75,-191"/>
<text text-anchor="middle" x="748.12" y="-177.5" font-family="Helvetica,sans-Serif" font-size="10.00">lix/libutil/error.hh</text>
</a>
</g>
</g>
<!-- Node3&#45;&gt;Node14 -->
<g id="edge13_Node000003_Node000014" class="edge">
<title>Node3&#45;&gt;Node14</title>
<g id="a_edge13_Node000003_Node000014"><a xlink:title=" ">
<path fill="none" stroke="#63b8ff" d="M976.96,-352.85C943.69,-336.25 875.89,-300.44 825.12,-260.5 801.52,-241.93 777.92,-216.49 763.19,-199.57"/>
<polygon fill="#63b8ff" stroke="#63b8ff" points="766.12,-197.62 756.96,-192.3 760.81,-202.18 766.12,-197.62"/>
</a>
</g>
</g>
<!-- Node32 -->
<g id="Node000032" class="node">
<title>Node32</title>
<g id="a_Node000032"><a xlink:href="libutil_2config_8hh.html" target="_top" xlink:title=" ">
<polygon fill="white" stroke="#666666" points="1050.12,-317.25 944.12,-317.25 944.12,-296.5 1050.12,-296.5 1050.12,-317.25"/>
<text text-anchor="middle" x="997.12" y="-303.75" font-family="Helvetica,sans-Serif" font-size="10.00">lix/libutil/config.hh</text>
</a>
</g>
</g>
<!-- Node3&#45;&gt;Node32 -->
<g id="edge38_Node000003_Node000032" class="edge">
<title>Node3&#45;&gt;Node32</title>
<g id="a_edge38_Node000003_Node000032"><a xlink:title=" ">
<path fill="none" stroke="#63b8ff" d="M997.12,-352.84C997.12,-346.22 997.12,-337.22 997.12,-329.02"/>
<polygon fill="#63b8ff" stroke="#63b8ff" points="1000.63,-329.09 997.13,-319.09 993.63,-329.09 1000.63,-329.09"/>
</a>
</g>
</g>
<!-- Node40 -->
<g id="Node000040" class="node">
<title>Node40</title>
<g id="a_Node000040"><a xlink:title=" ">
<polygon fill="#e0e0e0" stroke="#999999" points="777.62,-317.25 644.62,-317.25 644.62,-296.5 777.62,-296.5 777.62,-317.25"/>
<text text-anchor="middle" x="711.12" y="-303.75" font-family="Helvetica,sans-Serif" font-size="10.00">logging&#45;settings.gen.inc</text>
</a>
</g>
</g>
<!-- Node3&#45;&gt;Node40 -->
<g id="edge59_Node000003_Node000040" class="edge">
<title>Node3&#45;&gt;Node40</title>
<g id="a_edge59_Node000003_Node000040"><a xlink:title=" ">
<path fill="none" stroke="#63b8ff" d="M945.66,-352.77C897.42,-343.54 825.19,-329.71 773.65,-319.84"/>
<polygon fill="#63b8ff" stroke="#63b8ff" points="774.62,-316.47 764.14,-318.02 773.3,-323.34 774.62,-316.47"/>
</a>
</g>
</g>
<!-- Node5 -->
<g id="Node000005" class="node">
<title>Node5</title>
<g id="a_Node000005"><a xlink:title=" ">
<polygon fill="#e0e0e0" stroke="#999999" points="1433.62,-134.25 1402.62,-134.25 1402.62,-113.5 1433.62,-113.5 1433.62,-134.25"/>
<text text-anchor="middle" x="1418.12" y="-120.75" font-family="Helvetica,sans-Serif" font-size="10.00">list</text>
</a>
</g>
</g>
<!-- Node4&#45;&gt;Node5 -->
<g id="edge4_Node000004_Node000005" class="edge">
<title>Node4&#45;&gt;Node5</title>
<g id="a_edge4_Node000004_Node000005"><a xlink:title=" ">
<path fill="none" stroke="#63b8ff" d="M1244.16,-170.19C1282.73,-162.69 1336.68,-151.15 1391.31,-134.8"/>
<polygon fill="#63b8ff" stroke="#63b8ff" points="1392.24,-138.18 1400.79,-131.91 1390.2,-131.48 1392.24,-138.18"/>
</a>
</g>
</g>
<!-- Node6 -->
<g id="Node000006" class="node">
<title>Node6</title>
<g id="a_Node000006"><a xlink:title=" ">
<polygon fill="#e0e0e0" stroke="#999999" points="1385,-134.25 1329.25,-134.25 1329.25,-113.5 1385,-113.5 1385,-134.25"/>
<text text-anchor="middle" x="1357.12" y="-120.75" font-family="Helvetica,sans-Serif" font-size="10.00">optional</text>
</a>
</g>
</g>
<!-- Node4&#45;&gt;Node6 -->
<g id="edge5_Node000004_Node000006" class="edge">
<title>Node4&#45;&gt;Node6</title>
<g id="a_edge5_Node000004_Node000006"><a xlink:title=" ">
<path fill="none" stroke="#63b8ff" d="M1221.62,-169.84C1248.58,-160.89 1288.64,-147.6 1318.21,-137.79"/>
<polygon fill="#63b8ff" stroke="#63b8ff" points="1319.16,-141.16 1327.55,-134.69 1316.95,-134.52 1319.16,-141.16"/>
</a>
</g>
</g>
<!-- Node7 -->
<g id="Node000007" class="node">
<title>Node7</title>
<g id="a_Node000007"><a xlink:title=" ">
<polygon fill="#e0e0e0" stroke="#999999" points="1559.62,-77.5 1528.62,-77.5 1528.62,-56.75 1559.62,-56.75 1559.62,-77.5"/>
<text text-anchor="middle" x="1544.12" y="-64" font-family="Helvetica,sans-Serif" font-size="10.00">set</text>
</a>
</g>
</g>
<!-- Node4&#45;&gt;Node7 -->
<g id="edge6_Node000004_Node000007" class="edge">
<title>Node4&#45;&gt;Node7</title>
<g id="a_edge6_Node000004_Node000007"><a xlink:title=" ">
<path fill="none" stroke="#63b8ff" d="M1244.36,-172.2C1249.02,-171.54 1253.66,-170.88 1258.12,-170.25 1314.79,-162.23 1467.1,-168.26 1513.12,-134.25 1527.93,-123.31 1535.91,-103.51 1540.05,-88.42"/>
<polygon fill="#63b8ff" stroke="#63b8ff" points="1543.37,-89.59 1542.25,-79.06 1536.56,-87.99 1543.37,-89.59"/>
</a>
</g>
</g>
<!-- Node8 -->
<g id="Node000008" class="node">
<title>Node8</title>
<g id="a_Node000008"><a xlink:title=" ">
<polygon fill="#e0e0e0" stroke="#999999" points="1176,-77.5 1132.25,-77.5 1132.25,-56.75 1176,-56.75 1176,-77.5"/>
<text text-anchor="middle" x="1154.12" y="-64" font-family="Helvetica,sans-Serif" font-size="10.00">string</text>
</a>
</g>
</g>
<!-- Node4&#45;&gt;Node8 -->
<g id="edge7_Node000004_Node000008" class="edge">
<title>Node4&#45;&gt;Node8</title>
<g id="a_edge7_Node000004_Node000008"><a xlink:title=" ">
<path fill="none" stroke="#63b8ff" d="M1188.89,-170.12C1182.77,-152.19 1169.42,-113 1161.16,-88.76"/>
<polygon fill="#63b8ff" stroke="#63b8ff" points="1164.49,-87.69 1157.95,-79.36 1157.87,-89.95 1164.49,-87.69"/>
</a>
</g>
</g>
<!-- Node9 -->
<g id="Node000009" class="node">
<title>Node9</title>
<g id="a_Node000009"><a xlink:title=" ">
<polygon fill="#e0e0e0" stroke="#999999" points="1114.25,-77.5 1042,-77.5 1042,-56.75 1114.25,-56.75 1114.25,-77.5"/>
<text text-anchor="middle" x="1078.12" y="-64" font-family="Helvetica,sans-Serif" font-size="10.00">string_view</text>
</a>
</g>
</g>
<!-- Node4&#45;&gt;Node9 -->
<g id="edge8_Node000004_Node000009" class="edge">
<title>Node4&#45;&gt;Node9</title>
<g id="a_edge8_Node000004_Node000009"><a xlink:title=" ">
<path fill="none" stroke="#63b8ff" d="M1183.97,-169.83C1172.77,-156.58 1151.78,-132.42 1132.12,-113.5 1121.72,-103.49 1109.45,-93.07 1099.23,-84.75"/>
<polygon fill="#63b8ff" stroke="#63b8ff" points="1101.71,-82.25 1091.72,-78.71 1097.32,-87.71 1101.71,-82.25"/>
</a>
</g>
</g>
<!-- Node10 -->
<g id="Node000010" class="node">
<title>Node10</title>
<g id="a_Node000010"><a xlink:title=" ">
<polygon fill="#e0e0e0" stroke="#999999" points="1123,-134.25 1085.25,-134.25 1085.25,-113.5 1123,-113.5 1123,-134.25"/>
<text text-anchor="middle" x="1104.12" y="-120.75" font-family="Helvetica,sans-Serif" font-size="10.00">map</text>
</a>
</g>
</g>
<!-- Node4&#45;&gt;Node10 -->
<g id="edge9_Node000004_Node000010" class="edge">
<title>Node4&#45;&gt;Node10</title>
<g id="a_edge9_Node000004_Node000010"><a xlink:title=" ">
<path fill="none" stroke="#63b8ff" d="M1176.39,-169.84C1163.25,-161.66 1144.28,-149.86 1129.07,-140.4"/>
<polygon fill="#63b8ff" stroke="#63b8ff" points="1131.35,-137.69 1121.01,-135.38 1127.65,-143.63 1131.35,-137.69"/>
</a>
</g>
</g>
<!-- Node11 -->
<g id="Node000011" class="node">
<title>Node11</title>
<g id="a_Node000011"><a xlink:title=" ">
<polygon fill="#e0e0e0" stroke="#999999" points="1606.5,-134.25 1559.75,-134.25 1559.75,-113.5 1606.5,-113.5 1606.5,-134.25"/>
<text text-anchor="middle" x="1583.12" y="-120.75" font-family="Helvetica,sans-Serif" font-size="10.00">vector</text>
</a>
</g>
</g>
<!-- Node4&#45;&gt;Node11 -->
<g id="edge10_Node000004_Node000011" class="edge">
<title>Node4&#45;&gt;Node11</title>
<g id="a_edge10_Node000004_Node000011"><a xlink:title=" ">
<path fill="none" stroke="#63b8ff" d="M1244.35,-172.12C1249.01,-171.48 1253.65,-170.85 1258.12,-170.25 1385.99,-153.18 1419.36,-158.14 1546.12,-134.25 1546.8,-134.12 1547.47,-133.99 1548.16,-133.86"/>
<polygon fill="#63b8ff" stroke="#63b8ff" points="1548.86,-137.28 1557.86,-131.69 1547.34,-130.45 1548.86,-137.28"/>
</a>
</g>
</g>
<!-- Node12 -->
<g id="Node000012" class="node">
<title>Node12</title>
<g id="a_Node000012"><a xlink:title=" ">
<polygon fill="#e0e0e0" stroke="#999999" points="1663.75,-134.25 1624.5,-134.25 1624.5,-113.5 1663.75,-113.5 1663.75,-134.25"/>
<text text-anchor="middle" x="1644.12" y="-120.75" font-family="Helvetica,sans-Serif" font-size="10.00">span</text>
</a>
</g>
</g>
<!-- Node4&#45;&gt;Node12 -->
<g id="edge11_Node000004_Node000012" class="edge">
<title>Node4&#45;&gt;Node12</title>
<g id="a_edge11_Node000004_Node000012"><a xlink:title=" ">
<path fill="none" stroke="#63b8ff" d="M1244.34,-172.01C1249,-171.39 1253.64,-170.79 1258.12,-170.25 1412.88,-151.46 1457.07,-166.26 1613.35,-134.18"/>
<polygon fill="#63b8ff" stroke="#63b8ff" points="1613.75,-137.67 1622.83,-132.2 1612.32,-130.82 1613.75,-137.67"/>
</a>
</g>
</g>
<!-- Node13 -->
<g id="Node000013" class="node">
<title>Node13</title>
<g id="a_Node000013"><a xlink:title=" ">
<polygon fill="#e0e0e0" stroke="#999999" points="1504.5,-134.25 1451.75,-134.25 1451.75,-113.5 1504.5,-113.5 1504.5,-134.25"/>
<text text-anchor="middle" x="1478.12" y="-120.75" font-family="Helvetica,sans-Serif" font-size="10.00">stdint.h</text>
</a>
</g>
</g>
<!-- Node4&#45;&gt;Node13 -->
<g id="edge12_Node000004_Node000013" class="edge">
<title>Node4&#45;&gt;Node13</title>
<g id="a_edge12_Node000004_Node000013"><a xlink:title=" ">
<path fill="none" stroke="#63b8ff" d="M1244.3,-171.49C1292.75,-163.64 1367.14,-150.86 1440.19,-134.77"/>
<polygon fill="#63b8ff" stroke="#63b8ff" points="1440.95,-138.19 1449.95,-132.6 1439.43,-131.36 1440.95,-138.19"/>
</a>
</g>
</g>
<!-- Node14&#45;&gt;Node5 -->
<g id="edge30_Node000014_Node000005" class="edge">
<title>Node14&#45;&gt;Node5</title>
<g id="a_edge30_Node000014_Node000005"><a xlink:title=" ">
<path fill="none" stroke="#63b8ff" d="M798.07,-171.23C800.79,-170.87 803.49,-170.54 806.12,-170.25 1062.66,-141.73 1136.35,-189.18 1391.24,-134.27"/>
<polygon fill="#63b8ff" stroke="#63b8ff" points="1391.83,-137.72 1400.85,-132.16 1390.34,-130.88 1391.83,-137.72"/>
</a>
</g>
</g>
<!-- Node14&#45;&gt;Node6 -->
<g id="edge32_Node000014_Node000006" class="edge">
<title>Node14&#45;&gt;Node6</title>
<g id="a_edge32_Node000014_Node000006"><a xlink:title=" ">
<path fill="none" stroke="#63b8ff" d="M798.07,-171.26C800.79,-170.89 803.49,-170.55 806.12,-170.25 1029.95,-144.38 1092.02,-169.68 1317.73,-134.35"/>
<polygon fill="#63b8ff" stroke="#63b8ff" points="1318.13,-137.83 1327.46,-132.8 1317.03,-130.92 1318.13,-137.83"/>
</a>
</g>
</g>
<!-- Node15 -->
<g id="Node000015" class="node">
<title>Node15</title>
<g id="a_Node000015"><a xlink:href="json-fwd_8hh_source.html" target="_top" xlink:title=" ">
<polygon fill="white" stroke="#666666" points="323.12,-134.25 205.12,-134.25 205.12,-113.5 323.12,-113.5 323.12,-134.25"/>
<text text-anchor="middle" x="264.12" y="-120.75" font-family="Helvetica,sans-Serif" font-size="10.00">lix/libutil/json&#45;fwd.hh</text>
</a>
</g>
</g>
<!-- Node14&#45;&gt;Node15 -->
<g id="edge14_Node000014_Node000015" class="edge">
<title>Node14&#45;&gt;Node15</title>
<g id="a_edge14_Node000014_Node000015"><a xlink:title=" ">
<path fill="none" stroke="#63b8ff" d="M698.15,-173.97C611.73,-164.2 434.1,-144.1 334.97,-132.89"/>
<polygon fill="#63b8ff" stroke="#63b8ff" points="335.41,-129.42 325.08,-131.77 334.63,-136.37 335.41,-129.42"/>
</a>
</g>
</g>
<!-- Node17 -->
<g id="Node000017" class="node">
<title>Node17</title>
<g id="a_Node000017"><a xlink:title=" ">
<polygon fill="#e0e0e0" stroke="#999999" points="420.38,-77.5 351.88,-77.5 351.88,-56.75 420.38,-56.75 420.38,-77.5"/>
<text text-anchor="middle" x="386.12" y="-64" font-family="Helvetica,sans-Serif" font-size="10.00">type_traits</text>
</a>
</g>
</g>
<!-- Node14&#45;&gt;Node17 -->
<g id="edge37_Node000014_Node000017" class="edge">
<title>Node14&#45;&gt;Node17</title>
<g id="a_edge37_Node000014_Node000017"><a xlink:title=" ">
<path fill="none" stroke="#63b8ff" d="M735.06,-169.9C712.58,-153.33 667.26,-120.74 649.12,-113.5 576.56,-84.53 485.48,-74.04 431.76,-70.25"/>
<polygon fill="#63b8ff" stroke="#63b8ff" points="432.28,-66.78 422.07,-69.62 431.82,-73.76 432.28,-66.78"/>
</a>
</g>
</g>
<!-- Node18 -->
<g id="Node000018" class="node">
<title>Node18</title>
<g id="a_Node000018"><a xlink:href="suggestions_8hh.html" target="_top" xlink:title=" ">
<polygon fill="white" stroke="#666666" points="1066.75,-134.25 931.5,-134.25 931.5,-113.5 1066.75,-113.5 1066.75,-134.25"/>
<text text-anchor="middle" x="999.12" y="-120.75" font-family="Helvetica,sans-Serif" font-size="10.00">lix/libutil/suggestions.hh</text>
</a>
</g>
</g>
<!-- Node14&#45;&gt;Node18 -->
<g id="edge17_Node000014_Node000018" class="edge">
<title>Node14&#45;&gt;Node18</title>
<g id="a_edge17_Node000014_Node000018"><a xlink:title=" ">
<path fill="none" stroke="#63b8ff" d="M793.29,-169.77C835.19,-160.63 897.69,-147 942.82,-137.16"/>
<polygon fill="#63b8ff" stroke="#63b8ff" points="943.4,-140.61 952.42,-135.06 941.91,-133.77 943.4,-140.61"/>
</a>
</g>
</g>
<!-- Node22 -->
<g id="Node000022" class="node">
<title>Node22</title>
<g id="a_Node000022"><a xlink:href="libutil_2fmt_8hh.html" target="_top" xlink:title=" ">
<polygon fill="white" stroke="#666666" points="1311.12,-134.25 1217.12,-134.25 1217.12,-113.5 1311.12,-113.5 1311.12,-134.25"/>
<text text-anchor="middle" x="1264.12" y="-120.75" font-family="Helvetica,sans-Serif" font-size="10.00">lix/libutil/fmt.hh</text>
</a>
</g>
</g>
<!-- Node14&#45;&gt;Node22 -->
<g id="edge24_Node000014_Node000022" class="edge">
<title>Node14&#45;&gt;Node22</title>
<g id="a_edge24_Node000014_Node000022"><a xlink:title=" ">
<path fill="none" stroke="#63b8ff" d="M798.08,-171.35C800.8,-170.96 803.5,-170.59 806.12,-170.25 949.25,-151.61 1118.43,-136.68 1205.63,-129.51"/>
<polygon fill="#63b8ff" stroke="#63b8ff" points="1205.68,-133.02 1215.37,-128.71 1205.11,-126.04 1205.68,-133.02"/>
</a>
</g>
</g>
<!-- Node26 -->
<g id="Node000026" class="node">
<title>Node26</title>
<g id="a_Node000026"><a xlink:title=" ">
<polygon fill="#e0e0e0" stroke="#999999" points="564.62,-134.25 515.62,-134.25 515.62,-113.5 564.62,-113.5 564.62,-134.25"/>
<text text-anchor="middle" x="540.12" y="-120.75" font-family="Helvetica,sans-Serif" font-size="10.00">cstring</text>
</a>
</g>
</g>
<!-- Node14&#45;&gt;Node26 -->
<g id="edge29_Node000014_Node000026" class="edge">
<title>Node14&#45;&gt;Node26</title>
<g id="a_edge29_Node000014_Node000026"><a xlink:title=" ">
<path fill="none" stroke="#63b8ff" d="M709.13,-169.79C675.98,-161.37 626.84,-148.74 575.87,-134.96"/>
<polygon fill="#63b8ff" stroke="#63b8ff" points="577,-131.64 566.43,-132.4 575.17,-138.39 577,-131.64"/>
</a>
</g>
</g>
<!-- Node27 -->
<g id="Node000027" class="node">
<title>Node27</title>
<g id="a_Node000027"><a xlink:title=" ">
<polygon fill="#e0e0e0" stroke="#999999" points="639.75,-134.25 582.5,-134.25 582.5,-113.5 639.75,-113.5 639.75,-134.25"/>
<text text-anchor="middle" x="611.12" y="-120.75" font-family="Helvetica,sans-Serif" font-size="10.00">memory</text>
</a>
</g>
</g>
<!-- Node14&#45;&gt;Node27 -->
<g id="edge31_Node000014_Node000027" class="edge">
<title>Node14&#45;&gt;Node27</title>
<g id="a_edge31_Node000014_Node000027"><a xlink:title=" ">
<path fill="none" stroke="#63b8ff" d="M723.63,-169.84C702.01,-161.19 670.24,-148.5 645.97,-138.8"/>
<polygon fill="#63b8ff" stroke="#63b8ff" points="647.4,-135.6 636.81,-135.14 644.8,-142.1 647.4,-135.6"/>
</a>
</g>
</g>
<!-- Node28 -->
<g id="Node000028" class="node">
<title>Node28</title>
<g id="a_Node000028"><a xlink:title=" ">
<polygon fill="#e0e0e0" stroke="#999999" points="767.88,-134.25 696.38,-134.25 696.38,-113.5 767.88,-113.5 767.88,-134.25"/>
<text text-anchor="middle" x="732.12" y="-120.75" font-family="Helvetica,sans-Serif" font-size="10.00">sys/types.h</text>
</a>
</g>
</g>
<!-- Node14&#45;&gt;Node28 -->
<g id="edge33_Node000014_Node000028" class="edge">
<title>Node14&#45;&gt;Node28</title>
<g id="a_edge33_Node000014_Node000028"><a xlink:title=" ">
<path fill="none" stroke="#63b8ff" d="M745.26,-169.84C743.29,-163.06 740.58,-153.8 738.13,-145.44"/>
<polygon fill="#63b8ff" stroke="#63b8ff" points="741.55,-144.65 735.39,-136.03 734.83,-146.61 741.55,-144.65"/>
</a>
</g>
</g>
<!-- Node29 -->
<g id="Node000029" class="node">
<title>Node29</title>
<g id="a_Node000029"><a xlink:title=" ">
<polygon fill="#e0e0e0" stroke="#999999" points="848.75,-134.25 785.5,-134.25 785.5,-113.5 848.75,-113.5 848.75,-134.25"/>
<text text-anchor="middle" x="817.12" y="-120.75" font-family="Helvetica,sans-Serif" font-size="10.00">sys/stat.h</text>
</a>
</g>
</g>
<!-- Node14&#45;&gt;Node29 -->
<g id="edge34_Node000014_Node000029" class="edge">
<title>Node14&#45;&gt;Node29</title>
<g id="a_edge34_Node000014_Node000029"><a xlink:title=" ">
<path fill="none" stroke="#63b8ff" d="M760.46,-169.84C770.37,-161.97 784.51,-150.75 796.19,-141.49"/>
<polygon fill="#63b8ff" stroke="#63b8ff" points="798.05,-144.48 803.71,-135.52 793.7,-138.99 798.05,-144.48"/>
</a>
</g>
</g>
<!-- Node30 -->
<g id="Node000030" class="node">
<title>Node30</title>
<g id="a_Node000030"><a xlink:title=" ">
<polygon fill="#e0e0e0" stroke="#999999" points="913.5,-134.25 866.75,-134.25 866.75,-113.5 913.5,-113.5 913.5,-134.25"/>
<text text-anchor="middle" x="890.12" y="-120.75" font-family="Helvetica,sans-Serif" font-size="10.00">fcntl.h</text>
</a>
</g>
</g>
<!-- Node14&#45;&gt;Node30 -->
<g id="edge35_Node000014_Node000030" class="edge">
<title>Node14&#45;&gt;Node30</title>
<g id="a_edge35_Node000014_Node000030"><a xlink:title=" ">
<path fill="none" stroke="#63b8ff" d="M773.51,-169.84C796.44,-161 830.38,-147.91 855.74,-138.13"/>
<polygon fill="#63b8ff" stroke="#63b8ff" points="856.89,-141.44 864.96,-134.58 854.37,-134.91 856.89,-141.44"/>
</a>
</g>
</g>
<!-- Node31 -->
<g id="Node000031" class="node">
<title>Node31</title>
<g id="a_Node000031"><a xlink:title=" ">
<polygon fill="#e0e0e0" stroke="#999999" points="497.38,-134.25 416.88,-134.25 416.88,-113.5 497.38,-113.5 497.38,-134.25"/>
<text text-anchor="middle" x="457.12" y="-120.75" font-family="Helvetica,sans-Serif" font-size="10.00">system_error</text>
</a>
</g>
</g>
<!-- Node14&#45;&gt;Node31 -->
<g id="edge36_Node000014_Node000031" class="edge">
<title>Node14&#45;&gt;Node31</title>
<g id="a_edge36_Node000014_Node000031"><a xlink:title=" ">
<path fill="none" stroke="#63b8ff" d="M698.06,-170.29C651.5,-161.6 579.9,-148.21 508.72,-134.74"/>
<polygon fill="#63b8ff" stroke="#63b8ff" points="509.73,-131.37 499.25,-132.94 508.43,-138.24 509.73,-131.37"/>
</a>
</g>
</g>
<!-- Node16 -->
<g id="Node000016" class="node">
<title>Node16</title>
<g id="a_Node000016"><a xlink:title=" ">
<polygon fill="#e0e0e0" stroke="#999999" points="329.88,-77.5 198.38,-77.5 198.38,-56.75 329.88,-56.75 329.88,-77.5"/>
<text text-anchor="middle" x="264.12" y="-64" font-family="Helvetica,sans-Serif" font-size="10.00">nlohmann/json_fwd.hpp</text>
</a>
</g>
</g>
<!-- Node15&#45;&gt;Node16 -->
<g id="edge15_Node000015_Node000016" class="edge">
<title>Node15&#45;&gt;Node16</title>
<g id="a_edge15_Node000015_Node000016"><a xlink:title=" ">
<path fill="none" stroke="#63b8ff" d="M264.12,-113.09C264.12,-106.47 264.12,-97.47 264.12,-89.27"/>
<polygon fill="#63b8ff" stroke="#63b8ff" points="267.63,-89.34 264.13,-79.34 260.63,-89.34 267.63,-89.34"/>
</a>
</g>
</g>
<!-- Node15&#45;&gt;Node17 -->
<g id="edge16_Node000015_Node000017" class="edge">
<title>Node15&#45;&gt;Node17</title>
<g id="a_edge16_Node000015_Node000017"><a xlink:title=" ">
<path fill="none" stroke="#63b8ff" d="M285.94,-113.09C304.93,-104.56 332.72,-92.09 354.22,-82.44"/>
<polygon fill="#63b8ff" stroke="#63b8ff" points="355.43,-85.74 363.12,-78.45 352.57,-79.35 355.43,-85.74"/>
</a>
</g>
</g>
<!-- Node18&#45;&gt;Node7 -->
<g id="edge20_Node000018_Node000007" class="edge">
<title>Node18&#45;&gt;Node7</title>
<g id="a_edge20_Node000018_Node000007"><a xlink:title=" ">
<path fill="none" stroke="#63b8ff" d="M1067.13,-114.45C1070.17,-114.12 1073.18,-113.8 1076.12,-113.5 1269.01,-93.93 1324.3,-119.61 1517.1,-77.32"/>
<polygon fill="#63b8ff" stroke="#63b8ff" points="1517.71,-80.77 1526.71,-75.18 1516.19,-73.94 1517.71,-80.77"/>
</a>
</g>
</g>
<!-- Node18&#45;&gt;Node8 -->
<g id="edge22_Node000018_Node000008" class="edge">
<title>Node18&#45;&gt;Node8</title>
<g id="a_edge22_Node000018_Node000008"><a xlink:title=" ">
<path fill="none" stroke="#63b8ff" d="M1026.84,-113.09C1053.32,-103.73 1093.24,-89.63 1121.31,-79.72"/>
<polygon fill="#63b8ff" stroke="#63b8ff" points="1122.47,-83.02 1130.73,-76.39 1120.14,-76.42 1122.47,-83.02"/>
</a>
</g>
</g>
<!-- Node18&#45;&gt;Node9 -->
<g id="edge21_Node000018_Node000009" class="edge">
<title>Node18&#45;&gt;Node9</title>
<g id="a_edge21_Node000018_Node000009"><a xlink:title=" ">
<path fill="none" stroke="#63b8ff" d="M1013.25,-113.09C1024.82,-105.07 1041.43,-93.56 1054.94,-84.19"/>
<polygon fill="#63b8ff" stroke="#63b8ff" points="1056.65,-87.26 1062.88,-78.69 1052.67,-81.51 1056.65,-87.26"/>
</a>
</g>
</g>
<!-- Node19 -->
<g id="Node000019" class="node">
<title>Node19</title>
<g id="a_Node000019"><a xlink:href="comparator_8hh.html" target="_top" xlink:title=" ">
<polygon fill="white" stroke="#666666" points="956.25,-77.5 824,-77.5 824,-56.75 956.25,-56.75 956.25,-77.5"/>
<text text-anchor="middle" x="890.12" y="-64" font-family="Helvetica,sans-Serif" font-size="10.00">lix/libutil/comparator.hh</text>
</a>
</g>
</g>
<!-- Node18&#45;&gt;Node19 -->
<g id="edge18_Node000018_Node000019" class="edge">
<title>Node18&#45;&gt;Node19</title>
<g id="a_edge18_Node000018_Node000019"><a xlink:title=" ">
<path fill="none" stroke="#63b8ff" d="M979.64,-113.09C962.98,-104.72 938.74,-92.54 919.69,-82.97"/>
<polygon fill="#63b8ff" stroke="#63b8ff" points="921.3,-79.87 910.8,-78.51 918.16,-86.12 921.3,-79.87"/>
</a>
</g>
</g>
<!-- Node21 -->
<g id="Node000021" class="node">
<title>Node21</title>
<g id="a_Node000021"><a xlink:title=" ">
<polygon fill="#e0e0e0" stroke="#999999" points="1024.38,-77.5 973.88,-77.5 973.88,-56.75 1024.38,-56.75 1024.38,-77.5"/>
<text text-anchor="middle" x="999.12" y="-64" font-family="Helvetica,sans-Serif" font-size="10.00">variant</text>
</a>
</g>
</g>
<!-- Node18&#45;&gt;Node21 -->
<g id="edge23_Node000018_Node000021" class="edge">
<title>Node18&#45;&gt;Node21</title>
<g id="a_edge23_Node000018_Node000021"><a xlink:title=" ">
<path fill="none" stroke="#63b8ff" d="M999.12,-113.09C999.12,-106.47 999.12,-97.47 999.12,-89.27"/>
<polygon fill="#63b8ff" stroke="#63b8ff" points="1002.63,-89.34 999.13,-79.34 995.63,-89.34 1002.63,-89.34"/>
</a>
</g>
</g>
<!-- Node20 -->
<g id="Node000020" class="node">
<title>Node20</title>
<g id="a_Node000020"><a xlink:title=" ">
<polygon fill="#e0e0e0" stroke="#999999" points="910.5,-20.75 869.75,-20.75 869.75,0 910.5,0 910.5,-20.75"/>
<text text-anchor="middle" x="890.12" y="-7.25" font-family="Helvetica,sans-Serif" font-size="10.00">tuple</text>
</a>
</g>
</g>
<!-- Node19&#45;&gt;Node20 -->
<g id="edge19_Node000019_Node000020" class="edge">
<title>Node19&#45;&gt;Node20</title>
<g id="a_edge19_Node000019_Node000020"><a xlink:title=" ">
<path fill="none" stroke="#63b8ff" d="M890.12,-56.34C890.12,-49.72 890.12,-40.72 890.12,-32.52"/>
<polygon fill="#63b8ff" stroke="#63b8ff" points="893.63,-32.59 890.13,-22.59 886.63,-32.59 893.63,-32.59"/>
</a>
</g>
</g>
<!-- Node22&#45;&gt;Node8 -->
<g id="edge26_Node000022_Node000008" class="edge">
<title>Node22&#45;&gt;Node8</title>
<g id="a_edge26_Node000022_Node000008"><a xlink:title=" ">
<path fill="none" stroke="#63b8ff" d="M1244.46,-113.09C1227.57,-104.68 1202.96,-92.43 1183.69,-82.84"/>
<polygon fill="#63b8ff" stroke="#63b8ff" points="1185.49,-79.83 1174.98,-78.5 1182.37,-86.09 1185.49,-79.83"/>
</a>
</g>
</g>
<!-- Node23 -->
<g id="Node000023" class="node">
<title>Node23</title>
<g id="a_Node000023"><a xlink:title=" ">
<polygon fill="#e0e0e0" stroke="#999999" points="1253.88,-77.5 1194.38,-77.5 1194.38,-56.75 1253.88,-56.75 1253.88,-77.5"/>
<text text-anchor="middle" x="1224.12" y="-64" font-family="Helvetica,sans-Serif" font-size="10.00">iostream</text>
</a>
</g>
</g>
<!-- Node22&#45;&gt;Node23 -->
<g id="edge25_Node000022_Node000023" class="edge">
<title>Node22&#45;&gt;Node23</title>
<g id="a_edge25_Node000022_Node000023"><a xlink:title=" ">
<path fill="none" stroke="#63b8ff" d="M1256.97,-113.09C1251.68,-105.85 1244.31,-95.76 1237.9,-86.97"/>
<polygon fill="#63b8ff" stroke="#63b8ff" points="1240.83,-85.06 1232.11,-79.05 1235.18,-89.19 1240.83,-85.06"/>
</a>
</g>
</g>
<!-- Node24 -->
<g id="Node000024" class="node">
<title>Node24</title>
<g id="a_Node000024"><a xlink:title=" ">
<polygon fill="#e0e0e0" stroke="#999999" points="1372.12,-77.5 1272.12,-77.5 1272.12,-56.75 1372.12,-56.75 1372.12,-77.5"/>
<text text-anchor="middle" x="1322.12" y="-64" font-family="Helvetica,sans-Serif" font-size="10.00">boost/format.hpp</text>
</a>
</g>
</g>
<!-- Node22&#45;&gt;Node24 -->
<g id="edge27_Node000022_Node000024" class="edge">
<title>Node22&#45;&gt;Node24</title>
<g id="a_edge27_Node000022_Node000024"><a xlink:title=" ">
<path fill="none" stroke="#63b8ff" d="M1274.49,-113.09C1282.58,-105.46 1294.01,-94.67 1303.65,-85.57"/>
<polygon fill="#63b8ff" stroke="#63b8ff" points="1305.88,-88.28 1310.74,-78.87 1301.07,-83.19 1305.88,-88.28"/>
</a>
</g>
</g>
<!-- Node25 -->
<g id="Node000025" class="node">
<title>Node25</title>
<g id="a_Node000025"><a xlink:href="ansicolor_8hh.html" target="_top" xlink:title="Some ANSI escape sequences.">
<polygon fill="white" stroke="#666666" points="1510.25,-77.5 1390,-77.5 1390,-56.75 1510.25,-56.75 1510.25,-77.5"/>
<text text-anchor="middle" x="1450.12" y="-64" font-family="Helvetica,sans-Serif" font-size="10.00">lix/libutil/ansicolor.hh</text>
</a>
</g>
</g>
<!-- Node22&#45;&gt;Node25 -->
<g id="edge28_Node000022_Node000025" class="edge">
<title>Node22&#45;&gt;Node25</title>
<g id="a_edge28_Node000022_Node000025"><a xlink:title=" ">
<path fill="none" stroke="#63b8ff" d="M1297.38,-113.09C1327.7,-104.16 1372.72,-90.91 1406.04,-81.1"/>
<polygon fill="#63b8ff" stroke="#63b8ff" points="1406.79,-84.53 1415.39,-78.35 1404.81,-77.81 1406.79,-84.53"/>
</a>
</g>
</g>
<!-- Node32&#45;&gt;Node4 -->
<g id="edge43_Node000032_Node000004" class="edge">
<title>Node32&#45;&gt;Node4</title>
<g id="a_edge43_Node000032_Node000004"><a xlink:title=" ">
<path fill="none" stroke="#63b8ff" d="M1050.42,-301.98C1084.13,-297.01 1126.74,-285.77 1156.12,-260.5 1173.56,-245.51 1183,-220.32 1187.79,-202.45"/>
<polygon fill="#63b8ff" stroke="#63b8ff" points="1191.14,-203.47 1190.05,-192.93 1184.33,-201.85 1191.14,-203.47"/>
</a>
</g>
</g>
<!-- Node32&#45;&gt;Node7 -->
<g id="edge41_Node000032_Node000007" class="edge">
<title>Node32&#45;&gt;Node7</title>
<g id="a_edge41_Node000032_Node000007"><a xlink:title=" ">
<path fill="none" stroke="#63b8ff" d="M1050.45,-299.14C1088.41,-292.85 1139.8,-281.21 1181.12,-260.5 1237.66,-232.17 1232.65,-194.32 1291.12,-170.25 1369.97,-137.79 1615.73,-197.31 1673.12,-134.25 1705.46,-98.72 1617.85,-79.41 1571.19,-71.89"/>
<polygon fill="#63b8ff" stroke="#63b8ff" points="1571.96,-68.46 1561.54,-70.42 1570.9,-75.38 1571.96,-68.46"/>
</a>
</g>
</g>
<!-- Node32&#45;&gt;Node10 -->
<g id="edge40_Node000032_Node000010" class="edge">
<title>Node32&#45;&gt;Node10</title>
<g id="a_edge40_Node000032_Node000010"><a xlink:title=" ">
<path fill="none" stroke="#63b8ff" d="M997.98,-296.14C999.66,-280.72 1004.3,-250.06 1016.12,-227 1033.44,-193.23 1064.13,-161.26 1084.3,-142.37"/>
<polygon fill="#63b8ff" stroke="#63b8ff" points="1086.61,-145 1091.63,-135.67 1081.89,-139.83 1086.61,-145"/>
</a>
</g>
</g>
<!-- Node32&#45;&gt;Node15 -->
<g id="edge42_Node000032_Node000015" class="edge">
<title>Node32&#45;&gt;Node15</title>
<g id="a_edge42_Node000032_Node000015"><a xlink:title=" ">
<path fill="none" stroke="#63b8ff" d="M943.96,-303.49C852.83,-298.84 661.13,-286.66 501.12,-260.5 369.04,-238.91 291.12,-295.99 208.12,-191 194.17,-173.35 215.63,-153.76 235.88,-140.52"/>
<polygon fill="#63b8ff" stroke="#63b8ff" points="237.6,-143.57 244.28,-135.35 233.93,-137.61 237.6,-143.57"/>
</a>
</g>
</g>
<!-- Node33 -->
<g id="Node000033" class="node">
<title>Node33</title>
<g id="a_Node000033"><a xlink:title=" ">
<polygon fill="#e0e0e0" stroke="#999999" points="1351.75,-191 1300.5,-191 1300.5,-170.25 1351.75,-170.25 1351.75,-191"/>
<text text-anchor="middle" x="1326.12" y="-177.5" font-family="Helvetica,sans-Serif" font-size="10.00">cassert</text>
</a>
</g>
</g>
<!-- Node32&#45;&gt;Node33 -->
<g id="edge39_Node000032_Node000033" class="edge">
<title>Node32&#45;&gt;Node33</title>
<g id="a_edge39_Node000032_Node000033"><a xlink:title=" ">
<path fill="none" stroke="#63b8ff" d="M1050.47,-303.25C1123.42,-298.7 1249.46,-287.15 1286.12,-260.5 1305.29,-246.57 1315.88,-220.78 1321.28,-202.48"/>
<polygon fill="#63b8ff" stroke="#63b8ff" points="1324.62,-203.52 1323.78,-192.96 1317.85,-201.74 1324.62,-203.52"/>
</a>
</g>
</g>
<!-- Node34 -->
<g id="Node000034" class="node">
<title>Node34</title>
<g id="a_Node000034"><a xlink:href="experimental-features_8hh.html" target="_top" xlink:title=" ">
<polygon fill="white" stroke="#666666" points="637.62,-260.5 510.62,-260.5 510.62,-227 637.62,-227 637.62,-260.5"/>
<text text-anchor="start" x="518.62" y="-247" font-family="Helvetica,sans-Serif" font-size="10.00">lix/libutil/experimental</text>
<text text-anchor="middle" x="574.12" y="-234.25" font-family="Helvetica,sans-Serif" font-size="10.00">&#45;features.hh</text>
</a>
</g>
</g>
<!-- Node32&#45;&gt;Node34 -->
<g id="edge44_Node000032_Node000034" class="edge">
<title>Node32&#45;&gt;Node34</title>
<g id="a_edge44_Node000032_Node000034"><a xlink:title=" ">
<path fill="none" stroke="#63b8ff" d="M943.98,-298.2C869.62,-287.45 734.17,-267.88 649.44,-255.63"/>
<polygon fill="#63b8ff" stroke="#63b8ff" points="649.99,-252.18 639.59,-254.21 648.99,-259.1 649.99,-252.18"/>
</a>
</g>
</g>
<!-- Node36 -->
<g id="Node000036" class="node">
<title>Node36</title>
<g id="a_Node000036"><a xlink:href="deprecated-features_8hh.html" target="_top" xlink:title=" ">
<polygon fill="white" stroke="#666666" points="950.38,-260.5 833.88,-260.5 833.88,-227 950.38,-227 950.38,-260.5"/>
<text text-anchor="start" x="841.88" y="-247" font-family="Helvetica,sans-Serif" font-size="10.00">lix/libutil/deprecated</text>
<text text-anchor="middle" x="892.12" y="-234.25" font-family="Helvetica,sans-Serif" font-size="10.00">&#45;features.hh</text>
</a>
</g>
</g>
<!-- Node32&#45;&gt;Node36 -->
<g id="edge50_Node000032_Node000036" class="edge">
<title>Node32&#45;&gt;Node36</title>
<g id="a_edge50_Node000032_Node000036"><a xlink:title=" ">
<path fill="none" stroke="#63b8ff" d="M980.25,-296.05C966.69,-288.16 947.11,-276.76 929.84,-266.71"/>
<polygon fill="#63b8ff" stroke="#63b8ff" points="931.72,-263.75 921.32,-261.75 928.2,-269.8 931.72,-263.75"/>
</a>
</g>
</g>
<!-- Node38 -->
<g id="Node000038" class="node">
<title>Node38</title>
<g id="a_Node000038"><a xlink:href="apply-config-options_8hh.html" target="_top" xlink:title="Options for applying Config settings.">
<polygon fill="white" stroke="#666666" points="1147,-260.5 1025.25,-260.5 1025.25,-227 1147,-227 1147,-260.5"/>
<text text-anchor="start" x="1033.25" y="-247" font-family="Helvetica,sans-Serif" font-size="10.00">lix/libutil/apply&#45;config</text>
<text text-anchor="middle" x="1086.12" y="-234.25" font-family="Helvetica,sans-Serif" font-size="10.00">&#45;options.hh</text>
</a>
</g>
</g>
<!-- Node32&#45;&gt;Node38 -->
<g id="edge56_Node000032_Node000038" class="edge">
<title>Node32&#45;&gt;Node38</title>
<g id="a_edge56_Node000032_Node000038"><a xlink:title=" ">
<path fill="none" stroke="#63b8ff" d="M1011.42,-296.05C1022.71,-288.3 1038.9,-277.18 1053.33,-267.27"/>
<polygon fill="#63b8ff" stroke="#63b8ff" points="1054.98,-270.39 1061.24,-261.84 1051.01,-264.62 1054.98,-270.39"/>
</a>
</g>
</g>
<!-- Node39 -->
<g id="Node000039" class="node">
<title>Node39</title>
<g id="a_Node000039"><a xlink:title=" ">
<polygon fill="#e0e0e0" stroke="#999999" points="132.25,-254.12 0,-254.12 0,-233.38 132.25,-233.38 132.25,-254.12"/>
<text text-anchor="middle" x="66.12" y="-240.62" font-family="Helvetica,sans-Serif" font-size="10.00">feature&#45;settings.gen.inc</text>
</a>
</g>
</g>
<!-- Node32&#45;&gt;Node39 -->
<g id="edge58_Node000032_Node000039" class="edge">
<title>Node32&#45;&gt;Node39</title>
<g id="a_edge58_Node000032_Node000039"><a xlink:title=" ">
<path fill="none" stroke="#63b8ff" d="M943.8,-303.47C769.74,-295.56 224.9,-270.31 146.12,-260.5 138.11,-259.5 129.69,-258.17 121.45,-256.69"/>
<polygon fill="#63b8ff" stroke="#63b8ff" points="122.34,-253.3 111.86,-254.9 121.05,-260.18 122.34,-253.3"/>
</a>
</g>
</g>
<!-- Node34&#45;&gt;Node4 -->
<g id="edge47_Node000034_Node000004" class="edge">
<title>Node34&#45;&gt;Node4</title>
<g id="a_edge47_Node000034_Node000004"><a xlink:title=" ">
<path fill="none" stroke="#63b8ff" d="M637.93,-236.44C756.57,-224.7 1009.79,-199.66 1128.38,-187.93"/>
<polygon fill="#63b8ff" stroke="#63b8ff" points="1128.65,-191.42 1138.26,-186.95 1127.96,-184.45 1128.65,-191.42"/>
</a>
</g>
</g>
<!-- Node34&#45;&gt;Node14 -->
<g id="edge45_Node000034_Node000014" class="edge">
<title>Node34&#45;&gt;Node14</title>
<g id="a_edge45_Node000034_Node000014"><a xlink:title=" ">
<path fill="none" stroke="#63b8ff" d="M620.3,-226.53C648.14,-216.75 683.19,-204.44 709.54,-195.18"/>
<polygon fill="#63b8ff" stroke="#63b8ff" points="710.55,-198.53 718.83,-191.92 708.23,-191.93 710.55,-198.53"/>
</a>
</g>
</g>
<!-- Node34&#45;&gt;Node15 -->
<g id="edge46_Node000034_Node000015" class="edge">
<title>Node34&#45;&gt;Node15</title>
<g id="a_edge46_Node000034_Node000015"><a xlink:title=" ">
<path fill="none" stroke="#63b8ff" d="M510.47,-243.07C418.22,-242.02 254.32,-233.97 217.12,-191 203.31,-175.04 221.78,-155.1 239.47,-141.32"/>
<polygon fill="#63b8ff" stroke="#63b8ff" points="241.25,-144.35 247.25,-135.61 237.12,-138.7 241.25,-144.35"/>
</a>
</g>
</g>
<!-- Node34&#45;&gt;Node17 -->
<g id="edge48_Node000034_Node000017" class="edge">
<title>Node34&#45;&gt;Node17</title>
<g id="a_edge48_Node000034_Node000017"><a xlink:title=" ">
<path fill="none" stroke="#63b8ff" d="M510.28,-226.76C463.82,-211.41 404.15,-183.14 375.12,-134.25 366.86,-120.33 370.82,-102.02 376.16,-88.2"/>
<polygon fill="#63b8ff" stroke="#63b8ff" points="379.29,-89.79 380.13,-79.22 372.89,-86.96 379.29,-89.79"/>
</a>
</g>
</g>
<!-- Node35 -->
<g id="Node000035" class="node">
<title>Node35</title>
<g id="a_Node000035"><a xlink:title=" ">
<polygon fill="#e0e0e0" stroke="#999999" points="390,-191 226.25,-191 226.25,-170.25 390,-170.25 390,-191"/>
<text text-anchor="middle" x="308.12" y="-177.5" font-family="Helvetica,sans-Serif" font-size="10.00">experimental&#45;features.gen.inc</text>
</a>
</g>
</g>
<!-- Node34&#45;&gt;Node35 -->
<g id="edge49_Node000034_Node000035" class="edge">
<title>Node34&#45;&gt;Node35</title>
<g id="a_edge49_Node000034_Node000035"><a xlink:title=" ">
<path fill="none" stroke="#63b8ff" d="M510.41,-228.11C465.12,-217.7 404.96,-203.88 362.05,-194.02"/>
<polygon fill="#63b8ff" stroke="#63b8ff" points="362.98,-190.64 352.45,-191.81 361.41,-197.46 362.98,-190.64"/>
</a>
</g>
</g>
<!-- Node36&#45;&gt;Node4 -->
<g id="edge53_Node000036_Node000004" class="edge">
<title>Node36&#45;&gt;Node4</title>
<g id="a_edge53_Node000036_Node000004"><a xlink:title=" ">
<path fill="none" stroke="#63b8ff" d="M950.68,-230.82C1003.26,-220.11 1080.09,-204.45 1132.88,-193.7"/>
<polygon fill="#63b8ff" stroke="#63b8ff" points="1133.51,-197.14 1142.61,-191.71 1132.12,-190.28 1133.51,-197.14"/>
</a>
</g>
</g>
<!-- Node36&#45;&gt;Node14 -->
<g id="edge51_Node000036_Node000014" class="edge">
<title>Node36&#45;&gt;Node14</title>
<g id="a_edge51_Node000036_Node000014"><a xlink:title=" ">
<path fill="none" stroke="#63b8ff" d="M853.91,-226.53C831.39,-216.97 803.16,-204.99 781.53,-195.8"/>
<polygon fill="#63b8ff" stroke="#63b8ff" points="783.15,-192.69 772.58,-192.01 780.42,-199.14 783.15,-192.69"/>
</a>
</g>
</g>
<!-- Node36&#45;&gt;Node15 -->
<g id="edge52_Node000036_Node000015" class="edge">
<title>Node36&#45;&gt;Node15</title>
<g id="a_edge52_Node000036_Node000015"><a xlink:title=" ">
<path fill="none" stroke="#63b8ff" d="M833.6,-238.59C753.24,-232.15 604.54,-217.65 480.12,-191 416.41,-177.35 344.41,-153.57 301.72,-138.55"/>
<polygon fill="#63b8ff" stroke="#63b8ff" points="303.03,-135.3 292.43,-135.25 300.69,-141.9 303.03,-135.3"/>
</a>
</g>
</g>
<!-- Node36&#45;&gt;Node17 -->
<g id="edge54_Node000036_Node000017" class="edge">
<title>Node36&#45;&gt;Node17</title>
<g id="a_edge54_Node000036_Node000017"><a xlink:title=" ">
<path fill="none" stroke="#63b8ff" d="M833.39,-236.8C718.63,-224.04 470.41,-190.56 408.12,-134.25 395.36,-122.71 389.99,-103.59 387.74,-88.87"/>
<polygon fill="#63b8ff" stroke="#63b8ff" points="391.26,-88.85 386.65,-79.31 384.3,-89.64 391.26,-88.85"/>
</a>
</g>
</g>
<!-- Node37 -->
<g id="Node000037" class="node">
<title>Node37</title>
<g id="a_Node000037"><a xlink:title=" ">
<polygon fill="#e0e0e0" stroke="#999999" points="968.75,-191 815.5,-191 815.5,-170.25 968.75,-170.25 968.75,-191"/>
<text text-anchor="middle" x="892.12" y="-177.5" font-family="Helvetica,sans-Serif" font-size="10.00">deprecated&#45;features.gen.inc</text>
</a>
</g>
</g>
<!-- Node36&#45;&gt;Node37 -->
<g id="edge55_Node000036_Node000037" class="edge">
<title>Node36&#45;&gt;Node37</title>
<g id="a_edge55_Node000036_Node000037"><a xlink:title=" ">
<path fill="none" stroke="#63b8ff" d="M892.12,-226.69C892.12,-219.35 892.12,-210.57 892.12,-202.71"/>
<polygon fill="#63b8ff" stroke="#63b8ff" points="895.63,-202.98 892.13,-192.98 888.63,-202.98 895.63,-202.98"/>
</a>
</g>
</g>
<!-- Node38&#45;&gt;Node4 -->
<g id="edge57_Node000038_Node000004" class="edge">
<title>Node38&#45;&gt;Node4</title>
<g id="a_edge57_Node000038_Node000004"><a xlink:title=" ">
<path fill="none" stroke="#63b8ff" d="M1114.25,-226.53C1130.15,-217.36 1149.91,-205.97 1165.55,-196.95"/>
<polygon fill="#63b8ff" stroke="#63b8ff" points="1166.92,-200.2 1173.84,-192.17 1163.43,-194.13 1166.92,-200.2"/>
</a>
</g>
</g>
<!-- Node41&#45;&gt;Node4 -->
<g id="edge61_Node000041_Node000004" class="edge">
<title>Node41&#45;&gt;Node4</title>
<g id="a_edge61_Node000041_Node000004"><a xlink:title=" ">
<path fill="none" stroke="#63b8ff" d="M1425.46,-232.93C1377.13,-222.3 1299.99,-205.34 1247.75,-193.86"/>
<polygon fill="#63b8ff" stroke="#63b8ff" points="1248.68,-190.48 1238.16,-191.75 1247.17,-197.31 1248.68,-190.48"/>
</a>
</g>
</g>
<!-- Node41&#45;&gt;Node5 -->
<g id="edge65_Node000041_Node000005" class="edge">
<title>Node41&#45;&gt;Node5</title>
<g id="a_edge65_Node000041_Node000005"><a xlink:title=" ">
<path fill="none" stroke="#63b8ff" d="M1462.64,-232.93C1455.27,-222.87 1444.13,-206.54 1437.12,-191 1430.51,-176.33 1425.59,-158.78 1422.42,-145.45"/>
<polygon fill="#63b8ff" stroke="#63b8ff" points="1425.92,-145.07 1420.33,-136.07 1419.09,-146.6 1425.92,-145.07"/>
</a>
</g>
</g>
<!-- Node41&#45;&gt;Node6 -->
<g id="edge69_Node000041_Node000006" class="edge">
<title>Node41&#45;&gt;Node6</title>
<g id="a_edge69_Node000041_Node000006"><a xlink:title=" ">
<path fill="none" stroke="#63b8ff" d="M1460.88,-233.1C1441.92,-213.33 1398.41,-167.94 1374.19,-142.68"/>
<polygon fill="#63b8ff" stroke="#63b8ff" points="1376.99,-140.54 1367.55,-135.75 1371.94,-145.39 1376.99,-140.54"/>
</a>
</g>
</g>
<!-- Node41&#45;&gt;Node33 -->
<g id="edge68_Node000041_Node000033" class="edge">
<title>Node41&#45;&gt;Node33</title>
<g id="a_edge68_Node000041_Node000033"><a xlink:title=" ">
<path fill="none" stroke="#63b8ff" d="M1446.99,-232.93C1423.37,-222.9 1386.47,-207.24 1359.65,-195.86"/>
<polygon fill="#63b8ff" stroke="#63b8ff" points="1361.17,-192.7 1350.6,-192.01 1358.43,-199.14 1361.17,-192.7"/>
</a>
</g>
</g>
<!-- Node42 -->
<g id="Node000042" class="node">
<title>Node42</title>
<g id="a_Node000042"><a xlink:title=" ">
<polygon fill="#e0e0e0" stroke="#999999" points="1494.25,-191 1446,-191 1446,-170.25 1494.25,-170.25 1494.25,-191"/>
<text text-anchor="middle" x="1470.12" y="-177.5" font-family="Helvetica,sans-Serif" font-size="10.00">cstdlib</text>
</a>
</g>
</g>
<!-- Node41&#45;&gt;Node42 -->
<g id="edge62_Node000041_Node000042" class="edge">
<title>Node41&#45;&gt;Node42</title>
<g id="a_edge62_Node000041_Node000042"><a xlink:title=" ">
<path fill="none" stroke="#63b8ff" d="M1470.12,-232.93C1470.12,-224.77 1470.12,-212.88 1470.12,-202.6"/>
<polygon fill="#63b8ff" stroke="#63b8ff" points="1473.63,-202.73 1470.13,-192.73 1466.63,-202.73 1473.63,-202.73"/>
</a>
</g>
</g>
<!-- Node43 -->
<g id="Node000043" class="node">
<title>Node43</title>
<g id="a_Node000043"><a xlink:title=" ">
<polygon fill="#e0e0e0" stroke="#999999" points="1577.88,-191 1512.38,-191 1512.38,-170.25 1577.88,-170.25 1577.88,-191"/>
<text text-anchor="middle" x="1545.12" y="-177.5" font-family="Helvetica,sans-Serif" font-size="10.00">kj/async.h</text>
</a>
</g>
</g>
<!-- Node41&#45;&gt;Node43 -->
<g id="edge63_Node000041_Node000043" class="edge">
<title>Node41&#45;&gt;Node43</title>
<g id="a_edge63_Node000041_Node000043"><a xlink:title=" ">
<path fill="none" stroke="#63b8ff" d="M1482.18,-232.93C1493.61,-223.61 1511.03,-209.41 1524.65,-198.31"/>
<polygon fill="#63b8ff" stroke="#63b8ff" points="1526.64,-201.21 1532.18,-192.18 1522.22,-195.78 1526.64,-201.21"/>
</a>
</g>
</g>
<!-- Node44 -->
<g id="Node000044" class="node">
<title>Node44</title>
<g id="a_Node000044"><a xlink:title=" ">
<polygon fill="#e0e0e0" stroke="#999999" points="1676,-191 1596.25,-191 1596.25,-170.25 1676,-170.25 1676,-191"/>
<text text-anchor="middle" x="1636.12" y="-177.5" font-family="Helvetica,sans-Serif" font-size="10.00">kj/common.h</text>
</a>
</g>
</g>
<!-- Node41&#45;&gt;Node44 -->
<g id="edge64_Node000041_Node000044" class="edge">
<title>Node41&#45;&gt;Node44</title>
<g id="a_edge64_Node000041_Node000044"><a xlink:title=" ">
<path fill="none" stroke="#63b8ff" d="M1496.8,-232.93C1524.51,-222.73 1568.08,-206.68 1599.11,-195.25"/>
<polygon fill="#63b8ff" stroke="#63b8ff" points="1599.93,-198.68 1608.1,-191.94 1597.51,-192.12 1599.93,-198.68"/>
</a>
</g>
</g>
<!-- Node45 -->
<g id="Node000045" class="node">
<title>Node45</title>
<g id="a_Node000045"><a xlink:title=" ">
<polygon fill="#e0e0e0" stroke="#999999" points="1741.88,-191 1694.38,-191 1694.38,-170.25 1741.88,-170.25 1741.88,-191"/>
<text text-anchor="middle" x="1718.12" y="-177.5" font-family="Helvetica,sans-Serif" font-size="10.00">mutex</text>
</a>
</g>
</g>
<!-- Node41&#45;&gt;Node45 -->
<g id="edge66_Node000041_Node000045" class="edge">
<title>Node41&#45;&gt;Node45</title>
<g id="a_edge66_Node000041_Node000045"><a xlink:title=" ">
<path fill="none" stroke="#63b8ff" d="M1513.09,-232.95C1554.28,-223.43 1618.49,-208.29 1683.2,-191.43"/>
<polygon fill="#63b8ff" stroke="#63b8ff" points="1683.75,-194.9 1692.54,-188.98 1681.98,-188.13 1683.75,-194.9"/>
</a>
</g>
</g>
<!-- Node46 -->
<g id="Node000046" class="node">
<title>Node46</title>
<g id="a_Node000046"><a xlink:title=" ">
<polygon fill="#e0e0e0" stroke="#999999" points="1866.12,-191 1760.12,-191 1760.12,-170.25 1866.12,-170.25 1866.12,-191"/>
<text text-anchor="middle" x="1813.12" y="-177.5" font-family="Helvetica,sans-Serif" font-size="10.00">condition_variable</text>
</a>
</g>
</g>
<!-- Node41&#45;&gt;Node46 -->
<g id="edge67_Node000041_Node000046" class="edge">
<title>Node41&#45;&gt;Node46</title>
<g id="a_edge67_Node000041_Node000046"><a xlink:title=" ">
<path fill="none" stroke="#63b8ff" d="M1520,-233.86C1580.42,-223.09 1682.34,-204.93 1748.66,-193.11"/>
<polygon fill="#63b8ff" stroke="#63b8ff" points="1749.08,-196.59 1758.31,-191.39 1747.85,-189.7 1749.08,-196.59"/>
</a>
</g>
</g>
<!-- Node47 -->
<g id="Node000047" class="node">
<title>Node47</title>
<g id="a_Node000047"><a xlink:title=" ">
<polygon fill="#e0e0e0" stroke="#999999" points="1928.38,-191 1883.88,-191 1883.88,-170.25 1928.38,-170.25 1928.38,-191"/>
<text text-anchor="middle" x="1906.12" y="-177.5" font-family="Helvetica,sans-Serif" font-size="10.00">utility</text>
</a>
</g>
</g>
<!-- Node41&#45;&gt;Node47 -->
<g id="edge70_Node000041_Node000047" class="edge">
<title>Node41&#45;&gt;Node47</title>
<g id="a_edge70_Node000041_Node000047"><a xlink:title=" ">
<path fill="none" stroke="#63b8ff" d="M1520.14,-239.06C1594.97,-232.94 1740.55,-218.78 1872.46,-191.28"/>
<polygon fill="#63b8ff" stroke="#63b8ff" points="1873.01,-194.74 1882.07,-189.24 1871.56,-187.89 1873.01,-194.74"/>
</a>
</g>
</g>
</g>
</svg>
