<?xml version="1.0" encoding="UTF-8" standalone="no"?>
<!DOCTYPE svg PUBLIC "-//W3C//DTD SVG 1.1//EN"
 "http://www.w3.org/Graphics/SVG/1.1/DTD/svg11.dtd">
<!-- Generated by graphviz version 12.2.1 (0)
 -->
<!-- Title: lix/libutil/regex.hh Pages: 1 -->
<svg width="114pt" height="86pt"
 viewBox="0.00 0.00 113.75 85.50" xmlns="http://www.w3.org/2000/svg" xmlns:xlink="http://www.w3.org/1999/xlink">
<g id="graph0" class="graph" transform="scale(1 1) rotate(0) translate(4 81.5)">
<title>lix/libutil/regex.hh</title>
<!-- Node1 -->
<g id="Node000001" class="node">
<title>Node1</title>
<g id="a_Node000001"><a xlink:title=" ">
<polygon fill="#999999" stroke="#666666" points="105.12,-77.5 0.62,-77.5 0.62,-56.75 105.12,-56.75 105.12,-77.5"/>
<text text-anchor="middle" x="52.88" y="-64" font-family="Helvetica,sans-Serif" font-size="10.00">lix/libutil/regex.hh</text>
</a>
</g>
</g>
<!-- Node2 -->
<g id="Node000002" class="node">
<title>Node2</title>
<g id="a_Node000002"><a xlink:title=" ">
<polygon fill="#e0e0e0" stroke="#999999" points="43.75,-20.75 0,-20.75 0,0 43.75,0 43.75,-20.75"/>
<text text-anchor="middle" x="21.88" y="-7.25" font-family="Helvetica,sans-Serif" font-size="10.00">string</text>
</a>
</g>
</g>
<!-- Node1&#45;&gt;Node2 -->
<g id="edge1_Node000001_Node000002" class="edge">
<title>Node1&#45;&gt;Node2</title>
<g id="a_edge1_Node000001_Node000002"><a xlink:title=" ">
<path fill="none" stroke="#63b8ff" d="M47.33,-56.34C43.37,-49.33 37.89,-39.66 33.03,-31.08"/>
<polygon fill="#63b8ff" stroke="#63b8ff" points="36.09,-29.37 28.11,-22.4 30,-32.82 36.09,-29.37"/>
</a>
</g>
</g>
<!-- Node3 -->
<g id="Node000003" class="node">
<title>Node3</title>
<g id="a_Node000003"><a xlink:title=" ">
<polygon fill="#e0e0e0" stroke="#999999" points="105.75,-20.75 62,-20.75 62,0 105.75,0 105.75,-20.75"/>
<text text-anchor="middle" x="83.88" y="-7.25" font-family="Helvetica,sans-Serif" font-size="10.00">regex</text>
</a>
</g>
</g>
<!-- Node1&#45;&gt;Node3 -->
<g id="edge2_Node000001_Node000003" class="edge">
<title>Node1&#45;&gt;Node3</title>
<g id="a_edge2_Node000001_Node000003"><a xlink:title=" ">
<path fill="none" stroke="#63b8ff" d="M58.42,-56.34C62.38,-49.33 67.86,-39.66 72.72,-31.08"/>
<polygon fill="#63b8ff" stroke="#63b8ff" points="75.75,-32.82 77.64,-22.4 69.66,-29.37 75.75,-32.82"/>
</a>
</g>
</g>
</g>
</svg>
