<?xml version="1.0" encoding="UTF-8" standalone="no"?>
<!DOCTYPE svg PUBLIC "-//W3C//DTD SVG 1.1//EN"
 "http://www.w3.org/Graphics/SVG/1.1/DTD/svg11.dtd">
<!-- Generated by graphviz version 12.2.1 (0)
 -->
<!-- Title: lix/libutil/regex&#45;combinators.hh Pages: 1 -->
<svg width="1575pt" height="325pt"
 viewBox="0.00 0.00 1574.94 325.25" xmlns="http://www.w3.org/2000/svg" xmlns:xlink="http://www.w3.org/1999/xlink">
<g id="graph0" class="graph" transform="scale(1 1) rotate(0) translate(4 321.25)">
<title>lix/libutil/regex&#45;combinators.hh</title>
<!-- Node1 -->
<g id="Node000001" class="node">
<title>Node1</title>
<g id="a_Node000001"><a xlink:title=" ">
<polygon fill="#999999" stroke="#666666" points="1552.25,-317.25 1383.25,-317.25 1383.25,-296.5 1552.25,-296.5 1552.25,-317.25"/>
<text text-anchor="middle" x="1467.75" y="-303.75" font-family="Helvetica,sans-Serif" font-size="10.00">lix/libutil/regex&#45;combinators.hh</text>
</a>
</g>
</g>
<!-- Node2 -->
<g id="Node000002" class="node">
<title>Node2</title>
<g id="a_Node000002"><a xlink:href="strings_8hh.html" target="_top" xlink:title=" ">
<polygon fill="white" stroke="#666666" points="1433.62,-260.5 1323.88,-260.5 1323.88,-239.75 1433.62,-239.75 1433.62,-260.5"/>
<text text-anchor="middle" x="1378.75" y="-247" font-family="Helvetica,sans-Serif" font-size="10.00">lix/libutil/strings.hh</text>
</a>
</g>
</g>
<!-- Node1&#45;&gt;Node2 -->
<g id="edge1_Node000001_Node000002" class="edge">
<title>Node1&#45;&gt;Node2</title>
<g id="a_edge1_Node000001_Node000002"><a xlink:title=" ">
<path fill="none" stroke="#63b8ff" d="M1451.84,-296.09C1438.55,-287.91 1419.36,-276.11 1403.98,-266.65"/>
<polygon fill="#63b8ff" stroke="#63b8ff" points="1406.16,-263.88 1395.81,-261.62 1402.5,-269.84 1406.16,-263.88"/>
</a>
</g>
</g>
<!-- Node11 -->
<g id="Node000011" class="node">
<title>Node11</title>
<g id="a_Node000011"><a xlink:title=" ">
<polygon fill="#e0e0e0" stroke="#999999" points="1319.88,-77.5 1247.62,-77.5 1247.62,-56.75 1319.88,-56.75 1319.88,-77.5"/>
<text text-anchor="middle" x="1283.75" y="-64" font-family="Helvetica,sans-Serif" font-size="10.00">string_view</text>
</a>
</g>
</g>
<!-- Node1&#45;&gt;Node11 -->
<g id="edge39_Node000001_Node000011" class="edge">
<title>Node1&#45;&gt;Node11</title>
<g id="a_edge39_Node000001_Node000011"><a xlink:title=" ">
<path fill="none" stroke="#63b8ff" d="M1478.76,-296.01C1511.28,-265.72 1601.61,-172.52 1551.75,-113.5 1524.11,-80.79 1400.95,-71.65 1331.61,-69.11"/>
<polygon fill="#63b8ff" stroke="#63b8ff" points="1331.77,-65.61 1321.66,-68.78 1331.53,-72.61 1331.77,-65.61"/>
</a>
</g>
</g>
<!-- Node3 -->
<g id="Node000003" class="node">
<title>Node3</title>
<g id="a_Node000003"><a xlink:href="error_8hh.html" target="_top" xlink:title="This file defines two main structs/classes used in nix error handling.">
<polygon fill="white" stroke="#666666" points="826.38,-197.38 727.12,-197.38 727.12,-176.62 826.38,-176.62 826.38,-197.38"/>
<text text-anchor="middle" x="776.75" y="-183.88" font-family="Helvetica,sans-Serif" font-size="10.00">lix/libutil/error.hh</text>
</a>
</g>
</g>
<!-- Node2&#45;&gt;Node3 -->
<g id="edge2_Node000002_Node000003" class="edge">
<title>Node2&#45;&gt;Node3</title>
<g id="a_edge2_Node000002_Node000003"><a xlink:title=" ">
<path fill="none" stroke="#63b8ff" d="M1323.46,-243.51C1210.8,-232.07 955.41,-206.14 837.94,-194.21"/>
<polygon fill="#63b8ff" stroke="#63b8ff" points="838.49,-190.75 828.18,-193.22 837.78,-197.71 838.49,-190.75"/>
</a>
</g>
</g>
<!-- Node26 -->
<g id="Node000026" class="node">
<title>Node26</title>
<g id="a_Node000026"><a xlink:href="types_8hh.html" target="_top" xlink:title=" ">
<polygon fill="white" stroke="#666666" points="1342.62,-197.38 1238.88,-197.38 1238.88,-176.62 1342.62,-176.62 1342.62,-197.38"/>
<text text-anchor="middle" x="1290.75" y="-183.88" font-family="Helvetica,sans-Serif" font-size="10.00">lix/libutil/types.hh</text>
</a>
</g>
</g>
<!-- Node2&#45;&gt;Node26 -->
<g id="edge27_Node000002_Node000026" class="edge">
<title>Node2&#45;&gt;Node26</title>
<g id="a_edge27_Node000002_Node000026"><a xlink:title=" ">
<path fill="none" stroke="#63b8ff" d="M1364.61,-239.3C1351.01,-229.86 1330.21,-215.41 1314.14,-204.25"/>
<polygon fill="#63b8ff" stroke="#63b8ff" points="1316.31,-201.49 1306.1,-198.66 1312.31,-207.24 1316.31,-201.49"/>
</a>
</g>
</g>
<!-- Node28 -->
<g id="Node000028" class="node">
<title>Node28</title>
<g id="a_Node000028"><a xlink:title=" ">
<polygon fill="#e0e0e0" stroke="#999999" points="1543.12,-134.25 1496.38,-134.25 1496.38,-113.5 1543.12,-113.5 1543.12,-134.25"/>
<text text-anchor="middle" x="1519.75" y="-120.75" font-family="Helvetica,sans-Serif" font-size="10.00">vector</text>
</a>
</g>
</g>
<!-- Node2&#45;&gt;Node28 -->
<g id="edge37_Node000002_Node000028" class="edge">
<title>Node2&#45;&gt;Node28</title>
<g id="a_edge37_Node000002_Node000028"><a xlink:title=" ">
<path fill="none" stroke="#63b8ff" d="M1378.34,-239.32C1378.19,-222.96 1380.27,-189.96 1397.75,-170.25 1403.83,-163.4 1451.16,-147.02 1485.04,-135.93"/>
<polygon fill="#63b8ff" stroke="#63b8ff" points="1486.07,-139.28 1494.5,-132.86 1483.91,-132.62 1486.07,-139.28"/>
</a>
</g>
</g>
<!-- Node31 -->
<g id="Node000031" class="node">
<title>Node31</title>
<g id="a_Node000031"><a xlink:title=" ">
<polygon fill="#e0e0e0" stroke="#999999" points="1528.62,-203.75 1406.88,-203.75 1406.88,-170.25 1528.62,-170.25 1528.62,-203.75"/>
<text text-anchor="start" x="1414.88" y="-190.25" font-family="Helvetica,sans-Serif" font-size="10.00">boost/container/small</text>
<text text-anchor="middle" x="1467.75" y="-177.5" font-family="Helvetica,sans-Serif" font-size="10.00">_vector.hpp</text>
</a>
</g>
</g>
<!-- Node2&#45;&gt;Node31 -->
<g id="edge38_Node000002_Node000031" class="edge">
<title>Node2&#45;&gt;Node31</title>
<g id="a_edge38_Node000002_Node000031"><a xlink:title=" ">
<path fill="none" stroke="#63b8ff" d="M1393.05,-239.3C1404.34,-231.55 1420.53,-220.43 1434.96,-210.52"/>
<polygon fill="#63b8ff" stroke="#63b8ff" points="1436.6,-213.64 1442.86,-205.09 1432.64,-207.87 1436.6,-213.64"/>
</a>
</g>
</g>
<!-- Node4 -->
<g id="Node000004" class="node">
<title>Node4</title>
<g id="a_Node000004"><a xlink:href="json-fwd_8hh_source.html" target="_top" xlink:title=" ">
<polygon fill="white" stroke="#666666" points="242.75,-134.25 124.75,-134.25 124.75,-113.5 242.75,-113.5 242.75,-134.25"/>
<text text-anchor="middle" x="183.75" y="-120.75" font-family="Helvetica,sans-Serif" font-size="10.00">lix/libutil/json&#45;fwd.hh</text>
</a>
</g>
</g>
<!-- Node3&#45;&gt;Node4 -->
<g id="edge3_Node000003_Node000004" class="edge">
<title>Node3&#45;&gt;Node4</title>
<g id="a_edge3_Node000003_Node000004"><a xlink:title=" ">
<path fill="none" stroke="#63b8ff" d="M726.7,-180.84C621.21,-169.97 375.76,-144.67 254.35,-132.15"/>
<polygon fill="#63b8ff" stroke="#63b8ff" points="254.8,-128.68 244.5,-131.14 254.09,-135.64 254.8,-128.68"/>
</a>
</g>
</g>
<!-- Node6 -->
<g id="Node000006" class="node">
<title>Node6</title>
<g id="a_Node000006"><a xlink:title=" ">
<polygon fill="#e0e0e0" stroke="#999999" points="218,-77.5 149.5,-77.5 149.5,-56.75 218,-56.75 218,-77.5"/>
<text text-anchor="middle" x="183.75" y="-64" font-family="Helvetica,sans-Serif" font-size="10.00">type_traits</text>
</a>
</g>
</g>
<!-- Node3&#45;&gt;Node6 -->
<g id="edge26_Node000003_Node000006" class="edge">
<title>Node3&#45;&gt;Node6</title>
<g id="a_edge26_Node000003_Node000006"><a xlink:title=" ">
<path fill="none" stroke="#63b8ff" d="M726.79,-185.59C642.21,-183.72 466.11,-174.8 323.75,-134.25 281.98,-122.35 237.18,-99.14 209.8,-83.63"/>
<polygon fill="#63b8ff" stroke="#63b8ff" points="211.59,-80.62 201.18,-78.66 208.1,-86.68 211.59,-80.62"/>
</a>
</g>
</g>
<!-- Node7 -->
<g id="Node000007" class="node">
<title>Node7</title>
<g id="a_Node000007"><a xlink:href="suggestions_8hh.html" target="_top" xlink:title=" ">
<polygon fill="white" stroke="#666666" points="468.38,-134.25 333.12,-134.25 333.12,-113.5 468.38,-113.5 468.38,-134.25"/>
<text text-anchor="middle" x="400.75" y="-120.75" font-family="Helvetica,sans-Serif" font-size="10.00">lix/libutil/suggestions.hh</text>
</a>
</g>
</g>
<!-- Node3&#45;&gt;Node7 -->
<g id="edge6_Node000003_Node000007" class="edge">
<title>Node3&#45;&gt;Node7</title>
<g id="a_edge6_Node000003_Node000007"><a xlink:title=" ">
<path fill="none" stroke="#63b8ff" d="M726.82,-177.88C661.65,-167.29 547.13,-148.67 472.63,-136.56"/>
<polygon fill="#63b8ff" stroke="#63b8ff" points="473.41,-133.14 462.97,-134.99 472.28,-140.05 473.41,-133.14"/>
</a>
</g>
</g>
<!-- Node14 -->
<g id="Node000014" class="node">
<title>Node14</title>
<g id="a_Node000014"><a xlink:href="libutil_2fmt_8hh.html" target="_top" xlink:title=" ">
<polygon fill="white" stroke="#666666" points="580.75,-134.25 486.75,-134.25 486.75,-113.5 580.75,-113.5 580.75,-134.25"/>
<text text-anchor="middle" x="533.75" y="-120.75" font-family="Helvetica,sans-Serif" font-size="10.00">lix/libutil/fmt.hh</text>
</a>
</g>
</g>
<!-- Node3&#45;&gt;Node14 -->
<g id="edge13_Node000003_Node000014" class="edge">
<title>Node3&#45;&gt;Node14</title>
<g id="a_edge13_Node000003_Node000014"><a xlink:title=" ">
<path fill="none" stroke="#63b8ff" d="M737.71,-176.18C695.9,-165.66 629.44,-148.95 583.82,-137.47"/>
<polygon fill="#63b8ff" stroke="#63b8ff" points="584.71,-134.09 574.16,-135.04 583.01,-140.87 584.71,-134.09"/>
</a>
</g>
</g>
<!-- Node18 -->
<g id="Node000018" class="node">
<title>Node18</title>
<g id="a_Node000018"><a xlink:title=" ">
<polygon fill="#e0e0e0" stroke="#999999" points="648.25,-134.25 599.25,-134.25 599.25,-113.5 648.25,-113.5 648.25,-134.25"/>
<text text-anchor="middle" x="623.75" y="-120.75" font-family="Helvetica,sans-Serif" font-size="10.00">cstring</text>
</a>
</g>
</g>
<!-- Node3&#45;&gt;Node18 -->
<g id="edge18_Node000003_Node000018" class="edge">
<title>Node3&#45;&gt;Node18</title>
<g id="a_edge18_Node000003_Node000018"><a xlink:title=" ">
<path fill="none" stroke="#63b8ff" d="M752.17,-176.18C726.85,-166.06 687.17,-150.21 658.62,-138.8"/>
<polygon fill="#63b8ff" stroke="#63b8ff" points="660.26,-135.69 649.68,-135.23 657.66,-142.19 660.26,-135.69"/>
</a>
</g>
</g>
<!-- Node19 -->
<g id="Node000019" class="node">
<title>Node19</title>
<g id="a_Node000019"><a xlink:title=" ">
<polygon fill="#e0e0e0" stroke="#999999" points="1106.25,-134.25 1075.25,-134.25 1075.25,-113.5 1106.25,-113.5 1106.25,-134.25"/>
<text text-anchor="middle" x="1090.75" y="-120.75" font-family="Helvetica,sans-Serif" font-size="10.00">list</text>
</a>
</g>
</g>
<!-- Node3&#45;&gt;Node19 -->
<g id="edge19_Node000003_Node000019" class="edge">
<title>Node3&#45;&gt;Node19</title>
<g id="a_edge19_Node000003_Node000019"><a xlink:title=" ">
<path fill="none" stroke="#63b8ff" d="M826.71,-179.86C882.48,-172.39 975.48,-158.09 1063.74,-134.38"/>
<polygon fill="#63b8ff" stroke="#63b8ff" points="1064.57,-137.78 1073.29,-131.76 1062.72,-131.03 1064.57,-137.78"/>
</a>
</g>
</g>
<!-- Node20 -->
<g id="Node000020" class="node">
<title>Node20</title>
<g id="a_Node000020"><a xlink:title=" ">
<polygon fill="#e0e0e0" stroke="#999999" points="723.38,-134.25 666.12,-134.25 666.12,-113.5 723.38,-113.5 723.38,-134.25"/>
<text text-anchor="middle" x="694.75" y="-120.75" font-family="Helvetica,sans-Serif" font-size="10.00">memory</text>
</a>
</g>
</g>
<!-- Node3&#45;&gt;Node20 -->
<g id="edge20_Node000003_Node000020" class="edge">
<title>Node3&#45;&gt;Node20</title>
<g id="a_edge20_Node000003_Node000020"><a xlink:title=" ">
<path fill="none" stroke="#63b8ff" d="M763.58,-176.18C751.02,-166.82 731.88,-152.55 716.97,-141.44"/>
<polygon fill="#63b8ff" stroke="#63b8ff" points="719.21,-138.75 709.11,-135.58 715.03,-144.36 719.21,-138.75"/>
</a>
</g>
</g>
<!-- Node21 -->
<g id="Node000021" class="node">
<title>Node21</title>
<g id="a_Node000021"><a xlink:title=" ">
<polygon fill="#e0e0e0" stroke="#999999" points="1179.62,-134.25 1123.88,-134.25 1123.88,-113.5 1179.62,-113.5 1179.62,-134.25"/>
<text text-anchor="middle" x="1151.75" y="-120.75" font-family="Helvetica,sans-Serif" font-size="10.00">optional</text>
</a>
</g>
</g>
<!-- Node3&#45;&gt;Node21 -->
<g id="edge21_Node000003_Node000021" class="edge">
<title>Node3&#45;&gt;Node21</title>
<g id="a_edge21_Node000003_Node000021"><a xlink:title=" ">
<path fill="none" stroke="#63b8ff" d="M826.84,-179.86C890.86,-171.68 1005.3,-155.93 1112.51,-134.55"/>
<polygon fill="#63b8ff" stroke="#63b8ff" points="1112.94,-138.03 1122.05,-132.62 1111.55,-131.17 1112.94,-138.03"/>
</a>
</g>
</g>
<!-- Node22 -->
<g id="Node000022" class="node">
<title>Node22</title>
<g id="a_Node000022"><a xlink:title=" ">
<polygon fill="#e0e0e0" stroke="#999999" points="812.5,-134.25 741,-134.25 741,-113.5 812.5,-113.5 812.5,-134.25"/>
<text text-anchor="middle" x="776.75" y="-120.75" font-family="Helvetica,sans-Serif" font-size="10.00">sys/types.h</text>
</a>
</g>
</g>
<!-- Node3&#45;&gt;Node22 -->
<g id="edge22_Node000003_Node000022" class="edge">
<title>Node3&#45;&gt;Node22</title>
<g id="a_edge22_Node000003_Node000022"><a xlink:title=" ">
<path fill="none" stroke="#63b8ff" d="M776.75,-176.18C776.75,-168.02 776.75,-156.13 776.75,-145.85"/>
<polygon fill="#63b8ff" stroke="#63b8ff" points="780.25,-145.98 776.75,-135.98 773.25,-145.98 780.25,-145.98"/>
</a>
</g>
</g>
<!-- Node23 -->
<g id="Node000023" class="node">
<title>Node23</title>
<g id="a_Node000023"><a xlink:title=" ">
<polygon fill="#e0e0e0" stroke="#999999" points="893.38,-134.25 830.12,-134.25 830.12,-113.5 893.38,-113.5 893.38,-134.25"/>
<text text-anchor="middle" x="861.75" y="-120.75" font-family="Helvetica,sans-Serif" font-size="10.00">sys/stat.h</text>
</a>
</g>
</g>
<!-- Node3&#45;&gt;Node23 -->
<g id="edge23_Node000003_Node000023" class="edge">
<title>Node3&#45;&gt;Node23</title>
<g id="a_edge23_Node000003_Node000023"><a xlink:title=" ">
<path fill="none" stroke="#63b8ff" d="M790.41,-176.18C803.54,-166.73 823.64,-152.28 839.16,-141.12"/>
<polygon fill="#63b8ff" stroke="#63b8ff" points="840.82,-144.24 846.9,-135.56 836.74,-138.55 840.82,-144.24"/>
</a>
</g>
</g>
<!-- Node24 -->
<g id="Node000024" class="node">
<title>Node24</title>
<g id="a_Node000024"><a xlink:title=" ">
<polygon fill="#e0e0e0" stroke="#999999" points="958.12,-134.25 911.38,-134.25 911.38,-113.5 958.12,-113.5 958.12,-134.25"/>
<text text-anchor="middle" x="934.75" y="-120.75" font-family="Helvetica,sans-Serif" font-size="10.00">fcntl.h</text>
</a>
</g>
</g>
<!-- Node3&#45;&gt;Node24 -->
<g id="edge24_Node000003_Node000024" class="edge">
<title>Node3&#45;&gt;Node24</title>
<g id="a_edge24_Node000003_Node000024"><a xlink:title=" ">
<path fill="none" stroke="#63b8ff" d="M802.14,-176.18C828.74,-165.89 870.72,-149.65 900.3,-138.2"/>
<polygon fill="#63b8ff" stroke="#63b8ff" points="901.5,-141.49 909.57,-134.62 898.98,-134.96 901.5,-141.49"/>
</a>
</g>
</g>
<!-- Node25 -->
<g id="Node000025" class="node">
<title>Node25</title>
<g id="a_Node000025"><a xlink:title=" ">
<polygon fill="#e0e0e0" stroke="#999999" points="1057,-134.25 976.5,-134.25 976.5,-113.5 1057,-113.5 1057,-134.25"/>
<text text-anchor="middle" x="1016.75" y="-120.75" font-family="Helvetica,sans-Serif" font-size="10.00">system_error</text>
</a>
</g>
</g>
<!-- Node3&#45;&gt;Node25 -->
<g id="edge25_Node000003_Node000025" class="edge">
<title>Node3&#45;&gt;Node25</title>
<g id="a_edge25_Node000003_Node000025"><a xlink:title=" ">
<path fill="none" stroke="#63b8ff" d="M815.31,-176.18C856.6,-165.66 922.24,-148.95 967.3,-137.47"/>
<polygon fill="#63b8ff" stroke="#63b8ff" points="967.99,-140.9 976.82,-135.04 966.26,-134.12 967.99,-140.9"/>
</a>
</g>
</g>
<!-- Node5 -->
<g id="Node000005" class="node">
<title>Node5</title>
<g id="a_Node000005"><a xlink:title=" ">
<polygon fill="#e0e0e0" stroke="#999999" points="131.5,-77.5 0,-77.5 0,-56.75 131.5,-56.75 131.5,-77.5"/>
<text text-anchor="middle" x="65.75" y="-64" font-family="Helvetica,sans-Serif" font-size="10.00">nlohmann/json_fwd.hpp</text>
</a>
</g>
</g>
<!-- Node4&#45;&gt;Node5 -->
<g id="edge4_Node000004_Node000005" class="edge">
<title>Node4&#45;&gt;Node5</title>
<g id="a_edge4_Node000004_Node000005"><a xlink:title=" ">
<path fill="none" stroke="#63b8ff" d="M162.65,-113.09C144.36,-104.6 117.65,-92.2 96.89,-82.58"/>
<polygon fill="#63b8ff" stroke="#63b8ff" points="98.58,-79.5 88.04,-78.47 95.63,-85.85 98.58,-79.5"/>
</a>
</g>
</g>
<!-- Node4&#45;&gt;Node6 -->
<g id="edge5_Node000004_Node000006" class="edge">
<title>Node4&#45;&gt;Node6</title>
<g id="a_edge5_Node000004_Node000006"><a xlink:title=" ">
<path fill="none" stroke="#63b8ff" d="M183.75,-113.09C183.75,-106.47 183.75,-97.47 183.75,-89.27"/>
<polygon fill="#63b8ff" stroke="#63b8ff" points="187.25,-89.34 183.75,-79.34 180.25,-89.34 187.25,-89.34"/>
</a>
</g>
</g>
<!-- Node8 -->
<g id="Node000008" class="node">
<title>Node8</title>
<g id="a_Node000008"><a xlink:href="comparator_8hh.html" target="_top" xlink:title=" ">
<polygon fill="white" stroke="#666666" points="367.88,-77.5 235.62,-77.5 235.62,-56.75 367.88,-56.75 367.88,-77.5"/>
<text text-anchor="middle" x="301.75" y="-64" font-family="Helvetica,sans-Serif" font-size="10.00">lix/libutil/comparator.hh</text>
</a>
</g>
</g>
<!-- Node7&#45;&gt;Node8 -->
<g id="edge7_Node000007_Node000008" class="edge">
<title>Node7&#45;&gt;Node8</title>
<g id="a_edge7_Node000007_Node000008"><a xlink:title=" ">
<path fill="none" stroke="#63b8ff" d="M383.05,-113.09C368.13,-104.83 346.52,-92.88 329.33,-83.38"/>
<polygon fill="#63b8ff" stroke="#63b8ff" points="331.07,-80.34 320.62,-78.56 327.68,-86.46 331.07,-80.34"/>
</a>
</g>
</g>
<!-- Node10 -->
<g id="Node000010" class="node">
<title>Node10</title>
<g id="a_Node000010"><a xlink:title=" ">
<polygon fill="#e0e0e0" stroke="#999999" points="485.25,-77.5 454.25,-77.5 454.25,-56.75 485.25,-56.75 485.25,-77.5"/>
<text text-anchor="middle" x="469.75" y="-64" font-family="Helvetica,sans-Serif" font-size="10.00">set</text>
</a>
</g>
</g>
<!-- Node7&#45;&gt;Node10 -->
<g id="edge9_Node000007_Node000010" class="edge">
<title>Node7&#45;&gt;Node10</title>
<g id="a_edge9_Node000007_Node000010"><a xlink:title=" ">
<path fill="none" stroke="#63b8ff" d="M413.09,-113.09C423,-105.22 437.14,-94 448.81,-84.74"/>
<polygon fill="#63b8ff" stroke="#63b8ff" points="450.68,-87.73 456.34,-78.77 446.33,-82.24 450.68,-87.73"/>
</a>
</g>
</g>
<!-- Node7&#45;&gt;Node11 -->
<g id="edge10_Node000007_Node000011" class="edge">
<title>Node7&#45;&gt;Node11</title>
<g id="a_edge10_Node000007_Node000011"><a xlink:title=" ">
<path fill="none" stroke="#63b8ff" d="M468.74,-114.35C471.79,-114.05 474.8,-113.76 477.75,-113.5 764.79,-87.97 1110.7,-74.18 1235.74,-69.74"/>
<polygon fill="#63b8ff" stroke="#63b8ff" points="1235.75,-73.24 1245.62,-69.39 1235.51,-66.25 1235.75,-73.24"/>
</a>
</g>
</g>
<!-- Node12 -->
<g id="Node000012" class="node">
<title>Node12</title>
<g id="a_Node000012"><a xlink:title=" ">
<polygon fill="#e0e0e0" stroke="#999999" points="546.62,-77.5 502.88,-77.5 502.88,-56.75 546.62,-56.75 546.62,-77.5"/>
<text text-anchor="middle" x="524.75" y="-64" font-family="Helvetica,sans-Serif" font-size="10.00">string</text>
</a>
</g>
</g>
<!-- Node7&#45;&gt;Node12 -->
<g id="edge11_Node000007_Node000012" class="edge">
<title>Node7&#45;&gt;Node12</title>
<g id="a_edge11_Node000007_Node000012"><a xlink:title=" ">
<path fill="none" stroke="#63b8ff" d="M422.92,-113.09C442.23,-104.56 470.47,-92.09 492.32,-82.44"/>
<polygon fill="#63b8ff" stroke="#63b8ff" points="493.65,-85.68 501.39,-78.44 490.83,-79.28 493.65,-85.68"/>
</a>
</g>
</g>
<!-- Node13 -->
<g id="Node000013" class="node">
<title>Node13</title>
<g id="a_Node000013"><a xlink:title=" ">
<polygon fill="#e0e0e0" stroke="#999999" points="436,-77.5 385.5,-77.5 385.5,-56.75 436,-56.75 436,-77.5"/>
<text text-anchor="middle" x="410.75" y="-64" font-family="Helvetica,sans-Serif" font-size="10.00">variant</text>
</a>
</g>
</g>
<!-- Node7&#45;&gt;Node13 -->
<g id="edge12_Node000007_Node000013" class="edge">
<title>Node7&#45;&gt;Node13</title>
<g id="a_edge12_Node000007_Node000013"><a xlink:title=" ">
<path fill="none" stroke="#63b8ff" d="M402.54,-113.09C403.76,-106.39 405.43,-97.26 406.94,-88.98"/>
<polygon fill="#63b8ff" stroke="#63b8ff" points="410.35,-89.78 408.71,-79.32 403.47,-88.53 410.35,-89.78"/>
</a>
</g>
</g>
<!-- Node9 -->
<g id="Node000009" class="node">
<title>Node9</title>
<g id="a_Node000009"><a xlink:title=" ">
<polygon fill="#e0e0e0" stroke="#999999" points="322.12,-20.75 281.38,-20.75 281.38,0 322.12,0 322.12,-20.75"/>
<text text-anchor="middle" x="301.75" y="-7.25" font-family="Helvetica,sans-Serif" font-size="10.00">tuple</text>
</a>
</g>
</g>
<!-- Node8&#45;&gt;Node9 -->
<g id="edge8_Node000008_Node000009" class="edge">
<title>Node8&#45;&gt;Node9</title>
<g id="a_edge8_Node000008_Node000009"><a xlink:title=" ">
<path fill="none" stroke="#63b8ff" d="M301.75,-56.34C301.75,-49.72 301.75,-40.72 301.75,-32.52"/>
<polygon fill="#63b8ff" stroke="#63b8ff" points="305.25,-32.59 301.75,-22.59 298.25,-32.59 305.25,-32.59"/>
</a>
</g>
</g>
<!-- Node14&#45;&gt;Node12 -->
<g id="edge15_Node000014_Node000012" class="edge">
<title>Node14&#45;&gt;Node12</title>
<g id="a_edge15_Node000014_Node000012"><a xlink:title=" ">
<path fill="none" stroke="#63b8ff" d="M532.14,-113.09C531.04,-106.39 529.54,-97.26 528.18,-88.98"/>
<polygon fill="#63b8ff" stroke="#63b8ff" points="531.67,-88.62 526.59,-79.32 524.76,-89.76 531.67,-88.62"/>
</a>
</g>
</g>
<!-- Node15 -->
<g id="Node000015" class="node">
<title>Node15</title>
<g id="a_Node000015"><a xlink:title=" ">
<polygon fill="#e0e0e0" stroke="#999999" points="624.5,-77.5 565,-77.5 565,-56.75 624.5,-56.75 624.5,-77.5"/>
<text text-anchor="middle" x="594.75" y="-64" font-family="Helvetica,sans-Serif" font-size="10.00">iostream</text>
</a>
</g>
</g>
<!-- Node14&#45;&gt;Node15 -->
<g id="edge14_Node000014_Node000015" class="edge">
<title>Node14&#45;&gt;Node15</title>
<g id="a_edge14_Node000014_Node000015"><a xlink:title=" ">
<path fill="none" stroke="#63b8ff" d="M544.66,-113.09C553.24,-105.38 565.42,-94.45 575.63,-85.29"/>
<polygon fill="#63b8ff" stroke="#63b8ff" points="577.71,-88.12 582.81,-78.84 573.03,-82.91 577.71,-88.12"/>
</a>
</g>
</g>
<!-- Node16 -->
<g id="Node000016" class="node">
<title>Node16</title>
<g id="a_Node000016"><a xlink:title=" ">
<polygon fill="#e0e0e0" stroke="#999999" points="742.75,-77.5 642.75,-77.5 642.75,-56.75 742.75,-56.75 742.75,-77.5"/>
<text text-anchor="middle" x="692.75" y="-64" font-family="Helvetica,sans-Serif" font-size="10.00">boost/format.hpp</text>
</a>
</g>
</g>
<!-- Node14&#45;&gt;Node16 -->
<g id="edge16_Node000014_Node000016" class="edge">
<title>Node14&#45;&gt;Node16</title>
<g id="a_edge16_Node000014_Node000016"><a xlink:title=" ">
<path fill="none" stroke="#63b8ff" d="M562.18,-113.09C587.65,-104.32 625.25,-91.37 653.57,-81.62"/>
<polygon fill="#63b8ff" stroke="#63b8ff" points="654.56,-84.98 662.87,-78.41 652.28,-78.36 654.56,-84.98"/>
</a>
</g>
</g>
<!-- Node17 -->
<g id="Node000017" class="node">
<title>Node17</title>
<g id="a_Node000017"><a xlink:href="ansicolor_8hh.html" target="_top" xlink:title="Some ANSI escape sequences.">
<polygon fill="white" stroke="#666666" points="880.88,-77.5 760.62,-77.5 760.62,-56.75 880.88,-56.75 880.88,-77.5"/>
<text text-anchor="middle" x="820.75" y="-64" font-family="Helvetica,sans-Serif" font-size="10.00">lix/libutil/ansicolor.hh</text>
</a>
</g>
</g>
<!-- Node14&#45;&gt;Node17 -->
<g id="edge17_Node000014_Node000017" class="edge">
<title>Node14&#45;&gt;Node17</title>
<g id="a_edge17_Node000014_Node000017"><a xlink:title=" ">
<path fill="none" stroke="#63b8ff" d="M581.14,-113.83C629.6,-104.59 705.11,-90.18 758.39,-80.02"/>
<polygon fill="#63b8ff" stroke="#63b8ff" points="758.76,-83.51 767.92,-78.2 757.44,-76.64 758.76,-83.51"/>
</a>
</g>
</g>
<!-- Node26&#45;&gt;Node10 -->
<g id="edge30_Node000026_Node000010" class="edge">
<title>Node26&#45;&gt;Node10</title>
<g id="a_edge30_Node000026_Node000010"><a xlink:title=" ">
<path fill="none" stroke="#63b8ff" d="M1277.84,-176.21C1252.7,-157.22 1198.75,-116.98 1188.75,-113.5 1045.97,-63.82 662.68,-107.97 496.63,-77.34"/>
<polygon fill="#63b8ff" stroke="#63b8ff" points="497.52,-73.95 487.02,-75.41 496.13,-80.81 497.52,-73.95"/>
</a>
</g>
</g>
<!-- Node26&#45;&gt;Node11 -->
<g id="edge32_Node000026_Node000011" class="edge">
<title>Node26&#45;&gt;Node11</title>
<g id="a_edge32_Node000026_Node000011"><a xlink:title=" ">
<path fill="none" stroke="#63b8ff" d="M1290.18,-176.35C1289.05,-157.44 1286.54,-115.11 1285.01,-89.35"/>
<polygon fill="#63b8ff" stroke="#63b8ff" points="1288.51,-89.19 1284.42,-79.42 1281.52,-89.61 1288.51,-89.19"/>
</a>
</g>
</g>
<!-- Node26&#45;&gt;Node12 -->
<g id="edge31_Node000026_Node000012" class="edge">
<title>Node26&#45;&gt;Node12</title>
<g id="a_edge31_Node000026_Node000012"><a xlink:title=" ">
<path fill="none" stroke="#63b8ff" d="M1285.01,-176.27C1274.72,-159.87 1251.42,-127.18 1221.75,-113.5 1090.31,-52.89 719.66,-100.78 558.2,-77.35"/>
<polygon fill="#63b8ff" stroke="#63b8ff" points="558.87,-73.91 548.44,-75.77 557.76,-80.82 558.87,-73.91"/>
</a>
</g>
</g>
<!-- Node26&#45;&gt;Node19 -->
<g id="edge28_Node000026_Node000019" class="edge">
<title>Node26&#45;&gt;Node19</title>
<g id="a_edge28_Node000026_Node000019"><a xlink:title=" ">
<path fill="none" stroke="#63b8ff" d="M1254.06,-176.21C1220.56,-167.05 1169.49,-152.54 1117.45,-134.99"/>
<polygon fill="#63b8ff" stroke="#63b8ff" points="1118.71,-131.72 1108.12,-131.81 1116.46,-138.35 1118.71,-131.72"/>
</a>
</g>
</g>
<!-- Node26&#45;&gt;Node21 -->
<g id="edge29_Node000026_Node000021" class="edge">
<title>Node26&#45;&gt;Node21</title>
<g id="a_edge29_Node000026_Node000021"><a xlink:title=" ">
<path fill="none" stroke="#63b8ff" d="M1268.42,-176.18C1245.72,-166.2 1210.32,-150.63 1184.46,-139.26"/>
<polygon fill="#63b8ff" stroke="#63b8ff" points="1185.98,-136.1 1175.41,-135.28 1183.16,-142.51 1185.98,-136.1"/>
</a>
</g>
</g>
<!-- Node27 -->
<g id="Node000027" class="node">
<title>Node27</title>
<g id="a_Node000027"><a xlink:title=" ">
<polygon fill="#e0e0e0" stroke="#999999" points="1349.62,-134.25 1311.88,-134.25 1311.88,-113.5 1349.62,-113.5 1349.62,-134.25"/>
<text text-anchor="middle" x="1330.75" y="-120.75" font-family="Helvetica,sans-Serif" font-size="10.00">map</text>
</a>
</g>
</g>
<!-- Node26&#45;&gt;Node27 -->
<g id="edge33_Node000026_Node000027" class="edge">
<title>Node26&#45;&gt;Node27</title>
<g id="a_edge33_Node000026_Node000027"><a xlink:title=" ">
<path fill="none" stroke="#63b8ff" d="M1297.18,-176.18C1302.87,-167.48 1311.33,-154.55 1318.34,-143.84"/>
<polygon fill="#63b8ff" stroke="#63b8ff" points="1321.1,-146.02 1323.64,-135.74 1315.24,-142.19 1321.1,-146.02"/>
</a>
</g>
</g>
<!-- Node26&#45;&gt;Node28 -->
<g id="edge34_Node000026_Node000028" class="edge">
<title>Node26&#45;&gt;Node28</title>
<g id="a_edge34_Node000026_Node000028"><a xlink:title=" ">
<path fill="none" stroke="#63b8ff" d="M1328.75,-176.19C1366.04,-166.52 1424.8,-151.14 1485.1,-134.67"/>
<polygon fill="#63b8ff" stroke="#63b8ff" points="1485.79,-138.1 1494.51,-132.09 1483.94,-131.35 1485.79,-138.1"/>
</a>
</g>
</g>
<!-- Node29 -->
<g id="Node000029" class="node">
<title>Node29</title>
<g id="a_Node000029"><a xlink:title=" ">
<polygon fill="#e0e0e0" stroke="#999999" points="1407.38,-134.25 1368.12,-134.25 1368.12,-113.5 1407.38,-113.5 1407.38,-134.25"/>
<text text-anchor="middle" x="1387.75" y="-120.75" font-family="Helvetica,sans-Serif" font-size="10.00">span</text>
</a>
</g>
</g>
<!-- Node26&#45;&gt;Node29 -->
<g id="edge35_Node000026_Node000029" class="edge">
<title>Node26&#45;&gt;Node29</title>
<g id="a_edge35_Node000026_Node000029"><a xlink:title=" ">
<path fill="none" stroke="#63b8ff" d="M1306.33,-176.18C1321.47,-166.64 1344.69,-152.01 1362.47,-140.81"/>
<polygon fill="#63b8ff" stroke="#63b8ff" points="1364.33,-143.77 1370.92,-135.48 1360.6,-137.85 1364.33,-143.77"/>
</a>
</g>
</g>
<!-- Node30 -->
<g id="Node000030" class="node">
<title>Node30</title>
<g id="a_Node000030"><a xlink:title=" ">
<polygon fill="#e0e0e0" stroke="#999999" points="1478.12,-134.25 1425.38,-134.25 1425.38,-113.5 1478.12,-113.5 1478.12,-134.25"/>
<text text-anchor="middle" x="1451.75" y="-120.75" font-family="Helvetica,sans-Serif" font-size="10.00">stdint.h</text>
</a>
</g>
</g>
<!-- Node26&#45;&gt;Node30 -->
<g id="edge36_Node000026_Node000030" class="edge">
<title>Node26&#45;&gt;Node30</title>
<g id="a_edge36_Node000026_Node000030"><a xlink:title=" ">
<path fill="none" stroke="#63b8ff" d="M1316.62,-176.18C1343.38,-166.02 1385.38,-150.07 1415.46,-138.65"/>
<polygon fill="#63b8ff" stroke="#63b8ff" points="1416.43,-142.03 1424.53,-135.21 1413.94,-135.49 1416.43,-142.03"/>
</a>
</g>
</g>
</g>
</svg>
