<?xml version="1.0" encoding="UTF-8" standalone="no"?>
<!DOCTYPE svg PUBLIC "-//W3C//DTD SVG 1.1//EN"
 "http://www.w3.org/Graphics/SVG/1.1/DTD/svg11.dtd">
<!-- Generated by graphviz version 12.2.1 (0)
 -->
<!-- Title: lix/libstore/remote&#45;store.hh Pages: 1 -->
<svg width="266pt" height="181pt"
 viewBox="0.00 0.00 265.62 180.50" xmlns="http://www.w3.org/2000/svg" xmlns:xlink="http://www.w3.org/1999/xlink">
<g id="graph0" class="graph" transform="scale(1 1) rotate(0) translate(4 176.5)">
<title>lix/libstore/remote&#45;store.hh</title>
<!-- Node1 -->
<g id="Node000001" class="node">
<title>Node1</title>
<g id="a_Node000001"><a xlink:title=" ">
<polygon fill="#999999" stroke="#666666" points="183.5,-172.5 77.5,-172.5 77.5,-139 183.5,-139 183.5,-172.5"/>
<text text-anchor="start" x="85.5" y="-159" font-family="Helvetica,sans-Serif" font-size="10.00">lix/libstore/remote</text>
<text text-anchor="middle" x="130.5" y="-146.25" font-family="Helvetica,sans-Serif" font-size="10.00">&#45;store.hh</text>
</a>
</g>
</g>
<!-- Node2 -->
<g id="Node000002" class="node">
<title>Node2</title>
<g id="a_Node000002"><a xlink:href="remote-store-connection_8hh.html" target="_top" xlink:title=" ">
<polygon fill="white" stroke="#666666" points="188.75,-103 72.25,-103 72.25,-69.5 188.75,-69.5 188.75,-103"/>
<text text-anchor="start" x="80.25" y="-89.5" font-family="Helvetica,sans-Serif" font-size="10.00">lix/libstore/remote</text>
<text text-anchor="middle" x="130.5" y="-76.75" font-family="Helvetica,sans-Serif" font-size="10.00">&#45;store&#45;connection.hh</text>
</a>
</g>
</g>
<!-- Node1&#45;&gt;Node2 -->
<g id="edge1_Node000001_Node000002" class="edge">
<title>Node1&#45;&gt;Node2</title>
<g id="a_edge1_Node000001_Node000002"><a xlink:title=" ">
<path fill="none" stroke="#63b8ff" d="M130.5,-127.31C130.5,-119.09 130.5,-110.34 130.5,-103.13"/>
<polygon fill="#63b8ff" stroke="#63b8ff" points="127,-127.24 130.5,-137.24 134,-127.24 127,-127.24"/>
</a>
</g>
</g>
<!-- Node3 -->
<g id="Node000003" class="node">
<title>Node3</title>
<g id="a_Node000003"><a xlink:href="uds-remote-store_8hh.html" target="_top" xlink:title=" ">
<polygon fill="white" stroke="#666666" points="127,-33.5 0,-33.5 0,0 127,0 127,-33.5"/>
<text text-anchor="start" x="8" y="-20" font-family="Helvetica,sans-Serif" font-size="10.00">lix/libstore/uds&#45;remote</text>
<text text-anchor="middle" x="63.5" y="-7.25" font-family="Helvetica,sans-Serif" font-size="10.00">&#45;store.hh</text>
</a>
</g>
</g>
<!-- Node1&#45;&gt;Node3 -->
<g id="edge4_Node000001_Node000003" class="edge">
<title>Node1&#45;&gt;Node3</title>
<g id="a_edge4_Node000001_Node000003"><a xlink:title=" ">
<path fill="none" stroke="#63b8ff" d="M88.92,-131.95C78.74,-124.19 69.16,-114.51 63.5,-103 52.67,-80.95 55.88,-51.65 59.48,-33.77"/>
<polygon fill="#63b8ff" stroke="#63b8ff" points="86.9,-134.81 97.1,-137.66 90.91,-129.07 86.9,-134.81"/>
</a>
</g>
</g>
<!-- Node4 -->
<g id="Node000004" class="node">
<title>Node4</title>
<g id="a_Node000004"><a xlink:href="nix_2daemon_8cc.html" target="_top" xlink:title=" ">
<polygon fill="white" stroke="#666666" points="257.62,-27.12 155.38,-27.12 155.38,-6.38 257.62,-6.38 257.62,-27.12"/>
<text text-anchor="middle" x="206.5" y="-13.62" font-family="Helvetica,sans-Serif" font-size="10.00">lix/nix/daemon.cc</text>
</a>
</g>
</g>
<!-- Node1&#45;&gt;Node4 -->
<g id="edge5_Node000001_Node000004" class="edge">
<title>Node1&#45;&gt;Node4</title>
<g id="a_edge5_Node000001_Node000004"><a xlink:title=" ">
<path fill="none" stroke="#63b8ff" d="M170.44,-132.19C180.92,-124.31 191.07,-114.51 197.5,-103 211.14,-78.57 209.6,-44.05 207.82,-27.43"/>
<polygon fill="#63b8ff" stroke="#63b8ff" points="168.68,-129.15 162.48,-137.74 172.69,-134.89 168.68,-129.15"/>
</a>
</g>
</g>
<!-- Node2&#45;&gt;Node3 -->
<g id="edge2_Node000002_Node000003" class="edge">
<title>Node2&#45;&gt;Node3</title>
<g id="a_edge2_Node000002_Node000003"><a xlink:title=" ">
<path fill="none" stroke="#63b8ff" d="M106.65,-61.22C97.55,-52.06 87.42,-41.85 79.26,-33.63"/>
<polygon fill="#63b8ff" stroke="#63b8ff" points="104.03,-63.55 113.56,-68.18 108.99,-58.62 104.03,-63.55"/>
</a>
</g>
</g>
<!-- Node2&#45;&gt;Node4 -->
<g id="edge3_Node000002_Node000004" class="edge">
<title>Node2&#45;&gt;Node4</title>
<g id="a_edge3_Node000002_Node000004"><a xlink:title=" ">
<path fill="none" stroke="#63b8ff" d="M156.82,-61.87C170.04,-50.13 185.35,-36.53 195.44,-27.57"/>
<polygon fill="#63b8ff" stroke="#63b8ff" points="154.8,-58.99 149.64,-68.25 159.44,-64.22 154.8,-58.99"/>
</a>
</g>
</g>
</g>
</svg>
