<?xml version="1.0" encoding="UTF-8" standalone="no"?>
<!DOCTYPE svg PUBLIC "-//W3C//DTD SVG 1.1//EN"
 "http://www.w3.org/Graphics/SVG/1.1/DTD/svg11.dtd">
<!-- Generated by graphviz version 12.2.1 (0)
 -->
<!-- Title: lix/libstore/sqlite.hh Pages: 1 -->
<svg width="264pt" height="168pt"
 viewBox="0.00 0.00 263.75 167.75" xmlns="http://www.w3.org/2000/svg" xmlns:xlink="http://www.w3.org/1999/xlink">
<g id="graph0" class="graph" transform="scale(1 1) rotate(0) translate(4 163.75)">
<title>lix/libstore/sqlite.hh</title>
<!-- Node1 -->
<g id="Node000001" class="node">
<title>Node1</title>
<g id="a_Node000001"><a xlink:title=" ">
<polygon fill="#999999" stroke="#666666" points="192,-159.75 79.25,-159.75 79.25,-139 192,-139 192,-159.75"/>
<text text-anchor="middle" x="135.62" y="-146.25" font-family="Helvetica,sans-Serif" font-size="10.00">lix/libstore/sqlite.hh</text>
</a>
</g>
</g>
<!-- Node2 -->
<g id="Node000002" class="node">
<title>Node2</title>
<g id="a_Node000002"><a xlink:href="local-store_8hh.html" target="_top" xlink:title=" ">
<polygon fill="white" stroke="#666666" points="182.62,-103 88.62,-103 88.62,-69.5 182.62,-69.5 182.62,-103"/>
<text text-anchor="start" x="96.62" y="-89.5" font-family="Helvetica,sans-Serif" font-size="10.00">lix/libstore/local</text>
<text text-anchor="middle" x="135.62" y="-76.75" font-family="Helvetica,sans-Serif" font-size="10.00">&#45;store.hh</text>
</a>
</g>
</g>
<!-- Node1&#45;&gt;Node2 -->
<g id="edge1_Node000001_Node000002" class="edge">
<title>Node1&#45;&gt;Node2</title>
<g id="a_edge1_Node000001_Node000002"><a xlink:title=" ">
<path fill="none" stroke="#63b8ff" d="M135.62,-127.09C135.62,-119.35 135.62,-110.72 135.62,-103.48"/>
<polygon fill="#63b8ff" stroke="#63b8ff" points="132.13,-127.04 135.63,-137.04 139.13,-127.04 132.13,-127.04"/>
</a>
</g>
</g>
<!-- Node3 -->
<g id="Node000003" class="node">
<title>Node3</title>
<g id="a_Node000003"><a xlink:href="local-derivation-goal_8hh.html" target="_top" xlink:title=" ">
<polygon fill="white" stroke="#666666" points="135.25,-33.5 0,-33.5 0,0 135.25,0 135.25,-33.5"/>
<text text-anchor="start" x="8" y="-20" font-family="Helvetica,sans-Serif" font-size="10.00">lix/libstore/build</text>
<text text-anchor="middle" x="67.62" y="-7.25" font-family="Helvetica,sans-Serif" font-size="10.00">/local&#45;derivation&#45;goal.hh</text>
</a>
</g>
</g>
<!-- Node2&#45;&gt;Node3 -->
<g id="edge2_Node000002_Node000003" class="edge">
<title>Node2&#45;&gt;Node3</title>
<g id="a_edge2_Node000002_Node000003"><a xlink:title=" ">
<path fill="none" stroke="#63b8ff" d="M111.42,-61.22C102.19,-52.06 91.91,-41.85 83.62,-33.63"/>
<polygon fill="#63b8ff" stroke="#63b8ff" points="108.87,-63.63 118.44,-68.19 113.8,-58.66 108.87,-63.63"/>
</a>
</g>
</g>
<!-- Node4 -->
<g id="Node000004" class="node">
<title>Node4</title>
<g id="a_Node000004"><a xlink:href="nix_2daemon_8cc.html" target="_top" xlink:title=" ">
<polygon fill="white" stroke="#666666" points="255.75,-27.12 153.5,-27.12 153.5,-6.38 255.75,-6.38 255.75,-27.12"/>
<text text-anchor="middle" x="204.62" y="-13.62" font-family="Helvetica,sans-Serif" font-size="10.00">lix/nix/daemon.cc</text>
</a>
</g>
</g>
<!-- Node2&#45;&gt;Node4 -->
<g id="edge3_Node000002_Node000004" class="edge">
<title>Node2&#45;&gt;Node4</title>
<g id="a_edge3_Node000002_Node000004"><a xlink:title=" ">
<path fill="none" stroke="#63b8ff" d="M159.87,-61.54C171.79,-49.87 185.51,-36.45 194.58,-27.57"/>
<polygon fill="#63b8ff" stroke="#63b8ff" points="157.76,-58.7 153.06,-68.2 162.65,-63.7 157.76,-58.7"/>
</a>
</g>
</g>
</g>
</svg>
