<?xml version="1.0" encoding="UTF-8" standalone="no"?>
<!DOCTYPE svg PUBLIC "-//W3C//DTD SVG 1.1//EN"
 "http://www.w3.org/Graphics/SVG/1.1/DTD/svg11.dtd">
<!-- Generated by graphviz version 12.2.1 (0)
 -->
<!-- Title: nix::daemon::TunnelSource Pages: 1 -->
<svg width="284pt" height="156pt"
 viewBox="0.00 0.00 283.62 156.00" xmlns="http://www.w3.org/2000/svg" xmlns:xlink="http://www.w3.org/1999/xlink">
<g id="graph0" class="graph" transform="scale(1 1) rotate(0) translate(4 152)">
<title>nix::daemon::TunnelSource</title>
<!-- Node1 -->
<g id="Node000001" class="node">
<title>Node1</title>
<g id="a_Node000001"><a xlink:title=" ">
<polygon fill="#999999" stroke="#666666" points="176.62,-20.75 29.38,-20.75 29.38,0 176.62,0 176.62,-20.75"/>
<text text-anchor="middle" x="103" y="-7.25" font-family="Helvetica,sans-Serif" font-size="10.00">nix::daemon::TunnelSource</text>
</a>
</g>
</g>
<!-- Node2 -->
<g id="Node000002" class="node">
<title>Node2</title>
<g id="a_Node000002"><a xlink:href="structnix_1_1BufferedSource.html" target="_top" xlink:title=" ">
<polygon fill="white" stroke="#666666" points="158.62,-90.25 47.38,-90.25 47.38,-69.5 158.62,-69.5 158.62,-90.25"/>
<text text-anchor="middle" x="103" y="-76.75" font-family="Helvetica,sans-Serif" font-size="10.00">nix::BufferedSource</text>
</a>
</g>
</g>
<!-- Node2&#45;&gt;Node1 -->
<g id="edge1_Node000001_Node000002" class="edge">
<title>Node2&#45;&gt;Node1</title>
<g id="a_edge1_Node000001_Node000002"><a xlink:title=" ">
<path fill="none" stroke="#63b8ff" d="M103,-58.07C103,-45.72 103,-30.65 103,-21.03"/>
<polygon fill="#63b8ff" stroke="#63b8ff" points="99.5,-57.69 103,-67.69 106.5,-57.69 99.5,-57.69"/>
</a>
</g>
</g>
<!-- Node3 -->
<g id="Node000003" class="node">
<title>Node3</title>
<g id="a_Node000003"><a xlink:href="structnix_1_1Source.html" target="_top" xlink:title=" ">
<polygon fill="white" stroke="#666666" points="70,-148 0,-148 0,-127.25 70,-127.25 70,-148"/>
<text text-anchor="middle" x="35" y="-134.5" font-family="Helvetica,sans-Serif" font-size="10.00">nix::Source</text>
</a>
</g>
</g>
<!-- Node3&#45;&gt;Node1 -->
<g id="edge3_Node000001_Node000003" class="edge">
<title>Node3&#45;&gt;Node1</title>
<g id="a_edge3_Node000001_Node000003"><a xlink:title=" ">
<path fill="none" stroke="#9a32cd" stroke-dasharray="5,2" d="M20.49,-118.04C11.54,-104.16 3.25,-84.99 11.75,-69.5 24.85,-45.62 52.39,-30.15 73.8,-21.21"/>
<polygon fill="#9a32cd" stroke="#9a32cd" points="17.39,-119.71 26.02,-125.85 23.1,-115.67 17.39,-119.71"/>
</a>
</g>
<text text-anchor="middle" x="24.88" y="-76.75" font-family="Helvetica,sans-Serif" font-size="10.00" fill="grey"> from</text>
</g>
<!-- Node3&#45;&gt;Node2 -->
<g id="edge2_Node000002_Node000003" class="edge">
<title>Node3&#45;&gt;Node2</title>
<g id="a_edge2_Node000002_Node000003"><a xlink:title=" ">
<path fill="none" stroke="#63b8ff" d="M55.55,-119.78C67.25,-110.18 81.48,-98.52 91.29,-90.47"/>
<polygon fill="#63b8ff" stroke="#63b8ff" points="53.53,-116.91 48.02,-125.95 57.97,-122.32 53.53,-116.91"/>
</a>
</g>
</g>
<!-- Node4 -->
<g id="Node000004" class="node">
<title>Node4</title>
<g id="a_Node000004"><a xlink:href="structnix_1_1BufferedSink.html" target="_top" xlink:title=" ">
<polygon fill="white" stroke="#666666" points="275.62,-90.25 176.38,-90.25 176.38,-69.5 275.62,-69.5 275.62,-90.25"/>
<text text-anchor="middle" x="226" y="-76.75" font-family="Helvetica,sans-Serif" font-size="10.00">nix::BufferedSink</text>
</a>
</g>
</g>
<!-- Node4&#45;&gt;Node1 -->
<g id="edge4_Node000001_Node000004" class="edge">
<title>Node4&#45;&gt;Node1</title>
<g id="a_edge4_Node000001_Node000004"><a xlink:title=" ">
<path fill="none" stroke="#9a32cd" stroke-dasharray="5,2" d="M198.31,-63.68C174.62,-50.68 141.23,-32.35 120.91,-21.2"/>
<polygon fill="#9a32cd" stroke="#9a32cd" points="196.34,-66.59 206.79,-68.33 199.71,-60.45 196.34,-66.59"/>
</a>
</g>
<text text-anchor="middle" x="181.89" y="-42" font-family="Helvetica,sans-Serif" font-size="10.00" fill="grey"> to</text>
</g>
<!-- Node5 -->
<g id="Node000005" class="node">
<title>Node5</title>
<g id="a_Node000005"><a xlink:href="structnix_1_1Sink.html" target="_top" xlink:title=" ">
<polygon fill="white" stroke="#666666" points="255,-148 197,-148 197,-127.25 255,-127.25 255,-148"/>
<text text-anchor="middle" x="226" y="-134.5" font-family="Helvetica,sans-Serif" font-size="10.00">nix::Sink</text>
</a>
</g>
</g>
<!-- Node5&#45;&gt;Node4 -->
<g id="edge5_Node000004_Node000005" class="edge">
<title>Node5&#45;&gt;Node4</title>
<g id="a_edge5_Node000004_Node000005"><a xlink:title=" ">
<path fill="none" stroke="#63b8ff" d="M226,-115.68C226,-107.02 226,-97.4 226,-90.47"/>
<polygon fill="#63b8ff" stroke="#63b8ff" points="222.5,-115.4 226,-125.4 229.5,-115.4 222.5,-115.4"/>
</a>
</g>
</g>
</g>
</svg>
