<?xml version="1.0" encoding="UTF-8" standalone="no"?>
<!DOCTYPE svg PUBLIC "-//W3C//DTD SVG 1.1//EN"
 "http://www.w3.org/Graphics/SVG/1.1/DTD/svg11.dtd">
<!-- Generated by graphviz version 12.2.1 (0)
 -->
<!-- Title: nix::CmdStorePrefetchFile Pages: 1 -->
<svg width="238pt" height="291pt"
 viewBox="0.00 0.00 238.25 291.25" xmlns="http://www.w3.org/2000/svg" xmlns:xlink="http://www.w3.org/1999/xlink">
<g id="graph0" class="graph" transform="scale(1 1) rotate(0) translate(4 287.25)">
<title>nix::CmdStorePrefetchFile</title>
<!-- Node1 -->
<g id="Node000001" class="node">
<title>Node1</title>
<g id="a_Node000001"><a xlink:title=" ">
<polygon fill="#999999" stroke="#666666" points="200.75,-20.75 58,-20.75 58,0 200.75,0 200.75,-20.75"/>
<text text-anchor="middle" x="129.38" y="-7.25" font-family="Helvetica,sans-Serif" font-size="10.00">nix::CmdStorePrefetchFile</text>
</a>
</g>
</g>
<!-- Node2 -->
<g id="Node000002" class="node">
<title>Node2</title>
<g id="a_Node000002"><a xlink:href="structnix_1_1StoreCommand.html" target="_top" xlink:title=" ">
<polygon fill="white" stroke="#666666" points="112.75,-186.75 0,-186.75 0,-166 112.75,-166 112.75,-186.75"/>
<text text-anchor="middle" x="56.38" y="-173.25" font-family="Helvetica,sans-Serif" font-size="10.00">nix::StoreCommand</text>
</a>
</g>
</g>
<!-- Node2&#45;&gt;Node1 -->
<g id="edge1_Node000001_Node000002" class="edge">
<title>Node2&#45;&gt;Node1</title>
<g id="a_edge1_Node000001_Node000002"><a xlink:title=" ">
<path fill="none" stroke="#63b8ff" d="M58.2,-154.16C60.76,-132.05 66.76,-96.87 80.38,-69.5 90.02,-50.12 107.41,-31.72 118.67,-20.99"/>
<polygon fill="#63b8ff" stroke="#63b8ff" points="54.73,-153.71 57.2,-164.01 61.69,-154.41 54.73,-153.71"/>
</a>
</g>
</g>
<!-- Node3 -->
<g id="Node000003" class="node">
<title>Node3</title>
<g id="a_Node000003"><a xlink:href="structnix_1_1Command.html" target="_top" xlink:title=" ">
<polygon fill="white" stroke="#666666" points="181,-283.25 93.75,-283.25 93.75,-262.5 181,-262.5 181,-283.25"/>
<text text-anchor="middle" x="137.38" y="-269.75" font-family="Helvetica,sans-Serif" font-size="10.00">nix::Command</text>
</a>
</g>
</g>
<!-- Node3&#45;&gt;Node2 -->
<g id="edge2_Node000002_Node000003" class="edge">
<title>Node3&#45;&gt;Node2</title>
<g id="a_edge2_Node000002_Node000003"><a xlink:title=" ">
<path fill="none" stroke="#63b8ff" d="M107.84,-256.39C95.39,-248.58 81.67,-238.08 72.38,-225.5 63.8,-213.88 59.64,-197.4 57.77,-187.05"/>
<polygon fill="#63b8ff" stroke="#63b8ff" points="105.75,-259.22 116.14,-261.3 109.31,-253.19 105.75,-259.22"/>
</a>
</g>
</g>
<!-- Node5 -->
<g id="Node000005" class="node">
<title>Node5</title>
<g id="a_Node000005"><a xlink:href="classnix_1_1MultiCommand.html" target="_top" xlink:title=" ">
<polygon fill="white" stroke="#666666" points="193.38,-225.5 81.38,-225.5 81.38,-204.75 193.38,-204.75 193.38,-225.5"/>
<text text-anchor="middle" x="137.38" y="-212" font-family="Helvetica,sans-Serif" font-size="10.00">nix::MultiCommand</text>
</a>
</g>
</g>
<!-- Node3&#45;&gt;Node5 -->
<g id="edge5_Node000005_Node000003" class="edge">
<title>Node3&#45;&gt;Node5</title>
<g id="a_edge5_Node000005_Node000003"><a xlink:title=" ">
<path fill="none" stroke="#63b8ff" d="M137.38,-250.93C137.38,-242.27 137.38,-232.65 137.38,-225.72"/>
<polygon fill="#63b8ff" stroke="#63b8ff" points="133.88,-250.65 137.38,-260.65 140.88,-250.65 133.88,-250.65"/>
</a>
</g>
</g>
<!-- Node4 -->
<g id="Node000004" class="node">
<title>Node4</title>
<g id="a_Node000004"><a xlink:href="classnix_1_1Args.html" target="_top" xlink:title=" ">
<polygon fill="white" stroke="#bfbfbf" points="166.75,-148 108,-148 108,-127.25 166.75,-127.25 166.75,-148"/>
<text text-anchor="middle" x="137.38" y="-134.5" font-family="Helvetica,sans-Serif" font-size="10.00">nix::Args</text>
</a>
</g>
</g>
<!-- Node4&#45;&gt;Node3 -->
<g id="edge3_Node000003_Node000004" class="edge">
<title>Node4&#45;&gt;Node3</title>
<g id="a_edge3_Node000003_Node000004"><a xlink:title=" ">
<path fill="none" stroke="#63b8ff" d="M163.28,-154.78C167.89,-158.2 172.46,-162 176.38,-166 190.89,-180.82 196.34,-184.91 202.38,-204.75 205.06,-213.57 206.6,-217.3 202.38,-225.5 193.68,-242.38 175.68,-254.48 160.82,-262.07"/>
<polygon fill="#63b8ff" stroke="#63b8ff" points="165.43,-152.01 155.22,-149.19 161.44,-157.76 165.43,-152.01"/>
</a>
</g>
</g>
<!-- Node6 -->
<g id="Node000006" class="node">
<title>Node6</title>
<g id="a_Node000006"><a xlink:href="structnix_1_1MixJSON.html" target="_top" xlink:title=" ">
<polygon fill="white" stroke="#bfbfbf" points="168.88,-90.25 89.88,-90.25 89.88,-69.5 168.88,-69.5 168.88,-90.25"/>
<text text-anchor="middle" x="129.38" y="-76.75" font-family="Helvetica,sans-Serif" font-size="10.00">nix::MixJSON</text>
</a>
</g>
</g>
<!-- Node4&#45;&gt;Node6 -->
<g id="edge7_Node000006_Node000004" class="edge">
<title>Node4&#45;&gt;Node6</title>
<g id="a_edge7_Node000006_Node000004"><a xlink:title=" ">
<path fill="none" stroke="#63b8ff" d="M134.37,-115.68C133.13,-107.02 131.75,-97.4 130.75,-90.47"/>
<polygon fill="#63b8ff" stroke="#63b8ff" points="130.88,-116.01 135.77,-125.42 137.81,-115.02 130.88,-116.01"/>
</a>
</g>
</g>
<!-- Node5&#45;&gt;Node4 -->
<g id="edge4_Node000004_Node000005" class="edge">
<title>Node5&#45;&gt;Node4</title>
<g id="a_edge4_Node000004_Node000005"><a xlink:title=" ">
<path fill="none" stroke="#9a32cd" stroke-dasharray="5,2" d="M137.38,-193.18C137.38,-178.48 137.38,-159.52 137.38,-148.26"/>
<polygon fill="#9a32cd" stroke="#9a32cd" points="133.88,-192.74 137.38,-202.74 140.88,-192.74 133.88,-192.74"/>
</a>
</g>
<text text-anchor="middle" x="154.62" y="-173.25" font-family="Helvetica,sans-Serif" font-size="10.00" fill="grey"> parent</text>
</g>
<!-- Node6&#45;&gt;Node1 -->
<g id="edge6_Node000001_Node000006" class="edge">
<title>Node6&#45;&gt;Node1</title>
<g id="a_edge6_Node000001_Node000006"><a xlink:title=" ">
<path fill="none" stroke="#63b8ff" d="M129.38,-58.07C129.38,-45.72 129.38,-30.65 129.38,-21.03"/>
<polygon fill="#63b8ff" stroke="#63b8ff" points="125.88,-57.69 129.38,-67.69 132.88,-57.69 125.88,-57.69"/>
</a>
</g>
</g>
<!-- Node7 -->
<g id="Node000007" class="node">
<title>Node7</title>
<g id="a_Node000007"><a xlink:title=" ">
<polygon fill="white" stroke="#bfbfbf" points="230.25,-90.25 186.5,-90.25 186.5,-69.5 230.25,-69.5 230.25,-90.25"/>
<text text-anchor="middle" x="208.38" y="-76.75" font-family="Helvetica,sans-Serif" font-size="10.00">string</text>
</a>
</g>
</g>
<!-- Node7&#45;&gt;Node1 -->
<g id="edge8_Node000001_Node000007" class="edge">
<title>Node7&#45;&gt;Node1</title>
<g id="a_edge8_Node000001_Node000007"><a xlink:title=" ">
<path fill="none" stroke="#9a32cd" stroke-dasharray="5,2" d="M188.48,-61.87C173.46,-49.05 153.39,-31.9 140.93,-21.25"/>
<polygon fill="#9a32cd" stroke="#9a32cd" points="186.03,-64.39 195.91,-68.22 190.58,-59.06 186.03,-64.39"/>
</a>
</g>
<text text-anchor="middle" x="183.83" y="-42" font-family="Helvetica,sans-Serif" font-size="10.00" fill="grey"> url</text>
</g>
</g>
</svg>
