<?xml version="1.0" encoding="UTF-8" standalone="no"?>
<!DOCTYPE svg PUBLIC "-//W3C//DTD SVG 1.1//EN"
 "http://www.w3.org/Graphics/SVG/1.1/DTD/svg11.dtd">
<!-- Generated by graphviz version 12.2.1 (0)
 -->
<!-- Title: nix::flake::Node Pages: 1 -->
<svg width="134pt" height="155pt"
 viewBox="0.00 0.00 133.50 155.00" xmlns="http://www.w3.org/2000/svg" xmlns:xlink="http://www.w3.org/1999/xlink">
<g id="graph0" class="graph" transform="scale(1 1) rotate(0) translate(4 151)">
<title>nix::flake::Node</title>
<!-- Node1 -->
<g id="Node000001" class="node">
<title>Node1</title>
<g id="a_Node000001"><a xlink:title=" ">
<polygon fill="#999999" stroke="#666666" points="108.62,-77.5 16.88,-77.5 16.88,-56.75 108.62,-56.75 108.62,-77.5"/>
<text text-anchor="middle" x="62.75" y="-64" font-family="Helvetica,sans-Serif" font-size="10.00">nix::flake::Node</text>
</a>
</g>
</g>
<!-- Node3 -->
<g id="Node000003" class="node">
<title>Node3</title>
<g id="a_Node000003"><a xlink:href="structnix_1_1flake_1_1LockedNode.html" target="_top" xlink:title=" ">
<polygon fill="white" stroke="#666666" points="125.5,-20.75 0,-20.75 0,0 125.5,0 125.5,-20.75"/>
<text text-anchor="middle" x="62.75" y="-7.25" font-family="Helvetica,sans-Serif" font-size="10.00">nix::flake::LockedNode</text>
</a>
</g>
</g>
<!-- Node1&#45;&gt;Node3 -->
<g id="edge2_Node000001_Node000003" class="edge">
<title>Node1&#45;&gt;Node3</title>
<g id="a_edge2_Node000001_Node000003"><a xlink:title=" ">
<path fill="none" stroke="#63b8ff" d="M62.75,-44.88C62.75,-36.66 62.75,-27.68 62.75,-21.08"/>
<polygon fill="#63b8ff" stroke="#63b8ff" points="59.25,-44.82 62.75,-54.82 66.25,-44.82 59.25,-44.82"/>
</a>
</g>
</g>
<!-- Node2 -->
<g id="Node000002" class="node">
<title>Node2</title>
<g id="a_Node000002"><a xlink:title=" ">
<polygon fill="white" stroke="#bfbfbf" points="120.62,-147 4.88,-147 4.88,-113.5 120.62,-113.5 120.62,-147"/>
<text text-anchor="start" x="12.88" y="-133.5" font-family="Helvetica,sans-Serif" font-size="10.00">std::enable_shared</text>
<text text-anchor="middle" x="62.75" y="-120.75" font-family="Helvetica,sans-Serif" font-size="10.00">_from_this&lt; Node &gt;</text>
</a>
</g>
</g>
<!-- Node2&#45;&gt;Node1 -->
<g id="edge1_Node000001_Node000002" class="edge">
<title>Node2&#45;&gt;Node1</title>
<g id="a_edge1_Node000001_Node000002"><a xlink:title=" ">
<path fill="none" stroke="#63b8ff" d="M62.75,-101.69C62.75,-93.21 62.75,-84.42 62.75,-77.97"/>
<polygon fill="#63b8ff" stroke="#63b8ff" points="59.25,-101.68 62.75,-111.68 66.25,-101.68 59.25,-101.68"/>
</a>
</g>
</g>
</g>
</svg>
