<?xml version="1.0" encoding="UTF-8" standalone="no"?>
<!DOCTYPE svg PUBLIC "-//W3C//DTD SVG 1.1//EN"
 "http://www.w3.org/Graphics/SVG/1.1/DTD/svg11.dtd">
<!-- Generated by graphviz version 12.2.1 (0)
 -->
<!-- Title: nix::StaticEnv Pages: 1 -->
<svg width="165pt" height="226pt"
 viewBox="0.00 0.00 165.00 225.50" xmlns="http://www.w3.org/2000/svg" xmlns:xlink="http://www.w3.org/1999/xlink">
<g id="graph0" class="graph" transform="scale(1 1) rotate(0) translate(4 221.5)">
<title>nix::StaticEnv</title>
<!-- Node1 -->
<g id="Node000001" class="node">
<title>Node1</title>
<g id="a_Node000001"><a xlink:title=" ">
<polygon fill="#999999" stroke="#666666" points="82.75,-20.75 0,-20.75 0,0 82.75,0 82.75,-20.75"/>
<text text-anchor="middle" x="41.38" y="-7.25" font-family="Helvetica,sans-Serif" font-size="10.00">nix::StaticEnv</text>
</a>
</g>
</g>
<!-- Node1&#45;&gt;Node1 -->
<g id="edge5_Node000001_Node000001" class="edge">
<title>Node1&#45;&gt;Node1</title>
<g id="a_edge5_Node000001_Node000001"><a xlink:title=" ">
<path fill="none" stroke="#9a32cd" stroke-dasharray="5,2" d="M94.11,-15.3C98.22,-14.21 100.75,-12.57 100.75,-10.38 100.75,-6.57 93.17,-4.44 82.99,-3.96"/>
<polygon fill="#9a32cd" stroke="#9a32cd" points="93.94,-11.79 84.49,-16.59 94.87,-18.73 93.94,-11.79"/>
</a>
</g>
<text text-anchor="middle" x="108.25" y="-7.25" font-family="Helvetica,sans-Serif" font-size="10.00" fill="grey"> up</text>
</g>
<!-- Node2 -->
<g id="Node000002" class="node">
<title>Node2</title>
<g id="a_Node000002"><a xlink:href="structnix_1_1ExprWith.html" target="_top" xlink:title=" ">
<polygon fill="white" stroke="#bfbfbf" points="82,-90.25 0.75,-90.25 0.75,-69.5 82,-69.5 82,-90.25"/>
<text text-anchor="middle" x="41.38" y="-76.75" font-family="Helvetica,sans-Serif" font-size="10.00">nix::ExprWith</text>
</a>
</g>
</g>
<!-- Node2&#45;&gt;Node1 -->
<g id="edge1_Node000001_Node000002" class="edge">
<title>Node2&#45;&gt;Node1</title>
<g id="a_edge1_Node000001_Node000002"><a xlink:title=" ">
<path fill="none" stroke="#9a32cd" stroke-dasharray="5,2" d="M41.38,-58.07C41.38,-45.72 41.38,-30.65 41.38,-21.03"/>
<polygon fill="#9a32cd" stroke="#9a32cd" points="37.88,-57.69 41.38,-67.69 44.88,-57.69 37.88,-57.69"/>
</a>
</g>
<text text-anchor="middle" x="58.25" y="-42" font-family="Helvetica,sans-Serif" font-size="10.00" fill="grey"> isWith</text>
</g>
<!-- Node2&#45;&gt;Node2 -->
<g id="edge4_Node000002_Node000002" class="edge">
<title>Node2&#45;&gt;Node2</title>
<g id="a_edge4_Node000002_Node000002"><a xlink:title=" ">
<path fill="none" stroke="#9a32cd" stroke-dasharray="5,2" d="M93.77,-83.89C97.63,-82.99 100,-81.65 100,-79.88 100,-76.72 92.52,-74.94 82.47,-74.55"/>
<polygon fill="#9a32cd" stroke="#9a32cd" points="93.5,-80.4 83.97,-85.03 94.31,-87.35 93.5,-80.4"/>
</a>
</g>
<text text-anchor="middle" x="128.5" y="-76.75" font-family="Helvetica,sans-Serif" font-size="10.00" fill="grey"> parentWith</text>
</g>
<!-- Node3 -->
<g id="Node000003" class="node">
<title>Node3</title>
<g id="a_Node000003"><a xlink:href="structnix_1_1Expr.html" target="_top" xlink:title=" ">
<polygon fill="white" stroke="#bfbfbf" points="70.75,-148 12,-148 12,-127.25 70.75,-127.25 70.75,-148"/>
<text text-anchor="middle" x="41.38" y="-134.5" font-family="Helvetica,sans-Serif" font-size="10.00">nix::Expr</text>
</a>
</g>
</g>
<!-- Node3&#45;&gt;Node2 -->
<g id="edge2_Node000002_Node000003" class="edge">
<title>Node3&#45;&gt;Node2</title>
<g id="a_edge2_Node000002_Node000003"><a xlink:title=" ">
<path fill="none" stroke="#63b8ff" d="M41.38,-115.68C41.38,-107.02 41.38,-97.4 41.38,-90.47"/>
<polygon fill="#63b8ff" stroke="#63b8ff" points="37.88,-115.4 41.38,-125.4 44.88,-115.4 37.88,-115.4"/>
</a>
</g>
</g>
<!-- Node4 -->
<g id="Node000004" class="node">
<title>Node4</title>
<g id="a_Node000004"><a xlink:href="classnix_1_1PosIdx.html" target="_top" xlink:title=" ">
<polygon fill="white" stroke="#bfbfbf" points="76,-217.5 6.75,-217.5 6.75,-196.75 76,-196.75 76,-217.5"/>
<text text-anchor="middle" x="41.38" y="-204" font-family="Helvetica,sans-Serif" font-size="10.00">nix::PosIdx</text>
</a>
</g>
</g>
<!-- Node4&#45;&gt;Node3 -->
<g id="edge3_Node000003_Node000004" class="edge">
<title>Node4&#45;&gt;Node3</title>
<g id="a_edge3_Node000003_Node000004"><a xlink:title=" ">
<path fill="none" stroke="#9a32cd" stroke-dasharray="5,2" d="M41.38,-185.32C41.38,-172.97 41.38,-157.9 41.38,-148.28"/>
<polygon fill="#9a32cd" stroke="#9a32cd" points="37.88,-184.94 41.38,-194.94 44.88,-184.94 37.88,-184.94"/>
</a>
</g>
<text text-anchor="middle" x="51.5" y="-169.25" font-family="Helvetica,sans-Serif" font-size="10.00" fill="grey"> pos</text>
</g>
</g>
</svg>
