<?xml version="1.0" encoding="UTF-8" standalone="no"?>
<!DOCTYPE svg PUBLIC "-//W3C//DTD SVG 1.1//EN"
 "http://www.w3.org/Graphics/SVG/1.1/DTD/svg11.dtd">
<!-- Generated by graphviz version 12.2.1 (0)
 -->
<!-- Title: nix::curlFileTransfer::TransferSource Pages: 1 -->
<svg width="412pt" height="206pt"
 viewBox="0.00 0.00 411.62 206.00" xmlns="http://www.w3.org/2000/svg" xmlns:xlink="http://www.w3.org/1999/xlink">
<g id="graph0" class="graph" transform="scale(1 1) rotate(0) translate(4 202)">
<title>nix::curlFileTransfer::TransferSource</title>
<!-- Node1 -->
<g id="Node000001" class="node">
<title>Node1</title>
<g id="a_Node000001"><a xlink:title=" ">
<polygon fill="#999999" stroke="#666666" points="266.62,-33.5 155.38,-33.5 155.38,0 266.62,0 266.62,-33.5"/>
<text text-anchor="start" x="163.38" y="-20" font-family="Helvetica,sans-Serif" font-size="10.00">nix::curlFileTransfer</text>
<text text-anchor="middle" x="211" y="-7.25" font-family="Helvetica,sans-Serif" font-size="10.00">::TransferSource</text>
</a>
</g>
</g>
<!-- Node2 -->
<g id="Node000002" class="node">
<title>Node2</title>
<g id="a_Node000002"><a xlink:href="structnix_1_1Source.html" target="_top" xlink:title=" ">
<polygon fill="white" stroke="#666666" points="70,-115.75 0,-115.75 0,-95 70,-95 70,-115.75"/>
<text text-anchor="middle" x="35" y="-102.25" font-family="Helvetica,sans-Serif" font-size="10.00">nix::Source</text>
</a>
</g>
</g>
<!-- Node2&#45;&gt;Node1 -->
<g id="edge1_Node000001_Node000002" class="edge">
<title>Node2&#45;&gt;Node1</title>
<g id="a_edge1_Node000001_Node000002"><a xlink:title=" ">
<path fill="none" stroke="#63b8ff" d="M65.17,-89.53C96.59,-74.06 145.65,-49.91 178.06,-33.96"/>
<polygon fill="#63b8ff" stroke="#63b8ff" points="63.63,-86.38 56.21,-93.94 66.72,-92.66 63.63,-86.38"/>
</a>
</g>
</g>
<!-- Node3 -->
<g id="Node000003" class="node">
<title>Node3</title>
<g id="a_Node000003"><a xlink:href="structnix_1_1curlFileTransfer.html" target="_top" xlink:title=" ">
<polygon fill="white" stroke="#bfbfbf" points="199.62,-115.75 88.38,-115.75 88.38,-95 199.62,-95 199.62,-115.75"/>
<text text-anchor="middle" x="144" y="-102.25" font-family="Helvetica,sans-Serif" font-size="10.00">nix::curlFileTransfer</text>
</a>
</g>
</g>
<!-- Node3&#45;&gt;Node1 -->
<g id="edge2_Node000001_Node000003" class="edge">
<title>Node3&#45;&gt;Node1</title>
<g id="a_edge2_Node000001_Node000003"><a xlink:title=" ">
<path fill="none" stroke="#9a32cd" stroke-dasharray="5,2" d="M158.38,-85.49C166.09,-75.38 175.78,-62.74 184.5,-51.5 188.97,-45.73 193.91,-39.43 198.29,-33.86"/>
<polygon fill="#9a32cd" stroke="#9a32cd" points="155.63,-83.32 152.35,-93.4 161.19,-87.57 155.63,-83.32"/>
</a>
</g>
<text text-anchor="middle" x="201.75" y="-61.12" font-family="Helvetica,sans-Serif" font-size="10.00" fill="grey"> parent</text>
</g>
<!-- Node4 -->
<g id="Node000004" class="node">
<title>Node4</title>
<g id="a_Node000004"><a xlink:href="structnix_1_1FileTransfer.html" target="_top" xlink:title=" ">
<polygon fill="white" stroke="#bfbfbf" points="125.62,-191.62 32.38,-191.62 32.38,-170.88 125.62,-170.88 125.62,-191.62"/>
<text text-anchor="middle" x="79" y="-178.12" font-family="Helvetica,sans-Serif" font-size="10.00">nix::FileTransfer</text>
</a>
</g>
</g>
<!-- Node4&#45;&gt;Node3 -->
<g id="edge3_Node000003_Node000004" class="edge">
<title>Node4&#45;&gt;Node3</title>
<g id="a_edge3_Node000003_Node000004"><a xlink:title=" ">
<path fill="none" stroke="#63b8ff" d="M94.8,-162.29C107.7,-147.63 125.43,-127.48 135.71,-115.8"/>
<polygon fill="#63b8ff" stroke="#63b8ff" points="92.48,-159.64 88.5,-169.46 97.73,-164.26 92.48,-159.64"/>
</a>
</g>
</g>
<!-- Node5 -->
<g id="Node000005" class="node">
<title>Node5</title>
<g id="a_Node000005"><a xlink:href="classnix_1_1Sync.html" target="_top" xlink:title=" ">
<polygon fill="white" stroke="#666666" points="271.88,-198 144.12,-198 144.12,-164.5 271.88,-164.5 271.88,-198"/>
<text text-anchor="start" x="152.12" y="-184.5" font-family="Helvetica,sans-Serif" font-size="10.00">nix::Sync&lt; nix::curlFile</text>
<text text-anchor="middle" x="208" y="-171.75" font-family="Helvetica,sans-Serif" font-size="10.00">Transfer::State &gt;</text>
</a>
</g>
</g>
<!-- Node5&#45;&gt;Node3 -->
<g id="edge4_Node000003_Node000005" class="edge">
<title>Node5&#45;&gt;Node3</title>
<g id="a_edge4_Node000003_Node000005"><a xlink:title=" ">
<path fill="none" stroke="#9a32cd" stroke-dasharray="5,2" d="M186.74,-155.71C174.91,-142.05 160.87,-125.84 152.19,-115.83"/>
<polygon fill="#9a32cd" stroke="#9a32cd" points="183.93,-157.81 193.12,-163.08 189.22,-153.23 183.93,-157.81"/>
</a>
</g>
<text text-anchor="middle" x="194.42" y="-137" font-family="Helvetica,sans-Serif" font-size="10.00" fill="grey"> state_</text>
</g>
<!-- Node6 -->
<g id="Node000006" class="node">
<title>Node6</title>
<g id="a_Node000006"><a xlink:title=" ">
<polygon fill="white" stroke="#bfbfbf" points="261.88,-115.75 218.12,-115.75 218.12,-95 261.88,-95 261.88,-115.75"/>
<text text-anchor="middle" x="240" y="-102.25" font-family="Helvetica,sans-Serif" font-size="10.00">string</text>
</a>
</g>
</g>
<!-- Node6&#45;&gt;Node1 -->
<g id="edge5_Node000001_Node000006" class="edge">
<title>Node6&#45;&gt;Node1</title>
<g id="a_edge5_Node000001_Node000006"><a xlink:title=" ">
<path fill="none" stroke="#9a32cd" stroke-dasharray="5,2" d="M233.14,-83.88C228.02,-68.59 221.12,-47.99 216.4,-33.87"/>
<polygon fill="#9a32cd" stroke="#9a32cd" points="229.81,-84.97 236.31,-93.34 236.45,-82.74 229.81,-84.97"/>
</a>
</g>
<text text-anchor="middle" x="246.74" y="-67.5" font-family="Helvetica,sans-Serif" font-size="10.00" fill="grey"> chunk</text>
<text text-anchor="middle" x="246.74" y="-54.75" font-family="Helvetica,sans-Serif" font-size="10.00" fill="grey">uri</text>
</g>
<!-- Node7 -->
<g id="Node000007" class="node">
<title>Node7</title>
<g id="a_Node000007"><a xlink:title=" ">
<polygon fill="white" stroke="#bfbfbf" points="403.62,-115.75 280.38,-115.75 280.38,-95 403.62,-95 403.62,-115.75"/>
<text text-anchor="middle" x="342" y="-102.25" font-family="Helvetica,sans-Serif" font-size="10.00">anonymous:metadata</text>
</a>
</g>
</g>
<!-- Node7&#45;&gt;Node1 -->
<g id="edge6_Node000001_Node000007" class="edge">
<title>Node7&#45;&gt;Node1</title>
<g id="a_edge6_Node000001_Node000007"><a xlink:title=" ">
<path fill="none" stroke="#9a32cd" stroke-dasharray="5,2" d="M319.76,-88.07C304.99,-77.39 285.06,-63.29 267,-51.5 257.87,-45.54 247.72,-39.31 238.59,-33.84"/>
<polygon fill="#9a32cd" stroke="#9a32cd" points="317.28,-90.59 327.43,-93.64 321.4,-84.93 317.28,-90.59"/>
</a>
</g>
<text text-anchor="middle" x="329.4" y="-61.12" font-family="Helvetica,sans-Serif" font-size="10.00" fill="grey"> metadata</text>
</g>
</g>
</svg>
