<?xml version="1.0" encoding="UTF-8" standalone="no"?>
<!DOCTYPE svg PUBLIC "-//W3C//DTD SVG 1.1//EN"
 "http://www.w3.org/Graphics/SVG/1.1/DTD/svg11.dtd">
<!-- Generated by graphviz version 12.2.1 (0)
 -->
<!-- Title: nix::CmdFlakeInit Pages: 1 -->
<svg width="467pt" height="354pt"
 viewBox="0.00 0.00 467.00 353.75" xmlns="http://www.w3.org/2000/svg" xmlns:xlink="http://www.w3.org/1999/xlink">
<g id="graph0" class="graph" transform="scale(1 1) rotate(0) translate(4 349.75)">
<title>nix::CmdFlakeInit</title>
<!-- Node1 -->
<g id="Node000001" class="node">
<title>Node1</title>
<g id="a_Node000001"><a xlink:title=" ">
<polygon fill="#999999" stroke="#666666" points="268.75,-20.75 167.25,-20.75 167.25,0 268.75,0 268.75,-20.75"/>
<text text-anchor="middle" x="218" y="-7.25" font-family="Helvetica,sans-Serif" font-size="10.00">nix::CmdFlakeInit</text>
</a>
</g>
</g>
<!-- Node2 -->
<g id="Node000002" class="node">
<title>Node2</title>
<g id="a_Node000002"><a xlink:href="structnix_1_1CmdFlakeInitCommon.html" target="_top" xlink:title=" ">
<polygon fill="white" stroke="#bfbfbf" points="290.88,-78.5 145.12,-78.5 145.12,-57.75 290.88,-57.75 290.88,-78.5"/>
<text text-anchor="middle" x="218" y="-65" font-family="Helvetica,sans-Serif" font-size="10.00">nix::CmdFlakeInitCommon</text>
</a>
</g>
</g>
<!-- Node2&#45;&gt;Node1 -->
<g id="edge1_Node000001_Node000002" class="edge">
<title>Node2&#45;&gt;Node1</title>
<g id="a_edge1_Node000001_Node000002"><a xlink:title=" ">
<path fill="none" stroke="#63b8ff" d="M218,-46.18C218,-37.52 218,-27.9 218,-20.97"/>
<polygon fill="#63b8ff" stroke="#63b8ff" points="214.5,-45.9 218,-55.9 221.5,-45.9 214.5,-45.9"/>
</a>
</g>
</g>
<!-- Node3 -->
<g id="Node000003" class="node">
<title>Node3</title>
<g id="a_Node000003"><a xlink:href="classnix_1_1Args.html" target="_top" xlink:title=" ">
<polygon fill="white" stroke="#bfbfbf" points="248.38,-345.75 189.62,-345.75 189.62,-325 248.38,-325 248.38,-345.75"/>
<text text-anchor="middle" x="219" y="-332.25" font-family="Helvetica,sans-Serif" font-size="10.00">nix::Args</text>
</a>
</g>
</g>
<!-- Node3&#45;&gt;Node2 -->
<g id="edge2_Node000002_Node000003" class="edge">
<title>Node3&#45;&gt;Node2</title>
<g id="a_edge2_Node000002_Node000003"><a xlink:title=" ">
<path fill="none" stroke="#63b8ff" d="M178.28,-332.3C114.93,-327.93 0,-315.01 0,-278.62 0,-278.62 0,-278.62 0,-149.38 0,-115.45 94.16,-91.45 158.72,-78.99"/>
<polygon fill="#63b8ff" stroke="#63b8ff" points="177.75,-335.77 187.95,-332.92 178.2,-328.78 177.75,-335.77"/>
</a>
</g>
</g>
<!-- Node5 -->
<g id="Node000005" class="node">
<title>Node5</title>
<g id="a_Node000005"><a xlink:href="structnix_1_1Command.html" target="_top" xlink:title=" ">
<polygon fill="white" stroke="#666666" points="367.62,-288 280.38,-288 280.38,-267.25 367.62,-267.25 367.62,-288"/>
<text text-anchor="middle" x="324" y="-274.5" font-family="Helvetica,sans-Serif" font-size="10.00">nix::Command</text>
</a>
</g>
</g>
<!-- Node3&#45;&gt;Node5 -->
<g id="edge5_Node000005_Node000003" class="edge">
<title>Node3&#45;&gt;Node5</title>
<g id="a_edge5_Node000005_Node000003"><a xlink:title=" ">
<path fill="none" stroke="#63b8ff" d="M247.23,-319.38C265.75,-309.55 289.44,-296.98 305.57,-288.41"/>
<polygon fill="#63b8ff" stroke="#63b8ff" points="245.82,-316.17 238.63,-323.95 249.1,-322.36 245.82,-316.17"/>
</a>
</g>
</g>
<!-- Node8 -->
<g id="Node000008" class="node">
<title>Node8</title>
<g id="a_Node000008"><a xlink:href="structnix_1_1MixEvalArgs.html" target="_top" xlink:title=" ">
<polygon fill="white" stroke="#bfbfbf" points="196.88,-218.5 99.12,-218.5 99.12,-197.75 196.88,-197.75 196.88,-218.5"/>
<text text-anchor="middle" x="148" y="-205" font-family="Helvetica,sans-Serif" font-size="10.00">nix::MixEvalArgs</text>
</a>
</g>
</g>
<!-- Node3&#45;&gt;Node8 -->
<g id="edge10_Node000008_Node000003" class="edge">
<title>Node3&#45;&gt;Node8</title>
<g id="a_edge10_Node000008_Node000003"><a xlink:title=" ">
<path fill="none" stroke="#63b8ff" d="M194.8,-317.93C184.81,-309.98 173.97,-299.64 167,-288 153.54,-265.52 149.61,-234.07 148.47,-218.55"/>
<polygon fill="#63b8ff" stroke="#63b8ff" points="192.64,-320.68 202.74,-323.87 196.83,-315.08 192.64,-320.68"/>
</a>
</g>
</g>
<!-- Node9 -->
<g id="Node000009" class="node">
<title>Node9</title>
<g id="a_Node000009"><a xlink:href="structnix_1_1MixRepair.html" target="_top" xlink:title=" ">
<polygon fill="white" stroke="#bfbfbf" points="262.25,-288 175.75,-288 175.75,-267.25 262.25,-267.25 262.25,-288"/>
<text text-anchor="middle" x="219" y="-274.5" font-family="Helvetica,sans-Serif" font-size="10.00">nix::MixRepair</text>
</a>
</g>
</g>
<!-- Node3&#45;&gt;Node9 -->
<g id="edge12_Node000009_Node000003" class="edge">
<title>Node3&#45;&gt;Node9</title>
<g id="a_edge12_Node000009_Node000003"><a xlink:title=" ">
<path fill="none" stroke="#63b8ff" d="M219,-313.43C219,-304.77 219,-295.15 219,-288.22"/>
<polygon fill="#63b8ff" stroke="#63b8ff" points="215.5,-313.15 219,-323.15 222.5,-313.15 215.5,-313.15"/>
</a>
</g>
</g>
<!-- Node4 -->
<g id="Node000004" class="node">
<title>Node4</title>
<g id="a_Node000004"><a xlink:href="classnix_1_1MultiCommand.html" target="_top" xlink:title=" ">
<polygon fill="white" stroke="#666666" points="459,-218.5 347,-218.5 347,-197.75 459,-197.75 459,-218.5"/>
<text text-anchor="middle" x="403" y="-205" font-family="Helvetica,sans-Serif" font-size="10.00">nix::MultiCommand</text>
</a>
</g>
</g>
<!-- Node4&#45;&gt;Node3 -->
<g id="edge3_Node000003_Node000004" class="edge">
<title>Node4&#45;&gt;Node3</title>
<g id="a_edge3_Node000003_Node000004"><a xlink:title=" ">
<path fill="none" stroke="#9a32cd" stroke-dasharray="5,2" d="M401.38,-230.31C398.9,-248.05 392.68,-272.83 377,-288 342.07,-321.79 283.86,-331.16 248.69,-333.63"/>
<polygon fill="#9a32cd" stroke="#9a32cd" points="404.86,-230.69 402.43,-220.38 397.89,-229.95 404.86,-230.69"/>
</a>
</g>
<text text-anchor="middle" x="408.23" y="-274.5" font-family="Helvetica,sans-Serif" font-size="10.00" fill="grey"> parent</text>
</g>
<!-- Node5&#45;&gt;Node4 -->
<g id="edge4_Node000004_Node000005" class="edge">
<title>Node5&#45;&gt;Node4</title>
<g id="a_edge4_Node000004_Node000005"><a xlink:title=" ">
<path fill="none" stroke="#63b8ff" d="M343.9,-259.62C358.91,-246.8 378.98,-229.65 391.45,-219"/>
<polygon fill="#63b8ff" stroke="#63b8ff" points="341.8,-256.81 336.47,-265.97 346.35,-262.14 341.8,-256.81"/>
</a>
</g>
</g>
<!-- Node7 -->
<g id="Node000007" class="node">
<title>Node7</title>
<g id="a_Node000007"><a xlink:href="structnix_1_1StoreCommand.html" target="_top" xlink:title=" ">
<polygon fill="white" stroke="#666666" points="328.38,-218.5 215.62,-218.5 215.62,-197.75 328.38,-197.75 328.38,-218.5"/>
<text text-anchor="middle" x="272" y="-205" font-family="Helvetica,sans-Serif" font-size="10.00">nix::StoreCommand</text>
</a>
</g>
</g>
<!-- Node5&#45;&gt;Node7 -->
<g id="edge8_Node000007_Node000005" class="edge">
<title>Node5&#45;&gt;Node7</title>
<g id="a_edge8_Node000007_Node000005"><a xlink:title=" ">
<path fill="none" stroke="#63b8ff" d="M309.73,-258.1C299.92,-245.37 287.31,-229 279.44,-218.78"/>
<polygon fill="#63b8ff" stroke="#63b8ff" points="306.75,-259.97 315.63,-265.75 312.3,-255.7 306.75,-259.97"/>
</a>
</g>
</g>
<!-- Node6 -->
<g id="Node000006" class="node">
<title>Node6</title>
<g id="a_Node000006"><a xlink:href="structnix_1_1EvalCommand.html" target="_top" xlink:title=" ">
<polygon fill="white" stroke="#666666" points="202.12,-160.75 93.88,-160.75 93.88,-140 202.12,-140 202.12,-160.75"/>
<text text-anchor="middle" x="148" y="-147.25" font-family="Helvetica,sans-Serif" font-size="10.00">nix::EvalCommand</text>
</a>
</g>
</g>
<!-- Node6&#45;&gt;Node2 -->
<g id="edge6_Node000002_Node000006" class="edge">
<title>Node6&#45;&gt;Node2</title>
<g id="a_edge6_Node000002_Node000006"><a xlink:title=" ">
<path fill="none" stroke="#63b8ff" d="M163.78,-131.28C178.06,-114.92 198.52,-91.46 209.78,-78.55"/>
<polygon fill="#63b8ff" stroke="#63b8ff" points="161.51,-128.56 157.58,-138.39 166.79,-133.16 161.51,-128.56"/>
</a>
</g>
</g>
<!-- Node7&#45;&gt;Node6 -->
<g id="edge7_Node000006_Node000007" class="edge">
<title>Node7&#45;&gt;Node6</title>
<g id="a_edge7_Node000006_Node000007"><a xlink:title=" ">
<path fill="none" stroke="#63b8ff" d="M239.88,-192.68C217.8,-182.76 189.07,-169.84 169.66,-161.12"/>
<polygon fill="#63b8ff" stroke="#63b8ff" points="238.18,-195.76 248.74,-196.67 241.05,-189.37 238.18,-195.76"/>
</a>
</g>
</g>
<!-- Node8&#45;&gt;Node6 -->
<g id="edge9_Node000006_Node000008" class="edge">
<title>Node8&#45;&gt;Node6</title>
<g id="a_edge9_Node000006_Node000008"><a xlink:title=" ">
<path fill="none" stroke="#63b8ff" d="M148,-186.18C148,-177.52 148,-167.9 148,-160.97"/>
<polygon fill="#63b8ff" stroke="#63b8ff" points="144.5,-185.9 148,-195.9 151.5,-185.9 144.5,-185.9"/>
</a>
</g>
</g>
<!-- Node9&#45;&gt;Node8 -->
<g id="edge11_Node000008_Node000009" class="edge">
<title>Node9&#45;&gt;Node8</title>
<g id="a_edge11_Node000008_Node000009"><a xlink:title=" ">
<path fill="none" stroke="#63b8ff" d="M200.68,-259.21C187.15,-246.34 169.22,-229.3 158.15,-218.78"/>
<polygon fill="#63b8ff" stroke="#63b8ff" points="198.07,-261.56 207.73,-265.91 202.89,-256.48 198.07,-261.56"/>
</a>
</g>
</g>
<!-- Node10 -->
<g id="Node000010" class="node">
<title>Node10</title>
<g id="a_Node000010"><a xlink:href="structnix_1_1SearchPath.html" target="_top" xlink:title=" ">
<polygon fill="white" stroke="#666666" points="119.5,-288 28.5,-288 28.5,-267.25 119.5,-267.25 119.5,-288"/>
<text text-anchor="middle" x="74" y="-274.5" font-family="Helvetica,sans-Serif" font-size="10.00">nix::SearchPath</text>
</a>
</g>
</g>
<!-- Node10&#45;&gt;Node8 -->
<g id="edge13_Node000008_Node000010" class="edge">
<title>Node10&#45;&gt;Node8</title>
<g id="a_edge13_Node000008_Node000010"><a xlink:title=" ">
<path fill="none" stroke="#9a32cd" stroke-dasharray="5,2" d="M71.82,-255.54C72.16,-248.89 73.69,-241.88 77.75,-236.5 83.74,-228.56 92.37,-222.92 101.53,-218.91"/>
<polygon fill="#9a32cd" stroke="#9a32cd" points="68.32,-255.66 72.2,-265.52 75.32,-255.39 68.32,-255.66"/>
</a>
</g>
<text text-anchor="middle" x="105.88" y="-239.75" font-family="Helvetica,sans-Serif" font-size="10.00" fill="grey"> searchPath</text>
</g>
<!-- Node11 -->
<g id="Node000011" class="node">
<title>Node11</title>
<g id="a_Node000011"><a xlink:title=" ">
<polygon fill="white" stroke="#bfbfbf" points="263.88,-160.75 220.12,-160.75 220.12,-140 263.88,-140 263.88,-160.75"/>
<text text-anchor="middle" x="242" y="-147.25" font-family="Helvetica,sans-Serif" font-size="10.00">string</text>
</a>
</g>
</g>
<!-- Node11&#45;&gt;Node2 -->
<g id="edge14_Node000002_Node000011" class="edge">
<title>Node11&#45;&gt;Node2</title>
<g id="a_edge14_Node000002_Node000011"><a xlink:title=" ">
<path fill="none" stroke="#9a32cd" stroke-dasharray="5,2" d="M235.9,-128.97C231.05,-112.77 224.5,-90.86 220.82,-78.55"/>
<polygon fill="#9a32cd" stroke="#9a32cd" points="232.4,-129.51 238.62,-138.08 239.11,-127.5 232.4,-129.51"/>
</a>
</g>
<text text-anchor="middle" x="262.8" y="-112.5" font-family="Helvetica,sans-Serif" font-size="10.00" fill="grey"> destDir</text>
<text text-anchor="middle" x="262.8" y="-99.75" font-family="Helvetica,sans-Serif" font-size="10.00" fill="grey">templateUrl</text>
</g>
<!-- Node12 -->
<g id="Node000012" class="node">
<title>Node12</title>
<g id="a_Node000012"><a xlink:href="structnix_1_1flake_1_1LockFlags.html" target="_top" xlink:title=" ">
<polygon fill="white" stroke="#bfbfbf" points="396.5,-160.75 281.5,-160.75 281.5,-140 396.5,-140 396.5,-160.75"/>
<text text-anchor="middle" x="339" y="-147.25" font-family="Helvetica,sans-Serif" font-size="10.00">nix::flake::LockFlags</text>
</a>
</g>
</g>
<!-- Node12&#45;&gt;Node2 -->
<g id="edge15_Node000002_Node000012" class="edge">
<title>Node12&#45;&gt;Node2</title>
<g id="a_edge15_Node000002_Node000012"><a xlink:title=" ">
<path fill="none" stroke="#9a32cd" stroke-dasharray="5,2" d="M327.45,-130.42C319.76,-119.19 308.75,-105.46 296,-96.5 285.08,-88.82 271.8,-83.11 259.32,-78.95"/>
<polygon fill="#9a32cd" stroke="#9a32cd" points="324.33,-132.05 332.7,-138.54 330.21,-128.25 324.33,-132.05"/>
</a>
</g>
<text text-anchor="middle" x="345.52" y="-106.12" font-family="Helvetica,sans-Serif" font-size="10.00" fill="grey"> lockFlags</text>
</g>
</g>
</svg>
