<?xml version="1.0" encoding="UTF-8" standalone="no"?>
<!DOCTYPE svg PUBLIC "-//W3C//DTD SVG 1.1//EN"
 "http://www.w3.org/Graphics/SVG/1.1/DTD/svg11.dtd">
<!-- Generated by graphviz version 12.2.1 (0)
 -->
<!-- Title: nix::CmdProfileUpgrade Pages: 1 -->
<svg width="418pt" height="369pt"
 viewBox="0.00 0.00 417.62 369.25" xmlns="http://www.w3.org/2000/svg" xmlns:xlink="http://www.w3.org/1999/xlink">
<g id="graph0" class="graph" transform="scale(1 1) rotate(0) translate(4 365.25)">
<title>nix::CmdProfileUpgrade</title>
<!-- Node1 -->
<g id="Node000001" class="node">
<title>Node1</title>
<g id="a_Node000001"><a xlink:title=" ">
<polygon fill="#999999" stroke="#666666" points="275.75,-20.75 144.25,-20.75 144.25,0 275.75,0 275.75,-20.75"/>
<text text-anchor="middle" x="210" y="-7.25" font-family="Helvetica,sans-Serif" font-size="10.00">nix::CmdProfileUpgrade</text>
</a>
</g>
</g>
<!-- Node2 -->
<g id="Node000002" class="node">
<title>Node2</title>
<g id="a_Node000002"><a xlink:href="structnix_1_1SourceExprCommand.html" target="_top" xlink:title=" ">
<polygon fill="white" stroke="#bfbfbf" points="161,-77.5 19,-77.5 19,-56.75 161,-56.75 161,-77.5"/>
<text text-anchor="middle" x="90" y="-64" font-family="Helvetica,sans-Serif" font-size="10.00">nix::SourceExprCommand</text>
</a>
</g>
</g>
<!-- Node2&#45;&gt;Node1 -->
<g id="edge1_Node000001_Node000002" class="edge">
<title>Node2&#45;&gt;Node1</title>
<g id="a_edge1_Node000001_Node000002"><a xlink:title=" ">
<path fill="none" stroke="#63b8ff" d="M121.88,-51.58C143.03,-41.93 170.19,-29.54 188.73,-21.08"/>
<polygon fill="#63b8ff" stroke="#63b8ff" points="120.48,-48.37 112.83,-55.71 123.38,-54.74 120.48,-48.37"/>
</a>
</g>
</g>
<!-- Node3 -->
<g id="Node000003" class="node">
<title>Node3</title>
<g id="a_Node000003"><a xlink:href="classnix_1_1Args.html" target="_top" xlink:title=" ">
<polygon fill="white" stroke="#bfbfbf" points="173.38,-361.25 114.62,-361.25 114.62,-340.5 173.38,-340.5 173.38,-361.25"/>
<text text-anchor="middle" x="144" y="-347.75" font-family="Helvetica,sans-Serif" font-size="10.00">nix::Args</text>
</a>
</g>
</g>
<!-- Node3&#45;&gt;Node2 -->
<g id="edge2_Node000002_Node000003" class="edge">
<title>Node3&#45;&gt;Node2</title>
<g id="a_edge2_Node000002_Node000003"><a xlink:title=" ">
<path fill="none" stroke="#63b8ff" d="M103.51,-337.82C60.92,-322.35 0,-291.02 0,-238.38 0,-238.38 0,-238.38 0,-179.62 0,-148.65 3.21,-138.12 22,-113.5 34.05,-97.7 53.26,-85.61 68.19,-77.9"/>
<polygon fill="#63b8ff" stroke="#63b8ff" points="102.14,-341.05 112.73,-341.01 104.43,-334.44 102.14,-341.05"/>
</a>
</g>
</g>
<!-- Node4 -->
<g id="Node000004" class="node">
<title>Node4</title>
<g id="a_Node000004"><a xlink:href="structnix_1_1MixFlakeOptions.html" target="_top" xlink:title=" ">
<polygon fill="white" stroke="#666666" points="149.38,-134.25 30.62,-134.25 30.62,-113.5 149.38,-113.5 149.38,-134.25"/>
<text text-anchor="middle" x="90" y="-120.75" font-family="Helvetica,sans-Serif" font-size="10.00">nix::MixFlakeOptions</text>
</a>
</g>
</g>
<!-- Node3&#45;&gt;Node4 -->
<g id="edge4_Node000004_Node000003" class="edge">
<title>Node3&#45;&gt;Node4</title>
<g id="a_edge4_Node000004_Node000003"><a xlink:title=" ">
<path fill="none" stroke="#63b8ff" d="M103.56,-339.16C86.05,-332.29 67.24,-321.39 57,-304.5 26.07,-253.48 38.55,-226.99 57,-170.25 61.52,-156.36 72.07,-143.17 80.04,-134.62"/>
<polygon fill="#63b8ff" stroke="#63b8ff" points="102.19,-342.38 112.79,-342.42 104.53,-335.79 102.19,-342.38"/>
</a>
</g>
</g>
<!-- Node7 -->
<g id="Node000007" class="node">
<title>Node7</title>
<g id="a_Node000007"><a xlink:href="structnix_1_1Command.html" target="_top" xlink:title=" ">
<polygon fill="white" stroke="#666666" points="295.62,-304.5 208.38,-304.5 208.38,-283.75 295.62,-283.75 295.62,-304.5"/>
<text text-anchor="middle" x="252" y="-291" font-family="Helvetica,sans-Serif" font-size="10.00">nix::Command</text>
</a>
</g>
</g>
<!-- Node3&#45;&gt;Node7 -->
<g id="edge8_Node000007_Node000003" class="edge">
<title>Node3&#45;&gt;Node7</title>
<g id="a_edge8_Node000007_Node000003"><a xlink:title=" ">
<path fill="none" stroke="#63b8ff" d="M173.48,-334.93C192.4,-325.34 216.4,-313.17 232.86,-304.83"/>
<polygon fill="#63b8ff" stroke="#63b8ff" points="172,-331.76 164.66,-339.4 175.16,-338 172,-331.76"/>
</a>
</g>
</g>
<!-- Node8 -->
<g id="Node000008" class="node">
<title>Node8</title>
<g id="a_Node000008"><a xlink:href="structnix_1_1MixEvalArgs.html" target="_top" xlink:title=" ">
<polygon fill="white" stroke="#bfbfbf" points="164.88,-247.75 67.12,-247.75 67.12,-227 164.88,-227 164.88,-247.75"/>
<text text-anchor="middle" x="116" y="-234.25" font-family="Helvetica,sans-Serif" font-size="10.00">nix::MixEvalArgs</text>
</a>
</g>
</g>
<!-- Node3&#45;&gt;Node8 -->
<g id="edge10_Node000008_Node000003" class="edge">
<title>Node3&#45;&gt;Node8</title>
<g id="a_edge10_Node000008_Node000003"><a xlink:title=" ">
<path fill="none" stroke="#63b8ff" d="M155.54,-330.17C161.84,-316.78 167.21,-298.82 161,-283.75 154.83,-268.77 141.06,-256.12 130.37,-248.01"/>
<polygon fill="#63b8ff" stroke="#63b8ff" points="152.54,-328.37 150.98,-338.85 158.73,-331.63 152.54,-328.37"/>
</a>
</g>
</g>
<!-- Node9 -->
<g id="Node000009" class="node">
<title>Node9</title>
<g id="a_Node000009"><a xlink:href="structnix_1_1MixRepair.html" target="_top" xlink:title=" ">
<polygon fill="white" stroke="#bfbfbf" points="152.25,-304.5 65.75,-304.5 65.75,-283.75 152.25,-283.75 152.25,-304.5"/>
<text text-anchor="middle" x="109" y="-291" font-family="Helvetica,sans-Serif" font-size="10.00">nix::MixRepair</text>
</a>
</g>
</g>
<!-- Node3&#45;&gt;Node9 -->
<g id="edge12_Node000009_Node000003" class="edge">
<title>Node3&#45;&gt;Node9</title>
<g id="a_edge12_Node000009_Node000003"><a xlink:title=" ">
<path fill="none" stroke="#63b8ff" d="M131.7,-330.64C126.12,-321.91 119.77,-311.97 115.2,-304.83"/>
<polygon fill="#63b8ff" stroke="#63b8ff" points="128.59,-332.27 136.93,-338.81 134.49,-328.5 128.59,-332.27"/>
</a>
</g>
</g>
<!-- Node12 -->
<g id="Node000012" class="node">
<title>Node12</title>
<g id="a_Node000012"><a xlink:href="classnix_1_1MixProfileElementMatchers.html" target="_top" xlink:title=" ">
<polygon fill="white" stroke="#bfbfbf" points="409.62,-77.5 238.38,-77.5 238.38,-56.75 409.62,-56.75 409.62,-77.5"/>
<text text-anchor="middle" x="324" y="-64" font-family="Helvetica,sans-Serif" font-size="10.00">nix::MixProfileElementMatchers</text>
</a>
</g>
</g>
<!-- Node3&#45;&gt;Node12 -->
<g id="edge17_Node000012_Node000003" class="edge">
<title>Node3&#45;&gt;Node12</title>
<g id="a_edge17_Node000012_Node000003"><a xlink:title=" ">
<path fill="none" stroke="#8b1a1a" d="M185,-349.04C221.27,-346.09 273.23,-336.1 305,-304.5 326.68,-282.93 324,-268.95 324,-238.38 324,-238.38 324,-238.38 324,-179.62 324,-142.07 324,-97.4 324,-77.97"/>
<polygon fill="#8b1a1a" stroke="#8b1a1a" points="185.08,-345.53 175.33,-349.68 185.54,-352.52 185.08,-345.53"/>
</a>
</g>
</g>
<!-- Node4&#45;&gt;Node2 -->
<g id="edge3_Node000002_Node000004" class="edge">
<title>Node4&#45;&gt;Node2</title>
<g id="a_edge3_Node000002_Node000004"><a xlink:title=" ">
<path fill="none" stroke="#63b8ff" d="M90,-101.63C90,-93.41 90,-84.43 90,-77.83"/>
<polygon fill="#63b8ff" stroke="#63b8ff" points="86.5,-101.57 90,-111.57 93.5,-101.57 86.5,-101.57"/>
</a>
</g>
</g>
<!-- Node5 -->
<g id="Node000005" class="node">
<title>Node5</title>
<g id="a_Node000005"><a xlink:href="structnix_1_1EvalCommand.html" target="_top" xlink:title=" ">
<polygon fill="white" stroke="#666666" points="174.12,-191 65.88,-191 65.88,-170.25 174.12,-170.25 174.12,-191"/>
<text text-anchor="middle" x="120" y="-177.5" font-family="Helvetica,sans-Serif" font-size="10.00">nix::EvalCommand</text>
</a>
</g>
</g>
<!-- Node5&#45;&gt;Node4 -->
<g id="edge5_Node000004_Node000005" class="edge">
<title>Node5&#45;&gt;Node4</title>
<g id="a_edge5_Node000004_Node000005"><a xlink:title=" ">
<path fill="none" stroke="#63b8ff" d="M109.15,-159.82C104.44,-151.23 99.14,-141.56 95.32,-134.58"/>
<polygon fill="#63b8ff" stroke="#63b8ff" points="106.03,-161.42 113.91,-168.51 112.17,-158.06 106.03,-161.42"/>
</a>
</g>
</g>
<!-- Node6 -->
<g id="Node000006" class="node">
<title>Node6</title>
<g id="a_Node000006"><a xlink:href="structnix_1_1StoreCommand.html" target="_top" xlink:title=" ">
<polygon fill="white" stroke="#666666" points="295.38,-247.75 182.62,-247.75 182.62,-227 295.38,-227 295.38,-247.75"/>
<text text-anchor="middle" x="239" y="-234.25" font-family="Helvetica,sans-Serif" font-size="10.00">nix::StoreCommand</text>
</a>
</g>
</g>
<!-- Node6&#45;&gt;Node5 -->
<g id="edge6_Node000005_Node000006" class="edge">
<title>Node6&#45;&gt;Node5</title>
<g id="a_edge6_Node000005_Node000006"><a xlink:title=" ">
<path fill="none" stroke="#63b8ff" d="M207.38,-221.83C186.41,-212.18 159.48,-199.79 141.09,-191.33"/>
<polygon fill="#63b8ff" stroke="#63b8ff" points="205.8,-224.95 216.35,-225.95 208.73,-218.59 205.8,-224.95"/>
</a>
</g>
</g>
<!-- Node11 -->
<g id="Node000011" class="node">
<title>Node11</title>
<g id="a_Node000011"><a xlink:href="structnix_1_1MixProfile.html" target="_top" xlink:title=" ">
<polygon fill="white" stroke="#bfbfbf" points="279.88,-191 194.12,-191 194.12,-170.25 279.88,-170.25 279.88,-191"/>
<text text-anchor="middle" x="237" y="-177.5" font-family="Helvetica,sans-Serif" font-size="10.00">nix::MixProfile</text>
</a>
</g>
</g>
<!-- Node6&#45;&gt;Node11 -->
<g id="edge15_Node000011_Node000006" class="edge">
<title>Node6&#45;&gt;Node11</title>
<g id="a_edge15_Node000011_Node000006"><a xlink:title=" ">
<path fill="none" stroke="#63b8ff" d="M238.22,-215.13C237.92,-206.91 237.6,-197.93 237.35,-191.33"/>
<polygon fill="#63b8ff" stroke="#63b8ff" points="234.72,-215.21 238.59,-225.07 241.72,-214.95 234.72,-215.21"/>
</a>
</g>
</g>
<!-- Node7&#45;&gt;Node6 -->
<g id="edge7_Node000006_Node000007" class="edge">
<title>Node7&#45;&gt;Node6</title>
<g id="a_edge7_Node000006_Node000007"><a xlink:title=" ">
<path fill="none" stroke="#63b8ff" d="M247.02,-272.17C245.06,-263.88 242.89,-254.75 241.3,-248.08"/>
<polygon fill="#63b8ff" stroke="#63b8ff" points="243.61,-272.94 249.33,-281.86 250.42,-271.33 243.61,-272.94"/>
</a>
</g>
</g>
<!-- Node8&#45;&gt;Node5 -->
<g id="edge9_Node000005_Node000008" class="edge">
<title>Node8&#45;&gt;Node5</title>
<g id="a_edge9_Node000005_Node000008"><a xlink:title=" ">
<path fill="none" stroke="#63b8ff" d="M117.55,-215.13C118.15,-206.91 118.81,-197.93 119.29,-191.33"/>
<polygon fill="#63b8ff" stroke="#63b8ff" points="114.06,-214.85 116.83,-225.08 121.04,-215.36 114.06,-214.85"/>
</a>
</g>
</g>
<!-- Node9&#45;&gt;Node8 -->
<g id="edge11_Node000008_Node000009" class="edge">
<title>Node9&#45;&gt;Node8</title>
<g id="a_edge11_Node000008_Node000009"><a xlink:title=" ">
<path fill="none" stroke="#63b8ff" d="M111.68,-272.17C112.74,-263.88 113.91,-254.75 114.76,-248.08"/>
<polygon fill="#63b8ff" stroke="#63b8ff" points="108.24,-271.47 110.44,-281.84 115.18,-272.36 108.24,-271.47"/>
</a>
</g>
</g>
<!-- Node10 -->
<g id="Node000010" class="node">
<title>Node10</title>
<g id="a_Node000010"><a xlink:href="structnix_1_1MixDefaultProfile.html" target="_top" xlink:title=" ">
<polygon fill="white" stroke="#bfbfbf" points="293.88,-134.25 172.12,-134.25 172.12,-113.5 293.88,-113.5 293.88,-134.25"/>
<text text-anchor="middle" x="233" y="-120.75" font-family="Helvetica,sans-Serif" font-size="10.00">nix::MixDefaultProfile</text>
</a>
</g>
</g>
<!-- Node10&#45;&gt;Node1 -->
<g id="edge13_Node000001_Node000010" class="edge">
<title>Node10&#45;&gt;Node1</title>
<g id="a_edge13_Node000001_Node000010"><a xlink:title=" ">
<path fill="none" stroke="#63b8ff" d="M228.76,-102.3C223.78,-78.2 215.75,-39.25 212.02,-21.18"/>
<polygon fill="#63b8ff" stroke="#63b8ff" points="225.29,-102.8 230.73,-111.89 232.14,-101.39 225.29,-102.8"/>
</a>
</g>
</g>
<!-- Node11&#45;&gt;Node10 -->
<g id="edge14_Node000010_Node000011" class="edge">
<title>Node11&#45;&gt;Node10</title>
<g id="a_edge14_Node000010_Node000011"><a xlink:title=" ">
<path fill="none" stroke="#63b8ff" d="M235.45,-158.38C234.85,-150.16 234.19,-141.18 233.71,-134.58"/>
<polygon fill="#63b8ff" stroke="#63b8ff" points="231.96,-158.61 236.17,-168.33 238.94,-158.1 231.96,-158.61"/>
</a>
</g>
</g>
<!-- Node12&#45;&gt;Node1 -->
<g id="edge16_Node000001_Node000012" class="edge">
<title>Node12&#45;&gt;Node1</title>
<g id="a_edge16_Node000001_Node000012"><a xlink:title=" ">
<path fill="none" stroke="#63b8ff" d="M293.43,-51.45C273.39,-41.82 247.74,-29.5 230.2,-21.08"/>
<polygon fill="#63b8ff" stroke="#63b8ff" points="291.73,-54.51 302.25,-55.68 294.76,-48.2 291.73,-54.51"/>
</a>
</g>
</g>
</g>
</svg>
