<?xml version="1.0" encoding="UTF-8" standalone="no"?>
<!DOCTYPE svg PUBLIC "-//W3C//DTD SVG 1.1//EN"
 "http://www.w3.org/Graphics/SVG/1.1/DTD/svg11.dtd">
<!-- Generated by graphviz version 12.2.1 (0)
 -->
<!-- Title: nix::ExtraPathInfoFlake::Flake Pages: 1 -->
<svg width="178pt" height="193pt"
 viewBox="0.00 0.00 177.62 193.25" xmlns="http://www.w3.org/2000/svg" xmlns:xlink="http://www.w3.org/1999/xlink">
<g id="graph0" class="graph" transform="scale(1 1) rotate(0) translate(4 189.25)">
<title>nix::ExtraPathInfoFlake::Flake</title>
<!-- Node1 -->
<g id="Node000001" class="node">
<title>Node1</title>
<g id="a_Node000001"><a xlink:title=" ">
<polygon fill="#999999" stroke="#666666" points="165,-33.5 36.5,-33.5 36.5,0 165,0 165,-33.5"/>
<text text-anchor="start" x="44.5" y="-20" font-family="Helvetica,sans-Serif" font-size="10.00">nix::ExtraPathInfoFlake</text>
<text text-anchor="middle" x="100.75" y="-7.25" font-family="Helvetica,sans-Serif" font-size="10.00">::Flake</text>
</a>
</g>
</g>
<!-- Node2 -->
<g id="Node000002" class="node">
<title>Node2</title>
<g id="a_Node000002"><a xlink:href="structnix_1_1FlakeRef.html" target="_top" xlink:title=" ">
<polygon fill="white" stroke="#666666" points="140.62,-115.75 60.88,-115.75 60.88,-95 140.62,-95 140.62,-115.75"/>
<text text-anchor="middle" x="100.75" y="-102.25" font-family="Helvetica,sans-Serif" font-size="10.00">nix::FlakeRef</text>
</a>
</g>
</g>
<!-- Node2&#45;&gt;Node1 -->
<g id="edge1_Node000001_Node000002" class="edge">
<title>Node2&#45;&gt;Node1</title>
<g id="a_edge1_Node000001_Node000002"><a xlink:title=" ">
<path fill="none" stroke="#9a32cd" stroke-dasharray="5,2" d="M100.75,-83.42C100.75,-68.18 100.75,-47.85 100.75,-33.87"/>
<polygon fill="#9a32cd" stroke="#9a32cd" points="97.25,-83.26 100.75,-93.26 104.25,-83.26 97.25,-83.26"/>
</a>
</g>
<text text-anchor="middle" x="127.38" y="-67.5" font-family="Helvetica,sans-Serif" font-size="10.00" fill="grey"> lockedRef</text>
<text text-anchor="middle" x="127.38" y="-54.75" font-family="Helvetica,sans-Serif" font-size="10.00" fill="grey">originalRef</text>
</g>
<!-- Node3 -->
<g id="Node000003" class="node">
<title>Node3</title>
<g id="a_Node000003"><a xlink:href="structnix_1_1fetchers_1_1Input.html" target="_top" xlink:title=" ">
<polygon fill="white" stroke="#666666" points="107.5,-185.25 0,-185.25 0,-164.5 107.5,-164.5 107.5,-185.25"/>
<text text-anchor="middle" x="53.75" y="-171.75" font-family="Helvetica,sans-Serif" font-size="10.00">nix::fetchers::Input</text>
</a>
</g>
</g>
<!-- Node3&#45;&gt;Node2 -->
<g id="edge2_Node000002_Node000003" class="edge">
<title>Node3&#45;&gt;Node2</title>
<g id="a_edge2_Node000002_Node000003"><a xlink:title=" ">
<path fill="none" stroke="#9a32cd" stroke-dasharray="5,2" d="M66.91,-154.97C75.73,-142.3 86.98,-126.15 94.03,-116.03"/>
<polygon fill="#9a32cd" stroke="#9a32cd" points="64.19,-152.76 61.35,-162.96 69.94,-156.76 64.19,-152.76"/>
</a>
</g>
<text text-anchor="middle" x="95.33" y="-137" font-family="Helvetica,sans-Serif" font-size="10.00" fill="grey"> input</text>
</g>
<!-- Node4 -->
<g id="Node000004" class="node">
<title>Node4</title>
<g id="a_Node000004"><a xlink:title=" ">
<polygon fill="white" stroke="#bfbfbf" points="169.62,-185.25 125.88,-185.25 125.88,-164.5 169.62,-164.5 169.62,-185.25"/>
<text text-anchor="middle" x="147.75" y="-171.75" font-family="Helvetica,sans-Serif" font-size="10.00">string</text>
</a>
</g>
</g>
<!-- Node4&#45;&gt;Node2 -->
<g id="edge3_Node000002_Node000004" class="edge">
<title>Node4&#45;&gt;Node2</title>
<g id="a_edge3_Node000002_Node000004"><a xlink:title=" ">
<path fill="none" stroke="#9a32cd" stroke-dasharray="5,2" d="M134.59,-154.97C125.77,-142.3 114.52,-126.15 107.47,-116.03"/>
<polygon fill="#9a32cd" stroke="#9a32cd" points="131.56,-156.76 140.15,-162.96 137.31,-152.76 131.56,-156.76"/>
</a>
</g>
<text text-anchor="middle" x="144.96" y="-137" font-family="Helvetica,sans-Serif" font-size="10.00" fill="grey"> subdir</text>
</g>
</g>
</svg>
