<?xml version="1.0" encoding="UTF-8" standalone="no"?>
<!DOCTYPE svg PUBLIC "-//W3C//DTD SVG 1.1//EN"
 "http://www.w3.org/Graphics/SVG/1.1/DTD/svg11.dtd">
<!-- Generated by graphviz version 12.2.1 (0)
 -->
<!-- Title: nix::Common Pages: 1 -->
<svg width="376pt" height="483pt"
 viewBox="0.00 0.00 376.00 482.75" xmlns="http://www.w3.org/2000/svg" xmlns:xlink="http://www.w3.org/1999/xlink">
<g id="graph0" class="graph" transform="scale(1 1) rotate(0) translate(4 478.75)">
<title>nix::Common</title>
<!-- Node1 -->
<g id="Node000001" class="node">
<title>Node1</title>
<g id="a_Node000001"><a xlink:title=" ">
<polygon fill="#999999" stroke="#666666" points="154.62,-77.5 73.38,-77.5 73.38,-56.75 154.62,-56.75 154.62,-77.5"/>
<text text-anchor="middle" x="114" y="-64" font-family="Helvetica,sans-Serif" font-size="10.00">nix::Common</text>
</a>
</g>
</g>
<!-- Node12 -->
<g id="Node000012" class="node">
<title>Node12</title>
<g id="a_Node000012"><a xlink:href="structnix_1_1CmdDevelop.html" target="_top" xlink:title=" ">
<polygon fill="white" stroke="#bfbfbf" points="100,-20.75 0,-20.75 0,0 100,0 100,-20.75"/>
<text text-anchor="middle" x="50" y="-7.25" font-family="Helvetica,sans-Serif" font-size="10.00">nix::CmdDevelop</text>
</a>
</g>
</g>
<!-- Node1&#45;&gt;Node12 -->
<g id="edge17_Node000001_Node000012" class="edge">
<title>Node1&#45;&gt;Node12</title>
<g id="a_edge17_Node000001_Node000012"><a xlink:title=" ">
<path fill="none" stroke="#63b8ff" d="M93.82,-48.86C83.1,-39.69 70.33,-28.76 61.34,-21.08"/>
<polygon fill="#63b8ff" stroke="#63b8ff" points="91.53,-51.51 101.41,-55.35 96.08,-46.19 91.53,-51.51"/>
</a>
</g>
</g>
<!-- Node13 -->
<g id="Node000013" class="node">
<title>Node13</title>
<g id="a_Node000013"><a xlink:href="structnix_1_1CmdPrintDevEnv.html" target="_top" xlink:title=" ">
<polygon fill="white" stroke="#bfbfbf" points="237.75,-20.75 118.25,-20.75 118.25,0 237.75,0 237.75,-20.75"/>
<text text-anchor="middle" x="178" y="-7.25" font-family="Helvetica,sans-Serif" font-size="10.00">nix::CmdPrintDevEnv</text>
</a>
</g>
</g>
<!-- Node1&#45;&gt;Node13 -->
<g id="edge18_Node000001_Node000013" class="edge">
<title>Node1&#45;&gt;Node13</title>
<g id="a_edge18_Node000001_Node000013"><a xlink:title=" ">
<path fill="none" stroke="#63b8ff" d="M134.18,-48.86C144.9,-39.69 157.67,-28.76 166.66,-21.08"/>
<polygon fill="#63b8ff" stroke="#63b8ff" points="131.92,-46.19 126.59,-55.35 136.47,-51.51 131.92,-46.19"/>
</a>
</g>
</g>
<!-- Node2 -->
<g id="Node000002" class="node">
<title>Node2</title>
<g id="a_Node000002"><a xlink:href="structnix_1_1InstallableCommand.html" target="_top" xlink:title=" ">
<polygon fill="white" stroke="#666666" points="232.12,-134.25 93.88,-134.25 93.88,-113.5 232.12,-113.5 232.12,-134.25"/>
<text text-anchor="middle" x="163" y="-120.75" font-family="Helvetica,sans-Serif" font-size="10.00">nix::InstallableCommand</text>
</a>
</g>
</g>
<!-- Node2&#45;&gt;Node1 -->
<g id="edge1_Node000001_Node000002" class="edge">
<title>Node2&#45;&gt;Node1</title>
<g id="a_edge1_Node000001_Node000002"><a xlink:title=" ">
<path fill="none" stroke="#63b8ff" d="M146.8,-104.77C138.75,-95.78 129.35,-85.28 122.68,-77.83"/>
<polygon fill="#63b8ff" stroke="#63b8ff" points="143.95,-106.84 153.23,-111.96 149.17,-102.17 143.95,-106.84"/>
</a>
</g>
</g>
<!-- Node3 -->
<g id="Node000003" class="node">
<title>Node3</title>
<g id="a_Node000003"><a xlink:href="classnix_1_1Args.html" target="_top" xlink:title=" ">
<polygon fill="white" stroke="#bfbfbf" points="252.38,-474.75 193.62,-474.75 193.62,-454 252.38,-454 252.38,-474.75"/>
<text text-anchor="middle" x="223" y="-461.25" font-family="Helvetica,sans-Serif" font-size="10.00">nix::Args</text>
</a>
</g>
</g>
<!-- Node3&#45;&gt;Node2 -->
<g id="edge2_Node000002_Node000003" class="edge">
<title>Node3&#45;&gt;Node2</title>
<g id="a_edge2_Node000002_Node000003"><a xlink:title=" ">
<path fill="none" stroke="#63b8ff" d="M202.37,-446.05C180.79,-425.87 150,-390.34 150,-351.88 150,-351.88 150,-351.88 150,-236.38 150,-198.57 157.47,-154.03 161.08,-134.67"/>
<polygon fill="#63b8ff" stroke="#63b8ff" points="200.03,-448.66 209.82,-452.72 204.7,-443.44 200.03,-448.66"/>
</a>
</g>
</g>
<!-- Node4 -->
<g id="Node000004" class="node">
<title>Node4</title>
<g id="a_Node000004"><a xlink:href="structnix_1_1SourceExprCommand.html" target="_top" xlink:title=" ">
<polygon fill="white" stroke="#bfbfbf" points="336,-191 194,-191 194,-170.25 336,-170.25 336,-191"/>
<text text-anchor="middle" x="265" y="-177.5" font-family="Helvetica,sans-Serif" font-size="10.00">nix::SourceExprCommand</text>
</a>
</g>
</g>
<!-- Node3&#45;&gt;Node4 -->
<g id="edge4_Node000004_Node000003" class="edge">
<title>Node3&#45;&gt;Node4</title>
<g id="a_edge4_Node000004_Node000003"><a xlink:title=" ">
<path fill="none" stroke="#63b8ff" d="M263.59,-455.14C287.41,-448.53 316.72,-437.1 337,-418 360.62,-395.74 368,-384.33 368,-351.88 368,-351.88 368,-351.88 368,-293.12 368,-244.37 314.21,-207.85 284.37,-191.35"/>
<polygon fill="#63b8ff" stroke="#63b8ff" points="263.02,-451.67 254.2,-457.55 264.76,-458.45 263.02,-451.67"/>
</a>
</g>
</g>
<!-- Node5 -->
<g id="Node000005" class="node">
<title>Node5</title>
<g id="a_Node000005"><a xlink:href="structnix_1_1MixFlakeOptions.html" target="_top" xlink:title=" ">
<polygon fill="white" stroke="#666666" points="324.38,-247.75 205.62,-247.75 205.62,-227 324.38,-227 324.38,-247.75"/>
<text text-anchor="middle" x="265" y="-234.25" font-family="Helvetica,sans-Serif" font-size="10.00">nix::MixFlakeOptions</text>
</a>
</g>
</g>
<!-- Node3&#45;&gt;Node5 -->
<g id="edge6_Node000005_Node000003" class="edge">
<title>Node3&#45;&gt;Node5</title>
<g id="a_edge6_Node000005_Node000003"><a xlink:title=" ">
<path fill="none" stroke="#63b8ff" d="M263.51,-452.92C281.33,-446.08 300.55,-435.14 311,-418 324.13,-396.45 363.7,-434.07 303,-283.75 297.23,-269.46 285.17,-256.34 276.18,-247.92"/>
<polygon fill="#63b8ff" stroke="#63b8ff" points="262.42,-449.59 254.11,-456.17 264.71,-456.21 262.42,-449.59"/>
</a>
</g>
</g>
<!-- Node8 -->
<g id="Node000008" class="node">
<title>Node8</title>
<g id="a_Node000008"><a xlink:href="structnix_1_1Command.html" target="_top" xlink:title=" ">
<polygon fill="white" stroke="#666666" points="115.62,-418 28.38,-418 28.38,-397.25 115.62,-397.25 115.62,-418"/>
<text text-anchor="middle" x="72" y="-404.5" font-family="Helvetica,sans-Serif" font-size="10.00">nix::Command</text>
</a>
</g>
</g>
<!-- Node3&#45;&gt;Node8 -->
<g id="edge10_Node000008_Node000003" class="edge">
<title>Node3&#45;&gt;Node8</title>
<g id="a_edge10_Node000008_Node000003"><a xlink:title=" ">
<path fill="none" stroke="#63b8ff" d="M185.45,-449.76C158.61,-440.03 123.1,-427.15 99.02,-418.42"/>
<polygon fill="#63b8ff" stroke="#63b8ff" points="183.99,-452.95 194.58,-453.07 186.37,-446.37 183.99,-452.95"/>
</a>
</g>
</g>
<!-- Node9 -->
<g id="Node000009" class="node">
<title>Node9</title>
<g id="a_Node000009"><a xlink:href="structnix_1_1MixEvalArgs.html" target="_top" xlink:title=" ">
<polygon fill="white" stroke="#bfbfbf" points="288.88,-361.25 191.12,-361.25 191.12,-340.5 288.88,-340.5 288.88,-361.25"/>
<text text-anchor="middle" x="240" y="-347.75" font-family="Helvetica,sans-Serif" font-size="10.00">nix::MixEvalArgs</text>
</a>
</g>
</g>
<!-- Node3&#45;&gt;Node9 -->
<g id="edge12_Node000009_Node000003" class="edge">
<title>Node3&#45;&gt;Node9</title>
<g id="a_edge12_Node000009_Node000003"><a xlink:title=" ">
<path fill="none" stroke="#63b8ff" d="M212.49,-443.51C206.87,-430.27 202.03,-412.54 207,-397.25 211.52,-383.36 222.07,-370.17 230.04,-361.62"/>
<polygon fill="#63b8ff" stroke="#63b8ff" points="209.29,-444.94 216.75,-452.46 215.61,-441.93 209.29,-444.94"/>
</a>
</g>
</g>
<!-- Node10 -->
<g id="Node000010" class="node">
<title>Node10</title>
<g id="a_Node000010"><a xlink:href="structnix_1_1MixRepair.html" target="_top" xlink:title=" ">
<polygon fill="white" stroke="#bfbfbf" points="302.25,-418 215.75,-418 215.75,-397.25 302.25,-397.25 302.25,-418"/>
<text text-anchor="middle" x="259" y="-404.5" font-family="Helvetica,sans-Serif" font-size="10.00">nix::MixRepair</text>
</a>
</g>
</g>
<!-- Node3&#45;&gt;Node10 -->
<g id="edge14_Node000010_Node000003" class="edge">
<title>Node3&#45;&gt;Node10</title>
<g id="a_edge14_Node000010_Node000003"><a xlink:title=" ">
<path fill="none" stroke="#63b8ff" d="M235.65,-444.14C241.39,-435.41 247.92,-425.47 252.62,-418.33"/>
<polygon fill="#63b8ff" stroke="#63b8ff" points="232.84,-442.04 230.27,-452.32 238.69,-445.89 232.84,-442.04"/>
</a>
</g>
</g>
<!-- Node4&#45;&gt;Node2 -->
<g id="edge3_Node000002_Node000004" class="edge">
<title>Node4&#45;&gt;Node2</title>
<g id="a_edge3_Node000002_Node000004"><a xlink:title=" ">
<path fill="none" stroke="#63b8ff" d="M236.65,-164.41C218.87,-154.86 196.48,-142.84 181.08,-134.58"/>
<polygon fill="#63b8ff" stroke="#63b8ff" points="234.96,-167.48 245.43,-169.12 238.28,-161.31 234.96,-167.48"/>
</a>
</g>
</g>
<!-- Node5&#45;&gt;Node4 -->
<g id="edge5_Node000004_Node000005" class="edge">
<title>Node5&#45;&gt;Node4</title>
<g id="a_edge5_Node000004_Node000005"><a xlink:title=" ">
<path fill="none" stroke="#63b8ff" d="M265,-215.13C265,-206.91 265,-197.93 265,-191.33"/>
<polygon fill="#63b8ff" stroke="#63b8ff" points="261.5,-215.07 265,-225.07 268.5,-215.07 261.5,-215.07"/>
</a>
</g>
</g>
<!-- Node6 -->
<g id="Node000006" class="node">
<title>Node6</title>
<g id="a_Node000006"><a xlink:href="structnix_1_1EvalCommand.html" target="_top" xlink:title=" ">
<polygon fill="white" stroke="#666666" points="294.12,-304.5 185.88,-304.5 185.88,-283.75 294.12,-283.75 294.12,-304.5"/>
<text text-anchor="middle" x="240" y="-291" font-family="Helvetica,sans-Serif" font-size="10.00">nix::EvalCommand</text>
</a>
</g>
</g>
<!-- Node6&#45;&gt;Node5 -->
<g id="edge7_Node000005_Node000006" class="edge">
<title>Node6&#45;&gt;Node5</title>
<g id="a_edge7_Node000005_Node000006"><a xlink:title=" ">
<path fill="none" stroke="#63b8ff" d="M249.17,-273.03C253.06,-264.52 257.41,-254.99 260.57,-248.08"/>
<polygon fill="#63b8ff" stroke="#63b8ff" points="246.07,-271.41 245.1,-281.96 252.44,-274.32 246.07,-271.41"/>
</a>
</g>
</g>
<!-- Node7 -->
<g id="Node000007" class="node">
<title>Node7</title>
<g id="a_Node000007"><a xlink:href="structnix_1_1StoreCommand.html" target="_top" xlink:title=" ">
<polygon fill="white" stroke="#666666" points="122.38,-361.25 9.62,-361.25 9.62,-340.5 122.38,-340.5 122.38,-361.25"/>
<text text-anchor="middle" x="66" y="-347.75" font-family="Helvetica,sans-Serif" font-size="10.00">nix::StoreCommand</text>
</a>
</g>
</g>
<!-- Node7&#45;&gt;Node6 -->
<g id="edge8_Node000006_Node000007" class="edge">
<title>Node7&#45;&gt;Node6</title>
<g id="a_edge8_Node000006_Node000007"><a xlink:title=" ">
<path fill="none" stroke="#63b8ff" d="M108.03,-336.65C139.11,-326.87 180.74,-313.77 208.87,-304.92"/>
<polygon fill="#63b8ff" stroke="#63b8ff" points="107.04,-333.29 98.55,-339.63 109.14,-339.97 107.04,-333.29"/>
</a>
</g>
</g>
<!-- Node11 -->
<g id="Node000011" class="node">
<title>Node11</title>
<g id="a_Node000011"><a xlink:href="structnix_1_1MixProfile.html" target="_top" xlink:title=" ">
<polygon fill="white" stroke="#bfbfbf" points="108.88,-247.75 23.12,-247.75 23.12,-227 108.88,-227 108.88,-247.75"/>
<text text-anchor="middle" x="66" y="-234.25" font-family="Helvetica,sans-Serif" font-size="10.00">nix::MixProfile</text>
</a>
</g>
</g>
<!-- Node7&#45;&gt;Node11 -->
<g id="edge16_Node000011_Node000007" class="edge">
<title>Node7&#45;&gt;Node11</title>
<g id="a_edge16_Node000011_Node000007"><a xlink:title=" ">
<path fill="none" stroke="#63b8ff" d="M66,-328.97C66,-304.84 66,-266.17 66,-248.18"/>
<polygon fill="#63b8ff" stroke="#63b8ff" points="62.5,-328.85 66,-338.86 69.5,-328.86 62.5,-328.85"/>
</a>
</g>
</g>
<!-- Node8&#45;&gt;Node7 -->
<g id="edge9_Node000007_Node000008" class="edge">
<title>Node8&#45;&gt;Node7</title>
<g id="a_edge9_Node000007_Node000008"><a xlink:title=" ">
<path fill="none" stroke="#63b8ff" d="M69.7,-385.67C68.79,-377.38 67.79,-368.25 67.06,-361.58"/>
<polygon fill="#63b8ff" stroke="#63b8ff" points="66.19,-385.77 70.76,-395.33 73.15,-385.01 66.19,-385.77"/>
</a>
</g>
</g>
<!-- Node9&#45;&gt;Node6 -->
<g id="edge11_Node000006_Node000009" class="edge">
<title>Node9&#45;&gt;Node6</title>
<g id="a_edge11_Node000006_Node000009"><a xlink:title=" ">
<path fill="none" stroke="#63b8ff" d="M240,-328.63C240,-320.41 240,-311.43 240,-304.83"/>
<polygon fill="#63b8ff" stroke="#63b8ff" points="236.5,-328.57 240,-338.57 243.5,-328.57 236.5,-328.57"/>
</a>
</g>
</g>
<!-- Node10&#45;&gt;Node9 -->
<g id="edge13_Node000009_Node000010" class="edge">
<title>Node10&#45;&gt;Node9</title>
<g id="a_edge13_Node000009_Node000010"><a xlink:title=" ">
<path fill="none" stroke="#63b8ff" d="M251.93,-386.24C249,-377.8 245.74,-368.41 243.37,-361.58"/>
<polygon fill="#63b8ff" stroke="#63b8ff" points="248.52,-387.11 255.11,-395.41 255.13,-384.81 248.52,-387.11"/>
</a>
</g>
</g>
<!-- Node11&#45;&gt;Node1 -->
<g id="edge15_Node000001_Node000011" class="edge">
<title>Node11&#45;&gt;Node1</title>
<g id="a_edge15_Node000001_Node000011"><a xlink:title=" ">
<path fill="none" stroke="#63b8ff" d="M66.62,-215.48C67.94,-190.48 72.08,-147.72 85,-113.5 90.02,-100.21 99.3,-86.7 106.02,-77.92"/>
<polygon fill="#63b8ff" stroke="#63b8ff" points="63.13,-215.14 66.21,-225.28 70.12,-215.43 63.13,-215.14"/>
</a>
</g>
</g>
</g>
</svg>
