<?xml version="1.0" encoding="UTF-8" standalone="no"?>
<!DOCTYPE svg PUBLIC "-//W3C//DTD SVG 1.1//EN"
 "http://www.w3.org/Graphics/SVG/1.1/DTD/svg11.dtd">
<!-- Generated by graphviz version 12.2.1 (0)
 -->
<!-- Title: nix::daemon::TunnelLogger Pages: 1 -->
<svg width="316pt" height="227pt"
 viewBox="0.00 0.00 316.12 226.50" xmlns="http://www.w3.org/2000/svg" xmlns:xlink="http://www.w3.org/1999/xlink">
<g id="graph0" class="graph" transform="scale(1 1) rotate(0) translate(4 222.5)">
<title>nix::daemon::TunnelLogger</title>
<!-- Node1 -->
<g id="Node000001" class="node">
<title>Node1</title>
<g id="a_Node000001"><a xlink:title=" ">
<polygon fill="#999999" stroke="#666666" points="196.62,-20.75 49.38,-20.75 49.38,0 196.62,0 196.62,-20.75"/>
<text text-anchor="middle" x="123" y="-7.25" font-family="Helvetica,sans-Serif" font-size="10.00">nix::daemon::TunnelLogger</text>
</a>
</g>
</g>
<!-- Node2 -->
<g id="Node000002" class="node">
<title>Node2</title>
<g id="a_Node000002"><a xlink:href="classnix_1_1Logger.html" target="_top" xlink:title=" ">
<polygon fill="white" stroke="#bfbfbf" points="70,-96.62 0,-96.62 0,-75.88 70,-75.88 70,-96.62"/>
<text text-anchor="middle" x="35" y="-83.12" font-family="Helvetica,sans-Serif" font-size="10.00">nix::Logger</text>
</a>
</g>
</g>
<!-- Node2&#45;&gt;Node1 -->
<g id="edge1_Node000001_Node000002" class="edge">
<title>Node2&#45;&gt;Node1</title>
<g id="a_edge1_Node000001_Node000002"><a xlink:title=" ">
<path fill="none" stroke="#63b8ff" d="M54.87,-68.57C72.33,-53.91 97.13,-33.09 111.49,-21.04"/>
<polygon fill="#63b8ff" stroke="#63b8ff" points="53.07,-65.51 47.66,-74.62 57.57,-70.87 53.07,-65.51"/>
</a>
</g>
</g>
<!-- Node3 -->
<g id="Node000003" class="node">
<title>Node3</title>
<g id="a_Node000003"><a xlink:href="structnix_1_1FdSink.html" target="_top" xlink:title=" ">
<polygon fill="white" stroke="#666666" points="158,-96.62 88,-96.62 88,-75.88 158,-75.88 158,-96.62"/>
<text text-anchor="middle" x="123" y="-83.12" font-family="Helvetica,sans-Serif" font-size="10.00">nix::FdSink</text>
</a>
</g>
</g>
<!-- Node3&#45;&gt;Node1 -->
<g id="edge2_Node000001_Node000003" class="edge">
<title>Node3&#45;&gt;Node1</title>
<g id="a_edge2_Node000001_Node000003"><a xlink:title=" ">
<path fill="none" stroke="#9a32cd" stroke-dasharray="5,2" d="M123,-64.32C123,-50 123,-31.71 123,-20.8"/>
<polygon fill="#9a32cd" stroke="#9a32cd" points="119.5,-64.08 123,-74.08 126.5,-64.08 119.5,-64.08"/>
</a>
</g>
<text text-anchor="middle" x="129.38" y="-42" font-family="Helvetica,sans-Serif" font-size="10.00" fill="grey"> to</text>
</g>
<!-- Node4 -->
<g id="Node000004" class="node">
<title>Node4</title>
<g id="a_Node000004"><a xlink:href="structnix_1_1BufferedSink.html" target="_top" xlink:title=" ">
<polygon fill="white" stroke="#666666" points="172.62,-160.75 73.38,-160.75 73.38,-140 172.62,-140 172.62,-160.75"/>
<text text-anchor="middle" x="123" y="-147.25" font-family="Helvetica,sans-Serif" font-size="10.00">nix::BufferedSink</text>
</a>
</g>
</g>
<!-- Node4&#45;&gt;Node3 -->
<g id="edge3_Node000003_Node000004" class="edge">
<title>Node4&#45;&gt;Node3</title>
<g id="a_edge3_Node000003_Node000004"><a xlink:title=" ">
<path fill="none" stroke="#63b8ff" d="M123,-128.39C123,-117.81 123,-105.48 123,-97.09"/>
<polygon fill="#63b8ff" stroke="#63b8ff" points="119.5,-128.15 123,-138.15 126.5,-128.15 119.5,-128.15"/>
</a>
</g>
</g>
<!-- Node5 -->
<g id="Node000005" class="node">
<title>Node5</title>
<g id="a_Node000005"><a xlink:href="structnix_1_1Sink.html" target="_top" xlink:title=" ">
<polygon fill="white" stroke="#666666" points="152,-218.5 94,-218.5 94,-197.75 152,-197.75 152,-218.5"/>
<text text-anchor="middle" x="123" y="-205" font-family="Helvetica,sans-Serif" font-size="10.00">nix::Sink</text>
</a>
</g>
</g>
<!-- Node5&#45;&gt;Node4 -->
<g id="edge4_Node000004_Node000005" class="edge">
<title>Node5&#45;&gt;Node4</title>
<g id="a_edge4_Node000004_Node000005"><a xlink:title=" ">
<path fill="none" stroke="#63b8ff" d="M123,-186.18C123,-177.52 123,-167.9 123,-160.97"/>
<polygon fill="#63b8ff" stroke="#63b8ff" points="119.5,-185.9 123,-195.9 126.5,-185.9 119.5,-185.9"/>
</a>
</g>
</g>
<!-- Node6 -->
<g id="Node000006" class="node">
<title>Node6</title>
<g id="a_Node000006"><a xlink:href="classnix_1_1Sync.html" target="_top" xlink:title=" ">
<polygon fill="white" stroke="#666666" points="308.12,-103 175.88,-103 175.88,-69.5 308.12,-69.5 308.12,-103"/>
<text text-anchor="start" x="183.88" y="-89.5" font-family="Helvetica,sans-Serif" font-size="10.00">nix::Sync&lt; nix::daemon</text>
<text text-anchor="middle" x="242" y="-76.75" font-family="Helvetica,sans-Serif" font-size="10.00">::TunnelLogger::State &gt;</text>
</a>
</g>
</g>
<!-- Node6&#45;&gt;Node1 -->
<g id="edge5_Node000001_Node000006" class="edge">
<title>Node6&#45;&gt;Node1</title>
<g id="a_edge5_Node000001_Node000006"><a xlink:title=" ">
<path fill="none" stroke="#9a32cd" stroke-dasharray="5,2" d="M206.32,-63.1C183.86,-49.16 155.97,-31.85 138.84,-21.21"/>
<polygon fill="#9a32cd" stroke="#9a32cd" points="204.26,-65.94 214.6,-68.24 207.95,-59.99 204.26,-65.94"/>
</a>
</g>
<text text-anchor="middle" x="202.57" y="-42" font-family="Helvetica,sans-Serif" font-size="10.00" fill="grey"> state_</text>
</g>
</g>
</svg>
