<?xml version="1.0" encoding="UTF-8" standalone="no"?>
<!DOCTYPE svg PUBLIC "-//W3C//DTD SVG 1.1//EN"
 "http://www.w3.org/Graphics/SVG/1.1/DTD/svg11.dtd">
<!-- Generated by graphviz version 12.2.1 (0)
 -->
<!-- Title: nix::CmdAddToStore Pages: 1 -->
<svg width="374pt" height="234pt"
 viewBox="0.00 0.00 374.38 233.50" xmlns="http://www.w3.org/2000/svg" xmlns:xlink="http://www.w3.org/1999/xlink">
<g id="graph0" class="graph" transform="scale(1 1) rotate(0) translate(4 229.5)">
<title>nix::CmdAddToStore</title>
<!-- Node1 -->
<g id="Node000001" class="node">
<title>Node1</title>
<g id="a_Node000001"><a xlink:title=" ">
<polygon fill="#999999" stroke="#666666" points="305.62,-20.75 191.38,-20.75 191.38,0 305.62,0 305.62,-20.75"/>
<text text-anchor="middle" x="248.5" y="-7.25" font-family="Helvetica,sans-Serif" font-size="10.00">nix::CmdAddToStore</text>
</a>
</g>
</g>
<!-- Node2 -->
<g id="Node000002" class="node">
<title>Node2</title>
<g id="a_Node000002"><a xlink:href="structnix_1_1MixDryRun.html" target="_top" xlink:title=" ">
<polygon fill="white" stroke="#bfbfbf" points="91,-129 0,-129 0,-108.25 91,-108.25 91,-129"/>
<text text-anchor="middle" x="45.5" y="-115.5" font-family="Helvetica,sans-Serif" font-size="10.00">nix::MixDryRun</text>
</a>
</g>
</g>
<!-- Node2&#45;&gt;Node1 -->
<g id="edge1_Node000001_Node000002" class="edge">
<title>Node2&#45;&gt;Node1</title>
<g id="a_edge1_Node000001_Node000002"><a xlink:title=" ">
<path fill="none" stroke="#63b8ff" d="M44.24,-96.66C44.77,-87.33 47.03,-76.83 53.5,-69.5 87.86,-30.56 147.05,-17.17 191.23,-12.84"/>
<polygon fill="#63b8ff" stroke="#63b8ff" points="40.73,-96.39 44.31,-106.36 47.73,-96.33 40.73,-96.39"/>
</a>
</g>
</g>
<!-- Node3 -->
<g id="Node000003" class="node">
<title>Node3</title>
<g id="a_Node000003"><a xlink:href="classnix_1_1Args.html" target="_top" xlink:title=" ">
<polygon fill="white" stroke="#bfbfbf" points="141.88,-225.5 83.12,-225.5 83.12,-204.75 141.88,-204.75 141.88,-225.5"/>
<text text-anchor="middle" x="112.5" y="-212" font-family="Helvetica,sans-Serif" font-size="10.00">nix::Args</text>
</a>
</g>
</g>
<!-- Node3&#45;&gt;Node2 -->
<g id="edge2_Node000002_Node000003" class="edge">
<title>Node3&#45;&gt;Node2</title>
<g id="a_edge2_Node000002_Node000003"><a xlink:title=" ">
<path fill="none" stroke="#63b8ff" d="M99,-195.08C84.94,-175.25 63.45,-144.95 52.48,-129.47"/>
<polygon fill="#63b8ff" stroke="#63b8ff" points="96.07,-197 104.71,-203.13 101.78,-192.95 96.07,-197"/>
</a>
</g>
</g>
<!-- Node5 -->
<g id="Node000005" class="node">
<title>Node5</title>
<g id="a_Node000005"><a xlink:href="structnix_1_1Command.html" target="_top" xlink:title=" ">
<polygon fill="white" stroke="#666666" points="252.12,-167.75 164.88,-167.75 164.88,-147 252.12,-147 252.12,-167.75"/>
<text text-anchor="middle" x="208.5" y="-154.25" font-family="Helvetica,sans-Serif" font-size="10.00">nix::Command</text>
</a>
</g>
</g>
<!-- Node3&#45;&gt;Node5 -->
<g id="edge5_Node000005_Node000003" class="edge">
<title>Node3&#45;&gt;Node5</title>
<g id="a_edge5_Node000005_Node000003"><a xlink:title=" ">
<path fill="none" stroke="#63b8ff" d="M139.02,-198.72C155.85,-188.95 177.1,-176.61 191.65,-168.16"/>
<polygon fill="#63b8ff" stroke="#63b8ff" points="137.42,-195.61 130.53,-203.65 140.94,-201.66 137.42,-195.61"/>
</a>
</g>
</g>
<!-- Node4 -->
<g id="Node000004" class="node">
<title>Node4</title>
<g id="a_Node000004"><a xlink:href="classnix_1_1MultiCommand.html" target="_top" xlink:title=" ">
<polygon fill="white" stroke="#666666" points="174.5,-90.25 62.5,-90.25 62.5,-69.5 174.5,-69.5 174.5,-90.25"/>
<text text-anchor="middle" x="118.5" y="-76.75" font-family="Helvetica,sans-Serif" font-size="10.00">nix::MultiCommand</text>
</a>
</g>
</g>
<!-- Node4&#45;&gt;Node3 -->
<g id="edge3_Node000003_Node000004" class="edge">
<title>Node4&#45;&gt;Node3</title>
<g id="a_edge3_Node000003_Node000004"><a xlink:title=" ">
<path fill="none" stroke="#9a32cd" stroke-dasharray="5,2" d="M117.54,-102.12C116.22,-131.48 113.89,-183.23 112.93,-204.54"/>
<polygon fill="#9a32cd" stroke="#9a32cd" points="121.03,-102.39 117.99,-92.24 114.04,-102.08 121.03,-102.39"/>
</a>
</g>
<text text-anchor="middle" x="132.75" y="-154.25" font-family="Helvetica,sans-Serif" font-size="10.00" fill="grey"> parent</text>
</g>
<!-- Node5&#45;&gt;Node4 -->
<g id="edge4_Node000004_Node000005" class="edge">
<title>Node5&#45;&gt;Node4</title>
<g id="a_edge4_Node000004_Node000005"><a xlink:title=" ">
<path fill="none" stroke="#63b8ff" d="M188.18,-139.33C170.32,-124.35 144.96,-103.07 130.27,-90.75"/>
<polygon fill="#63b8ff" stroke="#63b8ff" points="185.66,-141.79 195.57,-145.53 190.16,-136.42 185.66,-141.79"/>
</a>
</g>
</g>
<!-- Node6 -->
<g id="Node000006" class="node">
<title>Node6</title>
<g id="a_Node000006"><a xlink:href="structnix_1_1StoreCommand.html" target="_top" xlink:title=" ">
<polygon fill="white" stroke="#666666" points="304.88,-90.25 192.12,-90.25 192.12,-69.5 304.88,-69.5 304.88,-90.25"/>
<text text-anchor="middle" x="248.5" y="-76.75" font-family="Helvetica,sans-Serif" font-size="10.00">nix::StoreCommand</text>
</a>
</g>
</g>
<!-- Node5&#45;&gt;Node6 -->
<g id="edge7_Node000006_Node000005" class="edge">
<title>Node5&#45;&gt;Node6</title>
<g id="a_edge7_Node000006_Node000005"><a xlink:title=" ">
<path fill="none" stroke="#63b8ff" d="M218.9,-136.74C226.78,-121.88 237.25,-102.11 243.4,-90.51"/>
<polygon fill="#63b8ff" stroke="#63b8ff" points="216.03,-134.69 214.44,-145.17 222.21,-137.97 216.03,-134.69"/>
</a>
</g>
</g>
<!-- Node6&#45;&gt;Node1 -->
<g id="edge6_Node000001_Node000006" class="edge">
<title>Node6&#45;&gt;Node1</title>
<g id="a_edge6_Node000001_Node000006"><a xlink:title=" ">
<path fill="none" stroke="#63b8ff" d="M248.5,-58.07C248.5,-45.72 248.5,-30.65 248.5,-21.03"/>
<polygon fill="#63b8ff" stroke="#63b8ff" points="245,-57.69 248.5,-67.69 252,-57.69 245,-57.69"/>
</a>
</g>
</g>
<!-- Node7 -->
<g id="Node000007" class="node">
<title>Node7</title>
<g id="a_Node000007"><a xlink:title=" ">
<polygon fill="white" stroke="#bfbfbf" points="366.38,-90.25 322.62,-90.25 322.62,-69.5 366.38,-69.5 366.38,-90.25"/>
<text text-anchor="middle" x="344.5" y="-76.75" font-family="Helvetica,sans-Serif" font-size="10.00">string</text>
</a>
</g>
</g>
<!-- Node7&#45;&gt;Node1 -->
<g id="edge8_Node000001_Node000007" class="edge">
<title>Node7&#45;&gt;Node1</title>
<g id="a_edge8_Node000001_Node000007"><a xlink:title=" ">
<path fill="none" stroke="#9a32cd" stroke-dasharray="5,2" d="M321.35,-62.59C303,-49.7 277.97,-32.1 262.54,-21.25"/>
<polygon fill="#9a32cd" stroke="#9a32cd" points="319.31,-65.44 329.51,-68.33 323.34,-59.72 319.31,-65.44"/>
</a>
</g>
<text text-anchor="middle" x="317.47" y="-42" font-family="Helvetica,sans-Serif" font-size="10.00" fill="grey"> path</text>
</g>
</g>
</svg>
