<?xml version="1.0" encoding="UTF-8" standalone="no"?>
<!DOCTYPE svg PUBLIC "-//W3C//DTD SVG 1.1//EN"
 "http://www.w3.org/Graphics/SVG/1.1/DTD/svg11.dtd">
<!-- Generated by graphviz version 12.2.1 (0)
 -->
<!-- Title: nix::MixFlakeOptions Pages: 1 -->
<svg width="467pt" height="283pt"
 viewBox="0.00 0.00 467.00 283.25" xmlns="http://www.w3.org/2000/svg" xmlns:xlink="http://www.w3.org/1999/xlink">
<g id="graph0" class="graph" transform="scale(1 1) rotate(0) translate(4 279.25)">
<title>nix::MixFlakeOptions</title>
<!-- Node1 -->
<g id="Node000001" class="node">
<title>Node1</title>
<g id="a_Node000001"><a xlink:title=" ">
<polygon fill="#999999" stroke="#666666" points="207.38,-20.75 88.62,-20.75 88.62,0 207.38,0 207.38,-20.75"/>
<text text-anchor="middle" x="148" y="-7.25" font-family="Helvetica,sans-Serif" font-size="10.00">nix::MixFlakeOptions</text>
</a>
</g>
</g>
<!-- Node2 -->
<g id="Node000002" class="node">
<title>Node2</title>
<g id="a_Node000002"><a xlink:href="classnix_1_1Args.html" target="_top" xlink:title=" ">
<polygon fill="white" stroke="#bfbfbf" points="248.38,-275.25 189.62,-275.25 189.62,-254.5 248.38,-254.5 248.38,-275.25"/>
<text text-anchor="middle" x="219" y="-261.75" font-family="Helvetica,sans-Serif" font-size="10.00">nix::Args</text>
</a>
</g>
</g>
<!-- Node2&#45;&gt;Node1 -->
<g id="edge1_Node000001_Node000002" class="edge">
<title>Node2&#45;&gt;Node1</title>
<g id="a_edge1_Node000001_Node000002"><a xlink:title=" ">
<path fill="none" stroke="#63b8ff" d="M178.28,-261.8C114.93,-257.43 0,-244.51 0,-208.12 0,-208.12 0,-208.12 0,-78.88 0,-38.07 47.15,-21.82 88.23,-15.41"/>
<polygon fill="#63b8ff" stroke="#63b8ff" points="177.75,-265.27 187.95,-262.42 178.2,-258.28 177.75,-265.27"/>
</a>
</g>
</g>
<!-- Node4 -->
<g id="Node000004" class="node">
<title>Node4</title>
<g id="a_Node000004"><a xlink:href="structnix_1_1Command.html" target="_top" xlink:title=" ">
<polygon fill="white" stroke="#666666" points="367.62,-217.5 280.38,-217.5 280.38,-196.75 367.62,-196.75 367.62,-217.5"/>
<text text-anchor="middle" x="324" y="-204" font-family="Helvetica,sans-Serif" font-size="10.00">nix::Command</text>
</a>
</g>
</g>
<!-- Node2&#45;&gt;Node4 -->
<g id="edge4_Node000004_Node000002" class="edge">
<title>Node2&#45;&gt;Node4</title>
<g id="a_edge4_Node000004_Node000002"><a xlink:title=" ">
<path fill="none" stroke="#63b8ff" d="M247.23,-248.88C265.75,-239.05 289.44,-226.48 305.57,-217.91"/>
<polygon fill="#63b8ff" stroke="#63b8ff" points="245.82,-245.67 238.63,-253.45 249.1,-251.86 245.82,-245.67"/>
</a>
</g>
</g>
<!-- Node7 -->
<g id="Node000007" class="node">
<title>Node7</title>
<g id="a_Node000007"><a xlink:href="structnix_1_1MixEvalArgs.html" target="_top" xlink:title=" ">
<polygon fill="white" stroke="#bfbfbf" points="196.88,-148 99.12,-148 99.12,-127.25 196.88,-127.25 196.88,-148"/>
<text text-anchor="middle" x="148" y="-134.5" font-family="Helvetica,sans-Serif" font-size="10.00">nix::MixEvalArgs</text>
</a>
</g>
</g>
<!-- Node2&#45;&gt;Node7 -->
<g id="edge9_Node000007_Node000002" class="edge">
<title>Node2&#45;&gt;Node7</title>
<g id="a_edge9_Node000007_Node000002"><a xlink:title=" ">
<path fill="none" stroke="#63b8ff" d="M194.8,-247.43C184.81,-239.48 173.97,-229.14 167,-217.5 153.54,-195.02 149.61,-163.57 148.47,-148.05"/>
<polygon fill="#63b8ff" stroke="#63b8ff" points="192.64,-250.18 202.74,-253.37 196.83,-244.58 192.64,-250.18"/>
</a>
</g>
</g>
<!-- Node8 -->
<g id="Node000008" class="node">
<title>Node8</title>
<g id="a_Node000008"><a xlink:href="structnix_1_1MixRepair.html" target="_top" xlink:title=" ">
<polygon fill="white" stroke="#bfbfbf" points="262.25,-217.5 175.75,-217.5 175.75,-196.75 262.25,-196.75 262.25,-217.5"/>
<text text-anchor="middle" x="219" y="-204" font-family="Helvetica,sans-Serif" font-size="10.00">nix::MixRepair</text>
</a>
</g>
</g>
<!-- Node2&#45;&gt;Node8 -->
<g id="edge11_Node000008_Node000002" class="edge">
<title>Node2&#45;&gt;Node8</title>
<g id="a_edge11_Node000008_Node000002"><a xlink:title=" ">
<path fill="none" stroke="#63b8ff" d="M219,-242.93C219,-234.27 219,-224.65 219,-217.72"/>
<polygon fill="#63b8ff" stroke="#63b8ff" points="215.5,-242.65 219,-252.65 222.5,-242.65 215.5,-242.65"/>
</a>
</g>
</g>
<!-- Node3 -->
<g id="Node000003" class="node">
<title>Node3</title>
<g id="a_Node000003"><a xlink:href="classnix_1_1MultiCommand.html" target="_top" xlink:title=" ">
<polygon fill="white" stroke="#666666" points="459,-148 347,-148 347,-127.25 459,-127.25 459,-148"/>
<text text-anchor="middle" x="403" y="-134.5" font-family="Helvetica,sans-Serif" font-size="10.00">nix::MultiCommand</text>
</a>
</g>
</g>
<!-- Node3&#45;&gt;Node2 -->
<g id="edge2_Node000002_Node000003" class="edge">
<title>Node3&#45;&gt;Node2</title>
<g id="a_edge2_Node000002_Node000003"><a xlink:title=" ">
<path fill="none" stroke="#9a32cd" stroke-dasharray="5,2" d="M401.38,-159.81C398.9,-177.55 392.68,-202.33 377,-217.5 342.07,-251.29 283.86,-260.66 248.69,-263.13"/>
<polygon fill="#9a32cd" stroke="#9a32cd" points="404.86,-160.19 402.43,-149.88 397.89,-159.45 404.86,-160.19"/>
</a>
</g>
<text text-anchor="middle" x="408.23" y="-204" font-family="Helvetica,sans-Serif" font-size="10.00" fill="grey"> parent</text>
</g>
<!-- Node4&#45;&gt;Node3 -->
<g id="edge3_Node000003_Node000004" class="edge">
<title>Node4&#45;&gt;Node3</title>
<g id="a_edge3_Node000003_Node000004"><a xlink:title=" ">
<path fill="none" stroke="#63b8ff" d="M343.9,-189.12C358.91,-176.3 378.98,-159.15 391.45,-148.5"/>
<polygon fill="#63b8ff" stroke="#63b8ff" points="341.8,-186.31 336.47,-195.47 346.35,-191.64 341.8,-186.31"/>
</a>
</g>
</g>
<!-- Node6 -->
<g id="Node000006" class="node">
<title>Node6</title>
<g id="a_Node000006"><a xlink:href="structnix_1_1StoreCommand.html" target="_top" xlink:title=" ">
<polygon fill="white" stroke="#666666" points="328.38,-148 215.62,-148 215.62,-127.25 328.38,-127.25 328.38,-148"/>
<text text-anchor="middle" x="272" y="-134.5" font-family="Helvetica,sans-Serif" font-size="10.00">nix::StoreCommand</text>
</a>
</g>
</g>
<!-- Node4&#45;&gt;Node6 -->
<g id="edge7_Node000006_Node000004" class="edge">
<title>Node4&#45;&gt;Node6</title>
<g id="a_edge7_Node000006_Node000004"><a xlink:title=" ">
<path fill="none" stroke="#63b8ff" d="M309.73,-187.6C299.92,-174.87 287.31,-158.5 279.44,-148.28"/>
<polygon fill="#63b8ff" stroke="#63b8ff" points="306.75,-189.47 315.63,-195.25 312.3,-185.2 306.75,-189.47"/>
</a>
</g>
</g>
<!-- Node5 -->
<g id="Node000005" class="node">
<title>Node5</title>
<g id="a_Node000005"><a xlink:href="structnix_1_1EvalCommand.html" target="_top" xlink:title=" ">
<polygon fill="white" stroke="#666666" points="202.12,-90.25 93.88,-90.25 93.88,-69.5 202.12,-69.5 202.12,-90.25"/>
<text text-anchor="middle" x="148" y="-76.75" font-family="Helvetica,sans-Serif" font-size="10.00">nix::EvalCommand</text>
</a>
</g>
</g>
<!-- Node5&#45;&gt;Node1 -->
<g id="edge5_Node000001_Node000005" class="edge">
<title>Node5&#45;&gt;Node1</title>
<g id="a_edge5_Node000001_Node000005"><a xlink:title=" ">
<path fill="none" stroke="#63b8ff" d="M148,-58.07C148,-45.72 148,-30.65 148,-21.03"/>
<polygon fill="#63b8ff" stroke="#63b8ff" points="144.5,-57.69 148,-67.69 151.5,-57.69 144.5,-57.69"/>
</a>
</g>
</g>
<!-- Node6&#45;&gt;Node5 -->
<g id="edge6_Node000005_Node000006" class="edge">
<title>Node6&#45;&gt;Node5</title>
<g id="a_edge6_Node000005_Node000006"><a xlink:title=" ">
<path fill="none" stroke="#63b8ff" d="M239.88,-122.18C217.8,-112.26 189.07,-99.34 169.66,-90.62"/>
<polygon fill="#63b8ff" stroke="#63b8ff" points="238.18,-125.26 248.74,-126.17 241.05,-118.87 238.18,-125.26"/>
</a>
</g>
</g>
<!-- Node7&#45;&gt;Node5 -->
<g id="edge8_Node000005_Node000007" class="edge">
<title>Node7&#45;&gt;Node5</title>
<g id="a_edge8_Node000005_Node000007"><a xlink:title=" ">
<path fill="none" stroke="#63b8ff" d="M148,-115.68C148,-107.02 148,-97.4 148,-90.47"/>
<polygon fill="#63b8ff" stroke="#63b8ff" points="144.5,-115.4 148,-125.4 151.5,-115.4 144.5,-115.4"/>
</a>
</g>
</g>
<!-- Node8&#45;&gt;Node7 -->
<g id="edge10_Node000007_Node000008" class="edge">
<title>Node8&#45;&gt;Node7</title>
<g id="a_edge10_Node000007_Node000008"><a xlink:title=" ">
<path fill="none" stroke="#63b8ff" d="M200.68,-188.71C187.15,-175.84 169.22,-158.8 158.15,-148.28"/>
<polygon fill="#63b8ff" stroke="#63b8ff" points="198.07,-191.06 207.73,-195.41 202.89,-185.98 198.07,-191.06"/>
</a>
</g>
</g>
<!-- Node9 -->
<g id="Node000009" class="node">
<title>Node9</title>
<g id="a_Node000009"><a xlink:href="structnix_1_1SearchPath.html" target="_top" xlink:title=" ">
<polygon fill="white" stroke="#666666" points="119.5,-217.5 28.5,-217.5 28.5,-196.75 119.5,-196.75 119.5,-217.5"/>
<text text-anchor="middle" x="74" y="-204" font-family="Helvetica,sans-Serif" font-size="10.00">nix::SearchPath</text>
</a>
</g>
</g>
<!-- Node9&#45;&gt;Node7 -->
<g id="edge12_Node000007_Node000009" class="edge">
<title>Node9&#45;&gt;Node7</title>
<g id="a_edge12_Node000007_Node000009"><a xlink:title=" ">
<path fill="none" stroke="#9a32cd" stroke-dasharray="5,2" d="M71.82,-185.04C72.16,-178.39 73.69,-171.38 77.75,-166 83.74,-158.06 92.37,-152.42 101.53,-148.41"/>
<polygon fill="#9a32cd" stroke="#9a32cd" points="68.32,-185.16 72.2,-195.02 75.32,-184.89 68.32,-185.16"/>
</a>
</g>
<text text-anchor="middle" x="105.88" y="-169.25" font-family="Helvetica,sans-Serif" font-size="10.00" fill="grey"> searchPath</text>
</g>
<!-- Node10 -->
<g id="Node000010" class="node">
<title>Node10</title>
<g id="a_Node000010"><a xlink:href="structnix_1_1flake_1_1LockFlags.html" target="_top" xlink:title=" ">
<polygon fill="white" stroke="#bfbfbf" points="335.5,-90.25 220.5,-90.25 220.5,-69.5 335.5,-69.5 335.5,-90.25"/>
<text text-anchor="middle" x="278" y="-76.75" font-family="Helvetica,sans-Serif" font-size="10.00">nix::flake::LockFlags</text>
</a>
</g>
</g>
<!-- Node10&#45;&gt;Node1 -->
<g id="edge13_Node000001_Node000010" class="edge">
<title>Node10&#45;&gt;Node1</title>
<g id="a_edge13_Node000001_Node000010"><a xlink:title=" ">
<path fill="none" stroke="#9a32cd" stroke-dasharray="5,2" d="M249.07,-63.85C224.02,-50.85 188.5,-32.4 166.93,-21.2"/>
<polygon fill="#9a32cd" stroke="#9a32cd" points="247.27,-66.86 257.75,-68.36 250.49,-60.65 247.27,-66.86"/>
</a>
</g>
<text text-anchor="middle" x="249.39" y="-42" font-family="Helvetica,sans-Serif" font-size="10.00" fill="grey"> lockFlags</text>
</g>
</g>
</svg>
