<?xml version="1.0" encoding="UTF-8" standalone="no"?>
<!DOCTYPE svg PUBLIC "-//W3C//DTD SVG 1.1//EN"
 "http://www.w3.org/Graphics/SVG/1.1/DTD/svg11.dtd">
<!-- Generated by graphviz version 12.2.1 (0)
 -->
<!-- Title: nix::CmdVerify Pages: 1 -->
<svg width="674pt" height="638pt"
 viewBox="0.00 0.00 673.50 637.75" xmlns="http://www.w3.org/2000/svg" xmlns:xlink="http://www.w3.org/1999/xlink">
<g id="graph0" class="graph" transform="scale(1 1) rotate(0) translate(4 633.75)">
<title>nix::CmdVerify</title>
<!-- Node1 -->
<g id="Node000001" class="node">
<title>Node1</title>
<g id="a_Node000001"><a xlink:title=" ">
<polygon fill="#999999" stroke="#666666" points="615.62,-20.75 528.38,-20.75 528.38,0 615.62,0 615.62,-20.75"/>
<text text-anchor="middle" x="572" y="-7.25" font-family="Helvetica,sans-Serif" font-size="10.00">nix::CmdVerify</text>
</a>
</g>
</g>
<!-- Node2 -->
<g id="Node000002" class="node">
<title>Node2</title>
<g id="a_Node000002"><a xlink:href="structnix_1_1StorePathsCommand.html" target="_top" xlink:title=" ">
<polygon fill="white" stroke="#bfbfbf" points="641.5,-78.5 502.5,-78.5 502.5,-57.75 641.5,-57.75 641.5,-78.5"/>
<text text-anchor="middle" x="572" y="-65" font-family="Helvetica,sans-Serif" font-size="10.00">nix::StorePathsCommand</text>
</a>
</g>
</g>
<!-- Node2&#45;&gt;Node1 -->
<g id="edge1_Node000001_Node000002" class="edge">
<title>Node2&#45;&gt;Node1</title>
<g id="a_edge1_Node000001_Node000002"><a xlink:title=" ">
<path fill="none" stroke="#63b8ff" d="M572,-46.18C572,-37.52 572,-27.9 572,-20.97"/>
<polygon fill="#63b8ff" stroke="#63b8ff" points="568.5,-45.9 572,-55.9 575.5,-45.9 568.5,-45.9"/>
</a>
</g>
</g>
<!-- Node3 -->
<g id="Node000003" class="node">
<title>Node3</title>
<g id="a_Node000003"><a xlink:href="structnix_1_1BuiltPathsCommand.html" target="_top" xlink:title=" ">
<polygon fill="white" stroke="#666666" points="640,-136.25 504,-136.25 504,-115.5 640,-115.5 640,-136.25"/>
<text text-anchor="middle" x="572" y="-122.75" font-family="Helvetica,sans-Serif" font-size="10.00">nix::BuiltPathsCommand</text>
</a>
</g>
</g>
<!-- Node3&#45;&gt;Node2 -->
<g id="edge2_Node000002_Node000003" class="edge">
<title>Node3&#45;&gt;Node2</title>
<g id="a_edge2_Node000002_Node000003"><a xlink:title=" ">
<path fill="none" stroke="#63b8ff" d="M572,-103.93C572,-95.27 572,-85.65 572,-78.72"/>
<polygon fill="#63b8ff" stroke="#63b8ff" points="568.5,-103.65 572,-113.65 575.5,-103.65 568.5,-103.65"/>
</a>
</g>
</g>
<!-- Node4 -->
<g id="Node000004" class="node">
<title>Node4</title>
<g id="a_Node000004"><a xlink:href="structnix_1_1InstallablesCommand.html" target="_top" xlink:title=" ">
<polygon fill="white" stroke="#666666" points="561.75,-194 418.25,-194 418.25,-173.25 561.75,-173.25 561.75,-194"/>
<text text-anchor="middle" x="490" y="-180.5" font-family="Helvetica,sans-Serif" font-size="10.00">nix::InstallablesCommand</text>
</a>
</g>
</g>
<!-- Node4&#45;&gt;Node3 -->
<g id="edge3_Node000003_Node000004" class="edge">
<title>Node4&#45;&gt;Node3</title>
<g id="a_edge3_Node000003_Node000004"><a xlink:title=" ">
<path fill="none" stroke="#63b8ff" d="M513.47,-166.67C527.71,-156.99 545.42,-144.95 557.61,-136.66"/>
<polygon fill="#63b8ff" stroke="#63b8ff" points="511.84,-163.55 505.53,-172.06 515.77,-169.34 511.84,-163.55"/>
</a>
</g>
</g>
<!-- Node5 -->
<g id="Node000005" class="node">
<title>Node5</title>
<g id="a_Node000005"><a xlink:href="structnix_1_1RawInstallablesCommand.html" target="_top" xlink:title=" ">
<polygon fill="white" stroke="#666666" points="565.25,-251.75 400.75,-251.75 400.75,-231 565.25,-231 565.25,-251.75"/>
<text text-anchor="middle" x="483" y="-238.25" font-family="Helvetica,sans-Serif" font-size="10.00">nix::RawInstallablesCommand</text>
</a>
</g>
</g>
<!-- Node5&#45;&gt;Node4 -->
<g id="edge4_Node000004_Node000005" class="edge">
<title>Node5&#45;&gt;Node4</title>
<g id="a_edge4_Node000004_Node000005"><a xlink:title=" ">
<path fill="none" stroke="#63b8ff" d="M485.63,-219.43C486.72,-210.77 487.93,-201.15 488.79,-194.22"/>
<polygon fill="#63b8ff" stroke="#63b8ff" points="482.18,-218.8 484.41,-229.16 489.13,-219.68 482.18,-218.8"/>
</a>
</g>
</g>
<!-- Node6 -->
<g id="Node000006" class="node">
<title>Node6</title>
<g id="a_Node000006"><a xlink:href="classnix_1_1Args.html" target="_top" xlink:title=" ">
<polygon fill="white" stroke="#bfbfbf" points="413.38,-629.75 354.62,-629.75 354.62,-609 413.38,-609 413.38,-629.75"/>
<text text-anchor="middle" x="384" y="-616.25" font-family="Helvetica,sans-Serif" font-size="10.00">nix::Args</text>
</a>
</g>
</g>
<!-- Node6&#45;&gt;Node5 -->
<g id="edge5_Node000005_Node000006" class="edge">
<title>Node6&#45;&gt;Node5</title>
<g id="a_edge5_Node000005_Node000006"><a xlink:title=" ">
<path fill="none" stroke="#63b8ff" d="M425.05,-616.01C460.14,-611.5 505,-598.68 505,-562.62 505,-562.62 505,-562.62 505,-298.12 505,-281.06 495.97,-262.98 489.48,-252.19"/>
<polygon fill="#63b8ff" stroke="#63b8ff" points="424.67,-612.53 415.1,-617.08 425.42,-619.49 424.67,-612.53"/>
</a>
</g>
</g>
<!-- Node8 -->
<g id="Node000008" class="node">
<title>Node8</title>
<g id="a_Node000008"><a xlink:href="structnix_1_1Command.html" target="_top" xlink:title=" ">
<polygon fill="white" stroke="#666666" points="367.62,-572 280.38,-572 280.38,-551.25 367.62,-551.25 367.62,-572"/>
<text text-anchor="middle" x="324" y="-558.5" font-family="Helvetica,sans-Serif" font-size="10.00">nix::Command</text>
</a>
</g>
</g>
<!-- Node6&#45;&gt;Node8 -->
<g id="edge8_Node000008_Node000006" class="edge">
<title>Node6&#45;&gt;Node8</title>
<g id="a_edge8_Node000008_Node000006"><a xlink:title=" ">
<path fill="none" stroke="#63b8ff" d="M365.25,-600.95C355.05,-591.47 342.81,-580.11 334.33,-572.22"/>
<polygon fill="#63b8ff" stroke="#63b8ff" points="362.73,-603.39 372.44,-607.63 367.5,-598.26 362.73,-603.39"/>
</a>
</g>
</g>
<!-- Node9 -->
<g id="Node000009" class="node">
<title>Node9</title>
<g id="a_Node000009"><a xlink:href="structnix_1_1SourceExprCommand.html" target="_top" xlink:title=" ">
<polygon fill="white" stroke="#bfbfbf" points="477,-309.5 335,-309.5 335,-288.75 477,-288.75 477,-309.5"/>
<text text-anchor="middle" x="406" y="-296" font-family="Helvetica,sans-Serif" font-size="10.00">nix::SourceExprCommand</text>
</a>
</g>
</g>
<!-- Node6&#45;&gt;Node9 -->
<g id="edge10_Node000009_Node000006" class="edge">
<title>Node6&#45;&gt;Node9</title>
<g id="a_edge10_Node000009_Node000006"><a xlink:title=" ">
<path fill="none" stroke="#63b8ff" d="M424.1,-607.72C445.3,-599.41 467,-585.35 467,-562.62 467,-562.62 467,-562.62 467,-355.88 467,-334.5 446.34,-319.12 429.06,-310"/>
<polygon fill="#63b8ff" stroke="#63b8ff" points="423.19,-604.33 414.92,-610.96 425.52,-610.93 423.19,-604.33"/>
</a>
</g>
</g>
<!-- Node10 -->
<g id="Node000010" class="node">
<title>Node10</title>
<g id="a_Node000010"><a xlink:href="structnix_1_1MixFlakeOptions.html" target="_top" xlink:title=" ">
<polygon fill="white" stroke="#666666" points="399.38,-367.25 280.62,-367.25 280.62,-346.5 399.38,-346.5 399.38,-367.25"/>
<text text-anchor="middle" x="340" y="-353.75" font-family="Helvetica,sans-Serif" font-size="10.00">nix::MixFlakeOptions</text>
</a>
</g>
</g>
<!-- Node6&#45;&gt;Node10 -->
<g id="edge12_Node000010_Node000006" class="edge">
<title>Node6&#45;&gt;Node10</title>
<g id="a_edge12_Node000010_Node000006"><a xlink:title=" ">
<path fill="none" stroke="#63b8ff" d="M342.85,-616.66C243.75,-611.98 0,-596.97 0,-562.62 0,-562.62 0,-562.62 0,-425.38 0,-368.88 182.88,-358.95 280.39,-357.66"/>
<polygon fill="#63b8ff" stroke="#63b8ff" points="342.53,-620.15 352.68,-617.11 342.85,-613.15 342.53,-620.15"/>
</a>
</g>
</g>
<!-- Node13 -->
<g id="Node000013" class="node">
<title>Node13</title>
<g id="a_Node000013"><a xlink:href="structnix_1_1MixEvalArgs.html" target="_top" xlink:title=" ">
<polygon fill="white" stroke="#bfbfbf" points="178.88,-494.5 81.12,-494.5 81.12,-473.75 178.88,-473.75 178.88,-494.5"/>
<text text-anchor="middle" x="130" y="-481" font-family="Helvetica,sans-Serif" font-size="10.00">nix::MixEvalArgs</text>
</a>
</g>
</g>
<!-- Node6&#45;&gt;Node13 -->
<g id="edge17_Node000013_Node000006" class="edge">
<title>Node6&#45;&gt;Node13</title>
<g id="a_edge17_Node000013_Node000006"><a xlink:title=" ">
<path fill="none" stroke="#63b8ff" d="M343.07,-614.14C287.87,-607.69 193.44,-593.79 167,-572 142.71,-551.98 134.04,-513.12 131.23,-494.95"/>
<polygon fill="#63b8ff" stroke="#63b8ff" points="342.38,-617.58 352.71,-615.23 343.17,-610.63 342.38,-617.58"/>
</a>
</g>
</g>
<!-- Node14 -->
<g id="Node000014" class="node">
<title>Node14</title>
<g id="a_Node000014"><a xlink:href="structnix_1_1MixRepair.html" target="_top" xlink:title=" ">
<polygon fill="white" stroke="#bfbfbf" points="262.25,-572 175.75,-572 175.75,-551.25 262.25,-551.25 262.25,-572"/>
<text text-anchor="middle" x="219" y="-558.5" font-family="Helvetica,sans-Serif" font-size="10.00">nix::MixRepair</text>
</a>
</g>
</g>
<!-- Node6&#45;&gt;Node14 -->
<g id="edge19_Node000014_Node000006" class="edge">
<title>Node6&#45;&gt;Node14</title>
<g id="a_edge19_Node000014_Node000006"><a xlink:title=" ">
<path fill="none" stroke="#63b8ff" d="M344.07,-604.88C314.46,-594.88 274.76,-581.47 248.1,-572.46"/>
<polygon fill="#63b8ff" stroke="#63b8ff" points="342.85,-608.17 353.45,-608.05 345.09,-601.53 342.85,-608.17"/>
</a>
</g>
</g>
<!-- Node17 -->
<g id="Node000017" class="node">
<title>Node17</title>
<g id="a_Node000017"><a xlink:href="structnix_1_1MixOperateOnOptions.html" target="_top" xlink:title=" ">
<polygon fill="white" stroke="#bfbfbf" points="665.5,-533.25 520.5,-533.25 520.5,-512.5 665.5,-512.5 665.5,-533.25"/>
<text text-anchor="middle" x="593" y="-519.75" font-family="Helvetica,sans-Serif" font-size="10.00">nix::MixOperateOnOptions</text>
</a>
</g>
</g>
<!-- Node6&#45;&gt;Node17 -->
<g id="edge23_Node000017_Node000006" class="edge">
<title>Node6&#45;&gt;Node17</title>
<g id="a_edge23_Node000017_Node000006"><a xlink:title=" ">
<path fill="none" stroke="#63b8ff" d="M424.95,-615.77C452.72,-612.67 489.59,-605.88 519,-591 547.48,-576.59 573.25,-548.22 585.49,-533.4"/>
<polygon fill="#63b8ff" stroke="#63b8ff" points="424.77,-612.27 415.16,-616.74 425.45,-619.24 424.77,-612.27"/>
</a>
</g>
</g>
<!-- Node7 -->
<g id="Node000007" class="node">
<title>Node7</title>
<g id="a_Node000007"><a xlink:href="classnix_1_1MultiCommand.html" target="_top" xlink:title=" ">
<polygon fill="white" stroke="#666666" points="439,-494.5 327,-494.5 327,-473.75 439,-473.75 439,-494.5"/>
<text text-anchor="middle" x="383" y="-481" font-family="Helvetica,sans-Serif" font-size="10.00">nix::MultiCommand</text>
</a>
</g>
</g>
<!-- Node7&#45;&gt;Node6 -->
<g id="edge6_Node000006_Node000007" class="edge">
<title>Node7&#45;&gt;Node6</title>
<g id="a_edge6_Node000006_Node000007"><a xlink:title=" ">
<path fill="none" stroke="#9a32cd" stroke-dasharray="5,2" d="M383.16,-506.37C383.38,-535.73 383.77,-587.48 383.93,-608.79"/>
<polygon fill="#9a32cd" stroke="#9a32cd" points="386.66,-506.47 383.09,-496.49 379.66,-506.52 386.66,-506.47"/>
</a>
</g>
<text text-anchor="middle" x="400.9" y="-558.5" font-family="Helvetica,sans-Serif" font-size="10.00" fill="grey"> parent</text>
</g>
<!-- Node8&#45;&gt;Node7 -->
<g id="edge7_Node000007_Node000008" class="edge">
<title>Node8&#45;&gt;Node7</title>
<g id="a_edge7_Node000007_Node000008"><a xlink:title=" ">
<path fill="none" stroke="#63b8ff" d="M338.67,-541.85C350.36,-526.9 366.23,-506.58 375.47,-494.76"/>
<polygon fill="#63b8ff" stroke="#63b8ff" points="336.04,-539.53 332.65,-549.56 341.56,-543.84 336.04,-539.53"/>
</a>
</g>
</g>
<!-- Node12 -->
<g id="Node000012" class="node">
<title>Node12</title>
<g id="a_Node000012"><a xlink:href="structnix_1_1StoreCommand.html" target="_top" xlink:title=" ">
<polygon fill="white" stroke="#666666" points="309.38,-494.5 196.62,-494.5 196.62,-473.75 309.38,-473.75 309.38,-494.5"/>
<text text-anchor="middle" x="253" y="-481" font-family="Helvetica,sans-Serif" font-size="10.00">nix::StoreCommand</text>
</a>
</g>
</g>
<!-- Node8&#45;&gt;Node12 -->
<g id="edge15_Node000012_Node000008" class="edge">
<title>Node8&#45;&gt;Node12</title>
<g id="a_edge15_Node000012_Node000008"><a xlink:title=" ">
<path fill="none" stroke="#63b8ff" d="M307.14,-542.7C293.01,-527.67 273.39,-506.81 262.06,-494.76"/>
<polygon fill="#63b8ff" stroke="#63b8ff" points="304.28,-544.76 313.68,-549.65 309.38,-539.97 304.28,-544.76"/>
</a>
</g>
</g>
<!-- Node9&#45;&gt;Node5 -->
<g id="edge9_Node000005_Node000009" class="edge">
<title>Node9&#45;&gt;Node5</title>
<g id="a_edge9_Node000005_Node000009"><a xlink:title=" ">
<path fill="none" stroke="#63b8ff" d="M428.43,-281.89C441.73,-272.26 458.15,-260.37 469.48,-252.16"/>
<polygon fill="#63b8ff" stroke="#63b8ff" points="426.69,-278.83 420.64,-287.53 430.79,-284.5 426.69,-278.83"/>
</a>
</g>
</g>
<!-- Node10&#45;&gt;Node9 -->
<g id="edge11_Node000009_Node000010" class="edge">
<title>Node10&#45;&gt;Node9</title>
<g id="a_edge11_Node000009_Node000010"><a xlink:title=" ">
<path fill="none" stroke="#63b8ff" d="M360.29,-338.74C371.58,-329.2 385.21,-317.69 394.64,-309.72"/>
<polygon fill="#63b8ff" stroke="#63b8ff" points="358.03,-336.06 352.65,-345.19 362.55,-341.41 358.03,-336.06"/>
</a>
</g>
</g>
<!-- Node11 -->
<g id="Node000011" class="node">
<title>Node11</title>
<g id="a_Node000011"><a xlink:href="structnix_1_1EvalCommand.html" target="_top" xlink:title=" ">
<polygon fill="white" stroke="#666666" points="305.12,-436.75 196.88,-436.75 196.88,-416 305.12,-416 305.12,-436.75"/>
<text text-anchor="middle" x="251" y="-423.25" font-family="Helvetica,sans-Serif" font-size="10.00">nix::EvalCommand</text>
</a>
</g>
</g>
<!-- Node11&#45;&gt;Node10 -->
<g id="edge13_Node000010_Node000011" class="edge">
<title>Node11&#45;&gt;Node10</title>
<g id="a_edge13_Node000010_Node000011"><a xlink:title=" ">
<path fill="none" stroke="#63b8ff" d="M272.47,-409.09C289.47,-396.2 312.68,-378.6 326.98,-367.75"/>
<polygon fill="#63b8ff" stroke="#63b8ff" points="270.81,-405.96 264.96,-414.79 275.04,-411.54 270.81,-405.96"/>
</a>
</g>
</g>
<!-- Node12&#45;&gt;Node11 -->
<g id="edge14_Node000011_Node000012" class="edge">
<title>Node12&#45;&gt;Node11</title>
<g id="a_edge14_Node000011_Node000012"><a xlink:title=" ">
<path fill="none" stroke="#63b8ff" d="M252.25,-462.18C251.94,-453.52 251.59,-443.9 251.34,-436.97"/>
<polygon fill="#63b8ff" stroke="#63b8ff" points="248.74,-462.03 252.6,-471.9 255.74,-461.78 248.74,-462.03"/>
</a>
</g>
</g>
<!-- Node13&#45;&gt;Node11 -->
<g id="edge16_Node000011_Node000013" class="edge">
<title>Node13&#45;&gt;Node11</title>
<g id="a_edge16_Node000011_Node000013"><a xlink:title=" ">
<path fill="none" stroke="#63b8ff" d="M161.64,-468.55C183.14,-458.64 211.01,-445.8 229.86,-437.12"/>
<polygon fill="#63b8ff" stroke="#63b8ff" points="160.35,-465.29 152.73,-472.65 163.28,-471.65 160.35,-465.29"/>
</a>
</g>
</g>
<!-- Node14&#45;&gt;Node13 -->
<g id="edge18_Node000013_Node000014" class="edge">
<title>Node14&#45;&gt;Node13</title>
<g id="a_edge18_Node000013_Node000014"><a xlink:title=" ">
<path fill="none" stroke="#63b8ff" d="M198.9,-543.58C181.24,-528.6 156.16,-507.32 141.64,-495"/>
<polygon fill="#63b8ff" stroke="#63b8ff" points="196.32,-545.98 206.21,-549.78 200.85,-540.64 196.32,-545.98"/>
</a>
</g>
</g>
<!-- Node15 -->
<g id="Node000015" class="node">
<title>Node15</title>
<g id="a_Node000015"><a xlink:href="structnix_1_1SearchPath.html" target="_top" xlink:title=" ">
<polygon fill="white" stroke="#666666" points="119.5,-572 28.5,-572 28.5,-551.25 119.5,-551.25 119.5,-572"/>
<text text-anchor="middle" x="74" y="-558.5" font-family="Helvetica,sans-Serif" font-size="10.00">nix::SearchPath</text>
</a>
</g>
</g>
<!-- Node15&#45;&gt;Node13 -->
<g id="edge20_Node000013_Node000015" class="edge">
<title>Node15&#45;&gt;Node13</title>
<g id="a_edge20_Node000013_Node000015"><a xlink:title=" ">
<path fill="none" stroke="#9a32cd" stroke-dasharray="5,2" d="M71.32,-539.69C71.2,-530.66 72.55,-520.39 77.75,-512.5 82.88,-504.72 90.97,-499.01 99.26,-494.89"/>
<polygon fill="#9a32cd" stroke="#9a32cd" points="67.81,-539.68 72.06,-549.38 74.79,-539.15 67.81,-539.68"/>
</a>
</g>
<text text-anchor="middle" x="105.88" y="-519.75" font-family="Helvetica,sans-Serif" font-size="10.00" fill="grey"> searchPath</text>
</g>
<!-- Node16 -->
<g id="Node000016" class="node">
<title>Node16</title>
<g id="a_Node000016"><a xlink:href="structnix_1_1flake_1_1LockFlags.html" target="_top" xlink:title=" ">
<polygon fill="white" stroke="#bfbfbf" points="438.5,-436.75 323.5,-436.75 323.5,-416 438.5,-416 438.5,-436.75"/>
<text text-anchor="middle" x="381" y="-423.25" font-family="Helvetica,sans-Serif" font-size="10.00">nix::flake::LockFlags</text>
</a>
</g>
</g>
<!-- Node16&#45;&gt;Node10 -->
<g id="edge21_Node000010_Node000016" class="edge">
<title>Node16&#45;&gt;Node10</title>
<g id="a_edge21_Node000010_Node000016"><a xlink:title=" ">
<path fill="none" stroke="#9a32cd" stroke-dasharray="5,2" d="M369.29,-406.1C361.63,-393.48 351.95,-377.55 345.86,-367.53"/>
<polygon fill="#9a32cd" stroke="#9a32cd" points="366.16,-407.68 374.34,-414.41 372.14,-404.05 366.16,-407.68"/>
</a>
</g>
<text text-anchor="middle" x="388.92" y="-388.5" font-family="Helvetica,sans-Serif" font-size="10.00" fill="grey"> lockFlags</text>
</g>
<!-- Node17&#45;&gt;Node3 -->
<g id="edge22_Node000003_Node000017" class="edge">
<title>Node17&#45;&gt;Node3</title>
<g id="a_edge22_Node000003_Node000017"><a xlink:title=" ">
<path fill="none" stroke="#63b8ff" d="M593,-500.58C593,-487.62 593,-470.73 593,-455.75 593,-455.75 593,-455.75 593,-182.62 593,-165.66 584.38,-147.55 578.19,-136.73"/>
<polygon fill="#63b8ff" stroke="#63b8ff" points="589.5,-500.5 593,-510.5 596.5,-500.5 589.5,-500.5"/>
</a>
</g>
</g>
</g>
</svg>
