<?xml version="1.0" encoding="UTF-8" standalone="no"?>
<!DOCTYPE svg PUBLIC "-//W3C//DTD SVG 1.1//EN"
 "http://www.w3.org/Graphics/SVG/1.1/DTD/svg11.dtd">
<!-- Generated by graphviz version 12.2.1 (0)
 -->
<!-- Title: nix::Goal::WorkResult Pages: 1 -->
<svg width="129pt" height="168pt"
 viewBox="0.00 0.00 129.00 167.75" xmlns="http://www.w3.org/2000/svg" xmlns:xlink="http://www.w3.org/1999/xlink">
<g id="graph0" class="graph" transform="scale(1 1) rotate(0) translate(4 163.75)">
<title>nix::Goal::WorkResult</title>
<!-- Node1 -->
<g id="Node000001" class="node">
<title>Node1</title>
<g id="a_Node000001"><a xlink:title=" ">
<polygon fill="#999999" stroke="#666666" points="121,-20.75 0,-20.75 0,0 121,0 121,-20.75"/>
<text text-anchor="middle" x="60.5" y="-7.25" font-family="Helvetica,sans-Serif" font-size="10.00">nix::Goal::WorkResult</text>
</a>
</g>
</g>
<!-- Node2 -->
<g id="Node000002" class="node">
<title>Node2</title>
<g id="a_Node000002"><a xlink:href="structnix_1_1BuildResult.html" target="_top" xlink:title=" ">
<polygon fill="white" stroke="#bfbfbf" points="106.75,-90.25 14.25,-90.25 14.25,-69.5 106.75,-69.5 106.75,-90.25"/>
<text text-anchor="middle" x="60.5" y="-76.75" font-family="Helvetica,sans-Serif" font-size="10.00">nix::BuildResult</text>
</a>
</g>
</g>
<!-- Node2&#45;&gt;Node1 -->
<g id="edge1_Node000001_Node000002" class="edge">
<title>Node2&#45;&gt;Node1</title>
<g id="a_edge1_Node000001_Node000002"><a xlink:title=" ">
<path fill="none" stroke="#9a32cd" stroke-dasharray="5,2" d="M60.5,-58.07C60.5,-45.72 60.5,-30.65 60.5,-21.03"/>
<polygon fill="#9a32cd" stroke="#9a32cd" points="57,-57.69 60.5,-67.69 64,-57.69 57,-57.69"/>
</a>
</g>
<text text-anchor="middle" x="75.88" y="-42" font-family="Helvetica,sans-Serif" font-size="10.00" fill="grey"> result</text>
</g>
<!-- Node3 -->
<g id="Node000003" class="node">
<title>Node3</title>
<g id="a_Node000003"><a xlink:title=" ">
<polygon fill="white" stroke="#bfbfbf" points="82.38,-159.75 38.62,-159.75 38.62,-139 82.38,-139 82.38,-159.75"/>
<text text-anchor="middle" x="60.5" y="-146.25" font-family="Helvetica,sans-Serif" font-size="10.00">string</text>
</a>
</g>
</g>
<!-- Node3&#45;&gt;Node2 -->
<g id="edge2_Node000002_Node000003" class="edge">
<title>Node3&#45;&gt;Node2</title>
<g id="a_edge2_Node000002_Node000003"><a xlink:title=" ">
<path fill="none" stroke="#9a32cd" stroke-dasharray="5,2" d="M60.5,-127.57C60.5,-115.22 60.5,-100.15 60.5,-90.53"/>
<polygon fill="#9a32cd" stroke="#9a32cd" points="57,-127.19 60.5,-137.19 64,-127.19 57,-127.19"/>
</a>
</g>
<text text-anchor="middle" x="83.75" y="-111.5" font-family="Helvetica,sans-Serif" font-size="10.00" fill="grey"> errorMsg</text>
</g>
</g>
</svg>
