<?xml version="1.0" encoding="UTF-8" standalone="no"?>
<!DOCTYPE svg PUBLIC "-//W3C//DTD SVG 1.1//EN"
 "http://www.w3.org/Graphics/SVG/1.1/DTD/svg11.dtd">
<!-- Generated by graphviz version 12.2.1 (0)
 -->
<!-- Title: nix::UDSRemoteStoreConfig Pages: 1 -->
<svg width="288pt" height="256pt"
 viewBox="0.00 0.00 287.75 255.75" xmlns="http://www.w3.org/2000/svg" xmlns:xlink="http://www.w3.org/1999/xlink">
<g id="graph0" class="graph" transform="scale(1 1) rotate(0) translate(4 251.75)">
<title>nix::UDSRemoteStoreConfig</title>
<!-- Node1 -->
<g id="Node000001" class="node">
<title>Node1</title>
<g id="a_Node000001"><a xlink:title=" ">
<polygon fill="#999999" stroke="#666666" points="215.25,-20.75 62.75,-20.75 62.75,0 215.25,0 215.25,-20.75"/>
<text text-anchor="middle" x="139" y="-7.25" font-family="Helvetica,sans-Serif" font-size="10.00">nix::UDSRemoteStoreConfig</text>
</a>
</g>
</g>
<!-- Node2 -->
<g id="Node000002" class="node">
<title>Node2</title>
<g id="a_Node000002"><a xlink:href="structnix_1_1LocalFSStoreConfig.html" target="_top" xlink:title=" ">
<polygon fill="white" stroke="#bfbfbf" points="130,-77.5 0,-77.5 0,-56.75 130,-56.75 130,-77.5"/>
<text text-anchor="middle" x="65" y="-64" font-family="Helvetica,sans-Serif" font-size="10.00">nix::LocalFSStoreConfig</text>
</a>
</g>
</g>
<!-- Node2&#45;&gt;Node1 -->
<g id="edge1_Node000001_Node000002" class="edge">
<title>Node2&#45;&gt;Node1</title>
<g id="a_edge1_Node000001_Node000002"><a xlink:title=" ">
<path fill="none" stroke="#63b8ff" d="M87.22,-49.69C99.83,-40.36 115.18,-29 125.88,-21.08"/>
<polygon fill="#63b8ff" stroke="#63b8ff" points="85.4,-46.68 79.45,-55.44 89.57,-52.3 85.4,-46.68"/>
</a>
</g>
</g>
<!-- Node3 -->
<g id="Node000003" class="node">
<title>Node3</title>
<g id="a_Node000003"><a xlink:href="structnix_1_1StoreConfig.html" target="_top" xlink:title=" ">
<polygon fill="white" stroke="#bfbfbf" points="185.62,-134.25 92.38,-134.25 92.38,-113.5 185.62,-113.5 185.62,-134.25"/>
<text text-anchor="middle" x="139" y="-120.75" font-family="Helvetica,sans-Serif" font-size="10.00">nix::StoreConfig</text>
</a>
</g>
</g>
<!-- Node3&#45;&gt;Node2 -->
<g id="edge2_Node000002_Node000003" class="edge">
<title>Node3&#45;&gt;Node2</title>
<g id="a_edge2_Node000002_Node000003"><a xlink:title=" ">
<path fill="none" stroke="#63b8ff" d="M116.78,-106.44C104.17,-97.11 88.82,-85.75 78.12,-77.83"/>
<polygon fill="#63b8ff" stroke="#63b8ff" points="114.43,-109.05 124.55,-112.19 118.6,-103.43 114.43,-109.05"/>
</a>
</g>
</g>
<!-- Node6 -->
<g id="Node000006" class="node">
<title>Node6</title>
<g id="a_Node000006"><a xlink:href="structnix_1_1RemoteStoreConfig.html" target="_top" xlink:title=" ">
<polygon fill="white" stroke="#bfbfbf" points="279.75,-77.5 148.25,-77.5 148.25,-56.75 279.75,-56.75 279.75,-77.5"/>
<text text-anchor="middle" x="214" y="-64" font-family="Helvetica,sans-Serif" font-size="10.00">nix::RemoteStoreConfig</text>
</a>
</g>
</g>
<!-- Node3&#45;&gt;Node6 -->
<g id="edge6_Node000006_Node000003" class="edge">
<title>Node3&#45;&gt;Node6</title>
<g id="a_edge6_Node000006_Node000003"><a xlink:title=" ">
<path fill="none" stroke="#63b8ff" d="M161.52,-106.44C174.3,-97.11 189.86,-85.75 200.71,-77.83"/>
<polygon fill="#63b8ff" stroke="#63b8ff" points="159.64,-103.47 153.63,-112.19 163.77,-109.13 159.64,-103.47"/>
</a>
</g>
</g>
<!-- Node4 -->
<g id="Node000004" class="node">
<title>Node4</title>
<g id="a_Node000004"><a xlink:href="classnix_1_1Config.html" target="_top" xlink:title=" ">
<polygon fill="white" stroke="#666666" points="172.88,-191 105.12,-191 105.12,-170.25 172.88,-170.25 172.88,-191"/>
<text text-anchor="middle" x="139" y="-177.5" font-family="Helvetica,sans-Serif" font-size="10.00">nix::Config</text>
</a>
</g>
</g>
<!-- Node4&#45;&gt;Node3 -->
<g id="edge3_Node000003_Node000004" class="edge">
<title>Node4&#45;&gt;Node3</title>
<g id="a_edge3_Node000003_Node000004"><a xlink:title=" ">
<path fill="none" stroke="#63b8ff" d="M139,-158.38C139,-150.16 139,-141.18 139,-134.58"/>
<polygon fill="#63b8ff" stroke="#63b8ff" points="135.5,-158.32 139,-168.32 142.5,-158.32 135.5,-158.32"/>
</a>
</g>
</g>
<!-- Node5 -->
<g id="Node000005" class="node">
<title>Node5</title>
<g id="a_Node000005"><a xlink:href="classnix_1_1AbstractConfig.html" target="_top" xlink:title=" ">
<polygon fill="white" stroke="#bfbfbf" points="193.12,-247.75 84.88,-247.75 84.88,-227 193.12,-227 193.12,-247.75"/>
<text text-anchor="middle" x="139" y="-234.25" font-family="Helvetica,sans-Serif" font-size="10.00">nix::AbstractConfig</text>
</a>
</g>
</g>
<!-- Node5&#45;&gt;Node4 -->
<g id="edge4_Node000004_Node000005" class="edge">
<title>Node5&#45;&gt;Node4</title>
<g id="a_edge4_Node000004_Node000005"><a xlink:title=" ">
<path fill="none" stroke="#63b8ff" d="M139,-215.13C139,-206.91 139,-197.93 139,-191.33"/>
<polygon fill="#63b8ff" stroke="#63b8ff" points="135.5,-215.07 139,-225.07 142.5,-215.07 135.5,-215.07"/>
</a>
</g>
</g>
<!-- Node6&#45;&gt;Node1 -->
<g id="edge5_Node000001_Node000006" class="edge">
<title>Node6&#45;&gt;Node1</title>
<g id="a_edge5_Node000001_Node000006"><a xlink:title=" ">
<path fill="none" stroke="#63b8ff" d="M191.48,-49.69C178.7,-40.36 163.14,-29 152.29,-21.08"/>
<polygon fill="#63b8ff" stroke="#63b8ff" points="189.23,-52.38 199.37,-55.44 193.36,-46.72 189.23,-52.38"/>
</a>
</g>
</g>
</g>
</svg>
