<?xml version="1.0" encoding="UTF-8" standalone="no"?>
<!DOCTYPE svg PUBLIC "-//W3C//DTD SVG 1.1//EN"
 "http://www.w3.org/Graphics/SVG/1.1/DTD/svg11.dtd">
<!-- Generated by graphviz version 12.2.1 (0)
 -->
<!-- Title: nix::CmdPingStore Pages: 1 -->
<svg width="213pt" height="280pt"
 viewBox="0.00 0.00 213.16 279.50" xmlns="http://www.w3.org/2000/svg" xmlns:xlink="http://www.w3.org/1999/xlink">
<g id="graph0" class="graph" transform="scale(1 1) rotate(0) translate(4 275.5)">
<title>nix::CmdPingStore</title>
<!-- Node1 -->
<g id="Node000001" class="node">
<title>Node1</title>
<g id="a_Node000001"><a xlink:title=" ">
<polygon fill="#999999" stroke="#666666" points="123.38,-20.75 17.38,-20.75 17.38,0 123.38,0 123.38,-20.75"/>
<text text-anchor="middle" x="70.38" y="-7.25" font-family="Helvetica,sans-Serif" font-size="10.00">nix::CmdPingStore</text>
</a>
</g>
</g>
<!-- Node2 -->
<g id="Node000002" class="node">
<title>Node2</title>
<g id="a_Node000002"><a xlink:href="structnix_1_1StoreCommand.html" target="_top" xlink:title=" ">
<polygon fill="white" stroke="#666666" points="112.75,-175 0,-175 0,-154.25 112.75,-154.25 112.75,-175"/>
<text text-anchor="middle" x="56.38" y="-161.5" font-family="Helvetica,sans-Serif" font-size="10.00">nix::StoreCommand</text>
</a>
</g>
</g>
<!-- Node2&#45;&gt;Node1 -->
<g id="edge1_Node000001_Node000002" class="edge">
<title>Node2&#45;&gt;Node1</title>
<g id="a_edge1_Node000001_Node000002"><a xlink:title=" ">
<path fill="none" stroke="#63b8ff" d="M58.27,-142.99C61.34,-109.62 67.27,-45.14 69.5,-20.9"/>
<polygon fill="#63b8ff" stroke="#63b8ff" points="54.82,-142.32 57.39,-152.59 61.79,-142.96 54.82,-142.32"/>
</a>
</g>
</g>
<!-- Node3 -->
<g id="Node000003" class="node">
<title>Node3</title>
<g id="a_Node000003"><a xlink:href="structnix_1_1Command.html" target="_top" xlink:title=" ">
<polygon fill="white" stroke="#666666" points="181,-271.5 93.75,-271.5 93.75,-250.75 181,-250.75 181,-271.5"/>
<text text-anchor="middle" x="137.38" y="-258" font-family="Helvetica,sans-Serif" font-size="10.00">nix::Command</text>
</a>
</g>
</g>
<!-- Node3&#45;&gt;Node2 -->
<g id="edge2_Node000002_Node000003" class="edge">
<title>Node3&#45;&gt;Node2</title>
<g id="a_edge2_Node000002_Node000003"><a xlink:title=" ">
<path fill="none" stroke="#63b8ff" d="M107.84,-244.64C95.39,-236.83 81.67,-226.33 72.38,-213.75 63.8,-202.13 59.64,-185.65 57.77,-175.3"/>
<polygon fill="#63b8ff" stroke="#63b8ff" points="105.75,-247.47 116.14,-249.55 109.31,-241.44 105.75,-247.47"/>
</a>
</g>
</g>
<!-- Node5 -->
<g id="Node000005" class="node">
<title>Node5</title>
<g id="a_Node000005"><a xlink:href="classnix_1_1MultiCommand.html" target="_top" xlink:title=" ">
<polygon fill="white" stroke="#666666" points="193.38,-213.75 81.38,-213.75 81.38,-193 193.38,-193 193.38,-213.75"/>
<text text-anchor="middle" x="137.38" y="-200.25" font-family="Helvetica,sans-Serif" font-size="10.00">nix::MultiCommand</text>
</a>
</g>
</g>
<!-- Node3&#45;&gt;Node5 -->
<g id="edge5_Node000005_Node000003" class="edge">
<title>Node3&#45;&gt;Node5</title>
<g id="a_edge5_Node000005_Node000003"><a xlink:title=" ">
<path fill="none" stroke="#63b8ff" d="M137.38,-239.18C137.38,-230.52 137.38,-220.9 137.38,-213.97"/>
<polygon fill="#63b8ff" stroke="#63b8ff" points="133.88,-238.9 137.38,-248.9 140.88,-238.9 133.88,-238.9"/>
</a>
</g>
</g>
<!-- Node4 -->
<g id="Node000004" class="node">
<title>Node4</title>
<g id="a_Node000004"><a xlink:href="classnix_1_1Args.html" target="_top" xlink:title=" ">
<polygon fill="white" stroke="#bfbfbf" points="166.75,-136.25 108,-136.25 108,-115.5 166.75,-115.5 166.75,-136.25"/>
<text text-anchor="middle" x="137.38" y="-122.75" font-family="Helvetica,sans-Serif" font-size="10.00">nix::Args</text>
</a>
</g>
</g>
<!-- Node4&#45;&gt;Node3 -->
<g id="edge3_Node000003_Node000004" class="edge">
<title>Node4&#45;&gt;Node3</title>
<g id="a_edge3_Node000003_Node000004"><a xlink:title=" ">
<path fill="none" stroke="#63b8ff" d="M163.28,-143.03C167.89,-146.45 172.46,-150.25 176.38,-154.25 190.89,-169.07 196.34,-173.16 202.38,-193 205.06,-201.82 206.6,-205.55 202.38,-213.75 193.68,-230.63 175.68,-242.73 160.82,-250.32"/>
<polygon fill="#63b8ff" stroke="#63b8ff" points="165.43,-140.26 155.22,-137.44 161.44,-146.01 165.43,-140.26"/>
</a>
</g>
</g>
<!-- Node6 -->
<g id="Node000006" class="node">
<title>Node6</title>
<g id="a_Node000006"><a xlink:href="structnix_1_1MixJSON.html" target="_top" xlink:title=" ">
<polygon fill="white" stroke="#bfbfbf" points="168.88,-78.5 89.88,-78.5 89.88,-57.75 168.88,-57.75 168.88,-78.5"/>
<text text-anchor="middle" x="129.38" y="-65" font-family="Helvetica,sans-Serif" font-size="10.00">nix::MixJSON</text>
</a>
</g>
</g>
<!-- Node4&#45;&gt;Node6 -->
<g id="edge7_Node000006_Node000004" class="edge">
<title>Node4&#45;&gt;Node6</title>
<g id="a_edge7_Node000006_Node000004"><a xlink:title=" ">
<path fill="none" stroke="#63b8ff" d="M134.37,-103.93C133.13,-95.27 131.75,-85.65 130.75,-78.72"/>
<polygon fill="#63b8ff" stroke="#63b8ff" points="130.88,-104.26 135.77,-113.67 137.81,-103.27 130.88,-104.26"/>
</a>
</g>
</g>
<!-- Node5&#45;&gt;Node4 -->
<g id="edge4_Node000004_Node000005" class="edge">
<title>Node5&#45;&gt;Node4</title>
<g id="a_edge4_Node000004_Node000005"><a xlink:title=" ">
<path fill="none" stroke="#9a32cd" stroke-dasharray="5,2" d="M137.38,-181.43C137.38,-166.73 137.38,-147.77 137.38,-136.51"/>
<polygon fill="#9a32cd" stroke="#9a32cd" points="133.88,-180.99 137.38,-190.99 140.88,-180.99 133.88,-180.99"/>
</a>
</g>
<text text-anchor="middle" x="154.62" y="-161.5" font-family="Helvetica,sans-Serif" font-size="10.00" fill="grey"> parent</text>
</g>
<!-- Node6&#45;&gt;Node1 -->
<g id="edge6_Node000001_Node000006" class="edge">
<title>Node6&#45;&gt;Node1</title>
<g id="a_edge6_Node000001_Node000006"><a xlink:title=" ">
<path fill="none" stroke="#63b8ff" d="M110.94,-49.7C100.9,-40.22 88.88,-28.86 80.53,-20.97"/>
<polygon fill="#63b8ff" stroke="#63b8ff" points="108.33,-52.05 118,-56.37 113.13,-46.96 108.33,-52.05"/>
</a>
</g>
</g>
</g>
</svg>
