<?xml version="1.0" encoding="UTF-8" standalone="no"?>
<!DOCTYPE svg PUBLIC "-//W3C//DTD SVG 1.1//EN"
 "http://www.w3.org/Graphics/SVG/1.1/DTD/svg11.dtd">
<!-- Generated by graphviz version 12.2.1 (0)
 -->
<!-- Title: nix::CmdMakeContentAddressed Pages: 1 -->
<svg width="575pt" height="596pt"
 viewBox="0.00 0.00 574.88 596.25" xmlns="http://www.w3.org/2000/svg" xmlns:xlink="http://www.w3.org/1999/xlink">
<g id="graph0" class="graph" transform="scale(1 1) rotate(0) translate(4 592.25)">
<title>nix::CmdMakeContentAddressed</title>
<!-- Node1 -->
<g id="Node000001" class="node">
<title>Node1</title>
<g id="a_Node000001"><a xlink:title=" ">
<polygon fill="#999999" stroke="#666666" points="459.88,-20.75 284.88,-20.75 284.88,0 459.88,0 459.88,-20.75"/>
<text text-anchor="middle" x="372.38" y="-7.25" font-family="Helvetica,sans-Serif" font-size="10.00">nix::CmdMakeContentAddressed</text>
</a>
</g>
</g>
<!-- Node2 -->
<g id="Node000002" class="node">
<title>Node2</title>
<g id="a_Node000002"><a xlink:href="structnix_1_1CopyCommand.html" target="_top" xlink:title=" ">
<polygon fill="white" stroke="#666666" points="184.38,-247.75 72.38,-247.75 72.38,-227 184.38,-227 184.38,-247.75"/>
<text text-anchor="middle" x="128.38" y="-234.25" font-family="Helvetica,sans-Serif" font-size="10.00">nix::CopyCommand</text>
</a>
</g>
</g>
<!-- Node2&#45;&gt;Node1 -->
<g id="edge1_Node000001_Node000002" class="edge">
<title>Node2&#45;&gt;Node1</title>
<g id="a_edge1_Node000001_Node000002"><a xlink:title=" ">
<path fill="none" stroke="#63b8ff" d="M142.23,-217.85C168.79,-183.21 229.87,-107.54 293.38,-56.75 311.53,-42.23 334.89,-29.42 351.48,-21.15"/>
<polygon fill="#63b8ff" stroke="#63b8ff" points="139.58,-215.56 136.32,-225.64 145.16,-219.79 139.58,-215.56"/>
</a>
</g>
</g>
<!-- Node3 -->
<g id="Node000003" class="node">
<title>Node3</title>
<g id="a_Node000003"><a xlink:href="structnix_1_1StoreCommand.html" target="_top" xlink:title=" ">
<polygon fill="white" stroke="#666666" points="112.75,-474.75 0,-474.75 0,-454 112.75,-454 112.75,-474.75"/>
<text text-anchor="middle" x="56.38" y="-461.25" font-family="Helvetica,sans-Serif" font-size="10.00">nix::StoreCommand</text>
</a>
</g>
</g>
<!-- Node3&#45;&gt;Node2 -->
<g id="edge2_Node000002_Node000003" class="edge">
<title>Node3&#45;&gt;Node2</title>
<g id="a_edge2_Node000002_Node000003"><a xlink:title=" ">
<path fill="none" stroke="#63b8ff" d="M62.96,-442.81C78.01,-395.78 114.46,-281.85 125.29,-248.01"/>
<polygon fill="#63b8ff" stroke="#63b8ff" points="59.64,-441.67 59.93,-452.27 66.31,-443.81 59.64,-441.67"/>
</a>
</g>
</g>
<!-- Node12 -->
<g id="Node000012" class="node">
<title>Node12</title>
<g id="a_Node000012"><a xlink:href="structnix_1_1EvalCommand.html" target="_top" xlink:title=" ">
<polygon fill="white" stroke="#666666" points="284.5,-418 176.25,-418 176.25,-397.25 284.5,-397.25 284.5,-418"/>
<text text-anchor="middle" x="230.38" y="-404.5" font-family="Helvetica,sans-Serif" font-size="10.00">nix::EvalCommand</text>
</a>
</g>
</g>
<!-- Node3&#45;&gt;Node12 -->
<g id="edge15_Node000012_Node000003" class="edge">
<title>Node3&#45;&gt;Node12</title>
<g id="a_edge15_Node000012_Node000003"><a xlink:title=" ">
<path fill="none" stroke="#63b8ff" d="M98.41,-450.15C129.49,-440.37 171.12,-427.27 199.24,-418.42"/>
<polygon fill="#63b8ff" stroke="#63b8ff" points="97.41,-446.79 88.93,-453.13 99.52,-453.47 97.41,-446.79"/>
</a>
</g>
</g>
<!-- Node4 -->
<g id="Node000004" class="node">
<title>Node4</title>
<g id="a_Node000004"><a xlink:href="structnix_1_1Command.html" target="_top" xlink:title=" ">
<polygon fill="white" stroke="#666666" points="109,-531.5 21.75,-531.5 21.75,-510.75 109,-510.75 109,-531.5"/>
<text text-anchor="middle" x="65.38" y="-518" font-family="Helvetica,sans-Serif" font-size="10.00">nix::Command</text>
</a>
</g>
</g>
<!-- Node4&#45;&gt;Node3 -->
<g id="edge3_Node000003_Node000004" class="edge">
<title>Node4&#45;&gt;Node3</title>
<g id="a_edge3_Node000003_Node000004"><a xlink:title=" ">
<path fill="none" stroke="#63b8ff" d="M61.93,-499.17C60.57,-490.88 59.07,-481.75 57.97,-475.08"/>
<polygon fill="#63b8ff" stroke="#63b8ff" points="58.44,-499.54 63.52,-508.84 65.35,-498.41 58.44,-499.54"/>
</a>
</g>
</g>
<!-- Node5 -->
<g id="Node000005" class="node">
<title>Node5</title>
<g id="a_Node000005"><a xlink:href="classnix_1_1Args.html" target="_top" xlink:title=" ">
<polygon fill="white" stroke="#bfbfbf" points="310.75,-588.25 252,-588.25 252,-567.5 310.75,-567.5 310.75,-588.25"/>
<text text-anchor="middle" x="281.38" y="-574.75" font-family="Helvetica,sans-Serif" font-size="10.00">nix::Args</text>
</a>
</g>
</g>
<!-- Node5&#45;&gt;Node4 -->
<g id="edge4_Node000004_Node000005" class="edge">
<title>Node5&#45;&gt;Node4</title>
<g id="a_edge4_Node000004_Node000005"><a xlink:title=" ">
<path fill="none" stroke="#63b8ff" d="M240.8,-566.59C201.59,-556.65 142.63,-541.71 104.07,-531.93"/>
<polygon fill="#63b8ff" stroke="#63b8ff" points="239.77,-569.94 250.33,-569.01 241.49,-563.16 239.77,-569.94"/>
</a>
</g>
</g>
<!-- Node9 -->
<g id="Node000009" class="node">
<title>Node9</title>
<g id="a_Node000009"><a xlink:href="structnix_1_1RawInstallablesCommand.html" target="_top" xlink:title=" ">
<polygon fill="white" stroke="#666666" points="415.62,-247.75 251.12,-247.75 251.12,-227 415.62,-227 415.62,-247.75"/>
<text text-anchor="middle" x="333.38" y="-234.25" font-family="Helvetica,sans-Serif" font-size="10.00">nix::RawInstallablesCommand</text>
</a>
</g>
</g>
<!-- Node5&#45;&gt;Node9 -->
<g id="edge9_Node000009_Node000005" class="edge">
<title>Node5&#45;&gt;Node9</title>
<g id="a_edge9_Node000009_Node000005"><a xlink:title=" ">
<path fill="none" stroke="#63b8ff" d="M297.58,-558.64C303.74,-550.78 310.26,-541.19 314.38,-531.5 358.23,-428.23 340.74,-285.98 334.96,-248.01"/>
<polygon fill="#63b8ff" stroke="#63b8ff" points="295.09,-556.15 291.39,-566.08 300.47,-560.62 295.09,-556.15"/>
</a>
</g>
</g>
<!-- Node10 -->
<g id="Node000010" class="node">
<title>Node10</title>
<g id="a_Node000010"><a xlink:href="structnix_1_1SourceExprCommand.html" target="_top" xlink:title=" ">
<polygon fill="white" stroke="#bfbfbf" points="301.38,-304.5 159.38,-304.5 159.38,-283.75 301.38,-283.75 301.38,-304.5"/>
<text text-anchor="middle" x="230.38" y="-291" font-family="Helvetica,sans-Serif" font-size="10.00">nix::SourceExprCommand</text>
</a>
</g>
</g>
<!-- Node5&#45;&gt;Node10 -->
<g id="edge11_Node000010_Node000005" class="edge">
<title>Node5&#45;&gt;Node10</title>
<g id="a_edge11_Node000010_Node000005"><a xlink:title=" ">
<path fill="none" stroke="#63b8ff" d="M241.07,-566.04C222.27,-559.05 201.06,-548.09 187.38,-531.5 170.77,-511.38 176.87,-500.45 172.38,-474.75 162.07,-415.81 134.15,-393.26 162.38,-340.5 171.28,-323.86 189.28,-312.26 204.53,-304.96"/>
<polygon fill="#63b8ff" stroke="#63b8ff" points="239.77,-569.29 250.36,-569.21 242.03,-562.67 239.77,-569.29"/>
</a>
</g>
</g>
<!-- Node11 -->
<g id="Node000011" class="node">
<title>Node11</title>
<g id="a_Node000011"><a xlink:href="structnix_1_1MixFlakeOptions.html" target="_top" xlink:title=" ">
<polygon fill="white" stroke="#666666" points="289.75,-361.25 171,-361.25 171,-340.5 289.75,-340.5 289.75,-361.25"/>
<text text-anchor="middle" x="230.38" y="-347.75" font-family="Helvetica,sans-Serif" font-size="10.00">nix::MixFlakeOptions</text>
</a>
</g>
</g>
<!-- Node5&#45;&gt;Node11 -->
<g id="edge13_Node000011_Node000005" class="edge">
<title>Node5&#45;&gt;Node11</title>
<g id="a_edge13_Node000011_Node000005"><a xlink:title=" ">
<path fill="none" stroke="#63b8ff" d="M290.74,-556.6C293.82,-548.91 296.84,-539.97 298.38,-531.5 305.33,-493.14 324.36,-454.6 293.38,-397.25 284.6,-381 267.17,-369.15 252.87,-361.64"/>
<polygon fill="#63b8ff" stroke="#63b8ff" points="287.57,-555.12 286.82,-565.69 294,-557.89 287.57,-555.12"/>
</a>
</g>
</g>
<!-- Node13 -->
<g id="Node000013" class="node">
<title>Node13</title>
<g id="a_Node000013"><a xlink:href="structnix_1_1MixEvalArgs.html" target="_top" xlink:title=" ">
<polygon fill="white" stroke="#bfbfbf" points="279.25,-474.75 181.5,-474.75 181.5,-454 279.25,-454 279.25,-474.75"/>
<text text-anchor="middle" x="230.38" y="-461.25" font-family="Helvetica,sans-Serif" font-size="10.00">nix::MixEvalArgs</text>
</a>
</g>
</g>
<!-- Node5&#45;&gt;Node13 -->
<g id="edge17_Node000013_Node000005" class="edge">
<title>Node5&#45;&gt;Node13</title>
<g id="a_edge17_Node000013_Node000005"><a xlink:title=" ">
<path fill="none" stroke="#63b8ff" d="M240.94,-566.16C223.42,-559.29 204.61,-548.39 194.38,-531.5 182.52,-511.94 203.69,-488.22 218.28,-475.17"/>
<polygon fill="#63b8ff" stroke="#63b8ff" points="239.57,-569.38 250.16,-569.42 241.91,-562.79 239.57,-569.38"/>
</a>
</g>
</g>
<!-- Node14 -->
<g id="Node000014" class="node">
<title>Node14</title>
<g id="a_Node000014"><a xlink:href="structnix_1_1MixRepair.html" target="_top" xlink:title=" ">
<polygon fill="white" stroke="#bfbfbf" points="289.62,-531.5 203.12,-531.5 203.12,-510.75 289.62,-510.75 289.62,-531.5"/>
<text text-anchor="middle" x="246.38" y="-518" font-family="Helvetica,sans-Serif" font-size="10.00">nix::MixRepair</text>
</a>
</g>
</g>
<!-- Node5&#45;&gt;Node14 -->
<g id="edge19_Node000014_Node000005" class="edge">
<title>Node5&#45;&gt;Node14</title>
<g id="a_edge19_Node000014_Node000005"><a xlink:title=" ">
<path fill="none" stroke="#63b8ff" d="M269.08,-557.64C263.5,-548.91 257.14,-538.97 252.58,-531.83"/>
<polygon fill="#63b8ff" stroke="#63b8ff" points="265.97,-559.27 274.3,-565.81 271.87,-555.5 265.97,-559.27"/>
</a>
</g>
</g>
<!-- Node15 -->
<g id="Node000015" class="node">
<title>Node15</title>
<g id="a_Node000015"><a xlink:href="structnix_1_1MixOperateOnOptions.html" target="_top" xlink:title=" ">
<polygon fill="white" stroke="#bfbfbf" points="515.88,-361.25 370.88,-361.25 370.88,-340.5 515.88,-340.5 515.88,-361.25"/>
<text text-anchor="middle" x="443.38" y="-347.75" font-family="Helvetica,sans-Serif" font-size="10.00">nix::MixOperateOnOptions</text>
</a>
</g>
</g>
<!-- Node5&#45;&gt;Node15 -->
<g id="edge21_Node000015_Node000005" class="edge">
<title>Node5&#45;&gt;Node15</title>
<g id="a_edge21_Node000015_Node000005"><a xlink:title=" ">
<path fill="none" stroke="#63b8ff" d="M321.42,-563.33C338.03,-556.06 356.41,-545.63 369.38,-531.5 417.51,-479.08 436.57,-391.04 441.78,-361.72"/>
<polygon fill="#63b8ff" stroke="#63b8ff" points="320.16,-560.06 312.23,-567.09 322.81,-566.54 320.16,-560.06"/>
</a>
</g>
</g>
<!-- Node16 -->
<g id="Node000016" class="node">
<title>Node16</title>
<g id="a_Node000016"><a xlink:href="structnix_1_1MixJSON.html" target="_top" xlink:title=" ">
<polygon fill="white" stroke="#bfbfbf" points="566.88,-304.5 487.88,-304.5 487.88,-283.75 566.88,-283.75 566.88,-304.5"/>
<text text-anchor="middle" x="527.38" y="-291" font-family="Helvetica,sans-Serif" font-size="10.00">nix::MixJSON</text>
</a>
</g>
</g>
<!-- Node5&#45;&gt;Node16 -->
<g id="edge23_Node000016_Node000005" class="edge">
<title>Node5&#45;&gt;Node16</title>
<g id="a_edge23_Node000016_Node000005"><a xlink:title=" ">
<path fill="none" stroke="#63b8ff" d="M322.22,-577.31C396.1,-575.74 544.38,-560.7 544.38,-465.38 544.38,-465.38 544.38,-465.38 544.38,-406.62 544.38,-368.64 534.61,-324.19 529.88,-304.89"/>
<polygon fill="#63b8ff" stroke="#63b8ff" points="322.5,-573.81 312.55,-577.44 322.59,-580.81 322.5,-573.81"/>
</a>
</g>
</g>
<!-- Node6 -->
<g id="Node000006" class="node">
<title>Node6</title>
<g id="a_Node000006"><a xlink:href="structnix_1_1StorePathsCommand.html" target="_top" xlink:title=" ">
<polygon fill="white" stroke="#bfbfbf" points="441.88,-77.5 302.88,-77.5 302.88,-56.75 441.88,-56.75 441.88,-77.5"/>
<text text-anchor="middle" x="372.38" y="-64" font-family="Helvetica,sans-Serif" font-size="10.00">nix::StorePathsCommand</text>
</a>
</g>
</g>
<!-- Node6&#45;&gt;Node1 -->
<g id="edge5_Node000001_Node000006" class="edge">
<title>Node6&#45;&gt;Node1</title>
<g id="a_edge5_Node000001_Node000006"><a xlink:title=" ">
<path fill="none" stroke="#63b8ff" d="M372.38,-44.88C372.38,-36.66 372.38,-27.68 372.38,-21.08"/>
<polygon fill="#63b8ff" stroke="#63b8ff" points="368.88,-44.82 372.38,-54.82 375.88,-44.82 368.88,-44.82"/>
</a>
</g>
</g>
<!-- Node7 -->
<g id="Node000007" class="node">
<title>Node7</title>
<g id="a_Node000007"><a xlink:href="structnix_1_1BuiltPathsCommand.html" target="_top" xlink:title=" ">
<polygon fill="white" stroke="#666666" points="440.38,-134.25 304.38,-134.25 304.38,-113.5 440.38,-113.5 440.38,-134.25"/>
<text text-anchor="middle" x="372.38" y="-120.75" font-family="Helvetica,sans-Serif" font-size="10.00">nix::BuiltPathsCommand</text>
</a>
</g>
</g>
<!-- Node7&#45;&gt;Node6 -->
<g id="edge6_Node000006_Node000007" class="edge">
<title>Node7&#45;&gt;Node6</title>
<g id="a_edge6_Node000006_Node000007"><a xlink:title=" ">
<path fill="none" stroke="#63b8ff" d="M372.38,-101.63C372.38,-93.41 372.38,-84.43 372.38,-77.83"/>
<polygon fill="#63b8ff" stroke="#63b8ff" points="368.88,-101.57 372.38,-111.57 375.88,-101.57 368.88,-101.57"/>
</a>
</g>
</g>
<!-- Node8 -->
<g id="Node000008" class="node">
<title>Node8</title>
<g id="a_Node000008"><a xlink:href="structnix_1_1InstallablesCommand.html" target="_top" xlink:title=" ">
<polygon fill="white" stroke="#666666" points="410.12,-191 266.62,-191 266.62,-170.25 410.12,-170.25 410.12,-191"/>
<text text-anchor="middle" x="338.38" y="-177.5" font-family="Helvetica,sans-Serif" font-size="10.00">nix::InstallablesCommand</text>
</a>
</g>
</g>
<!-- Node8&#45;&gt;Node7 -->
<g id="edge7_Node000007_Node000008" class="edge">
<title>Node8&#45;&gt;Node7</title>
<g id="a_edge7_Node000007_Node000008"><a xlink:title=" ">
<path fill="none" stroke="#63b8ff" d="M350.5,-160.1C355.87,-151.45 361.96,-141.64 366.35,-134.58"/>
<polygon fill="#63b8ff" stroke="#63b8ff" points="347.55,-158.21 345.25,-168.55 353.5,-161.9 347.55,-158.21"/>
</a>
</g>
</g>
<!-- Node9&#45;&gt;Node8 -->
<g id="edge8_Node000008_Node000009" class="edge">
<title>Node9&#45;&gt;Node8</title>
<g id="a_edge8_Node000008_Node000009"><a xlink:title=" ">
<path fill="none" stroke="#63b8ff" d="M335.32,-215.13C336.07,-206.91 336.89,-197.93 337.49,-191.33"/>
<polygon fill="#63b8ff" stroke="#63b8ff" points="331.83,-214.8 334.41,-225.08 338.8,-215.44 331.83,-214.8"/>
</a>
</g>
</g>
<!-- Node10&#45;&gt;Node9 -->
<g id="edge10_Node000009_Node000010" class="edge">
<title>Node10&#45;&gt;Node9</title>
<g id="a_edge10_Node000009_Node000010"><a xlink:title=" ">
<path fill="none" stroke="#63b8ff" d="M258.75,-278.04C276.74,-268.48 299.5,-256.38 315.12,-248.08"/>
<polygon fill="#63b8ff" stroke="#63b8ff" points="257.31,-274.84 250.13,-282.63 260.6,-281.02 257.31,-274.84"/>
</a>
</g>
</g>
<!-- Node11&#45;&gt;Node10 -->
<g id="edge12_Node000010_Node000011" class="edge">
<title>Node11&#45;&gt;Node10</title>
<g id="a_edge12_Node000010_Node000011"><a xlink:title=" ">
<path fill="none" stroke="#63b8ff" d="M230.38,-328.63C230.38,-320.41 230.38,-311.43 230.38,-304.83"/>
<polygon fill="#63b8ff" stroke="#63b8ff" points="226.88,-328.57 230.38,-338.57 233.88,-328.57 226.88,-328.57"/>
</a>
</g>
</g>
<!-- Node12&#45;&gt;Node11 -->
<g id="edge14_Node000011_Node000012" class="edge">
<title>Node12&#45;&gt;Node11</title>
<g id="a_edge14_Node000011_Node000012"><a xlink:title=" ">
<path fill="none" stroke="#63b8ff" d="M230.38,-385.38C230.38,-377.16 230.38,-368.18 230.38,-361.58"/>
<polygon fill="#63b8ff" stroke="#63b8ff" points="226.88,-385.32 230.38,-395.32 233.88,-385.32 226.88,-385.32"/>
</a>
</g>
</g>
<!-- Node13&#45;&gt;Node12 -->
<g id="edge16_Node000012_Node000013" class="edge">
<title>Node13&#45;&gt;Node12</title>
<g id="a_edge16_Node000012_Node000013"><a xlink:title=" ">
<path fill="none" stroke="#63b8ff" d="M230.38,-442.13C230.38,-433.91 230.38,-424.93 230.38,-418.33"/>
<polygon fill="#63b8ff" stroke="#63b8ff" points="226.88,-442.07 230.38,-452.07 233.88,-442.07 226.88,-442.07"/>
</a>
</g>
</g>
<!-- Node14&#45;&gt;Node13 -->
<g id="edge18_Node000013_Node000014" class="edge">
<title>Node14&#45;&gt;Node13</title>
<g id="a_edge18_Node000013_Node000014"><a xlink:title=" ">
<path fill="none" stroke="#63b8ff" d="M240.33,-499.46C237.89,-491.09 235.18,-481.83 233.21,-475.08"/>
<polygon fill="#63b8ff" stroke="#63b8ff" points="236.93,-500.27 243.09,-508.88 243.64,-498.3 236.93,-500.27"/>
</a>
</g>
</g>
<!-- Node15&#45;&gt;Node7 -->
<g id="edge20_Node000007_Node000015" class="edge">
<title>Node15&#45;&gt;Node7</title>
<g id="a_edge20_Node000007_Node000015"><a xlink:title=" ">
<path fill="none" stroke="#63b8ff" d="M444.87,-329.22C446.49,-294.43 445.91,-222.77 419.38,-170.25 411.91,-155.47 397.67,-142.79 386.81,-134.62"/>
<polygon fill="#63b8ff" stroke="#63b8ff" points="441.4,-328.57 444.3,-338.76 448.39,-328.98 441.4,-328.57"/>
</a>
</g>
</g>
<!-- Node16&#45;&gt;Node1 -->
<g id="edge22_Node000001_Node000016" class="edge">
<title>Node16&#45;&gt;Node1</title>
<g id="a_edge22_Node000001_Node000016"><a xlink:title=" ">
<path fill="none" stroke="#63b8ff" d="M520.56,-272.71C513.78,-250.54 504.38,-213.98 504.38,-181.62 504.38,-181.62 504.38,-181.62 504.38,-122.88 504.38,-69.48 440.56,-36.43 401.67,-21.25"/>
<polygon fill="#63b8ff" stroke="#63b8ff" points="517.14,-273.52 523.52,-281.98 523.81,-271.39 517.14,-273.52"/>
</a>
</g>
</g>
</g>
</svg>
