<?xml version="1.0" encoding="UTF-8" standalone="no"?>
<!DOCTYPE svg PUBLIC "-//W3C//DTD SVG 1.1//EN"
 "http://www.w3.org/Graphics/SVG/1.1/DTD/svg11.dtd">
<!-- Generated by graphviz version 12.2.1 (0)
 -->
<!-- Title: nix::Sink Pages: 1 -->
<svg width="779pt" height="380pt"
 viewBox="0.00 0.00 778.75 379.75" xmlns="http://www.w3.org/2000/svg" xmlns:xlink="http://www.w3.org/1999/xlink">
<g id="graph0" class="graph" transform="scale(1 1) rotate(0) translate(4 375.75)">
<title>nix::Sink</title>
<!-- Node1 -->
<g id="Node000001" class="node">
<title>Node1</title>
<g id="a_Node000001"><a xlink:title=" ">
<polygon fill="#999999" stroke="#666666" points="58,-195.75 0,-195.75 0,-175 58,-175 58,-195.75"/>
<text text-anchor="middle" x="29" y="-182.25" font-family="Helvetica,sans-Serif" font-size="10.00">nix::Sink</text>
</a>
</g>
</g>
<!-- Node2 -->
<g id="Node000002" class="node">
<title>Node2</title>
<g id="a_Node000002"><a xlink:href="structnix_1_1AbstractHashSink.html" target="_top" xlink:title=" ">
<polygon fill="white" stroke="#bfbfbf" points="223.25,-371.75 100,-371.75 100,-351 223.25,-351 223.25,-371.75"/>
<text text-anchor="middle" x="161.62" y="-358.25" font-family="Helvetica,sans-Serif" font-size="10.00">nix::AbstractHashSink</text>
</a>
</g>
</g>
<!-- Node1&#45;&gt;Node2 -->
<g id="edge1_Node000001_Node000002" class="edge">
<title>Node1&#45;&gt;Node2</title>
<g id="a_edge1_Node000001_Node000002"><a xlink:title=" ">
<path fill="none" stroke="#63b8ff" d="M32.91,-207.11C38.57,-240.75 54.2,-305.28 94,-341.38 98.12,-345.11 102.9,-348.14 107.99,-350.61"/>
<polygon fill="#63b8ff" stroke="#63b8ff" points="36.39,-206.72 31.43,-197.36 29.47,-207.77 36.39,-206.72"/>
</a>
</g>
</g>
<!-- Node4 -->
<g id="Node000004" class="node">
<title>Node4</title>
<g id="a_Node000004"><a xlink:href="structnix_1_1BufferedSink.html" target="_top" xlink:title=" ">
<polygon fill="white" stroke="#666666" points="211.25,-293.75 112,-293.75 112,-273 211.25,-273 211.25,-293.75"/>
<text text-anchor="middle" x="161.62" y="-280.25" font-family="Helvetica,sans-Serif" font-size="10.00">nix::BufferedSink</text>
</a>
</g>
</g>
<!-- Node1&#45;&gt;Node4 -->
<g id="edge3_Node000001_Node000004" class="edge">
<title>Node1&#45;&gt;Node4</title>
<g id="a_edge3_Node000001_Node000004"><a xlink:title=" ">
<path fill="none" stroke="#63b8ff" d="M41.73,-205.6C52.99,-223.29 71.58,-248.44 94,-263.38 99.53,-267.06 105.76,-270.08 112.13,-272.56"/>
<polygon fill="#63b8ff" stroke="#63b8ff" points="44.96,-204.17 36.76,-197.47 38.99,-207.82 44.96,-204.17"/>
</a>
</g>
</g>
<!-- Node12 -->
<g id="Node000012" class="node">
<title>Node12</title>
<g id="a_Node000012"><a xlink:href="structnix_1_1FinishSink.html" target="_top" xlink:title=" ">
<polygon fill="white" stroke="#bfbfbf" points="204.88,-332.75 118.38,-332.75 118.38,-312 204.88,-312 204.88,-332.75"/>
<text text-anchor="middle" x="161.62" y="-319.25" font-family="Helvetica,sans-Serif" font-size="10.00">nix::FinishSink</text>
</a>
</g>
</g>
<!-- Node1&#45;&gt;Node12 -->
<g id="edge12_Node000001_Node000012" class="edge">
<title>Node1&#45;&gt;Node12</title>
<g id="a_edge12_Node000001_Node000012"><a xlink:title=" ">
<path fill="none" stroke="#63b8ff" d="M36.2,-206.94C44.87,-233.26 63.11,-277.35 94,-302.38 100.94,-308 109.44,-312.05 118.01,-314.95"/>
<polygon fill="#63b8ff" stroke="#63b8ff" points="39.63,-206.19 33.33,-197.67 32.95,-208.26 39.63,-206.19"/>
</a>
</g>
</g>
<!-- Node13 -->
<g id="Node000013" class="node">
<title>Node13</title>
<g id="a_Node000013"><a xlink:href="structnix_1_1LambdaSink.html" target="_top" xlink:title=" ">
<polygon fill="white" stroke="#666666" points="210.12,-254.75 113.12,-254.75 113.12,-234 210.12,-234 210.12,-254.75"/>
<text text-anchor="middle" x="161.62" y="-241.25" font-family="Helvetica,sans-Serif" font-size="10.00">nix::LambdaSink</text>
</a>
</g>
</g>
<!-- Node1&#45;&gt;Node13 -->
<g id="edge14_Node000001_Node000013" class="edge">
<title>Node1&#45;&gt;Node13</title>
<g id="a_edge14_Node000001_Node000013"><a xlink:title=" ">
<path fill="none" stroke="#63b8ff" d="M54.58,-202.39C66.16,-209.87 80.4,-218.31 94,-224.38 101.83,-227.87 110.44,-230.96 118.8,-233.61"/>
<polygon fill="#63b8ff" stroke="#63b8ff" points="56.7,-199.6 46.43,-196.99 52.83,-205.43 56.7,-199.6"/>
</a>
</g>
</g>
<!-- Node14 -->
<g id="Node000014" class="node">
<title>Node14</title>
<g id="a_Node000014"><a xlink:href="structnix_1_1LengthSink.html" target="_top" xlink:title=" ">
<polygon fill="white" stroke="#666666" points="207.12,-215.75 116.12,-215.75 116.12,-195 207.12,-195 207.12,-215.75"/>
<text text-anchor="middle" x="161.62" y="-202.25" font-family="Helvetica,sans-Serif" font-size="10.00">nix::LengthSink</text>
</a>
</g>
</g>
<!-- Node1&#45;&gt;Node14 -->
<g id="edge15_Node000001_Node000014" class="edge">
<title>Node1&#45;&gt;Node14</title>
<g id="a_edge15_Node000001_Node000014"><a xlink:title=" ">
<path fill="none" stroke="#63b8ff" d="M69.51,-191.42C84.06,-193.65 100.65,-196.19 115.64,-198.49"/>
<polygon fill="#63b8ff" stroke="#63b8ff" points="70.25,-188 59.84,-189.94 69.19,-194.92 70.25,-188"/>
</a>
</g>
</g>
<!-- Node15 -->
<g id="Node000015" class="node">
<title>Node15</title>
<g id="a_Node000015"><a xlink:href="structnix_1_1NullSink.html" target="_top" xlink:title=" ">
<polygon fill="white" stroke="#666666" points="200.38,-176.75 122.88,-176.75 122.88,-156 200.38,-156 200.38,-176.75"/>
<text text-anchor="middle" x="161.62" y="-163.25" font-family="Helvetica,sans-Serif" font-size="10.00">nix::NullSink</text>
</a>
</g>
</g>
<!-- Node1&#45;&gt;Node15 -->
<g id="edge16_Node000001_Node000015" class="edge">
<title>Node1&#45;&gt;Node15</title>
<g id="a_edge16_Node000001_Node000015"><a xlink:title=" ">
<path fill="none" stroke="#63b8ff" d="M69.47,-179.63C86.26,-177.19 105.77,-174.35 122.42,-171.93"/>
<polygon fill="#63b8ff" stroke="#63b8ff" points="69.23,-176.13 59.84,-181.03 70.24,-183.06 69.23,-176.13"/>
</a>
</g>
</g>
<!-- Node16 -->
<g id="Node000016" class="node">
<title>Node16</title>
<g id="a_Node000016"><a xlink:href="classnix_1_1RefScanSink.html" target="_top" xlink:title=" ">
<polygon fill="white" stroke="#bfbfbf" points="210.5,-137.75 112.75,-137.75 112.75,-117 210.5,-117 210.5,-137.75"/>
<text text-anchor="middle" x="161.62" y="-124.25" font-family="Helvetica,sans-Serif" font-size="10.00">nix::RefScanSink</text>
</a>
</g>
</g>
<!-- Node1&#45;&gt;Node16 -->
<g id="edge17_Node000001_Node000016" class="edge">
<title>Node1&#45;&gt;Node16</title>
<g id="a_edge17_Node000001_Node000016"><a xlink:title=" ">
<path fill="none" stroke="#63b8ff" d="M55.11,-168.53C66.61,-161.33 80.64,-153.24 94,-147.38 101.85,-143.93 110.47,-140.85 118.83,-138.21"/>
<polygon fill="#63b8ff" stroke="#63b8ff" points="53.52,-165.39 47,-173.74 57.3,-171.28 53.52,-165.39"/>
</a>
</g>
</g>
<!-- Node18 -->
<g id="Node000018" class="node">
<title>Node18</title>
<g id="a_Node000018"><a xlink:href="structnix_1_1StringSink.html" target="_top" xlink:title=" ">
<polygon fill="white" stroke="#666666" points="204.88,-98.75 118.38,-98.75 118.38,-78 204.88,-78 204.88,-98.75"/>
<text text-anchor="middle" x="161.62" y="-85.25" font-family="Helvetica,sans-Serif" font-size="10.00">nix::StringSink</text>
</a>
</g>
</g>
<!-- Node1&#45;&gt;Node18 -->
<g id="edge19_Node000001_Node000018" class="edge">
<title>Node1&#45;&gt;Node18</title>
<g id="a_edge19_Node000001_Node000018"><a xlink:title=" ">
<path fill="none" stroke="#63b8ff" d="M41.79,-165.41C53.09,-147.95 71.7,-123.13 94,-108.38 101.25,-103.58 109.69,-99.9 118.08,-97.08"/>
<polygon fill="#63b8ff" stroke="#63b8ff" points="39.12,-163.09 36.81,-173.43 45.06,-166.79 39.12,-163.09"/>
</a>
</g>
</g>
<!-- Node19 -->
<g id="Node000019" class="node">
<title>Node19</title>
<g id="a_Node000019"><a xlink:href="structnix_1_1TeeSink.html" target="_top" xlink:title=" ">
<polygon fill="white" stroke="#666666" points="198.88,-59.75 124.38,-59.75 124.38,-39 198.88,-39 198.88,-59.75"/>
<text text-anchor="middle" x="161.62" y="-46.25" font-family="Helvetica,sans-Serif" font-size="10.00">nix::TeeSink</text>
</a>
</g>
</g>
<!-- Node1&#45;&gt;Node19 -->
<g id="edge20_Node000001_Node000019" class="edge">
<title>Node1&#45;&gt;Node19</title>
<g id="a_edge20_Node000001_Node000019"><a xlink:title=" ">
<path fill="none" stroke="#63b8ff" d="M36.37,-163.64C45.14,-137.5 63.41,-94.07 94,-69.38 102.55,-62.47 113.44,-57.95 123.93,-54.99"/>
<polygon fill="#63b8ff" stroke="#63b8ff" points="33.03,-162.58 33.37,-173.17 39.71,-164.69 33.03,-162.58"/>
</a>
</g>
</g>
<!-- Node20 -->
<g id="Node000020" class="node">
<title>Node20</title>
<g id="a_Node000020"><a xlink:href="structnix_1_1daemon_1_1TunnelSink.html" target="_top" xlink:title=" ">
<polygon fill="white" stroke="#bfbfbf" points="229.25,-20.75 94,-20.75 94,0 229.25,0 229.25,-20.75"/>
<text text-anchor="middle" x="161.62" y="-7.25" font-family="Helvetica,sans-Serif" font-size="10.00">nix::daemon::TunnelSink</text>
</a>
</g>
</g>
<!-- Node1&#45;&gt;Node20 -->
<g id="edge21_Node000001_Node000020" class="edge">
<title>Node1&#45;&gt;Node20</title>
<g id="a_edge21_Node000001_Node000020"><a xlink:title=" ">
<path fill="none" stroke="#63b8ff" d="M33.04,-163.29C38.82,-129.73 54.56,-66.05 94,-30.38 98.12,-26.65 102.91,-23.61 108,-21.15"/>
<polygon fill="#63b8ff" stroke="#63b8ff" points="29.6,-162.64 31.51,-173.06 36.51,-163.71 29.6,-162.64"/>
</a>
</g>
</g>
<!-- Node3 -->
<g id="Node000003" class="node">
<title>Node3</title>
<g id="a_Node000003"><a xlink:href="classnix_1_1HashSink.html" target="_top" xlink:title=" ">
<polygon fill="white" stroke="#bfbfbf" points="367.5,-371.75 284.75,-371.75 284.75,-351 367.5,-351 367.5,-371.75"/>
<text text-anchor="middle" x="326.12" y="-358.25" font-family="Helvetica,sans-Serif" font-size="10.00">nix::HashSink</text>
</a>
</g>
</g>
<!-- Node2&#45;&gt;Node3 -->
<g id="edge2_Node000002_Node000003" class="edge">
<title>Node2&#45;&gt;Node3</title>
<g id="a_edge2_Node000002_Node000003"><a xlink:title=" ">
<path fill="none" stroke="#63b8ff" d="M234.71,-361.38C251.79,-361.38 269.43,-361.38 284.53,-361.38"/>
<polygon fill="#63b8ff" stroke="#63b8ff" points="235.11,-357.88 225.11,-361.38 235.11,-364.88 235.11,-357.88"/>
</a>
</g>
</g>
<!-- Node4&#45;&gt;Node3 -->
<g id="edge11_Node000004_Node000003" class="edge">
<title>Node4&#45;&gt;Node3</title>
<g id="a_edge11_Node000004_Node000003"><a xlink:title=" ">
<path fill="none" stroke="#63b8ff" d="M220.15,-298.47C223.3,-299.97 226.36,-301.6 229.25,-303.38 249.06,-315.58 245.63,-328.87 265.25,-341.38 271.07,-345.09 277.66,-348.18 284.27,-350.74"/>
<polygon fill="#63b8ff" stroke="#63b8ff" points="221.81,-295.38 211.23,-294.75 219.11,-301.83 221.81,-295.38"/>
</a>
</g>
</g>
<!-- Node5 -->
<g id="Node000005" class="node">
<title>Node5</title>
<g id="a_Node000005"><a xlink:href="structnix_1_1CompressionSink.html" target="_top" xlink:title=" ">
<polygon fill="white" stroke="#bfbfbf" points="387,-332.75 265.25,-332.75 265.25,-312 387,-312 387,-332.75"/>
<text text-anchor="middle" x="326.12" y="-319.25" font-family="Helvetica,sans-Serif" font-size="10.00">nix::CompressionSink</text>
</a>
</g>
</g>
<!-- Node4&#45;&gt;Node5 -->
<g id="edge4_Node000004_Node000005" class="edge">
<title>Node4&#45;&gt;Node5</title>
<g id="a_edge4_Node000004_Node000005"><a xlink:title=" ">
<path fill="none" stroke="#63b8ff" d="M218.99,-296.9C238.88,-301.68 260.97,-306.98 279.82,-311.5"/>
<polygon fill="#63b8ff" stroke="#63b8ff" points="219.9,-293.52 209.36,-294.59 218.27,-300.33 219.9,-293.52"/>
</a>
</g>
</g>
<!-- Node10 -->
<g id="Node000010" class="node">
<title>Node10</title>
<g id="a_Node000010"><a xlink:href="structnix_1_1FdSink.html" target="_top" xlink:title=" ">
<polygon fill="white" stroke="#666666" points="361.12,-254.75 291.12,-254.75 291.12,-234 361.12,-234 361.12,-254.75"/>
<text text-anchor="middle" x="326.12" y="-241.25" font-family="Helvetica,sans-Serif" font-size="10.00">nix::FdSink</text>
</a>
</g>
</g>
<!-- Node4&#45;&gt;Node10 -->
<g id="edge9_Node000004_Node000010" class="edge">
<title>Node4&#45;&gt;Node10</title>
<g id="a_edge9_Node000004_Node000010"><a xlink:title=" ">
<path fill="none" stroke="#63b8ff" d="M218.95,-269.86C242.81,-264.13 269.85,-257.64 290.66,-252.65"/>
<polygon fill="#63b8ff" stroke="#63b8ff" points="218.27,-266.42 209.36,-272.16 219.9,-273.23 218.27,-266.42"/>
</a>
</g>
</g>
<!-- Node11 -->
<g id="Node000011" class="node">
<title>Node11</title>
<g id="a_Node000011"><a xlink:href="structnix_1_1FramedSink.html" target="_top" xlink:title=" ">
<polygon fill="white" stroke="#666666" points="373.5,-293.75 278.75,-293.75 278.75,-273 373.5,-273 373.5,-293.75"/>
<text text-anchor="middle" x="326.12" y="-280.25" font-family="Helvetica,sans-Serif" font-size="10.00">nix::FramedSink</text>
</a>
</g>
</g>
<!-- Node4&#45;&gt;Node11 -->
<g id="edge10_Node000004_Node000011" class="edge">
<title>Node4&#45;&gt;Node11</title>
<g id="a_edge10_Node000004_Node000011"><a xlink:title=" ">
<path fill="none" stroke="#63b8ff" d="M222.86,-283.38C241.19,-283.38 261.05,-283.38 278.36,-283.38"/>
<polygon fill="#63b8ff" stroke="#63b8ff" points="222.89,-279.88 212.89,-283.38 222.89,-286.88 222.89,-279.88"/>
</a>
</g>
</g>
<!-- Node6 -->
<g id="Node000006" class="node">
<title>Node6</title>
<g id="a_Node000006"><a xlink:href="structnix_1_1ArchiveCompressionSink.html" target="_top" xlink:title=" ">
<polygon fill="white" stroke="#bfbfbf" points="584.12,-371.75 425.62,-371.75 425.62,-351 584.12,-351 584.12,-371.75"/>
<text text-anchor="middle" x="504.88" y="-358.25" font-family="Helvetica,sans-Serif" font-size="10.00">nix::ArchiveCompressionSink</text>
</a>
</g>
</g>
<!-- Node5&#45;&gt;Node6 -->
<g id="edge5_Node000005_Node000006" class="edge">
<title>Node5&#45;&gt;Node6</title>
<g id="a_edge5_Node000005_Node000006"><a xlink:title=" ">
<path fill="none" stroke="#63b8ff" d="M387.53,-335.7C409.39,-340.53 433.8,-345.91 454.6,-350.5"/>
<polygon fill="#63b8ff" stroke="#63b8ff" points="388.36,-332.3 377.84,-333.56 386.85,-339.14 388.36,-332.3"/>
</a>
</g>
</g>
<!-- Node7 -->
<g id="Node000007" class="node">
<title>Node7</title>
<g id="a_Node000007"><a xlink:href="structnix_1_1ChunkedCompressionSink.html" target="_top" xlink:title=" ">
<polygon fill="white" stroke="#bfbfbf" points="586.75,-332.75 423,-332.75 423,-312 586.75,-312 586.75,-332.75"/>
<text text-anchor="middle" x="504.88" y="-319.25" font-family="Helvetica,sans-Serif" font-size="10.00">nix::ChunkedCompressionSink</text>
</a>
</g>
</g>
<!-- Node5&#45;&gt;Node7 -->
<g id="edge6_Node000005_Node000007" class="edge">
<title>Node5&#45;&gt;Node7</title>
<g id="a_edge6_Node000005_Node000007"><a xlink:title=" ">
<path fill="none" stroke="#63b8ff" d="M398.77,-322.38C406.6,-322.38 414.62,-322.38 422.56,-322.38"/>
<polygon fill="#63b8ff" stroke="#63b8ff" points="398.97,-318.88 388.97,-322.38 398.97,-325.88 398.97,-318.88"/>
</a>
</g>
</g>
<!-- Node9 -->
<g id="Node000009" class="node">
<title>Node9</title>
<g id="a_Node000009"><a xlink:href="structnix_1_1NoneSink.html" target="_top" xlink:title=" ">
<polygon fill="white" stroke="#bfbfbf" points="546.62,-293.75 463.12,-293.75 463.12,-273 546.62,-273 546.62,-293.75"/>
<text text-anchor="middle" x="504.88" y="-280.25" font-family="Helvetica,sans-Serif" font-size="10.00">nix::NoneSink</text>
</a>
</g>
</g>
<!-- Node5&#45;&gt;Node9 -->
<g id="edge8_Node000005_Node000009" class="edge">
<title>Node5&#45;&gt;Node9</title>
<g id="a_edge8_Node000005_Node000009"><a xlink:title=" ">
<path fill="none" stroke="#63b8ff" d="M387.48,-309.06C412.26,-303.59 440.31,-297.4 462.67,-292.47"/>
<polygon fill="#63b8ff" stroke="#63b8ff" points="386.85,-305.61 377.84,-311.19 388.36,-312.45 386.85,-305.61"/>
</a>
</g>
</g>
<!-- Node8 -->
<g id="Node000008" class="node">
<title>Node8</title>
<g id="a_Node000008"><a xlink:href="structnix_1_1BrotliCompressionSink.html" target="_top" xlink:title=" ">
<polygon fill="white" stroke="#bfbfbf" points="770.75,-332.75 622.75,-332.75 622.75,-312 770.75,-312 770.75,-332.75"/>
<text text-anchor="middle" x="696.75" y="-319.25" font-family="Helvetica,sans-Serif" font-size="10.00">nix::BrotliCompressionSink</text>
</a>
</g>
</g>
<!-- Node7&#45;&gt;Node8 -->
<g id="edge7_Node000007_Node000008" class="edge">
<title>Node7&#45;&gt;Node8</title>
<g id="a_edge7_Node000007_Node000008"><a xlink:title=" ">
<path fill="none" stroke="#63b8ff" d="M598.51,-322.38C606.51,-322.38 614.54,-322.38 622.37,-322.38"/>
<polygon fill="#63b8ff" stroke="#63b8ff" points="598.74,-318.88 588.74,-322.38 598.74,-325.88 598.74,-318.88"/>
</a>
</g>
</g>
<!-- Node12&#45;&gt;Node5 -->
<g id="edge13_Node000012_Node000005" class="edge">
<title>Node12&#45;&gt;Node5</title>
<g id="a_edge13_Node000012_Node000005"><a xlink:title=" ">
<path fill="none" stroke="#63b8ff" d="M216.81,-322.38C232.27,-322.38 249.21,-322.38 265,-322.38"/>
<polygon fill="#63b8ff" stroke="#63b8ff" points="216.83,-318.88 206.83,-322.38 216.83,-325.88 216.83,-318.88"/>
</a>
</g>
</g>
<!-- Node17 -->
<g id="Node000017" class="node">
<title>Node17</title>
<g id="a_Node000017"><a xlink:href="classnix_1_1PathRefScanSink.html" target="_top" xlink:title=" ">
<polygon fill="white" stroke="#bfbfbf" points="385.5,-137.75 266.75,-137.75 266.75,-117 385.5,-117 385.5,-137.75"/>
<text text-anchor="middle" x="326.12" y="-124.25" font-family="Helvetica,sans-Serif" font-size="10.00">nix::PathRefScanSink</text>
</a>
</g>
</g>
<!-- Node16&#45;&gt;Node17 -->
<g id="edge18_Node000016_Node000017" class="edge">
<title>Node16&#45;&gt;Node17</title>
<g id="a_edge18_Node000016_Node000017"><a xlink:title=" ">
<path fill="none" stroke="#63b8ff" d="M222.24,-127.38C236.63,-127.38 252.01,-127.38 266.36,-127.38"/>
<polygon fill="#63b8ff" stroke="#63b8ff" points="222.45,-123.88 212.45,-127.38 222.45,-130.88 222.45,-123.88"/>
</a>
</g>
</g>
</g>
</svg>
