<?xml version="1.0" encoding="UTF-8" standalone="no"?>
<!DOCTYPE svg PUBLIC "-//W3C//DTD SVG 1.1//EN"
 "http://www.w3.org/Graphics/SVG/1.1/DTD/svg11.dtd">
<!-- Generated by graphviz version 12.2.1 (0)
 -->
<!-- Title: nix::CmdFlakeCheck Pages: 1 -->
<svg width="319pt" height="369pt"
 viewBox="0.00 0.00 319.12 369.25" xmlns="http://www.w3.org/2000/svg" xmlns:xlink="http://www.w3.org/1999/xlink">
<g id="graph0" class="graph" transform="scale(1 1) rotate(0) translate(4 365.25)">
<title>nix::CmdFlakeCheck</title>
<!-- Node1 -->
<g id="Node000001" class="node">
<title>Node1</title>
<g id="a_Node000001"><a xlink:title=" ">
<polygon fill="#999999" stroke="#666666" points="115.75,-20.75 0,-20.75 0,0 115.75,0 115.75,-20.75"/>
<text text-anchor="middle" x="57.88" y="-7.25" font-family="Helvetica,sans-Serif" font-size="10.00">nix::CmdFlakeCheck</text>
</a>
</g>
</g>
<!-- Node2 -->
<g id="Node000002" class="node">
<title>Node2</title>
<g id="a_Node000002"><a xlink:href="classnix_1_1FlakeCommand.html" target="_top" xlink:title=" ">
<polygon fill="white" stroke="#bfbfbf" points="114.62,-77.5 1.12,-77.5 1.12,-56.75 114.62,-56.75 114.62,-77.5"/>
<text text-anchor="middle" x="57.88" y="-64" font-family="Helvetica,sans-Serif" font-size="10.00">nix::FlakeCommand</text>
</a>
</g>
</g>
<!-- Node2&#45;&gt;Node1 -->
<g id="edge1_Node000001_Node000002" class="edge">
<title>Node2&#45;&gt;Node1</title>
<g id="a_edge1_Node000001_Node000002"><a xlink:title=" ">
<path fill="none" stroke="#63b8ff" d="M57.88,-44.88C57.88,-36.66 57.88,-27.68 57.88,-21.08"/>
<polygon fill="#63b8ff" stroke="#63b8ff" points="54.38,-44.82 57.88,-54.82 61.38,-44.82 54.38,-44.82"/>
</a>
</g>
</g>
<!-- Node3 -->
<g id="Node000003" class="node">
<title>Node3</title>
<g id="a_Node000003"><a xlink:href="classnix_1_1Args.html" target="_top" xlink:title=" ">
<polygon fill="white" stroke="#bfbfbf" points="154.25,-361.25 95.5,-361.25 95.5,-340.5 154.25,-340.5 154.25,-361.25"/>
<text text-anchor="middle" x="124.88" y="-347.75" font-family="Helvetica,sans-Serif" font-size="10.00">nix::Args</text>
</a>
</g>
</g>
<!-- Node3&#45;&gt;Node2 -->
<g id="edge2_Node000002_Node000003" class="edge">
<title>Node3&#45;&gt;Node2</title>
<g id="a_edge2_Node000002_Node000003"><a xlink:title=" ">
<path fill="none" stroke="#63b8ff" d="M93.4,-334.82C60.89,-316.83 14.88,-283.4 14.88,-238.38 14.88,-238.38 14.88,-238.38 14.88,-179.62 14.88,-139.58 39.32,-96.54 51.34,-77.78"/>
<polygon fill="#63b8ff" stroke="#63b8ff" points="91.59,-337.82 102.07,-339.41 94.87,-331.64 91.59,-337.82"/>
</a>
</g>
</g>
<!-- Node4 -->
<g id="Node000004" class="node">
<title>Node4</title>
<g id="a_Node000004"><a xlink:href="structnix_1_1MixFlakeOptions.html" target="_top" xlink:title=" ">
<polygon fill="white" stroke="#666666" points="161.25,-134.25 42.5,-134.25 42.5,-113.5 161.25,-113.5 161.25,-134.25"/>
<text text-anchor="middle" x="101.88" y="-120.75" font-family="Helvetica,sans-Serif" font-size="10.00">nix::MixFlakeOptions</text>
</a>
</g>
</g>
<!-- Node3&#45;&gt;Node4 -->
<g id="edge4_Node000004_Node000003" class="edge">
<title>Node3&#45;&gt;Node4</title>
<g id="a_edge4_Node000004_Node000003"><a xlink:title=" ">
<path fill="none" stroke="#63b8ff" d="M97.38,-333.59C87.41,-326.1 77.29,-316.26 71.88,-304.5 46.92,-250.29 56.58,-227.36 73.88,-170.25 77.95,-156.78 87.06,-143.31 93.79,-134.59"/>
<polygon fill="#63b8ff" stroke="#63b8ff" points="95.25,-336.38 105.47,-339.17 99.23,-330.61 95.25,-336.38"/>
</a>
</g>
</g>
<!-- Node7 -->
<g id="Node000007" class="node">
<title>Node7</title>
<g id="a_Node000007"><a xlink:href="structnix_1_1Command.html" target="_top" xlink:title=" ">
<polygon fill="white" stroke="#666666" points="168.5,-304.5 81.25,-304.5 81.25,-283.75 168.5,-283.75 168.5,-304.5"/>
<text text-anchor="middle" x="124.88" y="-291" font-family="Helvetica,sans-Serif" font-size="10.00">nix::Command</text>
</a>
</g>
</g>
<!-- Node3&#45;&gt;Node7 -->
<g id="edge8_Node000007_Node000003" class="edge">
<title>Node3&#45;&gt;Node7</title>
<g id="a_edge8_Node000007_Node000003"><a xlink:title=" ">
<path fill="none" stroke="#63b8ff" d="M124.88,-328.63C124.88,-320.41 124.88,-311.43 124.88,-304.83"/>
<polygon fill="#63b8ff" stroke="#63b8ff" points="121.38,-328.57 124.88,-338.57 128.38,-328.57 121.38,-328.57"/>
</a>
</g>
</g>
<!-- Node8 -->
<g id="Node000008" class="node">
<title>Node8</title>
<g id="a_Node000008"><a xlink:href="structnix_1_1MixEvalArgs.html" target="_top" xlink:title=" ">
<polygon fill="white" stroke="#bfbfbf" points="308.75,-247.75 211,-247.75 211,-227 308.75,-227 308.75,-247.75"/>
<text text-anchor="middle" x="259.88" y="-234.25" font-family="Helvetica,sans-Serif" font-size="10.00">nix::MixEvalArgs</text>
</a>
</g>
</g>
<!-- Node3&#45;&gt;Node8 -->
<g id="edge10_Node000008_Node000003" class="edge">
<title>Node3&#45;&gt;Node8</title>
<g id="a_edge10_Node000008_Node000003"><a xlink:title=" ">
<path fill="none" stroke="#63b8ff" d="M145.13,-333.14C173.7,-309.55 224.92,-267.25 248.01,-248.18"/>
<polygon fill="#63b8ff" stroke="#63b8ff" points="143.03,-330.34 137.55,-339.4 147.49,-335.74 143.03,-330.34"/>
</a>
</g>
</g>
<!-- Node9 -->
<g id="Node000009" class="node">
<title>Node9</title>
<g id="a_Node000009"><a xlink:href="structnix_1_1MixRepair.html" target="_top" xlink:title=" ">
<polygon fill="white" stroke="#bfbfbf" points="311.12,-304.5 224.62,-304.5 224.62,-283.75 311.12,-283.75 311.12,-304.5"/>
<text text-anchor="middle" x="267.88" y="-291" font-family="Helvetica,sans-Serif" font-size="10.00">nix::MixRepair</text>
</a>
</g>
</g>
<!-- Node3&#45;&gt;Node9 -->
<g id="edge12_Node000009_Node000003" class="edge">
<title>Node3&#45;&gt;Node9</title>
<g id="a_edge12_Node000009_Node000003"><a xlink:title=" ">
<path fill="none" stroke="#63b8ff" d="M161.15,-335.99C186.58,-326.25 219.93,-313.48 242.53,-304.83"/>
<polygon fill="#63b8ff" stroke="#63b8ff" points="159.94,-332.7 151.85,-339.55 162.44,-339.24 159.94,-332.7"/>
</a>
</g>
</g>
<!-- Node4&#45;&gt;Node2 -->
<g id="edge3_Node000002_Node000004" class="edge">
<title>Node4&#45;&gt;Node2</title>
<g id="a_edge3_Node000002_Node000004"><a xlink:title=" ">
<path fill="none" stroke="#63b8ff" d="M86.87,-104.21C79.75,-95.34 71.54,-85.12 65.67,-77.83"/>
<polygon fill="#63b8ff" stroke="#63b8ff" points="84.07,-106.3 93.06,-111.91 89.52,-101.92 84.07,-106.3"/>
</a>
</g>
</g>
<!-- Node5 -->
<g id="Node000005" class="node">
<title>Node5</title>
<g id="a_Node000005"><a xlink:href="structnix_1_1EvalCommand.html" target="_top" xlink:title=" ">
<polygon fill="white" stroke="#666666" points="191,-191 82.75,-191 82.75,-170.25 191,-170.25 191,-191"/>
<text text-anchor="middle" x="136.88" y="-177.5" font-family="Helvetica,sans-Serif" font-size="10.00">nix::EvalCommand</text>
</a>
</g>
</g>
<!-- Node5&#45;&gt;Node4 -->
<g id="edge5_Node000004_Node000005" class="edge">
<title>Node5&#45;&gt;Node4</title>
<g id="a_edge5_Node000004_Node000005"><a xlink:title=" ">
<path fill="none" stroke="#63b8ff" d="M124.58,-160.39C119,-151.66 112.64,-141.72 108.08,-134.58"/>
<polygon fill="#63b8ff" stroke="#63b8ff" points="121.47,-162.02 129.8,-168.56 127.37,-158.25 121.47,-162.02"/>
</a>
</g>
</g>
<!-- Node6 -->
<g id="Node000006" class="node">
<title>Node6</title>
<g id="a_Node000006"><a xlink:href="structnix_1_1StoreCommand.html" target="_top" xlink:title=" ">
<polygon fill="white" stroke="#666666" points="193.25,-247.75 80.5,-247.75 80.5,-227 193.25,-227 193.25,-247.75"/>
<text text-anchor="middle" x="136.88" y="-234.25" font-family="Helvetica,sans-Serif" font-size="10.00">nix::StoreCommand</text>
</a>
</g>
</g>
<!-- Node6&#45;&gt;Node5 -->
<g id="edge6_Node000005_Node000006" class="edge">
<title>Node6&#45;&gt;Node5</title>
<g id="a_edge6_Node000005_Node000006"><a xlink:title=" ">
<path fill="none" stroke="#63b8ff" d="M136.88,-215.13C136.88,-206.91 136.88,-197.93 136.88,-191.33"/>
<polygon fill="#63b8ff" stroke="#63b8ff" points="133.38,-215.07 136.88,-225.07 140.38,-215.07 133.38,-215.07"/>
</a>
</g>
</g>
<!-- Node7&#45;&gt;Node6 -->
<g id="edge7_Node000006_Node000007" class="edge">
<title>Node7&#45;&gt;Node6</title>
<g id="a_edge7_Node000006_Node000007"><a xlink:title=" ">
<path fill="none" stroke="#63b8ff" d="M129.47,-272.17C131.29,-263.88 133.29,-254.75 134.75,-248.08"/>
<polygon fill="#63b8ff" stroke="#63b8ff" points="126.07,-271.34 127.34,-281.86 132.9,-272.84 126.07,-271.34"/>
</a>
</g>
</g>
<!-- Node8&#45;&gt;Node5 -->
<g id="edge9_Node000005_Node000008" class="edge">
<title>Node8&#45;&gt;Node5</title>
<g id="a_edge9_Node000005_Node000008"><a xlink:title=" ">
<path fill="none" stroke="#63b8ff" d="M227.49,-221.96C205.78,-212.3 177.77,-199.83 158.67,-191.33"/>
<polygon fill="#63b8ff" stroke="#63b8ff" points="225.94,-225.1 236.5,-225.97 228.79,-218.71 225.94,-225.1"/>
</a>
</g>
</g>
<!-- Node9&#45;&gt;Node8 -->
<g id="edge11_Node000008_Node000009" class="edge">
<title>Node9&#45;&gt;Node8</title>
<g id="a_edge11_Node000008_Node000009"><a xlink:title=" ">
<path fill="none" stroke="#63b8ff" d="M264.81,-272.17C263.6,-263.88 262.27,-254.75 261.29,-248.08"/>
<polygon fill="#63b8ff" stroke="#63b8ff" points="261.32,-272.45 266.23,-281.84 268.24,-271.44 261.32,-272.45"/>
</a>
</g>
</g>
</g>
</svg>
