<?xml version="1.0" encoding="UTF-8" standalone="no"?>
<!DOCTYPE svg PUBLIC "-//W3C//DTD SVG 1.1//EN"
 "http://www.w3.org/Graphics/SVG/1.1/DTD/svg11.dtd">
<!-- Generated by graphviz version 12.2.1 (0)
 -->
<!-- Title: nix::GcStore Pages: 1 -->
<svg width="396pt" height="325pt"
 viewBox="0.00 0.00 395.88 325.25" xmlns="http://www.w3.org/2000/svg" xmlns:xlink="http://www.w3.org/1999/xlink">
<g id="graph0" class="graph" transform="scale(1 1) rotate(0) translate(4 321.25)">
<title>nix::GcStore</title>
<!-- Node1 -->
<g id="Node000001" class="node">
<title>Node1</title>
<g id="a_Node000001"><a xlink:title=" ">
<polygon fill="#999999" stroke="#666666" points="157.62,-191 82.38,-191 82.38,-170.25 157.62,-170.25 157.62,-191"/>
<text text-anchor="middle" x="120" y="-177.5" font-family="Helvetica,sans-Serif" font-size="10.00">nix::GcStore</text>
</a>
</g>
</g>
<!-- Node4 -->
<g id="Node000004" class="node">
<title>Node4</title>
<g id="a_Node000004"><a xlink:href="classnix_1_1LocalFSStore.html" target="_top" xlink:title=" ">
<polygon fill="white" stroke="#bfbfbf" points="211.62,-134.25 112.38,-134.25 112.38,-113.5 211.62,-113.5 211.62,-134.25"/>
<text text-anchor="middle" x="162" y="-120.75" font-family="Helvetica,sans-Serif" font-size="10.00">nix::LocalFSStore</text>
</a>
</g>
</g>
<!-- Node1&#45;&gt;Node4 -->
<g id="edge3_Node000001_Node000004" class="edge">
<title>Node1&#45;&gt;Node4</title>
<g id="a_edge3_Node000001_Node000004"><a xlink:title=" ">
<path fill="none" stroke="#63b8ff" d="M134.32,-160.96C141.12,-152.09 148.96,-141.87 154.56,-134.58"/>
<polygon fill="#63b8ff" stroke="#63b8ff" points="131.74,-158.57 128.43,-168.64 137.29,-162.83 131.74,-158.57"/>
</a>
</g>
</g>
<!-- Node6 -->
<g id="Node000006" class="node">
<title>Node6</title>
<g id="a_Node000006"><a xlink:href="classnix_1_1LocalStore.html" target="_top" xlink:title=" ">
<polygon fill="white" stroke="#bfbfbf" points="88,-20.75 0,-20.75 0,0 88,0 88,-20.75"/>
<text text-anchor="middle" x="44" y="-7.25" font-family="Helvetica,sans-Serif" font-size="10.00">nix::LocalStore</text>
</a>
</g>
</g>
<!-- Node1&#45;&gt;Node6 -->
<g id="edge8_Node000001_Node000006" class="edge">
<title>Node1&#45;&gt;Node6</title>
<g id="a_edge8_Node000001_Node000006"><a xlink:title=" ">
<path fill="none" stroke="#63b8ff" d="M105.14,-160.99C99.28,-153.06 92.81,-143.51 88,-134.25 67.22,-94.23 52.16,-42.18 46.48,-20.99"/>
<polygon fill="#63b8ff" stroke="#63b8ff" points="102.28,-163.02 111.15,-168.83 107.84,-158.76 102.28,-163.02"/>
</a>
</g>
</g>
<!-- Node7 -->
<g id="Node000007" class="node">
<title>Node7</title>
<g id="a_Node000007"><a xlink:href="structnix_1_1RestrictedStore.html" target="_top" xlink:title=" ">
<polygon fill="white" stroke="#bfbfbf" points="220,-20.75 108,-20.75 108,0 220,0 220,-20.75"/>
<text text-anchor="middle" x="164" y="-7.25" font-family="Helvetica,sans-Serif" font-size="10.00">nix::RestrictedStore</text>
</a>
</g>
</g>
<!-- Node1&#45;&gt;Node7 -->
<g id="edge12_Node000001_Node000007" class="edge">
<title>Node1&#45;&gt;Node7</title>
<g id="a_edge12_Node000001_Node000007"><a xlink:title=" ">
<path fill="none" stroke="#63b8ff" d="M108.86,-159.9C96.18,-134.6 79.36,-90 97,-56.75 105.82,-40.12 123.77,-28.47 138.86,-21.14"/>
<polygon fill="#63b8ff" stroke="#63b8ff" points="105.77,-161.54 113.55,-168.73 111.95,-158.25 105.77,-161.54"/>
</a>
</g>
</g>
<!-- Node9 -->
<g id="Node000009" class="node">
<title>Node9</title>
<g id="a_Node000009"><a xlink:href="classnix_1_1RemoteStore.html" target="_top" xlink:title=" ">
<polygon fill="white" stroke="#666666" points="337.38,-134.25 236.62,-134.25 236.62,-113.5 337.38,-113.5 337.38,-134.25"/>
<text text-anchor="middle" x="287" y="-120.75" font-family="Helvetica,sans-Serif" font-size="10.00">nix::RemoteStore</text>
</a>
</g>
</g>
<!-- Node1&#45;&gt;Node9 -->
<g id="edge9_Node000001_Node000009" class="edge">
<title>Node1&#45;&gt;Node9</title>
<g id="a_edge9_Node000001_Node000009"><a xlink:title=" ">
<path fill="none" stroke="#63b8ff" d="M160.74,-166.27C190.52,-156.51 230.24,-143.48 257.12,-134.67"/>
<polygon fill="#63b8ff" stroke="#63b8ff" points="159.71,-162.92 151.29,-169.37 161.89,-169.58 159.71,-162.92"/>
</a>
</g>
</g>
<!-- Node2 -->
<g id="Node000002" class="node">
<title>Node2</title>
<g id="a_Node000002"><a xlink:href="classnix_1_1Store.html" target="_top" xlink:title=" ">
<polygon fill="white" stroke="#bfbfbf" points="151.25,-247.75 88.75,-247.75 88.75,-227 151.25,-227 151.25,-247.75"/>
<text text-anchor="middle" x="120" y="-234.25" font-family="Helvetica,sans-Serif" font-size="10.00">nix::Store</text>
</a>
</g>
</g>
<!-- Node2&#45;&gt;Node1 -->
<g id="edge1_Node000001_Node000002" class="edge">
<title>Node2&#45;&gt;Node1</title>
<g id="a_edge1_Node000001_Node000002"><a xlink:title=" ">
<path fill="none" stroke="#63b8ff" d="M120,-215.13C120,-206.91 120,-197.93 120,-191.33"/>
<polygon fill="#63b8ff" stroke="#63b8ff" points="116.5,-215.07 120,-225.07 123.5,-215.07 116.5,-215.07"/>
</a>
</g>
</g>
<!-- Node3 -->
<g id="Node000003" class="node">
<title>Node3</title>
<g id="a_Node000003"><a xlink:title=" ">
<polygon fill="white" stroke="#bfbfbf" points="177.88,-317.25 62.12,-317.25 62.12,-283.75 177.88,-283.75 177.88,-317.25"/>
<text text-anchor="start" x="70.12" y="-303.75" font-family="Helvetica,sans-Serif" font-size="10.00">std::enable_shared</text>
<text text-anchor="middle" x="120" y="-291" font-family="Helvetica,sans-Serif" font-size="10.00">_from_this&lt; Store &gt;</text>
</a>
</g>
</g>
<!-- Node3&#45;&gt;Node2 -->
<g id="edge2_Node000002_Node000003" class="edge">
<title>Node3&#45;&gt;Node2</title>
<g id="a_edge2_Node000002_Node000003"><a xlink:title=" ">
<path fill="none" stroke="#63b8ff" d="M120,-271.94C120,-263.46 120,-254.67 120,-248.22"/>
<polygon fill="#63b8ff" stroke="#63b8ff" points="116.5,-271.93 120,-281.93 123.5,-271.93 116.5,-271.93"/>
</a>
</g>
</g>
<!-- Node5 -->
<g id="Node000005" class="node">
<title>Node5</title>
<g id="a_Node000005"><a xlink:href="structnix_1_1IndirectRootStore.html" target="_top" xlink:title=" ">
<polygon fill="white" stroke="#666666" points="227.88,-77.5 106.12,-77.5 106.12,-56.75 227.88,-56.75 227.88,-77.5"/>
<text text-anchor="middle" x="167" y="-64" font-family="Helvetica,sans-Serif" font-size="10.00">nix::IndirectRootStore</text>
</a>
</g>
</g>
<!-- Node4&#45;&gt;Node5 -->
<g id="edge4_Node000004_Node000005" class="edge">
<title>Node4&#45;&gt;Node5</title>
<g id="a_edge4_Node000004_Node000005"><a xlink:title=" ">
<path fill="none" stroke="#63b8ff" d="M163.94,-101.63C164.69,-93.41 165.51,-84.43 166.11,-77.83"/>
<polygon fill="#63b8ff" stroke="#63b8ff" points="160.46,-101.3 163.03,-111.58 167.43,-101.94 160.46,-101.3"/>
</a>
</g>
</g>
<!-- Node5&#45;&gt;Node6 -->
<g id="edge5_Node000005_Node000006" class="edge">
<title>Node5&#45;&gt;Node6</title>
<g id="a_edge5_Node000005_Node000006"><a xlink:title=" ">
<path fill="none" stroke="#63b8ff" d="M134.62,-51.71C112.9,-42.05 84.89,-29.58 65.8,-21.08"/>
<polygon fill="#63b8ff" stroke="#63b8ff" points="133.07,-54.85 143.63,-55.72 135.91,-48.46 133.07,-54.85"/>
</a>
</g>
</g>
<!-- Node5&#45;&gt;Node7 -->
<g id="edge6_Node000005_Node000007" class="edge">
<title>Node5&#45;&gt;Node7</title>
<g id="a_edge6_Node000005_Node000007"><a xlink:title=" ">
<path fill="none" stroke="#63b8ff" d="M165.84,-44.88C165.39,-36.66 164.89,-27.68 164.53,-21.08"/>
<polygon fill="#63b8ff" stroke="#63b8ff" points="162.34,-45.03 166.38,-54.83 169.33,-44.65 162.34,-45.03"/>
</a>
</g>
</g>
<!-- Node8 -->
<g id="Node000008" class="node">
<title>Node8</title>
<g id="a_Node000008"><a xlink:href="classnix_1_1UDSRemoteStore.html" target="_top" xlink:title=" ">
<polygon fill="white" stroke="#bfbfbf" points="387.88,-20.75 266.12,-20.75 266.12,0 387.88,0 387.88,-20.75"/>
<text text-anchor="middle" x="327" y="-7.25" font-family="Helvetica,sans-Serif" font-size="10.00">nix::UDSRemoteStore</text>
</a>
</g>
</g>
<!-- Node5&#45;&gt;Node8 -->
<g id="edge7_Node000005_Node000008" class="edge">
<title>Node5&#45;&gt;Node8</title>
<g id="a_edge7_Node000005_Node000008"><a xlink:title=" ">
<path fill="none" stroke="#63b8ff" d="M206.41,-52.64C234.9,-42.89 272.74,-29.94 298.37,-21.17"/>
<polygon fill="#63b8ff" stroke="#63b8ff" points="205.37,-49.3 197.04,-55.85 207.63,-55.92 205.37,-49.3"/>
</a>
</g>
</g>
<!-- Node9&#45;&gt;Node8 -->
<g id="edge11_Node000009_Node000008" class="edge">
<title>Node9&#45;&gt;Node8</title>
<g id="a_edge11_Node000009_Node000008"><a xlink:title=" ">
<path fill="none" stroke="#63b8ff" d="M312.67,-106.52C322.17,-98.96 331.87,-89.08 337,-77.5 345.28,-58.82 337.45,-34.57 331.74,-21.24"/>
<polygon fill="#63b8ff" stroke="#63b8ff" points="310.65,-103.67 304.63,-112.39 314.77,-109.32 310.65,-103.67"/>
</a>
</g>
</g>
<!-- Node10 -->
<g id="Node000010" class="node">
<title>Node10</title>
<g id="a_Node000010"><a xlink:href="classnix_1_1SSHStore.html" target="_top" xlink:title=" ">
<polygon fill="white" stroke="#bfbfbf" points="328,-77.5 246,-77.5 246,-56.75 328,-56.75 328,-77.5"/>
<text text-anchor="middle" x="287" y="-64" font-family="Helvetica,sans-Serif" font-size="10.00">nix::SSHStore</text>
</a>
</g>
</g>
<!-- Node9&#45;&gt;Node10 -->
<g id="edge10_Node000009_Node000010" class="edge">
<title>Node9&#45;&gt;Node10</title>
<g id="a_edge10_Node000009_Node000010"><a xlink:title=" ">
<path fill="none" stroke="#63b8ff" d="M287,-101.63C287,-93.41 287,-84.43 287,-77.83"/>
<polygon fill="#63b8ff" stroke="#63b8ff" points="283.5,-101.57 287,-111.57 290.5,-101.57 283.5,-101.57"/>
</a>
</g>
</g>
</g>
</svg>
