<?xml version="1.0" encoding="UTF-8" standalone="no"?>
<!DOCTYPE svg PUBLIC "-//W3C//DTD SVG 1.1//EN"
 "http://www.w3.org/Graphics/SVG/1.1/DTD/svg11.dtd">
<!-- Generated by graphviz version 12.2.1 (0)
 -->
<!-- Title: nix::ExprPos Pages: 1 -->
<svg width="84pt" height="156pt"
 viewBox="0.00 0.00 84.00 156.00" xmlns="http://www.w3.org/2000/svg" xmlns:xlink="http://www.w3.org/1999/xlink">
<g id="graph0" class="graph" transform="scale(1 1) rotate(0) translate(4 152)">
<title>nix::ExprPos</title>
<!-- Node1 -->
<g id="Node000001" class="node">
<title>Node1</title>
<g id="a_Node000001"><a xlink:title=" ">
<polygon fill="#999999" stroke="#666666" points="76,-20.75 0,-20.75 0,0 76,0 76,-20.75"/>
<text text-anchor="middle" x="38" y="-7.25" font-family="Helvetica,sans-Serif" font-size="10.00">nix::ExprPos</text>
</a>
</g>
</g>
<!-- Node2 -->
<g id="Node000002" class="node">
<title>Node2</title>
<g id="a_Node000002"><a xlink:href="structnix_1_1Expr.html" target="_top" xlink:title=" ">
<polygon fill="white" stroke="#bfbfbf" points="67.38,-78.5 8.62,-78.5 8.62,-57.75 67.38,-57.75 67.38,-78.5"/>
<text text-anchor="middle" x="38" y="-65" font-family="Helvetica,sans-Serif" font-size="10.00">nix::Expr</text>
</a>
</g>
</g>
<!-- Node2&#45;&gt;Node1 -->
<g id="edge1_Node000001_Node000002" class="edge">
<title>Node2&#45;&gt;Node1</title>
<g id="a_edge1_Node000001_Node000002"><a xlink:title=" ">
<path fill="none" stroke="#63b8ff" d="M38,-46.18C38,-37.52 38,-27.9 38,-20.97"/>
<polygon fill="#63b8ff" stroke="#63b8ff" points="34.5,-45.9 38,-55.9 41.5,-45.9 34.5,-45.9"/>
</a>
</g>
</g>
<!-- Node3 -->
<g id="Node000003" class="node">
<title>Node3</title>
<g id="a_Node000003"><a xlink:href="classnix_1_1PosIdx.html" target="_top" xlink:title=" ">
<polygon fill="white" stroke="#bfbfbf" points="72.62,-148 3.38,-148 3.38,-127.25 72.62,-127.25 72.62,-148"/>
<text text-anchor="middle" x="38" y="-134.5" font-family="Helvetica,sans-Serif" font-size="10.00">nix::PosIdx</text>
</a>
</g>
</g>
<!-- Node3&#45;&gt;Node2 -->
<g id="edge2_Node000002_Node000003" class="edge">
<title>Node3&#45;&gt;Node2</title>
<g id="a_edge2_Node000002_Node000003"><a xlink:title=" ">
<path fill="none" stroke="#9a32cd" stroke-dasharray="5,2" d="M38,-115.82C38,-103.47 38,-88.4 38,-78.78"/>
<polygon fill="#9a32cd" stroke="#9a32cd" points="34.5,-115.44 38,-125.44 41.5,-115.44 34.5,-115.44"/>
</a>
</g>
<text text-anchor="middle" x="48.12" y="-99.75" font-family="Helvetica,sans-Serif" font-size="10.00" fill="grey"> pos</text>
</g>
</g>
</svg>
