<?xml version="1.0" encoding="UTF-8" standalone="no"?>
<!DOCTYPE svg PUBLIC "-//W3C//DTD SVG 1.1//EN"
 "http://www.w3.org/Graphics/SVG/1.1/DTD/svg11.dtd">
<!-- Generated by graphviz version 12.2.1 (0)
 -->
<!-- Title: nix::UDSRemoteStoreConfig Pages: 1 -->
<svg width="1083pt" height="365pt"
 viewBox="0.00 0.00 1083.00 364.50" xmlns="http://www.w3.org/2000/svg" xmlns:xlink="http://www.w3.org/1999/xlink">
<g id="graph0" class="graph" transform="scale(1 1) rotate(0) translate(4 360.5)">
<title>nix::UDSRemoteStoreConfig</title>
<!-- Node1 -->
<g id="Node000001" class="node">
<title>Node1</title>
<g id="a_Node000001"><a xlink:title=" ">
<polygon fill="#999999" stroke="#666666" points="1075,-174.12 922.5,-174.12 922.5,-153.38 1075,-153.38 1075,-174.12"/>
<text text-anchor="middle" x="998.75" y="-160.62" font-family="Helvetica,sans-Serif" font-size="10.00">nix::UDSRemoteStoreConfig</text>
</a>
</g>
</g>
<!-- Node2 -->
<g id="Node000002" class="node">
<title>Node2</title>
<g id="a_Node000002"><a xlink:href="structnix_1_1LocalFSStoreConfig.html" target="_top" xlink:title=" ">
<polygon fill="white" stroke="#bfbfbf" points="884.75,-240.12 754.75,-240.12 754.75,-219.38 884.75,-219.38 884.75,-240.12"/>
<text text-anchor="middle" x="819.75" y="-226.62" font-family="Helvetica,sans-Serif" font-size="10.00">nix::LocalFSStoreConfig</text>
</a>
</g>
</g>
<!-- Node2&#45;&gt;Node1 -->
<g id="edge1_Node000001_Node000002" class="edge">
<title>Node2&#45;&gt;Node1</title>
<g id="a_edge1_Node000001_Node000002"><a xlink:title=" ">
<path fill="none" stroke="#63b8ff" d="M860.17,-215.05C893.02,-202.8 939.05,-185.64 968.64,-174.61"/>
<polygon fill="#63b8ff" stroke="#63b8ff" points="859.15,-211.7 851,-218.47 861.59,-218.26 859.15,-211.7"/>
</a>
</g>
</g>
<!-- Node3 -->
<g id="Node000003" class="node">
<title>Node3</title>
<g id="a_Node000003"><a xlink:href="structnix_1_1StoreConfig.html" target="_top" xlink:title=" ">
<polygon fill="white" stroke="#bfbfbf" points="714.5,-198.12 621.25,-198.12 621.25,-177.38 714.5,-177.38 714.5,-198.12"/>
<text text-anchor="middle" x="667.88" y="-184.62" font-family="Helvetica,sans-Serif" font-size="10.00">nix::StoreConfig</text>
</a>
</g>
</g>
<!-- Node3&#45;&gt;Node2 -->
<g id="edge2_Node000002_Node000003" class="edge">
<title>Node3&#45;&gt;Node2</title>
<g id="a_edge2_Node000002_Node000003"><a xlink:title=" ">
<path fill="none" stroke="#63b8ff" d="M718.29,-201.6C738.36,-207.22 761.2,-213.62 780.02,-218.9"/>
<polygon fill="#63b8ff" stroke="#63b8ff" points="719.5,-198.3 708.93,-198.97 717.61,-205.04 719.5,-198.3"/>
</a>
</g>
</g>
<!-- Node17 -->
<g id="Node000017" class="node">
<title>Node17</title>
<g id="a_Node000017"><a xlink:href="structnix_1_1RemoteStoreConfig.html" target="_top" xlink:title=" ">
<polygon fill="white" stroke="#bfbfbf" points="885.5,-155.12 754,-155.12 754,-134.38 885.5,-134.38 885.5,-155.12"/>
<text text-anchor="middle" x="819.75" y="-141.62" font-family="Helvetica,sans-Serif" font-size="10.00">nix::RemoteStoreConfig</text>
</a>
</g>
</g>
<!-- Node3&#45;&gt;Node17 -->
<g id="edge22_Node000017_Node000003" class="edge">
<title>Node3&#45;&gt;Node17</title>
<g id="a_edge22_Node000017_Node000003"><a xlink:title=" ">
<path fill="none" stroke="#63b8ff" d="M717.74,-173.73C738.27,-167.84 761.77,-161.1 780.94,-155.6"/>
<polygon fill="#63b8ff" stroke="#63b8ff" points="716.8,-170.36 708.15,-176.48 718.73,-177.09 716.8,-170.36"/>
</a>
</g>
</g>
<!-- Node4 -->
<g id="Node000004" class="node">
<title>Node4</title>
<g id="a_Node000004"><a xlink:href="classnix_1_1Config.html" target="_top" xlink:title=" ">
<polygon fill="white" stroke="#666666" points="413,-226.12 345.25,-226.12 345.25,-205.38 413,-205.38 413,-226.12"/>
<text text-anchor="middle" x="379.12" y="-212.62" font-family="Helvetica,sans-Serif" font-size="10.00">nix::Config</text>
</a>
</g>
</g>
<!-- Node4&#45;&gt;Node3 -->
<g id="edge3_Node000003_Node000004" class="edge">
<title>Node4&#45;&gt;Node3</title>
<g id="a_edge3_Node000003_Node000004"><a xlink:title=" ">
<path fill="none" stroke="#63b8ff" d="M424.49,-214.83C469.18,-213.45 540.01,-210.06 600.75,-201.75 607.26,-200.86 614.09,-199.69 620.78,-198.4"/>
<polygon fill="#63b8ff" stroke="#63b8ff" points="424.58,-211.32 414.68,-215.1 424.78,-218.32 424.58,-211.32"/>
</a>
</g>
</g>
<!-- Node5 -->
<g id="Node000005" class="node">
<title>Node5</title>
<g id="a_Node000005"><a xlink:href="classnix_1_1AbstractConfig.html" target="_top" xlink:title=" ">
<polygon fill="white" stroke="#bfbfbf" points="265.12,-226.12 156.88,-226.12 156.88,-205.38 265.12,-205.38 265.12,-226.12"/>
<text text-anchor="middle" x="211" y="-212.62" font-family="Helvetica,sans-Serif" font-size="10.00">nix::AbstractConfig</text>
</a>
</g>
</g>
<!-- Node5&#45;&gt;Node4 -->
<g id="edge4_Node000004_Node000005" class="edge">
<title>Node5&#45;&gt;Node4</title>
<g id="a_edge4_Node000004_Node000005"><a xlink:title=" ">
<path fill="none" stroke="#63b8ff" d="M276.75,-215.75C300.13,-215.75 325.54,-215.75 345.07,-215.75"/>
<polygon fill="#63b8ff" stroke="#63b8ff" points="276.99,-212.25 266.99,-215.75 276.99,-219.25 276.99,-212.25"/>
</a>
</g>
</g>
<!-- Node6 -->
<g id="Node000006" class="node">
<title>Node6</title>
<g id="a_Node000006"><a xlink:href="classnix_1_1PathsSetting.html" target="_top" xlink:title=" ">
<polygon fill="white" stroke="#666666" points="432.12,-277.5 326.12,-277.5 326.12,-244 432.12,-244 432.12,-277.5"/>
<text text-anchor="start" x="334.12" y="-264" font-family="Helvetica,sans-Serif" font-size="10.00">nix::PathsSetting&lt;</text>
<text text-anchor="middle" x="379.12" y="-251.25" font-family="Helvetica,sans-Serif" font-size="10.00"> Path &gt;</text>
</a>
</g>
</g>
<!-- Node6&#45;&gt;Node2 -->
<g id="edge20_Node000002_Node000006" class="edge">
<title>Node6&#45;&gt;Node2</title>
<g id="a_edge20_Node000002_Node000006"><a xlink:title=" ">
<path fill="none" stroke="#9a32cd" stroke-dasharray="5,2" d="M443.86,-262.4C451.41,-262.54 459,-262.67 466.25,-262.75 526.02,-263.44 541.14,-267.24 600.75,-262.75 656.29,-258.57 719.12,-248.48 763.01,-240.55"/>
<polygon fill="#9a32cd" stroke="#9a32cd" points="444.08,-258.9 434.01,-262.19 443.94,-265.9 444.08,-258.9"/>
</a>
</g>
<text text-anchor="middle" x="667.88" y="-289.96" font-family="Helvetica,sans-Serif" font-size="10.00" fill="grey"> logDir</text>
<text text-anchor="middle" x="667.88" y="-277.21" font-family="Helvetica,sans-Serif" font-size="10.00" fill="grey">realStoreDir</text>
<text text-anchor="middle" x="667.88" y="-264.46" font-family="Helvetica,sans-Serif" font-size="10.00" fill="grey">stateDir</text>
</g>
<!-- Node6&#45;&gt;Node3 -->
<g id="edge5_Node000003_Node000006" class="edge">
<title>Node6&#45;&gt;Node3</title>
<g id="a_edge5_Node000003_Node000006"><a xlink:title=" ">
<path fill="none" stroke="#9a32cd" stroke-dasharray="5,2" d="M443.73,-251.67C498.25,-243.49 572.36,-231.31 600.75,-221.75 618.12,-215.9 636.57,-206.08 649.55,-198.49"/>
<polygon fill="#9a32cd" stroke="#9a32cd" points="443.28,-248.2 433.91,-253.13 444.31,-255.12 443.28,-248.2"/>
</a>
</g>
<text text-anchor="middle" x="533.5" y="-251.38" font-family="Helvetica,sans-Serif" font-size="10.00" fill="grey"> storeDir_</text>
</g>
<!-- Node7 -->
<g id="Node000007" class="node">
<title>Node7</title>
<g id="a_Node000007"><a xlink:href="classnix_1_1BaseSetting.html" target="_top" xlink:title=" ">
<polygon fill="white" stroke="#666666" points="273,-267.12 149,-267.12 149,-246.38 273,-246.38 273,-267.12"/>
<text text-anchor="middle" x="211" y="-253.62" font-family="Helvetica,sans-Serif" font-size="10.00">nix::BaseSetting&lt; T &gt;</text>
</a>
</g>
</g>
<!-- Node7&#45;&gt;Node6 -->
<g id="edge6_Node000006_Node000007" class="edge">
<title>Node7&#45;&gt;Node6</title>
<g id="a_edge6_Node000006_Node000007"><a xlink:title=" ">
<path fill="none" stroke="#63b8ff" d="M284.83,-258.5C298.59,-258.83 312.74,-259.18 325.72,-259.49"/>
<polygon fill="#63b8ff" stroke="#63b8ff" points="284.98,-255.01 274.9,-258.26 284.81,-262 284.98,-255.01"/>
</a>
</g>
</g>
<!-- Node8 -->
<g id="Node000008" class="node">
<title>Node8</title>
<g id="a_Node000008"><a xlink:href="classnix_1_1AbstractSetting.html" target="_top" xlink:title=" ">
<polygon fill="white" stroke="#bfbfbf" points="112,-163.12 0,-163.12 0,-142.38 112,-142.38 112,-163.12"/>
<text text-anchor="middle" x="56" y="-149.62" font-family="Helvetica,sans-Serif" font-size="10.00">nix::AbstractSetting</text>
</a>
</g>
</g>
<!-- Node8&#45;&gt;Node7 -->
<g id="edge7_Node000007_Node000008" class="edge">
<title>Node8&#45;&gt;Node7</title>
<g id="a_edge7_Node000007_Node000008"><a xlink:title=" ">
<path fill="none" stroke="#63b8ff" d="M74.27,-171.91C91.62,-190.18 119.91,-217.43 149,-234.75 156.35,-239.13 164.71,-242.84 172.84,-245.91"/>
<polygon fill="#63b8ff" stroke="#63b8ff" points="76.86,-169.55 67.49,-164.61 71.73,-174.32 76.86,-169.55"/>
</a>
</g>
</g>
<!-- Node10 -->
<g id="Node000010" class="node">
<title>Node10</title>
<g id="a_Node000010"><a xlink:href="classnix_1_1BaseSetting.html" target="_top" xlink:title=" ">
<polygon fill="white" stroke="#666666" points="273,-107.12 149,-107.12 149,-86.38 273,-86.38 273,-107.12"/>
<text text-anchor="middle" x="211" y="-93.62" font-family="Helvetica,sans-Serif" font-size="10.00">nix::BaseSetting&lt; T &gt;</text>
</a>
</g>
</g>
<!-- Node8&#45;&gt;Node10 -->
<g id="edge10_Node000010_Node000008" class="edge">
<title>Node8&#45;&gt;Node10</title>
<g id="a_edge10_Node000010_Node000008"><a xlink:title=" ">
<path fill="none" stroke="#63b8ff" d="M96.71,-138C112.92,-132 131.85,-125.01 149,-118.75 159.05,-115.08 170.04,-111.11 179.89,-107.56"/>
<polygon fill="#63b8ff" stroke="#63b8ff" points="95.56,-134.69 87.4,-141.45 98,-141.25 95.56,-134.69"/>
</a>
</g>
</g>
<!-- Node12 -->
<g id="Node000012" class="node">
<title>Node12</title>
<g id="a_Node000012"><a xlink:href="classnix_1_1BaseSetting.html" target="_top" xlink:title=" ">
<polygon fill="white" stroke="#666666" points="273,-148.12 149,-148.12 149,-127.38 273,-127.38 273,-148.12"/>
<text text-anchor="middle" x="211" y="-134.62" font-family="Helvetica,sans-Serif" font-size="10.00">nix::BaseSetting&lt; T &gt;</text>
</a>
</g>
</g>
<!-- Node8&#45;&gt;Node12 -->
<g id="edge13_Node000012_Node000008" class="edge">
<title>Node8&#45;&gt;Node12</title>
<g id="a_edge13_Node000012_Node000008"><a xlink:title=" ">
<path fill="none" stroke="#63b8ff" d="M123.49,-146.23C131.84,-145.41 140.35,-144.58 148.62,-143.77"/>
<polygon fill="#63b8ff" stroke="#63b8ff" points="123.35,-142.73 113.74,-147.19 124.04,-149.69 123.35,-142.73"/>
</a>
</g>
</g>
<!-- Node14 -->
<g id="Node000014" class="node">
<title>Node14</title>
<g id="a_Node000014"><a xlink:href="classnix_1_1BaseSetting.html" target="_top" xlink:title=" ">
<polygon fill="white" stroke="#666666" points="273,-187.12 149,-187.12 149,-166.38 273,-166.38 273,-187.12"/>
<text text-anchor="middle" x="211" y="-173.62" font-family="Helvetica,sans-Serif" font-size="10.00">nix::BaseSetting&lt; T &gt;</text>
</a>
</g>
</g>
<!-- Node8&#45;&gt;Node14 -->
<g id="edge16_Node000014_Node000008" class="edge">
<title>Node8&#45;&gt;Node14</title>
<g id="a_edge16_Node000014_Node000008"><a xlink:title=" ">
<path fill="none" stroke="#63b8ff" d="M123.49,-163.18C131.84,-164.49 140.35,-165.83 148.62,-167.12"/>
<polygon fill="#63b8ff" stroke="#63b8ff" points="124.15,-159.74 113.73,-161.65 123.07,-166.66 124.15,-159.74"/>
</a>
</g>
</g>
<!-- Node16 -->
<g id="Node000016" class="node">
<title>Node16</title>
<g id="a_Node000016"><a xlink:href="classnix_1_1BaseSetting.html" target="_top" xlink:title=" ">
<polygon fill="white" stroke="#666666" points="273,-322.12 149,-322.12 149,-301.38 273,-301.38 273,-322.12"/>
<text text-anchor="middle" x="211" y="-308.62" font-family="Helvetica,sans-Serif" font-size="10.00">nix::BaseSetting&lt; T &gt;</text>
</a>
</g>
</g>
<!-- Node8&#45;&gt;Node16 -->
<g id="edge19_Node000016_Node000008" class="edge">
<title>Node8&#45;&gt;Node16</title>
<g id="a_edge19_Node000016_Node000008"><a xlink:title=" ">
<path fill="none" stroke="#63b8ff" d="M68.63,-172.98C84.36,-199.07 114.45,-244.77 149,-275.75 160.35,-285.93 175.02,-294.69 187.13,-301.03"/>
<polygon fill="#63b8ff" stroke="#63b8ff" points="71.84,-171.54 63.74,-164.71 65.81,-175.1 71.84,-171.54"/>
</a>
</g>
</g>
<!-- Node19 -->
<g id="Node000019" class="node">
<title>Node19</title>
<g id="a_Node000019"><a xlink:href="classnix_1_1BaseSetting.html" target="_top" xlink:title=" ">
<polygon fill="white" stroke="#666666" points="273,-64.12 149,-64.12 149,-43.38 273,-43.38 273,-64.12"/>
<text text-anchor="middle" x="211" y="-50.62" font-family="Helvetica,sans-Serif" font-size="10.00">nix::BaseSetting&lt; T &gt;</text>
</a>
</g>
</g>
<!-- Node8&#45;&gt;Node19 -->
<g id="edge26_Node000019_Node000008" class="edge">
<title>Node8&#45;&gt;Node19</title>
<g id="a_edge26_Node000019_Node000008"><a xlink:title=" ">
<path fill="none" stroke="#63b8ff" d="M76.09,-134.19C93.83,-117.7 121.59,-93.79 149,-77.75 157.74,-72.63 167.78,-68.18 177.15,-64.53"/>
<polygon fill="#63b8ff" stroke="#63b8ff" points="73.73,-131.6 68.87,-141.02 78.54,-136.69 73.73,-131.6"/>
</a>
</g>
</g>
<!-- Node9 -->
<g id="Node000009" class="node">
<title>Node9</title>
<g id="a_Node000009"><a xlink:href="classnix_1_1Setting.html" target="_top" xlink:title=" ">
<polygon fill="white" stroke="#bfbfbf" points="432.5,-100.12 325.75,-100.12 325.75,-79.38 432.5,-79.38 432.5,-100.12"/>
<text text-anchor="middle" x="379.12" y="-86.62" font-family="Helvetica,sans-Serif" font-size="10.00">nix::Setting&lt; int &gt;</text>
</a>
</g>
</g>
<!-- Node9&#45;&gt;Node3 -->
<g id="edge8_Node000003_Node000009" class="edge">
<title>Node9&#45;&gt;Node3</title>
<g id="a_edge8_Node000003_Node000009"><a xlink:title=" ">
<path fill="none" stroke="#9a32cd" stroke-dasharray="5,2" d="M444.16,-81.15C490.29,-77.96 552.62,-80.03 600.75,-105.25 631.48,-121.35 652.88,-158.65 661.97,-177.06"/>
<polygon fill="#9a32cd" stroke="#9a32cd" points="444,-77.65 434.31,-81.94 444.56,-84.62 444,-77.65"/>
</a>
</g>
<text text-anchor="middle" x="533.5" y="-121.25" font-family="Helvetica,sans-Serif" font-size="10.00" fill="grey"> pathInfoCacheSize</text>
<text text-anchor="middle" x="533.5" y="-108.5" font-family="Helvetica,sans-Serif" font-size="10.00" fill="grey">priority</text>
</g>
<!-- Node9&#45;&gt;Node17 -->
<g id="edge23_Node000017_Node000009" class="edge">
<title>Node9&#45;&gt;Node17</title>
<g id="a_edge23_Node000017_Node000009"><a xlink:title=" ">
<path fill="none" stroke="#9a32cd" stroke-dasharray="5,2" d="M444.04,-78.19C451.5,-77.19 459.03,-76.33 466.25,-75.75 525.83,-70.94 541.67,-66.62 600.75,-75.75 672.74,-86.87 753.53,-117.5 793.52,-133.96"/>
<polygon fill="#9a32cd" stroke="#9a32cd" points="443.69,-74.7 434.29,-79.59 444.69,-81.63 443.69,-74.7"/>
</a>
</g>
<text text-anchor="middle" x="667.88" y="-107.91" font-family="Helvetica,sans-Serif" font-size="10.00" fill="grey"> maxConnections</text>
</g>
<!-- Node10&#45;&gt;Node9 -->
<g id="edge9_Node000009_Node000010" class="edge">
<title>Node10&#45;&gt;Node9</title>
<g id="a_edge9_Node000009_Node000010"><a xlink:title=" ">
<path fill="none" stroke="#63b8ff" d="M284.76,-93.68C298.45,-93.11 312.52,-92.51 325.45,-91.97"/>
<polygon fill="#63b8ff" stroke="#63b8ff" points="284.74,-90.18 274.9,-94.1 285.04,-97.18 284.74,-90.18"/>
</a>
</g>
</g>
<!-- Node11 -->
<g id="Node000011" class="node">
<title>Node11</title>
<g id="a_Node000011"><a xlink:href="classnix_1_1Setting.html" target="_top" xlink:title=" ">
<polygon fill="white" stroke="#bfbfbf" points="436.62,-148.12 321.62,-148.12 321.62,-127.38 436.62,-127.38 436.62,-148.12"/>
<text text-anchor="middle" x="379.12" y="-134.62" font-family="Helvetica,sans-Serif" font-size="10.00">nix::Setting&lt; bool &gt;</text>
</a>
</g>
</g>
<!-- Node11&#45;&gt;Node3 -->
<g id="edge11_Node000003_Node000011" class="edge">
<title>Node11&#45;&gt;Node3</title>
<g id="a_edge11_Node000003_Node000011"><a xlink:title=" ">
<path fill="none" stroke="#9a32cd" stroke-dasharray="5,2" d="M448.57,-134.26C492.82,-133.86 551.19,-136.85 600.75,-151.25 619.64,-156.74 639.09,-168.33 651.97,-176.98"/>
<polygon fill="#9a32cd" stroke="#9a32cd" points="448.51,-130.76 438.57,-134.41 448.62,-137.75 448.51,-130.76"/>
</a>
</g>
<text text-anchor="middle" x="533.5" y="-167.25" font-family="Helvetica,sans-Serif" font-size="10.00" fill="grey"> isTrusted</text>
<text text-anchor="middle" x="533.5" y="-154.5" font-family="Helvetica,sans-Serif" font-size="10.00" fill="grey">wantMassQuery</text>
</g>
<!-- Node12&#45;&gt;Node11 -->
<g id="edge12_Node000011_Node000012" class="edge">
<title>Node12&#45;&gt;Node11</title>
<g id="a_edge12_Node000011_Node000012"><a xlink:title=" ">
<path fill="none" stroke="#63b8ff" d="M284.59,-137.75C296.91,-137.75 309.55,-137.75 321.39,-137.75"/>
<polygon fill="#63b8ff" stroke="#63b8ff" points="284.9,-134.25 274.9,-137.75 284.9,-141.25 284.9,-134.25"/>
</a>
</g>
</g>
<!-- Node13 -->
<g id="Node000013" class="node">
<title>Node13</title>
<g id="a_Node000013"><a xlink:href="classnix_1_1Setting.html" target="_top" xlink:title=" ">
<polygon fill="white" stroke="#bfbfbf" points="448.25,-187.12 310,-187.12 310,-166.38 448.25,-166.38 448.25,-187.12"/>
<text text-anchor="middle" x="379.12" y="-173.62" font-family="Helvetica,sans-Serif" font-size="10.00">nix::Setting&lt; StringSet &gt;</text>
</a>
</g>
</g>
<!-- Node13&#45;&gt;Node3 -->
<g id="edge14_Node000003_Node000013" class="edge">
<title>Node13&#45;&gt;Node3</title>
<g id="a_edge14_Node000003_Node000013"><a xlink:title=" ">
<path fill="none" stroke="#9a32cd" stroke-dasharray="5,2" d="M459.64,-179.8C511.59,-181.79 577.61,-184.33 621,-185.99"/>
<polygon fill="#9a32cd" stroke="#9a32cd" points="460.08,-176.31 449.96,-179.43 459.82,-183.31 460.08,-176.31"/>
</a>
</g>
<text text-anchor="middle" x="533.5" y="-188.34" font-family="Helvetica,sans-Serif" font-size="10.00" fill="grey"> systemFeatures</text>
</g>
<!-- Node14&#45;&gt;Node13 -->
<g id="edge15_Node000013_Node000014" class="edge">
<title>Node14&#45;&gt;Node13</title>
<g id="a_edge15_Node000013_Node000014"><a xlink:title=" ">
<path fill="none" stroke="#63b8ff" d="M284.63,-176.75C292.96,-176.75 301.44,-176.75 309.72,-176.75"/>
<polygon fill="#63b8ff" stroke="#63b8ff" points="284.9,-173.25 274.9,-176.75 284.9,-180.25 284.9,-173.25"/>
</a>
</g>
</g>
<!-- Node15 -->
<g id="Node000015" class="node">
<title>Node15</title>
<g id="a_Node000015"><a xlink:href="classnix_1_1PathsSetting.html" target="_top" xlink:title=" ">
<polygon fill="white" stroke="#666666" points="600.75,-356.5 466.25,-356.5 466.25,-323 600.75,-323 600.75,-356.5"/>
<text text-anchor="start" x="474.25" y="-343" font-family="Helvetica,sans-Serif" font-size="10.00">nix::PathsSetting&lt;</text>
<text text-anchor="middle" x="533.5" y="-330.25" font-family="Helvetica,sans-Serif" font-size="10.00"> std::optional&lt; Path &gt; &gt;</text>
</a>
</g>
</g>
<!-- Node15&#45;&gt;Node2 -->
<g id="edge17_Node000002_Node000015" class="edge">
<title>Node15&#45;&gt;Node2</title>
<g id="a_edge17_Node000002_Node000015"><a xlink:title=" ">
<path fill="none" stroke="#9a32cd" stroke-dasharray="5,2" d="M612.3,-340.98C645.73,-338.97 684.51,-333.13 717,-318.75 757.99,-300.61 794.46,-260 810.33,-240.54"/>
<polygon fill="#9a32cd" stroke="#9a32cd" points="612.51,-337.47 602.69,-341.45 612.85,-344.46 612.51,-337.47"/>
</a>
</g>
<text text-anchor="middle" x="667.88" y="-343.66" font-family="Helvetica,sans-Serif" font-size="10.00" fill="grey"> rootDir</text>
</g>
<!-- Node16&#45;&gt;Node15 -->
<g id="edge18_Node000015_Node000016" class="edge">
<title>Node16&#45;&gt;Node15</title>
<g id="a_edge18_Node000015_Node000016"><a xlink:title=" ">
<path fill="none" stroke="#63b8ff" d="M284.71,-318.1C339.09,-322.85 412.88,-329.3 465.76,-333.92"/>
<polygon fill="#63b8ff" stroke="#63b8ff" points="285.19,-314.63 274.92,-317.25 284.58,-321.6 285.19,-314.63"/>
</a>
</g>
</g>
<!-- Node17&#45;&gt;Node1 -->
<g id="edge21_Node000001_Node000017" class="edge">
<title>Node17&#45;&gt;Node1</title>
<g id="a_edge21_Node000001_Node000017"><a xlink:title=" ">
<path fill="none" stroke="#63b8ff" d="M897.14,-152.95C905.47,-153.84 913.94,-154.75 922.26,-155.65"/>
<polygon fill="#63b8ff" stroke="#63b8ff" points="897.73,-149.49 887.41,-151.91 896.98,-156.45 897.73,-149.49"/>
</a>
</g>
</g>
<!-- Node18 -->
<g id="Node000018" class="node">
<title>Node18</title>
<g id="a_Node000018"><a xlink:href="classnix_1_1Setting.html" target="_top" xlink:title=" ">
<polygon fill="white" stroke="#bfbfbf" points="597,-33.5 470,-33.5 470,0 597,0 597,-33.5"/>
<text text-anchor="start" x="478" y="-20" font-family="Helvetica,sans-Serif" font-size="10.00">nix::Setting&lt; unsigned</text>
<text text-anchor="middle" x="533.5" y="-7.25" font-family="Helvetica,sans-Serif" font-size="10.00"> int &gt;</text>
</a>
</g>
</g>
<!-- Node18&#45;&gt;Node17 -->
<g id="edge24_Node000017_Node000018" class="edge">
<title>Node18&#45;&gt;Node17</title>
<g id="a_edge24_Node000017_Node000018"><a xlink:title=" ">
<path fill="none" stroke="#9a32cd" stroke-dasharray="5,2" d="M608.64,-6.01C643.03,-4.2 683.59,-6.72 717,-22 768.1,-45.38 802.14,-108.86 814.04,-134.15"/>
<polygon fill="#9a32cd" stroke="#9a32cd" points="608.48,-2.52 598.74,-6.68 608.95,-9.5 608.48,-2.52"/>
</a>
</g>
<text text-anchor="middle" x="667.88" y="-25.25" font-family="Helvetica,sans-Serif" font-size="10.00" fill="grey"> maxConnectionAge</text>
</g>
<!-- Node19&#45;&gt;Node18 -->
<g id="edge25_Node000018_Node000019" class="edge">
<title>Node19&#45;&gt;Node18</title>
<g id="a_edge25_Node000018_Node000019"><a xlink:title=" ">
<path fill="none" stroke="#63b8ff" d="M284.63,-45.37C340.36,-38.93 416.52,-30.14 469.65,-24.01"/>
<polygon fill="#63b8ff" stroke="#63b8ff" points="284.45,-41.86 274.92,-46.49 285.26,-48.82 284.45,-41.86"/>
</a>
</g>
</g>
</g>
</svg>
