<?xml version="1.0" encoding="UTF-8" standalone="no"?>
<!DOCTYPE svg PUBLIC "-//W3C//DTD SVG 1.1//EN"
 "http://www.w3.org/Graphics/SVG/1.1/DTD/svg11.dtd">
<!-- Generated by graphviz version 12.2.1 (0)
 -->
<!-- Title: nix::ProgressBar Pages: 1 -->
<svg width="230pt" height="111pt"
 viewBox="0.00 0.00 230.25 111.00" xmlns="http://www.w3.org/2000/svg" xmlns:xlink="http://www.w3.org/1999/xlink">
<g id="graph0" class="graph" transform="scale(1 1) rotate(0) translate(4 107)">
<title>nix::ProgressBar</title>
<!-- Node1 -->
<g id="Node000001" class="node">
<title>Node1</title>
<g id="a_Node000001"><a xlink:title=" ">
<polygon fill="#999999" stroke="#666666" points="142.75,-20.75 47.25,-20.75 47.25,0 142.75,0 142.75,-20.75"/>
<text text-anchor="middle" x="95" y="-7.25" font-family="Helvetica,sans-Serif" font-size="10.00">nix::ProgressBar</text>
</a>
</g>
</g>
<!-- Node2 -->
<g id="Node000002" class="node">
<title>Node2</title>
<g id="a_Node000002"><a xlink:href="classnix_1_1Logger.html" target="_top" xlink:title=" ">
<polygon fill="white" stroke="#bfbfbf" points="70,-96.62 0,-96.62 0,-75.88 70,-75.88 70,-96.62"/>
<text text-anchor="middle" x="35" y="-83.12" font-family="Helvetica,sans-Serif" font-size="10.00">nix::Logger</text>
</a>
</g>
</g>
<!-- Node2&#45;&gt;Node1 -->
<g id="edge1_Node000001_Node000002" class="edge">
<title>Node2&#45;&gt;Node1</title>
<g id="a_edge1_Node000001_Node000002"><a xlink:title=" ">
<path fill="none" stroke="#63b8ff" d="M49.92,-66.88C61.8,-52.25 77.95,-32.37 87.34,-20.8"/>
<polygon fill="#63b8ff" stroke="#63b8ff" points="47.39,-64.45 43.8,-74.42 52.82,-68.86 47.39,-64.45"/>
</a>
</g>
</g>
<!-- Node3 -->
<g id="Node000003" class="node">
<title>Node3</title>
<g id="a_Node000003"><a xlink:href="classnix_1_1Sync.html" target="_top" xlink:title=" ">
<polygon fill="white" stroke="#666666" points="222.25,-103 87.75,-103 87.75,-69.5 222.25,-69.5 222.25,-103"/>
<text text-anchor="start" x="95.75" y="-89.5" font-family="Helvetica,sans-Serif" font-size="10.00">nix::Sync&lt; nix::Progress</text>
<text text-anchor="middle" x="155" y="-76.75" font-family="Helvetica,sans-Serif" font-size="10.00">Bar::State &gt;</text>
</a>
</g>
</g>
<!-- Node3&#45;&gt;Node1 -->
<g id="edge2_Node000001_Node000003" class="edge">
<title>Node3&#45;&gt;Node1</title>
<g id="a_edge2_Node000001_Node000003"><a xlink:title=" ">
<path fill="none" stroke="#9a32cd" stroke-dasharray="5,2" d="M134.75,-60.32C123.73,-46.75 110.73,-30.75 102.68,-20.83"/>
<polygon fill="#9a32cd" stroke="#9a32cd" points="132.01,-62.49 141.03,-68.05 137.44,-58.08 132.01,-62.49"/>
</a>
</g>
<text text-anchor="middle" x="143.3" y="-42" font-family="Helvetica,sans-Serif" font-size="10.00" fill="grey"> state_</text>
</g>
</g>
</svg>
