<?xml version="1.0" encoding="UTF-8" standalone="no"?>
<!DOCTYPE svg PUBLIC "-//W3C//DTD SVG 1.1//EN"
 "http://www.w3.org/Graphics/SVG/1.1/DTD/svg11.dtd">
<!-- Generated by graphviz version 12.2.1 (0)
 -->
<!-- Title: nix::RestrictedStore Pages: 1 -->
<svg width="200pt" height="325pt"
 viewBox="0.00 0.00 199.50 325.25" xmlns="http://www.w3.org/2000/svg" xmlns:xlink="http://www.w3.org/1999/xlink">
<g id="graph0" class="graph" transform="scale(1 1) rotate(0) translate(4 321.25)">
<title>nix::RestrictedStore</title>
<!-- Node1 -->
<g id="Node000001" class="node">
<title>Node1</title>
<g id="a_Node000001"><a xlink:title=" ">
<polygon fill="#999999" stroke="#666666" points="161.88,-20.75 49.87,-20.75 49.87,0 161.88,0 161.88,-20.75"/>
<text text-anchor="middle" x="105.88" y="-7.25" font-family="Helvetica,sans-Serif" font-size="10.00">nix::RestrictedStore</text>
</a>
</g>
</g>
<!-- Node2 -->
<g id="Node000002" class="node">
<title>Node2</title>
<g id="a_Node000002"><a xlink:href="structnix_1_1IndirectRootStore.html" target="_top" xlink:title=" ">
<polygon fill="white" stroke="#666666" points="122.75,-77.5 1,-77.5 1,-56.75 122.75,-56.75 122.75,-77.5"/>
<text text-anchor="middle" x="61.88" y="-64" font-family="Helvetica,sans-Serif" font-size="10.00">nix::IndirectRootStore</text>
</a>
</g>
</g>
<!-- Node2&#45;&gt;Node1 -->
<g id="edge1_Node000001_Node000002" class="edge">
<title>Node2&#45;&gt;Node1</title>
<g id="a_edge1_Node000001_Node000002"><a xlink:title=" ">
<path fill="none" stroke="#63b8ff" d="M76.88,-47.46C84,-38.59 92.21,-28.37 98.08,-21.08"/>
<polygon fill="#63b8ff" stroke="#63b8ff" points="74.23,-45.17 70.69,-55.16 79.68,-49.55 74.23,-45.17"/>
</a>
</g>
</g>
<!-- Node3 -->
<g id="Node000003" class="node">
<title>Node3</title>
<g id="a_Node000003"><a xlink:href="classnix_1_1LocalFSStore.html" target="_top" xlink:title=" ">
<polygon fill="white" stroke="#bfbfbf" points="108.5,-134.25 9.25,-134.25 9.25,-113.5 108.5,-113.5 108.5,-134.25"/>
<text text-anchor="middle" x="58.88" y="-120.75" font-family="Helvetica,sans-Serif" font-size="10.00">nix::LocalFSStore</text>
</a>
</g>
</g>
<!-- Node3&#45;&gt;Node2 -->
<g id="edge2_Node000002_Node000003" class="edge">
<title>Node3&#45;&gt;Node2</title>
<g id="a_edge2_Node000002_Node000003"><a xlink:title=" ">
<path fill="none" stroke="#63b8ff" d="M60.04,-101.63C60.49,-93.41 60.98,-84.43 61.34,-77.83"/>
<polygon fill="#63b8ff" stroke="#63b8ff" points="56.55,-101.4 59.49,-111.58 63.54,-101.78 56.55,-101.4"/>
</a>
</g>
</g>
<!-- Node4 -->
<g id="Node000004" class="node">
<title>Node4</title>
<g id="a_Node000004"><a xlink:href="classnix_1_1Store.html" target="_top" xlink:title=" ">
<polygon fill="white" stroke="#bfbfbf" points="89.12,-247.75 26.62,-247.75 26.62,-227 89.12,-227 89.12,-247.75"/>
<text text-anchor="middle" x="57.88" y="-234.25" font-family="Helvetica,sans-Serif" font-size="10.00">nix::Store</text>
</a>
</g>
</g>
<!-- Node4&#45;&gt;Node3 -->
<g id="edge3_Node000003_Node000004" class="edge">
<title>Node4&#45;&gt;Node3</title>
<g id="a_edge3_Node000003_Node000004"><a xlink:title=" ">
<path fill="none" stroke="#63b8ff" d="M32.53,-219.78C16.66,-207.15 0.65,-188.82 8.88,-170.25 15.71,-154.82 30.68,-142.39 42.46,-134.47"/>
<polygon fill="#63b8ff" stroke="#63b8ff" points="30.33,-222.51 40.45,-225.62 34.48,-216.87 30.33,-222.51"/>
</a>
</g>
</g>
<!-- Node6 -->
<g id="Node000006" class="node">
<title>Node6</title>
<g id="a_Node000006"><a xlink:href="structnix_1_1GcStore.html" target="_top" xlink:title=" ">
<polygon fill="white" stroke="#666666" points="191.5,-191 116.25,-191 116.25,-170.25 191.5,-170.25 191.5,-191"/>
<text text-anchor="middle" x="153.88" y="-177.5" font-family="Helvetica,sans-Serif" font-size="10.00">nix::GcStore</text>
</a>
</g>
</g>
<!-- Node4&#45;&gt;Node6 -->
<g id="edge6_Node000006_Node000004" class="edge">
<title>Node4&#45;&gt;Node6</title>
<g id="a_edge6_Node000006_Node000004"><a xlink:title=" ">
<path fill="none" stroke="#63b8ff" d="M84.79,-221.03C101.49,-211.5 122.43,-199.56 136.86,-191.33"/>
<polygon fill="#63b8ff" stroke="#63b8ff" points="83.31,-217.84 76.35,-225.84 86.77,-223.92 83.31,-217.84"/>
</a>
</g>
</g>
<!-- Node7 -->
<g id="Node000007" class="node">
<title>Node7</title>
<g id="a_Node000007"><a xlink:href="structnix_1_1LogStore.html" target="_top" xlink:title=" ">
<polygon fill="white" stroke="#bfbfbf" points="97.75,-191 18,-191 18,-170.25 97.75,-170.25 97.75,-191"/>
<text text-anchor="middle" x="57.88" y="-177.5" font-family="Helvetica,sans-Serif" font-size="10.00">nix::LogStore</text>
</a>
</g>
</g>
<!-- Node4&#45;&gt;Node7 -->
<g id="edge8_Node000007_Node000004" class="edge">
<title>Node4&#45;&gt;Node7</title>
<g id="a_edge8_Node000007_Node000004"><a xlink:title=" ">
<path fill="none" stroke="#63b8ff" d="M57.88,-215.13C57.88,-206.91 57.88,-197.93 57.88,-191.33"/>
<polygon fill="#63b8ff" stroke="#63b8ff" points="54.38,-215.07 57.88,-225.07 61.38,-215.07 54.38,-215.07"/>
</a>
</g>
</g>
<!-- Node5 -->
<g id="Node000005" class="node">
<title>Node5</title>
<g id="a_Node000005"><a xlink:title=" ">
<polygon fill="white" stroke="#bfbfbf" points="115.75,-317.25 0,-317.25 0,-283.75 115.75,-283.75 115.75,-317.25"/>
<text text-anchor="start" x="8" y="-303.75" font-family="Helvetica,sans-Serif" font-size="10.00">std::enable_shared</text>
<text text-anchor="middle" x="57.88" y="-291" font-family="Helvetica,sans-Serif" font-size="10.00">_from_this&lt; Store &gt;</text>
</a>
</g>
</g>
<!-- Node5&#45;&gt;Node4 -->
<g id="edge4_Node000004_Node000005" class="edge">
<title>Node5&#45;&gt;Node4</title>
<g id="a_edge4_Node000004_Node000005"><a xlink:title=" ">
<path fill="none" stroke="#63b8ff" d="M57.88,-271.94C57.88,-263.46 57.88,-254.67 57.88,-248.22"/>
<polygon fill="#63b8ff" stroke="#63b8ff" points="54.38,-271.93 57.88,-281.93 61.38,-271.93 54.38,-271.93"/>
</a>
</g>
</g>
<!-- Node6&#45;&gt;Node1 -->
<g id="edge9_Node000001_Node000006" class="edge">
<title>Node6&#45;&gt;Node1</title>
<g id="a_edge9_Node000001_Node000006"><a xlink:title=" ">
<path fill="none" stroke="#63b8ff" d="M152.3,-158.45C149.94,-133.5 144.36,-91.09 131.88,-56.75 127.1,-43.61 118.66,-29.86 112.69,-20.99"/>
<polygon fill="#63b8ff" stroke="#63b8ff" points="148.8,-158.59 153.13,-168.26 155.77,-158 148.8,-158.59"/>
</a>
</g>
</g>
<!-- Node6&#45;&gt;Node3 -->
<g id="edge5_Node000003_Node000006" class="edge">
<title>Node6&#45;&gt;Node3</title>
<g id="a_edge5_Node000003_Node000006"><a xlink:title=" ">
<path fill="none" stroke="#63b8ff" d="M127.24,-164.28C110.72,-154.75 89.99,-142.81 75.71,-134.58"/>
<polygon fill="#63b8ff" stroke="#63b8ff" points="125.17,-167.12 135.58,-169.08 128.66,-161.06 125.17,-167.12"/>
</a>
</g>
</g>
<!-- Node7&#45;&gt;Node3 -->
<g id="edge7_Node000003_Node000007" class="edge">
<title>Node7&#45;&gt;Node3</title>
<g id="a_edge7_Node000003_Node000007"><a xlink:title=" ">
<path fill="none" stroke="#63b8ff" d="M58.26,-158.38C58.41,-150.16 58.58,-141.18 58.7,-134.58"/>
<polygon fill="#63b8ff" stroke="#63b8ff" points="54.76,-158.26 58.08,-168.32 61.76,-158.39 54.76,-158.26"/>
</a>
</g>
</g>
</g>
</svg>
