<?xml version="1.0" encoding="UTF-8" standalone="no"?>
<!DOCTYPE svg PUBLIC "-//W3C//DTD SVG 1.1//EN"
 "http://www.w3.org/Graphics/SVG/1.1/DTD/svg11.dtd">
<!-- Generated by graphviz version 12.2.1 (0)
 -->
<!-- Title: nix::LegacySSHStore::Connection Pages: 1 -->
<svg width="236pt" height="227pt"
 viewBox="0.00 0.00 236.25 226.50" xmlns="http://www.w3.org/2000/svg" xmlns:xlink="http://www.w3.org/1999/xlink">
<g id="graph0" class="graph" transform="scale(1 1) rotate(0) translate(4 222.5)">
<title>nix::LegacySSHStore::Connection</title>
<!-- Node1 -->
<g id="Node000001" class="node">
<title>Node1</title>
<g id="a_Node000001"><a xlink:title=" ">
<polygon fill="#999999" stroke="#666666" points="175.88,-33.5 59.38,-33.5 59.38,0 175.88,0 175.88,-33.5"/>
<text text-anchor="start" x="67.38" y="-20" font-family="Helvetica,sans-Serif" font-size="10.00">nix::LegacySSHStore</text>
<text text-anchor="middle" x="117.62" y="-7.25" font-family="Helvetica,sans-Serif" font-size="10.00">::Connection</text>
</a>
</g>
</g>
<!-- Node2 -->
<g id="Node000002" class="node">
<title>Node2</title>
<g id="a_Node000002"><a xlink:href="structnix_1_1FdSink.html" target="_top" xlink:title=" ">
<polygon fill="white" stroke="#666666" points="105.62,-103 35.62,-103 35.62,-82.25 105.62,-82.25 105.62,-103"/>
<text text-anchor="middle" x="70.62" y="-89.5" font-family="Helvetica,sans-Serif" font-size="10.00">nix::FdSink</text>
</a>
</g>
</g>
<!-- Node2&#45;&gt;Node1 -->
<g id="edge1_Node000001_Node000002" class="edge">
<title>Node2&#45;&gt;Node1</title>
<g id="a_edge1_Node000001_Node000002"><a xlink:title=" ">
<path fill="none" stroke="#9a32cd" stroke-dasharray="5,2" d="M82.81,-72.47C90.43,-60.5 100.12,-45.26 107.35,-33.91"/>
<polygon fill="#9a32cd" stroke="#9a32cd" points="80,-70.37 77.58,-80.69 85.9,-74.13 80,-70.37"/>
</a>
</g>
<text text-anchor="middle" x="101.91" y="-54.75" font-family="Helvetica,sans-Serif" font-size="10.00" fill="grey"> to</text>
</g>
<!-- Node3 -->
<g id="Node000003" class="node">
<title>Node3</title>
<g id="a_Node000003"><a xlink:href="structnix_1_1BufferedSink.html" target="_top" xlink:title=" ">
<polygon fill="white" stroke="#666666" points="99.25,-160.75 0,-160.75 0,-140 99.25,-140 99.25,-160.75"/>
<text text-anchor="middle" x="49.62" y="-147.25" font-family="Helvetica,sans-Serif" font-size="10.00">nix::BufferedSink</text>
</a>
</g>
</g>
<!-- Node3&#45;&gt;Node2 -->
<g id="edge2_Node000002_Node000003" class="edge">
<title>Node3&#45;&gt;Node2</title>
<g id="a_edge2_Node000002_Node000003"><a xlink:title=" ">
<path fill="none" stroke="#63b8ff" d="M57.29,-129.03C60.61,-120.21 64.34,-110.31 67.01,-103.22"/>
<polygon fill="#63b8ff" stroke="#63b8ff" points="54.07,-127.66 53.82,-138.25 60.62,-130.12 54.07,-127.66"/>
</a>
</g>
</g>
<!-- Node4 -->
<g id="Node000004" class="node">
<title>Node4</title>
<g id="a_Node000004"><a xlink:href="structnix_1_1Sink.html" target="_top" xlink:title=" ">
<polygon fill="white" stroke="#666666" points="78.62,-218.5 20.62,-218.5 20.62,-197.75 78.62,-197.75 78.62,-218.5"/>
<text text-anchor="middle" x="49.62" y="-205" font-family="Helvetica,sans-Serif" font-size="10.00">nix::Sink</text>
</a>
</g>
</g>
<!-- Node4&#45;&gt;Node3 -->
<g id="edge3_Node000003_Node000004" class="edge">
<title>Node4&#45;&gt;Node3</title>
<g id="a_edge3_Node000003_Node000004"><a xlink:title=" ">
<path fill="none" stroke="#63b8ff" d="M49.62,-186.18C49.62,-177.52 49.62,-167.9 49.62,-160.97"/>
<polygon fill="#63b8ff" stroke="#63b8ff" points="46.13,-185.9 49.63,-195.9 53.13,-185.9 46.13,-185.9"/>
</a>
</g>
</g>
<!-- Node5 -->
<g id="Node000005" class="node">
<title>Node5</title>
<g id="a_Node000005"><a xlink:href="structnix_1_1FdSource.html" target="_top" xlink:title=" ">
<polygon fill="white" stroke="#666666" points="209.62,-103 127.62,-103 127.62,-82.25 209.62,-82.25 209.62,-103"/>
<text text-anchor="middle" x="168.62" y="-89.5" font-family="Helvetica,sans-Serif" font-size="10.00">nix::FdSource</text>
</a>
</g>
</g>
<!-- Node5&#45;&gt;Node1 -->
<g id="edge4_Node000001_Node000005" class="edge">
<title>Node5&#45;&gt;Node1</title>
<g id="a_edge4_Node000001_Node000005"><a xlink:title=" ">
<path fill="none" stroke="#9a32cd" stroke-dasharray="5,2" d="M155.65,-72.83C147.35,-60.81 136.7,-45.38 128.78,-33.91"/>
<polygon fill="#9a32cd" stroke="#9a32cd" points="152.54,-74.48 161.1,-80.72 158.3,-70.5 152.54,-74.48"/>
</a>
</g>
<text text-anchor="middle" x="162.32" y="-54.75" font-family="Helvetica,sans-Serif" font-size="10.00" fill="grey"> from</text>
</g>
<!-- Node6 -->
<g id="Node000006" class="node">
<title>Node6</title>
<g id="a_Node000006"><a xlink:href="structnix_1_1BufferedSource.html" target="_top" xlink:title=" ">
<polygon fill="white" stroke="#666666" points="228.25,-160.75 117,-160.75 117,-140 228.25,-140 228.25,-160.75"/>
<text text-anchor="middle" x="172.62" y="-147.25" font-family="Helvetica,sans-Serif" font-size="10.00">nix::BufferedSource</text>
</a>
</g>
</g>
<!-- Node6&#45;&gt;Node5 -->
<g id="edge5_Node000005_Node000006" class="edge">
<title>Node6&#45;&gt;Node5</title>
<g id="a_edge5_Node000005_Node000006"><a xlink:title=" ">
<path fill="none" stroke="#63b8ff" d="M171.12,-128.43C170.5,-119.77 169.81,-110.15 169.31,-103.22"/>
<polygon fill="#63b8ff" stroke="#63b8ff" points="167.61,-128.43 171.82,-138.15 174.6,-127.93 167.61,-128.43"/>
</a>
</g>
</g>
<!-- Node7 -->
<g id="Node000007" class="node">
<title>Node7</title>
<g id="a_Node000007"><a xlink:href="structnix_1_1Source.html" target="_top" xlink:title=" ">
<polygon fill="white" stroke="#666666" points="207.62,-218.5 137.62,-218.5 137.62,-197.75 207.62,-197.75 207.62,-218.5"/>
<text text-anchor="middle" x="172.62" y="-205" font-family="Helvetica,sans-Serif" font-size="10.00">nix::Source</text>
</a>
</g>
</g>
<!-- Node7&#45;&gt;Node6 -->
<g id="edge6_Node000006_Node000007" class="edge">
<title>Node7&#45;&gt;Node6</title>
<g id="a_edge6_Node000006_Node000007"><a xlink:title=" ">
<path fill="none" stroke="#63b8ff" d="M172.62,-186.18C172.62,-177.52 172.62,-167.9 172.62,-160.97"/>
<polygon fill="#63b8ff" stroke="#63b8ff" points="169.13,-185.9 172.63,-195.9 176.13,-185.9 169.13,-185.9"/>
</a>
</g>
</g>
</g>
</svg>
