<?xml version="1.0" encoding="UTF-8" standalone="no"?>
<!DOCTYPE svg PUBLIC "-//W3C//DTD SVG 1.1//EN"
 "http://www.w3.org/Graphics/SVG/1.1/DTD/svg11.dtd">
<!-- Generated by graphviz version 12.2.1 (0)
 -->
<!-- Title: nix::InstallableValue Pages: 1 -->
<svg width="268pt" height="142pt"
 viewBox="0.00 0.00 267.62 142.25" xmlns="http://www.w3.org/2000/svg" xmlns:xlink="http://www.w3.org/1999/xlink">
<g id="graph0" class="graph" transform="scale(1 1) rotate(0) translate(4 138.25)">
<title>nix::InstallableValue</title>
<!-- Node1 -->
<g id="Node000001" class="node">
<title>Node1</title>
<g id="a_Node000001"><a xlink:title=" ">
<polygon fill="#999999" stroke="#666666" points="190,-77.5 75,-77.5 75,-56.75 190,-56.75 190,-77.5"/>
<text text-anchor="middle" x="132.5" y="-64" font-family="Helvetica,sans-Serif" font-size="10.00">nix::InstallableValue</text>
</a>
</g>
</g>
<!-- Node3 -->
<g id="Node000003" class="node">
<title>Node3</title>
<g id="a_Node000003"><a xlink:href="classnix_1_1InstallableAttrPath.html" target="_top" xlink:title=" ">
<polygon fill="white" stroke="#bfbfbf" points="127,-20.75 0,-20.75 0,0 127,0 127,-20.75"/>
<text text-anchor="middle" x="63.5" y="-7.25" font-family="Helvetica,sans-Serif" font-size="10.00">nix::InstallableAttrPath</text>
</a>
</g>
</g>
<!-- Node1&#45;&gt;Node3 -->
<g id="edge2_Node000001_Node000003" class="edge">
<title>Node1&#45;&gt;Node3</title>
<g id="a_edge2_Node000001_Node000003"><a xlink:title=" ">
<path fill="none" stroke="#63b8ff" d="M111.44,-49.41C99.74,-40.13 85.61,-28.92 75.73,-21.08"/>
<polygon fill="#63b8ff" stroke="#63b8ff" points="108.97,-51.92 118.98,-55.4 113.32,-46.44 108.97,-51.92"/>
</a>
</g>
</g>
<!-- Node4 -->
<g id="Node000004" class="node">
<title>Node4</title>
<g id="a_Node000004"><a xlink:href="structnix_1_1InstallableFlake.html" target="_top" xlink:title=" ">
<polygon fill="white" stroke="#bfbfbf" points="259.62,-20.75 145.38,-20.75 145.38,0 259.62,0 259.62,-20.75"/>
<text text-anchor="middle" x="202.5" y="-7.25" font-family="Helvetica,sans-Serif" font-size="10.00">nix::InstallableFlake</text>
</a>
</g>
</g>
<!-- Node1&#45;&gt;Node4 -->
<g id="edge3_Node000001_Node000004" class="edge">
<title>Node1&#45;&gt;Node4</title>
<g id="a_edge3_Node000001_Node000004"><a xlink:title=" ">
<path fill="none" stroke="#63b8ff" d="M153.87,-49.41C165.73,-40.13 180.07,-28.92 190.09,-21.08"/>
<polygon fill="#63b8ff" stroke="#63b8ff" points="151.93,-46.49 146.21,-55.4 156.24,-52 151.93,-46.49"/>
</a>
</g>
</g>
<!-- Node2 -->
<g id="Node000002" class="node">
<title>Node2</title>
<g id="a_Node000002"><a xlink:href="structnix_1_1Installable.html" target="_top" xlink:title=" ">
<polygon fill="white" stroke="#666666" points="176.5,-134.25 88.5,-134.25 88.5,-113.5 176.5,-113.5 176.5,-134.25"/>
<text text-anchor="middle" x="132.5" y="-120.75" font-family="Helvetica,sans-Serif" font-size="10.00">nix::Installable</text>
</a>
</g>
</g>
<!-- Node2&#45;&gt;Node1 -->
<g id="edge1_Node000001_Node000002" class="edge">
<title>Node2&#45;&gt;Node1</title>
<g id="a_edge1_Node000001_Node000002"><a xlink:title=" ">
<path fill="none" stroke="#63b8ff" d="M132.5,-101.63C132.5,-93.41 132.5,-84.43 132.5,-77.83"/>
<polygon fill="#63b8ff" stroke="#63b8ff" points="129,-101.57 132.5,-111.57 136,-101.57 129,-101.57"/>
</a>
</g>
</g>
</g>
</svg>
