<?xml version="1.0" encoding="UTF-8" standalone="no"?>
<!DOCTYPE svg PUBLIC "-//W3C//DTD SVG 1.1//EN"
 "http://www.w3.org/Graphics/SVG/1.1/DTD/svg11.dtd">
<!-- Generated by graphviz version 12.2.1 (0)
 -->
<!-- Title: nix::MixLs Pages: 1 -->
<svg width="208pt" height="199pt"
 viewBox="0.00 0.00 208.38 199.00" xmlns="http://www.w3.org/2000/svg" xmlns:xlink="http://www.w3.org/1999/xlink">
<g id="graph0" class="graph" transform="scale(1 1) rotate(0) translate(4 195)">
<title>nix::MixLs</title>
<!-- Node1 -->
<g id="Node000001" class="node">
<title>Node1</title>
<g id="a_Node000001"><a xlink:title=" ">
<polygon fill="#999999" stroke="#666666" points="130.38,-77.5 64.88,-77.5 64.88,-56.75 130.38,-56.75 130.38,-77.5"/>
<text text-anchor="middle" x="97.62" y="-64" font-family="Helvetica,sans-Serif" font-size="10.00">nix::MixLs</text>
</a>
</g>
</g>
<!-- Node4 -->
<g id="Node000004" class="node">
<title>Node4</title>
<g id="a_Node000004"><a xlink:href="structnix_1_1CmdLsNar.html" target="_top" xlink:title=" ">
<polygon fill="white" stroke="#bfbfbf" points="87.25,-20.75 0,-20.75 0,0 87.25,0 87.25,-20.75"/>
<text text-anchor="middle" x="43.62" y="-7.25" font-family="Helvetica,sans-Serif" font-size="10.00">nix::CmdLsNar</text>
</a>
</g>
</g>
<!-- Node1&#45;&gt;Node4 -->
<g id="edge4_Node000001_Node000004" class="edge">
<title>Node1&#45;&gt;Node4</title>
<g id="a_edge4_Node000001_Node000004"><a xlink:title=" ">
<path fill="none" stroke="#63b8ff" d="M80.05,-48.3C71.12,-39.25 60.62,-28.61 53.2,-21.08"/>
<polygon fill="#63b8ff" stroke="#63b8ff" points="77.39,-50.6 86.91,-55.26 82.38,-45.68 77.39,-50.6"/>
</a>
</g>
</g>
<!-- Node5 -->
<g id="Node000005" class="node">
<title>Node5</title>
<g id="a_Node000005"><a xlink:href="structnix_1_1CmdLsStore.html" target="_top" xlink:title=" ">
<polygon fill="white" stroke="#bfbfbf" points="200.38,-20.75 104.88,-20.75 104.88,0 200.38,0 200.38,-20.75"/>
<text text-anchor="middle" x="152.62" y="-7.25" font-family="Helvetica,sans-Serif" font-size="10.00">nix::CmdLsStore</text>
</a>
</g>
</g>
<!-- Node1&#45;&gt;Node5 -->
<g id="edge5_Node000001_Node000005" class="edge">
<title>Node1&#45;&gt;Node5</title>
<g id="a_edge5_Node000001_Node000005"><a xlink:title=" ">
<path fill="none" stroke="#63b8ff" d="M115.53,-48.3C124.62,-39.25 135.31,-28.61 142.88,-21.08"/>
<polygon fill="#63b8ff" stroke="#63b8ff" points="113.15,-45.73 108.53,-55.27 118.09,-50.69 113.15,-45.73"/>
</a>
</g>
</g>
<!-- Node2 -->
<g id="Node000002" class="node">
<title>Node2</title>
<g id="a_Node000002"><a xlink:href="classnix_1_1Args.html" target="_top" xlink:title=" ">
<polygon fill="white" stroke="#bfbfbf" points="127,-191 68.25,-191 68.25,-170.25 127,-170.25 127,-191"/>
<text text-anchor="middle" x="97.62" y="-177.5" font-family="Helvetica,sans-Serif" font-size="10.00">nix::Args</text>
</a>
</g>
</g>
<!-- Node2&#45;&gt;Node1 -->
<g id="edge1_Node000001_Node000002" class="edge">
<title>Node2&#45;&gt;Node1</title>
<g id="a_edge1_Node000001_Node000002"><a xlink:title=" ">
<path fill="none" stroke="#63b8ff" d="M89.35,-159.25C86.64,-151.55 83.97,-142.63 82.62,-134.25 81.16,-125.15 81.16,-122.6 82.62,-113.5 84.66,-100.89 89.67,-87.03 93.35,-77.99"/>
<polygon fill="#63b8ff" stroke="#63b8ff" points="85.99,-160.24 92.81,-168.35 92.53,-157.76 85.99,-160.24"/>
</a>
</g>
</g>
<!-- Node3 -->
<g id="Node000003" class="node">
<title>Node3</title>
<g id="a_Node000003"><a xlink:href="structnix_1_1MixJSON.html" target="_top" xlink:title=" ">
<polygon fill="white" stroke="#bfbfbf" points="171.12,-134.25 92.12,-134.25 92.12,-113.5 171.12,-113.5 171.12,-134.25"/>
<text text-anchor="middle" x="131.62" y="-120.75" font-family="Helvetica,sans-Serif" font-size="10.00">nix::MixJSON</text>
</a>
</g>
</g>
<!-- Node2&#45;&gt;Node3 -->
<g id="edge3_Node000003_Node000002" class="edge">
<title>Node2&#45;&gt;Node3</title>
<g id="a_edge3_Node000003_Node000002"><a xlink:title=" ">
<path fill="none" stroke="#63b8ff" d="M109.75,-160.1C115.12,-151.45 121.21,-141.64 125.6,-134.58"/>
<polygon fill="#63b8ff" stroke="#63b8ff" points="106.8,-158.21 104.5,-168.55 112.75,-161.9 106.8,-158.21"/>
</a>
</g>
</g>
<!-- Node3&#45;&gt;Node1 -->
<g id="edge2_Node000001_Node000003" class="edge">
<title>Node3&#45;&gt;Node1</title>
<g id="a_edge2_Node000001_Node000003"><a xlink:title=" ">
<path fill="none" stroke="#63b8ff" d="M119.5,-103.35C114.13,-94.7 108.04,-84.89 103.65,-77.83"/>
<polygon fill="#63b8ff" stroke="#63b8ff" points="116.5,-105.15 124.75,-111.8 122.45,-101.46 116.5,-105.15"/>
</a>
</g>
</g>
</g>
</svg>
