<?xml version="1.0" encoding="UTF-8" standalone="no"?>
<!DOCTYPE svg PUBLIC "-//W3C//DTD SVG 1.1//EN"
 "http://www.w3.org/Graphics/SVG/1.1/DTD/svg11.dtd">
<!-- Generated by graphviz version 12.2.1 (0)
 -->
<!-- Title: nix::CmdFmt Pages: 1 -->
<svg width="555pt" height="399pt"
 viewBox="0.00 0.00 555.25 398.75" xmlns="http://www.w3.org/2000/svg" xmlns:xlink="http://www.w3.org/1999/xlink">
<g id="graph0" class="graph" transform="scale(1 1) rotate(0) translate(4 394.75)">
<title>nix::CmdFmt</title>
<!-- Node1 -->
<g id="Node000001" class="node">
<title>Node1</title>
<g id="a_Node000001"><a xlink:title=" ">
<polygon fill="#999999" stroke="#666666" points="110.5,-20.75 31.5,-20.75 31.5,0 110.5,0 110.5,-20.75"/>
<text text-anchor="middle" x="71" y="-7.25" font-family="Helvetica,sans-Serif" font-size="10.00">nix::CmdFmt</text>
</a>
</g>
</g>
<!-- Node2 -->
<g id="Node000002" class="node">
<title>Node2</title>
<g id="a_Node000002"><a xlink:href="structnix_1_1SourceExprCommand.html" target="_top" xlink:title=" ">
<polygon fill="white" stroke="#bfbfbf" points="142,-78.5 0,-78.5 0,-57.75 142,-57.75 142,-78.5"/>
<text text-anchor="middle" x="71" y="-65" font-family="Helvetica,sans-Serif" font-size="10.00">nix::SourceExprCommand</text>
</a>
</g>
</g>
<!-- Node2&#45;&gt;Node1 -->
<g id="edge1_Node000001_Node000002" class="edge">
<title>Node2&#45;&gt;Node1</title>
<g id="a_edge1_Node000001_Node000002"><a xlink:title=" ">
<path fill="none" stroke="#63b8ff" d="M71,-46.18C71,-37.52 71,-27.9 71,-20.97"/>
<polygon fill="#63b8ff" stroke="#63b8ff" points="67.5,-45.9 71,-55.9 74.5,-45.9 67.5,-45.9"/>
</a>
</g>
</g>
<!-- Node3 -->
<g id="Node000003" class="node">
<title>Node3</title>
<g id="a_Node000003"><a xlink:href="classnix_1_1Args.html" target="_top" xlink:title=" ">
<polygon fill="white" stroke="#bfbfbf" points="270.38,-390.75 211.62,-390.75 211.62,-370 270.38,-370 270.38,-390.75"/>
<text text-anchor="middle" x="241" y="-377.25" font-family="Helvetica,sans-Serif" font-size="10.00">nix::Args</text>
</a>
</g>
</g>
<!-- Node3&#45;&gt;Node2 -->
<g id="edge2_Node000002_Node000003" class="edge">
<title>Node3&#45;&gt;Node2</title>
<g id="a_edge2_Node000002_Node000003"><a xlink:title=" ">
<path fill="none" stroke="#63b8ff" d="M200.14,-375.13C146.47,-368.41 59,-352.95 59,-323.62 59,-323.62 59,-323.62 59,-124.88 59,-108.44 64.05,-89.88 67.59,-78.86"/>
<polygon fill="#63b8ff" stroke="#63b8ff" points="199.51,-378.58 209.85,-376.3 200.34,-371.63 199.51,-378.58"/>
</a>
</g>
</g>
<!-- Node5 -->
<g id="Node000005" class="node">
<title>Node5</title>
<g id="a_Node000005"><a xlink:href="structnix_1_1Command.html" target="_top" xlink:title=" ">
<polygon fill="white" stroke="#666666" points="224.62,-333 137.38,-333 137.38,-312.25 224.62,-312.25 224.62,-333"/>
<text text-anchor="middle" x="181" y="-319.5" font-family="Helvetica,sans-Serif" font-size="10.00">nix::Command</text>
</a>
</g>
</g>
<!-- Node3&#45;&gt;Node5 -->
<g id="edge5_Node000005_Node000003" class="edge">
<title>Node3&#45;&gt;Node5</title>
<g id="a_edge5_Node000005_Node000003"><a xlink:title=" ">
<path fill="none" stroke="#63b8ff" d="M222.25,-361.95C212.05,-352.47 199.81,-341.11 191.33,-333.22"/>
<polygon fill="#63b8ff" stroke="#63b8ff" points="219.73,-364.39 229.44,-368.63 224.5,-359.26 219.73,-364.39"/>
</a>
</g>
</g>
<!-- Node6 -->
<g id="Node000006" class="node">
<title>Node6</title>
<g id="a_Node000006"><a xlink:href="structnix_1_1MixFlakeOptions.html" target="_top" xlink:title=" ">
<polygon fill="white" stroke="#666666" points="224.38,-136.25 105.62,-136.25 105.62,-115.5 224.38,-115.5 224.38,-136.25"/>
<text text-anchor="middle" x="165" y="-122.75" font-family="Helvetica,sans-Serif" font-size="10.00">nix::MixFlakeOptions</text>
</a>
</g>
</g>
<!-- Node3&#45;&gt;Node6 -->
<g id="edge7_Node000006_Node000003" class="edge">
<title>Node3&#45;&gt;Node6</title>
<g id="a_edge7_Node000006_Node000003"><a xlink:title=" ">
<path fill="none" stroke="#63b8ff" d="M199.69,-380.03C157.14,-378.29 97,-367.98 97,-323.62 97,-323.62 97,-323.62 97,-194.38 97,-167.43 124.23,-147.55 144.23,-136.59"/>
<polygon fill="#63b8ff" stroke="#63b8ff" points="199.57,-383.53 209.65,-380.28 199.74,-376.53 199.57,-383.53"/>
</a>
</g>
</g>
<!-- Node9 -->
<g id="Node000009" class="node">
<title>Node9</title>
<g id="a_Node000009"><a xlink:href="structnix_1_1MixEvalArgs.html" target="_top" xlink:title=" ">
<polygon fill="white" stroke="#bfbfbf" points="482.88,-263.5 385.12,-263.5 385.12,-242.75 482.88,-242.75 482.88,-263.5"/>
<text text-anchor="middle" x="434" y="-250" font-family="Helvetica,sans-Serif" font-size="10.00">nix::MixEvalArgs</text>
</a>
</g>
</g>
<!-- Node3&#45;&gt;Node9 -->
<g id="edge12_Node000009_Node000003" class="edge">
<title>Node3&#45;&gt;Node9</title>
<g id="a_edge12_Node000009_Node000003"><a xlink:title=" ">
<path fill="none" stroke="#63b8ff" d="M282.12,-379.59C321.33,-377.5 379.39,-368.08 414,-333 432.65,-314.09 434.69,-280.42 434.46,-263.86"/>
<polygon fill="#63b8ff" stroke="#63b8ff" points="282.22,-376.08 272.36,-379.95 282.49,-383.07 282.22,-376.08"/>
</a>
</g>
</g>
<!-- Node10 -->
<g id="Node000010" class="node">
<title>Node10</title>
<g id="a_Node000010"><a xlink:href="structnix_1_1MixRepair.html" target="_top" xlink:title=" ">
<polygon fill="white" stroke="#bfbfbf" points="547.25,-333 460.75,-333 460.75,-312.25 547.25,-312.25 547.25,-333"/>
<text text-anchor="middle" x="504" y="-319.5" font-family="Helvetica,sans-Serif" font-size="10.00">nix::MixRepair</text>
</a>
</g>
</g>
<!-- Node3&#45;&gt;Node10 -->
<g id="edge14_Node000010_Node000003" class="edge">
<title>Node3&#45;&gt;Node10</title>
<g id="a_edge14_Node000010_Node000003"><a xlink:title=" ">
<path fill="none" stroke="#63b8ff" d="M282.11,-377.89C324.31,-375.44 391.46,-369 447,-352 461.59,-347.54 477.01,-339.64 488.13,-333.31"/>
<polygon fill="#63b8ff" stroke="#63b8ff" points="281.96,-374.39 272.16,-378.41 282.32,-381.38 281.96,-374.39"/>
</a>
</g>
</g>
<!-- Node4 -->
<g id="Node000004" class="node">
<title>Node4</title>
<g id="a_Node000004"><a xlink:href="classnix_1_1MultiCommand.html" target="_top" xlink:title=" ">
<polygon fill="white" stroke="#666666" points="367,-263.5 255,-263.5 255,-242.75 367,-242.75 367,-263.5"/>
<text text-anchor="middle" x="311" y="-250" font-family="Helvetica,sans-Serif" font-size="10.00">nix::MultiCommand</text>
</a>
</g>
</g>
<!-- Node4&#45;&gt;Node3 -->
<g id="edge3_Node000003_Node000004" class="edge">
<title>Node4&#45;&gt;Node3</title>
<g id="a_edge3_Node000003_Node000004"><a xlink:title=" ">
<path fill="none" stroke="#9a32cd" stroke-dasharray="5,2" d="M296.65,-272.73C288.43,-283.85 278.24,-298.45 270.5,-312.25 259.54,-331.79 249.7,-356.19 244.63,-369.53"/>
<polygon fill="#9a32cd" stroke="#9a32cd" points="299.38,-274.92 302.61,-264.83 293.79,-270.7 299.38,-274.92"/>
</a>
</g>
<text text-anchor="middle" x="287.75" y="-319.5" font-family="Helvetica,sans-Serif" font-size="10.00" fill="grey"> parent</text>
</g>
<!-- Node5&#45;&gt;Node4 -->
<g id="edge4_Node000004_Node000005" class="edge">
<title>Node5&#45;&gt;Node4</title>
<g id="a_edge4_Node000004_Node000005"><a xlink:title=" ">
<path fill="none" stroke="#63b8ff" d="M205.36,-305.67C217.62,-297.95 232.84,-288.79 247,-281.5 259.47,-275.09 273.77,-268.86 285.7,-263.98"/>
<polygon fill="#63b8ff" stroke="#63b8ff" points="203.67,-302.6 197.13,-310.94 207.44,-308.5 203.67,-302.6"/>
</a>
</g>
</g>
<!-- Node8 -->
<g id="Node000008" class="node">
<title>Node8</title>
<g id="a_Node000008"><a xlink:href="structnix_1_1StoreCommand.html" target="_top" xlink:title=" ">
<polygon fill="white" stroke="#666666" points="237.38,-263.5 124.62,-263.5 124.62,-242.75 237.38,-242.75 237.38,-263.5"/>
<text text-anchor="middle" x="181" y="-250" font-family="Helvetica,sans-Serif" font-size="10.00">nix::StoreCommand</text>
</a>
</g>
</g>
<!-- Node5&#45;&gt;Node8 -->
<g id="edge10_Node000008_Node000005" class="edge">
<title>Node5&#45;&gt;Node8</title>
<g id="a_edge10_Node000008_Node000005"><a xlink:title=" ">
<path fill="none" stroke="#63b8ff" d="M181,-300.82C181,-288.47 181,-273.4 181,-263.78"/>
<polygon fill="#63b8ff" stroke="#63b8ff" points="177.5,-300.44 181,-310.44 184.5,-300.44 177.5,-300.44"/>
</a>
</g>
</g>
<!-- Node6&#45;&gt;Node2 -->
<g id="edge6_Node000002_Node000006" class="edge">
<title>Node6&#45;&gt;Node2</title>
<g id="a_edge6_Node000002_Node000006"><a xlink:title=" ">
<path fill="none" stroke="#63b8ff" d="M139.03,-109.47C122.56,-99.7 101.74,-87.36 87.5,-78.91"/>
<polygon fill="#63b8ff" stroke="#63b8ff" points="136.94,-112.3 147.32,-114.39 140.51,-106.28 136.94,-112.3"/>
</a>
</g>
</g>
<!-- Node7 -->
<g id="Node000007" class="node">
<title>Node7</title>
<g id="a_Node000007"><a xlink:href="structnix_1_1EvalCommand.html" target="_top" xlink:title=" ">
<polygon fill="white" stroke="#666666" points="367.12,-205.75 258.88,-205.75 258.88,-185 367.12,-185 367.12,-205.75"/>
<text text-anchor="middle" x="313" y="-192.25" font-family="Helvetica,sans-Serif" font-size="10.00">nix::EvalCommand</text>
</a>
</g>
</g>
<!-- Node7&#45;&gt;Node6 -->
<g id="edge8_Node000006_Node000007" class="edge">
<title>Node7&#45;&gt;Node6</title>
<g id="a_edge8_Node000006_Node000007"><a xlink:title=" ">
<path fill="none" stroke="#63b8ff" d="M282.77,-179.56C266.84,-171.85 246.95,-162.37 229,-154.25 215.68,-148.22 200.65,-141.78 188.51,-136.66"/>
<polygon fill="#63b8ff" stroke="#63b8ff" points="281.2,-182.69 291.72,-183.91 284.26,-176.39 281.2,-182.69"/>
</a>
</g>
</g>
<!-- Node8&#45;&gt;Node7 -->
<g id="edge9_Node000007_Node000008" class="edge">
<title>Node8&#45;&gt;Node7</title>
<g id="a_edge9_Node000007_Node000008"><a xlink:title=" ">
<path fill="none" stroke="#63b8ff" d="M214.87,-237.82C238.42,-227.87 269.18,-214.88 289.94,-206.12"/>
<polygon fill="#63b8ff" stroke="#63b8ff" points="213.54,-234.58 205.69,-241.7 216.26,-241.03 213.54,-234.58"/>
</a>
</g>
</g>
<!-- Node9&#45;&gt;Node7 -->
<g id="edge11_Node000007_Node000009" class="edge">
<title>Node9&#45;&gt;Node7</title>
<g id="a_edge11_Node000007_Node000009"><a xlink:title=" ">
<path fill="none" stroke="#63b8ff" d="M402.36,-237.55C380.86,-227.64 352.99,-214.8 334.14,-206.12"/>
<polygon fill="#63b8ff" stroke="#63b8ff" points="400.72,-240.65 411.27,-241.65 403.65,-234.29 400.72,-240.65"/>
</a>
</g>
</g>
<!-- Node10&#45;&gt;Node9 -->
<g id="edge13_Node000009_Node000010" class="edge">
<title>Node10&#45;&gt;Node9</title>
<g id="a_edge13_Node000009_Node000010"><a xlink:title=" ">
<path fill="none" stroke="#63b8ff" d="M485.94,-304.21C472.6,-291.34 454.92,-274.3 444.01,-263.78"/>
<polygon fill="#63b8ff" stroke="#63b8ff" points="483.25,-306.48 492.88,-310.9 488.11,-301.44 483.25,-306.48"/>
</a>
</g>
</g>
<!-- Node11 -->
<g id="Node000011" class="node">
<title>Node11</title>
<g id="a_Node000011"><a xlink:href="structnix_1_1SearchPath.html" target="_top" xlink:title=" ">
<polygon fill="white" stroke="#666666" points="404.5,-333 313.5,-333 313.5,-312.25 404.5,-312.25 404.5,-333"/>
<text text-anchor="middle" x="359" y="-319.5" font-family="Helvetica,sans-Serif" font-size="10.00">nix::SearchPath</text>
</a>
</g>
</g>
<!-- Node11&#45;&gt;Node9 -->
<g id="edge15_Node000009_Node000011" class="edge">
<title>Node11&#45;&gt;Node9</title>
<g id="a_edge15_Node000009_Node000011"><a xlink:title=" ">
<path fill="none" stroke="#9a32cd" stroke-dasharray="5,2" d="M356.81,-300.53C357.14,-293.87 358.68,-286.87 362.75,-281.5 368.75,-273.58 377.35,-267.95 386.52,-263.95"/>
<polygon fill="#9a32cd" stroke="#9a32cd" points="353.31,-300.65 357.19,-310.51 360.3,-300.38 353.31,-300.65"/>
</a>
</g>
<text text-anchor="middle" x="390.88" y="-284.75" font-family="Helvetica,sans-Serif" font-size="10.00" fill="grey"> searchPath</text>
</g>
<!-- Node12 -->
<g id="Node000012" class="node">
<title>Node12</title>
<g id="a_Node000012"><a xlink:href="structnix_1_1flake_1_1LockFlags.html" target="_top" xlink:title=" ">
<polygon fill="white" stroke="#bfbfbf" points="240.5,-205.75 125.5,-205.75 125.5,-185 240.5,-185 240.5,-205.75"/>
<text text-anchor="middle" x="183" y="-192.25" font-family="Helvetica,sans-Serif" font-size="10.00">nix::flake::LockFlags</text>
</a>
</g>
</g>
<!-- Node12&#45;&gt;Node6 -->
<g id="edge16_Node000006_Node000012" class="edge">
<title>Node12&#45;&gt;Node6</title>
<g id="a_edge16_Node000006_Node000012"><a xlink:title=" ">
<path fill="none" stroke="#9a32cd" stroke-dasharray="5,2" d="M177.55,-173.95C174.24,-161.53 170.17,-146.25 167.57,-136.53"/>
<polygon fill="#9a32cd" stroke="#9a32cd" points="174.07,-174.48 180.03,-183.24 180.84,-172.68 174.07,-174.48"/>
</a>
</g>
<text text-anchor="middle" x="200.36" y="-157.5" font-family="Helvetica,sans-Serif" font-size="10.00" fill="grey"> lockFlags</text>
</g>
</g>
</svg>
