<?xml version="1.0" encoding="UTF-8" standalone="no"?>
<!DOCTYPE svg PUBLIC "-//W3C//DTD SVG 1.1//EN"
 "http://www.w3.org/Graphics/SVG/1.1/DTD/svg11.dtd">
<!-- Generated by graphviz version 12.2.1 (0)
 -->
<!-- Title: nix::BrotliDecompressionSource Pages: 1 -->
<svg width="147pt" height="111pt"
 viewBox="0.00 0.00 147.00 111.00" xmlns="http://www.w3.org/2000/svg" xmlns:xlink="http://www.w3.org/1999/xlink">
<g id="graph0" class="graph" transform="scale(1 1) rotate(0) translate(4 107)">
<title>nix::BrotliDecompressionSource</title>
<!-- Node1 -->
<g id="Node000001" class="node">
<title>Node1</title>
<g id="a_Node000001"><a xlink:title=" ">
<polygon fill="#999999" stroke="#666666" points="139,-33.5 0,-33.5 0,0 139,0 139,-33.5"/>
<text text-anchor="start" x="8" y="-20" font-family="Helvetica,sans-Serif" font-size="10.00">nix::BrotliDecompression</text>
<text text-anchor="middle" x="69.5" y="-7.25" font-family="Helvetica,sans-Serif" font-size="10.00">Source</text>
</a>
</g>
</g>
<!-- Node2 -->
<g id="Node000002" class="node">
<title>Node2</title>
<g id="a_Node000002"><a xlink:href="structnix_1_1Source.html" target="_top" xlink:title=" ">
<polygon fill="white" stroke="#666666" points="104.5,-103 34.5,-103 34.5,-82.25 104.5,-82.25 104.5,-103"/>
<text text-anchor="middle" x="69.5" y="-89.5" font-family="Helvetica,sans-Serif" font-size="10.00">nix::Source</text>
</a>
</g>
</g>
<!-- Node2&#45;&gt;Node1 -->
<g id="edge1_Node000001_Node000002" class="edge">
<title>Node2&#45;&gt;Node1</title>
<g id="a_edge1_Node000001_Node000002"><a xlink:title=" ">
<path fill="none" stroke="#63b8ff" d="M67.8,-70.4C67.68,-68.32 67.57,-66.25 67.5,-64.25 67.13,-54.08 67.61,-42.65 68.19,-33.67"/>
<polygon fill="#63b8ff" stroke="#63b8ff" points="64.3,-70.52 68.5,-80.24 71.28,-70.02 64.3,-70.52"/>
</a>
</g>
</g>
<!-- Node2&#45;&gt;Node1 -->
<g id="edge2_Node000001_Node000002" class="edge">
<title>Node2&#45;&gt;Node1</title>
<g id="a_edge2_Node000001_Node000002"><a xlink:title=" ">
<path fill="none" stroke="#9a32cd" stroke-dasharray="5,2" d="M69.5,-70.63C69.5,-58.97 69.5,-44.69 69.5,-33.91"/>
<polygon fill="#9a32cd" stroke="#9a32cd" points="66,-70.45 69.5,-80.45 73,-70.45 66,-70.45"/>
</a>
</g>
<text text-anchor="middle" x="83.38" y="-54.75" font-family="Helvetica,sans-Serif" font-size="10.00" fill="grey"> inner</text>
</g>
</g>
</svg>
