<?xml version="1.0" encoding="UTF-8" standalone="no"?>
<!DOCTYPE svg PUBLIC "-//W3C//DTD SVG 1.1//EN"
 "http://www.w3.org/Graphics/SVG/1.1/DTD/svg11.dtd">
<!-- Generated by graphviz version 12.2.1 (0)
 -->
<!-- Title: nix::Expr Pages: 1 -->
<svg width="363pt" height="575pt"
 viewBox="0.00 0.00 362.75 574.75" xmlns="http://www.w3.org/2000/svg" xmlns:xlink="http://www.w3.org/1999/xlink">
<g id="graph0" class="graph" transform="scale(1 1) rotate(0) translate(4 570.75)">
<title>nix::Expr</title>
<!-- Node1 -->
<g id="Node000001" class="node">
<title>Node1</title>
<g id="a_Node000001"><a xlink:title=" ">
<polygon fill="#999999" stroke="#666666" points="58.75,-293.75 0,-293.75 0,-273 58.75,-273 58.75,-293.75"/>
<text text-anchor="middle" x="29.38" y="-280.25" font-family="Helvetica,sans-Serif" font-size="10.00">nix::Expr</text>
</a>
</g>
</g>
<!-- Node2 -->
<g id="Node000002" class="node">
<title>Node2</title>
<g id="a_Node000002"><a xlink:href="structnix_1_1ExprAssert.html" target="_top" xlink:title=" ">
<polygon fill="white" stroke="#bfbfbf" points="194,-566.75 104.5,-566.75 104.5,-546 194,-546 194,-566.75"/>
<text text-anchor="middle" x="149.25" y="-553.25" font-family="Helvetica,sans-Serif" font-size="10.00">nix::ExprAssert</text>
</a>
</g>
</g>
<!-- Node1&#45;&gt;Node2 -->
<g id="edge1_Node000001_Node000002" class="edge">
<title>Node1&#45;&gt;Node2</title>
<g id="a_edge1_Node000001_Node000002"><a xlink:title=" ">
<path fill="none" stroke="#63b8ff" d="M29.57,-305.59C29.05,-353.86 34.6,-469.31 94.75,-536.38 98.06,-540.07 102.12,-543.08 106.51,-545.54"/>
<polygon fill="#63b8ff" stroke="#63b8ff" points="33.07,-305.69 29.8,-295.62 26.07,-305.53 33.07,-305.69"/>
</a>
</g>
</g>
<!-- Node3 -->
<g id="Node000003" class="node">
<title>Node3</title>
<g id="a_Node000003"><a xlink:href="structnix_1_1ExprBlackHole.html" target="_top" xlink:title=" ">
<polygon fill="white" stroke="#bfbfbf" points="203.38,-527.75 95.12,-527.75 95.12,-507 203.38,-507 203.38,-527.75"/>
<text text-anchor="middle" x="149.25" y="-514.25" font-family="Helvetica,sans-Serif" font-size="10.00">nix::ExprBlackHole</text>
</a>
</g>
</g>
<!-- Node1&#45;&gt;Node3 -->
<g id="edge2_Node000001_Node000003" class="edge">
<title>Node1&#45;&gt;Node3</title>
<g id="a_edge2_Node000001_Node000003"><a xlink:title=" ">
<path fill="none" stroke="#63b8ff" d="M30.82,-305.33C32.87,-347.93 43.32,-442.46 94.75,-497.38 98.21,-501.07 102.41,-504.08 106.92,-506.54"/>
<polygon fill="#63b8ff" stroke="#63b8ff" points="34.32,-305.26 30.47,-295.38 27.33,-305.5 34.32,-305.26"/>
</a>
</g>
</g>
<!-- Node4 -->
<g id="Node000004" class="node">
<title>Node4</title>
<g id="a_Node000004"><a xlink:href="structnix_1_1ExprCall.html" target="_top" xlink:title=" ">
<polygon fill="white" stroke="#bfbfbf" points="188,-488.75 110.5,-488.75 110.5,-468 188,-468 188,-488.75"/>
<text text-anchor="middle" x="149.25" y="-475.25" font-family="Helvetica,sans-Serif" font-size="10.00">nix::ExprCall</text>
</a>
</g>
</g>
<!-- Node1&#45;&gt;Node4 -->
<g id="edge3_Node000001_Node000004" class="edge">
<title>Node1&#45;&gt;Node4</title>
<g id="a_edge3_Node000001_Node000004"><a xlink:title=" ">
<path fill="none" stroke="#63b8ff" d="M32.58,-305.33C37.39,-341.9 52.07,-415.47 94.75,-458.38 99.09,-462.73 104.46,-466.15 110.11,-468.84"/>
<polygon fill="#63b8ff" stroke="#63b8ff" points="36.08,-305.08 31.44,-295.56 29.12,-305.9 36.08,-305.08"/>
</a>
</g>
</g>
<!-- Node5 -->
<g id="Node000005" class="node">
<title>Node5</title>
<g id="a_Node000005"><a xlink:href="structnix_1_1ExprIf.html" target="_top" xlink:title=" ">
<polygon fill="white" stroke="#bfbfbf" points="182,-449.75 116.5,-449.75 116.5,-429 182,-429 182,-449.75"/>
<text text-anchor="middle" x="149.25" y="-436.25" font-family="Helvetica,sans-Serif" font-size="10.00">nix::ExprIf</text>
</a>
</g>
</g>
<!-- Node1&#45;&gt;Node5 -->
<g id="edge4_Node000001_Node000005" class="edge">
<title>Node1&#45;&gt;Node5</title>
<g id="a_edge4_Node000001_Node000005"><a xlink:title=" ">
<path fill="none" stroke="#63b8ff" d="M35.19,-305.03C42.86,-334.73 60.6,-387.99 94.75,-419.38 100.81,-424.94 108.56,-429 116.28,-431.95"/>
<polygon fill="#63b8ff" stroke="#63b8ff" points="38.68,-304.58 32.93,-295.68 31.88,-306.22 38.68,-304.58"/>
</a>
</g>
</g>
<!-- Node6 -->
<g id="Node000006" class="node">
<title>Node6</title>
<g id="a_Node000006"><a xlink:href="structnix_1_1ExprLambda.html" target="_top" xlink:title=" ">
<polygon fill="white" stroke="#bfbfbf" points="198.12,-410.75 100.38,-410.75 100.38,-390 198.12,-390 198.12,-410.75"/>
<text text-anchor="middle" x="149.25" y="-397.25" font-family="Helvetica,sans-Serif" font-size="10.00">nix::ExprLambda</text>
</a>
</g>
</g>
<!-- Node1&#45;&gt;Node6 -->
<g id="edge5_Node000001_Node000006" class="edge">
<title>Node1&#45;&gt;Node6</title>
<g id="a_edge5_Node000001_Node000006"><a xlink:title=" ">
<path fill="none" stroke="#63b8ff" d="M39.52,-304.47C49.97,-326.26 68.99,-359.91 94.75,-380.38 99.33,-384.01 104.64,-387.04 110.1,-389.54"/>
<polygon fill="#63b8ff" stroke="#63b8ff" points="42.71,-303.02 35.37,-295.38 36.35,-305.93 42.71,-303.02"/>
</a>
</g>
</g>
<!-- Node7 -->
<g id="Node000007" class="node">
<title>Node7</title>
<g id="a_Node000007"><a xlink:href="structnix_1_1ExprLet.html" target="_top" xlink:title=" ">
<polygon fill="white" stroke="#bfbfbf" points="186.12,-371.75 112.38,-371.75 112.38,-351 186.12,-351 186.12,-371.75"/>
<text text-anchor="middle" x="149.25" y="-358.25" font-family="Helvetica,sans-Serif" font-size="10.00">nix::ExprLet</text>
</a>
</g>
</g>
<!-- Node1&#45;&gt;Node7 -->
<g id="edge6_Node000001_Node000007" class="edge">
<title>Node1&#45;&gt;Node7</title>
<g id="a_edge6_Node000001_Node000007"><a xlink:title=" ">
<path fill="none" stroke="#63b8ff" d="M47.81,-302.44C59.99,-314.87 77.16,-330.7 94.75,-341.38 100.51,-344.87 106.99,-347.92 113.39,-350.52"/>
<polygon fill="#63b8ff" stroke="#63b8ff" points="50.36,-300.05 40.93,-295.22 45.29,-304.87 50.36,-300.05"/>
</a>
</g>
</g>
<!-- Node8 -->
<g id="Node000008" class="node">
<title>Node8</title>
<g id="a_Node000008"><a xlink:href="structnix_1_1ExprList.html" target="_top" xlink:title=" ">
<polygon fill="white" stroke="#bfbfbf" points="187.25,-332.75 111.25,-332.75 111.25,-312 187.25,-312 187.25,-332.75"/>
<text text-anchor="middle" x="149.25" y="-319.25" font-family="Helvetica,sans-Serif" font-size="10.00">nix::ExprList</text>
</a>
</g>
</g>
<!-- Node1&#45;&gt;Node8 -->
<g id="edge7_Node000001_Node000008" class="edge">
<title>Node1&#45;&gt;Node8</title>
<g id="a_edge7_Node000001_Node000008"><a xlink:title=" ">
<path fill="none" stroke="#63b8ff" d="M70.09,-296.52C84.87,-301.41 101.47,-306.9 115.55,-311.56"/>
<polygon fill="#63b8ff" stroke="#63b8ff" points="71.24,-293.21 60.65,-293.39 69.04,-299.85 71.24,-293.21"/>
</a>
</g>
</g>
<!-- Node9 -->
<g id="Node000009" class="node">
<title>Node9</title>
<g id="a_Node000009"><a xlink:href="structnix_1_1ExprLiteral.html" target="_top" xlink:title=" ">
<polygon fill="white" stroke="#bfbfbf" points="194,-293.75 104.5,-293.75 104.5,-273 194,-273 194,-293.75"/>
<text text-anchor="middle" x="149.25" y="-280.25" font-family="Helvetica,sans-Serif" font-size="10.00">nix::ExprLiteral</text>
</a>
</g>
</g>
<!-- Node1&#45;&gt;Node9 -->
<g id="edge8_Node000001_Node000009" class="edge">
<title>Node1&#45;&gt;Node9</title>
<g id="a_edge8_Node000001_Node000009"><a xlink:title=" ">
<path fill="none" stroke="#63b8ff" d="M70.49,-283.38C81.31,-283.38 93.07,-283.38 104.09,-283.38"/>
<polygon fill="#63b8ff" stroke="#63b8ff" points="70.72,-279.88 60.72,-283.38 70.72,-286.88 70.72,-279.88"/>
</a>
</g>
</g>
<!-- Node12 -->
<g id="Node000012" class="node">
<title>Node12</title>
<g id="a_Node000012"><a xlink:href="structnix_1_1ExprOpHasAttr.html" target="_top" xlink:title=" ">
<polygon fill="white" stroke="#bfbfbf" points="203.75,-254.75 94.75,-254.75 94.75,-234 203.75,-234 203.75,-254.75"/>
<text text-anchor="middle" x="149.25" y="-241.25" font-family="Helvetica,sans-Serif" font-size="10.00">nix::ExprOpHasAttr</text>
</a>
</g>
</g>
<!-- Node1&#45;&gt;Node12 -->
<g id="edge11_Node000001_Node000012" class="edge">
<title>Node1&#45;&gt;Node12</title>
<g id="a_edge11_Node000001_Node000012"><a xlink:title=" ">
<path fill="none" stroke="#63b8ff" d="M70.09,-270.23C84.87,-265.34 101.47,-259.85 115.55,-255.19"/>
<polygon fill="#63b8ff" stroke="#63b8ff" points="69.04,-266.9 60.65,-273.36 71.24,-273.54 69.04,-266.9"/>
</a>
</g>
</g>
<!-- Node13 -->
<g id="Node000013" class="node">
<title>Node13</title>
<g id="a_Node000013"><a xlink:href="structnix_1_1ExprOpNot.html" target="_top" xlink:title=" ">
<polygon fill="white" stroke="#bfbfbf" points="194,-215.75 104.5,-215.75 104.5,-195 194,-195 194,-215.75"/>
<text text-anchor="middle" x="149.25" y="-202.25" font-family="Helvetica,sans-Serif" font-size="10.00">nix::ExprOpNot</text>
</a>
</g>
</g>
<!-- Node1&#45;&gt;Node13 -->
<g id="edge12_Node000001_Node000013" class="edge">
<title>Node1&#45;&gt;Node13</title>
<g id="a_edge12_Node000001_Node000013"><a xlink:title=" ">
<path fill="none" stroke="#63b8ff" d="M47.81,-264.31C59.99,-251.88 77.16,-236.05 94.75,-225.38 100.51,-221.88 106.99,-218.83 113.39,-216.23"/>
<polygon fill="#63b8ff" stroke="#63b8ff" points="45.29,-261.88 40.93,-271.53 50.36,-266.7 45.29,-261.88"/>
</a>
</g>
</g>
<!-- Node14 -->
<g id="Node000014" class="node">
<title>Node14</title>
<g id="a_Node000014"><a xlink:href="structnix_1_1ExprPos.html" target="_top" xlink:title=" ">
<polygon fill="white" stroke="#bfbfbf" points="187.25,-176.75 111.25,-176.75 111.25,-156 187.25,-156 187.25,-176.75"/>
<text text-anchor="middle" x="149.25" y="-163.25" font-family="Helvetica,sans-Serif" font-size="10.00">nix::ExprPos</text>
</a>
</g>
</g>
<!-- Node1&#45;&gt;Node14 -->
<g id="edge13_Node000001_Node000014" class="edge">
<title>Node1&#45;&gt;Node14</title>
<g id="a_edge13_Node000001_Node000014"><a xlink:title=" ">
<path fill="none" stroke="#63b8ff" d="M39.52,-262.28C49.97,-240.49 68.99,-206.84 94.75,-186.38 99.56,-182.55 105.18,-179.41 110.94,-176.84"/>
<polygon fill="#63b8ff" stroke="#63b8ff" points="36.35,-260.82 35.37,-271.37 42.71,-263.73 36.35,-260.82"/>
</a>
</g>
</g>
<!-- Node15 -->
<g id="Node000015" class="node">
<title>Node15</title>
<g id="a_Node000015"><a xlink:href="structnix_1_1ExprSelect.html" target="_top" xlink:title=" ">
<polygon fill="white" stroke="#bfbfbf" points="193.62,-137.75 104.88,-137.75 104.88,-117 193.62,-117 193.62,-137.75"/>
<text text-anchor="middle" x="149.25" y="-124.25" font-family="Helvetica,sans-Serif" font-size="10.00">nix::ExprSelect</text>
</a>
</g>
</g>
<!-- Node1&#45;&gt;Node15 -->
<g id="edge14_Node000001_Node000015" class="edge">
<title>Node1&#45;&gt;Node15</title>
<g id="a_edge14_Node000001_Node000015"><a xlink:title=" ">
<path fill="none" stroke="#63b8ff" d="M35.19,-261.72C42.86,-232.02 60.6,-178.76 94.75,-147.38 98.77,-143.68 103.53,-140.66 108.52,-138.18"/>
<polygon fill="#63b8ff" stroke="#63b8ff" points="31.88,-260.53 32.93,-271.07 38.68,-262.17 31.88,-260.53"/>
</a>
</g>
</g>
<!-- Node16 -->
<g id="Node000016" class="node">
<title>Node16</title>
<g id="a_Node000016"><a xlink:href="structnix_1_1ExprSet.html" target="_top" xlink:title=" ">
<polygon fill="white" stroke="#bfbfbf" points="186.5,-98.75 112,-98.75 112,-78 186.5,-78 186.5,-98.75"/>
<text text-anchor="middle" x="149.25" y="-85.25" font-family="Helvetica,sans-Serif" font-size="10.00">nix::ExprSet</text>
</a>
</g>
</g>
<!-- Node1&#45;&gt;Node16 -->
<g id="edge15_Node000001_Node000016" class="edge">
<title>Node1&#45;&gt;Node16</title>
<g id="a_edge15_Node000001_Node000016"><a xlink:title=" ">
<path fill="none" stroke="#63b8ff" d="M32.58,-261.42C37.39,-224.85 52.07,-151.28 94.75,-108.38 99.51,-103.59 105.51,-99.94 111.76,-97.16"/>
<polygon fill="#63b8ff" stroke="#63b8ff" points="29.12,-260.85 31.44,-271.19 36.08,-261.67 29.12,-260.85"/>
</a>
</g>
</g>
<!-- Node17 -->
<g id="Node000017" class="node">
<title>Node17</title>
<g id="a_Node000017"><a xlink:href="structnix_1_1ExprVar.html" target="_top" xlink:title=" ">
<polygon fill="white" stroke="#bfbfbf" points="186.5,-59.75 112,-59.75 112,-39 186.5,-39 186.5,-59.75"/>
<text text-anchor="middle" x="149.25" y="-46.25" font-family="Helvetica,sans-Serif" font-size="10.00">nix::ExprVar</text>
</a>
</g>
</g>
<!-- Node1&#45;&gt;Node17 -->
<g id="edge16_Node000001_Node000017" class="edge">
<title>Node1&#45;&gt;Node17</title>
<g id="a_edge16_Node000001_Node000017"><a xlink:title=" ">
<path fill="none" stroke="#63b8ff" d="M30.82,-261.42C32.87,-218.82 43.32,-124.29 94.75,-69.38 99.36,-64.45 105.29,-60.74 111.53,-57.93"/>
<polygon fill="#63b8ff" stroke="#63b8ff" points="27.33,-261.25 30.47,-271.37 34.32,-261.49 27.33,-261.25"/>
</a>
</g>
</g>
<!-- Node19 -->
<g id="Node000019" class="node">
<title>Node19</title>
<g id="a_Node000019"><a xlink:href="structnix_1_1ExprWith.html" target="_top" xlink:title=" ">
<polygon fill="white" stroke="#bfbfbf" points="189.88,-20.75 108.62,-20.75 108.62,0 189.88,0 189.88,-20.75"/>
<text text-anchor="middle" x="149.25" y="-7.25" font-family="Helvetica,sans-Serif" font-size="10.00">nix::ExprWith</text>
</a>
</g>
</g>
<!-- Node1&#45;&gt;Node19 -->
<g id="edge18_Node000001_Node000019" class="edge">
<title>Node1&#45;&gt;Node19</title>
<g id="a_edge18_Node000001_Node000019"><a xlink:title=" ">
<path fill="none" stroke="#63b8ff" d="M29.57,-261.16C29.05,-212.89 34.6,-97.44 94.75,-30.38 98.52,-26.17 103.27,-22.84 108.37,-20.21"/>
<polygon fill="#63b8ff" stroke="#63b8ff" points="26.07,-261.22 29.8,-271.13 33.07,-261.06 26.07,-261.22"/>
</a>
</g>
</g>
<!-- Node10 -->
<g id="Node000010" class="node">
<title>Node10</title>
<g id="a_Node000010"><a xlink:href="structnix_1_1ExprPath.html" target="_top" xlink:title=" ">
<polygon fill="white" stroke="#bfbfbf" points="337.12,-312.75 257.38,-312.75 257.38,-292 337.12,-292 337.12,-312.75"/>
<text text-anchor="middle" x="297.25" y="-299.25" font-family="Helvetica,sans-Serif" font-size="10.00">nix::ExprPath</text>
</a>
</g>
</g>
<!-- Node9&#45;&gt;Node10 -->
<g id="edge9_Node000009_Node000010" class="edge">
<title>Node9&#45;&gt;Node10</title>
<g id="a_edge9_Node000009_Node000010"><a xlink:title=" ">
<path fill="none" stroke="#63b8ff" d="M205.51,-290.57C222.7,-292.8 241.3,-295.22 257.15,-297.29"/>
<polygon fill="#63b8ff" stroke="#63b8ff" points="206.32,-287.14 195.95,-289.32 205.42,-294.08 206.32,-287.14"/>
</a>
</g>
</g>
<!-- Node11 -->
<g id="Node000011" class="node">
<title>Node11</title>
<g id="a_Node000011"><a xlink:href="structnix_1_1ExprString.html" target="_top" xlink:title=" ">
<polygon fill="white" stroke="#bfbfbf" points="340.88,-273.75 253.62,-273.75 253.62,-253 340.88,-253 340.88,-273.75"/>
<text text-anchor="middle" x="297.25" y="-260.25" font-family="Helvetica,sans-Serif" font-size="10.00">nix::ExprString</text>
</a>
</g>
</g>
<!-- Node9&#45;&gt;Node11 -->
<g id="edge10_Node000009_Node000011" class="edge">
<title>Node9&#45;&gt;Node11</title>
<g id="a_edge10_Node000009_Node000011"><a xlink:title=" ">
<path fill="none" stroke="#63b8ff" d="M205.66,-275.78C221.41,-273.63 238.31,-271.31 253.2,-269.27"/>
<polygon fill="#63b8ff" stroke="#63b8ff" points="205.38,-272.29 195.95,-277.11 206.33,-279.22 205.38,-272.29"/>
</a>
</g>
</g>
<!-- Node18 -->
<g id="Node000018" class="node">
<title>Node18</title>
<g id="a_Node000018"><a xlink:href="structnix_1_1ExprInheritFrom.html" target="_top" xlink:title=" ">
<polygon fill="white" stroke="#666666" points="354.75,-59.75 239.75,-59.75 239.75,-39 354.75,-39 354.75,-59.75"/>
<text text-anchor="middle" x="297.25" y="-46.25" font-family="Helvetica,sans-Serif" font-size="10.00">nix::ExprInheritFrom</text>
</a>
</g>
</g>
<!-- Node17&#45;&gt;Node18 -->
<g id="edge17_Node000017_Node000018" class="edge">
<title>Node17&#45;&gt;Node18</title>
<g id="a_edge17_Node000017_Node000018"><a xlink:title=" ">
<path fill="none" stroke="#63b8ff" d="M197.93,-49.38C211.13,-49.38 225.58,-49.38 239.25,-49.38"/>
<polygon fill="#63b8ff" stroke="#63b8ff" points="198.23,-45.88 188.23,-49.38 198.23,-52.88 198.23,-45.88"/>
</a>
</g>
</g>
</g>
</svg>
