<?xml version="1.0" encoding="UTF-8" standalone="no"?>
<!DOCTYPE svg PUBLIC "-//W3C//DTD SVG 1.1//EN"
 "http://www.w3.org/Graphics/SVG/1.1/DTD/svg11.dtd">
<!-- Generated by graphviz version 12.2.1 (0)
 -->
<!-- Title: nix::CmdProfileRemove Pages: 1 -->
<svg width="364pt" height="313pt"
 viewBox="0.00 0.00 364.00 312.50" xmlns="http://www.w3.org/2000/svg" xmlns:xlink="http://www.w3.org/1999/xlink">
<g id="graph0" class="graph" transform="scale(1 1) rotate(0) translate(4 308.5)">
<title>nix::CmdProfileRemove</title>
<!-- Node1 -->
<g id="Node000001" class="node">
<title>Node1</title>
<g id="a_Node000001"><a xlink:title=" ">
<polygon fill="#999999" stroke="#666666" points="221.75,-20.75 91,-20.75 91,0 221.75,0 221.75,-20.75"/>
<text text-anchor="middle" x="156.38" y="-7.25" font-family="Helvetica,sans-Serif" font-size="10.00">nix::CmdProfileRemove</text>
</a>
</g>
</g>
<!-- Node2 -->
<g id="Node000002" class="node">
<title>Node2</title>
<g id="a_Node000002"><a xlink:href="structnix_1_1EvalCommand.html" target="_top" xlink:title=" ">
<polygon fill="white" stroke="#666666" points="225.5,-134.25 117.25,-134.25 117.25,-113.5 225.5,-113.5 225.5,-134.25"/>
<text text-anchor="middle" x="171.38" y="-120.75" font-family="Helvetica,sans-Serif" font-size="10.00">nix::EvalCommand</text>
</a>
</g>
</g>
<!-- Node2&#45;&gt;Node1 -->
<g id="edge1_Node000001_Node000002" class="edge">
<title>Node2&#45;&gt;Node1</title>
<g id="a_edge1_Node000001_Node000002"><a xlink:title=" ">
<path fill="none" stroke="#63b8ff" d="M168.56,-101.97C165.32,-77.84 160.11,-39.17 157.69,-21.18"/>
<polygon fill="#63b8ff" stroke="#63b8ff" points="165.09,-102.42 169.89,-111.87 172.03,-101.49 165.09,-102.42"/>
</a>
</g>
</g>
<!-- Node3 -->
<g id="Node000003" class="node">
<title>Node3</title>
<g id="a_Node000003"><a xlink:href="structnix_1_1StoreCommand.html" target="_top" xlink:title=" ">
<polygon fill="white" stroke="#666666" points="112.75,-191 0,-191 0,-170.25 112.75,-170.25 112.75,-191"/>
<text text-anchor="middle" x="56.38" y="-177.5" font-family="Helvetica,sans-Serif" font-size="10.00">nix::StoreCommand</text>
</a>
</g>
</g>
<!-- Node3&#45;&gt;Node2 -->
<g id="edge2_Node000002_Node000003" class="edge">
<title>Node3&#45;&gt;Node2</title>
<g id="a_edge2_Node000002_Node000003"><a xlink:title=" ">
<path fill="none" stroke="#63b8ff" d="M87.21,-164.95C107.43,-155.32 133.3,-143 150.99,-134.58"/>
<polygon fill="#63b8ff" stroke="#63b8ff" points="85.83,-161.73 78.3,-169.19 88.83,-168.05 85.83,-161.73"/>
</a>
</g>
</g>
<!-- Node9 -->
<g id="Node000009" class="node">
<title>Node9</title>
<g id="a_Node000009"><a xlink:href="structnix_1_1MixProfile.html" target="_top" xlink:title=" ">
<polygon fill="white" stroke="#bfbfbf" points="99.25,-134.25 13.5,-134.25 13.5,-113.5 99.25,-113.5 99.25,-134.25"/>
<text text-anchor="middle" x="56.38" y="-120.75" font-family="Helvetica,sans-Serif" font-size="10.00">nix::MixProfile</text>
</a>
</g>
</g>
<!-- Node3&#45;&gt;Node9 -->
<g id="edge11_Node000009_Node000003" class="edge">
<title>Node3&#45;&gt;Node9</title>
<g id="a_edge11_Node000009_Node000003"><a xlink:title=" ">
<path fill="none" stroke="#63b8ff" d="M56.38,-158.38C56.38,-150.16 56.38,-141.18 56.38,-134.58"/>
<polygon fill="#63b8ff" stroke="#63b8ff" points="52.88,-158.32 56.38,-168.32 59.88,-158.32 52.88,-158.32"/>
</a>
</g>
</g>
<!-- Node4 -->
<g id="Node000004" class="node">
<title>Node4</title>
<g id="a_Node000004"><a xlink:href="structnix_1_1Command.html" target="_top" xlink:title=" ">
<polygon fill="white" stroke="#666666" points="100,-247.75 12.75,-247.75 12.75,-227 100,-227 100,-247.75"/>
<text text-anchor="middle" x="56.38" y="-234.25" font-family="Helvetica,sans-Serif" font-size="10.00">nix::Command</text>
</a>
</g>
</g>
<!-- Node4&#45;&gt;Node3 -->
<g id="edge3_Node000003_Node000004" class="edge">
<title>Node4&#45;&gt;Node3</title>
<g id="a_edge3_Node000003_Node000004"><a xlink:title=" ">
<path fill="none" stroke="#63b8ff" d="M56.38,-215.13C56.38,-206.91 56.38,-197.93 56.38,-191.33"/>
<polygon fill="#63b8ff" stroke="#63b8ff" points="52.88,-215.07 56.38,-225.07 59.88,-215.07 52.88,-215.07"/>
</a>
</g>
</g>
<!-- Node5 -->
<g id="Node000005" class="node">
<title>Node5</title>
<g id="a_Node000005"><a xlink:href="classnix_1_1Args.html" target="_top" xlink:title=" ">
<polygon fill="white" stroke="#bfbfbf" points="192.75,-304.5 134,-304.5 134,-283.75 192.75,-283.75 192.75,-304.5"/>
<text text-anchor="middle" x="163.38" y="-291" font-family="Helvetica,sans-Serif" font-size="10.00">nix::Args</text>
</a>
</g>
</g>
<!-- Node5&#45;&gt;Node4 -->
<g id="edge4_Node000004_Node000005" class="edge">
<title>Node5&#45;&gt;Node4</title>
<g id="a_edge4_Node000004_Node000005"><a xlink:title=" ">
<path fill="none" stroke="#63b8ff" d="M134.16,-278.18C115.43,-268.59 91.65,-256.42 75.34,-248.08"/>
<polygon fill="#63b8ff" stroke="#63b8ff" points="132.4,-281.21 142.9,-282.65 135.59,-274.98 132.4,-281.21"/>
</a>
</g>
</g>
<!-- Node6 -->
<g id="Node000006" class="node">
<title>Node6</title>
<g id="a_Node000006"><a xlink:href="structnix_1_1MixEvalArgs.html" target="_top" xlink:title=" ">
<polygon fill="white" stroke="#bfbfbf" points="228.25,-191 130.5,-191 130.5,-170.25 228.25,-170.25 228.25,-191"/>
<text text-anchor="middle" x="179.38" y="-177.5" font-family="Helvetica,sans-Serif" font-size="10.00">nix::MixEvalArgs</text>
</a>
</g>
</g>
<!-- Node5&#45;&gt;Node6 -->
<g id="edge6_Node000006_Node000005" class="edge">
<title>Node5&#45;&gt;Node6</title>
<g id="a_edge6_Node000006_Node000005"><a xlink:title=" ">
<path fill="none" stroke="#63b8ff" d="M152.94,-273.29C147.35,-260.05 142.51,-242.33 147.38,-227 151.75,-213.22 161.98,-200.01 169.71,-191.43"/>
<polygon fill="#63b8ff" stroke="#63b8ff" points="149.73,-274.69 157.17,-282.23 156.05,-271.69 149.73,-274.69"/>
</a>
</g>
</g>
<!-- Node7 -->
<g id="Node000007" class="node">
<title>Node7</title>
<g id="a_Node000007"><a xlink:href="structnix_1_1MixRepair.html" target="_top" xlink:title=" ">
<polygon fill="white" stroke="#bfbfbf" points="242.62,-247.75 156.12,-247.75 156.12,-227 242.62,-227 242.62,-247.75"/>
<text text-anchor="middle" x="199.38" y="-234.25" font-family="Helvetica,sans-Serif" font-size="10.00">nix::MixRepair</text>
</a>
</g>
</g>
<!-- Node5&#45;&gt;Node7 -->
<g id="edge8_Node000007_Node000005" class="edge">
<title>Node5&#45;&gt;Node7</title>
<g id="a_edge8_Node000007_Node000005"><a xlink:title=" ">
<path fill="none" stroke="#63b8ff" d="M176.02,-273.89C181.76,-265.16 188.3,-255.22 192.99,-248.08"/>
<polygon fill="#63b8ff" stroke="#63b8ff" points="173.21,-271.79 170.64,-282.07 179.06,-275.64 173.21,-271.79"/>
</a>
</g>
</g>
<!-- Node10 -->
<g id="Node000010" class="node">
<title>Node10</title>
<g id="a_Node000010"><a xlink:href="classnix_1_1MixProfileElementMatchers.html" target="_top" xlink:title=" ">
<polygon fill="white" stroke="#bfbfbf" points="356,-77.5 184.75,-77.5 184.75,-56.75 356,-56.75 356,-77.5"/>
<text text-anchor="middle" x="270.38" y="-64" font-family="Helvetica,sans-Serif" font-size="10.00">nix::MixProfileElementMatchers</text>
</a>
</g>
</g>
<!-- Node5&#45;&gt;Node10 -->
<g id="edge13_Node000010_Node000005" class="edge">
<title>Node5&#45;&gt;Node10</title>
<g id="a_edge13_Node000010_Node000005"><a xlink:title=" ">
<path fill="none" stroke="#8b1a1a" d="M203.47,-282.01C221.01,-275.05 240.12,-264.2 251.38,-247.75 288.74,-193.14 277.42,-106.53 272.28,-77.76"/>
<polygon fill="#8b1a1a" stroke="#8b1a1a" points="202.47,-278.65 194.26,-285.34 204.85,-285.23 202.47,-278.65"/>
</a>
</g>
</g>
<!-- Node6&#45;&gt;Node2 -->
<g id="edge5_Node000002_Node000006" class="edge">
<title>Node6&#45;&gt;Node2</title>
<g id="a_edge5_Node000002_Node000006"><a xlink:title=" ">
<path fill="none" stroke="#63b8ff" d="M176.31,-158.67C175.1,-150.38 173.77,-141.25 172.79,-134.58"/>
<polygon fill="#63b8ff" stroke="#63b8ff" points="172.82,-158.95 177.73,-168.34 179.74,-157.94 172.82,-158.95"/>
</a>
</g>
</g>
<!-- Node7&#45;&gt;Node6 -->
<g id="edge7_Node000006_Node000007" class="edge">
<title>Node7&#45;&gt;Node6</title>
<g id="a_edge7_Node000006_Node000007"><a xlink:title=" ">
<path fill="none" stroke="#63b8ff" d="M191.93,-215.99C188.85,-207.55 185.41,-198.16 182.92,-191.33"/>
<polygon fill="#63b8ff" stroke="#63b8ff" points="188.56,-216.97 195.28,-225.17 195.14,-214.57 188.56,-216.97"/>
</a>
</g>
</g>
<!-- Node8 -->
<g id="Node000008" class="node">
<title>Node8</title>
<g id="a_Node000008"><a xlink:href="structnix_1_1MixDefaultProfile.html" target="_top" xlink:title=" ">
<polygon fill="white" stroke="#bfbfbf" points="123.25,-77.5 1.5,-77.5 1.5,-56.75 123.25,-56.75 123.25,-77.5"/>
<text text-anchor="middle" x="62.38" y="-64" font-family="Helvetica,sans-Serif" font-size="10.00">nix::MixDefaultProfile</text>
</a>
</g>
</g>
<!-- Node8&#45;&gt;Node1 -->
<g id="edge9_Node000001_Node000008" class="edge">
<title>Node8&#45;&gt;Node1</title>
<g id="a_edge9_Node000001_Node000008"><a xlink:title=" ">
<path fill="none" stroke="#63b8ff" d="M88.73,-50.78C105.08,-41.25 125.59,-29.31 139.72,-21.08"/>
<polygon fill="#63b8ff" stroke="#63b8ff" points="87.37,-47.52 80.49,-55.58 90.89,-53.57 87.37,-47.52"/>
</a>
</g>
</g>
<!-- Node9&#45;&gt;Node8 -->
<g id="edge10_Node000008_Node000009" class="edge">
<title>Node9&#45;&gt;Node8</title>
<g id="a_edge10_Node000008_Node000009"><a xlink:title=" ">
<path fill="none" stroke="#63b8ff" d="M58.67,-101.92C59.58,-93.63 60.58,-84.5 61.31,-77.83"/>
<polygon fill="#63b8ff" stroke="#63b8ff" points="55.22,-101.26 57.61,-111.58 62.18,-102.02 55.22,-101.26"/>
</a>
</g>
</g>
<!-- Node10&#45;&gt;Node1 -->
<g id="edge12_Node000001_Node000010" class="edge">
<title>Node10&#45;&gt;Node1</title>
<g id="a_edge12_Node000001_Node000010"><a xlink:title=" ">
<path fill="none" stroke="#63b8ff" d="M239.81,-51.45C219.76,-41.82 194.11,-29.5 176.58,-21.08"/>
<polygon fill="#63b8ff" stroke="#63b8ff" points="238.1,-54.51 248.63,-55.68 241.13,-48.2 238.1,-54.51"/>
</a>
</g>
</g>
</g>
</svg>
