<?xml version="1.0" encoding="UTF-8" standalone="no"?>
<!DOCTYPE svg PUBLIC "-//W3C//DTD SVG 1.1//EN"
 "http://www.w3.org/Graphics/SVG/1.1/DTD/svg11.dtd">
<!-- Generated by graphviz version 12.2.1 (0)
 -->
<!-- Title: nix::CmdKeyConvertSecretToPublic Pages: 1 -->
<svg width="302pt" height="169pt"
 viewBox="0.00 0.00 301.70 168.75" xmlns="http://www.w3.org/2000/svg" xmlns:xlink="http://www.w3.org/1999/xlink">
<g id="graph0" class="graph" transform="scale(1 1) rotate(0) translate(4 164.75)">
<title>nix::CmdKeyConvertSecretToPublic</title>
<!-- Node1 -->
<g id="Node000001" class="node">
<title>Node1</title>
<g id="a_Node000001"><a xlink:title=" ">
<polygon fill="#999999" stroke="#666666" points="146.5,-103 0,-103 0,-69.5 146.5,-69.5 146.5,-103"/>
<text text-anchor="start" x="8" y="-89.5" font-family="Helvetica,sans-Serif" font-size="10.00">nix::CmdKeyConvertSecret</text>
<text text-anchor="middle" x="73.25" y="-76.75" font-family="Helvetica,sans-Serif" font-size="10.00">ToPublic</text>
</a>
</g>
</g>
<!-- Node2 -->
<g id="Node000002" class="node">
<title>Node2</title>
<g id="a_Node000002"><a xlink:href="structnix_1_1Command.html" target="_top" xlink:title=" ">
<polygon fill="white" stroke="#666666" points="263.88,-160.75 176.62,-160.75 176.62,-140 263.88,-140 263.88,-160.75"/>
<text text-anchor="middle" x="220.25" y="-147.25" font-family="Helvetica,sans-Serif" font-size="10.00">nix::Command</text>
</a>
</g>
</g>
<!-- Node2&#45;&gt;Node1 -->
<g id="edge1_Node000001_Node000002" class="edge">
<title>Node2&#45;&gt;Node1</title>
<g id="a_edge1_Node000001_Node000002"><a xlink:title=" ">
<path fill="none" stroke="#63b8ff" d="M186.61,-135.16C164.26,-125.71 134.86,-113.29 111.6,-103.46"/>
<polygon fill="#63b8ff" stroke="#63b8ff" points="184.99,-138.27 195.56,-138.94 187.71,-131.83 184.99,-138.27"/>
</a>
</g>
</g>
<!-- Node4 -->
<g id="Node000004" class="node">
<title>Node4</title>
<g id="a_Node000004"><a xlink:href="classnix_1_1MultiCommand.html" target="_top" xlink:title=" ">
<polygon fill="white" stroke="#666666" points="276.25,-96.62 164.25,-96.62 164.25,-75.88 276.25,-75.88 276.25,-96.62"/>
<text text-anchor="middle" x="220.25" y="-83.12" font-family="Helvetica,sans-Serif" font-size="10.00">nix::MultiCommand</text>
</a>
</g>
</g>
<!-- Node2&#45;&gt;Node4 -->
<g id="edge4_Node000004_Node000002" class="edge">
<title>Node2&#45;&gt;Node4</title>
<g id="a_edge4_Node000004_Node000002"><a xlink:title=" ">
<path fill="none" stroke="#63b8ff" d="M220.25,-128.39C220.25,-117.81 220.25,-105.48 220.25,-97.09"/>
<polygon fill="#63b8ff" stroke="#63b8ff" points="216.75,-128.15 220.25,-138.15 223.75,-128.15 216.75,-128.15"/>
</a>
</g>
</g>
<!-- Node3 -->
<g id="Node000003" class="node">
<title>Node3</title>
<g id="a_Node000003"><a xlink:href="classnix_1_1Args.html" target="_top" xlink:title=" ">
<polygon fill="white" stroke="#bfbfbf" points="291.62,-20.75 232.88,-20.75 232.88,0 291.62,0 291.62,-20.75"/>
<text text-anchor="middle" x="262.25" y="-7.25" font-family="Helvetica,sans-Serif" font-size="10.00">nix::Args</text>
</a>
</g>
</g>
<!-- Node3&#45;&gt;Node2 -->
<g id="edge2_Node000002_Node000003" class="edge">
<title>Node3&#45;&gt;Node2</title>
<g id="a_edge2_Node000002_Node000003"><a xlink:title=" ">
<path fill="none" stroke="#63b8ff" d="M279.55,-29.78C281.44,-32.62 283.1,-35.64 284.25,-38.75 294.17,-65.53 298.33,-77.61 285.25,-103 276.56,-119.88 258.55,-131.98 243.69,-139.57"/>
<polygon fill="#63b8ff" stroke="#63b8ff" points="282.49,-27.86 273.53,-22.22 277.02,-32.22 282.49,-27.86"/>
</a>
</g>
</g>
<!-- Node4&#45;&gt;Node3 -->
<g id="edge3_Node000003_Node000004" class="edge">
<title>Node4&#45;&gt;Node3</title>
<g id="a_edge3_Node000003_Node000004"><a xlink:title=" ">
<path fill="none" stroke="#9a32cd" stroke-dasharray="5,2" d="M231.42,-65.61C239.65,-51.12 250.5,-32.04 256.89,-20.8"/>
<polygon fill="#9a32cd" stroke="#9a32cd" points="228.39,-63.85 226.49,-74.28 234.47,-67.31 228.39,-63.85"/>
</a>
</g>
<text text-anchor="middle" x="263.5" y="-42" font-family="Helvetica,sans-Serif" font-size="10.00" fill="grey"> parent</text>
</g>
</g>
</svg>
