<?xml version="1.0" encoding="UTF-8" standalone="no"?>
<!DOCTYPE svg PUBLIC "-//W3C//DTD SVG 1.1//EN"
 "http://www.w3.org/Graphics/SVG/1.1/DTD/svg11.dtd">
<!-- Generated by graphviz version 12.2.1 (0)
 -->
<!-- Title: nix::CmdCopyLog Pages: 1 -->
<svg width="366pt" height="483pt"
 viewBox="0.00 0.00 366.38 482.75" xmlns="http://www.w3.org/2000/svg" xmlns:xlink="http://www.w3.org/1999/xlink">
<g id="graph0" class="graph" transform="scale(1 1) rotate(0) translate(4 478.75)">
<title>nix::CmdCopyLog</title>
<!-- Node1 -->
<g id="Node000001" class="node">
<title>Node1</title>
<g id="a_Node000001"><a xlink:title=" ">
<polygon fill="#999999" stroke="#666666" points="173.12,-20.75 71.62,-20.75 71.62,0 173.12,0 173.12,-20.75"/>
<text text-anchor="middle" x="122.38" y="-7.25" font-family="Helvetica,sans-Serif" font-size="10.00">nix::CmdCopyLog</text>
</a>
</g>
</g>
<!-- Node2 -->
<g id="Node000002" class="node">
<title>Node2</title>
<g id="a_Node000002"><a xlink:href="structnix_1_1CopyCommand.html" target="_top" xlink:title=" ">
<polygon fill="white" stroke="#666666" points="112.38,-247.75 0.37,-247.75 0.37,-227 112.38,-227 112.38,-247.75"/>
<text text-anchor="middle" x="56.38" y="-234.25" font-family="Helvetica,sans-Serif" font-size="10.00">nix::CopyCommand</text>
</a>
</g>
</g>
<!-- Node2&#45;&gt;Node1 -->
<g id="edge1_Node000001_Node000002" class="edge">
<title>Node2&#45;&gt;Node1</title>
<g id="a_edge1_Node000001_Node000002"><a xlink:title=" ">
<path fill="none" stroke="#63b8ff" d="M58.95,-215.49C63.6,-181.37 74.98,-111.96 96.38,-56.75 101.43,-43.71 109.81,-29.94 115.69,-21.04"/>
<polygon fill="#63b8ff" stroke="#63b8ff" points="55.5,-214.86 57.68,-225.23 62.44,-215.76 55.5,-214.86"/>
</a>
</g>
</g>
<!-- Node3 -->
<g id="Node000003" class="node">
<title>Node3</title>
<g id="a_Node000003"><a xlink:href="structnix_1_1StoreCommand.html" target="_top" xlink:title=" ">
<polygon fill="white" stroke="#666666" points="112.75,-361.25 0,-361.25 0,-340.5 112.75,-340.5 112.75,-361.25"/>
<text text-anchor="middle" x="56.38" y="-347.75" font-family="Helvetica,sans-Serif" font-size="10.00">nix::StoreCommand</text>
</a>
</g>
</g>
<!-- Node3&#45;&gt;Node2 -->
<g id="edge2_Node000002_Node000003" class="edge">
<title>Node3&#45;&gt;Node2</title>
<g id="a_edge2_Node000002_Node000003"><a xlink:title=" ">
<path fill="none" stroke="#63b8ff" d="M56.38,-328.97C56.38,-304.84 56.38,-266.17 56.38,-248.18"/>
<polygon fill="#63b8ff" stroke="#63b8ff" points="52.88,-328.85 56.38,-338.86 59.88,-328.86 52.88,-328.85"/>
</a>
</g>
</g>
<!-- Node10 -->
<g id="Node000010" class="node">
<title>Node10</title>
<g id="a_Node000010"><a xlink:href="structnix_1_1EvalCommand.html" target="_top" xlink:title=" ">
<polygon fill="white" stroke="#666666" points="279.5,-304.5 171.25,-304.5 171.25,-283.75 279.5,-283.75 279.5,-304.5"/>
<text text-anchor="middle" x="225.38" y="-291" font-family="Helvetica,sans-Serif" font-size="10.00">nix::EvalCommand</text>
</a>
</g>
</g>
<!-- Node3&#45;&gt;Node10 -->
<g id="edge13_Node000010_Node000003" class="edge">
<title>Node3&#45;&gt;Node10</title>
<g id="a_edge13_Node000010_Node000003"><a xlink:title=" ">
<path fill="none" stroke="#63b8ff" d="M97.2,-336.65C127.38,-326.87 167.82,-313.77 195.14,-304.92"/>
<polygon fill="#63b8ff" stroke="#63b8ff" points="96.46,-333.21 88.03,-339.62 98.62,-339.87 96.46,-333.21"/>
</a>
</g>
</g>
<!-- Node4 -->
<g id="Node000004" class="node">
<title>Node4</title>
<g id="a_Node000004"><a xlink:href="structnix_1_1Command.html" target="_top" xlink:title=" ">
<polygon fill="white" stroke="#666666" points="106,-418 18.75,-418 18.75,-397.25 106,-397.25 106,-418"/>
<text text-anchor="middle" x="62.38" y="-404.5" font-family="Helvetica,sans-Serif" font-size="10.00">nix::Command</text>
</a>
</g>
</g>
<!-- Node4&#45;&gt;Node3 -->
<g id="edge3_Node000003_Node000004" class="edge">
<title>Node4&#45;&gt;Node3</title>
<g id="a_edge3_Node000003_Node000004"><a xlink:title=" ">
<path fill="none" stroke="#63b8ff" d="M60.08,-385.67C59.17,-377.38 58.17,-368.25 57.44,-361.58"/>
<polygon fill="#63b8ff" stroke="#63b8ff" points="56.57,-385.77 61.14,-395.33 63.53,-385.01 56.57,-385.77"/>
</a>
</g>
</g>
<!-- Node5 -->
<g id="Node000005" class="node">
<title>Node5</title>
<g id="a_Node000005"><a xlink:href="classnix_1_1Args.html" target="_top" xlink:title=" ">
<polygon fill="white" stroke="#bfbfbf" points="242.75,-474.75 184,-474.75 184,-454 242.75,-454 242.75,-474.75"/>
<text text-anchor="middle" x="213.38" y="-461.25" font-family="Helvetica,sans-Serif" font-size="10.00">nix::Args</text>
</a>
</g>
</g>
<!-- Node5&#45;&gt;Node4 -->
<g id="edge4_Node000004_Node000005" class="edge">
<title>Node5&#45;&gt;Node4</title>
<g id="a_edge4_Node000004_Node000005"><a xlink:title=" ">
<path fill="none" stroke="#63b8ff" d="M175.83,-449.76C148.98,-440.03 113.48,-427.15 89.39,-418.42"/>
<polygon fill="#63b8ff" stroke="#63b8ff" points="174.36,-452.95 184.96,-453.07 176.75,-446.37 174.36,-452.95"/>
</a>
</g>
</g>
<!-- Node7 -->
<g id="Node000007" class="node">
<title>Node7</title>
<g id="a_Node000007"><a xlink:href="structnix_1_1RawInstallablesCommand.html" target="_top" xlink:title=" ">
<polygon fill="white" stroke="#666666" points="279.62,-134.25 115.12,-134.25 115.12,-113.5 279.62,-113.5 279.62,-134.25"/>
<text text-anchor="middle" x="197.38" y="-120.75" font-family="Helvetica,sans-Serif" font-size="10.00">nix::RawInstallablesCommand</text>
</a>
</g>
</g>
<!-- Node5&#45;&gt;Node7 -->
<g id="edge7_Node000007_Node000005" class="edge">
<title>Node5&#45;&gt;Node7</title>
<g id="a_edge7_Node000007_Node000005"><a xlink:title=" ">
<path fill="none" stroke="#63b8ff" d="M254.1,-454.51C277.26,-447.74 305.52,-436.36 325.38,-418 349.49,-395.7 358.38,-384.72 358.38,-351.88 358.38,-351.88 358.38,-351.88 358.38,-236.38 358.38,-178.75 287.79,-148.55 240.1,-134.72"/>
<polygon fill="#63b8ff" stroke="#63b8ff" points="253.39,-451.07 244.66,-457.07 255.23,-457.83 253.39,-451.07"/>
</a>
</g>
</g>
<!-- Node8 -->
<g id="Node000008" class="node">
<title>Node8</title>
<g id="a_Node000008"><a xlink:href="structnix_1_1SourceExprCommand.html" target="_top" xlink:title=" ">
<polygon fill="white" stroke="#bfbfbf" points="268.38,-191 126.38,-191 126.38,-170.25 268.38,-170.25 268.38,-191"/>
<text text-anchor="middle" x="197.38" y="-177.5" font-family="Helvetica,sans-Serif" font-size="10.00">nix::SourceExprCommand</text>
</a>
</g>
</g>
<!-- Node5&#45;&gt;Node8 -->
<g id="edge9_Node000008_Node000005" class="edge">
<title>Node5&#45;&gt;Node8</title>
<g id="a_edge9_Node000008_Node000005"><a xlink:title=" ">
<path fill="none" stroke="#63b8ff" d="M192.75,-446.05C171.16,-425.87 140.38,-390.34 140.38,-351.88 140.38,-351.88 140.38,-351.88 140.38,-293.12 140.38,-262.55 145.03,-254 159.38,-227 166.7,-213.21 178.73,-199.8 187.29,-191.18"/>
<polygon fill="#63b8ff" stroke="#63b8ff" points="190.41,-448.66 200.19,-452.72 195.08,-443.44 190.41,-448.66"/>
</a>
</g>
</g>
<!-- Node9 -->
<g id="Node000009" class="node">
<title>Node9</title>
<g id="a_Node000009"><a xlink:href="structnix_1_1MixFlakeOptions.html" target="_top" xlink:title=" ">
<polygon fill="white" stroke="#666666" points="286.75,-247.75 168,-247.75 168,-227 286.75,-227 286.75,-247.75"/>
<text text-anchor="middle" x="227.38" y="-234.25" font-family="Helvetica,sans-Serif" font-size="10.00">nix::MixFlakeOptions</text>
</a>
</g>
</g>
<!-- Node5&#45;&gt;Node9 -->
<g id="edge11_Node000009_Node000005" class="edge">
<title>Node5&#45;&gt;Node9</title>
<g id="a_edge11_Node000009_Node000005"><a xlink:title=" ">
<path fill="none" stroke="#63b8ff" d="M253.88,-452.92C271.7,-446.08 290.93,-435.14 301.38,-418 317.69,-391.23 359.81,-407.75 288.38,-283.75 279.22,-267.85 262.02,-255.84 248.21,-248.18"/>
<polygon fill="#63b8ff" stroke="#63b8ff" points="252.8,-449.59 244.49,-456.17 255.08,-456.21 252.8,-449.59"/>
</a>
</g>
</g>
<!-- Node11 -->
<g id="Node000011" class="node">
<title>Node11</title>
<g id="a_Node000011"><a xlink:href="structnix_1_1MixEvalArgs.html" target="_top" xlink:title=" ">
<polygon fill="white" stroke="#bfbfbf" points="274.25,-361.25 176.5,-361.25 176.5,-340.5 274.25,-340.5 274.25,-361.25"/>
<text text-anchor="middle" x="225.38" y="-347.75" font-family="Helvetica,sans-Serif" font-size="10.00">nix::MixEvalArgs</text>
</a>
</g>
</g>
<!-- Node5&#45;&gt;Node11 -->
<g id="edge15_Node000011_Node000005" class="edge">
<title>Node5&#45;&gt;Node11</title>
<g id="a_edge15_Node000011_Node000005"><a xlink:title=" ">
<path fill="none" stroke="#63b8ff" d="M203.25,-443.63C197.79,-430.43 192.99,-412.72 197.38,-397.25 201.22,-383.71 210.37,-370.26 217.17,-361.55"/>
<polygon fill="#63b8ff" stroke="#63b8ff" points="199.99,-444.92 207.37,-452.52 206.34,-441.98 199.99,-444.92"/>
</a>
</g>
</g>
<!-- Node12 -->
<g id="Node000012" class="node">
<title>Node12</title>
<g id="a_Node000012"><a xlink:href="structnix_1_1MixRepair.html" target="_top" xlink:title=" ">
<polygon fill="white" stroke="#bfbfbf" points="292.62,-418 206.12,-418 206.12,-397.25 292.62,-397.25 292.62,-418"/>
<text text-anchor="middle" x="249.38" y="-404.5" font-family="Helvetica,sans-Serif" font-size="10.00">nix::MixRepair</text>
</a>
</g>
</g>
<!-- Node5&#45;&gt;Node12 -->
<g id="edge17_Node000012_Node000005" class="edge">
<title>Node5&#45;&gt;Node12</title>
<g id="a_edge17_Node000012_Node000005"><a xlink:title=" ">
<path fill="none" stroke="#63b8ff" d="M226.02,-444.14C231.76,-435.41 238.3,-425.47 242.99,-418.33"/>
<polygon fill="#63b8ff" stroke="#63b8ff" points="223.21,-442.04 220.64,-452.32 229.06,-445.89 223.21,-442.04"/>
</a>
</g>
</g>
<!-- Node6 -->
<g id="Node000006" class="node">
<title>Node6</title>
<g id="a_Node000006"><a xlink:href="structnix_1_1InstallablesCommand.html" target="_top" xlink:title=" ">
<polygon fill="white" stroke="#666666" points="249.12,-77.5 105.62,-77.5 105.62,-56.75 249.12,-56.75 249.12,-77.5"/>
<text text-anchor="middle" x="177.38" y="-64" font-family="Helvetica,sans-Serif" font-size="10.00">nix::InstallablesCommand</text>
</a>
</g>
</g>
<!-- Node6&#45;&gt;Node1 -->
<g id="edge5_Node000001_Node000006" class="edge">
<title>Node6&#45;&gt;Node1</title>
<g id="a_edge5_Node000001_Node000006"><a xlink:title=" ">
<path fill="none" stroke="#63b8ff" d="M159.47,-48.3C150.38,-39.25 139.69,-28.61 132.12,-21.08"/>
<polygon fill="#63b8ff" stroke="#63b8ff" points="156.91,-50.69 166.47,-55.27 161.85,-45.73 156.91,-50.69"/>
</a>
</g>
</g>
<!-- Node7&#45;&gt;Node6 -->
<g id="edge6_Node000006_Node000007" class="edge">
<title>Node7&#45;&gt;Node6</title>
<g id="a_edge6_Node000006_Node000007"><a xlink:title=" ">
<path fill="none" stroke="#63b8ff" d="M189.93,-102.49C186.85,-94.05 183.41,-84.66 180.92,-77.83"/>
<polygon fill="#63b8ff" stroke="#63b8ff" points="186.56,-103.47 193.28,-111.67 193.14,-101.07 186.56,-103.47"/>
</a>
</g>
</g>
<!-- Node8&#45;&gt;Node7 -->
<g id="edge8_Node000007_Node000008" class="edge">
<title>Node8&#45;&gt;Node7</title>
<g id="a_edge8_Node000007_Node000008"><a xlink:title=" ">
<path fill="none" stroke="#63b8ff" d="M197.38,-158.38C197.38,-150.16 197.38,-141.18 197.38,-134.58"/>
<polygon fill="#63b8ff" stroke="#63b8ff" points="193.88,-158.32 197.38,-168.32 200.88,-158.32 193.88,-158.32"/>
</a>
</g>
</g>
<!-- Node9&#45;&gt;Node8 -->
<g id="edge10_Node000008_Node000009" class="edge">
<title>Node9&#45;&gt;Node8</title>
<g id="a_edge10_Node000008_Node000009"><a xlink:title=" ">
<path fill="none" stroke="#63b8ff" d="M216.52,-216.57C211.82,-207.98 206.52,-198.31 202.69,-191.33"/>
<polygon fill="#63b8ff" stroke="#63b8ff" points="213.41,-218.17 221.28,-225.26 219.55,-214.81 213.41,-218.17"/>
</a>
</g>
</g>
<!-- Node10&#45;&gt;Node9 -->
<g id="edge12_Node000009_Node000010" class="edge">
<title>Node10&#45;&gt;Node9</title>
<g id="a_edge12_Node000009_Node000010"><a xlink:title=" ">
<path fill="none" stroke="#63b8ff" d="M226.15,-271.88C226.45,-263.66 226.78,-254.68 227.02,-248.08"/>
<polygon fill="#63b8ff" stroke="#63b8ff" points="222.66,-271.7 225.79,-281.82 229.65,-271.96 222.66,-271.7"/>
</a>
</g>
</g>
<!-- Node11&#45;&gt;Node10 -->
<g id="edge14_Node000010_Node000011" class="edge">
<title>Node11&#45;&gt;Node10</title>
<g id="a_edge14_Node000010_Node000011"><a xlink:title=" ">
<path fill="none" stroke="#63b8ff" d="M225.38,-328.63C225.38,-320.41 225.38,-311.43 225.38,-304.83"/>
<polygon fill="#63b8ff" stroke="#63b8ff" points="221.88,-328.57 225.38,-338.57 228.88,-328.57 221.88,-328.57"/>
</a>
</g>
</g>
<!-- Node12&#45;&gt;Node11 -->
<g id="edge16_Node000011_Node000012" class="edge">
<title>Node12&#45;&gt;Node11</title>
<g id="a_edge16_Node000011_Node000012"><a xlink:title=" ">
<path fill="none" stroke="#63b8ff" d="M240.57,-386.53C236.83,-378.02 232.66,-368.49 229.63,-361.58"/>
<polygon fill="#63b8ff" stroke="#63b8ff" points="237.26,-387.7 244.48,-395.45 243.67,-384.89 237.26,-387.7"/>
</a>
</g>
</g>
</g>
</svg>
