<?xml version="1.0" encoding="UTF-8" standalone="no"?>
<!DOCTYPE svg PUBLIC "-//W3C//DTD SVG 1.1//EN"
 "http://www.w3.org/Graphics/SVG/1.1/DTD/svg11.dtd">
<!-- Generated by graphviz version 12.2.1 (0)
 -->
<!-- Title: nix::CmdRegistryList Pages: 1 -->
<svg width="277pt" height="156pt"
 viewBox="0.00 0.00 277.00 156.00" xmlns="http://www.w3.org/2000/svg" xmlns:xlink="http://www.w3.org/1999/xlink">
<g id="graph0" class="graph" transform="scale(1 1) rotate(0) translate(4 152)">
<title>nix::CmdRegistryList</title>
<!-- Node1 -->
<g id="Node000001" class="node">
<title>Node1</title>
<g id="a_Node000001"><a xlink:title=" ">
<polygon fill="#999999" stroke="#666666" points="117.25,-20.75 0,-20.75 0,0 117.25,0 117.25,-20.75"/>
<text text-anchor="middle" x="58.62" y="-7.25" font-family="Helvetica,sans-Serif" font-size="10.00">nix::CmdRegistryList</text>
</a>
</g>
</g>
<!-- Node2 -->
<g id="Node000002" class="node">
<title>Node2</title>
<g id="a_Node000002"><a xlink:href="structnix_1_1StoreCommand.html" target="_top" xlink:title=" ">
<polygon fill="white" stroke="#666666" points="115,-90.25 2.25,-90.25 2.25,-69.5 115,-69.5 115,-90.25"/>
<text text-anchor="middle" x="58.62" y="-76.75" font-family="Helvetica,sans-Serif" font-size="10.00">nix::StoreCommand</text>
</a>
</g>
</g>
<!-- Node2&#45;&gt;Node1 -->
<g id="edge1_Node000001_Node000002" class="edge">
<title>Node2&#45;&gt;Node1</title>
<g id="a_edge1_Node000001_Node000002"><a xlink:title=" ">
<path fill="none" stroke="#63b8ff" d="M58.62,-58.07C58.62,-45.72 58.62,-30.65 58.62,-21.03"/>
<polygon fill="#63b8ff" stroke="#63b8ff" points="55.13,-57.69 58.63,-67.69 62.13,-57.69 55.13,-57.69"/>
</a>
</g>
</g>
<!-- Node3 -->
<g id="Node000003" class="node">
<title>Node3</title>
<g id="a_Node000003"><a xlink:href="structnix_1_1Command.html" target="_top" xlink:title=" ">
<polygon fill="white" stroke="#666666" points="232.25,-148 145,-148 145,-127.25 232.25,-127.25 232.25,-148"/>
<text text-anchor="middle" x="188.62" y="-134.5" font-family="Helvetica,sans-Serif" font-size="10.00">nix::Command</text>
</a>
</g>
</g>
<!-- Node3&#45;&gt;Node2 -->
<g id="edge2_Node000002_Node000003" class="edge">
<title>Node3&#45;&gt;Node2</title>
<g id="a_edge2_Node000002_Node000003"><a xlink:title=" ">
<path fill="none" stroke="#63b8ff" d="M155.27,-122.32C132.08,-112.37 101.78,-99.38 81.34,-90.62"/>
<polygon fill="#63b8ff" stroke="#63b8ff" points="153.72,-125.47 164.29,-126.19 156.48,-119.03 153.72,-125.47"/>
</a>
</g>
</g>
<!-- Node5 -->
<g id="Node000005" class="node">
<title>Node5</title>
<g id="a_Node000005"><a xlink:href="classnix_1_1MultiCommand.html" target="_top" xlink:title=" ">
<polygon fill="white" stroke="#666666" points="244.62,-90.25 132.62,-90.25 132.62,-69.5 244.62,-69.5 244.62,-90.25"/>
<text text-anchor="middle" x="188.62" y="-76.75" font-family="Helvetica,sans-Serif" font-size="10.00">nix::MultiCommand</text>
</a>
</g>
</g>
<!-- Node3&#45;&gt;Node5 -->
<g id="edge5_Node000005_Node000003" class="edge">
<title>Node3&#45;&gt;Node5</title>
<g id="a_edge5_Node000005_Node000003"><a xlink:title=" ">
<path fill="none" stroke="#63b8ff" d="M188.62,-115.68C188.62,-107.02 188.62,-97.4 188.62,-90.47"/>
<polygon fill="#63b8ff" stroke="#63b8ff" points="185.13,-115.4 188.63,-125.4 192.13,-115.4 185.13,-115.4"/>
</a>
</g>
</g>
<!-- Node4 -->
<g id="Node000004" class="node">
<title>Node4</title>
<g id="a_Node000004"><a xlink:href="classnix_1_1Args.html" target="_top" xlink:title=" ">
<polygon fill="white" stroke="#bfbfbf" points="269,-20.75 210.25,-20.75 210.25,0 269,0 269,-20.75"/>
<text text-anchor="middle" x="239.62" y="-7.25" font-family="Helvetica,sans-Serif" font-size="10.00">nix::Args</text>
</a>
</g>
</g>
<!-- Node4&#45;&gt;Node3 -->
<g id="edge3_Node000003_Node000004" class="edge">
<title>Node4&#45;&gt;Node3</title>
<g id="a_edge3_Node000003_Node000004"><a xlink:title=" ">
<path fill="none" stroke="#63b8ff" d="M254.11,-30.48C255.55,-33.15 256.78,-35.94 257.62,-38.75 264.21,-60.74 265.17,-70.41 253.62,-90.25 243.93,-106.9 225.6,-119.15 210.87,-126.86"/>
<polygon fill="#63b8ff" stroke="#63b8ff" points="257.2,-28.81 248.82,-22.33 251.33,-32.62 257.2,-28.81"/>
</a>
</g>
</g>
<!-- Node5&#45;&gt;Node4 -->
<g id="edge4_Node000004_Node000005" class="edge">
<title>Node5&#45;&gt;Node4</title>
<g id="a_edge4_Node000004_Node000005"><a xlink:title=" ">
<path fill="none" stroke="#9a32cd" stroke-dasharray="5,2" d="M202.62,-60.35C212.24,-47.62 224.61,-31.25 232.33,-21.03"/>
<polygon fill="#9a32cd" stroke="#9a32cd" points="200.08,-57.91 196.84,-68 205.67,-62.13 200.08,-57.91"/>
</a>
</g>
<text text-anchor="middle" x="235.94" y="-42" font-family="Helvetica,sans-Serif" font-size="10.00" fill="grey"> parent</text>
</g>
</g>
</svg>
