<?xml version="1.0" encoding="UTF-8" standalone="no"?>
<!DOCTYPE svg PUBLIC "-//W3C//DTD SVG 1.1//EN"
 "http://www.w3.org/Graphics/SVG/1.1/DTD/svg11.dtd">
<!-- Generated by graphviz version 12.2.1 (0)
 -->
<!-- Title: nix::CmdProfileDiffClosures Pages: 1 -->
<svg width="316pt" height="272pt"
 viewBox="0.00 0.00 316.12 271.50" xmlns="http://www.w3.org/2000/svg" xmlns:xlink="http://www.w3.org/1999/xlink">
<g id="graph0" class="graph" transform="scale(1 1) rotate(0) translate(4 267.5)">
<title>nix::CmdProfileDiffClosures</title>
<!-- Node1 -->
<g id="Node000001" class="node">
<title>Node1</title>
<g id="a_Node000001"><a xlink:title=" ">
<polygon fill="#999999" stroke="#666666" points="149.5,-20.75 0,-20.75 0,0 149.5,0 149.5,-20.75"/>
<text text-anchor="middle" x="74.75" y="-7.25" font-family="Helvetica,sans-Serif" font-size="10.00">nix::CmdProfileDiffClosures</text>
</a>
</g>
</g>
<!-- Node2 -->
<g id="Node000002" class="node">
<title>Node2</title>
<g id="a_Node000002"><a xlink:href="structnix_1_1StoreCommand.html" target="_top" xlink:title=" ">
<polygon fill="white" stroke="#666666" points="154.12,-205.75 41.38,-205.75 41.38,-185 154.12,-185 154.12,-205.75"/>
<text text-anchor="middle" x="97.75" y="-192.25" font-family="Helvetica,sans-Serif" font-size="10.00">nix::StoreCommand</text>
</a>
</g>
</g>
<!-- Node2&#45;&gt;Node1 -->
<g id="edge1_Node000001_Node000002" class="edge">
<title>Node2&#45;&gt;Node1</title>
<g id="a_edge1_Node000001_Node000002"><a xlink:title=" ">
<path fill="none" stroke="#63b8ff" d="M94.67,-173.63C91.29,-150.46 85.79,-111.84 81.75,-78.5 79.27,-58.03 76.89,-33.98 75.65,-20.95"/>
<polygon fill="#63b8ff" stroke="#63b8ff" points="91.17,-173.89 96.09,-183.28 98.1,-172.87 91.17,-173.89"/>
</a>
</g>
</g>
<!-- Node7 -->
<g id="Node000007" class="node">
<title>Node7</title>
<g id="a_Node000007"><a xlink:href="structnix_1_1MixProfile.html" target="_top" xlink:title=" ">
<polygon fill="white" stroke="#bfbfbf" points="185.62,-136.25 99.88,-136.25 99.88,-115.5 185.62,-115.5 185.62,-136.25"/>
<text text-anchor="middle" x="142.75" y="-122.75" font-family="Helvetica,sans-Serif" font-size="10.00">nix::MixProfile</text>
</a>
</g>
</g>
<!-- Node2&#45;&gt;Node7 -->
<g id="edge8_Node000007_Node000002" class="edge">
<title>Node2&#45;&gt;Node7</title>
<g id="a_edge8_Node000007_Node000002"><a xlink:title=" ">
<path fill="none" stroke="#63b8ff" d="M110.35,-175.47C118.8,-162.8 129.57,-146.65 136.31,-136.53"/>
<polygon fill="#63b8ff" stroke="#63b8ff" points="107.67,-173.18 105.04,-183.44 113.5,-177.07 107.67,-173.18"/>
</a>
</g>
</g>
<!-- Node3 -->
<g id="Node000003" class="node">
<title>Node3</title>
<g id="a_Node000003"><a xlink:href="structnix_1_1Command.html" target="_top" xlink:title=" ">
<polygon fill="white" stroke="#666666" points="271.38,-263.5 184.12,-263.5 184.12,-242.75 271.38,-242.75 271.38,-263.5"/>
<text text-anchor="middle" x="227.75" y="-250" font-family="Helvetica,sans-Serif" font-size="10.00">nix::Command</text>
</a>
</g>
</g>
<!-- Node3&#45;&gt;Node2 -->
<g id="edge2_Node000002_Node000003" class="edge">
<title>Node3&#45;&gt;Node2</title>
<g id="a_edge2_Node000002_Node000003"><a xlink:title=" ">
<path fill="none" stroke="#63b8ff" d="M194.39,-237.82C171.2,-227.87 140.9,-214.88 120.46,-206.12"/>
<polygon fill="#63b8ff" stroke="#63b8ff" points="192.85,-240.97 203.42,-241.69 195.61,-234.53 192.85,-240.97"/>
</a>
</g>
</g>
<!-- Node5 -->
<g id="Node000005" class="node">
<title>Node5</title>
<g id="a_Node000005"><a xlink:href="classnix_1_1MultiCommand.html" target="_top" xlink:title=" ">
<polygon fill="white" stroke="#666666" points="283.75,-205.75 171.75,-205.75 171.75,-185 283.75,-185 283.75,-205.75"/>
<text text-anchor="middle" x="227.75" y="-192.25" font-family="Helvetica,sans-Serif" font-size="10.00">nix::MultiCommand</text>
</a>
</g>
</g>
<!-- Node3&#45;&gt;Node5 -->
<g id="edge5_Node000005_Node000003" class="edge">
<title>Node3&#45;&gt;Node5</title>
<g id="a_edge5_Node000005_Node000003"><a xlink:title=" ">
<path fill="none" stroke="#63b8ff" d="M227.75,-231.18C227.75,-222.52 227.75,-212.9 227.75,-205.97"/>
<polygon fill="#63b8ff" stroke="#63b8ff" points="224.25,-230.9 227.75,-240.9 231.25,-230.9 224.25,-230.9"/>
</a>
</g>
</g>
<!-- Node4 -->
<g id="Node000004" class="node">
<title>Node4</title>
<g id="a_Node000004"><a xlink:href="classnix_1_1Args.html" target="_top" xlink:title=" ">
<polygon fill="white" stroke="#bfbfbf" points="308.12,-136.25 249.38,-136.25 249.38,-115.5 308.12,-115.5 308.12,-136.25"/>
<text text-anchor="middle" x="278.75" y="-122.75" font-family="Helvetica,sans-Serif" font-size="10.00">nix::Args</text>
</a>
</g>
</g>
<!-- Node4&#45;&gt;Node3 -->
<g id="edge3_Node000003_Node000004" class="edge">
<title>Node4&#45;&gt;Node3</title>
<g id="a_edge3_Node000003_Node000004"><a xlink:title=" ">
<path fill="none" stroke="#63b8ff" d="M293.24,-145.98C294.67,-148.65 295.91,-151.44 296.75,-154.25 303.33,-176.24 304.3,-185.91 292.75,-205.75 283.06,-222.4 264.73,-234.65 250,-242.36"/>
<polygon fill="#63b8ff" stroke="#63b8ff" points="296.33,-144.31 287.95,-137.83 290.46,-148.12 296.33,-144.31"/>
</a>
</g>
</g>
<!-- Node5&#45;&gt;Node4 -->
<g id="edge4_Node000004_Node000005" class="edge">
<title>Node5&#45;&gt;Node4</title>
<g id="a_edge4_Node000004_Node000005"><a xlink:title=" ">
<path fill="none" stroke="#9a32cd" stroke-dasharray="5,2" d="M241.75,-175.85C251.36,-163.12 263.74,-146.75 271.46,-136.53"/>
<polygon fill="#9a32cd" stroke="#9a32cd" points="239.21,-173.41 235.97,-183.5 244.79,-177.63 239.21,-173.41"/>
</a>
</g>
<text text-anchor="middle" x="275.07" y="-157.5" font-family="Helvetica,sans-Serif" font-size="10.00" fill="grey"> parent</text>
</g>
<!-- Node6 -->
<g id="Node000006" class="node">
<title>Node6</title>
<g id="a_Node000006"><a xlink:href="structnix_1_1MixDefaultProfile.html" target="_top" xlink:title=" ">
<polygon fill="white" stroke="#bfbfbf" points="212.62,-78.5 90.88,-78.5 90.88,-57.75 212.62,-57.75 212.62,-78.5"/>
<text text-anchor="middle" x="151.75" y="-65" font-family="Helvetica,sans-Serif" font-size="10.00">nix::MixDefaultProfile</text>
</a>
</g>
</g>
<!-- Node6&#45;&gt;Node1 -->
<g id="edge6_Node000001_Node000006" class="edge">
<title>Node6&#45;&gt;Node1</title>
<g id="a_edge6_Node000001_Node000006"><a xlink:title=" ">
<path fill="none" stroke="#63b8ff" d="M129.32,-50.89C116.02,-41.26 99.6,-29.37 88.27,-21.16"/>
<polygon fill="#63b8ff" stroke="#63b8ff" points="126.96,-53.5 137.11,-56.53 131.06,-47.83 126.96,-53.5"/>
</a>
</g>
</g>
<!-- Node7&#45;&gt;Node6 -->
<g id="edge7_Node000006_Node000007" class="edge">
<title>Node7&#45;&gt;Node6</title>
<g id="a_edge7_Node000006_Node000007"><a xlink:title=" ">
<path fill="none" stroke="#63b8ff" d="M146.13,-103.93C147.53,-95.27 149.08,-85.65 150.2,-78.72"/>
<polygon fill="#63b8ff" stroke="#63b8ff" points="142.7,-103.24 144.56,-113.67 149.61,-104.36 142.7,-103.24"/>
</a>
</g>
</g>
</g>
</svg>
