<?xml version="1.0" encoding="UTF-8" standalone="no"?>
<!DOCTYPE svg PUBLIC "-//W3C//DTD SVG 1.1//EN"
 "http://www.w3.org/Graphics/SVG/1.1/DTD/svg11.dtd">
<!-- Generated by graphviz version 12.2.1 (0)
 -->
<!-- Title: nix::FramedSink Pages: 1 -->
<svg width="107pt" height="156pt"
 viewBox="0.00 0.00 107.25 156.00" xmlns="http://www.w3.org/2000/svg" xmlns:xlink="http://www.w3.org/1999/xlink">
<g id="graph0" class="graph" transform="scale(1 1) rotate(0) translate(4 152)">
<title>nix::FramedSink</title>
<!-- Node1 -->
<g id="Node000001" class="node">
<title>Node1</title>
<g id="a_Node000001"><a xlink:title=" ">
<polygon fill="#999999" stroke="#666666" points="97,-20.75 2.25,-20.75 2.25,0 97,0 97,-20.75"/>
<text text-anchor="middle" x="49.62" y="-7.25" font-family="Helvetica,sans-Serif" font-size="10.00">nix::FramedSink</text>
</a>
</g>
</g>
<!-- Node2 -->
<g id="Node000002" class="node">
<title>Node2</title>
<g id="a_Node000002"><a xlink:href="structnix_1_1BufferedSink.html" target="_top" xlink:title=" ">
<polygon fill="white" stroke="#666666" points="99.25,-90.25 0,-90.25 0,-69.5 99.25,-69.5 99.25,-90.25"/>
<text text-anchor="middle" x="49.62" y="-76.75" font-family="Helvetica,sans-Serif" font-size="10.00">nix::BufferedSink</text>
</a>
</g>
</g>
<!-- Node2&#45;&gt;Node1 -->
<g id="edge1_Node000001_Node000002" class="edge">
<title>Node2&#45;&gt;Node1</title>
<g id="a_edge1_Node000001_Node000002"><a xlink:title=" ">
<path fill="none" stroke="#63b8ff" d="M47.92,-57.65C47.8,-55.57 47.7,-53.5 47.62,-51.5 47.42,-45.84 47.42,-44.41 47.62,-38.75 47.84,-32.94 48.3,-26.45 48.73,-21.25"/>
<polygon fill="#63b8ff" stroke="#63b8ff" points="44.42,-57.77 48.62,-67.49 51.4,-57.27 44.42,-57.77"/>
</a>
</g>
</g>
<!-- Node2&#45;&gt;Node1 -->
<g id="edge3_Node000001_Node000002" class="edge">
<title>Node2&#45;&gt;Node1</title>
<g id="a_edge3_Node000001_Node000002"><a xlink:title=" ">
<path fill="none" stroke="#9a32cd" stroke-dasharray="5,2" d="M49.62,-58.07C49.62,-45.72 49.62,-30.65 49.62,-21.03"/>
<polygon fill="#9a32cd" stroke="#9a32cd" points="46.13,-57.69 49.63,-67.69 53.13,-57.69 46.13,-57.69"/>
</a>
</g>
<text text-anchor="middle" x="56" y="-42" font-family="Helvetica,sans-Serif" font-size="10.00" fill="grey"> to</text>
</g>
<!-- Node3 -->
<g id="Node000003" class="node">
<title>Node3</title>
<g id="a_Node000003"><a xlink:href="structnix_1_1Sink.html" target="_top" xlink:title=" ">
<polygon fill="white" stroke="#666666" points="78.62,-148 20.62,-148 20.62,-127.25 78.62,-127.25 78.62,-148"/>
<text text-anchor="middle" x="49.62" y="-134.5" font-family="Helvetica,sans-Serif" font-size="10.00">nix::Sink</text>
</a>
</g>
</g>
<!-- Node3&#45;&gt;Node2 -->
<g id="edge2_Node000002_Node000003" class="edge">
<title>Node3&#45;&gt;Node2</title>
<g id="a_edge2_Node000002_Node000003"><a xlink:title=" ">
<path fill="none" stroke="#63b8ff" d="M49.62,-115.68C49.62,-107.02 49.62,-97.4 49.62,-90.47"/>
<polygon fill="#63b8ff" stroke="#63b8ff" points="46.13,-115.4 49.63,-125.4 53.13,-115.4 46.13,-115.4"/>
</a>
</g>
</g>
</g>
</svg>
