<?xml version="1.0" encoding="UTF-8" standalone="no"?>
<!DOCTYPE svg PUBLIC "-//W3C//DTD SVG 1.1//EN"
 "http://www.w3.org/Graphics/SVG/1.1/DTD/svg11.dtd">
<!-- Generated by graphviz version 12.2.1 (0)
 -->
<!-- Title: nix::ExprInheritFrom Pages: 1 -->
<svg width="123pt" height="142pt"
 viewBox="0.00 0.00 123.00 142.25" xmlns="http://www.w3.org/2000/svg" xmlns:xlink="http://www.w3.org/1999/xlink">
<g id="graph0" class="graph" transform="scale(1 1) rotate(0) translate(4 138.25)">
<title>nix::ExprInheritFrom</title>
<!-- Node1 -->
<g id="Node000001" class="node">
<title>Node1</title>
<g id="a_Node000001"><a xlink:title=" ">
<polygon fill="#999999" stroke="#666666" points="115,-20.75 0,-20.75 0,0 115,0 115,-20.75"/>
<text text-anchor="middle" x="57.5" y="-7.25" font-family="Helvetica,sans-Serif" font-size="10.00">nix::ExprInheritFrom</text>
</a>
</g>
</g>
<!-- Node2 -->
<g id="Node000002" class="node">
<title>Node2</title>
<g id="a_Node000002"><a xlink:href="structnix_1_1ExprVar.html" target="_top" xlink:title=" ">
<polygon fill="white" stroke="#bfbfbf" points="94.75,-77.5 20.25,-77.5 20.25,-56.75 94.75,-56.75 94.75,-77.5"/>
<text text-anchor="middle" x="57.5" y="-64" font-family="Helvetica,sans-Serif" font-size="10.00">nix::ExprVar</text>
</a>
</g>
</g>
<!-- Node2&#45;&gt;Node1 -->
<g id="edge1_Node000001_Node000002" class="edge">
<title>Node2&#45;&gt;Node1</title>
<g id="a_edge1_Node000001_Node000002"><a xlink:title=" ">
<path fill="none" stroke="#63b8ff" d="M57.5,-44.88C57.5,-36.66 57.5,-27.68 57.5,-21.08"/>
<polygon fill="#63b8ff" stroke="#63b8ff" points="54,-44.82 57.5,-54.82 61,-44.82 54,-44.82"/>
</a>
</g>
</g>
<!-- Node3 -->
<g id="Node000003" class="node">
<title>Node3</title>
<g id="a_Node000003"><a xlink:href="structnix_1_1Expr.html" target="_top" xlink:title=" ">
<polygon fill="white" stroke="#bfbfbf" points="86.88,-134.25 28.12,-134.25 28.12,-113.5 86.88,-113.5 86.88,-134.25"/>
<text text-anchor="middle" x="57.5" y="-120.75" font-family="Helvetica,sans-Serif" font-size="10.00">nix::Expr</text>
</a>
</g>
</g>
<!-- Node3&#45;&gt;Node2 -->
<g id="edge2_Node000002_Node000003" class="edge">
<title>Node3&#45;&gt;Node2</title>
<g id="a_edge2_Node000002_Node000003"><a xlink:title=" ">
<path fill="none" stroke="#63b8ff" d="M57.5,-101.63C57.5,-93.41 57.5,-84.43 57.5,-77.83"/>
<polygon fill="#63b8ff" stroke="#63b8ff" points="54,-101.57 57.5,-111.57 61,-101.57 54,-101.57"/>
</a>
</g>
</g>
</g>
</svg>
