<?xml version="1.0" encoding="UTF-8" standalone="no"?>
<!DOCTYPE svg PUBLIC "-//W3C//DTD SVG 1.1//EN"
 "http://www.w3.org/Graphics/SVG/1.1/DTD/svg11.dtd">
<!-- Generated by graphviz version 12.2.1 (0)
 -->
<!-- Title: nix::CmdProfileHistory Pages: 1 -->
<svg width="466pt" height="329pt"
 viewBox="0.00 0.00 465.62 329.25" xmlns="http://www.w3.org/2000/svg" xmlns:xlink="http://www.w3.org/1999/xlink">
<g id="graph0" class="graph" transform="scale(1 1) rotate(0) translate(4 325.25)">
<title>nix::CmdProfileHistory</title>
<!-- Node1 -->
<g id="Node000001" class="node">
<title>Node1</title>
<g id="a_Node000001"><a xlink:title=" ">
<polygon fill="#999999" stroke="#666666" points="410,-20.75 284.5,-20.75 284.5,0 410,0 410,-20.75"/>
<text text-anchor="middle" x="347.25" y="-7.25" font-family="Helvetica,sans-Serif" font-size="10.00">nix::CmdProfileHistory</text>
</a>
</g>
</g>
<!-- Node2 -->
<g id="Node000002" class="node">
<title>Node2</title>
<g id="a_Node000002"><a xlink:href="structnix_1_1StoreCommand.html" target="_top" xlink:title=" ">
<polygon fill="white" stroke="#666666" points="457.62,-194 344.88,-194 344.88,-173.25 457.62,-173.25 457.62,-194"/>
<text text-anchor="middle" x="401.25" y="-180.5" font-family="Helvetica,sans-Serif" font-size="10.00">nix::StoreCommand</text>
</a>
</g>
</g>
<!-- Node2&#45;&gt;Node1 -->
<g id="edge1_Node000001_Node000002" class="edge">
<title>Node2&#45;&gt;Node1</title>
<g id="a_edge1_Node000001_Node000002"><a xlink:title=" ">
<path fill="none" stroke="#63b8ff" d="M410.77,-162.46C421.47,-136.61 435.19,-91.15 417.25,-57.75 408.01,-40.54 389.26,-28.64 373.49,-21.21"/>
<polygon fill="#63b8ff" stroke="#63b8ff" points="407.63,-160.9 406.79,-171.46 414.03,-163.72 407.63,-160.9"/>
</a>
</g>
</g>
<!-- Node6 -->
<g id="Node000006" class="node">
<title>Node6</title>
<g id="a_Node000006"><a xlink:href="structnix_1_1EvalCommand.html" target="_top" xlink:title=" ">
<polygon fill="white" stroke="#666666" points="304.38,-136.25 196.12,-136.25 196.12,-115.5 304.38,-115.5 304.38,-136.25"/>
<text text-anchor="middle" x="250.25" y="-122.75" font-family="Helvetica,sans-Serif" font-size="10.00">nix::EvalCommand</text>
</a>
</g>
</g>
<!-- Node2&#45;&gt;Node6 -->
<g id="edge7_Node000006_Node000002" class="edge">
<title>Node2&#45;&gt;Node6</title>
<g id="a_edge7_Node000006_Node000002"><a xlink:title=" ">
<path fill="none" stroke="#63b8ff" d="M363.99,-168.87C336.97,-158.89 301.07,-145.64 276.89,-136.71"/>
<polygon fill="#63b8ff" stroke="#63b8ff" points="362.59,-172.08 373.18,-172.26 365.01,-165.52 362.59,-172.08"/>
</a>
</g>
</g>
<!-- Node11 -->
<g id="Node000011" class="node">
<title>Node11</title>
<g id="a_Node000011"><a xlink:href="structnix_1_1MixProfile.html" target="_top" xlink:title=" ">
<polygon fill="white" stroke="#bfbfbf" points="408.12,-136.25 322.38,-136.25 322.38,-115.5 408.12,-115.5 408.12,-136.25"/>
<text text-anchor="middle" x="365.25" y="-122.75" font-family="Helvetica,sans-Serif" font-size="10.00">nix::MixProfile</text>
</a>
</g>
</g>
<!-- Node2&#45;&gt;Node11 -->
<g id="edge15_Node000011_Node000002" class="edge">
<title>Node2&#45;&gt;Node11</title>
<g id="a_edge15_Node000011_Node000002"><a xlink:title=" ">
<path fill="none" stroke="#63b8ff" d="M388.87,-163.46C383,-154.36 376.23,-143.88 371.45,-136.47"/>
<polygon fill="#63b8ff" stroke="#63b8ff" points="385.79,-165.14 394.16,-171.64 391.67,-161.34 385.79,-165.14"/>
</a>
</g>
</g>
<!-- Node3 -->
<g id="Node000003" class="node">
<title>Node3</title>
<g id="a_Node000003"><a xlink:href="structnix_1_1Command.html" target="_top" xlink:title=" ">
<polygon fill="white" stroke="#666666" points="409.88,-263.5 322.62,-263.5 322.62,-242.75 409.88,-242.75 409.88,-263.5"/>
<text text-anchor="middle" x="366.25" y="-250" font-family="Helvetica,sans-Serif" font-size="10.00">nix::Command</text>
</a>
</g>
</g>
<!-- Node3&#45;&gt;Node2 -->
<g id="edge2_Node000002_Node000003" class="edge">
<title>Node3&#45;&gt;Node2</title>
<g id="a_edge2_Node000002_Node000003"><a xlink:title=" ">
<path fill="none" stroke="#63b8ff" d="M376.44,-232.47C382.95,-219.92 391.1,-204.2 396.24,-194.28"/>
<polygon fill="#63b8ff" stroke="#63b8ff" points="373.46,-230.62 371.96,-241.11 379.67,-233.84 373.46,-230.62"/>
</a>
</g>
</g>
<!-- Node5 -->
<g id="Node000005" class="node">
<title>Node5</title>
<g id="a_Node000005"><a xlink:href="classnix_1_1MultiCommand.html" target="_top" xlink:title=" ">
<polygon fill="white" stroke="#666666" points="327.25,-194 215.25,-194 215.25,-173.25 327.25,-173.25 327.25,-194"/>
<text text-anchor="middle" x="271.25" y="-180.5" font-family="Helvetica,sans-Serif" font-size="10.00">nix::MultiCommand</text>
</a>
</g>
</g>
<!-- Node3&#45;&gt;Node5 -->
<g id="edge5_Node000005_Node000003" class="edge">
<title>Node3&#45;&gt;Node5</title>
<g id="a_edge5_Node000005_Node000003"><a xlink:title=" ">
<path fill="none" stroke="#63b8ff" d="M343.34,-235.84C325.18,-222.95 300.41,-205.35 285.14,-194.5"/>
<polygon fill="#63b8ff" stroke="#63b8ff" points="341.23,-238.64 351.41,-241.58 345.28,-232.93 341.23,-238.64"/>
</a>
</g>
</g>
<!-- Node4 -->
<g id="Node000004" class="node">
<title>Node4</title>
<g id="a_Node000004"><a xlink:href="classnix_1_1Args.html" target="_top" xlink:title=" ">
<polygon fill="white" stroke="#bfbfbf" points="276.62,-321.25 217.88,-321.25 217.88,-300.5 276.62,-300.5 276.62,-321.25"/>
<text text-anchor="middle" x="247.25" y="-307.75" font-family="Helvetica,sans-Serif" font-size="10.00">nix::Args</text>
</a>
</g>
</g>
<!-- Node4&#45;&gt;Node3 -->
<g id="edge3_Node000003_Node000004" class="edge">
<title>Node4&#45;&gt;Node3</title>
<g id="a_edge3_Node000003_Node000004"><a xlink:title=" ">
<path fill="none" stroke="#63b8ff" d="M278.65,-295.16C299.77,-285.27 327,-272.51 345.46,-263.87"/>
<polygon fill="#63b8ff" stroke="#63b8ff" points="277.19,-291.98 269.62,-299.39 280.16,-298.32 277.19,-291.98"/>
</a>
</g>
</g>
<!-- Node7 -->
<g id="Node000007" class="node">
<title>Node7</title>
<g id="a_Node000007"><a xlink:href="structnix_1_1MixEvalArgs.html" target="_top" xlink:title=" ">
<polygon fill="white" stroke="#bfbfbf" points="197.12,-194 99.38,-194 99.38,-173.25 197.12,-173.25 197.12,-194"/>
<text text-anchor="middle" x="148.25" y="-180.5" font-family="Helvetica,sans-Serif" font-size="10.00">nix::MixEvalArgs</text>
</a>
</g>
</g>
<!-- Node4&#45;&gt;Node7 -->
<g id="edge9_Node000007_Node000004" class="edge">
<title>Node4&#45;&gt;Node7</title>
<g id="a_edge9_Node000007_Node000004"><a xlink:title=" ">
<path fill="none" stroke="#63b8ff" d="M243.95,-289.04C239.52,-267.34 229.71,-233.54 209.25,-212 201.9,-204.26 191.95,-198.54 182.22,-194.4"/>
<polygon fill="#63b8ff" stroke="#63b8ff" points="240.48,-289.53 245.71,-298.75 247.37,-288.29 240.48,-289.53"/>
</a>
</g>
</g>
<!-- Node8 -->
<g id="Node000008" class="node">
<title>Node8</title>
<g id="a_Node000008"><a xlink:href="structnix_1_1MixRepair.html" target="_top" xlink:title=" ">
<polygon fill="white" stroke="#bfbfbf" points="86.5,-263.5 0,-263.5 0,-242.75 86.5,-242.75 86.5,-263.5"/>
<text text-anchor="middle" x="43.25" y="-250" font-family="Helvetica,sans-Serif" font-size="10.00">nix::MixRepair</text>
</a>
</g>
</g>
<!-- Node4&#45;&gt;Node8 -->
<g id="edge11_Node000008_Node000004" class="edge">
<title>Node4&#45;&gt;Node8</title>
<g id="a_edge11_Node000008_Node000004"><a xlink:title=" ">
<path fill="none" stroke="#63b8ff" d="M206.63,-298.77C169.4,-288.6 114.8,-273.68 79.14,-263.93"/>
<polygon fill="#63b8ff" stroke="#63b8ff" points="205.56,-302.11 216.13,-301.37 207.4,-295.36 205.56,-302.11"/>
</a>
</g>
</g>
<!-- Node5&#45;&gt;Node4 -->
<g id="edge4_Node000004_Node000005" class="edge">
<title>Node5&#45;&gt;Node4</title>
<g id="a_edge4_Node000004_Node000005"><a xlink:title=" ">
<path fill="none" stroke="#9a32cd" stroke-dasharray="5,2" d="M267.26,-205.43C262.02,-232.78 253.02,-279.74 249.13,-300.05"/>
<polygon fill="#9a32cd" stroke="#9a32cd" points="270.65,-206.37 269.09,-195.89 263.77,-205.06 270.65,-206.37"/>
</a>
</g>
<text text-anchor="middle" x="277.3" y="-250" font-family="Helvetica,sans-Serif" font-size="10.00" fill="grey"> parent</text>
</g>
<!-- Node6&#45;&gt;Node1 -->
<g id="edge6_Node000001_Node000006" class="edge">
<title>Node6&#45;&gt;Node1</title>
<g id="a_edge6_Node000001_Node000006"><a xlink:title=" ">
<path fill="none" stroke="#63b8ff" d="M255.08,-104.17C259.18,-89.97 266.2,-71.3 277.25,-57.75 290.33,-41.71 310.44,-29.19 325.75,-21.23"/>
<polygon fill="#63b8ff" stroke="#63b8ff" points="251.71,-103.25 252.58,-113.81 258.48,-105.01 251.71,-103.25"/>
</a>
</g>
</g>
<!-- Node7&#45;&gt;Node6 -->
<g id="edge8_Node000006_Node000007" class="edge">
<title>Node7&#45;&gt;Node6</title>
<g id="a_edge8_Node000006_Node000007"><a xlink:title=" ">
<path fill="none" stroke="#63b8ff" d="M175.93,-167.5C193.88,-157.69 216.75,-145.19 232.34,-136.66"/>
<polygon fill="#63b8ff" stroke="#63b8ff" points="174.44,-164.32 167.35,-172.19 177.8,-170.46 174.44,-164.32"/>
</a>
</g>
</g>
<!-- Node8&#45;&gt;Node7 -->
<g id="edge10_Node000007_Node000008" class="edge">
<title>Node8&#45;&gt;Node7</title>
<g id="a_edge10_Node000007_Node000008"><a xlink:title=" ">
<path fill="none" stroke="#63b8ff" d="M67.74,-236.38C87.88,-223.44 115.78,-205.5 132.89,-194.5"/>
<polygon fill="#63b8ff" stroke="#63b8ff" points="66.09,-233.28 59.57,-241.64 69.87,-239.17 66.09,-233.28"/>
</a>
</g>
</g>
<!-- Node9 -->
<g id="Node000009" class="node">
<title>Node9</title>
<g id="a_Node000009"><a xlink:href="structnix_1_1SearchPath.html" target="_top" xlink:title=" ">
<polygon fill="white" stroke="#666666" points="195.75,-263.5 104.75,-263.5 104.75,-242.75 195.75,-242.75 195.75,-263.5"/>
<text text-anchor="middle" x="150.25" y="-250" font-family="Helvetica,sans-Serif" font-size="10.00">nix::SearchPath</text>
</a>
</g>
</g>
<!-- Node9&#45;&gt;Node7 -->
<g id="edge12_Node000007_Node000009" class="edge">
<title>Node9&#45;&gt;Node7</title>
<g id="a_edge12_Node000007_Node000009"><a xlink:title=" ">
<path fill="none" stroke="#9a32cd" stroke-dasharray="5,2" d="M149.63,-231.32C149.27,-218.97 148.82,-203.9 148.54,-194.28"/>
<polygon fill="#9a32cd" stroke="#9a32cd" points="146.12,-231.05 149.92,-240.94 153.12,-230.84 146.12,-231.05"/>
</a>
</g>
<text text-anchor="middle" x="177.55" y="-215.25" font-family="Helvetica,sans-Serif" font-size="10.00" fill="grey"> searchPath</text>
</g>
<!-- Node10 -->
<g id="Node000010" class="node">
<title>Node10</title>
<g id="a_Node000010"><a xlink:href="structnix_1_1MixDefaultProfile.html" target="_top" xlink:title=" ">
<polygon fill="white" stroke="#bfbfbf" points="408.12,-78.5 286.38,-78.5 286.38,-57.75 408.12,-57.75 408.12,-78.5"/>
<text text-anchor="middle" x="347.25" y="-65" font-family="Helvetica,sans-Serif" font-size="10.00">nix::MixDefaultProfile</text>
</a>
</g>
</g>
<!-- Node10&#45;&gt;Node1 -->
<g id="edge13_Node000001_Node000010" class="edge">
<title>Node10&#45;&gt;Node1</title>
<g id="a_edge13_Node000001_Node000010"><a xlink:title=" ">
<path fill="none" stroke="#63b8ff" d="M347.25,-46.18C347.25,-37.52 347.25,-27.9 347.25,-20.97"/>
<polygon fill="#63b8ff" stroke="#63b8ff" points="343.75,-45.9 347.25,-55.9 350.75,-45.9 343.75,-45.9"/>
</a>
</g>
</g>
<!-- Node11&#45;&gt;Node10 -->
<g id="edge14_Node000010_Node000011" class="edge">
<title>Node11&#45;&gt;Node10</title>
<g id="a_edge14_Node000010_Node000011"><a xlink:title=" ">
<path fill="none" stroke="#63b8ff" d="M358.58,-104.23C355.76,-95.49 352.61,-85.73 350.35,-78.72"/>
<polygon fill="#63b8ff" stroke="#63b8ff" points="355.25,-105.28 361.65,-113.72 361.91,-103.13 355.25,-105.28"/>
</a>
</g>
</g>
</g>
</svg>
