<?xml version="1.0" encoding="UTF-8" standalone="no"?>
<!DOCTYPE svg PUBLIC "-//W3C//DTD SVG 1.1//EN"
 "http://www.w3.org/Graphics/SVG/1.1/DTD/svg11.dtd">
<!-- Generated by graphviz version 12.2.1 (0)
 -->
<!-- Title: nix::BrotliCompressionSink Pages: 1 -->
<svg width="279pt" height="260pt"
 viewBox="0.00 0.00 279.25 259.75" xmlns="http://www.w3.org/2000/svg" xmlns:xlink="http://www.w3.org/1999/xlink">
<g id="graph0" class="graph" transform="scale(1 1) rotate(0) translate(4 255.75)">
<title>nix::BrotliCompressionSink</title>
<!-- Node1 -->
<g id="Node000001" class="node">
<title>Node1</title>
<g id="a_Node000001"><a xlink:title=" ">
<polygon fill="#999999" stroke="#666666" points="148,-20.75 0,-20.75 0,0 148,0 148,-20.75"/>
<text text-anchor="middle" x="74" y="-7.25" font-family="Helvetica,sans-Serif" font-size="10.00">nix::BrotliCompressionSink</text>
</a>
</g>
</g>
<!-- Node2 -->
<g id="Node000002" class="node">
<title>Node2</title>
<g id="a_Node000002"><a xlink:href="structnix_1_1ChunkedCompressionSink.html" target="_top" xlink:title=" ">
<polygon fill="white" stroke="#bfbfbf" points="237.88,-78.5 74.12,-78.5 74.12,-57.75 237.88,-57.75 237.88,-78.5"/>
<text text-anchor="middle" x="156" y="-65" font-family="Helvetica,sans-Serif" font-size="10.00">nix::ChunkedCompressionSink</text>
</a>
</g>
</g>
<!-- Node2&#45;&gt;Node1 -->
<g id="edge1_Node000001_Node000002" class="edge">
<title>Node2&#45;&gt;Node1</title>
<g id="a_edge1_Node000001_Node000002"><a xlink:title=" ">
<path fill="none" stroke="#63b8ff" d="M132.53,-51.17C118.29,-41.49 100.58,-29.45 88.39,-21.16"/>
<polygon fill="#63b8ff" stroke="#63b8ff" points="130.23,-53.84 140.47,-56.56 134.16,-48.05 130.23,-53.84"/>
</a>
</g>
</g>
<!-- Node3 -->
<g id="Node000003" class="node">
<title>Node3</title>
<g id="a_Node000003"><a xlink:href="structnix_1_1CompressionSink.html" target="_top" xlink:title=" ">
<polygon fill="white" stroke="#bfbfbf" points="224.88,-136.25 103.12,-136.25 103.12,-115.5 224.88,-115.5 224.88,-136.25"/>
<text text-anchor="middle" x="164" y="-122.75" font-family="Helvetica,sans-Serif" font-size="10.00">nix::CompressionSink</text>
</a>
</g>
</g>
<!-- Node3&#45;&gt;Node2 -->
<g id="edge2_Node000002_Node000003" class="edge">
<title>Node3&#45;&gt;Node2</title>
<g id="a_edge2_Node000002_Node000003"><a xlink:title=" ">
<path fill="none" stroke="#63b8ff" d="M160.99,-103.93C159.75,-95.27 158.37,-85.65 157.38,-78.72"/>
<polygon fill="#63b8ff" stroke="#63b8ff" points="157.51,-104.26 162.39,-113.67 164.44,-103.27 157.51,-104.26"/>
</a>
</g>
</g>
<!-- Node4 -->
<g id="Node000004" class="node">
<title>Node4</title>
<g id="a_Node000004"><a xlink:href="structnix_1_1BufferedSink.html" target="_top" xlink:title=" ">
<polygon fill="white" stroke="#666666" points="166.62,-194 67.38,-194 67.38,-173.25 166.62,-173.25 166.62,-194"/>
<text text-anchor="middle" x="117" y="-180.5" font-family="Helvetica,sans-Serif" font-size="10.00">nix::BufferedSink</text>
</a>
</g>
</g>
<!-- Node4&#45;&gt;Node3 -->
<g id="edge3_Node000003_Node000004" class="edge">
<title>Node4&#45;&gt;Node3</title>
<g id="a_edge3_Node000003_Node000004"><a xlink:title=" ">
<path fill="none" stroke="#63b8ff" d="M132.42,-164.34C140.26,-155.04 149.46,-144.12 155.91,-136.47"/>
<polygon fill="#63b8ff" stroke="#63b8ff" points="129.93,-161.86 126.16,-171.76 135.28,-166.37 129.93,-161.86"/>
</a>
</g>
</g>
<!-- Node5 -->
<g id="Node000005" class="node">
<title>Node5</title>
<g id="a_Node000005"><a xlink:href="structnix_1_1Sink.html" target="_top" xlink:title=" ">
<polygon fill="white" stroke="#666666" points="146,-251.75 88,-251.75 88,-231 146,-231 146,-251.75"/>
<text text-anchor="middle" x="117" y="-238.25" font-family="Helvetica,sans-Serif" font-size="10.00">nix::Sink</text>
</a>
</g>
</g>
<!-- Node5&#45;&gt;Node1 -->
<g id="edge7_Node000001_Node000005" class="edge">
<title>Node5&#45;&gt;Node1</title>
<g id="a_edge7_Node000001_Node000005"><a xlink:title=" ">
<path fill="none" stroke="#9a32cd" stroke-dasharray="5,2" d="M76.96,-228.01C57.81,-219.37 39,-205.55 39,-184.62 39,-184.62 39,-184.62 39,-67.12 39,-48.61 53.02,-31.2 63.31,-20.92"/>
<polygon fill="#9a32cd" stroke="#9a32cd" points="75.53,-231.21 86.11,-231.73 78.16,-224.72 75.53,-231.21"/>
</a>
</g>
<text text-anchor="middle" x="61.88" y="-122.75" font-family="Helvetica,sans-Serif" font-size="10.00" fill="grey"> nextSink</text>
</g>
<!-- Node5&#45;&gt;Node4 -->
<g id="edge4_Node000004_Node000005" class="edge">
<title>Node5&#45;&gt;Node4</title>
<g id="a_edge4_Node000004_Node000005"><a xlink:title=" ">
<path fill="none" stroke="#63b8ff" d="M117,-219.43C117,-210.77 117,-201.15 117,-194.22"/>
<polygon fill="#63b8ff" stroke="#63b8ff" points="113.5,-219.15 117,-229.15 120.5,-219.15 113.5,-219.15"/>
</a>
</g>
</g>
<!-- Node6 -->
<g id="Node000006" class="node">
<title>Node6</title>
<g id="a_Node000006"><a xlink:href="structnix_1_1FinishSink.html" target="_top" xlink:title=" ">
<polygon fill="white" stroke="#bfbfbf" points="271.25,-194 184.75,-194 184.75,-173.25 271.25,-173.25 271.25,-194"/>
<text text-anchor="middle" x="228" y="-180.5" font-family="Helvetica,sans-Serif" font-size="10.00">nix::FinishSink</text>
</a>
</g>
</g>
<!-- Node5&#45;&gt;Node6 -->
<g id="edge6_Node000006_Node000005" class="edge">
<title>Node5&#45;&gt;Node6</title>
<g id="a_edge6_Node000006_Node000005"><a xlink:title=" ">
<path fill="none" stroke="#63b8ff" d="M146.84,-225.39C166.45,-215.54 191.55,-202.93 208.61,-194.37"/>
<polygon fill="#63b8ff" stroke="#63b8ff" points="145.31,-222.24 137.94,-229.86 148.45,-228.5 145.31,-222.24"/>
</a>
</g>
</g>
<!-- Node6&#45;&gt;Node3 -->
<g id="edge5_Node000003_Node000006" class="edge">
<title>Node6&#45;&gt;Node3</title>
<g id="a_edge5_Node000003_Node000006"><a xlink:title=" ">
<path fill="none" stroke="#63b8ff" d="M208.33,-165.49C197.38,-155.95 184.16,-144.44 175.02,-136.47"/>
<polygon fill="#63b8ff" stroke="#63b8ff" points="205.87,-167.99 215.71,-171.92 210.47,-162.71 205.87,-167.99"/>
</a>
</g>
</g>
</g>
</svg>
