<?xml version="1.0" encoding="UTF-8" standalone="no"?>
<!DOCTYPE svg PUBLIC "-//W3C//DTD SVG 1.1//EN"
 "http://www.w3.org/Graphics/SVG/1.1/DTD/svg11.dtd">
<!-- Generated by graphviz version 12.2.1 (0)
 -->
<!-- Title: nix::CmdProfileList Pages: 1 -->
<svg width="344pt" height="313pt"
 viewBox="0.00 0.00 344.38 312.50" xmlns="http://www.w3.org/2000/svg" xmlns:xlink="http://www.w3.org/1999/xlink">
<g id="graph0" class="graph" transform="scale(1 1) rotate(0) translate(4 308.5)">
<title>nix::CmdProfileList</title>
<!-- Node1 -->
<g id="Node000001" class="node">
<title>Node1</title>
<g id="a_Node000001"><a xlink:title=" ">
<polygon fill="#999999" stroke="#666666" points="222.62,-20.75 115.12,-20.75 115.12,0 222.62,0 222.62,-20.75"/>
<text text-anchor="middle" x="168.88" y="-7.25" font-family="Helvetica,sans-Serif" font-size="10.00">nix::CmdProfileList</text>
</a>
</g>
</g>
<!-- Node2 -->
<g id="Node000002" class="node">
<title>Node2</title>
<g id="a_Node000002"><a xlink:href="structnix_1_1EvalCommand.html" target="_top" xlink:title=" ">
<polygon fill="white" stroke="#666666" points="286,-134.25 177.75,-134.25 177.75,-113.5 286,-113.5 286,-134.25"/>
<text text-anchor="middle" x="231.88" y="-120.75" font-family="Helvetica,sans-Serif" font-size="10.00">nix::EvalCommand</text>
</a>
</g>
</g>
<!-- Node2&#45;&gt;Node1 -->
<g id="edge1_Node000001_Node000002" class="edge">
<title>Node2&#45;&gt;Node1</title>
<g id="a_edge1_Node000001_Node000002"><a xlink:title=" ">
<path fill="none" stroke="#63b8ff" d="M220.99,-103.62C207.44,-79.63 184.81,-39.58 174.41,-21.18"/>
<polygon fill="#63b8ff" stroke="#63b8ff" points="217.79,-105.07 225.76,-112.05 223.89,-101.62 217.79,-105.07"/>
</a>
</g>
</g>
<!-- Node3 -->
<g id="Node000003" class="node">
<title>Node3</title>
<g id="a_Node000003"><a xlink:href="structnix_1_1StoreCommand.html" target="_top" xlink:title=" ">
<polygon fill="white" stroke="#666666" points="162.25,-191 49.5,-191 49.5,-170.25 162.25,-170.25 162.25,-191"/>
<text text-anchor="middle" x="105.88" y="-177.5" font-family="Helvetica,sans-Serif" font-size="10.00">nix::StoreCommand</text>
</a>
</g>
</g>
<!-- Node3&#45;&gt;Node1 -->
<g id="edge9_Node000001_Node000003" class="edge">
<title>Node3&#45;&gt;Node1</title>
<g id="a_edge9_Node000001_Node000003"><a xlink:title=" ">
<path fill="none" stroke="#63b8ff" d="M113.45,-159.38C127.06,-123.06 155.13,-48.08 165.19,-21.22"/>
<polygon fill="#63b8ff" stroke="#63b8ff" points="110.2,-158.09 109.97,-168.68 116.76,-160.54 110.2,-158.09"/>
</a>
</g>
</g>
<!-- Node3&#45;&gt;Node2 -->
<g id="edge2_Node000002_Node000003" class="edge">
<title>Node3&#45;&gt;Node2</title>
<g id="a_edge2_Node000002_Node000003"><a xlink:title=" ">
<path fill="none" stroke="#63b8ff" d="M138.74,-165.34C161.03,-155.66 189.9,-143.12 209.54,-134.58"/>
<polygon fill="#63b8ff" stroke="#63b8ff" points="137.57,-162.04 129.79,-169.23 140.36,-168.46 137.57,-162.04"/>
</a>
</g>
</g>
<!-- Node9 -->
<g id="Node000009" class="node">
<title>Node9</title>
<g id="a_Node000009"><a xlink:href="structnix_1_1MixProfile.html" target="_top" xlink:title=" ">
<polygon fill="white" stroke="#bfbfbf" points="112.75,-134.25 27,-134.25 27,-113.5 112.75,-113.5 112.75,-134.25"/>
<text text-anchor="middle" x="69.88" y="-120.75" font-family="Helvetica,sans-Serif" font-size="10.00">nix::MixProfile</text>
</a>
</g>
</g>
<!-- Node3&#45;&gt;Node9 -->
<g id="edge12_Node000009_Node000003" class="edge">
<title>Node3&#45;&gt;Node9</title>
<g id="a_edge12_Node000009_Node000003"><a xlink:title=" ">
<path fill="none" stroke="#63b8ff" d="M93.23,-160.39C87.49,-151.66 80.95,-141.72 76.26,-134.58"/>
<polygon fill="#63b8ff" stroke="#63b8ff" points="90.19,-162.14 98.61,-168.57 96.04,-158.29 90.19,-162.14"/>
</a>
</g>
</g>
<!-- Node4 -->
<g id="Node000004" class="node">
<title>Node4</title>
<g id="a_Node000004"><a xlink:href="structnix_1_1Command.html" target="_top" xlink:title=" ">
<polygon fill="white" stroke="#666666" points="145.5,-247.75 58.25,-247.75 58.25,-227 145.5,-227 145.5,-247.75"/>
<text text-anchor="middle" x="101.88" y="-234.25" font-family="Helvetica,sans-Serif" font-size="10.00">nix::Command</text>
</a>
</g>
</g>
<!-- Node4&#45;&gt;Node3 -->
<g id="edge3_Node000003_Node000004" class="edge">
<title>Node4&#45;&gt;Node3</title>
<g id="a_edge3_Node000003_Node000004"><a xlink:title=" ">
<path fill="none" stroke="#63b8ff" d="M103.43,-215.13C104.03,-206.91 104.68,-197.93 105.17,-191.33"/>
<polygon fill="#63b8ff" stroke="#63b8ff" points="99.94,-214.85 102.7,-225.08 106.92,-215.36 99.94,-214.85"/>
</a>
</g>
</g>
<!-- Node5 -->
<g id="Node000005" class="node">
<title>Node5</title>
<g id="a_Node000005"><a xlink:href="classnix_1_1Args.html" target="_top" xlink:title=" ">
<polygon fill="white" stroke="#bfbfbf" points="238.25,-304.5 179.5,-304.5 179.5,-283.75 238.25,-283.75 238.25,-304.5"/>
<text text-anchor="middle" x="208.88" y="-291" font-family="Helvetica,sans-Serif" font-size="10.00">nix::Args</text>
</a>
</g>
</g>
<!-- Node5&#45;&gt;Node4 -->
<g id="edge4_Node000004_Node000005" class="edge">
<title>Node5&#45;&gt;Node4</title>
<g id="a_edge4_Node000004_Node000005"><a xlink:title=" ">
<path fill="none" stroke="#63b8ff" d="M179.66,-278.18C160.93,-268.59 137.15,-256.42 120.84,-248.08"/>
<polygon fill="#63b8ff" stroke="#63b8ff" points="177.9,-281.21 188.4,-282.65 181.09,-274.98 177.9,-281.21"/>
</a>
</g>
</g>
<!-- Node6 -->
<g id="Node000006" class="node">
<title>Node6</title>
<g id="a_Node000006"><a xlink:href="structnix_1_1MixEvalArgs.html" target="_top" xlink:title=" ">
<polygon fill="white" stroke="#bfbfbf" points="280.75,-191 183,-191 183,-170.25 280.75,-170.25 280.75,-191"/>
<text text-anchor="middle" x="231.88" y="-177.5" font-family="Helvetica,sans-Serif" font-size="10.00">nix::MixEvalArgs</text>
</a>
</g>
</g>
<!-- Node5&#45;&gt;Node6 -->
<g id="edge6_Node000006_Node000005" class="edge">
<title>Node5&#45;&gt;Node6</title>
<g id="a_edge6_Node000006_Node000005"><a xlink:title=" ">
<path fill="none" stroke="#63b8ff" d="M198.14,-273.53C192.26,-260.17 187.23,-242.23 192.88,-227 198.22,-212.59 210.42,-199.67 219.76,-191.34"/>
<polygon fill="#63b8ff" stroke="#63b8ff" points="194.82,-274.72 202.38,-282.14 201.1,-271.62 194.82,-274.72"/>
</a>
</g>
</g>
<!-- Node7 -->
<g id="Node000007" class="node">
<title>Node7</title>
<g id="a_Node000007"><a xlink:href="structnix_1_1MixRepair.html" target="_top" xlink:title=" ">
<polygon fill="white" stroke="#bfbfbf" points="288.12,-247.75 201.62,-247.75 201.62,-227 288.12,-227 288.12,-247.75"/>
<text text-anchor="middle" x="244.88" y="-234.25" font-family="Helvetica,sans-Serif" font-size="10.00">nix::MixRepair</text>
</a>
</g>
</g>
<!-- Node5&#45;&gt;Node7 -->
<g id="edge8_Node000007_Node000005" class="edge">
<title>Node5&#45;&gt;Node7</title>
<g id="a_edge8_Node000007_Node000005"><a xlink:title=" ">
<path fill="none" stroke="#63b8ff" d="M221.52,-273.89C227.26,-265.16 233.8,-255.22 238.49,-248.08"/>
<polygon fill="#63b8ff" stroke="#63b8ff" points="218.71,-271.79 216.14,-282.07 224.56,-275.64 218.71,-271.79"/>
</a>
</g>
</g>
<!-- Node10 -->
<g id="Node000010" class="node">
<title>Node10</title>
<g id="a_Node000010"><a xlink:href="structnix_1_1MixJSON.html" target="_top" xlink:title=" ">
<polygon fill="white" stroke="#bfbfbf" points="336.38,-77.5 257.38,-77.5 257.38,-56.75 336.38,-56.75 336.38,-77.5"/>
<text text-anchor="middle" x="296.88" y="-64" font-family="Helvetica,sans-Serif" font-size="10.00">nix::MixJSON</text>
</a>
</g>
</g>
<!-- Node5&#45;&gt;Node10 -->
<g id="edge14_Node000010_Node000005" class="edge">
<title>Node5&#45;&gt;Node10</title>
<g id="a_edge14_Node000010_Node000005"><a xlink:title=" ">
<path fill="none" stroke="#63b8ff" d="M249.38,-282.67C267.2,-275.83 286.43,-264.89 296.88,-247.75 331.12,-191.56 308.91,-105.97 300.05,-77.62"/>
<polygon fill="#63b8ff" stroke="#63b8ff" points="248.3,-279.34 239.99,-285.92 250.58,-285.96 248.3,-279.34"/>
</a>
</g>
</g>
<!-- Node6&#45;&gt;Node2 -->
<g id="edge5_Node000002_Node000006" class="edge">
<title>Node6&#45;&gt;Node2</title>
<g id="a_edge5_Node000002_Node000006"><a xlink:title=" ">
<path fill="none" stroke="#63b8ff" d="M231.88,-158.38C231.88,-150.16 231.88,-141.18 231.88,-134.58"/>
<polygon fill="#63b8ff" stroke="#63b8ff" points="228.38,-158.32 231.88,-168.32 235.38,-158.32 228.38,-158.32"/>
</a>
</g>
</g>
<!-- Node7&#45;&gt;Node6 -->
<g id="edge7_Node000006_Node000007" class="edge">
<title>Node7&#45;&gt;Node6</title>
<g id="a_edge7_Node000006_Node000007"><a xlink:title=" ">
<path fill="none" stroke="#63b8ff" d="M239.9,-215.42C237.93,-207.13 235.76,-198 234.18,-191.33"/>
<polygon fill="#63b8ff" stroke="#63b8ff" points="236.49,-216.19 242.2,-225.11 243.3,-214.58 236.49,-216.19"/>
</a>
</g>
</g>
<!-- Node8 -->
<g id="Node000008" class="node">
<title>Node8</title>
<g id="a_Node000008"><a xlink:href="structnix_1_1MixDefaultProfile.html" target="_top" xlink:title=" ">
<polygon fill="white" stroke="#bfbfbf" points="121.75,-77.5 0,-77.5 0,-56.75 121.75,-56.75 121.75,-77.5"/>
<text text-anchor="middle" x="60.88" y="-64" font-family="Helvetica,sans-Serif" font-size="10.00">nix::MixDefaultProfile</text>
</a>
</g>
</g>
<!-- Node8&#45;&gt;Node1 -->
<g id="edge10_Node000001_Node000008" class="edge">
<title>Node8&#45;&gt;Node1</title>
<g id="a_edge10_Node000001_Node000008"><a xlink:title=" ">
<path fill="none" stroke="#63b8ff" d="M90.36,-51.18C109.27,-41.59 133.28,-29.42 149.73,-21.08"/>
<polygon fill="#63b8ff" stroke="#63b8ff" points="88.87,-48.01 81.53,-55.65 92.04,-54.25 88.87,-48.01"/>
</a>
</g>
</g>
<!-- Node9&#45;&gt;Node8 -->
<g id="edge11_Node000008_Node000009" class="edge">
<title>Node9&#45;&gt;Node8</title>
<g id="a_edge11_Node000008_Node000009"><a xlink:title=" ">
<path fill="none" stroke="#63b8ff" d="M66.43,-101.92C65.07,-93.63 63.57,-84.5 62.47,-77.83"/>
<polygon fill="#63b8ff" stroke="#63b8ff" points="62.94,-102.29 68.02,-111.59 69.85,-101.16 62.94,-102.29"/>
</a>
</g>
</g>
<!-- Node10&#45;&gt;Node1 -->
<g id="edge13_Node000001_Node000010" class="edge">
<title>Node10&#45;&gt;Node1</title>
<g id="a_edge13_Node000001_Node000010"><a xlink:title=" ">
<path fill="none" stroke="#63b8ff" d="M263.48,-51.84C240.85,-42.16 211.52,-29.62 191.56,-21.08"/>
<polygon fill="#63b8ff" stroke="#63b8ff" points="262.03,-55.03 272.6,-55.74 264.78,-48.59 262.03,-55.03"/>
</a>
</g>
</g>
</g>
</svg>
