<?xml version="1.0" encoding="UTF-8" standalone="no"?>
<!DOCTYPE svg PUBLIC "-//W3C//DTD SVG 1.1//EN"
 "http://www.w3.org/Graphics/SVG/1.1/DTD/svg11.dtd">
<!-- Generated by graphviz version 12.2.1 (0)
 -->
<!-- Title: nix::CmdRegistryRemove Pages: 1 -->
<svg width="242pt" height="142pt"
 viewBox="0.00 0.00 241.50 142.25" xmlns="http://www.w3.org/2000/svg" xmlns:xlink="http://www.w3.org/1999/xlink">
<g id="graph0" class="graph" transform="scale(1 1) rotate(0) translate(4 138.25)">
<title>nix::CmdRegistryRemove</title>
<!-- Node1 -->
<g id="Node000001" class="node">
<title>Node1</title>
<g id="a_Node000001"><a xlink:title=" ">
<polygon fill="#999999" stroke="#666666" points="197.12,-20.75 56.62,-20.75 56.62,0 197.12,0 197.12,-20.75"/>
<text text-anchor="middle" x="126.88" y="-7.25" font-family="Helvetica,sans-Serif" font-size="10.00">nix::CmdRegistryRemove</text>
</a>
</g>
</g>
<!-- Node2 -->
<g id="Node000002" class="node">
<title>Node2</title>
<g id="a_Node000002"><a xlink:href="classnix_1_1RegistryCommand.html" target="_top" xlink:title=" ">
<polygon fill="white" stroke="#bfbfbf" points="127.75,-77.5 0,-77.5 0,-56.75 127.75,-56.75 127.75,-77.5"/>
<text text-anchor="middle" x="63.88" y="-64" font-family="Helvetica,sans-Serif" font-size="10.00">nix::RegistryCommand</text>
</a>
</g>
</g>
<!-- Node2&#45;&gt;Node1 -->
<g id="edge1_Node000001_Node000002" class="edge">
<title>Node2&#45;&gt;Node1</title>
<g id="a_edge1_Node000001_Node000002"><a xlink:title=" ">
<path fill="none" stroke="#63b8ff" d="M83.74,-48.86C94.29,-39.69 106.87,-28.76 115.71,-21.08"/>
<polygon fill="#63b8ff" stroke="#63b8ff" points="81.53,-46.14 76.28,-55.34 86.12,-51.43 81.53,-46.14"/>
</a>
</g>
</g>
<!-- Node3 -->
<g id="Node000003" class="node">
<title>Node3</title>
<g id="a_Node000003"><a xlink:href="classnix_1_1Args.html" target="_top" xlink:title=" ">
<polygon fill="white" stroke="#bfbfbf" points="156.25,-134.25 97.5,-134.25 97.5,-113.5 156.25,-113.5 156.25,-134.25"/>
<text text-anchor="middle" x="126.88" y="-120.75" font-family="Helvetica,sans-Serif" font-size="10.00">nix::Args</text>
</a>
</g>
</g>
<!-- Node3&#45;&gt;Node2 -->
<g id="edge2_Node000002_Node000003" class="edge">
<title>Node3&#45;&gt;Node2</title>
<g id="a_edge2_Node000002_Node000003"><a xlink:title=" ">
<path fill="none" stroke="#63b8ff" d="M107.01,-105.61C96.46,-96.44 83.88,-85.51 75.04,-77.83"/>
<polygon fill="#63b8ff" stroke="#63b8ff" points="104.63,-108.18 114.47,-112.09 109.22,-102.89 104.63,-108.18"/>
</a>
</g>
</g>
<!-- Node4 -->
<g id="Node000004" class="node">
<title>Node4</title>
<g id="a_Node000004"><a xlink:href="structnix_1_1Command.html" target="_top" xlink:title=" ">
<polygon fill="white" stroke="#666666" points="233.5,-77.5 146.25,-77.5 146.25,-56.75 233.5,-56.75 233.5,-77.5"/>
<text text-anchor="middle" x="189.88" y="-64" font-family="Helvetica,sans-Serif" font-size="10.00">nix::Command</text>
</a>
</g>
</g>
<!-- Node3&#45;&gt;Node4 -->
<g id="edge4_Node000004_Node000003" class="edge">
<title>Node3&#45;&gt;Node4</title>
<g id="a_edge4_Node000004_Node000003"><a xlink:title=" ">
<path fill="none" stroke="#63b8ff" d="M146.74,-105.61C157.29,-96.44 169.87,-85.51 178.71,-77.83"/>
<polygon fill="#63b8ff" stroke="#63b8ff" points="144.53,-102.89 139.28,-112.09 149.12,-108.18 144.53,-102.89"/>
</a>
</g>
</g>
<!-- Node4&#45;&gt;Node1 -->
<g id="edge3_Node000001_Node000004" class="edge">
<title>Node4&#45;&gt;Node1</title>
<g id="a_edge3_Node000001_Node000004"><a xlink:title=" ">
<path fill="none" stroke="#63b8ff" d="M170.01,-48.86C159.46,-39.69 146.88,-28.76 138.04,-21.08"/>
<polygon fill="#63b8ff" stroke="#63b8ff" points="167.63,-51.43 177.47,-55.34 172.22,-46.14 167.63,-51.43"/>
</a>
</g>
</g>
</g>
</svg>
