<?xml version="1.0" encoding="UTF-8" standalone="no"?>
<!DOCTYPE svg PUBLIC "-//W3C//DTD SVG 1.1//EN"
 "http://www.w3.org/Graphics/SVG/1.1/DTD/svg11.dtd">
<!-- Generated by graphviz version 12.2.1 (0)
 -->
<!-- Title: nix::InstallableDerivedPath Pages: 1 -->
<svg width="357pt" height="169pt"
 viewBox="0.00 0.00 356.75 168.75" xmlns="http://www.w3.org/2000/svg" xmlns:xlink="http://www.w3.org/1999/xlink">
<g id="graph0" class="graph" transform="scale(1 1) rotate(0) translate(4 164.75)">
<title>nix::InstallableDerivedPath</title>
<!-- Node1 -->
<g id="Node000001" class="node">
<title>Node1</title>
<g id="a_Node000001"><a xlink:title=" ">
<polygon fill="#999999" stroke="#666666" points="239.62,-20.75 92.38,-20.75 92.38,0 239.62,0 239.62,-20.75"/>
<text text-anchor="middle" x="166" y="-7.25" font-family="Helvetica,sans-Serif" font-size="10.00">nix::InstallableDerivedPath</text>
</a>
</g>
</g>
<!-- Node2 -->
<g id="Node000002" class="node">
<title>Node2</title>
<g id="a_Node000002"><a xlink:href="structnix_1_1Installable.html" target="_top" xlink:title=" ">
<polygon fill="white" stroke="#666666" points="88,-90.25 0,-90.25 0,-69.5 88,-69.5 88,-90.25"/>
<text text-anchor="middle" x="44" y="-76.75" font-family="Helvetica,sans-Serif" font-size="10.00">nix::Installable</text>
</a>
</g>
</g>
<!-- Node2&#45;&gt;Node1 -->
<g id="edge1_Node000001_Node000002" class="edge">
<title>Node2&#45;&gt;Node1</title>
<g id="a_edge1_Node000001_Node000002"><a xlink:title=" ">
<path fill="none" stroke="#63b8ff" d="M71.78,-63.5C95.25,-50.52 128.17,-32.3 148.24,-21.2"/>
<polygon fill="#63b8ff" stroke="#63b8ff" points="70.12,-60.42 63.06,-68.33 73.51,-66.55 70.12,-60.42"/>
</a>
</g>
</g>
<!-- Node3 -->
<g id="Node000003" class="node">
<title>Node3</title>
<g id="a_Node000003"><a xlink:href="classnix_1_1ref.html" target="_top" xlink:title=" ">
<polygon fill="white" stroke="#666666" points="225.75,-90.25 106.25,-90.25 106.25,-69.5 225.75,-69.5 225.75,-90.25"/>
<text text-anchor="middle" x="166" y="-76.75" font-family="Helvetica,sans-Serif" font-size="10.00">nix::ref&lt; nix::Store &gt;</text>
</a>
</g>
</g>
<!-- Node3&#45;&gt;Node1 -->
<g id="edge2_Node000001_Node000003" class="edge">
<title>Node3&#45;&gt;Node1</title>
<g id="a_edge2_Node000001_Node000003"><a xlink:title=" ">
<path fill="none" stroke="#9a32cd" stroke-dasharray="5,2" d="M166,-58.07C166,-45.72 166,-30.65 166,-21.03"/>
<polygon fill="#9a32cd" stroke="#9a32cd" points="162.5,-57.69 166,-67.69 169.5,-57.69 162.5,-57.69"/>
</a>
</g>
<text text-anchor="middle" x="179.88" y="-42" font-family="Helvetica,sans-Serif" font-size="10.00" fill="grey"> store</text>
</g>
<!-- Node4 -->
<g id="Node000004" class="node">
<title>Node4</title>
<g id="a_Node000004"><a xlink:href="structnix_1_1DerivedPath.html" target="_top" xlink:title=" ">
<polygon fill="white" stroke="#666666" points="340.12,-90.25 243.88,-90.25 243.88,-69.5 340.12,-69.5 340.12,-90.25"/>
<text text-anchor="middle" x="292" y="-76.75" font-family="Helvetica,sans-Serif" font-size="10.00">nix::DerivedPath</text>
</a>
</g>
</g>
<!-- Node4&#45;&gt;Node1 -->
<g id="edge3_Node000001_Node000004" class="edge">
<title>Node4&#45;&gt;Node1</title>
<g id="a_edge3_Node000001_Node000004"><a xlink:title=" ">
<path fill="none" stroke="#9a32cd" stroke-dasharray="5,2" d="M263.64,-63.68C239.37,-50.68 205.16,-32.35 184.34,-21.2"/>
<polygon fill="#9a32cd" stroke="#9a32cd" points="261.88,-66.71 272.34,-68.35 265.18,-60.54 261.88,-66.71"/>
</a>
</g>
<text text-anchor="middle" x="270.66" y="-42" font-family="Helvetica,sans-Serif" font-size="10.00" fill="grey"> derivedPath</text>
</g>
<!-- Node5 -->
<g id="Node000005" class="node">
<title>Node5</title>
<g id="a_Node000005"><a xlink:title=" ">
<polygon fill="white" stroke="#bfbfbf" points="348.75,-160.75 235.25,-160.75 235.25,-127.25 348.75,-127.25 348.75,-160.75"/>
<text text-anchor="start" x="243.25" y="-147.25" font-family="Helvetica,sans-Serif" font-size="10.00">derived_path::detail</text>
<text text-anchor="middle" x="292" y="-134.5" font-family="Helvetica,sans-Serif" font-size="10.00">::DerivedPathRaw</text>
</a>
</g>
</g>
<!-- Node5&#45;&gt;Node4 -->
<g id="edge4_Node000004_Node000005" class="edge">
<title>Node5&#45;&gt;Node4</title>
<g id="a_edge4_Node000004_Node000005"><a xlink:title=" ">
<path fill="none" stroke="#63b8ff" d="M292,-115.73C292,-106.77 292,-97.39 292,-90.62"/>
<polygon fill="#63b8ff" stroke="#63b8ff" points="288.5,-115.49 292,-125.49 295.5,-115.49 288.5,-115.49"/>
</a>
</g>
</g>
</g>
</svg>
