<?xml version="1.0" encoding="UTF-8" standalone="no"?>
<!DOCTYPE svg PUBLIC "-//W3C//DTD SVG 1.1//EN"
 "http://www.w3.org/Graphics/SVG/1.1/DTD/svg11.dtd">
<!-- Generated by graphviz version 12.2.1 (0)
 -->
<!-- Title: nix::Value Pages: 1 -->
<svg width="721pt" height="258pt"
 viewBox="0.00 0.00 720.50 258.12" xmlns="http://www.w3.org/2000/svg" xmlns:xlink="http://www.w3.org/1999/xlink">
<g id="graph0" class="graph" transform="scale(1 1) rotate(0) translate(4 254.12)">
<title>nix::Value</title>
<!-- Node1 -->
<g id="Node000001" class="node">
<title>Node1</title>
<g id="a_Node000001"><a xlink:title=" ">
<polygon fill="#999999" stroke="#666666" points="586.25,-130.75 522.25,-130.75 522.25,-110 586.25,-110 586.25,-130.75"/>
<text text-anchor="middle" x="554.25" y="-117.25" font-family="Helvetica,sans-Serif" font-size="10.00">nix::Value</text>
</a>
</g>
</g>
<!-- Node1&#45;&gt;Node1 -->
<g id="edge1_Node000001_Node000001" class="edge">
<title>Node1&#45;&gt;Node1</title>
<g id="a_edge1_Node000001_Node000001"><a xlink:title=" ">
<path fill="none" stroke="#9a32cd" stroke-dasharray="5,2" d="M542.49,-142.56C544.16,-146.23 548.08,-148.75 554.25,-148.75 565.87,-148.75 569.51,-139.81 565.15,-131.15"/>
<polygon fill="#9a32cd" stroke="#9a32cd" points="545.98,-142.89 543.24,-132.66 539,-142.36 545.98,-142.89"/>
</a>
</g>
<text text-anchor="middle" x="554.25" y="-203" font-family="Helvetica,sans-Serif" font-size="10.00" fill="grey"> EMPTY_LIST</text>
<text text-anchor="middle" x="554.25" y="-190.25" font-family="Helvetica,sans-Serif" font-size="10.00" fill="grey">elems</text>
<text text-anchor="middle" x="554.25" y="-177.5" font-family="Helvetica,sans-Serif" font-size="10.00" fill="grey">left</text>
<text text-anchor="middle" x="554.25" y="-164.75" font-family="Helvetica,sans-Serif" font-size="10.00" fill="grey">right</text>
<text text-anchor="middle" x="554.25" y="-152" font-family="Helvetica,sans-Serif" font-size="10.00" fill="grey">smallList</text>
</g>
<!-- Node6 -->
<g id="Node000006" class="node">
<title>Node6</title>
<g id="a_Node000006"><a xlink:href="structnix_1_1Env.html" target="_top" xlink:title=" ">
<polygon fill="white" stroke="#bfbfbf" points="712.5,-130.75 657.5,-130.75 657.5,-110 712.5,-110 712.5,-130.75"/>
<text text-anchor="middle" x="685" y="-117.25" font-family="Helvetica,sans-Serif" font-size="10.00">nix::Env</text>
</a>
</g>
</g>
<!-- Node1&#45;&gt;Node6 -->
<g id="edge9_Node000006_Node000001" class="edge">
<title>Node1&#45;&gt;Node6</title>
<g id="a_edge9_Node000006_Node000001"><a xlink:title=" ">
<path fill="none" stroke="#9a32cd" stroke-dasharray="5,2" d="M598.13,-120.38C617.63,-120.38 640.11,-120.38 657.18,-120.38"/>
<polygon fill="#9a32cd" stroke="#9a32cd" points="598.26,-116.88 588.26,-120.38 598.26,-123.88 598.26,-116.88"/>
</a>
</g>
<text text-anchor="middle" x="621.88" y="-123.62" font-family="Helvetica,sans-Serif" font-size="10.00" fill="grey"> values</text>
</g>
<!-- Node2 -->
<g id="Node000002" class="node">
<title>Node2</title>
<g id="a_Node000002"><a xlink:href="structnix_1_1checked_1_1Checked.html" target="_top" xlink:title=" ">
<polygon fill="white" stroke="#666666" points="440.5,-250.12 316.5,-250.12 316.5,-216.62 440.5,-216.62 440.5,-250.12"/>
<text text-anchor="start" x="324.5" y="-236.62" font-family="Helvetica,sans-Serif" font-size="10.00">nix::checked::Checked</text>
<text text-anchor="middle" x="378.5" y="-223.88" font-family="Helvetica,sans-Serif" font-size="10.00">&lt; int64_t &gt;</text>
</a>
</g>
</g>
<!-- Node2&#45;&gt;Node1 -->
<g id="edge2_Node000001_Node000002" class="edge">
<title>Node2&#45;&gt;Node1</title>
<g id="a_edge2_Node000001_Node000002"><a xlink:title=" ">
<path fill="none" stroke="#9a32cd" stroke-dasharray="5,2" d="M451.95,-221.91C470.25,-216.58 489.01,-208.78 504.25,-197.38 527.59,-179.91 542.69,-147.77 549.34,-131.08"/>
<polygon fill="#9a32cd" stroke="#9a32cd" points="451.17,-218.49 442.42,-224.46 452.98,-225.26 451.17,-218.49"/>
</a>
</g>
<text text-anchor="middle" x="482.5" y="-221.43" font-family="Helvetica,sans-Serif" font-size="10.00" fill="grey"> integer</text>
</g>
<!-- Node3 -->
<g id="Node000003" class="node">
<title>Node3</title>
<g id="a_Node000003"><a xlink:title=" ">
<polygon fill="white" stroke="#bfbfbf" points="176.78,-244.75 147.97,-244.75 147.97,-224 176.78,-224 176.78,-244.75"/>
<text text-anchor="middle" x="162.38" y="-231.25" font-family="Helvetica,sans-Serif" font-size="10.00">T</text>
</a>
</g>
</g>
<!-- Node3&#45;&gt;Node2 -->
<g id="edge3_Node000002_Node000003" class="edge">
<title>Node3&#45;&gt;Node2</title>
<g id="a_edge3_Node000002_Node000003"><a xlink:title=" ">
<path fill="none" stroke="#9a32cd" stroke-dasharray="5,2" d="M188.58,-234.26C219.73,-234.11 273.81,-233.86 316.15,-233.66"/>
<polygon fill="#9a32cd" stroke="#9a32cd" points="188.59,-230.76 178.61,-234.3 188.63,-237.76 188.59,-230.76"/>
</a>
</g>
<text text-anchor="middle" x="256.75" y="-237.36" font-family="Helvetica,sans-Serif" font-size="10.00" fill="grey"> value</text>
</g>
<!-- Node4 -->
<g id="Node000004" class="node">
<title>Node4</title>
<g id="a_Node000004"><a xlink:href="classnix_1_1Bindings.html" target="_top" xlink:title=" ">
<polygon fill="white" stroke="#666666" points="296.25,-180.75 217.25,-180.75 217.25,-160 296.25,-160 296.25,-180.75"/>
<text text-anchor="middle" x="256.75" y="-167.25" font-family="Helvetica,sans-Serif" font-size="10.00">nix::Bindings</text>
</a>
</g>
</g>
<!-- Node4&#45;&gt;Node1 -->
<g id="edge4_Node000001_Node000004" class="edge">
<title>Node4&#45;&gt;Node1</title>
<g id="a_edge4_Node000001_Node000004"><a xlink:title=" ">
<path fill="none" stroke="#9a32cd" stroke-dasharray="5,2" d="M308.04,-172.1C358.73,-172.41 438.65,-168.96 504.25,-148.38 516.59,-144.5 529.23,-137.18 538.58,-130.99"/>
<polygon fill="#9a32cd" stroke="#9a32cd" points="308.3,-168.6 298.26,-171.98 308.22,-175.6 308.3,-168.6"/>
</a>
</g>
<text text-anchor="middle" x="378.5" y="-175.37" font-family="Helvetica,sans-Serif" font-size="10.00" fill="grey"> attrs</text>
</g>
<!-- Node4&#45;&gt;Node4 -->
<g id="edge6_Node000004_Node000004" class="edge">
<title>Node4&#45;&gt;Node4</title>
<g id="a_edge6_Node000004_Node000004"><a xlink:title=" ">
<path fill="none" stroke="#9a32cd" stroke-dasharray="5,2" d="M240.34,-192.56C242.66,-196.23 248.13,-198.75 256.75,-198.75 272.97,-198.75 278.04,-189.81 271.96,-181.15"/>
<polygon fill="#9a32cd" stroke="#9a32cd" points="243.82,-192.96 241.38,-182.65 236.86,-192.23 243.82,-192.96"/>
</a>
</g>
<text text-anchor="middle" x="256.75" y="-202" font-family="Helvetica,sans-Serif" font-size="10.00" fill="grey"> EMPTY</text>
</g>
<!-- Node5 -->
<g id="Node000005" class="node">
<title>Node5</title>
<g id="a_Node000005"><a xlink:href="classnix_1_1PosIdx.html" target="_top" xlink:title=" ">
<polygon fill="white" stroke="#bfbfbf" points="69.25,-161.75 0,-161.75 0,-141 69.25,-141 69.25,-161.75"/>
<text text-anchor="middle" x="34.62" y="-148.25" font-family="Helvetica,sans-Serif" font-size="10.00">nix::PosIdx</text>
</a>
</g>
</g>
<!-- Node5&#45;&gt;Node4 -->
<g id="edge5_Node000004_Node000005" class="edge">
<title>Node5&#45;&gt;Node4</title>
<g id="a_edge5_Node000004_Node000005"><a xlink:title=" ">
<path fill="none" stroke="#9a32cd" stroke-dasharray="5,2" d="M80.86,-155.28C120.97,-158.74 178.94,-163.75 216.98,-167.03"/>
<polygon fill="#9a32cd" stroke="#9a32cd" points="81.31,-151.81 71.05,-154.43 80.71,-158.78 81.31,-151.81"/>
</a>
</g>
<text text-anchor="middle" x="97.38" y="-160.54" font-family="Helvetica,sans-Serif" font-size="10.00" fill="grey"> pos</text>
</g>
<!-- Node7 -->
<g id="Node000007" class="node">
<title>Node7</title>
<g id="a_Node000007"><a xlink:href="structnix_1_1Expr.html" target="_top" xlink:title=" ">
<polygon fill="white" stroke="#bfbfbf" points="191.75,-142.75 133,-142.75 133,-122 191.75,-122 191.75,-142.75"/>
<text text-anchor="middle" x="162.38" y="-129.25" font-family="Helvetica,sans-Serif" font-size="10.00">nix::Expr</text>
</a>
</g>
</g>
<!-- Node5&#45;&gt;Node7 -->
<g id="edge11_Node000007_Node000005" class="edge">
<title>Node5&#45;&gt;Node7</title>
<g id="a_edge11_Node000007_Node000005"><a xlink:title=" ">
<path fill="none" stroke="#9a32cd" stroke-dasharray="5,2" d="M77.61,-137.62C80.85,-136.85 84.09,-136.17 87.25,-135.62 102.1,-133.08 118.86,-132.18 132.68,-131.95"/>
<polygon fill="#9a32cd" stroke="#9a32cd" points="76.94,-134.17 68.18,-140.12 78.74,-140.94 76.94,-134.17"/>
</a>
</g>
<text text-anchor="middle" x="97.38" y="-138.88" font-family="Helvetica,sans-Serif" font-size="10.00" fill="grey"> pos</text>
</g>
<!-- Node6&#45;&gt;Node1 -->
<g id="edge7_Node000001_Node000006" class="edge">
<title>Node6&#45;&gt;Node1</title>
<g id="a_edge7_Node000001_Node000006"><a xlink:title=" ">
<path fill="none" stroke="#9a32cd" stroke-dasharray="5,2" d="M649.2,-105.94C645.96,-105.01 642.7,-104.21 639.5,-103.62 624.09,-100.82 619.7,-101.06 604.25,-103.62 596.8,-104.86 588.96,-107.09 581.8,-109.53"/>
<polygon fill="#9a32cd" stroke="#9a32cd" points="647.94,-109.21 658.53,-109.05 650.15,-102.57 647.94,-109.21"/>
</a>
</g>
<text text-anchor="middle" x="621.88" y="-106.88" font-family="Helvetica,sans-Serif" font-size="10.00" fill="grey"> env</text>
</g>
<!-- Node6&#45;&gt;Node6 -->
<g id="edge8_Node000006_Node000006" class="edge">
<title>Node6&#45;&gt;Node6</title>
<g id="a_edge8_Node000006_Node000006"><a xlink:title=" ">
<path fill="none" stroke="#9a32cd" stroke-dasharray="5,2" d="M674.02,-142.56C675.58,-146.23 679.24,-148.75 685,-148.75 695.85,-148.75 699.24,-139.81 695.17,-131.15"/>
<polygon fill="#9a32cd" stroke="#9a32cd" points="677.51,-142.88 674.72,-132.66 670.53,-142.39 677.51,-142.88"/>
</a>
</g>
<text text-anchor="middle" x="685" y="-152" font-family="Helvetica,sans-Serif" font-size="10.00" fill="grey"> up</text>
</g>
<!-- Node7&#45;&gt;Node1 -->
<g id="edge10_Node000001_Node000007" class="edge">
<title>Node7&#45;&gt;Node1</title>
<g id="a_edge10_Node000001_Node000007"><a xlink:title=" ">
<path fill="none" stroke="#9a32cd" stroke-dasharray="5,2" d="M203.26,-131.15C281.02,-128.75 451.44,-123.51 521.85,-121.34"/>
<polygon fill="#9a32cd" stroke="#9a32cd" points="203.44,-127.64 193.56,-131.45 203.66,-134.64 203.44,-127.64"/>
</a>
</g>
<text text-anchor="middle" x="378.5" y="-130.82" font-family="Helvetica,sans-Serif" font-size="10.00" fill="grey"> expr</text>
</g>
<!-- Node8 -->
<g id="Node000008" class="node">
<title>Node8</title>
<g id="a_Node000008"><a xlink:href="structnix_1_1ExprLambda.html" target="_top" xlink:title=" ">
<polygon fill="white" stroke="#bfbfbf" points="427.38,-98.75 329.62,-98.75 329.62,-78 427.38,-78 427.38,-98.75"/>
<text text-anchor="middle" x="378.5" y="-85.25" font-family="Helvetica,sans-Serif" font-size="10.00">nix::ExprLambda</text>
</a>
</g>
</g>
<!-- Node7&#45;&gt;Node8 -->
<g id="edge13_Node000008_Node000007" class="edge">
<title>Node7&#45;&gt;Node8</title>
<g id="a_edge13_Node000008_Node000007"><a xlink:title=" ">
<path fill="none" stroke="#63b8ff" d="M202.75,-124.28C238.41,-116.96 291.06,-106.14 329.24,-98.29"/>
<polygon fill="#63b8ff" stroke="#63b8ff" points="202.38,-120.79 193.29,-126.23 203.79,-127.64 202.38,-120.79"/>
</a>
</g>
</g>
<!-- Node8&#45;&gt;Node1 -->
<g id="edge12_Node000001_Node000008" class="edge">
<title>Node8&#45;&gt;Node1</title>
<g id="a_edge12_Node000001_Node000008"><a xlink:title=" ">
<path fill="none" stroke="#9a32cd" stroke-dasharray="5,2" d="M438.91,-96.29C459.67,-99.38 483.06,-103.25 504.25,-107.62 510.02,-108.82 516.12,-110.26 521.99,-111.74"/>
<polygon fill="#9a32cd" stroke="#9a32cd" points="439.59,-92.85 429.19,-94.87 438.58,-99.77 439.59,-92.85"/>
</a>
</g>
<text text-anchor="middle" x="482.5" y="-110.88" font-family="Helvetica,sans-Serif" font-size="10.00" fill="grey"> fun</text>
</g>
<!-- Node9 -->
<g id="Node000009" class="node">
<title>Node9</title>
<g id="a_Node000009"><a xlink:href="classnix_1_1Symbol.html" target="_top" xlink:title=" ">
<polygon fill="white" stroke="#666666" points="199.25,-91.75 125.5,-91.75 125.5,-71 199.25,-71 199.25,-91.75"/>
<text text-anchor="middle" x="162.38" y="-78.25" font-family="Helvetica,sans-Serif" font-size="10.00">nix::Symbol</text>
</a>
</g>
</g>
<!-- Node9&#45;&gt;Node8 -->
<g id="edge14_Node000008_Node000009" class="edge">
<title>Node9&#45;&gt;Node8</title>
<g id="a_edge14_Node000008_Node000009"><a xlink:title=" ">
<path fill="none" stroke="#9a32cd" stroke-dasharray="5,2" d="M210.66,-81.12C236.04,-81.16 267.86,-81.49 296.25,-82.62 306.99,-83.06 318.51,-83.74 329.41,-84.48"/>
<polygon fill="#9a32cd" stroke="#9a32cd" points="211,-77.62 201,-81.12 211,-84.62 211,-77.62"/>
</a>
</g>
<text text-anchor="middle" x="256.75" y="-85.88" font-family="Helvetica,sans-Serif" font-size="10.00" fill="grey"> name</text>
</g>
<!-- Node10 -->
<g id="Node000010" class="node">
<title>Node10</title>
<g id="a_Node000010"><a xlink:href="structnix_1_1PrimOp.html" target="_top" xlink:title=" ">
<polygon fill="white" stroke="#666666" points="415,-59.75 342,-59.75 342,-39 415,-39 415,-59.75"/>
<text text-anchor="middle" x="378.5" y="-46.25" font-family="Helvetica,sans-Serif" font-size="10.00">nix::PrimOp</text>
</a>
</g>
</g>
<!-- Node10&#45;&gt;Node1 -->
<g id="edge15_Node000001_Node000010" class="edge">
<title>Node10&#45;&gt;Node1</title>
<g id="a_edge15_Node000001_Node000010"><a xlink:title=" ">
<path fill="none" stroke="#9a32cd" stroke-dasharray="5,2" d="M426.46,-57.89C450.5,-63.32 479.79,-71.64 504.25,-83.62 518.19,-90.46 532.17,-101.45 541.61,-109.64"/>
<polygon fill="#9a32cd" stroke="#9a32cd" points="427.46,-54.52 416.94,-55.84 425.98,-61.36 427.46,-54.52"/>
</a>
</g>
<text text-anchor="middle" x="482.5" y="-86.88" font-family="Helvetica,sans-Serif" font-size="10.00" fill="grey"> primOp</text>
</g>
<!-- Node11 -->
<g id="Node000011" class="node">
<title>Node11</title>
<g id="a_Node000011"><a xlink:title=" ">
<polygon fill="white" stroke="#bfbfbf" points="184.25,-52.75 140.5,-52.75 140.5,-32 184.25,-32 184.25,-52.75"/>
<text text-anchor="middle" x="162.38" y="-39.25" font-family="Helvetica,sans-Serif" font-size="10.00">string</text>
</a>
</g>
</g>
<!-- Node11&#45;&gt;Node10 -->
<g id="edge16_Node000010_Node000011" class="edge">
<title>Node11&#45;&gt;Node10</title>
<g id="a_edge16_Node000010_Node000011"><a xlink:title=" ">
<path fill="none" stroke="#9a32cd" stroke-dasharray="5,2" d="M195.98,-43.44C235.28,-44.73 301.12,-46.88 341.77,-48.21"/>
<polygon fill="#9a32cd" stroke="#9a32cd" points="196.31,-39.95 186.2,-43.12 196.08,-46.95 196.31,-39.95"/>
</a>
</g>
<text text-anchor="middle" x="256.75" y="-49.96" font-family="Helvetica,sans-Serif" font-size="10.00" fill="grey"> name</text>
</g>
<!-- Node12 -->
<g id="Node000012" class="node">
<title>Node12</title>
<g id="a_Node000012"><a xlink:href="classnix_1_1ExternalValueBase.html" target="_top" xlink:title=" ">
<polygon fill="white" stroke="#666666" points="442.75,-20.75 314.25,-20.75 314.25,0 442.75,0 442.75,-20.75"/>
<text text-anchor="middle" x="378.5" y="-7.25" font-family="Helvetica,sans-Serif" font-size="10.00">nix::ExternalValueBase</text>
</a>
</g>
</g>
<!-- Node12&#45;&gt;Node1 -->
<g id="edge17_Node000001_Node000012" class="edge">
<title>Node12&#45;&gt;Node1</title>
<g id="a_edge17_Node000001_Node000012"><a xlink:title=" ">
<path fill="none" stroke="#9a32cd" stroke-dasharray="5,2" d="M450.07,-24.43C468.88,-30.41 488.36,-38.84 504.25,-50.62 525.53,-66.41 541,-94.22 548.39,-109.52"/>
<polygon fill="#9a32cd" stroke="#9a32cd" points="451.14,-21.1 440.56,-21.61 449.15,-27.81 451.14,-21.1"/>
</a>
</g>
<text text-anchor="middle" x="482.5" y="-53.88" font-family="Helvetica,sans-Serif" font-size="10.00" fill="grey"> external</text>
</g>
</g>
</svg>
