<?xml version="1.0" encoding="UTF-8" standalone="no"?>
<!DOCTYPE svg PUBLIC "-//W3C//DTD SVG 1.1//EN"
 "http://www.w3.org/Graphics/SVG/1.1/DTD/svg11.dtd">
<!-- Generated by graphviz version 12.2.1 (0)
 -->
<!-- Title: nix::SQLiteError Pages: 1 -->
<svg width="114pt" height="111pt"
 viewBox="0.00 0.00 113.81 111.00" xmlns="http://www.w3.org/2000/svg" xmlns:xlink="http://www.w3.org/1999/xlink">
<g id="graph0" class="graph" transform="scale(1 1) rotate(0) translate(4 107)">
<title>nix::SQLiteError</title>
<!-- Node1 -->
<g id="Node000001" class="node">
<title>Node1</title>
<g id="a_Node000001"><a xlink:title=" ">
<polygon fill="#999999" stroke="#666666" points="95.5,-20.75 3.75,-20.75 3.75,0 95.5,0 95.5,-20.75"/>
<text text-anchor="middle" x="49.62" y="-7.25" font-family="Helvetica,sans-Serif" font-size="10.00">nix::SQLiteError</text>
</a>
</g>
</g>
<!-- Node2 -->
<g id="Node000002" class="node">
<title>Node2</title>
<g id="a_Node000002"><a xlink:title=" ">
<polygon fill="white" stroke="#bfbfbf" points="39.25,-103 0,-103 0,-82.25 39.25,-82.25 39.25,-103"/>
<text text-anchor="middle" x="19.62" y="-89.5" font-family="Helvetica,sans-Serif" font-size="10.00">Error</text>
</a>
</g>
</g>
<!-- Node2&#45;&gt;Node1 -->
<g id="edge1_Node000001_Node000002" class="edge">
<title>Node2&#45;&gt;Node1</title>
<g id="a_edge1_Node000001_Node000002"><a xlink:title=" ">
<path fill="none" stroke="#63b8ff" d="M27.25,-71.22C33.31,-55.02 41.5,-33.11 46.1,-20.8"/>
<polygon fill="#63b8ff" stroke="#63b8ff" points="24.06,-69.77 23.83,-80.37 30.61,-72.23 24.06,-69.77"/>
</a>
</g>
</g>
<!-- Node3 -->
<g id="Node000003" class="node">
<title>Node3</title>
<g id="a_Node000003"><a xlink:title=" ">
<polygon fill="white" stroke="#bfbfbf" points="101.5,-103 57.75,-103 57.75,-82.25 101.5,-82.25 101.5,-103"/>
<text text-anchor="middle" x="79.62" y="-89.5" font-family="Helvetica,sans-Serif" font-size="10.00">string</text>
</a>
</g>
</g>
<!-- Node3&#45;&gt;Node1 -->
<g id="edge2_Node000001_Node000003" class="edge">
<title>Node3&#45;&gt;Node1</title>
<g id="a_edge2_Node000001_Node000003"><a xlink:title=" ">
<path fill="none" stroke="#9a32cd" stroke-dasharray="5,2" d="M72,-71.22C65.94,-55.02 57.75,-33.11 53.15,-20.8"/>
<polygon fill="#9a32cd" stroke="#9a32cd" points="68.64,-72.23 75.42,-80.37 75.19,-69.77 68.64,-72.23"/>
</a>
</g>
<text text-anchor="middle" x="87.44" y="-54.75" font-family="Helvetica,sans-Serif" font-size="10.00" fill="grey"> errMsg</text>
<text text-anchor="middle" x="87.44" y="-42" font-family="Helvetica,sans-Serif" font-size="10.00" fill="grey">path</text>
</g>
</g>
</svg>
