<?xml version="1.0" encoding="UTF-8" standalone="no"?>
<!DOCTYPE svg PUBLIC "-//W3C//DTD SVG 1.1//EN"
 "http://www.w3.org/Graphics/SVG/1.1/DTD/svg11.dtd">
<!-- Generated by graphviz version 12.2.1 (0)
 -->
<!-- Title: nix::CmdFlakeInfo Pages: 1 -->
<svg width="695pt" height="476pt"
 viewBox="0.00 0.00 694.88 476.25" xmlns="http://www.w3.org/2000/svg" xmlns:xlink="http://www.w3.org/1999/xlink">
<g id="graph0" class="graph" transform="scale(1 1) rotate(0) translate(4 472.25)">
<title>nix::CmdFlakeInfo</title>
<!-- Node1 -->
<g id="Node000001" class="node">
<title>Node1</title>
<g id="a_Node000001"><a xlink:title=" ">
<polygon fill="#999999" stroke="#666666" points="604.12,-20.75 499.62,-20.75 499.62,0 604.12,0 604.12,-20.75"/>
<text text-anchor="middle" x="551.88" y="-7.25" font-family="Helvetica,sans-Serif" font-size="10.00">nix::CmdFlakeInfo</text>
</a>
</g>
</g>
<!-- Node2 -->
<g id="Node000002" class="node">
<title>Node2</title>
<g id="a_Node000002"><a xlink:href="structnix_1_1CmdFlakeMetadata.html" target="_top" xlink:title=" ">
<polygon fill="white" stroke="#bfbfbf" points="618,-78.5 485.75,-78.5 485.75,-57.75 618,-57.75 618,-78.5"/>
<text text-anchor="middle" x="551.88" y="-65" font-family="Helvetica,sans-Serif" font-size="10.00">nix::CmdFlakeMetadata</text>
</a>
</g>
</g>
<!-- Node2&#45;&gt;Node1 -->
<g id="edge1_Node000001_Node000002" class="edge">
<title>Node2&#45;&gt;Node1</title>
<g id="a_edge1_Node000001_Node000002"><a xlink:title=" ">
<path fill="none" stroke="#63b8ff" d="M551.88,-46.18C551.88,-37.52 551.88,-27.9 551.88,-20.97"/>
<polygon fill="#63b8ff" stroke="#63b8ff" points="548.38,-45.9 551.88,-55.9 555.38,-45.9 548.38,-45.9"/>
</a>
</g>
</g>
<!-- Node3 -->
<g id="Node000003" class="node">
<title>Node3</title>
<g id="a_Node000003"><a xlink:href="classnix_1_1FlakeCommand.html" target="_top" xlink:title=" ">
<polygon fill="white" stroke="#bfbfbf" points="320.62,-136.25 207.12,-136.25 207.12,-115.5 320.62,-115.5 320.62,-136.25"/>
<text text-anchor="middle" x="263.88" y="-122.75" font-family="Helvetica,sans-Serif" font-size="10.00">nix::FlakeCommand</text>
</a>
</g>
</g>
<!-- Node3&#45;&gt;Node2 -->
<g id="edge2_Node000002_Node000003" class="edge">
<title>Node3&#45;&gt;Node2</title>
<g id="a_edge2_Node000002_Node000003"><a xlink:title=" ">
<path fill="none" stroke="#63b8ff" d="M325.85,-112.88C378.18,-102.75 452.19,-88.42 501.07,-78.96"/>
<polygon fill="#63b8ff" stroke="#63b8ff" points="325.34,-109.41 316.19,-114.75 326.67,-116.28 325.34,-109.41"/>
</a>
</g>
</g>
<!-- Node4 -->
<g id="Node000004" class="node">
<title>Node4</title>
<g id="a_Node000004"><a xlink:href="classnix_1_1Args.html" target="_top" xlink:title=" ">
<polygon fill="white" stroke="#bfbfbf" points="431.25,-468.25 372.5,-468.25 372.5,-447.5 431.25,-447.5 431.25,-468.25"/>
<text text-anchor="middle" x="401.88" y="-454.75" font-family="Helvetica,sans-Serif" font-size="10.00">nix::Args</text>
</a>
</g>
</g>
<!-- Node4&#45;&gt;Node3 -->
<g id="edge3_Node000003_Node000004" class="edge">
<title>Node4&#45;&gt;Node3</title>
<g id="a_edge3_Node000003_Node000004"><a xlink:title=" ">
<path fill="none" stroke="#63b8ff" d="M360.97,-454.05C273.85,-447.48 77.88,-429.53 77.88,-401.12 77.88,-401.12 77.88,-401.12 77.88,-194.38 77.88,-166.59 152.13,-146.97 206.8,-136.29"/>
<polygon fill="#63b8ff" stroke="#63b8ff" points="360.52,-457.52 370.75,-454.77 361.04,-450.54 360.52,-457.52"/>
</a>
</g>
</g>
<!-- Node6 -->
<g id="Node000006" class="node">
<title>Node6</title>
<g id="a_Node000006"><a xlink:href="structnix_1_1Command.html" target="_top" xlink:title=" ">
<polygon fill="white" stroke="#666666" points="445.5,-410.5 358.25,-410.5 358.25,-389.75 445.5,-389.75 445.5,-410.5"/>
<text text-anchor="middle" x="401.88" y="-397" font-family="Helvetica,sans-Serif" font-size="10.00">nix::Command</text>
</a>
</g>
</g>
<!-- Node4&#45;&gt;Node6 -->
<g id="edge6_Node000006_Node000004" class="edge">
<title>Node4&#45;&gt;Node6</title>
<g id="a_edge6_Node000006_Node000004"><a xlink:title=" ">
<path fill="none" stroke="#63b8ff" d="M401.88,-435.93C401.88,-427.27 401.88,-417.65 401.88,-410.72"/>
<polygon fill="#63b8ff" stroke="#63b8ff" points="398.38,-435.65 401.88,-445.65 405.38,-435.65 398.38,-435.65"/>
</a>
</g>
</g>
<!-- Node7 -->
<g id="Node000007" class="node">
<title>Node7</title>
<g id="a_Node000007"><a xlink:href="structnix_1_1MixFlakeOptions.html" target="_top" xlink:title=" ">
<polygon fill="white" stroke="#666666" points="506.25,-205.75 387.5,-205.75 387.5,-185 506.25,-185 506.25,-205.75"/>
<text text-anchor="middle" x="446.88" y="-192.25" font-family="Helvetica,sans-Serif" font-size="10.00">nix::MixFlakeOptions</text>
</a>
</g>
</g>
<!-- Node4&#45;&gt;Node7 -->
<g id="edge8_Node000007_Node000004" class="edge">
<title>Node4&#45;&gt;Node7</title>
<g id="a_edge8_Node000007_Node000004"><a xlink:title=" ">
<path fill="none" stroke="#63b8ff" d="M442.3,-445.98C462.05,-438.81 484.76,-427.52 499.88,-410.5 524,-383.34 520.02,-368.86 525.88,-333 534.62,-279.46 482.58,-227.01 458.55,-205.99"/>
<polygon fill="#63b8ff" stroke="#63b8ff" points="441.2,-442.66 432.83,-449.17 443.43,-449.3 441.2,-442.66"/>
</a>
</g>
</g>
<!-- Node10 -->
<g id="Node000010" class="node">
<title>Node10</title>
<g id="a_Node000010"><a xlink:href="structnix_1_1MixEvalArgs.html" target="_top" xlink:title=" ">
<polygon fill="white" stroke="#bfbfbf" points="256.75,-333 159,-333 159,-312.25 256.75,-312.25 256.75,-333"/>
<text text-anchor="middle" x="207.88" y="-319.5" font-family="Helvetica,sans-Serif" font-size="10.00">nix::MixEvalArgs</text>
</a>
</g>
</g>
<!-- Node4&#45;&gt;Node10 -->
<g id="edge13_Node000010_Node000004" class="edge">
<title>Node4&#45;&gt;Node10</title>
<g id="a_edge13_Node000010_Node000004"><a xlink:title=" ">
<path fill="none" stroke="#63b8ff" d="M361.05,-454.35C326.33,-450.17 277.1,-439.2 244.88,-410.5 221.37,-389.56 212.31,-351.16 209.25,-333.27"/>
<polygon fill="#63b8ff" stroke="#63b8ff" points="360.41,-457.8 370.72,-455.36 361.14,-450.84 360.41,-457.8"/>
</a>
</g>
</g>
<!-- Node11 -->
<g id="Node000011" class="node">
<title>Node11</title>
<g id="a_Node000011"><a xlink:href="structnix_1_1MixRepair.html" target="_top" xlink:title=" ">
<polygon fill="white" stroke="#bfbfbf" points="340.12,-410.5 253.62,-410.5 253.62,-389.75 340.12,-389.75 340.12,-410.5"/>
<text text-anchor="middle" x="296.88" y="-397" font-family="Helvetica,sans-Serif" font-size="10.00">nix::MixRepair</text>
</a>
</g>
</g>
<!-- Node4&#45;&gt;Node11 -->
<g id="edge15_Node000011_Node000004" class="edge">
<title>Node4&#45;&gt;Node11</title>
<g id="a_edge15_Node000011_Node000004"><a xlink:title=" ">
<path fill="none" stroke="#63b8ff" d="M373.64,-441.88C355.12,-432.05 331.44,-419.48 315.31,-410.91"/>
<polygon fill="#63b8ff" stroke="#63b8ff" points="371.78,-444.86 382.25,-446.45 375.06,-438.67 371.78,-444.86"/>
</a>
</g>
</g>
<!-- Node15 -->
<g id="Node000015" class="node">
<title>Node15</title>
<g id="a_Node000015"><a xlink:href="structnix_1_1MixJSON.html" target="_top" xlink:title=" ">
<polygon fill="white" stroke="#bfbfbf" points="668.38,-371.75 589.38,-371.75 589.38,-351 668.38,-351 668.38,-371.75"/>
<text text-anchor="middle" x="628.88" y="-358.25" font-family="Helvetica,sans-Serif" font-size="10.00">nix::MixJSON</text>
</a>
</g>
</g>
<!-- Node4&#45;&gt;Node15 -->
<g id="edge20_Node000015_Node000004" class="edge">
<title>Node4&#45;&gt;Node15</title>
<g id="a_edge20_Node000015_Node000004"><a xlink:title=" ">
<path fill="none" stroke="#63b8ff" d="M443.02,-456.22C475.95,-454.2 522.49,-447.92 558.88,-429.5 586.37,-415.59 610.32,-387.26 621.75,-372.24"/>
<polygon fill="#63b8ff" stroke="#63b8ff" points="442.87,-452.72 433.06,-456.71 443.22,-459.71 442.87,-452.72"/>
</a>
</g>
</g>
<!-- Node5 -->
<g id="Node000005" class="node">
<title>Node5</title>
<g id="a_Node000005"><a xlink:href="classnix_1_1MultiCommand.html" target="_top" xlink:title=" ">
<polygon fill="white" stroke="#666666" points="516.88,-333 404.88,-333 404.88,-312.25 516.88,-312.25 516.88,-333"/>
<text text-anchor="middle" x="460.88" y="-319.5" font-family="Helvetica,sans-Serif" font-size="10.00">nix::MultiCommand</text>
</a>
</g>
</g>
<!-- Node5&#45;&gt;Node4 -->
<g id="edge4_Node000004_Node000005" class="edge">
<title>Node5&#45;&gt;Node4</title>
<g id="a_edge4_Node000004_Node000005"><a xlink:title=" ">
<path fill="none" stroke="#9a32cd" stroke-dasharray="5,2" d="M463.76,-344.79C465.29,-363.14 465.09,-389.91 454.88,-410.5 447.05,-426.27 431.26,-438.97 418.94,-447.07"/>
<polygon fill="#9a32cd" stroke="#9a32cd" points="467.25,-344.43 462.67,-334.87 460.29,-345.2 467.25,-344.43"/>
</a>
</g>
<text text-anchor="middle" x="478.83" y="-397" font-family="Helvetica,sans-Serif" font-size="10.00" fill="grey"> parent</text>
</g>
<!-- Node6&#45;&gt;Node5 -->
<g id="edge5_Node000005_Node000006" class="edge">
<title>Node6&#45;&gt;Node5</title>
<g id="a_edge5_Node000005_Node000006"><a xlink:title=" ">
<path fill="none" stroke="#63b8ff" d="M416.55,-380.35C428.23,-365.4 444.11,-345.08 453.35,-333.26"/>
<polygon fill="#63b8ff" stroke="#63b8ff" points="413.92,-378.03 410.52,-388.06 419.44,-382.34 413.92,-378.03"/>
</a>
</g>
</g>
<!-- Node9 -->
<g id="Node000009" class="node">
<title>Node9</title>
<g id="a_Node000009"><a xlink:href="structnix_1_1StoreCommand.html" target="_top" xlink:title=" ">
<polygon fill="white" stroke="#666666" points="387.25,-333 274.5,-333 274.5,-312.25 387.25,-312.25 387.25,-333"/>
<text text-anchor="middle" x="330.88" y="-319.5" font-family="Helvetica,sans-Serif" font-size="10.00">nix::StoreCommand</text>
</a>
</g>
</g>
<!-- Node6&#45;&gt;Node9 -->
<g id="edge11_Node000009_Node000006" class="edge">
<title>Node6&#45;&gt;Node9</title>
<g id="a_edge11_Node000009_Node000006"><a xlink:title=" ">
<path fill="none" stroke="#63b8ff" d="M385.02,-381.2C370.89,-366.17 351.26,-345.31 339.93,-333.26"/>
<polygon fill="#63b8ff" stroke="#63b8ff" points="382.16,-383.26 391.56,-388.15 387.26,-378.47 382.16,-383.26"/>
</a>
</g>
</g>
<!-- Node7&#45;&gt;Node3 -->
<g id="edge7_Node000003_Node000007" class="edge">
<title>Node7&#45;&gt;Node3</title>
<g id="a_edge7_Node000003_Node000007"><a xlink:title=" ">
<path fill="none" stroke="#63b8ff" d="M409.87,-180.73C374.48,-167.67 321.97,-148.3 290.52,-136.7"/>
<polygon fill="#63b8ff" stroke="#63b8ff" points="408.25,-183.86 418.85,-184.04 410.67,-177.29 408.25,-183.86"/>
</a>
</g>
</g>
<!-- Node8 -->
<g id="Node000008" class="node">
<title>Node8</title>
<g id="a_Node000008"><a xlink:href="structnix_1_1EvalCommand.html" target="_top" xlink:title=" ">
<polygon fill="white" stroke="#666666" points="385,-275.25 276.75,-275.25 276.75,-254.5 385,-254.5 385,-275.25"/>
<text text-anchor="middle" x="330.88" y="-261.75" font-family="Helvetica,sans-Serif" font-size="10.00">nix::EvalCommand</text>
</a>
</g>
</g>
<!-- Node8&#45;&gt;Node7 -->
<g id="edge9_Node000007_Node000008" class="edge">
<title>Node8&#45;&gt;Node7</title>
<g id="a_edge9_Node000007_Node000008"><a xlink:title=" ">
<path fill="none" stroke="#63b8ff" d="M357.33,-248.48C379.61,-235.51 410.83,-217.35 429.91,-206.25"/>
<polygon fill="#63b8ff" stroke="#63b8ff" points="355.69,-245.39 348.8,-253.44 359.21,-251.44 355.69,-245.39"/>
</a>
</g>
</g>
<!-- Node9&#45;&gt;Node8 -->
<g id="edge10_Node000008_Node000009" class="edge">
<title>Node9&#45;&gt;Node8</title>
<g id="a_edge10_Node000008_Node000009"><a xlink:title=" ">
<path fill="none" stroke="#63b8ff" d="M330.88,-300.68C330.88,-292.02 330.88,-282.4 330.88,-275.47"/>
<polygon fill="#63b8ff" stroke="#63b8ff" points="327.38,-300.4 330.88,-310.4 334.38,-300.4 327.38,-300.4"/>
</a>
</g>
</g>
<!-- Node10&#45;&gt;Node8 -->
<g id="edge12_Node000008_Node000010" class="edge">
<title>Node10&#45;&gt;Node8</title>
<g id="a_edge12_Node000008_Node000010"><a xlink:title=" ">
<path fill="none" stroke="#63b8ff" d="M240.03,-307.05C261.9,-297.14 290.22,-284.3 309.39,-275.62"/>
<polygon fill="#63b8ff" stroke="#63b8ff" points="238.62,-303.85 230.96,-311.16 241.51,-310.22 238.62,-303.85"/>
</a>
</g>
</g>
<!-- Node11&#45;&gt;Node10 -->
<g id="edge14_Node000010_Node000011" class="edge">
<title>Node11&#45;&gt;Node10</title>
<g id="a_edge14_Node000010_Node000011"><a xlink:title=" ">
<path fill="none" stroke="#63b8ff" d="M276.78,-382.08C259.12,-367.1 234.04,-345.82 219.51,-333.5"/>
<polygon fill="#63b8ff" stroke="#63b8ff" points="274.2,-384.48 284.09,-388.28 278.72,-379.14 274.2,-384.48"/>
</a>
</g>
</g>
<!-- Node12 -->
<g id="Node000012" class="node">
<title>Node12</title>
<g id="a_Node000012"><a xlink:href="structnix_1_1SearchPath.html" target="_top" xlink:title=" ">
<polygon fill="white" stroke="#666666" points="197.38,-410.5 106.38,-410.5 106.38,-389.75 197.38,-389.75 197.38,-410.5"/>
<text text-anchor="middle" x="151.88" y="-397" font-family="Helvetica,sans-Serif" font-size="10.00">nix::SearchPath</text>
</a>
</g>
</g>
<!-- Node12&#45;&gt;Node10 -->
<g id="edge16_Node000010_Node000012" class="edge">
<title>Node12&#45;&gt;Node10</title>
<g id="a_edge16_Node000010_Node000012"><a xlink:title=" ">
<path fill="none" stroke="#9a32cd" stroke-dasharray="5,2" d="M149.2,-378.19C149.08,-369.16 150.42,-358.89 155.62,-351 160.76,-343.22 168.84,-337.51 177.13,-333.39"/>
<polygon fill="#9a32cd" stroke="#9a32cd" points="145.69,-378.18 149.93,-387.88 152.67,-377.65 145.69,-378.18"/>
</a>
</g>
<text text-anchor="middle" x="183.75" y="-358.25" font-family="Helvetica,sans-Serif" font-size="10.00" fill="grey"> searchPath</text>
</g>
<!-- Node13 -->
<g id="Node000013" class="node">
<title>Node13</title>
<g id="a_Node000013"><a xlink:href="structnix_1_1flake_1_1LockFlags.html" target="_top" xlink:title=" ">
<polygon fill="white" stroke="#bfbfbf" points="658.38,-275.25 543.38,-275.25 543.38,-254.5 658.38,-254.5 658.38,-275.25"/>
<text text-anchor="middle" x="600.88" y="-261.75" font-family="Helvetica,sans-Serif" font-size="10.00">nix::flake::LockFlags</text>
</a>
</g>
</g>
<!-- Node13&#45;&gt;Node7 -->
<g id="edge17_Node000007_Node000013" class="edge">
<title>Node13&#45;&gt;Node7</title>
<g id="a_edge17_Node000007_Node000013"><a xlink:title=" ">
<path fill="none" stroke="#9a32cd" stroke-dasharray="5,2" d="M575.71,-248.33C562.15,-240.35 544.94,-230.84 528.88,-223.75 513.49,-216.97 495.88,-210.88 480.92,-206.18"/>
<polygon fill="#9a32cd" stroke="#9a32cd" points="573.62,-251.16 584,-253.3 577.22,-245.15 573.62,-251.16"/>
</a>
</g>
<text text-anchor="middle" x="578.02" y="-227" font-family="Helvetica,sans-Serif" font-size="10.00" fill="grey"> lockFlags</text>
</g>
<!-- Node14 -->
<g id="Node000014" class="node">
<title>Node14</title>
<g id="a_Node000014"><a xlink:title=" ">
<polygon fill="white" stroke="#bfbfbf" points="43.75,-205.75 0,-205.75 0,-185 43.75,-185 43.75,-205.75"/>
<text text-anchor="middle" x="21.88" y="-192.25" font-family="Helvetica,sans-Serif" font-size="10.00">string</text>
</a>
</g>
</g>
<!-- Node14&#45;&gt;Node3 -->
<g id="edge18_Node000003_Node000014" class="edge">
<title>Node14&#45;&gt;Node3</title>
<g id="a_edge18_Node000003_Node000014"><a xlink:title=" ">
<path fill="none" stroke="#9a32cd" stroke-dasharray="5,2" d="M17.59,-173.53C17.37,-166.6 18.64,-159.36 23.38,-154.25 35.64,-141.02 139.7,-133.22 206.86,-129.52"/>
<polygon fill="#9a32cd" stroke="#9a32cd" points="14.1,-173.83 18.88,-183.29 21.04,-172.92 14.1,-173.83"/>
</a>
</g>
<text text-anchor="middle" x="43.62" y="-157.5" font-family="Helvetica,sans-Serif" font-size="10.00" fill="grey"> flakeUrl</text>
</g>
<!-- Node15&#45;&gt;Node2 -->
<g id="edge19_Node000002_Node000015" class="edge">
<title>Node15&#45;&gt;Node2</title>
<g id="a_edge19_Node000002_Node000015"><a xlink:title=" ">
<path fill="none" stroke="#63b8ff" d="M655.22,-344.05C670.55,-332.33 686.88,-314.99 686.88,-294.25 686.88,-294.25 686.88,-294.25 686.88,-124.88 686.88,-92.04 652.33,-78.16 618.19,-72.46"/>
<polygon fill="#63b8ff" stroke="#63b8ff" points="653.34,-341.09 647.2,-349.72 657.39,-346.81 653.34,-341.09"/>
</a>
</g>
</g>
</g>
</svg>
