<?xml version="1.0" encoding="UTF-8" standalone="no"?>
<!DOCTYPE svg PUBLIC "-//W3C//DTD SVG 1.1//EN"
 "http://www.w3.org/Graphics/SVG/1.1/DTD/svg11.dtd">
<!-- Generated by graphviz version 12.2.1 (0)
 -->
<!-- Title: nix::CmdLsStore Pages: 1 -->
<svg width="271pt" height="349pt"
 viewBox="0.00 0.00 271.25 349.00" xmlns="http://www.w3.org/2000/svg" xmlns:xlink="http://www.w3.org/1999/xlink">
<g id="graph0" class="graph" transform="scale(1 1) rotate(0) translate(4 345)">
<title>nix::CmdLsStore</title>
<!-- Node1 -->
<g id="Node000001" class="node">
<title>Node1</title>
<g id="a_Node000001"><a xlink:title=" ">
<polygon fill="#999999" stroke="#666666" points="116.12,-20.75 20.62,-20.75 20.62,0 116.12,0 116.12,-20.75"/>
<text text-anchor="middle" x="68.38" y="-7.25" font-family="Helvetica,sans-Serif" font-size="10.00">nix::CmdLsStore</text>
</a>
</g>
</g>
<!-- Node2 -->
<g id="Node000002" class="node">
<title>Node2</title>
<g id="a_Node000002"><a xlink:href="structnix_1_1StoreCommand.html" target="_top" xlink:title=" ">
<polygon fill="white" stroke="#666666" points="112.75,-244.5 0,-244.5 0,-223.75 112.75,-223.75 112.75,-244.5"/>
<text text-anchor="middle" x="56.38" y="-231" font-family="Helvetica,sans-Serif" font-size="10.00">nix::StoreCommand</text>
</a>
</g>
</g>
<!-- Node2&#45;&gt;Node1 -->
<g id="edge1_Node000001_Node000002" class="edge">
<title>Node2&#45;&gt;Node1</title>
<g id="a_edge1_Node000001_Node000002"><a xlink:title=" ">
<path fill="none" stroke="#63b8ff" d="M56.38,-211.83C56.38,-198.87 56.38,-181.98 56.38,-167 56.38,-167 56.38,-167 56.38,-67.12 56.38,-50.69 61.42,-32.13 64.97,-21.11"/>
<polygon fill="#63b8ff" stroke="#63b8ff" points="52.88,-211.75 56.38,-221.75 59.88,-211.75 52.88,-211.75"/>
</a>
</g>
</g>
<!-- Node3 -->
<g id="Node000003" class="node">
<title>Node3</title>
<g id="a_Node000003"><a xlink:href="structnix_1_1Command.html" target="_top" xlink:title=" ">
<polygon fill="white" stroke="#666666" points="184,-341 96.75,-341 96.75,-320.25 184,-320.25 184,-341"/>
<text text-anchor="middle" x="140.38" y="-327.5" font-family="Helvetica,sans-Serif" font-size="10.00">nix::Command</text>
</a>
</g>
</g>
<!-- Node3&#45;&gt;Node2 -->
<g id="edge2_Node000002_Node000003" class="edge">
<title>Node3&#45;&gt;Node2</title>
<g id="a_edge2_Node000002_Node000003"><a xlink:title=" ">
<path fill="none" stroke="#63b8ff" d="M111.43,-314.06C98.97,-306.19 85.08,-295.66 75.38,-283.25 66.3,-271.64 61.06,-255.16 58.46,-244.81"/>
<polygon fill="#63b8ff" stroke="#63b8ff" points="109.32,-316.88 119.7,-319.02 112.92,-310.88 109.32,-316.88"/>
</a>
</g>
</g>
<!-- Node5 -->
<g id="Node000005" class="node">
<title>Node5</title>
<g id="a_Node000005"><a xlink:href="classnix_1_1MultiCommand.html" target="_top" xlink:title=" ">
<polygon fill="white" stroke="#666666" points="196.38,-283.25 84.38,-283.25 84.38,-262.5 196.38,-262.5 196.38,-283.25"/>
<text text-anchor="middle" x="140.38" y="-269.75" font-family="Helvetica,sans-Serif" font-size="10.00">nix::MultiCommand</text>
</a>
</g>
</g>
<!-- Node3&#45;&gt;Node5 -->
<g id="edge5_Node000005_Node000003" class="edge">
<title>Node3&#45;&gt;Node5</title>
<g id="a_edge5_Node000005_Node000003"><a xlink:title=" ">
<path fill="none" stroke="#63b8ff" d="M140.38,-308.68C140.38,-300.02 140.38,-290.4 140.38,-283.47"/>
<polygon fill="#63b8ff" stroke="#63b8ff" points="136.88,-308.4 140.38,-318.4 143.88,-308.4 136.88,-308.4"/>
</a>
</g>
</g>
<!-- Node4 -->
<g id="Node000004" class="node">
<title>Node4</title>
<g id="a_Node000004"><a xlink:href="classnix_1_1Args.html" target="_top" xlink:title=" ">
<polygon fill="white" stroke="#bfbfbf" points="183.75,-205.75 125,-205.75 125,-185 183.75,-185 183.75,-205.75"/>
<text text-anchor="middle" x="154.38" y="-192.25" font-family="Helvetica,sans-Serif" font-size="10.00">nix::Args</text>
</a>
</g>
</g>
<!-- Node4&#45;&gt;Node3 -->
<g id="edge3_Node000003_Node000004" class="edge">
<title>Node4&#45;&gt;Node3</title>
<g id="a_edge3_Node000003_Node000004"><a xlink:title=" ">
<path fill="none" stroke="#63b8ff" d="M177.59,-213.36C181.13,-216.57 184.54,-220.07 187.38,-223.75 204.24,-245.63 218.02,-258.69 205.38,-283.25 196.68,-300.13 178.68,-312.23 163.82,-319.82"/>
<polygon fill="#63b8ff" stroke="#63b8ff" points="179.9,-210.72 169.96,-207.06 175.44,-216.12 179.9,-210.72"/>
</a>
</g>
</g>
<!-- Node6 -->
<g id="Node000006" class="node">
<title>Node6</title>
<g id="a_Node000006"><a xlink:href="structnix_1_1MixLs.html" target="_top" xlink:title=" ">
<polygon fill="white" stroke="#bfbfbf" points="162.12,-78.5 96.62,-78.5 96.62,-57.75 162.12,-57.75 162.12,-78.5"/>
<text text-anchor="middle" x="129.38" y="-65" font-family="Helvetica,sans-Serif" font-size="10.00">nix::MixLs</text>
</a>
</g>
</g>
<!-- Node4&#45;&gt;Node6 -->
<g id="edge7_Node000006_Node000004" class="edge">
<title>Node4&#45;&gt;Node6</title>
<g id="a_edge7_Node000006_Node000004"><a xlink:title=" ">
<path fill="none" stroke="#63b8ff" d="M133.38,-176.83C125.53,-168.93 117.51,-158.92 113.38,-148 104.32,-124.09 116.39,-94.06 124.01,-78.87"/>
<polygon fill="#63b8ff" stroke="#63b8ff" points="130.83,-179.24 140.54,-183.49 135.6,-174.12 130.83,-179.24"/>
</a>
</g>
</g>
<!-- Node7 -->
<g id="Node000007" class="node">
<title>Node7</title>
<g id="a_Node000007"><a xlink:href="structnix_1_1MixJSON.html" target="_top" xlink:title=" ">
<polygon fill="white" stroke="#bfbfbf" points="201.88,-148 122.88,-148 122.88,-127.25 201.88,-127.25 201.88,-148"/>
<text text-anchor="middle" x="162.38" y="-134.5" font-family="Helvetica,sans-Serif" font-size="10.00">nix::MixJSON</text>
</a>
</g>
</g>
<!-- Node4&#45;&gt;Node7 -->
<g id="edge9_Node000007_Node000004" class="edge">
<title>Node4&#45;&gt;Node7</title>
<g id="a_edge9_Node000007_Node000004"><a xlink:title=" ">
<path fill="none" stroke="#63b8ff" d="M157.38,-173.43C158.62,-164.77 160,-155.15 161,-148.22"/>
<polygon fill="#63b8ff" stroke="#63b8ff" points="153.94,-172.77 155.98,-183.17 160.87,-173.76 153.94,-172.77"/>
</a>
</g>
</g>
<!-- Node5&#45;&gt;Node4 -->
<g id="edge4_Node000004_Node000005" class="edge">
<title>Node5&#45;&gt;Node4</title>
<g id="a_edge4_Node000004_Node000005"><a xlink:title=" ">
<path fill="none" stroke="#9a32cd" stroke-dasharray="5,2" d="M144.26,-250.93C146.98,-236.23 150.5,-217.27 152.59,-206.01"/>
<polygon fill="#9a32cd" stroke="#9a32cd" points="140.86,-250.05 142.48,-260.52 147.75,-251.32 140.86,-250.05"/>
</a>
</g>
<text text-anchor="middle" x="166.29" y="-231" font-family="Helvetica,sans-Serif" font-size="10.00" fill="grey"> parent</text>
</g>
<!-- Node6&#45;&gt;Node1 -->
<g id="edge6_Node000001_Node000006" class="edge">
<title>Node6&#45;&gt;Node1</title>
<g id="a_edge6_Node000001_Node000006"><a xlink:title=" ">
<path fill="none" stroke="#63b8ff" d="M110.31,-49.7C99.94,-40.22 87.5,-28.86 78.88,-20.97"/>
<polygon fill="#63b8ff" stroke="#63b8ff" points="107.89,-52.23 117.63,-56.39 112.61,-47.06 107.89,-52.23"/>
</a>
</g>
</g>
<!-- Node7&#45;&gt;Node6 -->
<g id="edge8_Node000006_Node000007" class="edge">
<title>Node7&#45;&gt;Node6</title>
<g id="a_edge8_Node000006_Node000007"><a xlink:title=" ">
<path fill="none" stroke="#63b8ff" d="M152.76,-116.97C146.63,-104.42 138.94,-88.7 134.09,-78.78"/>
<polygon fill="#63b8ff" stroke="#63b8ff" points="149.45,-118.15 156.98,-125.59 155.73,-115.07 149.45,-118.15"/>
</a>
</g>
</g>
<!-- Node8 -->
<g id="Node000008" class="node">
<title>Node8</title>
<g id="a_Node000008"><a xlink:title=" ">
<polygon fill="white" stroke="#bfbfbf" points="263.25,-148 219.5,-148 219.5,-127.25 263.25,-127.25 263.25,-148"/>
<text text-anchor="middle" x="241.38" y="-134.5" font-family="Helvetica,sans-Serif" font-size="10.00">string</text>
</a>
</g>
</g>
<!-- Node8&#45;&gt;Node6 -->
<g id="edge10_Node000006_Node000008" class="edge">
<title>Node8&#45;&gt;Node6</title>
<g id="a_edge10_Node000006_Node000008"><a xlink:title=" ">
<path fill="none" stroke="#9a32cd" stroke-dasharray="5,2" d="M215.54,-121.06C194.04,-108.1 164.09,-90.05 145.76,-79"/>
<polygon fill="#9a32cd" stroke="#9a32cd" points="213.66,-124.01 224.03,-126.17 217.27,-118.01 213.66,-124.01"/>
</a>
</g>
<text text-anchor="middle" x="207.78" y="-99.75" font-family="Helvetica,sans-Serif" font-size="10.00" fill="grey"> path</text>
</g>
</g>
</svg>
