<?xml version="1.0" encoding="UTF-8" standalone="no"?>
<!DOCTYPE svg PUBLIC "-//W3C//DTD SVG 1.1//EN"
 "http://www.w3.org/Graphics/SVG/1.1/DTD/svg11.dtd">
<!-- Generated by graphviz version 12.2.1 (0)
 -->
<!-- Title: nix::UnkeyedValidPathInfo Pages: 1 -->
<svg width="169pt" height="98pt"
 viewBox="0.00 0.00 169.12 98.25" xmlns="http://www.w3.org/2000/svg" xmlns:xlink="http://www.w3.org/1999/xlink">
<g id="graph0" class="graph" transform="scale(1 1) rotate(0) translate(4 94.25)">
<title>nix::UnkeyedValidPathInfo</title>
<!-- Node1 -->
<g id="Node000001" class="node">
<title>Node1</title>
<g id="a_Node000001"><a xlink:title=" ">
<polygon fill="#999999" stroke="#666666" points="143.5,-20.75 0,-20.75 0,0 143.5,0 143.5,-20.75"/>
<text text-anchor="middle" x="71.75" y="-7.25" font-family="Helvetica,sans-Serif" font-size="10.00">nix::UnkeyedValidPathInfo</text>
</a>
</g>
</g>
<!-- Node2 -->
<g id="Node000002" class="node">
<title>Node2</title>
<g id="a_Node000002"><a xlink:href="structnix_1_1Hash.html" target="_top" xlink:title=" ">
<polygon fill="white" stroke="#bfbfbf" points="102.62,-90.25 40.88,-90.25 40.88,-69.5 102.62,-69.5 102.62,-90.25"/>
<text text-anchor="middle" x="71.75" y="-76.75" font-family="Helvetica,sans-Serif" font-size="10.00">nix::Hash</text>
</a>
</g>
</g>
<!-- Node2&#45;&gt;Node1 -->
<g id="edge1_Node000001_Node000002" class="edge">
<title>Node2&#45;&gt;Node1</title>
<g id="a_edge1_Node000001_Node000002"><a xlink:title=" ">
<path fill="none" stroke="#9a32cd" stroke-dasharray="5,2" d="M71.75,-58.07C71.75,-45.72 71.75,-30.65 71.75,-21.03"/>
<polygon fill="#9a32cd" stroke="#9a32cd" points="68.25,-57.69 71.75,-67.69 75.25,-57.69 68.25,-57.69"/>
</a>
</g>
<text text-anchor="middle" x="93.5" y="-42" font-family="Helvetica,sans-Serif" font-size="10.00" fill="grey"> narHash</text>
</g>
<!-- Node2&#45;&gt;Node2 -->
<g id="edge2_Node000002_Node000002" class="edge">
<title>Node2&#45;&gt;Node2</title>
<g id="a_edge2_Node000002_Node000002"><a xlink:title=" ">
<path fill="none" stroke="#9a32cd" stroke-dasharray="5,2" d="M114.17,-85.09C118.13,-84.02 120.62,-82.28 120.62,-79.88 120.62,-75.6 112.73,-73.43 102.77,-73.36"/>
<polygon fill="#9a32cd" stroke="#9a32cd" points="113.82,-81.61 104.28,-86.22 114.61,-88.57 113.82,-81.61"/>
</a>
</g>
<text text-anchor="middle" x="140.88" y="-76.75" font-family="Helvetica,sans-Serif" font-size="10.00" fill="grey"> dummy</text>
</g>
</g>
</svg>
