<?xml version="1.0" encoding="UTF-8" standalone="no"?>
<!DOCTYPE svg PUBLIC "-//W3C//DTD SVG 1.1//EN"
 "http://www.w3.org/Graphics/SVG/1.1/DTD/svg11.dtd">
<!-- Generated by graphviz version 12.2.1 (0)
 -->
<!-- Title: nix::FinishSink Pages: 1 -->
<svg width="450pt" height="256pt"
 viewBox="0.00 0.00 450.00 255.75" xmlns="http://www.w3.org/2000/svg" xmlns:xlink="http://www.w3.org/1999/xlink">
<g id="graph0" class="graph" transform="scale(1 1) rotate(0) translate(4 251.75)">
<title>nix::FinishSink</title>
<!-- Node1 -->
<g id="Node000001" class="node">
<title>Node1</title>
<g id="a_Node000001"><a xlink:title=" ">
<polygon fill="#999999" stroke="#666666" points="301.5,-191 215,-191 215,-170.25 301.5,-170.25 301.5,-191"/>
<text text-anchor="middle" x="258.25" y="-177.5" font-family="Helvetica,sans-Serif" font-size="10.00">nix::FinishSink</text>
</a>
</g>
</g>
<!-- Node3 -->
<g id="Node000003" class="node">
<title>Node3</title>
<g id="a_Node000003"><a xlink:href="structnix_1_1CompressionSink.html" target="_top" xlink:title=" ">
<polygon fill="white" stroke="#bfbfbf" points="319.12,-134.25 197.38,-134.25 197.38,-113.5 319.12,-113.5 319.12,-134.25"/>
<text text-anchor="middle" x="258.25" y="-120.75" font-family="Helvetica,sans-Serif" font-size="10.00">nix::CompressionSink</text>
</a>
</g>
</g>
<!-- Node1&#45;&gt;Node3 -->
<g id="edge2_Node000001_Node000003" class="edge">
<title>Node1&#45;&gt;Node3</title>
<g id="a_edge2_Node000001_Node000003"><a xlink:title=" ">
<path fill="none" stroke="#63b8ff" d="M258.25,-158.38C258.25,-150.16 258.25,-141.18 258.25,-134.58"/>
<polygon fill="#63b8ff" stroke="#63b8ff" points="254.75,-158.32 258.25,-168.32 261.75,-158.32 254.75,-158.32"/>
</a>
</g>
</g>
<!-- Node2 -->
<g id="Node000002" class="node">
<title>Node2</title>
<g id="a_Node000002"><a xlink:href="structnix_1_1Sink.html" target="_top" xlink:title=" ">
<polygon fill="white" stroke="#666666" points="287.25,-247.75 229.25,-247.75 229.25,-227 287.25,-227 287.25,-247.75"/>
<text text-anchor="middle" x="258.25" y="-234.25" font-family="Helvetica,sans-Serif" font-size="10.00">nix::Sink</text>
</a>
</g>
</g>
<!-- Node2&#45;&gt;Node1 -->
<g id="edge1_Node000001_Node000002" class="edge">
<title>Node2&#45;&gt;Node1</title>
<g id="a_edge1_Node000001_Node000002"><a xlink:title=" ">
<path fill="none" stroke="#63b8ff" d="M258.25,-215.13C258.25,-206.91 258.25,-197.93 258.25,-191.33"/>
<polygon fill="#63b8ff" stroke="#63b8ff" points="254.75,-215.07 258.25,-225.07 261.75,-215.07 254.75,-215.07"/>
</a>
</g>
</g>
<!-- Node4 -->
<g id="Node000004" class="node">
<title>Node4</title>
<g id="a_Node000004"><a xlink:href="structnix_1_1ArchiveCompressionSink.html" target="_top" xlink:title=" ">
<polygon fill="white" stroke="#bfbfbf" points="158.5,-77.5 0,-77.5 0,-56.75 158.5,-56.75 158.5,-77.5"/>
<text text-anchor="middle" x="79.25" y="-64" font-family="Helvetica,sans-Serif" font-size="10.00">nix::ArchiveCompressionSink</text>
</a>
</g>
</g>
<!-- Node3&#45;&gt;Node4 -->
<g id="edge3_Node000003_Node000004" class="edge">
<title>Node3&#45;&gt;Node4</title>
<g id="a_edge3_Node000003_Node000004"><a xlink:title=" ">
<path fill="none" stroke="#63b8ff" d="M215.43,-109.78C183.41,-99.99 140.34,-86.81 111.28,-77.92"/>
<polygon fill="#63b8ff" stroke="#63b8ff" points="214.21,-113.07 224.8,-112.64 216.26,-106.37 214.21,-113.07"/>
</a>
</g>
</g>
<!-- Node5 -->
<g id="Node000005" class="node">
<title>Node5</title>
<g id="a_Node000005"><a xlink:href="structnix_1_1ChunkedCompressionSink.html" target="_top" xlink:title=" ">
<polygon fill="white" stroke="#bfbfbf" points="340.12,-77.5 176.38,-77.5 176.38,-56.75 340.12,-56.75 340.12,-77.5"/>
<text text-anchor="middle" x="258.25" y="-64" font-family="Helvetica,sans-Serif" font-size="10.00">nix::ChunkedCompressionSink</text>
</a>
</g>
</g>
<!-- Node3&#45;&gt;Node5 -->
<g id="edge4_Node000003_Node000005" class="edge">
<title>Node3&#45;&gt;Node5</title>
<g id="a_edge4_Node000003_Node000005"><a xlink:title=" ">
<path fill="none" stroke="#63b8ff" d="M258.25,-101.63C258.25,-93.41 258.25,-84.43 258.25,-77.83"/>
<polygon fill="#63b8ff" stroke="#63b8ff" points="254.75,-101.57 258.25,-111.57 261.75,-101.57 254.75,-101.57"/>
</a>
</g>
</g>
<!-- Node7 -->
<g id="Node000007" class="node">
<title>Node7</title>
<g id="a_Node000007"><a xlink:href="structnix_1_1NoneSink.html" target="_top" xlink:title=" ">
<polygon fill="white" stroke="#bfbfbf" points="442,-77.5 358.5,-77.5 358.5,-56.75 442,-56.75 442,-77.5"/>
<text text-anchor="middle" x="400.25" y="-64" font-family="Helvetica,sans-Serif" font-size="10.00">nix::NoneSink</text>
</a>
</g>
</g>
<!-- Node3&#45;&gt;Node7 -->
<g id="edge6_Node000003_Node000007" class="edge">
<title>Node3&#45;&gt;Node7</title>
<g id="a_edge6_Node000003_Node000007"><a xlink:title=" ">
<path fill="none" stroke="#63b8ff" d="M294.27,-108.99C319.52,-99.25 352.64,-86.48 375.08,-77.83"/>
<polygon fill="#63b8ff" stroke="#63b8ff" points="293.12,-105.68 285.05,-112.54 295.64,-112.21 293.12,-105.68"/>
</a>
</g>
</g>
<!-- Node6 -->
<g id="Node000006" class="node">
<title>Node6</title>
<g id="a_Node000006"><a xlink:href="structnix_1_1BrotliCompressionSink.html" target="_top" xlink:title=" ">
<polygon fill="white" stroke="#bfbfbf" points="332.25,-20.75 184.25,-20.75 184.25,0 332.25,0 332.25,-20.75"/>
<text text-anchor="middle" x="258.25" y="-7.25" font-family="Helvetica,sans-Serif" font-size="10.00">nix::BrotliCompressionSink</text>
</a>
</g>
</g>
<!-- Node5&#45;&gt;Node6 -->
<g id="edge5_Node000005_Node000006" class="edge">
<title>Node5&#45;&gt;Node6</title>
<g id="a_edge5_Node000005_Node000006"><a xlink:title=" ">
<path fill="none" stroke="#63b8ff" d="M258.25,-44.88C258.25,-36.66 258.25,-27.68 258.25,-21.08"/>
<polygon fill="#63b8ff" stroke="#63b8ff" points="254.75,-44.82 258.25,-54.82 261.75,-44.82 254.75,-44.82"/>
</a>
</g>
</g>
</g>
</svg>
