<?xml version="1.0" encoding="UTF-8" standalone="no"?>
<!DOCTYPE svg PUBLIC "-//W3C//DTD SVG 1.1//EN"
 "http://www.w3.org/Graphics/SVG/1.1/DTD/svg11.dtd">
<!-- Generated by graphviz version 12.2.1 (0)
 -->
<!-- Title: nix::CmdHelp Pages: 1 -->
<svg width="235pt" height="156pt"
 viewBox="0.00 0.00 235.38 156.00" xmlns="http://www.w3.org/2000/svg" xmlns:xlink="http://www.w3.org/1999/xlink">
<g id="graph0" class="graph" transform="scale(1 1) rotate(0) translate(4 152)">
<title>nix::CmdHelp</title>
<!-- Node1 -->
<g id="Node000001" class="node">
<title>Node1</title>
<g id="a_Node000001"><a xlink:title=" ">
<polygon fill="#999999" stroke="#666666" points="82,-90.25 0,-90.25 0,-69.5 82,-69.5 82,-90.25"/>
<text text-anchor="middle" x="41" y="-76.75" font-family="Helvetica,sans-Serif" font-size="10.00">nix::CmdHelp</text>
</a>
</g>
</g>
<!-- Node2 -->
<g id="Node000002" class="node">
<title>Node2</title>
<g id="a_Node000002"><a xlink:href="structnix_1_1Command.html" target="_top" xlink:title=" ">
<polygon fill="white" stroke="#666666" points="199.62,-148 112.38,-148 112.38,-127.25 199.62,-127.25 199.62,-148"/>
<text text-anchor="middle" x="156" y="-134.5" font-family="Helvetica,sans-Serif" font-size="10.00">nix::Command</text>
</a>
</g>
</g>
<!-- Node2&#45;&gt;Node1 -->
<g id="edge1_Node000001_Node000002" class="edge">
<title>Node2&#45;&gt;Node1</title>
<g id="a_edge1_Node000001_Node000002"><a xlink:title=" ">
<path fill="none" stroke="#63b8ff" d="M125.37,-121.78C105.01,-111.91 78.85,-99.22 61.09,-90.62"/>
<polygon fill="#63b8ff" stroke="#63b8ff" points="123.82,-124.91 134.34,-126.13 126.87,-118.61 123.82,-124.91"/>
</a>
</g>
</g>
<!-- Node4 -->
<g id="Node000004" class="node">
<title>Node4</title>
<g id="a_Node000004"><a xlink:href="classnix_1_1MultiCommand.html" target="_top" xlink:title=" ">
<polygon fill="white" stroke="#666666" points="212,-90.25 100,-90.25 100,-69.5 212,-69.5 212,-90.25"/>
<text text-anchor="middle" x="156" y="-76.75" font-family="Helvetica,sans-Serif" font-size="10.00">nix::MultiCommand</text>
</a>
</g>
</g>
<!-- Node2&#45;&gt;Node4 -->
<g id="edge4_Node000004_Node000002" class="edge">
<title>Node2&#45;&gt;Node4</title>
<g id="a_edge4_Node000004_Node000002"><a xlink:title=" ">
<path fill="none" stroke="#63b8ff" d="M156,-115.68C156,-107.02 156,-97.4 156,-90.47"/>
<polygon fill="#63b8ff" stroke="#63b8ff" points="152.5,-115.4 156,-125.4 159.5,-115.4 152.5,-115.4"/>
</a>
</g>
</g>
<!-- Node3 -->
<g id="Node000003" class="node">
<title>Node3</title>
<g id="a_Node000003"><a xlink:href="classnix_1_1Args.html" target="_top" xlink:title=" ">
<polygon fill="white" stroke="#bfbfbf" points="227.38,-20.75 168.62,-20.75 168.62,0 227.38,0 227.38,-20.75"/>
<text text-anchor="middle" x="198" y="-7.25" font-family="Helvetica,sans-Serif" font-size="10.00">nix::Args</text>
</a>
</g>
</g>
<!-- Node3&#45;&gt;Node2 -->
<g id="edge2_Node000002_Node000003" class="edge">
<title>Node3&#45;&gt;Node2</title>
<g id="a_edge2_Node000002_Node000003"><a xlink:title=" ">
<path fill="none" stroke="#63b8ff" d="M214.61,-30.18C216.35,-32.91 217.89,-35.8 219,-38.75 220.06,-41.57 223.91,-84.59 221,-90.25 212.31,-107.13 194.3,-119.23 179.44,-126.82"/>
<polygon fill="#63b8ff" stroke="#63b8ff" points="217.51,-28.22 208.69,-22.35 211.93,-32.44 217.51,-28.22"/>
</a>
</g>
</g>
<!-- Node4&#45;&gt;Node3 -->
<g id="edge3_Node000003_Node000004" class="edge">
<title>Node4&#45;&gt;Node3</title>
<g id="a_edge3_Node000003_Node000004"><a xlink:title=" ">
<path fill="none" stroke="#9a32cd" stroke-dasharray="5,2" d="M168,-59.6C175.84,-46.98 185.76,-31.05 191.99,-21.03"/>
<polygon fill="#9a32cd" stroke="#9a32cd" points="165.13,-57.58 162.82,-67.92 171.07,-61.28 165.13,-57.58"/>
</a>
</g>
<text text-anchor="middle" x="198.01" y="-42" font-family="Helvetica,sans-Serif" font-size="10.00" fill="grey"> parent</text>
</g>
</g>
</svg>
