<?xml version="1.0" encoding="UTF-8" standalone="no"?>
<!DOCTYPE svg PUBLIC "-//W3C//DTD SVG 1.1//EN"
 "http://www.w3.org/Graphics/SVG/1.1/DTD/svg11.dtd">
<!-- Generated by graphviz version 12.2.1 (0)
 -->
<!-- Title: nix::OpaquePath Pages: 1 -->
<svg width="156pt" height="98pt"
 viewBox="0.00 0.00 156.00 98.25" xmlns="http://www.w3.org/2000/svg" xmlns:xlink="http://www.w3.org/1999/xlink">
<g id="graph0" class="graph" transform="scale(1 1) rotate(0) translate(4 94.25)">
<title>nix::OpaquePath</title>
<!-- Node1 -->
<g id="Node000001" class="node">
<title>Node1</title>
<g id="a_Node000001"><a xlink:title=" ">
<polygon fill="#999999" stroke="#666666" points="95.5,-20.75 0,-20.75 0,0 95.5,0 95.5,-20.75"/>
<text text-anchor="middle" x="47.75" y="-7.25" font-family="Helvetica,sans-Serif" font-size="10.00">nix::OpaquePath</text>
</a>
</g>
</g>
<!-- Node2 -->
<g id="Node000002" class="node">
<title>Node2</title>
<g id="a_Node000002"><a xlink:href="classnix_1_1StorePath.html" target="_top" xlink:title=" ">
<polygon fill="white" stroke="#666666" points="89.5,-90.25 6,-90.25 6,-69.5 89.5,-69.5 89.5,-90.25"/>
<text text-anchor="middle" x="47.75" y="-76.75" font-family="Helvetica,sans-Serif" font-size="10.00">nix::StorePath</text>
</a>
</g>
</g>
<!-- Node2&#45;&gt;Node1 -->
<g id="edge1_Node000001_Node000002" class="edge">
<title>Node2&#45;&gt;Node1</title>
<g id="a_edge1_Node000001_Node000002"><a xlink:title=" ">
<path fill="none" stroke="#9a32cd" stroke-dasharray="5,2" d="M47.75,-58.07C47.75,-45.72 47.75,-30.65 47.75,-21.03"/>
<polygon fill="#9a32cd" stroke="#9a32cd" points="44.25,-57.69 47.75,-67.69 51.25,-57.69 44.25,-57.69"/>
</a>
</g>
<text text-anchor="middle" x="60.12" y="-42" font-family="Helvetica,sans-Serif" font-size="10.00" fill="grey"> path</text>
</g>
<!-- Node2&#45;&gt;Node2 -->
<g id="edge2_Node000002_Node000002" class="edge">
<title>Node2&#45;&gt;Node2</title>
<g id="a_edge2_Node000002_Node000002"><a xlink:title=" ">
<path fill="none" stroke="#9a32cd" stroke-dasharray="5,2" d="M101.26,-84.68C105.13,-83.6 107.5,-81.99 107.5,-79.88 107.5,-76.11 100.01,-73.97 89.9,-73.47"/>
<polygon fill="#9a32cd" stroke="#9a32cd" points="100.82,-81.21 91.4,-86.07 101.79,-88.14 100.82,-81.21"/>
</a>
</g>
<text text-anchor="middle" x="127.75" y="-76.75" font-family="Helvetica,sans-Serif" font-size="10.00" fill="grey"> dummy</text>
</g>
</g>
</svg>
