<?xml version="1.0" encoding="UTF-8" standalone="no"?>
<!DOCTYPE svg PUBLIC "-//W3C//DTD SVG 1.1//EN"
 "http://www.w3.org/Graphics/SVG/1.1/DTD/svg11.dtd">
<!-- Generated by graphviz version 12.2.1 (0)
 -->
<!-- Title: nix::CmdLog Pages: 1 -->
<svg width="362pt" height="426pt"
 viewBox="0.00 0.00 362.38 426.00" xmlns="http://www.w3.org/2000/svg" xmlns:xlink="http://www.w3.org/1999/xlink">
<g id="graph0" class="graph" transform="scale(1 1) rotate(0) translate(4 422)">
<title>nix::CmdLog</title>
<!-- Node1 -->
<g id="Node000001" class="node">
<title>Node1</title>
<g id="a_Node000001"><a xlink:title=" ">
<polygon fill="#999999" stroke="#666666" points="107.5,-20.75 30.75,-20.75 30.75,0 107.5,0 107.5,-20.75"/>
<text text-anchor="middle" x="69.12" y="-7.25" font-family="Helvetica,sans-Serif" font-size="10.00">nix::CmdLog</text>
</a>
</g>
</g>
<!-- Node2 -->
<g id="Node000002" class="node">
<title>Node2</title>
<g id="a_Node000002"><a xlink:href="structnix_1_1InstallableCommand.html" target="_top" xlink:title=" ">
<polygon fill="white" stroke="#666666" points="138.25,-77.5 0,-77.5 0,-56.75 138.25,-56.75 138.25,-77.5"/>
<text text-anchor="middle" x="69.12" y="-64" font-family="Helvetica,sans-Serif" font-size="10.00">nix::InstallableCommand</text>
</a>
</g>
</g>
<!-- Node2&#45;&gt;Node1 -->
<g id="edge1_Node000001_Node000002" class="edge">
<title>Node2&#45;&gt;Node1</title>
<g id="a_edge1_Node000001_Node000002"><a xlink:title=" ">
<path fill="none" stroke="#63b8ff" d="M69.12,-44.88C69.12,-36.66 69.12,-27.68 69.12,-21.08"/>
<polygon fill="#63b8ff" stroke="#63b8ff" points="65.63,-44.82 69.13,-54.82 72.63,-44.82 65.63,-44.82"/>
</a>
</g>
</g>
<!-- Node3 -->
<g id="Node000003" class="node">
<title>Node3</title>
<g id="a_Node000003"><a xlink:href="classnix_1_1Args.html" target="_top" xlink:title=" ">
<polygon fill="white" stroke="#bfbfbf" points="161.5,-418 102.75,-418 102.75,-397.25 161.5,-397.25 161.5,-418"/>
<text text-anchor="middle" x="132.12" y="-404.5" font-family="Helvetica,sans-Serif" font-size="10.00">nix::Args</text>
</a>
</g>
</g>
<!-- Node3&#45;&gt;Node2 -->
<g id="edge2_Node000002_Node000003" class="edge">
<title>Node3&#45;&gt;Node2</title>
<g id="a_edge2_Node000002_Node000003"><a xlink:title=" ">
<path fill="none" stroke="#63b8ff" d="M99.81,-391.58C66.72,-373.68 20.12,-340.43 20.12,-295.12 20.12,-295.12 20.12,-295.12 20.12,-179.62 20.12,-149.05 26.32,-141.27 39.12,-113.5 45.21,-100.29 54.83,-86.56 61.53,-77.7"/>
<polygon fill="#63b8ff" stroke="#63b8ff" points="98.16,-394.67 108.65,-396.15 101.38,-388.45 98.16,-394.67"/>
</a>
</g>
</g>
<!-- Node4 -->
<g id="Node000004" class="node">
<title>Node4</title>
<g id="a_Node000004"><a xlink:href="structnix_1_1SourceExprCommand.html" target="_top" xlink:title=" ">
<polygon fill="white" stroke="#bfbfbf" points="190.12,-134.25 48.12,-134.25 48.12,-113.5 190.12,-113.5 190.12,-134.25"/>
<text text-anchor="middle" x="119.12" y="-120.75" font-family="Helvetica,sans-Serif" font-size="10.00">nix::SourceExprCommand</text>
</a>
</g>
</g>
<!-- Node3&#45;&gt;Node4 -->
<g id="edge4_Node000004_Node000003" class="edge">
<title>Node3&#45;&gt;Node4</title>
<g id="a_edge4_Node000004_Node000003"><a xlink:title=" ">
<path fill="none" stroke="#63b8ff" d="M111.51,-389.63C89.61,-369.55 58.12,-333.92 58.12,-295.12 58.12,-295.12 58.12,-295.12 58.12,-236.38 58.12,-205.8 62.11,-196.89 77.12,-170.25 85.03,-156.22 98.09,-143.06 107.55,-134.56"/>
<polygon fill="#63b8ff" stroke="#63b8ff" points="108.95,-392.04 118.77,-396.02 113.57,-386.78 108.95,-392.04"/>
</a>
</g>
</g>
<!-- Node5 -->
<g id="Node000005" class="node">
<title>Node5</title>
<g id="a_Node000005"><a xlink:href="structnix_1_1MixFlakeOptions.html" target="_top" xlink:title=" ">
<polygon fill="white" stroke="#666666" points="204.5,-191 85.75,-191 85.75,-170.25 204.5,-170.25 204.5,-191"/>
<text text-anchor="middle" x="145.12" y="-177.5" font-family="Helvetica,sans-Serif" font-size="10.00">nix::MixFlakeOptions</text>
</a>
</g>
</g>
<!-- Node3&#45;&gt;Node5 -->
<g id="edge6_Node000005_Node000003" class="edge">
<title>Node3&#45;&gt;Node5</title>
<g id="a_edge6_Node000005_Node000003"><a xlink:title=" ">
<path fill="none" stroke="#63b8ff" d="M122.76,-386.35C119.68,-378.66 116.66,-369.72 115.12,-361.25 104.49,-302.53 99.83,-284.11 117.12,-227 121.2,-213.53 130.31,-200.06 137.04,-191.34"/>
<polygon fill="#63b8ff" stroke="#63b8ff" points="119.5,-387.64 126.68,-395.44 125.93,-384.87 119.5,-387.64"/>
</a>
</g>
</g>
<!-- Node8 -->
<g id="Node000008" class="node">
<title>Node8</title>
<g id="a_Node000008"><a xlink:href="structnix_1_1Command.html" target="_top" xlink:title=" ">
<polygon fill="white" stroke="#666666" points="211.75,-361.25 124.5,-361.25 124.5,-340.5 211.75,-340.5 211.75,-361.25"/>
<text text-anchor="middle" x="168.12" y="-347.75" font-family="Helvetica,sans-Serif" font-size="10.00">nix::Command</text>
</a>
</g>
</g>
<!-- Node3&#45;&gt;Node8 -->
<g id="edge10_Node000008_Node000003" class="edge">
<title>Node3&#45;&gt;Node8</title>
<g id="a_edge10_Node000008_Node000003"><a xlink:title=" ">
<path fill="none" stroke="#63b8ff" d="M144.77,-387.39C150.51,-378.66 157.05,-368.72 161.74,-361.58"/>
<polygon fill="#63b8ff" stroke="#63b8ff" points="141.96,-385.29 139.39,-395.57 147.81,-389.14 141.96,-385.29"/>
</a>
</g>
</g>
<!-- Node9 -->
<g id="Node000009" class="node">
<title>Node9</title>
<g id="a_Node000009"><a xlink:href="structnix_1_1MixEvalArgs.html" target="_top" xlink:title=" ">
<polygon fill="white" stroke="#bfbfbf" points="352,-304.5 254.25,-304.5 254.25,-283.75 352,-283.75 352,-304.5"/>
<text text-anchor="middle" x="303.12" y="-291" font-family="Helvetica,sans-Serif" font-size="10.00">nix::MixEvalArgs</text>
</a>
</g>
</g>
<!-- Node3&#45;&gt;Node9 -->
<g id="edge12_Node000009_Node000003" class="edge">
<title>Node3&#45;&gt;Node9</title>
<g id="a_edge12_Node000009_Node000003"><a xlink:title=" ">
<path fill="none" stroke="#63b8ff" d="M164.57,-392.08C181.84,-383.85 203.17,-372.89 221.12,-361.25 248.44,-343.54 277.42,-318.49 292.53,-304.87"/>
<polygon fill="#63b8ff" stroke="#63b8ff" points="163.35,-388.79 155.78,-396.2 166.32,-395.13 163.35,-388.79"/>
</a>
</g>
</g>
<!-- Node10 -->
<g id="Node000010" class="node">
<title>Node10</title>
<g id="a_Node000010"><a xlink:href="structnix_1_1MixRepair.html" target="_top" xlink:title=" ">
<polygon fill="white" stroke="#bfbfbf" points="354.38,-361.25 267.88,-361.25 267.88,-340.5 354.38,-340.5 354.38,-361.25"/>
<text text-anchor="middle" x="311.12" y="-347.75" font-family="Helvetica,sans-Serif" font-size="10.00">nix::MixRepair</text>
</a>
</g>
</g>
<!-- Node3&#45;&gt;Node10 -->
<g id="edge14_Node000010_Node000003" class="edge">
<title>Node3&#45;&gt;Node10</title>
<g id="a_edge14_Node000010_Node000003"><a xlink:title=" ">
<path fill="none" stroke="#63b8ff" d="M172.53,-394.27C204.76,-384.41 249.3,-370.78 279.1,-361.67"/>
<polygon fill="#63b8ff" stroke="#63b8ff" points="171.67,-390.87 163.13,-397.14 173.72,-397.56 171.67,-390.87"/>
</a>
</g>
</g>
<!-- Node4&#45;&gt;Node2 -->
<g id="edge3_Node000002_Node000004" class="edge">
<title>Node4&#45;&gt;Node2</title>
<g id="a_edge3_Node000002_Node000004"><a xlink:title=" ">
<path fill="none" stroke="#63b8ff" d="M102.59,-104.77C94.38,-95.78 84.79,-85.28 77.99,-77.83"/>
<polygon fill="#63b8ff" stroke="#63b8ff" points="99.84,-106.95 109.17,-111.97 105.01,-102.22 99.84,-106.95"/>
</a>
</g>
</g>
<!-- Node5&#45;&gt;Node4 -->
<g id="edge5_Node000004_Node000005" class="edge">
<title>Node5&#45;&gt;Node4</title>
<g id="a_edge5_Node000004_Node000005"><a xlink:title=" ">
<path fill="none" stroke="#63b8ff" d="M135.58,-159.53C131.54,-151.02 127.01,-141.49 123.73,-134.58"/>
<polygon fill="#63b8ff" stroke="#63b8ff" points="132.38,-160.94 139.83,-168.47 138.7,-157.93 132.38,-160.94"/>
</a>
</g>
</g>
<!-- Node6 -->
<g id="Node000006" class="node">
<title>Node6</title>
<g id="a_Node000006"><a xlink:href="structnix_1_1EvalCommand.html" target="_top" xlink:title=" ">
<polygon fill="white" stroke="#666666" points="234.25,-247.75 126,-247.75 126,-227 234.25,-227 234.25,-247.75"/>
<text text-anchor="middle" x="180.12" y="-234.25" font-family="Helvetica,sans-Serif" font-size="10.00">nix::EvalCommand</text>
</a>
</g>
</g>
<!-- Node6&#45;&gt;Node5 -->
<g id="edge7_Node000005_Node000006" class="edge">
<title>Node6&#45;&gt;Node5</title>
<g id="a_edge7_Node000005_Node000006"><a xlink:title=" ">
<path fill="none" stroke="#63b8ff" d="M167.83,-217.14C162.25,-208.41 155.89,-198.47 151.33,-191.33"/>
<polygon fill="#63b8ff" stroke="#63b8ff" points="164.72,-218.77 173.05,-225.31 170.62,-215 164.72,-218.77"/>
</a>
</g>
</g>
<!-- Node7 -->
<g id="Node000007" class="node">
<title>Node7</title>
<g id="a_Node000007"><a xlink:href="structnix_1_1StoreCommand.html" target="_top" xlink:title=" ">
<polygon fill="white" stroke="#666666" points="236.5,-304.5 123.75,-304.5 123.75,-283.75 236.5,-283.75 236.5,-304.5"/>
<text text-anchor="middle" x="180.12" y="-291" font-family="Helvetica,sans-Serif" font-size="10.00">nix::StoreCommand</text>
</a>
</g>
</g>
<!-- Node7&#45;&gt;Node6 -->
<g id="edge8_Node000006_Node000007" class="edge">
<title>Node7&#45;&gt;Node6</title>
<g id="a_edge8_Node000006_Node000007"><a xlink:title=" ">
<path fill="none" stroke="#63b8ff" d="M180.12,-271.88C180.12,-263.66 180.12,-254.68 180.12,-248.08"/>
<polygon fill="#63b8ff" stroke="#63b8ff" points="176.63,-271.82 180.13,-281.82 183.63,-271.82 176.63,-271.82"/>
</a>
</g>
</g>
<!-- Node8&#45;&gt;Node7 -->
<g id="edge9_Node000007_Node000008" class="edge">
<title>Node8&#45;&gt;Node7</title>
<g id="a_edge9_Node000007_Node000008"><a xlink:title=" ">
<path fill="none" stroke="#63b8ff" d="M172.72,-328.92C174.54,-320.63 176.54,-311.5 178,-304.83"/>
<polygon fill="#63b8ff" stroke="#63b8ff" points="169.32,-328.09 170.59,-338.61 176.15,-329.59 169.32,-328.09"/>
</a>
</g>
</g>
<!-- Node9&#45;&gt;Node6 -->
<g id="edge11_Node000006_Node000009" class="edge">
<title>Node9&#45;&gt;Node6</title>
<g id="a_edge11_Node000006_Node000009"><a xlink:title=" ">
<path fill="none" stroke="#63b8ff" d="M270.74,-278.71C249.03,-269.05 221.02,-256.58 201.92,-248.08"/>
<polygon fill="#63b8ff" stroke="#63b8ff" points="269.19,-281.85 279.75,-282.72 272.04,-275.46 269.19,-281.85"/>
</a>
</g>
</g>
<!-- Node10&#45;&gt;Node9 -->
<g id="edge13_Node000009_Node000010" class="edge">
<title>Node10&#45;&gt;Node9</title>
<g id="a_edge13_Node000009_Node000010"><a xlink:title=" ">
<path fill="none" stroke="#63b8ff" d="M308.06,-328.92C306.85,-320.63 305.52,-311.5 304.54,-304.83"/>
<polygon fill="#63b8ff" stroke="#63b8ff" points="304.57,-329.2 309.48,-338.59 311.49,-328.19 304.57,-329.2"/>
</a>
</g>
</g>
</g>
</svg>
