<?xml version="1.0" encoding="UTF-8" standalone="no"?>
<!DOCTYPE svg PUBLIC "-//W3C//DTD SVG 1.1//EN"
 "http://www.w3.org/Graphics/SVG/1.1/DTD/svg11.dtd">
<!-- Generated by graphviz version 12.2.1 (0)
 -->
<!-- Title: nix::LegacySSHStoreConfig Pages: 1 -->
<svg width="1199pt" height="404pt"
 viewBox="0.00 0.00 1198.50 404.27" xmlns="http://www.w3.org/2000/svg" xmlns:xlink="http://www.w3.org/1999/xlink">
<g id="graph0" class="graph" transform="scale(1 1) rotate(0) translate(4 400.27)">
<title>nix::LegacySSHStoreConfig</title>
<!-- Node1 -->
<g id="Node000001" class="node">
<title>Node1</title>
<g id="a_Node000001"><a xlink:title=" ">
<polygon fill="#999999" stroke="#666666" points="1190.5,-255.12 1043.25,-255.12 1043.25,-234.38 1190.5,-234.38 1190.5,-255.12"/>
<text text-anchor="middle" x="1116.88" y="-241.62" font-family="Helvetica,sans-Serif" font-size="10.00">nix::LegacySSHStoreConfig</text>
</a>
</g>
</g>
<!-- Node2 -->
<g id="Node000002" class="node">
<title>Node2</title>
<g id="a_Node000002"><a xlink:href="structnix_1_1CommonSSHStoreConfig.html" target="_top" xlink:title=" ">
<polygon fill="white" stroke="#bfbfbf" points="1006.25,-201.12 849.25,-201.12 849.25,-180.38 1006.25,-180.38 1006.25,-201.12"/>
<text text-anchor="middle" x="927.75" y="-187.62" font-family="Helvetica,sans-Serif" font-size="10.00">nix::CommonSSHStoreConfig</text>
</a>
</g>
</g>
<!-- Node2&#45;&gt;Node1 -->
<g id="edge1_Node000001_Node000002" class="edge">
<title>Node2&#45;&gt;Node1</title>
<g id="a_edge1_Node000001_Node000002"><a xlink:title=" ">
<path fill="none" stroke="#63b8ff" d="M976.91,-204.65C1008.43,-213.74 1049.04,-225.46 1078.2,-233.88"/>
<polygon fill="#63b8ff" stroke="#63b8ff" points="978.2,-201.38 967.62,-201.97 976.26,-208.1 978.2,-201.38"/>
</a>
</g>
</g>
<!-- Node3 -->
<g id="Node000003" class="node">
<title>Node3</title>
<g id="a_Node000003"><a xlink:href="structnix_1_1StoreConfig.html" target="_top" xlink:title=" ">
<polygon fill="white" stroke="#bfbfbf" points="717.62,-192.12 624.38,-192.12 624.38,-171.38 717.62,-171.38 717.62,-192.12"/>
<text text-anchor="middle" x="671" y="-178.62" font-family="Helvetica,sans-Serif" font-size="10.00">nix::StoreConfig</text>
</a>
</g>
</g>
<!-- Node3&#45;&gt;Node2 -->
<g id="edge2_Node000002_Node000003" class="edge">
<title>Node3&#45;&gt;Node2</title>
<g id="a_edge2_Node000002_Node000003"><a xlink:title=" ">
<path fill="none" stroke="#63b8ff" d="M728.91,-183.76C764.24,-185.01 810.11,-186.63 848.79,-188"/>
<polygon fill="#63b8ff" stroke="#63b8ff" points="729.47,-180.28 719.35,-183.42 729.22,-187.27 729.47,-180.28"/>
</a>
</g>
</g>
<!-- Node4 -->
<g id="Node000004" class="node">
<title>Node4</title>
<g id="a_Node000004"><a xlink:href="classnix_1_1Config.html" target="_top" xlink:title=" ">
<polygon fill="white" stroke="#666666" points="413,-127.12 345.25,-127.12 345.25,-106.38 413,-106.38 413,-127.12"/>
<text text-anchor="middle" x="379.12" y="-113.62" font-family="Helvetica,sans-Serif" font-size="10.00">nix::Config</text>
</a>
</g>
</g>
<!-- Node4&#45;&gt;Node3 -->
<g id="edge3_Node000003_Node000004" class="edge">
<title>Node4&#45;&gt;Node3</title>
<g id="a_edge3_Node000003_Node000004"><a xlink:title=" ">
<path fill="none" stroke="#63b8ff" d="M424.24,-125.96C477.38,-137.09 563.51,-155.26 595.5,-162.75 606.29,-165.28 617.91,-168.16 628.69,-170.91"/>
<polygon fill="#63b8ff" stroke="#63b8ff" points="425.09,-122.56 414.59,-123.94 423.66,-129.41 425.09,-122.56"/>
</a>
</g>
</g>
<!-- Node5 -->
<g id="Node000005" class="node">
<title>Node5</title>
<g id="a_Node000005"><a xlink:href="classnix_1_1AbstractConfig.html" target="_top" xlink:title=" ">
<polygon fill="white" stroke="#bfbfbf" points="265.12,-127.12 156.88,-127.12 156.88,-106.38 265.12,-106.38 265.12,-127.12"/>
<text text-anchor="middle" x="211" y="-113.62" font-family="Helvetica,sans-Serif" font-size="10.00">nix::AbstractConfig</text>
</a>
</g>
</g>
<!-- Node5&#45;&gt;Node4 -->
<g id="edge4_Node000004_Node000005" class="edge">
<title>Node5&#45;&gt;Node4</title>
<g id="a_edge4_Node000004_Node000005"><a xlink:title=" ">
<path fill="none" stroke="#63b8ff" d="M276.75,-116.75C300.13,-116.75 325.54,-116.75 345.07,-116.75"/>
<polygon fill="#63b8ff" stroke="#63b8ff" points="276.99,-113.25 266.99,-116.75 276.99,-120.25 276.99,-113.25"/>
</a>
</g>
</g>
<!-- Node6 -->
<g id="Node000006" class="node">
<title>Node6</title>
<g id="a_Node000006"><a xlink:href="classnix_1_1PathsSetting.html" target="_top" xlink:title=" ">
<polygon fill="white" stroke="#666666" points="432.12,-217.5 326.12,-217.5 326.12,-184 432.12,-184 432.12,-217.5"/>
<text text-anchor="start" x="334.12" y="-204" font-family="Helvetica,sans-Serif" font-size="10.00">nix::PathsSetting&lt;</text>
<text text-anchor="middle" x="379.12" y="-191.25" font-family="Helvetica,sans-Serif" font-size="10.00"> Path &gt;</text>
</a>
</g>
</g>
<!-- Node6&#45;&gt;Node3 -->
<g id="edge5_Node000003_Node000006" class="edge">
<title>Node6&#45;&gt;Node3</title>
<g id="a_edge5_Node000003_Node000006"><a xlink:title=" ">
<path fill="none" stroke="#9a32cd" stroke-dasharray="5,2" d="M443.92,-201.98C486.88,-202.14 544.73,-201.07 595.5,-195.75 604.79,-194.78 614.66,-193.26 624.07,-191.59"/>
<polygon fill="#9a32cd" stroke="#9a32cd" points="444.04,-198.48 434.01,-201.92 443.99,-205.48 444.04,-198.48"/>
</a>
</g>
<text text-anchor="middle" x="530.88" y="-205.19" font-family="Helvetica,sans-Serif" font-size="10.00" fill="grey"> storeDir_</text>
</g>
<!-- Node7 -->
<g id="Node000007" class="node">
<title>Node7</title>
<g id="a_Node000007"><a xlink:href="classnix_1_1BaseSetting.html" target="_top" xlink:title=" ">
<polygon fill="white" stroke="#666666" points="273,-211.12 149,-211.12 149,-190.38 273,-190.38 273,-211.12"/>
<text text-anchor="middle" x="211" y="-197.62" font-family="Helvetica,sans-Serif" font-size="10.00">nix::BaseSetting&lt; T &gt;</text>
</a>
</g>
</g>
<!-- Node7&#45;&gt;Node6 -->
<g id="edge6_Node000006_Node000007" class="edge">
<title>Node7&#45;&gt;Node6</title>
<g id="a_edge6_Node000006_Node000007"><a xlink:title=" ">
<path fill="none" stroke="#63b8ff" d="M284.83,-200.75C298.59,-200.75 312.74,-200.75 325.72,-200.75"/>
<polygon fill="#63b8ff" stroke="#63b8ff" points="284.9,-197.25 274.9,-200.75 284.9,-204.25 284.9,-197.25"/>
</a>
</g>
</g>
<!-- Node17 -->
<g id="Node000017" class="node">
<title>Node17</title>
<g id="a_Node000017"><a xlink:href="classnix_1_1Setting.html" target="_top" xlink:title=" ">
<polygon fill="white" stroke="#bfbfbf" points="728.5,-255.12 613.5,-255.12 613.5,-234.38 728.5,-234.38 728.5,-255.12"/>
<text text-anchor="middle" x="671" y="-241.62" font-family="Helvetica,sans-Serif" font-size="10.00">nix::Setting&lt; Path &gt;</text>
</a>
</g>
</g>
<!-- Node7&#45;&gt;Node17 -->
<g id="edge21_Node000017_Node000007" class="edge">
<title>Node7&#45;&gt;Node17</title>
<g id="a_edge21_Node000017_Node000007"><a xlink:title=" ">
<path fill="none" stroke="#63b8ff" d="M256.68,-214.71C273.26,-219.34 292.34,-224 310,-226.75 416.2,-243.3 541.94,-245.75 613.2,-245.56"/>
<polygon fill="#63b8ff" stroke="#63b8ff" points="257.68,-211.36 247.1,-211.96 255.74,-218.09 257.68,-211.36"/>
</a>
</g>
</g>
<!-- Node8 -->
<g id="Node000008" class="node">
<title>Node8</title>
<g id="a_Node000008"><a xlink:href="classnix_1_1AbstractSetting.html" target="_top" xlink:title=" ">
<polygon fill="white" stroke="#bfbfbf" points="112,-185.12 0,-185.12 0,-164.38 112,-164.38 112,-185.12"/>
<text text-anchor="middle" x="56" y="-171.62" font-family="Helvetica,sans-Serif" font-size="10.00">nix::AbstractSetting</text>
</a>
</g>
</g>
<!-- Node8&#45;&gt;Node7 -->
<g id="edge7_Node000007_Node000008" class="edge">
<title>Node8&#45;&gt;Node7</title>
<g id="a_edge7_Node000007_Node000008"><a xlink:title=" ">
<path fill="none" stroke="#63b8ff" d="M123.49,-186.05C131.84,-187.47 140.35,-188.91 148.62,-190.32"/>
<polygon fill="#63b8ff" stroke="#63b8ff" points="124.17,-182.62 113.73,-184.39 123,-189.52 124.17,-182.62"/>
</a>
</g>
</g>
<!-- Node10 -->
<g id="Node000010" class="node">
<title>Node10</title>
<g id="a_Node000010"><a xlink:href="classnix_1_1BaseSetting.html" target="_top" xlink:title=" ">
<polygon fill="white" stroke="#666666" points="273,-274.12 149,-274.12 149,-253.38 273,-253.38 273,-274.12"/>
<text text-anchor="middle" x="211" y="-260.62" font-family="Helvetica,sans-Serif" font-size="10.00">nix::BaseSetting&lt; T &gt;</text>
</a>
</g>
</g>
<!-- Node8&#45;&gt;Node10 -->
<g id="edge10_Node000010_Node000008" class="edge">
<title>Node8&#45;&gt;Node10</title>
<g id="a_edge10_Node000010_Node000008"><a xlink:title=" ">
<path fill="none" stroke="#63b8ff" d="M85.22,-191.16C116.19,-209.18 165.02,-237.59 191.48,-252.98"/>
<polygon fill="#63b8ff" stroke="#63b8ff" points="87.17,-188.25 76.76,-186.25 83.65,-194.3 87.17,-188.25"/>
</a>
</g>
</g>
<!-- Node12 -->
<g id="Node000012" class="node">
<title>Node12</title>
<g id="a_Node000012"><a xlink:href="classnix_1_1BaseSetting.html" target="_top" xlink:title=" ">
<polygon fill="white" stroke="#666666" points="273,-88.12 149,-88.12 149,-67.38 273,-67.38 273,-88.12"/>
<text text-anchor="middle" x="211" y="-74.62" font-family="Helvetica,sans-Serif" font-size="10.00">nix::BaseSetting&lt; T &gt;</text>
</a>
</g>
</g>
<!-- Node8&#45;&gt;Node12 -->
<g id="edge13_Node000012_Node000008" class="edge">
<title>Node8&#45;&gt;Node12</title>
<g id="a_edge13_Node000012_Node000008"><a xlink:title=" ">
<path fill="none" stroke="#63b8ff" d="M74.72,-156.32C92.19,-139.07 120.36,-113.65 149,-97.75 155.43,-94.18 162.6,-91.12 169.7,-88.55"/>
<polygon fill="#63b8ff" stroke="#63b8ff" points="72.67,-153.41 68.11,-162.98 77.64,-158.34 72.67,-153.41"/>
</a>
</g>
</g>
<!-- Node14 -->
<g id="Node000014" class="node">
<title>Node14</title>
<g id="a_Node000014"><a xlink:href="classnix_1_1BaseSetting.html" target="_top" xlink:title=" ">
<polygon fill="white" stroke="#666666" points="273,-170.12 149,-170.12 149,-149.38 273,-149.38 273,-170.12"/>
<text text-anchor="middle" x="211" y="-156.62" font-family="Helvetica,sans-Serif" font-size="10.00">nix::BaseSetting&lt; T &gt;</text>
</a>
</g>
</g>
<!-- Node8&#45;&gt;Node14 -->
<g id="edge16_Node000014_Node000008" class="edge">
<title>Node8&#45;&gt;Node14</title>
<g id="a_edge16_Node000014_Node000008"><a xlink:title=" ">
<path fill="none" stroke="#63b8ff" d="M123.49,-168.23C131.84,-167.41 140.35,-166.58 148.62,-165.77"/>
<polygon fill="#63b8ff" stroke="#63b8ff" points="123.35,-164.73 113.74,-169.19 124.04,-171.69 123.35,-164.73"/>
</a>
</g>
</g>
<!-- Node16 -->
<g id="Node000016" class="node">
<title>Node16</title>
<g id="a_Node000016"><a xlink:href="classnix_1_1BaseSetting.html" target="_top" xlink:title=" ">
<polygon fill="white" stroke="#666666" points="273,-330.12 149,-330.12 149,-309.38 273,-309.38 273,-330.12"/>
<text text-anchor="middle" x="211" y="-316.62" font-family="Helvetica,sans-Serif" font-size="10.00">nix::BaseSetting&lt; T &gt;</text>
</a>
</g>
</g>
<!-- Node8&#45;&gt;Node16 -->
<g id="edge19_Node000016_Node000008" class="edge">
<title>Node8&#45;&gt;Node16</title>
<g id="a_edge19_Node000016_Node000008"><a xlink:title=" ">
<path fill="none" stroke="#63b8ff" d="M70.93,-194.7C87.67,-217.74 117.47,-255.91 149,-282.75 161.07,-293.03 176.32,-302.28 188.55,-308.96"/>
<polygon fill="#63b8ff" stroke="#63b8ff" points="73.94,-192.89 65.28,-186.79 68.24,-196.96 73.94,-192.89"/>
</a>
</g>
</g>
<!-- Node19 -->
<g id="Node000019" class="node">
<title>Node19</title>
<g id="a_Node000019"><a xlink:href="classnix_1_1BaseSetting.html" target="_top" xlink:title=" ">
<polygon fill="white" stroke="#666666" points="273,-46.12 149,-46.12 149,-25.38 273,-25.38 273,-46.12"/>
<text text-anchor="middle" x="211" y="-32.62" font-family="Helvetica,sans-Serif" font-size="10.00">nix::BaseSetting&lt; T &gt;</text>
</a>
</g>
</g>
<!-- Node8&#45;&gt;Node19 -->
<g id="edge24_Node000019_Node000008" class="edge">
<title>Node8&#45;&gt;Node19</title>
<g id="a_edge24_Node000019_Node000008"><a xlink:title=" ">
<path fill="none" stroke="#63b8ff" d="M68.35,-154.45C83.61,-128.85 113.03,-85 149,-58.75 155.77,-53.81 163.72,-49.81 171.6,-46.61"/>
<polygon fill="#63b8ff" stroke="#63b8ff" points="65.44,-152.49 63.46,-162.9 71.5,-156 65.44,-152.49"/>
</a>
</g>
</g>
<!-- Node9 -->
<g id="Node000009" class="node">
<title>Node9</title>
<g id="a_Node000009"><a xlink:href="classnix_1_1Setting.html" target="_top" xlink:title=" ">
<polygon fill="white" stroke="#bfbfbf" points="432.5,-294.12 325.75,-294.12 325.75,-273.38 432.5,-273.38 432.5,-294.12"/>
<text text-anchor="middle" x="379.12" y="-280.62" font-family="Helvetica,sans-Serif" font-size="10.00">nix::Setting&lt; int &gt;</text>
</a>
</g>
</g>
<!-- Node9&#45;&gt;Node1 -->
<g id="edge27_Node000001_Node000009" class="edge">
<title>Node9&#45;&gt;Node1</title>
<g id="a_edge27_Node000001_Node000009"><a xlink:title=" ">
<path fill="none" stroke="#9a32cd" stroke-dasharray="5,2" d="M444.41,-288.72C451.77,-289.14 459.17,-289.5 466.25,-289.75 523.66,-291.75 538.09,-291.7 595.5,-289.75 778.37,-283.52 824.4,-282.01 1006.25,-261.75 1021.08,-260.1 1036.98,-257.89 1051.94,-255.61"/>
<polygon fill="#9a32cd" stroke="#9a32cd" points="444.64,-285.23 434.44,-288.1 444.21,-292.22 444.64,-285.23"/>
</a>
</g>
<text text-anchor="middle" x="788.88" y="-287.26" font-family="Helvetica,sans-Serif" font-size="10.00" fill="grey"> maxConnections</text>
</g>
<!-- Node9&#45;&gt;Node3 -->
<g id="edge8_Node000003_Node000009" class="edge">
<title>Node9&#45;&gt;Node3</title>
<g id="a_edge8_Node000003_Node000009"><a xlink:title=" ">
<path fill="none" stroke="#9a32cd" stroke-dasharray="5,2" d="M434.81,-269.97C478.87,-258.23 542.05,-239.91 595.5,-218.75 614.7,-211.15 635.7,-200.49 650.49,-192.57"/>
<polygon fill="#9a32cd" stroke="#9a32cd" points="434,-266.57 425.22,-272.5 435.78,-273.34 434,-266.57"/>
</a>
</g>
<text text-anchor="middle" x="530.88" y="-276.67" font-family="Helvetica,sans-Serif" font-size="10.00" fill="grey"> pathInfoCacheSize</text>
<text text-anchor="middle" x="530.88" y="-263.92" font-family="Helvetica,sans-Serif" font-size="10.00" fill="grey">priority</text>
</g>
<!-- Node10&#45;&gt;Node9 -->
<g id="edge9_Node000009_Node000010" class="edge">
<title>Node10&#45;&gt;Node9</title>
<g id="a_edge9_Node000009_Node000010"><a xlink:title=" ">
<path fill="none" stroke="#63b8ff" d="M284.76,-272.51C298.45,-274.16 312.52,-275.85 325.45,-277.41"/>
<polygon fill="#63b8ff" stroke="#63b8ff" points="285.24,-269.04 274.89,-271.32 284.4,-275.99 285.24,-269.04"/>
</a>
</g>
</g>
<!-- Node11 -->
<g id="Node000011" class="node">
<title>Node11</title>
<g id="a_Node000011"><a xlink:href="classnix_1_1Setting.html" target="_top" xlink:title=" ">
<polygon fill="white" stroke="#bfbfbf" points="436.62,-88.12 321.62,-88.12 321.62,-67.38 436.62,-67.38 436.62,-88.12"/>
<text text-anchor="middle" x="379.12" y="-74.62" font-family="Helvetica,sans-Serif" font-size="10.00">nix::Setting&lt; bool &gt;</text>
</a>
</g>
</g>
<!-- Node11&#45;&gt;Node2 -->
<g id="edge25_Node000002_Node000011" class="edge">
<title>Node11&#45;&gt;Node2</title>
<g id="a_edge25_Node000002_Node000011"><a xlink:title=" ">
<path fill="none" stroke="#9a32cd" stroke-dasharray="5,2" d="M448.16,-76.94C490.78,-77.48 546.7,-80.13 595.5,-88.75 711.64,-109.27 844.11,-158.16 899.83,-179.95"/>
<polygon fill="#9a32cd" stroke="#9a32cd" points="448.33,-73.44 438.3,-76.85 448.27,-80.44 448.33,-73.44"/>
</a>
</g>
<text text-anchor="middle" x="671" y="-122.89" font-family="Helvetica,sans-Serif" font-size="10.00" fill="grey"> compress</text>
</g>
<!-- Node11&#45;&gt;Node3 -->
<g id="edge11_Node000003_Node000011" class="edge">
<title>Node11&#45;&gt;Node3</title>
<g id="a_edge11_Node000003_Node000011"><a xlink:title=" ">
<path fill="none" stroke="#9a32cd" stroke-dasharray="5,2" d="M448.22,-84.53C506.3,-90.67 582.42,-99.74 595.5,-106.25 626,-121.43 651.32,-154.1 663.02,-171.05"/>
<polygon fill="#9a32cd" stroke="#9a32cd" points="448.69,-81.06 438.38,-83.5 447.96,-88.02 448.69,-81.06"/>
</a>
</g>
<text text-anchor="middle" x="530.88" y="-122.25" font-family="Helvetica,sans-Serif" font-size="10.00" fill="grey"> isTrusted</text>
<text text-anchor="middle" x="530.88" y="-109.5" font-family="Helvetica,sans-Serif" font-size="10.00" fill="grey">wantMassQuery</text>
</g>
<!-- Node12&#45;&gt;Node11 -->
<g id="edge12_Node000011_Node000012" class="edge">
<title>Node12&#45;&gt;Node11</title>
<g id="a_edge12_Node000011_Node000012"><a xlink:title=" ">
<path fill="none" stroke="#63b8ff" d="M284.59,-77.75C296.91,-77.75 309.55,-77.75 321.39,-77.75"/>
<polygon fill="#63b8ff" stroke="#63b8ff" points="284.9,-74.25 274.9,-77.75 284.9,-81.25 284.9,-74.25"/>
</a>
</g>
</g>
<!-- Node13 -->
<g id="Node000013" class="node">
<title>Node13</title>
<g id="a_Node000013"><a xlink:href="classnix_1_1Setting.html" target="_top" xlink:title=" ">
<polygon fill="white" stroke="#bfbfbf" points="448.25,-166.12 310,-166.12 310,-145.38 448.25,-145.38 448.25,-166.12"/>
<text text-anchor="middle" x="379.12" y="-152.62" font-family="Helvetica,sans-Serif" font-size="10.00">nix::Setting&lt; StringSet &gt;</text>
</a>
</g>
</g>
<!-- Node13&#45;&gt;Node3 -->
<g id="edge14_Node000003_Node000013" class="edge">
<title>Node13&#45;&gt;Node3</title>
<g id="a_edge14_Node000003_Node000013"><a xlink:title=" ">
<path fill="none" stroke="#9a32cd" stroke-dasharray="5,2" d="M459.84,-162.9C512.72,-167.64 580.23,-173.7 624.26,-177.65"/>
<polygon fill="#9a32cd" stroke="#9a32cd" points="460.23,-159.42 449.96,-162.01 459.61,-166.39 460.23,-159.42"/>
</a>
</g>
<text text-anchor="middle" x="530.88" y="-178.03" font-family="Helvetica,sans-Serif" font-size="10.00" fill="grey"> systemFeatures</text>
</g>
<!-- Node14&#45;&gt;Node13 -->
<g id="edge15_Node000013_Node000014" class="edge">
<title>Node14&#45;&gt;Node13</title>
<g id="a_edge15_Node000013_Node000014"><a xlink:title=" ">
<path fill="none" stroke="#63b8ff" d="M284.63,-158C292.96,-157.8 301.44,-157.6 309.72,-157.4"/>
<polygon fill="#63b8ff" stroke="#63b8ff" points="284.81,-154.5 274.9,-158.24 284.98,-161.49 284.81,-154.5"/>
</a>
</g>
</g>
<!-- Node15 -->
<g id="Node000015" class="node">
<title>Node15</title>
<g id="a_Node000015"><a xlink:href="classnix_1_1Setting.html" target="_top" xlink:title=" ">
<polygon fill="white" stroke="#bfbfbf" points="595.5,-375.5 466.25,-375.5 466.25,-342 595.5,-342 595.5,-375.5"/>
<text text-anchor="start" x="474.25" y="-362" font-family="Helvetica,sans-Serif" font-size="10.00">nix::Setting&lt; std::</text>
<text text-anchor="middle" x="530.88" y="-349.25" font-family="Helvetica,sans-Serif" font-size="10.00">optional&lt; uint16_t &gt; &gt;</text>
</a>
</g>
</g>
<!-- Node15&#45;&gt;Node2 -->
<g id="edge17_Node000002_Node000015" class="edge">
<title>Node15&#45;&gt;Node2</title>
<g id="a_edge17_Node000002_Node000015"><a xlink:title=" ">
<path fill="none" stroke="#9a32cd" stroke-dasharray="5,2" d="M606.69,-376.64C674.15,-387.95 771.67,-391.57 831.25,-336.75 869,-302.02 817.48,-263.02 849.25,-222.75 856.91,-213.04 868.03,-206.24 879.47,-201.51"/>
<polygon fill="#9a32cd" stroke="#9a32cd" points="607.66,-373.26 597.2,-374.95 606.43,-380.15 607.66,-373.26"/>
</a>
</g>
<text text-anchor="middle" x="671" y="-386.77" font-family="Helvetica,sans-Serif" font-size="10.00" fill="grey"> port</text>
</g>
<!-- Node16&#45;&gt;Node15 -->
<g id="edge18_Node000015_Node000016" class="edge">
<title>Node16&#45;&gt;Node15</title>
<g id="a_edge18_Node000015_Node000016"><a xlink:title=" ">
<path fill="none" stroke="#63b8ff" d="M284.63,-328.66C339.24,-335.36 413.36,-344.45 465.78,-350.89"/>
<polygon fill="#63b8ff" stroke="#63b8ff" points="285.14,-325.2 274.79,-327.45 284.29,-332.15 285.14,-325.2"/>
</a>
</g>
</g>
<!-- Node17&#45;&gt;Node1 -->
<g id="edge26_Node000001_Node000017" class="edge">
<title>Node17&#45;&gt;Node1</title>
<g id="a_edge26_Node000001_Node000017"><a xlink:title=" ">
<path fill="none" stroke="#9a32cd" stroke-dasharray="5,2" d="M740.1,-244.75C822.02,-244.75 958.98,-244.75 1042.98,-244.75"/>
<polygon fill="#9a32cd" stroke="#9a32cd" points="740.18,-241.25 730.18,-244.75 740.18,-248.25 740.18,-241.25"/>
</a>
</g>
<text text-anchor="middle" x="927.75" y="-248" font-family="Helvetica,sans-Serif" font-size="10.00" fill="grey"> remoteProgram</text>
</g>
<!-- Node17&#45;&gt;Node2 -->
<g id="edge20_Node000002_Node000017" class="edge">
<title>Node17&#45;&gt;Node2</title>
<g id="a_edge20_Node000002_Node000017"><a xlink:title=" ">
<path fill="none" stroke="#9a32cd" stroke-dasharray="5,2" d="M708.63,-230C720.55,-225.63 733.95,-221.17 746.5,-218 779.64,-209.63 816.9,-203.47 848.9,-199.15"/>
<polygon fill="#9a32cd" stroke="#9a32cd" points="707.7,-226.61 699.58,-233.41 710.17,-233.16 707.7,-226.61"/>
</a>
</g>
<text text-anchor="middle" x="788.88" y="-221.25" font-family="Helvetica,sans-Serif" font-size="10.00" fill="grey"> sshKey</text>
</g>
<!-- Node18 -->
<g id="Node000018" class="node">
<title>Node18</title>
<g id="a_Node000018"><a xlink:href="classnix_1_1Setting.html" target="_top" xlink:title=" ">
<polygon fill="white" stroke="#bfbfbf" points="582.75,-33.5 479,-33.5 479,0 582.75,0 582.75,-33.5"/>
<text text-anchor="start" x="487" y="-20" font-family="Helvetica,sans-Serif" font-size="10.00">nix::Setting&lt; std::</text>
<text text-anchor="middle" x="530.88" y="-7.25" font-family="Helvetica,sans-Serif" font-size="10.00">string &gt;</text>
</a>
</g>
</g>
<!-- Node18&#45;&gt;Node2 -->
<g id="edge22_Node000002_Node000018" class="edge">
<title>Node18&#45;&gt;Node2</title>
<g id="a_edge22_Node000002_Node000018"><a xlink:title=" ">
<path fill="none" stroke="#9a32cd" stroke-dasharray="5,2" d="M594.55,-10.06C659.81,-6.46 761.98,-10.65 831.25,-60.75 876.86,-93.74 909.72,-155.07 921.74,-179.89"/>
<polygon fill="#9a32cd" stroke="#9a32cd" points="594.48,-6.56 584.72,-10.69 594.93,-13.55 594.48,-6.56"/>
</a>
</g>
<text text-anchor="middle" x="671" y="-33.56" font-family="Helvetica,sans-Serif" font-size="10.00" fill="grey"> remoteStore</text>
<text text-anchor="middle" x="671" y="-20.81" font-family="Helvetica,sans-Serif" font-size="10.00" fill="grey">sshPublicHostKey</text>
</g>
<!-- Node19&#45;&gt;Node18 -->
<g id="edge23_Node000018_Node000019" class="edge">
<title>Node19&#45;&gt;Node18</title>
<g id="a_edge23_Node000018_Node000019"><a xlink:title=" ">
<path fill="none" stroke="#63b8ff" d="M284.45,-31.42C343.75,-27.88 426.14,-22.95 478.74,-19.81"/>
<polygon fill="#63b8ff" stroke="#63b8ff" points="284.57,-27.91 274.8,-32 284.99,-34.89 284.57,-27.91"/>
</a>
</g>
</g>
</g>
</svg>
