<?xml version="1.0" encoding="UTF-8" standalone="no"?>
<!DOCTYPE svg PUBLIC "-//W3C//DTD SVG 1.1//EN"
 "http://www.w3.org/Graphics/SVG/1.1/DTD/svg11.dtd">
<!-- Generated by graphviz version 12.2.1 (0)
 -->
<!-- Title: nix::SizedSource Pages: 1 -->
<svg width="104pt" height="98pt"
 viewBox="0.00 0.00 104.25 98.25" xmlns="http://www.w3.org/2000/svg" xmlns:xlink="http://www.w3.org/1999/xlink">
<g id="graph0" class="graph" transform="scale(1 1) rotate(0) translate(4 94.25)">
<title>nix::SizedSource</title>
<!-- Node1 -->
<g id="Node000001" class="node">
<title>Node1</title>
<g id="a_Node000001"><a xlink:title=" ">
<polygon fill="#999999" stroke="#666666" points="96.25,-20.75 0,-20.75 0,0 96.25,0 96.25,-20.75"/>
<text text-anchor="middle" x="48.12" y="-7.25" font-family="Helvetica,sans-Serif" font-size="10.00">nix::SizedSource</text>
</a>
</g>
</g>
<!-- Node2 -->
<g id="Node000002" class="node">
<title>Node2</title>
<g id="a_Node000002"><a xlink:href="structnix_1_1Source.html" target="_top" xlink:title=" ">
<polygon fill="white" stroke="#666666" points="83.12,-90.25 13.12,-90.25 13.12,-69.5 83.12,-69.5 83.12,-90.25"/>
<text text-anchor="middle" x="48.12" y="-76.75" font-family="Helvetica,sans-Serif" font-size="10.00">nix::Source</text>
</a>
</g>
</g>
<!-- Node2&#45;&gt;Node1 -->
<g id="edge1_Node000001_Node000002" class="edge">
<title>Node2&#45;&gt;Node1</title>
<g id="a_edge1_Node000001_Node000002"><a xlink:title=" ">
<path fill="none" stroke="#63b8ff" d="M46.42,-57.65C46.3,-55.57 46.2,-53.5 46.12,-51.5 45.92,-45.84 45.92,-44.41 46.12,-38.75 46.34,-32.94 46.8,-26.45 47.23,-21.25"/>
<polygon fill="#63b8ff" stroke="#63b8ff" points="42.92,-57.77 47.12,-67.49 49.9,-57.27 42.92,-57.77"/>
</a>
</g>
</g>
<!-- Node2&#45;&gt;Node1 -->
<g id="edge2_Node000001_Node000002" class="edge">
<title>Node2&#45;&gt;Node1</title>
<g id="a_edge2_Node000001_Node000002"><a xlink:title=" ">
<path fill="none" stroke="#9a32cd" stroke-dasharray="5,2" d="M48.12,-58.07C48.12,-45.72 48.12,-30.65 48.12,-21.03"/>
<polygon fill="#9a32cd" stroke="#9a32cd" points="44.63,-57.69 48.13,-67.69 51.63,-57.69 44.63,-57.69"/>
</a>
</g>
<text text-anchor="middle" x="59" y="-42" font-family="Helvetica,sans-Serif" font-size="10.00" fill="grey"> orig</text>
</g>
</g>
</svg>
