<?xml version="1.0" encoding="UTF-8" standalone="no"?>
<!DOCTYPE svg PUBLIC "-//W3C//DTD SVG 1.1//EN"
 "http://www.w3.org/Graphics/SVG/1.1/DTD/svg11.dtd">
<!-- Generated by graphviz version 12.2.1 (0)
 -->
<!-- Title: nix::CopyCommand Pages: 1 -->
<svg width="328pt" height="169pt"
 viewBox="0.00 0.00 327.65 168.75" xmlns="http://www.w3.org/2000/svg" xmlns:xlink="http://www.w3.org/1999/xlink">
<g id="graph0" class="graph" transform="scale(1 1) rotate(0) translate(4 164.75)">
<title>nix::CopyCommand</title>
<!-- Node1 -->
<g id="Node000001" class="node">
<title>Node1</title>
<g id="a_Node000001"><a xlink:title=" ">
<polygon fill="#999999" stroke="#666666" points="191.38,-20.75 79.38,-20.75 79.38,0 191.38,0 191.38,-20.75"/>
<text text-anchor="middle" x="135.38" y="-7.25" font-family="Helvetica,sans-Serif" font-size="10.00">nix::CopyCommand</text>
</a>
</g>
</g>
<!-- Node2 -->
<g id="Node000002" class="node">
<title>Node2</title>
<g id="a_Node000002"><a xlink:href="structnix_1_1StoreCommand.html" target="_top" xlink:title=" ">
<polygon fill="white" stroke="#666666" points="112.75,-103 0,-103 0,-82.25 112.75,-82.25 112.75,-103"/>
<text text-anchor="middle" x="56.38" y="-89.5" font-family="Helvetica,sans-Serif" font-size="10.00">nix::StoreCommand</text>
</a>
</g>
</g>
<!-- Node2&#45;&gt;Node1 -->
<g id="edge1_Node000001_Node000002" class="edge">
<title>Node2&#45;&gt;Node1</title>
<g id="a_edge1_Node000001_Node000002"><a xlink:title=" ">
<path fill="none" stroke="#63b8ff" d="M73.74,-73.99C89.87,-57.6 113.27,-33.83 126.1,-20.8"/>
<polygon fill="#63b8ff" stroke="#63b8ff" points="71.64,-71.12 67.12,-80.71 76.63,-76.04 71.64,-71.12"/>
</a>
</g>
</g>
<!-- Node3 -->
<g id="Node000003" class="node">
<title>Node3</title>
<g id="a_Node000003"><a xlink:href="structnix_1_1Command.html" target="_top" xlink:title=" ">
<polygon fill="white" stroke="#666666" points="292,-160.75 204.75,-160.75 204.75,-140 292,-140 292,-160.75"/>
<text text-anchor="middle" x="248.38" y="-147.25" font-family="Helvetica,sans-Serif" font-size="10.00">nix::Command</text>
</a>
</g>
</g>
<!-- Node3&#45;&gt;Node2 -->
<g id="edge2_Node000002_Node000003" class="edge">
<title>Node3&#45;&gt;Node2</title>
<g id="a_edge2_Node000002_Node000003"><a xlink:title=" ">
<path fill="none" stroke="#63b8ff" d="M203.72,-136.41C169.09,-126.35 121.81,-112.62 90.24,-103.46"/>
<polygon fill="#63b8ff" stroke="#63b8ff" points="202.46,-139.69 213.04,-139.11 204.41,-132.96 202.46,-139.69"/>
</a>
</g>
</g>
<!-- Node5 -->
<g id="Node000005" class="node">
<title>Node5</title>
<g id="a_Node000005"><a xlink:href="classnix_1_1MultiCommand.html" target="_top" xlink:title=" ">
<polygon fill="white" stroke="#666666" points="304.38,-103 192.38,-103 192.38,-82.25 304.38,-82.25 304.38,-103"/>
<text text-anchor="middle" x="248.38" y="-89.5" font-family="Helvetica,sans-Serif" font-size="10.00">nix::MultiCommand</text>
</a>
</g>
</g>
<!-- Node3&#45;&gt;Node5 -->
<g id="edge5_Node000005_Node000003" class="edge">
<title>Node3&#45;&gt;Node5</title>
<g id="a_edge5_Node000005_Node000003"><a xlink:title=" ">
<path fill="none" stroke="#63b8ff" d="M248.38,-128.43C248.38,-119.77 248.38,-110.15 248.38,-103.22"/>
<polygon fill="#63b8ff" stroke="#63b8ff" points="244.88,-128.15 248.38,-138.15 251.88,-128.15 244.88,-128.15"/>
</a>
</g>
</g>
<!-- Node4 -->
<g id="Node000004" class="node">
<title>Node4</title>
<g id="a_Node000004"><a xlink:href="classnix_1_1Args.html" target="_top" xlink:title=" ">
<polygon fill="white" stroke="#bfbfbf" points="297.75,-20.75 239,-20.75 239,0 297.75,0 297.75,-20.75"/>
<text text-anchor="middle" x="268.38" y="-7.25" font-family="Helvetica,sans-Serif" font-size="10.00">nix::Args</text>
</a>
</g>
</g>
<!-- Node4&#45;&gt;Node3 -->
<g id="edge3_Node000003_Node000004" class="edge">
<title>Node4&#45;&gt;Node3</title>
<g id="a_edge3_Node000003_Node000004"><a xlink:title=" ">
<path fill="none" stroke="#63b8ff" d="M291,-28.68C294.11,-31.78 297.04,-35.18 299.38,-38.75 315.38,-63.21 326.76,-77.02 313.38,-103 304.68,-119.88 286.68,-131.98 271.82,-139.57"/>
<polygon fill="#63b8ff" stroke="#63b8ff" points="293.52,-26.25 283.72,-22.23 288.88,-31.48 293.52,-26.25"/>
</a>
</g>
</g>
<!-- Node5&#45;&gt;Node4 -->
<g id="edge4_Node000004_Node000005" class="edge">
<title>Node5&#45;&gt;Node4</title>
<g id="a_edge4_Node000004_Node000005"><a xlink:title=" ">
<path fill="none" stroke="#9a32cd" stroke-dasharray="5,2" d="M253.58,-70.74C257.6,-54.59 262.99,-32.99 266.03,-20.8"/>
<polygon fill="#9a32cd" stroke="#9a32cd" points="250.22,-69.77 251.19,-80.32 257.01,-71.46 250.22,-69.77"/>
</a>
</g>
<text text-anchor="middle" x="278.59" y="-48.38" font-family="Helvetica,sans-Serif" font-size="10.00" fill="grey"> parent</text>
</g>
<!-- Node6 -->
<g id="Node000006" class="node">
<title>Node6</title>
<g id="a_Node000006"><a xlink:title=" ">
<polygon fill="white" stroke="#bfbfbf" points="174.25,-103 130.5,-103 130.5,-82.25 174.25,-82.25 174.25,-103"/>
<text text-anchor="middle" x="152.38" y="-89.5" font-family="Helvetica,sans-Serif" font-size="10.00">string</text>
</a>
</g>
</g>
<!-- Node6&#45;&gt;Node1 -->
<g id="edge6_Node000001_Node000006" class="edge">
<title>Node6&#45;&gt;Node1</title>
<g id="a_edge6_Node000001_Node000006"><a xlink:title=" ">
<path fill="none" stroke="#9a32cd" stroke-dasharray="5,2" d="M147.95,-70.74C144.53,-54.59 139.95,-32.99 137.37,-20.8"/>
<polygon fill="#9a32cd" stroke="#9a32cd" points="144.48,-71.25 149.98,-80.3 151.33,-69.8 144.48,-71.25"/>
</a>
</g>
<text text-anchor="middle" x="162.52" y="-54.75" font-family="Helvetica,sans-Serif" font-size="10.00" fill="grey"> dstUri</text>
<text text-anchor="middle" x="162.52" y="-42" font-family="Helvetica,sans-Serif" font-size="10.00" fill="grey">srcUri</text>
</g>
</g>
</svg>
