<?xml version="1.0" encoding="UTF-8" standalone="no"?>
<!DOCTYPE svg PUBLIC "-//W3C//DTD SVG 1.1//EN"
 "http://www.w3.org/Graphics/SVG/1.1/DTD/svg11.dtd">
<!-- Generated by graphviz version 12.2.1 (0)
 -->
<!-- Title: nix::PreparedDump Pages: 1 -->
<svg width="256pt" height="86pt"
 viewBox="0.00 0.00 256.38 85.50" xmlns="http://www.w3.org/2000/svg" xmlns:xlink="http://www.w3.org/1999/xlink">
<g id="graph0" class="graph" transform="scale(1 1) rotate(0) translate(4 81.5)">
<title>nix::PreparedDump</title>
<!-- Node1 -->
<g id="Node000001" class="node">
<title>Node1</title>
<g id="a_Node000001"><a xlink:title=" ">
<polygon fill="#999999" stroke="#666666" points="179.12,-77.5 69.38,-77.5 69.38,-56.75 179.12,-56.75 179.12,-77.5"/>
<text text-anchor="middle" x="124.25" y="-64" font-family="Helvetica,sans-Serif" font-size="10.00">nix::PreparedDump</text>
</a>
</g>
</g>
<!-- Node2 -->
<g id="Node000002" class="node">
<title>Node2</title>
<g id="a_Node000002"><a xlink:href="structnix_1_1PrefilteredDump.html" target="_top" xlink:title=" ">
<polygon fill="white" stroke="#bfbfbf" points="116.5,-20.75 0,-20.75 0,0 116.5,0 116.5,-20.75"/>
<text text-anchor="middle" x="58.25" y="-7.25" font-family="Helvetica,sans-Serif" font-size="10.00">nix::PrefilteredDump</text>
</a>
</g>
</g>
<!-- Node1&#45;&gt;Node2 -->
<g id="edge1_Node000001_Node000002" class="edge">
<title>Node1&#45;&gt;Node2</title>
<g id="a_edge1_Node000001_Node000002"><a xlink:title=" ">
<path fill="none" stroke="#63b8ff" d="M103.77,-49.14C92.65,-39.91 79.3,-28.84 69.95,-21.08"/>
<polygon fill="#63b8ff" stroke="#63b8ff" points="101.35,-51.68 111.29,-55.37 105.82,-46.29 101.35,-51.68"/>
</a>
</g>
</g>
<!-- Node3 -->
<g id="Node000003" class="node">
<title>Node3</title>
<g id="a_Node000003"><a xlink:href="structnix_1_1UnfilteredDump.html" target="_top" xlink:title=" ">
<polygon fill="white" stroke="#bfbfbf" points="248.38,-20.75 134.12,-20.75 134.12,0 248.38,0 248.38,-20.75"/>
<text text-anchor="middle" x="191.25" y="-7.25" font-family="Helvetica,sans-Serif" font-size="10.00">nix::UnfilteredDump</text>
</a>
</g>
</g>
<!-- Node1&#45;&gt;Node3 -->
<g id="edge2_Node000001_Node000003" class="edge">
<title>Node1&#45;&gt;Node3</title>
<g id="a_edge2_Node000001_Node000003"><a xlink:title=" ">
<path fill="none" stroke="#63b8ff" d="M145.04,-49.14C156.33,-39.91 169.88,-28.84 179.38,-21.08"/>
<polygon fill="#63b8ff" stroke="#63b8ff" points="142.93,-46.34 137.4,-55.38 147.36,-51.76 142.93,-46.34"/>
</a>
</g>
</g>
</g>
</svg>
