<?xml version="1.0" encoding="UTF-8" standalone="no"?>
<!DOCTYPE svg PUBLIC "-//W3C//DTD SVG 1.1//EN"
 "http://www.w3.org/Graphics/SVG/1.1/DTD/svg11.dtd">
<!-- Generated by graphviz version 12.2.1 (0)
 -->
<!-- Title: nix::ExtraPathInfoValue Pages: 1 -->
<svg width="338pt" height="181pt"
 viewBox="0.00 0.00 338.04 180.50" xmlns="http://www.w3.org/2000/svg" xmlns:xlink="http://www.w3.org/1999/xlink">
<g id="graph0" class="graph" transform="scale(1 1) rotate(0) translate(4 176.5)">
<title>nix::ExtraPathInfoValue</title>
<!-- Node1 -->
<g id="Node000001" class="node">
<title>Node1</title>
<g id="a_Node000001"><a xlink:title=" ">
<polygon fill="#999999" stroke="#666666" points="131.75,-20.75 2.5,-20.75 2.5,0 131.75,0 131.75,-20.75"/>
<text text-anchor="middle" x="67.12" y="-7.25" font-family="Helvetica,sans-Serif" font-size="10.00">nix::ExtraPathInfoValue</text>
</a>
</g>
</g>
<!-- Node2 -->
<g id="Node000002" class="node">
<title>Node2</title>
<g id="a_Node000002"><a xlink:href="structnix_1_1ExtraPathInfo.html" target="_top" xlink:title=" ">
<polygon fill="white" stroke="#666666" points="102.25,-96.62 0,-96.62 0,-75.88 102.25,-75.88 102.25,-96.62"/>
<text text-anchor="middle" x="51.12" y="-83.12" font-family="Helvetica,sans-Serif" font-size="10.00">nix::ExtraPathInfo</text>
</a>
</g>
</g>
<!-- Node2&#45;&gt;Node1 -->
<g id="edge1_Node000001_Node000002" class="edge">
<title>Node2&#45;&gt;Node1</title>
<g id="a_edge1_Node000001_Node000002"><a xlink:title=" ">
<path fill="none" stroke="#63b8ff" d="M55.56,-64.75C58.68,-50.37 62.7,-31.82 65.08,-20.8"/>
<polygon fill="#63b8ff" stroke="#63b8ff" points="52.23,-63.6 53.54,-74.11 59.07,-65.08 52.23,-63.6"/>
</a>
</g>
</g>
<!-- Node3 -->
<g id="Node000003" class="node">
<title>Node3</title>
<g id="a_Node000003"><a xlink:href="structnix_1_1ExtraPathInfoValue_1_1Value.html" target="_top" xlink:title=" ">
<polygon fill="white" stroke="#666666" points="249.75,-103 120.5,-103 120.5,-69.5 249.75,-69.5 249.75,-103"/>
<text text-anchor="start" x="128.5" y="-89.5" font-family="Helvetica,sans-Serif" font-size="10.00">nix::ExtraPathInfoValue</text>
<text text-anchor="middle" x="185.12" y="-76.75" font-family="Helvetica,sans-Serif" font-size="10.00">::Value</text>
</a>
</g>
</g>
<!-- Node3&#45;&gt;Node1 -->
<g id="edge2_Node000001_Node000003" class="edge">
<title>Node3&#45;&gt;Node1</title>
<g id="a_edge2_Node000001_Node000003"><a xlink:title=" ">
<path fill="none" stroke="#9a32cd" stroke-dasharray="5,2" d="M149.75,-63.1C127.47,-49.16 99.82,-31.85 82.83,-21.21"/>
<polygon fill="#9a32cd" stroke="#9a32cd" points="147.61,-65.89 157.95,-68.23 151.33,-59.96 147.61,-65.89"/>
</a>
</g>
<text text-anchor="middle" x="144.66" y="-42" font-family="Helvetica,sans-Serif" font-size="10.00" fill="grey"> value</text>
</g>
<!-- Node4 -->
<g id="Node000004" class="node">
<title>Node4</title>
<g id="a_Node000004"><a xlink:title=" ">
<polygon fill="white" stroke="#bfbfbf" points="151,-172.5 107.25,-172.5 107.25,-151.75 151,-151.75 151,-172.5"/>
<text text-anchor="middle" x="129.12" y="-159" font-family="Helvetica,sans-Serif" font-size="10.00">string</text>
</a>
</g>
</g>
<!-- Node4&#45;&gt;Node3 -->
<g id="edge3_Node000003_Node000004" class="edge">
<title>Node4&#45;&gt;Node3</title>
<g id="a_edge3_Node000003_Node000004"><a xlink:title=" ">
<path fill="none" stroke="#9a32cd" stroke-dasharray="5,2" d="M143.37,-142.33C152.48,-130.31 164.18,-114.88 172.88,-103.41"/>
<polygon fill="#9a32cd" stroke="#9a32cd" points="140.61,-140.18 137.36,-150.26 146.19,-144.41 140.61,-140.18"/>
</a>
</g>
<text text-anchor="middle" x="179.43" y="-124.25" font-family="Helvetica,sans-Serif" font-size="10.00" fill="grey"> attrPath</text>
</g>
<!-- Node5 -->
<g id="Node000005" class="node">
<title>Node5</title>
<g id="a_Node000005"><a xlink:href="structnix_1_1ExtendedOutputsSpec.html" target="_top" xlink:title=" ">
<polygon fill="white" stroke="#bfbfbf" points="313.25,-172.5 169,-172.5 169,-151.75 313.25,-151.75 313.25,-172.5"/>
<text text-anchor="middle" x="241.12" y="-159" font-family="Helvetica,sans-Serif" font-size="10.00">nix::ExtendedOutputsSpec</text>
</a>
</g>
</g>
<!-- Node5&#45;&gt;Node3 -->
<g id="edge4_Node000003_Node000005" class="edge">
<title>Node5&#45;&gt;Node3</title>
<g id="a_edge4_Node000003_Node000005"><a xlink:title=" ">
<path fill="none" stroke="#9a32cd" stroke-dasharray="5,2" d="M226.88,-142.33C217.77,-130.31 206.07,-114.88 197.37,-103.41"/>
<polygon fill="#9a32cd" stroke="#9a32cd" points="224.06,-144.41 232.89,-150.26 229.64,-140.18 224.06,-144.41"/>
</a>
</g>
<text text-anchor="middle" x="274.91" y="-124.25" font-family="Helvetica,sans-Serif" font-size="10.00" fill="grey"> extendedOutputsSpec</text>
</g>
</g>
</svg>
