<?xml version="1.0" encoding="UTF-8" standalone="no"?>
<!DOCTYPE svg PUBLIC "-//W3C//DTD SVG 1.1//EN"
 "http://www.w3.org/Graphics/SVG/1.1/DTD/svg11.dtd">
<!-- Generated by graphviz version 12.2.1 (0)
 -->
<!-- Title: nix::SSHStoreConfig Pages: 1 -->
<svg width="1117pt" height="436pt"
 viewBox="0.00 0.00 1116.75 435.50" xmlns="http://www.w3.org/2000/svg" xmlns:xlink="http://www.w3.org/1999/xlink">
<g id="graph0" class="graph" transform="scale(1 1) rotate(0) translate(4 431.5)">
<title>nix::SSHStoreConfig</title>
<!-- Node1 -->
<g id="Node000001" class="node">
<title>Node1</title>
<g id="a_Node000001"><a xlink:title=" ">
<polygon fill="#999999" stroke="#666666" points="1108.75,-217.12 996,-217.12 996,-196.38 1108.75,-196.38 1108.75,-217.12"/>
<text text-anchor="middle" x="1052.38" y="-203.62" font-family="Helvetica,sans-Serif" font-size="10.00">nix::SSHStoreConfig</text>
</a>
</g>
</g>
<!-- Node2 -->
<g id="Node000002" class="node">
<title>Node2</title>
<g id="a_Node000002"><a xlink:href="structnix_1_1RemoteStoreConfig.html" target="_top" xlink:title=" ">
<polygon fill="white" stroke="#bfbfbf" points="946.25,-344.12 814.75,-344.12 814.75,-323.38 946.25,-323.38 946.25,-344.12"/>
<text text-anchor="middle" x="880.5" y="-330.62" font-family="Helvetica,sans-Serif" font-size="10.00">nix::RemoteStoreConfig</text>
</a>
</g>
</g>
<!-- Node2&#45;&gt;Node1 -->
<g id="edge1_Node000001_Node000002" class="edge">
<title>Node2&#45;&gt;Node1</title>
<g id="a_edge1_Node000001_Node000002"><a xlink:title=" ">
<path fill="none" stroke="#63b8ff" d="M905.19,-316.04C940.95,-289.31 1007.62,-239.46 1036.93,-217.55"/>
<polygon fill="#63b8ff" stroke="#63b8ff" points="903.11,-313.22 897.2,-322.02 907.3,-318.83 903.11,-313.22"/>
</a>
</g>
</g>
<!-- Node3 -->
<g id="Node000003" class="node">
<title>Node3</title>
<g id="a_Node000003"><a xlink:href="structnix_1_1StoreConfig.html" target="_top" xlink:title=" ">
<polygon fill="white" stroke="#bfbfbf" points="717.62,-274.12 624.38,-274.12 624.38,-253.38 717.62,-253.38 717.62,-274.12"/>
<text text-anchor="middle" x="671" y="-260.62" font-family="Helvetica,sans-Serif" font-size="10.00">nix::StoreConfig</text>
</a>
</g>
</g>
<!-- Node3&#45;&gt;Node2 -->
<g id="edge2_Node000002_Node000003" class="edge">
<title>Node3&#45;&gt;Node2</title>
<g id="a_edge2_Node000002_Node000003"><a xlink:title=" ">
<path fill="none" stroke="#63b8ff" d="M714.83,-278.2C754.27,-291.51 811.92,-310.95 847.5,-322.95"/>
<polygon fill="#63b8ff" stroke="#63b8ff" points="716,-274.9 705.4,-275.02 713.76,-281.53 716,-274.9"/>
</a>
</g>
</g>
<!-- Node17 -->
<g id="Node000017" class="node">
<title>Node17</title>
<g id="a_Node000017"><a xlink:href="structnix_1_1CommonSSHStoreConfig.html" target="_top" xlink:title=" ">
<polygon fill="white" stroke="#bfbfbf" points="959,-148.12 802,-148.12 802,-127.38 959,-127.38 959,-148.12"/>
<text text-anchor="middle" x="880.5" y="-134.62" font-family="Helvetica,sans-Serif" font-size="10.00">nix::CommonSSHStoreConfig</text>
</a>
</g>
</g>
<!-- Node3&#45;&gt;Node17 -->
<g id="edge22_Node000017_Node000003" class="edge">
<title>Node3&#45;&gt;Node17</title>
<g id="a_edge22_Node000017_Node000003"><a xlink:title=" ">
<path fill="none" stroke="#63b8ff" d="M699.32,-247.14C725.62,-231.15 766.52,-206.29 802,-184.75 822.45,-172.34 845.93,-158.1 861.64,-148.57"/>
<polygon fill="#63b8ff" stroke="#63b8ff" points="697.68,-244.04 690.95,-252.23 701.32,-250.02 697.68,-244.04"/>
</a>
</g>
</g>
<!-- Node4 -->
<g id="Node000004" class="node">
<title>Node4</title>
<g id="a_Node000004"><a xlink:href="classnix_1_1Config.html" target="_top" xlink:title=" ">
<polygon fill="white" stroke="#666666" points="413,-351.12 345.25,-351.12 345.25,-330.38 413,-330.38 413,-351.12"/>
<text text-anchor="middle" x="379.12" y="-337.62" font-family="Helvetica,sans-Serif" font-size="10.00">nix::Config</text>
</a>
</g>
</g>
<!-- Node4&#45;&gt;Node3 -->
<g id="edge3_Node000003_Node000004" class="edge">
<title>Node4&#45;&gt;Node3</title>
<g id="a_edge3_Node000003_Node000004"><a xlink:title=" ">
<path fill="none" stroke="#63b8ff" d="M424.54,-344.01C469.29,-345.66 539.54,-343.76 595.5,-321.75 622.04,-311.31 646.92,-288.27 660.14,-274.58"/>
<polygon fill="#63b8ff" stroke="#63b8ff" points="424.84,-340.52 414.69,-343.56 424.52,-347.51 424.84,-340.52"/>
</a>
</g>
</g>
<!-- Node5 -->
<g id="Node000005" class="node">
<title>Node5</title>
<g id="a_Node000005"><a xlink:href="classnix_1_1AbstractConfig.html" target="_top" xlink:title=" ">
<polygon fill="white" stroke="#bfbfbf" points="265.12,-351.12 156.88,-351.12 156.88,-330.38 265.12,-330.38 265.12,-351.12"/>
<text text-anchor="middle" x="211" y="-337.62" font-family="Helvetica,sans-Serif" font-size="10.00">nix::AbstractConfig</text>
</a>
</g>
</g>
<!-- Node5&#45;&gt;Node4 -->
<g id="edge4_Node000004_Node000005" class="edge">
<title>Node5&#45;&gt;Node4</title>
<g id="a_edge4_Node000004_Node000005"><a xlink:title=" ">
<path fill="none" stroke="#63b8ff" d="M276.75,-340.75C300.13,-340.75 325.54,-340.75 345.07,-340.75"/>
<polygon fill="#63b8ff" stroke="#63b8ff" points="276.99,-337.25 266.99,-340.75 276.99,-344.25 276.99,-337.25"/>
</a>
</g>
</g>
<!-- Node6 -->
<g id="Node000006" class="node">
<title>Node6</title>
<g id="a_Node000006"><a xlink:href="classnix_1_1PathsSetting.html" target="_top" xlink:title=" ">
<polygon fill="white" stroke="#666666" points="432.12,-223.5 326.12,-223.5 326.12,-190 432.12,-190 432.12,-223.5"/>
<text text-anchor="start" x="334.12" y="-210" font-family="Helvetica,sans-Serif" font-size="10.00">nix::PathsSetting&lt;</text>
<text text-anchor="middle" x="379.12" y="-197.25" font-family="Helvetica,sans-Serif" font-size="10.00"> Path &gt;</text>
</a>
</g>
</g>
<!-- Node6&#45;&gt;Node3 -->
<g id="edge5_Node000003_Node000006" class="edge">
<title>Node6&#45;&gt;Node3</title>
<g id="a_edge5_Node000003_Node000006"><a xlink:title=" ">
<path fill="none" stroke="#9a32cd" stroke-dasharray="5,2" d="M443.38,-215.61C486.48,-222.08 544.71,-231.69 595.5,-243 608.21,-245.83 621.99,-249.5 634.19,-252.96"/>
<polygon fill="#9a32cd" stroke="#9a32cd" points="444.11,-212.18 433.7,-214.17 443.08,-219.1 444.11,-212.18"/>
</a>
</g>
<text text-anchor="middle" x="530.88" y="-246.25" font-family="Helvetica,sans-Serif" font-size="10.00" fill="grey"> storeDir_</text>
</g>
<!-- Node7 -->
<g id="Node000007" class="node">
<title>Node7</title>
<g id="a_Node000007"><a xlink:href="classnix_1_1BaseSetting.html" target="_top" xlink:title=" ">
<polygon fill="white" stroke="#666666" points="273,-187.12 149,-187.12 149,-166.38 273,-166.38 273,-187.12"/>
<text text-anchor="middle" x="211" y="-173.62" font-family="Helvetica,sans-Serif" font-size="10.00">nix::BaseSetting&lt; T &gt;</text>
</a>
</g>
</g>
<!-- Node7&#45;&gt;Node6 -->
<g id="edge6_Node000006_Node000007" class="edge">
<title>Node7&#45;&gt;Node6</title>
<g id="a_edge6_Node000006_Node000007"><a xlink:title=" ">
<path fill="none" stroke="#63b8ff" d="M283.26,-189.62C297.49,-192.19 312.2,-194.84 325.66,-197.28"/>
<polygon fill="#63b8ff" stroke="#63b8ff" points="283.93,-186.18 273.46,-187.85 282.68,-193.07 283.93,-186.18"/>
</a>
</g>
</g>
<!-- Node20 -->
<g id="Node000020" class="node">
<title>Node20</title>
<g id="a_Node000020"><a xlink:href="classnix_1_1Setting.html" target="_top" xlink:title=" ">
<polygon fill="white" stroke="#bfbfbf" points="728.5,-172.12 613.5,-172.12 613.5,-151.38 728.5,-151.38 728.5,-172.12"/>
<text text-anchor="middle" x="671" y="-158.62" font-family="Helvetica,sans-Serif" font-size="10.00">nix::Setting&lt; Path &gt;</text>
</a>
</g>
</g>
<!-- Node7&#45;&gt;Node20 -->
<g id="edge27_Node000020_Node000007" class="edge">
<title>Node7&#45;&gt;Node20</title>
<g id="a_edge27_Node000020_Node000007"><a xlink:title=" ">
<path fill="none" stroke="#63b8ff" d="M284.53,-170.61C335.36,-166.62 404.9,-161.8 466.25,-159.75 523.66,-157.83 538.06,-158.98 595.5,-159.75 601.19,-159.83 607.13,-159.94 613.06,-160.06"/>
<polygon fill="#63b8ff" stroke="#63b8ff" points="284.54,-167.1 274.84,-171.38 285.09,-174.07 284.54,-167.1"/>
</a>
</g>
</g>
<!-- Node8 -->
<g id="Node000008" class="node">
<title>Node8</title>
<g id="a_Node000008"><a xlink:href="classnix_1_1AbstractSetting.html" target="_top" xlink:title=" ">
<polygon fill="white" stroke="#bfbfbf" points="112,-187.12 0,-187.12 0,-166.38 112,-166.38 112,-187.12"/>
<text text-anchor="middle" x="56" y="-173.62" font-family="Helvetica,sans-Serif" font-size="10.00">nix::AbstractSetting</text>
</a>
</g>
</g>
<!-- Node8&#45;&gt;Node7 -->
<g id="edge7_Node000007_Node000008" class="edge">
<title>Node8&#45;&gt;Node7</title>
<g id="a_edge7_Node000007_Node000008"><a xlink:title=" ">
<path fill="none" stroke="#63b8ff" d="M123.49,-176.75C131.84,-176.75 140.35,-176.75 148.62,-176.75"/>
<polygon fill="#63b8ff" stroke="#63b8ff" points="123.75,-173.25 113.75,-176.75 123.75,-180.25 123.75,-173.25"/>
</a>
</g>
</g>
<!-- Node10 -->
<g id="Node000010" class="node">
<title>Node10</title>
<g id="a_Node000010"><a xlink:href="classnix_1_1BaseSetting.html" target="_top" xlink:title=" ">
<polygon fill="white" stroke="#666666" points="273,-268.12 149,-268.12 149,-247.38 273,-247.38 273,-268.12"/>
<text text-anchor="middle" x="211" y="-254.62" font-family="Helvetica,sans-Serif" font-size="10.00">nix::BaseSetting&lt; T &gt;</text>
</a>
</g>
</g>
<!-- Node8&#45;&gt;Node10 -->
<g id="edge10_Node000010_Node000008" class="edge">
<title>Node8&#45;&gt;Node10</title>
<g id="a_edge10_Node000010_Node000008"><a xlink:title=" ">
<path fill="none" stroke="#63b8ff" d="M80.15,-194.15C98.2,-207.14 124.28,-224.67 149,-236.75 156.85,-240.59 165.58,-244.04 173.92,-246.98"/>
<polygon fill="#63b8ff" stroke="#63b8ff" points="82.36,-191.44 72.23,-188.36 78.23,-197.09 82.36,-191.44"/>
</a>
</g>
</g>
<!-- Node12 -->
<g id="Node000012" class="node">
<title>Node12</title>
<g id="a_Node000012"><a xlink:href="classnix_1_1BaseSetting.html" target="_top" xlink:title=" ">
<polygon fill="white" stroke="#666666" points="273,-144.12 149,-144.12 149,-123.38 273,-123.38 273,-144.12"/>
<text text-anchor="middle" x="211" y="-130.62" font-family="Helvetica,sans-Serif" font-size="10.00">nix::BaseSetting&lt; T &gt;</text>
</a>
</g>
</g>
<!-- Node8&#45;&gt;Node12 -->
<g id="edge13_Node000012_Node000008" class="edge">
<title>Node8&#45;&gt;Node12</title>
<g id="a_edge13_Node000012_Node000008"><a xlink:title=" ">
<path fill="none" stroke="#63b8ff" d="M106.6,-162.81C127.62,-156.9 151.75,-150.12 171.4,-144.6"/>
<polygon fill="#63b8ff" stroke="#63b8ff" points="105.75,-159.41 97.07,-165.49 107.64,-166.15 105.75,-159.41"/>
</a>
</g>
</g>
<!-- Node14 -->
<g id="Node000014" class="node">
<title>Node14</title>
<g id="a_Node000014"><a xlink:href="classnix_1_1BaseSetting.html" target="_top" xlink:title=" ">
<polygon fill="white" stroke="#666666" points="273,-228.12 149,-228.12 149,-207.38 273,-207.38 273,-228.12"/>
<text text-anchor="middle" x="211" y="-214.62" font-family="Helvetica,sans-Serif" font-size="10.00">nix::BaseSetting&lt; T &gt;</text>
</a>
</g>
</g>
<!-- Node8&#45;&gt;Node14 -->
<g id="edge16_Node000014_Node000008" class="edge">
<title>Node8&#45;&gt;Node14</title>
<g id="a_edge16_Node000014_Node000008"><a xlink:title=" ">
<path fill="none" stroke="#63b8ff" d="M108.29,-190.49C128.24,-195.84 150.76,-201.88 169.54,-206.91"/>
<polygon fill="#63b8ff" stroke="#63b8ff" points="109.23,-187.12 98.66,-187.91 107.41,-193.88 109.23,-187.12"/>
</a>
</g>
</g>
<!-- Node16 -->
<g id="Node000016" class="node">
<title>Node16</title>
<g id="a_Node000016"><a xlink:href="classnix_1_1BaseSetting.html" target="_top" xlink:title=" ">
<polygon fill="white" stroke="#666666" points="273,-407.12 149,-407.12 149,-386.38 273,-386.38 273,-407.12"/>
<text text-anchor="middle" x="211" y="-393.62" font-family="Helvetica,sans-Serif" font-size="10.00">nix::BaseSetting&lt; T &gt;</text>
</a>
</g>
</g>
<!-- Node8&#45;&gt;Node16 -->
<g id="edge20_Node000016_Node000008" class="edge">
<title>Node8&#45;&gt;Node16</title>
<g id="a_edge20_Node000016_Node000008"><a xlink:title=" ">
<path fill="none" stroke="#63b8ff" d="M63.47,-198.36C75.36,-235.15 103.7,-310.7 149,-359.75 159.17,-370.76 173.35,-379.63 185.48,-385.92"/>
<polygon fill="#63b8ff" stroke="#63b8ff" points="66.84,-197.42 60.52,-188.91 60.16,-199.5 66.84,-197.42"/>
</a>
</g>
</g>
<!-- Node19 -->
<g id="Node000019" class="node">
<title>Node19</title>
<g id="a_Node000019"><a xlink:href="classnix_1_1BaseSetting.html" target="_top" xlink:title=" ">
<polygon fill="white" stroke="#666666" points="273,-39.12 149,-39.12 149,-18.38 273,-18.38 273,-39.12"/>
<text text-anchor="middle" x="211" y="-25.62" font-family="Helvetica,sans-Serif" font-size="10.00">nix::BaseSetting&lt; T &gt;</text>
</a>
</g>
</g>
<!-- Node8&#45;&gt;Node19 -->
<g id="edge25_Node000019_Node000008" class="edge">
<title>Node8&#45;&gt;Node19</title>
<g id="a_edge25_Node000019_Node000008"><a xlink:title=" ">
<path fill="none" stroke="#63b8ff" d="M70.66,-156.83C87.33,-133.45 117.25,-94.36 149,-66.75 161.24,-56.11 176.78,-46.47 189.11,-39.57"/>
<polygon fill="#63b8ff" stroke="#63b8ff" points="67.91,-154.66 65.03,-164.86 73.64,-158.68 67.91,-154.66"/>
</a>
</g>
</g>
<!-- Node22 -->
<g id="Node000022" class="node">
<title>Node22</title>
<g id="a_Node000022"><a xlink:href="classnix_1_1BaseSetting.html" target="_top" xlink:title=" ">
<polygon fill="white" stroke="#666666" points="273,-96.12 149,-96.12 149,-75.38 273,-75.38 273,-96.12"/>
<text text-anchor="middle" x="211" y="-82.62" font-family="Helvetica,sans-Serif" font-size="10.00">nix::BaseSetting&lt; T &gt;</text>
</a>
</g>
</g>
<!-- Node8&#45;&gt;Node22 -->
<g id="edge30_Node000022_Node000008" class="edge">
<title>Node8&#45;&gt;Node22</title>
<g id="a_edge30_Node000022_Node000008"><a xlink:title=" ">
<path fill="none" stroke="#63b8ff" d="M80.8,-159.27C99.01,-146.25 125,-128.44 149,-114.75 160.61,-108.13 173.98,-101.65 185.23,-96.51"/>
<polygon fill="#63b8ff" stroke="#63b8ff" points="78.83,-156.38 72.77,-165.07 82.93,-162.05 78.83,-156.38"/>
</a>
</g>
</g>
<!-- Node9 -->
<g id="Node000009" class="node">
<title>Node9</title>
<g id="a_Node000009"><a xlink:href="classnix_1_1Setting.html" target="_top" xlink:title=" ">
<polygon fill="white" stroke="#bfbfbf" points="432.5,-310.12 325.75,-310.12 325.75,-289.38 432.5,-289.38 432.5,-310.12"/>
<text text-anchor="middle" x="379.12" y="-296.62" font-family="Helvetica,sans-Serif" font-size="10.00">nix::Setting&lt; int &gt;</text>
</a>
</g>
</g>
<!-- Node9&#45;&gt;Node2 -->
<g id="edge17_Node000002_Node000009" class="edge">
<title>Node9&#45;&gt;Node2</title>
<g id="a_edge17_Node000002_Node000009"><a xlink:title=" ">
<path fill="none" stroke="#9a32cd" stroke-dasharray="5,2" d="M425.95,-313.46C438.87,-316.77 453.01,-319.89 466.25,-321.75 588.33,-338.9 732.61,-338.44 814.35,-336.28"/>
<polygon fill="#9a32cd" stroke="#9a32cd" points="427,-310.11 416.43,-310.91 425.19,-316.87 427,-310.11"/>
</a>
</g>
<text text-anchor="middle" x="671" y="-340.58" font-family="Helvetica,sans-Serif" font-size="10.00" fill="grey"> maxConnections</text>
</g>
<!-- Node9&#45;&gt;Node3 -->
<g id="edge8_Node000003_Node000009" class="edge">
<title>Node9&#45;&gt;Node3</title>
<g id="a_edge8_Node000003_Node000009"><a xlink:title=" ">
<path fill="none" stroke="#9a32cd" stroke-dasharray="5,2" d="M444.36,-294.61C487.26,-290.83 544.9,-285.08 595.5,-277.75 604.75,-276.41 614.6,-274.74 624,-273.02"/>
<polygon fill="#9a32cd" stroke="#9a32cd" points="444.11,-291.12 434.45,-295.47 444.71,-298.09 444.11,-291.12"/>
</a>
</g>
<text text-anchor="middle" x="530.88" y="-308.49" font-family="Helvetica,sans-Serif" font-size="10.00" fill="grey"> pathInfoCacheSize</text>
<text text-anchor="middle" x="530.88" y="-295.74" font-family="Helvetica,sans-Serif" font-size="10.00" fill="grey">priority</text>
</g>
<!-- Node10&#45;&gt;Node9 -->
<g id="edge9_Node000009_Node000010" class="edge">
<title>Node10&#45;&gt;Node9</title>
<g id="a_edge9_Node000009_Node000010"><a xlink:title=" ">
<path fill="none" stroke="#63b8ff" d="M265.85,-271.36C288.31,-277.04 314.04,-283.55 335.2,-288.9"/>
<polygon fill="#63b8ff" stroke="#63b8ff" points="266.8,-267.99 256.25,-268.94 265.09,-274.78 266.8,-267.99"/>
</a>
</g>
</g>
<!-- Node11 -->
<g id="Node000011" class="node">
<title>Node11</title>
<g id="a_Node000011"><a xlink:href="classnix_1_1Setting.html" target="_top" xlink:title=" ">
<polygon fill="white" stroke="#bfbfbf" points="436.62,-125.12 321.62,-125.12 321.62,-104.38 436.62,-104.38 436.62,-125.12"/>
<text text-anchor="middle" x="379.12" y="-111.62" font-family="Helvetica,sans-Serif" font-size="10.00">nix::Setting&lt; bool &gt;</text>
</a>
</g>
</g>
<!-- Node11&#45;&gt;Node3 -->
<g id="edge11_Node000003_Node000011" class="edge">
<title>Node11&#45;&gt;Node3</title>
<g id="a_edge11_Node000003_Node000011"><a xlink:title=" ">
<path fill="none" stroke="#9a32cd" stroke-dasharray="5,2" d="M440.98,-128.39C485.96,-140.24 547.47,-160.28 595.5,-190.25 623.4,-207.66 649.09,-237.19 661.75,-253"/>
<polygon fill="#9a32cd" stroke="#9a32cd" points="441.94,-125.02 431.38,-125.93 440.2,-131.8 441.94,-125.02"/>
</a>
</g>
<text text-anchor="middle" x="530.88" y="-206.25" font-family="Helvetica,sans-Serif" font-size="10.00" fill="grey"> isTrusted</text>
<text text-anchor="middle" x="530.88" y="-193.5" font-family="Helvetica,sans-Serif" font-size="10.00" fill="grey">wantMassQuery</text>
</g>
<!-- Node11&#45;&gt;Node17 -->
<g id="edge31_Node000017_Node000011" class="edge">
<title>Node11&#45;&gt;Node17</title>
<g id="a_edge31_Node000017_Node000011"><a xlink:title=" ">
<path fill="none" stroke="#9a32cd" stroke-dasharray="5,2" d="M448.18,-117.58C518.4,-120.53 631.12,-125.37 728.5,-130 752.23,-131.13 778.05,-132.43 801.52,-133.64"/>
<polygon fill="#9a32cd" stroke="#9a32cd" points="448.5,-114.09 438.36,-117.17 448.21,-121.08 448.5,-114.09"/>
</a>
</g>
<text text-anchor="middle" x="671" y="-133.25" font-family="Helvetica,sans-Serif" font-size="10.00" fill="grey"> compress</text>
</g>
<!-- Node12&#45;&gt;Node11 -->
<g id="edge12_Node000011_Node000012" class="edge">
<title>Node12&#45;&gt;Node11</title>
<g id="a_edge12_Node000011_Node000012"><a xlink:title=" ">
<path fill="none" stroke="#63b8ff" d="M284.59,-125.45C296.91,-124.04 309.55,-122.59 321.39,-121.24"/>
<polygon fill="#63b8ff" stroke="#63b8ff" points="284.43,-121.94 274.89,-126.56 285.22,-128.9 284.43,-121.94"/>
</a>
</g>
</g>
<!-- Node13 -->
<g id="Node000013" class="node">
<title>Node13</title>
<g id="a_Node000013"><a xlink:href="classnix_1_1Setting.html" target="_top" xlink:title=" ">
<polygon fill="white" stroke="#bfbfbf" points="448.25,-268.12 310,-268.12 310,-247.38 448.25,-247.38 448.25,-268.12"/>
<text text-anchor="middle" x="379.12" y="-254.62" font-family="Helvetica,sans-Serif" font-size="10.00">nix::Setting&lt; StringSet &gt;</text>
</a>
</g>
</g>
<!-- Node13&#45;&gt;Node3 -->
<g id="edge14_Node000003_Node000013" class="edge">
<title>Node13&#45;&gt;Node3</title>
<g id="a_edge14_Node000003_Node000013"><a xlink:title=" ">
<path fill="none" stroke="#9a32cd" stroke-dasharray="5,2" d="M459.84,-259.4C512.72,-260.49 580.23,-261.89 624.26,-262.8"/>
<polygon fill="#9a32cd" stroke="#9a32cd" points="460.04,-255.9 449.97,-259.2 459.89,-262.9 460.04,-255.9"/>
</a>
</g>
<text text-anchor="middle" x="530.88" y="-265.39" font-family="Helvetica,sans-Serif" font-size="10.00" fill="grey"> systemFeatures</text>
</g>
<!-- Node14&#45;&gt;Node13 -->
<g id="edge15_Node000013_Node000014" class="edge">
<title>Node14&#45;&gt;Node13</title>
<g id="a_edge15_Node000013_Node000014"><a xlink:title=" ">
<path fill="none" stroke="#63b8ff" d="M268.09,-231.26C289.28,-236.36 313.09,-242.09 333.13,-246.92"/>
<polygon fill="#63b8ff" stroke="#63b8ff" points="268.97,-227.87 258.43,-228.93 267.33,-234.67 268.97,-227.87"/>
</a>
</g>
</g>
<!-- Node15 -->
<g id="Node000015" class="node">
<title>Node15</title>
<g id="a_Node000015"><a xlink:href="classnix_1_1Setting.html" target="_top" xlink:title=" ">
<polygon fill="white" stroke="#bfbfbf" points="594.38,-427.5 467.38,-427.5 467.38,-394 594.38,-394 594.38,-427.5"/>
<text text-anchor="start" x="475.38" y="-414" font-family="Helvetica,sans-Serif" font-size="10.00">nix::Setting&lt; unsigned</text>
<text text-anchor="middle" x="530.88" y="-401.25" font-family="Helvetica,sans-Serif" font-size="10.00"> int &gt;</text>
</a>
</g>
</g>
<!-- Node15&#45;&gt;Node2 -->
<g id="edge18_Node000002_Node000015" class="edge">
<title>Node15&#45;&gt;Node2</title>
<g id="a_edge18_Node000002_Node000015"><a xlink:title=" ">
<path fill="none" stroke="#9a32cd" stroke-dasharray="5,2" d="M605.91,-408C656.84,-404.57 725.58,-396.9 784,-379.75 812.43,-371.4 842.87,-355.36 861.55,-344.6"/>
<polygon fill="#9a32cd" stroke="#9a32cd" points="605.94,-404.49 596.18,-408.61 606.38,-411.47 605.94,-404.49"/>
</a>
</g>
<text text-anchor="middle" x="671" y="-410.43" font-family="Helvetica,sans-Serif" font-size="10.00" fill="grey"> maxConnectionAge</text>
</g>
<!-- Node16&#45;&gt;Node15 -->
<g id="edge19_Node000015_Node000016" class="edge">
<title>Node16&#45;&gt;Node15</title>
<g id="a_edge19_Node000015_Node000016"><a xlink:title=" ">
<path fill="none" stroke="#63b8ff" d="M284.73,-399.95C339.8,-402.38 414.68,-405.68 467.14,-407.99"/>
<polygon fill="#63b8ff" stroke="#63b8ff" points="284.95,-396.46 274.8,-399.52 284.64,-403.45 284.95,-396.46"/>
</a>
</g>
</g>
<!-- Node17&#45;&gt;Node1 -->
<g id="edge21_Node000001_Node000017" class="edge">
<title>Node17&#45;&gt;Node1</title>
<g id="a_edge21_Node000001_Node000017"><a xlink:title=" ">
<path fill="none" stroke="#63b8ff" d="M918.35,-152.72C950.41,-165.74 996.11,-184.3 1024.74,-195.93"/>
<polygon fill="#63b8ff" stroke="#63b8ff" points="920.03,-149.62 909.45,-149.1 917.39,-156.11 920.03,-149.62"/>
</a>
</g>
</g>
<!-- Node18 -->
<g id="Node000018" class="node">
<title>Node18</title>
<g id="a_Node000018"><a xlink:href="classnix_1_1Setting.html" target="_top" xlink:title=" ">
<polygon fill="white" stroke="#bfbfbf" points="595.5,-33.5 466.25,-33.5 466.25,0 595.5,0 595.5,-33.5"/>
<text text-anchor="start" x="474.25" y="-20" font-family="Helvetica,sans-Serif" font-size="10.00">nix::Setting&lt; std::</text>
<text text-anchor="middle" x="530.88" y="-7.25" font-family="Helvetica,sans-Serif" font-size="10.00">optional&lt; uint16_t &gt; &gt;</text>
</a>
</g>
</g>
<!-- Node18&#45;&gt;Node17 -->
<g id="edge23_Node000017_Node000018" class="edge">
<title>Node18&#45;&gt;Node17</title>
<g id="a_edge23_Node000017_Node000018"><a xlink:title=" ">
<path fill="none" stroke="#9a32cd" stroke-dasharray="5,2" d="M606.95,-20.19C644.24,-23.54 689.53,-30.12 728.5,-43 755.27,-51.85 759.93,-59.05 784,-73.75 812.96,-91.43 845.57,-113.85 864.21,-126.92"/>
<polygon fill="#9a32cd" stroke="#9a32cd" points="607.41,-16.72 597.16,-19.37 606.83,-23.69 607.41,-16.72"/>
</a>
</g>
<text text-anchor="middle" x="671" y="-46.25" font-family="Helvetica,sans-Serif" font-size="10.00" fill="grey"> port</text>
</g>
<!-- Node19&#45;&gt;Node18 -->
<g id="edge24_Node000018_Node000019" class="edge">
<title>Node19&#45;&gt;Node18</title>
<g id="a_edge24_Node000018_Node000019"><a xlink:title=" ">
<path fill="none" stroke="#63b8ff" d="M284.63,-26.01C339.24,-23.95 413.36,-21.15 465.78,-19.17"/>
<polygon fill="#63b8ff" stroke="#63b8ff" points="284.66,-22.5 274.8,-26.38 284.93,-29.5 284.66,-22.5"/>
</a>
</g>
</g>
<!-- Node20&#45;&gt;Node1 -->
<g id="edge32_Node000001_Node000020" class="edge">
<title>Node20&#45;&gt;Node1</title>
<g id="a_edge32_Node000001_Node000020"><a xlink:title=" ">
<path fill="none" stroke="#9a32cd" stroke-dasharray="5,2" d="M740.15,-169.83C813.23,-178.5 927.89,-192.1 995.74,-200.15"/>
<polygon fill="#9a32cd" stroke="#9a32cd" points="740.64,-166.37 730.3,-168.67 739.82,-173.32 740.64,-166.37"/>
</a>
</g>
<text text-anchor="middle" x="880.5" y="-198.99" font-family="Helvetica,sans-Serif" font-size="10.00" fill="grey"> remoteProgram</text>
</g>
<!-- Node20&#45;&gt;Node17 -->
<g id="edge26_Node000017_Node000020" class="edge">
<title>Node20&#45;&gt;Node17</title>
<g id="a_edge26_Node000017_Node000020"><a xlink:title=" ">
<path fill="none" stroke="#9a32cd" stroke-dasharray="5,2" d="M740.29,-153.85C759.93,-151.58 781.5,-149.09 801.67,-146.75"/>
<polygon fill="#9a32cd" stroke="#9a32cd" points="740.01,-150.36 730.48,-154.99 740.81,-157.31 740.01,-150.36"/>
</a>
</g>
<text text-anchor="middle" x="765.25" y="-155.86" font-family="Helvetica,sans-Serif" font-size="10.00" fill="grey"> sshKey</text>
</g>
<!-- Node21 -->
<g id="Node000021" class="node">
<title>Node21</title>
<g id="a_Node000021"><a xlink:href="classnix_1_1Setting.html" target="_top" xlink:title=" ">
<polygon fill="white" stroke="#bfbfbf" points="582.75,-77.5 479,-77.5 479,-44 582.75,-44 582.75,-77.5"/>
<text text-anchor="start" x="487" y="-64" font-family="Helvetica,sans-Serif" font-size="10.00">nix::Setting&lt; std::</text>
<text text-anchor="middle" x="530.88" y="-51.25" font-family="Helvetica,sans-Serif" font-size="10.00">string &gt;</text>
</a>
</g>
</g>
<!-- Node21&#45;&gt;Node17 -->
<g id="edge28_Node000017_Node000021" class="edge">
<title>Node21&#45;&gt;Node17</title>
<g id="a_edge28_Node000017_Node000021"><a xlink:title=" ">
<path fill="none" stroke="#9a32cd" stroke-dasharray="5,2" d="M594.54,-59.35C633.56,-59.8 684.53,-62.79 728.5,-73.25 778.14,-85.06 832.19,-111.89 860.21,-126.96"/>
<polygon fill="#9a32cd" stroke="#9a32cd" points="594.62,-55.85 584.6,-59.3 594.58,-62.85 594.62,-55.85"/>
</a>
</g>
<text text-anchor="middle" x="671" y="-89.25" font-family="Helvetica,sans-Serif" font-size="10.00" fill="grey"> remoteStore</text>
<text text-anchor="middle" x="671" y="-76.5" font-family="Helvetica,sans-Serif" font-size="10.00" fill="grey">sshPublicHostKey</text>
</g>
<!-- Node22&#45;&gt;Node21 -->
<g id="edge29_Node000021_Node000022" class="edge">
<title>Node22&#45;&gt;Node21</title>
<g id="a_edge29_Node000021_Node000022"><a xlink:title=" ">
<path fill="none" stroke="#63b8ff" d="M284.45,-80.05C343.75,-75.39 426.14,-68.91 478.74,-64.77"/>
<polygon fill="#63b8ff" stroke="#63b8ff" points="284.49,-76.54 274.8,-80.81 285.04,-83.52 284.49,-76.54"/>
</a>
</g>
</g>
</g>
</svg>
