<?xml version="1.0" encoding="UTF-8" standalone="no"?>
<!DOCTYPE svg PUBLIC "-//W3C//DTD SVG 1.1//EN"
 "http://www.w3.org/Graphics/SVG/1.1/DTD/svg11.dtd">
<!-- Generated by graphviz version 12.2.1 (0)
 -->
<!-- Title: nix::StorePathsCommand Pages: 1 -->
<svg width="1936pt" height="306pt"
 viewBox="0.00 0.00 1936.25 306.05" xmlns="http://www.w3.org/2000/svg" xmlns:xlink="http://www.w3.org/1999/xlink">
<g id="graph0" class="graph" transform="scale(1 1) rotate(0) translate(4 302.05)">
<title>nix::StorePathsCommand</title>
<!-- Node1 -->
<g id="Node000001" class="node">
<title>Node1</title>
<g id="a_Node000001"><a xlink:title=" ">
<polygon fill="#999999" stroke="#666666" points="1571.5,-161.05 1432.5,-161.05 1432.5,-140.3 1571.5,-140.3 1571.5,-161.05"/>
<text text-anchor="middle" x="1502" y="-147.55" font-family="Helvetica,sans-Serif" font-size="10.00">nix::StorePathsCommand</text>
</a>
</g>
</g>
<!-- Node14 -->
<g id="Node000014" class="node">
<title>Node14</title>
<g id="a_Node000014"><a xlink:href="structnix_1_1CmdCopySigs.html" target="_top" xlink:title=" ">
<polygon fill="white" stroke="#bfbfbf" points="1747.25,-298.05 1642.75,-298.05 1642.75,-277.3 1747.25,-277.3 1747.25,-298.05"/>
<text text-anchor="middle" x="1695" y="-284.55" font-family="Helvetica,sans-Serif" font-size="10.00">nix::CmdCopySigs</text>
</a>
</g>
</g>
<!-- Node1&#45;&gt;Node14 -->
<g id="edge19_Node000001_Node000014" class="edge">
<title>Node1&#45;&gt;Node14</title>
<g id="a_edge19_Node000001_Node000014"><a xlink:title=" ">
<path fill="none" stroke="#63b8ff" d="M1515.25,-170.81C1532.45,-197.28 1566.33,-243.31 1607.5,-267.68 1618.11,-273.96 1630.54,-278.27 1642.61,-281.22"/>
<polygon fill="#63b8ff" stroke="#63b8ff" points="1518.41,-169.26 1510.11,-162.67 1512.49,-172.99 1518.41,-169.26"/>
</a>
</g>
</g>
<!-- Node15 -->
<g id="Node000015" class="node">
<title>Node15</title>
<g id="a_Node000015"><a xlink:href="structnix_1_1CmdMakeContentAddressed.html" target="_top" xlink:title=" ">
<polygon fill="white" stroke="#bfbfbf" points="1782.5,-259.05 1607.5,-259.05 1607.5,-238.3 1782.5,-238.3 1782.5,-259.05"/>
<text text-anchor="middle" x="1695" y="-245.55" font-family="Helvetica,sans-Serif" font-size="10.00">nix::CmdMakeContentAddressed</text>
</a>
</g>
</g>
<!-- Node1&#45;&gt;Node15 -->
<g id="edge20_Node000001_Node000015" class="edge">
<title>Node1&#45;&gt;Node15</title>
<g id="a_edge20_Node000001_Node000015"><a xlink:title=" ">
<path fill="none" stroke="#63b8ff" d="M1522.31,-169.03C1542.15,-186.88 1574.7,-213.47 1607.5,-228.68 1615.47,-232.37 1624.18,-235.42 1632.9,-237.91"/>
<polygon fill="#63b8ff" stroke="#63b8ff" points="1524.73,-166.5 1515,-162.31 1519.99,-171.65 1524.73,-166.5"/>
</a>
</g>
</g>
<!-- Node16 -->
<g id="Node000016" class="node">
<title>Node16</title>
<g id="a_Node000016"><a xlink:href="structnix_1_1CmdPathInfo.html" target="_top" xlink:title=" ">
<polygon fill="white" stroke="#bfbfbf" points="1744.62,-220.05 1645.38,-220.05 1645.38,-199.3 1744.62,-199.3 1744.62,-220.05"/>
<text text-anchor="middle" x="1695" y="-206.55" font-family="Helvetica,sans-Serif" font-size="10.00">nix::CmdPathInfo</text>
</a>
</g>
</g>
<!-- Node1&#45;&gt;Node16 -->
<g id="edge21_Node000001_Node000016" class="edge">
<title>Node1&#45;&gt;Node16</title>
<g id="a_edge21_Node000001_Node000016"><a xlink:title=" ">
<path fill="none" stroke="#63b8ff" d="M1539.34,-165.57C1559.26,-173.39 1584.5,-182.76 1607.5,-189.68 1619.6,-193.32 1632.83,-196.68 1645.21,-199.57"/>
<polygon fill="#63b8ff" stroke="#63b8ff" points="1540.87,-162.41 1530.28,-161.97 1538.28,-168.91 1540.87,-162.41"/>
</a>
</g>
</g>
<!-- Node17 -->
<g id="Node000017" class="node">
<title>Node17</title>
<g id="a_Node000017"><a xlink:href="structnix_1_1CmdSign.html" target="_top" xlink:title=" ">
<polygon fill="white" stroke="#bfbfbf" points="1735.25,-181.05 1654.75,-181.05 1654.75,-160.3 1735.25,-160.3 1735.25,-181.05"/>
<text text-anchor="middle" x="1695" y="-167.55" font-family="Helvetica,sans-Serif" font-size="10.00">nix::CmdSign</text>
</a>
</g>
</g>
<!-- Node1&#45;&gt;Node17 -->
<g id="edge22_Node000001_Node000017" class="edge">
<title>Node1&#45;&gt;Node17</title>
<g id="a_edge22_Node000001_Node000017"><a xlink:title=" ">
<path fill="none" stroke="#63b8ff" d="M1583.13,-159.07C1607.71,-161.64 1633.7,-164.36 1654.32,-166.52"/>
<polygon fill="#63b8ff" stroke="#63b8ff" points="1583.77,-155.62 1573.46,-158.06 1583.04,-162.58 1583.77,-155.62"/>
</a>
</g>
</g>
<!-- Node18 -->
<g id="Node000018" class="node">
<title>Node18</title>
<g id="a_Node000018"><a xlink:href="structnix_1_1CmdStoreDelete.html" target="_top" xlink:title=" ">
<polygon fill="white" stroke="#bfbfbf" points="1753.62,-142.05 1636.38,-142.05 1636.38,-121.3 1753.62,-121.3 1753.62,-142.05"/>
<text text-anchor="middle" x="1695" y="-128.55" font-family="Helvetica,sans-Serif" font-size="10.00">nix::CmdStoreDelete</text>
</a>
</g>
</g>
<!-- Node1&#45;&gt;Node18 -->
<g id="edge23_Node000001_Node000018" class="edge">
<title>Node1&#45;&gt;Node18</title>
<g id="a_edge23_Node000001_Node000018"><a xlink:title=" ">
<path fill="none" stroke="#63b8ff" d="M1583.2,-142.7C1600.98,-140.93 1619.48,-139.09 1636.16,-137.43"/>
<polygon fill="#63b8ff" stroke="#63b8ff" points="1583.07,-139.2 1573.46,-143.67 1583.76,-146.16 1583.07,-139.2"/>
</a>
</g>
</g>
<!-- Node19 -->
<g id="Node000019" class="node">
<title>Node19</title>
<g id="a_Node000019"><a xlink:href="structnix_1_1CmdStoreRepair.html" target="_top" xlink:title=" ">
<polygon fill="white" stroke="#bfbfbf" points="1753.25,-103.05 1636.75,-103.05 1636.75,-82.3 1753.25,-82.3 1753.25,-103.05"/>
<text text-anchor="middle" x="1695" y="-89.55" font-family="Helvetica,sans-Serif" font-size="10.00">nix::CmdStoreRepair</text>
</a>
</g>
</g>
<!-- Node1&#45;&gt;Node19 -->
<g id="edge24_Node000001_Node000019" class="edge">
<title>Node1&#45;&gt;Node19</title>
<g id="a_edge24_Node000001_Node000019"><a xlink:title=" ">
<path fill="none" stroke="#63b8ff" d="M1540.47,-135.8C1560.22,-128.28 1584.96,-119.36 1607.5,-112.68 1618.73,-109.35 1630.92,-106.24 1642.5,-103.5"/>
<polygon fill="#63b8ff" stroke="#63b8ff" points="1539.25,-132.52 1531.18,-139.38 1541.77,-139.05 1539.25,-132.52"/>
</a>
</g>
</g>
<!-- Node20 -->
<g id="Node000020" class="node">
<title>Node20</title>
<g id="a_Node000020"><a xlink:href="structnix_1_1CmdVerify.html" target="_top" xlink:title=" ">
<polygon fill="white" stroke="#bfbfbf" points="1738.62,-64.05 1651.38,-64.05 1651.38,-43.3 1738.62,-43.3 1738.62,-64.05"/>
<text text-anchor="middle" x="1695" y="-50.55" font-family="Helvetica,sans-Serif" font-size="10.00">nix::CmdVerify</text>
</a>
</g>
</g>
<!-- Node1&#45;&gt;Node20 -->
<g id="edge25_Node000001_Node000020" class="edge">
<title>Node1&#45;&gt;Node20</title>
<g id="a_edge25_Node000001_Node000020"><a xlink:title=" ">
<path fill="none" stroke="#63b8ff" d="M1522.68,-132.29C1542.58,-114.68 1574.98,-88.64 1607.5,-73.68 1621.08,-67.43 1636.79,-63.05 1651.06,-60.01"/>
<polygon fill="#63b8ff" stroke="#63b8ff" points="1520.4,-129.63 1515.33,-138.93 1525.1,-134.82 1520.4,-129.63"/>
</a>
</g>
</g>
<!-- Node21 -->
<g id="Node000021" class="node">
<title>Node21</title>
<g id="a_Node000021"><a xlink:href="structnix_1_1StorePathCommand.html" target="_top" xlink:title=" ">
<polygon fill="white" stroke="#666666" points="1761.88,-25.05 1628.12,-25.05 1628.12,-4.3 1761.88,-4.3 1761.88,-25.05"/>
<text text-anchor="middle" x="1695" y="-11.55" font-family="Helvetica,sans-Serif" font-size="10.00">nix::StorePathCommand</text>
</a>
</g>
</g>
<!-- Node1&#45;&gt;Node21 -->
<g id="edge26_Node000001_Node000021" class="edge">
<title>Node1&#45;&gt;Node21</title>
<g id="a_edge26_Node000001_Node000021"><a xlink:title=" ">
<path fill="none" stroke="#63b8ff" d="M1515.52,-130.38C1532.84,-104.07 1566.65,-58.74 1607.5,-34.68 1613.74,-31 1620.61,-28 1627.66,-25.55"/>
<polygon fill="#63b8ff" stroke="#63b8ff" points="1512.58,-128.47 1510.14,-138.78 1518.48,-132.25 1512.58,-128.47"/>
</a>
</g>
</g>
<!-- Node2 -->
<g id="Node000002" class="node">
<title>Node2</title>
<g id="a_Node000002"><a xlink:href="structnix_1_1BuiltPathsCommand.html" target="_top" xlink:title=" ">
<polygon fill="white" stroke="#666666" points="1396.5,-161.05 1260.5,-161.05 1260.5,-140.3 1396.5,-140.3 1396.5,-161.05"/>
<text text-anchor="middle" x="1328.5" y="-147.55" font-family="Helvetica,sans-Serif" font-size="10.00">nix::BuiltPathsCommand</text>
</a>
</g>
</g>
<!-- Node2&#45;&gt;Node1 -->
<g id="edge1_Node000001_Node000002" class="edge">
<title>Node2&#45;&gt;Node1</title>
<g id="a_edge1_Node000001_Node000002"><a xlink:title=" ">
<path fill="none" stroke="#63b8ff" d="M1408.09,-150.68C1416.14,-150.68 1424.28,-150.68 1432.21,-150.68"/>
<polygon fill="#63b8ff" stroke="#63b8ff" points="1408.3,-147.18 1398.3,-150.68 1408.3,-154.18 1408.3,-147.18"/>
</a>
</g>
</g>
<!-- Node3 -->
<g id="Node000003" class="node">
<title>Node3</title>
<g id="a_Node000003"><a xlink:href="structnix_1_1InstallablesCommand.html" target="_top" xlink:title=" ">
<polygon fill="white" stroke="#666666" points="1224.5,-190.05 1081,-190.05 1081,-169.3 1224.5,-169.3 1224.5,-190.05"/>
<text text-anchor="middle" x="1152.75" y="-176.55" font-family="Helvetica,sans-Serif" font-size="10.00">nix::InstallablesCommand</text>
</a>
</g>
</g>
<!-- Node3&#45;&gt;Node2 -->
<g id="edge2_Node000002_Node000003" class="edge">
<title>Node3&#45;&gt;Node2</title>
<g id="a_edge2_Node000002_Node000003"><a xlink:title=" ">
<path fill="none" stroke="#63b8ff" d="M1229.71,-167C1240.63,-165.18 1251.78,-163.32 1262.46,-161.53"/>
<polygon fill="#63b8ff" stroke="#63b8ff" points="1229.23,-163.53 1219.94,-168.63 1230.38,-170.44 1229.23,-163.53"/>
</a>
</g>
</g>
<!-- Node4 -->
<g id="Node000004" class="node">
<title>Node4</title>
<g id="a_Node000004"><a xlink:href="structnix_1_1RawInstallablesCommand.html" target="_top" xlink:title=" ">
<polygon fill="white" stroke="#666666" points="1045,-199.05 880.5,-199.05 880.5,-178.3 1045,-178.3 1045,-199.05"/>
<text text-anchor="middle" x="962.75" y="-185.55" font-family="Helvetica,sans-Serif" font-size="10.00">nix::RawInstallablesCommand</text>
</a>
</g>
</g>
<!-- Node4&#45;&gt;Node3 -->
<g id="edge3_Node000003_Node000004" class="edge">
<title>Node4&#45;&gt;Node3</title>
<g id="a_edge3_Node000003_Node000004"><a xlink:title=" ">
<path fill="none" stroke="#63b8ff" d="M1056.68,-184.23C1064.69,-183.85 1072.71,-183.46 1080.51,-183.09"/>
<polygon fill="#63b8ff" stroke="#63b8ff" points="1056.72,-180.72 1046.9,-184.7 1057.06,-187.72 1056.72,-180.72"/>
</a>
</g>
</g>
<!-- Node5 -->
<g id="Node000005" class="node">
<title>Node5</title>
<g id="a_Node000005"><a xlink:href="classnix_1_1Args.html" target="_top" xlink:title=" ">
<polygon fill="white" stroke="#bfbfbf" points="58.75,-133.05 0,-133.05 0,-112.3 58.75,-112.3 58.75,-133.05"/>
<text text-anchor="middle" x="29.38" y="-119.55" font-family="Helvetica,sans-Serif" font-size="10.00">nix::Args</text>
</a>
</g>
</g>
<!-- Node5&#45;&gt;Node4 -->
<g id="edge4_Node000004_Node000005" class="edge">
<title>Node5&#45;&gt;Node4</title>
<g id="a_edge4_Node000004_Node000005"><a xlink:title=" ">
<path fill="none" stroke="#63b8ff" d="M44.29,-142.62C56.03,-157.97 74.18,-178.56 94.75,-190.68 165.38,-232.29 191.4,-236.68 273.38,-236.68 273.38,-236.68 273.38,-236.68 608.12,-236.68 717.94,-236.68 845.21,-213.67 913.12,-199.51"/>
<polygon fill="#63b8ff" stroke="#63b8ff" points="47.17,-140.63 38.43,-134.64 41.53,-144.78 47.17,-140.63"/>
</a>
</g>
</g>
<!-- Node6 -->
<g id="Node000006" class="node">
<title>Node6</title>
<g id="a_Node000006"><a xlink:href="structnix_1_1SourceExprCommand.html" target="_top" xlink:title=" ">
<polygon fill="white" stroke="#bfbfbf" points="844.5,-199.05 702.5,-199.05 702.5,-178.3 844.5,-178.3 844.5,-199.05"/>
<text text-anchor="middle" x="773.5" y="-185.55" font-family="Helvetica,sans-Serif" font-size="10.00">nix::SourceExprCommand</text>
</a>
</g>
</g>
<!-- Node5&#45;&gt;Node6 -->
<g id="edge6_Node000006_Node000005" class="edge">
<title>Node5&#45;&gt;Node6</title>
<g id="a_edge6_Node000006_Node000005"><a xlink:title=" ">
<path fill="none" stroke="#63b8ff" d="M54.41,-139.94C66.1,-147.6 80.64,-156.13 94.75,-161.68 170.21,-191.33 192.3,-198.68 273.38,-198.68 273.38,-198.68 273.38,-198.68 440.25,-198.68 530.71,-198.68 634.96,-194.93 702.19,-192.02"/>
<polygon fill="#63b8ff" stroke="#63b8ff" points="56.45,-137.09 46.21,-134.36 52.52,-142.88 56.45,-137.09"/>
</a>
</g>
</g>
<!-- Node7 -->
<g id="Node000007" class="node">
<title>Node7</title>
<g id="a_Node000007"><a xlink:href="structnix_1_1MixFlakeOptions.html" target="_top" xlink:title=" ">
<polygon fill="white" stroke="#666666" points="666.5,-171.05 547.75,-171.05 547.75,-150.3 666.5,-150.3 666.5,-171.05"/>
<text text-anchor="middle" x="607.12" y="-157.55" font-family="Helvetica,sans-Serif" font-size="10.00">nix::MixFlakeOptions</text>
</a>
</g>
</g>
<!-- Node5&#45;&gt;Node7 -->
<g id="edge8_Node000007_Node000005" class="edge">
<title>Node5&#45;&gt;Node7</title>
<g id="a_edge8_Node000007_Node000005"><a xlink:title=" ">
<path fill="none" stroke="#63b8ff" d="M70.19,-136.11C78.24,-138.35 86.7,-140.36 94.75,-141.68 256.95,-168.2 451.78,-166.31 547.37,-163.22"/>
<polygon fill="#63b8ff" stroke="#63b8ff" points="71.21,-132.76 60.63,-133.28 69.23,-139.47 71.21,-132.76"/>
</a>
</g>
</g>
<!-- Node10 -->
<g id="Node000010" class="node">
<title>Node10</title>
<g id="a_Node000010"><a xlink:href="structnix_1_1Command.html" target="_top" xlink:title=" ">
<polygon fill="white" stroke="#666666" points="182,-133.05 94.75,-133.05 94.75,-112.3 182,-112.3 182,-133.05"/>
<text text-anchor="middle" x="138.38" y="-119.55" font-family="Helvetica,sans-Serif" font-size="10.00">nix::Command</text>
</a>
</g>
</g>
<!-- Node5&#45;&gt;Node10 -->
<g id="edge12_Node000010_Node000005" class="edge">
<title>Node5&#45;&gt;Node10</title>
<g id="a_edge12_Node000010_Node000005"><a xlink:title=" ">
<path fill="none" stroke="#63b8ff" d="M70.53,-122.68C78.37,-122.68 86.61,-122.68 94.53,-122.68"/>
<polygon fill="#63b8ff" stroke="#63b8ff" points="70.56,-119.18 60.56,-122.68 70.56,-126.18 70.56,-119.18"/>
</a>
</g>
</g>
<!-- Node11 -->
<g id="Node000011" class="node">
<title>Node11</title>
<g id="a_Node000011"><a xlink:href="structnix_1_1MixEvalArgs.html" target="_top" xlink:title=" ">
<polygon fill="white" stroke="#bfbfbf" points="323.25,-94.05 225.5,-94.05 225.5,-73.3 323.25,-73.3 323.25,-94.05"/>
<text text-anchor="middle" x="274.38" y="-80.55" font-family="Helvetica,sans-Serif" font-size="10.00">nix::MixEvalArgs</text>
</a>
</g>
</g>
<!-- Node5&#45;&gt;Node11 -->
<g id="edge14_Node000011_Node000005" class="edge">
<title>Node5&#45;&gt;Node11</title>
<g id="a_edge14_Node000011_Node000005"><a xlink:title=" ">
<path fill="none" stroke="#63b8ff" d="M69.76,-109.87C77.96,-107.54 86.58,-105.33 94.75,-103.68 138.49,-94.85 189.1,-89.64 225.26,-86.77"/>
<polygon fill="#63b8ff" stroke="#63b8ff" points="68.99,-106.45 60.4,-112.64 70.98,-113.16 68.99,-106.45"/>
</a>
</g>
</g>
<!-- Node12 -->
<g id="Node000012" class="node">
<title>Node12</title>
<g id="a_Node000012"><a xlink:href="structnix_1_1MixRepair.html" target="_top" xlink:title=" ">
<polygon fill="white" stroke="#bfbfbf" points="181.62,-57.05 95.12,-57.05 95.12,-36.3 181.62,-36.3 181.62,-57.05"/>
<text text-anchor="middle" x="138.38" y="-43.55" font-family="Helvetica,sans-Serif" font-size="10.00">nix::MixRepair</text>
</a>
</g>
</g>
<!-- Node5&#45;&gt;Node12 -->
<g id="edge16_Node000012_Node000005" class="edge">
<title>Node5&#45;&gt;Node12</title>
<g id="a_edge16_Node000012_Node000005"><a xlink:title=" ">
<path fill="none" stroke="#63b8ff" d="M50.84,-104.69C63.16,-94.23 79.4,-81.09 94.75,-70.68 101.64,-66.01 109.5,-61.39 116.58,-57.48"/>
<polygon fill="#63b8ff" stroke="#63b8ff" points="48.69,-101.92 43.4,-111.09 53.26,-107.22 48.69,-101.92"/>
</a>
</g>
</g>
<!-- Node13 -->
<g id="Node000013" class="node">
<title>Node13</title>
<g id="a_Node000013"><a xlink:href="structnix_1_1MixOperateOnOptions.html" target="_top" xlink:title=" ">
<polygon fill="white" stroke="#bfbfbf" points="511.75,-57.05 366.75,-57.05 366.75,-36.3 511.75,-36.3 511.75,-57.05"/>
<text text-anchor="middle" x="439.25" y="-43.55" font-family="Helvetica,sans-Serif" font-size="10.00">nix::MixOperateOnOptions</text>
</a>
</g>
</g>
<!-- Node5&#45;&gt;Node13 -->
<g id="edge18_Node000013_Node000005" class="edge">
<title>Node5&#45;&gt;Node13</title>
<g id="a_edge18_Node000013_Node000005"><a xlink:title=" ">
<path fill="none" stroke="#63b8ff" d="M37.95,-101.12C47.32,-78.18 65.67,-43.1 94.75,-27.68 199.49,27.87 348.32,-14.15 409.9,-35.83"/>
<polygon fill="#63b8ff" stroke="#63b8ff" points="34.69,-99.84 34.4,-110.43 41.24,-102.33 34.69,-99.84"/>
</a>
</g>
</g>
<!-- Node6&#45;&gt;Node4 -->
<g id="edge5_Node000004_Node000006" class="edge">
<title>Node6&#45;&gt;Node4</title>
<g id="a_edge5_Node000004_Node000006"><a xlink:title=" ">
<path fill="none" stroke="#63b8ff" d="M856.23,-188.68C864.14,-188.68 872.16,-188.68 880.07,-188.68"/>
<polygon fill="#63b8ff" stroke="#63b8ff" points="856.27,-185.18 846.27,-188.68 856.27,-192.18 856.27,-185.18"/>
</a>
</g>
</g>
<!-- Node7&#45;&gt;Node6 -->
<g id="edge7_Node000006_Node000007" class="edge">
<title>Node7&#45;&gt;Node6</title>
<g id="a_edge7_Node000006_Node000007"><a xlink:title=" ">
<path fill="none" stroke="#63b8ff" d="M677.59,-172.51C687.91,-174.27 698.5,-176.07 708.69,-177.81"/>
<polygon fill="#63b8ff" stroke="#63b8ff" points="678.48,-169.11 668.03,-170.88 677.3,-176.01 678.48,-169.11"/>
</a>
</g>
</g>
<!-- Node8 -->
<g id="Node000008" class="node">
<title>Node8</title>
<g id="a_Node000008"><a xlink:href="structnix_1_1EvalCommand.html" target="_top" xlink:title=" ">
<polygon fill="white" stroke="#666666" points="493.38,-133.05 385.12,-133.05 385.12,-112.3 493.38,-112.3 493.38,-133.05"/>
<text text-anchor="middle" x="439.25" y="-119.55" font-family="Helvetica,sans-Serif" font-size="10.00">nix::EvalCommand</text>
</a>
</g>
</g>
<!-- Node8&#45;&gt;Node7 -->
<g id="edge9_Node000007_Node000008" class="edge">
<title>Node8&#45;&gt;Node7</title>
<g id="a_edge9_Node000007_Node000008"><a xlink:title=" ">
<path fill="none" stroke="#63b8ff" d="M498.41,-136C518.21,-140.54 540.08,-145.55 558.92,-149.86"/>
<polygon fill="#63b8ff" stroke="#63b8ff" points="499.34,-132.63 488.81,-133.8 497.78,-139.45 499.34,-132.63"/>
</a>
</g>
</g>
<!-- Node9 -->
<g id="Node000009" class="node">
<title>Node9</title>
<g id="a_Node000009"><a xlink:href="structnix_1_1StoreCommand.html" target="_top" xlink:title=" ">
<polygon fill="white" stroke="#666666" points="330.75,-133.05 218,-133.05 218,-112.3 330.75,-112.3 330.75,-133.05"/>
<text text-anchor="middle" x="274.38" y="-119.55" font-family="Helvetica,sans-Serif" font-size="10.00">nix::StoreCommand</text>
</a>
</g>
</g>
<!-- Node9&#45;&gt;Node8 -->
<g id="edge10_Node000008_Node000009" class="edge">
<title>Node9&#45;&gt;Node8</title>
<g id="a_edge10_Node000008_Node000009"><a xlink:title=" ">
<path fill="none" stroke="#63b8ff" d="M342.19,-122.68C356.39,-122.68 371.21,-122.68 384.83,-122.68"/>
<polygon fill="#63b8ff" stroke="#63b8ff" points="342.49,-119.18 332.49,-122.68 342.49,-126.18 342.49,-119.18"/>
</a>
</g>
</g>
<!-- Node10&#45;&gt;Node9 -->
<g id="edge11_Node000009_Node000010" class="edge">
<title>Node10&#45;&gt;Node9</title>
<g id="a_edge11_Node000009_Node000010"><a xlink:title=" ">
<path fill="none" stroke="#63b8ff" d="M193.59,-122.68C201.57,-122.68 209.79,-122.68 217.79,-122.68"/>
<polygon fill="#63b8ff" stroke="#63b8ff" points="193.66,-119.18 183.66,-122.68 193.66,-126.18 193.66,-119.18"/>
</a>
</g>
</g>
<!-- Node11&#45;&gt;Node8 -->
<g id="edge13_Node000008_Node000011" class="edge">
<title>Node11&#45;&gt;Node8</title>
<g id="a_edge13_Node000008_Node000011"><a xlink:title=" ">
<path fill="none" stroke="#63b8ff" d="M331.87,-97.21C351.8,-101.98 373.94,-107.28 392.84,-111.81"/>
<polygon fill="#63b8ff" stroke="#63b8ff" points="332.76,-93.82 322.22,-94.89 331.13,-100.63 332.76,-93.82"/>
</a>
</g>
</g>
<!-- Node12&#45;&gt;Node11 -->
<g id="edge15_Node000011_Node000012" class="edge">
<title>Node12&#45;&gt;Node11</title>
<g id="a_edge15_Node000011_Node000012"><a xlink:title=" ">
<path fill="none" stroke="#63b8ff" d="M189.56,-60.54C204.4,-64.63 220.42,-69.06 234.44,-72.93"/>
<polygon fill="#63b8ff" stroke="#63b8ff" points="190.52,-57.17 179.95,-57.88 188.66,-63.92 190.52,-57.17"/>
</a>
</g>
</g>
<!-- Node13&#45;&gt;Node2 -->
<g id="edge17_Node000002_Node000013" class="edge">
<title>Node13&#45;&gt;Node2</title>
<g id="a_edge17_Node000002_Node000013"><a xlink:title=" ">
<path fill="none" stroke="#63b8ff" d="M478.43,-61.32C539.56,-83.4 663.6,-122.68 772.5,-122.68 772.5,-122.68 772.5,-122.68 963.75,-122.68 1067.47,-122.68 1187.33,-134.13 1260.24,-142.39"/>
<polygon fill="#63b8ff" stroke="#63b8ff" points="479.78,-58.08 469.19,-57.93 477.37,-64.66 479.78,-58.08"/>
</a>
</g>
</g>
<!-- Node22 -->
<g id="Node000022" class="node">
<title>Node22</title>
<g id="a_Node000022"><a xlink:href="structnix_1_1CmdDumpPath.html" target="_top" xlink:title=" ">
<polygon fill="white" stroke="#bfbfbf" points="1928.25,-25.05 1818.5,-25.05 1818.5,-4.3 1928.25,-4.3 1928.25,-25.05"/>
<text text-anchor="middle" x="1873.38" y="-11.55" font-family="Helvetica,sans-Serif" font-size="10.00">nix::CmdDumpPath</text>
</a>
</g>
</g>
<!-- Node21&#45;&gt;Node22 -->
<g id="edge27_Node000021_Node000022" class="edge">
<title>Node21&#45;&gt;Node22</title>
<g id="a_edge27_Node000021_Node000022"><a xlink:title=" ">
<path fill="none" stroke="#63b8ff" d="M1773.58,-14.68C1788.63,-14.68 1804.1,-14.68 1818.2,-14.68"/>
<polygon fill="#63b8ff" stroke="#63b8ff" points="1773.69,-11.18 1763.69,-14.68 1773.69,-18.18 1773.69,-11.18"/>
</a>
</g>
</g>
</g>
</svg>
