<?xml version="1.0" encoding="UTF-8" standalone="no"?>
<!DOCTYPE svg PUBLIC "-//W3C//DTD SVG 1.1//EN"
 "http://www.w3.org/Graphics/SVG/1.1/DTD/svg11.dtd">
<!-- Generated by graphviz version 12.2.1 (0)
 -->
<!-- Title: nix::NewValueAs Pages: 1 -->
<svg width="367pt" height="579pt"
 viewBox="0.00 0.00 367.00 578.59" xmlns="http://www.w3.org/2000/svg" xmlns:xlink="http://www.w3.org/1999/xlink">
<g id="graph0" class="graph" transform="scale(1 1) rotate(0) translate(4 574.59)">
<title>nix::NewValueAs</title>
<!-- Node1 -->
<g id="Node000001" class="node">
<title>Node1</title>
<g id="a_Node000001"><a xlink:title=" ">
<polygon fill="#999999" stroke="#666666" points="359,-293.75 261.25,-293.75 261.25,-273 359,-273 359,-293.75"/>
<text text-anchor="middle" x="310.12" y="-280.25" font-family="Helvetica,sans-Serif" font-size="10.00">nix::NewValueAs</text>
</a>
</g>
</g>
<!-- Node2 -->
<g id="Node000002" class="node">
<title>Node2</title>
<g id="a_Node000002"><a xlink:href="structnix_1_1NewValueAs_1_1integer__t.html" target="_top" xlink:title=" ">
<polygon fill="white" stroke="#bfbfbf" points="157.38,-566.75 10.12,-566.75 10.12,-546 157.38,-546 157.38,-566.75"/>
<text text-anchor="middle" x="83.75" y="-553.25" font-family="Helvetica,sans-Serif" font-size="10.00">nix::NewValueAs::integer_t</text>
</a>
</g>
</g>
<!-- Node2&#45;&gt;Node1 -->
<g id="edge1_Node000001_Node000002" class="edge">
<title>Node2&#45;&gt;Node1</title>
<g id="a_edge1_Node000001_Node000002"><a xlink:title=" ">
<path fill="none" stroke="#9a32cd" stroke-dasharray="5,2" d="M168.9,-560.38C195.5,-557.46 223.16,-549.49 243.25,-531.38 279.81,-498.41 302.34,-337.54 307.82,-294.17"/>
<polygon fill="#9a32cd" stroke="#9a32cd" points="168.77,-556.87 159.1,-561.2 169.36,-563.85 168.77,-556.87"/>
</a>
</g>
<text text-anchor="middle" x="214.38" y="-561.09" font-family="Helvetica,sans-Serif" font-size="10.00" fill="grey"> integer</text>
</g>
<!-- Node3 -->
<g id="Node000003" class="node">
<title>Node3</title>
<g id="a_Node000003"><a xlink:href="structnix_1_1NewValueAs_1_1floating__t.html" target="_top" xlink:title=" ">
<polygon fill="white" stroke="#bfbfbf" points="158.5,-527.75 9,-527.75 9,-507 158.5,-507 158.5,-527.75"/>
<text text-anchor="middle" x="83.75" y="-514.25" font-family="Helvetica,sans-Serif" font-size="10.00">nix::NewValueAs::floating_t</text>
</a>
</g>
</g>
<!-- Node3&#45;&gt;Node1 -->
<g id="edge2_Node000001_Node000003" class="edge">
<title>Node3&#45;&gt;Node1</title>
<g id="a_edge2_Node000001_Node000003"><a xlink:title=" ">
<path fill="none" stroke="#9a32cd" stroke-dasharray="5,2" d="M169.96,-518.24C196.09,-514.49 223.2,-505.98 243.25,-488.38 303.37,-435.6 309.01,-327.81 309.24,-293.86"/>
<polygon fill="#9a32cd" stroke="#9a32cd" points="169.86,-514.73 160.35,-519.39 170.7,-521.68 169.86,-514.73"/>
</a>
</g>
<text text-anchor="middle" x="214.38" y="-517.75" font-family="Helvetica,sans-Serif" font-size="10.00" fill="grey"> floating</text>
</g>
<!-- Node4 -->
<g id="Node000004" class="node">
<title>Node4</title>
<g id="a_Node000004"><a xlink:href="structnix_1_1NewValueAs_1_1boolean__t.html" target="_top" xlink:title=" ">
<polygon fill="white" stroke="#bfbfbf" points="159.62,-488.75 7.88,-488.75 7.88,-468 159.62,-468 159.62,-488.75"/>
<text text-anchor="middle" x="83.75" y="-475.25" font-family="Helvetica,sans-Serif" font-size="10.00">nix::NewValueAs::boolean_t</text>
</a>
</g>
</g>
<!-- Node4&#45;&gt;Node1 -->
<g id="edge3_Node000001_Node000004" class="edge">
<title>Node4&#45;&gt;Node1</title>
<g id="a_edge3_Node000001_Node000004"><a xlink:title=" ">
<path fill="none" stroke="#9a32cd" stroke-dasharray="5,2" d="M171.1,-475.66C196.65,-471.08 223.13,-462.15 243.25,-445.38 291.76,-404.94 304.93,-323.27 308.16,-294.06"/>
<polygon fill="#9a32cd" stroke="#9a32cd" points="170.69,-472.19 161.35,-477.19 171.77,-479.1 170.69,-472.19"/>
</a>
</g>
<text text-anchor="middle" x="214.38" y="-475" font-family="Helvetica,sans-Serif" font-size="10.00" fill="grey"> boolean</text>
</g>
<!-- Node5 -->
<g id="Node000005" class="node">
<title>Node5</title>
<g id="a_Node000005"><a xlink:href="structnix_1_1NewValueAs_1_1string__t.html" target="_top" xlink:title=" ">
<polygon fill="white" stroke="#bfbfbf" points="154,-449.75 13.5,-449.75 13.5,-429 154,-429 154,-449.75"/>
<text text-anchor="middle" x="83.75" y="-436.25" font-family="Helvetica,sans-Serif" font-size="10.00">nix::NewValueAs::string_t</text>
</a>
</g>
</g>
<!-- Node5&#45;&gt;Node1 -->
<g id="edge4_Node000001_Node000005" class="edge">
<title>Node5&#45;&gt;Node1</title>
<g id="a_edge4_Node000001_Node000005"><a xlink:title=" ">
<path fill="none" stroke="#9a32cd" stroke-dasharray="5,2" d="M165.75,-433.64C192.5,-428.49 221.06,-419.15 243.25,-402.38 280.74,-374.04 299.75,-317.85 306.36,-294.23"/>
<polygon fill="#9a32cd" stroke="#9a32cd" points="165.17,-430.19 155.91,-435.34 166.36,-437.09 165.17,-430.19"/>
</a>
</g>
<text text-anchor="middle" x="214.38" y="-431.7" font-family="Helvetica,sans-Serif" font-size="10.00" fill="grey"> string</text>
</g>
<!-- Node6 -->
<g id="Node000006" class="node">
<title>Node6</title>
<g id="a_Node000006"><a xlink:href="structnix_1_1NewValueAs_1_1path__t.html" target="_top" xlink:title=" ">
<polygon fill="white" stroke="#bfbfbf" points="151,-410.75 16.5,-410.75 16.5,-390 151,-390 151,-410.75"/>
<text text-anchor="middle" x="83.75" y="-397.25" font-family="Helvetica,sans-Serif" font-size="10.00">nix::NewValueAs::path_t</text>
</a>
</g>
</g>
<!-- Node6&#45;&gt;Node1 -->
<g id="edge5_Node000001_Node000006" class="edge">
<title>Node6&#45;&gt;Node1</title>
<g id="a_edge5_Node000001_Node000006"><a xlink:title=" ">
<path fill="none" stroke="#9a32cd" stroke-dasharray="5,2" d="M162.29,-391.39C189.39,-385.72 219.05,-376.47 243.25,-361.38 271.07,-344.02 293.09,-311.02 303.16,-294.04"/>
<polygon fill="#9a32cd" stroke="#9a32cd" points="161.89,-387.9 152.74,-393.25 163.23,-394.77 161.89,-387.9"/>
</a>
</g>
<text text-anchor="middle" x="214.38" y="-388.8" font-family="Helvetica,sans-Serif" font-size="10.00" fill="grey"> path</text>
</g>
<!-- Node7 -->
<g id="Node000007" class="node">
<title>Node7</title>
<g id="a_Node000007"><a xlink:href="structnix_1_1NewValueAs_1_1list__t.html" target="_top" xlink:title=" ">
<polygon fill="white" stroke="#bfbfbf" points="147.62,-371.75 19.88,-371.75 19.88,-351 147.62,-351 147.62,-371.75"/>
<text text-anchor="middle" x="83.75" y="-358.25" font-family="Helvetica,sans-Serif" font-size="10.00">nix::NewValueAs::list_t</text>
</a>
</g>
</g>
<!-- Node7&#45;&gt;Node1 -->
<g id="edge6_Node000001_Node000007" class="edge">
<title>Node7&#45;&gt;Node1</title>
<g id="a_edge6_Node000001_Node000007"><a xlink:title=" ">
<path fill="none" stroke="#9a32cd" stroke-dasharray="5,2" d="M159.08,-350.7C186.23,-345.32 216.76,-337.51 243.25,-326.38 262.89,-318.12 283.06,-303.96 295.81,-294.15"/>
<polygon fill="#9a32cd" stroke="#9a32cd" points="158.73,-347.2 149.56,-352.5 160.04,-354.08 158.73,-347.2"/>
</a>
</g>
<text text-anchor="middle" x="214.38" y="-347.43" font-family="Helvetica,sans-Serif" font-size="10.00" fill="grey"> list</text>
</g>
<!-- Node8 -->
<g id="Node000008" class="node">
<title>Node8</title>
<g id="a_Node000008"><a xlink:href="structnix_1_1NewValueAs_1_1attrs__t.html" target="_top" xlink:title=" ">
<polygon fill="white" stroke="#bfbfbf" points="151.38,-332.75 16.12,-332.75 16.12,-312 151.38,-312 151.38,-332.75"/>
<text text-anchor="middle" x="83.75" y="-319.25" font-family="Helvetica,sans-Serif" font-size="10.00">nix::NewValueAs::attrs_t</text>
</a>
</g>
</g>
<!-- Node8&#45;&gt;Node1 -->
<g id="edge7_Node000001_Node000008" class="edge">
<title>Node8&#45;&gt;Node1</title>
<g id="a_edge7_Node000001_Node000008"><a xlink:title=" ">
<path fill="none" stroke="#9a32cd" stroke-dasharray="5,2" d="M162.94,-313.33C188.63,-309.88 217.25,-305.52 243.25,-300.38 252.06,-298.63 261.44,-296.43 270.28,-294.19"/>
<polygon fill="#9a32cd" stroke="#9a32cd" points="162.7,-309.83 153.24,-314.61 163.61,-316.77 162.7,-309.83"/>
</a>
</g>
<text text-anchor="middle" x="214.38" y="-313.21" font-family="Helvetica,sans-Serif" font-size="10.00" fill="grey"> attrs</text>
</g>
<!-- Node9 -->
<g id="Node000009" class="node">
<title>Node9</title>
<g id="a_Node000009"><a xlink:href="structnix_1_1NewValueAs_1_1thunk__t.html" target="_top" xlink:title=" ">
<polygon fill="white" stroke="#bfbfbf" points="154,-293.75 13.5,-293.75 13.5,-273 154,-273 154,-293.75"/>
<text text-anchor="middle" x="83.75" y="-280.25" font-family="Helvetica,sans-Serif" font-size="10.00">nix::NewValueAs::thunk_t</text>
</a>
</g>
</g>
<!-- Node9&#45;&gt;Node1 -->
<g id="edge8_Node000001_Node000009" class="edge">
<title>Node9&#45;&gt;Node1</title>
<g id="a_edge8_Node000001_Node000009"><a xlink:title=" ">
<path fill="none" stroke="#9a32cd" stroke-dasharray="5,2" d="M165.36,-283.38C197.37,-283.38 233.12,-283.38 260.96,-283.38"/>
<polygon fill="#9a32cd" stroke="#9a32cd" points="165.72,-279.88 155.72,-283.38 165.72,-286.88 165.72,-279.88"/>
</a>
</g>
<text text-anchor="middle" x="214.38" y="-286.62" font-family="Helvetica,sans-Serif" font-size="10.00" fill="grey"> thunk</text>
</g>
<!-- Node10 -->
<g id="Node000010" class="node">
<title>Node10</title>
<g id="a_Node000010"><a xlink:href="structnix_1_1NewValueAs_1_1null__t.html" target="_top" xlink:title=" ">
<polygon fill="white" stroke="#bfbfbf" points="149.12,-254.75 18.38,-254.75 18.38,-234 149.12,-234 149.12,-254.75"/>
<text text-anchor="middle" x="83.75" y="-241.25" font-family="Helvetica,sans-Serif" font-size="10.00">nix::NewValueAs::null_t</text>
</a>
</g>
</g>
<!-- Node10&#45;&gt;Node1 -->
<g id="edge9_Node000001_Node000010" class="edge">
<title>Node10&#45;&gt;Node1</title>
<g id="a_edge9_Node000001_Node000010"><a xlink:title=" ">
<path fill="none" stroke="#9a32cd" stroke-dasharray="5,2" d="M160.82,-253.33C187.04,-256.88 216.53,-261.37 243.25,-266.62 251.82,-268.31 260.94,-270.42 269.57,-272.57"/>
<polygon fill="#9a32cd" stroke="#9a32cd" points="161.28,-249.86 150.91,-252.02 160.37,-256.8 161.28,-249.86"/>
</a>
</g>
<text text-anchor="middle" x="214.38" y="-269.88" font-family="Helvetica,sans-Serif" font-size="10.00" fill="grey"> null</text>
</g>
<!-- Node11 -->
<g id="Node000011" class="node">
<title>Node11</title>
<g id="a_Node000011"><a xlink:href="structnix_1_1NewValueAs_1_1app__t.html" target="_top" xlink:title=" ">
<polygon fill="white" stroke="#bfbfbf" points="149.12,-215.75 18.38,-215.75 18.38,-195 149.12,-195 149.12,-215.75"/>
<text text-anchor="middle" x="83.75" y="-202.25" font-family="Helvetica,sans-Serif" font-size="10.00">nix::NewValueAs::app_t</text>
</a>
</g>
</g>
<!-- Node11&#45;&gt;Node1 -->
<g id="edge10_Node000001_Node000011" class="edge">
<title>Node11&#45;&gt;Node1</title>
<g id="a_edge10_Node000001_Node000011"><a xlink:title=" ">
<path fill="none" stroke="#9a32cd" stroke-dasharray="5,2" d="M160.83,-216.58C187.53,-221.99 217.32,-229.75 243.25,-240.62 262.86,-248.85 283.03,-262.93 295.8,-272.67"/>
<polygon fill="#9a32cd" stroke="#9a32cd" points="161.57,-213.16 151.08,-214.69 160.23,-220.03 161.57,-213.16"/>
</a>
</g>
<text text-anchor="middle" x="214.38" y="-243.88" font-family="Helvetica,sans-Serif" font-size="10.00" fill="grey"> app</text>
</g>
<!-- Node12 -->
<g id="Node000012" class="node">
<title>Node12</title>
<g id="a_Node000012"><a xlink:href="structnix_1_1NewValueAs_1_1primop__t.html" target="_top" xlink:title=" ">
<polygon fill="white" stroke="#bfbfbf" points="157.38,-176.75 10.12,-176.75 10.12,-156 157.38,-156 157.38,-176.75"/>
<text text-anchor="middle" x="83.75" y="-163.25" font-family="Helvetica,sans-Serif" font-size="10.00">nix::NewValueAs::primop_t</text>
</a>
</g>
</g>
<!-- Node12&#45;&gt;Node1 -->
<g id="edge11_Node000001_Node000012" class="edge">
<title>Node12&#45;&gt;Node1</title>
<g id="a_edge11_Node000001_Node000012"><a xlink:title=" ">
<path fill="none" stroke="#9a32cd" stroke-dasharray="5,2" d="M168.69,-176.9C193.99,-182.7 220.95,-191.69 243.25,-205.62 271.01,-222.97 293.05,-255.85 303.14,-272.75"/>
<polygon fill="#9a32cd" stroke="#9a32cd" points="169.57,-173.51 159.06,-174.85 168.11,-180.36 169.57,-173.51"/>
</a>
</g>
<text text-anchor="middle" x="214.38" y="-208.88" font-family="Helvetica,sans-Serif" font-size="10.00" fill="grey"> primop</text>
</g>
<!-- Node13 -->
<g id="Node000013" class="node">
<title>Node13</title>
<g id="a_Node000013"><a xlink:href="structnix_1_1NewValueAs_1_1primOpApp__t.html" target="_top" xlink:title=" ">
<polygon fill="white" stroke="#bfbfbf" points="167.5,-137.75 0,-137.75 0,-117 167.5,-117 167.5,-137.75"/>
<text text-anchor="middle" x="83.75" y="-124.25" font-family="Helvetica,sans-Serif" font-size="10.00">nix::NewValueAs::primOpApp_t</text>
</a>
</g>
</g>
<!-- Node13&#45;&gt;Node1 -->
<g id="edge12_Node000001_Node000013" class="edge">
<title>Node13&#45;&gt;Node1</title>
<g id="a_edge12_Node000001_Node000013"><a xlink:title=" ">
<path fill="none" stroke="#9a32cd" stroke-dasharray="5,2" d="M178.85,-136.13C201.58,-141.69 224.65,-150.56 243.25,-164.62 280.67,-192.93 299.72,-248.98 306.35,-272.54"/>
<polygon fill="#9a32cd" stroke="#9a32cd" points="179.74,-132.74 169.21,-133.98 178.22,-139.57 179.74,-132.74"/>
</a>
</g>
<text text-anchor="middle" x="214.38" y="-167.88" font-family="Helvetica,sans-Serif" font-size="10.00" fill="grey"> primOpApp</text>
</g>
<!-- Node14 -->
<g id="Node000014" class="node">
<title>Node14</title>
<g id="a_Node000014"><a xlink:href="structnix_1_1NewValueAs_1_1lambda__t.html" target="_top" xlink:title=" ">
<polygon fill="white" stroke="#bfbfbf" points="158.5,-98.75 9,-98.75 9,-78 158.5,-78 158.5,-98.75"/>
<text text-anchor="middle" x="83.75" y="-85.25" font-family="Helvetica,sans-Serif" font-size="10.00">nix::NewValueAs::lambda_t</text>
</a>
</g>
</g>
<!-- Node14&#45;&gt;Node1 -->
<g id="edge13_Node000001_Node000014" class="edge">
<title>Node14&#45;&gt;Node1</title>
<g id="a_edge13_Node000001_Node000014"><a xlink:title=" ">
<path fill="none" stroke="#9a32cd" stroke-dasharray="5,2" d="M169.69,-90.99C195.66,-95.53 222.76,-104.52 243.25,-121.62 291.67,-162.03 304.9,-243.56 308.15,-272.71"/>
<polygon fill="#9a32cd" stroke="#9a32cd" points="170.55,-87.58 160.14,-89.53 169.5,-94.5 170.55,-87.58"/>
</a>
</g>
<text text-anchor="middle" x="214.38" y="-124.88" font-family="Helvetica,sans-Serif" font-size="10.00" fill="grey"> lambda</text>
</g>
<!-- Node15 -->
<g id="Node000015" class="node">
<title>Node15</title>
<g id="a_Node000015"><a xlink:href="structnix_1_1NewValueAs_1_1external__t.html" target="_top" xlink:title=" ">
<polygon fill="white" stroke="#bfbfbf" points="160.38,-59.75 7.12,-59.75 7.12,-39 160.38,-39 160.38,-59.75"/>
<text text-anchor="middle" x="83.75" y="-46.25" font-family="Helvetica,sans-Serif" font-size="10.00">nix::NewValueAs::external_t</text>
</a>
</g>
</g>
<!-- Node15&#45;&gt;Node1 -->
<g id="edge14_Node000001_Node000015" class="edge">
<title>Node15&#45;&gt;Node1</title>
<g id="a_edge14_Node000001_Node000015"><a xlink:title=" ">
<path fill="none" stroke="#9a32cd" stroke-dasharray="5,2" d="M171.75,-48.93C197.32,-52.85 223.66,-61.41 243.25,-78.62 303.27,-131.38 308.98,-239.01 309.23,-272.91"/>
<polygon fill="#9a32cd" stroke="#9a32cd" points="172.34,-45.48 161.97,-47.67 171.45,-52.42 172.34,-45.48"/>
</a>
</g>
<text text-anchor="middle" x="214.38" y="-81.88" font-family="Helvetica,sans-Serif" font-size="10.00" fill="grey"> external</text>
</g>
<!-- Node16 -->
<g id="Node000016" class="node">
<title>Node16</title>
<g id="a_Node000016"><a xlink:href="structnix_1_1NewValueAs_1_1blackhole__t.html" target="_top" xlink:title=" ">
<polygon fill="white" stroke="#bfbfbf" points="163.75,-20.75 3.75,-20.75 3.75,0 163.75,0 163.75,-20.75"/>
<text text-anchor="middle" x="83.75" y="-7.25" font-family="Helvetica,sans-Serif" font-size="10.00">nix::NewValueAs::blackhole_t</text>
</a>
</g>
</g>
<!-- Node16&#45;&gt;Node1 -->
<g id="edge15_Node000001_Node000016" class="edge">
<title>Node16&#45;&gt;Node1</title>
<g id="a_edge15_Node000001_Node000016"><a xlink:title=" ">
<path fill="none" stroke="#9a32cd" stroke-dasharray="5,2" d="M175.34,-7.34C199.9,-10.83 224.78,-18.95 243.25,-35.62 279.75,-68.58 302.32,-229.27 307.81,-272.6"/>
<polygon fill="#9a32cd" stroke="#9a32cd" points="175.93,-3.88 165.6,-6.21 175.13,-10.84 175.93,-3.88"/>
</a>
</g>
<text text-anchor="middle" x="214.38" y="-38.88" font-family="Helvetica,sans-Serif" font-size="10.00" fill="grey"> blackhole</text>
</g>
</g>
</svg>
