<?xml version="1.0" encoding="UTF-8" standalone="no"?>
<!DOCTYPE svg PUBLIC "-//W3C//DTD SVG 1.1//EN"
 "http://www.w3.org/Graphics/SVG/1.1/DTD/svg11.dtd">
<!-- Generated by graphviz version 12.2.1 (0)
 -->
<!-- Title: nix::CmdCopy Pages: 1 -->
<svg width="507pt" height="540pt"
 viewBox="0.00 0.00 507.19 539.50" xmlns="http://www.w3.org/2000/svg" xmlns:xlink="http://www.w3.org/1999/xlink">
<g id="graph0" class="graph" transform="scale(1 1) rotate(0) translate(4 535.5)">
<title>nix::CmdCopy</title>
<!-- Node1 -->
<g id="Node000001" class="node">
<title>Node1</title>
<g id="a_Node000001"><a xlink:title=" ">
<polygon fill="#999999" stroke="#666666" points="324.62,-20.75 240.38,-20.75 240.38,0 324.62,0 324.62,-20.75"/>
<text text-anchor="middle" x="282.5" y="-7.25" font-family="Helvetica,sans-Serif" font-size="10.00">nix::CmdCopy</text>
</a>
</g>
</g>
<!-- Node2 -->
<g id="Node000002" class="node">
<title>Node2</title>
<g id="a_Node000002"><a xlink:href="structnix_1_1CopyCommand.html" target="_top" xlink:title=" ">
<polygon fill="white" stroke="#666666" points="473.5,-247.75 361.5,-247.75 361.5,-227 473.5,-227 473.5,-247.75"/>
<text text-anchor="middle" x="417.5" y="-234.25" font-family="Helvetica,sans-Serif" font-size="10.00">nix::CopyCommand</text>
</a>
</g>
</g>
<!-- Node2&#45;&gt;Node1 -->
<g id="edge1_Node000001_Node000002" class="edge">
<title>Node2&#45;&gt;Node1</title>
<g id="a_edge1_Node000001_Node000002"><a xlink:title=" ">
<path fill="none" stroke="#63b8ff" d="M405.87,-216.99C378.11,-170.72 308.76,-55.14 288.28,-21.01"/>
<polygon fill="#63b8ff" stroke="#63b8ff" points="402.77,-218.63 410.92,-225.41 408.78,-215.03 402.77,-218.63"/>
</a>
</g>
</g>
<!-- Node3 -->
<g id="Node000003" class="node">
<title>Node3</title>
<g id="a_Node000003"><a xlink:href="structnix_1_1StoreCommand.html" target="_top" xlink:title=" ">
<polygon fill="white" stroke="#666666" points="470.88,-418 358.12,-418 358.12,-397.25 470.88,-397.25 470.88,-418"/>
<text text-anchor="middle" x="414.5" y="-404.5" font-family="Helvetica,sans-Serif" font-size="10.00">nix::StoreCommand</text>
</a>
</g>
</g>
<!-- Node3&#45;&gt;Node2 -->
<g id="edge2_Node000002_Node000003" class="edge">
<title>Node3&#45;&gt;Node2</title>
<g id="a_edge2_Node000002_Node000003"><a xlink:title=" ">
<path fill="none" stroke="#63b8ff" d="M414.87,-385.91C415.52,-349.4 416.85,-274.96 417.32,-248.22"/>
<polygon fill="#63b8ff" stroke="#63b8ff" points="411.38,-385.52 414.7,-395.58 418.37,-385.65 411.38,-385.52"/>
</a>
</g>
</g>
<!-- Node11 -->
<g id="Node000011" class="node">
<title>Node11</title>
<g id="a_Node000011"><a xlink:href="structnix_1_1EvalCommand.html" target="_top" xlink:title=" ">
<polygon fill="white" stroke="#666666" points="347.62,-361.25 239.38,-361.25 239.38,-340.5 347.62,-340.5 347.62,-361.25"/>
<text text-anchor="middle" x="293.5" y="-347.75" font-family="Helvetica,sans-Serif" font-size="10.00">nix::EvalCommand</text>
</a>
</g>
</g>
<!-- Node3&#45;&gt;Node11 -->
<g id="edge14_Node000011_Node000003" class="edge">
<title>Node3&#45;&gt;Node11</title>
<g id="a_edge14_Node000011_Node000003"><a xlink:title=" ">
<path fill="none" stroke="#63b8ff" d="M382.64,-392.21C361.28,-382.55 333.73,-370.08 314.95,-361.58"/>
<polygon fill="#63b8ff" stroke="#63b8ff" points="380.94,-395.28 391.49,-396.21 383.82,-388.9 380.94,-395.28"/>
</a>
</g>
</g>
<!-- Node4 -->
<g id="Node000004" class="node">
<title>Node4</title>
<g id="a_Node000004"><a xlink:href="structnix_1_1Command.html" target="_top" xlink:title=" ">
<polygon fill="white" stroke="#666666" points="469.12,-474.75 381.88,-474.75 381.88,-454 469.12,-454 469.12,-474.75"/>
<text text-anchor="middle" x="425.5" y="-461.25" font-family="Helvetica,sans-Serif" font-size="10.00">nix::Command</text>
</a>
</g>
</g>
<!-- Node4&#45;&gt;Node3 -->
<g id="edge3_Node000003_Node000004" class="edge">
<title>Node4&#45;&gt;Node3</title>
<g id="a_edge3_Node000003_Node000004"><a xlink:title=" ">
<path fill="none" stroke="#63b8ff" d="M421.29,-442.42C419.62,-434.13 417.79,-425 416.45,-418.33"/>
<polygon fill="#63b8ff" stroke="#63b8ff" points="417.83,-442.99 423.24,-452.1 424.7,-441.61 417.83,-442.99"/>
</a>
</g>
</g>
<!-- Node5 -->
<g id="Node000005" class="node">
<title>Node5</title>
<g id="a_Node000005"><a xlink:href="classnix_1_1Args.html" target="_top" xlink:title=" ">
<polygon fill="white" stroke="#bfbfbf" points="278.88,-531.5 220.12,-531.5 220.12,-510.75 278.88,-510.75 278.88,-531.5"/>
<text text-anchor="middle" x="249.5" y="-518" font-family="Helvetica,sans-Serif" font-size="10.00">nix::Args</text>
</a>
</g>
</g>
<!-- Node5&#45;&gt;Node4 -->
<g id="edge4_Node000004_Node000005" class="edge">
<title>Node5&#45;&gt;Node4</title>
<g id="a_edge4_Node000004_Node000005"><a xlink:title=" ">
<path fill="none" stroke="#63b8ff" d="M290.01,-507.52C321.64,-497.68 364.95,-484.21 394.01,-475.17"/>
<polygon fill="#63b8ff" stroke="#63b8ff" points="289.31,-504.08 280.8,-510.39 291.39,-510.76 289.31,-504.08"/>
</a>
</g>
</g>
<!-- Node8 -->
<g id="Node000008" class="node">
<title>Node8</title>
<g id="a_Node000008"><a xlink:href="structnix_1_1RawInstallablesCommand.html" target="_top" xlink:title=" ">
<polygon fill="white" stroke="#666666" points="309.75,-191 145.25,-191 145.25,-170.25 309.75,-170.25 309.75,-191"/>
<text text-anchor="middle" x="227.5" y="-177.5" font-family="Helvetica,sans-Serif" font-size="10.00">nix::RawInstallablesCommand</text>
</a>
</g>
</g>
<!-- Node5&#45;&gt;Node8 -->
<g id="edge8_Node000008_Node000005" class="edge">
<title>Node5&#45;&gt;Node8</title>
<g id="a_edge8_Node000008_Node000005"><a xlink:title=" ">
<path fill="none" stroke="#63b8ff" d="M227.97,-502.93C205.5,-482.9 173.5,-447.54 173.5,-408.62 173.5,-408.62 173.5,-408.62 173.5,-293.12 173.5,-262.55 178.69,-254.28 192.5,-227 199.33,-213.51 210.39,-200.04 218.24,-191.33"/>
<polygon fill="#63b8ff" stroke="#63b8ff" points="225.58,-505.49 235.46,-509.33 230.13,-500.17 225.58,-505.49"/>
</a>
</g>
</g>
<!-- Node9 -->
<g id="Node000009" class="node">
<title>Node9</title>
<g id="a_Node000009"><a xlink:href="structnix_1_1SourceExprCommand.html" target="_top" xlink:title=" ">
<polygon fill="white" stroke="#bfbfbf" points="343.5,-247.75 201.5,-247.75 201.5,-227 343.5,-227 343.5,-247.75"/>
<text text-anchor="middle" x="272.5" y="-234.25" font-family="Helvetica,sans-Serif" font-size="10.00">nix::SourceExprCommand</text>
</a>
</g>
</g>
<!-- Node5&#45;&gt;Node9 -->
<g id="edge10_Node000009_Node000005" class="edge">
<title>Node5&#45;&gt;Node9</title>
<g id="a_edge10_Node000009_Node000005"><a xlink:title=" ">
<path fill="none" stroke="#63b8ff" d="M290.38,-517.03C348.6,-511.81 451.39,-499.32 478.5,-474.75 501.25,-454.13 498.5,-439.33 498.5,-408.62 498.5,-408.62 498.5,-408.62 498.5,-349.88 498.5,-308.09 372.7,-266.59 308.81,-248.21"/>
<polygon fill="#63b8ff" stroke="#63b8ff" points="290.19,-513.53 280.52,-517.88 290.79,-520.51 290.19,-513.53"/>
</a>
</g>
</g>
<!-- Node10 -->
<g id="Node000010" class="node">
<title>Node10</title>
<g id="a_Node000010"><a xlink:href="structnix_1_1MixFlakeOptions.html" target="_top" xlink:title=" ">
<polygon fill="white" stroke="#666666" points="331.88,-304.5 213.12,-304.5 213.12,-283.75 331.88,-283.75 331.88,-304.5"/>
<text text-anchor="middle" x="272.5" y="-291" font-family="Helvetica,sans-Serif" font-size="10.00">nix::MixFlakeOptions</text>
</a>
</g>
</g>
<!-- Node5&#45;&gt;Node10 -->
<g id="edge12_Node000010_Node000005" class="edge">
<title>Node5&#45;&gt;Node10</title>
<g id="a_edge12_Node000010_Node000005"><a xlink:title=" ">
<path fill="none" stroke="#63b8ff" d="M241.43,-499.89C229.1,-465.75 209.11,-395.09 230.5,-340.5 236.22,-325.91 249.07,-313.2 259.07,-304.98"/>
<polygon fill="#63b8ff" stroke="#63b8ff" points="238.05,-500.83 244.86,-508.94 244.59,-498.35 238.05,-500.83"/>
</a>
</g>
</g>
<!-- Node12 -->
<g id="Node000012" class="node">
<title>Node12</title>
<g id="a_Node000012"><a xlink:href="structnix_1_1MixEvalArgs.html" target="_top" xlink:title=" ">
<polygon fill="white" stroke="#bfbfbf" points="340.38,-418 242.62,-418 242.62,-397.25 340.38,-397.25 340.38,-418"/>
<text text-anchor="middle" x="291.5" y="-404.5" font-family="Helvetica,sans-Serif" font-size="10.00">nix::MixEvalArgs</text>
</a>
</g>
</g>
<!-- Node5&#45;&gt;Node12 -->
<g id="edge16_Node000012_Node000005" class="edge">
<title>Node5&#45;&gt;Node12</title>
<g id="a_edge16_Node000012_Node000005"><a xlink:title=" ">
<path fill="none" stroke="#63b8ff" d="M254.39,-499.35C257.76,-486.15 262.67,-468.83 268.5,-454 273.47,-441.34 280.79,-427.49 285.83,-418.47"/>
<polygon fill="#63b8ff" stroke="#63b8ff" points="250.99,-498.5 252.01,-509.05 257.79,-500.17 250.99,-498.5"/>
</a>
</g>
</g>
<!-- Node13 -->
<g id="Node000013" class="node">
<title>Node13</title>
<g id="a_Node000013"><a xlink:href="structnix_1_1MixRepair.html" target="_top" xlink:title=" ">
<polygon fill="white" stroke="#bfbfbf" points="363.75,-474.75 277.25,-474.75 277.25,-454 363.75,-454 363.75,-474.75"/>
<text text-anchor="middle" x="320.5" y="-461.25" font-family="Helvetica,sans-Serif" font-size="10.00">nix::MixRepair</text>
</a>
</g>
</g>
<!-- Node5&#45;&gt;Node13 -->
<g id="edge18_Node000013_Node000005" class="edge">
<title>Node5&#45;&gt;Node13</title>
<g id="a_edge18_Node000013_Node000005"><a xlink:title=" ">
<path fill="none" stroke="#63b8ff" d="M271.17,-503.41C283.21,-494.13 297.75,-482.92 307.92,-475.08"/>
<polygon fill="#63b8ff" stroke="#63b8ff" points="269.17,-500.53 263.39,-509.41 273.45,-506.08 269.17,-500.53"/>
</a>
</g>
</g>
<!-- Node14 -->
<g id="Node000014" class="node">
<title>Node14</title>
<g id="a_Node000014"><a xlink:href="structnix_1_1MixOperateOnOptions.html" target="_top" xlink:title=" ">
<polygon fill="white" stroke="#bfbfbf" points="145,-304.5 0,-304.5 0,-283.75 145,-283.75 145,-304.5"/>
<text text-anchor="middle" x="72.5" y="-291" font-family="Helvetica,sans-Serif" font-size="10.00">nix::MixOperateOnOptions</text>
</a>
</g>
</g>
<!-- Node5&#45;&gt;Node14 -->
<g id="edge20_Node000014_Node000005" class="edge">
<title>Node5&#45;&gt;Node14</title>
<g id="a_edge20_Node000014_Node000005"><a xlink:title=" ">
<path fill="none" stroke="#63b8ff" d="M209.44,-506.59C192.4,-499.27 173.32,-488.8 159.5,-474.75 108.22,-422.64 82.37,-334.4 74.87,-304.99"/>
<polygon fill="#63b8ff" stroke="#63b8ff" points="207.73,-509.67 218.31,-510.17 210.35,-503.18 207.73,-509.67"/>
</a>
</g>
</g>
<!-- Node6 -->
<g id="Node000006" class="node">
<title>Node6</title>
<g id="a_Node000006"><a xlink:href="structnix_1_1BuiltPathsCommand.html" target="_top" xlink:title=" ">
<polygon fill="white" stroke="#666666" points="295.5,-77.5 159.5,-77.5 159.5,-56.75 295.5,-56.75 295.5,-77.5"/>
<text text-anchor="middle" x="227.5" y="-64" font-family="Helvetica,sans-Serif" font-size="10.00">nix::BuiltPathsCommand</text>
</a>
</g>
</g>
<!-- Node6&#45;&gt;Node1 -->
<g id="edge5_Node000001_Node000006" class="edge">
<title>Node6&#45;&gt;Node1</title>
<g id="a_edge5_Node000001_Node000006"><a xlink:title=" ">
<path fill="none" stroke="#63b8ff" d="M245.41,-48.3C254.5,-39.25 265.19,-28.61 272.75,-21.08"/>
<polygon fill="#63b8ff" stroke="#63b8ff" points="243.02,-45.73 238.41,-55.27 247.96,-50.69 243.02,-45.73"/>
</a>
</g>
</g>
<!-- Node7 -->
<g id="Node000007" class="node">
<title>Node7</title>
<g id="a_Node000007"><a xlink:href="structnix_1_1InstallablesCommand.html" target="_top" xlink:title=" ">
<polygon fill="white" stroke="#666666" points="299.25,-134.25 155.75,-134.25 155.75,-113.5 299.25,-113.5 299.25,-134.25"/>
<text text-anchor="middle" x="227.5" y="-120.75" font-family="Helvetica,sans-Serif" font-size="10.00">nix::InstallablesCommand</text>
</a>
</g>
</g>
<!-- Node7&#45;&gt;Node6 -->
<g id="edge6_Node000006_Node000007" class="edge">
<title>Node7&#45;&gt;Node6</title>
<g id="a_edge6_Node000006_Node000007"><a xlink:title=" ">
<path fill="none" stroke="#63b8ff" d="M227.5,-101.63C227.5,-93.41 227.5,-84.43 227.5,-77.83"/>
<polygon fill="#63b8ff" stroke="#63b8ff" points="224,-101.57 227.5,-111.57 231,-101.57 224,-101.57"/>
</a>
</g>
</g>
<!-- Node8&#45;&gt;Node7 -->
<g id="edge7_Node000007_Node000008" class="edge">
<title>Node8&#45;&gt;Node7</title>
<g id="a_edge7_Node000007_Node000008"><a xlink:title=" ">
<path fill="none" stroke="#63b8ff" d="M227.5,-158.38C227.5,-150.16 227.5,-141.18 227.5,-134.58"/>
<polygon fill="#63b8ff" stroke="#63b8ff" points="224,-158.32 227.5,-168.32 231,-158.32 224,-158.32"/>
</a>
</g>
</g>
<!-- Node9&#45;&gt;Node8 -->
<g id="edge9_Node000008_Node000009" class="edge">
<title>Node9&#45;&gt;Node8</title>
<g id="a_edge9_Node000008_Node000009"><a xlink:title=" ">
<path fill="none" stroke="#63b8ff" d="M257.16,-217.71C249.87,-208.84 241.47,-198.62 235.48,-191.33"/>
<polygon fill="#63b8ff" stroke="#63b8ff" points="254.44,-219.91 263.49,-225.42 259.85,-215.47 254.44,-219.91"/>
</a>
</g>
</g>
<!-- Node10&#45;&gt;Node9 -->
<g id="edge11_Node000009_Node000010" class="edge">
<title>Node10&#45;&gt;Node9</title>
<g id="a_edge11_Node000009_Node000010"><a xlink:title=" ">
<path fill="none" stroke="#63b8ff" d="M272.5,-271.88C272.5,-263.66 272.5,-254.68 272.5,-248.08"/>
<polygon fill="#63b8ff" stroke="#63b8ff" points="269,-271.82 272.5,-281.82 276,-271.82 269,-271.82"/>
</a>
</g>
</g>
<!-- Node11&#45;&gt;Node10 -->
<g id="edge13_Node000010_Node000011" class="edge">
<title>Node11&#45;&gt;Node10</title>
<g id="a_edge13_Node000010_Node000011"><a xlink:title=" ">
<path fill="none" stroke="#63b8ff" d="M285.68,-329.49C282.44,-321.05 278.84,-311.66 276.22,-304.83"/>
<polygon fill="#63b8ff" stroke="#63b8ff" points="282.35,-330.59 289.2,-338.67 288.89,-328.08 282.35,-330.59"/>
</a>
</g>
</g>
<!-- Node12&#45;&gt;Node11 -->
<g id="edge15_Node000011_Node000012" class="edge">
<title>Node12&#45;&gt;Node11</title>
<g id="a_edge15_Node000011_Node000012"><a xlink:title=" ">
<path fill="none" stroke="#63b8ff" d="M292.28,-385.38C292.58,-377.16 292.9,-368.18 293.15,-361.58"/>
<polygon fill="#63b8ff" stroke="#63b8ff" points="288.78,-385.2 291.91,-395.32 295.78,-385.46 288.78,-385.2"/>
</a>
</g>
</g>
<!-- Node13&#45;&gt;Node12 -->
<g id="edge17_Node000012_Node000013" class="edge">
<title>Node13&#45;&gt;Node12</title>
<g id="a_edge17_Node000012_Node000013"><a xlink:title=" ">
<path fill="none" stroke="#63b8ff" d="M310.01,-443.57C305.46,-434.98 300.34,-425.31 296.64,-418.33"/>
<polygon fill="#63b8ff" stroke="#63b8ff" points="306.83,-445.05 314.61,-452.25 313.02,-441.77 306.83,-445.05"/>
</a>
</g>
</g>
<!-- Node14&#45;&gt;Node6 -->
<g id="edge19_Node000006_Node000014" class="edge">
<title>Node14&#45;&gt;Node6</title>
<g id="a_edge19_Node000006_Node000014"><a xlink:title=" ">
<path fill="none" stroke="#63b8ff" d="M76.39,-272.31C84.08,-236.17 104.26,-161.13 146.5,-113.5 161.04,-97.1 183,-85.32 200.38,-77.88"/>
<polygon fill="#63b8ff" stroke="#63b8ff" points="73.01,-271.38 74.48,-281.88 79.87,-272.76 73.01,-271.38"/>
</a>
</g>
</g>
</g>
</svg>
