<?xml version="1.0" encoding="UTF-8" standalone="no"?>
<!DOCTYPE svg PUBLIC "-//W3C//DTD SVG 1.1//EN"
 "http://www.w3.org/Graphics/SVG/1.1/DTD/svg11.dtd">
<!-- Generated by graphviz version 12.2.1 (0)
 -->
<!-- Title: nix::CmdBuild Pages: 1 -->
<svg width="744pt" height="562pt"
 viewBox="0.00 0.00 743.88 561.75" xmlns="http://www.w3.org/2000/svg" xmlns:xlink="http://www.w3.org/1999/xlink">
<g id="graph0" class="graph" transform="scale(1 1) rotate(0) translate(4 557.75)">
<title>nix::CmdBuild</title>
<!-- Node1 -->
<g id="Node000001" class="node">
<title>Node1</title>
<g id="a_Node000001"><a xlink:title=" ">
<polygon fill="#999999" stroke="#666666" points="668.12,-20.75 583.88,-20.75 583.88,0 668.12,0 668.12,-20.75"/>
<text text-anchor="middle" x="626" y="-7.25" font-family="Helvetica,sans-Serif" font-size="10.00">nix::CmdBuild</text>
</a>
</g>
</g>
<!-- Node2 -->
<g id="Node000002" class="node">
<title>Node2</title>
<g id="a_Node000002"><a xlink:href="structnix_1_1InstallablesCommand.html" target="_top" xlink:title=" ">
<polygon fill="white" stroke="#666666" points="422.75,-90.25 279.25,-90.25 279.25,-69.5 422.75,-69.5 422.75,-90.25"/>
<text text-anchor="middle" x="351" y="-76.75" font-family="Helvetica,sans-Serif" font-size="10.00">nix::InstallablesCommand</text>
</a>
</g>
</g>
<!-- Node2&#45;&gt;Node1 -->
<g id="edge1_Node000001_Node000002" class="edge">
<title>Node2&#45;&gt;Node1</title>
<g id="a_edge1_Node000001_Node000002"><a xlink:title=" ">
<path fill="none" stroke="#63b8ff" d="M401.86,-66.39C455,-53.35 537.27,-33.16 585.96,-21.2"/>
<polygon fill="#63b8ff" stroke="#63b8ff" points="401.33,-62.92 392.46,-68.7 403,-69.71 401.33,-62.92"/>
</a>
</g>
</g>
<!-- Node3 -->
<g id="Node000003" class="node">
<title>Node3</title>
<g id="a_Node000003"><a xlink:href="structnix_1_1RawInstallablesCommand.html" target="_top" xlink:title=" ">
<polygon fill="white" stroke="#666666" points="219.25,-148 54.75,-148 54.75,-127.25 219.25,-127.25 219.25,-148"/>
<text text-anchor="middle" x="137" y="-134.5" font-family="Helvetica,sans-Serif" font-size="10.00">nix::RawInstallablesCommand</text>
</a>
</g>
</g>
<!-- Node3&#45;&gt;Node2 -->
<g id="edge2_Node000002_Node000003" class="edge">
<title>Node3&#45;&gt;Node2</title>
<g id="a_edge2_Node000002_Node000003"><a xlink:title=" ">
<path fill="none" stroke="#63b8ff" d="M185.77,-123.92C224.46,-113.84 277.76,-99.95 313.25,-90.71"/>
<polygon fill="#63b8ff" stroke="#63b8ff" points="185.03,-120.5 176.23,-126.4 186.79,-127.27 185.03,-120.5"/>
</a>
</g>
</g>
<!-- Node4 -->
<g id="Node000004" class="node">
<title>Node4</title>
<g id="a_Node000004"><a xlink:href="classnix_1_1Args.html" target="_top" xlink:title=" ">
<polygon fill="white" stroke="#bfbfbf" points="357.38,-553.75 298.62,-553.75 298.62,-533 357.38,-533 357.38,-553.75"/>
<text text-anchor="middle" x="328" y="-540.25" font-family="Helvetica,sans-Serif" font-size="10.00">nix::Args</text>
</a>
</g>
</g>
<!-- Node4&#45;&gt;Node3 -->
<g id="edge3_Node000003_Node000004" class="edge">
<title>Node4&#45;&gt;Node3</title>
<g id="a_edge3_Node000003_Node000004"><a xlink:title=" ">
<path fill="none" stroke="#63b8ff" d="M286.77,-542.67C233.07,-542.05 136.77,-537.48 58,-515 30.4,-507.12 0,-515.32 0,-486.62 0,-486.62 0,-486.62 0,-194.38 0,-166 25.52,-151.73 54.54,-144.68"/>
<polygon fill="#63b8ff" stroke="#63b8ff" points="286.66,-546.17 296.68,-542.74 286.7,-539.17 286.66,-546.17"/>
</a>
</g>
</g>
<!-- Node6 -->
<g id="Node000006" class="node">
<title>Node6</title>
<g id="a_Node000006"><a xlink:href="structnix_1_1Command.html" target="_top" xlink:title=" ">
<polygon fill="white" stroke="#666666" points="455.62,-496 368.38,-496 368.38,-475.25 455.62,-475.25 455.62,-496"/>
<text text-anchor="middle" x="412" y="-482.5" font-family="Helvetica,sans-Serif" font-size="10.00">nix::Command</text>
</a>
</g>
</g>
<!-- Node4&#45;&gt;Node6 -->
<g id="edge6_Node000006_Node000004" class="edge">
<title>Node4&#45;&gt;Node6</title>
<g id="a_edge6_Node000006_Node000004"><a xlink:title=" ">
<path fill="none" stroke="#63b8ff" d="M352.05,-526.42C366.63,-516.74 384.77,-504.7 397.25,-496.41"/>
<polygon fill="#63b8ff" stroke="#63b8ff" points="350.29,-523.38 343.89,-531.83 354.16,-529.21 350.29,-523.38"/>
</a>
</g>
</g>
<!-- Node7 -->
<g id="Node000007" class="node">
<title>Node7</title>
<g id="a_Node000007"><a xlink:href="structnix_1_1SourceExprCommand.html" target="_top" xlink:title=" ">
<polygon fill="white" stroke="#bfbfbf" points="208,-205.75 66,-205.75 66,-185 208,-185 208,-205.75"/>
<text text-anchor="middle" x="137" y="-192.25" font-family="Helvetica,sans-Serif" font-size="10.00">nix::SourceExprCommand</text>
</a>
</g>
</g>
<!-- Node4&#45;&gt;Node7 -->
<g id="edge8_Node000007_Node000004" class="edge">
<title>Node4&#45;&gt;Node7</title>
<g id="a_edge8_Node000007_Node000004"><a xlink:title=" ">
<path fill="none" stroke="#63b8ff" d="M287.22,-542.9C207.35,-542.83 38,-536.77 38,-486.62 38,-486.62 38,-486.62 38,-252.12 38,-227.86 60.85,-214.05 84.6,-206.24"/>
<polygon fill="#63b8ff" stroke="#63b8ff" points="286.82,-546.4 296.81,-542.88 286.81,-539.4 286.82,-546.4"/>
</a>
</g>
</g>
<!-- Node8 -->
<g id="Node000008" class="node">
<title>Node8</title>
<g id="a_Node000008"><a xlink:href="structnix_1_1MixFlakeOptions.html" target="_top" xlink:title=" ">
<polygon fill="white" stroke="#666666" points="269.38,-263.5 150.62,-263.5 150.62,-242.75 269.38,-242.75 269.38,-263.5"/>
<text text-anchor="middle" x="210" y="-250" font-family="Helvetica,sans-Serif" font-size="10.00">nix::MixFlakeOptions</text>
</a>
</g>
</g>
<!-- Node4&#45;&gt;Node8 -->
<g id="edge10_Node000008_Node000004" class="edge">
<title>Node4&#45;&gt;Node8</title>
<g id="a_edge10_Node000008_Node000004"><a xlink:title=" ">
<path fill="none" stroke="#63b8ff" d="M330.68,-521.47C335.04,-481.18 340.86,-390.56 316,-320.25 308.92,-300.22 305.03,-294.21 288,-281.5 277.65,-273.77 264.94,-268.1 252.8,-263.98"/>
<polygon fill="#63b8ff" stroke="#63b8ff" points="327.23,-520.85 329.54,-531.19 334.19,-521.67 327.23,-520.85"/>
</a>
</g>
</g>
<!-- Node11 -->
<g id="Node000011" class="node">
<title>Node11</title>
<g id="a_Node000011"><a xlink:href="structnix_1_1MixEvalArgs.html" target="_top" xlink:title=" ">
<polygon fill="white" stroke="#bfbfbf" points="185.88,-418.5 88.12,-418.5 88.12,-397.75 185.88,-397.75 185.88,-418.5"/>
<text text-anchor="middle" x="137" y="-405" font-family="Helvetica,sans-Serif" font-size="10.00">nix::MixEvalArgs</text>
</a>
</g>
</g>
<!-- Node4&#45;&gt;Node11 -->
<g id="edge15_Node000011_Node000004" class="edge">
<title>Node4&#45;&gt;Node11</title>
<g id="a_edge15_Node000011_Node000004"><a xlink:title=" ">
<path fill="none" stroke="#63b8ff" d="M287.16,-540.29C226.94,-536.26 118.85,-525.07 95,-496 74.92,-471.52 107.38,-435.84 125.75,-418.83"/>
<polygon fill="#63b8ff" stroke="#63b8ff" points="286.81,-543.77 297.01,-540.91 287.25,-536.79 286.81,-543.77"/>
</a>
</g>
</g>
<!-- Node12 -->
<g id="Node000012" class="node">
<title>Node12</title>
<g id="a_Node000012"><a xlink:href="structnix_1_1MixRepair.html" target="_top" xlink:title=" ">
<polygon fill="white" stroke="#bfbfbf" points="190.25,-496 103.75,-496 103.75,-475.25 190.25,-475.25 190.25,-496"/>
<text text-anchor="middle" x="147" y="-482.5" font-family="Helvetica,sans-Serif" font-size="10.00">nix::MixRepair</text>
</a>
</g>
</g>
<!-- Node4&#45;&gt;Node12 -->
<g id="edge17_Node000012_Node000004" class="edge">
<title>Node4&#45;&gt;Node12</title>
<g id="a_edge17_Node000012_Node000004"><a xlink:title=" ">
<path fill="none" stroke="#63b8ff" d="M287.92,-530.03C255.1,-519.92 209.28,-505.81 178.91,-496.45"/>
<polygon fill="#63b8ff" stroke="#63b8ff" points="286.48,-533.25 297.07,-532.85 288.54,-526.56 286.48,-533.25"/>
</a>
</g>
</g>
<!-- Node15 -->
<g id="Node000015" class="node">
<title>Node15</title>
<g id="a_Node000015"><a xlink:href="structnix_1_1MixDryRun.html" target="_top" xlink:title=" ">
<polygon fill="white" stroke="#bfbfbf" points="644.5,-457.25 553.5,-457.25 553.5,-436.5 644.5,-436.5 644.5,-457.25"/>
<text text-anchor="middle" x="599" y="-443.75" font-family="Helvetica,sans-Serif" font-size="10.00">nix::MixDryRun</text>
</a>
</g>
</g>
<!-- Node4&#45;&gt;Node15 -->
<g id="edge21_Node000015_Node000004" class="edge">
<title>Node4&#45;&gt;Node15</title>
<g id="a_edge21_Node000015_Node000004"><a xlink:title=" ">
<path fill="none" stroke="#63b8ff" d="M369.09,-542.46C408.33,-541.17 468.38,-535.53 516,-515 547.31,-501.5 576.49,-472.73 590.43,-457.61"/>
<polygon fill="#63b8ff" stroke="#63b8ff" points="369.04,-538.96 359.13,-542.7 369.21,-545.96 369.04,-538.96"/>
</a>
</g>
</g>
<!-- Node16 -->
<g id="Node000016" class="node">
<title>Node16</title>
<g id="a_Node000016"><a xlink:href="structnix_1_1MixJSON.html" target="_top" xlink:title=" ">
<polygon fill="white" stroke="#bfbfbf" points="720.5,-379.75 641.5,-379.75 641.5,-359 720.5,-359 720.5,-379.75"/>
<text text-anchor="middle" x="681" y="-366.25" font-family="Helvetica,sans-Serif" font-size="10.00">nix::MixJSON</text>
</a>
</g>
</g>
<!-- Node4&#45;&gt;Node16 -->
<g id="edge23_Node000016_Node000004" class="edge">
<title>Node4&#45;&gt;Node16</title>
<g id="a_edge23_Node000016_Node000004"><a xlink:title=" ">
<path fill="none" stroke="#63b8ff" d="M369.07,-540.24C410.57,-537.29 476.21,-530.46 531,-515 551.11,-509.33 555.04,-504.78 574,-496 609.85,-479.4 628.23,-487.2 654,-457.25 673.57,-434.5 678.96,-397.67 680.44,-380.18"/>
<polygon fill="#63b8ff" stroke="#63b8ff" points="369.03,-536.73 359.29,-540.89 369.5,-543.72 369.03,-536.73"/>
</a>
</g>
</g>
<!-- Node5 -->
<g id="Node000005" class="node">
<title>Node5</title>
<g id="a_Node000005"><a xlink:href="classnix_1_1MultiCommand.html" target="_top" xlink:title=" ">
<polygon fill="white" stroke="#666666" points="598,-418.5 486,-418.5 486,-397.75 598,-397.75 598,-418.5"/>
<text text-anchor="middle" x="542" y="-405" font-family="Helvetica,sans-Serif" font-size="10.00">nix::MultiCommand</text>
</a>
</g>
</g>
<!-- Node5&#45;&gt;Node4 -->
<g id="edge4_Node000004_Node000005" class="edge">
<title>Node5&#45;&gt;Node4</title>
<g id="a_edge4_Node000004_Node000005"><a xlink:title=" ">
<path fill="none" stroke="#9a32cd" stroke-dasharray="5,2" d="M529.46,-428.39C515.78,-447.99 492.19,-477.95 465,-496 431.74,-518.08 386.94,-530.62 357.77,-536.96"/>
<polygon fill="#9a32cd" stroke="#9a32cd" points="532.28,-430.46 534.98,-420.22 526.48,-426.54 532.28,-430.46"/>
</a>
</g>
<text text-anchor="middle" x="506.76" y="-482.5" font-family="Helvetica,sans-Serif" font-size="10.00" fill="grey"> parent</text>
</g>
<!-- Node6&#45;&gt;Node5 -->
<g id="edge5_Node000005_Node000006" class="edge">
<title>Node6&#45;&gt;Node5</title>
<g id="a_edge5_Node000005_Node000006"><a xlink:title=" ">
<path fill="none" stroke="#63b8ff" d="M436.01,-468.6C450.79,-458.94 470.24,-446.59 488,-436.5 498.87,-430.32 511.31,-423.97 521.5,-418.94"/>
<polygon fill="#63b8ff" stroke="#63b8ff" points="434.29,-465.54 427.86,-473.96 438.14,-471.38 434.29,-465.54"/>
</a>
</g>
</g>
<!-- Node10 -->
<g id="Node000010" class="node">
<title>Node10</title>
<g id="a_Node000010"><a xlink:href="structnix_1_1StoreCommand.html" target="_top" xlink:title=" ">
<polygon fill="white" stroke="#666666" points="468.38,-418.5 355.62,-418.5 355.62,-397.75 468.38,-397.75 468.38,-418.5"/>
<text text-anchor="middle" x="412" y="-405" font-family="Helvetica,sans-Serif" font-size="10.00">nix::StoreCommand</text>
</a>
</g>
</g>
<!-- Node6&#45;&gt;Node10 -->
<g id="edge13_Node000010_Node000006" class="edge">
<title>Node6&#45;&gt;Node10</title>
<g id="a_edge13_Node000010_Node000006"><a xlink:title=" ">
<path fill="none" stroke="#63b8ff" d="M412,-463.68C412,-448.98 412,-430.02 412,-418.76"/>
<polygon fill="#63b8ff" stroke="#63b8ff" points="408.5,-463.24 412,-473.24 415.5,-463.24 408.5,-463.24"/>
</a>
</g>
</g>
<!-- Node7&#45;&gt;Node3 -->
<g id="edge7_Node000003_Node000007" class="edge">
<title>Node7&#45;&gt;Node3</title>
<g id="a_edge7_Node000003_Node000007"><a xlink:title=" ">
<path fill="none" stroke="#63b8ff" d="M137,-173.43C137,-164.77 137,-155.15 137,-148.22"/>
<polygon fill="#63b8ff" stroke="#63b8ff" points="133.5,-173.15 137,-183.15 140.5,-173.15 133.5,-173.15"/>
</a>
</g>
</g>
<!-- Node8&#45;&gt;Node7 -->
<g id="edge9_Node000007_Node000008" class="edge">
<title>Node8&#45;&gt;Node7</title>
<g id="a_edge9_Node000007_Node000008"><a xlink:title=" ">
<path fill="none" stroke="#63b8ff" d="M188.31,-235.56C175.68,-225.92 160.2,-214.1 149.57,-205.97"/>
<polygon fill="#63b8ff" stroke="#63b8ff" points="186.01,-238.21 196.08,-241.5 190.26,-232.64 186.01,-238.21"/>
</a>
</g>
</g>
<!-- Node9 -->
<g id="Node000009" class="node">
<title>Node9</title>
<g id="a_Node000009"><a xlink:href="structnix_1_1EvalCommand.html" target="_top" xlink:title=" ">
<polygon fill="white" stroke="#666666" points="174.12,-341 65.88,-341 65.88,-320.25 174.12,-320.25 174.12,-341"/>
<text text-anchor="middle" x="120" y="-327.5" font-family="Helvetica,sans-Serif" font-size="10.00">nix::EvalCommand</text>
</a>
</g>
</g>
<!-- Node9&#45;&gt;Node8 -->
<g id="edge11_Node000008_Node000009" class="edge">
<title>Node9&#45;&gt;Node8</title>
<g id="a_edge11_Node000008_Node000009"><a xlink:title=" ">
<path fill="none" stroke="#63b8ff" d="M140.32,-312.58C158.18,-297.6 183.54,-276.32 198.23,-264"/>
<polygon fill="#63b8ff" stroke="#63b8ff" points="138.34,-309.67 132.93,-318.78 142.84,-315.04 138.34,-309.67"/>
</a>
</g>
</g>
<!-- Node10&#45;&gt;Node9 -->
<g id="edge12_Node000009_Node000010" class="edge">
<title>Node10&#45;&gt;Node9</title>
<g id="a_edge12_Node000009_Node000010"><a xlink:title=" ">
<path fill="none" stroke="#63b8ff" d="M362.8,-394.4C305.09,-379.48 210.65,-355.06 158.18,-341.5"/>
<polygon fill="#63b8ff" stroke="#63b8ff" points="361.8,-397.76 372.36,-396.88 363.56,-390.98 361.8,-397.76"/>
</a>
</g>
</g>
<!-- Node17 -->
<g id="Node000017" class="node">
<title>Node17</title>
<g id="a_Node000017"><a xlink:href="structnix_1_1MixProfile.html" target="_top" xlink:title=" ">
<polygon fill="white" stroke="#bfbfbf" points="544.88,-302.25 459.12,-302.25 459.12,-281.5 544.88,-281.5 544.88,-302.25"/>
<text text-anchor="middle" x="502" y="-288.75" font-family="Helvetica,sans-Serif" font-size="10.00">nix::MixProfile</text>
</a>
</g>
</g>
<!-- Node10&#45;&gt;Node17 -->
<g id="edge25_Node000017_Node000010" class="edge">
<title>Node10&#45;&gt;Node17</title>
<g id="a_edge25_Node000017_Node000010"><a xlink:title=" ">
<path fill="none" stroke="#63b8ff" d="M426.55,-388.65C445.89,-364.11 479.35,-321.63 494.35,-302.59"/>
<polygon fill="#63b8ff" stroke="#63b8ff" points="424.05,-386.17 420.61,-396.2 429.55,-390.51 424.05,-386.17"/>
</a>
</g>
</g>
<!-- Node11&#45;&gt;Node9 -->
<g id="edge14_Node000009_Node000011" class="edge">
<title>Node11&#45;&gt;Node9</title>
<g id="a_edge14_Node000009_Node000011"><a xlink:title=" ">
<path fill="none" stroke="#63b8ff" d="M132.28,-386.18C128.97,-371.48 124.7,-352.52 122.17,-341.26"/>
<polygon fill="#63b8ff" stroke="#63b8ff" points="128.83,-386.79 134.45,-395.78 135.66,-385.25 128.83,-386.79"/>
</a>
</g>
</g>
<!-- Node12&#45;&gt;Node11 -->
<g id="edge16_Node000011_Node000012" class="edge">
<title>Node12&#45;&gt;Node11</title>
<g id="a_edge16_Node000011_Node000012"><a xlink:title=" ">
<path fill="none" stroke="#63b8ff" d="M144.23,-463.68C142.28,-448.98 139.77,-430.02 138.28,-418.76"/>
<polygon fill="#63b8ff" stroke="#63b8ff" points="140.71,-463.8 145.49,-473.25 147.65,-462.88 140.71,-463.8"/>
</a>
</g>
</g>
<!-- Node13 -->
<g id="Node000013" class="node">
<title>Node13</title>
<g id="a_Node000013"><a xlink:href="structnix_1_1SearchPath.html" target="_top" xlink:title=" ">
<polygon fill="white" stroke="#666666" points="299.5,-496 208.5,-496 208.5,-475.25 299.5,-475.25 299.5,-496"/>
<text text-anchor="middle" x="254" y="-482.5" font-family="Helvetica,sans-Serif" font-size="10.00">nix::SearchPath</text>
</a>
</g>
</g>
<!-- Node13&#45;&gt;Node11 -->
<g id="edge18_Node000011_Node000013" class="edge">
<title>Node13&#45;&gt;Node11</title>
<g id="a_edge18_Node000011_Node000013"><a xlink:title=" ">
<path fill="none" stroke="#9a32cd" stroke-dasharray="5,2" d="M229.16,-468.6C205.89,-453.58 171.83,-431.6 152.3,-419"/>
<polygon fill="#9a32cd" stroke="#9a32cd" points="227.13,-471.45 237.43,-473.93 230.93,-465.57 227.13,-471.45"/>
</a>
</g>
<text text-anchor="middle" x="237.55" y="-443.75" font-family="Helvetica,sans-Serif" font-size="10.00" fill="grey"> searchPath</text>
</g>
<!-- Node14 -->
<g id="Node000014" class="node">
<title>Node14</title>
<g id="a_Node000014"><a xlink:href="structnix_1_1flake_1_1LockFlags.html" target="_top" xlink:title=" ">
<polygon fill="white" stroke="#bfbfbf" points="307.5,-341 192.5,-341 192.5,-320.25 307.5,-320.25 307.5,-341"/>
<text text-anchor="middle" x="250" y="-327.5" font-family="Helvetica,sans-Serif" font-size="10.00">nix::flake::LockFlags</text>
</a>
</g>
</g>
<!-- Node14&#45;&gt;Node8 -->
<g id="edge19_Node000008_Node000014" class="edge">
<title>Node14&#45;&gt;Node8</title>
<g id="a_edge19_Node000008_Node000014"><a xlink:title=" ">
<path fill="none" stroke="#9a32cd" stroke-dasharray="5,2" d="M239.6,-309.99C231.72,-295.13 221.25,-275.36 215.1,-263.76"/>
<polygon fill="#9a32cd" stroke="#9a32cd" points="236.29,-311.22 244.06,-318.42 242.47,-307.94 236.29,-311.22"/>
</a>
</g>
<text text-anchor="middle" x="259.51" y="-288.75" font-family="Helvetica,sans-Serif" font-size="10.00" fill="grey"> lockFlags</text>
</g>
<!-- Node15&#45;&gt;Node1 -->
<g id="edge20_Node000001_Node000015" class="edge">
<title>Node15&#45;&gt;Node1</title>
<g id="a_edge20_Node000001_Node000015"><a xlink:title=" ">
<path fill="none" stroke="#63b8ff" d="M610.32,-426C617.71,-411.16 626,-390.12 626,-370.38 626,-370.38 626,-370.38 626,-78.88 626,-58.25 626,-34.08 626,-20.99"/>
<polygon fill="#63b8ff" stroke="#63b8ff" points="607.31,-424.21 605.7,-434.68 613.49,-427.5 607.31,-424.21"/>
</a>
</g>
</g>
<!-- Node16&#45;&gt;Node1 -->
<g id="edge22_Node000001_Node000016" class="edge">
<title>Node16&#45;&gt;Node1</title>
<g id="a_edge22_Node000001_Node000016"><a xlink:title=" ">
<path fill="none" stroke="#63b8ff" d="M673.89,-348.15C669.23,-333.11 664,-311.96 664,-292.88 664,-292.88 664,-292.88 664,-78.88 664,-55.74 646.85,-33.22 635.59,-20.94"/>
<polygon fill="#63b8ff" stroke="#63b8ff" points="670.46,-348.92 676.92,-357.32 677.11,-346.73 670.46,-348.92"/>
</a>
</g>
</g>
<!-- Node17&#45;&gt;Node1 -->
<g id="edge24_Node000001_Node000017" class="edge">
<title>Node17&#45;&gt;Node1</title>
<g id="a_edge24_Node000001_Node000017"><a xlink:title=" ">
<path fill="none" stroke="#63b8ff" d="M515.42,-271.69C523.01,-258.97 531,-241.59 531,-224.75 531,-224.75 531,-224.75 531,-78.88 531,-48.83 562.97,-30.93 589.81,-21.19"/>
<polygon fill="#63b8ff" stroke="#63b8ff" points="512.61,-269.58 510.14,-279.88 518.5,-273.37 512.61,-269.58"/>
</a>
</g>
</g>
<!-- Node18 -->
<g id="Node000018" class="node">
<title>Node18</title>
<g id="a_Node000018"><a xlink:title=" ">
<polygon fill="white" stroke="#bfbfbf" points="735.88,-90.25 692.12,-90.25 692.12,-69.5 735.88,-69.5 735.88,-90.25"/>
<text text-anchor="middle" x="714" y="-76.75" font-family="Helvetica,sans-Serif" font-size="10.00">string</text>
</a>
</g>
</g>
<!-- Node18&#45;&gt;Node1 -->
<g id="edge26_Node000001_Node000018" class="edge">
<title>Node18&#45;&gt;Node1</title>
<g id="a_edge26_Node000001_Node000018"><a xlink:title=" ">
<path fill="none" stroke="#9a32cd" stroke-dasharray="5,2" d="M699.86,-60.44C693.66,-53.12 685.99,-44.98 678,-38.75 669.15,-31.85 658.3,-25.83 648.81,-21.2"/>
<polygon fill="#9a32cd" stroke="#9a32cd" points="696.87,-62.3 705.87,-67.88 702.31,-57.9 696.87,-62.3"/>
</a>
</g>
<text text-anchor="middle" x="710.58" y="-42" font-family="Helvetica,sans-Serif" font-size="10.00" fill="grey"> outLink</text>
</g>
</g>
</svg>
