<?xml version="1.0" encoding="UTF-8" standalone="no"?>
<!DOCTYPE svg PUBLIC "-//W3C//DTD SVG 1.1//EN"
 "http://www.w3.org/Graphics/SVG/1.1/DTD/svg11.dtd">
<!-- Generated by graphviz version 12.2.1 (0)
 -->
<!-- Title: nix::CmdCopy Pages: 1 -->
<svg width="876pt" height="605pt"
 viewBox="0.00 0.00 876.38 604.50" xmlns="http://www.w3.org/2000/svg" xmlns:xlink="http://www.w3.org/1999/xlink">
<g id="graph0" class="graph" transform="scale(1 1) rotate(0) translate(4 600.5)">
<title>nix::CmdCopy</title>
<!-- Node1 -->
<g id="Node000001" class="node">
<title>Node1</title>
<g id="a_Node000001"><a xlink:title=" ">
<polygon fill="#999999" stroke="#666666" points="260,-20.75 175.75,-20.75 175.75,0 260,0 260,-20.75"/>
<text text-anchor="middle" x="217.88" y="-7.25" font-family="Helvetica,sans-Serif" font-size="10.00">nix::CmdCopy</text>
</a>
</g>
</g>
<!-- Node2 -->
<g id="Node000002" class="node">
<title>Node2</title>
<g id="a_Node000002"><a xlink:href="structnix_1_1CopyCommand.html" target="_top" xlink:title=" ">
<polygon fill="white" stroke="#666666" points="173.88,-379 61.87,-379 61.87,-358.25 173.88,-358.25 173.88,-379"/>
<text text-anchor="middle" x="117.88" y="-365.5" font-family="Helvetica,sans-Serif" font-size="10.00">nix::CopyCommand</text>
</a>
</g>
</g>
<!-- Node2&#45;&gt;Node1 -->
<g id="edge1_Node000001_Node000002" class="edge">
<title>Node2&#45;&gt;Node1</title>
<g id="a_edge1_Node000001_Node000002"><a xlink:title=" ">
<path fill="none" stroke="#63b8ff" d="M159.46,-353.51C182.24,-342.87 205.88,-325.67 205.88,-300.12 205.88,-300.12 205.88,-300.12 205.88,-67.12 205.88,-50.69 210.92,-32.13 214.47,-21.11"/>
<polygon fill="#63b8ff" stroke="#63b8ff" points="158.34,-350.18 150.54,-357.35 161.11,-356.61 158.34,-350.18"/>
</a>
</g>
</g>
<!-- Node3 -->
<g id="Node000003" class="node">
<title>Node3</title>
<g id="a_Node000003"><a xlink:href="structnix_1_1StoreCommand.html" target="_top" xlink:title=" ">
<polygon fill="white" stroke="#666666" points="174.25,-461.25 61.5,-461.25 61.5,-440.5 174.25,-440.5 174.25,-461.25"/>
<text text-anchor="middle" x="117.88" y="-447.75" font-family="Helvetica,sans-Serif" font-size="10.00">nix::StoreCommand</text>
</a>
</g>
</g>
<!-- Node3&#45;&gt;Node2 -->
<g id="edge2_Node000002_Node000003" class="edge">
<title>Node3&#45;&gt;Node2</title>
<g id="a_edge2_Node000002_Node000003"><a xlink:title=" ">
<path fill="none" stroke="#63b8ff" d="M117.88,-428.99C117.88,-412.84 117.88,-391.24 117.88,-379.05"/>
<polygon fill="#63b8ff" stroke="#63b8ff" points="114.38,-428.52 117.88,-438.52 121.38,-428.52 114.38,-428.52"/>
</a>
</g>
</g>
<!-- Node13 -->
<g id="Node000013" class="node">
<title>Node13</title>
<g id="a_Node000013"><a xlink:href="structnix_1_1EvalCommand.html" target="_top" xlink:title=" ">
<polygon fill="white" stroke="#666666" points="612,-379 503.75,-379 503.75,-358.25 612,-358.25 612,-379"/>
<text text-anchor="middle" x="557.88" y="-365.5" font-family="Helvetica,sans-Serif" font-size="10.00">nix::EvalCommand</text>
</a>
</g>
</g>
<!-- Node3&#45;&gt;Node13 -->
<g id="edge17_Node000013_Node000003" class="edge">
<title>Node3&#45;&gt;Node13</title>
<g id="a_edge17_Node000013_Node000003"><a xlink:title=" ">
<path fill="none" stroke="#63b8ff" d="M183.15,-437.97C270.24,-422.09 422.84,-394.25 503.83,-379.48"/>
<polygon fill="#63b8ff" stroke="#63b8ff" points="182.53,-434.53 173.32,-439.76 183.78,-441.41 182.53,-434.53"/>
</a>
</g>
</g>
<!-- Node4 -->
<g id="Node000004" class="node">
<title>Node4</title>
<g id="a_Node000004"><a xlink:href="structnix_1_1Command.html" target="_top" xlink:title=" ">
<polygon fill="white" stroke="#666666" points="280.5,-538.75 193.25,-538.75 193.25,-518 280.5,-518 280.5,-538.75"/>
<text text-anchor="middle" x="236.88" y="-525.25" font-family="Helvetica,sans-Serif" font-size="10.00">nix::Command</text>
</a>
</g>
</g>
<!-- Node4&#45;&gt;Node3 -->
<g id="edge3_Node000003_Node000004" class="edge">
<title>Node4&#45;&gt;Node3</title>
<g id="a_edge3_Node000003_Node000004"><a xlink:title=" ">
<path fill="none" stroke="#63b8ff" d="M211.61,-511.35C187.94,-496.33 153.3,-474.35 133.44,-461.75"/>
<polygon fill="#63b8ff" stroke="#63b8ff" points="209.72,-514.29 220.04,-516.69 213.47,-508.38 209.72,-514.29"/>
</a>
</g>
</g>
<!-- Node6 -->
<g id="Node000006" class="node">
<title>Node6</title>
<g id="a_Node000006"><a xlink:href="classnix_1_1MultiCommand.html" target="_top" xlink:title=" ">
<polygon fill="white" stroke="#666666" points="303.88,-461.25 191.88,-461.25 191.88,-440.5 303.88,-440.5 303.88,-461.25"/>
<text text-anchor="middle" x="247.88" y="-447.75" font-family="Helvetica,sans-Serif" font-size="10.00">nix::MultiCommand</text>
</a>
</g>
</g>
<!-- Node4&#45;&gt;Node6 -->
<g id="edge6_Node000006_Node000004" class="edge">
<title>Node4&#45;&gt;Node6</title>
<g id="a_edge6_Node000006_Node000004"><a xlink:title=" ">
<path fill="none" stroke="#63b8ff" d="M239.93,-506.43C242.07,-491.73 244.83,-472.77 246.47,-461.51"/>
<polygon fill="#63b8ff" stroke="#63b8ff" points="236.51,-505.61 238.53,-516.01 243.44,-506.62 236.51,-505.61"/>
</a>
</g>
</g>
<!-- Node5 -->
<g id="Node000005" class="node">
<title>Node5</title>
<g id="a_Node000005"><a xlink:href="classnix_1_1Args.html" target="_top" xlink:title=" ">
<polygon fill="white" stroke="#bfbfbf" points="615.25,-596.5 556.5,-596.5 556.5,-575.75 615.25,-575.75 615.25,-596.5"/>
<text text-anchor="middle" x="585.88" y="-583" font-family="Helvetica,sans-Serif" font-size="10.00">nix::Args</text>
</a>
</g>
</g>
<!-- Node5&#45;&gt;Node4 -->
<g id="edge4_Node000004_Node000005" class="edge">
<title>Node5&#45;&gt;Node4</title>
<g id="a_edge4_Node000004_Node000005"><a xlink:title=" ">
<path fill="none" stroke="#63b8ff" d="M544.91,-585.87C487.8,-585.87 381.52,-582.14 294.88,-557.75 279.98,-553.56 264.29,-545.64 252.99,-539.23"/>
<polygon fill="#63b8ff" stroke="#63b8ff" points="544.83,-589.37 554.81,-585.82 544.8,-582.37 544.83,-589.37"/>
</a>
</g>
</g>
<!-- Node10 -->
<g id="Node000010" class="node">
<title>Node10</title>
<g id="a_Node000010"><a xlink:href="structnix_1_1RawInstallablesCommand.html" target="_top" xlink:title=" ">
<polygon fill="white" stroke="#666666" points="691.12,-194 526.62,-194 526.62,-173.25 691.12,-173.25 691.12,-194"/>
<text text-anchor="middle" x="608.88" y="-180.5" font-family="Helvetica,sans-Serif" font-size="10.00">nix::RawInstallablesCommand</text>
</a>
</g>
</g>
<!-- Node5&#45;&gt;Node10 -->
<g id="edge11_Node000010_Node000005" class="edge">
<title>Node5&#45;&gt;Node10</title>
<g id="a_edge11_Node000010_Node000005"><a xlink:title=" ">
<path fill="none" stroke="#63b8ff" d="M626.8,-582.93C662.25,-578.55 707.88,-565.83 707.88,-529.38 707.88,-529.38 707.88,-529.38 707.88,-240.38 707.88,-216.11 685.02,-202.3 661.27,-194.49"/>
<polygon fill="#63b8ff" stroke="#63b8ff" points="626.81,-579.41 617.23,-583.92 627.53,-586.37 626.81,-579.41"/>
</a>
</g>
</g>
<!-- Node11 -->
<g id="Node000011" class="node">
<title>Node11</title>
<g id="a_Node000011"><a xlink:href="structnix_1_1SourceExprCommand.html" target="_top" xlink:title=" ">
<polygon fill="white" stroke="#bfbfbf" points="628.88,-251.75 486.88,-251.75 486.88,-231 628.88,-231 628.88,-251.75"/>
<text text-anchor="middle" x="557.88" y="-238.25" font-family="Helvetica,sans-Serif" font-size="10.00">nix::SourceExprCommand</text>
</a>
</g>
</g>
<!-- Node5&#45;&gt;Node11 -->
<g id="edge13_Node000011_Node000005" class="edge">
<title>Node5&#45;&gt;Node11</title>
<g id="a_edge13_Node000011_Node000005"><a xlink:title=" ">
<path fill="none" stroke="#63b8ff" d="M544.72,-584.15C478,-581.59 350.97,-572.32 323.88,-538.75 318.08,-531.57 323.53,-527.22 323.88,-518 325.65,-470.23 331.88,-458.55 331.88,-410.75 331.88,-410.75 331.88,-410.75 331.88,-298.12 331.88,-265.74 420.43,-252.06 486.68,-246.35"/>
<polygon fill="#63b8ff" stroke="#63b8ff" points="544.42,-587.64 554.53,-584.49 544.66,-580.65 544.42,-587.64"/>
</a>
</g>
</g>
<!-- Node12 -->
<g id="Node000012" class="node">
<title>Node12</title>
<g id="a_Node000012"><a xlink:href="structnix_1_1MixFlakeOptions.html" target="_top" xlink:title=" ">
<polygon fill="white" stroke="#666666" points="617.25,-309.5 498.5,-309.5 498.5,-288.75 617.25,-288.75 617.25,-309.5"/>
<text text-anchor="middle" x="557.88" y="-296" font-family="Helvetica,sans-Serif" font-size="10.00">nix::MixFlakeOptions</text>
</a>
</g>
</g>
<!-- Node5&#45;&gt;Node12 -->
<g id="edge15_Node000012_Node000005" class="edge">
<title>Node5&#45;&gt;Node12</title>
<g id="a_edge15_Node000012_Node000005"><a xlink:title=" ">
<path fill="none" stroke="#63b8ff" d="M626.45,-574.61C647.92,-566.34 669.88,-552.28 669.88,-529.38 669.88,-529.38 669.88,-529.38 669.88,-367.62 669.88,-336.3 637.33,-319.13 607.33,-309.96"/>
<polygon fill="#63b8ff" stroke="#63b8ff" points="625.46,-571.25 617.16,-577.82 627.75,-577.86 625.46,-571.25"/>
</a>
</g>
</g>
<!-- Node14 -->
<g id="Node000014" class="node">
<title>Node14</title>
<g id="a_Node000014"><a xlink:href="structnix_1_1MixEvalArgs.html" target="_top" xlink:title=" ">
<polygon fill="white" stroke="#bfbfbf" points="606.75,-461.25 509,-461.25 509,-440.5 606.75,-440.5 606.75,-461.25"/>
<text text-anchor="middle" x="557.88" y="-447.75" font-family="Helvetica,sans-Serif" font-size="10.00">nix::MixEvalArgs</text>
</a>
</g>
</g>
<!-- Node5&#45;&gt;Node14 -->
<g id="edge19_Node000014_Node000005" class="edge">
<title>Node5&#45;&gt;Node14</title>
<g id="a_edge19_Node000014_Node000005"><a xlink:title=" ">
<path fill="none" stroke="#63b8ff" d="M600.5,-566.25C615.83,-543.99 635.44,-506.56 617.88,-479.25 612.8,-471.35 604.82,-465.71 596.31,-461.68"/>
<polygon fill="#63b8ff" stroke="#63b8ff" points="597.85,-563.95 594.8,-574.1 603.51,-568.07 597.85,-563.95"/>
</a>
</g>
</g>
<!-- Node15 -->
<g id="Node000015" class="node">
<title>Node15</title>
<g id="a_Node000015"><a xlink:href="structnix_1_1MixRepair.html" target="_top" xlink:title=" ">
<polygon fill="white" stroke="#bfbfbf" points="494.12,-538.75 407.62,-538.75 407.62,-518 494.12,-518 494.12,-538.75"/>
<text text-anchor="middle" x="450.88" y="-525.25" font-family="Helvetica,sans-Serif" font-size="10.00">nix::MixRepair</text>
</a>
</g>
</g>
<!-- Node5&#45;&gt;Node15 -->
<g id="edge21_Node000015_Node000005" class="edge">
<title>Node5&#45;&gt;Node15</title>
<g id="a_edge21_Node000015_Node000005"><a xlink:title=" ">
<path fill="none" stroke="#63b8ff" d="M551.56,-570.95C527.44,-560.99 495.78,-547.92 474.46,-539.12"/>
<polygon fill="#63b8ff" stroke="#63b8ff" points="550.07,-574.13 560.65,-574.71 552.74,-567.66 550.07,-574.13"/>
</a>
</g>
</g>
<!-- Node18 -->
<g id="Node000018" class="node">
<title>Node18</title>
<g id="a_Node000018"><a xlink:href="structnix_1_1MixOperateOnOptions.html" target="_top" xlink:title=" ">
<polygon fill="white" stroke="#bfbfbf" points="868.38,-500 723.38,-500 723.38,-479.25 868.38,-479.25 868.38,-500"/>
<text text-anchor="middle" x="795.88" y="-486.5" font-family="Helvetica,sans-Serif" font-size="10.00">nix::MixOperateOnOptions</text>
</a>
</g>
</g>
<!-- Node5&#45;&gt;Node18 -->
<g id="edge25_Node000018_Node000005" class="edge">
<title>Node5&#45;&gt;Node18</title>
<g id="a_edge25_Node000018_Node000005"><a xlink:title=" ">
<path fill="none" stroke="#63b8ff" d="M627.13,-582.58C655.11,-579.5 692.25,-572.71 721.88,-557.75 750.36,-543.36 776.13,-514.98 788.37,-500.15"/>
<polygon fill="#63b8ff" stroke="#63b8ff" points="626.87,-579.08 617.25,-583.53 627.54,-586.05 626.87,-579.08"/>
</a>
</g>
</g>
<!-- Node6&#45;&gt;Node5 -->
<g id="edge5_Node000005_Node000006" class="edge">
<title>Node6&#45;&gt;Node5</title>
<g id="a_edge5_Node000005_Node000006"><a xlink:title=" ">
<path fill="none" stroke="#9a32cd" stroke-dasharray="5,2" d="M266.01,-469.44C287.64,-489.36 325.73,-521.33 364.38,-538.75 429.02,-567.9 512.62,-579 556.31,-583.01"/>
<polygon fill="#9a32cd" stroke="#9a32cd" points="268.58,-467.05 258.9,-462.75 263.79,-472.15 268.58,-467.05"/>
</a>
</g>
<text text-anchor="middle" x="381.62" y="-525.25" font-family="Helvetica,sans-Serif" font-size="10.00" fill="grey"> parent</text>
</g>
<!-- Node7 -->
<g id="Node000007" class="node">
<title>Node7</title>
<g id="a_Node000007"><a xlink:title=" ">
<polygon fill="white" stroke="#bfbfbf" points="43.75,-461.25 0,-461.25 0,-440.5 43.75,-440.5 43.75,-461.25"/>
<text text-anchor="middle" x="21.88" y="-447.75" font-family="Helvetica,sans-Serif" font-size="10.00">string</text>
</a>
</g>
</g>
<!-- Node7&#45;&gt;Node2 -->
<g id="edge7_Node000002_Node000007" class="edge">
<title>Node7&#45;&gt;Node2</title>
<g id="a_edge7_Node000002_Node000007"><a xlink:title=" ">
<path fill="none" stroke="#9a32cd" stroke-dasharray="5,2" d="M40.66,-432.58C52.27,-422.06 67.58,-408.49 81.62,-397 89.07,-390.91 97.65,-384.41 104.6,-379.27"/>
<polygon fill="#9a32cd" stroke="#9a32cd" points="38.38,-429.92 33.36,-439.24 43.1,-435.09 38.38,-429.92"/>
</a>
</g>
<text text-anchor="middle" x="97.75" y="-413" font-family="Helvetica,sans-Serif" font-size="10.00" fill="grey"> dstUri</text>
<text text-anchor="middle" x="97.75" y="-400.25" font-family="Helvetica,sans-Serif" font-size="10.00" fill="grey">srcUri</text>
</g>
<!-- Node8 -->
<g id="Node000008" class="node">
<title>Node8</title>
<g id="a_Node000008"><a xlink:href="structnix_1_1BuiltPathsCommand.html" target="_top" xlink:title=" ">
<polygon fill="white" stroke="#666666" points="676.88,-78.5 540.88,-78.5 540.88,-57.75 676.88,-57.75 676.88,-78.5"/>
<text text-anchor="middle" x="608.88" y="-65" font-family="Helvetica,sans-Serif" font-size="10.00">nix::BuiltPathsCommand</text>
</a>
</g>
</g>
<!-- Node8&#45;&gt;Node1 -->
<g id="edge8_Node000001_Node000008" class="edge">
<title>Node8&#45;&gt;Node1</title>
<g id="a_edge8_Node000001_Node000008"><a xlink:title=" ">
<path fill="none" stroke="#63b8ff" d="M529.59,-55.82C448.3,-44.23 324.92,-26.64 260.47,-17.45"/>
<polygon fill="#63b8ff" stroke="#63b8ff" points="528.88,-59.25 539.27,-57.2 529.86,-52.32 528.88,-59.25"/>
</a>
</g>
</g>
<!-- Node9 -->
<g id="Node000009" class="node">
<title>Node9</title>
<g id="a_Node000009"><a xlink:href="structnix_1_1InstallablesCommand.html" target="_top" xlink:title=" ">
<polygon fill="white" stroke="#666666" points="680.62,-136.25 537.12,-136.25 537.12,-115.5 680.62,-115.5 680.62,-136.25"/>
<text text-anchor="middle" x="608.88" y="-122.75" font-family="Helvetica,sans-Serif" font-size="10.00">nix::InstallablesCommand</text>
</a>
</g>
</g>
<!-- Node9&#45;&gt;Node8 -->
<g id="edge9_Node000008_Node000009" class="edge">
<title>Node9&#45;&gt;Node8</title>
<g id="a_edge9_Node000008_Node000009"><a xlink:title=" ">
<path fill="none" stroke="#63b8ff" d="M608.88,-103.93C608.88,-95.27 608.88,-85.65 608.88,-78.72"/>
<polygon fill="#63b8ff" stroke="#63b8ff" points="605.38,-103.65 608.88,-113.65 612.38,-103.65 605.38,-103.65"/>
</a>
</g>
</g>
<!-- Node10&#45;&gt;Node9 -->
<g id="edge10_Node000009_Node000010" class="edge">
<title>Node10&#45;&gt;Node9</title>
<g id="a_edge10_Node000009_Node000010"><a xlink:title=" ">
<path fill="none" stroke="#63b8ff" d="M608.88,-161.68C608.88,-153.02 608.88,-143.4 608.88,-136.47"/>
<polygon fill="#63b8ff" stroke="#63b8ff" points="605.38,-161.4 608.88,-171.4 612.38,-161.4 605.38,-161.4"/>
</a>
</g>
</g>
<!-- Node11&#45;&gt;Node10 -->
<g id="edge12_Node000010_Node000011" class="edge">
<title>Node11&#45;&gt;Node10</title>
<g id="a_edge12_Node000010_Node000011"><a xlink:title=" ">
<path fill="none" stroke="#63b8ff" d="M574.34,-222.38C582.9,-213.02 593.03,-201.95 600.09,-194.22"/>
<polygon fill="#63b8ff" stroke="#63b8ff" points="571.95,-219.81 567.78,-229.55 577.11,-224.53 571.95,-219.81"/>
</a>
</g>
</g>
<!-- Node12&#45;&gt;Node11 -->
<g id="edge14_Node000011_Node000012" class="edge">
<title>Node12&#45;&gt;Node11</title>
<g id="a_edge14_Node000011_Node000012"><a xlink:title=" ">
<path fill="none" stroke="#63b8ff" d="M557.88,-277.18C557.88,-268.52 557.88,-258.9 557.88,-251.97"/>
<polygon fill="#63b8ff" stroke="#63b8ff" points="554.38,-276.9 557.88,-286.9 561.38,-276.9 554.38,-276.9"/>
</a>
</g>
</g>
<!-- Node13&#45;&gt;Node12 -->
<g id="edge16_Node000012_Node000013" class="edge">
<title>Node13&#45;&gt;Node12</title>
<g id="a_edge16_Node000012_Node000013"><a xlink:title=" ">
<path fill="none" stroke="#63b8ff" d="M557.88,-346.82C557.88,-334.47 557.88,-319.4 557.88,-309.78"/>
<polygon fill="#63b8ff" stroke="#63b8ff" points="554.38,-346.44 557.88,-356.44 561.38,-346.44 554.38,-346.44"/>
</a>
</g>
</g>
<!-- Node14&#45;&gt;Node13 -->
<g id="edge18_Node000013_Node000014" class="edge">
<title>Node14&#45;&gt;Node13</title>
<g id="a_edge18_Node000013_Node000014"><a xlink:title=" ">
<path fill="none" stroke="#63b8ff" d="M557.88,-428.99C557.88,-412.84 557.88,-391.24 557.88,-379.05"/>
<polygon fill="#63b8ff" stroke="#63b8ff" points="554.38,-428.52 557.88,-438.52 561.38,-428.52 554.38,-428.52"/>
</a>
</g>
</g>
<!-- Node15&#45;&gt;Node14 -->
<g id="edge20_Node000014_Node000015" class="edge">
<title>Node15&#45;&gt;Node14</title>
<g id="a_edge20_Node000014_Node000015"><a xlink:title=" ">
<path fill="none" stroke="#63b8ff" d="M474.17,-510.94C495.43,-495.93 526.18,-474.24 543.88,-461.75"/>
<polygon fill="#63b8ff" stroke="#63b8ff" points="472.25,-508.01 466.1,-516.63 476.29,-513.73 472.25,-508.01"/>
</a>
</g>
</g>
<!-- Node16 -->
<g id="Node000016" class="node">
<title>Node16</title>
<g id="a_Node000016"><a xlink:href="structnix_1_1SearchPath.html" target="_top" xlink:title=" ">
<polygon fill="white" stroke="#666666" points="603.38,-538.75 512.38,-538.75 512.38,-518 603.38,-518 603.38,-538.75"/>
<text text-anchor="middle" x="557.88" y="-525.25" font-family="Helvetica,sans-Serif" font-size="10.00">nix::SearchPath</text>
</a>
</g>
</g>
<!-- Node16&#45;&gt;Node14 -->
<g id="edge22_Node000014_Node000016" class="edge">
<title>Node16&#45;&gt;Node14</title>
<g id="a_edge22_Node000014_Node000016"><a xlink:title=" ">
<path fill="none" stroke="#9a32cd" stroke-dasharray="5,2" d="M557.88,-506.43C557.88,-491.73 557.88,-472.77 557.88,-461.51"/>
<polygon fill="#9a32cd" stroke="#9a32cd" points="554.38,-505.99 557.88,-515.99 561.38,-505.99 554.38,-505.99"/>
</a>
</g>
<text text-anchor="middle" x="586" y="-486.5" font-family="Helvetica,sans-Serif" font-size="10.00" fill="grey"> searchPath</text>
</g>
<!-- Node17 -->
<g id="Node000017" class="node">
<title>Node17</title>
<g id="a_Node000017"><a xlink:href="structnix_1_1flake_1_1LockFlags.html" target="_top" xlink:title=" ">
<polygon fill="white" stroke="#bfbfbf" points="485.38,-379 370.38,-379 370.38,-358.25 485.38,-358.25 485.38,-379"/>
<text text-anchor="middle" x="427.88" y="-365.5" font-family="Helvetica,sans-Serif" font-size="10.00">nix::flake::LockFlags</text>
</a>
</g>
</g>
<!-- Node17&#45;&gt;Node12 -->
<g id="edge23_Node000012_Node000017" class="edge">
<title>Node17&#45;&gt;Node12</title>
<g id="a_edge23_Node000012_Node000017"><a xlink:title=" ">
<path fill="none" stroke="#9a32cd" stroke-dasharray="5,2" d="M456.21,-352.67C470.62,-345.1 488.41,-335.77 504.38,-327.5 515.68,-321.64 528.36,-315.15 538.54,-309.96"/>
<polygon fill="#9a32cd" stroke="#9a32cd" points="454.95,-349.38 447.74,-357.14 458.22,-355.58 454.95,-349.38"/>
</a>
</g>
<text text-anchor="middle" x="529.12" y="-330.75" font-family="Helvetica,sans-Serif" font-size="10.00" fill="grey"> lockFlags</text>
</g>
<!-- Node18&#45;&gt;Node8 -->
<g id="edge24_Node000008_Node000018" class="edge">
<title>Node18&#45;&gt;Node8</title>
<g id="a_edge24_Node000008_Node000018"><a xlink:title=" ">
<path fill="none" stroke="#63b8ff" d="M785.02,-469.05C777.52,-453.68 768.88,-431.48 768.88,-410.75 768.88,-410.75 768.88,-410.75 768.88,-124.88 768.88,-103.18 715.76,-87.98 670.74,-78.99"/>
<polygon fill="#63b8ff" stroke="#63b8ff" points="781.74,-470.32 789.45,-477.58 787.95,-467.09 781.74,-470.32"/>
</a>
</g>
</g>
</g>
</svg>
