<?xml version="1.0" encoding="UTF-8" standalone="no"?>
<!DOCTYPE svg PUBLIC "-//W3C//DTD SVG 1.1//EN"
 "http://www.w3.org/Graphics/SVG/1.1/DTD/svg11.dtd">
<!-- Generated by graphviz version 12.2.1 (0)
 -->
<!-- Title: nix::LegacySSHStoreConfigWithLog Pages: 1 -->
<svg width="1383pt" height="428pt"
 viewBox="0.00 0.00 1382.75 427.50" xmlns="http://www.w3.org/2000/svg" xmlns:xlink="http://www.w3.org/1999/xlink">
<g id="graph0" class="graph" transform="scale(1 1) rotate(0) translate(4 423.5)">
<title>nix::LegacySSHStoreConfigWithLog</title>
<!-- Node1 -->
<g id="Node000001" class="node">
<title>Node1</title>
<g id="a_Node000001"><a xlink:title=" ">
<polygon fill="#999999" stroke="#666666" points="1374.75,-400.5 1227.5,-400.5 1227.5,-367 1374.75,-367 1374.75,-400.5"/>
<text text-anchor="start" x="1235.5" y="-387" font-family="Helvetica,sans-Serif" font-size="10.00">nix::LegacySSHStoreConfig</text>
<text text-anchor="middle" x="1301.12" y="-374.25" font-family="Helvetica,sans-Serif" font-size="10.00">WithLog</text>
</a>
</g>
</g>
<!-- Node2 -->
<g id="Node000002" class="node">
<title>Node2</title>
<g id="a_Node000002"><a xlink:href="structnix_1_1LegacySSHStoreConfig.html" target="_top" xlink:title=" ">
<polygon fill="white" stroke="#bfbfbf" points="1190.5,-351.12 1043.25,-351.12 1043.25,-330.38 1190.5,-330.38 1190.5,-351.12"/>
<text text-anchor="middle" x="1116.88" y="-337.62" font-family="Helvetica,sans-Serif" font-size="10.00">nix::LegacySSHStoreConfig</text>
</a>
</g>
</g>
<!-- Node2&#45;&gt;Node1 -->
<g id="edge1_Node000001_Node000002" class="edge">
<title>Node2&#45;&gt;Node1</title>
<g id="a_edge1_Node000001_Node000002"><a xlink:title=" ">
<path fill="none" stroke="#63b8ff" d="M1175,-354.23C1191.54,-358.13 1209.83,-362.45 1227.19,-366.54"/>
<polygon fill="#63b8ff" stroke="#63b8ff" points="1175.87,-350.84 1165.34,-351.95 1174.27,-357.65 1175.87,-350.84"/>
</a>
</g>
</g>
<!-- Node3 -->
<g id="Node000003" class="node">
<title>Node3</title>
<g id="a_Node000003"><a xlink:href="structnix_1_1CommonSSHStoreConfig.html" target="_top" xlink:title=" ">
<polygon fill="white" stroke="#bfbfbf" points="1006.25,-145.12 849.25,-145.12 849.25,-124.38 1006.25,-124.38 1006.25,-145.12"/>
<text text-anchor="middle" x="927.75" y="-131.62" font-family="Helvetica,sans-Serif" font-size="10.00">nix::CommonSSHStoreConfig</text>
</a>
</g>
</g>
<!-- Node3&#45;&gt;Node2 -->
<g id="edge2_Node000002_Node000003" class="edge">
<title>Node3&#45;&gt;Node2</title>
<g id="a_edge2_Node000002_Node000003"><a xlink:title=" ">
<path fill="none" stroke="#63b8ff" d="M946.13,-153.88C984.65,-196.29 1076.18,-297.05 1106.17,-330.07"/>
<polygon fill="#63b8ff" stroke="#63b8ff" points="948.88,-151.7 939.56,-146.66 943.7,-156.41 948.88,-151.7"/>
</a>
</g>
</g>
<!-- Node4 -->
<g id="Node000004" class="node">
<title>Node4</title>
<g id="a_Node000004"><a xlink:href="structnix_1_1StoreConfig.html" target="_top" xlink:title=" ">
<polygon fill="white" stroke="#bfbfbf" points="717.62,-251.12 624.38,-251.12 624.38,-230.38 717.62,-230.38 717.62,-251.12"/>
<text text-anchor="middle" x="671" y="-237.62" font-family="Helvetica,sans-Serif" font-size="10.00">nix::StoreConfig</text>
</a>
</g>
</g>
<!-- Node4&#45;&gt;Node3 -->
<g id="edge3_Node000003_Node000004" class="edge">
<title>Node4&#45;&gt;Node3</title>
<g id="a_edge3_Node000003_Node000004"><a xlink:title=" ">
<path fill="none" stroke="#63b8ff" d="M708.27,-225.66C760.39,-203.97 855.22,-164.51 900.85,-145.53"/>
<polygon fill="#63b8ff" stroke="#63b8ff" points="707.11,-222.35 699.23,-229.42 709.8,-228.81 707.11,-222.35"/>
</a>
</g>
</g>
<!-- Node5 -->
<g id="Node000005" class="node">
<title>Node5</title>
<g id="a_Node000005"><a xlink:href="classnix_1_1Config.html" target="_top" xlink:title=" ">
<polygon fill="white" stroke="#666666" points="413,-297.12 345.25,-297.12 345.25,-276.38 413,-276.38 413,-297.12"/>
<text text-anchor="middle" x="379.12" y="-283.62" font-family="Helvetica,sans-Serif" font-size="10.00">nix::Config</text>
</a>
</g>
</g>
<!-- Node5&#45;&gt;Node4 -->
<g id="edge4_Node000004_Node000005" class="edge">
<title>Node5&#45;&gt;Node4</title>
<g id="a_edge4_Node000004_Node000005"><a xlink:title=" ">
<path fill="none" stroke="#63b8ff" d="M424.54,-282.82C468.26,-278.57 536.83,-270.86 595.5,-259.75 607.3,-257.51 620.02,-254.5 631.54,-251.54"/>
<polygon fill="#63b8ff" stroke="#63b8ff" points="424.29,-279.33 414.67,-283.76 424.96,-286.29 424.29,-279.33"/>
</a>
</g>
</g>
<!-- Node6 -->
<g id="Node000006" class="node">
<title>Node6</title>
<g id="a_Node000006"><a xlink:href="classnix_1_1AbstractConfig.html" target="_top" xlink:title=" ">
<polygon fill="white" stroke="#bfbfbf" points="265.12,-297.12 156.88,-297.12 156.88,-276.38 265.12,-276.38 265.12,-297.12"/>
<text text-anchor="middle" x="211" y="-283.62" font-family="Helvetica,sans-Serif" font-size="10.00">nix::AbstractConfig</text>
</a>
</g>
</g>
<!-- Node6&#45;&gt;Node5 -->
<g id="edge5_Node000005_Node000006" class="edge">
<title>Node6&#45;&gt;Node5</title>
<g id="a_edge5_Node000005_Node000006"><a xlink:title=" ">
<path fill="none" stroke="#63b8ff" d="M276.75,-286.75C300.13,-286.75 325.54,-286.75 345.07,-286.75"/>
<polygon fill="#63b8ff" stroke="#63b8ff" points="276.99,-283.25 266.99,-286.75 276.99,-290.25 276.99,-283.25"/>
</a>
</g>
</g>
<!-- Node7 -->
<g id="Node000007" class="node">
<title>Node7</title>
<g id="a_Node000007"><a xlink:href="classnix_1_1PathsSetting.html" target="_top" xlink:title=" ">
<polygon fill="white" stroke="#666666" points="432.12,-209.5 326.12,-209.5 326.12,-176 432.12,-176 432.12,-209.5"/>
<text text-anchor="start" x="334.12" y="-196" font-family="Helvetica,sans-Serif" font-size="10.00">nix::PathsSetting&lt;</text>
<text text-anchor="middle" x="379.12" y="-183.25" font-family="Helvetica,sans-Serif" font-size="10.00"> Path &gt;</text>
</a>
</g>
</g>
<!-- Node7&#45;&gt;Node4 -->
<g id="edge6_Node000004_Node000007" class="edge">
<title>Node7&#45;&gt;Node4</title>
<g id="a_edge6_Node000004_Node000007"><a xlink:title=" ">
<path fill="none" stroke="#9a32cd" stroke-dasharray="5,2" d="M443.64,-201.25C486.62,-207.24 544.61,-215.82 595.5,-225 604.74,-226.67 614.58,-228.62 623.98,-230.57"/>
<polygon fill="#9a32cd" stroke="#9a32cd" points="444.38,-197.81 433.99,-199.91 443.42,-204.75 444.38,-197.81"/>
</a>
</g>
<text text-anchor="middle" x="530.88" y="-228.25" font-family="Helvetica,sans-Serif" font-size="10.00" fill="grey"> storeDir_</text>
</g>
<!-- Node8 -->
<g id="Node000008" class="node">
<title>Node8</title>
<g id="a_Node000008"><a xlink:href="classnix_1_1BaseSetting.html" target="_top" xlink:title=" ">
<polygon fill="white" stroke="#666666" points="273,-155.12 149,-155.12 149,-134.38 273,-134.38 273,-155.12"/>
<text text-anchor="middle" x="211" y="-141.62" font-family="Helvetica,sans-Serif" font-size="10.00">nix::BaseSetting&lt; T &gt;</text>
</a>
</g>
</g>
<!-- Node8&#45;&gt;Node7 -->
<g id="edge7_Node000007_Node000008" class="edge">
<title>Node8&#45;&gt;Node7</title>
<g id="a_edge7_Node000007_Node000008"><a xlink:title=" ">
<path fill="none" stroke="#63b8ff" d="M260.3,-158.71C280.86,-164.65 304.88,-171.59 325.85,-177.65"/>
<polygon fill="#63b8ff" stroke="#63b8ff" points="261.31,-155.36 250.74,-155.94 259.37,-162.08 261.31,-155.36"/>
</a>
</g>
</g>
<!-- Node18 -->
<g id="Node000018" class="node">
<title>Node18</title>
<g id="a_Node000018"><a xlink:href="classnix_1_1Setting.html" target="_top" xlink:title=" ">
<polygon fill="white" stroke="#bfbfbf" points="728.5,-167.12 613.5,-167.12 613.5,-146.38 728.5,-146.38 728.5,-167.12"/>
<text text-anchor="middle" x="671" y="-153.62" font-family="Helvetica,sans-Serif" font-size="10.00">nix::Setting&lt; Path &gt;</text>
</a>
</g>
</g>
<!-- Node8&#45;&gt;Node18 -->
<g id="edge22_Node000018_Node000008" class="edge">
<title>Node8&#45;&gt;Node18</title>
<g id="a_edge22_Node000018_Node000008"><a xlink:title=" ">
<path fill="none" stroke="#63b8ff" d="M284.93,-146.64C362.08,-148.63 487.37,-151.89 595.5,-154.75 601.19,-154.9 607.13,-155.06 613.05,-155.22"/>
<polygon fill="#63b8ff" stroke="#63b8ff" points="285.04,-143.14 274.95,-146.38 284.86,-150.13 285.04,-143.14"/>
</a>
</g>
</g>
<!-- Node9 -->
<g id="Node000009" class="node">
<title>Node9</title>
<g id="a_Node000009"><a xlink:href="classnix_1_1AbstractSetting.html" target="_top" xlink:title=" ">
<polygon fill="white" stroke="#bfbfbf" points="112,-131.12 0,-131.12 0,-110.38 112,-110.38 112,-131.12"/>
<text text-anchor="middle" x="56" y="-117.62" font-family="Helvetica,sans-Serif" font-size="10.00">nix::AbstractSetting</text>
</a>
</g>
</g>
<!-- Node9&#45;&gt;Node8 -->
<g id="edge8_Node000008_Node000009" class="edge">
<title>Node9&#45;&gt;Node8</title>
<g id="a_edge8_Node000008_Node000009"><a xlink:title=" ">
<path fill="none" stroke="#63b8ff" d="M123.49,-131.18C131.84,-132.49 140.35,-133.83 148.62,-135.12"/>
<polygon fill="#63b8ff" stroke="#63b8ff" points="124.15,-127.74 113.73,-129.65 123.07,-134.66 124.15,-127.74"/>
</a>
</g>
</g>
<!-- Node11 -->
<g id="Node000011" class="node">
<title>Node11</title>
<g id="a_Node000011"><a xlink:href="classnix_1_1BaseSetting.html" target="_top" xlink:title=" ">
<polygon fill="white" stroke="#666666" points="273,-336.12 149,-336.12 149,-315.38 273,-315.38 273,-336.12"/>
<text text-anchor="middle" x="211" y="-322.62" font-family="Helvetica,sans-Serif" font-size="10.00">nix::BaseSetting&lt; T &gt;</text>
</a>
</g>
</g>
<!-- Node9&#45;&gt;Node11 -->
<g id="edge11_Node000011_Node000009" class="edge">
<title>Node9&#45;&gt;Node11</title>
<g id="a_edge11_Node000011_Node000009"><a xlink:title=" ">
<path fill="none" stroke="#63b8ff" d="M61.92,-142.42C71.75,-180.87 97.46,-261.17 149,-305.75 153.3,-309.47 158.31,-312.5 163.57,-314.97"/>
<polygon fill="#63b8ff" stroke="#63b8ff" points="65.33,-141.67 59.58,-132.77 58.53,-143.31 65.33,-141.67"/>
</a>
</g>
</g>
<!-- Node13 -->
<g id="Node000013" class="node">
<title>Node13</title>
<g id="a_Node000013"><a xlink:href="classnix_1_1BaseSetting.html" target="_top" xlink:title=" ">
<polygon fill="white" stroke="#666666" points="273,-116.12 149,-116.12 149,-95.38 273,-95.38 273,-116.12"/>
<text text-anchor="middle" x="211" y="-102.62" font-family="Helvetica,sans-Serif" font-size="10.00">nix::BaseSetting&lt; T &gt;</text>
</a>
</g>
</g>
<!-- Node9&#45;&gt;Node13 -->
<g id="edge14_Node000013_Node000009" class="edge">
<title>Node9&#45;&gt;Node13</title>
<g id="a_edge14_Node000013_Node000009"><a xlink:title=" ">
<path fill="none" stroke="#63b8ff" d="M123.49,-114.23C131.84,-113.41 140.35,-112.58 148.62,-111.77"/>
<polygon fill="#63b8ff" stroke="#63b8ff" points="123.35,-110.73 113.74,-115.19 124.04,-117.69 123.35,-110.73"/>
</a>
</g>
</g>
<!-- Node15 -->
<g id="Node000015" class="node">
<title>Node15</title>
<g id="a_Node000015"><a xlink:href="classnix_1_1BaseSetting.html" target="_top" xlink:title=" ">
<polygon fill="white" stroke="#666666" points="273,-237.12 149,-237.12 149,-216.38 273,-216.38 273,-237.12"/>
<text text-anchor="middle" x="211" y="-223.62" font-family="Helvetica,sans-Serif" font-size="10.00">nix::BaseSetting&lt; T &gt;</text>
</a>
</g>
</g>
<!-- Node9&#45;&gt;Node15 -->
<g id="edge17_Node000015_Node000009" class="edge">
<title>Node9&#45;&gt;Node15</title>
<g id="a_edge17_Node000015_Node000009"><a xlink:title=" ">
<path fill="none" stroke="#63b8ff" d="M81.6,-137.79C113.4,-159.82 167.84,-197.54 194.45,-215.97"/>
<polygon fill="#63b8ff" stroke="#63b8ff" points="83.97,-135.18 73.76,-132.36 79.98,-140.93 83.97,-135.18"/>
</a>
</g>
</g>
<!-- Node17 -->
<g id="Node000017" class="node">
<title>Node17</title>
<g id="a_Node000017"><a xlink:href="classnix_1_1BaseSetting.html" target="_top" xlink:title=" ">
<polygon fill="white" stroke="#666666" points="273,-77.12 149,-77.12 149,-56.38 273,-56.38 273,-77.12"/>
<text text-anchor="middle" x="211" y="-63.62" font-family="Helvetica,sans-Serif" font-size="10.00">nix::BaseSetting&lt; T &gt;</text>
</a>
</g>
</g>
<!-- Node9&#45;&gt;Node17 -->
<g id="edge20_Node000017_Node000009" class="edge">
<title>Node9&#45;&gt;Node17</title>
<g id="a_edge20_Node000017_Node000009"><a xlink:title=" ">
<path fill="none" stroke="#63b8ff" d="M96.25,-105.88C112.53,-99.81 131.62,-92.81 149,-86.75 157.84,-83.67 167.45,-80.46 176.36,-77.53"/>
<polygon fill="#63b8ff" stroke="#63b8ff" points="95.05,-102.59 86.91,-109.38 97.51,-109.15 95.05,-102.59"/>
</a>
</g>
</g>
<!-- Node20 -->
<g id="Node000020" class="node">
<title>Node20</title>
<g id="a_Node000020"><a xlink:href="classnix_1_1BaseSetting.html" target="_top" xlink:title=" ">
<polygon fill="white" stroke="#666666" points="273,-38.12 149,-38.12 149,-17.38 273,-17.38 273,-38.12"/>
<text text-anchor="middle" x="211" y="-24.62" font-family="Helvetica,sans-Serif" font-size="10.00">nix::BaseSetting&lt; T &gt;</text>
</a>
</g>
</g>
<!-- Node9&#45;&gt;Node20 -->
<g id="edge25_Node000020_Node000009" class="edge">
<title>Node9&#45;&gt;Node20</title>
<g id="a_edge25_Node000020_Node000009"><a xlink:title=" ">
<path fill="none" stroke="#63b8ff" d="M75.96,-102.35C93.63,-86.07 121.33,-62.65 149,-47.75 155.58,-44.21 162.89,-41.15 170.1,-38.57"/>
<polygon fill="#63b8ff" stroke="#63b8ff" points="73.68,-99.69 68.8,-109.09 78.48,-104.79 73.68,-99.69"/>
</a>
</g>
</g>
<!-- Node10 -->
<g id="Node000010" class="node">
<title>Node10</title>
<g id="a_Node000010"><a xlink:href="classnix_1_1Setting.html" target="_top" xlink:title=" ">
<polygon fill="white" stroke="#bfbfbf" points="432.5,-353.12 325.75,-353.12 325.75,-332.38 432.5,-332.38 432.5,-353.12"/>
<text text-anchor="middle" x="379.12" y="-339.62" font-family="Helvetica,sans-Serif" font-size="10.00">nix::Setting&lt; int &gt;</text>
</a>
</g>
</g>
<!-- Node10&#45;&gt;Node1 -->
<g id="edge29_Node000001_Node000010" class="edge">
<title>Node10&#45;&gt;Node1</title>
<g id="a_edge29_Node000001_Node000010"><a xlink:title=" ">
<path fill="none" stroke="#9a32cd" stroke-dasharray="5,2" d="M420.01,-357.33C475.34,-376.22 578.87,-406.75 670,-406.75 670,-406.75 670,-406.75 1117.88,-406.75 1154.07,-406.75 1194,-402.23 1227.23,-397.2"/>
<polygon fill="#9a32cd" stroke="#9a32cd" points="421.31,-354.08 410.71,-354.1 419.01,-360.69 421.31,-354.08"/>
</a>
</g>
<text text-anchor="middle" x="927.75" y="-410" font-family="Helvetica,sans-Serif" font-size="10.00" fill="grey"> logFD</text>
</g>
<!-- Node10&#45;&gt;Node2 -->
<g id="edge28_Node000002_Node000010" class="edge">
<title>Node10&#45;&gt;Node2</title>
<g id="a_edge28_Node000002_Node000010"><a xlink:title=" ">
<path fill="none" stroke="#9a32cd" stroke-dasharray="5,2" d="M444.43,-346.06C451.78,-346.35 459.18,-346.59 466.25,-346.75 523.68,-348.08 538.06,-347.08 595.5,-346.75 755.19,-345.83 942.43,-343.32 1043.05,-341.85"/>
<polygon fill="#9a32cd" stroke="#9a32cd" points="444.59,-342.57 434.46,-345.65 444.31,-349.56 444.59,-342.57"/>
</a>
</g>
<text text-anchor="middle" x="788.88" y="-348.78" font-family="Helvetica,sans-Serif" font-size="10.00" fill="grey"> maxConnections</text>
</g>
<!-- Node10&#45;&gt;Node4 -->
<g id="edge9_Node000004_Node000010" class="edge">
<title>Node10&#45;&gt;Node4</title>
<g id="a_edge9_Node000004_Node000010"><a xlink:title=" ">
<path fill="none" stroke="#9a32cd" stroke-dasharray="5,2" d="M434.65,-329.16C488.39,-315.48 566.54,-294.74 595.5,-282.75 616.49,-274.06 639,-260.76 653.72,-251.46"/>
<polygon fill="#9a32cd" stroke="#9a32cd" points="433.88,-325.75 425.05,-331.6 435.6,-332.53 433.88,-325.75"/>
</a>
</g>
<text text-anchor="middle" x="530.88" y="-335.88" font-family="Helvetica,sans-Serif" font-size="10.00" fill="grey"> pathInfoCacheSize</text>
<text text-anchor="middle" x="530.88" y="-323.13" font-family="Helvetica,sans-Serif" font-size="10.00" fill="grey">priority</text>
</g>
<!-- Node11&#45;&gt;Node10 -->
<g id="edge10_Node000010_Node000011" class="edge">
<title>Node11&#45;&gt;Node10</title>
<g id="a_edge10_Node000010_Node000011"><a xlink:title=" ">
<path fill="none" stroke="#63b8ff" d="M284.76,-333.2C298.45,-334.6 312.52,-336.04 325.45,-337.36"/>
<polygon fill="#63b8ff" stroke="#63b8ff" points="285.2,-329.72 274.89,-332.19 284.48,-336.69 285.2,-329.72"/>
</a>
</g>
</g>
<!-- Node12 -->
<g id="Node000012" class="node">
<title>Node12</title>
<g id="a_Node000012"><a xlink:href="classnix_1_1Setting.html" target="_top" xlink:title=" ">
<polygon fill="white" stroke="#bfbfbf" points="436.62,-116.12 321.62,-116.12 321.62,-95.38 436.62,-95.38 436.62,-116.12"/>
<text text-anchor="middle" x="379.12" y="-102.62" font-family="Helvetica,sans-Serif" font-size="10.00">nix::Setting&lt; bool &gt;</text>
</a>
</g>
</g>
<!-- Node12&#45;&gt;Node3 -->
<g id="edge26_Node000003_Node000012" class="edge">
<title>Node12&#45;&gt;Node3</title>
<g id="a_edge26_Node000003_Node000012"><a xlink:title=" ">
<path fill="none" stroke="#9a32cd" stroke-dasharray="5,2" d="M448.45,-109.38C550.39,-114.78 741.74,-124.93 848.93,-130.62"/>
<polygon fill="#9a32cd" stroke="#9a32cd" points="448.76,-105.89 438.59,-108.85 448.39,-112.88 448.76,-105.89"/>
</a>
</g>
<text text-anchor="middle" x="671" y="-127.33" font-family="Helvetica,sans-Serif" font-size="10.00" fill="grey"> compress</text>
</g>
<!-- Node12&#45;&gt;Node4 -->
<g id="edge12_Node000004_Node000012" class="edge">
<title>Node12&#45;&gt;Node4</title>
<g id="a_edge12_Node000004_Node000012"><a xlink:title=" ">
<path fill="none" stroke="#9a32cd" stroke-dasharray="5,2" d="M427.42,-119.89C486.19,-137.64 580.62,-166.79 595.5,-175.25 621.85,-190.22 647.18,-215.57 660.44,-229.95"/>
<polygon fill="#9a32cd" stroke="#9a32cd" points="428.56,-116.58 417.98,-117.05 426.54,-123.28 428.56,-116.58"/>
</a>
</g>
<text text-anchor="middle" x="530.88" y="-191.25" font-family="Helvetica,sans-Serif" font-size="10.00" fill="grey"> isTrusted</text>
<text text-anchor="middle" x="530.88" y="-178.5" font-family="Helvetica,sans-Serif" font-size="10.00" fill="grey">wantMassQuery</text>
</g>
<!-- Node13&#45;&gt;Node12 -->
<g id="edge13_Node000012_Node000013" class="edge">
<title>Node13&#45;&gt;Node12</title>
<g id="a_edge13_Node000012_Node000013"><a xlink:title=" ">
<path fill="none" stroke="#63b8ff" d="M284.59,-105.75C296.91,-105.75 309.55,-105.75 321.39,-105.75"/>
<polygon fill="#63b8ff" stroke="#63b8ff" points="284.9,-102.25 274.9,-105.75 284.9,-109.25 284.9,-102.25"/>
</a>
</g>
</g>
<!-- Node14 -->
<g id="Node000014" class="node">
<title>Node14</title>
<g id="a_Node000014"><a xlink:href="classnix_1_1Setting.html" target="_top" xlink:title=" ">
<polygon fill="white" stroke="#bfbfbf" points="448.25,-255.12 310,-255.12 310,-234.38 448.25,-234.38 448.25,-255.12"/>
<text text-anchor="middle" x="379.12" y="-241.62" font-family="Helvetica,sans-Serif" font-size="10.00">nix::Setting&lt; StringSet &gt;</text>
</a>
</g>
</g>
<!-- Node14&#45;&gt;Node4 -->
<g id="edge15_Node000004_Node000014" class="edge">
<title>Node14&#45;&gt;Node4</title>
<g id="a_edge15_Node000004_Node000014"><a xlink:title=" ">
<path fill="none" stroke="#9a32cd" stroke-dasharray="5,2" d="M459.84,-243.65C512.72,-242.92 580.23,-241.99 624.26,-241.38"/>
<polygon fill="#9a32cd" stroke="#9a32cd" points="459.92,-240.15 449.97,-243.79 460.02,-247.15 459.92,-240.15"/>
</a>
</g>
<text text-anchor="middle" x="530.88" y="-246.71" font-family="Helvetica,sans-Serif" font-size="10.00" fill="grey"> systemFeatures</text>
</g>
<!-- Node15&#45;&gt;Node14 -->
<g id="edge16_Node000014_Node000015" class="edge">
<title>Node15&#45;&gt;Node14</title>
<g id="a_edge16_Node000014_Node000015"><a xlink:title=" ">
<path fill="none" stroke="#63b8ff" d="M284.63,-234.62C292.96,-235.52 301.44,-236.44 309.72,-237.34"/>
<polygon fill="#63b8ff" stroke="#63b8ff" points="285.21,-231.16 274.89,-233.56 284.46,-238.12 285.21,-231.16"/>
</a>
</g>
</g>
<!-- Node16 -->
<g id="Node000016" class="node">
<title>Node16</title>
<g id="a_Node000016"><a xlink:href="classnix_1_1Setting.html" target="_top" xlink:title=" ">
<polygon fill="white" stroke="#bfbfbf" points="595.5,-83.5 466.25,-83.5 466.25,-50 595.5,-50 595.5,-83.5"/>
<text text-anchor="start" x="474.25" y="-70" font-family="Helvetica,sans-Serif" font-size="10.00">nix::Setting&lt; std::</text>
<text text-anchor="middle" x="530.88" y="-57.25" font-family="Helvetica,sans-Serif" font-size="10.00">optional&lt; uint16_t &gt; &gt;</text>
</a>
</g>
</g>
<!-- Node16&#45;&gt;Node3 -->
<g id="edge18_Node000003_Node000016" class="edge">
<title>Node16&#45;&gt;Node3</title>
<g id="a_edge18_Node000003_Node000016"><a xlink:title=" ">
<path fill="none" stroke="#9a32cd" stroke-dasharray="5,2" d="M606.98,-69.95C643.73,-72.09 688.55,-75.54 728.5,-81 774.66,-87.31 786.3,-89.5 831.25,-101.75 854.27,-108.02 879.78,-116.94 898.64,-123.93"/>
<polygon fill="#9a32cd" stroke="#9a32cd" points="607.54,-66.48 597.36,-69.41 607.15,-73.47 607.54,-66.48"/>
</a>
</g>
<text text-anchor="middle" x="671" y="-84.25" font-family="Helvetica,sans-Serif" font-size="10.00" fill="grey"> port</text>
</g>
<!-- Node17&#45;&gt;Node16 -->
<g id="edge19_Node000016_Node000017" class="edge">
<title>Node17&#45;&gt;Node16</title>
<g id="a_edge19_Node000016_Node000017"><a xlink:title=" ">
<path fill="none" stroke="#63b8ff" d="M284.63,-66.75C339.24,-66.75 413.36,-66.75 465.78,-66.75"/>
<polygon fill="#63b8ff" stroke="#63b8ff" points="284.8,-63.25 274.8,-66.75 284.8,-70.25 284.8,-63.25"/>
</a>
</g>
</g>
<!-- Node18&#45;&gt;Node2 -->
<g id="edge27_Node000002_Node000018" class="edge">
<title>Node18&#45;&gt;Node2</title>
<g id="a_edge27_Node000002_Node000018"><a xlink:title=" ">
<path fill="none" stroke="#9a32cd" stroke-dasharray="5,2" d="M708.56,-171.9C795.77,-208.06 1014.37,-298.67 1089.8,-329.94"/>
<polygon fill="#9a32cd" stroke="#9a32cd" points="710.09,-168.75 699.51,-168.15 707.4,-175.22 710.09,-168.75"/>
</a>
</g>
<text text-anchor="middle" x="927.75" y="-298.33" font-family="Helvetica,sans-Serif" font-size="10.00" fill="grey"> remoteProgram</text>
</g>
<!-- Node18&#45;&gt;Node3 -->
<g id="edge21_Node000003_Node000018" class="edge">
<title>Node18&#45;&gt;Node3</title>
<g id="a_edge21_Node000003_Node000018"><a xlink:title=" ">
<path fill="none" stroke="#9a32cd" stroke-dasharray="5,2" d="M739.93,-150.88C773.45,-147.99 814.04,-144.48 848.82,-141.48"/>
<polygon fill="#9a32cd" stroke="#9a32cd" points="740.02,-147.36 730.36,-151.71 740.63,-154.34 740.02,-147.36"/>
</a>
</g>
<text text-anchor="middle" x="788.88" y="-153.5" font-family="Helvetica,sans-Serif" font-size="10.00" fill="grey"> sshKey</text>
</g>
<!-- Node19 -->
<g id="Node000019" class="node">
<title>Node19</title>
<g id="a_Node000019"><a xlink:href="classnix_1_1Setting.html" target="_top" xlink:title=" ">
<polygon fill="white" stroke="#bfbfbf" points="582.75,-33.5 479,-33.5 479,0 582.75,0 582.75,-33.5"/>
<text text-anchor="start" x="487" y="-20" font-family="Helvetica,sans-Serif" font-size="10.00">nix::Setting&lt; std::</text>
<text text-anchor="middle" x="530.88" y="-7.25" font-family="Helvetica,sans-Serif" font-size="10.00">string &gt;</text>
</a>
</g>
</g>
<!-- Node19&#45;&gt;Node3 -->
<g id="edge23_Node000003_Node000019" class="edge">
<title>Node19&#45;&gt;Node3</title>
<g id="a_edge23_Node000003_Node000019"><a xlink:title=" ">
<path fill="none" stroke="#9a32cd" stroke-dasharray="5,2" d="M594.42,-20.78C633.4,-24.21 684.36,-30.39 728.5,-41.25 775.86,-52.9 787.14,-58.96 831.25,-79.75 859.81,-93.21 891.22,-112.17 909.95,-123.94"/>
<polygon fill="#9a32cd" stroke="#9a32cd" points="594.75,-17.29 584.49,-19.95 594.17,-24.27 594.75,-17.29"/>
</a>
</g>
<text text-anchor="middle" x="671" y="-57.25" font-family="Helvetica,sans-Serif" font-size="10.00" fill="grey"> remoteStore</text>
<text text-anchor="middle" x="671" y="-44.5" font-family="Helvetica,sans-Serif" font-size="10.00" fill="grey">sshPublicHostKey</text>
</g>
<!-- Node20&#45;&gt;Node19 -->
<g id="edge24_Node000019_Node000020" class="edge">
<title>Node20&#45;&gt;Node19</title>
<g id="a_edge24_Node000019_Node000020"><a xlink:title=" ">
<path fill="none" stroke="#63b8ff" d="M284.45,-25.24C343.75,-23.19 426.14,-20.34 478.74,-18.52"/>
<polygon fill="#63b8ff" stroke="#63b8ff" points="284.68,-21.73 274.8,-25.58 284.92,-28.73 284.68,-21.73"/>
</a>
</g>
</g>
</g>
</svg>
