<?xml version="1.0" encoding="UTF-8" standalone="no"?>
<!DOCTYPE svg PUBLIC "-//W3C//DTD SVG 1.1//EN"
 "http://www.w3.org/Graphics/SVG/1.1/DTD/svg11.dtd">
<!-- Generated by graphviz version 12.2.1 (0)
 -->
<!-- Title: nix::CmdDumpPath Pages: 1 -->
<svg width="414pt" height="653pt"
 viewBox="0.00 0.00 413.50 653.00" xmlns="http://www.w3.org/2000/svg" xmlns:xlink="http://www.w3.org/1999/xlink">
<g id="graph0" class="graph" transform="scale(1 1) rotate(0) translate(4 649)">
<title>nix::CmdDumpPath</title>
<!-- Node1 -->
<g id="Node000001" class="node">
<title>Node1</title>
<g id="a_Node000001"><a xlink:title=" ">
<polygon fill="#999999" stroke="#666666" points="219.88,-20.75 110.12,-20.75 110.12,0 219.88,0 219.88,-20.75"/>
<text text-anchor="middle" x="165" y="-7.25" font-family="Helvetica,sans-Serif" font-size="10.00">nix::CmdDumpPath</text>
</a>
</g>
</g>
<!-- Node2 -->
<g id="Node000002" class="node">
<title>Node2</title>
<g id="a_Node000002"><a xlink:href="structnix_1_1StorePathCommand.html" target="_top" xlink:title=" ">
<polygon fill="white" stroke="#666666" points="231.88,-77.5 98.12,-77.5 98.12,-56.75 231.88,-56.75 231.88,-77.5"/>
<text text-anchor="middle" x="165" y="-64" font-family="Helvetica,sans-Serif" font-size="10.00">nix::StorePathCommand</text>
</a>
</g>
</g>
<!-- Node2&#45;&gt;Node1 -->
<g id="edge1_Node000001_Node000002" class="edge">
<title>Node2&#45;&gt;Node1</title>
<g id="a_edge1_Node000001_Node000002"><a xlink:title=" ">
<path fill="none" stroke="#63b8ff" d="M165,-44.88C165,-36.66 165,-27.68 165,-21.08"/>
<polygon fill="#63b8ff" stroke="#63b8ff" points="161.5,-44.82 165,-54.82 168.5,-44.82 161.5,-44.82"/>
</a>
</g>
</g>
<!-- Node3 -->
<g id="Node000003" class="node">
<title>Node3</title>
<g id="a_Node000003"><a xlink:href="structnix_1_1StorePathsCommand.html" target="_top" xlink:title=" ">
<polygon fill="white" stroke="#bfbfbf" points="234.5,-134.25 95.5,-134.25 95.5,-113.5 234.5,-113.5 234.5,-134.25"/>
<text text-anchor="middle" x="165" y="-120.75" font-family="Helvetica,sans-Serif" font-size="10.00">nix::StorePathsCommand</text>
</a>
</g>
</g>
<!-- Node3&#45;&gt;Node2 -->
<g id="edge2_Node000002_Node000003" class="edge">
<title>Node3&#45;&gt;Node2</title>
<g id="a_edge2_Node000002_Node000003"><a xlink:title=" ">
<path fill="none" stroke="#63b8ff" d="M165,-101.63C165,-93.41 165,-84.43 165,-77.83"/>
<polygon fill="#63b8ff" stroke="#63b8ff" points="161.5,-101.57 165,-111.57 168.5,-101.57 161.5,-101.57"/>
</a>
</g>
</g>
<!-- Node4 -->
<g id="Node000004" class="node">
<title>Node4</title>
<g id="a_Node000004"><a xlink:href="structnix_1_1BuiltPathsCommand.html" target="_top" xlink:title=" ">
<polygon fill="white" stroke="#666666" points="233,-191 97,-191 97,-170.25 233,-170.25 233,-191"/>
<text text-anchor="middle" x="165" y="-177.5" font-family="Helvetica,sans-Serif" font-size="10.00">nix::BuiltPathsCommand</text>
</a>
</g>
</g>
<!-- Node4&#45;&gt;Node3 -->
<g id="edge3_Node000003_Node000004" class="edge">
<title>Node4&#45;&gt;Node3</title>
<g id="a_edge3_Node000003_Node000004"><a xlink:title=" ">
<path fill="none" stroke="#63b8ff" d="M165,-158.38C165,-150.16 165,-141.18 165,-134.58"/>
<polygon fill="#63b8ff" stroke="#63b8ff" points="161.5,-158.32 165,-168.32 168.5,-158.32 161.5,-158.32"/>
</a>
</g>
</g>
<!-- Node5 -->
<g id="Node000005" class="node">
<title>Node5</title>
<g id="a_Node000005"><a xlink:href="structnix_1_1InstallablesCommand.html" target="_top" xlink:title=" ">
<polygon fill="white" stroke="#666666" points="186.75,-247.75 43.25,-247.75 43.25,-227 186.75,-227 186.75,-247.75"/>
<text text-anchor="middle" x="115" y="-234.25" font-family="Helvetica,sans-Serif" font-size="10.00">nix::InstallablesCommand</text>
</a>
</g>
</g>
<!-- Node5&#45;&gt;Node4 -->
<g id="edge4_Node000004_Node000005" class="edge">
<title>Node5&#45;&gt;Node4</title>
<g id="a_edge4_Node000004_Node000005"><a xlink:title=" ">
<path fill="none" stroke="#63b8ff" d="M131.53,-218.27C139.74,-209.28 149.33,-198.78 156.14,-191.33"/>
<polygon fill="#63b8ff" stroke="#63b8ff" points="129.12,-215.72 124.96,-225.47 134.29,-220.45 129.12,-215.72"/>
</a>
</g>
</g>
<!-- Node6 -->
<g id="Node000006" class="node">
<title>Node6</title>
<g id="a_Node000006"><a xlink:href="structnix_1_1RawInstallablesCommand.html" target="_top" xlink:title=" ">
<polygon fill="white" stroke="#666666" points="188.25,-304.5 23.75,-304.5 23.75,-283.75 188.25,-283.75 188.25,-304.5"/>
<text text-anchor="middle" x="106" y="-291" font-family="Helvetica,sans-Serif" font-size="10.00">nix::RawInstallablesCommand</text>
</a>
</g>
</g>
<!-- Node6&#45;&gt;Node5 -->
<g id="edge5_Node000005_Node000006" class="edge">
<title>Node6&#45;&gt;Node5</title>
<g id="a_edge5_Node000005_Node000006"><a xlink:title=" ">
<path fill="none" stroke="#63b8ff" d="M109.45,-272.17C110.81,-263.88 112.31,-254.75 113.4,-248.08"/>
<polygon fill="#63b8ff" stroke="#63b8ff" points="106.02,-271.41 107.85,-281.84 112.93,-272.54 106.02,-271.41"/>
</a>
</g>
</g>
<!-- Node7 -->
<g id="Node000007" class="node">
<title>Node7</title>
<g id="a_Node000007"><a xlink:href="classnix_1_1Args.html" target="_top" xlink:title=" ">
<polygon fill="white" stroke="#bfbfbf" points="177.38,-645 118.62,-645 118.62,-624.25 177.38,-624.25 177.38,-645"/>
<text text-anchor="middle" x="148" y="-631.5" font-family="Helvetica,sans-Serif" font-size="10.00">nix::Args</text>
</a>
</g>
</g>
<!-- Node7&#45;&gt;Node6 -->
<g id="edge6_Node000006_Node000007" class="edge">
<title>Node7&#45;&gt;Node6</title>
<g id="a_edge6_Node000006_Node000007"><a xlink:title=" ">
<path fill="none" stroke="#63b8ff" d="M107.47,-622.29C63.65,-607.26 0,-576.13 0,-522.12 0,-522.12 0,-522.12 0,-406.62 0,-375.05 5.3,-364.35 26,-340.5 40.23,-324.1 61.92,-312.32 79.13,-304.88"/>
<polygon fill="#63b8ff" stroke="#63b8ff" points="106.37,-625.61 116.97,-625.38 108.54,-618.95 106.37,-625.61"/>
</a>
</g>
</g>
<!-- Node8 -->
<g id="Node000008" class="node">
<title>Node8</title>
<g id="a_Node000008"><a xlink:href="structnix_1_1SourceExprCommand.html" target="_top" xlink:title=" ">
<polygon fill="white" stroke="#bfbfbf" points="177,-361.25 35,-361.25 35,-340.5 177,-340.5 177,-361.25"/>
<text text-anchor="middle" x="106" y="-347.75" font-family="Helvetica,sans-Serif" font-size="10.00">nix::SourceExprCommand</text>
</a>
</g>
</g>
<!-- Node7&#45;&gt;Node8 -->
<g id="edge8_Node000008_Node000007" class="edge">
<title>Node7&#45;&gt;Node8</title>
<g id="a_edge8_Node000008_Node000007"><a xlink:title=" ">
<path fill="none" stroke="#63b8ff" d="M116.53,-618.57C84.02,-600.58 38,-567.15 38,-522.12 38,-522.12 38,-522.12 38,-463.38 38,-432.8 40.97,-423.29 57,-397.25 66,-382.64 80.97,-369.75 92,-361.49"/>
<polygon fill="#63b8ff" stroke="#63b8ff" points="114.72,-621.57 125.19,-623.16 117.99,-615.39 114.72,-621.57"/>
</a>
</g>
</g>
<!-- Node9 -->
<g id="Node000009" class="node">
<title>Node9</title>
<g id="a_Node000009"><a xlink:href="structnix_1_1MixFlakeOptions.html" target="_top" xlink:title=" ">
<polygon fill="white" stroke="#666666" points="184.38,-418 65.62,-418 65.62,-397.25 184.38,-397.25 184.38,-418"/>
<text text-anchor="middle" x="125" y="-404.5" font-family="Helvetica,sans-Serif" font-size="10.00">nix::MixFlakeOptions</text>
</a>
</g>
</g>
<!-- Node7&#45;&gt;Node9 -->
<g id="edge10_Node000009_Node000007" class="edge">
<title>Node7&#45;&gt;Node9</title>
<g id="a_edge10_Node000009_Node000007"><a xlink:title=" ">
<path fill="none" stroke="#63b8ff" d="M120.5,-617.34C110.54,-609.85 100.41,-600.01 95,-588.25 70.05,-534.04 79.7,-511.11 97,-454 101.08,-440.53 110.18,-427.06 116.91,-418.34"/>
<polygon fill="#63b8ff" stroke="#63b8ff" points="118.38,-620.13 128.6,-622.92 122.35,-614.36 118.38,-620.13"/>
</a>
</g>
</g>
<!-- Node12 -->
<g id="Node000012" class="node">
<title>Node12</title>
<g id="a_Node000012"><a xlink:href="structnix_1_1Command.html" target="_top" xlink:title=" ">
<polygon fill="white" stroke="#666666" points="191.62,-588.25 104.38,-588.25 104.38,-567.5 191.62,-567.5 191.62,-588.25"/>
<text text-anchor="middle" x="148" y="-574.75" font-family="Helvetica,sans-Serif" font-size="10.00">nix::Command</text>
</a>
</g>
</g>
<!-- Node7&#45;&gt;Node12 -->
<g id="edge14_Node000012_Node000007" class="edge">
<title>Node7&#45;&gt;Node12</title>
<g id="a_edge14_Node000012_Node000007"><a xlink:title=" ">
<path fill="none" stroke="#63b8ff" d="M148,-612.38C148,-604.16 148,-595.18 148,-588.58"/>
<polygon fill="#63b8ff" stroke="#63b8ff" points="144.5,-612.32 148,-622.32 151.5,-612.32 144.5,-612.32"/>
</a>
</g>
</g>
<!-- Node13 -->
<g id="Node000013" class="node">
<title>Node13</title>
<g id="a_Node000013"><a xlink:href="structnix_1_1MixEvalArgs.html" target="_top" xlink:title=" ">
<polygon fill="white" stroke="#bfbfbf" points="331.88,-531.5 234.12,-531.5 234.12,-510.75 331.88,-510.75 331.88,-531.5"/>
<text text-anchor="middle" x="283" y="-518" font-family="Helvetica,sans-Serif" font-size="10.00">nix::MixEvalArgs</text>
</a>
</g>
</g>
<!-- Node7&#45;&gt;Node13 -->
<g id="edge16_Node000013_Node000007" class="edge">
<title>Node7&#45;&gt;Node13</title>
<g id="a_edge16_Node000013_Node000007"><a xlink:title=" ">
<path fill="none" stroke="#63b8ff" d="M168.26,-616.89C196.83,-593.3 248.04,-551 271.13,-531.93"/>
<polygon fill="#63b8ff" stroke="#63b8ff" points="166.16,-614.09 160.68,-623.15 170.62,-619.49 166.16,-614.09"/>
</a>
</g>
</g>
<!-- Node14 -->
<g id="Node000014" class="node">
<title>Node14</title>
<g id="a_Node000014"><a xlink:href="structnix_1_1MixRepair.html" target="_top" xlink:title=" ">
<polygon fill="white" stroke="#bfbfbf" points="334.25,-588.25 247.75,-588.25 247.75,-567.5 334.25,-567.5 334.25,-588.25"/>
<text text-anchor="middle" x="291" y="-574.75" font-family="Helvetica,sans-Serif" font-size="10.00">nix::MixRepair</text>
</a>
</g>
</g>
<!-- Node7&#45;&gt;Node14 -->
<g id="edge18_Node000014_Node000007" class="edge">
<title>Node7&#45;&gt;Node14</title>
<g id="a_edge18_Node000014_Node000007"><a xlink:title=" ">
<path fill="none" stroke="#63b8ff" d="M184.27,-619.74C209.7,-610 243.05,-597.23 265.66,-588.58"/>
<polygon fill="#63b8ff" stroke="#63b8ff" points="183.07,-616.45 174.98,-623.3 185.57,-622.99 183.07,-616.45"/>
</a>
</g>
</g>
<!-- Node15 -->
<g id="Node000015" class="node">
<title>Node15</title>
<g id="a_Node000015"><a xlink:href="structnix_1_1MixOperateOnOptions.html" target="_top" xlink:title=" ">
<polygon fill="white" stroke="#bfbfbf" points="405.5,-474.75 260.5,-474.75 260.5,-454 405.5,-454 405.5,-474.75"/>
<text text-anchor="middle" x="333" y="-461.25" font-family="Helvetica,sans-Serif" font-size="10.00">nix::MixOperateOnOptions</text>
</a>
</g>
</g>
<!-- Node7&#45;&gt;Node15 -->
<g id="edge20_Node000015_Node000007" class="edge">
<title>Node7&#45;&gt;Node15</title>
<g id="a_edge20_Node000015_Node000007"><a xlink:title=" ">
<path fill="none" stroke="#63b8ff" d="M189.05,-629.97C240.47,-624.44 324.15,-611.99 343,-588.25 369.88,-554.39 348.12,-497.46 337.74,-474.95"/>
<polygon fill="#63b8ff" stroke="#63b8ff" points="188.76,-626.48 179.17,-630.98 189.48,-633.44 188.76,-626.48"/>
</a>
</g>
</g>
<!-- Node8&#45;&gt;Node6 -->
<g id="edge7_Node000006_Node000008" class="edge">
<title>Node8&#45;&gt;Node6</title>
<g id="a_edge7_Node000006_Node000008"><a xlink:title=" ">
<path fill="none" stroke="#63b8ff" d="M106,-328.63C106,-320.41 106,-311.43 106,-304.83"/>
<polygon fill="#63b8ff" stroke="#63b8ff" points="102.5,-328.57 106,-338.57 109.5,-328.57 102.5,-328.57"/>
</a>
</g>
</g>
<!-- Node9&#45;&gt;Node8 -->
<g id="edge9_Node000008_Node000009" class="edge">
<title>Node9&#45;&gt;Node8</title>
<g id="a_edge9_Node000008_Node000009"><a xlink:title=" ">
<path fill="none" stroke="#63b8ff" d="M117.93,-386.24C115,-377.8 111.74,-368.41 109.37,-361.58"/>
<polygon fill="#63b8ff" stroke="#63b8ff" points="114.52,-387.11 121.11,-395.41 121.13,-384.81 114.52,-387.11"/>
</a>
</g>
</g>
<!-- Node10 -->
<g id="Node000010" class="node">
<title>Node10</title>
<g id="a_Node000010"><a xlink:href="structnix_1_1EvalCommand.html" target="_top" xlink:title=" ">
<polygon fill="white" stroke="#666666" points="214.12,-474.75 105.88,-474.75 105.88,-454 214.12,-454 214.12,-474.75"/>
<text text-anchor="middle" x="160" y="-461.25" font-family="Helvetica,sans-Serif" font-size="10.00">nix::EvalCommand</text>
</a>
</g>
</g>
<!-- Node10&#45;&gt;Node9 -->
<g id="edge11_Node000009_Node000010" class="edge">
<title>Node10&#45;&gt;Node9</title>
<g id="a_edge11_Node000009_Node000010"><a xlink:title=" ">
<path fill="none" stroke="#63b8ff" d="M147.7,-444.14C142.12,-435.41 135.77,-425.47 131.2,-418.33"/>
<polygon fill="#63b8ff" stroke="#63b8ff" points="144.59,-445.77 152.93,-452.31 150.49,-442 144.59,-445.77"/>
</a>
</g>
</g>
<!-- Node11 -->
<g id="Node000011" class="node">
<title>Node11</title>
<g id="a_Node000011"><a xlink:href="structnix_1_1StoreCommand.html" target="_top" xlink:title=" ">
<polygon fill="white" stroke="#666666" points="216.38,-531.5 103.62,-531.5 103.62,-510.75 216.38,-510.75 216.38,-531.5"/>
<text text-anchor="middle" x="160" y="-518" font-family="Helvetica,sans-Serif" font-size="10.00">nix::StoreCommand</text>
</a>
</g>
</g>
<!-- Node11&#45;&gt;Node10 -->
<g id="edge12_Node000010_Node000011" class="edge">
<title>Node11&#45;&gt;Node10</title>
<g id="a_edge12_Node000010_Node000011"><a xlink:title=" ">
<path fill="none" stroke="#63b8ff" d="M160,-498.88C160,-490.66 160,-481.68 160,-475.08"/>
<polygon fill="#63b8ff" stroke="#63b8ff" points="156.5,-498.82 160,-508.82 163.5,-498.82 156.5,-498.82"/>
</a>
</g>
</g>
<!-- Node12&#45;&gt;Node11 -->
<g id="edge13_Node000011_Node000012" class="edge">
<title>Node12&#45;&gt;Node11</title>
<g id="a_edge13_Node000011_Node000012"><a xlink:title=" ">
<path fill="none" stroke="#63b8ff" d="M152.59,-555.92C154.41,-547.63 156.41,-538.5 157.87,-531.83"/>
<polygon fill="#63b8ff" stroke="#63b8ff" points="149.19,-555.09 150.47,-565.61 156.03,-556.59 149.19,-555.09"/>
</a>
</g>
</g>
<!-- Node13&#45;&gt;Node10 -->
<g id="edge15_Node000010_Node000013" class="edge">
<title>Node13&#45;&gt;Node10</title>
<g id="a_edge15_Node000010_Node000013"><a xlink:title=" ">
<path fill="none" stroke="#63b8ff" d="M250.62,-505.71C228.9,-496.05 200.89,-483.58 181.8,-475.08"/>
<polygon fill="#63b8ff" stroke="#63b8ff" points="249.07,-508.85 259.63,-509.72 251.91,-502.46 249.07,-508.85"/>
</a>
</g>
</g>
<!-- Node14&#45;&gt;Node13 -->
<g id="edge17_Node000013_Node000014" class="edge">
<title>Node14&#45;&gt;Node13</title>
<g id="a_edge17_Node000013_Node000014"><a xlink:title=" ">
<path fill="none" stroke="#63b8ff" d="M287.94,-555.92C286.73,-547.63 285.39,-538.5 284.42,-531.83"/>
<polygon fill="#63b8ff" stroke="#63b8ff" points="284.44,-556.2 289.35,-565.59 291.37,-555.19 284.44,-556.2"/>
</a>
</g>
</g>
<!-- Node15&#45;&gt;Node4 -->
<g id="edge19_Node000004_Node000015" class="edge">
<title>Node15&#45;&gt;Node4</title>
<g id="a_edge19_Node000004_Node000015"><a xlink:title=" ">
<path fill="none" stroke="#63b8ff" d="M301.53,-448.32C269.02,-430.33 223,-396.9 223,-351.88 223,-351.88 223,-351.88 223,-293.12 223,-251.45 190.71,-209.89 174.32,-191.48"/>
<polygon fill="#63b8ff" stroke="#63b8ff" points="299.72,-451.32 310.19,-452.91 302.99,-445.14 299.72,-451.32"/>
</a>
</g>
</g>
</g>
</svg>
