<?xml version="1.0" encoding="UTF-8" standalone="no"?>
<!DOCTYPE svg PUBLIC "-//W3C//DTD SVG 1.1//EN"
 "http://www.w3.org/Graphics/SVG/1.1/DTD/svg11.dtd">
<!-- Generated by graphviz version 12.2.1 (0)
 -->
<!-- Title: nix::CmdRepl Pages: 1 -->
<svg width="376pt" height="426pt"
 viewBox="0.00 0.00 375.50 426.00" xmlns="http://www.w3.org/2000/svg" xmlns:xlink="http://www.w3.org/1999/xlink">
<g id="graph0" class="graph" transform="scale(1 1) rotate(0) translate(4 422)">
<title>nix::CmdRepl</title>
<!-- Node1 -->
<g id="Node000001" class="node">
<title>Node1</title>
<g id="a_Node000001"><a xlink:title=" ">
<polygon fill="#999999" stroke="#666666" points="122.88,-20.75 41.62,-20.75 41.62,0 122.88,0 122.88,-20.75"/>
<text text-anchor="middle" x="82.25" y="-7.25" font-family="Helvetica,sans-Serif" font-size="10.00">nix::CmdRepl</text>
</a>
</g>
</g>
<!-- Node2 -->
<g id="Node000002" class="node">
<title>Node2</title>
<g id="a_Node000002"><a xlink:href="structnix_1_1RawInstallablesCommand.html" target="_top" xlink:title=" ">
<polygon fill="white" stroke="#666666" points="164.5,-77.5 0,-77.5 0,-56.75 164.5,-56.75 164.5,-77.5"/>
<text text-anchor="middle" x="82.25" y="-64" font-family="Helvetica,sans-Serif" font-size="10.00">nix::RawInstallablesCommand</text>
</a>
</g>
</g>
<!-- Node2&#45;&gt;Node1 -->
<g id="edge1_Node000001_Node000002" class="edge">
<title>Node2&#45;&gt;Node1</title>
<g id="a_edge1_Node000001_Node000002"><a xlink:title=" ">
<path fill="none" stroke="#63b8ff" d="M82.25,-44.88C82.25,-36.66 82.25,-27.68 82.25,-21.08"/>
<polygon fill="#63b8ff" stroke="#63b8ff" points="78.75,-44.82 82.25,-54.82 85.75,-44.82 78.75,-44.82"/>
</a>
</g>
</g>
<!-- Node3 -->
<g id="Node000003" class="node">
<title>Node3</title>
<g id="a_Node000003"><a xlink:href="classnix_1_1Args.html" target="_top" xlink:title=" ">
<polygon fill="white" stroke="#bfbfbf" points="174.62,-418 115.88,-418 115.88,-397.25 174.62,-397.25 174.62,-418"/>
<text text-anchor="middle" x="145.25" y="-404.5" font-family="Helvetica,sans-Serif" font-size="10.00">nix::Args</text>
</a>
</g>
</g>
<!-- Node3&#45;&gt;Node2 -->
<g id="edge2_Node000002_Node000003" class="edge">
<title>Node3&#45;&gt;Node2</title>
<g id="a_edge2_Node000002_Node000003"><a xlink:title=" ">
<path fill="none" stroke="#63b8ff" d="M112.93,-391.58C79.85,-373.68 33.25,-340.43 33.25,-295.12 33.25,-295.12 33.25,-295.12 33.25,-179.62 33.25,-149.05 39.45,-141.27 52.25,-113.5 58.34,-100.29 67.96,-86.56 74.66,-77.7"/>
<polygon fill="#63b8ff" stroke="#63b8ff" points="111.29,-394.67 121.78,-396.15 114.5,-388.45 111.29,-394.67"/>
</a>
</g>
</g>
<!-- Node4 -->
<g id="Node000004" class="node">
<title>Node4</title>
<g id="a_Node000004"><a xlink:href="structnix_1_1SourceExprCommand.html" target="_top" xlink:title=" ">
<polygon fill="white" stroke="#bfbfbf" points="203.25,-134.25 61.25,-134.25 61.25,-113.5 203.25,-113.5 203.25,-134.25"/>
<text text-anchor="middle" x="132.25" y="-120.75" font-family="Helvetica,sans-Serif" font-size="10.00">nix::SourceExprCommand</text>
</a>
</g>
</g>
<!-- Node3&#45;&gt;Node4 -->
<g id="edge4_Node000004_Node000003" class="edge">
<title>Node3&#45;&gt;Node4</title>
<g id="a_edge4_Node000004_Node000003"><a xlink:title=" ">
<path fill="none" stroke="#63b8ff" d="M124.63,-389.63C102.74,-369.55 71.25,-333.92 71.25,-295.12 71.25,-295.12 71.25,-295.12 71.25,-236.38 71.25,-205.8 75.23,-196.89 90.25,-170.25 98.16,-156.22 111.22,-143.06 120.68,-134.56"/>
<polygon fill="#63b8ff" stroke="#63b8ff" points="122.07,-392.04 131.89,-396.02 126.7,-386.78 122.07,-392.04"/>
</a>
</g>
</g>
<!-- Node5 -->
<g id="Node000005" class="node">
<title>Node5</title>
<g id="a_Node000005"><a xlink:href="structnix_1_1MixFlakeOptions.html" target="_top" xlink:title=" ">
<polygon fill="white" stroke="#666666" points="217.62,-191 98.88,-191 98.88,-170.25 217.62,-170.25 217.62,-191"/>
<text text-anchor="middle" x="158.25" y="-177.5" font-family="Helvetica,sans-Serif" font-size="10.00">nix::MixFlakeOptions</text>
</a>
</g>
</g>
<!-- Node3&#45;&gt;Node5 -->
<g id="edge6_Node000005_Node000003" class="edge">
<title>Node3&#45;&gt;Node5</title>
<g id="a_edge6_Node000005_Node000003"><a xlink:title=" ">
<path fill="none" stroke="#63b8ff" d="M135.88,-386.35C132.8,-378.66 129.78,-369.72 128.25,-361.25 117.61,-302.53 112.95,-284.11 130.25,-227 134.33,-213.53 143.43,-200.06 150.16,-191.34"/>
<polygon fill="#63b8ff" stroke="#63b8ff" points="132.63,-387.64 139.8,-395.44 139.05,-384.87 132.63,-387.64"/>
</a>
</g>
</g>
<!-- Node8 -->
<g id="Node000008" class="node">
<title>Node8</title>
<g id="a_Node000008"><a xlink:href="structnix_1_1Command.html" target="_top" xlink:title=" ">
<polygon fill="white" stroke="#666666" points="224.88,-361.25 137.62,-361.25 137.62,-340.5 224.88,-340.5 224.88,-361.25"/>
<text text-anchor="middle" x="181.25" y="-347.75" font-family="Helvetica,sans-Serif" font-size="10.00">nix::Command</text>
</a>
</g>
</g>
<!-- Node3&#45;&gt;Node8 -->
<g id="edge10_Node000008_Node000003" class="edge">
<title>Node3&#45;&gt;Node8</title>
<g id="a_edge10_Node000008_Node000003"><a xlink:title=" ">
<path fill="none" stroke="#63b8ff" d="M157.9,-387.39C163.64,-378.66 170.17,-368.72 174.87,-361.58"/>
<polygon fill="#63b8ff" stroke="#63b8ff" points="155.09,-385.29 152.52,-395.57 160.94,-389.14 155.09,-385.29"/>
</a>
</g>
</g>
<!-- Node9 -->
<g id="Node000009" class="node">
<title>Node9</title>
<g id="a_Node000009"><a xlink:href="structnix_1_1MixEvalArgs.html" target="_top" xlink:title=" ">
<polygon fill="white" stroke="#bfbfbf" points="365.12,-304.5 267.38,-304.5 267.38,-283.75 365.12,-283.75 365.12,-304.5"/>
<text text-anchor="middle" x="316.25" y="-291" font-family="Helvetica,sans-Serif" font-size="10.00">nix::MixEvalArgs</text>
</a>
</g>
</g>
<!-- Node3&#45;&gt;Node9 -->
<g id="edge12_Node000009_Node000003" class="edge">
<title>Node3&#45;&gt;Node9</title>
<g id="a_edge12_Node000009_Node000003"><a xlink:title=" ">
<path fill="none" stroke="#63b8ff" d="M177.7,-392.08C194.97,-383.85 216.29,-372.89 234.25,-361.25 261.57,-343.54 290.54,-318.49 305.66,-304.87"/>
<polygon fill="#63b8ff" stroke="#63b8ff" points="176.48,-388.79 168.9,-396.2 179.44,-395.13 176.48,-388.79"/>
</a>
</g>
</g>
<!-- Node10 -->
<g id="Node000010" class="node">
<title>Node10</title>
<g id="a_Node000010"><a xlink:href="structnix_1_1MixRepair.html" target="_top" xlink:title=" ">
<polygon fill="white" stroke="#bfbfbf" points="367.5,-361.25 281,-361.25 281,-340.5 367.5,-340.5 367.5,-361.25"/>
<text text-anchor="middle" x="324.25" y="-347.75" font-family="Helvetica,sans-Serif" font-size="10.00">nix::MixRepair</text>
</a>
</g>
</g>
<!-- Node3&#45;&gt;Node10 -->
<g id="edge14_Node000010_Node000003" class="edge">
<title>Node3&#45;&gt;Node10</title>
<g id="a_edge14_Node000010_Node000003"><a xlink:title=" ">
<path fill="none" stroke="#63b8ff" d="M185.65,-394.27C217.89,-384.41 262.43,-370.78 292.23,-361.67"/>
<polygon fill="#63b8ff" stroke="#63b8ff" points="184.79,-390.87 176.26,-397.14 186.84,-397.56 184.79,-390.87"/>
</a>
</g>
</g>
<!-- Node4&#45;&gt;Node2 -->
<g id="edge3_Node000002_Node000004" class="edge">
<title>Node4&#45;&gt;Node2</title>
<g id="a_edge3_Node000002_Node000004"><a xlink:title=" ">
<path fill="none" stroke="#63b8ff" d="M115.72,-104.77C107.51,-95.78 97.92,-85.28 91.11,-77.83"/>
<polygon fill="#63b8ff" stroke="#63b8ff" points="112.96,-106.95 122.29,-111.97 118.13,-102.22 112.96,-106.95"/>
</a>
</g>
</g>
<!-- Node5&#45;&gt;Node4 -->
<g id="edge5_Node000004_Node000005" class="edge">
<title>Node5&#45;&gt;Node4</title>
<g id="a_edge5_Node000004_Node000005"><a xlink:title=" ">
<path fill="none" stroke="#63b8ff" d="M148.71,-159.53C144.66,-151.02 140.14,-141.49 136.86,-134.58"/>
<polygon fill="#63b8ff" stroke="#63b8ff" points="145.5,-160.94 152.95,-168.47 151.82,-157.93 145.5,-160.94"/>
</a>
</g>
</g>
<!-- Node6 -->
<g id="Node000006" class="node">
<title>Node6</title>
<g id="a_Node000006"><a xlink:href="structnix_1_1EvalCommand.html" target="_top" xlink:title=" ">
<polygon fill="white" stroke="#666666" points="247.38,-247.75 139.12,-247.75 139.12,-227 247.38,-227 247.38,-247.75"/>
<text text-anchor="middle" x="193.25" y="-234.25" font-family="Helvetica,sans-Serif" font-size="10.00">nix::EvalCommand</text>
</a>
</g>
</g>
<!-- Node6&#45;&gt;Node5 -->
<g id="edge7_Node000005_Node000006" class="edge">
<title>Node6&#45;&gt;Node5</title>
<g id="a_edge7_Node000005_Node000006"><a xlink:title=" ">
<path fill="none" stroke="#63b8ff" d="M180.95,-217.14C175.37,-208.41 169.02,-198.47 164.45,-191.33"/>
<polygon fill="#63b8ff" stroke="#63b8ff" points="177.84,-218.77 186.18,-225.31 183.74,-215 177.84,-218.77"/>
</a>
</g>
</g>
<!-- Node7 -->
<g id="Node000007" class="node">
<title>Node7</title>
<g id="a_Node000007"><a xlink:href="structnix_1_1StoreCommand.html" target="_top" xlink:title=" ">
<polygon fill="white" stroke="#666666" points="249.62,-304.5 136.88,-304.5 136.88,-283.75 249.62,-283.75 249.62,-304.5"/>
<text text-anchor="middle" x="193.25" y="-291" font-family="Helvetica,sans-Serif" font-size="10.00">nix::StoreCommand</text>
</a>
</g>
</g>
<!-- Node7&#45;&gt;Node6 -->
<g id="edge8_Node000006_Node000007" class="edge">
<title>Node7&#45;&gt;Node6</title>
<g id="a_edge8_Node000006_Node000007"><a xlink:title=" ">
<path fill="none" stroke="#63b8ff" d="M193.25,-271.88C193.25,-263.66 193.25,-254.68 193.25,-248.08"/>
<polygon fill="#63b8ff" stroke="#63b8ff" points="189.75,-271.82 193.25,-281.82 196.75,-271.82 189.75,-271.82"/>
</a>
</g>
</g>
<!-- Node8&#45;&gt;Node7 -->
<g id="edge9_Node000007_Node000008" class="edge">
<title>Node8&#45;&gt;Node7</title>
<g id="a_edge9_Node000007_Node000008"><a xlink:title=" ">
<path fill="none" stroke="#63b8ff" d="M185.84,-328.92C187.66,-320.63 189.66,-311.5 191.12,-304.83"/>
<polygon fill="#63b8ff" stroke="#63b8ff" points="182.44,-328.09 183.72,-338.61 189.28,-329.59 182.44,-328.09"/>
</a>
</g>
</g>
<!-- Node9&#45;&gt;Node6 -->
<g id="edge11_Node000006_Node000009" class="edge">
<title>Node9&#45;&gt;Node6</title>
<g id="a_edge11_Node000006_Node000009"><a xlink:title=" ">
<path fill="none" stroke="#63b8ff" d="M283.87,-278.71C262.15,-269.05 234.14,-256.58 215.05,-248.08"/>
<polygon fill="#63b8ff" stroke="#63b8ff" points="282.32,-281.85 292.88,-282.72 285.16,-275.46 282.32,-281.85"/>
</a>
</g>
</g>
<!-- Node10&#45;&gt;Node9 -->
<g id="edge13_Node000009_Node000010" class="edge">
<title>Node10&#45;&gt;Node9</title>
<g id="a_edge13_Node000009_Node000010"><a xlink:title=" ">
<path fill="none" stroke="#63b8ff" d="M321.19,-328.92C319.98,-320.63 318.64,-311.5 317.67,-304.83"/>
<polygon fill="#63b8ff" stroke="#63b8ff" points="317.69,-329.2 322.6,-338.59 324.62,-328.19 317.69,-329.2"/>
</a>
</g>
</g>
</g>
</svg>
