<?xml version="1.0" encoding="UTF-8" standalone="no"?>
<!DOCTYPE svg PUBLIC "-//W3C//DTD SVG 1.1//EN"
 "http://www.w3.org/Graphics/SVG/1.1/DTD/svg11.dtd">
<!-- Generated by graphviz version 12.2.1 (0)
 -->
<!-- Title: nix::DrvOutput Pages: 1 -->
<svg width="205pt" height="98pt"
 viewBox="0.00 0.00 204.95 98.25" xmlns="http://www.w3.org/2000/svg" xmlns:xlink="http://www.w3.org/1999/xlink">
<g id="graph0" class="graph" transform="scale(1 1) rotate(0) translate(4 94.25)">
<title>nix::DrvOutput</title>
<!-- Node1 -->
<g id="Node000001" class="node">
<title>Node1</title>
<g id="a_Node000001"><a xlink:title=" ">
<polygon fill="#999999" stroke="#666666" points="138.5,-20.75 51.25,-20.75 51.25,0 138.5,0 138.5,-20.75"/>
<text text-anchor="middle" x="94.88" y="-7.25" font-family="Helvetica,sans-Serif" font-size="10.00">nix::DrvOutput</text>
</a>
</g>
</g>
<!-- Node2 -->
<g id="Node000002" class="node">
<title>Node2</title>
<g id="a_Node000002"><a xlink:href="structnix_1_1Hash.html" target="_top" xlink:title=" ">
<polygon fill="white" stroke="#bfbfbf" points="61.75,-90.25 0,-90.25 0,-69.5 61.75,-69.5 61.75,-90.25"/>
<text text-anchor="middle" x="30.88" y="-76.75" font-family="Helvetica,sans-Serif" font-size="10.00">nix::Hash</text>
</a>
</g>
</g>
<!-- Node2&#45;&gt;Node1 -->
<g id="edge1_Node000001_Node000002" class="edge">
<title>Node2&#45;&gt;Node1</title>
<g id="a_edge1_Node000001_Node000002"><a xlink:title=" ">
<path fill="none" stroke="#9a32cd" stroke-dasharray="5,2" d="M47.74,-61.09C59.9,-48.27 75.84,-31.45 85.72,-21.03"/>
<polygon fill="#9a32cd" stroke="#9a32cd" points="45.43,-58.44 41.09,-68.11 50.51,-63.26 45.43,-58.44"/>
</a>
</g>
<text text-anchor="middle" x="90.36" y="-42" font-family="Helvetica,sans-Serif" font-size="10.00" fill="grey"> drvHash</text>
</g>
<!-- Node2&#45;&gt;Node2 -->
<g id="edge2_Node000002_Node000002" class="edge">
<title>Node2&#45;&gt;Node2</title>
<g id="a_edge2_Node000002_Node000002"><a xlink:title=" ">
<path fill="none" stroke="#9a32cd" stroke-dasharray="5,2" d="M73.29,-85.09C77.25,-84.02 79.75,-82.28 79.75,-79.88 79.75,-75.6 71.86,-73.43 61.9,-73.36"/>
<polygon fill="#9a32cd" stroke="#9a32cd" points="72.94,-81.61 63.4,-86.22 73.73,-88.57 72.94,-81.61"/>
</a>
</g>
<text text-anchor="middle" x="100" y="-76.75" font-family="Helvetica,sans-Serif" font-size="10.00" fill="grey"> dummy</text>
</g>
<!-- Node3 -->
<g id="Node000003" class="node">
<title>Node3</title>
<g id="a_Node000003"><a xlink:title=" ">
<polygon fill="white" stroke="#bfbfbf" points="181.75,-90.25 138,-90.25 138,-69.5 181.75,-69.5 181.75,-90.25"/>
<text text-anchor="middle" x="159.88" y="-76.75" font-family="Helvetica,sans-Serif" font-size="10.00">string</text>
</a>
</g>
</g>
<!-- Node3&#45;&gt;Node1 -->
<g id="edge3_Node000001_Node000003" class="edge">
<title>Node3&#45;&gt;Node1</title>
<g id="a_edge3_Node000001_Node000003"><a xlink:title=" ">
<path fill="none" stroke="#9a32cd" stroke-dasharray="5,2" d="M142.75,-61.09C130.4,-48.27 114.2,-31.45 104.17,-21.03"/>
<polygon fill="#9a32cd" stroke="#9a32cd" points="140.05,-63.34 149.51,-68.11 145.1,-58.48 140.05,-63.34"/>
</a>
</g>
<text text-anchor="middle" x="165.07" y="-42" font-family="Helvetica,sans-Serif" font-size="10.00" fill="grey"> outputName</text>
</g>
</g>
</svg>
