<?xml version="1.0" encoding="UTF-8" standalone="no"?>
<!DOCTYPE svg PUBLIC "-//W3C//DTD SVG 1.1//EN"
 "http://www.w3.org/Graphics/SVG/1.1/DTD/svg11.dtd">
<!-- Generated by graphviz version 12.2.1 (0)
 -->
<!-- Title: nix::BuiltPathsCommand Pages: 1 -->
<svg width="674pt" height="522pt"
 viewBox="0.00 0.00 673.50 522.25" xmlns="http://www.w3.org/2000/svg" xmlns:xlink="http://www.w3.org/1999/xlink">
<g id="graph0" class="graph" transform="scale(1 1) rotate(0) translate(4 518.25)">
<title>nix::BuiltPathsCommand</title>
<!-- Node1 -->
<g id="Node000001" class="node">
<title>Node1</title>
<g id="a_Node000001"><a xlink:title=" ">
<polygon fill="#999999" stroke="#666666" points="640,-20.75 504,-20.75 504,0 640,0 640,-20.75"/>
<text text-anchor="middle" x="572" y="-7.25" font-family="Helvetica,sans-Serif" font-size="10.00">nix::BuiltPathsCommand</text>
</a>
</g>
</g>
<!-- Node2 -->
<g id="Node000002" class="node">
<title>Node2</title>
<g id="a_Node000002"><a xlink:href="structnix_1_1InstallablesCommand.html" target="_top" xlink:title=" ">
<polygon fill="white" stroke="#666666" points="561.75,-78.5 418.25,-78.5 418.25,-57.75 561.75,-57.75 561.75,-78.5"/>
<text text-anchor="middle" x="490" y="-65" font-family="Helvetica,sans-Serif" font-size="10.00">nix::InstallablesCommand</text>
</a>
</g>
</g>
<!-- Node2&#45;&gt;Node1 -->
<g id="edge1_Node000001_Node000002" class="edge">
<title>Node2&#45;&gt;Node1</title>
<g id="a_edge1_Node000001_Node000002"><a xlink:title=" ">
<path fill="none" stroke="#63b8ff" d="M513.47,-51.17C527.71,-41.49 545.42,-29.45 557.61,-21.16"/>
<polygon fill="#63b8ff" stroke="#63b8ff" points="511.84,-48.05 505.53,-56.56 515.77,-53.84 511.84,-48.05"/>
</a>
</g>
</g>
<!-- Node3 -->
<g id="Node000003" class="node">
<title>Node3</title>
<g id="a_Node000003"><a xlink:href="structnix_1_1RawInstallablesCommand.html" target="_top" xlink:title=" ">
<polygon fill="white" stroke="#666666" points="565.25,-136.25 400.75,-136.25 400.75,-115.5 565.25,-115.5 565.25,-136.25"/>
<text text-anchor="middle" x="483" y="-122.75" font-family="Helvetica,sans-Serif" font-size="10.00">nix::RawInstallablesCommand</text>
</a>
</g>
</g>
<!-- Node3&#45;&gt;Node2 -->
<g id="edge2_Node000002_Node000003" class="edge">
<title>Node3&#45;&gt;Node2</title>
<g id="a_edge2_Node000002_Node000003"><a xlink:title=" ">
<path fill="none" stroke="#63b8ff" d="M485.63,-103.93C486.72,-95.27 487.93,-85.65 488.79,-78.72"/>
<polygon fill="#63b8ff" stroke="#63b8ff" points="482.18,-103.3 484.41,-113.66 489.13,-104.18 482.18,-103.3"/>
</a>
</g>
</g>
<!-- Node4 -->
<g id="Node000004" class="node">
<title>Node4</title>
<g id="a_Node000004"><a xlink:href="classnix_1_1Args.html" target="_top" xlink:title=" ">
<polygon fill="white" stroke="#bfbfbf" points="413.38,-514.25 354.62,-514.25 354.62,-493.5 413.38,-493.5 413.38,-514.25"/>
<text text-anchor="middle" x="384" y="-500.75" font-family="Helvetica,sans-Serif" font-size="10.00">nix::Args</text>
</a>
</g>
</g>
<!-- Node4&#45;&gt;Node3 -->
<g id="edge3_Node000003_Node000004" class="edge">
<title>Node4&#45;&gt;Node3</title>
<g id="a_edge3_Node000003_Node000004"><a xlink:title=" ">
<path fill="none" stroke="#63b8ff" d="M425.05,-500.51C460.14,-496 505,-483.18 505,-447.12 505,-447.12 505,-447.12 505,-182.62 505,-165.56 495.97,-147.48 489.48,-136.69"/>
<polygon fill="#63b8ff" stroke="#63b8ff" points="424.67,-497.03 415.1,-501.58 425.42,-503.99 424.67,-497.03"/>
</a>
</g>
</g>
<!-- Node6 -->
<g id="Node000006" class="node">
<title>Node6</title>
<g id="a_Node000006"><a xlink:href="structnix_1_1Command.html" target="_top" xlink:title=" ">
<polygon fill="white" stroke="#666666" points="367.62,-456.5 280.38,-456.5 280.38,-435.75 367.62,-435.75 367.62,-456.5"/>
<text text-anchor="middle" x="324" y="-443" font-family="Helvetica,sans-Serif" font-size="10.00">nix::Command</text>
</a>
</g>
</g>
<!-- Node4&#45;&gt;Node6 -->
<g id="edge6_Node000006_Node000004" class="edge">
<title>Node4&#45;&gt;Node6</title>
<g id="a_edge6_Node000006_Node000004"><a xlink:title=" ">
<path fill="none" stroke="#63b8ff" d="M365.25,-485.45C355.05,-475.97 342.81,-464.61 334.33,-456.72"/>
<polygon fill="#63b8ff" stroke="#63b8ff" points="362.73,-487.89 372.44,-492.13 367.5,-482.76 362.73,-487.89"/>
</a>
</g>
</g>
<!-- Node7 -->
<g id="Node000007" class="node">
<title>Node7</title>
<g id="a_Node000007"><a xlink:href="structnix_1_1SourceExprCommand.html" target="_top" xlink:title=" ">
<polygon fill="white" stroke="#bfbfbf" points="477,-194 335,-194 335,-173.25 477,-173.25 477,-194"/>
<text text-anchor="middle" x="406" y="-180.5" font-family="Helvetica,sans-Serif" font-size="10.00">nix::SourceExprCommand</text>
</a>
</g>
</g>
<!-- Node4&#45;&gt;Node7 -->
<g id="edge8_Node000007_Node000004" class="edge">
<title>Node4&#45;&gt;Node7</title>
<g id="a_edge8_Node000007_Node000004"><a xlink:title=" ">
<path fill="none" stroke="#63b8ff" d="M424.1,-492.22C445.3,-483.91 467,-469.85 467,-447.12 467,-447.12 467,-447.12 467,-240.38 467,-219 446.34,-203.62 429.06,-194.5"/>
<polygon fill="#63b8ff" stroke="#63b8ff" points="423.19,-488.83 414.92,-495.46 425.52,-495.43 423.19,-488.83"/>
</a>
</g>
</g>
<!-- Node8 -->
<g id="Node000008" class="node">
<title>Node8</title>
<g id="a_Node000008"><a xlink:href="structnix_1_1MixFlakeOptions.html" target="_top" xlink:title=" ">
<polygon fill="white" stroke="#666666" points="399.38,-251.75 280.62,-251.75 280.62,-231 399.38,-231 399.38,-251.75"/>
<text text-anchor="middle" x="340" y="-238.25" font-family="Helvetica,sans-Serif" font-size="10.00">nix::MixFlakeOptions</text>
</a>
</g>
</g>
<!-- Node4&#45;&gt;Node8 -->
<g id="edge10_Node000008_Node000004" class="edge">
<title>Node4&#45;&gt;Node8</title>
<g id="a_edge10_Node000008_Node000004"><a xlink:title=" ">
<path fill="none" stroke="#63b8ff" d="M342.85,-501.16C243.75,-496.48 0,-481.47 0,-447.12 0,-447.12 0,-447.12 0,-309.88 0,-253.38 182.88,-243.45 280.39,-242.16"/>
<polygon fill="#63b8ff" stroke="#63b8ff" points="342.53,-504.65 352.68,-501.61 342.85,-497.65 342.53,-504.65"/>
</a>
</g>
</g>
<!-- Node11 -->
<g id="Node000011" class="node">
<title>Node11</title>
<g id="a_Node000011"><a xlink:href="structnix_1_1MixEvalArgs.html" target="_top" xlink:title=" ">
<polygon fill="white" stroke="#bfbfbf" points="178.88,-379 81.12,-379 81.12,-358.25 178.88,-358.25 178.88,-379"/>
<text text-anchor="middle" x="130" y="-365.5" font-family="Helvetica,sans-Serif" font-size="10.00">nix::MixEvalArgs</text>
</a>
</g>
</g>
<!-- Node4&#45;&gt;Node11 -->
<g id="edge15_Node000011_Node000004" class="edge">
<title>Node4&#45;&gt;Node11</title>
<g id="a_edge15_Node000011_Node000004"><a xlink:title=" ">
<path fill="none" stroke="#63b8ff" d="M343.07,-498.64C287.87,-492.19 193.44,-478.29 167,-456.5 142.71,-436.48 134.04,-397.62 131.23,-379.45"/>
<polygon fill="#63b8ff" stroke="#63b8ff" points="342.38,-502.08 352.71,-499.73 343.17,-495.13 342.38,-502.08"/>
</a>
</g>
</g>
<!-- Node12 -->
<g id="Node000012" class="node">
<title>Node12</title>
<g id="a_Node000012"><a xlink:href="structnix_1_1MixRepair.html" target="_top" xlink:title=" ">
<polygon fill="white" stroke="#bfbfbf" points="262.25,-456.5 175.75,-456.5 175.75,-435.75 262.25,-435.75 262.25,-456.5"/>
<text text-anchor="middle" x="219" y="-443" font-family="Helvetica,sans-Serif" font-size="10.00">nix::MixRepair</text>
</a>
</g>
</g>
<!-- Node4&#45;&gt;Node12 -->
<g id="edge17_Node000012_Node000004" class="edge">
<title>Node4&#45;&gt;Node12</title>
<g id="a_edge17_Node000012_Node000004"><a xlink:title=" ">
<path fill="none" stroke="#63b8ff" d="M344.07,-489.38C314.46,-479.38 274.76,-465.97 248.1,-456.96"/>
<polygon fill="#63b8ff" stroke="#63b8ff" points="342.85,-492.67 353.45,-492.55 345.09,-486.03 342.85,-492.67"/>
</a>
</g>
</g>
<!-- Node15 -->
<g id="Node000015" class="node">
<title>Node15</title>
<g id="a_Node000015"><a xlink:href="structnix_1_1MixOperateOnOptions.html" target="_top" xlink:title=" ">
<polygon fill="white" stroke="#bfbfbf" points="665.5,-417.75 520.5,-417.75 520.5,-397 665.5,-397 665.5,-417.75"/>
<text text-anchor="middle" x="593" y="-404.25" font-family="Helvetica,sans-Serif" font-size="10.00">nix::MixOperateOnOptions</text>
</a>
</g>
</g>
<!-- Node4&#45;&gt;Node15 -->
<g id="edge21_Node000015_Node000004" class="edge">
<title>Node4&#45;&gt;Node15</title>
<g id="a_edge21_Node000015_Node000004"><a xlink:title=" ">
<path fill="none" stroke="#63b8ff" d="M424.95,-500.27C452.72,-497.17 489.59,-490.38 519,-475.5 547.48,-461.09 573.25,-432.72 585.49,-417.9"/>
<polygon fill="#63b8ff" stroke="#63b8ff" points="424.77,-496.77 415.16,-501.24 425.45,-503.74 424.77,-496.77"/>
</a>
</g>
</g>
<!-- Node5 -->
<g id="Node000005" class="node">
<title>Node5</title>
<g id="a_Node000005"><a xlink:href="classnix_1_1MultiCommand.html" target="_top" xlink:title=" ">
<polygon fill="white" stroke="#666666" points="439,-379 327,-379 327,-358.25 439,-358.25 439,-379"/>
<text text-anchor="middle" x="383" y="-365.5" font-family="Helvetica,sans-Serif" font-size="10.00">nix::MultiCommand</text>
</a>
</g>
</g>
<!-- Node5&#45;&gt;Node4 -->
<g id="edge4_Node000004_Node000005" class="edge">
<title>Node5&#45;&gt;Node4</title>
<g id="a_edge4_Node000004_Node000005"><a xlink:title=" ">
<path fill="none" stroke="#9a32cd" stroke-dasharray="5,2" d="M383.16,-390.87C383.38,-420.23 383.77,-471.98 383.93,-493.29"/>
<polygon fill="#9a32cd" stroke="#9a32cd" points="386.66,-390.97 383.09,-380.99 379.66,-391.02 386.66,-390.97"/>
</a>
</g>
<text text-anchor="middle" x="400.9" y="-443" font-family="Helvetica,sans-Serif" font-size="10.00" fill="grey"> parent</text>
</g>
<!-- Node6&#45;&gt;Node5 -->
<g id="edge5_Node000005_Node000006" class="edge">
<title>Node6&#45;&gt;Node5</title>
<g id="a_edge5_Node000005_Node000006"><a xlink:title=" ">
<path fill="none" stroke="#63b8ff" d="M338.67,-426.35C350.36,-411.4 366.23,-391.08 375.47,-379.26"/>
<polygon fill="#63b8ff" stroke="#63b8ff" points="336.04,-424.03 332.65,-434.06 341.56,-428.34 336.04,-424.03"/>
</a>
</g>
</g>
<!-- Node10 -->
<g id="Node000010" class="node">
<title>Node10</title>
<g id="a_Node000010"><a xlink:href="structnix_1_1StoreCommand.html" target="_top" xlink:title=" ">
<polygon fill="white" stroke="#666666" points="309.38,-379 196.62,-379 196.62,-358.25 309.38,-358.25 309.38,-379"/>
<text text-anchor="middle" x="253" y="-365.5" font-family="Helvetica,sans-Serif" font-size="10.00">nix::StoreCommand</text>
</a>
</g>
</g>
<!-- Node6&#45;&gt;Node10 -->
<g id="edge13_Node000010_Node000006" class="edge">
<title>Node6&#45;&gt;Node10</title>
<g id="a_edge13_Node000010_Node000006"><a xlink:title=" ">
<path fill="none" stroke="#63b8ff" d="M307.14,-427.2C293.01,-412.17 273.39,-391.31 262.06,-379.26"/>
<polygon fill="#63b8ff" stroke="#63b8ff" points="304.28,-429.26 313.68,-434.15 309.38,-424.47 304.28,-429.26"/>
</a>
</g>
</g>
<!-- Node7&#45;&gt;Node3 -->
<g id="edge7_Node000003_Node000007" class="edge">
<title>Node7&#45;&gt;Node3</title>
<g id="a_edge7_Node000003_Node000007"><a xlink:title=" ">
<path fill="none" stroke="#63b8ff" d="M428.43,-166.39C441.73,-156.76 458.15,-144.87 469.48,-136.66"/>
<polygon fill="#63b8ff" stroke="#63b8ff" points="426.69,-163.33 420.64,-172.03 430.79,-169 426.69,-163.33"/>
</a>
</g>
</g>
<!-- Node8&#45;&gt;Node7 -->
<g id="edge9_Node000007_Node000008" class="edge">
<title>Node8&#45;&gt;Node7</title>
<g id="a_edge9_Node000007_Node000008"><a xlink:title=" ">
<path fill="none" stroke="#63b8ff" d="M360.29,-223.24C371.58,-213.7 385.21,-202.19 394.64,-194.22"/>
<polygon fill="#63b8ff" stroke="#63b8ff" points="358.03,-220.56 352.65,-229.69 362.55,-225.91 358.03,-220.56"/>
</a>
</g>
</g>
<!-- Node9 -->
<g id="Node000009" class="node">
<title>Node9</title>
<g id="a_Node000009"><a xlink:href="structnix_1_1EvalCommand.html" target="_top" xlink:title=" ">
<polygon fill="white" stroke="#666666" points="305.12,-321.25 196.88,-321.25 196.88,-300.5 305.12,-300.5 305.12,-321.25"/>
<text text-anchor="middle" x="251" y="-307.75" font-family="Helvetica,sans-Serif" font-size="10.00">nix::EvalCommand</text>
</a>
</g>
</g>
<!-- Node9&#45;&gt;Node8 -->
<g id="edge11_Node000008_Node000009" class="edge">
<title>Node9&#45;&gt;Node8</title>
<g id="a_edge11_Node000008_Node000009"><a xlink:title=" ">
<path fill="none" stroke="#63b8ff" d="M272.47,-293.59C289.47,-280.7 312.68,-263.1 326.98,-252.25"/>
<polygon fill="#63b8ff" stroke="#63b8ff" points="270.81,-290.46 264.96,-299.29 275.04,-296.04 270.81,-290.46"/>
</a>
</g>
</g>
<!-- Node10&#45;&gt;Node9 -->
<g id="edge12_Node000009_Node000010" class="edge">
<title>Node10&#45;&gt;Node9</title>
<g id="a_edge12_Node000009_Node000010"><a xlink:title=" ">
<path fill="none" stroke="#63b8ff" d="M252.25,-346.68C251.94,-338.02 251.59,-328.4 251.34,-321.47"/>
<polygon fill="#63b8ff" stroke="#63b8ff" points="248.74,-346.53 252.6,-356.4 255.74,-346.28 248.74,-346.53"/>
</a>
</g>
</g>
<!-- Node11&#45;&gt;Node9 -->
<g id="edge14_Node000009_Node000011" class="edge">
<title>Node11&#45;&gt;Node9</title>
<g id="a_edge14_Node000009_Node000011"><a xlink:title=" ">
<path fill="none" stroke="#63b8ff" d="M161.64,-353.05C183.14,-343.14 211.01,-330.3 229.86,-321.62"/>
<polygon fill="#63b8ff" stroke="#63b8ff" points="160.35,-349.79 152.73,-357.15 163.28,-356.15 160.35,-349.79"/>
</a>
</g>
</g>
<!-- Node12&#45;&gt;Node11 -->
<g id="edge16_Node000011_Node000012" class="edge">
<title>Node12&#45;&gt;Node11</title>
<g id="a_edge16_Node000011_Node000012"><a xlink:title=" ">
<path fill="none" stroke="#63b8ff" d="M198.9,-428.08C181.24,-413.1 156.16,-391.82 141.64,-379.5"/>
<polygon fill="#63b8ff" stroke="#63b8ff" points="196.32,-430.48 206.21,-434.28 200.85,-425.14 196.32,-430.48"/>
</a>
</g>
</g>
<!-- Node13 -->
<g id="Node000013" class="node">
<title>Node13</title>
<g id="a_Node000013"><a xlink:href="structnix_1_1SearchPath.html" target="_top" xlink:title=" ">
<polygon fill="white" stroke="#666666" points="119.5,-456.5 28.5,-456.5 28.5,-435.75 119.5,-435.75 119.5,-456.5"/>
<text text-anchor="middle" x="74" y="-443" font-family="Helvetica,sans-Serif" font-size="10.00">nix::SearchPath</text>
</a>
</g>
</g>
<!-- Node13&#45;&gt;Node11 -->
<g id="edge18_Node000011_Node000013" class="edge">
<title>Node13&#45;&gt;Node11</title>
<g id="a_edge18_Node000011_Node000013"><a xlink:title=" ">
<path fill="none" stroke="#9a32cd" stroke-dasharray="5,2" d="M71.32,-424.19C71.2,-415.16 72.55,-404.89 77.75,-397 82.88,-389.22 90.97,-383.51 99.26,-379.39"/>
<polygon fill="#9a32cd" stroke="#9a32cd" points="67.81,-424.18 72.06,-433.88 74.79,-423.65 67.81,-424.18"/>
</a>
</g>
<text text-anchor="middle" x="105.88" y="-404.25" font-family="Helvetica,sans-Serif" font-size="10.00" fill="grey"> searchPath</text>
</g>
<!-- Node14 -->
<g id="Node000014" class="node">
<title>Node14</title>
<g id="a_Node000014"><a xlink:href="structnix_1_1flake_1_1LockFlags.html" target="_top" xlink:title=" ">
<polygon fill="white" stroke="#bfbfbf" points="438.5,-321.25 323.5,-321.25 323.5,-300.5 438.5,-300.5 438.5,-321.25"/>
<text text-anchor="middle" x="381" y="-307.75" font-family="Helvetica,sans-Serif" font-size="10.00">nix::flake::LockFlags</text>
</a>
</g>
</g>
<!-- Node14&#45;&gt;Node8 -->
<g id="edge19_Node000008_Node000014" class="edge">
<title>Node14&#45;&gt;Node8</title>
<g id="a_edge19_Node000008_Node000014"><a xlink:title=" ">
<path fill="none" stroke="#9a32cd" stroke-dasharray="5,2" d="M369.29,-290.6C361.63,-277.98 351.95,-262.05 345.86,-252.03"/>
<polygon fill="#9a32cd" stroke="#9a32cd" points="366.16,-292.18 374.34,-298.91 372.14,-288.55 366.16,-292.18"/>
</a>
</g>
<text text-anchor="middle" x="388.92" y="-273" font-family="Helvetica,sans-Serif" font-size="10.00" fill="grey"> lockFlags</text>
</g>
<!-- Node15&#45;&gt;Node1 -->
<g id="edge20_Node000001_Node000015" class="edge">
<title>Node15&#45;&gt;Node1</title>
<g id="a_edge20_Node000001_Node000015"><a xlink:title=" ">
<path fill="none" stroke="#63b8ff" d="M593,-385.08C593,-372.12 593,-355.23 593,-340.25 593,-340.25 593,-340.25 593,-67.12 593,-50.16 584.38,-32.05 578.19,-21.23"/>
<polygon fill="#63b8ff" stroke="#63b8ff" points="589.5,-385 593,-395 596.5,-385 589.5,-385"/>
</a>
</g>
</g>
</g>
</svg>
