<?xml version="1.0" encoding="UTF-8" standalone="no"?>
<!DOCTYPE svg PUBLIC "-//W3C//DTD SVG 1.1//EN"
 "http://www.w3.org/Graphics/SVG/1.1/DTD/svg11.dtd">
<!-- Generated by graphviz version 12.2.1 (0)
 -->
<!-- Title: nix::PluginFilesSetting Pages: 1 -->
<svg width="152pt" height="142pt"
 viewBox="0.00 0.00 152.25 142.25" xmlns="http://www.w3.org/2000/svg" xmlns:xlink="http://www.w3.org/1999/xlink">
<g id="graph0" class="graph" transform="scale(1 1) rotate(0) translate(4 138.25)">
<title>nix::PluginFilesSetting</title>
<!-- Node1 -->
<g id="Node000001" class="node">
<title>Node1</title>
<g id="a_Node000001"><a xlink:title=" ">
<polygon fill="#999999" stroke="#666666" points="134.12,-20.75 10.12,-20.75 10.12,0 134.12,0 134.12,-20.75"/>
<text text-anchor="middle" x="72.12" y="-7.25" font-family="Helvetica,sans-Serif" font-size="10.00">nix::PluginFilesSetting</text>
</a>
</g>
</g>
<!-- Node2 -->
<g id="Node000002" class="node">
<title>Node2</title>
<g id="a_Node000002"><a xlink:href="classnix_1_1BaseSetting.html" target="_top" xlink:title=" ">
<polygon fill="white" stroke="#666666" points="144.25,-77.5 0,-77.5 0,-56.75 144.25,-56.75 144.25,-77.5"/>
<text text-anchor="middle" x="72.12" y="-64" font-family="Helvetica,sans-Serif" font-size="10.00">nix::BaseSetting&lt; Paths &gt;</text>
</a>
</g>
</g>
<!-- Node2&#45;&gt;Node1 -->
<g id="edge1_Node000001_Node000002" class="edge">
<title>Node2&#45;&gt;Node1</title>
<g id="a_edge1_Node000001_Node000002"><a xlink:title=" ">
<path fill="none" stroke="#63b8ff" d="M72.12,-44.88C72.12,-36.66 72.12,-27.68 72.12,-21.08"/>
<polygon fill="#63b8ff" stroke="#63b8ff" points="68.63,-44.82 72.13,-54.82 75.63,-44.82 68.63,-44.82"/>
</a>
</g>
</g>
<!-- Node3 -->
<g id="Node000003" class="node">
<title>Node3</title>
<g id="a_Node000003"><a xlink:href="classnix_1_1AbstractSetting.html" target="_top" xlink:title=" ">
<polygon fill="white" stroke="#bfbfbf" points="128.12,-134.25 16.12,-134.25 16.12,-113.5 128.12,-113.5 128.12,-134.25"/>
<text text-anchor="middle" x="72.12" y="-120.75" font-family="Helvetica,sans-Serif" font-size="10.00">nix::AbstractSetting</text>
</a>
</g>
</g>
<!-- Node3&#45;&gt;Node2 -->
<g id="edge2_Node000002_Node000003" class="edge">
<title>Node3&#45;&gt;Node2</title>
<g id="a_edge2_Node000002_Node000003"><a xlink:title=" ">
<path fill="none" stroke="#63b8ff" d="M72.12,-101.63C72.12,-93.41 72.12,-84.43 72.12,-77.83"/>
<polygon fill="#63b8ff" stroke="#63b8ff" points="68.63,-101.57 72.13,-111.57 75.63,-101.57 68.63,-101.57"/>
</a>
</g>
</g>
</g>
</svg>
