<?xml version="1.0" encoding="UTF-8" standalone="no"?>
<!DOCTYPE svg PUBLIC "-//W3C//DTD SVG 1.1//EN"
 "http://www.w3.org/Graphics/SVG/1.1/DTD/svg11.dtd">
<!-- Generated by graphviz version 12.2.1 (0)
 -->
<!-- Title: nix::StringSink Pages: 1 -->
<svg width="128pt" height="98pt"
 viewBox="0.00 0.00 127.88 98.25" xmlns="http://www.w3.org/2000/svg" xmlns:xlink="http://www.w3.org/1999/xlink">
<g id="graph0" class="graph" transform="scale(1 1) rotate(0) translate(4 94.25)">
<title>nix::StringSink</title>
<!-- Node1 -->
<g id="Node000001" class="node">
<title>Node1</title>
<g id="a_Node000001"><a xlink:title=" ">
<polygon fill="#999999" stroke="#666666" points="106.25,-20.75 19.75,-20.75 19.75,0 106.25,0 106.25,-20.75"/>
<text text-anchor="middle" x="63" y="-7.25" font-family="Helvetica,sans-Serif" font-size="10.00">nix::StringSink</text>
</a>
</g>
</g>
<!-- Node2 -->
<g id="Node000002" class="node">
<title>Node2</title>
<g id="a_Node000002"><a xlink:href="structnix_1_1Sink.html" target="_top" xlink:title=" ">
<polygon fill="white" stroke="#666666" points="58,-90.25 0,-90.25 0,-69.5 58,-69.5 58,-90.25"/>
<text text-anchor="middle" x="29" y="-76.75" font-family="Helvetica,sans-Serif" font-size="10.00">nix::Sink</text>
</a>
</g>
</g>
<!-- Node2&#45;&gt;Node1 -->
<g id="edge1_Node000001_Node000002" class="edge">
<title>Node2&#45;&gt;Node1</title>
<g id="a_edge1_Node000001_Node000002"><a xlink:title=" ">
<path fill="none" stroke="#63b8ff" d="M38.9,-59.22C45.22,-46.67 53.14,-30.95 58.14,-21.03"/>
<polygon fill="#63b8ff" stroke="#63b8ff" points="35.93,-57.35 34.55,-67.85 42.18,-60.5 35.93,-57.35"/>
</a>
</g>
</g>
<!-- Node3 -->
<g id="Node000003" class="node">
<title>Node3</title>
<g id="a_Node000003"><a xlink:title=" ">
<polygon fill="white" stroke="#bfbfbf" points="119.88,-90.25 76.12,-90.25 76.12,-69.5 119.88,-69.5 119.88,-90.25"/>
<text text-anchor="middle" x="98" y="-76.75" font-family="Helvetica,sans-Serif" font-size="10.00">string</text>
</a>
</g>
</g>
<!-- Node3&#45;&gt;Node1 -->
<g id="edge2_Node000001_Node000003" class="edge">
<title>Node3&#45;&gt;Node1</title>
<g id="a_edge2_Node000001_Node000003"><a xlink:title=" ">
<path fill="none" stroke="#9a32cd" stroke-dasharray="5,2" d="M87.81,-59.22C81.3,-46.67 73.15,-30.95 68.01,-21.03"/>
<polygon fill="#9a32cd" stroke="#9a32cd" points="84.58,-60.59 92.29,-67.86 90.79,-57.37 84.58,-60.59"/>
</a>
</g>
<text text-anchor="middle" x="87.76" y="-42" font-family="Helvetica,sans-Serif" font-size="10.00" fill="grey"> s</text>
</g>
</g>
</svg>
