<?xml version="1.0" encoding="UTF-8" standalone="no"?>
<!DOCTYPE svg PUBLIC "-//W3C//DTD SVG 1.1//EN"
 "http://www.w3.org/Graphics/SVG/1.1/DTD/svg11.dtd">
<!-- Generated by graphviz version 12.2.1 (0)
 -->
<!-- Title: nix::LocalFSStoreConfig Pages: 1 -->
<svg width="459pt" height="256pt"
 viewBox="0.00 0.00 458.62 255.75" xmlns="http://www.w3.org/2000/svg" xmlns:xlink="http://www.w3.org/1999/xlink">
<g id="graph0" class="graph" transform="scale(1 1) rotate(0) translate(4 251.75)">
<title>nix::LocalFSStoreConfig</title>
<!-- Node1 -->
<g id="Node000001" class="node">
<title>Node1</title>
<g id="a_Node000001"><a xlink:title=" ">
<polygon fill="#999999" stroke="#666666" points="273.38,-77.5 143.38,-77.5 143.38,-56.75 273.38,-56.75 273.38,-77.5"/>
<text text-anchor="middle" x="208.38" y="-64" font-family="Helvetica,sans-Serif" font-size="10.00">nix::LocalFSStoreConfig</text>
</a>
</g>
</g>
<!-- Node5 -->
<g id="Node000005" class="node">
<title>Node5</title>
<g id="a_Node000005"><a xlink:href="structnix_1_1LocalStoreConfig.html" target="_top" xlink:title=" ">
<polygon fill="white" stroke="#bfbfbf" points="118.75,-20.75 0,-20.75 0,0 118.75,0 118.75,-20.75"/>
<text text-anchor="middle" x="59.38" y="-7.25" font-family="Helvetica,sans-Serif" font-size="10.00">nix::LocalStoreConfig</text>
</a>
</g>
</g>
<!-- Node1&#45;&gt;Node5 -->
<g id="edge4_Node000001_Node000005" class="edge">
<title>Node1&#45;&gt;Node5</title>
<g id="a_edge4_Node000001_Node000005"><a xlink:title=" ">
<path fill="none" stroke="#63b8ff" d="M170.97,-52.38C144.52,-42.66 109.7,-29.87 86.03,-21.17"/>
<polygon fill="#63b8ff" stroke="#63b8ff" points="169.72,-55.65 180.32,-55.81 172.14,-49.08 169.72,-55.65"/>
</a>
</g>
</g>
<!-- Node6 -->
<g id="Node000006" class="node">
<title>Node6</title>
<g id="a_Node000006"><a xlink:href="structnix_1_1RestrictedStoreConfig.html" target="_top" xlink:title=" ">
<polygon fill="white" stroke="#bfbfbf" points="279.75,-20.75 137,-20.75 137,0 279.75,0 279.75,-20.75"/>
<text text-anchor="middle" x="208.38" y="-7.25" font-family="Helvetica,sans-Serif" font-size="10.00">nix::RestrictedStoreConfig</text>
</a>
</g>
</g>
<!-- Node1&#45;&gt;Node6 -->
<g id="edge5_Node000001_Node000006" class="edge">
<title>Node1&#45;&gt;Node6</title>
<g id="a_edge5_Node000001_Node000006"><a xlink:title=" ">
<path fill="none" stroke="#63b8ff" d="M208.38,-44.88C208.38,-36.66 208.38,-27.68 208.38,-21.08"/>
<polygon fill="#63b8ff" stroke="#63b8ff" points="204.88,-44.82 208.38,-54.82 211.88,-44.82 204.88,-44.82"/>
</a>
</g>
</g>
<!-- Node7 -->
<g id="Node000007" class="node">
<title>Node7</title>
<g id="a_Node000007"><a xlink:href="structnix_1_1UDSRemoteStoreConfig.html" target="_top" xlink:title=" ">
<polygon fill="white" stroke="#bfbfbf" points="450.62,-20.75 298.12,-20.75 298.12,0 450.62,0 450.62,-20.75"/>
<text text-anchor="middle" x="374.38" y="-7.25" font-family="Helvetica,sans-Serif" font-size="10.00">nix::UDSRemoteStoreConfig</text>
</a>
</g>
</g>
<!-- Node1&#45;&gt;Node7 -->
<g id="edge6_Node000001_Node000007" class="edge">
<title>Node1&#45;&gt;Node7</title>
<g id="a_edge6_Node000001_Node000007"><a xlink:title=" ">
<path fill="none" stroke="#63b8ff" d="M248.87,-52.77C278.47,-43.01 317.96,-29.98 344.68,-21.17"/>
<polygon fill="#63b8ff" stroke="#63b8ff" points="247.89,-49.41 239.49,-55.86 250.08,-56.05 247.89,-49.41"/>
</a>
</g>
</g>
<!-- Node2 -->
<g id="Node000002" class="node">
<title>Node2</title>
<g id="a_Node000002"><a xlink:href="structnix_1_1StoreConfig.html" target="_top" xlink:title=" ">
<polygon fill="white" stroke="#bfbfbf" points="255,-134.25 161.75,-134.25 161.75,-113.5 255,-113.5 255,-134.25"/>
<text text-anchor="middle" x="208.38" y="-120.75" font-family="Helvetica,sans-Serif" font-size="10.00">nix::StoreConfig</text>
</a>
</g>
</g>
<!-- Node2&#45;&gt;Node1 -->
<g id="edge1_Node000001_Node000002" class="edge">
<title>Node2&#45;&gt;Node1</title>
<g id="a_edge1_Node000001_Node000002"><a xlink:title=" ">
<path fill="none" stroke="#63b8ff" d="M208.38,-101.63C208.38,-93.41 208.38,-84.43 208.38,-77.83"/>
<polygon fill="#63b8ff" stroke="#63b8ff" points="204.88,-101.57 208.38,-111.57 211.88,-101.57 204.88,-101.57"/>
</a>
</g>
</g>
<!-- Node3 -->
<g id="Node000003" class="node">
<title>Node3</title>
<g id="a_Node000003"><a xlink:href="classnix_1_1Config.html" target="_top" xlink:title=" ">
<polygon fill="white" stroke="#666666" points="242.25,-191 174.5,-191 174.5,-170.25 242.25,-170.25 242.25,-191"/>
<text text-anchor="middle" x="208.38" y="-177.5" font-family="Helvetica,sans-Serif" font-size="10.00">nix::Config</text>
</a>
</g>
</g>
<!-- Node3&#45;&gt;Node2 -->
<g id="edge2_Node000002_Node000003" class="edge">
<title>Node3&#45;&gt;Node2</title>
<g id="a_edge2_Node000002_Node000003"><a xlink:title=" ">
<path fill="none" stroke="#63b8ff" d="M208.38,-158.38C208.38,-150.16 208.38,-141.18 208.38,-134.58"/>
<polygon fill="#63b8ff" stroke="#63b8ff" points="204.88,-158.32 208.38,-168.32 211.88,-158.32 204.88,-158.32"/>
</a>
</g>
</g>
<!-- Node4 -->
<g id="Node000004" class="node">
<title>Node4</title>
<g id="a_Node000004"><a xlink:href="classnix_1_1AbstractConfig.html" target="_top" xlink:title=" ">
<polygon fill="white" stroke="#bfbfbf" points="262.5,-247.75 154.25,-247.75 154.25,-227 262.5,-227 262.5,-247.75"/>
<text text-anchor="middle" x="208.38" y="-234.25" font-family="Helvetica,sans-Serif" font-size="10.00">nix::AbstractConfig</text>
</a>
</g>
</g>
<!-- Node4&#45;&gt;Node3 -->
<g id="edge3_Node000003_Node000004" class="edge">
<title>Node4&#45;&gt;Node3</title>
<g id="a_edge3_Node000003_Node000004"><a xlink:title=" ">
<path fill="none" stroke="#63b8ff" d="M208.38,-215.13C208.38,-206.91 208.38,-197.93 208.38,-191.33"/>
<polygon fill="#63b8ff" stroke="#63b8ff" points="204.88,-215.07 208.38,-225.07 211.88,-215.07 204.88,-215.07"/>
</a>
</g>
</g>
</g>
</svg>
