<?xml version="1.0" encoding="UTF-8" standalone="no"?>
<!DOCTYPE svg PUBLIC "-//W3C//DTD SVG 1.1//EN"
 "http://www.w3.org/Graphics/SVG/1.1/DTD/svg11.dtd">
<!-- Generated by graphviz version 12.2.1 (0)
 -->
<!-- Title: nix::NoneSink Pages: 1 -->
<svg width="254pt" height="214pt"
 viewBox="0.00 0.00 254.00 213.75" xmlns="http://www.w3.org/2000/svg" xmlns:xlink="http://www.w3.org/1999/xlink">
<g id="graph0" class="graph" transform="scale(1 1) rotate(0) translate(4 209.75)">
<title>nix::NoneSink</title>
<!-- Node1 -->
<g id="Node000001" class="node">
<title>Node1</title>
<g id="a_Node000001"><a xlink:title=" ">
<polygon fill="#999999" stroke="#666666" points="83.5,-20.75 0,-20.75 0,0 83.5,0 83.5,-20.75"/>
<text text-anchor="middle" x="41.75" y="-7.25" font-family="Helvetica,sans-Serif" font-size="10.00">nix::NoneSink</text>
</a>
</g>
</g>
<!-- Node2 -->
<g id="Node000002" class="node">
<title>Node2</title>
<g id="a_Node000002"><a xlink:href="structnix_1_1CompressionSink.html" target="_top" xlink:title=" ">
<polygon fill="white" stroke="#bfbfbf" points="163.62,-78.5 41.88,-78.5 41.88,-57.75 163.62,-57.75 163.62,-78.5"/>
<text text-anchor="middle" x="102.75" y="-65" font-family="Helvetica,sans-Serif" font-size="10.00">nix::CompressionSink</text>
</a>
</g>
</g>
<!-- Node2&#45;&gt;Node1 -->
<g id="edge1_Node000001_Node000002" class="edge">
<title>Node2&#45;&gt;Node1</title>
<g id="a_edge1_Node000001_Node000002"><a xlink:title=" ">
<path fill="none" stroke="#63b8ff" d="M83.69,-49.7C73.31,-40.22 60.88,-28.86 52.25,-20.97"/>
<polygon fill="#63b8ff" stroke="#63b8ff" points="81.26,-52.23 91.01,-56.39 85.99,-47.06 81.26,-52.23"/>
</a>
</g>
</g>
<!-- Node3 -->
<g id="Node000003" class="node">
<title>Node3</title>
<g id="a_Node000003"><a xlink:href="structnix_1_1BufferedSink.html" target="_top" xlink:title=" ">
<polygon fill="white" stroke="#666666" points="141.38,-148 42.12,-148 42.12,-127.25 141.38,-127.25 141.38,-148"/>
<text text-anchor="middle" x="91.75" y="-134.5" font-family="Helvetica,sans-Serif" font-size="10.00">nix::BufferedSink</text>
</a>
</g>
</g>
<!-- Node3&#45;&gt;Node2 -->
<g id="edge2_Node000002_Node000003" class="edge">
<title>Node3&#45;&gt;Node2</title>
<g id="a_edge2_Node000002_Node000003"><a xlink:title=" ">
<path fill="none" stroke="#63b8ff" d="M95.14,-115.82C97.15,-103.47 99.61,-88.4 101.18,-78.78"/>
<polygon fill="#63b8ff" stroke="#63b8ff" points="91.72,-115.03 93.57,-125.46 98.63,-116.15 91.72,-115.03"/>
</a>
</g>
</g>
<!-- Node4 -->
<g id="Node000004" class="node">
<title>Node4</title>
<g id="a_Node000004"><a xlink:href="structnix_1_1Sink.html" target="_top" xlink:title=" ">
<polygon fill="white" stroke="#666666" points="120.75,-205.75 62.75,-205.75 62.75,-185 120.75,-185 120.75,-205.75"/>
<text text-anchor="middle" x="91.75" y="-192.25" font-family="Helvetica,sans-Serif" font-size="10.00">nix::Sink</text>
</a>
</g>
</g>
<!-- Node4&#45;&gt;Node1 -->
<g id="edge6_Node000001_Node000004" class="edge">
<title>Node4&#45;&gt;Node1</title>
<g id="a_edge6_Node000001_Node000004"><a xlink:title=" ">
<path fill="none" stroke="#9a32cd" stroke-dasharray="5,2" d="M61.65,-178.55C50.42,-170.94 38.92,-160.69 32.75,-148 11.66,-104.6 29.68,-44.12 38.04,-20.94"/>
<polygon fill="#9a32cd" stroke="#9a32cd" points="59.67,-181.44 70.01,-183.75 63.37,-175.49 59.67,-181.44"/>
</a>
</g>
<text text-anchor="middle" x="46.03" y="-99.75" font-family="Helvetica,sans-Serif" font-size="10.00" fill="grey"> nextSink</text>
</g>
<!-- Node4&#45;&gt;Node3 -->
<g id="edge3_Node000003_Node000004" class="edge">
<title>Node4&#45;&gt;Node3</title>
<g id="a_edge3_Node000003_Node000004"><a xlink:title=" ">
<path fill="none" stroke="#63b8ff" d="M91.75,-173.43C91.75,-164.77 91.75,-155.15 91.75,-148.22"/>
<polygon fill="#63b8ff" stroke="#63b8ff" points="88.25,-173.15 91.75,-183.15 95.25,-173.15 88.25,-173.15"/>
</a>
</g>
</g>
<!-- Node5 -->
<g id="Node000005" class="node">
<title>Node5</title>
<g id="a_Node000005"><a xlink:href="structnix_1_1FinishSink.html" target="_top" xlink:title=" ">
<polygon fill="white" stroke="#bfbfbf" points="246,-148 159.5,-148 159.5,-127.25 246,-127.25 246,-148"/>
<text text-anchor="middle" x="202.75" y="-134.5" font-family="Helvetica,sans-Serif" font-size="10.00">nix::FinishSink</text>
</a>
</g>
</g>
<!-- Node4&#45;&gt;Node5 -->
<g id="edge5_Node000005_Node000004" class="edge">
<title>Node4&#45;&gt;Node5</title>
<g id="a_edge5_Node000005_Node000004"><a xlink:title=" ">
<path fill="none" stroke="#63b8ff" d="M121.59,-179.39C141.2,-169.54 166.3,-156.93 183.36,-148.37"/>
<polygon fill="#63b8ff" stroke="#63b8ff" points="120.06,-176.24 112.69,-183.86 123.2,-182.5 120.06,-176.24"/>
</a>
</g>
</g>
<!-- Node5&#45;&gt;Node2 -->
<g id="edge4_Node000002_Node000005" class="edge">
<title>Node5&#45;&gt;Node2</title>
<g id="a_edge4_Node000002_Node000005"><a xlink:title=" ">
<path fill="none" stroke="#63b8ff" d="M178.9,-120.52C159.76,-107.61 133.52,-89.9 117.38,-79"/>
<polygon fill="#63b8ff" stroke="#63b8ff" points="176.92,-123.41 187.17,-126.11 180.84,-117.61 176.92,-123.41"/>
</a>
</g>
</g>
</g>
</svg>
