<?xml version="1.0" encoding="UTF-8" standalone="no"?>
<!DOCTYPE svg PUBLIC "-//W3C//DTD SVG 1.1//EN"
 "http://www.w3.org/Graphics/SVG/1.1/DTD/svg11.dtd">
<!-- Generated by graphviz version 12.2.1 (0)
 -->
<!-- Title: nix::LegacyArgs Pages: 1 -->
<svg width="565pt" height="168pt"
 viewBox="0.00 0.00 564.75 167.75" xmlns="http://www.w3.org/2000/svg" xmlns:xlink="http://www.w3.org/1999/xlink">
<g id="graph0" class="graph" transform="scale(1 1) rotate(0) translate(4 163.75)">
<title>nix::LegacyArgs</title>
<!-- Node1 -->
<g id="Node000001" class="node">
<title>Node1</title>
<g id="a_Node000001"><a xlink:title=" ">
<polygon fill="#999999" stroke="#666666" points="398.62,-20.75 305.38,-20.75 305.38,0 398.62,0 398.62,-20.75"/>
<text text-anchor="middle" x="352" y="-7.25" font-family="Helvetica,sans-Serif" font-size="10.00">nix::LegacyArgs</text>
</a>
</g>
</g>
<!-- Node2 -->
<g id="Node000002" class="node">
<title>Node2</title>
<g id="a_Node000002"><a xlink:href="classnix_1_1MixCommonArgs.html" target="_top" xlink:title=" ">
<polygon fill="white" stroke="#bfbfbf" points="303.5,-90.25 182.5,-90.25 182.5,-69.5 303.5,-69.5 303.5,-90.25"/>
<text text-anchor="middle" x="243" y="-76.75" font-family="Helvetica,sans-Serif" font-size="10.00">nix::MixCommonArgs</text>
</a>
</g>
</g>
<!-- Node2&#45;&gt;Node1 -->
<g id="edge1_Node000001_Node000002" class="edge">
<title>Node2&#45;&gt;Node1</title>
<g id="a_edge1_Node000001_Node000002"><a xlink:title=" ">
<path fill="none" stroke="#63b8ff" d="M268.14,-63.31C289.06,-50.35 318.21,-32.3 336.06,-21.25"/>
<polygon fill="#63b8ff" stroke="#63b8ff" points="266.56,-60.17 259.9,-68.41 270.25,-66.12 266.56,-60.17"/>
</a>
</g>
</g>
<!-- Node3 -->
<g id="Node000003" class="node">
<title>Node3</title>
<g id="a_Node000003"><a xlink:href="classnix_1_1Args.html" target="_top" xlink:title=" ">
<polygon fill="white" stroke="#bfbfbf" points="150.38,-159.75 91.62,-159.75 91.62,-139 150.38,-139 150.38,-159.75"/>
<text text-anchor="middle" x="121" y="-146.25" font-family="Helvetica,sans-Serif" font-size="10.00">nix::Args</text>
</a>
</g>
</g>
<!-- Node3&#45;&gt;Node2 -->
<g id="edge2_Node000002_Node000003" class="edge">
<title>Node3&#45;&gt;Node2</title>
<g id="a_edge2_Node000002_Node000003"><a xlink:title=" ">
<path fill="none" stroke="#63b8ff" d="M148.78,-133C172.25,-120.02 205.17,-101.8 225.24,-90.7"/>
<polygon fill="#63b8ff" stroke="#63b8ff" points="147.12,-129.92 140.06,-137.83 150.51,-136.05 147.12,-129.92"/>
</a>
</g>
</g>
<!-- Node5 -->
<g id="Node000005" class="node">
<title>Node5</title>
<g id="a_Node000005"><a xlink:href="structnix_1_1Command.html" target="_top" xlink:title=" ">
<polygon fill="white" stroke="#666666" points="164.62,-90.25 77.38,-90.25 77.38,-69.5 164.62,-69.5 164.62,-90.25"/>
<text text-anchor="middle" x="121" y="-76.75" font-family="Helvetica,sans-Serif" font-size="10.00">nix::Command</text>
</a>
</g>
</g>
<!-- Node3&#45;&gt;Node5 -->
<g id="edge5_Node000005_Node000003" class="edge">
<title>Node3&#45;&gt;Node5</title>
<g id="a_edge5_Node000005_Node000003"><a xlink:title=" ">
<path fill="none" stroke="#63b8ff" d="M121,-127.57C121,-115.22 121,-100.15 121,-90.53"/>
<polygon fill="#63b8ff" stroke="#63b8ff" points="117.5,-127.19 121,-137.19 124.5,-127.19 117.5,-127.19"/>
</a>
</g>
</g>
<!-- Node4 -->
<g id="Node000004" class="node">
<title>Node4</title>
<g id="a_Node000004"><a xlink:href="classnix_1_1MultiCommand.html" target="_top" xlink:title=" ">
<polygon fill="white" stroke="#666666" points="112,-20.75 0,-20.75 0,0 112,0 112,-20.75"/>
<text text-anchor="middle" x="56" y="-7.25" font-family="Helvetica,sans-Serif" font-size="10.00">nix::MultiCommand</text>
</a>
</g>
</g>
<!-- Node4&#45;&gt;Node3 -->
<g id="edge3_Node000003_Node000004" class="edge">
<title>Node4&#45;&gt;Node3</title>
<g id="a_edge3_Node000003_Node000004"><a xlink:title=" ">
<path fill="none" stroke="#9a32cd" stroke-dasharray="5,2" d="M42.61,-30.75C32.98,-47.28 23.34,-71.31 33.5,-90.25 46.17,-113.88 73.14,-129.53 93.81,-138.59"/>
<polygon fill="#9a32cd" stroke="#9a32cd" points="45.52,-32.7 47.91,-22.38 39.61,-28.96 45.52,-32.7"/>
</a>
</g>
<text text-anchor="middle" x="50.75" y="-76.75" font-family="Helvetica,sans-Serif" font-size="10.00" fill="grey"> parent</text>
</g>
<!-- Node5&#45;&gt;Node4 -->
<g id="edge4_Node000004_Node000005" class="edge">
<title>Node5&#45;&gt;Node4</title>
<g id="a_edge4_Node000004_Node000005"><a xlink:title=" ">
<path fill="none" stroke="#63b8ff" d="M103.88,-61.09C91.53,-48.27 75.33,-31.45 65.3,-21.03"/>
<polygon fill="#63b8ff" stroke="#63b8ff" points="101.18,-63.34 110.64,-68.11 106.22,-58.48 101.18,-63.34"/>
</a>
</g>
</g>
<!-- Node6 -->
<g id="Node000006" class="node">
<title>Node6</title>
<g id="a_Node000006"><a xlink:title=" ">
<polygon fill="white" stroke="#bfbfbf" points="264.88,-159.75 221.12,-159.75 221.12,-139 264.88,-139 264.88,-159.75"/>
<text text-anchor="middle" x="243" y="-146.25" font-family="Helvetica,sans-Serif" font-size="10.00">string</text>
</a>
</g>
</g>
<!-- Node6&#45;&gt;Node2 -->
<g id="edge6_Node000002_Node000006" class="edge">
<title>Node6&#45;&gt;Node2</title>
<g id="a_edge6_Node000002_Node000006"><a xlink:title=" ">
<path fill="none" stroke="#9a32cd" stroke-dasharray="5,2" d="M243,-127.57C243,-115.22 243,-100.15 243,-90.53"/>
<polygon fill="#9a32cd" stroke="#9a32cd" points="239.5,-127.19 243,-137.19 246.5,-127.19 239.5,-127.19"/>
</a>
</g>
<text text-anchor="middle" x="279.75" y="-111.5" font-family="Helvetica,sans-Serif" font-size="10.00" fill="grey"> programName</text>
</g>
<!-- Node7 -->
<g id="Node000007" class="node">
<title>Node7</title>
<g id="a_Node000007"><a xlink:title=" ">
<polygon fill="white" stroke="#bfbfbf" points="382.12,-90.25 321.88,-90.25 321.88,-69.5 382.12,-69.5 382.12,-90.25"/>
<text text-anchor="middle" x="352" y="-76.75" font-family="Helvetica,sans-Serif" font-size="10.00">RootArgs</text>
</a>
</g>
</g>
<!-- Node7&#45;&gt;Node1 -->
<g id="edge7_Node000001_Node000007" class="edge">
<title>Node7&#45;&gt;Node1</title>
<g id="a_edge7_Node000001_Node000007"><a xlink:title=" ">
<path fill="none" stroke="#63b8ff" d="M352,-58.07C352,-45.72 352,-30.65 352,-21.03"/>
<polygon fill="#63b8ff" stroke="#63b8ff" points="348.5,-57.69 352,-67.69 355.5,-57.69 348.5,-57.69"/>
</a>
</g>
</g>
<!-- Node8 -->
<g id="Node000008" class="node">
<title>Node8</title>
<g id="a_Node000008"><a xlink:href="structnix_1_1AsyncIoRoot.html" target="_top" xlink:title=" ">
<polygon fill="white" stroke="#bfbfbf" points="497.88,-90.25 400.12,-90.25 400.12,-69.5 497.88,-69.5 497.88,-90.25"/>
<text text-anchor="middle" x="449" y="-76.75" font-family="Helvetica,sans-Serif" font-size="10.00">nix::AsyncIoRoot</text>
</a>
</g>
</g>
<!-- Node8&#45;&gt;Node1 -->
<g id="edge8_Node000001_Node000008" class="edge">
<title>Node8&#45;&gt;Node1</title>
<g id="a_edge8_Node000001_Node000008"><a xlink:title=" ">
<path fill="none" stroke="#9a32cd" stroke-dasharray="5,2" d="M425.86,-62.77C407.3,-49.86 381.85,-32.15 366.19,-21.25"/>
<polygon fill="#9a32cd" stroke="#9a32cd" points="423.65,-65.5 433.86,-68.34 427.65,-59.75 423.65,-65.5"/>
</a>
</g>
<text text-anchor="middle" x="420.81" y="-42" font-family="Helvetica,sans-Serif" font-size="10.00" fill="grey"> aio_</text>
</g>
<!-- Node9 -->
<g id="Node000009" class="node">
<title>Node9</title>
<g id="a_Node000009"><a xlink:href="structnix_1_1AsyncContext.html" target="_top" xlink:title=" ">
<polygon fill="white" stroke="#bfbfbf" points="501.25,-159.75 396.75,-159.75 396.75,-139 501.25,-139 501.25,-159.75"/>
<text text-anchor="middle" x="449" y="-146.25" font-family="Helvetica,sans-Serif" font-size="10.00">nix::AsyncContext</text>
</a>
</g>
</g>
<!-- Node9&#45;&gt;Node8 -->
<g id="edge9_Node000008_Node000009" class="edge">
<title>Node9&#45;&gt;Node8</title>
<g id="a_edge9_Node000008_Node000009"><a xlink:title=" ">
<path fill="none" stroke="#9a32cd" stroke-dasharray="5,2" d="M449,-127.57C449,-115.22 449,-100.15 449,-90.53"/>
<polygon fill="#9a32cd" stroke="#9a32cd" points="445.5,-127.19 449,-137.19 452.5,-127.19 445.5,-127.19"/>
</a>
</g>
<text text-anchor="middle" x="468.88" y="-111.5" font-family="Helvetica,sans-Serif" font-size="10.00" fill="grey"> context</text>
</g>
<!-- Node9&#45;&gt;Node9 -->
<g id="edge10_Node000009_Node000009" class="edge">
<title>Node9&#45;&gt;Node9</title>
<g id="a_edge10_Node000009_Node000009"><a xlink:title=" ">
<path fill="none" stroke="#9a32cd" stroke-dasharray="5,2" d="M512.77,-153.96C516.81,-152.89 519.25,-151.36 519.25,-149.38 519.25,-145.95 511.96,-143.87 501.69,-143.15"/>
<polygon fill="#9a32cd" stroke="#9a32cd" points="512.57,-150.46 503.19,-155.38 513.6,-157.38 512.57,-150.46"/>
</a>
</g>
<text text-anchor="middle" x="538" y="-146.25" font-family="Helvetica,sans-Serif" font-size="10.00" fill="grey"> current</text>
</g>
</g>
</svg>
