<?xml version="1.0" encoding="UTF-8" standalone="no"?>
<!DOCTYPE svg PUBLIC "-//W3C//DTD SVG 1.1//EN"
 "http://www.w3.org/Graphics/SVG/1.1/DTD/svg11.dtd">
<!-- Generated by graphviz version 12.2.1 (0)
 -->
<!-- Title: nix::ProfileElementSource Pages: 1 -->
<svg width="364pt" height="181pt"
 viewBox="0.00 0.00 363.88 180.50" xmlns="http://www.w3.org/2000/svg" xmlns:xlink="http://www.w3.org/1999/xlink">
<g id="graph0" class="graph" transform="scale(1 1) rotate(0) translate(4 176.5)">
<title>nix::ProfileElementSource</title>
<!-- Node1 -->
<g id="Node000001" class="node">
<title>Node1</title>
<g id="a_Node000001"><a xlink:title=" ">
<polygon fill="#999999" stroke="#666666" points="223.38,-20.75 82.12,-20.75 82.12,0 223.38,0 223.38,-20.75"/>
<text text-anchor="middle" x="152.75" y="-7.25" font-family="Helvetica,sans-Serif" font-size="10.00">nix::ProfileElementSource</text>
</a>
</g>
</g>
<!-- Node2 -->
<g id="Node000002" class="node">
<title>Node2</title>
<g id="a_Node000002"><a xlink:href="structnix_1_1FlakeRef.html" target="_top" xlink:title=" ">
<polygon fill="white" stroke="#666666" points="116.62,-103 36.88,-103 36.88,-82.25 116.62,-82.25 116.62,-103"/>
<text text-anchor="middle" x="76.75" y="-89.5" font-family="Helvetica,sans-Serif" font-size="10.00">nix::FlakeRef</text>
</a>
</g>
</g>
<!-- Node2&#45;&gt;Node1 -->
<g id="edge1_Node000001_Node000002" class="edge">
<title>Node2&#45;&gt;Node1</title>
<g id="a_edge1_Node000001_Node000002"><a xlink:title=" ">
<path fill="none" stroke="#9a32cd" stroke-dasharray="5,2" d="M75.61,-70.67C76.09,-60.08 78.4,-47.63 85.5,-38.75 91.79,-30.87 100.72,-25.24 110.02,-21.23"/>
<polygon fill="#9a32cd" stroke="#9a32cd" points="72.1,-70.43 75.69,-80.4 79.1,-70.37 72.1,-70.43"/>
</a>
</g>
<text text-anchor="middle" x="112.12" y="-54.75" font-family="Helvetica,sans-Serif" font-size="10.00" fill="grey"> lockedRef</text>
<text text-anchor="middle" x="112.12" y="-42" font-family="Helvetica,sans-Serif" font-size="10.00" fill="grey">originalRef</text>
</g>
<!-- Node3 -->
<g id="Node000003" class="node">
<title>Node3</title>
<g id="a_Node000003"><a xlink:href="structnix_1_1fetchers_1_1Input.html" target="_top" xlink:title=" ">
<polygon fill="white" stroke="#666666" points="107.5,-172.5 0,-172.5 0,-151.75 107.5,-151.75 107.5,-172.5"/>
<text text-anchor="middle" x="53.75" y="-159" font-family="Helvetica,sans-Serif" font-size="10.00">nix::fetchers::Input</text>
</a>
</g>
</g>
<!-- Node3&#45;&gt;Node2 -->
<g id="edge2_Node000002_Node000003" class="edge">
<title>Node3&#45;&gt;Node2</title>
<g id="a_edge2_Node000002_Node000003"><a xlink:title=" ">
<path fill="none" stroke="#9a32cd" stroke-dasharray="5,2" d="M51.91,-140.36C52,-133.99 52.78,-127.06 55,-121 57.42,-114.39 62.12,-108.15 66.52,-103.3"/>
<polygon fill="#9a32cd" stroke="#9a32cd" points="48.4,-140.21 52.33,-150.05 55.4,-139.91 48.4,-140.21"/>
</a>
</g>
<text text-anchor="middle" x="68.88" y="-124.25" font-family="Helvetica,sans-Serif" font-size="10.00" fill="grey"> input</text>
</g>
<!-- Node4 -->
<g id="Node000004" class="node">
<title>Node4</title>
<g id="a_Node000004"><a xlink:title=" ">
<polygon fill="white" stroke="#bfbfbf" points="171.62,-172.5 127.88,-172.5 127.88,-151.75 171.62,-151.75 171.62,-172.5"/>
<text text-anchor="middle" x="149.75" y="-159" font-family="Helvetica,sans-Serif" font-size="10.00">string</text>
</a>
</g>
</g>
<!-- Node4&#45;&gt;Node1 -->
<g id="edge4_Node000001_Node000004" class="edge">
<title>Node4&#45;&gt;Node1</title>
<g id="a_edge4_Node000001_Node000004"><a xlink:title=" ">
<path fill="none" stroke="#9a32cd" stroke-dasharray="5,2" d="M150.18,-139.88C150.84,-106.95 152.08,-44.89 152.56,-21.04"/>
<polygon fill="#9a32cd" stroke="#9a32cd" points="146.68,-139.72 149.98,-149.79 153.68,-139.86 146.68,-139.72"/>
</a>
</g>
<text text-anchor="middle" x="171.92" y="-89.5" font-family="Helvetica,sans-Serif" font-size="10.00" fill="grey"> attrPath</text>
</g>
<!-- Node4&#45;&gt;Node2 -->
<g id="edge3_Node000002_Node000004" class="edge">
<title>Node4&#45;&gt;Node2</title>
<g id="a_edge3_Node000002_Node000004"><a xlink:title=" ">
<path fill="none" stroke="#9a32cd" stroke-dasharray="5,2" d="M121.11,-145.57C115.73,-142.04 110.35,-138.05 105.75,-133.75 96.07,-124.72 87.54,-112.03 82.28,-103.36"/>
<polygon fill="#9a32cd" stroke="#9a32cd" points="118.99,-148.38 129.35,-150.62 122.65,-142.41 118.99,-148.38"/>
</a>
</g>
<text text-anchor="middle" x="122.25" y="-124.25" font-family="Helvetica,sans-Serif" font-size="10.00" fill="grey"> subdir</text>
</g>
<!-- Node5 -->
<g id="Node000005" class="node">
<title>Node5</title>
<g id="a_Node000005"><a xlink:href="structnix_1_1ExtendedOutputsSpec.html" target="_top" xlink:title=" ">
<polygon fill="white" stroke="#bfbfbf" points="355.88,-103 211.62,-103 211.62,-82.25 355.88,-82.25 355.88,-103"/>
<text text-anchor="middle" x="283.75" y="-89.5" font-family="Helvetica,sans-Serif" font-size="10.00">nix::ExtendedOutputsSpec</text>
</a>
</g>
</g>
<!-- Node5&#45;&gt;Node1 -->
<g id="edge5_Node000001_Node000005" class="edge">
<title>Node5&#45;&gt;Node1</title>
<g id="a_edge5_Node000001_Node000005"><a xlink:title=" ">
<path fill="none" stroke="#9a32cd" stroke-dasharray="5,2" d="M257.91,-75.79C231.3,-59.5 190.7,-34.62 168.54,-21.05"/>
<polygon fill="#9a32cd" stroke="#9a32cd" points="256.04,-78.75 266.4,-80.99 259.7,-72.79 256.04,-78.75"/>
</a>
</g>
<text text-anchor="middle" x="257.51" y="-48.38" font-family="Helvetica,sans-Serif" font-size="10.00" fill="grey"> outputs</text>
</g>
</g>
</svg>
