<?xml version="1.0" encoding="UTF-8" standalone="no"?>
<!DOCTYPE svg PUBLIC "-//W3C//DTD SVG 1.1//EN"
 "http://www.w3.org/Graphics/SVG/1.1/DTD/svg11.dtd">
<!-- Generated by graphviz version 12.2.1 (0)
 -->
<!-- Title: nix::DerivationOutput::CAFixed Pages: 1 -->
<svg width="297pt" height="181pt"
 viewBox="0.00 0.00 296.88 180.50" xmlns="http://www.w3.org/2000/svg" xmlns:xlink="http://www.w3.org/1999/xlink">
<g id="graph0" class="graph" transform="scale(1 1) rotate(0) translate(4 176.5)">
<title>nix::DerivationOutput::CAFixed</title>
<!-- Node1 -->
<g id="Node000001" class="node">
<title>Node1</title>
<g id="a_Node000001"><a xlink:title=" ">
<polygon fill="#999999" stroke="#666666" points="168,-33.5 47,-33.5 47,0 168,0 168,-33.5"/>
<text text-anchor="start" x="55" y="-20" font-family="Helvetica,sans-Serif" font-size="10.00">nix::DerivationOutput</text>
<text text-anchor="middle" x="107.5" y="-7.25" font-family="Helvetica,sans-Serif" font-size="10.00">::CAFixed</text>
</a>
</g>
</g>
<!-- Node2 -->
<g id="Node000002" class="node">
<title>Node2</title>
<g id="a_Node000002"><a xlink:href="structnix_1_1ContentAddress.html" target="_top" xlink:title=" ">
<polygon fill="white" stroke="#666666" points="164.62,-103 50.38,-103 50.38,-82.25 164.62,-82.25 164.62,-103"/>
<text text-anchor="middle" x="107.5" y="-89.5" font-family="Helvetica,sans-Serif" font-size="10.00">nix::ContentAddress</text>
</a>
</g>
</g>
<!-- Node2&#45;&gt;Node1 -->
<g id="edge1_Node000001_Node000002" class="edge">
<title>Node2&#45;&gt;Node1</title>
<g id="a_edge1_Node000001_Node000002"><a xlink:title=" ">
<path fill="none" stroke="#9a32cd" stroke-dasharray="5,2" d="M107.5,-70.63C107.5,-58.97 107.5,-44.69 107.5,-33.91"/>
<polygon fill="#9a32cd" stroke="#9a32cd" points="104,-70.45 107.5,-80.45 111,-70.45 104,-70.45"/>
</a>
</g>
<text text-anchor="middle" x="114.62" y="-54.75" font-family="Helvetica,sans-Serif" font-size="10.00" fill="grey"> ca</text>
</g>
<!-- Node3 -->
<g id="Node000003" class="node">
<title>Node3</title>
<g id="a_Node000003"><a xlink:href="structnix_1_1ContentAddressMethod.html" target="_top" xlink:title=" ">
<polygon fill="white" stroke="#666666" points="151,-172.5 0,-172.5 0,-151.75 151,-151.75 151,-172.5"/>
<text text-anchor="middle" x="75.5" y="-159" font-family="Helvetica,sans-Serif" font-size="10.00">nix::ContentAddressMethod</text>
</a>
</g>
</g>
<!-- Node3&#45;&gt;Node2 -->
<g id="edge2_Node000002_Node000003" class="edge">
<title>Node3&#45;&gt;Node2</title>
<g id="a_edge2_Node000002_Node000003"><a xlink:title=" ">
<path fill="none" stroke="#9a32cd" stroke-dasharray="5,2" d="M85,-141.08C90.92,-128.6 98.27,-113.1 102.92,-103.28"/>
<polygon fill="#9a32cd" stroke="#9a32cd" points="81.85,-139.55 80.73,-150.09 88.18,-142.55 81.85,-139.55"/>
</a>
</g>
<text text-anchor="middle" x="114.62" y="-124.25" font-family="Helvetica,sans-Serif" font-size="10.00" fill="grey"> method</text>
</g>
<!-- Node4 -->
<g id="Node000004" class="node">
<title>Node4</title>
<g id="a_Node000004"><a xlink:href="structnix_1_1Hash.html" target="_top" xlink:title=" ">
<polygon fill="white" stroke="#bfbfbf" points="230.38,-172.5 168.62,-172.5 168.62,-151.75 230.38,-151.75 230.38,-172.5"/>
<text text-anchor="middle" x="199.5" y="-159" font-family="Helvetica,sans-Serif" font-size="10.00">nix::Hash</text>
</a>
</g>
</g>
<!-- Node4&#45;&gt;Node2 -->
<g id="edge3_Node000002_Node000004" class="edge">
<title>Node4&#45;&gt;Node2</title>
<g id="a_edge3_Node000002_Node000004"><a xlink:title=" ">
<path fill="none" stroke="#9a32cd" stroke-dasharray="5,2" d="M177.31,-144.84C159.73,-131.95 135.74,-114.35 120.96,-103.5"/>
<polygon fill="#9a32cd" stroke="#9a32cd" points="174.97,-147.46 185.1,-150.56 179.11,-141.82 174.97,-147.46"/>
</a>
</g>
<text text-anchor="middle" x="174.87" y="-124.25" font-family="Helvetica,sans-Serif" font-size="10.00" fill="grey"> hash</text>
</g>
<!-- Node4&#45;&gt;Node4 -->
<g id="edge4_Node000004_Node000004" class="edge">
<title>Node4&#45;&gt;Node4</title>
<g id="a_edge4_Node000004_Node000004"><a xlink:title=" ">
<path fill="none" stroke="#9a32cd" stroke-dasharray="5,2" d="M241.92,-167.34C245.88,-166.27 248.38,-164.53 248.38,-162.12 248.38,-157.85 240.48,-155.68 230.52,-155.61"/>
<polygon fill="#9a32cd" stroke="#9a32cd" points="241.57,-163.86 232.03,-168.47 242.36,-170.82 241.57,-163.86"/>
</a>
</g>
<text text-anchor="middle" x="268.62" y="-159" font-family="Helvetica,sans-Serif" font-size="10.00" fill="grey"> dummy</text>
</g>
</g>
</svg>
