<?xml version="1.0" encoding="UTF-8" standalone="no"?>
<!DOCTYPE svg PUBLIC "-//W3C//DTD SVG 1.1//EN"
 "http://www.w3.org/Graphics/SVG/1.1/DTD/svg11.dtd">
<!-- Generated by graphviz version 12.2.1 (0)
 -->
<!-- Title: nix::Pattern Pages: 1 -->
<svg width="226pt" height="86pt"
 viewBox="0.00 0.00 226.00 85.50" xmlns="http://www.w3.org/2000/svg" xmlns:xlink="http://www.w3.org/1999/xlink">
<g id="graph0" class="graph" transform="scale(1 1) rotate(0) translate(4 81.5)">
<title>nix::Pattern</title>
<!-- Node1 -->
<g id="Node000001" class="node">
<title>Node1</title>
<g id="a_Node000001"><a xlink:title=" ">
<polygon fill="#999999" stroke="#666666" points="142.12,-77.5 70.62,-77.5 70.62,-56.75 142.12,-56.75 142.12,-77.5"/>
<text text-anchor="middle" x="106.38" y="-64" font-family="Helvetica,sans-Serif" font-size="10.00">nix::Pattern</text>
</a>
</g>
</g>
<!-- Node2 -->
<g id="Node000002" class="node">
<title>Node2</title>
<g id="a_Node000002"><a xlink:href="structnix_1_1AttrsPattern.html" target="_top" xlink:title=" ">
<polygon fill="white" stroke="#666666" points="94.75,-20.75 0,-20.75 0,0 94.75,0 94.75,-20.75"/>
<text text-anchor="middle" x="47.38" y="-7.25" font-family="Helvetica,sans-Serif" font-size="10.00">nix::AttrsPattern</text>
</a>
</g>
</g>
<!-- Node1&#45;&gt;Node2 -->
<g id="edge1_Node000001_Node000002" class="edge">
<title>Node1&#45;&gt;Node2</title>
<g id="a_edge1_Node000001_Node000002"><a xlink:title=" ">
<path fill="none" stroke="#63b8ff" d="M87.47,-48.58C77.65,-39.47 66.03,-28.68 57.83,-21.08"/>
<polygon fill="#63b8ff" stroke="#63b8ff" points="85.01,-51.07 94.72,-55.31 89.77,-45.94 85.01,-51.07"/>
</a>
</g>
</g>
<!-- Node3 -->
<g id="Node000003" class="node">
<title>Node3</title>
<g id="a_Node000003"><a xlink:href="structnix_1_1SimplePattern.html" target="_top" xlink:title=" ">
<polygon fill="white" stroke="#666666" points="218,-20.75 112.75,-20.75 112.75,0 218,0 218,-20.75"/>
<text text-anchor="middle" x="165.38" y="-7.25" font-family="Helvetica,sans-Serif" font-size="10.00">nix::SimplePattern</text>
</a>
</g>
</g>
<!-- Node1&#45;&gt;Node3 -->
<g id="edge2_Node000001_Node000003" class="edge">
<title>Node1&#45;&gt;Node3</title>
<g id="a_edge2_Node000001_Node000003"><a xlink:title=" ">
<path fill="none" stroke="#63b8ff" d="M125.28,-48.58C135.1,-39.47 146.72,-28.68 154.92,-21.08"/>
<polygon fill="#63b8ff" stroke="#63b8ff" points="122.98,-45.94 118.03,-55.31 127.74,-51.07 122.98,-45.94"/>
</a>
</g>
</g>
</g>
</svg>
