<?xml version="1.0" encoding="UTF-8" standalone="no"?>
<!DOCTYPE svg PUBLIC "-//W3C//DTD SVG 1.1//EN"
 "http://www.w3.org/Graphics/SVG/1.1/DTD/svg11.dtd">
<!-- Generated by graphviz version 12.2.1 (0)
 -->
<!-- Title: nix::AttrsPattern::Formal Pages: 1 -->
<svg width="170pt" height="111pt"
 viewBox="0.00 0.00 169.50 111.00" xmlns="http://www.w3.org/2000/svg" xmlns:xlink="http://www.w3.org/1999/xlink">
<g id="graph0" class="graph" transform="scale(1 1) rotate(0) translate(4 107)">
<title>nix::AttrsPattern::Formal</title>
<!-- Node1 -->
<g id="Node000001" class="node">
<title>Node1</title>
<g id="a_Node000001"><a xlink:title=" ">
<polygon fill="#999999" stroke="#666666" points="130,-33.5 29.25,-33.5 29.25,0 130,0 130,-33.5"/>
<text text-anchor="start" x="37.25" y="-20" font-family="Helvetica,sans-Serif" font-size="10.00">nix::AttrsPattern::</text>
<text text-anchor="middle" x="79.62" y="-7.25" font-family="Helvetica,sans-Serif" font-size="10.00">Formal</text>
</a>
</g>
</g>
<!-- Node2 -->
<g id="Node000002" class="node">
<title>Node2</title>
<g id="a_Node000002"><a xlink:href="classnix_1_1PosIdx.html" target="_top" xlink:title=" ">
<polygon fill="white" stroke="#bfbfbf" points="69.25,-103 0,-103 0,-82.25 69.25,-82.25 69.25,-103"/>
<text text-anchor="middle" x="34.62" y="-89.5" font-family="Helvetica,sans-Serif" font-size="10.00">nix::PosIdx</text>
</a>
</g>
</g>
<!-- Node2&#45;&gt;Node1 -->
<g id="edge1_Node000001_Node000002" class="edge">
<title>Node2&#45;&gt;Node1</title>
<g id="a_edge1_Node000001_Node000002"><a xlink:title=" ">
<path fill="none" stroke="#9a32cd" stroke-dasharray="5,2" d="M46.29,-72.47C53.58,-60.5 62.87,-45.26 69.78,-33.91"/>
<polygon fill="#9a32cd" stroke="#9a32cd" points="43.51,-70.31 41.3,-80.67 49.49,-73.95 43.51,-70.31"/>
</a>
</g>
<text text-anchor="middle" x="68.6" y="-54.75" font-family="Helvetica,sans-Serif" font-size="10.00" fill="grey"> pos</text>
</g>
<!-- Node3 -->
<g id="Node000003" class="node">
<title>Node3</title>
<g id="a_Node000003"><a xlink:href="classnix_1_1Symbol.html" target="_top" xlink:title=" ">
<polygon fill="white" stroke="#666666" points="161.5,-103 87.75,-103 87.75,-82.25 161.5,-82.25 161.5,-103"/>
<text text-anchor="middle" x="124.62" y="-89.5" font-family="Helvetica,sans-Serif" font-size="10.00">nix::Symbol</text>
</a>
</g>
</g>
<!-- Node3&#45;&gt;Node1 -->
<g id="edge2_Node000001_Node000003" class="edge">
<title>Node3&#45;&gt;Node1</title>
<g id="a_edge2_Node000001_Node000003"><a xlink:title=" ">
<path fill="none" stroke="#9a32cd" stroke-dasharray="5,2" d="M112.96,-72.47C105.67,-60.5 96.38,-45.26 89.47,-33.91"/>
<polygon fill="#9a32cd" stroke="#9a32cd" points="109.76,-73.95 117.95,-80.67 115.74,-70.31 109.76,-73.95"/>
</a>
</g>
<text text-anchor="middle" x="122.85" y="-54.75" font-family="Helvetica,sans-Serif" font-size="10.00" fill="grey"> name</text>
</g>
</g>
</svg>
