<?xml version="1.0" encoding="UTF-8" standalone="no"?>
<!DOCTYPE svg PUBLIC "-//W3C//DTD SVG 1.1//EN"
 "http://www.w3.org/Graphics/SVG/1.1/DTD/svg11.dtd">
<!-- Generated by graphviz version 12.2.1 (0)
 -->
<!-- Title: nix::Args::Flag Pages: 1 -->
<svg width="172pt" height="124pt"
 viewBox="0.00 0.00 172.38 123.75" xmlns="http://www.w3.org/2000/svg" xmlns:xlink="http://www.w3.org/1999/xlink">
<g id="graph0" class="graph" transform="scale(1 1) rotate(0) translate(4 119.75)">
<title>nix::Args::Flag</title>
<!-- Node1 -->
<g id="Node000001" class="node">
<title>Node1</title>
<g id="a_Node000001"><a xlink:title=" ">
<polygon fill="#999999" stroke="#666666" points="109.75,-20.75 24,-20.75 24,0 109.75,0 109.75,-20.75"/>
<text text-anchor="middle" x="66.88" y="-7.25" font-family="Helvetica,sans-Serif" font-size="10.00">nix::Args::Flag</text>
</a>
</g>
</g>
<!-- Node2 -->
<g id="Node000002" class="node">
<title>Node2</title>
<g id="a_Node000002"><a xlink:title=" ">
<polygon fill="white" stroke="#bfbfbf" points="43.75,-115.75 0,-115.75 0,-95 43.75,-95 43.75,-115.75"/>
<text text-anchor="middle" x="21.88" y="-102.25" font-family="Helvetica,sans-Serif" font-size="10.00">string</text>
</a>
</g>
</g>
<!-- Node2&#45;&gt;Node1 -->
<g id="edge1_Node000001_Node000002" class="edge">
<title>Node2&#45;&gt;Node1</title>
<g id="a_edge1_Node000001_Node000002"><a xlink:title=" ">
<path fill="none" stroke="#9a32cd" stroke-dasharray="5,2" d="M23.38,-83.77C25.12,-70.22 28.85,-52.51 36.88,-38.75 40.85,-31.93 47.09,-25.84 52.85,-21.14"/>
<polygon fill="#9a32cd" stroke="#9a32cd" points="19.94,-83.01 22.44,-93.31 26.91,-83.71 19.94,-83.01"/>
</a>
</g>
<text text-anchor="middle" x="63.88" y="-67.5" font-family="Helvetica,sans-Serif" font-size="10.00" fill="grey"> category</text>
<text text-anchor="middle" x="63.88" y="-54.75" font-family="Helvetica,sans-Serif" font-size="10.00" fill="grey">description</text>
<text text-anchor="middle" x="63.88" y="-42" font-family="Helvetica,sans-Serif" font-size="10.00" fill="grey">longName</text>
</g>
<!-- Node3 -->
<g id="Node000003" class="node">
<title>Node3</title>
<g id="a_Node000003"><a xlink:href="structnix_1_1Args_1_1Handler.html" target="_top" xlink:title=" ">
<polygon fill="white" stroke="#666666" points="164.38,-115.75 61.38,-115.75 61.38,-95 164.38,-95 164.38,-115.75"/>
<text text-anchor="middle" x="112.88" y="-102.25" font-family="Helvetica,sans-Serif" font-size="10.00">nix::Args::Handler</text>
</a>
</g>
</g>
<!-- Node3&#45;&gt;Node1 -->
<g id="edge2_Node000001_Node000003" class="edge">
<title>Node3&#45;&gt;Node1</title>
<g id="a_edge2_Node000001_Node000003"><a xlink:title=" ">
<path fill="none" stroke="#9a32cd" stroke-dasharray="5,2" d="M108.17,-83.6C104.61,-70.23 98.94,-52.79 90.88,-38.75 87.16,-32.28 81.77,-25.96 77.04,-21.03"/>
<polygon fill="#9a32cd" stroke="#9a32cd" points="104.71,-84.18 110.5,-93.06 111.51,-82.51 104.71,-84.18"/>
</a>
</g>
<text text-anchor="middle" x="126.12" y="-54.75" font-family="Helvetica,sans-Serif" font-size="10.00" fill="grey"> handler</text>
</g>
</g>
</svg>
