<?xml version="1.0" encoding="UTF-8" standalone="no"?>
<!DOCTYPE svg PUBLIC "-//W3C//DTD SVG 1.1//EN"
 "http://www.w3.org/Graphics/SVG/1.1/DTD/svg11.dtd">
<!-- Generated by graphviz version 12.2.1 (0)
 -->
<!-- Title: nix::CmdRegistryAdd Pages: 1 -->
<svg width="319pt" height="199pt"
 viewBox="0.00 0.00 318.75 199.00" xmlns="http://www.w3.org/2000/svg" xmlns:xlink="http://www.w3.org/1999/xlink">
<g id="graph0" class="graph" transform="scale(1 1) rotate(0) translate(4 195)">
<title>nix::CmdRegistryAdd</title>
<!-- Node1 -->
<g id="Node000001" class="node">
<title>Node1</title>
<g id="a_Node000001"><a xlink:title=" ">
<polygon fill="#999999" stroke="#666666" points="219.25,-20.75 100.5,-20.75 100.5,0 219.25,0 219.25,-20.75"/>
<text text-anchor="middle" x="159.88" y="-7.25" font-family="Helvetica,sans-Serif" font-size="10.00">nix::CmdRegistryAdd</text>
</a>
</g>
</g>
<!-- Node2 -->
<g id="Node000002" class="node">
<title>Node2</title>
<g id="a_Node000002"><a xlink:href="structnix_1_1MixEvalArgs.html" target="_top" xlink:title=" ">
<polygon fill="white" stroke="#bfbfbf" points="97.75,-77.5 0,-77.5 0,-56.75 97.75,-56.75 97.75,-77.5"/>
<text text-anchor="middle" x="48.88" y="-64" font-family="Helvetica,sans-Serif" font-size="10.00">nix::MixEvalArgs</text>
</a>
</g>
</g>
<!-- Node2&#45;&gt;Node1 -->
<g id="edge1_Node000001_Node000002" class="edge">
<title>Node2&#45;&gt;Node1</title>
<g id="a_edge1_Node000001_Node000002"><a xlink:title=" ">
<path fill="none" stroke="#63b8ff" d="M78.91,-51.31C98.39,-41.7 123.21,-29.46 140.2,-21.08"/>
<polygon fill="#63b8ff" stroke="#63b8ff" points="77.5,-48.1 70.08,-55.67 80.59,-54.38 77.5,-48.1"/>
</a>
</g>
</g>
<!-- Node3 -->
<g id="Node000003" class="node">
<title>Node3</title>
<g id="a_Node000003"><a xlink:href="classnix_1_1Args.html" target="_top" xlink:title=" ">
<polygon fill="white" stroke="#bfbfbf" points="148.25,-191 89.5,-191 89.5,-170.25 148.25,-170.25 148.25,-191"/>
<text text-anchor="middle" x="118.88" y="-177.5" font-family="Helvetica,sans-Serif" font-size="10.00">nix::Args</text>
</a>
</g>
</g>
<!-- Node3&#45;&gt;Node2 -->
<g id="edge2_Node000002_Node000003" class="edge">
<title>Node3&#45;&gt;Node2</title>
<g id="a_edge2_Node000002_Node000003"><a xlink:title=" ">
<path fill="none" stroke="#63b8ff" d="M78.44,-168.91C60.92,-162.04 42.11,-151.14 31.88,-134.25 20.94,-116.21 33.43,-91.29 42.06,-77.78"/>
<polygon fill="#63b8ff" stroke="#63b8ff" points="77.07,-172.13 87.66,-172.17 79.41,-165.54 77.07,-172.13"/>
</a>
</g>
</g>
<!-- Node4 -->
<g id="Node000004" class="node">
<title>Node4</title>
<g id="a_Node000004"><a xlink:href="structnix_1_1MixRepair.html" target="_top" xlink:title=" ">
<polygon fill="white" stroke="#bfbfbf" points="127.12,-134.25 40.62,-134.25 40.62,-113.5 127.12,-113.5 127.12,-134.25"/>
<text text-anchor="middle" x="83.88" y="-120.75" font-family="Helvetica,sans-Serif" font-size="10.00">nix::MixRepair</text>
</a>
</g>
</g>
<!-- Node3&#45;&gt;Node4 -->
<g id="edge4_Node000004_Node000003" class="edge">
<title>Node3&#45;&gt;Node4</title>
<g id="a_edge4_Node000004_Node000003"><a xlink:title=" ">
<path fill="none" stroke="#63b8ff" d="M106.58,-160.39C101,-151.66 94.64,-141.72 90.08,-134.58"/>
<polygon fill="#63b8ff" stroke="#63b8ff" points="103.47,-162.02 111.8,-168.56 109.37,-158.25 103.47,-162.02"/>
</a>
</g>
</g>
<!-- Node5 -->
<g id="Node000005" class="node">
<title>Node5</title>
<g id="a_Node000005"><a xlink:href="structnix_1_1Command.html" target="_top" xlink:title=" ">
<polygon fill="white" stroke="#666666" points="203.5,-77.5 116.25,-77.5 116.25,-56.75 203.5,-56.75 203.5,-77.5"/>
<text text-anchor="middle" x="159.88" y="-64" font-family="Helvetica,sans-Serif" font-size="10.00">nix::Command</text>
</a>
</g>
</g>
<!-- Node3&#45;&gt;Node5 -->
<g id="edge6_Node000005_Node000003" class="edge">
<title>Node3&#45;&gt;Node5</title>
<g id="a_edge6_Node000005_Node000003"><a xlink:title=" ">
<path fill="none" stroke="#63b8ff" d="M126.57,-159.22C129.5,-151.42 132.86,-142.43 135.88,-134.25 143.23,-114.31 151.67,-90.93 156.33,-78"/>
<polygon fill="#63b8ff" stroke="#63b8ff" points="123.33,-157.89 123.08,-168.48 129.88,-160.36 123.33,-157.89"/>
</a>
</g>
</g>
<!-- Node6 -->
<g id="Node000006" class="node">
<title>Node6</title>
<g id="a_Node000006"><a xlink:href="classnix_1_1RegistryCommand.html" target="_top" xlink:title=" ">
<polygon fill="white" stroke="#bfbfbf" points="310.75,-134.25 183,-134.25 183,-113.5 310.75,-113.5 310.75,-134.25"/>
<text text-anchor="middle" x="246.88" y="-120.75" font-family="Helvetica,sans-Serif" font-size="10.00">nix::RegistryCommand</text>
</a>
</g>
</g>
<!-- Node3&#45;&gt;Node6 -->
<g id="edge8_Node000006_Node000003" class="edge">
<title>Node3&#45;&gt;Node6</title>
<g id="a_edge8_Node000006_Node000003"><a xlink:title=" ">
<path fill="none" stroke="#63b8ff" d="M152.27,-165.34C174.9,-155.66 204.23,-143.12 224.19,-134.58"/>
<polygon fill="#63b8ff" stroke="#63b8ff" points="150.97,-162.09 143.15,-169.24 153.72,-168.53 150.97,-162.09"/>
</a>
</g>
</g>
<!-- Node4&#45;&gt;Node2 -->
<g id="edge3_Node000002_Node000004" class="edge">
<title>Node4&#45;&gt;Node2</title>
<g id="a_edge3_Node000002_Node000004"><a xlink:title=" ">
<path fill="none" stroke="#63b8ff" d="M71.58,-103.64C66,-94.91 59.64,-84.97 55.08,-77.83"/>
<polygon fill="#63b8ff" stroke="#63b8ff" points="68.47,-105.27 76.8,-111.81 74.37,-101.5 68.47,-105.27"/>
</a>
</g>
</g>
<!-- Node5&#45;&gt;Node1 -->
<g id="edge5_Node000001_Node000005" class="edge">
<title>Node5&#45;&gt;Node1</title>
<g id="a_edge5_Node000001_Node000005"><a xlink:title=" ">
<path fill="none" stroke="#63b8ff" d="M159.88,-44.88C159.88,-36.66 159.88,-27.68 159.88,-21.08"/>
<polygon fill="#63b8ff" stroke="#63b8ff" points="156.38,-44.82 159.88,-54.82 163.38,-44.82 156.38,-44.82"/>
</a>
</g>
</g>
<!-- Node6&#45;&gt;Node1 -->
<g id="edge7_Node000001_Node000006" class="edge">
<title>Node6&#45;&gt;Node1</title>
<g id="a_edge7_Node000001_Node000006"><a xlink:title=" ">
<path fill="none" stroke="#63b8ff" d="M239.04,-102.9C233.08,-89.13 224.01,-70.83 212.88,-56.75 201.61,-42.5 185.35,-29.37 173.82,-20.94"/>
<polygon fill="#63b8ff" stroke="#63b8ff" points="235.67,-103.91 242.72,-111.82 242.14,-101.24 235.67,-103.91"/>
</a>
</g>
</g>
</g>
</svg>
