<?xml version="1.0" encoding="UTF-8" standalone="no"?>
<!DOCTYPE svg PUBLIC "-//W3C//DTD SVG 1.1//EN"
 "http://www.w3.org/Graphics/SVG/1.1/DTD/svg11.dtd">
<!-- Generated by graphviz version 12.2.1 (0)
 -->
<!-- Title: nix::CmdKeyGenerateSecret Pages: 1 -->
<svg width="307pt" height="156pt"
 viewBox="0.00 0.00 307.00 156.00" xmlns="http://www.w3.org/2000/svg" xmlns:xlink="http://www.w3.org/1999/xlink">
<g id="graph0" class="graph" transform="scale(1 1) rotate(0) translate(4 152)">
<title>nix::CmdKeyGenerateSecret</title>
<!-- Node1 -->
<g id="Node000001" class="node">
<title>Node1</title>
<g id="a_Node000001"><a xlink:title=" ">
<polygon fill="#999999" stroke="#666666" points="153.25,-90.25 0,-90.25 0,-69.5 153.25,-69.5 153.25,-90.25"/>
<text text-anchor="middle" x="76.62" y="-76.75" font-family="Helvetica,sans-Serif" font-size="10.00">nix::CmdKeyGenerateSecret</text>
</a>
</g>
</g>
<!-- Node2 -->
<g id="Node000002" class="node">
<title>Node2</title>
<g id="a_Node000002"><a xlink:href="structnix_1_1Command.html" target="_top" xlink:title=" ">
<polygon fill="white" stroke="#666666" points="271.25,-148 184,-148 184,-127.25 271.25,-127.25 271.25,-148"/>
<text text-anchor="middle" x="227.62" y="-134.5" font-family="Helvetica,sans-Serif" font-size="10.00">nix::Command</text>
</a>
</g>
</g>
<!-- Node2&#45;&gt;Node1 -->
<g id="edge1_Node000001_Node000002" class="edge">
<title>Node2&#45;&gt;Node1</title>
<g id="a_edge1_Node000001_Node000002"><a xlink:title=" ">
<path fill="none" stroke="#63b8ff" d="M190.37,-122.87C163.34,-112.89 127.44,-99.64 103.26,-90.71"/>
<polygon fill="#63b8ff" stroke="#63b8ff" points="188.96,-126.08 199.56,-126.26 191.39,-119.52 188.96,-126.08"/>
</a>
</g>
</g>
<!-- Node4 -->
<g id="Node000004" class="node">
<title>Node4</title>
<g id="a_Node000004"><a xlink:href="classnix_1_1MultiCommand.html" target="_top" xlink:title=" ">
<polygon fill="white" stroke="#666666" points="283.62,-90.25 171.62,-90.25 171.62,-69.5 283.62,-69.5 283.62,-90.25"/>
<text text-anchor="middle" x="227.62" y="-76.75" font-family="Helvetica,sans-Serif" font-size="10.00">nix::MultiCommand</text>
</a>
</g>
</g>
<!-- Node2&#45;&gt;Node4 -->
<g id="edge4_Node000004_Node000002" class="edge">
<title>Node2&#45;&gt;Node4</title>
<g id="a_edge4_Node000004_Node000002"><a xlink:title=" ">
<path fill="none" stroke="#63b8ff" d="M227.62,-115.68C227.62,-107.02 227.62,-97.4 227.62,-90.47"/>
<polygon fill="#63b8ff" stroke="#63b8ff" points="224.13,-115.4 227.63,-125.4 231.13,-115.4 224.13,-115.4"/>
</a>
</g>
</g>
<!-- Node3 -->
<g id="Node000003" class="node">
<title>Node3</title>
<g id="a_Node000003"><a xlink:href="classnix_1_1Args.html" target="_top" xlink:title=" ">
<polygon fill="white" stroke="#bfbfbf" points="299,-20.75 240.25,-20.75 240.25,0 299,0 299,-20.75"/>
<text text-anchor="middle" x="269.62" y="-7.25" font-family="Helvetica,sans-Serif" font-size="10.00">nix::Args</text>
</a>
</g>
</g>
<!-- Node3&#45;&gt;Node2 -->
<g id="edge2_Node000002_Node000003" class="edge">
<title>Node3&#45;&gt;Node2</title>
<g id="a_edge2_Node000002_Node000003"><a xlink:title=" ">
<path fill="none" stroke="#63b8ff" d="M286.23,-30.18C287.98,-32.91 289.52,-35.8 290.62,-38.75 291.69,-41.57 295.54,-84.59 292.62,-90.25 283.93,-107.13 265.93,-119.23 251.07,-126.82"/>
<polygon fill="#63b8ff" stroke="#63b8ff" points="289.14,-28.22 280.32,-22.35 283.56,-32.44 289.14,-28.22"/>
</a>
</g>
</g>
<!-- Node4&#45;&gt;Node3 -->
<g id="edge3_Node000003_Node000004" class="edge">
<title>Node4&#45;&gt;Node3</title>
<g id="a_edge3_Node000003_Node000004"><a xlink:title=" ">
<path fill="none" stroke="#9a32cd" stroke-dasharray="5,2" d="M239.62,-59.6C247.47,-46.98 257.39,-31.05 263.62,-21.03"/>
<polygon fill="#9a32cd" stroke="#9a32cd" points="236.75,-57.58 234.44,-67.92 242.7,-61.28 236.75,-57.58"/>
</a>
</g>
<text text-anchor="middle" x="269.64" y="-42" font-family="Helvetica,sans-Serif" font-size="10.00" fill="grey"> parent</text>
</g>
</g>
</svg>
