<?xml version="1.0" encoding="UTF-8" standalone="no"?>
<!DOCTYPE svg PUBLIC "-//W3C//DTD SVG 1.1//EN"
 "http://www.w3.org/Graphics/SVG/1.1/DTD/svg11.dtd">
<!-- Generated by graphviz version 12.2.1 (0)
 -->
<!-- Title: nix::CmdStoreGC Pages: 1 -->
<svg width="230pt" height="199pt"
 viewBox="0.00 0.00 229.88 199.00" xmlns="http://www.w3.org/2000/svg" xmlns:xlink="http://www.w3.org/1999/xlink">
<g id="graph0" class="graph" transform="scale(1 1) rotate(0) translate(4 195)">
<title>nix::CmdStoreGC</title>
<!-- Node1 -->
<g id="Node000001" class="node">
<title>Node1</title>
<g id="a_Node000001"><a xlink:title=" ">
<polygon fill="#999999" stroke="#666666" points="166,-20.75 66.75,-20.75 66.75,0 166,0 166,-20.75"/>
<text text-anchor="middle" x="116.38" y="-7.25" font-family="Helvetica,sans-Serif" font-size="10.00">nix::CmdStoreGC</text>
</a>
</g>
</g>
<!-- Node2 -->
<g id="Node000002" class="node">
<title>Node2</title>
<g id="a_Node000002"><a xlink:href="structnix_1_1StoreCommand.html" target="_top" xlink:title=" ">
<polygon fill="white" stroke="#666666" points="112.75,-77.5 0,-77.5 0,-56.75 112.75,-56.75 112.75,-77.5"/>
<text text-anchor="middle" x="56.38" y="-64" font-family="Helvetica,sans-Serif" font-size="10.00">nix::StoreCommand</text>
</a>
</g>
</g>
<!-- Node2&#45;&gt;Node1 -->
<g id="edge1_Node000001_Node000002" class="edge">
<title>Node2&#45;&gt;Node1</title>
<g id="a_edge1_Node000001_Node000002"><a xlink:title=" ">
<path fill="none" stroke="#63b8ff" d="M75.6,-48.58C85.59,-39.47 97.41,-28.68 105.74,-21.08"/>
<polygon fill="#63b8ff" stroke="#63b8ff" points="73.25,-45.99 68.22,-55.32 77.97,-51.16 73.25,-45.99"/>
</a>
</g>
</g>
<!-- Node3 -->
<g id="Node000003" class="node">
<title>Node3</title>
<g id="a_Node000003"><a xlink:href="structnix_1_1Command.html" target="_top" xlink:title=" ">
<polygon fill="white" stroke="#666666" points="124,-134.25 36.75,-134.25 36.75,-113.5 124,-113.5 124,-134.25"/>
<text text-anchor="middle" x="80.38" y="-120.75" font-family="Helvetica,sans-Serif" font-size="10.00">nix::Command</text>
</a>
</g>
</g>
<!-- Node3&#45;&gt;Node2 -->
<g id="edge2_Node000002_Node000003" class="edge">
<title>Node3&#45;&gt;Node2</title>
<g id="a_edge2_Node000002_Node000003"><a xlink:title=" ">
<path fill="none" stroke="#63b8ff" d="M71.57,-102.78C67.83,-94.27 63.66,-84.74 60.63,-77.83"/>
<polygon fill="#63b8ff" stroke="#63b8ff" points="68.26,-103.95 75.48,-111.7 74.67,-101.14 68.26,-103.95"/>
</a>
</g>
</g>
<!-- Node4 -->
<g id="Node000004" class="node">
<title>Node4</title>
<g id="a_Node000004"><a xlink:href="classnix_1_1Args.html" target="_top" xlink:title=" ">
<polygon fill="white" stroke="#bfbfbf" points="145.75,-191 87,-191 87,-170.25 145.75,-170.25 145.75,-191"/>
<text text-anchor="middle" x="116.38" y="-177.5" font-family="Helvetica,sans-Serif" font-size="10.00">nix::Args</text>
</a>
</g>
</g>
<!-- Node4&#45;&gt;Node3 -->
<g id="edge3_Node000003_Node000004" class="edge">
<title>Node4&#45;&gt;Node3</title>
<g id="a_edge3_Node000003_Node000004"><a xlink:title=" ">
<path fill="none" stroke="#63b8ff" d="M103.73,-160.39C97.99,-151.66 91.45,-141.72 86.76,-134.58"/>
<polygon fill="#63b8ff" stroke="#63b8ff" points="100.69,-162.14 109.11,-168.57 106.54,-158.29 100.69,-162.14"/>
</a>
</g>
</g>
<!-- Node5 -->
<g id="Node000005" class="node">
<title>Node5</title>
<g id="a_Node000005"><a xlink:href="structnix_1_1MixDryRun.html" target="_top" xlink:title=" ">
<polygon fill="white" stroke="#bfbfbf" points="221.88,-77.5 130.88,-77.5 130.88,-56.75 221.88,-56.75 221.88,-77.5"/>
<text text-anchor="middle" x="176.38" y="-64" font-family="Helvetica,sans-Serif" font-size="10.00">nix::MixDryRun</text>
</a>
</g>
</g>
<!-- Node4&#45;&gt;Node5 -->
<g id="edge5_Node000005_Node000004" class="edge">
<title>Node4&#45;&gt;Node5</title>
<g id="a_edge5_Node000005_Node000004"><a xlink:title=" ">
<path fill="none" stroke="#63b8ff" d="M126.91,-160.04C139.84,-136.02 161.24,-96.25 171.1,-77.93"/>
<polygon fill="#63b8ff" stroke="#63b8ff" points="123.86,-158.32 122.21,-168.79 130.03,-161.64 123.86,-158.32"/>
</a>
</g>
</g>
<!-- Node5&#45;&gt;Node1 -->
<g id="edge4_Node000001_Node000005" class="edge">
<title>Node5&#45;&gt;Node1</title>
<g id="a_edge4_Node000001_Node000005"><a xlink:title=" ">
<path fill="none" stroke="#63b8ff" d="M157.15,-48.58C147.16,-39.47 135.34,-28.68 127.01,-21.08"/>
<polygon fill="#63b8ff" stroke="#63b8ff" points="154.78,-51.16 164.53,-55.32 159.5,-45.99 154.78,-51.16"/>
</a>
</g>
</g>
</g>
</svg>
