<?xml version="1.0" encoding="UTF-8" standalone="no"?>
<!DOCTYPE svg PUBLIC "-//W3C//DTD SVG 1.1//EN"
 "http://www.w3.org/Graphics/SVG/1.1/DTD/svg11.dtd">
<!-- Generated by graphviz version 12.2.1 (0)
 -->
<!-- Title: nix::StorePathsCommand Pages: 1 -->
<svg width="674pt" height="580pt"
 viewBox="0.00 0.00 673.50 580.00" xmlns="http://www.w3.org/2000/svg" xmlns:xlink="http://www.w3.org/1999/xlink">
<g id="graph0" class="graph" transform="scale(1 1) rotate(0) translate(4 576)">
<title>nix::StorePathsCommand</title>
<!-- Node1 -->
<g id="Node000001" class="node">
<title>Node1</title>
<g id="a_Node000001"><a xlink:title=" ">
<polygon fill="#999999" stroke="#666666" points="641.5,-20.75 502.5,-20.75 502.5,0 641.5,0 641.5,-20.75"/>
<text text-anchor="middle" x="572" y="-7.25" font-family="Helvetica,sans-Serif" font-size="10.00">nix::StorePathsCommand</text>
</a>
</g>
</g>
<!-- Node2 -->
<g id="Node000002" class="node">
<title>Node2</title>
<g id="a_Node000002"><a xlink:href="structnix_1_1BuiltPathsCommand.html" target="_top" xlink:title=" ">
<polygon fill="white" stroke="#666666" points="640,-78.5 504,-78.5 504,-57.75 640,-57.75 640,-78.5"/>
<text text-anchor="middle" x="572" y="-65" font-family="Helvetica,sans-Serif" font-size="10.00">nix::BuiltPathsCommand</text>
</a>
</g>
</g>
<!-- Node2&#45;&gt;Node1 -->
<g id="edge1_Node000001_Node000002" class="edge">
<title>Node2&#45;&gt;Node1</title>
<g id="a_edge1_Node000001_Node000002"><a xlink:title=" ">
<path fill="none" stroke="#63b8ff" d="M572,-46.18C572,-37.52 572,-27.9 572,-20.97"/>
<polygon fill="#63b8ff" stroke="#63b8ff" points="568.5,-45.9 572,-55.9 575.5,-45.9 568.5,-45.9"/>
</a>
</g>
</g>
<!-- Node3 -->
<g id="Node000003" class="node">
<title>Node3</title>
<g id="a_Node000003"><a xlink:href="structnix_1_1InstallablesCommand.html" target="_top" xlink:title=" ">
<polygon fill="white" stroke="#666666" points="561.75,-136.25 418.25,-136.25 418.25,-115.5 561.75,-115.5 561.75,-136.25"/>
<text text-anchor="middle" x="490" y="-122.75" font-family="Helvetica,sans-Serif" font-size="10.00">nix::InstallablesCommand</text>
</a>
</g>
</g>
<!-- Node3&#45;&gt;Node2 -->
<g id="edge2_Node000002_Node000003" class="edge">
<title>Node3&#45;&gt;Node2</title>
<g id="a_edge2_Node000002_Node000003"><a xlink:title=" ">
<path fill="none" stroke="#63b8ff" d="M513.47,-108.92C527.71,-99.24 545.42,-87.2 557.61,-78.91"/>
<polygon fill="#63b8ff" stroke="#63b8ff" points="511.84,-105.8 505.53,-114.31 515.77,-111.59 511.84,-105.8"/>
</a>
</g>
</g>
<!-- Node4 -->
<g id="Node000004" class="node">
<title>Node4</title>
<g id="a_Node000004"><a xlink:href="structnix_1_1RawInstallablesCommand.html" target="_top" xlink:title=" ">
<polygon fill="white" stroke="#666666" points="565.25,-194 400.75,-194 400.75,-173.25 565.25,-173.25 565.25,-194"/>
<text text-anchor="middle" x="483" y="-180.5" font-family="Helvetica,sans-Serif" font-size="10.00">nix::RawInstallablesCommand</text>
</a>
</g>
</g>
<!-- Node4&#45;&gt;Node3 -->
<g id="edge3_Node000003_Node000004" class="edge">
<title>Node4&#45;&gt;Node3</title>
<g id="a_edge3_Node000003_Node000004"><a xlink:title=" ">
<path fill="none" stroke="#63b8ff" d="M485.63,-161.68C486.72,-153.02 487.93,-143.4 488.79,-136.47"/>
<polygon fill="#63b8ff" stroke="#63b8ff" points="482.18,-161.05 484.41,-171.41 489.13,-161.93 482.18,-161.05"/>
</a>
</g>
</g>
<!-- Node5 -->
<g id="Node000005" class="node">
<title>Node5</title>
<g id="a_Node000005"><a xlink:href="classnix_1_1Args.html" target="_top" xlink:title=" ">
<polygon fill="white" stroke="#bfbfbf" points="413.38,-572 354.62,-572 354.62,-551.25 413.38,-551.25 413.38,-572"/>
<text text-anchor="middle" x="384" y="-558.5" font-family="Helvetica,sans-Serif" font-size="10.00">nix::Args</text>
</a>
</g>
</g>
<!-- Node5&#45;&gt;Node4 -->
<g id="edge4_Node000004_Node000005" class="edge">
<title>Node5&#45;&gt;Node4</title>
<g id="a_edge4_Node000004_Node000005"><a xlink:title=" ">
<path fill="none" stroke="#63b8ff" d="M425.05,-558.26C460.14,-553.75 505,-540.93 505,-504.88 505,-504.88 505,-504.88 505,-240.38 505,-223.31 495.97,-205.23 489.48,-194.44"/>
<polygon fill="#63b8ff" stroke="#63b8ff" points="424.67,-554.78 415.1,-559.33 425.42,-561.74 424.67,-554.78"/>
</a>
</g>
</g>
<!-- Node7 -->
<g id="Node000007" class="node">
<title>Node7</title>
<g id="a_Node000007"><a xlink:href="structnix_1_1Command.html" target="_top" xlink:title=" ">
<polygon fill="white" stroke="#666666" points="367.62,-514.25 280.38,-514.25 280.38,-493.5 367.62,-493.5 367.62,-514.25"/>
<text text-anchor="middle" x="324" y="-500.75" font-family="Helvetica,sans-Serif" font-size="10.00">nix::Command</text>
</a>
</g>
</g>
<!-- Node5&#45;&gt;Node7 -->
<g id="edge7_Node000007_Node000005" class="edge">
<title>Node5&#45;&gt;Node7</title>
<g id="a_edge7_Node000007_Node000005"><a xlink:title=" ">
<path fill="none" stroke="#63b8ff" d="M365.25,-543.2C355.05,-533.72 342.81,-522.36 334.33,-514.47"/>
<polygon fill="#63b8ff" stroke="#63b8ff" points="362.73,-545.64 372.44,-549.88 367.5,-540.51 362.73,-545.64"/>
</a>
</g>
</g>
<!-- Node8 -->
<g id="Node000008" class="node">
<title>Node8</title>
<g id="a_Node000008"><a xlink:href="structnix_1_1SourceExprCommand.html" target="_top" xlink:title=" ">
<polygon fill="white" stroke="#bfbfbf" points="477,-251.75 335,-251.75 335,-231 477,-231 477,-251.75"/>
<text text-anchor="middle" x="406" y="-238.25" font-family="Helvetica,sans-Serif" font-size="10.00">nix::SourceExprCommand</text>
</a>
</g>
</g>
<!-- Node5&#45;&gt;Node8 -->
<g id="edge9_Node000008_Node000005" class="edge">
<title>Node5&#45;&gt;Node8</title>
<g id="a_edge9_Node000008_Node000005"><a xlink:title=" ">
<path fill="none" stroke="#63b8ff" d="M424.1,-549.97C445.3,-541.66 467,-527.6 467,-504.88 467,-504.88 467,-504.88 467,-298.12 467,-276.75 446.34,-261.37 429.06,-252.25"/>
<polygon fill="#63b8ff" stroke="#63b8ff" points="423.19,-546.58 414.92,-553.21 425.52,-553.18 423.19,-546.58"/>
</a>
</g>
</g>
<!-- Node9 -->
<g id="Node000009" class="node">
<title>Node9</title>
<g id="a_Node000009"><a xlink:href="structnix_1_1MixFlakeOptions.html" target="_top" xlink:title=" ">
<polygon fill="white" stroke="#666666" points="399.38,-309.5 280.62,-309.5 280.62,-288.75 399.38,-288.75 399.38,-309.5"/>
<text text-anchor="middle" x="340" y="-296" font-family="Helvetica,sans-Serif" font-size="10.00">nix::MixFlakeOptions</text>
</a>
</g>
</g>
<!-- Node5&#45;&gt;Node9 -->
<g id="edge11_Node000009_Node000005" class="edge">
<title>Node5&#45;&gt;Node9</title>
<g id="a_edge11_Node000009_Node000005"><a xlink:title=" ">
<path fill="none" stroke="#63b8ff" d="M342.85,-558.91C243.75,-554.23 0,-539.22 0,-504.88 0,-504.88 0,-504.88 0,-367.62 0,-311.13 182.88,-301.2 280.39,-299.91"/>
<polygon fill="#63b8ff" stroke="#63b8ff" points="342.53,-562.4 352.68,-559.36 342.85,-555.4 342.53,-562.4"/>
</a>
</g>
</g>
<!-- Node12 -->
<g id="Node000012" class="node">
<title>Node12</title>
<g id="a_Node000012"><a xlink:href="structnix_1_1MixEvalArgs.html" target="_top" xlink:title=" ">
<polygon fill="white" stroke="#bfbfbf" points="178.88,-436.75 81.12,-436.75 81.12,-416 178.88,-416 178.88,-436.75"/>
<text text-anchor="middle" x="130" y="-423.25" font-family="Helvetica,sans-Serif" font-size="10.00">nix::MixEvalArgs</text>
</a>
</g>
</g>
<!-- Node5&#45;&gt;Node12 -->
<g id="edge16_Node000012_Node000005" class="edge">
<title>Node5&#45;&gt;Node12</title>
<g id="a_edge16_Node000012_Node000005"><a xlink:title=" ">
<path fill="none" stroke="#63b8ff" d="M343.07,-556.39C287.87,-549.94 193.44,-536.04 167,-514.25 142.71,-494.23 134.04,-455.37 131.23,-437.2"/>
<polygon fill="#63b8ff" stroke="#63b8ff" points="342.38,-559.83 352.71,-557.48 343.17,-552.88 342.38,-559.83"/>
</a>
</g>
</g>
<!-- Node13 -->
<g id="Node000013" class="node">
<title>Node13</title>
<g id="a_Node000013"><a xlink:href="structnix_1_1MixRepair.html" target="_top" xlink:title=" ">
<polygon fill="white" stroke="#bfbfbf" points="262.25,-514.25 175.75,-514.25 175.75,-493.5 262.25,-493.5 262.25,-514.25"/>
<text text-anchor="middle" x="219" y="-500.75" font-family="Helvetica,sans-Serif" font-size="10.00">nix::MixRepair</text>
</a>
</g>
</g>
<!-- Node5&#45;&gt;Node13 -->
<g id="edge18_Node000013_Node000005" class="edge">
<title>Node5&#45;&gt;Node13</title>
<g id="a_edge18_Node000013_Node000005"><a xlink:title=" ">
<path fill="none" stroke="#63b8ff" d="M344.07,-547.13C314.46,-537.13 274.76,-523.72 248.1,-514.71"/>
<polygon fill="#63b8ff" stroke="#63b8ff" points="342.85,-550.42 353.45,-550.3 345.09,-543.78 342.85,-550.42"/>
</a>
</g>
</g>
<!-- Node16 -->
<g id="Node000016" class="node">
<title>Node16</title>
<g id="a_Node000016"><a xlink:href="structnix_1_1MixOperateOnOptions.html" target="_top" xlink:title=" ">
<polygon fill="white" stroke="#bfbfbf" points="665.5,-475.5 520.5,-475.5 520.5,-454.75 665.5,-454.75 665.5,-475.5"/>
<text text-anchor="middle" x="593" y="-462" font-family="Helvetica,sans-Serif" font-size="10.00">nix::MixOperateOnOptions</text>
</a>
</g>
</g>
<!-- Node5&#45;&gt;Node16 -->
<g id="edge22_Node000016_Node000005" class="edge">
<title>Node5&#45;&gt;Node16</title>
<g id="a_edge22_Node000016_Node000005"><a xlink:title=" ">
<path fill="none" stroke="#63b8ff" d="M424.95,-558.02C452.72,-554.92 489.59,-548.13 519,-533.25 547.48,-518.84 573.25,-490.47 585.49,-475.65"/>
<polygon fill="#63b8ff" stroke="#63b8ff" points="424.77,-554.52 415.16,-558.99 425.45,-561.49 424.77,-554.52"/>
</a>
</g>
</g>
<!-- Node6 -->
<g id="Node000006" class="node">
<title>Node6</title>
<g id="a_Node000006"><a xlink:href="classnix_1_1MultiCommand.html" target="_top" xlink:title=" ">
<polygon fill="white" stroke="#666666" points="439,-436.75 327,-436.75 327,-416 439,-416 439,-436.75"/>
<text text-anchor="middle" x="383" y="-423.25" font-family="Helvetica,sans-Serif" font-size="10.00">nix::MultiCommand</text>
</a>
</g>
</g>
<!-- Node6&#45;&gt;Node5 -->
<g id="edge5_Node000005_Node000006" class="edge">
<title>Node6&#45;&gt;Node5</title>
<g id="a_edge5_Node000005_Node000006"><a xlink:title=" ">
<path fill="none" stroke="#9a32cd" stroke-dasharray="5,2" d="M383.16,-448.62C383.38,-477.98 383.77,-529.73 383.93,-551.04"/>
<polygon fill="#9a32cd" stroke="#9a32cd" points="386.66,-448.72 383.09,-438.74 379.66,-448.77 386.66,-448.72"/>
</a>
</g>
<text text-anchor="middle" x="400.9" y="-500.75" font-family="Helvetica,sans-Serif" font-size="10.00" fill="grey"> parent</text>
</g>
<!-- Node7&#45;&gt;Node6 -->
<g id="edge6_Node000006_Node000007" class="edge">
<title>Node7&#45;&gt;Node6</title>
<g id="a_edge6_Node000006_Node000007"><a xlink:title=" ">
<path fill="none" stroke="#63b8ff" d="M338.67,-484.1C350.36,-469.15 366.23,-448.83 375.47,-437.01"/>
<polygon fill="#63b8ff" stroke="#63b8ff" points="336.04,-481.78 332.65,-491.81 341.56,-486.09 336.04,-481.78"/>
</a>
</g>
</g>
<!-- Node11 -->
<g id="Node000011" class="node">
<title>Node11</title>
<g id="a_Node000011"><a xlink:href="structnix_1_1StoreCommand.html" target="_top" xlink:title=" ">
<polygon fill="white" stroke="#666666" points="309.38,-436.75 196.62,-436.75 196.62,-416 309.38,-416 309.38,-436.75"/>
<text text-anchor="middle" x="253" y="-423.25" font-family="Helvetica,sans-Serif" font-size="10.00">nix::StoreCommand</text>
</a>
</g>
</g>
<!-- Node7&#45;&gt;Node11 -->
<g id="edge14_Node000011_Node000007" class="edge">
<title>Node7&#45;&gt;Node11</title>
<g id="a_edge14_Node000011_Node000007"><a xlink:title=" ">
<path fill="none" stroke="#63b8ff" d="M307.14,-484.95C293.01,-469.92 273.39,-449.06 262.06,-437.01"/>
<polygon fill="#63b8ff" stroke="#63b8ff" points="304.28,-487.01 313.68,-491.9 309.38,-482.22 304.28,-487.01"/>
</a>
</g>
</g>
<!-- Node8&#45;&gt;Node4 -->
<g id="edge8_Node000004_Node000008" class="edge">
<title>Node8&#45;&gt;Node4</title>
<g id="a_edge8_Node000004_Node000008"><a xlink:title=" ">
<path fill="none" stroke="#63b8ff" d="M428.43,-224.14C441.73,-214.51 458.15,-202.62 469.48,-194.41"/>
<polygon fill="#63b8ff" stroke="#63b8ff" points="426.69,-221.08 420.64,-229.78 430.79,-226.75 426.69,-221.08"/>
</a>
</g>
</g>
<!-- Node9&#45;&gt;Node8 -->
<g id="edge10_Node000008_Node000009" class="edge">
<title>Node9&#45;&gt;Node8</title>
<g id="a_edge10_Node000008_Node000009"><a xlink:title=" ">
<path fill="none" stroke="#63b8ff" d="M360.29,-280.99C371.58,-271.45 385.21,-259.94 394.64,-251.97"/>
<polygon fill="#63b8ff" stroke="#63b8ff" points="358.03,-278.31 352.65,-287.44 362.55,-283.66 358.03,-278.31"/>
</a>
</g>
</g>
<!-- Node10 -->
<g id="Node000010" class="node">
<title>Node10</title>
<g id="a_Node000010"><a xlink:href="structnix_1_1EvalCommand.html" target="_top" xlink:title=" ">
<polygon fill="white" stroke="#666666" points="305.12,-379 196.88,-379 196.88,-358.25 305.12,-358.25 305.12,-379"/>
<text text-anchor="middle" x="251" y="-365.5" font-family="Helvetica,sans-Serif" font-size="10.00">nix::EvalCommand</text>
</a>
</g>
</g>
<!-- Node10&#45;&gt;Node9 -->
<g id="edge12_Node000009_Node000010" class="edge">
<title>Node10&#45;&gt;Node9</title>
<g id="a_edge12_Node000009_Node000010"><a xlink:title=" ">
<path fill="none" stroke="#63b8ff" d="M272.47,-351.34C289.47,-338.45 312.68,-320.85 326.98,-310"/>
<polygon fill="#63b8ff" stroke="#63b8ff" points="270.81,-348.21 264.96,-357.04 275.04,-353.79 270.81,-348.21"/>
</a>
</g>
</g>
<!-- Node11&#45;&gt;Node10 -->
<g id="edge13_Node000010_Node000011" class="edge">
<title>Node11&#45;&gt;Node10</title>
<g id="a_edge13_Node000010_Node000011"><a xlink:title=" ">
<path fill="none" stroke="#63b8ff" d="M252.25,-404.43C251.94,-395.77 251.59,-386.15 251.34,-379.22"/>
<polygon fill="#63b8ff" stroke="#63b8ff" points="248.74,-404.28 252.6,-414.15 255.74,-404.03 248.74,-404.28"/>
</a>
</g>
</g>
<!-- Node12&#45;&gt;Node10 -->
<g id="edge15_Node000010_Node000012" class="edge">
<title>Node12&#45;&gt;Node10</title>
<g id="a_edge15_Node000010_Node000012"><a xlink:title=" ">
<path fill="none" stroke="#63b8ff" d="M161.64,-410.8C183.14,-400.89 211.01,-388.05 229.86,-379.37"/>
<polygon fill="#63b8ff" stroke="#63b8ff" points="160.35,-407.54 152.73,-414.9 163.28,-413.9 160.35,-407.54"/>
</a>
</g>
</g>
<!-- Node13&#45;&gt;Node12 -->
<g id="edge17_Node000012_Node000013" class="edge">
<title>Node13&#45;&gt;Node12</title>
<g id="a_edge17_Node000012_Node000013"><a xlink:title=" ">
<path fill="none" stroke="#63b8ff" d="M198.9,-485.83C181.24,-470.85 156.16,-449.57 141.64,-437.25"/>
<polygon fill="#63b8ff" stroke="#63b8ff" points="196.32,-488.23 206.21,-492.03 200.85,-482.89 196.32,-488.23"/>
</a>
</g>
</g>
<!-- Node14 -->
<g id="Node000014" class="node">
<title>Node14</title>
<g id="a_Node000014"><a xlink:href="structnix_1_1SearchPath.html" target="_top" xlink:title=" ">
<polygon fill="white" stroke="#666666" points="119.5,-514.25 28.5,-514.25 28.5,-493.5 119.5,-493.5 119.5,-514.25"/>
<text text-anchor="middle" x="74" y="-500.75" font-family="Helvetica,sans-Serif" font-size="10.00">nix::SearchPath</text>
</a>
</g>
</g>
<!-- Node14&#45;&gt;Node12 -->
<g id="edge19_Node000012_Node000014" class="edge">
<title>Node14&#45;&gt;Node12</title>
<g id="a_edge19_Node000012_Node000014"><a xlink:title=" ">
<path fill="none" stroke="#9a32cd" stroke-dasharray="5,2" d="M71.32,-481.94C71.2,-472.91 72.55,-462.64 77.75,-454.75 82.88,-446.97 90.97,-441.26 99.26,-437.14"/>
<polygon fill="#9a32cd" stroke="#9a32cd" points="67.81,-481.93 72.06,-491.63 74.79,-481.4 67.81,-481.93"/>
</a>
</g>
<text text-anchor="middle" x="105.88" y="-462" font-family="Helvetica,sans-Serif" font-size="10.00" fill="grey"> searchPath</text>
</g>
<!-- Node15 -->
<g id="Node000015" class="node">
<title>Node15</title>
<g id="a_Node000015"><a xlink:href="structnix_1_1flake_1_1LockFlags.html" target="_top" xlink:title=" ">
<polygon fill="white" stroke="#bfbfbf" points="438.5,-379 323.5,-379 323.5,-358.25 438.5,-358.25 438.5,-379"/>
<text text-anchor="middle" x="381" y="-365.5" font-family="Helvetica,sans-Serif" font-size="10.00">nix::flake::LockFlags</text>
</a>
</g>
</g>
<!-- Node15&#45;&gt;Node9 -->
<g id="edge20_Node000009_Node000015" class="edge">
<title>Node15&#45;&gt;Node9</title>
<g id="a_edge20_Node000009_Node000015"><a xlink:title=" ">
<path fill="none" stroke="#9a32cd" stroke-dasharray="5,2" d="M369.29,-348.35C361.63,-335.73 351.95,-319.8 345.86,-309.78"/>
<polygon fill="#9a32cd" stroke="#9a32cd" points="366.16,-349.93 374.34,-356.66 372.14,-346.3 366.16,-349.93"/>
</a>
</g>
<text text-anchor="middle" x="388.92" y="-330.75" font-family="Helvetica,sans-Serif" font-size="10.00" fill="grey"> lockFlags</text>
</g>
<!-- Node16&#45;&gt;Node2 -->
<g id="edge21_Node000002_Node000016" class="edge">
<title>Node16&#45;&gt;Node2</title>
<g id="a_edge21_Node000002_Node000016"><a xlink:title=" ">
<path fill="none" stroke="#63b8ff" d="M593,-442.83C593,-429.87 593,-412.98 593,-398 593,-398 593,-398 593,-124.88 593,-107.91 584.38,-89.8 578.19,-78.98"/>
<polygon fill="#63b8ff" stroke="#63b8ff" points="589.5,-442.75 593,-452.75 596.5,-442.75 589.5,-442.75"/>
</a>
</g>
</g>
</g>
</svg>
