<?xml version="1.0" encoding="UTF-8" standalone="no"?>
<!DOCTYPE svg PUBLIC "-//W3C//DTD SVG 1.1//EN"
 "http://www.w3.org/Graphics/SVG/1.1/DTD/svg11.dtd">
<!-- Generated by graphviz version 12.2.1 (0)
 -->
<!-- Title: nix::SSHStoreConfig Pages: 1 -->
<svg width="314pt" height="256pt"
 viewBox="0.00 0.00 314.25 255.75" xmlns="http://www.w3.org/2000/svg" xmlns:xlink="http://www.w3.org/1999/xlink">
<g id="graph0" class="graph" transform="scale(1 1) rotate(0) translate(4 251.75)">
<title>nix::SSHStoreConfig</title>
<!-- Node1 -->
<g id="Node000001" class="node">
<title>Node1</title>
<g id="a_Node000001"><a xlink:title=" ">
<polygon fill="#999999" stroke="#666666" points="203.12,-20.75 90.38,-20.75 90.38,0 203.12,0 203.12,-20.75"/>
<text text-anchor="middle" x="146.75" y="-7.25" font-family="Helvetica,sans-Serif" font-size="10.00">nix::SSHStoreConfig</text>
</a>
</g>
</g>
<!-- Node2 -->
<g id="Node000002" class="node">
<title>Node2</title>
<g id="a_Node000002"><a xlink:href="structnix_1_1RemoteStoreConfig.html" target="_top" xlink:title=" ">
<polygon fill="white" stroke="#bfbfbf" points="131.5,-77.5 0,-77.5 0,-56.75 131.5,-56.75 131.5,-77.5"/>
<text text-anchor="middle" x="65.75" y="-64" font-family="Helvetica,sans-Serif" font-size="10.00">nix::RemoteStoreConfig</text>
</a>
</g>
</g>
<!-- Node2&#45;&gt;Node1 -->
<g id="edge1_Node000001_Node000002" class="edge">
<title>Node2&#45;&gt;Node1</title>
<g id="a_edge1_Node000001_Node000002"><a xlink:title=" ">
<path fill="none" stroke="#63b8ff" d="M89.66,-49.96C103.54,-40.58 120.57,-29.07 132.39,-21.08"/>
<polygon fill="#63b8ff" stroke="#63b8ff" points="87.81,-46.99 81.49,-55.49 91.73,-52.79 87.81,-46.99"/>
</a>
</g>
</g>
<!-- Node3 -->
<g id="Node000003" class="node">
<title>Node3</title>
<g id="a_Node000003"><a xlink:href="structnix_1_1StoreConfig.html" target="_top" xlink:title=" ">
<polygon fill="white" stroke="#bfbfbf" points="193.38,-134.25 100.12,-134.25 100.12,-113.5 193.38,-113.5 193.38,-134.25"/>
<text text-anchor="middle" x="146.75" y="-120.75" font-family="Helvetica,sans-Serif" font-size="10.00">nix::StoreConfig</text>
</a>
</g>
</g>
<!-- Node3&#45;&gt;Node2 -->
<g id="edge2_Node000002_Node000003" class="edge">
<title>Node3&#45;&gt;Node2</title>
<g id="a_edge2_Node000002_Node000003"><a xlink:title=" ">
<path fill="none" stroke="#63b8ff" d="M122.84,-106.71C108.96,-97.33 91.93,-85.82 80.11,-77.83"/>
<polygon fill="#63b8ff" stroke="#63b8ff" points="120.77,-109.54 131.01,-112.24 124.69,-103.74 120.77,-109.54"/>
</a>
</g>
</g>
<!-- Node6 -->
<g id="Node000006" class="node">
<title>Node6</title>
<g id="a_Node000006"><a xlink:href="structnix_1_1CommonSSHStoreConfig.html" target="_top" xlink:title=" ">
<polygon fill="white" stroke="#bfbfbf" points="306.25,-77.5 149.25,-77.5 149.25,-56.75 306.25,-56.75 306.25,-77.5"/>
<text text-anchor="middle" x="227.75" y="-64" font-family="Helvetica,sans-Serif" font-size="10.00">nix::CommonSSHStoreConfig</text>
</a>
</g>
</g>
<!-- Node3&#45;&gt;Node6 -->
<g id="edge6_Node000006_Node000003" class="edge">
<title>Node3&#45;&gt;Node6</title>
<g id="a_edge6_Node000006_Node000003"><a xlink:title=" ">
<path fill="none" stroke="#63b8ff" d="M170.66,-106.71C184.54,-97.33 201.57,-85.82 213.39,-77.83"/>
<polygon fill="#63b8ff" stroke="#63b8ff" points="168.81,-103.74 162.49,-112.24 172.73,-109.54 168.81,-103.74"/>
</a>
</g>
</g>
<!-- Node4 -->
<g id="Node000004" class="node">
<title>Node4</title>
<g id="a_Node000004"><a xlink:href="classnix_1_1Config.html" target="_top" xlink:title=" ">
<polygon fill="white" stroke="#666666" points="180.62,-191 112.88,-191 112.88,-170.25 180.62,-170.25 180.62,-191"/>
<text text-anchor="middle" x="146.75" y="-177.5" font-family="Helvetica,sans-Serif" font-size="10.00">nix::Config</text>
</a>
</g>
</g>
<!-- Node4&#45;&gt;Node3 -->
<g id="edge3_Node000003_Node000004" class="edge">
<title>Node4&#45;&gt;Node3</title>
<g id="a_edge3_Node000003_Node000004"><a xlink:title=" ">
<path fill="none" stroke="#63b8ff" d="M146.75,-158.38C146.75,-150.16 146.75,-141.18 146.75,-134.58"/>
<polygon fill="#63b8ff" stroke="#63b8ff" points="143.25,-158.32 146.75,-168.32 150.25,-158.32 143.25,-158.32"/>
</a>
</g>
</g>
<!-- Node5 -->
<g id="Node000005" class="node">
<title>Node5</title>
<g id="a_Node000005"><a xlink:href="classnix_1_1AbstractConfig.html" target="_top" xlink:title=" ">
<polygon fill="white" stroke="#bfbfbf" points="200.88,-247.75 92.62,-247.75 92.62,-227 200.88,-227 200.88,-247.75"/>
<text text-anchor="middle" x="146.75" y="-234.25" font-family="Helvetica,sans-Serif" font-size="10.00">nix::AbstractConfig</text>
</a>
</g>
</g>
<!-- Node5&#45;&gt;Node4 -->
<g id="edge4_Node000004_Node000005" class="edge">
<title>Node5&#45;&gt;Node4</title>
<g id="a_edge4_Node000004_Node000005"><a xlink:title=" ">
<path fill="none" stroke="#63b8ff" d="M146.75,-215.13C146.75,-206.91 146.75,-197.93 146.75,-191.33"/>
<polygon fill="#63b8ff" stroke="#63b8ff" points="143.25,-215.07 146.75,-225.07 150.25,-215.07 143.25,-215.07"/>
</a>
</g>
</g>
<!-- Node6&#45;&gt;Node1 -->
<g id="edge5_Node000001_Node000006" class="edge">
<title>Node6&#45;&gt;Node1</title>
<g id="a_edge5_Node000001_Node000006"><a xlink:title=" ">
<path fill="none" stroke="#63b8ff" d="M203.84,-49.96C189.96,-40.58 172.93,-29.07 161.11,-21.08"/>
<polygon fill="#63b8ff" stroke="#63b8ff" points="201.77,-52.79 212.01,-55.49 205.69,-46.99 201.77,-52.79"/>
</a>
</g>
</g>
</g>
</svg>
