<?xml version="1.0" encoding="UTF-8" standalone="no"?>
<!DOCTYPE svg PUBLIC "-//W3C//DTD SVG 1.1//EN"
 "http://www.w3.org/Graphics/SVG/1.1/DTD/svg11.dtd">
<!-- Generated by graphviz version 12.2.1 (0)
 -->
<!-- Title: nix::DerivedPathWithInfo Pages: 1 -->
<svg width="260pt" height="182pt"
 viewBox="0.00 0.00 260.38 181.50" xmlns="http://www.w3.org/2000/svg" xmlns:xlink="http://www.w3.org/1999/xlink">
<g id="graph0" class="graph" transform="scale(1 1) rotate(0) translate(4 177.5)">
<title>nix::DerivedPathWithInfo</title>
<!-- Node1 -->
<g id="Node000001" class="node">
<title>Node1</title>
<g id="a_Node000001"><a xlink:title=" ">
<polygon fill="#999999" stroke="#666666" points="191.5,-20.75 54,-20.75 54,0 191.5,0 191.5,-20.75"/>
<text text-anchor="middle" x="122.75" y="-7.25" font-family="Helvetica,sans-Serif" font-size="10.00">nix::DerivedPathWithInfo</text>
</a>
</g>
</g>
<!-- Node2 -->
<g id="Node000002" class="node">
<title>Node2</title>
<g id="a_Node000002"><a xlink:href="structnix_1_1DerivedPath.html" target="_top" xlink:title=" ">
<polygon fill="white" stroke="#666666" points="104.88,-96.62 8.62,-96.62 8.62,-75.88 104.88,-75.88 104.88,-96.62"/>
<text text-anchor="middle" x="56.75" y="-83.12" font-family="Helvetica,sans-Serif" font-size="10.00">nix::DerivedPath</text>
</a>
</g>
</g>
<!-- Node2&#45;&gt;Node1 -->
<g id="edge1_Node000001_Node000002" class="edge">
<title>Node2&#45;&gt;Node1</title>
<g id="a_edge1_Node000001_Node000002"><a xlink:title=" ">
<path fill="none" stroke="#9a32cd" stroke-dasharray="5,2" d="M72.79,-67.29C85.89,-52.63 103.89,-32.48 114.33,-20.8"/>
<polygon fill="#9a32cd" stroke="#9a32cd" points="70.44,-64.67 66.39,-74.46 75.66,-69.34 70.44,-64.67"/>
</a>
</g>
<text text-anchor="middle" x="109.98" y="-42" font-family="Helvetica,sans-Serif" font-size="10.00" fill="grey"> path</text>
</g>
<!-- Node3 -->
<g id="Node000003" class="node">
<title>Node3</title>
<g id="a_Node000003"><a xlink:title=" ">
<polygon fill="white" stroke="#bfbfbf" points="113.5,-173.5 0,-173.5 0,-140 113.5,-140 113.5,-173.5"/>
<text text-anchor="start" x="8" y="-160" font-family="Helvetica,sans-Serif" font-size="10.00">derived_path::detail</text>
<text text-anchor="middle" x="56.75" y="-147.25" font-family="Helvetica,sans-Serif" font-size="10.00">::DerivedPathRaw</text>
</a>
</g>
</g>
<!-- Node3&#45;&gt;Node2 -->
<g id="edge2_Node000002_Node000003" class="edge">
<title>Node3&#45;&gt;Node2</title>
<g id="a_edge2_Node000002_Node000003"><a xlink:title=" ">
<path fill="none" stroke="#63b8ff" d="M56.75,-128.08C56.75,-116.99 56.75,-104.93 56.75,-96.82"/>
<polygon fill="#63b8ff" stroke="#63b8ff" points="53.25,-128 56.75,-138 60.25,-128 53.25,-128"/>
</a>
</g>
</g>
<!-- Node4 -->
<g id="Node000004" class="node">
<title>Node4</title>
<g id="a_Node000004"><a xlink:href="classnix_1_1ref.html" target="_top" xlink:title=" ">
<polygon fill="white" stroke="#666666" points="252.38,-103 123.12,-103 123.12,-69.5 252.38,-69.5 252.38,-103"/>
<text text-anchor="start" x="131.12" y="-89.5" font-family="Helvetica,sans-Serif" font-size="10.00">nix::ref&lt; nix::ExtraPath</text>
<text text-anchor="middle" x="187.75" y="-76.75" font-family="Helvetica,sans-Serif" font-size="10.00">Info &gt;</text>
</a>
</g>
</g>
<!-- Node4&#45;&gt;Node1 -->
<g id="edge3_Node000001_Node000004" class="edge">
<title>Node4&#45;&gt;Node1</title>
<g id="a_edge3_Node000001_Node000004"><a xlink:title=" ">
<path fill="none" stroke="#9a32cd" stroke-dasharray="5,2" d="M166.16,-60.71C154.14,-47.05 139.88,-30.84 131.07,-20.83"/>
<polygon fill="#9a32cd" stroke="#9a32cd" points="163.41,-62.89 172.65,-68.08 168.67,-58.26 163.41,-62.89"/>
</a>
</g>
<text text-anchor="middle" x="168.07" y="-42" font-family="Helvetica,sans-Serif" font-size="10.00" fill="grey"> info</text>
</g>
</g>
</svg>
