<?xml version="1.0" encoding="UTF-8" standalone="no"?>
<!DOCTYPE svg PUBLIC "-//W3C//DTD SVG 1.1//EN"
 "http://www.w3.org/Graphics/SVG/1.1/DTD/svg11.dtd">
<!-- Generated by graphviz version 12.2.1 (0)
 -->
<!-- Title: nix::JSONLogger Pages: 1 -->
<svg width="113pt" height="98pt"
 viewBox="0.00 0.00 112.75 98.25" xmlns="http://www.w3.org/2000/svg" xmlns:xlink="http://www.w3.org/1999/xlink">
<g id="graph0" class="graph" transform="scale(1 1) rotate(0) translate(4 94.25)">
<title>nix::JSONLogger</title>
<!-- Node1 -->
<g id="Node000001" class="node">
<title>Node1</title>
<g id="a_Node000001"><a xlink:title=" ">
<polygon fill="#999999" stroke="#666666" points="94,-20.75 0,-20.75 0,0 94,0 94,-20.75"/>
<text text-anchor="middle" x="47" y="-7.25" font-family="Helvetica,sans-Serif" font-size="10.00">nix::JSONLogger</text>
</a>
</g>
</g>
<!-- Node2 -->
<g id="Node000002" class="node">
<title>Node2</title>
<g id="a_Node000002"><a xlink:href="classnix_1_1Logger.html" target="_top" xlink:title=" ">
<polygon fill="white" stroke="#bfbfbf" points="82,-90.25 12,-90.25 12,-69.5 82,-69.5 82,-90.25"/>
<text text-anchor="middle" x="47" y="-76.75" font-family="Helvetica,sans-Serif" font-size="10.00">nix::Logger</text>
</a>
</g>
</g>
<!-- Node2&#45;&gt;Node1 -->
<g id="edge1_Node000001_Node000002" class="edge">
<title>Node2&#45;&gt;Node1</title>
<g id="a_edge1_Node000001_Node000002"><a xlink:title=" ">
<path fill="none" stroke="#63b8ff" d="M45.3,-57.65C45.18,-55.57 45.07,-53.5 45,-51.5 44.79,-45.84 44.79,-44.41 45,-38.75 45.21,-32.94 45.68,-26.45 46.1,-21.25"/>
<polygon fill="#63b8ff" stroke="#63b8ff" points="41.8,-57.77 46,-67.49 48.78,-57.27 41.8,-57.77"/>
</a>
</g>
</g>
<!-- Node2&#45;&gt;Node1 -->
<g id="edge2_Node000001_Node000002" class="edge">
<title>Node2&#45;&gt;Node1</title>
<g id="a_edge2_Node000001_Node000002"><a xlink:title=" ">
<path fill="none" stroke="#9a32cd" stroke-dasharray="5,2" d="M47,-58.07C47,-45.72 47,-30.65 47,-21.03"/>
<polygon fill="#9a32cd" stroke="#9a32cd" points="43.5,-57.69 47,-67.69 50.5,-57.69 43.5,-57.69"/>
</a>
</g>
<text text-anchor="middle" x="75.88" y="-42" font-family="Helvetica,sans-Serif" font-size="10.00" fill="grey"> prevLogger</text>
</g>
</g>
</svg>
