<?xml version="1.0" encoding="UTF-8" standalone="no"?>
<!DOCTYPE svg PUBLIC "-//W3C//DTD SVG 1.1//EN"
 "http://www.w3.org/Graphics/SVG/1.1/DTD/svg11.dtd">
<!-- Generated by graphviz version 12.2.1 (0)
 -->
<!-- Title: nix::CmdProfileInstall Pages: 1 -->
<svg width="360pt" height="483pt"
 viewBox="0.00 0.00 360.25 482.75" xmlns="http://www.w3.org/2000/svg" xmlns:xlink="http://www.w3.org/1999/xlink">
<g id="graph0" class="graph" transform="scale(1 1) rotate(0) translate(4 478.75)">
<title>nix::CmdProfileInstall</title>
<!-- Node1 -->
<g id="Node000001" class="node">
<title>Node1</title>
<g id="a_Node000001"><a xlink:title=" ">
<polygon fill="#999999" stroke="#666666" points="224.12,-20.75 103.88,-20.75 103.88,0 224.12,0 224.12,-20.75"/>
<text text-anchor="middle" x="164" y="-7.25" font-family="Helvetica,sans-Serif" font-size="10.00">nix::CmdProfileInstall</text>
</a>
</g>
</g>
<!-- Node2 -->
<g id="Node000002" class="node">
<title>Node2</title>
<g id="a_Node000002"><a xlink:href="structnix_1_1InstallablesCommand.html" target="_top" xlink:title=" ">
<polygon fill="white" stroke="#666666" points="185.75,-77.5 42.25,-77.5 42.25,-56.75 185.75,-56.75 185.75,-77.5"/>
<text text-anchor="middle" x="114" y="-64" font-family="Helvetica,sans-Serif" font-size="10.00">nix::InstallablesCommand</text>
</a>
</g>
</g>
<!-- Node2&#45;&gt;Node1 -->
<g id="edge1_Node000001_Node000002" class="edge">
<title>Node2&#45;&gt;Node1</title>
<g id="a_edge1_Node000001_Node000002"><a xlink:title=" ">
<path fill="none" stroke="#63b8ff" d="M130.53,-48.02C138.74,-39.03 148.33,-28.53 155.14,-21.08"/>
<polygon fill="#63b8ff" stroke="#63b8ff" points="128.12,-45.47 123.96,-55.22 133.29,-50.2 128.12,-45.47"/>
</a>
</g>
</g>
<!-- Node3 -->
<g id="Node000003" class="node">
<title>Node3</title>
<g id="a_Node000003"><a xlink:href="structnix_1_1RawInstallablesCommand.html" target="_top" xlink:title=" ">
<polygon fill="white" stroke="#666666" points="181.25,-134.25 16.75,-134.25 16.75,-113.5 181.25,-113.5 181.25,-134.25"/>
<text text-anchor="middle" x="99" y="-120.75" font-family="Helvetica,sans-Serif" font-size="10.00">nix::RawInstallablesCommand</text>
</a>
</g>
</g>
<!-- Node3&#45;&gt;Node2 -->
<g id="edge2_Node000002_Node000003" class="edge">
<title>Node3&#45;&gt;Node2</title>
<g id="a_edge2_Node000002_Node000003"><a xlink:title=" ">
<path fill="none" stroke="#63b8ff" d="M104.66,-102.21C106.96,-93.84 109.49,-84.58 111.34,-77.83"/>
<polygon fill="#63b8ff" stroke="#63b8ff" points="101.35,-101.06 102.08,-111.63 108.1,-102.91 101.35,-101.06"/>
</a>
</g>
</g>
<!-- Node4 -->
<g id="Node000004" class="node">
<title>Node4</title>
<g id="a_Node000004"><a xlink:href="classnix_1_1Args.html" target="_top" xlink:title=" ">
<polygon fill="white" stroke="#bfbfbf" points="159.38,-474.75 100.62,-474.75 100.62,-454 159.38,-454 159.38,-474.75"/>
<text text-anchor="middle" x="130" y="-461.25" font-family="Helvetica,sans-Serif" font-size="10.00">nix::Args</text>
</a>
</g>
</g>
<!-- Node4&#45;&gt;Node3 -->
<g id="edge3_Node000003_Node000004" class="edge">
<title>Node4&#45;&gt;Node3</title>
<g id="a_edge3_Node000003_Node000004"><a xlink:title=" ">
<path fill="none" stroke="#63b8ff" d="M91.43,-449.3C53.1,-432.53 0,-400.52 0,-351.88 0,-351.88 0,-351.88 0,-236.38 0,-205.8 0.08,-194.27 19,-170.25 32.14,-153.57 53.22,-141.97 70.44,-134.68"/>
<polygon fill="#63b8ff" stroke="#63b8ff" points="89.82,-452.42 100.4,-453.04 92.52,-445.96 89.82,-452.42"/>
</a>
</g>
</g>
<!-- Node5 -->
<g id="Node000005" class="node">
<title>Node5</title>
<g id="a_Node000005"><a xlink:href="structnix_1_1SourceExprCommand.html" target="_top" xlink:title=" ">
<polygon fill="white" stroke="#bfbfbf" points="170,-191 28,-191 28,-170.25 170,-170.25 170,-191"/>
<text text-anchor="middle" x="99" y="-177.5" font-family="Helvetica,sans-Serif" font-size="10.00">nix::SourceExprCommand</text>
</a>
</g>
</g>
<!-- Node4&#45;&gt;Node5 -->
<g id="edge5_Node000005_Node000004" class="edge">
<title>Node4&#45;&gt;Node5</title>
<g id="a_edge5_Node000005_Node000004"><a xlink:title=" ">
<path fill="none" stroke="#63b8ff" d="M109.38,-446.38C87.49,-426.3 56,-390.67 56,-351.88 56,-351.88 56,-351.88 56,-293.12 56,-253.08 80.44,-210.04 92.47,-191.28"/>
<polygon fill="#63b8ff" stroke="#63b8ff" points="106.82,-448.79 116.64,-452.77 111.45,-443.53 106.82,-448.79"/>
</a>
</g>
</g>
<!-- Node6 -->
<g id="Node000006" class="node">
<title>Node6</title>
<g id="a_Node000006"><a xlink:href="structnix_1_1MixFlakeOptions.html" target="_top" xlink:title=" ">
<polygon fill="white" stroke="#666666" points="202.38,-247.75 83.62,-247.75 83.62,-227 202.38,-227 202.38,-247.75"/>
<text text-anchor="middle" x="143" y="-234.25" font-family="Helvetica,sans-Serif" font-size="10.00">nix::MixFlakeOptions</text>
</a>
</g>
</g>
<!-- Node4&#45;&gt;Node6 -->
<g id="edge7_Node000006_Node000004" class="edge">
<title>Node4&#45;&gt;Node6</title>
<g id="a_edge7_Node000006_Node000004"><a xlink:title=" ">
<path fill="none" stroke="#63b8ff" d="M120.63,-443.1C117.55,-435.41 114.53,-426.47 113,-418 102.31,-359.01 108.75,-341.16 126,-283.75 129.78,-271.18 135.26,-257.08 138.97,-247.98"/>
<polygon fill="#63b8ff" stroke="#63b8ff" points="117.38,-444.39 124.55,-452.19 123.8,-441.62 117.38,-444.39"/>
</a>
</g>
</g>
<!-- Node9 -->
<g id="Node000009" class="node">
<title>Node9</title>
<g id="a_Node000009"><a xlink:href="structnix_1_1Command.html" target="_top" xlink:title=" ">
<polygon fill="white" stroke="#666666" points="209.62,-418 122.38,-418 122.38,-397.25 209.62,-397.25 209.62,-418"/>
<text text-anchor="middle" x="166" y="-404.5" font-family="Helvetica,sans-Serif" font-size="10.00">nix::Command</text>
</a>
</g>
</g>
<!-- Node4&#45;&gt;Node9 -->
<g id="edge11_Node000009_Node000004" class="edge">
<title>Node4&#45;&gt;Node9</title>
<g id="a_edge11_Node000009_Node000004"><a xlink:title=" ">
<path fill="none" stroke="#63b8ff" d="M142.65,-444.14C148.39,-435.41 154.92,-425.47 159.62,-418.33"/>
<polygon fill="#63b8ff" stroke="#63b8ff" points="139.84,-442.04 137.27,-452.32 145.69,-445.89 139.84,-442.04"/>
</a>
</g>
</g>
<!-- Node10 -->
<g id="Node000010" class="node">
<title>Node10</title>
<g id="a_Node000010"><a xlink:href="structnix_1_1MixEvalArgs.html" target="_top" xlink:title=" ">
<polygon fill="white" stroke="#bfbfbf" points="349.88,-361.25 252.12,-361.25 252.12,-340.5 349.88,-340.5 349.88,-361.25"/>
<text text-anchor="middle" x="301" y="-347.75" font-family="Helvetica,sans-Serif" font-size="10.00">nix::MixEvalArgs</text>
</a>
</g>
</g>
<!-- Node4&#45;&gt;Node10 -->
<g id="edge13_Node000010_Node000004" class="edge">
<title>Node4&#45;&gt;Node10</title>
<g id="a_edge13_Node000010_Node000004"><a xlink:title=" ">
<path fill="none" stroke="#63b8ff" d="M162.45,-448.83C179.72,-440.6 201.04,-429.64 219,-418 246.32,-400.29 275.29,-375.24 290.41,-361.62"/>
<polygon fill="#63b8ff" stroke="#63b8ff" points="161.23,-445.54 153.65,-452.95 164.19,-451.88 161.23,-445.54"/>
</a>
</g>
</g>
<!-- Node11 -->
<g id="Node000011" class="node">
<title>Node11</title>
<g id="a_Node000011"><a xlink:href="structnix_1_1MixRepair.html" target="_top" xlink:title=" ">
<polygon fill="white" stroke="#bfbfbf" points="352.25,-418 265.75,-418 265.75,-397.25 352.25,-397.25 352.25,-418"/>
<text text-anchor="middle" x="309" y="-404.5" font-family="Helvetica,sans-Serif" font-size="10.00">nix::MixRepair</text>
</a>
</g>
</g>
<!-- Node4&#45;&gt;Node11 -->
<g id="edge15_Node000011_Node000004" class="edge">
<title>Node4&#45;&gt;Node11</title>
<g id="a_edge15_Node000011_Node000004"><a xlink:title=" ">
<path fill="none" stroke="#63b8ff" d="M170.4,-451.02C202.64,-441.16 247.18,-427.53 276.98,-418.42"/>
<polygon fill="#63b8ff" stroke="#63b8ff" points="169.54,-447.62 161.01,-453.89 171.59,-454.31 169.54,-447.62"/>
</a>
</g>
</g>
<!-- Node5&#45;&gt;Node3 -->
<g id="edge4_Node000003_Node000005" class="edge">
<title>Node5&#45;&gt;Node3</title>
<g id="a_edge4_Node000003_Node000005"><a xlink:title=" ">
<path fill="none" stroke="#63b8ff" d="M99,-158.38C99,-150.16 99,-141.18 99,-134.58"/>
<polygon fill="#63b8ff" stroke="#63b8ff" points="95.5,-158.32 99,-168.32 102.5,-158.32 95.5,-158.32"/>
</a>
</g>
</g>
<!-- Node6&#45;&gt;Node5 -->
<g id="edge6_Node000005_Node000006" class="edge">
<title>Node6&#45;&gt;Node5</title>
<g id="a_edge6_Node000005_Node000006"><a xlink:title=" ">
<path fill="none" stroke="#63b8ff" d="M128,-217.71C120.88,-208.84 112.66,-198.62 106.8,-191.33"/>
<polygon fill="#63b8ff" stroke="#63b8ff" points="125.19,-219.8 134.19,-225.41 130.65,-215.42 125.19,-219.8"/>
</a>
</g>
</g>
<!-- Node7 -->
<g id="Node000007" class="node">
<title>Node7</title>
<g id="a_Node000007"><a xlink:href="structnix_1_1EvalCommand.html" target="_top" xlink:title=" ">
<polygon fill="white" stroke="#666666" points="347.12,-304.5 238.88,-304.5 238.88,-283.75 347.12,-283.75 347.12,-304.5"/>
<text text-anchor="middle" x="293" y="-291" font-family="Helvetica,sans-Serif" font-size="10.00">nix::EvalCommand</text>
</a>
</g>
</g>
<!-- Node7&#45;&gt;Node6 -->
<g id="edge8_Node000006_Node000007" class="edge">
<title>Node7&#45;&gt;Node6</title>
<g id="a_edge8_Node000006_Node000007"><a xlink:title=" ">
<path fill="none" stroke="#63b8ff" d="M255.7,-279.51C229.03,-269.78 193.77,-256.9 169.84,-248.17"/>
<polygon fill="#63b8ff" stroke="#63b8ff" points="254.17,-282.68 264.76,-282.82 256.57,-276.1 254.17,-282.68"/>
</a>
</g>
</g>
<!-- Node8 -->
<g id="Node000008" class="node">
<title>Node8</title>
<g id="a_Node000008"><a xlink:href="structnix_1_1StoreCommand.html" target="_top" xlink:title=" ">
<polygon fill="white" stroke="#666666" points="234.38,-361.25 121.62,-361.25 121.62,-340.5 234.38,-340.5 234.38,-361.25"/>
<text text-anchor="middle" x="178" y="-347.75" font-family="Helvetica,sans-Serif" font-size="10.00">nix::StoreCommand</text>
</a>
</g>
</g>
<!-- Node8&#45;&gt;Node7 -->
<g id="edge9_Node000007_Node000008" class="edge">
<title>Node8&#45;&gt;Node7</title>
<g id="a_edge9_Node000007_Node000008"><a xlink:title=" ">
<path fill="none" stroke="#63b8ff" d="M208.83,-335.2C229.06,-325.57 254.93,-313.25 272.62,-304.83"/>
<polygon fill="#63b8ff" stroke="#63b8ff" points="207.45,-331.98 199.93,-339.44 210.46,-338.3 207.45,-331.98"/>
</a>
</g>
</g>
<!-- Node13 -->
<g id="Node000013" class="node">
<title>Node13</title>
<g id="a_Node000013"><a xlink:href="structnix_1_1MixProfile.html" target="_top" xlink:title=" ">
<polygon fill="white" stroke="#bfbfbf" points="220.88,-304.5 135.12,-304.5 135.12,-283.75 220.88,-283.75 220.88,-304.5"/>
<text text-anchor="middle" x="178" y="-291" font-family="Helvetica,sans-Serif" font-size="10.00">nix::MixProfile</text>
</a>
</g>
</g>
<!-- Node8&#45;&gt;Node13 -->
<g id="edge18_Node000013_Node000008" class="edge">
<title>Node8&#45;&gt;Node13</title>
<g id="a_edge18_Node000013_Node000008"><a xlink:title=" ">
<path fill="none" stroke="#63b8ff" d="M178,-328.63C178,-320.41 178,-311.43 178,-304.83"/>
<polygon fill="#63b8ff" stroke="#63b8ff" points="174.5,-328.57 178,-338.57 181.5,-328.57 174.5,-328.57"/>
</a>
</g>
</g>
<!-- Node9&#45;&gt;Node8 -->
<g id="edge10_Node000008_Node000009" class="edge">
<title>Node9&#45;&gt;Node8</title>
<g id="a_edge10_Node000008_Node000009"><a xlink:title=" ">
<path fill="none" stroke="#63b8ff" d="M170.59,-385.67C172.41,-377.38 174.41,-368.25 175.87,-361.58"/>
<polygon fill="#63b8ff" stroke="#63b8ff" points="167.19,-384.84 168.47,-395.36 174.03,-386.34 167.19,-384.84"/>
</a>
</g>
</g>
<!-- Node10&#45;&gt;Node7 -->
<g id="edge12_Node000007_Node000010" class="edge">
<title>Node10&#45;&gt;Node7</title>
<g id="a_edge12_Node000007_Node000010"><a xlink:title=" ">
<path fill="none" stroke="#63b8ff" d="M297.94,-328.92C296.73,-320.63 295.39,-311.5 294.42,-304.83"/>
<polygon fill="#63b8ff" stroke="#63b8ff" points="294.44,-329.2 299.35,-338.59 301.37,-328.19 294.44,-329.2"/>
</a>
</g>
</g>
<!-- Node11&#45;&gt;Node10 -->
<g id="edge14_Node000010_Node000011" class="edge">
<title>Node11&#45;&gt;Node10</title>
<g id="a_edge14_Node000010_Node000011"><a xlink:title=" ">
<path fill="none" stroke="#63b8ff" d="M305.94,-385.67C304.73,-377.38 303.39,-368.25 302.42,-361.58"/>
<polygon fill="#63b8ff" stroke="#63b8ff" points="302.44,-385.95 307.35,-395.34 309.37,-384.94 302.44,-385.95"/>
</a>
</g>
</g>
<!-- Node12 -->
<g id="Node000012" class="node">
<title>Node12</title>
<g id="a_Node000012"><a xlink:href="structnix_1_1MixDefaultProfile.html" target="_top" xlink:title=" ">
<polygon fill="white" stroke="#bfbfbf" points="309.88,-191 188.12,-191 188.12,-170.25 309.88,-170.25 309.88,-191"/>
<text text-anchor="middle" x="249" y="-177.5" font-family="Helvetica,sans-Serif" font-size="10.00">nix::MixDefaultProfile</text>
</a>
</g>
</g>
<!-- Node12&#45;&gt;Node1 -->
<g id="edge16_Node000001_Node000012" class="edge">
<title>Node12&#45;&gt;Node1</title>
<g id="a_edge16_Node000001_Node000012"><a xlink:title=" ">
<path fill="none" stroke="#63b8ff" d="M241.35,-159.14C231.76,-134.28 214.24,-91.42 195,-56.75 187.87,-43.9 178.1,-30.09 171.45,-21.13"/>
<polygon fill="#63b8ff" stroke="#63b8ff" points="238.03,-160.25 244.85,-168.36 244.57,-157.77 238.03,-160.25"/>
</a>
</g>
</g>
<!-- Node13&#45;&gt;Node12 -->
<g id="edge17_Node000012_Node000013" class="edge">
<title>Node13&#45;&gt;Node12</title>
<g id="a_edge17_Node000012_Node000013"><a xlink:title=" ">
<path fill="none" stroke="#63b8ff" d="M192.12,-274.66C198.14,-266.54 205.12,-256.81 211,-247.75 223.68,-228.2 236.88,-204.27 243.9,-191.23"/>
<polygon fill="#63b8ff" stroke="#63b8ff" points="189.52,-272.3 186.3,-282.39 195.11,-276.51 189.52,-272.3"/>
</a>
</g>
</g>
</g>
</svg>
