<?xml version="1.0" encoding="UTF-8" standalone="no"?>
<!DOCTYPE svg PUBLIC "-//W3C//DTD SVG 1.1//EN"
 "http://www.w3.org/Graphics/SVG/1.1/DTD/svg11.dtd">
<!-- Generated by graphviz version 12.2.1 (0)
 -->
<!-- Title: nix::CmdProfileRollback Pages: 1 -->
<svg width="282pt" height="272pt"
 viewBox="0.00 0.00 281.88 271.50" xmlns="http://www.w3.org/2000/svg" xmlns:xlink="http://www.w3.org/1999/xlink">
<g id="graph0" class="graph" transform="scale(1 1) rotate(0) translate(4 267.5)">
<title>nix::CmdProfileRollback</title>
<!-- Node1 -->
<g id="Node000001" class="node">
<title>Node1</title>
<g id="a_Node000001"><a xlink:title=" ">
<polygon fill="#999999" stroke="#666666" points="170.5,-20.75 38.25,-20.75 38.25,0 170.5,0 170.5,-20.75"/>
<text text-anchor="middle" x="104.38" y="-7.25" font-family="Helvetica,sans-Serif" font-size="10.00">nix::CmdProfileRollback</text>
</a>
</g>
</g>
<!-- Node2 -->
<g id="Node000002" class="node">
<title>Node2</title>
<g id="a_Node000002"><a xlink:href="structnix_1_1StoreCommand.html" target="_top" xlink:title=" ">
<polygon fill="white" stroke="#666666" points="112.75,-205.75 0,-205.75 0,-185 112.75,-185 112.75,-205.75"/>
<text text-anchor="middle" x="56.38" y="-192.25" font-family="Helvetica,sans-Serif" font-size="10.00">nix::StoreCommand</text>
</a>
</g>
</g>
<!-- Node2&#45;&gt;Node1 -->
<g id="edge1_Node000001_Node000002" class="edge">
<title>Node2&#45;&gt;Node1</title>
<g id="a_edge1_Node000001_Node000002"><a xlink:title=" ">
<path fill="none" stroke="#63b8ff" d="M45.95,-174.74C32.77,-147 14.09,-95.51 34.38,-57.75 43.62,-40.54 62.36,-28.64 78.13,-21.21"/>
<polygon fill="#63b8ff" stroke="#63b8ff" points="42.68,-176.03 50.29,-183.4 48.94,-172.9 42.68,-176.03"/>
</a>
</g>
</g>
<!-- Node7 -->
<g id="Node000007" class="node">
<title>Node7</title>
<g id="a_Node000007"><a xlink:href="structnix_1_1MixProfile.html" target="_top" xlink:title=" ">
<polygon fill="white" stroke="#bfbfbf" points="134.25,-136.25 48.5,-136.25 48.5,-115.5 134.25,-115.5 134.25,-136.25"/>
<text text-anchor="middle" x="91.38" y="-122.75" font-family="Helvetica,sans-Serif" font-size="10.00">nix::MixProfile</text>
</a>
</g>
</g>
<!-- Node2&#45;&gt;Node7 -->
<g id="edge8_Node000007_Node000002" class="edge">
<title>Node2&#45;&gt;Node7</title>
<g id="a_edge8_Node000007_Node000002"><a xlink:title=" ">
<path fill="none" stroke="#63b8ff" d="M66.57,-174.72C73.08,-162.17 81.23,-146.45 86.37,-136.53"/>
<polygon fill="#63b8ff" stroke="#63b8ff" points="63.58,-172.87 62.09,-183.36 69.8,-176.09 63.58,-172.87"/>
</a>
</g>
</g>
<!-- Node3 -->
<g id="Node000003" class="node">
<title>Node3</title>
<g id="a_Node000003"><a xlink:href="structnix_1_1Command.html" target="_top" xlink:title=" ">
<polygon fill="white" stroke="#666666" points="230,-263.5 142.75,-263.5 142.75,-242.75 230,-242.75 230,-263.5"/>
<text text-anchor="middle" x="186.38" y="-250" font-family="Helvetica,sans-Serif" font-size="10.00">nix::Command</text>
</a>
</g>
</g>
<!-- Node3&#45;&gt;Node2 -->
<g id="edge2_Node000002_Node000003" class="edge">
<title>Node3&#45;&gt;Node2</title>
<g id="a_edge2_Node000002_Node000003"><a xlink:title=" ">
<path fill="none" stroke="#63b8ff" d="M153.02,-237.82C129.83,-227.87 99.53,-214.88 79.09,-206.12"/>
<polygon fill="#63b8ff" stroke="#63b8ff" points="151.47,-240.97 162.04,-241.69 154.23,-234.53 151.47,-240.97"/>
</a>
</g>
</g>
<!-- Node5 -->
<g id="Node000005" class="node">
<title>Node5</title>
<g id="a_Node000005"><a xlink:href="classnix_1_1MultiCommand.html" target="_top" xlink:title=" ">
<polygon fill="white" stroke="#666666" points="242.38,-205.75 130.38,-205.75 130.38,-185 242.38,-185 242.38,-205.75"/>
<text text-anchor="middle" x="186.38" y="-192.25" font-family="Helvetica,sans-Serif" font-size="10.00">nix::MultiCommand</text>
</a>
</g>
</g>
<!-- Node3&#45;&gt;Node5 -->
<g id="edge5_Node000005_Node000003" class="edge">
<title>Node3&#45;&gt;Node5</title>
<g id="a_edge5_Node000005_Node000003"><a xlink:title=" ">
<path fill="none" stroke="#63b8ff" d="M186.38,-231.18C186.38,-222.52 186.38,-212.9 186.38,-205.97"/>
<polygon fill="#63b8ff" stroke="#63b8ff" points="182.88,-230.9 186.38,-240.9 189.88,-230.9 182.88,-230.9"/>
</a>
</g>
</g>
<!-- Node4 -->
<g id="Node000004" class="node">
<title>Node4</title>
<g id="a_Node000004"><a xlink:href="classnix_1_1Args.html" target="_top" xlink:title=" ">
<polygon fill="white" stroke="#bfbfbf" points="257.75,-136.25 199,-136.25 199,-115.5 257.75,-115.5 257.75,-136.25"/>
<text text-anchor="middle" x="228.38" y="-122.75" font-family="Helvetica,sans-Serif" font-size="10.00">nix::Args</text>
</a>
</g>
</g>
<!-- Node4&#45;&gt;Node3 -->
<g id="edge3_Node000003_Node000004" class="edge">
<title>Node4&#45;&gt;Node3</title>
<g id="a_edge3_Node000003_Node000004"><a xlink:title=" ">
<path fill="none" stroke="#63b8ff" d="M244.98,-145.68C246.73,-148.41 248.27,-151.3 249.38,-154.25 250.44,-157.07 254.29,-200.09 251.38,-205.75 242.68,-222.63 224.68,-234.73 209.82,-242.32"/>
<polygon fill="#63b8ff" stroke="#63b8ff" points="247.89,-143.72 239.07,-137.85 242.31,-147.94 247.89,-143.72"/>
</a>
</g>
</g>
<!-- Node8 -->
<g id="Node000008" class="node">
<title>Node8</title>
<g id="a_Node000008"><a xlink:href="structnix_1_1MixDryRun.html" target="_top" xlink:title=" ">
<polygon fill="white" stroke="#bfbfbf" points="273.88,-78.5 182.88,-78.5 182.88,-57.75 273.88,-57.75 273.88,-78.5"/>
<text text-anchor="middle" x="228.38" y="-65" font-family="Helvetica,sans-Serif" font-size="10.00">nix::MixDryRun</text>
</a>
</g>
</g>
<!-- Node4&#45;&gt;Node8 -->
<g id="edge10_Node000008_Node000004" class="edge">
<title>Node4&#45;&gt;Node8</title>
<g id="a_edge10_Node000008_Node000004"><a xlink:title=" ">
<path fill="none" stroke="#63b8ff" d="M228.38,-103.93C228.38,-95.27 228.38,-85.65 228.38,-78.72"/>
<polygon fill="#63b8ff" stroke="#63b8ff" points="224.88,-103.65 228.38,-113.65 231.88,-103.65 224.88,-103.65"/>
</a>
</g>
</g>
<!-- Node5&#45;&gt;Node4 -->
<g id="edge4_Node000004_Node000005" class="edge">
<title>Node5&#45;&gt;Node4</title>
<g id="a_edge4_Node000004_Node000005"><a xlink:title=" ">
<path fill="none" stroke="#9a32cd" stroke-dasharray="5,2" d="M198.37,-175.1C206.22,-162.48 216.14,-146.55 222.37,-136.53"/>
<polygon fill="#9a32cd" stroke="#9a32cd" points="195.5,-173.08 193.19,-183.42 201.45,-176.78 195.5,-173.08"/>
</a>
</g>
<text text-anchor="middle" x="228.39" y="-157.5" font-family="Helvetica,sans-Serif" font-size="10.00" fill="grey"> parent</text>
</g>
<!-- Node6 -->
<g id="Node000006" class="node">
<title>Node6</title>
<g id="a_Node000006"><a xlink:href="structnix_1_1MixDefaultProfile.html" target="_top" xlink:title=" ">
<polygon fill="white" stroke="#bfbfbf" points="165.25,-78.5 43.5,-78.5 43.5,-57.75 165.25,-57.75 165.25,-78.5"/>
<text text-anchor="middle" x="104.38" y="-65" font-family="Helvetica,sans-Serif" font-size="10.00">nix::MixDefaultProfile</text>
</a>
</g>
</g>
<!-- Node6&#45;&gt;Node1 -->
<g id="edge6_Node000001_Node000006" class="edge">
<title>Node6&#45;&gt;Node1</title>
<g id="a_edge6_Node000001_Node000006"><a xlink:title=" ">
<path fill="none" stroke="#63b8ff" d="M104.38,-46.18C104.38,-37.52 104.38,-27.9 104.38,-20.97"/>
<polygon fill="#63b8ff" stroke="#63b8ff" points="100.88,-45.9 104.38,-55.9 107.88,-45.9 100.88,-45.9"/>
</a>
</g>
</g>
<!-- Node7&#45;&gt;Node6 -->
<g id="edge7_Node000006_Node000007" class="edge">
<title>Node7&#45;&gt;Node6</title>
<g id="a_edge7_Node000006_Node000007"><a xlink:title=" ">
<path fill="none" stroke="#63b8ff" d="M96.19,-104.23C98.23,-95.49 100.5,-85.73 102.14,-78.72"/>
<polygon fill="#63b8ff" stroke="#63b8ff" points="92.85,-103.16 93.98,-113.69 99.66,-104.75 92.85,-103.16"/>
</a>
</g>
</g>
<!-- Node8&#45;&gt;Node1 -->
<g id="edge9_Node000001_Node000008" class="edge">
<title>Node8&#45;&gt;Node1</title>
<g id="a_edge9_Node000001_Node000008"><a xlink:title=" ">
<path fill="none" stroke="#63b8ff" d="M196.26,-52.68C174.17,-42.76 145.45,-29.84 126.04,-21.12"/>
<polygon fill="#63b8ff" stroke="#63b8ff" points="194.56,-55.76 205.11,-56.67 197.43,-49.37 194.56,-55.76"/>
</a>
</g>
</g>
</g>
</svg>
