<?xml version="1.0" encoding="UTF-8" standalone="no"?>
<!DOCTYPE svg PUBLIC "-//W3C//DTD SVG 1.1//EN"
 "http://www.w3.org/Graphics/SVG/1.1/DTD/svg11.dtd">
<!-- Generated by graphviz version 12.2.1 (0)
 -->
<!-- Title: nix::daemon::TunnelSink Pages: 1 -->
<svg width="143pt" height="98pt"
 viewBox="0.00 0.00 143.25 98.25" xmlns="http://www.w3.org/2000/svg" xmlns:xlink="http://www.w3.org/1999/xlink">
<g id="graph0" class="graph" transform="scale(1 1) rotate(0) translate(4 94.25)">
<title>nix::daemon::TunnelSink</title>
<!-- Node1 -->
<g id="Node000001" class="node">
<title>Node1</title>
<g id="a_Node000001"><a xlink:title=" ">
<polygon fill="#999999" stroke="#666666" points="135.25,-20.75 0,-20.75 0,0 135.25,0 135.25,-20.75"/>
<text text-anchor="middle" x="67.62" y="-7.25" font-family="Helvetica,sans-Serif" font-size="10.00">nix::daemon::TunnelSink</text>
</a>
</g>
</g>
<!-- Node2 -->
<g id="Node000002" class="node">
<title>Node2</title>
<g id="a_Node000002"><a xlink:href="structnix_1_1Sink.html" target="_top" xlink:title=" ">
<polygon fill="white" stroke="#666666" points="96.62,-90.25 38.62,-90.25 38.62,-69.5 96.62,-69.5 96.62,-90.25"/>
<text text-anchor="middle" x="67.62" y="-76.75" font-family="Helvetica,sans-Serif" font-size="10.00">nix::Sink</text>
</a>
</g>
</g>
<!-- Node2&#45;&gt;Node1 -->
<g id="edge1_Node000001_Node000002" class="edge">
<title>Node2&#45;&gt;Node1</title>
<g id="a_edge1_Node000001_Node000002"><a xlink:title=" ">
<path fill="none" stroke="#63b8ff" d="M65.92,-57.65C65.8,-55.57 65.7,-53.5 65.62,-51.5 65.42,-45.84 65.42,-44.41 65.62,-38.75 65.84,-32.94 66.3,-26.45 66.73,-21.25"/>
<polygon fill="#63b8ff" stroke="#63b8ff" points="62.42,-57.77 66.62,-67.49 69.4,-57.27 62.42,-57.77"/>
</a>
</g>
</g>
<!-- Node2&#45;&gt;Node1 -->
<g id="edge2_Node000001_Node000002" class="edge">
<title>Node2&#45;&gt;Node1</title>
<g id="a_edge2_Node000001_Node000002"><a xlink:title=" ">
<path fill="none" stroke="#9a32cd" stroke-dasharray="5,2" d="M67.62,-58.07C67.62,-45.72 67.62,-30.65 67.62,-21.03"/>
<polygon fill="#9a32cd" stroke="#9a32cd" points="64.13,-57.69 67.63,-67.69 71.13,-57.69 64.13,-57.69"/>
</a>
</g>
<text text-anchor="middle" x="74" y="-42" font-family="Helvetica,sans-Serif" font-size="10.00" fill="grey"> to</text>
</g>
</g>
</svg>
