<?xml version="1.0" encoding="UTF-8" standalone="no"?>
<!DOCTYPE svg PUBLIC "-//W3C//DTD SVG 1.1//EN"
 "http://www.w3.org/Graphics/SVG/1.1/DTD/svg11.dtd">
<!-- Generated by graphviz version 12.2.1 (0)
 -->
<!-- Title: nix::NixRepl Pages: 1 -->
<svg width="286pt" height="155pt"
 viewBox="0.00 0.00 285.62 155.00" xmlns="http://www.w3.org/2000/svg" xmlns:xlink="http://www.w3.org/1999/xlink">
<g id="graph0" class="graph" transform="scale(1 1) rotate(0) translate(4 151)">
<title>nix::NixRepl</title>
<!-- Node1 -->
<g id="Node000001" class="node">
<title>Node1</title>
<g id="a_Node000001"><a xlink:title=" ">
<polygon fill="#999999" stroke="#666666" points="169.5,-20.75 94.25,-20.75 94.25,0 169.5,0 169.5,-20.75"/>
<text text-anchor="middle" x="131.88" y="-7.25" font-family="Helvetica,sans-Serif" font-size="10.00">nix::NixRepl</text>
</a>
</g>
</g>
<!-- Node2 -->
<g id="Node000002" class="node">
<title>Node2</title>
<g id="a_Node000002"><a xlink:href="structnix_1_1AbstractNixRepl.html" target="_top" xlink:title=" ">
<polygon fill="white" stroke="#bfbfbf" points="115.75,-83.88 0,-83.88 0,-63.12 115.75,-63.12 115.75,-83.88"/>
<text text-anchor="middle" x="57.88" y="-70.38" font-family="Helvetica,sans-Serif" font-size="10.00">nix::AbstractNixRepl</text>
</a>
</g>
</g>
<!-- Node2&#45;&gt;Node1 -->
<g id="edge1_Node000001_Node000002" class="edge">
<title>Node2&#45;&gt;Node1</title>
<g id="a_edge1_Node000001_Node000002"><a xlink:title=" ">
<path fill="none" stroke="#63b8ff" d="M78.4,-55.54C91.9,-44.4 109.07,-30.21 120.26,-20.97"/>
<polygon fill="#63b8ff" stroke="#63b8ff" points="76.41,-52.65 70.93,-61.72 80.87,-58.05 76.41,-52.65"/>
</a>
</g>
</g>
<!-- Node3 -->
<g id="Node000003" class="node">
<title>Node3</title>
<g id="a_Node000003"><a xlink:href="structnix_1_1NeverAsync.html" target="_top" xlink:title=" ">
<polygon fill="white" stroke="#666666" points="105.62,-147 10.12,-147 10.12,-126.25 105.62,-126.25 105.62,-147"/>
<text text-anchor="middle" x="57.88" y="-133.5" font-family="Helvetica,sans-Serif" font-size="10.00">nix::NeverAsync</text>
</a>
</g>
</g>
<!-- Node3&#45;&gt;Node2 -->
<g id="edge2_Node000002_Node000003" class="edge">
<title>Node3&#45;&gt;Node2</title>
<g id="a_edge2_Node000002_Node000003"><a xlink:title=" ">
<path fill="none" stroke="#63b8ff" d="M57.88,-114.36C57.88,-104.05 57.88,-92.18 57.88,-84.09"/>
<polygon fill="#63b8ff" stroke="#63b8ff" points="54.38,-114.29 57.88,-124.29 61.38,-114.29 54.38,-114.29"/>
</a>
</g>
</g>
<!-- Node4 -->
<g id="Node000004" class="node">
<title>Node4</title>
<g id="a_Node000004"><a xlink:href="structnix_1_1detail_1_1ReplCompleterMixin.html" target="_top" xlink:title=" ">
<polygon fill="white" stroke="#666666" points="277.62,-90.25 134.12,-90.25 134.12,-56.75 277.62,-56.75 277.62,-90.25"/>
<text text-anchor="start" x="142.12" y="-76.75" font-family="Helvetica,sans-Serif" font-size="10.00">nix::detail::ReplCompleter</text>
<text text-anchor="middle" x="205.88" y="-64" font-family="Helvetica,sans-Serif" font-size="10.00">Mixin</text>
</a>
</g>
</g>
<!-- Node4&#45;&gt;Node1 -->
<g id="edge3_Node000001_Node000004" class="edge">
<title>Node4&#45;&gt;Node1</title>
<g id="a_edge3_Node000001_Node000004"><a xlink:title=" ">
<path fill="none" stroke="#63b8ff" d="M177.77,-49.28C166,-39.56 152.95,-28.79 143.79,-21.22"/>
<polygon fill="#63b8ff" stroke="#63b8ff" points="175.33,-51.81 185.27,-55.48 179.78,-46.41 175.33,-51.81"/>
</a>
</g>
</g>
</g>
</svg>
