<?xml version="1.0" encoding="UTF-8" standalone="no"?>
<!DOCTYPE svg PUBLIC "-//W3C//DTD SVG 1.1//EN"
 "http://www.w3.org/Graphics/SVG/1.1/DTD/svg11.dtd">
<!-- Generated by graphviz version 12.2.1 (0)
 -->
<!-- Title: nix::CmdUpgradeNix Pages: 1 -->
<svg width="318pt" height="256pt"
 viewBox="0.00 0.00 317.75 255.75" xmlns="http://www.w3.org/2000/svg" xmlns:xlink="http://www.w3.org/1999/xlink">
<g id="graph0" class="graph" transform="scale(1 1) rotate(0) translate(4 251.75)">
<title>nix::CmdUpgradeNix</title>
<!-- Node1 -->
<g id="Node000001" class="node">
<title>Node1</title>
<g id="a_Node000001"><a xlink:title=" ">
<polygon fill="#999999" stroke="#666666" points="163.12,-20.75 45.88,-20.75 45.88,0 163.12,0 163.12,-20.75"/>
<text text-anchor="middle" x="104.5" y="-7.25" font-family="Helvetica,sans-Serif" font-size="10.00">nix::CmdUpgradeNix</text>
</a>
</g>
</g>
<!-- Node2 -->
<g id="Node000002" class="node">
<title>Node2</title>
<g id="a_Node000002"><a xlink:href="structnix_1_1MixDryRun.html" target="_top" xlink:title=" ">
<polygon fill="white" stroke="#bfbfbf" points="91,-77.5 0,-77.5 0,-56.75 91,-56.75 91,-77.5"/>
<text text-anchor="middle" x="45.5" y="-64" font-family="Helvetica,sans-Serif" font-size="10.00">nix::MixDryRun</text>
</a>
</g>
</g>
<!-- Node2&#45;&gt;Node1 -->
<g id="edge1_Node000001_Node000002" class="edge">
<title>Node2&#45;&gt;Node1</title>
<g id="a_edge1_Node000001_Node000002"><a xlink:title=" ">
<path fill="none" stroke="#63b8ff" d="M64.41,-48.58C74.22,-39.47 85.85,-28.68 94.04,-21.08"/>
<polygon fill="#63b8ff" stroke="#63b8ff" points="62.11,-45.94 57.16,-55.31 66.87,-51.07 62.11,-45.94"/>
</a>
</g>
</g>
<!-- Node3 -->
<g id="Node000003" class="node">
<title>Node3</title>
<g id="a_Node000003"><a xlink:href="classnix_1_1Args.html" target="_top" xlink:title=" ">
<polygon fill="white" stroke="#bfbfbf" points="188.88,-247.75 130.12,-247.75 130.12,-227 188.88,-227 188.88,-247.75"/>
<text text-anchor="middle" x="159.5" y="-234.25" font-family="Helvetica,sans-Serif" font-size="10.00">nix::Args</text>
</a>
</g>
</g>
<!-- Node3&#45;&gt;Node2 -->
<g id="edge2_Node000002_Node000003" class="edge">
<title>Node3&#45;&gt;Node2</title>
<g id="a_edge2_Node000002_Node000003"><a xlink:title=" ">
<path fill="none" stroke="#63b8ff" d="M119.28,-224.71C101.79,-217.67 82.58,-206.89 70.5,-191 44.02,-156.17 43.71,-100.28 44.8,-77.88"/>
<polygon fill="#63b8ff" stroke="#63b8ff" points="117.85,-227.92 128.45,-228.11 120.28,-221.35 117.85,-227.92"/>
</a>
</g>
</g>
<!-- Node6 -->
<g id="Node000006" class="node">
<title>Node6</title>
<g id="a_Node000006"><a xlink:href="structnix_1_1Command.html" target="_top" xlink:title=" ">
<polygon fill="white" stroke="#666666" points="167.12,-191 79.88,-191 79.88,-170.25 167.12,-170.25 167.12,-191"/>
<text text-anchor="middle" x="123.5" y="-177.5" font-family="Helvetica,sans-Serif" font-size="10.00">nix::Command</text>
</a>
</g>
</g>
<!-- Node3&#45;&gt;Node6 -->
<g id="edge6_Node000006_Node000003" class="edge">
<title>Node3&#45;&gt;Node6</title>
<g id="a_edge6_Node000006_Node000003"><a xlink:title=" ">
<path fill="none" stroke="#63b8ff" d="M146.85,-217.14C141.11,-208.41 134.58,-198.47 129.88,-191.33"/>
<polygon fill="#63b8ff" stroke="#63b8ff" points="143.81,-218.89 152.23,-225.32 149.66,-215.04 143.81,-218.89"/>
</a>
</g>
</g>
<!-- Node7 -->
<g id="Node000007" class="node">
<title>Node7</title>
<g id="a_Node000007"><a xlink:href="structnix_1_1MixEvalArgs.html" target="_top" xlink:title=" ">
<polygon fill="white" stroke="#bfbfbf" points="301.38,-134.25 203.62,-134.25 203.62,-113.5 301.38,-113.5 301.38,-134.25"/>
<text text-anchor="middle" x="252.5" y="-120.75" font-family="Helvetica,sans-Serif" font-size="10.00">nix::MixEvalArgs</text>
</a>
</g>
</g>
<!-- Node3&#45;&gt;Node7 -->
<g id="edge8_Node000007_Node000003" class="edge">
<title>Node3&#45;&gt;Node7</title>
<g id="a_edge8_Node000007_Node000003"><a xlink:title=" ">
<path fill="none" stroke="#63b8ff" d="M174.89,-217.84C185.91,-204.58 201.1,-186.3 214.5,-170.25 224.77,-157.94 236.64,-143.79 244.34,-134.6"/>
<polygon fill="#63b8ff" stroke="#63b8ff" points="172.35,-215.41 168.66,-225.34 177.74,-219.89 172.35,-215.41"/>
</a>
</g>
</g>
<!-- Node8 -->
<g id="Node000008" class="node">
<title>Node8</title>
<g id="a_Node000008"><a xlink:href="structnix_1_1MixRepair.html" target="_top" xlink:title=" ">
<polygon fill="white" stroke="#bfbfbf" points="309.75,-191 223.25,-191 223.25,-170.25 309.75,-170.25 309.75,-191"/>
<text text-anchor="middle" x="266.5" y="-177.5" font-family="Helvetica,sans-Serif" font-size="10.00">nix::MixRepair</text>
</a>
</g>
</g>
<!-- Node3&#45;&gt;Node8 -->
<g id="edge10_Node000008_Node000003" class="edge">
<title>Node3&#45;&gt;Node8</title>
<g id="a_edge10_Node000008_Node000003"><a xlink:title=" ">
<path fill="none" stroke="#63b8ff" d="M188.71,-221.43C207.45,-211.84 231.23,-199.67 247.54,-191.33"/>
<polygon fill="#63b8ff" stroke="#63b8ff" points="187.28,-218.23 179.98,-225.9 190.47,-224.46 187.28,-218.23"/>
</a>
</g>
</g>
<!-- Node4 -->
<g id="Node000004" class="node">
<title>Node4</title>
<g id="a_Node000004"><a xlink:href="structnix_1_1EvalCommand.html" target="_top" xlink:title=" ">
<polygon fill="white" stroke="#666666" points="217.62,-77.5 109.38,-77.5 109.38,-56.75 217.62,-56.75 217.62,-77.5"/>
<text text-anchor="middle" x="163.5" y="-64" font-family="Helvetica,sans-Serif" font-size="10.00">nix::EvalCommand</text>
</a>
</g>
</g>
<!-- Node4&#45;&gt;Node1 -->
<g id="edge3_Node000001_Node000004" class="edge">
<title>Node4&#45;&gt;Node1</title>
<g id="a_edge3_Node000001_Node000004"><a xlink:title=" ">
<path fill="none" stroke="#63b8ff" d="M144.59,-48.58C134.78,-39.47 123.15,-28.68 114.96,-21.08"/>
<polygon fill="#63b8ff" stroke="#63b8ff" points="142.13,-51.07 151.84,-55.31 146.89,-45.94 142.13,-51.07"/>
</a>
</g>
</g>
<!-- Node5 -->
<g id="Node000005" class="node">
<title>Node5</title>
<g id="a_Node000005"><a xlink:href="structnix_1_1StoreCommand.html" target="_top" xlink:title=" ">
<polygon fill="white" stroke="#666666" points="185.88,-134.25 73.12,-134.25 73.12,-113.5 185.88,-113.5 185.88,-134.25"/>
<text text-anchor="middle" x="129.5" y="-120.75" font-family="Helvetica,sans-Serif" font-size="10.00">nix::StoreCommand</text>
</a>
</g>
</g>
<!-- Node5&#45;&gt;Node4 -->
<g id="edge4_Node000004_Node000005" class="edge">
<title>Node5&#45;&gt;Node4</title>
<g id="a_edge4_Node000004_Node000005"><a xlink:title=" ">
<path fill="none" stroke="#63b8ff" d="M141.62,-103.35C147,-94.7 153.09,-84.89 157.47,-77.83"/>
<polygon fill="#63b8ff" stroke="#63b8ff" points="138.68,-101.46 136.38,-111.8 144.63,-105.15 138.68,-101.46"/>
</a>
</g>
</g>
<!-- Node6&#45;&gt;Node5 -->
<g id="edge5_Node000005_Node000006" class="edge">
<title>Node6&#45;&gt;Node5</title>
<g id="a_edge5_Node000005_Node000006"><a xlink:title=" ">
<path fill="none" stroke="#63b8ff" d="M125.8,-158.67C126.71,-150.38 127.71,-141.25 128.44,-134.58"/>
<polygon fill="#63b8ff" stroke="#63b8ff" points="122.35,-158.01 124.74,-168.33 129.31,-158.77 122.35,-158.01"/>
</a>
</g>
</g>
<!-- Node7&#45;&gt;Node4 -->
<g id="edge7_Node000004_Node000007" class="edge">
<title>Node7&#45;&gt;Node4</title>
<g id="a_edge7_Node000004_Node000007"><a xlink:title=" ">
<path fill="none" stroke="#63b8ff" d="M227.11,-107.26C211.7,-97.78 192.52,-85.98 179.27,-77.83"/>
<polygon fill="#63b8ff" stroke="#63b8ff" points="224.95,-110.04 235.3,-112.29 228.62,-104.07 224.95,-110.04"/>
</a>
</g>
</g>
<!-- Node8&#45;&gt;Node7 -->
<g id="edge9_Node000007_Node000008" class="edge">
<title>Node8&#45;&gt;Node7</title>
<g id="a_edge9_Node000007_Node000008"><a xlink:title=" ">
<path fill="none" stroke="#63b8ff" d="M261.21,-158.96C259.08,-150.59 256.71,-141.33 254.98,-134.58"/>
<polygon fill="#63b8ff" stroke="#63b8ff" points="257.75,-159.55 263.62,-168.37 264.54,-157.82 257.75,-159.55"/>
</a>
</g>
</g>
</g>
</svg>
