<?xml version="1.0" encoding="UTF-8" standalone="no"?>
<!DOCTYPE svg PUBLIC "-//W3C//DTD SVG 1.1//EN"
 "http://www.w3.org/Graphics/SVG/1.1/DTD/svg11.dtd">
<!-- Generated by graphviz version 12.2.1 (0)
 -->
<!-- Title: nix::CmdBundle Pages: 1 -->
<svg width="575pt" height="468pt"
 viewBox="0.00 0.00 575.12 468.25" xmlns="http://www.w3.org/2000/svg" xmlns:xlink="http://www.w3.org/1999/xlink">
<g id="graph0" class="graph" transform="scale(1 1) rotate(0) translate(4 464.25)">
<title>nix::CmdBundle</title>
<!-- Node1 -->
<g id="Node000001" class="node">
<title>Node1</title>
<g id="a_Node000001"><a xlink:title=" ">
<polygon fill="#999999" stroke="#666666" points="196.75,-20.75 103.5,-20.75 103.5,0 196.75,0 196.75,-20.75"/>
<text text-anchor="middle" x="150.12" y="-7.25" font-family="Helvetica,sans-Serif" font-size="10.00">nix::CmdBundle</text>
</a>
</g>
</g>
<!-- Node2 -->
<g id="Node000002" class="node">
<title>Node2</title>
<g id="a_Node000002"><a xlink:href="structnix_1_1InstallableCommand.html" target="_top" xlink:title=" ">
<polygon fill="white" stroke="#666666" points="138.25,-90.25 0,-90.25 0,-69.5 138.25,-69.5 138.25,-90.25"/>
<text text-anchor="middle" x="69.12" y="-76.75" font-family="Helvetica,sans-Serif" font-size="10.00">nix::InstallableCommand</text>
</a>
</g>
</g>
<!-- Node2&#45;&gt;Node1 -->
<g id="edge1_Node000001_Node000002" class="edge">
<title>Node2&#45;&gt;Node1</title>
<g id="a_edge1_Node000001_Node000002"><a xlink:title=" ">
<path fill="none" stroke="#63b8ff" d="M89.53,-61.87C104.92,-49.05 125.5,-31.9 138.28,-21.25"/>
<polygon fill="#63b8ff" stroke="#63b8ff" points="87.33,-59.14 81.89,-68.23 91.82,-64.52 87.33,-59.14"/>
</a>
</g>
</g>
<!-- Node3 -->
<g id="Node000003" class="node">
<title>Node3</title>
<g id="a_Node000003"><a xlink:href="classnix_1_1Args.html" target="_top" xlink:title=" ">
<polygon fill="white" stroke="#bfbfbf" points="266.5,-460.25 207.75,-460.25 207.75,-439.5 266.5,-439.5 266.5,-460.25"/>
<text text-anchor="middle" x="237.12" y="-446.75" font-family="Helvetica,sans-Serif" font-size="10.00">nix::Args</text>
</a>
</g>
</g>
<!-- Node3&#45;&gt;Node2 -->
<g id="edge2_Node000002_Node000003" class="edge">
<title>Node3&#45;&gt;Node2</title>
<g id="a_edge2_Node000002_Node000003"><a xlink:title=" ">
<path fill="none" stroke="#63b8ff" d="M196.29,-444.5C143.18,-437.65 57.12,-422.08 57.12,-393.12 57.12,-393.12 57.12,-393.12 57.12,-136.62 57.12,-120.19 62.17,-101.63 65.72,-90.61"/>
<polygon fill="#63b8ff" stroke="#63b8ff" points="195.55,-447.93 205.9,-445.68 196.4,-440.98 195.55,-447.93"/>
</a>
</g>
</g>
<!-- Node5 -->
<g id="Node000005" class="node">
<title>Node5</title>
<g id="a_Node000005"><a xlink:href="structnix_1_1Command.html" target="_top" xlink:title=" ">
<polygon fill="white" stroke="#666666" points="461.75,-402.5 374.5,-402.5 374.5,-381.75 461.75,-381.75 461.75,-402.5"/>
<text text-anchor="middle" x="418.12" y="-389" font-family="Helvetica,sans-Serif" font-size="10.00">nix::Command</text>
</a>
</g>
</g>
<!-- Node3&#45;&gt;Node5 -->
<g id="edge5_Node000005_Node000003" class="edge">
<title>Node3&#45;&gt;Node5</title>
<g id="a_edge5_Node000005_Node000003"><a xlink:title=" ">
<path fill="none" stroke="#63b8ff" d="M277.2,-436.53C310.02,-426.42 355.84,-412.31 386.21,-402.95"/>
<polygon fill="#63b8ff" stroke="#63b8ff" points="276.58,-433.06 268.06,-439.35 278.64,-439.75 276.58,-433.06"/>
</a>
</g>
</g>
<!-- Node6 -->
<g id="Node000006" class="node">
<title>Node6</title>
<g id="a_Node000006"><a xlink:href="structnix_1_1SourceExprCommand.html" target="_top" xlink:title=" ">
<polygon fill="white" stroke="#bfbfbf" points="252.12,-148 110.12,-148 110.12,-127.25 252.12,-127.25 252.12,-148"/>
<text text-anchor="middle" x="181.12" y="-134.5" font-family="Helvetica,sans-Serif" font-size="10.00">nix::SourceExprCommand</text>
</a>
</g>
</g>
<!-- Node3&#45;&gt;Node6 -->
<g id="edge7_Node000006_Node000003" class="edge">
<title>Node3&#45;&gt;Node6</title>
<g id="a_edge7_Node000006_Node000003"><a xlink:title=" ">
<path fill="none" stroke="#63b8ff" d="M278.47,-446.15C367.04,-439.74 567.12,-422.08 567.12,-393.12 567.12,-393.12 567.12,-393.12 567.12,-194.38 567.12,-162.93 363.91,-147.77 252.37,-141.81"/>
<polygon fill="#63b8ff" stroke="#63b8ff" points="278.23,-442.65 268.5,-446.85 278.72,-449.64 278.23,-442.65"/>
</a>
</g>
</g>
<!-- Node7 -->
<g id="Node000007" class="node">
<title>Node7</title>
<g id="a_Node000007"><a xlink:href="structnix_1_1MixFlakeOptions.html" target="_top" xlink:title=" ">
<polygon fill="white" stroke="#666666" points="240.5,-205.75 121.75,-205.75 121.75,-185 240.5,-185 240.5,-205.75"/>
<text text-anchor="middle" x="181.12" y="-192.25" font-family="Helvetica,sans-Serif" font-size="10.00">nix::MixFlakeOptions</text>
</a>
</g>
</g>
<!-- Node3&#45;&gt;Node7 -->
<g id="edge9_Node000007_Node000003" class="edge">
<title>Node3&#45;&gt;Node7</title>
<g id="a_edge9_Node000007_Node000003"><a xlink:title=" ">
<path fill="none" stroke="#63b8ff" d="M196.04,-449.31C154.11,-447.35 95.12,-436.82 95.12,-393.12 95.12,-393.12 95.12,-393.12 95.12,-263.88 95.12,-234.65 126.25,-216.16 151.05,-206.06"/>
<polygon fill="#63b8ff" stroke="#63b8ff" points="195.74,-452.81 205.84,-449.62 195.96,-445.81 195.74,-452.81"/>
</a>
</g>
</g>
<!-- Node10 -->
<g id="Node000010" class="node">
<title>Node10</title>
<g id="a_Node000010"><a xlink:href="structnix_1_1MixEvalArgs.html" target="_top" xlink:title=" ">
<polygon fill="white" stroke="#bfbfbf" points="279,-333 181.25,-333 181.25,-312.25 279,-312.25 279,-333"/>
<text text-anchor="middle" x="230.12" y="-319.5" font-family="Helvetica,sans-Serif" font-size="10.00">nix::MixEvalArgs</text>
</a>
</g>
</g>
<!-- Node3&#45;&gt;Node10 -->
<g id="edge14_Node000010_Node000003" class="edge">
<title>Node3&#45;&gt;Node10</title>
<g id="a_edge14_Node000010_Node000003"><a xlink:title=" ">
<path fill="none" stroke="#63b8ff" d="M235.94,-427.64C234.4,-400.2 231.8,-353.58 230.67,-333.41"/>
<polygon fill="#63b8ff" stroke="#63b8ff" points="232.44,-427.75 236.49,-437.54 239.43,-427.36 232.44,-427.75"/>
</a>
</g>
</g>
<!-- Node11 -->
<g id="Node000011" class="node">
<title>Node11</title>
<g id="a_Node000011"><a xlink:href="structnix_1_1MixRepair.html" target="_top" xlink:title=" ">
<polygon fill="white" stroke="#bfbfbf" points="209.38,-402.5 122.88,-402.5 122.88,-381.75 209.38,-381.75 209.38,-402.5"/>
<text text-anchor="middle" x="166.12" y="-389" font-family="Helvetica,sans-Serif" font-size="10.00">nix::MixRepair</text>
</a>
</g>
</g>
<!-- Node3&#45;&gt;Node11 -->
<g id="edge16_Node000011_Node000003" class="edge">
<title>Node3&#45;&gt;Node11</title>
<g id="a_edge16_Node000011_Node000003"><a xlink:title=" ">
<path fill="none" stroke="#63b8ff" d="M216.03,-432.31C203.75,-422.67 188.69,-410.85 178.35,-402.72"/>
<polygon fill="#63b8ff" stroke="#63b8ff" points="213.54,-434.81 223.57,-438.23 217.86,-429.3 213.54,-434.81"/>
</a>
</g>
</g>
<!-- Node4 -->
<g id="Node000004" class="node">
<title>Node4</title>
<g id="a_Node000004"><a xlink:href="classnix_1_1MultiCommand.html" target="_top" xlink:title=" ">
<polygon fill="white" stroke="#666666" points="539.12,-333 427.12,-333 427.12,-312.25 539.12,-312.25 539.12,-333"/>
<text text-anchor="middle" x="483.12" y="-319.5" font-family="Helvetica,sans-Serif" font-size="10.00">nix::MultiCommand</text>
</a>
</g>
</g>
<!-- Node4&#45;&gt;Node3 -->
<g id="edge3_Node000003_Node000004" class="edge">
<title>Node4&#45;&gt;Node3</title>
<g id="a_edge3_Node000003_Node000004"><a xlink:title=" ">
<path fill="none" stroke="#9a32cd" stroke-dasharray="5,2" d="M486.01,-344.82C487.16,-362.57 485.61,-387.36 471.12,-402.5 443.36,-431.53 323.29,-443.2 266.77,-447.14"/>
<polygon fill="#9a32cd" stroke="#9a32cd" points="489.5,-344.48 485,-334.89 482.53,-345.19 489.5,-344.48"/>
</a>
</g>
<text text-anchor="middle" x="499.77" y="-389" font-family="Helvetica,sans-Serif" font-size="10.00" fill="grey"> parent</text>
</g>
<!-- Node5&#45;&gt;Node4 -->
<g id="edge4_Node000004_Node000005" class="edge">
<title>Node5&#45;&gt;Node4</title>
<g id="a_edge4_Node000004_Node000005"><a xlink:title=" ">
<path fill="none" stroke="#63b8ff" d="M435.25,-373.34C447.6,-360.52 463.8,-343.7 473.83,-333.28"/>
<polygon fill="#63b8ff" stroke="#63b8ff" points="432.9,-370.73 428.49,-380.36 437.95,-375.59 432.9,-370.73"/>
</a>
</g>
</g>
<!-- Node9 -->
<g id="Node000009" class="node">
<title>Node9</title>
<g id="a_Node000009"><a xlink:href="structnix_1_1StoreCommand.html" target="_top" xlink:title=" ">
<polygon fill="white" stroke="#666666" points="409.5,-333 296.75,-333 296.75,-312.25 409.5,-312.25 409.5,-333"/>
<text text-anchor="middle" x="353.12" y="-319.5" font-family="Helvetica,sans-Serif" font-size="10.00">nix::StoreCommand</text>
</a>
</g>
</g>
<!-- Node5&#45;&gt;Node9 -->
<g id="edge12_Node000009_Node000005" class="edge">
<title>Node5&#45;&gt;Node9</title>
<g id="a_edge12_Node000009_Node000005"><a xlink:title=" ">
<path fill="none" stroke="#63b8ff" d="M401,-373.34C388.65,-360.52 372.45,-343.7 362.42,-333.28"/>
<polygon fill="#63b8ff" stroke="#63b8ff" points="398.3,-375.59 407.76,-380.36 403.35,-370.73 398.3,-375.59"/>
</a>
</g>
</g>
<!-- Node6&#45;&gt;Node2 -->
<g id="edge6_Node000002_Node000006" class="edge">
<title>Node6&#45;&gt;Node2</title>
<g id="a_edge6_Node000002_Node000006"><a xlink:title=" ">
<path fill="none" stroke="#63b8ff" d="M151.29,-121.78C131.46,-111.91 105.98,-99.22 88.69,-90.62"/>
<polygon fill="#63b8ff" stroke="#63b8ff" points="149.49,-124.79 160,-126.11 152.61,-118.52 149.49,-124.79"/>
</a>
</g>
</g>
<!-- Node7&#45;&gt;Node6 -->
<g id="edge8_Node000006_Node000007" class="edge">
<title>Node7&#45;&gt;Node6</title>
<g id="a_edge8_Node000006_Node000007"><a xlink:title=" ">
<path fill="none" stroke="#63b8ff" d="M181.12,-173.43C181.12,-164.77 181.12,-155.15 181.12,-148.22"/>
<polygon fill="#63b8ff" stroke="#63b8ff" points="177.63,-173.15 181.13,-183.15 184.63,-173.15 177.63,-173.15"/>
</a>
</g>
</g>
<!-- Node8 -->
<g id="Node000008" class="node">
<title>Node8</title>
<g id="a_Node000008"><a xlink:href="structnix_1_1EvalCommand.html" target="_top" xlink:title=" ">
<polygon fill="white" stroke="#666666" points="365.25,-275.25 257,-275.25 257,-254.5 365.25,-254.5 365.25,-275.25"/>
<text text-anchor="middle" x="311.12" y="-261.75" font-family="Helvetica,sans-Serif" font-size="10.00">nix::EvalCommand</text>
</a>
</g>
</g>
<!-- Node8&#45;&gt;Node7 -->
<g id="edge10_Node000007_Node000008" class="edge">
<title>Node8&#45;&gt;Node7</title>
<g id="a_edge10_Node000007_Node000008"><a xlink:title=" ">
<path fill="none" stroke="#63b8ff" d="M282.58,-248.66C268.35,-241.11 250.86,-231.89 235.12,-223.75 223.74,-217.86 210.94,-211.36 200.66,-206.18"/>
<polygon fill="#63b8ff" stroke="#63b8ff" points="280.93,-251.75 291.4,-253.35 284.22,-245.57 280.93,-251.75"/>
</a>
</g>
</g>
<!-- Node9&#45;&gt;Node8 -->
<g id="edge11_Node000008_Node000009" class="edge">
<title>Node9&#45;&gt;Node8</title>
<g id="a_edge11_Node000008_Node000009"><a xlink:title=" ">
<path fill="none" stroke="#63b8ff" d="M338.91,-302.75C332,-293.58 323.99,-282.96 318.36,-275.47"/>
<polygon fill="#63b8ff" stroke="#63b8ff" points="336.09,-304.82 344.9,-310.71 341.68,-300.61 336.09,-304.82"/>
</a>
</g>
</g>
<!-- Node10&#45;&gt;Node8 -->
<g id="edge13_Node000008_Node000010" class="edge">
<title>Node10&#45;&gt;Node8</title>
<g id="a_edge13_Node000008_Node000010"><a xlink:title=" ">
<path fill="none" stroke="#63b8ff" d="M253.31,-305.67C267.37,-295.99 284.87,-283.95 296.91,-275.66"/>
<polygon fill="#63b8ff" stroke="#63b8ff" points="251.73,-302.5 245.48,-311.06 255.7,-308.27 251.73,-302.5"/>
</a>
</g>
</g>
<!-- Node11&#45;&gt;Node10 -->
<g id="edge15_Node000010_Node000011" class="edge">
<title>Node11&#45;&gt;Node10</title>
<g id="a_edge15_Node000010_Node000011"><a xlink:title=" ">
<path fill="none" stroke="#63b8ff" d="M182.99,-373.34C195.15,-360.52 211.09,-343.7 220.97,-333.28"/>
<polygon fill="#63b8ff" stroke="#63b8ff" points="180.68,-370.69 176.34,-380.36 185.76,-375.51 180.68,-370.69"/>
</a>
</g>
</g>
<!-- Node12 -->
<g id="Node000012" class="node">
<title>Node12</title>
<g id="a_Node000012"><a xlink:href="structnix_1_1SearchPath.html" target="_top" xlink:title=" ">
<polygon fill="white" stroke="#666666" points="356.62,-402.5 265.62,-402.5 265.62,-381.75 356.62,-381.75 356.62,-402.5"/>
<text text-anchor="middle" x="311.12" y="-389" font-family="Helvetica,sans-Serif" font-size="10.00">nix::SearchPath</text>
</a>
</g>
</g>
<!-- Node12&#45;&gt;Node10 -->
<g id="edge17_Node000010_Node000012" class="edge">
<title>Node12&#45;&gt;Node10</title>
<g id="a_edge17_Node000010_Node000012"><a xlink:title=" ">
<path fill="none" stroke="#9a32cd" stroke-dasharray="5,2" d="M290.72,-374.12C275.33,-361.3 254.75,-344.15 241.97,-333.5"/>
<polygon fill="#9a32cd" stroke="#9a32cd" points="288.43,-376.77 298.36,-380.48 292.92,-371.39 288.43,-376.77"/>
</a>
</g>
<text text-anchor="middle" x="306.01" y="-354.25" font-family="Helvetica,sans-Serif" font-size="10.00" fill="grey"> searchPath</text>
</g>
<!-- Node13 -->
<g id="Node000013" class="node">
<title>Node13</title>
<g id="a_Node000013"><a xlink:href="structnix_1_1flake_1_1LockFlags.html" target="_top" xlink:title=" ">
<polygon fill="white" stroke="#bfbfbf" points="238.62,-275.25 123.62,-275.25 123.62,-254.5 238.62,-254.5 238.62,-275.25"/>
<text text-anchor="middle" x="181.12" y="-261.75" font-family="Helvetica,sans-Serif" font-size="10.00">nix::flake::LockFlags</text>
</a>
</g>
</g>
<!-- Node13&#45;&gt;Node7 -->
<g id="edge18_Node000007_Node000013" class="edge">
<title>Node13&#45;&gt;Node7</title>
<g id="a_edge18_Node000007_Node000013"><a xlink:title=" ">
<path fill="none" stroke="#9a32cd" stroke-dasharray="5,2" d="M181.12,-243.07C181.12,-230.72 181.12,-215.65 181.12,-206.03"/>
<polygon fill="#9a32cd" stroke="#9a32cd" points="177.63,-242.69 181.13,-252.69 184.63,-242.69 177.63,-242.69"/>
</a>
</g>
<text text-anchor="middle" x="205.88" y="-227" font-family="Helvetica,sans-Serif" font-size="10.00" fill="grey"> lockFlags</text>
</g>
<!-- Node14 -->
<g id="Node000014" class="node">
<title>Node14</title>
<g id="a_Node000014"><a xlink:title=" ">
<polygon fill="white" stroke="#bfbfbf" points="200,-90.25 156.25,-90.25 156.25,-69.5 200,-69.5 200,-90.25"/>
<text text-anchor="middle" x="178.12" y="-76.75" font-family="Helvetica,sans-Serif" font-size="10.00">string</text>
</a>
</g>
</g>
<!-- Node14&#45;&gt;Node1 -->
<g id="edge19_Node000001_Node000014" class="edge">
<title>Node14&#45;&gt;Node1</title>
<g id="a_edge19_Node000001_Node000014"><a xlink:title=" ">
<path fill="none" stroke="#9a32cd" stroke-dasharray="5,2" d="M169.81,-58.83C164.63,-46.35 158.2,-30.85 154.13,-21.03"/>
<polygon fill="#9a32cd" stroke="#9a32cd" points="166.47,-59.91 173.53,-67.81 172.93,-57.23 166.47,-59.91"/>
</a>
</g>
<text text-anchor="middle" x="186.51" y="-42" font-family="Helvetica,sans-Serif" font-size="10.00" fill="grey"> bundler</text>
</g>
</g>
</svg>
