<?xml version="1.0" encoding="UTF-8" standalone="no"?>
<!DOCTYPE svg PUBLIC "-//W3C//DTD SVG 1.1//EN"
 "http://www.w3.org/Graphics/SVG/1.1/DTD/svg11.dtd">
<!-- Generated by graphviz version 12.2.1 (0)
 -->
<!-- Title: nix::ExprLambda Pages: 1 -->
<svg width="164pt" height="168pt"
 viewBox="0.00 0.00 163.50 167.75" xmlns="http://www.w3.org/2000/svg" xmlns:xlink="http://www.w3.org/1999/xlink">
<g id="graph0" class="graph" transform="scale(1 1) rotate(0) translate(4 163.75)">
<title>nix::ExprLambda</title>
<!-- Node1 -->
<g id="Node000001" class="node">
<title>Node1</title>
<g id="a_Node000001"><a xlink:title=" ">
<polygon fill="#999999" stroke="#666666" points="146.5,-20.75 48.75,-20.75 48.75,0 146.5,0 146.5,-20.75"/>
<text text-anchor="middle" x="97.62" y="-7.25" font-family="Helvetica,sans-Serif" font-size="10.00">nix::ExprLambda</text>
</a>
</g>
</g>
<!-- Node2 -->
<g id="Node000002" class="node">
<title>Node2</title>
<g id="a_Node000002"><a xlink:href="structnix_1_1Expr.html" target="_top" xlink:title=" ">
<polygon fill="white" stroke="#bfbfbf" points="64,-90.25 5.25,-90.25 5.25,-69.5 64,-69.5 64,-90.25"/>
<text text-anchor="middle" x="34.62" y="-76.75" font-family="Helvetica,sans-Serif" font-size="10.00">nix::Expr</text>
</a>
</g>
</g>
<!-- Node2&#45;&gt;Node1 -->
<g id="edge1_Node000001_Node000002" class="edge">
<title>Node2&#45;&gt;Node1</title>
<g id="a_edge1_Node000001_Node000002"><a xlink:title=" ">
<path fill="none" stroke="#63b8ff" d="M51.22,-61.09C63.19,-48.27 78.89,-31.45 88.62,-21.03"/>
<polygon fill="#63b8ff" stroke="#63b8ff" points="48.95,-58.4 44.68,-68.1 54.07,-63.17 48.95,-58.4"/>
</a>
</g>
</g>
<!-- Node3 -->
<g id="Node000003" class="node">
<title>Node3</title>
<g id="a_Node000003"><a xlink:href="classnix_1_1PosIdx.html" target="_top" xlink:title=" ">
<polygon fill="white" stroke="#bfbfbf" points="69.25,-159.75 0,-159.75 0,-139 69.25,-139 69.25,-159.75"/>
<text text-anchor="middle" x="34.62" y="-146.25" font-family="Helvetica,sans-Serif" font-size="10.00">nix::PosIdx</text>
</a>
</g>
</g>
<!-- Node3&#45;&gt;Node2 -->
<g id="edge2_Node000002_Node000003" class="edge">
<title>Node3&#45;&gt;Node2</title>
<g id="a_edge2_Node000002_Node000003"><a xlink:title=" ">
<path fill="none" stroke="#9a32cd" stroke-dasharray="5,2" d="M34.62,-127.57C34.62,-115.22 34.62,-100.15 34.62,-90.53"/>
<polygon fill="#9a32cd" stroke="#9a32cd" points="31.13,-127.19 34.63,-137.19 38.13,-127.19 31.13,-127.19"/>
</a>
</g>
<text text-anchor="middle" x="44.75" y="-111.5" font-family="Helvetica,sans-Serif" font-size="10.00" fill="grey"> pos</text>
</g>
<!-- Node4 -->
<g id="Node000004" class="node">
<title>Node4</title>
<g id="a_Node000004"><a xlink:href="classnix_1_1Symbol.html" target="_top" xlink:title=" ">
<polygon fill="white" stroke="#666666" points="155.5,-90.25 81.75,-90.25 81.75,-69.5 155.5,-69.5 155.5,-90.25"/>
<text text-anchor="middle" x="118.62" y="-76.75" font-family="Helvetica,sans-Serif" font-size="10.00">nix::Symbol</text>
</a>
</g>
</g>
<!-- Node4&#45;&gt;Node1 -->
<g id="edge3_Node000001_Node000004" class="edge">
<title>Node4&#45;&gt;Node1</title>
<g id="a_edge3_Node000001_Node000004"><a xlink:title=" ">
<path fill="none" stroke="#9a32cd" stroke-dasharray="5,2" d="M112.27,-58.45C108.41,-46.03 103.65,-30.75 100.63,-21.03"/>
<polygon fill="#9a32cd" stroke="#9a32cd" points="108.85,-59.25 115.17,-67.76 115.54,-57.17 108.85,-59.25"/>
</a>
</g>
<text text-anchor="middle" x="125.38" y="-42" font-family="Helvetica,sans-Serif" font-size="10.00" fill="grey"> name</text>
</g>
</g>
</svg>
