<?xml version="1.0" encoding="UTF-8" standalone="no"?>
<!DOCTYPE svg PUBLIC "-//W3C//DTD SVG 1.1//EN"
 "http://www.w3.org/Graphics/SVG/1.1/DTD/svg11.dtd">
<!-- Generated by graphviz version 12.2.1 (0)
 -->
<!-- Title: nix::SSHMaster::Connection Pages: 1 -->
<svg width="181pt" height="111pt"
 viewBox="0.00 0.00 180.50 111.00" xmlns="http://www.w3.org/2000/svg" xmlns:xlink="http://www.w3.org/1999/xlink">
<g id="graph0" class="graph" transform="scale(1 1) rotate(0) translate(4 107)">
<title>nix::SSHMaster::Connection</title>
<!-- Node1 -->
<g id="Node000001" class="node">
<title>Node1</title>
<g id="a_Node000001"><a xlink:title=" ">
<polygon fill="#999999" stroke="#666666" points="151,-20.75 0,-20.75 0,0 151,0 151,-20.75"/>
<text text-anchor="middle" x="75.5" y="-7.25" font-family="Helvetica,sans-Serif" font-size="10.00">nix::SSHMaster::Connection</text>
</a>
</g>
</g>
<!-- Node2 -->
<g id="Node000002" class="node">
<title>Node2</title>
<g id="a_Node000002"><a xlink:href="classnix_1_1Pid.html" target="_top" xlink:title=" ">
<polygon fill="white" stroke="#bfbfbf" points="54.5,-103 2.5,-103 2.5,-82.25 54.5,-82.25 54.5,-103"/>
<text text-anchor="middle" x="28.5" y="-89.5" font-family="Helvetica,sans-Serif" font-size="10.00">nix::Pid</text>
</a>
</g>
</g>
<!-- Node2&#45;&gt;Node1 -->
<g id="edge1_Node000001_Node000002" class="edge">
<title>Node2&#45;&gt;Node1</title>
<g id="a_edge1_Node000001_Node000002"><a xlink:title=" ">
<path fill="none" stroke="#9a32cd" stroke-dasharray="5,2" d="M39.9,-72.15C49.44,-55.87 62.63,-33.35 69.98,-20.8"/>
<polygon fill="#9a32cd" stroke="#9a32cd" points="37.06,-70.08 35.03,-80.48 43.1,-73.62 37.06,-70.08"/>
</a>
</g>
<text text-anchor="middle" x="76.21" y="-48.38" font-family="Helvetica,sans-Serif" font-size="10.00" fill="grey"> sshPid</text>
</g>
<!-- Node3 -->
<g id="Node000003" class="node">
<title>Node3</title>
<g id="a_Node000003"><a xlink:href="classnix_1_1AutoCloseFD.html" target="_top" xlink:title=" ">
<polygon fill="white" stroke="#bfbfbf" points="172.5,-103 72.5,-103 72.5,-82.25 172.5,-82.25 172.5,-103"/>
<text text-anchor="middle" x="122.5" y="-89.5" font-family="Helvetica,sans-Serif" font-size="10.00">nix::AutoCloseFD</text>
</a>
</g>
</g>
<!-- Node3&#45;&gt;Node1 -->
<g id="edge2_Node000001_Node000003" class="edge">
<title>Node3&#45;&gt;Node1</title>
<g id="a_edge2_Node000001_Node000003"><a xlink:title=" ">
<path fill="none" stroke="#9a32cd" stroke-dasharray="5,2" d="M114.37,-71.61C109.92,-61.47 104,-49.13 97.5,-38.75 93.62,-32.55 88.54,-26.15 84.24,-21.09"/>
<polygon fill="#9a32cd" stroke="#9a32cd" points="111.02,-72.67 118.13,-80.52 117.47,-69.94 111.02,-72.67"/>
</a>
</g>
<text text-anchor="middle" x="118.86" y="-54.75" font-family="Helvetica,sans-Serif" font-size="10.00" fill="grey"> in</text>
<text text-anchor="middle" x="118.86" y="-42" font-family="Helvetica,sans-Serif" font-size="10.00" fill="grey">out</text>
</g>
</g>
</svg>
