<?xml version="1.0" encoding="UTF-8" standalone="no"?>
<!DOCTYPE svg PUBLIC "-//W3C//DTD SVG 1.1//EN"
 "http://www.w3.org/Graphics/SVG/1.1/DTD/svg11.dtd">
<!-- Generated by graphviz version 12.2.1 (0)
 -->
<!-- Title: nix::UnresolvedApp Pages: 1 -->
<svg width="121pt" height="168pt"
 viewBox="0.00 0.00 120.62 167.75" xmlns="http://www.w3.org/2000/svg" xmlns:xlink="http://www.w3.org/1999/xlink">
<g id="graph0" class="graph" transform="scale(1 1) rotate(0) translate(4 163.75)">
<title>nix::UnresolvedApp</title>
<!-- Node1 -->
<g id="Node000001" class="node">
<title>Node1</title>
<g id="a_Node000001"><a xlink:title=" ">
<polygon fill="#999999" stroke="#666666" points="111.25,-20.75 0,-20.75 0,0 111.25,0 111.25,-20.75"/>
<text text-anchor="middle" x="55.62" y="-7.25" font-family="Helvetica,sans-Serif" font-size="10.00">nix::UnresolvedApp</text>
</a>
</g>
</g>
<!-- Node2 -->
<g id="Node000002" class="node">
<title>Node2</title>
<g id="a_Node000002"><a xlink:href="structnix_1_1App.html" target="_top" xlink:title=" ">
<polygon fill="white" stroke="#bfbfbf" points="83.5,-90.25 27.75,-90.25 27.75,-69.5 83.5,-69.5 83.5,-90.25"/>
<text text-anchor="middle" x="55.62" y="-76.75" font-family="Helvetica,sans-Serif" font-size="10.00">nix::App</text>
</a>
</g>
</g>
<!-- Node2&#45;&gt;Node1 -->
<g id="edge1_Node000001_Node000002" class="edge">
<title>Node2&#45;&gt;Node1</title>
<g id="a_edge1_Node000001_Node000002"><a xlink:title=" ">
<path fill="none" stroke="#9a32cd" stroke-dasharray="5,2" d="M55.62,-58.07C55.62,-45.72 55.62,-30.65 55.62,-21.03"/>
<polygon fill="#9a32cd" stroke="#9a32cd" points="52.13,-57.69 55.63,-67.69 59.13,-57.69 52.13,-57.69"/>
</a>
</g>
<text text-anchor="middle" x="84.12" y="-42" font-family="Helvetica,sans-Serif" font-size="10.00" fill="grey"> unresolved</text>
</g>
<!-- Node3 -->
<g id="Node000003" class="node">
<title>Node3</title>
<g id="a_Node000003"><a xlink:title=" ">
<polygon fill="white" stroke="#bfbfbf" points="77.5,-159.75 33.75,-159.75 33.75,-139 77.5,-139 77.5,-159.75"/>
<text text-anchor="middle" x="55.62" y="-146.25" font-family="Helvetica,sans-Serif" font-size="10.00">string</text>
</a>
</g>
</g>
<!-- Node3&#45;&gt;Node2 -->
<g id="edge2_Node000002_Node000003" class="edge">
<title>Node3&#45;&gt;Node2</title>
<g id="a_edge2_Node000002_Node000003"><a xlink:title=" ">
<path fill="none" stroke="#9a32cd" stroke-dasharray="5,2" d="M55.62,-127.57C55.62,-115.22 55.62,-100.15 55.62,-90.53"/>
<polygon fill="#9a32cd" stroke="#9a32cd" points="52.13,-127.19 55.63,-137.19 59.13,-127.19 52.13,-127.19"/>
</a>
</g>
<text text-anchor="middle" x="77.75" y="-111.5" font-family="Helvetica,sans-Serif" font-size="10.00" fill="grey"> program</text>
</g>
</g>
</svg>
