<?xml version="1.0" encoding="UTF-8" standalone="no"?>
<!DOCTYPE svg PUBLIC "-//W3C//DTD SVG 1.1//EN"
 "http://www.w3.org/Graphics/SVG/1.1/DTD/svg11.dtd">
<!-- Generated by graphviz version 12.2.1 (0)
 -->
<!-- Title: nix::AttrsPattern Pages: 1 -->
<svg width="103pt" height="156pt"
 viewBox="0.00 0.00 102.75 156.00" xmlns="http://www.w3.org/2000/svg" xmlns:xlink="http://www.w3.org/1999/xlink">
<g id="graph0" class="graph" transform="scale(1 1) rotate(0) translate(4 152)">
<title>nix::AttrsPattern</title>
<!-- Node1 -->
<g id="Node000001" class="node">
<title>Node1</title>
<g id="a_Node000001"><a xlink:title=" ">
<polygon fill="#999999" stroke="#666666" points="94.75,-20.75 0,-20.75 0,0 94.75,0 94.75,-20.75"/>
<text text-anchor="middle" x="47.38" y="-7.25" font-family="Helvetica,sans-Serif" font-size="10.00">nix::AttrsPattern</text>
</a>
</g>
</g>
<!-- Node2 -->
<g id="Node000002" class="node">
<title>Node2</title>
<g id="a_Node000002"><a xlink:href="structnix_1_1Pattern.html" target="_top" xlink:title=" ">
<polygon fill="white" stroke="#bfbfbf" points="83.12,-78.5 11.62,-78.5 11.62,-57.75 83.12,-57.75 83.12,-78.5"/>
<text text-anchor="middle" x="47.38" y="-65" font-family="Helvetica,sans-Serif" font-size="10.00">nix::Pattern</text>
</a>
</g>
</g>
<!-- Node2&#45;&gt;Node1 -->
<g id="edge1_Node000001_Node000002" class="edge">
<title>Node2&#45;&gt;Node1</title>
<g id="a_edge1_Node000001_Node000002"><a xlink:title=" ">
<path fill="none" stroke="#63b8ff" d="M47.38,-46.18C47.38,-37.52 47.38,-27.9 47.38,-20.97"/>
<polygon fill="#63b8ff" stroke="#63b8ff" points="43.88,-45.9 47.38,-55.9 50.88,-45.9 43.88,-45.9"/>
</a>
</g>
</g>
<!-- Node3 -->
<g id="Node000003" class="node">
<title>Node3</title>
<g id="a_Node000003"><a xlink:href="classnix_1_1Symbol.html" target="_top" xlink:title=" ">
<polygon fill="white" stroke="#666666" points="84.25,-148 10.5,-148 10.5,-127.25 84.25,-127.25 84.25,-148"/>
<text text-anchor="middle" x="47.38" y="-134.5" font-family="Helvetica,sans-Serif" font-size="10.00">nix::Symbol</text>
</a>
</g>
</g>
<!-- Node3&#45;&gt;Node2 -->
<g id="edge2_Node000002_Node000003" class="edge">
<title>Node3&#45;&gt;Node2</title>
<g id="a_edge2_Node000002_Node000003"><a xlink:title=" ">
<path fill="none" stroke="#9a32cd" stroke-dasharray="5,2" d="M47.38,-115.82C47.38,-103.47 47.38,-88.4 47.38,-78.78"/>
<polygon fill="#9a32cd" stroke="#9a32cd" points="43.88,-115.44 47.38,-125.44 50.88,-115.44 43.88,-115.44"/>
</a>
</g>
<text text-anchor="middle" x="62.75" y="-99.75" font-family="Helvetica,sans-Serif" font-size="10.00" fill="grey"> name</text>
</g>
</g>
</svg>
