<?xml version="1.0" encoding="UTF-8" standalone="no"?>
<!DOCTYPE svg PUBLIC "-//W3C//DTD SVG 1.1//EN"
 "http://www.w3.org/Graphics/SVG/1.1/DTD/svg11.dtd">
<!-- Generated by graphviz version 12.2.1 (0)
 -->
<!-- Title: nix::fetchers::FileInputScheme Pages: 1 -->
<svg width="155pt" height="168pt"
 viewBox="0.00 0.00 154.50 167.75" xmlns="http://www.w3.org/2000/svg" xmlns:xlink="http://www.w3.org/1999/xlink">
<g id="graph0" class="graph" transform="scale(1 1) rotate(0) translate(4 163.75)">
<title>nix::fetchers::FileInputScheme</title>
<!-- Node1 -->
<g id="Node000001" class="node">
<title>Node1</title>
<g id="a_Node000001"><a xlink:title=" ">
<polygon fill="#999999" stroke="#666666" points="135.62,-33.5 10.88,-33.5 10.88,0 135.62,0 135.62,-33.5"/>
<text text-anchor="start" x="18.88" y="-20" font-family="Helvetica,sans-Serif" font-size="10.00">nix::fetchers::FileInput</text>
<text text-anchor="middle" x="73.25" y="-7.25" font-family="Helvetica,sans-Serif" font-size="10.00">Scheme</text>
</a>
</g>
</g>
<!-- Node2 -->
<g id="Node000002" class="node">
<title>Node2</title>
<g id="a_Node000002"><a xlink:href="structnix_1_1fetchers_1_1CurlInputScheme.html" target="_top" xlink:title=" ">
<polygon fill="white" stroke="#bfbfbf" points="136.75,-103 9.75,-103 9.75,-69.5 136.75,-69.5 136.75,-103"/>
<text text-anchor="start" x="17.75" y="-89.5" font-family="Helvetica,sans-Serif" font-size="10.00">nix::fetchers::CurlInput</text>
<text text-anchor="middle" x="73.25" y="-76.75" font-family="Helvetica,sans-Serif" font-size="10.00">Scheme</text>
</a>
</g>
</g>
<!-- Node2&#45;&gt;Node1 -->
<g id="edge1_Node000001_Node000002" class="edge">
<title>Node2&#45;&gt;Node1</title>
<g id="a_edge1_Node000001_Node000002"><a xlink:title=" ">
<path fill="none" stroke="#63b8ff" d="M73.25,-57.81C73.25,-49.59 73.25,-40.84 73.25,-33.63"/>
<polygon fill="#63b8ff" stroke="#63b8ff" points="69.75,-57.74 73.25,-67.74 76.75,-57.74 69.75,-57.74"/>
</a>
</g>
</g>
<!-- Node3 -->
<g id="Node000003" class="node">
<title>Node3</title>
<g id="a_Node000003"><a xlink:href="structnix_1_1fetchers_1_1InputScheme.html" target="_top" xlink:title=" ">
<polygon fill="white" stroke="#666666" points="146.5,-159.75 0,-159.75 0,-139 146.5,-139 146.5,-159.75"/>
<text text-anchor="middle" x="73.25" y="-146.25" font-family="Helvetica,sans-Serif" font-size="10.00">nix::fetchers::InputScheme</text>
</a>
</g>
</g>
<!-- Node3&#45;&gt;Node2 -->
<g id="edge2_Node000002_Node000003" class="edge">
<title>Node3&#45;&gt;Node2</title>
<g id="a_edge2_Node000002_Node000003"><a xlink:title=" ">
<path fill="none" stroke="#63b8ff" d="M73.25,-127.09C73.25,-119.35 73.25,-110.72 73.25,-103.48"/>
<polygon fill="#63b8ff" stroke="#63b8ff" points="69.75,-127.04 73.25,-137.04 76.75,-127.04 69.75,-127.04"/>
</a>
</g>
</g>
</g>
</svg>
