<?xml version="1.0" encoding="UTF-8" standalone="no"?>
<!DOCTYPE svg PUBLIC "-//W3C//DTD SVG 1.1//EN"
 "http://www.w3.org/Graphics/SVG/1.1/DTD/svg11.dtd">
<!-- Generated by graphviz version 12.2.1 (0)
 -->
<!-- Title: nix::CmdFlakeShow Pages: 1 -->
<svg width="695pt" height="419pt"
 viewBox="0.00 0.00 694.88 418.50" xmlns="http://www.w3.org/2000/svg" xmlns:xlink="http://www.w3.org/1999/xlink">
<g id="graph0" class="graph" transform="scale(1 1) rotate(0) translate(4 414.5)">
<title>nix::CmdFlakeShow</title>
<!-- Node1 -->
<g id="Node000001" class="node">
<title>Node1</title>
<g id="a_Node000001"><a xlink:title=" ">
<polygon fill="#999999" stroke="#666666" points="607.88,-20.75 495.88,-20.75 495.88,0 607.88,0 607.88,-20.75"/>
<text text-anchor="middle" x="551.88" y="-7.25" font-family="Helvetica,sans-Serif" font-size="10.00">nix::CmdFlakeShow</text>
</a>
</g>
</g>
<!-- Node2 -->
<g id="Node000002" class="node">
<title>Node2</title>
<g id="a_Node000002"><a xlink:href="classnix_1_1FlakeCommand.html" target="_top" xlink:title=" ">
<polygon fill="white" stroke="#bfbfbf" points="320.62,-78.5 207.12,-78.5 207.12,-57.75 320.62,-57.75 320.62,-78.5"/>
<text text-anchor="middle" x="263.88" y="-65" font-family="Helvetica,sans-Serif" font-size="10.00">nix::FlakeCommand</text>
</a>
</g>
</g>
<!-- Node2&#45;&gt;Node1 -->
<g id="edge1_Node000001_Node000002" class="edge">
<title>Node2&#45;&gt;Node1</title>
<g id="a_edge1_Node000001_Node000002"><a xlink:title=" ">
<path fill="none" stroke="#63b8ff" d="M325.85,-55.13C378.18,-45 452.19,-30.67 501.07,-21.21"/>
<polygon fill="#63b8ff" stroke="#63b8ff" points="325.34,-51.66 316.19,-57 326.67,-58.53 325.34,-51.66"/>
</a>
</g>
</g>
<!-- Node3 -->
<g id="Node000003" class="node">
<title>Node3</title>
<g id="a_Node000003"><a xlink:href="classnix_1_1Args.html" target="_top" xlink:title=" ">
<polygon fill="white" stroke="#bfbfbf" points="431.25,-410.5 372.5,-410.5 372.5,-389.75 431.25,-389.75 431.25,-410.5"/>
<text text-anchor="middle" x="401.88" y="-397" font-family="Helvetica,sans-Serif" font-size="10.00">nix::Args</text>
</a>
</g>
</g>
<!-- Node3&#45;&gt;Node2 -->
<g id="edge2_Node000002_Node000003" class="edge">
<title>Node3&#45;&gt;Node2</title>
<g id="a_edge2_Node000002_Node000003"><a xlink:title=" ">
<path fill="none" stroke="#63b8ff" d="M360.97,-396.3C273.85,-389.73 77.88,-371.78 77.88,-343.38 77.88,-343.38 77.88,-343.38 77.88,-136.62 77.88,-108.84 152.13,-89.22 206.8,-78.54"/>
<polygon fill="#63b8ff" stroke="#63b8ff" points="360.52,-399.77 370.75,-397.02 361.04,-392.79 360.52,-399.77"/>
</a>
</g>
</g>
<!-- Node5 -->
<g id="Node000005" class="node">
<title>Node5</title>
<g id="a_Node000005"><a xlink:href="structnix_1_1Command.html" target="_top" xlink:title=" ">
<polygon fill="white" stroke="#666666" points="445.5,-352.75 358.25,-352.75 358.25,-332 445.5,-332 445.5,-352.75"/>
<text text-anchor="middle" x="401.88" y="-339.25" font-family="Helvetica,sans-Serif" font-size="10.00">nix::Command</text>
</a>
</g>
</g>
<!-- Node3&#45;&gt;Node5 -->
<g id="edge5_Node000005_Node000003" class="edge">
<title>Node3&#45;&gt;Node5</title>
<g id="a_edge5_Node000005_Node000003"><a xlink:title=" ">
<path fill="none" stroke="#63b8ff" d="M401.88,-378.18C401.88,-369.52 401.88,-359.9 401.88,-352.97"/>
<polygon fill="#63b8ff" stroke="#63b8ff" points="398.38,-377.9 401.88,-387.9 405.38,-377.9 398.38,-377.9"/>
</a>
</g>
</g>
<!-- Node6 -->
<g id="Node000006" class="node">
<title>Node6</title>
<g id="a_Node000006"><a xlink:href="structnix_1_1MixFlakeOptions.html" target="_top" xlink:title=" ">
<polygon fill="white" stroke="#666666" points="506.25,-148 387.5,-148 387.5,-127.25 506.25,-127.25 506.25,-148"/>
<text text-anchor="middle" x="446.88" y="-134.5" font-family="Helvetica,sans-Serif" font-size="10.00">nix::MixFlakeOptions</text>
</a>
</g>
</g>
<!-- Node3&#45;&gt;Node6 -->
<g id="edge7_Node000006_Node000003" class="edge">
<title>Node3&#45;&gt;Node6</title>
<g id="a_edge7_Node000006_Node000003"><a xlink:title=" ">
<path fill="none" stroke="#63b8ff" d="M442.3,-388.23C462.05,-381.06 484.76,-369.77 499.88,-352.75 524,-325.59 520.02,-311.11 525.88,-275.25 534.62,-221.71 482.58,-169.26 458.55,-148.24"/>
<polygon fill="#63b8ff" stroke="#63b8ff" points="441.2,-384.91 432.83,-391.42 443.43,-391.55 441.2,-384.91"/>
</a>
</g>
</g>
<!-- Node9 -->
<g id="Node000009" class="node">
<title>Node9</title>
<g id="a_Node000009"><a xlink:href="structnix_1_1MixEvalArgs.html" target="_top" xlink:title=" ">
<polygon fill="white" stroke="#bfbfbf" points="256.75,-275.25 159,-275.25 159,-254.5 256.75,-254.5 256.75,-275.25"/>
<text text-anchor="middle" x="207.88" y="-261.75" font-family="Helvetica,sans-Serif" font-size="10.00">nix::MixEvalArgs</text>
</a>
</g>
</g>
<!-- Node3&#45;&gt;Node9 -->
<g id="edge12_Node000009_Node000003" class="edge">
<title>Node3&#45;&gt;Node9</title>
<g id="a_edge12_Node000009_Node000003"><a xlink:title=" ">
<path fill="none" stroke="#63b8ff" d="M361.05,-396.6C326.33,-392.42 277.1,-381.45 244.88,-352.75 221.37,-331.81 212.31,-293.41 209.25,-275.52"/>
<polygon fill="#63b8ff" stroke="#63b8ff" points="360.41,-400.05 370.72,-397.61 361.14,-393.09 360.41,-400.05"/>
</a>
</g>
</g>
<!-- Node10 -->
<g id="Node000010" class="node">
<title>Node10</title>
<g id="a_Node000010"><a xlink:href="structnix_1_1MixRepair.html" target="_top" xlink:title=" ">
<polygon fill="white" stroke="#bfbfbf" points="340.12,-352.75 253.62,-352.75 253.62,-332 340.12,-332 340.12,-352.75"/>
<text text-anchor="middle" x="296.88" y="-339.25" font-family="Helvetica,sans-Serif" font-size="10.00">nix::MixRepair</text>
</a>
</g>
</g>
<!-- Node3&#45;&gt;Node10 -->
<g id="edge14_Node000010_Node000003" class="edge">
<title>Node3&#45;&gt;Node10</title>
<g id="a_edge14_Node000010_Node000003"><a xlink:title=" ">
<path fill="none" stroke="#63b8ff" d="M373.64,-384.13C355.12,-374.3 331.44,-361.73 315.31,-353.16"/>
<polygon fill="#63b8ff" stroke="#63b8ff" points="371.78,-387.11 382.25,-388.7 375.06,-380.92 371.78,-387.11"/>
</a>
</g>
</g>
<!-- Node14 -->
<g id="Node000014" class="node">
<title>Node14</title>
<g id="a_Node000014"><a xlink:href="structnix_1_1MixJSON.html" target="_top" xlink:title=" ">
<polygon fill="white" stroke="#bfbfbf" points="668.38,-314 589.38,-314 589.38,-293.25 668.38,-293.25 668.38,-314"/>
<text text-anchor="middle" x="628.88" y="-300.5" font-family="Helvetica,sans-Serif" font-size="10.00">nix::MixJSON</text>
</a>
</g>
</g>
<!-- Node3&#45;&gt;Node14 -->
<g id="edge19_Node000014_Node000003" class="edge">
<title>Node3&#45;&gt;Node14</title>
<g id="a_edge19_Node000014_Node000003"><a xlink:title=" ">
<path fill="none" stroke="#63b8ff" d="M443.02,-398.47C475.95,-396.45 522.49,-390.17 558.88,-371.75 586.37,-357.84 610.32,-329.51 621.75,-314.49"/>
<polygon fill="#63b8ff" stroke="#63b8ff" points="442.87,-394.97 433.06,-398.96 443.22,-401.96 442.87,-394.97"/>
</a>
</g>
</g>
<!-- Node4 -->
<g id="Node000004" class="node">
<title>Node4</title>
<g id="a_Node000004"><a xlink:href="classnix_1_1MultiCommand.html" target="_top" xlink:title=" ">
<polygon fill="white" stroke="#666666" points="516.88,-275.25 404.88,-275.25 404.88,-254.5 516.88,-254.5 516.88,-275.25"/>
<text text-anchor="middle" x="460.88" y="-261.75" font-family="Helvetica,sans-Serif" font-size="10.00">nix::MultiCommand</text>
</a>
</g>
</g>
<!-- Node4&#45;&gt;Node3 -->
<g id="edge3_Node000003_Node000004" class="edge">
<title>Node4&#45;&gt;Node3</title>
<g id="a_edge3_Node000003_Node000004"><a xlink:title=" ">
<path fill="none" stroke="#9a32cd" stroke-dasharray="5,2" d="M463.76,-287.04C465.29,-305.39 465.09,-332.16 454.88,-352.75 447.05,-368.52 431.26,-381.22 418.94,-389.32"/>
<polygon fill="#9a32cd" stroke="#9a32cd" points="467.25,-286.68 462.67,-277.12 460.29,-287.45 467.25,-286.68"/>
</a>
</g>
<text text-anchor="middle" x="478.83" y="-339.25" font-family="Helvetica,sans-Serif" font-size="10.00" fill="grey"> parent</text>
</g>
<!-- Node5&#45;&gt;Node4 -->
<g id="edge4_Node000004_Node000005" class="edge">
<title>Node5&#45;&gt;Node4</title>
<g id="a_edge4_Node000004_Node000005"><a xlink:title=" ">
<path fill="none" stroke="#63b8ff" d="M416.55,-322.6C428.23,-307.65 444.11,-287.33 453.35,-275.51"/>
<polygon fill="#63b8ff" stroke="#63b8ff" points="413.92,-320.28 410.52,-330.31 419.44,-324.59 413.92,-320.28"/>
</a>
</g>
</g>
<!-- Node8 -->
<g id="Node000008" class="node">
<title>Node8</title>
<g id="a_Node000008"><a xlink:href="structnix_1_1StoreCommand.html" target="_top" xlink:title=" ">
<polygon fill="white" stroke="#666666" points="387.25,-275.25 274.5,-275.25 274.5,-254.5 387.25,-254.5 387.25,-275.25"/>
<text text-anchor="middle" x="330.88" y="-261.75" font-family="Helvetica,sans-Serif" font-size="10.00">nix::StoreCommand</text>
</a>
</g>
</g>
<!-- Node5&#45;&gt;Node8 -->
<g id="edge10_Node000008_Node000005" class="edge">
<title>Node5&#45;&gt;Node8</title>
<g id="a_edge10_Node000008_Node000005"><a xlink:title=" ">
<path fill="none" stroke="#63b8ff" d="M385.02,-323.45C370.89,-308.42 351.26,-287.56 339.93,-275.51"/>
<polygon fill="#63b8ff" stroke="#63b8ff" points="382.16,-325.51 391.56,-330.4 387.26,-320.72 382.16,-325.51"/>
</a>
</g>
</g>
<!-- Node6&#45;&gt;Node2 -->
<g id="edge6_Node000002_Node000006" class="edge">
<title>Node6&#45;&gt;Node2</title>
<g id="a_edge6_Node000002_Node000006"><a xlink:title=" ">
<path fill="none" stroke="#63b8ff" d="M409.87,-122.98C374.48,-109.92 321.97,-90.55 290.52,-78.95"/>
<polygon fill="#63b8ff" stroke="#63b8ff" points="408.25,-126.11 418.85,-126.29 410.67,-119.54 408.25,-126.11"/>
</a>
</g>
</g>
<!-- Node7 -->
<g id="Node000007" class="node">
<title>Node7</title>
<g id="a_Node000007"><a xlink:href="structnix_1_1EvalCommand.html" target="_top" xlink:title=" ">
<polygon fill="white" stroke="#666666" points="385,-217.5 276.75,-217.5 276.75,-196.75 385,-196.75 385,-217.5"/>
<text text-anchor="middle" x="330.88" y="-204" font-family="Helvetica,sans-Serif" font-size="10.00">nix::EvalCommand</text>
</a>
</g>
</g>
<!-- Node7&#45;&gt;Node6 -->
<g id="edge8_Node000006_Node000007" class="edge">
<title>Node7&#45;&gt;Node6</title>
<g id="a_edge8_Node000006_Node000007"><a xlink:title=" ">
<path fill="none" stroke="#63b8ff" d="M357.33,-190.73C379.61,-177.76 410.83,-159.6 429.91,-148.5"/>
<polygon fill="#63b8ff" stroke="#63b8ff" points="355.69,-187.64 348.8,-195.69 359.21,-193.69 355.69,-187.64"/>
</a>
</g>
</g>
<!-- Node8&#45;&gt;Node7 -->
<g id="edge9_Node000007_Node000008" class="edge">
<title>Node8&#45;&gt;Node7</title>
<g id="a_edge9_Node000007_Node000008"><a xlink:title=" ">
<path fill="none" stroke="#63b8ff" d="M330.88,-242.93C330.88,-234.27 330.88,-224.65 330.88,-217.72"/>
<polygon fill="#63b8ff" stroke="#63b8ff" points="327.38,-242.65 330.88,-252.65 334.38,-242.65 327.38,-242.65"/>
</a>
</g>
</g>
<!-- Node9&#45;&gt;Node7 -->
<g id="edge11_Node000007_Node000009" class="edge">
<title>Node9&#45;&gt;Node7</title>
<g id="a_edge11_Node000007_Node000009"><a xlink:title=" ">
<path fill="none" stroke="#63b8ff" d="M240.03,-249.3C261.9,-239.39 290.22,-226.55 309.39,-217.87"/>
<polygon fill="#63b8ff" stroke="#63b8ff" points="238.62,-246.1 230.96,-253.41 241.51,-252.47 238.62,-246.1"/>
</a>
</g>
</g>
<!-- Node10&#45;&gt;Node9 -->
<g id="edge13_Node000009_Node000010" class="edge">
<title>Node10&#45;&gt;Node9</title>
<g id="a_edge13_Node000009_Node000010"><a xlink:title=" ">
<path fill="none" stroke="#63b8ff" d="M276.78,-324.33C259.12,-309.35 234.04,-288.07 219.51,-275.75"/>
<polygon fill="#63b8ff" stroke="#63b8ff" points="274.2,-326.73 284.09,-330.53 278.72,-321.39 274.2,-326.73"/>
</a>
</g>
</g>
<!-- Node11 -->
<g id="Node000011" class="node">
<title>Node11</title>
<g id="a_Node000011"><a xlink:href="structnix_1_1SearchPath.html" target="_top" xlink:title=" ">
<polygon fill="white" stroke="#666666" points="197.38,-352.75 106.38,-352.75 106.38,-332 197.38,-332 197.38,-352.75"/>
<text text-anchor="middle" x="151.88" y="-339.25" font-family="Helvetica,sans-Serif" font-size="10.00">nix::SearchPath</text>
</a>
</g>
</g>
<!-- Node11&#45;&gt;Node9 -->
<g id="edge15_Node000009_Node000011" class="edge">
<title>Node11&#45;&gt;Node9</title>
<g id="a_edge15_Node000009_Node000011"><a xlink:title=" ">
<path fill="none" stroke="#9a32cd" stroke-dasharray="5,2" d="M149.2,-320.44C149.08,-311.41 150.42,-301.14 155.62,-293.25 160.76,-285.47 168.84,-279.76 177.13,-275.64"/>
<polygon fill="#9a32cd" stroke="#9a32cd" points="145.69,-320.43 149.93,-330.13 152.67,-319.9 145.69,-320.43"/>
</a>
</g>
<text text-anchor="middle" x="183.75" y="-300.5" font-family="Helvetica,sans-Serif" font-size="10.00" fill="grey"> searchPath</text>
</g>
<!-- Node12 -->
<g id="Node000012" class="node">
<title>Node12</title>
<g id="a_Node000012"><a xlink:href="structnix_1_1flake_1_1LockFlags.html" target="_top" xlink:title=" ">
<polygon fill="white" stroke="#bfbfbf" points="658.38,-217.5 543.38,-217.5 543.38,-196.75 658.38,-196.75 658.38,-217.5"/>
<text text-anchor="middle" x="600.88" y="-204" font-family="Helvetica,sans-Serif" font-size="10.00">nix::flake::LockFlags</text>
</a>
</g>
</g>
<!-- Node12&#45;&gt;Node6 -->
<g id="edge16_Node000006_Node000012" class="edge">
<title>Node12&#45;&gt;Node6</title>
<g id="a_edge16_Node000006_Node000012"><a xlink:title=" ">
<path fill="none" stroke="#9a32cd" stroke-dasharray="5,2" d="M575.71,-190.58C562.15,-182.6 544.94,-173.09 528.88,-166 513.49,-159.22 495.88,-153.13 480.92,-148.43"/>
<polygon fill="#9a32cd" stroke="#9a32cd" points="573.62,-193.41 584,-195.55 577.22,-187.4 573.62,-193.41"/>
</a>
</g>
<text text-anchor="middle" x="578.02" y="-169.25" font-family="Helvetica,sans-Serif" font-size="10.00" fill="grey"> lockFlags</text>
</g>
<!-- Node13 -->
<g id="Node000013" class="node">
<title>Node13</title>
<g id="a_Node000013"><a xlink:title=" ">
<polygon fill="white" stroke="#bfbfbf" points="43.75,-148 0,-148 0,-127.25 43.75,-127.25 43.75,-148"/>
<text text-anchor="middle" x="21.88" y="-134.5" font-family="Helvetica,sans-Serif" font-size="10.00">string</text>
</a>
</g>
</g>
<!-- Node13&#45;&gt;Node2 -->
<g id="edge17_Node000002_Node000013" class="edge">
<title>Node13&#45;&gt;Node2</title>
<g id="a_edge17_Node000002_Node000013"><a xlink:title=" ">
<path fill="none" stroke="#9a32cd" stroke-dasharray="5,2" d="M17.59,-115.78C17.37,-108.85 18.64,-101.61 23.38,-96.5 35.64,-83.27 139.7,-75.47 206.86,-71.77"/>
<polygon fill="#9a32cd" stroke="#9a32cd" points="14.1,-116.08 18.88,-125.54 21.04,-115.17 14.1,-116.08"/>
</a>
</g>
<text text-anchor="middle" x="43.62" y="-99.75" font-family="Helvetica,sans-Serif" font-size="10.00" fill="grey"> flakeUrl</text>
</g>
<!-- Node14&#45;&gt;Node1 -->
<g id="edge18_Node000001_Node000014" class="edge">
<title>Node14&#45;&gt;Node1</title>
<g id="a_edge18_Node000001_Node000014"><a xlink:title=" ">
<path fill="none" stroke="#63b8ff" d="M655.22,-286.3C670.55,-274.58 686.88,-257.24 686.88,-236.5 686.88,-236.5 686.88,-236.5 686.88,-67.12 686.88,-31.12 645.34,-17.9 608.34,-13.27"/>
<polygon fill="#63b8ff" stroke="#63b8ff" points="653.34,-283.34 647.2,-291.97 657.39,-289.06 653.34,-283.34"/>
</a>
</g>
</g>
</g>
</svg>
