<?xml version="1.0" encoding="UTF-8" standalone="no"?>
<!DOCTYPE svg PUBLIC "-//W3C//DTD SVG 1.1//EN"
 "http://www.w3.org/Graphics/SVG/1.1/DTD/svg11.dtd">
<!-- Generated by graphviz version 12.2.1 (0)
 -->
<!-- Title: nix::CmdToBase Pages: 1 -->
<svg width="102pt" height="142pt"
 viewBox="0.00 0.00 102.00 142.25" xmlns="http://www.w3.org/2000/svg" xmlns:xlink="http://www.w3.org/1999/xlink">
<g id="graph0" class="graph" transform="scale(1 1) rotate(0) translate(4 138.25)">
<title>nix::CmdToBase</title>
<!-- Node1 -->
<g id="Node000001" class="node">
<title>Node1</title>
<g id="a_Node000001"><a xlink:title=" ">
<polygon fill="#999999" stroke="#666666" points="94,-20.75 0,-20.75 0,0 94,0 94,-20.75"/>
<text text-anchor="middle" x="47" y="-7.25" font-family="Helvetica,sans-Serif" font-size="10.00">nix::CmdToBase</text>
</a>
</g>
</g>
<!-- Node2 -->
<g id="Node000002" class="node">
<title>Node2</title>
<g id="a_Node000002"><a xlink:href="structnix_1_1Command.html" target="_top" xlink:title=" ">
<polygon fill="white" stroke="#666666" points="90.62,-77.5 3.38,-77.5 3.38,-56.75 90.62,-56.75 90.62,-77.5"/>
<text text-anchor="middle" x="47" y="-64" font-family="Helvetica,sans-Serif" font-size="10.00">nix::Command</text>
</a>
</g>
</g>
<!-- Node2&#45;&gt;Node1 -->
<g id="edge1_Node000001_Node000002" class="edge">
<title>Node2&#45;&gt;Node1</title>
<g id="a_edge1_Node000001_Node000002"><a xlink:title=" ">
<path fill="none" stroke="#63b8ff" d="M47,-44.88C47,-36.66 47,-27.68 47,-21.08"/>
<polygon fill="#63b8ff" stroke="#63b8ff" points="43.5,-44.82 47,-54.82 50.5,-44.82 43.5,-44.82"/>
</a>
</g>
</g>
<!-- Node3 -->
<g id="Node000003" class="node">
<title>Node3</title>
<g id="a_Node000003"><a xlink:href="classnix_1_1Args.html" target="_top" xlink:title=" ">
<polygon fill="white" stroke="#bfbfbf" points="76.38,-134.25 17.63,-134.25 17.63,-113.5 76.38,-113.5 76.38,-134.25"/>
<text text-anchor="middle" x="47" y="-120.75" font-family="Helvetica,sans-Serif" font-size="10.00">nix::Args</text>
</a>
</g>
</g>
<!-- Node3&#45;&gt;Node2 -->
<g id="edge2_Node000002_Node000003" class="edge">
<title>Node3&#45;&gt;Node2</title>
<g id="a_edge2_Node000002_Node000003"><a xlink:title=" ">
<path fill="none" stroke="#63b8ff" d="M47,-101.63C47,-93.41 47,-84.43 47,-77.83"/>
<polygon fill="#63b8ff" stroke="#63b8ff" points="43.5,-101.57 47,-111.57 50.5,-101.57 43.5,-101.57"/>
</a>
</g>
</g>
</g>
</svg>
