<?xml version="1.0" encoding="UTF-8" standalone="no"?>
<!DOCTYPE svg PUBLIC "-//W3C//DTD SVG 1.1//EN"
 "http://www.w3.org/Graphics/SVG/1.1/DTD/svg11.dtd">
<!-- Generated by graphviz version 12.2.1 (0)
 -->
<!-- Title: nix::ServeProtoTest Pages: 1 -->
<svg width="179pt" height="239pt"
 viewBox="0.00 0.00 178.89 239.25" xmlns="http://www.w3.org/2000/svg" xmlns:xlink="http://www.w3.org/1999/xlink">
<g id="graph0" class="graph" transform="scale(1 1) rotate(0) translate(4 235.25)">
<title>nix::ServeProtoTest</title>
<!-- Node1 -->
<g id="Node000001" class="node">
<title>Node1</title>
<g id="a_Node000001"><a xlink:title=" ">
<polygon fill="#999999" stroke="#666666" points="137.12,-20.75 27.38,-20.75 27.38,0 137.12,0 137.12,-20.75"/>
<text text-anchor="middle" x="82.25" y="-7.25" font-family="Helvetica,sans-Serif" font-size="10.00">nix::ServeProtoTest</text>
</a>
</g>
</g>
<!-- Node2 -->
<g id="Node000002" class="node">
<title>Node2</title>
<g id="a_Node000002"><a xlink:href="classnix_1_1VersionedProtoTest.html" target="_top" xlink:title=" ">
<polygon fill="white" stroke="#bfbfbf" points="164.5,-91.25 0,-91.25 0,-57.75 164.5,-57.75 164.5,-91.25"/>
<text text-anchor="start" x="8" y="-77.75" font-family="Helvetica,sans-Serif" font-size="10.00">nix::VersionedProtoTest</text>
<text text-anchor="middle" x="82.25" y="-65" font-family="Helvetica,sans-Serif" font-size="10.00">&lt; ServeProto, serveProtoDir &gt;</text>
</a>
</g>
</g>
<!-- Node2&#45;&gt;Node1 -->
<g id="edge1_Node000001_Node000002" class="edge">
<title>Node2&#45;&gt;Node1</title>
<g id="a_edge1_Node000001_Node000002"><a xlink:title=" ">
<path fill="none" stroke="#63b8ff" d="M82.25,-46.23C82.25,-37.27 82.25,-27.89 82.25,-21.12"/>
<polygon fill="#63b8ff" stroke="#63b8ff" points="78.75,-45.99 82.25,-55.99 85.75,-45.99 78.75,-45.99"/>
</a>
</g>
</g>
<!-- Node3 -->
<g id="Node000003" class="node">
<title>Node3</title>
<g id="a_Node000003"><a xlink:href="classnix_1_1ProtoTest.html" target="_top" xlink:title=" ">
<polygon fill="white" stroke="#bfbfbf" points="143.12,-161.75 21.38,-161.75 21.38,-128.25 143.12,-128.25 143.12,-161.75"/>
<text text-anchor="start" x="29.38" y="-148.25" font-family="Helvetica,sans-Serif" font-size="10.00">nix::ProtoTest&lt; Proto,</text>
<text text-anchor="middle" x="82.25" y="-135.5" font-family="Helvetica,sans-Serif" font-size="10.00"> protocolDir &gt;</text>
</a>
</g>
</g>
<!-- Node3&#45;&gt;Node2 -->
<g id="edge2_Node000002_Node000003" class="edge">
<title>Node3&#45;&gt;Node2</title>
<g id="a_edge2_Node000002_Node000003"><a xlink:title=" ">
<path fill="none" stroke="#63b8ff" d="M82.25,-116.45C82.25,-108.02 82.25,-99.02 82.25,-91.62"/>
<polygon fill="#63b8ff" stroke="#63b8ff" points="78.75,-116.25 82.25,-126.25 85.75,-116.25 78.75,-116.25"/>
</a>
</g>
</g>
<!-- Node4 -->
<g id="Node000004" class="node">
<title>Node4</title>
<g id="a_Node000004"><a xlink:title=" ">
<polygon fill="white" stroke="#bfbfbf" points="80.88,-231.25 5.62,-231.25 5.62,-210.5 80.88,-210.5 80.88,-231.25"/>
<text text-anchor="middle" x="43.25" y="-217.75" font-family="Helvetica,sans-Serif" font-size="10.00">LibStoreTest</text>
</a>
</g>
</g>
<!-- Node4&#45;&gt;Node3 -->
<g id="edge3_Node000003_Node000004" class="edge">
<title>Node4&#45;&gt;Node3</title>
<g id="a_edge3_Node000003_Node000004"><a xlink:title=" ">
<path fill="none" stroke="#63b8ff" d="M53.55,-200.36C59.84,-188.44 67.79,-173.4 73.72,-162.16"/>
<polygon fill="#63b8ff" stroke="#63b8ff" points="50.63,-198.4 49.06,-208.88 56.82,-201.67 50.63,-198.4"/>
</a>
</g>
</g>
<!-- Node5 -->
<g id="Node000005" class="node">
<title>Node5</title>
<g id="a_Node000005"><a xlink:title=" ">
<polygon fill="white" stroke="#bfbfbf" points="143.12,-231.25 99.38,-231.25 99.38,-210.5 143.12,-210.5 143.12,-231.25"/>
<text text-anchor="middle" x="121.25" y="-217.75" font-family="Helvetica,sans-Serif" font-size="10.00">string</text>
</a>
</g>
</g>
<!-- Node5&#45;&gt;Node3 -->
<g id="edge4_Node000003_Node000005" class="edge">
<title>Node5&#45;&gt;Node3</title>
<g id="a_edge4_Node000003_Node000005"><a xlink:title=" ">
<path fill="none" stroke="#9a32cd" stroke-dasharray="5,2" d="M110.95,-200.36C104.66,-188.44 96.71,-173.4 90.78,-162.16"/>
<polygon fill="#9a32cd" stroke="#9a32cd" points="107.68,-201.67 115.44,-208.88 113.87,-198.4 107.68,-201.67"/>
</a>
</g>
<text text-anchor="middle" x="138.64" y="-183" font-family="Helvetica,sans-Serif" font-size="10.00" fill="grey"> unitTestData</text>
</g>
</g>
</svg>
