<?xml version="1.0" encoding="UTF-8" standalone="no"?>
<!DOCTYPE svg PUBLIC "-//W3C//DTD SVG 1.1//EN"
 "http://www.w3.org/Graphics/SVG/1.1/DTD/svg11.dtd">
<!-- Generated by graphviz version 12.2.1 (0)
 -->
<!-- Title: nix::MixRepair Pages: 1 -->
<svg width="1511pt" height="828pt"
 viewBox="0.00 0.00 1510.50 827.75" xmlns="http://www.w3.org/2000/svg" xmlns:xlink="http://www.w3.org/1999/xlink">
<g id="graph0" class="graph" transform="scale(1 1) rotate(0) translate(4 823.75)">
<title>nix::MixRepair</title>
<!-- Node1 -->
<g id="Node000001" class="node">
<title>Node1</title>
<g id="a_Node000001"><a xlink:title=" ">
<polygon fill="#999999" stroke="#666666" points="181.25,-702.75 94.75,-702.75 94.75,-682 181.25,-682 181.25,-702.75"/>
<text text-anchor="middle" x="138" y="-689.25" font-family="Helvetica,sans-Serif" font-size="10.00">nix::MixRepair</text>
</a>
</g>
</g>
<!-- Node3 -->
<g id="Node000003" class="node">
<title>Node3</title>
<g id="a_Node000003"><a xlink:href="structnix_1_1MixEvalArgs.html" target="_top" xlink:title=" ">
<polygon fill="white" stroke="#bfbfbf" points="315,-702.75 217.25,-702.75 217.25,-682 315,-682 315,-702.75"/>
<text text-anchor="middle" x="266.12" y="-689.25" font-family="Helvetica,sans-Serif" font-size="10.00">nix::MixEvalArgs</text>
</a>
</g>
</g>
<!-- Node1&#45;&gt;Node3 -->
<g id="edge2_Node000001_Node000003" class="edge">
<title>Node1&#45;&gt;Node3</title>
<g id="a_edge2_Node000001_Node000003"><a xlink:title=" ">
<path fill="none" stroke="#63b8ff" d="M193.07,-692.38C200.97,-692.38 209.05,-692.38 216.82,-692.38"/>
<polygon fill="#63b8ff" stroke="#63b8ff" points="193.21,-688.88 183.21,-692.38 193.21,-695.88 193.21,-688.88"/>
</a>
</g>
</g>
<!-- Node2 -->
<g id="Node000002" class="node">
<title>Node2</title>
<g id="a_Node000002"><a xlink:href="classnix_1_1Args.html" target="_top" xlink:title=" ">
<polygon fill="white" stroke="#bfbfbf" points="58.75,-702.75 0,-702.75 0,-682 58.75,-682 58.75,-702.75"/>
<text text-anchor="middle" x="29.38" y="-689.25" font-family="Helvetica,sans-Serif" font-size="10.00">nix::Args</text>
</a>
</g>
</g>
<!-- Node2&#45;&gt;Node1 -->
<g id="edge1_Node000001_Node000002" class="edge">
<title>Node2&#45;&gt;Node1</title>
<g id="a_edge1_Node000001_Node000002"><a xlink:title=" ">
<path fill="none" stroke="#63b8ff" d="M70.66,-692.38C78.45,-692.38 86.64,-692.38 94.5,-692.38"/>
<polygon fill="#63b8ff" stroke="#63b8ff" points="70.74,-688.88 60.74,-692.38 70.74,-695.88 70.74,-688.88"/>
</a>
</g>
</g>
<!-- Node4 -->
<g id="Node000004" class="node">
<title>Node4</title>
<g id="a_Node000004"><a xlink:href="structnix_1_1CmdRegistryAdd.html" target="_top" xlink:title=" ">
<polygon fill="white" stroke="#bfbfbf" points="469.75,-722.75 351,-722.75 351,-702 469.75,-702 469.75,-722.75"/>
<text text-anchor="middle" x="410.38" y="-709.25" font-family="Helvetica,sans-Serif" font-size="10.00">nix::CmdRegistryAdd</text>
</a>
</g>
</g>
<!-- Node3&#45;&gt;Node4 -->
<g id="edge3_Node000003_Node000004" class="edge">
<title>Node3&#45;&gt;Node4</title>
<g id="a_edge3_Node000003_Node000004"><a xlink:title=" ">
<path fill="none" stroke="#63b8ff" d="M326.43,-700.71C334.44,-701.84 342.66,-703 350.66,-704.12"/>
<polygon fill="#63b8ff" stroke="#63b8ff" points="327.17,-697.28 316.78,-699.36 326.2,-704.22 327.17,-697.28"/>
</a>
</g>
</g>
<!-- Node5 -->
<g id="Node000005" class="node">
<title>Node5</title>
<g id="a_Node000005"><a xlink:href="structnix_1_1EvalCommand.html" target="_top" xlink:title=" ">
<polygon fill="white" stroke="#666666" points="464.5,-683.75 356.25,-683.75 356.25,-663 464.5,-663 464.5,-683.75"/>
<text text-anchor="middle" x="410.38" y="-670.25" font-family="Helvetica,sans-Serif" font-size="10.00">nix::EvalCommand</text>
</a>
</g>
</g>
<!-- Node3&#45;&gt;Node5 -->
<g id="edge4_Node000003_Node000005" class="edge">
<title>Node3&#45;&gt;Node5</title>
<g id="a_edge4_Node000003_Node000005"><a xlink:title=" ">
<path fill="none" stroke="#63b8ff" d="M326.53,-684.44C336.27,-683.14 346.31,-681.8 355.89,-680.52"/>
<polygon fill="#63b8ff" stroke="#63b8ff" points="326.23,-680.95 316.78,-685.74 327.16,-687.89 326.23,-680.95"/>
</a>
</g>
</g>
<!-- Node6 -->
<g id="Node000006" class="node">
<title>Node6</title>
<g id="a_Node000006"><a xlink:href="structnix_1_1CmdFlakeInitCommon.html" target="_top" xlink:title=" ">
<polygon fill="white" stroke="#bfbfbf" points="651.5,-800.75 505.75,-800.75 505.75,-780 651.5,-780 651.5,-800.75"/>
<text text-anchor="middle" x="578.62" y="-787.25" font-family="Helvetica,sans-Serif" font-size="10.00">nix::CmdFlakeInitCommon</text>
</a>
</g>
</g>
<!-- Node5&#45;&gt;Node6 -->
<g id="edge5_Node000005_Node000006" class="edge">
<title>Node5&#45;&gt;Node6</title>
<g id="a_edge5_Node000005_Node000006"><a xlink:title=" ">
<path fill="none" stroke="#63b8ff" d="M465.24,-689.77C466.81,-690.9 468.33,-692.1 469.75,-693.38 497.86,-718.62 476.92,-745.97 505.75,-770.38 510.1,-774.06 515.08,-777.06 520.34,-779.52"/>
<polygon fill="#63b8ff" stroke="#63b8ff" points="467.31,-686.93 456.91,-684.91 463.78,-692.98 467.31,-686.93"/>
</a>
</g>
</g>
<!-- Node9 -->
<g id="Node000009" class="node">
<title>Node9</title>
<g id="a_Node000009"><a xlink:href="structnix_1_1CmdProfileHistory.html" target="_top" xlink:title=" ">
<polygon fill="white" stroke="#bfbfbf" points="641.38,-761.75 515.88,-761.75 515.88,-741 641.38,-741 641.38,-761.75"/>
<text text-anchor="middle" x="578.62" y="-748.25" font-family="Helvetica,sans-Serif" font-size="10.00">nix::CmdProfileHistory</text>
</a>
</g>
</g>
<!-- Node5&#45;&gt;Node9 -->
<g id="edge8_Node000005_Node000009" class="edge">
<title>Node5&#45;&gt;Node9</title>
<g id="a_edge8_Node000005_Node000009"><a xlink:title=" ">
<path fill="none" stroke="#63b8ff" d="M461.78,-688.84C464.54,-690.24 467.22,-691.75 469.75,-693.38 489.32,-705.95 485.82,-719.38 505.75,-731.38 511.85,-735.05 518.65,-738.07 525.56,-740.54"/>
<polygon fill="#63b8ff" stroke="#63b8ff" points="463.45,-685.75 452.89,-684.86 460.59,-692.14 463.45,-685.75"/>
</a>
</g>
</g>
<!-- Node10 -->
<g id="Node000010" class="node">
<title>Node10</title>
<g id="a_Node000010"><a xlink:href="structnix_1_1CmdProfileList.html" target="_top" xlink:title=" ">
<polygon fill="white" stroke="#bfbfbf" points="632.38,-722.75 524.88,-722.75 524.88,-702 632.38,-702 632.38,-722.75"/>
<text text-anchor="middle" x="578.62" y="-709.25" font-family="Helvetica,sans-Serif" font-size="10.00">nix::CmdProfileList</text>
</a>
</g>
</g>
<!-- Node5&#45;&gt;Node10 -->
<g id="edge9_Node000005_Node000010" class="edge">
<title>Node5&#45;&gt;Node10</title>
<g id="a_edge9_Node000005_Node000010"><a xlink:title=" ">
<path fill="none" stroke="#63b8ff" d="M468.76,-686.84C489.18,-691.63 511.9,-696.96 531.28,-701.5"/>
<polygon fill="#63b8ff" stroke="#63b8ff" points="469.69,-683.46 459.16,-684.58 468.09,-690.28 469.69,-683.46"/>
</a>
</g>
</g>
<!-- Node11 -->
<g id="Node000011" class="node">
<title>Node11</title>
<g id="a_Node000011"><a xlink:href="structnix_1_1CmdProfileRemove.html" target="_top" xlink:title=" ">
<polygon fill="white" stroke="#bfbfbf" points="644,-683.75 513.25,-683.75 513.25,-663 644,-663 644,-683.75"/>
<text text-anchor="middle" x="578.62" y="-670.25" font-family="Helvetica,sans-Serif" font-size="10.00">nix::CmdProfileRemove</text>
</a>
</g>
</g>
<!-- Node5&#45;&gt;Node11 -->
<g id="edge10_Node000005_Node000011" class="edge">
<title>Node5&#45;&gt;Node11</title>
<g id="a_edge10_Node000005_Node000011"><a xlink:title=" ">
<path fill="none" stroke="#63b8ff" d="M476.23,-673.38C488.27,-673.38 500.84,-673.38 512.87,-673.38"/>
<polygon fill="#63b8ff" stroke="#63b8ff" points="476.41,-669.88 466.41,-673.38 476.41,-676.88 476.41,-669.88"/>
</a>
</g>
</g>
<!-- Node12 -->
<g id="Node000012" class="node">
<title>Node12</title>
<g id="a_Node000012"><a xlink:href="structnix_1_1CmdRegistryPin.html" target="_top" xlink:title=" ">
<polygon fill="white" stroke="#bfbfbf" points="636.12,-644.75 521.12,-644.75 521.12,-624 636.12,-624 636.12,-644.75"/>
<text text-anchor="middle" x="578.62" y="-631.25" font-family="Helvetica,sans-Serif" font-size="10.00">nix::CmdRegistryPin</text>
</a>
</g>
</g>
<!-- Node5&#45;&gt;Node12 -->
<g id="edge11_Node000005_Node000012" class="edge">
<title>Node5&#45;&gt;Node12</title>
<g id="a_edge11_Node000005_Node000012"><a xlink:title=" ">
<path fill="none" stroke="#63b8ff" d="M468.76,-659.91C489.18,-655.12 511.9,-649.79 531.28,-645.25"/>
<polygon fill="#63b8ff" stroke="#63b8ff" points="468.09,-656.47 459.16,-662.17 469.69,-663.29 468.09,-656.47"/>
</a>
</g>
</g>
<!-- Node13 -->
<g id="Node000013" class="node">
<title>Node13</title>
<g id="a_Node000013"><a xlink:href="structnix_1_1CmdUpgradeNix.html" target="_top" xlink:title=" ">
<polygon fill="white" stroke="#bfbfbf" points="637.25,-605.75 520,-605.75 520,-585 637.25,-585 637.25,-605.75"/>
<text text-anchor="middle" x="578.62" y="-592.25" font-family="Helvetica,sans-Serif" font-size="10.00">nix::CmdUpgradeNix</text>
</a>
</g>
</g>
<!-- Node5&#45;&gt;Node13 -->
<g id="edge12_Node000005_Node000013" class="edge">
<title>Node5&#45;&gt;Node13</title>
<g id="a_edge12_Node000005_Node000013"><a xlink:title=" ">
<path fill="none" stroke="#63b8ff" d="M435.4,-655.99C453.89,-643.28 480.46,-626.4 505.75,-615.38 513.82,-611.85 522.68,-608.79 531.33,-606.2"/>
<polygon fill="#63b8ff" stroke="#63b8ff" points="433.45,-653.09 427.26,-661.69 437.46,-658.82 433.45,-653.09"/>
</a>
</g>
</g>
<!-- Node14 -->
<g id="Node000014" class="node">
<title>Node14</title>
<g id="a_Node000014"><a xlink:href="structnix_1_1MixFlakeOptions.html" target="_top" xlink:title=" ">
<polygon fill="white" stroke="#666666" points="638,-566.75 519.25,-566.75 519.25,-546 638,-546 638,-566.75"/>
<text text-anchor="middle" x="578.62" y="-553.25" font-family="Helvetica,sans-Serif" font-size="10.00">nix::MixFlakeOptions</text>
</a>
</g>
</g>
<!-- Node5&#45;&gt;Node14 -->
<g id="edge13_Node000005_Node000014" class="edge">
<title>Node5&#45;&gt;Node14</title>
<g id="a_edge13_Node000005_Node000014"><a xlink:title=" ">
<path fill="none" stroke="#63b8ff" d="M425.58,-653.41C442.3,-631.36 472.1,-596.33 505.75,-576.38 511.99,-572.68 518.94,-569.64 525.99,-567.15"/>
<polygon fill="#63b8ff" stroke="#63b8ff" points="422.87,-651.19 419.74,-661.32 428.5,-655.35 422.87,-651.19"/>
</a>
</g>
</g>
<!-- Node7 -->
<g id="Node000007" class="node">
<title>Node7</title>
<g id="a_Node000007"><a xlink:href="structnix_1_1CmdFlakeInit.html" target="_top" xlink:title=" ">
<polygon fill="white" stroke="#bfbfbf" points="809.25,-819.75 707.75,-819.75 707.75,-799 809.25,-799 809.25,-819.75"/>
<text text-anchor="middle" x="758.5" y="-806.25" font-family="Helvetica,sans-Serif" font-size="10.00">nix::CmdFlakeInit</text>
</a>
</g>
</g>
<!-- Node6&#45;&gt;Node7 -->
<g id="edge6_Node000006_Node000007" class="edge">
<title>Node6&#45;&gt;Node7</title>
<g id="a_edge6_Node000006_Node000007"><a xlink:title=" ">
<path fill="none" stroke="#63b8ff" d="M663.38,-799.32C678.39,-800.92 693.59,-802.55 707.27,-804.01"/>
<polygon fill="#63b8ff" stroke="#63b8ff" points="663.79,-795.85 653.48,-798.26 663.05,-802.81 663.79,-795.85"/>
</a>
</g>
</g>
<!-- Node8 -->
<g id="Node000008" class="node">
<title>Node8</title>
<g id="a_Node000008"><a xlink:href="structnix_1_1CmdFlakeNew.html" target="_top" xlink:title=" ">
<polygon fill="white" stroke="#bfbfbf" points="812.25,-780.75 704.75,-780.75 704.75,-760 812.25,-760 812.25,-780.75"/>
<text text-anchor="middle" x="758.5" y="-767.25" font-family="Helvetica,sans-Serif" font-size="10.00">nix::CmdFlakeNew</text>
</a>
</g>
</g>
<!-- Node6&#45;&gt;Node8 -->
<g id="edge7_Node000006_Node000008" class="edge">
<title>Node6&#45;&gt;Node8</title>
<g id="a_edge7_Node000006_Node000008"><a xlink:title=" ">
<path fill="none" stroke="#63b8ff" d="M663.14,-780.98C677.15,-779.41 691.34,-777.81 704.31,-776.36"/>
<polygon fill="#63b8ff" stroke="#63b8ff" points="663.02,-777.48 653.48,-782.07 663.81,-784.43 663.02,-777.48"/>
</a>
</g>
</g>
<!-- Node15 -->
<g id="Node000015" class="node">
<title>Node15</title>
<g id="a_Node000015"><a xlink:href="classnix_1_1FlakeCommand.html" target="_top" xlink:title=" ">
<polygon fill="white" stroke="#bfbfbf" points="815.25,-663.75 701.75,-663.75 701.75,-643 815.25,-643 815.25,-663.75"/>
<text text-anchor="middle" x="758.5" y="-650.25" font-family="Helvetica,sans-Serif" font-size="10.00">nix::FlakeCommand</text>
</a>
</g>
</g>
<!-- Node14&#45;&gt;Node15 -->
<g id="edge14_Node000014_Node000015" class="edge">
<title>Node14&#45;&gt;Node15</title>
<g id="a_edge14_Node000014_Node000015"><a xlink:title=" ">
<path fill="none" stroke="#63b8ff" d="M638.33,-570.81C642.86,-572.49 647.3,-574.35 651.5,-576.38 688.98,-594.47 727.04,-626.04 745.7,-642.58"/>
<polygon fill="#63b8ff" stroke="#63b8ff" points="639.7,-567.58 629.1,-567.66 637.44,-574.2 639.7,-567.58"/>
</a>
</g>
</g>
<!-- Node25 -->
<g id="Node000025" class="node">
<title>Node25</title>
<g id="a_Node000025"><a xlink:href="structnix_1_1SourceExprCommand.html" target="_top" xlink:title=" ">
<polygon fill="white" stroke="#bfbfbf" points="829.5,-429.75 687.5,-429.75 687.5,-409 829.5,-409 829.5,-429.75"/>
<text text-anchor="middle" x="758.5" y="-416.25" font-family="Helvetica,sans-Serif" font-size="10.00">nix::SourceExprCommand</text>
</a>
</g>
</g>
<!-- Node14&#45;&gt;Node25 -->
<g id="edge24_Node000014_Node000025" class="edge">
<title>Node14&#45;&gt;Node25</title>
<g id="a_edge24_Node000014_Node000025"><a xlink:title=" ">
<path fill="none" stroke="#63b8ff" d="M602.25,-538.95C639.59,-510.19 713.01,-453.64 743.61,-430.08"/>
<polygon fill="#63b8ff" stroke="#63b8ff" points="600.57,-535.83 594.78,-544.7 604.84,-541.37 600.57,-535.83"/>
</a>
</g>
</g>
<!-- Node16 -->
<g id="Node000016" class="node">
<title>Node16</title>
<g id="a_Node000016"><a xlink:href="structnix_1_1CmdFlakeArchive.html" target="_top" xlink:title=" ">
<polygon fill="white" stroke="#bfbfbf" points="1009,-819.75 886.5,-819.75 886.5,-799 1009,-799 1009,-819.75"/>
<text text-anchor="middle" x="947.75" y="-806.25" font-family="Helvetica,sans-Serif" font-size="10.00">nix::CmdFlakeArchive</text>
</a>
</g>
</g>
<!-- Node15&#45;&gt;Node16 -->
<g id="edge15_Node000015_Node000016" class="edge">
<title>Node15&#45;&gt;Node16</title>
<g id="a_edge15_Node000015_Node000016"><a xlink:title=" ">
<path fill="none" stroke="#63b8ff" d="M773.82,-673.19C799.87,-709 853.44,-781.56 865.5,-789.38 871.84,-793.48 878.96,-796.75 886.27,-799.34"/>
<polygon fill="#63b8ff" stroke="#63b8ff" points="776.85,-671.41 768.15,-665.37 771.19,-675.52 776.85,-671.41"/>
</a>
</g>
</g>
<!-- Node17 -->
<g id="Node000017" class="node">
<title>Node17</title>
<g id="a_Node000017"><a xlink:href="structnix_1_1CmdFlakeCheck.html" target="_top" xlink:title=" ">
<polygon fill="white" stroke="#bfbfbf" points="1005.62,-780.75 889.88,-780.75 889.88,-760 1005.62,-760 1005.62,-780.75"/>
<text text-anchor="middle" x="947.75" y="-767.25" font-family="Helvetica,sans-Serif" font-size="10.00">nix::CmdFlakeCheck</text>
</a>
</g>
</g>
<!-- Node15&#45;&gt;Node17 -->
<g id="edge16_Node000015_Node000017" class="edge">
<title>Node15&#45;&gt;Node17</title>
<g id="a_edge16_Node000015_Node000017"><a xlink:title=" ">
<path fill="none" stroke="#63b8ff" d="M775.07,-672.53C794.09,-694.64 828.36,-730.5 865.5,-750.38 872.93,-754.35 881.16,-757.55 889.45,-760.12"/>
<polygon fill="#63b8ff" stroke="#63b8ff" points="777.97,-670.54 768.86,-665.14 772.61,-675.05 777.97,-670.54"/>
</a>
</g>
</g>
<!-- Node18 -->
<g id="Node000018" class="node">
<title>Node18</title>
<g id="a_Node000018"><a xlink:href="structnix_1_1CmdFlakeClone.html" target="_top" xlink:title=" ">
<polygon fill="white" stroke="#bfbfbf" points="1004.5,-741.75 891,-741.75 891,-721 1004.5,-721 1004.5,-741.75"/>
<text text-anchor="middle" x="947.75" y="-728.25" font-family="Helvetica,sans-Serif" font-size="10.00">nix::CmdFlakeClone</text>
</a>
</g>
</g>
<!-- Node15&#45;&gt;Node18 -->
<g id="edge17_Node000015_Node000018" class="edge">
<title>Node15&#45;&gt;Node18</title>
<g id="a_edge17_Node000015_Node000018"><a xlink:title=" ">
<path fill="none" stroke="#63b8ff" d="M785.83,-670.3C806.73,-683.1 837.07,-700.31 865.5,-711.38 874.57,-714.9 884.46,-717.96 894.12,-720.54"/>
<polygon fill="#63b8ff" stroke="#63b8ff" points="787.72,-667.35 777.38,-665.04 784.02,-673.29 787.72,-667.35"/>
</a>
</g>
</g>
<!-- Node19 -->
<g id="Node000019" class="node">
<title>Node19</title>
<g id="a_Node000019"><a xlink:href="structnix_1_1CmdFlakeLock.html" target="_top" xlink:title=" ">
<polygon fill="white" stroke="#bfbfbf" points="1001.88,-702.75 893.62,-702.75 893.62,-682 1001.88,-682 1001.88,-702.75"/>
<text text-anchor="middle" x="947.75" y="-689.25" font-family="Helvetica,sans-Serif" font-size="10.00">nix::CmdFlakeLock</text>
</a>
</g>
</g>
<!-- Node15&#45;&gt;Node19 -->
<g id="edge18_Node000015_Node000019" class="edge">
<title>Node15&#45;&gt;Node19</title>
<g id="a_edge18_Node000015_Node000019"><a xlink:title=" ">
<path fill="none" stroke="#63b8ff" d="M822.86,-666.57C846.18,-671.43 872.31,-676.87 894.55,-681.5"/>
<polygon fill="#63b8ff" stroke="#63b8ff" points="823.64,-663.16 813.14,-664.55 822.22,-670.01 823.64,-663.16"/>
</a>
</g>
</g>
<!-- Node20 -->
<g id="Node000020" class="node">
<title>Node20</title>
<g id="a_Node000020"><a xlink:href="structnix_1_1CmdFlakeMetadata.html" target="_top" xlink:title=" ">
<polygon fill="white" stroke="#bfbfbf" points="1013.88,-663.75 881.62,-663.75 881.62,-643 1013.88,-643 1013.88,-663.75"/>
<text text-anchor="middle" x="947.75" y="-650.25" font-family="Helvetica,sans-Serif" font-size="10.00">nix::CmdFlakeMetadata</text>
</a>
</g>
</g>
<!-- Node15&#45;&gt;Node20 -->
<g id="edge19_Node000015_Node000020" class="edge">
<title>Node15&#45;&gt;Node20</title>
<g id="a_edge19_Node000015_Node000020"><a xlink:title=" ">
<path fill="none" stroke="#63b8ff" d="M827.08,-653.38C844.78,-653.38 863.82,-653.38 881.39,-653.38"/>
<polygon fill="#63b8ff" stroke="#63b8ff" points="827.19,-649.88 817.19,-653.38 827.19,-656.88 827.19,-649.88"/>
</a>
</g>
</g>
<!-- Node22 -->
<g id="Node000022" class="node">
<title>Node22</title>
<g id="a_Node000022"><a xlink:href="structnix_1_1CmdFlakePrefetch.html" target="_top" xlink:title=" ">
<polygon fill="white" stroke="#bfbfbf" points="1010.88,-624.75 884.62,-624.75 884.62,-604 1010.88,-604 1010.88,-624.75"/>
<text text-anchor="middle" x="947.75" y="-611.25" font-family="Helvetica,sans-Serif" font-size="10.00">nix::CmdFlakePrefetch</text>
</a>
</g>
</g>
<!-- Node15&#45;&gt;Node22 -->
<g id="edge21_Node000015_Node000022" class="edge">
<title>Node15&#45;&gt;Node22</title>
<g id="a_edge21_Node000015_Node000022"><a xlink:title=" ">
<path fill="none" stroke="#63b8ff" d="M822.86,-640.18C846.18,-635.32 872.31,-629.88 894.55,-625.25"/>
<polygon fill="#63b8ff" stroke="#63b8ff" points="822.22,-636.74 813.14,-642.2 823.64,-643.59 822.22,-636.74"/>
</a>
</g>
</g>
<!-- Node23 -->
<g id="Node000023" class="node">
<title>Node23</title>
<g id="a_Node000023"><a xlink:href="structnix_1_1CmdFlakeShow.html" target="_top" xlink:title=" ">
<polygon fill="white" stroke="#bfbfbf" points="1003.75,-585.75 891.75,-585.75 891.75,-565 1003.75,-565 1003.75,-585.75"/>
<text text-anchor="middle" x="947.75" y="-572.25" font-family="Helvetica,sans-Serif" font-size="10.00">nix::CmdFlakeShow</text>
</a>
</g>
</g>
<!-- Node15&#45;&gt;Node23 -->
<g id="edge22_Node000015_Node000023" class="edge">
<title>Node15&#45;&gt;Node23</title>
<g id="a_edge22_Node000015_Node000023"><a xlink:title=" ">
<path fill="none" stroke="#63b8ff" d="M785.83,-636.45C806.73,-623.65 837.07,-606.44 865.5,-595.38 874.57,-591.85 884.46,-588.79 894.12,-586.21"/>
<polygon fill="#63b8ff" stroke="#63b8ff" points="784.02,-633.46 777.38,-641.71 787.72,-639.4 784.02,-633.46"/>
</a>
</g>
</g>
<!-- Node24 -->
<g id="Node000024" class="node">
<title>Node24</title>
<g id="a_Node000024"><a xlink:href="structnix_1_1CmdFlakeUpdate.html" target="_top" xlink:title=" ">
<polygon fill="white" stroke="#bfbfbf" points="1008.25,-546.75 887.25,-546.75 887.25,-526 1008.25,-526 1008.25,-546.75"/>
<text text-anchor="middle" x="947.75" y="-533.25" font-family="Helvetica,sans-Serif" font-size="10.00">nix::CmdFlakeUpdate</text>
</a>
</g>
</g>
<!-- Node15&#45;&gt;Node24 -->
<g id="edge23_Node000015_Node000024" class="edge">
<title>Node15&#45;&gt;Node24</title>
<g id="a_edge23_Node000015_Node000024"><a xlink:title=" ">
<path fill="none" stroke="#63b8ff" d="M775.07,-634.22C794.09,-612.11 828.36,-576.25 865.5,-556.38 872.42,-552.67 880.03,-549.65 887.74,-547.17"/>
<polygon fill="#63b8ff" stroke="#63b8ff" points="772.61,-631.7 768.86,-641.61 777.97,-636.21 772.61,-631.7"/>
</a>
</g>
</g>
<!-- Node21 -->
<g id="Node000021" class="node">
<title>Node21</title>
<g id="a_Node000021"><a xlink:href="structnix_1_1CmdFlakeInfo.html" target="_top" xlink:title=" ">
<polygon fill="white" stroke="#bfbfbf" points="1190,-663.75 1085.5,-663.75 1085.5,-643 1190,-643 1190,-663.75"/>
<text text-anchor="middle" x="1137.75" y="-650.25" font-family="Helvetica,sans-Serif" font-size="10.00">nix::CmdFlakeInfo</text>
</a>
</g>
</g>
<!-- Node20&#45;&gt;Node21 -->
<g id="edge20_Node000020_Node000021" class="edge">
<title>Node20&#45;&gt;Node21</title>
<g id="a_edge20_Node000020_Node000021"><a xlink:title=" ">
<path fill="none" stroke="#63b8ff" d="M1025.56,-653.38C1045.6,-653.38 1066.72,-653.38 1085.11,-653.38"/>
<polygon fill="#63b8ff" stroke="#63b8ff" points="1025.75,-649.88 1015.75,-653.38 1025.75,-656.88 1025.75,-649.88"/>
</a>
</g>
</g>
<!-- Node26 -->
<g id="Node000026" class="node">
<title>Node26</title>
<g id="a_Node000026"><a xlink:href="structnix_1_1CmdDiffClosures.html" target="_top" xlink:title=" ">
<polygon fill="white" stroke="#bfbfbf" points="1007.12,-507.75 888.38,-507.75 888.38,-487 1007.12,-487 1007.12,-507.75"/>
<text text-anchor="middle" x="947.75" y="-494.25" font-family="Helvetica,sans-Serif" font-size="10.00">nix::CmdDiffClosures</text>
</a>
</g>
</g>
<!-- Node25&#45;&gt;Node26 -->
<g id="edge25_Node000025_Node000026" class="edge">
<title>Node25&#45;&gt;Node26</title>
<g id="a_edge25_Node000025_Node000026"><a xlink:title=" ">
<path fill="none" stroke="#63b8ff" d="M785.83,-436.3C806.73,-449.1 837.07,-466.31 865.5,-477.38 874.57,-480.9 884.46,-483.96 894.12,-486.54"/>
<polygon fill="#63b8ff" stroke="#63b8ff" points="787.72,-433.35 777.38,-431.04 784.02,-439.29 787.72,-433.35"/>
</a>
</g>
</g>
<!-- Node27 -->
<g id="Node000027" class="node">
<title>Node27</title>
<g id="a_Node000027"><a xlink:href="structnix_1_1CmdFmt.html" target="_top" xlink:title=" ">
<polygon fill="white" stroke="#bfbfbf" points="987.25,-468.75 908.25,-468.75 908.25,-448 987.25,-448 987.25,-468.75"/>
<text text-anchor="middle" x="947.75" y="-455.25" font-family="Helvetica,sans-Serif" font-size="10.00">nix::CmdFmt</text>
</a>
</g>
</g>
<!-- Node25&#45;&gt;Node27 -->
<g id="edge26_Node000025_Node000027" class="edge">
<title>Node25&#45;&gt;Node27</title>
<g id="a_edge26_Node000025_Node000027"><a xlink:title=" ">
<path fill="none" stroke="#63b8ff" d="M822.66,-432.53C850.92,-438.42 883.32,-445.16 907.93,-450.29"/>
<polygon fill="#63b8ff" stroke="#63b8ff" points="823.64,-429.16 813.14,-430.55 822.22,-436.01 823.64,-429.16"/>
</a>
</g>
</g>
<!-- Node28 -->
<g id="Node000028" class="node">
<title>Node28</title>
<g id="a_Node000028"><a xlink:href="structnix_1_1CmdProfileUpgrade.html" target="_top" xlink:title=" ">
<polygon fill="white" stroke="#bfbfbf" points="1013.5,-429.75 882,-429.75 882,-409 1013.5,-409 1013.5,-429.75"/>
<text text-anchor="middle" x="947.75" y="-416.25" font-family="Helvetica,sans-Serif" font-size="10.00">nix::CmdProfileUpgrade</text>
</a>
</g>
</g>
<!-- Node25&#45;&gt;Node28 -->
<g id="edge27_Node000025_Node000028" class="edge">
<title>Node25&#45;&gt;Node28</title>
<g id="a_edge27_Node000025_Node000028"><a xlink:title=" ">
<path fill="none" stroke="#63b8ff" d="M841.06,-419.38C854.64,-419.38 868.56,-419.38 881.67,-419.38"/>
<polygon fill="#63b8ff" stroke="#63b8ff" points="841.27,-415.88 831.27,-419.38 841.27,-422.88 841.27,-415.88"/>
</a>
</g>
</g>
<!-- Node29 -->
<g id="Node000029" class="node">
<title>Node29</title>
<g id="a_Node000029"><a xlink:href="structnix_1_1CmdWhyDepends.html" target="_top" xlink:title=" ">
<polygon fill="white" stroke="#bfbfbf" points="1009.75,-390.75 885.75,-390.75 885.75,-370 1009.75,-370 1009.75,-390.75"/>
<text text-anchor="middle" x="947.75" y="-377.25" font-family="Helvetica,sans-Serif" font-size="10.00">nix::CmdWhyDepends</text>
</a>
</g>
</g>
<!-- Node25&#45;&gt;Node29 -->
<g id="edge28_Node000025_Node000029" class="edge">
<title>Node25&#45;&gt;Node29</title>
<g id="a_edge28_Node000025_Node000029"><a xlink:title=" ">
<path fill="none" stroke="#63b8ff" d="M822.86,-406.18C846.18,-401.32 872.31,-395.88 894.55,-391.25"/>
<polygon fill="#63b8ff" stroke="#63b8ff" points="822.22,-402.74 813.14,-408.2 823.64,-409.59 822.22,-402.74"/>
</a>
</g>
</g>
<!-- Node30 -->
<g id="Node000030" class="node">
<title>Node30</title>
<g id="a_Node000030"><a xlink:href="structnix_1_1InstallableCommand.html" target="_top" xlink:title=" ">
<polygon fill="white" stroke="#666666" points="1016.88,-351.75 878.62,-351.75 878.62,-331 1016.88,-331 1016.88,-351.75"/>
<text text-anchor="middle" x="947.75" y="-338.25" font-family="Helvetica,sans-Serif" font-size="10.00">nix::InstallableCommand</text>
</a>
</g>
</g>
<!-- Node25&#45;&gt;Node30 -->
<g id="edge29_Node000025_Node000030" class="edge">
<title>Node25&#45;&gt;Node30</title>
<g id="a_edge29_Node000025_Node000030"><a xlink:title=" ">
<path fill="none" stroke="#63b8ff" d="M785.83,-402.45C806.73,-389.65 837.07,-372.44 865.5,-361.38 874.57,-357.85 884.46,-354.79 894.12,-352.21"/>
<polygon fill="#63b8ff" stroke="#63b8ff" points="784.02,-399.46 777.38,-407.71 787.72,-405.4 784.02,-399.46"/>
</a>
</g>
</g>
<!-- Node40 -->
<g id="Node000040" class="node">
<title>Node40</title>
<g id="a_Node000040"><a xlink:href="structnix_1_1RawInstallablesCommand.html" target="_top" xlink:title=" ">
<polygon fill="white" stroke="#666666" points="1030,-196.75 865.5,-196.75 865.5,-176 1030,-176 1030,-196.75"/>
<text text-anchor="middle" x="947.75" y="-183.25" font-family="Helvetica,sans-Serif" font-size="10.00">nix::RawInstallablesCommand</text>
</a>
</g>
</g>
<!-- Node25&#45;&gt;Node40 -->
<g id="edge39_Node000025_Node000040" class="edge">
<title>Node25&#45;&gt;Node40</title>
<g id="a_edge39_Node000025_Node000040"><a xlink:title=" ">
<path fill="none" stroke="#63b8ff" d="M775.21,-399.82C813.19,-352.57 908.97,-233.39 938.17,-197.05"/>
<polygon fill="#63b8ff" stroke="#63b8ff" points="772.52,-397.59 768.98,-407.58 777.97,-401.98 772.52,-397.59"/>
</a>
</g>
</g>
<!-- Node31 -->
<g id="Node000031" class="node">
<title>Node31</title>
<g id="a_Node000031"><a xlink:href="structnix_1_1CmdBundle.html" target="_top" xlink:title=" ">
<polygon fill="white" stroke="#bfbfbf" points="1184.38,-488.75 1091.12,-488.75 1091.12,-468 1184.38,-468 1184.38,-488.75"/>
<text text-anchor="middle" x="1137.75" y="-475.25" font-family="Helvetica,sans-Serif" font-size="10.00">nix::CmdBundle</text>
</a>
</g>
</g>
<!-- Node30&#45;&gt;Node31 -->
<g id="edge30_Node000030_Node000031" class="edge">
<title>Node30&#45;&gt;Node31</title>
<g id="a_edge30_Node000030_Node000031"><a xlink:title=" ">
<path fill="none" stroke="#63b8ff" d="M1025.98,-358.12C1027.37,-359.14 1028.71,-360.23 1030,-361.38 1064.32,-391.99 1032.21,-427.18 1066,-458.38 1072.94,-464.78 1081.78,-469.16 1090.84,-472.14"/>
<polygon fill="#63b8ff" stroke="#63b8ff" points="1027.86,-355.16 1017.49,-352.97 1024.23,-361.15 1027.86,-355.16"/>
</a>
</g>
</g>
<!-- Node32 -->
<g id="Node000032" class="node">
<title>Node32</title>
<g id="a_Node000032"><a xlink:href="structnix_1_1CmdEdit.html" target="_top" xlink:title=" ">
<polygon fill="white" stroke="#bfbfbf" points="1176.88,-449.75 1098.62,-449.75 1098.62,-429 1176.88,-429 1176.88,-449.75"/>
<text text-anchor="middle" x="1137.75" y="-436.25" font-family="Helvetica,sans-Serif" font-size="10.00">nix::CmdEdit</text>
</a>
</g>
</g>
<!-- Node30&#45;&gt;Node32 -->
<g id="edge31_Node000030_Node000032" class="edge">
<title>Node30&#45;&gt;Node32</title>
<g id="a_edge31_Node000030_Node000032"><a xlink:title=" ">
<path fill="none" stroke="#63b8ff" d="M1023.57,-357.22C1025.8,-358.5 1027.95,-359.88 1030,-361.38 1054.55,-379.21 1041.76,-401.13 1066,-419.38 1075.38,-426.44 1087.16,-431.01 1098.39,-433.96"/>
<polygon fill="#63b8ff" stroke="#63b8ff" points="1025.28,-354.16 1014.76,-352.91 1022.2,-360.45 1025.28,-354.16"/>
</a>
</g>
</g>
<!-- Node33 -->
<g id="Node000033" class="node">
<title>Node33</title>
<g id="a_Node000033"><a xlink:href="structnix_1_1CmdEval.html" target="_top" xlink:title=" ">
<polygon fill="white" stroke="#bfbfbf" points="1178,-410.75 1097.5,-410.75 1097.5,-390 1178,-390 1178,-410.75"/>
<text text-anchor="middle" x="1137.75" y="-397.25" font-family="Helvetica,sans-Serif" font-size="10.00">nix::CmdEval</text>
</a>
</g>
</g>
<!-- Node30&#45;&gt;Node33 -->
<g id="edge32_Node000030_Node000033" class="edge">
<title>Node30&#45;&gt;Node33</title>
<g id="a_edge32_Node000030_Node000033"><a xlink:title=" ">
<path fill="none" stroke="#63b8ff" d="M1011.98,-355.32C1018.14,-357.16 1024.23,-359.18 1030,-361.38 1046.91,-367.81 1049.2,-373.66 1066,-380.38 1075.95,-384.36 1086.99,-387.88 1097.33,-390.82"/>
<polygon fill="#63b8ff" stroke="#63b8ff" points="1012.94,-351.96 1002.37,-352.62 1011.04,-358.7 1012.94,-351.96"/>
</a>
</g>
</g>
<!-- Node34 -->
<g id="Node000034" class="node">
<title>Node34</title>
<g id="a_Node000034"><a xlink:href="structnix_1_1CmdLog.html" target="_top" xlink:title=" ">
<polygon fill="white" stroke="#bfbfbf" points="1176.12,-371.75 1099.38,-371.75 1099.38,-351 1176.12,-351 1176.12,-371.75"/>
<text text-anchor="middle" x="1137.75" y="-358.25" font-family="Helvetica,sans-Serif" font-size="10.00">nix::CmdLog</text>
</a>
</g>
</g>
<!-- Node30&#45;&gt;Node34 -->
<g id="edge33_Node000030_Node000034" class="edge">
<title>Node30&#45;&gt;Node34</title>
<g id="a_edge33_Node000030_Node000034"><a xlink:title=" ">
<path fill="none" stroke="#63b8ff" d="M1028.3,-349.84C1052.82,-352.45 1078.68,-355.2 1099,-357.36"/>
<polygon fill="#63b8ff" stroke="#63b8ff" points="1028.97,-346.39 1018.66,-348.81 1028.23,-353.35 1028.97,-346.39"/>
</a>
</g>
</g>
<!-- Node35 -->
<g id="Node000035" class="node">
<title>Node35</title>
<g id="a_Node000035"><a xlink:href="structnix_1_1CmdRun.html" target="_top" xlink:title=" ">
<polygon fill="white" stroke="#bfbfbf" points="1176.88,-332.75 1098.62,-332.75 1098.62,-312 1176.88,-312 1176.88,-332.75"/>
<text text-anchor="middle" x="1137.75" y="-319.25" font-family="Helvetica,sans-Serif" font-size="10.00">nix::CmdRun</text>
</a>
</g>
</g>
<!-- Node30&#45;&gt;Node35 -->
<g id="edge34_Node000030_Node000035" class="edge">
<title>Node30&#45;&gt;Node35</title>
<g id="a_edge34_Node000030_Node000035"><a xlink:title=" ">
<path fill="none" stroke="#63b8ff" d="M1028.5,-333.32C1052.63,-330.88 1078.05,-328.31 1098.19,-326.27"/>
<polygon fill="#63b8ff" stroke="#63b8ff" points="1028.26,-329.82 1018.66,-334.31 1028.96,-336.79 1028.26,-329.82"/>
</a>
</g>
</g>
<!-- Node36 -->
<g id="Node000036" class="node">
<title>Node36</title>
<g id="a_Node000036"><a xlink:href="structnix_1_1CmdSearch.html" target="_top" xlink:title=" ">
<polygon fill="white" stroke="#bfbfbf" points="1184,-293.75 1091.5,-293.75 1091.5,-273 1184,-273 1184,-293.75"/>
<text text-anchor="middle" x="1137.75" y="-280.25" font-family="Helvetica,sans-Serif" font-size="10.00">nix::CmdSearch</text>
</a>
</g>
</g>
<!-- Node30&#45;&gt;Node36 -->
<g id="edge35_Node000030_Node000036" class="edge">
<title>Node30&#45;&gt;Node36</title>
<g id="a_edge35_Node000030_Node000036"><a xlink:title=" ">
<path fill="none" stroke="#63b8ff" d="M991.72,-327.02C1013.85,-319.73 1041.3,-310.87 1066,-303.38 1076.14,-300.3 1087.14,-297.12 1097.38,-294.22"/>
<polygon fill="#63b8ff" stroke="#63b8ff" points="990.83,-323.63 982.43,-330.09 993.03,-330.27 990.83,-323.63"/>
</a>
</g>
</g>
<!-- Node37 -->
<g id="Node000037" class="node">
<title>Node37</title>
<g id="a_Node000037"><a xlink:href="structnix_1_1Common.html" target="_top" xlink:title=" ">
<polygon fill="white" stroke="#bfbfbf" points="1178.38,-254.75 1097.12,-254.75 1097.12,-234 1178.38,-234 1178.38,-254.75"/>
<text text-anchor="middle" x="1137.75" y="-241.25" font-family="Helvetica,sans-Serif" font-size="10.00">nix::Common</text>
</a>
</g>
</g>
<!-- Node30&#45;&gt;Node37 -->
<g id="edge36_Node000030_Node000037" class="edge">
<title>Node30&#45;&gt;Node37</title>
<g id="a_edge36_Node000030_Node000037"><a xlink:title=" ">
<path fill="none" stroke="#63b8ff" d="M970.84,-323.88C993.56,-306.63 1030.53,-280.57 1066,-264.38 1075.64,-259.97 1086.46,-256.33 1096.69,-253.4"/>
<polygon fill="#63b8ff" stroke="#63b8ff" points="969.01,-320.88 963.22,-329.75 973.28,-326.42 969.01,-320.88"/>
</a>
</g>
</g>
<!-- Node38 -->
<g id="Node000038" class="node">
<title>Node38</title>
<g id="a_Node000038"><a xlink:href="structnix_1_1CmdDevelop.html" target="_top" xlink:title=" ">
<polygon fill="white" stroke="#bfbfbf" points="1363.88,-293.75 1263.88,-293.75 1263.88,-273 1363.88,-273 1363.88,-293.75"/>
<text text-anchor="middle" x="1313.88" y="-280.25" font-family="Helvetica,sans-Serif" font-size="10.00">nix::CmdDevelop</text>
</a>
</g>
</g>
<!-- Node37&#45;&gt;Node38 -->
<g id="edge37_Node000037_Node000038" class="edge">
<title>Node37&#45;&gt;Node38</title>
<g id="a_edge37_Node000037_Node000038"><a xlink:title=" ">
<path fill="none" stroke="#63b8ff" d="M1189.88,-255.83C1213.42,-261.1 1241.22,-267.33 1264.43,-272.52"/>
<polygon fill="#63b8ff" stroke="#63b8ff" points="1190.7,-252.42 1180.17,-253.65 1189.17,-259.25 1190.7,-252.42"/>
</a>
</g>
</g>
<!-- Node39 -->
<g id="Node000039" class="node">
<title>Node39</title>
<g id="a_Node000039"><a xlink:href="structnix_1_1CmdPrintDevEnv.html" target="_top" xlink:title=" ">
<polygon fill="white" stroke="#bfbfbf" points="1373.62,-254.75 1254.12,-254.75 1254.12,-234 1373.62,-234 1373.62,-254.75"/>
<text text-anchor="middle" x="1313.88" y="-241.25" font-family="Helvetica,sans-Serif" font-size="10.00">nix::CmdPrintDevEnv</text>
</a>
</g>
</g>
<!-- Node37&#45;&gt;Node39 -->
<g id="edge38_Node000037_Node000039" class="edge">
<title>Node37&#45;&gt;Node39</title>
<g id="a_edge38_Node000037_Node000039"><a xlink:title=" ">
<path fill="none" stroke="#63b8ff" d="M1190.1,-244.38C1210.14,-244.38 1233.24,-244.38 1253.95,-244.38"/>
<polygon fill="#63b8ff" stroke="#63b8ff" points="1190.21,-240.88 1180.21,-244.38 1190.21,-247.88 1190.21,-240.88"/>
</a>
</g>
</g>
<!-- Node41 -->
<g id="Node000041" class="node">
<title>Node41</title>
<g id="a_Node000041"><a xlink:href="structnix_1_1CmdRepl.html" target="_top" xlink:title=" ">
<polygon fill="white" stroke="#bfbfbf" points="1178.38,-196.75 1097.12,-196.75 1097.12,-176 1178.38,-176 1178.38,-196.75"/>
<text text-anchor="middle" x="1137.75" y="-183.25" font-family="Helvetica,sans-Serif" font-size="10.00">nix::CmdRepl</text>
</a>
</g>
</g>
<!-- Node40&#45;&gt;Node41 -->
<g id="edge40_Node000040_Node000041" class="edge">
<title>Node40&#45;&gt;Node41</title>
<g id="a_edge40_Node000040_Node000041"><a xlink:title=" ">
<path fill="none" stroke="#63b8ff" d="M1041.76,-186.38C1061.13,-186.38 1080.55,-186.38 1096.74,-186.38"/>
<polygon fill="#63b8ff" stroke="#63b8ff" points="1041.9,-182.88 1031.9,-186.38 1041.9,-189.88 1041.9,-182.88"/>
</a>
</g>
</g>
<!-- Node42 -->
<g id="Node000042" class="node">
<title>Node42</title>
<g id="a_Node000042"><a xlink:href="structnix_1_1InstallablesCommand.html" target="_top" xlink:title=" ">
<polygon fill="white" stroke="#666666" points="1209.5,-137.75 1066,-137.75 1066,-117 1209.5,-117 1209.5,-137.75"/>
<text text-anchor="middle" x="1137.75" y="-124.25" font-family="Helvetica,sans-Serif" font-size="10.00">nix::InstallablesCommand</text>
</a>
</g>
</g>
<!-- Node40&#45;&gt;Node42 -->
<g id="edge41_Node000040_Node000042" class="edge">
<title>Node40&#45;&gt;Node42</title>
<g id="a_edge41_Node000040_Node000042"><a xlink:title=" ">
<path fill="none" stroke="#63b8ff" d="M994.04,-172.16C1027.28,-161.73 1071.76,-147.77 1102.17,-138.23"/>
<polygon fill="#63b8ff" stroke="#63b8ff" points="993.17,-168.77 984.68,-175.1 995.27,-175.45 993.17,-168.77"/>
</a>
</g>
</g>
<!-- Node43 -->
<g id="Node000043" class="node">
<title>Node43</title>
<g id="a_Node000043"><a xlink:href="structnix_1_1BuiltPathsCommand.html" target="_top" xlink:title=" ">
<polygon fill="#fff0f0" stroke="red" points="1381.88,-215.75 1245.88,-215.75 1245.88,-195 1381.88,-195 1381.88,-215.75"/>
<text text-anchor="middle" x="1313.88" y="-202.25" font-family="Helvetica,sans-Serif" font-size="10.00">nix::BuiltPathsCommand</text>
</a>
</g>
</g>
<!-- Node42&#45;&gt;Node43 -->
<g id="edge42_Node000042_Node000043" class="edge">
<title>Node42&#45;&gt;Node43</title>
<g id="a_edge42_Node000042_Node000043"><a xlink:title=" ">
<path fill="none" stroke="#63b8ff" d="M1167.36,-143.8C1193.46,-158.62 1230.19,-179.03 1245.5,-185.38 1253.73,-188.79 1262.74,-191.88 1271.42,-194.56"/>
<polygon fill="#63b8ff" stroke="#63b8ff" points="1169.35,-140.9 1158.93,-138.99 1165.88,-146.99 1169.35,-140.9"/>
</a>
</g>
</g>
<!-- Node56 -->
<g id="Node000056" class="node">
<title>Node56</title>
<g id="a_Node000056"><a xlink:href="structnix_1_1CmdBuild.html" target="_top" xlink:title=" ">
<polygon fill="white" stroke="#bfbfbf" points="1356,-176.75 1271.75,-176.75 1271.75,-156 1356,-156 1356,-176.75"/>
<text text-anchor="middle" x="1313.88" y="-163.25" font-family="Helvetica,sans-Serif" font-size="10.00">nix::CmdBuild</text>
</a>
</g>
</g>
<!-- Node42&#45;&gt;Node56 -->
<g id="edge44_Node000042_Node000056" class="edge">
<title>Node42&#45;&gt;Node56</title>
<g id="a_edge44_Node000042_Node000056"><a xlink:title=" ">
<path fill="none" stroke="#63b8ff" d="M1198.41,-140.74C1222.45,-146.12 1249.6,-152.2 1271.42,-157.09"/>
<polygon fill="#63b8ff" stroke="#63b8ff" points="1199.25,-137.34 1188.73,-138.57 1197.72,-144.17 1199.25,-137.34"/>
</a>
</g>
</g>
<!-- Node57 -->
<g id="Node000057" class="node">
<title>Node57</title>
<g id="a_Node000057"><a xlink:href="structnix_1_1CmdCopyLog.html" target="_top" xlink:title=" ">
<polygon fill="white" stroke="#bfbfbf" points="1364.62,-137.75 1263.12,-137.75 1263.12,-117 1364.62,-117 1364.62,-137.75"/>
<text text-anchor="middle" x="1313.88" y="-124.25" font-family="Helvetica,sans-Serif" font-size="10.00">nix::CmdCopyLog</text>
</a>
</g>
</g>
<!-- Node42&#45;&gt;Node57 -->
<g id="edge45_Node000042_Node000057" class="edge">
<title>Node42&#45;&gt;Node57</title>
<g id="a_edge45_Node000042_Node000057"><a xlink:title=" ">
<path fill="none" stroke="#63b8ff" d="M1221.17,-127.38C1235.39,-127.38 1249.77,-127.38 1262.8,-127.38"/>
<polygon fill="#63b8ff" stroke="#63b8ff" points="1221.34,-123.88 1211.34,-127.38 1221.34,-130.88 1221.34,-123.88"/>
</a>
</g>
</g>
<!-- Node58 -->
<g id="Node000058" class="node">
<title>Node58</title>
<g id="a_Node000058"><a xlink:href="structnix_1_1CmdProfileInstall.html" target="_top" xlink:title=" ">
<polygon fill="white" stroke="#bfbfbf" points="1374,-98.75 1253.75,-98.75 1253.75,-78 1374,-78 1374,-98.75"/>
<text text-anchor="middle" x="1313.88" y="-85.25" font-family="Helvetica,sans-Serif" font-size="10.00">nix::CmdProfileInstall</text>
</a>
</g>
</g>
<!-- Node42&#45;&gt;Node58 -->
<g id="edge46_Node000042_Node000058" class="edge">
<title>Node42&#45;&gt;Node58</title>
<g id="a_edge46_Node000042_Node000058"><a xlink:title=" ">
<path fill="none" stroke="#63b8ff" d="M1198.26,-114.05C1219.8,-109.22 1243.84,-103.84 1264.33,-99.25"/>
<polygon fill="#63b8ff" stroke="#63b8ff" points="1197.72,-110.58 1188.73,-116.18 1199.25,-117.41 1197.72,-110.58"/>
</a>
</g>
</g>
<!-- Node59 -->
<g id="Node000059" class="node">
<title>Node59</title>
<g id="a_Node000059"><a xlink:href="structnix_1_1CmdShell.html" target="_top" xlink:title=" ">
<polygon fill="white" stroke="#bfbfbf" points="1355.62,-59.75 1272.12,-59.75 1272.12,-39 1355.62,-39 1355.62,-59.75"/>
<text text-anchor="middle" x="1313.88" y="-46.25" font-family="Helvetica,sans-Serif" font-size="10.00">nix::CmdShell</text>
</a>
</g>
</g>
<!-- Node42&#45;&gt;Node59 -->
<g id="edge47_Node000042_Node000059" class="edge">
<title>Node42&#45;&gt;Node59</title>
<g id="a_edge47_Node000042_Node000059"><a xlink:title=" ">
<path fill="none" stroke="#63b8ff" d="M1165.52,-110.79C1186.66,-98.2 1217.2,-81.11 1245.5,-69.38 1253.84,-65.92 1262.99,-62.79 1271.78,-60.08"/>
<polygon fill="#63b8ff" stroke="#63b8ff" points="1164,-107.62 1157.24,-115.78 1167.61,-113.61 1164,-107.62"/>
</a>
</g>
</g>
<!-- Node60 -->
<g id="Node000060" class="node">
<title>Node60</title>
<g id="a_Node000060"><a xlink:href="structnix_1_1CmdShowDerivation.html" target="_top" xlink:title=" ">
<polygon fill="white" stroke="#bfbfbf" points="1382.25,-20.75 1245.5,-20.75 1245.5,0 1382.25,0 1382.25,-20.75"/>
<text text-anchor="middle" x="1313.88" y="-7.25" font-family="Helvetica,sans-Serif" font-size="10.00">nix::CmdShowDerivation</text>
</a>
</g>
</g>
<!-- Node42&#45;&gt;Node60 -->
<g id="edge48_Node000042_Node000060" class="edge">
<title>Node42&#45;&gt;Node60</title>
<g id="a_edge48_Node000042_Node000060"><a xlink:title=" ">
<path fill="none" stroke="#63b8ff" d="M1154.93,-108.19C1174.33,-86.35 1208.85,-51.02 1245.5,-30.38 1251.98,-26.72 1259.2,-23.67 1266.44,-21.15"/>
<polygon fill="#63b8ff" stroke="#63b8ff" points="1152.49,-105.66 1148.57,-115.5 1157.77,-110.25 1152.49,-105.66"/>
</a>
</g>
</g>
<!-- Node44 -->
<g id="Node000044" class="node">
<title>Node44</title>
<g id="a_Node000044"><a xlink:href="structnix_1_1CmdCopy.html" target="_top" xlink:title=" ">
<polygon fill="white" stroke="#bfbfbf" points="1502.5,-215.75 1418.25,-215.75 1418.25,-195 1502.5,-195 1502.5,-215.75"/>
<text text-anchor="middle" x="1460.38" y="-202.25" font-family="Helvetica,sans-Serif" font-size="10.00">nix::CmdCopy</text>
</a>
</g>
</g>
<!-- Node43&#45;&gt;Node44 -->
<g id="edge43_Node000043_Node000044" class="edge">
<title>Node43&#45;&gt;Node44</title>
<g id="a_edge43_Node000043_Node000044"><a xlink:title=" ">
<path fill="none" stroke="#63b8ff" d="M1393.53,-205.38C1401.93,-205.38 1410.22,-205.38 1417.92,-205.38"/>
<polygon fill="#63b8ff" stroke="#63b8ff" points="1393.56,-201.88 1383.56,-205.38 1393.56,-208.88 1393.56,-201.88"/>
</a>
</g>
</g>
</g>
</svg>
