<?xml version="1.0" encoding="UTF-8" standalone="no"?>
<!DOCTYPE svg PUBLIC "-//W3C//DTD SVG 1.1//EN"
 "http://www.w3.org/Graphics/SVG/1.1/DTD/svg11.dtd">
<!-- Generated by graphviz version 12.2.1 (0)
 -->
<!-- Title: nix::daemon::TunnelSource Pages: 1 -->
<svg width="155pt" height="142pt"
 viewBox="0.00 0.00 155.25 142.25" xmlns="http://www.w3.org/2000/svg" xmlns:xlink="http://www.w3.org/1999/xlink">
<g id="graph0" class="graph" transform="scale(1 1) rotate(0) translate(4 138.25)">
<title>nix::daemon::TunnelSource</title>
<!-- Node1 -->
<g id="Node000001" class="node">
<title>Node1</title>
<g id="a_Node000001"><a xlink:title=" ">
<polygon fill="#999999" stroke="#666666" points="147.25,-20.75 0,-20.75 0,0 147.25,0 147.25,-20.75"/>
<text text-anchor="middle" x="73.62" y="-7.25" font-family="Helvetica,sans-Serif" font-size="10.00">nix::daemon::TunnelSource</text>
</a>
</g>
</g>
<!-- Node2 -->
<g id="Node000002" class="node">
<title>Node2</title>
<g id="a_Node000002"><a xlink:href="structnix_1_1BufferedSource.html" target="_top" xlink:title=" ">
<polygon fill="white" stroke="#666666" points="129.25,-77.5 18,-77.5 18,-56.75 129.25,-56.75 129.25,-77.5"/>
<text text-anchor="middle" x="73.62" y="-64" font-family="Helvetica,sans-Serif" font-size="10.00">nix::BufferedSource</text>
</a>
</g>
</g>
<!-- Node2&#45;&gt;Node1 -->
<g id="edge1_Node000001_Node000002" class="edge">
<title>Node2&#45;&gt;Node1</title>
<g id="a_edge1_Node000001_Node000002"><a xlink:title=" ">
<path fill="none" stroke="#63b8ff" d="M73.62,-44.88C73.62,-36.66 73.62,-27.68 73.62,-21.08"/>
<polygon fill="#63b8ff" stroke="#63b8ff" points="70.13,-44.82 73.63,-54.82 77.13,-44.82 70.13,-44.82"/>
</a>
</g>
</g>
<!-- Node3 -->
<g id="Node000003" class="node">
<title>Node3</title>
<g id="a_Node000003"><a xlink:href="structnix_1_1Source.html" target="_top" xlink:title=" ">
<polygon fill="white" stroke="#666666" points="108.62,-134.25 38.62,-134.25 38.62,-113.5 108.62,-113.5 108.62,-134.25"/>
<text text-anchor="middle" x="73.62" y="-120.75" font-family="Helvetica,sans-Serif" font-size="10.00">nix::Source</text>
</a>
</g>
</g>
<!-- Node3&#45;&gt;Node2 -->
<g id="edge2_Node000002_Node000003" class="edge">
<title>Node3&#45;&gt;Node2</title>
<g id="a_edge2_Node000002_Node000003"><a xlink:title=" ">
<path fill="none" stroke="#63b8ff" d="M73.62,-101.63C73.62,-93.41 73.62,-84.43 73.62,-77.83"/>
<polygon fill="#63b8ff" stroke="#63b8ff" points="70.13,-101.57 73.63,-111.57 77.13,-101.57 70.13,-101.57"/>
</a>
</g>
</g>
</g>
</svg>
