<?xml version="1.0" encoding="UTF-8" standalone="no"?>
<!DOCTYPE svg PUBLIC "-//W3C//DTD SVG 1.1//EN"
 "http://www.w3.org/Graphics/SVG/1.1/DTD/svg11.dtd">
<!-- Generated by graphviz version 12.2.1 (0)
 -->
<!-- Title: nix::DummyStore Pages: 1 -->
<svg width="1082pt" height="269pt"
 viewBox="0.00 0.00 1081.75 269.12" xmlns="http://www.w3.org/2000/svg" xmlns:xlink="http://www.w3.org/1999/xlink">
<g id="graph0" class="graph" transform="scale(1 1) rotate(0) translate(4 265.12)">
<title>nix::DummyStore</title>
<!-- Node1 -->
<g id="Node000001" class="node">
<title>Node1</title>
<g id="a_Node000001"><a xlink:title=" ">
<polygon fill="#999999" stroke="#666666" points="1073.75,-153.75 972.25,-153.75 972.25,-133 1073.75,-133 1073.75,-153.75"/>
<text text-anchor="middle" x="1023" y="-140.25" font-family="Helvetica,sans-Serif" font-size="10.00">nix::DummyStore</text>
</a>
</g>
</g>
<!-- Node2 -->
<g id="Node000002" class="node">
<title>Node2</title>
<g id="a_Node000002"><a xlink:href="classnix_1_1Store.html" target="_top" xlink:title=" ">
<polygon fill="white" stroke="#bfbfbf" points="863.88,-184.75 801.38,-184.75 801.38,-164 863.88,-164 863.88,-184.75"/>
<text text-anchor="middle" x="832.62" y="-171.25" font-family="Helvetica,sans-Serif" font-size="10.00">nix::Store</text>
</a>
</g>
</g>
<!-- Node2&#45;&gt;Node1 -->
<g id="edge1_Node000001_Node000002" class="edge">
<title>Node2&#45;&gt;Node1</title>
<g id="a_edge1_Node000001_Node000002"><a xlink:title=" ">
<path fill="none" stroke="#63b8ff" d="M875.5,-167.48C903.96,-162.8 941.75,-156.58 971.82,-151.63"/>
<polygon fill="#63b8ff" stroke="#63b8ff" points="875.1,-164 865.8,-169.08 876.24,-170.91 875.1,-164"/>
</a>
</g>
</g>
<!-- Node3 -->
<g id="Node000003" class="node">
<title>Node3</title>
<g id="a_Node000003"><a xlink:title=" ">
<polygon fill="white" stroke="#bfbfbf" points="698.25,-261.12 582.5,-261.12 582.5,-227.62 698.25,-227.62 698.25,-261.12"/>
<text text-anchor="start" x="590.5" y="-247.62" font-family="Helvetica,sans-Serif" font-size="10.00">std::enable_shared</text>
<text text-anchor="middle" x="640.38" y="-234.88" font-family="Helvetica,sans-Serif" font-size="10.00">_from_this&lt; Store &gt;</text>
</a>
</g>
</g>
<!-- Node3&#45;&gt;Node2 -->
<g id="edge2_Node000002_Node000003" class="edge">
<title>Node3&#45;&gt;Node2</title>
<g id="a_edge2_Node000002_Node000003"><a xlink:title=" ">
<path fill="none" stroke="#63b8ff" d="M698.69,-223.29C732.78,-210.74 774.62,-195.35 802.14,-185.22"/>
<polygon fill="#63b8ff" stroke="#63b8ff" points="697.51,-219.99 689.34,-226.73 699.93,-226.56 697.51,-219.99"/>
</a>
</g>
</g>
<!-- Node4 -->
<g id="Node000004" class="node">
<title>Node4</title>
<g id="a_Node000004"><a xlink:href="classnix_1_1Sync.html" target="_top" xlink:title=" ">
<polygon fill="white" stroke="#666666" points="702.75,-209.12 578,-209.12 578,-175.62 702.75,-175.62 702.75,-209.12"/>
<text text-anchor="start" x="586" y="-195.62" font-family="Helvetica,sans-Serif" font-size="10.00">nix::Sync&lt; nix::Store</text>
<text text-anchor="middle" x="640.38" y="-182.88" font-family="Helvetica,sans-Serif" font-size="10.00">::State, AsyncMutex &gt;</text>
</a>
</g>
</g>
<!-- Node4&#45;&gt;Node2 -->
<g id="edge3_Node000002_Node000004" class="edge">
<title>Node4&#45;&gt;Node2</title>
<g id="a_edge3_Node000002_Node000004"><a xlink:title=" ">
<path fill="none" stroke="#9a32cd" stroke-dasharray="5,2" d="M714.49,-185.46C744.54,-182.61 777.71,-179.48 801.05,-177.27"/>
<polygon fill="#9a32cd" stroke="#9a32cd" points="714.28,-181.96 704.65,-186.39 714.94,-188.93 714.28,-181.96"/>
</a>
</g>
<text text-anchor="middle" x="734.62" y="-187.7" font-family="Helvetica,sans-Serif" font-size="10.00" fill="grey"> state</text>
</g>
<!-- Node5 -->
<g id="Node000005" class="node">
<title>Node5</title>
<g id="a_Node000005"><a xlink:href="structnix_1_1Store_1_1Stats.html" target="_top" xlink:title=" ">
<polygon fill="white" stroke="#bfbfbf" points="691.12,-157.12 589.62,-157.12 589.62,-123.62 691.12,-123.62 691.12,-157.12"/>
<text text-anchor="start" x="597.62" y="-143.62" font-family="Helvetica,sans-Serif" font-size="10.00">nix::Store::Stats&lt;</text>
<text text-anchor="middle" x="640.38" y="-130.88" font-family="Helvetica,sans-Serif" font-size="10.00"> std::atomic &gt;</text>
</a>
</g>
</g>
<!-- Node5&#45;&gt;Node2 -->
<g id="edge4_Node000002_Node000005" class="edge">
<title>Node5&#45;&gt;Node2</title>
<g id="a_edge4_Node000002_Node000005"><a xlink:title=" ">
<path fill="none" stroke="#9a32cd" stroke-dasharray="5,2" d="M702.69,-151.33C735.53,-157.2 774.54,-164.17 800.99,-168.9"/>
<polygon fill="#9a32cd" stroke="#9a32cd" points="703.31,-147.89 692.85,-149.57 702.08,-154.78 703.31,-147.89"/>
</a>
</g>
<text text-anchor="middle" x="734.62" y="-162.66" font-family="Helvetica,sans-Serif" font-size="10.00" fill="grey"> stats</text>
</g>
<!-- Node6 -->
<g id="Node000006" class="node">
<title>Node6</title>
<g id="a_Node000006"><a xlink:href="structnix_1_1DummyStoreConfig.html" target="_top" xlink:title=" ">
<polygon fill="white" stroke="#bfbfbf" points="898.75,-134.75 766.5,-134.75 766.5,-114 898.75,-114 898.75,-134.75"/>
<text text-anchor="middle" x="832.62" y="-121.25" font-family="Helvetica,sans-Serif" font-size="10.00">nix::DummyStoreConfig</text>
</a>
</g>
</g>
<!-- Node6&#45;&gt;Node1 -->
<g id="edge5_Node000001_Node000006" class="edge">
<title>Node6&#45;&gt;Node1</title>
<g id="a_edge5_Node000001_Node000006"><a xlink:title=" ">
<path fill="none" stroke="#9a32cd" stroke-dasharray="5,2" d="M910.18,-129.48C924.83,-130.67 940.03,-132.06 954.25,-133.62 960.04,-134.26 966.09,-135.01 972.1,-135.81"/>
<polygon fill="#9a32cd" stroke="#9a32cd" points="910.87,-126.02 900.63,-128.72 910.32,-133 910.87,-126.02"/>
</a>
</g>
<text text-anchor="middle" x="935.5" y="-136.88" font-family="Helvetica,sans-Serif" font-size="10.00" fill="grey"> config_</text>
</g>
<!-- Node7 -->
<g id="Node000007" class="node">
<title>Node7</title>
<g id="a_Node000007"><a xlink:href="structnix_1_1StoreConfig.html" target="_top" xlink:title=" ">
<polygon fill="white" stroke="#bfbfbf" points="687,-105.75 593.75,-105.75 593.75,-85 687,-85 687,-105.75"/>
<text text-anchor="middle" x="640.38" y="-92.25" font-family="Helvetica,sans-Serif" font-size="10.00">nix::StoreConfig</text>
</a>
</g>
</g>
<!-- Node7&#45;&gt;Node6 -->
<g id="edge6_Node000006_Node000007" class="edge">
<title>Node7&#45;&gt;Node6</title>
<g id="a_edge6_Node000006_Node000007"><a xlink:title=" ">
<path fill="none" stroke="#63b8ff" d="M698.59,-104.1C719.9,-107.34 744.24,-111.05 766.22,-114.41"/>
<polygon fill="#63b8ff" stroke="#63b8ff" points="699.34,-100.67 688.93,-102.62 698.28,-107.59 699.34,-100.67"/>
</a>
</g>
</g>
<!-- Node8 -->
<g id="Node000008" class="node">
<title>Node8</title>
<g id="a_Node000008"><a xlink:href="classnix_1_1Config.html" target="_top" xlink:title=" ">
<polygon fill="white" stroke="#666666" points="413,-188.75 345.25,-188.75 345.25,-168 413,-168 413,-188.75"/>
<text text-anchor="middle" x="379.12" y="-175.25" font-family="Helvetica,sans-Serif" font-size="10.00">nix::Config</text>
</a>
</g>
</g>
<!-- Node8&#45;&gt;Node7 -->
<g id="edge7_Node000007_Node000008" class="edge">
<title>Node8&#45;&gt;Node7</title>
<g id="a_edge7_Node000007_Node000008"><a xlink:title=" ">
<path fill="none" stroke="#63b8ff" d="M424.76,-182.66C464.06,-184.06 520.94,-180.07 560,-151.38 574.74,-140.55 564.12,-126.28 578,-114.38 582.49,-110.53 587.75,-107.46 593.27,-105.01"/>
<polygon fill="#63b8ff" stroke="#63b8ff" points="425.1,-179.17 414.94,-182.16 424.75,-186.16 425.1,-179.17"/>
</a>
</g>
</g>
<!-- Node9 -->
<g id="Node000009" class="node">
<title>Node9</title>
<g id="a_Node000009"><a xlink:href="classnix_1_1AbstractConfig.html" target="_top" xlink:title=" ">
<polygon fill="white" stroke="#bfbfbf" points="265.12,-188.75 156.88,-188.75 156.88,-168 265.12,-168 265.12,-188.75"/>
<text text-anchor="middle" x="211" y="-175.25" font-family="Helvetica,sans-Serif" font-size="10.00">nix::AbstractConfig</text>
</a>
</g>
</g>
<!-- Node9&#45;&gt;Node8 -->
<g id="edge8_Node000008_Node000009" class="edge">
<title>Node9&#45;&gt;Node8</title>
<g id="a_edge8_Node000008_Node000009"><a xlink:title=" ">
<path fill="none" stroke="#63b8ff" d="M276.75,-178.38C300.13,-178.38 325.54,-178.38 345.07,-178.38"/>
<polygon fill="#63b8ff" stroke="#63b8ff" points="276.99,-174.88 266.99,-178.38 276.99,-181.88 276.99,-174.88"/>
</a>
</g>
</g>
<!-- Node10 -->
<g id="Node000010" class="node">
<title>Node10</title>
<g id="a_Node000010"><a xlink:href="classnix_1_1PathsSetting.html" target="_top" xlink:title=" ">
<polygon fill="white" stroke="#666666" points="432.12,-150.12 326.12,-150.12 326.12,-116.62 432.12,-116.62 432.12,-150.12"/>
<text text-anchor="start" x="334.12" y="-136.62" font-family="Helvetica,sans-Serif" font-size="10.00">nix::PathsSetting&lt;</text>
<text text-anchor="middle" x="379.12" y="-123.88" font-family="Helvetica,sans-Serif" font-size="10.00"> Path &gt;</text>
</a>
</g>
</g>
<!-- Node10&#45;&gt;Node7 -->
<g id="edge9_Node000007_Node000010" class="edge">
<title>Node10&#45;&gt;Node7</title>
<g id="a_edge9_Node000007_Node000010"><a xlink:title=" ">
<path fill="none" stroke="#9a32cd" stroke-dasharray="5,2" d="M443.85,-134.97C478.63,-134.47 522.18,-131.62 560,-122.38 568.5,-120.3 569.8,-117.45 578,-114.38 585.62,-111.51 593.89,-108.74 601.81,-106.23"/>
<polygon fill="#9a32cd" stroke="#9a32cd" points="443.91,-131.47 433.93,-135.04 443.96,-138.47 443.91,-131.47"/>
</a>
</g>
<text text-anchor="middle" x="513.12" y="-137.51" font-family="Helvetica,sans-Serif" font-size="10.00" fill="grey"> storeDir_</text>
</g>
<!-- Node11 -->
<g id="Node000011" class="node">
<title>Node11</title>
<g id="a_Node000011"><a xlink:href="classnix_1_1BaseSetting.html" target="_top" xlink:title=" ">
<polygon fill="white" stroke="#666666" points="273,-139.75 149,-139.75 149,-119 273,-119 273,-139.75"/>
<text text-anchor="middle" x="211" y="-126.25" font-family="Helvetica,sans-Serif" font-size="10.00">nix::BaseSetting&lt; T &gt;</text>
</a>
</g>
</g>
<!-- Node11&#45;&gt;Node10 -->
<g id="edge10_Node000010_Node000011" class="edge">
<title>Node11&#45;&gt;Node10</title>
<g id="a_edge10_Node000010_Node000011"><a xlink:title=" ">
<path fill="none" stroke="#63b8ff" d="M284.83,-131.13C298.59,-131.46 312.74,-131.8 325.72,-132.11"/>
<polygon fill="#63b8ff" stroke="#63b8ff" points="284.98,-127.63 274.9,-130.89 284.81,-134.63 284.98,-127.63"/>
</a>
</g>
</g>
<!-- Node12 -->
<g id="Node000012" class="node">
<title>Node12</title>
<g id="a_Node000012"><a xlink:href="classnix_1_1AbstractSetting.html" target="_top" xlink:title=" ">
<polygon fill="white" stroke="#bfbfbf" points="112,-74.75 0,-74.75 0,-54 112,-54 112,-74.75"/>
<text text-anchor="middle" x="56" y="-61.25" font-family="Helvetica,sans-Serif" font-size="10.00">nix::AbstractSetting</text>
</a>
</g>
</g>
<!-- Node12&#45;&gt;Node11 -->
<g id="edge11_Node000011_Node000012" class="edge">
<title>Node12&#45;&gt;Node11</title>
<g id="a_edge11_Node000011_Node000012"><a xlink:title=" ">
<path fill="none" stroke="#63b8ff" d="M88.95,-80.18C106.5,-88.64 128.76,-99.01 149,-107.38 158.47,-111.29 168.91,-115.2 178.44,-118.61"/>
<polygon fill="#63b8ff" stroke="#63b8ff" points="90.57,-77.08 80.05,-75.86 87.51,-83.38 90.57,-77.08"/>
</a>
</g>
</g>
<!-- Node14 -->
<g id="Node000014" class="node">
<title>Node14</title>
<g id="a_Node000014"><a xlink:href="classnix_1_1BaseSetting.html" target="_top" xlink:title=" ">
<polygon fill="white" stroke="#666666" points="273,-98.75 149,-98.75 149,-78 273,-78 273,-98.75"/>
<text text-anchor="middle" x="211" y="-85.25" font-family="Helvetica,sans-Serif" font-size="10.00">nix::BaseSetting&lt; T &gt;</text>
</a>
</g>
</g>
<!-- Node12&#45;&gt;Node14 -->
<g id="edge14_Node000014_Node000012" class="edge">
<title>Node12&#45;&gt;Node14</title>
<g id="a_edge14_Node000014_Node000012"><a xlink:title=" ">
<path fill="none" stroke="#63b8ff" d="M123.49,-74.8C131.84,-76.11 140.35,-77.45 148.62,-78.75"/>
<polygon fill="#63b8ff" stroke="#63b8ff" points="124.15,-71.37 113.73,-73.27 123.07,-78.28 124.15,-71.37"/>
</a>
</g>
</g>
<!-- Node16 -->
<g id="Node000016" class="node">
<title>Node16</title>
<g id="a_Node000016"><a xlink:href="classnix_1_1BaseSetting.html" target="_top" xlink:title=" ">
<polygon fill="white" stroke="#666666" points="273,-59.75 149,-59.75 149,-39 273,-39 273,-59.75"/>
<text text-anchor="middle" x="211" y="-46.25" font-family="Helvetica,sans-Serif" font-size="10.00">nix::BaseSetting&lt; T &gt;</text>
</a>
</g>
</g>
<!-- Node12&#45;&gt;Node16 -->
<g id="edge17_Node000016_Node000012" class="edge">
<title>Node12&#45;&gt;Node16</title>
<g id="a_edge17_Node000016_Node000012"><a xlink:title=" ">
<path fill="none" stroke="#63b8ff" d="M123.49,-57.86C131.84,-57.04 140.35,-56.2 148.62,-55.39"/>
<polygon fill="#63b8ff" stroke="#63b8ff" points="123.35,-54.35 113.74,-58.81 124.04,-61.32 123.35,-54.35"/>
</a>
</g>
</g>
<!-- Node18 -->
<g id="Node000018" class="node">
<title>Node18</title>
<g id="a_Node000018"><a xlink:href="classnix_1_1BaseSetting.html" target="_top" xlink:title=" ">
<polygon fill="white" stroke="#666666" points="273,-20.75 149,-20.75 149,0 273,0 273,-20.75"/>
<text text-anchor="middle" x="211" y="-7.25" font-family="Helvetica,sans-Serif" font-size="10.00">nix::BaseSetting&lt; T &gt;</text>
</a>
</g>
</g>
<!-- Node12&#45;&gt;Node18 -->
<g id="edge20_Node000018_Node000012" class="edge">
<title>Node12&#45;&gt;Node18</title>
<g id="a_edge20_Node000018_Node000012"><a xlink:title=" ">
<path fill="none" stroke="#63b8ff" d="M96.25,-49.5C112.53,-43.43 131.62,-36.43 149,-30.38 157.84,-27.29 167.45,-24.08 176.36,-21.16"/>
<polygon fill="#63b8ff" stroke="#63b8ff" points="95.05,-46.22 86.91,-53 97.51,-52.77 95.05,-46.22"/>
</a>
</g>
</g>
<!-- Node13 -->
<g id="Node000013" class="node">
<title>Node13</title>
<g id="a_Node000013"><a xlink:href="classnix_1_1Setting.html" target="_top" xlink:title=" ">
<polygon fill="white" stroke="#bfbfbf" points="432.5,-98.75 325.75,-98.75 325.75,-78 432.5,-78 432.5,-98.75"/>
<text text-anchor="middle" x="379.12" y="-85.25" font-family="Helvetica,sans-Serif" font-size="10.00">nix::Setting&lt; int &gt;</text>
</a>
</g>
</g>
<!-- Node13&#45;&gt;Node7 -->
<g id="edge12_Node000007_Node000013" class="edge">
<title>Node13&#45;&gt;Node7</title>
<g id="a_edge12_Node000007_Node000013"><a xlink:title=" ">
<path fill="none" stroke="#9a32cd" stroke-dasharray="5,2" d="M444.34,-90.11C490.69,-91.36 552.17,-93.02 593.61,-94.14"/>
<polygon fill="#9a32cd" stroke="#9a32cd" points="444.5,-86.61 434.41,-89.84 444.32,-93.61 444.5,-86.61"/>
</a>
</g>
<text text-anchor="middle" x="513.12" y="-109.11" font-family="Helvetica,sans-Serif" font-size="10.00" fill="grey"> pathInfoCacheSize</text>
<text text-anchor="middle" x="513.12" y="-96.36" font-family="Helvetica,sans-Serif" font-size="10.00" fill="grey">priority</text>
</g>
<!-- Node14&#45;&gt;Node13 -->
<g id="edge13_Node000013_Node000014" class="edge">
<title>Node14&#45;&gt;Node13</title>
<g id="a_edge13_Node000013_Node000014"><a xlink:title=" ">
<path fill="none" stroke="#63b8ff" d="M284.76,-88.38C298.45,-88.38 312.52,-88.38 325.45,-88.38"/>
<polygon fill="#63b8ff" stroke="#63b8ff" points="284.9,-84.88 274.9,-88.38 284.9,-91.88 284.9,-84.88"/>
</a>
</g>
</g>
<!-- Node15 -->
<g id="Node000015" class="node">
<title>Node15</title>
<g id="a_Node000015"><a xlink:href="classnix_1_1Setting.html" target="_top" xlink:title=" ">
<polygon fill="white" stroke="#bfbfbf" points="436.62,-59.75 321.62,-59.75 321.62,-39 436.62,-39 436.62,-59.75"/>
<text text-anchor="middle" x="379.12" y="-46.25" font-family="Helvetica,sans-Serif" font-size="10.00">nix::Setting&lt; bool &gt;</text>
</a>
</g>
</g>
<!-- Node15&#45;&gt;Node7 -->
<g id="edge15_Node000007_Node000015" class="edge">
<title>Node15&#45;&gt;Node7</title>
<g id="a_edge15_Node000007_Node000015"><a xlink:title=" ">
<path fill="none" stroke="#9a32cd" stroke-dasharray="5,2" d="M448.01,-48.21C482.05,-49.01 523.65,-52.1 560,-60.88 581.32,-66.02 604.14,-76.52 619.82,-84.59"/>
<polygon fill="#9a32cd" stroke="#9a32cd" points="448.35,-44.72 438.29,-48.05 448.23,-51.72 448.35,-44.72"/>
</a>
</g>
<text text-anchor="middle" x="513.12" y="-76.88" font-family="Helvetica,sans-Serif" font-size="10.00" fill="grey"> isTrusted</text>
<text text-anchor="middle" x="513.12" y="-64.12" font-family="Helvetica,sans-Serif" font-size="10.00" fill="grey">wantMassQuery</text>
</g>
<!-- Node16&#45;&gt;Node15 -->
<g id="edge16_Node000015_Node000016" class="edge">
<title>Node16&#45;&gt;Node15</title>
<g id="a_edge16_Node000015_Node000016"><a xlink:title=" ">
<path fill="none" stroke="#63b8ff" d="M284.59,-49.38C296.91,-49.38 309.55,-49.38 321.39,-49.38"/>
<polygon fill="#63b8ff" stroke="#63b8ff" points="284.9,-45.88 274.9,-49.38 284.9,-52.88 284.9,-45.88"/>
</a>
</g>
</g>
<!-- Node17 -->
<g id="Node000017" class="node">
<title>Node17</title>
<g id="a_Node000017"><a xlink:href="classnix_1_1Setting.html" target="_top" xlink:title=" ">
<polygon fill="white" stroke="#bfbfbf" points="448.25,-20.75 310,-20.75 310,0 448.25,0 448.25,-20.75"/>
<text text-anchor="middle" x="379.12" y="-7.25" font-family="Helvetica,sans-Serif" font-size="10.00">nix::Setting&lt; StringSet &gt;</text>
</a>
</g>
</g>
<!-- Node17&#45;&gt;Node7 -->
<g id="edge18_Node000007_Node000017" class="edge">
<title>Node17&#45;&gt;Node7</title>
<g id="a_edge18_Node000007_Node000017"><a xlink:title=" ">
<path fill="none" stroke="#9a32cd" stroke-dasharray="5,2" d="M459.72,-10.96C491.88,-13.53 528.71,-19.54 560,-32.62 588.85,-44.69 615.95,-70.31 629.79,-84.81"/>
<polygon fill="#9a32cd" stroke="#9a32cd" points="460.28,-7.49 450.07,-10.29 459.8,-14.47 460.28,-7.49"/>
</a>
</g>
<text text-anchor="middle" x="513.12" y="-35.88" font-family="Helvetica,sans-Serif" font-size="10.00" fill="grey"> systemFeatures</text>
</g>
<!-- Node18&#45;&gt;Node17 -->
<g id="edge19_Node000017_Node000018" class="edge">
<title>Node18&#45;&gt;Node17</title>
<g id="a_edge19_Node000017_Node000018"><a xlink:title=" ">
<path fill="none" stroke="#63b8ff" d="M284.63,-10.38C292.96,-10.38 301.44,-10.38 309.72,-10.38"/>
<polygon fill="#63b8ff" stroke="#63b8ff" points="284.9,-6.88 274.9,-10.38 284.9,-13.88 284.9,-6.88"/>
</a>
</g>
</g>
</g>
</svg>
