<?xml version="1.0" encoding="UTF-8" standalone="no"?>
<!DOCTYPE svg PUBLIC "-//W3C//DTD SVG 1.1//EN"
 "http://www.w3.org/Graphics/SVG/1.1/DTD/svg11.dtd">
<!-- Generated by graphviz version 12.2.1 (0)
 -->
<!-- Title: nix::CmdFmt Pages: 1 -->
<svg width="332pt" height="369pt"
 viewBox="0.00 0.00 332.25 369.25" xmlns="http://www.w3.org/2000/svg" xmlns:xlink="http://www.w3.org/1999/xlink">
<g id="graph0" class="graph" transform="scale(1 1) rotate(0) translate(4 365.25)">
<title>nix::CmdFmt</title>
<!-- Node1 -->
<g id="Node000001" class="node">
<title>Node1</title>
<g id="a_Node000001"><a xlink:title=" ">
<polygon fill="#999999" stroke="#666666" points="110.5,-20.75 31.5,-20.75 31.5,0 110.5,0 110.5,-20.75"/>
<text text-anchor="middle" x="71" y="-7.25" font-family="Helvetica,sans-Serif" font-size="10.00">nix::CmdFmt</text>
</a>
</g>
</g>
<!-- Node2 -->
<g id="Node000002" class="node">
<title>Node2</title>
<g id="a_Node000002"><a xlink:href="structnix_1_1SourceExprCommand.html" target="_top" xlink:title=" ">
<polygon fill="white" stroke="#bfbfbf" points="142,-77.5 0,-77.5 0,-56.75 142,-56.75 142,-77.5"/>
<text text-anchor="middle" x="71" y="-64" font-family="Helvetica,sans-Serif" font-size="10.00">nix::SourceExprCommand</text>
</a>
</g>
</g>
<!-- Node2&#45;&gt;Node1 -->
<g id="edge1_Node000001_Node000002" class="edge">
<title>Node2&#45;&gt;Node1</title>
<g id="a_edge1_Node000001_Node000002"><a xlink:title=" ">
<path fill="none" stroke="#63b8ff" d="M71,-44.88C71,-36.66 71,-27.68 71,-21.08"/>
<polygon fill="#63b8ff" stroke="#63b8ff" points="67.5,-44.82 71,-54.82 74.5,-44.82 67.5,-44.82"/>
</a>
</g>
</g>
<!-- Node3 -->
<g id="Node000003" class="node">
<title>Node3</title>
<g id="a_Node000003"><a xlink:href="classnix_1_1Args.html" target="_top" xlink:title=" ">
<polygon fill="white" stroke="#bfbfbf" points="167.38,-361.25 108.62,-361.25 108.62,-340.5 167.38,-340.5 167.38,-361.25"/>
<text text-anchor="middle" x="138" y="-347.75" font-family="Helvetica,sans-Serif" font-size="10.00">nix::Args</text>
</a>
</g>
</g>
<!-- Node3&#45;&gt;Node2 -->
<g id="edge2_Node000002_Node000003" class="edge">
<title>Node3&#45;&gt;Node2</title>
<g id="a_edge2_Node000002_Node000003"><a xlink:title=" ">
<path fill="none" stroke="#63b8ff" d="M106.53,-334.82C74.02,-316.83 28,-283.4 28,-238.38 28,-238.38 28,-238.38 28,-179.62 28,-139.58 52.44,-96.54 64.47,-77.78"/>
<polygon fill="#63b8ff" stroke="#63b8ff" points="104.72,-337.82 115.19,-339.41 107.99,-331.64 104.72,-337.82"/>
</a>
</g>
</g>
<!-- Node4 -->
<g id="Node000004" class="node">
<title>Node4</title>
<g id="a_Node000004"><a xlink:href="structnix_1_1MixFlakeOptions.html" target="_top" xlink:title=" ">
<polygon fill="white" stroke="#666666" points="174.38,-134.25 55.62,-134.25 55.62,-113.5 174.38,-113.5 174.38,-134.25"/>
<text text-anchor="middle" x="115" y="-120.75" font-family="Helvetica,sans-Serif" font-size="10.00">nix::MixFlakeOptions</text>
</a>
</g>
</g>
<!-- Node3&#45;&gt;Node4 -->
<g id="edge4_Node000004_Node000003" class="edge">
<title>Node3&#45;&gt;Node4</title>
<g id="a_edge4_Node000004_Node000003"><a xlink:title=" ">
<path fill="none" stroke="#63b8ff" d="M110.5,-333.59C100.54,-326.1 90.41,-316.26 85,-304.5 60.05,-250.29 69.7,-227.36 87,-170.25 91.08,-156.78 100.18,-143.31 106.91,-134.59"/>
<polygon fill="#63b8ff" stroke="#63b8ff" points="108.38,-336.38 118.6,-339.17 112.35,-330.61 108.38,-336.38"/>
</a>
</g>
</g>
<!-- Node7 -->
<g id="Node000007" class="node">
<title>Node7</title>
<g id="a_Node000007"><a xlink:href="structnix_1_1Command.html" target="_top" xlink:title=" ">
<polygon fill="white" stroke="#666666" points="181.62,-304.5 94.38,-304.5 94.38,-283.75 181.62,-283.75 181.62,-304.5"/>
<text text-anchor="middle" x="138" y="-291" font-family="Helvetica,sans-Serif" font-size="10.00">nix::Command</text>
</a>
</g>
</g>
<!-- Node3&#45;&gt;Node7 -->
<g id="edge8_Node000007_Node000003" class="edge">
<title>Node3&#45;&gt;Node7</title>
<g id="a_edge8_Node000007_Node000003"><a xlink:title=" ">
<path fill="none" stroke="#63b8ff" d="M138,-328.63C138,-320.41 138,-311.43 138,-304.83"/>
<polygon fill="#63b8ff" stroke="#63b8ff" points="134.5,-328.57 138,-338.57 141.5,-328.57 134.5,-328.57"/>
</a>
</g>
</g>
<!-- Node8 -->
<g id="Node000008" class="node">
<title>Node8</title>
<g id="a_Node000008"><a xlink:href="structnix_1_1MixEvalArgs.html" target="_top" xlink:title=" ">
<polygon fill="white" stroke="#bfbfbf" points="321.88,-247.75 224.12,-247.75 224.12,-227 321.88,-227 321.88,-247.75"/>
<text text-anchor="middle" x="273" y="-234.25" font-family="Helvetica,sans-Serif" font-size="10.00">nix::MixEvalArgs</text>
</a>
</g>
</g>
<!-- Node3&#45;&gt;Node8 -->
<g id="edge10_Node000008_Node000003" class="edge">
<title>Node3&#45;&gt;Node8</title>
<g id="a_edge10_Node000008_Node000003"><a xlink:title=" ">
<path fill="none" stroke="#63b8ff" d="M158.26,-333.14C186.83,-309.55 238.04,-267.25 261.13,-248.18"/>
<polygon fill="#63b8ff" stroke="#63b8ff" points="156.16,-330.34 150.68,-339.4 160.62,-335.74 156.16,-330.34"/>
</a>
</g>
</g>
<!-- Node9 -->
<g id="Node000009" class="node">
<title>Node9</title>
<g id="a_Node000009"><a xlink:href="structnix_1_1MixRepair.html" target="_top" xlink:title=" ">
<polygon fill="white" stroke="#bfbfbf" points="324.25,-304.5 237.75,-304.5 237.75,-283.75 324.25,-283.75 324.25,-304.5"/>
<text text-anchor="middle" x="281" y="-291" font-family="Helvetica,sans-Serif" font-size="10.00">nix::MixRepair</text>
</a>
</g>
</g>
<!-- Node3&#45;&gt;Node9 -->
<g id="edge12_Node000009_Node000003" class="edge">
<title>Node3&#45;&gt;Node9</title>
<g id="a_edge12_Node000009_Node000003"><a xlink:title=" ">
<path fill="none" stroke="#63b8ff" d="M174.27,-335.99C199.7,-326.25 233.05,-313.48 255.66,-304.83"/>
<polygon fill="#63b8ff" stroke="#63b8ff" points="173.07,-332.7 164.98,-339.55 175.57,-339.24 173.07,-332.7"/>
</a>
</g>
</g>
<!-- Node4&#45;&gt;Node2 -->
<g id="edge3_Node000002_Node000004" class="edge">
<title>Node4&#45;&gt;Node2</title>
<g id="a_edge3_Node000002_Node000004"><a xlink:title=" ">
<path fill="none" stroke="#63b8ff" d="M100,-104.21C92.88,-95.34 84.66,-85.12 78.8,-77.83"/>
<polygon fill="#63b8ff" stroke="#63b8ff" points="97.19,-106.3 106.19,-111.91 102.65,-101.92 97.19,-106.3"/>
</a>
</g>
</g>
<!-- Node5 -->
<g id="Node000005" class="node">
<title>Node5</title>
<g id="a_Node000005"><a xlink:href="structnix_1_1EvalCommand.html" target="_top" xlink:title=" ">
<polygon fill="white" stroke="#666666" points="204.12,-191 95.88,-191 95.88,-170.25 204.12,-170.25 204.12,-191"/>
<text text-anchor="middle" x="150" y="-177.5" font-family="Helvetica,sans-Serif" font-size="10.00">nix::EvalCommand</text>
</a>
</g>
</g>
<!-- Node5&#45;&gt;Node4 -->
<g id="edge5_Node000004_Node000005" class="edge">
<title>Node5&#45;&gt;Node4</title>
<g id="a_edge5_Node000004_Node000005"><a xlink:title=" ">
<path fill="none" stroke="#63b8ff" d="M137.7,-160.39C132.12,-151.66 125.77,-141.72 121.2,-134.58"/>
<polygon fill="#63b8ff" stroke="#63b8ff" points="134.59,-162.02 142.93,-168.56 140.49,-158.25 134.59,-162.02"/>
</a>
</g>
</g>
<!-- Node6 -->
<g id="Node000006" class="node">
<title>Node6</title>
<g id="a_Node000006"><a xlink:href="structnix_1_1StoreCommand.html" target="_top" xlink:title=" ">
<polygon fill="white" stroke="#666666" points="206.38,-247.75 93.62,-247.75 93.62,-227 206.38,-227 206.38,-247.75"/>
<text text-anchor="middle" x="150" y="-234.25" font-family="Helvetica,sans-Serif" font-size="10.00">nix::StoreCommand</text>
</a>
</g>
</g>
<!-- Node6&#45;&gt;Node5 -->
<g id="edge6_Node000005_Node000006" class="edge">
<title>Node6&#45;&gt;Node5</title>
<g id="a_edge6_Node000005_Node000006"><a xlink:title=" ">
<path fill="none" stroke="#63b8ff" d="M150,-215.13C150,-206.91 150,-197.93 150,-191.33"/>
<polygon fill="#63b8ff" stroke="#63b8ff" points="146.5,-215.07 150,-225.07 153.5,-215.07 146.5,-215.07"/>
</a>
</g>
</g>
<!-- Node7&#45;&gt;Node6 -->
<g id="edge7_Node000006_Node000007" class="edge">
<title>Node7&#45;&gt;Node6</title>
<g id="a_edge7_Node000006_Node000007"><a xlink:title=" ">
<path fill="none" stroke="#63b8ff" d="M142.59,-272.17C144.41,-263.88 146.41,-254.75 147.87,-248.08"/>
<polygon fill="#63b8ff" stroke="#63b8ff" points="139.19,-271.34 140.47,-281.86 146.03,-272.84 139.19,-271.34"/>
</a>
</g>
</g>
<!-- Node8&#45;&gt;Node5 -->
<g id="edge9_Node000005_Node000008" class="edge">
<title>Node8&#45;&gt;Node5</title>
<g id="a_edge9_Node000005_Node000008"><a xlink:title=" ">
<path fill="none" stroke="#63b8ff" d="M240.62,-221.96C218.9,-212.3 190.89,-199.83 171.8,-191.33"/>
<polygon fill="#63b8ff" stroke="#63b8ff" points="239.07,-225.1 249.63,-225.97 241.91,-218.71 239.07,-225.1"/>
</a>
</g>
</g>
<!-- Node9&#45;&gt;Node8 -->
<g id="edge11_Node000008_Node000009" class="edge">
<title>Node9&#45;&gt;Node8</title>
<g id="a_edge11_Node000008_Node000009"><a xlink:title=" ">
<path fill="none" stroke="#63b8ff" d="M277.94,-272.17C276.73,-263.88 275.39,-254.75 274.42,-248.08"/>
<polygon fill="#63b8ff" stroke="#63b8ff" points="274.44,-272.45 279.35,-281.84 281.37,-271.44 274.44,-272.45"/>
</a>
</g>
</g>
</g>
</svg>
