<?xml version="1.0" encoding="UTF-8" standalone="no"?>
<!DOCTYPE svg PUBLIC "-//W3C//DTD SVG 1.1//EN"
 "http://www.w3.org/Graphics/SVG/1.1/DTD/svg11.dtd">
<!-- Generated by graphviz version 12.2.1 (0)
 -->
<!-- Title: nix::CmdFlake Pages: 1 -->
<svg width="213pt" height="156pt"
 viewBox="0.00 0.00 212.50 156.00" xmlns="http://www.w3.org/2000/svg" xmlns:xlink="http://www.w3.org/1999/xlink">
<g id="graph0" class="graph" transform="scale(1 1) rotate(0) translate(4 152)">
<title>nix::CmdFlake</title>
<!-- Node1 -->
<g id="Node000001" class="node">
<title>Node1</title>
<g id="a_Node000001"><a xlink:title=" ">
<polygon fill="#999999" stroke="#666666" points="85.75,-78.5 0,-78.5 0,-57.75 85.75,-57.75 85.75,-78.5"/>
<text text-anchor="middle" x="42.88" y="-65" font-family="Helvetica,sans-Serif" font-size="10.00">nix::CmdFlake</text>
</a>
</g>
</g>
<!-- Node2 -->
<g id="Node000002" class="node">
<title>Node2</title>
<g id="a_Node000002"><a xlink:href="classnix_1_1MultiCommand.html" target="_top" xlink:title=" ">
<polygon fill="white" stroke="#666666" points="188.88,-148 76.88,-148 76.88,-127.25 188.88,-127.25 188.88,-148"/>
<text text-anchor="middle" x="132.88" y="-134.5" font-family="Helvetica,sans-Serif" font-size="10.00">nix::MultiCommand</text>
</a>
</g>
</g>
<!-- Node2&#45;&gt;Node1 -->
<g id="edge1_Node000001_Node000002" class="edge">
<title>Node2&#45;&gt;Node1</title>
<g id="a_edge1_Node000001_Node000002"><a xlink:title=" ">
<path fill="none" stroke="#63b8ff" d="M111.17,-120.34C93.97,-107.45 70.5,-89.85 56.04,-79"/>
<polygon fill="#63b8ff" stroke="#63b8ff" points="108.67,-122.85 118.77,-126.05 112.87,-117.25 108.67,-122.85"/>
</a>
</g>
</g>
<!-- Node4 -->
<g id="Node000004" class="node">
<title>Node4</title>
<g id="a_Node000004"><a xlink:href="classnix_1_1Args.html" target="_top" xlink:title=" ">
<polygon fill="white" stroke="#bfbfbf" points="162.25,-78.5 103.5,-78.5 103.5,-57.75 162.25,-57.75 162.25,-78.5"/>
<text text-anchor="middle" x="132.88" y="-65" font-family="Helvetica,sans-Serif" font-size="10.00">nix::Args</text>
</a>
</g>
</g>
<!-- Node2&#45;&gt;Node4 -->
<g id="edge4_Node000004_Node000002" class="edge">
<title>Node2&#45;&gt;Node4</title>
<g id="a_edge4_Node000004_Node000002"><a xlink:title=" ">
<path fill="none" stroke="#9a32cd" stroke-dasharray="5,2" d="M132.88,-115.82C132.88,-103.47 132.88,-88.4 132.88,-78.78"/>
<polygon fill="#9a32cd" stroke="#9a32cd" points="129.38,-115.44 132.88,-125.44 136.38,-115.44 129.38,-115.44"/>
</a>
</g>
<text text-anchor="middle" x="150.12" y="-99.75" font-family="Helvetica,sans-Serif" font-size="10.00" fill="grey"> parent</text>
</g>
<!-- Node3 -->
<g id="Node000003" class="node">
<title>Node3</title>
<g id="a_Node000003"><a xlink:href="structnix_1_1Command.html" target="_top" xlink:title=" ">
<polygon fill="white" stroke="#666666" points="204.5,-20.75 117.25,-20.75 117.25,0 204.5,0 204.5,-20.75"/>
<text text-anchor="middle" x="160.88" y="-7.25" font-family="Helvetica,sans-Serif" font-size="10.00">nix::Command</text>
</a>
</g>
</g>
<!-- Node3&#45;&gt;Node2 -->
<g id="edge2_Node000002_Node000003" class="edge">
<title>Node3&#45;&gt;Node2</title>
<g id="a_edge2_Node000002_Node000003"><a xlink:title=" ">
<path fill="none" stroke="#63b8ff" d="M169.61,-31.91C177,-52.61 184.53,-84.9 171.88,-109.25 167.98,-116.74 161,-122.6 154.01,-126.95"/>
<polygon fill="#63b8ff" stroke="#63b8ff" points="172.88,-30.66 165.98,-22.62 166.36,-33.2 172.88,-30.66"/>
</a>
</g>
</g>
<!-- Node4&#45;&gt;Node3 -->
<g id="edge3_Node000003_Node000004" class="edge">
<title>Node4&#45;&gt;Node3</title>
<g id="a_edge3_Node000003_Node000004"><a xlink:title=" ">
<path fill="none" stroke="#63b8ff" d="M142.8,-47.37C147.3,-38.41 152.42,-28.22 156.05,-20.97"/>
<polygon fill="#63b8ff" stroke="#63b8ff" points="139.79,-45.55 138.43,-56.06 146.05,-48.7 139.79,-45.55"/>
</a>
</g>
</g>
</g>
</svg>
