<?xml version="1.0" encoding="UTF-8" standalone="no"?>
<!DOCTYPE svg PUBLIC "-//W3C//DTD SVG 1.1//EN"
 "http://www.w3.org/Graphics/SVG/1.1/DTD/svg11.dtd">
<!-- Generated by graphviz version 12.2.1 (0)
 -->
<!-- Title: nix::InstallableFlake Pages: 1 -->
<svg width="651pt" height="197pt"
 viewBox="0.00 0.00 650.75 196.75" xmlns="http://www.w3.org/2000/svg" xmlns:xlink="http://www.w3.org/1999/xlink">
<g id="graph0" class="graph" transform="scale(1 1) rotate(0) translate(4 192.75)">
<title>nix::InstallableFlake</title>
<!-- Node1 -->
<g id="Node000001" class="node">
<title>Node1</title>
<g id="a_Node000001"><a xlink:title=" ">
<polygon fill="#999999" stroke="#666666" points="642.75,-77.75 528.5,-77.75 528.5,-57 642.75,-57 642.75,-77.75"/>
<text text-anchor="middle" x="585.62" y="-64.25" font-family="Helvetica,sans-Serif" font-size="10.00">nix::InstallableFlake</text>
</a>
</g>
</g>
<!-- Node2 -->
<g id="Node000002" class="node">
<title>Node2</title>
<g id="a_Node000002"><a xlink:href="structnix_1_1InstallableValue.html" target="_top" xlink:title=" ">
<polygon fill="white" stroke="#666666" points="367.62,-143.75 252.62,-143.75 252.62,-123 367.62,-123 367.62,-143.75"/>
<text text-anchor="middle" x="310.12" y="-130.25" font-family="Helvetica,sans-Serif" font-size="10.00">nix::InstallableValue</text>
</a>
</g>
</g>
<!-- Node2&#45;&gt;Node1 -->
<g id="edge1_Node000001_Node000002" class="edge">
<title>Node2&#45;&gt;Node1</title>
<g id="a_edge1_Node000001_Node000002"><a xlink:title=" ">
<path fill="none" stroke="#63b8ff" d="M378.91,-124.68C417.86,-118.81 467.45,-109.83 510.5,-97.38 527.97,-92.32 546.97,-84.58 561.36,-78.23"/>
<polygon fill="#63b8ff" stroke="#63b8ff" points="378.58,-121.19 369.2,-126.11 379.6,-128.11 378.58,-121.19"/>
</a>
</g>
</g>
<!-- Node3 -->
<g id="Node000003" class="node">
<title>Node3</title>
<g id="a_Node000003"><a xlink:href="structnix_1_1Installable.html" target="_top" xlink:title=" ">
<polygon fill="white" stroke="#666666" points="120.25,-188.75 32.25,-188.75 32.25,-168 120.25,-168 120.25,-188.75"/>
<text text-anchor="middle" x="76.25" y="-175.25" font-family="Helvetica,sans-Serif" font-size="10.00">nix::Installable</text>
</a>
</g>
</g>
<!-- Node3&#45;&gt;Node2 -->
<g id="edge2_Node000002_Node000003" class="edge">
<title>Node3&#45;&gt;Node2</title>
<g id="a_edge2_Node000002_Node000003"><a xlink:title=" ">
<path fill="none" stroke="#63b8ff" d="M131.56,-167.84C168.17,-160.73 216.34,-151.38 253.27,-144.22"/>
<polygon fill="#63b8ff" stroke="#63b8ff" points="131.23,-164.33 122.08,-169.68 132.56,-171.21 131.23,-164.33"/>
</a>
</g>
</g>
<!-- Node4 -->
<g id="Node000004" class="node">
<title>Node4</title>
<g id="a_Node000004"><a xlink:href="classnix_1_1ref.html" target="_top" xlink:title=" ">
<polygon fill="white" stroke="#666666" points="152.5,-150.12 0,-150.12 0,-116.62 152.5,-116.62 152.5,-150.12"/>
<text text-anchor="start" x="8" y="-136.62" font-family="Helvetica,sans-Serif" font-size="10.00">nix::ref&lt; nix::eval</text>
<text text-anchor="middle" x="76.25" y="-123.88" font-family="Helvetica,sans-Serif" font-size="10.00">_cache::CachingEvaluator &gt;</text>
</a>
</g>
</g>
<!-- Node4&#45;&gt;Node2 -->
<g id="edge3_Node000002_Node000004" class="edge">
<title>Node4&#45;&gt;Node2</title>
<g id="a_edge3_Node000002_Node000004"><a xlink:title=" ">
<path fill="none" stroke="#9a32cd" stroke-dasharray="5,2" d="M164.02,-133.38C193.56,-133.38 225.8,-133.38 252.37,-133.38"/>
<polygon fill="#9a32cd" stroke="#9a32cd" points="164.37,-129.88 154.37,-133.38 164.37,-136.88 164.37,-129.88"/>
</a>
</g>
<text text-anchor="middle" x="195.25" y="-136.62" font-family="Helvetica,sans-Serif" font-size="10.00" fill="grey"> evaluator</text>
</g>
<!-- Node5 -->
<g id="Node000005" class="node">
<title>Node5</title>
<g id="a_Node000005"><a xlink:href="structnix_1_1FlakeRef.html" target="_top" xlink:title=" ">
<polygon fill="white" stroke="#666666" points="350,-98.75 270.25,-98.75 270.25,-78 350,-78 350,-98.75"/>
<text text-anchor="middle" x="310.12" y="-85.25" font-family="Helvetica,sans-Serif" font-size="10.00">nix::FlakeRef</text>
</a>
</g>
</g>
<!-- Node5&#45;&gt;Node1 -->
<g id="edge4_Node000001_Node000005" class="edge">
<title>Node5&#45;&gt;Node1</title>
<g id="a_edge4_Node000001_Node000005"><a xlink:title=" ">
<path fill="none" stroke="#9a32cd" stroke-dasharray="5,2" d="M361.78,-84.49C408.97,-80.86 479.2,-75.47 528.17,-71.71"/>
<polygon fill="#9a32cd" stroke="#9a32cd" points="361.52,-80.99 351.82,-85.25 362.06,-87.97 361.52,-80.99"/>
</a>
</g>
<text text-anchor="middle" x="455.38" y="-84.23" font-family="Helvetica,sans-Serif" font-size="10.00" fill="grey"> flakeRef</text>
</g>
<!-- Node6 -->
<g id="Node000006" class="node">
<title>Node6</title>
<g id="a_Node000006"><a xlink:href="structnix_1_1fetchers_1_1Input.html" target="_top" xlink:title=" ">
<polygon fill="white" stroke="#666666" points="130,-98.75 22.5,-98.75 22.5,-78 130,-78 130,-98.75"/>
<text text-anchor="middle" x="76.25" y="-85.25" font-family="Helvetica,sans-Serif" font-size="10.00">nix::fetchers::Input</text>
</a>
</g>
</g>
<!-- Node6&#45;&gt;Node5 -->
<g id="edge5_Node000005_Node000006" class="edge">
<title>Node6&#45;&gt;Node5</title>
<g id="a_edge5_Node000005_Node000006"><a xlink:title=" ">
<path fill="none" stroke="#9a32cd" stroke-dasharray="5,2" d="M141.74,-88.38C182.89,-88.38 234.89,-88.38 269.92,-88.38"/>
<polygon fill="#9a32cd" stroke="#9a32cd" points="141.96,-84.88 131.96,-88.38 141.96,-91.88 141.96,-84.88"/>
</a>
</g>
<text text-anchor="middle" x="195.25" y="-91.62" font-family="Helvetica,sans-Serif" font-size="10.00" fill="grey"> input</text>
</g>
<!-- Node7 -->
<g id="Node000007" class="node">
<title>Node7</title>
<g id="a_Node000007"><a xlink:title=" ">
<polygon fill="white" stroke="#bfbfbf" points="98.12,-59.75 54.38,-59.75 54.38,-39 98.12,-39 98.12,-59.75"/>
<text text-anchor="middle" x="76.25" y="-46.25" font-family="Helvetica,sans-Serif" font-size="10.00">string</text>
</a>
</g>
</g>
<!-- Node7&#45;&gt;Node5 -->
<g id="edge6_Node000005_Node000007" class="edge">
<title>Node7&#45;&gt;Node5</title>
<g id="a_edge6_Node000005_Node000007"><a xlink:title=" ">
<path fill="none" stroke="#9a32cd" stroke-dasharray="5,2" d="M109.65,-54.13C138.62,-58.45 182.2,-65.13 220,-71.62 236.45,-74.45 254.55,-77.81 270.13,-80.77"/>
<polygon fill="#9a32cd" stroke="#9a32cd" points="110.47,-50.71 100.06,-52.71 109.44,-57.64 110.47,-50.71"/>
</a>
</g>
<text text-anchor="middle" x="195.25" y="-74.88" font-family="Helvetica,sans-Serif" font-size="10.00" fill="grey"> subdir</text>
</g>
<!-- Node8 -->
<g id="Node000008" class="node">
<title>Node8</title>
<g id="a_Node000008"><a xlink:href="structnix_1_1ExtendedOutputsSpec.html" target="_top" xlink:title=" ">
<polygon fill="white" stroke="#bfbfbf" points="382.25,-59.75 238,-59.75 238,-39 382.25,-39 382.25,-59.75"/>
<text text-anchor="middle" x="310.12" y="-46.25" font-family="Helvetica,sans-Serif" font-size="10.00">nix::ExtendedOutputsSpec</text>
</a>
</g>
</g>
<!-- Node8&#45;&gt;Node1 -->
<g id="edge7_Node000001_Node000008" class="edge">
<title>Node8&#45;&gt;Node1</title>
<g id="a_edge7_Node000001_Node000008"><a xlink:title=" ">
<path fill="none" stroke="#9a32cd" stroke-dasharray="5,2" d="M393.81,-46.65C429.76,-46.41 472.31,-47.39 510.5,-51.62 520.31,-52.71 530.73,-54.51 540.57,-56.52"/>
<polygon fill="#9a32cd" stroke="#9a32cd" points="393.86,-43.15 383.9,-46.75 393.93,-50.15 393.86,-43.15"/>
</a>
</g>
<text text-anchor="middle" x="455.38" y="-54.88" font-family="Helvetica,sans-Serif" font-size="10.00" fill="grey"> extendedOutputsSpec</text>
</g>
<!-- Node9 -->
<g id="Node000009" class="node">
<title>Node9</title>
<g id="a_Node000009"><a xlink:href="structnix_1_1flake_1_1LockFlags.html" target="_top" xlink:title=" ">
<polygon fill="white" stroke="#bfbfbf" points="367.62,-20.75 252.62,-20.75 252.62,0 367.62,0 367.62,-20.75"/>
<text text-anchor="middle" x="310.12" y="-7.25" font-family="Helvetica,sans-Serif" font-size="10.00">nix::flake::LockFlags</text>
</a>
</g>
</g>
<!-- Node9&#45;&gt;Node1 -->
<g id="edge8_Node000001_Node000009" class="edge">
<title>Node9&#45;&gt;Node1</title>
<g id="a_edge8_Node000001_Node000009"><a xlink:title=" ">
<path fill="none" stroke="#9a32cd" stroke-dasharray="5,2" d="M379.55,-10.69C418.59,-12.42 468.05,-17.25 510.5,-29.62 531.44,-35.73 553.46,-47.77 568.01,-56.61"/>
<polygon fill="#9a32cd" stroke="#9a32cd" points="379.68,-7.19 369.56,-10.32 379.42,-14.19 379.68,-7.19"/>
</a>
</g>
<text text-anchor="middle" x="455.38" y="-32.88" font-family="Helvetica,sans-Serif" font-size="10.00" fill="grey"> lockFlags</text>
</g>
</g>
</svg>
