<?xml version="1.0" encoding="UTF-8" standalone="no"?>
<!DOCTYPE svg PUBLIC "-//W3C//DTD SVG 1.1//EN"
 "http://www.w3.org/Graphics/SVG/1.1/DTD/svg11.dtd">
<!-- Generated by graphviz version 12.2.1 (0)
 -->
<!-- Title: nix::CompressionSink Pages: 1 -->
<svg width="212pt" height="142pt"
 viewBox="0.00 0.00 211.88 142.25" xmlns="http://www.w3.org/2000/svg" xmlns:xlink="http://www.w3.org/1999/xlink">
<g id="graph0" class="graph" transform="scale(1 1) rotate(0) translate(4 138.25)">
<title>nix::CompressionSink</title>
<!-- Node1 -->
<g id="Node000001" class="node">
<title>Node1</title>
<g id="a_Node000001"><a xlink:title=" ">
<polygon fill="#999999" stroke="#666666" points="165.5,-20.75 43.75,-20.75 43.75,0 165.5,0 165.5,-20.75"/>
<text text-anchor="middle" x="104.62" y="-7.25" font-family="Helvetica,sans-Serif" font-size="10.00">nix::CompressionSink</text>
</a>
</g>
</g>
<!-- Node2 -->
<g id="Node000002" class="node">
<title>Node2</title>
<g id="a_Node000002"><a xlink:href="structnix_1_1BufferedSink.html" target="_top" xlink:title=" ">
<polygon fill="white" stroke="#666666" points="99.25,-77.5 0,-77.5 0,-56.75 99.25,-56.75 99.25,-77.5"/>
<text text-anchor="middle" x="49.62" y="-64" font-family="Helvetica,sans-Serif" font-size="10.00">nix::BufferedSink</text>
</a>
</g>
</g>
<!-- Node2&#45;&gt;Node1 -->
<g id="edge1_Node000001_Node000002" class="edge">
<title>Node2&#45;&gt;Node1</title>
<g id="a_edge1_Node000001_Node000002"><a xlink:title=" ">
<path fill="none" stroke="#63b8ff" d="M67.53,-48.3C76.62,-39.25 87.31,-28.61 94.88,-21.08"/>
<polygon fill="#63b8ff" stroke="#63b8ff" points="65.15,-45.73 60.53,-55.27 70.09,-50.69 65.15,-45.73"/>
</a>
</g>
</g>
<!-- Node3 -->
<g id="Node000003" class="node">
<title>Node3</title>
<g id="a_Node000003"><a xlink:href="structnix_1_1Sink.html" target="_top" xlink:title=" ">
<polygon fill="white" stroke="#666666" points="133.62,-134.25 75.62,-134.25 75.62,-113.5 133.62,-113.5 133.62,-134.25"/>
<text text-anchor="middle" x="104.62" y="-120.75" font-family="Helvetica,sans-Serif" font-size="10.00">nix::Sink</text>
</a>
</g>
</g>
<!-- Node3&#45;&gt;Node2 -->
<g id="edge2_Node000002_Node000003" class="edge">
<title>Node3&#45;&gt;Node2</title>
<g id="a_edge2_Node000002_Node000003"><a xlink:title=" ">
<path fill="none" stroke="#63b8ff" d="M86.72,-105.05C77.63,-96 66.94,-85.36 59.37,-77.83"/>
<polygon fill="#63b8ff" stroke="#63b8ff" points="84.16,-107.44 93.72,-112.02 89.1,-102.48 84.16,-107.44"/>
</a>
</g>
</g>
<!-- Node4 -->
<g id="Node000004" class="node">
<title>Node4</title>
<g id="a_Node000004"><a xlink:href="structnix_1_1FinishSink.html" target="_top" xlink:title=" ">
<polygon fill="white" stroke="#bfbfbf" points="203.88,-77.5 117.38,-77.5 117.38,-56.75 203.88,-56.75 203.88,-77.5"/>
<text text-anchor="middle" x="160.62" y="-64" font-family="Helvetica,sans-Serif" font-size="10.00">nix::FinishSink</text>
</a>
</g>
</g>
<!-- Node3&#45;&gt;Node4 -->
<g id="edge4_Node000004_Node000003" class="edge">
<title>Node3&#45;&gt;Node4</title>
<g id="a_edge4_Node000004_Node000003"><a xlink:title=" ">
<path fill="none" stroke="#63b8ff" d="M122.86,-105.05C132.11,-96 143,-85.36 150.7,-77.83"/>
<polygon fill="#63b8ff" stroke="#63b8ff" points="120.42,-102.54 115.72,-112.03 125.32,-107.54 120.42,-102.54"/>
</a>
</g>
</g>
<!-- Node4&#45;&gt;Node1 -->
<g id="edge3_Node000001_Node000004" class="edge">
<title>Node4&#45;&gt;Node1</title>
<g id="a_edge3_Node000001_Node000004"><a xlink:title=" ">
<path fill="none" stroke="#63b8ff" d="M142.39,-48.3C133.14,-39.25 122.25,-28.61 114.55,-21.08"/>
<polygon fill="#63b8ff" stroke="#63b8ff" points="139.93,-50.79 149.53,-55.28 144.83,-45.79 139.93,-50.79"/>
</a>
</g>
</g>
</g>
</svg>
