<?xml version="1.0" encoding="UTF-8" standalone="no"?>
<!DOCTYPE svg PUBLIC "-//W3C//DTD SVG 1.1//EN"
 "http://www.w3.org/Graphics/SVG/1.1/DTD/svg11.dtd">
<!-- Generated by graphviz version 12.2.1 (0)
 -->
<!-- Title: nix::CmdDiffClosures Pages: 1 -->
<svg width="443pt" height="369pt"
 viewBox="0.00 0.00 442.50 369.25" xmlns="http://www.w3.org/2000/svg" xmlns:xlink="http://www.w3.org/1999/xlink">
<g id="graph0" class="graph" transform="scale(1 1) rotate(0) translate(4 365.25)">
<title>nix::CmdDiffClosures</title>
<!-- Node1 -->
<g id="Node000001" class="node">
<title>Node1</title>
<g id="a_Node000001"><a xlink:title=" ">
<polygon fill="#999999" stroke="#666666" points="320.38,-20.75 201.62,-20.75 201.62,0 320.38,0 320.38,-20.75"/>
<text text-anchor="middle" x="261" y="-7.25" font-family="Helvetica,sans-Serif" font-size="10.00">nix::CmdDiffClosures</text>
</a>
</g>
</g>
<!-- Node2 -->
<g id="Node000002" class="node">
<title>Node2</title>
<g id="a_Node000002"><a xlink:href="structnix_1_1SourceExprCommand.html" target="_top" xlink:title=" ">
<polygon fill="white" stroke="#bfbfbf" points="176,-77.5 34,-77.5 34,-56.75 176,-56.75 176,-77.5"/>
<text text-anchor="middle" x="105" y="-64" font-family="Helvetica,sans-Serif" font-size="10.00">nix::SourceExprCommand</text>
</a>
</g>
</g>
<!-- Node2&#45;&gt;Node1 -->
<g id="edge1_Node000001_Node000002" class="edge">
<title>Node2&#45;&gt;Node1</title>
<g id="a_edge1_Node000001_Node000002"><a xlink:title=" ">
<path fill="none" stroke="#63b8ff" d="M143.42,-52.64C171.2,-42.89 208.09,-29.94 233.09,-21.17"/>
<polygon fill="#63b8ff" stroke="#63b8ff" points="142.59,-49.22 134.32,-55.84 144.91,-55.83 142.59,-49.22"/>
</a>
</g>
</g>
<!-- Node3 -->
<g id="Node000003" class="node">
<title>Node3</title>
<g id="a_Node000003"><a xlink:href="classnix_1_1Args.html" target="_top" xlink:title=" ">
<polygon fill="white" stroke="#bfbfbf" points="211.38,-361.25 152.62,-361.25 152.62,-340.5 211.38,-340.5 211.38,-361.25"/>
<text text-anchor="middle" x="182" y="-347.75" font-family="Helvetica,sans-Serif" font-size="10.00">nix::Args</text>
</a>
</g>
</g>
<!-- Node3&#45;&gt;Node2 -->
<g id="edge2_Node000002_Node000003" class="edge">
<title>Node3&#45;&gt;Node2</title>
<g id="a_edge2_Node000002_Node000003"><a xlink:title=" ">
<path fill="none" stroke="#63b8ff" d="M141.14,-343.4C87.47,-332.31 0,-304.14 0,-238.38 0,-238.38 0,-238.38 0,-179.62 0,-130.43 54.83,-94.11 85.25,-77.75"/>
<polygon fill="#63b8ff" stroke="#63b8ff" points="140.38,-346.82 150.87,-345.29 141.72,-339.95 140.38,-346.82"/>
</a>
</g>
</g>
<!-- Node4 -->
<g id="Node000004" class="node">
<title>Node4</title>
<g id="a_Node000004"><a xlink:href="structnix_1_1MixFlakeOptions.html" target="_top" xlink:title=" ">
<polygon fill="white" stroke="#666666" points="164.38,-134.25 45.62,-134.25 45.62,-113.5 164.38,-113.5 164.38,-134.25"/>
<text text-anchor="middle" x="105" y="-120.75" font-family="Helvetica,sans-Serif" font-size="10.00">nix::MixFlakeOptions</text>
</a>
</g>
</g>
<!-- Node3&#45;&gt;Node4 -->
<g id="edge4_Node000004_Node000003" class="edge">
<title>Node3&#45;&gt;Node4</title>
<g id="a_edge4_Node000004_Node000003"><a xlink:title=" ">
<path fill="none" stroke="#63b8ff" d="M140.87,-346.86C112.19,-342.36 75.81,-331.34 57,-304.5 22.75,-255.63 35.01,-224.89 59,-170.25 65.58,-155.25 79.62,-142.6 90.47,-134.5"/>
<polygon fill="#63b8ff" stroke="#63b8ff" points="140.35,-350.32 150.72,-348.17 141.27,-343.38 140.35,-350.32"/>
</a>
</g>
</g>
<!-- Node7 -->
<g id="Node000007" class="node">
<title>Node7</title>
<g id="a_Node000007"><a xlink:href="structnix_1_1Command.html" target="_top" xlink:title=" ">
<polygon fill="white" stroke="#666666" points="153.62,-304.5 66.38,-304.5 66.38,-283.75 153.62,-283.75 153.62,-304.5"/>
<text text-anchor="middle" x="110" y="-291" font-family="Helvetica,sans-Serif" font-size="10.00">nix::Command</text>
</a>
</g>
</g>
<!-- Node3&#45;&gt;Node7 -->
<g id="edge8_Node000007_Node000003" class="edge">
<title>Node3&#45;&gt;Node7</title>
<g id="a_edge8_Node000007_Node000003"><a xlink:title=" ">
<path fill="none" stroke="#63b8ff" d="M160.02,-333.16C147.82,-323.88 133.07,-312.67 122.76,-304.83"/>
<polygon fill="#63b8ff" stroke="#63b8ff" points="157.84,-335.9 167.92,-339.17 162.08,-330.33 157.84,-335.9"/>
</a>
</g>
</g>
<!-- Node8 -->
<g id="Node000008" class="node">
<title>Node8</title>
<g id="a_Node000008"><a xlink:href="structnix_1_1MixEvalArgs.html" target="_top" xlink:title=" ">
<polygon fill="white" stroke="#bfbfbf" points="293.88,-247.75 196.12,-247.75 196.12,-227 293.88,-227 293.88,-247.75"/>
<text text-anchor="middle" x="245" y="-234.25" font-family="Helvetica,sans-Serif" font-size="10.00">nix::MixEvalArgs</text>
</a>
</g>
</g>
<!-- Node3&#45;&gt;Node8 -->
<g id="edge10_Node000008_Node000003" class="edge">
<title>Node3&#45;&gt;Node8</title>
<g id="a_edge10_Node000008_Node000003"><a xlink:title=" ">
<path fill="none" stroke="#63b8ff" d="M185.23,-329.26C187.99,-315.66 192.84,-297.84 201,-283.75 209.25,-269.51 222.94,-256.38 232.86,-247.94"/>
<polygon fill="#63b8ff" stroke="#63b8ff" points="181.83,-328.37 183.52,-338.83 188.72,-329.61 181.83,-328.37"/>
</a>
</g>
</g>
<!-- Node9 -->
<g id="Node000009" class="node">
<title>Node9</title>
<g id="a_Node000009"><a xlink:href="structnix_1_1MixRepair.html" target="_top" xlink:title=" ">
<polygon fill="white" stroke="#bfbfbf" points="296.25,-304.5 209.75,-304.5 209.75,-283.75 296.25,-283.75 296.25,-304.5"/>
<text text-anchor="middle" x="253" y="-291" font-family="Helvetica,sans-Serif" font-size="10.00">nix::MixRepair</text>
</a>
</g>
</g>
<!-- Node3&#45;&gt;Node9 -->
<g id="edge12_Node000009_Node000003" class="edge">
<title>Node3&#45;&gt;Node9</title>
<g id="a_edge12_Node000009_Node000003"><a xlink:title=" ">
<path fill="none" stroke="#63b8ff" d="M203.67,-333.16C215.71,-323.88 230.25,-312.67 240.42,-304.83"/>
<polygon fill="#63b8ff" stroke="#63b8ff" points="201.67,-330.28 195.89,-339.16 205.95,-335.83 201.67,-330.28"/>
</a>
</g>
</g>
<!-- Node10 -->
<g id="Node000010" class="node">
<title>Node10</title>
<g id="a_Node000010"><a xlink:href="structnix_1_1MixJSON.html" target="_top" xlink:title=" ">
<polygon fill="white" stroke="#bfbfbf" points="317.5,-191 238.5,-191 238.5,-170.25 317.5,-170.25 317.5,-191"/>
<text text-anchor="middle" x="278" y="-177.5" font-family="Helvetica,sans-Serif" font-size="10.00">nix::MixJSON</text>
</a>
</g>
</g>
<!-- Node3&#45;&gt;Node10 -->
<g id="edge14_Node000010_Node000003" class="edge">
<title>Node3&#45;&gt;Node10</title>
<g id="a_edge14_Node000010_Node000003"><a xlink:title=" ">
<path fill="none" stroke="#63b8ff" d="M223.02,-346.58C251.17,-341.93 286.64,-330.84 305,-304.5 330.1,-268.48 299.14,-213.28 284.68,-191.22"/>
<polygon fill="#63b8ff" stroke="#63b8ff" points="222.77,-343.08 213.36,-347.94 223.75,-350.01 222.77,-343.08"/>
</a>
</g>
</g>
<!-- Node11 -->
<g id="Node000011" class="node">
<title>Node11</title>
<g id="a_Node000011"><a xlink:href="structnix_1_1MixOperateOnOptions.html" target="_top" xlink:title=" ">
<polygon fill="white" stroke="#bfbfbf" points="434.5,-134.25 289.5,-134.25 289.5,-113.5 434.5,-113.5 434.5,-134.25"/>
<text text-anchor="middle" x="362" y="-120.75" font-family="Helvetica,sans-Serif" font-size="10.00">nix::MixOperateOnOptions</text>
</a>
</g>
</g>
<!-- Node3&#45;&gt;Node11 -->
<g id="edge16_Node000011_Node000003" class="edge">
<title>Node3&#45;&gt;Node11</title>
<g id="a_edge16_Node000011_Node000003"><a xlink:title=" ">
<path fill="none" stroke="#63b8ff" d="M222.85,-347.46C254.65,-343.36 297.54,-332.58 323,-304.5 368.45,-254.39 365.37,-164.09 362.97,-134.53"/>
<polygon fill="#63b8ff" stroke="#63b8ff" points="222.75,-343.95 213.19,-348.53 223.51,-350.91 222.75,-343.95"/>
</a>
</g>
</g>
<!-- Node4&#45;&gt;Node2 -->
<g id="edge3_Node000002_Node000004" class="edge">
<title>Node4&#45;&gt;Node2</title>
<g id="a_edge3_Node000002_Node000004"><a xlink:title=" ">
<path fill="none" stroke="#63b8ff" d="M105,-101.63C105,-93.41 105,-84.43 105,-77.83"/>
<polygon fill="#63b8ff" stroke="#63b8ff" points="101.5,-101.57 105,-111.57 108.5,-101.57 101.5,-101.57"/>
</a>
</g>
</g>
<!-- Node5 -->
<g id="Node000005" class="node">
<title>Node5</title>
<g id="a_Node000005"><a xlink:href="structnix_1_1EvalCommand.html" target="_top" xlink:title=" ">
<polygon fill="white" stroke="#666666" points="176.12,-191 67.88,-191 67.88,-170.25 176.12,-170.25 176.12,-191"/>
<text text-anchor="middle" x="122" y="-177.5" font-family="Helvetica,sans-Serif" font-size="10.00">nix::EvalCommand</text>
</a>
</g>
</g>
<!-- Node5&#45;&gt;Node4 -->
<g id="edge5_Node000004_Node000005" class="edge">
<title>Node5&#45;&gt;Node4</title>
<g id="a_edge5_Node000004_Node000005"><a xlink:title=" ">
<path fill="none" stroke="#63b8ff" d="M115.58,-158.96C112.98,-150.59 110.11,-141.33 108.01,-134.58"/>
<polygon fill="#63b8ff" stroke="#63b8ff" points="112.2,-159.88 118.51,-168.39 118.89,-157.8 112.2,-159.88"/>
</a>
</g>
</g>
<!-- Node6 -->
<g id="Node000006" class="node">
<title>Node6</title>
<g id="a_Node000006"><a xlink:href="structnix_1_1StoreCommand.html" target="_top" xlink:title=" ">
<polygon fill="white" stroke="#666666" points="178.38,-247.75 65.62,-247.75 65.62,-227 178.38,-227 178.38,-247.75"/>
<text text-anchor="middle" x="122" y="-234.25" font-family="Helvetica,sans-Serif" font-size="10.00">nix::StoreCommand</text>
</a>
</g>
</g>
<!-- Node6&#45;&gt;Node5 -->
<g id="edge6_Node000005_Node000006" class="edge">
<title>Node6&#45;&gt;Node5</title>
<g id="a_edge6_Node000005_Node000006"><a xlink:title=" ">
<path fill="none" stroke="#63b8ff" d="M122,-215.13C122,-206.91 122,-197.93 122,-191.33"/>
<polygon fill="#63b8ff" stroke="#63b8ff" points="118.5,-215.07 122,-225.07 125.5,-215.07 118.5,-215.07"/>
</a>
</g>
</g>
<!-- Node7&#45;&gt;Node6 -->
<g id="edge7_Node000006_Node000007" class="edge">
<title>Node7&#45;&gt;Node6</title>
<g id="a_edge7_Node000006_Node000007"><a xlink:title=" ">
<path fill="none" stroke="#63b8ff" d="M114.59,-272.17C116.41,-263.88 118.41,-254.75 119.87,-248.08"/>
<polygon fill="#63b8ff" stroke="#63b8ff" points="111.19,-271.34 112.47,-281.86 118.03,-272.84 111.19,-271.34"/>
</a>
</g>
</g>
<!-- Node8&#45;&gt;Node5 -->
<g id="edge9_Node000005_Node000008" class="edge">
<title>Node8&#45;&gt;Node5</title>
<g id="a_edge9_Node000005_Node000008"><a xlink:title=" ">
<path fill="none" stroke="#63b8ff" d="M212.62,-221.96C190.9,-212.3 162.89,-199.83 143.8,-191.33"/>
<polygon fill="#63b8ff" stroke="#63b8ff" points="211.07,-225.1 221.63,-225.97 213.91,-218.71 211.07,-225.1"/>
</a>
</g>
</g>
<!-- Node9&#45;&gt;Node8 -->
<g id="edge11_Node000008_Node000009" class="edge">
<title>Node9&#45;&gt;Node8</title>
<g id="a_edge11_Node000008_Node000009"><a xlink:title=" ">
<path fill="none" stroke="#63b8ff" d="M249.94,-272.17C248.73,-263.88 247.39,-254.75 246.42,-248.08"/>
<polygon fill="#63b8ff" stroke="#63b8ff" points="246.44,-272.45 251.35,-281.84 253.37,-271.44 246.44,-272.45"/>
</a>
</g>
</g>
<!-- Node10&#45;&gt;Node1 -->
<g id="edge13_Node000001_Node000010" class="edge">
<title>Node10&#45;&gt;Node1</title>
<g id="a_edge13_Node000001_Node000010"><a xlink:title=" ">
<path fill="none" stroke="#63b8ff" d="M275.91,-158.91C272.22,-122.4 264.7,-47.96 261.99,-21.22"/>
<polygon fill="#63b8ff" stroke="#63b8ff" points="272.4,-158.99 276.89,-168.59 279.36,-158.29 272.4,-158.99"/>
</a>
</g>
</g>
<!-- Node11&#45;&gt;Node1 -->
<g id="edge15_Node000001_Node000011" class="edge">
<title>Node11&#45;&gt;Node1</title>
<g id="a_edge15_Node000001_Node000011"><a xlink:title=" ">
<path fill="none" stroke="#63b8ff" d="M345.71,-104.9C324.14,-81.08 286.85,-39.92 269.88,-21.18"/>
<polygon fill="#63b8ff" stroke="#63b8ff" points="343.07,-107.19 352.37,-112.25 348.25,-102.49 343.07,-107.19"/>
</a>
</g>
</g>
</g>
</svg>
