<?xml version="1.0" encoding="UTF-8" standalone="no"?>
<!DOCTYPE svg PUBLIC "-//W3C//DTD SVG 1.1//EN"
 "http://www.w3.org/Graphics/SVG/1.1/DTD/svg11.dtd">
<!-- Generated by graphviz version 12.2.1 (0)
 -->
<!-- Title: nix::CmdRegistry Pages: 1 -->
<svg width="227pt" height="156pt"
 viewBox="0.00 0.00 226.62 156.00" xmlns="http://www.w3.org/2000/svg" xmlns:xlink="http://www.w3.org/1999/xlink">
<g id="graph0" class="graph" transform="scale(1 1) rotate(0) translate(4 152)">
<title>nix::CmdRegistry</title>
<!-- Node1 -->
<g id="Node000001" class="node">
<title>Node1</title>
<g id="a_Node000001"><a xlink:title=" ">
<polygon fill="#999999" stroke="#666666" points="100,-78.5 0,-78.5 0,-57.75 100,-57.75 100,-78.5"/>
<text text-anchor="middle" x="50" y="-65" font-family="Helvetica,sans-Serif" font-size="10.00">nix::CmdRegistry</text>
</a>
</g>
</g>
<!-- Node2 -->
<g id="Node000002" class="node">
<title>Node2</title>
<g id="a_Node000002"><a xlink:href="classnix_1_1MultiCommand.html" target="_top" xlink:title=" ">
<polygon fill="white" stroke="#666666" points="203,-148 91,-148 91,-127.25 203,-127.25 203,-148"/>
<text text-anchor="middle" x="147" y="-134.5" font-family="Helvetica,sans-Serif" font-size="10.00">nix::MultiCommand</text>
</a>
</g>
</g>
<!-- Node2&#45;&gt;Node1 -->
<g id="edge1_Node000001_Node000002" class="edge">
<title>Node2&#45;&gt;Node1</title>
<g id="a_edge1_Node000001_Node000002"><a xlink:title=" ">
<path fill="none" stroke="#63b8ff" d="M123.86,-120.52C105.3,-107.61 79.85,-89.9 64.19,-79"/>
<polygon fill="#63b8ff" stroke="#63b8ff" points="121.65,-123.25 131.86,-126.09 125.65,-117.5 121.65,-123.25"/>
</a>
</g>
</g>
<!-- Node4 -->
<g id="Node000004" class="node">
<title>Node4</title>
<g id="a_Node000004"><a xlink:href="classnix_1_1Args.html" target="_top" xlink:title=" ">
<polygon fill="white" stroke="#bfbfbf" points="176.38,-78.5 117.62,-78.5 117.62,-57.75 176.38,-57.75 176.38,-78.5"/>
<text text-anchor="middle" x="147" y="-65" font-family="Helvetica,sans-Serif" font-size="10.00">nix::Args</text>
</a>
</g>
</g>
<!-- Node2&#45;&gt;Node4 -->
<g id="edge4_Node000004_Node000002" class="edge">
<title>Node2&#45;&gt;Node4</title>
<g id="a_edge4_Node000004_Node000002"><a xlink:title=" ">
<path fill="none" stroke="#9a32cd" stroke-dasharray="5,2" d="M147,-115.82C147,-103.47 147,-88.4 147,-78.78"/>
<polygon fill="#9a32cd" stroke="#9a32cd" points="143.5,-115.44 147,-125.44 150.5,-115.44 143.5,-115.44"/>
</a>
</g>
<text text-anchor="middle" x="164.25" y="-99.75" font-family="Helvetica,sans-Serif" font-size="10.00" fill="grey"> parent</text>
</g>
<!-- Node3 -->
<g id="Node000003" class="node">
<title>Node3</title>
<g id="a_Node000003"><a xlink:href="structnix_1_1Command.html" target="_top" xlink:title=" ">
<polygon fill="white" stroke="#666666" points="218.62,-20.75 131.38,-20.75 131.38,0 218.62,0 218.62,-20.75"/>
<text text-anchor="middle" x="175" y="-7.25" font-family="Helvetica,sans-Serif" font-size="10.00">nix::Command</text>
</a>
</g>
</g>
<!-- Node3&#45;&gt;Node2 -->
<g id="edge2_Node000002_Node000003" class="edge">
<title>Node3&#45;&gt;Node2</title>
<g id="a_edge2_Node000002_Node000003"><a xlink:title=" ">
<path fill="none" stroke="#63b8ff" d="M183.74,-31.91C191.12,-52.61 198.66,-84.9 186,-109.25 182.11,-116.74 175.13,-122.6 168.13,-126.95"/>
<polygon fill="#63b8ff" stroke="#63b8ff" points="187,-30.66 180.11,-22.62 180.48,-33.2 187,-30.66"/>
</a>
</g>
</g>
<!-- Node4&#45;&gt;Node3 -->
<g id="edge3_Node000003_Node000004" class="edge">
<title>Node4&#45;&gt;Node3</title>
<g id="a_edge3_Node000003_Node000004"><a xlink:title=" ">
<path fill="none" stroke="#63b8ff" d="M156.92,-47.37C161.42,-38.41 166.54,-28.22 170.18,-20.97"/>
<polygon fill="#63b8ff" stroke="#63b8ff" points="153.92,-45.55 152.56,-56.06 160.17,-48.7 153.92,-45.55"/>
</a>
</g>
</g>
</g>
</svg>
