<?xml version="1.0" encoding="UTF-8" standalone="no"?>
<!DOCTYPE svg PUBLIC "-//W3C//DTD SVG 1.1//EN"
 "http://www.w3.org/Graphics/SVG/1.1/DTD/svg11.dtd">
<!-- Generated by graphviz version 12.2.1 (0)
 -->
<!-- Title: nix::MixDefaultProfile Pages: 1 -->
<svg width="805pt" height="302pt"
 viewBox="0.00 0.00 804.50 301.75" xmlns="http://www.w3.org/2000/svg" xmlns:xlink="http://www.w3.org/1999/xlink">
<g id="graph0" class="graph" transform="scale(1 1) rotate(0) translate(4 297.75)">
<title>nix::MixDefaultProfile</title>
<!-- Node1 -->
<g id="Node000001" class="node">
<title>Node1</title>
<g id="a_Node000001"><a xlink:title=" ">
<polygon fill="#999999" stroke="#666666" points="610.25,-156.75 488.5,-156.75 488.5,-136 610.25,-136 610.25,-156.75"/>
<text text-anchor="middle" x="549.38" y="-143.25" font-family="Helvetica,sans-Serif" font-size="10.00">nix::MixDefaultProfile</text>
</a>
</g>
</g>
<!-- Node6 -->
<g id="Node000006" class="node">
<title>Node6</title>
<g id="a_Node000006"><a xlink:href="structnix_1_1CmdProfileDiffClosures.html" target="_top" xlink:title=" ">
<polygon fill="white" stroke="#bfbfbf" points="796.12,-293.75 646.62,-293.75 646.62,-273 796.12,-273 796.12,-293.75"/>
<text text-anchor="middle" x="721.38" y="-280.25" font-family="Helvetica,sans-Serif" font-size="10.00">nix::CmdProfileDiffClosures</text>
</a>
</g>
</g>
<!-- Node1&#45;&gt;Node6 -->
<g id="edge5_Node000001_Node000006" class="edge">
<title>Node1&#45;&gt;Node6</title>
<g id="a_edge5_Node000001_Node000006"><a xlink:title=" ">
<path fill="none" stroke="#63b8ff" d="M561.53,-166.65C577.06,-192.96 607.68,-238.44 646.25,-263.38 651.96,-267.07 658.33,-270.08 664.89,-272.54"/>
<polygon fill="#63b8ff" stroke="#63b8ff" points="564.75,-165.23 556.74,-158.29 558.67,-168.7 564.75,-165.23"/>
</a>
</g>
</g>
<!-- Node7 -->
<g id="Node000007" class="node">
<title>Node7</title>
<g id="a_Node000007"><a xlink:href="structnix_1_1CmdProfileHistory.html" target="_top" xlink:title=" ">
<polygon fill="white" stroke="#bfbfbf" points="784.12,-254.75 658.62,-254.75 658.62,-234 784.12,-234 784.12,-254.75"/>
<text text-anchor="middle" x="721.38" y="-241.25" font-family="Helvetica,sans-Serif" font-size="10.00">nix::CmdProfileHistory</text>
</a>
</g>
</g>
<!-- Node1&#45;&gt;Node7 -->
<g id="edge6_Node000001_Node000007" class="edge">
<title>Node1&#45;&gt;Node7</title>
<g id="a_edge6_Node000001_Node000007"><a xlink:title=" ">
<path fill="none" stroke="#63b8ff" d="M568.46,-165.08C586.58,-182.79 616.05,-208.91 646.25,-224.38 653.37,-228.02 661.22,-231.06 669.07,-233.57"/>
<polygon fill="#63b8ff" stroke="#63b8ff" points="571.14,-162.81 561.59,-158.21 566.19,-167.76 571.14,-162.81"/>
</a>
</g>
</g>
<!-- Node8 -->
<g id="Node000008" class="node">
<title>Node8</title>
<g id="a_Node000008"><a xlink:href="structnix_1_1CmdProfileInstall.html" target="_top" xlink:title=" ">
<polygon fill="white" stroke="#bfbfbf" points="781.5,-215.75 661.25,-215.75 661.25,-195 781.5,-195 781.5,-215.75"/>
<text text-anchor="middle" x="721.38" y="-202.25" font-family="Helvetica,sans-Serif" font-size="10.00">nix::CmdProfileInstall</text>
</a>
</g>
</g>
<!-- Node1&#45;&gt;Node8 -->
<g id="edge7_Node000001_Node000008" class="edge">
<title>Node1&#45;&gt;Node8</title>
<g id="a_edge7_Node000001_Node000008"><a xlink:title=" ">
<path fill="none" stroke="#63b8ff" d="M584.84,-161.59C602.92,-169.27 625.56,-178.41 646.25,-185.38 655.98,-188.65 666.56,-191.77 676.6,-194.52"/>
<polygon fill="#63b8ff" stroke="#63b8ff" points="586.46,-158.48 575.89,-157.75 583.69,-164.91 586.46,-158.48"/>
</a>
</g>
</g>
<!-- Node9 -->
<g id="Node000009" class="node">
<title>Node9</title>
<g id="a_Node000009"><a xlink:href="structnix_1_1CmdProfileList.html" target="_top" xlink:title=" ">
<polygon fill="white" stroke="#bfbfbf" points="775.12,-176.75 667.62,-176.75 667.62,-156 775.12,-156 775.12,-176.75"/>
<text text-anchor="middle" x="721.38" y="-163.25" font-family="Helvetica,sans-Serif" font-size="10.00">nix::CmdProfileList</text>
</a>
</g>
</g>
<!-- Node1&#45;&gt;Node9 -->
<g id="edge8_Node000001_Node000009" class="edge">
<title>Node1&#45;&gt;Node9</title>
<g id="a_edge8_Node000001_Node000009"><a xlink:title=" ">
<path fill="none" stroke="#63b8ff" d="M621.35,-154.72C636.7,-156.53 652.68,-158.41 667.2,-160.12"/>
<polygon fill="#63b8ff" stroke="#63b8ff" points="622.15,-151.3 611.81,-153.6 621.34,-158.25 622.15,-151.3"/>
</a>
</g>
</g>
<!-- Node10 -->
<g id="Node000010" class="node">
<title>Node10</title>
<g id="a_Node000010"><a xlink:href="structnix_1_1CmdProfileRemove.html" target="_top" xlink:title=" ">
<polygon fill="white" stroke="#bfbfbf" points="786.75,-137.75 656,-137.75 656,-117 786.75,-117 786.75,-137.75"/>
<text text-anchor="middle" x="721.38" y="-124.25" font-family="Helvetica,sans-Serif" font-size="10.00">nix::CmdProfileRemove</text>
</a>
</g>
</g>
<!-- Node1&#45;&gt;Node10 -->
<g id="edge9_Node000001_Node000010" class="edge">
<title>Node1&#45;&gt;Node10</title>
<g id="a_edge9_Node000001_Node000010"><a xlink:title=" ">
<path fill="none" stroke="#63b8ff" d="M621.53,-138.42C632.89,-137.15 644.59,-135.85 655.79,-134.59"/>
<polygon fill="#63b8ff" stroke="#63b8ff" points="621.36,-134.92 611.81,-139.51 622.14,-141.88 621.36,-134.92"/>
</a>
</g>
</g>
<!-- Node11 -->
<g id="Node000011" class="node">
<title>Node11</title>
<g id="a_Node000011"><a xlink:href="structnix_1_1CmdProfileRollback.html" target="_top" xlink:title=" ">
<polygon fill="white" stroke="#bfbfbf" points="787.5,-98.75 655.25,-98.75 655.25,-78 787.5,-78 787.5,-98.75"/>
<text text-anchor="middle" x="721.38" y="-85.25" font-family="Helvetica,sans-Serif" font-size="10.00">nix::CmdProfileRollback</text>
</a>
</g>
</g>
<!-- Node1&#45;&gt;Node11 -->
<g id="edge10_Node000001_Node000011" class="edge">
<title>Node1&#45;&gt;Node11</title>
<g id="a_edge10_Node000001_Node000011"><a xlink:title=" ">
<path fill="none" stroke="#63b8ff" d="M585.87,-131.19C603.8,-123.81 625.99,-115.1 646.25,-108.38 656.12,-105.1 666.85,-101.96 677.01,-99.19"/>
<polygon fill="#63b8ff" stroke="#63b8ff" points="584.6,-127.92 576.72,-135 587.29,-134.39 584.6,-127.92"/>
</a>
</g>
</g>
<!-- Node12 -->
<g id="Node000012" class="node">
<title>Node12</title>
<g id="a_Node000012"><a xlink:href="structnix_1_1CmdProfileUpgrade.html" target="_top" xlink:title=" ">
<polygon fill="white" stroke="#bfbfbf" points="787.12,-59.75 655.62,-59.75 655.62,-39 787.12,-39 787.12,-59.75"/>
<text text-anchor="middle" x="721.38" y="-46.25" font-family="Helvetica,sans-Serif" font-size="10.00">nix::CmdProfileUpgrade</text>
</a>
</g>
</g>
<!-- Node1&#45;&gt;Node12 -->
<g id="edge11_Node000001_Node000012" class="edge">
<title>Node1&#45;&gt;Node12</title>
<g id="a_edge11_Node000001_Node000012"><a xlink:title=" ">
<path fill="none" stroke="#63b8ff" d="M568.5,-127.92C586.66,-110.44 616.15,-84.67 646.25,-69.38 653.38,-65.75 661.24,-62.73 669.1,-60.22"/>
<polygon fill="#63b8ff" stroke="#63b8ff" points="566.3,-125.18 561.63,-134.69 571.21,-130.17 566.3,-125.18"/>
</a>
</g>
</g>
<!-- Node13 -->
<g id="Node000013" class="node">
<title>Node13</title>
<g id="a_Node000013"><a xlink:href="structnix_1_1CmdProfileWipeHistory.html" target="_top" xlink:title=" ">
<polygon fill="white" stroke="#bfbfbf" points="796.5,-20.75 646.25,-20.75 646.25,0 796.5,0 796.5,-20.75"/>
<text text-anchor="middle" x="721.38" y="-7.25" font-family="Helvetica,sans-Serif" font-size="10.00">nix::CmdProfileWipeHistory</text>
</a>
</g>
</g>
<!-- Node1&#45;&gt;Node13 -->
<g id="edge12_Node000001_Node000013" class="edge">
<title>Node1&#45;&gt;Node13</title>
<g id="a_edge12_Node000001_Node000013"><a xlink:title=" ">
<path fill="none" stroke="#63b8ff" d="M561.81,-125.88C577.46,-99.74 608.02,-54.98 646.25,-30.38 651.97,-26.7 658.35,-23.69 664.9,-21.23"/>
<polygon fill="#63b8ff" stroke="#63b8ff" points="558.97,-123.81 556.97,-134.21 565.02,-127.32 558.97,-123.81"/>
</a>
</g>
</g>
<!-- Node2 -->
<g id="Node000002" class="node">
<title>Node2</title>
<g id="a_Node000002"><a xlink:href="structnix_1_1MixProfile.html" target="_top" xlink:title=" ">
<polygon fill="white" stroke="#bfbfbf" points="452.5,-156.75 366.75,-156.75 366.75,-136 452.5,-136 452.5,-156.75"/>
<text text-anchor="middle" x="409.62" y="-143.25" font-family="Helvetica,sans-Serif" font-size="10.00">nix::MixProfile</text>
</a>
</g>
</g>
<!-- Node2&#45;&gt;Node1 -->
<g id="edge1_Node000001_Node000002" class="edge">
<title>Node2&#45;&gt;Node1</title>
<g id="a_edge1_Node000001_Node000002"><a xlink:title=" ">
<path fill="none" stroke="#63b8ff" d="M463.99,-146.38C471.87,-146.38 480.04,-146.38 488.05,-146.38"/>
<polygon fill="#63b8ff" stroke="#63b8ff" points="464.22,-142.88 454.22,-146.38 464.22,-149.88 464.22,-142.88"/>
</a>
</g>
</g>
<!-- Node3 -->
<g id="Node000003" class="node">
<title>Node3</title>
<g id="a_Node000003"><a xlink:href="structnix_1_1StoreCommand.html" target="_top" xlink:title=" ">
<polygon fill="white" stroke="#666666" points="330.75,-156.75 218,-156.75 218,-136 330.75,-136 330.75,-156.75"/>
<text text-anchor="middle" x="274.38" y="-143.25" font-family="Helvetica,sans-Serif" font-size="10.00">nix::StoreCommand</text>
</a>
</g>
</g>
<!-- Node3&#45;&gt;Node2 -->
<g id="edge2_Node000002_Node000003" class="edge">
<title>Node3&#45;&gt;Node2</title>
<g id="a_edge2_Node000002_Node000003"><a xlink:title=" ">
<path fill="none" stroke="#63b8ff" d="M342.58,-146.38C350.73,-146.38 358.86,-146.38 366.49,-146.38"/>
<polygon fill="#63b8ff" stroke="#63b8ff" points="342.63,-142.88 332.63,-146.38 342.63,-149.88 342.63,-142.88"/>
</a>
</g>
</g>
<!-- Node4 -->
<g id="Node000004" class="node">
<title>Node4</title>
<g id="a_Node000004"><a xlink:href="structnix_1_1Command.html" target="_top" xlink:title=" ">
<polygon fill="white" stroke="#666666" points="182,-156.75 94.75,-156.75 94.75,-136 182,-136 182,-156.75"/>
<text text-anchor="middle" x="138.38" y="-143.25" font-family="Helvetica,sans-Serif" font-size="10.00">nix::Command</text>
</a>
</g>
</g>
<!-- Node4&#45;&gt;Node3 -->
<g id="edge3_Node000003_Node000004" class="edge">
<title>Node4&#45;&gt;Node3</title>
<g id="a_edge3_Node000003_Node000004"><a xlink:title=" ">
<path fill="none" stroke="#63b8ff" d="M193.59,-146.38C201.57,-146.38 209.79,-146.38 217.79,-146.38"/>
<polygon fill="#63b8ff" stroke="#63b8ff" points="193.66,-142.88 183.66,-146.38 193.66,-149.88 193.66,-142.88"/>
</a>
</g>
</g>
<!-- Node5 -->
<g id="Node000005" class="node">
<title>Node5</title>
<g id="a_Node000005"><a xlink:href="classnix_1_1Args.html" target="_top" xlink:title=" ">
<polygon fill="white" stroke="#bfbfbf" points="58.75,-156.75 0,-156.75 0,-136 58.75,-136 58.75,-156.75"/>
<text text-anchor="middle" x="29.38" y="-143.25" font-family="Helvetica,sans-Serif" font-size="10.00">nix::Args</text>
</a>
</g>
</g>
<!-- Node5&#45;&gt;Node4 -->
<g id="edge4_Node000004_Node000005" class="edge">
<title>Node5&#45;&gt;Node4</title>
<g id="a_edge4_Node000004_Node000005"><a xlink:title=" ">
<path fill="none" stroke="#63b8ff" d="M70.53,-146.38C78.37,-146.38 86.61,-146.38 94.53,-146.38"/>
<polygon fill="#63b8ff" stroke="#63b8ff" points="70.56,-142.88 60.56,-146.38 70.56,-149.88 70.56,-142.88"/>
</a>
</g>
</g>
</g>
</svg>
