<?xml version="1.0" encoding="UTF-8" standalone="no"?>
<!DOCTYPE svg PUBLIC "-//W3C//DTD SVG 1.1//EN"
 "http://www.w3.org/Graphics/SVG/1.1/DTD/svg11.dtd">
<!-- Generated by graphviz version 12.2.1 (0)
 -->
<!-- Title: nix::CmdProfileHistory Pages: 1 -->
<svg width="254pt" height="313pt"
 viewBox="0.00 0.00 253.70 312.50" xmlns="http://www.w3.org/2000/svg" xmlns:xlink="http://www.w3.org/1999/xlink">
<g id="graph0" class="graph" transform="scale(1 1) rotate(0) translate(4 308.5)">
<title>nix::CmdProfileHistory</title>
<!-- Node1 -->
<g id="Node000001" class="node">
<title>Node1</title>
<g id="a_Node000001"><a xlink:title=" ">
<polygon fill="#999999" stroke="#666666" points="144.2,-20.75 18.7,-20.75 18.7,0 144.2,0 144.2,-20.75"/>
<text text-anchor="middle" x="81.45" y="-7.25" font-family="Helvetica,sans-Serif" font-size="10.00">nix::CmdProfileHistory</text>
</a>
</g>
</g>
<!-- Node2 -->
<g id="Node000002" class="node">
<title>Node2</title>
<g id="a_Node000002"><a xlink:href="structnix_1_1StoreCommand.html" target="_top" xlink:title=" ">
<polygon fill="white" stroke="#666666" points="115.83,-191 3.08,-191 3.08,-170.25 115.83,-170.25 115.83,-191"/>
<text text-anchor="middle" x="59.45" y="-177.5" font-family="Helvetica,sans-Serif" font-size="10.00">nix::StoreCommand</text>
</a>
</g>
</g>
<!-- Node2&#45;&gt;Node1 -->
<g id="edge1_Node000001_Node000002" class="edge">
<title>Node2&#45;&gt;Node1</title>
<g id="a_edge1_Node000001_Node000002"><a xlink:title=" ">
<path fill="none" stroke="#63b8ff" d="M34.79,-163.07C25.66,-155.48 16.35,-145.62 11.45,-134.25 -2.17,-102.62 -4.99,-87.01 11.45,-56.75 20.58,-39.95 38.91,-28.41 54.52,-21.18"/>
<polygon fill="#63b8ff" stroke="#63b8ff" points="32.41,-165.66 42.48,-168.96 36.67,-160.1 32.41,-165.66"/>
</a>
</g>
</g>
<!-- Node5 -->
<g id="Node000005" class="node">
<title>Node5</title>
<g id="a_Node000005"><a xlink:href="structnix_1_1EvalCommand.html" target="_top" xlink:title=" ">
<polygon fill="white" stroke="#666666" points="232.58,-134.25 124.33,-134.25 124.33,-113.5 232.58,-113.5 232.58,-134.25"/>
<text text-anchor="middle" x="178.45" y="-120.75" font-family="Helvetica,sans-Serif" font-size="10.00">nix::EvalCommand</text>
</a>
</g>
</g>
<!-- Node2&#45;&gt;Node5 -->
<g id="edge5_Node000005_Node000002" class="edge">
<title>Node2&#45;&gt;Node5</title>
<g id="a_edge5_Node000005_Node000002"><a xlink:title=" ">
<path fill="none" stroke="#63b8ff" d="M91.07,-165.08C112.04,-155.43 138.98,-143.04 157.36,-134.58"/>
<polygon fill="#63b8ff" stroke="#63b8ff" points="89.73,-161.84 82.1,-169.2 92.65,-168.2 89.73,-161.84"/>
</a>
</g>
</g>
<!-- Node9 -->
<g id="Node000009" class="node">
<title>Node9</title>
<g id="a_Node000009"><a xlink:href="structnix_1_1MixProfile.html" target="_top" xlink:title=" ">
<polygon fill="white" stroke="#bfbfbf" points="106.33,-134.25 20.58,-134.25 20.58,-113.5 106.33,-113.5 106.33,-134.25"/>
<text text-anchor="middle" x="63.45" y="-120.75" font-family="Helvetica,sans-Serif" font-size="10.00">nix::MixProfile</text>
</a>
</g>
</g>
<!-- Node2&#45;&gt;Node9 -->
<g id="edge12_Node000009_Node000002" class="edge">
<title>Node2&#45;&gt;Node9</title>
<g id="a_edge12_Node000009_Node000002"><a xlink:title=" ">
<path fill="none" stroke="#63b8ff" d="M61.01,-158.38C61.61,-150.16 62.26,-141.18 62.75,-134.58"/>
<polygon fill="#63b8ff" stroke="#63b8ff" points="57.52,-158.1 60.28,-168.33 64.5,-158.61 57.52,-158.1"/>
</a>
</g>
</g>
<!-- Node3 -->
<g id="Node000003" class="node">
<title>Node3</title>
<g id="a_Node000003"><a xlink:href="structnix_1_1Command.html" target="_top" xlink:title=" ">
<polygon fill="white" stroke="#666666" points="103.08,-247.75 15.83,-247.75 15.83,-227 103.08,-227 103.08,-247.75"/>
<text text-anchor="middle" x="59.45" y="-234.25" font-family="Helvetica,sans-Serif" font-size="10.00">nix::Command</text>
</a>
</g>
</g>
<!-- Node3&#45;&gt;Node2 -->
<g id="edge2_Node000002_Node000003" class="edge">
<title>Node3&#45;&gt;Node2</title>
<g id="a_edge2_Node000002_Node000003"><a xlink:title=" ">
<path fill="none" stroke="#63b8ff" d="M59.45,-215.13C59.45,-206.91 59.45,-197.93 59.45,-191.33"/>
<polygon fill="#63b8ff" stroke="#63b8ff" points="55.95,-215.07 59.45,-225.07 62.95,-215.07 55.95,-215.07"/>
</a>
</g>
</g>
<!-- Node4 -->
<g id="Node000004" class="node">
<title>Node4</title>
<g id="a_Node000004"><a xlink:href="classnix_1_1Args.html" target="_top" xlink:title=" ">
<polygon fill="white" stroke="#bfbfbf" points="160.83,-304.5 102.08,-304.5 102.08,-283.75 160.83,-283.75 160.83,-304.5"/>
<text text-anchor="middle" x="131.45" y="-291" font-family="Helvetica,sans-Serif" font-size="10.00">nix::Args</text>
</a>
</g>
</g>
<!-- Node4&#45;&gt;Node3 -->
<g id="edge3_Node000003_Node000004" class="edge">
<title>Node4&#45;&gt;Node3</title>
<g id="a_edge3_Node000003_Node000004"><a xlink:title=" ">
<path fill="none" stroke="#63b8ff" d="M109.48,-276.41C97.27,-267.13 82.52,-255.92 72.22,-248.08"/>
<polygon fill="#63b8ff" stroke="#63b8ff" points="107.3,-279.15 117.38,-282.42 111.54,-273.58 107.3,-279.15"/>
</a>
</g>
</g>
<!-- Node6 -->
<g id="Node000006" class="node">
<title>Node6</title>
<g id="a_Node000006"><a xlink:href="structnix_1_1MixEvalArgs.html" target="_top" xlink:title=" ">
<polygon fill="white" stroke="#bfbfbf" points="231.33,-191 133.58,-191 133.58,-170.25 231.33,-170.25 231.33,-191"/>
<text text-anchor="middle" x="182.45" y="-177.5" font-family="Helvetica,sans-Serif" font-size="10.00">nix::MixEvalArgs</text>
</a>
</g>
</g>
<!-- Node4&#45;&gt;Node6 -->
<g id="edge7_Node000006_Node000004" class="edge">
<title>Node4&#45;&gt;Node6</title>
<g id="a_edge7_Node000006_Node000004"><a xlink:title=" ">
<path fill="none" stroke="#63b8ff" d="M135.52,-272.44C138.6,-259.07 143.5,-241.51 150.45,-227 156.79,-213.79 166.88,-200.27 174.04,-191.46"/>
<polygon fill="#63b8ff" stroke="#63b8ff" points="132.18,-271.35 133.51,-281.86 139.02,-272.81 132.18,-271.35"/>
</a>
</g>
</g>
<!-- Node7 -->
<g id="Node000007" class="node">
<title>Node7</title>
<g id="a_Node000007"><a xlink:href="structnix_1_1MixRepair.html" target="_top" xlink:title=" ">
<polygon fill="white" stroke="#bfbfbf" points="245.7,-247.75 159.2,-247.75 159.2,-227 245.7,-227 245.7,-247.75"/>
<text text-anchor="middle" x="202.45" y="-234.25" font-family="Helvetica,sans-Serif" font-size="10.00">nix::MixRepair</text>
</a>
</g>
</g>
<!-- Node4&#45;&gt;Node7 -->
<g id="edge9_Node000007_Node000004" class="edge">
<title>Node4&#45;&gt;Node7</title>
<g id="a_edge9_Node000007_Node000004"><a xlink:title=" ">
<path fill="none" stroke="#63b8ff" d="M153.13,-276.41C165.16,-267.13 179.71,-255.92 189.87,-248.08"/>
<polygon fill="#63b8ff" stroke="#63b8ff" points="151.13,-273.53 145.35,-282.41 155.4,-279.08 151.13,-273.53"/>
</a>
</g>
</g>
<!-- Node5&#45;&gt;Node1 -->
<g id="edge4_Node000001_Node000005" class="edge">
<title>Node5&#45;&gt;Node1</title>
<g id="a_edge4_Node000001_Node000005"><a xlink:title=" ">
<path fill="none" stroke="#63b8ff" d="M173.6,-102.45C169.49,-88.44 162.47,-70.05 151.45,-56.75 138.43,-41.02 118.52,-28.85 103.26,-21.1"/>
<polygon fill="#63b8ff" stroke="#63b8ff" points="170.17,-103.16 176.11,-111.93 176.93,-101.37 170.17,-103.16"/>
</a>
</g>
</g>
<!-- Node6&#45;&gt;Node5 -->
<g id="edge6_Node000005_Node000006" class="edge">
<title>Node6&#45;&gt;Node5</title>
<g id="a_edge6_Node000005_Node000006"><a xlink:title=" ">
<path fill="none" stroke="#63b8ff" d="M180.9,-158.38C180.3,-150.16 179.65,-141.18 179.16,-134.58"/>
<polygon fill="#63b8ff" stroke="#63b8ff" points="177.41,-158.61 181.63,-168.33 184.39,-158.1 177.41,-158.61"/>
</a>
</g>
</g>
<!-- Node7&#45;&gt;Node6 -->
<g id="edge8_Node000006_Node000007" class="edge">
<title>Node7&#45;&gt;Node6</title>
<g id="a_edge8_Node000006_Node000007"><a xlink:title=" ">
<path fill="none" stroke="#63b8ff" d="M195.01,-215.99C191.93,-207.55 188.49,-198.16 186,-191.33"/>
<polygon fill="#63b8ff" stroke="#63b8ff" points="191.64,-216.97 198.36,-225.17 198.22,-214.57 191.64,-216.97"/>
</a>
</g>
</g>
<!-- Node8 -->
<g id="Node000008" class="node">
<title>Node8</title>
<g id="a_Node000008"><a xlink:href="structnix_1_1MixDefaultProfile.html" target="_top" xlink:title=" ">
<polygon fill="white" stroke="#bfbfbf" points="142.33,-77.5 20.58,-77.5 20.58,-56.75 142.33,-56.75 142.33,-77.5"/>
<text text-anchor="middle" x="81.45" y="-64" font-family="Helvetica,sans-Serif" font-size="10.00">nix::MixDefaultProfile</text>
</a>
</g>
</g>
<!-- Node8&#45;&gt;Node1 -->
<g id="edge10_Node000001_Node000008" class="edge">
<title>Node8&#45;&gt;Node1</title>
<g id="a_edge10_Node000001_Node000008"><a xlink:title=" ">
<path fill="none" stroke="#63b8ff" d="M81.45,-44.88C81.45,-36.66 81.45,-27.68 81.45,-21.08"/>
<polygon fill="#63b8ff" stroke="#63b8ff" points="77.95,-44.82 81.45,-54.82 84.95,-44.82 77.95,-44.82"/>
</a>
</g>
</g>
<!-- Node9&#45;&gt;Node8 -->
<g id="edge11_Node000008_Node000009" class="edge">
<title>Node9&#45;&gt;Node8</title>
<g id="a_edge11_Node000008_Node000009"><a xlink:title=" ">
<path fill="none" stroke="#63b8ff" d="M70.25,-102.21C73,-93.84 76.04,-84.58 78.26,-77.83"/>
<polygon fill="#63b8ff" stroke="#63b8ff" points="66.94,-101.06 67.15,-111.65 73.59,-103.24 66.94,-101.06"/>
</a>
</g>
</g>
</g>
</svg>
