<?xml version="1.0" encoding="UTF-8" standalone="no"?>
<!DOCTYPE svg PUBLIC "-//W3C//DTD SVG 1.1//EN"
 "http://www.w3.org/Graphics/SVG/1.1/DTD/svg11.dtd">
<!-- Generated by graphviz version 12.2.1 (0)
 -->
<!-- Title: nix::LocalStoreConfig Pages: 1 -->
<svg width="138pt" height="256pt"
 viewBox="0.00 0.00 138.00 255.75" xmlns="http://www.w3.org/2000/svg" xmlns:xlink="http://www.w3.org/1999/xlink">
<g id="graph0" class="graph" transform="scale(1 1) rotate(0) translate(4 251.75)">
<title>nix::LocalStoreConfig</title>
<!-- Node1 -->
<g id="Node000001" class="node">
<title>Node1</title>
<g id="a_Node000001"><a xlink:title=" ">
<polygon fill="#999999" stroke="#666666" points="124.38,-20.75 5.62,-20.75 5.62,0 124.38,0 124.38,-20.75"/>
<text text-anchor="middle" x="65" y="-7.25" font-family="Helvetica,sans-Serif" font-size="10.00">nix::LocalStoreConfig</text>
</a>
</g>
</g>
<!-- Node2 -->
<g id="Node000002" class="node">
<title>Node2</title>
<g id="a_Node000002"><a xlink:href="structnix_1_1LocalFSStoreConfig.html" target="_top" xlink:title=" ">
<polygon fill="white" stroke="#bfbfbf" points="130,-77.5 0,-77.5 0,-56.75 130,-56.75 130,-77.5"/>
<text text-anchor="middle" x="65" y="-64" font-family="Helvetica,sans-Serif" font-size="10.00">nix::LocalFSStoreConfig</text>
</a>
</g>
</g>
<!-- Node2&#45;&gt;Node1 -->
<g id="edge1_Node000001_Node000002" class="edge">
<title>Node2&#45;&gt;Node1</title>
<g id="a_edge1_Node000001_Node000002"><a xlink:title=" ">
<path fill="none" stroke="#63b8ff" d="M65,-44.88C65,-36.66 65,-27.68 65,-21.08"/>
<polygon fill="#63b8ff" stroke="#63b8ff" points="61.5,-44.82 65,-54.82 68.5,-44.82 61.5,-44.82"/>
</a>
</g>
</g>
<!-- Node3 -->
<g id="Node000003" class="node">
<title>Node3</title>
<g id="a_Node000003"><a xlink:href="structnix_1_1StoreConfig.html" target="_top" xlink:title=" ">
<polygon fill="white" stroke="#bfbfbf" points="111.62,-134.25 18.38,-134.25 18.38,-113.5 111.62,-113.5 111.62,-134.25"/>
<text text-anchor="middle" x="65" y="-120.75" font-family="Helvetica,sans-Serif" font-size="10.00">nix::StoreConfig</text>
</a>
</g>
</g>
<!-- Node3&#45;&gt;Node2 -->
<g id="edge2_Node000002_Node000003" class="edge">
<title>Node3&#45;&gt;Node2</title>
<g id="a_edge2_Node000002_Node000003"><a xlink:title=" ">
<path fill="none" stroke="#63b8ff" d="M65,-101.63C65,-93.41 65,-84.43 65,-77.83"/>
<polygon fill="#63b8ff" stroke="#63b8ff" points="61.5,-101.57 65,-111.57 68.5,-101.57 61.5,-101.57"/>
</a>
</g>
</g>
<!-- Node4 -->
<g id="Node000004" class="node">
<title>Node4</title>
<g id="a_Node000004"><a xlink:href="classnix_1_1Config.html" target="_top" xlink:title=" ">
<polygon fill="white" stroke="#666666" points="98.88,-191 31.12,-191 31.12,-170.25 98.88,-170.25 98.88,-191"/>
<text text-anchor="middle" x="65" y="-177.5" font-family="Helvetica,sans-Serif" font-size="10.00">nix::Config</text>
</a>
</g>
</g>
<!-- Node4&#45;&gt;Node3 -->
<g id="edge3_Node000003_Node000004" class="edge">
<title>Node4&#45;&gt;Node3</title>
<g id="a_edge3_Node000003_Node000004"><a xlink:title=" ">
<path fill="none" stroke="#63b8ff" d="M65,-158.38C65,-150.16 65,-141.18 65,-134.58"/>
<polygon fill="#63b8ff" stroke="#63b8ff" points="61.5,-158.32 65,-168.32 68.5,-158.32 61.5,-158.32"/>
</a>
</g>
</g>
<!-- Node5 -->
<g id="Node000005" class="node">
<title>Node5</title>
<g id="a_Node000005"><a xlink:href="classnix_1_1AbstractConfig.html" target="_top" xlink:title=" ">
<polygon fill="white" stroke="#bfbfbf" points="119.12,-247.75 10.88,-247.75 10.88,-227 119.12,-227 119.12,-247.75"/>
<text text-anchor="middle" x="65" y="-234.25" font-family="Helvetica,sans-Serif" font-size="10.00">nix::AbstractConfig</text>
</a>
</g>
</g>
<!-- Node5&#45;&gt;Node4 -->
<g id="edge4_Node000004_Node000005" class="edge">
<title>Node5&#45;&gt;Node4</title>
<g id="a_edge4_Node000004_Node000005"><a xlink:title=" ">
<path fill="none" stroke="#63b8ff" d="M65,-215.13C65,-206.91 65,-197.93 65,-191.33"/>
<polygon fill="#63b8ff" stroke="#63b8ff" points="61.5,-215.07 65,-225.07 68.5,-215.07 61.5,-215.07"/>
</a>
</g>
</g>
</g>
</svg>
