<?xml version="1.0" encoding="UTF-8" standalone="no"?>
<!DOCTYPE svg PUBLIC "-//W3C//DTD SVG 1.1//EN"
 "http://www.w3.org/Graphics/SVG/1.1/DTD/svg11.dtd">
<!-- Generated by graphviz version 12.2.1 (0)
 -->
<!-- Title: nix::CmdConfigShow Pages: 1 -->
<svg width="192pt" height="142pt"
 viewBox="0.00 0.00 192.12 142.25" xmlns="http://www.w3.org/2000/svg" xmlns:xlink="http://www.w3.org/1999/xlink">
<g id="graph0" class="graph" transform="scale(1 1) rotate(0) translate(4 138.25)">
<title>nix::CmdConfigShow</title>
<!-- Node1 -->
<g id="Node000001" class="node">
<title>Node1</title>
<g id="a_Node000001"><a xlink:title=" ">
<polygon fill="#999999" stroke="#666666" points="151.88,-20.75 35.38,-20.75 35.38,0 151.88,0 151.88,-20.75"/>
<text text-anchor="middle" x="93.62" y="-7.25" font-family="Helvetica,sans-Serif" font-size="10.00">nix::CmdConfigShow</text>
</a>
</g>
</g>
<!-- Node2 -->
<g id="Node000002" class="node">
<title>Node2</title>
<g id="a_Node000002"><a xlink:href="structnix_1_1Command.html" target="_top" xlink:title=" ">
<polygon fill="white" stroke="#666666" points="87.25,-77.5 0,-77.5 0,-56.75 87.25,-56.75 87.25,-77.5"/>
<text text-anchor="middle" x="43.62" y="-64" font-family="Helvetica,sans-Serif" font-size="10.00">nix::Command</text>
</a>
</g>
</g>
<!-- Node2&#45;&gt;Node1 -->
<g id="edge1_Node000001_Node000002" class="edge">
<title>Node2&#45;&gt;Node1</title>
<g id="a_edge1_Node000001_Node000002"><a xlink:title=" ">
<path fill="none" stroke="#63b8ff" d="M60.16,-48.02C68.37,-39.03 77.96,-28.53 84.76,-21.08"/>
<polygon fill="#63b8ff" stroke="#63b8ff" points="57.74,-45.47 53.58,-55.22 62.91,-50.2 57.74,-45.47"/>
</a>
</g>
</g>
<!-- Node3 -->
<g id="Node000003" class="node">
<title>Node3</title>
<g id="a_Node000003"><a xlink:href="classnix_1_1Args.html" target="_top" xlink:title=" ">
<polygon fill="white" stroke="#bfbfbf" points="123,-134.25 64.25,-134.25 64.25,-113.5 123,-113.5 123,-134.25"/>
<text text-anchor="middle" x="93.62" y="-120.75" font-family="Helvetica,sans-Serif" font-size="10.00">nix::Args</text>
</a>
</g>
</g>
<!-- Node3&#45;&gt;Node2 -->
<g id="edge2_Node000002_Node000003" class="edge">
<title>Node3&#45;&gt;Node2</title>
<g id="a_edge2_Node000002_Node000003"><a xlink:title=" ">
<path fill="none" stroke="#63b8ff" d="M77.09,-104.77C68.88,-95.78 59.29,-85.28 52.49,-77.83"/>
<polygon fill="#63b8ff" stroke="#63b8ff" points="74.34,-106.95 83.67,-111.97 79.51,-102.22 74.34,-106.95"/>
</a>
</g>
</g>
<!-- Node4 -->
<g id="Node000004" class="node">
<title>Node4</title>
<g id="a_Node000004"><a xlink:href="structnix_1_1MixJSON.html" target="_top" xlink:title=" ">
<polygon fill="white" stroke="#bfbfbf" points="184.12,-77.5 105.12,-77.5 105.12,-56.75 184.12,-56.75 184.12,-77.5"/>
<text text-anchor="middle" x="144.62" y="-64" font-family="Helvetica,sans-Serif" font-size="10.00">nix::MixJSON</text>
</a>
</g>
</g>
<!-- Node3&#45;&gt;Node4 -->
<g id="edge4_Node000004_Node000003" class="edge">
<title>Node3&#45;&gt;Node4</title>
<g id="a_edge4_Node000004_Node000003"><a xlink:title=" ">
<path fill="none" stroke="#63b8ff" d="M110.49,-104.77C118.86,-95.78 128.65,-85.28 135.59,-77.83"/>
<polygon fill="#63b8ff" stroke="#63b8ff" points="108.03,-102.28 103.77,-111.98 113.15,-107.05 108.03,-102.28"/>
</a>
</g>
</g>
<!-- Node4&#45;&gt;Node1 -->
<g id="edge3_Node000001_Node000004" class="edge">
<title>Node4&#45;&gt;Node1</title>
<g id="a_edge3_Node000001_Node000004"><a xlink:title=" ">
<path fill="none" stroke="#63b8ff" d="M127.76,-48.02C119.39,-39.03 109.6,-28.53 102.66,-21.08"/>
<polygon fill="#63b8ff" stroke="#63b8ff" points="125.1,-50.3 134.48,-55.23 130.22,-45.53 125.1,-50.3"/>
</a>
</g>
</g>
</g>
</svg>
