<?xml version="1.0" encoding="UTF-8" standalone="no"?>
<!DOCTYPE svg PUBLIC "-//W3C//DTD SVG 1.1//EN"
 "http://www.w3.org/Graphics/SVG/1.1/DTD/svg11.dtd">
<!-- Generated by graphviz version 12.2.1 (0)
 -->
<!-- Title: nix::HookInstance Pages: 1 -->
<svg width="281pt" height="239pt"
 viewBox="0.00 0.00 280.62 239.25" xmlns="http://www.w3.org/2000/svg" xmlns:xlink="http://www.w3.org/1999/xlink">
<g id="graph0" class="graph" transform="scale(1 1) rotate(0) translate(4 235.25)">
<title>nix::HookInstance</title>
<!-- Node1 -->
<g id="Node000001" class="node">
<title>Node1</title>
<g id="a_Node000001"><a xlink:title=" ">
<polygon fill="#999999" stroke="#666666" points="195.88,-20.75 92.12,-20.75 92.12,0 195.88,0 195.88,-20.75"/>
<text text-anchor="middle" x="144" y="-7.25" font-family="Helvetica,sans-Serif" font-size="10.00">nix::HookInstance</text>
</a>
</g>
</g>
<!-- Node2 -->
<g id="Node000002" class="node">
<title>Node2</title>
<g id="a_Node000002"><a xlink:href="classnix_1_1AutoCloseFD.html" target="_top" xlink:title=" ">
<polygon fill="white" stroke="#bfbfbf" points="100,-115.75 0,-115.75 0,-95 100,-95 100,-115.75"/>
<text text-anchor="middle" x="50" y="-102.25" font-family="Helvetica,sans-Serif" font-size="10.00">nix::AutoCloseFD</text>
</a>
</g>
</g>
<!-- Node2&#45;&gt;Node1 -->
<g id="edge1_Node000001_Node000002" class="edge">
<title>Node2&#45;&gt;Node1</title>
<g id="a_edge1_Node000001_Node000002"><a xlink:title=" ">
<path fill="none" stroke="#9a32cd" stroke-dasharray="5,2" d="M57.24,-84.03C63.14,-69.84 72.69,-51.27 86,-38.75 93.95,-31.27 104.31,-25.51 114.07,-21.24"/>
<polygon fill="#9a32cd" stroke="#9a32cd" points="54,-82.69 53.67,-93.28 60.53,-85.21 54,-82.69"/>
</a>
</g>
<text text-anchor="middle" x="113" y="-67.5" font-family="Helvetica,sans-Serif" font-size="10.00" fill="grey"> builderOut</text>
<text text-anchor="middle" x="113" y="-54.75" font-family="Helvetica,sans-Serif" font-size="10.00" fill="grey">fromHook</text>
<text text-anchor="middle" x="113" y="-42" font-family="Helvetica,sans-Serif" font-size="10.00" fill="grey">toHook</text>
</g>
<!-- Node3 -->
<g id="Node000003" class="node">
<title>Node3</title>
<g id="a_Node000003"><a xlink:href="classnix_1_1Pid.html" target="_top" xlink:title=" ">
<polygon fill="white" stroke="#bfbfbf" points="170,-115.75 118,-115.75 118,-95 170,-95 170,-115.75"/>
<text text-anchor="middle" x="144" y="-102.25" font-family="Helvetica,sans-Serif" font-size="10.00">nix::Pid</text>
</a>
</g>
</g>
<!-- Node3&#45;&gt;Node1 -->
<g id="edge2_Node000001_Node000003" class="edge">
<title>Node3&#45;&gt;Node1</title>
<g id="a_edge2_Node000001_Node000003"><a xlink:title=" ">
<path fill="none" stroke="#9a32cd" stroke-dasharray="5,2" d="M144,-83.45C144,-63.94 144,-35.74 144,-21.06"/>
<polygon fill="#9a32cd" stroke="#9a32cd" points="140.5,-83.26 144,-93.26 147.5,-83.26 140.5,-83.26"/>
</a>
</g>
<text text-anchor="middle" x="153" y="-54.75" font-family="Helvetica,sans-Serif" font-size="10.00" fill="grey"> pid</text>
</g>
<!-- Node4 -->
<g id="Node000004" class="node">
<title>Node4</title>
<g id="a_Node000004"><a xlink:href="structnix_1_1FdSink.html" target="_top" xlink:title=" ">
<polygon fill="white" stroke="#666666" points="258,-115.75 188,-115.75 188,-95 258,-95 258,-115.75"/>
<text text-anchor="middle" x="223" y="-102.25" font-family="Helvetica,sans-Serif" font-size="10.00">nix::FdSink</text>
</a>
</g>
</g>
<!-- Node4&#45;&gt;Node1 -->
<g id="edge3_Node000001_Node000004" class="edge">
<title>Node4&#45;&gt;Node1</title>
<g id="a_edge3_Node000001_Node000004"><a xlink:title=" ">
<path fill="none" stroke="#9a32cd" stroke-dasharray="5,2" d="M207.53,-86.17C190.96,-66.66 165.29,-36.44 152.23,-21.06"/>
<polygon fill="#9a32cd" stroke="#9a32cd" points="204.72,-88.26 213.86,-93.62 210.06,-83.73 204.72,-88.26"/>
</a>
</g>
<text text-anchor="middle" x="211.28" y="-54.75" font-family="Helvetica,sans-Serif" font-size="10.00" fill="grey"> sink</text>
</g>
<!-- Node5 -->
<g id="Node000005" class="node">
<title>Node5</title>
<g id="a_Node000005"><a xlink:href="structnix_1_1BufferedSink.html" target="_top" xlink:title=" ">
<polygon fill="white" stroke="#666666" points="272.62,-173.5 173.38,-173.5 173.38,-152.75 272.62,-152.75 272.62,-173.5"/>
<text text-anchor="middle" x="223" y="-160" font-family="Helvetica,sans-Serif" font-size="10.00">nix::BufferedSink</text>
</a>
</g>
</g>
<!-- Node5&#45;&gt;Node4 -->
<g id="edge4_Node000004_Node000005" class="edge">
<title>Node5&#45;&gt;Node4</title>
<g id="a_edge4_Node000004_Node000005"><a xlink:title=" ">
<path fill="none" stroke="#63b8ff" d="M223,-141.18C223,-132.52 223,-122.9 223,-115.97"/>
<polygon fill="#63b8ff" stroke="#63b8ff" points="219.5,-140.9 223,-150.9 226.5,-140.9 219.5,-140.9"/>
</a>
</g>
</g>
<!-- Node6 -->
<g id="Node000006" class="node">
<title>Node6</title>
<g id="a_Node000006"><a xlink:href="structnix_1_1Sink.html" target="_top" xlink:title=" ">
<polygon fill="white" stroke="#666666" points="252,-231.25 194,-231.25 194,-210.5 252,-210.5 252,-231.25"/>
<text text-anchor="middle" x="223" y="-217.75" font-family="Helvetica,sans-Serif" font-size="10.00">nix::Sink</text>
</a>
</g>
</g>
<!-- Node6&#45;&gt;Node5 -->
<g id="edge5_Node000005_Node000006" class="edge">
<title>Node6&#45;&gt;Node5</title>
<g id="a_edge5_Node000005_Node000006"><a xlink:title=" ">
<path fill="none" stroke="#63b8ff" d="M223,-198.93C223,-190.27 223,-180.65 223,-173.72"/>
<polygon fill="#63b8ff" stroke="#63b8ff" points="219.5,-198.65 223,-208.65 226.5,-198.65 219.5,-198.65"/>
</a>
</g>
</g>
</g>
</svg>
