<?xml version="1.0" encoding="UTF-8" standalone="no"?>
<!DOCTYPE svg PUBLIC "-//W3C//DTD SVG 1.1//EN"
 "http://www.w3.org/Graphics/SVG/1.1/DTD/svg11.dtd">
<!-- Generated by graphviz version 12.2.1 (0)
 -->
<!-- Title: nix::TeeSink Pages: 1 -->
<svg width="83pt" height="111pt"
 viewBox="0.00 0.00 82.50 111.00" xmlns="http://www.w3.org/2000/svg" xmlns:xlink="http://www.w3.org/1999/xlink">
<g id="graph0" class="graph" transform="scale(1 1) rotate(0) translate(4 107)">
<title>nix::TeeSink</title>
<!-- Node1 -->
<g id="Node000001" class="node">
<title>Node1</title>
<g id="a_Node000001"><a xlink:title=" ">
<polygon fill="#999999" stroke="#666666" points="74.5,-20.75 0,-20.75 0,0 74.5,0 74.5,-20.75"/>
<text text-anchor="middle" x="37.25" y="-7.25" font-family="Helvetica,sans-Serif" font-size="10.00">nix::TeeSink</text>
</a>
</g>
</g>
<!-- Node2 -->
<g id="Node000002" class="node">
<title>Node2</title>
<g id="a_Node000002"><a xlink:href="structnix_1_1Sink.html" target="_top" xlink:title=" ">
<polygon fill="white" stroke="#666666" points="66.25,-103 8.25,-103 8.25,-82.25 66.25,-82.25 66.25,-103"/>
<text text-anchor="middle" x="37.25" y="-89.5" font-family="Helvetica,sans-Serif" font-size="10.00">nix::Sink</text>
</a>
</g>
</g>
<!-- Node2&#45;&gt;Node1 -->
<g id="edge1_Node000001_Node000002" class="edge">
<title>Node2&#45;&gt;Node1</title>
<g id="a_edge1_Node000001_Node000002"><a xlink:title=" ">
<path fill="none" stroke="#63b8ff" d="M35.55,-70.4C35.43,-68.32 35.32,-66.25 35.25,-64.25 34.84,-52.92 34.84,-50.08 35.25,-38.75 35.46,-32.94 35.93,-26.45 36.35,-21.25"/>
<polygon fill="#63b8ff" stroke="#63b8ff" points="32.05,-70.52 36.25,-80.24 39.03,-70.02 32.05,-70.52"/>
</a>
</g>
</g>
<!-- Node2&#45;&gt;Node1 -->
<g id="edge2_Node000001_Node000002" class="edge">
<title>Node2&#45;&gt;Node1</title>
<g id="a_edge2_Node000001_Node000002"><a xlink:title=" ">
<path fill="none" stroke="#9a32cd" stroke-dasharray="5,2" d="M37.25,-70.74C37.25,-54.59 37.25,-32.99 37.25,-20.8"/>
<polygon fill="#9a32cd" stroke="#9a32cd" points="33.75,-70.27 37.25,-80.27 40.75,-70.27 33.75,-70.27"/>
</a>
</g>
<text text-anchor="middle" x="51.88" y="-54.75" font-family="Helvetica,sans-Serif" font-size="10.00" fill="grey"> sink1</text>
<text text-anchor="middle" x="51.88" y="-42" font-family="Helvetica,sans-Serif" font-size="10.00" fill="grey">sink2</text>
</g>
</g>
</svg>
