<?xml version="1.0" encoding="UTF-8" standalone="no"?>
<!DOCTYPE svg PUBLIC "-//W3C//DTD SVG 1.1//EN"
 "http://www.w3.org/Graphics/SVG/1.1/DTD/svg11.dtd">
<!-- Generated by graphviz version 12.2.1 (0)
 -->
<!-- Title: nix::CmdRepl Pages: 1 -->
<svg width="588pt" height="457pt"
 viewBox="0.00 0.00 588.25 456.50" xmlns="http://www.w3.org/2000/svg" xmlns:xlink="http://www.w3.org/1999/xlink">
<g id="graph0" class="graph" transform="scale(1 1) rotate(0) translate(4 452.5)">
<title>nix::CmdRepl</title>
<!-- Node1 -->
<g id="Node000001" class="node">
<title>Node1</title>
<g id="a_Node000001"><a xlink:title=" ">
<polygon fill="#999999" stroke="#666666" points="122.88,-20.75 41.62,-20.75 41.62,0 122.88,0 122.88,-20.75"/>
<text text-anchor="middle" x="82.25" y="-7.25" font-family="Helvetica,sans-Serif" font-size="10.00">nix::CmdRepl</text>
</a>
</g>
</g>
<!-- Node2 -->
<g id="Node000002" class="node">
<title>Node2</title>
<g id="a_Node000002"><a xlink:href="structnix_1_1RawInstallablesCommand.html" target="_top" xlink:title=" ">
<polygon fill="white" stroke="#666666" points="164.5,-78.5 0,-78.5 0,-57.75 164.5,-57.75 164.5,-78.5"/>
<text text-anchor="middle" x="82.25" y="-65" font-family="Helvetica,sans-Serif" font-size="10.00">nix::RawInstallablesCommand</text>
</a>
</g>
</g>
<!-- Node2&#45;&gt;Node1 -->
<g id="edge1_Node000001_Node000002" class="edge">
<title>Node2&#45;&gt;Node1</title>
<g id="a_edge1_Node000001_Node000002"><a xlink:title=" ">
<path fill="none" stroke="#63b8ff" d="M82.25,-46.18C82.25,-37.52 82.25,-27.9 82.25,-20.97"/>
<polygon fill="#63b8ff" stroke="#63b8ff" points="78.75,-45.9 82.25,-55.9 85.75,-45.9 78.75,-45.9"/>
</a>
</g>
</g>
<!-- Node3 -->
<g id="Node000003" class="node">
<title>Node3</title>
<g id="a_Node000003"><a xlink:href="classnix_1_1Args.html" target="_top" xlink:title=" ">
<polygon fill="white" stroke="#bfbfbf" points="279.62,-448.5 220.88,-448.5 220.88,-427.75 279.62,-427.75 279.62,-448.5"/>
<text text-anchor="middle" x="250.25" y="-435" font-family="Helvetica,sans-Serif" font-size="10.00">nix::Args</text>
</a>
</g>
</g>
<!-- Node3&#45;&gt;Node2 -->
<g id="edge2_Node000002_Node000003" class="edge">
<title>Node3&#45;&gt;Node2</title>
<g id="a_edge2_Node000002_Node000003"><a xlink:title=" ">
<path fill="none" stroke="#63b8ff" d="M209.42,-432.75C156.31,-425.9 70.25,-410.33 70.25,-381.38 70.25,-381.38 70.25,-381.38 70.25,-124.88 70.25,-108.44 75.3,-89.88 78.84,-78.86"/>
<polygon fill="#63b8ff" stroke="#63b8ff" points="208.67,-436.18 219.02,-433.93 209.53,-429.23 208.67,-436.18"/>
</a>
</g>
</g>
<!-- Node5 -->
<g id="Node000005" class="node">
<title>Node5</title>
<g id="a_Node000005"><a xlink:href="structnix_1_1Command.html" target="_top" xlink:title=" ">
<polygon fill="white" stroke="#666666" points="474.88,-390.75 387.62,-390.75 387.62,-370 474.88,-370 474.88,-390.75"/>
<text text-anchor="middle" x="431.25" y="-377.25" font-family="Helvetica,sans-Serif" font-size="10.00">nix::Command</text>
</a>
</g>
</g>
<!-- Node3&#45;&gt;Node5 -->
<g id="edge5_Node000005_Node000003" class="edge">
<title>Node3&#45;&gt;Node5</title>
<g id="a_edge5_Node000005_Node000003"><a xlink:title=" ">
<path fill="none" stroke="#63b8ff" d="M290.33,-424.78C323.15,-414.67 368.97,-400.56 399.34,-391.2"/>
<polygon fill="#63b8ff" stroke="#63b8ff" points="289.71,-421.31 281.18,-427.6 291.77,-428 289.71,-421.31"/>
</a>
</g>
</g>
<!-- Node6 -->
<g id="Node000006" class="node">
<title>Node6</title>
<g id="a_Node000006"><a xlink:href="structnix_1_1SourceExprCommand.html" target="_top" xlink:title=" ">
<polygon fill="white" stroke="#bfbfbf" points="265.25,-136.25 123.25,-136.25 123.25,-115.5 265.25,-115.5 265.25,-136.25"/>
<text text-anchor="middle" x="194.25" y="-122.75" font-family="Helvetica,sans-Serif" font-size="10.00">nix::SourceExprCommand</text>
</a>
</g>
</g>
<!-- Node3&#45;&gt;Node6 -->
<g id="edge7_Node000006_Node000003" class="edge">
<title>Node3&#45;&gt;Node6</title>
<g id="a_edge7_Node000006_Node000003"><a xlink:title=" ">
<path fill="none" stroke="#63b8ff" d="M291.59,-434.4C380.17,-427.99 580.25,-410.33 580.25,-381.38 580.25,-381.38 580.25,-381.38 580.25,-182.62 580.25,-151.18 377.03,-136.02 265.5,-130.06"/>
<polygon fill="#63b8ff" stroke="#63b8ff" points="291.36,-430.9 281.63,-435.1 291.85,-437.89 291.36,-430.9"/>
</a>
</g>
</g>
<!-- Node7 -->
<g id="Node000007" class="node">
<title>Node7</title>
<g id="a_Node000007"><a xlink:href="structnix_1_1MixFlakeOptions.html" target="_top" xlink:title=" ">
<polygon fill="white" stroke="#666666" points="253.62,-194 134.88,-194 134.88,-173.25 253.62,-173.25 253.62,-194"/>
<text text-anchor="middle" x="194.25" y="-180.5" font-family="Helvetica,sans-Serif" font-size="10.00">nix::MixFlakeOptions</text>
</a>
</g>
</g>
<!-- Node3&#45;&gt;Node7 -->
<g id="edge9_Node000007_Node000003" class="edge">
<title>Node3&#45;&gt;Node7</title>
<g id="a_edge9_Node000007_Node000003"><a xlink:title=" ">
<path fill="none" stroke="#63b8ff" d="M209.17,-437.56C167.23,-435.6 108.25,-425.07 108.25,-381.38 108.25,-381.38 108.25,-381.38 108.25,-252.12 108.25,-222.9 139.37,-204.41 164.17,-194.31"/>
<polygon fill="#63b8ff" stroke="#63b8ff" points="208.87,-441.06 218.97,-437.87 209.08,-434.06 208.87,-441.06"/>
</a>
</g>
</g>
<!-- Node10 -->
<g id="Node000010" class="node">
<title>Node10</title>
<g id="a_Node000010"><a xlink:href="structnix_1_1MixEvalArgs.html" target="_top" xlink:title=" ">
<polygon fill="white" stroke="#bfbfbf" points="292.12,-321.25 194.38,-321.25 194.38,-300.5 292.12,-300.5 292.12,-321.25"/>
<text text-anchor="middle" x="243.25" y="-307.75" font-family="Helvetica,sans-Serif" font-size="10.00">nix::MixEvalArgs</text>
</a>
</g>
</g>
<!-- Node3&#45;&gt;Node10 -->
<g id="edge14_Node000010_Node000003" class="edge">
<title>Node3&#45;&gt;Node10</title>
<g id="a_edge14_Node000010_Node000003"><a xlink:title=" ">
<path fill="none" stroke="#63b8ff" d="M249.06,-415.89C247.53,-388.45 244.92,-341.83 243.8,-321.66"/>
<polygon fill="#63b8ff" stroke="#63b8ff" points="245.56,-416 249.62,-425.79 252.55,-415.61 245.56,-416"/>
</a>
</g>
</g>
<!-- Node11 -->
<g id="Node000011" class="node">
<title>Node11</title>
<g id="a_Node000011"><a xlink:href="structnix_1_1MixRepair.html" target="_top" xlink:title=" ">
<polygon fill="white" stroke="#bfbfbf" points="222.5,-390.75 136,-390.75 136,-370 222.5,-370 222.5,-390.75"/>
<text text-anchor="middle" x="179.25" y="-377.25" font-family="Helvetica,sans-Serif" font-size="10.00">nix::MixRepair</text>
</a>
</g>
</g>
<!-- Node3&#45;&gt;Node11 -->
<g id="edge16_Node000011_Node000003" class="edge">
<title>Node3&#45;&gt;Node11</title>
<g id="a_edge16_Node000011_Node000003"><a xlink:title=" ">
<path fill="none" stroke="#63b8ff" d="M229.15,-420.56C216.87,-410.92 201.82,-399.1 191.48,-390.97"/>
<polygon fill="#63b8ff" stroke="#63b8ff" points="226.67,-423.06 236.69,-426.48 230.99,-417.55 226.67,-423.06"/>
</a>
</g>
</g>
<!-- Node4 -->
<g id="Node000004" class="node">
<title>Node4</title>
<g id="a_Node000004"><a xlink:href="classnix_1_1MultiCommand.html" target="_top" xlink:title=" ">
<polygon fill="white" stroke="#666666" points="552.25,-321.25 440.25,-321.25 440.25,-300.5 552.25,-300.5 552.25,-321.25"/>
<text text-anchor="middle" x="496.25" y="-307.75" font-family="Helvetica,sans-Serif" font-size="10.00">nix::MultiCommand</text>
</a>
</g>
</g>
<!-- Node4&#45;&gt;Node3 -->
<g id="edge3_Node000003_Node000004" class="edge">
<title>Node4&#45;&gt;Node3</title>
<g id="a_edge3_Node000003_Node000004"><a xlink:title=" ">
<path fill="none" stroke="#9a32cd" stroke-dasharray="5,2" d="M499.14,-333.07C500.29,-350.82 498.73,-375.61 484.25,-390.75 456.49,-419.78 336.42,-431.45 279.89,-435.39"/>
<polygon fill="#9a32cd" stroke="#9a32cd" points="502.62,-332.73 498.12,-323.14 495.66,-333.44 502.62,-332.73"/>
</a>
</g>
<text text-anchor="middle" x="512.9" y="-377.25" font-family="Helvetica,sans-Serif" font-size="10.00" fill="grey"> parent</text>
</g>
<!-- Node5&#45;&gt;Node4 -->
<g id="edge4_Node000004_Node000005" class="edge">
<title>Node5&#45;&gt;Node4</title>
<g id="a_edge4_Node000004_Node000005"><a xlink:title=" ">
<path fill="none" stroke="#63b8ff" d="M448.37,-361.59C460.72,-348.77 476.92,-331.95 486.95,-321.53"/>
<polygon fill="#63b8ff" stroke="#63b8ff" points="446.03,-358.98 441.61,-368.61 451.07,-363.84 446.03,-358.98"/>
</a>
</g>
</g>
<!-- Node9 -->
<g id="Node000009" class="node">
<title>Node9</title>
<g id="a_Node000009"><a xlink:href="structnix_1_1StoreCommand.html" target="_top" xlink:title=" ">
<polygon fill="white" stroke="#666666" points="422.62,-321.25 309.88,-321.25 309.88,-300.5 422.62,-300.5 422.62,-321.25"/>
<text text-anchor="middle" x="366.25" y="-307.75" font-family="Helvetica,sans-Serif" font-size="10.00">nix::StoreCommand</text>
</a>
</g>
</g>
<!-- Node5&#45;&gt;Node9 -->
<g id="edge12_Node000009_Node000005" class="edge">
<title>Node5&#45;&gt;Node9</title>
<g id="a_edge12_Node000009_Node000005"><a xlink:title=" ">
<path fill="none" stroke="#63b8ff" d="M414.13,-361.59C401.78,-348.77 385.58,-331.95 375.55,-321.53"/>
<polygon fill="#63b8ff" stroke="#63b8ff" points="411.43,-363.84 420.89,-368.61 416.47,-358.98 411.43,-363.84"/>
</a>
</g>
</g>
<!-- Node6&#45;&gt;Node2 -->
<g id="edge6_Node000002_Node000006" class="edge">
<title>Node6&#45;&gt;Node2</title>
<g id="a_edge6_Node000002_Node000006"><a xlink:title=" ">
<path fill="none" stroke="#63b8ff" d="M164.42,-110.03C144.59,-100.16 119.11,-87.47 101.82,-78.87"/>
<polygon fill="#63b8ff" stroke="#63b8ff" points="162.62,-113.04 173.13,-114.36 165.74,-106.77 162.62,-113.04"/>
</a>
</g>
</g>
<!-- Node7&#45;&gt;Node6 -->
<g id="edge8_Node000006_Node000007" class="edge">
<title>Node7&#45;&gt;Node6</title>
<g id="a_edge8_Node000006_Node000007"><a xlink:title=" ">
<path fill="none" stroke="#63b8ff" d="M194.25,-161.68C194.25,-153.02 194.25,-143.4 194.25,-136.47"/>
<polygon fill="#63b8ff" stroke="#63b8ff" points="190.75,-161.4 194.25,-171.4 197.75,-161.4 190.75,-161.4"/>
</a>
</g>
</g>
<!-- Node8 -->
<g id="Node000008" class="node">
<title>Node8</title>
<g id="a_Node000008"><a xlink:href="structnix_1_1EvalCommand.html" target="_top" xlink:title=" ">
<polygon fill="white" stroke="#666666" points="378.38,-263.5 270.12,-263.5 270.12,-242.75 378.38,-242.75 378.38,-263.5"/>
<text text-anchor="middle" x="324.25" y="-250" font-family="Helvetica,sans-Serif" font-size="10.00">nix::EvalCommand</text>
</a>
</g>
</g>
<!-- Node8&#45;&gt;Node7 -->
<g id="edge10_Node000007_Node000008" class="edge">
<title>Node8&#45;&gt;Node7</title>
<g id="a_edge10_Node000007_Node000008"><a xlink:title=" ">
<path fill="none" stroke="#63b8ff" d="M295.7,-236.91C281.47,-229.36 263.98,-220.14 248.25,-212 236.86,-206.11 224.06,-199.61 213.79,-194.43"/>
<polygon fill="#63b8ff" stroke="#63b8ff" points="294.06,-240 304.53,-241.6 297.34,-233.82 294.06,-240"/>
</a>
</g>
</g>
<!-- Node9&#45;&gt;Node8 -->
<g id="edge11_Node000008_Node000009" class="edge">
<title>Node9&#45;&gt;Node8</title>
<g id="a_edge11_Node000008_Node000009"><a xlink:title=" ">
<path fill="none" stroke="#63b8ff" d="M352.03,-291C345.12,-281.83 337.12,-271.21 331.48,-263.72"/>
<polygon fill="#63b8ff" stroke="#63b8ff" points="349.21,-293.07 358.02,-298.96 354.8,-288.86 349.21,-293.07"/>
</a>
</g>
</g>
<!-- Node10&#45;&gt;Node8 -->
<g id="edge13_Node000008_Node000010" class="edge">
<title>Node10&#45;&gt;Node8</title>
<g id="a_edge13_Node000008_Node000010"><a xlink:title=" ">
<path fill="none" stroke="#63b8ff" d="M266.44,-293.92C280.5,-284.24 297.99,-272.2 310.03,-263.91"/>
<polygon fill="#63b8ff" stroke="#63b8ff" points="264.86,-290.75 258.61,-299.31 268.83,-296.52 264.86,-290.75"/>
</a>
</g>
</g>
<!-- Node11&#45;&gt;Node10 -->
<g id="edge15_Node000010_Node000011" class="edge">
<title>Node11&#45;&gt;Node10</title>
<g id="a_edge15_Node000010_Node000011"><a xlink:title=" ">
<path fill="none" stroke="#63b8ff" d="M196.11,-361.59C208.27,-348.77 224.22,-331.95 234.1,-321.53"/>
<polygon fill="#63b8ff" stroke="#63b8ff" points="193.8,-358.94 189.46,-368.61 198.88,-363.76 193.8,-358.94"/>
</a>
</g>
</g>
<!-- Node12 -->
<g id="Node000012" class="node">
<title>Node12</title>
<g id="a_Node000012"><a xlink:href="structnix_1_1SearchPath.html" target="_top" xlink:title=" ">
<polygon fill="white" stroke="#666666" points="369.75,-390.75 278.75,-390.75 278.75,-370 369.75,-370 369.75,-390.75"/>
<text text-anchor="middle" x="324.25" y="-377.25" font-family="Helvetica,sans-Serif" font-size="10.00">nix::SearchPath</text>
</a>
</g>
</g>
<!-- Node12&#45;&gt;Node10 -->
<g id="edge17_Node000010_Node000012" class="edge">
<title>Node12&#45;&gt;Node10</title>
<g id="a_edge17_Node000010_Node000012"><a xlink:title=" ">
<path fill="none" stroke="#9a32cd" stroke-dasharray="5,2" d="M303.85,-362.37C288.46,-349.55 267.88,-332.4 255.1,-321.75"/>
<polygon fill="#9a32cd" stroke="#9a32cd" points="301.56,-365.02 311.48,-368.73 306.04,-359.64 301.56,-365.02"/>
</a>
</g>
<text text-anchor="middle" x="319.13" y="-342.5" font-family="Helvetica,sans-Serif" font-size="10.00" fill="grey"> searchPath</text>
</g>
<!-- Node13 -->
<g id="Node000013" class="node">
<title>Node13</title>
<g id="a_Node000013"><a xlink:href="structnix_1_1flake_1_1LockFlags.html" target="_top" xlink:title=" ">
<polygon fill="white" stroke="#bfbfbf" points="251.75,-263.5 136.75,-263.5 136.75,-242.75 251.75,-242.75 251.75,-263.5"/>
<text text-anchor="middle" x="194.25" y="-250" font-family="Helvetica,sans-Serif" font-size="10.00">nix::flake::LockFlags</text>
</a>
</g>
</g>
<!-- Node13&#45;&gt;Node7 -->
<g id="edge18_Node000007_Node000013" class="edge">
<title>Node13&#45;&gt;Node7</title>
<g id="a_edge18_Node000007_Node000013"><a xlink:title=" ">
<path fill="none" stroke="#9a32cd" stroke-dasharray="5,2" d="M194.25,-231.32C194.25,-218.97 194.25,-203.9 194.25,-194.28"/>
<polygon fill="#9a32cd" stroke="#9a32cd" points="190.75,-230.94 194.25,-240.94 197.75,-230.94 190.75,-230.94"/>
</a>
</g>
<text text-anchor="middle" x="219" y="-215.25" font-family="Helvetica,sans-Serif" font-size="10.00" fill="grey"> lockFlags</text>
</g>
</g>
</svg>
