<?xml version="1.0" encoding="UTF-8" standalone="no"?>
<!DOCTYPE svg PUBLIC "-//W3C//DTD SVG 1.1//EN"
 "http://www.w3.org/Graphics/SVG/1.1/DTD/svg11.dtd">
<!-- Generated by graphviz version 12.2.1 (0)
 -->
<!-- Title: nix::CmdDevelop Pages: 1 -->
<svg width="646pt" height="530pt"
 viewBox="0.00 0.00 645.62 530.25" xmlns="http://www.w3.org/2000/svg" xmlns:xlink="http://www.w3.org/1999/xlink">
<g id="graph0" class="graph" transform="scale(1 1) rotate(0) translate(4 526.25)">
<title>nix::CmdDevelop</title>
<!-- Node1 -->
<g id="Node000001" class="node">
<title>Node1</title>
<g id="a_Node000001"><a xlink:title=" ">
<polygon fill="#999999" stroke="#666666" points="541,-20.75 441,-20.75 441,0 541,0 541,-20.75"/>
<text text-anchor="middle" x="491" y="-7.25" font-family="Helvetica,sans-Serif" font-size="10.00">nix::CmdDevelop</text>
</a>
</g>
</g>
<!-- Node2 -->
<g id="Node000002" class="node">
<title>Node2</title>
<g id="a_Node000002"><a xlink:href="structnix_1_1Common.html" target="_top" xlink:title=" ">
<polygon fill="white" stroke="#bfbfbf" points="376.62,-78.5 295.38,-78.5 295.38,-57.75 376.62,-57.75 376.62,-78.5"/>
<text text-anchor="middle" x="336" y="-65" font-family="Helvetica,sans-Serif" font-size="10.00">nix::Common</text>
</a>
</g>
</g>
<!-- Node2&#45;&gt;Node1 -->
<g id="edge1_Node000001_Node000002" class="edge">
<title>Node2&#45;&gt;Node1</title>
<g id="a_edge1_Node000001_Node000002"><a xlink:title=" ">
<path fill="none" stroke="#63b8ff" d="M373.88,-53.5C401.66,-43.51 438.73,-30.18 463.66,-21.21"/>
<polygon fill="#63b8ff" stroke="#63b8ff" points="373,-50.1 364.78,-56.77 375.37,-56.68 373,-50.1"/>
</a>
</g>
</g>
<!-- Node3 -->
<g id="Node000003" class="node">
<title>Node3</title>
<g id="a_Node000003"><a xlink:href="structnix_1_1InstallableCommand.html" target="_top" xlink:title=" ">
<polygon fill="white" stroke="#666666" points="292.12,-136.25 153.88,-136.25 153.88,-115.5 292.12,-115.5 292.12,-136.25"/>
<text text-anchor="middle" x="223" y="-122.75" font-family="Helvetica,sans-Serif" font-size="10.00">nix::InstallableCommand</text>
</a>
</g>
</g>
<!-- Node3&#45;&gt;Node2 -->
<g id="edge2_Node000002_Node000003" class="edge">
<title>Node3&#45;&gt;Node2</title>
<g id="a_edge2_Node000002_Node000003"><a xlink:title=" ">
<path fill="none" stroke="#63b8ff" d="M253.1,-110.03C273.1,-100.16 298.81,-87.47 316.26,-78.87"/>
<polygon fill="#63b8ff" stroke="#63b8ff" points="251.72,-106.8 244.3,-114.37 254.82,-113.08 251.72,-106.8"/>
</a>
</g>
</g>
<!-- Node4 -->
<g id="Node000004" class="node">
<title>Node4</title>
<g id="a_Node000004"><a xlink:href="classnix_1_1Args.html" target="_top" xlink:title=" ">
<polygon fill="white" stroke="#bfbfbf" points="318.38,-522.25 259.62,-522.25 259.62,-501.5 318.38,-501.5 318.38,-522.25"/>
<text text-anchor="middle" x="289" y="-508.75" font-family="Helvetica,sans-Serif" font-size="10.00">nix::Args</text>
</a>
</g>
</g>
<!-- Node4&#45;&gt;Node3 -->
<g id="edge3_Node000003_Node000004" class="edge">
<title>Node4&#45;&gt;Node3</title>
<g id="a_edge3_Node000003_Node000004"><a xlink:title=" ">
<path fill="none" stroke="#63b8ff" d="M248.07,-511.37C168.35,-511.24 0,-505.05 0,-455.12 0,-455.12 0,-455.12 0,-182.62 0,-150.5 88.2,-136.73 153.66,-130.94"/>
<polygon fill="#63b8ff" stroke="#63b8ff" points="247.65,-514.88 257.65,-511.36 247.64,-507.88 247.65,-514.88"/>
</a>
</g>
</g>
<!-- Node6 -->
<g id="Node000006" class="node">
<title>Node6</title>
<g id="a_Node000006"><a xlink:href="structnix_1_1Command.html" target="_top" xlink:title=" ">
<polygon fill="white" stroke="#666666" points="405.62,-464.5 318.38,-464.5 318.38,-443.75 405.62,-443.75 405.62,-464.5"/>
<text text-anchor="middle" x="362" y="-451" font-family="Helvetica,sans-Serif" font-size="10.00">nix::Command</text>
</a>
</g>
</g>
<!-- Node4&#45;&gt;Node6 -->
<g id="edge6_Node000006_Node000004" class="edge">
<title>Node4&#45;&gt;Node6</title>
<g id="a_edge6_Node000006_Node000004"><a xlink:title=" ">
<path fill="none" stroke="#63b8ff" d="M310.69,-494.31C323.32,-484.67 338.8,-472.85 349.43,-464.72"/>
<polygon fill="#63b8ff" stroke="#63b8ff" points="308.74,-491.39 302.92,-500.25 312.99,-496.96 308.74,-491.39"/>
</a>
</g>
</g>
<!-- Node7 -->
<g id="Node000007" class="node">
<title>Node7</title>
<g id="a_Node000007"><a xlink:href="structnix_1_1SourceExprCommand.html" target="_top" xlink:title=" ">
<polygon fill="white" stroke="#bfbfbf" points="294,-194 152,-194 152,-173.25 294,-173.25 294,-194"/>
<text text-anchor="middle" x="223" y="-180.5" font-family="Helvetica,sans-Serif" font-size="10.00">nix::SourceExprCommand</text>
</a>
</g>
</g>
<!-- Node4&#45;&gt;Node7 -->
<g id="edge8_Node000007_Node000004" class="edge">
<title>Node4&#45;&gt;Node7</title>
<g id="a_edge8_Node000007_Node000004"><a xlink:title=" ">
<path fill="none" stroke="#63b8ff" d="M330.03,-508.63C392.68,-504.05 505,-490.87 505,-455.12 505,-455.12 505,-455.12 505,-240.38 505,-197.46 377.7,-187.04 294.16,-184.83"/>
<polygon fill="#63b8ff" stroke="#63b8ff" points="329.83,-505.13 320.09,-509.3 330.31,-512.12 329.83,-505.13"/>
</a>
</g>
</g>
<!-- Node8 -->
<g id="Node000008" class="node">
<title>Node8</title>
<g id="a_Node000008"><a xlink:href="structnix_1_1MixFlakeOptions.html" target="_top" xlink:title=" ">
<polygon fill="white" stroke="#666666" points="198.38,-251.75 79.62,-251.75 79.62,-231 198.38,-231 198.38,-251.75"/>
<text text-anchor="middle" x="139" y="-238.25" font-family="Helvetica,sans-Serif" font-size="10.00">nix::MixFlakeOptions</text>
</a>
</g>
</g>
<!-- Node4&#45;&gt;Node8 -->
<g id="edge10_Node000008_Node000004" class="edge">
<title>Node4&#45;&gt;Node8</title>
<g id="a_edge10_Node000008_Node000004"><a xlink:title=" ">
<path fill="none" stroke="#63b8ff" d="M248,-510.14C176.84,-507.74 38,-497.62 38,-455.12 38,-455.12 38,-455.12 38,-317.88 38,-283.61 75.75,-263.03 105.09,-252.2"/>
<polygon fill="#63b8ff" stroke="#63b8ff" points="247.61,-513.63 257.71,-510.43 247.82,-506.63 247.61,-513.63"/>
</a>
</g>
</g>
<!-- Node11 -->
<g id="Node000011" class="node">
<title>Node11</title>
<g id="a_Node000011"><a xlink:href="structnix_1_1MixEvalArgs.html" target="_top" xlink:title=" ">
<polygon fill="white" stroke="#bfbfbf" points="216.88,-387 119.12,-387 119.12,-366.25 216.88,-366.25 216.88,-387"/>
<text text-anchor="middle" x="168" y="-373.5" font-family="Helvetica,sans-Serif" font-size="10.00">nix::MixEvalArgs</text>
</a>
</g>
</g>
<!-- Node4&#45;&gt;Node11 -->
<g id="edge15_Node000011_Node000004" class="edge">
<title>Node4&#45;&gt;Node11</title>
<g id="a_edge15_Node000011_Node000004"><a xlink:title=" ">
<path fill="none" stroke="#63b8ff" d="M251.2,-496.58C235.27,-489.03 217.55,-478.39 205,-464.5 184.12,-441.38 173.85,-404.73 169.95,-387.36"/>
<polygon fill="#63b8ff" stroke="#63b8ff" points="249.4,-499.61 259.96,-500.49 252.25,-493.22 249.4,-499.61"/>
</a>
</g>
</g>
<!-- Node12 -->
<g id="Node000012" class="node">
<title>Node12</title>
<g id="a_Node000012"><a xlink:href="structnix_1_1MixRepair.html" target="_top" xlink:title=" ">
<polygon fill="white" stroke="#bfbfbf" points="300.25,-464.5 213.75,-464.5 213.75,-443.75 300.25,-443.75 300.25,-464.5"/>
<text text-anchor="middle" x="257" y="-451" font-family="Helvetica,sans-Serif" font-size="10.00">nix::MixRepair</text>
</a>
</g>
</g>
<!-- Node4&#45;&gt;Node12 -->
<g id="edge17_Node000012_Node000004" class="edge">
<title>Node4&#45;&gt;Node12</title>
<g id="a_edge17_Node000012_Node000004"><a xlink:title=" ">
<path fill="none" stroke="#63b8ff" d="M277.83,-491.42C272.65,-482.38 266.71,-472.05 262.51,-464.72"/>
<polygon fill="#63b8ff" stroke="#63b8ff" points="274.66,-492.92 282.67,-499.85 280.73,-489.44 274.66,-492.92"/>
</a>
</g>
</g>
<!-- Node16 -->
<g id="Node000016" class="node">
<title>Node16</title>
<g id="a_Node000016"><a xlink:href="structnix_1_1MixEnvironment.html" target="_top" xlink:title=" ">
<polygon fill="white" stroke="#bfbfbf" points="637.62,-425.75 520.38,-425.75 520.38,-405 637.62,-405 637.62,-425.75"/>
<text text-anchor="middle" x="579" y="-412.25" font-family="Helvetica,sans-Serif" font-size="10.00">nix::MixEnvironment</text>
</a>
</g>
</g>
<!-- Node4&#45;&gt;Node16 -->
<g id="edge23_Node000016_Node000004" class="edge">
<title>Node4&#45;&gt;Node16</title>
<g id="a_edge23_Node000016_Node000004"><a xlink:title=" ">
<path fill="none" stroke="#63b8ff" d="M330,-509.46C387.07,-506.9 487.03,-500.14 519,-483.5 544.51,-470.22 564.35,-441.35 573.49,-426.17"/>
<polygon fill="#63b8ff" stroke="#63b8ff" points="329.87,-505.96 320.03,-509.88 330.17,-512.95 329.87,-505.96"/>
</a>
</g>
</g>
<!-- Node5 -->
<g id="Node000005" class="node">
<title>Node5</title>
<g id="a_Node000005"><a xlink:href="classnix_1_1MultiCommand.html" target="_top" xlink:title=" ">
<polygon fill="white" stroke="#666666" points="477,-387 365,-387 365,-366.25 477,-366.25 477,-387"/>
<text text-anchor="middle" x="421" y="-373.5" font-family="Helvetica,sans-Serif" font-size="10.00">nix::MultiCommand</text>
</a>
</g>
</g>
<!-- Node5&#45;&gt;Node4 -->
<g id="edge4_Node000004_Node000005" class="edge">
<title>Node5&#45;&gt;Node4</title>
<g id="a_edge4_Node000004_Node000005"><a xlink:title=" ">
<path fill="none" stroke="#9a32cd" stroke-dasharray="5,2" d="M425.45,-398.45C428.29,-417.55 429.14,-445.65 415,-464.5 392.48,-494.52 348.45,-505.12 318.87,-508.86"/>
<polygon fill="#9a32cd" stroke="#9a32cd" points="428.95,-398.09 423.72,-388.88 422.06,-399.34 428.95,-398.09"/>
</a>
</g>
<text text-anchor="middle" x="441.47" y="-451" font-family="Helvetica,sans-Serif" font-size="10.00" fill="grey"> parent</text>
</g>
<!-- Node6&#45;&gt;Node5 -->
<g id="edge5_Node000005_Node000006" class="edge">
<title>Node6&#45;&gt;Node5</title>
<g id="a_edge5_Node000005_Node000006"><a xlink:title=" ">
<path fill="none" stroke="#63b8ff" d="M376.67,-434.35C388.36,-419.4 404.23,-399.08 413.47,-387.26"/>
<polygon fill="#63b8ff" stroke="#63b8ff" points="374.04,-432.03 370.65,-442.06 379.56,-436.34 374.04,-432.03"/>
</a>
</g>
</g>
<!-- Node10 -->
<g id="Node000010" class="node">
<title>Node10</title>
<g id="a_Node000010"><a xlink:href="structnix_1_1StoreCommand.html" target="_top" xlink:title=" ">
<polygon fill="white" stroke="#666666" points="347.38,-387 234.62,-387 234.62,-366.25 347.38,-366.25 347.38,-387"/>
<text text-anchor="middle" x="291" y="-373.5" font-family="Helvetica,sans-Serif" font-size="10.00">nix::StoreCommand</text>
</a>
</g>
</g>
<!-- Node6&#45;&gt;Node10 -->
<g id="edge13_Node000010_Node000006" class="edge">
<title>Node6&#45;&gt;Node10</title>
<g id="a_edge13_Node000010_Node000006"><a xlink:title=" ">
<path fill="none" stroke="#63b8ff" d="M345.14,-435.2C331.01,-420.17 311.39,-399.31 300.06,-387.26"/>
<polygon fill="#63b8ff" stroke="#63b8ff" points="342.28,-437.26 351.68,-442.15 347.38,-432.47 342.28,-437.26"/>
</a>
</g>
</g>
<!-- Node7&#45;&gt;Node3 -->
<g id="edge7_Node000003_Node000007" class="edge">
<title>Node7&#45;&gt;Node3</title>
<g id="a_edge7_Node000003_Node000007"><a xlink:title=" ">
<path fill="none" stroke="#63b8ff" d="M223,-161.68C223,-153.02 223,-143.4 223,-136.47"/>
<polygon fill="#63b8ff" stroke="#63b8ff" points="219.5,-161.4 223,-171.4 226.5,-161.4 219.5,-161.4"/>
</a>
</g>
</g>
<!-- Node8&#45;&gt;Node7 -->
<g id="edge9_Node000007_Node000008" class="edge">
<title>Node8&#45;&gt;Node7</title>
<g id="a_edge9_Node000007_Node000008"><a xlink:title=" ">
<path fill="none" stroke="#63b8ff" d="M163.05,-224.42C177.63,-214.74 195.77,-202.7 208.25,-194.41"/>
<polygon fill="#63b8ff" stroke="#63b8ff" points="161.29,-221.38 154.89,-229.83 165.16,-227.21 161.29,-221.38"/>
</a>
</g>
</g>
<!-- Node9 -->
<g id="Node000009" class="node">
<title>Node9</title>
<g id="a_Node000009"><a xlink:href="structnix_1_1EvalCommand.html" target="_top" xlink:title=" ">
<polygon fill="white" stroke="#666666" points="308.12,-329.25 199.88,-329.25 199.88,-308.5 308.12,-308.5 308.12,-329.25"/>
<text text-anchor="middle" x="254" y="-315.75" font-family="Helvetica,sans-Serif" font-size="10.00">nix::EvalCommand</text>
</a>
</g>
</g>
<!-- Node9&#45;&gt;Node8 -->
<g id="edge11_Node000008_Node000009" class="edge">
<title>Node9&#45;&gt;Node8</title>
<g id="a_edge11_Node000008_Node000009"><a xlink:title=" ">
<path fill="none" stroke="#63b8ff" d="M232.4,-301.48C219.46,-291.89 202.56,-279.74 187,-269.75 177.31,-263.53 166.16,-257.13 157.04,-252.08"/>
<polygon fill="#63b8ff" stroke="#63b8ff" points="230.12,-304.15 240.22,-307.34 234.31,-298.54 230.12,-304.15"/>
</a>
</g>
</g>
<!-- Node10&#45;&gt;Node9 -->
<g id="edge12_Node000009_Node000010" class="edge">
<title>Node10&#45;&gt;Node9</title>
<g id="a_edge12_Node000009_Node000010"><a xlink:title=" ">
<path fill="none" stroke="#63b8ff" d="M278.28,-356.46C272.24,-347.36 265.28,-336.88 260.37,-329.47"/>
<polygon fill="#63b8ff" stroke="#63b8ff" points="275.27,-358.26 283.72,-364.65 281.1,-354.39 275.27,-358.26"/>
</a>
</g>
</g>
<!-- Node15 -->
<g id="Node000015" class="node">
<title>Node15</title>
<g id="a_Node000015"><a xlink:href="structnix_1_1MixProfile.html" target="_top" xlink:title=" ">
<polygon fill="white" stroke="#bfbfbf" points="378.88,-290.5 293.12,-290.5 293.12,-269.75 378.88,-269.75 378.88,-290.5"/>
<text text-anchor="middle" x="336" y="-277" font-family="Helvetica,sans-Serif" font-size="10.00">nix::MixProfile</text>
</a>
</g>
</g>
<!-- Node10&#45;&gt;Node15 -->
<g id="edge21_Node000015_Node000010" class="edge">
<title>Node10&#45;&gt;Node15</title>
<g id="a_edge21_Node000015_Node000010"><a xlink:title=" ">
<path fill="none" stroke="#63b8ff" d="M302.67,-356.18C307.38,-348 312.7,-338.29 317,-329.25 323.17,-316.27 329.05,-300.71 332.59,-290.88"/>
<polygon fill="#63b8ff" stroke="#63b8ff" points="299.79,-354.18 297.74,-364.57 305.82,-357.72 299.79,-354.18"/>
</a>
</g>
</g>
<!-- Node11&#45;&gt;Node9 -->
<g id="edge14_Node000009_Node000011" class="edge">
<title>Node11&#45;&gt;Node9</title>
<g id="a_edge14_Node000009_Node000011"><a xlink:title=" ">
<path fill="none" stroke="#63b8ff" d="M192.62,-359.67C207.55,-349.99 226.12,-337.95 238.9,-329.66"/>
<polygon fill="#63b8ff" stroke="#63b8ff" points="190.74,-356.71 184.25,-365.09 194.55,-362.59 190.74,-356.71"/>
</a>
</g>
</g>
<!-- Node12&#45;&gt;Node11 -->
<g id="edge16_Node000011_Node000012" class="edge">
<title>Node12&#45;&gt;Node11</title>
<g id="a_edge16_Node000011_Node000012"><a xlink:title=" ">
<path fill="none" stroke="#63b8ff" d="M236.9,-436.08C219.24,-421.1 194.16,-399.82 179.64,-387.5"/>
<polygon fill="#63b8ff" stroke="#63b8ff" points="234.32,-438.48 244.21,-442.28 238.85,-433.14 234.32,-438.48"/>
</a>
</g>
</g>
<!-- Node13 -->
<g id="Node000013" class="node">
<title>Node13</title>
<g id="a_Node000013"><a xlink:href="structnix_1_1SearchPath.html" target="_top" xlink:title=" ">
<polygon fill="white" stroke="#666666" points="157.5,-464.5 66.5,-464.5 66.5,-443.75 157.5,-443.75 157.5,-464.5"/>
<text text-anchor="middle" x="112" y="-451" font-family="Helvetica,sans-Serif" font-size="10.00">nix::SearchPath</text>
</a>
</g>
</g>
<!-- Node13&#45;&gt;Node11 -->
<g id="edge18_Node000011_Node000013" class="edge">
<title>Node13&#45;&gt;Node11</title>
<g id="a_edge18_Node000011_Node000013"><a xlink:title=" ">
<path fill="none" stroke="#9a32cd" stroke-dasharray="5,2" d="M109.32,-432.19C109.2,-423.16 110.55,-412.89 115.75,-405 120.88,-397.22 128.97,-391.51 137.26,-387.39"/>
<polygon fill="#9a32cd" stroke="#9a32cd" points="105.81,-432.18 110.06,-441.88 112.79,-431.65 105.81,-432.18"/>
</a>
</g>
<text text-anchor="middle" x="143.88" y="-412.25" font-family="Helvetica,sans-Serif" font-size="10.00" fill="grey"> searchPath</text>
</g>
<!-- Node14 -->
<g id="Node000014" class="node">
<title>Node14</title>
<g id="a_Node000014"><a xlink:href="structnix_1_1flake_1_1LockFlags.html" target="_top" xlink:title=" ">
<polygon fill="white" stroke="#bfbfbf" points="181.5,-329.25 66.5,-329.25 66.5,-308.5 181.5,-308.5 181.5,-329.25"/>
<text text-anchor="middle" x="124" y="-315.75" font-family="Helvetica,sans-Serif" font-size="10.00">nix::flake::LockFlags</text>
</a>
</g>
</g>
<!-- Node14&#45;&gt;Node8 -->
<g id="edge19_Node000008_Node000014" class="edge">
<title>Node14&#45;&gt;Node8</title>
<g id="a_edge19_Node000008_Node000014"><a xlink:title=" ">
<path fill="none" stroke="#9a32cd" stroke-dasharray="5,2" d="M128.16,-296.93C131.08,-282.23 134.85,-263.27 137.09,-252.01"/>
<polygon fill="#9a32cd" stroke="#9a32cd" points="124.77,-296.03 126.26,-306.52 131.64,-297.39 124.77,-296.03"/>
</a>
</g>
<text text-anchor="middle" x="158.03" y="-277" font-family="Helvetica,sans-Serif" font-size="10.00" fill="grey"> lockFlags</text>
</g>
<!-- Node15&#45;&gt;Node2 -->
<g id="edge20_Node000002_Node000015" class="edge">
<title>Node15&#45;&gt;Node2</title>
<g id="a_edge20_Node000002_Node000015"><a xlink:title=" ">
<path fill="none" stroke="#63b8ff" d="M336,-257.83C336,-244.87 336,-227.98 336,-213 336,-213 336,-213 336,-124.88 336,-108.81 336,-90.14 336,-78.99"/>
<polygon fill="#63b8ff" stroke="#63b8ff" points="332.5,-257.75 336,-267.75 339.5,-257.75 332.5,-257.75"/>
</a>
</g>
</g>
<!-- Node16&#45;&gt;Node1 -->
<g id="edge22_Node000001_Node000016" class="edge">
<title>Node16&#45;&gt;Node1</title>
<g id="a_edge22_Node000001_Node000016"><a xlink:title=" ">
<path fill="none" stroke="#63b8ff" d="M570.55,-394.27C565.87,-381.36 561,-364.1 561,-348.25 561,-348.25 561,-348.25 561,-67.12 561,-44.75 538.85,-29.91 519.47,-21.2"/>
<polygon fill="#63b8ff" stroke="#63b8ff" points="567.19,-395.29 574.09,-403.33 573.71,-392.74 567.19,-395.29"/>
</a>
</g>
</g>
</g>
</svg>
