<?xml version="1.0" encoding="UTF-8" standalone="no"?>
<!DOCTYPE svg PUBLIC "-//W3C//DTD SVG 1.1//EN"
 "http://www.w3.org/Graphics/SVG/1.1/DTD/svg11.dtd">
<!-- Generated by graphviz version 12.2.1 (0)
 -->
<!-- Title: nix::CmdDiffClosures Pages: 1 -->
<svg width="635pt" height="451pt"
 viewBox="0.00 0.00 634.50 451.00" xmlns="http://www.w3.org/2000/svg" xmlns:xlink="http://www.w3.org/1999/xlink">
<g id="graph0" class="graph" transform="scale(1 1) rotate(0) translate(4 447)">
<title>nix::CmdDiffClosures</title>
<!-- Node1 -->
<g id="Node000001" class="node">
<title>Node1</title>
<g id="a_Node000001"><a xlink:title=" ">
<polygon fill="#999999" stroke="#666666" points="544.38,-20.75 425.62,-20.75 425.62,0 544.38,0 544.38,-20.75"/>
<text text-anchor="middle" x="485" y="-7.25" font-family="Helvetica,sans-Serif" font-size="10.00">nix::CmdDiffClosures</text>
</a>
</g>
</g>
<!-- Node2 -->
<g id="Node000002" class="node">
<title>Node2</title>
<g id="a_Node000002"><a xlink:href="structnix_1_1SourceExprCommand.html" target="_top" xlink:title=" ">
<polygon fill="white" stroke="#bfbfbf" points="195,-103 53,-103 53,-82.25 195,-82.25 195,-103"/>
<text text-anchor="middle" x="124" y="-89.5" font-family="Helvetica,sans-Serif" font-size="10.00">nix::SourceExprCommand</text>
</a>
</g>
</g>
<!-- Node2&#45;&gt;Node1 -->
<g id="edge1_Node000001_Node000002" class="edge">
<title>Node2&#45;&gt;Node1</title>
<g id="a_edge1_Node000001_Node000002"><a xlink:title=" ">
<path fill="none" stroke="#63b8ff" d="M179.32,-79.33C251.05,-63.38 374.75,-35.88 440.66,-21.23"/>
<polygon fill="#63b8ff" stroke="#63b8ff" points="178.75,-75.87 169.74,-81.46 180.26,-82.7 178.75,-75.87"/>
</a>
</g>
</g>
<!-- Node3 -->
<g id="Node000003" class="node">
<title>Node3</title>
<g id="a_Node000003"><a xlink:href="classnix_1_1Args.html" target="_top" xlink:title=" ">
<polygon fill="white" stroke="#bfbfbf" points="317.38,-443 258.62,-443 258.62,-422.25 317.38,-422.25 317.38,-443"/>
<text text-anchor="middle" x="288" y="-429.5" font-family="Helvetica,sans-Serif" font-size="10.00">nix::Args</text>
</a>
</g>
</g>
<!-- Node3&#45;&gt;Node2 -->
<g id="edge2_Node000002_Node000003" class="edge">
<title>Node3&#45;&gt;Node2</title>
<g id="a_edge2_Node000002_Node000003"><a xlink:title=" ">
<path fill="none" stroke="#63b8ff" d="M247.21,-432.1C167.77,-431.91 0,-425.63 0,-375.88 0,-375.88 0,-375.88 0,-149.38 0,-122.23 25.02,-108.22 52.59,-101.03"/>
<polygon fill="#63b8ff" stroke="#63b8ff" points="246.75,-435.6 256.75,-432.09 246.75,-428.6 246.75,-435.6"/>
</a>
</g>
</g>
<!-- Node5 -->
<g id="Node000005" class="node">
<title>Node5</title>
<g id="a_Node000005"><a xlink:href="structnix_1_1Command.html" target="_top" xlink:title=" ">
<polygon fill="white" stroke="#666666" points="165.62,-385.25 78.38,-385.25 78.38,-364.5 165.62,-364.5 165.62,-385.25"/>
<text text-anchor="middle" x="122" y="-371.75" font-family="Helvetica,sans-Serif" font-size="10.00">nix::Command</text>
</a>
</g>
</g>
<!-- Node3&#45;&gt;Node5 -->
<g id="edge5_Node000005_Node000003" class="edge">
<title>Node3&#45;&gt;Node5</title>
<g id="a_edge5_Node000005_Node000003"><a xlink:title=" ">
<path fill="none" stroke="#63b8ff" d="M247.44,-421.89C229.11,-417.14 207.28,-411 188,-404.25 172.58,-398.85 155.66,-391.55 142.81,-385.7"/>
<polygon fill="#63b8ff" stroke="#63b8ff" points="246.33,-425.22 256.89,-424.29 248.06,-418.43 246.33,-425.22"/>
</a>
</g>
</g>
<!-- Node6 -->
<g id="Node000006" class="node">
<title>Node6</title>
<g id="a_Node000006"><a xlink:href="structnix_1_1MixFlakeOptions.html" target="_top" xlink:title=" ">
<polygon fill="white" stroke="#666666" points="183.38,-160.75 64.62,-160.75 64.62,-140 183.38,-140 183.38,-160.75"/>
<text text-anchor="middle" x="124" y="-147.25" font-family="Helvetica,sans-Serif" font-size="10.00">nix::MixFlakeOptions</text>
</a>
</g>
</g>
<!-- Node3&#45;&gt;Node6 -->
<g id="edge7_Node000006_Node000003" class="edge">
<title>Node3&#45;&gt;Node6</title>
<g id="a_edge7_Node000006_Node000003"><a xlink:title=" ">
<path fill="none" stroke="#63b8ff" d="M247.17,-430.86C176.29,-428.41 38,-418.21 38,-375.88 38,-375.88 38,-375.88 38,-218.88 38,-189.65 69.12,-171.16 93.92,-161.06"/>
<polygon fill="#63b8ff" stroke="#63b8ff" points="246.73,-434.35 256.83,-431.15 246.94,-427.35 246.73,-434.35"/>
</a>
</g>
</g>
<!-- Node9 -->
<g id="Node000009" class="node">
<title>Node9</title>
<g id="a_Node000009"><a xlink:href="structnix_1_1MixEvalArgs.html" target="_top" xlink:title=" ">
<polygon fill="white" stroke="#bfbfbf" points="423.88,-307.75 326.12,-307.75 326.12,-287 423.88,-287 423.88,-307.75"/>
<text text-anchor="middle" x="375" y="-294.25" font-family="Helvetica,sans-Serif" font-size="10.00">nix::MixEvalArgs</text>
</a>
</g>
</g>
<!-- Node3&#45;&gt;Node9 -->
<g id="edge12_Node000009_Node000003" class="edge">
<title>Node3&#45;&gt;Node9</title>
<g id="a_edge12_Node000009_Node000003"><a xlink:title=" ">
<path fill="none" stroke="#63b8ff" d="M319.03,-416.27C331.62,-408.57 345.23,-398.13 354,-385.25 370.5,-361.01 374.09,-325.21 374.83,-308.13"/>
<polygon fill="#63b8ff" stroke="#63b8ff" points="317.53,-413.09 310.58,-421.09 321,-419.17 317.53,-413.09"/>
</a>
</g>
</g>
<!-- Node10 -->
<g id="Node000010" class="node">
<title>Node10</title>
<g id="a_Node000010"><a xlink:href="structnix_1_1MixRepair.html" target="_top" xlink:title=" ">
<polygon fill="white" stroke="#bfbfbf" points="488.25,-385.25 401.75,-385.25 401.75,-364.5 488.25,-364.5 488.25,-385.25"/>
<text text-anchor="middle" x="445" y="-371.75" font-family="Helvetica,sans-Serif" font-size="10.00">nix::MixRepair</text>
</a>
</g>
</g>
<!-- Node3&#45;&gt;Node10 -->
<g id="edge14_Node000010_Node000003" class="edge">
<title>Node3&#45;&gt;Node10</title>
<g id="a_edge14_Node000010_Node000003"><a xlink:title=" ">
<path fill="none" stroke="#63b8ff" d="M328.74,-422.39C347.11,-417.73 368.92,-411.53 388,-404.25 401.63,-399.05 416.36,-391.67 427.43,-385.74"/>
<polygon fill="#63b8ff" stroke="#63b8ff" points="328.14,-418.93 319.27,-424.72 329.82,-425.73 328.14,-418.93"/>
</a>
</g>
</g>
<!-- Node13 -->
<g id="Node000013" class="node">
<title>Node13</title>
<g id="a_Node000013"><a xlink:href="structnix_1_1MixJSON.html" target="_top" xlink:title=" ">
<polygon fill="white" stroke="#bfbfbf" points="527.5,-346.5 448.5,-346.5 448.5,-325.75 527.5,-325.75 527.5,-346.5"/>
<text text-anchor="middle" x="488" y="-333" font-family="Helvetica,sans-Serif" font-size="10.00">nix::MixJSON</text>
</a>
</g>
</g>
<!-- Node3&#45;&gt;Node13 -->
<g id="edge18_Node000013_Node000003" class="edge">
<title>Node3&#45;&gt;Node13</title>
<g id="a_edge18_Node000013_Node000003"><a xlink:title=" ">
<path fill="none" stroke="#63b8ff" d="M329.1,-428.47C383.89,-423.32 476.36,-410.97 497,-385.25 505.83,-374.25 499.42,-357.28 493.83,-346.71"/>
<polygon fill="#63b8ff" stroke="#63b8ff" points="328.85,-424.98 319.2,-429.36 329.47,-431.95 328.85,-424.98"/>
</a>
</g>
</g>
<!-- Node14 -->
<g id="Node000014" class="node">
<title>Node14</title>
<g id="a_Node000014"><a xlink:href="structnix_1_1MixOperateOnOptions.html" target="_top" xlink:title=" ">
<polygon fill="white" stroke="#bfbfbf" points="626.5,-269 481.5,-269 481.5,-248.25 626.5,-248.25 626.5,-269"/>
<text text-anchor="middle" x="554" y="-255.5" font-family="Helvetica,sans-Serif" font-size="10.00">nix::MixOperateOnOptions</text>
</a>
</g>
</g>
<!-- Node3&#45;&gt;Node14 -->
<g id="edge20_Node000014_Node000003" class="edge">
<title>Node3&#45;&gt;Node14</title>
<g id="a_edge20_Node000014_Node000003"><a xlink:title=" ">
<path fill="none" stroke="#63b8ff" d="M328.82,-430.09C368.18,-427.62 428.99,-421.15 479,-404.25 495.4,-398.71 500.49,-397.21 513,-385.25 546.66,-353.07 552.72,-292.93 553.78,-269.41"/>
<polygon fill="#63b8ff" stroke="#63b8ff" points="328.87,-426.58 319.08,-430.64 329.26,-433.57 328.87,-426.58"/>
</a>
</g>
</g>
<!-- Node4 -->
<g id="Node000004" class="node">
<title>Node4</title>
<g id="a_Node000004"><a xlink:href="classnix_1_1MultiCommand.html" target="_top" xlink:title=" ">
<polygon fill="white" stroke="#666666" points="308,-307.75 196,-307.75 196,-287 308,-287 308,-307.75"/>
<text text-anchor="middle" x="252" y="-294.25" font-family="Helvetica,sans-Serif" font-size="10.00">nix::MultiCommand</text>
</a>
</g>
</g>
<!-- Node4&#45;&gt;Node3 -->
<g id="edge3_Node000003_Node000004" class="edge">
<title>Node4&#45;&gt;Node3</title>
<g id="a_edge3_Node000003_Node000004"><a xlink:title=" ">
<path fill="none" stroke="#9a32cd" stroke-dasharray="5,2" d="M233.26,-316.1C216.78,-333.92 197.32,-362.01 210.5,-385.25 220.71,-403.25 240.99,-415.02 258.25,-422.2"/>
<polygon fill="#9a32cd" stroke="#9a32cd" points="235.4,-318.92 239.89,-309.32 230.39,-314.02 235.4,-318.92"/>
</a>
</g>
<text text-anchor="middle" x="227.75" y="-371.75" font-family="Helvetica,sans-Serif" font-size="10.00" fill="grey"> parent</text>
</g>
<!-- Node5&#45;&gt;Node4 -->
<g id="edge4_Node000004_Node000005" class="edge">
<title>Node5&#45;&gt;Node4</title>
<g id="a_edge4_Node000004_Node000005"><a xlink:title=" ">
<path fill="none" stroke="#63b8ff" d="M142.38,-357.16C155.03,-347.26 171.89,-334.91 188,-325.75 199.87,-319 213.73,-312.87 225.51,-308.14"/>
<polygon fill="#63b8ff" stroke="#63b8ff" points="140.43,-354.23 134.8,-363.21 144.8,-359.71 140.43,-354.23"/>
</a>
</g>
</g>
<!-- Node8 -->
<g id="Node000008" class="node">
<title>Node8</title>
<g id="a_Node000008"><a xlink:href="structnix_1_1StoreCommand.html" target="_top" xlink:title=" ">
<polygon fill="white" stroke="#666666" points="178.38,-307.75 65.62,-307.75 65.62,-287 178.38,-287 178.38,-307.75"/>
<text text-anchor="middle" x="122" y="-294.25" font-family="Helvetica,sans-Serif" font-size="10.00">nix::StoreCommand</text>
</a>
</g>
</g>
<!-- Node5&#45;&gt;Node8 -->
<g id="edge10_Node000008_Node000005" class="edge">
<title>Node5&#45;&gt;Node8</title>
<g id="a_edge10_Node000008_Node000005"><a xlink:title=" ">
<path fill="none" stroke="#63b8ff" d="M122,-352.93C122,-338.23 122,-319.27 122,-308.01"/>
<polygon fill="#63b8ff" stroke="#63b8ff" points="118.5,-352.49 122,-362.49 125.5,-352.49 118.5,-352.49"/>
</a>
</g>
</g>
<!-- Node6&#45;&gt;Node2 -->
<g id="edge6_Node000002_Node000006" class="edge">
<title>Node6&#45;&gt;Node2</title>
<g id="a_edge6_Node000002_Node000006"><a xlink:title=" ">
<path fill="none" stroke="#63b8ff" d="M124,-128.43C124,-119.77 124,-110.15 124,-103.22"/>
<polygon fill="#63b8ff" stroke="#63b8ff" points="120.5,-128.15 124,-138.15 127.5,-128.15 120.5,-128.15"/>
</a>
</g>
</g>
<!-- Node7 -->
<g id="Node000007" class="node">
<title>Node7</title>
<g id="a_Node000007"><a xlink:href="structnix_1_1EvalCommand.html" target="_top" xlink:title=" ">
<polygon fill="white" stroke="#666666" points="308.12,-230.25 199.88,-230.25 199.88,-209.5 308.12,-209.5 308.12,-230.25"/>
<text text-anchor="middle" x="254" y="-216.75" font-family="Helvetica,sans-Serif" font-size="10.00">nix::EvalCommand</text>
</a>
</g>
</g>
<!-- Node7&#45;&gt;Node6 -->
<g id="edge8_Node000006_Node000007" class="edge">
<title>Node7&#45;&gt;Node6</title>
<g id="a_edge8_Node000006_Node000007"><a xlink:title=" ">
<path fill="none" stroke="#63b8ff" d="M225.45,-203.97C210.95,-196.4 193.04,-187.07 177,-178.75 165.78,-172.93 153.22,-166.44 143.14,-161.24"/>
<polygon fill="#63b8ff" stroke="#63b8ff" points="223.51,-206.9 234,-208.43 226.75,-200.7 223.51,-206.9"/>
</a>
</g>
</g>
<!-- Node8&#45;&gt;Node7 -->
<g id="edge9_Node000007_Node000008" class="edge">
<title>Node8&#45;&gt;Node7</title>
<g id="a_edge9_Node000007_Node000008"><a xlink:title=" ">
<path fill="none" stroke="#63b8ff" d="M148.97,-280.95C175.25,-265.92 214.4,-243.52 236.74,-230.75"/>
<polygon fill="#63b8ff" stroke="#63b8ff" points="147.51,-277.75 140.57,-285.75 150.99,-283.83 147.51,-277.75"/>
</a>
</g>
</g>
<!-- Node9&#45;&gt;Node7 -->
<g id="edge11_Node000007_Node000009" class="edge">
<title>Node9&#45;&gt;Node7</title>
<g id="a_edge11_Node000007_Node000009"><a xlink:title=" ">
<path fill="none" stroke="#63b8ff" d="M349.64,-280.55C325.56,-265.52 290.12,-243.41 269.82,-230.75"/>
<polygon fill="#63b8ff" stroke="#63b8ff" points="347.56,-283.38 357.9,-285.7 351.27,-277.44 347.56,-283.38"/>
</a>
</g>
</g>
<!-- Node10&#45;&gt;Node9 -->
<g id="edge13_Node000009_Node000010" class="edge">
<title>Node10&#45;&gt;Node9</title>
<g id="a_edge13_Node000009_Node000010"><a xlink:title=" ">
<path fill="none" stroke="#63b8ff" d="M428.38,-355.95C414.45,-340.92 395.1,-320.06 383.93,-308.01"/>
<polygon fill="#63b8ff" stroke="#63b8ff" points="425.45,-357.94 434.82,-362.89 430.59,-353.18 425.45,-357.94"/>
</a>
</g>
</g>
<!-- Node11 -->
<g id="Node000011" class="node">
<title>Node11</title>
<g id="a_Node000011"><a xlink:href="structnix_1_1SearchPath.html" target="_top" xlink:title=" ">
<polygon fill="white" stroke="#666666" points="345.5,-385.25 254.5,-385.25 254.5,-364.5 345.5,-364.5 345.5,-385.25"/>
<text text-anchor="middle" x="300" y="-371.75" font-family="Helvetica,sans-Serif" font-size="10.00">nix::SearchPath</text>
</a>
</g>
</g>
<!-- Node11&#45;&gt;Node9 -->
<g id="edge15_Node000009_Node000011" class="edge">
<title>Node11&#45;&gt;Node9</title>
<g id="a_edge15_Node000009_Node000011"><a xlink:title=" ">
<path fill="none" stroke="#9a32cd" stroke-dasharray="5,2" d="M296.91,-352.98C296.67,-343.81 298.03,-333.42 303.75,-325.75 309.69,-317.78 318.27,-312.14 327.42,-308.13"/>
<polygon fill="#9a32cd" stroke="#9a32cd" points="293.42,-353.21 297.84,-362.84 300.39,-352.56 293.42,-353.21"/>
</a>
</g>
<text text-anchor="middle" x="331.88" y="-333" font-family="Helvetica,sans-Serif" font-size="10.00" fill="grey"> searchPath</text>
</g>
<!-- Node12 -->
<g id="Node000012" class="node">
<title>Node12</title>
<g id="a_Node000012"><a xlink:href="structnix_1_1flake_1_1LockFlags.html" target="_top" xlink:title=" ">
<polygon fill="white" stroke="#bfbfbf" points="181.5,-230.25 66.5,-230.25 66.5,-209.5 181.5,-209.5 181.5,-230.25"/>
<text text-anchor="middle" x="124" y="-216.75" font-family="Helvetica,sans-Serif" font-size="10.00">nix::flake::LockFlags</text>
</a>
</g>
</g>
<!-- Node12&#45;&gt;Node6 -->
<g id="edge16_Node000006_Node000012" class="edge">
<title>Node12&#45;&gt;Node6</title>
<g id="a_edge16_Node000006_Node000012"><a xlink:title=" ">
<path fill="none" stroke="#9a32cd" stroke-dasharray="5,2" d="M124,-198.07C124,-185.72 124,-170.65 124,-161.03"/>
<polygon fill="#9a32cd" stroke="#9a32cd" points="120.5,-197.69 124,-207.69 127.5,-197.69 120.5,-197.69"/>
</a>
</g>
<text text-anchor="middle" x="148.75" y="-182" font-family="Helvetica,sans-Serif" font-size="10.00" fill="grey"> lockFlags</text>
</g>
<!-- Node13&#45;&gt;Node1 -->
<g id="edge17_Node000001_Node000013" class="edge">
<title>Node13&#45;&gt;Node1</title>
<g id="a_edge17_Node000001_Node000013"><a xlink:title=" ">
<path fill="none" stroke="#63b8ff" d="M478.8,-315.09C472.77,-300.13 466,-279.02 466,-259.62 466,-259.62 466,-259.62 466,-91.62 466,-65.57 475.6,-36 481.16,-21.08"/>
<polygon fill="#63b8ff" stroke="#63b8ff" points="475.57,-316.42 482.74,-324.22 481.99,-313.65 475.57,-316.42"/>
</a>
</g>
</g>
<!-- Node14&#45;&gt;Node1 -->
<g id="edge19_Node000001_Node000014" class="edge">
<title>Node14&#45;&gt;Node1</title>
<g id="a_edge19_Node000001_Node000014"><a xlink:title=" ">
<path fill="none" stroke="#63b8ff" d="M532.97,-240.4C519.3,-227.17 504,-207.57 504,-186.12 504,-186.12 504,-186.12 504,-91.62 504,-65.57 494.4,-36 488.84,-21.08"/>
<polygon fill="#63b8ff" stroke="#63b8ff" points="530.24,-242.65 540,-246.76 534.93,-237.46 530.24,-242.65"/>
</a>
</g>
</g>
<!-- Node15 -->
<g id="Node000015" class="node">
<title>Node15</title>
<g id="a_Node000015"><a xlink:title=" ">
<polygon fill="white" stroke="#bfbfbf" points="575.88,-103 532.12,-103 532.12,-82.25 575.88,-82.25 575.88,-103"/>
<text text-anchor="middle" x="554" y="-89.5" font-family="Helvetica,sans-Serif" font-size="10.00">string</text>
</a>
</g>
</g>
<!-- Node15&#45;&gt;Node1 -->
<g id="edge21_Node000001_Node000015" class="edge">
<title>Node15&#45;&gt;Node1</title>
<g id="a_edge21_Node000001_Node000015"><a xlink:title=" ">
<path fill="none" stroke="#9a32cd" stroke-dasharray="5,2" d="M542.66,-72.25C536.1,-61.8 527.32,-48.99 518,-38.75 512.09,-32.25 504.62,-25.93 498.28,-21"/>
<polygon fill="#9a32cd" stroke="#9a32cd" points="539.65,-74.04 547.83,-80.78 545.63,-70.41 539.65,-74.04"/>
</a>
</g>
<text text-anchor="middle" x="555.47" y="-54.75" font-family="Helvetica,sans-Serif" font-size="10.00" fill="grey"> _after</text>
<text text-anchor="middle" x="555.47" y="-42" font-family="Helvetica,sans-Serif" font-size="10.00" fill="grey">_before</text>
</g>
</g>
</svg>
