<?xml version="1.0" encoding="UTF-8" standalone="no"?>
<!DOCTYPE svg PUBLIC "-//W3C//DTD SVG 1.1//EN"
 "http://www.w3.org/Graphics/SVG/1.1/DTD/svg11.dtd">
<!-- Generated by graphviz version 12.2.1 (0)
 -->
<!-- Title: nix::LegacySSHStore Pages: 1 -->
<svg width="1624pt" height="494pt"
 viewBox="0.00 0.00 1623.50 494.12" xmlns="http://www.w3.org/2000/svg" xmlns:xlink="http://www.w3.org/1999/xlink">
<g id="graph0" class="graph" transform="scale(1 1) rotate(0) translate(4 490.12)">
<title>nix::LegacySSHStore</title>
<!-- Node1 -->
<g id="Node000001" class="node">
<title>Node1</title>
<g id="a_Node000001"><a xlink:title=" ">
<polygon fill="#999999" stroke="#666666" points="1615.5,-124.75 1499,-124.75 1499,-104 1615.5,-104 1615.5,-124.75"/>
<text text-anchor="middle" x="1557.25" y="-111.25" font-family="Helvetica,sans-Serif" font-size="10.00">nix::LegacySSHStore</text>
</a>
</g>
</g>
<!-- Node2 -->
<g id="Node000002" class="node">
<title>Node2</title>
<g id="a_Node000002"><a xlink:href="classnix_1_1Store.html" target="_top" xlink:title=" ">
<polygon fill="white" stroke="#bfbfbf" points="1359.12,-240.75 1296.62,-240.75 1296.62,-220 1359.12,-220 1359.12,-240.75"/>
<text text-anchor="middle" x="1327.88" y="-227.25" font-family="Helvetica,sans-Serif" font-size="10.00">nix::Store</text>
</a>
</g>
</g>
<!-- Node2&#45;&gt;Node1 -->
<g id="edge1_Node000001_Node000002" class="edge">
<title>Node2&#45;&gt;Node1</title>
<g id="a_edge1_Node000001_Node000002"><a xlink:title=" ">
<path fill="none" stroke="#63b8ff" d="M1364.38,-215.04C1395.53,-201.3 1441.85,-180.15 1481,-159.38 1501.57,-148.46 1524.43,-134.52 1539.5,-125.07"/>
<polygon fill="#63b8ff" stroke="#63b8ff" points="1363.16,-211.75 1355.41,-218.97 1365.98,-218.16 1363.16,-211.75"/>
</a>
</g>
</g>
<!-- Node3 -->
<g id="Node000003" class="node">
<title>Node3</title>
<g id="a_Node000003"><a xlink:title=" ">
<polygon fill="white" stroke="#bfbfbf" points="1174.75,-325.12 1059,-325.12 1059,-291.62 1174.75,-291.62 1174.75,-325.12"/>
<text text-anchor="start" x="1067" y="-311.62" font-family="Helvetica,sans-Serif" font-size="10.00">std::enable_shared</text>
<text text-anchor="middle" x="1116.88" y="-298.88" font-family="Helvetica,sans-Serif" font-size="10.00">_from_this&lt; Store &gt;</text>
</a>
</g>
</g>
<!-- Node3&#45;&gt;Node2 -->
<g id="edge2_Node000002_Node000003" class="edge">
<title>Node3&#45;&gt;Node2</title>
<g id="a_edge2_Node000002_Node000003"><a xlink:title=" ">
<path fill="none" stroke="#63b8ff" d="M1177.02,-287.32C1181.58,-285.65 1186.12,-283.99 1190.5,-282.38 1228.17,-268.45 1271.47,-251.84 1298.99,-241.2"/>
<polygon fill="#63b8ff" stroke="#63b8ff" points="1176,-283.96 1167.79,-290.66 1178.38,-290.54 1176,-283.96"/>
</a>
</g>
</g>
<!-- Node4 -->
<g id="Node000004" class="node">
<title>Node4</title>
<g id="a_Node000004"><a xlink:href="classnix_1_1Sync.html" target="_top" xlink:title=" ">
<polygon fill="white" stroke="#666666" points="1179.25,-273.12 1054.5,-273.12 1054.5,-239.62 1179.25,-239.62 1179.25,-273.12"/>
<text text-anchor="start" x="1062.5" y="-259.62" font-family="Helvetica,sans-Serif" font-size="10.00">nix::Sync&lt; nix::Store</text>
<text text-anchor="middle" x="1116.88" y="-246.88" font-family="Helvetica,sans-Serif" font-size="10.00">::State, AsyncMutex &gt;</text>
</a>
</g>
</g>
<!-- Node4&#45;&gt;Node2 -->
<g id="edge3_Node000002_Node000004" class="edge">
<title>Node4&#45;&gt;Node2</title>
<g id="a_edge3_Node000002_Node000004"><a xlink:title=" ">
<path fill="none" stroke="#9a32cd" stroke-dasharray="5,2" d="M1190.76,-247.31C1226.92,-242.81 1268.66,-237.62 1296.28,-234.18"/>
<polygon fill="#9a32cd" stroke="#9a32cd" points="1190.73,-243.79 1181.24,-248.49 1191.59,-250.73 1190.73,-243.79"/>
</a>
</g>
<text text-anchor="middle" x="1222.38" y="-248.18" font-family="Helvetica,sans-Serif" font-size="10.00" fill="grey"> state</text>
</g>
<!-- Node5 -->
<g id="Node000005" class="node">
<title>Node5</title>
<g id="a_Node000005"><a xlink:href="structnix_1_1Store_1_1Stats.html" target="_top" xlink:title=" ">
<polygon fill="white" stroke="#bfbfbf" points="1167.62,-221.12 1066.12,-221.12 1066.12,-187.62 1167.62,-187.62 1167.62,-221.12"/>
<text text-anchor="start" x="1074.12" y="-207.62" font-family="Helvetica,sans-Serif" font-size="10.00">nix::Store::Stats&lt;</text>
<text text-anchor="middle" x="1116.88" y="-194.88" font-family="Helvetica,sans-Serif" font-size="10.00"> std::atomic &gt;</text>
</a>
</g>
</g>
<!-- Node5&#45;&gt;Node2 -->
<g id="edge4_Node000002_Node000005" class="edge">
<title>Node5&#45;&gt;Node2</title>
<g id="a_edge4_Node000002_Node000005"><a xlink:title=" ">
<path fill="none" stroke="#9a32cd" stroke-dasharray="5,2" d="M1179.04,-211.98C1217.57,-216.78 1265.65,-222.76 1296.32,-226.57"/>
<polygon fill="#9a32cd" stroke="#9a32cd" points="1179.79,-208.55 1169.44,-210.79 1178.93,-215.5 1179.79,-208.55"/>
</a>
</g>
<text text-anchor="middle" x="1222.38" y="-222.18" font-family="Helvetica,sans-Serif" font-size="10.00" fill="grey"> stats</text>
</g>
<!-- Node6 -->
<g id="Node000006" class="node">
<title>Node6</title>
<g id="a_Node000006"><a xlink:href="structnix_1_1LegacySSHStoreConfigWithLog.html" target="_top" xlink:title=" ">
<polygon fill="white" stroke="#bfbfbf" points="1401.5,-176.12 1254.25,-176.12 1254.25,-142.62 1401.5,-142.62 1401.5,-176.12"/>
<text text-anchor="start" x="1262.25" y="-162.62" font-family="Helvetica,sans-Serif" font-size="10.00">nix::LegacySSHStoreConfig</text>
<text text-anchor="middle" x="1327.88" y="-149.88" font-family="Helvetica,sans-Serif" font-size="10.00">WithLog</text>
</a>
</g>
</g>
<!-- Node6&#45;&gt;Node1 -->
<g id="edge5_Node000001_Node000006" class="edge">
<title>Node6&#45;&gt;Node1</title>
<g id="a_edge5_Node000001_Node000006"><a xlink:title=" ">
<path fill="none" stroke="#9a32cd" stroke-dasharray="5,2" d="M1412.82,-144.55C1435.02,-140.46 1458.94,-135.89 1481,-131.38 1490.32,-129.47 1500.25,-127.31 1509.75,-125.19"/>
<polygon fill="#9a32cd" stroke="#9a32cd" points="1412.42,-141.06 1403.22,-146.31 1413.68,-147.95 1412.42,-141.06"/>
</a>
</g>
<text text-anchor="middle" x="1450.25" y="-145.99" font-family="Helvetica,sans-Serif" font-size="10.00" fill="grey"> config_</text>
</g>
<!-- Node7 -->
<g id="Node000007" class="node">
<title>Node7</title>
<g id="a_Node000007"><a xlink:href="structnix_1_1LegacySSHStoreConfig.html" target="_top" xlink:title=" ">
<polygon fill="white" stroke="#bfbfbf" points="1190.5,-169.75 1043.25,-169.75 1043.25,-149 1190.5,-149 1190.5,-169.75"/>
<text text-anchor="middle" x="1116.88" y="-156.25" font-family="Helvetica,sans-Serif" font-size="10.00">nix::LegacySSHStoreConfig</text>
</a>
</g>
</g>
<!-- Node7&#45;&gt;Node6 -->
<g id="edge6_Node000006_Node000007" class="edge">
<title>Node7&#45;&gt;Node6</title>
<g id="a_edge6_Node000006_Node000007"><a xlink:title=" ">
<path fill="none" stroke="#63b8ff" d="M1202.1,-159.38C1219.23,-159.38 1237.11,-159.38 1253.82,-159.38"/>
<polygon fill="#63b8ff" stroke="#63b8ff" points="1202.49,-155.88 1192.49,-159.38 1202.49,-162.88 1202.49,-155.88"/>
</a>
</g>
</g>
<!-- Node8 -->
<g id="Node000008" class="node">
<title>Node8</title>
<g id="a_Node000008"><a xlink:href="structnix_1_1CommonSSHStoreConfig.html" target="_top" xlink:title=" ">
<polygon fill="white" stroke="#bfbfbf" points="1006.25,-339.75 849.25,-339.75 849.25,-319 1006.25,-319 1006.25,-339.75"/>
<text text-anchor="middle" x="927.75" y="-326.25" font-family="Helvetica,sans-Serif" font-size="10.00">nix::CommonSSHStoreConfig</text>
</a>
</g>
</g>
<!-- Node8&#45;&gt;Node7 -->
<g id="edge7_Node000007_Node000008" class="edge">
<title>Node8&#45;&gt;Node7</title>
<g id="a_edge7_Node000007_Node000008"><a xlink:title=" ">
<path fill="none" stroke="#63b8ff" d="M944.18,-309.6C963.39,-284.91 997.09,-241.29 1025.25,-203.38 1033.41,-192.38 1031.96,-186.12 1043.25,-178.38 1047.98,-175.13 1053.23,-172.44 1058.68,-170.21"/>
<polygon fill="#63b8ff" stroke="#63b8ff" points="941.43,-307.44 938.05,-317.48 946.96,-311.74 941.43,-307.44"/>
</a>
</g>
</g>
<!-- Node9 -->
<g id="Node000009" class="node">
<title>Node9</title>
<g id="a_Node000009"><a xlink:href="structnix_1_1StoreConfig.html" target="_top" xlink:title=" ">
<polygon fill="white" stroke="#bfbfbf" points="717.62,-291.75 624.38,-291.75 624.38,-271 717.62,-271 717.62,-291.75"/>
<text text-anchor="middle" x="671" y="-278.25" font-family="Helvetica,sans-Serif" font-size="10.00">nix::StoreConfig</text>
</a>
</g>
</g>
<!-- Node9&#45;&gt;Node8 -->
<g id="edge8_Node000008_Node000009" class="edge">
<title>Node9&#45;&gt;Node8</title>
<g id="a_edge8_Node000008_Node000009"><a xlink:title=" ">
<path fill="none" stroke="#63b8ff" d="M728.94,-292.1C770.73,-299.98 827.28,-310.63 869.22,-318.53"/>
<polygon fill="#63b8ff" stroke="#63b8ff" points="729.8,-288.7 719.33,-290.29 728.5,-295.58 729.8,-288.7"/>
</a>
</g>
</g>
<!-- Node10 -->
<g id="Node000010" class="node">
<title>Node10</title>
<g id="a_Node000010"><a xlink:href="classnix_1_1Config.html" target="_top" xlink:title=" ">
<polygon fill="white" stroke="#666666" points="413,-303.75 345.25,-303.75 345.25,-283 413,-283 413,-303.75"/>
<text text-anchor="middle" x="379.12" y="-290.25" font-family="Helvetica,sans-Serif" font-size="10.00">nix::Config</text>
</a>
</g>
</g>
<!-- Node10&#45;&gt;Node9 -->
<g id="edge9_Node000009_Node000010" class="edge">
<title>Node10&#45;&gt;Node9</title>
<g id="a_edge9_Node000009_Node000010"><a xlink:title=" ">
<path fill="none" stroke="#63b8ff" d="M424.76,-284.09C438.05,-281.74 452.68,-279.55 466.25,-278.38 523.48,-273.43 538.07,-277.22 595.5,-278.38 604.69,-278.56 614.51,-278.87 623.91,-279.23"/>
<polygon fill="#63b8ff" stroke="#63b8ff" points="424.17,-280.64 414.98,-285.91 425.45,-287.53 424.17,-280.64"/>
</a>
</g>
</g>
<!-- Node11 -->
<g id="Node000011" class="node">
<title>Node11</title>
<g id="a_Node000011"><a xlink:href="classnix_1_1AbstractConfig.html" target="_top" xlink:title=" ">
<polygon fill="white" stroke="#bfbfbf" points="265.12,-303.75 156.88,-303.75 156.88,-283 265.12,-283 265.12,-303.75"/>
<text text-anchor="middle" x="211" y="-290.25" font-family="Helvetica,sans-Serif" font-size="10.00">nix::AbstractConfig</text>
</a>
</g>
</g>
<!-- Node11&#45;&gt;Node10 -->
<g id="edge10_Node000010_Node000011" class="edge">
<title>Node11&#45;&gt;Node10</title>
<g id="a_edge10_Node000010_Node000011"><a xlink:title=" ">
<path fill="none" stroke="#63b8ff" d="M276.75,-293.38C300.13,-293.38 325.54,-293.38 345.07,-293.38"/>
<polygon fill="#63b8ff" stroke="#63b8ff" points="276.99,-289.88 266.99,-293.38 276.99,-296.88 276.99,-289.88"/>
</a>
</g>
</g>
<!-- Node12 -->
<g id="Node000012" class="node">
<title>Node12</title>
<g id="a_Node000012"><a xlink:href="classnix_1_1PathsSetting.html" target="_top" xlink:title=" ">
<polygon fill="white" stroke="#666666" points="432.12,-265.12 326.12,-265.12 326.12,-231.62 432.12,-231.62 432.12,-265.12"/>
<text text-anchor="start" x="334.12" y="-251.62" font-family="Helvetica,sans-Serif" font-size="10.00">nix::PathsSetting&lt;</text>
<text text-anchor="middle" x="379.12" y="-238.88" font-family="Helvetica,sans-Serif" font-size="10.00"> Path &gt;</text>
</a>
</g>
</g>
<!-- Node12&#45;&gt;Node9 -->
<g id="edge11_Node000009_Node000012" class="edge">
<title>Node12&#45;&gt;Node9</title>
<g id="a_edge11_Node000009_Node000012"><a xlink:title=" ">
<path fill="none" stroke="#9a32cd" stroke-dasharray="5,2" d="M443.74,-247.84C486.85,-248.43 544.95,-251.05 595.5,-259.62 609.98,-262.08 625.63,-266.39 638.84,-270.53"/>
<polygon fill="#9a32cd" stroke="#9a32cd" points="443.83,-244.35 433.8,-247.75 443.76,-251.34 443.83,-244.35"/>
</a>
</g>
<text text-anchor="middle" x="530.88" y="-262.88" font-family="Helvetica,sans-Serif" font-size="10.00" fill="grey"> storeDir_</text>
</g>
<!-- Node13 -->
<g id="Node000013" class="node">
<title>Node13</title>
<g id="a_Node000013"><a xlink:href="classnix_1_1BaseSetting.html" target="_top" xlink:title=" ">
<polygon fill="white" stroke="#666666" points="273,-258.75 149,-258.75 149,-238 273,-238 273,-258.75"/>
<text text-anchor="middle" x="211" y="-245.25" font-family="Helvetica,sans-Serif" font-size="10.00">nix::BaseSetting&lt; T &gt;</text>
</a>
</g>
</g>
<!-- Node13&#45;&gt;Node12 -->
<g id="edge12_Node000012_Node000013" class="edge">
<title>Node13&#45;&gt;Node12</title>
<g id="a_edge12_Node000012_Node000013"><a xlink:title=" ">
<path fill="none" stroke="#63b8ff" d="M284.83,-248.38C298.59,-248.38 312.74,-248.38 325.72,-248.38"/>
<polygon fill="#63b8ff" stroke="#63b8ff" points="284.9,-244.88 274.9,-248.38 284.9,-251.88 284.9,-244.88"/>
</a>
</g>
</g>
<!-- Node23 -->
<g id="Node000023" class="node">
<title>Node23</title>
<g id="a_Node000023"><a xlink:href="classnix_1_1Setting.html" target="_top" xlink:title=" ">
<polygon fill="white" stroke="#bfbfbf" points="728.5,-213.75 613.5,-213.75 613.5,-193 728.5,-193 728.5,-213.75"/>
<text text-anchor="middle" x="671" y="-200.25" font-family="Helvetica,sans-Serif" font-size="10.00">nix::Setting&lt; Path &gt;</text>
</a>
</g>
</g>
<!-- Node13&#45;&gt;Node23 -->
<g id="edge27_Node000023_Node000013" class="edge">
<title>Node13&#45;&gt;Node23</title>
<g id="a_edge27_Node000023_Node000013"><a xlink:title=" ">
<path fill="none" stroke="#63b8ff" d="M256.68,-234.44C273.27,-229.82 292.34,-225.15 310,-222.38 416.19,-205.67 541.93,-202.83 613.19,-202.77"/>
<polygon fill="#63b8ff" stroke="#63b8ff" points="255.75,-231.06 247.1,-237.19 257.68,-237.79 255.75,-231.06"/>
</a>
</g>
</g>
<!-- Node14 -->
<g id="Node000014" class="node">
<title>Node14</title>
<g id="a_Node000014"><a xlink:href="classnix_1_1AbstractSetting.html" target="_top" xlink:title=" ">
<polygon fill="white" stroke="#bfbfbf" points="112,-357.75 0,-357.75 0,-337 112,-337 112,-357.75"/>
<text text-anchor="middle" x="56" y="-344.25" font-family="Helvetica,sans-Serif" font-size="10.00">nix::AbstractSetting</text>
</a>
</g>
</g>
<!-- Node14&#45;&gt;Node13 -->
<g id="edge13_Node000013_Node000014" class="edge">
<title>Node14&#45;&gt;Node13</title>
<g id="a_edge13_Node000013_Node000014"><a xlink:title=" ">
<path fill="none" stroke="#63b8ff" d="M76.88,-329C94.77,-313.12 122.29,-290.27 149,-274.38 158.79,-268.55 170.14,-263.34 180.36,-259.14"/>
<polygon fill="#63b8ff" stroke="#63b8ff" points="74.66,-326.29 69.57,-335.59 79.34,-331.49 74.66,-326.29"/>
</a>
</g>
</g>
<!-- Node16 -->
<g id="Node000016" class="node">
<title>Node16</title>
<g id="a_Node000016"><a xlink:href="classnix_1_1BaseSetting.html" target="_top" xlink:title=" ">
<polygon fill="white" stroke="#666666" points="273,-204.75 149,-204.75 149,-184 273,-184 273,-204.75"/>
<text text-anchor="middle" x="211" y="-191.25" font-family="Helvetica,sans-Serif" font-size="10.00">nix::BaseSetting&lt; T &gt;</text>
</a>
</g>
</g>
<!-- Node14&#45;&gt;Node16 -->
<g id="edge16_Node000016_Node000014" class="edge">
<title>Node14&#45;&gt;Node16</title>
<g id="a_edge16_Node000016_Node000014"><a xlink:title=" ">
<path fill="none" stroke="#63b8ff" d="M69.21,-327.22C85.19,-302.05 115.18,-258.72 149,-229.38 160.16,-219.69 174.4,-211.34 186.31,-205.23"/>
<polygon fill="#63b8ff" stroke="#63b8ff" points="66.36,-325.18 64.05,-335.52 72.3,-328.88 66.36,-325.18"/>
</a>
</g>
</g>
<!-- Node18 -->
<g id="Node000018" class="node">
<title>Node18</title>
<g id="a_Node000018"><a xlink:href="classnix_1_1BaseSetting.html" target="_top" xlink:title=" ">
<polygon fill="white" stroke="#666666" points="273,-381.75 149,-381.75 149,-361 273,-361 273,-381.75"/>
<text text-anchor="middle" x="211" y="-368.25" font-family="Helvetica,sans-Serif" font-size="10.00">nix::BaseSetting&lt; T &gt;</text>
</a>
</g>
</g>
<!-- Node14&#45;&gt;Node18 -->
<g id="edge19_Node000018_Node000014" class="edge">
<title>Node14&#45;&gt;Node18</title>
<g id="a_edge19_Node000018_Node000014"><a xlink:title=" ">
<path fill="none" stroke="#63b8ff" d="M123.49,-357.8C131.84,-359.11 140.35,-360.45 148.62,-361.75"/>
<polygon fill="#63b8ff" stroke="#63b8ff" points="124.15,-354.37 113.73,-356.27 123.07,-361.28 124.15,-354.37"/>
</a>
</g>
</g>
<!-- Node20 -->
<g id="Node000020" class="node">
<title>Node20</title>
<g id="a_Node000020"><a xlink:href="classnix_1_1BaseSetting.html" target="_top" xlink:title=" ">
<polygon fill="white" stroke="#666666" points="273,-342.75 149,-342.75 149,-322 273,-322 273,-342.75"/>
<text text-anchor="middle" x="211" y="-329.25" font-family="Helvetica,sans-Serif" font-size="10.00">nix::BaseSetting&lt; T &gt;</text>
</a>
</g>
</g>
<!-- Node14&#45;&gt;Node20 -->
<g id="edge22_Node000020_Node000014" class="edge">
<title>Node14&#45;&gt;Node20</title>
<g id="a_edge22_Node000020_Node000014"><a xlink:title=" ">
<path fill="none" stroke="#63b8ff" d="M123.49,-340.86C131.84,-340.04 140.35,-339.2 148.62,-338.39"/>
<polygon fill="#63b8ff" stroke="#63b8ff" points="123.35,-337.35 113.74,-341.81 124.04,-344.32 123.35,-337.35"/>
</a>
</g>
</g>
<!-- Node22 -->
<g id="Node000022" class="node">
<title>Node22</title>
<g id="a_Node000022"><a xlink:href="classnix_1_1BaseSetting.html" target="_top" xlink:title=" ">
<polygon fill="white" stroke="#666666" points="273,-470.75 149,-470.75 149,-450 273,-450 273,-470.75"/>
<text text-anchor="middle" x="211" y="-457.25" font-family="Helvetica,sans-Serif" font-size="10.00">nix::BaseSetting&lt; T &gt;</text>
</a>
</g>
</g>
<!-- Node14&#45;&gt;Node22 -->
<g id="edge25_Node000022_Node000014" class="edge">
<title>Node14&#45;&gt;Node22</title>
<g id="a_edge25_Node000022_Node000014"><a xlink:title=" ">
<path fill="none" stroke="#63b8ff" d="M75.1,-366.09C92.85,-383.79 121.21,-410.4 149,-429.38 160.28,-437.08 173.74,-444.12 185.14,-449.53"/>
<polygon fill="#63b8ff" stroke="#63b8ff" points="77.87,-363.92 68.35,-359.27 72.89,-368.84 77.87,-363.92"/>
</a>
</g>
</g>
<!-- Node25 -->
<g id="Node000025" class="node">
<title>Node25</title>
<g id="a_Node000025"><a xlink:href="classnix_1_1BaseSetting.html" target="_top" xlink:title=" ">
<polygon fill="white" stroke="#666666" points="273,-420.75 149,-420.75 149,-400 273,-400 273,-420.75"/>
<text text-anchor="middle" x="211" y="-407.25" font-family="Helvetica,sans-Serif" font-size="10.00">nix::BaseSetting&lt; T &gt;</text>
</a>
</g>
</g>
<!-- Node14&#45;&gt;Node25 -->
<g id="edge30_Node000025_Node000014" class="edge">
<title>Node14&#45;&gt;Node25</title>
<g id="a_edge30_Node000025_Node000014"><a xlink:title=" ">
<path fill="none" stroke="#63b8ff" d="M88.5,-363.25C106.08,-371.81 128.5,-382.26 149,-390.38 157.19,-393.62 166.13,-396.76 174.58,-399.56"/>
<polygon fill="#63b8ff" stroke="#63b8ff" points="90.12,-360.14 79.6,-358.86 87.03,-366.42 90.12,-360.14"/>
</a>
</g>
</g>
<!-- Node15 -->
<g id="Node000015" class="node">
<title>Node15</title>
<g id="a_Node000015"><a xlink:href="classnix_1_1Setting.html" target="_top" xlink:title=" ">
<polygon fill="white" stroke="#bfbfbf" points="432.5,-156.75 325.75,-156.75 325.75,-136 432.5,-136 432.5,-156.75"/>
<text text-anchor="middle" x="379.12" y="-143.25" font-family="Helvetica,sans-Serif" font-size="10.00">nix::Setting&lt; int &gt;</text>
</a>
</g>
</g>
<!-- Node15&#45;&gt;Node6 -->
<g id="edge34_Node000006_Node000015" class="edge">
<title>Node15&#45;&gt;Node6</title>
<g id="a_edge34_Node000006_Node000015"><a xlink:title=" ">
<path fill="none" stroke="#9a32cd" stroke-dasharray="5,2" d="M423.25,-132.2C479.41,-115.03 580.93,-88.38 670,-88.38 670,-88.38 670,-88.38 1117.88,-88.38 1126.21,-88.38 1219.77,-121.18 1278.85,-142.19"/>
<polygon fill="#9a32cd" stroke="#9a32cd" points="422.26,-128.84 413.75,-135.15 424.34,-135.53 422.26,-128.84"/>
</a>
</g>
<text text-anchor="middle" x="927.75" y="-91.62" font-family="Helvetica,sans-Serif" font-size="10.00" fill="grey"> logFD</text>
</g>
<!-- Node15&#45;&gt;Node7 -->
<g id="edge33_Node000007_Node000015" class="edge">
<title>Node15&#45;&gt;Node7</title>
<g id="a_edge33_Node000007_Node000015"><a xlink:title=" ">
<path fill="none" stroke="#9a32cd" stroke-dasharray="5,2" d="M444.2,-147.51C580.63,-149.92 899.08,-155.54 1042.99,-158.09"/>
<polygon fill="#9a32cd" stroke="#9a32cd" points="444.32,-144.01 434.26,-147.33 444.19,-151.01 444.32,-144.01"/>
</a>
</g>
<text text-anchor="middle" x="788.88" y="-157.59" font-family="Helvetica,sans-Serif" font-size="10.00" fill="grey"> maxConnections</text>
</g>
<!-- Node15&#45;&gt;Node9 -->
<g id="edge14_Node000009_Node000015" class="edge">
<title>Node15&#45;&gt;Node9</title>
<g id="a_edge14_Node000009_Node000015"><a xlink:title=" ">
<path fill="none" stroke="#9a32cd" stroke-dasharray="5,2" d="M439.88,-160.06C484.56,-171.78 546.18,-191.2 595.5,-218.88 621.12,-233.25 646.33,-256.96 659.85,-270.67"/>
<polygon fill="#9a32cd" stroke="#9a32cd" points="440.93,-156.71 430.37,-157.62 439.19,-163.49 440.93,-156.71"/>
</a>
</g>
<text text-anchor="middle" x="530.88" y="-234.88" font-family="Helvetica,sans-Serif" font-size="10.00" fill="grey"> pathInfoCacheSize</text>
<text text-anchor="middle" x="530.88" y="-222.12" font-family="Helvetica,sans-Serif" font-size="10.00" fill="grey">priority</text>
</g>
<!-- Node16&#45;&gt;Node15 -->
<g id="edge15_Node000015_Node000016" class="edge">
<title>Node16&#45;&gt;Node15</title>
<g id="a_edge15_Node000015_Node000016"><a xlink:title=" ">
<path fill="none" stroke="#63b8ff" d="M260.26,-180.43C285.88,-173.03 316.9,-164.07 340.68,-157.19"/>
<polygon fill="#63b8ff" stroke="#63b8ff" points="259.37,-177.04 250.74,-183.18 261.31,-183.77 259.37,-177.04"/>
</a>
</g>
</g>
<!-- Node17 -->
<g id="Node000017" class="node">
<title>Node17</title>
<g id="a_Node000017"><a xlink:href="classnix_1_1Setting.html" target="_top" xlink:title=" ">
<polygon fill="white" stroke="#bfbfbf" points="436.62,-381.75 321.62,-381.75 321.62,-361 436.62,-361 436.62,-381.75"/>
<text text-anchor="middle" x="379.12" y="-368.25" font-family="Helvetica,sans-Serif" font-size="10.00">nix::Setting&lt; bool &gt;</text>
</a>
</g>
</g>
<!-- Node17&#45;&gt;Node8 -->
<g id="edge31_Node000008_Node000017" class="edge">
<title>Node17&#45;&gt;Node8</title>
<g id="a_edge31_Node000008_Node000017"><a xlink:title=" ">
<path fill="none" stroke="#9a32cd" stroke-dasharray="5,2" d="M448.16,-368.64C490.57,-366.75 546.24,-363.94 595.5,-360.38 682.35,-354.1 781.78,-344.46 848.85,-337.6"/>
<polygon fill="#9a32cd" stroke="#9a32cd" points="448.2,-365.13 438.36,-369.07 448.5,-372.13 448.2,-365.13"/>
</a>
</g>
<text text-anchor="middle" x="671" y="-362.15" font-family="Helvetica,sans-Serif" font-size="10.00" fill="grey"> compress</text>
</g>
<!-- Node17&#45;&gt;Node9 -->
<g id="edge17_Node000009_Node000017" class="edge">
<title>Node17&#45;&gt;Node9</title>
<g id="a_edge17_Node000009_Node000017"><a xlink:title=" ">
<path fill="none" stroke="#9a32cd" stroke-dasharray="5,2" d="M438.13,-356.38C441.63,-354.86 445.03,-353.19 448.25,-351.38 457.7,-346.04 456.53,-339.7 466.25,-334.88 518.54,-308.91 539.41,-327.59 595.5,-311.38 613.05,-306.3 632.14,-298.57 646.61,-292.22"/>
<polygon fill="#9a32cd" stroke="#9a32cd" points="436.91,-353.1 428.86,-360 439.45,-359.63 436.91,-353.1"/>
</a>
</g>
<text text-anchor="middle" x="530.88" y="-350.88" font-family="Helvetica,sans-Serif" font-size="10.00" fill="grey"> isTrusted</text>
<text text-anchor="middle" x="530.88" y="-338.12" font-family="Helvetica,sans-Serif" font-size="10.00" fill="grey">wantMassQuery</text>
</g>
<!-- Node18&#45;&gt;Node17 -->
<g id="edge18_Node000017_Node000018" class="edge">
<title>Node18&#45;&gt;Node17</title>
<g id="a_edge18_Node000017_Node000018"><a xlink:title=" ">
<path fill="none" stroke="#63b8ff" d="M284.59,-371.38C296.91,-371.38 309.55,-371.38 321.39,-371.38"/>
<polygon fill="#63b8ff" stroke="#63b8ff" points="284.9,-367.88 274.9,-371.38 284.9,-374.88 284.9,-367.88"/>
</a>
</g>
</g>
<!-- Node19 -->
<g id="Node000019" class="node">
<title>Node19</title>
<g id="a_Node000019"><a xlink:href="classnix_1_1Setting.html" target="_top" xlink:title=" ">
<polygon fill="white" stroke="#bfbfbf" points="448.25,-342.75 310,-342.75 310,-322 448.25,-322 448.25,-342.75"/>
<text text-anchor="middle" x="379.12" y="-329.25" font-family="Helvetica,sans-Serif" font-size="10.00">nix::Setting&lt; StringSet &gt;</text>
</a>
</g>
</g>
<!-- Node19&#45;&gt;Node9 -->
<g id="edge20_Node000009_Node000019" class="edge">
<title>Node19&#45;&gt;Node9</title>
<g id="a_edge20_Node000009_Node000019"><a xlink:title=" ">
<path fill="none" stroke="#9a32cd" stroke-dasharray="5,2" d="M436.53,-317.61C440.56,-316.01 444.51,-314.27 448.25,-312.38 457.23,-307.83 456.86,-302.25 466.25,-298.62 517.75,-278.75 581.86,-276.65 624.26,-278.07"/>
<polygon fill="#9a32cd" stroke="#9a32cd" points="435.37,-314.31 427.15,-321 437.75,-320.89 435.37,-314.31"/>
</a>
</g>
<text text-anchor="middle" x="530.88" y="-301.88" font-family="Helvetica,sans-Serif" font-size="10.00" fill="grey"> systemFeatures</text>
</g>
<!-- Node20&#45;&gt;Node19 -->
<g id="edge21_Node000019_Node000020" class="edge">
<title>Node20&#45;&gt;Node19</title>
<g id="a_edge21_Node000019_Node000020"><a xlink:title=" ">
<path fill="none" stroke="#63b8ff" d="M284.63,-332.38C292.96,-332.38 301.44,-332.38 309.72,-332.38"/>
<polygon fill="#63b8ff" stroke="#63b8ff" points="284.9,-328.88 274.9,-332.38 284.9,-335.88 284.9,-328.88"/>
</a>
</g>
</g>
<!-- Node21 -->
<g id="Node000021" class="node">
<title>Node21</title>
<g id="a_Node000021"><a xlink:href="classnix_1_1Setting.html" target="_top" xlink:title=" ">
<polygon fill="white" stroke="#bfbfbf" points="595.5,-486.12 466.25,-486.12 466.25,-452.62 595.5,-452.62 595.5,-486.12"/>
<text text-anchor="start" x="474.25" y="-472.62" font-family="Helvetica,sans-Serif" font-size="10.00">nix::Setting&lt; std::</text>
<text text-anchor="middle" x="530.88" y="-459.88" font-family="Helvetica,sans-Serif" font-size="10.00">optional&lt; uint16_t &gt; &gt;</text>
</a>
</g>
</g>
<!-- Node21&#45;&gt;Node8 -->
<g id="edge23_Node000008_Node000021" class="edge">
<title>Node21&#45;&gt;Node8</title>
<g id="a_edge23_Node000008_Node000021"><a xlink:title=" ">
<path fill="none" stroke="#9a32cd" stroke-dasharray="5,2" d="M606.78,-462.52C669.78,-454.28 760.6,-436.44 831.25,-398.38 863.12,-381.2 896.57,-354.79 914.19,-340.13"/>
<polygon fill="#9a32cd" stroke="#9a32cd" points="606.73,-459 597.25,-463.72 607.61,-465.95 606.73,-459"/>
</a>
</g>
<text text-anchor="middle" x="671" y="-464.45" font-family="Helvetica,sans-Serif" font-size="10.00" fill="grey"> port</text>
</g>
<!-- Node22&#45;&gt;Node21 -->
<g id="edge24_Node000021_Node000022" class="edge">
<title>Node22&#45;&gt;Node21</title>
<g id="a_edge24_Node000021_Node000022"><a xlink:title=" ">
<path fill="none" stroke="#63b8ff" d="M284.63,-462.43C339.24,-463.98 413.36,-466.08 465.78,-467.56"/>
<polygon fill="#63b8ff" stroke="#63b8ff" points="284.9,-458.94 274.8,-462.15 284.7,-465.93 284.9,-458.94"/>
</a>
</g>
</g>
<!-- Node23&#45;&gt;Node7 -->
<g id="edge32_Node000007_Node000023" class="edge">
<title>Node23&#45;&gt;Node7</title>
<g id="a_edge32_Node000007_Node000023"><a xlink:title=" ">
<path fill="none" stroke="#9a32cd" stroke-dasharray="5,2" d="M740.1,-196.62C822.02,-188.5 958.98,-174.93 1042.98,-166.6"/>
<polygon fill="#9a32cd" stroke="#9a32cd" points="739.78,-193.14 730.17,-197.61 740.47,-200.1 739.78,-193.14"/>
</a>
</g>
<text text-anchor="middle" x="927.75" y="-189" font-family="Helvetica,sans-Serif" font-size="10.00" fill="grey"> remoteProgram</text>
</g>
<!-- Node23&#45;&gt;Node8 -->
<g id="edge26_Node000008_Node000023" class="edge">
<title>Node23&#45;&gt;Node8</title>
<g id="a_edge26_Node000008_Node000023"><a xlink:title=" ">
<path fill="none" stroke="#9a32cd" stroke-dasharray="5,2" d="M706.19,-218.97C738.59,-233.87 788.52,-257.19 831.25,-278.62 857.77,-291.93 887.93,-308.14 907.14,-318.61"/>
<polygon fill="#9a32cd" stroke="#9a32cd" points="707.84,-215.87 697.29,-214.88 704.92,-222.23 707.84,-215.87"/>
</a>
</g>
<text text-anchor="middle" x="788.88" y="-281.88" font-family="Helvetica,sans-Serif" font-size="10.00" fill="grey"> sshKey</text>
</g>
<!-- Node24 -->
<g id="Node000024" class="node">
<title>Node24</title>
<g id="a_Node000024"><a xlink:href="classnix_1_1Setting.html" target="_top" xlink:title=" ">
<polygon fill="white" stroke="#bfbfbf" points="582.75,-427.12 479,-427.12 479,-393.62 582.75,-393.62 582.75,-427.12"/>
<text text-anchor="start" x="487" y="-413.62" font-family="Helvetica,sans-Serif" font-size="10.00">nix::Setting&lt; std::</text>
<text text-anchor="middle" x="530.88" y="-400.88" font-family="Helvetica,sans-Serif" font-size="10.00">string &gt;</text>
</a>
</g>
</g>
<!-- Node24&#45;&gt;Node8 -->
<g id="edge28_Node000008_Node000024" class="edge">
<title>Node24&#45;&gt;Node8</title>
<g id="a_edge28_Node000008_Node000024"><a xlink:title=" ">
<path fill="none" stroke="#9a32cd" stroke-dasharray="5,2" d="M594.65,-409.07C656.06,-406.39 751.7,-398.48 831.25,-375.38 859.88,-367.06 890.52,-350.85 909.16,-340.06"/>
<polygon fill="#9a32cd" stroke="#9a32cd" points="594.58,-405.57 584.73,-409.46 594.86,-412.56 594.58,-405.57"/>
</a>
</g>
<text text-anchor="middle" x="671" y="-424.11" font-family="Helvetica,sans-Serif" font-size="10.00" fill="grey"> remoteStore</text>
<text text-anchor="middle" x="671" y="-411.36" font-family="Helvetica,sans-Serif" font-size="10.00" fill="grey">sshPublicHostKey</text>
</g>
<!-- Node25&#45;&gt;Node24 -->
<g id="edge29_Node000024_Node000025" class="edge">
<title>Node25&#45;&gt;Node24</title>
<g id="a_edge29_Node000024_Node000025"><a xlink:title=" ">
<path fill="none" stroke="#63b8ff" d="M284.45,-410.38C343.75,-410.38 426.14,-410.38 478.74,-410.38"/>
<polygon fill="#63b8ff" stroke="#63b8ff" points="284.8,-406.88 274.8,-410.38 284.8,-413.88 284.8,-406.88"/>
</a>
</g>
</g>
<!-- Node26 -->
<g id="Node000026" class="node">
<title>Node26</title>
<g id="a_Node000026"><a xlink:title=" ">
<polygon fill="white" stroke="#bfbfbf" points="1349.75,-124.75 1306,-124.75 1306,-104 1349.75,-104 1349.75,-124.75"/>
<text text-anchor="middle" x="1327.88" y="-111.25" font-family="Helvetica,sans-Serif" font-size="10.00">string</text>
</a>
</g>
</g>
<!-- Node26&#45;&gt;Node1 -->
<g id="edge35_Node000001_Node000026" class="edge">
<title>Node26&#45;&gt;Node1</title>
<g id="a_edge35_Node000001_Node000026"><a xlink:title=" ">
<path fill="none" stroke="#9a32cd" stroke-dasharray="5,2" d="M1361.05,-114.38C1396.77,-114.38 1455.14,-114.38 1498.76,-114.38"/>
<polygon fill="#9a32cd" stroke="#9a32cd" points="1361.37,-110.88 1351.37,-114.38 1361.37,-117.88 1361.37,-110.88"/>
</a>
</g>
<text text-anchor="middle" x="1450.25" y="-117.62" font-family="Helvetica,sans-Serif" font-size="10.00" fill="grey"> host</text>
</g>
<!-- Node27 -->
<g id="Node000027" class="node">
<title>Node27</title>
<g id="a_Node000027"><a xlink:href="classnix_1_1ref.html" target="_top" xlink:title=" ">
<polygon fill="white" stroke="#666666" points="1391.75,-85.5 1264,-85.5 1264,-39.25 1391.75,-39.25 1391.75,-85.5"/>
<text text-anchor="start" x="1272" y="-72" font-family="Helvetica,sans-Serif" font-size="10.00">nix::ref&lt; nix::Pool</text>
<text text-anchor="start" x="1272" y="-59.25" font-family="Helvetica,sans-Serif" font-size="10.00">&lt; nix::LegacySSHStore</text>
<text text-anchor="middle" x="1327.88" y="-46.5" font-family="Helvetica,sans-Serif" font-size="10.00">::Connection &gt; &gt;</text>
</a>
</g>
</g>
<!-- Node27&#45;&gt;Node1 -->
<g id="edge36_Node000001_Node000027" class="edge">
<title>Node27&#45;&gt;Node1</title>
<g id="a_edge36_Node000001_Node000027"><a xlink:title=" ">
<path fill="none" stroke="#9a32cd" stroke-dasharray="5,2" d="M1403.26,-79.39C1437.97,-87.32 1478.24,-96.53 1508.76,-103.51"/>
<polygon fill="#9a32cd" stroke="#9a32cd" points="1404.22,-76.01 1393.69,-77.2 1402.66,-82.84 1404.22,-76.01"/>
</a>
</g>
<text text-anchor="middle" x="1450.25" y="-99.32" font-family="Helvetica,sans-Serif" font-size="10.00" fill="grey"> connections</text>
</g>
<!-- Node28 -->
<g id="Node000028" class="node">
<title>Node28</title>
<g id="a_Node000028"><a xlink:href="classnix_1_1SSHMaster.html" target="_top" xlink:title=" ">
<polygon fill="white" stroke="#bfbfbf" points="1373,-20.75 1282.75,-20.75 1282.75,0 1373,0 1373,-20.75"/>
<text text-anchor="middle" x="1327.88" y="-7.25" font-family="Helvetica,sans-Serif" font-size="10.00">nix::SSHMaster</text>
</a>
</g>
</g>
<!-- Node28&#45;&gt;Node1 -->
<g id="edge37_Node000001_Node000028" class="edge">
<title>Node28&#45;&gt;Node1</title>
<g id="a_edge37_Node000001_Node000028"><a xlink:title=" ">
<path fill="none" stroke="#9a32cd" stroke-dasharray="5,2" d="M1383.55,-24.42C1389.65,-26.29 1395.74,-28.28 1401.5,-30.38 1438,-43.63 1446.86,-48.12 1481,-66.62 1502.36,-78.2 1525.82,-93.54 1540.77,-103.67"/>
<polygon fill="#9a32cd" stroke="#9a32cd" points="1384.66,-21.1 1374.08,-21.64 1382.69,-27.81 1384.66,-21.1"/>
</a>
</g>
<text text-anchor="middle" x="1450.25" y="-69.88" font-family="Helvetica,sans-Serif" font-size="10.00" fill="grey"> master</text>
</g>
</g>
</svg>
