<?xml version="1.0" encoding="UTF-8" standalone="no"?>
<!DOCTYPE svg PUBLIC "-//W3C//DTD SVG 1.1//EN"
 "http://www.w3.org/Graphics/SVG/1.1/DTD/svg11.dtd">
<!-- Generated by graphviz version 12.2.1 (0)
 -->
<!-- Title: lix/libutil/sync.hh Pages: 1 -->
<svg width="839pt" height="142pt"
 viewBox="0.00 0.00 838.75 142.25" xmlns="http://www.w3.org/2000/svg" xmlns:xlink="http://www.w3.org/1999/xlink">
<g id="graph0" class="graph" transform="scale(1 1) rotate(0) translate(4 138.25)">
<title>lix/libutil/sync.hh</title>
<!-- Node1 -->
<g id="Node000001" class="node">
<title>Node1</title>
<g id="a_Node000001"><a xlink:title=" ">
<polygon fill="#999999" stroke="#666666" points="472.12,-134.25 372.88,-134.25 372.88,-113.5 472.12,-113.5 472.12,-134.25"/>
<text text-anchor="middle" x="422.5" y="-120.75" font-family="Helvetica,sans-Serif" font-size="10.00">lix/libutil/sync.hh</text>
</a>
</g>
</g>
<!-- Node2 -->
<g id="Node000002" class="node">
<title>Node2</title>
<g id="a_Node000002"><a xlink:href="types_8hh.html" target="_top" xlink:title=" ">
<polygon fill="white" stroke="#666666" points="260.38,-77.5 156.62,-77.5 156.62,-56.75 260.38,-56.75 260.38,-77.5"/>
<text text-anchor="middle" x="208.5" y="-64" font-family="Helvetica,sans-Serif" font-size="10.00">lix/libutil/types.hh</text>
</a>
</g>
</g>
<!-- Node1&#45;&gt;Node2 -->
<g id="edge1_Node000001_Node000002" class="edge">
<title>Node1&#45;&gt;Node2</title>
<g id="a_edge1_Node000001_Node000002"><a xlink:title=" ">
<path fill="none" stroke="#63b8ff" d="M384.24,-113.09C348.9,-104.04 296.2,-90.56 257.73,-80.72"/>
<polygon fill="#63b8ff" stroke="#63b8ff" points="258.81,-77.38 248.25,-78.3 257.07,-84.17 258.81,-77.38"/>
</a>
</g>
</g>
<!-- Node3 -->
<g id="Node000003" class="node">
<title>Node3</title>
<g id="a_Node000003"><a xlink:title=" ">
<polygon fill="#e0e0e0" stroke="#999999" points="31,-20.75 0,-20.75 0,0 31,0 31,-20.75"/>
<text text-anchor="middle" x="15.5" y="-7.25" font-family="Helvetica,sans-Serif" font-size="10.00">list</text>
</a>
</g>
</g>
<!-- Node1&#45;&gt;Node3 -->
<g id="edge14_Node000001_Node000003" class="edge">
<title>Node1&#45;&gt;Node3</title>
<g id="a_edge14_Node000001_Node000003"><a xlink:title=" ">
<path fill="none" stroke="#63b8ff" d="M372.44,-122.1C310.25,-119.67 201.8,-110.52 115.5,-77.5 85.07,-65.85 54.46,-43.72 35.27,-28.29"/>
<polygon fill="#63b8ff" stroke="#63b8ff" points="37.69,-25.74 27.75,-22.08 33.23,-31.14 37.69,-25.74"/>
</a>
</g>
</g>
<!-- Node4 -->
<g id="Node000004" class="node">
<title>Node4</title>
<g id="a_Node000004"><a xlink:title=" ">
<polygon fill="#e0e0e0" stroke="#999999" points="104.38,-20.75 48.62,-20.75 48.62,0 104.38,0 104.38,-20.75"/>
<text text-anchor="middle" x="76.5" y="-7.25" font-family="Helvetica,sans-Serif" font-size="10.00">optional</text>
</a>
</g>
</g>
<!-- Node1&#45;&gt;Node4 -->
<g id="edge18_Node000001_Node000004" class="edge">
<title>Node1&#45;&gt;Node4</title>
<g id="a_edge18_Node000001_Node000004"><a xlink:title=" ">
<path fill="none" stroke="#63b8ff" d="M372.45,-123.16C315.24,-121.61 220.14,-113.19 147.5,-77.5 124.46,-66.18 103.7,-44.91 90.66,-29.54"/>
<polygon fill="#63b8ff" stroke="#63b8ff" points="93.58,-27.59 84.55,-22.05 88.16,-32.01 93.58,-27.59"/>
</a>
</g>
</g>
<!-- Node12 -->
<g id="Node000012" class="node">
<title>Node12</title>
<g id="a_Node000012"><a xlink:title=" ">
<polygon fill="#e0e0e0" stroke="#999999" points="326.62,-77.5 278.38,-77.5 278.38,-56.75 326.62,-56.75 326.62,-77.5"/>
<text text-anchor="middle" x="302.5" y="-64" font-family="Helvetica,sans-Serif" font-size="10.00">cstdlib</text>
</a>
</g>
</g>
<!-- Node1&#45;&gt;Node12 -->
<g id="edge11_Node000001_Node000012" class="edge">
<title>Node1&#45;&gt;Node12</title>
<g id="a_edge11_Node000001_Node000012"><a xlink:title=" ">
<path fill="none" stroke="#63b8ff" d="M401.05,-113.09C382.45,-104.6 355.28,-92.2 334.17,-82.58"/>
<polygon fill="#63b8ff" stroke="#63b8ff" points="335.7,-79.42 325.14,-78.46 332.79,-85.79 335.7,-79.42"/>
</a>
</g>
</g>
<!-- Node13 -->
<g id="Node000013" class="node">
<title>Node13</title>
<g id="a_Node000013"><a xlink:title=" ">
<polygon fill="#e0e0e0" stroke="#999999" points="410.25,-77.5 344.75,-77.5 344.75,-56.75 410.25,-56.75 410.25,-77.5"/>
<text text-anchor="middle" x="377.5" y="-64" font-family="Helvetica,sans-Serif" font-size="10.00">kj/async.h</text>
</a>
</g>
</g>
<!-- Node1&#45;&gt;Node13 -->
<g id="edge12_Node000001_Node000013" class="edge">
<title>Node1&#45;&gt;Node13</title>
<g id="a_edge12_Node000001_Node000013"><a xlink:title=" ">
<path fill="none" stroke="#63b8ff" d="M414.45,-113.09C408.44,-105.77 400.03,-95.54 392.76,-86.69"/>
<polygon fill="#63b8ff" stroke="#63b8ff" points="395.49,-84.5 386.44,-79 390.08,-88.95 395.49,-84.5"/>
</a>
</g>
</g>
<!-- Node14 -->
<g id="Node000014" class="node">
<title>Node14</title>
<g id="a_Node000014"><a xlink:title=" ">
<polygon fill="#e0e0e0" stroke="#999999" points="508.38,-77.5 428.62,-77.5 428.62,-56.75 508.38,-56.75 508.38,-77.5"/>
<text text-anchor="middle" x="468.5" y="-64" font-family="Helvetica,sans-Serif" font-size="10.00">kj/common.h</text>
</a>
</g>
</g>
<!-- Node1&#45;&gt;Node14 -->
<g id="edge13_Node000001_Node000014" class="edge">
<title>Node1&#45;&gt;Node14</title>
<g id="a_edge13_Node000001_Node000014"><a xlink:title=" ">
<path fill="none" stroke="#63b8ff" d="M430.72,-113.09C436.94,-105.69 445.65,-95.32 453.14,-86.41"/>
<polygon fill="#63b8ff" stroke="#63b8ff" points="455.62,-88.9 459.37,-78.99 450.26,-84.39 455.62,-88.9"/>
</a>
</g>
</g>
<!-- Node15 -->
<g id="Node000015" class="node">
<title>Node15</title>
<g id="a_Node000015"><a xlink:title=" ">
<polygon fill="#e0e0e0" stroke="#999999" points="574.25,-77.5 526.75,-77.5 526.75,-56.75 574.25,-56.75 574.25,-77.5"/>
<text text-anchor="middle" x="550.5" y="-64" font-family="Helvetica,sans-Serif" font-size="10.00">mutex</text>
</a>
</g>
</g>
<!-- Node1&#45;&gt;Node15 -->
<g id="edge15_Node000001_Node000015" class="edge">
<title>Node1&#45;&gt;Node15</title>
<g id="a_edge15_Node000001_Node000015"><a xlink:title=" ">
<path fill="none" stroke="#63b8ff" d="M445.38,-113.09C465.41,-104.52 494.74,-91.98 517.33,-82.31"/>
<polygon fill="#63b8ff" stroke="#63b8ff" points="518.6,-85.57 526.42,-78.42 515.85,-79.14 518.6,-85.57"/>
</a>
</g>
</g>
<!-- Node16 -->
<g id="Node000016" class="node">
<title>Node16</title>
<g id="a_Node000016"><a xlink:title=" ">
<polygon fill="#e0e0e0" stroke="#999999" points="698.5,-77.5 592.5,-77.5 592.5,-56.75 698.5,-56.75 698.5,-77.5"/>
<text text-anchor="middle" x="645.5" y="-64" font-family="Helvetica,sans-Serif" font-size="10.00">condition_variable</text>
</a>
</g>
</g>
<!-- Node1&#45;&gt;Node16 -->
<g id="edge16_Node000001_Node000016" class="edge">
<title>Node1&#45;&gt;Node16</title>
<g id="a_edge16_Node000001_Node000016"><a xlink:title=" ">
<path fill="none" stroke="#63b8ff" d="M462.63,-113.02C499.45,-103.98 554.21,-90.54 594.2,-80.72"/>
<polygon fill="#63b8ff" stroke="#63b8ff" points="594.97,-84.13 603.85,-78.35 593.31,-77.34 594.97,-84.13"/>
</a>
</g>
</g>
<!-- Node17 -->
<g id="Node000017" class="node">
<title>Node17</title>
<g id="a_Node000017"><a xlink:title=" ">
<polygon fill="#e0e0e0" stroke="#999999" points="768.12,-77.5 716.88,-77.5 716.88,-56.75 768.12,-56.75 768.12,-77.5"/>
<text text-anchor="middle" x="742.5" y="-64" font-family="Helvetica,sans-Serif" font-size="10.00">cassert</text>
</a>
</g>
</g>
<!-- Node1&#45;&gt;Node17 -->
<g id="edge17_Node000001_Node000017" class="edge">
<title>Node1&#45;&gt;Node17</title>
<g id="a_edge17_Node000001_Node000017"><a xlink:title=" ">
<path fill="none" stroke="#63b8ff" d="M472.47,-116.52C527.26,-109.2 617.96,-96.04 705.38,-77.76"/>
<polygon fill="#63b8ff" stroke="#63b8ff" points="706.04,-81.2 715.1,-75.7 704.59,-74.35 706.04,-81.2"/>
</a>
</g>
</g>
<!-- Node18 -->
<g id="Node000018" class="node">
<title>Node18</title>
<g id="a_Node000018"><a xlink:title=" ">
<polygon fill="#e0e0e0" stroke="#999999" points="830.75,-77.5 786.25,-77.5 786.25,-56.75 830.75,-56.75 830.75,-77.5"/>
<text text-anchor="middle" x="808.5" y="-64" font-family="Helvetica,sans-Serif" font-size="10.00">utility</text>
</a>
</g>
</g>
<!-- Node1&#45;&gt;Node18 -->
<g id="edge19_Node000001_Node000018" class="edge">
<title>Node1&#45;&gt;Node18</title>
<g id="a_edge19_Node000001_Node000018"><a xlink:title=" ">
<path fill="none" stroke="#63b8ff" d="M472.62,-119.12C539.55,-113.52 661.89,-101.26 774.69,-77.81"/>
<polygon fill="#63b8ff" stroke="#63b8ff" points="775.39,-81.24 784.45,-75.74 773.94,-74.39 775.39,-81.24"/>
</a>
</g>
</g>
<!-- Node2&#45;&gt;Node3 -->
<g id="edge2_Node000002_Node000003" class="edge">
<title>Node2&#45;&gt;Node3</title>
<g id="a_edge2_Node000002_Node000003"><a xlink:title=" ">
<path fill="none" stroke="#63b8ff" d="M166.8,-56.29C134.78,-48.44 89.32,-36.64 42.15,-21.39"/>
<polygon fill="#63b8ff" stroke="#63b8ff" points="43.45,-18.14 32.86,-18.35 41.27,-24.79 43.45,-18.14"/>
</a>
</g>
</g>
<!-- Node2&#45;&gt;Node4 -->
<g id="edge3_Node000002_Node000004" class="edge">
<title>Node2&#45;&gt;Node4</title>
<g id="a_edge3_Node000002_Node000004"><a xlink:title=" ">
<path fill="none" stroke="#63b8ff" d="M184.9,-56.34C164.16,-47.73 133.73,-35.11 110.39,-25.43"/>
<polygon fill="#63b8ff" stroke="#63b8ff" points="111.87,-22.26 101.29,-21.66 109.19,-28.72 111.87,-22.26"/>
</a>
</g>
</g>
<!-- Node5 -->
<g id="Node000005" class="node">
<title>Node5</title>
<g id="a_Node000005"><a xlink:title=" ">
<polygon fill="#e0e0e0" stroke="#999999" points="224,-20.75 193,-20.75 193,0 224,0 224,-20.75"/>
<text text-anchor="middle" x="208.5" y="-7.25" font-family="Helvetica,sans-Serif" font-size="10.00">set</text>
</a>
</g>
</g>
<!-- Node2&#45;&gt;Node5 -->
<g id="edge4_Node000002_Node000005" class="edge">
<title>Node2&#45;&gt;Node5</title>
<g id="a_edge4_Node000002_Node000005"><a xlink:title=" ">
<path fill="none" stroke="#63b8ff" d="M208.5,-56.34C208.5,-49.72 208.5,-40.72 208.5,-32.52"/>
<polygon fill="#63b8ff" stroke="#63b8ff" points="212,-32.59 208.5,-22.59 205,-32.59 212,-32.59"/>
</a>
</g>
</g>
<!-- Node6 -->
<g id="Node000006" class="node">
<title>Node6</title>
<g id="a_Node000006"><a xlink:title=" ">
<polygon fill="#e0e0e0" stroke="#999999" points="285.38,-20.75 241.62,-20.75 241.62,0 285.38,0 285.38,-20.75"/>
<text text-anchor="middle" x="263.5" y="-7.25" font-family="Helvetica,sans-Serif" font-size="10.00">string</text>
</a>
</g>
</g>
<!-- Node2&#45;&gt;Node6 -->
<g id="edge5_Node000002_Node000006" class="edge">
<title>Node2&#45;&gt;Node6</title>
<g id="a_edge5_Node000002_Node000006"><a xlink:title=" ">
<path fill="none" stroke="#63b8ff" d="M218.33,-56.34C225.92,-48.78 236.62,-38.14 245.7,-29.1"/>
<polygon fill="#63b8ff" stroke="#63b8ff" points="248.06,-31.68 252.68,-22.15 243.12,-26.72 248.06,-31.68"/>
</a>
</g>
</g>
<!-- Node7 -->
<g id="Node000007" class="node">
<title>Node7</title>
<g id="a_Node000007"><a xlink:title=" ">
<polygon fill="#e0e0e0" stroke="#999999" points="375.62,-20.75 303.38,-20.75 303.38,0 375.62,0 375.62,-20.75"/>
<text text-anchor="middle" x="339.5" y="-7.25" font-family="Helvetica,sans-Serif" font-size="10.00">string_view</text>
</a>
</g>
</g>
<!-- Node2&#45;&gt;Node7 -->
<g id="edge6_Node000002_Node000007" class="edge">
<title>Node2&#45;&gt;Node7</title>
<g id="a_edge6_Node000002_Node000007"><a xlink:title=" ">
<path fill="none" stroke="#63b8ff" d="M231.92,-56.34C252.5,-47.73 282.7,-35.11 305.87,-25.43"/>
<polygon fill="#63b8ff" stroke="#63b8ff" points="307.01,-28.75 314.89,-21.66 304.31,-22.29 307.01,-28.75"/>
</a>
</g>
</g>
<!-- Node8 -->
<g id="Node000008" class="node">
<title>Node8</title>
<g id="a_Node000008"><a xlink:title=" ">
<polygon fill="#e0e0e0" stroke="#999999" points="431.38,-20.75 393.62,-20.75 393.62,0 431.38,0 431.38,-20.75"/>
<text text-anchor="middle" x="412.5" y="-7.25" font-family="Helvetica,sans-Serif" font-size="10.00">map</text>
</a>
</g>
</g>
<!-- Node2&#45;&gt;Node8 -->
<g id="edge7_Node000002_Node000008" class="edge">
<title>Node2&#45;&gt;Node8</title>
<g id="a_edge7_Node000002_Node000008"><a xlink:title=" ">
<path fill="none" stroke="#63b8ff" d="M249.98,-56.31C283.41,-48.2 331.84,-36.02 382.45,-21.21"/>
<polygon fill="#63b8ff" stroke="#63b8ff" points="383.23,-24.63 391.83,-18.44 381.24,-17.92 383.23,-24.63"/>
</a>
</g>
</g>
<!-- Node9 -->
<g id="Node000009" class="node">
<title>Node9</title>
<g id="a_Node000009"><a xlink:title=" ">
<polygon fill="#e0e0e0" stroke="#999999" points="495.88,-20.75 449.12,-20.75 449.12,0 495.88,0 495.88,-20.75"/>
<text text-anchor="middle" x="472.5" y="-7.25" font-family="Helvetica,sans-Serif" font-size="10.00">vector</text>
</a>
</g>
</g>
<!-- Node2&#45;&gt;Node9 -->
<g id="edge8_Node000002_Node000009" class="edge">
<title>Node2&#45;&gt;Node9</title>
<g id="a_edge8_Node000002_Node000009"><a xlink:title=" ">
<path fill="none" stroke="#63b8ff" d="M260.86,-57.3C305.59,-49.45 371.85,-37.06 437.79,-21.25"/>
<polygon fill="#63b8ff" stroke="#63b8ff" points="438.44,-24.7 447.33,-18.94 436.79,-17.9 438.44,-24.7"/>
</a>
</g>
</g>
<!-- Node10 -->
<g id="Node000010" class="node">
<title>Node10</title>
<g id="a_Node000010"><a xlink:title=" ">
<polygon fill="#e0e0e0" stroke="#999999" points="553.12,-20.75 513.88,-20.75 513.88,0 553.12,0 553.12,-20.75"/>
<text text-anchor="middle" x="533.5" y="-7.25" font-family="Helvetica,sans-Serif" font-size="10.00">span</text>
</a>
</g>
</g>
<!-- Node2&#45;&gt;Node10 -->
<g id="edge9_Node000002_Node000010" class="edge">
<title>Node2&#45;&gt;Node10</title>
<g id="a_edge9_Node000002_Node000010"><a xlink:title=" ">
<path fill="none" stroke="#63b8ff" d="M260.74,-58.09C263.71,-57.64 266.64,-57.19 269.5,-56.75 370.37,-41.27 399.69,-44.81 502.46,-20.9"/>
<polygon fill="#63b8ff" stroke="#63b8ff" points="503.25,-24.31 512.18,-18.6 501.64,-17.5 503.25,-24.31"/>
</a>
</g>
</g>
<!-- Node11 -->
<g id="Node000011" class="node">
<title>Node11</title>
<g id="a_Node000011"><a xlink:title=" ">
<polygon fill="#e0e0e0" stroke="#999999" points="174.88,-20.75 122.12,-20.75 122.12,0 174.88,0 174.88,-20.75"/>
<text text-anchor="middle" x="148.5" y="-7.25" font-family="Helvetica,sans-Serif" font-size="10.00">stdint.h</text>
</a>
</g>
</g>
<!-- Node2&#45;&gt;Node11 -->
<g id="edge10_Node000002_Node000011" class="edge">
<title>Node2&#45;&gt;Node11</title>
<g id="a_edge10_Node000002_Node000011"><a xlink:title=" ">
<path fill="none" stroke="#63b8ff" d="M197.77,-56.34C189.41,-48.71 177.59,-37.92 167.62,-28.82"/>
<polygon fill="#63b8ff" stroke="#63b8ff" points="170,-26.25 160.25,-22.1 165.28,-31.42 170,-26.25"/>
</a>
</g>
</g>
</g>
</svg>
