<?xml version="1.0" encoding="UTF-8" standalone="no"?>
<!DOCTYPE svg PUBLIC "-//W3C//DTD SVG 1.1//EN"
 "http://www.w3.org/Graphics/SVG/1.1/DTD/svg11.dtd">
<!-- Generated by graphviz version 12.2.1 (0)
 -->
<!-- Title: lix/libutil/url&#45;parts.hh Pages: 1 -->
<svg width="126pt" height="86pt"
 viewBox="0.00 0.00 126.00 85.50" xmlns="http://www.w3.org/2000/svg" xmlns:xlink="http://www.w3.org/1999/xlink">
<g id="graph0" class="graph" transform="scale(1 1) rotate(0) translate(4 81.5)">
<title>lix/libutil/url&#45;parts.hh</title>
<!-- Node1 -->
<g id="Node000001" class="node">
<title>Node1</title>
<g id="a_Node000001"><a xlink:title=" ">
<polygon fill="#999999" stroke="#666666" points="118,-77.5 0,-77.5 0,-56.75 118,-56.75 118,-77.5"/>
<text text-anchor="middle" x="59" y="-64" font-family="Helvetica,sans-Serif" font-size="10.00">lix/libutil/url&#45;parts.hh</text>
</a>
</g>
</g>
<!-- Node2 -->
<g id="Node000002" class="node">
<title>Node2</title>
<g id="a_Node000002"><a xlink:title=" ">
<polygon fill="#e0e0e0" stroke="#999999" points="49.88,-20.75 6.12,-20.75 6.12,0 49.88,0 49.88,-20.75"/>
<text text-anchor="middle" x="28" y="-7.25" font-family="Helvetica,sans-Serif" font-size="10.00">string</text>
</a>
</g>
</g>
<!-- Node1&#45;&gt;Node2 -->
<g id="edge1_Node000001_Node000002" class="edge">
<title>Node1&#45;&gt;Node2</title>
<g id="a_edge1_Node000001_Node000002"><a xlink:title=" ">
<path fill="none" stroke="#63b8ff" d="M53.46,-56.34C49.49,-49.33 44.01,-39.66 39.16,-31.08"/>
<polygon fill="#63b8ff" stroke="#63b8ff" points="42.21,-29.37 34.24,-22.4 36.12,-32.82 42.21,-29.37"/>
</a>
</g>
</g>
<!-- Node3 -->
<g id="Node000003" class="node">
<title>Node3</title>
<g id="a_Node000003"><a xlink:title=" ">
<polygon fill="#e0e0e0" stroke="#999999" points="111.88,-20.75 68.12,-20.75 68.12,0 111.88,0 111.88,-20.75"/>
<text text-anchor="middle" x="90" y="-7.25" font-family="Helvetica,sans-Serif" font-size="10.00">regex</text>
</a>
</g>
</g>
<!-- Node1&#45;&gt;Node3 -->
<g id="edge2_Node000001_Node000003" class="edge">
<title>Node1&#45;&gt;Node3</title>
<g id="a_edge2_Node000001_Node000003"><a xlink:title=" ">
<path fill="none" stroke="#63b8ff" d="M64.54,-56.34C68.51,-49.33 73.99,-39.66 78.84,-31.08"/>
<polygon fill="#63b8ff" stroke="#63b8ff" points="81.88,-32.82 83.76,-22.4 75.79,-29.37 81.88,-32.82"/>
</a>
</g>
</g>
</g>
</svg>
