<?xml version="1.0" encoding="UTF-8" standalone="no"?>
<!DOCTYPE svg PUBLIC "-//W3C//DTD SVG 1.1//EN"
 "http://www.w3.org/Graphics/SVG/1.1/DTD/svg11.dtd">
<!-- Generated by graphviz version 12.2.1 (0)
 -->
<!-- Title: lix/libutil/url.hh Pages: 1 -->
<svg width="1271pt" height="256pt"
 viewBox="0.00 0.00 1271.00 255.75" xmlns="http://www.w3.org/2000/svg" xmlns:xlink="http://www.w3.org/1999/xlink">
<g id="graph0" class="graph" transform="scale(1 1) rotate(0) translate(4 251.75)">
<title>lix/libutil/url.hh</title>
<!-- Node1 -->
<g id="Node000001" class="node">
<title>Node1</title>
<g id="a_Node000001"><a xlink:title=" ">
<polygon fill="#999999" stroke="#666666" points="882.5,-247.75 793,-247.75 793,-227 882.5,-227 882.5,-247.75"/>
<text text-anchor="middle" x="837.75" y="-234.25" font-family="Helvetica,sans-Serif" font-size="10.00">lix/libutil/url.hh</text>
</a>
</g>
</g>
<!-- Node2 -->
<g id="Node000002" class="node">
<title>Node2</title>
<g id="a_Node000002"><a xlink:href="error_8hh.html" target="_top" xlink:title="This file defines two main structs/classes used in nix error handling.">
<polygon fill="white" stroke="#666666" points="844.38,-191 745.12,-191 745.12,-170.25 844.38,-170.25 844.38,-191"/>
<text text-anchor="middle" x="794.75" y="-177.5" font-family="Helvetica,sans-Serif" font-size="10.00">lix/libutil/error.hh</text>
</a>
</g>
</g>
<!-- Node1&#45;&gt;Node2 -->
<g id="edge1_Node000001_Node000002" class="edge">
<title>Node1&#45;&gt;Node2</title>
<g id="a_edge1_Node000001_Node000002"><a xlink:title=" ">
<path fill="none" stroke="#63b8ff" d="M830.06,-226.59C824.31,-219.27 816.28,-209.04 809.33,-200.19"/>
<polygon fill="#63b8ff" stroke="#63b8ff" points="812.24,-198.22 803.31,-192.52 806.73,-202.55 812.24,-198.22"/>
</a>
</g>
</g>
<!-- Node25 -->
<g id="Node000025" class="node">
<title>Node25</title>
<g id="a_Node000025"><a xlink:title=" ">
<polygon fill="#e0e0e0" stroke="#999999" points="900.62,-191 862.88,-191 862.88,-170.25 900.62,-170.25 900.62,-191"/>
<text text-anchor="middle" x="881.75" y="-177.5" font-family="Helvetica,sans-Serif" font-size="10.00">map</text>
</a>
</g>
</g>
<!-- Node1&#45;&gt;Node25 -->
<g id="edge26_Node000001_Node000025" class="edge">
<title>Node1&#45;&gt;Node25</title>
<g id="a_edge26_Node000001_Node000025"><a xlink:title=" ">
<path fill="none" stroke="#63b8ff" d="M845.62,-226.59C851.5,-219.27 859.72,-209.04 866.83,-200.19"/>
<polygon fill="#63b8ff" stroke="#63b8ff" points="869.47,-202.5 873,-192.51 864.01,-198.11 869.47,-202.5"/>
</a>
</g>
</g>
<!-- Node3 -->
<g id="Node000003" class="node">
<title>Node3</title>
<g id="a_Node000003"><a xlink:href="json-fwd_8hh_source.html" target="_top" xlink:title=" ">
<polygon fill="white" stroke="#666666" points="242.75,-134.25 124.75,-134.25 124.75,-113.5 242.75,-113.5 242.75,-134.25"/>
<text text-anchor="middle" x="183.75" y="-120.75" font-family="Helvetica,sans-Serif" font-size="10.00">lix/libutil/json&#45;fwd.hh</text>
</a>
</g>
</g>
<!-- Node2&#45;&gt;Node3 -->
<g id="edge2_Node000002_Node000003" class="edge">
<title>Node2&#45;&gt;Node3</title>
<g id="a_edge2_Node000002_Node000003"><a xlink:title=" ">
<path fill="none" stroke="#63b8ff" d="M744.75,-175.14C636.27,-165.42 379.05,-142.38 254.18,-131.19"/>
<polygon fill="#63b8ff" stroke="#63b8ff" points="254.66,-127.72 244.39,-130.31 254.04,-134.69 254.66,-127.72"/>
</a>
</g>
</g>
<!-- Node5 -->
<g id="Node000005" class="node">
<title>Node5</title>
<g id="a_Node000005"><a xlink:title=" ">
<polygon fill="#e0e0e0" stroke="#999999" points="218,-77.5 149.5,-77.5 149.5,-56.75 218,-56.75 218,-77.5"/>
<text text-anchor="middle" x="183.75" y="-64" font-family="Helvetica,sans-Serif" font-size="10.00">type_traits</text>
</a>
</g>
</g>
<!-- Node2&#45;&gt;Node5 -->
<g id="edge25_Node000002_Node000005" class="edge">
<title>Node2&#45;&gt;Node5</title>
<g id="a_edge25_Node000002_Node000005"><a xlink:title=" ">
<path fill="none" stroke="#63b8ff" d="M744.71,-176.82C669.28,-171.92 522.22,-159.81 399.75,-134.25 335.79,-120.9 263.59,-96.92 220.97,-81.8"/>
<polygon fill="#63b8ff" stroke="#63b8ff" points="222.3,-78.56 211.7,-78.48 219.94,-85.15 222.3,-78.56"/>
</a>
</g>
</g>
<!-- Node6 -->
<g id="Node000006" class="node">
<title>Node6</title>
<g id="a_Node000006"><a xlink:href="suggestions_8hh.html" target="_top" xlink:title=" ">
<polygon fill="white" stroke="#666666" points="544.38,-134.25 409.12,-134.25 409.12,-113.5 544.38,-113.5 544.38,-134.25"/>
<text text-anchor="middle" x="476.75" y="-120.75" font-family="Helvetica,sans-Serif" font-size="10.00">lix/libutil/suggestions.hh</text>
</a>
</g>
</g>
<!-- Node2&#45;&gt;Node6 -->
<g id="edge5_Node000002_Node000006" class="edge">
<title>Node2&#45;&gt;Node6</title>
<g id="a_edge5_Node000002_Node000006"><a xlink:title=" ">
<path fill="none" stroke="#63b8ff" d="M744.71,-171.01C690.98,-161.76 605.26,-147 545.28,-136.67"/>
<polygon fill="#63b8ff" stroke="#63b8ff" points="545.96,-133.24 535.51,-134.99 544.77,-140.14 545.96,-133.24"/>
</a>
</g>
</g>
<!-- Node13 -->
<g id="Node000013" class="node">
<title>Node13</title>
<g id="a_Node000013"><a xlink:href="libutil_2fmt_8hh.html" target="_top" xlink:title=" ">
<polygon fill="white" stroke="#666666" points="662.75,-134.25 568.75,-134.25 568.75,-113.5 662.75,-113.5 662.75,-134.25"/>
<text text-anchor="middle" x="615.75" y="-120.75" font-family="Helvetica,sans-Serif" font-size="10.00">lix/libutil/fmt.hh</text>
</a>
</g>
</g>
<!-- Node2&#45;&gt;Node13 -->
<g id="edge12_Node000002_Node000013" class="edge">
<title>Node2&#45;&gt;Node13</title>
<g id="a_edge12_Node000002_Node000013"><a xlink:title=" ">
<path fill="none" stroke="#63b8ff" d="M762.75,-169.84C733.69,-160.95 690.62,-147.77 658.6,-137.98"/>
<polygon fill="#63b8ff" stroke="#63b8ff" points="659.81,-134.69 649.22,-135.11 657.76,-141.39 659.81,-134.69"/>
</a>
</g>
</g>
<!-- Node17 -->
<g id="Node000017" class="node">
<title>Node17</title>
<g id="a_Node000017"><a xlink:title=" ">
<polygon fill="#e0e0e0" stroke="#999999" points="730.25,-134.25 681.25,-134.25 681.25,-113.5 730.25,-113.5 730.25,-134.25"/>
<text text-anchor="middle" x="705.75" y="-120.75" font-family="Helvetica,sans-Serif" font-size="10.00">cstring</text>
</a>
</g>
</g>
<!-- Node2&#45;&gt;Node17 -->
<g id="edge17_Node000002_Node000017" class="edge">
<title>Node2&#45;&gt;Node17</title>
<g id="a_edge17_Node000002_Node000017"><a xlink:title=" ">
<path fill="none" stroke="#63b8ff" d="M778.84,-169.84C765.55,-161.66 746.36,-149.86 730.98,-140.4"/>
<polygon fill="#63b8ff" stroke="#63b8ff" points="733.16,-137.63 722.81,-135.37 729.5,-143.59 733.16,-137.63"/>
</a>
</g>
</g>
<!-- Node18 -->
<g id="Node000018" class="node">
<title>Node18</title>
<g id="a_Node000018"><a xlink:title=" ">
<polygon fill="#e0e0e0" stroke="#999999" points="779.25,-134.25 748.25,-134.25 748.25,-113.5 779.25,-113.5 779.25,-134.25"/>
<text text-anchor="middle" x="763.75" y="-120.75" font-family="Helvetica,sans-Serif" font-size="10.00">list</text>
</a>
</g>
</g>
<!-- Node2&#45;&gt;Node18 -->
<g id="edge18_Node000002_Node000018" class="edge">
<title>Node2&#45;&gt;Node18</title>
<g id="a_edge18_Node000002_Node000018"><a xlink:title=" ">
<path fill="none" stroke="#63b8ff" d="M789.21,-169.84C785.24,-162.83 779.76,-153.16 774.91,-144.58"/>
<polygon fill="#63b8ff" stroke="#63b8ff" points="777.96,-142.87 769.99,-135.9 771.87,-146.32 777.96,-142.87"/>
</a>
</g>
</g>
<!-- Node19 -->
<g id="Node000019" class="node">
<title>Node19</title>
<g id="a_Node000019"><a xlink:title=" ">
<polygon fill="#e0e0e0" stroke="#999999" points="854.38,-134.25 797.12,-134.25 797.12,-113.5 854.38,-113.5 854.38,-134.25"/>
<text text-anchor="middle" x="825.75" y="-120.75" font-family="Helvetica,sans-Serif" font-size="10.00">memory</text>
</a>
</g>
</g>
<!-- Node2&#45;&gt;Node19 -->
<g id="edge19_Node000002_Node000019" class="edge">
<title>Node2&#45;&gt;Node19</title>
<g id="a_edge19_Node000002_Node000019"><a xlink:title=" ">
<path fill="none" stroke="#63b8ff" d="M800.29,-169.84C804.26,-162.83 809.74,-153.16 814.59,-144.58"/>
<polygon fill="#63b8ff" stroke="#63b8ff" points="817.63,-146.32 819.51,-135.9 811.54,-142.87 817.63,-146.32"/>
</a>
</g>
</g>
<!-- Node20 -->
<g id="Node000020" class="node">
<title>Node20</title>
<g id="a_Node000020"><a xlink:title=" ">
<polygon fill="#e0e0e0" stroke="#999999" points="928.62,-134.25 872.88,-134.25 872.88,-113.5 928.62,-113.5 928.62,-134.25"/>
<text text-anchor="middle" x="900.75" y="-120.75" font-family="Helvetica,sans-Serif" font-size="10.00">optional</text>
</a>
</g>
</g>
<!-- Node2&#45;&gt;Node20 -->
<g id="edge20_Node000002_Node000020" class="edge">
<title>Node2&#45;&gt;Node20</title>
<g id="a_edge20_Node000002_Node000020"><a xlink:title=" ">
<path fill="none" stroke="#63b8ff" d="M813.7,-169.84C829.83,-161.51 853.25,-149.41 871.74,-139.86"/>
<polygon fill="#63b8ff" stroke="#63b8ff" points="873.34,-142.97 880.62,-135.27 870.13,-136.75 873.34,-142.97"/>
</a>
</g>
</g>
<!-- Node21 -->
<g id="Node000021" class="node">
<title>Node21</title>
<g id="a_Node000021"><a xlink:title=" ">
<polygon fill="#e0e0e0" stroke="#999999" points="1018.5,-134.25 947,-134.25 947,-113.5 1018.5,-113.5 1018.5,-134.25"/>
<text text-anchor="middle" x="982.75" y="-120.75" font-family="Helvetica,sans-Serif" font-size="10.00">sys/types.h</text>
</a>
</g>
</g>
<!-- Node2&#45;&gt;Node21 -->
<g id="edge21_Node000002_Node000021" class="edge">
<title>Node2&#45;&gt;Node21</title>
<g id="a_edge21_Node000002_Node000021"><a xlink:title=" ">
<path fill="none" stroke="#63b8ff" d="M828.36,-169.84C859.01,-160.91 904.51,-147.66 938.19,-137.85"/>
<polygon fill="#63b8ff" stroke="#63b8ff" points="939.04,-141.25 947.66,-135.09 937.08,-134.53 939.04,-141.25"/>
</a>
</g>
</g>
<!-- Node22 -->
<g id="Node000022" class="node">
<title>Node22</title>
<g id="a_Node000022"><a xlink:title=" ">
<polygon fill="#e0e0e0" stroke="#999999" points="1099.38,-134.25 1036.12,-134.25 1036.12,-113.5 1099.38,-113.5 1099.38,-134.25"/>
<text text-anchor="middle" x="1067.75" y="-120.75" font-family="Helvetica,sans-Serif" font-size="10.00">sys/stat.h</text>
</a>
</g>
</g>
<!-- Node2&#45;&gt;Node22 -->
<g id="edge22_Node000002_Node000022" class="edge">
<title>Node2&#45;&gt;Node22</title>
<g id="a_edge22_Node000002_Node000022"><a xlink:title=" ">
<path fill="none" stroke="#63b8ff" d="M844.86,-170.43C889.63,-162.1 957.29,-149.18 1024.65,-134.86"/>
<polygon fill="#63b8ff" stroke="#63b8ff" points="1025.37,-138.29 1034.42,-132.77 1023.91,-131.44 1025.37,-138.29"/>
</a>
</g>
</g>
<!-- Node23 -->
<g id="Node000023" class="node">
<title>Node23</title>
<g id="a_Node000023"><a xlink:title=" ">
<polygon fill="#e0e0e0" stroke="#999999" points="1164.12,-134.25 1117.38,-134.25 1117.38,-113.5 1164.12,-113.5 1164.12,-134.25"/>
<text text-anchor="middle" x="1140.75" y="-120.75" font-family="Helvetica,sans-Serif" font-size="10.00">fcntl.h</text>
</a>
</g>
</g>
<!-- Node2&#45;&gt;Node23 -->
<g id="edge23_Node000002_Node000023" class="edge">
<title>Node2&#45;&gt;Node23</title>
<g id="a_edge23_Node000002_Node000023"><a xlink:title=" ">
<path fill="none" stroke="#63b8ff" d="M844.63,-171.64C847.72,-171.16 850.78,-170.7 853.75,-170.25 963.4,-153.8 994.92,-158.1 1106.07,-134.59"/>
<polygon fill="#63b8ff" stroke="#63b8ff" points="1106.56,-138.06 1115.6,-132.54 1105.09,-131.22 1106.56,-138.06"/>
</a>
</g>
</g>
<!-- Node24 -->
<g id="Node000024" class="node">
<title>Node24</title>
<g id="a_Node000024"><a xlink:title=" ">
<polygon fill="#e0e0e0" stroke="#999999" points="1263,-134.25 1182.5,-134.25 1182.5,-113.5 1263,-113.5 1263,-134.25"/>
<text text-anchor="middle" x="1222.75" y="-120.75" font-family="Helvetica,sans-Serif" font-size="10.00">system_error</text>
</a>
</g>
</g>
<!-- Node2&#45;&gt;Node24 -->
<g id="edge24_Node000002_Node000024" class="edge">
<title>Node2&#45;&gt;Node24</title>
<g id="a_edge24_Node000002_Node000024"><a xlink:title=" ">
<path fill="none" stroke="#63b8ff" d="M844.62,-171.54C847.71,-171.09 850.77,-170.65 853.75,-170.25 991.54,-151.54 1029.73,-155.2 1170.89,-134.42"/>
<polygon fill="#63b8ff" stroke="#63b8ff" points="1171.26,-137.91 1180.64,-132.97 1170.23,-130.98 1171.26,-137.91"/>
</a>
</g>
</g>
<!-- Node4 -->
<g id="Node000004" class="node">
<title>Node4</title>
<g id="a_Node000004"><a xlink:title=" ">
<polygon fill="#e0e0e0" stroke="#999999" points="131.5,-77.5 0,-77.5 0,-56.75 131.5,-56.75 131.5,-77.5"/>
<text text-anchor="middle" x="65.75" y="-64" font-family="Helvetica,sans-Serif" font-size="10.00">nlohmann/json_fwd.hpp</text>
</a>
</g>
</g>
<!-- Node3&#45;&gt;Node4 -->
<g id="edge3_Node000003_Node000004" class="edge">
<title>Node3&#45;&gt;Node4</title>
<g id="a_edge3_Node000003_Node000004"><a xlink:title=" ">
<path fill="none" stroke="#63b8ff" d="M162.65,-113.09C144.36,-104.6 117.65,-92.2 96.89,-82.58"/>
<polygon fill="#63b8ff" stroke="#63b8ff" points="98.58,-79.5 88.04,-78.47 95.63,-85.85 98.58,-79.5"/>
</a>
</g>
</g>
<!-- Node3&#45;&gt;Node5 -->
<g id="edge4_Node000003_Node000005" class="edge">
<title>Node3&#45;&gt;Node5</title>
<g id="a_edge4_Node000003_Node000005"><a xlink:title=" ">
<path fill="none" stroke="#63b8ff" d="M183.75,-113.09C183.75,-106.47 183.75,-97.47 183.75,-89.27"/>
<polygon fill="#63b8ff" stroke="#63b8ff" points="187.25,-89.34 183.75,-79.34 180.25,-89.34 187.25,-89.34"/>
</a>
</g>
</g>
<!-- Node7 -->
<g id="Node000007" class="node">
<title>Node7</title>
<g id="a_Node000007"><a xlink:href="comparator_8hh.html" target="_top" xlink:title=" ">
<polygon fill="white" stroke="#666666" points="367.88,-77.5 235.62,-77.5 235.62,-56.75 367.88,-56.75 367.88,-77.5"/>
<text text-anchor="middle" x="301.75" y="-64" font-family="Helvetica,sans-Serif" font-size="10.00">lix/libutil/comparator.hh</text>
</a>
</g>
</g>
<!-- Node6&#45;&gt;Node7 -->
<g id="edge6_Node000006_Node000007" class="edge">
<title>Node6&#45;&gt;Node7</title>
<g id="a_edge6_Node000006_Node000007"><a xlink:title=" ">
<path fill="none" stroke="#63b8ff" d="M445.46,-113.09C417.06,-104.2 374.94,-91.02 343.64,-81.23"/>
<polygon fill="#63b8ff" stroke="#63b8ff" points="345.09,-78.02 334.5,-78.37 343,-84.7 345.09,-78.02"/>
</a>
</g>
</g>
<!-- Node9 -->
<g id="Node000009" class="node">
<title>Node9</title>
<g id="a_Node000009"><a xlink:title=" ">
<polygon fill="#e0e0e0" stroke="#999999" points="417.25,-77.5 386.25,-77.5 386.25,-56.75 417.25,-56.75 417.25,-77.5"/>
<text text-anchor="middle" x="401.75" y="-64" font-family="Helvetica,sans-Serif" font-size="10.00">set</text>
</a>
</g>
</g>
<!-- Node6&#45;&gt;Node9 -->
<g id="edge8_Node000006_Node000009" class="edge">
<title>Node6&#45;&gt;Node9</title>
<g id="a_edge8_Node000006_Node000009"><a xlink:title=" ">
<path fill="none" stroke="#63b8ff" d="M463.34,-113.09C452.46,-105.15 436.89,-93.78 424.13,-84.46"/>
<polygon fill="#63b8ff" stroke="#63b8ff" points="426.41,-81.79 416.26,-78.72 422.28,-87.44 426.41,-81.79"/>
</a>
</g>
</g>
<!-- Node10 -->
<g id="Node000010" class="node">
<title>Node10</title>
<g id="a_Node000010"><a xlink:title=" ">
<polygon fill="#e0e0e0" stroke="#999999" points="507.88,-77.5 435.62,-77.5 435.62,-56.75 507.88,-56.75 507.88,-77.5"/>
<text text-anchor="middle" x="471.75" y="-64" font-family="Helvetica,sans-Serif" font-size="10.00">string_view</text>
</a>
</g>
</g>
<!-- Node6&#45;&gt;Node10 -->
<g id="edge9_Node000006_Node000010" class="edge">
<title>Node6&#45;&gt;Node10</title>
<g id="a_edge9_Node000006_Node000010"><a xlink:title=" ">
<path fill="none" stroke="#63b8ff" d="M475.86,-113.09C475.25,-106.47 474.43,-97.47 473.68,-89.27"/>
<polygon fill="#63b8ff" stroke="#63b8ff" points="477.17,-88.98 472.77,-79.34 470.2,-89.61 477.17,-88.98"/>
</a>
</g>
</g>
<!-- Node11 -->
<g id="Node000011" class="node">
<title>Node11</title>
<g id="a_Node000011"><a xlink:title=" ">
<polygon fill="#e0e0e0" stroke="#999999" points="637.62,-77.5 593.88,-77.5 593.88,-56.75 637.62,-56.75 637.62,-77.5"/>
<text text-anchor="middle" x="615.75" y="-64" font-family="Helvetica,sans-Serif" font-size="10.00">string</text>
</a>
</g>
</g>
<!-- Node6&#45;&gt;Node11 -->
<g id="edge10_Node000006_Node000011" class="edge">
<title>Node6&#45;&gt;Node11</title>
<g id="a_edge10_Node000006_Node000011"><a xlink:title=" ">
<path fill="none" stroke="#63b8ff" d="M501.6,-113.09C524.32,-104.14 558.08,-90.84 582.99,-81.03"/>
<polygon fill="#63b8ff" stroke="#63b8ff" points="583.98,-84.4 592,-77.48 581.41,-77.89 583.98,-84.4"/>
</a>
</g>
</g>
<!-- Node12 -->
<g id="Node000012" class="node">
<title>Node12</title>
<g id="a_Node000012"><a xlink:title=" ">
<polygon fill="#e0e0e0" stroke="#999999" points="576,-77.5 525.5,-77.5 525.5,-56.75 576,-56.75 576,-77.5"/>
<text text-anchor="middle" x="550.75" y="-64" font-family="Helvetica,sans-Serif" font-size="10.00">variant</text>
</a>
</g>
</g>
<!-- Node6&#45;&gt;Node12 -->
<g id="edge11_Node000006_Node000012" class="edge">
<title>Node6&#45;&gt;Node12</title>
<g id="a_edge11_Node000006_Node000012"><a xlink:title=" ">
<path fill="none" stroke="#63b8ff" d="M489.98,-113.09C500.71,-105.15 516.07,-93.78 528.67,-84.46"/>
<polygon fill="#63b8ff" stroke="#63b8ff" points="530.46,-87.49 536.42,-78.73 526.3,-81.86 530.46,-87.49"/>
</a>
</g>
</g>
<!-- Node8 -->
<g id="Node000008" class="node">
<title>Node8</title>
<g id="a_Node000008"><a xlink:title=" ">
<polygon fill="#e0e0e0" stroke="#999999" points="322.12,-20.75 281.38,-20.75 281.38,0 322.12,0 322.12,-20.75"/>
<text text-anchor="middle" x="301.75" y="-7.25" font-family="Helvetica,sans-Serif" font-size="10.00">tuple</text>
</a>
</g>
</g>
<!-- Node7&#45;&gt;Node8 -->
<g id="edge7_Node000007_Node000008" class="edge">
<title>Node7&#45;&gt;Node8</title>
<g id="a_edge7_Node000007_Node000008"><a xlink:title=" ">
<path fill="none" stroke="#63b8ff" d="M301.75,-56.34C301.75,-49.72 301.75,-40.72 301.75,-32.52"/>
<polygon fill="#63b8ff" stroke="#63b8ff" points="305.25,-32.59 301.75,-22.59 298.25,-32.59 305.25,-32.59"/>
</a>
</g>
</g>
<!-- Node13&#45;&gt;Node11 -->
<g id="edge14_Node000013_Node000011" class="edge">
<title>Node13&#45;&gt;Node11</title>
<g id="a_edge14_Node000013_Node000011"><a xlink:title=" ">
<path fill="none" stroke="#63b8ff" d="M615.75,-113.09C615.75,-106.47 615.75,-97.47 615.75,-89.27"/>
<polygon fill="#63b8ff" stroke="#63b8ff" points="619.25,-89.34 615.75,-79.34 612.25,-89.34 619.25,-89.34"/>
</a>
</g>
</g>
<!-- Node14 -->
<g id="Node000014" class="node">
<title>Node14</title>
<g id="a_Node000014"><a xlink:title=" ">
<polygon fill="#e0e0e0" stroke="#999999" points="715.5,-77.5 656,-77.5 656,-56.75 715.5,-56.75 715.5,-77.5"/>
<text text-anchor="middle" x="685.75" y="-64" font-family="Helvetica,sans-Serif" font-size="10.00">iostream</text>
</a>
</g>
</g>
<!-- Node13&#45;&gt;Node14 -->
<g id="edge13_Node000013_Node000014" class="edge">
<title>Node13&#45;&gt;Node14</title>
<g id="a_edge13_Node000013_Node000014"><a xlink:title=" ">
<path fill="none" stroke="#63b8ff" d="M628.26,-113.09C638.32,-105.22 652.66,-94 664.51,-84.74"/>
<polygon fill="#63b8ff" stroke="#63b8ff" points="666.43,-87.68 672.15,-78.76 662.12,-82.16 666.43,-87.68"/>
</a>
</g>
</g>
<!-- Node15 -->
<g id="Node000015" class="node">
<title>Node15</title>
<g id="a_Node000015"><a xlink:title=" ">
<polygon fill="#e0e0e0" stroke="#999999" points="833.75,-77.5 733.75,-77.5 733.75,-56.75 833.75,-56.75 833.75,-77.5"/>
<text text-anchor="middle" x="783.75" y="-64" font-family="Helvetica,sans-Serif" font-size="10.00">boost/format.hpp</text>
</a>
</g>
</g>
<!-- Node13&#45;&gt;Node15 -->
<g id="edge15_Node000013_Node000015" class="edge">
<title>Node13&#45;&gt;Node15</title>
<g id="a_edge15_Node000013_Node000015"><a xlink:title=" ">
<path fill="none" stroke="#63b8ff" d="M645.79,-113.09C672.94,-104.24 713.13,-91.14 743.14,-81.36"/>
<polygon fill="#63b8ff" stroke="#63b8ff" points="743.83,-84.82 752.25,-78.39 741.66,-78.16 743.83,-84.82"/>
</a>
</g>
</g>
<!-- Node16 -->
<g id="Node000016" class="node">
<title>Node16</title>
<g id="a_Node000016"><a xlink:href="ansicolor_8hh.html" target="_top" xlink:title="Some ANSI escape sequences.">
<polygon fill="white" stroke="#666666" points="971.88,-77.5 851.62,-77.5 851.62,-56.75 971.88,-56.75 971.88,-77.5"/>
<text text-anchor="middle" x="911.75" y="-64" font-family="Helvetica,sans-Serif" font-size="10.00">lix/libutil/ansicolor.hh</text>
</a>
</g>
</g>
<!-- Node13&#45;&gt;Node16 -->
<g id="edge16_Node000013_Node000016" class="edge">
<title>Node13&#45;&gt;Node16</title>
<g id="a_edge16_Node000013_Node000016"><a xlink:title=" ">
<path fill="none" stroke="#63b8ff" d="M662.98,-114.14C712.84,-104.92 791.75,-90.32 847.3,-80.05"/>
<polygon fill="#63b8ff" stroke="#63b8ff" points="847.75,-83.52 856.95,-78.26 846.48,-76.64 847.75,-83.52"/>
</a>
</g>
</g>
</g>
</svg>
