<?xml version="1.0" encoding="UTF-8" standalone="no"?>
<!DOCTYPE svg PUBLIC "-//W3C//DTD SVG 1.1//EN"
 "http://www.w3.org/Graphics/SVG/1.1/DTD/svg11.dtd">
<!-- Generated by graphviz version 12.2.1 (0)
 -->
<!-- Title: lix/libexpr/value.hh Pages: 1 -->
<svg width="1714pt" height="477pt"
 viewBox="0.00 0.00 1714.12 477.00" xmlns="http://www.w3.org/2000/svg" xmlns:xlink="http://www.w3.org/1999/xlink">
<g id="graph0" class="graph" transform="scale(1 1) rotate(0) translate(4 473)">
<title>lix/libexpr/value.hh</title>
<!-- Node1 -->
<g id="Node000001" class="node">
<title>Node1</title>
<g id="a_Node000001"><a xlink:title=" ">
<polygon fill="#999999" stroke="#666666" points="913,-469 803.25,-469 803.25,-448.25 913,-448.25 913,-469"/>
<text text-anchor="middle" x="858.12" y="-455.5" font-family="Helvetica,sans-Serif" font-size="10.00">lix/libexpr/value.hh</text>
</a>
</g>
</g>
<!-- Node2 -->
<g id="Node000002" class="node">
<title>Node2</title>
<g id="a_Node000002"><a xlink:href="libexpr_2eval_8hh.html" target="_top" xlink:title=" ">
<polygon fill="white" stroke="#666666" points="851,-298.75 747.25,-298.75 747.25,-278 851,-278 851,-298.75"/>
<text text-anchor="middle" x="799.12" y="-285.25" font-family="Helvetica,sans-Serif" font-size="10.00">lix/libexpr/eval.hh</text>
</a>
</g>
</g>
<!-- Node1&#45;&gt;Node2 -->
<g id="edge1_Node000001_Node000002" class="edge">
<title>Node1&#45;&gt;Node2</title>
<g id="a_edge1_Node000001_Node000002"><a xlink:title=" ">
<path fill="none" stroke="#63b8ff" d="M851.03,-437.38C838.29,-401.06 812,-326.08 802.58,-299.22"/>
<polygon fill="#63b8ff" stroke="#63b8ff" points="847.67,-438.39 854.28,-446.67 854.28,-436.07 847.67,-438.39"/>
</a>
</g>
</g>
<!-- Node16 -->
<g id="Node000016" class="node">
<title>Node16</title>
<g id="a_Node000016"><a xlink:href="libexpr_2flake_2flake_8hh.html" target="_top" xlink:title=" ">
<polygon fill="white" stroke="#666666" points="1552.25,-235.62 1420,-235.62 1420,-214.88 1552.25,-214.88 1552.25,-235.62"/>
<text text-anchor="middle" x="1486.12" y="-222.12" font-family="Helvetica,sans-Serif" font-size="10.00">lix/libexpr/flake/flake.hh</text>
</a>
</g>
</g>
<!-- Node1&#45;&gt;Node16 -->
<g id="edge33_Node000001_Node000016" class="edge">
<title>Node1&#45;&gt;Node16</title>
<g id="a_edge33_Node000001_Node000016"><a xlink:title=" ">
<path fill="none" stroke="#63b8ff" d="M865.93,-437.32C872.61,-422.55 883.62,-403.16 899.12,-391.5 944.01,-357.72 1317.98,-266.36 1444.49,-236.12"/>
<polygon fill="#63b8ff" stroke="#63b8ff" points="862.7,-435.98 862.08,-446.55 869.16,-438.67 862.7,-435.98"/>
</a>
</g>
</g>
<!-- Node22 -->
<g id="Node000022" class="node">
<title>Node22</title>
<g id="a_Node000022"><a xlink:href="nixexpr_8hh.html" target="_top" xlink:title=" ">
<polygon fill="white" stroke="#666666" points="771.12,-412.25 653.12,-412.25 653.12,-391.5 771.12,-391.5 771.12,-412.25"/>
<text text-anchor="middle" x="712.12" y="-398.75" font-family="Helvetica,sans-Serif" font-size="10.00">lix/libexpr/nixexpr.hh</text>
</a>
</g>
</g>
<!-- Node1&#45;&gt;Node22 -->
<g id="edge34_Node000001_Node000022" class="edge">
<title>Node1&#45;&gt;Node22</title>
<g id="a_edge34_Node000001_Node000022"><a xlink:title=" ">
<path fill="none" stroke="#63b8ff" d="M821.44,-443.87C795.44,-434.12 761.18,-421.27 738,-412.58"/>
<polygon fill="#63b8ff" stroke="#63b8ff" points="820.01,-447.07 830.61,-447.31 822.47,-440.52 820.01,-447.07"/>
</a>
</g>
</g>
<!-- Node24 -->
<g id="Node000024" class="node">
<title>Node24</title>
<g id="a_Node000024"><a xlink:href="print-ambiguous_8hh.html" target="_top" xlink:title=" ">
<polygon fill="white" stroke="#666666" points="1070.62,-412.25 907.62,-412.25 907.62,-391.5 1070.62,-391.5 1070.62,-412.25"/>
<text text-anchor="middle" x="989.12" y="-398.75" font-family="Helvetica,sans-Serif" font-size="10.00">lix/libexpr/print&#45;ambiguous.hh</text>
</a>
</g>
</g>
<!-- Node1&#45;&gt;Node24 -->
<g id="edge40_Node000001_Node000024" class="edge">
<title>Node1&#45;&gt;Node24</title>
<g id="a_edge40_Node000001_Node000024"><a xlink:title=" ">
<path fill="none" stroke="#63b8ff" d="M891.98,-443.47C915.2,-433.77 945.39,-421.16 965.91,-412.58"/>
<polygon fill="#63b8ff" stroke="#63b8ff" points="890.82,-440.17 882.94,-447.25 893.52,-446.63 890.82,-440.17"/>
</a>
</g>
</g>
<!-- Node3 -->
<g id="Node000003" class="node">
<title>Node3</title>
<g id="a_Node000003"><a xlink:href="cmd-profiles_8hh.html" target="_top" xlink:title=" ">
<polygon fill="white" stroke="#666666" points="778.5,-166.12 635.75,-166.12 635.75,-145.38 778.5,-145.38 778.5,-166.12"/>
<text text-anchor="middle" x="707.12" y="-152.62" font-family="Helvetica,sans-Serif" font-size="10.00">lix/libcmd/cmd&#45;profiles.hh</text>
</a>
</g>
</g>
<!-- Node2&#45;&gt;Node3 -->
<g id="edge2_Node000002_Node000003" class="edge">
<title>Node2&#45;&gt;Node3</title>
<g id="a_edge2_Node000002_Node000003"><a xlink:title=" ">
<path fill="none" stroke="#63b8ff" d="M862.59,-278.35C863.44,-278.23 864.29,-278.11 865.12,-278 990.46,-260.92 1225.11,-303.09 1141.12,-208.5 1117.51,-181.9 895.67,-166.5 778.64,-160.17"/>
<polygon fill="#63b8ff" stroke="#63b8ff" points="862.28,-274.86 852.86,-279.69 863.24,-281.79 862.28,-274.86"/>
</a>
</g>
</g>
<!-- Node4 -->
<g id="Node000004" class="node">
<title>Node4</title>
<g id="a_Node000004"><a xlink:href="common-eval-args_8hh.html" target="_top" xlink:title=" ">
<polygon fill="white" stroke="#666666" points="1228.38,-172.5 1093.88,-172.5 1093.88,-139 1228.38,-139 1228.38,-172.5"/>
<text text-anchor="start" x="1101.88" y="-159" font-family="Helvetica,sans-Serif" font-size="10.00">lix/libcmd/common&#45;eval</text>
<text text-anchor="middle" x="1161.12" y="-146.25" font-family="Helvetica,sans-Serif" font-size="10.00">&#45;args.hh</text>
</a>
</g>
</g>
<!-- Node2&#45;&gt;Node4 -->
<g id="edge3_Node000002_Node000004" class="edge">
<title>Node2&#45;&gt;Node4</title>
<g id="a_edge3_Node000002_Node000004"><a xlink:title=" ">
<path fill="none" stroke="#63b8ff" d="M862.59,-278.33C863.44,-278.22 864.29,-278.11 865.12,-278 931.48,-269.29 1119.72,-292.07 1164.12,-242 1180.83,-223.16 1174.03,-191.75 1167.57,-172.77"/>
<polygon fill="#63b8ff" stroke="#63b8ff" points="862.29,-274.84 852.85,-279.65 863.23,-281.78 862.29,-274.84"/>
</a>
</g>
</g>
<!-- Node6 -->
<g id="Node000006" class="node">
<title>Node6</title>
<g id="a_Node000006"><a xlink:href="installable-attr-path_8hh.html" target="_top" xlink:title=" ">
<polygon fill="white" stroke="#666666" points="1381.12,-33.5 1263.12,-33.5 1263.12,0 1381.12,0 1381.12,-33.5"/>
<text text-anchor="start" x="1271.12" y="-20" font-family="Helvetica,sans-Serif" font-size="10.00">lix/libcmd/installable</text>
<text text-anchor="middle" x="1322.12" y="-7.25" font-family="Helvetica,sans-Serif" font-size="10.00">&#45;attr&#45;path.hh</text>
</a>
</g>
</g>
<!-- Node2&#45;&gt;Node6 -->
<g id="edge8_Node000002_Node000006" class="edge">
<title>Node2&#45;&gt;Node6</title>
<g id="a_edge8_Node000002_Node000006"><a xlink:title=" ">
<path fill="none" stroke="#63b8ff" d="M735.56,-286.33C606.87,-283.54 325.23,-273.85 296.12,-242 278.63,-222.85 297.13,-153.01 311.12,-139 378.84,-71.24 1056.64,-31.3 1262.89,-20.65"/>
<polygon fill="#63b8ff" stroke="#63b8ff" points="735.2,-289.82 745.27,-286.53 735.34,-282.82 735.2,-289.82"/>
</a>
</g>
</g>
<!-- Node8 -->
<g id="Node000008" class="node">
<title>Node8</title>
<g id="a_Node000008"><a xlink:href="installable-flake_8hh.html" target="_top" xlink:title=" ">
<polygon fill="white" stroke="#666666" points="759.12,-103 641.12,-103 641.12,-69.5 759.12,-69.5 759.12,-103"/>
<text text-anchor="start" x="649.12" y="-89.5" font-family="Helvetica,sans-Serif" font-size="10.00">lix/libcmd/installable</text>
<text text-anchor="middle" x="700.12" y="-76.75" font-family="Helvetica,sans-Serif" font-size="10.00">&#45;flake.hh</text>
</a>
</g>
</g>
<!-- Node2&#45;&gt;Node8 -->
<g id="edge9_Node000002_Node000008" class="edge">
<title>Node2&#45;&gt;Node8</title>
<g id="a_edge9_Node000002_Node000008"><a xlink:title=" ">
<path fill="none" stroke="#63b8ff" d="M735.79,-286.04C611.8,-282.75 346.64,-272.24 319.12,-242 222.67,-135.99 511.78,-101.08 641.07,-90.95"/>
<polygon fill="#63b8ff" stroke="#63b8ff" points="735.38,-289.53 745.47,-286.28 735.56,-282.53 735.38,-289.53"/>
</a>
</g>
</g>
<!-- Node9 -->
<g id="Node000009" class="node">
<title>Node9</title>
<g id="a_Node000009"><a xlink:href="installable-value_8hh.html" target="_top" xlink:title=" ">
<polygon fill="white" stroke="#666666" points="1500.12,-172.5 1382.12,-172.5 1382.12,-139 1500.12,-139 1500.12,-172.5"/>
<text text-anchor="start" x="1390.12" y="-159" font-family="Helvetica,sans-Serif" font-size="10.00">lix/libcmd/installable</text>
<text text-anchor="middle" x="1441.12" y="-146.25" font-family="Helvetica,sans-Serif" font-size="10.00">&#45;value.hh</text>
</a>
</g>
</g>
<!-- Node2&#45;&gt;Node9 -->
<g id="edge10_Node000002_Node000009" class="edge">
<title>Node2&#45;&gt;Node9</title>
<g id="a_edge10_Node000002_Node000009"><a xlink:title=" ">
<path fill="none" stroke="#63b8ff" d="M862.58,-278.28C863.44,-278.18 864.28,-278.09 865.12,-278 977.66,-266.03 1272.96,-294.67 1373.12,-242 1402.28,-226.67 1423.22,-192.79 1433.64,-172.67"/>
<polygon fill="#63b8ff" stroke="#63b8ff" points="862.34,-274.78 852.82,-279.44 863.17,-281.73 862.34,-274.78"/>
</a>
</g>
</g>
<!-- Node10 -->
<g id="Node000010" class="node">
<title>Node10</title>
<g id="a_Node000010"><a xlink:href="installables_8hh.html" target="_top" xlink:title=" ">
<polygon fill="white" stroke="#666666" points="1364.25,-235.62 1226,-235.62 1226,-214.88 1364.25,-214.88 1364.25,-235.62"/>
<text text-anchor="middle" x="1295.12" y="-222.12" font-family="Helvetica,sans-Serif" font-size="10.00">lix/libcmd/installables.hh</text>
</a>
</g>
</g>
<!-- Node2&#45;&gt;Node10 -->
<g id="edge14_Node000002_Node000010" class="edge">
<title>Node2&#45;&gt;Node10</title>
<g id="a_edge14_Node000002_Node000010"><a xlink:title=" ">
<path fill="none" stroke="#63b8ff" d="M862.59,-278.31C863.44,-278.21 864.29,-278.1 865.12,-278 1019.02,-259.09 1058.71,-264.47 1212.12,-242 1223.44,-240.34 1235.57,-238.23 1246.96,-236.1"/>
<polygon fill="#63b8ff" stroke="#63b8ff" points="862.31,-274.82 852.84,-279.58 863.21,-281.76 862.31,-274.82"/>
</a>
</g>
</g>
<!-- Node12 -->
<g id="Node000012" class="node">
<title>Node12</title>
<g id="a_Node000012"><a xlink:href="libcmd_2repl_8hh.html" target="_top" xlink:title=" ">
<polygon fill="white" stroke="#666666" points="570.5,-235.62 469.75,-235.62 469.75,-214.88 570.5,-214.88 570.5,-235.62"/>
<text text-anchor="middle" x="520.12" y="-222.12" font-family="Helvetica,sans-Serif" font-size="10.00">lix/libcmd/repl.hh</text>
</a>
</g>
</g>
<!-- Node2&#45;&gt;Node12 -->
<g id="edge17_Node000002_Node000012" class="edge">
<title>Node2&#45;&gt;Node12</title>
<g id="a_edge17_Node000002_Node000012"><a xlink:title=" ">
<path fill="none" stroke="#63b8ff" d="M736.24,-275.4C692.12,-266.76 631.84,-254.46 579.12,-242 571.49,-240.2 563.34,-238.12 555.61,-236.08"/>
<polygon fill="#63b8ff" stroke="#63b8ff" points="735.41,-278.81 745.89,-277.28 736.75,-271.93 735.41,-278.81"/>
</a>
</g>
</g>
<!-- Node13 -->
<g id="Node000013" class="node">
<title>Node13</title>
<g id="a_Node000013"><a xlink:href="attr-path_8hh.html" target="_top" xlink:title=" ">
<polygon fill="white" stroke="#666666" points="713.88,-235.62 588.38,-235.62 588.38,-214.88 713.88,-214.88 713.88,-235.62"/>
<text text-anchor="middle" x="651.12" y="-222.12" font-family="Helvetica,sans-Serif" font-size="10.00">lix/libexpr/attr&#45;path.hh</text>
</a>
</g>
</g>
<!-- Node2&#45;&gt;Node13 -->
<g id="edge18_Node000002_Node000013" class="edge">
<title>Node2&#45;&gt;Node13</title>
<g id="a_edge18_Node000002_Node000013"><a xlink:title=" ">
<path fill="none" stroke="#63b8ff" d="M764.97,-273.27C737.36,-261.86 699.2,-246.11 674.84,-236.05"/>
<polygon fill="#63b8ff" stroke="#63b8ff" points="763.37,-276.39 773.95,-276.98 766.04,-269.92 763.37,-276.39"/>
</a>
</g>
</g>
<!-- Node14 -->
<g id="Node000014" class="node">
<title>Node14</title>
<g id="a_Node000014"><a xlink:href="eval-cache_8hh.html" target="_top" xlink:title=" ">
<polygon fill="white" stroke="#666666" points="1706.12,-235.62 1570.12,-235.62 1570.12,-214.88 1706.12,-214.88 1706.12,-235.62"/>
<text text-anchor="middle" x="1638.12" y="-222.12" font-family="Helvetica,sans-Serif" font-size="10.00">lix/libexpr/eval&#45;cache.hh</text>
</a>
</g>
</g>
<!-- Node2&#45;&gt;Node14 -->
<g id="edge19_Node000002_Node000014" class="edge">
<title>Node2&#45;&gt;Node14</title>
<g id="a_edge19_Node000002_Node000014"><a xlink:title=" ">
<path fill="none" stroke="#63b8ff" d="M862.47,-286.64C993.47,-284.46 1303.48,-275.85 1561.12,-242 1572.35,-240.52 1584.4,-238.35 1595.54,-236.09"/>
<polygon fill="#63b8ff" stroke="#63b8ff" points="862.56,-283.14 852.62,-286.8 862.67,-290.14 862.56,-283.14"/>
</a>
</g>
</g>
<!-- Node15 -->
<g id="Node000015" class="node">
<title>Node15</title>
<g id="a_Node000015"><a xlink:href="eval-inline_8hh.html" target="_top" xlink:title=" ">
<polygon fill="white" stroke="#666666" points="866.38,-235.62 731.88,-235.62 731.88,-214.88 866.38,-214.88 866.38,-235.62"/>
<text text-anchor="middle" x="799.12" y="-222.12" font-family="Helvetica,sans-Serif" font-size="10.00">lix/libexpr/eval&#45;inline.hh</text>
</a>
</g>
</g>
<!-- Node2&#45;&gt;Node15 -->
<g id="edge23_Node000002_Node000015" class="edge">
<title>Node2&#45;&gt;Node15</title>
<g id="a_edge23_Node000002_Node000015"><a xlink:title=" ">
<path fill="none" stroke="#63b8ff" d="M792.68,-266.45C792,-256.06 792.46,-244.02 794.05,-235.84"/>
<polygon fill="#63b8ff" stroke="#63b8ff" points="789.17,-266.54 793.83,-276.05 796.12,-265.71 789.17,-266.54"/>
</a>
</g>
</g>
<!-- Node2&#45;&gt;Node16 -->
<g id="edge25_Node000002_Node000016" class="edge">
<title>Node2&#45;&gt;Node16</title>
<g id="a_edge25_Node000002_Node000016"><a xlink:title=" ">
<path fill="none" stroke="#63b8ff" d="M862.58,-278.27C863.44,-278.18 864.28,-278.09 865.12,-278 1104.8,-253.04 1167.2,-273.34 1406.12,-242 1417.63,-240.49 1429.98,-238.33 1441.44,-236.1"/>
<polygon fill="#63b8ff" stroke="#63b8ff" points="862.35,-274.77 852.82,-279.42 863.16,-281.73 862.35,-274.77"/>
</a>
</g>
</g>
<!-- Node17 -->
<g id="Node000017" class="node">
<title>Node17</title>
<g id="a_Node000017"><a xlink:href="function-trace_8hh.html" target="_top" xlink:title=" ">
<polygon fill="white" stroke="#666666" points="991.88,-242 884.38,-242 884.38,-208.5 991.88,-208.5 991.88,-242"/>
<text text-anchor="start" x="892.38" y="-228.5" font-family="Helvetica,sans-Serif" font-size="10.00">lix/libexpr/function</text>
<text text-anchor="middle" x="938.12" y="-215.75" font-family="Helvetica,sans-Serif" font-size="10.00">&#45;trace.hh</text>
</a>
</g>
</g>
<!-- Node2&#45;&gt;Node17 -->
<g id="edge27_Node000002_Node000017" class="edge">
<title>Node2&#45;&gt;Node17</title>
<g id="a_edge27_Node000002_Node000017"><a xlink:title=" ">
<path fill="none" stroke="#63b8ff" d="M831.72,-273.04C852.54,-263.89 879.59,-251.99 901.21,-242.48"/>
<polygon fill="#63b8ff" stroke="#63b8ff" points="830.59,-269.72 822.84,-276.94 833.41,-276.12 830.59,-269.72"/>
</a>
</g>
</g>
<!-- Node18 -->
<g id="Node000018" class="node">
<title>Node18</title>
<g id="a_Node000018"><a xlink:href="get-drvs_8hh.html" target="_top" xlink:title=" ">
<polygon fill="white" stroke="#666666" points="451.75,-235.62 328.5,-235.62 328.5,-214.88 451.75,-214.88 451.75,-235.62"/>
<text text-anchor="middle" x="390.12" y="-222.12" font-family="Helvetica,sans-Serif" font-size="10.00">lix/libexpr/get&#45;drvs.hh</text>
</a>
</g>
</g>
<!-- Node2&#45;&gt;Node18 -->
<g id="edge28_Node000002_Node000018" class="edge">
<title>Node2&#45;&gt;Node18</title>
<g id="a_edge28_Node000002_Node000018"><a xlink:title=" ">
<path fill="none" stroke="#63b8ff" d="M735.42,-280.46C667.28,-272.68 556.18,-258.89 461.12,-242 451.55,-240.3 441.32,-238.2 431.68,-236.09"/>
<polygon fill="#63b8ff" stroke="#63b8ff" points="734.96,-283.93 745.3,-281.57 735.75,-276.97 734.96,-283.93"/>
</a>
</g>
</g>
<!-- Node19 -->
<g id="Node000019" class="node">
<title>Node19</title>
<g id="a_Node000019"><a xlink:href="primops_8hh.html" target="_top" xlink:title=" ">
<polygon fill="white" stroke="#666666" points="1132.38,-235.62 1009.88,-235.62 1009.88,-214.88 1132.38,-214.88 1132.38,-235.62"/>
<text text-anchor="middle" x="1071.12" y="-222.12" font-family="Helvetica,sans-Serif" font-size="10.00">lix/libexpr/primops.hh</text>
</a>
</g>
</g>
<!-- Node2&#45;&gt;Node19 -->
<g id="edge30_Node000002_Node000019" class="edge">
<title>Node2&#45;&gt;Node19</title>
<g id="a_edge30_Node000002_Node000019"><a xlink:title=" ">
<path fill="none" stroke="#63b8ff" d="M853.88,-275.08C894.51,-265.96 951.28,-253.21 1001.12,-242 1009.63,-240.09 1018.72,-238.04 1027.44,-236.08"/>
<polygon fill="#63b8ff" stroke="#63b8ff" points="853.33,-271.62 844.34,-277.22 854.87,-278.45 853.33,-271.62"/>
</a>
</g>
</g>
<!-- Node20 -->
<g id="Node000020" class="node">
<title>Node20</title>
<g id="a_Node000020"><a xlink:href="value-to-json_8hh.html" target="_top" xlink:title=" ">
<polygon fill="white" stroke="#666666" points="108.25,-242 0,-242 0,-208.5 108.25,-208.5 108.25,-242"/>
<text text-anchor="start" x="8" y="-228.5" font-family="Helvetica,sans-Serif" font-size="10.00">lix/libexpr/value&#45;to</text>
<text text-anchor="middle" x="54.12" y="-215.75" font-family="Helvetica,sans-Serif" font-size="10.00">&#45;json.hh</text>
</a>
</g>
</g>
<!-- Node2&#45;&gt;Node20 -->
<g id="edge31_Node000002_Node000020" class="edge">
<title>Node2&#45;&gt;Node20</title>
<g id="a_edge31_Node000002_Node000020"><a xlink:title=" ">
<path fill="none" stroke="#63b8ff" d="M735.78,-286.92C614.81,-285.23 342.84,-277.43 117.12,-242 114.34,-241.56 111.5,-241.06 108.64,-240.51"/>
<polygon fill="#63b8ff" stroke="#63b8ff" points="735.46,-290.42 745.5,-287.05 735.55,-283.42 735.46,-290.42"/>
</a>
</g>
</g>
<!-- Node21 -->
<g id="Node000021" class="node">
<title>Node21</title>
<g id="a_Node000021"><a xlink:href="value-to-xml_8hh.html" target="_top" xlink:title=" ">
<polygon fill="white" stroke="#666666" points="234.25,-242 126,-242 126,-208.5 234.25,-208.5 234.25,-242"/>
<text text-anchor="start" x="134" y="-228.5" font-family="Helvetica,sans-Serif" font-size="10.00">lix/libexpr/value&#45;to</text>
<text text-anchor="middle" x="180.12" y="-215.75" font-family="Helvetica,sans-Serif" font-size="10.00">&#45;xml.hh</text>
</a>
</g>
</g>
<!-- Node2&#45;&gt;Node21 -->
<g id="edge32_Node000002_Node000021" class="edge">
<title>Node2&#45;&gt;Node21</title>
<g id="a_edge32_Node000002_Node000021"><a xlink:title=" ">
<path fill="none" stroke="#63b8ff" d="M735.36,-285.14C632.36,-280.85 423.22,-269.34 248.12,-242 243.69,-241.31 239.13,-240.49 234.55,-239.59"/>
<polygon fill="#63b8ff" stroke="#63b8ff" points="735.14,-288.63 745.28,-285.54 735.43,-281.64 735.14,-288.63"/>
</a>
</g>
</g>
<!-- Node5 -->
<g id="Node000005" class="node">
<title>Node5</title>
<g id="a_Node000005"><a xlink:href="command_8hh.html" target="_top" xlink:title=" ">
<polygon fill="white" stroke="#666666" points="1506.5,-96.62 1375.75,-96.62 1375.75,-75.88 1506.5,-75.88 1506.5,-96.62"/>
<text text-anchor="middle" x="1441.12" y="-83.12" font-family="Helvetica,sans-Serif" font-size="10.00">lix/libcmd/command.hh</text>
</a>
</g>
</g>
<!-- Node4&#45;&gt;Node5 -->
<g id="edge4_Node000004_Node000005" class="edge">
<title>Node4&#45;&gt;Node5</title>
<g id="a_edge4_Node000004_Node000005"><a xlink:title=" ">
<path fill="none" stroke="#63b8ff" d="M1239.11,-135.95C1291.36,-123.36 1358.05,-107.28 1400.18,-97.12"/>
<polygon fill="#63b8ff" stroke="#63b8ff" points="1238.56,-132.48 1229.66,-138.23 1240.21,-139.29 1238.56,-132.48"/>
</a>
</g>
</g>
<!-- Node4&#45;&gt;Node6 -->
<g id="edge7_Node000004_Node000006" class="edge">
<title>Node4&#45;&gt;Node6</title>
<g id="a_edge7_Node000004_Node000006"><a xlink:title=" ">
<path fill="none" stroke="#63b8ff" d="M1188.55,-131.42C1221.29,-103.55 1275.18,-57.7 1303.46,-33.63"/>
<polygon fill="#63b8ff" stroke="#63b8ff" points="1186.41,-128.64 1181.06,-137.79 1190.95,-133.97 1186.41,-128.64"/>
</a>
</g>
</g>
<!-- Node5&#45;&gt;Node6 -->
<g id="edge5_Node000005_Node000006" class="edge">
<title>Node5&#45;&gt;Node6</title>
<g id="a_edge5_Node000005_Node000006"><a xlink:title=" ">
<path fill="none" stroke="#63b8ff" d="M1414.01,-69.87C1395.04,-59.11 1369.75,-44.76 1350.5,-33.85"/>
<polygon fill="#63b8ff" stroke="#63b8ff" points="1412.08,-72.8 1422.5,-74.69 1415.53,-66.71 1412.08,-72.8"/>
</a>
</g>
</g>
<!-- Node7 -->
<g id="Node000007" class="node">
<title>Node7</title>
<g id="a_Node000007"><a xlink:href="nix_2daemon_8cc.html" target="_top" xlink:title=" ">
<polygon fill="white" stroke="#666666" points="1501.25,-27.12 1399,-27.12 1399,-6.38 1501.25,-6.38 1501.25,-27.12"/>
<text text-anchor="middle" x="1450.12" y="-13.62" font-family="Helvetica,sans-Serif" font-size="10.00">lix/nix/daemon.cc</text>
</a>
</g>
</g>
<!-- Node5&#45;&gt;Node7 -->
<g id="edge6_Node000005_Node000007" class="edge">
<title>Node5&#45;&gt;Node7</title>
<g id="a_edge6_Node000005_Node000007"><a xlink:title=" ">
<path fill="none" stroke="#63b8ff" d="M1443.9,-64.44C1445.55,-52.09 1447.56,-37.02 1448.84,-27.4"/>
<polygon fill="#63b8ff" stroke="#63b8ff" points="1440.47,-63.7 1442.61,-74.08 1447.41,-64.63 1440.47,-63.7"/>
</a>
</g>
</g>
<!-- Node9&#45;&gt;Node5 -->
<g id="edge11_Node000009_Node000005" class="edge">
<title>Node9&#45;&gt;Node5</title>
<g id="a_edge11_Node000009_Node000005"><a xlink:title=" ">
<path fill="none" stroke="#63b8ff" d="M1441.12,-127.28C1441.12,-116.58 1441.12,-105.01 1441.12,-97.07"/>
<polygon fill="#63b8ff" stroke="#63b8ff" points="1437.63,-127.24 1441.13,-137.24 1444.63,-127.24 1437.63,-127.24"/>
</a>
</g>
</g>
<!-- Node9&#45;&gt;Node6 -->
<g id="edge12_Node000009_Node000006" class="edge">
<title>Node9&#45;&gt;Node6</title>
<g id="a_edge12_Node000009_Node000006"><a xlink:title=" ">
<path fill="none" stroke="#63b8ff" d="M1402.01,-132.46C1389.84,-124.27 1377.03,-114.22 1367.12,-103 1348.63,-82.05 1335.12,-52.15 1327.95,-33.9"/>
<polygon fill="#63b8ff" stroke="#63b8ff" points="1399.99,-135.33 1410.29,-137.8 1403.78,-129.44 1399.99,-135.33"/>
</a>
</g>
</g>
<!-- Node9&#45;&gt;Node8 -->
<g id="edge13_Node000009_Node000008" class="edge">
<title>Node9&#45;&gt;Node8</title>
<g id="a_edge13_Node000009_Node000008"><a xlink:title=" ">
<path fill="none" stroke="#63b8ff" d="M1370.56,-138.75C1139.43,-104.11 875.2,-92.5 759.43,-88.81"/>
<polygon fill="#63b8ff" stroke="#63b8ff" points="1369.98,-142.21 1380.39,-140.25 1371.03,-135.29 1369.98,-142.21"/>
</a>
</g>
</g>
<!-- Node10&#45;&gt;Node9 -->
<g id="edge16_Node000010_Node000009" class="edge">
<title>Node10&#45;&gt;Node9</title>
<g id="a_edge16_Node000010_Node000009"><a xlink:title=" ">
<path fill="none" stroke="#63b8ff" d="M1326.75,-209.63C1350.1,-198.83 1381.89,-184.14 1406.02,-172.98"/>
<polygon fill="#63b8ff" stroke="#63b8ff" points="1325.34,-206.43 1317.73,-213.8 1328.27,-212.78 1325.34,-206.43"/>
</a>
</g>
</g>
<!-- Node11 -->
<g id="Node000011" class="node">
<title>Node11</title>
<g id="a_Node000011"><a xlink:href="installable-derived-path_8hh.html" target="_top" xlink:title=" ">
<polygon fill="white" stroke="#666666" points="1364.12,-172.5 1246.12,-172.5 1246.12,-139 1364.12,-139 1364.12,-172.5"/>
<text text-anchor="start" x="1254.12" y="-159" font-family="Helvetica,sans-Serif" font-size="10.00">lix/libcmd/installable</text>
<text text-anchor="middle" x="1305.12" y="-146.25" font-family="Helvetica,sans-Serif" font-size="10.00">&#45;derived&#45;path.hh</text>
</a>
</g>
</g>
<!-- Node10&#45;&gt;Node11 -->
<g id="edge15_Node000010_Node000011" class="edge">
<title>Node10&#45;&gt;Node11</title>
<g id="a_edge15_Node000010_Node000011"><a xlink:title=" ">
<path fill="none" stroke="#63b8ff" d="M1298.22,-203.38C1299.67,-193.57 1301.38,-182.05 1302.73,-172.92"/>
<polygon fill="#63b8ff" stroke="#63b8ff" points="1294.78,-202.68 1296.78,-213.08 1301.71,-203.7 1294.78,-202.68"/>
</a>
</g>
</g>
<!-- Node14&#45;&gt;Node5 -->
<g id="edge20_Node000014_Node000005" class="edge">
<title>Node14&#45;&gt;Node5</title>
<g id="a_edge20_Node000014_Node000005"><a xlink:title=" ">
<path fill="none" stroke="#63b8ff" d="M1614.66,-207.93C1573.3,-179.17 1488.61,-120.27 1455.16,-97.01"/>
<polygon fill="#63b8ff" stroke="#63b8ff" points="1612.51,-210.7 1622.71,-213.53 1616.5,-204.95 1612.51,-210.7"/>
</a>
</g>
</g>
<!-- Node14&#45;&gt;Node6 -->
<g id="edge21_Node000014_Node000006" class="edge">
<title>Node14&#45;&gt;Node6</title>
<g id="a_edge21_Node000014_Node000006"><a xlink:title=" ">
<path fill="none" stroke="#63b8ff" d="M1628.05,-204.67C1610.02,-171.6 1569.01,-104.85 1515.12,-69.5 1503.76,-62.04 1433.95,-44.32 1381.53,-31.69"/>
<polygon fill="#63b8ff" stroke="#63b8ff" points="1624.78,-205.97 1632.56,-213.16 1630.96,-202.69 1624.78,-205.97"/>
</a>
</g>
</g>
<!-- Node14&#45;&gt;Node9 -->
<g id="edge22_Node000014_Node000009" class="edge">
<title>Node14&#45;&gt;Node9</title>
<g id="a_edge22_Node000014_Node000009"><a xlink:title=" ">
<path fill="none" stroke="#63b8ff" d="M1598.83,-210.79C1567.06,-199.9 1522.23,-184.54 1488.49,-172.98"/>
<polygon fill="#63b8ff" stroke="#63b8ff" points="1597.45,-214.01 1608.05,-213.94 1599.72,-207.39 1597.45,-214.01"/>
</a>
</g>
</g>
<!-- Node15&#45;&gt;Node2 -->
<g id="edge24_Node000015_Node000002" class="edge">
<title>Node15&#45;&gt;Node2</title>
<g id="a_edge24_Node000015_Node000002"><a xlink:title=" ">
<path fill="none" stroke="#63b8ff" d="M805.57,-247.23C806.24,-257.51 805.8,-269.4 804.24,-277.55"/>
<polygon fill="#63b8ff" stroke="#63b8ff" points="809.05,-246.86 804.38,-237.35 802.1,-247.7 809.05,-246.86"/>
</a>
</g>
</g>
<!-- Node16&#45;&gt;Node9 -->
<g id="edge26_Node000016_Node000009" class="edge">
<title>Node16&#45;&gt;Node9</title>
<g id="a_edge26_Node000016_Node000009"><a xlink:title=" ">
<path fill="none" stroke="#63b8ff" d="M1473.5,-205.31C1466.7,-195.11 1458.4,-182.66 1451.9,-172.92"/>
<polygon fill="#63b8ff" stroke="#63b8ff" points="1470.38,-206.94 1478.84,-213.32 1476.2,-203.06 1470.38,-206.94"/>
</a>
</g>
</g>
<!-- Node18&#45;&gt;Node3 -->
<g id="edge29_Node000018_Node000003" class="edge">
<title>Node18&#45;&gt;Node3</title>
<g id="a_edge29_Node000018_Node000003"><a xlink:title=" ">
<path fill="none" stroke="#63b8ff" d="M445.09,-211.99C450.51,-210.81 455.92,-209.62 461.12,-208.5 530.02,-193.61 609.89,-176.91 659.47,-166.61"/>
<polygon fill="#63b8ff" stroke="#63b8ff" points="444.53,-208.53 435.52,-214.1 446.04,-215.37 444.53,-208.53"/>
</a>
</g>
</g>
<!-- Node22&#45;&gt;Node2 -->
<g id="edge37_Node000022_Node000002" class="edge">
<title>Node22&#45;&gt;Node2</title>
<g id="a_edge37_Node000022_Node000002"><a xlink:title=" ">
<path fill="none" stroke="#63b8ff" d="M744.37,-385.67C757.14,-378.2 770.94,-368.07 780.12,-355.5 792.81,-338.14 797.05,-312.5 798.45,-298.81"/>
<polygon fill="#63b8ff" stroke="#63b8ff" points="742.88,-382.49 735.79,-390.36 746.24,-388.64 742.88,-382.49"/>
</a>
</g>
</g>
<!-- Node22&#45;&gt;Node20 -->
<g id="edge38_Node000022_Node000020" class="edge">
<title>Node22&#45;&gt;Node20</title>
<g id="a_edge38_Node000022_Node000020"><a xlink:title=" ">
<path fill="none" stroke="#63b8ff" d="M654,-388.71C613.53,-380.02 558.37,-367.75 510.12,-355.5 363.57,-318.3 192.47,-267.91 107.57,-242.43"/>
<polygon fill="#63b8ff" stroke="#63b8ff" points="653.02,-392.08 663.53,-390.75 654.48,-385.23 653.02,-392.08"/>
</a>
</g>
</g>
<!-- Node22&#45;&gt;Node21 -->
<g id="edge39_Node000022_Node000021" class="edge">
<title>Node22&#45;&gt;Node21</title>
<g id="a_edge39_Node000022_Node000021"><a xlink:title=" ">
<path fill="none" stroke="#63b8ff" d="M671.67,-387.6C575.62,-356.07 334.04,-276.77 229.55,-242.47"/>
<polygon fill="#63b8ff" stroke="#63b8ff" points="670.35,-390.85 680.94,-390.64 672.53,-384.2 670.35,-390.85"/>
</a>
</g>
</g>
<!-- Node23 -->
<g id="Node000023" class="node">
<title>Node23</title>
<g id="a_Node000023"><a xlink:href="attr-set_8hh.html" target="_top" xlink:title=" ">
<polygon fill="white" stroke="#666666" points="771.5,-355.5 652.75,-355.5 652.75,-334.75 771.5,-334.75 771.5,-355.5"/>
<text text-anchor="middle" x="712.12" y="-342" font-family="Helvetica,sans-Serif" font-size="10.00">lix/libexpr/attr&#45;set.hh</text>
</a>
</g>
</g>
<!-- Node22&#45;&gt;Node23 -->
<g id="edge35_Node000022_Node000023" class="edge">
<title>Node22&#45;&gt;Node23</title>
<g id="a_edge35_Node000022_Node000023"><a xlink:title=" ">
<path fill="none" stroke="#63b8ff" d="M712.12,-379.63C712.12,-371.41 712.12,-362.43 712.12,-355.83"/>
<polygon fill="#63b8ff" stroke="#63b8ff" points="708.63,-379.57 712.13,-389.57 715.63,-379.57 708.63,-379.57"/>
</a>
</g>
</g>
<!-- Node23&#45;&gt;Node2 -->
<g id="edge36_Node000023_Node000002" class="edge">
<title>Node23&#45;&gt;Node2</title>
<g id="a_edge36_Node000023_Node000002"><a xlink:title=" ">
<path fill="none" stroke="#63b8ff" d="M737.38,-328.23C752.36,-318.8 770.88,-307.15 783.71,-299.08"/>
<polygon fill="#63b8ff" stroke="#63b8ff" points="735.56,-325.24 728.96,-333.53 739.29,-331.17 735.56,-325.24"/>
</a>
</g>
</g>
</g>
</svg>
