<?xml version="1.0" encoding="UTF-8" standalone="no"?>
<!DOCTYPE svg PUBLIC "-//W3C//DTD SVG 1.1//EN"
 "http://www.w3.org/Graphics/SVG/1.1/DTD/svg11.dtd">
<!-- Generated by graphviz version 12.2.1 (0)
 -->
<!-- Title: lix/libutil/xml&#45;writer.hh Pages: 1 -->
<svg width="234pt" height="86pt"
 viewBox="0.00 0.00 233.62 85.50" xmlns="http://www.w3.org/2000/svg" xmlns:xlink="http://www.w3.org/1999/xlink">
<g id="graph0" class="graph" transform="scale(1 1) rotate(0) translate(4 81.5)">
<title>lix/libutil/xml&#45;writer.hh</title>
<!-- Node1 -->
<g id="Node000001" class="node">
<title>Node1</title>
<g id="a_Node000001"><a xlink:title=" ">
<polygon fill="#999999" stroke="#666666" points="190.25,-77.5 63.25,-77.5 63.25,-56.75 190.25,-56.75 190.25,-77.5"/>
<text text-anchor="middle" x="126.75" y="-64" font-family="Helvetica,sans-Serif" font-size="10.00">lix/libutil/xml&#45;writer.hh</text>
</a>
</g>
</g>
<!-- Node2 -->
<g id="Node000002" class="node">
<title>Node2</title>
<g id="a_Node000002"><a xlink:title=" ">
<polygon fill="#e0e0e0" stroke="#999999" points="59.5,-20.75 0,-20.75 0,0 59.5,0 59.5,-20.75"/>
<text text-anchor="middle" x="29.75" y="-7.25" font-family="Helvetica,sans-Serif" font-size="10.00">iostream</text>
</a>
</g>
</g>
<!-- Node1&#45;&gt;Node2 -->
<g id="edge1_Node000001_Node000002" class="edge">
<title>Node1&#45;&gt;Node2</title>
<g id="a_edge1_Node000001_Node000002"><a xlink:title=" ">
<path fill="none" stroke="#63b8ff" d="M109.41,-56.34C94.79,-48.08 73.61,-36.13 56.77,-26.63"/>
<polygon fill="#63b8ff" stroke="#63b8ff" points="58.69,-23.69 48.26,-21.82 55.25,-29.79 58.69,-23.69"/>
</a>
</g>
</g>
<!-- Node3 -->
<g id="Node000003" class="node">
<title>Node3</title>
<g id="a_Node000003"><a xlink:title=" ">
<polygon fill="#e0e0e0" stroke="#999999" points="121.62,-20.75 77.88,-20.75 77.88,0 121.62,0 121.62,-20.75"/>
<text text-anchor="middle" x="99.75" y="-7.25" font-family="Helvetica,sans-Serif" font-size="10.00">string</text>
</a>
</g>
</g>
<!-- Node1&#45;&gt;Node3 -->
<g id="edge2_Node000001_Node000003" class="edge">
<title>Node1&#45;&gt;Node3</title>
<g id="a_edge2_Node000001_Node000003"><a xlink:title=" ">
<path fill="none" stroke="#63b8ff" d="M121.92,-56.34C118.51,-49.41 113.8,-39.87 109.61,-31.36"/>
<polygon fill="#63b8ff" stroke="#63b8ff" points="112.77,-29.86 105.2,-22.44 106.49,-32.95 112.77,-29.86"/>
</a>
</g>
</g>
<!-- Node4 -->
<g id="Node000004" class="node">
<title>Node4</title>
<g id="a_Node000004"><a xlink:title=" ">
<polygon fill="#e0e0e0" stroke="#999999" points="170.25,-20.75 139.25,-20.75 139.25,0 170.25,0 170.25,-20.75"/>
<text text-anchor="middle" x="154.75" y="-7.25" font-family="Helvetica,sans-Serif" font-size="10.00">list</text>
</a>
</g>
</g>
<!-- Node1&#45;&gt;Node4 -->
<g id="edge3_Node000001_Node000004" class="edge">
<title>Node1&#45;&gt;Node4</title>
<g id="a_edge3_Node000001_Node000004"><a xlink:title=" ">
<path fill="none" stroke="#63b8ff" d="M131.76,-56.34C135.34,-49.33 140.29,-39.66 144.67,-31.08"/>
<polygon fill="#63b8ff" stroke="#63b8ff" points="147.66,-32.92 149.1,-22.43 141.43,-29.74 147.66,-32.92"/>
</a>
</g>
</g>
<!-- Node5 -->
<g id="Node000005" class="node">
<title>Node5</title>
<g id="a_Node000005"><a xlink:title=" ">
<polygon fill="#e0e0e0" stroke="#999999" points="225.62,-20.75 187.88,-20.75 187.88,0 225.62,0 225.62,-20.75"/>
<text text-anchor="middle" x="206.75" y="-7.25" font-family="Helvetica,sans-Serif" font-size="10.00">map</text>
</a>
</g>
</g>
<!-- Node1&#45;&gt;Node5 -->
<g id="edge4_Node000001_Node000005" class="edge">
<title>Node1&#45;&gt;Node5</title>
<g id="a_edge4_Node000001_Node000005"><a xlink:title=" ">
<path fill="none" stroke="#63b8ff" d="M141.05,-56.34C152.77,-48.32 169.59,-36.81 183.28,-27.44"/>
<polygon fill="#63b8ff" stroke="#63b8ff" points="185.05,-30.47 191.32,-21.93 181.09,-24.69 185.05,-30.47"/>
</a>
</g>
</g>
</g>
</svg>
