<?xml version="1.0" encoding="UTF-8" standalone="no"?>
<!DOCTYPE svg PUBLIC "-//W3C//DTD SVG 1.1//EN"
 "http://www.w3.org/Graphics/SVG/1.1/DTD/svg11.dtd">
<!-- Generated by graphviz version 12.2.1 (0)
 -->
<!-- Title: lix/libcmd/built&#45;path.hh Pages: 1 -->
<svg width="507pt" height="294pt"
 viewBox="0.00 0.00 507.38 294.00" xmlns="http://www.w3.org/2000/svg" xmlns:xlink="http://www.w3.org/1999/xlink">
<g id="graph0" class="graph" transform="scale(1 1) rotate(0) translate(4 290)">
<title>lix/libcmd/built&#45;path.hh</title>
<!-- Node1 -->
<g id="Node000001" class="node">
<title>Node1</title>
<g id="a_Node000001"><a xlink:title=" ">
<polygon fill="#999999" stroke="#666666" points="215,-286 85.75,-286 85.75,-265.25 215,-265.25 215,-286"/>
<text text-anchor="middle" x="150.38" y="-272.5" font-family="Helvetica,sans-Serif" font-size="10.00">lix/libcmd/built&#45;path.hh</text>
</a>
</g>
</g>
<!-- Node2 -->
<g id="Node000002" class="node">
<title>Node2</title>
<g id="a_Node000002"><a xlink:href="cmd-profiles_8hh.html" target="_top" xlink:title=" ">
<polygon fill="white" stroke="#666666" points="142.75,-229.25 0,-229.25 0,-208.5 142.75,-208.5 142.75,-229.25"/>
<text text-anchor="middle" x="71.38" y="-215.75" font-family="Helvetica,sans-Serif" font-size="10.00">lix/libcmd/cmd&#45;profiles.hh</text>
</a>
</g>
</g>
<!-- Node1&#45;&gt;Node2 -->
<g id="edge1_Node000001_Node000002" class="edge">
<title>Node1&#45;&gt;Node2</title>
<g id="a_edge1_Node000001_Node000002"><a xlink:title=" ">
<path fill="none" stroke="#63b8ff" d="M127.05,-258.46C113.51,-249.08 96.91,-237.57 85.38,-229.58"/>
<polygon fill="#63b8ff" stroke="#63b8ff" points="124.79,-261.16 135.01,-263.97 128.78,-255.4 124.79,-261.16"/>
</a>
</g>
</g>
<!-- Node3 -->
<g id="Node000003" class="node">
<title>Node3</title>
<g id="a_Node000003"><a xlink:href="installables_8hh.html" target="_top" xlink:title=" ">
<polygon fill="white" stroke="#666666" points="299.5,-229.25 161.25,-229.25 161.25,-208.5 299.5,-208.5 299.5,-229.25"/>
<text text-anchor="middle" x="230.38" y="-215.75" font-family="Helvetica,sans-Serif" font-size="10.00">lix/libcmd/installables.hh</text>
</a>
</g>
</g>
<!-- Node1&#45;&gt;Node3 -->
<g id="edge2_Node000001_Node000003" class="edge">
<title>Node1&#45;&gt;Node3</title>
<g id="a_edge2_Node000001_Node000003"><a xlink:title=" ">
<path fill="none" stroke="#63b8ff" d="M173.99,-258.46C187.7,-249.08 204.52,-237.57 216.2,-229.58"/>
<polygon fill="#63b8ff" stroke="#63b8ff" points="172.2,-255.45 165.93,-263.98 176.16,-261.22 172.2,-255.45"/>
</a>
</g>
</g>
<!-- Node4 -->
<g id="Node000004" class="node">
<title>Node4</title>
<g id="a_Node000004"><a xlink:href="installable-derived-path_8hh.html" target="_top" xlink:title=" ">
<polygon fill="white" stroke="#666666" points="221.38,-172.5 103.38,-172.5 103.38,-139 221.38,-139 221.38,-172.5"/>
<text text-anchor="start" x="111.38" y="-159" font-family="Helvetica,sans-Serif" font-size="10.00">lix/libcmd/installable</text>
<text text-anchor="middle" x="162.38" y="-146.25" font-family="Helvetica,sans-Serif" font-size="10.00">&#45;derived&#45;path.hh</text>
</a>
</g>
</g>
<!-- Node3&#45;&gt;Node4 -->
<g id="edge3_Node000003_Node000004" class="edge">
<title>Node3&#45;&gt;Node4</title>
<g id="a_edge3_Node000003_Node000004"><a xlink:title=" ">
<path fill="none" stroke="#63b8ff" d="M210.96,-200.43C201.36,-191.8 189.85,-181.44 180.44,-172.98"/>
<polygon fill="#63b8ff" stroke="#63b8ff" points="208.55,-202.96 218.32,-207.04 213.23,-197.75 208.55,-202.96"/>
</a>
</g>
</g>
<!-- Node5 -->
<g id="Node000005" class="node">
<title>Node5</title>
<g id="a_Node000005"><a xlink:href="installable-value_8hh.html" target="_top" xlink:title=" ">
<polygon fill="white" stroke="#666666" points="357.38,-172.5 239.38,-172.5 239.38,-139 357.38,-139 357.38,-172.5"/>
<text text-anchor="start" x="247.38" y="-159" font-family="Helvetica,sans-Serif" font-size="10.00">lix/libcmd/installable</text>
<text text-anchor="middle" x="298.38" y="-146.25" font-family="Helvetica,sans-Serif" font-size="10.00">&#45;value.hh</text>
</a>
</g>
</g>
<!-- Node3&#45;&gt;Node5 -->
<g id="edge4_Node000003_Node000005" class="edge">
<title>Node3&#45;&gt;Node5</title>
<g id="a_edge4_Node000003_Node000005"><a xlink:title=" ">
<path fill="none" stroke="#63b8ff" d="M249.79,-200.43C259.39,-191.8 270.9,-181.44 280.31,-172.98"/>
<polygon fill="#63b8ff" stroke="#63b8ff" points="247.52,-197.75 242.43,-207.04 252.2,-202.96 247.52,-197.75"/>
</a>
</g>
</g>
<!-- Node6 -->
<g id="Node000006" class="node">
<title>Node6</title>
<g id="a_Node000006"><a xlink:href="command_8hh.html" target="_top" xlink:title=" ">
<polygon fill="white" stroke="#666666" points="363.75,-96.62 233,-96.62 233,-75.88 363.75,-75.88 363.75,-96.62"/>
<text text-anchor="middle" x="298.38" y="-83.12" font-family="Helvetica,sans-Serif" font-size="10.00">lix/libcmd/command.hh</text>
</a>
</g>
</g>
<!-- Node5&#45;&gt;Node6 -->
<g id="edge5_Node000005_Node000006" class="edge">
<title>Node5&#45;&gt;Node6</title>
<g id="a_edge5_Node000005_Node000006"><a xlink:title=" ">
<path fill="none" stroke="#63b8ff" d="M298.38,-127.28C298.38,-116.58 298.38,-105.01 298.38,-97.07"/>
<polygon fill="#63b8ff" stroke="#63b8ff" points="294.88,-127.24 298.38,-137.24 301.88,-127.24 294.88,-127.24"/>
</a>
</g>
</g>
<!-- Node7 -->
<g id="Node000007" class="node">
<title>Node7</title>
<g id="a_Node000007"><a xlink:href="installable-attr-path_8hh.html" target="_top" xlink:title=" ">
<polygon fill="white" stroke="#666666" points="264.38,-33.5 146.38,-33.5 146.38,0 264.38,0 264.38,-33.5"/>
<text text-anchor="start" x="154.38" y="-20" font-family="Helvetica,sans-Serif" font-size="10.00">lix/libcmd/installable</text>
<text text-anchor="middle" x="205.38" y="-7.25" font-family="Helvetica,sans-Serif" font-size="10.00">&#45;attr&#45;path.hh</text>
</a>
</g>
</g>
<!-- Node5&#45;&gt;Node7 -->
<g id="edge8_Node000005_Node000007" class="edge">
<title>Node5&#45;&gt;Node7</title>
<g id="a_edge8_Node000005_Node000007"><a xlink:title=" ">
<path fill="none" stroke="#63b8ff" d="M255.22,-132.44C243.66,-124.57 232.21,-114.7 224.38,-103 210.29,-81.96 206.49,-52.09 205.56,-33.87"/>
<polygon fill="#63b8ff" stroke="#63b8ff" points="253.29,-135.36 263.61,-137.77 257.05,-129.45 253.29,-135.36"/>
</a>
</g>
</g>
<!-- Node9 -->
<g id="Node000009" class="node">
<title>Node9</title>
<g id="a_Node000009"><a xlink:href="installable-flake_8hh.html" target="_top" xlink:title=" ">
<polygon fill="white" stroke="#666666" points="499.38,-103 381.38,-103 381.38,-69.5 499.38,-69.5 499.38,-103"/>
<text text-anchor="start" x="389.38" y="-89.5" font-family="Helvetica,sans-Serif" font-size="10.00">lix/libcmd/installable</text>
<text text-anchor="middle" x="440.38" y="-76.75" font-family="Helvetica,sans-Serif" font-size="10.00">&#45;flake.hh</text>
</a>
</g>
</g>
<!-- Node5&#45;&gt;Node9 -->
<g id="edge9_Node000005_Node000009" class="edge">
<title>Node5&#45;&gt;Node9</title>
<g id="a_edge9_Node000005_Node000009"><a xlink:title=" ">
<path fill="none" stroke="#63b8ff" d="M342.52,-133.76C363.21,-123.93 387.46,-112.41 406.64,-103.29"/>
<polygon fill="#63b8ff" stroke="#63b8ff" points="341.28,-130.48 333.75,-137.93 344.29,-136.8 341.28,-130.48"/>
</a>
</g>
</g>
<!-- Node6&#45;&gt;Node7 -->
<g id="edge6_Node000006_Node000007" class="edge">
<title>Node6&#45;&gt;Node7</title>
<g id="a_edge6_Node000006_Node000007"><a xlink:title=" ">
<path fill="none" stroke="#63b8ff" d="M276.15,-69.12C261.48,-58.47 242.33,-44.57 227.65,-33.92"/>
<polygon fill="#63b8ff" stroke="#63b8ff" points="273.68,-71.65 283.83,-74.69 277.79,-65.98 273.68,-71.65"/>
</a>
</g>
</g>
<!-- Node8 -->
<g id="Node000008" class="node">
<title>Node8</title>
<g id="a_Node000008"><a xlink:href="nix_2daemon_8cc.html" target="_top" xlink:title=" ">
<polygon fill="white" stroke="#666666" points="384.5,-27.12 282.25,-27.12 282.25,-6.38 384.5,-6.38 384.5,-27.12"/>
<text text-anchor="middle" x="333.38" y="-13.62" font-family="Helvetica,sans-Serif" font-size="10.00">lix/nix/daemon.cc</text>
</a>
</g>
</g>
<!-- Node6&#45;&gt;Node8 -->
<g id="edge7_Node000006_Node000008" class="edge">
<title>Node6&#45;&gt;Node8</title>
<g id="a_edge7_Node000006_Node000008"><a xlink:title=" ">
<path fill="none" stroke="#63b8ff" d="M308.57,-65.59C315.08,-53.04 323.23,-37.32 328.37,-27.4"/>
<polygon fill="#63b8ff" stroke="#63b8ff" points="305.58,-63.75 304.09,-74.24 311.8,-66.97 305.58,-63.75"/>
</a>
</g>
</g>
</g>
</svg>
