<?xml version="1.0" encoding="UTF-8" standalone="no"?>
<!DOCTYPE svg PUBLIC "-//W3C//DTD SVG 1.1//EN"
 "http://www.w3.org/Graphics/SVG/1.1/DTD/svg11.dtd">
<!-- Generated by graphviz version 12.2.1 (0)
 -->
<!-- Title: lix/libutil/canon&#45;path.hh Pages: 1 -->
<svg width="321pt" height="86pt"
 viewBox="0.00 0.00 321.38 85.50" xmlns="http://www.w3.org/2000/svg" xmlns:xlink="http://www.w3.org/1999/xlink">
<g id="graph0" class="graph" transform="scale(1 1) rotate(0) translate(4 81.5)">
<title>lix/libutil/canon&#45;path.hh</title>
<!-- Node1 -->
<g id="Node000001" class="node">
<title>Node1</title>
<g id="a_Node000001"><a xlink:title=" ">
<polygon fill="#999999" stroke="#666666" points="227.62,-77.5 96.12,-77.5 96.12,-56.75 227.62,-56.75 227.62,-77.5"/>
<text text-anchor="middle" x="161.88" y="-64" font-family="Helvetica,sans-Serif" font-size="10.00">lix/libutil/canon&#45;path.hh</text>
</a>
</g>
</g>
<!-- Node2 -->
<g id="Node000002" class="node">
<title>Node2</title>
<g id="a_Node000002"><a xlink:title=" ">
<polygon fill="#e0e0e0" stroke="#999999" points="43.75,-20.75 0,-20.75 0,0 43.75,0 43.75,-20.75"/>
<text text-anchor="middle" x="21.88" y="-7.25" font-family="Helvetica,sans-Serif" font-size="10.00">string</text>
</a>
</g>
</g>
<!-- Node1&#45;&gt;Node2 -->
<g id="edge1_Node000001_Node000002" class="edge">
<title>Node1&#45;&gt;Node2</title>
<g id="a_edge1_Node000001_Node000002"><a xlink:title=" ">
<path fill="none" stroke="#63b8ff" d="M136.85,-56.34C113.83,-47.33 79.55,-33.93 54.42,-24.1"/>
<polygon fill="#63b8ff" stroke="#63b8ff" points="55.92,-20.93 45.33,-20.55 53.37,-27.45 55.92,-20.93"/>
</a>
</g>
</g>
<!-- Node3 -->
<g id="Node000003" class="node">
<title>Node3</title>
<g id="a_Node000003"><a xlink:title=" ">
<polygon fill="#e0e0e0" stroke="#999999" points="117.75,-20.75 62,-20.75 62,0 117.75,0 117.75,-20.75"/>
<text text-anchor="middle" x="89.88" y="-7.25" font-family="Helvetica,sans-Serif" font-size="10.00">optional</text>
</a>
</g>
</g>
<!-- Node1&#45;&gt;Node3 -->
<g id="edge2_Node000001_Node000003" class="edge">
<title>Node1&#45;&gt;Node3</title>
<g id="a_edge2_Node000001_Node000003"><a xlink:title=" ">
<path fill="none" stroke="#63b8ff" d="M149,-56.34C138.66,-48.47 123.91,-37.25 111.72,-27.99"/>
<polygon fill="#63b8ff" stroke="#63b8ff" points="113.92,-25.26 103.84,-21.99 109.68,-30.83 113.92,-25.26"/>
</a>
</g>
</g>
<!-- Node4 -->
<g id="Node000004" class="node">
<title>Node4</title>
<g id="a_Node000004"><a xlink:title=" ">
<polygon fill="#e0e0e0" stroke="#999999" points="187.5,-20.75 136.25,-20.75 136.25,0 187.5,0 187.5,-20.75"/>
<text text-anchor="middle" x="161.88" y="-7.25" font-family="Helvetica,sans-Serif" font-size="10.00">cassert</text>
</a>
</g>
</g>
<!-- Node1&#45;&gt;Node4 -->
<g id="edge3_Node000001_Node000004" class="edge">
<title>Node1&#45;&gt;Node4</title>
<g id="a_edge3_Node000001_Node000004"><a xlink:title=" ">
<path fill="none" stroke="#63b8ff" d="M161.88,-56.34C161.88,-49.72 161.88,-40.72 161.88,-32.52"/>
<polygon fill="#63b8ff" stroke="#63b8ff" points="165.38,-32.59 161.88,-22.59 158.38,-32.59 165.38,-32.59"/>
</a>
</g>
</g>
<!-- Node5 -->
<g id="Node000005" class="node">
<title>Node5</title>
<g id="a_Node000005"><a xlink:title=" ">
<polygon fill="#e0e0e0" stroke="#999999" points="264.62,-20.75 205.12,-20.75 205.12,0 264.62,0 264.62,-20.75"/>
<text text-anchor="middle" x="234.88" y="-7.25" font-family="Helvetica,sans-Serif" font-size="10.00">iostream</text>
</a>
</g>
</g>
<!-- Node1&#45;&gt;Node5 -->
<g id="edge4_Node000001_Node000005" class="edge">
<title>Node1&#45;&gt;Node5</title>
<g id="a_edge4_Node000001_Node000005"><a xlink:title=" ">
<path fill="none" stroke="#63b8ff" d="M174.93,-56.34C185.51,-48.4 200.67,-37.03 213.09,-27.71"/>
<polygon fill="#63b8ff" stroke="#63b8ff" points="214.83,-30.79 220.73,-21.99 210.63,-25.19 214.83,-30.79"/>
</a>
</g>
</g>
<!-- Node6 -->
<g id="Node000006" class="node">
<title>Node6</title>
<g id="a_Node000006"><a xlink:title=" ">
<polygon fill="#e0e0e0" stroke="#999999" points="313.38,-20.75 282.38,-20.75 282.38,0 313.38,0 313.38,-20.75"/>
<text text-anchor="middle" x="297.88" y="-7.25" font-family="Helvetica,sans-Serif" font-size="10.00">set</text>
</a>
</g>
</g>
<!-- Node1&#45;&gt;Node6 -->
<g id="edge5_Node000001_Node000006" class="edge">
<title>Node1&#45;&gt;Node6</title>
<g id="a_edge5_Node000001_Node000006"><a xlink:title=" ">
<path fill="none" stroke="#63b8ff" d="M186.19,-56.34C210.31,-46.63 247.14,-31.8 271.84,-21.86"/>
<polygon fill="#63b8ff" stroke="#63b8ff" points="272.87,-25.21 280.84,-18.23 270.26,-18.72 272.87,-25.21"/>
</a>
</g>
</g>
</g>
</svg>
