<?xml version="1.0" encoding="UTF-8" standalone="no"?>
<!DOCTYPE svg PUBLIC "-//W3C//DTD SVG 1.1//EN"
 "http://www.w3.org/Graphics/SVG/1.1/DTD/svg11.dtd">
<!-- Generated by graphviz version 12.2.1 (0)
 -->
<!-- Title: nix::Settings Pages: 1 -->
<svg width="236pt" height="258pt"
 viewBox="0.00 0.00 235.67 258.00" xmlns="http://www.w3.org/2000/svg" xmlns:xlink="http://www.w3.org/1999/xlink">
<g id="graph0" class="graph" transform="scale(1 1) rotate(0) translate(4 254)">
<title>nix::Settings</title>
<!-- Node1 -->
<g id="Node000001" class="node">
<title>Node1</title>
<g id="a_Node000001"><a xlink:title=" ">
<polygon fill="#999999" stroke="#666666" points="129.5,-20.75 52.75,-20.75 52.75,0 129.5,0 129.5,-20.75"/>
<text text-anchor="middle" x="91.12" y="-7.25" font-family="Helvetica,sans-Serif" font-size="10.00">nix::Settings</text>
</a>
</g>
</g>
<!-- Node2 -->
<g id="Node000002" class="node">
<title>Node2</title>
<g id="a_Node000002"><a xlink:href="classnix_1_1Config.html" target="_top" xlink:title=" ">
<polygon fill="white" stroke="#666666" points="88,-192.25 20.25,-192.25 20.25,-171.5 88,-171.5 88,-192.25"/>
<text text-anchor="middle" x="54.12" y="-178.75" font-family="Helvetica,sans-Serif" font-size="10.00">nix::Config</text>
</a>
</g>
</g>
<!-- Node2&#45;&gt;Node1 -->
<g id="edge1_Node000001_Node000002" class="edge">
<title>Node2&#45;&gt;Node1</title>
<g id="a_edge1_Node000001_Node000002"><a xlink:title=" ">
<path fill="none" stroke="#63b8ff" d="M58.59,-160.43C66.62,-123.61 83.23,-47.54 89.05,-20.87"/>
<polygon fill="#63b8ff" stroke="#63b8ff" points="55.26,-159.28 56.54,-169.8 62.1,-160.77 55.26,-159.28"/>
</a>
</g>
</g>
<!-- Node3 -->
<g id="Node000003" class="node">
<title>Node3</title>
<g id="a_Node000003"><a xlink:href="classnix_1_1AbstractConfig.html" target="_top" xlink:title=" ">
<polygon fill="white" stroke="#bfbfbf" points="108.25,-250 0,-250 0,-229.25 108.25,-229.25 108.25,-250"/>
<text text-anchor="middle" x="54.12" y="-236.5" font-family="Helvetica,sans-Serif" font-size="10.00">nix::AbstractConfig</text>
</a>
</g>
</g>
<!-- Node3&#45;&gt;Node2 -->
<g id="edge2_Node000002_Node000003" class="edge">
<title>Node3&#45;&gt;Node2</title>
<g id="a_edge2_Node000002_Node000003"><a xlink:title=" ">
<path fill="none" stroke="#63b8ff" d="M54.12,-217.68C54.12,-209.02 54.12,-199.4 54.12,-192.47"/>
<polygon fill="#63b8ff" stroke="#63b8ff" points="50.63,-217.4 54.13,-227.4 57.63,-217.4 50.63,-217.4"/>
</a>
</g>
</g>
<!-- Node4 -->
<g id="Node000004" class="node">
<title>Node4</title>
<g id="a_Node000004"><a xlink:title=" ">
<polygon fill="white" stroke="#bfbfbf" points="150,-192.25 106.25,-192.25 106.25,-171.5 150,-171.5 150,-192.25"/>
<text text-anchor="middle" x="128.12" y="-178.75" font-family="Helvetica,sans-Serif" font-size="10.00">string</text>
</a>
</g>
</g>
<!-- Node4&#45;&gt;Node1 -->
<g id="edge3_Node000001_Node000004" class="edge">
<title>Node4&#45;&gt;Node1</title>
<g id="a_edge3_Node000001_Node000004"><a xlink:title=" ">
<path fill="none" stroke="#9a32cd" stroke-dasharray="5,2" d="M123.66,-160.43C115.63,-123.61 99.02,-47.54 93.2,-20.87"/>
<polygon fill="#9a32cd" stroke="#9a32cd" points="120.15,-160.77 125.71,-169.8 126.99,-159.28 120.15,-160.77"/>
</a>
</g>
<text text-anchor="middle" x="174.8" y="-144" font-family="Helvetica,sans-Serif" font-size="10.00" fill="grey"> nixBinDir</text>
<text text-anchor="middle" x="174.8" y="-131.25" font-family="Helvetica,sans-Serif" font-size="10.00" fill="grey">nixConfDir</text>
<text text-anchor="middle" x="174.8" y="-118.5" font-family="Helvetica,sans-Serif" font-size="10.00" fill="grey">nixDaemonSocketFile</text>
<text text-anchor="middle" x="174.8" y="-105.75" font-family="Helvetica,sans-Serif" font-size="10.00" fill="grey">nixDataDir</text>
<text text-anchor="middle" x="174.8" y="-93" font-family="Helvetica,sans-Serif" font-size="10.00" fill="grey">nixLogDir</text>
<text text-anchor="middle" x="174.8" y="-80.25" font-family="Helvetica,sans-Serif" font-size="10.00" fill="grey">nixManDir</text>
<text text-anchor="middle" x="174.8" y="-67.5" font-family="Helvetica,sans-Serif" font-size="10.00" fill="grey">nixPrefix</text>
<text text-anchor="middle" x="174.8" y="-54.75" font-family="Helvetica,sans-Serif" font-size="10.00" fill="grey">nixStateDir</text>
<text text-anchor="middle" x="174.8" y="-42" font-family="Helvetica,sans-Serif" font-size="10.00" fill="grey">nixStore</text>
</g>
</g>
</svg>
