<?xml version="1.0" encoding="UTF-8" standalone="no"?>
<!DOCTYPE svg PUBLIC "-//W3C//DTD SVG 1.1//EN"
 "http://www.w3.org/Graphics/SVG/1.1/DTD/svg11.dtd">
<!-- Generated by graphviz version 12.2.1 (0)
 -->
<!-- Title: nix::VersionedProtoTest&lt; Proto, protocolDir &gt; Pages: 1 -->
<svg width="173pt" height="182pt"
 viewBox="0.00 0.00 173.27 181.50" xmlns="http://www.w3.org/2000/svg" xmlns:xlink="http://www.w3.org/1999/xlink">
<g id="graph0" class="graph" transform="scale(1 1) rotate(0) translate(4 177.5)">
<title>nix::VersionedProtoTest&lt; Proto, protocolDir &gt;</title>
<!-- Node1 -->
<g id="Node000001" class="node">
<title>Node1</title>
<g id="a_Node000001"><a xlink:title=" ">
<polygon fill="#999999" stroke="#666666" points="141.62,-33.5 11.62,-33.5 11.62,0 141.62,0 141.62,-33.5"/>
<text text-anchor="start" x="19.62" y="-20" font-family="Helvetica,sans-Serif" font-size="10.00">nix::VersionedProtoTest</text>
<text text-anchor="middle" x="76.62" y="-7.25" font-family="Helvetica,sans-Serif" font-size="10.00">&lt; Proto, protocolDir &gt;</text>
</a>
</g>
</g>
<!-- Node2 -->
<g id="Node000002" class="node">
<title>Node2</title>
<g id="a_Node000002"><a xlink:href="classnix_1_1ProtoTest.html" target="_top" xlink:title=" ">
<polygon fill="white" stroke="#bfbfbf" points="137.5,-104 15.75,-104 15.75,-70.5 137.5,-70.5 137.5,-104"/>
<text text-anchor="start" x="23.75" y="-90.5" font-family="Helvetica,sans-Serif" font-size="10.00">nix::ProtoTest&lt; Proto,</text>
<text text-anchor="middle" x="76.62" y="-77.75" font-family="Helvetica,sans-Serif" font-size="10.00"> protocolDir &gt;</text>
</a>
</g>
</g>
<!-- Node2&#45;&gt;Node1 -->
<g id="edge1_Node000001_Node000002" class="edge">
<title>Node2&#45;&gt;Node1</title>
<g id="a_edge1_Node000001_Node000002"><a xlink:title=" ">
<path fill="none" stroke="#63b8ff" d="M76.62,-58.7C76.62,-50.27 76.62,-41.27 76.62,-33.87"/>
<polygon fill="#63b8ff" stroke="#63b8ff" points="73.13,-58.5 76.63,-68.5 80.13,-58.5 73.13,-58.5"/>
</a>
</g>
</g>
<!-- Node3 -->
<g id="Node000003" class="node">
<title>Node3</title>
<g id="a_Node000003"><a xlink:title=" ">
<polygon fill="white" stroke="#bfbfbf" points="75.25,-173.5 0,-173.5 0,-152.75 75.25,-152.75 75.25,-173.5"/>
<text text-anchor="middle" x="37.62" y="-160" font-family="Helvetica,sans-Serif" font-size="10.00">LibStoreTest</text>
</a>
</g>
</g>
<!-- Node3&#45;&gt;Node2 -->
<g id="edge2_Node000002_Node000003" class="edge">
<title>Node3&#45;&gt;Node2</title>
<g id="a_edge2_Node000002_Node000003"><a xlink:title=" ">
<path fill="none" stroke="#63b8ff" d="M47.93,-142.61C54.22,-130.69 62.16,-115.65 68.1,-104.41"/>
<polygon fill="#63b8ff" stroke="#63b8ff" points="45,-140.65 43.43,-151.13 51.19,-143.92 45,-140.65"/>
</a>
</g>
</g>
<!-- Node4 -->
<g id="Node000004" class="node">
<title>Node4</title>
<g id="a_Node000004"><a xlink:title=" ">
<polygon fill="white" stroke="#bfbfbf" points="137.5,-173.5 93.75,-173.5 93.75,-152.75 137.5,-152.75 137.5,-173.5"/>
<text text-anchor="middle" x="115.62" y="-160" font-family="Helvetica,sans-Serif" font-size="10.00">string</text>
</a>
</g>
</g>
<!-- Node4&#45;&gt;Node2 -->
<g id="edge3_Node000002_Node000004" class="edge">
<title>Node4&#45;&gt;Node2</title>
<g id="a_edge3_Node000002_Node000004"><a xlink:title=" ">
<path fill="none" stroke="#9a32cd" stroke-dasharray="5,2" d="M105.32,-142.61C99.03,-130.69 91.09,-115.65 85.15,-104.41"/>
<polygon fill="#9a32cd" stroke="#9a32cd" points="102.06,-143.92 109.82,-151.13 108.25,-140.65 102.06,-143.92"/>
</a>
</g>
<text text-anchor="middle" x="133.02" y="-125.25" font-family="Helvetica,sans-Serif" font-size="10.00" fill="grey"> unitTestData</text>
</g>
</g>
</svg>
