<?xml version="1.0" encoding="UTF-8" standalone="no"?>
<!DOCTYPE svg PUBLIC "-//W3C//DTD SVG 1.1//EN"
 "http://www.w3.org/Graphics/SVG/1.1/DTD/svg11.dtd">
<!-- Generated by graphviz version 12.2.1 (0)
 -->
<!-- Title: nix::MultiCommand Pages: 1 -->
<svg width="488pt" height="419pt"
 viewBox="0.00 0.00 488.25 418.75" xmlns="http://www.w3.org/2000/svg" xmlns:xlink="http://www.w3.org/1999/xlink">
<g id="graph0" class="graph" transform="scale(1 1) rotate(0) translate(4 414.75)">
<title>nix::MultiCommand</title>
<!-- Node1 -->
<g id="Node000001" class="node">
<title>Node1</title>
<g id="a_Node000001"><a xlink:title=" ">
<polygon fill="#999999" stroke="#666666" points="330,-215.75 218,-215.75 218,-195 330,-195 330,-215.75"/>
<text text-anchor="middle" x="274" y="-202.25" font-family="Helvetica,sans-Serif" font-size="10.00">nix::MultiCommand</text>
</a>
</g>
</g>
<!-- Node4 -->
<g id="Node000004" class="node">
<title>Node4</title>
<g id="a_Node000004"><a xlink:href="structnix_1_1CmdConfig.html" target="_top" xlink:title=" ">
<polygon fill="white" stroke="#bfbfbf" points="468.25,-410.75 378,-410.75 378,-390 468.25,-390 468.25,-410.75"/>
<text text-anchor="middle" x="423.12" y="-397.25" font-family="Helvetica,sans-Serif" font-size="10.00">nix::CmdConfig</text>
</a>
</g>
</g>
<!-- Node1&#45;&gt;Node4 -->
<g id="edge3_Node000001_Node000004" class="edge">
<title>Node1&#45;&gt;Node4</title>
<g id="a_edge3_Node000001_Node000004"><a xlink:title=" ">
<path fill="none" stroke="#63b8ff" d="M280.62,-227.04C291.2,-263.71 317.52,-338.13 366,-380.38 370.21,-384.04 375.14,-387.06 380.3,-389.52"/>
<polygon fill="#63b8ff" stroke="#63b8ff" points="284.05,-226.32 278.02,-217.61 277.3,-228.18 284.05,-226.32"/>
</a>
</g>
</g>
<!-- Node5 -->
<g id="Node000005" class="node">
<title>Node5</title>
<g id="a_Node000005"><a xlink:href="structnix_1_1CmdDerivation.html" target="_top" xlink:title=" ">
<polygon fill="white" stroke="#bfbfbf" points="478.38,-371.75 367.88,-371.75 367.88,-351 478.38,-351 478.38,-371.75"/>
<text text-anchor="middle" x="423.12" y="-358.25" font-family="Helvetica,sans-Serif" font-size="10.00">nix::CmdDerivation</text>
</a>
</g>
</g>
<!-- Node1&#45;&gt;Node5 -->
<g id="edge4_Node000001_Node000005" class="edge">
<title>Node1&#45;&gt;Node5</title>
<g id="a_edge4_Node000001_Node000005"><a xlink:title=" ">
<path fill="none" stroke="#63b8ff" d="M283.81,-226.3C297.31,-255.96 325.83,-310.09 366,-341.38 370.73,-345.06 376.2,-348.1 381.83,-350.61"/>
<polygon fill="#63b8ff" stroke="#63b8ff" points="287.07,-225.02 279.84,-217.28 280.66,-227.84 287.07,-225.02"/>
</a>
</g>
</g>
<!-- Node6 -->
<g id="Node000006" class="node">
<title>Node6</title>
<g id="a_Node000006"><a xlink:href="structnix_1_1CmdFlake.html" target="_top" xlink:title=" ">
<polygon fill="white" stroke="#bfbfbf" points="466,-332.75 380.25,-332.75 380.25,-312 466,-312 466,-332.75"/>
<text text-anchor="middle" x="423.12" y="-319.25" font-family="Helvetica,sans-Serif" font-size="10.00">nix::CmdFlake</text>
</a>
</g>
</g>
<!-- Node1&#45;&gt;Node6 -->
<g id="edge5_Node000001_Node000006" class="edge">
<title>Node1&#45;&gt;Node6</title>
<g id="a_edge5_Node000001_Node000006"><a xlink:title=" ">
<path fill="none" stroke="#63b8ff" d="M289.02,-225.22C305.28,-246.93 333.98,-281.41 366,-302.38 371.45,-305.95 377.62,-308.97 383.82,-311.5"/>
<polygon fill="#63b8ff" stroke="#63b8ff" points="291.88,-223.21 283.16,-217.2 286.23,-227.34 291.88,-223.21"/>
</a>
</g>
</g>
<!-- Node7 -->
<g id="Node000007" class="node">
<title>Node7</title>
<g id="a_Node000007"><a xlink:href="structnix_1_1CmdHash.html" target="_top" xlink:title=" ">
<polygon fill="white" stroke="#bfbfbf" points="465.25,-293.75 381,-293.75 381,-273 465.25,-273 465.25,-293.75"/>
<text text-anchor="middle" x="423.12" y="-280.25" font-family="Helvetica,sans-Serif" font-size="10.00">nix::CmdHash</text>
</a>
</g>
</g>
<!-- Node1&#45;&gt;Node7 -->
<g id="edge6_Node000001_Node000007" class="edge">
<title>Node1&#45;&gt;Node7</title>
<g id="a_edge6_Node000001_Node000007"><a xlink:title=" ">
<path fill="none" stroke="#63b8ff" d="M298.87,-222.7C316.74,-235.14 342.11,-251.69 366,-263.38 372.88,-266.74 380.47,-269.83 387.78,-272.52"/>
<polygon fill="#63b8ff" stroke="#63b8ff" points="300.95,-219.89 290.77,-216.97 296.91,-225.6 300.95,-219.89"/>
</a>
</g>
</g>
<!-- Node8 -->
<g id="Node000008" class="node">
<title>Node8</title>
<g id="a_Node000008"><a xlink:href="structnix_1_1CmdKey.html" target="_top" xlink:title=" ">
<polygon fill="white" stroke="#bfbfbf" points="461.88,-254.75 384.38,-254.75 384.38,-234 461.88,-234 461.88,-254.75"/>
<text text-anchor="middle" x="423.12" y="-241.25" font-family="Helvetica,sans-Serif" font-size="10.00">nix::CmdKey</text>
</a>
</g>
</g>
<!-- Node1&#45;&gt;Node8 -->
<g id="edge7_Node000001_Node000008" class="edge">
<title>Node1&#45;&gt;Node8</title>
<g id="a_edge7_Node000001_Node000008"><a xlink:title=" ">
<path fill="none" stroke="#63b8ff" d="M327.03,-219.17C345.77,-224.13 366.54,-229.64 383.89,-234.24"/>
<polygon fill="#63b8ff" stroke="#63b8ff" points="328.01,-215.81 317.45,-216.63 326.21,-222.57 328.01,-215.81"/>
</a>
</g>
</g>
<!-- Node9 -->
<g id="Node000009" class="node">
<title>Node9</title>
<g id="a_Node000009"><a xlink:href="structnix_1_1CmdNar.html" target="_top" xlink:title=" ">
<polygon fill="white" stroke="#bfbfbf" points="461.5,-215.75 384.75,-215.75 384.75,-195 461.5,-195 461.5,-215.75"/>
<text text-anchor="middle" x="423.12" y="-202.25" font-family="Helvetica,sans-Serif" font-size="10.00">nix::CmdNar</text>
</a>
</g>
</g>
<!-- Node1&#45;&gt;Node9 -->
<g id="edge8_Node000001_Node000009" class="edge">
<title>Node1&#45;&gt;Node9</title>
<g id="a_edge8_Node000001_Node000009"><a xlink:title=" ">
<path fill="none" stroke="#63b8ff" d="M341.39,-205.38C356.17,-205.38 371.34,-205.38 384.48,-205.38"/>
<polygon fill="#63b8ff" stroke="#63b8ff" points="341.72,-201.88 331.72,-205.38 341.72,-208.88 341.72,-201.88"/>
</a>
</g>
</g>
<!-- Node10 -->
<g id="Node000010" class="node">
<title>Node10</title>
<g id="a_Node000010"><a xlink:href="structnix_1_1CmdProfile.html" target="_top" xlink:title=" ">
<polygon fill="white" stroke="#bfbfbf" points="468.25,-176.75 378,-176.75 378,-156 468.25,-156 468.25,-176.75"/>
<text text-anchor="middle" x="423.12" y="-163.25" font-family="Helvetica,sans-Serif" font-size="10.00">nix::CmdProfile</text>
</a>
</g>
</g>
<!-- Node1&#45;&gt;Node10 -->
<g id="edge9_Node000001_Node000010" class="edge">
<title>Node1&#45;&gt;Node10</title>
<g id="a_edge9_Node000001_Node000010"><a xlink:title=" ">
<path fill="none" stroke="#63b8ff" d="M327.04,-191.58C344.78,-186.88 364.35,-181.69 381.11,-177.25"/>
<polygon fill="#63b8ff" stroke="#63b8ff" points="326.21,-188.18 317.45,-194.12 328.01,-194.94 326.21,-188.18"/>
</a>
</g>
</g>
<!-- Node11 -->
<g id="Node000011" class="node">
<title>Node11</title>
<g id="a_Node000011"><a xlink:href="structnix_1_1CmdRealisation.html" target="_top" xlink:title=" ">
<polygon fill="white" stroke="#bfbfbf" points="480.25,-137.75 366,-137.75 366,-117 480.25,-117 480.25,-137.75"/>
<text text-anchor="middle" x="423.12" y="-124.25" font-family="Helvetica,sans-Serif" font-size="10.00">nix::CmdRealisation</text>
</a>
</g>
</g>
<!-- Node1&#45;&gt;Node11 -->
<g id="edge10_Node000001_Node000011" class="edge">
<title>Node1&#45;&gt;Node11</title>
<g id="a_edge10_Node000001_Node000011"><a xlink:title=" ">
<path fill="none" stroke="#63b8ff" d="M298.87,-188.05C316.74,-175.61 342.11,-159.06 366,-147.38 372.88,-144.01 380.47,-140.92 387.78,-138.23"/>
<polygon fill="#63b8ff" stroke="#63b8ff" points="296.91,-185.15 290.77,-193.78 300.95,-190.86 296.91,-185.15"/>
</a>
</g>
</g>
<!-- Node12 -->
<g id="Node000012" class="node">
<title>Node12</title>
<g id="a_Node000012"><a xlink:href="structnix_1_1CmdRegistry.html" target="_top" xlink:title=" ">
<polygon fill="white" stroke="#bfbfbf" points="473.12,-98.75 373.12,-98.75 373.12,-78 473.12,-78 473.12,-98.75"/>
<text text-anchor="middle" x="423.12" y="-85.25" font-family="Helvetica,sans-Serif" font-size="10.00">nix::CmdRegistry</text>
</a>
</g>
</g>
<!-- Node1&#45;&gt;Node12 -->
<g id="edge11_Node000001_Node000012" class="edge">
<title>Node1&#45;&gt;Node12</title>
<g id="a_edge11_Node000001_Node000012"><a xlink:title=" ">
<path fill="none" stroke="#63b8ff" d="M289.02,-185.53C305.28,-163.82 333.98,-129.34 366,-108.38 371.45,-104.8 377.62,-101.78 383.82,-99.25"/>
<polygon fill="#63b8ff" stroke="#63b8ff" points="286.23,-183.41 283.16,-193.55 291.88,-187.54 286.23,-183.41"/>
</a>
</g>
</g>
<!-- Node13 -->
<g id="Node000013" class="node">
<title>Node13</title>
<g id="a_Node000013"><a xlink:href="structnix_1_1CmdStore.html" target="_top" xlink:title=" ">
<polygon fill="white" stroke="#bfbfbf" points="465.62,-59.75 380.62,-59.75 380.62,-39 465.62,-39 465.62,-59.75"/>
<text text-anchor="middle" x="423.12" y="-46.25" font-family="Helvetica,sans-Serif" font-size="10.00">nix::CmdStore</text>
</a>
</g>
</g>
<!-- Node1&#45;&gt;Node13 -->
<g id="edge12_Node000001_Node000013" class="edge">
<title>Node1&#45;&gt;Node13</title>
<g id="a_edge12_Node000001_Node000013"><a xlink:title=" ">
<path fill="none" stroke="#63b8ff" d="M283.81,-184.45C297.31,-154.79 325.83,-100.66 366,-69.38 370.73,-65.69 376.2,-62.65 381.83,-60.14"/>
<polygon fill="#63b8ff" stroke="#63b8ff" points="280.66,-182.91 279.84,-193.47 287.07,-185.73 280.66,-182.91"/>
</a>
</g>
</g>
<!-- Node14 -->
<g id="Node000014" class="node">
<title>Node14</title>
<g id="a_Node000014"><a xlink:href="structnix_1_1NixArgs.html" target="_top" xlink:title=" ">
<polygon fill="white" stroke="#bfbfbf" points="460.75,-20.75 385.5,-20.75 385.5,0 460.75,0 460.75,-20.75"/>
<text text-anchor="middle" x="423.12" y="-7.25" font-family="Helvetica,sans-Serif" font-size="10.00">nix::NixArgs</text>
</a>
</g>
</g>
<!-- Node1&#45;&gt;Node14 -->
<g id="edge13_Node000001_Node000014" class="edge">
<title>Node1&#45;&gt;Node14</title>
<g id="a_edge13_Node000001_Node000014"><a xlink:title=" ">
<path fill="none" stroke="#63b8ff" d="M280.62,-183.71C291.2,-147.04 317.52,-72.62 366,-30.38 371.54,-25.55 378.32,-21.86 385.23,-19.05"/>
<polygon fill="#63b8ff" stroke="#63b8ff" points="277.3,-182.57 278.02,-193.14 284.05,-184.43 277.3,-182.57"/>
</a>
</g>
</g>
<!-- Node2 -->
<g id="Node000002" class="node">
<title>Node2</title>
<g id="a_Node000002"><a xlink:href="structnix_1_1Command.html" target="_top" xlink:title=" ">
<polygon fill="white" stroke="#666666" points="182,-215.75 94.75,-215.75 94.75,-195 182,-195 182,-215.75"/>
<text text-anchor="middle" x="138.38" y="-202.25" font-family="Helvetica,sans-Serif" font-size="10.00">nix::Command</text>
</a>
</g>
</g>
<!-- Node2&#45;&gt;Node1 -->
<g id="edge1_Node000001_Node000002" class="edge">
<title>Node2&#45;&gt;Node1</title>
<g id="a_edge1_Node000001_Node000002"><a xlink:title=" ">
<path fill="none" stroke="#63b8ff" d="M193.79,-205.38C201.72,-205.38 209.9,-205.38 217.85,-205.38"/>
<polygon fill="#63b8ff" stroke="#63b8ff" points="193.9,-201.88 183.9,-205.38 193.9,-208.88 193.9,-201.88"/>
</a>
</g>
</g>
<!-- Node3 -->
<g id="Node000003" class="node">
<title>Node3</title>
<g id="a_Node000003"><a xlink:href="classnix_1_1Args.html" target="_top" xlink:title=" ">
<polygon fill="white" stroke="#bfbfbf" points="58.75,-215.75 0,-215.75 0,-195 58.75,-195 58.75,-215.75"/>
<text text-anchor="middle" x="29.38" y="-202.25" font-family="Helvetica,sans-Serif" font-size="10.00">nix::Args</text>
</a>
</g>
</g>
<!-- Node3&#45;&gt;Node2 -->
<g id="edge2_Node000002_Node000003" class="edge">
<title>Node3&#45;&gt;Node2</title>
<g id="a_edge2_Node000002_Node000003"><a xlink:title=" ">
<path fill="none" stroke="#63b8ff" d="M70.53,-205.38C78.37,-205.38 86.61,-205.38 94.53,-205.38"/>
<polygon fill="#63b8ff" stroke="#63b8ff" points="70.56,-201.88 60.56,-205.38 70.56,-208.88 70.56,-201.88"/>
</a>
</g>
</g>
</g>
</svg>
