<?xml version="1.0" encoding="UTF-8" standalone="no"?>
<!DOCTYPE svg PUBLIC "-//W3C//DTD SVG 1.1//EN"
 "http://www.w3.org/Graphics/SVG/1.1/DTD/svg11.dtd">
<!-- Generated by graphviz version 12.2.1 (0)
 -->
<!-- Title: nix::FSAccessor Pages: 1 -->
<svg width="404pt" height="86pt"
 viewBox="0.00 0.00 404.12 85.50" xmlns="http://www.w3.org/2000/svg" xmlns:xlink="http://www.w3.org/1999/xlink">
<g id="graph0" class="graph" transform="scale(1 1) rotate(0) translate(4 81.5)">
<title>nix::FSAccessor</title>
<!-- Node1 -->
<g id="Node000001" class="node">
<title>Node1</title>
<g id="a_Node000001"><a xlink:title=" ">
<polygon fill="#999999" stroke="#666666" points="245,-77.5 152.5,-77.5 152.5,-56.75 245,-56.75 245,-77.5"/>
<text text-anchor="middle" x="198.75" y="-64" font-family="Helvetica,sans-Serif" font-size="10.00">nix::FSAccessor</text>
</a>
</g>
</g>
<!-- Node2 -->
<g id="Node000002" class="node">
<title>Node2</title>
<g id="a_Node000002"><a xlink:href="structnix_1_1LocalStoreAccessor.html" target="_top" xlink:title=" ">
<polygon fill="white" stroke="#bfbfbf" points="131.5,-20.75 0,-20.75 0,0 131.5,0 131.5,-20.75"/>
<text text-anchor="middle" x="65.75" y="-7.25" font-family="Helvetica,sans-Serif" font-size="10.00">nix::LocalStoreAccessor</text>
</a>
</g>
</g>
<!-- Node1&#45;&gt;Node2 -->
<g id="edge1_Node000001_Node000002" class="edge">
<title>Node1&#45;&gt;Node2</title>
<g id="a_edge1_Node000001_Node000002"><a xlink:title=" ">
<path fill="none" stroke="#63b8ff" d="M164.38,-51.97C140.81,-42.27 110.16,-29.66 89.32,-21.08"/>
<polygon fill="#63b8ff" stroke="#63b8ff" points="162.99,-55.19 173.57,-55.76 165.66,-48.72 162.99,-55.19"/>
</a>
</g>
</g>
<!-- Node3 -->
<g id="Node000003" class="node">
<title>Node3</title>
<g id="a_Node000003"><a xlink:href="structnix_1_1NarAccessor.html" target="_top" xlink:title=" ">
<polygon fill="white" stroke="#bfbfbf" points="247.62,-20.75 149.88,-20.75 149.88,0 247.62,0 247.62,-20.75"/>
<text text-anchor="middle" x="198.75" y="-7.25" font-family="Helvetica,sans-Serif" font-size="10.00">nix::NarAccessor</text>
</a>
</g>
</g>
<!-- Node1&#45;&gt;Node3 -->
<g id="edge2_Node000001_Node000003" class="edge">
<title>Node1&#45;&gt;Node3</title>
<g id="a_edge2_Node000001_Node000003"><a xlink:title=" ">
<path fill="none" stroke="#63b8ff" d="M198.75,-44.88C198.75,-36.66 198.75,-27.68 198.75,-21.08"/>
<polygon fill="#63b8ff" stroke="#63b8ff" points="195.25,-44.82 198.75,-54.82 202.25,-44.82 195.25,-44.82"/>
</a>
</g>
</g>
<!-- Node4 -->
<g id="Node000004" class="node">
<title>Node4</title>
<g id="a_Node000004"><a xlink:href="classnix_1_1RemoteFSAccessor.html" target="_top" xlink:title=" ">
<polygon fill="white" stroke="#bfbfbf" points="396.12,-20.75 265.38,-20.75 265.38,0 396.12,0 396.12,-20.75"/>
<text text-anchor="middle" x="330.75" y="-7.25" font-family="Helvetica,sans-Serif" font-size="10.00">nix::RemoteFSAccessor</text>
</a>
</g>
</g>
<!-- Node1&#45;&gt;Node4 -->
<g id="edge3_Node000001_Node000004" class="edge">
<title>Node1&#45;&gt;Node4</title>
<g id="a_edge3_Node000001_Node000004"><a xlink:title=" ">
<path fill="none" stroke="#63b8ff" d="M232.87,-51.97C256.26,-42.27 286.68,-29.66 307.36,-21.08"/>
<polygon fill="#63b8ff" stroke="#63b8ff" points="231.64,-48.69 223.75,-55.76 234.32,-55.16 231.64,-48.69"/>
</a>
</g>
</g>
</g>
</svg>
