<?xml version="1.0" encoding="UTF-8" standalone="no"?>
<!DOCTYPE svg PUBLIC "-//W3C//DTD SVG 1.1//EN"
 "http://www.w3.org/Graphics/SVG/1.1/DTD/svg11.dtd">
<!-- Generated by graphviz version 12.2.1 (0)
 -->
<!-- Title: nix::AsyncInputStream Pages: 1 -->
<svg width="457pt" height="197pt"
 viewBox="0.00 0.00 457.25 196.75" xmlns="http://www.w3.org/2000/svg" xmlns:xlink="http://www.w3.org/1999/xlink">
<g id="graph0" class="graph" transform="scale(1 1) rotate(0) translate(4 192.75)">
<title>nix::AsyncInputStream</title>
<!-- Node1 -->
<g id="Node000001" class="node">
<title>Node1</title>
<g id="a_Node000001"><a xlink:title=" ">
<polygon fill="#999999" stroke="#666666" points="254,-98.75 127.75,-98.75 127.75,-78 254,-78 254,-98.75"/>
<text text-anchor="middle" x="190.88" y="-85.25" font-family="Helvetica,sans-Serif" font-size="10.00">nix::AsyncInputStream</text>
</a>
</g>
</g>
<!-- Node3 -->
<g id="Node000003" class="node">
<title>Node3</title>
<g id="a_Node000003"><a xlink:href="classnix_1_1AsyncFdInputStream.html" target="_top" xlink:title=" ">
<polygon fill="white" stroke="#bfbfbf" points="438.75,-188.75 300.5,-188.75 300.5,-168 438.75,-168 438.75,-188.75"/>
<text text-anchor="middle" x="369.62" y="-175.25" font-family="Helvetica,sans-Serif" font-size="10.00">nix::AsyncFdInputStream</text>
</a>
</g>
</g>
<!-- Node1&#45;&gt;Node3 -->
<g id="edge2_Node000001_Node000003" class="edge">
<title>Node1&#45;&gt;Node3</title>
<g id="a_edge2_Node000001_Node000003"><a xlink:title=" ">
<path fill="none" stroke="#63b8ff" d="M212.19,-106.76C231.06,-122.89 260.59,-145.83 290,-159.38 297.01,-162.61 304.64,-165.33 312.3,-167.61"/>
<polygon fill="#63b8ff" stroke="#63b8ff" points="214.57,-104.19 204.74,-100.24 209.96,-109.46 214.57,-104.19"/>
</a>
</g>
</g>
<!-- Node4 -->
<g id="Node000004" class="node">
<title>Node4</title>
<g id="a_Node000004"><a xlink:href="classnix_1_1AsyncGeneratorInputStream.html" target="_top" xlink:title=" ">
<polygon fill="white" stroke="#bfbfbf" points="439.5,-150.12 299.75,-150.12 299.75,-116.62 439.5,-116.62 439.5,-150.12"/>
<text text-anchor="start" x="307.75" y="-136.62" font-family="Helvetica,sans-Serif" font-size="10.00">nix::AsyncGeneratorInput</text>
<text text-anchor="middle" x="369.62" y="-123.88" font-family="Helvetica,sans-Serif" font-size="10.00">Stream</text>
</a>
</g>
</g>
<!-- Node1&#45;&gt;Node4 -->
<g id="edge3_Node000001_Node000004" class="edge">
<title>Node1&#45;&gt;Node4</title>
<g id="a_edge3_Node000001_Node000004"><a xlink:title=" ">
<path fill="none" stroke="#63b8ff" d="M245.14,-101.94C262.74,-106.42 282.57,-111.47 301.1,-116.18"/>
<polygon fill="#63b8ff" stroke="#63b8ff" points="246.23,-98.6 235.68,-99.53 244.51,-105.39 246.23,-98.6"/>
</a>
</g>
</g>
<!-- Node5 -->
<g id="Node000005" class="node">
<title>Node5</title>
<g id="a_Node000005"><a xlink:href="classnix_1_1AsyncSourceInputStream.html" target="_top" xlink:title=" ">
<polygon fill="white" stroke="#bfbfbf" points="449.25,-98.75 290,-98.75 290,-78 449.25,-78 449.25,-98.75"/>
<text text-anchor="middle" x="369.62" y="-85.25" font-family="Helvetica,sans-Serif" font-size="10.00">nix::AsyncSourceInputStream</text>
</a>
</g>
</g>
<!-- Node1&#45;&gt;Node5 -->
<g id="edge4_Node000001_Node000005" class="edge">
<title>Node1&#45;&gt;Node5</title>
<g id="a_edge4_Node000001_Node000005"><a xlink:title=" ">
<path fill="none" stroke="#63b8ff" d="M265.62,-88.38C273.52,-88.38 281.57,-88.38 289.53,-88.38"/>
<polygon fill="#63b8ff" stroke="#63b8ff" points="265.7,-84.88 255.7,-88.38 265.7,-91.88 265.7,-84.88"/>
</a>
</g>
</g>
<!-- Node6 -->
<g id="Node000006" class="node">
<title>Node6</title>
<g id="a_Node000006"><a xlink:href="classnix_1_1AsyncStringInputStream.html" target="_top" xlink:title=" ">
<polygon fill="white" stroke="#bfbfbf" points="447,-59.75 292.25,-59.75 292.25,-39 447,-39 447,-59.75"/>
<text text-anchor="middle" x="369.62" y="-46.25" font-family="Helvetica,sans-Serif" font-size="10.00">nix::AsyncStringInputStream</text>
</a>
</g>
</g>
<!-- Node1&#45;&gt;Node6 -->
<g id="edge5_Node000001_Node000006" class="edge">
<title>Node1&#45;&gt;Node6</title>
<g id="a_edge5_Node000001_Node000006"><a xlink:title=" ">
<path fill="none" stroke="#63b8ff" d="M252.28,-75.05C274.14,-70.22 298.55,-64.84 319.35,-60.25"/>
<polygon fill="#63b8ff" stroke="#63b8ff" points="251.6,-71.61 242.59,-77.19 253.11,-78.45 251.6,-71.61"/>
</a>
</g>
</g>
<!-- Node7 -->
<g id="Node000007" class="node">
<title>Node7</title>
<g id="a_Node000007"><a xlink:href="classnix_1_1AsyncTeeInputStream.html" target="_top" xlink:title=" ">
<polygon fill="white" stroke="#bfbfbf" points="441,-20.75 298.25,-20.75 298.25,0 441,0 441,-20.75"/>
<text text-anchor="middle" x="369.62" y="-7.25" font-family="Helvetica,sans-Serif" font-size="10.00">nix::AsyncTeeInputStream</text>
</a>
</g>
</g>
<!-- Node1&#45;&gt;Node7 -->
<g id="edge6_Node000001_Node000007" class="edge">
<title>Node1&#45;&gt;Node7</title>
<g id="a_edge6_Node000001_Node000007"><a xlink:title=" ">
<path fill="none" stroke="#63b8ff" d="M216.28,-71.28C235.54,-58.46 263.49,-41.32 290,-30.38 298.59,-26.83 307.98,-23.78 317.18,-21.21"/>
<polygon fill="#63b8ff" stroke="#63b8ff" points="214.36,-68.35 208.05,-76.86 218.29,-74.14 214.36,-68.35"/>
</a>
</g>
</g>
<!-- Node2 -->
<g id="Node000002" class="node">
<title>Node2</title>
<g id="a_Node000002"><a xlink:title=" ">
<polygon fill="white" stroke="#bfbfbf" points="91.75,-98.75 0,-98.75 0,-78 91.75,-78 91.75,-98.75"/>
<text text-anchor="middle" x="45.88" y="-85.25" font-family="Helvetica,sans-Serif" font-size="10.00">kj::AsyncObject</text>
</a>
</g>
</g>
<!-- Node2&#45;&gt;Node1 -->
<g id="edge1_Node000001_Node000002" class="edge">
<title>Node2&#45;&gt;Node1</title>
<g id="a_edge1_Node000001_Node000002"><a xlink:title=" ">
<path fill="none" stroke="#8b1a1a" d="M103.43,-88.38C111.31,-88.38 119.44,-88.38 127.41,-88.38"/>
<polygon fill="#8b1a1a" stroke="#8b1a1a" points="103.63,-84.88 93.63,-88.38 103.63,-91.88 103.63,-84.88"/>
</a>
</g>
</g>
</g>
</svg>
