<?xml version="1.0" encoding="UTF-8" standalone="no"?>
<!DOCTYPE svg PUBLIC "-//W3C//DTD SVG 1.1//EN"
 "http://www.w3.org/Graphics/SVG/1.1/DTD/svg11.dtd">
<!-- Generated by graphviz version 12.2.1 (0)
 -->
<!-- Title: nix::DerivationTest Pages: 1 -->
<svg width="312pt" height="214pt"
 viewBox="0.00 0.00 311.50 213.75" xmlns="http://www.w3.org/2000/svg" xmlns:xlink="http://www.w3.org/1999/xlink">
<g id="graph0" class="graph" transform="scale(1 1) rotate(0) translate(4 209.75)">
<title>nix::DerivationTest</title>
<!-- Node1 -->
<g id="Node000001" class="node">
<title>Node1</title>
<g id="a_Node000001"><a xlink:title=" ">
<polygon fill="#999999" stroke="#666666" points="198.38,-20.75 90.88,-20.75 90.88,0 198.38,0 198.38,-20.75"/>
<text text-anchor="middle" x="144.62" y="-7.25" font-family="Helvetica,sans-Serif" font-size="10.00">nix::DerivationTest</text>
</a>
</g>
</g>
<!-- Node2 -->
<g id="Node000002" class="node">
<title>Node2</title>
<g id="a_Node000002"><a xlink:title=" ">
<polygon fill="white" stroke="#bfbfbf" points="75.25,-90.25 0,-90.25 0,-69.5 75.25,-69.5 75.25,-90.25"/>
<text text-anchor="middle" x="37.62" y="-76.75" font-family="Helvetica,sans-Serif" font-size="10.00">LibStoreTest</text>
</a>
</g>
</g>
<!-- Node2&#45;&gt;Node1 -->
<g id="edge1_Node000001_Node000002" class="edge">
<title>Node2&#45;&gt;Node1</title>
<g id="a_edge1_Node000001_Node000002"><a xlink:title=" ">
<path fill="none" stroke="#63b8ff" d="M62.59,-63.13C83.1,-50.19 111.54,-32.25 128.97,-21.25"/>
<polygon fill="#63b8ff" stroke="#63b8ff" points="60.83,-60.1 54.24,-68.4 64.56,-66.02 60.83,-60.1"/>
</a>
</g>
</g>
<!-- Node3 -->
<g id="Node000003" class="node">
<title>Node3</title>
<g id="a_Node000003"><a xlink:href="structnix_1_1FeatureSettings.html" target="_top" xlink:title=" ">
<polygon fill="white" stroke="#bfbfbf" points="206.38,-90.25 92.88,-90.25 92.88,-69.5 206.38,-69.5 206.38,-90.25"/>
<text text-anchor="middle" x="149.62" y="-76.75" font-family="Helvetica,sans-Serif" font-size="10.00">nix::FeatureSettings</text>
</a>
</g>
</g>
<!-- Node3&#45;&gt;Node1 -->
<g id="edge2_Node000001_Node000003" class="edge">
<title>Node3&#45;&gt;Node1</title>
<g id="a_edge2_Node000001_Node000003"><a xlink:title=" ">
<path fill="none" stroke="#9a32cd" stroke-dasharray="5,2" d="M146.72,-57.66C146.5,-55.58 146.29,-53.5 146.12,-51.5 145.27,-41.08 144.9,-29.09 144.74,-20.96"/>
<polygon fill="#9a32cd" stroke="#9a32cd" points="143.24,-58.03 147.96,-67.51 150.19,-57.15 143.24,-58.03"/>
</a>
</g>
<text text-anchor="middle" x="187.38" y="-42" font-family="Helvetica,sans-Serif" font-size="10.00" fill="grey"> mockXpSettings</text>
</g>
<!-- Node4 -->
<g id="Node000004" class="node">
<title>Node4</title>
<g id="a_Node000004"><a xlink:href="classnix_1_1Config.html" target="_top" xlink:title=" ">
<polygon fill="white" stroke="#666666" points="183.5,-148 115.75,-148 115.75,-127.25 183.5,-127.25 183.5,-148"/>
<text text-anchor="middle" x="149.62" y="-134.5" font-family="Helvetica,sans-Serif" font-size="10.00">nix::Config</text>
</a>
</g>
</g>
<!-- Node4&#45;&gt;Node3 -->
<g id="edge3_Node000003_Node000004" class="edge">
<title>Node4&#45;&gt;Node3</title>
<g id="a_edge3_Node000003_Node000004"><a xlink:title=" ">
<path fill="none" stroke="#63b8ff" d="M149.62,-115.68C149.62,-107.02 149.62,-97.4 149.62,-90.47"/>
<polygon fill="#63b8ff" stroke="#63b8ff" points="146.13,-115.4 149.63,-125.4 153.13,-115.4 146.13,-115.4"/>
</a>
</g>
</g>
<!-- Node5 -->
<g id="Node000005" class="node">
<title>Node5</title>
<g id="a_Node000005"><a xlink:href="classnix_1_1AbstractConfig.html" target="_top" xlink:title=" ">
<polygon fill="white" stroke="#bfbfbf" points="203.75,-205.75 95.5,-205.75 95.5,-185 203.75,-185 203.75,-205.75"/>
<text text-anchor="middle" x="149.62" y="-192.25" font-family="Helvetica,sans-Serif" font-size="10.00">nix::AbstractConfig</text>
</a>
</g>
</g>
<!-- Node5&#45;&gt;Node4 -->
<g id="edge4_Node000004_Node000005" class="edge">
<title>Node5&#45;&gt;Node4</title>
<g id="a_edge4_Node000004_Node000005"><a xlink:title=" ">
<path fill="none" stroke="#63b8ff" d="M149.62,-173.43C149.62,-164.77 149.62,-155.15 149.62,-148.22"/>
<polygon fill="#63b8ff" stroke="#63b8ff" points="146.13,-173.15 149.63,-183.15 153.13,-173.15 146.13,-173.15"/>
</a>
</g>
</g>
<!-- Node6 -->
<g id="Node000006" class="node">
<title>Node6</title>
<g id="a_Node000006"><a xlink:title=" ">
<polygon fill="white" stroke="#bfbfbf" points="272.5,-90.25 228.75,-90.25 228.75,-69.5 272.5,-69.5 272.5,-90.25"/>
<text text-anchor="middle" x="250.62" y="-76.75" font-family="Helvetica,sans-Serif" font-size="10.00">string</text>
</a>
</g>
</g>
<!-- Node6&#45;&gt;Node1 -->
<g id="edge5_Node000001_Node000006" class="edge">
<title>Node6&#45;&gt;Node1</title>
<g id="a_edge5_Node000001_Node000006"><a xlink:title=" ">
<path fill="none" stroke="#9a32cd" stroke-dasharray="5,2" d="M243.26,-58.75C239.78,-51.59 234.97,-44.01 228.62,-38.75 219.06,-30.82 207.14,-25.17 195.31,-21.15"/>
<polygon fill="#9a32cd" stroke="#9a32cd" points="239.99,-59.99 247.08,-67.86 246.45,-57.29 239.99,-59.99"/>
</a>
</g>
<text text-anchor="middle" x="271.25" y="-42" font-family="Helvetica,sans-Serif" font-size="10.00" fill="grey"> unitTestData</text>
</g>
</g>
</svg>
