<?xml version="1.0" encoding="UTF-8" standalone="no"?>
<!DOCTYPE svg PUBLIC "-//W3C//DTD SVG 1.1//EN"
 "http://www.w3.org/Graphics/SVG/1.1/DTD/svg11.dtd">
<!-- Generated by graphviz version 12.2.1 (0)
 -->
<!-- Title: nix::HashSink Pages: 1 -->
<svg width="248pt" height="142pt"
 viewBox="0.00 0.00 248.25 142.25" xmlns="http://www.w3.org/2000/svg" xmlns:xlink="http://www.w3.org/1999/xlink">
<g id="graph0" class="graph" transform="scale(1 1) rotate(0) translate(4 138.25)">
<title>nix::HashSink</title>
<!-- Node1 -->
<g id="Node000001" class="node">
<title>Node1</title>
<g id="a_Node000001"><a xlink:title=" ">
<polygon fill="#999999" stroke="#666666" points="155,-20.75 72.25,-20.75 72.25,0 155,0 155,-20.75"/>
<text text-anchor="middle" x="113.62" y="-7.25" font-family="Helvetica,sans-Serif" font-size="10.00">nix::HashSink</text>
</a>
</g>
</g>
<!-- Node2 -->
<g id="Node000002" class="node">
<title>Node2</title>
<g id="a_Node000002"><a xlink:href="structnix_1_1BufferedSink.html" target="_top" xlink:title=" ">
<polygon fill="white" stroke="#666666" points="99.25,-77.5 0,-77.5 0,-56.75 99.25,-56.75 99.25,-77.5"/>
<text text-anchor="middle" x="49.62" y="-64" font-family="Helvetica,sans-Serif" font-size="10.00">nix::BufferedSink</text>
</a>
</g>
</g>
<!-- Node2&#45;&gt;Node1 -->
<g id="edge1_Node000001_Node000002" class="edge">
<title>Node2&#45;&gt;Node1</title>
<g id="a_edge1_Node000001_Node000002"><a xlink:title=" ">
<path fill="none" stroke="#63b8ff" d="M69.81,-48.86C80.53,-39.69 93.3,-28.76 102.28,-21.08"/>
<polygon fill="#63b8ff" stroke="#63b8ff" points="67.54,-46.19 62.22,-55.35 72.09,-51.51 67.54,-46.19"/>
</a>
</g>
</g>
<!-- Node3 -->
<g id="Node000003" class="node">
<title>Node3</title>
<g id="a_Node000003"><a xlink:href="structnix_1_1Sink.html" target="_top" xlink:title=" ">
<polygon fill="white" stroke="#666666" points="142.62,-134.25 84.62,-134.25 84.62,-113.5 142.62,-113.5 142.62,-134.25"/>
<text text-anchor="middle" x="113.62" y="-120.75" font-family="Helvetica,sans-Serif" font-size="10.00">nix::Sink</text>
</a>
</g>
</g>
<!-- Node3&#45;&gt;Node2 -->
<g id="edge2_Node000002_Node000003" class="edge">
<title>Node3&#45;&gt;Node2</title>
<g id="a_edge2_Node000002_Node000003"><a xlink:title=" ">
<path fill="none" stroke="#63b8ff" d="M93.44,-105.61C82.72,-96.44 69.95,-85.51 60.97,-77.83"/>
<polygon fill="#63b8ff" stroke="#63b8ff" points="91.16,-108.26 101.03,-112.1 95.71,-102.94 91.16,-108.26"/>
</a>
</g>
</g>
<!-- Node4 -->
<g id="Node000004" class="node">
<title>Node4</title>
<g id="a_Node000004"><a xlink:href="structnix_1_1AbstractHashSink.html" target="_top" xlink:title=" ">
<polygon fill="white" stroke="#bfbfbf" points="240.25,-77.5 117,-77.5 117,-56.75 240.25,-56.75 240.25,-77.5"/>
<text text-anchor="middle" x="178.62" y="-64" font-family="Helvetica,sans-Serif" font-size="10.00">nix::AbstractHashSink</text>
</a>
</g>
</g>
<!-- Node3&#45;&gt;Node4 -->
<g id="edge4_Node000004_Node000003" class="edge">
<title>Node3&#45;&gt;Node4</title>
<g id="a_edge4_Node000004_Node000003"><a xlink:title=" ">
<path fill="none" stroke="#63b8ff" d="M133.79,-105.89C144.75,-96.66 157.89,-85.59 167.1,-77.83"/>
<polygon fill="#63b8ff" stroke="#63b8ff" points="131.8,-102.99 126.4,-112.11 136.31,-108.35 131.8,-102.99"/>
</a>
</g>
</g>
<!-- Node4&#45;&gt;Node1 -->
<g id="edge3_Node000001_Node000004" class="edge">
<title>Node4&#45;&gt;Node1</title>
<g id="a_edge3_Node000001_Node000004"><a xlink:title=" ">
<path fill="none" stroke="#63b8ff" d="M158.46,-49.14C147.5,-39.91 134.36,-28.84 125.15,-21.08"/>
<polygon fill="#63b8ff" stroke="#63b8ff" points="155.94,-51.6 165.85,-55.36 160.45,-46.24 155.94,-51.6"/>
</a>
</g>
</g>
</g>
</svg>
