<?xml version="1.0" encoding="UTF-8" standalone="no"?>
<!DOCTYPE svg PUBLIC "-//W3C//DTD SVG 1.1//EN"
 "http://www.w3.org/Graphics/SVG/1.1/DTD/svg11.dtd">
<!-- Generated by graphviz version 12.2.1 (0)
 -->
<!-- Title: nix::CommonProtoTest Pages: 1 -->
<svg width="180pt" height="169pt"
 viewBox="0.00 0.00 179.64 168.75" xmlns="http://www.w3.org/2000/svg" xmlns:xlink="http://www.w3.org/1999/xlink">
<g id="graph0" class="graph" transform="scale(1 1) rotate(0) translate(4 164.75)">
<title>nix::CommonProtoTest</title>
<!-- Node1 -->
<g id="Node000001" class="node">
<title>Node1</title>
<g id="a_Node000001"><a xlink:title=" ">
<polygon fill="#999999" stroke="#666666" points="146.12,-20.75 19.88,-20.75 19.88,0 146.12,0 146.12,-20.75"/>
<text text-anchor="middle" x="83" y="-7.25" font-family="Helvetica,sans-Serif" font-size="10.00">nix::CommonProtoTest</text>
</a>
</g>
</g>
<!-- Node2 -->
<g id="Node000002" class="node">
<title>Node2</title>
<g id="a_Node000002"><a xlink:href="classnix_1_1ProtoTest.html" target="_top" xlink:title=" ">
<polygon fill="white" stroke="#bfbfbf" points="166,-91.25 0,-91.25 0,-57.75 166,-57.75 166,-91.25"/>
<text text-anchor="start" x="8" y="-77.75" font-family="Helvetica,sans-Serif" font-size="10.00">nix::ProtoTest&lt; CommonProto,</text>
<text text-anchor="middle" x="83" y="-65" font-family="Helvetica,sans-Serif" font-size="10.00"> commonProtoDir &gt;</text>
</a>
</g>
</g>
<!-- Node2&#45;&gt;Node1 -->
<g id="edge1_Node000001_Node000002" class="edge">
<title>Node2&#45;&gt;Node1</title>
<g id="a_edge1_Node000001_Node000002"><a xlink:title=" ">
<path fill="none" stroke="#63b8ff" d="M83,-46.23C83,-37.27 83,-27.89 83,-21.12"/>
<polygon fill="#63b8ff" stroke="#63b8ff" points="79.5,-45.99 83,-55.99 86.5,-45.99 79.5,-45.99"/>
</a>
</g>
</g>
<!-- Node3 -->
<g id="Node000003" class="node">
<title>Node3</title>
<g id="a_Node000003"><a xlink:title=" ">
<polygon fill="white" stroke="#bfbfbf" points="81.62,-160.75 6.38,-160.75 6.38,-140 81.62,-140 81.62,-160.75"/>
<text text-anchor="middle" x="44" y="-147.25" font-family="Helvetica,sans-Serif" font-size="10.00">LibStoreTest</text>
</a>
</g>
</g>
<!-- Node3&#45;&gt;Node2 -->
<g id="edge2_Node000002_Node000003" class="edge">
<title>Node3&#45;&gt;Node2</title>
<g id="a_edge2_Node000002_Node000003"><a xlink:title=" ">
<path fill="none" stroke="#63b8ff" d="M54.3,-129.86C60.59,-117.94 68.54,-102.9 74.47,-91.66"/>
<polygon fill="#63b8ff" stroke="#63b8ff" points="51.38,-127.9 49.81,-138.38 57.57,-131.17 51.38,-127.9"/>
</a>
</g>
</g>
<!-- Node4 -->
<g id="Node000004" class="node">
<title>Node4</title>
<g id="a_Node000004"><a xlink:title=" ">
<polygon fill="white" stroke="#bfbfbf" points="143.88,-160.75 100.12,-160.75 100.12,-140 143.88,-140 143.88,-160.75"/>
<text text-anchor="middle" x="122" y="-147.25" font-family="Helvetica,sans-Serif" font-size="10.00">string</text>
</a>
</g>
</g>
<!-- Node4&#45;&gt;Node2 -->
<g id="edge3_Node000002_Node000004" class="edge">
<title>Node4&#45;&gt;Node2</title>
<g id="a_edge3_Node000002_Node000004"><a xlink:title=" ">
<path fill="none" stroke="#9a32cd" stroke-dasharray="5,2" d="M111.7,-129.86C105.41,-117.94 97.46,-102.9 91.53,-91.66"/>
<polygon fill="#9a32cd" stroke="#9a32cd" points="108.43,-131.17 116.19,-138.38 114.62,-127.9 108.43,-131.17"/>
</a>
</g>
<text text-anchor="middle" x="139.39" y="-112.5" font-family="Helvetica,sans-Serif" font-size="10.00" fill="grey"> unitTestData</text>
</g>
</g>
</svg>
