<?xml version="1.0" encoding="UTF-8" standalone="no"?>
<!DOCTYPE svg PUBLIC "-//W3C//DTD SVG 1.1//EN"
 "http://www.w3.org/Graphics/SVG/1.1/DTD/svg11.dtd">
<!-- Generated by graphviz version 12.2.1 (0)
 -->
<!-- Title: nix::FlakeCommand Pages: 1 -->
<svg width="496pt" height="353pt"
 viewBox="0.00 0.00 496.25 352.75" xmlns="http://www.w3.org/2000/svg" xmlns:xlink="http://www.w3.org/1999/xlink">
<g id="graph0" class="graph" transform="scale(1 1) rotate(0) translate(4 348.75)">
<title>nix::FlakeCommand</title>
<!-- Node1 -->
<g id="Node000001" class="node">
<title>Node1</title>
<g id="a_Node000001"><a xlink:title=" ">
<polygon fill="#999999" stroke="#666666" points="162.75,-20.75 49.25,-20.75 49.25,0 162.75,0 162.75,-20.75"/>
<text text-anchor="middle" x="106" y="-7.25" font-family="Helvetica,sans-Serif" font-size="10.00">nix::FlakeCommand</text>
</a>
</g>
</g>
<!-- Node2 -->
<g id="Node000002" class="node">
<title>Node2</title>
<g id="a_Node000002"><a xlink:href="classnix_1_1Args.html" target="_top" xlink:title=" ">
<polygon fill="white" stroke="#bfbfbf" points="211.38,-344.75 152.62,-344.75 152.62,-324 211.38,-324 211.38,-344.75"/>
<text text-anchor="middle" x="182" y="-331.25" font-family="Helvetica,sans-Serif" font-size="10.00">nix::Args</text>
</a>
</g>
</g>
<!-- Node2&#45;&gt;Node1 -->
<g id="edge1_Node000001_Node000002" class="edge">
<title>Node2&#45;&gt;Node1</title>
<g id="a_edge1_Node000001_Node000002"><a xlink:title=" ">
<path fill="none" stroke="#63b8ff" d="M141.14,-329.13C87.47,-322.41 0,-306.95 0,-277.62 0,-277.62 0,-277.62 0,-78.88 0,-47.89 32.61,-30.51 61.66,-21.18"/>
<polygon fill="#63b8ff" stroke="#63b8ff" points="140.51,-332.58 150.85,-330.3 141.34,-325.63 140.51,-332.58"/>
</a>
</g>
</g>
<!-- Node4 -->
<g id="Node000004" class="node">
<title>Node4</title>
<g id="a_Node000004"><a xlink:href="structnix_1_1Command.html" target="_top" xlink:title=" ">
<polygon fill="white" stroke="#666666" points="165.62,-287 78.38,-287 78.38,-266.25 165.62,-266.25 165.62,-287"/>
<text text-anchor="middle" x="122" y="-273.5" font-family="Helvetica,sans-Serif" font-size="10.00">nix::Command</text>
</a>
</g>
</g>
<!-- Node2&#45;&gt;Node4 -->
<g id="edge4_Node000004_Node000002" class="edge">
<title>Node2&#45;&gt;Node4</title>
<g id="a_edge4_Node000004_Node000002"><a xlink:title=" ">
<path fill="none" stroke="#63b8ff" d="M163.25,-315.95C153.05,-306.47 140.81,-295.11 132.33,-287.22"/>
<polygon fill="#63b8ff" stroke="#63b8ff" points="160.73,-318.39 170.44,-322.63 165.5,-313.26 160.73,-318.39"/>
</a>
</g>
</g>
<!-- Node5 -->
<g id="Node000005" class="node">
<title>Node5</title>
<g id="a_Node000005"><a xlink:href="structnix_1_1MixFlakeOptions.html" target="_top" xlink:title=" ">
<polygon fill="white" stroke="#666666" points="165.38,-90.25 46.62,-90.25 46.62,-69.5 165.38,-69.5 165.38,-90.25"/>
<text text-anchor="middle" x="106" y="-76.75" font-family="Helvetica,sans-Serif" font-size="10.00">nix::MixFlakeOptions</text>
</a>
</g>
</g>
<!-- Node2&#45;&gt;Node5 -->
<g id="edge6_Node000005_Node000002" class="edge">
<title>Node2&#45;&gt;Node5</title>
<g id="a_edge6_Node000005_Node000002"><a xlink:title=" ">
<path fill="none" stroke="#63b8ff" d="M140.69,-334.03C98.14,-332.29 38,-321.98 38,-277.62 38,-277.62 38,-277.62 38,-148.38 38,-121.43 65.23,-101.55 85.23,-90.59"/>
<polygon fill="#63b8ff" stroke="#63b8ff" points="140.57,-337.53 150.65,-334.28 140.74,-330.53 140.57,-337.53"/>
</a>
</g>
</g>
<!-- Node8 -->
<g id="Node000008" class="node">
<title>Node8</title>
<g id="a_Node000008"><a xlink:href="structnix_1_1MixEvalArgs.html" target="_top" xlink:title=" ">
<polygon fill="white" stroke="#bfbfbf" points="423.88,-217.5 326.12,-217.5 326.12,-196.75 423.88,-196.75 423.88,-217.5"/>
<text text-anchor="middle" x="375" y="-204" font-family="Helvetica,sans-Serif" font-size="10.00">nix::MixEvalArgs</text>
</a>
</g>
</g>
<!-- Node2&#45;&gt;Node8 -->
<g id="edge11_Node000008_Node000002" class="edge">
<title>Node2&#45;&gt;Node8</title>
<g id="a_edge11_Node000008_Node000002"><a xlink:title=" ">
<path fill="none" stroke="#63b8ff" d="M223.12,-333.59C262.33,-331.5 320.39,-322.08 355,-287 373.65,-268.09 375.69,-234.42 375.46,-217.86"/>
<polygon fill="#63b8ff" stroke="#63b8ff" points="223.22,-330.08 213.36,-333.95 223.49,-337.07 223.22,-330.08"/>
</a>
</g>
</g>
<!-- Node9 -->
<g id="Node000009" class="node">
<title>Node9</title>
<g id="a_Node000009"><a xlink:href="structnix_1_1MixRepair.html" target="_top" xlink:title=" ">
<polygon fill="white" stroke="#bfbfbf" points="488.25,-287 401.75,-287 401.75,-266.25 488.25,-266.25 488.25,-287"/>
<text text-anchor="middle" x="445" y="-273.5" font-family="Helvetica,sans-Serif" font-size="10.00">nix::MixRepair</text>
</a>
</g>
</g>
<!-- Node2&#45;&gt;Node9 -->
<g id="edge13_Node000009_Node000002" class="edge">
<title>Node2&#45;&gt;Node9</title>
<g id="a_edge13_Node000009_Node000002"><a xlink:title=" ">
<path fill="none" stroke="#63b8ff" d="M223.11,-331.89C265.31,-329.44 332.46,-323 388,-306 402.59,-301.54 418.01,-293.64 429.13,-287.31"/>
<polygon fill="#63b8ff" stroke="#63b8ff" points="222.96,-328.39 213.16,-332.41 223.32,-335.38 222.96,-328.39"/>
</a>
</g>
</g>
<!-- Node3 -->
<g id="Node000003" class="node">
<title>Node3</title>
<g id="a_Node000003"><a xlink:href="classnix_1_1MultiCommand.html" target="_top" xlink:title=" ">
<polygon fill="white" stroke="#666666" points="308,-217.5 196,-217.5 196,-196.75 308,-196.75 308,-217.5"/>
<text text-anchor="middle" x="252" y="-204" font-family="Helvetica,sans-Serif" font-size="10.00">nix::MultiCommand</text>
</a>
</g>
</g>
<!-- Node3&#45;&gt;Node2 -->
<g id="edge2_Node000002_Node000003" class="edge">
<title>Node3&#45;&gt;Node2</title>
<g id="a_edge2_Node000002_Node000003"><a xlink:title=" ">
<path fill="none" stroke="#9a32cd" stroke-dasharray="5,2" d="M237.65,-226.73C229.43,-237.85 219.24,-252.45 211.5,-266.25 200.54,-285.79 190.7,-310.19 185.63,-323.53"/>
<polygon fill="#9a32cd" stroke="#9a32cd" points="240.38,-228.92 243.61,-218.83 234.79,-224.7 240.38,-228.92"/>
</a>
</g>
<text text-anchor="middle" x="228.75" y="-273.5" font-family="Helvetica,sans-Serif" font-size="10.00" fill="grey"> parent</text>
</g>
<!-- Node4&#45;&gt;Node3 -->
<g id="edge3_Node000003_Node000004" class="edge">
<title>Node4&#45;&gt;Node3</title>
<g id="a_edge3_Node000003_Node000004"><a xlink:title=" ">
<path fill="none" stroke="#63b8ff" d="M146.36,-259.67C158.62,-251.95 173.84,-242.79 188,-235.5 200.47,-229.09 214.77,-222.86 226.7,-217.98"/>
<polygon fill="#63b8ff" stroke="#63b8ff" points="144.67,-256.6 138.13,-264.94 148.44,-262.5 144.67,-256.6"/>
</a>
</g>
</g>
<!-- Node7 -->
<g id="Node000007" class="node">
<title>Node7</title>
<g id="a_Node000007"><a xlink:href="structnix_1_1StoreCommand.html" target="_top" xlink:title=" ">
<polygon fill="white" stroke="#666666" points="178.38,-217.5 65.62,-217.5 65.62,-196.75 178.38,-196.75 178.38,-217.5"/>
<text text-anchor="middle" x="122" y="-204" font-family="Helvetica,sans-Serif" font-size="10.00">nix::StoreCommand</text>
</a>
</g>
</g>
<!-- Node4&#45;&gt;Node7 -->
<g id="edge9_Node000007_Node000004" class="edge">
<title>Node4&#45;&gt;Node7</title>
<g id="a_edge9_Node000007_Node000004"><a xlink:title=" ">
<path fill="none" stroke="#63b8ff" d="M122,-254.82C122,-242.47 122,-227.4 122,-217.78"/>
<polygon fill="#63b8ff" stroke="#63b8ff" points="118.5,-254.44 122,-264.44 125.5,-254.44 118.5,-254.44"/>
</a>
</g>
</g>
<!-- Node5&#45;&gt;Node1 -->
<g id="edge5_Node000001_Node000005" class="edge">
<title>Node5&#45;&gt;Node1</title>
<g id="a_edge5_Node000001_Node000005"><a xlink:title=" ">
<path fill="none" stroke="#63b8ff" d="M106,-58.07C106,-45.72 106,-30.65 106,-21.03"/>
<polygon fill="#63b8ff" stroke="#63b8ff" points="102.5,-57.69 106,-67.69 109.5,-57.69 102.5,-57.69"/>
</a>
</g>
</g>
<!-- Node6 -->
<g id="Node000006" class="node">
<title>Node6</title>
<g id="a_Node000006"><a xlink:href="structnix_1_1EvalCommand.html" target="_top" xlink:title=" ">
<polygon fill="white" stroke="#666666" points="308.12,-159.75 199.88,-159.75 199.88,-139 308.12,-139 308.12,-159.75"/>
<text text-anchor="middle" x="254" y="-146.25" font-family="Helvetica,sans-Serif" font-size="10.00">nix::EvalCommand</text>
</a>
</g>
</g>
<!-- Node6&#45;&gt;Node5 -->
<g id="edge7_Node000005_Node000006" class="edge">
<title>Node6&#45;&gt;Node5</title>
<g id="a_edge7_Node000005_Node000006"><a xlink:title=" ">
<path fill="none" stroke="#63b8ff" d="M223.77,-133.56C207.84,-125.85 187.95,-116.37 170,-108.25 156.68,-102.22 141.65,-95.78 129.51,-90.66"/>
<polygon fill="#63b8ff" stroke="#63b8ff" points="222.2,-136.69 232.72,-137.91 225.26,-130.39 222.2,-136.69"/>
</a>
</g>
</g>
<!-- Node7&#45;&gt;Node6 -->
<g id="edge8_Node000006_Node000007" class="edge">
<title>Node7&#45;&gt;Node6</title>
<g id="a_edge8_Node000006_Node000007"><a xlink:title=" ">
<path fill="none" stroke="#63b8ff" d="M155.87,-191.82C179.42,-181.87 210.18,-168.88 230.94,-160.12"/>
<polygon fill="#63b8ff" stroke="#63b8ff" points="154.54,-188.58 146.69,-195.7 157.26,-195.03 154.54,-188.58"/>
</a>
</g>
</g>
<!-- Node8&#45;&gt;Node6 -->
<g id="edge10_Node000006_Node000008" class="edge">
<title>Node8&#45;&gt;Node6</title>
<g id="a_edge10_Node000006_Node000008"><a xlink:title=" ">
<path fill="none" stroke="#63b8ff" d="M343.36,-191.55C321.86,-181.64 293.99,-168.8 275.14,-160.12"/>
<polygon fill="#63b8ff" stroke="#63b8ff" points="341.72,-194.65 352.27,-195.65 344.65,-188.29 341.72,-194.65"/>
</a>
</g>
</g>
<!-- Node9&#45;&gt;Node8 -->
<g id="edge12_Node000008_Node000009" class="edge">
<title>Node9&#45;&gt;Node8</title>
<g id="a_edge12_Node000008_Node000009"><a xlink:title=" ">
<path fill="none" stroke="#63b8ff" d="M426.94,-258.21C413.6,-245.34 395.92,-228.3 385.01,-217.78"/>
<polygon fill="#63b8ff" stroke="#63b8ff" points="424.25,-260.48 433.88,-264.9 429.11,-255.44 424.25,-260.48"/>
</a>
</g>
</g>
<!-- Node10 -->
<g id="Node000010" class="node">
<title>Node10</title>
<g id="a_Node000010"><a xlink:href="structnix_1_1SearchPath.html" target="_top" xlink:title=" ">
<polygon fill="white" stroke="#666666" points="345.5,-287 254.5,-287 254.5,-266.25 345.5,-266.25 345.5,-287"/>
<text text-anchor="middle" x="300" y="-273.5" font-family="Helvetica,sans-Serif" font-size="10.00">nix::SearchPath</text>
</a>
</g>
</g>
<!-- Node10&#45;&gt;Node8 -->
<g id="edge14_Node000008_Node000010" class="edge">
<title>Node10&#45;&gt;Node8</title>
<g id="a_edge14_Node000008_Node000010"><a xlink:title=" ">
<path fill="none" stroke="#9a32cd" stroke-dasharray="5,2" d="M297.81,-254.53C298.14,-247.87 299.68,-240.87 303.75,-235.5 309.75,-227.58 318.35,-221.95 327.52,-217.95"/>
<polygon fill="#9a32cd" stroke="#9a32cd" points="294.31,-254.65 298.19,-264.51 301.3,-254.38 294.31,-254.65"/>
</a>
</g>
<text text-anchor="middle" x="331.88" y="-238.75" font-family="Helvetica,sans-Serif" font-size="10.00" fill="grey"> searchPath</text>
</g>
<!-- Node11 -->
<g id="Node000011" class="node">
<title>Node11</title>
<g id="a_Node000011"><a xlink:href="structnix_1_1flake_1_1LockFlags.html" target="_top" xlink:title=" ">
<polygon fill="white" stroke="#bfbfbf" points="181.5,-159.75 66.5,-159.75 66.5,-139 181.5,-139 181.5,-159.75"/>
<text text-anchor="middle" x="124" y="-146.25" font-family="Helvetica,sans-Serif" font-size="10.00">nix::flake::LockFlags</text>
</a>
</g>
</g>
<!-- Node11&#45;&gt;Node5 -->
<g id="edge15_Node000005_Node000011" class="edge">
<title>Node11&#45;&gt;Node5</title>
<g id="a_edge15_Node000005_Node000011"><a xlink:title=" ">
<path fill="none" stroke="#9a32cd" stroke-dasharray="5,2" d="M118.55,-127.95C115.24,-115.53 111.17,-100.25 108.57,-90.53"/>
<polygon fill="#9a32cd" stroke="#9a32cd" points="115.07,-128.48 121.03,-137.24 121.84,-126.68 115.07,-128.48"/>
</a>
</g>
<text text-anchor="middle" x="141.36" y="-111.5" font-family="Helvetica,sans-Serif" font-size="10.00" fill="grey"> lockFlags</text>
</g>
<!-- Node12 -->
<g id="Node000012" class="node">
<title>Node12</title>
<g id="a_Node000012"><a xlink:title=" ">
<polygon fill="white" stroke="#bfbfbf" points="226.88,-90.25 183.12,-90.25 183.12,-69.5 226.88,-69.5 226.88,-90.25"/>
<text text-anchor="middle" x="205" y="-76.75" font-family="Helvetica,sans-Serif" font-size="10.00">string</text>
</a>
</g>
</g>
<!-- Node12&#45;&gt;Node1 -->
<g id="edge16_Node000001_Node000012" class="edge">
<title>Node12&#45;&gt;Node1</title>
<g id="a_edge16_Node000001_Node000012"><a xlink:title=" ">
<path fill="none" stroke="#9a32cd" stroke-dasharray="5,2" d="M181.38,-62.77C162.44,-49.86 136.47,-32.15 120.48,-21.25"/>
<polygon fill="#9a32cd" stroke="#9a32cd" points="179.33,-65.61 189.57,-68.35 183.27,-59.83 179.33,-65.61"/>
</a>
</g>
<text text-anchor="middle" x="184.62" y="-42" font-family="Helvetica,sans-Serif" font-size="10.00" fill="grey"> flakeUrl</text>
</g>
</g>
</svg>
