<?xml version="1.0" encoding="UTF-8" standalone="no"?>
<!DOCTYPE svg PUBLIC "-//W3C//DTD SVG 1.1//EN"
 "http://www.w3.org/Graphics/SVG/1.1/DTD/svg11.dtd">
<!-- Generated by graphviz version 12.2.1 (0)
 -->
<!-- Title: nix::PathsSettingTestConfig Pages: 1 -->
<svg width="258pt" height="227pt"
 viewBox="0.00 0.00 258.12 226.50" xmlns="http://www.w3.org/2000/svg" xmlns:xlink="http://www.w3.org/1999/xlink">
<g id="graph0" class="graph" transform="scale(1 1) rotate(0) translate(4 222.5)">
<title>nix::PathsSettingTestConfig</title>
<!-- Node1 -->
<g id="Node000001" class="node">
<title>Node1</title>
<g id="a_Node000001"><a xlink:title=" ">
<polygon fill="#999999" stroke="#666666" points="194.12,-20.75 46.12,-20.75 46.12,0 194.12,0 194.12,-20.75"/>
<text text-anchor="middle" x="120.12" y="-7.25" font-family="Helvetica,sans-Serif" font-size="10.00">nix::PathsSettingTestConfig</text>
</a>
</g>
</g>
<!-- Node2 -->
<g id="Node000002" class="node">
<title>Node2</title>
<g id="a_Node000002"><a xlink:href="classnix_1_1Config.html" target="_top" xlink:title=" ">
<polygon fill="white" stroke="#666666" points="102,-96.62 34.25,-96.62 34.25,-75.88 102,-75.88 102,-96.62"/>
<text text-anchor="middle" x="68.12" y="-83.12" font-family="Helvetica,sans-Serif" font-size="10.00">nix::Config</text>
</a>
</g>
</g>
<!-- Node2&#45;&gt;Node1 -->
<g id="edge1_Node000001_Node000002" class="edge">
<title>Node2&#45;&gt;Node1</title>
<g id="a_edge1_Node000001_Node000002"><a xlink:title=" ">
<path fill="none" stroke="#63b8ff" d="M81.35,-66.46C91.62,-51.87 105.42,-32.26 113.49,-20.8"/>
<polygon fill="#63b8ff" stroke="#63b8ff" points="78.69,-64.16 75.79,-74.35 84.41,-68.19 78.69,-64.16"/>
</a>
</g>
</g>
<!-- Node3 -->
<g id="Node000003" class="node">
<title>Node3</title>
<g id="a_Node000003"><a xlink:href="classnix_1_1AbstractConfig.html" target="_top" xlink:title=" ">
<polygon fill="white" stroke="#bfbfbf" points="108.25,-160.75 0,-160.75 0,-140 108.25,-140 108.25,-160.75"/>
<text text-anchor="middle" x="54.12" y="-147.25" font-family="Helvetica,sans-Serif" font-size="10.00">nix::AbstractConfig</text>
</a>
</g>
</g>
<!-- Node3&#45;&gt;Node2 -->
<g id="edge2_Node000002_Node000003" class="edge">
<title>Node3&#45;&gt;Node2</title>
<g id="a_edge2_Node000002_Node000003"><a xlink:title=" ">
<path fill="none" stroke="#63b8ff" d="M58.78,-128.74C61.18,-118.08 64,-105.57 65.91,-97.09"/>
<polygon fill="#63b8ff" stroke="#63b8ff" points="55.43,-127.67 56.65,-138.19 62.26,-129.21 55.43,-127.67"/>
</a>
</g>
</g>
<!-- Node4 -->
<g id="Node000004" class="node">
<title>Node4</title>
<g id="a_Node000004"><a xlink:href="classnix_1_1PathsSetting.html" target="_top" xlink:title=" ">
<polygon fill="white" stroke="#666666" points="233.12,-103 127.12,-103 127.12,-69.5 233.12,-69.5 233.12,-103"/>
<text text-anchor="start" x="135.12" y="-89.5" font-family="Helvetica,sans-Serif" font-size="10.00">nix::PathsSetting&lt;</text>
<text text-anchor="middle" x="180.12" y="-76.75" font-family="Helvetica,sans-Serif" font-size="10.00"> Paths &gt;</text>
</a>
</g>
</g>
<!-- Node4&#45;&gt;Node1 -->
<g id="edge3_Node000001_Node000004" class="edge">
<title>Node4&#45;&gt;Node1</title>
<g id="a_edge3_Node000001_Node000004"><a xlink:title=" ">
<path fill="none" stroke="#9a32cd" stroke-dasharray="5,2" d="M159.87,-60.32C148.85,-46.75 135.86,-30.75 127.81,-20.83"/>
<polygon fill="#9a32cd" stroke="#9a32cd" points="157.13,-62.49 166.15,-68.05 162.56,-58.08 157.13,-62.49"/>
</a>
</g>
<text text-anchor="middle" x="166.92" y="-42" font-family="Helvetica,sans-Serif" font-size="10.00" fill="grey"> paths</text>
</g>
<!-- Node5 -->
<g id="Node000005" class="node">
<title>Node5</title>
<g id="a_Node000005"><a xlink:href="classnix_1_1BaseSetting.html" target="_top" xlink:title=" ">
<polygon fill="white" stroke="#666666" points="250.12,-160.75 126.12,-160.75 126.12,-140 250.12,-140 250.12,-160.75"/>
<text text-anchor="middle" x="188.12" y="-147.25" font-family="Helvetica,sans-Serif" font-size="10.00">nix::BaseSetting&lt; T &gt;</text>
</a>
</g>
</g>
<!-- Node5&#45;&gt;Node4 -->
<g id="edge4_Node000004_Node000005" class="edge">
<title>Node5&#45;&gt;Node4</title>
<g id="a_edge4_Node000004_Node000005"><a xlink:title=" ">
<path fill="none" stroke="#63b8ff" d="M185.43,-128.42C184.38,-120.26 183.19,-111.05 182.21,-103.41"/>
<polygon fill="#63b8ff" stroke="#63b8ff" points="181.93,-128.7 186.68,-138.17 188.88,-127.8 181.93,-128.7"/>
</a>
</g>
</g>
<!-- Node6 -->
<g id="Node000006" class="node">
<title>Node6</title>
<g id="a_Node000006"><a xlink:href="classnix_1_1AbstractSetting.html" target="_top" xlink:title=" ">
<polygon fill="white" stroke="#bfbfbf" points="244.12,-218.5 132.12,-218.5 132.12,-197.75 244.12,-197.75 244.12,-218.5"/>
<text text-anchor="middle" x="188.12" y="-205" font-family="Helvetica,sans-Serif" font-size="10.00">nix::AbstractSetting</text>
</a>
</g>
</g>
<!-- Node6&#45;&gt;Node5 -->
<g id="edge5_Node000005_Node000006" class="edge">
<title>Node6&#45;&gt;Node5</title>
<g id="a_edge5_Node000005_Node000006"><a xlink:title=" ">
<path fill="none" stroke="#63b8ff" d="M188.12,-186.18C188.12,-177.52 188.12,-167.9 188.12,-160.97"/>
<polygon fill="#63b8ff" stroke="#63b8ff" points="184.63,-185.9 188.13,-195.9 191.63,-185.9 184.63,-185.9"/>
</a>
</g>
</g>
</g>
</svg>
