<?xml version="1.0" encoding="UTF-8" standalone="no"?>
<!DOCTYPE svg PUBLIC "-//W3C//DTD SVG 1.1//EN"
 "http://www.w3.org/Graphics/SVG/1.1/DTD/svg11.dtd">
<!-- Generated by graphviz version 12.2.1 (0)
 -->
<!-- Title: nix::BaseSetting&lt; T &gt; Pages: 1 -->
<svg width="454pt" height="534pt"
 viewBox="0.00 0.00 454.25 534.12" xmlns="http://www.w3.org/2000/svg" xmlns:xlink="http://www.w3.org/1999/xlink">
<g id="graph0" class="graph" transform="scale(1 1) rotate(0) translate(4 530.12)">
<title>nix::BaseSetting&lt; T &gt;</title>
<!-- Node1 -->
<g id="Node000001" class="node">
<title>Node1</title>
<g id="a_Node000001"><a xlink:title=" ">
<polygon fill="#999999" stroke="#666666" points="272,-259.75 148,-259.75 148,-239 272,-239 272,-259.75"/>
<text text-anchor="middle" x="210" y="-246.25" font-family="Helvetica,sans-Serif" font-size="10.00">nix::BaseSetting&lt; T &gt;</text>
</a>
</g>
</g>
<!-- Node3 -->
<g id="Node000003" class="node">
<title>Node3</title>
<g id="a_Node000003"><a xlink:href="classnix_1_1PathsSetting.html" target="_top" xlink:title=" ">
<polygon fill="white" stroke="#666666" points="444.38,-526.12 309.88,-526.12 309.88,-492.62 444.38,-492.62 444.38,-526.12"/>
<text text-anchor="start" x="317.88" y="-512.62" font-family="Helvetica,sans-Serif" font-size="10.00">nix::PathsSetting&lt;</text>
<text text-anchor="middle" x="377.12" y="-499.88" font-family="Helvetica,sans-Serif" font-size="10.00"> std::optional&lt; Path &gt; &gt;</text>
</a>
</g>
</g>
<!-- Node1&#45;&gt;Node3 -->
<g id="edge2_Node000001_Node000003" class="edge">
<title>Node1&#45;&gt;Node3</title>
<g id="a_edge2_Node000001_Node000003"><a xlink:title=" ">
<path fill="none" stroke="#63b8ff" d="M214.18,-271.32C221.93,-316.99 245.88,-423 308,-483.38 311.45,-486.73 315.38,-489.66 319.56,-492.22"/>
<polygon fill="#63b8ff" stroke="#63b8ff" points="217.67,-270.96 212.65,-261.63 210.76,-272.05 217.67,-270.96"/>
</a>
</g>
</g>
<!-- Node4 -->
<g id="Node000004" class="node">
<title>Node4</title>
<g id="a_Node000004"><a xlink:href="classnix_1_1PathsSetting.html" target="_top" xlink:title=" ">
<polygon fill="white" stroke="#666666" points="430.12,-474.12 324.12,-474.12 324.12,-440.62 430.12,-440.62 430.12,-474.12"/>
<text text-anchor="start" x="332.12" y="-460.62" font-family="Helvetica,sans-Serif" font-size="10.00">nix::PathsSetting&lt;</text>
<text text-anchor="middle" x="377.12" y="-447.88" font-family="Helvetica,sans-Serif" font-size="10.00"> Path &gt;</text>
</a>
</g>
</g>
<!-- Node1&#45;&gt;Node4 -->
<g id="edge3_Node000001_Node000004" class="edge">
<title>Node1&#45;&gt;Node4</title>
<g id="a_edge3_Node000001_Node000004"><a xlink:title=" ">
<path fill="none" stroke="#63b8ff" d="M216.94,-270.76C228.42,-308.34 257.12,-386.49 308,-431.38 312.65,-435.48 318.02,-438.96 323.66,-441.92"/>
<polygon fill="#63b8ff" stroke="#63b8ff" points="220.4,-270.14 214.23,-261.53 213.69,-272.11 220.4,-270.14"/>
</a>
</g>
</g>
<!-- Node5 -->
<g id="Node000005" class="node">
<title>Node5</title>
<g id="a_Node000005"><a xlink:href="classnix_1_1PathsSetting.html" target="_top" xlink:title=" ">
<polygon fill="white" stroke="#666666" points="430.12,-422.12 324.12,-422.12 324.12,-388.62 430.12,-388.62 430.12,-422.12"/>
<text text-anchor="start" x="332.12" y="-408.62" font-family="Helvetica,sans-Serif" font-size="10.00">nix::PathsSetting&lt;</text>
<text text-anchor="middle" x="377.12" y="-395.88" font-family="Helvetica,sans-Serif" font-size="10.00"> Paths &gt;</text>
</a>
</g>
</g>
<!-- Node1&#45;&gt;Node5 -->
<g id="edge4_Node000001_Node000005" class="edge">
<title>Node1&#45;&gt;Node5</title>
<g id="a_edge4_Node000001_Node000005"><a xlink:title=" ">
<path fill="none" stroke="#63b8ff" d="M221.53,-270.07C236.93,-298.43 268.14,-349.25 308,-379.38 312.85,-383.04 318.27,-386.24 323.89,-389.03"/>
<polygon fill="#63b8ff" stroke="#63b8ff" points="224.72,-268.62 216.96,-261.41 218.53,-271.89 224.72,-268.62"/>
</a>
</g>
</g>
<!-- Node6 -->
<g id="Node000006" class="node">
<title>Node6</title>
<g id="a_Node000006"><a xlink:href="classnix_1_1Setting.html" target="_top" xlink:title=" ">
<polygon fill="white" stroke="#bfbfbf" points="429,-370.12 325.25,-370.12 325.25,-336.62 429,-336.62 429,-370.12"/>
<text text-anchor="start" x="333.25" y="-356.62" font-family="Helvetica,sans-Serif" font-size="10.00">nix::Setting&lt; std::</text>
<text text-anchor="middle" x="377.12" y="-343.88" font-family="Helvetica,sans-Serif" font-size="10.00">string &gt;</text>
</a>
</g>
</g>
<!-- Node1&#45;&gt;Node6 -->
<g id="edge5_Node000001_Node000006" class="edge">
<title>Node1&#45;&gt;Node6</title>
<g id="a_edge5_Node000001_Node000006"><a xlink:title=" ">
<path fill="none" stroke="#63b8ff" d="M230,-267.69C248.66,-284.89 278.52,-310.46 308,-327.38 313.6,-330.59 319.67,-333.55 325.81,-336.24"/>
<polygon fill="#63b8ff" stroke="#63b8ff" points="232.59,-265.31 222.9,-261.02 227.8,-270.42 232.59,-265.31"/>
</a>
</g>
</g>
<!-- Node7 -->
<g id="Node000007" class="node">
<title>Node7</title>
<g id="a_Node000007"><a xlink:href="classnix_1_1Setting.html" target="_top" xlink:title=" ">
<polygon fill="white" stroke="#bfbfbf" points="434.62,-318.75 319.62,-318.75 319.62,-298 434.62,-298 434.62,-318.75"/>
<text text-anchor="middle" x="377.12" y="-305.25" font-family="Helvetica,sans-Serif" font-size="10.00">nix::Setting&lt; bool &gt;</text>
</a>
</g>
</g>
<!-- Node1&#45;&gt;Node7 -->
<g id="edge6_Node000001_Node000007" class="edge">
<title>Node1&#45;&gt;Node7</title>
<g id="a_edge6_Node000001_Node000007"><a xlink:title=" ">
<path fill="none" stroke="#63b8ff" d="M246.33,-264.53C264.58,-272.12 287.31,-281.2 308,-288.38 317.32,-291.61 327.46,-294.77 337.01,-297.6"/>
<polygon fill="#63b8ff" stroke="#63b8ff" points="247.84,-261.38 237.27,-260.73 245.13,-267.83 247.84,-261.38"/>
</a>
</g>
</g>
<!-- Node8 -->
<g id="Node000008" class="node">
<title>Node8</title>
<g id="a_Node000008"><a xlink:href="classnix_1_1Setting.html" target="_top" xlink:title=" ">
<polygon fill="white" stroke="#bfbfbf" points="434.62,-279.75 319.62,-279.75 319.62,-259 434.62,-259 434.62,-279.75"/>
<text text-anchor="middle" x="377.12" y="-266.25" font-family="Helvetica,sans-Serif" font-size="10.00">nix::Setting&lt; Path &gt;</text>
</a>
</g>
</g>
<!-- Node1&#45;&gt;Node8 -->
<g id="edge7_Node000001_Node000008" class="edge">
<title>Node1&#45;&gt;Node8</title>
<g id="a_edge7_Node000001_Node000008"><a xlink:title=" ">
<path fill="none" stroke="#63b8ff" d="M283.76,-258.19C295.64,-259.63 307.8,-261.1 319.23,-262.48"/>
<polygon fill="#63b8ff" stroke="#63b8ff" points="284.34,-254.73 273.99,-257 283.5,-261.68 284.34,-254.73"/>
</a>
</g>
</g>
<!-- Node9 -->
<g id="Node000009" class="node">
<title>Node9</title>
<g id="a_Node000009"><a xlink:href="classnix_1_1Setting.html" target="_top" xlink:title=" ">
<polygon fill="white" stroke="#bfbfbf" points="430.5,-240.75 323.75,-240.75 323.75,-220 430.5,-220 430.5,-240.75"/>
<text text-anchor="middle" x="377.12" y="-227.25" font-family="Helvetica,sans-Serif" font-size="10.00">nix::Setting&lt; int &gt;</text>
</a>
</g>
</g>
<!-- Node1&#45;&gt;Node9 -->
<g id="edge8_Node000001_Node000009" class="edge">
<title>Node1&#45;&gt;Node9</title>
<g id="a_edge8_Node000001_Node000009"><a xlink:title=" ">
<path fill="none" stroke="#63b8ff" d="M283.58,-241.02C296.93,-239.49 310.63,-237.91 323.26,-236.46"/>
<polygon fill="#63b8ff" stroke="#63b8ff" points="283.52,-237.51 273.99,-242.13 284.32,-244.46 283.52,-237.51"/>
</a>
</g>
</g>
<!-- Node10 -->
<g id="Node000010" class="node">
<title>Node10</title>
<g id="a_Node000010"><a xlink:href="classnix_1_1Setting.html" target="_top" xlink:title=" ">
<polygon fill="white" stroke="#bfbfbf" points="441.75,-202.12 312.5,-202.12 312.5,-168.62 441.75,-168.62 441.75,-202.12"/>
<text text-anchor="start" x="320.5" y="-188.62" font-family="Helvetica,sans-Serif" font-size="10.00">nix::Setting&lt; std::</text>
<text text-anchor="middle" x="377.12" y="-175.88" font-family="Helvetica,sans-Serif" font-size="10.00">optional&lt; uint16_t &gt; &gt;</text>
</a>
</g>
</g>
<!-- Node1&#45;&gt;Node10 -->
<g id="edge9_Node000001_Node000010" class="edge">
<title>Node1&#45;&gt;Node10</title>
<g id="a_edge9_Node000001_Node000010"><a xlink:title=" ">
<path fill="none" stroke="#63b8ff" d="M248.77,-234.49C266.7,-227.44 288.44,-218.94 308,-211.38 315.44,-208.5 323.34,-205.46 331.03,-202.52"/>
<polygon fill="#63b8ff" stroke="#63b8ff" points="247.59,-231.19 239.56,-238.11 250.15,-237.71 247.59,-231.19"/>
</a>
</g>
</g>
<!-- Node11 -->
<g id="Node000011" class="node">
<title>Node11</title>
<g id="a_Node000011"><a xlink:href="classnix_1_1Setting.html" target="_top" xlink:title=" ">
<polygon fill="white" stroke="#bfbfbf" points="440.62,-150.12 313.62,-150.12 313.62,-116.62 440.62,-116.62 440.62,-150.12"/>
<text text-anchor="start" x="321.62" y="-136.62" font-family="Helvetica,sans-Serif" font-size="10.00">nix::Setting&lt; unsigned</text>
<text text-anchor="middle" x="377.12" y="-123.88" font-family="Helvetica,sans-Serif" font-size="10.00"> int &gt;</text>
</a>
</g>
</g>
<!-- Node1&#45;&gt;Node11 -->
<g id="edge10_Node000001_Node000011" class="edge">
<title>Node1&#45;&gt;Node11</title>
<g id="a_edge10_Node000001_Node000011"><a xlink:title=" ">
<path fill="none" stroke="#63b8ff" d="M227.75,-229.94C245.84,-209.96 276.34,-179.06 308,-159.38 313.16,-156.17 318.78,-153.25 324.51,-150.62"/>
<polygon fill="#63b8ff" stroke="#63b8ff" points="225.16,-227.59 221.14,-237.39 230.39,-232.23 225.16,-227.59"/>
</a>
</g>
</g>
<!-- Node12 -->
<g id="Node000012" class="node">
<title>Node12</title>
<g id="a_Node000012"><a xlink:href="classnix_1_1Setting.html" target="_top" xlink:title=" ">
<polygon fill="white" stroke="#bfbfbf" points="446.25,-98.75 308,-98.75 308,-78 446.25,-78 446.25,-98.75"/>
<text text-anchor="middle" x="377.12" y="-85.25" font-family="Helvetica,sans-Serif" font-size="10.00">nix::Setting&lt; StringSet &gt;</text>
</a>
</g>
</g>
<!-- Node1&#45;&gt;Node12 -->
<g id="edge11_Node000001_Node000012" class="edge">
<title>Node1&#45;&gt;Node12</title>
<g id="a_edge11_Node000001_Node000012"><a xlink:title=" ">
<path fill="none" stroke="#63b8ff" d="M219.81,-228C233.81,-196.73 264.1,-138.83 308,-107.38 312.59,-104.09 317.73,-101.36 323.08,-99.11"/>
<polygon fill="#63b8ff" stroke="#63b8ff" points="216.6,-226.61 215.85,-237.18 223.03,-229.38 216.6,-226.61"/>
</a>
</g>
</g>
<!-- Node13 -->
<g id="Node000013" class="node">
<title>Node13</title>
<g id="a_Node000013"><a xlink:href="classnix_1_1PathsSetting.html" target="_top" xlink:title=" ">
<polygon fill="white" stroke="#666666" points="440.25,-59.75 314,-59.75 314,-39 440.25,-39 440.25,-59.75"/>
<text text-anchor="middle" x="377.12" y="-46.25" font-family="Helvetica,sans-Serif" font-size="10.00">nix::PathsSetting&lt; T &gt;</text>
</a>
</g>
</g>
<!-- Node1&#45;&gt;Node13 -->
<g id="edge12_Node000001_Node000013" class="edge">
<title>Node1&#45;&gt;Node13</title>
<g id="a_edge12_Node000001_Node000013"><a xlink:title=" ">
<path fill="none" stroke="#63b8ff" d="M216.66,-227.82C227.7,-190 255.74,-111.73 308,-69.38 312.6,-65.65 317.86,-62.62 323.39,-60.15"/>
<polygon fill="#63b8ff" stroke="#63b8ff" points="213.38,-226.54 214.07,-237.12 220.12,-228.42 213.38,-226.54"/>
</a>
</g>
</g>
<!-- Node14 -->
<g id="Node000014" class="node">
<title>Node14</title>
<g id="a_Node000014"><a xlink:href="classnix_1_1Setting.html" target="_top" xlink:title=" ">
<polygon fill="white" stroke="#bfbfbf" points="427.12,-20.75 327.12,-20.75 327.12,0 427.12,0 427.12,-20.75"/>
<text text-anchor="middle" x="377.12" y="-7.25" font-family="Helvetica,sans-Serif" font-size="10.00">nix::Setting&lt; T &gt;</text>
</a>
</g>
</g>
<!-- Node1&#45;&gt;Node14 -->
<g id="edge13_Node000001_Node000014" class="edge">
<title>Node1&#45;&gt;Node14</title>
<g id="a_edge13_Node000001_Node000014"><a xlink:title=" ">
<path fill="none" stroke="#63b8ff" d="M214.43,-227.56C222.49,-183.61 246.81,-84.01 308,-30.38 313.47,-25.58 320.04,-21.93 326.9,-19.16"/>
<polygon fill="#63b8ff" stroke="#63b8ff" points="210.99,-226.92 212.75,-237.37 217.89,-228.1 210.99,-226.92"/>
</a>
</g>
</g>
<!-- Node2 -->
<g id="Node000002" class="node">
<title>Node2</title>
<g id="a_Node000002"><a xlink:href="classnix_1_1AbstractSetting.html" target="_top" xlink:title=" ">
<polygon fill="white" stroke="#bfbfbf" points="112,-259.75 0,-259.75 0,-239 112,-239 112,-259.75"/>
<text text-anchor="middle" x="56" y="-246.25" font-family="Helvetica,sans-Serif" font-size="10.00">nix::AbstractSetting</text>
</a>
</g>
</g>
<!-- Node2&#45;&gt;Node1 -->
<g id="edge1_Node000001_Node000002" class="edge">
<title>Node2&#45;&gt;Node1</title>
<g id="a_edge1_Node000001_Node000002"><a xlink:title=" ">
<path fill="none" stroke="#63b8ff" d="M123.76,-249.38C131.68,-249.38 139.73,-249.38 147.57,-249.38"/>
<polygon fill="#63b8ff" stroke="#63b8ff" points="123.82,-245.88 113.82,-249.38 123.82,-252.88 123.82,-245.88"/>
</a>
</g>
</g>
</g>
</svg>
