<?xml version="1.0" encoding="UTF-8" standalone="no"?>
<!DOCTYPE svg PUBLIC "-//W3C//DTD SVG 1.1//EN"
 "http://www.w3.org/Graphics/SVG/1.1/DTD/svg11.dtd">
<!-- Generated by graphviz version 12.2.1 (0)
 -->
<!-- Title: lix/libutil/compression.hh Pages: 1 -->
<svg width="1641pt" height="382pt"
 viewBox="0.00 0.00 1640.62 382.00" xmlns="http://www.w3.org/2000/svg" xmlns:xlink="http://www.w3.org/1999/xlink">
<g id="graph0" class="graph" transform="scale(1 1) rotate(0) translate(4 378)">
<title>lix/libutil/compression.hh</title>
<!-- Node1 -->
<g id="Node000001" class="node">
<title>Node1</title>
<g id="a_Node000001"><a xlink:title=" ">
<polygon fill="#999999" stroke="#666666" points="476.88,-374 337.88,-374 337.88,-353.25 476.88,-353.25 476.88,-374"/>
<text text-anchor="middle" x="407.38" y="-360.5" font-family="Helvetica,sans-Serif" font-size="10.00">lix/libutil/compression.hh</text>
</a>
</g>
</g>
<!-- Node2 -->
<g id="Node000002" class="node">
<title>Node2</title>
<g id="a_Node000002"><a xlink:href="ref_8hh.html" target="_top" xlink:title=" ">
<polygon fill="white" stroke="#666666" points="235.12,-191 145.62,-191 145.62,-170.25 235.12,-170.25 235.12,-191"/>
<text text-anchor="middle" x="190.38" y="-177.5" font-family="Helvetica,sans-Serif" font-size="10.00">lix/libutil/ref.hh</text>
</a>
</g>
</g>
<!-- Node1&#45;&gt;Node2 -->
<g id="edge1_Node000001_Node000002" class="edge">
<title>Node1&#45;&gt;Node2</title>
<g id="a_edge1_Node000001_Node000002"><a xlink:title=" ">
<path fill="none" stroke="#63b8ff" d="M374.84,-352.83C353.23,-345.3 324.96,-333.45 303.38,-317.25 259.03,-283.97 220.94,-230.01 202.4,-201.21"/>
<polygon fill="#63b8ff" stroke="#63b8ff" points="205.38,-199.37 197.09,-192.77 199.46,-203.1 205.38,-199.37"/>
</a>
</g>
</g>
<!-- Node7 -->
<g id="Node000007" class="node">
<title>Node7</title>
<g id="a_Node000007"><a xlink:href="types_8hh.html" target="_top" xlink:title=" ">
<polygon fill="white" stroke="#666666" points="344.25,-134.25 240.5,-134.25 240.5,-113.5 344.25,-113.5 344.25,-134.25"/>
<text text-anchor="middle" x="292.38" y="-120.75" font-family="Helvetica,sans-Serif" font-size="10.00">lix/libutil/types.hh</text>
</a>
</g>
</g>
<!-- Node1&#45;&gt;Node7 -->
<g id="edge6_Node000001_Node000007" class="edge">
<title>Node1&#45;&gt;Node7</title>
<g id="a_edge6_Node000001_Node000007"><a xlink:title=" ">
<path fill="none" stroke="#63b8ff" d="M402.72,-353.01C385.57,-317.54 325.61,-193.58 302.02,-144.81"/>
<polygon fill="#63b8ff" stroke="#63b8ff" points="305.25,-143.45 297.74,-135.97 298.95,-146.5 305.25,-143.45"/>
</a>
</g>
</g>
<!-- Node11 -->
<g id="Node000011" class="node">
<title>Node11</title>
<g id="a_Node000011"><a xlink:title=" ">
<polygon fill="#e0e0e0" stroke="#999999" points="917.25,-77.5 873.5,-77.5 873.5,-56.75 917.25,-56.75 917.25,-77.5"/>
<text text-anchor="middle" x="895.38" y="-64" font-family="Helvetica,sans-Serif" font-size="10.00">string</text>
</a>
</g>
</g>
<!-- Node1&#45;&gt;Node11 -->
<g id="edge57_Node000001_Node000011" class="edge">
<title>Node1&#45;&gt;Node11</title>
<g id="a_edge57_Node000001_Node000011"><a xlink:title=" ">
<path fill="none" stroke="#63b8ff" d="M477.04,-361.75C704.27,-358 1409.38,-338.79 1409.38,-244.75 1409.38,-244.75 1409.38,-244.75 1409.38,-179.62 1409.38,-149.05 1414.07,-132.83 1390.38,-113.5 1312.82,-50.24 1046,-93.58 928.78,-77.3"/>
<polygon fill="#63b8ff" stroke="#63b8ff" points="929.51,-73.87 919.08,-75.71 928.38,-80.78 929.51,-73.87"/>
</a>
</g>
</g>
<!-- Node17 -->
<g id="Node000017" class="node">
<title>Node17</title>
<g id="a_Node000017"><a xlink:href="serialise_8hh.html" target="_top" xlink:title=" ">
<polygon fill="white" stroke="#666666" points="608.38,-317.25 490.38,-317.25 490.38,-296.5 608.38,-296.5 608.38,-317.25"/>
<text text-anchor="middle" x="549.38" y="-303.75" font-family="Helvetica,sans-Serif" font-size="10.00">lix/libutil/serialise.hh</text>
</a>
</g>
</g>
<!-- Node1&#45;&gt;Node17 -->
<g id="edge16_Node000001_Node000017" class="edge">
<title>Node1&#45;&gt;Node17</title>
<g id="a_edge16_Node000001_Node000017"><a xlink:title=" ">
<path fill="none" stroke="#63b8ff" d="M432.76,-352.84C455.28,-344.16 488.4,-331.38 513.6,-321.67"/>
<polygon fill="#63b8ff" stroke="#63b8ff" points="514.72,-324.99 522.8,-318.12 512.21,-318.45 514.72,-324.99"/>
</a>
</g>
</g>
<!-- Node3 -->
<g id="Node000003" class="node">
<title>Node3</title>
<g id="a_Node000003"><a xlink:title=" ">
<polygon fill="#e0e0e0" stroke="#999999" points="58.75,-134.25 0,-134.25 0,-113.5 58.75,-113.5 58.75,-134.25"/>
<text text-anchor="middle" x="29.38" y="-120.75" font-family="Helvetica,sans-Serif" font-size="10.00">compare</text>
</a>
</g>
</g>
<!-- Node2&#45;&gt;Node3 -->
<g id="edge2_Node000002_Node000003" class="edge">
<title>Node2&#45;&gt;Node3</title>
<g id="a_edge2_Node000002_Node000003"><a xlink:title=" ">
<path fill="none" stroke="#63b8ff" d="M161.59,-169.84C135.8,-161.07 97.73,-148.12 69.05,-138.37"/>
<polygon fill="#63b8ff" stroke="#63b8ff" points="70.21,-135.06 59.61,-135.16 67.95,-141.69 70.21,-135.06"/>
</a>
</g>
</g>
<!-- Node4 -->
<g id="Node000004" class="node">
<title>Node4</title>
<g id="a_Node000004"><a xlink:title=" ">
<polygon fill="#e0e0e0" stroke="#999999" points="638,-134.25 580.75,-134.25 580.75,-113.5 638,-113.5 638,-134.25"/>
<text text-anchor="middle" x="609.38" y="-120.75" font-family="Helvetica,sans-Serif" font-size="10.00">memory</text>
</a>
</g>
</g>
<!-- Node2&#45;&gt;Node4 -->
<g id="edge3_Node000002_Node000004" class="edge">
<title>Node2&#45;&gt;Node4</title>
<g id="a_edge3_Node000002_Node000004"><a xlink:title=" ">
<path fill="none" stroke="#63b8ff" d="M235.61,-173.71C317.84,-162.97 490.52,-140.41 569.01,-130.15"/>
<polygon fill="#63b8ff" stroke="#63b8ff" points="569.36,-133.63 578.83,-128.87 568.46,-126.69 569.36,-133.63"/>
</a>
</g>
</g>
<!-- Node5 -->
<g id="Node000005" class="node">
<title>Node5</title>
<g id="a_Node000005"><a xlink:title=" ">
<polygon fill="#e0e0e0" stroke="#999999" points="222.38,-134.25 158.38,-134.25 158.38,-113.5 222.38,-113.5 222.38,-134.25"/>
<text text-anchor="middle" x="190.38" y="-120.75" font-family="Helvetica,sans-Serif" font-size="10.00">exception</text>
</a>
</g>
</g>
<!-- Node2&#45;&gt;Node5 -->
<g id="edge4_Node000002_Node000005" class="edge">
<title>Node2&#45;&gt;Node5</title>
<g id="a_edge4_Node000002_Node000005"><a xlink:title=" ">
<path fill="none" stroke="#63b8ff" d="M190.38,-169.84C190.38,-163.22 190.38,-154.22 190.38,-146.02"/>
<polygon fill="#63b8ff" stroke="#63b8ff" points="193.88,-146.09 190.38,-136.09 186.88,-146.09 193.88,-146.09"/>
</a>
</g>
</g>
<!-- Node6 -->
<g id="Node000006" class="node">
<title>Node6</title>
<g id="a_Node000006"><a xlink:title=" ">
<polygon fill="#e0e0e0" stroke="#999999" points="140.38,-134.25 76.38,-134.25 76.38,-113.5 140.38,-113.5 140.38,-134.25"/>
<text text-anchor="middle" x="108.38" y="-120.75" font-family="Helvetica,sans-Serif" font-size="10.00">stdexcept</text>
</a>
</g>
</g>
<!-- Node2&#45;&gt;Node6 -->
<g id="edge5_Node000002_Node000006" class="edge">
<title>Node2&#45;&gt;Node6</title>
<g id="a_edge5_Node000002_Node000006"><a xlink:title=" ">
<path fill="none" stroke="#63b8ff" d="M175.72,-169.84C163.7,-161.82 146.46,-150.31 132.44,-140.94"/>
<polygon fill="#63b8ff" stroke="#63b8ff" points="134.43,-138.06 124.17,-135.42 130.54,-143.88 134.43,-138.06"/>
</a>
</g>
</g>
<!-- Node8 -->
<g id="Node000008" class="node">
<title>Node8</title>
<g id="a_Node000008"><a xlink:title=" ">
<polygon fill="#e0e0e0" stroke="#999999" points="497.88,-77.5 466.88,-77.5 466.88,-56.75 497.88,-56.75 497.88,-77.5"/>
<text text-anchor="middle" x="482.38" y="-64" font-family="Helvetica,sans-Serif" font-size="10.00">list</text>
</a>
</g>
</g>
<!-- Node7&#45;&gt;Node8 -->
<g id="edge7_Node000007_Node000008" class="edge">
<title>Node7&#45;&gt;Node8</title>
<g id="a_edge7_Node000007_Node000008"><a xlink:title=" ">
<path fill="none" stroke="#63b8ff" d="M332.98,-113.05C364.37,-105.18 409.07,-93.35 455.56,-78.21"/>
<polygon fill="#63b8ff" stroke="#63b8ff" points="456.62,-81.55 465.02,-75.09 454.42,-74.9 456.62,-81.55"/>
</a>
</g>
</g>
<!-- Node9 -->
<g id="Node000009" class="node">
<title>Node9</title>
<g id="a_Node000009"><a xlink:title=" ">
<polygon fill="#e0e0e0" stroke="#999999" points="449.25,-77.5 393.5,-77.5 393.5,-56.75 449.25,-56.75 449.25,-77.5"/>
<text text-anchor="middle" x="421.38" y="-64" font-family="Helvetica,sans-Serif" font-size="10.00">optional</text>
</a>
</g>
</g>
<!-- Node7&#45;&gt;Node9 -->
<g id="edge8_Node000007_Node000009" class="edge">
<title>Node7&#45;&gt;Node9</title>
<g id="a_edge8_Node000007_Node000009"><a xlink:title=" ">
<path fill="none" stroke="#63b8ff" d="M315.44,-113.09C335.62,-104.52 365.18,-91.98 387.95,-82.31"/>
<polygon fill="#63b8ff" stroke="#63b8ff" points="389.28,-85.55 397.12,-78.42 386.55,-79.1 389.28,-85.55"/>
</a>
</g>
</g>
<!-- Node10 -->
<g id="Node000010" class="node">
<title>Node10</title>
<g id="a_Node000010"><a xlink:title=" ">
<polygon fill="#e0e0e0" stroke="#999999" points="546.88,-77.5 515.88,-77.5 515.88,-56.75 546.88,-56.75 546.88,-77.5"/>
<text text-anchor="middle" x="531.38" y="-64" font-family="Helvetica,sans-Serif" font-size="10.00">set</text>
</a>
</g>
</g>
<!-- Node7&#45;&gt;Node10 -->
<g id="edge9_Node000007_Node000010" class="edge">
<title>Node7&#45;&gt;Node10</title>
<g id="a_edge9_Node000007_Node000010"><a xlink:title=" ">
<path fill="none" stroke="#63b8ff" d="M344.67,-114.32C386.1,-106.99 445.53,-95.25 504.82,-77.93"/>
<polygon fill="#63b8ff" stroke="#63b8ff" points="505.46,-81.39 514.04,-75.18 503.46,-74.68 505.46,-81.39"/>
</a>
</g>
</g>
<!-- Node7&#45;&gt;Node11 -->
<g id="edge10_Node000007_Node000011" class="edge">
<title>Node7&#45;&gt;Node11</title>
<g id="a_edge10_Node000007_Node000011"><a xlink:title=" ">
<path fill="none" stroke="#63b8ff" d="M344.58,-114.56C347.55,-114.18 350.5,-113.82 353.38,-113.5 575.99,-88.59 638.46,-117.74 862.05,-77.52"/>
<polygon fill="#63b8ff" stroke="#63b8ff" points="862.47,-81 871.68,-75.76 861.22,-74.12 862.47,-81"/>
</a>
</g>
</g>
<!-- Node12 -->
<g id="Node000012" class="node">
<title>Node12</title>
<g id="a_Node000012"><a xlink:title=" ">
<polygon fill="#e0e0e0" stroke="#999999" points="637.5,-77.5 565.25,-77.5 565.25,-56.75 637.5,-56.75 637.5,-77.5"/>
<text text-anchor="middle" x="601.38" y="-64" font-family="Helvetica,sans-Serif" font-size="10.00">string_view</text>
</a>
</g>
</g>
<!-- Node7&#45;&gt;Node12 -->
<g id="edge11_Node000007_Node000012" class="edge">
<title>Node7&#45;&gt;Node12</title>
<g id="a_edge11_Node000007_Node000012"><a xlink:title=" ">
<path fill="none" stroke="#63b8ff" d="M344.57,-114.46C395.5,-106.12 475.46,-92.71 553.98,-77.91"/>
<polygon fill="#63b8ff" stroke="#63b8ff" points="554.39,-81.39 563.56,-76.09 553.08,-74.51 554.39,-81.39"/>
</a>
</g>
</g>
<!-- Node13 -->
<g id="Node000013" class="node">
<title>Node13</title>
<g id="a_Node000013"><a xlink:title=" ">
<polygon fill="#e0e0e0" stroke="#999999" points="311.25,-77.5 273.5,-77.5 273.5,-56.75 311.25,-56.75 311.25,-77.5"/>
<text text-anchor="middle" x="292.38" y="-64" font-family="Helvetica,sans-Serif" font-size="10.00">map</text>
</a>
</g>
</g>
<!-- Node7&#45;&gt;Node13 -->
<g id="edge12_Node000007_Node000013" class="edge">
<title>Node7&#45;&gt;Node13</title>
<g id="a_edge12_Node000007_Node000013"><a xlink:title=" ">
<path fill="none" stroke="#63b8ff" d="M292.38,-113.09C292.38,-106.47 292.38,-97.47 292.38,-89.27"/>
<polygon fill="#63b8ff" stroke="#63b8ff" points="295.88,-89.34 292.38,-79.34 288.88,-89.34 295.88,-89.34"/>
</a>
</g>
</g>
<!-- Node14 -->
<g id="Node000014" class="node">
<title>Node14</title>
<g id="a_Node000014"><a xlink:title=" ">
<polygon fill="#e0e0e0" stroke="#999999" points="375.75,-77.5 329,-77.5 329,-56.75 375.75,-56.75 375.75,-77.5"/>
<text text-anchor="middle" x="352.38" y="-64" font-family="Helvetica,sans-Serif" font-size="10.00">vector</text>
</a>
</g>
</g>
<!-- Node7&#45;&gt;Node14 -->
<g id="edge13_Node000007_Node000014" class="edge">
<title>Node7&#45;&gt;Node14</title>
<g id="a_edge13_Node000007_Node000014"><a xlink:title=" ">
<path fill="none" stroke="#63b8ff" d="M303.1,-113.09C311.46,-105.46 323.29,-94.67 333.26,-85.57"/>
<polygon fill="#63b8ff" stroke="#63b8ff" points="335.6,-88.17 340.62,-78.85 330.88,-83 335.6,-88.17"/>
</a>
</g>
</g>
<!-- Node15 -->
<g id="Node000015" class="node">
<title>Node15</title>
<g id="a_Node000015"><a xlink:title=" ">
<polygon fill="#e0e0e0" stroke="#999999" points="185,-77.5 145.75,-77.5 145.75,-56.75 185,-56.75 185,-77.5"/>
<text text-anchor="middle" x="165.38" y="-64" font-family="Helvetica,sans-Serif" font-size="10.00">span</text>
</a>
</g>
</g>
<!-- Node7&#45;&gt;Node15 -->
<g id="edge14_Node000007_Node000015" class="edge">
<title>Node7&#45;&gt;Node15</title>
<g id="a_edge14_Node000007_Node000015"><a xlink:title=" ">
<path fill="none" stroke="#63b8ff" d="M269.67,-113.09C249.07,-104.21 218.53,-91.04 195.82,-81.25"/>
<polygon fill="#63b8ff" stroke="#63b8ff" points="197.33,-78.09 186.77,-77.35 194.56,-84.52 197.33,-78.09"/>
</a>
</g>
</g>
<!-- Node16 -->
<g id="Node000016" class="node">
<title>Node16</title>
<g id="a_Node000016"><a xlink:title=" ">
<polygon fill="#e0e0e0" stroke="#999999" points="255.75,-77.5 203,-77.5 203,-56.75 255.75,-56.75 255.75,-77.5"/>
<text text-anchor="middle" x="229.38" y="-64" font-family="Helvetica,sans-Serif" font-size="10.00">stdint.h</text>
</a>
</g>
</g>
<!-- Node7&#45;&gt;Node16 -->
<g id="edge15_Node000007_Node000016" class="edge">
<title>Node7&#45;&gt;Node16</title>
<g id="a_edge15_Node000007_Node000016"><a xlink:title=" ">
<path fill="none" stroke="#63b8ff" d="M281.11,-113.09C272.24,-105.38 259.66,-94.45 249.13,-85.29"/>
<polygon fill="#63b8ff" stroke="#63b8ff" points="251.53,-82.74 241.68,-78.82 246.94,-88.02 251.53,-82.74"/>
</a>
</g>
</g>
<!-- Node17&#45;&gt;Node4 -->
<g id="edge17_Node000017_Node000004" class="edge">
<title>Node17&#45;&gt;Node4</title>
<g id="a_edge17_Node000017_Node000004"><a xlink:title=" ">
<path fill="none" stroke="#63b8ff" d="M552.6,-296.14C562.02,-267.72 589.64,-184.4 602.56,-145.42"/>
<polygon fill="#63b8ff" stroke="#63b8ff" points="605.83,-146.68 605.66,-136.09 599.19,-144.48 605.83,-146.68"/>
</a>
</g>
</g>
<!-- Node17&#45;&gt;Node7 -->
<g id="edge29_Node000017_Node000007" class="edge">
<title>Node17&#45;&gt;Node7</title>
<g id="a_edge29_Node000017_Node000007"><a xlink:title=" ">
<path fill="none" stroke="#63b8ff" d="M535.56,-296.14C493.64,-266.62 367.58,-177.84 315.39,-141.08"/>
<polygon fill="#63b8ff" stroke="#63b8ff" points="317.69,-138.42 307.5,-135.53 313.66,-144.15 317.69,-138.42"/>
</a>
</g>
</g>
<!-- Node18 -->
<g id="Node000018" class="node">
<title>Node18</title>
<g id="a_Node000018"><a xlink:href="charptr-cast_8hh_source.html" target="_top" xlink:title=" ">
<polygon fill="white" stroke="#666666" points="1274.5,-260.5 1178.25,-260.5 1178.25,-227 1274.5,-227 1274.5,-260.5"/>
<text text-anchor="start" x="1186.25" y="-247" font-family="Helvetica,sans-Serif" font-size="10.00">lix/libutil/charptr</text>
<text text-anchor="middle" x="1226.38" y="-234.25" font-family="Helvetica,sans-Serif" font-size="10.00">&#45;cast.hh</text>
</a>
</g>
</g>
<!-- Node17&#45;&gt;Node18 -->
<g id="edge18_Node000017_Node000018" class="edge">
<title>Node17&#45;&gt;Node18</title>
<g id="a_edge18_Node000017_Node000018"><a xlink:title=" ">
<path fill="none" stroke="#63b8ff" d="M608.86,-300.5C737.12,-288.92 1038.43,-261.72 1166.78,-250.13"/>
<polygon fill="#63b8ff" stroke="#63b8ff" points="1166.77,-253.65 1176.42,-249.26 1166.14,-246.67 1166.77,-253.65"/>
</a>
</g>
</g>
<!-- Node21 -->
<g id="Node000021" class="node">
<title>Node21</title>
<g id="a_Node000021"><a xlink:href="generator_8hh.html" target="_top" xlink:title=" ">
<polygon fill="white" stroke="#666666" points="566,-191 442.75,-191 442.75,-170.25 566,-170.25 566,-191"/>
<text text-anchor="middle" x="504.38" y="-177.5" font-family="Helvetica,sans-Serif" font-size="10.00">lix/libutil/generator.hh</text>
</a>
</g>
</g>
<!-- Node17&#45;&gt;Node21 -->
<g id="edge21_Node000017_Node000021" class="edge">
<title>Node17&#45;&gt;Node21</title>
<g id="a_edge21_Node000017_Node000021"><a xlink:title=" ">
<path fill="none" stroke="#63b8ff" d="M545.84,-296.13C538.52,-275.89 521.53,-228.98 511.72,-201.9"/>
<polygon fill="#63b8ff" stroke="#63b8ff" points="515.1,-200.96 508.41,-192.75 508.52,-203.35 515.1,-200.96"/>
</a>
</g>
</g>
<!-- Node25 -->
<g id="Node000025" class="node">
<title>Node25</title>
<g id="a_Node000025"><a xlink:href="file-descriptor_8hh.html" target="_top" xlink:title=" ">
<polygon fill="white" stroke="#666666" points="766.12,-254.12 622.62,-254.12 622.62,-233.38 766.12,-233.38 766.12,-254.12"/>
<text text-anchor="middle" x="694.38" y="-240.62" font-family="Helvetica,sans-Serif" font-size="10.00">lix/libutil/file&#45;descriptor.hh</text>
</a>
</g>
</g>
<!-- Node17&#45;&gt;Node25 -->
<g id="edge30_Node000017_Node000025" class="edge">
<title>Node17&#45;&gt;Node25</title>
<g id="a_edge30_Node000017_Node000025"><a xlink:title=" ">
<path fill="none" stroke="#63b8ff" d="M572.67,-296.05C596.45,-286.03 633.61,-270.37 660.61,-258.98"/>
<polygon fill="#63b8ff" stroke="#63b8ff" points="661.89,-262.24 669.74,-255.13 659.17,-255.79 661.89,-262.24"/>
</a>
</g>
</g>
<!-- Node19 -->
<g id="Node000019" class="node">
<title>Node19</title>
<g id="a_Node000019"><a xlink:title=" ">
<polygon fill="#e0e0e0" stroke="#999999" points="1256.12,-191 1196.62,-191 1196.62,-170.25 1256.12,-170.25 1256.12,-191"/>
<text text-anchor="middle" x="1226.38" y="-177.5" font-family="Helvetica,sans-Serif" font-size="10.00">concepts</text>
</a>
</g>
</g>
<!-- Node18&#45;&gt;Node19 -->
<g id="edge19_Node000018_Node000019" class="edge">
<title>Node18&#45;&gt;Node19</title>
<g id="a_edge19_Node000018_Node000019"><a xlink:title=" ">
<path fill="none" stroke="#63b8ff" d="M1226.38,-226.69C1226.38,-219.35 1226.38,-210.57 1226.38,-202.71"/>
<polygon fill="#63b8ff" stroke="#63b8ff" points="1229.88,-202.98 1226.38,-192.98 1222.88,-202.98 1229.88,-202.98"/>
</a>
</g>
</g>
<!-- Node20 -->
<g id="Node000020" class="node">
<title>Node20</title>
<g id="a_Node000020"><a xlink:title=" ">
<polygon fill="#e0e0e0" stroke="#999999" points="1632.62,-77.5 1564.12,-77.5 1564.12,-56.75 1632.62,-56.75 1632.62,-77.5"/>
<text text-anchor="middle" x="1598.38" y="-64" font-family="Helvetica,sans-Serif" font-size="10.00">type_traits</text>
</a>
</g>
</g>
<!-- Node18&#45;&gt;Node20 -->
<g id="edge20_Node000018_Node000020" class="edge">
<title>Node18&#45;&gt;Node20</title>
<g id="a_edge20_Node000018_Node000020"><a xlink:title=" ">
<path fill="none" stroke="#63b8ff" d="M1274.86,-243.34C1353.23,-241.45 1507.05,-225.49 1587.38,-134.25 1598.08,-122.09 1600.4,-103.6 1600.28,-89.26"/>
<polygon fill="#63b8ff" stroke="#63b8ff" points="1603.79,-89.31 1599.78,-79.5 1596.8,-89.67 1603.79,-89.31"/>
</a>
</g>
</g>
<!-- Node21&#45;&gt;Node4 -->
<g id="edge25_Node000021_Node000004" class="edge">
<title>Node21&#45;&gt;Node4</title>
<g id="a_edge25_Node000021_Node000004"><a xlink:title=" ">
<path fill="none" stroke="#63b8ff" d="M523.15,-169.84C539.12,-161.51 562.33,-149.41 580.64,-139.86"/>
<polygon fill="#63b8ff" stroke="#63b8ff" points="582.17,-143.01 589.42,-135.28 578.94,-136.8 582.17,-143.01"/>
</a>
</g>
</g>
<!-- Node21&#45;&gt;Node5 -->
<g id="edge24_Node000021_Node000005" class="edge">
<title>Node21&#45;&gt;Node5</title>
<g id="a_edge24_Node000021_Node000005"><a xlink:title=" ">
<path fill="none" stroke="#63b8ff" d="M442.38,-170.41C389.41,-162.29 310.93,-149.67 233.48,-134.57"/>
<polygon fill="#63b8ff" stroke="#63b8ff" points="234.54,-131.21 224.05,-132.72 233.19,-138.08 234.54,-131.21"/>
</a>
</g>
</g>
<!-- Node21&#45;&gt;Node7 -->
<g id="edge22_Node000021_Node000007" class="edge">
<title>Node21&#45;&gt;Node7</title>
<g id="a_edge22_Node000021_Node000007"><a xlink:title=" ">
<path fill="none" stroke="#63b8ff" d="M466.47,-169.84C431.46,-160.79 379.26,-147.31 341.15,-137.47"/>
<polygon fill="#63b8ff" stroke="#63b8ff" points="342.33,-134.16 331.77,-135.05 340.58,-140.94 342.33,-134.16"/>
</a>
</g>
</g>
<!-- Node21&#45;&gt;Node9 -->
<g id="edge26_Node000021_Node000009" class="edge">
<title>Node21&#45;&gt;Node9</title>
<g id="a_edge26_Node000021_Node000009"><a xlink:title=" ">
<path fill="none" stroke="#63b8ff" d="M505.52,-169.76C506.59,-155.99 506.64,-130.77 495.38,-113.5 486.65,-100.12 472.46,-90.04 458.84,-82.83"/>
<polygon fill="#63b8ff" stroke="#63b8ff" points="460.51,-79.75 449.99,-78.52 457.45,-86.04 460.51,-79.75"/>
</a>
</g>
</g>
<!-- Node22 -->
<g id="Node000022" class="node">
<title>Node22</title>
<g id="a_Node000022"><a xlink:title=" ">
<polygon fill="#e0e0e0" stroke="#999999" points="424.25,-134.25 362.5,-134.25 362.5,-113.5 424.25,-113.5 424.25,-134.25"/>
<text text-anchor="middle" x="393.38" y="-120.75" font-family="Helvetica,sans-Serif" font-size="10.00">coroutine</text>
</a>
</g>
</g>
<!-- Node21&#45;&gt;Node22 -->
<g id="edge23_Node000021_Node000022" class="edge">
<title>Node21&#45;&gt;Node22</title>
<g id="a_edge23_Node000021_Node000022"><a xlink:title=" ">
<path fill="none" stroke="#63b8ff" d="M484.53,-169.84C467.48,-161.43 442.65,-149.18 423.21,-139.59"/>
<polygon fill="#63b8ff" stroke="#63b8ff" points="424.92,-136.53 414.41,-135.25 421.83,-142.81 424.92,-136.53"/>
</a>
</g>
</g>
<!-- Node23 -->
<g id="Node000023" class="node">
<title>Node23</title>
<g id="a_Node000023"><a xlink:title=" ">
<polygon fill="#e0e0e0" stroke="#999999" points="486.62,-134.25 442.12,-134.25 442.12,-113.5 486.62,-113.5 486.62,-134.25"/>
<text text-anchor="middle" x="464.38" y="-120.75" font-family="Helvetica,sans-Serif" font-size="10.00">utility</text>
</a>
</g>
</g>
<!-- Node21&#45;&gt;Node23 -->
<g id="edge27_Node000021_Node000023" class="edge">
<title>Node21&#45;&gt;Node23</title>
<g id="a_edge27_Node000021_Node000023"><a xlink:title=" ">
<path fill="none" stroke="#63b8ff" d="M497.22,-169.84C491.93,-162.6 484.56,-152.51 478.15,-143.72"/>
<polygon fill="#63b8ff" stroke="#63b8ff" points="481.08,-141.81 472.36,-135.8 475.43,-145.94 481.08,-141.81"/>
</a>
</g>
</g>
<!-- Node24 -->
<g id="Node000024" class="node">
<title>Node24</title>
<g id="a_Node000024"><a xlink:title=" ">
<polygon fill="#e0e0e0" stroke="#999999" points="705.62,-77.5 655.12,-77.5 655.12,-56.75 705.62,-56.75 705.62,-77.5"/>
<text text-anchor="middle" x="680.38" y="-64" font-family="Helvetica,sans-Serif" font-size="10.00">variant</text>
</a>
</g>
</g>
<!-- Node21&#45;&gt;Node24 -->
<g id="edge28_Node000021_Node000024" class="edge">
<title>Node21&#45;&gt;Node24</title>
<g id="a_edge28_Node000021_Node000024"><a xlink:title=" ">
<path fill="none" stroke="#63b8ff" d="M512.11,-169.91C523.71,-155.86 546.88,-129.78 571.38,-113.5 593.86,-98.55 622.07,-86.97 644.16,-79.25"/>
<polygon fill="#63b8ff" stroke="#63b8ff" points="644.98,-82.67 653.34,-76.16 642.74,-76.04 644.98,-82.67"/>
</a>
</g>
</g>
<!-- Node25&#45;&gt;Node21 -->
<g id="edge56_Node000025_Node000021" class="edge">
<title>Node25&#45;&gt;Node21</title>
<g id="a_edge56_Node000025_Node000021"><a xlink:title=" ">
<path fill="none" stroke="#63b8ff" d="M663.85,-232.93C631.72,-222.59 580.95,-206.26 545.35,-194.81"/>
<polygon fill="#63b8ff" stroke="#63b8ff" points="546.86,-191.62 536.27,-191.88 544.71,-198.28 546.86,-191.62"/>
</a>
</g>
</g>
<!-- Node26 -->
<g id="Node000026" class="node">
<title>Node26</title>
<g id="a_Node000026"><a xlink:href="error_8hh.html" target="_top" xlink:title="This file defines two main structs/classes used in nix error handling.">
<polygon fill="white" stroke="#666666" points="1073,-191 973.75,-191 973.75,-170.25 1073,-170.25 1073,-191"/>
<text text-anchor="middle" x="1023.38" y="-177.5" font-family="Helvetica,sans-Serif" font-size="10.00">lix/libutil/error.hh</text>
</a>
</g>
</g>
<!-- Node25&#45;&gt;Node26 -->
<g id="edge31_Node000025_Node000026" class="edge">
<title>Node25&#45;&gt;Node26</title>
<g id="a_edge31_Node000025_Node000026"><a xlink:title=" ">
<path fill="none" stroke="#63b8ff" d="M747.23,-232.93C805.89,-222.03 900.39,-204.47 962.2,-192.99"/>
<polygon fill="#63b8ff" stroke="#63b8ff" points="962.66,-196.46 971.85,-191.2 961.38,-189.58 962.66,-196.46"/>
</a>
</g>
</g>
<!-- Node26&#45;&gt;Node4 -->
<g id="edge49_Node000026_Node000004" class="edge">
<title>Node26&#45;&gt;Node4</title>
<g id="a_edge49_Node000026_Node000004"><a xlink:title=" ">
<path fill="none" stroke="#63b8ff" d="M973.35,-175C901.89,-168.05 766.57,-153.64 652.38,-134.25 651.39,-134.08 650.39,-133.91 649.38,-133.73"/>
<polygon fill="#63b8ff" stroke="#63b8ff" points="650.42,-130.36 639.93,-131.89 649.08,-137.23 650.42,-130.36"/>
</a>
</g>
</g>
<!-- Node26&#45;&gt;Node8 -->
<g id="edge48_Node000026_Node000008" class="edge">
<title>Node26&#45;&gt;Node8</title>
<g id="a_edge48_Node000026_Node000008"><a xlink:title=" ">
<path fill="none" stroke="#63b8ff" d="M973.25,-176.64C912.84,-172 808.8,-160.66 723.38,-134.25 703.1,-127.98 700.47,-120.32 680.38,-113.5 609.35,-89.38 585,-98.43 509.17,-77.59"/>
<polygon fill="#63b8ff" stroke="#63b8ff" points="510.15,-74.23 499.58,-74.86 508.24,-80.97 510.15,-74.23"/>
</a>
</g>
</g>
<!-- Node26&#45;&gt;Node9 -->
<g id="edge50_Node000026_Node000009" class="edge">
<title>Node26&#45;&gt;Node9</title>
<g id="a_edge50_Node000026_Node000009"><a xlink:title=" ">
<path fill="none" stroke="#63b8ff" d="M973.53,-179.63C905.35,-178.18 780.1,-170.25 680.38,-134.25 664.08,-128.37 663.5,-119.84 647.38,-113.5 571.06,-83.48 544.08,-94.95 460.64,-77.83"/>
<polygon fill="#63b8ff" stroke="#63b8ff" points="461.61,-74.45 451.1,-75.78 460.14,-81.3 461.61,-74.45"/>
</a>
</g>
</g>
<!-- Node26&#45;&gt;Node20 -->
<g id="edge55_Node000026_Node000020" class="edge">
<title>Node26&#45;&gt;Node20</title>
<g id="a_edge55_Node000026_Node000020"><a xlink:title=" ">
<path fill="none" stroke="#63b8ff" d="M1073.49,-176.74C1203.72,-169.06 1544.13,-147.8 1564.38,-134.25 1579.87,-123.88 1588.7,-104.17 1593.46,-88.96"/>
<polygon fill="#63b8ff" stroke="#63b8ff" points="1596.8,-90.01 1596.05,-79.44 1590.04,-88.17 1596.8,-90.01"/>
</a>
</g>
</g>
<!-- Node27 -->
<g id="Node000027" class="node">
<title>Node27</title>
<g id="a_Node000027"><a xlink:href="json-fwd_8hh_source.html" target="_top" xlink:title=" ">
<polygon fill="white" stroke="#666666" points="1555.38,-134.25 1437.38,-134.25 1437.38,-113.5 1555.38,-113.5 1555.38,-134.25"/>
<text text-anchor="middle" x="1496.38" y="-120.75" font-family="Helvetica,sans-Serif" font-size="10.00">lix/libutil/json&#45;fwd.hh</text>
</a>
</g>
</g>
<!-- Node26&#45;&gt;Node27 -->
<g id="edge32_Node000026_Node000027" class="edge">
<title>Node26&#45;&gt;Node27</title>
<g id="a_edge32_Node000026_Node000027"><a xlink:title=" ">
<path fill="none" stroke="#63b8ff" d="M1073.1,-173.87C1157.43,-164.11 1328.75,-144.28 1425.58,-133.07"/>
<polygon fill="#63b8ff" stroke="#63b8ff" points="1425.98,-136.55 1435.51,-131.92 1425.17,-129.59 1425.98,-136.55"/>
</a>
</g>
</g>
<!-- Node29 -->
<g id="Node000029" class="node">
<title>Node29</title>
<g id="a_Node000029"><a xlink:href="suggestions_8hh.html" target="_top" xlink:title=" ">
<polygon fill="white" stroke="#666666" points="868,-134.25 732.75,-134.25 732.75,-113.5 868,-113.5 868,-134.25"/>
<text text-anchor="middle" x="800.38" y="-120.75" font-family="Helvetica,sans-Serif" font-size="10.00">lix/libutil/suggestions.hh</text>
</a>
</g>
</g>
<!-- Node26&#45;&gt;Node29 -->
<g id="edge35_Node000026_Node000029" class="edge">
<title>Node26&#45;&gt;Node29</title>
<g id="a_edge35_Node000026_Node000029"><a xlink:title=" ">
<path fill="none" stroke="#63b8ff" d="M983.25,-169.77C946.42,-160.73 891.67,-147.29 851.67,-137.47"/>
<polygon fill="#63b8ff" stroke="#63b8ff" points="852.57,-134.09 842.02,-135.1 850.9,-140.88 852.57,-134.09"/>
</a>
</g>
</g>
<!-- Node32 -->
<g id="Node000032" class="node">
<title>Node32</title>
<g id="a_Node000032"><a xlink:href="libutil_2fmt_8hh.html" target="_top" xlink:title=" ">
<polygon fill="white" stroke="#666666" points="980.38,-134.25 886.38,-134.25 886.38,-113.5 980.38,-113.5 980.38,-134.25"/>
<text text-anchor="middle" x="933.38" y="-120.75" font-family="Helvetica,sans-Serif" font-size="10.00">lix/libutil/fmt.hh</text>
</a>
</g>
</g>
<!-- Node26&#45;&gt;Node32 -->
<g id="edge42_Node000026_Node000032" class="edge">
<title>Node26&#45;&gt;Node32</title>
<g id="a_edge42_Node000026_Node000032"><a xlink:title=" ">
<path fill="none" stroke="#63b8ff" d="M1007.28,-169.84C993.85,-161.66 974.44,-149.86 958.89,-140.4"/>
<polygon fill="#63b8ff" stroke="#63b8ff" points="960.98,-137.57 950.62,-135.37 957.34,-143.55 960.98,-137.57"/>
</a>
</g>
</g>
<!-- Node36 -->
<g id="Node000036" class="node">
<title>Node36</title>
<g id="a_Node000036"><a xlink:title=" ">
<polygon fill="#e0e0e0" stroke="#999999" points="1047.88,-134.25 998.88,-134.25 998.88,-113.5 1047.88,-113.5 1047.88,-134.25"/>
<text text-anchor="middle" x="1023.38" y="-120.75" font-family="Helvetica,sans-Serif" font-size="10.00">cstring</text>
</a>
</g>
</g>
<!-- Node26&#45;&gt;Node36 -->
<g id="edge47_Node000026_Node000036" class="edge">
<title>Node26&#45;&gt;Node36</title>
<g id="a_edge47_Node000026_Node000036"><a xlink:title=" ">
<path fill="none" stroke="#63b8ff" d="M1023.38,-169.84C1023.38,-163.22 1023.38,-154.22 1023.38,-146.02"/>
<polygon fill="#63b8ff" stroke="#63b8ff" points="1026.88,-146.09 1023.38,-136.09 1019.88,-146.09 1026.88,-146.09"/>
</a>
</g>
</g>
<!-- Node37 -->
<g id="Node000037" class="node">
<title>Node37</title>
<g id="a_Node000037"><a xlink:title=" ">
<polygon fill="#e0e0e0" stroke="#999999" points="1137.12,-134.25 1065.62,-134.25 1065.62,-113.5 1137.12,-113.5 1137.12,-134.25"/>
<text text-anchor="middle" x="1101.38" y="-120.75" font-family="Helvetica,sans-Serif" font-size="10.00">sys/types.h</text>
</a>
</g>
</g>
<!-- Node26&#45;&gt;Node37 -->
<g id="edge51_Node000026_Node000037" class="edge">
<title>Node26&#45;&gt;Node37</title>
<g id="a_edge51_Node000026_Node000037"><a xlink:title=" ">
<path fill="none" stroke="#63b8ff" d="M1037.32,-169.84C1048.74,-161.82 1065.14,-150.31 1078.49,-140.94"/>
<polygon fill="#63b8ff" stroke="#63b8ff" points="1080.14,-144.06 1086.31,-135.45 1076.12,-138.33 1080.14,-144.06"/>
</a>
</g>
</g>
<!-- Node38 -->
<g id="Node000038" class="node">
<title>Node38</title>
<g id="a_Node000038"><a xlink:title=" ">
<polygon fill="#e0e0e0" stroke="#999999" points="1218,-134.25 1154.75,-134.25 1154.75,-113.5 1218,-113.5 1218,-134.25"/>
<text text-anchor="middle" x="1186.38" y="-120.75" font-family="Helvetica,sans-Serif" font-size="10.00">sys/stat.h</text>
</a>
</g>
</g>
<!-- Node26&#45;&gt;Node38 -->
<g id="edge52_Node000026_Node000038" class="edge">
<title>Node26&#45;&gt;Node38</title>
<g id="a_edge52_Node000026_Node000038"><a xlink:title=" ">
<path fill="none" stroke="#63b8ff" d="M1052.52,-169.84C1078.74,-161.03 1117.52,-148 1146.59,-138.24"/>
<polygon fill="#63b8ff" stroke="#63b8ff" points="1147.41,-141.65 1155.78,-135.15 1145.18,-135.02 1147.41,-141.65"/>
</a>
</g>
</g>
<!-- Node39 -->
<g id="Node000039" class="node">
<title>Node39</title>
<g id="a_Node000039"><a xlink:title=" ">
<polygon fill="#e0e0e0" stroke="#999999" points="1282.75,-134.25 1236,-134.25 1236,-113.5 1282.75,-113.5 1282.75,-134.25"/>
<text text-anchor="middle" x="1259.38" y="-120.75" font-family="Helvetica,sans-Serif" font-size="10.00">fcntl.h</text>
</a>
</g>
</g>
<!-- Node26&#45;&gt;Node39 -->
<g id="edge53_Node000026_Node000039" class="edge">
<title>Node26&#45;&gt;Node39</title>
<g id="a_edge53_Node000026_Node000039"><a xlink:title=" ">
<path fill="none" stroke="#63b8ff" d="M1071.81,-169.79C1110.77,-161.67 1167.15,-149.45 1224.55,-134.86"/>
<polygon fill="#63b8ff" stroke="#63b8ff" points="1225.38,-138.27 1234.19,-132.39 1223.64,-131.48 1225.38,-138.27"/>
</a>
</g>
</g>
<!-- Node40 -->
<g id="Node000040" class="node">
<title>Node40</title>
<g id="a_Node000040"><a xlink:title=" ">
<polygon fill="#e0e0e0" stroke="#999999" points="1381.62,-134.25 1301.12,-134.25 1301.12,-113.5 1381.62,-113.5 1381.62,-134.25"/>
<text text-anchor="middle" x="1341.38" y="-120.75" font-family="Helvetica,sans-Serif" font-size="10.00">system_error</text>
</a>
</g>
</g>
<!-- Node26&#45;&gt;Node40 -->
<g id="edge54_Node000026_Node000040" class="edge">
<title>Node26&#45;&gt;Node40</title>
<g id="a_edge54_Node000026_Node000040"><a xlink:title=" ">
<path fill="none" stroke="#63b8ff" d="M1073.31,-171.44C1124.8,-162.94 1207.73,-149.09 1289.47,-134.56"/>
<polygon fill="#63b8ff" stroke="#63b8ff" points="1290.01,-138.02 1299.24,-132.82 1288.78,-131.13 1290.01,-138.02"/>
</a>
</g>
</g>
<!-- Node27&#45;&gt;Node20 -->
<g id="edge34_Node000027_Node000020" class="edge">
<title>Node27&#45;&gt;Node20</title>
<g id="a_edge34_Node000027_Node000020"><a xlink:title=" ">
<path fill="none" stroke="#63b8ff" d="M1514.61,-113.09C1530.06,-104.8 1552.46,-92.77 1570.21,-83.24"/>
<polygon fill="#63b8ff" stroke="#63b8ff" points="1571.81,-86.36 1578.96,-78.54 1568.5,-80.19 1571.81,-86.36"/>
</a>
</g>
</g>
<!-- Node28 -->
<g id="Node000028" class="node">
<title>Node28</title>
<g id="a_Node000028"><a xlink:title=" ">
<polygon fill="#e0e0e0" stroke="#999999" points="1546.12,-77.5 1414.62,-77.5 1414.62,-56.75 1546.12,-56.75 1546.12,-77.5"/>
<text text-anchor="middle" x="1480.38" y="-64" font-family="Helvetica,sans-Serif" font-size="10.00">nlohmann/json_fwd.hpp</text>
</a>
</g>
</g>
<!-- Node27&#45;&gt;Node28 -->
<g id="edge33_Node000027_Node000028" class="edge">
<title>Node27&#45;&gt;Node28</title>
<g id="a_edge33_Node000027_Node000028"><a xlink:title=" ">
<path fill="none" stroke="#63b8ff" d="M1493.51,-113.09C1491.54,-106.31 1488.83,-97.05 1486.38,-88.69"/>
<polygon fill="#63b8ff" stroke="#63b8ff" points="1489.8,-87.9 1483.64,-79.28 1483.08,-89.86 1489.8,-87.9"/>
</a>
</g>
</g>
<!-- Node29&#45;&gt;Node10 -->
<g id="edge38_Node000029_Node000010" class="edge">
<title>Node29&#45;&gt;Node10</title>
<g id="a_edge38_Node000029_Node000010"><a xlink:title=" ">
<path fill="none" stroke="#63b8ff" d="M732.33,-113.49C685.58,-106.29 622.03,-95.05 557.83,-77.49"/>
<polygon fill="#63b8ff" stroke="#63b8ff" points="559.14,-74.22 548.56,-74.91 557.26,-80.96 559.14,-74.22"/>
</a>
</g>
</g>
<!-- Node29&#45;&gt;Node11 -->
<g id="edge40_Node000029_Node000011" class="edge">
<title>Node29&#45;&gt;Node11</title>
<g id="a_edge40_Node000029_Node000011"><a xlink:title=" ">
<path fill="none" stroke="#63b8ff" d="M817.36,-113.09C831.68,-104.83 852.42,-92.88 868.91,-83.38"/>
<polygon fill="#63b8ff" stroke="#63b8ff" points="870.31,-86.61 877.23,-78.58 866.81,-80.55 870.31,-86.61"/>
</a>
</g>
</g>
<!-- Node29&#45;&gt;Node12 -->
<g id="edge39_Node000029_Node000012" class="edge">
<title>Node29&#45;&gt;Node12</title>
<g id="a_edge39_Node000029_Node000012"><a xlink:title=" ">
<path fill="none" stroke="#63b8ff" d="M764.8,-113.09C732.07,-104.08 683.35,-90.68 647.62,-80.85"/>
<polygon fill="#63b8ff" stroke="#63b8ff" points="649.01,-77.6 638.44,-78.32 647.15,-84.35 649.01,-77.6"/>
</a>
</g>
</g>
<!-- Node29&#45;&gt;Node24 -->
<g id="edge41_Node000029_Node000024" class="edge">
<title>Node29&#45;&gt;Node24</title>
<g id="a_edge41_Node000029_Node000024"><a xlink:title=" ">
<path fill="none" stroke="#63b8ff" d="M778.92,-113.09C760.32,-104.6 733.15,-92.2 712.05,-82.58"/>
<polygon fill="#63b8ff" stroke="#63b8ff" points="713.57,-79.42 703.02,-78.46 710.66,-85.79 713.57,-79.42"/>
</a>
</g>
</g>
<!-- Node30 -->
<g id="Node000030" class="node">
<title>Node30</title>
<g id="a_Node000030"><a xlink:href="comparator_8hh.html" target="_top" xlink:title=" ">
<polygon fill="white" stroke="#666666" points="855.5,-77.5 723.25,-77.5 723.25,-56.75 855.5,-56.75 855.5,-77.5"/>
<text text-anchor="middle" x="789.38" y="-64" font-family="Helvetica,sans-Serif" font-size="10.00">lix/libutil/comparator.hh</text>
</a>
</g>
</g>
<!-- Node29&#45;&gt;Node30 -->
<g id="edge36_Node000029_Node000030" class="edge">
<title>Node29&#45;&gt;Node30</title>
<g id="a_edge36_Node000029_Node000030"><a xlink:title=" ">
<path fill="none" stroke="#63b8ff" d="M798.41,-113.09C797.06,-106.39 795.23,-97.26 793.56,-88.98"/>
<polygon fill="#63b8ff" stroke="#63b8ff" points="797.02,-88.43 791.62,-79.31 790.16,-89.81 797.02,-88.43"/>
</a>
</g>
</g>
<!-- Node31 -->
<g id="Node000031" class="node">
<title>Node31</title>
<g id="a_Node000031"><a xlink:title=" ">
<polygon fill="#e0e0e0" stroke="#999999" points="809.75,-20.75 769,-20.75 769,0 809.75,0 809.75,-20.75"/>
<text text-anchor="middle" x="789.38" y="-7.25" font-family="Helvetica,sans-Serif" font-size="10.00">tuple</text>
</a>
</g>
</g>
<!-- Node30&#45;&gt;Node31 -->
<g id="edge37_Node000030_Node000031" class="edge">
<title>Node30&#45;&gt;Node31</title>
<g id="a_edge37_Node000030_Node000031"><a xlink:title=" ">
<path fill="none" stroke="#63b8ff" d="M789.38,-56.34C789.38,-49.72 789.38,-40.72 789.38,-32.52"/>
<polygon fill="#63b8ff" stroke="#63b8ff" points="792.88,-32.59 789.38,-22.59 785.88,-32.59 792.88,-32.59"/>
</a>
</g>
</g>
<!-- Node32&#45;&gt;Node11 -->
<g id="edge44_Node000032_Node000011" class="edge">
<title>Node32&#45;&gt;Node11</title>
<g id="a_edge44_Node000032_Node000011"><a xlink:title=" ">
<path fill="none" stroke="#63b8ff" d="M926.58,-113.09C921.61,-105.92 914.71,-95.98 908.65,-87.26"/>
<polygon fill="#63b8ff" stroke="#63b8ff" points="911.55,-85.29 902.97,-79.07 905.8,-89.28 911.55,-85.29"/>
</a>
</g>
</g>
<!-- Node33 -->
<g id="Node000033" class="node">
<title>Node33</title>
<g id="a_Node000033"><a xlink:title=" ">
<polygon fill="#e0e0e0" stroke="#999999" points="1251.12,-77.5 1191.62,-77.5 1191.62,-56.75 1251.12,-56.75 1251.12,-77.5"/>
<text text-anchor="middle" x="1221.38" y="-64" font-family="Helvetica,sans-Serif" font-size="10.00">iostream</text>
</a>
</g>
</g>
<!-- Node32&#45;&gt;Node33 -->
<g id="edge43_Node000032_Node000033" class="edge">
<title>Node32&#45;&gt;Node33</title>
<g id="a_edge43_Node000032_Node000033"><a xlink:title=" ">
<path fill="none" stroke="#63b8ff" d="M980.8,-115.04C1028.66,-106.96 1104.94,-93.58 1180.1,-77.89"/>
<polygon fill="#63b8ff" stroke="#63b8ff" points="1180.63,-81.36 1189.7,-75.87 1179.19,-74.51 1180.63,-81.36"/>
</a>
</g>
</g>
<!-- Node34 -->
<g id="Node000034" class="node">
<title>Node34</title>
<g id="a_Node000034"><a xlink:title=" ">
<polygon fill="#e0e0e0" stroke="#999999" points="1035.38,-77.5 935.38,-77.5 935.38,-56.75 1035.38,-56.75 1035.38,-77.5"/>
<text text-anchor="middle" x="985.38" y="-64" font-family="Helvetica,sans-Serif" font-size="10.00">boost/format.hpp</text>
</a>
</g>
</g>
<!-- Node32&#45;&gt;Node34 -->
<g id="edge45_Node000032_Node000034" class="edge">
<title>Node32&#45;&gt;Node34</title>
<g id="a_edge45_Node000032_Node000034"><a xlink:title=" ">
<path fill="none" stroke="#63b8ff" d="M942.67,-113.09C949.77,-105.61 959.75,-95.11 968.28,-86.13"/>
<polygon fill="#63b8ff" stroke="#63b8ff" points="970.77,-88.59 975.12,-78.93 965.69,-83.77 970.77,-88.59"/>
</a>
</g>
</g>
<!-- Node35 -->
<g id="Node000035" class="node">
<title>Node35</title>
<g id="a_Node000035"><a xlink:href="ansicolor_8hh.html" target="_top" xlink:title="Some ANSI escape sequences.">
<polygon fill="white" stroke="#666666" points="1173.5,-77.5 1053.25,-77.5 1053.25,-56.75 1173.5,-56.75 1173.5,-77.5"/>
<text text-anchor="middle" x="1113.38" y="-64" font-family="Helvetica,sans-Serif" font-size="10.00">lix/libutil/ansicolor.hh</text>
</a>
</g>
</g>
<!-- Node32&#45;&gt;Node35 -->
<g id="edge46_Node000032_Node000035" class="edge">
<title>Node32&#45;&gt;Node35</title>
<g id="a_edge46_Node000032_Node000035"><a xlink:title=" ">
<path fill="none" stroke="#63b8ff" d="M965.56,-113.09C994.77,-104.2 1038.09,-91.02 1070.29,-81.23"/>
<polygon fill="#63b8ff" stroke="#63b8ff" points="1071.17,-84.62 1079.72,-78.36 1069.14,-77.92 1071.17,-84.62"/>
</a>
</g>
</g>
</g>
</svg>
