<?xml version="1.0" encoding="UTF-8" standalone="no"?>
<!DOCTYPE svg PUBLIC "-//W3C//DTD SVG 1.1//EN"
 "http://www.w3.org/Graphics/SVG/1.1/DTD/svg11.dtd">
<!-- Generated by graphviz version 12.2.1 (0)
 -->
<!-- Title: lix/libstore/crypto.hh Pages: 1 -->
<svg width="125pt" height="86pt"
 viewBox="0.00 0.00 124.50 85.50" xmlns="http://www.w3.org/2000/svg" xmlns:xlink="http://www.w3.org/1999/xlink">
<g id="graph0" class="graph" transform="scale(1 1) rotate(0) translate(4 81.5)">
<title>lix/libstore/crypto.hh</title>
<!-- Node1 -->
<g id="Node000001" class="node">
<title>Node1</title>
<g id="a_Node000001"><a xlink:title=" ">
<polygon fill="#999999" stroke="#666666" points="116.5,-77.5 0,-77.5 0,-56.75 116.5,-56.75 116.5,-77.5"/>
<text text-anchor="middle" x="58.25" y="-64" font-family="Helvetica,sans-Serif" font-size="10.00">lix/libstore/crypto.hh</text>
</a>
</g>
</g>
<!-- Node2 -->
<g id="Node000002" class="node">
<title>Node2</title>
<g id="a_Node000002"><a xlink:title=" ">
<polygon fill="#e0e0e0" stroke="#999999" points="48.12,-20.75 10.38,-20.75 10.38,0 48.12,0 48.12,-20.75"/>
<text text-anchor="middle" x="29.25" y="-7.25" font-family="Helvetica,sans-Serif" font-size="10.00">map</text>
</a>
</g>
</g>
<!-- Node1&#45;&gt;Node2 -->
<g id="edge1_Node000001_Node000002" class="edge">
<title>Node1&#45;&gt;Node2</title>
<g id="a_edge1_Node000001_Node000002"><a xlink:title=" ">
<path fill="none" stroke="#63b8ff" d="M53.07,-56.34C49.35,-49.33 44.23,-39.66 39.69,-31.08"/>
<polygon fill="#63b8ff" stroke="#63b8ff" points="42.87,-29.61 35.1,-22.42 36.69,-32.89 42.87,-29.61"/>
</a>
</g>
</g>
<!-- Node3 -->
<g id="Node000003" class="node">
<title>Node3</title>
<g id="a_Node000003"><a xlink:title=" ">
<polygon fill="#e0e0e0" stroke="#999999" points="110.12,-20.75 66.38,-20.75 66.38,0 110.12,0 110.12,-20.75"/>
<text text-anchor="middle" x="88.25" y="-7.25" font-family="Helvetica,sans-Serif" font-size="10.00">string</text>
</a>
</g>
</g>
<!-- Node1&#45;&gt;Node3 -->
<g id="edge2_Node000001_Node000003" class="edge">
<title>Node1&#45;&gt;Node3</title>
<g id="a_edge2_Node000001_Node000003"><a xlink:title=" ">
<path fill="none" stroke="#63b8ff" d="M63.61,-56.34C67.45,-49.33 72.75,-39.66 77.45,-31.08"/>
<polygon fill="#63b8ff" stroke="#63b8ff" points="80.47,-32.86 82.21,-22.41 74.33,-29.49 80.47,-32.86"/>
</a>
</g>
</g>
</g>
</svg>
