<?xml version="1.0" encoding="UTF-8" standalone="no"?>
<!DOCTYPE svg PUBLIC "-//W3C//DTD SVG 1.1//EN"
 "http://www.w3.org/Graphics/SVG/1.1/DTD/svg11.dtd">
<!-- Generated by graphviz version 12.2.1 (0)
 -->
<!-- Title: lix/libutil/current&#45;process.hh Pages: 1 -->
<svg width="561pt" height="155pt"
 viewBox="0.00 0.00 561.25 155.00" xmlns="http://www.w3.org/2000/svg" xmlns:xlink="http://www.w3.org/1999/xlink">
<g id="graph0" class="graph" transform="scale(1 1) rotate(0) translate(4 151)">
<title>lix/libutil/current&#45;process.hh</title>
<!-- Node1 -->
<g id="Node000001" class="node">
<title>Node1</title>
<g id="a_Node000001"><a xlink:title=" ">
<polygon fill="#999999" stroke="#666666" points="168,-147 71.75,-147 71.75,-113.5 168,-113.5 168,-147"/>
<text text-anchor="start" x="79.75" y="-133.5" font-family="Helvetica,sans-Serif" font-size="10.00">lix/libutil/current</text>
<text text-anchor="middle" x="119.88" y="-120.75" font-family="Helvetica,sans-Serif" font-size="10.00">&#45;process.hh</text>
</a>
</g>
</g>
<!-- Node2 -->
<g id="Node000002" class="node">
<title>Node2</title>
<g id="a_Node000002"><a xlink:title=" ">
<polygon fill="#e0e0e0" stroke="#999999" points="55.75,-20.75 0,-20.75 0,0 55.75,0 55.75,-20.75"/>
<text text-anchor="middle" x="27.88" y="-7.25" font-family="Helvetica,sans-Serif" font-size="10.00">optional</text>
</a>
</g>
</g>
<!-- Node1&#45;&gt;Node2 -->
<g id="edge1_Node000001_Node000002" class="edge">
<title>Node1&#45;&gt;Node2</title>
<g id="a_edge1_Node000001_Node000002"><a xlink:title=" ">
<path fill="none" stroke="#63b8ff" d="M101.92,-113.44C91.35,-103.66 78.1,-90.52 67.88,-77.5 56.23,-62.68 45.33,-44.22 37.85,-30.57"/>
<polygon fill="#63b8ff" stroke="#63b8ff" points="41.15,-29.33 33.36,-22.16 34.98,-32.62 41.15,-29.33"/>
</a>
</g>
</g>
<!-- Node3 -->
<g id="Node000003" class="node">
<title>Node3</title>
<g id="a_Node000003"><a xlink:title=" ">
<polygon fill="#e0e0e0" stroke="#999999" points="163.12,-77.5 76.62,-77.5 76.62,-56.75 163.12,-56.75 163.12,-77.5"/>
<text text-anchor="middle" x="119.88" y="-64" font-family="Helvetica,sans-Serif" font-size="10.00">sys/resource.h</text>
</a>
</g>
</g>
<!-- Node1&#45;&gt;Node3 -->
<g id="edge2_Node000001_Node000003" class="edge">
<title>Node1&#45;&gt;Node3</title>
<g id="a_edge2_Node000001_Node000003"><a xlink:title=" ">
<path fill="none" stroke="#63b8ff" d="M119.88,-113.19C119.88,-105.85 119.88,-97.07 119.88,-89.21"/>
<polygon fill="#63b8ff" stroke="#63b8ff" points="123.38,-89.48 119.88,-79.48 116.38,-89.48 123.38,-89.48"/>
</a>
</g>
</g>
<!-- Node4 -->
<g id="Node000004" class="node">
<title>Node4</title>
<g id="a_Node000004"><a xlink:href="types_8hh.html" target="_top" xlink:title=" ">
<polygon fill="white" stroke="#666666" points="312.75,-77.5 209,-77.5 209,-56.75 312.75,-56.75 312.75,-77.5"/>
<text text-anchor="middle" x="260.88" y="-64" font-family="Helvetica,sans-Serif" font-size="10.00">lix/libutil/types.hh</text>
</a>
</g>
</g>
<!-- Node1&#45;&gt;Node4 -->
<g id="edge3_Node000001_Node000004" class="edge">
<title>Node1&#45;&gt;Node4</title>
<g id="a_edge3_Node000001_Node000004"><a xlink:title=" ">
<path fill="none" stroke="#63b8ff" d="M157.29,-113.03C179.24,-103.51 206.73,-91.6 227.88,-82.43"/>
<polygon fill="#63b8ff" stroke="#63b8ff" points="229.12,-85.71 236.9,-78.52 226.34,-79.28 229.12,-85.71"/>
</a>
</g>
</g>
<!-- Node4&#45;&gt;Node2 -->
<g id="edge5_Node000004_Node000002" class="edge">
<title>Node4&#45;&gt;Node2</title>
<g id="a_edge5_Node000004_Node000002"><a xlink:title=" ">
<path fill="none" stroke="#63b8ff" d="M216.58,-56.3C179.02,-47.88 123.44,-35.23 67.06,-21.49"/>
<polygon fill="#63b8ff" stroke="#63b8ff" points="68.17,-18.16 57.62,-19.18 66.51,-24.96 68.17,-18.16"/>
</a>
</g>
</g>
<!-- Node5 -->
<g id="Node000005" class="node">
<title>Node5</title>
<g id="a_Node000005"><a xlink:title=" ">
<polygon fill="#e0e0e0" stroke="#999999" points="104.38,-20.75 73.38,-20.75 73.38,0 104.38,0 104.38,-20.75"/>
<text text-anchor="middle" x="88.88" y="-7.25" font-family="Helvetica,sans-Serif" font-size="10.00">list</text>
</a>
</g>
</g>
<!-- Node4&#45;&gt;Node5 -->
<g id="edge4_Node000004_Node000005" class="edge">
<title>Node4&#45;&gt;Node5</title>
<g id="a_edge4_Node000004_Node000005"><a xlink:title=" ">
<path fill="none" stroke="#63b8ff" d="M227.12,-56.33C199.49,-48.17 159.16,-35.95 115.54,-21.18"/>
<polygon fill="#63b8ff" stroke="#63b8ff" points="116.72,-17.88 106.13,-17.96 114.46,-24.5 116.72,-17.88"/>
</a>
</g>
</g>
<!-- Node6 -->
<g id="Node000006" class="node">
<title>Node6</title>
<g id="a_Node000006"><a xlink:title=" ">
<polygon fill="#e0e0e0" stroke="#999999" points="153.38,-20.75 122.38,-20.75 122.38,0 153.38,0 153.38,-20.75"/>
<text text-anchor="middle" x="137.88" y="-7.25" font-family="Helvetica,sans-Serif" font-size="10.00">set</text>
</a>
</g>
</g>
<!-- Node4&#45;&gt;Node6 -->
<g id="edge6_Node000004_Node000006" class="edge">
<title>Node4&#45;&gt;Node6</title>
<g id="a_edge6_Node000004_Node000006"><a xlink:title=" ">
<path fill="none" stroke="#63b8ff" d="M238.89,-56.34C217.96,-47.02 186.45,-33 164.2,-23.09"/>
<polygon fill="#63b8ff" stroke="#63b8ff" points="165.75,-19.95 155.19,-19.08 162.9,-26.35 165.75,-19.95"/>
</a>
</g>
</g>
<!-- Node7 -->
<g id="Node000007" class="node">
<title>Node7</title>
<g id="a_Node000007"><a xlink:title=" ">
<polygon fill="#e0e0e0" stroke="#999999" points="214.75,-20.75 171,-20.75 171,0 214.75,0 214.75,-20.75"/>
<text text-anchor="middle" x="192.88" y="-7.25" font-family="Helvetica,sans-Serif" font-size="10.00">string</text>
</a>
</g>
</g>
<!-- Node4&#45;&gt;Node7 -->
<g id="edge7_Node000004_Node000007" class="edge">
<title>Node4&#45;&gt;Node7</title>
<g id="a_edge7_Node000004_Node000007"><a xlink:title=" ">
<path fill="none" stroke="#63b8ff" d="M248.72,-56.34C239.05,-48.55 225.29,-37.47 213.85,-28.26"/>
<polygon fill="#63b8ff" stroke="#63b8ff" points="216.09,-25.57 206.11,-22.03 211.7,-31.03 216.09,-25.57"/>
</a>
</g>
</g>
<!-- Node8 -->
<g id="Node000008" class="node">
<title>Node8</title>
<g id="a_Node000008"><a xlink:title=" ">
<polygon fill="#e0e0e0" stroke="#999999" points="305,-20.75 232.75,-20.75 232.75,0 305,0 305,-20.75"/>
<text text-anchor="middle" x="268.88" y="-7.25" font-family="Helvetica,sans-Serif" font-size="10.00">string_view</text>
</a>
</g>
</g>
<!-- Node4&#45;&gt;Node8 -->
<g id="edge8_Node000004_Node000008" class="edge">
<title>Node4&#45;&gt;Node8</title>
<g id="a_edge8_Node000004_Node000008"><a xlink:title=" ">
<path fill="none" stroke="#63b8ff" d="M262.31,-56.34C263.28,-49.64 264.62,-40.51 265.83,-32.23"/>
<polygon fill="#63b8ff" stroke="#63b8ff" points="269.26,-32.98 267.24,-22.58 262.33,-31.96 269.26,-32.98"/>
</a>
</g>
</g>
<!-- Node9 -->
<g id="Node000009" class="node">
<title>Node9</title>
<g id="a_Node000009"><a xlink:title=" ">
<polygon fill="#e0e0e0" stroke="#999999" points="360.75,-20.75 323,-20.75 323,0 360.75,0 360.75,-20.75"/>
<text text-anchor="middle" x="341.88" y="-7.25" font-family="Helvetica,sans-Serif" font-size="10.00">map</text>
</a>
</g>
</g>
<!-- Node4&#45;&gt;Node9 -->
<g id="edge9_Node000004_Node000009" class="edge">
<title>Node4&#45;&gt;Node9</title>
<g id="a_edge9_Node000004_Node000009"><a xlink:title=" ">
<path fill="none" stroke="#63b8ff" d="M275.36,-56.34C287.22,-48.32 304.25,-36.81 318.11,-27.44"/>
<polygon fill="#63b8ff" stroke="#63b8ff" points="319.94,-30.43 326.27,-21.93 316.02,-24.63 319.94,-30.43"/>
</a>
</g>
</g>
<!-- Node10 -->
<g id="Node000010" class="node">
<title>Node10</title>
<g id="a_Node000010"><a xlink:title=" ">
<polygon fill="#e0e0e0" stroke="#999999" points="425.25,-20.75 378.5,-20.75 378.5,0 425.25,0 425.25,-20.75"/>
<text text-anchor="middle" x="401.88" y="-7.25" font-family="Helvetica,sans-Serif" font-size="10.00">vector</text>
</a>
</g>
</g>
<!-- Node4&#45;&gt;Node10 -->
<g id="edge10_Node000004_Node000010" class="edge">
<title>Node4&#45;&gt;Node10</title>
<g id="a_edge10_Node000004_Node000010"><a xlink:title=" ">
<path fill="none" stroke="#63b8ff" d="M286.08,-56.34C308.85,-47.5 342.56,-34.41 367.74,-24.63"/>
<polygon fill="#63b8ff" stroke="#63b8ff" points="368.83,-27.96 376.88,-21.08 366.29,-21.44 368.83,-27.96"/>
</a>
</g>
</g>
<!-- Node11 -->
<g id="Node000011" class="node">
<title>Node11</title>
<g id="a_Node000011"><a xlink:title=" ">
<polygon fill="#e0e0e0" stroke="#999999" points="482.5,-20.75 443.25,-20.75 443.25,0 482.5,0 482.5,-20.75"/>
<text text-anchor="middle" x="462.88" y="-7.25" font-family="Helvetica,sans-Serif" font-size="10.00">span</text>
</a>
</g>
</g>
<!-- Node4&#45;&gt;Node11 -->
<g id="edge11_Node000004_Node000011" class="edge">
<title>Node4&#45;&gt;Node11</title>
<g id="a_edge11_Node000004_Node000011"><a xlink:title=" ">
<path fill="none" stroke="#63b8ff" d="M300.9,-56.3C333.74,-48.1 381.68,-35.77 432.15,-21.14"/>
<polygon fill="#63b8ff" stroke="#63b8ff" points="432.88,-24.57 441.5,-18.4 430.92,-17.85 432.88,-24.57"/>
</a>
</g>
</g>
<!-- Node12 -->
<g id="Node000012" class="node">
<title>Node12</title>
<g id="a_Node000012"><a xlink:title=" ">
<polygon fill="#e0e0e0" stroke="#999999" points="553.25,-20.75 500.5,-20.75 500.5,0 553.25,0 553.25,-20.75"/>
<text text-anchor="middle" x="526.88" y="-7.25" font-family="Helvetica,sans-Serif" font-size="10.00">stdint.h</text>
</a>
</g>
</g>
<!-- Node4&#45;&gt;Node12 -->
<g id="edge12_Node000004_Node000012" class="edge">
<title>Node4&#45;&gt;Node12</title>
<g id="a_edge12_Node000004_Node000012"><a xlink:title=" ">
<path fill="none" stroke="#63b8ff" d="M312.92,-56.94C357.41,-48.86 423.35,-36.33 489.18,-21.27"/>
<polygon fill="#63b8ff" stroke="#63b8ff" points="489.74,-24.73 498.69,-19.07 488.16,-17.91 489.74,-24.73"/>
</a>
</g>
</g>
</g>
</svg>
