<?xml version="1.0" encoding="UTF-8" standalone="no"?>
<!DOCTYPE svg PUBLIC "-//W3C//DTD SVG 1.1//EN"
 "http://www.w3.org/Graphics/SVG/1.1/DTD/svg11.dtd">
<!-- Generated by graphviz version 12.2.1 (0)
 -->
<!-- Title: lix/libutil/deprecated&#45;features.hh Pages: 1 -->
<svg width="1439pt" height="269pt"
 viewBox="0.00 0.00 1439.40 268.50" xmlns="http://www.w3.org/2000/svg" xmlns:xlink="http://www.w3.org/1999/xlink">
<g id="graph0" class="graph" transform="scale(1 1) rotate(0) translate(4 264.5)">
<title>lix/libutil/deprecated&#45;features.hh</title>
<!-- Node1 -->
<g id="Node000001" class="node">
<title>Node1</title>
<g id="a_Node000001"><a xlink:title=" ">
<polygon fill="#999999" stroke="#666666" points="648,-260.5 531.5,-260.5 531.5,-227 648,-227 648,-260.5"/>
<text text-anchor="start" x="539.5" y="-247" font-family="Helvetica,sans-Serif" font-size="10.00">lix/libutil/deprecated</text>
<text text-anchor="middle" x="589.75" y="-234.25" font-family="Helvetica,sans-Serif" font-size="10.00">&#45;features.hh</text>
</a>
</g>
</g>
<!-- Node2 -->
<g id="Node000002" class="node">
<title>Node2</title>
<g id="a_Node000002"><a xlink:href="error_8hh.html" target="_top" xlink:title="This file defines two main structs/classes used in nix error handling.">
<polygon fill="white" stroke="#666666" points="639.38,-191 540.12,-191 540.12,-170.25 639.38,-170.25 639.38,-191"/>
<text text-anchor="middle" x="589.75" y="-177.5" font-family="Helvetica,sans-Serif" font-size="10.00">lix/libutil/error.hh</text>
</a>
</g>
</g>
<!-- Node1&#45;&gt;Node2 -->
<g id="edge1_Node000001_Node000002" class="edge">
<title>Node1&#45;&gt;Node2</title>
<g id="a_edge1_Node000001_Node000002"><a xlink:title=" ">
<path fill="none" stroke="#63b8ff" d="M589.75,-226.69C589.75,-219.35 589.75,-210.57 589.75,-202.71"/>
<polygon fill="#63b8ff" stroke="#63b8ff" points="593.25,-202.98 589.75,-192.98 586.25,-202.98 593.25,-202.98"/>
</a>
</g>
</g>
<!-- Node3 -->
<g id="Node000003" class="node">
<title>Node3</title>
<g id="a_Node000003"><a xlink:href="json-fwd_8hh_source.html" target="_top" xlink:title=" ">
<polygon fill="white" stroke="#666666" points="150.75,-134.25 32.75,-134.25 32.75,-113.5 150.75,-113.5 150.75,-134.25"/>
<text text-anchor="middle" x="91.75" y="-120.75" font-family="Helvetica,sans-Serif" font-size="10.00">lix/libutil/json&#45;fwd.hh</text>
</a>
</g>
</g>
<!-- Node1&#45;&gt;Node3 -->
<g id="edge26_Node000001_Node000003" class="edge">
<title>Node1&#45;&gt;Node3</title>
<g id="a_edge26_Node000001_Node000003"><a xlink:title=" ">
<path fill="none" stroke="#63b8ff" d="M531.18,-239.99C430.37,-234.52 228.72,-220.23 164.75,-191 141.05,-180.17 119.7,-158.81 106.3,-143.28"/>
<polygon fill="#63b8ff" stroke="#63b8ff" points="109.08,-141.15 100,-135.69 103.69,-145.62 109.08,-141.15"/>
</a>
</g>
</g>
<!-- Node5 -->
<g id="Node000005" class="node">
<title>Node5</title>
<g id="a_Node000005"><a xlink:title=" ">
<polygon fill="#e0e0e0" stroke="#999999" points="218,-77.5 149.5,-77.5 149.5,-56.75 218,-56.75 218,-77.5"/>
<text text-anchor="middle" x="183.75" y="-64" font-family="Helvetica,sans-Serif" font-size="10.00">type_traits</text>
</a>
</g>
</g>
<!-- Node1&#45;&gt;Node5 -->
<g id="edge37_Node000001_Node000005" class="edge">
<title>Node1&#45;&gt;Node5</title>
<g id="a_edge37_Node000001_Node000005"><a xlink:title=" ">
<path fill="none" stroke="#63b8ff" d="M531.09,-234.09C433.32,-218.45 243.22,-182.6 197.75,-134.25 186.43,-122.22 183.33,-103.42 182.83,-88.94"/>
<polygon fill="#63b8ff" stroke="#63b8ff" points="186.33,-89.15 182.9,-79.12 179.33,-89.09 186.33,-89.15"/>
</a>
</g>
</g>
<!-- Node25 -->
<g id="Node000025" class="node">
<title>Node25</title>
<g id="a_Node000025"><a xlink:href="types_8hh.html" target="_top" xlink:title=" ">
<polygon fill="white" stroke="#666666" points="1210.62,-191 1106.88,-191 1106.88,-170.25 1210.62,-170.25 1210.62,-191"/>
<text text-anchor="middle" x="1158.75" y="-177.5" font-family="Helvetica,sans-Serif" font-size="10.00">lix/libutil/types.hh</text>
</a>
</g>
</g>
<!-- Node1&#45;&gt;Node25 -->
<g id="edge27_Node000001_Node000025" class="edge">
<title>Node1&#45;&gt;Node25</title>
<g id="a_edge27_Node000001_Node000025"><a xlink:title=" ">
<path fill="none" stroke="#63b8ff" d="M648.5,-236.44C756.14,-224.88 984.1,-200.39 1095.2,-188.45"/>
<polygon fill="#63b8ff" stroke="#63b8ff" points="1095.48,-191.94 1105.05,-187.39 1094.73,-184.98 1095.48,-191.94"/>
</a>
</g>
</g>
<!-- Node30 -->
<g id="Node000030" class="node">
<title>Node30</title>
<g id="a_Node000030"><a xlink:title=" ">
<polygon fill="#e0e0e0" stroke="#999999" points="1382.38,-191 1229.12,-191 1229.12,-170.25 1382.38,-170.25 1382.38,-191"/>
<text text-anchor="middle" x="1305.75" y="-177.5" font-family="Helvetica,sans-Serif" font-size="10.00">deprecated&#45;features.gen.inc</text>
</a>
</g>
</g>
<!-- Node1&#45;&gt;Node30 -->
<g id="edge38_Node000001_Node000030" class="edge">
<title>Node1&#45;&gt;Node30</title>
<g id="a_edge38_Node000001_Node000030"><a xlink:title=" ">
<path fill="none" stroke="#63b8ff" d="M648.42,-238.45C757.95,-230.32 1001.22,-211.72 1217.6,-191.18"/>
<polygon fill="#63b8ff" stroke="#63b8ff" points="1217.74,-194.69 1227.36,-190.25 1217.07,-187.72 1217.74,-194.69"/>
</a>
</g>
</g>
<!-- Node2&#45;&gt;Node3 -->
<g id="edge2_Node000002_Node000003" class="edge">
<title>Node2&#45;&gt;Node3</title>
<g id="a_edge2_Node000002_Node000003"><a xlink:title=" ">
<path fill="none" stroke="#63b8ff" d="M539.72,-174.12C450.66,-164.33 264.41,-143.86 162.35,-132.64"/>
<polygon fill="#63b8ff" stroke="#63b8ff" points="162.77,-129.16 152.44,-131.55 162,-136.12 162.77,-129.16"/>
</a>
</g>
</g>
<!-- Node2&#45;&gt;Node5 -->
<g id="edge25_Node000002_Node000005" class="edge">
<title>Node2&#45;&gt;Node5</title>
<g id="a_edge25_Node000002_Node000005"><a xlink:title=" ">
<path fill="none" stroke="#63b8ff" d="M539.81,-176.56C483.19,-171.94 388.76,-160.7 311.75,-134.25 293.55,-128 290.79,-122.44 273.75,-113.5 253.86,-103.06 231.29,-91.68 213.73,-82.93"/>
<polygon fill="#63b8ff" stroke="#63b8ff" points="215.38,-79.84 204.86,-78.53 212.26,-86.11 215.38,-79.84"/>
</a>
</g>
</g>
<!-- Node6 -->
<g id="Node000006" class="node">
<title>Node6</title>
<g id="a_Node000006"><a xlink:href="suggestions_8hh.html" target="_top" xlink:title=" ">
<polygon fill="white" stroke="#666666" points="1130.38,-134.25 995.12,-134.25 995.12,-113.5 1130.38,-113.5 1130.38,-134.25"/>
<text text-anchor="middle" x="1062.75" y="-120.75" font-family="Helvetica,sans-Serif" font-size="10.00">lix/libutil/suggestions.hh</text>
</a>
</g>
</g>
<!-- Node2&#45;&gt;Node6 -->
<g id="edge5_Node000002_Node000006" class="edge">
<title>Node2&#45;&gt;Node6</title>
<g id="a_edge5_Node000002_Node000006"><a xlink:title=" ">
<path fill="none" stroke="#63b8ff" d="M639.48,-173.87C721.38,-164.39 885.35,-145.41 983.43,-134.06"/>
<polygon fill="#63b8ff" stroke="#63b8ff" points="983.72,-137.55 993.25,-132.92 982.92,-130.59 983.72,-137.55"/>
</a>
</g>
</g>
<!-- Node13 -->
<g id="Node000013" class="node">
<title>Node13</title>
<g id="a_Node000013"><a xlink:href="libutil_2fmt_8hh.html" target="_top" xlink:title=" ">
<polygon fill="white" stroke="#666666" points="414.75,-134.25 320.75,-134.25 320.75,-113.5 414.75,-113.5 414.75,-134.25"/>
<text text-anchor="middle" x="367.75" y="-120.75" font-family="Helvetica,sans-Serif" font-size="10.00">lix/libutil/fmt.hh</text>
</a>
</g>
</g>
<!-- Node2&#45;&gt;Node13 -->
<g id="edge12_Node000002_Node000013" class="edge">
<title>Node2&#45;&gt;Node13</title>
<g id="a_edge12_Node000002_Node000013"><a xlink:title=" ">
<path fill="none" stroke="#63b8ff" d="M549.8,-169.77C513.14,-160.73 458.63,-147.29 418.82,-137.47"/>
<polygon fill="#63b8ff" stroke="#63b8ff" points="419.77,-134.1 409.22,-135.1 418.09,-140.89 419.77,-134.1"/>
</a>
</g>
</g>
<!-- Node17 -->
<g id="Node000017" class="node">
<title>Node17</title>
<g id="a_Node000017"><a xlink:title=" ">
<polygon fill="#e0e0e0" stroke="#999999" points="816.25,-134.25 767.25,-134.25 767.25,-113.5 816.25,-113.5 816.25,-134.25"/>
<text text-anchor="middle" x="791.75" y="-120.75" font-family="Helvetica,sans-Serif" font-size="10.00">cstring</text>
</a>
</g>
</g>
<!-- Node2&#45;&gt;Node17 -->
<g id="edge17_Node000002_Node000017" class="edge">
<title>Node2&#45;&gt;Node17</title>
<g id="a_edge17_Node000002_Node000017"><a xlink:title=" ">
<path fill="none" stroke="#63b8ff" d="M626.47,-169.77C658.19,-161.24 705.54,-148.47 755.77,-134.78"/>
<polygon fill="#63b8ff" stroke="#63b8ff" points="756.69,-138.16 765.41,-132.15 754.84,-131.41 756.69,-138.16"/>
</a>
</g>
</g>
<!-- Node18 -->
<g id="Node000018" class="node">
<title>Node18</title>
<g id="a_Node000018"><a xlink:title=" ">
<polygon fill="#e0e0e0" stroke="#999999" points="865.25,-134.25 834.25,-134.25 834.25,-113.5 865.25,-113.5 865.25,-134.25"/>
<text text-anchor="middle" x="849.75" y="-120.75" font-family="Helvetica,sans-Serif" font-size="10.00">list</text>
</a>
</g>
</g>
<!-- Node2&#45;&gt;Node18 -->
<g id="edge18_Node000002_Node000018" class="edge">
<title>Node2&#45;&gt;Node18</title>
<g id="a_edge18_Node000002_Node000018"><a xlink:title=" ">
<path fill="none" stroke="#63b8ff" d="M639.64,-172.74C685.39,-165.83 755.09,-153.79 823,-134.67"/>
<polygon fill="#63b8ff" stroke="#63b8ff" points="823.78,-138.09 832.43,-131.96 821.85,-131.36 823.78,-138.09"/>
</a>
</g>
</g>
<!-- Node19 -->
<g id="Node000019" class="node">
<title>Node19</title>
<g id="a_Node000019"><a xlink:title=" ">
<polygon fill="#e0e0e0" stroke="#999999" points="264.38,-134.25 207.12,-134.25 207.12,-113.5 264.38,-113.5 264.38,-134.25"/>
<text text-anchor="middle" x="235.75" y="-120.75" font-family="Helvetica,sans-Serif" font-size="10.00">memory</text>
</a>
</g>
</g>
<!-- Node2&#45;&gt;Node19 -->
<g id="edge19_Node000002_Node000019" class="edge">
<title>Node2&#45;&gt;Node19</title>
<g id="a_edge19_Node000002_Node000019"><a xlink:title=" ">
<path fill="none" stroke="#63b8ff" d="M539.75,-173.42C478.16,-165.53 370.42,-150.91 278.75,-134.25 277.76,-134.07 276.76,-133.89 275.76,-133.69"/>
<polygon fill="#63b8ff" stroke="#63b8ff" points="276.82,-130.34 266.32,-131.8 275.44,-137.2 276.82,-130.34"/>
</a>
</g>
</g>
<!-- Node20 -->
<g id="Node000020" class="node">
<title>Node20</title>
<g id="a_Node000020"><a xlink:title=" ">
<polygon fill="#e0e0e0" stroke="#999999" points="938.62,-134.25 882.88,-134.25 882.88,-113.5 938.62,-113.5 938.62,-134.25"/>
<text text-anchor="middle" x="910.75" y="-120.75" font-family="Helvetica,sans-Serif" font-size="10.00">optional</text>
</a>
</g>
</g>
<!-- Node2&#45;&gt;Node20 -->
<g id="edge20_Node000002_Node000020" class="edge">
<title>Node2&#45;&gt;Node20</title>
<g id="a_edge20_Node000002_Node000020"><a xlink:title=" ">
<path fill="none" stroke="#63b8ff" d="M639.7,-173.17C694.47,-165.75 785.15,-152.51 871.47,-134.8"/>
<polygon fill="#63b8ff" stroke="#63b8ff" points="871.95,-138.27 881.03,-132.81 870.53,-131.42 871.95,-138.27"/>
</a>
</g>
</g>
<!-- Node21 -->
<g id="Node000021" class="node">
<title>Node21</title>
<g id="a_Node000021"><a xlink:title=" ">
<polygon fill="#e0e0e0" stroke="#999999" points="504.5,-134.25 433,-134.25 433,-113.5 504.5,-113.5 504.5,-134.25"/>
<text text-anchor="middle" x="468.75" y="-120.75" font-family="Helvetica,sans-Serif" font-size="10.00">sys/types.h</text>
</a>
</g>
</g>
<!-- Node2&#45;&gt;Node21 -->
<g id="edge21_Node000002_Node000021" class="edge">
<title>Node2&#45;&gt;Node21</title>
<g id="a_edge21_Node000002_Node000021"><a xlink:title=" ">
<path fill="none" stroke="#63b8ff" d="M568.12,-169.84C549.28,-161.31 521.71,-148.84 500.39,-139.19"/>
<polygon fill="#63b8ff" stroke="#63b8ff" points="502.13,-136.14 491.57,-135.2 499.24,-142.51 502.13,-136.14"/>
</a>
</g>
</g>
<!-- Node22 -->
<g id="Node000022" class="node">
<title>Node22</title>
<g id="a_Node000022"><a xlink:title=" ">
<polygon fill="#e0e0e0" stroke="#999999" points="585.38,-134.25 522.12,-134.25 522.12,-113.5 585.38,-113.5 585.38,-134.25"/>
<text text-anchor="middle" x="553.75" y="-120.75" font-family="Helvetica,sans-Serif" font-size="10.00">sys/stat.h</text>
</a>
</g>
</g>
<!-- Node2&#45;&gt;Node22 -->
<g id="edge22_Node000002_Node000022" class="edge">
<title>Node2&#45;&gt;Node22</title>
<g id="a_edge22_Node000002_Node000022"><a xlink:title=" ">
<path fill="none" stroke="#63b8ff" d="M583.31,-169.84C578.6,-162.67 572.06,-152.73 566.33,-144.01"/>
<polygon fill="#63b8ff" stroke="#63b8ff" points="569.38,-142.28 560.96,-135.84 563.53,-146.12 569.38,-142.28"/>
</a>
</g>
</g>
<!-- Node23 -->
<g id="Node000023" class="node">
<title>Node23</title>
<g id="a_Node000023"><a xlink:title=" ">
<polygon fill="#e0e0e0" stroke="#999999" points="650.12,-134.25 603.38,-134.25 603.38,-113.5 650.12,-113.5 650.12,-134.25"/>
<text text-anchor="middle" x="626.75" y="-120.75" font-family="Helvetica,sans-Serif" font-size="10.00">fcntl.h</text>
</a>
</g>
</g>
<!-- Node2&#45;&gt;Node23 -->
<g id="edge23_Node000002_Node000023" class="edge">
<title>Node2&#45;&gt;Node23</title>
<g id="a_edge23_Node000002_Node000023"><a xlink:title=" ">
<path fill="none" stroke="#63b8ff" d="M596.36,-169.84C601.21,-162.67 607.93,-152.73 613.82,-144.01"/>
<polygon fill="#63b8ff" stroke="#63b8ff" points="616.65,-146.08 619.34,-135.83 610.85,-142.16 616.65,-146.08"/>
</a>
</g>
</g>
<!-- Node24 -->
<g id="Node000024" class="node">
<title>Node24</title>
<g id="a_Node000024"><a xlink:title=" ">
<polygon fill="#e0e0e0" stroke="#999999" points="749,-134.25 668.5,-134.25 668.5,-113.5 749,-113.5 749,-134.25"/>
<text text-anchor="middle" x="708.75" y="-120.75" font-family="Helvetica,sans-Serif" font-size="10.00">system_error</text>
</a>
</g>
</g>
<!-- Node2&#45;&gt;Node24 -->
<g id="edge24_Node000002_Node000024" class="edge">
<title>Node2&#45;&gt;Node24</title>
<g id="a_edge24_Node000002_Node000024"><a xlink:title=" ">
<path fill="none" stroke="#63b8ff" d="M611.02,-169.84C629.47,-161.35 656.41,-148.95 677.34,-139.33"/>
<polygon fill="#63b8ff" stroke="#63b8ff" points="678.66,-142.57 686.28,-135.21 675.74,-136.21 678.66,-142.57"/>
</a>
</g>
</g>
<!-- Node4 -->
<g id="Node000004" class="node">
<title>Node4</title>
<g id="a_Node000004"><a xlink:title=" ">
<polygon fill="#e0e0e0" stroke="#999999" points="131.5,-77.5 0,-77.5 0,-56.75 131.5,-56.75 131.5,-77.5"/>
<text text-anchor="middle" x="65.75" y="-64" font-family="Helvetica,sans-Serif" font-size="10.00">nlohmann/json_fwd.hpp</text>
</a>
</g>
</g>
<!-- Node3&#45;&gt;Node4 -->
<g id="edge3_Node000003_Node000004" class="edge">
<title>Node3&#45;&gt;Node4</title>
<g id="a_edge3_Node000003_Node000004"><a xlink:title=" ">
<path fill="none" stroke="#63b8ff" d="M87.1,-113.09C83.81,-106.16 79.28,-96.62 75.24,-88.11"/>
<polygon fill="#63b8ff" stroke="#63b8ff" points="78.46,-86.73 71.01,-79.2 72.14,-89.73 78.46,-86.73"/>
</a>
</g>
</g>
<!-- Node3&#45;&gt;Node5 -->
<g id="edge4_Node000003_Node000005" class="edge">
<title>Node3&#45;&gt;Node5</title>
<g id="a_edge4_Node000003_Node000005"><a xlink:title=" ">
<path fill="none" stroke="#63b8ff" d="M108.2,-113.09C121.93,-104.91 141.77,-93.11 157.67,-83.65"/>
<polygon fill="#63b8ff" stroke="#63b8ff" points="159.34,-86.72 166.14,-78.6 155.76,-80.71 159.34,-86.72"/>
</a>
</g>
</g>
<!-- Node7 -->
<g id="Node000007" class="node">
<title>Node7</title>
<g id="a_Node000007"><a xlink:href="comparator_8hh.html" target="_top" xlink:title=" ">
<polygon fill="white" stroke="#666666" points="1036.88,-77.5 904.62,-77.5 904.62,-56.75 1036.88,-56.75 1036.88,-77.5"/>
<text text-anchor="middle" x="970.75" y="-64" font-family="Helvetica,sans-Serif" font-size="10.00">lix/libutil/comparator.hh</text>
</a>
</g>
</g>
<!-- Node6&#45;&gt;Node7 -->
<g id="edge6_Node000006_Node000007" class="edge">
<title>Node6&#45;&gt;Node7</title>
<g id="a_edge6_Node000006_Node000007"><a xlink:title=" ">
<path fill="none" stroke="#63b8ff" d="M1046.3,-113.09C1032.57,-104.91 1012.73,-93.11 996.83,-83.65"/>
<polygon fill="#63b8ff" stroke="#63b8ff" points="998.74,-80.71 988.36,-78.6 995.16,-86.72 998.74,-80.71"/>
</a>
</g>
</g>
<!-- Node9 -->
<g id="Node000009" class="node">
<title>Node9</title>
<g id="a_Node000009"><a xlink:title=" ">
<polygon fill="#e0e0e0" stroke="#999999" points="1352.25,-77.5 1321.25,-77.5 1321.25,-56.75 1352.25,-56.75 1352.25,-77.5"/>
<text text-anchor="middle" x="1336.75" y="-64" font-family="Helvetica,sans-Serif" font-size="10.00">set</text>
</a>
</g>
</g>
<!-- Node6&#45;&gt;Node9 -->
<g id="edge8_Node000006_Node000009" class="edge">
<title>Node6&#45;&gt;Node9</title>
<g id="a_edge8_Node000006_Node000009"><a xlink:title=" ">
<path fill="none" stroke="#63b8ff" d="M1112.05,-113.02C1169.9,-101.46 1263.73,-82.71 1309.67,-73.54"/>
<polygon fill="#63b8ff" stroke="#63b8ff" points="1310.17,-77 1319.29,-71.61 1308.8,-70.14 1310.17,-77"/>
</a>
</g>
</g>
<!-- Node10 -->
<g id="Node000010" class="node">
<title>Node10</title>
<g id="a_Node000010"><a xlink:title=" ">
<polygon fill="#e0e0e0" stroke="#999999" points="1194.88,-77.5 1122.62,-77.5 1122.62,-56.75 1194.88,-56.75 1194.88,-77.5"/>
<text text-anchor="middle" x="1158.75" y="-64" font-family="Helvetica,sans-Serif" font-size="10.00">string_view</text>
</a>
</g>
</g>
<!-- Node6&#45;&gt;Node10 -->
<g id="edge9_Node000006_Node000010" class="edge">
<title>Node6&#45;&gt;Node10</title>
<g id="a_edge9_Node000006_Node000010"><a xlink:title=" ">
<path fill="none" stroke="#63b8ff" d="M1079.91,-113.09C1094.38,-104.83 1115.34,-92.88 1132.01,-83.38"/>
<polygon fill="#63b8ff" stroke="#63b8ff" points="1133.47,-86.57 1140.42,-78.58 1130,-80.49 1133.47,-86.57"/>
</a>
</g>
</g>
<!-- Node11 -->
<g id="Node000011" class="node">
<title>Node11</title>
<g id="a_Node000011"><a xlink:title=" ">
<polygon fill="#e0e0e0" stroke="#999999" points="886.62,-77.5 842.88,-77.5 842.88,-56.75 886.62,-56.75 886.62,-77.5"/>
<text text-anchor="middle" x="864.75" y="-64" font-family="Helvetica,sans-Serif" font-size="10.00">string</text>
</a>
</g>
</g>
<!-- Node6&#45;&gt;Node11 -->
<g id="edge10_Node000006_Node000011" class="edge">
<title>Node6&#45;&gt;Node11</title>
<g id="a_edge10_Node000006_Node000011"><a xlink:title=" ">
<path fill="none" stroke="#63b8ff" d="M1025.52,-113.08C993.94,-104.71 947.17,-92.13 897.95,-78.08"/>
<polygon fill="#63b8ff" stroke="#63b8ff" points="899.11,-74.77 888.53,-75.38 897.18,-81.5 899.11,-74.77"/>
</a>
</g>
</g>
<!-- Node12 -->
<g id="Node000012" class="node">
<title>Node12</title>
<g id="a_Node000012"><a xlink:title=" ">
<polygon fill="#e0e0e0" stroke="#999999" points="1105,-77.5 1054.5,-77.5 1054.5,-56.75 1105,-56.75 1105,-77.5"/>
<text text-anchor="middle" x="1079.75" y="-64" font-family="Helvetica,sans-Serif" font-size="10.00">variant</text>
</a>
</g>
</g>
<!-- Node6&#45;&gt;Node12 -->
<g id="edge11_Node000006_Node000012" class="edge">
<title>Node6&#45;&gt;Node12</title>
<g id="a_edge11_Node000006_Node000012"><a xlink:title=" ">
<path fill="none" stroke="#63b8ff" d="M1065.79,-113.09C1067.89,-106.31 1070.77,-97.05 1073.36,-88.69"/>
<polygon fill="#63b8ff" stroke="#63b8ff" points="1076.67,-89.86 1076.29,-79.27 1069.98,-87.79 1076.67,-89.86"/>
</a>
</g>
</g>
<!-- Node8 -->
<g id="Node000008" class="node">
<title>Node8</title>
<g id="a_Node000008"><a xlink:title=" ">
<polygon fill="#e0e0e0" stroke="#999999" points="991.12,-20.75 950.38,-20.75 950.38,0 991.12,0 991.12,-20.75"/>
<text text-anchor="middle" x="970.75" y="-7.25" font-family="Helvetica,sans-Serif" font-size="10.00">tuple</text>
</a>
</g>
</g>
<!-- Node7&#45;&gt;Node8 -->
<g id="edge7_Node000007_Node000008" class="edge">
<title>Node7&#45;&gt;Node8</title>
<g id="a_edge7_Node000007_Node000008"><a xlink:title=" ">
<path fill="none" stroke="#63b8ff" d="M970.75,-56.34C970.75,-49.72 970.75,-40.72 970.75,-32.52"/>
<polygon fill="#63b8ff" stroke="#63b8ff" points="974.25,-32.59 970.75,-22.59 967.25,-32.59 974.25,-32.59"/>
</a>
</g>
</g>
<!-- Node13&#45;&gt;Node11 -->
<g id="edge14_Node000013_Node000011" class="edge">
<title>Node13&#45;&gt;Node11</title>
<g id="a_edge14_Node000013_Node000011"><a xlink:title=" ">
<path fill="none" stroke="#63b8ff" d="M415.07,-114.74C418.01,-114.3 420.92,-113.88 423.75,-113.5 575.48,-93.01 757.69,-76.97 831.39,-70.83"/>
<polygon fill="#63b8ff" stroke="#63b8ff" points="831.48,-74.34 841.16,-70.02 830.9,-67.36 831.48,-74.34"/>
</a>
</g>
</g>
<!-- Node14 -->
<g id="Node000014" class="node">
<title>Node14</title>
<g id="a_Node000014"><a xlink:title=" ">
<polygon fill="#e0e0e0" stroke="#999999" points="299.5,-77.5 240,-77.5 240,-56.75 299.5,-56.75 299.5,-77.5"/>
<text text-anchor="middle" x="269.75" y="-64" font-family="Helvetica,sans-Serif" font-size="10.00">iostream</text>
</a>
</g>
</g>
<!-- Node13&#45;&gt;Node14 -->
<g id="edge13_Node000013_Node000014" class="edge">
<title>Node13&#45;&gt;Node14</title>
<g id="a_edge13_Node000013_Node000014"><a xlink:title=" ">
<path fill="none" stroke="#63b8ff" d="M350.23,-113.09C335.46,-104.83 314.07,-92.88 297.05,-83.38"/>
<polygon fill="#63b8ff" stroke="#63b8ff" points="298.88,-80.39 288.44,-78.57 295.46,-86.5 298.88,-80.39"/>
</a>
</g>
</g>
<!-- Node15 -->
<g id="Node000015" class="node">
<title>Node15</title>
<g id="a_Node000015"><a xlink:title=" ">
<polygon fill="#e0e0e0" stroke="#999999" points="417.75,-77.5 317.75,-77.5 317.75,-56.75 417.75,-56.75 417.75,-77.5"/>
<text text-anchor="middle" x="367.75" y="-64" font-family="Helvetica,sans-Serif" font-size="10.00">boost/format.hpp</text>
</a>
</g>
</g>
<!-- Node13&#45;&gt;Node15 -->
<g id="edge15_Node000013_Node000015" class="edge">
<title>Node13&#45;&gt;Node15</title>
<g id="a_edge15_Node000013_Node000015"><a xlink:title=" ">
<path fill="none" stroke="#63b8ff" d="M367.75,-113.09C367.75,-106.47 367.75,-97.47 367.75,-89.27"/>
<polygon fill="#63b8ff" stroke="#63b8ff" points="371.25,-89.34 367.75,-79.34 364.25,-89.34 371.25,-89.34"/>
</a>
</g>
</g>
<!-- Node16 -->
<g id="Node000016" class="node">
<title>Node16</title>
<g id="a_Node000016"><a xlink:href="ansicolor_8hh.html" target="_top" xlink:title="Some ANSI escape sequences.">
<polygon fill="white" stroke="#666666" points="555.88,-77.5 435.62,-77.5 435.62,-56.75 555.88,-56.75 555.88,-77.5"/>
<text text-anchor="middle" x="495.75" y="-64" font-family="Helvetica,sans-Serif" font-size="10.00">lix/libutil/ansicolor.hh</text>
</a>
</g>
</g>
<!-- Node13&#45;&gt;Node16 -->
<g id="edge16_Node000013_Node000016" class="edge">
<title>Node13&#45;&gt;Node16</title>
<g id="a_edge16_Node000013_Node000016"><a xlink:title=" ">
<path fill="none" stroke="#63b8ff" d="M390.63,-113.09C410.66,-104.52 439.99,-91.98 462.58,-82.31"/>
<polygon fill="#63b8ff" stroke="#63b8ff" points="463.85,-85.57 471.67,-78.42 461.1,-79.14 463.85,-85.57"/>
</a>
</g>
</g>
<!-- Node25&#45;&gt;Node9 -->
<g id="edge30_Node000025_Node000009" class="edge">
<title>Node25&#45;&gt;Node9</title>
<g id="a_edge30_Node000025_Node000009"><a xlink:title=" ">
<path fill="none" stroke="#63b8ff" d="M1210.97,-171.61C1287.7,-159.72 1422.29,-138.35 1425.75,-134.25 1447.73,-108.22 1396.78,-86.57 1363.23,-75.69"/>
<polygon fill="#63b8ff" stroke="#63b8ff" points="1364.69,-72.48 1354.1,-72.87 1362.62,-79.17 1364.69,-72.48"/>
</a>
</g>
</g>
<!-- Node25&#45;&gt;Node10 -->
<g id="edge32_Node000025_Node000010" class="edge">
<title>Node25&#45;&gt;Node10</title>
<g id="a_edge32_Node000025_Node000010"><a xlink:title=" ">
<path fill="none" stroke="#63b8ff" d="M1158.75,-170.12C1158.75,-152.35 1158.75,-113.72 1158.75,-89.43"/>
<polygon fill="#63b8ff" stroke="#63b8ff" points="1162.25,-89.44 1158.75,-79.44 1155.25,-89.44 1162.25,-89.44"/>
</a>
</g>
</g>
<!-- Node25&#45;&gt;Node11 -->
<g id="edge31_Node000025_Node000011" class="edge">
<title>Node25&#45;&gt;Node11</title>
<g id="a_edge31_Node000025_Node000011"><a xlink:title=" ">
<path fill="none" stroke="#63b8ff" d="M1108.13,-169.76C1073.07,-162.11 1025.71,-150.13 985.75,-134.25 985.44,-134.13 928,-102.72 892.38,-83.24"/>
<polygon fill="#63b8ff" stroke="#63b8ff" points="894.33,-80.31 883.87,-78.58 890.97,-86.45 894.33,-80.31"/>
</a>
</g>
</g>
<!-- Node25&#45;&gt;Node18 -->
<g id="edge28_Node000025_Node000018" class="edge">
<title>Node25&#45;&gt;Node18</title>
<g id="a_edge28_Node000025_Node000018"><a xlink:title=" ">
<path fill="none" stroke="#63b8ff" d="M1106.56,-174.71C1051.29,-168.76 961.47,-156.96 876.71,-134.61"/>
<polygon fill="#63b8ff" stroke="#63b8ff" points="877.63,-131.24 867.06,-132.01 875.8,-137.99 877.63,-131.24"/>
</a>
</g>
</g>
<!-- Node25&#45;&gt;Node20 -->
<g id="edge29_Node000025_Node000020" class="edge">
<title>Node25&#45;&gt;Node20</title>
<g id="a_edge29_Node000025_Node000020"><a xlink:title=" ">
<path fill="none" stroke="#63b8ff" d="M1114.14,-169.84C1072.41,-160.67 1008.35,-146.58 952.75,-134.25 951.76,-134.03 950.76,-133.81 949.75,-133.58"/>
<polygon fill="#63b8ff" stroke="#63b8ff" points="950.76,-130.22 940.24,-131.47 949.24,-137.06 950.76,-130.22"/>
</a>
</g>
</g>
<!-- Node26 -->
<g id="Node000026" class="node">
<title>Node26</title>
<g id="a_Node000026"><a xlink:title=" ">
<polygon fill="#e0e0e0" stroke="#999999" points="1224.62,-134.25 1186.88,-134.25 1186.88,-113.5 1224.62,-113.5 1224.62,-134.25"/>
<text text-anchor="middle" x="1205.75" y="-120.75" font-family="Helvetica,sans-Serif" font-size="10.00">map</text>
</a>
</g>
</g>
<!-- Node25&#45;&gt;Node26 -->
<g id="edge33_Node000025_Node000026" class="edge">
<title>Node25&#45;&gt;Node26</title>
<g id="a_edge33_Node000025_Node000026"><a xlink:title=" ">
<path fill="none" stroke="#63b8ff" d="M1167.15,-169.84C1173.5,-162.44 1182.4,-152.07 1190.05,-143.16"/>
<polygon fill="#63b8ff" stroke="#63b8ff" points="1192.58,-145.59 1196.43,-135.73 1187.26,-141.03 1192.58,-145.59"/>
</a>
</g>
</g>
<!-- Node27 -->
<g id="Node000027" class="node">
<title>Node27</title>
<g id="a_Node000027"><a xlink:title=" ">
<polygon fill="#e0e0e0" stroke="#999999" points="1289.12,-134.25 1242.38,-134.25 1242.38,-113.5 1289.12,-113.5 1289.12,-134.25"/>
<text text-anchor="middle" x="1265.75" y="-120.75" font-family="Helvetica,sans-Serif" font-size="10.00">vector</text>
</a>
</g>
</g>
<!-- Node25&#45;&gt;Node27 -->
<g id="edge34_Node000025_Node000027" class="edge">
<title>Node25&#45;&gt;Node27</title>
<g id="a_edge34_Node000025_Node000027"><a xlink:title=" ">
<path fill="none" stroke="#63b8ff" d="M1177.88,-169.84C1194.24,-161.47 1218.03,-149.29 1236.73,-139.72"/>
<polygon fill="#63b8ff" stroke="#63b8ff" points="1238.13,-142.94 1245.44,-135.27 1234.94,-136.71 1238.13,-142.94"/>
</a>
</g>
</g>
<!-- Node28 -->
<g id="Node000028" class="node">
<title>Node28</title>
<g id="a_Node000028"><a xlink:title=" ">
<polygon fill="#e0e0e0" stroke="#999999" points="1346.38,-134.25 1307.12,-134.25 1307.12,-113.5 1346.38,-113.5 1346.38,-134.25"/>
<text text-anchor="middle" x="1326.75" y="-120.75" font-family="Helvetica,sans-Serif" font-size="10.00">span</text>
</a>
</g>
</g>
<!-- Node25&#45;&gt;Node28 -->
<g id="edge35_Node000025_Node000028" class="edge">
<title>Node25&#45;&gt;Node28</title>
<g id="a_edge35_Node000025_Node000028"><a xlink:title=" ">
<path fill="none" stroke="#63b8ff" d="M1188.79,-169.84C1219.08,-159.96 1265.62,-144.8 1296.12,-134.86"/>
<polygon fill="#63b8ff" stroke="#63b8ff" points="1297.1,-138.22 1305.52,-131.79 1294.93,-131.56 1297.1,-138.22"/>
</a>
</g>
</g>
<!-- Node29 -->
<g id="Node000029" class="node">
<title>Node29</title>
<g id="a_Node000029"><a xlink:title=" ">
<polygon fill="#e0e0e0" stroke="#999999" points="1417.12,-134.25 1364.38,-134.25 1364.38,-113.5 1417.12,-113.5 1417.12,-134.25"/>
<text text-anchor="middle" x="1390.75" y="-120.75" font-family="Helvetica,sans-Serif" font-size="10.00">stdint.h</text>
</a>
</g>
</g>
<!-- Node25&#45;&gt;Node29 -->
<g id="edge36_Node000025_Node000029" class="edge">
<title>Node25&#45;&gt;Node29</title>
<g id="a_edge36_Node000025_Node000029"><a xlink:title=" ">
<path fill="none" stroke="#63b8ff" d="M1203.45,-169.8C1241.03,-161.44 1296.43,-148.86 1353.06,-134.86"/>
<polygon fill="#63b8ff" stroke="#63b8ff" points="1353.69,-138.31 1362.55,-132.5 1352,-131.52 1353.69,-138.31"/>
</a>
</g>
</g>
</g>
</svg>
