<?xml version="1.0" encoding="UTF-8" standalone="no"?>
<!DOCTYPE svg PUBLIC "-//W3C//DTD SVG 1.1//EN"
 "http://www.w3.org/Graphics/SVG/1.1/DTD/svg11.dtd">
<!-- Generated by graphviz version 12.2.1 (0)
 -->
<!-- Title: lix/libstore/derived&#45;path&#45;map.hh Pages: 1 -->
<svg width="648pt" height="307pt"
 viewBox="0.00 0.00 647.50 306.75" xmlns="http://www.w3.org/2000/svg" xmlns:xlink="http://www.w3.org/1999/xlink">
<g id="graph0" class="graph" transform="scale(1 1) rotate(0) translate(4 302.75)">
<title>lix/libstore/derived&#45;path&#45;map.hh</title>
<!-- Node1 -->
<g id="Node000001" class="node">
<title>Node1</title>
<g id="a_Node000001"><a xlink:title=" ">
<polygon fill="#999999" stroke="#666666" points="398.12,-298.75 290.62,-298.75 290.62,-265.25 398.12,-265.25 398.12,-298.75"/>
<text text-anchor="start" x="298.62" y="-285.25" font-family="Helvetica,sans-Serif" font-size="10.00">lix/libstore/derived</text>
<text text-anchor="middle" x="344.38" y="-272.5" font-family="Helvetica,sans-Serif" font-size="10.00">&#45;path&#45;map.hh</text>
</a>
</g>
</g>
<!-- Node2 -->
<g id="Node000002" class="node">
<title>Node2</title>
<g id="a_Node000002"><a xlink:href="derivations_8hh.html" target="_top" xlink:title=" ">
<polygon fill="white" stroke="#666666" points="414.62,-229.25 274.12,-229.25 274.12,-208.5 414.62,-208.5 414.62,-229.25"/>
<text text-anchor="middle" x="344.38" y="-215.75" font-family="Helvetica,sans-Serif" font-size="10.00">lix/libstore/derivations.hh</text>
</a>
</g>
</g>
<!-- Node1&#45;&gt;Node2 -->
<g id="edge1_Node000001_Node000002" class="edge">
<title>Node1&#45;&gt;Node2</title>
<g id="a_edge1_Node000001_Node000002"><a xlink:title=" ">
<path fill="none" stroke="#63b8ff" d="M344.38,-253.44C344.38,-244.96 344.38,-236.17 344.38,-229.72"/>
<polygon fill="#63b8ff" stroke="#63b8ff" points="340.88,-253.43 344.38,-263.43 347.88,-253.43 340.88,-253.43"/>
</a>
</g>
</g>
<!-- Node3 -->
<g id="Node000003" class="node">
<title>Node3</title>
<g id="a_Node000003"><a xlink:href="get-drvs_8hh.html" target="_top" xlink:title=" ">
<polygon fill="white" stroke="#666666" points="133,-166.12 9.75,-166.12 9.75,-145.38 133,-145.38 133,-166.12"/>
<text text-anchor="middle" x="71.38" y="-152.62" font-family="Helvetica,sans-Serif" font-size="10.00">lix/libexpr/get&#45;drvs.hh</text>
</a>
</g>
</g>
<!-- Node2&#45;&gt;Node3 -->
<g id="edge2_Node000002_Node000003" class="edge">
<title>Node2&#45;&gt;Node3</title>
<g id="a_edge2_Node000002_Node000003"><a xlink:title=" ">
<path fill="none" stroke="#63b8ff" d="M289.31,-205.54C237.98,-194.05 162.45,-177.14 115.13,-166.55"/>
<polygon fill="#63b8ff" stroke="#63b8ff" points="288.51,-208.95 299.04,-207.72 290.04,-202.12 288.51,-208.95"/>
</a>
</g>
</g>
<!-- Node5 -->
<g id="Node000005" class="node">
<title>Node5</title>
<g id="a_Node000005"><a xlink:href="builtins_8hh.html" target="_top" xlink:title=" ">
<polygon fill="white" stroke="#666666" points="273.25,-166.12 151.5,-166.12 151.5,-145.38 273.25,-145.38 273.25,-166.12"/>
<text text-anchor="middle" x="212.38" y="-152.62" font-family="Helvetica,sans-Serif" font-size="10.00">lix/libstore/builtins.hh</text>
</a>
</g>
</g>
<!-- Node2&#45;&gt;Node5 -->
<g id="edge4_Node000002_Node000005" class="edge">
<title>Node2&#45;&gt;Node5</title>
<g id="a_edge4_Node000002_Node000005"><a xlink:title=" ">
<path fill="none" stroke="#63b8ff" d="M312.92,-203.31C288.38,-191.95 254.97,-176.47 233.53,-166.55"/>
<polygon fill="#63b8ff" stroke="#63b8ff" points="311.25,-206.39 321.79,-207.42 314.19,-200.04 311.25,-206.39"/>
</a>
</g>
</g>
<!-- Node6 -->
<g id="Node000006" class="node">
<title>Node6</title>
<g id="a_Node000006"><a xlink:href="buildenv_8hh.html" target="_top" xlink:title=" ">
<polygon fill="white" stroke="#666666" points="397.75,-172.5 291,-172.5 291,-139 397.75,-139 397.75,-172.5"/>
<text text-anchor="start" x="299" y="-159" font-family="Helvetica,sans-Serif" font-size="10.00">lix/libstore/builtins</text>
<text text-anchor="middle" x="344.38" y="-146.25" font-family="Helvetica,sans-Serif" font-size="10.00">/buildenv.hh</text>
</a>
</g>
</g>
<!-- Node2&#45;&gt;Node6 -->
<g id="edge5_Node000002_Node000006" class="edge">
<title>Node2&#45;&gt;Node6</title>
<g id="a_edge5_Node000002_Node000006"><a xlink:title=" ">
<path fill="none" stroke="#63b8ff" d="M344.38,-196.59C344.38,-188.85 344.38,-180.22 344.38,-172.98"/>
<polygon fill="#63b8ff" stroke="#63b8ff" points="340.88,-196.54 344.38,-206.54 347.88,-196.54 340.88,-196.54"/>
</a>
</g>
</g>
<!-- Node7 -->
<g id="Node000007" class="node">
<title>Node7</title>
<g id="a_Node000007"><a xlink:href="parsed-derivations_8hh.html" target="_top" xlink:title=" ">
<polygon fill="white" stroke="#666666" points="519.25,-172.5 415.5,-172.5 415.5,-139 519.25,-139 519.25,-172.5"/>
<text text-anchor="start" x="423.5" y="-159" font-family="Helvetica,sans-Serif" font-size="10.00">lix/libstore/parsed</text>
<text text-anchor="middle" x="467.38" y="-146.25" font-family="Helvetica,sans-Serif" font-size="10.00">&#45;derivations.hh</text>
</a>
</g>
</g>
<!-- Node2&#45;&gt;Node7 -->
<g id="edge6_Node000002_Node000007" class="edge">
<title>Node2&#45;&gt;Node7</title>
<g id="a_edge6_Node000002_Node000007"><a xlink:title=" ">
<path fill="none" stroke="#63b8ff" d="M374.24,-203.04C392.52,-193.95 415.93,-182.32 434.71,-172.98"/>
<polygon fill="#63b8ff" stroke="#63b8ff" points="372.89,-199.8 365.49,-207.38 376.01,-206.06 372.89,-199.8"/>
</a>
</g>
</g>
<!-- Node10 -->
<g id="Node000010" class="node">
<title>Node10</title>
<g id="a_Node000010"><a xlink:href="nix_2daemon_8cc.html" target="_top" xlink:title=" ">
<polygon fill="white" stroke="#666666" points="639.5,-166.12 537.25,-166.12 537.25,-145.38 639.5,-145.38 639.5,-166.12"/>
<text text-anchor="middle" x="588.38" y="-152.62" font-family="Helvetica,sans-Serif" font-size="10.00">lix/nix/daemon.cc</text>
</a>
</g>
</g>
<!-- Node2&#45;&gt;Node10 -->
<g id="edge9_Node000002_Node000010" class="edge">
<title>Node2&#45;&gt;Node10</title>
<g id="a_edge9_Node000002_Node000010"><a xlink:title=" ">
<path fill="none" stroke="#63b8ff" d="M395.97,-205.37C432.88,-196.37 483.73,-183.86 528.38,-172.5 535.79,-170.61 543.7,-168.56 551.27,-166.58"/>
<polygon fill="#63b8ff" stroke="#63b8ff" points="395.34,-201.92 386.45,-207.69 397,-208.72 395.34,-201.92"/>
</a>
</g>
</g>
<!-- Node4 -->
<g id="Node000004" class="node">
<title>Node4</title>
<g id="a_Node000004"><a xlink:href="cmd-profiles_8hh.html" target="_top" xlink:title=" ">
<polygon fill="white" stroke="#666666" points="142.75,-96.62 0,-96.62 0,-75.88 142.75,-75.88 142.75,-96.62"/>
<text text-anchor="middle" x="71.38" y="-83.12" font-family="Helvetica,sans-Serif" font-size="10.00">lix/libcmd/cmd&#45;profiles.hh</text>
</a>
</g>
</g>
<!-- Node3&#45;&gt;Node4 -->
<g id="edge3_Node000003_Node000004" class="edge">
<title>Node3&#45;&gt;Node4</title>
<g id="a_edge3_Node000003_Node000004"><a xlink:title=" ">
<path fill="none" stroke="#63b8ff" d="M71.38,-133.94C71.38,-121.59 71.38,-106.52 71.38,-96.9"/>
<polygon fill="#63b8ff" stroke="#63b8ff" points="67.88,-133.57 71.38,-143.57 74.88,-133.57 67.88,-133.57"/>
</a>
</g>
</g>
<!-- Node8 -->
<g id="Node000008" class="node">
<title>Node8</title>
<g id="a_Node000008"><a xlink:href="derivation-goal_8hh.html" target="_top" xlink:title=" ">
<polygon fill="white" stroke="#666666" points="521.5,-103 413.25,-103 413.25,-69.5 521.5,-69.5 521.5,-103"/>
<text text-anchor="start" x="421.25" y="-89.5" font-family="Helvetica,sans-Serif" font-size="10.00">lix/libstore/build</text>
<text text-anchor="middle" x="467.38" y="-76.75" font-family="Helvetica,sans-Serif" font-size="10.00">/derivation&#45;goal.hh</text>
</a>
</g>
</g>
<!-- Node7&#45;&gt;Node8 -->
<g id="edge7_Node000007_Node000008" class="edge">
<title>Node7&#45;&gt;Node8</title>
<g id="a_edge7_Node000007_Node000008"><a xlink:title=" ">
<path fill="none" stroke="#63b8ff" d="M467.38,-127.31C467.38,-119.09 467.38,-110.34 467.38,-103.13"/>
<polygon fill="#63b8ff" stroke="#63b8ff" points="463.88,-127.24 467.38,-137.24 470.88,-127.24 463.88,-127.24"/>
</a>
</g>
</g>
<!-- Node9 -->
<g id="Node000009" class="node">
<title>Node9</title>
<g id="a_Node000009"><a xlink:href="local-derivation-goal_8hh.html" target="_top" xlink:title=" ">
<polygon fill="white" stroke="#666666" points="535,-33.5 399.75,-33.5 399.75,0 535,0 535,-33.5"/>
<text text-anchor="start" x="407.75" y="-20" font-family="Helvetica,sans-Serif" font-size="10.00">lix/libstore/build</text>
<text text-anchor="middle" x="467.38" y="-7.25" font-family="Helvetica,sans-Serif" font-size="10.00">/local&#45;derivation&#45;goal.hh</text>
</a>
</g>
</g>
<!-- Node8&#45;&gt;Node9 -->
<g id="edge8_Node000008_Node000009" class="edge">
<title>Node8&#45;&gt;Node9</title>
<g id="a_edge8_Node000008_Node000009"><a xlink:title=" ">
<path fill="none" stroke="#63b8ff" d="M467.38,-57.81C467.38,-49.59 467.38,-40.84 467.38,-33.63"/>
<polygon fill="#63b8ff" stroke="#63b8ff" points="463.88,-57.74 467.38,-67.74 470.88,-57.74 463.88,-57.74"/>
</a>
</g>
</g>
</g>
</svg>
