<?xml version="1.0" encoding="UTF-8" standalone="no"?>
<!DOCTYPE svg PUBLIC "-//W3C//DTD SVG 1.1//EN"
 "http://www.w3.org/Graphics/SVG/1.1/DTD/svg11.dtd">
<!-- Generated by graphviz version 12.2.1 (0)
 -->
<!-- Title: lix/libutil/english.hh Pages: 1 -->
<svg width="360pt" height="86pt"
 viewBox="0.00 0.00 359.62 85.50" xmlns="http://www.w3.org/2000/svg" xmlns:xlink="http://www.w3.org/1999/xlink">
<g id="graph0" class="graph" transform="scale(1 1) rotate(0) translate(4 81.5)">
<title>lix/libutil/english.hh</title>
<!-- Node1 -->
<g id="Node000001" class="node">
<title>Node1</title>
<g id="a_Node000001"><a xlink:title=" ">
<polygon fill="#999999" stroke="#666666" points="240.75,-77.5 128.75,-77.5 128.75,-56.75 240.75,-56.75 240.75,-77.5"/>
<text text-anchor="middle" x="184.75" y="-64" font-family="Helvetica,sans-Serif" font-size="10.00">lix/libutil/english.hh</text>
</a>
</g>
</g>
<!-- Node2 -->
<g id="Node000002" class="node">
<title>Node2</title>
<g id="a_Node000002"><a xlink:title=" ">
<polygon fill="#e0e0e0" stroke="#999999" points="59.5,-20.75 0,-20.75 0,0 59.5,0 59.5,-20.75"/>
<text text-anchor="middle" x="29.75" y="-7.25" font-family="Helvetica,sans-Serif" font-size="10.00">iostream</text>
</a>
</g>
</g>
<!-- Node1&#45;&gt;Node2 -->
<g id="edge1_Node000001_Node000002" class="edge">
<title>Node1&#45;&gt;Node2</title>
<g id="a_edge1_Node000001_Node000002"><a xlink:title=" ">
<path fill="none" stroke="#63b8ff" d="M157.04,-56.34C132.32,-47.61 95.88,-34.73 68.32,-25"/>
<polygon fill="#63b8ff" stroke="#63b8ff" points="69.5,-21.71 58.91,-21.67 67.17,-28.31 69.5,-21.71"/>
</a>
</g>
</g>
<!-- Node3 -->
<g id="Node000003" class="node">
<title>Node3</title>
<g id="a_Node000003"><a xlink:title=" ">
<polygon fill="#e0e0e0" stroke="#999999" points="140.38,-20.75 77.12,-20.75 77.12,0 140.38,0 140.38,-20.75"/>
<text text-anchor="middle" x="108.75" y="-7.25" font-family="Helvetica,sans-Serif" font-size="10.00">algorithm</text>
</a>
</g>
</g>
<!-- Node1&#45;&gt;Node3 -->
<g id="edge2_Node000001_Node000003" class="edge">
<title>Node1&#45;&gt;Node3</title>
<g id="a_edge2_Node000001_Node000003"><a xlink:title=" ">
<path fill="none" stroke="#63b8ff" d="M171.16,-56.34C160.14,-48.4 144.36,-37.03 131.43,-27.71"/>
<polygon fill="#63b8ff" stroke="#63b8ff" points="133.61,-24.97 123.45,-21.96 129.52,-30.65 133.61,-24.97"/>
</a>
</g>
</g>
<!-- Node4 -->
<g id="Node000004" class="node">
<title>Node4</title>
<g id="a_Node000004"><a xlink:title=" ">
<polygon fill="#e0e0e0" stroke="#999999" points="210.75,-20.75 158.75,-20.75 158.75,0 210.75,0 210.75,-20.75"/>
<text text-anchor="middle" x="184.75" y="-7.25" font-family="Helvetica,sans-Serif" font-size="10.00">iterator</text>
</a>
</g>
</g>
<!-- Node1&#45;&gt;Node4 -->
<g id="edge3_Node000001_Node000004" class="edge">
<title>Node1&#45;&gt;Node4</title>
<g id="a_edge3_Node000001_Node000004"><a xlink:title=" ">
<path fill="none" stroke="#63b8ff" d="M184.75,-56.34C184.75,-49.72 184.75,-40.72 184.75,-32.52"/>
<polygon fill="#63b8ff" stroke="#63b8ff" points="188.25,-32.59 184.75,-22.59 181.25,-32.59 188.25,-32.59"/>
</a>
</g>
</g>
<!-- Node5 -->
<g id="Node000005" class="node">
<title>Node5</title>
<g id="a_Node000005"><a xlink:title=" ">
<polygon fill="#e0e0e0" stroke="#999999" points="278.25,-20.75 229.25,-20.75 229.25,0 278.25,0 278.25,-20.75"/>
<text text-anchor="middle" x="253.75" y="-7.25" font-family="Helvetica,sans-Serif" font-size="10.00">ranges</text>
</a>
</g>
</g>
<!-- Node1&#45;&gt;Node5 -->
<g id="edge4_Node000001_Node000005" class="edge">
<title>Node1&#45;&gt;Node5</title>
<g id="a_edge4_Node000001_Node000005"><a xlink:title=" ">
<path fill="none" stroke="#63b8ff" d="M197.09,-56.34C207,-48.47 221.14,-37.25 232.81,-27.99"/>
<polygon fill="#63b8ff" stroke="#63b8ff" points="234.68,-30.98 240.34,-22.02 230.33,-25.49 234.68,-30.98"/>
</a>
</g>
</g>
<!-- Node6 -->
<g id="Node000006" class="node">
<title>Node6</title>
<g id="a_Node000006"><a xlink:title=" ">
<polygon fill="#e0e0e0" stroke="#999999" points="351.62,-20.75 295.88,-20.75 295.88,0 351.62,0 351.62,-20.75"/>
<text text-anchor="middle" x="323.75" y="-7.25" font-family="Helvetica,sans-Serif" font-size="10.00">sstream</text>
</a>
</g>
</g>
<!-- Node1&#45;&gt;Node6 -->
<g id="edge5_Node000001_Node000006" class="edge">
<title>Node1&#45;&gt;Node6</title>
<g id="a_edge5_Node000001_Node000006"><a xlink:title=" ">
<path fill="none" stroke="#63b8ff" d="M209.6,-56.34C231.64,-47.66 264.07,-34.88 288.73,-25.17"/>
<polygon fill="#63b8ff" stroke="#63b8ff" points="289.68,-28.55 297.71,-21.63 287.12,-22.04 289.68,-28.55"/>
</a>
</g>
</g>
</g>
</svg>
