<?xml version="1.0" encoding="UTF-8" standalone="no"?>
<!DOCTYPE svg PUBLIC "-//W3C//DTD SVG 1.1//EN"
 "http://www.w3.org/Graphics/SVG/1.1/DTD/svg11.dtd">
<!-- Generated by graphviz version 12.2.1 (0)
 -->
<!-- Title: lix/libutil/file&#45;descriptor.hh Pages: 1 -->
<svg width="1462pt" height="256pt"
 viewBox="0.00 0.00 1461.75 255.75" xmlns="http://www.w3.org/2000/svg" xmlns:xlink="http://www.w3.org/1999/xlink">
<g id="graph0" class="graph" transform="scale(1 1) rotate(0) translate(4 251.75)">
<title>lix/libutil/file&#45;descriptor.hh</title>
<!-- Node1 -->
<g id="Node000001" class="node">
<title>Node1</title>
<g id="a_Node000001"><a xlink:title=" ">
<polygon fill="#999999" stroke="#666666" points="866.25,-247.75 722.75,-247.75 722.75,-227 866.25,-227 866.25,-247.75"/>
<text text-anchor="middle" x="794.5" y="-234.25" font-family="Helvetica,sans-Serif" font-size="10.00">lix/libutil/file&#45;descriptor.hh</text>
</a>
</g>
</g>
<!-- Node2 -->
<g id="Node000002" class="node">
<title>Node2</title>
<g id="a_Node000002"><a xlink:href="error_8hh.html" target="_top" xlink:title="This file defines two main structs/classes used in nix error handling.">
<polygon fill="white" stroke="#666666" points="595.12,-191 495.88,-191 495.88,-170.25 595.12,-170.25 595.12,-191"/>
<text text-anchor="middle" x="545.5" y="-177.5" font-family="Helvetica,sans-Serif" font-size="10.00">lix/libutil/error.hh</text>
</a>
</g>
</g>
<!-- Node1&#45;&gt;Node2 -->
<g id="edge1_Node000001_Node000002" class="edge">
<title>Node1&#45;&gt;Node2</title>
<g id="a_edge1_Node000001_Node000002"><a xlink:title=" ">
<path fill="none" stroke="#63b8ff" d="M749.7,-226.52C708.13,-217.38 646.13,-203.75 601.35,-193.91"/>
<polygon fill="#63b8ff" stroke="#63b8ff" points="602.36,-190.54 591.84,-191.81 600.86,-197.38 602.36,-190.54"/>
</a>
</g>
</g>
<!-- Node25 -->
<g id="Node000025" class="node">
<title>Node25</title>
<g id="a_Node000025"><a xlink:href="generator_8hh.html" target="_top" xlink:title=" ">
<polygon fill="white" stroke="#666666" points="1222.12,-191 1098.88,-191 1098.88,-170.25 1222.12,-170.25 1222.12,-191"/>
<text text-anchor="middle" x="1160.5" y="-177.5" font-family="Helvetica,sans-Serif" font-size="10.00">lix/libutil/generator.hh</text>
</a>
</g>
</g>
<!-- Node1&#45;&gt;Node25 -->
<g id="edge26_Node000001_Node000025" class="edge">
<title>Node1&#45;&gt;Node25</title>
<g id="a_edge26_Node000001_Node000025"><a xlink:title=" ">
<path fill="none" stroke="#63b8ff" d="M860.36,-226.52C924.27,-216.96 1021.06,-202.48 1087.34,-192.57"/>
<polygon fill="#63b8ff" stroke="#63b8ff" points="1087.66,-196.06 1097.03,-191.12 1086.62,-189.14 1087.66,-196.06"/>
</a>
</g>
</g>
<!-- Node3 -->
<g id="Node000003" class="node">
<title>Node3</title>
<g id="a_Node000003"><a xlink:href="json-fwd_8hh_source.html" target="_top" xlink:title=" ">
<polygon fill="white" stroke="#666666" points="419.5,-134.25 301.5,-134.25 301.5,-113.5 419.5,-113.5 419.5,-134.25"/>
<text text-anchor="middle" x="360.5" y="-120.75" font-family="Helvetica,sans-Serif" font-size="10.00">lix/libutil/json&#45;fwd.hh</text>
</a>
</g>
</g>
<!-- Node2&#45;&gt;Node3 -->
<g id="edge2_Node000002_Node000003" class="edge">
<title>Node2&#45;&gt;Node3</title>
<g id="a_edge2_Node000002_Node000003"><a xlink:title=" ">
<path fill="none" stroke="#63b8ff" d="M512.43,-169.84C482.27,-160.91 437.49,-147.66 404.35,-137.85"/>
<polygon fill="#63b8ff" stroke="#63b8ff" points="405.63,-134.58 395.05,-135.1 403.65,-141.29 405.63,-134.58"/>
</a>
</g>
</g>
<!-- Node5 -->
<g id="Node000005" class="node">
<title>Node5</title>
<g id="a_Node000005"><a xlink:title=" ">
<polygon fill="#e0e0e0" stroke="#999999" points="314.75,-77.5 246.25,-77.5 246.25,-56.75 314.75,-56.75 314.75,-77.5"/>
<text text-anchor="middle" x="280.5" y="-64" font-family="Helvetica,sans-Serif" font-size="10.00">type_traits</text>
</a>
</g>
</g>
<!-- Node2&#45;&gt;Node5 -->
<g id="edge25_Node000002_Node000005" class="edge">
<title>Node2&#45;&gt;Node5</title>
<g id="a_edge25_Node000002_Node000005"><a xlink:title=" ">
<path fill="none" stroke="#63b8ff" d="M545.7,-169.89C545.44,-155.33 542.65,-128.05 526.5,-113.5 461.08,-54.57 416.94,-92.06 326.48,-77.82"/>
<polygon fill="#63b8ff" stroke="#63b8ff" points="327.16,-74.38 316.7,-76.08 325.93,-81.28 327.16,-74.38"/>
</a>
</g>
</g>
<!-- Node6 -->
<g id="Node000006" class="node">
<title>Node6</title>
<g id="a_Node000006"><a xlink:href="suggestions_8hh.html" target="_top" xlink:title=" ">
<polygon fill="white" stroke="#666666" points="904.12,-134.25 768.88,-134.25 768.88,-113.5 904.12,-113.5 904.12,-134.25"/>
<text text-anchor="middle" x="836.5" y="-120.75" font-family="Helvetica,sans-Serif" font-size="10.00">lix/libutil/suggestions.hh</text>
</a>
</g>
</g>
<!-- Node2&#45;&gt;Node6 -->
<g id="edge5_Node000002_Node000006" class="edge">
<title>Node2&#45;&gt;Node6</title>
<g id="a_edge5_Node000002_Node000006"><a xlink:title=" ">
<path fill="none" stroke="#63b8ff" d="M595.52,-170.21C644.68,-160.97 719.86,-146.82 773.16,-136.79"/>
<polygon fill="#63b8ff" stroke="#63b8ff" points="773.52,-140.29 782.7,-135 772.22,-133.41 773.52,-140.29"/>
</a>
</g>
</g>
<!-- Node13 -->
<g id="Node000013" class="node">
<title>Node13</title>
<g id="a_Node000013"><a xlink:href="libutil_2fmt_8hh.html" target="_top" xlink:title=" ">
<polygon fill="white" stroke="#666666" points="667.5,-134.25 573.5,-134.25 573.5,-113.5 667.5,-113.5 667.5,-134.25"/>
<text text-anchor="middle" x="620.5" y="-120.75" font-family="Helvetica,sans-Serif" font-size="10.00">lix/libutil/fmt.hh</text>
</a>
</g>
</g>
<!-- Node2&#45;&gt;Node13 -->
<g id="edge12_Node000002_Node000013" class="edge">
<title>Node2&#45;&gt;Node13</title>
<g id="a_edge12_Node000002_Node000013"><a xlink:title=" ">
<path fill="none" stroke="#63b8ff" d="M558.91,-169.84C569.79,-161.9 585.36,-150.53 598.12,-141.21"/>
<polygon fill="#63b8ff" stroke="#63b8ff" points="599.97,-144.19 605.99,-135.47 595.84,-138.54 599.97,-144.19"/>
</a>
</g>
</g>
<!-- Node17 -->
<g id="Node000017" class="node">
<title>Node17</title>
<g id="a_Node000017"><a xlink:title=" ">
<polygon fill="#e0e0e0" stroke="#999999" points="49,-134.25 0,-134.25 0,-113.5 49,-113.5 49,-134.25"/>
<text text-anchor="middle" x="24.5" y="-120.75" font-family="Helvetica,sans-Serif" font-size="10.00">cstring</text>
</a>
</g>
</g>
<!-- Node2&#45;&gt;Node17 -->
<g id="edge17_Node000002_Node000017" class="edge">
<title>Node2&#45;&gt;Node17</title>
<g id="a_edge17_Node000002_Node000017"><a xlink:title=" ">
<path fill="none" stroke="#63b8ff" d="M495.55,-178.01C408.73,-174.55 224.31,-164.31 60.51,-134.52"/>
<polygon fill="#63b8ff" stroke="#63b8ff" points="61.21,-131.09 50.74,-132.71 59.93,-137.97 61.21,-131.09"/>
</a>
</g>
</g>
<!-- Node18 -->
<g id="Node000018" class="node">
<title>Node18</title>
<g id="a_Node000018"><a xlink:title=" ">
<polygon fill="#e0e0e0" stroke="#999999" points="1117,-77.5 1086,-77.5 1086,-56.75 1117,-56.75 1117,-77.5"/>
<text text-anchor="middle" x="1101.5" y="-64" font-family="Helvetica,sans-Serif" font-size="10.00">list</text>
</a>
</g>
</g>
<!-- Node2&#45;&gt;Node18 -->
<g id="edge18_Node000002_Node000018" class="edge">
<title>Node2&#45;&gt;Node18</title>
<g id="a_edge18_Node000002_Node000018"><a xlink:title=" ">
<path fill="none" stroke="#63b8ff" d="M595.44,-177.85C667,-174.33 802.35,-164.01 913.5,-134.25 936.35,-128.13 940.31,-121.68 962.5,-113.5 1009.24,-96.27 1024.39,-94.94 1075.05,-77.84"/>
<polygon fill="#63b8ff" stroke="#63b8ff" points="1075.92,-81.25 1084.24,-74.69 1073.65,-74.62 1075.92,-81.25"/>
</a>
</g>
</g>
<!-- Node19 -->
<g id="Node000019" class="node">
<title>Node19</title>
<g id="a_Node000019"><a xlink:title=" ">
<polygon fill="#e0e0e0" stroke="#999999" points="1029.12,-134.25 971.88,-134.25 971.88,-113.5 1029.12,-113.5 1029.12,-134.25"/>
<text text-anchor="middle" x="1000.5" y="-120.75" font-family="Helvetica,sans-Serif" font-size="10.00">memory</text>
</a>
</g>
</g>
<!-- Node2&#45;&gt;Node19 -->
<g id="edge19_Node000002_Node000019" class="edge">
<title>Node2&#45;&gt;Node19</title>
<g id="a_edge19_Node000002_Node000019"><a xlink:title=" ">
<path fill="none" stroke="#63b8ff" d="M595.62,-175.45C672.76,-168.71 825.14,-154.15 953.5,-134.25 955.69,-133.91 957.93,-133.54 960.19,-133.15"/>
<polygon fill="#63b8ff" stroke="#63b8ff" points="960.8,-136.6 970,-131.34 959.53,-129.71 960.8,-136.6"/>
</a>
</g>
</g>
<!-- Node20 -->
<g id="Node000020" class="node">
<title>Node20</title>
<g id="a_Node000020"><a xlink:title=" ">
<polygon fill="#e0e0e0" stroke="#999999" points="1439.38,-77.5 1383.62,-77.5 1383.62,-56.75 1439.38,-56.75 1439.38,-77.5"/>
<text text-anchor="middle" x="1411.5" y="-64" font-family="Helvetica,sans-Serif" font-size="10.00">optional</text>
</a>
</g>
</g>
<!-- Node2&#45;&gt;Node20 -->
<g id="edge20_Node000002_Node000020" class="edge">
<title>Node2&#45;&gt;Node20</title>
<g id="a_edge20_Node000002_Node000020"><a xlink:title=" ">
<path fill="none" stroke="#63b8ff" d="M595.16,-178.43C722.1,-174.97 1055.89,-163.31 1162.5,-134.25 1182.59,-128.77 1184.83,-120.32 1204.5,-113.5 1274.19,-89.33 1297.21,-94.44 1372.3,-77.89"/>
<polygon fill="#63b8ff" stroke="#63b8ff" points="1372.79,-81.37 1381.77,-75.74 1371.24,-74.54 1372.79,-81.37"/>
</a>
</g>
</g>
<!-- Node21 -->
<g id="Node000021" class="node">
<title>Node21</title>
<g id="a_Node000021"><a xlink:title=" ">
<polygon fill="#e0e0e0" stroke="#999999" points="138.25,-134.25 66.75,-134.25 66.75,-113.5 138.25,-113.5 138.25,-134.25"/>
<text text-anchor="middle" x="102.5" y="-120.75" font-family="Helvetica,sans-Serif" font-size="10.00">sys/types.h</text>
</a>
</g>
</g>
<!-- Node2&#45;&gt;Node21 -->
<g id="edge21_Node000002_Node000021" class="edge">
<title>Node2&#45;&gt;Node21</title>
<g id="a_edge21_Node000002_Node000021"><a xlink:title=" ">
<path fill="none" stroke="#63b8ff" d="M495.52,-175.51C421.9,-169.09 279.73,-155.41 149.79,-134.67"/>
<polygon fill="#63b8ff" stroke="#63b8ff" points="150.39,-131.22 139.96,-133.08 149.27,-138.13 150.39,-131.22"/>
</a>
</g>
</g>
<!-- Node22 -->
<g id="Node000022" class="node">
<title>Node22</title>
<g id="a_Node000022"><a xlink:title=" ">
<polygon fill="#e0e0e0" stroke="#999999" points="219.12,-134.25 155.88,-134.25 155.88,-113.5 219.12,-113.5 219.12,-134.25"/>
<text text-anchor="middle" x="187.5" y="-120.75" font-family="Helvetica,sans-Serif" font-size="10.00">sys/stat.h</text>
</a>
</g>
</g>
<!-- Node2&#45;&gt;Node22 -->
<g id="edge22_Node000002_Node000022" class="edge">
<title>Node2&#45;&gt;Node22</title>
<g id="a_edge22_Node000002_Node000022"><a xlink:title=" ">
<path fill="none" stroke="#63b8ff" d="M495.6,-173.78C435.24,-166.42 330.31,-152.71 230.44,-134.47"/>
<polygon fill="#63b8ff" stroke="#63b8ff" points="231.19,-131.05 220.72,-132.68 229.92,-137.94 231.19,-131.05"/>
</a>
</g>
</g>
<!-- Node23 -->
<g id="Node000023" class="node">
<title>Node23</title>
<g id="a_Node000023"><a xlink:title=" ">
<polygon fill="#e0e0e0" stroke="#999999" points="283.88,-134.25 237.12,-134.25 237.12,-113.5 283.88,-113.5 283.88,-134.25"/>
<text text-anchor="middle" x="260.5" y="-120.75" font-family="Helvetica,sans-Serif" font-size="10.00">fcntl.h</text>
</a>
</g>
</g>
<!-- Node2&#45;&gt;Node23 -->
<g id="edge23_Node000002_Node000023" class="edge">
<title>Node2&#45;&gt;Node23</title>
<g id="a_edge23_Node000002_Node000023"><a xlink:title=" ">
<path fill="none" stroke="#63b8ff" d="M495.73,-172.32C446.87,-164.79 370.06,-151.99 295.21,-134.71"/>
<polygon fill="#63b8ff" stroke="#63b8ff" points="296.2,-131.34 285.66,-132.47 294.6,-138.16 296.2,-131.34"/>
</a>
</g>
</g>
<!-- Node24 -->
<g id="Node000024" class="node">
<title>Node24</title>
<g id="a_Node000024"><a xlink:title=" ">
<polygon fill="#e0e0e0" stroke="#999999" points="517.75,-134.25 437.25,-134.25 437.25,-113.5 517.75,-113.5 517.75,-134.25"/>
<text text-anchor="middle" x="477.5" y="-120.75" font-family="Helvetica,sans-Serif" font-size="10.00">system_error</text>
</a>
</g>
</g>
<!-- Node2&#45;&gt;Node24 -->
<g id="edge24_Node000002_Node000024" class="edge">
<title>Node2&#45;&gt;Node24</title>
<g id="a_edge24_Node000002_Node000024"><a xlink:title=" ">
<path fill="none" stroke="#63b8ff" d="M533.34,-169.84C523.67,-162.05 509.92,-150.97 498.48,-141.76"/>
<polygon fill="#63b8ff" stroke="#63b8ff" points="500.71,-139.07 490.73,-135.53 496.32,-144.53 500.71,-139.07"/>
</a>
</g>
</g>
<!-- Node4 -->
<g id="Node000004" class="node">
<title>Node4</title>
<g id="a_Node000004"><a xlink:title=" ">
<polygon fill="#e0e0e0" stroke="#999999" points="228.25,-77.5 96.75,-77.5 96.75,-56.75 228.25,-56.75 228.25,-77.5"/>
<text text-anchor="middle" x="162.5" y="-64" font-family="Helvetica,sans-Serif" font-size="10.00">nlohmann/json_fwd.hpp</text>
</a>
</g>
</g>
<!-- Node3&#45;&gt;Node4 -->
<g id="edge3_Node000003_Node000004" class="edge">
<title>Node3&#45;&gt;Node4</title>
<g id="a_edge3_Node000003_Node000004"><a xlink:title=" ">
<path fill="none" stroke="#63b8ff" d="M325.1,-113.09C292.68,-104.12 244.48,-90.79 208.97,-80.98"/>
<polygon fill="#63b8ff" stroke="#63b8ff" points="209.96,-77.62 199.38,-78.32 208.09,-84.36 209.96,-77.62"/>
</a>
</g>
</g>
<!-- Node3&#45;&gt;Node5 -->
<g id="edge4_Node000003_Node000005" class="edge">
<title>Node3&#45;&gt;Node5</title>
<g id="a_edge4_Node000003_Node000005"><a xlink:title=" ">
<path fill="none" stroke="#63b8ff" d="M346.2,-113.09C334.48,-105.07 317.66,-93.56 303.97,-84.19"/>
<polygon fill="#63b8ff" stroke="#63b8ff" points="306.16,-81.44 295.93,-78.68 302.2,-87.22 306.16,-81.44"/>
</a>
</g>
</g>
<!-- Node7 -->
<g id="Node000007" class="node">
<title>Node7</title>
<g id="a_Node000007"><a xlink:href="comparator_8hh.html" target="_top" xlink:title=" ">
<polygon fill="white" stroke="#666666" points="866.62,-77.5 734.38,-77.5 734.38,-56.75 866.62,-56.75 866.62,-77.5"/>
<text text-anchor="middle" x="800.5" y="-64" font-family="Helvetica,sans-Serif" font-size="10.00">lix/libutil/comparator.hh</text>
</a>
</g>
</g>
<!-- Node6&#45;&gt;Node7 -->
<g id="edge6_Node000006_Node000007" class="edge">
<title>Node6&#45;&gt;Node7</title>
<g id="a_edge6_Node000006_Node000007"><a xlink:title=" ">
<path fill="none" stroke="#63b8ff" d="M830.06,-113.09C825.35,-105.92 818.81,-95.98 813.08,-87.26"/>
<polygon fill="#63b8ff" stroke="#63b8ff" points="816.13,-85.53 807.71,-79.09 810.28,-89.37 816.13,-85.53"/>
</a>
</g>
</g>
<!-- Node9 -->
<g id="Node000009" class="node">
<title>Node9</title>
<g id="a_Node000009"><a xlink:title=" ">
<polygon fill="#e0e0e0" stroke="#999999" points="977,-77.5 946,-77.5 946,-56.75 977,-56.75 977,-77.5"/>
<text text-anchor="middle" x="961.5" y="-64" font-family="Helvetica,sans-Serif" font-size="10.00">set</text>
</a>
</g>
</g>
<!-- Node6&#45;&gt;Node9 -->
<g id="edge8_Node000006_Node000009" class="edge">
<title>Node6&#45;&gt;Node9</title>
<g id="a_edge8_Node000006_Node000009"><a xlink:title=" ">
<path fill="none" stroke="#63b8ff" d="M858.85,-113.09C880.33,-103.68 912.79,-89.46 935.44,-79.54"/>
<polygon fill="#63b8ff" stroke="#63b8ff" points="936.54,-82.88 944.29,-75.66 933.73,-76.47 936.54,-82.88"/>
</a>
</g>
</g>
<!-- Node10 -->
<g id="Node000010" class="node">
<title>Node10</title>
<g id="a_Node000010"><a xlink:title=" ">
<polygon fill="#e0e0e0" stroke="#999999" points="1067.62,-77.5 995.38,-77.5 995.38,-56.75 1067.62,-56.75 1067.62,-77.5"/>
<text text-anchor="middle" x="1031.5" y="-64" font-family="Helvetica,sans-Serif" font-size="10.00">string_view</text>
</a>
</g>
</g>
<!-- Node6&#45;&gt;Node10 -->
<g id="edge9_Node000006_Node000010" class="edge">
<title>Node6&#45;&gt;Node10</title>
<g id="a_edge9_Node000006_Node000010"><a xlink:title=" ">
<path fill="none" stroke="#63b8ff" d="M871.36,-113.09C903.29,-104.12 950.76,-90.79 985.73,-80.98"/>
<polygon fill="#63b8ff" stroke="#63b8ff" points="986.47,-84.4 995.15,-78.33 984.58,-77.66 986.47,-84.4"/>
</a>
</g>
</g>
<!-- Node11 -->
<g id="Node000011" class="node">
<title>Node11</title>
<g id="a_Node000011"><a xlink:title=" ">
<polygon fill="#e0e0e0" stroke="#999999" points="928.38,-77.5 884.62,-77.5 884.62,-56.75 928.38,-56.75 928.38,-77.5"/>
<text text-anchor="middle" x="906.5" y="-64" font-family="Helvetica,sans-Serif" font-size="10.00">string</text>
</a>
</g>
</g>
<!-- Node6&#45;&gt;Node11 -->
<g id="edge10_Node000006_Node000011" class="edge">
<title>Node6&#45;&gt;Node11</title>
<g id="a_edge10_Node000006_Node000011"><a xlink:title=" ">
<path fill="none" stroke="#63b8ff" d="M849.01,-113.09C859.07,-105.22 873.41,-94 885.26,-84.74"/>
<polygon fill="#63b8ff" stroke="#63b8ff" points="887.18,-87.68 892.9,-78.76 882.87,-82.16 887.18,-87.68"/>
</a>
</g>
</g>
<!-- Node12 -->
<g id="Node000012" class="node">
<title>Node12</title>
<g id="a_Node000012"><a xlink:title=" ">
<polygon fill="#e0e0e0" stroke="#999999" points="716.75,-77.5 666.25,-77.5 666.25,-56.75 716.75,-56.75 716.75,-77.5"/>
<text text-anchor="middle" x="691.5" y="-64" font-family="Helvetica,sans-Serif" font-size="10.00">variant</text>
</a>
</g>
</g>
<!-- Node6&#45;&gt;Node12 -->
<g id="edge11_Node000006_Node000012" class="edge">
<title>Node6&#45;&gt;Node12</title>
<g id="a_edge11_Node000006_Node000012"><a xlink:title=" ">
<path fill="none" stroke="#63b8ff" d="M810.58,-113.09C787.48,-104.37 753.46,-91.52 727.68,-81.79"/>
<polygon fill="#63b8ff" stroke="#63b8ff" points="729.21,-78.62 718.61,-78.36 726.73,-85.17 729.21,-78.62"/>
</a>
</g>
</g>
<!-- Node8 -->
<g id="Node000008" class="node">
<title>Node8</title>
<g id="a_Node000008"><a xlink:title=" ">
<polygon fill="#e0e0e0" stroke="#999999" points="820.88,-20.75 780.12,-20.75 780.12,0 820.88,0 820.88,-20.75"/>
<text text-anchor="middle" x="800.5" y="-7.25" font-family="Helvetica,sans-Serif" font-size="10.00">tuple</text>
</a>
</g>
</g>
<!-- Node7&#45;&gt;Node8 -->
<g id="edge7_Node000007_Node000008" class="edge">
<title>Node7&#45;&gt;Node8</title>
<g id="a_edge7_Node000007_Node000008"><a xlink:title=" ">
<path fill="none" stroke="#63b8ff" d="M800.5,-56.34C800.5,-49.72 800.5,-40.72 800.5,-32.52"/>
<polygon fill="#63b8ff" stroke="#63b8ff" points="804,-32.59 800.5,-22.59 797,-32.59 804,-32.59"/>
</a>
</g>
</g>
<!-- Node13&#45;&gt;Node11 -->
<g id="edge14_Node000013_Node000011" class="edge">
<title>Node13&#45;&gt;Node11</title>
<g id="a_edge14_Node000013_Node000011"><a xlink:title=" ">
<path fill="none" stroke="#63b8ff" d="M667.84,-116.16C716.99,-108.8 796.26,-95.89 873.37,-77.79"/>
<polygon fill="#63b8ff" stroke="#63b8ff" points="873.85,-81.27 882.76,-75.55 872.22,-74.46 873.85,-81.27"/>
</a>
</g>
</g>
<!-- Node14 -->
<g id="Node000014" class="node">
<title>Node14</title>
<g id="a_Node000014"><a xlink:title=" ">
<polygon fill="#e0e0e0" stroke="#999999" points="648.25,-77.5 588.75,-77.5 588.75,-56.75 648.25,-56.75 648.25,-77.5"/>
<text text-anchor="middle" x="618.5" y="-64" font-family="Helvetica,sans-Serif" font-size="10.00">iostream</text>
</a>
</g>
</g>
<!-- Node13&#45;&gt;Node14 -->
<g id="edge13_Node000013_Node000014" class="edge">
<title>Node13&#45;&gt;Node14</title>
<g id="a_edge13_Node000013_Node000014"><a xlink:title=" ">
<path fill="none" stroke="#63b8ff" d="M620.14,-113.09C619.9,-106.47 619.57,-97.47 619.27,-89.27"/>
<polygon fill="#63b8ff" stroke="#63b8ff" points="622.77,-89.21 618.91,-79.34 615.78,-89.46 622.77,-89.21"/>
</a>
</g>
</g>
<!-- Node15 -->
<g id="Node000015" class="node">
<title>Node15</title>
<g id="a_Node000015"><a xlink:title=" ">
<polygon fill="#e0e0e0" stroke="#999999" points="432.5,-77.5 332.5,-77.5 332.5,-56.75 432.5,-56.75 432.5,-77.5"/>
<text text-anchor="middle" x="382.5" y="-64" font-family="Helvetica,sans-Serif" font-size="10.00">boost/format.hpp</text>
</a>
</g>
</g>
<!-- Node13&#45;&gt;Node15 -->
<g id="edge15_Node000013_Node000015" class="edge">
<title>Node13&#45;&gt;Node15</title>
<g id="a_edge15_Node000013_Node000015"><a xlink:title=" ">
<path fill="none" stroke="#63b8ff" d="M577.68,-113.02C538.12,-103.92 479.18,-90.37 436.43,-80.53"/>
<polygon fill="#63b8ff" stroke="#63b8ff" points="437.39,-77.16 426.86,-78.33 435.82,-83.98 437.39,-77.16"/>
</a>
</g>
</g>
<!-- Node16 -->
<g id="Node000016" class="node">
<title>Node16</title>
<g id="a_Node000016"><a xlink:href="ansicolor_8hh.html" target="_top" xlink:title="Some ANSI escape sequences.">
<polygon fill="white" stroke="#666666" points="570.62,-77.5 450.38,-77.5 450.38,-56.75 570.62,-56.75 570.62,-77.5"/>
<text text-anchor="middle" x="510.5" y="-64" font-family="Helvetica,sans-Serif" font-size="10.00">lix/libutil/ansicolor.hh</text>
</a>
</g>
</g>
<!-- Node13&#45;&gt;Node16 -->
<g id="edge16_Node000013_Node000016" class="edge">
<title>Node13&#45;&gt;Node16</title>
<g id="a_edge16_Node000013_Node000016"><a xlink:title=" ">
<path fill="none" stroke="#63b8ff" d="M600.83,-113.09C583.94,-104.68 559.33,-92.43 540.07,-82.84"/>
<polygon fill="#63b8ff" stroke="#63b8ff" points="541.86,-79.83 531.35,-78.5 538.74,-86.09 541.86,-79.83"/>
</a>
</g>
</g>
<!-- Node25&#45;&gt;Node12 -->
<g id="edge42_Node000025_Node000012" class="edge">
<title>Node25&#45;&gt;Node12</title>
<g id="a_edge42_Node000025_Node000012"><a xlink:title=" ">
<path fill="none" stroke="#63b8ff" d="M1098.59,-177.49C1001.41,-173.32 818.08,-161.97 759.5,-134.25 736.82,-123.52 717.05,-102.13 704.76,-86.58"/>
<polygon fill="#63b8ff" stroke="#63b8ff" points="707.85,-84.87 699.03,-79.01 702.27,-89.09 707.85,-84.87"/>
</a>
</g>
</g>
<!-- Node25&#45;&gt;Node19 -->
<g id="edge39_Node000025_Node000019" class="edge">
<title>Node25&#45;&gt;Node19</title>
<g id="a_edge39_Node000025_Node000019"><a xlink:title=" ">
<path fill="none" stroke="#63b8ff" d="M1131.9,-169.84C1106.26,-161.07 1068.43,-148.12 1039.93,-138.37"/>
<polygon fill="#63b8ff" stroke="#63b8ff" points="1041.15,-135.09 1030.56,-135.16 1038.89,-141.71 1041.15,-135.09"/>
</a>
</g>
</g>
<!-- Node25&#45;&gt;Node20 -->
<g id="edge40_Node000025_Node000020" class="edge">
<title>Node25&#45;&gt;Node20</title>
<g id="a_edge40_Node000025_Node000020"><a xlink:title=" ">
<path fill="none" stroke="#63b8ff" d="M1169.1,-169.98C1182.51,-155.54 1209.84,-128.42 1238.5,-113.5 1241.53,-111.92 1321.99,-91.11 1372.1,-78.23"/>
<polygon fill="#63b8ff" stroke="#63b8ff" points="1372.92,-81.63 1381.74,-75.75 1371.18,-74.85 1372.92,-81.63"/>
</a>
</g>
</g>
<!-- Node26 -->
<g id="Node000026" class="node">
<title>Node26</title>
<g id="a_Node000026"><a xlink:href="types_8hh.html" target="_top" xlink:title=" ">
<polygon fill="white" stroke="#666666" points="1153.38,-134.25 1049.62,-134.25 1049.62,-113.5 1153.38,-113.5 1153.38,-134.25"/>
<text text-anchor="middle" x="1101.5" y="-120.75" font-family="Helvetica,sans-Serif" font-size="10.00">lix/libutil/types.hh</text>
</a>
</g>
</g>
<!-- Node25&#45;&gt;Node26 -->
<g id="edge27_Node000025_Node000026" class="edge">
<title>Node25&#45;&gt;Node26</title>
<g id="a_edge27_Node000025_Node000026"><a xlink:title=" ">
<path fill="none" stroke="#63b8ff" d="M1149.95,-169.84C1141.73,-162.21 1130.1,-151.42 1120.3,-142.32"/>
<polygon fill="#63b8ff" stroke="#63b8ff" points="1122.78,-139.84 1113.07,-135.61 1118.02,-144.98 1122.78,-139.84"/>
</a>
</g>
</g>
<!-- Node31 -->
<g id="Node000031" class="node">
<title>Node31</title>
<g id="a_Node000031"><a xlink:title=" ">
<polygon fill="#e0e0e0" stroke="#999999" points="1309.38,-134.25 1247.62,-134.25 1247.62,-113.5 1309.38,-113.5 1309.38,-134.25"/>
<text text-anchor="middle" x="1278.5" y="-120.75" font-family="Helvetica,sans-Serif" font-size="10.00">coroutine</text>
</a>
</g>
</g>
<!-- Node25&#45;&gt;Node31 -->
<g id="edge37_Node000025_Node000031" class="edge">
<title>Node25&#45;&gt;Node31</title>
<g id="a_edge37_Node000025_Node000031"><a xlink:title=" ">
<path fill="none" stroke="#63b8ff" d="M1181.6,-169.84C1199.89,-161.35 1226.6,-148.95 1247.36,-139.33"/>
<polygon fill="#63b8ff" stroke="#63b8ff" points="1248.62,-142.6 1256.21,-135.22 1245.67,-136.25 1248.62,-142.6"/>
</a>
</g>
</g>
<!-- Node32 -->
<g id="Node000032" class="node">
<title>Node32</title>
<g id="a_Node000032"><a xlink:title=" ">
<polygon fill="#e0e0e0" stroke="#999999" points="1391.5,-134.25 1327.5,-134.25 1327.5,-113.5 1391.5,-113.5 1391.5,-134.25"/>
<text text-anchor="middle" x="1359.5" y="-120.75" font-family="Helvetica,sans-Serif" font-size="10.00">exception</text>
</a>
</g>
</g>
<!-- Node25&#45;&gt;Node32 -->
<g id="edge38_Node000025_Node000032" class="edge">
<title>Node25&#45;&gt;Node32</title>
<g id="a_edge38_Node000025_Node000032"><a xlink:title=" ">
<path fill="none" stroke="#63b8ff" d="M1196.08,-169.84C1229.82,-160.55 1280.56,-146.59 1316.54,-136.7"/>
<polygon fill="#63b8ff" stroke="#63b8ff" points="1317.02,-140.19 1325.73,-134.16 1315.16,-133.44 1317.02,-140.19"/>
</a>
</g>
</g>
<!-- Node33 -->
<g id="Node000033" class="node">
<title>Node33</title>
<g id="a_Node000033"><a xlink:title=" ">
<polygon fill="#e0e0e0" stroke="#999999" points="1453.75,-134.25 1409.25,-134.25 1409.25,-113.5 1453.75,-113.5 1453.75,-134.25"/>
<text text-anchor="middle" x="1431.5" y="-120.75" font-family="Helvetica,sans-Serif" font-size="10.00">utility</text>
</a>
</g>
</g>
<!-- Node25&#45;&gt;Node33 -->
<g id="edge41_Node000025_Node000033" class="edge">
<title>Node25&#45;&gt;Node33</title>
<g id="a_edge41_Node000025_Node000033"><a xlink:title=" ">
<path fill="none" stroke="#63b8ff" d="M1222.55,-169.77C1268.67,-162.01 1333.32,-150.25 1398.08,-134.66"/>
<polygon fill="#63b8ff" stroke="#63b8ff" points="1398.54,-138.15 1407.42,-132.38 1396.87,-131.35 1398.54,-138.15"/>
</a>
</g>
</g>
<!-- Node26&#45;&gt;Node9 -->
<g id="edge30_Node000026_Node000009" class="edge">
<title>Node26&#45;&gt;Node9</title>
<g id="a_edge30_Node000026_Node000009"><a xlink:title=" ">
<path fill="none" stroke="#63b8ff" d="M1076.47,-113.09C1051.51,-103.32 1013.31,-88.39 987.88,-78.44"/>
<polygon fill="#63b8ff" stroke="#63b8ff" points="989.19,-75.2 978.6,-74.81 986.64,-81.71 989.19,-75.2"/>
</a>
</g>
</g>
<!-- Node26&#45;&gt;Node10 -->
<g id="edge32_Node000026_Node000010" class="edge">
<title>Node26&#45;&gt;Node10</title>
<g id="a_edge32_Node000026_Node000010"><a xlink:title=" ">
<path fill="none" stroke="#63b8ff" d="M1088.99,-113.09C1078.93,-105.22 1064.59,-94 1052.74,-84.74"/>
<polygon fill="#63b8ff" stroke="#63b8ff" points="1055.13,-82.16 1045.1,-78.76 1050.82,-87.68 1055.13,-82.16"/>
</a>
</g>
</g>
<!-- Node26&#45;&gt;Node11 -->
<g id="edge31_Node000026_Node000011" class="edge">
<title>Node26&#45;&gt;Node11</title>
<g id="a_edge31_Node000026_Node000011"><a xlink:title=" ">
<path fill="none" stroke="#63b8ff" d="M1064.95,-113.03C1034.01,-104.64 988.21,-92.08 939.85,-78.13"/>
<polygon fill="#63b8ff" stroke="#63b8ff" points="940.86,-74.79 930.29,-75.37 938.92,-81.51 940.86,-74.79"/>
</a>
</g>
</g>
<!-- Node26&#45;&gt;Node18 -->
<g id="edge28_Node000026_Node000018" class="edge">
<title>Node26&#45;&gt;Node18</title>
<g id="a_edge28_Node000026_Node000018"><a xlink:title=" ">
<path fill="none" stroke="#63b8ff" d="M1101.5,-113.09C1101.5,-106.47 1101.5,-97.47 1101.5,-89.27"/>
<polygon fill="#63b8ff" stroke="#63b8ff" points="1105,-89.34 1101.5,-79.34 1098,-89.34 1105,-89.34"/>
</a>
</g>
</g>
<!-- Node26&#45;&gt;Node20 -->
<g id="edge29_Node000026_Node000020" class="edge">
<title>Node26&#45;&gt;Node20</title>
<g id="a_edge29_Node000026_Node000020"><a xlink:title=" ">
<path fill="none" stroke="#63b8ff" d="M1153.82,-115.5C1206.53,-107.78 1290.42,-94.69 1372.04,-77.88"/>
<polygon fill="#63b8ff" stroke="#63b8ff" points="1372.72,-81.31 1381.79,-75.84 1371.29,-74.46 1372.72,-81.31"/>
</a>
</g>
</g>
<!-- Node27 -->
<g id="Node000027" class="node">
<title>Node27</title>
<g id="a_Node000027"><a xlink:title=" ">
<polygon fill="#e0e0e0" stroke="#999999" points="1365.38,-77.5 1327.62,-77.5 1327.62,-56.75 1365.38,-56.75 1365.38,-77.5"/>
<text text-anchor="middle" x="1346.5" y="-64" font-family="Helvetica,sans-Serif" font-size="10.00">map</text>
</a>
</g>
</g>
<!-- Node26&#45;&gt;Node27 -->
<g id="edge33_Node000026_Node000027" class="edge">
<title>Node26&#45;&gt;Node27</title>
<g id="a_edge33_Node000026_Node000027"><a xlink:title=" ">
<path fill="none" stroke="#63b8ff" d="M1153.64,-113.75C1195.35,-106.04 1255.49,-94.05 1316.35,-77.84"/>
<polygon fill="#63b8ff" stroke="#63b8ff" points="1317.11,-81.26 1325.85,-75.27 1315.28,-74.51 1317.11,-81.26"/>
</a>
</g>
</g>
<!-- Node28 -->
<g id="Node000028" class="node">
<title>Node28</title>
<g id="a_Node000028"><a xlink:title=" ">
<polygon fill="#e0e0e0" stroke="#999999" points="1181.88,-77.5 1135.12,-77.5 1135.12,-56.75 1181.88,-56.75 1181.88,-77.5"/>
<text text-anchor="middle" x="1158.5" y="-64" font-family="Helvetica,sans-Serif" font-size="10.00">vector</text>
</a>
</g>
</g>
<!-- Node26&#45;&gt;Node28 -->
<g id="edge34_Node000026_Node000028" class="edge">
<title>Node26&#45;&gt;Node28</title>
<g id="a_edge34_Node000026_Node000028"><a xlink:title=" ">
<path fill="none" stroke="#63b8ff" d="M1111.69,-113.09C1119.63,-105.46 1130.87,-94.67 1140.34,-85.57"/>
<polygon fill="#63b8ff" stroke="#63b8ff" points="1142.52,-88.33 1147.31,-78.88 1137.67,-83.28 1142.52,-88.33"/>
</a>
</g>
</g>
<!-- Node29 -->
<g id="Node000029" class="node">
<title>Node29</title>
<g id="a_Node000029"><a xlink:title=" ">
<polygon fill="#e0e0e0" stroke="#999999" points="1239.12,-77.5 1199.88,-77.5 1199.88,-56.75 1239.12,-56.75 1239.12,-77.5"/>
<text text-anchor="middle" x="1219.5" y="-64" font-family="Helvetica,sans-Serif" font-size="10.00">span</text>
</a>
</g>
</g>
<!-- Node26&#45;&gt;Node29 -->
<g id="edge35_Node000026_Node000029" class="edge">
<title>Node26&#45;&gt;Node29</title>
<g id="a_edge35_Node000026_Node000029"><a xlink:title=" ">
<path fill="none" stroke="#63b8ff" d="M1122.6,-113.09C1141.22,-104.44 1168.6,-91.74 1189.5,-82.04"/>
<polygon fill="#63b8ff" stroke="#63b8ff" points="1190.79,-85.3 1198.39,-77.92 1187.85,-78.95 1190.79,-85.3"/>
</a>
</g>
</g>
<!-- Node30 -->
<g id="Node000030" class="node">
<title>Node30</title>
<g id="a_Node000030"><a xlink:title=" ">
<polygon fill="#e0e0e0" stroke="#999999" points="1309.88,-77.5 1257.12,-77.5 1257.12,-56.75 1309.88,-56.75 1309.88,-77.5"/>
<text text-anchor="middle" x="1283.5" y="-64" font-family="Helvetica,sans-Serif" font-size="10.00">stdint.h</text>
</a>
</g>
</g>
<!-- Node26&#45;&gt;Node30 -->
<g id="edge36_Node000026_Node000030" class="edge">
<title>Node26&#45;&gt;Node30</title>
<g id="a_edge36_Node000026_Node000030"><a xlink:title=" ">
<path fill="none" stroke="#63b8ff" d="M1134.04,-113.09C1165.41,-103.65 1212.86,-89.38 1245.84,-79.45"/>
<polygon fill="#63b8ff" stroke="#63b8ff" points="1246.84,-82.81 1255.41,-76.57 1244.83,-76.1 1246.84,-82.81"/>
</a>
</g>
</g>
</g>
</svg>
