<?xml version="1.0" encoding="UTF-8" standalone="no"?>
<!DOCTYPE svg PUBLIC "-//W3C//DTD SVG 1.1//EN"
 "http://www.w3.org/Graphics/SVG/1.1/DTD/svg11.dtd">
<!-- Generated by graphviz version 12.2.1 (0)
 -->
<!-- Title: lix/libstore/gc&#45;store.hh Pages: 1 -->
<svg width="348pt" height="307pt"
 viewBox="0.00 0.00 347.75 306.75" xmlns="http://www.w3.org/2000/svg" xmlns:xlink="http://www.w3.org/1999/xlink">
<g id="graph0" class="graph" transform="scale(1 1) rotate(0) translate(4 302.75)">
<title>lix/libstore/gc&#45;store.hh</title>
<!-- Node1 -->
<g id="Node000001" class="node">
<title>Node1</title>
<g id="a_Node000001"><a xlink:title=" ">
<polygon fill="#999999" stroke="#666666" points="240.38,-298.75 114.88,-298.75 114.88,-278 240.38,-278 240.38,-298.75"/>
<text text-anchor="middle" x="177.62" y="-285.25" font-family="Helvetica,sans-Serif" font-size="10.00">lix/libstore/gc&#45;store.hh</text>
</a>
</g>
</g>
<!-- Node2 -->
<g id="Node000002" class="node">
<title>Node2</title>
<g id="a_Node000002"><a xlink:href="local-fs-store_8hh.html" target="_top" xlink:title=" ">
<polygon fill="white" stroke="#666666" points="165.62,-242 71.62,-242 71.62,-208.5 165.62,-208.5 165.62,-242"/>
<text text-anchor="start" x="79.62" y="-228.5" font-family="Helvetica,sans-Serif" font-size="10.00">lix/libstore/local</text>
<text text-anchor="middle" x="118.62" y="-215.75" font-family="Helvetica,sans-Serif" font-size="10.00">&#45;fs&#45;store.hh</text>
</a>
</g>
</g>
<!-- Node1&#45;&gt;Node2 -->
<g id="edge1_Node000001_Node000002" class="edge">
<title>Node1&#45;&gt;Node2</title>
<g id="a_edge1_Node000001_Node000002"><a xlink:title=" ">
<path fill="none" stroke="#63b8ff" d="M160.26,-269.39C152.04,-260.87 142.29,-250.77 134.3,-242.48"/>
<polygon fill="#63b8ff" stroke="#63b8ff" points="157.63,-271.7 167.09,-276.47 162.67,-266.84 157.63,-271.7"/>
</a>
</g>
</g>
<!-- Node8 -->
<g id="Node000008" class="node">
<title>Node8</title>
<g id="a_Node000008"><a xlink:href="remote-store_8hh.html" target="_top" xlink:title=" ">
<polygon fill="white" stroke="#666666" points="301.62,-242 195.62,-242 195.62,-208.5 301.62,-208.5 301.62,-242"/>
<text text-anchor="start" x="203.62" y="-228.5" font-family="Helvetica,sans-Serif" font-size="10.00">lix/libstore/remote</text>
<text text-anchor="middle" x="248.62" y="-215.75" font-family="Helvetica,sans-Serif" font-size="10.00">&#45;store.hh</text>
</a>
</g>
</g>
<!-- Node1&#45;&gt;Node8 -->
<g id="edge7_Node000001_Node000008" class="edge">
<title>Node1&#45;&gt;Node8</title>
<g id="a_edge7_Node000001_Node000008"><a xlink:title=" ">
<path fill="none" stroke="#63b8ff" d="M197.58,-270.19C207.67,-261.51 219.84,-251.03 229.77,-242.48"/>
<polygon fill="#63b8ff" stroke="#63b8ff" points="195.47,-267.39 190.18,-276.57 200.04,-272.69 195.47,-267.39"/>
</a>
</g>
</g>
<!-- Node3 -->
<g id="Node000003" class="node">
<title>Node3</title>
<g id="a_Node000003"><a xlink:href="indirect-root-store_8hh.html" target="_top" xlink:title=" ">
<polygon fill="white" stroke="#666666" points="147.38,-172.5 39.88,-172.5 39.88,-139 147.38,-139 147.38,-172.5"/>
<text text-anchor="start" x="47.88" y="-159" font-family="Helvetica,sans-Serif" font-size="10.00">lix/libstore/indirect</text>
<text text-anchor="middle" x="93.62" y="-146.25" font-family="Helvetica,sans-Serif" font-size="10.00">&#45;root&#45;store.hh</text>
</a>
</g>
</g>
<!-- Node2&#45;&gt;Node3 -->
<g id="edge2_Node000002_Node000003" class="edge">
<title>Node2&#45;&gt;Node3</title>
<g id="a_edge2_Node000002_Node000003"><a xlink:title=" ">
<path fill="none" stroke="#63b8ff" d="M108.78,-197.67C105.64,-189.2 102.27,-180.1 99.51,-172.63"/>
<polygon fill="#63b8ff" stroke="#63b8ff" points="105.42,-198.67 112.17,-206.83 111.98,-196.24 105.42,-198.67"/>
</a>
</g>
</g>
<!-- Node4 -->
<g id="Node000004" class="node">
<title>Node4</title>
<g id="a_Node000004"><a xlink:href="local-store_8hh.html" target="_top" xlink:title=" ">
<polygon fill="white" stroke="#666666" points="114.62,-103 20.62,-103 20.62,-69.5 114.62,-69.5 114.62,-103"/>
<text text-anchor="start" x="28.62" y="-89.5" font-family="Helvetica,sans-Serif" font-size="10.00">lix/libstore/local</text>
<text text-anchor="middle" x="67.62" y="-76.75" font-family="Helvetica,sans-Serif" font-size="10.00">&#45;store.hh</text>
</a>
</g>
</g>
<!-- Node3&#45;&gt;Node4 -->
<g id="edge3_Node000003_Node000004" class="edge">
<title>Node3&#45;&gt;Node4</title>
<g id="a_edge3_Node000003_Node000004"><a xlink:title=" ">
<path fill="none" stroke="#63b8ff" d="M83.39,-128.17C80.12,-119.7 76.62,-110.6 73.74,-103.13"/>
<polygon fill="#63b8ff" stroke="#63b8ff" points="80.06,-129.27 86.92,-137.34 86.59,-126.75 80.06,-129.27"/>
</a>
</g>
</g>
<!-- Node7 -->
<g id="Node000007" class="node">
<title>Node7</title>
<g id="a_Node000007"><a xlink:href="uds-remote-store_8hh.html" target="_top" xlink:title=" ">
<polygon fill="white" stroke="#666666" points="260.12,-103 133.12,-103 133.12,-69.5 260.12,-69.5 260.12,-103"/>
<text text-anchor="start" x="141.12" y="-89.5" font-family="Helvetica,sans-Serif" font-size="10.00">lix/libstore/uds&#45;remote</text>
<text text-anchor="middle" x="196.62" y="-76.75" font-family="Helvetica,sans-Serif" font-size="10.00">&#45;store.hh</text>
</a>
</g>
</g>
<!-- Node3&#45;&gt;Node7 -->
<g id="edge6_Node000003_Node000007" class="edge">
<title>Node3&#45;&gt;Node7</title>
<g id="a_edge6_Node000003_Node000007"><a xlink:title=" ">
<path fill="none" stroke="#63b8ff" d="M127.51,-132.54C142.09,-122.99 158.81,-112.03 172.16,-103.29"/>
<polygon fill="#63b8ff" stroke="#63b8ff" points="126.01,-129.34 119.56,-137.75 129.84,-135.2 126.01,-129.34"/>
</a>
</g>
</g>
<!-- Node5 -->
<g id="Node000005" class="node">
<title>Node5</title>
<g id="a_Node000005"><a xlink:href="local-derivation-goal_8hh.html" target="_top" xlink:title=" ">
<polygon fill="white" stroke="#666666" points="135.25,-33.5 0,-33.5 0,0 135.25,0 135.25,-33.5"/>
<text text-anchor="start" x="8" y="-20" font-family="Helvetica,sans-Serif" font-size="10.00">lix/libstore/build</text>
<text text-anchor="middle" x="67.62" y="-7.25" font-family="Helvetica,sans-Serif" font-size="10.00">/local&#45;derivation&#45;goal.hh</text>
</a>
</g>
</g>
<!-- Node4&#45;&gt;Node5 -->
<g id="edge4_Node000004_Node000005" class="edge">
<title>Node4&#45;&gt;Node5</title>
<g id="a_edge4_Node000004_Node000005"><a xlink:title=" ">
<path fill="none" stroke="#63b8ff" d="M67.62,-57.81C67.62,-49.59 67.62,-40.84 67.62,-33.63"/>
<polygon fill="#63b8ff" stroke="#63b8ff" points="64.13,-57.74 67.63,-67.74 71.13,-57.74 64.13,-57.74"/>
</a>
</g>
</g>
<!-- Node6 -->
<g id="Node000006" class="node">
<title>Node6</title>
<g id="a_Node000006"><a xlink:href="nix_2daemon_8cc.html" target="_top" xlink:title=" ">
<polygon fill="white" stroke="#666666" points="339.75,-27.12 237.5,-27.12 237.5,-6.38 339.75,-6.38 339.75,-27.12"/>
<text text-anchor="middle" x="288.62" y="-13.62" font-family="Helvetica,sans-Serif" font-size="10.00">lix/nix/daemon.cc</text>
</a>
</g>
</g>
<!-- Node4&#45;&gt;Node6 -->
<g id="edge5_Node000004_Node000006" class="edge">
<title>Node4&#45;&gt;Node6</title>
<g id="a_edge5_Node000004_Node000006"><a xlink:title=" ">
<path fill="none" stroke="#63b8ff" d="M125.88,-67.46C167.57,-54.72 222.14,-38.06 256.3,-27.62"/>
<polygon fill="#63b8ff" stroke="#63b8ff" points="125.02,-64.06 116.48,-70.33 127.07,-70.75 125.02,-64.06"/>
</a>
</g>
</g>
<!-- Node8&#45;&gt;Node6 -->
<g id="edge12_Node000008_Node000006" class="edge">
<title>Node8&#45;&gt;Node6</title>
<g id="a_edge12_Node000008_Node000006"><a xlink:title=" ">
<path fill="none" stroke="#63b8ff" d="M298.94,-202.42C310.77,-194.76 321.89,-184.88 328.62,-172.5 355.95,-122.29 313.4,-52.68 295.73,-27.41"/>
<polygon fill="#63b8ff" stroke="#63b8ff" points="297.48,-199.21 290.66,-207.32 301.05,-205.23 297.48,-199.21"/>
</a>
</g>
</g>
<!-- Node8&#45;&gt;Node7 -->
<g id="edge11_Node000008_Node000007" class="edge">
<title>Node8&#45;&gt;Node7</title>
<g id="a_edge11_Node000008_Node000007"><a xlink:title=" ">
<path fill="none" stroke="#63b8ff" d="M215.74,-200.75C207.25,-192.84 199.21,-183.25 194.62,-172.5 185.04,-150.03 188.64,-121.11 192.41,-103.39"/>
<polygon fill="#63b8ff" stroke="#63b8ff" points="213.26,-203.23 223.13,-207.1 217.83,-197.93 213.26,-203.23"/>
</a>
</g>
</g>
<!-- Node9 -->
<g id="Node000009" class="node">
<title>Node9</title>
<g id="a_Node000009"><a xlink:href="remote-store-connection_8hh.html" target="_top" xlink:title=" ">
<polygon fill="white" stroke="#666666" points="319.88,-172.5 203.38,-172.5 203.38,-139 319.88,-139 319.88,-172.5"/>
<text text-anchor="start" x="211.38" y="-159" font-family="Helvetica,sans-Serif" font-size="10.00">lix/libstore/remote</text>
<text text-anchor="middle" x="261.62" y="-146.25" font-family="Helvetica,sans-Serif" font-size="10.00">&#45;store&#45;connection.hh</text>
</a>
</g>
</g>
<!-- Node8&#45;&gt;Node9 -->
<g id="edge8_Node000008_Node000009" class="edge">
<title>Node8&#45;&gt;Node9</title>
<g id="a_edge8_Node000008_Node000009"><a xlink:title=" ">
<path fill="none" stroke="#63b8ff" d="M253.85,-197.1C255.45,-188.79 257.16,-179.93 258.57,-172.63"/>
<polygon fill="#63b8ff" stroke="#63b8ff" points="250.45,-196.29 251.99,-206.77 257.32,-197.61 250.45,-196.29"/>
</a>
</g>
</g>
<!-- Node9&#45;&gt;Node6 -->
<g id="edge10_Node000009_Node000006" class="edge">
<title>Node9&#45;&gt;Node6</title>
<g id="a_edge10_Node000009_Node000006"><a xlink:title=" ">
<path fill="none" stroke="#63b8ff" d="M266.99,-127.54C273.06,-96.7 282.65,-48.07 286.71,-27.48"/>
<polygon fill="#63b8ff" stroke="#63b8ff" points="263.57,-126.79 265.07,-137.28 270.44,-128.15 263.57,-126.79"/>
</a>
</g>
</g>
<!-- Node9&#45;&gt;Node7 -->
<g id="edge9_Node000009_Node000007" class="edge">
<title>Node9&#45;&gt;Node7</title>
<g id="a_edge9_Node000009_Node000007"><a xlink:title=" ">
<path fill="none" stroke="#63b8ff" d="M238.49,-130.72C229.66,-121.56 219.83,-111.35 211.92,-103.13"/>
<polygon fill="#63b8ff" stroke="#63b8ff" points="235.71,-132.89 245.17,-137.66 240.76,-128.03 235.71,-132.89"/>
</a>
</g>
</g>
</g>
</svg>
