<?xml version="1.0" encoding="UTF-8" standalone="no"?>
<!DOCTYPE svg PUBLIC "-//W3C//DTD SVG 1.1//EN"
 "http://www.w3.org/Graphics/SVG/1.1/DTD/svg11.dtd">
<!-- Generated by graphviz version 12.2.1 (0)
 -->
<!-- Title: Graphical Class Hierarchy Pages: 1 -->
<svg width="529pt" height="366pt"
 viewBox="0.00 0.00 528.50 365.50" xmlns="http://www.w3.org/2000/svg" xmlns:xlink="http://www.w3.org/1999/xlink">
<g id="graph0" class="graph" transform="scale(1 1) rotate(0) translate(4 361.5)">
<title>Graphical Class Hierarchy</title>
<!-- Node0 -->
<g id="Node000000" class="node">
<title>Node0</title>
<g id="a_Node000000"><a xlink:href="structnix_1_1fetchers_1_1InputScheme.html" target="_top" xlink:title=" ">
<polygon fill="white" stroke="#666666" points="146.5,-153.12 0,-153.12 0,-132.38 146.5,-132.38 146.5,-153.12"/>
<text text-anchor="middle" x="73.25" y="-139.62" font-family="Helvetica,sans-Serif" font-size="10.00">nix::fetchers::InputScheme</text>
</a>
</g>
</g>
<!-- Node1 -->
<g id="Node000001" class="node">
<title>Node1</title>
<g id="a_Node000001"><a xlink:href="structnix_1_1fetchers_1_1CurlInputScheme.html" target="_top" xlink:title=" ">
<polygon fill="white" stroke="#666666" points="326.38,-305.5 199.38,-305.5 199.38,-272 326.38,-272 326.38,-305.5"/>
<text text-anchor="start" x="207.38" y="-292" font-family="Helvetica,sans-Serif" font-size="10.00">nix::fetchers::CurlInput</text>
<text text-anchor="middle" x="262.88" y="-279.25" font-family="Helvetica,sans-Serif" font-size="10.00">Scheme</text>
</a>
</g>
</g>
<!-- Node0&#45;&gt;Node1 -->
<g id="edge321_Node000000_Node000001" class="edge">
<title>Node0&#45;&gt;Node1</title>
<g id="a_edge321_Node000000_Node000001"><a xlink:title=" ">
<path fill="none" stroke="#63b8ff" d="M93.67,-161.04C114.83,-180.62 150.02,-212.18 182.5,-236.75 198.92,-249.17 218.23,-261.86 233.7,-271.59"/>
<polygon fill="#63b8ff" stroke="#63b8ff" points="96.32,-158.72 86.62,-154.47 91.55,-163.85 96.32,-158.72"/>
</a>
</g>
</g>
<!-- Node4 -->
<g id="Node000004" class="node">
<title>Node4</title>
<g id="a_Node000004"><a xlink:href="structnix_1_1fetchers_1_1GitArchiveInputScheme.html" target="_top" xlink:title=" ">
<polygon fill="white" stroke="#666666" points="329.75,-227.5 196,-227.5 196,-194 329.75,-194 329.75,-227.5"/>
<text text-anchor="start" x="204" y="-214" font-family="Helvetica,sans-Serif" font-size="10.00">nix::fetchers::GitArchive</text>
<text text-anchor="middle" x="262.88" y="-201.25" font-family="Helvetica,sans-Serif" font-size="10.00">InputScheme</text>
</a>
</g>
</g>
<!-- Node0&#45;&gt;Node4 -->
<g id="edge324_Node000000_Node000004" class="edge">
<title>Node0&#45;&gt;Node4</title>
<g id="a_edge324_Node000000_Node000004"><a xlink:title=" ">
<path fill="none" stroke="#63b8ff" d="M111.41,-157.74C132.22,-165.98 158.69,-176.24 182.5,-184.75 190.69,-187.68 199.41,-190.66 207.94,-193.52"/>
<polygon fill="#63b8ff" stroke="#63b8ff" points="112.78,-154.51 102.2,-154.07 110.19,-161.02 112.78,-154.51"/>
</a>
</g>
</g>
<!-- Node8 -->
<g id="Node000008" class="node">
<title>Node8</title>
<g id="a_Node000008"><a xlink:href="structnix_1_1fetchers_1_1GitInputScheme.html" target="_top" xlink:title=" ">
<polygon fill="white" stroke="#666666" points="343.25,-176.12 182.5,-176.12 182.5,-155.38 343.25,-155.38 343.25,-176.12"/>
<text text-anchor="middle" x="262.88" y="-162.62" font-family="Helvetica,sans-Serif" font-size="10.00">nix::fetchers::GitInputScheme</text>
</a>
</g>
</g>
<!-- Node0&#45;&gt;Node8 -->
<g id="edge328_Node000000_Node000008" class="edge">
<title>Node0&#45;&gt;Node8</title>
<g id="a_edge328_Node000000_Node000008"><a xlink:title=" ">
<path fill="none" stroke="#63b8ff" d="M158,-153.02C166,-154 174.09,-154.99 182.05,-155.96"/>
<polygon fill="#63b8ff" stroke="#63b8ff" points="158.64,-149.57 148.29,-151.83 157.79,-156.52 158.64,-149.57"/>
</a>
</g>
</g>
<!-- Node9 -->
<g id="Node000009" class="node">
<title>Node9</title>
<g id="a_Node000009"><a xlink:href="structnix_1_1fetchers_1_1IndirectInputScheme.html" target="_top" xlink:title=" ">
<polygon fill="white" stroke="#666666" points="335,-137.5 190.75,-137.5 190.75,-104 335,-104 335,-137.5"/>
<text text-anchor="start" x="198.75" y="-124" font-family="Helvetica,sans-Serif" font-size="10.00">nix::fetchers::IndirectInput</text>
<text text-anchor="middle" x="262.88" y="-111.25" font-family="Helvetica,sans-Serif" font-size="10.00">Scheme</text>
</a>
</g>
</g>
<!-- Node0&#45;&gt;Node9 -->
<g id="edge329_Node000000_Node000009" class="edge">
<title>Node0&#45;&gt;Node9</title>
<g id="a_edge329_Node000000_Node000009"><a xlink:title=" ">
<path fill="none" stroke="#63b8ff" d="M157.99,-132.93C168.83,-131.66 179.84,-130.37 190.45,-129.12"/>
<polygon fill="#63b8ff" stroke="#63b8ff" points="157.82,-129.43 148.29,-134.07 158.63,-136.38 157.82,-129.43"/>
</a>
</g>
</g>
<!-- Node10 -->
<g id="Node000010" class="node">
<title>Node10</title>
<g id="a_Node000010"><a xlink:href="structnix_1_1fetchers_1_1MercurialInputScheme.html" target="_top" xlink:title=" ">
<polygon fill="white" stroke="#666666" points="327.12,-85.5 198.62,-85.5 198.62,-52 327.12,-52 327.12,-85.5"/>
<text text-anchor="start" x="206.62" y="-72" font-family="Helvetica,sans-Serif" font-size="10.00">nix::fetchers::Mercurial</text>
<text text-anchor="middle" x="262.88" y="-59.25" font-family="Helvetica,sans-Serif" font-size="10.00">InputScheme</text>
</a>
</g>
</g>
<!-- Node0&#45;&gt;Node10 -->
<g id="edge330_Node000000_Node000010" class="edge">
<title>Node0&#45;&gt;Node10</title>
<g id="a_edge330_Node000000_Node000010"><a xlink:title=" ">
<path fill="none" stroke="#63b8ff" d="M107.2,-127.1C128.46,-117.26 156.84,-104.61 182.5,-94.75 190.35,-91.73 198.72,-88.75 206.97,-85.94"/>
<polygon fill="#63b8ff" stroke="#63b8ff" points="105.73,-123.92 98.15,-131.32 108.69,-130.27 105.73,-123.92"/>
</a>
</g>
</g>
<!-- Node11 -->
<g id="Node000011" class="node">
<title>Node11</title>
<g id="a_Node000011"><a xlink:href="structnix_1_1fetchers_1_1PathInputScheme.html" target="_top" xlink:title=" ">
<polygon fill="white" stroke="#666666" points="327.12,-33.5 198.62,-33.5 198.62,0 327.12,0 327.12,-33.5"/>
<text text-anchor="start" x="206.62" y="-20" font-family="Helvetica,sans-Serif" font-size="10.00">nix::fetchers::PathInput</text>
<text text-anchor="middle" x="262.88" y="-7.25" font-family="Helvetica,sans-Serif" font-size="10.00">Scheme</text>
</a>
</g>
</g>
<!-- Node0&#45;&gt;Node11 -->
<g id="edge331_Node000000_Node000011" class="edge">
<title>Node0&#45;&gt;Node11</title>
<g id="a_edge331_Node000000_Node000011"><a xlink:title=" ">
<path fill="none" stroke="#63b8ff" d="M90.39,-123.49C110.04,-101.16 145.25,-64.64 182.5,-42.75 188.13,-39.44 194.23,-36.5 200.46,-33.89"/>
<polygon fill="#63b8ff" stroke="#63b8ff" points="87.82,-121.1 83.94,-130.96 93.13,-125.67 87.82,-121.1"/>
</a>
</g>
</g>
<!-- Node2 -->
<g id="Node000002" class="node">
<title>Node2</title>
<g id="a_Node000002"><a xlink:href="structnix_1_1fetchers_1_1FileInputScheme.html" target="_top" xlink:title=" ">
<polygon fill="white" stroke="#666666" points="512.25,-357.5 387.5,-357.5 387.5,-324 512.25,-324 512.25,-357.5"/>
<text text-anchor="start" x="395.5" y="-344" font-family="Helvetica,sans-Serif" font-size="10.00">nix::fetchers::FileInput</text>
<text text-anchor="middle" x="449.88" y="-331.25" font-family="Helvetica,sans-Serif" font-size="10.00">Scheme</text>
</a>
</g>
</g>
<!-- Node1&#45;&gt;Node2 -->
<g id="edge322_Node000001_Node000002" class="edge">
<title>Node1&#45;&gt;Node2</title>
<g id="a_edge322_Node000001_Node000002"><a xlink:title=" ">
<path fill="none" stroke="#63b8ff" d="M336.24,-309.09C353.25,-313.87 371.23,-318.92 387.7,-323.55"/>
<polygon fill="#63b8ff" stroke="#63b8ff" points="337.25,-305.74 326.68,-306.4 335.36,-312.48 337.25,-305.74"/>
</a>
</g>
</g>
<!-- Node3 -->
<g id="Node000003" class="node">
<title>Node3</title>
<g id="a_Node000003"><a xlink:href="structnix_1_1fetchers_1_1TarballInputScheme.html" target="_top" xlink:title=" ">
<polygon fill="white" stroke="#666666" points="519.75,-305.5 380,-305.5 380,-272 519.75,-272 519.75,-305.5"/>
<text text-anchor="start" x="388" y="-292" font-family="Helvetica,sans-Serif" font-size="10.00">nix::fetchers::TarballInput</text>
<text text-anchor="middle" x="449.88" y="-279.25" font-family="Helvetica,sans-Serif" font-size="10.00">Scheme</text>
</a>
</g>
</g>
<!-- Node1&#45;&gt;Node3 -->
<g id="edge323_Node000001_Node000003" class="edge">
<title>Node1&#45;&gt;Node3</title>
<g id="a_edge323_Node000001_Node000003"><a xlink:title=" ">
<path fill="none" stroke="#63b8ff" d="M338.16,-288.75C351.91,-288.75 366.22,-288.75 379.81,-288.75"/>
<polygon fill="#63b8ff" stroke="#63b8ff" points="338.28,-285.25 328.28,-288.75 338.28,-292.25 338.28,-285.25"/>
</a>
</g>
</g>
<!-- Node5 -->
<g id="Node000005" class="node">
<title>Node5</title>
<g id="a_Node000005"><a xlink:href="structnix_1_1fetchers_1_1GitHubInputScheme.html" target="_top" xlink:title=" ">
<polygon fill="white" stroke="#666666" points="520.5,-253.5 379.25,-253.5 379.25,-220 520.5,-220 520.5,-253.5"/>
<text text-anchor="start" x="387.25" y="-240" font-family="Helvetica,sans-Serif" font-size="10.00">nix::fetchers::GitHubInput</text>
<text text-anchor="middle" x="449.88" y="-227.25" font-family="Helvetica,sans-Serif" font-size="10.00">Scheme</text>
</a>
</g>
</g>
<!-- Node4&#45;&gt;Node5 -->
<g id="edge325_Node000004_Node000005" class="edge">
<title>Node4&#45;&gt;Node5</title>
<g id="a_edge325_Node000004_Node000005"><a xlink:title=" ">
<path fill="none" stroke="#63b8ff" d="M341.45,-221.65C353.91,-223.4 366.74,-225.21 379.01,-226.93"/>
<polygon fill="#63b8ff" stroke="#63b8ff" points="342.03,-218.2 331.64,-220.27 341.06,-225.13 342.03,-218.2"/>
</a>
</g>
</g>
<!-- Node6 -->
<g id="Node000006" class="node">
<title>Node6</title>
<g id="a_Node000006"><a xlink:href="structnix_1_1fetchers_1_1GitLabInputScheme.html" target="_top" xlink:title=" ">
<polygon fill="white" stroke="#666666" points="519.38,-201.5 380.38,-201.5 380.38,-168 519.38,-168 519.38,-201.5"/>
<text text-anchor="start" x="388.38" y="-188" font-family="Helvetica,sans-Serif" font-size="10.00">nix::fetchers::GitLabInput</text>
<text text-anchor="middle" x="449.88" y="-175.25" font-family="Helvetica,sans-Serif" font-size="10.00">Scheme</text>
</a>
</g>
</g>
<!-- Node4&#45;&gt;Node6 -->
<g id="edge326_Node000004_Node000006" class="edge">
<title>Node4&#45;&gt;Node6</title>
<g id="a_edge326_Node000004_Node000006"><a xlink:title=" ">
<path fill="none" stroke="#63b8ff" d="M341.29,-199.87C354.12,-198.07 367.35,-196.21 379.95,-194.44"/>
<polygon fill="#63b8ff" stroke="#63b8ff" points="341.06,-196.37 331.64,-201.23 342.03,-203.3 341.06,-196.37"/>
</a>
</g>
</g>
<!-- Node7 -->
<g id="Node000007" class="node">
<title>Node7</title>
<g id="a_Node000007"><a xlink:href="structnix_1_1fetchers_1_1SourceHutInputScheme.html" target="_top" xlink:title=" ">
<polygon fill="white" stroke="#666666" points="516.38,-149.5 383.38,-149.5 383.38,-116 516.38,-116 516.38,-149.5"/>
<text text-anchor="start" x="391.38" y="-136" font-family="Helvetica,sans-Serif" font-size="10.00">nix::fetchers::SourceHut</text>
<text text-anchor="middle" x="449.88" y="-123.25" font-family="Helvetica,sans-Serif" font-size="10.00">InputScheme</text>
</a>
</g>
</g>
<!-- Node4&#45;&gt;Node7 -->
<g id="edge327_Node000004_Node000007" class="edge">
<title>Node4&#45;&gt;Node7</title>
<g id="a_edge327_Node000004_Node000007"><a xlink:title=" ">
<path fill="none" stroke="#63b8ff" d="M333.76,-189.24C337,-187.81 340.18,-186.31 343.25,-184.75 360.84,-175.79 361.85,-168.06 379.25,-158.75 385.17,-155.58 391.55,-152.63 397.97,-149.94"/>
<polygon fill="#63b8ff" stroke="#63b8ff" points="332.54,-185.95 324.62,-192.99 335.2,-192.43 332.54,-185.95"/>
</a>
</g>
</g>
</g>
</svg>
