<?xml version="1.0" encoding="UTF-8" standalone="no"?>
<!DOCTYPE svg PUBLIC "-//W3C//DTD SVG 1.1//EN"
 "http://www.w3.org/Graphics/SVG/1.1/DTD/svg11.dtd">
<!-- Generated by graphviz version 12.2.1 (0)
 -->
<!-- Title: lix/libstore/lock.hh Pages: 1 -->
<svg width="377pt" height="168pt"
 viewBox="0.00 0.00 377.00 167.75" xmlns="http://www.w3.org/2000/svg" xmlns:xlink="http://www.w3.org/1999/xlink">
<g id="graph0" class="graph" transform="scale(1 1) rotate(0) translate(4 163.75)">
<title>lix/libstore/lock.hh</title>
<!-- Node1 -->
<g id="Node000001" class="node">
<title>Node1</title>
<g id="a_Node000001"><a xlink:title=" ">
<polygon fill="#999999" stroke="#666666" points="250.62,-159.75 144.62,-159.75 144.62,-139 250.62,-139 250.62,-159.75"/>
<text text-anchor="middle" x="197.62" y="-146.25" font-family="Helvetica,sans-Serif" font-size="10.00">lix/libstore/lock.hh</text>
</a>
</g>
</g>
<!-- Node2 -->
<g id="Node000002" class="node">
<title>Node2</title>
<g id="a_Node000002"><a xlink:href="derivation-goal_8hh.html" target="_top" xlink:title=" ">
<polygon fill="white" stroke="#666666" points="121.75,-103 13.5,-103 13.5,-69.5 121.75,-69.5 121.75,-103"/>
<text text-anchor="start" x="21.5" y="-89.5" font-family="Helvetica,sans-Serif" font-size="10.00">lix/libstore/build</text>
<text text-anchor="middle" x="67.62" y="-76.75" font-family="Helvetica,sans-Serif" font-size="10.00">/derivation&#45;goal.hh</text>
</a>
</g>
</g>
<!-- Node1&#45;&gt;Node2 -->
<g id="edge1_Node000001_Node000002" class="edge">
<title>Node1&#45;&gt;Node2</title>
<g id="a_edge1_Node000001_Node000002"><a xlink:title=" ">
<path fill="none" stroke="#63b8ff" d="M166.34,-133.66C146.97,-124.56 122.09,-112.86 102.15,-103.48"/>
<polygon fill="#63b8ff" stroke="#63b8ff" points="164.83,-136.82 175.37,-137.91 167.81,-130.49 164.83,-136.82"/>
</a>
</g>
</g>
<!-- Node4 -->
<g id="Node000004" class="node">
<title>Node4</title>
<g id="a_Node000004"><a xlink:href="substitution-goal_8hh.html" target="_top" xlink:title=" ">
<polygon fill="white" stroke="#666666" points="255.88,-103 139.38,-103 139.38,-69.5 255.88,-69.5 255.88,-103"/>
<text text-anchor="start" x="147.38" y="-89.5" font-family="Helvetica,sans-Serif" font-size="10.00">lix/libstore/build</text>
<text text-anchor="middle" x="197.62" y="-76.75" font-family="Helvetica,sans-Serif" font-size="10.00">/substitution&#45;goal.hh</text>
</a>
</g>
</g>
<!-- Node1&#45;&gt;Node4 -->
<g id="edge3_Node000001_Node000004" class="edge">
<title>Node1&#45;&gt;Node4</title>
<g id="a_edge3_Node000001_Node000004"><a xlink:title=" ">
<path fill="none" stroke="#63b8ff" d="M197.62,-127.09C197.62,-119.35 197.62,-110.72 197.62,-103.48"/>
<polygon fill="#63b8ff" stroke="#63b8ff" points="194.13,-127.04 197.63,-137.04 201.13,-127.04 194.13,-127.04"/>
</a>
</g>
</g>
<!-- Node5 -->
<g id="Node000005" class="node">
<title>Node5</title>
<g id="a_Node000005"><a xlink:href="worker_8hh.html" target="_top" xlink:title=" ">
<polygon fill="white" stroke="#666666" points="369,-103 274.25,-103 274.25,-69.5 369,-69.5 369,-103"/>
<text text-anchor="start" x="282.25" y="-89.5" font-family="Helvetica,sans-Serif" font-size="10.00">lix/libstore/build</text>
<text text-anchor="middle" x="321.62" y="-76.75" font-family="Helvetica,sans-Serif" font-size="10.00">/worker.hh</text>
</a>
</g>
</g>
<!-- Node1&#45;&gt;Node5 -->
<g id="edge4_Node000001_Node000005" class="edge">
<title>Node1&#45;&gt;Node5</title>
<g id="a_edge4_Node000001_Node000005"><a xlink:title=" ">
<path fill="none" stroke="#63b8ff" d="M227.73,-133.54C246.16,-124.45 269.76,-112.82 288.69,-103.48"/>
<polygon fill="#63b8ff" stroke="#63b8ff" points="226.33,-130.32 218.91,-137.89 229.42,-136.6 226.33,-130.32"/>
</a>
</g>
</g>
<!-- Node3 -->
<g id="Node000003" class="node">
<title>Node3</title>
<g id="a_Node000003"><a xlink:href="local-derivation-goal_8hh.html" target="_top" xlink:title=" ">
<polygon fill="white" stroke="#666666" points="135.25,-33.5 0,-33.5 0,0 135.25,0 135.25,-33.5"/>
<text text-anchor="start" x="8" y="-20" font-family="Helvetica,sans-Serif" font-size="10.00">lix/libstore/build</text>
<text text-anchor="middle" x="67.62" y="-7.25" font-family="Helvetica,sans-Serif" font-size="10.00">/local&#45;derivation&#45;goal.hh</text>
</a>
</g>
</g>
<!-- Node2&#45;&gt;Node3 -->
<g id="edge2_Node000002_Node000003" class="edge">
<title>Node2&#45;&gt;Node3</title>
<g id="a_edge2_Node000002_Node000003"><a xlink:title=" ">
<path fill="none" stroke="#63b8ff" d="M67.62,-57.81C67.62,-49.59 67.62,-40.84 67.62,-33.63"/>
<polygon fill="#63b8ff" stroke="#63b8ff" points="64.13,-57.74 67.63,-67.74 71.13,-57.74 64.13,-57.74"/>
</a>
</g>
</g>
</g>
</svg>
