<?xml version="1.0" encoding="UTF-8" standalone="no"?>
<!DOCTYPE svg PUBLIC "-//W3C//DTD SVG 1.1//EN"
 "http://www.w3.org/Graphics/SVG/1.1/DTD/svg11.dtd">
<!-- Generated by graphviz version 12.2.1 (0)
 -->
<!-- Title: lix/libexpr/nixexpr.hh Pages: 1 -->
<svg width="1748pt" height="420pt"
 viewBox="0.00 0.00 1748.11 420.25" xmlns="http://www.w3.org/2000/svg" xmlns:xlink="http://www.w3.org/1999/xlink">
<g id="graph0" class="graph" transform="scale(1 1) rotate(0) translate(4 416.25)">
<title>lix/libexpr/nixexpr.hh</title>
<!-- Node1 -->
<g id="Node000001" class="node">
<title>Node1</title>
<g id="a_Node000001"><a xlink:title=" ">
<polygon fill="#999999" stroke="#666666" points="1471.98,-412.25 1353.98,-412.25 1353.98,-391.5 1471.98,-391.5 1471.98,-412.25"/>
<text text-anchor="middle" x="1412.98" y="-398.75" font-family="Helvetica,sans-Serif" font-size="10.00">lix/libexpr/nixexpr.hh</text>
</a>
</g>
</g>
<!-- Node2 -->
<g id="Node000002" class="node">
<title>Node2</title>
<g id="a_Node000002"><a xlink:href="attr-set_8hh.html" target="_top" xlink:title=" ">
<polygon fill="white" stroke="#666666" points="1429.36,-355.5 1310.61,-355.5 1310.61,-334.75 1429.36,-334.75 1429.36,-355.5"/>
<text text-anchor="middle" x="1369.98" y="-342" font-family="Helvetica,sans-Serif" font-size="10.00">lix/libexpr/attr&#45;set.hh</text>
</a>
</g>
</g>
<!-- Node1&#45;&gt;Node2 -->
<g id="edge1_Node000001_Node000002" class="edge">
<title>Node1&#45;&gt;Node2</title>
<g id="a_edge1_Node000001_Node000002"><a xlink:title=" ">
<path fill="none" stroke="#63b8ff" d="M1398.32,-382.21C1391.36,-373.34 1383.33,-363.12 1377.6,-355.83"/>
<polygon fill="#63b8ff" stroke="#63b8ff" points="1395.43,-384.19 1404.36,-389.9 1400.94,-379.87 1395.43,-384.19"/>
</a>
</g>
</g>
<!-- Node3 -->
<g id="Node000003" class="node">
<title>Node3</title>
<g id="a_Node000003"><a xlink:href="libexpr_2eval_8hh.html" target="_top" xlink:title=" ">
<polygon fill="white" stroke="#666666" points="1026.86,-298.75 923.11,-298.75 923.11,-278 1026.86,-278 1026.86,-298.75"/>
<text text-anchor="middle" x="974.98" y="-285.25" font-family="Helvetica,sans-Serif" font-size="10.00">lix/libexpr/eval.hh</text>
</a>
</g>
</g>
<!-- Node1&#45;&gt;Node3 -->
<g id="edge34_Node000001_Node000003" class="edge">
<title>Node1&#45;&gt;Node3</title>
<g id="a_edge34_Node000001_Node000003"><a xlink:title=" ">
<path fill="none" stroke="#63b8ff" d="M1363.47,-388.27C1275.34,-365.84 1093.09,-319.44 1013.54,-299.19"/>
<polygon fill="#63b8ff" stroke="#63b8ff" points="1362.48,-391.63 1373.03,-390.7 1364.2,-384.85 1362.48,-391.63"/>
</a>
</g>
</g>
<!-- Node21 -->
<g id="Node000021" class="node">
<title>Node21</title>
<g id="a_Node000021"><a xlink:href="value-to-json_8hh.html" target="_top" xlink:title=" ">
<polygon fill="white" stroke="#666666" points="1614.11,-242 1505.86,-242 1505.86,-208.5 1614.11,-208.5 1614.11,-242"/>
<text text-anchor="start" x="1513.86" y="-228.5" font-family="Helvetica,sans-Serif" font-size="10.00">lix/libexpr/value&#45;to</text>
<text text-anchor="middle" x="1559.98" y="-215.75" font-family="Helvetica,sans-Serif" font-size="10.00">&#45;json.hh</text>
</a>
</g>
</g>
<!-- Node1&#45;&gt;Node21 -->
<g id="edge35_Node000001_Node000021" class="edge">
<title>Node1&#45;&gt;Node21</title>
<g id="a_edge35_Node000001_Node000021"><a xlink:title=" ">
<path fill="none" stroke="#63b8ff" d="M1428.29,-382.69C1457.11,-348.46 1518.98,-274.96 1546.41,-242.38"/>
<polygon fill="#63b8ff" stroke="#63b8ff" points="1425.83,-380.18 1422.07,-390.08 1431.19,-384.68 1425.83,-380.18"/>
</a>
</g>
</g>
<!-- Node22 -->
<g id="Node000022" class="node">
<title>Node22</title>
<g id="a_Node000022"><a xlink:href="value-to-xml_8hh.html" target="_top" xlink:title=" ">
<polygon fill="white" stroke="#666666" points="1740.11,-242 1631.86,-242 1631.86,-208.5 1740.11,-208.5 1740.11,-242"/>
<text text-anchor="start" x="1639.86" y="-228.5" font-family="Helvetica,sans-Serif" font-size="10.00">lix/libexpr/value&#45;to</text>
<text text-anchor="middle" x="1685.98" y="-215.75" font-family="Helvetica,sans-Serif" font-size="10.00">&#45;xml.hh</text>
</a>
</g>
</g>
<!-- Node1&#45;&gt;Node22 -->
<g id="edge36_Node000001_Node000022" class="edge">
<title>Node1&#45;&gt;Node22</title>
<g id="a_edge36_Node000001_Node000022"><a xlink:title=" ">
<path fill="none" stroke="#63b8ff" d="M1437.74,-385.04C1489.49,-351.93 1608.63,-275.73 1660.77,-242.38"/>
<polygon fill="#63b8ff" stroke="#63b8ff" points="1435.86,-382.09 1429.32,-390.42 1439.63,-387.98 1435.86,-382.09"/>
</a>
</g>
</g>
<!-- Node2&#45;&gt;Node3 -->
<g id="edge2_Node000002_Node000003" class="edge">
<title>Node2&#45;&gt;Node3</title>
<g id="a_edge2_Node000002_Node000003"><a xlink:title=" ">
<path fill="none" stroke="#63b8ff" d="M1299.23,-334.32C1221.03,-323.48 1096.95,-306.28 1027.13,-296.6"/>
<polygon fill="#63b8ff" stroke="#63b8ff" points="1298.53,-337.76 1308.92,-335.66 1299.5,-330.82 1298.53,-337.76"/>
</a>
</g>
</g>
<!-- Node4 -->
<g id="Node000004" class="node">
<title>Node4</title>
<g id="a_Node000004"><a xlink:href="cmd-profiles_8hh.html" target="_top" xlink:title=" ">
<polygon fill="white" stroke="#666666" points="1452.36,-166.12 1309.61,-166.12 1309.61,-145.38 1452.36,-145.38 1452.36,-166.12"/>
<text text-anchor="middle" x="1380.98" y="-152.62" font-family="Helvetica,sans-Serif" font-size="10.00">lix/libcmd/cmd&#45;profiles.hh</text>
</a>
</g>
</g>
<!-- Node3&#45;&gt;Node4 -->
<g id="edge3_Node000003_Node000004" class="edge">
<title>Node3&#45;&gt;Node4</title>
<g id="a_edge3_Node000003_Node000004"><a xlink:title=" ">
<path fill="none" stroke="#63b8ff" d="M1038.67,-284.77C1124.28,-280.29 1271.08,-268.86 1316.98,-242 1347.81,-223.96 1368.53,-184.67 1376.86,-166.42"/>
<polygon fill="#63b8ff" stroke="#63b8ff" points="1038.58,-281.27 1028.77,-285.27 1038.94,-288.26 1038.58,-281.27"/>
</a>
</g>
</g>
<!-- Node5 -->
<g id="Node000005" class="node">
<title>Node5</title>
<g id="a_Node000005"><a xlink:href="common-eval-args_8hh.html" target="_top" xlink:title=" ">
<polygon fill="white" stroke="#666666" points="150.23,-172.5 15.73,-172.5 15.73,-139 150.23,-139 150.23,-172.5"/>
<text text-anchor="start" x="23.73" y="-159" font-family="Helvetica,sans-Serif" font-size="10.00">lix/libcmd/common&#45;eval</text>
<text text-anchor="middle" x="82.98" y="-146.25" font-family="Helvetica,sans-Serif" font-size="10.00">&#45;args.hh</text>
</a>
</g>
</g>
<!-- Node3&#45;&gt;Node5 -->
<g id="edge4_Node000003_Node000005" class="edge">
<title>Node3&#45;&gt;Node5</title>
<g id="a_edge4_Node000003_Node000005"><a xlink:title=" ">
<path fill="none" stroke="#63b8ff" d="M911.57,-286.18C715.73,-282.23 131.72,-268.27 100.98,-242 81.21,-225.09 79.88,-192.42 81.14,-172.8"/>
<polygon fill="#63b8ff" stroke="#63b8ff" points="911.23,-289.68 921.3,-286.38 911.37,-282.68 911.23,-289.68"/>
</a>
</g>
</g>
<!-- Node7 -->
<g id="Node000007" class="node">
<title>Node7</title>
<g id="a_Node000007"><a xlink:href="installable-attr-path_8hh.html" target="_top" xlink:title=" ">
<polygon fill="white" stroke="#666666" points="218.98,-33.5 100.98,-33.5 100.98,0 218.98,0 218.98,-33.5"/>
<text text-anchor="start" x="108.98" y="-20" font-family="Helvetica,sans-Serif" font-size="10.00">lix/libcmd/installable</text>
<text text-anchor="middle" x="159.98" y="-7.25" font-family="Helvetica,sans-Serif" font-size="10.00">&#45;attr&#45;path.hh</text>
</a>
</g>
</g>
<!-- Node3&#45;&gt;Node7 -->
<g id="edge9_Node000003_Node000007" class="edge">
<title>Node3&#45;&gt;Node7</title>
<g id="a_edge9_Node000003_Node000007"><a xlink:title=" ">
<path fill="none" stroke="#63b8ff" d="M911.58,-286.7C720.04,-284.31 155.76,-274.55 79.98,-242 28.43,-219.85 -17.44,-189.52 6.98,-139 31.25,-88.81 87.5,-53.05 124.62,-33.91"/>
<polygon fill="#63b8ff" stroke="#63b8ff" points="911.29,-290.2 921.34,-286.82 911.38,-283.2 911.29,-290.2"/>
</a>
</g>
</g>
<!-- Node9 -->
<g id="Node000009" class="node">
<title>Node9</title>
<g id="a_Node000009"><a xlink:href="installable-flake_8hh.html" target="_top" xlink:title=" ">
<polygon fill="white" stroke="#666666" points="592.98,-103 474.98,-103 474.98,-69.5 592.98,-69.5 592.98,-103"/>
<text text-anchor="start" x="482.98" y="-89.5" font-family="Helvetica,sans-Serif" font-size="10.00">lix/libcmd/installable</text>
<text text-anchor="middle" x="533.98" y="-76.75" font-family="Helvetica,sans-Serif" font-size="10.00">&#45;flake.hh</text>
</a>
</g>
</g>
<!-- Node3&#45;&gt;Node9 -->
<g id="edge10_Node000003_Node000009" class="edge">
<title>Node3&#45;&gt;Node9</title>
<g id="a_edge10_Node000003_Node000009"><a xlink:title=" ">
<path fill="none" stroke="#63b8ff" d="M911.54,-285.99C825.97,-282.94 679.39,-273.19 636.98,-242 596.29,-212.08 618.57,-179.93 588.98,-139 579.3,-125.61 565.83,-112.87 554.64,-103.37"/>
<polygon fill="#63b8ff" stroke="#63b8ff" points="911.31,-289.48 921.43,-286.32 911.55,-282.49 911.31,-289.48"/>
</a>
</g>
</g>
<!-- Node10 -->
<g id="Node000010" class="node">
<title>Node10</title>
<g id="a_Node000010"><a xlink:href="installable-value_8hh.html" target="_top" xlink:title=" ">
<polygon fill="white" stroke="#666666" points="422.98,-172.5 304.98,-172.5 304.98,-139 422.98,-139 422.98,-172.5"/>
<text text-anchor="start" x="312.98" y="-159" font-family="Helvetica,sans-Serif" font-size="10.00">lix/libcmd/installable</text>
<text text-anchor="middle" x="363.98" y="-146.25" font-family="Helvetica,sans-Serif" font-size="10.00">&#45;value.hh</text>
</a>
</g>
</g>
<!-- Node3&#45;&gt;Node10 -->
<g id="edge11_Node000003_Node000010" class="edge">
<title>Node3&#45;&gt;Node10</title>
<g id="a_edge11_Node000003_Node000010"><a xlink:title=" ">
<path fill="none" stroke="#63b8ff" d="M911.72,-287.97C750.63,-288.81 334.72,-286.61 292.98,-242 271.4,-218.93 306.61,-190.43 334.7,-172.93"/>
<polygon fill="#63b8ff" stroke="#63b8ff" points="911.37,-291.47 921.35,-287.91 911.33,-284.47 911.37,-291.47"/>
</a>
</g>
</g>
<!-- Node11 -->
<g id="Node000011" class="node">
<title>Node11</title>
<g id="a_Node000011"><a xlink:href="installables_8hh.html" target="_top" xlink:title=" ">
<polygon fill="white" stroke="#666666" points="590.11,-235.62 451.86,-235.62 451.86,-214.88 590.11,-214.88 590.11,-235.62"/>
<text text-anchor="middle" x="520.98" y="-222.12" font-family="Helvetica,sans-Serif" font-size="10.00">lix/libcmd/installables.hh</text>
</a>
</g>
</g>
<!-- Node3&#45;&gt;Node11 -->
<g id="edge15_Node000003_Node000011" class="edge">
<title>Node3&#45;&gt;Node11</title>
<g id="a_edge15_Node000003_Node000011"><a xlink:title=" ">
<path fill="none" stroke="#63b8ff" d="M911.18,-280.86C837.12,-273 711.4,-258.74 603.98,-242 592.97,-240.28 581.18,-238.2 570.04,-236.11"/>
<polygon fill="#63b8ff" stroke="#63b8ff" points="910.79,-284.34 921.1,-281.91 911.52,-277.38 910.79,-284.34"/>
</a>
</g>
</g>
<!-- Node13 -->
<g id="Node000013" class="node">
<title>Node13</title>
<g id="a_Node000013"><a xlink:href="libcmd_2repl_8hh.html" target="_top" xlink:title=" ">
<polygon fill="white" stroke="#666666" points="746.36,-235.62 645.61,-235.62 645.61,-214.88 746.36,-214.88 746.36,-235.62"/>
<text text-anchor="middle" x="695.98" y="-222.12" font-family="Helvetica,sans-Serif" font-size="10.00">lix/libcmd/repl.hh</text>
</a>
</g>
</g>
<!-- Node3&#45;&gt;Node13 -->
<g id="edge18_Node000003_Node000013" class="edge">
<title>Node3&#45;&gt;Node13</title>
<g id="a_edge18_Node000003_Node000013"><a xlink:title=" ">
<path fill="none" stroke="#63b8ff" d="M912.1,-275.4C867.98,-266.76 807.7,-254.46 754.98,-242 747.35,-240.2 739.2,-238.12 731.47,-236.08"/>
<polygon fill="#63b8ff" stroke="#63b8ff" points="911.26,-278.81 921.75,-277.28 912.6,-271.93 911.26,-278.81"/>
</a>
</g>
</g>
<!-- Node14 -->
<g id="Node000014" class="node">
<title>Node14</title>
<g id="a_Node000014"><a xlink:href="attr-path_8hh.html" target="_top" xlink:title=" ">
<polygon fill="white" stroke="#666666" points="889.73,-235.62 764.23,-235.62 764.23,-214.88 889.73,-214.88 889.73,-235.62"/>
<text text-anchor="middle" x="826.98" y="-222.12" font-family="Helvetica,sans-Serif" font-size="10.00">lix/libexpr/attr&#45;path.hh</text>
</a>
</g>
</g>
<!-- Node3&#45;&gt;Node14 -->
<g id="edge19_Node000003_Node000014" class="edge">
<title>Node3&#45;&gt;Node14</title>
<g id="a_edge19_Node000003_Node000014"><a xlink:title=" ">
<path fill="none" stroke="#63b8ff" d="M940.82,-273.27C913.21,-261.86 875.06,-246.11 850.7,-236.05"/>
<polygon fill="#63b8ff" stroke="#63b8ff" points="939.23,-276.39 949.8,-276.98 941.9,-269.92 939.23,-276.39"/>
</a>
</g>
</g>
<!-- Node15 -->
<g id="Node000015" class="node">
<title>Node15</title>
<g id="a_Node000015"><a xlink:href="eval-cache_8hh.html" target="_top" xlink:title=" ">
<polygon fill="white" stroke="#666666" points="245.98,-235.62 109.98,-235.62 109.98,-214.88 245.98,-214.88 245.98,-235.62"/>
<text text-anchor="middle" x="177.98" y="-222.12" font-family="Helvetica,sans-Serif" font-size="10.00">lix/libexpr/eval&#45;cache.hh</text>
</a>
</g>
</g>
<!-- Node3&#45;&gt;Node15 -->
<g id="edge20_Node000003_Node000015" class="edge">
<title>Node3&#45;&gt;Node15</title>
<g id="a_edge20_Node000003_Node000015"><a xlink:title=" ">
<path fill="none" stroke="#63b8ff" d="M911.5,-286.04C786.38,-282.81 499.28,-272.45 259.98,-242 248.19,-240.5 235.54,-238.34 223.79,-236.11"/>
<polygon fill="#63b8ff" stroke="#63b8ff" points="911.14,-289.53 921.22,-286.28 911.31,-282.53 911.14,-289.53"/>
</a>
</g>
</g>
<!-- Node16 -->
<g id="Node000016" class="node">
<title>Node16</title>
<g id="a_Node000016"><a xlink:href="eval-inline_8hh.html" target="_top" xlink:title=" ">
<polygon fill="white" stroke="#666666" points="1042.23,-235.62 907.73,-235.62 907.73,-214.88 1042.23,-214.88 1042.23,-235.62"/>
<text text-anchor="middle" x="974.98" y="-222.12" font-family="Helvetica,sans-Serif" font-size="10.00">lix/libexpr/eval&#45;inline.hh</text>
</a>
</g>
</g>
<!-- Node3&#45;&gt;Node16 -->
<g id="edge24_Node000003_Node000016" class="edge">
<title>Node3&#45;&gt;Node16</title>
<g id="a_edge24_Node000003_Node000016"><a xlink:title=" ">
<path fill="none" stroke="#63b8ff" d="M968.54,-266.45C967.86,-256.06 968.31,-244.02 969.91,-235.84"/>
<polygon fill="#63b8ff" stroke="#63b8ff" points="965.03,-266.54 969.69,-276.05 971.98,-265.71 965.03,-266.54"/>
</a>
</g>
</g>
<!-- Node17 -->
<g id="Node000017" class="node">
<title>Node17</title>
<g id="a_Node000017"><a xlink:href="libexpr_2flake_2flake_8hh.html" target="_top" xlink:title=" ">
<polygon fill="white" stroke="#666666" points="434.11,-235.62 301.86,-235.62 301.86,-214.88 434.11,-214.88 434.11,-235.62"/>
<text text-anchor="middle" x="367.98" y="-222.12" font-family="Helvetica,sans-Serif" font-size="10.00">lix/libexpr/flake/flake.hh</text>
</a>
</g>
</g>
<!-- Node3&#45;&gt;Node17 -->
<g id="edge26_Node000003_Node000017" class="edge">
<title>Node3&#45;&gt;Node17</title>
<g id="a_edge26_Node000003_Node000017"><a xlink:title=" ">
<path fill="none" stroke="#63b8ff" d="M911.22,-284.45C811.08,-279.3 611.04,-266.72 442.98,-242 432.32,-240.43 420.9,-238.28 410.26,-236.07"/>
<polygon fill="#63b8ff" stroke="#63b8ff" points="910.96,-287.94 921.12,-284.95 911.31,-280.95 910.96,-287.94"/>
</a>
</g>
</g>
<!-- Node18 -->
<g id="Node000018" class="node">
<title>Node18</title>
<g id="a_Node000018"><a xlink:href="function-trace_8hh.html" target="_top" xlink:title=" ">
<polygon fill="white" stroke="#666666" points="1167.73,-242 1060.23,-242 1060.23,-208.5 1167.73,-208.5 1167.73,-242"/>
<text text-anchor="start" x="1068.23" y="-228.5" font-family="Helvetica,sans-Serif" font-size="10.00">lix/libexpr/function</text>
<text text-anchor="middle" x="1113.98" y="-215.75" font-family="Helvetica,sans-Serif" font-size="10.00">&#45;trace.hh</text>
</a>
</g>
</g>
<!-- Node3&#45;&gt;Node18 -->
<g id="edge28_Node000003_Node000018" class="edge">
<title>Node3&#45;&gt;Node18</title>
<g id="a_edge28_Node000003_Node000018"><a xlink:title=" ">
<path fill="none" stroke="#63b8ff" d="M1007.57,-273.04C1028.4,-263.89 1055.45,-251.99 1077.06,-242.48"/>
<polygon fill="#63b8ff" stroke="#63b8ff" points="1006.45,-269.72 998.7,-276.94 1009.26,-276.12 1006.45,-269.72"/>
</a>
</g>
</g>
<!-- Node19 -->
<g id="Node000019" class="node">
<title>Node19</title>
<g id="a_Node000019"><a xlink:href="get-drvs_8hh.html" target="_top" xlink:title=" ">
<polygon fill="white" stroke="#666666" points="1487.61,-235.62 1364.36,-235.62 1364.36,-214.88 1487.61,-214.88 1487.61,-235.62"/>
<text text-anchor="middle" x="1425.98" y="-222.12" font-family="Helvetica,sans-Serif" font-size="10.00">lix/libexpr/get&#45;drvs.hh</text>
</a>
</g>
</g>
<!-- Node3&#45;&gt;Node19 -->
<g id="edge29_Node000003_Node000019" class="edge">
<title>Node3&#45;&gt;Node19</title>
<g id="a_edge29_Node000003_Node000019"><a xlink:title=" ">
<path fill="none" stroke="#63b8ff" d="M1038.43,-281.34C1113.19,-273.85 1241.03,-259.85 1349.98,-242 1360.22,-240.32 1371.18,-238.23 1381.49,-236.12"/>
<polygon fill="#63b8ff" stroke="#63b8ff" points="1038.46,-277.82 1028.86,-282.29 1039.15,-284.78 1038.46,-277.82"/>
</a>
</g>
</g>
<!-- Node20 -->
<g id="Node000020" class="node">
<title>Node20</title>
<g id="a_Node000020"><a xlink:href="primops_8hh.html" target="_top" xlink:title=" ">
<polygon fill="white" stroke="#666666" points="1308.23,-235.62 1185.73,-235.62 1185.73,-214.88 1308.23,-214.88 1308.23,-235.62"/>
<text text-anchor="middle" x="1246.98" y="-222.12" font-family="Helvetica,sans-Serif" font-size="10.00">lix/libexpr/primops.hh</text>
</a>
</g>
</g>
<!-- Node3&#45;&gt;Node20 -->
<g id="edge31_Node000003_Node000020" class="edge">
<title>Node3&#45;&gt;Node20</title>
<g id="a_edge31_Node000003_Node000020"><a xlink:title=" ">
<path fill="none" stroke="#63b8ff" d="M1029.74,-275.08C1070.37,-265.96 1127.14,-253.21 1176.98,-242 1185.49,-240.09 1194.58,-238.04 1203.29,-236.08"/>
<polygon fill="#63b8ff" stroke="#63b8ff" points="1029.19,-271.62 1020.2,-277.22 1030.72,-278.45 1029.19,-271.62"/>
</a>
</g>
</g>
<!-- Node3&#45;&gt;Node21 -->
<g id="edge32_Node000003_Node000021" class="edge">
<title>Node3&#45;&gt;Node21</title>
<g id="a_edge32_Node000003_Node000021"><a xlink:title=" ">
<path fill="none" stroke="#63b8ff" d="M1038.44,-285.1C1137.11,-280.83 1333.01,-269.45 1496.98,-242 1499.76,-241.53 1502.6,-241.01 1505.46,-240.44"/>
<polygon fill="#63b8ff" stroke="#63b8ff" points="1038.54,-281.59 1028.7,-285.51 1038.84,-288.58 1038.54,-281.59"/>
</a>
</g>
</g>
<!-- Node3&#45;&gt;Node22 -->
<g id="edge33_Node000003_Node000022" class="edge">
<title>Node3&#45;&gt;Node22</title>
<g id="a_edge33_Node000003_Node000022"><a xlink:title=" ">
<path fill="none" stroke="#63b8ff" d="M1038.5,-286.61C1155.04,-284.38 1410.58,-275.72 1622.98,-242 1625.77,-241.56 1628.61,-241.05 1631.47,-240.5"/>
<polygon fill="#63b8ff" stroke="#63b8ff" points="1038.44,-283.11 1028.5,-286.79 1038.56,-290.11 1038.44,-283.11"/>
</a>
</g>
</g>
<!-- Node6 -->
<g id="Node000006" class="node">
<title>Node6</title>
<g id="a_Node000006"><a xlink:href="command_8hh.html" target="_top" xlink:title=" ">
<polygon fill="white" stroke="#666666" points="336.36,-96.62 205.61,-96.62 205.61,-75.88 336.36,-75.88 336.36,-96.62"/>
<text text-anchor="middle" x="270.98" y="-83.12" font-family="Helvetica,sans-Serif" font-size="10.00">lix/libcmd/command.hh</text>
</a>
</g>
</g>
<!-- Node5&#45;&gt;Node6 -->
<g id="edge5_Node000005_Node000006" class="edge">
<title>Node5&#45;&gt;Node6</title>
<g id="a_edge5_Node000005_Node000006"><a xlink:title=" ">
<path fill="none" stroke="#63b8ff" d="M138.45,-134.84C173.03,-122.42 216.03,-106.98 243.49,-97.12"/>
<polygon fill="#63b8ff" stroke="#63b8ff" points="137.67,-131.4 129.44,-138.07 140.03,-137.99 137.67,-131.4"/>
</a>
</g>
</g>
<!-- Node5&#45;&gt;Node7 -->
<g id="edge8_Node000005_Node000007" class="edge">
<title>Node5&#45;&gt;Node7</title>
<g id="a_edge8_Node000005_Node000007"><a xlink:title=" ">
<path fill="none" stroke="#63b8ff" d="M97.53,-128.87C113.29,-100.83 137.93,-56.98 151.06,-33.63"/>
<polygon fill="#63b8ff" stroke="#63b8ff" points="94.56,-127.01 92.71,-137.45 100.66,-130.44 94.56,-127.01"/>
</a>
</g>
</g>
<!-- Node6&#45;&gt;Node7 -->
<g id="edge6_Node000006_Node000007" class="edge">
<title>Node6&#45;&gt;Node7</title>
<g id="a_edge6_Node000006_Node000007"><a xlink:title=" ">
<path fill="none" stroke="#63b8ff" d="M245.45,-69.72C227.82,-59 204.43,-44.78 186.57,-33.92"/>
<polygon fill="#63b8ff" stroke="#63b8ff" points="243.42,-72.59 253.79,-74.79 247.06,-66.61 243.42,-72.59"/>
</a>
</g>
</g>
<!-- Node8 -->
<g id="Node000008" class="node">
<title>Node8</title>
<g id="a_Node000008"><a xlink:href="nix_2daemon_8cc.html" target="_top" xlink:title=" ">
<polygon fill="white" stroke="#666666" points="339.11,-27.12 236.86,-27.12 236.86,-6.38 339.11,-6.38 339.11,-27.12"/>
<text text-anchor="middle" x="287.98" y="-13.62" font-family="Helvetica,sans-Serif" font-size="10.00">lix/nix/daemon.cc</text>
</a>
</g>
</g>
<!-- Node6&#45;&gt;Node8 -->
<g id="edge7_Node000006_Node000008" class="edge">
<title>Node6&#45;&gt;Node8</title>
<g id="a_edge7_Node000006_Node000008"><a xlink:title=" ">
<path fill="none" stroke="#63b8ff" d="M276.22,-64.44C279.33,-52.09 283.13,-37.02 285.55,-27.4"/>
<polygon fill="#63b8ff" stroke="#63b8ff" points="272.84,-63.56 273.79,-74.11 279.62,-65.27 272.84,-63.56"/>
</a>
</g>
</g>
<!-- Node10&#45;&gt;Node6 -->
<g id="edge12_Node000010_Node000006" class="edge">
<title>Node10&#45;&gt;Node6</title>
<g id="a_edge12_Node000010_Node000006"><a xlink:title=" ">
<path fill="none" stroke="#63b8ff" d="M332.7,-132.04C316.31,-120.15 297.1,-106.2 284.51,-97.07"/>
<polygon fill="#63b8ff" stroke="#63b8ff" points="330.57,-134.82 340.72,-137.86 334.68,-129.16 330.57,-134.82"/>
</a>
</g>
</g>
<!-- Node10&#45;&gt;Node7 -->
<g id="edge13_Node000010_Node000007" class="edge">
<title>Node10&#45;&gt;Node7</title>
<g id="a_edge13_Node000010_Node000007"><a xlink:title=" ">
<path fill="none" stroke="#63b8ff" d="M364.8,-127.37C363.87,-108.77 359.53,-84.85 344.98,-69.5 340.47,-64.73 271.48,-46.24 219.06,-32.72"/>
<polygon fill="#63b8ff" stroke="#63b8ff" points="361.3,-127.23 364.97,-137.17 368.3,-127.11 361.3,-127.23"/>
</a>
</g>
</g>
<!-- Node10&#45;&gt;Node9 -->
<g id="edge14_Node000010_Node000009" class="edge">
<title>Node10&#45;&gt;Node9</title>
<g id="a_edge14_Node000010_Node000009"><a xlink:title=" ">
<path fill="none" stroke="#63b8ff" d="M415.11,-134.45C440.13,-124.51 469.84,-112.72 493.3,-103.4"/>
<polygon fill="#63b8ff" stroke="#63b8ff" points="414.11,-131.08 406.11,-138.02 416.69,-137.59 414.11,-131.08"/>
</a>
</g>
</g>
<!-- Node11&#45;&gt;Node10 -->
<g id="edge17_Node000011_Node000010" class="edge">
<title>Node11&#45;&gt;Node10</title>
<g id="a_edge17_Node000011_Node000010"><a xlink:title=" ">
<path fill="none" stroke="#63b8ff" d="M487.65,-209.92C462.48,-199.1 427.92,-184.24 401.73,-172.98"/>
<polygon fill="#63b8ff" stroke="#63b8ff" points="486.19,-213.1 496.76,-213.84 488.96,-206.67 486.19,-213.1"/>
</a>
</g>
</g>
<!-- Node12 -->
<g id="Node000012" class="node">
<title>Node12</title>
<g id="a_Node000012"><a xlink:href="installable-derived-path_8hh.html" target="_top" xlink:title=" ">
<polygon fill="white" stroke="#666666" points="579.98,-172.5 461.98,-172.5 461.98,-139 579.98,-139 579.98,-172.5"/>
<text text-anchor="start" x="469.98" y="-159" font-family="Helvetica,sans-Serif" font-size="10.00">lix/libcmd/installable</text>
<text text-anchor="middle" x="520.98" y="-146.25" font-family="Helvetica,sans-Serif" font-size="10.00">&#45;derived&#45;path.hh</text>
</a>
</g>
</g>
<!-- Node11&#45;&gt;Node12 -->
<g id="edge16_Node000011_Node000012" class="edge">
<title>Node11&#45;&gt;Node12</title>
<g id="a_edge16_Node000011_Node000012"><a xlink:title=" ">
<path fill="none" stroke="#63b8ff" d="M520.98,-203.38C520.98,-193.57 520.98,-182.05 520.98,-172.92"/>
<polygon fill="#63b8ff" stroke="#63b8ff" points="517.48,-203.07 520.98,-213.07 524.48,-203.07 517.48,-203.07"/>
</a>
</g>
</g>
<!-- Node15&#45;&gt;Node6 -->
<g id="edge21_Node000015_Node000006" class="edge">
<title>Node15&#45;&gt;Node6</title>
<g id="a_edge21_Node000015_Node000006"><a xlink:title=" ">
<path fill="none" stroke="#63b8ff" d="M190.98,-205.11C211.1,-175.47 249.06,-119.54 264.35,-97.01"/>
<polygon fill="#63b8ff" stroke="#63b8ff" points="188.24,-202.91 185.52,-213.15 194.03,-206.84 188.24,-202.91"/>
</a>
</g>
</g>
<!-- Node15&#45;&gt;Node7 -->
<g id="edge22_Node000015_Node000007" class="edge">
<title>Node15&#45;&gt;Node7</title>
<g id="a_edge22_Node000015_Node000007"><a xlink:title=" ">
<path fill="none" stroke="#63b8ff" d="M176.15,-203.24C172.55,-161.92 164.61,-70.89 161.39,-33.88"/>
<polygon fill="#63b8ff" stroke="#63b8ff" points="172.65,-203.4 177.01,-213.06 179.63,-202.79 172.65,-203.4"/>
</a>
</g>
</g>
<!-- Node15&#45;&gt;Node10 -->
<g id="edge23_Node000015_Node000010" class="edge">
<title>Node15&#45;&gt;Node10</title>
<g id="a_edge23_Node000015_Node000010"><a xlink:title=" ">
<path fill="none" stroke="#63b8ff" d="M215.48,-210.64C245.45,-199.77 287.54,-184.49 319.27,-172.98"/>
<polygon fill="#63b8ff" stroke="#63b8ff" points="214.66,-207.22 206.45,-213.92 217.05,-213.8 214.66,-207.22"/>
</a>
</g>
</g>
<!-- Node16&#45;&gt;Node3 -->
<g id="edge25_Node000016_Node000003" class="edge">
<title>Node16&#45;&gt;Node3</title>
<g id="a_edge25_Node000016_Node000003"><a xlink:title=" ">
<path fill="none" stroke="#63b8ff" d="M981.43,-247.23C982.1,-257.51 981.66,-269.4 980.1,-277.55"/>
<polygon fill="#63b8ff" stroke="#63b8ff" points="984.91,-246.86 980.23,-237.35 977.96,-247.7 984.91,-246.86"/>
</a>
</g>
</g>
<!-- Node17&#45;&gt;Node10 -->
<g id="edge27_Node000017_Node000010" class="edge">
<title>Node17&#45;&gt;Node10</title>
<g id="a_edge27_Node000017_Node000010"><a xlink:title=" ">
<path fill="none" stroke="#63b8ff" d="M366.75,-203.38C366.16,-193.57 365.48,-182.05 364.94,-172.92"/>
<polygon fill="#63b8ff" stroke="#63b8ff" points="363.23,-203.29 367.32,-213.07 370.22,-202.88 363.23,-203.29"/>
</a>
</g>
</g>
<!-- Node19&#45;&gt;Node4 -->
<g id="edge30_Node000019_Node000004" class="edge">
<title>Node19&#45;&gt;Node4</title>
<g id="a_edge30_Node000019_Node000004"><a xlink:title=" ">
<path fill="none" stroke="#63b8ff" d="M1413.38,-205.35C1404.93,-192.68 1394.16,-176.52 1387.42,-166.4"/>
<polygon fill="#63b8ff" stroke="#63b8ff" points="1410.24,-206.94 1418.7,-213.32 1416.06,-203.06 1410.24,-206.94"/>
</a>
</g>
</g>
</g>
</svg>
