<?xml version="1.0" encoding="UTF-8" standalone="no"?>
<!DOCTYPE svg PUBLIC "-//W3C//DTD SVG 1.1//EN"
 "http://www.w3.org/Graphics/SVG/1.1/DTD/svg11.dtd">
<!-- Generated by graphviz version 12.2.1 (0)
 -->
<!-- Title: lix/libutil/print&#45;elided.hh Pages: 1 -->
<svg width="1574pt" height="477pt"
 viewBox="0.00 0.00 1573.75 477.00" xmlns="http://www.w3.org/2000/svg" xmlns:xlink="http://www.w3.org/1999/xlink">
<g id="graph0" class="graph" transform="scale(1 1) rotate(0) translate(4 473)">
<title>lix/libutil/print&#45;elided.hh</title>
<!-- Node1 -->
<g id="Node000001" class="node">
<title>Node1</title>
<g id="a_Node000001"><a xlink:title=" ">
<polygon fill="#999999" stroke="#666666" points="745.12,-469 612.12,-469 612.12,-448.25 745.12,-448.25 745.12,-469"/>
<text text-anchor="middle" x="678.62" y="-455.5" font-family="Helvetica,sans-Serif" font-size="10.00">lix/libutil/print&#45;elided.hh</text>
</a>
</g>
</g>
<!-- Node2 -->
<g id="Node000002" class="node">
<title>Node2</title>
<g id="a_Node000002"><a xlink:href="print_8hh.html" target="_top" xlink:title="Common printing functions for the Nix language.">
<polygon fill="white" stroke="#666666" points="731.25,-412.25 626,-412.25 626,-391.5 731.25,-391.5 731.25,-412.25"/>
<text text-anchor="middle" x="678.62" y="-398.75" font-family="Helvetica,sans-Serif" font-size="10.00">lix/libexpr/print.hh</text>
</a>
</g>
</g>
<!-- Node1&#45;&gt;Node2 -->
<g id="edge1_Node000001_Node000002" class="edge">
<title>Node1&#45;&gt;Node2</title>
<g id="a_edge1_Node000001_Node000002"><a xlink:title=" ">
<path fill="none" stroke="#63b8ff" d="M678.62,-436.38C678.62,-428.16 678.62,-419.18 678.62,-412.58"/>
<polygon fill="#63b8ff" stroke="#63b8ff" points="675.13,-436.32 678.63,-446.32 682.13,-436.32 675.13,-436.32"/>
</a>
</g>
</g>
<!-- Node3 -->
<g id="Node000003" class="node">
<title>Node3</title>
<g id="a_Node000003"><a xlink:href="eval-inline_8hh.html" target="_top" xlink:title=" ">
<polygon fill="white" stroke="#666666" points="745.88,-355.5 611.38,-355.5 611.38,-334.75 745.88,-334.75 745.88,-355.5"/>
<text text-anchor="middle" x="678.62" y="-342" font-family="Helvetica,sans-Serif" font-size="10.00">lix/libexpr/eval&#45;inline.hh</text>
</a>
</g>
</g>
<!-- Node2&#45;&gt;Node3 -->
<g id="edge2_Node000002_Node000003" class="edge">
<title>Node2&#45;&gt;Node3</title>
<g id="a_edge2_Node000002_Node000003"><a xlink:title=" ">
<path fill="none" stroke="#63b8ff" d="M678.62,-379.63C678.62,-371.41 678.62,-362.43 678.62,-355.83"/>
<polygon fill="#63b8ff" stroke="#63b8ff" points="675.13,-379.57 678.63,-389.57 682.13,-379.57 675.13,-379.57"/>
</a>
</g>
</g>
<!-- Node4 -->
<g id="Node000004" class="node">
<title>Node4</title>
<g id="a_Node000004"><a xlink:href="libexpr_2eval_8hh.html" target="_top" xlink:title=" ">
<polygon fill="white" stroke="#666666" points="730.5,-298.75 626.75,-298.75 626.75,-278 730.5,-278 730.5,-298.75"/>
<text text-anchor="middle" x="678.62" y="-285.25" font-family="Helvetica,sans-Serif" font-size="10.00">lix/libexpr/eval.hh</text>
</a>
</g>
</g>
<!-- Node3&#45;&gt;Node4 -->
<g id="edge3_Node000003_Node000004" class="edge">
<title>Node3&#45;&gt;Node4</title>
<g id="a_edge3_Node000003_Node000004"><a xlink:title=" ">
<path fill="none" stroke="#63b8ff" d="M672.04,-323.17C671.6,-314.88 672.03,-305.75 673.33,-299.08"/>
<polygon fill="#63b8ff" stroke="#63b8ff" points="668.53,-323.29 673.14,-332.83 675.49,-322.5 668.53,-323.29"/>
</a>
</g>
</g>
<!-- Node4&#45;&gt;Node3 -->
<g id="edge25_Node000004_Node000003" class="edge">
<title>Node4&#45;&gt;Node3</title>
<g id="a_edge25_Node000004_Node000003"><a xlink:title=" ">
<path fill="none" stroke="#63b8ff" d="M685.22,-310.52C685.64,-318.72 685.21,-327.72 683.94,-334.34"/>
<polygon fill="#63b8ff" stroke="#63b8ff" points="688.7,-310.13 684.09,-300.58 681.74,-310.91 688.7,-310.13"/>
</a>
</g>
</g>
<!-- Node5 -->
<g id="Node000005" class="node">
<title>Node5</title>
<g id="a_Node000005"><a xlink:href="cmd-profiles_8hh.html" target="_top" xlink:title=" ">
<polygon fill="white" stroke="#666666" points="148,-166.12 5.25,-166.12 5.25,-145.38 148,-145.38 148,-166.12"/>
<text text-anchor="middle" x="76.62" y="-152.62" font-family="Helvetica,sans-Serif" font-size="10.00">lix/libcmd/cmd&#45;profiles.hh</text>
</a>
</g>
</g>
<!-- Node4&#45;&gt;Node5 -->
<g id="edge4_Node000004_Node000005" class="edge">
<title>Node4&#45;&gt;Node5</title>
<g id="a_edge4_Node000004_Node000005"><a xlink:title=" ">
<path fill="none" stroke="#63b8ff" d="M615.2,-286.45C498.2,-283.96 253.28,-274.87 175.62,-242 165.18,-237.58 110.63,-188.03 87.27,-166.57"/>
<polygon fill="#63b8ff" stroke="#63b8ff" points="614.87,-289.94 624.93,-286.65 615.01,-282.95 614.87,-289.94"/>
</a>
</g>
</g>
<!-- Node6 -->
<g id="Node000006" class="node">
<title>Node6</title>
<g id="a_Node000006"><a xlink:href="common-eval-args_8hh.html" target="_top" xlink:title=" ">
<polygon fill="white" stroke="#666666" points="351.88,-172.5 217.38,-172.5 217.38,-139 351.88,-139 351.88,-172.5"/>
<text text-anchor="start" x="225.38" y="-159" font-family="Helvetica,sans-Serif" font-size="10.00">lix/libcmd/common&#45;eval</text>
<text text-anchor="middle" x="284.62" y="-146.25" font-family="Helvetica,sans-Serif" font-size="10.00">&#45;args.hh</text>
</a>
</g>
</g>
<!-- Node4&#45;&gt;Node6 -->
<g id="edge5_Node000004_Node000006" class="edge">
<title>Node4&#45;&gt;Node6</title>
<g id="a_edge5_Node000004_Node000006"><a xlink:title=" ">
<path fill="none" stroke="#63b8ff" d="M615.23,-285.11C503.72,-280.46 281.99,-268.02 258.62,-242 241.16,-222.54 258.08,-191.62 271.6,-172.85"/>
<polygon fill="#63b8ff" stroke="#63b8ff" points="615,-288.6 625.13,-285.51 615.28,-281.61 615,-288.6"/>
</a>
</g>
</g>
<!-- Node8 -->
<g id="Node000008" class="node">
<title>Node8</title>
<g id="a_Node000008"><a xlink:href="installable-attr-path_8hh.html" target="_top" xlink:title=" ">
<polygon fill="white" stroke="#666666" points="411.62,-33.5 293.62,-33.5 293.62,0 411.62,0 411.62,-33.5"/>
<text text-anchor="start" x="301.62" y="-20" font-family="Helvetica,sans-Serif" font-size="10.00">lix/libcmd/installable</text>
<text text-anchor="middle" x="352.62" y="-7.25" font-family="Helvetica,sans-Serif" font-size="10.00">&#45;attr&#45;path.hh</text>
</a>
</g>
</g>
<!-- Node4&#45;&gt;Node8 -->
<g id="edge10_Node000004_Node000008" class="edge">
<title>Node4&#45;&gt;Node8</title>
<g id="a_edge10_Node000004_Node000008"><a xlink:title=" ">
<path fill="none" stroke="#63b8ff" d="M615.17,-287.7C510.3,-287.09 306.53,-280.78 247.62,-242 206.74,-215.09 187.98,-183.38 208.62,-139 231.51,-89.81 285.26,-53.43 320.23,-33.93"/>
<polygon fill="#63b8ff" stroke="#63b8ff" points="615.01,-291.2 625.02,-287.74 615.04,-284.2 615.01,-291.2"/>
</a>
</g>
</g>
<!-- Node10 -->
<g id="Node000010" class="node">
<title>Node10</title>
<g id="a_Node000010"><a xlink:href="installable-flake_8hh.html" target="_top" xlink:title=" ">
<polygon fill="white" stroke="#666666" points="770.62,-103 652.62,-103 652.62,-69.5 770.62,-69.5 770.62,-103"/>
<text text-anchor="start" x="660.62" y="-89.5" font-family="Helvetica,sans-Serif" font-size="10.00">lix/libcmd/installable</text>
<text text-anchor="middle" x="711.62" y="-76.75" font-family="Helvetica,sans-Serif" font-size="10.00">&#45;flake.hh</text>
</a>
</g>
</g>
<!-- Node4&#45;&gt;Node10 -->
<g id="edge11_Node000004_Node000010" class="edge">
<title>Node4&#45;&gt;Node10</title>
<g id="a_edge11_Node000004_Node000010"><a xlink:title=" ">
<path fill="none" stroke="#63b8ff" d="M720.61,-272.95C734.6,-265.91 748.64,-255.88 756.62,-242 764.36,-228.56 759.97,-160.85 751.62,-139 746.52,-125.63 736.75,-112.89 728.14,-103.39"/>
<polygon fill="#63b8ff" stroke="#63b8ff" points="719.54,-269.59 711.9,-276.93 722.45,-275.96 719.54,-269.59"/>
</a>
</g>
</g>
<!-- Node11 -->
<g id="Node000011" class="node">
<title>Node11</title>
<g id="a_Node000011"><a xlink:href="installable-value_8hh.html" target="_top" xlink:title=" ">
<polygon fill="white" stroke="#666666" points="606.62,-172.5 488.62,-172.5 488.62,-139 606.62,-139 606.62,-172.5"/>
<text text-anchor="start" x="496.62" y="-159" font-family="Helvetica,sans-Serif" font-size="10.00">lix/libcmd/installable</text>
<text text-anchor="middle" x="547.62" y="-146.25" font-family="Helvetica,sans-Serif" font-size="10.00">&#45;value.hh</text>
</a>
</g>
</g>
<!-- Node4&#45;&gt;Node11 -->
<g id="edge12_Node000004_Node000011" class="edge">
<title>Node4&#45;&gt;Node11</title>
<g id="a_edge12_Node000004_Node000011"><a xlink:title=" ">
<path fill="none" stroke="#63b8ff" d="M645.18,-272.52C630.39,-264.85 613.47,-254.47 600.62,-242 579.62,-221.6 563.36,-191.26 554.66,-172.81"/>
<polygon fill="#63b8ff" stroke="#63b8ff" points="643.62,-275.65 654.14,-276.94 646.72,-269.38 643.62,-275.65"/>
</a>
</g>
</g>
<!-- Node12 -->
<g id="Node000012" class="node">
<title>Node12</title>
<g id="a_Node000012"><a xlink:href="installables_8hh.html" target="_top" xlink:title=" ">
<polygon fill="white" stroke="#666666" points="747.75,-235.62 609.5,-235.62 609.5,-214.88 747.75,-214.88 747.75,-235.62"/>
<text text-anchor="middle" x="678.62" y="-222.12" font-family="Helvetica,sans-Serif" font-size="10.00">lix/libcmd/installables.hh</text>
</a>
</g>
</g>
<!-- Node4&#45;&gt;Node12 -->
<g id="edge16_Node000004_Node000012" class="edge">
<title>Node4&#45;&gt;Node12</title>
<g id="a_edge16_Node000004_Node000012"><a xlink:title=" ">
<path fill="none" stroke="#63b8ff" d="M678.62,-266.11C678.62,-255.8 678.62,-243.93 678.62,-235.84"/>
<polygon fill="#63b8ff" stroke="#63b8ff" points="675.13,-266.04 678.63,-276.04 682.13,-266.04 675.13,-266.04"/>
</a>
</g>
</g>
<!-- Node14 -->
<g id="Node000014" class="node">
<title>Node14</title>
<g id="a_Node000014"><a xlink:href="libcmd_2repl_8hh.html" target="_top" xlink:title=" ">
<polygon fill="white" stroke="#666666" points="904,-235.62 803.25,-235.62 803.25,-214.88 904,-214.88 904,-235.62"/>
<text text-anchor="middle" x="853.62" y="-222.12" font-family="Helvetica,sans-Serif" font-size="10.00">lix/libcmd/repl.hh</text>
</a>
</g>
</g>
<!-- Node4&#45;&gt;Node14 -->
<g id="edge19_Node000004_Node000014" class="edge">
<title>Node4&#45;&gt;Node14</title>
<g id="a_edge19_Node000004_Node000014"><a xlink:title=" ">
<path fill="none" stroke="#63b8ff" d="M717.29,-273.87C750.06,-262.42 796.26,-246.29 825.58,-236.05"/>
<polygon fill="#63b8ff" stroke="#63b8ff" points="716.46,-270.45 708.17,-277.06 718.77,-277.06 716.46,-270.45"/>
</a>
</g>
</g>
<!-- Node15 -->
<g id="Node000015" class="node">
<title>Node15</title>
<g id="a_Node000015"><a xlink:href="attr-path_8hh.html" target="_top" xlink:title=" ">
<polygon fill="white" stroke="#666666" points="1047.38,-235.62 921.88,-235.62 921.88,-214.88 1047.38,-214.88 1047.38,-235.62"/>
<text text-anchor="middle" x="984.62" y="-222.12" font-family="Helvetica,sans-Serif" font-size="10.00">lix/libexpr/attr&#45;path.hh</text>
</a>
</g>
</g>
<!-- Node4&#45;&gt;Node15 -->
<g id="edge20_Node000004_Node000015" class="edge">
<title>Node4&#45;&gt;Node15</title>
<g id="a_edge20_Node000004_Node000015"><a xlink:title=" ">
<path fill="none" stroke="#63b8ff" d="M742,-275.51C789.12,-266.58 854.97,-253.9 912.62,-242 921.65,-240.14 931.29,-238.08 940.49,-236.08"/>
<polygon fill="#63b8ff" stroke="#63b8ff" points="741.4,-272.06 732.23,-277.36 742.71,-278.94 741.4,-272.06"/>
</a>
</g>
</g>
<!-- Node16 -->
<g id="Node000016" class="node">
<title>Node16</title>
<g id="a_Node000016"><a xlink:href="eval-cache_8hh.html" target="_top" xlink:title=" ">
<polygon fill="white" stroke="#666666" points="403.62,-235.62 267.62,-235.62 267.62,-214.88 403.62,-214.88 403.62,-235.62"/>
<text text-anchor="middle" x="335.62" y="-222.12" font-family="Helvetica,sans-Serif" font-size="10.00">lix/libexpr/eval&#45;cache.hh</text>
</a>
</g>
</g>
<!-- Node4&#45;&gt;Node16 -->
<g id="edge21_Node000004_Node000016" class="edge">
<title>Node4&#45;&gt;Node16</title>
<g id="a_edge21_Node000004_Node000016"><a xlink:title=" ">
<path fill="none" stroke="#63b8ff" d="M615.18,-277.15C561.23,-268.32 481.73,-254.96 412.62,-242 402.83,-240.16 392.37,-238.09 382.4,-236.07"/>
<polygon fill="#63b8ff" stroke="#63b8ff" points="614.37,-280.57 624.8,-278.72 615.5,-273.66 614.37,-280.57"/>
</a>
</g>
</g>
<!-- Node17 -->
<g id="Node000017" class="node">
<title>Node17</title>
<g id="a_Node000017"><a xlink:href="libexpr_2flake_2flake_8hh.html" target="_top" xlink:title=" ">
<polygon fill="white" stroke="#666666" points="553.75,-235.62 421.5,-235.62 421.5,-214.88 553.75,-214.88 553.75,-235.62"/>
<text text-anchor="middle" x="487.62" y="-222.12" font-family="Helvetica,sans-Serif" font-size="10.00">lix/libexpr/flake/flake.hh</text>
</a>
</g>
</g>
<!-- Node4&#45;&gt;Node17 -->
<g id="edge26_Node000004_Node000017" class="edge">
<title>Node4&#45;&gt;Node17</title>
<g id="a_edge26_Node000004_Node000017"><a xlink:title=" ">
<path fill="none" stroke="#63b8ff" d="M637.35,-274.17C601.54,-262.7 550.51,-246.37 518.24,-236.05"/>
<polygon fill="#63b8ff" stroke="#63b8ff" points="635.91,-277.38 646.5,-277.09 638.04,-270.71 635.91,-277.38"/>
</a>
</g>
</g>
<!-- Node18 -->
<g id="Node000018" class="node">
<title>Node18</title>
<g id="a_Node000018"><a xlink:href="function-trace_8hh.html" target="_top" xlink:title=" ">
<polygon fill="white" stroke="#666666" points="1173.38,-242 1065.88,-242 1065.88,-208.5 1173.38,-208.5 1173.38,-242"/>
<text text-anchor="start" x="1073.88" y="-228.5" font-family="Helvetica,sans-Serif" font-size="10.00">lix/libexpr/function</text>
<text text-anchor="middle" x="1119.62" y="-215.75" font-family="Helvetica,sans-Serif" font-size="10.00">&#45;trace.hh</text>
</a>
</g>
</g>
<!-- Node4&#45;&gt;Node18 -->
<g id="edge28_Node000004_Node000018" class="edge">
<title>Node4&#45;&gt;Node18</title>
<g id="a_edge28_Node000004_Node000018"><a xlink:title=" ">
<path fill="none" stroke="#63b8ff" d="M742.08,-282.21C817.48,-275.51 946.88,-262.22 1056.62,-242 1059.51,-241.47 1062.45,-240.88 1065.42,-240.26"/>
<polygon fill="#63b8ff" stroke="#63b8ff" points="742.07,-278.7 732.42,-283.06 742.68,-285.67 742.07,-278.7"/>
</a>
</g>
</g>
<!-- Node19 -->
<g id="Node000019" class="node">
<title>Node19</title>
<g id="a_Node000019"><a xlink:href="get-drvs_8hh.html" target="_top" xlink:title=" ">
<polygon fill="white" stroke="#666666" points="123.25,-235.62 0,-235.62 0,-214.88 123.25,-214.88 123.25,-235.62"/>
<text text-anchor="middle" x="61.62" y="-222.12" font-family="Helvetica,sans-Serif" font-size="10.00">lix/libexpr/get&#45;drvs.hh</text>
</a>
</g>
</g>
<!-- Node4&#45;&gt;Node19 -->
<g id="edge29_Node000004_Node000019" class="edge">
<title>Node4&#45;&gt;Node19</title>
<g id="a_edge29_Node000004_Node000019"><a xlink:title=" ">
<path fill="none" stroke="#63b8ff" d="M615.3,-284.55C513.99,-279.46 309.4,-266.91 137.62,-242 126.82,-240.43 115.25,-238.28 104.47,-236.07"/>
<polygon fill="#63b8ff" stroke="#63b8ff" points="614.87,-288.03 625.03,-285.03 615.21,-281.04 614.87,-288.03"/>
</a>
</g>
</g>
<!-- Node20 -->
<g id="Node000020" class="node">
<title>Node20</title>
<g id="a_Node000020"><a xlink:href="primops_8hh.html" target="_top" xlink:title=" ">
<polygon fill="white" stroke="#666666" points="1313.88,-235.62 1191.38,-235.62 1191.38,-214.88 1313.88,-214.88 1313.88,-235.62"/>
<text text-anchor="middle" x="1252.62" y="-222.12" font-family="Helvetica,sans-Serif" font-size="10.00">lix/libexpr/primops.hh</text>
</a>
</g>
</g>
<!-- Node4&#45;&gt;Node20 -->
<g id="edge31_Node000004_Node000020" class="edge">
<title>Node4&#45;&gt;Node20</title>
<g id="a_edge31_Node000004_Node000020"><a xlink:title=" ">
<path fill="none" stroke="#63b8ff" d="M742,-284.35C837.85,-279.17 1025.2,-266.69 1182.62,-242 1192.59,-240.44 1203.26,-238.29 1213.19,-236.08"/>
<polygon fill="#63b8ff" stroke="#63b8ff" points="742.09,-280.84 732.29,-284.86 742.46,-287.83 742.09,-280.84"/>
</a>
</g>
</g>
<!-- Node21 -->
<g id="Node000021" class="node">
<title>Node21</title>
<g id="a_Node000021"><a xlink:href="value-to-json_8hh.html" target="_top" xlink:title=" ">
<polygon fill="white" stroke="#666666" points="1439.75,-242 1331.5,-242 1331.5,-208.5 1439.75,-208.5 1439.75,-242"/>
<text text-anchor="start" x="1339.5" y="-228.5" font-family="Helvetica,sans-Serif" font-size="10.00">lix/libexpr/value&#45;to</text>
<text text-anchor="middle" x="1385.62" y="-215.75" font-family="Helvetica,sans-Serif" font-size="10.00">&#45;json.hh</text>
</a>
</g>
</g>
<!-- Node4&#45;&gt;Node21 -->
<g id="edge32_Node000004_Node000021" class="edge">
<title>Node4&#45;&gt;Node21</title>
<g id="a_edge32_Node000004_Node000021"><a xlink:title=" ">
<path fill="none" stroke="#63b8ff" d="M742.19,-286.57C858.22,-284.28 1111.8,-275.52 1322.62,-242 1325.41,-241.56 1328.25,-241.05 1331.11,-240.5"/>
<polygon fill="#63b8ff" stroke="#63b8ff" points="742.18,-283.07 732.24,-286.75 742.31,-290.06 742.18,-283.07"/>
</a>
</g>
</g>
<!-- Node22 -->
<g id="Node000022" class="node">
<title>Node22</title>
<g id="a_Node000022"><a xlink:href="value-to-xml_8hh.html" target="_top" xlink:title=" ">
<polygon fill="white" stroke="#666666" points="1565.75,-242 1457.5,-242 1457.5,-208.5 1565.75,-208.5 1565.75,-242"/>
<text text-anchor="start" x="1465.5" y="-228.5" font-family="Helvetica,sans-Serif" font-size="10.00">lix/libexpr/value&#45;to</text>
<text text-anchor="middle" x="1511.62" y="-215.75" font-family="Helvetica,sans-Serif" font-size="10.00">&#45;xml.hh</text>
</a>
</g>
</g>
<!-- Node4&#45;&gt;Node22 -->
<g id="edge33_Node000004_Node000022" class="edge">
<title>Node4&#45;&gt;Node22</title>
<g id="a_edge33_Node000004_Node000022"><a xlink:title=" ">
<path fill="none" stroke="#63b8ff" d="M742.28,-287.61C874.61,-287.24 1188.75,-281.79 1448.62,-242 1451.41,-241.57 1454.25,-241.08 1457.12,-240.54"/>
<polygon fill="#63b8ff" stroke="#63b8ff" points="742.31,-284.11 732.31,-287.63 742.32,-291.11 742.31,-284.11"/>
</a>
</g>
</g>
<!-- Node7 -->
<g id="Node000007" class="node">
<title>Node7</title>
<g id="a_Node000007"><a xlink:href="command_8hh.html" target="_top" xlink:title=" ">
<polygon fill="white" stroke="#666666" points="529,-96.62 398.25,-96.62 398.25,-75.88 529,-75.88 529,-96.62"/>
<text text-anchor="middle" x="463.62" y="-83.12" font-family="Helvetica,sans-Serif" font-size="10.00">lix/libcmd/command.hh</text>
</a>
</g>
</g>
<!-- Node6&#45;&gt;Node7 -->
<g id="edge6_Node000006_Node000007" class="edge">
<title>Node6&#45;&gt;Node7</title>
<g id="a_edge6_Node000006_Node000007"><a xlink:title=" ">
<path fill="none" stroke="#63b8ff" d="M337.86,-134.67C370.72,-122.29 411.42,-106.94 437.45,-97.12"/>
<polygon fill="#63b8ff" stroke="#63b8ff" points="337.04,-131.24 328.92,-138.05 339.51,-137.79 337.04,-131.24"/>
</a>
</g>
</g>
<!-- Node6&#45;&gt;Node8 -->
<g id="edge9_Node000006_Node000008" class="edge">
<title>Node6&#45;&gt;Node8</title>
<g id="a_edge9_Node000006_Node000008"><a xlink:title=" ">
<path fill="none" stroke="#63b8ff" d="M297.66,-128.5C311.58,-100.44 333.2,-56.88 344.74,-33.63"/>
<polygon fill="#63b8ff" stroke="#63b8ff" points="294.54,-126.9 293.23,-137.41 300.81,-130.01 294.54,-126.9"/>
</a>
</g>
</g>
<!-- Node7&#45;&gt;Node8 -->
<g id="edge7_Node000007_Node000008" class="edge">
<title>Node7&#45;&gt;Node8</title>
<g id="a_edge7_Node000007_Node000008"><a xlink:title=" ">
<path fill="none" stroke="#63b8ff" d="M438.09,-69.72C420.46,-59 397.07,-44.78 379.21,-33.92"/>
<polygon fill="#63b8ff" stroke="#63b8ff" points="436.07,-72.59 446.43,-74.79 439.7,-66.61 436.07,-72.59"/>
</a>
</g>
</g>
<!-- Node9 -->
<g id="Node000009" class="node">
<title>Node9</title>
<g id="a_Node000009"><a xlink:href="nix_2daemon_8cc.html" target="_top" xlink:title=" ">
<polygon fill="white" stroke="#666666" points="531.75,-27.12 429.5,-27.12 429.5,-6.38 531.75,-6.38 531.75,-27.12"/>
<text text-anchor="middle" x="480.62" y="-13.62" font-family="Helvetica,sans-Serif" font-size="10.00">lix/nix/daemon.cc</text>
</a>
</g>
</g>
<!-- Node7&#45;&gt;Node9 -->
<g id="edge8_Node000007_Node000009" class="edge">
<title>Node7&#45;&gt;Node9</title>
<g id="a_edge8_Node000007_Node000009"><a xlink:title=" ">
<path fill="none" stroke="#63b8ff" d="M468.87,-64.44C471.98,-52.09 475.77,-37.02 478.19,-27.4"/>
<polygon fill="#63b8ff" stroke="#63b8ff" points="465.48,-63.56 466.43,-74.11 472.27,-65.27 465.48,-63.56"/>
</a>
</g>
</g>
<!-- Node11&#45;&gt;Node7 -->
<g id="edge13_Node000011_Node000007" class="edge">
<title>Node11&#45;&gt;Node7</title>
<g id="a_edge13_Node000011_Node000007"><a xlink:title=" ">
<path fill="none" stroke="#63b8ff" d="M518.95,-131.71C504.24,-119.89 487.11,-106.12 475.85,-97.07"/>
<polygon fill="#63b8ff" stroke="#63b8ff" points="516.55,-134.27 526.54,-137.81 520.94,-128.81 516.55,-134.27"/>
</a>
</g>
</g>
<!-- Node11&#45;&gt;Node8 -->
<g id="edge14_Node000011_Node000008" class="edge">
<title>Node11&#45;&gt;Node8</title>
<g id="a_edge14_Node000011_Node000008"><a xlink:title=" ">
<path fill="none" stroke="#63b8ff" d="M551.71,-127.33C552.87,-108.9 551.05,-85.2 537.62,-69.5 533.36,-64.52 464.54,-46.13 412.07,-32.69"/>
<polygon fill="#63b8ff" stroke="#63b8ff" points="548.25,-126.74 550.76,-137.03 555.22,-127.42 548.25,-126.74"/>
</a>
</g>
</g>
<!-- Node11&#45;&gt;Node10 -->
<g id="edge15_Node000011_Node000010" class="edge">
<title>Node11&#45;&gt;Node10</title>
<g id="a_edge15_Node000011_Node000010"><a xlink:title=" ">
<path fill="none" stroke="#63b8ff" d="M597.27,-134.32C621.34,-124.41 649.85,-112.68 672.38,-103.4"/>
<polygon fill="#63b8ff" stroke="#63b8ff" points="596.22,-130.96 588.31,-138.01 598.89,-137.44 596.22,-130.96"/>
</a>
</g>
</g>
<!-- Node12&#45;&gt;Node11 -->
<g id="edge18_Node000012_Node000011" class="edge">
<title>Node12&#45;&gt;Node11</title>
<g id="a_edge18_Node000012_Node000011"><a xlink:title=" ">
<path fill="none" stroke="#63b8ff" d="M649.39,-209.19C628.52,-198.43 600.48,-183.99 579.12,-172.98"/>
<polygon fill="#63b8ff" stroke="#63b8ff" points="647.74,-212.27 658.23,-213.74 650.94,-206.05 647.74,-212.27"/>
</a>
</g>
</g>
<!-- Node13 -->
<g id="Node000013" class="node">
<title>Node13</title>
<g id="a_Node000013"><a xlink:href="installable-derived-path_8hh.html" target="_top" xlink:title=" ">
<polygon fill="white" stroke="#666666" points="742.62,-172.5 624.62,-172.5 624.62,-139 742.62,-139 742.62,-172.5"/>
<text text-anchor="start" x="632.62" y="-159" font-family="Helvetica,sans-Serif" font-size="10.00">lix/libcmd/installable</text>
<text text-anchor="middle" x="683.62" y="-146.25" font-family="Helvetica,sans-Serif" font-size="10.00">&#45;derived&#45;path.hh</text>
</a>
</g>
</g>
<!-- Node12&#45;&gt;Node13 -->
<g id="edge17_Node000012_Node000013" class="edge">
<title>Node12&#45;&gt;Node13</title>
<g id="a_edge17_Node000012_Node000013"><a xlink:title=" ">
<path fill="none" stroke="#63b8ff" d="M680.17,-203.38C680.9,-193.57 681.75,-182.05 682.43,-172.92"/>
<polygon fill="#63b8ff" stroke="#63b8ff" points="676.7,-202.84 679.45,-213.07 683.68,-203.36 676.7,-202.84"/>
</a>
</g>
</g>
<!-- Node16&#45;&gt;Node7 -->
<g id="edge22_Node000016_Node000007" class="edge">
<title>Node16&#45;&gt;Node7</title>
<g id="a_edge22_Node000016_Node000007"><a xlink:title=" ">
<path fill="none" stroke="#63b8ff" d="M356.47,-207.03C367.84,-197.29 381.94,-184.67 393.62,-172.5 418.29,-146.8 444.07,-113.44 456.32,-97.12"/>
<polygon fill="#63b8ff" stroke="#63b8ff" points="354.21,-204.35 348.83,-213.47 358.73,-209.7 354.21,-204.35"/>
</a>
</g>
</g>
<!-- Node16&#45;&gt;Node8 -->
<g id="edge23_Node000016_Node000008" class="edge">
<title>Node16&#45;&gt;Node8</title>
<g id="a_edge23_Node000016_Node000008"><a xlink:title=" ">
<path fill="none" stroke="#63b8ff" d="M347.69,-204.63C352.76,-195.26 358.06,-183.69 360.62,-172.5 371.97,-122.94 362.2,-62.21 356.31,-33.82"/>
<polygon fill="#63b8ff" stroke="#63b8ff" points="344.75,-202.72 342.79,-213.13 350.82,-206.22 344.75,-202.72"/>
</a>
</g>
</g>
<!-- Node16&#45;&gt;Node11 -->
<g id="edge24_Node000016_Node000011" class="edge">
<title>Node16&#45;&gt;Node11</title>
<g id="a_edge24_Node000016_Node000011"><a xlink:title=" ">
<path fill="none" stroke="#63b8ff" d="M377.02,-211.07C411.26,-200.17 460.02,-184.64 496.66,-172.98"/>
<polygon fill="#63b8ff" stroke="#63b8ff" points="376.36,-207.61 367.89,-213.98 378.48,-214.28 376.36,-207.61"/>
</a>
</g>
</g>
<!-- Node17&#45;&gt;Node11 -->
<g id="edge27_Node000017_Node000011" class="edge">
<title>Node17&#45;&gt;Node11</title>
<g id="a_edge27_Node000017_Node000011"><a xlink:title=" ">
<path fill="none" stroke="#63b8ff" d="M503.61,-206.26C512.83,-195.89 524.32,-182.97 533.25,-172.92"/>
<polygon fill="#63b8ff" stroke="#63b8ff" points="501.25,-203.65 497.23,-213.45 506.49,-208.3 501.25,-203.65"/>
</a>
</g>
</g>
<!-- Node19&#45;&gt;Node5 -->
<g id="edge30_Node000019_Node000005" class="edge">
<title>Node19&#45;&gt;Node5</title>
<g id="a_edge30_Node000019_Node000005"><a xlink:title=" ">
<path fill="none" stroke="#63b8ff" d="M66.25,-203.44C68.99,-191.09 72.34,-176.02 74.48,-166.4"/>
<polygon fill="#63b8ff" stroke="#63b8ff" points="62.86,-202.58 64.1,-213.1 69.69,-204.1 62.86,-202.58"/>
</a>
</g>
</g>
</g>
</svg>
