<?xml version="1.0" encoding="UTF-8" standalone="no"?>
<!DOCTYPE svg PUBLIC "-//W3C//DTD SVG 1.1//EN"
 "http://www.w3.org/Graphics/SVG/1.1/DTD/svg11.dtd">
<!-- Generated by graphviz version 12.2.1 (0)
 -->
<!-- Title: lix/libutil/ref.hh Pages: 1 -->
<svg width="306pt" height="86pt"
 viewBox="0.00 0.00 306.38 85.50" xmlns="http://www.w3.org/2000/svg" xmlns:xlink="http://www.w3.org/1999/xlink">
<g id="graph0" class="graph" transform="scale(1 1) rotate(0) translate(4 81.5)">
<title>lix/libutil/ref.hh</title>
<!-- Node1 -->
<g id="Node000001" class="node">
<title>Node1</title>
<g id="a_Node000001"><a xlink:title=" ">
<polygon fill="#999999" stroke="#666666" points="189.12,-77.5 99.62,-77.5 99.62,-56.75 189.12,-56.75 189.12,-77.5"/>
<text text-anchor="middle" x="144.38" y="-64" font-family="Helvetica,sans-Serif" font-size="10.00">lix/libutil/ref.hh</text>
</a>
</g>
</g>
<!-- Node2 -->
<g id="Node000002" class="node">
<title>Node2</title>
<g id="a_Node000002"><a xlink:title=" ">
<polygon fill="#e0e0e0" stroke="#999999" points="58.75,-20.75 0,-20.75 0,0 58.75,0 58.75,-20.75"/>
<text text-anchor="middle" x="29.38" y="-7.25" font-family="Helvetica,sans-Serif" font-size="10.00">compare</text>
</a>
</g>
</g>
<!-- Node1&#45;&gt;Node2 -->
<g id="edge1_Node000001_Node000002" class="edge">
<title>Node1&#45;&gt;Node2</title>
<g id="a_edge1_Node000001_Node000002"><a xlink:title=" ">
<path fill="none" stroke="#63b8ff" d="M123.82,-56.34C106.07,-47.89 80.19,-35.57 60.01,-25.96"/>
<polygon fill="#63b8ff" stroke="#63b8ff" points="61.66,-22.87 51.12,-21.73 58.65,-29.19 61.66,-22.87"/>
</a>
</g>
</g>
<!-- Node3 -->
<g id="Node000003" class="node">
<title>Node3</title>
<g id="a_Node000003"><a xlink:title=" ">
<polygon fill="#e0e0e0" stroke="#999999" points="134,-20.75 76.75,-20.75 76.75,0 134,0 134,-20.75"/>
<text text-anchor="middle" x="105.38" y="-7.25" font-family="Helvetica,sans-Serif" font-size="10.00">memory</text>
</a>
</g>
</g>
<!-- Node1&#45;&gt;Node3 -->
<g id="edge2_Node000001_Node000003" class="edge">
<title>Node1&#45;&gt;Node3</title>
<g id="a_edge2_Node000001_Node000003"><a xlink:title=" ">
<path fill="none" stroke="#63b8ff" d="M137.4,-56.34C132.24,-49.1 125.06,-39.01 118.8,-30.22"/>
<polygon fill="#63b8ff" stroke="#63b8ff" points="121.82,-28.43 113.17,-22.31 116.12,-32.49 121.82,-28.43"/>
</a>
</g>
</g>
<!-- Node4 -->
<g id="Node000004" class="node">
<title>Node4</title>
<g id="a_Node000004"><a xlink:title=" ">
<polygon fill="#e0e0e0" stroke="#999999" points="216.38,-20.75 152.38,-20.75 152.38,0 216.38,0 216.38,-20.75"/>
<text text-anchor="middle" x="184.38" y="-7.25" font-family="Helvetica,sans-Serif" font-size="10.00">exception</text>
</a>
</g>
</g>
<!-- Node1&#45;&gt;Node4 -->
<g id="edge3_Node000001_Node000004" class="edge">
<title>Node1&#45;&gt;Node4</title>
<g id="a_edge3_Node000001_Node000004"><a xlink:title=" ">
<path fill="none" stroke="#63b8ff" d="M151.53,-56.34C156.82,-49.1 164.19,-39.01 170.6,-30.22"/>
<polygon fill="#63b8ff" stroke="#63b8ff" points="173.32,-32.44 176.39,-22.3 167.67,-28.31 173.32,-32.44"/>
</a>
</g>
</g>
<!-- Node5 -->
<g id="Node000005" class="node">
<title>Node5</title>
<g id="a_Node000005"><a xlink:title=" ">
<polygon fill="#e0e0e0" stroke="#999999" points="298.38,-20.75 234.38,-20.75 234.38,0 298.38,0 298.38,-20.75"/>
<text text-anchor="middle" x="266.38" y="-7.25" font-family="Helvetica,sans-Serif" font-size="10.00">stdexcept</text>
</a>
</g>
</g>
<!-- Node1&#45;&gt;Node5 -->
<g id="edge4_Node000001_Node000005" class="edge">
<title>Node1&#45;&gt;Node5</title>
<g id="a_edge4_Node000001_Node000005"><a xlink:title=" ">
<path fill="none" stroke="#63b8ff" d="M166.19,-56.34C185.18,-47.81 212.97,-35.34 234.47,-25.69"/>
<polygon fill="#63b8ff" stroke="#63b8ff" points="235.68,-28.99 243.37,-21.7 232.82,-22.6 235.68,-28.99"/>
</a>
</g>
</g>
</g>
</svg>
