<?xml version="1.0" encoding="UTF-8" standalone="no"?>
<!DOCTYPE svg PUBLIC "-//W3C//DTD SVG 1.1//EN"
 "http://www.w3.org/Graphics/SVG/1.1/DTD/svg11.dtd">
<!-- Generated by graphviz version 12.2.1 (0)
 -->
<!-- Title: lix/libexpr/search&#45;path.hh Pages: 1 -->
<svg width="1729pt" height="376pt"
 viewBox="0.00 0.00 1729.11 376.25" xmlns="http://www.w3.org/2000/svg" xmlns:xlink="http://www.w3.org/1999/xlink">
<g id="graph0" class="graph" transform="scale(1 1) rotate(0) translate(4 372.25)">
<title>lix/libexpr/search&#45;path.hh</title>
<!-- Node1 -->
<g id="Node000001" class="node">
<title>Node1</title>
<g id="a_Node000001"><a xlink:title=" ">
<polygon fill="#999999" stroke="#666666" points="475.25,-368.25 375.25,-368.25 375.25,-334.75 475.25,-334.75 475.25,-368.25"/>
<text text-anchor="start" x="383.25" y="-354.75" font-family="Helvetica,sans-Serif" font-size="10.00">lix/libexpr/search</text>
<text text-anchor="middle" x="425.25" y="-342" font-family="Helvetica,sans-Serif" font-size="10.00">&#45;path.hh</text>
</a>
</g>
</g>
<!-- Node2 -->
<g id="Node000002" class="node">
<title>Node2</title>
<g id="a_Node000002"><a xlink:href="common-eval-args_8hh.html" target="_top" xlink:title=" ">
<polygon fill="white" stroke="#666666" points="134.5,-172.5 0,-172.5 0,-139 134.5,-139 134.5,-172.5"/>
<text text-anchor="start" x="8" y="-159" font-family="Helvetica,sans-Serif" font-size="10.00">lix/libcmd/common&#45;eval</text>
<text text-anchor="middle" x="67.25" y="-146.25" font-family="Helvetica,sans-Serif" font-size="10.00">&#45;args.hh</text>
</a>
</g>
</g>
<!-- Node1&#45;&gt;Node2 -->
<g id="edge1_Node000001_Node000002" class="edge">
<title>Node1&#45;&gt;Node2</title>
<g id="a_edge1_Node000001_Node000002"><a xlink:title=" ">
<path fill="none" stroke="#63b8ff" d="M363.55,-340.94C270.2,-325.07 100.1,-290.21 64.25,-242 49.4,-222.04 55.33,-191.56 61.17,-172.97"/>
<polygon fill="#63b8ff" stroke="#63b8ff" points="362.88,-344.38 373.32,-342.58 364.04,-337.47 362.88,-344.38"/>
</a>
</g>
</g>
<!-- Node6 -->
<g id="Node000006" class="node">
<title>Node6</title>
<g id="a_Node000006"><a xlink:href="libexpr_2eval_8hh.html" target="_top" xlink:title=" ">
<polygon fill="white" stroke="#666666" points="939.12,-298.75 835.38,-298.75 835.38,-278 939.12,-278 939.12,-298.75"/>
<text text-anchor="middle" x="887.25" y="-285.25" font-family="Helvetica,sans-Serif" font-size="10.00">lix/libexpr/eval.hh</text>
</a>
</g>
</g>
<!-- Node1&#45;&gt;Node6 -->
<g id="edge6_Node000001_Node000006" class="edge">
<title>Node1&#45;&gt;Node6</title>
<g id="a_edge6_Node000001_Node000006"><a xlink:title=" ">
<path fill="none" stroke="#63b8ff" d="M486.89,-342.34C578.62,-330.21 749.42,-307.61 835.23,-296.26"/>
<polygon fill="#63b8ff" stroke="#63b8ff" points="486.53,-338.86 477.07,-343.64 487.44,-345.8 486.53,-338.86"/>
</a>
</g>
</g>
<!-- Node3 -->
<g id="Node000003" class="node">
<title>Node3</title>
<g id="a_Node000003"><a xlink:href="command_8hh.html" target="_top" xlink:title=" ">
<polygon fill="white" stroke="#666666" points="226.62,-96.62 95.88,-96.62 95.88,-75.88 226.62,-75.88 226.62,-96.62"/>
<text text-anchor="middle" x="161.25" y="-83.12" font-family="Helvetica,sans-Serif" font-size="10.00">lix/libcmd/command.hh</text>
</a>
</g>
</g>
<!-- Node2&#45;&gt;Node3 -->
<g id="edge2_Node000002_Node000003" class="edge">
<title>Node2&#45;&gt;Node3</title>
<g id="a_edge2_Node000002_Node000003"><a xlink:title=" ">
<path fill="none" stroke="#63b8ff" d="M98.87,-132.04C115.43,-120.15 134.85,-106.2 147.57,-97.07"/>
<polygon fill="#63b8ff" stroke="#63b8ff" points="96.84,-129.19 90.76,-137.87 100.92,-134.88 96.84,-129.19"/>
</a>
</g>
</g>
<!-- Node4 -->
<g id="Node000004" class="node">
<title>Node4</title>
<g id="a_Node000004"><a xlink:href="installable-attr-path_8hh.html" target="_top" xlink:title=" ">
<polygon fill="white" stroke="#666666" points="330.25,-33.5 212.25,-33.5 212.25,0 330.25,0 330.25,-33.5"/>
<text text-anchor="start" x="220.25" y="-20" font-family="Helvetica,sans-Serif" font-size="10.00">lix/libcmd/installable</text>
<text text-anchor="middle" x="271.25" y="-7.25" font-family="Helvetica,sans-Serif" font-size="10.00">&#45;attr&#45;path.hh</text>
</a>
</g>
</g>
<!-- Node2&#45;&gt;Node4 -->
<g id="edge5_Node000002_Node000004" class="edge">
<title>Node2&#45;&gt;Node4</title>
<g id="a_edge5_Node000002_Node000004"><a xlink:title=" ">
<path fill="none" stroke="#63b8ff" d="M66.8,-127.35C67.97,-108.74 72.59,-84.81 87.25,-69.5 91.75,-64.8 159.94,-46.4 212,-32.87"/>
<polygon fill="#63b8ff" stroke="#63b8ff" points="63.3,-127.06 66.5,-137.16 70.3,-127.27 63.3,-127.06"/>
</a>
</g>
</g>
<!-- Node3&#45;&gt;Node4 -->
<g id="edge3_Node000003_Node000004" class="edge">
<title>Node3&#45;&gt;Node4</title>
<g id="a_edge3_Node000003_Node000004"><a xlink:title=" ">
<path fill="none" stroke="#63b8ff" d="M186.55,-69.72C204.02,-59 227.21,-44.78 244.9,-33.92"/>
<polygon fill="#63b8ff" stroke="#63b8ff" points="184.99,-66.57 178.3,-74.79 188.65,-72.54 184.99,-66.57"/>
</a>
</g>
</g>
<!-- Node5 -->
<g id="Node000005" class="node">
<title>Node5</title>
<g id="a_Node000005"><a xlink:href="nix_2daemon_8cc.html" target="_top" xlink:title=" ">
<polygon fill="white" stroke="#666666" points="194.38,-27.12 92.12,-27.12 92.12,-6.38 194.38,-6.38 194.38,-27.12"/>
<text text-anchor="middle" x="143.25" y="-13.62" font-family="Helvetica,sans-Serif" font-size="10.00">lix/nix/daemon.cc</text>
</a>
</g>
</g>
<!-- Node3&#45;&gt;Node5 -->
<g id="edge4_Node000003_Node000005" class="edge">
<title>Node3&#45;&gt;Node5</title>
<g id="a_edge4_Node000003_Node000005"><a xlink:title=" ">
<path fill="none" stroke="#63b8ff" d="M155.8,-64.83C152.49,-52.41 148.42,-37.12 145.82,-27.4"/>
<polygon fill="#63b8ff" stroke="#63b8ff" points="152.32,-65.36 158.28,-74.12 159.09,-63.55 152.32,-65.36"/>
</a>
</g>
</g>
<!-- Node6&#45;&gt;Node2 -->
<g id="edge8_Node000006_Node000002" class="edge">
<title>Node6&#45;&gt;Node2</title>
<g id="a_edge8_Node000006_Node000002"><a xlink:title=" ">
<path fill="none" stroke="#63b8ff" d="M823.5,-285.87C638.54,-281.21 113.12,-265.93 85.25,-242 65.51,-225.05 64.17,-192.39 65.42,-172.79"/>
<polygon fill="#63b8ff" stroke="#63b8ff" points="823.32,-289.36 833.41,-286.11 823.5,-282.36 823.32,-289.36"/>
</a>
</g>
</g>
<!-- Node6&#45;&gt;Node4 -->
<g id="edge9_Node000006_Node000004" class="edge">
<title>Node6&#45;&gt;Node4</title>
<g id="a_edge9_Node000006_Node000004"><a xlink:title=" ">
<path fill="none" stroke="#63b8ff" d="M950.97,-286.24C1140.32,-282.58 1688.11,-269.62 1714.25,-242 1724.49,-231.19 1721.88,-221.28 1714.25,-208.5 1680.86,-152.59 1647.06,-159.52 1585.25,-139 1347.17,-59.97 554.81,-27.42 330.74,-19.66"/>
<polygon fill="#63b8ff" stroke="#63b8ff" points="951,-282.74 941.07,-286.43 951.14,-289.74 951,-282.74"/>
</a>
</g>
</g>
<!-- Node7 -->
<g id="Node000007" class="node">
<title>Node7</title>
<g id="a_Node000007"><a xlink:href="cmd-profiles_8hh.html" target="_top" xlink:title=" ">
<polygon fill="white" stroke="#666666" points="744.62,-166.12 601.88,-166.12 601.88,-145.38 744.62,-145.38 744.62,-166.12"/>
<text text-anchor="middle" x="673.25" y="-152.62" font-family="Helvetica,sans-Serif" font-size="10.00">lix/libcmd/cmd&#45;profiles.hh</text>
</a>
</g>
</g>
<!-- Node6&#45;&gt;Node7 -->
<g id="edge7_Node000006_Node000007" class="edge">
<title>Node6&#45;&gt;Node7</title>
<g id="a_edge7_Node000006_Node000007"><a xlink:title=" ">
<path fill="none" stroke="#63b8ff" d="M823.74,-285.65C753.43,-282.23 646.65,-272.1 621.25,-242 600.34,-217.22 637.73,-183.16 659.4,-166.59"/>
<polygon fill="#63b8ff" stroke="#63b8ff" points="823.46,-289.14 833.61,-286.09 823.77,-282.14 823.46,-289.14"/>
</a>
</g>
</g>
<!-- Node8 -->
<g id="Node000008" class="node">
<title>Node8</title>
<g id="a_Node000008"><a xlink:href="installable-flake_8hh.html" target="_top" xlink:title=" ">
<polygon fill="white" stroke="#666666" points="1106.25,-103 988.25,-103 988.25,-69.5 1106.25,-69.5 1106.25,-103"/>
<text text-anchor="start" x="996.25" y="-89.5" font-family="Helvetica,sans-Serif" font-size="10.00">lix/libcmd/installable</text>
<text text-anchor="middle" x="1047.25" y="-76.75" font-family="Helvetica,sans-Serif" font-size="10.00">&#45;flake.hh</text>
</a>
</g>
</g>
<!-- Node6&#45;&gt;Node8 -->
<g id="edge10_Node000006_Node000008" class="edge">
<title>Node6&#45;&gt;Node8</title>
<g id="a_edge10_Node000006_Node000008"><a xlink:title=" ">
<path fill="none" stroke="#63b8ff" d="M951.08,-286.16C1137.52,-282.29 1669.8,-268.92 1695.25,-242 1779.33,-153.07 1281.58,-105.42 1106.49,-91.57"/>
<polygon fill="#63b8ff" stroke="#63b8ff" points="951.01,-282.66 941.08,-286.36 951.15,-289.66 951.01,-282.66"/>
</a>
</g>
</g>
<!-- Node9 -->
<g id="Node000009" class="node">
<title>Node9</title>
<g id="a_Node000009"><a xlink:href="installable-value_8hh.html" target="_top" xlink:title=" ">
<polygon fill="white" stroke="#666666" points="400.25,-172.5 282.25,-172.5 282.25,-139 400.25,-139 400.25,-172.5"/>
<text text-anchor="start" x="290.25" y="-159" font-family="Helvetica,sans-Serif" font-size="10.00">lix/libcmd/installable</text>
<text text-anchor="middle" x="341.25" y="-146.25" font-family="Helvetica,sans-Serif" font-size="10.00">&#45;value.hh</text>
</a>
</g>
</g>
<!-- Node6&#45;&gt;Node9 -->
<g id="edge11_Node000006_Node000009" class="edge">
<title>Node6&#45;&gt;Node9</title>
<g id="a_edge11_Node000006_Node000009"><a xlink:title=" ">
<path fill="none" stroke="#63b8ff" d="M823.51,-286.32C714.15,-283.64 495.91,-274.3 427.25,-242 418.59,-237.93 378.78,-196.56 356.48,-172.98"/>
<polygon fill="#63b8ff" stroke="#63b8ff" points="823.42,-289.81 833.5,-286.55 823.59,-282.82 823.42,-289.81"/>
</a>
</g>
</g>
<!-- Node10 -->
<g id="Node000010" class="node">
<title>Node10</title>
<g id="a_Node000010"><a xlink:href="installables_8hh.html" target="_top" xlink:title=" ">
<polygon fill="white" stroke="#666666" points="574.38,-235.62 436.12,-235.62 436.12,-214.88 574.38,-214.88 574.38,-235.62"/>
<text text-anchor="middle" x="505.25" y="-222.12" font-family="Helvetica,sans-Serif" font-size="10.00">lix/libcmd/installables.hh</text>
</a>
</g>
</g>
<!-- Node6&#45;&gt;Node10 -->
<g id="edge15_Node000006_Node000010" class="edge">
<title>Node6&#45;&gt;Node10</title>
<g id="a_edge15_Node000006_Node000010"><a xlink:title=" ">
<path fill="none" stroke="#63b8ff" d="M823.74,-278.43C763.14,-269.73 669.33,-255.84 588.25,-242 577.55,-240.17 566.1,-238.09 555.23,-236.04"/>
<polygon fill="#63b8ff" stroke="#63b8ff" points="823.14,-281.88 833.53,-279.83 824.13,-274.95 823.14,-281.88"/>
</a>
</g>
</g>
<!-- Node12 -->
<g id="Node000012" class="node">
<title>Node12</title>
<g id="a_Node000012"><a xlink:href="libcmd_2repl_8hh.html" target="_top" xlink:title=" ">
<polygon fill="white" stroke="#666666" points="872.62,-235.62 771.88,-235.62 771.88,-214.88 872.62,-214.88 872.62,-235.62"/>
<text text-anchor="middle" x="822.25" y="-222.12" font-family="Helvetica,sans-Serif" font-size="10.00">lix/libcmd/repl.hh</text>
</a>
</g>
</g>
<!-- Node6&#45;&gt;Node12 -->
<g id="edge18_Node000006_Node000012" class="edge">
<title>Node6&#45;&gt;Node12</title>
<g id="a_edge18_Node000006_Node000012"><a xlink:title=" ">
<path fill="none" stroke="#63b8ff" d="M868.53,-269.77C856.79,-258.73 842.09,-244.91 832.45,-235.84"/>
<polygon fill="#63b8ff" stroke="#63b8ff" points="866.02,-272.22 875.7,-276.52 870.82,-267.12 866.02,-272.22"/>
</a>
</g>
</g>
<!-- Node13 -->
<g id="Node000013" class="node">
<title>Node13</title>
<g id="a_Node000013"><a xlink:href="attr-path_8hh.html" target="_top" xlink:title=" ">
<polygon fill="white" stroke="#666666" points="1016,-235.62 890.5,-235.62 890.5,-214.88 1016,-214.88 1016,-235.62"/>
<text text-anchor="middle" x="953.25" y="-222.12" font-family="Helvetica,sans-Serif" font-size="10.00">lix/libexpr/attr&#45;path.hh</text>
</a>
</g>
</g>
<!-- Node6&#45;&gt;Node13 -->
<g id="edge19_Node000006_Node000013" class="edge">
<title>Node6&#45;&gt;Node13</title>
<g id="a_edge19_Node000006_Node000013"><a xlink:title=" ">
<path fill="none" stroke="#63b8ff" d="M906.26,-269.77C918.18,-258.73 933.1,-244.91 942.89,-235.84"/>
<polygon fill="#63b8ff" stroke="#63b8ff" points="903.92,-267.16 898.96,-276.53 908.68,-272.3 903.92,-267.16"/>
</a>
</g>
</g>
<!-- Node14 -->
<g id="Node000014" class="node">
<title>Node14</title>
<g id="a_Node000014"><a xlink:href="eval-cache_8hh.html" target="_top" xlink:title=" ">
<polygon fill="white" stroke="#666666" points="230.25,-235.62 94.25,-235.62 94.25,-214.88 230.25,-214.88 230.25,-235.62"/>
<text text-anchor="middle" x="162.25" y="-222.12" font-family="Helvetica,sans-Serif" font-size="10.00">lix/libexpr/eval&#45;cache.hh</text>
</a>
</g>
</g>
<!-- Node6&#45;&gt;Node14 -->
<g id="edge20_Node000006_Node000014" class="edge">
<title>Node6&#45;&gt;Node14</title>
<g id="a_edge20_Node000006_Node000014"><a xlink:title=" ">
<path fill="none" stroke="#63b8ff" d="M823.78,-285.71C707.41,-282.03 452.28,-271.12 239.25,-242 228.16,-240.48 216.28,-238.32 205.25,-236.09"/>
<polygon fill="#63b8ff" stroke="#63b8ff" points="823.32,-289.19 833.42,-286 823.53,-282.2 823.32,-289.19"/>
</a>
</g>
</g>
<!-- Node15 -->
<g id="Node000015" class="node">
<title>Node15</title>
<g id="a_Node000015"><a xlink:href="eval-inline_8hh.html" target="_top" xlink:title=" ">
<polygon fill="white" stroke="#666666" points="1168.5,-235.62 1034,-235.62 1034,-214.88 1168.5,-214.88 1168.5,-235.62"/>
<text text-anchor="middle" x="1101.25" y="-222.12" font-family="Helvetica,sans-Serif" font-size="10.00">lix/libexpr/eval&#45;inline.hh</text>
</a>
</g>
</g>
<!-- Node6&#45;&gt;Node15 -->
<g id="edge24_Node000006_Node000015" class="edge">
<title>Node6&#45;&gt;Node15</title>
<g id="a_edge24_Node000006_Node000015"><a xlink:title=" ">
<path fill="none" stroke="#63b8ff" d="M927.33,-274.31C965.85,-262.85 1023.54,-246.42 1061.84,-236.05"/>
<polygon fill="#63b8ff" stroke="#63b8ff" points="926.54,-270.9 917.97,-277.12 928.55,-277.6 926.54,-270.9"/>
</a>
</g>
</g>
<!-- Node16 -->
<g id="Node000016" class="node">
<title>Node16</title>
<g id="a_Node000016"><a xlink:href="libexpr_2flake_2flake_8hh.html" target="_top" xlink:title=" ">
<polygon fill="white" stroke="#666666" points="380.38,-235.62 248.12,-235.62 248.12,-214.88 380.38,-214.88 380.38,-235.62"/>
<text text-anchor="middle" x="314.25" y="-222.12" font-family="Helvetica,sans-Serif" font-size="10.00">lix/libexpr/flake/flake.hh</text>
</a>
</g>
</g>
<!-- Node6&#45;&gt;Node16 -->
<g id="edge26_Node000006_Node000016" class="edge">
<title>Node6&#45;&gt;Node16</title>
<g id="a_edge26_Node000006_Node000016"><a xlink:title=" ">
<path fill="none" stroke="#63b8ff" d="M823.93,-283.63C729.86,-277.6 547.78,-264.12 394.25,-242 383.04,-240.39 371.03,-238.24 359.8,-236.06"/>
<polygon fill="#63b8ff" stroke="#63b8ff" points="823.52,-287.11 833.72,-284.25 823.96,-280.13 823.52,-287.11"/>
</a>
</g>
</g>
<!-- Node17 -->
<g id="Node000017" class="node">
<title>Node17</title>
<g id="a_Node000017"><a xlink:href="function-trace_8hh.html" target="_top" xlink:title=" ">
<polygon fill="white" stroke="#666666" points="1294,-242 1186.5,-242 1186.5,-208.5 1294,-208.5 1294,-242"/>
<text text-anchor="start" x="1194.5" y="-228.5" font-family="Helvetica,sans-Serif" font-size="10.00">lix/libexpr/function</text>
<text text-anchor="middle" x="1240.25" y="-215.75" font-family="Helvetica,sans-Serif" font-size="10.00">&#45;trace.hh</text>
</a>
</g>
</g>
<!-- Node6&#45;&gt;Node17 -->
<g id="edge28_Node000006_Node000017" class="edge">
<title>Node6&#45;&gt;Node17</title>
<g id="a_edge28_Node000006_Node000017"><a xlink:title=" ">
<path fill="none" stroke="#63b8ff" d="M950.72,-279.12C1009.67,-271.05 1099.76,-257.72 1177.25,-242 1180.12,-241.42 1183.06,-240.79 1186.02,-240.13"/>
<polygon fill="#63b8ff" stroke="#63b8ff" points="950.3,-275.64 940.86,-280.45 951.24,-282.58 950.3,-275.64"/>
</a>
</g>
</g>
<!-- Node18 -->
<g id="Node000018" class="node">
<title>Node18</title>
<g id="a_Node000018"><a xlink:href="get-drvs_8hh.html" target="_top" xlink:title=" ">
<polygon fill="white" stroke="#666666" points="753.88,-235.62 630.62,-235.62 630.62,-214.88 753.88,-214.88 753.88,-235.62"/>
<text text-anchor="middle" x="692.25" y="-222.12" font-family="Helvetica,sans-Serif" font-size="10.00">lix/libexpr/get&#45;drvs.hh</text>
</a>
</g>
</g>
<!-- Node6&#45;&gt;Node18 -->
<g id="edge29_Node000006_Node000018" class="edge">
<title>Node6&#45;&gt;Node18</title>
<g id="a_edge29_Node000006_Node000018"><a xlink:title=" ">
<path fill="none" stroke="#63b8ff" d="M845.11,-274.17C808.55,-262.7 756.45,-246.37 723.5,-236.05"/>
<polygon fill="#63b8ff" stroke="#63b8ff" points="843.89,-277.45 854.48,-277.1 845.98,-270.77 843.89,-277.45"/>
</a>
</g>
</g>
<!-- Node19 -->
<g id="Node000019" class="node">
<title>Node19</title>
<g id="a_Node000019"><a xlink:href="primops_8hh.html" target="_top" xlink:title=" ">
<polygon fill="white" stroke="#666666" points="1434.5,-235.62 1312,-235.62 1312,-214.88 1434.5,-214.88 1434.5,-235.62"/>
<text text-anchor="middle" x="1373.25" y="-222.12" font-family="Helvetica,sans-Serif" font-size="10.00">lix/libexpr/primops.hh</text>
</a>
</g>
</g>
<!-- Node6&#45;&gt;Node19 -->
<g id="edge31_Node000006_Node000019" class="edge">
<title>Node6&#45;&gt;Node19</title>
<g id="a_edge31_Node000006_Node000019"><a xlink:title=" ">
<path fill="none" stroke="#63b8ff" d="M950.74,-282.69C1032.59,-276.13 1179.15,-262.66 1303.25,-242 1312.96,-240.38 1323.34,-238.27 1333.06,-236.11"/>
<polygon fill="#63b8ff" stroke="#63b8ff" points="950.59,-279.19 940.9,-283.47 951.14,-286.17 950.59,-279.19"/>
</a>
</g>
</g>
<!-- Node20 -->
<g id="Node000020" class="node">
<title>Node20</title>
<g id="a_Node000020"><a xlink:href="value-to-json_8hh.html" target="_top" xlink:title=" ">
<polygon fill="white" stroke="#666666" points="1560.38,-242 1452.12,-242 1452.12,-208.5 1560.38,-208.5 1560.38,-242"/>
<text text-anchor="start" x="1460.12" y="-228.5" font-family="Helvetica,sans-Serif" font-size="10.00">lix/libexpr/value&#45;to</text>
<text text-anchor="middle" x="1506.25" y="-215.75" font-family="Helvetica,sans-Serif" font-size="10.00">&#45;json.hh</text>
</a>
</g>
</g>
<!-- Node6&#45;&gt;Node20 -->
<g id="edge32_Node000006_Node000020" class="edge">
<title>Node6&#45;&gt;Node20</title>
<g id="a_edge32_Node000006_Node000020"><a xlink:title=" ">
<path fill="none" stroke="#63b8ff" d="M950.84,-285.57C1054.56,-281.86 1266.35,-271.13 1443.25,-242 1446.03,-241.54 1448.87,-241.02 1451.73,-240.46"/>
<polygon fill="#63b8ff" stroke="#63b8ff" points="950.72,-282.07 940.85,-285.91 950.96,-289.06 950.72,-282.07"/>
</a>
</g>
</g>
<!-- Node21 -->
<g id="Node000021" class="node">
<title>Node21</title>
<g id="a_Node000021"><a xlink:href="value-to-xml_8hh.html" target="_top" xlink:title=" ">
<polygon fill="white" stroke="#666666" points="1686.38,-242 1578.12,-242 1578.12,-208.5 1686.38,-208.5 1686.38,-242"/>
<text text-anchor="start" x="1586.12" y="-228.5" font-family="Helvetica,sans-Serif" font-size="10.00">lix/libexpr/value&#45;to</text>
<text text-anchor="middle" x="1632.25" y="-215.75" font-family="Helvetica,sans-Serif" font-size="10.00">&#45;xml.hh</text>
</a>
</g>
</g>
<!-- Node6&#45;&gt;Node21 -->
<g id="edge33_Node000006_Node000021" class="edge">
<title>Node6&#45;&gt;Node21</title>
<g id="a_edge33_Node000006_Node000021"><a xlink:title=" ">
<path fill="none" stroke="#63b8ff" d="M950.59,-286.92C1071.56,-285.23 1343.54,-277.43 1569.25,-242 1572.03,-241.56 1574.88,-241.06 1577.74,-240.51"/>
<polygon fill="#63b8ff" stroke="#63b8ff" points="950.83,-283.42 940.87,-287.05 950.92,-290.42 950.83,-283.42"/>
</a>
</g>
</g>
<!-- Node9&#45;&gt;Node3 -->
<g id="edge12_Node000009_Node000003" class="edge">
<title>Node9&#45;&gt;Node3</title>
<g id="a_edge12_Node000009_Node000003"><a xlink:title=" ">
<path fill="none" stroke="#63b8ff" d="M287.72,-134.67C254.68,-122.29 213.75,-106.94 187.57,-97.12"/>
<polygon fill="#63b8ff" stroke="#63b8ff" points="286.13,-137.82 296.72,-138.05 288.58,-131.26 286.13,-137.82"/>
</a>
</g>
</g>
<!-- Node9&#45;&gt;Node4 -->
<g id="edge13_Node000009_Node000004" class="edge">
<title>Node9&#45;&gt;Node4</title>
<g id="a_edge13_Node000009_Node000004"><a xlink:title=" ">
<path fill="none" stroke="#63b8ff" d="M328.03,-128.87C313.7,-100.83 291.29,-56.98 279.36,-33.63"/>
<polygon fill="#63b8ff" stroke="#63b8ff" points="324.73,-130.11 332.39,-137.42 330.96,-126.92 324.73,-130.11"/>
</a>
</g>
</g>
<!-- Node9&#45;&gt;Node8 -->
<g id="edge14_Node000009_Node000008" class="edge">
<title>Node9&#45;&gt;Node8</title>
<g id="a_edge14_Node000009_Node000008"><a xlink:title=" ">
<path fill="none" stroke="#63b8ff" d="M411.74,-142.54C420.32,-141.25 428.98,-140.03 437.25,-139 638.44,-114 878.48,-97.52 987.78,-90.75"/>
<polygon fill="#63b8ff" stroke="#63b8ff" points="411.39,-139.05 402.05,-144.05 412.46,-145.97 411.39,-139.05"/>
</a>
</g>
</g>
<!-- Node10&#45;&gt;Node9 -->
<g id="edge17_Node000010_Node000009" class="edge">
<title>Node10&#45;&gt;Node9</title>
<g id="a_edge17_Node000010_Node000009"><a xlink:title=" ">
<path fill="none" stroke="#63b8ff" d="M470.79,-210.07C444.46,-199.23 408.16,-184.29 380.68,-172.98"/>
<polygon fill="#63b8ff" stroke="#63b8ff" points="469.42,-213.29 480,-213.86 472.09,-206.82 469.42,-213.29"/>
</a>
</g>
</g>
<!-- Node11 -->
<g id="Node000011" class="node">
<title>Node11</title>
<g id="a_Node000011"><a xlink:href="installable-derived-path_8hh.html" target="_top" xlink:title=" ">
<polygon fill="white" stroke="#666666" points="564.25,-172.5 446.25,-172.5 446.25,-139 564.25,-139 564.25,-172.5"/>
<text text-anchor="start" x="454.25" y="-159" font-family="Helvetica,sans-Serif" font-size="10.00">lix/libcmd/installable</text>
<text text-anchor="middle" x="505.25" y="-146.25" font-family="Helvetica,sans-Serif" font-size="10.00">&#45;derived&#45;path.hh</text>
</a>
</g>
</g>
<!-- Node10&#45;&gt;Node11 -->
<g id="edge16_Node000010_Node000011" class="edge">
<title>Node10&#45;&gt;Node11</title>
<g id="a_edge16_Node000010_Node000011"><a xlink:title=" ">
<path fill="none" stroke="#63b8ff" d="M505.25,-203.38C505.25,-193.57 505.25,-182.05 505.25,-172.92"/>
<polygon fill="#63b8ff" stroke="#63b8ff" points="501.75,-203.07 505.25,-213.07 508.75,-203.07 501.75,-203.07"/>
</a>
</g>
</g>
<!-- Node14&#45;&gt;Node3 -->
<g id="edge21_Node000014_Node000003" class="edge">
<title>Node14&#45;&gt;Node3</title>
<g id="a_edge21_Node000014_Node000003"><a xlink:title=" ">
<path fill="none" stroke="#63b8ff" d="M162.1,-203.13C161.88,-173.04 161.48,-119.05 161.32,-97.01"/>
<polygon fill="#63b8ff" stroke="#63b8ff" points="158.59,-202.91 162.17,-212.88 165.59,-202.86 158.59,-202.91"/>
</a>
</g>
</g>
<!-- Node14&#45;&gt;Node4 -->
<g id="edge22_Node000014_Node000004" class="edge">
<title>Node14&#45;&gt;Node4</title>
<g id="a_edge22_Node000014_Node000004"><a xlink:title=" ">
<path fill="none" stroke="#63b8ff" d="M175.02,-204.98C190.34,-181.47 216.31,-140.22 235.25,-103 247.2,-79.52 258.61,-51.14 265.27,-33.77"/>
<polygon fill="#63b8ff" stroke="#63b8ff" points="172.19,-202.92 169.63,-213.2 178.05,-206.76 172.19,-202.92"/>
</a>
</g>
</g>
<!-- Node14&#45;&gt;Node9 -->
<g id="edge23_Node000014_Node000009" class="edge">
<title>Node14&#45;&gt;Node9</title>
<g id="a_edge23_Node000014_Node000009"><a xlink:title=" ">
<path fill="none" stroke="#63b8ff" d="M198.72,-210.5C227.53,-199.63 267.82,-184.44 298.22,-172.98"/>
<polygon fill="#63b8ff" stroke="#63b8ff" points="197.82,-207.1 189.69,-213.9 200.29,-213.65 197.82,-207.1"/>
</a>
</g>
</g>
<!-- Node15&#45;&gt;Node6 -->
<g id="edge25_Node000015_Node000006" class="edge">
<title>Node15&#45;&gt;Node6</title>
<g id="a_edge25_Node000015_Node000006"><a xlink:title=" ">
<path fill="none" stroke="#63b8ff" d="M1061.26,-239.28C1022.77,-250.74 965.08,-267.17 926.75,-277.55"/>
<polygon fill="#63b8ff" stroke="#63b8ff" points="1062.04,-242.71 1070.61,-236.48 1060.03,-236 1062.04,-242.71"/>
</a>
</g>
</g>
<!-- Node16&#45;&gt;Node9 -->
<g id="edge27_Node000016_Node000009" class="edge">
<title>Node16&#45;&gt;Node9</title>
<g id="a_edge27_Node000016_Node000009"><a xlink:title=" ">
<path fill="none" stroke="#63b8ff" d="M322.34,-204.03C326.32,-194.08 331.05,-182.25 334.78,-172.92"/>
<polygon fill="#63b8ff" stroke="#63b8ff" points="319.14,-202.59 318.68,-213.17 325.64,-205.19 319.14,-202.59"/>
</a>
</g>
</g>
<!-- Node18&#45;&gt;Node7 -->
<g id="edge30_Node000018_Node000007" class="edge">
<title>Node18&#45;&gt;Node7</title>
<g id="a_edge30_Node000018_Node000007"><a xlink:title=" ">
<path fill="none" stroke="#63b8ff" d="M686.5,-203.83C683.01,-191.41 678.7,-176.12 675.97,-166.4"/>
<polygon fill="#63b8ff" stroke="#63b8ff" points="683.04,-204.44 689.12,-213.12 689.78,-202.55 683.04,-204.44"/>
</a>
</g>
</g>
</g>
</svg>
