<?xml version="1.0" encoding="UTF-8" standalone="no"?>
<!DOCTYPE svg PUBLIC "-//W3C//DTD SVG 1.1//EN"
 "http://www.w3.org/Graphics/SVG/1.1/DTD/svg11.dtd">
<!-- Generated by graphviz version 12.2.1 (0)
 -->
<!-- Title: nix::Env Pages: 1 -->
<svg width="594pt" height="334pt"
 viewBox="0.00 0.00 594.25 333.50" xmlns="http://www.w3.org/2000/svg" xmlns:xlink="http://www.w3.org/1999/xlink">
<g id="graph0" class="graph" transform="scale(1 1) rotate(0) translate(4 329.5)">
<title>nix::Env</title>
<!-- Node1 -->
<g id="Node000001" class="node">
<title>Node1</title>
<g id="a_Node000001"><a xlink:title=" ">
<polygon fill="#999999" stroke="#666666" points="406,-294.75 351,-294.75 351,-274 406,-274 406,-294.75"/>
<text text-anchor="middle" x="378.5" y="-281.25" font-family="Helvetica,sans-Serif" font-size="10.00">nix::Env</text>
</a>
</g>
</g>
<!-- Node1&#45;&gt;Node1 -->
<g id="edge1_Node000001_Node000001" class="edge">
<title>Node1&#45;&gt;Node1</title>
<g id="a_edge1_Node000001_Node000001"><a xlink:title=" ">
<path fill="none" stroke="#9a32cd" stroke-dasharray="5,2" d="M360.42,-306.56C362.98,-310.23 369,-312.75 378.5,-312.75 396.38,-312.75 401.96,-303.81 395.26,-295.15"/>
<polygon fill="#9a32cd" stroke="#9a32cd" points="363.89,-306.99 361.57,-296.65 356.94,-306.18 363.89,-306.99"/>
</a>
</g>
<text text-anchor="middle" x="378.5" y="-316" font-family="Helvetica,sans-Serif" font-size="10.00" fill="grey"> up</text>
</g>
<!-- Node2 -->
<g id="Node000002" class="node">
<title>Node2</title>
<g id="a_Node000002"><a xlink:href="structnix_1_1Value.html" target="_top" xlink:title=" ">
<polygon fill="white" stroke="#bfbfbf" points="586.25,-168.75 522.25,-168.75 522.25,-148 586.25,-148 586.25,-168.75"/>
<text text-anchor="middle" x="554.25" y="-155.25" font-family="Helvetica,sans-Serif" font-size="10.00">nix::Value</text>
</a>
</g>
</g>
<!-- Node1&#45;&gt;Node2 -->
<g id="edge9_Node000002_Node000001" class="edge">
<title>Node1&#45;&gt;Node2</title>
<g id="a_edge9_Node000002_Node000001"><a xlink:title=" ">
<path fill="none" stroke="#9a32cd" stroke-dasharray="5,2" d="M417.65,-287.96C444.4,-288.46 479.63,-284.86 504.25,-266.38 536.69,-242.02 548.22,-191.19 551.81,-169.06"/>
<polygon fill="#9a32cd" stroke="#9a32cd" points="418.04,-284.47 407.91,-287.56 417.76,-291.47 418.04,-284.47"/>
</a>
</g>
<text text-anchor="middle" x="482.5" y="-287.72" font-family="Helvetica,sans-Serif" font-size="10.00" fill="grey"> env</text>
</g>
<!-- Node2&#45;&gt;Node1 -->
<g id="edge2_Node000001_Node000002" class="edge">
<title>Node2&#45;&gt;Node1</title>
<g id="a_edge2_Node000001_Node000002"><a xlink:title=" ">
<path fill="none" stroke="#9a32cd" stroke-dasharray="5,2" d="M542.45,-179.06C533.74,-194.21 520.32,-214.47 504.25,-228.38 488.86,-241.7 438.1,-262.3 406.27,-274.45"/>
<polygon fill="#9a32cd" stroke="#9a32cd" points="545.45,-180.87 547.21,-170.42 539.32,-177.5 545.45,-180.87"/>
</a>
</g>
<text text-anchor="middle" x="482.5" y="-253.99" font-family="Helvetica,sans-Serif" font-size="10.00" fill="grey"> values</text>
</g>
<!-- Node2&#45;&gt;Node2 -->
<g id="edge3_Node000002_Node000002" class="edge">
<title>Node2&#45;&gt;Node2</title>
<g id="a_edge3_Node000002_Node000002"><a xlink:title=" ">
<path fill="none" stroke="#9a32cd" stroke-dasharray="5,2" d="M541.77,-180.56C543.54,-184.23 547.7,-186.75 554.25,-186.75 566.58,-186.75 570.44,-177.81 565.81,-169.15"/>
<polygon fill="#9a32cd" stroke="#9a32cd" points="545.26,-180.9 542.57,-170.66 538.28,-180.34 545.26,-180.9"/>
</a>
</g>
<text text-anchor="middle" x="554.25" y="-241" font-family="Helvetica,sans-Serif" font-size="10.00" fill="grey"> EMPTY_LIST</text>
<text text-anchor="middle" x="554.25" y="-228.25" font-family="Helvetica,sans-Serif" font-size="10.00" fill="grey">elems</text>
<text text-anchor="middle" x="554.25" y="-215.5" font-family="Helvetica,sans-Serif" font-size="10.00" fill="grey">left</text>
<text text-anchor="middle" x="554.25" y="-202.75" font-family="Helvetica,sans-Serif" font-size="10.00" fill="grey">right</text>
<text text-anchor="middle" x="554.25" y="-190" font-family="Helvetica,sans-Serif" font-size="10.00" fill="grey">smallList</text>
</g>
<!-- Node3 -->
<g id="Node000003" class="node">
<title>Node3</title>
<g id="a_Node000003"><a xlink:href="structnix_1_1checked_1_1Checked.html" target="_top" xlink:title=" ">
<polygon fill="white" stroke="#666666" points="440.5,-250.12 316.5,-250.12 316.5,-216.62 440.5,-216.62 440.5,-250.12"/>
<text text-anchor="start" x="324.5" y="-236.62" font-family="Helvetica,sans-Serif" font-size="10.00">nix::checked::Checked</text>
<text text-anchor="middle" x="378.5" y="-223.88" font-family="Helvetica,sans-Serif" font-size="10.00">&lt; int64_t &gt;</text>
</a>
</g>
</g>
<!-- Node3&#45;&gt;Node2 -->
<g id="edge4_Node000002_Node000003" class="edge">
<title>Node3&#45;&gt;Node2</title>
<g id="a_edge4_Node000002_Node000003"><a xlink:title=" ">
<path fill="none" stroke="#9a32cd" stroke-dasharray="5,2" d="M451.59,-215.28C469.27,-209.65 487.82,-202.69 504.25,-194.38 517.81,-187.51 531.62,-176.98 541.11,-169.08"/>
<polygon fill="#9a32cd" stroke="#9a32cd" points="450.71,-211.89 442.17,-218.17 452.76,-218.58 450.71,-211.89"/>
</a>
</g>
<text text-anchor="middle" x="482.5" y="-215.36" font-family="Helvetica,sans-Serif" font-size="10.00" fill="grey"> integer</text>
</g>
<!-- Node4 -->
<g id="Node000004" class="node">
<title>Node4</title>
<g id="a_Node000004"><a xlink:title=" ">
<polygon fill="white" stroke="#bfbfbf" points="176.78,-244.75 147.97,-244.75 147.97,-224 176.78,-224 176.78,-244.75"/>
<text text-anchor="middle" x="162.38" y="-231.25" font-family="Helvetica,sans-Serif" font-size="10.00">T</text>
</a>
</g>
</g>
<!-- Node4&#45;&gt;Node3 -->
<g id="edge5_Node000003_Node000004" class="edge">
<title>Node4&#45;&gt;Node3</title>
<g id="a_edge5_Node000003_Node000004"><a xlink:title=" ">
<path fill="none" stroke="#9a32cd" stroke-dasharray="5,2" d="M188.58,-234.26C219.73,-234.11 273.81,-233.86 316.15,-233.66"/>
<polygon fill="#9a32cd" stroke="#9a32cd" points="188.59,-230.76 178.61,-234.3 188.63,-237.76 188.59,-230.76"/>
</a>
</g>
<text text-anchor="middle" x="256.75" y="-237.36" font-family="Helvetica,sans-Serif" font-size="10.00" fill="grey"> value</text>
</g>
<!-- Node5 -->
<g id="Node000005" class="node">
<title>Node5</title>
<g id="a_Node000005"><a xlink:href="classnix_1_1Bindings.html" target="_top" xlink:title=" ">
<polygon fill="white" stroke="#666666" points="296.25,-180.75 217.25,-180.75 217.25,-160 296.25,-160 296.25,-180.75"/>
<text text-anchor="middle" x="256.75" y="-167.25" font-family="Helvetica,sans-Serif" font-size="10.00">nix::Bindings</text>
</a>
</g>
</g>
<!-- Node5&#45;&gt;Node2 -->
<g id="edge6_Node000002_Node000005" class="edge">
<title>Node5&#45;&gt;Node2</title>
<g id="a_edge6_Node000002_Node000005"><a xlink:title=" ">
<path fill="none" stroke="#9a32cd" stroke-dasharray="5,2" d="M308,-168.33C369.23,-165.85 470.83,-161.72 521.9,-159.65"/>
<polygon fill="#9a32cd" stroke="#9a32cd" points="308.05,-164.83 298.2,-168.73 308.33,-171.82 308.05,-164.83"/>
</a>
</g>
<text text-anchor="middle" x="378.5" y="-171.25" font-family="Helvetica,sans-Serif" font-size="10.00" fill="grey"> attrs</text>
</g>
<!-- Node5&#45;&gt;Node5 -->
<g id="edge8_Node000005_Node000005" class="edge">
<title>Node5&#45;&gt;Node5</title>
<g id="a_edge8_Node000005_Node000005"><a xlink:title=" ">
<path fill="none" stroke="#9a32cd" stroke-dasharray="5,2" d="M240.34,-192.56C242.66,-196.23 248.13,-198.75 256.75,-198.75 272.97,-198.75 278.04,-189.81 271.96,-181.15"/>
<polygon fill="#9a32cd" stroke="#9a32cd" points="243.82,-192.96 241.38,-182.65 236.86,-192.23 243.82,-192.96"/>
</a>
</g>
<text text-anchor="middle" x="256.75" y="-202" font-family="Helvetica,sans-Serif" font-size="10.00" fill="grey"> EMPTY</text>
</g>
<!-- Node6 -->
<g id="Node000006" class="node">
<title>Node6</title>
<g id="a_Node000006"><a xlink:href="classnix_1_1PosIdx.html" target="_top" xlink:title=" ">
<polygon fill="white" stroke="#bfbfbf" points="69.25,-161.75 0,-161.75 0,-141 69.25,-141 69.25,-161.75"/>
<text text-anchor="middle" x="34.62" y="-148.25" font-family="Helvetica,sans-Serif" font-size="10.00">nix::PosIdx</text>
</a>
</g>
</g>
<!-- Node6&#45;&gt;Node5 -->
<g id="edge7_Node000005_Node000006" class="edge">
<title>Node6&#45;&gt;Node5</title>
<g id="a_edge7_Node000005_Node000006"><a xlink:title=" ">
<path fill="none" stroke="#9a32cd" stroke-dasharray="5,2" d="M80.86,-155.28C120.97,-158.74 178.94,-163.75 216.98,-167.03"/>
<polygon fill="#9a32cd" stroke="#9a32cd" points="81.31,-151.81 71.05,-154.43 80.71,-158.78 81.31,-151.81"/>
</a>
</g>
<text text-anchor="middle" x="97.38" y="-160.54" font-family="Helvetica,sans-Serif" font-size="10.00" fill="grey"> pos</text>
</g>
<!-- Node7 -->
<g id="Node000007" class="node">
<title>Node7</title>
<g id="a_Node000007"><a xlink:href="structnix_1_1Expr.html" target="_top" xlink:title=" ">
<polygon fill="white" stroke="#bfbfbf" points="191.75,-142.75 133,-142.75 133,-122 191.75,-122 191.75,-142.75"/>
<text text-anchor="middle" x="162.38" y="-129.25" font-family="Helvetica,sans-Serif" font-size="10.00">nix::Expr</text>
</a>
</g>
</g>
<!-- Node6&#45;&gt;Node7 -->
<g id="edge11_Node000007_Node000006" class="edge">
<title>Node6&#45;&gt;Node7</title>
<g id="a_edge11_Node000007_Node000006"><a xlink:title=" ">
<path fill="none" stroke="#9a32cd" stroke-dasharray="5,2" d="M77.61,-137.62C80.85,-136.85 84.09,-136.17 87.25,-135.62 102.1,-133.08 118.86,-132.18 132.68,-131.95"/>
<polygon fill="#9a32cd" stroke="#9a32cd" points="76.94,-134.17 68.18,-140.12 78.74,-140.94 76.94,-134.17"/>
</a>
</g>
<text text-anchor="middle" x="97.38" y="-138.88" font-family="Helvetica,sans-Serif" font-size="10.00" fill="grey"> pos</text>
</g>
<!-- Node7&#45;&gt;Node2 -->
<g id="edge10_Node000002_Node000007" class="edge">
<title>Node7&#45;&gt;Node2</title>
<g id="a_edge10_Node000002_Node000007"><a xlink:title=" ">
<path fill="none" stroke="#9a32cd" stroke-dasharray="5,2" d="M203.13,-133.71C257.35,-135.7 357.5,-139.92 442.75,-146.62 469.48,-148.73 499.76,-152.01 521.86,-154.57"/>
<polygon fill="#9a32cd" stroke="#9a32cd" points="203.6,-130.23 193.48,-133.37 203.34,-137.22 203.6,-130.23"/>
</a>
</g>
<text text-anchor="middle" x="378.5" y="-149.88" font-family="Helvetica,sans-Serif" font-size="10.00" fill="grey"> expr</text>
</g>
<!-- Node8 -->
<g id="Node000008" class="node">
<title>Node8</title>
<g id="a_Node000008"><a xlink:href="structnix_1_1ExprLambda.html" target="_top" xlink:title=" ">
<polygon fill="white" stroke="#bfbfbf" points="427.38,-98.75 329.62,-98.75 329.62,-78 427.38,-78 427.38,-98.75"/>
<text text-anchor="middle" x="378.5" y="-85.25" font-family="Helvetica,sans-Serif" font-size="10.00">nix::ExprLambda</text>
</a>
</g>
</g>
<!-- Node7&#45;&gt;Node8 -->
<g id="edge13_Node000008_Node000007" class="edge">
<title>Node7&#45;&gt;Node8</title>
<g id="a_edge13_Node000008_Node000007"><a xlink:title=" ">
<path fill="none" stroke="#63b8ff" d="M202.75,-124.28C238.41,-116.96 291.06,-106.14 329.24,-98.29"/>
<polygon fill="#63b8ff" stroke="#63b8ff" points="202.38,-120.79 193.29,-126.23 203.79,-127.64 202.38,-120.79"/>
</a>
</g>
</g>
<!-- Node8&#45;&gt;Node2 -->
<g id="edge12_Node000002_Node000008" class="edge">
<title>Node8&#45;&gt;Node2</title>
<g id="a_edge12_Node000002_Node000008"><a xlink:title=" ">
<path fill="none" stroke="#9a32cd" stroke-dasharray="5,2" d="M438.98,-89.72C460.5,-92.18 484.38,-97.33 504.25,-107.62 522.52,-117.09 537.91,-135.99 546.34,-147.86"/>
<polygon fill="#9a32cd" stroke="#9a32cd" points="439.44,-86.25 429.15,-88.78 438.77,-93.21 439.44,-86.25"/>
</a>
</g>
<text text-anchor="middle" x="482.5" y="-110.88" font-family="Helvetica,sans-Serif" font-size="10.00" fill="grey"> fun</text>
</g>
<!-- Node9 -->
<g id="Node000009" class="node">
<title>Node9</title>
<g id="a_Node000009"><a xlink:href="classnix_1_1Symbol.html" target="_top" xlink:title=" ">
<polygon fill="white" stroke="#666666" points="199.25,-91.75 125.5,-91.75 125.5,-71 199.25,-71 199.25,-91.75"/>
<text text-anchor="middle" x="162.38" y="-78.25" font-family="Helvetica,sans-Serif" font-size="10.00">nix::Symbol</text>
</a>
</g>
</g>
<!-- Node9&#45;&gt;Node8 -->
<g id="edge14_Node000008_Node000009" class="edge">
<title>Node9&#45;&gt;Node8</title>
<g id="a_edge14_Node000008_Node000009"><a xlink:title=" ">
<path fill="none" stroke="#9a32cd" stroke-dasharray="5,2" d="M210.66,-81.12C236.04,-81.16 267.86,-81.49 296.25,-82.62 306.99,-83.06 318.51,-83.74 329.41,-84.48"/>
<polygon fill="#9a32cd" stroke="#9a32cd" points="211,-77.62 201,-81.12 211,-84.62 211,-77.62"/>
</a>
</g>
<text text-anchor="middle" x="256.75" y="-85.88" font-family="Helvetica,sans-Serif" font-size="10.00" fill="grey"> name</text>
</g>
<!-- Node10 -->
<g id="Node000010" class="node">
<title>Node10</title>
<g id="a_Node000010"><a xlink:href="structnix_1_1PrimOp.html" target="_top" xlink:title=" ">
<polygon fill="white" stroke="#666666" points="415,-59.75 342,-59.75 342,-39 415,-39 415,-59.75"/>
<text text-anchor="middle" x="378.5" y="-46.25" font-family="Helvetica,sans-Serif" font-size="10.00">nix::PrimOp</text>
</a>
</g>
</g>
<!-- Node10&#45;&gt;Node2 -->
<g id="edge15_Node000002_Node000010" class="edge">
<title>Node10&#45;&gt;Node2</title>
<g id="a_edge15_Node000002_Node000010"><a xlink:title=" ">
<path fill="none" stroke="#9a32cd" stroke-dasharray="5,2" d="M426.8,-50.83C451.81,-53.66 481.87,-60.55 504.25,-76.62 529.38,-94.68 543.94,-129.98 549.97,-147.69"/>
<polygon fill="#9a32cd" stroke="#9a32cd" points="427.14,-47.34 416.86,-49.9 426.49,-54.31 427.14,-47.34"/>
</a>
</g>
<text text-anchor="middle" x="482.5" y="-79.88" font-family="Helvetica,sans-Serif" font-size="10.00" fill="grey"> primOp</text>
</g>
<!-- Node11 -->
<g id="Node000011" class="node">
<title>Node11</title>
<g id="a_Node000011"><a xlink:title=" ">
<polygon fill="white" stroke="#bfbfbf" points="184.25,-52.75 140.5,-52.75 140.5,-32 184.25,-32 184.25,-52.75"/>
<text text-anchor="middle" x="162.38" y="-39.25" font-family="Helvetica,sans-Serif" font-size="10.00">string</text>
</a>
</g>
</g>
<!-- Node11&#45;&gt;Node10 -->
<g id="edge16_Node000010_Node000011" class="edge">
<title>Node11&#45;&gt;Node10</title>
<g id="a_edge16_Node000010_Node000011"><a xlink:title=" ">
<path fill="none" stroke="#9a32cd" stroke-dasharray="5,2" d="M195.98,-43.44C235.28,-44.73 301.12,-46.88 341.77,-48.21"/>
<polygon fill="#9a32cd" stroke="#9a32cd" points="196.31,-39.95 186.2,-43.12 196.08,-46.95 196.31,-39.95"/>
</a>
</g>
<text text-anchor="middle" x="256.75" y="-49.96" font-family="Helvetica,sans-Serif" font-size="10.00" fill="grey"> name</text>
</g>
<!-- Node12 -->
<g id="Node000012" class="node">
<title>Node12</title>
<g id="a_Node000012"><a xlink:href="classnix_1_1ExternalValueBase.html" target="_top" xlink:title=" ">
<polygon fill="white" stroke="#666666" points="442.75,-20.75 314.25,-20.75 314.25,0 442.75,0 442.75,-20.75"/>
<text text-anchor="middle" x="378.5" y="-7.25" font-family="Helvetica,sans-Serif" font-size="10.00">nix::ExternalValueBase</text>
</a>
</g>
</g>
<!-- Node12&#45;&gt;Node2 -->
<g id="edge17_Node000002_Node000012" class="edge">
<title>Node12&#45;&gt;Node2</title>
<g id="a_edge17_Node000002_Node000012"><a xlink:title=" ">
<path fill="none" stroke="#9a32cd" stroke-dasharray="5,2" d="M454.27,-17.39C472.21,-22.06 490.22,-29.58 504.25,-41.62 537.44,-70.12 548.64,-124.86 551.98,-147.83"/>
<polygon fill="#9a32cd" stroke="#9a32cd" points="455.15,-14 444.62,-15.18 453.58,-20.83 455.15,-14"/>
</a>
</g>
<text text-anchor="middle" x="482.5" y="-44.88" font-family="Helvetica,sans-Serif" font-size="10.00" fill="grey"> external</text>
</g>
</g>
</svg>
