<?xml version="1.0" encoding="UTF-8" standalone="no"?>
<!DOCTYPE svg PUBLIC "-//W3C//DTD SVG 1.1//EN"
 "http://www.w3.org/Graphics/SVG/1.1/DTD/svg11.dtd">
<!-- Generated by graphviz version 12.2.1 (0)
 -->
<!-- Title: nix::CmdFlakeClone Pages: 1 -->
<svg width="596pt" height="411pt"
 viewBox="0.00 0.00 595.93 410.50" xmlns="http://www.w3.org/2000/svg" xmlns:xlink="http://www.w3.org/1999/xlink">
<g id="graph0" class="graph" transform="scale(1 1) rotate(0) translate(4 406.5)">
<title>nix::CmdFlakeClone</title>
<!-- Node1 -->
<g id="Node000001" class="node">
<title>Node1</title>
<g id="a_Node000001"><a xlink:title=" ">
<polygon fill="#999999" stroke="#666666" points="577.75,-20.75 464.25,-20.75 464.25,0 577.75,0 577.75,-20.75"/>
<text text-anchor="middle" x="521" y="-7.25" font-family="Helvetica,sans-Serif" font-size="10.00">nix::CmdFlakeClone</text>
</a>
</g>
</g>
<!-- Node2 -->
<g id="Node000002" class="node">
<title>Node2</title>
<g id="a_Node000002"><a xlink:href="classnix_1_1FlakeCommand.html" target="_top" xlink:title=" ">
<polygon fill="white" stroke="#bfbfbf" points="531.75,-78.5 418.25,-78.5 418.25,-57.75 531.75,-57.75 531.75,-78.5"/>
<text text-anchor="middle" x="475" y="-65" font-family="Helvetica,sans-Serif" font-size="10.00">nix::FlakeCommand</text>
</a>
</g>
</g>
<!-- Node2&#45;&gt;Node1 -->
<g id="edge1_Node000001_Node000002" class="edge">
<title>Node2&#45;&gt;Node1</title>
<g id="a_edge1_Node000001_Node000002"><a xlink:title=" ">
<path fill="none" stroke="#63b8ff" d="M490.33,-48.55C497.95,-39.31 506.84,-28.54 513.08,-20.97"/>
<polygon fill="#63b8ff" stroke="#63b8ff" points="487.64,-46.31 483.98,-56.25 493.04,-50.76 487.64,-46.31"/>
</a>
</g>
</g>
<!-- Node3 -->
<g id="Node000003" class="node">
<title>Node3</title>
<g id="a_Node000003"><a xlink:href="classnix_1_1Args.html" target="_top" xlink:title=" ">
<polygon fill="white" stroke="#bfbfbf" points="313.38,-402.5 254.62,-402.5 254.62,-381.75 313.38,-381.75 313.38,-402.5"/>
<text text-anchor="middle" x="284" y="-389" font-family="Helvetica,sans-Serif" font-size="10.00">nix::Args</text>
</a>
</g>
</g>
<!-- Node3&#45;&gt;Node2 -->
<g id="edge2_Node000002_Node000003" class="edge">
<title>Node3&#45;&gt;Node2</title>
<g id="a_edge2_Node000002_Node000003"><a xlink:title=" ">
<path fill="none" stroke="#63b8ff" d="M324.98,-387.53C381.38,-381.44 476,-366.56 476,-335.38 476,-335.38 476,-335.38 476,-136.62 476,-116 475.53,-91.83 475.23,-78.74"/>
<polygon fill="#63b8ff" stroke="#63b8ff" points="324.68,-384.05 315.08,-388.55 325.39,-391.01 324.68,-384.05"/>
</a>
</g>
</g>
<!-- Node5 -->
<g id="Node000005" class="node">
<title>Node5</title>
<g id="a_Node000005"><a xlink:href="structnix_1_1Command.html" target="_top" xlink:title=" ">
<polygon fill="white" stroke="#666666" points="367.62,-344.75 280.38,-344.75 280.38,-324 367.62,-324 367.62,-344.75"/>
<text text-anchor="middle" x="324" y="-331.25" font-family="Helvetica,sans-Serif" font-size="10.00">nix::Command</text>
</a>
</g>
</g>
<!-- Node3&#45;&gt;Node5 -->
<g id="edge5_Node000005_Node000003" class="edge">
<title>Node3&#45;&gt;Node5</title>
<g id="a_edge5_Node000005_Node000003"><a xlink:title=" ">
<path fill="none" stroke="#63b8ff" d="M297.54,-372.25C304.12,-363.08 311.74,-352.46 317.11,-344.97"/>
<polygon fill="#63b8ff" stroke="#63b8ff" points="294.84,-370.02 291.85,-380.18 300.52,-374.1 294.84,-370.02"/>
</a>
</g>
</g>
<!-- Node6 -->
<g id="Node000006" class="node">
<title>Node6</title>
<g id="a_Node000006"><a xlink:href="structnix_1_1MixFlakeOptions.html" target="_top" xlink:title=" ">
<polygon fill="white" stroke="#666666" points="408.38,-148 289.62,-148 289.62,-127.25 408.38,-127.25 408.38,-148"/>
<text text-anchor="middle" x="349" y="-134.5" font-family="Helvetica,sans-Serif" font-size="10.00">nix::MixFlakeOptions</text>
</a>
</g>
</g>
<!-- Node3&#45;&gt;Node6 -->
<g id="edge7_Node000006_Node000003" class="edge">
<title>Node3&#45;&gt;Node6</title>
<g id="a_edge7_Node000006_Node000003"><a xlink:title=" ">
<path fill="none" stroke="#63b8ff" d="M242.72,-391.48C163.96,-391.04 0,-384.24 0,-335.38 0,-335.38 0,-335.38 0,-206.12 0,-147.88 189.72,-138.83 289.4,-138.09"/>
<polygon fill="#63b8ff" stroke="#63b8ff" points="242.62,-394.98 252.63,-391.5 242.64,-387.98 242.62,-394.98"/>
</a>
</g>
</g>
<!-- Node9 -->
<g id="Node000009" class="node">
<title>Node9</title>
<g id="a_Node000009"><a xlink:href="structnix_1_1MixEvalArgs.html" target="_top" xlink:title=" ">
<polygon fill="white" stroke="#bfbfbf" points="187.88,-275.25 90.12,-275.25 90.12,-254.5 187.88,-254.5 187.88,-275.25"/>
<text text-anchor="middle" x="139" y="-261.75" font-family="Helvetica,sans-Serif" font-size="10.00">nix::MixEvalArgs</text>
</a>
</g>
</g>
<!-- Node3&#45;&gt;Node9 -->
<g id="edge12_Node000009_Node000003" class="edge">
<title>Node3&#45;&gt;Node9</title>
<g id="a_edge12_Node000009_Node000003"><a xlink:title=" ">
<path fill="none" stroke="#63b8ff" d="M243.2,-383.86C218.22,-377.46 187.26,-365.75 167,-344.75 148.14,-325.19 141.89,-292.12 139.89,-275.71"/>
<polygon fill="#63b8ff" stroke="#63b8ff" points="242.19,-387.22 252.73,-386.1 243.79,-380.4 242.19,-387.22"/>
</a>
</g>
</g>
<!-- Node10 -->
<g id="Node000010" class="node">
<title>Node10</title>
<g id="a_Node000010"><a xlink:href="structnix_1_1MixRepair.html" target="_top" xlink:title=" ">
<polygon fill="white" stroke="#bfbfbf" points="262.25,-344.75 175.75,-344.75 175.75,-324 262.25,-324 262.25,-344.75"/>
<text text-anchor="middle" x="219" y="-331.25" font-family="Helvetica,sans-Serif" font-size="10.00">nix::MixRepair</text>
</a>
</g>
</g>
<!-- Node3&#45;&gt;Node10 -->
<g id="edge14_Node000010_Node000003" class="edge">
<title>Node3&#45;&gt;Node10</title>
<g id="a_edge14_Node000010_Node000003"><a xlink:title=" ">
<path fill="none" stroke="#63b8ff" d="M264.02,-373.99C252.9,-364.45 239.47,-352.94 230.19,-344.97"/>
<polygon fill="#63b8ff" stroke="#63b8ff" points="261.66,-376.58 271.53,-380.43 266.22,-371.26 261.66,-376.58"/>
</a>
</g>
</g>
<!-- Node4 -->
<g id="Node000004" class="node">
<title>Node4</title>
<g id="a_Node000004"><a xlink:href="classnix_1_1MultiCommand.html" target="_top" xlink:title=" ">
<polygon fill="white" stroke="#666666" points="448,-275.25 336,-275.25 336,-254.5 448,-254.5 448,-275.25"/>
<text text-anchor="middle" x="392" y="-261.75" font-family="Helvetica,sans-Serif" font-size="10.00">nix::MultiCommand</text>
</a>
</g>
</g>
<!-- Node4&#45;&gt;Node3 -->
<g id="edge3_Node000003_Node000004" class="edge">
<title>Node4&#45;&gt;Node3</title>
<g id="a_edge3_Node000003_Node000004"><a xlink:title=" ">
<path fill="none" stroke="#9a32cd" stroke-dasharray="5,2" d="M392.9,-287.04C392.56,-304.21 389.53,-328.2 377,-344.75 361.53,-365.18 334.61,-377.21 313.7,-383.88"/>
<polygon fill="#9a32cd" stroke="#9a32cd" points="396.4,-287.17 392.78,-277.22 389.4,-287.26 396.4,-287.17"/>
</a>
</g>
<text text-anchor="middle" x="404.46" y="-331.25" font-family="Helvetica,sans-Serif" font-size="10.00" fill="grey"> parent</text>
</g>
<!-- Node5&#45;&gt;Node4 -->
<g id="edge4_Node000004_Node000005" class="edge">
<title>Node5&#45;&gt;Node4</title>
<g id="a_edge4_Node000004_Node000005"><a xlink:title=" ">
<path fill="none" stroke="#63b8ff" d="M341.54,-315.96C354.51,-303.09 371.68,-286.05 382.28,-275.53"/>
<polygon fill="#63b8ff" stroke="#63b8ff" points="339.45,-313.11 334.82,-322.64 344.38,-318.08 339.45,-313.11"/>
</a>
</g>
</g>
<!-- Node8 -->
<g id="Node000008" class="node">
<title>Node8</title>
<g id="a_Node000008"><a xlink:href="structnix_1_1StoreCommand.html" target="_top" xlink:title=" ">
<polygon fill="white" stroke="#666666" points="318.38,-275.25 205.62,-275.25 205.62,-254.5 318.38,-254.5 318.38,-275.25"/>
<text text-anchor="middle" x="262" y="-261.75" font-family="Helvetica,sans-Serif" font-size="10.00">nix::StoreCommand</text>
</a>
</g>
</g>
<!-- Node5&#45;&gt;Node8 -->
<g id="edge10_Node000008_Node000005" class="edge">
<title>Node5&#45;&gt;Node8</title>
<g id="a_edge10_Node000008_Node000005"><a xlink:title=" ">
<path fill="none" stroke="#63b8ff" d="M307.67,-315.59C295.89,-302.77 280.44,-285.95 270.87,-275.53"/>
<polygon fill="#63b8ff" stroke="#63b8ff" points="304.75,-317.59 314.09,-322.59 309.91,-312.86 304.75,-317.59"/>
</a>
</g>
</g>
<!-- Node6&#45;&gt;Node2 -->
<g id="edge6_Node000002_Node000006" class="edge">
<title>Node6&#45;&gt;Node2</title>
<g id="a_edge6_Node000002_Node000006"><a xlink:title=" ">
<path fill="none" stroke="#63b8ff" d="M377.36,-121.43C401.63,-108.43 435.84,-90.1 456.66,-78.95"/>
<polygon fill="#63b8ff" stroke="#63b8ff" points="375.82,-118.29 368.66,-126.1 379.12,-124.46 375.82,-118.29"/>
</a>
</g>
</g>
<!-- Node7 -->
<g id="Node000007" class="node">
<title>Node7</title>
<g id="a_Node000007"><a xlink:href="structnix_1_1EvalCommand.html" target="_top" xlink:title=" ">
<polygon fill="white" stroke="#666666" points="314.12,-217.5 205.88,-217.5 205.88,-196.75 314.12,-196.75 314.12,-217.5"/>
<text text-anchor="middle" x="260" y="-204" font-family="Helvetica,sans-Serif" font-size="10.00">nix::EvalCommand</text>
</a>
</g>
</g>
<!-- Node7&#45;&gt;Node6 -->
<g id="edge8_Node000006_Node000007" class="edge">
<title>Node7&#45;&gt;Node6</title>
<g id="a_edge8_Node000006_Node000007"><a xlink:title=" ">
<path fill="none" stroke="#63b8ff" d="M281.47,-189.84C298.47,-176.95 321.68,-159.35 335.98,-148.5"/>
<polygon fill="#63b8ff" stroke="#63b8ff" points="279.81,-186.71 273.96,-195.54 284.04,-192.29 279.81,-186.71"/>
</a>
</g>
</g>
<!-- Node8&#45;&gt;Node7 -->
<g id="edge9_Node000007_Node000008" class="edge">
<title>Node8&#45;&gt;Node7</title>
<g id="a_edge9_Node000007_Node000008"><a xlink:title=" ">
<path fill="none" stroke="#63b8ff" d="M261.25,-242.93C260.94,-234.27 260.59,-224.65 260.34,-217.72"/>
<polygon fill="#63b8ff" stroke="#63b8ff" points="257.74,-242.78 261.6,-252.65 264.74,-242.53 257.74,-242.78"/>
</a>
</g>
</g>
<!-- Node9&#45;&gt;Node7 -->
<g id="edge11_Node000007_Node000009" class="edge">
<title>Node9&#45;&gt;Node7</title>
<g id="a_edge11_Node000007_Node000009"><a xlink:title=" ">
<path fill="none" stroke="#63b8ff" d="M170.64,-249.3C192.14,-239.39 220.01,-226.55 238.86,-217.87"/>
<polygon fill="#63b8ff" stroke="#63b8ff" points="169.35,-246.04 161.73,-253.4 172.28,-252.4 169.35,-246.04"/>
</a>
</g>
</g>
<!-- Node10&#45;&gt;Node9 -->
<g id="edge13_Node000009_Node000010" class="edge">
<title>Node10&#45;&gt;Node9</title>
<g id="a_edge13_Node000009_Node000010"><a xlink:title=" ">
<path fill="none" stroke="#63b8ff" d="M198.85,-316.37C183.65,-303.55 163.32,-286.4 150.7,-275.75"/>
<polygon fill="#63b8ff" stroke="#63b8ff" points="196.48,-318.95 206.38,-322.73 201,-313.6 196.48,-318.95"/>
</a>
</g>
</g>
<!-- Node11 -->
<g id="Node000011" class="node">
<title>Node11</title>
<g id="a_Node000011"><a xlink:href="structnix_1_1SearchPath.html" target="_top" xlink:title=" ">
<polygon fill="white" stroke="#666666" points="119.5,-344.75 28.5,-344.75 28.5,-324 119.5,-324 119.5,-344.75"/>
<text text-anchor="middle" x="74" y="-331.25" font-family="Helvetica,sans-Serif" font-size="10.00">nix::SearchPath</text>
</a>
</g>
</g>
<!-- Node11&#45;&gt;Node9 -->
<g id="edge15_Node000009_Node000011" class="edge">
<title>Node11&#45;&gt;Node9</title>
<g id="a_edge15_Node000009_Node000011"><a xlink:title=" ">
<path fill="none" stroke="#9a32cd" stroke-dasharray="5,2" d="M71.99,-312.15C72.36,-305.58 73.88,-298.66 77.75,-293.25 83.38,-285.39 91.8,-279.75 100.61,-275.72"/>
<polygon fill="#9a32cd" stroke="#9a32cd" points="68.49,-312.11 72.28,-322 75.48,-311.9 68.49,-312.11"/>
</a>
</g>
<text text-anchor="middle" x="105.88" y="-296.5" font-family="Helvetica,sans-Serif" font-size="10.00" fill="grey"> searchPath</text>
</g>
<!-- Node12 -->
<g id="Node000012" class="node">
<title>Node12</title>
<g id="a_Node000012"><a xlink:href="structnix_1_1flake_1_1LockFlags.html" target="_top" xlink:title=" ">
<polygon fill="white" stroke="#bfbfbf" points="447.5,-217.5 332.5,-217.5 332.5,-196.75 447.5,-196.75 447.5,-217.5"/>
<text text-anchor="middle" x="390" y="-204" font-family="Helvetica,sans-Serif" font-size="10.00">nix::flake::LockFlags</text>
</a>
</g>
</g>
<!-- Node12&#45;&gt;Node6 -->
<g id="edge16_Node000006_Node000012" class="edge">
<title>Node12&#45;&gt;Node6</title>
<g id="a_edge16_Node000006_Node000012"><a xlink:title=" ">
<path fill="none" stroke="#9a32cd" stroke-dasharray="5,2" d="M378.29,-186.85C370.63,-174.23 360.95,-158.3 354.86,-148.28"/>
<polygon fill="#9a32cd" stroke="#9a32cd" points="375.16,-188.43 383.34,-195.16 381.14,-184.8 375.16,-188.43"/>
</a>
</g>
<text text-anchor="middle" x="397.92" y="-169.25" font-family="Helvetica,sans-Serif" font-size="10.00" fill="grey"> lockFlags</text>
</g>
<!-- Node13 -->
<g id="Node000013" class="node">
<title>Node13</title>
<g id="a_Node000013"><a xlink:title=" ">
<polygon fill="white" stroke="#bfbfbf" points="568.88,-148 525.12,-148 525.12,-127.25 568.88,-127.25 568.88,-148"/>
<text text-anchor="middle" x="547" y="-134.5" font-family="Helvetica,sans-Serif" font-size="10.00">string</text>
</a>
</g>
</g>
<!-- Node13&#45;&gt;Node1 -->
<g id="edge18_Node000001_Node000013" class="edge">
<title>Node13&#45;&gt;Node1</title>
<g id="a_edge18_Node000001_Node000013"><a xlink:title=" ">
<path fill="none" stroke="#9a32cd" stroke-dasharray="5,2" d="M553.25,-116.1C554.45,-109.82 555.04,-102.88 554,-96.5 549.33,-67.87 534.47,-36.67 526.38,-21.21"/>
<polygon fill="#9a32cd" stroke="#9a32cd" points="549.91,-115.05 550.86,-125.6 556.7,-116.76 549.91,-115.05"/>
</a>
</g>
<text text-anchor="middle" x="568.8" y="-65" font-family="Helvetica,sans-Serif" font-size="10.00" fill="grey"> destDir</text>
</g>
<!-- Node13&#45;&gt;Node2 -->
<g id="edge17_Node000002_Node000013" class="edge">
<title>Node13&#45;&gt;Node2</title>
<g id="a_edge17_Node000002_Node000013"><a xlink:title=" ">
<path fill="none" stroke="#9a32cd" stroke-dasharray="5,2" d="M525.65,-119.83C521.54,-116.41 517.33,-112.78 513.5,-109.25 502.72,-99.29 491.17,-87.02 483.56,-78.68"/>
<polygon fill="#9a32cd" stroke="#9a32cd" points="523.14,-122.3 533.11,-125.88 527.55,-116.86 523.14,-122.3"/>
</a>
</g>
<text text-anchor="middle" x="533.75" y="-99.75" font-family="Helvetica,sans-Serif" font-size="10.00" fill="grey"> flakeUrl</text>
</g>
</g>
</svg>
