<?xml version="1.0" encoding="UTF-8" standalone="no"?>
<!DOCTYPE svg PUBLIC "-//W3C//DTD SVG 1.1//EN"
 "http://www.w3.org/Graphics/SVG/1.1/DTD/svg11.dtd">
<!-- Generated by graphviz version 12.2.1 (0)
 -->
<!-- Title: nix::Command Pages: 1 -->
<svg width="150pt" height="156pt"
 viewBox="0.00 0.00 149.62 156.00" xmlns="http://www.w3.org/2000/svg" xmlns:xlink="http://www.w3.org/1999/xlink">
<g id="graph0" class="graph" transform="scale(1 1) rotate(0) translate(4 152)">
<title>nix::Command</title>
<!-- Node1 -->
<g id="Node000001" class="node">
<title>Node1</title>
<g id="a_Node000001"><a xlink:title=" ">
<polygon fill="#999999" stroke="#666666" points="141.62,-148 54.38,-148 54.38,-127.25 141.62,-127.25 141.62,-148"/>
<text text-anchor="middle" x="98" y="-134.5" font-family="Helvetica,sans-Serif" font-size="10.00">nix::Command</text>
</a>
</g>
</g>
<!-- Node3 -->
<g id="Node000003" class="node">
<title>Node3</title>
<g id="a_Node000003"><a xlink:href="classnix_1_1MultiCommand.html" target="_top" xlink:title=" ">
<polygon fill="white" stroke="#666666" points="112,-90.25 0,-90.25 0,-69.5 112,-69.5 112,-90.25"/>
<text text-anchor="middle" x="56" y="-76.75" font-family="Helvetica,sans-Serif" font-size="10.00">nix::MultiCommand</text>
</a>
</g>
</g>
<!-- Node1&#45;&gt;Node3 -->
<g id="edge3_Node000003_Node000001" class="edge">
<title>Node1&#45;&gt;Node3</title>
<g id="a_edge3_Node000003_Node000001"><a xlink:title=" ">
<path fill="none" stroke="#63b8ff" d="M83.78,-117.75C76.87,-108.58 68.87,-97.96 63.23,-90.47"/>
<polygon fill="#63b8ff" stroke="#63b8ff" points="80.96,-119.82 89.77,-125.71 86.55,-115.61 80.96,-119.82"/>
</a>
</g>
</g>
<!-- Node2 -->
<g id="Node000002" class="node">
<title>Node2</title>
<g id="a_Node000002"><a xlink:href="classnix_1_1Args.html" target="_top" xlink:title=" ">
<polygon fill="white" stroke="#bfbfbf" points="127.38,-20.75 68.62,-20.75 68.62,0 127.38,0 127.38,-20.75"/>
<text text-anchor="middle" x="98" y="-7.25" font-family="Helvetica,sans-Serif" font-size="10.00">nix::Args</text>
</a>
</g>
</g>
<!-- Node2&#45;&gt;Node1 -->
<g id="edge1_Node000001_Node000002" class="edge">
<title>Node2&#45;&gt;Node1</title>
<g id="a_edge1_Node000001_Node000002"><a xlink:title=" ">
<path fill="none" stroke="#63b8ff" d="M114.61,-30.18C116.35,-32.91 117.89,-35.8 119,-38.75 127.06,-60.19 126.23,-67.95 121,-90.25 117.84,-103.72 110.16,-117.77 104.54,-126.82"/>
<polygon fill="#63b8ff" stroke="#63b8ff" points="117.51,-28.22 108.69,-22.35 111.93,-32.44 117.51,-28.22"/>
</a>
</g>
</g>
<!-- Node3&#45;&gt;Node2 -->
<g id="edge2_Node000002_Node000003" class="edge">
<title>Node3&#45;&gt;Node2</title>
<g id="a_edge2_Node000002_Node000003"><a xlink:title=" ">
<path fill="none" stroke="#9a32cd" stroke-dasharray="5,2" d="M68,-59.6C75.84,-46.98 85.76,-31.05 91.99,-21.03"/>
<polygon fill="#9a32cd" stroke="#9a32cd" points="65.13,-57.58 62.82,-67.92 71.07,-61.28 65.13,-57.58"/>
</a>
</g>
<text text-anchor="middle" x="98.01" y="-42" font-family="Helvetica,sans-Serif" font-size="10.00" fill="grey"> parent</text>
</g>
</g>
</svg>
