<?xml version="1.0" encoding="UTF-8" standalone="no"?>
<!DOCTYPE svg PUBLIC "-//W3C//DTD SVG 1.1//EN"
 "http://www.w3.org/Graphics/SVG/1.1/DTD/svg11.dtd">
<!-- Generated by graphviz version 12.2.1 (0)
 -->
<!-- Title: nix::CmdSign Pages: 1 -->
<svg width="746pt" height="650pt"
 viewBox="0.00 0.00 745.76 649.50" xmlns="http://www.w3.org/2000/svg" xmlns:xlink="http://www.w3.org/1999/xlink">
<g id="graph0" class="graph" transform="scale(1 1) rotate(0) translate(4 645.5)">
<title>nix::CmdSign</title>
<!-- Node1 -->
<g id="Node000001" class="node">
<title>Node1</title>
<g id="a_Node000001"><a xlink:title=" ">
<polygon fill="#999999" stroke="#666666" points="693.25,-20.75 612.75,-20.75 612.75,0 693.25,0 693.25,-20.75"/>
<text text-anchor="middle" x="653" y="-7.25" font-family="Helvetica,sans-Serif" font-size="10.00">nix::CmdSign</text>
</a>
</g>
</g>
<!-- Node2 -->
<g id="Node000002" class="node">
<title>Node2</title>
<g id="a_Node000002"><a xlink:href="structnix_1_1StorePathsCommand.html" target="_top" xlink:title=" ">
<polygon fill="white" stroke="#bfbfbf" points="641.5,-90.25 502.5,-90.25 502.5,-69.5 641.5,-69.5 641.5,-90.25"/>
<text text-anchor="middle" x="572" y="-76.75" font-family="Helvetica,sans-Serif" font-size="10.00">nix::StorePathsCommand</text>
</a>
</g>
</g>
<!-- Node2&#45;&gt;Node1 -->
<g id="edge1_Node000001_Node000002" class="edge">
<title>Node2&#45;&gt;Node1</title>
<g id="a_edge1_Node000001_Node000002"><a xlink:title=" ">
<path fill="none" stroke="#63b8ff" d="M592.4,-61.87C607.79,-49.05 628.37,-31.9 641.15,-21.25"/>
<polygon fill="#63b8ff" stroke="#63b8ff" points="590.21,-59.14 584.77,-68.23 594.69,-64.52 590.21,-59.14"/>
</a>
</g>
</g>
<!-- Node3 -->
<g id="Node000003" class="node">
<title>Node3</title>
<g id="a_Node000003"><a xlink:href="structnix_1_1BuiltPathsCommand.html" target="_top" xlink:title=" ">
<polygon fill="white" stroke="#666666" points="640,-148 504,-148 504,-127.25 640,-127.25 640,-148"/>
<text text-anchor="middle" x="572" y="-134.5" font-family="Helvetica,sans-Serif" font-size="10.00">nix::BuiltPathsCommand</text>
</a>
</g>
</g>
<!-- Node3&#45;&gt;Node2 -->
<g id="edge2_Node000002_Node000003" class="edge">
<title>Node3&#45;&gt;Node2</title>
<g id="a_edge2_Node000002_Node000003"><a xlink:title=" ">
<path fill="none" stroke="#63b8ff" d="M572,-115.68C572,-107.02 572,-97.4 572,-90.47"/>
<polygon fill="#63b8ff" stroke="#63b8ff" points="568.5,-115.4 572,-125.4 575.5,-115.4 568.5,-115.4"/>
</a>
</g>
</g>
<!-- Node4 -->
<g id="Node000004" class="node">
<title>Node4</title>
<g id="a_Node000004"><a xlink:href="structnix_1_1InstallablesCommand.html" target="_top" xlink:title=" ">
<polygon fill="white" stroke="#666666" points="561.75,-205.75 418.25,-205.75 418.25,-185 561.75,-185 561.75,-205.75"/>
<text text-anchor="middle" x="490" y="-192.25" font-family="Helvetica,sans-Serif" font-size="10.00">nix::InstallablesCommand</text>
</a>
</g>
</g>
<!-- Node4&#45;&gt;Node3 -->
<g id="edge3_Node000003_Node000004" class="edge">
<title>Node4&#45;&gt;Node3</title>
<g id="a_edge3_Node000003_Node000004"><a xlink:title=" ">
<path fill="none" stroke="#63b8ff" d="M513.47,-178.42C527.71,-168.74 545.42,-156.7 557.61,-148.41"/>
<polygon fill="#63b8ff" stroke="#63b8ff" points="511.84,-175.3 505.53,-183.81 515.77,-181.09 511.84,-175.3"/>
</a>
</g>
</g>
<!-- Node5 -->
<g id="Node000005" class="node">
<title>Node5</title>
<g id="a_Node000005"><a xlink:href="structnix_1_1RawInstallablesCommand.html" target="_top" xlink:title=" ">
<polygon fill="white" stroke="#666666" points="565.25,-263.5 400.75,-263.5 400.75,-242.75 565.25,-242.75 565.25,-263.5"/>
<text text-anchor="middle" x="483" y="-250" font-family="Helvetica,sans-Serif" font-size="10.00">nix::RawInstallablesCommand</text>
</a>
</g>
</g>
<!-- Node5&#45;&gt;Node4 -->
<g id="edge4_Node000004_Node000005" class="edge">
<title>Node5&#45;&gt;Node4</title>
<g id="a_edge4_Node000004_Node000005"><a xlink:title=" ">
<path fill="none" stroke="#63b8ff" d="M485.63,-231.18C486.72,-222.52 487.93,-212.9 488.79,-205.97"/>
<polygon fill="#63b8ff" stroke="#63b8ff" points="482.18,-230.55 484.41,-240.91 489.13,-231.43 482.18,-230.55"/>
</a>
</g>
</g>
<!-- Node6 -->
<g id="Node000006" class="node">
<title>Node6</title>
<g id="a_Node000006"><a xlink:href="classnix_1_1Args.html" target="_top" xlink:title=" ">
<polygon fill="white" stroke="#bfbfbf" points="413.38,-641.5 354.62,-641.5 354.62,-620.75 413.38,-620.75 413.38,-641.5"/>
<text text-anchor="middle" x="384" y="-628" font-family="Helvetica,sans-Serif" font-size="10.00">nix::Args</text>
</a>
</g>
</g>
<!-- Node6&#45;&gt;Node5 -->
<g id="edge5_Node000005_Node000006" class="edge">
<title>Node6&#45;&gt;Node5</title>
<g id="a_edge5_Node000005_Node000006"><a xlink:title=" ">
<path fill="none" stroke="#63b8ff" d="M425.05,-627.76C460.14,-623.25 505,-610.43 505,-574.38 505,-574.38 505,-574.38 505,-309.88 505,-292.81 495.97,-274.73 489.48,-263.94"/>
<polygon fill="#63b8ff" stroke="#63b8ff" points="424.67,-624.28 415.1,-628.83 425.42,-631.24 424.67,-624.28"/>
</a>
</g>
</g>
<!-- Node8 -->
<g id="Node000008" class="node">
<title>Node8</title>
<g id="a_Node000008"><a xlink:href="structnix_1_1Command.html" target="_top" xlink:title=" ">
<polygon fill="white" stroke="#666666" points="367.62,-583.75 280.38,-583.75 280.38,-563 367.62,-563 367.62,-583.75"/>
<text text-anchor="middle" x="324" y="-570.25" font-family="Helvetica,sans-Serif" font-size="10.00">nix::Command</text>
</a>
</g>
</g>
<!-- Node6&#45;&gt;Node8 -->
<g id="edge8_Node000008_Node000006" class="edge">
<title>Node6&#45;&gt;Node8</title>
<g id="a_edge8_Node000008_Node000006"><a xlink:title=" ">
<path fill="none" stroke="#63b8ff" d="M365.25,-612.7C355.05,-603.22 342.81,-591.86 334.33,-583.97"/>
<polygon fill="#63b8ff" stroke="#63b8ff" points="362.73,-615.14 372.44,-619.38 367.5,-610.01 362.73,-615.14"/>
</a>
</g>
</g>
<!-- Node9 -->
<g id="Node000009" class="node">
<title>Node9</title>
<g id="a_Node000009"><a xlink:href="structnix_1_1SourceExprCommand.html" target="_top" xlink:title=" ">
<polygon fill="white" stroke="#bfbfbf" points="477,-321.25 335,-321.25 335,-300.5 477,-300.5 477,-321.25"/>
<text text-anchor="middle" x="406" y="-307.75" font-family="Helvetica,sans-Serif" font-size="10.00">nix::SourceExprCommand</text>
</a>
</g>
</g>
<!-- Node6&#45;&gt;Node9 -->
<g id="edge10_Node000009_Node000006" class="edge">
<title>Node6&#45;&gt;Node9</title>
<g id="a_edge10_Node000009_Node000006"><a xlink:title=" ">
<path fill="none" stroke="#63b8ff" d="M424.1,-619.47C445.3,-611.16 467,-597.1 467,-574.38 467,-574.38 467,-574.38 467,-367.62 467,-346.25 446.34,-330.87 429.06,-321.75"/>
<polygon fill="#63b8ff" stroke="#63b8ff" points="423.19,-616.08 414.92,-622.71 425.52,-622.68 423.19,-616.08"/>
</a>
</g>
</g>
<!-- Node10 -->
<g id="Node000010" class="node">
<title>Node10</title>
<g id="a_Node000010"><a xlink:href="structnix_1_1MixFlakeOptions.html" target="_top" xlink:title=" ">
<polygon fill="white" stroke="#666666" points="375.38,-379 256.62,-379 256.62,-358.25 375.38,-358.25 375.38,-379"/>
<text text-anchor="middle" x="316" y="-365.5" font-family="Helvetica,sans-Serif" font-size="10.00">nix::MixFlakeOptions</text>
</a>
</g>
</g>
<!-- Node6&#45;&gt;Node10 -->
<g id="edge12_Node000010_Node000006" class="edge">
<title>Node6&#45;&gt;Node10</title>
<g id="a_edge12_Node000010_Node000006"><a xlink:title=" ">
<path fill="none" stroke="#63b8ff" d="M342.85,-628.41C243.75,-623.73 0,-608.72 0,-574.38 0,-574.38 0,-574.38 0,-437.12 0,-385.3 164.58,-373.12 256.19,-370.36"/>
<polygon fill="#63b8ff" stroke="#63b8ff" points="342.53,-631.9 352.68,-628.86 342.85,-624.9 342.53,-631.9"/>
</a>
</g>
</g>
<!-- Node13 -->
<g id="Node000013" class="node">
<title>Node13</title>
<g id="a_Node000013"><a xlink:href="structnix_1_1MixEvalArgs.html" target="_top" xlink:title=" ">
<polygon fill="white" stroke="#bfbfbf" points="178.88,-506.25 81.12,-506.25 81.12,-485.5 178.88,-485.5 178.88,-506.25"/>
<text text-anchor="middle" x="130" y="-492.75" font-family="Helvetica,sans-Serif" font-size="10.00">nix::MixEvalArgs</text>
</a>
</g>
</g>
<!-- Node6&#45;&gt;Node13 -->
<g id="edge17_Node000013_Node000006" class="edge">
<title>Node6&#45;&gt;Node13</title>
<g id="a_edge17_Node000013_Node000006"><a xlink:title=" ">
<path fill="none" stroke="#63b8ff" d="M343.07,-625.89C287.87,-619.44 193.44,-605.54 167,-583.75 142.71,-563.73 134.04,-524.87 131.23,-506.7"/>
<polygon fill="#63b8ff" stroke="#63b8ff" points="342.38,-629.33 352.71,-626.98 343.17,-622.38 342.38,-629.33"/>
</a>
</g>
</g>
<!-- Node14 -->
<g id="Node000014" class="node">
<title>Node14</title>
<g id="a_Node000014"><a xlink:href="structnix_1_1MixRepair.html" target="_top" xlink:title=" ">
<polygon fill="white" stroke="#bfbfbf" points="262.25,-583.75 175.75,-583.75 175.75,-563 262.25,-563 262.25,-583.75"/>
<text text-anchor="middle" x="219" y="-570.25" font-family="Helvetica,sans-Serif" font-size="10.00">nix::MixRepair</text>
</a>
</g>
</g>
<!-- Node6&#45;&gt;Node14 -->
<g id="edge19_Node000014_Node000006" class="edge">
<title>Node6&#45;&gt;Node14</title>
<g id="a_edge19_Node000014_Node000006"><a xlink:title=" ">
<path fill="none" stroke="#63b8ff" d="M344.07,-616.63C314.46,-606.63 274.76,-593.22 248.1,-584.21"/>
<polygon fill="#63b8ff" stroke="#63b8ff" points="342.85,-619.92 353.45,-619.8 345.09,-613.28 342.85,-619.92"/>
</a>
</g>
</g>
<!-- Node17 -->
<g id="Node000017" class="node">
<title>Node17</title>
<g id="a_Node000017"><a xlink:href="structnix_1_1MixOperateOnOptions.html" target="_top" xlink:title=" ">
<polygon fill="white" stroke="#bfbfbf" points="665.5,-545 520.5,-545 520.5,-524.25 665.5,-524.25 665.5,-545"/>
<text text-anchor="middle" x="593" y="-531.5" font-family="Helvetica,sans-Serif" font-size="10.00">nix::MixOperateOnOptions</text>
</a>
</g>
</g>
<!-- Node6&#45;&gt;Node17 -->
<g id="edge23_Node000017_Node000006" class="edge">
<title>Node6&#45;&gt;Node17</title>
<g id="a_edge23_Node000017_Node000006"><a xlink:title=" ">
<path fill="none" stroke="#63b8ff" d="M424.95,-627.52C452.72,-624.42 489.59,-617.63 519,-602.75 547.48,-588.34 573.25,-559.97 585.49,-545.15"/>
<polygon fill="#63b8ff" stroke="#63b8ff" points="424.77,-624.02 415.16,-628.49 425.45,-630.99 424.77,-624.02"/>
</a>
</g>
</g>
<!-- Node7 -->
<g id="Node000007" class="node">
<title>Node7</title>
<g id="a_Node000007"><a xlink:href="classnix_1_1MultiCommand.html" target="_top" xlink:title=" ">
<polygon fill="white" stroke="#666666" points="439,-506.25 327,-506.25 327,-485.5 439,-485.5 439,-506.25"/>
<text text-anchor="middle" x="383" y="-492.75" font-family="Helvetica,sans-Serif" font-size="10.00">nix::MultiCommand</text>
</a>
</g>
</g>
<!-- Node7&#45;&gt;Node6 -->
<g id="edge6_Node000006_Node000007" class="edge">
<title>Node7&#45;&gt;Node6</title>
<g id="a_edge6_Node000006_Node000007"><a xlink:title=" ">
<path fill="none" stroke="#9a32cd" stroke-dasharray="5,2" d="M383.16,-518.12C383.38,-547.48 383.77,-599.23 383.93,-620.54"/>
<polygon fill="#9a32cd" stroke="#9a32cd" points="386.66,-518.22 383.09,-508.24 379.66,-518.27 386.66,-518.22"/>
</a>
</g>
<text text-anchor="middle" x="400.9" y="-570.25" font-family="Helvetica,sans-Serif" font-size="10.00" fill="grey"> parent</text>
</g>
<!-- Node8&#45;&gt;Node7 -->
<g id="edge7_Node000007_Node000008" class="edge">
<title>Node8&#45;&gt;Node7</title>
<g id="a_edge7_Node000007_Node000008"><a xlink:title=" ">
<path fill="none" stroke="#63b8ff" d="M338.67,-553.6C350.36,-538.65 366.23,-518.33 375.47,-506.51"/>
<polygon fill="#63b8ff" stroke="#63b8ff" points="336.04,-551.28 332.65,-561.31 341.56,-555.59 336.04,-551.28"/>
</a>
</g>
</g>
<!-- Node12 -->
<g id="Node000012" class="node">
<title>Node12</title>
<g id="a_Node000012"><a xlink:href="structnix_1_1StoreCommand.html" target="_top" xlink:title=" ">
<polygon fill="white" stroke="#666666" points="309.38,-506.25 196.62,-506.25 196.62,-485.5 309.38,-485.5 309.38,-506.25"/>
<text text-anchor="middle" x="253" y="-492.75" font-family="Helvetica,sans-Serif" font-size="10.00">nix::StoreCommand</text>
</a>
</g>
</g>
<!-- Node8&#45;&gt;Node12 -->
<g id="edge15_Node000012_Node000008" class="edge">
<title>Node8&#45;&gt;Node12</title>
<g id="a_edge15_Node000012_Node000008"><a xlink:title=" ">
<path fill="none" stroke="#63b8ff" d="M307.14,-554.45C293.01,-539.42 273.39,-518.56 262.06,-506.51"/>
<polygon fill="#63b8ff" stroke="#63b8ff" points="304.28,-556.51 313.68,-561.4 309.38,-551.72 304.28,-556.51"/>
</a>
</g>
</g>
<!-- Node9&#45;&gt;Node5 -->
<g id="edge9_Node000005_Node000009" class="edge">
<title>Node9&#45;&gt;Node5</title>
<g id="a_edge9_Node000005_Node000009"><a xlink:title=" ">
<path fill="none" stroke="#63b8ff" d="M428.43,-293.64C441.73,-284.01 458.15,-272.12 469.48,-263.91"/>
<polygon fill="#63b8ff" stroke="#63b8ff" points="426.69,-290.58 420.64,-299.28 430.79,-296.25 426.69,-290.58"/>
</a>
</g>
</g>
<!-- Node10&#45;&gt;Node9 -->
<g id="edge11_Node000009_Node000010" class="edge">
<title>Node10&#45;&gt;Node9</title>
<g id="a_edge11_Node000009_Node000010"><a xlink:title=" ">
<path fill="none" stroke="#63b8ff" d="M341.31,-351.94C357.01,-342.22 376.7,-330.03 390.2,-321.66"/>
<polygon fill="#63b8ff" stroke="#63b8ff" points="339.62,-348.88 332.96,-357.12 343.31,-354.83 339.62,-348.88"/>
</a>
</g>
</g>
<!-- Node11 -->
<g id="Node000011" class="node">
<title>Node11</title>
<g id="a_Node000011"><a xlink:href="structnix_1_1EvalCommand.html" target="_top" xlink:title=" ">
<polygon fill="white" stroke="#666666" points="305.12,-448.5 196.88,-448.5 196.88,-427.75 305.12,-427.75 305.12,-448.5"/>
<text text-anchor="middle" x="251" y="-435" font-family="Helvetica,sans-Serif" font-size="10.00">nix::EvalCommand</text>
</a>
</g>
</g>
<!-- Node11&#45;&gt;Node10 -->
<g id="edge13_Node000010_Node000011" class="edge">
<title>Node11&#45;&gt;Node10</title>
<g id="a_edge13_Node000010_Node000011"><a xlink:title=" ">
<path fill="none" stroke="#63b8ff" d="M268.12,-419.34C280.47,-406.52 296.67,-389.7 306.7,-379.28"/>
<polygon fill="#63b8ff" stroke="#63b8ff" points="265.78,-416.73 261.36,-426.36 270.82,-421.59 265.78,-416.73"/>
</a>
</g>
</g>
<!-- Node12&#45;&gt;Node11 -->
<g id="edge14_Node000011_Node000012" class="edge">
<title>Node12&#45;&gt;Node11</title>
<g id="a_edge14_Node000011_Node000012"><a xlink:title=" ">
<path fill="none" stroke="#63b8ff" d="M252.25,-473.93C251.94,-465.27 251.59,-455.65 251.34,-448.72"/>
<polygon fill="#63b8ff" stroke="#63b8ff" points="248.74,-473.78 252.6,-483.65 255.74,-473.53 248.74,-473.78"/>
</a>
</g>
</g>
<!-- Node13&#45;&gt;Node11 -->
<g id="edge16_Node000011_Node000013" class="edge">
<title>Node13&#45;&gt;Node11</title>
<g id="a_edge16_Node000011_Node000013"><a xlink:title=" ">
<path fill="none" stroke="#63b8ff" d="M161.64,-480.3C183.14,-470.39 211.01,-457.55 229.86,-448.87"/>
<polygon fill="#63b8ff" stroke="#63b8ff" points="160.35,-477.04 152.73,-484.4 163.28,-483.4 160.35,-477.04"/>
</a>
</g>
</g>
<!-- Node14&#45;&gt;Node13 -->
<g id="edge18_Node000013_Node000014" class="edge">
<title>Node14&#45;&gt;Node13</title>
<g id="a_edge18_Node000013_Node000014"><a xlink:title=" ">
<path fill="none" stroke="#63b8ff" d="M198.9,-555.33C181.24,-540.35 156.16,-519.07 141.64,-506.75"/>
<polygon fill="#63b8ff" stroke="#63b8ff" points="196.32,-557.73 206.21,-561.53 200.85,-552.39 196.32,-557.73"/>
</a>
</g>
</g>
<!-- Node15 -->
<g id="Node000015" class="node">
<title>Node15</title>
<g id="a_Node000015"><a xlink:href="structnix_1_1SearchPath.html" target="_top" xlink:title=" ">
<polygon fill="white" stroke="#666666" points="119.5,-583.75 28.5,-583.75 28.5,-563 119.5,-563 119.5,-583.75"/>
<text text-anchor="middle" x="74" y="-570.25" font-family="Helvetica,sans-Serif" font-size="10.00">nix::SearchPath</text>
</a>
</g>
</g>
<!-- Node15&#45;&gt;Node13 -->
<g id="edge20_Node000013_Node000015" class="edge">
<title>Node15&#45;&gt;Node13</title>
<g id="a_edge20_Node000013_Node000015"><a xlink:title=" ">
<path fill="none" stroke="#9a32cd" stroke-dasharray="5,2" d="M71.32,-551.44C71.2,-542.41 72.55,-532.14 77.75,-524.25 82.88,-516.47 90.97,-510.76 99.26,-506.64"/>
<polygon fill="#9a32cd" stroke="#9a32cd" points="67.81,-551.43 72.06,-561.13 74.79,-550.9 67.81,-551.43"/>
</a>
</g>
<text text-anchor="middle" x="105.88" y="-531.5" font-family="Helvetica,sans-Serif" font-size="10.00" fill="grey"> searchPath</text>
</g>
<!-- Node16 -->
<g id="Node000016" class="node">
<title>Node16</title>
<g id="a_Node000016"><a xlink:href="structnix_1_1flake_1_1LockFlags.html" target="_top" xlink:title=" ">
<polygon fill="white" stroke="#bfbfbf" points="438.5,-448.5 323.5,-448.5 323.5,-427.75 438.5,-427.75 438.5,-448.5"/>
<text text-anchor="middle" x="381" y="-435" font-family="Helvetica,sans-Serif" font-size="10.00">nix::flake::LockFlags</text>
</a>
</g>
</g>
<!-- Node16&#45;&gt;Node10 -->
<g id="edge21_Node000010_Node000016" class="edge">
<title>Node16&#45;&gt;Node10</title>
<g id="a_edge21_Node000010_Node000016"><a xlink:title=" ">
<path fill="none" stroke="#9a32cd" stroke-dasharray="5,2" d="M363.88,-419.34C351.53,-406.52 335.33,-389.7 325.3,-379.28"/>
<polygon fill="#9a32cd" stroke="#9a32cd" points="361.18,-421.59 370.64,-426.36 366.22,-416.73 361.18,-421.59"/>
</a>
</g>
<text text-anchor="middle" x="379.07" y="-400.25" font-family="Helvetica,sans-Serif" font-size="10.00" fill="grey"> lockFlags</text>
</g>
<!-- Node17&#45;&gt;Node3 -->
<g id="edge22_Node000003_Node000017" class="edge">
<title>Node17&#45;&gt;Node3</title>
<g id="a_edge22_Node000003_Node000017"><a xlink:title=" ">
<path fill="none" stroke="#63b8ff" d="M593,-512.33C593,-499.37 593,-482.48 593,-467.5 593,-467.5 593,-467.5 593,-194.38 593,-177.41 584.38,-159.3 578.19,-148.48"/>
<polygon fill="#63b8ff" stroke="#63b8ff" points="589.5,-512.25 593,-522.25 596.5,-512.25 589.5,-512.25"/>
</a>
</g>
</g>
<!-- Node18 -->
<g id="Node000018" class="node">
<title>Node18</title>
<g id="a_Node000018"><a xlink:title=" ">
<polygon fill="white" stroke="#bfbfbf" points="702.88,-90.25 659.12,-90.25 659.12,-69.5 702.88,-69.5 702.88,-90.25"/>
<text text-anchor="middle" x="681" y="-76.75" font-family="Helvetica,sans-Serif" font-size="10.00">string</text>
</a>
</g>
</g>
<!-- Node18&#45;&gt;Node1 -->
<g id="edge24_Node000001_Node000018" class="edge">
<title>Node18&#45;&gt;Node1</title>
<g id="a_edge24_Node000001_Node000018"><a xlink:title=" ">
<path fill="none" stroke="#9a32cd" stroke-dasharray="5,2" d="M672.69,-58.83C667.51,-46.35 661.08,-30.85 657,-21.03"/>
<polygon fill="#9a32cd" stroke="#9a32cd" points="669.34,-59.91 676.41,-67.81 675.81,-57.23 669.34,-59.91"/>
</a>
</g>
<text text-anchor="middle" x="703.63" y="-42" font-family="Helvetica,sans-Serif" font-size="10.00" fill="grey"> secretKeyFile</text>
</g>
</g>
</svg>
