<?xml version="1.0" encoding="UTF-8" standalone="no"?>
<!DOCTYPE svg PUBLIC "-//W3C//DTD SVG 1.1//EN"
 "http://www.w3.org/Graphics/SVG/1.1/DTD/svg11.dtd">
<!-- Generated by graphviz version 12.2.1 (0)
 -->
<!-- Title: nix::InstallablesCommand Pages: 1 -->
<svg width="1900pt" height="396pt"
 viewBox="0.00 0.00 1900.25 395.75" xmlns="http://www.w3.org/2000/svg" xmlns:xlink="http://www.w3.org/1999/xlink">
<g id="graph0" class="graph" transform="scale(1 1) rotate(0) translate(4 391.75)">
<title>nix::InstallablesCommand</title>
<!-- Node1 -->
<g id="Node000001" class="node">
<title>Node1</title>
<g id="a_Node000001"><a xlink:title=" ">
<polygon fill="#999999" stroke="#666666" points="1187.75,-191.75 1044.25,-191.75 1044.25,-171 1187.75,-171 1187.75,-191.75"/>
<text text-anchor="middle" x="1116" y="-178.25" font-family="Helvetica,sans-Serif" font-size="10.00">nix::InstallablesCommand</text>
</a>
</g>
</g>
<!-- Node11 -->
<g id="Node000011" class="node">
<title>Node11</title>
<g id="a_Node000011"><a xlink:href="structnix_1_1BuiltPathsCommand.html" target="_top" xlink:title=" ">
<polygon fill="white" stroke="#666666" points="1360.12,-289.75 1224.12,-289.75 1224.12,-269 1360.12,-269 1360.12,-289.75"/>
<text text-anchor="middle" x="1292.12" y="-276.25" font-family="Helvetica,sans-Serif" font-size="10.00">nix::BuiltPathsCommand</text>
</a>
</g>
</g>
<!-- Node1&#45;&gt;Node11 -->
<g id="edge15_Node000001_Node000011" class="edge">
<title>Node1&#45;&gt;Node11</title>
<g id="a_edge15_Node000001_Node000011"><a xlink:title=" ">
<path fill="none" stroke="#63b8ff" d="M1137.4,-199.61C1157.91,-217.11 1191.11,-243.21 1223.75,-259.38 1230.97,-262.95 1238.94,-266.01 1246.8,-268.58"/>
<polygon fill="#63b8ff" stroke="#63b8ff" points="1139.9,-197.15 1130.05,-193.23 1135.31,-202.43 1139.9,-197.15"/>
</a>
</g>
</g>
<!-- Node24 -->
<g id="Node000024" class="node">
<title>Node24</title>
<g id="a_Node000024"><a xlink:href="structnix_1_1CmdBuild.html" target="_top" xlink:title=" ">
<polygon fill="white" stroke="#bfbfbf" points="1334.25,-250.75 1250,-250.75 1250,-230 1334.25,-230 1334.25,-250.75"/>
<text text-anchor="middle" x="1292.12" y="-237.25" font-family="Helvetica,sans-Serif" font-size="10.00">nix::CmdBuild</text>
</a>
</g>
</g>
<!-- Node1&#45;&gt;Node24 -->
<g id="edge28_Node000001_Node000024" class="edge">
<title>Node1&#45;&gt;Node24</title>
<g id="a_edge28_Node000001_Node000024"><a xlink:title=" ">
<path fill="none" stroke="#63b8ff" d="M1155.59,-196.13C1175.79,-203.68 1200.99,-212.85 1223.75,-220.38 1233.25,-223.52 1243.58,-226.7 1253.22,-229.57"/>
<polygon fill="#63b8ff" stroke="#63b8ff" points="1156.94,-192.89 1146.35,-192.65 1154.47,-199.44 1156.94,-192.89"/>
</a>
</g>
</g>
<!-- Node25 -->
<g id="Node000025" class="node">
<title>Node25</title>
<g id="a_Node000025"><a xlink:href="structnix_1_1CmdCopyLog.html" target="_top" xlink:title=" ">
<polygon fill="white" stroke="#bfbfbf" points="1342.88,-211.75 1241.38,-211.75 1241.38,-191 1342.88,-191 1342.88,-211.75"/>
<text text-anchor="middle" x="1292.12" y="-198.25" font-family="Helvetica,sans-Serif" font-size="10.00">nix::CmdCopyLog</text>
</a>
</g>
</g>
<!-- Node1&#45;&gt;Node25 -->
<g id="edge29_Node000001_Node000025" class="edge">
<title>Node1&#45;&gt;Node25</title>
<g id="a_edge29_Node000001_Node000025"><a xlink:title=" ">
<path fill="none" stroke="#63b8ff" d="M1199.42,-190.84C1213.64,-192.47 1228.02,-194.13 1241.05,-195.62"/>
<polygon fill="#63b8ff" stroke="#63b8ff" points="1199.91,-187.38 1189.58,-189.71 1199.11,-194.33 1199.91,-187.38"/>
</a>
</g>
</g>
<!-- Node26 -->
<g id="Node000026" class="node">
<title>Node26</title>
<g id="a_Node000026"><a xlink:href="structnix_1_1CmdProfileInstall.html" target="_top" xlink:title=" ">
<polygon fill="white" stroke="#bfbfbf" points="1352.25,-172.75 1232,-172.75 1232,-152 1352.25,-152 1352.25,-172.75"/>
<text text-anchor="middle" x="1292.12" y="-159.25" font-family="Helvetica,sans-Serif" font-size="10.00">nix::CmdProfileInstall</text>
</a>
</g>
</g>
<!-- Node1&#45;&gt;Node26 -->
<g id="edge30_Node000001_Node000026" class="edge">
<title>Node1&#45;&gt;Node26</title>
<g id="a_edge30_Node000001_Node000026"><a xlink:title=" ">
<path fill="none" stroke="#63b8ff" d="M1199.37,-172.39C1210.27,-171.2 1221.27,-170 1231.68,-168.86"/>
<polygon fill="#63b8ff" stroke="#63b8ff" points="1199.14,-168.89 1189.58,-173.46 1199.9,-175.85 1199.14,-168.89"/>
</a>
</g>
</g>
<!-- Node27 -->
<g id="Node000027" class="node">
<title>Node27</title>
<g id="a_Node000027"><a xlink:href="structnix_1_1CmdShell.html" target="_top" xlink:title=" ">
<polygon fill="white" stroke="#bfbfbf" points="1333.88,-133.75 1250.38,-133.75 1250.38,-113 1333.88,-113 1333.88,-133.75"/>
<text text-anchor="middle" x="1292.12" y="-120.25" font-family="Helvetica,sans-Serif" font-size="10.00">nix::CmdShell</text>
</a>
</g>
</g>
<!-- Node1&#45;&gt;Node27 -->
<g id="edge31_Node000001_Node000027" class="edge">
<title>Node1&#45;&gt;Node27</title>
<g id="a_edge31_Node000001_Node000027"><a xlink:title=" ">
<path fill="none" stroke="#63b8ff" d="M1156.46,-166.76C1176.53,-159.47 1201.34,-150.68 1223.75,-143.38 1233.26,-140.27 1243.59,-137.11 1253.24,-134.23"/>
<polygon fill="#63b8ff" stroke="#63b8ff" points="1155.47,-163.4 1147.28,-170.11 1157.87,-169.97 1155.47,-163.4"/>
</a>
</g>
</g>
<!-- Node28 -->
<g id="Node000028" class="node">
<title>Node28</title>
<g id="a_Node000028"><a xlink:href="structnix_1_1CmdShowDerivation.html" target="_top" xlink:title=" ">
<polygon fill="white" stroke="#bfbfbf" points="1360.5,-94.75 1223.75,-94.75 1223.75,-74 1360.5,-74 1360.5,-94.75"/>
<text text-anchor="middle" x="1292.12" y="-81.25" font-family="Helvetica,sans-Serif" font-size="10.00">nix::CmdShowDerivation</text>
</a>
</g>
</g>
<!-- Node1&#45;&gt;Node28 -->
<g id="edge32_Node000001_Node000028" class="edge">
<title>Node1&#45;&gt;Node28</title>
<g id="a_edge32_Node000001_Node000028"><a xlink:title=" ">
<path fill="none" stroke="#63b8ff" d="M1137.44,-163.39C1157.99,-146.12 1191.2,-120.37 1223.75,-104.38 1230.98,-100.82 1238.96,-97.77 1246.82,-95.2"/>
<polygon fill="#63b8ff" stroke="#63b8ff" points="1135.41,-160.52 1130.09,-169.68 1139.96,-165.84 1135.41,-160.52"/>
</a>
</g>
</g>
<!-- Node2 -->
<g id="Node000002" class="node">
<title>Node2</title>
<g id="a_Node000002"><a xlink:href="structnix_1_1RawInstallablesCommand.html" target="_top" xlink:title=" ">
<polygon fill="white" stroke="#666666" points="1008.25,-191.75 843.75,-191.75 843.75,-171 1008.25,-171 1008.25,-191.75"/>
<text text-anchor="middle" x="926" y="-178.25" font-family="Helvetica,sans-Serif" font-size="10.00">nix::RawInstallablesCommand</text>
</a>
</g>
</g>
<!-- Node2&#45;&gt;Node1 -->
<g id="edge1_Node000001_Node000002" class="edge">
<title>Node2&#45;&gt;Node1</title>
<g id="a_edge1_Node000001_Node000002"><a xlink:title=" ">
<path fill="none" stroke="#63b8ff" d="M1019.93,-181.38C1027.94,-181.38 1035.96,-181.38 1043.76,-181.38"/>
<polygon fill="#63b8ff" stroke="#63b8ff" points="1020.15,-177.88 1010.15,-181.38 1020.15,-184.88 1020.15,-177.88"/>
</a>
</g>
</g>
<!-- Node3 -->
<g id="Node000003" class="node">
<title>Node3</title>
<g id="a_Node000003"><a xlink:href="classnix_1_1Args.html" target="_top" xlink:title=" ">
<polygon fill="white" stroke="#bfbfbf" points="58.75,-115.75 0,-115.75 0,-95 58.75,-95 58.75,-115.75"/>
<text text-anchor="middle" x="29.38" y="-102.25" font-family="Helvetica,sans-Serif" font-size="10.00">nix::Args</text>
</a>
</g>
</g>
<!-- Node3&#45;&gt;Node2 -->
<g id="edge2_Node000002_Node000003" class="edge">
<title>Node3&#45;&gt;Node2</title>
<g id="a_edge2_Node000002_Node000003"><a xlink:title=" ">
<path fill="none" stroke="#63b8ff" d="M49.6,-123.76C61.7,-134.41 78.13,-147.27 94.75,-155.38 168.34,-191.25 191.51,-200.38 273.38,-200.38 273.38,-200.38 273.38,-200.38 571.38,-200.38 664.83,-200.38 771.97,-193.68 843.6,-188.23"/>
<polygon fill="#63b8ff" stroke="#63b8ff" points="52.13,-121.33 42.38,-117.19 47.41,-126.51 52.13,-121.33"/>
</a>
</g>
</g>
<!-- Node4 -->
<g id="Node000004" class="node">
<title>Node4</title>
<g id="a_Node000004"><a xlink:href="structnix_1_1SourceExprCommand.html" target="_top" xlink:title=" ">
<polygon fill="white" stroke="#bfbfbf" points="807.75,-172.75 665.75,-172.75 665.75,-152 807.75,-152 807.75,-172.75"/>
<text text-anchor="middle" x="736.75" y="-159.25" font-family="Helvetica,sans-Serif" font-size="10.00">nix::SourceExprCommand</text>
</a>
</g>
</g>
<!-- Node3&#45;&gt;Node4 -->
<g id="edge4_Node000004_Node000003" class="edge">
<title>Node3&#45;&gt;Node4</title>
<g id="a_edge4_Node000004_Node000003"><a xlink:title=" ">
<path fill="none" stroke="#63b8ff" d="M68.61,-120.11C115.94,-137 199.36,-162.38 273.38,-162.38 273.38,-162.38 273.38,-162.38 421.88,-162.38 505.52,-162.38 601.7,-162.38 665.32,-162.38"/>
<polygon fill="#63b8ff" stroke="#63b8ff" points="69.96,-116.88 59.37,-116.75 67.57,-123.46 69.96,-116.88"/>
</a>
</g>
</g>
<!-- Node5 -->
<g id="Node000005" class="node">
<title>Node5</title>
<g id="a_Node000005"><a xlink:href="structnix_1_1MixFlakeOptions.html" target="_top" xlink:title=" ">
<polygon fill="white" stroke="#666666" points="629.75,-134.75 511,-134.75 511,-114 629.75,-114 629.75,-134.75"/>
<text text-anchor="middle" x="570.38" y="-121.25" font-family="Helvetica,sans-Serif" font-size="10.00">nix::MixFlakeOptions</text>
</a>
</g>
</g>
<!-- Node3&#45;&gt;Node5 -->
<g id="edge6_Node000005_Node000003" class="edge">
<title>Node3&#45;&gt;Node5</title>
<g id="a_edge6_Node000005_Node000003"><a xlink:title=" ">
<path fill="none" stroke="#63b8ff" d="M70.24,-106.78C164.27,-110.09 400.29,-118.41 510.7,-122.31"/>
<polygon fill="#63b8ff" stroke="#63b8ff" points="70.6,-103.29 60.49,-106.44 70.36,-110.29 70.6,-103.29"/>
</a>
</g>
</g>
<!-- Node8 -->
<g id="Node000008" class="node">
<title>Node8</title>
<g id="a_Node000008"><a xlink:href="structnix_1_1Command.html" target="_top" xlink:title=" ">
<polygon fill="white" stroke="#666666" points="182,-96.75 94.75,-96.75 94.75,-76 182,-76 182,-96.75"/>
<text text-anchor="middle" x="138.38" y="-83.25" font-family="Helvetica,sans-Serif" font-size="10.00">nix::Command</text>
</a>
</g>
</g>
<!-- Node3&#45;&gt;Node8 -->
<g id="edge10_Node000008_Node000003" class="edge">
<title>Node3&#45;&gt;Node8</title>
<g id="a_edge10_Node000008_Node000003"><a xlink:title=" ">
<path fill="none" stroke="#63b8ff" d="M70.26,-98.29C78.17,-96.89 86.52,-95.41 94.53,-93.98"/>
<polygon fill="#63b8ff" stroke="#63b8ff" points="69.77,-94.82 60.54,-100.02 71,-101.72 69.77,-94.82"/>
</a>
</g>
</g>
<!-- Node9 -->
<g id="Node000009" class="node">
<title>Node9</title>
<g id="a_Node000009"><a xlink:href="structnix_1_1MixEvalArgs.html" target="_top" xlink:title=" ">
<polygon fill="white" stroke="#bfbfbf" points="323.25,-57.75 225.5,-57.75 225.5,-37 323.25,-37 323.25,-57.75"/>
<text text-anchor="middle" x="274.38" y="-44.25" font-family="Helvetica,sans-Serif" font-size="10.00">nix::MixEvalArgs</text>
</a>
</g>
</g>
<!-- Node3&#45;&gt;Node9 -->
<g id="edge12_Node000009_Node000003" class="edge">
<title>Node3&#45;&gt;Node9</title>
<g id="a_edge12_Node000009_Node000003"><a xlink:title=" ">
<path fill="none" stroke="#63b8ff" d="M54.03,-88.15C65.72,-80.51 80.37,-72.18 94.75,-67.38 137.37,-53.14 188.56,-48.59 225.19,-47.33"/>
<polygon fill="#63b8ff" stroke="#63b8ff" points="52.14,-85.2 45.85,-93.72 56.08,-90.98 52.14,-85.2"/>
</a>
</g>
</g>
<!-- Node10 -->
<g id="Node000010" class="node">
<title>Node10</title>
<g id="a_Node000010"><a xlink:href="structnix_1_1MixRepair.html" target="_top" xlink:title=" ">
<polygon fill="white" stroke="#bfbfbf" points="181.62,-20.75 95.12,-20.75 95.12,0 181.62,0 181.62,-20.75"/>
<text text-anchor="middle" x="138.38" y="-7.25" font-family="Helvetica,sans-Serif" font-size="10.00">nix::MixRepair</text>
</a>
</g>
</g>
<!-- Node3&#45;&gt;Node10 -->
<g id="edge14_Node000010_Node000003" class="edge">
<title>Node3&#45;&gt;Node10</title>
<g id="a_edge14_Node000010_Node000003"><a xlink:title=" ">
<path fill="none" stroke="#63b8ff" d="M45.3,-85.71C57.49,-70.49 75.76,-49.53 94.75,-34.38 100.99,-29.4 108.39,-24.84 115.27,-21.06"/>
<polygon fill="#63b8ff" stroke="#63b8ff" points="42.55,-83.54 39.15,-93.57 48.07,-87.85 42.55,-83.54"/>
</a>
</g>
</g>
<!-- Node4&#45;&gt;Node2 -->
<g id="edge3_Node000002_Node000004" class="edge">
<title>Node4&#45;&gt;Node2</title>
<g id="a_edge3_Node000002_Node000004"><a xlink:title=" ">
<path fill="none" stroke="#63b8ff" d="M819.21,-170.64C827.2,-171.45 835.32,-172.28 843.32,-173.09"/>
<polygon fill="#63b8ff" stroke="#63b8ff" points="819.82,-167.18 809.51,-169.66 819.11,-174.15 819.82,-167.18"/>
</a>
</g>
</g>
<!-- Node5&#45;&gt;Node4 -->
<g id="edge5_Node000004_Node000005" class="edge">
<title>Node5&#45;&gt;Node4</title>
<g id="a_edge5_Node000004_Node000005"><a xlink:title=" ">
<path fill="none" stroke="#63b8ff" d="M629,-137.7C648.63,-142.23 670.3,-147.25 688.97,-151.56"/>
<polygon fill="#63b8ff" stroke="#63b8ff" points="630.04,-134.35 619.51,-135.5 628.47,-141.17 630.04,-134.35"/>
</a>
</g>
</g>
<!-- Node6 -->
<g id="Node000006" class="node">
<title>Node6</title>
<g id="a_Node000006"><a xlink:href="structnix_1_1EvalCommand.html" target="_top" xlink:title=" ">
<polygon fill="white" stroke="#666666" points="475,-96.75 366.75,-96.75 366.75,-76 475,-76 475,-96.75"/>
<text text-anchor="middle" x="420.88" y="-83.25" font-family="Helvetica,sans-Serif" font-size="10.00">nix::EvalCommand</text>
</a>
</g>
</g>
<!-- Node6&#45;&gt;Node5 -->
<g id="edge7_Node000005_Node000006" class="edge">
<title>Node6&#45;&gt;Node5</title>
<g id="a_edge7_Node000005_Node000006"><a xlink:title=" ">
<path fill="none" stroke="#63b8ff" d="M474.82,-100.01C492.1,-104.47 511.04,-109.35 527.4,-113.56"/>
<polygon fill="#63b8ff" stroke="#63b8ff" points="475.77,-96.65 465.21,-97.54 474.02,-103.42 475.77,-96.65"/>
</a>
</g>
</g>
<!-- Node7 -->
<g id="Node000007" class="node">
<title>Node7</title>
<g id="a_Node000007"><a xlink:href="structnix_1_1StoreCommand.html" target="_top" xlink:title=" ">
<polygon fill="white" stroke="#666666" points="330.75,-96.75 218,-96.75 218,-76 330.75,-76 330.75,-96.75"/>
<text text-anchor="middle" x="274.38" y="-83.25" font-family="Helvetica,sans-Serif" font-size="10.00">nix::StoreCommand</text>
</a>
</g>
</g>
<!-- Node7&#45;&gt;Node6 -->
<g id="edge8_Node000006_Node000007" class="edge">
<title>Node7&#45;&gt;Node6</title>
<g id="a_edge8_Node000006_Node000007"><a xlink:title=" ">
<path fill="none" stroke="#63b8ff" d="M342.53,-86.38C350.58,-86.38 358.71,-86.38 366.53,-86.38"/>
<polygon fill="#63b8ff" stroke="#63b8ff" points="342.76,-82.88 332.76,-86.38 342.76,-89.88 342.76,-82.88"/>
</a>
</g>
</g>
<!-- Node8&#45;&gt;Node7 -->
<g id="edge9_Node000007_Node000008" class="edge">
<title>Node8&#45;&gt;Node7</title>
<g id="a_edge9_Node000007_Node000008"><a xlink:title=" ">
<path fill="none" stroke="#63b8ff" d="M193.59,-86.38C201.57,-86.38 209.79,-86.38 217.79,-86.38"/>
<polygon fill="#63b8ff" stroke="#63b8ff" points="193.66,-82.88 183.66,-86.38 193.66,-89.88 193.66,-82.88"/>
</a>
</g>
</g>
<!-- Node9&#45;&gt;Node6 -->
<g id="edge11_Node000006_Node000009" class="edge">
<title>Node9&#45;&gt;Node6</title>
<g id="a_edge11_Node000006_Node000009"><a xlink:title=" ">
<path fill="none" stroke="#63b8ff" d="M326.73,-61.24C344.09,-65.92 363.21,-71.08 379.59,-75.5"/>
<polygon fill="#63b8ff" stroke="#63b8ff" points="327.65,-57.86 317.09,-58.63 325.83,-64.62 327.65,-57.86"/>
</a>
</g>
</g>
<!-- Node10&#45;&gt;Node9 -->
<g id="edge13_Node000009_Node000010" class="edge">
<title>Node10&#45;&gt;Node9</title>
<g id="a_edge13_Node000009_Node000010"><a xlink:title=" ">
<path fill="none" stroke="#63b8ff" d="M189.56,-24.23C204.4,-28.33 220.42,-32.75 234.44,-36.62"/>
<polygon fill="#63b8ff" stroke="#63b8ff" points="190.52,-20.87 179.95,-21.58 188.66,-27.61 190.52,-20.87"/>
</a>
</g>
</g>
<!-- Node12 -->
<g id="Node000012" class="node">
<title>Node12</title>
<g id="a_Node000012"><a xlink:href="structnix_1_1CmdCopy.html" target="_top" xlink:title=" ">
<polygon fill="white" stroke="#bfbfbf" points="1508.12,-328.75 1423.88,-328.75 1423.88,-308 1508.12,-308 1508.12,-328.75"/>
<text text-anchor="middle" x="1466" y="-315.25" font-family="Helvetica,sans-Serif" font-size="10.00">nix::CmdCopy</text>
</a>
</g>
</g>
<!-- Node11&#45;&gt;Node12 -->
<g id="edge16_Node000011_Node000012" class="edge">
<title>Node11&#45;&gt;Node12</title>
<g id="a_edge16_Node000011_Node000012"><a xlink:title=" ">
<path fill="none" stroke="#63b8ff" d="M1351.93,-292.72C1375.47,-298.06 1402.04,-304.09 1423.51,-308.96"/>
<polygon fill="#63b8ff" stroke="#63b8ff" points="1353,-289.37 1342.48,-290.57 1351.46,-296.2 1353,-289.37"/>
</a>
</g>
</g>
<!-- Node13 -->
<g id="Node000013" class="node">
<title>Node13</title>
<g id="a_Node000013"><a xlink:href="structnix_1_1CmdRealisationInfo.html" target="_top" xlink:title=" ">
<polygon fill="white" stroke="#bfbfbf" points="1532.5,-289.75 1399.5,-289.75 1399.5,-269 1532.5,-269 1532.5,-289.75"/>
<text text-anchor="middle" x="1466" y="-276.25" font-family="Helvetica,sans-Serif" font-size="10.00">nix::CmdRealisationInfo</text>
</a>
</g>
</g>
<!-- Node11&#45;&gt;Node13 -->
<g id="edge17_Node000011_Node000013" class="edge">
<title>Node11&#45;&gt;Node13</title>
<g id="a_edge17_Node000011_Node000013"><a xlink:title=" ">
<path fill="none" stroke="#63b8ff" d="M1371.99,-279.38C1381.08,-279.38 1390.27,-279.38 1399.17,-279.38"/>
<polygon fill="#63b8ff" stroke="#63b8ff" points="1372.07,-275.88 1362.07,-279.38 1372.07,-282.88 1372.07,-275.88"/>
</a>
</g>
</g>
<!-- Node14 -->
<g id="Node000014" class="node">
<title>Node14</title>
<g id="a_Node000014"><a xlink:href="structnix_1_1StorePathsCommand.html" target="_top" xlink:title=" ">
<polygon fill="white" stroke="#bfbfbf" points="1535.5,-250.75 1396.5,-250.75 1396.5,-230 1535.5,-230 1535.5,-250.75"/>
<text text-anchor="middle" x="1466" y="-237.25" font-family="Helvetica,sans-Serif" font-size="10.00">nix::StorePathsCommand</text>
</a>
</g>
</g>
<!-- Node11&#45;&gt;Node14 -->
<g id="edge18_Node000011_Node000014" class="edge">
<title>Node11&#45;&gt;Node14</title>
<g id="a_edge18_Node000011_Node000014"><a xlink:title=" ">
<path fill="none" stroke="#63b8ff" d="M1352.16,-265.98C1373.34,-261.17 1396.95,-255.82 1417.08,-251.25"/>
<polygon fill="#63b8ff" stroke="#63b8ff" points="1351.46,-262.55 1342.48,-268.18 1353,-269.38 1351.46,-262.55"/>
</a>
</g>
</g>
<!-- Node15 -->
<g id="Node000015" class="node">
<title>Node15</title>
<g id="a_Node000015"><a xlink:href="structnix_1_1CmdCopySigs.html" target="_top" xlink:title=" ">
<polygon fill="white" stroke="#bfbfbf" points="1711.25,-387.75 1606.75,-387.75 1606.75,-367 1711.25,-367 1711.25,-387.75"/>
<text text-anchor="middle" x="1659" y="-374.25" font-family="Helvetica,sans-Serif" font-size="10.00">nix::CmdCopySigs</text>
</a>
</g>
</g>
<!-- Node14&#45;&gt;Node15 -->
<g id="edge19_Node000014_Node000015" class="edge">
<title>Node14&#45;&gt;Node15</title>
<g id="a_edge19_Node000014_Node000015"><a xlink:title=" ">
<path fill="none" stroke="#63b8ff" d="M1531.58,-257.09C1532.94,-258.12 1534.25,-259.21 1535.5,-260.38 1569.15,-291.71 1536.97,-327.01 1571.5,-357.38 1581.22,-365.93 1593.88,-371.02 1606.49,-374"/>
<polygon fill="#63b8ff" stroke="#63b8ff" points="1533.56,-254.2 1523.21,-251.95 1529.9,-260.17 1533.56,-254.2"/>
</a>
</g>
</g>
<!-- Node16 -->
<g id="Node000016" class="node">
<title>Node16</title>
<g id="a_Node000016"><a xlink:href="structnix_1_1CmdMakeContentAddressed.html" target="_top" xlink:title=" ">
<polygon fill="white" stroke="#bfbfbf" points="1746.5,-348.75 1571.5,-348.75 1571.5,-328 1746.5,-328 1746.5,-348.75"/>
<text text-anchor="middle" x="1659" y="-335.25" font-family="Helvetica,sans-Serif" font-size="10.00">nix::CmdMakeContentAddressed</text>
</a>
</g>
</g>
<!-- Node14&#45;&gt;Node16 -->
<g id="edge20_Node000014_Node000016" class="edge">
<title>Node14&#45;&gt;Node16</title>
<g id="a_edge20_Node000014_Node000016"><a xlink:title=" ">
<path fill="none" stroke="#63b8ff" d="M1529.18,-256.15C1531.38,-257.45 1533.5,-258.85 1535.5,-260.38 1559.66,-278.73 1546.83,-300.72 1571.5,-318.38 1576.64,-322.05 1582.35,-325.07 1588.32,-327.53"/>
<polygon fill="#63b8ff" stroke="#63b8ff" points="1530.96,-253.13 1520.45,-251.78 1527.83,-259.39 1530.96,-253.13"/>
</a>
</g>
</g>
<!-- Node17 -->
<g id="Node000017" class="node">
<title>Node17</title>
<g id="a_Node000017"><a xlink:href="structnix_1_1CmdPathInfo.html" target="_top" xlink:title=" ">
<polygon fill="white" stroke="#bfbfbf" points="1708.62,-309.75 1609.38,-309.75 1609.38,-289 1708.62,-289 1708.62,-309.75"/>
<text text-anchor="middle" x="1659" y="-296.25" font-family="Helvetica,sans-Serif" font-size="10.00">nix::CmdPathInfo</text>
</a>
</g>
</g>
<!-- Node14&#45;&gt;Node17 -->
<g id="edge21_Node000014_Node000017" class="edge">
<title>Node14&#45;&gt;Node17</title>
<g id="a_edge21_Node000014_Node000017"><a xlink:title=" ">
<path fill="none" stroke="#63b8ff" d="M1519.97,-254.68C1525.27,-256.45 1530.52,-258.36 1535.5,-260.38 1552.27,-267.17 1554.55,-273.06 1571.5,-279.38 1583.49,-283.84 1596.8,-287.51 1609.31,-290.43"/>
<polygon fill="#63b8ff" stroke="#63b8ff" points="1521.15,-251.38 1510.56,-251.68 1519.02,-258.05 1521.15,-251.38"/>
</a>
</g>
</g>
<!-- Node18 -->
<g id="Node000018" class="node">
<title>Node18</title>
<g id="a_Node000018"><a xlink:href="structnix_1_1CmdSign.html" target="_top" xlink:title=" ">
<polygon fill="white" stroke="#bfbfbf" points="1699.25,-270.75 1618.75,-270.75 1618.75,-250 1699.25,-250 1699.25,-270.75"/>
<text text-anchor="middle" x="1659" y="-257.25" font-family="Helvetica,sans-Serif" font-size="10.00">nix::CmdSign</text>
</a>
</g>
</g>
<!-- Node14&#45;&gt;Node18 -->
<g id="edge22_Node000014_Node000018" class="edge">
<title>Node14&#45;&gt;Node18</title>
<g id="a_edge22_Node000014_Node000018"><a xlink:title=" ">
<path fill="none" stroke="#63b8ff" d="M1547.13,-248.77C1571.71,-251.34 1597.7,-254.06 1618.32,-256.22"/>
<polygon fill="#63b8ff" stroke="#63b8ff" points="1547.77,-245.31 1537.46,-247.75 1547.04,-252.28 1547.77,-245.31"/>
</a>
</g>
</g>
<!-- Node19 -->
<g id="Node000019" class="node">
<title>Node19</title>
<g id="a_Node000019"><a xlink:href="structnix_1_1CmdStoreDelete.html" target="_top" xlink:title=" ">
<polygon fill="white" stroke="#bfbfbf" points="1717.62,-231.75 1600.38,-231.75 1600.38,-211 1717.62,-211 1717.62,-231.75"/>
<text text-anchor="middle" x="1659" y="-218.25" font-family="Helvetica,sans-Serif" font-size="10.00">nix::CmdStoreDelete</text>
</a>
</g>
</g>
<!-- Node14&#45;&gt;Node19 -->
<g id="edge23_Node000014_Node000019" class="edge">
<title>Node14&#45;&gt;Node19</title>
<g id="a_edge23_Node000014_Node000019"><a xlink:title=" ">
<path fill="none" stroke="#63b8ff" d="M1547.2,-232.4C1564.98,-230.63 1583.48,-228.79 1600.16,-227.13"/>
<polygon fill="#63b8ff" stroke="#63b8ff" points="1547.07,-228.89 1537.46,-233.37 1547.76,-235.86 1547.07,-228.89"/>
</a>
</g>
</g>
<!-- Node20 -->
<g id="Node000020" class="node">
<title>Node20</title>
<g id="a_Node000020"><a xlink:href="structnix_1_1CmdStoreRepair.html" target="_top" xlink:title=" ">
<polygon fill="white" stroke="#bfbfbf" points="1717.25,-192.75 1600.75,-192.75 1600.75,-172 1717.25,-172 1717.25,-192.75"/>
<text text-anchor="middle" x="1659" y="-179.25" font-family="Helvetica,sans-Serif" font-size="10.00">nix::CmdStoreRepair</text>
</a>
</g>
</g>
<!-- Node14&#45;&gt;Node20 -->
<g id="edge24_Node000014_Node000020" class="edge">
<title>Node14&#45;&gt;Node20</title>
<g id="a_edge24_Node000014_Node000020"><a xlink:title=" ">
<path fill="none" stroke="#63b8ff" d="M1504.47,-225.5C1524.22,-217.98 1548.96,-209.05 1571.5,-202.38 1582.73,-199.05 1594.92,-195.93 1606.5,-193.2"/>
<polygon fill="#63b8ff" stroke="#63b8ff" points="1503.25,-222.22 1495.18,-229.08 1505.77,-228.75 1503.25,-222.22"/>
</a>
</g>
</g>
<!-- Node21 -->
<g id="Node000021" class="node">
<title>Node21</title>
<g id="a_Node000021"><a xlink:href="structnix_1_1CmdVerify.html" target="_top" xlink:title=" ">
<polygon fill="white" stroke="#bfbfbf" points="1702.62,-153.75 1615.38,-153.75 1615.38,-133 1702.62,-133 1702.62,-153.75"/>
<text text-anchor="middle" x="1659" y="-140.25" font-family="Helvetica,sans-Serif" font-size="10.00">nix::CmdVerify</text>
</a>
</g>
</g>
<!-- Node14&#45;&gt;Node21 -->
<g id="edge25_Node000014_Node000021" class="edge">
<title>Node14&#45;&gt;Node21</title>
<g id="a_edge25_Node000014_Node000021"><a xlink:title=" ">
<path fill="none" stroke="#63b8ff" d="M1486.68,-221.99C1506.58,-204.37 1538.98,-178.33 1571.5,-163.38 1585.08,-157.13 1600.79,-152.74 1615.06,-149.71"/>
<polygon fill="#63b8ff" stroke="#63b8ff" points="1484.4,-219.32 1479.33,-228.63 1489.1,-224.52 1484.4,-219.32"/>
</a>
</g>
</g>
<!-- Node22 -->
<g id="Node000022" class="node">
<title>Node22</title>
<g id="a_Node000022"><a xlink:href="structnix_1_1StorePathCommand.html" target="_top" xlink:title=" ">
<polygon fill="white" stroke="#666666" points="1725.88,-114.75 1592.12,-114.75 1592.12,-94 1725.88,-94 1725.88,-114.75"/>
<text text-anchor="middle" x="1659" y="-101.25" font-family="Helvetica,sans-Serif" font-size="10.00">nix::StorePathCommand</text>
</a>
</g>
</g>
<!-- Node14&#45;&gt;Node22 -->
<g id="edge26_Node000014_Node000022" class="edge">
<title>Node14&#45;&gt;Node22</title>
<g id="a_edge26_Node000014_Node000022"><a xlink:title=" ">
<path fill="none" stroke="#63b8ff" d="M1479.52,-220.07C1496.84,-193.77 1530.65,-148.44 1571.5,-124.38 1577.74,-120.7 1584.61,-117.7 1591.66,-115.25"/>
<polygon fill="#63b8ff" stroke="#63b8ff" points="1476.58,-218.17 1474.14,-228.48 1482.48,-221.94 1476.58,-218.17"/>
</a>
</g>
</g>
<!-- Node23 -->
<g id="Node000023" class="node">
<title>Node23</title>
<g id="a_Node000023"><a xlink:href="structnix_1_1CmdDumpPath.html" target="_top" xlink:title=" ">
<polygon fill="white" stroke="#bfbfbf" points="1892.25,-114.75 1782.5,-114.75 1782.5,-94 1892.25,-94 1892.25,-114.75"/>
<text text-anchor="middle" x="1837.38" y="-101.25" font-family="Helvetica,sans-Serif" font-size="10.00">nix::CmdDumpPath</text>
</a>
</g>
</g>
<!-- Node22&#45;&gt;Node23 -->
<g id="edge27_Node000022_Node000023" class="edge">
<title>Node22&#45;&gt;Node23</title>
<g id="a_edge27_Node000022_Node000023"><a xlink:title=" ">
<path fill="none" stroke="#63b8ff" d="M1737.58,-104.38C1752.63,-104.38 1768.1,-104.38 1782.2,-104.38"/>
<polygon fill="#63b8ff" stroke="#63b8ff" points="1737.69,-100.88 1727.69,-104.38 1737.69,-107.88 1737.69,-100.88"/>
</a>
</g>
</g>
</g>
</svg>
