<?xml version="1.0" encoding="UTF-8" standalone="no"?>
<!DOCTYPE svg PUBLIC "-//W3C//DTD SVG 1.1//EN"
 "http://www.w3.org/Graphics/SVG/1.1/DTD/svg11.dtd">
<!-- Generated by graphviz version 12.2.1 (0)
 -->
<!-- Title: nix::NixArgs Pages: 1 -->
<svg width="530pt" height="237pt"
 viewBox="0.00 0.00 529.75 237.25" xmlns="http://www.w3.org/2000/svg" xmlns:xlink="http://www.w3.org/1999/xlink">
<g id="graph0" class="graph" transform="scale(1 1) rotate(0) translate(4 233.25)">
<title>nix::NixArgs</title>
<!-- Node1 -->
<g id="Node000001" class="node">
<title>Node1</title>
<g id="a_Node000001"><a xlink:title=" ">
<polygon fill="#999999" stroke="#666666" points="326.62,-20.75 251.38,-20.75 251.38,0 326.62,0 326.62,-20.75"/>
<text text-anchor="middle" x="289" y="-7.25" font-family="Helvetica,sans-Serif" font-size="10.00">nix::NixArgs</text>
</a>
</g>
</g>
<!-- Node2 -->
<g id="Node000002" class="node">
<title>Node2</title>
<g id="a_Node000002"><a xlink:href="classnix_1_1MultiCommand.html" target="_top" xlink:title=" ">
<polygon fill="white" stroke="#666666" points="112,-229.25 0,-229.25 0,-208.5 112,-208.5 112,-229.25"/>
<text text-anchor="middle" x="56" y="-215.75" font-family="Helvetica,sans-Serif" font-size="10.00">nix::MultiCommand</text>
</a>
</g>
</g>
<!-- Node2&#45;&gt;Node1 -->
<g id="edge1_Node000001_Node000002" class="edge">
<title>Node2&#45;&gt;Node1</title>
<g id="a_edge1_Node000001_Node000002"><a xlink:title=" ">
<path fill="none" stroke="#63b8ff" d="M44.56,-198.34C28.15,-167.47 3.02,-107.06 33,-69.5 59.87,-35.84 186.6,-20.2 251.1,-14.32"/>
<polygon fill="#63b8ff" stroke="#63b8ff" points="41.44,-199.93 49.36,-206.96 47.55,-196.52 41.44,-199.93"/>
</a>
</g>
</g>
<!-- Node4 -->
<g id="Node000004" class="node">
<title>Node4</title>
<g id="a_Node000004"><a xlink:href="classnix_1_1Args.html" target="_top" xlink:title=" ">
<polygon fill="white" stroke="#bfbfbf" points="142.38,-159.75 83.62,-159.75 83.62,-139 142.38,-139 142.38,-159.75"/>
<text text-anchor="middle" x="113" y="-146.25" font-family="Helvetica,sans-Serif" font-size="10.00">nix::Args</text>
</a>
</g>
</g>
<!-- Node2&#45;&gt;Node4 -->
<g id="edge4_Node000004_Node000002" class="edge">
<title>Node2&#45;&gt;Node4</title>
<g id="a_edge4_Node000004_Node000002"><a xlink:title=" ">
<path fill="none" stroke="#9a32cd" stroke-dasharray="5,2" d="M71.33,-199.72C82.12,-186.94 96.14,-170.35 104.85,-160.03"/>
<polygon fill="#9a32cd" stroke="#9a32cd" points="68.92,-197.15 65.14,-207.05 74.27,-201.67 68.92,-197.15"/>
</a>
</g>
<text text-anchor="middle" x="106.86" y="-181" font-family="Helvetica,sans-Serif" font-size="10.00" fill="grey"> parent</text>
</g>
<!-- Node3 -->
<g id="Node000003" class="node">
<title>Node3</title>
<g id="a_Node000003"><a xlink:href="structnix_1_1Command.html" target="_top" xlink:title=" ">
<polygon fill="white" stroke="#666666" points="129.62,-90.25 42.38,-90.25 42.38,-69.5 129.62,-69.5 129.62,-90.25"/>
<text text-anchor="middle" x="86" y="-76.75" font-family="Helvetica,sans-Serif" font-size="10.00">nix::Command</text>
</a>
</g>
</g>
<!-- Node3&#45;&gt;Node2 -->
<g id="edge2_Node000002_Node000003" class="edge">
<title>Node3&#45;&gt;Node2</title>
<g id="a_edge2_Node000002_Node000003"><a xlink:title=" ">
<path fill="none" stroke="#63b8ff" d="M81.4,-101.87C74.83,-131.9 63,-185.9 58.16,-208.02"/>
<polygon fill="#63b8ff" stroke="#63b8ff" points="84.82,-102.63 83.54,-92.12 77.98,-101.14 84.82,-102.63"/>
</a>
</g>
</g>
<!-- Node4&#45;&gt;Node3 -->
<g id="edge3_Node000003_Node000004" class="edge">
<title>Node4&#45;&gt;Node3</title>
<g id="a_edge3_Node000003_Node000004"><a xlink:title=" ">
<path fill="none" stroke="#63b8ff" d="M104.98,-128.33C99.99,-115.85 93.79,-100.35 89.86,-90.53"/>
<polygon fill="#63b8ff" stroke="#63b8ff" points="101.61,-129.31 108.57,-137.3 108.11,-126.71 101.61,-129.31"/>
</a>
</g>
</g>
<!-- Node5 -->
<g id="Node000005" class="node">
<title>Node5</title>
<g id="a_Node000005"><a xlink:href="classnix_1_1MixCommonArgs.html" target="_top" xlink:title=" ">
<polygon fill="white" stroke="#bfbfbf" points="268.5,-90.25 147.5,-90.25 147.5,-69.5 268.5,-69.5 268.5,-90.25"/>
<text text-anchor="middle" x="208" y="-76.75" font-family="Helvetica,sans-Serif" font-size="10.00">nix::MixCommonArgs</text>
</a>
</g>
</g>
<!-- Node4&#45;&gt;Node5 -->
<g id="edge6_Node000005_Node000004" class="edge">
<title>Node4&#45;&gt;Node5</title>
<g id="a_edge6_Node000005_Node000004"><a xlink:title=" ">
<path fill="none" stroke="#63b8ff" d="M135.91,-132.09C154.07,-119.2 178.84,-101.6 194.11,-90.75"/>
<polygon fill="#63b8ff" stroke="#63b8ff" points="133.97,-129.18 127.84,-137.83 138.02,-134.89 133.97,-129.18"/>
</a>
</g>
</g>
<!-- Node5&#45;&gt;Node1 -->
<g id="edge5_Node000001_Node000005" class="edge">
<title>Node5&#45;&gt;Node1</title>
<g id="a_edge5_Node000001_Node000005"><a xlink:title=" ">
<path fill="none" stroke="#63b8ff" d="M228.4,-61.87C243.79,-49.05 264.37,-31.9 277.15,-21.25"/>
<polygon fill="#63b8ff" stroke="#63b8ff" points="226.21,-59.14 220.77,-68.23 230.69,-64.52 226.21,-59.14"/>
</a>
</g>
</g>
<!-- Node6 -->
<g id="Node000006" class="node">
<title>Node6</title>
<g id="a_Node000006"><a xlink:title=" ">
<polygon fill="white" stroke="#bfbfbf" points="229.88,-159.75 186.12,-159.75 186.12,-139 229.88,-139 229.88,-159.75"/>
<text text-anchor="middle" x="208" y="-146.25" font-family="Helvetica,sans-Serif" font-size="10.00">string</text>
</a>
</g>
</g>
<!-- Node6&#45;&gt;Node5 -->
<g id="edge7_Node000005_Node000006" class="edge">
<title>Node6&#45;&gt;Node5</title>
<g id="a_edge7_Node000005_Node000006"><a xlink:title=" ">
<path fill="none" stroke="#9a32cd" stroke-dasharray="5,2" d="M208,-127.57C208,-115.22 208,-100.15 208,-90.53"/>
<polygon fill="#9a32cd" stroke="#9a32cd" points="204.5,-127.19 208,-137.19 211.5,-127.19 204.5,-127.19"/>
</a>
</g>
<text text-anchor="middle" x="244.75" y="-111.5" font-family="Helvetica,sans-Serif" font-size="10.00" fill="grey"> programName</text>
</g>
<!-- Node7 -->
<g id="Node000007" class="node">
<title>Node7</title>
<g id="a_Node000007"><a xlink:title=" ">
<polygon fill="white" stroke="#bfbfbf" points="347.12,-90.25 286.88,-90.25 286.88,-69.5 347.12,-69.5 347.12,-90.25"/>
<text text-anchor="middle" x="317" y="-76.75" font-family="Helvetica,sans-Serif" font-size="10.00">RootArgs</text>
</a>
</g>
</g>
<!-- Node7&#45;&gt;Node1 -->
<g id="edge8_Node000001_Node000007" class="edge">
<title>Node7&#45;&gt;Node1</title>
<g id="a_edge8_Node000001_Node000007"><a xlink:title=" ">
<path fill="none" stroke="#63b8ff" d="M308.69,-58.83C303.51,-46.35 297.08,-30.85 293,-21.03"/>
<polygon fill="#63b8ff" stroke="#63b8ff" points="305.34,-59.91 312.41,-67.81 311.81,-57.23 305.34,-59.91"/>
</a>
</g>
</g>
<!-- Node8 -->
<g id="Node000008" class="node">
<title>Node8</title>
<g id="a_Node000008"><a xlink:href="structnix_1_1AsyncIoRoot.html" target="_top" xlink:title=" ">
<polygon fill="white" stroke="#bfbfbf" points="462.88,-90.25 365.12,-90.25 365.12,-69.5 462.88,-69.5 462.88,-90.25"/>
<text text-anchor="middle" x="414" y="-76.75" font-family="Helvetica,sans-Serif" font-size="10.00">nix::AsyncIoRoot</text>
</a>
</g>
</g>
<!-- Node8&#45;&gt;Node1 -->
<g id="edge9_Node000001_Node000008" class="edge">
<title>Node8&#45;&gt;Node1</title>
<g id="a_edge9_Node000001_Node000008"><a xlink:title=" ">
<path fill="none" stroke="#9a32cd" stroke-dasharray="5,2" d="M385.86,-63.68C361.79,-50.68 327.85,-32.35 307.2,-21.2"/>
<polygon fill="#9a32cd" stroke="#9a32cd" points="384.03,-66.67 394.49,-68.34 387.36,-60.51 384.03,-66.67"/>
</a>
</g>
<text text-anchor="middle" x="374.32" y="-42" font-family="Helvetica,sans-Serif" font-size="10.00" fill="grey"> aio_</text>
</g>
<!-- Node9 -->
<g id="Node000009" class="node">
<title>Node9</title>
<g id="a_Node000009"><a xlink:href="structnix_1_1AsyncContext.html" target="_top" xlink:title=" ">
<polygon fill="white" stroke="#bfbfbf" points="466.25,-159.75 361.75,-159.75 361.75,-139 466.25,-139 466.25,-159.75"/>
<text text-anchor="middle" x="414" y="-146.25" font-family="Helvetica,sans-Serif" font-size="10.00">nix::AsyncContext</text>
</a>
</g>
</g>
<!-- Node9&#45;&gt;Node8 -->
<g id="edge10_Node000008_Node000009" class="edge">
<title>Node9&#45;&gt;Node8</title>
<g id="a_edge10_Node000008_Node000009"><a xlink:title=" ">
<path fill="none" stroke="#9a32cd" stroke-dasharray="5,2" d="M414,-127.57C414,-115.22 414,-100.15 414,-90.53"/>
<polygon fill="#9a32cd" stroke="#9a32cd" points="410.5,-127.19 414,-137.19 417.5,-127.19 410.5,-127.19"/>
</a>
</g>
<text text-anchor="middle" x="433.88" y="-111.5" font-family="Helvetica,sans-Serif" font-size="10.00" fill="grey"> context</text>
</g>
<!-- Node9&#45;&gt;Node9 -->
<g id="edge11_Node000009_Node000009" class="edge">
<title>Node9&#45;&gt;Node9</title>
<g id="a_edge11_Node000009_Node000009"><a xlink:title=" ">
<path fill="none" stroke="#9a32cd" stroke-dasharray="5,2" d="M477.77,-153.96C481.81,-152.89 484.25,-151.36 484.25,-149.38 484.25,-145.95 476.96,-143.87 466.69,-143.15"/>
<polygon fill="#9a32cd" stroke="#9a32cd" points="477.57,-150.46 468.19,-155.38 478.6,-157.38 477.57,-150.46"/>
</a>
</g>
<text text-anchor="middle" x="503" y="-146.25" font-family="Helvetica,sans-Serif" font-size="10.00" fill="grey"> current</text>
</g>
</g>
</svg>
