<?xml version="1.0" encoding="UTF-8" standalone="no"?>
<!DOCTYPE svg PUBLIC "-//W3C//DTD SVG 1.1//EN"
 "http://www.w3.org/Graphics/SVG/1.1/DTD/svg11.dtd">
<!-- Generated by graphviz version 12.2.1 (0)
 -->
<!-- Title: nix::CmdMakeContentAddressed Pages: 1 -->
<svg width="868pt" height="662pt"
 viewBox="0.00 0.00 868.38 662.25" xmlns="http://www.w3.org/2000/svg" xmlns:xlink="http://www.w3.org/1999/xlink">
<g id="graph0" class="graph" transform="scale(1 1) rotate(0) translate(4 658.25)">
<title>nix::CmdMakeContentAddressed</title>
<!-- Node1 -->
<g id="Node000001" class="node">
<title>Node1</title>
<g id="a_Node000001"><a xlink:title=" ">
<polygon fill="#999999" stroke="#666666" points="760.38,-20.75 585.38,-20.75 585.38,0 760.38,0 760.38,-20.75"/>
<text text-anchor="middle" x="672.88" y="-7.25" font-family="Helvetica,sans-Serif" font-size="10.00">nix::CmdMakeContentAddressed</text>
</a>
</g>
</g>
<!-- Node2 -->
<g id="Node000002" class="node">
<title>Node2</title>
<g id="a_Node000002"><a xlink:href="structnix_1_1CopyCommand.html" target="_top" xlink:title=" ">
<polygon fill="white" stroke="#666666" points="173.88,-436.75 61.87,-436.75 61.87,-416 173.88,-416 173.88,-436.75"/>
<text text-anchor="middle" x="117.88" y="-423.25" font-family="Helvetica,sans-Serif" font-size="10.00">nix::CopyCommand</text>
</a>
</g>
</g>
<!-- Node2&#45;&gt;Node1 -->
<g id="edge1_Node000001_Node000002" class="edge">
<title>Node2&#45;&gt;Node1</title>
<g id="a_edge1_Node000001_Node000002"><a xlink:title=" ">
<path fill="none" stroke="#63b8ff" d="M159.46,-411.26C182.24,-400.62 205.88,-383.42 205.88,-357.88 205.88,-357.88 205.88,-357.88 205.88,-67.12 205.88,-29.36 449.76,-17.06 585.04,-13.15"/>
<polygon fill="#63b8ff" stroke="#63b8ff" points="158.34,-407.93 150.54,-415.1 161.11,-414.36 158.34,-407.93"/>
</a>
</g>
</g>
<!-- Node3 -->
<g id="Node000003" class="node">
<title>Node3</title>
<g id="a_Node000003"><a xlink:href="structnix_1_1StoreCommand.html" target="_top" xlink:title=" ">
<polygon fill="white" stroke="#666666" points="174.25,-519 61.5,-519 61.5,-498.25 174.25,-498.25 174.25,-519"/>
<text text-anchor="middle" x="117.88" y="-505.5" font-family="Helvetica,sans-Serif" font-size="10.00">nix::StoreCommand</text>
</a>
</g>
</g>
<!-- Node3&#45;&gt;Node2 -->
<g id="edge2_Node000002_Node000003" class="edge">
<title>Node3&#45;&gt;Node2</title>
<g id="a_edge2_Node000002_Node000003"><a xlink:title=" ">
<path fill="none" stroke="#63b8ff" d="M117.88,-486.74C117.88,-470.59 117.88,-448.99 117.88,-436.8"/>
<polygon fill="#63b8ff" stroke="#63b8ff" points="114.38,-486.27 117.88,-496.27 121.38,-486.27 114.38,-486.27"/>
</a>
</g>
</g>
<!-- Node14 -->
<g id="Node000014" class="node">
<title>Node14</title>
<g id="a_Node000014"><a xlink:href="structnix_1_1EvalCommand.html" target="_top" xlink:title=" ">
<polygon fill="white" stroke="#666666" points="468,-436.75 359.75,-436.75 359.75,-416 468,-416 468,-436.75"/>
<text text-anchor="middle" x="413.88" y="-423.25" font-family="Helvetica,sans-Serif" font-size="10.00">nix::EvalCommand</text>
</a>
</g>
</g>
<!-- Node3&#45;&gt;Node14 -->
<g id="edge18_Node000014_Node000003" class="edge">
<title>Node3&#45;&gt;Node14</title>
<g id="a_edge18_Node000014_Node000003"><a xlink:title=" ">
<path fill="none" stroke="#63b8ff" d="M165.07,-494.83C224.23,-478.79 324.33,-451.65 377.75,-437.17"/>
<polygon fill="#63b8ff" stroke="#63b8ff" points="164.37,-491.39 155.63,-497.39 166.2,-498.15 164.37,-491.39"/>
</a>
</g>
</g>
<!-- Node4 -->
<g id="Node000004" class="node">
<title>Node4</title>
<g id="a_Node000004"><a xlink:href="structnix_1_1Command.html" target="_top" xlink:title=" ">
<polygon fill="white" stroke="#666666" points="232.5,-596.5 145.25,-596.5 145.25,-575.75 232.5,-575.75 232.5,-596.5"/>
<text text-anchor="middle" x="188.88" y="-583" font-family="Helvetica,sans-Serif" font-size="10.00">nix::Command</text>
</a>
</g>
</g>
<!-- Node4&#45;&gt;Node3 -->
<g id="edge3_Node000003_Node000004" class="edge">
<title>Node4&#45;&gt;Node3</title>
<g id="a_edge3_Node000003_Node000004"><a xlink:title=" ">
<path fill="none" stroke="#63b8ff" d="M172.02,-567.2C157.89,-552.17 138.26,-531.31 126.93,-519.26"/>
<polygon fill="#63b8ff" stroke="#63b8ff" points="169.16,-569.26 178.56,-574.15 174.26,-564.47 169.16,-569.26"/>
</a>
</g>
</g>
<!-- Node6 -->
<g id="Node000006" class="node">
<title>Node6</title>
<g id="a_Node000006"><a xlink:href="classnix_1_1MultiCommand.html" target="_top" xlink:title=" ">
<polygon fill="white" stroke="#666666" points="303.88,-519 191.88,-519 191.88,-498.25 303.88,-498.25 303.88,-519"/>
<text text-anchor="middle" x="247.88" y="-505.5" font-family="Helvetica,sans-Serif" font-size="10.00">nix::MultiCommand</text>
</a>
</g>
</g>
<!-- Node4&#45;&gt;Node6 -->
<g id="edge6_Node000006_Node000004" class="edge">
<title>Node4&#45;&gt;Node6</title>
<g id="a_edge6_Node000006_Node000004"><a xlink:title=" ">
<path fill="none" stroke="#63b8ff" d="M203.55,-566.35C215.23,-551.4 231.11,-531.08 240.35,-519.26"/>
<polygon fill="#63b8ff" stroke="#63b8ff" points="200.92,-564.03 197.52,-574.06 206.44,-568.34 200.92,-564.03"/>
</a>
</g>
</g>
<!-- Node5 -->
<g id="Node000005" class="node">
<title>Node5</title>
<g id="a_Node000005"><a xlink:href="classnix_1_1Args.html" target="_top" xlink:title=" ">
<polygon fill="white" stroke="#bfbfbf" points="613.25,-654.25 554.5,-654.25 554.5,-633.5 613.25,-633.5 613.25,-654.25"/>
<text text-anchor="middle" x="583.88" y="-640.75" font-family="Helvetica,sans-Serif" font-size="10.00">nix::Args</text>
</a>
</g>
</g>
<!-- Node5&#45;&gt;Node4 -->
<g id="edge4_Node000004_Node000005" class="edge">
<title>Node5&#45;&gt;Node4</title>
<g id="a_edge4_Node000004_Node000005"><a xlink:title=" ">
<path fill="none" stroke="#63b8ff" d="M542.93,-643.66C480.02,-643.94 356.23,-640.79 254.88,-615.5 238.18,-611.33 220.3,-603.41 207.37,-597"/>
<polygon fill="#63b8ff" stroke="#63b8ff" points="542.83,-647.17 552.8,-643.58 542.77,-640.17 542.83,-647.17"/>
</a>
</g>
</g>
<!-- Node11 -->
<g id="Node000011" class="node">
<title>Node11</title>
<g id="a_Node000011"><a xlink:href="structnix_1_1RawInstallablesCommand.html" target="_top" xlink:title=" ">
<polygon fill="white" stroke="#666666" points="722.12,-251.75 557.62,-251.75 557.62,-231 722.12,-231 722.12,-251.75"/>
<text text-anchor="middle" x="639.88" y="-238.25" font-family="Helvetica,sans-Serif" font-size="10.00">nix::RawInstallablesCommand</text>
</a>
</g>
</g>
<!-- Node5&#45;&gt;Node11 -->
<g id="edge12_Node000011_Node000005" class="edge">
<title>Node5&#45;&gt;Node11</title>
<g id="a_edge12_Node000011_Node000005"><a xlink:title=" ">
<path fill="none" stroke="#63b8ff" d="M605.34,-625.43C608.19,-622.36 610.82,-619.02 612.88,-615.5 664.28,-527.37 667.88,-494.65 667.88,-392.62 667.88,-392.62 667.88,-392.62 667.88,-298.12 667.88,-280.36 656.38,-262.48 648.12,-251.92"/>
<polygon fill="#63b8ff" stroke="#63b8ff" points="603.03,-622.79 598.17,-632.2 607.84,-627.88 603.03,-622.79"/>
</a>
</g>
</g>
<!-- Node12 -->
<g id="Node000012" class="node">
<title>Node12</title>
<g id="a_Node000012"><a xlink:href="structnix_1_1SourceExprCommand.html" target="_top" xlink:title=" ">
<polygon fill="white" stroke="#bfbfbf" points="566.88,-309.5 424.88,-309.5 424.88,-288.75 566.88,-288.75 566.88,-309.5"/>
<text text-anchor="middle" x="495.88" y="-296" font-family="Helvetica,sans-Serif" font-size="10.00">nix::SourceExprCommand</text>
</a>
</g>
</g>
<!-- Node5&#45;&gt;Node12 -->
<g id="edge14_Node000012_Node000005" class="edge">
<title>Node5&#45;&gt;Node12</title>
<g id="a_edge14_Node000012_Node000005"><a xlink:title=" ">
<path fill="none" stroke="#63b8ff" d="M543.25,-642.19C471.97,-639.88 331.88,-629.89 331.88,-587.12 331.88,-587.12 331.88,-587.12 331.88,-355.88 331.88,-333.92 385.22,-318.88 431.06,-310"/>
<polygon fill="#63b8ff" stroke="#63b8ff" points="542.87,-645.68 552.96,-642.47 543.06,-638.68 542.87,-645.68"/>
</a>
</g>
</g>
<!-- Node13 -->
<g id="Node000013" class="node">
<title>Node13</title>
<g id="a_Node000013"><a xlink:href="structnix_1_1MixFlakeOptions.html" target="_top" xlink:title=" ">
<polygon fill="white" stroke="#666666" points="555.25,-367.25 436.5,-367.25 436.5,-346.5 555.25,-346.5 555.25,-367.25"/>
<text text-anchor="middle" x="495.88" y="-353.75" font-family="Helvetica,sans-Serif" font-size="10.00">nix::MixFlakeOptions</text>
</a>
</g>
</g>
<!-- Node5&#45;&gt;Node13 -->
<g id="edge16_Node000013_Node000005" class="edge">
<title>Node5&#45;&gt;Node13</title>
<g id="a_edge16_Node000013_Node000005"><a xlink:title=" ">
<path fill="none" stroke="#63b8ff" d="M596.16,-623.13C597.27,-620.64 598.22,-618.06 598.88,-615.5 603.27,-598.34 599.8,-593.03 595.88,-575.75 580.09,-506.24 544.4,-502.07 515.88,-436.75 505.53,-413.06 499.75,-382.93 497.3,-367.68"/>
<polygon fill="#63b8ff" stroke="#63b8ff" points="593.1,-621.44 591.43,-631.91 599.26,-624.77 593.1,-621.44"/>
</a>
</g>
</g>
<!-- Node15 -->
<g id="Node000015" class="node">
<title>Node15</title>
<g id="a_Node000015"><a xlink:href="structnix_1_1MixEvalArgs.html" target="_top" xlink:title=" ">
<polygon fill="white" stroke="#bfbfbf" points="534.75,-519 437,-519 437,-498.25 534.75,-498.25 534.75,-519"/>
<text text-anchor="middle" x="485.88" y="-505.5" font-family="Helvetica,sans-Serif" font-size="10.00">nix::MixEvalArgs</text>
</a>
</g>
</g>
<!-- Node5&#45;&gt;Node15 -->
<g id="edge20_Node000015_Node000005" class="edge">
<title>Node5&#45;&gt;Node15</title>
<g id="a_edge20_Node000015_Node000005"><a xlink:title=" ">
<path fill="none" stroke="#63b8ff" d="M584.96,-621.64C584.99,-598.16 581.43,-560.56 560.88,-537 553.95,-529.06 544.53,-523.42 534.7,-519.42"/>
<polygon fill="#63b8ff" stroke="#63b8ff" points="581.46,-621.44 584.69,-631.53 588.46,-621.63 581.46,-621.44"/>
</a>
</g>
</g>
<!-- Node16 -->
<g id="Node000016" class="node">
<title>Node16</title>
<g id="a_Node000016"><a xlink:href="structnix_1_1MixRepair.html" target="_top" xlink:title=" ">
<polygon fill="white" stroke="#bfbfbf" points="446.12,-596.5 359.62,-596.5 359.62,-575.75 446.12,-575.75 446.12,-596.5"/>
<text text-anchor="middle" x="402.88" y="-583" font-family="Helvetica,sans-Serif" font-size="10.00">nix::MixRepair</text>
</a>
</g>
</g>
<!-- Node5&#45;&gt;Node16 -->
<g id="edge22_Node000016_Node000005" class="edge">
<title>Node5&#45;&gt;Node16</title>
<g id="a_edge22_Node000016_Node000005"><a xlink:title=" ">
<path fill="none" stroke="#63b8ff" d="M543.8,-630.53C510.98,-620.42 465.16,-606.31 434.79,-596.95"/>
<polygon fill="#63b8ff" stroke="#63b8ff" points="542.36,-633.75 552.94,-633.35 544.42,-627.06 542.36,-633.75"/>
</a>
</g>
</g>
<!-- Node19 -->
<g id="Node000019" class="node">
<title>Node19</title>
<g id="a_Node000019"><a xlink:href="structnix_1_1MixOperateOnOptions.html" target="_top" xlink:title=" ">
<polygon fill="white" stroke="#bfbfbf" points="822.38,-557.75 677.38,-557.75 677.38,-537 822.38,-537 822.38,-557.75"/>
<text text-anchor="middle" x="749.88" y="-544.25" font-family="Helvetica,sans-Serif" font-size="10.00">nix::MixOperateOnOptions</text>
</a>
</g>
</g>
<!-- Node5&#45;&gt;Node19 -->
<g id="edge26_Node000019_Node000005" class="edge">
<title>Node5&#45;&gt;Node19</title>
<g id="a_edge26_Node000019_Node000005"><a xlink:title=" ">
<path fill="none" stroke="#63b8ff" d="M624.44,-634.97C641.06,-630.69 660.07,-624.4 675.88,-615.5 703.38,-600.01 729.18,-572.62 741.79,-558.08"/>
<polygon fill="#63b8ff" stroke="#63b8ff" points="623.77,-631.53 614.86,-637.26 625.4,-638.34 623.77,-631.53"/>
</a>
</g>
</g>
<!-- Node20 -->
<g id="Node000020" class="node">
<title>Node20</title>
<g id="a_Node000020"><a xlink:href="structnix_1_1MixJSON.html" target="_top" xlink:title=" ">
<polygon fill="white" stroke="#bfbfbf" points="860.38,-477.88 781.38,-477.88 781.38,-457.12 860.38,-457.12 860.38,-477.88"/>
<text text-anchor="middle" x="820.88" y="-464.38" font-family="Helvetica,sans-Serif" font-size="10.00">nix::MixJSON</text>
</a>
</g>
</g>
<!-- Node5&#45;&gt;Node20 -->
<g id="edge28_Node000020_Node000005" class="edge">
<title>Node5&#45;&gt;Node20</title>
<g id="a_edge28_Node000020_Node000005"><a xlink:title=" ">
<path fill="none" stroke="#63b8ff" d="M624.82,-642.33C681.19,-639.06 780.63,-623.67 823.88,-557.75 840.03,-533.12 830.55,-495.89 824.59,-478.33"/>
<polygon fill="#63b8ff" stroke="#63b8ff" points="624.82,-638.82 614.99,-642.78 625.14,-645.81 624.82,-638.82"/>
</a>
</g>
</g>
<!-- Node6&#45;&gt;Node5 -->
<g id="edge5_Node000005_Node000006" class="edge">
<title>Node6&#45;&gt;Node5</title>
<g id="a_edge5_Node000005_Node000006"><a xlink:title=" ">
<path fill="none" stroke="#9a32cd" stroke-dasharray="5,2" d="M252.17,-530.4C257,-549.46 266.48,-577.54 283.38,-596.5 295.02,-609.57 301.17,-610.28 317.88,-615.5 400.73,-641.4 504.48,-644.07 554.38,-643.63"/>
<polygon fill="#9a32cd" stroke="#9a32cd" points="255.62,-529.8 249.97,-520.84 248.8,-531.37 255.62,-529.8"/>
</a>
</g>
<text text-anchor="middle" x="300.62" y="-583" font-family="Helvetica,sans-Serif" font-size="10.00" fill="grey"> parent</text>
</g>
<!-- Node7 -->
<g id="Node000007" class="node">
<title>Node7</title>
<g id="a_Node000007"><a xlink:title=" ">
<polygon fill="white" stroke="#bfbfbf" points="43.75,-519 0,-519 0,-498.25 43.75,-498.25 43.75,-519"/>
<text text-anchor="middle" x="21.88" y="-505.5" font-family="Helvetica,sans-Serif" font-size="10.00">string</text>
</a>
</g>
</g>
<!-- Node7&#45;&gt;Node2 -->
<g id="edge7_Node000002_Node000007" class="edge">
<title>Node7&#45;&gt;Node2</title>
<g id="a_edge7_Node000002_Node000007"><a xlink:title=" ">
<path fill="none" stroke="#9a32cd" stroke-dasharray="5,2" d="M40.66,-490.33C52.27,-479.81 67.58,-466.24 81.62,-454.75 89.07,-448.66 97.65,-442.16 104.6,-437.02"/>
<polygon fill="#9a32cd" stroke="#9a32cd" points="38.38,-487.67 33.36,-496.99 43.1,-492.84 38.38,-487.67"/>
</a>
</g>
<text text-anchor="middle" x="97.75" y="-470.75" font-family="Helvetica,sans-Serif" font-size="10.00" fill="grey"> dstUri</text>
<text text-anchor="middle" x="97.75" y="-458" font-family="Helvetica,sans-Serif" font-size="10.00" fill="grey">srcUri</text>
</g>
<!-- Node8 -->
<g id="Node000008" class="node">
<title>Node8</title>
<g id="a_Node000008"><a xlink:href="structnix_1_1StorePathsCommand.html" target="_top" xlink:title=" ">
<polygon fill="white" stroke="#bfbfbf" points="742.38,-78.5 603.38,-78.5 603.38,-57.75 742.38,-57.75 742.38,-78.5"/>
<text text-anchor="middle" x="672.88" y="-65" font-family="Helvetica,sans-Serif" font-size="10.00">nix::StorePathsCommand</text>
</a>
</g>
</g>
<!-- Node8&#45;&gt;Node1 -->
<g id="edge8_Node000001_Node000008" class="edge">
<title>Node8&#45;&gt;Node1</title>
<g id="a_edge8_Node000001_Node000008"><a xlink:title=" ">
<path fill="none" stroke="#63b8ff" d="M672.88,-46.18C672.88,-37.52 672.88,-27.9 672.88,-20.97"/>
<polygon fill="#63b8ff" stroke="#63b8ff" points="669.38,-45.9 672.88,-55.9 676.38,-45.9 669.38,-45.9"/>
</a>
</g>
</g>
<!-- Node9 -->
<g id="Node000009" class="node">
<title>Node9</title>
<g id="a_Node000009"><a xlink:href="structnix_1_1BuiltPathsCommand.html" target="_top" xlink:title=" ">
<polygon fill="white" stroke="#666666" points="740.88,-136.25 604.88,-136.25 604.88,-115.5 740.88,-115.5 740.88,-136.25"/>
<text text-anchor="middle" x="672.88" y="-122.75" font-family="Helvetica,sans-Serif" font-size="10.00">nix::BuiltPathsCommand</text>
</a>
</g>
</g>
<!-- Node9&#45;&gt;Node8 -->
<g id="edge9_Node000008_Node000009" class="edge">
<title>Node9&#45;&gt;Node8</title>
<g id="a_edge9_Node000008_Node000009"><a xlink:title=" ">
<path fill="none" stroke="#63b8ff" d="M672.88,-103.93C672.88,-95.27 672.88,-85.65 672.88,-78.72"/>
<polygon fill="#63b8ff" stroke="#63b8ff" points="669.38,-103.65 672.88,-113.65 676.38,-103.65 669.38,-103.65"/>
</a>
</g>
</g>
<!-- Node10 -->
<g id="Node000010" class="node">
<title>Node10</title>
<g id="a_Node000010"><a xlink:href="structnix_1_1InstallablesCommand.html" target="_top" xlink:title=" ">
<polygon fill="white" stroke="#666666" points="718.62,-194 575.12,-194 575.12,-173.25 718.62,-173.25 718.62,-194"/>
<text text-anchor="middle" x="646.88" y="-180.5" font-family="Helvetica,sans-Serif" font-size="10.00">nix::InstallablesCommand</text>
</a>
</g>
</g>
<!-- Node10&#45;&gt;Node9 -->
<g id="edge10_Node000009_Node000010" class="edge">
<title>Node10&#45;&gt;Node9</title>
<g id="a_edge10_Node000009_Node000010"><a xlink:title=" ">
<path fill="none" stroke="#63b8ff" d="M656.23,-162.58C660.37,-153.69 665.06,-143.64 668.4,-136.47"/>
<polygon fill="#63b8ff" stroke="#63b8ff" points="653.1,-161 652.04,-171.54 659.44,-163.96 653.1,-161"/>
</a>
</g>
</g>
<!-- Node11&#45;&gt;Node10 -->
<g id="edge11_Node000010_Node000011" class="edge">
<title>Node11&#45;&gt;Node10</title>
<g id="a_edge11_Node000010_Node000011"><a xlink:title=" ">
<path fill="none" stroke="#63b8ff" d="M642.5,-219.43C643.59,-210.77 644.8,-201.15 645.67,-194.22"/>
<polygon fill="#63b8ff" stroke="#63b8ff" points="639.06,-218.8 641.28,-229.16 646,-219.68 639.06,-218.8"/>
</a>
</g>
</g>
<!-- Node12&#45;&gt;Node11 -->
<g id="edge13_Node000011_Node000012" class="edge">
<title>Node12&#45;&gt;Node11</title>
<g id="a_edge13_Node000011_Node000012"><a xlink:title=" ">
<path fill="none" stroke="#63b8ff" d="M531.78,-284.22C557.6,-274.23 591.77,-261 614.72,-252.12"/>
<polygon fill="#63b8ff" stroke="#63b8ff" points="530.76,-280.87 522.7,-287.74 533.29,-287.39 530.76,-280.87"/>
</a>
</g>
</g>
<!-- Node13&#45;&gt;Node12 -->
<g id="edge15_Node000012_Node000013" class="edge">
<title>Node13&#45;&gt;Node12</title>
<g id="a_edge15_Node000012_Node000013"><a xlink:title=" ">
<path fill="none" stroke="#63b8ff" d="M495.88,-334.93C495.88,-326.27 495.88,-316.65 495.88,-309.72"/>
<polygon fill="#63b8ff" stroke="#63b8ff" points="492.38,-334.65 495.88,-344.65 499.38,-334.65 492.38,-334.65"/>
</a>
</g>
</g>
<!-- Node14&#45;&gt;Node13 -->
<g id="edge17_Node000013_Node000014" class="edge">
<title>Node14&#45;&gt;Node13</title>
<g id="a_edge17_Node000013_Node000014"><a xlink:title=" ">
<path fill="none" stroke="#63b8ff" d="M434.09,-408.73C449.72,-395.87 470.82,-378.5 483.88,-367.75"/>
<polygon fill="#63b8ff" stroke="#63b8ff" points="432.29,-405.68 426.79,-414.74 436.74,-411.09 432.29,-405.68"/>
</a>
</g>
</g>
<!-- Node15&#45;&gt;Node14 -->
<g id="edge19_Node000014_Node000015" class="edge">
<title>Node15&#45;&gt;Node14</title>
<g id="a_edge19_Node000014_Node000015"><a xlink:title=" ">
<path fill="none" stroke="#63b8ff" d="M469.64,-489.53C454.96,-473.17 433.91,-449.71 422.33,-436.8"/>
<polygon fill="#63b8ff" stroke="#63b8ff" points="466.75,-491.55 476.04,-496.66 471.96,-486.88 466.75,-491.55"/>
</a>
</g>
</g>
<!-- Node16&#45;&gt;Node15 -->
<g id="edge21_Node000015_Node000016" class="edge">
<title>Node16&#45;&gt;Node15</title>
<g id="a_edge21_Node000015_Node000016"><a xlink:title=" ">
<path fill="none" stroke="#63b8ff" d="M422.07,-567.66C438.51,-552.71 461.6,-531.71 475.02,-519.5"/>
<polygon fill="#63b8ff" stroke="#63b8ff" points="419.89,-564.92 414.85,-574.24 424.6,-570.1 419.89,-564.92"/>
</a>
</g>
</g>
<!-- Node17 -->
<g id="Node000017" class="node">
<title>Node17</title>
<g id="a_Node000017"><a xlink:href="structnix_1_1SearchPath.html" target="_top" xlink:title=" ">
<polygon fill="white" stroke="#666666" points="555.38,-596.5 464.38,-596.5 464.38,-575.75 555.38,-575.75 555.38,-596.5"/>
<text text-anchor="middle" x="509.88" y="-583" font-family="Helvetica,sans-Serif" font-size="10.00">nix::SearchPath</text>
</a>
</g>
</g>
<!-- Node17&#45;&gt;Node15 -->
<g id="edge23_Node000015_Node000017" class="edge">
<title>Node17&#45;&gt;Node15</title>
<g id="a_edge23_Node000015_Node000017"><a xlink:title=" ">
<path fill="none" stroke="#9a32cd" stroke-dasharray="5,2" d="M503.36,-564.62C498.67,-549.86 492.55,-530.63 488.94,-519.26"/>
<polygon fill="#9a32cd" stroke="#9a32cd" points="499.91,-565.34 506.28,-573.81 506.58,-563.22 499.91,-565.34"/>
</a>
</g>
<text text-anchor="middle" x="528.86" y="-544.25" font-family="Helvetica,sans-Serif" font-size="10.00" fill="grey"> searchPath</text>
</g>
<!-- Node18 -->
<g id="Node000018" class="node">
<title>Node18</title>
<g id="a_Node000018"><a xlink:href="structnix_1_1flake_1_1LockFlags.html" target="_top" xlink:title=" ">
<polygon fill="white" stroke="#bfbfbf" points="639.38,-436.75 524.38,-436.75 524.38,-416 639.38,-416 639.38,-436.75"/>
<text text-anchor="middle" x="581.88" y="-423.25" font-family="Helvetica,sans-Serif" font-size="10.00">nix::flake::LockFlags</text>
</a>
</g>
</g>
<!-- Node18&#45;&gt;Node13 -->
<g id="edge24_Node000013_Node000018" class="edge">
<title>Node18&#45;&gt;Node13</title>
<g id="a_edge24_Node000013_Node000018"><a xlink:title=" ">
<path fill="none" stroke="#9a32cd" stroke-dasharray="5,2" d="M560.67,-408.73C544.28,-395.87 522.15,-378.5 508.45,-367.75"/>
<polygon fill="#9a32cd" stroke="#9a32cd" points="558.34,-411.35 568.36,-414.77 562.66,-405.84 558.34,-411.35"/>
</a>
</g>
<text text-anchor="middle" x="571.33" y="-388.5" font-family="Helvetica,sans-Serif" font-size="10.00" fill="grey"> lockFlags</text>
</g>
<!-- Node19&#45;&gt;Node9 -->
<g id="edge25_Node000009_Node000019" class="edge">
<title>Node19&#45;&gt;Node9</title>
<g id="a_edge25_Node000009_Node000019"><a xlink:title=" ">
<path fill="none" stroke="#63b8ff" d="M749.88,-525.28C749.88,-509.62 749.88,-487.72 749.88,-468.5 749.88,-468.5 749.88,-468.5 749.88,-182.62 749.88,-159.52 726.85,-145.01 705.98,-136.61"/>
<polygon fill="#63b8ff" stroke="#63b8ff" points="746.38,-525.27 749.88,-535.27 753.38,-525.27 746.38,-525.27"/>
</a>
</g>
</g>
<!-- Node20&#45;&gt;Node1 -->
<g id="edge27_Node000001_Node000020" class="edge">
<title>Node20&#45;&gt;Node1</title>
<g id="a_edge27_Node000001_Node000020"><a xlink:title=" ">
<path fill="none" stroke="#63b8ff" d="M810.19,-446.56C803.4,-432.03 795.88,-411.64 795.88,-392.62 795.88,-392.62 795.88,-392.62 795.88,-67.12 795.88,-42.74 775.58,-28.97 751.47,-21.21"/>
<polygon fill="#63b8ff" stroke="#63b8ff" points="807.04,-448.09 814.65,-455.46 813.3,-444.95 807.04,-448.09"/>
</a>
</g>
</g>
</g>
</svg>
