<?xml version="1.0" encoding="UTF-8" standalone="no"?>
<!DOCTYPE svg PUBLIC "-//W3C//DTD SVG 1.1//EN"
 "http://www.w3.org/Graphics/SVG/1.1/DTD/svg11.dtd">
<!-- Generated by graphviz version 12.2.1 (0)
 -->
<!-- Title: nix::CmdLsNar Pages: 1 -->
<svg width="215pt" height="341pt"
 viewBox="0.00 0.00 214.88 341.00" xmlns="http://www.w3.org/2000/svg" xmlns:xlink="http://www.w3.org/1999/xlink">
<g id="graph0" class="graph" transform="scale(1 1) rotate(0) translate(4 337)">
<title>nix::CmdLsNar</title>
<!-- Node1 -->
<g id="Node000001" class="node">
<title>Node1</title>
<g id="a_Node000001"><a xlink:title=" ">
<polygon fill="#999999" stroke="#666666" points="149.62,-20.75 62.38,-20.75 62.38,0 149.62,0 149.62,-20.75"/>
<text text-anchor="middle" x="106" y="-7.25" font-family="Helvetica,sans-Serif" font-size="10.00">nix::CmdLsNar</text>
</a>
</g>
</g>
<!-- Node2 -->
<g id="Node000002" class="node">
<title>Node2</title>
<g id="a_Node000002"><a xlink:href="structnix_1_1Command.html" target="_top" xlink:title=" ">
<polygon fill="white" stroke="#666666" points="127.62,-333 40.38,-333 40.38,-312.25 127.62,-312.25 127.62,-333"/>
<text text-anchor="middle" x="84" y="-319.5" font-family="Helvetica,sans-Serif" font-size="10.00">nix::Command</text>
</a>
</g>
</g>
<!-- Node2&#45;&gt;Node1 -->
<g id="edge1_Node000001_Node000002" class="edge">
<title>Node2&#45;&gt;Node1</title>
<g id="a_edge1_Node000001_Node000002"><a xlink:title=" ">
<path fill="none" stroke="#63b8ff" d="M34.83,-307.47C16.48,-298.92 0,-285.72 0,-265.88 0,-265.88 0,-265.88 0,-67.12 0,-37.5 32.84,-23.58 61.97,-17.06"/>
<polygon fill="#63b8ff" stroke="#63b8ff" points="33.47,-310.69 44.04,-311.29 36.15,-304.23 33.47,-310.69"/>
</a>
</g>
</g>
<!-- Node4 -->
<g id="Node000004" class="node">
<title>Node4</title>
<g id="a_Node000004"><a xlink:href="classnix_1_1MultiCommand.html" target="_top" xlink:title=" ">
<polygon fill="white" stroke="#666666" points="140,-275.25 28,-275.25 28,-254.5 140,-254.5 140,-275.25"/>
<text text-anchor="middle" x="84" y="-261.75" font-family="Helvetica,sans-Serif" font-size="10.00">nix::MultiCommand</text>
</a>
</g>
</g>
<!-- Node2&#45;&gt;Node4 -->
<g id="edge4_Node000004_Node000002" class="edge">
<title>Node2&#45;&gt;Node4</title>
<g id="a_edge4_Node000004_Node000002"><a xlink:title=" ">
<path fill="none" stroke="#63b8ff" d="M84,-300.68C84,-292.02 84,-282.4 84,-275.47"/>
<polygon fill="#63b8ff" stroke="#63b8ff" points="80.5,-300.4 84,-310.4 87.5,-300.4 80.5,-300.4"/>
</a>
</g>
</g>
<!-- Node3 -->
<g id="Node000003" class="node">
<title>Node3</title>
<g id="a_Node000003"><a xlink:href="classnix_1_1Args.html" target="_top" xlink:title=" ">
<polygon fill="white" stroke="#bfbfbf" points="129.38,-205.75 70.62,-205.75 70.62,-185 129.38,-185 129.38,-205.75"/>
<text text-anchor="middle" x="100" y="-192.25" font-family="Helvetica,sans-Serif" font-size="10.00">nix::Args</text>
</a>
</g>
</g>
<!-- Node3&#45;&gt;Node2 -->
<g id="edge2_Node000002_Node000003" class="edge">
<title>Node3&#45;&gt;Node2</title>
<g id="a_edge2_Node000002_Node000003"><a xlink:title=" ">
<path fill="none" stroke="#63b8ff" d="M122.02,-212.98C139.92,-228.64 160.48,-252.96 149,-275.25 140.31,-292.13 122.3,-304.23 107.44,-311.82"/>
<polygon fill="#63b8ff" stroke="#63b8ff" points="124.7,-210.66 114.76,-207 120.25,-216.06 124.7,-210.66"/>
</a>
</g>
</g>
<!-- Node5 -->
<g id="Node000005" class="node">
<title>Node5</title>
<g id="a_Node000005"><a xlink:href="structnix_1_1MixLs.html" target="_top" xlink:title=" ">
<polygon fill="white" stroke="#bfbfbf" points="138.75,-78.5 73.25,-78.5 73.25,-57.75 138.75,-57.75 138.75,-78.5"/>
<text text-anchor="middle" x="106" y="-65" font-family="Helvetica,sans-Serif" font-size="10.00">nix::MixLs</text>
</a>
</g>
</g>
<!-- Node3&#45;&gt;Node5 -->
<g id="edge6_Node000005_Node000003" class="edge">
<title>Node3&#45;&gt;Node5</title>
<g id="a_edge6_Node000005_Node000003"><a xlink:title=" ">
<path fill="none" stroke="#63b8ff" d="M78.26,-177.27C69.95,-169.36 61.4,-159.23 57,-148 53.63,-139.41 53.84,-135.91 57,-127.25 64.34,-107.17 82.01,-89.22 94,-78.76"/>
<polygon fill="#63b8ff" stroke="#63b8ff" points="75.71,-179.68 85.53,-183.66 80.33,-174.42 75.71,-179.68"/>
</a>
</g>
</g>
<!-- Node6 -->
<g id="Node000006" class="node">
<title>Node6</title>
<g id="a_Node000006"><a xlink:href="structnix_1_1MixJSON.html" target="_top" xlink:title=" ">
<polygon fill="white" stroke="#bfbfbf" points="145.5,-148 66.5,-148 66.5,-127.25 145.5,-127.25 145.5,-148"/>
<text text-anchor="middle" x="106" y="-134.5" font-family="Helvetica,sans-Serif" font-size="10.00">nix::MixJSON</text>
</a>
</g>
</g>
<!-- Node3&#45;&gt;Node6 -->
<g id="edge8_Node000006_Node000003" class="edge">
<title>Node3&#45;&gt;Node6</title>
<g id="a_edge8_Node000006_Node000003"><a xlink:title=" ">
<path fill="none" stroke="#63b8ff" d="M102.25,-173.43C103.19,-164.77 104.22,-155.15 104.97,-148.22"/>
<polygon fill="#63b8ff" stroke="#63b8ff" points="98.8,-172.84 101.21,-183.16 105.76,-173.59 98.8,-172.84"/>
</a>
</g>
</g>
<!-- Node4&#45;&gt;Node3 -->
<g id="edge3_Node000003_Node000004" class="edge">
<title>Node4&#45;&gt;Node3</title>
<g id="a_edge3_Node000003_Node000004"><a xlink:title=" ">
<path fill="none" stroke="#9a32cd" stroke-dasharray="5,2" d="M88.93,-243.07C91.86,-230.72 95.43,-215.65 97.71,-206.03"/>
<polygon fill="#9a32cd" stroke="#9a32cd" points="85.54,-242.19 86.64,-252.73 92.35,-243.81 85.54,-242.19"/>
</a>
</g>
<text text-anchor="middle" x="110.68" y="-227" font-family="Helvetica,sans-Serif" font-size="10.00" fill="grey"> parent</text>
</g>
<!-- Node5&#45;&gt;Node1 -->
<g id="edge5_Node000001_Node000005" class="edge">
<title>Node5&#45;&gt;Node1</title>
<g id="a_edge5_Node000001_Node000005"><a xlink:title=" ">
<path fill="none" stroke="#63b8ff" d="M106,-46.18C106,-37.52 106,-27.9 106,-20.97"/>
<polygon fill="#63b8ff" stroke="#63b8ff" points="102.5,-45.9 106,-55.9 109.5,-45.9 102.5,-45.9"/>
</a>
</g>
</g>
<!-- Node6&#45;&gt;Node5 -->
<g id="edge7_Node000005_Node000006" class="edge">
<title>Node6&#45;&gt;Node5</title>
<g id="a_edge7_Node000005_Node000006"><a xlink:title=" ">
<path fill="none" stroke="#63b8ff" d="M106,-115.82C106,-103.47 106,-88.4 106,-78.78"/>
<polygon fill="#63b8ff" stroke="#63b8ff" points="102.5,-115.44 106,-125.44 109.5,-115.44 102.5,-115.44"/>
</a>
</g>
</g>
<!-- Node7 -->
<g id="Node000007" class="node">
<title>Node7</title>
<g id="a_Node000007"><a xlink:title=" ">
<polygon fill="white" stroke="#bfbfbf" points="206.88,-148 163.12,-148 163.12,-127.25 206.88,-127.25 206.88,-148"/>
<text text-anchor="middle" x="185" y="-134.5" font-family="Helvetica,sans-Serif" font-size="10.00">string</text>
</a>
</g>
</g>
<!-- Node7&#45;&gt;Node1 -->
<g id="edge10_Node000001_Node000007" class="edge">
<title>Node7&#45;&gt;Node1</title>
<g id="a_edge10_Node000001_Node000007"><a xlink:title=" ">
<path fill="none" stroke="#9a32cd" stroke-dasharray="5,2" d="M177.46,-116.37C174.93,-109.95 171.98,-102.87 169,-96.5 160.69,-78.76 159.32,-73.74 148,-57.75 138.33,-44.1 125.1,-30.09 116.08,-21.09"/>
<polygon fill="#9a32cd" stroke="#9a32cd" points="174.11,-117.42 180.96,-125.51 180.65,-114.92 174.11,-117.42"/>
</a>
</g>
<text text-anchor="middle" x="180.43" y="-65" font-family="Helvetica,sans-Serif" font-size="10.00" fill="grey"> narPath</text>
</g>
<!-- Node7&#45;&gt;Node5 -->
<g id="edge9_Node000005_Node000007" class="edge">
<title>Node7&#45;&gt;Node5</title>
<g id="a_edge9_Node000005_Node000007"><a xlink:title=" ">
<path fill="none" stroke="#9a32cd" stroke-dasharray="5,2" d="M159.36,-120.64C154.2,-117.09 148.94,-113.2 144.25,-109.25 133.07,-99.82 121.68,-87.44 114.27,-78.94"/>
<polygon fill="#9a32cd" stroke="#9a32cd" points="157.41,-123.55 167.68,-126.15 161.27,-117.72 157.41,-123.55"/>
</a>
</g>
<text text-anchor="middle" x="156.62" y="-99.75" font-family="Helvetica,sans-Serif" font-size="10.00" fill="grey"> path</text>
</g>
</g>
</svg>
