<?xml version="1.0" encoding="UTF-8" standalone="no"?>
<!DOCTYPE svg PUBLIC "-//W3C//DTD SVG 1.1//EN"
 "http://www.w3.org/Graphics/SVG/1.1/DTD/svg11.dtd">
<!-- Generated by graphviz version 12.2.1 (0)
 -->
<!-- Title: nix::CmdWhyDepends Pages: 1 -->
<svg width="376pt" height="369pt"
 viewBox="0.00 0.00 375.50 369.25" xmlns="http://www.w3.org/2000/svg" xmlns:xlink="http://www.w3.org/1999/xlink">
<g id="graph0" class="graph" transform="scale(1 1) rotate(0) translate(4 365.25)">
<title>nix::CmdWhyDepends</title>
<!-- Node1 -->
<g id="Node000001" class="node">
<title>Node1</title>
<g id="a_Node000001"><a xlink:title=" ">
<polygon fill="#999999" stroke="#666666" points="215,-20.75 91,-20.75 91,0 215,0 215,-20.75"/>
<text text-anchor="middle" x="153" y="-7.25" font-family="Helvetica,sans-Serif" font-size="10.00">nix::CmdWhyDepends</text>
</a>
</g>
</g>
<!-- Node2 -->
<g id="Node000002" class="node">
<title>Node2</title>
<g id="a_Node000002"><a xlink:href="structnix_1_1SourceExprCommand.html" target="_top" xlink:title=" ">
<polygon fill="white" stroke="#bfbfbf" points="175,-77.5 33,-77.5 33,-56.75 175,-56.75 175,-77.5"/>
<text text-anchor="middle" x="104" y="-64" font-family="Helvetica,sans-Serif" font-size="10.00">nix::SourceExprCommand</text>
</a>
</g>
</g>
<!-- Node2&#45;&gt;Node1 -->
<g id="edge1_Node000001_Node000002" class="edge">
<title>Node2&#45;&gt;Node1</title>
<g id="a_edge1_Node000001_Node000002"><a xlink:title=" ">
<path fill="none" stroke="#63b8ff" d="M120.2,-48.02C128.25,-39.03 137.65,-28.53 144.32,-21.08"/>
<polygon fill="#63b8ff" stroke="#63b8ff" points="117.83,-45.42 113.77,-55.21 123.05,-50.09 117.83,-45.42"/>
</a>
</g>
</g>
<!-- Node3 -->
<g id="Node000003" class="node">
<title>Node3</title>
<g id="a_Node000003"><a xlink:href="classnix_1_1Args.html" target="_top" xlink:title=" ">
<polygon fill="white" stroke="#bfbfbf" points="175.38,-361.25 116.62,-361.25 116.62,-340.5 175.38,-340.5 175.38,-361.25"/>
<text text-anchor="middle" x="146" y="-347.75" font-family="Helvetica,sans-Serif" font-size="10.00">nix::Args</text>
</a>
</g>
</g>
<!-- Node3&#45;&gt;Node2 -->
<g id="edge2_Node000002_Node000003" class="edge">
<title>Node3&#45;&gt;Node2</title>
<g id="a_edge2_Node000002_Node000003"><a xlink:title=" ">
<path fill="none" stroke="#63b8ff" d="M105.66,-338.25C62.45,-323.02 0,-291.77 0,-238.38 0,-238.38 0,-238.38 0,-179.62 0,-130.65 54.31,-94.23 84.44,-77.8"/>
<polygon fill="#63b8ff" stroke="#63b8ff" points="104.43,-341.52 115.02,-341.38 106.65,-334.89 104.43,-341.52"/>
</a>
</g>
</g>
<!-- Node4 -->
<g id="Node000004" class="node">
<title>Node4</title>
<g id="a_Node000004"><a xlink:href="structnix_1_1MixFlakeOptions.html" target="_top" xlink:title=" ">
<polygon fill="white" stroke="#666666" points="163.38,-134.25 44.62,-134.25 44.62,-113.5 163.38,-113.5 163.38,-134.25"/>
<text text-anchor="middle" x="104" y="-120.75" font-family="Helvetica,sans-Serif" font-size="10.00">nix::MixFlakeOptions</text>
</a>
</g>
</g>
<!-- Node3&#45;&gt;Node4 -->
<g id="edge4_Node000004_Node000003" class="edge">
<title>Node3&#45;&gt;Node4</title>
<g id="a_edge4_Node000004_Node000003"><a xlink:title=" ">
<path fill="none" stroke="#63b8ff" d="M105.68,-339.77C87.49,-332.98 67.7,-321.97 57,-304.5 25.83,-253.62 35.31,-225.02 59,-170.25 65.43,-155.38 79.16,-142.72 89.78,-134.57"/>
<polygon fill="#63b8ff" stroke="#63b8ff" points="104.4,-343.03 114.99,-342.91 106.63,-336.4 104.4,-343.03"/>
</a>
</g>
</g>
<!-- Node7 -->
<g id="Node000007" class="node">
<title>Node7</title>
<g id="a_Node000007"><a xlink:href="structnix_1_1Command.html" target="_top" xlink:title=" ">
<polygon fill="white" stroke="#666666" points="153.62,-304.5 66.38,-304.5 66.38,-283.75 153.62,-283.75 153.62,-304.5"/>
<text text-anchor="middle" x="110" y="-291" font-family="Helvetica,sans-Serif" font-size="10.00">nix::Command</text>
</a>
</g>
</g>
<!-- Node3&#45;&gt;Node7 -->
<g id="edge8_Node000007_Node000003" class="edge">
<title>Node3&#45;&gt;Node7</title>
<g id="a_edge8_Node000007_Node000003"><a xlink:title=" ">
<path fill="none" stroke="#63b8ff" d="M133.35,-330.64C127.61,-321.91 121.08,-311.97 116.38,-304.83"/>
<polygon fill="#63b8ff" stroke="#63b8ff" points="130.31,-332.39 138.73,-338.82 136.16,-328.54 130.31,-332.39"/>
</a>
</g>
</g>
<!-- Node8 -->
<g id="Node000008" class="node">
<title>Node8</title>
<g id="a_Node000008"><a xlink:href="structnix_1_1MixEvalArgs.html" target="_top" xlink:title=" ">
<polygon fill="white" stroke="#bfbfbf" points="293.88,-247.75 196.12,-247.75 196.12,-227 293.88,-227 293.88,-247.75"/>
<text text-anchor="middle" x="245" y="-234.25" font-family="Helvetica,sans-Serif" font-size="10.00">nix::MixEvalArgs</text>
</a>
</g>
</g>
<!-- Node3&#45;&gt;Node8 -->
<g id="edge10_Node000008_Node000003" class="edge">
<title>Node3&#45;&gt;Node8</title>
<g id="a_edge10_Node000008_Node000003"><a xlink:title=" ">
<path fill="none" stroke="#63b8ff" d="M160.66,-331.49C171.54,-318.04 186.87,-299.48 201,-283.75 212.44,-271.02 226.28,-256.95 235.34,-247.91"/>
<polygon fill="#63b8ff" stroke="#63b8ff" points="158.1,-329.1 154.56,-339.09 163.55,-333.48 158.1,-329.1"/>
</a>
</g>
</g>
<!-- Node9 -->
<g id="Node000009" class="node">
<title>Node9</title>
<g id="a_Node000009"><a xlink:href="structnix_1_1MixRepair.html" target="_top" xlink:title=" ">
<polygon fill="white" stroke="#bfbfbf" points="296.25,-304.5 209.75,-304.5 209.75,-283.75 296.25,-283.75 296.25,-304.5"/>
<text text-anchor="middle" x="253" y="-291" font-family="Helvetica,sans-Serif" font-size="10.00">nix::MixRepair</text>
</a>
</g>
</g>
<!-- Node3&#45;&gt;Node9 -->
<g id="edge12_Node000009_Node000003" class="edge">
<title>Node3&#45;&gt;Node9</title>
<g id="a_edge12_Node000009_Node000003"><a xlink:title=" ">
<path fill="none" stroke="#63b8ff" d="M175.21,-334.93C193.95,-325.34 217.73,-313.17 234.04,-304.83"/>
<polygon fill="#63b8ff" stroke="#63b8ff" points="173.78,-331.73 166.48,-339.4 176.97,-337.96 173.78,-331.73"/>
</a>
</g>
</g>
<!-- Node10 -->
<g id="Node000010" class="node">
<title>Node10</title>
<g id="a_Node000010"><a xlink:href="structnix_1_1MixOperateOnOptions.html" target="_top" xlink:title=" ">
<polygon fill="white" stroke="#bfbfbf" points="367.5,-191 222.5,-191 222.5,-170.25 367.5,-170.25 367.5,-191"/>
<text text-anchor="middle" x="295" y="-177.5" font-family="Helvetica,sans-Serif" font-size="10.00">nix::MixOperateOnOptions</text>
</a>
</g>
</g>
<!-- Node3&#45;&gt;Node10 -->
<g id="edge14_Node000010_Node000003" class="edge">
<title>Node3&#45;&gt;Node10</title>
<g id="a_edge14_Node000010_Node000003"><a xlink:title=" ">
<path fill="none" stroke="#63b8ff" d="M186.94,-343.86C229.16,-336.71 290.78,-323.35 305,-304.5 330.91,-270.16 309.97,-214 299.77,-191.45"/>
<polygon fill="#63b8ff" stroke="#63b8ff" points="186.41,-340.4 177.1,-345.46 187.53,-347.31 186.41,-340.4"/>
</a>
</g>
</g>
<!-- Node4&#45;&gt;Node2 -->
<g id="edge3_Node000002_Node000004" class="edge">
<title>Node4&#45;&gt;Node2</title>
<g id="a_edge3_Node000002_Node000004"><a xlink:title=" ">
<path fill="none" stroke="#63b8ff" d="M104,-101.63C104,-93.41 104,-84.43 104,-77.83"/>
<polygon fill="#63b8ff" stroke="#63b8ff" points="100.5,-101.57 104,-111.57 107.5,-101.57 100.5,-101.57"/>
</a>
</g>
</g>
<!-- Node5 -->
<g id="Node000005" class="node">
<title>Node5</title>
<g id="a_Node000005"><a xlink:href="structnix_1_1EvalCommand.html" target="_top" xlink:title=" ">
<polygon fill="white" stroke="#666666" points="176.12,-191 67.88,-191 67.88,-170.25 176.12,-170.25 176.12,-191"/>
<text text-anchor="middle" x="122" y="-177.5" font-family="Helvetica,sans-Serif" font-size="10.00">nix::EvalCommand</text>
</a>
</g>
</g>
<!-- Node5&#45;&gt;Node4 -->
<g id="edge5_Node000004_Node000005" class="edge">
<title>Node5&#45;&gt;Node4</title>
<g id="a_edge5_Node000004_Node000005"><a xlink:title=" ">
<path fill="none" stroke="#63b8ff" d="M115.2,-158.96C112.45,-150.59 109.41,-141.33 107.19,-134.58"/>
<polygon fill="#63b8ff" stroke="#63b8ff" points="111.86,-159.99 118.31,-168.4 118.51,-157.81 111.86,-159.99"/>
</a>
</g>
</g>
<!-- Node6 -->
<g id="Node000006" class="node">
<title>Node6</title>
<g id="a_Node000006"><a xlink:href="structnix_1_1StoreCommand.html" target="_top" xlink:title=" ">
<polygon fill="white" stroke="#666666" points="178.38,-247.75 65.62,-247.75 65.62,-227 178.38,-227 178.38,-247.75"/>
<text text-anchor="middle" x="122" y="-234.25" font-family="Helvetica,sans-Serif" font-size="10.00">nix::StoreCommand</text>
</a>
</g>
</g>
<!-- Node6&#45;&gt;Node5 -->
<g id="edge6_Node000005_Node000006" class="edge">
<title>Node6&#45;&gt;Node5</title>
<g id="a_edge6_Node000005_Node000006"><a xlink:title=" ">
<path fill="none" stroke="#63b8ff" d="M122,-215.13C122,-206.91 122,-197.93 122,-191.33"/>
<polygon fill="#63b8ff" stroke="#63b8ff" points="118.5,-215.07 122,-225.07 125.5,-215.07 118.5,-215.07"/>
</a>
</g>
</g>
<!-- Node7&#45;&gt;Node6 -->
<g id="edge7_Node000006_Node000007" class="edge">
<title>Node7&#45;&gt;Node6</title>
<g id="a_edge7_Node000006_Node000007"><a xlink:title=" ">
<path fill="none" stroke="#63b8ff" d="M114.59,-272.17C116.41,-263.88 118.41,-254.75 119.87,-248.08"/>
<polygon fill="#63b8ff" stroke="#63b8ff" points="111.19,-271.34 112.47,-281.86 118.03,-272.84 111.19,-271.34"/>
</a>
</g>
</g>
<!-- Node8&#45;&gt;Node5 -->
<g id="edge9_Node000005_Node000008" class="edge">
<title>Node8&#45;&gt;Node5</title>
<g id="a_edge9_Node000005_Node000008"><a xlink:title=" ">
<path fill="none" stroke="#63b8ff" d="M212.62,-221.96C190.9,-212.3 162.89,-199.83 143.8,-191.33"/>
<polygon fill="#63b8ff" stroke="#63b8ff" points="211.07,-225.1 221.63,-225.97 213.91,-218.71 211.07,-225.1"/>
</a>
</g>
</g>
<!-- Node9&#45;&gt;Node8 -->
<g id="edge11_Node000008_Node000009" class="edge">
<title>Node9&#45;&gt;Node8</title>
<g id="a_edge11_Node000008_Node000009"><a xlink:title=" ">
<path fill="none" stroke="#63b8ff" d="M249.94,-272.17C248.73,-263.88 247.39,-254.75 246.42,-248.08"/>
<polygon fill="#63b8ff" stroke="#63b8ff" points="246.44,-272.45 251.35,-281.84 253.37,-271.44 246.44,-272.45"/>
</a>
</g>
</g>
<!-- Node10&#45;&gt;Node1 -->
<g id="edge13_Node000001_Node000010" class="edge">
<title>Node10&#45;&gt;Node1</title>
<g id="a_edge13_Node000001_Node000010"><a xlink:title=" ">
<path fill="none" stroke="#63b8ff" d="M279.87,-161.7C250.03,-126.34 184.47,-48.66 161.31,-21.22"/>
<polygon fill="#63b8ff" stroke="#63b8ff" points="276.86,-163.56 285.98,-168.94 282.21,-159.04 276.86,-163.56"/>
</a>
</g>
</g>
</g>
</svg>
