<?xml version="1.0" encoding="UTF-8" standalone="no"?>
<!DOCTYPE svg PUBLIC "-//W3C//DTD SVG 1.1//EN"
 "http://www.w3.org/Graphics/SVG/1.1/DTD/svg11.dtd">
<!-- Generated by graphviz version 12.2.1 (0)
 -->
<!-- Title: nix::CmdSearch Pages: 1 -->
<svg width="365pt" height="426pt"
 viewBox="0.00 0.00 364.50 426.00" xmlns="http://www.w3.org/2000/svg" xmlns:xlink="http://www.w3.org/1999/xlink">
<g id="graph0" class="graph" transform="scale(1 1) rotate(0) translate(4 422)">
<title>nix::CmdSearch</title>
<!-- Node1 -->
<g id="Node000001" class="node">
<title>Node1</title>
<g id="a_Node000001"><a xlink:title=" ">
<polygon fill="#999999" stroke="#666666" points="204.25,-20.75 111.75,-20.75 111.75,0 204.25,0 204.25,-20.75"/>
<text text-anchor="middle" x="158" y="-7.25" font-family="Helvetica,sans-Serif" font-size="10.00">nix::CmdSearch</text>
</a>
</g>
</g>
<!-- Node2 -->
<g id="Node000002" class="node">
<title>Node2</title>
<g id="a_Node000002"><a xlink:href="structnix_1_1InstallableCommand.html" target="_top" xlink:title=" ">
<polygon fill="white" stroke="#666666" points="178.12,-77.5 39.88,-77.5 39.88,-56.75 178.12,-56.75 178.12,-77.5"/>
<text text-anchor="middle" x="109" y="-64" font-family="Helvetica,sans-Serif" font-size="10.00">nix::InstallableCommand</text>
</a>
</g>
</g>
<!-- Node2&#45;&gt;Node1 -->
<g id="edge1_Node000001_Node000002" class="edge">
<title>Node2&#45;&gt;Node1</title>
<g id="a_edge1_Node000001_Node000002"><a xlink:title=" ">
<path fill="none" stroke="#63b8ff" d="M125.2,-48.02C133.25,-39.03 142.65,-28.53 149.32,-21.08"/>
<polygon fill="#63b8ff" stroke="#63b8ff" points="122.83,-45.42 118.77,-55.21 128.05,-50.09 122.83,-45.42"/>
</a>
</g>
</g>
<!-- Node3 -->
<g id="Node000003" class="node">
<title>Node3</title>
<g id="a_Node000003"><a xlink:href="classnix_1_1Args.html" target="_top" xlink:title=" ">
<polygon fill="white" stroke="#bfbfbf" points="177.38,-418 118.62,-418 118.62,-397.25 177.38,-397.25 177.38,-418"/>
<text text-anchor="middle" x="148" y="-404.5" font-family="Helvetica,sans-Serif" font-size="10.00">nix::Args</text>
</a>
</g>
</g>
<!-- Node3&#45;&gt;Node2 -->
<g id="edge2_Node000002_Node000003" class="edge">
<title>Node3&#45;&gt;Node2</title>
<g id="a_edge2_Node000002_Node000003"><a xlink:title=" ">
<path fill="none" stroke="#63b8ff" d="M107.47,-395.29C63.65,-380.26 0,-349.13 0,-295.12 0,-295.12 0,-295.12 0,-179.62 0,-147.53 7.5,-137.33 29,-113.5 43.65,-97.26 65.54,-85.41 82.71,-77.9"/>
<polygon fill="#63b8ff" stroke="#63b8ff" points="106.37,-398.61 116.97,-398.38 108.54,-391.95 106.37,-398.61"/>
</a>
</g>
</g>
<!-- Node4 -->
<g id="Node000004" class="node">
<title>Node4</title>
<g id="a_Node000004"><a xlink:href="structnix_1_1SourceExprCommand.html" target="_top" xlink:title=" ">
<polygon fill="white" stroke="#bfbfbf" points="180,-134.25 38,-134.25 38,-113.5 180,-113.5 180,-134.25"/>
<text text-anchor="middle" x="109" y="-120.75" font-family="Helvetica,sans-Serif" font-size="10.00">nix::SourceExprCommand</text>
</a>
</g>
</g>
<!-- Node3&#45;&gt;Node4 -->
<g id="edge4_Node000004_Node000003" class="edge">
<title>Node3&#45;&gt;Node4</title>
<g id="a_edge4_Node000004_Node000003"><a xlink:title=" ">
<path fill="none" stroke="#63b8ff" d="M116.53,-391.57C84.02,-373.58 38,-340.15 38,-295.12 38,-295.12 38,-295.12 38,-236.38 38,-205.8 40.59,-196.05 57,-170.25 66.39,-155.49 81.98,-142.81 93.65,-134.63"/>
<polygon fill="#63b8ff" stroke="#63b8ff" points="114.72,-394.57 125.19,-396.16 117.99,-388.39 114.72,-394.57"/>
</a>
</g>
</g>
<!-- Node5 -->
<g id="Node000005" class="node">
<title>Node5</title>
<g id="a_Node000005"><a xlink:href="structnix_1_1MixFlakeOptions.html" target="_top" xlink:title=" ">
<polygon fill="white" stroke="#666666" points="184.38,-191 65.62,-191 65.62,-170.25 184.38,-170.25 184.38,-191"/>
<text text-anchor="middle" x="125" y="-177.5" font-family="Helvetica,sans-Serif" font-size="10.00">nix::MixFlakeOptions</text>
</a>
</g>
</g>
<!-- Node3&#45;&gt;Node5 -->
<g id="edge6_Node000005_Node000003" class="edge">
<title>Node3&#45;&gt;Node5</title>
<g id="a_edge6_Node000005_Node000003"><a xlink:title=" ">
<path fill="none" stroke="#63b8ff" d="M120.5,-390.34C110.54,-382.85 100.41,-373.01 95,-361.25 70.05,-307.04 79.7,-284.11 97,-227 101.08,-213.53 110.18,-200.06 116.91,-191.34"/>
<polygon fill="#63b8ff" stroke="#63b8ff" points="118.38,-393.13 128.6,-395.92 122.35,-387.36 118.38,-393.13"/>
</a>
</g>
</g>
<!-- Node8 -->
<g id="Node000008" class="node">
<title>Node8</title>
<g id="a_Node000008"><a xlink:href="structnix_1_1Command.html" target="_top" xlink:title=" ">
<polygon fill="white" stroke="#666666" points="191.62,-361.25 104.38,-361.25 104.38,-340.5 191.62,-340.5 191.62,-361.25"/>
<text text-anchor="middle" x="148" y="-347.75" font-family="Helvetica,sans-Serif" font-size="10.00">nix::Command</text>
</a>
</g>
</g>
<!-- Node3&#45;&gt;Node8 -->
<g id="edge10_Node000008_Node000003" class="edge">
<title>Node3&#45;&gt;Node8</title>
<g id="a_edge10_Node000008_Node000003"><a xlink:title=" ">
<path fill="none" stroke="#63b8ff" d="M148,-385.38C148,-377.16 148,-368.18 148,-361.58"/>
<polygon fill="#63b8ff" stroke="#63b8ff" points="144.5,-385.32 148,-395.32 151.5,-385.32 144.5,-385.32"/>
</a>
</g>
</g>
<!-- Node9 -->
<g id="Node000009" class="node">
<title>Node9</title>
<g id="a_Node000009"><a xlink:href="structnix_1_1MixEvalArgs.html" target="_top" xlink:title=" ">
<polygon fill="white" stroke="#bfbfbf" points="331.88,-304.5 234.12,-304.5 234.12,-283.75 331.88,-283.75 331.88,-304.5"/>
<text text-anchor="middle" x="283" y="-291" font-family="Helvetica,sans-Serif" font-size="10.00">nix::MixEvalArgs</text>
</a>
</g>
</g>
<!-- Node3&#45;&gt;Node9 -->
<g id="edge12_Node000009_Node000003" class="edge">
<title>Node3&#45;&gt;Node9</title>
<g id="a_edge12_Node000009_Node000003"><a xlink:title=" ">
<path fill="none" stroke="#63b8ff" d="M168.26,-389.89C196.83,-366.3 248.04,-324 271.13,-304.93"/>
<polygon fill="#63b8ff" stroke="#63b8ff" points="166.16,-387.09 160.68,-396.15 170.62,-392.49 166.16,-387.09"/>
</a>
</g>
</g>
<!-- Node10 -->
<g id="Node000010" class="node">
<title>Node10</title>
<g id="a_Node000010"><a xlink:href="structnix_1_1MixRepair.html" target="_top" xlink:title=" ">
<polygon fill="white" stroke="#bfbfbf" points="334.25,-361.25 247.75,-361.25 247.75,-340.5 334.25,-340.5 334.25,-361.25"/>
<text text-anchor="middle" x="291" y="-347.75" font-family="Helvetica,sans-Serif" font-size="10.00">nix::MixRepair</text>
</a>
</g>
</g>
<!-- Node3&#45;&gt;Node10 -->
<g id="edge14_Node000010_Node000003" class="edge">
<title>Node3&#45;&gt;Node10</title>
<g id="a_edge14_Node000010_Node000003"><a xlink:title=" ">
<path fill="none" stroke="#63b8ff" d="M184.27,-392.74C209.7,-383 243.05,-370.23 265.66,-361.58"/>
<polygon fill="#63b8ff" stroke="#63b8ff" points="183.07,-389.45 174.98,-396.3 185.57,-395.99 183.07,-389.45"/>
</a>
</g>
</g>
<!-- Node11 -->
<g id="Node000011" class="node">
<title>Node11</title>
<g id="a_Node000011"><a xlink:href="structnix_1_1MixJSON.html" target="_top" xlink:title=" ">
<polygon fill="white" stroke="#bfbfbf" points="356.5,-247.75 277.5,-247.75 277.5,-227 356.5,-227 356.5,-247.75"/>
<text text-anchor="middle" x="317" y="-234.25" font-family="Helvetica,sans-Serif" font-size="10.00">nix::MixJSON</text>
</a>
</g>
</g>
<!-- Node3&#45;&gt;Node11 -->
<g id="edge16_Node000011_Node000003" class="edge">
<title>Node3&#45;&gt;Node11</title>
<g id="a_edge16_Node000011_Node000003"><a xlink:title=" ">
<path fill="none" stroke="#63b8ff" d="M189.05,-402.97C240.47,-397.44 324.15,-384.99 343,-361.25 370.25,-326.93 338.68,-270.75 323.86,-248.2"/>
<polygon fill="#63b8ff" stroke="#63b8ff" points="188.76,-399.48 179.17,-403.98 189.48,-406.44 188.76,-399.48"/>
</a>
</g>
</g>
<!-- Node4&#45;&gt;Node2 -->
<g id="edge3_Node000002_Node000004" class="edge">
<title>Node4&#45;&gt;Node2</title>
<g id="a_edge3_Node000002_Node000004"><a xlink:title=" ">
<path fill="none" stroke="#63b8ff" d="M109,-101.63C109,-93.41 109,-84.43 109,-77.83"/>
<polygon fill="#63b8ff" stroke="#63b8ff" points="105.5,-101.57 109,-111.57 112.5,-101.57 105.5,-101.57"/>
</a>
</g>
</g>
<!-- Node5&#45;&gt;Node4 -->
<g id="edge5_Node000004_Node000005" class="edge">
<title>Node5&#45;&gt;Node4</title>
<g id="a_edge5_Node000004_Node000005"><a xlink:title=" ">
<path fill="none" stroke="#63b8ff" d="M118.96,-158.96C116.51,-150.59 113.81,-141.33 111.84,-134.58"/>
<polygon fill="#63b8ff" stroke="#63b8ff" points="115.55,-159.77 121.71,-168.38 122.27,-157.8 115.55,-159.77"/>
</a>
</g>
</g>
<!-- Node6 -->
<g id="Node000006" class="node">
<title>Node6</title>
<g id="a_Node000006"><a xlink:href="structnix_1_1EvalCommand.html" target="_top" xlink:title=" ">
<polygon fill="white" stroke="#666666" points="214.12,-247.75 105.88,-247.75 105.88,-227 214.12,-227 214.12,-247.75"/>
<text text-anchor="middle" x="160" y="-234.25" font-family="Helvetica,sans-Serif" font-size="10.00">nix::EvalCommand</text>
</a>
</g>
</g>
<!-- Node6&#45;&gt;Node5 -->
<g id="edge7_Node000005_Node000006" class="edge">
<title>Node6&#45;&gt;Node5</title>
<g id="a_edge7_Node000005_Node000006"><a xlink:title=" ">
<path fill="none" stroke="#63b8ff" d="M147.7,-217.14C142.12,-208.41 135.77,-198.47 131.2,-191.33"/>
<polygon fill="#63b8ff" stroke="#63b8ff" points="144.59,-218.77 152.93,-225.31 150.49,-215 144.59,-218.77"/>
</a>
</g>
</g>
<!-- Node7 -->
<g id="Node000007" class="node">
<title>Node7</title>
<g id="a_Node000007"><a xlink:href="structnix_1_1StoreCommand.html" target="_top" xlink:title=" ">
<polygon fill="white" stroke="#666666" points="216.38,-304.5 103.62,-304.5 103.62,-283.75 216.38,-283.75 216.38,-304.5"/>
<text text-anchor="middle" x="160" y="-291" font-family="Helvetica,sans-Serif" font-size="10.00">nix::StoreCommand</text>
</a>
</g>
</g>
<!-- Node7&#45;&gt;Node6 -->
<g id="edge8_Node000006_Node000007" class="edge">
<title>Node7&#45;&gt;Node6</title>
<g id="a_edge8_Node000006_Node000007"><a xlink:title=" ">
<path fill="none" stroke="#63b8ff" d="M160,-271.88C160,-263.66 160,-254.68 160,-248.08"/>
<polygon fill="#63b8ff" stroke="#63b8ff" points="156.5,-271.82 160,-281.82 163.5,-271.82 156.5,-271.82"/>
</a>
</g>
</g>
<!-- Node8&#45;&gt;Node7 -->
<g id="edge9_Node000007_Node000008" class="edge">
<title>Node8&#45;&gt;Node7</title>
<g id="a_edge9_Node000007_Node000008"><a xlink:title=" ">
<path fill="none" stroke="#63b8ff" d="M152.59,-328.92C154.41,-320.63 156.41,-311.5 157.87,-304.83"/>
<polygon fill="#63b8ff" stroke="#63b8ff" points="149.19,-328.09 150.47,-338.61 156.03,-329.59 149.19,-328.09"/>
</a>
</g>
</g>
<!-- Node9&#45;&gt;Node6 -->
<g id="edge11_Node000006_Node000009" class="edge">
<title>Node9&#45;&gt;Node6</title>
<g id="a_edge11_Node000006_Node000009"><a xlink:title=" ">
<path fill="none" stroke="#63b8ff" d="M250.62,-278.71C228.9,-269.05 200.89,-256.58 181.8,-248.08"/>
<polygon fill="#63b8ff" stroke="#63b8ff" points="249.07,-281.85 259.63,-282.72 251.91,-275.46 249.07,-281.85"/>
</a>
</g>
</g>
<!-- Node10&#45;&gt;Node9 -->
<g id="edge13_Node000009_Node000010" class="edge">
<title>Node10&#45;&gt;Node9</title>
<g id="a_edge13_Node000009_Node000010"><a xlink:title=" ">
<path fill="none" stroke="#63b8ff" d="M287.94,-328.92C286.73,-320.63 285.39,-311.5 284.42,-304.83"/>
<polygon fill="#63b8ff" stroke="#63b8ff" points="284.44,-329.2 289.35,-338.59 291.37,-328.19 284.44,-329.2"/>
</a>
</g>
</g>
<!-- Node11&#45;&gt;Node1 -->
<g id="edge15_Node000001_Node000011" class="edge">
<title>Node11&#45;&gt;Node1</title>
<g id="a_edge15_Node000001_Node000011"><a xlink:title=" ">
<path fill="none" stroke="#63b8ff" d="M303.71,-217.58C271.3,-171.7 189.03,-55.28 164.81,-21.01"/>
<polygon fill="#63b8ff" stroke="#63b8ff" points="300.67,-219.32 309.29,-225.47 306.38,-215.28 300.67,-219.32"/>
</a>
</g>
</g>
</g>
</svg>
