<?xml version="1.0" encoding="UTF-8" standalone="no"?>
<!DOCTYPE svg PUBLIC "-//W3C//DTD SVG 1.1//EN"
 "http://www.w3.org/Graphics/SVG/1.1/DTD/svg11.dtd">
<!-- Generated by graphviz version 12.2.1 (0)
 -->
<!-- Title: nix::CmdRegistryRemove Pages: 1 -->
<svg width="386pt" height="156pt"
 viewBox="0.00 0.00 385.88 156.00" xmlns="http://www.w3.org/2000/svg" xmlns:xlink="http://www.w3.org/1999/xlink">
<g id="graph0" class="graph" transform="scale(1 1) rotate(0) translate(4 152)">
<title>nix::CmdRegistryRemove</title>
<!-- Node1 -->
<g id="Node000001" class="node">
<title>Node1</title>
<g id="a_Node000001"><a xlink:title=" ">
<polygon fill="#999999" stroke="#666666" points="238.12,-20.75 97.62,-20.75 97.62,0 238.12,0 238.12,-20.75"/>
<text text-anchor="middle" x="167.88" y="-7.25" font-family="Helvetica,sans-Serif" font-size="10.00">nix::CmdRegistryRemove</text>
</a>
</g>
</g>
<!-- Node2 -->
<g id="Node000002" class="node">
<title>Node2</title>
<g id="a_Node000002"><a xlink:href="classnix_1_1RegistryCommand.html" target="_top" xlink:title=" ">
<polygon fill="white" stroke="#bfbfbf" points="127.75,-90.25 0,-90.25 0,-69.5 127.75,-69.5 127.75,-90.25"/>
<text text-anchor="middle" x="63.88" y="-76.75" font-family="Helvetica,sans-Serif" font-size="10.00">nix::RegistryCommand</text>
</a>
</g>
</g>
<!-- Node2&#45;&gt;Node1 -->
<g id="edge1_Node000001_Node000002" class="edge">
<title>Node2&#45;&gt;Node1</title>
<g id="a_edge1_Node000001_Node000002"><a xlink:title=" ">
<path fill="none" stroke="#63b8ff" d="M88.41,-62.95C108.33,-50.02 135.79,-32.2 152.66,-21.25"/>
<polygon fill="#63b8ff" stroke="#63b8ff" points="86.53,-60 80.05,-68.38 90.34,-65.87 86.53,-60"/>
</a>
</g>
</g>
<!-- Node3 -->
<g id="Node000003" class="node">
<title>Node3</title>
<g id="a_Node000003"><a xlink:href="classnix_1_1Args.html" target="_top" xlink:title=" ">
<polygon fill="white" stroke="#bfbfbf" points="281.25,-148 222.5,-148 222.5,-127.25 281.25,-127.25 281.25,-148"/>
<text text-anchor="middle" x="251.88" y="-134.5" font-family="Helvetica,sans-Serif" font-size="10.00">nix::Args</text>
</a>
</g>
</g>
<!-- Node3&#45;&gt;Node2 -->
<g id="edge2_Node000002_Node000003" class="edge">
<title>Node3&#45;&gt;Node2</title>
<g id="a_edge2_Node000002_Node000003"><a xlink:title=" ">
<path fill="none" stroke="#63b8ff" d="M211.08,-124.53C176.93,-114.4 128.81,-100.13 97.01,-90.7"/>
<polygon fill="#63b8ff" stroke="#63b8ff" points="210.05,-127.87 220.63,-127.36 212.04,-121.16 210.05,-127.87"/>
</a>
</g>
</g>
<!-- Node5 -->
<g id="Node000005" class="node">
<title>Node5</title>
<g id="a_Node000005"><a xlink:href="structnix_1_1Command.html" target="_top" xlink:title=" ">
<polygon fill="white" stroke="#666666" points="295.5,-90.25 208.25,-90.25 208.25,-69.5 295.5,-69.5 295.5,-90.25"/>
<text text-anchor="middle" x="251.88" y="-76.75" font-family="Helvetica,sans-Serif" font-size="10.00">nix::Command</text>
</a>
</g>
</g>
<!-- Node3&#45;&gt;Node5 -->
<g id="edge5_Node000005_Node000003" class="edge">
<title>Node3&#45;&gt;Node5</title>
<g id="a_edge5_Node000005_Node000003"><a xlink:title=" ">
<path fill="none" stroke="#63b8ff" d="M251.88,-115.68C251.88,-107.02 251.88,-97.4 251.88,-90.47"/>
<polygon fill="#63b8ff" stroke="#63b8ff" points="248.38,-115.4 251.88,-125.4 255.38,-115.4 248.38,-115.4"/>
</a>
</g>
</g>
<!-- Node4 -->
<g id="Node000004" class="node">
<title>Node4</title>
<g id="a_Node000004"><a xlink:href="classnix_1_1MultiCommand.html" target="_top" xlink:title=" ">
<polygon fill="white" stroke="#666666" points="377.88,-20.75 265.88,-20.75 265.88,0 377.88,0 377.88,-20.75"/>
<text text-anchor="middle" x="321.88" y="-7.25" font-family="Helvetica,sans-Serif" font-size="10.00">nix::MultiCommand</text>
</a>
</g>
</g>
<!-- Node4&#45;&gt;Node3 -->
<g id="edge3_Node000003_Node000004" class="edge">
<title>Node4&#45;&gt;Node3</title>
<g id="a_edge3_Node000003_Node000004"><a xlink:title=" ">
<path fill="none" stroke="#9a32cd" stroke-dasharray="5,2" d="M320.97,-32.03C319.44,-48.74 315.41,-72.36 304.88,-90.25 295.82,-105.63 279.85,-118.55 267.81,-126.82"/>
<polygon fill="#9a32cd" stroke="#9a32cd" points="324.45,-32.53 321.62,-22.32 317.46,-32.06 324.45,-32.53"/>
</a>
</g>
<text text-anchor="middle" x="330.88" y="-76.75" font-family="Helvetica,sans-Serif" font-size="10.00" fill="grey"> parent</text>
</g>
<!-- Node5&#45;&gt;Node1 -->
<g id="edge6_Node000001_Node000005" class="edge">
<title>Node5&#45;&gt;Node1</title>
<g id="a_edge6_Node000001_Node000005"><a xlink:title=" ">
<path fill="none" stroke="#63b8ff" d="M231.17,-62.23C215.16,-49.37 193.54,-32 180.16,-21.25"/>
<polygon fill="#63b8ff" stroke="#63b8ff" points="228.67,-64.72 238.66,-68.26 233.06,-59.26 228.67,-64.72"/>
</a>
</g>
</g>
<!-- Node5&#45;&gt;Node4 -->
<g id="edge4_Node000004_Node000005" class="edge">
<title>Node5&#45;&gt;Node4</title>
<g id="a_edge4_Node000004_Node000005"><a xlink:title=" ">
<path fill="none" stroke="#63b8ff" d="M269.93,-61.46C283.28,-48.59 300.96,-31.55 311.86,-21.03"/>
<polygon fill="#63b8ff" stroke="#63b8ff" points="267.76,-58.69 262.99,-68.15 272.62,-63.73 267.76,-58.69"/>
</a>
</g>
</g>
<!-- Node6 -->
<g id="Node000006" class="node">
<title>Node6</title>
<g id="a_Node000006"><a xlink:title=" ">
<polygon fill="white" stroke="#bfbfbf" points="189.75,-90.25 146,-90.25 146,-69.5 189.75,-69.5 189.75,-90.25"/>
<text text-anchor="middle" x="167.88" y="-76.75" font-family="Helvetica,sans-Serif" font-size="10.00">string</text>
</a>
</g>
</g>
<!-- Node6&#45;&gt;Node1 -->
<g id="edge7_Node000001_Node000006" class="edge">
<title>Node6&#45;&gt;Node1</title>
<g id="a_edge7_Node000001_Node000006"><a xlink:title=" ">
<path fill="none" stroke="#9a32cd" stroke-dasharray="5,2" d="M167.88,-58.07C167.88,-45.72 167.88,-30.65 167.88,-21.03"/>
<polygon fill="#9a32cd" stroke="#9a32cd" points="164.38,-57.69 167.88,-67.69 171.38,-57.69 164.38,-57.69"/>
</a>
</g>
<text text-anchor="middle" x="175.75" y="-42" font-family="Helvetica,sans-Serif" font-size="10.00" fill="grey"> url</text>
</g>
</g>
</svg>
