<?xml version="1.0" encoding="UTF-8" standalone="no"?>
<!DOCTYPE svg PUBLIC "-//W3C//DTD SVG 1.1//EN"
 "http://www.w3.org/Graphics/SVG/1.1/DTD/svg11.dtd">
<!-- Generated by graphviz version 12.2.1 (0)
 -->
<!-- Title: nix::NARRestoreVisitor Pages: 1 -->
<svg width="186pt" height="98pt"
 viewBox="0.00 0.00 185.75 98.25" xmlns="http://www.w3.org/2000/svg" xmlns:xlink="http://www.w3.org/1999/xlink">
<g id="graph0" class="graph" transform="scale(1 1) rotate(0) translate(4 94.25)">
<title>nix::NARRestoreVisitor</title>
<!-- Node1 -->
<g id="Node000001" class="node">
<title>Node1</title>
<g id="a_Node000001"><a xlink:title=" ">
<polygon fill="#999999" stroke="#666666" points="170.38,-20.75 43.37,-20.75 43.37,0 170.38,0 170.38,-20.75"/>
<text text-anchor="middle" x="106.88" y="-7.25" font-family="Helvetica,sans-Serif" font-size="10.00">nix::NARRestoreVisitor</text>
</a>
</g>
</g>
<!-- Node2 -->
<g id="Node000002" class="node">
<title>Node2</title>
<g id="a_Node000002"><a xlink:href="structnix_1_1NARParseVisitor.html" target="_top" xlink:title=" ">
<polygon fill="white" stroke="#666666" points="115.75,-90.25 0,-90.25 0,-69.5 115.75,-69.5 115.75,-90.25"/>
<text text-anchor="middle" x="57.88" y="-76.75" font-family="Helvetica,sans-Serif" font-size="10.00">nix::NARParseVisitor</text>
</a>
</g>
</g>
<!-- Node2&#45;&gt;Node1 -->
<g id="edge1_Node000001_Node000002" class="edge">
<title>Node2&#45;&gt;Node1</title>
<g id="a_edge1_Node000001_Node000002"><a xlink:title=" ">
<path fill="none" stroke="#63b8ff" d="M71.6,-59.97C80.79,-47.3 92.52,-31.15 99.87,-21.03"/>
<polygon fill="#63b8ff" stroke="#63b8ff" points="68.83,-57.83 65.78,-67.98 74.49,-61.94 68.83,-57.83"/>
</a>
</g>
</g>
<!-- Node3 -->
<g id="Node000003" class="node">
<title>Node3</title>
<g id="a_Node000003"><a xlink:title=" ">
<polygon fill="white" stroke="#bfbfbf" points="177.75,-90.25 134,-90.25 134,-69.5 177.75,-69.5 177.75,-90.25"/>
<text text-anchor="middle" x="155.88" y="-76.75" font-family="Helvetica,sans-Serif" font-size="10.00">string</text>
</a>
</g>
</g>
<!-- Node3&#45;&gt;Node1 -->
<g id="edge2_Node000001_Node000003" class="edge">
<title>Node3&#45;&gt;Node1</title>
<g id="a_edge2_Node000001_Node000003"><a xlink:title=" ">
<path fill="none" stroke="#9a32cd" stroke-dasharray="5,2" d="M142.15,-59.97C132.96,-47.3 121.23,-31.15 113.88,-21.03"/>
<polygon fill="#9a32cd" stroke="#9a32cd" points="139.26,-61.94 147.97,-67.98 144.92,-57.83 139.26,-61.94"/>
</a>
</g>
<text text-anchor="middle" x="155.26" y="-42" font-family="Helvetica,sans-Serif" font-size="10.00" fill="grey"> dstPath</text>
</g>
</g>
</svg>
