<?xml version="1.0" encoding="UTF-8" standalone="no"?>
<!DOCTYPE svg PUBLIC "-//W3C//DTD SVG 1.1//EN"
 "http://www.w3.org/Graphics/SVG/1.1/DTD/svg11.dtd">
<!-- Generated by graphviz version 12.2.1 (0)
 -->
<!-- Title: nix::InitialOutput Pages: 1 -->
<svg width="146pt" height="98pt"
 viewBox="0.00 0.00 146.25 98.25" xmlns="http://www.w3.org/2000/svg" xmlns:xlink="http://www.w3.org/1999/xlink">
<g id="graph0" class="graph" transform="scale(1 1) rotate(0) translate(4 94.25)">
<title>nix::InitialOutput</title>
<!-- Node1 -->
<g id="Node000001" class="node">
<title>Node1</title>
<g id="a_Node000001"><a xlink:title=" ">
<polygon fill="#999999" stroke="#666666" points="97.75,-20.75 0,-20.75 0,0 97.75,0 97.75,-20.75"/>
<text text-anchor="middle" x="48.88" y="-7.25" font-family="Helvetica,sans-Serif" font-size="10.00">nix::InitialOutput</text>
</a>
</g>
</g>
<!-- Node2 -->
<g id="Node000002" class="node">
<title>Node2</title>
<g id="a_Node000002"><a xlink:href="structnix_1_1Hash.html" target="_top" xlink:title=" ">
<polygon fill="white" stroke="#bfbfbf" points="79.75,-90.25 18,-90.25 18,-69.5 79.75,-69.5 79.75,-90.25"/>
<text text-anchor="middle" x="48.88" y="-76.75" font-family="Helvetica,sans-Serif" font-size="10.00">nix::Hash</text>
</a>
</g>
</g>
<!-- Node2&#45;&gt;Node1 -->
<g id="edge1_Node000001_Node000002" class="edge">
<title>Node2&#45;&gt;Node1</title>
<g id="a_edge1_Node000001_Node000002"><a xlink:title=" ">
<path fill="none" stroke="#9a32cd" stroke-dasharray="5,2" d="M48.88,-58.07C48.88,-45.72 48.88,-30.65 48.88,-21.03"/>
<polygon fill="#9a32cd" stroke="#9a32cd" points="45.38,-57.69 48.88,-67.69 52.38,-57.69 45.38,-57.69"/>
</a>
</g>
<text text-anchor="middle" x="78.5" y="-42" font-family="Helvetica,sans-Serif" font-size="10.00" fill="grey"> outputHash</text>
</g>
<!-- Node2&#45;&gt;Node2 -->
<g id="edge2_Node000002_Node000002" class="edge">
<title>Node2&#45;&gt;Node2</title>
<g id="a_edge2_Node000002_Node000002"><a xlink:title=" ">
<path fill="none" stroke="#9a32cd" stroke-dasharray="5,2" d="M91.29,-85.09C95.25,-84.02 97.75,-82.28 97.75,-79.88 97.75,-75.6 89.86,-73.43 79.9,-73.36"/>
<polygon fill="#9a32cd" stroke="#9a32cd" points="90.94,-81.61 81.4,-86.22 91.73,-88.57 90.94,-81.61"/>
</a>
</g>
<text text-anchor="middle" x="118" y="-76.75" font-family="Helvetica,sans-Serif" font-size="10.00" fill="grey"> dummy</text>
</g>
</g>
</svg>
