<?xml version="1.0" encoding="UTF-8" standalone="no"?>
<!DOCTYPE svg PUBLIC "-//W3C//DTD SVG 1.1//EN"
 "http://www.w3.org/Graphics/SVG/1.1/DTD/svg11.dtd">
<!-- Generated by graphviz version 12.2.1 (0)
 -->
<!-- Title: nix::ExprWith Pages: 1 -->
<svg width="164pt" height="156pt"
 viewBox="0.00 0.00 164.25 156.00" xmlns="http://www.w3.org/2000/svg" xmlns:xlink="http://www.w3.org/1999/xlink">
<g id="graph0" class="graph" transform="scale(1 1) rotate(0) translate(4 152)">
<title>nix::ExprWith</title>
<!-- Node1 -->
<g id="Node000001" class="node">
<title>Node1</title>
<g id="a_Node000001"><a xlink:title=" ">
<polygon fill="#999999" stroke="#666666" points="81.25,-20.75 0,-20.75 0,0 81.25,0 81.25,-20.75"/>
<text text-anchor="middle" x="40.62" y="-7.25" font-family="Helvetica,sans-Serif" font-size="10.00">nix::ExprWith</text>
</a>
</g>
</g>
<!-- Node1&#45;&gt;Node1 -->
<g id="edge3_Node000001_Node000001" class="edge">
<title>Node1&#45;&gt;Node1</title>
<g id="a_edge3_Node000001_Node000001"><a xlink:title=" ">
<path fill="none" stroke="#9a32cd" stroke-dasharray="5,2" d="M93.02,-14.39C96.88,-13.49 99.25,-12.15 99.25,-10.38 99.25,-7.22 91.77,-5.44 81.72,-5.05"/>
<polygon fill="#9a32cd" stroke="#9a32cd" points="92.75,-10.9 83.22,-15.53 93.56,-17.85 92.75,-10.9"/>
</a>
</g>
<text text-anchor="middle" x="127.75" y="-7.25" font-family="Helvetica,sans-Serif" font-size="10.00" fill="grey"> parentWith</text>
</g>
<!-- Node2 -->
<g id="Node000002" class="node">
<title>Node2</title>
<g id="a_Node000002"><a xlink:href="structnix_1_1Expr.html" target="_top" xlink:title=" ">
<polygon fill="white" stroke="#bfbfbf" points="70,-78.5 11.25,-78.5 11.25,-57.75 70,-57.75 70,-78.5"/>
<text text-anchor="middle" x="40.62" y="-65" font-family="Helvetica,sans-Serif" font-size="10.00">nix::Expr</text>
</a>
</g>
</g>
<!-- Node2&#45;&gt;Node1 -->
<g id="edge1_Node000001_Node000002" class="edge">
<title>Node2&#45;&gt;Node1</title>
<g id="a_edge1_Node000001_Node000002"><a xlink:title=" ">
<path fill="none" stroke="#63b8ff" d="M40.62,-46.18C40.62,-37.52 40.62,-27.9 40.62,-20.97"/>
<polygon fill="#63b8ff" stroke="#63b8ff" points="37.13,-45.9 40.63,-55.9 44.13,-45.9 37.13,-45.9"/>
</a>
</g>
</g>
<!-- Node3 -->
<g id="Node000003" class="node">
<title>Node3</title>
<g id="a_Node000003"><a xlink:href="classnix_1_1PosIdx.html" target="_top" xlink:title=" ">
<polygon fill="white" stroke="#bfbfbf" points="75.25,-148 6,-148 6,-127.25 75.25,-127.25 75.25,-148"/>
<text text-anchor="middle" x="40.62" y="-134.5" font-family="Helvetica,sans-Serif" font-size="10.00">nix::PosIdx</text>
</a>
</g>
</g>
<!-- Node3&#45;&gt;Node2 -->
<g id="edge2_Node000002_Node000003" class="edge">
<title>Node3&#45;&gt;Node2</title>
<g id="a_edge2_Node000002_Node000003"><a xlink:title=" ">
<path fill="none" stroke="#9a32cd" stroke-dasharray="5,2" d="M40.62,-115.82C40.62,-103.47 40.62,-88.4 40.62,-78.78"/>
<polygon fill="#9a32cd" stroke="#9a32cd" points="37.13,-115.44 40.63,-125.44 44.13,-115.44 37.13,-115.44"/>
</a>
</g>
<text text-anchor="middle" x="50.75" y="-99.75" font-family="Helvetica,sans-Serif" font-size="10.00" fill="grey"> pos</text>
</g>
</g>
</svg>
