<?xml version="1.0" encoding="UTF-8" standalone="no"?>
<!DOCTYPE svg PUBLIC "-//W3C//DTD SVG 1.1//EN"
 "http://www.w3.org/Graphics/SVG/1.1/DTD/svg11.dtd">
<!-- Generated by graphviz version 12.2.1 (0)
 -->
<!-- Title: nix::StoreConfig Pages: 1 -->
<svg width="679pt" height="197pt"
 viewBox="0.00 0.00 679.25 196.75" xmlns="http://www.w3.org/2000/svg" xmlns:xlink="http://www.w3.org/1999/xlink">
<g id="graph0" class="graph" transform="scale(1 1) rotate(0) translate(4 192.75)">
<title>nix::StoreConfig</title>
<!-- Node1 -->
<g id="Node000001" class="node">
<title>Node1</title>
<g id="a_Node000001"><a xlink:title=" ">
<polygon fill="#999999" stroke="#666666" points="671.25,-105.75 578,-105.75 578,-85 671.25,-85 671.25,-105.75"/>
<text text-anchor="middle" x="624.62" y="-92.25" font-family="Helvetica,sans-Serif" font-size="10.00">nix::StoreConfig</text>
</a>
</g>
</g>
<!-- Node2 -->
<g id="Node000002" class="node">
<title>Node2</title>
<g id="a_Node000002"><a xlink:href="classnix_1_1Config.html" target="_top" xlink:title=" ">
<polygon fill="white" stroke="#666666" points="413,-188.75 345.25,-188.75 345.25,-168 413,-168 413,-188.75"/>
<text text-anchor="middle" x="379.12" y="-175.25" font-family="Helvetica,sans-Serif" font-size="10.00">nix::Config</text>
</a>
</g>
</g>
<!-- Node2&#45;&gt;Node1 -->
<g id="edge1_Node000001_Node000002" class="edge">
<title>Node2&#45;&gt;Node1</title>
<g id="a_edge1_Node000001_Node000002"><a xlink:title=" ">
<path fill="none" stroke="#63b8ff" d="M424.31,-178.22C461.97,-176.56 516.73,-170.41 560,-150.38 582.79,-139.82 603.68,-118.62 614.93,-105.85"/>
<polygon fill="#63b8ff" stroke="#63b8ff" points="424.59,-174.71 414.71,-178.56 424.83,-181.71 424.59,-174.71"/>
</a>
</g>
</g>
<!-- Node3 -->
<g id="Node000003" class="node">
<title>Node3</title>
<g id="a_Node000003"><a xlink:href="classnix_1_1AbstractConfig.html" target="_top" xlink:title=" ">
<polygon fill="white" stroke="#bfbfbf" points="265.12,-188.75 156.88,-188.75 156.88,-168 265.12,-168 265.12,-188.75"/>
<text text-anchor="middle" x="211" y="-175.25" font-family="Helvetica,sans-Serif" font-size="10.00">nix::AbstractConfig</text>
</a>
</g>
</g>
<!-- Node3&#45;&gt;Node2 -->
<g id="edge2_Node000002_Node000003" class="edge">
<title>Node3&#45;&gt;Node2</title>
<g id="a_edge2_Node000002_Node000003"><a xlink:title=" ">
<path fill="none" stroke="#63b8ff" d="M276.75,-178.38C300.13,-178.38 325.54,-178.38 345.07,-178.38"/>
<polygon fill="#63b8ff" stroke="#63b8ff" points="276.99,-174.88 266.99,-178.38 276.99,-181.88 276.99,-174.88"/>
</a>
</g>
</g>
<!-- Node4 -->
<g id="Node000004" class="node">
<title>Node4</title>
<g id="a_Node000004"><a xlink:href="classnix_1_1PathsSetting.html" target="_top" xlink:title=" ">
<polygon fill="white" stroke="#666666" points="432.12,-150.12 326.12,-150.12 326.12,-116.62 432.12,-116.62 432.12,-150.12"/>
<text text-anchor="start" x="334.12" y="-136.62" font-family="Helvetica,sans-Serif" font-size="10.00">nix::PathsSetting&lt;</text>
<text text-anchor="middle" x="379.12" y="-123.88" font-family="Helvetica,sans-Serif" font-size="10.00"> Path &gt;</text>
</a>
</g>
</g>
<!-- Node4&#45;&gt;Node1 -->
<g id="edge3_Node000001_Node000004" class="edge">
<title>Node4&#45;&gt;Node1</title>
<g id="a_edge3_Node000001_Node000004"><a xlink:title=" ">
<path fill="none" stroke="#9a32cd" stroke-dasharray="5,2" d="M443.79,-134.71C478.55,-134.14 522.1,-131.3 560,-122.38 574.95,-118.86 590.86,-112.11 603.03,-106.24"/>
<polygon fill="#9a32cd" stroke="#9a32cd" points="443.84,-131.21 433.88,-134.81 443.91,-138.21 443.84,-131.21"/>
</a>
</g>
<text text-anchor="middle" x="513.12" y="-137.23" font-family="Helvetica,sans-Serif" font-size="10.00" fill="grey"> storeDir_</text>
</g>
<!-- Node5 -->
<g id="Node000005" class="node">
<title>Node5</title>
<g id="a_Node000005"><a xlink:href="classnix_1_1BaseSetting.html" target="_top" xlink:title=" ">
<polygon fill="white" stroke="#666666" points="273,-139.75 149,-139.75 149,-119 273,-119 273,-139.75"/>
<text text-anchor="middle" x="211" y="-126.25" font-family="Helvetica,sans-Serif" font-size="10.00">nix::BaseSetting&lt; T &gt;</text>
</a>
</g>
</g>
<!-- Node5&#45;&gt;Node4 -->
<g id="edge4_Node000004_Node000005" class="edge">
<title>Node5&#45;&gt;Node4</title>
<g id="a_edge4_Node000004_Node000005"><a xlink:title=" ">
<path fill="none" stroke="#63b8ff" d="M284.83,-131.13C298.59,-131.46 312.74,-131.8 325.72,-132.11"/>
<polygon fill="#63b8ff" stroke="#63b8ff" points="284.98,-127.63 274.9,-130.89 284.81,-134.63 284.98,-127.63"/>
</a>
</g>
</g>
<!-- Node6 -->
<g id="Node000006" class="node">
<title>Node6</title>
<g id="a_Node000006"><a xlink:href="classnix_1_1AbstractSetting.html" target="_top" xlink:title=" ">
<polygon fill="white" stroke="#bfbfbf" points="112,-74.75 0,-74.75 0,-54 112,-54 112,-74.75"/>
<text text-anchor="middle" x="56" y="-61.25" font-family="Helvetica,sans-Serif" font-size="10.00">nix::AbstractSetting</text>
</a>
</g>
</g>
<!-- Node6&#45;&gt;Node5 -->
<g id="edge5_Node000005_Node000006" class="edge">
<title>Node6&#45;&gt;Node5</title>
<g id="a_edge5_Node000005_Node000006"><a xlink:title=" ">
<path fill="none" stroke="#63b8ff" d="M88.95,-80.18C106.5,-88.64 128.76,-99.01 149,-107.38 158.47,-111.29 168.91,-115.2 178.44,-118.61"/>
<polygon fill="#63b8ff" stroke="#63b8ff" points="90.57,-77.08 80.05,-75.86 87.51,-83.38 90.57,-77.08"/>
</a>
</g>
</g>
<!-- Node8 -->
<g id="Node000008" class="node">
<title>Node8</title>
<g id="a_Node000008"><a xlink:href="classnix_1_1BaseSetting.html" target="_top" xlink:title=" ">
<polygon fill="white" stroke="#666666" points="273,-98.75 149,-98.75 149,-78 273,-78 273,-98.75"/>
<text text-anchor="middle" x="211" y="-85.25" font-family="Helvetica,sans-Serif" font-size="10.00">nix::BaseSetting&lt; T &gt;</text>
</a>
</g>
</g>
<!-- Node6&#45;&gt;Node8 -->
<g id="edge8_Node000008_Node000006" class="edge">
<title>Node6&#45;&gt;Node8</title>
<g id="a_edge8_Node000008_Node000006"><a xlink:title=" ">
<path fill="none" stroke="#63b8ff" d="M123.49,-74.8C131.84,-76.11 140.35,-77.45 148.62,-78.75"/>
<polygon fill="#63b8ff" stroke="#63b8ff" points="124.15,-71.37 113.73,-73.27 123.07,-78.28 124.15,-71.37"/>
</a>
</g>
</g>
<!-- Node10 -->
<g id="Node000010" class="node">
<title>Node10</title>
<g id="a_Node000010"><a xlink:href="classnix_1_1BaseSetting.html" target="_top" xlink:title=" ">
<polygon fill="white" stroke="#666666" points="273,-59.75 149,-59.75 149,-39 273,-39 273,-59.75"/>
<text text-anchor="middle" x="211" y="-46.25" font-family="Helvetica,sans-Serif" font-size="10.00">nix::BaseSetting&lt; T &gt;</text>
</a>
</g>
</g>
<!-- Node6&#45;&gt;Node10 -->
<g id="edge11_Node000010_Node000006" class="edge">
<title>Node6&#45;&gt;Node10</title>
<g id="a_edge11_Node000010_Node000006"><a xlink:title=" ">
<path fill="none" stroke="#63b8ff" d="M123.49,-57.86C131.84,-57.04 140.35,-56.2 148.62,-55.39"/>
<polygon fill="#63b8ff" stroke="#63b8ff" points="123.35,-54.35 113.74,-58.81 124.04,-61.32 123.35,-54.35"/>
</a>
</g>
</g>
<!-- Node12 -->
<g id="Node000012" class="node">
<title>Node12</title>
<g id="a_Node000012"><a xlink:href="classnix_1_1BaseSetting.html" target="_top" xlink:title=" ">
<polygon fill="white" stroke="#666666" points="273,-20.75 149,-20.75 149,0 273,0 273,-20.75"/>
<text text-anchor="middle" x="211" y="-7.25" font-family="Helvetica,sans-Serif" font-size="10.00">nix::BaseSetting&lt; T &gt;</text>
</a>
</g>
</g>
<!-- Node6&#45;&gt;Node12 -->
<g id="edge14_Node000012_Node000006" class="edge">
<title>Node6&#45;&gt;Node12</title>
<g id="a_edge14_Node000012_Node000006"><a xlink:title=" ">
<path fill="none" stroke="#63b8ff" d="M96.25,-49.5C112.53,-43.43 131.62,-36.43 149,-30.38 157.84,-27.29 167.45,-24.08 176.36,-21.16"/>
<polygon fill="#63b8ff" stroke="#63b8ff" points="95.05,-46.22 86.91,-53 97.51,-52.77 95.05,-46.22"/>
</a>
</g>
</g>
<!-- Node7 -->
<g id="Node000007" class="node">
<title>Node7</title>
<g id="a_Node000007"><a xlink:href="classnix_1_1Setting.html" target="_top" xlink:title=" ">
<polygon fill="white" stroke="#bfbfbf" points="432.5,-98.75 325.75,-98.75 325.75,-78 432.5,-78 432.5,-98.75"/>
<text text-anchor="middle" x="379.12" y="-85.25" font-family="Helvetica,sans-Serif" font-size="10.00">nix::Setting&lt; int &gt;</text>
</a>
</g>
</g>
<!-- Node7&#45;&gt;Node1 -->
<g id="edge6_Node000001_Node000007" class="edge">
<title>Node7&#45;&gt;Node1</title>
<g id="a_edge6_Node000001_Node000007"><a xlink:title=" ">
<path fill="none" stroke="#9a32cd" stroke-dasharray="5,2" d="M444.46,-90.22C486.44,-91.43 540.22,-92.98 577.86,-94.06"/>
<polygon fill="#9a32cd" stroke="#9a32cd" points="444.57,-86.73 434.47,-89.94 444.37,-93.72 444.57,-86.73"/>
</a>
</g>
<text text-anchor="middle" x="513.12" y="-109.5" font-family="Helvetica,sans-Serif" font-size="10.00" fill="grey"> pathInfoCacheSize</text>
<text text-anchor="middle" x="513.12" y="-96.75" font-family="Helvetica,sans-Serif" font-size="10.00" fill="grey">priority</text>
</g>
<!-- Node8&#45;&gt;Node7 -->
<g id="edge7_Node000007_Node000008" class="edge">
<title>Node8&#45;&gt;Node7</title>
<g id="a_edge7_Node000007_Node000008"><a xlink:title=" ">
<path fill="none" stroke="#63b8ff" d="M284.76,-88.38C298.45,-88.38 312.52,-88.38 325.45,-88.38"/>
<polygon fill="#63b8ff" stroke="#63b8ff" points="284.9,-84.88 274.9,-88.38 284.9,-91.88 284.9,-84.88"/>
</a>
</g>
</g>
<!-- Node9 -->
<g id="Node000009" class="node">
<title>Node9</title>
<g id="a_Node000009"><a xlink:href="classnix_1_1Setting.html" target="_top" xlink:title=" ">
<polygon fill="white" stroke="#bfbfbf" points="436.62,-59.75 321.62,-59.75 321.62,-39 436.62,-39 436.62,-59.75"/>
<text text-anchor="middle" x="379.12" y="-46.25" font-family="Helvetica,sans-Serif" font-size="10.00">nix::Setting&lt; bool &gt;</text>
</a>
</g>
</g>
<!-- Node9&#45;&gt;Node1 -->
<g id="edge9_Node000001_Node000009" class="edge">
<title>Node9&#45;&gt;Node1</title>
<g id="a_edge9_Node000001_Node000009"><a xlink:title=" ">
<path fill="none" stroke="#9a32cd" stroke-dasharray="5,2" d="M448.33,-47.52C482.44,-48.24 524.02,-51.65 560,-61.88 577.29,-66.79 595.26,-76.78 607.68,-84.57"/>
<polygon fill="#9a32cd" stroke="#9a32cd" points="448.62,-44.02 438.57,-47.39 448.53,-51.02 448.62,-44.02"/>
</a>
</g>
<text text-anchor="middle" x="513.12" y="-77.88" font-family="Helvetica,sans-Serif" font-size="10.00" fill="grey"> isTrusted</text>
<text text-anchor="middle" x="513.12" y="-65.12" font-family="Helvetica,sans-Serif" font-size="10.00" fill="grey">wantMassQuery</text>
</g>
<!-- Node10&#45;&gt;Node9 -->
<g id="edge10_Node000009_Node000010" class="edge">
<title>Node10&#45;&gt;Node9</title>
<g id="a_edge10_Node000009_Node000010"><a xlink:title=" ">
<path fill="none" stroke="#63b8ff" d="M284.59,-49.38C296.91,-49.38 309.55,-49.38 321.39,-49.38"/>
<polygon fill="#63b8ff" stroke="#63b8ff" points="284.9,-45.88 274.9,-49.38 284.9,-52.88 284.9,-45.88"/>
</a>
</g>
</g>
<!-- Node11 -->
<g id="Node000011" class="node">
<title>Node11</title>
<g id="a_Node000011"><a xlink:href="classnix_1_1Setting.html" target="_top" xlink:title=" ">
<polygon fill="white" stroke="#bfbfbf" points="448.25,-20.75 310,-20.75 310,0 448.25,0 448.25,-20.75"/>
<text text-anchor="middle" x="379.12" y="-7.25" font-family="Helvetica,sans-Serif" font-size="10.00">nix::Setting&lt; StringSet &gt;</text>
</a>
</g>
</g>
<!-- Node11&#45;&gt;Node1 -->
<g id="edge12_Node000001_Node000011" class="edge">
<title>Node11&#45;&gt;Node1</title>
<g id="a_edge12_Node000001_Node000011"><a xlink:title=" ">
<path fill="none" stroke="#9a32cd" stroke-dasharray="5,2" d="M459.72,-8.56C492.19,-10.62 529.26,-16.7 560,-31.62 585.04,-43.78 606.02,-69.85 616.48,-84.61"/>
<polygon fill="#9a32cd" stroke="#9a32cd" points="460.12,-5.07 449.96,-8.07 459.77,-12.06 460.12,-5.07"/>
</a>
</g>
<text text-anchor="middle" x="513.12" y="-34.88" font-family="Helvetica,sans-Serif" font-size="10.00" fill="grey"> systemFeatures</text>
</g>
<!-- Node12&#45;&gt;Node11 -->
<g id="edge13_Node000011_Node000012" class="edge">
<title>Node12&#45;&gt;Node11</title>
<g id="a_edge13_Node000011_Node000012"><a xlink:title=" ">
<path fill="none" stroke="#63b8ff" d="M284.63,-10.38C292.96,-10.38 301.44,-10.38 309.72,-10.38"/>
<polygon fill="#63b8ff" stroke="#63b8ff" points="284.9,-6.88 274.9,-10.38 284.9,-13.88 284.9,-6.88"/>
</a>
</g>
</g>
</g>
</svg>
