<?xml version="1.0" encoding="UTF-8" standalone="no"?>
<!DOCTYPE svg PUBLIC "-//W3C//DTD SVG 1.1//EN"
 "http://www.w3.org/Graphics/SVG/1.1/DTD/svg11.dtd">
<!-- Generated by graphviz version 12.2.1 (0)
 -->
<!-- Title: nix::StoreCommand Pages: 1 -->
<svg width="266pt" height="156pt"
 viewBox="0.00 0.00 265.75 156.00" xmlns="http://www.w3.org/2000/svg" xmlns:xlink="http://www.w3.org/1999/xlink">
<g id="graph0" class="graph" transform="scale(1 1) rotate(0) translate(4 152)">
<title>nix::StoreCommand</title>
<!-- Node1 -->
<g id="Node000001" class="node">
<title>Node1</title>
<g id="a_Node000001"><a xlink:title=" ">
<polygon fill="#999999" stroke="#666666" points="112.75,-90.25 0,-90.25 0,-69.5 112.75,-69.5 112.75,-90.25"/>
<text text-anchor="middle" x="56.38" y="-76.75" font-family="Helvetica,sans-Serif" font-size="10.00">nix::StoreCommand</text>
</a>
</g>
</g>
<!-- Node2 -->
<g id="Node000002" class="node">
<title>Node2</title>
<g id="a_Node000002"><a xlink:href="structnix_1_1Command.html" target="_top" xlink:title=" ">
<polygon fill="white" stroke="#666666" points="230,-148 142.75,-148 142.75,-127.25 230,-127.25 230,-148"/>
<text text-anchor="middle" x="186.38" y="-134.5" font-family="Helvetica,sans-Serif" font-size="10.00">nix::Command</text>
</a>
</g>
</g>
<!-- Node2&#45;&gt;Node1 -->
<g id="edge1_Node000001_Node000002" class="edge">
<title>Node2&#45;&gt;Node1</title>
<g id="a_edge1_Node000001_Node000002"><a xlink:title=" ">
<path fill="none" stroke="#63b8ff" d="M153.02,-122.32C129.83,-112.37 99.53,-99.38 79.09,-90.62"/>
<polygon fill="#63b8ff" stroke="#63b8ff" points="151.47,-125.47 162.04,-126.19 154.23,-119.03 151.47,-125.47"/>
</a>
</g>
</g>
<!-- Node4 -->
<g id="Node000004" class="node">
<title>Node4</title>
<g id="a_Node000004"><a xlink:href="classnix_1_1MultiCommand.html" target="_top" xlink:title=" ">
<polygon fill="white" stroke="#666666" points="242.38,-90.25 130.38,-90.25 130.38,-69.5 242.38,-69.5 242.38,-90.25"/>
<text text-anchor="middle" x="186.38" y="-76.75" font-family="Helvetica,sans-Serif" font-size="10.00">nix::MultiCommand</text>
</a>
</g>
</g>
<!-- Node2&#45;&gt;Node4 -->
<g id="edge4_Node000004_Node000002" class="edge">
<title>Node2&#45;&gt;Node4</title>
<g id="a_edge4_Node000004_Node000002"><a xlink:title=" ">
<path fill="none" stroke="#63b8ff" d="M186.38,-115.68C186.38,-107.02 186.38,-97.4 186.38,-90.47"/>
<polygon fill="#63b8ff" stroke="#63b8ff" points="182.88,-115.4 186.38,-125.4 189.88,-115.4 182.88,-115.4"/>
</a>
</g>
</g>
<!-- Node3 -->
<g id="Node000003" class="node">
<title>Node3</title>
<g id="a_Node000003"><a xlink:href="classnix_1_1Args.html" target="_top" xlink:title=" ">
<polygon fill="white" stroke="#bfbfbf" points="257.75,-20.75 199,-20.75 199,0 257.75,0 257.75,-20.75"/>
<text text-anchor="middle" x="228.38" y="-7.25" font-family="Helvetica,sans-Serif" font-size="10.00">nix::Args</text>
</a>
</g>
</g>
<!-- Node3&#45;&gt;Node2 -->
<g id="edge2_Node000002_Node000003" class="edge">
<title>Node3&#45;&gt;Node2</title>
<g id="a_edge2_Node000002_Node000003"><a xlink:title=" ">
<path fill="none" stroke="#63b8ff" d="M244.98,-30.18C246.73,-32.91 248.27,-35.8 249.38,-38.75 250.44,-41.57 254.29,-84.59 251.38,-90.25 242.68,-107.13 224.68,-119.23 209.82,-126.82"/>
<polygon fill="#63b8ff" stroke="#63b8ff" points="247.89,-28.22 239.07,-22.35 242.31,-32.44 247.89,-28.22"/>
</a>
</g>
</g>
<!-- Node4&#45;&gt;Node3 -->
<g id="edge3_Node000003_Node000004" class="edge">
<title>Node4&#45;&gt;Node3</title>
<g id="a_edge3_Node000003_Node000004"><a xlink:title=" ">
<path fill="none" stroke="#9a32cd" stroke-dasharray="5,2" d="M198.37,-59.6C206.22,-46.98 216.14,-31.05 222.37,-21.03"/>
<polygon fill="#9a32cd" stroke="#9a32cd" points="195.5,-57.58 193.19,-67.92 201.45,-61.28 195.5,-57.58"/>
</a>
</g>
<text text-anchor="middle" x="228.39" y="-42" font-family="Helvetica,sans-Serif" font-size="10.00" fill="grey"> parent</text>
</g>
</g>
</svg>
