<?xml version="1.0" encoding="UTF-8" standalone="no"?>
<!DOCTYPE svg PUBLIC "-//W3C//DTD SVG 1.1//EN"
 "http://www.w3.org/Graphics/SVG/1.1/DTD/svg11.dtd">
<!-- Generated by graphviz version 12.2.1 (0)
 -->
<!-- Title: nix::MixReadOnlyOption Pages: 1 -->
<svg width="300pt" height="144pt"
 viewBox="0.00 0.00 300.25 144.25" xmlns="http://www.w3.org/2000/svg" xmlns:xlink="http://www.w3.org/1999/xlink">
<g id="graph0" class="graph" transform="scale(1 1) rotate(0) translate(4 140.25)">
<title>nix::MixReadOnlyOption</title>
<!-- Node1 -->
<g id="Node000001" class="node">
<title>Node1</title>
<g id="a_Node000001"><a xlink:title=" ">
<polygon fill="#999999" stroke="#666666" points="134.5,-78.5 0,-78.5 0,-57.75 134.5,-57.75 134.5,-78.5"/>
<text text-anchor="middle" x="67.25" y="-65" font-family="Helvetica,sans-Serif" font-size="10.00">nix::MixReadOnlyOption</text>
</a>
</g>
</g>
<!-- Node2 -->
<g id="Node000002" class="node">
<title>Node2</title>
<g id="a_Node000002"><a xlink:href="classnix_1_1Args.html" target="_top" xlink:title=" ">
<polygon fill="white" stroke="#bfbfbf" points="225.62,-136.25 166.88,-136.25 166.88,-115.5 225.62,-115.5 225.62,-136.25"/>
<text text-anchor="middle" x="196.25" y="-122.75" font-family="Helvetica,sans-Serif" font-size="10.00">nix::Args</text>
</a>
</g>
</g>
<!-- Node2&#45;&gt;Node1 -->
<g id="edge1_Node000001_Node000002" class="edge">
<title>Node2&#45;&gt;Node1</title>
<g id="a_edge1_Node000001_Node000002"><a xlink:title=" ">
<path fill="none" stroke="#63b8ff" d="M163.15,-110.57C140.14,-100.62 110.07,-87.63 89.79,-78.87"/>
<polygon fill="#63b8ff" stroke="#63b8ff" points="161.53,-113.68 172.09,-114.44 164.3,-107.26 161.53,-113.68"/>
</a>
</g>
</g>
<!-- Node4 -->
<g id="Node000004" class="node">
<title>Node4</title>
<g id="a_Node000004"><a xlink:href="structnix_1_1Command.html" target="_top" xlink:title=" ">
<polygon fill="white" stroke="#666666" points="239.88,-78.5 152.62,-78.5 152.62,-57.75 239.88,-57.75 239.88,-78.5"/>
<text text-anchor="middle" x="196.25" y="-65" font-family="Helvetica,sans-Serif" font-size="10.00">nix::Command</text>
</a>
</g>
</g>
<!-- Node2&#45;&gt;Node4 -->
<g id="edge4_Node000004_Node000002" class="edge">
<title>Node2&#45;&gt;Node4</title>
<g id="a_edge4_Node000004_Node000002"><a xlink:title=" ">
<path fill="none" stroke="#63b8ff" d="M196.25,-103.93C196.25,-95.27 196.25,-85.65 196.25,-78.72"/>
<polygon fill="#63b8ff" stroke="#63b8ff" points="192.75,-103.65 196.25,-113.65 199.75,-103.65 192.75,-103.65"/>
</a>
</g>
</g>
<!-- Node3 -->
<g id="Node000003" class="node">
<title>Node3</title>
<g id="a_Node000003"><a xlink:href="classnix_1_1MultiCommand.html" target="_top" xlink:title=" ">
<polygon fill="white" stroke="#666666" points="292.25,-20.75 180.25,-20.75 180.25,0 292.25,0 292.25,-20.75"/>
<text text-anchor="middle" x="236.25" y="-7.25" font-family="Helvetica,sans-Serif" font-size="10.00">nix::MultiCommand</text>
</a>
</g>
</g>
<!-- Node3&#45;&gt;Node2 -->
<g id="edge2_Node000002_Node000003" class="edge">
<title>Node3&#45;&gt;Node2</title>
<g id="a_edge2_Node000002_Node000003"><a xlink:title=" ">
<path fill="none" stroke="#9a32cd" stroke-dasharray="5,2" d="M246.18,-31.19C251.65,-44.96 256.07,-63.47 249.25,-78.5 242.03,-94.42 226.33,-107.03 213.89,-115.05"/>
<polygon fill="#9a32cd" stroke="#9a32cd" points="249.48,-29.98 242.19,-22.29 243.09,-32.85 249.48,-29.98"/>
</a>
</g>
<text text-anchor="middle" x="269.97" y="-65" font-family="Helvetica,sans-Serif" font-size="10.00" fill="grey"> parent</text>
</g>
<!-- Node4&#45;&gt;Node3 -->
<g id="edge3_Node000003_Node000004" class="edge">
<title>Node4&#45;&gt;Node3</title>
<g id="a_edge3_Node000003_Node000004"><a xlink:title=" ">
<path fill="none" stroke="#63b8ff" d="M209.79,-48.25C216.37,-39.08 223.99,-28.46 229.36,-20.97"/>
<polygon fill="#63b8ff" stroke="#63b8ff" points="207.09,-46.02 204.1,-56.18 212.77,-50.1 207.09,-46.02"/>
</a>
</g>
</g>
</g>
</svg>
