<?xml version="1.0" encoding="UTF-8" standalone="no"?>
<!DOCTYPE svg PUBLIC "-//W3C//DTD SVG 1.1//EN"
 "http://www.w3.org/Graphics/SVG/1.1/DTD/svg11.dtd">
<!-- Generated by graphviz version 12.2.1 (0)
 -->
<!-- Title: nix::FramedSource Pages: 1 -->
<svg width="115pt" height="98pt"
 viewBox="0.00 0.00 114.75 98.25" xmlns="http://www.w3.org/2000/svg" xmlns:xlink="http://www.w3.org/1999/xlink">
<g id="graph0" class="graph" transform="scale(1 1) rotate(0) translate(4 94.25)">
<title>nix::FramedSource</title>
<!-- Node1 -->
<g id="Node000001" class="node">
<title>Node1</title>
<g id="a_Node000001"><a xlink:title=" ">
<polygon fill="#999999" stroke="#666666" points="106.75,-20.75 0,-20.75 0,0 106.75,0 106.75,-20.75"/>
<text text-anchor="middle" x="53.38" y="-7.25" font-family="Helvetica,sans-Serif" font-size="10.00">nix::FramedSource</text>
</a>
</g>
</g>
<!-- Node2 -->
<g id="Node000002" class="node">
<title>Node2</title>
<g id="a_Node000002"><a xlink:href="structnix_1_1Source.html" target="_top" xlink:title=" ">
<polygon fill="white" stroke="#666666" points="88.38,-90.25 18.38,-90.25 18.38,-69.5 88.38,-69.5 88.38,-90.25"/>
<text text-anchor="middle" x="53.38" y="-76.75" font-family="Helvetica,sans-Serif" font-size="10.00">nix::Source</text>
</a>
</g>
</g>
<!-- Node2&#45;&gt;Node1 -->
<g id="edge1_Node000001_Node000002" class="edge">
<title>Node2&#45;&gt;Node1</title>
<g id="a_edge1_Node000001_Node000002"><a xlink:title=" ">
<path fill="none" stroke="#63b8ff" d="M51.67,-57.65C51.55,-55.57 51.45,-53.5 51.38,-51.5 51.17,-45.84 51.17,-44.41 51.38,-38.75 51.59,-32.94 52.05,-26.45 52.48,-21.25"/>
<polygon fill="#63b8ff" stroke="#63b8ff" points="48.17,-57.77 52.37,-67.49 55.15,-57.27 48.17,-57.77"/>
</a>
</g>
</g>
<!-- Node2&#45;&gt;Node1 -->
<g id="edge2_Node000001_Node000002" class="edge">
<title>Node2&#45;&gt;Node1</title>
<g id="a_edge2_Node000001_Node000002"><a xlink:title=" ">
<path fill="none" stroke="#9a32cd" stroke-dasharray="5,2" d="M53.38,-58.07C53.38,-45.72 53.38,-30.65 53.38,-21.03"/>
<polygon fill="#9a32cd" stroke="#9a32cd" points="49.88,-57.69 53.38,-67.69 56.88,-57.69 49.88,-57.69"/>
</a>
</g>
<text text-anchor="middle" x="66.5" y="-42" font-family="Helvetica,sans-Serif" font-size="10.00" fill="grey"> from</text>
</g>
</g>
</svg>
