<?xml version="1.0" encoding="UTF-8" standalone="no"?>
<!DOCTYPE svg PUBLIC "-//W3C//DTD SVG 1.1//EN"
 "http://www.w3.org/Graphics/SVG/1.1/DTD/svg11.dtd">
<!-- Generated by graphviz version 12.2.1 (0)
 -->
<!-- Title: nix::CmdRegistryAdd Pages: 1 -->
<svg width="521pt" height="246pt"
 viewBox="0.00 0.00 520.50 246.25" xmlns="http://www.w3.org/2000/svg" xmlns:xlink="http://www.w3.org/1999/xlink">
<g id="graph0" class="graph" transform="scale(1 1) rotate(0) translate(4 242.25)">
<title>nix::CmdRegistryAdd</title>
<!-- Node1 -->
<g id="Node000001" class="node">
<title>Node1</title>
<g id="a_Node000001"><a xlink:title=" ">
<polygon fill="#999999" stroke="#666666" points="407,-20.75 288.25,-20.75 288.25,0 407,0 407,-20.75"/>
<text text-anchor="middle" x="347.62" y="-7.25" font-family="Helvetica,sans-Serif" font-size="10.00">nix::CmdRegistryAdd</text>
</a>
</g>
</g>
<!-- Node2 -->
<g id="Node000002" class="node">
<title>Node2</title>
<g id="a_Node000002"><a xlink:href="structnix_1_1MixEvalArgs.html" target="_top" xlink:title=" ">
<polygon fill="white" stroke="#bfbfbf" points="339.5,-103 241.75,-103 241.75,-82.25 339.5,-82.25 339.5,-103"/>
<text text-anchor="middle" x="290.62" y="-89.5" font-family="Helvetica,sans-Serif" font-size="10.00">nix::MixEvalArgs</text>
</a>
</g>
</g>
<!-- Node2&#45;&gt;Node1 -->
<g id="edge1_Node000001_Node000002" class="edge">
<title>Node2&#45;&gt;Node1</title>
<g id="a_edge1_Node000001_Node000002"><a xlink:title=" ">
<path fill="none" stroke="#63b8ff" d="M304.13,-72.62C315.71,-56.3 331.93,-33.47 340.93,-20.8"/>
<polygon fill="#63b8ff" stroke="#63b8ff" points="301.43,-70.37 298.49,-80.55 307.14,-74.42 301.43,-70.37"/>
</a>
</g>
</g>
<!-- Node3 -->
<g id="Node000003" class="node">
<title>Node3</title>
<g id="a_Node000003"><a xlink:href="classnix_1_1Args.html" target="_top" xlink:title=" ">
<polygon fill="white" stroke="#bfbfbf" points="249,-238.25 190.25,-238.25 190.25,-217.5 249,-217.5 249,-238.25"/>
<text text-anchor="middle" x="219.62" y="-224.75" font-family="Helvetica,sans-Serif" font-size="10.00">nix::Args</text>
</a>
</g>
</g>
<!-- Node3&#45;&gt;Node2 -->
<g id="edge2_Node000002_Node000003" class="edge">
<title>Node3&#45;&gt;Node2</title>
<g id="a_edge2_Node000002_Node000003"><a xlink:title=" ">
<path fill="none" stroke="#63b8ff" d="M243.94,-210.5C253.95,-202.56 264.78,-192.21 271.62,-180.5 286.27,-155.44 289.65,-120.34 290.42,-103.45"/>
<polygon fill="#63b8ff" stroke="#63b8ff" points="241.91,-207.65 235.97,-216.43 246.08,-213.27 241.91,-207.65"/>
</a>
</g>
</g>
<!-- Node5 -->
<g id="Node000005" class="node">
<title>Node5</title>
<g id="a_Node000005"><a xlink:href="structnix_1_1Command.html" target="_top" xlink:title=" ">
<polygon fill="white" stroke="#666666" points="87.25,-180.5 0,-180.5 0,-159.75 87.25,-159.75 87.25,-180.5"/>
<text text-anchor="middle" x="43.62" y="-167" font-family="Helvetica,sans-Serif" font-size="10.00">nix::Command</text>
</a>
</g>
</g>
<!-- Node3&#45;&gt;Node5 -->
<g id="edge5_Node000005_Node000003" class="edge">
<title>Node3&#45;&gt;Node5</title>
<g id="a_edge5_Node000005_Node000003"><a xlink:title=" ">
<path fill="none" stroke="#63b8ff" d="M178.77,-218.37C157.85,-213.6 132.13,-207.08 109.62,-199.5 94.02,-194.24 76.96,-186.86 64.1,-180.95"/>
<polygon fill="#63b8ff" stroke="#63b8ff" points="177.84,-221.75 188.36,-220.51 179.36,-214.91 177.84,-221.75"/>
</a>
</g>
</g>
<!-- Node6 -->
<g id="Node000006" class="node">
<title>Node6</title>
<g id="a_Node000006"><a xlink:href="structnix_1_1MixRepair.html" target="_top" xlink:title=" ">
<polygon fill="white" stroke="#bfbfbf" points="262.88,-180.5 176.38,-180.5 176.38,-159.75 262.88,-159.75 262.88,-180.5"/>
<text text-anchor="middle" x="219.62" y="-167" font-family="Helvetica,sans-Serif" font-size="10.00">nix::MixRepair</text>
</a>
</g>
</g>
<!-- Node3&#45;&gt;Node6 -->
<g id="edge7_Node000006_Node000003" class="edge">
<title>Node3&#45;&gt;Node6</title>
<g id="a_edge7_Node000006_Node000003"><a xlink:title=" ">
<path fill="none" stroke="#63b8ff" d="M219.62,-205.93C219.62,-197.27 219.62,-187.65 219.62,-180.72"/>
<polygon fill="#63b8ff" stroke="#63b8ff" points="216.13,-205.65 219.63,-215.65 223.13,-205.65 216.13,-205.65"/>
</a>
</g>
</g>
<!-- Node8 -->
<g id="Node000008" class="node">
<title>Node8</title>
<g id="a_Node000008"><a xlink:href="classnix_1_1RegistryCommand.html" target="_top" xlink:title=" ">
<polygon fill="white" stroke="#bfbfbf" points="512.5,-141.75 384.75,-141.75 384.75,-121 512.5,-121 512.5,-141.75"/>
<text text-anchor="middle" x="448.62" y="-128.25" font-family="Helvetica,sans-Serif" font-size="10.00">nix::RegistryCommand</text>
</a>
</g>
</g>
<!-- Node3&#45;&gt;Node8 -->
<g id="edge11_Node000008_Node000003" class="edge">
<title>Node3&#45;&gt;Node8</title>
<g id="a_edge11_Node000008_Node000003"><a xlink:title=" ">
<path fill="none" stroke="#63b8ff" d="M260.61,-226.5C303.96,-224.17 372.47,-214.75 419.62,-180.5 432.88,-170.87 441.23,-153.15 445.4,-142.11"/>
<polygon fill="#63b8ff" stroke="#63b8ff" points="260.72,-222.99 250.87,-226.91 261.01,-229.99 260.72,-222.99"/>
</a>
</g>
</g>
<!-- Node4 -->
<g id="Node000004" class="node">
<title>Node4</title>
<g id="a_Node000004"><a xlink:href="classnix_1_1MultiCommand.html" target="_top" xlink:title=" ">
<polygon fill="white" stroke="#666666" points="181.62,-103 69.62,-103 69.62,-82.25 181.62,-82.25 181.62,-103"/>
<text text-anchor="middle" x="125.62" y="-89.5" font-family="Helvetica,sans-Serif" font-size="10.00">nix::MultiCommand</text>
</a>
</g>
</g>
<!-- Node4&#45;&gt;Node3 -->
<g id="edge3_Node000003_Node000004" class="edge">
<title>Node4&#45;&gt;Node3</title>
<g id="a_edge3_Node000003_Node000004"><a xlink:title=" ">
<path fill="none" stroke="#9a32cd" stroke-dasharray="5,2" d="M122.15,-114.63C120.19,-133.44 120.28,-160.99 133.12,-180.5 146.15,-200.28 170.53,-212.25 190.1,-219.06"/>
<polygon fill="#9a32cd" stroke="#9a32cd" points="125.59,-115.33 123.46,-104.95 118.65,-114.39 125.59,-115.33"/>
</a>
</g>
<text text-anchor="middle" x="150.38" y="-167" font-family="Helvetica,sans-Serif" font-size="10.00" fill="grey"> parent</text>
</g>
<!-- Node5&#45;&gt;Node1 -->
<g id="edge9_Node000001_Node000005" class="edge">
<title>Node5&#45;&gt;Node1</title>
<g id="a_edge9_Node000001_Node000005"><a xlink:title=" ">
<path fill="none" stroke="#63b8ff" d="M41.82,-147.92C41.37,-128.32 44.02,-99.69 60.62,-82.25 91.46,-49.87 213.29,-28.73 287.95,-18.54"/>
<polygon fill="#63b8ff" stroke="#63b8ff" points="38.32,-147.97 42.36,-157.77 45.3,-147.59 38.32,-147.97"/>
</a>
</g>
</g>
<!-- Node5&#45;&gt;Node4 -->
<g id="edge4_Node000004_Node000005" class="edge">
<title>Node5&#45;&gt;Node4</title>
<g id="a_edge4_Node000004_Node000005"><a xlink:title=" ">
<path fill="none" stroke="#63b8ff" d="M62.59,-151.66C78.83,-136.71 101.64,-115.71 114.9,-103.5"/>
<polygon fill="#63b8ff" stroke="#63b8ff" points="60.44,-148.88 55.46,-158.23 65.19,-154.03 60.44,-148.88"/>
</a>
</g>
</g>
<!-- Node6&#45;&gt;Node2 -->
<g id="edge6_Node000002_Node000006" class="edge">
<title>Node6&#45;&gt;Node2</title>
<g id="a_edge6_Node000002_Node000006"><a xlink:title=" ">
<path fill="none" stroke="#63b8ff" d="M236.48,-151.2C250.61,-136.17 270.24,-115.31 281.57,-103.26"/>
<polygon fill="#63b8ff" stroke="#63b8ff" points="234.24,-148.47 229.94,-158.15 239.34,-153.26 234.24,-148.47"/>
</a>
</g>
</g>
<!-- Node7 -->
<g id="Node000007" class="node">
<title>Node7</title>
<g id="a_Node000007"><a xlink:href="structnix_1_1SearchPath.html" target="_top" xlink:title=" ">
<polygon fill="white" stroke="#666666" points="410.12,-180.5 319.12,-180.5 319.12,-159.75 410.12,-159.75 410.12,-180.5"/>
<text text-anchor="middle" x="364.62" y="-167" font-family="Helvetica,sans-Serif" font-size="10.00">nix::SearchPath</text>
</a>
</g>
</g>
<!-- Node7&#45;&gt;Node2 -->
<g id="edge8_Node000002_Node000007" class="edge">
<title>Node7&#45;&gt;Node2</title>
<g id="a_edge8_Node000002_Node000007"><a xlink:title=" ">
<path fill="none" stroke="#9a32cd" stroke-dasharray="5,2" d="M334.26,-153.6C328.96,-150.12 323.75,-146.14 319.38,-141.75 308.12,-130.43 299.49,-113.86 294.73,-103.42"/>
<polygon fill="#9a32cd" stroke="#9a32cd" points="332.08,-156.38 342.45,-158.53 335.69,-150.38 332.08,-156.38"/>
</a>
</g>
<text text-anchor="middle" x="347.5" y="-128.25" font-family="Helvetica,sans-Serif" font-size="10.00" fill="grey"> searchPath</text>
</g>
<!-- Node8&#45;&gt;Node1 -->
<g id="edge10_Node000001_Node000008" class="edge">
<title>Node8&#45;&gt;Node1</title>
<g id="a_edge10_Node000001_Node000008"><a xlink:title=" ">
<path fill="none" stroke="#63b8ff" d="M404.08,-115.71C397.7,-112.25 391.61,-108.06 386.62,-103 363.19,-79.25 352.92,-39.23 349.29,-20.98"/>
<polygon fill="#63b8ff" stroke="#63b8ff" points="402.35,-118.76 412.89,-119.9 405.36,-112.44 402.35,-118.76"/>
</a>
</g>
</g>
<!-- Node9 -->
<g id="Node000009" class="node">
<title>Node9</title>
<g id="a_Node000009"><a xlink:title=" ">
<polygon fill="white" stroke="#bfbfbf" points="439.5,-103 395.75,-103 395.75,-82.25 439.5,-82.25 439.5,-103"/>
<text text-anchor="middle" x="417.62" y="-89.5" font-family="Helvetica,sans-Serif" font-size="10.00">string</text>
</a>
</g>
</g>
<!-- Node9&#45;&gt;Node1 -->
<g id="edge12_Node000001_Node000009" class="edge">
<title>Node9&#45;&gt;Node1</title>
<g id="a_edge12_Node000001_Node000009"><a xlink:title=" ">
<path fill="none" stroke="#9a32cd" stroke-dasharray="5,2" d="M406.34,-72.19C399.8,-61.73 391.02,-48.93 381.62,-38.75 375.66,-32.29 368.12,-26.06 361.66,-21.19"/>
<polygon fill="#9a32cd" stroke="#9a32cd" points="403.33,-73.98 411.49,-80.74 409.33,-70.37 403.33,-73.98"/>
</a>
</g>
<text text-anchor="middle" x="421.04" y="-54.75" font-family="Helvetica,sans-Serif" font-size="10.00" fill="grey"> fromUrl</text>
<text text-anchor="middle" x="421.04" y="-42" font-family="Helvetica,sans-Serif" font-size="10.00" fill="grey">toUrl</text>
</g>
</g>
</svg>
