<?xml version="1.0" encoding="UTF-8" standalone="no"?>
<!DOCTYPE svg PUBLIC "-//W3C//DTD SVG 1.1//EN"
 "http://www.w3.org/Graphics/SVG/1.1/DTD/svg11.dtd">
<!-- Generated by graphviz version 12.2.1 (0)
 -->
<!-- Title: nix::CmdOptimiseStore Pages: 1 -->
<svg width="283pt" height="156pt"
 viewBox="0.00 0.00 283.00 156.00" xmlns="http://www.w3.org/2000/svg" xmlns:xlink="http://www.w3.org/1999/xlink">
<g id="graph0" class="graph" transform="scale(1 1) rotate(0) translate(4 152)">
<title>nix::CmdOptimiseStore</title>
<!-- Node1 -->
<g id="Node000001" class="node">
<title>Node1</title>
<g id="a_Node000001"><a xlink:title=" ">
<polygon fill="#999999" stroke="#666666" points="129.25,-20.75 0,-20.75 0,0 129.25,0 129.25,-20.75"/>
<text text-anchor="middle" x="64.62" y="-7.25" font-family="Helvetica,sans-Serif" font-size="10.00">nix::CmdOptimiseStore</text>
</a>
</g>
</g>
<!-- Node2 -->
<g id="Node000002" class="node">
<title>Node2</title>
<g id="a_Node000002"><a xlink:href="structnix_1_1StoreCommand.html" target="_top" xlink:title=" ">
<polygon fill="white" stroke="#666666" points="121,-90.25 8.25,-90.25 8.25,-69.5 121,-69.5 121,-90.25"/>
<text text-anchor="middle" x="64.62" y="-76.75" font-family="Helvetica,sans-Serif" font-size="10.00">nix::StoreCommand</text>
</a>
</g>
</g>
<!-- Node2&#45;&gt;Node1 -->
<g id="edge1_Node000001_Node000002" class="edge">
<title>Node2&#45;&gt;Node1</title>
<g id="a_edge1_Node000001_Node000002"><a xlink:title=" ">
<path fill="none" stroke="#63b8ff" d="M64.62,-58.07C64.62,-45.72 64.62,-30.65 64.62,-21.03"/>
<polygon fill="#63b8ff" stroke="#63b8ff" points="61.13,-57.69 64.63,-67.69 68.13,-57.69 61.13,-57.69"/>
</a>
</g>
</g>
<!-- Node3 -->
<g id="Node000003" class="node">
<title>Node3</title>
<g id="a_Node000003"><a xlink:href="structnix_1_1Command.html" target="_top" xlink:title=" ">
<polygon fill="white" stroke="#666666" points="238.25,-148 151,-148 151,-127.25 238.25,-127.25 238.25,-148"/>
<text text-anchor="middle" x="194.62" y="-134.5" font-family="Helvetica,sans-Serif" font-size="10.00">nix::Command</text>
</a>
</g>
</g>
<!-- Node3&#45;&gt;Node2 -->
<g id="edge2_Node000002_Node000003" class="edge">
<title>Node3&#45;&gt;Node2</title>
<g id="a_edge2_Node000002_Node000003"><a xlink:title=" ">
<path fill="none" stroke="#63b8ff" d="M161.27,-122.32C138.08,-112.37 107.78,-99.38 87.34,-90.62"/>
<polygon fill="#63b8ff" stroke="#63b8ff" points="159.72,-125.47 170.29,-126.19 162.48,-119.03 159.72,-125.47"/>
</a>
</g>
</g>
<!-- Node5 -->
<g id="Node000005" class="node">
<title>Node5</title>
<g id="a_Node000005"><a xlink:href="classnix_1_1MultiCommand.html" target="_top" xlink:title=" ">
<polygon fill="white" stroke="#666666" points="250.62,-90.25 138.62,-90.25 138.62,-69.5 250.62,-69.5 250.62,-90.25"/>
<text text-anchor="middle" x="194.62" y="-76.75" font-family="Helvetica,sans-Serif" font-size="10.00">nix::MultiCommand</text>
</a>
</g>
</g>
<!-- Node3&#45;&gt;Node5 -->
<g id="edge5_Node000005_Node000003" class="edge">
<title>Node3&#45;&gt;Node5</title>
<g id="a_edge5_Node000005_Node000003"><a xlink:title=" ">
<path fill="none" stroke="#63b8ff" d="M194.62,-115.68C194.62,-107.02 194.62,-97.4 194.62,-90.47"/>
<polygon fill="#63b8ff" stroke="#63b8ff" points="191.13,-115.4 194.63,-125.4 198.13,-115.4 191.13,-115.4"/>
</a>
</g>
</g>
<!-- Node4 -->
<g id="Node000004" class="node">
<title>Node4</title>
<g id="a_Node000004"><a xlink:href="classnix_1_1Args.html" target="_top" xlink:title=" ">
<polygon fill="white" stroke="#bfbfbf" points="275,-20.75 216.25,-20.75 216.25,0 275,0 275,-20.75"/>
<text text-anchor="middle" x="245.62" y="-7.25" font-family="Helvetica,sans-Serif" font-size="10.00">nix::Args</text>
</a>
</g>
</g>
<!-- Node4&#45;&gt;Node3 -->
<g id="edge3_Node000003_Node000004" class="edge">
<title>Node4&#45;&gt;Node3</title>
<g id="a_edge3_Node000003_Node000004"><a xlink:title=" ">
<path fill="none" stroke="#63b8ff" d="M260.11,-30.48C261.55,-33.15 262.78,-35.94 263.62,-38.75 270.21,-60.74 271.17,-70.41 259.62,-90.25 249.93,-106.9 231.6,-119.15 216.87,-126.86"/>
<polygon fill="#63b8ff" stroke="#63b8ff" points="263.2,-28.81 254.82,-22.33 257.33,-32.62 263.2,-28.81"/>
</a>
</g>
</g>
<!-- Node5&#45;&gt;Node4 -->
<g id="edge4_Node000004_Node000005" class="edge">
<title>Node5&#45;&gt;Node4</title>
<g id="a_edge4_Node000004_Node000005"><a xlink:title=" ">
<path fill="none" stroke="#9a32cd" stroke-dasharray="5,2" d="M208.62,-60.35C218.24,-47.62 230.61,-31.25 238.33,-21.03"/>
<polygon fill="#9a32cd" stroke="#9a32cd" points="206.08,-57.91 202.84,-68 211.67,-62.13 206.08,-57.91"/>
</a>
</g>
<text text-anchor="middle" x="241.94" y="-42" font-family="Helvetica,sans-Serif" font-size="10.00" fill="grey"> parent</text>
</g>
</g>
</svg>
