<?xml version="1.0" encoding="UTF-8" standalone="no"?>
<!DOCTYPE svg PUBLIC "-//W3C//DTD SVG 1.1//EN"
 "http://www.w3.org/Graphics/SVG/1.1/DTD/svg11.dtd">
<!-- Generated by graphviz version 12.2.1 (0)
 -->
<!-- Title: nix::curlFileTransfer::TransferItem Pages: 1 -->
<svg width="499pt" height="174pt"
 viewBox="0.00 0.00 498.50 174.14" xmlns="http://www.w3.org/2000/svg" xmlns:xlink="http://www.w3.org/1999/xlink">
<g id="graph0" class="graph" transform="scale(1 1) rotate(0) translate(4 170.14)">
<title>nix::curlFileTransfer::TransferItem</title>
<!-- Node1 -->
<g id="Node000001" class="node">
<title>Node1</title>
<g id="a_Node000001"><a xlink:title=" ">
<polygon fill="#999999" stroke="#666666" points="490.5,-111.88 379.25,-111.88 379.25,-78.38 490.5,-78.38 490.5,-111.88"/>
<text text-anchor="start" x="387.25" y="-98.38" font-family="Helvetica,sans-Serif" font-size="10.00">nix::curlFileTransfer</text>
<text text-anchor="middle" x="434.88" y="-85.62" font-family="Helvetica,sans-Serif" font-size="10.00">::TransferItem</text>
</a>
</g>
</g>
<!-- Node2 -->
<g id="Node000002" class="node">
<title>Node2</title>
<g id="a_Node000002"><a xlink:title=" ">
<polygon fill="white" stroke="#bfbfbf" points="225.5,-163.5 181.75,-163.5 181.75,-142.75 225.5,-142.75 225.5,-163.5"/>
<text text-anchor="middle" x="203.62" y="-150" font-family="Helvetica,sans-Serif" font-size="10.00">string</text>
</a>
</g>
</g>
<!-- Node2&#45;&gt;Node1 -->
<g id="edge1_Node000001_Node000002" class="edge">
<title>Node2&#45;&gt;Node1</title>
<g id="a_edge1_Node000001_Node000002"><a xlink:title=" ">
<path fill="none" stroke="#9a32cd" stroke-dasharray="5,2" d="M237.29,-148.99C269.28,-144.49 319.2,-136.28 361.25,-124.12 372.34,-120.92 384.07,-116.65 394.79,-112.37"/>
<polygon fill="#9a32cd" stroke="#9a32cd" points="236.9,-145.51 227.46,-150.33 237.84,-152.45 236.9,-145.51"/>
</a>
</g>
<text text-anchor="middle" x="323.38" y="-156.64" font-family="Helvetica,sans-Serif" font-size="10.00" fill="grey"> statusMsg</text>
<text text-anchor="middle" x="323.38" y="-143.89" font-family="Helvetica,sans-Serif" font-size="10.00" fill="grey">uri</text>
</g>
<!-- Node3 -->
<g id="Node000003" class="node">
<title>Node3</title>
<g id="a_Node000003"><a xlink:title=" ">
<polygon fill="white" stroke="#bfbfbf" points="255.5,-124.5 151.75,-124.5 151.75,-103.75 255.5,-103.75 255.5,-124.5"/>
<text text-anchor="middle" x="203.62" y="-111" font-family="Helvetica,sans-Serif" font-size="10.00">anonymous:result</text>
</a>
</g>
</g>
<!-- Node3&#45;&gt;Node1 -->
<g id="edge2_Node000001_Node000003" class="edge">
<title>Node3&#45;&gt;Node1</title>
<g id="a_edge2_Node000001_Node000003"><a xlink:title=" ">
<path fill="none" stroke="#9a32cd" stroke-dasharray="5,2" d="M266.83,-108.97C301.82,-106.07 345.12,-102.48 378.87,-99.68"/>
<polygon fill="#9a32cd" stroke="#9a32cd" points="266.97,-105.45 257.3,-109.76 267.55,-112.42 266.97,-105.45"/>
</a>
</g>
<text text-anchor="middle" x="323.38" y="-110.14" font-family="Helvetica,sans-Serif" font-size="10.00" fill="grey"> result</text>
</g>
<!-- Node4 -->
<g id="Node000004" class="node">
<title>Node4</title>
<g id="a_Node000004"><a xlink:href="structnix_1_1Activity.html" target="_top" xlink:title=" ">
<polygon fill="white" stroke="#bfbfbf" points="240.88,-85.5 166.38,-85.5 166.38,-64.75 240.88,-64.75 240.88,-85.5"/>
<text text-anchor="middle" x="203.62" y="-72" font-family="Helvetica,sans-Serif" font-size="10.00">nix::Activity</text>
</a>
</g>
</g>
<!-- Node4&#45;&gt;Node1 -->
<g id="edge3_Node000001_Node000004" class="edge">
<title>Node4&#45;&gt;Node1</title>
<g id="a_edge3_Node000001_Node000004"><a xlink:title=" ">
<path fill="none" stroke="#9a32cd" stroke-dasharray="5,2" d="M252.46,-76.86C283.52,-78.25 324.85,-80.61 361.25,-84.38 366.96,-84.96 372.9,-85.68 378.82,-86.46"/>
<polygon fill="#9a32cd" stroke="#9a32cd" points="252.75,-73.37 242.61,-76.44 252.45,-80.36 252.75,-73.37"/>
</a>
</g>
<text text-anchor="middle" x="323.38" y="-87.62" font-family="Helvetica,sans-Serif" font-size="10.00" fill="grey"> act</text>
</g>
<!-- Node5 -->
<g id="Node000005" class="node">
<title>Node5</title>
<g id="a_Node000005"><a xlink:href="classnix_1_1Logger.html" target="_top" xlink:title=" ">
<polygon fill="white" stroke="#bfbfbf" points="70,-85.5 0,-85.5 0,-64.75 70,-64.75 70,-85.5"/>
<text text-anchor="middle" x="35" y="-72" font-family="Helvetica,sans-Serif" font-size="10.00">nix::Logger</text>
</a>
</g>
</g>
<!-- Node5&#45;&gt;Node4 -->
<g id="edge4_Node000004_Node000005" class="edge">
<title>Node5&#45;&gt;Node4</title>
<g id="a_edge4_Node000004_Node000005"><a xlink:title=" ">
<path fill="none" stroke="#9a32cd" stroke-dasharray="5,2" d="M81.43,-75.12C107.99,-75.12 141.06,-75.12 165.95,-75.12"/>
<polygon fill="#9a32cd" stroke="#9a32cd" points="81.63,-71.63 71.63,-75.13 81.63,-78.63 81.63,-71.63"/>
</a>
</g>
<text text-anchor="middle" x="104.88" y="-78.38" font-family="Helvetica,sans-Serif" font-size="10.00" fill="grey"> logger</text>
</g>
<!-- Node6 -->
<g id="Node000006" class="node">
<title>Node6</title>
<g id="a_Node000006"><a xlink:href="classnix_1_1Sync.html" target="_top" xlink:title=" ">
<polygon fill="white" stroke="#666666" points="267.5,-46.25 139.75,-46.25 139.75,0 267.5,0 267.5,-46.25"/>
<text text-anchor="start" x="147.75" y="-32.75" font-family="Helvetica,sans-Serif" font-size="10.00">nix::Sync&lt; nix::curlFile</text>
<text text-anchor="start" x="147.75" y="-20" font-family="Helvetica,sans-Serif" font-size="10.00">Transfer::TransferItem</text>
<text text-anchor="middle" x="203.62" y="-7.25" font-family="Helvetica,sans-Serif" font-size="10.00">::DownloadState &gt;</text>
</a>
</g>
</g>
<!-- Node6&#45;&gt;Node1 -->
<g id="edge5_Node000001_Node000006" class="edge">
<title>Node6&#45;&gt;Node1</title>
<g id="a_edge5_Node000001_Node000006"><a xlink:title=" ">
<path fill="none" stroke="#9a32cd" stroke-dasharray="5,2" d="M278.92,-38.88C305.23,-45.21 334.84,-53.19 361.25,-62.38 373.92,-66.78 387.42,-72.55 399.29,-78.02"/>
<polygon fill="#9a32cd" stroke="#9a32cd" points="279.88,-35.51 269.35,-36.62 278.27,-42.32 279.88,-35.51"/>
</a>
</g>
<text text-anchor="middle" x="323.38" y="-65.62" font-family="Helvetica,sans-Serif" font-size="10.00" fill="grey"> downloadState</text>
</g>
</g>
</svg>
