<?xml version="1.0" encoding="UTF-8" standalone="no"?>
<!DOCTYPE svg PUBLIC "-//W3C//DTD SVG 1.1//EN"
 "http://www.w3.org/Graphics/SVG/1.1/DTD/svg11.dtd">
<!-- Generated by graphviz version 12.2.1 (0)
 -->
<!-- Title: nix::CmdLsNar Pages: 1 -->
<svg width="197pt" height="199pt"
 viewBox="0.00 0.00 197.12 199.00" xmlns="http://www.w3.org/2000/svg" xmlns:xlink="http://www.w3.org/1999/xlink">
<g id="graph0" class="graph" transform="scale(1 1) rotate(0) translate(4 195)">
<title>nix::CmdLsNar</title>
<!-- Node1 -->
<g id="Node000001" class="node">
<title>Node1</title>
<g id="a_Node000001"><a xlink:title=" ">
<polygon fill="#999999" stroke="#666666" points="134.25,-20.75 47,-20.75 47,0 134.25,0 134.25,-20.75"/>
<text text-anchor="middle" x="90.62" y="-7.25" font-family="Helvetica,sans-Serif" font-size="10.00">nix::CmdLsNar</text>
</a>
</g>
</g>
<!-- Node2 -->
<g id="Node000002" class="node">
<title>Node2</title>
<g id="a_Node000002"><a xlink:href="structnix_1_1Command.html" target="_top" xlink:title=" ">
<polygon fill="white" stroke="#666666" points="87.25,-77.5 0,-77.5 0,-56.75 87.25,-56.75 87.25,-77.5"/>
<text text-anchor="middle" x="43.62" y="-64" font-family="Helvetica,sans-Serif" font-size="10.00">nix::Command</text>
</a>
</g>
</g>
<!-- Node2&#45;&gt;Node1 -->
<g id="edge1_Node000001_Node000002" class="edge">
<title>Node2&#45;&gt;Node1</title>
<g id="a_edge1_Node000001_Node000002"><a xlink:title=" ">
<path fill="none" stroke="#63b8ff" d="M59.41,-47.74C67.07,-38.81 75.97,-28.45 82.3,-21.08"/>
<polygon fill="#63b8ff" stroke="#63b8ff" points="56.87,-45.32 53.01,-55.19 62.18,-49.88 56.87,-45.32"/>
</a>
</g>
</g>
<!-- Node3 -->
<g id="Node000003" class="node">
<title>Node3</title>
<g id="a_Node000003"><a xlink:href="classnix_1_1Args.html" target="_top" xlink:title=" ">
<polygon fill="white" stroke="#bfbfbf" points="111,-191 52.25,-191 52.25,-170.25 111,-170.25 111,-191"/>
<text text-anchor="middle" x="81.62" y="-177.5" font-family="Helvetica,sans-Serif" font-size="10.00">nix::Args</text>
</a>
</g>
</g>
<!-- Node3&#45;&gt;Node2 -->
<g id="edge2_Node000002_Node000003" class="edge">
<title>Node3&#45;&gt;Node2</title>
<g id="a_edge2_Node000002_Node000003"><a xlink:title=" ">
<path fill="none" stroke="#63b8ff" d="M74.73,-159.38C66.52,-135.31 53.15,-96.09 46.96,-77.93"/>
<polygon fill="#63b8ff" stroke="#63b8ff" points="71.36,-160.35 77.9,-168.69 77.98,-158.09 71.36,-160.35"/>
</a>
</g>
</g>
<!-- Node4 -->
<g id="Node000004" class="node">
<title>Node4</title>
<g id="a_Node000004"><a xlink:href="structnix_1_1MixLs.html" target="_top" xlink:title=" ">
<polygon fill="white" stroke="#bfbfbf" points="170.38,-77.5 104.88,-77.5 104.88,-56.75 170.38,-56.75 170.38,-77.5"/>
<text text-anchor="middle" x="137.62" y="-64" font-family="Helvetica,sans-Serif" font-size="10.00">nix::MixLs</text>
</a>
</g>
</g>
<!-- Node3&#45;&gt;Node4 -->
<g id="edge4_Node000004_Node000003" class="edge">
<title>Node3&#45;&gt;Node4</title>
<g id="a_edge4_Node000004_Node000003"><a xlink:title=" ">
<path fill="none" stroke="#63b8ff" d="M85.79,-158.81C88.98,-145.38 94.13,-127.82 101.62,-113.5 108.71,-99.96 120.08,-86.5 128.14,-77.8"/>
<polygon fill="#63b8ff" stroke="#63b8ff" points="82.44,-157.77 83.72,-168.29 89.27,-159.27 82.44,-157.77"/>
</a>
</g>
</g>
<!-- Node5 -->
<g id="Node000005" class="node">
<title>Node5</title>
<g id="a_Node000005"><a xlink:href="structnix_1_1MixJSON.html" target="_top" xlink:title=" ">
<polygon fill="white" stroke="#bfbfbf" points="189.12,-134.25 110.12,-134.25 110.12,-113.5 189.12,-113.5 189.12,-134.25"/>
<text text-anchor="middle" x="149.62" y="-120.75" font-family="Helvetica,sans-Serif" font-size="10.00">nix::MixJSON</text>
</a>
</g>
</g>
<!-- Node3&#45;&gt;Node5 -->
<g id="edge6_Node000005_Node000003" class="edge">
<title>Node3&#45;&gt;Node5</title>
<g id="a_edge6_Node000005_Node000003"><a xlink:title=" ">
<path fill="none" stroke="#63b8ff" d="M102.73,-162.64C114.18,-153.41 127.93,-142.34 137.57,-134.58"/>
<polygon fill="#63b8ff" stroke="#63b8ff" points="100.56,-159.89 94.96,-168.89 104.95,-165.34 100.56,-159.89"/>
</a>
</g>
</g>
<!-- Node4&#45;&gt;Node1 -->
<g id="edge3_Node000001_Node000004" class="edge">
<title>Node4&#45;&gt;Node1</title>
<g id="a_edge3_Node000001_Node000004"><a xlink:title=" ">
<path fill="none" stroke="#63b8ff" d="M121.84,-47.74C114.18,-38.81 105.28,-28.45 98.95,-21.08"/>
<polygon fill="#63b8ff" stroke="#63b8ff" points="119.07,-49.88 128.24,-55.19 124.38,-45.32 119.07,-49.88"/>
</a>
</g>
</g>
<!-- Node5&#45;&gt;Node4 -->
<g id="edge5_Node000004_Node000005" class="edge">
<title>Node5&#45;&gt;Node4</title>
<g id="a_edge5_Node000004_Node000005"><a xlink:title=" ">
<path fill="none" stroke="#63b8ff" d="M145.03,-101.92C143.21,-93.63 141.21,-84.5 139.75,-77.83"/>
<polygon fill="#63b8ff" stroke="#63b8ff" points="141.6,-102.59 147.16,-111.61 148.43,-101.09 141.6,-102.59"/>
</a>
</g>
</g>
</g>
</svg>
