<?xml version="1.0" encoding="UTF-8" standalone="no"?>
<!DOCTYPE svg PUBLIC "-//W3C//DTD SVG 1.1//EN"
 "http://www.w3.org/Graphics/SVG/1.1/DTD/svg11.dtd">
<!-- Generated by graphviz version 12.2.1 (0)
 -->
<!-- Title: nix::NarInfo Pages: 1 -->
<svg width="312pt" height="250pt"
 viewBox="0.00 0.00 312.00 250.00" xmlns="http://www.w3.org/2000/svg" xmlns:xlink="http://www.w3.org/1999/xlink">
<g id="graph0" class="graph" transform="scale(1 1) rotate(0) translate(4 246)">
<title>nix::NarInfo</title>
<!-- Node1 -->
<g id="Node000001" class="node">
<title>Node1</title>
<g id="a_Node000001"><a xlink:title=" ">
<polygon fill="#999999" stroke="#666666" points="218.25,-20.75 145.25,-20.75 145.25,0 218.25,0 218.25,-20.75"/>
<text text-anchor="middle" x="181.75" y="-7.25" font-family="Helvetica,sans-Serif" font-size="10.00">nix::NarInfo</text>
</a>
</g>
</g>
<!-- Node2 -->
<g id="Node000002" class="node">
<title>Node2</title>
<g id="a_Node000002"><a xlink:href="structnix_1_1ValidPathInfo.html" target="_top" xlink:title=" ">
<polygon fill="white" stroke="#bfbfbf" points="187.12,-103 86.38,-103 86.38,-82.25 187.12,-82.25 187.12,-103"/>
<text text-anchor="middle" x="136.75" y="-89.5" font-family="Helvetica,sans-Serif" font-size="10.00">nix::ValidPathInfo</text>
</a>
</g>
</g>
<!-- Node2&#45;&gt;Node1 -->
<g id="edge1_Node000001_Node000002" class="edge">
<title>Node2&#45;&gt;Node1</title>
<g id="a_edge1_Node000001_Node000002"><a xlink:title=" ">
<path fill="none" stroke="#63b8ff" d="M147.67,-72.15C156.8,-55.87 169.43,-33.35 176.47,-20.8"/>
<polygon fill="#63b8ff" stroke="#63b8ff" points="144.85,-70.03 143.01,-80.46 150.95,-73.45 144.85,-70.03"/>
</a>
</g>
</g>
<!-- Node3 -->
<g id="Node000003" class="node">
<title>Node3</title>
<g id="a_Node000003"><a xlink:href="structnix_1_1UnkeyedValidPathInfo.html" target="_top" xlink:title=" ">
<polygon fill="white" stroke="#bfbfbf" points="143.5,-172.5 0,-172.5 0,-151.75 143.5,-151.75 143.5,-172.5"/>
<text text-anchor="middle" x="71.75" y="-159" font-family="Helvetica,sans-Serif" font-size="10.00">nix::UnkeyedValidPathInfo</text>
</a>
</g>
</g>
<!-- Node3&#45;&gt;Node2 -->
<g id="edge2_Node000002_Node000003" class="edge">
<title>Node3&#45;&gt;Node2</title>
<g id="a_edge2_Node000002_Node000003"><a xlink:title=" ">
<path fill="none" stroke="#63b8ff" d="M88.87,-143.34C101.22,-130.52 117.42,-113.7 127.45,-103.28"/>
<polygon fill="#63b8ff" stroke="#63b8ff" points="86.53,-140.73 82.11,-150.36 91.57,-145.59 86.53,-140.73"/>
</a>
</g>
</g>
<!-- Node4 -->
<g id="Node000004" class="node">
<title>Node4</title>
<g id="a_Node000004"><a xlink:href="structnix_1_1Hash.html" target="_top" xlink:title=" ">
<polygon fill="white" stroke="#bfbfbf" points="102.62,-242 40.88,-242 40.88,-221.25 102.62,-221.25 102.62,-242"/>
<text text-anchor="middle" x="71.75" y="-228.5" font-family="Helvetica,sans-Serif" font-size="10.00">nix::Hash</text>
</a>
</g>
</g>
<!-- Node4&#45;&gt;Node3 -->
<g id="edge3_Node000003_Node000004" class="edge">
<title>Node4&#45;&gt;Node3</title>
<g id="a_edge3_Node000003_Node000004"><a xlink:title=" ">
<path fill="none" stroke="#9a32cd" stroke-dasharray="5,2" d="M71.75,-209.82C71.75,-197.47 71.75,-182.4 71.75,-172.78"/>
<polygon fill="#9a32cd" stroke="#9a32cd" points="68.25,-209.44 71.75,-219.44 75.25,-209.44 68.25,-209.44"/>
</a>
</g>
<text text-anchor="middle" x="93.5" y="-193.75" font-family="Helvetica,sans-Serif" font-size="10.00" fill="grey"> narHash</text>
</g>
<!-- Node4&#45;&gt;Node4 -->
<g id="edge4_Node000004_Node000004" class="edge">
<title>Node4&#45;&gt;Node4</title>
<g id="a_edge4_Node000004_Node000004"><a xlink:title=" ">
<path fill="none" stroke="#9a32cd" stroke-dasharray="5,2" d="M114.17,-236.84C118.13,-235.77 120.62,-234.03 120.62,-231.62 120.62,-227.35 112.73,-225.18 102.77,-225.11"/>
<polygon fill="#9a32cd" stroke="#9a32cd" points="113.82,-233.36 104.28,-237.97 114.61,-240.32 113.82,-233.36"/>
</a>
</g>
<text text-anchor="middle" x="140.88" y="-228.5" font-family="Helvetica,sans-Serif" font-size="10.00" fill="grey"> dummy</text>
</g>
<!-- Node5 -->
<g id="Node000005" class="node">
<title>Node5</title>
<g id="a_Node000005"><a xlink:href="classnix_1_1StorePath.html" target="_top" xlink:title=" ">
<polygon fill="white" stroke="#666666" points="245.5,-172.5 162,-172.5 162,-151.75 245.5,-151.75 245.5,-172.5"/>
<text text-anchor="middle" x="203.75" y="-159" font-family="Helvetica,sans-Serif" font-size="10.00">nix::StorePath</text>
</a>
</g>
</g>
<!-- Node5&#45;&gt;Node2 -->
<g id="edge5_Node000002_Node000005" class="edge">
<title>Node5&#45;&gt;Node2</title>
<g id="a_edge5_Node000002_Node000005"><a xlink:title=" ">
<path fill="none" stroke="#9a32cd" stroke-dasharray="5,2" d="M186.1,-143.34C173.37,-130.52 156.67,-113.7 146.33,-103.28"/>
<polygon fill="#9a32cd" stroke="#9a32cd" points="183.56,-145.75 193.08,-150.38 188.52,-140.82 183.56,-145.75"/>
</a>
</g>
<text text-anchor="middle" x="188.63" y="-124.25" font-family="Helvetica,sans-Serif" font-size="10.00" fill="grey"> path</text>
</g>
<!-- Node5&#45;&gt;Node5 -->
<g id="edge6_Node000005_Node000005" class="edge">
<title>Node5&#45;&gt;Node5</title>
<g id="a_edge6_Node000005_Node000005"><a xlink:title=" ">
<path fill="none" stroke="#9a32cd" stroke-dasharray="5,2" d="M257.26,-166.93C261.13,-165.85 263.5,-164.24 263.5,-162.12 263.5,-158.36 256.01,-156.22 245.9,-155.72"/>
<polygon fill="#9a32cd" stroke="#9a32cd" points="256.82,-163.46 247.4,-168.32 257.79,-170.39 256.82,-163.46"/>
</a>
</g>
<text text-anchor="middle" x="283.75" y="-159" font-family="Helvetica,sans-Serif" font-size="10.00" fill="grey"> dummy</text>
</g>
<!-- Node6 -->
<g id="Node000006" class="node">
<title>Node6</title>
<g id="a_Node000006"><a xlink:title=" ">
<polygon fill="white" stroke="#bfbfbf" points="248.62,-103 204.88,-103 204.88,-82.25 248.62,-82.25 248.62,-103"/>
<text text-anchor="middle" x="226.75" y="-89.5" font-family="Helvetica,sans-Serif" font-size="10.00">string</text>
</a>
</g>
</g>
<!-- Node6&#45;&gt;Node1 -->
<g id="edge7_Node000001_Node000006" class="edge">
<title>Node6&#45;&gt;Node1</title>
<g id="a_edge7_Node000001_Node000006"><a xlink:title=" ">
<path fill="none" stroke="#9a32cd" stroke-dasharray="5,2" d="M215.83,-72.15C206.7,-55.87 194.07,-33.35 187.03,-20.8"/>
<polygon fill="#9a32cd" stroke="#9a32cd" points="212.55,-73.45 220.49,-80.46 218.65,-70.03 212.55,-73.45"/>
</a>
</g>
<text text-anchor="middle" x="243.53" y="-54.75" font-family="Helvetica,sans-Serif" font-size="10.00" fill="grey"> compression</text>
<text text-anchor="middle" x="243.53" y="-42" font-family="Helvetica,sans-Serif" font-size="10.00" fill="grey">url</text>
</g>
</g>
</svg>
