<?xml version="1.0" encoding="UTF-8" standalone="no"?>
<!DOCTYPE svg PUBLIC "-//W3C//DTD SVG 1.1//EN"
 "http://www.w3.org/Graphics/SVG/1.1/DTD/svg11.dtd">
<!-- Generated by graphviz version 12.2.1 (0)
 -->
<!-- Title: nix::CmdDerivation Pages: 1 -->
<svg width="238pt" height="156pt"
 viewBox="0.00 0.00 237.88 156.00" xmlns="http://www.w3.org/2000/svg" xmlns:xlink="http://www.w3.org/1999/xlink">
<g id="graph0" class="graph" transform="scale(1 1) rotate(0) translate(4 152)">
<title>nix::CmdDerivation</title>
<!-- Node1 -->
<g id="Node000001" class="node">
<title>Node1</title>
<g id="a_Node000001"><a xlink:title=" ">
<polygon fill="#999999" stroke="#666666" points="110.5,-78.5 0,-78.5 0,-57.75 110.5,-57.75 110.5,-78.5"/>
<text text-anchor="middle" x="55.25" y="-65" font-family="Helvetica,sans-Serif" font-size="10.00">nix::CmdDerivation</text>
</a>
</g>
</g>
<!-- Node2 -->
<g id="Node000002" class="node">
<title>Node2</title>
<g id="a_Node000002"><a xlink:href="classnix_1_1MultiCommand.html" target="_top" xlink:title=" ">
<polygon fill="white" stroke="#666666" points="214.25,-148 102.25,-148 102.25,-127.25 214.25,-127.25 214.25,-148"/>
<text text-anchor="middle" x="158.25" y="-134.5" font-family="Helvetica,sans-Serif" font-size="10.00">nix::MultiCommand</text>
</a>
</g>
</g>
<!-- Node2&#45;&gt;Node1 -->
<g id="edge1_Node000001_Node000002" class="edge">
<title>Node2&#45;&gt;Node1</title>
<g id="a_edge1_Node000001_Node000002"><a xlink:title=" ">
<path fill="none" stroke="#63b8ff" d="M133.95,-120.7C114.22,-107.77 87.02,-89.95 70.31,-79"/>
<polygon fill="#63b8ff" stroke="#63b8ff" points="131.94,-123.57 142.23,-126.12 135.78,-117.72 131.94,-123.57"/>
</a>
</g>
</g>
<!-- Node4 -->
<g id="Node000004" class="node">
<title>Node4</title>
<g id="a_Node000004"><a xlink:href="classnix_1_1Args.html" target="_top" xlink:title=" ">
<polygon fill="white" stroke="#bfbfbf" points="187.62,-78.5 128.88,-78.5 128.88,-57.75 187.62,-57.75 187.62,-78.5"/>
<text text-anchor="middle" x="158.25" y="-65" font-family="Helvetica,sans-Serif" font-size="10.00">nix::Args</text>
</a>
</g>
</g>
<!-- Node2&#45;&gt;Node4 -->
<g id="edge4_Node000004_Node000002" class="edge">
<title>Node2&#45;&gt;Node4</title>
<g id="a_edge4_Node000004_Node000002"><a xlink:title=" ">
<path fill="none" stroke="#9a32cd" stroke-dasharray="5,2" d="M158.25,-115.82C158.25,-103.47 158.25,-88.4 158.25,-78.78"/>
<polygon fill="#9a32cd" stroke="#9a32cd" points="154.75,-115.44 158.25,-125.44 161.75,-115.44 154.75,-115.44"/>
</a>
</g>
<text text-anchor="middle" x="175.5" y="-99.75" font-family="Helvetica,sans-Serif" font-size="10.00" fill="grey"> parent</text>
</g>
<!-- Node3 -->
<g id="Node000003" class="node">
<title>Node3</title>
<g id="a_Node000003"><a xlink:href="structnix_1_1Command.html" target="_top" xlink:title=" ">
<polygon fill="white" stroke="#666666" points="229.88,-20.75 142.62,-20.75 142.62,0 229.88,0 229.88,-20.75"/>
<text text-anchor="middle" x="186.25" y="-7.25" font-family="Helvetica,sans-Serif" font-size="10.00">nix::Command</text>
</a>
</g>
</g>
<!-- Node3&#45;&gt;Node2 -->
<g id="edge2_Node000002_Node000003" class="edge">
<title>Node3&#45;&gt;Node2</title>
<g id="a_edge2_Node000002_Node000003"><a xlink:title=" ">
<path fill="none" stroke="#63b8ff" d="M194.99,-31.91C202.37,-52.61 209.91,-84.9 197.25,-109.25 193.36,-116.74 186.38,-122.6 179.38,-126.95"/>
<polygon fill="#63b8ff" stroke="#63b8ff" points="198.25,-30.66 191.36,-22.62 191.73,-33.2 198.25,-30.66"/>
</a>
</g>
</g>
<!-- Node4&#45;&gt;Node3 -->
<g id="edge3_Node000003_Node000004" class="edge">
<title>Node4&#45;&gt;Node3</title>
<g id="a_edge3_Node000003_Node000004"><a xlink:title=" ">
<path fill="none" stroke="#63b8ff" d="M168.17,-47.37C172.67,-38.41 177.79,-28.22 181.43,-20.97"/>
<polygon fill="#63b8ff" stroke="#63b8ff" points="165.17,-45.55 163.81,-56.06 171.42,-48.7 165.17,-45.55"/>
</a>
</g>
</g>
</g>
</svg>
