<?xml version="1.0" encoding="UTF-8" standalone="no"?>
<!DOCTYPE svg PUBLIC "-//W3C//DTD SVG 1.1//EN"
 "http://www.w3.org/Graphics/SVG/1.1/DTD/svg11.dtd">
<!-- Generated by graphviz version 12.2.1 (0)
 -->
<!-- Title: nix::CmdToBase Pages: 1 -->
<svg width="247pt" height="156pt"
 viewBox="0.00 0.00 247.38 156.00" xmlns="http://www.w3.org/2000/svg" xmlns:xlink="http://www.w3.org/1999/xlink">
<g id="graph0" class="graph" transform="scale(1 1) rotate(0) translate(4 152)">
<title>nix::CmdToBase</title>
<!-- Node1 -->
<g id="Node000001" class="node">
<title>Node1</title>
<g id="a_Node000001"><a xlink:title=" ">
<polygon fill="#999999" stroke="#666666" points="94,-90.25 0,-90.25 0,-69.5 94,-69.5 94,-90.25"/>
<text text-anchor="middle" x="47" y="-76.75" font-family="Helvetica,sans-Serif" font-size="10.00">nix::CmdToBase</text>
</a>
</g>
</g>
<!-- Node2 -->
<g id="Node000002" class="node">
<title>Node2</title>
<g id="a_Node000002"><a xlink:href="structnix_1_1Command.html" target="_top" xlink:title=" ">
<polygon fill="white" stroke="#666666" points="211.62,-148 124.38,-148 124.38,-127.25 211.62,-127.25 211.62,-148"/>
<text text-anchor="middle" x="168" y="-134.5" font-family="Helvetica,sans-Serif" font-size="10.00">nix::Command</text>
</a>
</g>
</g>
<!-- Node2&#45;&gt;Node1 -->
<g id="edge1_Node000001_Node000002" class="edge">
<title>Node2&#45;&gt;Node1</title>
<g id="a_edge1_Node000001_Node000002"><a xlink:title=" ">
<path fill="none" stroke="#63b8ff" d="M136.36,-122.05C114.86,-112.14 86.99,-99.3 68.14,-90.62"/>
<polygon fill="#63b8ff" stroke="#63b8ff" points="134.72,-125.15 145.27,-126.15 137.65,-118.79 134.72,-125.15"/>
</a>
</g>
</g>
<!-- Node4 -->
<g id="Node000004" class="node">
<title>Node4</title>
<g id="a_Node000004"><a xlink:href="classnix_1_1MultiCommand.html" target="_top" xlink:title=" ">
<polygon fill="white" stroke="#666666" points="224,-90.25 112,-90.25 112,-69.5 224,-69.5 224,-90.25"/>
<text text-anchor="middle" x="168" y="-76.75" font-family="Helvetica,sans-Serif" font-size="10.00">nix::MultiCommand</text>
</a>
</g>
</g>
<!-- Node2&#45;&gt;Node4 -->
<g id="edge4_Node000004_Node000002" class="edge">
<title>Node2&#45;&gt;Node4</title>
<g id="a_edge4_Node000004_Node000002"><a xlink:title=" ">
<path fill="none" stroke="#63b8ff" d="M168,-115.68C168,-107.02 168,-97.4 168,-90.47"/>
<polygon fill="#63b8ff" stroke="#63b8ff" points="164.5,-115.4 168,-125.4 171.5,-115.4 164.5,-115.4"/>
</a>
</g>
</g>
<!-- Node3 -->
<g id="Node000003" class="node">
<title>Node3</title>
<g id="a_Node000003"><a xlink:href="classnix_1_1Args.html" target="_top" xlink:title=" ">
<polygon fill="white" stroke="#bfbfbf" points="239.38,-20.75 180.62,-20.75 180.62,0 239.38,0 239.38,-20.75"/>
<text text-anchor="middle" x="210" y="-7.25" font-family="Helvetica,sans-Serif" font-size="10.00">nix::Args</text>
</a>
</g>
</g>
<!-- Node3&#45;&gt;Node2 -->
<g id="edge2_Node000002_Node000003" class="edge">
<title>Node3&#45;&gt;Node2</title>
<g id="a_edge2_Node000002_Node000003"><a xlink:title=" ">
<path fill="none" stroke="#63b8ff" d="M226.61,-30.18C228.35,-32.91 229.89,-35.8 231,-38.75 232.06,-41.57 235.91,-84.59 233,-90.25 224.31,-107.13 206.3,-119.23 191.44,-126.82"/>
<polygon fill="#63b8ff" stroke="#63b8ff" points="229.51,-28.22 220.69,-22.35 223.93,-32.44 229.51,-28.22"/>
</a>
</g>
</g>
<!-- Node4&#45;&gt;Node3 -->
<g id="edge3_Node000003_Node000004" class="edge">
<title>Node4&#45;&gt;Node3</title>
<g id="a_edge3_Node000003_Node000004"><a xlink:title=" ">
<path fill="none" stroke="#9a32cd" stroke-dasharray="5,2" d="M180,-59.6C187.84,-46.98 197.76,-31.05 203.99,-21.03"/>
<polygon fill="#9a32cd" stroke="#9a32cd" points="177.13,-57.58 174.82,-67.92 183.07,-61.28 177.13,-57.58"/>
</a>
</g>
<text text-anchor="middle" x="210.01" y="-42" font-family="Helvetica,sans-Serif" font-size="10.00" fill="grey"> parent</text>
</g>
</g>
</svg>
