<?xml version="1.0" encoding="UTF-8" standalone="no"?>
<!DOCTYPE svg PUBLIC "-//W3C//DTD SVG 1.1//EN"
 "http://www.w3.org/Graphics/SVG/1.1/DTD/svg11.dtd">
<!-- Generated by graphviz version 12.2.1 (0)
 -->
<!-- Title: nix::fetchers::GitArchiveInputScheme Pages: 1 -->
<svg width="502pt" height="146pt"
 viewBox="0.00 0.00 501.50 145.50" xmlns="http://www.w3.org/2000/svg" xmlns:xlink="http://www.w3.org/1999/xlink">
<g id="graph0" class="graph" transform="scale(1 1) rotate(0) translate(4 141.5)">
<title>nix::fetchers::GitArchiveInputScheme</title>
<!-- Node1 -->
<g id="Node000001" class="node">
<title>Node1</title>
<g id="a_Node000001"><a xlink:title=" ">
<polygon fill="#999999" stroke="#666666" points="316.25,-85.5 182.5,-85.5 182.5,-52 316.25,-52 316.25,-85.5"/>
<text text-anchor="start" x="190.5" y="-72" font-family="Helvetica,sans-Serif" font-size="10.00">nix::fetchers::GitArchive</text>
<text text-anchor="middle" x="249.38" y="-59.25" font-family="Helvetica,sans-Serif" font-size="10.00">InputScheme</text>
</a>
</g>
</g>
<!-- Node3 -->
<g id="Node000003" class="node">
<title>Node3</title>
<g id="a_Node000003"><a xlink:href="structnix_1_1fetchers_1_1GitHubInputScheme.html" target="_top" xlink:title=" ">
<polygon fill="white" stroke="#bfbfbf" points="493.5,-137.5 352.25,-137.5 352.25,-104 493.5,-104 493.5,-137.5"/>
<text text-anchor="start" x="360.25" y="-124" font-family="Helvetica,sans-Serif" font-size="10.00">nix::fetchers::GitHubInput</text>
<text text-anchor="middle" x="422.88" y="-111.25" font-family="Helvetica,sans-Serif" font-size="10.00">Scheme</text>
</a>
</g>
</g>
<!-- Node1&#45;&gt;Node3 -->
<g id="edge2_Node000001_Node000003" class="edge">
<title>Node1&#45;&gt;Node3</title>
<g id="a_edge2_Node000001_Node000003"><a xlink:title=" ">
<path fill="none" stroke="#63b8ff" d="M317.68,-89.16C333.34,-93.9 349.86,-98.91 365.01,-103.51"/>
<polygon fill="#63b8ff" stroke="#63b8ff" points="319.04,-85.91 308.45,-86.36 317.01,-92.61 319.04,-85.91"/>
</a>
</g>
</g>
<!-- Node4 -->
<g id="Node000004" class="node">
<title>Node4</title>
<g id="a_Node000004"><a xlink:href="structnix_1_1fetchers_1_1GitLabInputScheme.html" target="_top" xlink:title=" ">
<polygon fill="white" stroke="#bfbfbf" points="492.38,-85.5 353.38,-85.5 353.38,-52 492.38,-52 492.38,-85.5"/>
<text text-anchor="start" x="361.38" y="-72" font-family="Helvetica,sans-Serif" font-size="10.00">nix::fetchers::GitLabInput</text>
<text text-anchor="middle" x="422.88" y="-59.25" font-family="Helvetica,sans-Serif" font-size="10.00">Scheme</text>
</a>
</g>
</g>
<!-- Node1&#45;&gt;Node4 -->
<g id="edge3_Node000001_Node000004" class="edge">
<title>Node1&#45;&gt;Node4</title>
<g id="a_edge3_Node000001_Node000004"><a xlink:title=" ">
<path fill="none" stroke="#63b8ff" d="M327.94,-68.75C336.26,-68.75 344.69,-68.75 352.91,-68.75"/>
<polygon fill="#63b8ff" stroke="#63b8ff" points="328.19,-65.25 318.19,-68.75 328.19,-72.25 328.19,-65.25"/>
</a>
</g>
</g>
<!-- Node5 -->
<g id="Node000005" class="node">
<title>Node5</title>
<g id="a_Node000005"><a xlink:href="structnix_1_1fetchers_1_1SourceHutInputScheme.html" target="_top" xlink:title=" ">
<polygon fill="white" stroke="#bfbfbf" points="489.38,-33.5 356.38,-33.5 356.38,0 489.38,0 489.38,-33.5"/>
<text text-anchor="start" x="364.38" y="-20" font-family="Helvetica,sans-Serif" font-size="10.00">nix::fetchers::SourceHut</text>
<text text-anchor="middle" x="422.88" y="-7.25" font-family="Helvetica,sans-Serif" font-size="10.00">InputScheme</text>
</a>
</g>
</g>
<!-- Node1&#45;&gt;Node5 -->
<g id="edge4_Node000001_Node000005" class="edge">
<title>Node1&#45;&gt;Node5</title>
<g id="a_edge4_Node000001_Node000005"><a xlink:title=" ">
<path fill="none" stroke="#63b8ff" d="M317.68,-48.34C333.34,-43.6 349.86,-38.59 365.01,-33.99"/>
<polygon fill="#63b8ff" stroke="#63b8ff" points="317.01,-44.89 308.45,-51.14 319.04,-51.59 317.01,-44.89"/>
</a>
</g>
</g>
<!-- Node2 -->
<g id="Node000002" class="node">
<title>Node2</title>
<g id="a_Node000002"><a xlink:href="structnix_1_1fetchers_1_1InputScheme.html" target="_top" xlink:title=" ">
<polygon fill="white" stroke="#666666" points="146.5,-79.12 0,-79.12 0,-58.38 146.5,-58.38 146.5,-79.12"/>
<text text-anchor="middle" x="73.25" y="-65.62" font-family="Helvetica,sans-Serif" font-size="10.00">nix::fetchers::InputScheme</text>
</a>
</g>
</g>
<!-- Node2&#45;&gt;Node1 -->
<g id="edge1_Node000001_Node000002" class="edge">
<title>Node2&#45;&gt;Node1</title>
<g id="a_edge1_Node000001_Node000002"><a xlink:title=" ">
<path fill="none" stroke="#63b8ff" d="M158.12,-68.75C166.15,-68.75 174.21,-68.75 182.03,-68.75"/>
<polygon fill="#63b8ff" stroke="#63b8ff" points="158.35,-65.25 148.35,-68.75 158.35,-72.25 158.35,-65.25"/>
</a>
</g>
</g>
</g>
</svg>
