<?xml version="1.0" encoding="UTF-8" standalone="no"?>
<!DOCTYPE svg PUBLIC "-//W3C//DTD SVG 1.1//EN"
 "http://www.w3.org/Graphics/SVG/1.1/DTD/svg11.dtd">
<!-- Generated by graphviz version 12.2.1 (0)
 -->
<!-- Title: nix::LogStore Pages: 1 -->
<svg width="841pt" height="223pt"
 viewBox="0.00 0.00 841.25 222.75" xmlns="http://www.w3.org/2000/svg" xmlns:xlink="http://www.w3.org/1999/xlink">
<g id="graph0" class="graph" transform="scale(1 1) rotate(0) translate(4 218.75)">
<title>nix::LogStore</title>
<!-- Node1 -->
<g id="Node000001" class="node">
<title>Node1</title>
<g id="a_Node000001"><a xlink:title=" ">
<polygon fill="#999999" stroke="#666666" points="330,-97.75 250.25,-97.75 250.25,-77 330,-77 330,-97.75"/>
<text text-anchor="middle" x="290.12" y="-84.25" font-family="Helvetica,sans-Serif" font-size="10.00">nix::LogStore</text>
</a>
</g>
</g>
<!-- Node4 -->
<g id="Node000004" class="node">
<title>Node4</title>
<g id="a_Node000004"><a xlink:href="classnix_1_1BinaryCacheStore.html" target="_top" xlink:title=" ">
<polygon fill="white" stroke="#666666" points="490,-155.75 366,-155.75 366,-135 490,-135 490,-155.75"/>
<text text-anchor="middle" x="428" y="-142.25" font-family="Helvetica,sans-Serif" font-size="10.00">nix::BinaryCacheStore</text>
</a>
</g>
</g>
<!-- Node1&#45;&gt;Node4 -->
<g id="edge3_Node000001_Node000004" class="edge">
<title>Node1&#45;&gt;Node4</title>
<g id="a_edge3_Node000001_Node000004"><a xlink:title=" ">
<path fill="none" stroke="#63b8ff" d="M326.68,-102.55C350.32,-112.64 380.77,-125.64 401.9,-134.66"/>
<polygon fill="#63b8ff" stroke="#63b8ff" points="328.33,-99.45 317.76,-98.74 325.58,-105.89 328.33,-99.45"/>
</a>
</g>
</g>
<!-- Node8 -->
<g id="Node000008" class="node">
<title>Node8</title>
<g id="a_Node000008"><a xlink:href="classnix_1_1LocalFSStore.html" target="_top" xlink:title=" ">
<polygon fill="white" stroke="#bfbfbf" points="477.62,-97.75 378.38,-97.75 378.38,-77 477.62,-77 477.62,-97.75"/>
<text text-anchor="middle" x="428" y="-84.25" font-family="Helvetica,sans-Serif" font-size="10.00">nix::LocalFSStore</text>
</a>
</g>
</g>
<!-- Node1&#45;&gt;Node8 -->
<g id="edge7_Node000001_Node000008" class="edge">
<title>Node1&#45;&gt;Node8</title>
<g id="a_edge7_Node000001_Node000008"><a xlink:title=" ">
<path fill="none" stroke="#63b8ff" d="M341.59,-87.38C353.53,-87.38 366.25,-87.38 378.12,-87.38"/>
<polygon fill="#63b8ff" stroke="#63b8ff" points="341.94,-83.88 331.94,-87.38 341.94,-90.88 341.94,-83.88"/>
</a>
</g>
</g>
<!-- Node13 -->
<g id="Node000013" class="node">
<title>Node13</title>
<g id="a_Node000013"><a xlink:href="classnix_1_1RemoteStore.html" target="_top" xlink:title=" ">
<polygon fill="white" stroke="#666666" points="478.38,-58.75 377.62,-58.75 377.62,-38 478.38,-38 478.38,-58.75"/>
<text text-anchor="middle" x="428" y="-45.25" font-family="Helvetica,sans-Serif" font-size="10.00">nix::RemoteStore</text>
</a>
</g>
</g>
<!-- Node1&#45;&gt;Node13 -->
<g id="edge12_Node000001_Node000013" class="edge">
<title>Node1&#45;&gt;Node13</title>
<g id="a_edge12_Node000001_Node000013"><a xlink:title=" ">
<path fill="none" stroke="#63b8ff" d="M339.93,-73.37C356.2,-68.7 374.06,-63.57 389.35,-59.18"/>
<polygon fill="#63b8ff" stroke="#63b8ff" points="339.07,-69.97 330.43,-76.09 341.01,-76.7 339.07,-69.97"/>
</a>
</g>
</g>
<!-- Node2 -->
<g id="Node000002" class="node">
<title>Node2</title>
<g id="a_Node000002"><a xlink:href="classnix_1_1Store.html" target="_top" xlink:title=" ">
<polygon fill="white" stroke="#bfbfbf" points="214.25,-97.75 151.75,-97.75 151.75,-77 214.25,-77 214.25,-97.75"/>
<text text-anchor="middle" x="183" y="-84.25" font-family="Helvetica,sans-Serif" font-size="10.00">nix::Store</text>
</a>
</g>
</g>
<!-- Node2&#45;&gt;Node1 -->
<g id="edge1_Node000001_Node000002" class="edge">
<title>Node2&#45;&gt;Node1</title>
<g id="a_edge1_Node000001_Node000002"><a xlink:title=" ">
<path fill="none" stroke="#63b8ff" d="M225.96,-87.38C233.88,-87.38 242.14,-87.38 249.97,-87.38"/>
<polygon fill="#63b8ff" stroke="#63b8ff" points="226.2,-83.88 216.2,-87.38 226.2,-90.88 226.2,-83.88"/>
</a>
</g>
</g>
<!-- Node3 -->
<g id="Node000003" class="node">
<title>Node3</title>
<g id="a_Node000003"><a xlink:title=" ">
<polygon fill="white" stroke="#bfbfbf" points="115.75,-104.12 0,-104.12 0,-70.62 115.75,-70.62 115.75,-104.12"/>
<text text-anchor="start" x="8" y="-90.62" font-family="Helvetica,sans-Serif" font-size="10.00">std::enable_shared</text>
<text text-anchor="middle" x="57.88" y="-77.88" font-family="Helvetica,sans-Serif" font-size="10.00">_from_this&lt; Store &gt;</text>
</a>
</g>
</g>
<!-- Node3&#45;&gt;Node2 -->
<g id="edge2_Node000002_Node000003" class="edge">
<title>Node3&#45;&gt;Node2</title>
<g id="a_edge2_Node000002_Node000003"><a xlink:title=" ">
<path fill="none" stroke="#63b8ff" d="M127.54,-87.38C135.89,-87.38 144.05,-87.38 151.42,-87.38"/>
<polygon fill="#63b8ff" stroke="#63b8ff" points="127.63,-83.88 117.63,-87.38 127.63,-90.88 127.63,-83.88"/>
</a>
</g>
</g>
<!-- Node5 -->
<g id="Node000005" class="node">
<title>Node5</title>
<g id="a_Node000005"><a xlink:href="classnix_1_1HttpBinaryCacheStore.html" target="_top" xlink:title=" ">
<polygon fill="white" stroke="#bfbfbf" points="673.25,-214.75 528.25,-214.75 528.25,-194 673.25,-194 673.25,-214.75"/>
<text text-anchor="middle" x="600.75" y="-201.25" font-family="Helvetica,sans-Serif" font-size="10.00">nix::HttpBinaryCacheStore</text>
</a>
</g>
</g>
<!-- Node4&#45;&gt;Node5 -->
<g id="edge4_Node000004_Node000005" class="edge">
<title>Node4&#45;&gt;Node5</title>
<g id="a_edge4_Node000004_Node000005"><a xlink:title=" ">
<path fill="none" stroke="#63b8ff" d="M463.89,-160.56C482.19,-168.23 505.1,-177.37 526,-184.38 535.81,-187.66 546.49,-190.81 556.6,-193.59"/>
<polygon fill="#63b8ff" stroke="#63b8ff" points="465.39,-157.39 454.81,-156.71 462.66,-163.84 465.39,-157.39"/>
</a>
</g>
</g>
<!-- Node6 -->
<g id="Node000006" class="node">
<title>Node6</title>
<g id="a_Node000006"><a xlink:href="classnix_1_1LocalBinaryCacheStore.html" target="_top" xlink:title=" ">
<polygon fill="white" stroke="#bfbfbf" points="675.5,-175.75 526,-175.75 526,-155 675.5,-155 675.5,-175.75"/>
<text text-anchor="middle" x="600.75" y="-162.25" font-family="Helvetica,sans-Serif" font-size="10.00">nix::LocalBinaryCacheStore</text>
</a>
</g>
</g>
<!-- Node4&#45;&gt;Node6 -->
<g id="edge5_Node000004_Node000006" class="edge">
<title>Node4&#45;&gt;Node6</title>
<g id="a_edge5_Node000004_Node000006"><a xlink:title=" ">
<path fill="none" stroke="#63b8ff" d="M501.36,-153.85C509.38,-154.79 517.55,-155.75 525.59,-156.69"/>
<polygon fill="#63b8ff" stroke="#63b8ff" points="502,-150.4 491.67,-152.72 501.19,-157.35 502,-150.4"/>
</a>
</g>
</g>
<!-- Node7 -->
<g id="Node000007" class="node">
<title>Node7</title>
<g id="a_Node000007"><a xlink:href="classnix_1_1S3BinaryCacheStore.html" target="_top" xlink:title=" ">
<polygon fill="white" stroke="#bfbfbf" points="668.75,-136.75 532.75,-136.75 532.75,-116 668.75,-116 668.75,-136.75"/>
<text text-anchor="middle" x="600.75" y="-123.25" font-family="Helvetica,sans-Serif" font-size="10.00">nix::S3BinaryCacheStore</text>
</a>
</g>
</g>
<!-- Node4&#45;&gt;Node7 -->
<g id="edge6_Node000004_Node000007" class="edge">
<title>Node4&#45;&gt;Node7</title>
<g id="a_edge6_Node000004_Node000007"><a xlink:title=" ">
<path fill="none" stroke="#63b8ff" d="M501.56,-137.3C511.77,-136.16 522.24,-135 532.36,-133.87"/>
<polygon fill="#63b8ff" stroke="#63b8ff" points="501.22,-133.82 491.67,-138.4 501.99,-140.77 501.22,-133.82"/>
</a>
</g>
</g>
<!-- Node9 -->
<g id="Node000009" class="node">
<title>Node9</title>
<g id="a_Node000009"><a xlink:href="structnix_1_1IndirectRootStore.html" target="_top" xlink:title=" ">
<polygon fill="white" stroke="#666666" points="661.62,-97.75 539.88,-97.75 539.88,-77 661.62,-77 661.62,-97.75"/>
<text text-anchor="middle" x="600.75" y="-84.25" font-family="Helvetica,sans-Serif" font-size="10.00">nix::IndirectRootStore</text>
</a>
</g>
</g>
<!-- Node8&#45;&gt;Node9 -->
<g id="edge8_Node000008_Node000009" class="edge">
<title>Node8&#45;&gt;Node9</title>
<g id="a_edge8_Node000008_Node000009"><a xlink:title=" ">
<path fill="none" stroke="#63b8ff" d="M489.03,-87.38C505.42,-87.38 523.18,-87.38 539.58,-87.38"/>
<polygon fill="#63b8ff" stroke="#63b8ff" points="489.44,-83.88 479.44,-87.38 489.44,-90.88 489.44,-83.88"/>
</a>
</g>
</g>
<!-- Node10 -->
<g id="Node000010" class="node">
<title>Node10</title>
<g id="a_Node000010"><a xlink:href="classnix_1_1LocalStore.html" target="_top" xlink:title=" ">
<polygon fill="white" stroke="#bfbfbf" points="816.38,-136.75 728.38,-136.75 728.38,-116 816.38,-116 816.38,-136.75"/>
<text text-anchor="middle" x="772.38" y="-123.25" font-family="Helvetica,sans-Serif" font-size="10.00">nix::LocalStore</text>
</a>
</g>
</g>
<!-- Node9&#45;&gt;Node10 -->
<g id="edge9_Node000009_Node000010" class="edge">
<title>Node9&#45;&gt;Node10</title>
<g id="a_edge9_Node000009_Node000010"><a xlink:title=" ">
<path fill="none" stroke="#63b8ff" d="M660.06,-100.78C682.4,-105.92 707.47,-111.68 728.15,-116.44"/>
<polygon fill="#63b8ff" stroke="#63b8ff" points="661.01,-97.41 650.48,-98.58 659.44,-104.23 661.01,-97.41"/>
</a>
</g>
</g>
<!-- Node11 -->
<g id="Node000011" class="node">
<title>Node11</title>
<g id="a_Node000011"><a xlink:href="structnix_1_1RestrictedStore.html" target="_top" xlink:title=" ">
<polygon fill="white" stroke="#bfbfbf" points="828.38,-97.75 716.38,-97.75 716.38,-77 828.38,-77 828.38,-97.75"/>
<text text-anchor="middle" x="772.38" y="-84.25" font-family="Helvetica,sans-Serif" font-size="10.00">nix::RestrictedStore</text>
</a>
</g>
</g>
<!-- Node9&#45;&gt;Node11 -->
<g id="edge10_Node000009_Node000011" class="edge">
<title>Node9&#45;&gt;Node11</title>
<g id="a_edge10_Node000009_Node000011"><a xlink:title=" ">
<path fill="none" stroke="#63b8ff" d="M673.35,-87.38C687.65,-87.38 702.46,-87.38 716.1,-87.38"/>
<polygon fill="#63b8ff" stroke="#63b8ff" points="673.54,-83.88 663.54,-87.38 673.54,-90.88 673.54,-83.88"/>
</a>
</g>
</g>
<!-- Node12 -->
<g id="Node000012" class="node">
<title>Node12</title>
<g id="a_Node000012"><a xlink:href="classnix_1_1UDSRemoteStore.html" target="_top" xlink:title=" ">
<polygon fill="white" stroke="#bfbfbf" points="833.25,-58.75 711.5,-58.75 711.5,-38 833.25,-38 833.25,-58.75"/>
<text text-anchor="middle" x="772.38" y="-45.25" font-family="Helvetica,sans-Serif" font-size="10.00">nix::UDSRemoteStore</text>
</a>
</g>
</g>
<!-- Node9&#45;&gt;Node12 -->
<g id="edge11_Node000009_Node000012" class="edge">
<title>Node9&#45;&gt;Node12</title>
<g id="a_edge11_Node000009_Node000012"><a xlink:title=" ">
<path fill="none" stroke="#63b8ff" d="M660.01,-73.98C680.92,-69.17 704.22,-63.82 724.08,-59.25"/>
<polygon fill="#63b8ff" stroke="#63b8ff" points="659.44,-70.52 650.48,-76.17 661.01,-77.34 659.44,-70.52"/>
</a>
</g>
</g>
<!-- Node13&#45;&gt;Node12 -->
<g id="edge14_Node000013_Node000012" class="edge">
<title>Node13&#45;&gt;Node12</title>
<g id="a_edge14_Node000013_Node000012"><a xlink:title=" ">
<path fill="none" stroke="#63b8ff" d="M490.04,-48.38C552.5,-48.38 648.97,-48.38 711.14,-48.38"/>
<polygon fill="#63b8ff" stroke="#63b8ff" points="490.3,-44.88 480.3,-48.38 490.3,-51.88 490.3,-44.88"/>
</a>
</g>
</g>
<!-- Node14 -->
<g id="Node000014" class="node">
<title>Node14</title>
<g id="a_Node000014"><a xlink:href="classnix_1_1SSHStore.html" target="_top" xlink:title=" ">
<polygon fill="white" stroke="#bfbfbf" points="641.75,-20.75 559.75,-20.75 559.75,0 641.75,0 641.75,-20.75"/>
<text text-anchor="middle" x="600.75" y="-7.25" font-family="Helvetica,sans-Serif" font-size="10.00">nix::SSHStore</text>
</a>
</g>
</g>
<!-- Node13&#45;&gt;Node14 -->
<g id="edge13_Node000013_Node000014" class="edge">
<title>Node13&#45;&gt;Node14</title>
<g id="a_edge13_Node000013_Node000014"><a xlink:title=" ">
<path fill="none" stroke="#63b8ff" d="M488.71,-35.09C512.14,-29.87 538.41,-24.03 559.52,-19.33"/>
<polygon fill="#63b8ff" stroke="#63b8ff" points="487.95,-31.67 478.95,-37.26 489.47,-38.5 487.95,-31.67"/>
</a>
</g>
</g>
</g>
</svg>
