<?xml version="1.0" encoding="UTF-8" standalone="no"?>
<!DOCTYPE svg PUBLIC "-//W3C//DTD SVG 1.1//EN"
 "http://www.w3.org/Graphics/SVG/1.1/DTD/svg11.dtd">
<!-- Generated by graphviz version 12.2.1 (0)
 -->
<!-- Title: nix::CmdEval Pages: 1 -->
<svg width="504pt" height="426pt"
 viewBox="0.00 0.00 503.75 426.00" xmlns="http://www.w3.org/2000/svg" xmlns:xlink="http://www.w3.org/1999/xlink">
<g id="graph0" class="graph" transform="scale(1 1) rotate(0) translate(4 422)">
<title>nix::CmdEval</title>
<!-- Node1 -->
<g id="Node000001" class="node">
<title>Node1</title>
<g id="a_Node000001"><a xlink:title=" ">
<polygon fill="#999999" stroke="#666666" points="218.75,-20.75 138.25,-20.75 138.25,0 218.75,0 218.75,-20.75"/>
<text text-anchor="middle" x="178.5" y="-7.25" font-family="Helvetica,sans-Serif" font-size="10.00">nix::CmdEval</text>
</a>
</g>
</g>
<!-- Node2 -->
<g id="Node000002" class="node">
<title>Node2</title>
<g id="a_Node000002"><a xlink:href="structnix_1_1MixJSON.html" target="_top" xlink:title=" ">
<polygon fill="white" stroke="#bfbfbf" points="79,-247.75 0,-247.75 0,-227 79,-227 79,-247.75"/>
<text text-anchor="middle" x="39.5" y="-234.25" font-family="Helvetica,sans-Serif" font-size="10.00">nix::MixJSON</text>
</a>
</g>
</g>
<!-- Node2&#45;&gt;Node1 -->
<g id="edge1_Node000001_Node000002" class="edge">
<title>Node2&#45;&gt;Node1</title>
<g id="a_edge1_Node000001_Node000002"><a xlink:title=" ">
<path fill="none" stroke="#63b8ff" d="M41.77,-215.66C46.66,-179.67 61.14,-104.86 100.5,-56.75 113.89,-40.38 134.85,-28.66 151.67,-21.23"/>
<polygon fill="#63b8ff" stroke="#63b8ff" points="38.35,-214.81 40.6,-225.16 45.29,-215.66 38.35,-214.81"/>
</a>
</g>
</g>
<!-- Node3 -->
<g id="Node000003" class="node">
<title>Node3</title>
<g id="a_Node000003"><a xlink:href="classnix_1_1Args.html" target="_top" xlink:title=" ">
<polygon fill="white" stroke="#bfbfbf" points="248.88,-418 190.12,-418 190.12,-397.25 248.88,-397.25 248.88,-418"/>
<text text-anchor="middle" x="219.5" y="-404.5" font-family="Helvetica,sans-Serif" font-size="10.00">nix::Args</text>
</a>
</g>
</g>
<!-- Node3&#45;&gt;Node2 -->
<g id="edge2_Node000002_Node000003" class="edge">
<title>Node3&#45;&gt;Node2</title>
<g id="a_edge2_Node000002_Node000003"><a xlink:title=" ">
<path fill="none" stroke="#63b8ff" d="M178.7,-400.52C151.64,-394.59 116.92,-383.12 93.5,-361.25 59.1,-329.12 45.37,-271.19 41.1,-248.18"/>
<polygon fill="#63b8ff" stroke="#63b8ff" points="177.8,-403.91 188.3,-402.44 179.18,-397.05 177.8,-403.91"/>
</a>
</g>
</g>
<!-- Node4 -->
<g id="Node000004" class="node">
<title>Node4</title>
<g id="a_Node000004"><a xlink:href="structnix_1_1InstallableCommand.html" target="_top" xlink:title=" ">
<polygon fill="white" stroke="#666666" points="247.62,-77.5 109.38,-77.5 109.38,-56.75 247.62,-56.75 247.62,-77.5"/>
<text text-anchor="middle" x="178.5" y="-64" font-family="Helvetica,sans-Serif" font-size="10.00">nix::InstallableCommand</text>
</a>
</g>
</g>
<!-- Node3&#45;&gt;Node4 -->
<g id="edge4_Node000004_Node000003" class="edge">
<title>Node3&#45;&gt;Node4</title>
<g id="a_edge4_Node000004_Node000003"><a xlink:title=" ">
<path fill="none" stroke="#63b8ff" d="M187.18,-391.58C154.1,-373.68 107.5,-340.43 107.5,-295.12 107.5,-295.12 107.5,-295.12 107.5,-179.62 107.5,-149.05 110.09,-139.3 126.5,-113.5 135.89,-98.74 151.48,-86.06 163.15,-77.88"/>
<polygon fill="#63b8ff" stroke="#63b8ff" points="185.54,-394.67 196.03,-396.15 188.75,-388.45 185.54,-394.67"/>
</a>
</g>
</g>
<!-- Node5 -->
<g id="Node000005" class="node">
<title>Node5</title>
<g id="a_Node000005"><a xlink:href="structnix_1_1SourceExprCommand.html" target="_top" xlink:title=" ">
<polygon fill="white" stroke="#bfbfbf" points="277.5,-134.25 135.5,-134.25 135.5,-113.5 277.5,-113.5 277.5,-134.25"/>
<text text-anchor="middle" x="206.5" y="-120.75" font-family="Helvetica,sans-Serif" font-size="10.00">nix::SourceExprCommand</text>
</a>
</g>
</g>
<!-- Node3&#45;&gt;Node5 -->
<g id="edge6_Node000005_Node000003" class="edge">
<title>Node3&#45;&gt;Node5</title>
<g id="a_edge6_Node000005_Node000003"><a xlink:title=" ">
<path fill="none" stroke="#63b8ff" d="M198.88,-389.63C176.99,-369.55 145.5,-333.92 145.5,-295.12 145.5,-295.12 145.5,-295.12 145.5,-236.38 145.5,-205.8 149.48,-196.89 164.5,-170.25 172.41,-156.22 185.47,-143.06 194.93,-134.56"/>
<polygon fill="#63b8ff" stroke="#63b8ff" points="196.32,-392.04 206.14,-396.02 200.95,-386.78 196.32,-392.04"/>
</a>
</g>
</g>
<!-- Node6 -->
<g id="Node000006" class="node">
<title>Node6</title>
<g id="a_Node000006"><a xlink:href="structnix_1_1MixFlakeOptions.html" target="_top" xlink:title=" ">
<polygon fill="white" stroke="#666666" points="291.88,-191 173.12,-191 173.12,-170.25 291.88,-170.25 291.88,-191"/>
<text text-anchor="middle" x="232.5" y="-177.5" font-family="Helvetica,sans-Serif" font-size="10.00">nix::MixFlakeOptions</text>
</a>
</g>
</g>
<!-- Node3&#45;&gt;Node6 -->
<g id="edge8_Node000006_Node000003" class="edge">
<title>Node3&#45;&gt;Node6</title>
<g id="a_edge8_Node000006_Node000003"><a xlink:title=" ">
<path fill="none" stroke="#63b8ff" d="M210.13,-386.35C207.05,-378.66 204.03,-369.72 202.5,-361.25 191.86,-302.53 187.2,-284.11 204.5,-227 208.58,-213.53 217.68,-200.06 224.41,-191.34"/>
<polygon fill="#63b8ff" stroke="#63b8ff" points="206.88,-387.64 214.05,-395.44 213.3,-384.87 206.88,-387.64"/>
</a>
</g>
</g>
<!-- Node9 -->
<g id="Node000009" class="node">
<title>Node9</title>
<g id="a_Node000009"><a xlink:href="structnix_1_1Command.html" target="_top" xlink:title=" ">
<polygon fill="white" stroke="#666666" points="299.12,-361.25 211.88,-361.25 211.88,-340.5 299.12,-340.5 299.12,-361.25"/>
<text text-anchor="middle" x="255.5" y="-347.75" font-family="Helvetica,sans-Serif" font-size="10.00">nix::Command</text>
</a>
</g>
</g>
<!-- Node3&#45;&gt;Node9 -->
<g id="edge12_Node000009_Node000003" class="edge">
<title>Node3&#45;&gt;Node9</title>
<g id="a_edge12_Node000009_Node000003"><a xlink:title=" ">
<path fill="none" stroke="#63b8ff" d="M232.15,-387.39C237.89,-378.66 244.42,-368.72 249.12,-361.58"/>
<polygon fill="#63b8ff" stroke="#63b8ff" points="229.34,-385.29 226.77,-395.57 235.19,-389.14 229.34,-385.29"/>
</a>
</g>
</g>
<!-- Node10 -->
<g id="Node000010" class="node">
<title>Node10</title>
<g id="a_Node000010"><a xlink:href="structnix_1_1MixEvalArgs.html" target="_top" xlink:title=" ">
<polygon fill="white" stroke="#bfbfbf" points="439.38,-304.5 341.62,-304.5 341.62,-283.75 439.38,-283.75 439.38,-304.5"/>
<text text-anchor="middle" x="390.5" y="-291" font-family="Helvetica,sans-Serif" font-size="10.00">nix::MixEvalArgs</text>
</a>
</g>
</g>
<!-- Node3&#45;&gt;Node10 -->
<g id="edge14_Node000010_Node000003" class="edge">
<title>Node3&#45;&gt;Node10</title>
<g id="a_edge14_Node000010_Node000003"><a xlink:title=" ">
<path fill="none" stroke="#63b8ff" d="M251.95,-392.08C269.22,-383.85 290.54,-372.89 308.5,-361.25 335.82,-343.54 364.79,-318.49 379.91,-304.87"/>
<polygon fill="#63b8ff" stroke="#63b8ff" points="250.73,-388.79 243.15,-396.2 253.69,-395.13 250.73,-388.79"/>
</a>
</g>
</g>
<!-- Node11 -->
<g id="Node000011" class="node">
<title>Node11</title>
<g id="a_Node000011"><a xlink:href="structnix_1_1MixRepair.html" target="_top" xlink:title=" ">
<polygon fill="white" stroke="#bfbfbf" points="441.75,-361.25 355.25,-361.25 355.25,-340.5 441.75,-340.5 441.75,-361.25"/>
<text text-anchor="middle" x="398.5" y="-347.75" font-family="Helvetica,sans-Serif" font-size="10.00">nix::MixRepair</text>
</a>
</g>
</g>
<!-- Node3&#45;&gt;Node11 -->
<g id="edge16_Node000011_Node000003" class="edge">
<title>Node3&#45;&gt;Node11</title>
<g id="a_edge16_Node000011_Node000003"><a xlink:title=" ">
<path fill="none" stroke="#63b8ff" d="M259.9,-394.27C292.14,-384.41 336.68,-370.78 366.48,-361.67"/>
<polygon fill="#63b8ff" stroke="#63b8ff" points="259.04,-390.87 250.51,-397.14 261.09,-397.56 259.04,-390.87"/>
</a>
</g>
</g>
<!-- Node12 -->
<g id="Node000012" class="node">
<title>Node12</title>
<g id="a_Node000012"><a xlink:href="structnix_1_1MixReadOnlyOption.html" target="_top" xlink:title=" ">
<polygon fill="white" stroke="#666666" points="495.75,-191 361.25,-191 361.25,-170.25 495.75,-170.25 495.75,-191"/>
<text text-anchor="middle" x="428.5" y="-177.5" font-family="Helvetica,sans-Serif" font-size="10.00">nix::MixReadOnlyOption</text>
</a>
</g>
</g>
<!-- Node3&#45;&gt;Node12 -->
<g id="edge18_Node000012_Node000003" class="edge">
<title>Node3&#45;&gt;Node12</title>
<g id="a_edge18_Node000012_Node000003"><a xlink:title=" ">
<path fill="none" stroke="#63b8ff" d="M260.45,-404.63C320.23,-400.77 426.89,-389.95 450.5,-361.25 492.82,-309.81 449.96,-220.38 433.98,-191.16"/>
<polygon fill="#63b8ff" stroke="#63b8ff" points="260.43,-401.13 250.66,-405.23 260.86,-408.12 260.43,-401.13"/>
</a>
</g>
</g>
<!-- Node4&#45;&gt;Node1 -->
<g id="edge3_Node000001_Node000004" class="edge">
<title>Node4&#45;&gt;Node1</title>
<g id="a_edge3_Node000001_Node000004"><a xlink:title=" ">
<path fill="none" stroke="#63b8ff" d="M178.5,-44.88C178.5,-36.66 178.5,-27.68 178.5,-21.08"/>
<polygon fill="#63b8ff" stroke="#63b8ff" points="175,-44.82 178.5,-54.82 182,-44.82 175,-44.82"/>
</a>
</g>
</g>
<!-- Node5&#45;&gt;Node4 -->
<g id="edge5_Node000004_Node000005" class="edge">
<title>Node5&#45;&gt;Node4</title>
<g id="a_edge5_Node000004_Node000005"><a xlink:title=" ">
<path fill="none" stroke="#63b8ff" d="M196.37,-103.07C191.98,-94.48 187.03,-84.81 183.46,-77.83"/>
<polygon fill="#63b8ff" stroke="#63b8ff" points="193.14,-104.43 200.8,-111.74 199.37,-101.24 193.14,-104.43"/>
</a>
</g>
</g>
<!-- Node6&#45;&gt;Node5 -->
<g id="edge7_Node000005_Node000006" class="edge">
<title>Node6&#45;&gt;Node5</title>
<g id="a_edge7_Node000005_Node000006"><a xlink:title=" ">
<path fill="none" stroke="#63b8ff" d="M222.96,-159.53C218.91,-151.02 214.39,-141.49 211.11,-134.58"/>
<polygon fill="#63b8ff" stroke="#63b8ff" points="219.75,-160.94 227.2,-168.47 226.07,-157.93 219.75,-160.94"/>
</a>
</g>
</g>
<!-- Node7 -->
<g id="Node000007" class="node">
<title>Node7</title>
<g id="a_Node000007"><a xlink:href="structnix_1_1EvalCommand.html" target="_top" xlink:title=" ">
<polygon fill="white" stroke="#666666" points="321.62,-247.75 213.38,-247.75 213.38,-227 321.62,-227 321.62,-247.75"/>
<text text-anchor="middle" x="267.5" y="-234.25" font-family="Helvetica,sans-Serif" font-size="10.00">nix::EvalCommand</text>
</a>
</g>
</g>
<!-- Node7&#45;&gt;Node6 -->
<g id="edge9_Node000006_Node000007" class="edge">
<title>Node7&#45;&gt;Node6</title>
<g id="a_edge9_Node000006_Node000007"><a xlink:title=" ">
<path fill="none" stroke="#63b8ff" d="M255.2,-217.14C249.62,-208.41 243.27,-198.47 238.7,-191.33"/>
<polygon fill="#63b8ff" stroke="#63b8ff" points="252.09,-218.77 260.43,-225.31 257.99,-215 252.09,-218.77"/>
</a>
</g>
</g>
<!-- Node8 -->
<g id="Node000008" class="node">
<title>Node8</title>
<g id="a_Node000008"><a xlink:href="structnix_1_1StoreCommand.html" target="_top" xlink:title=" ">
<polygon fill="white" stroke="#666666" points="323.88,-304.5 211.12,-304.5 211.12,-283.75 323.88,-283.75 323.88,-304.5"/>
<text text-anchor="middle" x="267.5" y="-291" font-family="Helvetica,sans-Serif" font-size="10.00">nix::StoreCommand</text>
</a>
</g>
</g>
<!-- Node8&#45;&gt;Node7 -->
<g id="edge10_Node000007_Node000008" class="edge">
<title>Node8&#45;&gt;Node7</title>
<g id="a_edge10_Node000007_Node000008"><a xlink:title=" ">
<path fill="none" stroke="#63b8ff" d="M267.5,-271.88C267.5,-263.66 267.5,-254.68 267.5,-248.08"/>
<polygon fill="#63b8ff" stroke="#63b8ff" points="264,-271.82 267.5,-281.82 271,-271.82 264,-271.82"/>
</a>
</g>
</g>
<!-- Node9&#45;&gt;Node8 -->
<g id="edge11_Node000008_Node000009" class="edge">
<title>Node9&#45;&gt;Node8</title>
<g id="a_edge11_Node000008_Node000009"><a xlink:title=" ">
<path fill="none" stroke="#63b8ff" d="M260.09,-328.92C261.91,-320.63 263.91,-311.5 265.37,-304.83"/>
<polygon fill="#63b8ff" stroke="#63b8ff" points="256.69,-328.09 257.97,-338.61 263.53,-329.59 256.69,-328.09"/>
</a>
</g>
</g>
<!-- Node10&#45;&gt;Node7 -->
<g id="edge13_Node000007_Node000010" class="edge">
<title>Node10&#45;&gt;Node7</title>
<g id="a_edge13_Node000007_Node000010"><a xlink:title=" ">
<path fill="none" stroke="#63b8ff" d="M358.12,-278.71C336.4,-269.05 308.39,-256.58 289.3,-248.08"/>
<polygon fill="#63b8ff" stroke="#63b8ff" points="356.57,-281.85 367.13,-282.72 359.41,-275.46 356.57,-281.85"/>
</a>
</g>
</g>
<!-- Node11&#45;&gt;Node10 -->
<g id="edge15_Node000010_Node000011" class="edge">
<title>Node11&#45;&gt;Node10</title>
<g id="a_edge15_Node000010_Node000011"><a xlink:title=" ">
<path fill="none" stroke="#63b8ff" d="M395.44,-328.92C394.23,-320.63 392.89,-311.5 391.92,-304.83"/>
<polygon fill="#63b8ff" stroke="#63b8ff" points="391.94,-329.2 396.85,-338.59 398.87,-328.19 391.94,-329.2"/>
</a>
</g>
</g>
<!-- Node12&#45;&gt;Node1 -->
<g id="edge17_Node000001_Node000012" class="edge">
<title>Node12&#45;&gt;Node1</title>
<g id="a_edge17_Node000001_Node000012"><a xlink:title=" ">
<path fill="none" stroke="#63b8ff" d="M406.88,-163.18C374.72,-138.96 312.09,-92.66 256.5,-56.75 236.37,-43.74 212.44,-30.08 196.44,-21.18"/>
<polygon fill="#63b8ff" stroke="#63b8ff" points="404.54,-165.81 414.63,-169.04 408.76,-160.22 404.54,-165.81"/>
</a>
</g>
</g>
</g>
</svg>
