<?xml version="1.0" encoding="UTF-8" standalone="no"?>
<!DOCTYPE svg PUBLIC "-//W3C//DTD SVG 1.1//EN"
 "http://www.w3.org/Graphics/SVG/1.1/DTD/svg11.dtd">
<!-- Generated by graphviz version 12.2.1 (0)
 -->
<!-- Title: nix::MixFlakeOptions Pages: 1 -->
<svg width="1755pt" height="828pt"
 viewBox="0.00 0.00 1754.50 827.75" xmlns="http://www.w3.org/2000/svg" xmlns:xlink="http://www.w3.org/1999/xlink">
<g id="graph0" class="graph" transform="scale(1 1) rotate(0) translate(4 823.75)">
<title>nix::MixFlakeOptions</title>
<!-- Node1 -->
<g id="Node000001" class="node">
<title>Node1</title>
<g id="a_Node000001"><a xlink:title=" ">
<polygon fill="#999999" stroke="#666666" points="629.75,-546.75 511,-546.75 511,-526 629.75,-526 629.75,-546.75"/>
<text text-anchor="middle" x="570.38" y="-533.25" font-family="Helvetica,sans-Serif" font-size="10.00">nix::MixFlakeOptions</text>
</a>
</g>
</g>
<!-- Node8 -->
<g id="Node000008" class="node">
<title>Node8</title>
<g id="a_Node000008"><a xlink:href="classnix_1_1FlakeCommand.html" target="_top" xlink:title=" ">
<polygon fill="white" stroke="#bfbfbf" points="793.5,-663.75 680,-663.75 680,-643 793.5,-643 793.5,-663.75"/>
<text text-anchor="middle" x="736.75" y="-650.25" font-family="Helvetica,sans-Serif" font-size="10.00">nix::FlakeCommand</text>
</a>
</g>
</g>
<!-- Node1&#45;&gt;Node8 -->
<g id="edge10_Node000001_Node000008" class="edge">
<title>Node1&#45;&gt;Node8</title>
<g id="a_edge10_Node000001_Node000008"><a xlink:title=" ">
<path fill="none" stroke="#63b8ff" d="M595.9,-553.83C630.38,-578.37 692.15,-622.34 720.62,-642.6"/>
<polygon fill="#63b8ff" stroke="#63b8ff" points="597.95,-551 587.78,-548.05 593.89,-556.7 597.95,-551"/>
</a>
</g>
</g>
<!-- Node18 -->
<g id="Node000018" class="node">
<title>Node18</title>
<g id="a_Node000018"><a xlink:href="structnix_1_1SourceExprCommand.html" target="_top" xlink:title=" ">
<polygon fill="white" stroke="#bfbfbf" points="807.75,-429.75 665.75,-429.75 665.75,-409 807.75,-409 807.75,-429.75"/>
<text text-anchor="middle" x="736.75" y="-416.25" font-family="Helvetica,sans-Serif" font-size="10.00">nix::SourceExprCommand</text>
</a>
</g>
</g>
<!-- Node1&#45;&gt;Node18 -->
<g id="edge20_Node000001_Node000018" class="edge">
<title>Node1&#45;&gt;Node18</title>
<g id="a_edge20_Node000001_Node000018"><a xlink:title=" ">
<path fill="none" stroke="#63b8ff" d="M595.9,-518.92C630.38,-494.38 692.15,-450.41 720.62,-430.15"/>
<polygon fill="#63b8ff" stroke="#63b8ff" points="593.89,-516.05 587.78,-524.7 597.95,-521.75 593.89,-516.05"/>
</a>
</g>
</g>
<!-- Node2 -->
<g id="Node000002" class="node">
<title>Node2</title>
<g id="a_Node000002"><a xlink:href="classnix_1_1Args.html" target="_top" xlink:title=" ">
<polygon fill="white" stroke="#bfbfbf" points="58.75,-508.75 0,-508.75 0,-488 58.75,-488 58.75,-508.75"/>
<text text-anchor="middle" x="29.38" y="-495.25" font-family="Helvetica,sans-Serif" font-size="10.00">nix::Args</text>
</a>
</g>
</g>
<!-- Node2&#45;&gt;Node1 -->
<g id="edge1_Node000001_Node000002" class="edge">
<title>Node2&#45;&gt;Node1</title>
<g id="a_edge1_Node000001_Node000002"><a xlink:title=" ">
<path fill="none" stroke="#63b8ff" d="M52.76,-515.62C64.56,-523.62 79.69,-532.26 94.75,-536.38 240.02,-576.05 419.75,-559.08 510.72,-546.12"/>
<polygon fill="#63b8ff" stroke="#63b8ff" points="55.11,-512.99 44.94,-510.04 51.05,-518.69 55.11,-512.99"/>
</a>
</g>
</g>
<!-- Node5 -->
<g id="Node000005" class="node">
<title>Node5</title>
<g id="a_Node000005"><a xlink:href="structnix_1_1Command.html" target="_top" xlink:title=" ">
<polygon fill="white" stroke="#666666" points="182,-527.75 94.75,-527.75 94.75,-507 182,-507 182,-527.75"/>
<text text-anchor="middle" x="138.38" y="-514.25" font-family="Helvetica,sans-Serif" font-size="10.00">nix::Command</text>
</a>
</g>
</g>
<!-- Node2&#45;&gt;Node5 -->
<g id="edge5_Node000005_Node000002" class="edge">
<title>Node2&#45;&gt;Node5</title>
<g id="a_edge5_Node000005_Node000002"><a xlink:title=" ">
<path fill="none" stroke="#63b8ff" d="M70.26,-505.46C78.17,-506.86 86.52,-508.34 94.53,-509.77"/>
<polygon fill="#63b8ff" stroke="#63b8ff" points="71,-502.03 60.54,-503.73 69.77,-508.93 71,-502.03"/>
</a>
</g>
</g>
<!-- Node6 -->
<g id="Node000006" class="node">
<title>Node6</title>
<g id="a_Node000006"><a xlink:href="structnix_1_1MixEvalArgs.html" target="_top" xlink:title=" ">
<polygon fill="white" stroke="#bfbfbf" points="323.25,-488.75 225.5,-488.75 225.5,-468 323.25,-468 323.25,-488.75"/>
<text text-anchor="middle" x="274.38" y="-475.25" font-family="Helvetica,sans-Serif" font-size="10.00">nix::MixEvalArgs</text>
</a>
</g>
</g>
<!-- Node2&#45;&gt;Node6 -->
<g id="edge7_Node000006_Node000002" class="edge">
<title>Node2&#45;&gt;Node6</title>
<g id="a_edge7_Node000006_Node000002"><a xlink:title=" ">
<path fill="none" stroke="#63b8ff" d="M70.5,-495.07C112.99,-491.58 180.07,-486.05 225.34,-482.33"/>
<polygon fill="#63b8ff" stroke="#63b8ff" points="70.39,-491.57 60.71,-495.88 70.97,-498.55 70.39,-491.57"/>
</a>
</g>
</g>
<!-- Node7 -->
<g id="Node000007" class="node">
<title>Node7</title>
<g id="a_Node000007"><a xlink:href="structnix_1_1MixRepair.html" target="_top" xlink:title=" ">
<polygon fill="white" stroke="#bfbfbf" points="181.62,-451.75 95.12,-451.75 95.12,-431 181.62,-431 181.62,-451.75"/>
<text text-anchor="middle" x="138.38" y="-438.25" font-family="Helvetica,sans-Serif" font-size="10.00">nix::MixRepair</text>
</a>
</g>
</g>
<!-- Node2&#45;&gt;Node7 -->
<g id="edge9_Node000007_Node000002" class="edge">
<title>Node2&#45;&gt;Node7</title>
<g id="a_edge9_Node000007_Node000002"><a xlink:title=" ">
<path fill="none" stroke="#63b8ff" d="M60.79,-482.17C78.82,-472.57 101.18,-460.66 117.07,-452.19"/>
<polygon fill="#63b8ff" stroke="#63b8ff" points="59.27,-479.02 52.09,-486.81 62.56,-485.2 59.27,-479.02"/>
</a>
</g>
</g>
<!-- Node3 -->
<g id="Node000003" class="node">
<title>Node3</title>
<g id="a_Node000003"><a xlink:href="structnix_1_1EvalCommand.html" target="_top" xlink:title=" ">
<polygon fill="white" stroke="#666666" points="475,-527.75 366.75,-527.75 366.75,-507 475,-507 475,-527.75"/>
<text text-anchor="middle" x="420.88" y="-514.25" font-family="Helvetica,sans-Serif" font-size="10.00">nix::EvalCommand</text>
</a>
</g>
</g>
<!-- Node3&#45;&gt;Node1 -->
<g id="edge2_Node000001_Node000003" class="edge">
<title>Node3&#45;&gt;Node1</title>
<g id="a_edge2_Node000001_Node000003"><a xlink:title=" ">
<path fill="none" stroke="#63b8ff" d="M486.41,-525.69C494.49,-526.73 502.72,-527.79 510.71,-528.82"/>
<polygon fill="#63b8ff" stroke="#63b8ff" points="486.99,-522.23 476.63,-524.43 486.1,-529.18 486.99,-522.23"/>
</a>
</g>
</g>
<!-- Node4 -->
<g id="Node000004" class="node">
<title>Node4</title>
<g id="a_Node000004"><a xlink:href="structnix_1_1StoreCommand.html" target="_top" xlink:title=" ">
<polygon fill="white" stroke="#666666" points="330.75,-527.75 218,-527.75 218,-507 330.75,-507 330.75,-527.75"/>
<text text-anchor="middle" x="274.38" y="-514.25" font-family="Helvetica,sans-Serif" font-size="10.00">nix::StoreCommand</text>
</a>
</g>
</g>
<!-- Node4&#45;&gt;Node3 -->
<g id="edge3_Node000003_Node000004" class="edge">
<title>Node4&#45;&gt;Node3</title>
<g id="a_edge3_Node000003_Node000004"><a xlink:title=" ">
<path fill="none" stroke="#63b8ff" d="M342.53,-517.38C350.58,-517.38 358.71,-517.38 366.53,-517.38"/>
<polygon fill="#63b8ff" stroke="#63b8ff" points="342.76,-513.88 332.76,-517.38 342.76,-520.88 342.76,-513.88"/>
</a>
</g>
</g>
<!-- Node5&#45;&gt;Node4 -->
<g id="edge4_Node000004_Node000005" class="edge">
<title>Node5&#45;&gt;Node4</title>
<g id="a_edge4_Node000004_Node000005"><a xlink:title=" ">
<path fill="none" stroke="#63b8ff" d="M193.59,-517.38C201.57,-517.38 209.79,-517.38 217.79,-517.38"/>
<polygon fill="#63b8ff" stroke="#63b8ff" points="193.66,-513.88 183.66,-517.38 193.66,-520.88 193.66,-513.88"/>
</a>
</g>
</g>
<!-- Node6&#45;&gt;Node3 -->
<g id="edge6_Node000003_Node000006" class="edge">
<title>Node6&#45;&gt;Node3</title>
<g id="a_edge6_Node000003_Node000006"><a xlink:title=" ">
<path fill="none" stroke="#63b8ff" d="M326.73,-492.24C344.09,-496.92 363.21,-502.08 379.59,-506.5"/>
<polygon fill="#63b8ff" stroke="#63b8ff" points="327.65,-488.86 317.09,-489.63 325.83,-495.62 327.65,-488.86"/>
</a>
</g>
</g>
<!-- Node7&#45;&gt;Node6 -->
<g id="edge8_Node000006_Node000007" class="edge">
<title>Node7&#45;&gt;Node6</title>
<g id="a_edge8_Node000006_Node000007"><a xlink:title=" ">
<path fill="none" stroke="#63b8ff" d="M189.56,-455.23C204.4,-459.33 220.42,-463.75 234.44,-467.62"/>
<polygon fill="#63b8ff" stroke="#63b8ff" points="190.52,-451.87 179.95,-452.58 188.66,-458.61 190.52,-451.87"/>
</a>
</g>
</g>
<!-- Node9 -->
<g id="Node000009" class="node">
<title>Node9</title>
<g id="a_Node000009"><a xlink:href="structnix_1_1CmdFlakeArchive.html" target="_top" xlink:title=" ">
<polygon fill="white" stroke="#bfbfbf" points="987.25,-819.75 864.75,-819.75 864.75,-799 987.25,-799 987.25,-819.75"/>
<text text-anchor="middle" x="926" y="-806.25" font-family="Helvetica,sans-Serif" font-size="10.00">nix::CmdFlakeArchive</text>
</a>
</g>
</g>
<!-- Node8&#45;&gt;Node9 -->
<g id="edge11_Node000008_Node000009" class="edge">
<title>Node8&#45;&gt;Node9</title>
<g id="a_edge11_Node000008_Node000009"><a xlink:title=" ">
<path fill="none" stroke="#63b8ff" d="M748.06,-674.07C764.2,-704.25 798.33,-759.94 843.75,-789.38 850.09,-793.48 857.21,-796.75 864.52,-799.34"/>
<polygon fill="#63b8ff" stroke="#63b8ff" points="751.35,-672.81 743.64,-665.54 745.14,-676.03 751.35,-672.81"/>
</a>
</g>
</g>
<!-- Node10 -->
<g id="Node000010" class="node">
<title>Node10</title>
<g id="a_Node000010"><a xlink:href="structnix_1_1CmdFlakeCheck.html" target="_top" xlink:title=" ">
<polygon fill="white" stroke="#bfbfbf" points="983.88,-780.75 868.12,-780.75 868.12,-760 983.88,-760 983.88,-780.75"/>
<text text-anchor="middle" x="926" y="-767.25" font-family="Helvetica,sans-Serif" font-size="10.00">nix::CmdFlakeCheck</text>
</a>
</g>
</g>
<!-- Node8&#45;&gt;Node10 -->
<g id="edge12_Node000008_Node000010" class="edge">
<title>Node8&#45;&gt;Node10</title>
<g id="a_edge12_Node000008_Node000010"><a xlink:title=" ">
<path fill="none" stroke="#63b8ff" d="M753.32,-672.53C772.34,-694.64 806.61,-730.5 843.75,-750.38 851.18,-754.35 859.41,-757.55 867.7,-760.12"/>
<polygon fill="#63b8ff" stroke="#63b8ff" points="756.22,-670.54 747.11,-665.14 750.86,-675.05 756.22,-670.54"/>
</a>
</g>
</g>
<!-- Node11 -->
<g id="Node000011" class="node">
<title>Node11</title>
<g id="a_Node000011"><a xlink:href="structnix_1_1CmdFlakeClone.html" target="_top" xlink:title=" ">
<polygon fill="white" stroke="#bfbfbf" points="982.75,-741.75 869.25,-741.75 869.25,-721 982.75,-721 982.75,-741.75"/>
<text text-anchor="middle" x="926" y="-728.25" font-family="Helvetica,sans-Serif" font-size="10.00">nix::CmdFlakeClone</text>
</a>
</g>
</g>
<!-- Node8&#45;&gt;Node11 -->
<g id="edge13_Node000008_Node000011" class="edge">
<title>Node8&#45;&gt;Node11</title>
<g id="a_edge13_Node000008_Node000011"><a xlink:title=" ">
<path fill="none" stroke="#63b8ff" d="M764.08,-670.3C784.98,-683.1 815.32,-700.31 843.75,-711.38 852.82,-714.9 862.71,-717.96 872.37,-720.54"/>
<polygon fill="#63b8ff" stroke="#63b8ff" points="765.97,-667.35 755.63,-665.04 762.27,-673.29 765.97,-667.35"/>
</a>
</g>
</g>
<!-- Node12 -->
<g id="Node000012" class="node">
<title>Node12</title>
<g id="a_Node000012"><a xlink:href="structnix_1_1CmdFlakeLock.html" target="_top" xlink:title=" ">
<polygon fill="white" stroke="#bfbfbf" points="980.12,-702.75 871.88,-702.75 871.88,-682 980.12,-682 980.12,-702.75"/>
<text text-anchor="middle" x="926" y="-689.25" font-family="Helvetica,sans-Serif" font-size="10.00">nix::CmdFlakeLock</text>
</a>
</g>
</g>
<!-- Node8&#45;&gt;Node12 -->
<g id="edge14_Node000008_Node000012" class="edge">
<title>Node8&#45;&gt;Node12</title>
<g id="a_edge14_Node000008_Node000012"><a xlink:title=" ">
<path fill="none" stroke="#63b8ff" d="M801.11,-666.57C824.43,-671.43 850.56,-676.87 872.8,-681.5"/>
<polygon fill="#63b8ff" stroke="#63b8ff" points="801.89,-663.16 791.39,-664.55 800.47,-670.01 801.89,-663.16"/>
</a>
</g>
</g>
<!-- Node13 -->
<g id="Node000013" class="node">
<title>Node13</title>
<g id="a_Node000013"><a xlink:href="structnix_1_1CmdFlakeMetadata.html" target="_top" xlink:title=" ">
<polygon fill="white" stroke="#bfbfbf" points="992.12,-663.75 859.88,-663.75 859.88,-643 992.12,-643 992.12,-663.75"/>
<text text-anchor="middle" x="926" y="-650.25" font-family="Helvetica,sans-Serif" font-size="10.00">nix::CmdFlakeMetadata</text>
</a>
</g>
</g>
<!-- Node8&#45;&gt;Node13 -->
<g id="edge15_Node000008_Node000013" class="edge">
<title>Node8&#45;&gt;Node13</title>
<g id="a_edge15_Node000008_Node000013"><a xlink:title=" ">
<path fill="none" stroke="#63b8ff" d="M805.33,-653.38C823.03,-653.38 842.07,-653.38 859.64,-653.38"/>
<polygon fill="#63b8ff" stroke="#63b8ff" points="805.44,-649.88 795.44,-653.38 805.44,-656.88 805.44,-649.88"/>
</a>
</g>
</g>
<!-- Node15 -->
<g id="Node000015" class="node">
<title>Node15</title>
<g id="a_Node000015"><a xlink:href="structnix_1_1CmdFlakePrefetch.html" target="_top" xlink:title=" ">
<polygon fill="white" stroke="#bfbfbf" points="989.12,-624.75 862.88,-624.75 862.88,-604 989.12,-604 989.12,-624.75"/>
<text text-anchor="middle" x="926" y="-611.25" font-family="Helvetica,sans-Serif" font-size="10.00">nix::CmdFlakePrefetch</text>
</a>
</g>
</g>
<!-- Node8&#45;&gt;Node15 -->
<g id="edge17_Node000008_Node000015" class="edge">
<title>Node8&#45;&gt;Node15</title>
<g id="a_edge17_Node000008_Node000015"><a xlink:title=" ">
<path fill="none" stroke="#63b8ff" d="M801.11,-640.18C824.43,-635.32 850.56,-629.88 872.8,-625.25"/>
<polygon fill="#63b8ff" stroke="#63b8ff" points="800.47,-636.74 791.39,-642.2 801.89,-643.59 800.47,-636.74"/>
</a>
</g>
</g>
<!-- Node16 -->
<g id="Node000016" class="node">
<title>Node16</title>
<g id="a_Node000016"><a xlink:href="structnix_1_1CmdFlakeShow.html" target="_top" xlink:title=" ">
<polygon fill="white" stroke="#bfbfbf" points="982,-585.75 870,-585.75 870,-565 982,-565 982,-585.75"/>
<text text-anchor="middle" x="926" y="-572.25" font-family="Helvetica,sans-Serif" font-size="10.00">nix::CmdFlakeShow</text>
</a>
</g>
</g>
<!-- Node8&#45;&gt;Node16 -->
<g id="edge18_Node000008_Node000016" class="edge">
<title>Node8&#45;&gt;Node16</title>
<g id="a_edge18_Node000008_Node000016"><a xlink:title=" ">
<path fill="none" stroke="#63b8ff" d="M764.08,-636.45C784.98,-623.65 815.32,-606.44 843.75,-595.38 852.82,-591.85 862.71,-588.79 872.37,-586.21"/>
<polygon fill="#63b8ff" stroke="#63b8ff" points="762.27,-633.46 755.63,-641.71 765.97,-639.4 762.27,-633.46"/>
</a>
</g>
</g>
<!-- Node17 -->
<g id="Node000017" class="node">
<title>Node17</title>
<g id="a_Node000017"><a xlink:href="structnix_1_1CmdFlakeUpdate.html" target="_top" xlink:title=" ">
<polygon fill="white" stroke="#bfbfbf" points="986.5,-546.75 865.5,-546.75 865.5,-526 986.5,-526 986.5,-546.75"/>
<text text-anchor="middle" x="926" y="-533.25" font-family="Helvetica,sans-Serif" font-size="10.00">nix::CmdFlakeUpdate</text>
</a>
</g>
</g>
<!-- Node8&#45;&gt;Node17 -->
<g id="edge19_Node000008_Node000017" class="edge">
<title>Node8&#45;&gt;Node17</title>
<g id="a_edge19_Node000008_Node000017"><a xlink:title=" ">
<path fill="none" stroke="#63b8ff" d="M753.32,-634.22C772.34,-612.11 806.61,-576.25 843.75,-556.38 850.67,-552.67 858.28,-549.65 865.99,-547.17"/>
<polygon fill="#63b8ff" stroke="#63b8ff" points="750.86,-631.7 747.11,-641.61 756.22,-636.21 750.86,-631.7"/>
</a>
</g>
</g>
<!-- Node14 -->
<g id="Node000014" class="node">
<title>Node14</title>
<g id="a_Node000014"><a xlink:href="structnix_1_1CmdFlakeInfo.html" target="_top" xlink:title=" ">
<polygon fill="white" stroke="#bfbfbf" points="1168.25,-663.75 1063.75,-663.75 1063.75,-643 1168.25,-643 1168.25,-663.75"/>
<text text-anchor="middle" x="1116" y="-650.25" font-family="Helvetica,sans-Serif" font-size="10.00">nix::CmdFlakeInfo</text>
</a>
</g>
</g>
<!-- Node13&#45;&gt;Node14 -->
<g id="edge16_Node000013_Node000014" class="edge">
<title>Node13&#45;&gt;Node14</title>
<g id="a_edge16_Node000013_Node000014"><a xlink:title=" ">
<path fill="none" stroke="#63b8ff" d="M1003.81,-653.38C1023.85,-653.38 1044.97,-653.38 1063.36,-653.38"/>
<polygon fill="#63b8ff" stroke="#63b8ff" points="1004,-649.88 994,-653.38 1004,-656.88 1004,-649.88"/>
</a>
</g>
</g>
<!-- Node19 -->
<g id="Node000019" class="node">
<title>Node19</title>
<g id="a_Node000019"><a xlink:href="structnix_1_1CmdDiffClosures.html" target="_top" xlink:title=" ">
<polygon fill="white" stroke="#bfbfbf" points="985.38,-507.75 866.62,-507.75 866.62,-487 985.38,-487 985.38,-507.75"/>
<text text-anchor="middle" x="926" y="-494.25" font-family="Helvetica,sans-Serif" font-size="10.00">nix::CmdDiffClosures</text>
</a>
</g>
</g>
<!-- Node18&#45;&gt;Node19 -->
<g id="edge21_Node000018_Node000019" class="edge">
<title>Node18&#45;&gt;Node19</title>
<g id="a_edge21_Node000018_Node000019"><a xlink:title=" ">
<path fill="none" stroke="#63b8ff" d="M764.08,-436.3C784.98,-449.1 815.32,-466.31 843.75,-477.38 852.82,-480.9 862.71,-483.96 872.37,-486.54"/>
<polygon fill="#63b8ff" stroke="#63b8ff" points="765.97,-433.35 755.63,-431.04 762.27,-439.29 765.97,-433.35"/>
</a>
</g>
</g>
<!-- Node20 -->
<g id="Node000020" class="node">
<title>Node20</title>
<g id="a_Node000020"><a xlink:href="structnix_1_1CmdFmt.html" target="_top" xlink:title=" ">
<polygon fill="white" stroke="#bfbfbf" points="965.5,-468.75 886.5,-468.75 886.5,-448 965.5,-448 965.5,-468.75"/>
<text text-anchor="middle" x="926" y="-455.25" font-family="Helvetica,sans-Serif" font-size="10.00">nix::CmdFmt</text>
</a>
</g>
</g>
<!-- Node18&#45;&gt;Node20 -->
<g id="edge22_Node000018_Node000020" class="edge">
<title>Node18&#45;&gt;Node20</title>
<g id="a_edge22_Node000018_Node000020"><a xlink:title=" ">
<path fill="none" stroke="#63b8ff" d="M800.91,-432.53C829.17,-438.42 861.57,-445.16 886.18,-450.29"/>
<polygon fill="#63b8ff" stroke="#63b8ff" points="801.89,-429.16 791.39,-430.55 800.47,-436.01 801.89,-429.16"/>
</a>
</g>
</g>
<!-- Node21 -->
<g id="Node000021" class="node">
<title>Node21</title>
<g id="a_Node000021"><a xlink:href="structnix_1_1CmdProfileUpgrade.html" target="_top" xlink:title=" ">
<polygon fill="white" stroke="#bfbfbf" points="991.75,-429.75 860.25,-429.75 860.25,-409 991.75,-409 991.75,-429.75"/>
<text text-anchor="middle" x="926" y="-416.25" font-family="Helvetica,sans-Serif" font-size="10.00">nix::CmdProfileUpgrade</text>
</a>
</g>
</g>
<!-- Node18&#45;&gt;Node21 -->
<g id="edge23_Node000018_Node000021" class="edge">
<title>Node18&#45;&gt;Node21</title>
<g id="a_edge23_Node000018_Node000021"><a xlink:title=" ">
<path fill="none" stroke="#63b8ff" d="M819.31,-419.38C832.89,-419.38 846.81,-419.38 859.92,-419.38"/>
<polygon fill="#63b8ff" stroke="#63b8ff" points="819.52,-415.88 809.52,-419.38 819.52,-422.88 819.52,-415.88"/>
</a>
</g>
</g>
<!-- Node22 -->
<g id="Node000022" class="node">
<title>Node22</title>
<g id="a_Node000022"><a xlink:href="structnix_1_1CmdWhyDepends.html" target="_top" xlink:title=" ">
<polygon fill="white" stroke="#bfbfbf" points="988,-390.75 864,-390.75 864,-370 988,-370 988,-390.75"/>
<text text-anchor="middle" x="926" y="-377.25" font-family="Helvetica,sans-Serif" font-size="10.00">nix::CmdWhyDepends</text>
</a>
</g>
</g>
<!-- Node18&#45;&gt;Node22 -->
<g id="edge24_Node000018_Node000022" class="edge">
<title>Node18&#45;&gt;Node22</title>
<g id="a_edge24_Node000018_Node000022"><a xlink:title=" ">
<path fill="none" stroke="#63b8ff" d="M801.11,-406.18C824.43,-401.32 850.56,-395.88 872.8,-391.25"/>
<polygon fill="#63b8ff" stroke="#63b8ff" points="800.47,-402.74 791.39,-408.2 801.89,-409.59 800.47,-402.74"/>
</a>
</g>
</g>
<!-- Node23 -->
<g id="Node000023" class="node">
<title>Node23</title>
<g id="a_Node000023"><a xlink:href="structnix_1_1InstallableCommand.html" target="_top" xlink:title=" ">
<polygon fill="white" stroke="#666666" points="995.12,-351.75 856.88,-351.75 856.88,-331 995.12,-331 995.12,-351.75"/>
<text text-anchor="middle" x="926" y="-338.25" font-family="Helvetica,sans-Serif" font-size="10.00">nix::InstallableCommand</text>
</a>
</g>
</g>
<!-- Node18&#45;&gt;Node23 -->
<g id="edge25_Node000018_Node000023" class="edge">
<title>Node18&#45;&gt;Node23</title>
<g id="a_edge25_Node000018_Node000023"><a xlink:title=" ">
<path fill="none" stroke="#63b8ff" d="M764.08,-402.45C784.98,-389.65 815.32,-372.44 843.75,-361.38 852.82,-357.85 862.71,-354.79 872.37,-352.21"/>
<polygon fill="#63b8ff" stroke="#63b8ff" points="762.27,-399.46 755.63,-407.71 765.97,-405.4 762.27,-399.46"/>
</a>
</g>
</g>
<!-- Node33 -->
<g id="Node000033" class="node">
<title>Node33</title>
<g id="a_Node000033"><a xlink:href="structnix_1_1RawInstallablesCommand.html" target="_top" xlink:title=" ">
<polygon fill="white" stroke="#666666" points="1008.25,-196.75 843.75,-196.75 843.75,-176 1008.25,-176 1008.25,-196.75"/>
<text text-anchor="middle" x="926" y="-183.25" font-family="Helvetica,sans-Serif" font-size="10.00">nix::RawInstallablesCommand</text>
</a>
</g>
</g>
<!-- Node18&#45;&gt;Node33 -->
<g id="edge35_Node000018_Node000033" class="edge">
<title>Node18&#45;&gt;Node33</title>
<g id="a_edge35_Node000018_Node000033"><a xlink:title=" ">
<path fill="none" stroke="#63b8ff" d="M753.46,-399.82C791.44,-352.57 887.22,-233.39 916.42,-197.05"/>
<polygon fill="#63b8ff" stroke="#63b8ff" points="750.77,-397.59 747.23,-407.58 756.22,-401.98 750.77,-397.59"/>
</a>
</g>
</g>
<!-- Node24 -->
<g id="Node000024" class="node">
<title>Node24</title>
<g id="a_Node000024"><a xlink:href="structnix_1_1CmdBundle.html" target="_top" xlink:title=" ">
<polygon fill="white" stroke="#bfbfbf" points="1162.62,-488.75 1069.38,-488.75 1069.38,-468 1162.62,-468 1162.62,-488.75"/>
<text text-anchor="middle" x="1116" y="-475.25" font-family="Helvetica,sans-Serif" font-size="10.00">nix::CmdBundle</text>
</a>
</g>
</g>
<!-- Node23&#45;&gt;Node24 -->
<g id="edge26_Node000023_Node000024" class="edge">
<title>Node23&#45;&gt;Node24</title>
<g id="a_edge26_Node000023_Node000024"><a xlink:title=" ">
<path fill="none" stroke="#63b8ff" d="M1004.23,-358.12C1005.62,-359.14 1006.96,-360.23 1008.25,-361.38 1042.57,-391.99 1010.46,-427.18 1044.25,-458.38 1051.19,-464.78 1060.03,-469.16 1069.09,-472.14"/>
<polygon fill="#63b8ff" stroke="#63b8ff" points="1006.11,-355.16 995.74,-352.97 1002.48,-361.15 1006.11,-355.16"/>
</a>
</g>
</g>
<!-- Node25 -->
<g id="Node000025" class="node">
<title>Node25</title>
<g id="a_Node000025"><a xlink:href="structnix_1_1CmdEdit.html" target="_top" xlink:title=" ">
<polygon fill="white" stroke="#bfbfbf" points="1155.12,-449.75 1076.88,-449.75 1076.88,-429 1155.12,-429 1155.12,-449.75"/>
<text text-anchor="middle" x="1116" y="-436.25" font-family="Helvetica,sans-Serif" font-size="10.00">nix::CmdEdit</text>
</a>
</g>
</g>
<!-- Node23&#45;&gt;Node25 -->
<g id="edge27_Node000023_Node000025" class="edge">
<title>Node23&#45;&gt;Node25</title>
<g id="a_edge27_Node000023_Node000025"><a xlink:title=" ">
<path fill="none" stroke="#63b8ff" d="M1001.82,-357.22C1004.05,-358.5 1006.2,-359.88 1008.25,-361.38 1032.8,-379.21 1020.01,-401.13 1044.25,-419.38 1053.63,-426.44 1065.41,-431.01 1076.64,-433.96"/>
<polygon fill="#63b8ff" stroke="#63b8ff" points="1003.53,-354.16 993.01,-352.91 1000.45,-360.45 1003.53,-354.16"/>
</a>
</g>
</g>
<!-- Node26 -->
<g id="Node000026" class="node">
<title>Node26</title>
<g id="a_Node000026"><a xlink:href="structnix_1_1CmdEval.html" target="_top" xlink:title=" ">
<polygon fill="white" stroke="#bfbfbf" points="1156.25,-410.75 1075.75,-410.75 1075.75,-390 1156.25,-390 1156.25,-410.75"/>
<text text-anchor="middle" x="1116" y="-397.25" font-family="Helvetica,sans-Serif" font-size="10.00">nix::CmdEval</text>
</a>
</g>
</g>
<!-- Node23&#45;&gt;Node26 -->
<g id="edge28_Node000023_Node000026" class="edge">
<title>Node23&#45;&gt;Node26</title>
<g id="a_edge28_Node000023_Node000026"><a xlink:title=" ">
<path fill="none" stroke="#63b8ff" d="M990.23,-355.32C996.39,-357.16 1002.48,-359.18 1008.25,-361.38 1025.16,-367.81 1027.45,-373.66 1044.25,-380.38 1054.2,-384.36 1065.24,-387.88 1075.58,-390.82"/>
<polygon fill="#63b8ff" stroke="#63b8ff" points="991.19,-351.96 980.62,-352.62 989.29,-358.7 991.19,-351.96"/>
</a>
</g>
</g>
<!-- Node27 -->
<g id="Node000027" class="node">
<title>Node27</title>
<g id="a_Node000027"><a xlink:href="structnix_1_1CmdLog.html" target="_top" xlink:title=" ">
<polygon fill="white" stroke="#bfbfbf" points="1154.38,-371.75 1077.62,-371.75 1077.62,-351 1154.38,-351 1154.38,-371.75"/>
<text text-anchor="middle" x="1116" y="-358.25" font-family="Helvetica,sans-Serif" font-size="10.00">nix::CmdLog</text>
</a>
</g>
</g>
<!-- Node23&#45;&gt;Node27 -->
<g id="edge29_Node000023_Node000027" class="edge">
<title>Node23&#45;&gt;Node27</title>
<g id="a_edge29_Node000023_Node000027"><a xlink:title=" ">
<path fill="none" stroke="#63b8ff" d="M1006.55,-349.84C1031.07,-352.45 1056.93,-355.2 1077.25,-357.36"/>
<polygon fill="#63b8ff" stroke="#63b8ff" points="1007.22,-346.39 996.91,-348.81 1006.48,-353.35 1007.22,-346.39"/>
</a>
</g>
</g>
<!-- Node28 -->
<g id="Node000028" class="node">
<title>Node28</title>
<g id="a_Node000028"><a xlink:href="structnix_1_1CmdRun.html" target="_top" xlink:title=" ">
<polygon fill="white" stroke="#bfbfbf" points="1155.12,-332.75 1076.88,-332.75 1076.88,-312 1155.12,-312 1155.12,-332.75"/>
<text text-anchor="middle" x="1116" y="-319.25" font-family="Helvetica,sans-Serif" font-size="10.00">nix::CmdRun</text>
</a>
</g>
</g>
<!-- Node23&#45;&gt;Node28 -->
<g id="edge30_Node000023_Node000028" class="edge">
<title>Node23&#45;&gt;Node28</title>
<g id="a_edge30_Node000023_Node000028"><a xlink:title=" ">
<path fill="none" stroke="#63b8ff" d="M1006.75,-333.32C1030.88,-330.88 1056.3,-328.31 1076.44,-326.27"/>
<polygon fill="#63b8ff" stroke="#63b8ff" points="1006.51,-329.82 996.91,-334.31 1007.21,-336.79 1006.51,-329.82"/>
</a>
</g>
</g>
<!-- Node29 -->
<g id="Node000029" class="node">
<title>Node29</title>
<g id="a_Node000029"><a xlink:href="structnix_1_1CmdSearch.html" target="_top" xlink:title=" ">
<polygon fill="white" stroke="#bfbfbf" points="1162.25,-293.75 1069.75,-293.75 1069.75,-273 1162.25,-273 1162.25,-293.75"/>
<text text-anchor="middle" x="1116" y="-280.25" font-family="Helvetica,sans-Serif" font-size="10.00">nix::CmdSearch</text>
</a>
</g>
</g>
<!-- Node23&#45;&gt;Node29 -->
<g id="edge31_Node000023_Node000029" class="edge">
<title>Node23&#45;&gt;Node29</title>
<g id="a_edge31_Node000023_Node000029"><a xlink:title=" ">
<path fill="none" stroke="#63b8ff" d="M969.97,-327.02C992.1,-319.73 1019.55,-310.87 1044.25,-303.38 1054.39,-300.3 1065.39,-297.12 1075.63,-294.22"/>
<polygon fill="#63b8ff" stroke="#63b8ff" points="969.08,-323.63 960.68,-330.09 971.28,-330.27 969.08,-323.63"/>
</a>
</g>
</g>
<!-- Node30 -->
<g id="Node000030" class="node">
<title>Node30</title>
<g id="a_Node000030"><a xlink:href="structnix_1_1Common.html" target="_top" xlink:title=" ">
<polygon fill="white" stroke="#bfbfbf" points="1156.62,-254.75 1075.38,-254.75 1075.38,-234 1156.62,-234 1156.62,-254.75"/>
<text text-anchor="middle" x="1116" y="-241.25" font-family="Helvetica,sans-Serif" font-size="10.00">nix::Common</text>
</a>
</g>
</g>
<!-- Node23&#45;&gt;Node30 -->
<g id="edge32_Node000023_Node000030" class="edge">
<title>Node23&#45;&gt;Node30</title>
<g id="a_edge32_Node000023_Node000030"><a xlink:title=" ">
<path fill="none" stroke="#63b8ff" d="M949.09,-323.88C971.81,-306.63 1008.78,-280.57 1044.25,-264.38 1053.89,-259.97 1064.71,-256.33 1074.94,-253.4"/>
<polygon fill="#63b8ff" stroke="#63b8ff" points="947.26,-320.88 941.47,-329.75 951.53,-326.42 947.26,-320.88"/>
</a>
</g>
</g>
<!-- Node31 -->
<g id="Node000031" class="node">
<title>Node31</title>
<g id="a_Node000031"><a xlink:href="structnix_1_1CmdDevelop.html" target="_top" xlink:title=" ">
<polygon fill="white" stroke="#bfbfbf" points="1342.12,-293.75 1242.12,-293.75 1242.12,-273 1342.12,-273 1342.12,-293.75"/>
<text text-anchor="middle" x="1292.12" y="-280.25" font-family="Helvetica,sans-Serif" font-size="10.00">nix::CmdDevelop</text>
</a>
</g>
</g>
<!-- Node30&#45;&gt;Node31 -->
<g id="edge33_Node000030_Node000031" class="edge">
<title>Node30&#45;&gt;Node31</title>
<g id="a_edge33_Node000030_Node000031"><a xlink:title=" ">
<path fill="none" stroke="#63b8ff" d="M1168.13,-255.83C1191.67,-261.1 1219.47,-267.33 1242.68,-272.52"/>
<polygon fill="#63b8ff" stroke="#63b8ff" points="1168.95,-252.42 1158.42,-253.65 1167.42,-259.25 1168.95,-252.42"/>
</a>
</g>
</g>
<!-- Node32 -->
<g id="Node000032" class="node">
<title>Node32</title>
<g id="a_Node000032"><a xlink:href="structnix_1_1CmdPrintDevEnv.html" target="_top" xlink:title=" ">
<polygon fill="white" stroke="#bfbfbf" points="1351.88,-254.75 1232.38,-254.75 1232.38,-234 1351.88,-234 1351.88,-254.75"/>
<text text-anchor="middle" x="1292.12" y="-241.25" font-family="Helvetica,sans-Serif" font-size="10.00">nix::CmdPrintDevEnv</text>
</a>
</g>
</g>
<!-- Node30&#45;&gt;Node32 -->
<g id="edge34_Node000030_Node000032" class="edge">
<title>Node30&#45;&gt;Node32</title>
<g id="a_edge34_Node000030_Node000032"><a xlink:title=" ">
<path fill="none" stroke="#63b8ff" d="M1168.35,-244.38C1188.39,-244.38 1211.49,-244.38 1232.2,-244.38"/>
<polygon fill="#63b8ff" stroke="#63b8ff" points="1168.46,-240.88 1158.46,-244.38 1168.46,-247.88 1168.46,-240.88"/>
</a>
</g>
</g>
<!-- Node34 -->
<g id="Node000034" class="node">
<title>Node34</title>
<g id="a_Node000034"><a xlink:href="structnix_1_1CmdRepl.html" target="_top" xlink:title=" ">
<polygon fill="white" stroke="#bfbfbf" points="1156.62,-196.75 1075.38,-196.75 1075.38,-176 1156.62,-176 1156.62,-196.75"/>
<text text-anchor="middle" x="1116" y="-183.25" font-family="Helvetica,sans-Serif" font-size="10.00">nix::CmdRepl</text>
</a>
</g>
</g>
<!-- Node33&#45;&gt;Node34 -->
<g id="edge36_Node000033_Node000034" class="edge">
<title>Node33&#45;&gt;Node34</title>
<g id="a_edge36_Node000033_Node000034"><a xlink:title=" ">
<path fill="none" stroke="#63b8ff" d="M1020.01,-186.38C1039.38,-186.38 1058.8,-186.38 1074.99,-186.38"/>
<polygon fill="#63b8ff" stroke="#63b8ff" points="1020.15,-182.88 1010.15,-186.38 1020.15,-189.88 1020.15,-182.88"/>
</a>
</g>
</g>
<!-- Node35 -->
<g id="Node000035" class="node">
<title>Node35</title>
<g id="a_Node000035"><a xlink:href="structnix_1_1InstallablesCommand.html" target="_top" xlink:title=" ">
<polygon fill="white" stroke="#666666" points="1187.75,-137.75 1044.25,-137.75 1044.25,-117 1187.75,-117 1187.75,-137.75"/>
<text text-anchor="middle" x="1116" y="-124.25" font-family="Helvetica,sans-Serif" font-size="10.00">nix::InstallablesCommand</text>
</a>
</g>
</g>
<!-- Node33&#45;&gt;Node35 -->
<g id="edge37_Node000033_Node000035" class="edge">
<title>Node33&#45;&gt;Node35</title>
<g id="a_edge37_Node000033_Node000035"><a xlink:title=" ">
<path fill="none" stroke="#63b8ff" d="M972.29,-172.16C1005.53,-161.73 1050.01,-147.77 1080.42,-138.23"/>
<polygon fill="#63b8ff" stroke="#63b8ff" points="971.42,-168.77 962.93,-175.1 973.52,-175.45 971.42,-168.77"/>
</a>
</g>
</g>
<!-- Node36 -->
<g id="Node000036" class="node">
<title>Node36</title>
<g id="a_Node000036"><a xlink:href="structnix_1_1BuiltPathsCommand.html" target="_top" xlink:title=" ">
<polygon fill="white" stroke="#666666" points="1360.12,-215.75 1224.12,-215.75 1224.12,-195 1360.12,-195 1360.12,-215.75"/>
<text text-anchor="middle" x="1292.12" y="-202.25" font-family="Helvetica,sans-Serif" font-size="10.00">nix::BuiltPathsCommand</text>
</a>
</g>
</g>
<!-- Node35&#45;&gt;Node36 -->
<g id="edge38_Node000035_Node000036" class="edge">
<title>Node35&#45;&gt;Node36</title>
<g id="a_edge38_Node000035_Node000036"><a xlink:title=" ">
<path fill="none" stroke="#63b8ff" d="M1145.61,-143.8C1171.71,-158.62 1208.44,-179.03 1223.75,-185.38 1231.98,-188.79 1240.99,-191.88 1249.67,-194.56"/>
<polygon fill="#63b8ff" stroke="#63b8ff" points="1147.6,-140.9 1137.18,-138.99 1144.13,-146.99 1147.6,-140.9"/>
</a>
</g>
</g>
<!-- Node49 -->
<g id="Node000049" class="node">
<title>Node49</title>
<g id="a_Node000049"><a xlink:href="structnix_1_1CmdBuild.html" target="_top" xlink:title=" ">
<polygon fill="white" stroke="#bfbfbf" points="1334.25,-176.75 1250,-176.75 1250,-156 1334.25,-156 1334.25,-176.75"/>
<text text-anchor="middle" x="1292.12" y="-163.25" font-family="Helvetica,sans-Serif" font-size="10.00">nix::CmdBuild</text>
</a>
</g>
</g>
<!-- Node35&#45;&gt;Node49 -->
<g id="edge47_Node000035_Node000049" class="edge">
<title>Node35&#45;&gt;Node49</title>
<g id="a_edge47_Node000035_Node000049"><a xlink:title=" ">
<path fill="none" stroke="#63b8ff" d="M1176.66,-140.74C1200.7,-146.12 1227.85,-152.2 1249.67,-157.09"/>
<polygon fill="#63b8ff" stroke="#63b8ff" points="1177.5,-137.34 1166.98,-138.57 1175.97,-144.17 1177.5,-137.34"/>
</a>
</g>
</g>
<!-- Node50 -->
<g id="Node000050" class="node">
<title>Node50</title>
<g id="a_Node000050"><a xlink:href="structnix_1_1CmdCopyLog.html" target="_top" xlink:title=" ">
<polygon fill="white" stroke="#bfbfbf" points="1342.88,-137.75 1241.38,-137.75 1241.38,-117 1342.88,-117 1342.88,-137.75"/>
<text text-anchor="middle" x="1292.12" y="-124.25" font-family="Helvetica,sans-Serif" font-size="10.00">nix::CmdCopyLog</text>
</a>
</g>
</g>
<!-- Node35&#45;&gt;Node50 -->
<g id="edge48_Node000035_Node000050" class="edge">
<title>Node35&#45;&gt;Node50</title>
<g id="a_edge48_Node000035_Node000050"><a xlink:title=" ">
<path fill="none" stroke="#63b8ff" d="M1199.42,-127.38C1213.64,-127.38 1228.02,-127.38 1241.05,-127.38"/>
<polygon fill="#63b8ff" stroke="#63b8ff" points="1199.59,-123.88 1189.59,-127.38 1199.59,-130.88 1199.59,-123.88"/>
</a>
</g>
</g>
<!-- Node51 -->
<g id="Node000051" class="node">
<title>Node51</title>
<g id="a_Node000051"><a xlink:href="structnix_1_1CmdProfileInstall.html" target="_top" xlink:title=" ">
<polygon fill="white" stroke="#bfbfbf" points="1352.25,-98.75 1232,-98.75 1232,-78 1352.25,-78 1352.25,-98.75"/>
<text text-anchor="middle" x="1292.12" y="-85.25" font-family="Helvetica,sans-Serif" font-size="10.00">nix::CmdProfileInstall</text>
</a>
</g>
</g>
<!-- Node35&#45;&gt;Node51 -->
<g id="edge49_Node000035_Node000051" class="edge">
<title>Node35&#45;&gt;Node51</title>
<g id="a_edge49_Node000035_Node000051"><a xlink:title=" ">
<path fill="none" stroke="#63b8ff" d="M1176.51,-114.05C1198.05,-109.22 1222.09,-103.84 1242.58,-99.25"/>
<polygon fill="#63b8ff" stroke="#63b8ff" points="1175.97,-110.58 1166.98,-116.18 1177.5,-117.41 1175.97,-110.58"/>
</a>
</g>
</g>
<!-- Node52 -->
<g id="Node000052" class="node">
<title>Node52</title>
<g id="a_Node000052"><a xlink:href="structnix_1_1CmdShell.html" target="_top" xlink:title=" ">
<polygon fill="white" stroke="#bfbfbf" points="1333.88,-59.75 1250.38,-59.75 1250.38,-39 1333.88,-39 1333.88,-59.75"/>
<text text-anchor="middle" x="1292.12" y="-46.25" font-family="Helvetica,sans-Serif" font-size="10.00">nix::CmdShell</text>
</a>
</g>
</g>
<!-- Node35&#45;&gt;Node52 -->
<g id="edge50_Node000035_Node000052" class="edge">
<title>Node35&#45;&gt;Node52</title>
<g id="a_edge50_Node000035_Node000052"><a xlink:title=" ">
<path fill="none" stroke="#63b8ff" d="M1143.77,-110.79C1164.91,-98.2 1195.45,-81.11 1223.75,-69.38 1232.09,-65.92 1241.24,-62.79 1250.03,-60.08"/>
<polygon fill="#63b8ff" stroke="#63b8ff" points="1142.25,-107.62 1135.49,-115.78 1145.86,-113.61 1142.25,-107.62"/>
</a>
</g>
</g>
<!-- Node53 -->
<g id="Node000053" class="node">
<title>Node53</title>
<g id="a_Node000053"><a xlink:href="structnix_1_1CmdShowDerivation.html" target="_top" xlink:title=" ">
<polygon fill="white" stroke="#bfbfbf" points="1360.5,-20.75 1223.75,-20.75 1223.75,0 1360.5,0 1360.5,-20.75"/>
<text text-anchor="middle" x="1292.12" y="-7.25" font-family="Helvetica,sans-Serif" font-size="10.00">nix::CmdShowDerivation</text>
</a>
</g>
</g>
<!-- Node35&#45;&gt;Node53 -->
<g id="edge51_Node000035_Node000053" class="edge">
<title>Node35&#45;&gt;Node53</title>
<g id="a_edge51_Node000035_Node000053"><a xlink:title=" ">
<path fill="none" stroke="#63b8ff" d="M1133.18,-108.19C1152.58,-86.35 1187.1,-51.02 1223.75,-30.38 1230.23,-26.72 1237.45,-23.67 1244.69,-21.15"/>
<polygon fill="#63b8ff" stroke="#63b8ff" points="1130.74,-105.66 1126.82,-115.5 1136.02,-110.25 1130.74,-105.66"/>
</a>
</g>
</g>
<!-- Node37 -->
<g id="Node000037" class="node">
<title>Node37</title>
<g id="a_Node000037"><a xlink:href="structnix_1_1CmdCopy.html" target="_top" xlink:title=" ">
<polygon fill="white" stroke="#bfbfbf" points="1508.12,-254.75 1423.88,-254.75 1423.88,-234 1508.12,-234 1508.12,-254.75"/>
<text text-anchor="middle" x="1466" y="-241.25" font-family="Helvetica,sans-Serif" font-size="10.00">nix::CmdCopy</text>
</a>
</g>
</g>
<!-- Node36&#45;&gt;Node37 -->
<g id="edge39_Node000036_Node000037" class="edge">
<title>Node36&#45;&gt;Node37</title>
<g id="a_edge39_Node000036_Node000037"><a xlink:title=" ">
<path fill="none" stroke="#63b8ff" d="M1351.93,-218.72C1375.47,-224.06 1402.04,-230.09 1423.51,-234.96"/>
<polygon fill="#63b8ff" stroke="#63b8ff" points="1353,-215.37 1342.48,-216.57 1351.46,-222.2 1353,-215.37"/>
</a>
</g>
</g>
<!-- Node38 -->
<g id="Node000038" class="node">
<title>Node38</title>
<g id="a_Node000038"><a xlink:href="structnix_1_1CmdRealisationInfo.html" target="_top" xlink:title=" ">
<polygon fill="white" stroke="#bfbfbf" points="1532.5,-215.75 1399.5,-215.75 1399.5,-195 1532.5,-195 1532.5,-215.75"/>
<text text-anchor="middle" x="1466" y="-202.25" font-family="Helvetica,sans-Serif" font-size="10.00">nix::CmdRealisationInfo</text>
</a>
</g>
</g>
<!-- Node36&#45;&gt;Node38 -->
<g id="edge40_Node000036_Node000038" class="edge">
<title>Node36&#45;&gt;Node38</title>
<g id="a_edge40_Node000036_Node000038"><a xlink:title=" ">
<path fill="none" stroke="#63b8ff" d="M1371.99,-205.38C1381.08,-205.38 1390.27,-205.38 1399.17,-205.38"/>
<polygon fill="#63b8ff" stroke="#63b8ff" points="1372.07,-201.88 1362.07,-205.38 1372.07,-208.88 1372.07,-201.88"/>
</a>
</g>
</g>
<!-- Node39 -->
<g id="Node000039" class="node">
<title>Node39</title>
<g id="a_Node000039"><a xlink:href="structnix_1_1StorePathsCommand.html" target="_top" xlink:title=" ">
<polygon fill="white" stroke="orangered" points="1535.5,-176.75 1396.5,-176.75 1396.5,-156 1535.5,-156 1535.5,-176.75"/>
<text text-anchor="middle" x="1466" y="-163.25" font-family="Helvetica,sans-Serif" font-size="10.00">nix::StorePathsCommand</text>
</a>
</g>
</g>
<!-- Node36&#45;&gt;Node39 -->
<g id="edge41_Node000036_Node000039" class="edge">
<title>Node36&#45;&gt;Node39</title>
<g id="a_edge41_Node000036_Node000039"><a xlink:title=" ">
<path fill="none" stroke="#63b8ff" d="M1352.16,-191.98C1373.34,-187.17 1396.95,-181.82 1417.08,-177.25"/>
<polygon fill="#63b8ff" stroke="#63b8ff" points="1351.46,-188.55 1342.48,-194.18 1353,-195.38 1351.46,-188.55"/>
</a>
</g>
</g>
<!-- Node40 -->
<g id="Node000040" class="node">
<title>Node40</title>
<g id="a_Node000040"><a xlink:href="structnix_1_1CmdCopySigs.html" target="_top" xlink:title=" ">
<polygon fill="white" stroke="#bfbfbf" points="1711.25,-254.75 1606.75,-254.75 1606.75,-234 1711.25,-234 1711.25,-254.75"/>
<text text-anchor="middle" x="1659" y="-241.25" font-family="Helvetica,sans-Serif" font-size="10.00">nix::CmdCopySigs</text>
</a>
</g>
</g>
<!-- Node39&#45;&gt;Node40 -->
<g id="edge42_Node000039_Node000040" class="edge">
<title>Node39&#45;&gt;Node40</title>
<g id="a_edge42_Node000039_Node000040"><a xlink:title=" ">
<path fill="none" stroke="#63b8ff" d="M1526.31,-181.47C1529.49,-182.96 1532.58,-184.59 1535.5,-186.38 1555.35,-198.5 1551.31,-212.82 1571.5,-224.38 1582.07,-230.42 1594.35,-234.64 1606.28,-237.59"/>
<polygon fill="#63b8ff" stroke="#63b8ff" points="1527.88,-178.33 1517.3,-177.75 1525.2,-184.8 1527.88,-178.33"/>
</a>
</g>
</g>
<!-- Node41 -->
<g id="Node000041" class="node">
<title>Node41</title>
<g id="a_Node000041"><a xlink:href="structnix_1_1CmdMakeContentAddressed.html" target="_top" xlink:title=" ">
<polygon fill="white" stroke="#bfbfbf" points="1746.5,-215.75 1571.5,-215.75 1571.5,-195 1746.5,-195 1746.5,-215.75"/>
<text text-anchor="middle" x="1659" y="-202.25" font-family="Helvetica,sans-Serif" font-size="10.00">nix::CmdMakeContentAddressed</text>
</a>
</g>
</g>
<!-- Node39&#45;&gt;Node41 -->
<g id="edge43_Node000039_Node000041" class="edge">
<title>Node39&#45;&gt;Node41</title>
<g id="a_edge43_Node000039_Node000041"><a xlink:title=" ">
<path fill="none" stroke="#63b8ff" d="M1531.3,-179.5C1555.17,-184.38 1581.97,-189.85 1604.75,-194.5"/>
<polygon fill="#63b8ff" stroke="#63b8ff" points="1532.19,-176.11 1521.69,-177.54 1530.78,-182.97 1532.19,-176.11"/>
</a>
</g>
</g>
<!-- Node42 -->
<g id="Node000042" class="node">
<title>Node42</title>
<g id="a_Node000042"><a xlink:href="structnix_1_1CmdPathInfo.html" target="_top" xlink:title=" ">
<polygon fill="white" stroke="#bfbfbf" points="1708.62,-176.75 1609.38,-176.75 1609.38,-156 1708.62,-156 1708.62,-176.75"/>
<text text-anchor="middle" x="1659" y="-163.25" font-family="Helvetica,sans-Serif" font-size="10.00">nix::CmdPathInfo</text>
</a>
</g>
</g>
<!-- Node39&#45;&gt;Node42 -->
<g id="edge44_Node000039_Node000042" class="edge">
<title>Node39&#45;&gt;Node42</title>
<g id="a_edge44_Node000039_Node000042"><a xlink:title=" ">
<path fill="none" stroke="#63b8ff" d="M1547.43,-166.38C1568.31,-166.38 1590.18,-166.38 1608.91,-166.38"/>
<polygon fill="#63b8ff" stroke="#63b8ff" points="1547.47,-162.88 1537.47,-166.38 1547.47,-169.88 1547.47,-162.88"/>
</a>
</g>
</g>
<!-- Node43 -->
<g id="Node000043" class="node">
<title>Node43</title>
<g id="a_Node000043"><a xlink:href="structnix_1_1CmdSign.html" target="_top" xlink:title=" ">
<polygon fill="white" stroke="#bfbfbf" points="1699.25,-137.75 1618.75,-137.75 1618.75,-117 1699.25,-117 1699.25,-137.75"/>
<text text-anchor="middle" x="1659" y="-124.25" font-family="Helvetica,sans-Serif" font-size="10.00">nix::CmdSign</text>
</a>
</g>
</g>
<!-- Node39&#45;&gt;Node43 -->
<g id="edge45_Node000039_Node000043" class="edge">
<title>Node39&#45;&gt;Node43</title>
<g id="a_edge45_Node000039_Node000043"><a xlink:title=" ">
<path fill="none" stroke="#63b8ff" d="M1531.43,-153.22C1560.25,-147.33 1593.3,-140.59 1618.41,-135.46"/>
<polygon fill="#63b8ff" stroke="#63b8ff" points="1530.78,-149.78 1521.69,-155.21 1532.19,-156.64 1530.78,-149.78"/>
</a>
</g>
</g>
<!-- Node44 -->
<g id="Node000044" class="node">
<title>Node44</title>
<g id="a_Node000044"><a xlink:href="structnix_1_1CmdStoreDelete.html" target="_top" xlink:title=" ">
<polygon fill="white" stroke="#bfbfbf" points="1717.62,-98.75 1600.38,-98.75 1600.38,-78 1717.62,-78 1717.62,-98.75"/>
<text text-anchor="middle" x="1659" y="-85.25" font-family="Helvetica,sans-Serif" font-size="10.00">nix::CmdStoreDelete</text>
</a>
</g>
</g>
<!-- Node39&#45;&gt;Node44 -->
<g id="edge46_Node000039_Node000044" class="edge">
<title>Node39&#45;&gt;Node44</title>
<g id="a_edge46_Node000039_Node000044"><a xlink:title=" ">
<path fill="none" stroke="#63b8ff" d="M1492.52,-149.55C1513.09,-136.65 1543.17,-119.27 1571.5,-108.38 1580.85,-104.78 1591.03,-101.72 1601.01,-99.16"/>
<polygon fill="#63b8ff" stroke="#63b8ff" points="1490.78,-146.5 1484.23,-154.83 1494.55,-152.41 1490.78,-146.5"/>
</a>
</g>
</g>
</g>
</svg>
