<?xml version="1.0" encoding="UTF-8" standalone="no"?>
<!DOCTYPE svg PUBLIC "-//W3C//DTD SVG 1.1//EN"
 "http://www.w3.org/Graphics/SVG/1.1/DTD/svg11.dtd">
<!-- Generated by graphviz version 12.2.1 (0)
 -->
<!-- Title: nix::curlFileTransfer::DecompressionWrapper Pages: 1 -->
<svg width="232pt" height="137pt"
 viewBox="0.00 0.00 231.62 136.50" xmlns="http://www.w3.org/2000/svg" xmlns:xlink="http://www.w3.org/1999/xlink">
<g id="graph0" class="graph" transform="scale(1 1) rotate(0) translate(4 132.5)">
<title>nix::curlFileTransfer::DecompressionWrapper</title>
<!-- Node1 -->
<g id="Node000001" class="node">
<title>Node1</title>
<g id="a_Node000001"><a xlink:title=" ">
<polygon fill="#999999" stroke="#666666" points="164.5,-33.5 25.5,-33.5 25.5,0 164.5,0 164.5,-33.5"/>
<text text-anchor="start" x="33.5" y="-20" font-family="Helvetica,sans-Serif" font-size="10.00">nix::curlFileTransfer</text>
<text text-anchor="middle" x="95" y="-7.25" font-family="Helvetica,sans-Serif" font-size="10.00">::DecompressionWrapper</text>
</a>
</g>
</g>
<!-- Node2 -->
<g id="Node000002" class="node">
<title>Node2</title>
<g id="a_Node000002"><a xlink:href="structnix_1_1Source.html" target="_top" xlink:title=" ">
<polygon fill="white" stroke="#666666" points="70,-115.75 0,-115.75 0,-95 70,-95 70,-115.75"/>
<text text-anchor="middle" x="35" y="-102.25" font-family="Helvetica,sans-Serif" font-size="10.00">nix::Source</text>
</a>
</g>
</g>
<!-- Node2&#45;&gt;Node1 -->
<g id="edge1_Node000001_Node000002" class="edge">
<title>Node2&#45;&gt;Node1</title>
<g id="a_edge1_Node000001_Node000002"><a xlink:title=" ">
<path fill="none" stroke="#63b8ff" d="M47.96,-85.67C58.65,-70.23 73.67,-48.55 83.83,-33.87"/>
<polygon fill="#63b8ff" stroke="#63b8ff" points="45.33,-83.32 42.51,-93.53 51.08,-87.3 45.33,-83.32"/>
</a>
</g>
</g>
<!-- Node3 -->
<g id="Node000003" class="node">
<title>Node3</title>
<g id="a_Node000003"><a xlink:href="classnix_1_1box__ptr.html" target="_top" xlink:title=" ">
<polygon fill="white" stroke="#666666" points="223.62,-128.5 88.38,-128.5 88.38,-82.25 223.62,-82.25 223.62,-128.5"/>
<text text-anchor="start" x="96.38" y="-115" font-family="Helvetica,sans-Serif" font-size="10.00">nix::box_ptr&lt; nix::</text>
<text text-anchor="start" x="96.38" y="-102.25" font-family="Helvetica,sans-Serif" font-size="10.00">curlFileTransfer::Transfer</text>
<text text-anchor="middle" x="156" y="-89.5" font-family="Helvetica,sans-Serif" font-size="10.00">Source &gt;</text>
</a>
</g>
</g>
<!-- Node3&#45;&gt;Node1 -->
<g id="edge2_Node000001_Node000003" class="edge">
<title>Node3&#45;&gt;Node1</title>
<g id="a_edge2_Node000001_Node000003"><a xlink:title=" ">
<path fill="none" stroke="#9a32cd" stroke-dasharray="5,2" d="M133.78,-72.82C124.5,-59.64 114.11,-44.88 106.42,-33.96"/>
<polygon fill="#9a32cd" stroke="#9a32cd" points="130.8,-74.67 139.42,-80.83 136.52,-70.64 130.8,-74.67"/>
</a>
</g>
<text text-anchor="middle" x="149.83" y="-54.75" font-family="Helvetica,sans-Serif" font-size="10.00" fill="grey"> wrapped</text>
</g>
</g>
</svg>
