<?xml version="1.0" encoding="UTF-8" standalone="no"?>
<!DOCTYPE svg PUBLIC "-//W3C//DTD SVG 1.1//EN"
 "http://www.w3.org/Graphics/SVG/1.1/DTD/svg11.dtd">
<!-- Generated by graphviz version 12.2.1 (0)
 -->
<!-- Title: nix::BufferedSource Pages: 1 -->
<svg width="256pt" height="142pt"
 viewBox="0.00 0.00 255.62 142.25" xmlns="http://www.w3.org/2000/svg" xmlns:xlink="http://www.w3.org/1999/xlink">
<g id="graph0" class="graph" transform="scale(1 1) rotate(0) translate(4 138.25)">
<title>nix::BufferedSource</title>
<!-- Node1 -->
<g id="Node000001" class="node">
<title>Node1</title>
<g id="a_Node000001"><a xlink:title=" ">
<polygon fill="#999999" stroke="#666666" points="162.62,-77.5 51.38,-77.5 51.38,-56.75 162.62,-56.75 162.62,-77.5"/>
<text text-anchor="middle" x="107" y="-64" font-family="Helvetica,sans-Serif" font-size="10.00">nix::BufferedSource</text>
</a>
</g>
</g>
<!-- Node3 -->
<g id="Node000003" class="node">
<title>Node3</title>
<g id="a_Node000003"><a xlink:href="structnix_1_1FdSource.html" target="_top" xlink:title=" ">
<polygon fill="white" stroke="#666666" points="82,-20.75 0,-20.75 0,0 82,0 82,-20.75"/>
<text text-anchor="middle" x="41" y="-7.25" font-family="Helvetica,sans-Serif" font-size="10.00">nix::FdSource</text>
</a>
</g>
</g>
<!-- Node1&#45;&gt;Node3 -->
<g id="edge2_Node000001_Node000003" class="edge">
<title>Node1&#45;&gt;Node3</title>
<g id="a_edge2_Node000001_Node000003"><a xlink:title=" ">
<path fill="none" stroke="#63b8ff" d="M86.52,-49.14C75.4,-39.91 62.05,-28.84 52.7,-21.08"/>
<polygon fill="#63b8ff" stroke="#63b8ff" points="84.1,-51.68 94.04,-55.37 88.57,-46.29 84.1,-51.68"/>
</a>
</g>
</g>
<!-- Node4 -->
<g id="Node000004" class="node">
<title>Node4</title>
<g id="a_Node000004"><a xlink:href="structnix_1_1daemon_1_1TunnelSource.html" target="_top" xlink:title=" ">
<polygon fill="white" stroke="#bfbfbf" points="247.62,-20.75 100.38,-20.75 100.38,0 247.62,0 247.62,-20.75"/>
<text text-anchor="middle" x="174" y="-7.25" font-family="Helvetica,sans-Serif" font-size="10.00">nix::daemon::TunnelSource</text>
</a>
</g>
</g>
<!-- Node1&#45;&gt;Node4 -->
<g id="edge3_Node000001_Node000004" class="edge">
<title>Node1&#45;&gt;Node4</title>
<g id="a_edge3_Node000001_Node000004"><a xlink:title=" ">
<path fill="none" stroke="#63b8ff" d="M127.79,-49.14C139.08,-39.91 152.63,-28.84 162.13,-21.08"/>
<polygon fill="#63b8ff" stroke="#63b8ff" points="125.68,-46.34 120.15,-55.38 130.11,-51.76 125.68,-46.34"/>
</a>
</g>
</g>
<!-- Node2 -->
<g id="Node000002" class="node">
<title>Node2</title>
<g id="a_Node000002"><a xlink:href="structnix_1_1Source.html" target="_top" xlink:title=" ">
<polygon fill="white" stroke="#666666" points="142,-134.25 72,-134.25 72,-113.5 142,-113.5 142,-134.25"/>
<text text-anchor="middle" x="107" y="-120.75" font-family="Helvetica,sans-Serif" font-size="10.00">nix::Source</text>
</a>
</g>
</g>
<!-- Node2&#45;&gt;Node1 -->
<g id="edge1_Node000001_Node000002" class="edge">
<title>Node2&#45;&gt;Node1</title>
<g id="a_edge1_Node000001_Node000002"><a xlink:title=" ">
<path fill="none" stroke="#63b8ff" d="M107,-101.63C107,-93.41 107,-84.43 107,-77.83"/>
<polygon fill="#63b8ff" stroke="#63b8ff" points="103.5,-101.57 107,-111.57 110.5,-101.57 103.5,-101.57"/>
</a>
</g>
</g>
</g>
</svg>
