<?xml version="1.0" encoding="UTF-8" standalone="no"?>
<!DOCTYPE svg PUBLIC "-//W3C//DTD SVG 1.1//EN"
 "http://www.w3.org/Graphics/SVG/1.1/DTD/svg11.dtd">
<!-- Generated by graphviz version 12.2.1 (0)
 -->
<!-- Title: nix::CmdKeyConvertSecretToPublic Pages: 1 -->
<svg width="155pt" height="155pt"
 viewBox="0.00 0.00 154.50 155.00" xmlns="http://www.w3.org/2000/svg" xmlns:xlink="http://www.w3.org/1999/xlink">
<g id="graph0" class="graph" transform="scale(1 1) rotate(0) translate(4 151)">
<title>nix::CmdKeyConvertSecretToPublic</title>
<!-- Node1 -->
<g id="Node000001" class="node">
<title>Node1</title>
<g id="a_Node000001"><a xlink:title=" ">
<polygon fill="#999999" stroke="#666666" points="146.5,-33.5 0,-33.5 0,0 146.5,0 146.5,-33.5"/>
<text text-anchor="start" x="8" y="-20" font-family="Helvetica,sans-Serif" font-size="10.00">nix::CmdKeyConvertSecret</text>
<text text-anchor="middle" x="73.25" y="-7.25" font-family="Helvetica,sans-Serif" font-size="10.00">ToPublic</text>
</a>
</g>
</g>
<!-- Node2 -->
<g id="Node000002" class="node">
<title>Node2</title>
<g id="a_Node000002"><a xlink:href="structnix_1_1Command.html" target="_top" xlink:title=" ">
<polygon fill="white" stroke="#666666" points="116.88,-90.25 29.62,-90.25 29.62,-69.5 116.88,-69.5 116.88,-90.25"/>
<text text-anchor="middle" x="73.25" y="-76.75" font-family="Helvetica,sans-Serif" font-size="10.00">nix::Command</text>
</a>
</g>
</g>
<!-- Node2&#45;&gt;Node1 -->
<g id="edge1_Node000001_Node000002" class="edge">
<title>Node2&#45;&gt;Node1</title>
<g id="a_edge1_Node000001_Node000002"><a xlink:title=" ">
<path fill="none" stroke="#63b8ff" d="M73.25,-57.59C73.25,-49.85 73.25,-41.22 73.25,-33.98"/>
<polygon fill="#63b8ff" stroke="#63b8ff" points="69.75,-57.54 73.25,-67.54 76.75,-57.54 69.75,-57.54"/>
</a>
</g>
</g>
<!-- Node3 -->
<g id="Node000003" class="node">
<title>Node3</title>
<g id="a_Node000003"><a xlink:href="classnix_1_1Args.html" target="_top" xlink:title=" ">
<polygon fill="white" stroke="#bfbfbf" points="102.62,-147 43.88,-147 43.88,-126.25 102.62,-126.25 102.62,-147"/>
<text text-anchor="middle" x="73.25" y="-133.5" font-family="Helvetica,sans-Serif" font-size="10.00">nix::Args</text>
</a>
</g>
</g>
<!-- Node3&#45;&gt;Node2 -->
<g id="edge2_Node000002_Node000003" class="edge">
<title>Node3&#45;&gt;Node2</title>
<g id="a_edge2_Node000002_Node000003"><a xlink:title=" ">
<path fill="none" stroke="#63b8ff" d="M73.25,-114.38C73.25,-106.16 73.25,-97.18 73.25,-90.58"/>
<polygon fill="#63b8ff" stroke="#63b8ff" points="69.75,-114.32 73.25,-124.32 76.75,-114.32 69.75,-114.32"/>
</a>
</g>
</g>
</g>
</svg>
