<?xml version="1.0" encoding="UTF-8" standalone="no"?>
<!DOCTYPE svg PUBLIC "-//W3C//DTD SVG 1.1//EN"
 "http://www.w3.org/Graphics/SVG/1.1/DTD/svg11.dtd">
<!-- Generated by graphviz version 12.2.1 (0)
 -->
<!-- Title: nix::NARParseVisitor Pages: 1 -->
<svg width="310pt" height="98pt"
 viewBox="0.00 0.00 310.00 98.25" xmlns="http://www.w3.org/2000/svg" xmlns:xlink="http://www.w3.org/1999/xlink">
<g id="graph0" class="graph" transform="scale(1 1) rotate(0) translate(4 94.25)">
<title>nix::NARParseVisitor</title>
<!-- Node1 -->
<g id="Node000001" class="node">
<title>Node1</title>
<g id="a_Node000001"><a xlink:title=" ">
<polygon fill="#999999" stroke="#666666" points="201.38,-90.25 85.62,-90.25 85.62,-69.5 201.38,-69.5 201.38,-90.25"/>
<text text-anchor="middle" x="143.5" y="-76.75" font-family="Helvetica,sans-Serif" font-size="10.00">nix::NARParseVisitor</text>
</a>
</g>
</g>
<!-- Node2 -->
<g id="Node000002" class="node">
<title>Node2</title>
<g id="a_Node000002"><a xlink:href="structnix_1_1NARRestoreVisitor.html" target="_top" xlink:title=" ">
<polygon fill="white" stroke="#666666" points="127,-27.12 0,-27.12 0,-6.38 127,-6.38 127,-27.12"/>
<text text-anchor="middle" x="63.5" y="-13.62" font-family="Helvetica,sans-Serif" font-size="10.00">nix::NARRestoreVisitor</text>
</a>
</g>
</g>
<!-- Node1&#45;&gt;Node2 -->
<g id="edge1_Node000001_Node000002" class="edge">
<title>Node1&#45;&gt;Node2</title>
<g id="a_edge1_Node000001_Node000002"><a xlink:title=" ">
<path fill="none" stroke="#63b8ff" d="M121.78,-62.28C107.23,-51.16 88.56,-36.89 76.32,-27.55"/>
<polygon fill="#63b8ff" stroke="#63b8ff" points="119.37,-64.85 129.44,-68.14 123.62,-59.28 119.37,-64.85"/>
</a>
</g>
</g>
<!-- Node3 -->
<g id="Node000003" class="node">
<title>Node3</title>
<g id="a_Node000003"><a xlink:href="structnix_1_1parseAsync_1_1ReconstructVisitor.html" target="_top" xlink:title=" ">
<polygon fill="white" stroke="#bfbfbf" points="302,-33.5 145,-33.5 145,0 302,0 302,-33.5"/>
<text text-anchor="start" x="153" y="-20" font-family="Helvetica,sans-Serif" font-size="10.00">nix::parseAsync::Reconstruct</text>
<text text-anchor="middle" x="223.5" y="-7.25" font-family="Helvetica,sans-Serif" font-size="10.00">Visitor</text>
</a>
</g>
</g>
<!-- Node1&#45;&gt;Node3 -->
<g id="edge2_Node000001_Node000003" class="edge">
<title>Node1&#45;&gt;Node3</title>
<g id="a_edge2_Node000001_Node000003"><a xlink:title=" ">
<path fill="none" stroke="#63b8ff" d="M165.3,-62.22C176.79,-53.44 190.84,-42.71 202.25,-33.98"/>
<polygon fill="#63b8ff" stroke="#63b8ff" points="163.38,-59.28 157.56,-68.14 167.63,-64.85 163.38,-59.28"/>
</a>
</g>
</g>
</g>
</svg>
