<?xml version="1.0" encoding="UTF-8" standalone="no"?>
<!DOCTYPE svg PUBLIC "-//W3C//DTD SVG 1.1//EN"
 "http://www.w3.org/Graphics/SVG/1.1/DTD/svg11.dtd">
<!-- Generated by graphviz version 12.2.1 (0)
 -->
<!-- Title: nix::CmdFlakeNew Pages: 1 -->
<svg width="303pt" height="313pt"
 viewBox="0.00 0.00 303.12 312.50" xmlns="http://www.w3.org/2000/svg" xmlns:xlink="http://www.w3.org/1999/xlink">
<g id="graph0" class="graph" transform="scale(1 1) rotate(0) translate(4 308.5)">
<title>nix::CmdFlakeNew</title>
<!-- Node1 -->
<g id="Node000001" class="node">
<title>Node1</title>
<g id="a_Node000001"><a xlink:title=" ">
<polygon fill="#999999" stroke="#666666" points="126.62,-20.75 19.12,-20.75 19.12,0 126.62,0 126.62,-20.75"/>
<text text-anchor="middle" x="72.88" y="-7.25" font-family="Helvetica,sans-Serif" font-size="10.00">nix::CmdFlakeNew</text>
</a>
</g>
</g>
<!-- Node2 -->
<g id="Node000002" class="node">
<title>Node2</title>
<g id="a_Node000002"><a xlink:href="structnix_1_1CmdFlakeInitCommon.html" target="_top" xlink:title=" ">
<polygon fill="white" stroke="#bfbfbf" points="145.75,-77.5 0,-77.5 0,-56.75 145.75,-56.75 145.75,-77.5"/>
<text text-anchor="middle" x="72.88" y="-64" font-family="Helvetica,sans-Serif" font-size="10.00">nix::CmdFlakeInitCommon</text>
</a>
</g>
</g>
<!-- Node2&#45;&gt;Node1 -->
<g id="edge1_Node000001_Node000002" class="edge">
<title>Node2&#45;&gt;Node1</title>
<g id="a_edge1_Node000001_Node000002"><a xlink:title=" ">
<path fill="none" stroke="#63b8ff" d="M72.88,-44.88C72.88,-36.66 72.88,-27.68 72.88,-21.08"/>
<polygon fill="#63b8ff" stroke="#63b8ff" points="69.38,-44.82 72.88,-54.82 76.38,-44.82 69.38,-44.82"/>
</a>
</g>
</g>
<!-- Node3 -->
<g id="Node000003" class="node">
<title>Node3</title>
<g id="a_Node000003"><a xlink:href="classnix_1_1Args.html" target="_top" xlink:title=" ">
<polygon fill="white" stroke="#bfbfbf" points="174.25,-304.5 115.5,-304.5 115.5,-283.75 174.25,-283.75 174.25,-304.5"/>
<text text-anchor="middle" x="144.88" y="-291" font-family="Helvetica,sans-Serif" font-size="10.00">nix::Args</text>
</a>
</g>
</g>
<!-- Node3&#45;&gt;Node2 -->
<g id="edge2_Node000002_Node000003" class="edge">
<title>Node3&#45;&gt;Node2</title>
<g id="a_edge2_Node000002_Node000003"><a xlink:title=" ">
<path fill="none" stroke="#63b8ff" d="M104.33,-282.12C86.59,-275.19 67.27,-264.32 55.88,-247.75 22.06,-198.56 38.01,-171.56 51.88,-113.5 54.98,-100.5 61.95,-86.72 67.01,-77.8"/>
<polygon fill="#63b8ff" stroke="#63b8ff" points="103.07,-285.38 113.66,-285.44 105.41,-278.79 103.07,-285.38"/>
</a>
</g>
</g>
<!-- Node6 -->
<g id="Node000006" class="node">
<title>Node6</title>
<g id="a_Node000006"><a xlink:href="structnix_1_1Command.html" target="_top" xlink:title=" ">
<polygon fill="white" stroke="#666666" points="152.5,-247.75 65.25,-247.75 65.25,-227 152.5,-227 152.5,-247.75"/>
<text text-anchor="middle" x="108.88" y="-234.25" font-family="Helvetica,sans-Serif" font-size="10.00">nix::Command</text>
</a>
</g>
</g>
<!-- Node3&#45;&gt;Node6 -->
<g id="edge6_Node000006_Node000003" class="edge">
<title>Node3&#45;&gt;Node6</title>
<g id="a_edge6_Node000006_Node000003"><a xlink:title=" ">
<path fill="none" stroke="#63b8ff" d="M132.23,-273.89C126.49,-265.16 119.95,-255.22 115.26,-248.08"/>
<polygon fill="#63b8ff" stroke="#63b8ff" points="129.19,-275.64 137.61,-282.07 135.04,-271.79 129.19,-275.64"/>
</a>
</g>
</g>
<!-- Node7 -->
<g id="Node000007" class="node">
<title>Node7</title>
<g id="a_Node000007"><a xlink:href="structnix_1_1MixEvalArgs.html" target="_top" xlink:title=" ">
<polygon fill="white" stroke="#bfbfbf" points="286.75,-191 189,-191 189,-170.25 286.75,-170.25 286.75,-191"/>
<text text-anchor="middle" x="237.88" y="-177.5" font-family="Helvetica,sans-Serif" font-size="10.00">nix::MixEvalArgs</text>
</a>
</g>
</g>
<!-- Node3&#45;&gt;Node7 -->
<g id="edge8_Node000007_Node000003" class="edge">
<title>Node3&#45;&gt;Node7</title>
<g id="a_edge8_Node000007_Node000003"><a xlink:title=" ">
<path fill="none" stroke="#63b8ff" d="M160.26,-274.59C171.28,-261.33 186.48,-243.05 199.88,-227 210.15,-214.69 222.01,-200.54 229.71,-191.35"/>
<polygon fill="#63b8ff" stroke="#63b8ff" points="157.73,-272.16 154.03,-282.09 163.11,-276.64 157.73,-272.16"/>
</a>
</g>
</g>
<!-- Node8 -->
<g id="Node000008" class="node">
<title>Node8</title>
<g id="a_Node000008"><a xlink:href="structnix_1_1MixRepair.html" target="_top" xlink:title=" ">
<polygon fill="white" stroke="#bfbfbf" points="295.12,-247.75 208.62,-247.75 208.62,-227 295.12,-227 295.12,-247.75"/>
<text text-anchor="middle" x="251.88" y="-234.25" font-family="Helvetica,sans-Serif" font-size="10.00">nix::MixRepair</text>
</a>
</g>
</g>
<!-- Node3&#45;&gt;Node8 -->
<g id="edge10_Node000008_Node000003" class="edge">
<title>Node3&#45;&gt;Node8</title>
<g id="a_edge10_Node000008_Node000003"><a xlink:title=" ">
<path fill="none" stroke="#63b8ff" d="M174.09,-278.18C192.82,-268.59 216.6,-256.42 232.91,-248.08"/>
<polygon fill="#63b8ff" stroke="#63b8ff" points="172.66,-274.98 165.35,-282.65 175.85,-281.21 172.66,-274.98"/>
</a>
</g>
</g>
<!-- Node4 -->
<g id="Node000004" class="node">
<title>Node4</title>
<g id="a_Node000004"><a xlink:href="structnix_1_1EvalCommand.html" target="_top" xlink:title=" ">
<polygon fill="white" stroke="#666666" points="169,-134.25 60.75,-134.25 60.75,-113.5 169,-113.5 169,-134.25"/>
<text text-anchor="middle" x="114.88" y="-120.75" font-family="Helvetica,sans-Serif" font-size="10.00">nix::EvalCommand</text>
</a>
</g>
</g>
<!-- Node4&#45;&gt;Node2 -->
<g id="edge3_Node000002_Node000004" class="edge">
<title>Node4&#45;&gt;Node2</title>
<g id="a_edge3_Node000002_Node000004"><a xlink:title=" ">
<path fill="none" stroke="#63b8ff" d="M100.55,-104.21C93.76,-95.34 85.92,-85.12 80.32,-77.83"/>
<polygon fill="#63b8ff" stroke="#63b8ff" points="97.58,-106.08 106.45,-111.89 103.14,-101.82 97.58,-106.08"/>
</a>
</g>
</g>
<!-- Node5 -->
<g id="Node000005" class="node">
<title>Node5</title>
<g id="a_Node000005"><a xlink:href="structnix_1_1StoreCommand.html" target="_top" xlink:title=" ">
<polygon fill="white" stroke="#666666" points="171.25,-191 58.5,-191 58.5,-170.25 171.25,-170.25 171.25,-191"/>
<text text-anchor="middle" x="114.88" y="-177.5" font-family="Helvetica,sans-Serif" font-size="10.00">nix::StoreCommand</text>
</a>
</g>
</g>
<!-- Node5&#45;&gt;Node4 -->
<g id="edge4_Node000004_Node000005" class="edge">
<title>Node5&#45;&gt;Node4</title>
<g id="a_edge4_Node000004_Node000005"><a xlink:title=" ">
<path fill="none" stroke="#63b8ff" d="M114.88,-158.38C114.88,-150.16 114.88,-141.18 114.88,-134.58"/>
<polygon fill="#63b8ff" stroke="#63b8ff" points="111.38,-158.32 114.88,-168.32 118.38,-158.32 111.38,-158.32"/>
</a>
</g>
</g>
<!-- Node6&#45;&gt;Node5 -->
<g id="edge5_Node000005_Node000006" class="edge">
<title>Node6&#45;&gt;Node5</title>
<g id="a_edge5_Node000005_Node000006"><a xlink:title=" ">
<path fill="none" stroke="#63b8ff" d="M111.17,-215.42C112.08,-207.13 113.08,-198 113.81,-191.33"/>
<polygon fill="#63b8ff" stroke="#63b8ff" points="107.72,-214.76 110.11,-225.08 114.68,-215.52 107.72,-214.76"/>
</a>
</g>
</g>
<!-- Node7&#45;&gt;Node4 -->
<g id="edge7_Node000004_Node000007" class="edge">
<title>Node7&#45;&gt;Node4</title>
<g id="a_edge7_Node000004_Node000007"><a xlink:title=" ">
<path fill="none" stroke="#63b8ff" d="M205.49,-165.21C183.78,-155.55 155.77,-143.08 136.67,-134.58"/>
<polygon fill="#63b8ff" stroke="#63b8ff" points="203.94,-168.35 214.5,-169.22 206.79,-161.96 203.94,-168.35"/>
</a>
</g>
</g>
<!-- Node8&#45;&gt;Node7 -->
<g id="edge9_Node000007_Node000008" class="edge">
<title>Node8&#45;&gt;Node7</title>
<g id="a_edge9_Node000007_Node000008"><a xlink:title=" ">
<path fill="none" stroke="#63b8ff" d="M246.59,-215.71C244.45,-207.34 242.08,-198.08 240.36,-191.33"/>
<polygon fill="#63b8ff" stroke="#63b8ff" points="243.13,-216.3 249,-225.12 249.91,-214.57 243.13,-216.3"/>
</a>
</g>
</g>
</g>
</svg>
