<?xml version="1.0" encoding="UTF-8" standalone="no"?>
<!DOCTYPE svg PUBLIC "-//W3C//DTD SVG 1.1//EN"
 "http://www.w3.org/Graphics/SVG/1.1/DTD/svg11.dtd">
<!-- Generated by graphviz version 12.2.1 (0)
 -->
<!-- Title: nix::MixCat Pages: 1 -->
<svg width="220pt" height="142pt"
 viewBox="0.00 0.00 220.38 142.25" xmlns="http://www.w3.org/2000/svg" xmlns:xlink="http://www.w3.org/1999/xlink">
<g id="graph0" class="graph" transform="scale(1 1) rotate(0) translate(4 138.25)">
<title>nix::MixCat</title>
<!-- Node1 -->
<g id="Node000001" class="node">
<title>Node1</title>
<g id="a_Node000001"><a xlink:title=" ">
<polygon fill="#999999" stroke="#666666" points="139.38,-77.5 67.88,-77.5 67.88,-56.75 139.38,-56.75 139.38,-77.5"/>
<text text-anchor="middle" x="103.62" y="-64" font-family="Helvetica,sans-Serif" font-size="10.00">nix::MixCat</text>
</a>
</g>
</g>
<!-- Node3 -->
<g id="Node000003" class="node">
<title>Node3</title>
<g id="a_Node000003"><a xlink:href="structnix_1_1CmdCatNar.html" target="_top" xlink:title=" ">
<polygon fill="white" stroke="#bfbfbf" points="93.25,-20.75 0,-20.75 0,0 93.25,0 93.25,-20.75"/>
<text text-anchor="middle" x="46.62" y="-7.25" font-family="Helvetica,sans-Serif" font-size="10.00">nix::CmdCatNar</text>
</a>
</g>
</g>
<!-- Node1&#45;&gt;Node3 -->
<g id="edge2_Node000001_Node000003" class="edge">
<title>Node1&#45;&gt;Node3</title>
<g id="a_edge2_Node000001_Node000003"><a xlink:title=" ">
<path fill="none" stroke="#63b8ff" d="M85.36,-48.58C75.87,-39.47 64.65,-28.68 56.73,-21.08"/>
<polygon fill="#63b8ff" stroke="#63b8ff" points="82.71,-50.89 92.34,-55.29 87.56,-45.84 82.71,-50.89"/>
</a>
</g>
</g>
<!-- Node4 -->
<g id="Node000004" class="node">
<title>Node4</title>
<g id="a_Node000004"><a xlink:href="structnix_1_1CmdCatStore.html" target="_top" xlink:title=" ">
<polygon fill="white" stroke="#bfbfbf" points="212.38,-20.75 110.88,-20.75 110.88,0 212.38,0 212.38,-20.75"/>
<text text-anchor="middle" x="161.62" y="-7.25" font-family="Helvetica,sans-Serif" font-size="10.00">nix::CmdCatStore</text>
</a>
</g>
</g>
<!-- Node1&#45;&gt;Node4 -->
<g id="edge3_Node000001_Node000004" class="edge">
<title>Node1&#45;&gt;Node4</title>
<g id="a_edge3_Node000001_Node000004"><a xlink:title=" ">
<path fill="none" stroke="#63b8ff" d="M122.21,-48.58C131.86,-39.47 143.29,-28.68 151.35,-21.08"/>
<polygon fill="#63b8ff" stroke="#63b8ff" points="119.96,-45.89 115.09,-55.3 124.77,-50.98 119.96,-45.89"/>
</a>
</g>
</g>
<!-- Node2 -->
<g id="Node000002" class="node">
<title>Node2</title>
<g id="a_Node000002"><a xlink:href="classnix_1_1Args.html" target="_top" xlink:title=" ">
<polygon fill="white" stroke="#bfbfbf" points="133,-134.25 74.25,-134.25 74.25,-113.5 133,-113.5 133,-134.25"/>
<text text-anchor="middle" x="103.62" y="-120.75" font-family="Helvetica,sans-Serif" font-size="10.00">nix::Args</text>
</a>
</g>
</g>
<!-- Node2&#45;&gt;Node1 -->
<g id="edge1_Node000001_Node000002" class="edge">
<title>Node2&#45;&gt;Node1</title>
<g id="a_edge1_Node000001_Node000002"><a xlink:title=" ">
<path fill="none" stroke="#63b8ff" d="M103.62,-101.63C103.62,-93.41 103.62,-84.43 103.62,-77.83"/>
<polygon fill="#63b8ff" stroke="#63b8ff" points="100.13,-101.57 103.63,-111.57 107.13,-101.57 100.13,-101.57"/>
</a>
</g>
</g>
</g>
</svg>
