<?xml version="1.0" encoding="UTF-8" standalone="no"?>
<!DOCTYPE svg PUBLIC "-//W3C//DTD SVG 1.1//EN"
 "http://www.w3.org/Graphics/SVG/1.1/DTD/svg11.dtd">
<!-- Generated by graphviz version 12.2.1 (0)
 -->
<!-- Title: nix::CommonSSHStoreConfig Pages: 1 -->
<svg width="1005pt" height="359pt"
 viewBox="0.00 0.00 1004.50 359.12" xmlns="http://www.w3.org/2000/svg" xmlns:xlink="http://www.w3.org/1999/xlink">
<g id="graph0" class="graph" transform="scale(1 1) rotate(0) translate(4 355.12)">
<title>nix::CommonSSHStoreConfig</title>
<!-- Node1 -->
<g id="Node000001" class="node">
<title>Node1</title>
<g id="a_Node000001"><a xlink:title=" ">
<polygon fill="#999999" stroke="#666666" points="996.5,-129.12 839.5,-129.12 839.5,-108.38 996.5,-108.38 996.5,-129.12"/>
<text text-anchor="middle" x="918" y="-115.62" font-family="Helvetica,sans-Serif" font-size="10.00">nix::CommonSSHStoreConfig</text>
</a>
</g>
</g>
<!-- Node2 -->
<g id="Node000002" class="node">
<title>Node2</title>
<g id="a_Node000002"><a xlink:href="structnix_1_1StoreConfig.html" target="_top" xlink:title=" ">
<polygon fill="white" stroke="#bfbfbf" points="712,-220.12 618.75,-220.12 618.75,-199.38 712,-199.38 712,-220.12"/>
<text text-anchor="middle" x="665.38" y="-206.62" font-family="Helvetica,sans-Serif" font-size="10.00">nix::StoreConfig</text>
</a>
</g>
</g>
<!-- Node2&#45;&gt;Node1 -->
<g id="edge1_Node000001_Node000002" class="edge">
<title>Node2&#45;&gt;Node1</title>
<g id="a_edge1_Node000001_Node000002"><a xlink:title=" ">
<path fill="none" stroke="#63b8ff" d="M706.62,-195.14C757.08,-176.82 842.39,-145.84 887.3,-129.53"/>
<polygon fill="#63b8ff" stroke="#63b8ff" points="705.74,-191.73 697.53,-198.44 708.13,-198.31 705.74,-191.73"/>
</a>
</g>
</g>
<!-- Node3 -->
<g id="Node000003" class="node">
<title>Node3</title>
<g id="a_Node000003"><a xlink:href="classnix_1_1Config.html" target="_top" xlink:title=" ">
<polygon fill="white" stroke="#666666" points="413,-228.12 345.25,-228.12 345.25,-207.38 413,-207.38 413,-228.12"/>
<text text-anchor="middle" x="379.12" y="-214.62" font-family="Helvetica,sans-Serif" font-size="10.00">nix::Config</text>
</a>
</g>
</g>
<!-- Node3&#45;&gt;Node2 -->
<g id="edge2_Node000002_Node000003" class="edge">
<title>Node3&#45;&gt;Node2</title>
<g id="a_edge2_Node000002_Node000003"><a xlink:title=" ">
<path fill="none" stroke="#63b8ff" d="M424.63,-216.5C477.39,-215.01 564.85,-212.55 618.29,-211.05"/>
<polygon fill="#63b8ff" stroke="#63b8ff" points="424.7,-212.99 414.8,-216.77 424.9,-219.99 424.7,-212.99"/>
</a>
</g>
</g>
<!-- Node4 -->
<g id="Node000004" class="node">
<title>Node4</title>
<g id="a_Node000004"><a xlink:href="classnix_1_1AbstractConfig.html" target="_top" xlink:title=" ">
<polygon fill="white" stroke="#bfbfbf" points="265.12,-228.12 156.88,-228.12 156.88,-207.38 265.12,-207.38 265.12,-228.12"/>
<text text-anchor="middle" x="211" y="-214.62" font-family="Helvetica,sans-Serif" font-size="10.00">nix::AbstractConfig</text>
</a>
</g>
</g>
<!-- Node4&#45;&gt;Node3 -->
<g id="edge3_Node000003_Node000004" class="edge">
<title>Node4&#45;&gt;Node3</title>
<g id="a_edge3_Node000003_Node000004"><a xlink:title=" ">
<path fill="none" stroke="#63b8ff" d="M276.75,-217.75C300.13,-217.75 325.54,-217.75 345.07,-217.75"/>
<polygon fill="#63b8ff" stroke="#63b8ff" points="276.99,-214.25 266.99,-217.75 276.99,-221.25 276.99,-214.25"/>
</a>
</g>
</g>
<!-- Node5 -->
<g id="Node000005" class="node">
<title>Node5</title>
<g id="a_Node000005"><a xlink:href="classnix_1_1PathsSetting.html" target="_top" xlink:title=" ">
<polygon fill="white" stroke="#666666" points="432.12,-318.5 326.12,-318.5 326.12,-285 432.12,-285 432.12,-318.5"/>
<text text-anchor="start" x="334.12" y="-305" font-family="Helvetica,sans-Serif" font-size="10.00">nix::PathsSetting&lt;</text>
<text text-anchor="middle" x="379.12" y="-292.25" font-family="Helvetica,sans-Serif" font-size="10.00"> Path &gt;</text>
</a>
</g>
</g>
<!-- Node5&#45;&gt;Node2 -->
<g id="edge4_Node000002_Node000005" class="edge">
<title>Node5&#45;&gt;Node2</title>
<g id="a_edge4_Node000002_Node000005"><a xlink:title=" ">
<path fill="none" stroke="#9a32cd" stroke-dasharray="5,2" d="M443.56,-304.93C488.1,-304.71 547.96,-299.34 595.5,-276.75 622.62,-263.86 645.65,-235.97 656.94,-220.55"/>
<polygon fill="#9a32cd" stroke="#9a32cd" points="443.82,-301.43 433.81,-304.89 443.79,-308.43 443.82,-301.43"/>
</a>
</g>
<text text-anchor="middle" x="530.88" y="-307.38" font-family="Helvetica,sans-Serif" font-size="10.00" fill="grey"> storeDir_</text>
</g>
<!-- Node6 -->
<g id="Node000006" class="node">
<title>Node6</title>
<g id="a_Node000006"><a xlink:href="classnix_1_1BaseSetting.html" target="_top" xlink:title=" ">
<polygon fill="white" stroke="#666666" points="273,-312.12 149,-312.12 149,-291.38 273,-291.38 273,-312.12"/>
<text text-anchor="middle" x="211" y="-298.62" font-family="Helvetica,sans-Serif" font-size="10.00">nix::BaseSetting&lt; T &gt;</text>
</a>
</g>
</g>
<!-- Node6&#45;&gt;Node5 -->
<g id="edge5_Node000005_Node000006" class="edge">
<title>Node6&#45;&gt;Node5</title>
<g id="a_edge5_Node000005_Node000006"><a xlink:title=" ">
<path fill="none" stroke="#63b8ff" d="M284.83,-301.75C298.59,-301.75 312.74,-301.75 325.72,-301.75"/>
<polygon fill="#63b8ff" stroke="#63b8ff" points="284.9,-298.25 274.9,-301.75 284.9,-305.25 284.9,-298.25"/>
</a>
</g>
</g>
<!-- Node16 -->
<g id="Node000016" class="node">
<title>Node16</title>
<g id="a_Node000016"><a xlink:href="classnix_1_1Setting.html" target="_top" xlink:title=" ">
<polygon fill="white" stroke="#bfbfbf" points="588.38,-351.12 473.38,-351.12 473.38,-330.38 588.38,-330.38 588.38,-351.12"/>
<text text-anchor="middle" x="530.88" y="-337.62" font-family="Helvetica,sans-Serif" font-size="10.00">nix::Setting&lt; Path &gt;</text>
</a>
</g>
</g>
<!-- Node6&#45;&gt;Node16 -->
<g id="edge20_Node000016_Node000006" class="edge">
<title>Node6&#45;&gt;Node16</title>
<g id="a_edge20_Node000016_Node000006"><a xlink:title=" ">
<path fill="none" stroke="#63b8ff" d="M257.09,-315.74C273.58,-320.31 292.49,-324.94 310,-327.75 364.93,-336.57 428.45,-339.56 473.05,-340.5"/>
<polygon fill="#63b8ff" stroke="#63b8ff" points="258.14,-312.4 247.56,-313.02 256.22,-319.13 258.14,-312.4"/>
</a>
</g>
</g>
<!-- Node7 -->
<g id="Node000007" class="node">
<title>Node7</title>
<g id="a_Node000007"><a xlink:href="classnix_1_1AbstractSetting.html" target="_top" xlink:title=" ">
<polygon fill="white" stroke="#bfbfbf" points="112,-165.12 0,-165.12 0,-144.38 112,-144.38 112,-165.12"/>
<text text-anchor="middle" x="56" y="-151.62" font-family="Helvetica,sans-Serif" font-size="10.00">nix::AbstractSetting</text>
</a>
</g>
</g>
<!-- Node7&#45;&gt;Node6 -->
<g id="edge6_Node000006_Node000007" class="edge">
<title>Node7&#45;&gt;Node6</title>
<g id="a_edge6_Node000006_Node000007"><a xlink:title=" ">
<path fill="none" stroke="#63b8ff" d="M68.11,-175.34C83.28,-201.76 112.77,-247.53 149,-275.75 156.99,-281.98 166.7,-286.99 175.99,-290.9"/>
<polygon fill="#63b8ff" stroke="#63b8ff" points="71.35,-173.97 63.42,-166.94 65.24,-177.38 71.35,-173.97"/>
</a>
</g>
</g>
<!-- Node9 -->
<g id="Node000009" class="node">
<title>Node9</title>
<g id="a_Node000009"><a xlink:href="classnix_1_1BaseSetting.html" target="_top" xlink:title=" ">
<polygon fill="white" stroke="#666666" points="273,-267.12 149,-267.12 149,-246.38 273,-246.38 273,-267.12"/>
<text text-anchor="middle" x="211" y="-253.62" font-family="Helvetica,sans-Serif" font-size="10.00">nix::BaseSetting&lt; T &gt;</text>
</a>
</g>
</g>
<!-- Node7&#45;&gt;Node9 -->
<g id="edge9_Node000009_Node000007" class="edge">
<title>Node7&#45;&gt;Node9</title>
<g id="a_edge9_Node000009_Node000007"><a xlink:title=" ">
<path fill="none" stroke="#63b8ff" d="M74.16,-174.09C91.43,-192.51 119.66,-219.85 149,-236.75 155.18,-240.31 162.08,-243.34 168.96,-245.88"/>
<polygon fill="#63b8ff" stroke="#63b8ff" points="76.75,-171.74 67.41,-166.73 71.59,-176.47 76.75,-171.74"/>
</a>
</g>
</g>
<!-- Node11 -->
<g id="Node000011" class="node">
<title>Node11</title>
<g id="a_Node000011"><a xlink:href="classnix_1_1BaseSetting.html" target="_top" xlink:title=" ">
<polygon fill="white" stroke="#666666" points="273,-150.12 149,-150.12 149,-129.38 273,-129.38 273,-150.12"/>
<text text-anchor="middle" x="211" y="-136.62" font-family="Helvetica,sans-Serif" font-size="10.00">nix::BaseSetting&lt; T &gt;</text>
</a>
</g>
</g>
<!-- Node7&#45;&gt;Node11 -->
<g id="edge12_Node000011_Node000007" class="edge">
<title>Node7&#45;&gt;Node11</title>
<g id="a_edge12_Node000011_Node000007"><a xlink:title=" ">
<path fill="none" stroke="#63b8ff" d="M123.49,-148.23C131.84,-147.41 140.35,-146.58 148.62,-145.77"/>
<polygon fill="#63b8ff" stroke="#63b8ff" points="123.35,-144.73 113.74,-149.19 124.04,-151.69 123.35,-144.73"/>
</a>
</g>
</g>
<!-- Node13 -->
<g id="Node000013" class="node">
<title>Node13</title>
<g id="a_Node000013"><a xlink:href="classnix_1_1BaseSetting.html" target="_top" xlink:title=" ">
<polygon fill="white" stroke="#666666" points="273,-189.12 149,-189.12 149,-168.38 273,-168.38 273,-189.12"/>
<text text-anchor="middle" x="211" y="-175.62" font-family="Helvetica,sans-Serif" font-size="10.00">nix::BaseSetting&lt; T &gt;</text>
</a>
</g>
</g>
<!-- Node7&#45;&gt;Node13 -->
<g id="edge15_Node000013_Node000007" class="edge">
<title>Node7&#45;&gt;Node13</title>
<g id="a_edge15_Node000013_Node000007"><a xlink:title=" ">
<path fill="none" stroke="#63b8ff" d="M123.49,-165.18C131.84,-166.49 140.35,-167.83 148.62,-169.12"/>
<polygon fill="#63b8ff" stroke="#63b8ff" points="124.15,-161.74 113.73,-163.65 123.07,-168.66 124.15,-161.74"/>
</a>
</g>
</g>
<!-- Node15 -->
<g id="Node000015" class="node">
<title>Node15</title>
<g id="a_Node000015"><a xlink:href="classnix_1_1BaseSetting.html" target="_top" xlink:title=" ">
<polygon fill="white" stroke="#666666" points="273,-108.12 149,-108.12 149,-87.38 273,-87.38 273,-108.12"/>
<text text-anchor="middle" x="211" y="-94.62" font-family="Helvetica,sans-Serif" font-size="10.00">nix::BaseSetting&lt; T &gt;</text>
</a>
</g>
</g>
<!-- Node7&#45;&gt;Node15 -->
<g id="edge18_Node000015_Node000007" class="edge">
<title>Node7&#45;&gt;Node15</title>
<g id="a_edge18_Node000015_Node000007"><a xlink:title=" ">
<path fill="none" stroke="#63b8ff" d="M96.91,-139.88C123.26,-130.06 157.18,-117.43 180.97,-108.57"/>
<polygon fill="#63b8ff" stroke="#63b8ff" points="95.71,-136.6 87.56,-143.37 98.15,-143.15 95.71,-136.6"/>
</a>
</g>
</g>
<!-- Node18 -->
<g id="Node000018" class="node">
<title>Node18</title>
<g id="a_Node000018"><a xlink:href="classnix_1_1BaseSetting.html" target="_top" xlink:title=" ">
<polygon fill="white" stroke="#666666" points="273,-63.12 149,-63.12 149,-42.38 273,-42.38 273,-63.12"/>
<text text-anchor="middle" x="211" y="-49.62" font-family="Helvetica,sans-Serif" font-size="10.00">nix::BaseSetting&lt; T &gt;</text>
</a>
</g>
</g>
<!-- Node7&#45;&gt;Node18 -->
<g id="edge23_Node000018_Node000007" class="edge">
<title>Node7&#45;&gt;Node18</title>
<g id="a_edge23_Node000018_Node000007"><a xlink:title=" ">
<path fill="none" stroke="#63b8ff" d="M76.15,-136.11C93.94,-119.51 121.72,-95.35 149,-78.75 158.64,-72.89 169.84,-67.7 179.99,-63.53"/>
<polygon fill="#63b8ff" stroke="#63b8ff" points="73.76,-133.56 68.91,-142.98 78.58,-138.64 73.76,-133.56"/>
</a>
</g>
</g>
<!-- Node8 -->
<g id="Node000008" class="node">
<title>Node8</title>
<g id="a_Node000008"><a xlink:href="classnix_1_1Setting.html" target="_top" xlink:title=" ">
<polygon fill="white" stroke="#bfbfbf" points="432.5,-267.12 325.75,-267.12 325.75,-246.38 432.5,-246.38 432.5,-267.12"/>
<text text-anchor="middle" x="379.12" y="-253.62" font-family="Helvetica,sans-Serif" font-size="10.00">nix::Setting&lt; int &gt;</text>
</a>
</g>
</g>
<!-- Node8&#45;&gt;Node2 -->
<g id="edge7_Node000002_Node000008" class="edge">
<title>Node8&#45;&gt;Node2</title>
<g id="a_edge7_Node000002_Node000008"><a xlink:title=" ">
<path fill="none" stroke="#9a32cd" stroke-dasharray="5,2" d="M443.81,-250.24C486.86,-245.33 544.87,-237.74 595.5,-227.75 605.56,-225.77 616.34,-223.18 626.31,-220.58"/>
<polygon fill="#9a32cd" stroke="#9a32cd" points="443.7,-246.73 434.15,-251.32 444.48,-253.68 443.7,-246.73"/>
</a>
</g>
<text text-anchor="middle" x="530.88" y="-263.39" font-family="Helvetica,sans-Serif" font-size="10.00" fill="grey"> pathInfoCacheSize</text>
<text text-anchor="middle" x="530.88" y="-250.64" font-family="Helvetica,sans-Serif" font-size="10.00" fill="grey">priority</text>
</g>
<!-- Node9&#45;&gt;Node8 -->
<g id="edge8_Node000008_Node000009" class="edge">
<title>Node9&#45;&gt;Node8</title>
<g id="a_edge8_Node000008_Node000009"><a xlink:title=" ">
<path fill="none" stroke="#63b8ff" d="M284.76,-256.75C298.45,-256.75 312.52,-256.75 325.45,-256.75"/>
<polygon fill="#63b8ff" stroke="#63b8ff" points="284.9,-253.25 274.9,-256.75 284.9,-260.25 284.9,-253.25"/>
</a>
</g>
</g>
<!-- Node10 -->
<g id="Node000010" class="node">
<title>Node10</title>
<g id="a_Node000010"><a xlink:href="classnix_1_1Setting.html" target="_top" xlink:title=" ">
<polygon fill="white" stroke="#bfbfbf" points="436.62,-150.12 321.62,-150.12 321.62,-129.38 436.62,-129.38 436.62,-150.12"/>
<text text-anchor="middle" x="379.12" y="-136.62" font-family="Helvetica,sans-Serif" font-size="10.00">nix::Setting&lt; bool &gt;</text>
</a>
</g>
</g>
<!-- Node10&#45;&gt;Node1 -->
<g id="edge24_Node000001_Node000010" class="edge">
<title>Node10&#45;&gt;Node1</title>
<g id="a_edge24_Node000001_Node000010"><a xlink:title=" ">
<path fill="none" stroke="#9a32cd" stroke-dasharray="5,2" d="M448.05,-130.4C454.2,-129.76 460.33,-129.19 466.25,-128.75 596.8,-118.99 749.16,-117.72 839.11,-118"/>
<polygon fill="#9a32cd" stroke="#9a32cd" points="448.08,-126.88 438.53,-131.46 448.85,-133.83 448.08,-126.88"/>
</a>
</g>
<text text-anchor="middle" x="665.38" y="-124.25" font-family="Helvetica,sans-Serif" font-size="10.00" fill="grey"> compress</text>
</g>
<!-- Node10&#45;&gt;Node2 -->
<g id="edge10_Node000002_Node000010" class="edge">
<title>Node10&#45;&gt;Node2</title>
<g id="a_edge10_Node000002_Node000010"><a xlink:title=" ">
<path fill="none" stroke="#9a32cd" stroke-dasharray="5,2" d="M448.39,-133.5C491.94,-132.03 548.77,-134.87 595.5,-153.25 620.54,-163.1 643.36,-185.66 655.41,-199.11"/>
<polygon fill="#9a32cd" stroke="#9a32cd" points="448.4,-130 438.57,-133.93 448.71,-136.99 448.4,-130"/>
</a>
</g>
<text text-anchor="middle" x="530.88" y="-169.25" font-family="Helvetica,sans-Serif" font-size="10.00" fill="grey"> isTrusted</text>
<text text-anchor="middle" x="530.88" y="-156.5" font-family="Helvetica,sans-Serif" font-size="10.00" fill="grey">wantMassQuery</text>
</g>
<!-- Node11&#45;&gt;Node10 -->
<g id="edge11_Node000010_Node000011" class="edge">
<title>Node11&#45;&gt;Node10</title>
<g id="a_edge11_Node000010_Node000011"><a xlink:title=" ">
<path fill="none" stroke="#63b8ff" d="M284.59,-139.75C296.91,-139.75 309.55,-139.75 321.39,-139.75"/>
<polygon fill="#63b8ff" stroke="#63b8ff" points="284.9,-136.25 274.9,-139.75 284.9,-143.25 284.9,-136.25"/>
</a>
</g>
</g>
<!-- Node12 -->
<g id="Node000012" class="node">
<title>Node12</title>
<g id="a_Node000012"><a xlink:href="classnix_1_1Setting.html" target="_top" xlink:title=" ">
<polygon fill="white" stroke="#bfbfbf" points="448.25,-189.12 310,-189.12 310,-168.38 448.25,-168.38 448.25,-189.12"/>
<text text-anchor="middle" x="379.12" y="-175.62" font-family="Helvetica,sans-Serif" font-size="10.00">nix::Setting&lt; StringSet &gt;</text>
</a>
</g>
</g>
<!-- Node12&#45;&gt;Node2 -->
<g id="edge13_Node000002_Node000012" class="edge">
<title>Node12&#45;&gt;Node2</title>
<g id="a_edge13_Node000002_Node000012"><a xlink:title=" ">
<path fill="none" stroke="#9a32cd" stroke-dasharray="5,2" d="M459.52,-182.16C500.31,-184.57 550.72,-188.55 595.5,-195 603,-196.08 610.91,-197.5 618.59,-199.04"/>
<polygon fill="#9a32cd" stroke="#9a32cd" points="459.98,-178.68 449.79,-181.61 459.58,-185.67 459.98,-178.68"/>
</a>
</g>
<text text-anchor="middle" x="530.88" y="-198.25" font-family="Helvetica,sans-Serif" font-size="10.00" fill="grey"> systemFeatures</text>
</g>
<!-- Node13&#45;&gt;Node12 -->
<g id="edge14_Node000012_Node000013" class="edge">
<title>Node13&#45;&gt;Node12</title>
<g id="a_edge14_Node000012_Node000013"><a xlink:title=" ">
<path fill="none" stroke="#63b8ff" d="M284.63,-178.75C292.96,-178.75 301.44,-178.75 309.72,-178.75"/>
<polygon fill="#63b8ff" stroke="#63b8ff" points="284.9,-175.25 274.9,-178.75 284.9,-182.25 284.9,-175.25"/>
</a>
</g>
</g>
<!-- Node14 -->
<g id="Node000014" class="node">
<title>Node14</title>
<g id="a_Node000014"><a xlink:href="classnix_1_1Setting.html" target="_top" xlink:title=" ">
<polygon fill="white" stroke="#bfbfbf" points="595.5,-90.5 466.25,-90.5 466.25,-57 595.5,-57 595.5,-90.5"/>
<text text-anchor="start" x="474.25" y="-77" font-family="Helvetica,sans-Serif" font-size="10.00">nix::Setting&lt; std::</text>
<text text-anchor="middle" x="530.88" y="-64.25" font-family="Helvetica,sans-Serif" font-size="10.00">optional&lt; uint16_t &gt; &gt;</text>
</a>
</g>
</g>
<!-- Node14&#45;&gt;Node1 -->
<g id="edge16_Node000001_Node000014" class="edge">
<title>Node14&#45;&gt;Node1</title>
<g id="a_edge16_Node000001_Node000014"><a xlink:title=" ">
<path fill="none" stroke="#9a32cd" stroke-dasharray="5,2" d="M607.13,-75.91C640.88,-77.4 681.14,-79.88 717.25,-84 767.61,-89.75 824.52,-100.03 864.67,-107.92"/>
<polygon fill="#9a32cd" stroke="#9a32cd" points="607.6,-72.43 597.46,-75.51 607.3,-79.42 607.6,-72.43"/>
</a>
</g>
<text text-anchor="middle" x="665.38" y="-87.25" font-family="Helvetica,sans-Serif" font-size="10.00" fill="grey"> port</text>
</g>
<!-- Node15&#45;&gt;Node14 -->
<g id="edge17_Node000014_Node000015" class="edge">
<title>Node15&#45;&gt;Node14</title>
<g id="a_edge17_Node000014_Node000015"><a xlink:title=" ">
<path fill="none" stroke="#63b8ff" d="M284.63,-92.27C339.24,-88.14 413.36,-82.55 465.78,-78.59"/>
<polygon fill="#63b8ff" stroke="#63b8ff" points="284.51,-88.77 274.8,-93.01 285.03,-95.75 284.51,-88.77"/>
</a>
</g>
</g>
<!-- Node16&#45;&gt;Node1 -->
<g id="edge19_Node000001_Node000016" class="edge">
<title>Node16&#45;&gt;Node1</title>
<g id="a_edge19_Node000001_Node000016"><a xlink:title=" ">
<path fill="none" stroke="#9a32cd" stroke-dasharray="5,2" d="M582.14,-326.2C586.71,-324.5 591.23,-322.68 595.5,-320.75 702.52,-272.34 722.69,-247.26 821.5,-183.75 850.18,-165.31 882.88,-142.7 901.62,-129.59"/>
<polygon fill="#9a32cd" stroke="#9a32cd" points="581.18,-322.83 572.89,-329.43 583.48,-329.44 581.18,-322.83"/>
</a>
</g>
<text text-anchor="middle" x="665.38" y="-313.96" font-family="Helvetica,sans-Serif" font-size="10.00" fill="grey"> sshKey</text>
</g>
<!-- Node17 -->
<g id="Node000017" class="node">
<title>Node17</title>
<g id="a_Node000017"><a xlink:href="classnix_1_1Setting.html" target="_top" xlink:title=" ">
<polygon fill="white" stroke="#bfbfbf" points="717.25,-33.5 613.5,-33.5 613.5,0 717.25,0 717.25,-33.5"/>
<text text-anchor="start" x="621.5" y="-20" font-family="Helvetica,sans-Serif" font-size="10.00">nix::Setting&lt; std::</text>
<text text-anchor="middle" x="665.38" y="-7.25" font-family="Helvetica,sans-Serif" font-size="10.00">string &gt;</text>
</a>
</g>
</g>
<!-- Node17&#45;&gt;Node1 -->
<g id="edge21_Node000001_Node000017" class="edge">
<title>Node17&#45;&gt;Node1</title>
<g id="a_edge21_Node000001_Node000017"><a xlink:title=" ">
<path fill="none" stroke="#9a32cd" stroke-dasharray="5,2" d="M729.02,-13.05C758.24,-13.58 792.81,-17.54 821.5,-30.25 860.97,-47.74 894.71,-88.4 909.29,-107.91"/>
<polygon fill="#9a32cd" stroke="#9a32cd" points="729.22,-9.55 719.21,-13.01 729.2,-16.55 729.22,-9.55"/>
</a>
</g>
<text text-anchor="middle" x="778.38" y="-46.25" font-family="Helvetica,sans-Serif" font-size="10.00" fill="grey"> remoteStore</text>
<text text-anchor="middle" x="778.38" y="-33.5" font-family="Helvetica,sans-Serif" font-size="10.00" fill="grey">sshPublicHostKey</text>
</g>
<!-- Node18&#45;&gt;Node17 -->
<g id="edge22_Node000017_Node000018" class="edge">
<title>Node18&#45;&gt;Node17</title>
<g id="a_edge22_Node000017_Node000018"><a xlink:title=" ">
<path fill="none" stroke="#63b8ff" d="M284.93,-46.95C376.94,-39.62 532.86,-27.22 613.17,-20.82"/>
<polygon fill="#63b8ff" stroke="#63b8ff" points="284.68,-43.45 274.99,-47.74 285.24,-50.43 284.68,-43.45"/>
</a>
</g>
</g>
</g>
</svg>
