<?xml version="1.0" encoding="UTF-8" standalone="no"?>
<!DOCTYPE svg PUBLIC "-//W3C//DTD SVG 1.1//EN"
 "http://www.w3.org/Graphics/SVG/1.1/DTD/svg11.dtd">
<!-- Generated by graphviz version 12.2.1 (0)
 -->
<!-- Title: nix::CmdStoreGC Pages: 1 -->
<svg width="294pt" height="291pt"
 viewBox="0.00 0.00 293.75 291.25" xmlns="http://www.w3.org/2000/svg" xmlns:xlink="http://www.w3.org/1999/xlink">
<g id="graph0" class="graph" transform="scale(1 1) rotate(0) translate(4 287.25)">
<title>nix::CmdStoreGC</title>
<!-- Node1 -->
<g id="Node000001" class="node">
<title>Node1</title>
<g id="a_Node000001"><a xlink:title=" ">
<polygon fill="#999999" stroke="#666666" points="183,-20.75 83.75,-20.75 83.75,0 183,0 183,-20.75"/>
<text text-anchor="middle" x="133.38" y="-7.25" font-family="Helvetica,sans-Serif" font-size="10.00">nix::CmdStoreGC</text>
</a>
</g>
</g>
<!-- Node2 -->
<g id="Node000002" class="node">
<title>Node2</title>
<g id="a_Node000002"><a xlink:href="structnix_1_1StoreCommand.html" target="_top" xlink:title=" ">
<polygon fill="white" stroke="#666666" points="112.75,-186.75 0,-186.75 0,-166 112.75,-166 112.75,-186.75"/>
<text text-anchor="middle" x="56.38" y="-173.25" font-family="Helvetica,sans-Serif" font-size="10.00">nix::StoreCommand</text>
</a>
</g>
</g>
<!-- Node2&#45;&gt;Node1 -->
<g id="edge1_Node000001_Node000002" class="edge">
<title>Node2&#45;&gt;Node1</title>
<g id="a_edge1_Node000001_Node000002"><a xlink:title=" ">
<path fill="none" stroke="#63b8ff" d="M57.37,-154.35C59.16,-132.13 64.21,-96.63 78.38,-69.5 88.79,-49.55 108.05,-31.57 120.79,-21.06"/>
<polygon fill="#63b8ff" stroke="#63b8ff" points="53.88,-154.02 56.74,-164.22 60.87,-154.47 53.88,-154.02"/>
</a>
</g>
</g>
<!-- Node3 -->
<g id="Node000003" class="node">
<title>Node3</title>
<g id="a_Node000003"><a xlink:href="structnix_1_1Command.html" target="_top" xlink:title=" ">
<polygon fill="white" stroke="#666666" points="181,-283.25 93.75,-283.25 93.75,-262.5 181,-262.5 181,-283.25"/>
<text text-anchor="middle" x="137.38" y="-269.75" font-family="Helvetica,sans-Serif" font-size="10.00">nix::Command</text>
</a>
</g>
</g>
<!-- Node3&#45;&gt;Node2 -->
<g id="edge2_Node000002_Node000003" class="edge">
<title>Node3&#45;&gt;Node2</title>
<g id="a_edge2_Node000002_Node000003"><a xlink:title=" ">
<path fill="none" stroke="#63b8ff" d="M107.84,-256.39C95.39,-248.58 81.67,-238.08 72.38,-225.5 63.8,-213.88 59.64,-197.4 57.77,-187.05"/>
<polygon fill="#63b8ff" stroke="#63b8ff" points="105.75,-259.22 116.14,-261.3 109.31,-253.19 105.75,-259.22"/>
</a>
</g>
</g>
<!-- Node5 -->
<g id="Node000005" class="node">
<title>Node5</title>
<g id="a_Node000005"><a xlink:href="classnix_1_1MultiCommand.html" target="_top" xlink:title=" ">
<polygon fill="white" stroke="#666666" points="193.38,-225.5 81.38,-225.5 81.38,-204.75 193.38,-204.75 193.38,-225.5"/>
<text text-anchor="middle" x="137.38" y="-212" font-family="Helvetica,sans-Serif" font-size="10.00">nix::MultiCommand</text>
</a>
</g>
</g>
<!-- Node3&#45;&gt;Node5 -->
<g id="edge5_Node000005_Node000003" class="edge">
<title>Node3&#45;&gt;Node5</title>
<g id="a_edge5_Node000005_Node000003"><a xlink:title=" ">
<path fill="none" stroke="#63b8ff" d="M137.38,-250.93C137.38,-242.27 137.38,-232.65 137.38,-225.72"/>
<polygon fill="#63b8ff" stroke="#63b8ff" points="133.88,-250.65 137.38,-260.65 140.88,-250.65 133.88,-250.65"/>
</a>
</g>
</g>
<!-- Node4 -->
<g id="Node000004" class="node">
<title>Node4</title>
<g id="a_Node000004"><a xlink:href="classnix_1_1Args.html" target="_top" xlink:title=" ">
<polygon fill="white" stroke="#bfbfbf" points="166.75,-148 108,-148 108,-127.25 166.75,-127.25 166.75,-148"/>
<text text-anchor="middle" x="137.38" y="-134.5" font-family="Helvetica,sans-Serif" font-size="10.00">nix::Args</text>
</a>
</g>
</g>
<!-- Node4&#45;&gt;Node3 -->
<g id="edge3_Node000003_Node000004" class="edge">
<title>Node4&#45;&gt;Node3</title>
<g id="a_edge3_Node000003_Node000004"><a xlink:title=" ">
<path fill="none" stroke="#63b8ff" d="M162.57,-154.87C177.93,-166.55 195.82,-183.89 202.38,-204.75 205.14,-213.55 206.6,-217.3 202.38,-225.5 193.68,-242.38 175.68,-254.48 160.82,-262.07"/>
<polygon fill="#63b8ff" stroke="#63b8ff" points="164.86,-152.21 154.69,-149.23 160.78,-157.9 164.86,-152.21"/>
</a>
</g>
</g>
<!-- Node6 -->
<g id="Node000006" class="node">
<title>Node6</title>
<g id="a_Node000006"><a xlink:href="structnix_1_1MixDryRun.html" target="_top" xlink:title=" ">
<polygon fill="white" stroke="#bfbfbf" points="178.88,-90.25 87.88,-90.25 87.88,-69.5 178.88,-69.5 178.88,-90.25"/>
<text text-anchor="middle" x="133.38" y="-76.75" font-family="Helvetica,sans-Serif" font-size="10.00">nix::MixDryRun</text>
</a>
</g>
</g>
<!-- Node4&#45;&gt;Node6 -->
<g id="edge7_Node000006_Node000004" class="edge">
<title>Node4&#45;&gt;Node6</title>
<g id="a_edge7_Node000006_Node000004"><a xlink:title=" ">
<path fill="none" stroke="#63b8ff" d="M135.87,-115.68C135.25,-107.02 134.56,-97.4 134.06,-90.47"/>
<polygon fill="#63b8ff" stroke="#63b8ff" points="132.36,-115.68 136.57,-125.4 139.35,-115.18 132.36,-115.68"/>
</a>
</g>
</g>
<!-- Node5&#45;&gt;Node4 -->
<g id="edge4_Node000004_Node000005" class="edge">
<title>Node5&#45;&gt;Node4</title>
<g id="a_edge4_Node000004_Node000005"><a xlink:title=" ">
<path fill="none" stroke="#9a32cd" stroke-dasharray="5,2" d="M137.38,-193.18C137.38,-178.48 137.38,-159.52 137.38,-148.26"/>
<polygon fill="#9a32cd" stroke="#9a32cd" points="133.88,-192.74 137.38,-202.74 140.88,-192.74 133.88,-192.74"/>
</a>
</g>
<text text-anchor="middle" x="154.62" y="-173.25" font-family="Helvetica,sans-Serif" font-size="10.00" fill="grey"> parent</text>
</g>
<!-- Node6&#45;&gt;Node1 -->
<g id="edge6_Node000001_Node000006" class="edge">
<title>Node6&#45;&gt;Node1</title>
<g id="a_edge6_Node000001_Node000006"><a xlink:title=" ">
<path fill="none" stroke="#63b8ff" d="M133.38,-58.07C133.38,-45.72 133.38,-30.65 133.38,-21.03"/>
<polygon fill="#63b8ff" stroke="#63b8ff" points="129.88,-57.69 133.38,-67.69 136.88,-57.69 129.88,-57.69"/>
</a>
</g>
</g>
<!-- Node7 -->
<g id="Node000007" class="node">
<title>Node7</title>
<g id="a_Node000007"><a xlink:href="structnix_1_1GCOptions.html" target="_top" xlink:title=" ">
<polygon fill="white" stroke="#bfbfbf" points="285.75,-90.25 197,-90.25 197,-69.5 285.75,-69.5 285.75,-90.25"/>
<text text-anchor="middle" x="241.38" y="-76.75" font-family="Helvetica,sans-Serif" font-size="10.00">nix::GCOptions</text>
</a>
</g>
</g>
<!-- Node7&#45;&gt;Node1 -->
<g id="edge8_Node000001_Node000007" class="edge">
<title>Node7&#45;&gt;Node1</title>
<g id="a_edge8_Node000001_Node000007"><a xlink:title=" ">
<path fill="none" stroke="#9a32cd" stroke-dasharray="5,2" d="M216.18,-63.13C195.47,-50.19 166.77,-32.25 149.17,-21.25"/>
<polygon fill="#9a32cd" stroke="#9a32cd" points="214.28,-66.07 224.62,-68.4 217.99,-60.13 214.28,-66.07"/>
</a>
</g>
<text text-anchor="middle" x="216.55" y="-42" font-family="Helvetica,sans-Serif" font-size="10.00" fill="grey"> options</text>
</g>
</g>
</svg>
