<?xml version="1.0" encoding="UTF-8" standalone="no"?>
<!DOCTYPE svg PUBLIC "-//W3C//DTD SVG 1.1//EN"
 "http://www.w3.org/Graphics/SVG/1.1/DTD/svg11.dtd">
<!-- Generated by graphviz version 12.2.1 (0)
 -->
<!-- Title: nix::CmdRealisationInfo Pages: 1 -->
<svg width="451pt" height="540pt"
 viewBox="0.00 0.00 450.50 539.50" xmlns="http://www.w3.org/2000/svg" xmlns:xlink="http://www.w3.org/1999/xlink">
<g id="graph0" class="graph" transform="scale(1 1) rotate(0) translate(4 535.5)">
<title>nix::CmdRealisationInfo</title>
<!-- Node1 -->
<g id="Node000001" class="node">
<title>Node1</title>
<g id="a_Node000001"><a xlink:title=" ">
<polygon fill="#999999" stroke="#666666" points="418.5,-20.75 285.5,-20.75 285.5,0 418.5,0 418.5,-20.75"/>
<text text-anchor="middle" x="352" y="-7.25" font-family="Helvetica,sans-Serif" font-size="10.00">nix::CmdRealisationInfo</text>
</a>
</g>
</g>
<!-- Node2 -->
<g id="Node000002" class="node">
<title>Node2</title>
<g id="a_Node000002"><a xlink:href="structnix_1_1BuiltPathsCommand.html" target="_top" xlink:title=" ">
<polygon fill="white" stroke="#666666" points="372,-77.5 236,-77.5 236,-56.75 372,-56.75 372,-77.5"/>
<text text-anchor="middle" x="304" y="-64" font-family="Helvetica,sans-Serif" font-size="10.00">nix::BuiltPathsCommand</text>
</a>
</g>
</g>
<!-- Node2&#45;&gt;Node1 -->
<g id="edge1_Node000001_Node000002" class="edge">
<title>Node2&#45;&gt;Node1</title>
<g id="a_edge1_Node000001_Node000002"><a xlink:title=" ">
<path fill="none" stroke="#63b8ff" d="M320.12,-47.74C327.94,-38.81 337.03,-28.45 343.49,-21.08"/>
<polygon fill="#63b8ff" stroke="#63b8ff" points="317.54,-45.37 313.58,-55.2 322.8,-49.99 317.54,-45.37"/>
</a>
</g>
</g>
<!-- Node3 -->
<g id="Node000003" class="node">
<title>Node3</title>
<g id="a_Node000003"><a xlink:href="structnix_1_1InstallablesCommand.html" target="_top" xlink:title=" ">
<polygon fill="white" stroke="#666666" points="229.75,-134.25 86.25,-134.25 86.25,-113.5 229.75,-113.5 229.75,-134.25"/>
<text text-anchor="middle" x="158" y="-120.75" font-family="Helvetica,sans-Serif" font-size="10.00">nix::InstallablesCommand</text>
</a>
</g>
</g>
<!-- Node3&#45;&gt;Node2 -->
<g id="edge2_Node000002_Node000003" class="edge">
<title>Node3&#45;&gt;Node2</title>
<g id="a_edge2_Node000002_Node000003"><a xlink:title=" ">
<path fill="none" stroke="#63b8ff" d="M194.69,-109.12C220.69,-99.37 254.94,-86.52 278.12,-77.83"/>
<polygon fill="#63b8ff" stroke="#63b8ff" points="193.65,-105.77 185.52,-112.56 196.11,-112.32 193.65,-105.77"/>
</a>
</g>
</g>
<!-- Node4 -->
<g id="Node000004" class="node">
<title>Node4</title>
<g id="a_Node000004"><a xlink:href="structnix_1_1RawInstallablesCommand.html" target="_top" xlink:title=" ">
<polygon fill="white" stroke="#666666" points="194.25,-191 29.75,-191 29.75,-170.25 194.25,-170.25 194.25,-191"/>
<text text-anchor="middle" x="112" y="-177.5" font-family="Helvetica,sans-Serif" font-size="10.00">nix::RawInstallablesCommand</text>
</a>
</g>
</g>
<!-- Node4&#45;&gt;Node3 -->
<g id="edge3_Node000003_Node000004" class="edge">
<title>Node4&#45;&gt;Node3</title>
<g id="a_edge3_Node000003_Node000004"><a xlink:title=" ">
<path fill="none" stroke="#63b8ff" d="M127.45,-161.24C134.95,-152.31 143.65,-141.95 149.85,-134.58"/>
<polygon fill="#63b8ff" stroke="#63b8ff" points="124.95,-158.77 121.2,-168.68 130.31,-163.27 124.95,-158.77"/>
</a>
</g>
</g>
<!-- Node5 -->
<g id="Node000005" class="node">
<title>Node5</title>
<g id="a_Node000005"><a xlink:href="classnix_1_1Args.html" target="_top" xlink:title=" ">
<polygon fill="white" stroke="#bfbfbf" points="213.38,-531.5 154.62,-531.5 154.62,-510.75 213.38,-510.75 213.38,-531.5"/>
<text text-anchor="middle" x="184" y="-518" font-family="Helvetica,sans-Serif" font-size="10.00">nix::Args</text>
</a>
</g>
</g>
<!-- Node5&#45;&gt;Node4 -->
<g id="edge4_Node000004_Node000005" class="edge">
<title>Node5&#45;&gt;Node4</title>
<g id="a_edge4_Node000004_Node000005"><a xlink:title=" ">
<path fill="none" stroke="#63b8ff" d="M143.45,-513.95C89.27,-503.15 0,-475.23 0,-408.62 0,-408.62 0,-408.62 0,-293.12 0,-260.48 9.68,-250.83 32,-227 47.06,-210.92 69.13,-198.99 86.28,-191.41"/>
<polygon fill="#63b8ff" stroke="#63b8ff" points="142.48,-517.33 152.95,-515.73 143.76,-510.45 142.48,-517.33"/>
</a>
</g>
</g>
<!-- Node6 -->
<g id="Node000006" class="node">
<title>Node6</title>
<g id="a_Node000006"><a xlink:href="structnix_1_1SourceExprCommand.html" target="_top" xlink:title=" ">
<polygon fill="white" stroke="#bfbfbf" points="183,-247.75 41,-247.75 41,-227 183,-227 183,-247.75"/>
<text text-anchor="middle" x="112" y="-234.25" font-family="Helvetica,sans-Serif" font-size="10.00">nix::SourceExprCommand</text>
</a>
</g>
</g>
<!-- Node5&#45;&gt;Node6 -->
<g id="edge6_Node000006_Node000005" class="edge">
<title>Node5&#45;&gt;Node6</title>
<g id="a_edge6_Node000006_Node000005"><a xlink:title=" ">
<path fill="none" stroke="#63b8ff" d="M143.66,-508.5C100.45,-493.27 38,-462.02 38,-408.62 38,-408.62 38,-408.62 38,-349.88 38,-319.3 40.23,-309.32 57,-283.75 66.84,-268.74 83.18,-256.18 95.5,-248.1"/>
<polygon fill="#63b8ff" stroke="#63b8ff" points="142.43,-511.77 153.02,-511.63 144.65,-505.14 142.43,-511.77"/>
</a>
</g>
</g>
<!-- Node7 -->
<g id="Node000007" class="node">
<title>Node7</title>
<g id="a_Node000007"><a xlink:href="structnix_1_1MixFlakeOptions.html" target="_top" xlink:title=" ">
<polygon fill="white" stroke="#666666" points="184.38,-304.5 65.62,-304.5 65.62,-283.75 184.38,-283.75 184.38,-304.5"/>
<text text-anchor="middle" x="125" y="-291" font-family="Helvetica,sans-Serif" font-size="10.00">nix::MixFlakeOptions</text>
</a>
</g>
</g>
<!-- Node5&#45;&gt;Node7 -->
<g id="edge8_Node000007_Node000005" class="edge">
<title>Node5&#45;&gt;Node7</title>
<g id="a_edge8_Node000007_Node000005"><a xlink:title=" ">
<path fill="none" stroke="#63b8ff" d="M143.68,-510.02C125.49,-503.23 105.7,-492.22 95,-474.75 63.83,-423.87 78.76,-397.62 96,-340.5 100.11,-326.9 109.56,-313.45 116.56,-304.77"/>
<polygon fill="#63b8ff" stroke="#63b8ff" points="142.4,-513.28 152.99,-513.16 144.63,-506.65 142.4,-513.28"/>
</a>
</g>
</g>
<!-- Node10 -->
<g id="Node000010" class="node">
<title>Node10</title>
<g id="a_Node000010"><a xlink:href="structnix_1_1Command.html" target="_top" xlink:title=" ">
<polygon fill="white" stroke="#666666" points="191.62,-474.75 104.38,-474.75 104.38,-454 191.62,-454 191.62,-474.75"/>
<text text-anchor="middle" x="148" y="-461.25" font-family="Helvetica,sans-Serif" font-size="10.00">nix::Command</text>
</a>
</g>
</g>
<!-- Node5&#45;&gt;Node10 -->
<g id="edge12_Node000010_Node000005" class="edge">
<title>Node5&#45;&gt;Node10</title>
<g id="a_edge12_Node000010_Node000005"><a xlink:title=" ">
<path fill="none" stroke="#63b8ff" d="M171.35,-500.89C165.61,-492.16 159.08,-482.22 154.38,-475.08"/>
<polygon fill="#63b8ff" stroke="#63b8ff" points="168.31,-502.64 176.73,-509.07 174.16,-498.79 168.31,-502.64"/>
</a>
</g>
</g>
<!-- Node11 -->
<g id="Node000011" class="node">
<title>Node11</title>
<g id="a_Node000011"><a xlink:href="structnix_1_1MixEvalArgs.html" target="_top" xlink:title=" ">
<polygon fill="white" stroke="#bfbfbf" points="331.88,-418 234.12,-418 234.12,-397.25 331.88,-397.25 331.88,-418"/>
<text text-anchor="middle" x="283" y="-404.5" font-family="Helvetica,sans-Serif" font-size="10.00">nix::MixEvalArgs</text>
</a>
</g>
</g>
<!-- Node5&#45;&gt;Node11 -->
<g id="edge14_Node000011_Node000005" class="edge">
<title>Node5&#45;&gt;Node11</title>
<g id="a_edge14_Node000011_Node000005"><a xlink:title=" ">
<path fill="none" stroke="#63b8ff" d="M198.66,-501.74C209.54,-488.29 224.87,-469.73 239,-454 250.44,-441.27 264.28,-427.2 273.34,-418.16"/>
<polygon fill="#63b8ff" stroke="#63b8ff" points="196.1,-499.35 192.56,-509.34 201.55,-503.73 196.1,-499.35"/>
</a>
</g>
</g>
<!-- Node12 -->
<g id="Node000012" class="node">
<title>Node12</title>
<g id="a_Node000012"><a xlink:href="structnix_1_1MixRepair.html" target="_top" xlink:title=" ">
<polygon fill="white" stroke="#bfbfbf" points="334.25,-474.75 247.75,-474.75 247.75,-454 334.25,-454 334.25,-474.75"/>
<text text-anchor="middle" x="291" y="-461.25" font-family="Helvetica,sans-Serif" font-size="10.00">nix::MixRepair</text>
</a>
</g>
</g>
<!-- Node5&#45;&gt;Node12 -->
<g id="edge16_Node000012_Node000005" class="edge">
<title>Node5&#45;&gt;Node12</title>
<g id="a_edge16_Node000012_Node000005"><a xlink:title=" ">
<path fill="none" stroke="#63b8ff" d="M213.21,-505.18C231.95,-495.59 255.73,-483.42 272.04,-475.08"/>
<polygon fill="#63b8ff" stroke="#63b8ff" points="211.78,-501.98 204.48,-509.65 214.97,-508.21 211.78,-501.98"/>
</a>
</g>
</g>
<!-- Node13 -->
<g id="Node000013" class="node">
<title>Node13</title>
<g id="a_Node000013"><a xlink:href="structnix_1_1MixOperateOnOptions.html" target="_top" xlink:title=" ">
<polygon fill="white" stroke="#bfbfbf" points="376.5,-361.25 231.5,-361.25 231.5,-340.5 376.5,-340.5 376.5,-361.25"/>
<text text-anchor="middle" x="304" y="-347.75" font-family="Helvetica,sans-Serif" font-size="10.00">nix::MixOperateOnOptions</text>
</a>
</g>
</g>
<!-- Node5&#45;&gt;Node13 -->
<g id="edge18_Node000013_Node000005" class="edge">
<title>Node5&#45;&gt;Node13</title>
<g id="a_edge18_Node000013_Node000005"><a xlink:title=" ">
<path fill="none" stroke="#63b8ff" d="M224.94,-514.11C267.16,-506.96 328.78,-493.6 343,-474.75 349.22,-466.5 355.04,-434.58 341,-397.25 335.63,-382.98 323.85,-369.85 315.02,-361.43"/>
<polygon fill="#63b8ff" stroke="#63b8ff" points="224.41,-510.65 215.1,-515.71 225.53,-517.56 224.41,-510.65"/>
</a>
</g>
</g>
<!-- Node14 -->
<g id="Node000014" class="node">
<title>Node14</title>
<g id="a_Node000014"><a xlink:href="structnix_1_1MixJSON.html" target="_top" xlink:title=" ">
<polygon fill="white" stroke="#bfbfbf" points="442.5,-304.5 363.5,-304.5 363.5,-283.75 442.5,-283.75 442.5,-304.5"/>
<text text-anchor="middle" x="403" y="-291" font-family="Helvetica,sans-Serif" font-size="10.00">nix::MixJSON</text>
</a>
</g>
</g>
<!-- Node5&#45;&gt;Node14 -->
<g id="edge20_Node000014_Node000005" class="edge">
<title>Node5&#45;&gt;Node14</title>
<g id="a_edge20_Node000014_Node000005"><a xlink:title=" ">
<path fill="none" stroke="#63b8ff" d="M224.93,-514.52C270.84,-507.4 341.34,-493.73 360,-474.75 407.65,-426.27 405.87,-334.9 403.85,-304.92"/>
<polygon fill="#63b8ff" stroke="#63b8ff" points="224.7,-511.01 215.33,-515.96 225.74,-517.93 224.7,-511.01"/>
</a>
</g>
</g>
<!-- Node6&#45;&gt;Node4 -->
<g id="edge5_Node000004_Node000006" class="edge">
<title>Node6&#45;&gt;Node4</title>
<g id="a_edge5_Node000004_Node000006"><a xlink:title=" ">
<path fill="none" stroke="#63b8ff" d="M112,-215.13C112,-206.91 112,-197.93 112,-191.33"/>
<polygon fill="#63b8ff" stroke="#63b8ff" points="108.5,-215.07 112,-225.07 115.5,-215.07 108.5,-215.07"/>
</a>
</g>
</g>
<!-- Node7&#45;&gt;Node6 -->
<g id="edge7_Node000006_Node000007" class="edge">
<title>Node7&#45;&gt;Node6</title>
<g id="a_edge7_Node000006_Node000007"><a xlink:title=" ">
<path fill="none" stroke="#63b8ff" d="M120.02,-272.17C118.06,-263.88 115.89,-254.75 114.3,-248.08"/>
<polygon fill="#63b8ff" stroke="#63b8ff" points="116.61,-272.94 122.33,-281.86 123.42,-271.33 116.61,-272.94"/>
</a>
</g>
</g>
<!-- Node8 -->
<g id="Node000008" class="node">
<title>Node8</title>
<g id="a_Node000008"><a xlink:href="structnix_1_1EvalCommand.html" target="_top" xlink:title=" ">
<polygon fill="white" stroke="#666666" points="213.12,-361.25 104.88,-361.25 104.88,-340.5 213.12,-340.5 213.12,-361.25"/>
<text text-anchor="middle" x="159" y="-347.75" font-family="Helvetica,sans-Serif" font-size="10.00">nix::EvalCommand</text>
</a>
</g>
</g>
<!-- Node8&#45;&gt;Node7 -->
<g id="edge9_Node000007_Node000008" class="edge">
<title>Node8&#45;&gt;Node7</title>
<g id="a_edge9_Node000007_Node000008"><a xlink:title=" ">
<path fill="none" stroke="#63b8ff" d="M146.88,-330.35C141.5,-321.7 135.41,-311.89 131.03,-304.83"/>
<polygon fill="#63b8ff" stroke="#63b8ff" points="143.87,-332.15 152.12,-338.8 149.82,-328.46 143.87,-332.15"/>
</a>
</g>
</g>
<!-- Node9 -->
<g id="Node000009" class="node">
<title>Node9</title>
<g id="a_Node000009"><a xlink:href="structnix_1_1StoreCommand.html" target="_top" xlink:title=" ">
<polygon fill="white" stroke="#666666" points="216.38,-418 103.62,-418 103.62,-397.25 216.38,-397.25 216.38,-418"/>
<text text-anchor="middle" x="160" y="-404.5" font-family="Helvetica,sans-Serif" font-size="10.00">nix::StoreCommand</text>
</a>
</g>
</g>
<!-- Node9&#45;&gt;Node8 -->
<g id="edge10_Node000008_Node000009" class="edge">
<title>Node9&#45;&gt;Node8</title>
<g id="a_edge10_Node000008_Node000009"><a xlink:title=" ">
<path fill="none" stroke="#63b8ff" d="M159.61,-385.38C159.46,-377.16 159.3,-368.18 159.18,-361.58"/>
<polygon fill="#63b8ff" stroke="#63b8ff" points="156.11,-385.39 159.79,-395.32 163.11,-385.26 156.11,-385.39"/>
</a>
</g>
</g>
<!-- Node10&#45;&gt;Node9 -->
<g id="edge11_Node000009_Node000010" class="edge">
<title>Node10&#45;&gt;Node9</title>
<g id="a_edge11_Node000009_Node000010"><a xlink:title=" ">
<path fill="none" stroke="#63b8ff" d="M152.59,-442.42C154.41,-434.13 156.41,-425 157.87,-418.33"/>
<polygon fill="#63b8ff" stroke="#63b8ff" points="149.19,-441.59 150.47,-452.11 156.03,-443.09 149.19,-441.59"/>
</a>
</g>
</g>
<!-- Node11&#45;&gt;Node8 -->
<g id="edge13_Node000008_Node000011" class="edge">
<title>Node11&#45;&gt;Node8</title>
<g id="a_edge13_Node000008_Node000011"><a xlink:title=" ">
<path fill="none" stroke="#63b8ff" d="M250.35,-392.21C228.46,-382.55 200.23,-370.08 180.98,-361.58"/>
<polygon fill="#63b8ff" stroke="#63b8ff" points="248.89,-395.39 259.45,-396.23 251.71,-388.98 248.89,-395.39"/>
</a>
</g>
</g>
<!-- Node12&#45;&gt;Node11 -->
<g id="edge15_Node000011_Node000012" class="edge">
<title>Node12&#45;&gt;Node11</title>
<g id="a_edge15_Node000011_Node000012"><a xlink:title=" ">
<path fill="none" stroke="#63b8ff" d="M287.94,-442.42C286.73,-434.13 285.39,-425 284.42,-418.33"/>
<polygon fill="#63b8ff" stroke="#63b8ff" points="284.44,-442.7 289.35,-452.09 291.37,-441.69 284.44,-442.7"/>
</a>
</g>
</g>
<!-- Node13&#45;&gt;Node2 -->
<g id="edge17_Node000002_Node000013" class="edge">
<title>Node13&#45;&gt;Node2</title>
<g id="a_edge17_Node000002_Node000013"><a xlink:title=" ">
<path fill="none" stroke="#63b8ff" d="M304,-328.57C304,-306.13 304,-269.77 304,-238.38 304,-238.38 304,-238.38 304,-179.62 304,-142.07 304,-97.4 304,-77.97"/>
<polygon fill="#63b8ff" stroke="#63b8ff" points="300.5,-328.52 304,-338.52 307.5,-328.52 300.5,-328.52"/>
</a>
</g>
</g>
<!-- Node14&#45;&gt;Node1 -->
<g id="edge19_Node000001_Node000014" class="edge">
<title>Node14&#45;&gt;Node1</title>
<g id="a_edge19_Node000001_Node000014"><a xlink:title=" ">
<path fill="none" stroke="#63b8ff" d="M402.39,-271.82C401.8,-249.39 401,-213.02 401,-181.62 401,-181.62 401,-181.62 401,-122.88 401,-82.28 373.44,-39.86 359.66,-21.18"/>
<polygon fill="#63b8ff" stroke="#63b8ff" points="398.89,-271.87 402.66,-281.77 405.89,-271.68 398.89,-271.87"/>
</a>
</g>
</g>
</g>
</svg>
