<?xml version="1.0" encoding="UTF-8" standalone="no"?>
<!DOCTYPE svg PUBLIC "-//W3C//DTD SVG 1.1//EN"
 "http://www.w3.org/Graphics/SVG/1.1/DTD/svg11.dtd">
<!-- Generated by graphviz version 12.2.1 (0)
 -->
<!-- Title: nix::UserLock Pages: 1 -->
<svg width="246pt" height="86pt"
 viewBox="0.00 0.00 246.12 85.50" xmlns="http://www.w3.org/2000/svg" xmlns:xlink="http://www.w3.org/1999/xlink">
<g id="graph0" class="graph" transform="scale(1 1) rotate(0) translate(4 81.5)">
<title>nix::UserLock</title>
<!-- Node1 -->
<g id="Node000001" class="node">
<title>Node1</title>
<g id="a_Node000001"><a xlink:title=" ">
<polygon fill="#999999" stroke="#666666" points="157.25,-77.5 75.25,-77.5 75.25,-56.75 157.25,-56.75 157.25,-77.5"/>
<text text-anchor="middle" x="116.25" y="-64" font-family="Helvetica,sans-Serif" font-size="10.00">nix::UserLock</text>
</a>
</g>
</g>
<!-- Node2 -->
<g id="Node000002" class="node">
<title>Node2</title>
<g id="a_Node000002"><a xlink:href="structnix_1_1AutoUserLock.html" target="_top" xlink:title=" ">
<polygon fill="white" stroke="#bfbfbf" points="104.5,-20.75 0,-20.75 0,0 104.5,0 104.5,-20.75"/>
<text text-anchor="middle" x="52.25" y="-7.25" font-family="Helvetica,sans-Serif" font-size="10.00">nix::AutoUserLock</text>
</a>
</g>
</g>
<!-- Node1&#45;&gt;Node2 -->
<g id="edge1_Node000001_Node000002" class="edge">
<title>Node1&#45;&gt;Node2</title>
<g id="a_edge1_Node000001_Node000002"><a xlink:title=" ">
<path fill="none" stroke="#63b8ff" d="M96.07,-48.86C85.35,-39.69 72.58,-28.76 63.59,-21.08"/>
<polygon fill="#63b8ff" stroke="#63b8ff" points="93.78,-51.51 103.66,-55.35 98.33,-46.19 93.78,-51.51"/>
</a>
</g>
</g>
<!-- Node3 -->
<g id="Node000003" class="node">
<title>Node3</title>
<g id="a_Node000003"><a xlink:href="structnix_1_1SimpleUserLock.html" target="_top" xlink:title=" ">
<polygon fill="white" stroke="#bfbfbf" points="238.12,-20.75 122.38,-20.75 122.38,0 238.12,0 238.12,-20.75"/>
<text text-anchor="middle" x="180.25" y="-7.25" font-family="Helvetica,sans-Serif" font-size="10.00">nix::SimpleUserLock</text>
</a>
</g>
</g>
<!-- Node1&#45;&gt;Node3 -->
<g id="edge2_Node000001_Node000003" class="edge">
<title>Node1&#45;&gt;Node3</title>
<g id="a_edge2_Node000001_Node000003"><a xlink:title=" ">
<path fill="none" stroke="#63b8ff" d="M136.43,-48.86C147.15,-39.69 159.92,-28.76 168.91,-21.08"/>
<polygon fill="#63b8ff" stroke="#63b8ff" points="134.17,-46.19 128.84,-55.35 138.72,-51.51 134.17,-46.19"/>
</a>
</g>
</g>
</g>
</svg>
