<?xml version="1.0" encoding="UTF-8" standalone="no"?>
<!DOCTYPE svg PUBLIC "-//W3C//DTD SVG 1.1//EN"
 "http://www.w3.org/Graphics/SVG/1.1/DTD/svg11.dtd">
<!-- Generated by graphviz version 12.2.1 (0)
 -->
<!-- Title: nix::CmdFlakeInitCommon Pages: 1 -->
<svg width="467pt" height="296pt"
 viewBox="0.00 0.00 467.00 296.00" xmlns="http://www.w3.org/2000/svg" xmlns:xlink="http://www.w3.org/1999/xlink">
<g id="graph0" class="graph" transform="scale(1 1) rotate(0) translate(4 292)">
<title>nix::CmdFlakeInitCommon</title>
<!-- Node1 -->
<g id="Node000001" class="node">
<title>Node1</title>
<g id="a_Node000001"><a xlink:title=" ">
<polygon fill="#999999" stroke="#666666" points="290.88,-20.75 145.12,-20.75 145.12,0 290.88,0 290.88,-20.75"/>
<text text-anchor="middle" x="218" y="-7.25" font-family="Helvetica,sans-Serif" font-size="10.00">nix::CmdFlakeInitCommon</text>
</a>
</g>
</g>
<!-- Node2 -->
<g id="Node000002" class="node">
<title>Node2</title>
<g id="a_Node000002"><a xlink:href="classnix_1_1Args.html" target="_top" xlink:title=" ">
<polygon fill="white" stroke="#bfbfbf" points="248.38,-288 189.62,-288 189.62,-267.25 248.38,-267.25 248.38,-288"/>
<text text-anchor="middle" x="219" y="-274.5" font-family="Helvetica,sans-Serif" font-size="10.00">nix::Args</text>
</a>
</g>
</g>
<!-- Node2&#45;&gt;Node1 -->
<g id="edge1_Node000001_Node000002" class="edge">
<title>Node2&#45;&gt;Node1</title>
<g id="a_edge1_Node000001_Node000002"><a xlink:title=" ">
<path fill="none" stroke="#63b8ff" d="M178.28,-274.55C114.93,-270.18 0,-257.26 0,-220.88 0,-220.88 0,-220.88 0,-91.62 0,-57.7 94.16,-33.7 158.72,-21.24"/>
<polygon fill="#63b8ff" stroke="#63b8ff" points="177.75,-278.02 187.95,-275.17 178.2,-271.03 177.75,-278.02"/>
</a>
</g>
</g>
<!-- Node4 -->
<g id="Node000004" class="node">
<title>Node4</title>
<g id="a_Node000004"><a xlink:href="structnix_1_1Command.html" target="_top" xlink:title=" ">
<polygon fill="white" stroke="#666666" points="367.62,-230.25 280.38,-230.25 280.38,-209.5 367.62,-209.5 367.62,-230.25"/>
<text text-anchor="middle" x="324" y="-216.75" font-family="Helvetica,sans-Serif" font-size="10.00">nix::Command</text>
</a>
</g>
</g>
<!-- Node2&#45;&gt;Node4 -->
<g id="edge4_Node000004_Node000002" class="edge">
<title>Node2&#45;&gt;Node4</title>
<g id="a_edge4_Node000004_Node000002"><a xlink:title=" ">
<path fill="none" stroke="#63b8ff" d="M247.23,-261.63C265.75,-251.8 289.44,-239.23 305.57,-230.66"/>
<polygon fill="#63b8ff" stroke="#63b8ff" points="245.82,-258.42 238.63,-266.2 249.1,-264.61 245.82,-258.42"/>
</a>
</g>
</g>
<!-- Node7 -->
<g id="Node000007" class="node">
<title>Node7</title>
<g id="a_Node000007"><a xlink:href="structnix_1_1MixEvalArgs.html" target="_top" xlink:title=" ">
<polygon fill="white" stroke="#bfbfbf" points="196.88,-160.75 99.12,-160.75 99.12,-140 196.88,-140 196.88,-160.75"/>
<text text-anchor="middle" x="148" y="-147.25" font-family="Helvetica,sans-Serif" font-size="10.00">nix::MixEvalArgs</text>
</a>
</g>
</g>
<!-- Node2&#45;&gt;Node7 -->
<g id="edge9_Node000007_Node000002" class="edge">
<title>Node2&#45;&gt;Node7</title>
<g id="a_edge9_Node000007_Node000002"><a xlink:title=" ">
<path fill="none" stroke="#63b8ff" d="M194.8,-260.18C184.81,-252.23 173.97,-241.89 167,-230.25 153.54,-207.77 149.61,-176.32 148.47,-160.8"/>
<polygon fill="#63b8ff" stroke="#63b8ff" points="192.64,-262.93 202.74,-266.12 196.83,-257.33 192.64,-262.93"/>
</a>
</g>
</g>
<!-- Node8 -->
<g id="Node000008" class="node">
<title>Node8</title>
<g id="a_Node000008"><a xlink:href="structnix_1_1MixRepair.html" target="_top" xlink:title=" ">
<polygon fill="white" stroke="#bfbfbf" points="262.25,-230.25 175.75,-230.25 175.75,-209.5 262.25,-209.5 262.25,-230.25"/>
<text text-anchor="middle" x="219" y="-216.75" font-family="Helvetica,sans-Serif" font-size="10.00">nix::MixRepair</text>
</a>
</g>
</g>
<!-- Node2&#45;&gt;Node8 -->
<g id="edge11_Node000008_Node000002" class="edge">
<title>Node2&#45;&gt;Node8</title>
<g id="a_edge11_Node000008_Node000002"><a xlink:title=" ">
<path fill="none" stroke="#63b8ff" d="M219,-255.68C219,-247.02 219,-237.4 219,-230.47"/>
<polygon fill="#63b8ff" stroke="#63b8ff" points="215.5,-255.4 219,-265.4 222.5,-255.4 215.5,-255.4"/>
</a>
</g>
</g>
<!-- Node3 -->
<g id="Node000003" class="node">
<title>Node3</title>
<g id="a_Node000003"><a xlink:href="classnix_1_1MultiCommand.html" target="_top" xlink:title=" ">
<polygon fill="white" stroke="#666666" points="459,-160.75 347,-160.75 347,-140 459,-140 459,-160.75"/>
<text text-anchor="middle" x="403" y="-147.25" font-family="Helvetica,sans-Serif" font-size="10.00">nix::MultiCommand</text>
</a>
</g>
</g>
<!-- Node3&#45;&gt;Node2 -->
<g id="edge2_Node000002_Node000003" class="edge">
<title>Node3&#45;&gt;Node2</title>
<g id="a_edge2_Node000002_Node000003"><a xlink:title=" ">
<path fill="none" stroke="#9a32cd" stroke-dasharray="5,2" d="M401.38,-172.56C398.9,-190.3 392.68,-215.08 377,-230.25 342.07,-264.04 283.86,-273.41 248.69,-275.88"/>
<polygon fill="#9a32cd" stroke="#9a32cd" points="404.86,-172.94 402.43,-162.63 397.89,-172.2 404.86,-172.94"/>
</a>
</g>
<text text-anchor="middle" x="408.23" y="-216.75" font-family="Helvetica,sans-Serif" font-size="10.00" fill="grey"> parent</text>
</g>
<!-- Node4&#45;&gt;Node3 -->
<g id="edge3_Node000003_Node000004" class="edge">
<title>Node4&#45;&gt;Node3</title>
<g id="a_edge3_Node000003_Node000004"><a xlink:title=" ">
<path fill="none" stroke="#63b8ff" d="M343.9,-201.87C358.91,-189.05 378.98,-171.9 391.45,-161.25"/>
<polygon fill="#63b8ff" stroke="#63b8ff" points="341.8,-199.06 336.47,-208.22 346.35,-204.39 341.8,-199.06"/>
</a>
</g>
</g>
<!-- Node6 -->
<g id="Node000006" class="node">
<title>Node6</title>
<g id="a_Node000006"><a xlink:href="structnix_1_1StoreCommand.html" target="_top" xlink:title=" ">
<polygon fill="white" stroke="#666666" points="328.38,-160.75 215.62,-160.75 215.62,-140 328.38,-140 328.38,-160.75"/>
<text text-anchor="middle" x="272" y="-147.25" font-family="Helvetica,sans-Serif" font-size="10.00">nix::StoreCommand</text>
</a>
</g>
</g>
<!-- Node4&#45;&gt;Node6 -->
<g id="edge7_Node000006_Node000004" class="edge">
<title>Node4&#45;&gt;Node6</title>
<g id="a_edge7_Node000006_Node000004"><a xlink:title=" ">
<path fill="none" stroke="#63b8ff" d="M309.73,-200.35C299.92,-187.62 287.31,-171.25 279.44,-161.03"/>
<polygon fill="#63b8ff" stroke="#63b8ff" points="306.75,-202.22 315.63,-208 312.3,-197.95 306.75,-202.22"/>
</a>
</g>
</g>
<!-- Node5 -->
<g id="Node000005" class="node">
<title>Node5</title>
<g id="a_Node000005"><a xlink:href="structnix_1_1EvalCommand.html" target="_top" xlink:title=" ">
<polygon fill="white" stroke="#666666" points="202.12,-103 93.88,-103 93.88,-82.25 202.12,-82.25 202.12,-103"/>
<text text-anchor="middle" x="148" y="-89.5" font-family="Helvetica,sans-Serif" font-size="10.00">nix::EvalCommand</text>
</a>
</g>
</g>
<!-- Node5&#45;&gt;Node1 -->
<g id="edge5_Node000001_Node000005" class="edge">
<title>Node5&#45;&gt;Node1</title>
<g id="a_edge5_Node000001_Node000005"><a xlink:title=" ">
<path fill="none" stroke="#63b8ff" d="M163.78,-73.53C178.06,-57.17 198.52,-33.71 209.78,-20.8"/>
<polygon fill="#63b8ff" stroke="#63b8ff" points="161.51,-70.81 157.58,-80.64 166.79,-75.41 161.51,-70.81"/>
</a>
</g>
</g>
<!-- Node6&#45;&gt;Node5 -->
<g id="edge6_Node000005_Node000006" class="edge">
<title>Node6&#45;&gt;Node5</title>
<g id="a_edge6_Node000005_Node000006"><a xlink:title=" ">
<path fill="none" stroke="#63b8ff" d="M239.88,-134.93C217.8,-125.01 189.07,-112.09 169.66,-103.37"/>
<polygon fill="#63b8ff" stroke="#63b8ff" points="238.18,-138.01 248.74,-138.92 241.05,-131.62 238.18,-138.01"/>
</a>
</g>
</g>
<!-- Node7&#45;&gt;Node5 -->
<g id="edge8_Node000005_Node000007" class="edge">
<title>Node7&#45;&gt;Node5</title>
<g id="a_edge8_Node000005_Node000007"><a xlink:title=" ">
<path fill="none" stroke="#63b8ff" d="M148,-128.43C148,-119.77 148,-110.15 148,-103.22"/>
<polygon fill="#63b8ff" stroke="#63b8ff" points="144.5,-128.15 148,-138.15 151.5,-128.15 144.5,-128.15"/>
</a>
</g>
</g>
<!-- Node8&#45;&gt;Node7 -->
<g id="edge10_Node000007_Node000008" class="edge">
<title>Node8&#45;&gt;Node7</title>
<g id="a_edge10_Node000007_Node000008"><a xlink:title=" ">
<path fill="none" stroke="#63b8ff" d="M200.68,-201.46C187.15,-188.59 169.22,-171.55 158.15,-161.03"/>
<polygon fill="#63b8ff" stroke="#63b8ff" points="198.07,-203.81 207.73,-208.16 202.89,-198.73 198.07,-203.81"/>
</a>
</g>
</g>
<!-- Node9 -->
<g id="Node000009" class="node">
<title>Node9</title>
<g id="a_Node000009"><a xlink:href="structnix_1_1SearchPath.html" target="_top" xlink:title=" ">
<polygon fill="white" stroke="#666666" points="119.5,-230.25 28.5,-230.25 28.5,-209.5 119.5,-209.5 119.5,-230.25"/>
<text text-anchor="middle" x="74" y="-216.75" font-family="Helvetica,sans-Serif" font-size="10.00">nix::SearchPath</text>
</a>
</g>
</g>
<!-- Node9&#45;&gt;Node7 -->
<g id="edge12_Node000007_Node000009" class="edge">
<title>Node9&#45;&gt;Node7</title>
<g id="a_edge12_Node000007_Node000009"><a xlink:title=" ">
<path fill="none" stroke="#9a32cd" stroke-dasharray="5,2" d="M71.82,-197.79C72.16,-191.14 73.69,-184.13 77.75,-178.75 83.74,-170.81 92.37,-165.17 101.53,-161.16"/>
<polygon fill="#9a32cd" stroke="#9a32cd" points="68.32,-197.91 72.2,-207.77 75.32,-197.64 68.32,-197.91"/>
</a>
</g>
<text text-anchor="middle" x="105.88" y="-182" font-family="Helvetica,sans-Serif" font-size="10.00" fill="grey"> searchPath</text>
</g>
<!-- Node10 -->
<g id="Node000010" class="node">
<title>Node10</title>
<g id="a_Node000010"><a xlink:title=" ">
<polygon fill="white" stroke="#bfbfbf" points="263.88,-103 220.12,-103 220.12,-82.25 263.88,-82.25 263.88,-103"/>
<text text-anchor="middle" x="242" y="-89.5" font-family="Helvetica,sans-Serif" font-size="10.00">string</text>
</a>
</g>
</g>
<!-- Node10&#45;&gt;Node1 -->
<g id="edge13_Node000001_Node000010" class="edge">
<title>Node10&#45;&gt;Node1</title>
<g id="a_edge13_Node000001_Node000010"><a xlink:title=" ">
<path fill="none" stroke="#9a32cd" stroke-dasharray="5,2" d="M235.9,-71.22C231.05,-55.02 224.5,-33.11 220.82,-20.8"/>
<polygon fill="#9a32cd" stroke="#9a32cd" points="232.4,-71.76 238.62,-80.33 239.11,-69.75 232.4,-71.76"/>
</a>
</g>
<text text-anchor="middle" x="262.8" y="-54.75" font-family="Helvetica,sans-Serif" font-size="10.00" fill="grey"> destDir</text>
<text text-anchor="middle" x="262.8" y="-42" font-family="Helvetica,sans-Serif" font-size="10.00" fill="grey">templateUrl</text>
</g>
<!-- Node11 -->
<g id="Node000011" class="node">
<title>Node11</title>
<g id="a_Node000011"><a xlink:href="structnix_1_1flake_1_1LockFlags.html" target="_top" xlink:title=" ">
<polygon fill="white" stroke="#bfbfbf" points="396.5,-103 281.5,-103 281.5,-82.25 396.5,-82.25 396.5,-103"/>
<text text-anchor="middle" x="339" y="-89.5" font-family="Helvetica,sans-Serif" font-size="10.00">nix::flake::LockFlags</text>
</a>
</g>
</g>
<!-- Node11&#45;&gt;Node1 -->
<g id="edge14_Node000001_Node000011" class="edge">
<title>Node11&#45;&gt;Node1</title>
<g id="a_edge14_Node000001_Node000011"><a xlink:title=" ">
<path fill="none" stroke="#9a32cd" stroke-dasharray="5,2" d="M327.45,-72.67C319.76,-61.44 308.75,-47.71 296,-38.75 285.08,-31.07 271.8,-25.36 259.32,-21.2"/>
<polygon fill="#9a32cd" stroke="#9a32cd" points="324.33,-74.3 332.7,-80.79 330.21,-70.5 324.33,-74.3"/>
</a>
</g>
<text text-anchor="middle" x="345.52" y="-48.38" font-family="Helvetica,sans-Serif" font-size="10.00" fill="grey"> lockFlags</text>
</g>
</g>
</svg>
