<?xml version="1.0" encoding="UTF-8" standalone="no"?>
<!DOCTYPE svg PUBLIC "-//W3C//DTD SVG 1.1//EN"
 "http://www.w3.org/Graphics/SVG/1.1/DTD/svg11.dtd">
<!-- Generated by graphviz version 12.2.1 (0)
 -->
<!-- Title: nix::MixProfile Pages: 1 -->
<svg width="275pt" height="156pt"
 viewBox="0.00 0.00 274.75 156.00" xmlns="http://www.w3.org/2000/svg" xmlns:xlink="http://www.w3.org/1999/xlink">
<g id="graph0" class="graph" transform="scale(1 1) rotate(0) translate(4 152)">
<title>nix::MixProfile</title>
<!-- Node1 -->
<g id="Node000001" class="node">
<title>Node1</title>
<g id="a_Node000001"><a xlink:title=" ">
<polygon fill="#999999" stroke="#666666" points="99.25,-20.75 13.5,-20.75 13.5,0 99.25,0 99.25,-20.75"/>
<text text-anchor="middle" x="56.38" y="-7.25" font-family="Helvetica,sans-Serif" font-size="10.00">nix::MixProfile</text>
</a>
</g>
</g>
<!-- Node2 -->
<g id="Node000002" class="node">
<title>Node2</title>
<g id="a_Node000002"><a xlink:href="structnix_1_1StoreCommand.html" target="_top" xlink:title=" ">
<polygon fill="white" stroke="#666666" points="112.75,-90.25 0,-90.25 0,-69.5 112.75,-69.5 112.75,-90.25"/>
<text text-anchor="middle" x="56.38" y="-76.75" font-family="Helvetica,sans-Serif" font-size="10.00">nix::StoreCommand</text>
</a>
</g>
</g>
<!-- Node2&#45;&gt;Node1 -->
<g id="edge1_Node000001_Node000002" class="edge">
<title>Node2&#45;&gt;Node1</title>
<g id="a_edge1_Node000001_Node000002"><a xlink:title=" ">
<path fill="none" stroke="#63b8ff" d="M56.38,-58.07C56.38,-45.72 56.38,-30.65 56.38,-21.03"/>
<polygon fill="#63b8ff" stroke="#63b8ff" points="52.88,-57.69 56.38,-67.69 59.88,-57.69 52.88,-57.69"/>
</a>
</g>
</g>
<!-- Node3 -->
<g id="Node000003" class="node">
<title>Node3</title>
<g id="a_Node000003"><a xlink:href="structnix_1_1Command.html" target="_top" xlink:title=" ">
<polygon fill="white" stroke="#666666" points="230,-148 142.75,-148 142.75,-127.25 230,-127.25 230,-148"/>
<text text-anchor="middle" x="186.38" y="-134.5" font-family="Helvetica,sans-Serif" font-size="10.00">nix::Command</text>
</a>
</g>
</g>
<!-- Node3&#45;&gt;Node2 -->
<g id="edge2_Node000002_Node000003" class="edge">
<title>Node3&#45;&gt;Node2</title>
<g id="a_edge2_Node000002_Node000003"><a xlink:title=" ">
<path fill="none" stroke="#63b8ff" d="M153.02,-122.32C129.83,-112.37 99.53,-99.38 79.09,-90.62"/>
<polygon fill="#63b8ff" stroke="#63b8ff" points="151.47,-125.47 162.04,-126.19 154.23,-119.03 151.47,-125.47"/>
</a>
</g>
</g>
<!-- Node5 -->
<g id="Node000005" class="node">
<title>Node5</title>
<g id="a_Node000005"><a xlink:href="classnix_1_1MultiCommand.html" target="_top" xlink:title=" ">
<polygon fill="white" stroke="#666666" points="242.38,-90.25 130.38,-90.25 130.38,-69.5 242.38,-69.5 242.38,-90.25"/>
<text text-anchor="middle" x="186.38" y="-76.75" font-family="Helvetica,sans-Serif" font-size="10.00">nix::MultiCommand</text>
</a>
</g>
</g>
<!-- Node3&#45;&gt;Node5 -->
<g id="edge5_Node000005_Node000003" class="edge">
<title>Node3&#45;&gt;Node5</title>
<g id="a_edge5_Node000005_Node000003"><a xlink:title=" ">
<path fill="none" stroke="#63b8ff" d="M186.38,-115.68C186.38,-107.02 186.38,-97.4 186.38,-90.47"/>
<polygon fill="#63b8ff" stroke="#63b8ff" points="182.88,-115.4 186.38,-125.4 189.88,-115.4 182.88,-115.4"/>
</a>
</g>
</g>
<!-- Node4 -->
<g id="Node000004" class="node">
<title>Node4</title>
<g id="a_Node000004"><a xlink:href="classnix_1_1Args.html" target="_top" xlink:title=" ">
<polygon fill="white" stroke="#bfbfbf" points="266.75,-20.75 208,-20.75 208,0 266.75,0 266.75,-20.75"/>
<text text-anchor="middle" x="237.38" y="-7.25" font-family="Helvetica,sans-Serif" font-size="10.00">nix::Args</text>
</a>
</g>
</g>
<!-- Node4&#45;&gt;Node3 -->
<g id="edge3_Node000003_Node000004" class="edge">
<title>Node4&#45;&gt;Node3</title>
<g id="a_edge3_Node000003_Node000004"><a xlink:title=" ">
<path fill="none" stroke="#63b8ff" d="M251.86,-30.48C253.3,-33.15 254.53,-35.94 255.38,-38.75 261.96,-60.74 262.92,-70.41 251.38,-90.25 241.68,-106.9 223.35,-119.15 208.62,-126.86"/>
<polygon fill="#63b8ff" stroke="#63b8ff" points="254.95,-28.81 246.57,-22.33 249.08,-32.62 254.95,-28.81"/>
</a>
</g>
</g>
<!-- Node5&#45;&gt;Node4 -->
<g id="edge4_Node000004_Node000005" class="edge">
<title>Node5&#45;&gt;Node4</title>
<g id="a_edge4_Node000004_Node000005"><a xlink:title=" ">
<path fill="none" stroke="#9a32cd" stroke-dasharray="5,2" d="M200.37,-60.35C209.99,-47.62 222.36,-31.25 230.08,-21.03"/>
<polygon fill="#9a32cd" stroke="#9a32cd" points="197.83,-57.91 194.59,-68 203.42,-62.13 197.83,-57.91"/>
</a>
</g>
<text text-anchor="middle" x="233.69" y="-42" font-family="Helvetica,sans-Serif" font-size="10.00" fill="grey"> parent</text>
</g>
</g>
</svg>
