<?xml version="1.0" encoding="UTF-8" standalone="no"?>
<!DOCTYPE svg PUBLIC "-//W3C//DTD SVG 1.1//EN"
 "http://www.w3.org/Graphics/SVG/1.1/DTD/svg11.dtd">
<!-- Generated by graphviz version 12.2.1 (0)
 -->
<!-- Title: nix::fetchers::CurlInputScheme Pages: 1 -->
<svg width="290pt" height="168pt"
 viewBox="0.00 0.00 290.25 167.75" xmlns="http://www.w3.org/2000/svg" xmlns:xlink="http://www.w3.org/1999/xlink">
<g id="graph0" class="graph" transform="scale(1 1) rotate(0) translate(4 163.75)">
<title>nix::fetchers::CurlInputScheme</title>
<!-- Node1 -->
<g id="Node000001" class="node">
<title>Node1</title>
<g id="a_Node000001"><a xlink:title=" ">
<polygon fill="#999999" stroke="#666666" points="200.88,-103 73.88,-103 73.88,-69.5 200.88,-69.5 200.88,-103"/>
<text text-anchor="start" x="81.88" y="-89.5" font-family="Helvetica,sans-Serif" font-size="10.00">nix::fetchers::CurlInput</text>
<text text-anchor="middle" x="137.38" y="-76.75" font-family="Helvetica,sans-Serif" font-size="10.00">Scheme</text>
</a>
</g>
</g>
<!-- Node3 -->
<g id="Node000003" class="node">
<title>Node3</title>
<g id="a_Node000003"><a xlink:href="structnix_1_1fetchers_1_1FileInputScheme.html" target="_top" xlink:title=" ">
<polygon fill="white" stroke="#bfbfbf" points="124.75,-33.5 0,-33.5 0,0 124.75,0 124.75,-33.5"/>
<text text-anchor="start" x="8" y="-20" font-family="Helvetica,sans-Serif" font-size="10.00">nix::fetchers::FileInput</text>
<text text-anchor="middle" x="62.38" y="-7.25" font-family="Helvetica,sans-Serif" font-size="10.00">Scheme</text>
</a>
</g>
</g>
<!-- Node1&#45;&gt;Node3 -->
<g id="edge2_Node000001_Node000003" class="edge">
<title>Node1&#45;&gt;Node3</title>
<g id="a_edge2_Node000001_Node000003"><a xlink:title=" ">
<path fill="none" stroke="#63b8ff" d="M111.05,-61.56C100.87,-52.4 89.48,-42.15 80.28,-33.87"/>
<polygon fill="#63b8ff" stroke="#63b8ff" points="108.7,-64.15 118.48,-68.24 113.38,-58.95 108.7,-64.15"/>
</a>
</g>
</g>
<!-- Node4 -->
<g id="Node000004" class="node">
<title>Node4</title>
<g id="a_Node000004"><a xlink:href="structnix_1_1fetchers_1_1TarballInputScheme.html" target="_top" xlink:title=" ">
<polygon fill="white" stroke="#bfbfbf" points="282.25,-33.5 142.5,-33.5 142.5,0 282.25,0 282.25,-33.5"/>
<text text-anchor="start" x="150.5" y="-20" font-family="Helvetica,sans-Serif" font-size="10.00">nix::fetchers::TarballInput</text>
<text text-anchor="middle" x="212.38" y="-7.25" font-family="Helvetica,sans-Serif" font-size="10.00">Scheme</text>
</a>
</g>
</g>
<!-- Node1&#45;&gt;Node4 -->
<g id="edge3_Node000001_Node000004" class="edge">
<title>Node1&#45;&gt;Node4</title>
<g id="a_edge3_Node000001_Node000004"><a xlink:title=" ">
<path fill="none" stroke="#63b8ff" d="M163.7,-61.56C173.88,-52.4 185.27,-42.15 194.47,-33.87"/>
<polygon fill="#63b8ff" stroke="#63b8ff" points="161.37,-58.95 156.27,-68.24 166.05,-64.15 161.37,-58.95"/>
</a>
</g>
</g>
<!-- Node2 -->
<g id="Node000002" class="node">
<title>Node2</title>
<g id="a_Node000002"><a xlink:href="structnix_1_1fetchers_1_1InputScheme.html" target="_top" xlink:title=" ">
<polygon fill="white" stroke="#666666" points="210.62,-159.75 64.12,-159.75 64.12,-139 210.62,-139 210.62,-159.75"/>
<text text-anchor="middle" x="137.38" y="-146.25" font-family="Helvetica,sans-Serif" font-size="10.00">nix::fetchers::InputScheme</text>
</a>
</g>
</g>
<!-- Node2&#45;&gt;Node1 -->
<g id="edge1_Node000001_Node000002" class="edge">
<title>Node2&#45;&gt;Node1</title>
<g id="a_edge1_Node000001_Node000002"><a xlink:title=" ">
<path fill="none" stroke="#63b8ff" d="M137.38,-127.09C137.38,-119.35 137.38,-110.72 137.38,-103.48"/>
<polygon fill="#63b8ff" stroke="#63b8ff" points="133.88,-127.04 137.38,-137.04 140.88,-127.04 133.88,-127.04"/>
</a>
</g>
</g>
</g>
</svg>
