<?xml version="1.0" encoding="UTF-8" standalone="no"?>
<!DOCTYPE svg PUBLIC "-//W3C//DTD SVG 1.1//EN"
 "http://www.w3.org/Graphics/SVG/1.1/DTD/svg11.dtd">
<!-- Generated by graphviz version 12.2.1 (0)
 -->
<!-- Title: nix::flake::Flake Pages: 1 -->
<svg width="281pt" height="193pt"
 viewBox="0.00 0.00 280.88 193.25" xmlns="http://www.w3.org/2000/svg" xmlns:xlink="http://www.w3.org/1999/xlink">
<g id="graph0" class="graph" transform="scale(1 1) rotate(0) translate(4 189.25)">
<title>nix::flake::Flake</title>
<!-- Node1 -->
<g id="Node000001" class="node">
<title>Node1</title>
<g id="a_Node000001"><a xlink:title=" ">
<polygon fill="#999999" stroke="#666666" points="205,-20.75 112.5,-20.75 112.5,0 205,0 205,-20.75"/>
<text text-anchor="middle" x="158.75" y="-7.25" font-family="Helvetica,sans-Serif" font-size="10.00">nix::flake::Flake</text>
</a>
</g>
</g>
<!-- Node2 -->
<g id="Node000002" class="node">
<title>Node2</title>
<g id="a_Node000002"><a xlink:href="structnix_1_1FlakeRef.html" target="_top" xlink:title=" ">
<polygon fill="white" stroke="#666666" points="140.62,-115.75 60.88,-115.75 60.88,-95 140.62,-95 140.62,-115.75"/>
<text text-anchor="middle" x="100.75" y="-102.25" font-family="Helvetica,sans-Serif" font-size="10.00">nix::FlakeRef</text>
</a>
</g>
</g>
<!-- Node2&#45;&gt;Node1 -->
<g id="edge1_Node000001_Node000002" class="edge">
<title>Node2&#45;&gt;Node1</title>
<g id="a_edge1_Node000001_Node000002"><a xlink:title=" ">
<path fill="none" stroke="#9a32cd" stroke-dasharray="5,2" d="M102.54,-83.33C104.58,-69.59 108.93,-51.84 118.25,-38.75 123.47,-31.42 131.31,-25.47 138.7,-21.01"/>
<polygon fill="#9a32cd" stroke="#9a32cd" points="99.08,-82.73 101.42,-93.07 106.04,-83.54 99.08,-82.73"/>
</a>
</g>
<text text-anchor="middle" x="147.5" y="-67.5" font-family="Helvetica,sans-Serif" font-size="10.00" fill="grey"> lockedRef</text>
<text text-anchor="middle" x="147.5" y="-54.75" font-family="Helvetica,sans-Serif" font-size="10.00" fill="grey">originalRef</text>
<text text-anchor="middle" x="147.5" y="-42" font-family="Helvetica,sans-Serif" font-size="10.00" fill="grey">resolvedRef</text>
</g>
<!-- Node3 -->
<g id="Node000003" class="node">
<title>Node3</title>
<g id="a_Node000003"><a xlink:href="structnix_1_1fetchers_1_1Input.html" target="_top" xlink:title=" ">
<polygon fill="white" stroke="#666666" points="107.5,-185.25 0,-185.25 0,-164.5 107.5,-164.5 107.5,-185.25"/>
<text text-anchor="middle" x="53.75" y="-171.75" font-family="Helvetica,sans-Serif" font-size="10.00">nix::fetchers::Input</text>
</a>
</g>
</g>
<!-- Node3&#45;&gt;Node2 -->
<g id="edge2_Node000002_Node000003" class="edge">
<title>Node3&#45;&gt;Node2</title>
<g id="a_edge2_Node000002_Node000003"><a xlink:title=" ">
<path fill="none" stroke="#9a32cd" stroke-dasharray="5,2" d="M66.91,-154.97C75.73,-142.3 86.98,-126.15 94.03,-116.03"/>
<polygon fill="#9a32cd" stroke="#9a32cd" points="64.19,-152.76 61.35,-162.96 69.94,-156.76 64.19,-152.76"/>
</a>
</g>
<text text-anchor="middle" x="95.33" y="-137" font-family="Helvetica,sans-Serif" font-size="10.00" fill="grey"> input</text>
</g>
<!-- Node4 -->
<g id="Node000004" class="node">
<title>Node4</title>
<g id="a_Node000004"><a xlink:title=" ">
<polygon fill="white" stroke="#bfbfbf" points="169.62,-185.25 125.88,-185.25 125.88,-164.5 169.62,-164.5 169.62,-185.25"/>
<text text-anchor="middle" x="147.75" y="-171.75" font-family="Helvetica,sans-Serif" font-size="10.00">string</text>
</a>
</g>
</g>
<!-- Node4&#45;&gt;Node2 -->
<g id="edge3_Node000002_Node000004" class="edge">
<title>Node4&#45;&gt;Node2</title>
<g id="a_edge3_Node000002_Node000004"><a xlink:title=" ">
<path fill="none" stroke="#9a32cd" stroke-dasharray="5,2" d="M134.59,-154.97C125.77,-142.3 114.52,-126.15 107.47,-116.03"/>
<polygon fill="#9a32cd" stroke="#9a32cd" points="131.56,-156.76 140.15,-162.96 137.31,-152.76 131.56,-156.76"/>
</a>
</g>
<text text-anchor="middle" x="144.96" y="-137" font-family="Helvetica,sans-Serif" font-size="10.00" fill="grey"> subdir</text>
</g>
<!-- Node5 -->
<g id="Node000005" class="node">
<title>Node5</title>
<g id="a_Node000005"><a xlink:href="structnix_1_1flake_1_1ConfigFile.html" target="_top" xlink:title=" ">
<polygon fill="white" stroke="#bfbfbf" points="272.88,-115.75 158.62,-115.75 158.62,-95 272.88,-95 272.88,-115.75"/>
<text text-anchor="middle" x="215.75" y="-102.25" font-family="Helvetica,sans-Serif" font-size="10.00">nix::flake::ConfigFile</text>
</a>
</g>
</g>
<!-- Node5&#45;&gt;Node1 -->
<g id="edge4_Node000001_Node000005" class="edge">
<title>Node5&#45;&gt;Node1</title>
<g id="a_edge4_Node000001_Node000005"><a xlink:title=" ">
<path fill="none" stroke="#9a32cd" stroke-dasharray="5,2" d="M206.48,-84.73C199.9,-71.4 190.53,-53.57 180.75,-38.75 176.72,-32.64 171.63,-26.25 167.37,-21.17"/>
<polygon fill="#9a32cd" stroke="#9a32cd" points="203.14,-85.86 210.64,-93.35 209.45,-82.82 203.14,-85.86"/>
</a>
</g>
<text text-anchor="middle" x="217.93" y="-54.75" font-family="Helvetica,sans-Serif" font-size="10.00" fill="grey"> config</text>
</g>
</g>
</svg>
