<?xml version="1.0" encoding="UTF-8" standalone="no"?>
<!DOCTYPE svg PUBLIC "-//W3C//DTD SVG 1.1//EN"
 "http://www.w3.org/Graphics/SVG/1.1/DTD/svg11.dtd">
<!-- Generated by graphviz version 12.2.1 (0)
 -->
<!-- Title: nix::WorkerProtoTest Pages: 1 -->
<svg width="185pt" height="225pt"
 viewBox="0.00 0.00 184.50 224.50" xmlns="http://www.w3.org/2000/svg" xmlns:xlink="http://www.w3.org/1999/xlink">
<g id="graph0" class="graph" transform="scale(1 1) rotate(0) translate(4 220.5)">
<title>nix::WorkerProtoTest</title>
<!-- Node1 -->
<g id="Node000001" class="node">
<title>Node1</title>
<g id="a_Node000001"><a xlink:title=" ">
<polygon fill="#999999" stroke="#666666" points="146.12,-20.75 30.38,-20.75 30.38,0 146.12,0 146.12,-20.75"/>
<text text-anchor="middle" x="88.25" y="-7.25" font-family="Helvetica,sans-Serif" font-size="10.00">nix::WorkerProtoTest</text>
</a>
</g>
</g>
<!-- Node2 -->
<g id="Node000002" class="node">
<title>Node2</title>
<g id="a_Node000002"><a xlink:href="classnix_1_1VersionedProtoTest.html" target="_top" xlink:title=" ">
<polygon fill="white" stroke="#bfbfbf" points="176.5,-90.25 0,-90.25 0,-56.75 176.5,-56.75 176.5,-90.25"/>
<text text-anchor="start" x="8" y="-76.75" font-family="Helvetica,sans-Serif" font-size="10.00">nix::VersionedProtoTest</text>
<text text-anchor="middle" x="88.25" y="-64" font-family="Helvetica,sans-Serif" font-size="10.00">&lt; WorkerProto, workerProtoDir &gt;</text>
</a>
</g>
</g>
<!-- Node2&#45;&gt;Node1 -->
<g id="edge1_Node000001_Node000002" class="edge">
<title>Node2&#45;&gt;Node1</title>
<g id="a_edge1_Node000001_Node000002"><a xlink:title=" ">
<path fill="none" stroke="#63b8ff" d="M88.25,-44.94C88.25,-36.46 88.25,-27.67 88.25,-21.22"/>
<polygon fill="#63b8ff" stroke="#63b8ff" points="84.75,-44.93 88.25,-54.93 91.75,-44.93 84.75,-44.93"/>
</a>
</g>
</g>
<!-- Node3 -->
<g id="Node000003" class="node">
<title>Node3</title>
<g id="a_Node000003"><a xlink:href="classnix_1_1ProtoTest.html" target="_top" xlink:title=" ">
<polygon fill="white" stroke="#bfbfbf" points="149.12,-159.75 27.38,-159.75 27.38,-126.25 149.12,-126.25 149.12,-159.75"/>
<text text-anchor="start" x="35.38" y="-146.25" font-family="Helvetica,sans-Serif" font-size="10.00">nix::ProtoTest&lt; Proto,</text>
<text text-anchor="middle" x="88.25" y="-133.5" font-family="Helvetica,sans-Serif" font-size="10.00"> protocolDir &gt;</text>
</a>
</g>
</g>
<!-- Node3&#45;&gt;Node2 -->
<g id="edge2_Node000002_Node000003" class="edge">
<title>Node3&#45;&gt;Node2</title>
<g id="a_edge2_Node000002_Node000003"><a xlink:title=" ">
<path fill="none" stroke="#63b8ff" d="M88.25,-114.56C88.25,-106.34 88.25,-97.59 88.25,-90.38"/>
<polygon fill="#63b8ff" stroke="#63b8ff" points="84.75,-114.49 88.25,-124.49 91.75,-114.49 84.75,-114.49"/>
</a>
</g>
</g>
<!-- Node4 -->
<g id="Node000004" class="node">
<title>Node4</title>
<g id="a_Node000004"><a xlink:title=" ">
<polygon fill="white" stroke="#bfbfbf" points="125.88,-216.5 50.62,-216.5 50.62,-195.75 125.88,-195.75 125.88,-216.5"/>
<text text-anchor="middle" x="88.25" y="-203" font-family="Helvetica,sans-Serif" font-size="10.00">LibStoreTest</text>
</a>
</g>
</g>
<!-- Node4&#45;&gt;Node3 -->
<g id="edge3_Node000003_Node000004" class="edge">
<title>Node4&#45;&gt;Node3</title>
<g id="a_edge3_Node000003_Node000004"><a xlink:title=" ">
<path fill="none" stroke="#63b8ff" d="M88.25,-183.84C88.25,-176.1 88.25,-167.47 88.25,-160.23"/>
<polygon fill="#63b8ff" stroke="#63b8ff" points="84.75,-183.79 88.25,-193.79 91.75,-183.79 84.75,-183.79"/>
</a>
</g>
</g>
</g>
</svg>
