<?xml version="1.0" encoding="UTF-8" standalone="no"?>
<!DOCTYPE svg PUBLIC "-//W3C//DTD SVG 1.1//EN"
 "http://www.w3.org/Graphics/SVG/1.1/DTD/svg11.dtd">
<!-- Generated by graphviz version 12.2.1 (0)
 -->
<!-- Title: nix::EvalCommand Pages: 1 -->
<svg width="1396pt" height="828pt"
 viewBox="0.00 0.00 1395.50 827.75" xmlns="http://www.w3.org/2000/svg" xmlns:xlink="http://www.w3.org/1999/xlink">
<g id="graph0" class="graph" transform="scale(1 1) rotate(0) translate(4 823.75)">
<title>nix::EvalCommand</title>
<!-- Node1 -->
<g id="Node000001" class="node">
<title>Node1</title>
<g id="a_Node000001"><a xlink:title=" ">
<polygon fill="#999999" stroke="#666666" points="475,-683.75 366.75,-683.75 366.75,-663 475,-663 475,-683.75"/>
<text text-anchor="middle" x="420.88" y="-670.25" font-family="Helvetica,sans-Serif" font-size="10.00">nix::EvalCommand</text>
</a>
</g>
</g>
<!-- Node7 -->
<g id="Node000007" class="node">
<title>Node7</title>
<g id="a_Node000007"><a xlink:href="structnix_1_1CmdFlakeInitCommon.html" target="_top" xlink:title=" ">
<polygon fill="white" stroke="#bfbfbf" points="656.75,-800.75 511,-800.75 511,-780 656.75,-780 656.75,-800.75"/>
<text text-anchor="middle" x="583.88" y="-787.25" font-family="Helvetica,sans-Serif" font-size="10.00">nix::CmdFlakeInitCommon</text>
</a>
</g>
</g>
<!-- Node1&#45;&gt;Node7 -->
<g id="edge8_Node000001_Node000007" class="edge">
<title>Node1&#45;&gt;Node7</title>
<g id="a_edge8_Node000001_Node000007"><a xlink:title=" ">
<path fill="none" stroke="#63b8ff" d="M435.24,-693.66C450.85,-715.75 478.67,-750.58 511,-770.38 517.07,-774.1 523.86,-777.14 530.76,-779.63"/>
<polygon fill="#63b8ff" stroke="#63b8ff" points="438.18,-691.75 429.64,-685.48 432.4,-695.71 438.18,-691.75"/>
</a>
</g>
</g>
<!-- Node10 -->
<g id="Node000010" class="node">
<title>Node10</title>
<g id="a_Node000010"><a xlink:href="structnix_1_1CmdProfileHistory.html" target="_top" xlink:title=" ">
<polygon fill="white" stroke="#bfbfbf" points="646.62,-761.75 521.12,-761.75 521.12,-741 646.62,-741 646.62,-761.75"/>
<text text-anchor="middle" x="583.88" y="-748.25" font-family="Helvetica,sans-Serif" font-size="10.00">nix::CmdProfileHistory</text>
</a>
</g>
</g>
<!-- Node1&#45;&gt;Node10 -->
<g id="edge11_Node000001_Node000010" class="edge">
<title>Node1&#45;&gt;Node10</title>
<g id="a_edge11_Node000001_Node000010"><a xlink:title=" ">
<path fill="none" stroke="#63b8ff" d="M444.42,-690.83C461.8,-703.58 486.87,-720.48 511,-731.38 518.91,-734.95 527.6,-738.02 536.13,-740.61"/>
<polygon fill="#63b8ff" stroke="#63b8ff" points="446.92,-688.34 436.82,-685.15 442.73,-693.94 446.92,-688.34"/>
</a>
</g>
</g>
<!-- Node11 -->
<g id="Node000011" class="node">
<title>Node11</title>
<g id="a_Node000011"><a xlink:href="structnix_1_1CmdProfileList.html" target="_top" xlink:title=" ">
<polygon fill="white" stroke="#bfbfbf" points="637.62,-722.75 530.12,-722.75 530.12,-702 637.62,-702 637.62,-722.75"/>
<text text-anchor="middle" x="583.88" y="-709.25" font-family="Helvetica,sans-Serif" font-size="10.00">nix::CmdProfileList</text>
</a>
</g>
</g>
<!-- Node1&#45;&gt;Node11 -->
<g id="edge12_Node000001_Node000011" class="edge">
<title>Node1&#45;&gt;Node11</title>
<g id="a_edge12_Node000001_Node000011"><a xlink:title=" ">
<path fill="none" stroke="#63b8ff" d="M477.72,-686.9C497.42,-691.68 519.31,-696.98 537.99,-701.5"/>
<polygon fill="#63b8ff" stroke="#63b8ff" points="478.74,-683.55 468.19,-684.6 477.09,-690.35 478.74,-683.55"/>
</a>
</g>
</g>
<!-- Node12 -->
<g id="Node000012" class="node">
<title>Node12</title>
<g id="a_Node000012"><a xlink:href="structnix_1_1CmdProfileRemove.html" target="_top" xlink:title=" ">
<polygon fill="white" stroke="#bfbfbf" points="649.25,-683.75 518.5,-683.75 518.5,-663 649.25,-663 649.25,-683.75"/>
<text text-anchor="middle" x="583.88" y="-670.25" font-family="Helvetica,sans-Serif" font-size="10.00">nix::CmdProfileRemove</text>
</a>
</g>
</g>
<!-- Node1&#45;&gt;Node12 -->
<g id="edge13_Node000001_Node000012" class="edge">
<title>Node1&#45;&gt;Node12</title>
<g id="a_edge13_Node000001_Node000012"><a xlink:title=" ">
<path fill="none" stroke="#63b8ff" d="M486.89,-673.38C497.15,-673.38 507.77,-673.38 518.03,-673.38"/>
<polygon fill="#63b8ff" stroke="#63b8ff" points="487,-669.88 477,-673.38 487,-676.88 487,-669.88"/>
</a>
</g>
</g>
<!-- Node13 -->
<g id="Node000013" class="node">
<title>Node13</title>
<g id="a_Node000013"><a xlink:href="structnix_1_1CmdRegistryPin.html" target="_top" xlink:title=" ">
<polygon fill="white" stroke="#bfbfbf" points="641.38,-644.75 526.38,-644.75 526.38,-624 641.38,-624 641.38,-644.75"/>
<text text-anchor="middle" x="583.88" y="-631.25" font-family="Helvetica,sans-Serif" font-size="10.00">nix::CmdRegistryPin</text>
</a>
</g>
</g>
<!-- Node1&#45;&gt;Node13 -->
<g id="edge14_Node000001_Node000013" class="edge">
<title>Node1&#45;&gt;Node13</title>
<g id="a_edge14_Node000001_Node000013"><a xlink:title=" ">
<path fill="none" stroke="#63b8ff" d="M477.72,-659.85C497.42,-655.07 519.31,-649.77 537.99,-645.25"/>
<polygon fill="#63b8ff" stroke="#63b8ff" points="477.09,-656.4 468.19,-662.15 478.74,-663.2 477.09,-656.4"/>
</a>
</g>
</g>
<!-- Node14 -->
<g id="Node000014" class="node">
<title>Node14</title>
<g id="a_Node000014"><a xlink:href="structnix_1_1CmdUpgradeNix.html" target="_top" xlink:title=" ">
<polygon fill="white" stroke="#bfbfbf" points="642.5,-605.75 525.25,-605.75 525.25,-585 642.5,-585 642.5,-605.75"/>
<text text-anchor="middle" x="583.88" y="-592.25" font-family="Helvetica,sans-Serif" font-size="10.00">nix::CmdUpgradeNix</text>
</a>
</g>
</g>
<!-- Node1&#45;&gt;Node14 -->
<g id="edge15_Node000001_Node000014" class="edge">
<title>Node1&#45;&gt;Node14</title>
<g id="a_edge15_Node000001_Node000014"><a xlink:title=" ">
<path fill="none" stroke="#63b8ff" d="M444.42,-655.92C461.8,-643.17 486.87,-626.27 511,-615.38 518.91,-611.8 527.6,-608.73 536.13,-606.14"/>
<polygon fill="#63b8ff" stroke="#63b8ff" points="442.73,-652.81 436.82,-661.6 446.92,-658.41 442.73,-652.81"/>
</a>
</g>
</g>
<!-- Node15 -->
<g id="Node000015" class="node">
<title>Node15</title>
<g id="a_Node000015"><a xlink:href="structnix_1_1MixFlakeOptions.html" target="_top" xlink:title=" ">
<polygon fill="white" stroke="#666666" points="643.25,-566.75 524.5,-566.75 524.5,-546 643.25,-546 643.25,-566.75"/>
<text text-anchor="middle" x="583.88" y="-553.25" font-family="Helvetica,sans-Serif" font-size="10.00">nix::MixFlakeOptions</text>
</a>
</g>
</g>
<!-- Node1&#45;&gt;Node15 -->
<g id="edge16_Node000001_Node000015" class="edge">
<title>Node1&#45;&gt;Node15</title>
<g id="a_edge16_Node000001_Node000015"><a xlink:title=" ">
<path fill="none" stroke="#63b8ff" d="M435.24,-653.09C450.85,-631 478.67,-596.17 511,-576.38 517.07,-572.65 523.86,-569.61 530.76,-567.12"/>
<polygon fill="#63b8ff" stroke="#63b8ff" points="432.4,-651.04 429.64,-661.27 438.18,-655 432.4,-651.04"/>
</a>
</g>
</g>
<!-- Node2 -->
<g id="Node000002" class="node">
<title>Node2</title>
<g id="a_Node000002"><a xlink:href="structnix_1_1StoreCommand.html" target="_top" xlink:title=" ">
<polygon fill="white" stroke="#666666" points="330.75,-703.75 218,-703.75 218,-683 330.75,-683 330.75,-703.75"/>
<text text-anchor="middle" x="274.38" y="-690.25" font-family="Helvetica,sans-Serif" font-size="10.00">nix::StoreCommand</text>
</a>
</g>
</g>
<!-- Node2&#45;&gt;Node1 -->
<g id="edge1_Node000001_Node000002" class="edge">
<title>Node2&#45;&gt;Node1</title>
<g id="a_edge1_Node000001_Node000002"><a xlink:title=" ">
<path fill="none" stroke="#63b8ff" d="M342.53,-684.08C350.58,-682.97 358.71,-681.84 366.53,-680.76"/>
<polygon fill="#63b8ff" stroke="#63b8ff" points="342.17,-680.6 332.74,-685.43 343.13,-687.53 342.17,-680.6"/>
</a>
</g>
</g>
<!-- Node3 -->
<g id="Node000003" class="node">
<title>Node3</title>
<g id="a_Node000003"><a xlink:href="structnix_1_1Command.html" target="_top" xlink:title=" ">
<polygon fill="white" stroke="#666666" points="182,-703.75 94.75,-703.75 94.75,-683 182,-683 182,-703.75"/>
<text text-anchor="middle" x="138.38" y="-690.25" font-family="Helvetica,sans-Serif" font-size="10.00">nix::Command</text>
</a>
</g>
</g>
<!-- Node3&#45;&gt;Node2 -->
<g id="edge2_Node000002_Node000003" class="edge">
<title>Node3&#45;&gt;Node2</title>
<g id="a_edge2_Node000002_Node000003"><a xlink:title=" ">
<path fill="none" stroke="#63b8ff" d="M193.59,-693.38C201.57,-693.38 209.79,-693.38 217.79,-693.38"/>
<polygon fill="#63b8ff" stroke="#63b8ff" points="193.66,-689.88 183.66,-693.38 193.66,-696.88 193.66,-689.88"/>
</a>
</g>
</g>
<!-- Node4 -->
<g id="Node000004" class="node">
<title>Node4</title>
<g id="a_Node000004"><a xlink:href="classnix_1_1Args.html" target="_top" xlink:title=" ">
<polygon fill="white" stroke="#bfbfbf" points="58.75,-665.75 0,-665.75 0,-645 58.75,-645 58.75,-665.75"/>
<text text-anchor="middle" x="29.38" y="-652.25" font-family="Helvetica,sans-Serif" font-size="10.00">nix::Args</text>
</a>
</g>
</g>
<!-- Node4&#45;&gt;Node3 -->
<g id="edge3_Node000003_Node000004" class="edge">
<title>Node4&#45;&gt;Node3</title>
<g id="a_edge3_Node000003_Node000004"><a xlink:title=" ">
<path fill="none" stroke="#63b8ff" d="M69.58,-669.3C81.97,-673.7 95.46,-678.49 107.12,-682.63"/>
<polygon fill="#63b8ff" stroke="#63b8ff" points="71.07,-666.11 60.48,-666.06 68.73,-672.71 71.07,-666.11"/>
</a>
</g>
</g>
<!-- Node5 -->
<g id="Node000005" class="node">
<title>Node5</title>
<g id="a_Node000005"><a xlink:href="structnix_1_1MixEvalArgs.html" target="_top" xlink:title=" ">
<polygon fill="white" stroke="#bfbfbf" points="323.25,-664.75 225.5,-664.75 225.5,-644 323.25,-644 323.25,-664.75"/>
<text text-anchor="middle" x="274.38" y="-651.25" font-family="Helvetica,sans-Serif" font-size="10.00">nix::MixEvalArgs</text>
</a>
</g>
</g>
<!-- Node4&#45;&gt;Node5 -->
<g id="edge5_Node000005_Node000004" class="edge">
<title>Node4&#45;&gt;Node5</title>
<g id="a_edge5_Node000005_Node000004"><a xlink:title=" ">
<path fill="none" stroke="#63b8ff" d="M70.5,-655.21C112.99,-655.04 180.07,-654.76 225.34,-654.57"/>
<polygon fill="#63b8ff" stroke="#63b8ff" points="70.7,-651.71 60.72,-655.25 70.73,-658.71 70.7,-651.71"/>
</a>
</g>
</g>
<!-- Node6 -->
<g id="Node000006" class="node">
<title>Node6</title>
<g id="a_Node000006"><a xlink:href="structnix_1_1MixRepair.html" target="_top" xlink:title=" ">
<polygon fill="white" stroke="#bfbfbf" points="181.62,-627.75 95.12,-627.75 95.12,-607 181.62,-607 181.62,-627.75"/>
<text text-anchor="middle" x="138.38" y="-614.25" font-family="Helvetica,sans-Serif" font-size="10.00">nix::MixRepair</text>
</a>
</g>
</g>
<!-- Node4&#45;&gt;Node6 -->
<g id="edge7_Node000006_Node000004" class="edge">
<title>Node4&#45;&gt;Node6</title>
<g id="a_edge7_Node000006_Node000004"><a xlink:title=" ">
<path fill="none" stroke="#63b8ff" d="M69.58,-641.45C81.97,-637.05 95.46,-632.26 107.12,-628.12"/>
<polygon fill="#63b8ff" stroke="#63b8ff" points="68.73,-638.04 60.48,-644.69 71.07,-644.64 68.73,-638.04"/>
</a>
</g>
</g>
<!-- Node5&#45;&gt;Node1 -->
<g id="edge4_Node000001_Node000005" class="edge">
<title>Node5&#45;&gt;Node1</title>
<g id="a_edge4_Node000001_Node000005"><a xlink:title=" ">
<path fill="none" stroke="#63b8ff" d="M334.72,-662.18C345.24,-663.56 356.15,-665 366.49,-666.36"/>
<polygon fill="#63b8ff" stroke="#63b8ff" points="335.36,-658.73 324.99,-660.9 334.45,-665.67 335.36,-658.73"/>
</a>
</g>
</g>
<!-- Node6&#45;&gt;Node5 -->
<g id="edge6_Node000005_Node000006" class="edge">
<title>Node6&#45;&gt;Node5</title>
<g id="a_edge6_Node000005_Node000006"><a xlink:title=" ">
<path fill="none" stroke="#63b8ff" d="M189.56,-631.23C204.4,-635.33 220.42,-639.75 234.44,-643.62"/>
<polygon fill="#63b8ff" stroke="#63b8ff" points="190.52,-627.87 179.95,-628.58 188.66,-634.61 190.52,-627.87"/>
</a>
</g>
</g>
<!-- Node8 -->
<g id="Node000008" class="node">
<title>Node8</title>
<g id="a_Node000008"><a xlink:href="structnix_1_1CmdFlakeInit.html" target="_top" xlink:title=" ">
<polygon fill="white" stroke="#bfbfbf" points="814.5,-819.75 713,-819.75 713,-799 814.5,-799 814.5,-819.75"/>
<text text-anchor="middle" x="763.75" y="-806.25" font-family="Helvetica,sans-Serif" font-size="10.00">nix::CmdFlakeInit</text>
</a>
</g>
</g>
<!-- Node7&#45;&gt;Node8 -->
<g id="edge9_Node000007_Node000008" class="edge">
<title>Node7&#45;&gt;Node8</title>
<g id="a_edge9_Node000007_Node000008"><a xlink:title=" ">
<path fill="none" stroke="#63b8ff" d="M668.63,-799.32C683.64,-800.92 698.84,-802.55 712.52,-804.01"/>
<polygon fill="#63b8ff" stroke="#63b8ff" points="669.04,-795.85 658.73,-798.26 668.3,-802.81 669.04,-795.85"/>
</a>
</g>
</g>
<!-- Node9 -->
<g id="Node000009" class="node">
<title>Node9</title>
<g id="a_Node000009"><a xlink:href="structnix_1_1CmdFlakeNew.html" target="_top" xlink:title=" ">
<polygon fill="white" stroke="#bfbfbf" points="817.5,-780.75 710,-780.75 710,-760 817.5,-760 817.5,-780.75"/>
<text text-anchor="middle" x="763.75" y="-767.25" font-family="Helvetica,sans-Serif" font-size="10.00">nix::CmdFlakeNew</text>
</a>
</g>
</g>
<!-- Node7&#45;&gt;Node9 -->
<g id="edge10_Node000007_Node000009" class="edge">
<title>Node7&#45;&gt;Node9</title>
<g id="a_edge10_Node000007_Node000009"><a xlink:title=" ">
<path fill="none" stroke="#63b8ff" d="M668.39,-780.98C682.4,-779.41 696.59,-777.81 709.56,-776.36"/>
<polygon fill="#63b8ff" stroke="#63b8ff" points="668.27,-777.48 658.73,-782.07 669.06,-784.43 668.27,-777.48"/>
</a>
</g>
</g>
<!-- Node16 -->
<g id="Node000016" class="node">
<title>Node16</title>
<g id="a_Node000016"><a xlink:href="classnix_1_1FlakeCommand.html" target="_top" xlink:title=" ">
<polygon fill="white" stroke="#bfbfbf" points="820.5,-663.75 707,-663.75 707,-643 820.5,-643 820.5,-663.75"/>
<text text-anchor="middle" x="763.75" y="-650.25" font-family="Helvetica,sans-Serif" font-size="10.00">nix::FlakeCommand</text>
</a>
</g>
</g>
<!-- Node15&#45;&gt;Node16 -->
<g id="edge17_Node000015_Node000016" class="edge">
<title>Node15&#45;&gt;Node16</title>
<g id="a_edge17_Node000015_Node000016"><a xlink:title=" ">
<path fill="none" stroke="#63b8ff" d="M643.58,-570.81C648.11,-572.49 652.55,-574.35 656.75,-576.38 694.23,-594.47 732.29,-626.04 750.95,-642.58"/>
<polygon fill="#63b8ff" stroke="#63b8ff" points="644.95,-567.58 634.35,-567.66 642.69,-574.2 644.95,-567.58"/>
</a>
</g>
</g>
<!-- Node26 -->
<g id="Node000026" class="node">
<title>Node26</title>
<g id="a_Node000026"><a xlink:href="structnix_1_1SourceExprCommand.html" target="_top" xlink:title=" ">
<polygon fill="white" stroke="#bfbfbf" points="834.75,-429.75 692.75,-429.75 692.75,-409 834.75,-409 834.75,-429.75"/>
<text text-anchor="middle" x="763.75" y="-416.25" font-family="Helvetica,sans-Serif" font-size="10.00">nix::SourceExprCommand</text>
</a>
</g>
</g>
<!-- Node15&#45;&gt;Node26 -->
<g id="edge27_Node000015_Node000026" class="edge">
<title>Node15&#45;&gt;Node26</title>
<g id="a_edge27_Node000015_Node000026"><a xlink:title=" ">
<path fill="none" stroke="#63b8ff" d="M607.5,-538.95C644.84,-510.19 718.26,-453.64 748.86,-430.08"/>
<polygon fill="#63b8ff" stroke="#63b8ff" points="605.82,-535.83 600.03,-544.7 610.09,-541.37 605.82,-535.83"/>
</a>
</g>
</g>
<!-- Node17 -->
<g id="Node000017" class="node">
<title>Node17</title>
<g id="a_Node000017"><a xlink:href="structnix_1_1CmdFlakeArchive.html" target="_top" xlink:title=" ">
<polygon fill="white" stroke="#bfbfbf" points="1014.25,-819.75 891.75,-819.75 891.75,-799 1014.25,-799 1014.25,-819.75"/>
<text text-anchor="middle" x="953" y="-806.25" font-family="Helvetica,sans-Serif" font-size="10.00">nix::CmdFlakeArchive</text>
</a>
</g>
</g>
<!-- Node16&#45;&gt;Node17 -->
<g id="edge18_Node000016_Node000017" class="edge">
<title>Node16&#45;&gt;Node17</title>
<g id="a_edge18_Node000016_Node000017"><a xlink:title=" ">
<path fill="none" stroke="#63b8ff" d="M779.07,-673.19C805.12,-709 858.69,-781.56 870.75,-789.38 877.09,-793.48 884.21,-796.75 891.52,-799.34"/>
<polygon fill="#63b8ff" stroke="#63b8ff" points="782.1,-671.41 773.4,-665.37 776.44,-675.52 782.1,-671.41"/>
</a>
</g>
</g>
<!-- Node18 -->
<g id="Node000018" class="node">
<title>Node18</title>
<g id="a_Node000018"><a xlink:href="structnix_1_1CmdFlakeCheck.html" target="_top" xlink:title=" ">
<polygon fill="white" stroke="#bfbfbf" points="1010.88,-780.75 895.12,-780.75 895.12,-760 1010.88,-760 1010.88,-780.75"/>
<text text-anchor="middle" x="953" y="-767.25" font-family="Helvetica,sans-Serif" font-size="10.00">nix::CmdFlakeCheck</text>
</a>
</g>
</g>
<!-- Node16&#45;&gt;Node18 -->
<g id="edge19_Node000016_Node000018" class="edge">
<title>Node16&#45;&gt;Node18</title>
<g id="a_edge19_Node000016_Node000018"><a xlink:title=" ">
<path fill="none" stroke="#63b8ff" d="M780.32,-672.53C799.34,-694.64 833.61,-730.5 870.75,-750.38 878.18,-754.35 886.41,-757.55 894.7,-760.12"/>
<polygon fill="#63b8ff" stroke="#63b8ff" points="783.22,-670.54 774.11,-665.14 777.86,-675.05 783.22,-670.54"/>
</a>
</g>
</g>
<!-- Node19 -->
<g id="Node000019" class="node">
<title>Node19</title>
<g id="a_Node000019"><a xlink:href="structnix_1_1CmdFlakeClone.html" target="_top" xlink:title=" ">
<polygon fill="white" stroke="#bfbfbf" points="1009.75,-741.75 896.25,-741.75 896.25,-721 1009.75,-721 1009.75,-741.75"/>
<text text-anchor="middle" x="953" y="-728.25" font-family="Helvetica,sans-Serif" font-size="10.00">nix::CmdFlakeClone</text>
</a>
</g>
</g>
<!-- Node16&#45;&gt;Node19 -->
<g id="edge20_Node000016_Node000019" class="edge">
<title>Node16&#45;&gt;Node19</title>
<g id="a_edge20_Node000016_Node000019"><a xlink:title=" ">
<path fill="none" stroke="#63b8ff" d="M791.08,-670.3C811.98,-683.1 842.32,-700.31 870.75,-711.38 879.82,-714.9 889.71,-717.96 899.37,-720.54"/>
<polygon fill="#63b8ff" stroke="#63b8ff" points="792.97,-667.35 782.63,-665.04 789.27,-673.29 792.97,-667.35"/>
</a>
</g>
</g>
<!-- Node20 -->
<g id="Node000020" class="node">
<title>Node20</title>
<g id="a_Node000020"><a xlink:href="structnix_1_1CmdFlakeLock.html" target="_top" xlink:title=" ">
<polygon fill="white" stroke="#bfbfbf" points="1007.12,-702.75 898.88,-702.75 898.88,-682 1007.12,-682 1007.12,-702.75"/>
<text text-anchor="middle" x="953" y="-689.25" font-family="Helvetica,sans-Serif" font-size="10.00">nix::CmdFlakeLock</text>
</a>
</g>
</g>
<!-- Node16&#45;&gt;Node20 -->
<g id="edge21_Node000016_Node000020" class="edge">
<title>Node16&#45;&gt;Node20</title>
<g id="a_edge21_Node000016_Node000020"><a xlink:title=" ">
<path fill="none" stroke="#63b8ff" d="M828.11,-666.57C851.43,-671.43 877.56,-676.87 899.8,-681.5"/>
<polygon fill="#63b8ff" stroke="#63b8ff" points="828.89,-663.16 818.39,-664.55 827.47,-670.01 828.89,-663.16"/>
</a>
</g>
</g>
<!-- Node21 -->
<g id="Node000021" class="node">
<title>Node21</title>
<g id="a_Node000021"><a xlink:href="structnix_1_1CmdFlakeMetadata.html" target="_top" xlink:title=" ">
<polygon fill="white" stroke="#bfbfbf" points="1019.12,-663.75 886.88,-663.75 886.88,-643 1019.12,-643 1019.12,-663.75"/>
<text text-anchor="middle" x="953" y="-650.25" font-family="Helvetica,sans-Serif" font-size="10.00">nix::CmdFlakeMetadata</text>
</a>
</g>
</g>
<!-- Node16&#45;&gt;Node21 -->
<g id="edge22_Node000016_Node000021" class="edge">
<title>Node16&#45;&gt;Node21</title>
<g id="a_edge22_Node000016_Node000021"><a xlink:title=" ">
<path fill="none" stroke="#63b8ff" d="M832.33,-653.38C850.03,-653.38 869.07,-653.38 886.64,-653.38"/>
<polygon fill="#63b8ff" stroke="#63b8ff" points="832.44,-649.88 822.44,-653.38 832.44,-656.88 832.44,-649.88"/>
</a>
</g>
</g>
<!-- Node23 -->
<g id="Node000023" class="node">
<title>Node23</title>
<g id="a_Node000023"><a xlink:href="structnix_1_1CmdFlakePrefetch.html" target="_top" xlink:title=" ">
<polygon fill="white" stroke="#bfbfbf" points="1016.12,-624.75 889.88,-624.75 889.88,-604 1016.12,-604 1016.12,-624.75"/>
<text text-anchor="middle" x="953" y="-611.25" font-family="Helvetica,sans-Serif" font-size="10.00">nix::CmdFlakePrefetch</text>
</a>
</g>
</g>
<!-- Node16&#45;&gt;Node23 -->
<g id="edge24_Node000016_Node000023" class="edge">
<title>Node16&#45;&gt;Node23</title>
<g id="a_edge24_Node000016_Node000023"><a xlink:title=" ">
<path fill="none" stroke="#63b8ff" d="M828.11,-640.18C851.43,-635.32 877.56,-629.88 899.8,-625.25"/>
<polygon fill="#63b8ff" stroke="#63b8ff" points="827.47,-636.74 818.39,-642.2 828.89,-643.59 827.47,-636.74"/>
</a>
</g>
</g>
<!-- Node24 -->
<g id="Node000024" class="node">
<title>Node24</title>
<g id="a_Node000024"><a xlink:href="structnix_1_1CmdFlakeShow.html" target="_top" xlink:title=" ">
<polygon fill="white" stroke="#bfbfbf" points="1009,-585.75 897,-585.75 897,-565 1009,-565 1009,-585.75"/>
<text text-anchor="middle" x="953" y="-572.25" font-family="Helvetica,sans-Serif" font-size="10.00">nix::CmdFlakeShow</text>
</a>
</g>
</g>
<!-- Node16&#45;&gt;Node24 -->
<g id="edge25_Node000016_Node000024" class="edge">
<title>Node16&#45;&gt;Node24</title>
<g id="a_edge25_Node000016_Node000024"><a xlink:title=" ">
<path fill="none" stroke="#63b8ff" d="M791.08,-636.45C811.98,-623.65 842.32,-606.44 870.75,-595.38 879.82,-591.85 889.71,-588.79 899.37,-586.21"/>
<polygon fill="#63b8ff" stroke="#63b8ff" points="789.27,-633.46 782.63,-641.71 792.97,-639.4 789.27,-633.46"/>
</a>
</g>
</g>
<!-- Node25 -->
<g id="Node000025" class="node">
<title>Node25</title>
<g id="a_Node000025"><a xlink:href="structnix_1_1CmdFlakeUpdate.html" target="_top" xlink:title=" ">
<polygon fill="white" stroke="#bfbfbf" points="1013.5,-546.75 892.5,-546.75 892.5,-526 1013.5,-526 1013.5,-546.75"/>
<text text-anchor="middle" x="953" y="-533.25" font-family="Helvetica,sans-Serif" font-size="10.00">nix::CmdFlakeUpdate</text>
</a>
</g>
</g>
<!-- Node16&#45;&gt;Node25 -->
<g id="edge26_Node000016_Node000025" class="edge">
<title>Node16&#45;&gt;Node25</title>
<g id="a_edge26_Node000016_Node000025"><a xlink:title=" ">
<path fill="none" stroke="#63b8ff" d="M780.32,-634.22C799.34,-612.11 833.61,-576.25 870.75,-556.38 877.67,-552.67 885.28,-549.65 892.99,-547.17"/>
<polygon fill="#63b8ff" stroke="#63b8ff" points="777.86,-631.7 774.11,-641.61 783.22,-636.21 777.86,-631.7"/>
</a>
</g>
</g>
<!-- Node22 -->
<g id="Node000022" class="node">
<title>Node22</title>
<g id="a_Node000022"><a xlink:href="structnix_1_1CmdFlakeInfo.html" target="_top" xlink:title=" ">
<polygon fill="white" stroke="#bfbfbf" points="1195.25,-663.75 1090.75,-663.75 1090.75,-643 1195.25,-643 1195.25,-663.75"/>
<text text-anchor="middle" x="1143" y="-650.25" font-family="Helvetica,sans-Serif" font-size="10.00">nix::CmdFlakeInfo</text>
</a>
</g>
</g>
<!-- Node21&#45;&gt;Node22 -->
<g id="edge23_Node000021_Node000022" class="edge">
<title>Node21&#45;&gt;Node22</title>
<g id="a_edge23_Node000021_Node000022"><a xlink:title=" ">
<path fill="none" stroke="#63b8ff" d="M1030.81,-653.38C1050.85,-653.38 1071.97,-653.38 1090.36,-653.38"/>
<polygon fill="#63b8ff" stroke="#63b8ff" points="1031,-649.88 1021,-653.38 1031,-656.88 1031,-649.88"/>
</a>
</g>
</g>
<!-- Node27 -->
<g id="Node000027" class="node">
<title>Node27</title>
<g id="a_Node000027"><a xlink:href="structnix_1_1CmdDiffClosures.html" target="_top" xlink:title=" ">
<polygon fill="white" stroke="#bfbfbf" points="1012.38,-507.75 893.62,-507.75 893.62,-487 1012.38,-487 1012.38,-507.75"/>
<text text-anchor="middle" x="953" y="-494.25" font-family="Helvetica,sans-Serif" font-size="10.00">nix::CmdDiffClosures</text>
</a>
</g>
</g>
<!-- Node26&#45;&gt;Node27 -->
<g id="edge28_Node000026_Node000027" class="edge">
<title>Node26&#45;&gt;Node27</title>
<g id="a_edge28_Node000026_Node000027"><a xlink:title=" ">
<path fill="none" stroke="#63b8ff" d="M791.08,-436.3C811.98,-449.1 842.32,-466.31 870.75,-477.38 879.82,-480.9 889.71,-483.96 899.37,-486.54"/>
<polygon fill="#63b8ff" stroke="#63b8ff" points="792.97,-433.35 782.63,-431.04 789.27,-439.29 792.97,-433.35"/>
</a>
</g>
</g>
<!-- Node28 -->
<g id="Node000028" class="node">
<title>Node28</title>
<g id="a_Node000028"><a xlink:href="structnix_1_1CmdFmt.html" target="_top" xlink:title=" ">
<polygon fill="white" stroke="#bfbfbf" points="992.5,-468.75 913.5,-468.75 913.5,-448 992.5,-448 992.5,-468.75"/>
<text text-anchor="middle" x="953" y="-455.25" font-family="Helvetica,sans-Serif" font-size="10.00">nix::CmdFmt</text>
</a>
</g>
</g>
<!-- Node26&#45;&gt;Node28 -->
<g id="edge29_Node000026_Node000028" class="edge">
<title>Node26&#45;&gt;Node28</title>
<g id="a_edge29_Node000026_Node000028"><a xlink:title=" ">
<path fill="none" stroke="#63b8ff" d="M827.91,-432.53C856.17,-438.42 888.57,-445.16 913.18,-450.29"/>
<polygon fill="#63b8ff" stroke="#63b8ff" points="828.89,-429.16 818.39,-430.55 827.47,-436.01 828.89,-429.16"/>
</a>
</g>
</g>
<!-- Node29 -->
<g id="Node000029" class="node">
<title>Node29</title>
<g id="a_Node000029"><a xlink:href="structnix_1_1CmdProfileUpgrade.html" target="_top" xlink:title=" ">
<polygon fill="white" stroke="#bfbfbf" points="1018.75,-429.75 887.25,-429.75 887.25,-409 1018.75,-409 1018.75,-429.75"/>
<text text-anchor="middle" x="953" y="-416.25" font-family="Helvetica,sans-Serif" font-size="10.00">nix::CmdProfileUpgrade</text>
</a>
</g>
</g>
<!-- Node26&#45;&gt;Node29 -->
<g id="edge30_Node000026_Node000029" class="edge">
<title>Node26&#45;&gt;Node29</title>
<g id="a_edge30_Node000026_Node000029"><a xlink:title=" ">
<path fill="none" stroke="#63b8ff" d="M846.31,-419.38C859.89,-419.38 873.81,-419.38 886.92,-419.38"/>
<polygon fill="#63b8ff" stroke="#63b8ff" points="846.52,-415.88 836.52,-419.38 846.52,-422.88 846.52,-415.88"/>
</a>
</g>
</g>
<!-- Node30 -->
<g id="Node000030" class="node">
<title>Node30</title>
<g id="a_Node000030"><a xlink:href="structnix_1_1CmdWhyDepends.html" target="_top" xlink:title=" ">
<polygon fill="white" stroke="#bfbfbf" points="1015,-390.75 891,-390.75 891,-370 1015,-370 1015,-390.75"/>
<text text-anchor="middle" x="953" y="-377.25" font-family="Helvetica,sans-Serif" font-size="10.00">nix::CmdWhyDepends</text>
</a>
</g>
</g>
<!-- Node26&#45;&gt;Node30 -->
<g id="edge31_Node000026_Node000030" class="edge">
<title>Node26&#45;&gt;Node30</title>
<g id="a_edge31_Node000026_Node000030"><a xlink:title=" ">
<path fill="none" stroke="#63b8ff" d="M828.11,-406.18C851.43,-401.32 877.56,-395.88 899.8,-391.25"/>
<polygon fill="#63b8ff" stroke="#63b8ff" points="827.47,-402.74 818.39,-408.2 828.89,-409.59 827.47,-402.74"/>
</a>
</g>
</g>
<!-- Node31 -->
<g id="Node000031" class="node">
<title>Node31</title>
<g id="a_Node000031"><a xlink:href="structnix_1_1InstallableCommand.html" target="_top" xlink:title=" ">
<polygon fill="white" stroke="#666666" points="1022.12,-351.75 883.88,-351.75 883.88,-331 1022.12,-331 1022.12,-351.75"/>
<text text-anchor="middle" x="953" y="-338.25" font-family="Helvetica,sans-Serif" font-size="10.00">nix::InstallableCommand</text>
</a>
</g>
</g>
<!-- Node26&#45;&gt;Node31 -->
<g id="edge32_Node000026_Node000031" class="edge">
<title>Node26&#45;&gt;Node31</title>
<g id="a_edge32_Node000026_Node000031"><a xlink:title=" ">
<path fill="none" stroke="#63b8ff" d="M791.08,-402.45C811.98,-389.65 842.32,-372.44 870.75,-361.38 879.82,-357.85 889.71,-354.79 899.37,-352.21"/>
<polygon fill="#63b8ff" stroke="#63b8ff" points="789.27,-399.46 782.63,-407.71 792.97,-405.4 789.27,-399.46"/>
</a>
</g>
</g>
<!-- Node41 -->
<g id="Node000041" class="node">
<title>Node41</title>
<g id="a_Node000041"><a xlink:href="structnix_1_1RawInstallablesCommand.html" target="_top" xlink:title=" ">
<polygon fill="white" stroke="#666666" points="1035.25,-196.75 870.75,-196.75 870.75,-176 1035.25,-176 1035.25,-196.75"/>
<text text-anchor="middle" x="953" y="-183.25" font-family="Helvetica,sans-Serif" font-size="10.00">nix::RawInstallablesCommand</text>
</a>
</g>
</g>
<!-- Node26&#45;&gt;Node41 -->
<g id="edge42_Node000026_Node000041" class="edge">
<title>Node26&#45;&gt;Node41</title>
<g id="a_edge42_Node000026_Node000041"><a xlink:title=" ">
<path fill="none" stroke="#63b8ff" d="M780.46,-399.82C818.44,-352.57 914.22,-233.39 943.42,-197.05"/>
<polygon fill="#63b8ff" stroke="#63b8ff" points="777.77,-397.59 774.23,-407.58 783.22,-401.98 777.77,-397.59"/>
</a>
</g>
</g>
<!-- Node32 -->
<g id="Node000032" class="node">
<title>Node32</title>
<g id="a_Node000032"><a xlink:href="structnix_1_1CmdBundle.html" target="_top" xlink:title=" ">
<polygon fill="white" stroke="#bfbfbf" points="1189.62,-488.75 1096.38,-488.75 1096.38,-468 1189.62,-468 1189.62,-488.75"/>
<text text-anchor="middle" x="1143" y="-475.25" font-family="Helvetica,sans-Serif" font-size="10.00">nix::CmdBundle</text>
</a>
</g>
</g>
<!-- Node31&#45;&gt;Node32 -->
<g id="edge33_Node000031_Node000032" class="edge">
<title>Node31&#45;&gt;Node32</title>
<g id="a_edge33_Node000031_Node000032"><a xlink:title=" ">
<path fill="none" stroke="#63b8ff" d="M1031.23,-358.12C1032.62,-359.14 1033.96,-360.23 1035.25,-361.38 1069.57,-391.99 1037.46,-427.18 1071.25,-458.38 1078.19,-464.78 1087.03,-469.16 1096.09,-472.14"/>
<polygon fill="#63b8ff" stroke="#63b8ff" points="1033.11,-355.16 1022.74,-352.97 1029.48,-361.15 1033.11,-355.16"/>
</a>
</g>
</g>
<!-- Node33 -->
<g id="Node000033" class="node">
<title>Node33</title>
<g id="a_Node000033"><a xlink:href="structnix_1_1CmdEdit.html" target="_top" xlink:title=" ">
<polygon fill="white" stroke="#bfbfbf" points="1182.12,-449.75 1103.88,-449.75 1103.88,-429 1182.12,-429 1182.12,-449.75"/>
<text text-anchor="middle" x="1143" y="-436.25" font-family="Helvetica,sans-Serif" font-size="10.00">nix::CmdEdit</text>
</a>
</g>
</g>
<!-- Node31&#45;&gt;Node33 -->
<g id="edge34_Node000031_Node000033" class="edge">
<title>Node31&#45;&gt;Node33</title>
<g id="a_edge34_Node000031_Node000033"><a xlink:title=" ">
<path fill="none" stroke="#63b8ff" d="M1028.82,-357.22C1031.05,-358.5 1033.2,-359.88 1035.25,-361.38 1059.8,-379.21 1047.01,-401.13 1071.25,-419.38 1080.63,-426.44 1092.41,-431.01 1103.64,-433.96"/>
<polygon fill="#63b8ff" stroke="#63b8ff" points="1030.53,-354.16 1020.01,-352.91 1027.45,-360.45 1030.53,-354.16"/>
</a>
</g>
</g>
<!-- Node34 -->
<g id="Node000034" class="node">
<title>Node34</title>
<g id="a_Node000034"><a xlink:href="structnix_1_1CmdEval.html" target="_top" xlink:title=" ">
<polygon fill="white" stroke="#bfbfbf" points="1183.25,-410.75 1102.75,-410.75 1102.75,-390 1183.25,-390 1183.25,-410.75"/>
<text text-anchor="middle" x="1143" y="-397.25" font-family="Helvetica,sans-Serif" font-size="10.00">nix::CmdEval</text>
</a>
</g>
</g>
<!-- Node31&#45;&gt;Node34 -->
<g id="edge35_Node000031_Node000034" class="edge">
<title>Node31&#45;&gt;Node34</title>
<g id="a_edge35_Node000031_Node000034"><a xlink:title=" ">
<path fill="none" stroke="#63b8ff" d="M1017.23,-355.32C1023.39,-357.16 1029.48,-359.18 1035.25,-361.38 1052.16,-367.81 1054.45,-373.66 1071.25,-380.38 1081.2,-384.36 1092.24,-387.88 1102.58,-390.82"/>
<polygon fill="#63b8ff" stroke="#63b8ff" points="1018.19,-351.96 1007.62,-352.62 1016.29,-358.7 1018.19,-351.96"/>
</a>
</g>
</g>
<!-- Node35 -->
<g id="Node000035" class="node">
<title>Node35</title>
<g id="a_Node000035"><a xlink:href="structnix_1_1CmdLog.html" target="_top" xlink:title=" ">
<polygon fill="white" stroke="#bfbfbf" points="1181.38,-371.75 1104.62,-371.75 1104.62,-351 1181.38,-351 1181.38,-371.75"/>
<text text-anchor="middle" x="1143" y="-358.25" font-family="Helvetica,sans-Serif" font-size="10.00">nix::CmdLog</text>
</a>
</g>
</g>
<!-- Node31&#45;&gt;Node35 -->
<g id="edge36_Node000031_Node000035" class="edge">
<title>Node31&#45;&gt;Node35</title>
<g id="a_edge36_Node000031_Node000035"><a xlink:title=" ">
<path fill="none" stroke="#63b8ff" d="M1033.55,-349.84C1058.07,-352.45 1083.93,-355.2 1104.25,-357.36"/>
<polygon fill="#63b8ff" stroke="#63b8ff" points="1034.22,-346.39 1023.91,-348.81 1033.48,-353.35 1034.22,-346.39"/>
</a>
</g>
</g>
<!-- Node36 -->
<g id="Node000036" class="node">
<title>Node36</title>
<g id="a_Node000036"><a xlink:href="structnix_1_1CmdRun.html" target="_top" xlink:title=" ">
<polygon fill="white" stroke="#bfbfbf" points="1182.12,-332.75 1103.88,-332.75 1103.88,-312 1182.12,-312 1182.12,-332.75"/>
<text text-anchor="middle" x="1143" y="-319.25" font-family="Helvetica,sans-Serif" font-size="10.00">nix::CmdRun</text>
</a>
</g>
</g>
<!-- Node31&#45;&gt;Node36 -->
<g id="edge37_Node000031_Node000036" class="edge">
<title>Node31&#45;&gt;Node36</title>
<g id="a_edge37_Node000031_Node000036"><a xlink:title=" ">
<path fill="none" stroke="#63b8ff" d="M1033.75,-333.32C1057.88,-330.88 1083.3,-328.31 1103.44,-326.27"/>
<polygon fill="#63b8ff" stroke="#63b8ff" points="1033.51,-329.82 1023.91,-334.31 1034.21,-336.79 1033.51,-329.82"/>
</a>
</g>
</g>
<!-- Node37 -->
<g id="Node000037" class="node">
<title>Node37</title>
<g id="a_Node000037"><a xlink:href="structnix_1_1CmdSearch.html" target="_top" xlink:title=" ">
<polygon fill="white" stroke="#bfbfbf" points="1189.25,-293.75 1096.75,-293.75 1096.75,-273 1189.25,-273 1189.25,-293.75"/>
<text text-anchor="middle" x="1143" y="-280.25" font-family="Helvetica,sans-Serif" font-size="10.00">nix::CmdSearch</text>
</a>
</g>
</g>
<!-- Node31&#45;&gt;Node37 -->
<g id="edge38_Node000031_Node000037" class="edge">
<title>Node31&#45;&gt;Node37</title>
<g id="a_edge38_Node000031_Node000037"><a xlink:title=" ">
<path fill="none" stroke="#63b8ff" d="M996.97,-327.02C1019.1,-319.73 1046.55,-310.87 1071.25,-303.38 1081.39,-300.3 1092.39,-297.12 1102.63,-294.22"/>
<polygon fill="#63b8ff" stroke="#63b8ff" points="996.08,-323.63 987.68,-330.09 998.28,-330.27 996.08,-323.63"/>
</a>
</g>
</g>
<!-- Node38 -->
<g id="Node000038" class="node">
<title>Node38</title>
<g id="a_Node000038"><a xlink:href="structnix_1_1Common.html" target="_top" xlink:title=" ">
<polygon fill="white" stroke="#bfbfbf" points="1183.62,-254.75 1102.38,-254.75 1102.38,-234 1183.62,-234 1183.62,-254.75"/>
<text text-anchor="middle" x="1143" y="-241.25" font-family="Helvetica,sans-Serif" font-size="10.00">nix::Common</text>
</a>
</g>
</g>
<!-- Node31&#45;&gt;Node38 -->
<g id="edge39_Node000031_Node000038" class="edge">
<title>Node31&#45;&gt;Node38</title>
<g id="a_edge39_Node000031_Node000038"><a xlink:title=" ">
<path fill="none" stroke="#63b8ff" d="M976.09,-323.88C998.81,-306.63 1035.78,-280.57 1071.25,-264.38 1080.89,-259.97 1091.71,-256.33 1101.94,-253.4"/>
<polygon fill="#63b8ff" stroke="#63b8ff" points="974.26,-320.88 968.47,-329.75 978.53,-326.42 974.26,-320.88"/>
</a>
</g>
</g>
<!-- Node39 -->
<g id="Node000039" class="node">
<title>Node39</title>
<g id="a_Node000039"><a xlink:href="structnix_1_1CmdDevelop.html" target="_top" xlink:title=" ">
<polygon fill="white" stroke="#bfbfbf" points="1369.12,-293.75 1269.12,-293.75 1269.12,-273 1369.12,-273 1369.12,-293.75"/>
<text text-anchor="middle" x="1319.12" y="-280.25" font-family="Helvetica,sans-Serif" font-size="10.00">nix::CmdDevelop</text>
</a>
</g>
</g>
<!-- Node38&#45;&gt;Node39 -->
<g id="edge40_Node000038_Node000039" class="edge">
<title>Node38&#45;&gt;Node39</title>
<g id="a_edge40_Node000038_Node000039"><a xlink:title=" ">
<path fill="none" stroke="#63b8ff" d="M1195.13,-255.83C1218.67,-261.1 1246.47,-267.33 1269.68,-272.52"/>
<polygon fill="#63b8ff" stroke="#63b8ff" points="1195.95,-252.42 1185.42,-253.65 1194.42,-259.25 1195.95,-252.42"/>
</a>
</g>
</g>
<!-- Node40 -->
<g id="Node000040" class="node">
<title>Node40</title>
<g id="a_Node000040"><a xlink:href="structnix_1_1CmdPrintDevEnv.html" target="_top" xlink:title=" ">
<polygon fill="white" stroke="#bfbfbf" points="1378.88,-254.75 1259.38,-254.75 1259.38,-234 1378.88,-234 1378.88,-254.75"/>
<text text-anchor="middle" x="1319.12" y="-241.25" font-family="Helvetica,sans-Serif" font-size="10.00">nix::CmdPrintDevEnv</text>
</a>
</g>
</g>
<!-- Node38&#45;&gt;Node40 -->
<g id="edge41_Node000038_Node000040" class="edge">
<title>Node38&#45;&gt;Node40</title>
<g id="a_edge41_Node000038_Node000040"><a xlink:title=" ">
<path fill="none" stroke="#63b8ff" d="M1195.35,-244.38C1215.39,-244.38 1238.49,-244.38 1259.2,-244.38"/>
<polygon fill="#63b8ff" stroke="#63b8ff" points="1195.46,-240.88 1185.46,-244.38 1195.46,-247.88 1195.46,-240.88"/>
</a>
</g>
</g>
<!-- Node42 -->
<g id="Node000042" class="node">
<title>Node42</title>
<g id="a_Node000042"><a xlink:href="structnix_1_1CmdRepl.html" target="_top" xlink:title=" ">
<polygon fill="white" stroke="#bfbfbf" points="1183.62,-196.75 1102.38,-196.75 1102.38,-176 1183.62,-176 1183.62,-196.75"/>
<text text-anchor="middle" x="1143" y="-183.25" font-family="Helvetica,sans-Serif" font-size="10.00">nix::CmdRepl</text>
</a>
</g>
</g>
<!-- Node41&#45;&gt;Node42 -->
<g id="edge43_Node000041_Node000042" class="edge">
<title>Node41&#45;&gt;Node42</title>
<g id="a_edge43_Node000041_Node000042"><a xlink:title=" ">
<path fill="none" stroke="#63b8ff" d="M1047.01,-186.38C1066.38,-186.38 1085.8,-186.38 1101.99,-186.38"/>
<polygon fill="#63b8ff" stroke="#63b8ff" points="1047.15,-182.88 1037.15,-186.38 1047.15,-189.88 1047.15,-182.88"/>
</a>
</g>
</g>
<!-- Node43 -->
<g id="Node000043" class="node">
<title>Node43</title>
<g id="a_Node000043"><a xlink:href="structnix_1_1InstallablesCommand.html" target="_top" xlink:title=" ">
<polygon fill="white" stroke="#666666" points="1214.75,-137.75 1071.25,-137.75 1071.25,-117 1214.75,-117 1214.75,-137.75"/>
<text text-anchor="middle" x="1143" y="-124.25" font-family="Helvetica,sans-Serif" font-size="10.00">nix::InstallablesCommand</text>
</a>
</g>
</g>
<!-- Node41&#45;&gt;Node43 -->
<g id="edge44_Node000041_Node000043" class="edge">
<title>Node41&#45;&gt;Node43</title>
<g id="a_edge44_Node000041_Node000043"><a xlink:title=" ">
<path fill="none" stroke="#63b8ff" d="M999.29,-172.16C1032.53,-161.73 1077.01,-147.77 1107.42,-138.23"/>
<polygon fill="#63b8ff" stroke="#63b8ff" points="998.42,-168.77 989.93,-175.1 1000.52,-175.45 998.42,-168.77"/>
</a>
</g>
</g>
<!-- Node44 -->
<g id="Node000044" class="node">
<title>Node44</title>
<g id="a_Node000044"><a xlink:href="structnix_1_1BuiltPathsCommand.html" target="_top" xlink:title=" ">
<polygon fill="#fff0f0" stroke="red" points="1387.12,-215.75 1251.12,-215.75 1251.12,-195 1387.12,-195 1387.12,-215.75"/>
<text text-anchor="middle" x="1319.12" y="-202.25" font-family="Helvetica,sans-Serif" font-size="10.00">nix::BuiltPathsCommand</text>
</a>
</g>
</g>
<!-- Node43&#45;&gt;Node44 -->
<g id="edge45_Node000043_Node000044" class="edge">
<title>Node43&#45;&gt;Node44</title>
<g id="a_edge45_Node000043_Node000044"><a xlink:title=" ">
<path fill="none" stroke="#63b8ff" d="M1172.61,-143.8C1198.71,-158.62 1235.44,-179.03 1250.75,-185.38 1258.98,-188.79 1267.99,-191.88 1276.67,-194.56"/>
<polygon fill="#63b8ff" stroke="#63b8ff" points="1174.6,-140.9 1164.18,-138.99 1171.13,-146.99 1174.6,-140.9"/>
</a>
</g>
</g>
<!-- Node57 -->
<g id="Node000057" class="node">
<title>Node57</title>
<g id="a_Node000057"><a xlink:href="structnix_1_1CmdBuild.html" target="_top" xlink:title=" ">
<polygon fill="white" stroke="#bfbfbf" points="1361.25,-176.75 1277,-176.75 1277,-156 1361.25,-156 1361.25,-176.75"/>
<text text-anchor="middle" x="1319.12" y="-163.25" font-family="Helvetica,sans-Serif" font-size="10.00">nix::CmdBuild</text>
</a>
</g>
</g>
<!-- Node43&#45;&gt;Node57 -->
<g id="edge46_Node000043_Node000057" class="edge">
<title>Node43&#45;&gt;Node57</title>
<g id="a_edge46_Node000043_Node000057"><a xlink:title=" ">
<path fill="none" stroke="#63b8ff" d="M1203.66,-140.74C1227.7,-146.12 1254.85,-152.2 1276.67,-157.09"/>
<polygon fill="#63b8ff" stroke="#63b8ff" points="1204.5,-137.34 1193.98,-138.57 1202.97,-144.17 1204.5,-137.34"/>
</a>
</g>
</g>
<!-- Node58 -->
<g id="Node000058" class="node">
<title>Node58</title>
<g id="a_Node000058"><a xlink:href="structnix_1_1CmdCopyLog.html" target="_top" xlink:title=" ">
<polygon fill="white" stroke="#bfbfbf" points="1369.88,-137.75 1268.38,-137.75 1268.38,-117 1369.88,-117 1369.88,-137.75"/>
<text text-anchor="middle" x="1319.12" y="-124.25" font-family="Helvetica,sans-Serif" font-size="10.00">nix::CmdCopyLog</text>
</a>
</g>
</g>
<!-- Node43&#45;&gt;Node58 -->
<g id="edge47_Node000043_Node000058" class="edge">
<title>Node43&#45;&gt;Node58</title>
<g id="a_edge47_Node000043_Node000058"><a xlink:title=" ">
<path fill="none" stroke="#63b8ff" d="M1226.42,-127.38C1240.64,-127.38 1255.02,-127.38 1268.05,-127.38"/>
<polygon fill="#63b8ff" stroke="#63b8ff" points="1226.59,-123.88 1216.59,-127.38 1226.59,-130.88 1226.59,-123.88"/>
</a>
</g>
</g>
<!-- Node59 -->
<g id="Node000059" class="node">
<title>Node59</title>
<g id="a_Node000059"><a xlink:href="structnix_1_1CmdProfileInstall.html" target="_top" xlink:title=" ">
<polygon fill="white" stroke="#bfbfbf" points="1379.25,-98.75 1259,-98.75 1259,-78 1379.25,-78 1379.25,-98.75"/>
<text text-anchor="middle" x="1319.12" y="-85.25" font-family="Helvetica,sans-Serif" font-size="10.00">nix::CmdProfileInstall</text>
</a>
</g>
</g>
<!-- Node43&#45;&gt;Node59 -->
<g id="edge48_Node000043_Node000059" class="edge">
<title>Node43&#45;&gt;Node59</title>
<g id="a_edge48_Node000043_Node000059"><a xlink:title=" ">
<path fill="none" stroke="#63b8ff" d="M1203.51,-114.05C1225.05,-109.22 1249.09,-103.84 1269.58,-99.25"/>
<polygon fill="#63b8ff" stroke="#63b8ff" points="1202.97,-110.58 1193.98,-116.18 1204.5,-117.41 1202.97,-110.58"/>
</a>
</g>
</g>
<!-- Node60 -->
<g id="Node000060" class="node">
<title>Node60</title>
<g id="a_Node000060"><a xlink:href="structnix_1_1CmdShell.html" target="_top" xlink:title=" ">
<polygon fill="white" stroke="#bfbfbf" points="1360.88,-59.75 1277.38,-59.75 1277.38,-39 1360.88,-39 1360.88,-59.75"/>
<text text-anchor="middle" x="1319.12" y="-46.25" font-family="Helvetica,sans-Serif" font-size="10.00">nix::CmdShell</text>
</a>
</g>
</g>
<!-- Node43&#45;&gt;Node60 -->
<g id="edge49_Node000043_Node000060" class="edge">
<title>Node43&#45;&gt;Node60</title>
<g id="a_edge49_Node000043_Node000060"><a xlink:title=" ">
<path fill="none" stroke="#63b8ff" d="M1170.77,-110.79C1191.91,-98.2 1222.45,-81.11 1250.75,-69.38 1259.09,-65.92 1268.24,-62.79 1277.03,-60.08"/>
<polygon fill="#63b8ff" stroke="#63b8ff" points="1169.25,-107.62 1162.49,-115.78 1172.86,-113.61 1169.25,-107.62"/>
</a>
</g>
</g>
<!-- Node61 -->
<g id="Node000061" class="node">
<title>Node61</title>
<g id="a_Node000061"><a xlink:href="structnix_1_1CmdShowDerivation.html" target="_top" xlink:title=" ">
<polygon fill="white" stroke="#bfbfbf" points="1387.5,-20.75 1250.75,-20.75 1250.75,0 1387.5,0 1387.5,-20.75"/>
<text text-anchor="middle" x="1319.12" y="-7.25" font-family="Helvetica,sans-Serif" font-size="10.00">nix::CmdShowDerivation</text>
</a>
</g>
</g>
<!-- Node43&#45;&gt;Node61 -->
<g id="edge50_Node000043_Node000061" class="edge">
<title>Node43&#45;&gt;Node61</title>
<g id="a_edge50_Node000043_Node000061"><a xlink:title=" ">
<path fill="none" stroke="#63b8ff" d="M1160.18,-108.19C1179.58,-86.35 1214.1,-51.02 1250.75,-30.38 1257.23,-26.72 1264.45,-23.67 1271.69,-21.15"/>
<polygon fill="#63b8ff" stroke="#63b8ff" points="1157.74,-105.66 1153.82,-115.5 1163.02,-110.25 1157.74,-105.66"/>
</a>
</g>
</g>
</g>
</svg>
