<?xml version="1.0" encoding="UTF-8" standalone="no"?>
<!DOCTYPE svg PUBLIC "-//W3C//DTD SVG 1.1//EN"
 "http://www.w3.org/Graphics/SVG/1.1/DTD/svg11.dtd">
<!-- Generated by graphviz version 12.2.1 (0)
 -->
<!-- Title: nix::KeyedBuildResult Pages: 1 -->
<svg width="223pt" height="181pt"
 viewBox="0.00 0.00 223.00 180.50" xmlns="http://www.w3.org/2000/svg" xmlns:xlink="http://www.w3.org/1999/xlink">
<g id="graph0" class="graph" transform="scale(1 1) rotate(0) translate(4 176.5)">
<title>nix::KeyedBuildResult</title>
<!-- Node1 -->
<g id="Node000001" class="node">
<title>Node1</title>
<g id="a_Node000001"><a xlink:title=" ">
<polygon fill="#999999" stroke="#666666" points="162.5,-20.75 40,-20.75 40,0 162.5,0 162.5,-20.75"/>
<text text-anchor="middle" x="101.25" y="-7.25" font-family="Helvetica,sans-Serif" font-size="10.00">nix::KeyedBuildResult</text>
</a>
</g>
</g>
<!-- Node2 -->
<g id="Node000002" class="node">
<title>Node2</title>
<g id="a_Node000002"><a xlink:href="structnix_1_1BuildResult.html" target="_top" xlink:title=" ">
<polygon fill="white" stroke="#bfbfbf" points="92.5,-90.25 0,-90.25 0,-69.5 92.5,-69.5 92.5,-90.25"/>
<text text-anchor="middle" x="46.25" y="-76.75" font-family="Helvetica,sans-Serif" font-size="10.00">nix::BuildResult</text>
</a>
</g>
</g>
<!-- Node2&#45;&gt;Node1 -->
<g id="edge1_Node000001_Node000002" class="edge">
<title>Node2&#45;&gt;Node1</title>
<g id="a_edge1_Node000001_Node000002"><a xlink:title=" ">
<path fill="none" stroke="#63b8ff" d="M61.35,-60.35C71.71,-47.62 85.06,-31.25 93.38,-21.03"/>
<polygon fill="#63b8ff" stroke="#63b8ff" points="58.69,-58.07 55.09,-68.03 64.12,-62.49 58.69,-58.07"/>
</a>
</g>
</g>
<!-- Node3 -->
<g id="Node000003" class="node">
<title>Node3</title>
<g id="a_Node000003"><a xlink:title=" ">
<polygon fill="white" stroke="#bfbfbf" points="68.12,-166.12 24.38,-166.12 24.38,-145.38 68.12,-145.38 68.12,-166.12"/>
<text text-anchor="middle" x="46.25" y="-152.62" font-family="Helvetica,sans-Serif" font-size="10.00">string</text>
</a>
</g>
</g>
<!-- Node3&#45;&gt;Node2 -->
<g id="edge2_Node000002_Node000003" class="edge">
<title>Node3&#45;&gt;Node2</title>
<g id="a_edge2_Node000002_Node000003"><a xlink:title=" ">
<path fill="none" stroke="#9a32cd" stroke-dasharray="5,2" d="M46.25,-133.82C46.25,-119.5 46.25,-101.21 46.25,-90.3"/>
<polygon fill="#9a32cd" stroke="#9a32cd" points="42.75,-133.58 46.25,-143.58 49.75,-133.58 42.75,-133.58"/>
</a>
</g>
<text text-anchor="middle" x="69.5" y="-111.5" font-family="Helvetica,sans-Serif" font-size="10.00" fill="grey"> errorMsg</text>
</g>
<!-- Node4 -->
<g id="Node000004" class="node">
<title>Node4</title>
<g id="a_Node000004"><a xlink:href="structnix_1_1DerivedPath.html" target="_top" xlink:title=" ">
<polygon fill="white" stroke="#666666" points="206.38,-90.25 110.12,-90.25 110.12,-69.5 206.38,-69.5 206.38,-90.25"/>
<text text-anchor="middle" x="158.25" y="-76.75" font-family="Helvetica,sans-Serif" font-size="10.00">nix::DerivedPath</text>
</a>
</g>
</g>
<!-- Node4&#45;&gt;Node1 -->
<g id="edge3_Node000001_Node000004" class="edge">
<title>Node4&#45;&gt;Node1</title>
<g id="a_edge3_Node000001_Node000004"><a xlink:title=" ">
<path fill="none" stroke="#9a32cd" stroke-dasharray="5,2" d="M142.92,-60.72C132.13,-47.94 118.11,-31.35 109.4,-21.03"/>
<polygon fill="#9a32cd" stroke="#9a32cd" points="139.98,-62.67 149.11,-68.05 145.33,-58.15 139.98,-62.67"/>
</a>
</g>
<text text-anchor="middle" x="147.23" y="-42" font-family="Helvetica,sans-Serif" font-size="10.00" fill="grey"> path</text>
</g>
<!-- Node5 -->
<g id="Node000005" class="node">
<title>Node5</title>
<g id="a_Node000005"><a xlink:title=" ">
<polygon fill="white" stroke="#bfbfbf" points="215,-172.5 101.5,-172.5 101.5,-139 215,-139 215,-172.5"/>
<text text-anchor="start" x="109.5" y="-159" font-family="Helvetica,sans-Serif" font-size="10.00">derived_path::detail</text>
<text text-anchor="middle" x="158.25" y="-146.25" font-family="Helvetica,sans-Serif" font-size="10.00">::DerivedPathRaw</text>
</a>
</g>
</g>
<!-- Node5&#45;&gt;Node4 -->
<g id="edge4_Node000004_Node000005" class="edge">
<title>Node5&#45;&gt;Node4</title>
<g id="a_edge4_Node000004_Node000005"><a xlink:title=" ">
<path fill="none" stroke="#63b8ff" d="M158.25,-127.45C158.25,-114.42 158.25,-99.68 158.25,-90.33"/>
<polygon fill="#63b8ff" stroke="#63b8ff" points="154.75,-127.21 158.25,-137.21 161.75,-127.21 154.75,-127.21"/>
</a>
</g>
</g>
</g>
</svg>
