<?xml version="1.0" encoding="UTF-8" standalone="no"?>
<!DOCTYPE svg PUBLIC "-//W3C//DTD SVG 1.1//EN"
 "http://www.w3.org/Graphics/SVG/1.1/DTD/svg11.dtd">
<!-- Generated by graphviz version 12.2.1 (0)
 -->
<!-- Title: nix::CmdAddDerivation Pages: 1 -->
<svg width="331pt" height="222pt"
 viewBox="0.00 0.00 330.62 221.75" xmlns="http://www.w3.org/2000/svg" xmlns:xlink="http://www.w3.org/1999/xlink">
<g id="graph0" class="graph" transform="scale(1 1) rotate(0) translate(4 217.75)">
<title>nix::CmdAddDerivation</title>
<!-- Node1 -->
<g id="Node000001" class="node">
<title>Node1</title>
<g id="a_Node000001"><a xlink:title=" ">
<polygon fill="#999999" stroke="#666666" points="129.25,-20.75 0,-20.75 0,0 129.25,0 129.25,-20.75"/>
<text text-anchor="middle" x="64.62" y="-7.25" font-family="Helvetica,sans-Serif" font-size="10.00">nix::CmdAddDerivation</text>
</a>
</g>
</g>
<!-- Node2 -->
<g id="Node000002" class="node">
<title>Node2</title>
<g id="a_Node000002"><a xlink:href="structnix_1_1MixDryRun.html" target="_top" xlink:title=" ">
<polygon fill="white" stroke="#bfbfbf" points="118.12,-117.25 27.12,-117.25 27.12,-96.5 118.12,-96.5 118.12,-117.25"/>
<text text-anchor="middle" x="72.62" y="-103.75" font-family="Helvetica,sans-Serif" font-size="10.00">nix::MixDryRun</text>
</a>
</g>
</g>
<!-- Node2&#45;&gt;Node1 -->
<g id="edge1_Node000001_Node000002" class="edge">
<title>Node2&#45;&gt;Node1</title>
<g id="a_edge1_Node000001_Node000002"><a xlink:title=" ">
<path fill="none" stroke="#63b8ff" d="M70.85,-84.89C69.17,-65.07 66.73,-36.2 65.46,-21.22"/>
<polygon fill="#63b8ff" stroke="#63b8ff" points="67.34,-84.94 71.67,-94.61 74.32,-84.35 67.34,-84.94"/>
</a>
</g>
</g>
<!-- Node3 -->
<g id="Node000003" class="node">
<title>Node3</title>
<g id="a_Node000003"><a xlink:href="classnix_1_1Args.html" target="_top" xlink:title=" ">
<polygon fill="white" stroke="#bfbfbf" points="183,-213.75 124.25,-213.75 124.25,-193 183,-193 183,-213.75"/>
<text text-anchor="middle" x="153.62" y="-200.25" font-family="Helvetica,sans-Serif" font-size="10.00">nix::Args</text>
</a>
</g>
</g>
<!-- Node3&#45;&gt;Node2 -->
<g id="edge2_Node000002_Node000003" class="edge">
<title>Node3&#45;&gt;Node2</title>
<g id="a_edge2_Node000002_Node000003"><a xlink:title=" ">
<path fill="none" stroke="#63b8ff" d="M131.6,-185.83C121.45,-177.56 109.68,-166.98 100.62,-156 90.66,-143.92 82.1,-127.86 77.15,-117.69"/>
<polygon fill="#63b8ff" stroke="#63b8ff" points="129.14,-188.35 139.16,-191.79 133.47,-182.85 129.14,-188.35"/>
</a>
</g>
</g>
<!-- Node5 -->
<g id="Node000005" class="node">
<title>Node5</title>
<g id="a_Node000005"><a xlink:href="structnix_1_1Command.html" target="_top" xlink:title=" ">
<polygon fill="white" stroke="#666666" points="197.25,-156 110,-156 110,-135.25 197.25,-135.25 197.25,-156"/>
<text text-anchor="middle" x="153.62" y="-142.5" font-family="Helvetica,sans-Serif" font-size="10.00">nix::Command</text>
</a>
</g>
</g>
<!-- Node3&#45;&gt;Node5 -->
<g id="edge5_Node000005_Node000003" class="edge">
<title>Node3&#45;&gt;Node5</title>
<g id="a_edge5_Node000005_Node000003"><a xlink:title=" ">
<path fill="none" stroke="#63b8ff" d="M153.62,-181.43C153.62,-172.77 153.62,-163.15 153.62,-156.22"/>
<polygon fill="#63b8ff" stroke="#63b8ff" points="150.13,-181.15 153.63,-191.15 157.13,-181.15 150.13,-181.15"/>
</a>
</g>
</g>
<!-- Node4 -->
<g id="Node000004" class="node">
<title>Node4</title>
<g id="a_Node000004"><a xlink:href="classnix_1_1MultiCommand.html" target="_top" xlink:title=" ">
<polygon fill="white" stroke="#666666" points="322.62,-78.5 210.62,-78.5 210.62,-57.75 322.62,-57.75 322.62,-78.5"/>
<text text-anchor="middle" x="266.62" y="-65" font-family="Helvetica,sans-Serif" font-size="10.00">nix::MultiCommand</text>
</a>
</g>
</g>
<!-- Node4&#45;&gt;Node3 -->
<g id="edge3_Node000003_Node000004" class="edge">
<title>Node4&#45;&gt;Node3</title>
<g id="a_edge3_Node000003_Node000004"><a xlink:title=" ">
<path fill="none" stroke="#9a32cd" stroke-dasharray="5,2" d="M255.11,-88.62C243.87,-106.92 225.71,-134.6 206.62,-156 194.26,-169.87 177.89,-183.62 166.64,-192.5"/>
<polygon fill="#9a32cd" stroke="#9a32cd" points="258.08,-90.48 260.25,-80.11 252.08,-86.86 258.08,-90.48"/>
</a>
</g>
<text text-anchor="middle" x="240.15" y="-142.5" font-family="Helvetica,sans-Serif" font-size="10.00" fill="grey"> parent</text>
</g>
<!-- Node5&#45;&gt;Node4 -->
<g id="edge4_Node000004_Node000005" class="edge">
<title>Node5&#45;&gt;Node4</title>
<g id="a_edge4_Node000004_Node000005"><a xlink:title=" ">
<path fill="none" stroke="#63b8ff" d="M177.92,-128.39C200.39,-113.38 233.07,-91.55 251.85,-79"/>
<polygon fill="#63b8ff" stroke="#63b8ff" points="176.03,-125.45 169.66,-133.91 179.92,-131.27 176.03,-125.45"/>
</a>
</g>
</g>
<!-- Node6 -->
<g id="Node000006" class="node">
<title>Node6</title>
<g id="a_Node000006"><a xlink:href="structnix_1_1StoreCommand.html" target="_top" xlink:title=" ">
<polygon fill="white" stroke="#666666" points="193,-78.5 80.25,-78.5 80.25,-57.75 193,-57.75 193,-78.5"/>
<text text-anchor="middle" x="136.62" y="-65" font-family="Helvetica,sans-Serif" font-size="10.00">nix::StoreCommand</text>
</a>
</g>
</g>
<!-- Node5&#45;&gt;Node6 -->
<g id="edge7_Node000006_Node000005" class="edge">
<title>Node5&#45;&gt;Node6</title>
<g id="a_edge7_Node000006_Node000005"><a xlink:title=" ">
<path fill="none" stroke="#63b8ff" d="M148.91,-123.68C145.6,-108.98 141.33,-90.02 138.79,-78.76"/>
<polygon fill="#63b8ff" stroke="#63b8ff" points="145.46,-124.29 151.07,-133.28 152.29,-122.75 145.46,-124.29"/>
</a>
</g>
</g>
<!-- Node6&#45;&gt;Node1 -->
<g id="edge6_Node000001_Node000006" class="edge">
<title>Node6&#45;&gt;Node1</title>
<g id="a_edge6_Node000001_Node000006"><a xlink:title=" ">
<path fill="none" stroke="#63b8ff" d="M115.23,-50.56C102.78,-40.92 87.51,-29.1 77.02,-20.97"/>
<polygon fill="#63b8ff" stroke="#63b8ff" points="112.84,-53.13 122.89,-56.49 117.12,-47.6 112.84,-53.13"/>
</a>
</g>
</g>
</g>
</svg>
