<?xml version="1.0" encoding="UTF-8" standalone="no"?>
<!DOCTYPE svg PUBLIC "-//W3C//DTD SVG 1.1//EN"
 "http://www.w3.org/Graphics/SVG/1.1/DTD/svg11.dtd">
<!-- Generated by graphviz version 12.2.1 (0)
 -->
<!-- Title: nix::IndirectRootStore Pages: 1 -->
<svg width="671pt" height="146pt"
 viewBox="0.00 0.00 670.75 145.50" xmlns="http://www.w3.org/2000/svg" xmlns:xlink="http://www.w3.org/1999/xlink">
<g id="graph0" class="graph" transform="scale(1 1) rotate(0) translate(4 141.5)">
<title>nix::IndirectRootStore</title>
<!-- Node1 -->
<g id="Node000001" class="node">
<title>Node1</title>
<g id="a_Node000001"><a xlink:title=" ">
<polygon fill="#999999" stroke="#666666" points="662.75,-79.12 541,-79.12 541,-58.38 662.75,-58.38 662.75,-79.12"/>
<text text-anchor="middle" x="601.88" y="-65.62" font-family="Helvetica,sans-Serif" font-size="10.00">nix::IndirectRootStore</text>
</a>
</g>
</g>
<!-- Node2 -->
<g id="Node000002" class="node">
<title>Node2</title>
<g id="a_Node000002"><a xlink:href="classnix_1_1LocalFSStore.html" target="_top" xlink:title=" ">
<polygon fill="white" stroke="#bfbfbf" points="504,-79.12 404.75,-79.12 404.75,-58.38 504,-58.38 504,-79.12"/>
<text text-anchor="middle" x="454.38" y="-65.62" font-family="Helvetica,sans-Serif" font-size="10.00">nix::LocalFSStore</text>
</a>
</g>
</g>
<!-- Node2&#45;&gt;Node1 -->
<g id="edge1_Node000001_Node000002" class="edge">
<title>Node2&#45;&gt;Node1</title>
<g id="a_edge1_Node000001_Node000002"><a xlink:title=" ">
<path fill="none" stroke="#63b8ff" d="M515.65,-68.75C523.87,-68.75 532.3,-68.75 540.52,-68.75"/>
<polygon fill="#63b8ff" stroke="#63b8ff" points="515.74,-65.25 505.74,-68.75 515.74,-72.25 515.74,-65.25"/>
</a>
</g>
</g>
<!-- Node3 -->
<g id="Node000003" class="node">
<title>Node3</title>
<g id="a_Node000003"><a xlink:href="classnix_1_1Store.html" target="_top" xlink:title=" ">
<polygon fill="white" stroke="#bfbfbf" points="251,-79.12 188.5,-79.12 188.5,-58.38 251,-58.38 251,-79.12"/>
<text text-anchor="middle" x="219.75" y="-65.62" font-family="Helvetica,sans-Serif" font-size="10.00">nix::Store</text>
</a>
</g>
</g>
<!-- Node3&#45;&gt;Node2 -->
<g id="edge2_Node000002_Node000003" class="edge">
<title>Node3&#45;&gt;Node2</title>
<g id="a_edge2_Node000002_Node000003"><a xlink:title=" ">
<path fill="none" stroke="#63b8ff" d="M262.53,-82.59C270.88,-84.78 279.65,-86.67 288,-87.75 323.15,-92.3 332.52,-91.61 367.75,-87.75 382.74,-86.11 398.94,-82.89 413.17,-79.57"/>
<polygon fill="#63b8ff" stroke="#63b8ff" points="263.52,-79.24 252.95,-79.89 261.62,-85.97 263.52,-79.24"/>
</a>
</g>
</g>
<!-- Node7 -->
<g id="Node000007" class="node">
<title>Node7</title>
<g id="a_Node000007"><a xlink:href="structnix_1_1GcStore.html" target="_top" xlink:title=" ">
<polygon fill="white" stroke="#666666" points="365.5,-79.12 290.25,-79.12 290.25,-58.38 365.5,-58.38 365.5,-79.12"/>
<text text-anchor="middle" x="327.88" y="-65.62" font-family="Helvetica,sans-Serif" font-size="10.00">nix::GcStore</text>
</a>
</g>
</g>
<!-- Node3&#45;&gt;Node7 -->
<g id="edge7_Node000007_Node000003" class="edge">
<title>Node3&#45;&gt;Node7</title>
<g id="a_edge7_Node000007_Node000003"><a xlink:title=" ">
<path fill="none" stroke="#63b8ff" d="M262.84,-68.75C271.77,-68.75 281.13,-68.75 289.86,-68.75"/>
<polygon fill="#63b8ff" stroke="#63b8ff" points="262.96,-65.25 252.96,-68.75 262.96,-72.25 262.96,-65.25"/>
</a>
</g>
</g>
<!-- Node8 -->
<g id="Node000008" class="node">
<title>Node8</title>
<g id="a_Node000008"><a xlink:href="structnix_1_1LogStore.html" target="_top" xlink:title=" ">
<polygon fill="white" stroke="#bfbfbf" points="367.75,-40.12 288,-40.12 288,-19.38 367.75,-19.38 367.75,-40.12"/>
<text text-anchor="middle" x="327.88" y="-26.62" font-family="Helvetica,sans-Serif" font-size="10.00">nix::LogStore</text>
</a>
</g>
</g>
<!-- Node3&#45;&gt;Node8 -->
<g id="edge9_Node000008_Node000003" class="edge">
<title>Node3&#45;&gt;Node8</title>
<g id="a_edge9_Node000008_Node000003"><a xlink:title=" ">
<path fill="none" stroke="#63b8ff" d="M261.08,-53.93C273.18,-49.48 286.22,-44.69 297.47,-40.56"/>
<polygon fill="#63b8ff" stroke="#63b8ff" points="259.91,-50.63 251.73,-57.36 262.33,-57.2 259.91,-50.63"/>
</a>
</g>
</g>
<!-- Node4 -->
<g id="Node000004" class="node">
<title>Node4</title>
<g id="a_Node000004"><a xlink:title=" ">
<polygon fill="white" stroke="#bfbfbf" points="120.25,-137.5 4.5,-137.5 4.5,-104 120.25,-104 120.25,-137.5"/>
<text text-anchor="start" x="12.5" y="-124" font-family="Helvetica,sans-Serif" font-size="10.00">std::enable_shared</text>
<text text-anchor="middle" x="62.38" y="-111.25" font-family="Helvetica,sans-Serif" font-size="10.00">_from_this&lt; Store &gt;</text>
</a>
</g>
</g>
<!-- Node4&#45;&gt;Node3 -->
<g id="edge3_Node000003_Node000004" class="edge">
<title>Node4&#45;&gt;Node3</title>
<g id="a_edge3_Node000003_Node000004"><a xlink:title=" ">
<path fill="none" stroke="#63b8ff" d="M127.52,-100.06C141.69,-95.41 156.62,-90.46 170.5,-85.75 176.3,-83.78 182.48,-81.64 188.42,-79.56"/>
<polygon fill="#63b8ff" stroke="#63b8ff" points="126.71,-96.64 118.29,-103.07 128.89,-103.29 126.71,-96.64"/>
</a>
</g>
</g>
<!-- Node5 -->
<g id="Node000005" class="node">
<title>Node5</title>
<g id="a_Node000005"><a xlink:href="classnix_1_1Sync.html" target="_top" xlink:title=" ">
<polygon fill="white" stroke="#666666" points="124.75,-85.5 0,-85.5 0,-52 124.75,-52 124.75,-85.5"/>
<text text-anchor="start" x="8" y="-72" font-family="Helvetica,sans-Serif" font-size="10.00">nix::Sync&lt; nix::Store</text>
<text text-anchor="middle" x="62.38" y="-59.25" font-family="Helvetica,sans-Serif" font-size="10.00">::State, AsyncMutex &gt;</text>
</a>
</g>
</g>
<!-- Node5&#45;&gt;Node3 -->
<g id="edge4_Node000003_Node000005" class="edge">
<title>Node5&#45;&gt;Node3</title>
<g id="a_edge4_Node000003_Node000005"><a xlink:title=" ">
<path fill="none" stroke="#9a32cd" stroke-dasharray="5,2" d="M136.52,-68.75C154.77,-68.75 173.36,-68.75 188.24,-68.75"/>
<polygon fill="#9a32cd" stroke="#9a32cd" points="136.74,-65.25 126.74,-68.75 136.74,-72.25 136.74,-65.25"/>
</a>
</g>
<text text-anchor="middle" x="156.62" y="-72" font-family="Helvetica,sans-Serif" font-size="10.00" fill="grey"> state</text>
</g>
<!-- Node6 -->
<g id="Node000006" class="node">
<title>Node6</title>
<g id="a_Node000006"><a xlink:href="structnix_1_1Store_1_1Stats.html" target="_top" xlink:title=" ">
<polygon fill="white" stroke="#bfbfbf" points="113.12,-33.5 11.62,-33.5 11.62,0 113.12,0 113.12,-33.5"/>
<text text-anchor="start" x="19.62" y="-20" font-family="Helvetica,sans-Serif" font-size="10.00">nix::Store::Stats&lt;</text>
<text text-anchor="middle" x="62.38" y="-7.25" font-family="Helvetica,sans-Serif" font-size="10.00"> std::atomic &gt;</text>
</a>
</g>
</g>
<!-- Node6&#45;&gt;Node3 -->
<g id="edge5_Node000003_Node000006" class="edge">
<title>Node6&#45;&gt;Node3</title>
<g id="a_edge5_Node000003_Node000006"><a xlink:title=" ">
<path fill="none" stroke="#9a32cd" stroke-dasharray="5,2" d="M124.35,-36.62C139.45,-41.6 155.57,-46.95 170.5,-52 176.21,-53.93 182.29,-56.02 188.15,-58.04"/>
<polygon fill="#9a32cd" stroke="#9a32cd" points="125.6,-33.35 115.01,-33.55 123.41,-40 125.6,-33.35"/>
</a>
</g>
<text text-anchor="middle" x="156.62" y="-55.25" font-family="Helvetica,sans-Serif" font-size="10.00" fill="grey"> stats</text>
</g>
<!-- Node7&#45;&gt;Node2 -->
<g id="edge6_Node000002_Node000007" class="edge">
<title>Node7&#45;&gt;Node2</title>
<g id="a_edge6_Node000002_Node000007"><a xlink:title=" ">
<path fill="none" stroke="#63b8ff" d="M377.26,-68.75C386.12,-68.75 395.39,-68.75 404.28,-68.75"/>
<polygon fill="#63b8ff" stroke="#63b8ff" points="377.41,-65.25 367.41,-68.75 377.41,-72.25 377.41,-65.25"/>
</a>
</g>
</g>
<!-- Node8&#45;&gt;Node2 -->
<g id="edge8_Node000002_Node000008" class="edge">
<title>Node8&#45;&gt;Node2</title>
<g id="a_edge8_Node000002_Node000008"><a xlink:title=" ">
<path fill="none" stroke="#63b8ff" d="M374.46,-44.03C389.13,-48.63 405.14,-53.64 418.88,-57.94"/>
<polygon fill="#63b8ff" stroke="#63b8ff" points="375.59,-40.72 365,-41.07 373.5,-47.4 375.59,-40.72"/>
</a>
</g>
</g>
</g>
</svg>
