<?xml version="1.0" encoding="UTF-8" standalone="no"?>
<!DOCTYPE svg PUBLIC "-//W3C//DTD SVG 1.1//EN"
 "http://www.w3.org/Graphics/SVG/1.1/DTD/svg11.dtd">
<!-- Generated by graphviz version 12.2.1 (0)
 -->
<!-- Title: nix::MixDryRun Pages: 1 -->
<svg width="257pt" height="144pt"
 viewBox="0.00 0.00 256.50 144.25" xmlns="http://www.w3.org/2000/svg" xmlns:xlink="http://www.w3.org/1999/xlink">
<g id="graph0" class="graph" transform="scale(1 1) rotate(0) translate(4 140.25)">
<title>nix::MixDryRun</title>
<!-- Node1 -->
<g id="Node000001" class="node">
<title>Node1</title>
<g id="a_Node000001"><a xlink:title=" ">
<polygon fill="#999999" stroke="#666666" points="91,-78.5 0,-78.5 0,-57.75 91,-57.75 91,-78.5"/>
<text text-anchor="middle" x="45.5" y="-65" font-family="Helvetica,sans-Serif" font-size="10.00">nix::MixDryRun</text>
</a>
</g>
</g>
<!-- Node2 -->
<g id="Node000002" class="node">
<title>Node2</title>
<g id="a_Node000002"><a xlink:href="classnix_1_1Args.html" target="_top" xlink:title=" ">
<polygon fill="white" stroke="#bfbfbf" points="181.88,-136.25 123.12,-136.25 123.12,-115.5 181.88,-115.5 181.88,-136.25"/>
<text text-anchor="middle" x="152.5" y="-122.75" font-family="Helvetica,sans-Serif" font-size="10.00">nix::Args</text>
</a>
</g>
</g>
<!-- Node2&#45;&gt;Node1 -->
<g id="edge1_Node000001_Node000002" class="edge">
<title>Node2&#45;&gt;Node1</title>
<g id="a_edge1_Node000001_Node000002"><a xlink:title=" ">
<path fill="none" stroke="#63b8ff" d="M123.73,-109.88C104.86,-100.05 80.72,-87.48 64.28,-78.91"/>
<polygon fill="#63b8ff" stroke="#63b8ff" points="122.03,-112.95 132.52,-114.46 125.27,-106.74 122.03,-112.95"/>
</a>
</g>
</g>
<!-- Node4 -->
<g id="Node000004" class="node">
<title>Node4</title>
<g id="a_Node000004"><a xlink:href="structnix_1_1Command.html" target="_top" xlink:title=" ">
<polygon fill="white" stroke="#666666" points="196.12,-78.5 108.88,-78.5 108.88,-57.75 196.12,-57.75 196.12,-78.5"/>
<text text-anchor="middle" x="152.5" y="-65" font-family="Helvetica,sans-Serif" font-size="10.00">nix::Command</text>
</a>
</g>
</g>
<!-- Node2&#45;&gt;Node4 -->
<g id="edge4_Node000004_Node000002" class="edge">
<title>Node2&#45;&gt;Node4</title>
<g id="a_edge4_Node000004_Node000002"><a xlink:title=" ">
<path fill="none" stroke="#63b8ff" d="M152.5,-103.93C152.5,-95.27 152.5,-85.65 152.5,-78.72"/>
<polygon fill="#63b8ff" stroke="#63b8ff" points="149,-103.65 152.5,-113.65 156,-103.65 149,-103.65"/>
</a>
</g>
</g>
<!-- Node3 -->
<g id="Node000003" class="node">
<title>Node3</title>
<g id="a_Node000003"><a xlink:href="classnix_1_1MultiCommand.html" target="_top" xlink:title=" ">
<polygon fill="white" stroke="#666666" points="248.5,-20.75 136.5,-20.75 136.5,0 248.5,0 248.5,-20.75"/>
<text text-anchor="middle" x="192.5" y="-7.25" font-family="Helvetica,sans-Serif" font-size="10.00">nix::MultiCommand</text>
</a>
</g>
</g>
<!-- Node3&#45;&gt;Node2 -->
<g id="edge2_Node000002_Node000003" class="edge">
<title>Node3&#45;&gt;Node2</title>
<g id="a_edge2_Node000002_Node000003"><a xlink:title=" ">
<path fill="none" stroke="#9a32cd" stroke-dasharray="5,2" d="M202.43,-31.19C207.9,-44.96 212.32,-63.47 205.5,-78.5 198.28,-94.42 182.58,-107.03 170.14,-115.05"/>
<polygon fill="#9a32cd" stroke="#9a32cd" points="205.73,-29.98 198.44,-22.29 199.34,-32.85 205.73,-29.98"/>
</a>
</g>
<text text-anchor="middle" x="226.22" y="-65" font-family="Helvetica,sans-Serif" font-size="10.00" fill="grey"> parent</text>
</g>
<!-- Node4&#45;&gt;Node3 -->
<g id="edge3_Node000003_Node000004" class="edge">
<title>Node4&#45;&gt;Node3</title>
<g id="a_edge3_Node000003_Node000004"><a xlink:title=" ">
<path fill="none" stroke="#63b8ff" d="M166.04,-48.25C172.62,-39.08 180.24,-28.46 185.61,-20.97"/>
<polygon fill="#63b8ff" stroke="#63b8ff" points="163.34,-46.02 160.35,-56.18 169.02,-50.1 163.34,-46.02"/>
</a>
</g>
</g>
</g>
</svg>
