<?xml version="1.0" encoding="UTF-8" standalone="no"?>
<!DOCTYPE svg PUBLIC "-//W3C//DTD SVG 1.1//EN"
 "http://www.w3.org/Graphics/SVG/1.1/DTD/svg11.dtd">
<!-- Generated by graphviz version 12.2.1 (0)
 -->
<!-- Title: nix::InstallableCommand Pages: 1 -->
<svg width="1275pt" height="317pt"
 viewBox="0.00 0.00 1274.75 316.75" xmlns="http://www.w3.org/2000/svg" xmlns:xlink="http://www.w3.org/1999/xlink">
<g id="graph0" class="graph" transform="scale(1 1) rotate(0) translate(4 312.75)">
<title>nix::InstallableCommand</title>
<!-- Node1 -->
<g id="Node000001" class="node">
<title>Node1</title>
<g id="a_Node000001"><a xlink:title=" ">
<polygon fill="#999999" stroke="#666666" points="982,-191.75 843.75,-191.75 843.75,-171 982,-171 982,-191.75"/>
<text text-anchor="middle" x="912.88" y="-178.25" font-family="Helvetica,sans-Serif" font-size="10.00">nix::InstallableCommand</text>
</a>
</g>
</g>
<!-- Node10 -->
<g id="Node000010" class="node">
<title>Node10</title>
<g id="a_Node000010"><a xlink:href="structnix_1_1CmdBundle.html" target="_top" xlink:title=" ">
<polygon fill="white" stroke="#bfbfbf" points="1111.25,-308.75 1018,-308.75 1018,-288 1111.25,-288 1111.25,-308.75"/>
<text text-anchor="middle" x="1064.62" y="-295.25" font-family="Helvetica,sans-Serif" font-size="10.00">nix::CmdBundle</text>
</a>
</g>
</g>
<!-- Node1&#45;&gt;Node10 -->
<g id="edge14_Node000001_Node000010" class="edge">
<title>Node1&#45;&gt;Node10</title>
<g id="a_edge14_Node000001_Node000010"><a xlink:title=" ">
<path fill="none" stroke="#63b8ff" d="M930.6,-200.41C949.97,-221.59 983.65,-255.79 1018,-278.38 1023.2,-281.8 1029.09,-284.87 1034.86,-287.53"/>
<polygon fill="#63b8ff" stroke="#63b8ff" points="933.28,-198.17 923.99,-193.07 928.08,-202.85 933.28,-198.17"/>
</a>
</g>
</g>
<!-- Node11 -->
<g id="Node000011" class="node">
<title>Node11</title>
<g id="a_Node000011"><a xlink:href="structnix_1_1CmdEdit.html" target="_top" xlink:title=" ">
<polygon fill="white" stroke="#bfbfbf" points="1103.75,-269.75 1025.5,-269.75 1025.5,-249 1103.75,-249 1103.75,-269.75"/>
<text text-anchor="middle" x="1064.62" y="-256.25" font-family="Helvetica,sans-Serif" font-size="10.00">nix::CmdEdit</text>
</a>
</g>
</g>
<!-- Node1&#45;&gt;Node11 -->
<g id="edge15_Node000001_Node000011" class="edge">
<title>Node1&#45;&gt;Node11</title>
<g id="a_edge15_Node000001_Node000011"><a xlink:title=" ">
<path fill="none" stroke="#63b8ff" d="M941.77,-197.86C962.52,-209.89 991.68,-226.31 1018,-239.38 1024.35,-242.53 1031.32,-245.71 1037.85,-248.59"/>
<polygon fill="#63b8ff" stroke="#63b8ff" points="943.73,-194.96 933.33,-192.94 940.21,-201 943.73,-194.96"/>
</a>
</g>
</g>
<!-- Node12 -->
<g id="Node000012" class="node">
<title>Node12</title>
<g id="a_Node000012"><a xlink:href="structnix_1_1CmdEval.html" target="_top" xlink:title=" ">
<polygon fill="white" stroke="#bfbfbf" points="1104.88,-230.75 1024.38,-230.75 1024.38,-210 1104.88,-210 1104.88,-230.75"/>
<text text-anchor="middle" x="1064.62" y="-217.25" font-family="Helvetica,sans-Serif" font-size="10.00">nix::CmdEval</text>
</a>
</g>
</g>
<!-- Node1&#45;&gt;Node12 -->
<g id="edge16_Node000001_Node000012" class="edge">
<title>Node1&#45;&gt;Node12</title>
<g id="a_edge16_Node000001_Node000012"><a xlink:title=" ">
<path fill="none" stroke="#63b8ff" d="M966.7,-195.13C985.53,-200.04 1006.4,-205.47 1023.94,-210.04"/>
<polygon fill="#63b8ff" stroke="#63b8ff" points="967.61,-191.75 957.05,-192.62 965.85,-198.53 967.61,-191.75"/>
</a>
</g>
</g>
<!-- Node13 -->
<g id="Node000013" class="node">
<title>Node13</title>
<g id="a_Node000013"><a xlink:href="structnix_1_1CmdLog.html" target="_top" xlink:title=" ">
<polygon fill="white" stroke="#bfbfbf" points="1103,-191.75 1026.25,-191.75 1026.25,-171 1103,-171 1103,-191.75"/>
<text text-anchor="middle" x="1064.62" y="-178.25" font-family="Helvetica,sans-Serif" font-size="10.00">nix::CmdLog</text>
</a>
</g>
</g>
<!-- Node1&#45;&gt;Node13 -->
<g id="edge17_Node000001_Node000013" class="edge">
<title>Node1&#45;&gt;Node13</title>
<g id="a_edge17_Node000001_Node000013"><a xlink:title=" ">
<path fill="none" stroke="#63b8ff" d="M993.54,-181.38C1004.9,-181.38 1016.11,-181.38 1026.12,-181.38"/>
<polygon fill="#63b8ff" stroke="#63b8ff" points="993.69,-177.88 983.69,-181.38 993.69,-184.88 993.69,-177.88"/>
</a>
</g>
</g>
<!-- Node14 -->
<g id="Node000014" class="node">
<title>Node14</title>
<g id="a_Node000014"><a xlink:href="structnix_1_1CmdRun.html" target="_top" xlink:title=" ">
<polygon fill="white" stroke="#bfbfbf" points="1103.75,-152.75 1025.5,-152.75 1025.5,-132 1103.75,-132 1103.75,-152.75"/>
<text text-anchor="middle" x="1064.62" y="-139.25" font-family="Helvetica,sans-Serif" font-size="10.00">nix::CmdRun</text>
</a>
</g>
</g>
<!-- Node1&#45;&gt;Node14 -->
<g id="edge18_Node000001_Node000014" class="edge">
<title>Node1&#45;&gt;Node14</title>
<g id="a_edge18_Node000001_Node000014"><a xlink:title=" ">
<path fill="none" stroke="#63b8ff" d="M966.66,-167.63C985.96,-162.6 1007.4,-157.02 1025.21,-152.38"/>
<polygon fill="#63b8ff" stroke="#63b8ff" points="965.85,-164.22 957.05,-170.13 967.61,-171 965.85,-164.22"/>
</a>
</g>
</g>
<!-- Node15 -->
<g id="Node000015" class="node">
<title>Node15</title>
<g id="a_Node000015"><a xlink:href="structnix_1_1CmdSearch.html" target="_top" xlink:title=" ">
<polygon fill="white" stroke="#bfbfbf" points="1110.88,-113.75 1018.38,-113.75 1018.38,-93 1110.88,-93 1110.88,-113.75"/>
<text text-anchor="middle" x="1064.62" y="-100.25" font-family="Helvetica,sans-Serif" font-size="10.00">nix::CmdSearch</text>
</a>
</g>
</g>
<!-- Node1&#45;&gt;Node15 -->
<g id="edge19_Node000001_Node000015" class="edge">
<title>Node1&#45;&gt;Node15</title>
<g id="a_edge19_Node000001_Node000015"><a xlink:title=" ">
<path fill="none" stroke="#63b8ff" d="M941.77,-164.89C962.52,-152.86 991.68,-136.44 1018,-123.38 1024.35,-120.22 1031.32,-117.04 1037.85,-114.16"/>
<polygon fill="#63b8ff" stroke="#63b8ff" points="940.21,-161.75 933.33,-169.81 943.73,-167.79 940.21,-161.75"/>
</a>
</g>
</g>
<!-- Node16 -->
<g id="Node000016" class="node">
<title>Node16</title>
<g id="a_Node000016"><a xlink:href="structnix_1_1Common.html" target="_top" xlink:title=" ">
<polygon fill="white" stroke="#bfbfbf" points="1105.25,-74.75 1024,-74.75 1024,-54 1105.25,-54 1105.25,-74.75"/>
<text text-anchor="middle" x="1064.62" y="-61.25" font-family="Helvetica,sans-Serif" font-size="10.00">nix::Common</text>
</a>
</g>
</g>
<!-- Node1&#45;&gt;Node16 -->
<g id="edge20_Node000001_Node000016" class="edge">
<title>Node1&#45;&gt;Node16</title>
<g id="a_edge20_Node000001_Node000016"><a xlink:title=" ">
<path fill="none" stroke="#63b8ff" d="M930.6,-162.34C949.97,-141.16 983.65,-106.96 1018,-84.38 1023.2,-80.95 1029.09,-77.88 1034.86,-75.22"/>
<polygon fill="#63b8ff" stroke="#63b8ff" points="928.08,-159.9 923.99,-169.68 933.28,-164.58 928.08,-159.9"/>
</a>
</g>
</g>
<!-- Node2 -->
<g id="Node000002" class="node">
<title>Node2</title>
<g id="a_Node000002"><a xlink:href="classnix_1_1Args.html" target="_top" xlink:title=" ">
<polygon fill="white" stroke="#bfbfbf" points="58.75,-115.75 0,-115.75 0,-95 58.75,-95 58.75,-115.75"/>
<text text-anchor="middle" x="29.38" y="-102.25" font-family="Helvetica,sans-Serif" font-size="10.00">nix::Args</text>
</a>
</g>
</g>
<!-- Node2&#45;&gt;Node1 -->
<g id="edge1_Node000001_Node000002" class="edge">
<title>Node2&#45;&gt;Node1</title>
<g id="a_edge1_Node000001_Node000002"><a xlink:title=" ">
<path fill="none" stroke="#63b8ff" d="M49.6,-123.76C61.7,-134.41 78.13,-147.27 94.75,-155.38 168.34,-191.25 191.51,-200.38 273.38,-200.38 273.38,-200.38 273.38,-200.38 571.38,-200.38 665.81,-200.38 774.75,-193 843.46,-187.44"/>
<polygon fill="#63b8ff" stroke="#63b8ff" points="52.13,-121.33 42.38,-117.19 47.41,-126.51 52.13,-121.33"/>
</a>
</g>
</g>
<!-- Node3 -->
<g id="Node000003" class="node">
<title>Node3</title>
<g id="a_Node000003"><a xlink:href="structnix_1_1SourceExprCommand.html" target="_top" xlink:title=" ">
<polygon fill="white" stroke="#bfbfbf" points="807.75,-172.75 665.75,-172.75 665.75,-152 807.75,-152 807.75,-172.75"/>
<text text-anchor="middle" x="736.75" y="-159.25" font-family="Helvetica,sans-Serif" font-size="10.00">nix::SourceExprCommand</text>
</a>
</g>
</g>
<!-- Node2&#45;&gt;Node3 -->
<g id="edge3_Node000003_Node000002" class="edge">
<title>Node2&#45;&gt;Node3</title>
<g id="a_edge3_Node000003_Node000002"><a xlink:title=" ">
<path fill="none" stroke="#63b8ff" d="M68.61,-120.11C115.94,-137 199.36,-162.38 273.38,-162.38 273.38,-162.38 273.38,-162.38 421.88,-162.38 505.52,-162.38 601.7,-162.38 665.32,-162.38"/>
<polygon fill="#63b8ff" stroke="#63b8ff" points="69.96,-116.88 59.37,-116.75 67.57,-123.46 69.96,-116.88"/>
</a>
</g>
</g>
<!-- Node4 -->
<g id="Node000004" class="node">
<title>Node4</title>
<g id="a_Node000004"><a xlink:href="structnix_1_1MixFlakeOptions.html" target="_top" xlink:title=" ">
<polygon fill="white" stroke="#666666" points="629.75,-134.75 511,-134.75 511,-114 629.75,-114 629.75,-134.75"/>
<text text-anchor="middle" x="570.38" y="-121.25" font-family="Helvetica,sans-Serif" font-size="10.00">nix::MixFlakeOptions</text>
</a>
</g>
</g>
<!-- Node2&#45;&gt;Node4 -->
<g id="edge5_Node000004_Node000002" class="edge">
<title>Node2&#45;&gt;Node4</title>
<g id="a_edge5_Node000004_Node000002"><a xlink:title=" ">
<path fill="none" stroke="#63b8ff" d="M70.24,-106.78C164.27,-110.09 400.29,-118.41 510.7,-122.31"/>
<polygon fill="#63b8ff" stroke="#63b8ff" points="70.6,-103.29 60.49,-106.44 70.36,-110.29 70.6,-103.29"/>
</a>
</g>
</g>
<!-- Node7 -->
<g id="Node000007" class="node">
<title>Node7</title>
<g id="a_Node000007"><a xlink:href="structnix_1_1Command.html" target="_top" xlink:title=" ">
<polygon fill="white" stroke="#666666" points="182,-96.75 94.75,-96.75 94.75,-76 182,-76 182,-96.75"/>
<text text-anchor="middle" x="138.38" y="-83.25" font-family="Helvetica,sans-Serif" font-size="10.00">nix::Command</text>
</a>
</g>
</g>
<!-- Node2&#45;&gt;Node7 -->
<g id="edge9_Node000007_Node000002" class="edge">
<title>Node2&#45;&gt;Node7</title>
<g id="a_edge9_Node000007_Node000002"><a xlink:title=" ">
<path fill="none" stroke="#63b8ff" d="M70.26,-98.29C78.17,-96.89 86.52,-95.41 94.53,-93.98"/>
<polygon fill="#63b8ff" stroke="#63b8ff" points="69.77,-94.82 60.54,-100.02 71,-101.72 69.77,-94.82"/>
</a>
</g>
</g>
<!-- Node8 -->
<g id="Node000008" class="node">
<title>Node8</title>
<g id="a_Node000008"><a xlink:href="structnix_1_1MixEvalArgs.html" target="_top" xlink:title=" ">
<polygon fill="white" stroke="#bfbfbf" points="323.25,-57.75 225.5,-57.75 225.5,-37 323.25,-37 323.25,-57.75"/>
<text text-anchor="middle" x="274.38" y="-44.25" font-family="Helvetica,sans-Serif" font-size="10.00">nix::MixEvalArgs</text>
</a>
</g>
</g>
<!-- Node2&#45;&gt;Node8 -->
<g id="edge11_Node000008_Node000002" class="edge">
<title>Node2&#45;&gt;Node8</title>
<g id="a_edge11_Node000008_Node000002"><a xlink:title=" ">
<path fill="none" stroke="#63b8ff" d="M54.03,-88.15C65.72,-80.51 80.37,-72.18 94.75,-67.38 137.37,-53.14 188.56,-48.59 225.19,-47.33"/>
<polygon fill="#63b8ff" stroke="#63b8ff" points="52.14,-85.2 45.85,-93.72 56.08,-90.98 52.14,-85.2"/>
</a>
</g>
</g>
<!-- Node9 -->
<g id="Node000009" class="node">
<title>Node9</title>
<g id="a_Node000009"><a xlink:href="structnix_1_1MixRepair.html" target="_top" xlink:title=" ">
<polygon fill="white" stroke="#bfbfbf" points="181.62,-20.75 95.12,-20.75 95.12,0 181.62,0 181.62,-20.75"/>
<text text-anchor="middle" x="138.38" y="-7.25" font-family="Helvetica,sans-Serif" font-size="10.00">nix::MixRepair</text>
</a>
</g>
</g>
<!-- Node2&#45;&gt;Node9 -->
<g id="edge13_Node000009_Node000002" class="edge">
<title>Node2&#45;&gt;Node9</title>
<g id="a_edge13_Node000009_Node000002"><a xlink:title=" ">
<path fill="none" stroke="#63b8ff" d="M45.3,-85.71C57.49,-70.49 75.76,-49.53 94.75,-34.38 100.99,-29.4 108.39,-24.84 115.27,-21.06"/>
<polygon fill="#63b8ff" stroke="#63b8ff" points="42.55,-83.54 39.15,-93.57 48.07,-87.85 42.55,-83.54"/>
</a>
</g>
</g>
<!-- Node3&#45;&gt;Node1 -->
<g id="edge2_Node000001_Node000003" class="edge">
<title>Node3&#45;&gt;Node1</title>
<g id="a_edge2_Node000001_Node000003"><a xlink:title=" ">
<path fill="none" stroke="#63b8ff" d="M819.33,-171.28C827.34,-172.15 835.41,-173.03 843.27,-173.89"/>
<polygon fill="#63b8ff" stroke="#63b8ff" points="819.9,-167.82 809.58,-170.21 819.14,-174.78 819.9,-167.82"/>
</a>
</g>
</g>
<!-- Node4&#45;&gt;Node3 -->
<g id="edge4_Node000003_Node000004" class="edge">
<title>Node4&#45;&gt;Node3</title>
<g id="a_edge4_Node000003_Node000004"><a xlink:title=" ">
<path fill="none" stroke="#63b8ff" d="M629,-137.7C648.63,-142.23 670.3,-147.25 688.97,-151.56"/>
<polygon fill="#63b8ff" stroke="#63b8ff" points="630.04,-134.35 619.51,-135.5 628.47,-141.17 630.04,-134.35"/>
</a>
</g>
</g>
<!-- Node5 -->
<g id="Node000005" class="node">
<title>Node5</title>
<g id="a_Node000005"><a xlink:href="structnix_1_1EvalCommand.html" target="_top" xlink:title=" ">
<polygon fill="white" stroke="#666666" points="475,-96.75 366.75,-96.75 366.75,-76 475,-76 475,-96.75"/>
<text text-anchor="middle" x="420.88" y="-83.25" font-family="Helvetica,sans-Serif" font-size="10.00">nix::EvalCommand</text>
</a>
</g>
</g>
<!-- Node5&#45;&gt;Node4 -->
<g id="edge6_Node000004_Node000005" class="edge">
<title>Node5&#45;&gt;Node4</title>
<g id="a_edge6_Node000004_Node000005"><a xlink:title=" ">
<path fill="none" stroke="#63b8ff" d="M474.82,-100.01C492.1,-104.47 511.04,-109.35 527.4,-113.56"/>
<polygon fill="#63b8ff" stroke="#63b8ff" points="475.77,-96.65 465.21,-97.54 474.02,-103.42 475.77,-96.65"/>
</a>
</g>
</g>
<!-- Node6 -->
<g id="Node000006" class="node">
<title>Node6</title>
<g id="a_Node000006"><a xlink:href="structnix_1_1StoreCommand.html" target="_top" xlink:title=" ">
<polygon fill="white" stroke="#666666" points="330.75,-96.75 218,-96.75 218,-76 330.75,-76 330.75,-96.75"/>
<text text-anchor="middle" x="274.38" y="-83.25" font-family="Helvetica,sans-Serif" font-size="10.00">nix::StoreCommand</text>
</a>
</g>
</g>
<!-- Node6&#45;&gt;Node5 -->
<g id="edge7_Node000005_Node000006" class="edge">
<title>Node6&#45;&gt;Node5</title>
<g id="a_edge7_Node000005_Node000006"><a xlink:title=" ">
<path fill="none" stroke="#63b8ff" d="M342.53,-86.38C350.58,-86.38 358.71,-86.38 366.53,-86.38"/>
<polygon fill="#63b8ff" stroke="#63b8ff" points="342.76,-82.88 332.76,-86.38 342.76,-89.88 342.76,-82.88"/>
</a>
</g>
</g>
<!-- Node7&#45;&gt;Node6 -->
<g id="edge8_Node000006_Node000007" class="edge">
<title>Node7&#45;&gt;Node6</title>
<g id="a_edge8_Node000006_Node000007"><a xlink:title=" ">
<path fill="none" stroke="#63b8ff" d="M193.59,-86.38C201.57,-86.38 209.79,-86.38 217.79,-86.38"/>
<polygon fill="#63b8ff" stroke="#63b8ff" points="193.66,-82.88 183.66,-86.38 193.66,-89.88 193.66,-82.88"/>
</a>
</g>
</g>
<!-- Node8&#45;&gt;Node5 -->
<g id="edge10_Node000005_Node000008" class="edge">
<title>Node8&#45;&gt;Node5</title>
<g id="a_edge10_Node000005_Node000008"><a xlink:title=" ">
<path fill="none" stroke="#63b8ff" d="M326.73,-61.24C344.09,-65.92 363.21,-71.08 379.59,-75.5"/>
<polygon fill="#63b8ff" stroke="#63b8ff" points="327.65,-57.86 317.09,-58.63 325.83,-64.62 327.65,-57.86"/>
</a>
</g>
</g>
<!-- Node9&#45;&gt;Node8 -->
<g id="edge12_Node000008_Node000009" class="edge">
<title>Node9&#45;&gt;Node8</title>
<g id="a_edge12_Node000008_Node000009"><a xlink:title=" ">
<path fill="none" stroke="#63b8ff" d="M189.56,-24.23C204.4,-28.33 220.42,-32.75 234.44,-36.62"/>
<polygon fill="#63b8ff" stroke="#63b8ff" points="190.52,-20.87 179.95,-21.58 188.66,-27.61 190.52,-20.87"/>
</a>
</g>
</g>
<!-- Node17 -->
<g id="Node000017" class="node">
<title>Node17</title>
<g id="a_Node000017"><a xlink:href="structnix_1_1CmdDevelop.html" target="_top" xlink:title=" ">
<polygon fill="white" stroke="#bfbfbf" points="1257,-94.75 1157,-94.75 1157,-74 1257,-74 1257,-94.75"/>
<text text-anchor="middle" x="1207" y="-81.25" font-family="Helvetica,sans-Serif" font-size="10.00">nix::CmdDevelop</text>
</a>
</g>
</g>
<!-- Node16&#45;&gt;Node17 -->
<g id="edge21_Node000016_Node000017" class="edge">
<title>Node16&#45;&gt;Node17</title>
<g id="a_edge21_Node000016_Node000017"><a xlink:title=" ">
<path fill="none" stroke="#63b8ff" d="M1116.62,-71.64C1129.64,-73.5 1143.61,-75.49 1156.55,-77.33"/>
<polygon fill="#63b8ff" stroke="#63b8ff" points="1117.37,-68.21 1106.97,-70.27 1116.38,-75.14 1117.37,-68.21"/>
</a>
</g>
</g>
<!-- Node18 -->
<g id="Node000018" class="node">
<title>Node18</title>
<g id="a_Node000018"><a xlink:href="structnix_1_1CmdPrintDevEnv.html" target="_top" xlink:title=" ">
<polygon fill="white" stroke="#bfbfbf" points="1266.75,-55.75 1147.25,-55.75 1147.25,-35 1266.75,-35 1266.75,-55.75"/>
<text text-anchor="middle" x="1207" y="-42.25" font-family="Helvetica,sans-Serif" font-size="10.00">nix::CmdPrintDevEnv</text>
</a>
</g>
</g>
<!-- Node16&#45;&gt;Node18 -->
<g id="edge22_Node000016_Node000018" class="edge">
<title>Node16&#45;&gt;Node18</title>
<g id="a_edge22_Node000016_Node000018"><a xlink:title=" ">
<path fill="none" stroke="#63b8ff" d="M1116.7,-57.46C1126.52,-56.13 1136.87,-54.73 1146.92,-53.37"/>
<polygon fill="#63b8ff" stroke="#63b8ff" points="1116.42,-53.97 1106.98,-58.78 1117.35,-60.91 1116.42,-53.97"/>
</a>
</g>
</g>
</g>
</svg>
