<?xml version="1.0" encoding="UTF-8" standalone="no"?>
<!DOCTYPE svg PUBLIC "-//W3C//DTD SVG 1.1//EN"
 "http://www.w3.org/Graphics/SVG/1.1/DTD/svg11.dtd">
<!-- Generated by graphviz version 12.2.1 (0)
 -->
<!-- Title: nix::CmdProfileUpgrade Pages: 1 -->
<svg width="672pt" height="427pt"
 viewBox="0.00 0.00 671.88 426.50" xmlns="http://www.w3.org/2000/svg" xmlns:xlink="http://www.w3.org/1999/xlink">
<g id="graph0" class="graph" transform="scale(1 1) rotate(0) translate(4 422.5)">
<title>nix::CmdProfileUpgrade</title>
<!-- Node1 -->
<g id="Node000001" class="node">
<title>Node1</title>
<g id="a_Node000001"><a xlink:title=" ">
<polygon fill="#999999" stroke="#666666" points="476,-20.75 344.5,-20.75 344.5,0 476,0 476,-20.75"/>
<text text-anchor="middle" x="410.25" y="-7.25" font-family="Helvetica,sans-Serif" font-size="10.00">nix::CmdProfileUpgrade</text>
</a>
</g>
</g>
<!-- Node2 -->
<g id="Node000002" class="node">
<title>Node2</title>
<g id="a_Node000002"><a xlink:href="structnix_1_1SourceExprCommand.html" target="_top" xlink:title=" ">
<polygon fill="white" stroke="#bfbfbf" points="481.25,-78.5 339.25,-78.5 339.25,-57.75 481.25,-57.75 481.25,-78.5"/>
<text text-anchor="middle" x="410.25" y="-65" font-family="Helvetica,sans-Serif" font-size="10.00">nix::SourceExprCommand</text>
</a>
</g>
</g>
<!-- Node2&#45;&gt;Node1 -->
<g id="edge1_Node000001_Node000002" class="edge">
<title>Node2&#45;&gt;Node1</title>
<g id="a_edge1_Node000001_Node000002"><a xlink:title=" ">
<path fill="none" stroke="#63b8ff" d="M410.25,-46.18C410.25,-37.52 410.25,-27.9 410.25,-20.97"/>
<polygon fill="#63b8ff" stroke="#63b8ff" points="406.75,-45.9 410.25,-55.9 413.75,-45.9 406.75,-45.9"/>
</a>
</g>
</g>
<!-- Node3 -->
<g id="Node000003" class="node">
<title>Node3</title>
<g id="a_Node000003"><a xlink:href="classnix_1_1Args.html" target="_top" xlink:title=" ">
<polygon fill="white" stroke="#bfbfbf" points="405.62,-418.5 346.88,-418.5 346.88,-397.75 405.62,-397.75 405.62,-418.5"/>
<text text-anchor="middle" x="376.25" y="-405" font-family="Helvetica,sans-Serif" font-size="10.00">nix::Args</text>
</a>
</g>
</g>
<!-- Node3&#45;&gt;Node2 -->
<g id="edge2_Node000002_Node000003" class="edge">
<title>Node3&#45;&gt;Node2</title>
<g id="a_edge2_Node000002_Node000003"><a xlink:title=" ">
<path fill="none" stroke="#63b8ff" d="M417.25,-401.03C445.23,-394.28 477.25,-380.24 477.25,-351.38 477.25,-351.38 477.25,-351.38 477.25,-144.62 477.25,-114.83 447.7,-91.31 427.85,-78.88"/>
<polygon fill="#63b8ff" stroke="#63b8ff" points="416.54,-397.6 407.49,-403.11 418,-404.45 416.54,-397.6"/>
</a>
</g>
</g>
<!-- Node5 -->
<g id="Node000005" class="node">
<title>Node5</title>
<g id="a_Node000005"><a xlink:href="structnix_1_1Command.html" target="_top" xlink:title=" ">
<polygon fill="white" stroke="#666666" points="339.88,-360.75 252.62,-360.75 252.62,-340 339.88,-340 339.88,-360.75"/>
<text text-anchor="middle" x="296.25" y="-347.25" font-family="Helvetica,sans-Serif" font-size="10.00">nix::Command</text>
</a>
</g>
</g>
<!-- Node3&#45;&gt;Node5 -->
<g id="edge5_Node000005_Node000003" class="edge">
<title>Node3&#45;&gt;Node5</title>
<g id="a_edge5_Node000005_Node000003"><a xlink:title=" ">
<path fill="none" stroke="#63b8ff" d="M352.95,-390.89C339.13,-381.26 322.07,-369.37 310.29,-361.16"/>
<polygon fill="#63b8ff" stroke="#63b8ff" points="350.87,-393.7 361.07,-396.55 354.87,-387.96 350.87,-393.7"/>
</a>
</g>
</g>
<!-- Node6 -->
<g id="Node000006" class="node">
<title>Node6</title>
<g id="a_Node000006"><a xlink:href="structnix_1_1MixFlakeOptions.html" target="_top" xlink:title=" ">
<polygon fill="white" stroke="#666666" points="440.62,-156 321.88,-156 321.88,-135.25 440.62,-135.25 440.62,-156"/>
<text text-anchor="middle" x="381.25" y="-142.5" font-family="Helvetica,sans-Serif" font-size="10.00">nix::MixFlakeOptions</text>
</a>
</g>
</g>
<!-- Node3&#45;&gt;Node6 -->
<g id="edge7_Node000006_Node000003" class="edge">
<title>Node3&#45;&gt;Node6</title>
<g id="a_edge7_Node000006_Node000003"><a xlink:title=" ">
<path fill="none" stroke="#63b8ff" d="M410.18,-391.8C425.08,-382.56 439.25,-369.11 439.25,-351.38 439.25,-351.38 439.25,-351.38 439.25,-214.12 439.25,-188.63 415.16,-167.96 398.03,-156.48"/>
<polygon fill="#63b8ff" stroke="#63b8ff" points="408.76,-388.59 401.75,-396.53 412.18,-394.69 408.76,-388.59"/>
</a>
</g>
</g>
<!-- Node9 -->
<g id="Node000009" class="node">
<title>Node9</title>
<g id="a_Node000009"><a xlink:href="structnix_1_1MixEvalArgs.html" target="_top" xlink:title=" ">
<polygon fill="white" stroke="#bfbfbf" points="151.12,-283.25 53.38,-283.25 53.38,-262.5 151.12,-262.5 151.12,-283.25"/>
<text text-anchor="middle" x="102.25" y="-269.75" font-family="Helvetica,sans-Serif" font-size="10.00">nix::MixEvalArgs</text>
</a>
</g>
</g>
<!-- Node3&#45;&gt;Node9 -->
<g id="edge12_Node000009_Node000003" class="edge">
<title>Node3&#45;&gt;Node9</title>
<g id="a_edge12_Node000009_Node000003"><a xlink:title=" ">
<path fill="none" stroke="#63b8ff" d="M335.55,-398.84C307.82,-391.84 271.21,-379.83 243.25,-360.75 214.48,-341.12 221.41,-320.3 192.25,-301.25 179.94,-293.21 165.17,-287.44 151.18,-283.34"/>
<polygon fill="#63b8ff" stroke="#63b8ff" points="334.45,-402.17 344.99,-401.1 336.08,-395.37 334.45,-402.17"/>
</a>
</g>
</g>
<!-- Node10 -->
<g id="Node000010" class="node">
<title>Node10</title>
<g id="a_Node000010"><a xlink:href="structnix_1_1MixRepair.html" target="_top" xlink:title=" ">
<polygon fill="white" stroke="#bfbfbf" points="86.5,-360.75 0,-360.75 0,-340 86.5,-340 86.5,-360.75"/>
<text text-anchor="middle" x="43.25" y="-347.25" font-family="Helvetica,sans-Serif" font-size="10.00">nix::MixRepair</text>
</a>
</g>
</g>
<!-- Node3&#45;&gt;Node10 -->
<g id="edge14_Node000010_Node000003" class="edge">
<title>Node3&#45;&gt;Node10</title>
<g id="a_edge14_Node000010_Node000003"><a xlink:title=" ">
<path fill="none" stroke="#63b8ff" d="M335.4,-400.58C280.69,-391.77 180.59,-375.49 95.25,-360.75 92.54,-360.28 89.75,-359.79 86.93,-359.3"/>
<polygon fill="#63b8ff" stroke="#63b8ff" points="334.77,-404.02 345.2,-402.16 335.88,-397.11 334.77,-404.02"/>
</a>
</g>
</g>
<!-- Node15 -->
<g id="Node000015" class="node">
<title>Node15</title>
<g id="a_Node000015"><a xlink:href="classnix_1_1MixProfileElementMatchers.html" target="_top" xlink:title=" ">
<polygon fill="white" stroke="#bfbfbf" points="663.88,-322 492.62,-322 492.62,-301.25 663.88,-301.25 663.88,-322"/>
<text text-anchor="middle" x="578.25" y="-308.5" font-family="Helvetica,sans-Serif" font-size="10.00">nix::MixProfileElementMatchers</text>
</a>
</g>
</g>
<!-- Node3&#45;&gt;Node15 -->
<g id="edge21_Node000015_Node000003" class="edge">
<title>Node3&#45;&gt;Node15</title>
<g id="a_edge21_Node000015_Node000003"><a xlink:title=" ">
<path fill="none" stroke="#8b1a1a" d="M417.03,-401.74C439.68,-397.7 467.91,-390.89 491.25,-379.75 522.58,-364.79 553.34,-337.17 568.5,-322.46"/>
<polygon fill="#8b1a1a" stroke="#8b1a1a" points="416.53,-398.27 407.24,-403.36 417.68,-405.18 416.53,-398.27"/>
</a>
</g>
</g>
<!-- Node4 -->
<g id="Node000004" class="node">
<title>Node4</title>
<g id="a_Node000004"><a xlink:href="classnix_1_1MultiCommand.html" target="_top" xlink:title=" ">
<polygon fill="white" stroke="#666666" points="411.25,-283.25 299.25,-283.25 299.25,-262.5 411.25,-262.5 411.25,-283.25"/>
<text text-anchor="middle" x="355.25" y="-269.75" font-family="Helvetica,sans-Serif" font-size="10.00">nix::MultiCommand</text>
</a>
</g>
</g>
<!-- Node4&#45;&gt;Node3 -->
<g id="edge3_Node000003_Node000004" class="edge">
<title>Node4&#45;&gt;Node3</title>
<g id="a_edge3_Node000003_Node000004"><a xlink:title=" ">
<path fill="none" stroke="#9a32cd" stroke-dasharray="5,2" d="M358.54,-294.73C363.15,-324.01 371.37,-376.13 374.74,-397.54"/>
<polygon fill="#9a32cd" stroke="#9a32cd" points="362.05,-294.56 357.04,-285.23 355.14,-295.65 362.05,-294.56"/>
</a>
</g>
<text text-anchor="middle" x="386.11" y="-347.25" font-family="Helvetica,sans-Serif" font-size="10.00" fill="grey"> parent</text>
</g>
<!-- Node5&#45;&gt;Node4 -->
<g id="edge4_Node000004_Node000005" class="edge">
<title>Node5&#45;&gt;Node4</title>
<g id="a_edge4_Node000004_Node000005"><a xlink:title=" ">
<path fill="none" stroke="#63b8ff" d="M310.92,-330.6C322.61,-315.65 338.48,-295.33 347.72,-283.51"/>
<polygon fill="#63b8ff" stroke="#63b8ff" points="308.29,-328.28 304.9,-338.31 313.81,-332.59 308.29,-328.28"/>
</a>
</g>
</g>
<!-- Node8 -->
<g id="Node000008" class="node">
<title>Node8</title>
<g id="a_Node000008"><a xlink:href="structnix_1_1StoreCommand.html" target="_top" xlink:title=" ">
<polygon fill="white" stroke="#666666" points="281.62,-283.25 168.88,-283.25 168.88,-262.5 281.62,-262.5 281.62,-283.25"/>
<text text-anchor="middle" x="225.25" y="-269.75" font-family="Helvetica,sans-Serif" font-size="10.00">nix::StoreCommand</text>
</a>
</g>
</g>
<!-- Node5&#45;&gt;Node8 -->
<g id="edge10_Node000008_Node000005" class="edge">
<title>Node5&#45;&gt;Node8</title>
<g id="a_edge10_Node000008_Node000005"><a xlink:title=" ">
<path fill="none" stroke="#63b8ff" d="M279.39,-331.45C265.26,-316.42 245.64,-295.56 234.31,-283.51"/>
<polygon fill="#63b8ff" stroke="#63b8ff" points="276.53,-333.51 285.93,-338.4 281.63,-328.72 276.53,-333.51"/>
</a>
</g>
</g>
<!-- Node6&#45;&gt;Node2 -->
<g id="edge6_Node000002_Node000006" class="edge">
<title>Node6&#45;&gt;Node2</title>
<g id="a_edge6_Node000002_Node000006"><a xlink:title=" ">
<path fill="none" stroke="#63b8ff" d="M389.13,-124.12C394.79,-109.36 402.18,-90.13 406.55,-78.76"/>
<polygon fill="#63b8ff" stroke="#63b8ff" points="385.9,-122.75 385.58,-133.34 392.44,-125.26 385.9,-122.75"/>
</a>
</g>
</g>
<!-- Node7 -->
<g id="Node000007" class="node">
<title>Node7</title>
<g id="a_Node000007"><a xlink:href="structnix_1_1EvalCommand.html" target="_top" xlink:title=" ">
<polygon fill="white" stroke="#666666" points="411.38,-225.5 303.12,-225.5 303.12,-204.75 411.38,-204.75 411.38,-225.5"/>
<text text-anchor="middle" x="357.25" y="-212" font-family="Helvetica,sans-Serif" font-size="10.00">nix::EvalCommand</text>
</a>
</g>
</g>
<!-- Node7&#45;&gt;Node6 -->
<g id="edge8_Node000006_Node000007" class="edge">
<title>Node7&#45;&gt;Node6</title>
<g id="a_edge8_Node000006_Node000007"><a xlink:title=" ">
<path fill="none" stroke="#63b8ff" d="M364.51,-193.7C368.93,-181.28 374.36,-166 377.82,-156.28"/>
<polygon fill="#63b8ff" stroke="#63b8ff" points="361.25,-192.43 361.2,-203.03 367.84,-194.78 361.25,-192.43"/>
</a>
</g>
</g>
<!-- Node8&#45;&gt;Node7 -->
<g id="edge9_Node000007_Node000008" class="edge">
<title>Node8&#45;&gt;Node7</title>
<g id="a_edge9_Node000007_Node000008"><a xlink:title=" ">
<path fill="none" stroke="#63b8ff" d="M259.12,-257.57C282.67,-247.62 313.43,-234.63 334.19,-225.87"/>
<polygon fill="#63b8ff" stroke="#63b8ff" points="257.79,-254.33 249.94,-261.45 260.51,-260.78 257.79,-254.33"/>
</a>
</g>
</g>
<!-- Node14 -->
<g id="Node000014" class="node">
<title>Node14</title>
<g id="a_Node000014"><a xlink:href="structnix_1_1MixProfile.html" target="_top" xlink:title=" ">
<polygon fill="white" stroke="#bfbfbf" points="152.12,-225.5 66.38,-225.5 66.38,-204.75 152.12,-204.75 152.12,-225.5"/>
<text text-anchor="middle" x="109.25" y="-212" font-family="Helvetica,sans-Serif" font-size="10.00">nix::MixProfile</text>
</a>
</g>
</g>
<!-- Node8&#45;&gt;Node14 -->
<g id="edge19_Node000014_Node000008" class="edge">
<title>Node8&#45;&gt;Node14</title>
<g id="a_edge19_Node000014_Node000008"><a xlink:title=" ">
<path fill="none" stroke="#63b8ff" d="M194.64,-257.16C174.06,-247.27 147.51,-234.51 129.52,-225.87"/>
<polygon fill="#63b8ff" stroke="#63b8ff" points="192.89,-260.2 203.41,-261.38 195.92,-253.89 192.89,-260.2"/>
</a>
</g>
</g>
<!-- Node9&#45;&gt;Node7 -->
<g id="edge11_Node000007_Node000009" class="edge">
<title>Node9&#45;&gt;Node7</title>
<g id="a_edge11_Node000007_Node000009"><a xlink:title=" ">
<path fill="none" stroke="#63b8ff" d="M158.29,-259.62C204.55,-249.51 269.35,-235.34 312.27,-225.96"/>
<polygon fill="#63b8ff" stroke="#63b8ff" points="157.75,-256.16 148.73,-261.71 159.25,-263 157.75,-256.16"/>
</a>
</g>
</g>
<!-- Node10&#45;&gt;Node9 -->
<g id="edge13_Node000009_Node000010" class="edge">
<title>Node10&#45;&gt;Node9</title>
<g id="a_edge13_Node000009_Node000010"><a xlink:title=" ">
<path fill="none" stroke="#63b8ff" d="M57.92,-330.6C69.61,-315.65 85.48,-295.33 94.72,-283.51"/>
<polygon fill="#63b8ff" stroke="#63b8ff" points="55.29,-328.28 51.9,-338.31 60.81,-332.59 55.29,-328.28"/>
</a>
</g>
</g>
<!-- Node11 -->
<g id="Node000011" class="node">
<title>Node11</title>
<g id="a_Node000011"><a xlink:href="structnix_1_1SearchPath.html" target="_top" xlink:title=" ">
<polygon fill="white" stroke="#666666" points="195.75,-360.75 104.75,-360.75 104.75,-340 195.75,-340 195.75,-360.75"/>
<text text-anchor="middle" x="150.25" y="-347.25" font-family="Helvetica,sans-Serif" font-size="10.00">nix::SearchPath</text>
</a>
</g>
</g>
<!-- Node11&#45;&gt;Node9 -->
<g id="edge15_Node000009_Node000011" class="edge">
<title>Node11&#45;&gt;Node9</title>
<g id="a_edge15_Node000009_Node000011"><a xlink:title=" ">
<path fill="none" stroke="#9a32cd" stroke-dasharray="5,2" d="M138.04,-330.17C128.56,-315.26 115.82,-295.22 108.37,-283.51"/>
<polygon fill="#9a32cd" stroke="#9a32cd" points="134.84,-331.67 143.16,-338.23 140.75,-327.91 134.84,-331.67"/>
</a>
</g>
<text text-anchor="middle" x="160.09" y="-308.5" font-family="Helvetica,sans-Serif" font-size="10.00" fill="grey"> searchPath</text>
</g>
<!-- Node12 -->
<g id="Node000012" class="node">
<title>Node12</title>
<g id="a_Node000012"><a xlink:href="structnix_1_1flake_1_1LockFlags.html" target="_top" xlink:title=" ">
<polygon fill="white" stroke="#bfbfbf" points="284.75,-225.5 169.75,-225.5 169.75,-204.75 284.75,-204.75 284.75,-225.5"/>
<text text-anchor="middle" x="227.25" y="-212" font-family="Helvetica,sans-Serif" font-size="10.00">nix::flake::LockFlags</text>
</a>
</g>
</g>
<!-- Node12&#45;&gt;Node6 -->
<g id="edge16_Node000006_Node000012" class="edge">
<title>Node12&#45;&gt;Node6</title>
<g id="a_edge16_Node000006_Node000012"><a xlink:title=" ">
<path fill="none" stroke="#9a32cd" stroke-dasharray="5,2" d="M257.89,-199.47C274.36,-191.7 295.07,-182.12 313.75,-174 327.67,-167.95 343.37,-161.56 356.12,-156.47"/>
<polygon fill="#9a32cd" stroke="#9a32cd" points="256.65,-196.18 249.11,-203.62 259.65,-202.51 256.65,-196.18"/>
</a>
</g>
<text text-anchor="middle" x="338.5" y="-177.25" font-family="Helvetica,sans-Serif" font-size="10.00" fill="grey"> lockFlags</text>
</g>
<!-- Node13 -->
<g id="Node000013" class="node">
<title>Node13</title>
<g id="a_Node000013"><a xlink:href="structnix_1_1MixDefaultProfile.html" target="_top" xlink:title=" ">
<polygon fill="white" stroke="#bfbfbf" points="256.12,-117.25 134.38,-117.25 134.38,-96.5 256.12,-96.5 256.12,-117.25"/>
<text text-anchor="middle" x="195.25" y="-103.75" font-family="Helvetica,sans-Serif" font-size="10.00">nix::MixDefaultProfile</text>
</a>
</g>
</g>
<!-- Node13&#45;&gt;Node1 -->
<g id="edge17_Node000001_Node000013" class="edge">
<title>Node13&#45;&gt;Node1</title>
<g id="a_edge17_Node000001_Node000013"><a xlink:title=" ">
<path fill="none" stroke="#63b8ff" d="M227.91,-91.52C272.09,-72.1 349.73,-37.98 387.85,-21.22"/>
<polygon fill="#63b8ff" stroke="#63b8ff" points="226.58,-88.28 218.83,-95.51 229.4,-94.69 226.58,-88.28"/>
</a>
</g>
</g>
<!-- Node14&#45;&gt;Node13 -->
<g id="edge18_Node000013_Node000014" class="edge">
<title>Node14&#45;&gt;Node13</title>
<g id="a_edge18_Node000013_Node000014"><a xlink:title=" ">
<path fill="none" stroke="#63b8ff" d="M124.23,-195.61C142.59,-172.93 173.01,-135.35 187.33,-117.66"/>
<polygon fill="#63b8ff" stroke="#63b8ff" points="121.71,-193.17 118.14,-203.14 127.15,-197.57 121.71,-193.17"/>
</a>
</g>
</g>
<!-- Node15&#45;&gt;Node1 -->
<g id="edge20_Node000001_Node000015" class="edge">
<title>Node15&#45;&gt;Node1</title>
<g id="a_edge20_Node000001_Node000015"><a xlink:title=" ">
<path fill="none" stroke="#63b8ff" d="M563.24,-292.08C554.52,-279.45 545.25,-261.91 545.25,-244.5 545.25,-244.5 545.25,-244.5 545.25,-67.12 545.25,-34.16 510.44,-20.3 476.17,-14.64"/>
<polygon fill="#63b8ff" stroke="#63b8ff" points="560.24,-293.92 569.02,-299.85 565.86,-289.74 560.24,-293.92"/>
</a>
</g>
</g>
</g>
</svg>
