<?xml version="1.0" encoding="UTF-8" standalone="no"?>
<!DOCTYPE svg PUBLIC "-//W3C//DTD SVG 1.1//EN"
 "http://www.w3.org/Graphics/SVG/1.1/DTD/svg11.dtd">
<!-- Generated by graphviz version 12.2.1 (0)
 -->
<!-- Title: nix::Source Pages: 1 -->
<svg width="460pt" height="599pt"
 viewBox="0.00 0.00 460.25 598.50" xmlns="http://www.w3.org/2000/svg" xmlns:xlink="http://www.w3.org/1999/xlink">
<g id="graph0" class="graph" transform="scale(1 1) rotate(0) translate(4 594.5)">
<title>nix::Source</title>
<!-- Node1 -->
<g id="Node000001" class="node">
<title>Node1</title>
<g id="a_Node000001"><a xlink:title=" ">
<polygon fill="#999999" stroke="#666666" points="70,-299.12 0,-299.12 0,-278.38 70,-278.38 70,-299.12"/>
<text text-anchor="middle" x="35" y="-285.62" font-family="Helvetica,sans-Serif" font-size="10.00">nix::Source</text>
</a>
</g>
</g>
<!-- Node2 -->
<g id="Node000002" class="node">
<title>Node2</title>
<g id="a_Node000002"><a xlink:href="structnix_1_1ArchiveDecompressionSource.html" target="_top" xlink:title=" ">
<polygon fill="white" stroke="#bfbfbf" points="262.25,-590.5 112.75,-590.5 112.75,-557 262.25,-557 262.25,-590.5"/>
<text text-anchor="start" x="120.75" y="-577" font-family="Helvetica,sans-Serif" font-size="10.00">nix::ArchiveDecompression</text>
<text text-anchor="middle" x="187.5" y="-564.25" font-family="Helvetica,sans-Serif" font-size="10.00">Source</text>
</a>
</g>
</g>
<!-- Node1&#45;&gt;Node2 -->
<g id="edge1_Node000001_Node000002" class="edge">
<title>Node1&#45;&gt;Node2</title>
<g id="a_edge1_Node000001_Node000002"><a xlink:title=" ">
<path fill="none" stroke="#63b8ff" d="M35.36,-311.08C35.19,-360.57 41.85,-480.42 106,-547.75 109.24,-551.15 112.93,-554.11 116.9,-556.68"/>
<polygon fill="#63b8ff" stroke="#63b8ff" points="38.86,-311.15 35.51,-301.1 31.86,-311.04 38.86,-311.15"/>
</a>
</g>
</g>
<!-- Node3 -->
<g id="Node000003" class="node">
<title>Node3</title>
<g id="a_Node000003"><a xlink:href="structnix_1_1BrotliDecompressionSource.html" target="_top" xlink:title=" ">
<polygon fill="white" stroke="#bfbfbf" points="257,-538.5 118,-538.5 118,-505 257,-505 257,-538.5"/>
<text text-anchor="start" x="126" y="-525" font-family="Helvetica,sans-Serif" font-size="10.00">nix::BrotliDecompression</text>
<text text-anchor="middle" x="187.5" y="-512.25" font-family="Helvetica,sans-Serif" font-size="10.00">Source</text>
</a>
</g>
</g>
<!-- Node1&#45;&gt;Node3 -->
<g id="edge2_Node000001_Node000003" class="edge">
<title>Node1&#45;&gt;Node3</title>
<g id="a_edge2_Node000001_Node000003"><a xlink:title=" ">
<path fill="none" stroke="#63b8ff" d="M37.16,-310.83C40.55,-352.76 53.87,-444.32 106,-495.75 109.45,-499.15 113.35,-502.11 117.52,-504.68"/>
<polygon fill="#63b8ff" stroke="#63b8ff" points="40.66,-310.76 36.49,-301.02 33.68,-311.23 40.66,-310.76"/>
</a>
</g>
</g>
<!-- Node4 -->
<g id="Node000004" class="node">
<title>Node4</title>
<g id="a_Node000004"><a xlink:href="structnix_1_1BufferedSource.html" target="_top" xlink:title=" ">
<polygon fill="white" stroke="#666666" points="243.12,-487.12 131.88,-487.12 131.88,-466.38 243.12,-466.38 243.12,-487.12"/>
<text text-anchor="middle" x="187.5" y="-473.62" font-family="Helvetica,sans-Serif" font-size="10.00">nix::BufferedSource</text>
</a>
</g>
</g>
<!-- Node1&#45;&gt;Node4 -->
<g id="edge3_Node000001_Node000004" class="edge">
<title>Node1&#45;&gt;Node4</title>
<g id="a_edge3_Node000001_Node000004"><a xlink:title=" ">
<path fill="none" stroke="#63b8ff" d="M38.75,-310.42C44.5,-346.38 61.19,-418.25 106,-456.75 113.32,-463.04 122.32,-467.4 131.62,-470.42"/>
<polygon fill="#63b8ff" stroke="#63b8ff" points="42.26,-310.2 37.36,-300.81 35.33,-311.2 42.26,-310.2"/>
</a>
</g>
</g>
<!-- Node7 -->
<g id="Node000007" class="node">
<title>Node7</title>
<g id="a_Node000007"><a xlink:href="structnix_1_1FramedSource.html" target="_top" xlink:title=" ">
<polygon fill="white" stroke="#666666" points="240.88,-448.12 134.12,-448.12 134.12,-427.38 240.88,-427.38 240.88,-448.12"/>
<text text-anchor="middle" x="187.5" y="-434.62" font-family="Helvetica,sans-Serif" font-size="10.00">nix::FramedSource</text>
</a>
</g>
</g>
<!-- Node1&#45;&gt;Node7 -->
<g id="edge6_Node000001_Node000007" class="edge">
<title>Node1&#45;&gt;Node7</title>
<g id="a_edge6_Node000001_Node000007"><a xlink:title=" ">
<path fill="none" stroke="#63b8ff" d="M41.73,-310.26C50.58,-339.19 70.38,-390.19 106,-417.75 114.09,-424.01 123.88,-428.33 133.81,-431.31"/>
<polygon fill="#63b8ff" stroke="#63b8ff" points="45.14,-309.44 39.01,-300.8 38.41,-311.38 45.14,-309.44"/>
</a>
</g>
</g>
<!-- Node8 -->
<g id="Node000008" class="node">
<title>Node8</title>
<g id="a_Node000008"><a xlink:href="structnix_1_1GeneratorSource.html" target="_top" xlink:title=" ">
<polygon fill="white" stroke="#bfbfbf" points="246.88,-409.12 128.12,-409.12 128.12,-388.38 246.88,-388.38 246.88,-409.12"/>
<text text-anchor="middle" x="187.5" y="-395.62" font-family="Helvetica,sans-Serif" font-size="10.00">nix::GeneratorSource</text>
</a>
</g>
</g>
<!-- Node1&#45;&gt;Node8 -->
<g id="edge7_Node000001_Node000008" class="edge">
<title>Node1&#45;&gt;Node8</title>
<g id="a_edge7_Node000001_Node000008"><a xlink:title=" ">
<path fill="none" stroke="#63b8ff" d="M46.43,-309.5C58.07,-330.48 78.89,-362.24 106,-379.75 112.63,-384.03 120.13,-387.36 127.82,-389.93"/>
<polygon fill="#63b8ff" stroke="#63b8ff" points="49.55,-307.91 41.77,-300.71 43.37,-311.19 49.55,-307.91"/>
</a>
</g>
</g>
<!-- Node9 -->
<g id="Node000009" class="node">
<title>Node9</title>
<g id="a_Node000009"><a xlink:href="classnix_1_1IndirectAsyncInputStreamToSource.html" target="_top" xlink:title=" ">
<polygon fill="white" stroke="#666666" points="269,-370.5 106,-370.5 106,-337 269,-337 269,-370.5"/>
<text text-anchor="start" x="114" y="-357" font-family="Helvetica,sans-Serif" font-size="10.00">nix::IndirectAsyncInputStream</text>
<text text-anchor="middle" x="187.5" y="-344.25" font-family="Helvetica,sans-Serif" font-size="10.00">ToSource</text>
</a>
</g>
</g>
<!-- Node1&#45;&gt;Node9 -->
<g id="edge8_Node000001_Node000009" class="edge">
<title>Node1&#45;&gt;Node9</title>
<g id="a_edge8_Node000001_Node000009"><a xlink:title=" ">
<path fill="none" stroke="#63b8ff" d="M62.63,-305.21C75.44,-312.7 91.2,-321.31 106,-327.75 113.27,-330.91 121.06,-333.9 128.82,-336.64"/>
<polygon fill="#63b8ff" stroke="#63b8ff" points="64.75,-302.39 54.37,-300.28 61.16,-308.41 64.75,-302.39"/>
</a>
</g>
</g>
<!-- Node10 -->
<g id="Node000010" class="node">
<title>Node10</title>
<g id="a_Node000010"><a xlink:href="structnix_1_1LambdaSource.html" target="_top" xlink:title=" ">
<polygon fill="white" stroke="#666666" points="242,-319.12 133,-319.12 133,-298.38 242,-298.38 242,-319.12"/>
<text text-anchor="middle" x="187.5" y="-305.62" font-family="Helvetica,sans-Serif" font-size="10.00">nix::LambdaSource</text>
</a>
</g>
</g>
<!-- Node1&#45;&gt;Node10 -->
<g id="edge9_Node000001_Node000010" class="edge">
<title>Node1&#45;&gt;Node10</title>
<g id="a_edge9_Node000001_Node000010"><a xlink:title=" ">
<path fill="none" stroke="#63b8ff" d="M81.47,-294.79C97.61,-296.94 115.93,-299.37 132.71,-301.6"/>
<polygon fill="#63b8ff" stroke="#63b8ff" points="82.03,-291.34 71.65,-293.49 81.1,-298.27 82.03,-291.34"/>
</a>
</g>
</g>
<!-- Node11 -->
<g id="Node000011" class="node">
<title>Node11</title>
<g id="a_Node000011"><a xlink:href="structnix_1_1RewritingSource.html" target="_top" xlink:title=" ">
<polygon fill="white" stroke="#bfbfbf" points="245.75,-280.12 129.25,-280.12 129.25,-259.38 245.75,-259.38 245.75,-280.12"/>
<text text-anchor="middle" x="187.5" y="-266.62" font-family="Helvetica,sans-Serif" font-size="10.00">nix::RewritingSource</text>
</a>
</g>
</g>
<!-- Node1&#45;&gt;Node11 -->
<g id="edge10_Node000001_Node000011" class="edge">
<title>Node1&#45;&gt;Node11</title>
<g id="a_edge10_Node000001_Node000011"><a xlink:title=" ">
<path fill="none" stroke="#63b8ff" d="M81.19,-283.04C96.18,-281.15 113.07,-279.02 128.86,-277.03"/>
<polygon fill="#63b8ff" stroke="#63b8ff" points="81.14,-279.52 71.65,-284.25 82.01,-286.47 81.14,-279.52"/>
</a>
</g>
</g>
<!-- Node12 -->
<g id="Node000012" class="node">
<title>Node12</title>
<g id="a_Node000012"><a xlink:href="structnix_1_1SizedSource.html" target="_top" xlink:title=" ">
<polygon fill="white" stroke="#666666" points="235.62,-241.12 139.38,-241.12 139.38,-220.38 235.62,-220.38 235.62,-241.12"/>
<text text-anchor="middle" x="187.5" y="-227.62" font-family="Helvetica,sans-Serif" font-size="10.00">nix::SizedSource</text>
</a>
</g>
</g>
<!-- Node1&#45;&gt;Node12 -->
<g id="edge11_Node000001_Node000012" class="edge">
<title>Node1&#45;&gt;Node12</title>
<g id="a_edge11_Node000001_Node000012"><a xlink:title=" ">
<path fill="none" stroke="#63b8ff" d="M62.49,-272.29C75.28,-264.9 91.05,-256.56 106,-250.75 116.47,-246.68 128.03,-243.24 139.05,-240.41"/>
<polygon fill="#63b8ff" stroke="#63b8ff" points="61.08,-269.07 54.26,-277.18 64.65,-275.09 61.08,-269.07"/>
</a>
</g>
</g>
<!-- Node13 -->
<g id="Node000013" class="node">
<title>Node13</title>
<g id="a_Node000013"><a xlink:href="structnix_1_1StreamToSourceAdapter.html" target="_top" xlink:title=" ">
<polygon fill="white" stroke="#666666" points="264.5,-202.12 110.5,-202.12 110.5,-181.38 264.5,-181.38 264.5,-202.12"/>
<text text-anchor="middle" x="187.5" y="-188.62" font-family="Helvetica,sans-Serif" font-size="10.00">nix::StreamToSourceAdapter</text>
</a>
</g>
</g>
<!-- Node1&#45;&gt;Node13 -->
<g id="edge12_Node000001_Node000013" class="edge">
<title>Node1&#45;&gt;Node13</title>
<g id="a_edge12_Node000001_Node000013"><a xlink:title=" ">
<path fill="none" stroke="#63b8ff" d="M49.15,-268.55C61.68,-250.92 82.14,-226 106,-211.75 112.18,-208.06 119.02,-205.05 126.02,-202.59"/>
<polygon fill="#63b8ff" stroke="#63b8ff" points="46.33,-266.47 43.58,-276.7 52.11,-270.42 46.33,-266.47"/>
</a>
</g>
</g>
<!-- Node14 -->
<g id="Node000014" class="node">
<title>Node14</title>
<g id="a_Node000014"><a xlink:href="structnix_1_1StringSource.html" target="_top" xlink:title=" ">
<polygon fill="white" stroke="#666666" points="236.75,-163.12 138.25,-163.12 138.25,-142.38 236.75,-142.38 236.75,-163.12"/>
<text text-anchor="middle" x="187.5" y="-149.62" font-family="Helvetica,sans-Serif" font-size="10.00">nix::StringSource</text>
</a>
</g>
</g>
<!-- Node1&#45;&gt;Node14 -->
<g id="edge13_Node000001_Node000014" class="edge">
<title>Node1&#45;&gt;Node14</title>
<g id="a_edge13_Node000001_Node000014"><a xlink:title=" ">
<path fill="none" stroke="#63b8ff" d="M43.05,-267.5C52.9,-241.17 73.34,-196.85 106,-172.75 115.27,-165.91 126.61,-161.39 137.82,-158.41"/>
<polygon fill="#63b8ff" stroke="#63b8ff" points="39.81,-266.17 39.77,-276.77 46.41,-268.51 39.81,-266.17"/>
</a>
</g>
</g>
<!-- Node15 -->
<g id="Node000015" class="node">
<title>Node15</title>
<g id="a_Node000015"><a xlink:href="structnix_1_1TeeSource.html" target="_top" xlink:title=" ">
<polygon fill="white" stroke="#666666" points="230.75,-124.12 144.25,-124.12 144.25,-103.38 230.75,-103.38 230.75,-124.12"/>
<text text-anchor="middle" x="187.5" y="-110.62" font-family="Helvetica,sans-Serif" font-size="10.00">nix::TeeSource</text>
</a>
</g>
</g>
<!-- Node1&#45;&gt;Node15 -->
<g id="edge14_Node000001_Node000015" class="edge">
<title>Node1&#45;&gt;Node15</title>
<g id="a_edge14_Node000001_Node000015"><a xlink:title=" ">
<path fill="none" stroke="#63b8ff" d="M39.64,-266.87C46.45,-233.08 64.38,-168.46 106,-133.75 116.62,-124.9 130.59,-119.87 143.91,-117.05"/>
<polygon fill="#63b8ff" stroke="#63b8ff" points="36.2,-266.23 37.83,-276.7 43.09,-267.5 36.2,-266.23"/>
</a>
</g>
</g>
<!-- Node16 -->
<g id="Node000016" class="node">
<title>Node16</title>
<g id="a_Node000016"><a xlink:href="structnix_1_1curlFileTransfer_1_1DecompressionWrapper.html" target="_top" xlink:title=" ">
<polygon fill="white" stroke="#bfbfbf" points="257,-85.5 118,-85.5 118,-52 257,-52 257,-85.5"/>
<text text-anchor="start" x="126" y="-72" font-family="Helvetica,sans-Serif" font-size="10.00">nix::curlFileTransfer</text>
<text text-anchor="middle" x="187.5" y="-59.25" font-family="Helvetica,sans-Serif" font-size="10.00">::DecompressionWrapper</text>
</a>
</g>
</g>
<!-- Node1&#45;&gt;Node16 -->
<g id="edge15_Node000001_Node000016" class="edge">
<title>Node1&#45;&gt;Node16</title>
<g id="a_edge15_Node000001_Node000016"><a xlink:title=" ">
<path fill="none" stroke="#63b8ff" d="M37.72,-266.96C42.02,-227.14 56.75,-142.36 106,-94.75 109.48,-91.38 113.41,-88.45 117.6,-85.9"/>
<polygon fill="#63b8ff" stroke="#63b8ff" points="34.25,-266.41 36.8,-276.7 41.22,-267.07 34.25,-266.41"/>
</a>
</g>
</g>
<!-- Node17 -->
<g id="Node000017" class="node">
<title>Node17</title>
<g id="a_Node000017"><a xlink:href="structnix_1_1curlFileTransfer_1_1TransferSource.html" target="_top" xlink:title=" ">
<polygon fill="white" stroke="#bfbfbf" points="243.12,-33.5 131.88,-33.5 131.88,0 243.12,0 243.12,-33.5"/>
<text text-anchor="start" x="139.88" y="-20" font-family="Helvetica,sans-Serif" font-size="10.00">nix::curlFileTransfer</text>
<text text-anchor="middle" x="187.5" y="-7.25" font-family="Helvetica,sans-Serif" font-size="10.00">::TransferSource</text>
</a>
</g>
</g>
<!-- Node1&#45;&gt;Node17 -->
<g id="edge16_Node000001_Node000017" class="edge">
<title>Node1&#45;&gt;Node17</title>
<g id="a_edge16_Node000001_Node000017"><a xlink:title=" ">
<path fill="none" stroke="#63b8ff" d="M35.74,-266.56C36.43,-218.93 44.84,-106.1 106,-42.75 113.04,-35.46 122.13,-30.21 131.66,-26.43"/>
<polygon fill="#63b8ff" stroke="#63b8ff" points="32.24,-266.4 35.72,-276.41 39.24,-266.42 32.24,-266.4"/>
</a>
</g>
</g>
<!-- Node5 -->
<g id="Node000005" class="node">
<title>Node5</title>
<g id="a_Node000005"><a xlink:href="structnix_1_1FdSource.html" target="_top" xlink:title=" ">
<polygon fill="white" stroke="#666666" points="419.62,-506.12 337.62,-506.12 337.62,-485.38 419.62,-485.38 419.62,-506.12"/>
<text text-anchor="middle" x="378.62" y="-492.62" font-family="Helvetica,sans-Serif" font-size="10.00">nix::FdSource</text>
</a>
</g>
</g>
<!-- Node4&#45;&gt;Node5 -->
<g id="edge4_Node000004_Node000005" class="edge">
<title>Node4&#45;&gt;Node5</title>
<g id="a_edge4_Node000004_Node000005"><a xlink:title=" ">
<path fill="none" stroke="#63b8ff" d="M254.61,-483.39C282.15,-486.16 313.24,-489.28 337.27,-491.7"/>
<polygon fill="#63b8ff" stroke="#63b8ff" points="255.26,-479.94 244.96,-482.42 254.56,-486.9 255.26,-479.94"/>
</a>
</g>
</g>
<!-- Node6 -->
<g id="Node000006" class="node">
<title>Node6</title>
<g id="a_Node000006"><a xlink:href="structnix_1_1daemon_1_1TunnelSource.html" target="_top" xlink:title=" ">
<polygon fill="white" stroke="#bfbfbf" points="452.25,-467.12 305,-467.12 305,-446.38 452.25,-446.38 452.25,-467.12"/>
<text text-anchor="middle" x="378.62" y="-453.62" font-family="Helvetica,sans-Serif" font-size="10.00">nix::daemon::TunnelSource</text>
</a>
</g>
</g>
<!-- Node4&#45;&gt;Node6 -->
<g id="edge5_Node000004_Node000006" class="edge">
<title>Node4&#45;&gt;Node6</title>
<g id="a_edge5_Node000004_Node000006"><a xlink:title=" ">
<path fill="none" stroke="#63b8ff" d="M254.44,-469.78C270.64,-468.06 288.06,-466.22 304.57,-464.48"/>
<polygon fill="#63b8ff" stroke="#63b8ff" points="254.54,-466.25 244.96,-470.78 255.27,-473.21 254.54,-466.25"/>
</a>
</g>
</g>
</g>
</svg>
