<?xml version="1.0" encoding="UTF-8" standalone="no"?>
<!DOCTYPE svg PUBLIC "-//W3C//DTD SVG 1.1//EN"
 "http://www.w3.org/Graphics/SVG/1.1/DTD/svg11.dtd">
<!-- Generated by graphviz version 12.2.1 (0)
 -->
<!-- Title: nix::fetchers::Tree Pages: 1 -->
<svg width="212pt" height="98pt"
 viewBox="0.00 0.00 212.12 98.25" xmlns="http://www.w3.org/2000/svg" xmlns:xlink="http://www.w3.org/1999/xlink">
<g id="graph0" class="graph" transform="scale(1 1) rotate(0) translate(4 94.25)">
<title>nix::fetchers::Tree</title>
<!-- Node1 -->
<g id="Node000001" class="node">
<title>Node1</title>
<g id="a_Node000001"><a xlink:title=" ">
<polygon fill="#999999" stroke="#666666" points="111.38,-20.75 8.38,-20.75 8.38,0 111.38,0 111.38,-20.75"/>
<text text-anchor="middle" x="59.88" y="-7.25" font-family="Helvetica,sans-Serif" font-size="10.00">nix::fetchers::Tree</text>
</a>
</g>
</g>
<!-- Node2 -->
<g id="Node000002" class="node">
<title>Node2</title>
<g id="a_Node000002"><a xlink:title=" ">
<polygon fill="white" stroke="#bfbfbf" points="43.75,-90.25 0,-90.25 0,-69.5 43.75,-69.5 43.75,-90.25"/>
<text text-anchor="middle" x="21.88" y="-76.75" font-family="Helvetica,sans-Serif" font-size="10.00">string</text>
</a>
</g>
</g>
<!-- Node2&#45;&gt;Node1 -->
<g id="edge1_Node000001_Node000002" class="edge">
<title>Node2&#45;&gt;Node1</title>
<g id="a_edge1_Node000001_Node000002"><a xlink:title=" ">
<path fill="none" stroke="#9a32cd" stroke-dasharray="5,2" d="M20.25,-57.68C20.59,-51.29 21.83,-44.46 24.88,-38.75 28.73,-31.54 35.39,-25.61 41.88,-21.13"/>
<polygon fill="#9a32cd" stroke="#9a32cd" points="16.75,-57.58 20.45,-67.51 23.75,-57.44 16.75,-57.58"/>
</a>
</g>
<text text-anchor="middle" x="51.88" y="-42" font-family="Helvetica,sans-Serif" font-size="10.00" fill="grey"> actualPath</text>
</g>
<!-- Node3 -->
<g id="Node000003" class="node">
<title>Node3</title>
<g id="a_Node000003"><a xlink:href="classnix_1_1StorePath.html" target="_top" xlink:title=" ">
<polygon fill="white" stroke="#666666" points="145.62,-90.25 62.12,-90.25 62.12,-69.5 145.62,-69.5 145.62,-90.25"/>
<text text-anchor="middle" x="103.88" y="-76.75" font-family="Helvetica,sans-Serif" font-size="10.00">nix::StorePath</text>
</a>
</g>
</g>
<!-- Node3&#45;&gt;Node1 -->
<g id="edge2_Node000001_Node000003" class="edge">
<title>Node3&#45;&gt;Node1</title>
<g id="a_edge2_Node000001_Node000003"><a xlink:title=" ">
<path fill="none" stroke="#9a32cd" stroke-dasharray="5,2" d="M92.17,-59.66C88.04,-52.99 83.32,-45.5 78.88,-38.75 75,-32.85 70.5,-26.36 66.85,-21.18"/>
<polygon fill="#9a32cd" stroke="#9a32cd" points="89.04,-61.25 97.25,-67.93 95,-57.58 89.04,-61.25"/>
</a>
</g>
<text text-anchor="middle" x="110.99" y="-42" font-family="Helvetica,sans-Serif" font-size="10.00" fill="grey"> storePath</text>
</g>
<!-- Node3&#45;&gt;Node3 -->
<g id="edge3_Node000003_Node000003" class="edge">
<title>Node3&#45;&gt;Node3</title>
<g id="a_edge3_Node000003_Node000003"><a xlink:title=" ">
<path fill="none" stroke="#9a32cd" stroke-dasharray="5,2" d="M157.38,-84.68C161.26,-83.6 163.62,-81.99 163.62,-79.88 163.62,-76.11 156.14,-73.97 146.03,-73.47"/>
<polygon fill="#9a32cd" stroke="#9a32cd" points="156.94,-81.21 147.53,-86.07 157.92,-88.14 156.94,-81.21"/>
</a>
</g>
<text text-anchor="middle" x="183.88" y="-76.75" font-family="Helvetica,sans-Serif" font-size="10.00" fill="grey"> dummy</text>
</g>
</g>
</svg>
