<?xml version="1.0" encoding="UTF-8" standalone="no"?>
<!DOCTYPE svg PUBLIC "-//W3C//DTD SVG 1.1//EN"
 "http://www.w3.org/Graphics/SVG/1.1/DTD/svg11.dtd">
<!-- Generated by graphviz version 12.2.1 (0)
 -->
<!-- Title: nix::StoreConfig Pages: 1 -->
<svg width="914pt" height="288pt"
 viewBox="0.00 0.00 914.00 288.12" xmlns="http://www.w3.org/2000/svg" xmlns:xlink="http://www.w3.org/1999/xlink">
<g id="graph0" class="graph" transform="scale(1 1) rotate(0) translate(4 284.12)">
<title>nix::StoreConfig</title>
<!-- Node1 -->
<g id="Node000001" class="node">
<title>Node1</title>
<g id="a_Node000001"><a xlink:title=" ">
<polygon fill="#999999" stroke="#666666" points="341.25,-137.75 248,-137.75 248,-117 341.25,-117 341.25,-137.75"/>
<text text-anchor="middle" x="294.62" y="-124.25" font-family="Helvetica,sans-Serif" font-size="10.00">nix::StoreConfig</text>
</a>
</g>
</g>
<!-- Node4 -->
<g id="Node000004" class="node">
<title>Node4</title>
<g id="a_Node000004"><a xlink:href="structnix_1_1BinaryCacheStoreConfig.html" target="_top" xlink:title=" ">
<polygon fill="white" stroke="#bfbfbf" points="533.12,-221.75 378.38,-221.75 378.38,-201 533.12,-201 533.12,-221.75"/>
<text text-anchor="middle" x="455.75" y="-208.25" font-family="Helvetica,sans-Serif" font-size="10.00">nix::BinaryCacheStoreConfig</text>
</a>
</g>
</g>
<!-- Node1&#45;&gt;Node4 -->
<g id="edge3_Node000001_Node000004" class="edge">
<title>Node1&#45;&gt;Node4</title>
<g id="a_edge3_Node000001_Node000004"><a xlink:title=" ">
<path fill="none" stroke="#63b8ff" d="M317.09,-145.3C332.93,-157.84 355.44,-174.28 377.25,-185.38 389.14,-191.43 402.75,-196.54 415.21,-200.59"/>
<polygon fill="#63b8ff" stroke="#63b8ff" points="319.31,-142.59 309.33,-139.03 314.91,-148.04 319.31,-142.59"/>
</a>
</g>
</g>
<!-- Node7 -->
<g id="Node000007" class="node">
<title>Node7</title>
<g id="a_Node000007"><a xlink:href="structnix_1_1CommonSSHStoreConfig.html" target="_top" xlink:title=" ">
<polygon fill="white" stroke="#bfbfbf" points="534.25,-176.75 377.25,-176.75 377.25,-156 534.25,-156 534.25,-176.75"/>
<text text-anchor="middle" x="455.75" y="-163.25" font-family="Helvetica,sans-Serif" font-size="10.00">nix::CommonSSHStoreConfig</text>
</a>
</g>
</g>
<!-- Node1&#45;&gt;Node7 -->
<g id="edge6_Node000001_Node000007" class="edge">
<title>Node1&#45;&gt;Node7</title>
<g id="a_edge6_Node000001_Node000007"><a xlink:title=" ">
<path fill="none" stroke="#63b8ff" d="M351.09,-140.97C370.49,-145.72 392.01,-151 410.39,-155.5"/>
<polygon fill="#63b8ff" stroke="#63b8ff" points="351.97,-137.58 341.42,-138.6 350.3,-144.38 351.97,-137.58"/>
</a>
</g>
</g>
<!-- Node11 -->
<g id="Node000011" class="node">
<title>Node11</title>
<g id="a_Node000011"><a xlink:href="structnix_1_1DummyStoreConfig.html" target="_top" xlink:title=" ">
<polygon fill="white" stroke="#bfbfbf" points="521.88,-137.75 389.62,-137.75 389.62,-117 521.88,-117 521.88,-137.75"/>
<text text-anchor="middle" x="455.75" y="-124.25" font-family="Helvetica,sans-Serif" font-size="10.00">nix::DummyStoreConfig</text>
</a>
</g>
</g>
<!-- Node1&#45;&gt;Node11 -->
<g id="edge10_Node000001_Node000011" class="edge">
<title>Node1&#45;&gt;Node11</title>
<g id="a_edge10_Node000001_Node000011"><a xlink:title=" ">
<path fill="none" stroke="#63b8ff" d="M353.12,-127.38C364.86,-127.38 377.3,-127.38 389.3,-127.38"/>
<polygon fill="#63b8ff" stroke="#63b8ff" points="353.16,-123.88 343.16,-127.38 353.16,-130.88 353.16,-123.88"/>
</a>
</g>
</g>
<!-- Node12 -->
<g id="Node000012" class="node">
<title>Node12</title>
<g id="a_Node000012"><a xlink:href="structnix_1_1LocalFSStoreConfig.html" target="_top" xlink:title=" ">
<polygon fill="white" stroke="#bfbfbf" points="520.75,-59.75 390.75,-59.75 390.75,-39 520.75,-39 520.75,-59.75"/>
<text text-anchor="middle" x="455.75" y="-46.25" font-family="Helvetica,sans-Serif" font-size="10.00">nix::LocalFSStoreConfig</text>
</a>
</g>
</g>
<!-- Node1&#45;&gt;Node12 -->
<g id="edge11_Node000001_Node000012" class="edge">
<title>Node1&#45;&gt;Node12</title>
<g id="a_edge11_Node000001_Node000012"><a xlink:title=" ">
<path fill="none" stroke="#63b8ff" d="M316.14,-109.56C331.9,-96.71 354.72,-79.85 377.25,-69.38 385.06,-65.74 393.64,-62.7 402.14,-60.17"/>
<polygon fill="#63b8ff" stroke="#63b8ff" points="314.32,-106.52 308.89,-115.61 318.81,-111.89 314.32,-106.52"/>
</a>
</g>
</g>
<!-- Node16 -->
<g id="Node000016" class="node">
<title>Node16</title>
<g id="a_Node000016"><a xlink:href="structnix_1_1RemoteStoreConfig.html" target="_top" xlink:title=" ">
<polygon fill="white" stroke="#bfbfbf" points="521.5,-98.75 390,-98.75 390,-78 521.5,-78 521.5,-98.75"/>
<text text-anchor="middle" x="455.75" y="-85.25" font-family="Helvetica,sans-Serif" font-size="10.00">nix::RemoteStoreConfig</text>
</a>
</g>
</g>
<!-- Node1&#45;&gt;Node16 -->
<g id="edge15_Node000001_Node000016" class="edge">
<title>Node1&#45;&gt;Node16</title>
<g id="a_edge15_Node000001_Node000016"><a xlink:title=" ">
<path fill="none" stroke="#63b8ff" d="M351.09,-113.78C370.49,-109.03 392.01,-103.75 410.39,-99.25"/>
<polygon fill="#63b8ff" stroke="#63b8ff" points="350.3,-110.37 341.42,-116.15 351.97,-117.17 350.3,-110.37"/>
</a>
</g>
</g>
<!-- Node2 -->
<g id="Node000002" class="node">
<title>Node2</title>
<g id="a_Node000002"><a xlink:href="classnix_1_1Config.html" target="_top" xlink:title=" ">
<polygon fill="white" stroke="#666666" points="212,-137.75 144.25,-137.75 144.25,-117 212,-117 212,-137.75"/>
<text text-anchor="middle" x="178.12" y="-124.25" font-family="Helvetica,sans-Serif" font-size="10.00">nix::Config</text>
</a>
</g>
</g>
<!-- Node2&#45;&gt;Node1 -->
<g id="edge1_Node000001_Node000002" class="edge">
<title>Node2&#45;&gt;Node1</title>
<g id="a_edge1_Node000001_Node000002"><a xlink:title=" ">
<path fill="none" stroke="#63b8ff" d="M223.57,-127.38C231.52,-127.38 239.82,-127.38 247.81,-127.38"/>
<polygon fill="#63b8ff" stroke="#63b8ff" points="223.76,-123.88 213.76,-127.38 223.76,-130.88 223.76,-123.88"/>
</a>
</g>
</g>
<!-- Node3 -->
<g id="Node000003" class="node">
<title>Node3</title>
<g id="a_Node000003"><a xlink:href="classnix_1_1AbstractConfig.html" target="_top" xlink:title=" ">
<polygon fill="white" stroke="#bfbfbf" points="108.25,-137.75 0,-137.75 0,-117 108.25,-117 108.25,-137.75"/>
<text text-anchor="middle" x="54.12" y="-124.25" font-family="Helvetica,sans-Serif" font-size="10.00">nix::AbstractConfig</text>
</a>
</g>
</g>
<!-- Node3&#45;&gt;Node2 -->
<g id="edge2_Node000002_Node000003" class="edge">
<title>Node3&#45;&gt;Node2</title>
<g id="a_edge2_Node000002_Node000003"><a xlink:title=" ">
<path fill="none" stroke="#63b8ff" d="M119.98,-127.38C128.29,-127.38 136.51,-127.38 144.02,-127.38"/>
<polygon fill="#63b8ff" stroke="#63b8ff" points="120.15,-123.88 110.15,-127.38 120.15,-130.88 120.15,-123.88"/>
</a>
</g>
</g>
<!-- Node5 -->
<g id="Node000005" class="node">
<title>Node5</title>
<g id="a_Node000005"><a xlink:href="structnix_1_1HttpBinaryCacheStoreConfig.html" target="_top" xlink:title=" ">
<polygon fill="white" stroke="#bfbfbf" points="719,-280.12 574,-280.12 574,-246.62 719,-246.62 719,-280.12"/>
<text text-anchor="start" x="582" y="-266.62" font-family="Helvetica,sans-Serif" font-size="10.00">nix::HttpBinaryCacheStore</text>
<text text-anchor="middle" x="646.5" y="-253.88" font-family="Helvetica,sans-Serif" font-size="10.00">Config</text>
</a>
</g>
</g>
<!-- Node4&#45;&gt;Node5 -->
<g id="edge4_Node000004_Node000005" class="edge">
<title>Node4&#45;&gt;Node5</title>
<g id="a_edge4_Node000004_Node000005"><a xlink:title=" ">
<path fill="none" stroke="#63b8ff" d="M506.92,-225.2C530.28,-231.63 558.31,-239.36 583.04,-246.17"/>
<polygon fill="#63b8ff" stroke="#63b8ff" points="507.89,-221.83 497.32,-222.55 506.03,-228.58 507.89,-221.83"/>
</a>
</g>
</g>
<!-- Node6 -->
<g id="Node000006" class="node">
<title>Node6</title>
<g id="a_Node000006"><a xlink:href="structnix_1_1LocalBinaryCacheStoreConfig.html" target="_top" xlink:title=" ">
<polygon fill="white" stroke="#bfbfbf" points="721.25,-228.12 571.75,-228.12 571.75,-194.62 721.25,-194.62 721.25,-228.12"/>
<text text-anchor="start" x="579.75" y="-214.62" font-family="Helvetica,sans-Serif" font-size="10.00">nix::LocalBinaryCacheStore</text>
<text text-anchor="middle" x="646.5" y="-201.88" font-family="Helvetica,sans-Serif" font-size="10.00">Config</text>
</a>
</g>
</g>
<!-- Node4&#45;&gt;Node6 -->
<g id="edge5_Node000004_Node000006" class="edge">
<title>Node4&#45;&gt;Node6</title>
<g id="a_edge5_Node000004_Node000006"><a xlink:title=" ">
<path fill="none" stroke="#63b8ff" d="M544.79,-211.38C553.74,-211.38 562.77,-211.38 571.54,-211.38"/>
<polygon fill="#63b8ff" stroke="#63b8ff" points="545.04,-207.88 535.04,-211.38 545.04,-214.88 545.04,-207.88"/>
</a>
</g>
</g>
<!-- Node8 -->
<g id="Node000008" class="node">
<title>Node8</title>
<g id="a_Node000008"><a xlink:href="structnix_1_1LegacySSHStoreConfig.html" target="_top" xlink:title=" ">
<polygon fill="white" stroke="#bfbfbf" points="720.12,-176.75 572.88,-176.75 572.88,-156 720.12,-156 720.12,-176.75"/>
<text text-anchor="middle" x="646.5" y="-163.25" font-family="Helvetica,sans-Serif" font-size="10.00">nix::LegacySSHStoreConfig</text>
</a>
</g>
</g>
<!-- Node7&#45;&gt;Node8 -->
<g id="edge7_Node000007_Node000008" class="edge">
<title>Node7&#45;&gt;Node8</title>
<g id="a_edge7_Node000007_Node000008"><a xlink:title=" ">
<path fill="none" stroke="#63b8ff" d="M545.91,-166.38C554.87,-166.38 563.9,-166.38 572.67,-166.38"/>
<polygon fill="#63b8ff" stroke="#63b8ff" points="546.13,-162.88 536.13,-166.38 546.13,-169.88 546.13,-162.88"/>
</a>
</g>
</g>
<!-- Node10 -->
<g id="Node000010" class="node">
<title>Node10</title>
<g id="a_Node000010"><a xlink:href="structnix_1_1SSHStoreConfig.html" target="_top" xlink:title=" ">
<polygon fill="white" stroke="#bfbfbf" points="702.88,-137.75 590.12,-137.75 590.12,-117 702.88,-117 702.88,-137.75"/>
<text text-anchor="middle" x="646.5" y="-124.25" font-family="Helvetica,sans-Serif" font-size="10.00">nix::SSHStoreConfig</text>
</a>
</g>
</g>
<!-- Node7&#45;&gt;Node10 -->
<g id="edge9_Node000007_Node000010" class="edge">
<title>Node7&#45;&gt;Node10</title>
<g id="a_edge9_Node000007_Node000010"><a xlink:title=" ">
<path fill="none" stroke="#63b8ff" d="M520.29,-153.25C543.89,-148.37 570.37,-142.9 592.88,-138.25"/>
<polygon fill="#63b8ff" stroke="#63b8ff" points="519.89,-149.75 510.81,-155.21 521.31,-156.61 519.89,-149.75"/>
</a>
</g>
</g>
<!-- Node9 -->
<g id="Node000009" class="node">
<title>Node9</title>
<g id="a_Node000009"><a xlink:href="structnix_1_1LegacySSHStoreConfigWithLog.html" target="_top" xlink:title=" ">
<polygon fill="white" stroke="#bfbfbf" points="906,-183.12 758.75,-183.12 758.75,-149.62 906,-149.62 906,-183.12"/>
<text text-anchor="start" x="766.75" y="-169.62" font-family="Helvetica,sans-Serif" font-size="10.00">nix::LegacySSHStoreConfig</text>
<text text-anchor="middle" x="832.38" y="-156.88" font-family="Helvetica,sans-Serif" font-size="10.00">WithLog</text>
</a>
</g>
</g>
<!-- Node8&#45;&gt;Node9 -->
<g id="edge8_Node000008_Node000009" class="edge">
<title>Node8&#45;&gt;Node9</title>
<g id="a_edge8_Node000008_Node000009"><a xlink:title=" ">
<path fill="none" stroke="#63b8ff" d="M731.7,-166.38C740.66,-166.38 749.72,-166.38 758.53,-166.38"/>
<polygon fill="#63b8ff" stroke="#63b8ff" points="731.95,-162.88 721.95,-166.38 731.95,-169.88 731.95,-162.88"/>
</a>
</g>
</g>
<!-- Node13 -->
<g id="Node000013" class="node">
<title>Node13</title>
<g id="a_Node000013"><a xlink:href="structnix_1_1LocalStoreConfig.html" target="_top" xlink:title=" ">
<polygon fill="white" stroke="#bfbfbf" points="705.88,-59.75 587.12,-59.75 587.12,-39 705.88,-39 705.88,-59.75"/>
<text text-anchor="middle" x="646.5" y="-46.25" font-family="Helvetica,sans-Serif" font-size="10.00">nix::LocalStoreConfig</text>
</a>
</g>
</g>
<!-- Node12&#45;&gt;Node13 -->
<g id="edge12_Node000012_Node000013" class="edge">
<title>Node12&#45;&gt;Node13</title>
<g id="a_edge12_Node000012_Node000013"><a xlink:title=" ">
<path fill="none" stroke="#63b8ff" d="M532.57,-49.38C550.61,-49.38 569.6,-49.38 586.75,-49.38"/>
<polygon fill="#63b8ff" stroke="#63b8ff" points="532.69,-45.88 522.69,-49.38 532.69,-52.88 532.69,-45.88"/>
</a>
</g>
</g>
<!-- Node14 -->
<g id="Node000014" class="node">
<title>Node14</title>
<g id="a_Node000014"><a xlink:href="structnix_1_1RestrictedStoreConfig.html" target="_top" xlink:title=" ">
<polygon fill="white" stroke="#bfbfbf" points="717.88,-20.75 575.12,-20.75 575.12,0 717.88,0 717.88,-20.75"/>
<text text-anchor="middle" x="646.5" y="-7.25" font-family="Helvetica,sans-Serif" font-size="10.00">nix::RestrictedStoreConfig</text>
</a>
</g>
</g>
<!-- Node12&#45;&gt;Node14 -->
<g id="edge13_Node000012_Node000014" class="edge">
<title>Node12&#45;&gt;Node14</title>
<g id="a_edge13_Node000012_Node000014"><a xlink:title=" ">
<path fill="none" stroke="#63b8ff" d="M520.29,-36.25C543.89,-31.37 570.37,-25.9 592.88,-21.25"/>
<polygon fill="#63b8ff" stroke="#63b8ff" points="519.89,-32.75 510.81,-38.21 521.31,-39.61 519.89,-32.75"/>
</a>
</g>
</g>
<!-- Node15 -->
<g id="Node000015" class="node">
<title>Node15</title>
<g id="a_Node000015"><a xlink:href="structnix_1_1UDSRemoteStoreConfig.html" target="_top" xlink:title=" ">
<polygon fill="white" stroke="#bfbfbf" points="722.75,-98.75 570.25,-98.75 570.25,-78 722.75,-78 722.75,-98.75"/>
<text text-anchor="middle" x="646.5" y="-85.25" font-family="Helvetica,sans-Serif" font-size="10.00">nix::UDSRemoteStoreConfig</text>
</a>
</g>
</g>
<!-- Node12&#45;&gt;Node15 -->
<g id="edge14_Node000012_Node000015" class="edge">
<title>Node12&#45;&gt;Node15</title>
<g id="a_edge14_Node000012_Node000015"><a xlink:title=" ">
<path fill="none" stroke="#63b8ff" d="M520.29,-62.5C543.89,-67.38 570.37,-72.85 592.88,-77.5"/>
<polygon fill="#63b8ff" stroke="#63b8ff" points="521.31,-59.14 510.81,-60.54 519.89,-66 521.31,-59.14"/>
</a>
</g>
</g>
<!-- Node16&#45;&gt;Node10 -->
<g id="edge16_Node000016_Node000010" class="edge">
<title>Node16&#45;&gt;Node10</title>
<g id="a_edge16_Node000016_Node000010"><a xlink:title=" ">
<path fill="none" stroke="#63b8ff" d="M520.29,-101.5C543.89,-106.38 570.37,-111.85 592.88,-116.5"/>
<polygon fill="#63b8ff" stroke="#63b8ff" points="521.31,-98.14 510.81,-99.54 519.89,-105 521.31,-98.14"/>
</a>
</g>
</g>
<!-- Node16&#45;&gt;Node15 -->
<g id="edge17_Node000016_Node000015" class="edge">
<title>Node16&#45;&gt;Node15</title>
<g id="a_edge17_Node000016_Node000015"><a xlink:title=" ">
<path fill="none" stroke="#63b8ff" d="M533.37,-88.38C545.42,-88.38 557.87,-88.38 569.9,-88.38"/>
<polygon fill="#63b8ff" stroke="#63b8ff" points="533.48,-84.88 523.48,-88.38 533.48,-91.88 533.48,-84.88"/>
</a>
</g>
</g>
</g>
</svg>
