<?xml version="1.0" encoding="UTF-8" standalone="no"?>
<!DOCTYPE svg PUBLIC "-//W3C//DTD SVG 1.1//EN"
 "http://www.w3.org/Graphics/SVG/1.1/DTD/svg11.dtd">
<!-- Generated by graphviz version 12.2.1 (0)
 -->
<!-- Title: nix::CmdProfileRollback Pages: 1 -->
<svg width="230pt" height="313pt"
 viewBox="0.00 0.00 229.88 312.50" xmlns="http://www.w3.org/2000/svg" xmlns:xlink="http://www.w3.org/1999/xlink">
<g id="graph0" class="graph" transform="scale(1 1) rotate(0) translate(4 308.5)">
<title>nix::CmdProfileRollback</title>
<!-- Node1 -->
<g id="Node000001" class="node">
<title>Node1</title>
<g id="a_Node000001"><a xlink:title=" ">
<polygon fill="#999999" stroke="#666666" points="153.5,-20.75 21.25,-20.75 21.25,0 153.5,0 153.5,-20.75"/>
<text text-anchor="middle" x="87.38" y="-7.25" font-family="Helvetica,sans-Serif" font-size="10.00">nix::CmdProfileRollback</text>
</a>
</g>
</g>
<!-- Node2 -->
<g id="Node000002" class="node">
<title>Node2</title>
<g id="a_Node000002"><a xlink:href="structnix_1_1StoreCommand.html" target="_top" xlink:title=" ">
<polygon fill="white" stroke="#666666" points="112.75,-191 0,-191 0,-170.25 112.75,-170.25 112.75,-191"/>
<text text-anchor="middle" x="56.38" y="-177.5" font-family="Helvetica,sans-Serif" font-size="10.00">nix::StoreCommand</text>
</a>
</g>
</g>
<!-- Node2&#45;&gt;Node1 -->
<g id="edge1_Node000001_Node000002" class="edge">
<title>Node2&#45;&gt;Node1</title>
<g id="a_edge1_Node000001_Node000002"><a xlink:title=" ">
<path fill="none" stroke="#63b8ff" d="M41.49,-160.8C23.74,-135.9 -1.32,-91.14 17.38,-56.75 26.5,-39.95 44.83,-28.41 60.44,-21.18"/>
<polygon fill="#63b8ff" stroke="#63b8ff" points="38.58,-162.75 47.37,-168.67 44.18,-158.56 38.58,-162.75"/>
</a>
</g>
</g>
<!-- Node6 -->
<g id="Node000006" class="node">
<title>Node6</title>
<g id="a_Node000006"><a xlink:href="structnix_1_1MixProfile.html" target="_top" xlink:title=" ">
<polygon fill="white" stroke="#bfbfbf" points="121.25,-134.25 35.5,-134.25 35.5,-113.5 121.25,-113.5 121.25,-134.25"/>
<text text-anchor="middle" x="78.38" y="-120.75" font-family="Helvetica,sans-Serif" font-size="10.00">nix::MixProfile</text>
</a>
</g>
</g>
<!-- Node2&#45;&gt;Node6 -->
<g id="edge6_Node000006_Node000002" class="edge">
<title>Node2&#45;&gt;Node6</title>
<g id="a_edge6_Node000006_Node000002"><a xlink:title=" ">
<path fill="none" stroke="#63b8ff" d="M64.56,-159.24C67.96,-150.8 71.73,-141.41 74.48,-134.58"/>
<polygon fill="#63b8ff" stroke="#63b8ff" points="61.35,-157.85 60.87,-168.43 67.85,-160.46 61.35,-157.85"/>
</a>
</g>
</g>
<!-- Node3 -->
<g id="Node000003" class="node">
<title>Node3</title>
<g id="a_Node000003"><a xlink:href="structnix_1_1Command.html" target="_top" xlink:title=" ">
<polygon fill="white" stroke="#666666" points="124,-247.75 36.75,-247.75 36.75,-227 124,-227 124,-247.75"/>
<text text-anchor="middle" x="80.38" y="-234.25" font-family="Helvetica,sans-Serif" font-size="10.00">nix::Command</text>
</a>
</g>
</g>
<!-- Node3&#45;&gt;Node2 -->
<g id="edge2_Node000002_Node000003" class="edge">
<title>Node3&#45;&gt;Node2</title>
<g id="a_edge2_Node000002_Node000003"><a xlink:title=" ">
<path fill="none" stroke="#63b8ff" d="M71.57,-216.28C67.83,-207.77 63.66,-198.24 60.63,-191.33"/>
<polygon fill="#63b8ff" stroke="#63b8ff" points="68.26,-217.45 75.48,-225.2 74.67,-214.64 68.26,-217.45"/>
</a>
</g>
</g>
<!-- Node4 -->
<g id="Node000004" class="node">
<title>Node4</title>
<g id="a_Node000004"><a xlink:href="classnix_1_1Args.html" target="_top" xlink:title=" ">
<polygon fill="white" stroke="#bfbfbf" points="145.75,-304.5 87,-304.5 87,-283.75 145.75,-283.75 145.75,-304.5"/>
<text text-anchor="middle" x="116.38" y="-291" font-family="Helvetica,sans-Serif" font-size="10.00">nix::Args</text>
</a>
</g>
</g>
<!-- Node4&#45;&gt;Node3 -->
<g id="edge3_Node000003_Node000004" class="edge">
<title>Node4&#45;&gt;Node3</title>
<g id="a_edge3_Node000003_Node000004"><a xlink:title=" ">
<path fill="none" stroke="#63b8ff" d="M103.73,-273.89C97.99,-265.16 91.45,-255.22 86.76,-248.08"/>
<polygon fill="#63b8ff" stroke="#63b8ff" points="100.69,-275.64 109.11,-282.07 106.54,-271.79 100.69,-275.64"/>
</a>
</g>
</g>
<!-- Node7 -->
<g id="Node000007" class="node">
<title>Node7</title>
<g id="a_Node000007"><a xlink:href="structnix_1_1MixDryRun.html" target="_top" xlink:title=" ">
<polygon fill="white" stroke="#bfbfbf" points="221.88,-191 130.88,-191 130.88,-170.25 221.88,-170.25 221.88,-191"/>
<text text-anchor="middle" x="176.38" y="-177.5" font-family="Helvetica,sans-Serif" font-size="10.00">nix::MixDryRun</text>
</a>
</g>
</g>
<!-- Node4&#45;&gt;Node7 -->
<g id="edge8_Node000007_Node000004" class="edge">
<title>Node4&#45;&gt;Node7</title>
<g id="a_edge8_Node000007_Node000004"><a xlink:title=" ">
<path fill="none" stroke="#63b8ff" d="M126.91,-273.54C139.84,-249.52 161.24,-209.75 171.1,-191.43"/>
<polygon fill="#63b8ff" stroke="#63b8ff" points="123.86,-271.82 122.21,-282.29 130.03,-275.14 123.86,-271.82"/>
</a>
</g>
</g>
<!-- Node5 -->
<g id="Node000005" class="node">
<title>Node5</title>
<g id="a_Node000005"><a xlink:href="structnix_1_1MixDefaultProfile.html" target="_top" xlink:title=" ">
<polygon fill="white" stroke="#bfbfbf" points="148.25,-77.5 26.5,-77.5 26.5,-56.75 148.25,-56.75 148.25,-77.5"/>
<text text-anchor="middle" x="87.38" y="-64" font-family="Helvetica,sans-Serif" font-size="10.00">nix::MixDefaultProfile</text>
</a>
</g>
</g>
<!-- Node5&#45;&gt;Node1 -->
<g id="edge4_Node000001_Node000005" class="edge">
<title>Node5&#45;&gt;Node1</title>
<g id="a_edge4_Node000001_Node000005"><a xlink:title=" ">
<path fill="none" stroke="#63b8ff" d="M87.38,-44.88C87.38,-36.66 87.38,-27.68 87.38,-21.08"/>
<polygon fill="#63b8ff" stroke="#63b8ff" points="83.88,-44.82 87.38,-54.82 90.88,-44.82 83.88,-44.82"/>
</a>
</g>
</g>
<!-- Node6&#45;&gt;Node5 -->
<g id="edge5_Node000005_Node000006" class="edge">
<title>Node6&#45;&gt;Node5</title>
<g id="a_edge5_Node000005_Node000006"><a xlink:title=" ">
<path fill="none" stroke="#63b8ff" d="M81.82,-101.92C83.18,-93.63 84.68,-84.5 85.78,-77.83"/>
<polygon fill="#63b8ff" stroke="#63b8ff" points="78.4,-101.16 80.23,-111.59 85.31,-102.29 78.4,-101.16"/>
</a>
</g>
</g>
<!-- Node7&#45;&gt;Node1 -->
<g id="edge7_Node000001_Node000007" class="edge">
<title>Node7&#45;&gt;Node1</title>
<g id="a_edge7_Node000001_Node000007"><a xlink:title=" ">
<path fill="none" stroke="#63b8ff" d="M178.11,-158.27C179.18,-132.2 177.45,-87.75 157.38,-56.75 146.75,-40.34 127.86,-28.62 112.39,-21.2"/>
<polygon fill="#63b8ff" stroke="#63b8ff" points="174.62,-158.06 177.51,-168.25 181.61,-158.48 174.62,-158.06"/>
</a>
</g>
</g>
</g>
</svg>
