<?xml version="1.0" encoding="UTF-8" standalone="no"?>
<!DOCTYPE svg PUBLIC "-//W3C//DTD SVG 1.1//EN"
 "http://www.w3.org/Graphics/SVG/1.1/DTD/svg11.dtd">
<!-- Generated by graphviz version 12.2.1 (0)
 -->
<!-- Title: nix::MixCat Pages: 1 -->
<svg width="255pt" height="156pt"
 viewBox="0.00 0.00 255.38 156.00" xmlns="http://www.w3.org/2000/svg" xmlns:xlink="http://www.w3.org/1999/xlink">
<g id="graph0" class="graph" transform="scale(1 1) rotate(0) translate(4 152)">
<title>nix::MixCat</title>
<!-- Node1 -->
<g id="Node000001" class="node">
<title>Node1</title>
<g id="a_Node000001"><a xlink:title=" ">
<polygon fill="#999999" stroke="#666666" points="247.38,-78.5 175.88,-78.5 175.88,-57.75 247.38,-57.75 247.38,-78.5"/>
<text text-anchor="middle" x="211.62" y="-65" font-family="Helvetica,sans-Serif" font-size="10.00">nix::MixCat</text>
</a>
</g>
</g>
<!-- Node2 -->
<g id="Node000002" class="node">
<title>Node2</title>
<g id="a_Node000002"><a xlink:href="classnix_1_1Args.html" target="_top" xlink:title=" ">
<polygon fill="white" stroke="#bfbfbf" points="153,-148 94.25,-148 94.25,-127.25 153,-127.25 153,-148"/>
<text text-anchor="middle" x="123.62" y="-134.5" font-family="Helvetica,sans-Serif" font-size="10.00">nix::Args</text>
</a>
</g>
</g>
<!-- Node2&#45;&gt;Node1 -->
<g id="edge1_Node000001_Node000002" class="edge">
<title>Node2&#45;&gt;Node1</title>
<g id="a_edge1_Node000001_Node000002"><a xlink:title=" ">
<path fill="none" stroke="#63b8ff" d="M145.32,-119.98C162.09,-107.12 184.74,-89.75 198.75,-79"/>
<polygon fill="#63b8ff" stroke="#63b8ff" points="143.24,-117.17 137.43,-126.03 147.5,-122.72 143.24,-117.17"/>
</a>
</g>
</g>
<!-- Node4 -->
<g id="Node000004" class="node">
<title>Node4</title>
<g id="a_Node000004"><a xlink:href="structnix_1_1Command.html" target="_top" xlink:title=" ">
<polygon fill="white" stroke="#666666" points="87.25,-78.5 0,-78.5 0,-57.75 87.25,-57.75 87.25,-78.5"/>
<text text-anchor="middle" x="43.62" y="-65" font-family="Helvetica,sans-Serif" font-size="10.00">nix::Command</text>
</a>
</g>
</g>
<!-- Node2&#45;&gt;Node4 -->
<g id="edge4_Node000004_Node000002" class="edge">
<title>Node2&#45;&gt;Node4</title>
<g id="a_edge4_Node000004_Node000002"><a xlink:title=" ">
<path fill="none" stroke="#63b8ff" d="M103.47,-119.62C88.27,-106.8 67.95,-89.65 55.33,-79"/>
<polygon fill="#63b8ff" stroke="#63b8ff" points="101.11,-122.2 111.01,-125.98 105.62,-116.85 101.11,-122.2"/>
</a>
</g>
</g>
<!-- Node3 -->
<g id="Node000003" class="node">
<title>Node3</title>
<g id="a_Node000003"><a xlink:href="classnix_1_1MultiCommand.html" target="_top" xlink:title=" ">
<polygon fill="white" stroke="#666666" points="139.62,-20.75 27.62,-20.75 27.62,0 139.62,0 139.62,-20.75"/>
<text text-anchor="middle" x="83.62" y="-7.25" font-family="Helvetica,sans-Serif" font-size="10.00">nix::MultiCommand</text>
</a>
</g>
</g>
<!-- Node3&#45;&gt;Node2 -->
<g id="edge2_Node000002_Node000003" class="edge">
<title>Node3&#45;&gt;Node2</title>
<g id="a_edge2_Node000002_Node000003"><a xlink:title=" ">
<path fill="none" stroke="#9a32cd" stroke-dasharray="5,2" d="M90.15,-31.81C98.87,-59.11 113.97,-106.4 120.49,-126.8"/>
<polygon fill="#9a32cd" stroke="#9a32cd" points="93.59,-31.06 87.21,-22.6 86.92,-33.19 93.59,-31.06"/>
</a>
</g>
<text text-anchor="middle" x="122.21" y="-65" font-family="Helvetica,sans-Serif" font-size="10.00" fill="grey"> parent</text>
</g>
<!-- Node4&#45;&gt;Node3 -->
<g id="edge3_Node000003_Node000004" class="edge">
<title>Node4&#45;&gt;Node3</title>
<g id="a_edge3_Node000003_Node000004"><a xlink:title=" ">
<path fill="none" stroke="#63b8ff" d="M57.17,-48.25C63.74,-39.08 71.37,-28.46 76.74,-20.97"/>
<polygon fill="#63b8ff" stroke="#63b8ff" points="54.46,-46.02 51.47,-56.18 60.15,-50.1 54.46,-46.02"/>
</a>
</g>
</g>
<!-- Node5 -->
<g id="Node000005" class="node">
<title>Node5</title>
<g id="a_Node000005"><a xlink:title=" ">
<polygon fill="white" stroke="#bfbfbf" points="233.5,-148 189.75,-148 189.75,-127.25 233.5,-127.25 233.5,-148"/>
<text text-anchor="middle" x="211.62" y="-134.5" font-family="Helvetica,sans-Serif" font-size="10.00">string</text>
</a>
</g>
</g>
<!-- Node5&#45;&gt;Node1 -->
<g id="edge5_Node000001_Node000005" class="edge">
<title>Node5&#45;&gt;Node1</title>
<g id="a_edge5_Node000001_Node000005"><a xlink:title=" ">
<path fill="none" stroke="#9a32cd" stroke-dasharray="5,2" d="M211.62,-115.82C211.62,-103.47 211.62,-88.4 211.62,-78.78"/>
<polygon fill="#9a32cd" stroke="#9a32cd" points="208.13,-115.44 211.63,-125.44 215.13,-115.44 208.13,-115.44"/>
</a>
</g>
<text text-anchor="middle" x="224" y="-99.75" font-family="Helvetica,sans-Serif" font-size="10.00" fill="grey"> path</text>
</g>
</g>
</svg>
