<?xml version="1.0" encoding="UTF-8" standalone="no"?>
<!DOCTYPE svg PUBLIC "-//W3C//DTD SVG 1.1//EN"
 "http://www.w3.org/Graphics/SVG/1.1/DTD/svg11.dtd">
<!-- Generated by graphviz version 12.2.1 (0)
 -->
<!-- Title: nix::CmdProfileInstall Pages: 1 -->
<svg width="543pt" height="534pt"
 viewBox="0.00 0.00 543.00 534.00" xmlns="http://www.w3.org/2000/svg" xmlns:xlink="http://www.w3.org/1999/xlink">
<g id="graph0" class="graph" transform="scale(1 1) rotate(0) translate(4 530)">
<title>nix::CmdProfileInstall</title>
<!-- Node1 -->
<g id="Node000001" class="node">
<title>Node1</title>
<g id="a_Node000001"><a xlink:title=" ">
<polygon fill="#999999" stroke="#666666" points="279.12,-20.75 158.88,-20.75 158.88,0 279.12,0 279.12,-20.75"/>
<text text-anchor="middle" x="219" y="-7.25" font-family="Helvetica,sans-Serif" font-size="10.00">nix::CmdProfileInstall</text>
</a>
</g>
</g>
<!-- Node2 -->
<g id="Node000002" class="node">
<title>Node2</title>
<g id="a_Node000002"><a xlink:href="structnix_1_1InstallablesCommand.html" target="_top" xlink:title=" ">
<polygon fill="white" stroke="#666666" points="208.75,-78.5 65.25,-78.5 65.25,-57.75 208.75,-57.75 208.75,-78.5"/>
<text text-anchor="middle" x="137" y="-65" font-family="Helvetica,sans-Serif" font-size="10.00">nix::InstallablesCommand</text>
</a>
</g>
</g>
<!-- Node2&#45;&gt;Node1 -->
<g id="edge1_Node000001_Node000002" class="edge">
<title>Node2&#45;&gt;Node1</title>
<g id="a_edge1_Node000001_Node000002"><a xlink:title=" ">
<path fill="none" stroke="#63b8ff" d="M160.47,-51.17C174.71,-41.49 192.42,-29.45 204.61,-21.16"/>
<polygon fill="#63b8ff" stroke="#63b8ff" points="158.84,-48.05 152.53,-56.56 162.77,-53.84 158.84,-48.05"/>
</a>
</g>
</g>
<!-- Node3 -->
<g id="Node000003" class="node">
<title>Node3</title>
<g id="a_Node000003"><a xlink:href="structnix_1_1RawInstallablesCommand.html" target="_top" xlink:title=" ">
<polygon fill="white" stroke="#666666" points="212.25,-136.25 47.75,-136.25 47.75,-115.5 212.25,-115.5 212.25,-136.25"/>
<text text-anchor="middle" x="130" y="-122.75" font-family="Helvetica,sans-Serif" font-size="10.00">nix::RawInstallablesCommand</text>
</a>
</g>
</g>
<!-- Node3&#45;&gt;Node2 -->
<g id="edge2_Node000002_Node000003" class="edge">
<title>Node3&#45;&gt;Node2</title>
<g id="a_edge2_Node000002_Node000003"><a xlink:title=" ">
<path fill="none" stroke="#63b8ff" d="M132.63,-103.93C133.72,-95.27 134.93,-85.65 135.79,-78.72"/>
<polygon fill="#63b8ff" stroke="#63b8ff" points="129.18,-103.3 131.41,-113.66 136.13,-104.18 129.18,-103.3"/>
</a>
</g>
</g>
<!-- Node4 -->
<g id="Node000004" class="node">
<title>Node4</title>
<g id="a_Node000004"><a xlink:href="classnix_1_1Args.html" target="_top" xlink:title=" ">
<polygon fill="white" stroke="#bfbfbf" points="143.38,-526 84.62,-526 84.62,-505.25 143.38,-505.25 143.38,-526"/>
<text text-anchor="middle" x="114" y="-512.5" font-family="Helvetica,sans-Serif" font-size="10.00">nix::Args</text>
</a>
</g>
</g>
<!-- Node4&#45;&gt;Node3 -->
<g id="edge3_Node000003_Node000004" class="edge">
<title>Node4&#45;&gt;Node3</title>
<g id="a_edge3_Node000003_Node000004"><a xlink:title=" ">
<path fill="none" stroke="#63b8ff" d="M73.18,-511.13C40.46,-505.83 0,-492.48 0,-458.88 0,-458.88 0,-458.88 0,-182.62 0,-156.96 21.66,-142.96 47.3,-135.38"/>
<polygon fill="#63b8ff" stroke="#63b8ff" points="72.46,-514.57 82.85,-512.48 73.43,-507.63 72.46,-514.57"/>
</a>
</g>
</g>
<!-- Node6 -->
<g id="Node000006" class="node">
<title>Node6</title>
<g id="a_Node000006"><a xlink:href="structnix_1_1Command.html" target="_top" xlink:title=" ">
<polygon fill="white" stroke="#666666" points="442.62,-468.25 355.38,-468.25 355.38,-447.5 442.62,-447.5 442.62,-468.25"/>
<text text-anchor="middle" x="399" y="-454.75" font-family="Helvetica,sans-Serif" font-size="10.00">nix::Command</text>
</a>
</g>
</g>
<!-- Node4&#45;&gt;Node6 -->
<g id="edge6_Node000006_Node000004" class="edge">
<title>Node4&#45;&gt;Node6</title>
<g id="a_edge6_Node000006_Node000004"><a xlink:title=" ">
<path fill="none" stroke="#63b8ff" d="M154.71,-506.66C207.8,-496.28 300.32,-478.18 354.99,-467.48"/>
<polygon fill="#63b8ff" stroke="#63b8ff" points="154.32,-503.17 145.18,-508.53 155.66,-510.04 154.32,-503.17"/>
</a>
</g>
</g>
<!-- Node7 -->
<g id="Node000007" class="node">
<title>Node7</title>
<g id="a_Node000007"><a xlink:href="structnix_1_1SourceExprCommand.html" target="_top" xlink:title=" ">
<polygon fill="white" stroke="#bfbfbf" points="201,-194 59,-194 59,-173.25 201,-173.25 201,-194"/>
<text text-anchor="middle" x="130" y="-180.5" font-family="Helvetica,sans-Serif" font-size="10.00">nix::SourceExprCommand</text>
</a>
</g>
</g>
<!-- Node4&#45;&gt;Node7 -->
<g id="edge8_Node000007_Node000004" class="edge">
<title>Node4&#45;&gt;Node7</title>
<g id="a_edge8_Node000007_Node000004"><a xlink:title=" ">
<path fill="none" stroke="#63b8ff" d="M73.98,-501.51C55.68,-492.76 38,-479.08 38,-458.88 38,-458.88 38,-458.88 38,-260.12 38,-226.96 74.16,-205.71 101.14,-194.46"/>
<polygon fill="#63b8ff" stroke="#63b8ff" points="72.44,-504.66 83.01,-505.4 75.2,-498.23 72.44,-504.66"/>
</a>
</g>
</g>
<!-- Node8 -->
<g id="Node000008" class="node">
<title>Node8</title>
<g id="a_Node000008"><a xlink:href="structnix_1_1MixFlakeOptions.html" target="_top" xlink:title=" ">
<polygon fill="white" stroke="#666666" points="213.38,-271.5 94.62,-271.5 94.62,-250.75 213.38,-250.75 213.38,-271.5"/>
<text text-anchor="middle" x="154" y="-258" font-family="Helvetica,sans-Serif" font-size="10.00">nix::MixFlakeOptions</text>
</a>
</g>
</g>
<!-- Node4&#45;&gt;Node8 -->
<g id="edge10_Node000008_Node000004" class="edge">
<title>Node4&#45;&gt;Node8</title>
<g id="a_edge10_Node000008_Node000004"><a xlink:title=" ">
<path fill="none" stroke="#63b8ff" d="M94.05,-496.97C84.88,-486.88 76,-473.37 76,-458.88 76,-458.88 76,-458.88 76,-329.62 76,-301.51 105.34,-282.49 128.03,-271.99"/>
<polygon fill="#63b8ff" stroke="#63b8ff" points="91.36,-499.22 100.91,-503.82 96.31,-494.28 91.36,-499.22"/>
</a>
</g>
</g>
<!-- Node11 -->
<g id="Node000011" class="node">
<title>Node11</title>
<g id="a_Node000011"><a xlink:href="structnix_1_1MixEvalArgs.html" target="_top" xlink:title=" ">
<polygon fill="white" stroke="#bfbfbf" points="254.88,-398.75 157.12,-398.75 157.12,-378 254.88,-378 254.88,-398.75"/>
<text text-anchor="middle" x="206" y="-385.25" font-family="Helvetica,sans-Serif" font-size="10.00">nix::MixEvalArgs</text>
</a>
</g>
</g>
<!-- Node4&#45;&gt;Node11 -->
<g id="edge15_Node000011_Node000004" class="edge">
<title>Node4&#45;&gt;Node11</title>
<g id="a_edge15_Node000011_Node000004"><a xlink:title=" ">
<path fill="none" stroke="#63b8ff" d="M116.5,-493.8C118.96,-479.78 123.75,-461.4 133,-447.5 147.09,-426.32 171.35,-409.26 188.01,-399.23"/>
<polygon fill="#63b8ff" stroke="#63b8ff" points="113.04,-493.29 115.05,-503.69 119.96,-494.3 113.04,-493.29"/>
</a>
</g>
</g>
<!-- Node12 -->
<g id="Node000012" class="node">
<title>Node12</title>
<g id="a_Node000012"><a xlink:href="structnix_1_1MixRepair.html" target="_top" xlink:title=" ">
<polygon fill="white" stroke="#bfbfbf" points="228.25,-468.25 141.75,-468.25 141.75,-447.5 228.25,-447.5 228.25,-468.25"/>
<text text-anchor="middle" x="185" y="-454.75" font-family="Helvetica,sans-Serif" font-size="10.00">nix::MixRepair</text>
</a>
</g>
</g>
<!-- Node4&#45;&gt;Node12 -->
<g id="edge17_Node000012_Node000004" class="edge">
<title>Node4&#45;&gt;Node12</title>
<g id="a_edge17_Node000012_Node000004"><a xlink:title=" ">
<path fill="none" stroke="#63b8ff" d="M135.1,-498.06C147.38,-488.42 162.43,-476.6 172.77,-468.47"/>
<polygon fill="#63b8ff" stroke="#63b8ff" points="133.26,-495.05 127.56,-503.98 137.58,-500.56 133.26,-495.05"/>
</a>
</g>
</g>
<!-- Node5 -->
<g id="Node000005" class="node">
<title>Node5</title>
<g id="a_Node000005"><a xlink:href="classnix_1_1MultiCommand.html" target="_top" xlink:title=" ">
<polygon fill="white" stroke="#666666" points="535,-398.75 423,-398.75 423,-378 535,-378 535,-398.75"/>
<text text-anchor="middle" x="479" y="-385.25" font-family="Helvetica,sans-Serif" font-size="10.00">nix::MultiCommand</text>
</a>
</g>
</g>
<!-- Node5&#45;&gt;Node4 -->
<g id="edge4_Node000004_Node000005" class="edge">
<title>Node5&#45;&gt;Node4</title>
<g id="a_edge4_Node000004_Node000005"><a xlink:title=" ">
<path fill="none" stroke="#9a32cd" stroke-dasharray="5,2" d="M477.7,-410.63C475.39,-428.81 469.08,-454.19 452,-468.25 405.24,-506.74 217.5,-513.33 143.86,-514.42"/>
<polygon fill="#9a32cd" stroke="#9a32cd" points="481.18,-410.97 478.62,-400.69 474.21,-410.32 481.18,-410.97"/>
</a>
</g>
<text text-anchor="middle" x="484.74" y="-454.75" font-family="Helvetica,sans-Serif" font-size="10.00" fill="grey"> parent</text>
</g>
<!-- Node6&#45;&gt;Node5 -->
<g id="edge5_Node000005_Node000006" class="edge">
<title>Node6&#45;&gt;Node5</title>
<g id="a_edge5_Node000005_Node000006"><a xlink:title=" ">
<path fill="none" stroke="#63b8ff" d="M419.15,-439.87C434.35,-427.05 454.68,-409.9 467.3,-399.25"/>
<polygon fill="#63b8ff" stroke="#63b8ff" points="417,-437.1 411.62,-446.23 421.52,-442.45 417,-437.1"/>
</a>
</g>
</g>
<!-- Node10 -->
<g id="Node000010" class="node">
<title>Node10</title>
<g id="a_Node000010"><a xlink:href="structnix_1_1StoreCommand.html" target="_top" xlink:title=" ">
<polygon fill="white" stroke="#666666" points="405.38,-398.75 292.62,-398.75 292.62,-378 405.38,-378 405.38,-398.75"/>
<text text-anchor="middle" x="349" y="-385.25" font-family="Helvetica,sans-Serif" font-size="10.00">nix::StoreCommand</text>
</a>
</g>
</g>
<!-- Node6&#45;&gt;Node10 -->
<g id="edge13_Node000010_Node000006" class="edge">
<title>Node6&#45;&gt;Node10</title>
<g id="a_edge13_Node000010_Node000006"><a xlink:title=" ">
<path fill="none" stroke="#63b8ff" d="M385,-437.97C375.61,-425.3 363.65,-409.15 356.15,-399.03"/>
<polygon fill="#63b8ff" stroke="#63b8ff" points="382.17,-440.04 390.94,-445.99 387.8,-435.87 382.17,-440.04"/>
</a>
</g>
</g>
<!-- Node7&#45;&gt;Node3 -->
<g id="edge7_Node000003_Node000007" class="edge">
<title>Node7&#45;&gt;Node3</title>
<g id="a_edge7_Node000003_Node000007"><a xlink:title=" ">
<path fill="none" stroke="#63b8ff" d="M130,-161.68C130,-153.02 130,-143.4 130,-136.47"/>
<polygon fill="#63b8ff" stroke="#63b8ff" points="126.5,-161.4 130,-171.4 133.5,-161.4 126.5,-161.4"/>
</a>
</g>
</g>
<!-- Node8&#45;&gt;Node7 -->
<g id="edge9_Node000007_Node000008" class="edge">
<title>Node8&#45;&gt;Node7</title>
<g id="a_edge9_Node000007_Node000008"><a xlink:title=" ">
<path fill="none" stroke="#63b8ff" d="M147.48,-239.62C142.79,-224.86 136.68,-205.63 133.06,-194.26"/>
<polygon fill="#63b8ff" stroke="#63b8ff" points="144.04,-240.34 150.4,-248.81 150.71,-238.22 144.04,-240.34"/>
</a>
</g>
</g>
<!-- Node9 -->
<g id="Node000009" class="node">
<title>Node9</title>
<g id="a_Node000009"><a xlink:href="structnix_1_1EvalCommand.html" target="_top" xlink:title=" ">
<polygon fill="white" stroke="#666666" points="346.12,-341 237.88,-341 237.88,-320.25 346.12,-320.25 346.12,-341"/>
<text text-anchor="middle" x="292" y="-327.5" font-family="Helvetica,sans-Serif" font-size="10.00">nix::EvalCommand</text>
</a>
</g>
</g>
<!-- Node9&#45;&gt;Node8 -->
<g id="edge11_Node000008_Node000009" class="edge">
<title>Node9&#45;&gt;Node8</title>
<g id="a_edge11_Node000008_Node000009"><a xlink:title=" ">
<path fill="none" stroke="#63b8ff" d="M262.41,-314.57C247.36,-306.97 228.75,-297.65 212,-289.5 199.79,-283.56 186.04,-277.06 175,-271.89"/>
<polygon fill="#63b8ff" stroke="#63b8ff" points="260.81,-317.69 271.32,-319.08 263.97,-311.44 260.81,-317.69"/>
</a>
</g>
</g>
<!-- Node10&#45;&gt;Node9 -->
<g id="edge12_Node000009_Node000010" class="edge">
<title>Node10&#45;&gt;Node9</title>
<g id="a_edge12_Node000009_Node000010"><a xlink:title=" ">
<path fill="none" stroke="#63b8ff" d="M330.89,-369.67C321.26,-360.24 309.79,-349.03 301.81,-341.22"/>
<polygon fill="#63b8ff" stroke="#63b8ff" points="328.39,-372.12 337.99,-376.61 333.29,-367.11 328.39,-372.12"/>
</a>
</g>
</g>
<!-- Node16 -->
<g id="Node000016" class="node">
<title>Node16</title>
<g id="a_Node000016"><a xlink:href="structnix_1_1MixProfile.html" target="_top" xlink:title=" ">
<polygon fill="white" stroke="#bfbfbf" points="449.88,-341 364.12,-341 364.12,-320.25 449.88,-320.25 449.88,-341"/>
<text text-anchor="middle" x="407" y="-327.5" font-family="Helvetica,sans-Serif" font-size="10.00">nix::MixProfile</text>
</a>
</g>
</g>
<!-- Node10&#45;&gt;Node16 -->
<g id="edge22_Node000016_Node000010" class="edge">
<title>Node10&#45;&gt;Node16</title>
<g id="a_edge22_Node000016_Node000010"><a xlink:title=" ">
<path fill="none" stroke="#63b8ff" d="M367.12,-369.95C376.99,-360.47 388.81,-349.11 397.01,-341.22"/>
<polygon fill="#63b8ff" stroke="#63b8ff" points="364.98,-367.16 360.19,-376.62 369.83,-372.21 364.98,-367.16"/>
</a>
</g>
</g>
<!-- Node11&#45;&gt;Node9 -->
<g id="edge14_Node000009_Node000011" class="edge">
<title>Node11&#45;&gt;Node9</title>
<g id="a_edge14_Node000009_Node000011"><a xlink:title=" ">
<path fill="none" stroke="#63b8ff" d="M230.62,-371.42C245.55,-361.74 264.12,-349.7 276.9,-341.41"/>
<polygon fill="#63b8ff" stroke="#63b8ff" points="228.74,-368.46 222.25,-376.84 232.55,-374.34 228.74,-368.46"/>
</a>
</g>
</g>
<!-- Node12&#45;&gt;Node11 -->
<g id="edge16_Node000011_Node000012" class="edge">
<title>Node12&#45;&gt;Node11</title>
<g id="a_edge16_Node000011_Node000012"><a xlink:title=" ">
<path fill="none" stroke="#63b8ff" d="M191.35,-436.45C195.22,-424.03 199.97,-408.75 203,-399.03"/>
<polygon fill="#63b8ff" stroke="#63b8ff" points="188.09,-435.17 188.46,-445.76 194.77,-437.25 188.09,-435.17"/>
</a>
</g>
</g>
<!-- Node13 -->
<g id="Node000013" class="node">
<title>Node13</title>
<g id="a_Node000013"><a xlink:href="structnix_1_1SearchPath.html" target="_top" xlink:title=" ">
<polygon fill="white" stroke="#666666" points="337.5,-468.25 246.5,-468.25 246.5,-447.5 337.5,-447.5 337.5,-468.25"/>
<text text-anchor="middle" x="292" y="-454.75" font-family="Helvetica,sans-Serif" font-size="10.00">nix::SearchPath</text>
</a>
</g>
</g>
<!-- Node13&#45;&gt;Node11 -->
<g id="edge18_Node000011_Node000013" class="edge">
<title>Node13&#45;&gt;Node11</title>
<g id="a_edge18_Node000011_Node000013"><a xlink:title=" ">
<path fill="none" stroke="#9a32cd" stroke-dasharray="5,2" d="M270.8,-440.23C254.41,-427.37 232.27,-410 218.58,-399.25"/>
<polygon fill="#9a32cd" stroke="#9a32cd" points="268.46,-442.85 278.49,-446.27 272.78,-437.34 268.46,-442.85"/>
</a>
</g>
<text text-anchor="middle" x="284.83" y="-420" font-family="Helvetica,sans-Serif" font-size="10.00" fill="grey"> searchPath</text>
</g>
<!-- Node14 -->
<g id="Node000014" class="node">
<title>Node14</title>
<g id="a_Node000014"><a xlink:href="structnix_1_1flake_1_1LockFlags.html" target="_top" xlink:title=" ">
<polygon fill="white" stroke="#bfbfbf" points="219.5,-341 104.5,-341 104.5,-320.25 219.5,-320.25 219.5,-341"/>
<text text-anchor="middle" x="162" y="-327.5" font-family="Helvetica,sans-Serif" font-size="10.00">nix::flake::LockFlags</text>
</a>
</g>
</g>
<!-- Node14&#45;&gt;Node8 -->
<g id="edge19_Node000008_Node000014" class="edge">
<title>Node14&#45;&gt;Node8</title>
<g id="a_edge19_Node000008_Node000014"><a xlink:title=" ">
<path fill="none" stroke="#9a32cd" stroke-dasharray="5,2" d="M159.53,-308.82C158.07,-296.47 156.28,-281.4 155.14,-271.78"/>
<polygon fill="#9a32cd" stroke="#9a32cd" points="156.02,-308.93 160.68,-318.45 162.97,-308.11 156.02,-308.93"/>
</a>
</g>
<text text-anchor="middle" x="183.47" y="-292.75" font-family="Helvetica,sans-Serif" font-size="10.00" fill="grey"> lockFlags</text>
</g>
<!-- Node15 -->
<g id="Node000015" class="node">
<title>Node15</title>
<g id="a_Node000015"><a xlink:href="structnix_1_1MixDefaultProfile.html" target="_top" xlink:title=" ">
<polygon fill="white" stroke="#bfbfbf" points="378.88,-232.75 257.12,-232.75 257.12,-212 378.88,-212 378.88,-232.75"/>
<text text-anchor="middle" x="318" y="-219.25" font-family="Helvetica,sans-Serif" font-size="10.00">nix::MixDefaultProfile</text>
</a>
</g>
</g>
<!-- Node15&#45;&gt;Node1 -->
<g id="edge20_Node000001_Node000015" class="edge">
<title>Node15&#45;&gt;Node1</title>
<g id="a_edge20_Node000001_Node000015"><a xlink:title=" ">
<path fill="none" stroke="#63b8ff" d="M305.77,-201.62C299.02,-188.87 292,-171.66 292,-155.25 292,-155.25 292,-155.25 292,-67.12 292,-44.48 269.54,-29.8 249.54,-21.22"/>
<polygon fill="#63b8ff" stroke="#63b8ff" points="302.69,-203.28 310.69,-210.23 308.76,-199.81 302.69,-203.28"/>
</a>
</g>
</g>
<!-- Node16&#45;&gt;Node15 -->
<g id="edge21_Node000015_Node000016" class="edge">
<title>Node16&#45;&gt;Node15</title>
<g id="a_edge21_Node000015_Node000016"><a xlink:title=" ">
<path fill="none" stroke="#63b8ff" d="M391.49,-311.11C372.5,-288.43 341.01,-250.85 326.19,-233.16"/>
<polygon fill="#63b8ff" stroke="#63b8ff" points="388.71,-313.24 397.81,-318.66 394.08,-308.75 388.71,-313.24"/>
</a>
</g>
</g>
</g>
</svg>
