<?xml version="1.0" encoding="UTF-8" standalone="no"?>
<!DOCTYPE svg PUBLIC "-//W3C//DTD SVG 1.1//EN"
 "http://www.w3.org/Graphics/SVG/1.1/DTD/svg11.dtd">
<!-- Generated by graphviz version 12.2.1 (0)
 -->
<!-- Title: lix/libexpr/symbol&#45;table.hh Pages: 1 -->
<svg width="1729pt" height="547pt"
 viewBox="0.00 0.00 1729.26 546.50" xmlns="http://www.w3.org/2000/svg" xmlns:xlink="http://www.w3.org/1999/xlink">
<g id="graph0" class="graph" transform="scale(1 1) rotate(0) translate(4 542.5)">
<title>lix/libexpr/symbol&#45;table.hh</title>
<!-- Node1 -->
<g id="Node000001" class="node">
<title>Node1</title>
<g id="a_Node000001"><a xlink:title=" ">
<polygon fill="#999999" stroke="#666666" points="1019.01,-538.5 915.26,-538.5 915.26,-505 1019.01,-505 1019.01,-538.5"/>
<text text-anchor="start" x="923.26" y="-525" font-family="Helvetica,sans-Serif" font-size="10.00">lix/libexpr/symbol</text>
<text text-anchor="middle" x="967.13" y="-512.25" font-family="Helvetica,sans-Serif" font-size="10.00">&#45;table.hh</text>
</a>
</g>
</g>
<!-- Node2 -->
<g id="Node000002" class="node">
<title>Node2</title>
<g id="a_Node000002"><a xlink:href="attr-set_8hh.html" target="_top" xlink:title=" ">
<polygon fill="white" stroke="#666666" points="1081.51,-355.5 962.76,-355.5 962.76,-334.75 1081.51,-334.75 1081.51,-355.5"/>
<text text-anchor="middle" x="1022.13" y="-342" font-family="Helvetica,sans-Serif" font-size="10.00">lix/libexpr/attr&#45;set.hh</text>
</a>
</g>
</g>
<!-- Node1&#45;&gt;Node2 -->
<g id="edge1_Node000001_Node000002" class="edge">
<title>Node1&#45;&gt;Node2</title>
<g id="a_edge1_Node000001_Node000002"><a xlink:title=" ">
<path fill="none" stroke="#63b8ff" d="M976.39,-493.87C983.85,-471.97 994.48,-440.21 1003.13,-412.25 1009.35,-392.17 1016,-368.44 1019.55,-355.58"/>
<polygon fill="#63b8ff" stroke="#63b8ff" points="973.12,-492.61 973.2,-503.21 979.74,-494.88 973.12,-492.61"/>
</a>
</g>
</g>
<!-- Node3 -->
<g id="Node000003" class="node">
<title>Node3</title>
<g id="a_Node000003"><a xlink:href="libexpr_2eval_8hh.html" target="_top" xlink:title=" ">
<polygon fill="white" stroke="#666666" points="854.01,-298.75 750.26,-298.75 750.26,-278 854.01,-278 854.01,-298.75"/>
<text text-anchor="middle" x="802.13" y="-285.25" font-family="Helvetica,sans-Serif" font-size="10.00">lix/libexpr/eval.hh</text>
</a>
</g>
</g>
<!-- Node1&#45;&gt;Node3 -->
<g id="edge34_Node000001_Node000003" class="edge">
<title>Node1&#45;&gt;Node3</title>
<g id="a_edge34_Node000001_Node000003"><a xlink:title=" ">
<path fill="none" stroke="#63b8ff" d="M904.26,-500.89C884.99,-492.92 864.57,-482.38 848.13,-469 805.11,-433.96 801.91,-410.69 796.13,-355.5 794.05,-335.55 797.57,-312.17 800.04,-299.24"/>
<polygon fill="#63b8ff" stroke="#63b8ff" points="902.82,-504.09 913.4,-504.51 905.39,-497.58 902.82,-504.09"/>
</a>
</g>
</g>
<!-- Node23 -->
<g id="Node000023" class="node">
<title>Node23</title>
<g id="a_Node000023"><a xlink:href="nixexpr_8hh.html" target="_top" xlink:title=" ">
<polygon fill="white" stroke="#666666" points="1168.13,-412.25 1050.13,-412.25 1050.13,-391.5 1168.13,-391.5 1168.13,-412.25"/>
<text text-anchor="middle" x="1109.13" y="-398.75" font-family="Helvetica,sans-Serif" font-size="10.00">lix/libexpr/nixexpr.hh</text>
</a>
</g>
</g>
<!-- Node1&#45;&gt;Node23 -->
<g id="edge35_Node000001_Node000023" class="edge">
<title>Node1&#45;&gt;Node23</title>
<g id="a_edge35_Node000001_Node000023"><a xlink:title=" ">
<path fill="none" stroke="#63b8ff" d="M998.74,-498C1010.65,-489.18 1024.19,-478.85 1036.13,-469 1059.35,-449.85 1085.15,-425.78 1099,-412.6"/>
<polygon fill="#63b8ff" stroke="#63b8ff" points="996.81,-495.08 990.82,-503.82 1000.95,-500.72 996.81,-495.08"/>
</a>
</g>
</g>
<!-- Node24 -->
<g id="Node000024" class="node">
<title>Node24</title>
<g id="a_Node000024"><a xlink:href="value_8hh.html" target="_top" xlink:title=" ">
<polygon fill="white" stroke="#666666" points="967.01,-469 857.26,-469 857.26,-448.25 967.01,-448.25 967.01,-469"/>
<text text-anchor="middle" x="912.13" y="-455.5" font-family="Helvetica,sans-Serif" font-size="10.00">lix/libexpr/value.hh</text>
</a>
</g>
</g>
<!-- Node1&#45;&gt;Node24 -->
<g id="edge40_Node000001_Node000024" class="edge">
<title>Node1&#45;&gt;Node24</title>
<g id="a_edge40_Node000001_Node000024"><a xlink:title=" ">
<path fill="none" stroke="#63b8ff" d="M945.21,-496.38C936.74,-486.97 927.53,-476.74 920.99,-469.47"/>
<polygon fill="#63b8ff" stroke="#63b8ff" points="942.38,-498.47 951.67,-503.57 947.58,-493.79 942.38,-498.47"/>
</a>
</g>
</g>
<!-- Node2&#45;&gt;Node3 -->
<g id="edge2_Node000002_Node000003" class="edge">
<title>Node2&#45;&gt;Node3</title>
<g id="a_edge2_Node000002_Node000003"><a xlink:title=" ">
<path fill="none" stroke="#63b8ff" d="M971.58,-331.54C932.14,-321.73 878.12,-308.29 841.77,-299.24"/>
<polygon fill="#63b8ff" stroke="#63b8ff" points="970.53,-334.89 981.08,-333.91 972.22,-328.1 970.53,-334.89"/>
</a>
</g>
</g>
<!-- Node4 -->
<g id="Node000004" class="node">
<title>Node4</title>
<g id="a_Node000004"><a xlink:href="cmd-profiles_8hh.html" target="_top" xlink:title=" ">
<polygon fill="white" stroke="#666666" points="1433.51,-166.12 1290.76,-166.12 1290.76,-145.38 1433.51,-145.38 1433.51,-166.12"/>
<text text-anchor="middle" x="1362.13" y="-152.62" font-family="Helvetica,sans-Serif" font-size="10.00">lix/libcmd/cmd&#45;profiles.hh</text>
</a>
</g>
</g>
<!-- Node3&#45;&gt;Node4 -->
<g id="edge3_Node000003_Node000004" class="edge">
<title>Node3&#45;&gt;Node4</title>
<g id="a_edge3_Node000003_Node000004"><a xlink:title=" ">
<path fill="none" stroke="#63b8ff" d="M865.41,-287.87C982.02,-287.77 1225.52,-282.53 1298.13,-242 1329.32,-224.59 1349.86,-184.98 1358.08,-166.54"/>
<polygon fill="#63b8ff" stroke="#63b8ff" points="865.71,-284.37 855.71,-287.87 865.71,-291.37 865.71,-284.37"/>
</a>
</g>
</g>
<!-- Node5 -->
<g id="Node000005" class="node">
<title>Node5</title>
<g id="a_Node000005"><a xlink:href="common-eval-args_8hh.html" target="_top" xlink:title=" ">
<polygon fill="white" stroke="#666666" points="375.38,-172.5 240.88,-172.5 240.88,-139 375.38,-139 375.38,-172.5"/>
<text text-anchor="start" x="248.88" y="-159" font-family="Helvetica,sans-Serif" font-size="10.00">lix/libcmd/common&#45;eval</text>
<text text-anchor="middle" x="308.13" y="-146.25" font-family="Helvetica,sans-Serif" font-size="10.00">&#45;args.hh</text>
</a>
</g>
</g>
<!-- Node3&#45;&gt;Node5 -->
<g id="edge4_Node000003_Node000005" class="edge">
<title>Node3&#45;&gt;Node5</title>
<g id="a_edge4_Node000003_Node000005"><a xlink:title=" ">
<path fill="none" stroke="#63b8ff" d="M738.81,-286.67C604.6,-284.52 301.28,-275.92 270.13,-242 251.72,-221.95 273.84,-191.5 291.22,-172.94"/>
<polygon fill="#63b8ff" stroke="#63b8ff" points="738.53,-290.17 748.58,-286.82 738.64,-283.17 738.53,-290.17"/>
</a>
</g>
</g>
<!-- Node7 -->
<g id="Node000007" class="node">
<title>Node7</title>
<g id="a_Node000007"><a xlink:href="installable-attr-path_8hh.html" target="_top" xlink:title=" ">
<polygon fill="white" stroke="#666666" points="528.13,-33.5 410.13,-33.5 410.13,0 528.13,0 528.13,-33.5"/>
<text text-anchor="start" x="418.13" y="-20" font-family="Helvetica,sans-Serif" font-size="10.00">lix/libcmd/installable</text>
<text text-anchor="middle" x="469.13" y="-7.25" font-family="Helvetica,sans-Serif" font-size="10.00">&#45;attr&#45;path.hh</text>
</a>
</g>
</g>
<!-- Node3&#45;&gt;Node7 -->
<g id="edge9_Node000003_Node000007" class="edge">
<title>Node3&#45;&gt;Node7</title>
<g id="a_edge9_Node000003_Node000007"><a xlink:title=" ">
<path fill="none" stroke="#63b8ff" d="M738.6,-285.92C560.49,-281.52 67.81,-267.13 44.13,-242 -23.68,-170 -33.7,-181.42 168.13,-69.5 208.65,-47.03 334.11,-31.12 409.66,-23.29"/>
<polygon fill="#63b8ff" stroke="#63b8ff" points="738.27,-289.41 748.35,-286.15 738.44,-282.41 738.27,-289.41"/>
</a>
</g>
</g>
<!-- Node9 -->
<g id="Node000009" class="node">
<title>Node9</title>
<g id="a_Node000009"><a xlink:href="installable-flake_8hh.html" target="_top" xlink:title=" ">
<polygon fill="white" stroke="#666666" points="295.13,-103 177.13,-103 177.13,-69.5 295.13,-69.5 295.13,-103"/>
<text text-anchor="start" x="185.13" y="-89.5" font-family="Helvetica,sans-Serif" font-size="10.00">lix/libcmd/installable</text>
<text text-anchor="middle" x="236.13" y="-76.75" font-family="Helvetica,sans-Serif" font-size="10.00">&#45;flake.hh</text>
</a>
</g>
</g>
<!-- Node3&#45;&gt;Node9 -->
<g id="edge10_Node000003_Node000009" class="edge">
<title>Node3&#45;&gt;Node9</title>
<g id="a_edge10_Node000003_Node000009"><a xlink:title=" ">
<path fill="none" stroke="#63b8ff" d="M738.87,-285.82C603.89,-281.96 296.82,-270.17 259.13,-242 216.27,-209.97 225.76,-135.6 232.41,-103.02"/>
<polygon fill="#63b8ff" stroke="#63b8ff" points="738.62,-289.31 748.71,-286.09 738.81,-282.31 738.62,-289.31"/>
</a>
</g>
</g>
<!-- Node10 -->
<g id="Node000010" class="node">
<title>Node10</title>
<g id="a_Node000010"><a xlink:href="installable-value_8hh.html" target="_top" xlink:title=" ">
<polygon fill="white" stroke="#666666" points="647.13,-172.5 529.13,-172.5 529.13,-139 647.13,-139 647.13,-172.5"/>
<text text-anchor="start" x="537.13" y="-159" font-family="Helvetica,sans-Serif" font-size="10.00">lix/libcmd/installable</text>
<text text-anchor="middle" x="588.13" y="-146.25" font-family="Helvetica,sans-Serif" font-size="10.00">&#45;value.hh</text>
</a>
</g>
</g>
<!-- Node3&#45;&gt;Node10 -->
<g id="edge11_Node000003_Node000010" class="edge">
<title>Node3&#45;&gt;Node10</title>
<g id="a_edge11_Node000003_Node000010"><a xlink:title=" ">
<path fill="none" stroke="#63b8ff" d="M738.56,-288.35C650.72,-288.19 499.06,-281.93 464.13,-242 438.08,-212.21 486.29,-187.82 529.99,-172.88"/>
<polygon fill="#63b8ff" stroke="#63b8ff" points="738.48,-291.86 748.48,-288.34 738.48,-284.86 738.48,-291.86"/>
</a>
</g>
</g>
<!-- Node11 -->
<g id="Node000011" class="node">
<title>Node11</title>
<g id="a_Node000011"><a xlink:href="installables_8hh.html" target="_top" xlink:title=" ">
<polygon fill="white" stroke="#666666" points="417.26,-235.62 279.01,-235.62 279.01,-214.88 417.26,-214.88 417.26,-235.62"/>
<text text-anchor="middle" x="348.13" y="-222.12" font-family="Helvetica,sans-Serif" font-size="10.00">lix/libcmd/installables.hh</text>
</a>
</g>
</g>
<!-- Node3&#45;&gt;Node11 -->
<g id="edge15_Node000003_Node000011" class="edge">
<title>Node3&#45;&gt;Node11</title>
<g id="a_edge15_Node000003_Node000011"><a xlink:title=" ">
<path fill="none" stroke="#63b8ff" d="M738.33,-280.86C664.27,-273 538.55,-258.74 431.13,-242 420.12,-240.28 408.33,-238.2 397.2,-236.11"/>
<polygon fill="#63b8ff" stroke="#63b8ff" points="737.94,-284.34 748.25,-281.91 738.68,-277.38 737.94,-284.34"/>
</a>
</g>
</g>
<!-- Node13 -->
<g id="Node000013" class="node">
<title>Node13</title>
<g id="a_Node000013"><a xlink:href="libcmd_2repl_8hh.html" target="_top" xlink:title=" ">
<polygon fill="white" stroke="#666666" points="573.51,-235.62 472.76,-235.62 472.76,-214.88 573.51,-214.88 573.51,-235.62"/>
<text text-anchor="middle" x="523.13" y="-222.12" font-family="Helvetica,sans-Serif" font-size="10.00">lix/libcmd/repl.hh</text>
</a>
</g>
</g>
<!-- Node3&#45;&gt;Node13 -->
<g id="edge18_Node000003_Node000013" class="edge">
<title>Node3&#45;&gt;Node13</title>
<g id="a_edge18_Node000003_Node000013"><a xlink:title=" ">
<path fill="none" stroke="#63b8ff" d="M739.25,-275.4C695.13,-266.76 634.85,-254.46 582.13,-242 574.5,-240.2 566.35,-238.12 558.62,-236.08"/>
<polygon fill="#63b8ff" stroke="#63b8ff" points="738.42,-278.81 748.9,-277.28 739.76,-271.93 738.42,-278.81"/>
</a>
</g>
</g>
<!-- Node14 -->
<g id="Node000014" class="node">
<title>Node14</title>
<g id="a_Node000014"><a xlink:href="attr-path_8hh.html" target="_top" xlink:title=" ">
<polygon fill="white" stroke="#666666" points="716.88,-235.62 591.38,-235.62 591.38,-214.88 716.88,-214.88 716.88,-235.62"/>
<text text-anchor="middle" x="654.13" y="-222.12" font-family="Helvetica,sans-Serif" font-size="10.00">lix/libexpr/attr&#45;path.hh</text>
</a>
</g>
</g>
<!-- Node3&#45;&gt;Node14 -->
<g id="edge19_Node000003_Node000014" class="edge">
<title>Node3&#45;&gt;Node14</title>
<g id="a_edge19_Node000003_Node000014"><a xlink:title=" ">
<path fill="none" stroke="#63b8ff" d="M767.97,-273.27C740.37,-261.86 702.21,-246.11 677.85,-236.05"/>
<polygon fill="#63b8ff" stroke="#63b8ff" points="766.38,-276.39 776.96,-276.98 769.05,-269.92 766.38,-276.39"/>
</a>
</g>
</g>
<!-- Node15 -->
<g id="Node000015" class="node">
<title>Node15</title>
<g id="a_Node000015"><a xlink:href="eval-cache_8hh.html" target="_top" xlink:title=" ">
<polygon fill="white" stroke="#666666" points="1289.13,-235.62 1153.13,-235.62 1153.13,-214.88 1289.13,-214.88 1289.13,-235.62"/>
<text text-anchor="middle" x="1221.13" y="-222.12" font-family="Helvetica,sans-Serif" font-size="10.00">lix/libexpr/eval&#45;cache.hh</text>
</a>
</g>
</g>
<!-- Node3&#45;&gt;Node15 -->
<g id="edge20_Node000003_Node000015" class="edge">
<title>Node3&#45;&gt;Node15</title>
<g id="a_edge20_Node000003_Node000015"><a xlink:title=" ">
<path fill="none" stroke="#63b8ff" d="M865.52,-280.31C934.33,-272.33 1047.34,-258.3 1144.13,-242 1154.36,-240.28 1165.3,-238.19 1175.63,-236.11"/>
<polygon fill="#63b8ff" stroke="#63b8ff" points="865.49,-276.79 855.95,-281.41 866.29,-283.74 865.49,-276.79"/>
</a>
</g>
</g>
<!-- Node16 -->
<g id="Node000016" class="node">
<title>Node16</title>
<g id="a_Node000016"><a xlink:href="eval-inline_8hh.html" target="_top" xlink:title=" ">
<polygon fill="white" stroke="#666666" points="869.38,-235.62 734.88,-235.62 734.88,-214.88 869.38,-214.88 869.38,-235.62"/>
<text text-anchor="middle" x="802.13" y="-222.12" font-family="Helvetica,sans-Serif" font-size="10.00">lix/libexpr/eval&#45;inline.hh</text>
</a>
</g>
</g>
<!-- Node3&#45;&gt;Node16 -->
<g id="edge24_Node000003_Node000016" class="edge">
<title>Node3&#45;&gt;Node16</title>
<g id="a_edge24_Node000003_Node000016"><a xlink:title=" ">
<path fill="none" stroke="#63b8ff" d="M795.69,-266.45C795.01,-256.06 795.46,-244.02 797.06,-235.84"/>
<polygon fill="#63b8ff" stroke="#63b8ff" points="792.18,-266.54 796.84,-276.05 799.13,-265.71 792.18,-266.54"/>
</a>
</g>
</g>
<!-- Node17 -->
<g id="Node000017" class="node">
<title>Node17</title>
<g id="a_Node000017"><a xlink:href="libexpr_2flake_2flake_8hh.html" target="_top" xlink:title=" ">
<polygon fill="white" stroke="#666666" points="185.26,-235.62 53.01,-235.62 53.01,-214.88 185.26,-214.88 185.26,-235.62"/>
<text text-anchor="middle" x="119.13" y="-222.12" font-family="Helvetica,sans-Serif" font-size="10.00">lix/libexpr/flake/flake.hh</text>
</a>
</g>
</g>
<!-- Node3&#45;&gt;Node17 -->
<g id="edge26_Node000003_Node000017" class="edge">
<title>Node3&#45;&gt;Node17</title>
<g id="a_edge26_Node000003_Node000017"><a xlink:title=" ">
<path fill="none" stroke="#63b8ff" d="M738.66,-285.09C628.47,-280.57 394.81,-268.53 199.13,-242 187.77,-240.46 175.59,-238.32 164.25,-236.11"/>
<polygon fill="#63b8ff" stroke="#63b8ff" points="738.25,-288.58 748.38,-285.48 738.53,-281.58 738.25,-288.58"/>
</a>
</g>
</g>
<!-- Node18 -->
<g id="Node000018" class="node">
<title>Node18</title>
<g id="a_Node000018"><a xlink:href="function-trace_8hh.html" target="_top" xlink:title=" ">
<polygon fill="white" stroke="#666666" points="994.88,-242 887.38,-242 887.38,-208.5 994.88,-208.5 994.88,-242"/>
<text text-anchor="start" x="895.38" y="-228.5" font-family="Helvetica,sans-Serif" font-size="10.00">lix/libexpr/function</text>
<text text-anchor="middle" x="941.13" y="-215.75" font-family="Helvetica,sans-Serif" font-size="10.00">&#45;trace.hh</text>
</a>
</g>
</g>
<!-- Node3&#45;&gt;Node18 -->
<g id="edge28_Node000003_Node000018" class="edge">
<title>Node3&#45;&gt;Node18</title>
<g id="a_edge28_Node000003_Node000018"><a xlink:title=" ">
<path fill="none" stroke="#63b8ff" d="M834.73,-273.04C855.55,-263.89 882.6,-251.99 904.22,-242.48"/>
<polygon fill="#63b8ff" stroke="#63b8ff" points="833.6,-269.72 825.85,-276.94 836.42,-276.12 833.6,-269.72"/>
</a>
</g>
</g>
<!-- Node19 -->
<g id="Node000019" class="node">
<title>Node19</title>
<g id="a_Node000019"><a xlink:href="get-drvs_8hh.html" target="_top" xlink:title=" ">
<polygon fill="white" stroke="#666666" points="1468.76,-235.62 1345.51,-235.62 1345.51,-214.88 1468.76,-214.88 1468.76,-235.62"/>
<text text-anchor="middle" x="1407.13" y="-222.12" font-family="Helvetica,sans-Serif" font-size="10.00">lix/libexpr/get&#45;drvs.hh</text>
</a>
</g>
</g>
<!-- Node3&#45;&gt;Node19 -->
<g id="edge29_Node000003_Node000019" class="edge">
<title>Node3&#45;&gt;Node19</title>
<g id="a_edge29_Node000003_Node000019"><a xlink:title=" ">
<path fill="none" stroke="#63b8ff" d="M865.53,-284.38C965.09,-279.12 1164,-266.4 1331.13,-242 1341.93,-240.42 1353.51,-238.27 1364.29,-236.06"/>
<polygon fill="#63b8ff" stroke="#63b8ff" points="865.5,-280.87 855.69,-284.89 865.86,-287.86 865.5,-280.87"/>
</a>
</g>
</g>
<!-- Node20 -->
<g id="Node000020" class="node">
<title>Node20</title>
<g id="a_Node000020"><a xlink:href="primops_8hh.html" target="_top" xlink:title=" ">
<polygon fill="white" stroke="#666666" points="1135.38,-235.62 1012.88,-235.62 1012.88,-214.88 1135.38,-214.88 1135.38,-235.62"/>
<text text-anchor="middle" x="1074.13" y="-222.12" font-family="Helvetica,sans-Serif" font-size="10.00">lix/libexpr/primops.hh</text>
</a>
</g>
</g>
<!-- Node3&#45;&gt;Node20 -->
<g id="edge31_Node000003_Node000020" class="edge">
<title>Node3&#45;&gt;Node20</title>
<g id="a_edge31_Node000003_Node000020"><a xlink:title=" ">
<path fill="none" stroke="#63b8ff" d="M856.89,-275.08C897.52,-265.96 954.29,-253.21 1004.13,-242 1012.64,-240.09 1021.73,-238.04 1030.45,-236.08"/>
<polygon fill="#63b8ff" stroke="#63b8ff" points="856.34,-271.62 847.35,-277.22 857.87,-278.45 856.34,-271.62"/>
</a>
</g>
</g>
<!-- Node21 -->
<g id="Node000021" class="node">
<title>Node21</title>
<g id="a_Node000021"><a xlink:href="value-to-json_8hh.html" target="_top" xlink:title=" ">
<polygon fill="white" stroke="#666666" points="1721.26,-242 1613.01,-242 1613.01,-208.5 1721.26,-208.5 1721.26,-242"/>
<text text-anchor="start" x="1621.01" y="-228.5" font-family="Helvetica,sans-Serif" font-size="10.00">lix/libexpr/value&#45;to</text>
<text text-anchor="middle" x="1667.13" y="-215.75" font-family="Helvetica,sans-Serif" font-size="10.00">&#45;json.hh</text>
</a>
</g>
</g>
<!-- Node3&#45;&gt;Node21 -->
<g id="edge32_Node000003_Node000021" class="edge">
<title>Node3&#45;&gt;Node21</title>
<g id="a_edge32_Node000003_Node000021"><a xlink:title=" ">
<path fill="none" stroke="#63b8ff" d="M865.48,-287.83C1001.55,-287.92 1331.5,-283.41 1604.13,-242 1606.92,-241.58 1609.76,-241.09 1612.63,-240.54"/>
<polygon fill="#63b8ff" stroke="#63b8ff" points="865.61,-284.33 855.6,-287.81 865.6,-291.33 865.61,-284.33"/>
</a>
</g>
</g>
<!-- Node22 -->
<g id="Node000022" class="node">
<title>Node22</title>
<g id="a_Node000022"><a xlink:href="value-to-xml_8hh.html" target="_top" xlink:title=" ">
<polygon fill="white" stroke="#666666" points="1595.26,-242 1487.01,-242 1487.01,-208.5 1595.26,-208.5 1595.26,-242"/>
<text text-anchor="start" x="1495.01" y="-228.5" font-family="Helvetica,sans-Serif" font-size="10.00">lix/libexpr/value&#45;to</text>
<text text-anchor="middle" x="1541.13" y="-215.75" font-family="Helvetica,sans-Serif" font-size="10.00">&#45;xml.hh</text>
</a>
</g>
</g>
<!-- Node3&#45;&gt;Node22 -->
<g id="edge33_Node000003_Node000022" class="edge">
<title>Node3&#45;&gt;Node22</title>
<g id="a_edge33_Node000003_Node000022"><a xlink:title=" ">
<path fill="none" stroke="#63b8ff" d="M865.37,-286.87C985.5,-285.09 1254.69,-277.14 1478.13,-242 1480.92,-241.56 1483.76,-241.06 1486.62,-240.51"/>
<polygon fill="#63b8ff" stroke="#63b8ff" points="865.68,-283.37 855.73,-287.01 865.78,-290.37 865.68,-283.37"/>
</a>
</g>
</g>
<!-- Node6 -->
<g id="Node000006" class="node">
<title>Node6</title>
<g id="a_Node000006"><a xlink:href="command_8hh.html" target="_top" xlink:title=" ">
<polygon fill="white" stroke="#666666" points="653.51,-96.62 522.76,-96.62 522.76,-75.88 653.51,-75.88 653.51,-96.62"/>
<text text-anchor="middle" x="588.13" y="-83.12" font-family="Helvetica,sans-Serif" font-size="10.00">lix/libcmd/command.hh</text>
</a>
</g>
</g>
<!-- Node5&#45;&gt;Node6 -->
<g id="edge5_Node000005_Node000006" class="edge">
<title>Node5&#45;&gt;Node6</title>
<g id="a_edge5_Node000005_Node000006"><a xlink:title=" ">
<path fill="none" stroke="#63b8ff" d="M386.12,-135.95C438.36,-123.36 505.06,-107.28 547.19,-97.12"/>
<polygon fill="#63b8ff" stroke="#63b8ff" points="385.57,-132.48 376.67,-138.23 387.21,-139.29 385.57,-132.48"/>
</a>
</g>
</g>
<!-- Node5&#45;&gt;Node7 -->
<g id="edge8_Node000005_Node000007" class="edge">
<title>Node5&#45;&gt;Node7</title>
<g id="a_edge8_Node000005_Node000007"><a xlink:title=" ">
<path fill="none" stroke="#63b8ff" d="M335.55,-131.42C368.3,-103.55 422.19,-57.7 450.47,-33.63"/>
<polygon fill="#63b8ff" stroke="#63b8ff" points="333.42,-128.64 328.07,-137.79 337.95,-133.97 333.42,-128.64"/>
</a>
</g>
</g>
<!-- Node6&#45;&gt;Node7 -->
<g id="edge6_Node000006_Node000007" class="edge">
<title>Node6&#45;&gt;Node7</title>
<g id="a_edge6_Node000006_Node000007"><a xlink:title=" ">
<path fill="none" stroke="#63b8ff" d="M561.02,-69.87C542.05,-59.11 516.76,-44.76 497.51,-33.85"/>
<polygon fill="#63b8ff" stroke="#63b8ff" points="559.09,-72.8 569.51,-74.69 562.54,-66.71 559.09,-72.8"/>
</a>
</g>
</g>
<!-- Node8 -->
<g id="Node000008" class="node">
<title>Node8</title>
<g id="a_Node000008"><a xlink:href="nix_2daemon_8cc.html" target="_top" xlink:title=" ">
<polygon fill="white" stroke="#666666" points="648.26,-27.12 546.01,-27.12 546.01,-6.38 648.26,-6.38 648.26,-27.12"/>
<text text-anchor="middle" x="597.13" y="-13.62" font-family="Helvetica,sans-Serif" font-size="10.00">lix/nix/daemon.cc</text>
</a>
</g>
</g>
<!-- Node6&#45;&gt;Node8 -->
<g id="edge7_Node000006_Node000008" class="edge">
<title>Node6&#45;&gt;Node8</title>
<g id="a_edge7_Node000006_Node000008"><a xlink:title=" ">
<path fill="none" stroke="#63b8ff" d="M590.91,-64.44C592.56,-52.09 594.56,-37.02 595.85,-27.4"/>
<polygon fill="#63b8ff" stroke="#63b8ff" points="587.48,-63.7 589.62,-74.08 594.41,-64.63 587.48,-63.7"/>
</a>
</g>
</g>
<!-- Node10&#45;&gt;Node6 -->
<g id="edge12_Node000010_Node000006" class="edge">
<title>Node10&#45;&gt;Node6</title>
<g id="a_edge12_Node000010_Node000006"><a xlink:title=" ">
<path fill="none" stroke="#63b8ff" d="M588.13,-127.28C588.13,-116.58 588.13,-105.01 588.13,-97.07"/>
<polygon fill="#63b8ff" stroke="#63b8ff" points="584.63,-127.24 588.13,-137.24 591.63,-127.24 584.63,-127.24"/>
</a>
</g>
</g>
<!-- Node10&#45;&gt;Node7 -->
<g id="edge13_Node000010_Node000007" class="edge">
<title>Node10&#45;&gt;Node7</title>
<g id="a_edge13_Node000010_Node000007"><a xlink:title=" ">
<path fill="none" stroke="#63b8ff" d="M549.02,-132.46C536.85,-124.27 524.04,-114.22 514.13,-103 495.64,-82.05 482.13,-52.15 474.96,-33.9"/>
<polygon fill="#63b8ff" stroke="#63b8ff" points="547,-135.33 557.3,-137.8 550.79,-129.44 547,-135.33"/>
</a>
</g>
</g>
<!-- Node10&#45;&gt;Node9 -->
<g id="edge14_Node000010_Node000009" class="edge">
<title>Node10&#45;&gt;Node9</title>
<g id="a_edge14_Node000010_Node000009"><a xlink:title=" ">
<path fill="none" stroke="#63b8ff" d="M517.73,-138.55C435.19,-121.66 350.68,-106.69 295.58,-97.24"/>
<polygon fill="#63b8ff" stroke="#63b8ff" points="516.85,-141.95 527.35,-140.54 518.26,-135.09 516.85,-141.95"/>
</a>
</g>
</g>
<!-- Node11&#45;&gt;Node10 -->
<g id="edge17_Node000011_Node000010" class="edge">
<title>Node11&#45;&gt;Node10</title>
<g id="a_edge17_Node000011_Node000010"><a xlink:title=" ">
<path fill="none" stroke="#63b8ff" d="M394,-211.35C432.8,-200.44 488.6,-184.74 530.43,-172.98"/>
<polygon fill="#63b8ff" stroke="#63b8ff" points="393.17,-207.95 384.49,-214.03 395.06,-214.69 393.17,-207.95"/>
</a>
</g>
</g>
<!-- Node12 -->
<g id="Node000012" class="node">
<title>Node12</title>
<g id="a_Node000012"><a xlink:href="installable-derived-path_8hh.html" target="_top" xlink:title=" ">
<polygon fill="white" stroke="#666666" points="511.13,-172.5 393.13,-172.5 393.13,-139 511.13,-139 511.13,-172.5"/>
<text text-anchor="start" x="401.13" y="-159" font-family="Helvetica,sans-Serif" font-size="10.00">lix/libcmd/installable</text>
<text text-anchor="middle" x="452.13" y="-146.25" font-family="Helvetica,sans-Serif" font-size="10.00">&#45;derived&#45;path.hh</text>
</a>
</g>
</g>
<!-- Node11&#45;&gt;Node12 -->
<g id="edge16_Node000011_Node000012" class="edge">
<title>Node11&#45;&gt;Node12</title>
<g id="a_edge16_Node000011_Node000012"><a xlink:title=" ">
<path fill="none" stroke="#63b8ff" d="M372.52,-208.42C388.98,-197.74 410.65,-183.68 427.22,-172.92"/>
<polygon fill="#63b8ff" stroke="#63b8ff" points="370.79,-205.37 364.3,-213.75 374.6,-211.25 370.79,-205.37"/>
</a>
</g>
</g>
<!-- Node15&#45;&gt;Node6 -->
<g id="edge21_Node000015_Node000006" class="edge">
<title>Node15&#45;&gt;Node6</title>
<g id="a_edge21_Node000015_Node000006"><a xlink:title=" ">
<path fill="none" stroke="#63b8ff" d="M1164.5,-211.99C1040.45,-185.14 746.8,-121.59 633.67,-97.11"/>
<polygon fill="#63b8ff" stroke="#63b8ff" points="1163.62,-215.38 1174.13,-214.08 1165.1,-208.54 1163.62,-215.38"/>
</a>
</g>
</g>
<!-- Node15&#45;&gt;Node7 -->
<g id="edge22_Node000015_Node000007" class="edge">
<title>Node15&#45;&gt;Node7</title>
<g id="a_edge22_Node000015_Node000007"><a xlink:title=" ">
<path fill="none" stroke="#63b8ff" d="M1175.95,-211.33C1116.94,-194.49 1010.4,-164.22 919.13,-139 805.08,-107.48 776.39,-100.27 662.13,-69.5 617.25,-57.41 566.47,-43.8 528.27,-33.57"/>
<polygon fill="#63b8ff" stroke="#63b8ff" points="1174.72,-214.61 1185.29,-213.99 1176.64,-207.88 1174.72,-214.61"/>
</a>
</g>
</g>
<!-- Node15&#45;&gt;Node10 -->
<g id="edge23_Node000015_Node000010" class="edge">
<title>Node15&#45;&gt;Node10</title>
<g id="a_edge23_Node000015_Node000010"><a xlink:title=" ">
<path fill="none" stroke="#63b8ff" d="M1166.22,-212.26C1158.81,-210.86 1151.3,-209.56 1144.13,-208.5 964.09,-181.79 749.08,-166.42 647.23,-160.13"/>
<polygon fill="#63b8ff" stroke="#63b8ff" points="1165.33,-215.65 1175.82,-214.13 1166.68,-208.78 1165.33,-215.65"/>
</a>
</g>
</g>
<!-- Node16&#45;&gt;Node3 -->
<g id="edge25_Node000016_Node000003" class="edge">
<title>Node16&#45;&gt;Node3</title>
<g id="a_edge25_Node000016_Node000003"><a xlink:title=" ">
<path fill="none" stroke="#63b8ff" d="M808.58,-247.23C809.25,-257.51 808.81,-269.4 807.25,-277.55"/>
<polygon fill="#63b8ff" stroke="#63b8ff" points="812.06,-246.86 807.39,-237.35 805.11,-247.7 812.06,-246.86"/>
</a>
</g>
</g>
<!-- Node17&#45;&gt;Node10 -->
<g id="edge27_Node000017_Node000010" class="edge">
<title>Node17&#45;&gt;Node10</title>
<g id="a_edge27_Node000017_Node000010"><a xlink:title=" ">
<path fill="none" stroke="#63b8ff" d="M196.53,-216.57C277.55,-207.99 408.29,-192.62 520.13,-172.5 523,-171.99 525.92,-171.43 528.87,-170.84"/>
<polygon fill="#63b8ff" stroke="#63b8ff" points="196.52,-213.05 186.94,-217.57 197.25,-220.01 196.52,-213.05"/>
</a>
</g>
</g>
<!-- Node19&#45;&gt;Node4 -->
<g id="edge30_Node000019_Node000004" class="edge">
<title>Node19&#45;&gt;Node4</title>
<g id="a_edge30_Node000019_Node000004"><a xlink:title=" ">
<path fill="none" stroke="#63b8ff" d="M1394.53,-205.35C1386.09,-192.68 1375.32,-176.52 1368.57,-166.4"/>
<polygon fill="#63b8ff" stroke="#63b8ff" points="1391.39,-206.94 1399.85,-213.32 1397.21,-203.06 1391.39,-206.94"/>
</a>
</g>
</g>
<!-- Node23&#45;&gt;Node2 -->
<g id="edge36_Node000023_Node000002" class="edge">
<title>Node23&#45;&gt;Node2</title>
<g id="a_edge36_Node000023_Node000002"><a xlink:title=" ">
<path fill="none" stroke="#63b8ff" d="M1083.88,-384.98C1068.9,-375.55 1050.38,-363.9 1037.55,-355.83"/>
<polygon fill="#63b8ff" stroke="#63b8ff" points="1081.97,-387.92 1092.3,-390.28 1085.7,-381.99 1081.97,-387.92"/>
</a>
</g>
</g>
<!-- Node23&#45;&gt;Node3 -->
<g id="edge37_Node000023_Node000003" class="edge">
<title>Node23&#45;&gt;Node3</title>
<g id="a_edge37_Node000023_Node000003"><a xlink:title=" ">
<path fill="none" stroke="#63b8ff" d="M1108.75,-379.95C1107.31,-365.15 1102.86,-346 1090.13,-334.75 1056.04,-304.63 927.84,-294.44 854.49,-291.04"/>
<polygon fill="#63b8ff" stroke="#63b8ff" points="1105.24,-379.8 1109.29,-389.59 1112.23,-379.41 1105.24,-379.8"/>
</a>
</g>
</g>
<!-- Node23&#45;&gt;Node21 -->
<g id="edge38_Node000023_Node000021" class="edge">
<title>Node23&#45;&gt;Node21</title>
<g id="a_edge38_Node000023_Node000021"><a xlink:title=" ">
<path fill="none" stroke="#63b8ff" d="M1153.66,-387.93C1184.23,-378.98 1225.7,-366.72 1262.13,-355.5 1390.52,-315.98 1541.06,-267.33 1617.36,-242.5"/>
<polygon fill="#63b8ff" stroke="#63b8ff" points="1152.99,-384.48 1144.38,-390.65 1154.96,-391.2 1152.99,-384.48"/>
</a>
</g>
</g>
<!-- Node23&#45;&gt;Node22 -->
<g id="edge39_Node000023_Node000022" class="edge">
<title>Node23&#45;&gt;Node22</title>
<g id="a_edge39_Node000023_Node000022"><a xlink:title=" ">
<path fill="none" stroke="#63b8ff" d="M1143.66,-386.92C1222.76,-354.94 1416.75,-276.53 1501,-242.47"/>
<polygon fill="#63b8ff" stroke="#63b8ff" points="1142.65,-383.55 1134.69,-390.54 1145.27,-390.04 1142.65,-383.55"/>
</a>
</g>
</g>
<!-- Node24&#45;&gt;Node3 -->
<g id="edge41_Node000024_Node000003" class="edge">
<title>Node24&#45;&gt;Node3</title>
<g id="a_edge41_Node000024_Node000003"><a xlink:title=" ">
<path fill="none" stroke="#63b8ff" d="M864.94,-443.69C849.03,-436.72 832.66,-426.61 822.13,-412.25 796.45,-377.21 798.77,-321.45 800.95,-299.1"/>
<polygon fill="#63b8ff" stroke="#63b8ff" points="863.27,-446.79 873.85,-447.27 865.88,-440.3 863.27,-446.79"/>
</a>
</g>
</g>
<!-- Node24&#45;&gt;Node17 -->
<g id="edge42_Node000024_Node000017" class="edge">
<title>Node24&#45;&gt;Node17</title>
<g id="a_edge42_Node000024_Node000017"><a xlink:title=" ">
<path fill="none" stroke="#63b8ff" d="M867.35,-444.56C724.03,-402.74 278.7,-272.81 152.67,-236.04"/>
<polygon fill="#63b8ff" stroke="#63b8ff" points="866.28,-447.89 876.86,-447.33 868.24,-441.17 866.28,-447.89"/>
</a>
</g>
</g>
<!-- Node24&#45;&gt;Node23 -->
<g id="edge43_Node000024_Node000023" class="edge">
<title>Node24&#45;&gt;Node23</title>
<g id="a_edge43_Node000024_Node000023"><a xlink:title=" ">
<path fill="none" stroke="#63b8ff" d="M958.34,-444.78C993.67,-434.97 1041.62,-421.64 1073.89,-412.67"/>
<polygon fill="#63b8ff" stroke="#63b8ff" points="957.51,-441.38 948.81,-447.43 959.38,-448.13 957.51,-441.38"/>
</a>
</g>
</g>
<!-- Node25 -->
<g id="Node000025" class="node">
<title>Node25</title>
<g id="a_Node000025"><a xlink:href="print-ambiguous_8hh.html" target="_top" xlink:title=" ">
<polygon fill="white" stroke="#666666" points="993.63,-412.25 830.63,-412.25 830.63,-391.5 993.63,-391.5 993.63,-412.25"/>
<text text-anchor="middle" x="912.13" y="-398.75" font-family="Helvetica,sans-Serif" font-size="10.00">lix/libexpr/print&#45;ambiguous.hh</text>
</a>
</g>
</g>
<!-- Node24&#45;&gt;Node25 -->
<g id="edge44_Node000024_Node000025" class="edge">
<title>Node24&#45;&gt;Node25</title>
<g id="a_edge44_Node000024_Node000025"><a xlink:title=" ">
<path fill="none" stroke="#63b8ff" d="M912.13,-436.38C912.13,-428.16 912.13,-419.18 912.13,-412.58"/>
<polygon fill="#63b8ff" stroke="#63b8ff" points="908.63,-436.32 912.13,-446.32 915.63,-436.32 908.63,-436.32"/>
</a>
</g>
</g>
</g>
</svg>
